<svg width="154" height="14" viewBox="0 0 154 14" fill="none" xmlns="http://www.w3.org/2000/svg">
<path d="M10.1562 1.7207H6.37695V13H4.61914V1.7207H0.839844V0.236328H10.1562V1.7207ZM16.4941 3.01953C16.696 3.01953 16.888 3.06185 17.0703 3.14648C17.2526 3.22461 17.4121 3.33203 17.5488 3.46875C17.6855 3.60547 17.793 3.76497 17.8711 3.94727C17.9557 4.12956 17.998 4.32161 17.998 4.52344C17.998 4.73177 17.9557 4.92708 17.8711 5.10938C17.793 5.28516 17.6855 5.44141 17.5488 5.57812C17.4121 5.71484 17.2526 5.82227 17.0703 5.90039C16.888 5.97852 16.696 6.01758 16.4941 6.01758C16.2858 6.01758 16.0905 5.97852 15.9082 5.90039C15.7324 5.82227 15.5762 5.71484 15.4395 5.57812C15.3027 5.44141 15.1953 5.28516 15.1172 5.10938C15.0391 4.92708 15 4.73177 15 4.52344C15 4.32161 15.0391 4.12956 15.1172 3.94727C15.1953 3.76497 15.3027 3.60547 15.4395 3.46875C15.5762 3.33203 15.7324 3.22461 15.9082 3.14648C16.0905 3.06185 16.2858 3.01953 16.4941 3.01953ZM16.4941 10.1777C16.696 10.1777 16.888 10.2201 17.0703 10.3047C17.2526 10.3828 17.4121 10.4902 17.5488 10.627C17.6855 10.7637 17.793 10.9232 17.8711 11.1055C17.9557 11.2878 17.998 11.4798 17.998 11.6816C17.998 11.89 17.9557 12.0853 17.8711 12.2676C17.793 12.4434 17.6855 12.5996 17.5488 12.7363C17.4121 12.873 17.2526 12.9805 17.0703 13.0586C16.888 13.1367 16.696 13.1758 16.4941 13.1758C16.2858 13.1758 16.0905 13.1367 15.9082 13.0586C15.7324 12.9805 15.5762 12.873 15.4395 12.7363C15.3027 12.5996 15.1953 12.4434 15.1172 12.2676C15.0391 12.0853 15 11.89 15 11.6816C15 11.4798 15.0391 11.2878 15.1172 11.1055C15.1953 10.9232 15.3027 10.7637 15.4395 10.627C15.5762 10.4902 15.7324 10.3828 15.9082 10.3047C16.0905 10.2201 16.2858 10.1777 16.4941 10.1777ZM42.7051 12.5215C41.6829 12.9447 40.612 13.1562 39.4922 13.1562C37.6888 13.1562 36.3021 12.6191 35.332 11.5449C34.3685 10.4642 33.8867 8.86914 33.8867 6.75977C33.8867 5.73763 34.0202 4.81315 34.2871 3.98633C34.554 3.15951 34.9349 2.45964 35.4297 1.88672C35.9245 1.30729 36.5234 0.861328 37.2266 0.548828C37.9297 0.236328 38.7174 0.0800781 39.5898 0.0800781C40.1823 0.0800781 40.7324 0.132161 41.2402 0.236328C41.748 0.333984 42.2363 0.486979 42.7051 0.695312V2.4043C42.2428 2.15039 41.7643 1.95833 41.2695 1.82812C40.7747 1.69141 40.2344 1.62305 39.6484 1.62305C39.0495 1.62305 38.5059 1.73698 38.0176 1.96484C37.5358 2.1862 37.1257 2.51172 36.7871 2.94141C36.4486 3.36458 36.1882 3.88542 36.0059 4.50391C35.8236 5.11589 35.7324 5.81576 35.7324 6.60352C35.7324 8.25716 36.0677 9.50391 36.7383 10.3438C37.4089 11.1836 38.3919 11.6035 39.6875 11.6035C40.2344 11.6035 40.7585 11.5417 41.2598 11.418C41.7611 11.2878 42.2428 11.1087 42.7051 10.8809V12.5215ZM53.8086 2.42383C53.3333 2.16992 52.8451 1.97461 52.3438 1.83789C51.8424 1.69466 51.2956 1.62305 50.7031 1.62305C50.026 1.62305 49.4238 1.74349 48.8965 1.98438C48.3691 2.22526 47.9232 2.56706 47.5586 3.00977C47.2005 3.44596 46.9238 3.97331 46.7285 4.5918C46.5397 5.21029 46.4453 5.89388 46.4453 6.64258C46.4453 7.42383 46.5234 8.1237 46.6797 8.74219C46.8359 9.36068 47.0801 9.88477 47.4121 10.3145C47.7441 10.7441 48.1673 11.0729 48.6816 11.3008C49.2025 11.5286 49.8242 11.6426 50.5469 11.6426C50.6706 11.6426 50.804 11.6361 50.9473 11.623C51.0905 11.61 51.2337 11.5938 51.377 11.5742C51.5202 11.5482 51.6569 11.5189 51.7871 11.4863C51.9238 11.4538 52.0443 11.418 52.1484 11.3789V7.31641H49.541V5.88086H53.8672V12.4043C53.6003 12.528 53.3171 12.6387 53.0176 12.7363C52.7246 12.834 52.4219 12.9154 52.1094 12.9805C51.8034 13.0456 51.4974 13.0944 51.1914 13.127C50.8854 13.1595 50.5892 13.1758 50.3027 13.1758C49.4303 13.1758 48.6426 13.0391 47.9395 12.7656C47.2428 12.4922 46.6471 12.0885 46.1523 11.5547C45.6641 11.0143 45.2865 10.3438 45.0195 9.54297C44.7591 8.74219 44.6289 7.81445 44.6289 6.75977C44.6289 5.71159 44.7754 4.77409 45.0684 3.94727C45.3613 3.11393 45.7715 2.41081 46.2988 1.83789C46.8327 1.25846 47.4707 0.81901 48.2129 0.519531C48.9616 0.213542 49.7852 0.0605469 50.6836 0.0605469C51.2565 0.0605469 51.8001 0.11263 52.3145 0.216797C52.8353 0.314453 53.3333 0.473958 53.8086 0.695312V2.42383ZM65.1367 1.7207H61.3574V13H59.5996V1.7207H55.8203V0.236328H65.1367V1.7207ZM75.8008 2.42383C75.3255 2.16992 74.8372 1.97461 74.3359 1.83789C73.8346 1.69466 73.2878 1.62305 72.6953 1.62305C72.0182 1.62305 71.416 1.74349 70.8887 1.98438C70.3613 2.22526 69.9154 2.56706 69.5508 3.00977C69.1927 3.44596 68.916 3.97331 68.7207 4.5918C68.5319 5.21029 68.4375 5.89388 68.4375 6.64258C68.4375 7.42383 68.5156 8.1237 68.6719 8.74219C68.8281 9.36068 69.0723 9.88477 69.4043 10.3145C69.7363 10.7441 70.1595 11.0729 70.6738 11.3008C71.1947 11.5286 71.8164 11.6426 72.5391 11.6426C72.6628 11.6426 72.7962 11.6361 72.9395 11.623C73.0827 11.61 73.2259 11.5938 73.3691 11.5742C73.5124 11.5482 73.6491 11.5189 73.7793 11.4863C73.916 11.4538 74.0365 11.418 74.1406 11.3789V7.31641H71.5332V5.88086H75.8594V12.4043C75.5924 12.528 75.3092 12.6387 75.0098 12.7363C74.7168 12.834 74.4141 12.9154 74.1016 12.9805C73.7956 13.0456 73.4896 13.0944 73.1836 13.127C72.8776 13.1595 72.5814 13.1758 72.2949 13.1758C71.4225 13.1758 70.6348 13.0391 69.9316 12.7656C69.235 12.4922 68.6393 12.0885 68.1445 11.5547C67.6562 11.0143 67.2786 10.3438 67.0117 9.54297C66.7513 8.74219 66.6211 7.81445 66.6211 6.75977C66.6211 5.71159 66.7676 4.77409 67.0605 3.94727C67.3535 3.11393 67.7637 2.41081 68.291 1.83789C68.8249 1.25846 69.4629 0.81901 70.2051 0.519531C70.9538 0.213542 71.7773 0.0605469 72.6758 0.0605469C73.2487 0.0605469 73.7923 0.11263 74.3066 0.216797C74.8275 0.314453 75.3255 0.473958 75.8008 0.695312V2.42383ZM86.6895 12.5215C85.6673 12.9447 84.5964 13.1562 83.4766 13.1562C81.6732 13.1562 80.2865 12.6191 79.3164 11.5449C78.3529 10.4642 77.8711 8.86914 77.8711 6.75977C77.8711 5.73763 78.0046 4.81315 78.2715 3.98633C78.5384 3.15951 78.9193 2.45964 79.4141 1.88672C79.9089 1.30729 80.5078 0.861328 81.2109 0.548828C81.9141 0.236328 82.7018 0.0800781 83.5742 0.0800781C84.1667 0.0800781 84.7168 0.132161 85.2246 0.236328C85.7324 0.333984 86.2207 0.486979 86.6895 0.695312V2.4043C86.2272 2.15039 85.7487 1.95833 85.2539 1.82812C84.7591 1.69141 84.2188 1.62305 83.6328 1.62305C83.0339 1.62305 82.4902 1.73698 82.002 1.96484C81.5202 2.1862 81.11 2.51172 80.7715 2.94141C80.4329 3.36458 80.1725 3.88542 79.9902 4.50391C79.8079 5.11589 79.7168 5.81576 79.7168 6.60352C79.7168 8.25716 80.0521 9.50391 80.7227 10.3438C81.3932 11.1836 82.3763 11.6035 83.6719 11.6035C84.2188 11.6035 84.7428 11.5417 85.2441 11.418C85.7454 11.2878 86.2272 11.1087 86.6895 10.8809V12.5215ZM97.793 2.42383C97.3177 2.16992 96.8294 1.97461 96.3281 1.83789C95.8268 1.69466 95.2799 1.62305 94.6875 1.62305C94.0104 1.62305 93.4082 1.74349 92.8809 1.98438C92.3535 2.22526 91.9076 2.56706 91.543 3.00977C91.1849 3.44596 90.9082 3.97331 90.7129 4.5918C90.5241 5.21029 90.4297 5.89388 90.4297 6.64258C90.4297 7.42383 90.5078 8.1237 90.6641 8.74219C90.8203 9.36068 91.0645 9.88477 91.3965 10.3145C91.7285 10.7441 92.1517 11.0729 92.666 11.3008C93.1868 11.5286 93.8086 11.6426 94.5312 11.6426C94.6549 11.6426 94.7884 11.6361 94.9316 11.623C95.0749 11.61 95.2181 11.5938 95.3613 11.5742C95.5046 11.5482 95.6413 11.5189 95.7715 11.4863C95.9082 11.4538 96.0286 11.418 96.1328 11.3789V7.31641H93.5254V5.88086H97.8516V12.4043C97.5846 12.528 97.3014 12.6387 97.002 12.7363C96.709 12.834 96.4062 12.9154 96.0938 12.9805C95.7878 13.0456 95.4818 13.0944 95.1758 13.127C94.8698 13.1595 94.5736 13.1758 94.2871 13.1758C93.4147 13.1758 92.627 13.0391 91.9238 12.7656C91.2272 12.4922 90.6315 12.0885 90.1367 11.5547C89.6484 11.0143 89.2708 10.3438 89.0039 9.54297C88.7435 8.74219 88.6133 7.81445 88.6133 6.75977C88.6133 5.71159 88.7598 4.77409 89.0527 3.94727C89.3457 3.11393 89.7559 2.41081 90.2832 1.83789C90.8171 1.25846 91.4551 0.81901 92.1973 0.519531C92.946 0.213542 93.7695 0.0605469 94.668 0.0605469C95.2409 0.0605469 95.7845 0.11263 96.2988 0.216797C96.8197 0.314453 97.3177 0.473958 97.793 0.695312V2.42383ZM109.121 1.7207H105.342V13H103.584V1.7207H99.8047V0.236328H109.121V1.7207ZM119.785 2.42383C119.31 2.16992 118.822 1.97461 118.32 1.83789C117.819 1.69466 117.272 1.62305 116.68 1.62305C116.003 1.62305 115.4 1.74349 114.873 1.98438C114.346 2.22526 113.9 2.56706 113.535 3.00977C113.177 3.44596 112.9 3.97331 112.705 4.5918C112.516 5.21029 112.422 5.89388 112.422 6.64258C112.422 7.42383 112.5 8.1237 112.656 8.74219C112.812 9.36068 113.057 9.88477 113.389 10.3145C113.721 10.7441 114.144 11.0729 114.658 11.3008C115.179 11.5286 115.801 11.6426 116.523 11.6426C116.647 11.6426 116.781 11.6361 116.924 11.623C117.067 11.61 117.21 11.5938 117.354 11.5742C117.497 11.5482 117.633 11.5189 117.764 11.4863C117.9 11.4538 118.021 11.418 118.125 11.3789V7.31641H115.518V5.88086H119.844V12.4043C119.577 12.528 119.294 12.6387 118.994 12.7363C118.701 12.834 118.398 12.9154 118.086 12.9805C117.78 13.0456 117.474 13.0944 117.168 13.127C116.862 13.1595 116.566 13.1758 116.279 13.1758C115.407 13.1758 114.619 13.0391 113.916 12.7656C113.219 12.4922 112.624 12.0885 112.129 11.5547C111.641 11.0143 111.263 10.3438 110.996 9.54297C110.736 8.74219 110.605 7.81445 110.605 6.75977C110.605 5.71159 110.752 4.77409 111.045 3.94727C111.338 3.11393 111.748 2.41081 112.275 1.83789C112.809 1.25846 113.447 0.81901 114.189 0.519531C114.938 0.213542 115.762 0.0605469 116.66 0.0605469C117.233 0.0605469 117.777 0.11263 118.291 0.216797C118.812 0.314453 119.31 0.473958 119.785 0.695312V2.42383ZM130.674 12.5215C129.652 12.9447 128.581 13.1562 127.461 13.1562C125.658 13.1562 124.271 12.6191 123.301 11.5449C122.337 10.4642 121.855 8.86914 121.855 6.75977C121.855 5.73763 121.989 4.81315 122.256 3.98633C122.523 3.15951 122.904 2.45964 123.398 1.88672C123.893 1.30729 124.492 0.861328 125.195 0.548828C125.898 0.236328 126.686 0.0800781 127.559 0.0800781C128.151 0.0800781 128.701 0.132161 129.209 0.236328C129.717 0.333984 130.205 0.486979 130.674 0.695312V2.4043C130.212 2.15039 129.733 1.95833 129.238 1.82812C128.743 1.69141 128.203 1.62305 127.617 1.62305C127.018 1.62305 126.475 1.73698 125.986 1.96484C125.505 2.1862 125.094 2.51172 124.756 2.94141C124.417 3.36458 124.157 3.88542 123.975 4.50391C123.792 5.11589 123.701 5.81576 123.701 6.60352C123.701 8.25716 124.036 9.50391 124.707 10.3438C125.378 11.1836 126.361 11.6035 127.656 11.6035C128.203 11.6035 128.727 11.5417 129.229 11.418C129.73 11.2878 130.212 11.1087 130.674 10.8809V12.5215ZM142.109 1.7207H138.33V13H136.572V1.7207H132.793V0.236328H142.109V1.7207ZM153.105 1.7207H149.326V13H147.568V1.7207H143.789V0.236328H153.105V1.7207Z" fill="#C9D1D9"/>
</svg>
