<svg width="197" height="228" viewBox="0 0 197 228" fill="none" xmlns="http://www.w3.org/2000/svg">
<g filter="url(#filter0_i)">
<g filter="url(#filter1_d)">
<rect x="4" width="188.391" height="220" rx="10" fill="#FF7F50"/>
<rect x="4" width="188.391" height="220" rx="10" fill="url(#paint0_linear)" fill-opacity="0.5"/>
</g>
<path d="M44.4844 28V26.8281H46.6406V17.8672H44.4844V16.7031H50.3594V17.8672H48.2109V26.8281H50.3594V28H44.4844ZM53.5469 28V16.7031H54.7422L61.2109 25.7344V16.7031H62.5938V28H61.1953L54.9297 19.375V28H53.5469ZM67.5781 26.8281H70.3438C71.4792 26.8281 72.237 26.6172 72.6172 26.1953C73.0026 25.7734 73.1953 25.1719 73.1953 24.3906V20.4141C73.1953 19.263 72.8099 18.5156 72.0391 18.1719C71.6016 17.974 71.0365 17.8776 70.3438 17.8828H67.5781V26.8281ZM66 28V16.7031H70.4844C72.6458 16.7031 73.9948 17.4688 74.5312 19C74.6875 19.4479 74.7656 19.9505 74.7656 20.5078V24.2344C74.7656 25.4688 74.4089 26.4062 73.6953 27.0469C72.987 27.6823 71.9219 28 70.5 28H66ZM77.8906 28V16.7031H84.9453V17.875H79.4609V21.5938H84.3047V22.7656H79.4609V26.8281H85.0391V28H77.8906ZM87.7031 28V16.7031H89.2734V22.8672C90.112 21.8516 91.112 20.6849 92.2734 19.3672C93.4401 18.0495 94.2214 17.1615 94.6172 16.7031H96.3203L92.0781 21.7656L96.5469 28H94.8047L90.9766 22.6094L89.2734 24.3438V28H87.7031ZM106.172 24.8281C106.172 27.0573 104.94 28.1719 102.477 28.1719C100.841 28.1719 99.4167 27.8203 98.2031 27.1172L98.7578 25.9141C99.2266 26.1901 99.7943 26.4245 100.461 26.6172C101.133 26.8099 101.784 26.9062 102.414 26.9062C103.049 26.9062 103.529 26.8255 103.852 26.6641C104.43 26.3724 104.719 25.7786 104.719 24.8828C104.719 24.513 104.701 24.2656 104.664 24.1406C104.544 23.724 104.104 23.3958 103.344 23.1562L100.617 22.25C99.737 21.9635 99.1484 21.6016 98.8516 21.1641C98.5599 20.7214 98.4141 20.1562 98.4141 19.4688C98.4193 18.4792 98.7812 17.724 99.5 17.2031C100.12 16.7604 101.021 16.5365 102.203 16.5312C103.885 16.5312 105.148 16.7943 105.992 17.3203L105.609 18.5469C104.682 18.0469 103.638 17.7969 102.477 17.7969C101.669 17.7969 101.055 17.901 100.633 18.1094C100.211 18.3177 99.9844 18.6536 99.9531 19.1172C99.9427 19.263 99.9375 19.3932 99.9375 19.5078C99.9375 19.8828 100.016 20.1719 100.172 20.375C100.333 20.5781 100.643 20.7578 101.102 20.9141L103.945 21.875C104.727 22.1406 105.292 22.4896 105.641 22.9219C105.995 23.349 106.172 23.9844 106.172 24.8281ZM117.367 26.9062C118.398 26.9062 119.148 26.7422 119.617 26.4141C120.086 26.0807 120.32 25.4245 120.32 24.4453V20.3594C120.32 19.3802 120.083 18.7083 119.609 18.3438C119.141 17.9792 118.396 17.7969 117.375 17.7969C115.792 17.7969 114.831 18.2344 114.492 19.1094C114.362 19.4427 114.297 19.8594 114.297 20.3594V24.4453C114.297 25.4193 114.552 26.0729 115.062 26.4062C115.573 26.7396 116.341 26.9062 117.367 26.9062ZM114.477 27.6562C113.794 27.3125 113.331 26.8516 113.086 26.2734C112.841 25.6953 112.719 25.0052 112.719 24.2031V20.6484C112.719 19.0286 113.177 17.9062 114.094 17.2812C114.833 16.7812 115.927 16.5312 117.375 16.5312C119.938 16.5312 121.404 17.4844 121.773 19.3906C121.852 19.7917 121.891 20.2448 121.891 20.75V24.0938C121.891 25.6667 121.44 26.7708 120.539 27.4062C119.815 27.9167 118.794 28.1719 117.477 28.1719C116.159 28.1719 115.159 28 114.477 27.6562ZM126.625 26.8281H129.391C130.526 26.8281 131.284 26.6172 131.664 26.1953C132.049 25.7734 132.242 25.1719 132.242 24.3906V20.4141C132.242 19.263 131.857 18.5156 131.086 18.1719C130.648 17.974 130.083 17.8776 129.391 17.8828H126.625V26.8281ZM125.047 28V16.7031H129.531C131.693 16.7031 133.042 17.4688 133.578 19C133.734 19.4479 133.812 19.9505 133.812 20.5078V24.2344C133.812 25.4688 133.456 26.4062 132.742 27.0469C132.034 27.6823 130.969 28 129.547 28H125.047ZM143.148 28V17.9922H139.891V16.7031H147.984V17.9922H144.719V28H143.148Z" fill="#C9D1D9"/>
</g>
<g filter="url(#filter2_d)">
<path d="M42.7168 67.5215C41.6947 67.9447 40.6237 68.1562 39.5039 68.1562C37.7005 68.1562 36.3138 67.6191 35.3438 66.5449C34.3802 65.4642 33.8984 63.8691 33.8984 61.7598C33.8984 60.7376 34.0319 59.8132 34.2988 58.9863C34.5658 58.1595 34.9466 57.4596 35.4414 56.8867C35.9362 56.3073 36.5352 55.8613 37.2383 55.5488C37.9414 55.2363 38.7292 55.0801 39.6016 55.0801C40.194 55.0801 40.7441 55.1322 41.252 55.2363C41.7598 55.334 42.248 55.487 42.7168 55.6953V57.4043C42.2546 57.1504 41.776 56.9583 41.2812 56.8281C40.7865 56.6914 40.2461 56.623 39.6602 56.623C39.0612 56.623 38.5176 56.737 38.0293 56.9648C37.5475 57.1862 37.1374 57.5117 36.7988 57.9414C36.4603 58.3646 36.1999 58.8854 36.0176 59.5039C35.8353 60.1159 35.7441 60.8158 35.7441 61.6035C35.7441 63.2572 36.0794 64.5039 36.75 65.3438C37.4206 66.1836 38.4036 66.6035 39.6992 66.6035C40.2461 66.6035 40.7702 66.5417 41.2715 66.418C41.7728 66.2878 42.2546 66.1087 42.7168 65.8809V67.5215ZM53.8203 57.4238C53.3451 57.1699 52.8568 56.9746 52.3555 56.8379C51.8542 56.6947 51.3073 56.623 50.7148 56.623C50.0378 56.623 49.4355 56.7435 48.9082 56.9844C48.3809 57.2253 47.9349 57.5671 47.5703 58.0098C47.2122 58.446 46.9355 58.9733 46.7402 59.5918C46.5514 60.2103 46.457 60.8939 46.457 61.6426C46.457 62.4238 46.5352 63.1237 46.6914 63.7422C46.8477 64.3607 47.0918 64.8848 47.4238 65.3145C47.7559 65.7441 48.179 66.0729 48.6934 66.3008C49.2142 66.5286 49.8359 66.6426 50.5586 66.6426C50.6823 66.6426 50.8158 66.6361 50.959 66.623C51.1022 66.61 51.2454 66.5938 51.3887 66.5742C51.5319 66.5482 51.6686 66.5189 51.7988 66.4863C51.9355 66.4538 52.056 66.418 52.1602 66.3789V62.3164H49.5527V60.8809H53.8789V67.4043C53.612 67.528 53.3288 67.6387 53.0293 67.7363C52.7363 67.834 52.4336 67.9154 52.1211 67.9805C51.8151 68.0456 51.5091 68.0944 51.2031 68.127C50.8971 68.1595 50.6009 68.1758 50.3145 68.1758C49.4421 68.1758 48.6543 68.0391 47.9512 67.7656C47.2546 67.4922 46.6589 67.0885 46.1641 66.5547C45.6758 66.0143 45.2982 65.3438 45.0312 64.543C44.7708 63.7422 44.6406 62.8145 44.6406 61.7598C44.6406 60.7116 44.7871 59.7741 45.0801 58.9473C45.373 58.1139 45.7832 57.4108 46.3105 56.8379C46.8444 56.2585 47.4824 55.819 48.2246 55.5195C48.9733 55.2135 49.7969 55.0605 50.6953 55.0605C51.2682 55.0605 51.8118 55.1126 52.3262 55.2168C52.847 55.3145 53.3451 55.474 53.8203 55.6953V57.4238ZM64.8164 57.4238C64.3411 57.1699 63.8529 56.9746 63.3516 56.8379C62.8503 56.6947 62.3034 56.623 61.7109 56.623C61.0339 56.623 60.4316 56.7435 59.9043 56.9844C59.377 57.2253 58.931 57.5671 58.5664 58.0098C58.2083 58.446 57.9316 58.9733 57.7363 59.5918C57.5475 60.2103 57.4531 60.8939 57.4531 61.6426C57.4531 62.4238 57.5312 63.1237 57.6875 63.7422C57.8438 64.3607 58.0879 64.8848 58.4199 65.3145C58.752 65.7441 59.1751 66.0729 59.6895 66.3008C60.2103 66.5286 60.832 66.6426 61.5547 66.6426C61.6784 66.6426 61.8118 66.6361 61.9551 66.623C62.0983 66.61 62.2415 66.5938 62.3848 66.5742C62.528 66.5482 62.6647 66.5189 62.7949 66.4863C62.9316 66.4538 63.0521 66.418 63.1562 66.3789V62.3164H60.5488V60.8809H64.875V67.4043C64.6081 67.528 64.3249 67.6387 64.0254 67.7363C63.7324 67.834 63.4297 67.9154 63.1172 67.9805C62.8112 68.0456 62.5052 68.0944 62.1992 68.127C61.8932 68.1595 61.597 68.1758 61.3105 68.1758C60.4382 68.1758 59.6504 68.0391 58.9473 67.7656C58.2507 67.4922 57.6549 67.0885 57.1602 66.5547C56.6719 66.0143 56.2943 65.3438 56.0273 64.543C55.7669 63.7422 55.6367 62.8145 55.6367 61.7598C55.6367 60.7116 55.7832 59.7741 56.0762 58.9473C56.3691 58.1139 56.7793 57.4108 57.3066 56.8379C57.8405 56.2585 58.4785 55.819 59.2207 55.5195C59.9694 55.2135 60.793 55.0605 61.6914 55.0605C62.2643 55.0605 62.8079 55.1126 63.3223 55.2168C63.8431 55.3145 64.3411 55.474 64.8164 55.6953V57.4238ZM75.8125 57.4238C75.3372 57.1699 74.849 56.9746 74.3477 56.8379C73.8464 56.6947 73.2995 56.623 72.707 56.623C72.0299 56.623 71.4277 56.7435 70.9004 56.9844C70.373 57.2253 69.9271 57.5671 69.5625 58.0098C69.2044 58.446 68.9277 58.9733 68.7324 59.5918C68.5436 60.2103 68.4492 60.8939 68.4492 61.6426C68.4492 62.4238 68.5273 63.1237 68.6836 63.7422C68.8398 64.3607 69.084 64.8848 69.416 65.3145C69.748 65.7441 70.1712 66.0729 70.6855 66.3008C71.2064 66.5286 71.8281 66.6426 72.5508 66.6426C72.6745 66.6426 72.8079 66.6361 72.9512 66.623C73.0944 66.61 73.2376 66.5938 73.3809 66.5742C73.5241 66.5482 73.6608 66.5189 73.791 66.4863C73.9277 66.4538 74.0482 66.418 74.1523 66.3789V62.3164H71.5449V60.8809H75.8711V67.4043C75.6042 67.528 75.321 67.6387 75.0215 67.7363C74.7285 67.834 74.4258 67.9154 74.1133 67.9805C73.8073 68.0456 73.5013 68.0944 73.1953 68.127C72.8893 68.1595 72.5931 68.1758 72.3066 68.1758C71.4342 68.1758 70.6465 68.0391 69.9434 67.7656C69.2467 67.4922 68.651 67.0885 68.1562 66.5547C67.668 66.0143 67.2904 65.3438 67.0234 64.543C66.763 63.7422 66.6328 62.8145 66.6328 61.7598C66.6328 60.7116 66.7793 59.7741 67.0723 58.9473C67.3652 58.1139 67.7754 57.4108 68.3027 56.8379C68.8366 56.2585 69.4746 55.819 70.2168 55.5195C70.9655 55.2135 71.7891 55.0605 72.6875 55.0605C73.2604 55.0605 73.804 55.1126 74.3184 55.2168C74.8392 55.3145 75.3372 55.474 75.8125 55.6953V57.4238ZM87.1406 56.7207H83.3613V68H81.6035V56.7207H77.8242V55.2363H87.1406V56.7207ZM93.4785 58.0195C93.6803 58.0195 93.8724 58.0618 94.0547 58.1465C94.237 58.2246 94.3965 58.332 94.5332 58.4688C94.6699 58.6055 94.7773 58.765 94.8555 58.9473C94.9401 59.1296 94.9824 59.3216 94.9824 59.5234C94.9824 59.7318 94.9401 59.9271 94.8555 60.1094C94.7773 60.2852 94.6699 60.4414 94.5332 60.5781C94.3965 60.7148 94.237 60.8223 94.0547 60.9004C93.8724 60.9785 93.6803 61.0176 93.4785 61.0176C93.2702 61.0176 93.0749 60.9785 92.8926 60.9004C92.7168 60.8223 92.5605 60.7148 92.4238 60.5781C92.2871 60.4414 92.1797 60.2852 92.1016 60.1094C92.0234 59.9271 91.9844 59.7318 91.9844 59.5234C91.9844 59.3216 92.0234 59.1296 92.1016 58.9473C92.1797 58.765 92.2871 58.6055 92.4238 58.4688C92.5605 58.332 92.7168 58.2246 92.8926 58.1465C93.0749 58.0618 93.2702 58.0195 93.4785 58.0195ZM93.4785 65.1777C93.6803 65.1777 93.8724 65.2201 94.0547 65.3047C94.237 65.3828 94.3965 65.4902 94.5332 65.627C94.6699 65.7637 94.7773 65.9232 94.8555 66.1055C94.9401 66.2878 94.9824 66.4798 94.9824 66.6816C94.9824 66.89 94.9401 67.0853 94.8555 67.2676C94.7773 67.4434 94.6699 67.5996 94.5332 67.7363C94.3965 67.873 94.237 67.9805 94.0547 68.0586C93.8724 68.1367 93.6803 68.1758 93.4785 68.1758C93.2702 68.1758 93.0749 68.1367 92.8926 68.0586C92.7168 67.9805 92.5605 67.873 92.4238 67.7363C92.2871 67.5996 92.1797 67.4434 92.1016 67.2676C92.0234 67.0853 91.9844 66.89 91.9844 66.6816C91.9844 66.4798 92.0234 66.2878 92.1016 66.1055C92.1797 65.9232 92.2871 65.7637 92.4238 65.627C92.5605 65.4902 92.7168 65.3828 92.8926 65.3047C93.0749 65.2201 93.2702 65.1777 93.4785 65.1777ZM120.109 61.623C120.109 62.5996 120.012 63.4915 119.816 64.2988C119.621 65.0996 119.325 65.7897 118.928 66.3691C118.531 66.9421 118.036 67.388 117.443 67.707C116.857 68.0195 116.167 68.1758 115.373 68.1758C114.689 68.1758 114.068 68.0488 113.508 67.7949C112.948 67.5345 112.469 67.1374 112.072 66.6035C111.675 66.0697 111.369 65.3893 111.154 64.5625C110.939 63.7357 110.832 62.7559 110.832 61.623C110.832 60.6465 110.93 59.7546 111.125 58.9473C111.327 58.14 111.623 57.4499 112.014 56.877C112.411 56.2975 112.906 55.8516 113.498 55.5391C114.09 55.2201 114.781 55.0605 115.568 55.0605C116.252 55.0605 116.874 55.1908 117.434 55.4512C117.993 55.7051 118.472 56.1022 118.869 56.6426C119.266 57.1764 119.572 57.8568 119.787 58.6836C120.002 59.5104 120.109 60.4902 120.109 61.623ZM118.391 61.6816C118.391 61.4603 118.381 61.2422 118.361 61.0273C118.348 60.806 118.332 60.5911 118.312 60.3828L112.912 64.3965C113.01 64.735 113.133 65.0475 113.283 65.334C113.433 65.6204 113.612 65.8678 113.82 66.0762C114.035 66.278 114.276 66.4375 114.543 66.5547C114.816 66.6654 115.126 66.7207 115.471 66.7207C115.913 66.7207 116.314 66.6133 116.672 66.3984C117.036 66.1836 117.346 65.8646 117.6 65.4414C117.854 65.0182 118.049 64.4941 118.186 63.8691C118.322 63.2376 118.391 62.5085 118.391 61.6816ZM112.551 61.5645C112.551 61.7663 112.551 61.9681 112.551 62.1699C112.557 62.3717 112.57 62.5671 112.59 62.7559L117.99 58.7617C117.893 58.4297 117.769 58.127 117.619 57.8535C117.469 57.5801 117.29 57.3457 117.082 57.1504C116.874 56.9486 116.636 56.7923 116.369 56.6816C116.102 56.571 115.803 56.5156 115.471 56.5156C115.028 56.5156 114.624 56.623 114.26 56.8379C113.902 57.0527 113.596 57.375 113.342 57.8047C113.088 58.2279 112.893 58.7552 112.756 59.3867C112.619 60.0117 112.551 60.7376 112.551 61.5645ZM42.7168 90.5215C41.6947 90.9447 40.6237 91.1562 39.5039 91.1562C37.7005 91.1562 36.3138 90.6191 35.3438 89.5449C34.3802 88.4642 33.8984 86.8691 33.8984 84.7598C33.8984 83.7376 34.0319 82.8132 34.2988 81.9863C34.5658 81.1595 34.9466 80.4596 35.4414 79.8867C35.9362 79.3073 36.5352 78.8613 37.2383 78.5488C37.9414 78.2363 38.7292 78.0801 39.6016 78.0801C40.194 78.0801 40.7441 78.1322 41.252 78.2363C41.7598 78.334 42.248 78.487 42.7168 78.6953V80.4043C42.2546 80.1504 41.776 79.9583 41.2812 79.8281C40.7865 79.6914 40.2461 79.623 39.6602 79.623C39.0612 79.623 38.5176 79.737 38.0293 79.9648C37.5475 80.1862 37.1374 80.5117 36.7988 80.9414C36.4603 81.3646 36.1999 81.8854 36.0176 82.5039C35.8353 83.1159 35.7441 83.8158 35.7441 84.6035C35.7441 86.2572 36.0794 87.5039 36.75 88.3438C37.4206 89.1836 38.4036 89.6035 39.6992 89.6035C40.2461 89.6035 40.7702 89.5417 41.2715 89.418C41.7728 89.2878 42.2546 89.1087 42.7168 88.8809V90.5215ZM53.8203 80.4238C53.3451 80.1699 52.8568 79.9746 52.3555 79.8379C51.8542 79.6947 51.3073 79.623 50.7148 79.623C50.0378 79.623 49.4355 79.7435 48.9082 79.9844C48.3809 80.2253 47.9349 80.5671 47.5703 81.0098C47.2122 81.446 46.9355 81.9733 46.7402 82.5918C46.5514 83.2103 46.457 83.8939 46.457 84.6426C46.457 85.4238 46.5352 86.1237 46.6914 86.7422C46.8477 87.3607 47.0918 87.8848 47.4238 88.3145C47.7559 88.7441 48.179 89.0729 48.6934 89.3008C49.2142 89.5286 49.8359 89.6426 50.5586 89.6426C50.6823 89.6426 50.8158 89.6361 50.959 89.623C51.1022 89.61 51.2454 89.5938 51.3887 89.5742C51.5319 89.5482 51.6686 89.5189 51.7988 89.4863C51.9355 89.4538 52.056 89.418 52.1602 89.3789V85.3164H49.5527V83.8809H53.8789V90.4043C53.612 90.528 53.3288 90.6387 53.0293 90.7363C52.7363 90.834 52.4336 90.9154 52.1211 90.9805C51.8151 91.0456 51.5091 91.0944 51.2031 91.127C50.8971 91.1595 50.6009 91.1758 50.3145 91.1758C49.4421 91.1758 48.6543 91.0391 47.9512 90.7656C47.2546 90.4922 46.6589 90.0885 46.1641 89.5547C45.6758 89.0143 45.2982 88.3438 45.0312 87.543C44.7708 86.7422 44.6406 85.8145 44.6406 84.7598C44.6406 83.7116 44.7871 82.7741 45.0801 81.9473C45.373 81.1139 45.7832 80.4108 46.3105 79.8379C46.8444 79.2585 47.4824 78.819 48.2246 78.5195C48.9733 78.2135 49.7969 78.0605 50.6953 78.0605C51.2682 78.0605 51.8118 78.1126 52.3262 78.2168C52.847 78.3145 53.3451 78.474 53.8203 78.6953V80.4238ZM64.8164 80.4238C64.3411 80.1699 63.8529 79.9746 63.3516 79.8379C62.8503 79.6947 62.3034 79.623 61.7109 79.623C61.0339 79.623 60.4316 79.7435 59.9043 79.9844C59.377 80.2253 58.931 80.5671 58.5664 81.0098C58.2083 81.446 57.9316 81.9733 57.7363 82.5918C57.5475 83.2103 57.4531 83.8939 57.4531 84.6426C57.4531 85.4238 57.5312 86.1237 57.6875 86.7422C57.8438 87.3607 58.0879 87.8848 58.4199 88.3145C58.752 88.7441 59.1751 89.0729 59.6895 89.3008C60.2103 89.5286 60.832 89.6426 61.5547 89.6426C61.6784 89.6426 61.8118 89.6361 61.9551 89.623C62.0983 89.61 62.2415 89.5938 62.3848 89.5742C62.528 89.5482 62.6647 89.5189 62.7949 89.4863C62.9316 89.4538 63.0521 89.418 63.1562 89.3789V85.3164H60.5488V83.8809H64.875V90.4043C64.6081 90.528 64.3249 90.6387 64.0254 90.7363C63.7324 90.834 63.4297 90.9154 63.1172 90.9805C62.8112 91.0456 62.5052 91.0944 62.1992 91.127C61.8932 91.1595 61.597 91.1758 61.3105 91.1758C60.4382 91.1758 59.6504 91.0391 58.9473 90.7656C58.2507 90.4922 57.6549 90.0885 57.1602 89.5547C56.6719 89.0143 56.2943 88.3438 56.0273 87.543C55.7669 86.7422 55.6367 85.8145 55.6367 84.7598C55.6367 83.7116 55.7832 82.7741 56.0762 81.9473C56.3691 81.1139 56.7793 80.4108 57.3066 79.8379C57.8405 79.2585 58.4785 78.819 59.2207 78.5195C59.9694 78.2135 60.793 78.0605 61.6914 78.0605C62.2643 78.0605 62.8079 78.1126 63.3223 78.2168C63.8431 78.3145 64.3411 78.474 64.8164 78.6953V80.4238ZM76.1445 79.7207H72.3652V91H70.6074V79.7207H66.8281V78.2363H76.1445V79.7207ZM87.1406 79.7207H83.3613V91H81.6035V79.7207H77.8242V78.2363H87.1406V79.7207ZM93.4785 81.0195C93.6803 81.0195 93.8724 81.0618 94.0547 81.1465C94.237 81.2246 94.3965 81.332 94.5332 81.4688C94.6699 81.6055 94.7773 81.765 94.8555 81.9473C94.9401 82.1296 94.9824 82.3216 94.9824 82.5234C94.9824 82.7318 94.9401 82.9271 94.8555 83.1094C94.7773 83.2852 94.6699 83.4414 94.5332 83.5781C94.3965 83.7148 94.237 83.8223 94.0547 83.9004C93.8724 83.9785 93.6803 84.0176 93.4785 84.0176C93.2702 84.0176 93.0749 83.9785 92.8926 83.9004C92.7168 83.8223 92.5605 83.7148 92.4238 83.5781C92.2871 83.4414 92.1797 83.2852 92.1016 83.1094C92.0234 82.9271 91.9844 82.7318 91.9844 82.5234C91.9844 82.3216 92.0234 82.1296 92.1016 81.9473C92.1797 81.765 92.2871 81.6055 92.4238 81.4688C92.5605 81.332 92.7168 81.2246 92.8926 81.1465C93.0749 81.0618 93.2702 81.0195 93.4785 81.0195ZM93.4785 88.1777C93.6803 88.1777 93.8724 88.2201 94.0547 88.3047C94.237 88.3828 94.3965 88.4902 94.5332 88.627C94.6699 88.7637 94.7773 88.9232 94.8555 89.1055C94.9401 89.2878 94.9824 89.4798 94.9824 89.6816C94.9824 89.89 94.9401 90.0853 94.8555 90.2676C94.7773 90.4434 94.6699 90.5996 94.5332 90.7363C94.3965 90.873 94.237 90.9805 94.0547 91.0586C93.8724 91.1367 93.6803 91.1758 93.4785 91.1758C93.2702 91.1758 93.0749 91.1367 92.8926 91.0586C92.7168 90.9805 92.5605 90.873 92.4238 90.7363C92.2871 90.5996 92.1797 90.4434 92.1016 90.2676C92.0234 90.0853 91.9844 89.89 91.9844 89.6816C91.9844 89.4798 92.0234 89.2878 92.1016 89.1055C92.1797 88.9232 92.2871 88.7637 92.4238 88.627C92.5605 88.4902 92.7168 88.3828 92.8926 88.3047C93.0749 88.2201 93.2702 88.1777 93.4785 88.1777ZM120.451 88.1777H118.273V91H116.535V88.1777H110.393V86.6836L115.832 78.2363H118.273V86.6836H120.451V88.1777ZM116.535 79.877L112.092 86.6836H116.535V79.877ZM42.8242 103.424C42.349 103.17 41.8607 102.975 41.3594 102.838C40.8581 102.695 40.3112 102.623 39.7188 102.623C39.0417 102.623 38.4395 102.743 37.9121 102.984C37.3848 103.225 36.9388 103.567 36.5742 104.01C36.2161 104.446 35.9395 104.973 35.7441 105.592C35.5553 106.21 35.4609 106.894 35.4609 107.643C35.4609 108.424 35.5391 109.124 35.6953 109.742C35.8516 110.361 36.0957 110.885 36.4277 111.314C36.7598 111.744 37.1829 112.073 37.6973 112.301C38.2181 112.529 38.8398 112.643 39.5625 112.643C39.6862 112.643 39.8197 112.636 39.9629 112.623C40.1061 112.61 40.2493 112.594 40.3926 112.574C40.5358 112.548 40.6725 112.519 40.8027 112.486C40.9395 112.454 41.0599 112.418 41.1641 112.379V108.316H38.5566V106.881H42.8828V113.404C42.6159 113.528 42.3327 113.639 42.0332 113.736C41.7402 113.834 41.4375 113.915 41.125 113.98C40.819 114.046 40.513 114.094 40.207 114.127C39.901 114.16 39.6048 114.176 39.3184 114.176C38.446 114.176 37.6582 114.039 36.9551 113.766C36.2585 113.492 35.6628 113.089 35.168 112.555C34.6797 112.014 34.3021 111.344 34.0352 110.543C33.7747 109.742 33.6445 108.814 33.6445 107.76C33.6445 106.712 33.791 105.774 34.084 104.947C34.377 104.114 34.7871 103.411 35.3145 102.838C35.8483 102.258 36.4863 101.819 37.2285 101.52C37.9772 101.214 38.8008 101.061 39.6992 101.061C40.2721 101.061 40.8158 101.113 41.3301 101.217C41.8509 101.314 42.349 101.474 42.8242 101.695V103.424ZM53.7129 113.521C52.6908 113.945 51.6198 114.156 50.5 114.156C48.6966 114.156 47.3099 113.619 46.3398 112.545C45.3763 111.464 44.8945 109.869 44.8945 107.76C44.8945 106.738 45.028 105.813 45.2949 104.986C45.5618 104.16 45.9427 103.46 46.4375 102.887C46.9323 102.307 47.5312 101.861 48.2344 101.549C48.9375 101.236 49.7253 101.08 50.5977 101.08C51.1901 101.08 51.7402 101.132 52.248 101.236C52.7559 101.334 53.2441 101.487 53.7129 101.695V103.404C53.2507 103.15 52.7721 102.958 52.2773 102.828C51.7826 102.691 51.2422 102.623 50.6562 102.623C50.0573 102.623 49.5137 102.737 49.0254 102.965C48.5436 103.186 48.1335 103.512 47.7949 103.941C47.4564 104.365 47.196 104.885 47.0137 105.504C46.8314 106.116 46.7402 106.816 46.7402 107.604C46.7402 109.257 47.0755 110.504 47.7461 111.344C48.4167 112.184 49.3997 112.604 50.6953 112.604C51.2422 112.604 51.7663 112.542 52.2676 112.418C52.7689 112.288 53.2507 112.109 53.7129 111.881V113.521ZM65.1484 102.721H61.3691V114H59.6113V102.721H55.832V101.236H65.1484V102.721ZM75.7051 113.521C74.6829 113.945 73.612 114.156 72.4922 114.156C70.6888 114.156 69.3021 113.619 68.332 112.545C67.3685 111.464 66.8867 109.869 66.8867 107.76C66.8867 106.738 67.0202 105.813 67.2871 104.986C67.554 104.16 67.9349 103.46 68.4297 102.887C68.9245 102.307 69.5234 101.861 70.2266 101.549C70.9297 101.236 71.7174 101.08 72.5898 101.08C73.1823 101.08 73.7324 101.132 74.2402 101.236C74.748 101.334 75.2363 101.487 75.7051 101.695V103.404C75.2428 103.15 74.7643 102.958 74.2695 102.828C73.7747 102.691 73.2344 102.623 72.6484 102.623C72.0495 102.623 71.5059 102.737 71.0176 102.965C70.5358 103.186 70.1257 103.512 69.7871 103.941C69.4486 104.365 69.1882 104.885 69.0059 105.504C68.8236 106.116 68.7324 106.816 68.7324 107.604C68.7324 109.257 69.0677 110.504 69.7383 111.344C70.4089 112.184 71.3919 112.604 72.6875 112.604C73.2344 112.604 73.7585 112.542 74.2598 112.418C74.7611 112.288 75.2428 112.109 75.7051 111.881V113.521ZM87.1406 102.721H83.3613V114H81.6035V102.721H77.8242V101.236H87.1406V102.721ZM93.4785 104.02C93.6803 104.02 93.8724 104.062 94.0547 104.146C94.237 104.225 94.3965 104.332 94.5332 104.469C94.6699 104.605 94.7773 104.765 94.8555 104.947C94.9401 105.13 94.9824 105.322 94.9824 105.523C94.9824 105.732 94.9401 105.927 94.8555 106.109C94.7773 106.285 94.6699 106.441 94.5332 106.578C94.3965 106.715 94.237 106.822 94.0547 106.9C93.8724 106.979 93.6803 107.018 93.4785 107.018C93.2702 107.018 93.0749 106.979 92.8926 106.9C92.7168 106.822 92.5605 106.715 92.4238 106.578C92.2871 106.441 92.1797 106.285 92.1016 106.109C92.0234 105.927 91.9844 105.732 91.9844 105.523C91.9844 105.322 92.0234 105.13 92.1016 104.947C92.1797 104.765 92.2871 104.605 92.4238 104.469C92.5605 104.332 92.7168 104.225 92.8926 104.146C93.0749 104.062 93.2702 104.02 93.4785 104.02ZM93.4785 111.178C93.6803 111.178 93.8724 111.22 94.0547 111.305C94.237 111.383 94.3965 111.49 94.5332 111.627C94.6699 111.764 94.7773 111.923 94.8555 112.105C94.9401 112.288 94.9824 112.48 94.9824 112.682C94.9824 112.89 94.9401 113.085 94.8555 113.268C94.7773 113.443 94.6699 113.6 94.5332 113.736C94.3965 113.873 94.237 113.98 94.0547 114.059C93.8724 114.137 93.6803 114.176 93.4785 114.176C93.2702 114.176 93.0749 114.137 92.8926 114.059C92.7168 113.98 92.5605 113.873 92.4238 113.736C92.2871 113.6 92.1797 113.443 92.1016 113.268C92.0234 113.085 91.9844 112.89 91.9844 112.682C91.9844 112.48 92.0234 112.288 92.1016 112.105C92.1797 111.923 92.2871 111.764 92.4238 111.627C92.5605 111.49 92.7168 111.383 92.8926 111.305C93.0749 111.22 93.2702 111.178 93.4785 111.178ZM119.572 110.123C119.572 110.683 119.458 111.21 119.23 111.705C119.003 112.193 118.661 112.623 118.205 112.994C117.749 113.359 117.176 113.648 116.486 113.863C115.796 114.072 114.992 114.176 114.074 114.176C113.566 114.176 113.111 114.16 112.707 114.127C112.303 114.094 111.926 114.052 111.574 114V112.477C111.978 112.548 112.404 112.604 112.854 112.643C113.303 112.682 113.762 112.701 114.23 112.701C114.868 112.701 115.412 112.646 115.861 112.535C116.317 112.418 116.688 112.252 116.975 112.037C117.261 111.822 117.469 111.562 117.6 111.256C117.73 110.95 117.795 110.605 117.795 110.221C117.795 109.869 117.717 109.563 117.561 109.303C117.404 109.042 117.183 108.824 116.896 108.648C116.617 108.473 116.278 108.342 115.881 108.258C115.49 108.167 115.061 108.121 114.592 108.121H113.137V106.725H114.611C114.995 106.725 115.344 106.676 115.656 106.578C115.975 106.474 116.245 106.327 116.467 106.139C116.695 105.95 116.867 105.719 116.984 105.445C117.108 105.165 117.17 104.85 117.17 104.498C117.17 103.814 116.962 103.316 116.545 103.004C116.128 102.691 115.516 102.535 114.709 102.535C114.279 102.535 113.837 102.577 113.381 102.662C112.925 102.747 112.437 102.874 111.916 103.043V101.559C112.137 101.48 112.372 101.412 112.619 101.354C112.873 101.288 113.124 101.236 113.371 101.197C113.625 101.152 113.876 101.119 114.123 101.1C114.37 101.074 114.608 101.061 114.836 101.061C115.513 101.061 116.109 101.135 116.623 101.285C117.137 101.428 117.567 101.637 117.912 101.91C118.257 102.184 118.518 102.516 118.693 102.906C118.869 103.297 118.957 103.736 118.957 104.225C118.957 104.954 118.768 105.566 118.391 106.061C118.02 106.555 117.508 106.949 116.857 107.242C117.189 107.294 117.515 107.398 117.834 107.555C118.16 107.711 118.449 107.913 118.703 108.16C118.964 108.401 119.172 108.688 119.328 109.02C119.491 109.352 119.572 109.719 119.572 110.123ZM42.8242 126.424C42.349 126.17 41.8607 125.975 41.3594 125.838C40.8581 125.695 40.3112 125.623 39.7188 125.623C39.0417 125.623 38.4395 125.743 37.9121 125.984C37.3848 126.225 36.9388 126.567 36.5742 127.01C36.2161 127.446 35.9395 127.973 35.7441 128.592C35.5553 129.21 35.4609 129.894 35.4609 130.643C35.4609 131.424 35.5391 132.124 35.6953 132.742C35.8516 133.361 36.0957 133.885 36.4277 134.314C36.7598 134.744 37.1829 135.073 37.6973 135.301C38.2181 135.529 38.8398 135.643 39.5625 135.643C39.6862 135.643 39.8197 135.636 39.9629 135.623C40.1061 135.61 40.2493 135.594 40.3926 135.574C40.5358 135.548 40.6725 135.519 40.8027 135.486C40.9395 135.454 41.0599 135.418 41.1641 135.379V131.316H38.5566V129.881H42.8828V136.404C42.6159 136.528 42.3327 136.639 42.0332 136.736C41.7402 136.834 41.4375 136.915 41.125 136.98C40.819 137.046 40.513 137.094 40.207 137.127C39.901 137.16 39.6048 137.176 39.3184 137.176C38.446 137.176 37.6582 137.039 36.9551 136.766C36.2585 136.492 35.6628 136.089 35.168 135.555C34.6797 135.014 34.3021 134.344 34.0352 133.543C33.7747 132.742 33.6445 131.814 33.6445 130.76C33.6445 129.712 33.791 128.774 34.084 127.947C34.377 127.114 34.7871 126.411 35.3145 125.838C35.8483 125.258 36.4863 124.819 37.2285 124.52C37.9772 124.214 38.8008 124.061 39.6992 124.061C40.2721 124.061 40.8158 124.113 41.3301 124.217C41.8509 124.314 42.349 124.474 42.8242 124.695V126.424ZM54.1523 125.721H50.373V137H48.6152V125.721H44.8359V124.236H54.1523V125.721ZM64.709 136.521C63.6868 136.945 62.6159 137.156 61.4961 137.156C59.6927 137.156 58.306 136.619 57.3359 135.545C56.3724 134.464 55.8906 132.869 55.8906 130.76C55.8906 129.738 56.0241 128.813 56.291 127.986C56.5579 127.16 56.9388 126.46 57.4336 125.887C57.9284 125.307 58.5273 124.861 59.2305 124.549C59.9336 124.236 60.7214 124.08 61.5938 124.08C62.1862 124.08 62.7363 124.132 63.2441 124.236C63.752 124.334 64.2402 124.487 64.709 124.695V126.404C64.2467 126.15 63.7682 125.958 63.2734 125.828C62.7786 125.691 62.2383 125.623 61.6523 125.623C61.0534 125.623 60.5098 125.737 60.0215 125.965C59.5397 126.186 59.1296 126.512 58.791 126.941C58.4525 127.365 58.1921 127.885 58.0098 128.504C57.8275 129.116 57.7363 129.816 57.7363 130.604C57.7363 132.257 58.0716 133.504 58.7422 134.344C59.4128 135.184 60.3958 135.604 61.6914 135.604C62.2383 135.604 62.7624 135.542 63.2637 135.418C63.765 135.288 64.2467 135.109 64.709 134.881V136.521ZM76.1445 125.721H72.3652V137H70.6074V125.721H66.8281V124.236H76.1445V125.721ZM86.8086 126.424C86.3333 126.17 85.8451 125.975 85.3438 125.838C84.8424 125.695 84.2956 125.623 83.7031 125.623C83.026 125.623 82.4238 125.743 81.8965 125.984C81.3691 126.225 80.9232 126.567 80.5586 127.01C80.2005 127.446 79.9238 127.973 79.7285 128.592C79.5397 129.21 79.4453 129.894 79.4453 130.643C79.4453 131.424 79.5234 132.124 79.6797 132.742C79.8359 133.361 80.0801 133.885 80.4121 134.314C80.7441 134.744 81.1673 135.073 81.6816 135.301C82.2025 135.529 82.8242 135.643 83.5469 135.643C83.6706 135.643 83.804 135.636 83.9473 135.623C84.0905 135.61 84.2337 135.594 84.377 135.574C84.5202 135.548 84.6569 135.519 84.7871 135.486C84.9238 135.454 85.0443 135.418 85.1484 135.379V131.316H82.541V129.881H86.8672V136.404C86.6003 136.528 86.3171 136.639 86.0176 136.736C85.7246 136.834 85.4219 136.915 85.1094 136.98C84.8034 137.046 84.4974 137.094 84.1914 137.127C83.8854 137.16 83.5892 137.176 83.3027 137.176C82.4303 137.176 81.6426 137.039 80.9395 136.766C80.2428 136.492 79.6471 136.089 79.1523 135.555C78.6641 135.014 78.2865 134.344 78.0195 133.543C77.7591 132.742 77.6289 131.814 77.6289 130.76C77.6289 129.712 77.7754 128.774 78.0684 127.947C78.3613 127.114 78.7715 126.411 79.2988 125.838C79.8327 125.258 80.4707 124.819 81.2129 124.52C81.9616 124.214 82.7852 124.061 83.6836 124.061C84.2565 124.061 84.8001 124.113 85.3145 124.217C85.8353 124.314 86.3333 124.474 86.8086 124.695V126.424ZM93.4785 127.02C93.6803 127.02 93.8724 127.062 94.0547 127.146C94.237 127.225 94.3965 127.332 94.5332 127.469C94.6699 127.605 94.7773 127.765 94.8555 127.947C94.9401 128.13 94.9824 128.322 94.9824 128.523C94.9824 128.732 94.9401 128.927 94.8555 129.109C94.7773 129.285 94.6699 129.441 94.5332 129.578C94.3965 129.715 94.237 129.822 94.0547 129.9C93.8724 129.979 93.6803 130.018 93.4785 130.018C93.2702 130.018 93.0749 129.979 92.8926 129.9C92.7168 129.822 92.5605 129.715 92.4238 129.578C92.2871 129.441 92.1797 129.285 92.1016 129.109C92.0234 128.927 91.9844 128.732 91.9844 128.523C91.9844 128.322 92.0234 128.13 92.1016 127.947C92.1797 127.765 92.2871 127.605 92.4238 127.469C92.5605 127.332 92.7168 127.225 92.8926 127.146C93.0749 127.062 93.2702 127.02 93.4785 127.02ZM93.4785 134.178C93.6803 134.178 93.8724 134.22 94.0547 134.305C94.237 134.383 94.3965 134.49 94.5332 134.627C94.6699 134.764 94.7773 134.923 94.8555 135.105C94.9401 135.288 94.9824 135.48 94.9824 135.682C94.9824 135.89 94.9401 136.085 94.8555 136.268C94.7773 136.443 94.6699 136.6 94.5332 136.736C94.3965 136.873 94.237 136.98 94.0547 137.059C93.8724 137.137 93.6803 137.176 93.4785 137.176C93.2702 137.176 93.0749 137.137 92.8926 137.059C92.7168 136.98 92.5605 136.873 92.4238 136.736C92.2871 136.6 92.1797 136.443 92.1016 136.268C92.0234 136.085 91.9844 135.89 91.9844 135.682C91.9844 135.48 92.0234 135.288 92.1016 135.105C92.1797 134.923 92.2871 134.764 92.4238 134.627C92.5605 134.49 92.7168 134.383 92.8926 134.305C93.0749 134.22 93.2702 134.178 93.4785 134.178ZM119.709 137H111.691V135.418H114.973V126.102L111.916 127.762L111.291 126.316L115.354 124.178H116.857V135.418H119.709V137ZM43.1562 148.721H39.377V160H37.6191V148.721H33.8398V147.236H43.1562V148.721ZM53.8203 149.424C53.3451 149.17 52.8568 148.975 52.3555 148.838C51.8542 148.695 51.3073 148.623 50.7148 148.623C50.0378 148.623 49.4355 148.743 48.9082 148.984C48.3809 149.225 47.9349 149.567 47.5703 150.01C47.2122 150.446 46.9355 150.973 46.7402 151.592C46.5514 152.21 46.457 152.894 46.457 153.643C46.457 154.424 46.5352 155.124 46.6914 155.742C46.8477 156.361 47.0918 156.885 47.4238 157.314C47.7559 157.744 48.179 158.073 48.6934 158.301C49.2142 158.529 49.8359 158.643 50.5586 158.643C50.6823 158.643 50.8158 158.636 50.959 158.623C51.1022 158.61 51.2454 158.594 51.3887 158.574C51.5319 158.548 51.6686 158.519 51.7988 158.486C51.9355 158.454 52.056 158.418 52.1602 158.379V154.316H49.5527V152.881H53.8789V159.404C53.612 159.528 53.3288 159.639 53.0293 159.736C52.7363 159.834 52.4336 159.915 52.1211 159.98C51.8151 160.046 51.5091 160.094 51.2031 160.127C50.8971 160.16 50.6009 160.176 50.3145 160.176C49.4421 160.176 48.6543 160.039 47.9512 159.766C47.2546 159.492 46.6589 159.089 46.1641 158.555C45.6758 158.014 45.2982 157.344 45.0312 156.543C44.7708 155.742 44.6406 154.814 44.6406 153.76C44.6406 152.712 44.7871 151.774 45.0801 150.947C45.373 150.114 45.7832 149.411 46.3105 148.838C46.8444 148.258 47.4824 147.819 48.2246 147.52C48.9733 147.214 49.7969 147.061 50.6953 147.061C51.2682 147.061 51.8118 147.113 52.3262 147.217C52.847 147.314 53.3451 147.474 53.8203 147.695V149.424ZM64.8164 149.424C64.3411 149.17 63.8529 148.975 63.3516 148.838C62.8503 148.695 62.3034 148.623 61.7109 148.623C61.0339 148.623 60.4316 148.743 59.9043 148.984C59.377 149.225 58.931 149.567 58.5664 150.01C58.2083 150.446 57.9316 150.973 57.7363 151.592C57.5475 152.21 57.4531 152.894 57.4531 153.643C57.4531 154.424 57.5312 155.124 57.6875 155.742C57.8438 156.361 58.0879 156.885 58.4199 157.314C58.752 157.744 59.1751 158.073 59.6895 158.301C60.2103 158.529 60.832 158.643 61.5547 158.643C61.6784 158.643 61.8118 158.636 61.9551 158.623C62.0983 158.61 62.2415 158.594 62.3848 158.574C62.528 158.548 62.6647 158.519 62.7949 158.486C62.9316 158.454 63.0521 158.418 63.1562 158.379V154.316H60.5488V152.881H64.875V159.404C64.6081 159.528 64.3249 159.639 64.0254 159.736C63.7324 159.834 63.4297 159.915 63.1172 159.98C62.8112 160.046 62.5052 160.094 62.1992 160.127C61.8932 160.16 61.597 160.176 61.3105 160.176C60.4382 160.176 59.6504 160.039 58.9473 159.766C58.2507 159.492 57.6549 159.089 57.1602 158.555C56.6719 158.014 56.2943 157.344 56.0273 156.543C55.7669 155.742 55.6367 154.814 55.6367 153.76C55.6367 152.712 55.7832 151.774 56.0762 150.947C56.3691 150.114 56.7793 149.411 57.3066 148.838C57.8405 148.258 58.4785 147.819 59.2207 147.52C59.9694 147.214 60.793 147.061 61.6914 147.061C62.2643 147.061 62.8079 147.113 63.3223 147.217C63.8431 147.314 64.3411 147.474 64.8164 147.695V149.424ZM75.8125 149.424C75.3372 149.17 74.849 148.975 74.3477 148.838C73.8464 148.695 73.2995 148.623 72.707 148.623C72.0299 148.623 71.4277 148.743 70.9004 148.984C70.373 149.225 69.9271 149.567 69.5625 150.01C69.2044 150.446 68.9277 150.973 68.7324 151.592C68.5436 152.21 68.4492 152.894 68.4492 153.643C68.4492 154.424 68.5273 155.124 68.6836 155.742C68.8398 156.361 69.084 156.885 69.416 157.314C69.748 157.744 70.1712 158.073 70.6855 158.301C71.2064 158.529 71.8281 158.643 72.5508 158.643C72.6745 158.643 72.8079 158.636 72.9512 158.623C73.0944 158.61 73.2376 158.594 73.3809 158.574C73.5241 158.548 73.6608 158.519 73.791 158.486C73.9277 158.454 74.0482 158.418 74.1523 158.379V154.316H71.5449V152.881H75.8711V159.404C75.6042 159.528 75.321 159.639 75.0215 159.736C74.7285 159.834 74.4258 159.915 74.1133 159.98C73.8073 160.046 73.5013 160.094 73.1953 160.127C72.8893 160.16 72.5931 160.176 72.3066 160.176C71.4342 160.176 70.6465 160.039 69.9434 159.766C69.2467 159.492 68.651 159.089 68.1562 158.555C67.668 158.014 67.2904 157.344 67.0234 156.543C66.763 155.742 66.6328 154.814 66.6328 153.76C66.6328 152.712 66.7793 151.774 67.0723 150.947C67.3652 150.114 67.7754 149.411 68.3027 148.838C68.8366 148.258 69.4746 147.819 70.2168 147.52C70.9655 147.214 71.7891 147.061 72.6875 147.061C73.2604 147.061 73.804 147.113 74.3184 147.217C74.8392 147.314 75.3372 147.474 75.8125 147.695V149.424ZM86.7012 159.521C85.679 159.945 84.6081 160.156 83.4883 160.156C81.6849 160.156 80.2982 159.619 79.3281 158.545C78.3646 157.464 77.8828 155.869 77.8828 153.76C77.8828 152.738 78.0163 151.813 78.2832 150.986C78.5501 150.16 78.931 149.46 79.4258 148.887C79.9206 148.307 80.5195 147.861 81.2227 147.549C81.9258 147.236 82.7135 147.08 83.5859 147.08C84.1784 147.08 84.7285 147.132 85.2363 147.236C85.7441 147.334 86.2324 147.487 86.7012 147.695V149.404C86.2389 149.15 85.7604 148.958 85.2656 148.828C84.7708 148.691 84.2305 148.623 83.6445 148.623C83.0456 148.623 82.502 148.737 82.0137 148.965C81.5319 149.186 81.1217 149.512 80.7832 149.941C80.4447 150.365 80.1842 150.885 80.002 151.504C79.8197 152.116 79.7285 152.816 79.7285 153.604C79.7285 155.257 80.0638 156.504 80.7344 157.344C81.4049 158.184 82.388 158.604 83.6836 158.604C84.2305 158.604 84.7546 158.542 85.2559 158.418C85.7572 158.288 86.2389 158.109 86.7012 157.881V159.521ZM93.4785 150.02C93.6803 150.02 93.8724 150.062 94.0547 150.146C94.237 150.225 94.3965 150.332 94.5332 150.469C94.6699 150.605 94.7773 150.765 94.8555 150.947C94.9401 151.13 94.9824 151.322 94.9824 151.523C94.9824 151.732 94.9401 151.927 94.8555 152.109C94.7773 152.285 94.6699 152.441 94.5332 152.578C94.3965 152.715 94.237 152.822 94.0547 152.9C93.8724 152.979 93.6803 153.018 93.4785 153.018C93.2702 153.018 93.0749 152.979 92.8926 152.9C92.7168 152.822 92.5605 152.715 92.4238 152.578C92.2871 152.441 92.1797 152.285 92.1016 152.109C92.0234 151.927 91.9844 151.732 91.9844 151.523C91.9844 151.322 92.0234 151.13 92.1016 150.947C92.1797 150.765 92.2871 150.605 92.4238 150.469C92.5605 150.332 92.7168 150.225 92.8926 150.146C93.0749 150.062 93.2702 150.02 93.4785 150.02ZM93.4785 157.178C93.6803 157.178 93.8724 157.22 94.0547 157.305C94.237 157.383 94.3965 157.49 94.5332 157.627C94.6699 157.764 94.7773 157.923 94.8555 158.105C94.9401 158.288 94.9824 158.48 94.9824 158.682C94.9824 158.89 94.9401 159.085 94.8555 159.268C94.7773 159.443 94.6699 159.6 94.5332 159.736C94.3965 159.873 94.237 159.98 94.0547 160.059C93.8724 160.137 93.6803 160.176 93.4785 160.176C93.2702 160.176 93.0749 160.137 92.8926 160.059C92.7168 159.98 92.5605 159.873 92.4238 159.736C92.2871 159.6 92.1797 159.443 92.1016 159.268C92.0234 159.085 91.9844 158.89 91.9844 158.682C91.9844 158.48 92.0234 158.288 92.1016 158.105C92.1797 157.923 92.2871 157.764 92.4238 157.627C92.5605 157.49 92.7168 157.383 92.8926 157.305C93.0749 157.22 93.2702 157.178 93.4785 157.178ZM119.816 160H111.408V158.477L114.709 155.195C115.249 154.661 115.689 154.199 116.027 153.809C116.366 153.418 116.63 153.063 116.818 152.744C117.007 152.419 117.134 152.113 117.199 151.826C117.264 151.54 117.297 151.23 117.297 150.898C117.297 150.586 117.255 150.29 117.17 150.01C117.085 149.723 116.955 149.473 116.779 149.258C116.604 149.043 116.376 148.874 116.096 148.75C115.816 148.626 115.48 148.564 115.09 148.564C114.549 148.564 114.058 148.685 113.615 148.926C113.173 149.167 112.766 149.479 112.395 149.863L111.457 148.74C111.939 148.232 112.492 147.826 113.117 147.52C113.749 147.214 114.481 147.061 115.314 147.061C115.881 147.061 116.395 147.145 116.857 147.314C117.326 147.484 117.73 147.728 118.068 148.047C118.407 148.366 118.667 148.757 118.85 149.219C119.038 149.681 119.133 150.202 119.133 150.781C119.133 151.27 119.068 151.722 118.938 152.139C118.807 152.555 118.609 152.972 118.342 153.389C118.081 153.799 117.749 154.225 117.346 154.668C116.949 155.111 116.477 155.596 115.93 156.123L113.615 158.379H119.816V160Z" fill="#C9D1D9"/>
</g>
<defs>
<filter id="filter0_i" x="4" y="0" width="188.391" height="224" filterUnits="userSpaceOnUse" color-interpolation-filters="sRGB">
<feFlood flood-opacity="0" result="BackgroundImageFix"/>
<feBlend mode="normal" in="SourceGraphic" in2="BackgroundImageFix" result="shape"/>
<feColorMatrix in="SourceAlpha" type="matrix" values="0 0 0 0 0 0 0 0 0 0 0 0 0 0 0 0 0 0 127 0" result="hardAlpha"/>
<feOffset dy="4"/>
<feGaussianBlur stdDeviation="2"/>
<feComposite in2="hardAlpha" operator="arithmetic" k2="-1" k3="1"/>
<feColorMatrix type="matrix" values="0 0 0 0 0 0 0 0 0 0 0 0 0 0 0 0 0 0 0.25 0"/>
<feBlend mode="normal" in2="shape" result="effect1_innerShadow"/>
</filter>
<filter id="filter1_d" x="0" y="0" width="196.391" height="228" filterUnits="userSpaceOnUse" color-interpolation-filters="sRGB">
<feFlood flood-opacity="0" result="BackgroundImageFix"/>
<feColorMatrix in="SourceAlpha" type="matrix" values="0 0 0 0 0 0 0 0 0 0 0 0 0 0 0 0 0 0 127 0"/>
<feOffset dy="4"/>
<feGaussianBlur stdDeviation="2"/>
<feColorMatrix type="matrix" values="0 0 0 0 0 0 0 0 0 0 0 0 0 0 0 0 0 0 0.25 0"/>
<feBlend mode="normal" in2="BackgroundImageFix" result="effect1_dropShadow"/>
<feBlend mode="normal" in="SourceGraphic" in2="effect1_dropShadow" result="shape"/>
</filter>
<filter id="filter2_d" x="29.6445" y="55.0605" width="94.8066" height="113.115" filterUnits="userSpaceOnUse" color-interpolation-filters="sRGB">
<feFlood flood-opacity="0" result="BackgroundImageFix"/>
<feColorMatrix in="SourceAlpha" type="matrix" values="0 0 0 0 0 0 0 0 0 0 0 0 0 0 0 0 0 0 127 0"/>
<feOffset dy="4"/>
<feGaussianBlur stdDeviation="2"/>
<feColorMatrix type="matrix" values="0 0 0 0 0 0 0 0 0 0 0 0 0 0 0 0 0 0 0.25 0"/>
<feBlend mode="normal" in2="BackgroundImageFix" result="effect1_dropShadow"/>
<feBlend mode="normal" in="SourceGraphic" in2="effect1_dropShadow" result="shape"/>
</filter>
<linearGradient id="paint0_linear" x1="98.1954" y1="0" x2="98.1954" y2="220" gradientUnits="userSpaceOnUse">
<stop/>
<stop offset="1" stop-color="white" stop-opacity="0"/>
</linearGradient>
</defs>
</svg>
