<svg width="403" height="20" viewBox="0 0 403 20" fill="none" xmlns="http://www.w3.org/2000/svg">
<path d="M7.60156 12.0312H2.83594L1.76562 15H0.21875L4.5625 3.625H5.875L10.2266 15H8.6875L7.60156 12.0312ZM3.28906 10.7969H7.15625L5.21875 5.47656L3.28906 10.7969ZM18.0391 12.0312H13.2734L12.2031 15H10.6562L15 3.625H16.3125L20.6641 15H19.125L18.0391 12.0312ZM13.7266 10.7969H17.5938L15.6562 5.47656L13.7266 10.7969ZM29.0391 4.85938H25.3828V15H23.8906V4.85938H20.2422V3.625H29.0391V4.85938ZM38.9062 13.5078C38.5208 14.0599 37.9818 14.474 37.2891 14.75C36.6016 15.0208 35.7995 15.1562 34.8828 15.1562C33.9557 15.1562 33.1328 14.9401 32.4141 14.5078C31.6953 14.0703 31.138 13.4505 30.7422 12.6484C30.3516 11.8464 30.151 10.9167 30.1406 9.85938V8.86719C30.1406 7.15365 30.5391 5.82552 31.3359 4.88281C32.138 3.9401 33.263 3.46875 34.7109 3.46875C35.8984 3.46875 36.8542 3.77344 37.5781 4.38281C38.3021 4.98698 38.7448 5.84635 38.9062 6.96094H37.4062C37.125 5.45573 36.2292 4.70312 34.7188 4.70312C33.7135 4.70312 32.9505 5.05729 32.4297 5.76562C31.9141 6.46875 31.6536 7.48958 31.6484 8.82812V9.75781C31.6484 11.0339 31.9401 12.0495 32.5234 12.8047C33.1068 13.5547 33.8958 13.9297 34.8906 13.9297C35.4531 13.9297 35.9453 13.8672 36.3672 13.7422C36.7891 13.6172 37.138 13.4062 37.4141 13.1094V10.5547H34.7812V9.33594H38.9062V13.5078ZM47.6953 12.0312H42.9297L41.8594 15H40.3125L44.6562 3.625H45.9688L50.3203 15H48.7812L47.6953 12.0312ZM43.3828 10.7969H47.25L45.3125 5.47656L43.3828 10.7969ZM57.0859 6.54688V15.9766C57.0859 17.6016 56.349 18.4141 54.875 18.4141C54.5573 18.4141 54.263 18.3672 53.9922 18.2734V17.1172C54.1589 17.1589 54.3776 17.1797 54.6484 17.1797C54.9714 17.1797 55.2161 17.0911 55.3828 16.9141C55.5547 16.7422 55.6406 16.4401 55.6406 16.0078V6.54688H57.0859ZM55.4922 4.30469C55.4922 4.07552 55.5625 3.88021 55.7031 3.71875C55.849 3.55208 56.0599 3.46875 56.3359 3.46875C56.6172 3.46875 56.8307 3.54948 56.9766 3.71094C57.1224 3.8724 57.1953 4.07031 57.1953 4.30469C57.1953 4.53906 57.1224 4.73438 56.9766 4.89062C56.8307 5.04688 56.6172 5.125 56.3359 5.125C56.0547 5.125 55.8438 5.04688 55.7031 4.89062C55.5625 4.73438 55.4922 4.53906 55.4922 4.30469ZM62.9297 15.1562C61.7839 15.1562 60.8516 14.7812 60.1328 14.0312C59.4141 13.276 59.0547 12.2682 59.0547 11.0078V10.7422C59.0547 9.90365 59.2135 9.15625 59.5312 8.5C59.8542 7.83854 60.3021 7.32292 60.875 6.95312C61.4531 6.57812 62.0781 6.39062 62.75 6.39062C63.849 6.39062 64.7031 6.7526 65.3125 7.47656C65.9219 8.20052 66.2266 9.23698 66.2266 10.5859V11.1875H60.5C60.5208 12.0208 60.763 12.6953 61.2266 13.2109C61.6953 13.7214 62.2891 13.9766 63.0078 13.9766C63.5182 13.9766 63.9505 13.8724 64.3047 13.6641C64.6589 13.4557 64.9688 13.1797 65.2344 12.8359L66.1172 13.5234C65.4089 14.612 64.3464 15.1562 62.9297 15.1562ZM62.75 7.57812C62.1667 7.57812 61.6771 7.79167 61.2812 8.21875C60.8854 8.64062 60.6406 9.23438 60.5469 10H64.7812V9.89062C64.7396 9.15625 64.5417 8.58854 64.1875 8.1875C63.8333 7.78125 63.3542 7.57812 62.75 7.57812ZM73.3672 6.54688V15.9766C73.3672 17.6016 72.6302 18.4141 71.1562 18.4141C70.8385 18.4141 70.5443 18.3672 70.2734 18.2734V17.1172C70.4401 17.1589 70.6589 17.1797 70.9297 17.1797C71.2526 17.1797 71.4974 17.0911 71.6641 16.9141C71.8359 16.7422 71.9219 16.4401 71.9219 16.0078V6.54688H73.3672ZM71.7734 4.30469C71.7734 4.07552 71.8438 3.88021 71.9844 3.71875C72.1302 3.55208 72.3411 3.46875 72.6172 3.46875C72.8984 3.46875 73.112 3.54948 73.2578 3.71094C73.4036 3.8724 73.4766 4.07031 73.4766 4.30469C73.4766 4.53906 73.4036 4.73438 73.2578 4.89062C73.112 5.04688 72.8984 5.125 72.6172 5.125C72.3359 5.125 72.125 5.04688 71.9844 4.89062C71.8438 4.73438 71.7734 4.53906 71.7734 4.30469ZM79.2109 15.1562C78.0651 15.1562 77.1328 14.7812 76.4141 14.0312C75.6953 13.276 75.3359 12.2682 75.3359 11.0078V10.7422C75.3359 9.90365 75.4948 9.15625 75.8125 8.5C76.1354 7.83854 76.5833 7.32292 77.1562 6.95312C77.7344 6.57812 78.3594 6.39062 79.0312 6.39062C80.1302 6.39062 80.9844 6.7526 81.5938 7.47656C82.2031 8.20052 82.5078 9.23698 82.5078 10.5859V11.1875H76.7812C76.8021 12.0208 77.0443 12.6953 77.5078 13.2109C77.9766 13.7214 78.5703 13.9766 79.2891 13.9766C79.7995 13.9766 80.2318 13.8724 80.5859 13.6641C80.9401 13.4557 81.25 13.1797 81.5156 12.8359L82.3984 13.5234C81.6901 14.612 80.6276 15.1562 79.2109 15.1562ZM79.0312 7.57812C78.4479 7.57812 77.9583 7.79167 77.5625 8.21875C77.1667 8.64062 76.9219 9.23438 76.8281 10H81.0625V9.89062C81.0208 9.15625 80.8229 8.58854 80.4688 8.1875C80.1146 7.78125 79.6354 7.57812 79.0312 7.57812ZM83.8359 10.7031C83.8359 9.40625 84.1432 8.36458 84.7578 7.57812C85.3724 6.78646 86.1771 6.39062 87.1719 6.39062C88.1615 6.39062 88.9453 6.72917 89.5234 7.40625V3H90.9688V15H89.6406L89.5703 14.0938C88.9922 14.8021 88.1875 15.1562 87.1562 15.1562C86.1771 15.1562 85.3776 14.7552 84.7578 13.9531C84.1432 13.151 83.8359 12.1042 83.8359 10.8125V10.7031ZM85.2812 10.8672C85.2812 11.8255 85.4792 12.5755 85.875 13.1172C86.2708 13.6589 86.8177 13.9297 87.5156 13.9297C88.4323 13.9297 89.1016 13.5182 89.5234 12.6953V8.8125C89.0911 8.01562 88.4271 7.61719 87.5312 7.61719C86.8229 7.61719 86.2708 7.89062 85.875 8.4375C85.4792 8.98438 85.2812 9.79427 85.2812 10.8672ZM94.5859 6.54688L94.6328 7.60938C95.2786 6.79688 96.1224 6.39062 97.1641 6.39062C98.9505 6.39062 99.8516 7.39844 99.8672 9.41406V15H98.4219V9.40625C98.4167 8.79688 98.276 8.34635 98 8.05469C97.7292 7.76302 97.3047 7.61719 96.7266 7.61719C96.2578 7.61719 95.8464 7.74219 95.4922 7.99219C95.138 8.24219 94.862 8.57031 94.6641 8.97656V15H93.2188V6.54688H94.5859ZM107.266 15C107.182 14.8333 107.115 14.5365 107.062 14.1094C106.391 14.8073 105.589 15.1562 104.656 15.1562C103.823 15.1562 103.138 14.9219 102.602 14.4531C102.07 13.9792 101.805 13.3802 101.805 12.6562C101.805 11.776 102.138 11.0938 102.805 10.6094C103.477 10.1198 104.419 9.875 105.633 9.875H107.039V9.21094C107.039 8.70573 106.888 8.30469 106.586 8.00781C106.284 7.70573 105.839 7.55469 105.25 7.55469C104.734 7.55469 104.302 7.6849 103.953 7.94531C103.604 8.20573 103.43 8.52083 103.43 8.89062H101.977C101.977 8.46875 102.125 8.0625 102.422 7.67188C102.724 7.27604 103.13 6.96354 103.641 6.73438C104.156 6.50521 104.721 6.39062 105.336 6.39062C106.31 6.39062 107.073 6.63542 107.625 7.125C108.177 7.60938 108.464 8.27865 108.484 9.13281V13.0234C108.484 13.7995 108.583 14.4167 108.781 14.875V15H107.266ZM104.867 13.8984C105.32 13.8984 105.75 13.7812 106.156 13.5469C106.562 13.3125 106.857 13.0078 107.039 12.6328V10.8984H105.906C104.135 10.8984 103.25 11.4167 103.25 12.4531C103.25 12.9062 103.401 13.2604 103.703 13.5156C104.005 13.7708 104.393 13.8984 104.867 13.8984ZM121.859 10.8672C121.859 12.1536 121.565 13.1901 120.977 13.9766C120.388 14.763 119.591 15.1562 118.586 15.1562C117.56 15.1562 116.753 14.8307 116.164 14.1797V18.25H114.719V6.54688H116.039L116.109 7.48438C116.698 6.75521 117.516 6.39062 118.562 6.39062C119.578 6.39062 120.38 6.77344 120.969 7.53906C121.562 8.30469 121.859 9.36979 121.859 10.7344V10.8672ZM120.414 10.7031C120.414 9.75 120.211 8.9974 119.805 8.44531C119.398 7.89323 118.841 7.61719 118.133 7.61719C117.258 7.61719 116.602 8.00521 116.164 8.78125V12.8203C116.596 13.5911 117.258 13.9766 118.148 13.9766C118.841 13.9766 119.391 13.7031 119.797 13.1562C120.208 12.6042 120.414 11.7865 120.414 10.7031ZM123.32 10.6953C123.32 9.86719 123.482 9.1224 123.805 8.46094C124.133 7.79948 124.586 7.28906 125.164 6.92969C125.747 6.57031 126.411 6.39062 127.156 6.39062C128.307 6.39062 129.237 6.78906 129.945 7.58594C130.659 8.38281 131.016 9.44271 131.016 10.7656V10.8672C131.016 11.6901 130.857 12.4297 130.539 13.0859C130.227 13.737 129.776 14.2448 129.188 14.6094C128.604 14.974 127.932 15.1562 127.172 15.1562C126.026 15.1562 125.096 14.7578 124.383 13.9609C123.674 13.1641 123.32 12.1094 123.32 10.7969V10.6953ZM124.773 10.8672C124.773 11.8047 124.99 12.5573 125.422 13.125C125.859 13.6927 126.443 13.9766 127.172 13.9766C127.906 13.9766 128.49 13.6901 128.922 13.1172C129.354 12.5391 129.57 11.7318 129.57 10.6953C129.57 9.76823 129.349 9.01823 128.906 8.44531C128.469 7.86719 127.885 7.57812 127.156 7.57812C126.443 7.57812 125.867 7.86198 125.43 8.42969C124.992 8.9974 124.773 9.8099 124.773 10.8672ZM132.477 10.7031C132.477 9.40625 132.784 8.36458 133.398 7.57812C134.013 6.78646 134.818 6.39062 135.812 6.39062C136.802 6.39062 137.586 6.72917 138.164 7.40625V3H139.609V15H138.281L138.211 14.0938C137.633 14.8021 136.828 15.1562 135.797 15.1562C134.818 15.1562 134.018 14.7552 133.398 13.9531C132.784 13.151 132.477 12.1042 132.477 10.8125V10.7031ZM133.922 10.8672C133.922 11.8255 134.12 12.5755 134.516 13.1172C134.911 13.6589 135.458 13.9297 136.156 13.9297C137.073 13.9297 137.742 13.5182 138.164 12.6953V8.8125C137.732 8.01562 137.068 7.61719 136.172 7.61719C135.464 7.61719 134.911 7.89062 134.516 8.4375C134.12 8.98438 133.922 9.79427 133.922 10.8672ZM146.781 12.7578C146.781 12.3672 146.633 12.0651 146.336 11.8516C146.044 11.6328 145.531 11.4453 144.797 11.2891C144.068 11.1328 143.487 10.9453 143.055 10.7266C142.628 10.5078 142.31 10.2474 142.102 9.94531C141.898 9.64323 141.797 9.28385 141.797 8.86719C141.797 8.17448 142.089 7.58854 142.672 7.10938C143.26 6.63021 144.01 6.39062 144.922 6.39062C145.88 6.39062 146.656 6.63802 147.25 7.13281C147.849 7.6276 148.148 8.26042 148.148 9.03125H146.695C146.695 8.63542 146.526 8.29427 146.188 8.00781C145.854 7.72135 145.432 7.57812 144.922 7.57812C144.396 7.57812 143.984 7.69271 143.688 7.92188C143.391 8.15104 143.242 8.45052 143.242 8.82031C143.242 9.16927 143.38 9.43229 143.656 9.60938C143.932 9.78646 144.43 9.95573 145.148 10.1172C145.872 10.2786 146.458 10.4714 146.906 10.6953C147.354 10.9193 147.685 11.1901 147.898 11.5078C148.117 11.8203 148.227 12.2031 148.227 12.6562C148.227 13.4115 147.924 14.0182 147.32 14.4766C146.716 14.9297 145.932 15.1562 144.969 15.1562C144.292 15.1562 143.693 15.0365 143.172 14.7969C142.651 14.5573 142.242 14.224 141.945 13.7969C141.654 13.3646 141.508 12.8984 141.508 12.3984H142.953C142.979 12.8828 143.172 13.2682 143.531 13.5547C143.896 13.8359 144.375 13.9766 144.969 13.9766C145.516 13.9766 145.953 13.8672 146.281 13.6484C146.615 13.4245 146.781 13.1276 146.781 12.7578ZM153.617 15.1562C152.471 15.1562 151.539 14.7812 150.82 14.0312C150.102 13.276 149.742 12.2682 149.742 11.0078V10.7422C149.742 9.90365 149.901 9.15625 150.219 8.5C150.542 7.83854 150.99 7.32292 151.562 6.95312C152.141 6.57812 152.766 6.39062 153.438 6.39062C154.536 6.39062 155.391 6.7526 156 7.47656C156.609 8.20052 156.914 9.23698 156.914 10.5859V11.1875H151.188C151.208 12.0208 151.451 12.6953 151.914 13.2109C152.383 13.7214 152.977 13.9766 153.695 13.9766C154.206 13.9766 154.638 13.8724 154.992 13.6641C155.346 13.4557 155.656 13.1797 155.922 12.8359L156.805 13.5234C156.096 14.612 155.034 15.1562 153.617 15.1562ZM153.438 7.57812C152.854 7.57812 152.365 7.79167 151.969 8.21875C151.573 8.64062 151.328 9.23438 151.234 10H155.469V9.89062C155.427 9.15625 155.229 8.58854 154.875 8.1875C154.521 7.78125 154.042 7.57812 153.438 7.57812ZM160.953 11.0859L160.047 12.0312V15H158.602V3H160.047V10.2578L160.82 9.32812L163.453 6.54688H165.211L161.922 10.0781L165.594 15H163.898L160.953 11.0859ZM169.492 13.0391L171.586 6.54688H173.062L170.031 15H168.93L165.867 6.54688H167.344L169.492 13.0391ZM177.852 15.1562C176.706 15.1562 175.773 14.7812 175.055 14.0312C174.336 13.276 173.977 12.2682 173.977 11.0078V10.7422C173.977 9.90365 174.135 9.15625 174.453 8.5C174.776 7.83854 175.224 7.32292 175.797 6.95312C176.375 6.57812 177 6.39062 177.672 6.39062C178.771 6.39062 179.625 6.7526 180.234 7.47656C180.844 8.20052 181.148 9.23698 181.148 10.5859V11.1875H175.422C175.443 12.0208 175.685 12.6953 176.148 13.2109C176.617 13.7214 177.211 13.9766 177.93 13.9766C178.44 13.9766 178.872 13.8724 179.227 13.6641C179.581 13.4557 179.891 13.1797 180.156 12.8359L181.039 13.5234C180.331 14.612 179.268 15.1562 177.852 15.1562ZM177.672 7.57812C177.089 7.57812 176.599 7.79167 176.203 8.21875C175.807 8.64062 175.562 9.23438 175.469 10H179.703V9.89062C179.661 9.15625 179.464 8.58854 179.109 8.1875C178.755 7.78125 178.276 7.57812 177.672 7.57812ZM184.195 6.54688L184.242 7.60938C184.888 6.79688 185.732 6.39062 186.773 6.39062C188.56 6.39062 189.461 7.39844 189.477 9.41406V15H188.031V9.40625C188.026 8.79688 187.885 8.34635 187.609 8.05469C187.339 7.76302 186.914 7.61719 186.336 7.61719C185.867 7.61719 185.456 7.74219 185.102 7.99219C184.747 8.24219 184.471 8.57031 184.273 8.97656V15H182.828V6.54688H184.195ZM195.047 13.9766C195.562 13.9766 196.013 13.8203 196.398 13.5078C196.784 13.1953 196.997 12.8047 197.039 12.3359H198.406C198.38 12.8203 198.214 13.2812 197.906 13.7188C197.599 14.1562 197.188 14.5052 196.672 14.7656C196.161 15.026 195.62 15.1562 195.047 15.1562C193.896 15.1562 192.979 14.7734 192.297 14.0078C191.62 13.237 191.281 12.1849 191.281 10.8516V10.6094C191.281 9.78646 191.432 9.05469 191.734 8.41406C192.036 7.77344 192.469 7.27604 193.031 6.92188C193.599 6.56771 194.268 6.39062 195.039 6.39062C195.987 6.39062 196.773 6.67448 197.398 7.24219C198.029 7.8099 198.365 8.54688 198.406 9.45312H197.039C196.997 8.90625 196.789 8.45833 196.414 8.10938C196.044 7.75521 195.586 7.57812 195.039 7.57812C194.305 7.57812 193.734 7.84375 193.328 8.375C192.927 8.90104 192.727 9.66406 192.727 10.6641V10.9375C192.727 11.9115 192.927 12.6615 193.328 13.1875C193.729 13.7135 194.302 13.9766 195.047 13.9766ZM205.25 15C205.167 14.8333 205.099 14.5365 205.047 14.1094C204.375 14.8073 203.573 15.1562 202.641 15.1562C201.807 15.1562 201.122 14.9219 200.586 14.4531C200.055 13.9792 199.789 13.3802 199.789 12.6562C199.789 11.776 200.122 11.0938 200.789 10.6094C201.461 10.1198 202.404 9.875 203.617 9.875H205.023V9.21094C205.023 8.70573 204.872 8.30469 204.57 8.00781C204.268 7.70573 203.823 7.55469 203.234 7.55469C202.719 7.55469 202.286 7.6849 201.938 7.94531C201.589 8.20573 201.414 8.52083 201.414 8.89062H199.961C199.961 8.46875 200.109 8.0625 200.406 7.67188C200.708 7.27604 201.115 6.96354 201.625 6.73438C202.141 6.50521 202.706 6.39062 203.32 6.39062C204.294 6.39062 205.057 6.63542 205.609 7.125C206.161 7.60938 206.448 8.27865 206.469 9.13281V13.0234C206.469 13.7995 206.568 14.4167 206.766 14.875V15H205.25ZM202.852 13.8984C203.305 13.8984 203.734 13.7812 204.141 13.5469C204.547 13.3125 204.841 13.0078 205.023 12.6328V10.8984H203.891C202.12 10.8984 201.234 11.4167 201.234 12.4531C201.234 12.9062 201.385 13.2604 201.688 13.5156C201.99 13.7708 202.378 13.8984 202.852 13.8984ZM212.32 10.6953C212.32 9.86719 212.482 9.1224 212.805 8.46094C213.133 7.79948 213.586 7.28906 214.164 6.92969C214.747 6.57031 215.411 6.39062 216.156 6.39062C217.307 6.39062 218.237 6.78906 218.945 7.58594C219.659 8.38281 220.016 9.44271 220.016 10.7656V10.8672C220.016 11.6901 219.857 12.4297 219.539 13.0859C219.227 13.737 218.776 14.2448 218.188 14.6094C217.604 14.974 216.932 15.1562 216.172 15.1562C215.026 15.1562 214.096 14.7578 213.383 13.9609C212.674 13.1641 212.32 12.1094 212.32 10.7969V10.6953ZM213.773 10.8672C213.773 11.8047 213.99 12.5573 214.422 13.125C214.859 13.6927 215.443 13.9766 216.172 13.9766C216.906 13.9766 217.49 13.6901 217.922 13.1172C218.354 12.5391 218.57 11.7318 218.57 10.6953C218.57 9.76823 218.349 9.01823 217.906 8.44531C217.469 7.86719 216.885 7.57812 216.156 7.57812C215.443 7.57812 214.867 7.86198 214.43 8.42969C213.992 8.9974 213.773 9.8099 213.773 10.8672ZM221.477 10.7031C221.477 9.40625 221.784 8.36458 222.398 7.57812C223.013 6.78646 223.818 6.39062 224.812 6.39062C225.802 6.39062 226.586 6.72917 227.164 7.40625V3H228.609V15H227.281L227.211 14.0938C226.633 14.8021 225.828 15.1562 224.797 15.1562C223.818 15.1562 223.018 14.7552 222.398 13.9531C221.784 13.151 221.477 12.1042 221.477 10.8125V10.7031ZM222.922 10.8672C222.922 11.8255 223.12 12.5755 223.516 13.1172C223.911 13.6589 224.458 13.9297 225.156 13.9297C226.073 13.9297 226.742 13.5182 227.164 12.6953V8.8125C226.732 8.01562 226.068 7.61719 225.172 7.61719C224.464 7.61719 223.911 7.89062 223.516 8.4375C223.12 8.98438 222.922 9.79427 222.922 10.8672ZM239.75 12.7578C239.75 12.3672 239.602 12.0651 239.305 11.8516C239.013 11.6328 238.5 11.4453 237.766 11.2891C237.036 11.1328 236.456 10.9453 236.023 10.7266C235.596 10.5078 235.279 10.2474 235.07 9.94531C234.867 9.64323 234.766 9.28385 234.766 8.86719C234.766 8.17448 235.057 7.58854 235.641 7.10938C236.229 6.63021 236.979 6.39062 237.891 6.39062C238.849 6.39062 239.625 6.63802 240.219 7.13281C240.818 7.6276 241.117 8.26042 241.117 9.03125H239.664C239.664 8.63542 239.495 8.29427 239.156 8.00781C238.823 7.72135 238.401 7.57812 237.891 7.57812C237.365 7.57812 236.953 7.69271 236.656 7.92188C236.359 8.15104 236.211 8.45052 236.211 8.82031C236.211 9.16927 236.349 9.43229 236.625 9.60938C236.901 9.78646 237.398 9.95573 238.117 10.1172C238.841 10.2786 239.427 10.4714 239.875 10.6953C240.323 10.9193 240.654 11.1901 240.867 11.5078C241.086 11.8203 241.195 12.2031 241.195 12.6562C241.195 13.4115 240.893 14.0182 240.289 14.4766C239.685 14.9297 238.901 15.1562 237.938 15.1562C237.26 15.1562 236.661 15.0365 236.141 14.7969C235.62 14.5573 235.211 14.224 234.914 13.7969C234.622 13.3646 234.477 12.8984 234.477 12.3984H235.922C235.948 12.8828 236.141 13.2682 236.5 13.5547C236.865 13.8359 237.344 13.9766 237.938 13.9766C238.484 13.9766 238.922 13.8672 239.25 13.6484C239.583 13.4245 239.75 13.1276 239.75 12.7578ZM245.039 4.5V6.54688H246.617V7.66406H245.039V12.9062C245.039 13.2448 245.109 13.5 245.25 13.6719C245.391 13.8385 245.63 13.9219 245.969 13.9219C246.135 13.9219 246.365 13.8906 246.656 13.8281V15C246.276 15.1042 245.906 15.1562 245.547 15.1562C244.901 15.1562 244.414 14.9609 244.086 14.5703C243.758 14.1797 243.594 13.625 243.594 12.9062V7.66406H242.055V6.54688H243.594V4.5H245.039ZM252.398 7.84375C252.18 7.80729 251.943 7.78906 251.688 7.78906C250.74 7.78906 250.096 8.19271 249.758 9V15H248.312V6.54688H249.719L249.742 7.52344C250.216 6.76823 250.888 6.39062 251.758 6.39062C252.039 6.39062 252.253 6.42708 252.398 6.5V7.84375ZM255.305 15H253.859V6.54688H255.305V15ZM253.742 4.30469C253.742 4.07031 253.812 3.8724 253.953 3.71094C254.099 3.54948 254.312 3.46875 254.594 3.46875C254.875 3.46875 255.089 3.54948 255.234 3.71094C255.38 3.8724 255.453 4.07031 255.453 4.30469C255.453 4.53906 255.38 4.73438 255.234 4.89062C255.089 5.04688 254.875 5.125 254.594 5.125C254.312 5.125 254.099 5.04688 253.953 4.89062C253.812 4.73438 253.742 4.53906 253.742 4.30469ZM258.992 6.54688L259.039 7.60938C259.685 6.79688 260.529 6.39062 261.57 6.39062C263.357 6.39062 264.258 7.39844 264.273 9.41406V15H262.828V9.40625C262.823 8.79688 262.682 8.34635 262.406 8.05469C262.135 7.76302 261.711 7.61719 261.133 7.61719C260.664 7.61719 260.253 7.74219 259.898 7.99219C259.544 8.24219 259.268 8.57031 259.07 8.97656V15H257.625V6.54688H258.992ZM266.109 10.7031C266.109 9.38542 266.414 8.33854 267.023 7.5625C267.633 6.78125 268.44 6.39062 269.445 6.39062C270.477 6.39062 271.281 6.75521 271.859 7.48438L271.93 6.54688H273.25V14.7969C273.25 15.8906 272.924 16.7526 272.273 17.3828C271.628 18.013 270.758 18.3281 269.664 18.3281C269.055 18.3281 268.458 18.1979 267.875 17.9375C267.292 17.6771 266.846 17.3203 266.539 16.8672L267.289 16C267.909 16.7656 268.667 17.1484 269.562 17.1484C270.266 17.1484 270.812 16.9505 271.203 16.5547C271.599 16.1589 271.797 15.6016 271.797 14.8828V14.1562C271.219 14.8229 270.43 15.1562 269.43 15.1562C268.44 15.1562 267.638 14.7578 267.023 13.9609C266.414 13.1641 266.109 12.0781 266.109 10.7031ZM267.562 10.8672C267.562 11.8203 267.758 12.5703 268.148 13.1172C268.539 13.6589 269.086 13.9297 269.789 13.9297C270.701 13.9297 271.37 13.5156 271.797 12.6875V8.82812C271.354 8.02083 270.69 7.61719 269.805 7.61719C269.102 7.61719 268.552 7.89062 268.156 8.4375C267.76 8.98438 267.562 9.79427 267.562 10.8672ZM280.656 15C280.573 14.8333 280.505 14.5365 280.453 14.1094C279.781 14.8073 278.979 15.1562 278.047 15.1562C277.214 15.1562 276.529 14.9219 275.992 14.4531C275.461 13.9792 275.195 13.3802 275.195 12.6562C275.195 11.776 275.529 11.0938 276.195 10.6094C276.867 10.1198 277.81 9.875 279.023 9.875H280.43V9.21094C280.43 8.70573 280.279 8.30469 279.977 8.00781C279.674 7.70573 279.229 7.55469 278.641 7.55469C278.125 7.55469 277.693 7.6849 277.344 7.94531C276.995 8.20573 276.82 8.52083 276.82 8.89062H275.367C275.367 8.46875 275.516 8.0625 275.812 7.67188C276.115 7.27604 276.521 6.96354 277.031 6.73438C277.547 6.50521 278.112 6.39062 278.727 6.39062C279.701 6.39062 280.464 6.63542 281.016 7.125C281.568 7.60938 281.854 8.27865 281.875 9.13281V13.0234C281.875 13.7995 281.974 14.4167 282.172 14.875V15H280.656ZM278.258 13.8984C278.711 13.8984 279.141 13.7812 279.547 13.5469C279.953 13.3125 280.247 13.0078 280.43 12.6328V10.8984H279.297C277.526 10.8984 276.641 11.4167 276.641 12.4531C276.641 12.9062 276.792 13.2604 277.094 13.5156C277.396 13.7708 277.784 13.8984 278.258 13.8984ZM295.883 4.85938H292.227V15H290.734V4.85938H287.086V3.625H295.883V4.85938ZM297.297 14.2422C297.297 13.9922 297.37 13.7839 297.516 13.6172C297.667 13.4505 297.891 13.3672 298.188 13.3672C298.484 13.3672 298.708 13.4505 298.859 13.6172C299.016 13.7839 299.094 13.9922 299.094 14.2422C299.094 14.4818 299.016 14.6823 298.859 14.8438C298.708 15.0052 298.484 15.0859 298.188 15.0859C297.891 15.0859 297.667 15.0052 297.516 14.8438C297.37 14.6823 297.297 14.4818 297.297 14.2422ZM297.305 7.34375C297.305 7.09375 297.378 6.88542 297.523 6.71875C297.674 6.55208 297.898 6.46875 298.195 6.46875C298.492 6.46875 298.716 6.55208 298.867 6.71875C299.023 6.88542 299.102 7.09375 299.102 7.34375C299.102 7.58333 299.023 7.78385 298.867 7.94531C298.716 8.10677 298.492 8.1875 298.195 8.1875C297.898 8.1875 297.674 8.10677 297.523 7.94531C297.378 7.78385 297.305 7.58333 297.305 7.34375ZM315.664 12.0312H310.898L309.828 15H308.281L312.625 3.625H313.938L318.289 15H316.75L315.664 12.0312ZM311.352 10.7969H315.219L313.281 5.47656L311.352 10.7969ZM326.102 12.0312H321.336L320.266 15H318.719L323.062 3.625H324.375L328.727 15H327.188L326.102 12.0312ZM321.789 10.7969H325.656L323.719 5.47656L321.789 10.7969ZM338.531 11.3906C338.391 12.5938 337.945 13.5234 337.195 14.1797C336.451 14.8307 335.458 15.1562 334.219 15.1562C332.875 15.1562 331.797 14.6745 330.984 13.7109C330.177 12.7474 329.773 11.4583 329.773 9.84375V8.75C329.773 7.69271 329.961 6.76302 330.336 5.96094C330.716 5.15885 331.253 4.54427 331.945 4.11719C332.638 3.6849 333.44 3.46875 334.352 3.46875C335.56 3.46875 336.529 3.80729 337.258 4.48438C337.987 5.15625 338.411 6.08854 338.531 7.28125H337.023C336.893 6.375 336.609 5.71875 336.172 5.3125C335.74 4.90625 335.133 4.70312 334.352 4.70312C333.393 4.70312 332.641 5.05729 332.094 5.76562C331.552 6.47396 331.281 7.48177 331.281 8.78906V9.89062C331.281 11.125 331.539 12.1068 332.055 12.8359C332.57 13.5651 333.292 13.9297 334.219 13.9297C335.052 13.9297 335.69 13.7422 336.133 13.3672C336.581 12.987 336.878 12.3281 337.023 11.3906H338.531ZM348.984 13.5078C348.599 14.0599 348.06 14.474 347.367 14.75C346.68 15.0208 345.878 15.1562 344.961 15.1562C344.034 15.1562 343.211 14.9401 342.492 14.5078C341.773 14.0703 341.216 13.4505 340.82 12.6484C340.43 11.8464 340.229 10.9167 340.219 9.85938V8.86719C340.219 7.15365 340.617 5.82552 341.414 4.88281C342.216 3.9401 343.341 3.46875 344.789 3.46875C345.977 3.46875 346.932 3.77344 347.656 4.38281C348.38 4.98698 348.823 5.84635 348.984 6.96094H347.484C347.203 5.45573 346.307 4.70312 344.797 4.70312C343.792 4.70312 343.029 5.05729 342.508 5.76562C341.992 6.46875 341.732 7.48958 341.727 8.82812V9.75781C341.727 11.0339 342.018 12.0495 342.602 12.8047C343.185 13.5547 343.974 13.9297 344.969 13.9297C345.531 13.9297 346.023 13.8672 346.445 13.7422C346.867 13.6172 347.216 13.4062 347.492 13.1094V10.5547H344.859V9.33594H348.984V13.5078ZM359.352 4.85938H355.695V15H354.203V4.85938H350.555V3.625H359.352V4.85938ZM369.219 13.5078C368.833 14.0599 368.294 14.474 367.602 14.75C366.914 15.0208 366.112 15.1562 365.195 15.1562C364.268 15.1562 363.445 14.9401 362.727 14.5078C362.008 14.0703 361.451 13.4505 361.055 12.6484C360.664 11.8464 360.464 10.9167 360.453 9.85938V8.86719C360.453 7.15365 360.852 5.82552 361.648 4.88281C362.451 3.9401 363.576 3.46875 365.023 3.46875C366.211 3.46875 367.167 3.77344 367.891 4.38281C368.615 4.98698 369.057 5.84635 369.219 6.96094H367.719C367.438 5.45573 366.542 4.70312 365.031 4.70312C364.026 4.70312 363.263 5.05729 362.742 5.76562C362.227 6.46875 361.966 7.48958 361.961 8.82812V9.75781C361.961 11.0339 362.253 12.0495 362.836 12.8047C363.419 13.5547 364.208 13.9297 365.203 13.9297C365.766 13.9297 366.258 13.8672 366.68 13.7422C367.102 13.6172 367.451 13.4062 367.727 13.1094V10.5547H365.094V9.33594H369.219V13.5078ZM380.125 13.5078C379.74 14.0599 379.201 14.474 378.508 14.75C377.82 15.0208 377.018 15.1562 376.102 15.1562C375.174 15.1562 374.352 14.9401 373.633 14.5078C372.914 14.0703 372.357 13.4505 371.961 12.6484C371.57 11.8464 371.37 10.9167 371.359 9.85938V8.86719C371.359 7.15365 371.758 5.82552 372.555 4.88281C373.357 3.9401 374.482 3.46875 375.93 3.46875C377.117 3.46875 378.073 3.77344 378.797 4.38281C379.521 4.98698 379.964 5.84635 380.125 6.96094H378.625C378.344 5.45573 377.448 4.70312 375.938 4.70312C374.932 4.70312 374.169 5.05729 373.648 5.76562C373.133 6.46875 372.872 7.48958 372.867 8.82812V9.75781C372.867 11.0339 373.159 12.0495 373.742 12.8047C374.326 13.5547 375.115 13.9297 376.109 13.9297C376.672 13.9297 377.164 13.8672 377.586 13.7422C378.008 13.6172 378.357 13.4062 378.633 13.1094V10.5547H376V9.33594H380.125V13.5078ZM388.914 12.0312H384.148L383.078 15H381.531L385.875 3.625H387.188L391.539 15H390L388.914 12.0312ZM384.602 10.7969H388.469L386.531 5.47656L384.602 10.7969ZM401.344 11.3906C401.203 12.5938 400.758 13.5234 400.008 14.1797C399.263 14.8307 398.271 15.1562 397.031 15.1562C395.688 15.1562 394.609 14.6745 393.797 13.7109C392.99 12.7474 392.586 11.4583 392.586 9.84375V8.75C392.586 7.69271 392.773 6.76302 393.148 5.96094C393.529 5.15885 394.065 4.54427 394.758 4.11719C395.451 3.6849 396.253 3.46875 397.164 3.46875C398.372 3.46875 399.341 3.80729 400.07 4.48438C400.799 5.15625 401.224 6.08854 401.344 7.28125H399.836C399.706 6.375 399.422 5.71875 398.984 5.3125C398.552 4.90625 397.945 4.70312 397.164 4.70312C396.206 4.70312 395.453 5.05729 394.906 5.76562C394.365 6.47396 394.094 7.48177 394.094 8.78906V9.89062C394.094 11.125 394.352 12.1068 394.867 12.8359C395.383 13.5651 396.104 13.9297 397.031 13.9297C397.865 13.9297 398.503 13.7422 398.945 13.3672C399.393 12.987 399.69 12.3281 399.836 11.3906H401.344Z" fill="#C9D1D9"/>
<path d="M372 19H392" stroke="#C9D1D9" stroke-width="2"/>
<path d="M350 19H361" stroke="#C9D1D9" stroke-width="2"/>
<path d="M308 19H328" stroke="#C9D1D9" stroke-width="2"/>
</svg>
