<svg width="435" height="228" viewBox="0 0 435 228" fill="none" xmlns="http://www.w3.org/2000/svg">
<path d="M12.6953 29.9009H7.97119V44H5.77393V29.9009H1.0498V28.0454H12.6953V29.9009ZM20.6177 31.5244C20.87 31.5244 21.11 31.5773 21.3379 31.6831C21.5658 31.7808 21.7651 31.915 21.936 32.0859C22.1069 32.2568 22.2412 32.4562 22.3389 32.6841C22.4447 32.9119 22.4976 33.152 22.4976 33.4043C22.4976 33.6647 22.4447 33.9089 22.3389 34.1367C22.2412 34.3564 22.1069 34.5518 21.936 34.7227C21.7651 34.8936 21.5658 35.0278 21.3379 35.1255C21.11 35.2231 20.87 35.272 20.6177 35.272C20.3573 35.272 20.1131 35.2231 19.8853 35.1255C19.6655 35.0278 19.4702 34.8936 19.2993 34.7227C19.1284 34.5518 18.9941 34.3564 18.8965 34.1367C18.7988 33.9089 18.75 33.6647 18.75 33.4043C18.75 33.152 18.7988 32.9119 18.8965 32.6841C18.9941 32.4562 19.1284 32.2568 19.2993 32.0859C19.4702 31.915 19.6655 31.7808 19.8853 31.6831C20.1131 31.5773 20.3573 31.5244 20.6177 31.5244ZM20.6177 40.4722C20.87 40.4722 21.11 40.5251 21.3379 40.6309C21.5658 40.7285 21.7651 40.8628 21.936 41.0337C22.1069 41.2046 22.2412 41.404 22.3389 41.6318C22.4447 41.8597 22.4976 42.0998 22.4976 42.3521C22.4976 42.6125 22.4447 42.8566 22.3389 43.0845C22.2412 43.3042 22.1069 43.4995 21.936 43.6704C21.7651 43.8413 21.5658 43.9756 21.3379 44.0732C21.11 44.1709 20.87 44.2197 20.6177 44.2197C20.3573 44.2197 20.1131 44.1709 19.8853 44.0732C19.6655 43.9756 19.4702 43.8413 19.2993 43.6704C19.1284 43.4995 18.9941 43.3042 18.8965 43.0845C18.7988 42.8566 18.75 42.6125 18.75 42.3521C18.75 42.0998 18.7988 41.8597 18.8965 41.6318C18.9941 41.404 19.1284 41.2046 19.2993 41.0337C19.4702 40.8628 19.6655 40.7285 19.8853 40.6309C20.1131 40.5251 20.3573 40.4722 20.6177 40.4722ZM53.3813 43.4019C52.1037 43.9308 50.765 44.1953 49.3652 44.1953C47.111 44.1953 45.3776 43.5239 44.165 42.1812C42.9606 40.8302 42.3584 38.8364 42.3584 36.1997C42.3584 34.922 42.5252 33.7664 42.8589 32.7329C43.1925 31.6994 43.6686 30.8245 44.2871 30.1084C44.9056 29.3841 45.6543 28.8267 46.5332 28.436C47.4121 28.0454 48.3968 27.8501 49.4873 27.8501C50.2279 27.8501 50.9155 27.9152 51.5503 28.0454C52.1851 28.1675 52.7954 28.3587 53.3813 28.6191V30.7554C52.8035 30.438 52.2054 30.1979 51.5869 30.0352C50.9684 29.8643 50.293 29.7788 49.5605 29.7788C48.8118 29.7788 48.1323 29.9212 47.522 30.2061C46.9198 30.4827 46.4071 30.8896 45.9839 31.4268C45.5607 31.9557 45.2352 32.6068 45.0073 33.3799C44.7795 34.1449 44.6655 35.0197 44.6655 36.0044C44.6655 38.0715 45.0846 39.6299 45.9229 40.6797C46.7611 41.7295 47.9899 42.2544 49.6094 42.2544C50.293 42.2544 50.9481 42.1771 51.5747 42.0225C52.2013 41.8597 52.8035 41.6359 53.3813 41.3511V43.4019ZM67.2607 30.7798C66.6667 30.4624 66.0563 30.2183 65.4297 30.0474C64.8031 29.8683 64.1195 29.7788 63.3789 29.7788C62.5326 29.7788 61.7798 29.9294 61.1206 30.2305C60.4614 30.5316 59.904 30.9588 59.4482 31.5122C59.0007 32.0575 58.6548 32.7166 58.4106 33.4897C58.1746 34.2629 58.0566 35.1174 58.0566 36.0532C58.0566 37.0298 58.1543 37.9046 58.3496 38.6777C58.5449 39.4508 58.8501 40.106 59.2651 40.6431C59.6802 41.1802 60.2091 41.5911 60.8521 41.876C61.5031 42.1608 62.2803 42.3032 63.1836 42.3032C63.3382 42.3032 63.505 42.2951 63.6841 42.2788C63.8631 42.2625 64.0422 42.2422 64.2212 42.2178C64.4002 42.1852 64.5711 42.1486 64.7339 42.1079C64.9048 42.0672 65.0553 42.0225 65.1855 41.9736V36.8955H61.9263V35.1011H67.334V43.2554C67.0003 43.41 66.6463 43.5483 66.272 43.6704C65.9058 43.7925 65.5273 43.8942 65.1367 43.9756C64.7542 44.057 64.3717 44.118 63.9893 44.1587C63.6068 44.1994 63.2365 44.2197 62.8784 44.2197C61.7879 44.2197 60.8032 44.0488 59.9243 43.707C59.0535 43.3652 58.3089 42.8607 57.6904 42.1934C57.0801 41.5179 56.6081 40.6797 56.2744 39.6787C55.9489 38.6777 55.7861 37.5181 55.7861 36.1997C55.7861 34.8895 55.9692 33.7176 56.3354 32.6841C56.7017 31.6424 57.2144 30.7635 57.8735 30.0474C58.5409 29.3231 59.3384 28.7738 60.2661 28.3994C61.202 28.0169 62.2314 27.8257 63.3545 27.8257C64.0706 27.8257 64.7502 27.8908 65.3931 28.021C66.0441 28.1431 66.6667 28.3424 67.2607 28.6191V30.7798ZM81.4209 29.9009H76.6968V44H74.4995V29.9009H69.7754V28.0454H81.4209V29.9009ZM94.751 30.7798C94.1569 30.4624 93.5465 30.2183 92.9199 30.0474C92.2933 29.8683 91.6097 29.7788 90.8691 29.7788C90.0228 29.7788 89.27 29.9294 88.6108 30.2305C87.9517 30.5316 87.3942 30.9588 86.9385 31.5122C86.4909 32.0575 86.145 32.7166 85.9009 33.4897C85.6649 34.2629 85.5469 35.1174 85.5469 36.0532C85.5469 37.0298 85.6445 37.9046 85.8398 38.6777C86.0352 39.4508 86.3403 40.106 86.7554 40.6431C87.1704 41.1802 87.6994 41.5911 88.3423 41.876C88.9933 42.1608 89.7705 42.3032 90.6738 42.3032C90.8285 42.3032 90.9953 42.2951 91.1743 42.2788C91.3534 42.2625 91.5324 42.2422 91.7114 42.2178C91.8905 42.1852 92.0614 42.1486 92.2241 42.1079C92.395 42.0672 92.5456 42.0225 92.6758 41.9736V36.8955H89.4165V35.1011H94.8242V43.2554C94.4906 43.41 94.1366 43.5483 93.7622 43.6704C93.396 43.7925 93.0176 43.8942 92.627 43.9756C92.2445 44.057 91.862 44.118 91.4795 44.1587C91.097 44.1994 90.7267 44.2197 90.3687 44.2197C89.2782 44.2197 88.2935 44.0488 87.4146 43.707C86.5438 43.3652 85.7992 42.8607 85.1807 42.1934C84.5703 41.5179 84.0983 40.6797 83.7646 39.6787C83.4391 38.6777 83.2764 37.5181 83.2764 36.1997C83.2764 34.8895 83.4595 33.7176 83.8257 32.6841C84.1919 31.6424 84.7046 30.7635 85.3638 30.0474C86.0311 29.3231 86.8286 28.7738 87.7563 28.3994C88.6922 28.0169 89.7217 27.8257 90.8447 27.8257C91.5609 27.8257 92.2404 27.8908 92.8833 28.021C93.5343 28.1431 94.1569 28.3424 94.751 28.6191V30.7798ZM108.362 43.4019C107.084 43.9308 105.745 44.1953 104.346 44.1953C102.091 44.1953 100.358 43.5239 99.1455 42.1812C97.9411 40.8302 97.3389 38.8364 97.3389 36.1997C97.3389 34.922 97.5057 33.7664 97.8394 32.7329C98.173 31.6994 98.6491 30.8245 99.2676 30.1084C99.8861 29.3841 100.635 28.8267 101.514 28.436C102.393 28.0454 103.377 27.8501 104.468 27.8501C105.208 27.8501 105.896 27.9152 106.531 28.0454C107.166 28.1675 107.776 28.3587 108.362 28.6191V30.7554C107.784 30.438 107.186 30.1979 106.567 30.0352C105.949 29.8643 105.273 29.7788 104.541 29.7788C103.792 29.7788 103.113 29.9212 102.502 30.2061C101.9 30.4827 101.388 30.8896 100.964 31.4268C100.541 31.9557 100.216 32.6068 99.9878 33.3799C99.7599 34.1449 99.646 35.0197 99.646 36.0044C99.646 38.0715 100.065 39.6299 100.903 40.6797C101.742 41.7295 102.97 42.2544 104.59 42.2544C105.273 42.2544 105.929 42.1771 106.555 42.0225C107.182 41.8597 107.784 41.6359 108.362 41.3511V43.4019ZM122.241 30.7798C121.647 30.4624 121.037 30.2183 120.41 30.0474C119.784 29.8683 119.1 29.7788 118.359 29.7788C117.513 29.7788 116.76 29.9294 116.101 30.2305C115.442 30.5316 114.884 30.9588 114.429 31.5122C113.981 32.0575 113.635 32.7166 113.391 33.4897C113.155 34.2629 113.037 35.1174 113.037 36.0532C113.037 37.0298 113.135 37.9046 113.33 38.6777C113.525 39.4508 113.831 40.106 114.246 40.6431C114.661 41.1802 115.19 41.5911 115.833 41.876C116.484 42.1608 117.261 42.3032 118.164 42.3032C118.319 42.3032 118.486 42.2951 118.665 42.2788C118.844 42.2625 119.023 42.2422 119.202 42.2178C119.381 42.1852 119.552 42.1486 119.714 42.1079C119.885 42.0672 120.036 42.0225 120.166 41.9736V36.8955H116.907V35.1011H122.314V43.2554C121.981 43.41 121.627 43.5483 121.252 43.6704C120.886 43.7925 120.508 43.8942 120.117 43.9756C119.735 44.057 119.352 44.118 118.97 44.1587C118.587 44.1994 118.217 44.2197 117.859 44.2197C116.768 44.2197 115.784 44.0488 114.905 43.707C114.034 43.3652 113.289 42.8607 112.671 42.1934C112.061 41.5179 111.589 40.6797 111.255 39.6787C110.929 38.6777 110.767 37.5181 110.767 36.1997C110.767 34.8895 110.95 33.7176 111.316 32.6841C111.682 31.6424 112.195 30.7635 112.854 30.0474C113.521 29.3231 114.319 28.7738 115.247 28.3994C116.182 28.0169 117.212 27.8257 118.335 27.8257C119.051 27.8257 119.731 27.8908 120.374 28.021C121.025 28.1431 121.647 28.3424 122.241 28.6191V30.7798ZM136.401 29.9009H131.677V44H129.48V29.9009H124.756V28.0454H136.401V29.9009ZM149.731 30.7798C149.137 30.4624 148.527 30.2183 147.9 30.0474C147.274 29.8683 146.59 29.7788 145.85 29.7788C145.003 29.7788 144.25 29.9294 143.591 30.2305C142.932 30.5316 142.375 30.9588 141.919 31.5122C141.471 32.0575 141.125 32.7166 140.881 33.4897C140.645 34.2629 140.527 35.1174 140.527 36.0532C140.527 37.0298 140.625 37.9046 140.82 38.6777C141.016 39.4508 141.321 40.106 141.736 40.6431C142.151 41.1802 142.68 41.5911 143.323 41.876C143.974 42.1608 144.751 42.3032 145.654 42.3032C145.809 42.3032 145.976 42.2951 146.155 42.2788C146.334 42.2625 146.513 42.2422 146.692 42.2178C146.871 42.1852 147.042 42.1486 147.205 42.1079C147.375 42.0672 147.526 42.0225 147.656 41.9736V36.8955H144.397V35.1011H149.805V43.2554C149.471 43.41 149.117 43.5483 148.743 43.6704C148.376 43.7925 147.998 43.8942 147.607 43.9756C147.225 44.057 146.842 44.118 146.46 44.1587C146.077 44.1994 145.707 44.2197 145.349 44.2197C144.259 44.2197 143.274 44.0488 142.395 43.707C141.524 43.3652 140.78 42.8607 140.161 42.1934C139.551 41.5179 139.079 40.6797 138.745 39.6787C138.42 38.6777 138.257 37.5181 138.257 36.1997C138.257 34.8895 138.44 33.7176 138.806 32.6841C139.172 31.6424 139.685 30.7635 140.344 30.0474C141.012 29.3231 141.809 28.7738 142.737 28.3994C143.673 28.0169 144.702 27.8257 145.825 27.8257C146.541 27.8257 147.221 27.8908 147.864 28.021C148.515 28.1431 149.137 28.3424 149.731 28.6191V30.7798ZM163.342 43.4019C162.065 43.9308 160.726 44.1953 159.326 44.1953C157.072 44.1953 155.339 43.5239 154.126 42.1812C152.922 40.8302 152.319 38.8364 152.319 36.1997C152.319 34.922 152.486 33.7664 152.82 32.7329C153.153 31.6994 153.63 30.8245 154.248 30.1084C154.867 29.3841 155.615 28.8267 156.494 28.436C157.373 28.0454 158.358 27.8501 159.448 27.8501C160.189 27.8501 160.876 27.9152 161.511 28.0454C162.146 28.1675 162.756 28.3587 163.342 28.6191V30.7554C162.764 30.438 162.166 30.1979 161.548 30.0352C160.929 29.8643 160.254 29.7788 159.521 29.7788C158.773 29.7788 158.093 29.9212 157.483 30.2061C156.881 30.4827 156.368 30.8896 155.945 31.4268C155.522 31.9557 155.196 32.6068 154.968 33.3799C154.74 34.1449 154.626 35.0197 154.626 36.0044C154.626 38.0715 155.046 39.6299 155.884 40.6797C156.722 41.7295 157.951 42.2544 159.57 42.2544C160.254 42.2544 160.909 42.1771 161.536 42.0225C162.162 41.8597 162.764 41.6359 163.342 41.3511V43.4019ZM177.637 29.9009H172.913V44H170.715V29.9009H165.991V28.0454H177.637V29.9009ZM191.382 29.9009H186.658V44H184.46V29.9009H179.736V28.0454H191.382V29.9009ZM12.4023 61.9282C12.4023 62.5793 12.2803 63.2262 12.0361 63.8691C11.792 64.5039 11.4136 65.0736 10.9009 65.5781C10.3882 66.0827 9.73307 66.4937 8.93555 66.811C8.13802 67.1203 7.18587 67.2749 6.0791 67.2749H4.10156V73H1.92871V57.0454H6.4209C7.21029 57.0454 7.96712 57.1349 8.69141 57.314C9.41569 57.4849 10.0505 57.7656 10.5957 58.1562C11.1491 58.5469 11.5885 59.0514 11.9141 59.6699C12.2396 60.2884 12.4023 61.0412 12.4023 61.9282ZM10.144 62.0259C10.144 61.0005 9.80632 60.2152 9.13086 59.6699C8.46354 59.1247 7.52767 58.8521 6.32324 58.8521H4.10156V65.4194H6.12793C7.41374 65.4194 8.40251 65.1387 9.09424 64.5771C9.79411 64.0156 10.144 63.1652 10.144 62.0259ZM20.6177 60.5244C20.87 60.5244 21.11 60.5773 21.3379 60.6831C21.5658 60.7808 21.7651 60.915 21.936 61.0859C22.1069 61.2568 22.2412 61.4562 22.3389 61.6841C22.4447 61.9119 22.4976 62.152 22.4976 62.4043C22.4976 62.6647 22.4447 62.9089 22.3389 63.1367C22.2412 63.3564 22.1069 63.5518 21.936 63.7227C21.7651 63.8936 21.5658 64.0278 21.3379 64.1255C21.11 64.2231 20.87 64.272 20.6177 64.272C20.3573 64.272 20.1131 64.2231 19.8853 64.1255C19.6655 64.0278 19.4702 63.8936 19.2993 63.7227C19.1284 63.5518 18.9941 63.3564 18.8965 63.1367C18.7988 62.9089 18.75 62.6647 18.75 62.4043C18.75 62.152 18.7988 61.9119 18.8965 61.6841C18.9941 61.4562 19.1284 61.2568 19.2993 61.0859C19.4702 60.915 19.6655 60.7808 19.8853 60.6831C20.1131 60.5773 20.3573 60.5244 20.6177 60.5244ZM20.6177 69.4722C20.87 69.4722 21.11 69.5251 21.3379 69.6309C21.5658 69.7285 21.7651 69.8628 21.936 70.0337C22.1069 70.2046 22.2412 70.404 22.3389 70.6318C22.4447 70.8597 22.4976 71.0998 22.4976 71.3521C22.4976 71.6125 22.4447 71.8566 22.3389 72.0845C22.2412 72.3042 22.1069 72.4995 21.936 72.6704C21.7651 72.8413 21.5658 72.9756 21.3379 73.0732C21.11 73.1709 20.87 73.2197 20.6177 73.2197C20.3573 73.2197 20.1131 73.1709 19.8853 73.0732C19.6655 72.9756 19.4702 72.8413 19.2993 72.6704C19.1284 72.4995 18.9941 72.3042 18.8965 72.0845C18.7988 71.8566 18.75 71.6125 18.75 71.3521C18.75 71.0998 18.7988 70.8597 18.8965 70.6318C18.9941 70.404 19.1284 70.2046 19.2993 70.0337C19.4702 69.8628 19.6655 69.7285 19.8853 69.6309C20.1131 69.5251 20.3573 69.4722 20.6177 69.4722ZM53.5156 59.7798C52.9215 59.4624 52.3112 59.2183 51.6846 59.0474C51.0579 58.8683 50.3743 58.7788 49.6338 58.7788C48.7874 58.7788 48.0347 58.9294 47.3755 59.2305C46.7163 59.5316 46.1589 59.9588 45.7031 60.5122C45.2555 61.0575 44.9097 61.7166 44.6655 62.4897C44.4295 63.2629 44.3115 64.1174 44.3115 65.0532C44.3115 66.0298 44.4092 66.9046 44.6045 67.6777C44.7998 68.4508 45.105 69.106 45.52 69.6431C45.9351 70.1802 46.464 70.5911 47.1069 70.876C47.758 71.1608 48.5352 71.3032 49.4385 71.3032C49.5931 71.3032 49.7599 71.2951 49.939 71.2788C50.118 71.2625 50.297 71.2422 50.4761 71.2178C50.6551 71.1852 50.826 71.1486 50.9888 71.1079C51.1597 71.0672 51.3102 71.0225 51.4404 70.9736V65.8955H48.1812V64.1011H53.5889V72.2554C53.2552 72.41 52.9012 72.5483 52.5269 72.6704C52.1606 72.7925 51.7822 72.8942 51.3916 72.9756C51.0091 73.057 50.6266 73.118 50.2441 73.1587C49.8617 73.1994 49.4914 73.2197 49.1333 73.2197C48.0428 73.2197 47.0581 73.0488 46.1792 72.707C45.3084 72.3652 44.5638 71.8607 43.9453 71.1934C43.335 70.5179 42.863 69.6797 42.5293 68.6787C42.2038 67.6777 42.041 66.5181 42.041 65.1997C42.041 63.8895 42.2241 62.7176 42.5903 61.6841C42.9565 60.6424 43.4692 59.7635 44.1284 59.0474C44.7957 58.3231 45.5933 57.7738 46.521 57.3994C47.4569 57.0169 48.4863 56.8257 49.6094 56.8257C50.3255 56.8257 51.005 56.8908 51.6479 57.021C52.299 57.1431 52.9215 57.3424 53.5156 57.6191V59.7798ZM67.1265 72.4019C65.8488 72.9308 64.5101 73.1953 63.1104 73.1953C60.8561 73.1953 59.1227 72.5239 57.9102 71.1812C56.7057 69.8302 56.1035 67.8364 56.1035 65.1997C56.1035 63.922 56.2703 62.7664 56.604 61.7329C56.9377 60.6994 57.4137 59.8245 58.0322 59.1084C58.6507 58.3841 59.3994 57.8267 60.2783 57.436C61.1572 57.0454 62.1419 56.8501 63.2324 56.8501C63.973 56.8501 64.6606 56.9152 65.2954 57.0454C65.9302 57.1675 66.5405 57.3587 67.1265 57.6191V59.7554C66.5487 59.438 65.9505 59.1979 65.332 59.0352C64.7135 58.8643 64.0381 58.7788 63.3057 58.7788C62.557 58.7788 61.8774 58.9212 61.2671 59.2061C60.6649 59.4827 60.1522 59.8896 59.729 60.4268C59.3058 60.9557 58.9803 61.6068 58.7524 62.3799C58.5246 63.1449 58.4106 64.0197 58.4106 65.0044C58.4106 67.0715 58.8298 68.6299 59.668 69.6797C60.5062 70.7295 61.735 71.2544 63.3545 71.2544C64.0381 71.2544 64.6932 71.1771 65.3198 71.0225C65.9465 70.8597 66.5487 70.6359 67.1265 70.3511V72.4019ZM81.0059 59.7798C80.4118 59.4624 79.8014 59.2183 79.1748 59.0474C78.5482 58.8683 77.8646 58.7788 77.124 58.7788C76.2777 58.7788 75.5249 58.9294 74.8657 59.2305C74.2065 59.5316 73.6491 59.9588 73.1934 60.5122C72.7458 61.0575 72.3999 61.7166 72.1558 62.4897C71.9198 63.2629 71.8018 64.1174 71.8018 65.0532C71.8018 66.0298 71.8994 66.9046 72.0947 67.6777C72.29 68.4508 72.5952 69.106 73.0103 69.6431C73.4253 70.1802 73.9543 70.5911 74.5972 70.876C75.2482 71.1608 76.0254 71.3032 76.9287 71.3032C77.0833 71.3032 77.2502 71.2951 77.4292 71.2788C77.6082 71.2625 77.7873 71.2422 77.9663 71.2178C78.1453 71.1852 78.3162 71.1486 78.479 71.1079C78.6499 71.0672 78.8005 71.0225 78.9307 70.9736V65.8955H75.6714V64.1011H81.0791V72.2554C80.7454 72.41 80.3914 72.5483 80.0171 72.6704C79.6509 72.7925 79.2725 72.8942 78.8818 72.9756C78.4993 73.057 78.1169 73.118 77.7344 73.1587C77.3519 73.1994 76.9816 73.2197 76.6235 73.2197C75.533 73.2197 74.5483 73.0488 73.6694 72.707C72.7987 72.3652 72.054 71.8607 71.4355 71.1934C70.8252 70.5179 70.3532 69.6797 70.0195 68.6787C69.694 67.6777 69.5312 66.5181 69.5312 65.1997C69.5312 63.8895 69.7144 62.7176 70.0806 61.6841C70.4468 60.6424 70.9595 59.7635 71.6187 59.0474C72.286 58.3231 73.0835 57.7738 74.0112 57.3994C74.9471 57.0169 75.9766 56.8257 77.0996 56.8257C77.8158 56.8257 78.4953 56.8908 79.1382 57.021C79.7892 57.1431 80.4118 57.3424 81.0059 57.6191V59.7798ZM95.166 58.9009H90.4419V73H88.2446V58.9009H83.5205V57.0454H95.166V58.9009ZM109.839 73H107.471L106.36 69.521H99.7192L98.5962 73H96.3379L101.636 57.0454H104.614L109.839 73ZM105.737 67.5801L103.04 59.0474L100.342 67.5801H105.737ZM122.107 72.4019C120.829 72.9308 119.491 73.1953 118.091 73.1953C115.837 73.1953 114.103 72.5239 112.891 71.1812C111.686 69.8302 111.084 67.8364 111.084 65.1997C111.084 63.922 111.251 62.7664 111.584 61.7329C111.918 60.6994 112.394 59.8245 113.013 59.1084C113.631 58.3841 114.38 57.8267 115.259 57.436C116.138 57.0454 117.122 56.8501 118.213 56.8501C118.953 56.8501 119.641 56.9152 120.276 57.0454C120.911 57.1675 121.521 57.3587 122.107 57.6191V59.7554C121.529 59.438 120.931 59.1979 120.312 59.0352C119.694 58.8643 119.019 58.7788 118.286 58.7788C117.537 58.7788 116.858 58.9212 116.248 59.2061C115.645 59.4827 115.133 59.8896 114.709 60.4268C114.286 60.9557 113.961 61.6068 113.733 62.3799C113.505 63.1449 113.391 64.0197 113.391 65.0044C113.391 67.0715 113.81 68.6299 114.648 69.6797C115.487 70.7295 116.715 71.2544 118.335 71.2544C119.019 71.2544 119.674 71.1771 120.3 71.0225C120.927 70.8597 121.529 70.6359 122.107 70.3511V72.4019ZM136.401 58.9009H131.677V73H129.48V58.9009H124.756V57.0454H136.401V58.9009Z" fill="#C9D1D9"/>
<g filter="url(#filter0_i)">
<g filter="url(#filter1_d)">
<rect x="242" width="188.391" height="220" rx="10" fill="#FF7F50"/>
<rect x="242" width="188.391" height="220" rx="10" fill="url(#paint0_linear)" fill-opacity="0.5"/>
</g>
<path d="M282.484 28V26.8281H284.641V17.8672H282.484V16.7031H288.359V17.8672H286.211V26.8281H288.359V28H282.484ZM291.547 28V16.7031H292.742L299.211 25.7344V16.7031H300.594V28H299.195L292.93 19.375V28H291.547ZM305.578 26.8281H308.344C309.479 26.8281 310.237 26.6172 310.617 26.1953C311.003 25.7734 311.195 25.1719 311.195 24.3906V20.4141C311.195 19.263 310.81 18.5156 310.039 18.1719C309.602 17.974 309.036 17.8776 308.344 17.8828H305.578V26.8281ZM304 28V16.7031H308.484C310.646 16.7031 311.995 17.4688 312.531 19C312.688 19.4479 312.766 19.9505 312.766 20.5078V24.2344C312.766 25.4688 312.409 26.4062 311.695 27.0469C310.987 27.6823 309.922 28 308.5 28H304ZM315.891 28V16.7031H322.945V17.875H317.461V21.5938H322.305V22.7656H317.461V26.8281H323.039V28H315.891ZM325.703 28V16.7031H327.273V22.8672C328.112 21.8516 329.112 20.6849 330.273 19.3672C331.44 18.0495 332.221 17.1615 332.617 16.7031H334.32L330.078 21.7656L334.547 28H332.805L328.977 22.6094L327.273 24.3438V28H325.703ZM344.172 24.8281C344.172 27.0573 342.94 28.1719 340.477 28.1719C338.841 28.1719 337.417 27.8203 336.203 27.1172L336.758 25.9141C337.227 26.1901 337.794 26.4245 338.461 26.6172C339.133 26.8099 339.784 26.9062 340.414 26.9062C341.049 26.9062 341.529 26.8255 341.852 26.6641C342.43 26.3724 342.719 25.7786 342.719 24.8828C342.719 24.513 342.701 24.2656 342.664 24.1406C342.544 23.724 342.104 23.3958 341.344 23.1562L338.617 22.25C337.737 21.9635 337.148 21.6016 336.852 21.1641C336.56 20.7214 336.414 20.1562 336.414 19.4688C336.419 18.4792 336.781 17.724 337.5 17.2031C338.12 16.7604 339.021 16.5365 340.203 16.5312C341.885 16.5312 343.148 16.7943 343.992 17.3203L343.609 18.5469C342.682 18.0469 341.638 17.7969 340.477 17.7969C339.669 17.7969 339.055 17.901 338.633 18.1094C338.211 18.3177 337.984 18.6536 337.953 19.1172C337.943 19.263 337.938 19.3932 337.938 19.5078C337.938 19.8828 338.016 20.1719 338.172 20.375C338.333 20.5781 338.643 20.7578 339.102 20.9141L341.945 21.875C342.727 22.1406 343.292 22.4896 343.641 22.9219C343.995 23.349 344.172 23.9844 344.172 24.8281ZM355.367 26.9062C356.398 26.9062 357.148 26.7422 357.617 26.4141C358.086 26.0807 358.32 25.4245 358.32 24.4453V20.3594C358.32 19.3802 358.083 18.7083 357.609 18.3438C357.141 17.9792 356.396 17.7969 355.375 17.7969C353.792 17.7969 352.831 18.2344 352.492 19.1094C352.362 19.4427 352.297 19.8594 352.297 20.3594V24.4453C352.297 25.4193 352.552 26.0729 353.062 26.4062C353.573 26.7396 354.341 26.9062 355.367 26.9062ZM352.477 27.6562C351.794 27.3125 351.331 26.8516 351.086 26.2734C350.841 25.6953 350.719 25.0052 350.719 24.2031V20.6484C350.719 19.0286 351.177 17.9062 352.094 17.2812C352.833 16.7812 353.927 16.5312 355.375 16.5312C357.938 16.5312 359.404 17.4844 359.773 19.3906C359.852 19.7917 359.891 20.2448 359.891 20.75V24.0938C359.891 25.6667 359.44 26.7708 358.539 27.4062C357.815 27.9167 356.794 28.1719 355.477 28.1719C354.159 28.1719 353.159 28 352.477 27.6562ZM364.625 26.8281H367.391C368.526 26.8281 369.284 26.6172 369.664 26.1953C370.049 25.7734 370.242 25.1719 370.242 24.3906V20.4141C370.242 19.263 369.857 18.5156 369.086 18.1719C368.648 17.974 368.083 17.8776 367.391 17.8828H364.625V26.8281ZM363.047 28V16.7031H367.531C369.693 16.7031 371.042 17.4688 371.578 19C371.734 19.4479 371.812 19.9505 371.812 20.5078V24.2344C371.812 25.4688 371.456 26.4062 370.742 27.0469C370.034 27.6823 368.969 28 367.547 28H363.047ZM381.148 28V17.9922H377.891V16.7031H385.984V17.9922H382.719V28H381.148Z" fill="#C9D1D9"/>
</g>
<g filter="url(#filter2_d)">
<path d="M280.717 67.5215C279.695 67.9447 278.624 68.1562 277.504 68.1562C275.701 68.1562 274.314 67.6191 273.344 66.5449C272.38 65.4642 271.898 63.8691 271.898 61.7598C271.898 60.7376 272.032 59.8132 272.299 58.9863C272.566 58.1595 272.947 57.4596 273.441 56.8867C273.936 56.3073 274.535 55.8613 275.238 55.5488C275.941 55.2363 276.729 55.0801 277.602 55.0801C278.194 55.0801 278.744 55.1322 279.252 55.2363C279.76 55.334 280.248 55.487 280.717 55.6953V57.4043C280.255 57.1504 279.776 56.9583 279.281 56.8281C278.786 56.6914 278.246 56.623 277.66 56.623C277.061 56.623 276.518 56.737 276.029 56.9648C275.548 57.1862 275.137 57.5117 274.799 57.9414C274.46 58.3646 274.2 58.8854 274.018 59.5039C273.835 60.1159 273.744 60.8158 273.744 61.6035C273.744 63.2572 274.079 64.5039 274.75 65.3438C275.421 66.1836 276.404 66.6035 277.699 66.6035C278.246 66.6035 278.77 66.5417 279.271 66.418C279.773 66.2878 280.255 66.1087 280.717 65.8809V67.5215ZM291.82 57.4238C291.345 57.1699 290.857 56.9746 290.355 56.8379C289.854 56.6947 289.307 56.623 288.715 56.623C288.038 56.623 287.436 56.7435 286.908 56.9844C286.381 57.2253 285.935 57.5671 285.57 58.0098C285.212 58.446 284.936 58.9733 284.74 59.5918C284.551 60.2103 284.457 60.8939 284.457 61.6426C284.457 62.4238 284.535 63.1237 284.691 63.7422C284.848 64.3607 285.092 64.8848 285.424 65.3145C285.756 65.7441 286.179 66.0729 286.693 66.3008C287.214 66.5286 287.836 66.6426 288.559 66.6426C288.682 66.6426 288.816 66.6361 288.959 66.623C289.102 66.61 289.245 66.5938 289.389 66.5742C289.532 66.5482 289.669 66.5189 289.799 66.4863C289.936 66.4538 290.056 66.418 290.16 66.3789V62.3164H287.553V60.8809H291.879V67.4043C291.612 67.528 291.329 67.6387 291.029 67.7363C290.736 67.834 290.434 67.9154 290.121 67.9805C289.815 68.0456 289.509 68.0944 289.203 68.127C288.897 68.1595 288.601 68.1758 288.314 68.1758C287.442 68.1758 286.654 68.0391 285.951 67.7656C285.255 67.4922 284.659 67.0885 284.164 66.5547C283.676 66.0143 283.298 65.3438 283.031 64.543C282.771 63.7422 282.641 62.8145 282.641 61.7598C282.641 60.7116 282.787 59.7741 283.08 58.9473C283.373 58.1139 283.783 57.4108 284.311 56.8379C284.844 56.2585 285.482 55.819 286.225 55.5195C286.973 55.2135 287.797 55.0605 288.695 55.0605C289.268 55.0605 289.812 55.1126 290.326 55.2168C290.847 55.3145 291.345 55.474 291.82 55.6953V57.4238ZM302.816 57.4238C302.341 57.1699 301.853 56.9746 301.352 56.8379C300.85 56.6947 300.303 56.623 299.711 56.623C299.034 56.623 298.432 56.7435 297.904 56.9844C297.377 57.2253 296.931 57.5671 296.566 58.0098C296.208 58.446 295.932 58.9733 295.736 59.5918C295.548 60.2103 295.453 60.8939 295.453 61.6426C295.453 62.4238 295.531 63.1237 295.688 63.7422C295.844 64.3607 296.088 64.8848 296.42 65.3145C296.752 65.7441 297.175 66.0729 297.689 66.3008C298.21 66.5286 298.832 66.6426 299.555 66.6426C299.678 66.6426 299.812 66.6361 299.955 66.623C300.098 66.61 300.242 66.5938 300.385 66.5742C300.528 66.5482 300.665 66.5189 300.795 66.4863C300.932 66.4538 301.052 66.418 301.156 66.3789V62.3164H298.549V60.8809H302.875V67.4043C302.608 67.528 302.325 67.6387 302.025 67.7363C301.732 67.834 301.43 67.9154 301.117 67.9805C300.811 68.0456 300.505 68.0944 300.199 68.127C299.893 68.1595 299.597 68.1758 299.311 68.1758C298.438 68.1758 297.65 68.0391 296.947 67.7656C296.251 67.4922 295.655 67.0885 295.16 66.5547C294.672 66.0143 294.294 65.3438 294.027 64.543C293.767 63.7422 293.637 62.8145 293.637 61.7598C293.637 60.7116 293.783 59.7741 294.076 58.9473C294.369 58.1139 294.779 57.4108 295.307 56.8379C295.84 56.2585 296.479 55.819 297.221 55.5195C297.969 55.2135 298.793 55.0605 299.691 55.0605C300.264 55.0605 300.808 55.1126 301.322 55.2168C301.843 55.3145 302.341 55.474 302.816 55.6953V57.4238ZM313.812 57.4238C313.337 57.1699 312.849 56.9746 312.348 56.8379C311.846 56.6947 311.299 56.623 310.707 56.623C310.03 56.623 309.428 56.7435 308.9 56.9844C308.373 57.2253 307.927 57.5671 307.562 58.0098C307.204 58.446 306.928 58.9733 306.732 59.5918C306.544 60.2103 306.449 60.8939 306.449 61.6426C306.449 62.4238 306.527 63.1237 306.684 63.7422C306.84 64.3607 307.084 64.8848 307.416 65.3145C307.748 65.7441 308.171 66.0729 308.686 66.3008C309.206 66.5286 309.828 66.6426 310.551 66.6426C310.674 66.6426 310.808 66.6361 310.951 66.623C311.094 66.61 311.238 66.5938 311.381 66.5742C311.524 66.5482 311.661 66.5189 311.791 66.4863C311.928 66.4538 312.048 66.418 312.152 66.3789V62.3164H309.545V60.8809H313.871V67.4043C313.604 67.528 313.321 67.6387 313.021 67.7363C312.729 67.834 312.426 67.9154 312.113 67.9805C311.807 68.0456 311.501 68.0944 311.195 68.127C310.889 68.1595 310.593 68.1758 310.307 68.1758C309.434 68.1758 308.646 68.0391 307.943 67.7656C307.247 67.4922 306.651 67.0885 306.156 66.5547C305.668 66.0143 305.29 65.3438 305.023 64.543C304.763 63.7422 304.633 62.8145 304.633 61.7598C304.633 60.7116 304.779 59.7741 305.072 58.9473C305.365 58.1139 305.775 57.4108 306.303 56.8379C306.837 56.2585 307.475 55.819 308.217 55.5195C308.965 55.2135 309.789 55.0605 310.688 55.0605C311.26 55.0605 311.804 55.1126 312.318 55.2168C312.839 55.3145 313.337 55.474 313.812 55.6953V57.4238ZM325.141 56.7207H321.361V68H319.604V56.7207H315.824V55.2363H325.141V56.7207ZM331.479 58.0195C331.68 58.0195 331.872 58.0618 332.055 58.1465C332.237 58.2246 332.396 58.332 332.533 58.4688C332.67 58.6055 332.777 58.765 332.855 58.9473C332.94 59.1296 332.982 59.3216 332.982 59.5234C332.982 59.7318 332.94 59.9271 332.855 60.1094C332.777 60.2852 332.67 60.4414 332.533 60.5781C332.396 60.7148 332.237 60.8223 332.055 60.9004C331.872 60.9785 331.68 61.0176 331.479 61.0176C331.27 61.0176 331.075 60.9785 330.893 60.9004C330.717 60.8223 330.561 60.7148 330.424 60.5781C330.287 60.4414 330.18 60.2852 330.102 60.1094C330.023 59.9271 329.984 59.7318 329.984 59.5234C329.984 59.3216 330.023 59.1296 330.102 58.9473C330.18 58.765 330.287 58.6055 330.424 58.4688C330.561 58.332 330.717 58.2246 330.893 58.1465C331.075 58.0618 331.27 58.0195 331.479 58.0195ZM331.479 65.1777C331.68 65.1777 331.872 65.2201 332.055 65.3047C332.237 65.3828 332.396 65.4902 332.533 65.627C332.67 65.7637 332.777 65.9232 332.855 66.1055C332.94 66.2878 332.982 66.4798 332.982 66.6816C332.982 66.89 332.94 67.0853 332.855 67.2676C332.777 67.4434 332.67 67.5996 332.533 67.7363C332.396 67.873 332.237 67.9805 332.055 68.0586C331.872 68.1367 331.68 68.1758 331.479 68.1758C331.27 68.1758 331.075 68.1367 330.893 68.0586C330.717 67.9805 330.561 67.873 330.424 67.7363C330.287 67.5996 330.18 67.4434 330.102 67.2676C330.023 67.0853 329.984 66.89 329.984 66.6816C329.984 66.4798 330.023 66.2878 330.102 66.1055C330.18 65.9232 330.287 65.7637 330.424 65.627C330.561 65.4902 330.717 65.3828 330.893 65.3047C331.075 65.2201 331.27 65.1777 331.479 65.1777ZM358.109 61.623C358.109 62.5996 358.012 63.4915 357.816 64.2988C357.621 65.0996 357.325 65.7897 356.928 66.3691C356.531 66.9421 356.036 67.388 355.443 67.707C354.857 68.0195 354.167 68.1758 353.373 68.1758C352.689 68.1758 352.068 68.0488 351.508 67.7949C350.948 67.5345 350.469 67.1374 350.072 66.6035C349.675 66.0697 349.369 65.3893 349.154 64.5625C348.939 63.7357 348.832 62.7559 348.832 61.623C348.832 60.6465 348.93 59.7546 349.125 58.9473C349.327 58.14 349.623 57.4499 350.014 56.877C350.411 56.2975 350.906 55.8516 351.498 55.5391C352.09 55.2201 352.781 55.0605 353.568 55.0605C354.252 55.0605 354.874 55.1908 355.434 55.4512C355.993 55.7051 356.472 56.1022 356.869 56.6426C357.266 57.1764 357.572 57.8568 357.787 58.6836C358.002 59.5104 358.109 60.4902 358.109 61.623ZM356.391 61.6816C356.391 61.4603 356.381 61.2422 356.361 61.0273C356.348 60.806 356.332 60.5911 356.312 60.3828L350.912 64.3965C351.01 64.735 351.133 65.0475 351.283 65.334C351.433 65.6204 351.612 65.8678 351.82 66.0762C352.035 66.278 352.276 66.4375 352.543 66.5547C352.816 66.6654 353.126 66.7207 353.471 66.7207C353.913 66.7207 354.314 66.6133 354.672 66.3984C355.036 66.1836 355.346 65.8646 355.6 65.4414C355.854 65.0182 356.049 64.4941 356.186 63.8691C356.322 63.2376 356.391 62.5085 356.391 61.6816ZM350.551 61.5645C350.551 61.7663 350.551 61.9681 350.551 62.1699C350.557 62.3717 350.57 62.5671 350.59 62.7559L355.99 58.7617C355.893 58.4297 355.769 58.127 355.619 57.8535C355.469 57.5801 355.29 57.3457 355.082 57.1504C354.874 56.9486 354.636 56.7923 354.369 56.6816C354.102 56.571 353.803 56.5156 353.471 56.5156C353.028 56.5156 352.624 56.623 352.26 56.8379C351.902 57.0527 351.596 57.375 351.342 57.8047C351.088 58.2279 350.893 58.7552 350.756 59.3867C350.619 60.0117 350.551 60.7376 350.551 61.5645ZM280.717 90.5215C279.695 90.9447 278.624 91.1562 277.504 91.1562C275.701 91.1562 274.314 90.6191 273.344 89.5449C272.38 88.4642 271.898 86.8691 271.898 84.7598C271.898 83.7376 272.032 82.8132 272.299 81.9863C272.566 81.1595 272.947 80.4596 273.441 79.8867C273.936 79.3073 274.535 78.8613 275.238 78.5488C275.941 78.2363 276.729 78.0801 277.602 78.0801C278.194 78.0801 278.744 78.1322 279.252 78.2363C279.76 78.334 280.248 78.487 280.717 78.6953V80.4043C280.255 80.1504 279.776 79.9583 279.281 79.8281C278.786 79.6914 278.246 79.623 277.66 79.623C277.061 79.623 276.518 79.737 276.029 79.9648C275.548 80.1862 275.137 80.5117 274.799 80.9414C274.46 81.3646 274.2 81.8854 274.018 82.5039C273.835 83.1159 273.744 83.8158 273.744 84.6035C273.744 86.2572 274.079 87.5039 274.75 88.3438C275.421 89.1836 276.404 89.6035 277.699 89.6035C278.246 89.6035 278.77 89.5417 279.271 89.418C279.773 89.2878 280.255 89.1087 280.717 88.8809V90.5215ZM291.82 80.4238C291.345 80.1699 290.857 79.9746 290.355 79.8379C289.854 79.6947 289.307 79.623 288.715 79.623C288.038 79.623 287.436 79.7435 286.908 79.9844C286.381 80.2253 285.935 80.5671 285.57 81.0098C285.212 81.446 284.936 81.9733 284.74 82.5918C284.551 83.2103 284.457 83.8939 284.457 84.6426C284.457 85.4238 284.535 86.1237 284.691 86.7422C284.848 87.3607 285.092 87.8848 285.424 88.3145C285.756 88.7441 286.179 89.0729 286.693 89.3008C287.214 89.5286 287.836 89.6426 288.559 89.6426C288.682 89.6426 288.816 89.6361 288.959 89.623C289.102 89.61 289.245 89.5938 289.389 89.5742C289.532 89.5482 289.669 89.5189 289.799 89.4863C289.936 89.4538 290.056 89.418 290.16 89.3789V85.3164H287.553V83.8809H291.879V90.4043C291.612 90.528 291.329 90.6387 291.029 90.7363C290.736 90.834 290.434 90.9154 290.121 90.9805C289.815 91.0456 289.509 91.0944 289.203 91.127C288.897 91.1595 288.601 91.1758 288.314 91.1758C287.442 91.1758 286.654 91.0391 285.951 90.7656C285.255 90.4922 284.659 90.0885 284.164 89.5547C283.676 89.0143 283.298 88.3438 283.031 87.543C282.771 86.7422 282.641 85.8145 282.641 84.7598C282.641 83.7116 282.787 82.7741 283.08 81.9473C283.373 81.1139 283.783 80.4108 284.311 79.8379C284.844 79.2585 285.482 78.819 286.225 78.5195C286.973 78.2135 287.797 78.0605 288.695 78.0605C289.268 78.0605 289.812 78.1126 290.326 78.2168C290.847 78.3145 291.345 78.474 291.82 78.6953V80.4238ZM302.816 80.4238C302.341 80.1699 301.853 79.9746 301.352 79.8379C300.85 79.6947 300.303 79.623 299.711 79.623C299.034 79.623 298.432 79.7435 297.904 79.9844C297.377 80.2253 296.931 80.5671 296.566 81.0098C296.208 81.446 295.932 81.9733 295.736 82.5918C295.548 83.2103 295.453 83.8939 295.453 84.6426C295.453 85.4238 295.531 86.1237 295.688 86.7422C295.844 87.3607 296.088 87.8848 296.42 88.3145C296.752 88.7441 297.175 89.0729 297.689 89.3008C298.21 89.5286 298.832 89.6426 299.555 89.6426C299.678 89.6426 299.812 89.6361 299.955 89.623C300.098 89.61 300.242 89.5938 300.385 89.5742C300.528 89.5482 300.665 89.5189 300.795 89.4863C300.932 89.4538 301.052 89.418 301.156 89.3789V85.3164H298.549V83.8809H302.875V90.4043C302.608 90.528 302.325 90.6387 302.025 90.7363C301.732 90.834 301.43 90.9154 301.117 90.9805C300.811 91.0456 300.505 91.0944 300.199 91.127C299.893 91.1595 299.597 91.1758 299.311 91.1758C298.438 91.1758 297.65 91.0391 296.947 90.7656C296.251 90.4922 295.655 90.0885 295.16 89.5547C294.672 89.0143 294.294 88.3438 294.027 87.543C293.767 86.7422 293.637 85.8145 293.637 84.7598C293.637 83.7116 293.783 82.7741 294.076 81.9473C294.369 81.1139 294.779 80.4108 295.307 79.8379C295.84 79.2585 296.479 78.819 297.221 78.5195C297.969 78.2135 298.793 78.0605 299.691 78.0605C300.264 78.0605 300.808 78.1126 301.322 78.2168C301.843 78.3145 302.341 78.474 302.816 78.6953V80.4238ZM314.145 79.7207H310.365V91H308.607V79.7207H304.828V78.2363H314.145V79.7207ZM325.141 79.7207H321.361V91H319.604V79.7207H315.824V78.2363H325.141V79.7207ZM331.479 81.0195C331.68 81.0195 331.872 81.0618 332.055 81.1465C332.237 81.2246 332.396 81.332 332.533 81.4688C332.67 81.6055 332.777 81.765 332.855 81.9473C332.94 82.1296 332.982 82.3216 332.982 82.5234C332.982 82.7318 332.94 82.9271 332.855 83.1094C332.777 83.2852 332.67 83.4414 332.533 83.5781C332.396 83.7148 332.237 83.8223 332.055 83.9004C331.872 83.9785 331.68 84.0176 331.479 84.0176C331.27 84.0176 331.075 83.9785 330.893 83.9004C330.717 83.8223 330.561 83.7148 330.424 83.5781C330.287 83.4414 330.18 83.2852 330.102 83.1094C330.023 82.9271 329.984 82.7318 329.984 82.5234C329.984 82.3216 330.023 82.1296 330.102 81.9473C330.18 81.765 330.287 81.6055 330.424 81.4688C330.561 81.332 330.717 81.2246 330.893 81.1465C331.075 81.0618 331.27 81.0195 331.479 81.0195ZM331.479 88.1777C331.68 88.1777 331.872 88.2201 332.055 88.3047C332.237 88.3828 332.396 88.4902 332.533 88.627C332.67 88.7637 332.777 88.9232 332.855 89.1055C332.94 89.2878 332.982 89.4798 332.982 89.6816C332.982 89.89 332.94 90.0853 332.855 90.2676C332.777 90.4434 332.67 90.5996 332.533 90.7363C332.396 90.873 332.237 90.9805 332.055 91.0586C331.872 91.1367 331.68 91.1758 331.479 91.1758C331.27 91.1758 331.075 91.1367 330.893 91.0586C330.717 90.9805 330.561 90.873 330.424 90.7363C330.287 90.5996 330.18 90.4434 330.102 90.2676C330.023 90.0853 329.984 89.89 329.984 89.6816C329.984 89.4798 330.023 89.2878 330.102 89.1055C330.18 88.9232 330.287 88.7637 330.424 88.627C330.561 88.4902 330.717 88.3828 330.893 88.3047C331.075 88.2201 331.27 88.1777 331.479 88.1777ZM358.451 88.1777H356.273V91H354.535V88.1777H348.393V86.6836L353.832 78.2363H356.273V86.6836H358.451V88.1777ZM354.535 79.877L350.092 86.6836H354.535V79.877ZM280.824 103.424C280.349 103.17 279.861 102.975 279.359 102.838C278.858 102.695 278.311 102.623 277.719 102.623C277.042 102.623 276.439 102.743 275.912 102.984C275.385 103.225 274.939 103.567 274.574 104.01C274.216 104.446 273.939 104.973 273.744 105.592C273.555 106.21 273.461 106.894 273.461 107.643C273.461 108.424 273.539 109.124 273.695 109.742C273.852 110.361 274.096 110.885 274.428 111.314C274.76 111.744 275.183 112.073 275.697 112.301C276.218 112.529 276.84 112.643 277.562 112.643C277.686 112.643 277.82 112.636 277.963 112.623C278.106 112.61 278.249 112.594 278.393 112.574C278.536 112.548 278.673 112.519 278.803 112.486C278.939 112.454 279.06 112.418 279.164 112.379V108.316H276.557V106.881H280.883V113.404C280.616 113.528 280.333 113.639 280.033 113.736C279.74 113.834 279.438 113.915 279.125 113.98C278.819 114.046 278.513 114.094 278.207 114.127C277.901 114.16 277.605 114.176 277.318 114.176C276.446 114.176 275.658 114.039 274.955 113.766C274.258 113.492 273.663 113.089 273.168 112.555C272.68 112.014 272.302 111.344 272.035 110.543C271.775 109.742 271.645 108.814 271.645 107.76C271.645 106.712 271.791 105.774 272.084 104.947C272.377 104.114 272.787 103.411 273.314 102.838C273.848 102.258 274.486 101.819 275.229 101.52C275.977 101.214 276.801 101.061 277.699 101.061C278.272 101.061 278.816 101.113 279.33 101.217C279.851 101.314 280.349 101.474 280.824 101.695V103.424ZM291.713 113.521C290.691 113.945 289.62 114.156 288.5 114.156C286.697 114.156 285.31 113.619 284.34 112.545C283.376 111.464 282.895 109.869 282.895 107.76C282.895 106.738 283.028 105.813 283.295 104.986C283.562 104.16 283.943 103.46 284.438 102.887C284.932 102.307 285.531 101.861 286.234 101.549C286.938 101.236 287.725 101.08 288.598 101.08C289.19 101.08 289.74 101.132 290.248 101.236C290.756 101.334 291.244 101.487 291.713 101.695V103.404C291.251 103.15 290.772 102.958 290.277 102.828C289.783 102.691 289.242 102.623 288.656 102.623C288.057 102.623 287.514 102.737 287.025 102.965C286.544 103.186 286.133 103.512 285.795 103.941C285.456 104.365 285.196 104.885 285.014 105.504C284.831 106.116 284.74 106.816 284.74 107.604C284.74 109.257 285.076 110.504 285.746 111.344C286.417 112.184 287.4 112.604 288.695 112.604C289.242 112.604 289.766 112.542 290.268 112.418C290.769 112.288 291.251 112.109 291.713 111.881V113.521ZM303.148 102.721H299.369V114H297.611V102.721H293.832V101.236H303.148V102.721ZM313.705 113.521C312.683 113.945 311.612 114.156 310.492 114.156C308.689 114.156 307.302 113.619 306.332 112.545C305.368 111.464 304.887 109.869 304.887 107.76C304.887 106.738 305.02 105.813 305.287 104.986C305.554 104.16 305.935 103.46 306.43 102.887C306.924 102.307 307.523 101.861 308.227 101.549C308.93 101.236 309.717 101.08 310.59 101.08C311.182 101.08 311.732 101.132 312.24 101.236C312.748 101.334 313.236 101.487 313.705 101.695V103.404C313.243 103.15 312.764 102.958 312.27 102.828C311.775 102.691 311.234 102.623 310.648 102.623C310.049 102.623 309.506 102.737 309.018 102.965C308.536 103.186 308.126 103.512 307.787 103.941C307.449 104.365 307.188 104.885 307.006 105.504C306.824 106.116 306.732 106.816 306.732 107.604C306.732 109.257 307.068 110.504 307.738 111.344C308.409 112.184 309.392 112.604 310.688 112.604C311.234 112.604 311.758 112.542 312.26 112.418C312.761 112.288 313.243 112.109 313.705 111.881V113.521ZM325.141 102.721H321.361V114H319.604V102.721H315.824V101.236H325.141V102.721ZM331.479 104.02C331.68 104.02 331.872 104.062 332.055 104.146C332.237 104.225 332.396 104.332 332.533 104.469C332.67 104.605 332.777 104.765 332.855 104.947C332.94 105.13 332.982 105.322 332.982 105.523C332.982 105.732 332.94 105.927 332.855 106.109C332.777 106.285 332.67 106.441 332.533 106.578C332.396 106.715 332.237 106.822 332.055 106.9C331.872 106.979 331.68 107.018 331.479 107.018C331.27 107.018 331.075 106.979 330.893 106.9C330.717 106.822 330.561 106.715 330.424 106.578C330.287 106.441 330.18 106.285 330.102 106.109C330.023 105.927 329.984 105.732 329.984 105.523C329.984 105.322 330.023 105.13 330.102 104.947C330.18 104.765 330.287 104.605 330.424 104.469C330.561 104.332 330.717 104.225 330.893 104.146C331.075 104.062 331.27 104.02 331.479 104.02ZM331.479 111.178C331.68 111.178 331.872 111.22 332.055 111.305C332.237 111.383 332.396 111.49 332.533 111.627C332.67 111.764 332.777 111.923 332.855 112.105C332.94 112.288 332.982 112.48 332.982 112.682C332.982 112.89 332.94 113.085 332.855 113.268C332.777 113.443 332.67 113.6 332.533 113.736C332.396 113.873 332.237 113.98 332.055 114.059C331.872 114.137 331.68 114.176 331.479 114.176C331.27 114.176 331.075 114.137 330.893 114.059C330.717 113.98 330.561 113.873 330.424 113.736C330.287 113.6 330.18 113.443 330.102 113.268C330.023 113.085 329.984 112.89 329.984 112.682C329.984 112.48 330.023 112.288 330.102 112.105C330.18 111.923 330.287 111.764 330.424 111.627C330.561 111.49 330.717 111.383 330.893 111.305C331.075 111.22 331.27 111.178 331.479 111.178ZM357.572 110.123C357.572 110.683 357.458 111.21 357.23 111.705C357.003 112.193 356.661 112.623 356.205 112.994C355.749 113.359 355.176 113.648 354.486 113.863C353.796 114.072 352.992 114.176 352.074 114.176C351.566 114.176 351.111 114.16 350.707 114.127C350.303 114.094 349.926 114.052 349.574 114V112.477C349.978 112.548 350.404 112.604 350.854 112.643C351.303 112.682 351.762 112.701 352.23 112.701C352.868 112.701 353.412 112.646 353.861 112.535C354.317 112.418 354.688 112.252 354.975 112.037C355.261 111.822 355.469 111.562 355.6 111.256C355.73 110.95 355.795 110.605 355.795 110.221C355.795 109.869 355.717 109.563 355.561 109.303C355.404 109.042 355.183 108.824 354.896 108.648C354.617 108.473 354.278 108.342 353.881 108.258C353.49 108.167 353.061 108.121 352.592 108.121H351.137V106.725H352.611C352.995 106.725 353.344 106.676 353.656 106.578C353.975 106.474 354.245 106.327 354.467 106.139C354.695 105.95 354.867 105.719 354.984 105.445C355.108 105.165 355.17 104.85 355.17 104.498C355.17 103.814 354.962 103.316 354.545 103.004C354.128 102.691 353.516 102.535 352.709 102.535C352.279 102.535 351.837 102.577 351.381 102.662C350.925 102.747 350.437 102.874 349.916 103.043V101.559C350.137 101.48 350.372 101.412 350.619 101.354C350.873 101.288 351.124 101.236 351.371 101.197C351.625 101.152 351.876 101.119 352.123 101.1C352.37 101.074 352.608 101.061 352.836 101.061C353.513 101.061 354.109 101.135 354.623 101.285C355.137 101.428 355.567 101.637 355.912 101.91C356.257 102.184 356.518 102.516 356.693 102.906C356.869 103.297 356.957 103.736 356.957 104.225C356.957 104.954 356.768 105.566 356.391 106.061C356.02 106.555 355.508 106.949 354.857 107.242C355.189 107.294 355.515 107.398 355.834 107.555C356.16 107.711 356.449 107.913 356.703 108.16C356.964 108.401 357.172 108.688 357.328 109.02C357.491 109.352 357.572 109.719 357.572 110.123ZM280.824 126.424C280.349 126.17 279.861 125.975 279.359 125.838C278.858 125.695 278.311 125.623 277.719 125.623C277.042 125.623 276.439 125.743 275.912 125.984C275.385 126.225 274.939 126.567 274.574 127.01C274.216 127.446 273.939 127.973 273.744 128.592C273.555 129.21 273.461 129.894 273.461 130.643C273.461 131.424 273.539 132.124 273.695 132.742C273.852 133.361 274.096 133.885 274.428 134.314C274.76 134.744 275.183 135.073 275.697 135.301C276.218 135.529 276.84 135.643 277.562 135.643C277.686 135.643 277.82 135.636 277.963 135.623C278.106 135.61 278.249 135.594 278.393 135.574C278.536 135.548 278.673 135.519 278.803 135.486C278.939 135.454 279.06 135.418 279.164 135.379V131.316H276.557V129.881H280.883V136.404C280.616 136.528 280.333 136.639 280.033 136.736C279.74 136.834 279.438 136.915 279.125 136.98C278.819 137.046 278.513 137.094 278.207 137.127C277.901 137.16 277.605 137.176 277.318 137.176C276.446 137.176 275.658 137.039 274.955 136.766C274.258 136.492 273.663 136.089 273.168 135.555C272.68 135.014 272.302 134.344 272.035 133.543C271.775 132.742 271.645 131.814 271.645 130.76C271.645 129.712 271.791 128.774 272.084 127.947C272.377 127.114 272.787 126.411 273.314 125.838C273.848 125.258 274.486 124.819 275.229 124.52C275.977 124.214 276.801 124.061 277.699 124.061C278.272 124.061 278.816 124.113 279.33 124.217C279.851 124.314 280.349 124.474 280.824 124.695V126.424ZM292.152 125.721H288.373V137H286.615V125.721H282.836V124.236H292.152V125.721ZM302.709 136.521C301.687 136.945 300.616 137.156 299.496 137.156C297.693 137.156 296.306 136.619 295.336 135.545C294.372 134.464 293.891 132.869 293.891 130.76C293.891 129.738 294.024 128.813 294.291 127.986C294.558 127.16 294.939 126.46 295.434 125.887C295.928 125.307 296.527 124.861 297.23 124.549C297.934 124.236 298.721 124.08 299.594 124.08C300.186 124.08 300.736 124.132 301.244 124.236C301.752 124.334 302.24 124.487 302.709 124.695V126.404C302.247 126.15 301.768 125.958 301.273 125.828C300.779 125.691 300.238 125.623 299.652 125.623C299.053 125.623 298.51 125.737 298.021 125.965C297.54 126.186 297.13 126.512 296.791 126.941C296.452 127.365 296.192 127.885 296.01 128.504C295.827 129.116 295.736 129.816 295.736 130.604C295.736 132.257 296.072 133.504 296.742 134.344C297.413 135.184 298.396 135.604 299.691 135.604C300.238 135.604 300.762 135.542 301.264 135.418C301.765 135.288 302.247 135.109 302.709 134.881V136.521ZM314.145 125.721H310.365V137H308.607V125.721H304.828V124.236H314.145V125.721ZM324.809 126.424C324.333 126.17 323.845 125.975 323.344 125.838C322.842 125.695 322.296 125.623 321.703 125.623C321.026 125.623 320.424 125.743 319.896 125.984C319.369 126.225 318.923 126.567 318.559 127.01C318.201 127.446 317.924 127.973 317.729 128.592C317.54 129.21 317.445 129.894 317.445 130.643C317.445 131.424 317.523 132.124 317.68 132.742C317.836 133.361 318.08 133.885 318.412 134.314C318.744 134.744 319.167 135.073 319.682 135.301C320.202 135.529 320.824 135.643 321.547 135.643C321.671 135.643 321.804 135.636 321.947 135.623C322.09 135.61 322.234 135.594 322.377 135.574C322.52 135.548 322.657 135.519 322.787 135.486C322.924 135.454 323.044 135.418 323.148 135.379V131.316H320.541V129.881H324.867V136.404C324.6 136.528 324.317 136.639 324.018 136.736C323.725 136.834 323.422 136.915 323.109 136.98C322.803 137.046 322.497 137.094 322.191 137.127C321.885 137.16 321.589 137.176 321.303 137.176C320.43 137.176 319.643 137.039 318.939 136.766C318.243 136.492 317.647 136.089 317.152 135.555C316.664 135.014 316.286 134.344 316.02 133.543C315.759 132.742 315.629 131.814 315.629 130.76C315.629 129.712 315.775 128.774 316.068 127.947C316.361 127.114 316.771 126.411 317.299 125.838C317.833 125.258 318.471 124.819 319.213 124.52C319.962 124.214 320.785 124.061 321.684 124.061C322.257 124.061 322.8 124.113 323.314 124.217C323.835 124.314 324.333 124.474 324.809 124.695V126.424ZM331.479 127.02C331.68 127.02 331.872 127.062 332.055 127.146C332.237 127.225 332.396 127.332 332.533 127.469C332.67 127.605 332.777 127.765 332.855 127.947C332.94 128.13 332.982 128.322 332.982 128.523C332.982 128.732 332.94 128.927 332.855 129.109C332.777 129.285 332.67 129.441 332.533 129.578C332.396 129.715 332.237 129.822 332.055 129.9C331.872 129.979 331.68 130.018 331.479 130.018C331.27 130.018 331.075 129.979 330.893 129.9C330.717 129.822 330.561 129.715 330.424 129.578C330.287 129.441 330.18 129.285 330.102 129.109C330.023 128.927 329.984 128.732 329.984 128.523C329.984 128.322 330.023 128.13 330.102 127.947C330.18 127.765 330.287 127.605 330.424 127.469C330.561 127.332 330.717 127.225 330.893 127.146C331.075 127.062 331.27 127.02 331.479 127.02ZM331.479 134.178C331.68 134.178 331.872 134.22 332.055 134.305C332.237 134.383 332.396 134.49 332.533 134.627C332.67 134.764 332.777 134.923 332.855 135.105C332.94 135.288 332.982 135.48 332.982 135.682C332.982 135.89 332.94 136.085 332.855 136.268C332.777 136.443 332.67 136.6 332.533 136.736C332.396 136.873 332.237 136.98 332.055 137.059C331.872 137.137 331.68 137.176 331.479 137.176C331.27 137.176 331.075 137.137 330.893 137.059C330.717 136.98 330.561 136.873 330.424 136.736C330.287 136.6 330.18 136.443 330.102 136.268C330.023 136.085 329.984 135.89 329.984 135.682C329.984 135.48 330.023 135.288 330.102 135.105C330.18 134.923 330.287 134.764 330.424 134.627C330.561 134.49 330.717 134.383 330.893 134.305C331.075 134.22 331.27 134.178 331.479 134.178ZM357.709 137H349.691V135.418H352.973V126.102L349.916 127.762L349.291 126.316L353.354 124.178H354.857V135.418H357.709V137ZM281.156 148.721H277.377V160H275.619V148.721H271.84V147.236H281.156V148.721ZM291.82 149.424C291.345 149.17 290.857 148.975 290.355 148.838C289.854 148.695 289.307 148.623 288.715 148.623C288.038 148.623 287.436 148.743 286.908 148.984C286.381 149.225 285.935 149.567 285.57 150.01C285.212 150.446 284.936 150.973 284.74 151.592C284.551 152.21 284.457 152.894 284.457 153.643C284.457 154.424 284.535 155.124 284.691 155.742C284.848 156.361 285.092 156.885 285.424 157.314C285.756 157.744 286.179 158.073 286.693 158.301C287.214 158.529 287.836 158.643 288.559 158.643C288.682 158.643 288.816 158.636 288.959 158.623C289.102 158.61 289.245 158.594 289.389 158.574C289.532 158.548 289.669 158.519 289.799 158.486C289.936 158.454 290.056 158.418 290.16 158.379V154.316H287.553V152.881H291.879V159.404C291.612 159.528 291.329 159.639 291.029 159.736C290.736 159.834 290.434 159.915 290.121 159.98C289.815 160.046 289.509 160.094 289.203 160.127C288.897 160.16 288.601 160.176 288.314 160.176C287.442 160.176 286.654 160.039 285.951 159.766C285.255 159.492 284.659 159.089 284.164 158.555C283.676 158.014 283.298 157.344 283.031 156.543C282.771 155.742 282.641 154.814 282.641 153.76C282.641 152.712 282.787 151.774 283.08 150.947C283.373 150.114 283.783 149.411 284.311 148.838C284.844 148.258 285.482 147.819 286.225 147.52C286.973 147.214 287.797 147.061 288.695 147.061C289.268 147.061 289.812 147.113 290.326 147.217C290.847 147.314 291.345 147.474 291.82 147.695V149.424ZM302.816 149.424C302.341 149.17 301.853 148.975 301.352 148.838C300.85 148.695 300.303 148.623 299.711 148.623C299.034 148.623 298.432 148.743 297.904 148.984C297.377 149.225 296.931 149.567 296.566 150.01C296.208 150.446 295.932 150.973 295.736 151.592C295.548 152.21 295.453 152.894 295.453 153.643C295.453 154.424 295.531 155.124 295.688 155.742C295.844 156.361 296.088 156.885 296.42 157.314C296.752 157.744 297.175 158.073 297.689 158.301C298.21 158.529 298.832 158.643 299.555 158.643C299.678 158.643 299.812 158.636 299.955 158.623C300.098 158.61 300.242 158.594 300.385 158.574C300.528 158.548 300.665 158.519 300.795 158.486C300.932 158.454 301.052 158.418 301.156 158.379V154.316H298.549V152.881H302.875V159.404C302.608 159.528 302.325 159.639 302.025 159.736C301.732 159.834 301.43 159.915 301.117 159.98C300.811 160.046 300.505 160.094 300.199 160.127C299.893 160.16 299.597 160.176 299.311 160.176C298.438 160.176 297.65 160.039 296.947 159.766C296.251 159.492 295.655 159.089 295.16 158.555C294.672 158.014 294.294 157.344 294.027 156.543C293.767 155.742 293.637 154.814 293.637 153.76C293.637 152.712 293.783 151.774 294.076 150.947C294.369 150.114 294.779 149.411 295.307 148.838C295.84 148.258 296.479 147.819 297.221 147.52C297.969 147.214 298.793 147.061 299.691 147.061C300.264 147.061 300.808 147.113 301.322 147.217C301.843 147.314 302.341 147.474 302.816 147.695V149.424ZM313.812 149.424C313.337 149.17 312.849 148.975 312.348 148.838C311.846 148.695 311.299 148.623 310.707 148.623C310.03 148.623 309.428 148.743 308.9 148.984C308.373 149.225 307.927 149.567 307.562 150.01C307.204 150.446 306.928 150.973 306.732 151.592C306.544 152.21 306.449 152.894 306.449 153.643C306.449 154.424 306.527 155.124 306.684 155.742C306.84 156.361 307.084 156.885 307.416 157.314C307.748 157.744 308.171 158.073 308.686 158.301C309.206 158.529 309.828 158.643 310.551 158.643C310.674 158.643 310.808 158.636 310.951 158.623C311.094 158.61 311.238 158.594 311.381 158.574C311.524 158.548 311.661 158.519 311.791 158.486C311.928 158.454 312.048 158.418 312.152 158.379V154.316H309.545V152.881H313.871V159.404C313.604 159.528 313.321 159.639 313.021 159.736C312.729 159.834 312.426 159.915 312.113 159.98C311.807 160.046 311.501 160.094 311.195 160.127C310.889 160.16 310.593 160.176 310.307 160.176C309.434 160.176 308.646 160.039 307.943 159.766C307.247 159.492 306.651 159.089 306.156 158.555C305.668 158.014 305.29 157.344 305.023 156.543C304.763 155.742 304.633 154.814 304.633 153.76C304.633 152.712 304.779 151.774 305.072 150.947C305.365 150.114 305.775 149.411 306.303 148.838C306.837 148.258 307.475 147.819 308.217 147.52C308.965 147.214 309.789 147.061 310.688 147.061C311.26 147.061 311.804 147.113 312.318 147.217C312.839 147.314 313.337 147.474 313.812 147.695V149.424ZM324.701 159.521C323.679 159.945 322.608 160.156 321.488 160.156C319.685 160.156 318.298 159.619 317.328 158.545C316.365 157.464 315.883 155.869 315.883 153.76C315.883 152.738 316.016 151.813 316.283 150.986C316.55 150.16 316.931 149.46 317.426 148.887C317.921 148.307 318.52 147.861 319.223 147.549C319.926 147.236 320.714 147.08 321.586 147.08C322.178 147.08 322.729 147.132 323.236 147.236C323.744 147.334 324.232 147.487 324.701 147.695V149.404C324.239 149.15 323.76 148.958 323.266 148.828C322.771 148.691 322.23 148.623 321.645 148.623C321.046 148.623 320.502 148.737 320.014 148.965C319.532 149.186 319.122 149.512 318.783 149.941C318.445 150.365 318.184 150.885 318.002 151.504C317.82 152.116 317.729 152.816 317.729 153.604C317.729 155.257 318.064 156.504 318.734 157.344C319.405 158.184 320.388 158.604 321.684 158.604C322.23 158.604 322.755 158.542 323.256 158.418C323.757 158.288 324.239 158.109 324.701 157.881V159.521ZM331.479 150.02C331.68 150.02 331.872 150.062 332.055 150.146C332.237 150.225 332.396 150.332 332.533 150.469C332.67 150.605 332.777 150.765 332.855 150.947C332.94 151.13 332.982 151.322 332.982 151.523C332.982 151.732 332.94 151.927 332.855 152.109C332.777 152.285 332.67 152.441 332.533 152.578C332.396 152.715 332.237 152.822 332.055 152.9C331.872 152.979 331.68 153.018 331.479 153.018C331.27 153.018 331.075 152.979 330.893 152.9C330.717 152.822 330.561 152.715 330.424 152.578C330.287 152.441 330.18 152.285 330.102 152.109C330.023 151.927 329.984 151.732 329.984 151.523C329.984 151.322 330.023 151.13 330.102 150.947C330.18 150.765 330.287 150.605 330.424 150.469C330.561 150.332 330.717 150.225 330.893 150.146C331.075 150.062 331.27 150.02 331.479 150.02ZM331.479 157.178C331.68 157.178 331.872 157.22 332.055 157.305C332.237 157.383 332.396 157.49 332.533 157.627C332.67 157.764 332.777 157.923 332.855 158.105C332.94 158.288 332.982 158.48 332.982 158.682C332.982 158.89 332.94 159.085 332.855 159.268C332.777 159.443 332.67 159.6 332.533 159.736C332.396 159.873 332.237 159.98 332.055 160.059C331.872 160.137 331.68 160.176 331.479 160.176C331.27 160.176 331.075 160.137 330.893 160.059C330.717 159.98 330.561 159.873 330.424 159.736C330.287 159.6 330.18 159.443 330.102 159.268C330.023 159.085 329.984 158.89 329.984 158.682C329.984 158.48 330.023 158.288 330.102 158.105C330.18 157.923 330.287 157.764 330.424 157.627C330.561 157.49 330.717 157.383 330.893 157.305C331.075 157.22 331.27 157.178 331.479 157.178ZM357.816 160H349.408V158.477L352.709 155.195C353.249 154.661 353.689 154.199 354.027 153.809C354.366 153.418 354.63 153.063 354.818 152.744C355.007 152.419 355.134 152.113 355.199 151.826C355.264 151.54 355.297 151.23 355.297 150.898C355.297 150.586 355.255 150.29 355.17 150.01C355.085 149.723 354.955 149.473 354.779 149.258C354.604 149.043 354.376 148.874 354.096 148.75C353.816 148.626 353.48 148.564 353.09 148.564C352.549 148.564 352.058 148.685 351.615 148.926C351.173 149.167 350.766 149.479 350.395 149.863L349.457 148.74C349.939 148.232 350.492 147.826 351.117 147.52C351.749 147.214 352.481 147.061 353.314 147.061C353.881 147.061 354.395 147.145 354.857 147.314C355.326 147.484 355.73 147.728 356.068 148.047C356.407 148.366 356.667 148.757 356.85 149.219C357.038 149.681 357.133 150.202 357.133 150.781C357.133 151.27 357.068 151.722 356.938 152.139C356.807 152.555 356.609 152.972 356.342 153.389C356.081 153.799 355.749 154.225 355.346 154.668C354.949 155.111 354.477 155.596 353.93 156.123L351.615 158.379H357.816V160Z" fill="#C9D1D9"/>
</g>
<defs>
<filter id="filter0_i" x="242" y="0" width="188.391" height="224" filterUnits="userSpaceOnUse" color-interpolation-filters="sRGB">
<feFlood flood-opacity="0" result="BackgroundImageFix"/>
<feBlend mode="normal" in="SourceGraphic" in2="BackgroundImageFix" result="shape"/>
<feColorMatrix in="SourceAlpha" type="matrix" values="0 0 0 0 0 0 0 0 0 0 0 0 0 0 0 0 0 0 127 0" result="hardAlpha"/>
<feOffset dy="4"/>
<feGaussianBlur stdDeviation="2"/>
<feComposite in2="hardAlpha" operator="arithmetic" k2="-1" k3="1"/>
<feColorMatrix type="matrix" values="0 0 0 0 0 0 0 0 0 0 0 0 0 0 0 0 0 0 0.25 0"/>
<feBlend mode="normal" in2="shape" result="effect1_innerShadow"/>
</filter>
<filter id="filter1_d" x="238" y="0" width="196.391" height="228" filterUnits="userSpaceOnUse" color-interpolation-filters="sRGB">
<feFlood flood-opacity="0" result="BackgroundImageFix"/>
<feColorMatrix in="SourceAlpha" type="matrix" values="0 0 0 0 0 0 0 0 0 0 0 0 0 0 0 0 0 0 127 0"/>
<feOffset dy="4"/>
<feGaussianBlur stdDeviation="2"/>
<feColorMatrix type="matrix" values="0 0 0 0 0 0 0 0 0 0 0 0 0 0 0 0 0 0 0.25 0"/>
<feBlend mode="normal" in2="BackgroundImageFix" result="effect1_dropShadow"/>
<feBlend mode="normal" in="SourceGraphic" in2="effect1_dropShadow" result="shape"/>
</filter>
<filter id="filter2_d" x="267.645" y="55.0605" width="94.8066" height="113.115" filterUnits="userSpaceOnUse" color-interpolation-filters="sRGB">
<feFlood flood-opacity="0" result="BackgroundImageFix"/>
<feColorMatrix in="SourceAlpha" type="matrix" values="0 0 0 0 0 0 0 0 0 0 0 0 0 0 0 0 0 0 127 0"/>
<feOffset dy="4"/>
<feGaussianBlur stdDeviation="2"/>
<feColorMatrix type="matrix" values="0 0 0 0 0 0 0 0 0 0 0 0 0 0 0 0 0 0 0.25 0"/>
<feBlend mode="normal" in2="BackgroundImageFix" result="effect1_dropShadow"/>
<feBlend mode="normal" in="SourceGraphic" in2="effect1_dropShadow" result="shape"/>
</filter>
<linearGradient id="paint0_linear" x1="336.195" y1="0" x2="336.195" y2="220" gradientUnits="userSpaceOnUse">
<stop/>
<stop offset="1" stop-color="white" stop-opacity="0"/>
</linearGradient>
</defs>
</svg>
