<svg width="381" height="110" viewBox="0 0 381 110" fill="none" xmlns="http://www.w3.org/2000/svg">
<path d="M150.555 101.867C150.555 103.159 150.258 104.198 149.664 104.984C149.07 105.766 148.273 106.156 147.273 106.156C146.206 106.156 145.38 105.779 144.797 105.023L144.727 106H143.398V94H144.844V98.4766C145.427 97.7526 146.232 97.3906 147.258 97.3906C148.284 97.3906 149.089 97.7786 149.672 98.5547C150.26 99.3307 150.555 100.393 150.555 101.742V101.867ZM149.109 101.703C149.109 100.719 148.919 99.9583 148.539 99.4219C148.159 98.8854 147.612 98.6172 146.898 98.6172C145.945 98.6172 145.26 99.0599 144.844 99.9453V103.602C145.286 104.487 145.977 104.93 146.914 104.93C147.607 104.93 148.146 104.661 148.531 104.125C148.917 103.589 149.109 102.781 149.109 101.703ZM156.469 98.8438C156.25 98.8073 156.013 98.7891 155.758 98.7891C154.81 98.7891 154.167 99.1927 153.828 100V106H152.383V97.5469H153.789L153.812 98.5234C154.286 97.7682 154.958 97.3906 155.828 97.3906C156.109 97.3906 156.323 97.4271 156.469 97.5V98.8438ZM159.375 106H157.93V97.5469H159.375V106ZM157.812 95.3047C157.812 95.0703 157.883 94.8724 158.023 94.7109C158.169 94.5495 158.383 94.4688 158.664 94.4688C158.945 94.4688 159.159 94.5495 159.305 94.7109C159.451 94.8724 159.523 95.0703 159.523 95.3047C159.523 95.5391 159.451 95.7344 159.305 95.8906C159.159 96.0469 158.945 96.125 158.664 96.125C158.383 96.125 158.169 96.0469 158.023 95.8906C157.883 95.7344 157.812 95.5391 157.812 95.3047ZM166.617 103.758C166.617 103.367 166.469 103.065 166.172 102.852C165.88 102.633 165.367 102.445 164.633 102.289C163.904 102.133 163.323 101.945 162.891 101.727C162.464 101.508 162.146 101.247 161.938 100.945C161.734 100.643 161.633 100.284 161.633 99.8672C161.633 99.1745 161.924 98.5885 162.508 98.1094C163.096 97.6302 163.846 97.3906 164.758 97.3906C165.716 97.3906 166.492 97.638 167.086 98.1328C167.685 98.6276 167.984 99.2604 167.984 100.031H166.531C166.531 99.6354 166.362 99.2943 166.023 99.0078C165.69 98.7214 165.268 98.5781 164.758 98.5781C164.232 98.5781 163.82 98.6927 163.523 98.9219C163.227 99.151 163.078 99.4505 163.078 99.8203C163.078 100.169 163.216 100.432 163.492 100.609C163.768 100.786 164.266 100.956 164.984 101.117C165.708 101.279 166.294 101.471 166.742 101.695C167.19 101.919 167.521 102.19 167.734 102.508C167.953 102.82 168.062 103.203 168.062 103.656C168.062 104.411 167.76 105.018 167.156 105.477C166.552 105.93 165.768 106.156 164.805 106.156C164.128 106.156 163.529 106.036 163.008 105.797C162.487 105.557 162.078 105.224 161.781 104.797C161.49 104.365 161.344 103.898 161.344 103.398H162.789C162.815 103.883 163.008 104.268 163.367 104.555C163.732 104.836 164.211 104.977 164.805 104.977C165.352 104.977 165.789 104.867 166.117 104.648C166.451 104.424 166.617 104.128 166.617 103.758ZM175.164 106C175.081 105.833 175.013 105.536 174.961 105.109C174.289 105.807 173.487 106.156 172.555 106.156C171.721 106.156 171.036 105.922 170.5 105.453C169.969 104.979 169.703 104.38 169.703 103.656C169.703 102.776 170.036 102.094 170.703 101.609C171.375 101.12 172.318 100.875 173.531 100.875H174.938V100.211C174.938 99.7057 174.786 99.3047 174.484 99.0078C174.182 98.7057 173.737 98.5547 173.148 98.5547C172.633 98.5547 172.201 98.6849 171.852 98.9453C171.503 99.2057 171.328 99.5208 171.328 99.8906H169.875C169.875 99.4688 170.023 99.0625 170.32 98.6719C170.622 98.276 171.029 97.9635 171.539 97.7344C172.055 97.5052 172.62 97.3906 173.234 97.3906C174.208 97.3906 174.971 97.6354 175.523 98.125C176.076 98.6094 176.362 99.2786 176.383 100.133V104.023C176.383 104.799 176.482 105.417 176.68 105.875V106H175.164ZM172.766 104.898C173.219 104.898 173.648 104.781 174.055 104.547C174.461 104.312 174.755 104.008 174.938 103.633V101.898H173.805C172.034 101.898 171.148 102.417 171.148 103.453C171.148 103.906 171.299 104.26 171.602 104.516C171.904 104.771 172.292 104.898 172.766 104.898ZM180.016 97.5469L180.062 98.6094C180.708 97.7969 181.552 97.3906 182.594 97.3906C184.38 97.3906 185.281 98.3984 185.297 100.414V106H183.852V100.406C183.846 99.7969 183.706 99.3464 183.43 99.0547C183.159 98.763 182.734 98.6172 182.156 98.6172C181.688 98.6172 181.276 98.7422 180.922 98.9922C180.568 99.2422 180.292 99.5703 180.094 99.9766V106H178.648V97.5469H180.016ZM188.969 97.5469V106.977C188.969 108.602 188.232 109.414 186.758 109.414C186.44 109.414 186.146 109.367 185.875 109.273V108.117C186.042 108.159 186.26 108.18 186.531 108.18C186.854 108.18 187.099 108.091 187.266 107.914C187.438 107.742 187.523 107.44 187.523 107.008V97.5469H188.969ZM187.375 95.3047C187.375 95.0755 187.445 94.8802 187.586 94.7188C187.732 94.5521 187.943 94.4688 188.219 94.4688C188.5 94.4688 188.714 94.5495 188.859 94.7109C189.005 94.8724 189.078 95.0703 189.078 95.3047C189.078 95.5391 189.005 95.7344 188.859 95.8906C188.714 96.0469 188.5 96.125 188.219 96.125C187.938 96.125 187.727 96.0469 187.586 95.8906C187.445 95.7344 187.375 95.5391 187.375 95.3047ZM194.812 106.156C193.667 106.156 192.734 105.781 192.016 105.031C191.297 104.276 190.938 103.268 190.938 102.008V101.742C190.938 100.904 191.096 100.156 191.414 99.5C191.737 98.8385 192.185 98.3229 192.758 97.9531C193.336 97.5781 193.961 97.3906 194.633 97.3906C195.732 97.3906 196.586 97.7526 197.195 98.4766C197.805 99.2005 198.109 100.237 198.109 101.586V102.188H192.383C192.404 103.021 192.646 103.695 193.109 104.211C193.578 104.721 194.172 104.977 194.891 104.977C195.401 104.977 195.833 104.872 196.188 104.664C196.542 104.456 196.852 104.18 197.117 103.836L198 104.523C197.292 105.612 196.229 106.156 194.812 106.156ZM194.633 98.5781C194.049 98.5781 193.56 98.7917 193.164 99.2188C192.768 99.6406 192.523 100.234 192.43 101H196.664V100.891C196.622 100.156 196.424 99.5885 196.07 99.1875C195.716 98.7812 195.237 98.5781 194.633 98.5781Z" fill="#C9D1D9"/>
<path d="M170.707 66.2929C170.317 65.9024 169.683 65.9024 169.293 66.2929L162.929 72.6569C162.538 73.0474 162.538 73.6805 162.929 74.0711C163.319 74.4616 163.953 74.4616 164.343 74.0711L170 68.4142L175.657 74.0711C176.047 74.4616 176.681 74.4616 177.071 74.0711C177.462 73.6805 177.462 73.0474 177.071 72.6569L170.707 66.2929ZM171 92V67H169V92H171Z" fill="#C9D1D9"/>
<path d="M172.127 56.6973H167.361V55.2227H172.127V56.6973Z" fill="#E30310"/>
<path d="M10.1562 4.7207H6.37695V16H4.61914V4.7207H0.839844V3.23633H10.1562V4.7207ZM16.4941 6.01953C16.696 6.01953 16.888 6.06185 17.0703 6.14648C17.2526 6.22461 17.4121 6.33203 17.5488 6.46875C17.6855 6.60547 17.793 6.76497 17.8711 6.94727C17.9557 7.12956 17.998 7.32161 17.998 7.52344C17.998 7.73177 17.9557 7.92708 17.8711 8.10938C17.793 8.28516 17.6855 8.44141 17.5488 8.57812C17.4121 8.71484 17.2526 8.82227 17.0703 8.90039C16.888 8.97852 16.696 9.01758 16.4941 9.01758C16.2858 9.01758 16.0905 8.97852 15.9082 8.90039C15.7324 8.82227 15.5762 8.71484 15.4395 8.57812C15.3027 8.44141 15.1953 8.28516 15.1172 8.10938C15.0391 7.92708 15 7.73177 15 7.52344C15 7.32161 15.0391 7.12956 15.1172 6.94727C15.1953 6.76497 15.3027 6.60547 15.4395 6.46875C15.5762 6.33203 15.7324 6.22461 15.9082 6.14648C16.0905 6.06185 16.2858 6.01953 16.4941 6.01953ZM16.4941 13.1777C16.696 13.1777 16.888 13.2201 17.0703 13.3047C17.2526 13.3828 17.4121 13.4902 17.5488 13.627C17.6855 13.7637 17.793 13.9232 17.8711 14.1055C17.9557 14.2878 17.998 14.4798 17.998 14.6816C17.998 14.89 17.9557 15.0853 17.8711 15.2676C17.793 15.4434 17.6855 15.5996 17.5488 15.7363C17.4121 15.873 17.2526 15.9805 17.0703 16.0586C16.888 16.1367 16.696 16.1758 16.4941 16.1758C16.2858 16.1758 16.0905 16.1367 15.9082 16.0586C15.7324 15.9805 15.5762 15.873 15.4395 15.7363C15.3027 15.5996 15.1953 15.4434 15.1172 15.2676C15.0391 15.0853 15 14.89 15 14.6816C15 14.4798 15.0391 14.2878 15.1172 14.1055C15.1953 13.9232 15.3027 13.7637 15.4395 13.627C15.5762 13.4902 15.7324 13.3828 15.9082 13.3047C16.0905 13.2201 16.2858 13.1777 16.4941 13.1777ZM42.8125 5.42383C42.3372 5.16992 41.849 4.97461 41.3477 4.83789C40.8464 4.69466 40.2995 4.62305 39.707 4.62305C39.0299 4.62305 38.4277 4.74349 37.9004 4.98438C37.373 5.22526 36.9271 5.56706 36.5625 6.00977C36.2044 6.44596 35.9277 6.97331 35.7324 7.5918C35.5436 8.21029 35.4492 8.89388 35.4492 9.64258C35.4492 10.4238 35.5273 11.1237 35.6836 11.7422C35.8398 12.3607 36.084 12.8848 36.416 13.3145C36.748 13.7441 37.1712 14.0729 37.6855 14.3008C38.2064 14.5286 38.8281 14.6426 39.5508 14.6426C39.6745 14.6426 39.8079 14.6361 39.9512 14.623C40.0944 14.61 40.2376 14.5938 40.3809 14.5742C40.5241 14.5482 40.6608 14.5189 40.791 14.4863C40.9277 14.4538 41.0482 14.418 41.1523 14.3789V10.3164H38.5449V8.88086H42.8711V15.4043C42.6042 15.528 42.321 15.6387 42.0215 15.7363C41.7285 15.834 41.4258 15.9154 41.1133 15.9805C40.8073 16.0456 40.5013 16.0944 40.1953 16.127C39.8893 16.1595 39.5931 16.1758 39.3066 16.1758C38.4342 16.1758 37.6465 16.0391 36.9434 15.7656C36.2467 15.4922 35.651 15.0885 35.1562 14.5547C34.668 14.0143 34.2904 13.3438 34.0234 12.543C33.763 11.7422 33.6328 10.8145 33.6328 9.75977C33.6328 8.71159 33.7793 7.77409 34.0723 6.94727C34.3652 6.11393 34.7754 5.41081 35.3027 4.83789C35.8366 4.25846 36.4746 3.81901 37.2168 3.51953C37.9655 3.21354 38.7891 3.06055 39.6875 3.06055C40.2604 3.06055 40.804 3.11263 41.3184 3.2168C41.8392 3.31445 42.3372 3.47396 42.8125 3.69531V5.42383ZM53.8086 5.42383C53.3333 5.16992 52.8451 4.97461 52.3438 4.83789C51.8424 4.69466 51.2956 4.62305 50.7031 4.62305C50.026 4.62305 49.4238 4.74349 48.8965 4.98438C48.3691 5.22526 47.9232 5.56706 47.5586 6.00977C47.2005 6.44596 46.9238 6.97331 46.7285 7.5918C46.5397 8.21029 46.4453 8.89388 46.4453 9.64258C46.4453 10.4238 46.5234 11.1237 46.6797 11.7422C46.8359 12.3607 47.0801 12.8848 47.4121 13.3145C47.7441 13.7441 48.1673 14.0729 48.6816 14.3008C49.2025 14.5286 49.8242 14.6426 50.5469 14.6426C50.6706 14.6426 50.804 14.6361 50.9473 14.623C51.0905 14.61 51.2337 14.5938 51.377 14.5742C51.5202 14.5482 51.6569 14.5189 51.7871 14.4863C51.9238 14.4538 52.0443 14.418 52.1484 14.3789V10.3164H49.541V8.88086H53.8672V15.4043C53.6003 15.528 53.3171 15.6387 53.0176 15.7363C52.7246 15.834 52.4219 15.9154 52.1094 15.9805C51.8034 16.0456 51.4974 16.0944 51.1914 16.127C50.8854 16.1595 50.5892 16.1758 50.3027 16.1758C49.4303 16.1758 48.6426 16.0391 47.9395 15.7656C47.2428 15.4922 46.6471 15.0885 46.1523 14.5547C45.6641 14.0143 45.2865 13.3438 45.0195 12.543C44.7591 11.7422 44.6289 10.8145 44.6289 9.75977C44.6289 8.71159 44.7754 7.77409 45.0684 6.94727C45.3613 6.11393 45.7715 5.41081 46.2988 4.83789C46.8327 4.25846 47.4707 3.81901 48.2129 3.51953C48.9616 3.21354 49.7852 3.06055 50.6836 3.06055C51.2565 3.06055 51.8001 3.11263 52.3145 3.2168C52.8353 3.31445 53.3333 3.47396 53.8086 3.69531V5.42383ZM65.8789 16H63.9844L63.0957 13.2168H57.7832L56.8848 16H55.0781L59.3164 3.23633H61.6992L65.8789 16ZM62.5977 11.6641L60.4395 4.83789L58.2812 11.6641H62.5977ZM76.875 16H74.9805L74.0918 13.2168H68.7793L67.8809 16H66.0742L70.3125 3.23633H72.6953L76.875 16ZM73.5938 11.6641L71.4355 4.83789L69.2773 11.6641H73.5938ZM87.8711 16H85.9766L85.0879 13.2168H79.7754L78.877 16H77.0703L81.3086 3.23633H83.6914L87.8711 16ZM84.5898 11.6641L82.4316 4.83789L80.2734 11.6641H84.5898ZM98.8672 16H96.9727L96.084 13.2168H90.7715L89.873 16H88.0664L92.3047 3.23633H94.6875L98.8672 16ZM95.5859 11.6641L93.4277 4.83789L91.2695 11.6641H95.5859ZM109.863 16H107.969L107.08 13.2168H101.768L100.869 16H99.0625L103.301 3.23633H105.684L109.863 16ZM106.582 11.6641L104.424 4.83789L102.266 11.6641H106.582ZM119.785 5.42383C119.31 5.16992 118.822 4.97461 118.32 4.83789C117.819 4.69466 117.272 4.62305 116.68 4.62305C116.003 4.62305 115.4 4.74349 114.873 4.98438C114.346 5.22526 113.9 5.56706 113.535 6.00977C113.177 6.44596 112.9 6.97331 112.705 7.5918C112.516 8.21029 112.422 8.89388 112.422 9.64258C112.422 10.4238 112.5 11.1237 112.656 11.7422C112.812 12.3607 113.057 12.8848 113.389 13.3145C113.721 13.7441 114.144 14.0729 114.658 14.3008C115.179 14.5286 115.801 14.6426 116.523 14.6426C116.647 14.6426 116.781 14.6361 116.924 14.623C117.067 14.61 117.21 14.5938 117.354 14.5742C117.497 14.5482 117.633 14.5189 117.764 14.4863C117.9 14.4538 118.021 14.418 118.125 14.3789V10.3164H115.518V8.88086H119.844V15.4043C119.577 15.528 119.294 15.6387 118.994 15.7363C118.701 15.834 118.398 15.9154 118.086 15.9805C117.78 16.0456 117.474 16.0944 117.168 16.127C116.862 16.1595 116.566 16.1758 116.279 16.1758C115.407 16.1758 114.619 16.0391 113.916 15.7656C113.219 15.4922 112.624 15.0885 112.129 14.5547C111.641 14.0143 111.263 13.3438 110.996 12.543C110.736 11.7422 110.605 10.8145 110.605 9.75977C110.605 8.71159 110.752 7.77409 111.045 6.94727C111.338 6.11393 111.748 5.41081 112.275 4.83789C112.809 4.25846 113.447 3.81901 114.189 3.51953C114.938 3.21354 115.762 3.06055 116.66 3.06055C117.233 3.06055 117.777 3.11263 118.291 3.2168C118.812 3.31445 119.31 3.47396 119.785 3.69531V5.42383ZM131.855 16H129.961L129.072 13.2168H123.76L122.861 16H121.055L125.293 3.23633H127.676L131.855 16ZM128.574 11.6641L126.416 4.83789L124.258 11.6641H128.574ZM141.777 5.42383C141.302 5.16992 140.814 4.97461 140.312 4.83789C139.811 4.69466 139.264 4.62305 138.672 4.62305C137.995 4.62305 137.393 4.74349 136.865 4.98438C136.338 5.22526 135.892 5.56706 135.527 6.00977C135.169 6.44596 134.893 6.97331 134.697 7.5918C134.508 8.21029 134.414 8.89388 134.414 9.64258C134.414 10.4238 134.492 11.1237 134.648 11.7422C134.805 12.3607 135.049 12.8848 135.381 13.3145C135.713 13.7441 136.136 14.0729 136.65 14.3008C137.171 14.5286 137.793 14.6426 138.516 14.6426C138.639 14.6426 138.773 14.6361 138.916 14.623C139.059 14.61 139.202 14.5938 139.346 14.5742C139.489 14.5482 139.626 14.5189 139.756 14.4863C139.893 14.4538 140.013 14.418 140.117 14.3789V10.3164H137.51V8.88086H141.836V15.4043C141.569 15.528 141.286 15.6387 140.986 15.7363C140.693 15.834 140.391 15.9154 140.078 15.9805C139.772 16.0456 139.466 16.0944 139.16 16.127C138.854 16.1595 138.558 16.1758 138.271 16.1758C137.399 16.1758 136.611 16.0391 135.908 15.7656C135.212 15.4922 134.616 15.0885 134.121 14.5547C133.633 14.0143 133.255 13.3438 132.988 12.543C132.728 11.7422 132.598 10.8145 132.598 9.75977C132.598 8.71159 132.744 7.77409 133.037 6.94727C133.33 6.11393 133.74 5.41081 134.268 4.83789C134.801 4.25846 135.439 3.81901 136.182 3.51953C136.93 3.21354 137.754 3.06055 138.652 3.06055C139.225 3.06055 139.769 3.11263 140.283 3.2168C140.804 3.31445 141.302 3.47396 141.777 3.69531V5.42383ZM241.074 4.7207H237.295V16H235.537V4.7207H231.758V3.23633H241.074V4.7207ZM252.07 4.7207H248.291V16H246.533V4.7207H242.754V3.23633H252.07V4.7207ZM263.066 4.7207H259.287V16H257.529V4.7207H253.75V3.23633H263.066V4.7207ZM274.805 16H272.91L272.021 13.2168H266.709L265.811 16H264.004L268.242 3.23633H270.625L274.805 16ZM271.523 11.6641L269.365 4.83789L267.207 11.6641H271.523ZM285.801 16H283.906L283.018 13.2168H277.705L276.807 16H275L279.238 3.23633H281.621L285.801 16ZM282.52 11.6641L280.361 4.83789L278.203 11.6641H282.52ZM295.615 15.5215C294.593 15.9447 293.522 16.1562 292.402 16.1562C290.599 16.1562 289.212 15.6191 288.242 14.5449C287.279 13.4642 286.797 11.8691 286.797 9.75977C286.797 8.73763 286.93 7.81315 287.197 6.98633C287.464 6.15951 287.845 5.45964 288.34 4.88672C288.835 4.30729 289.434 3.86133 290.137 3.54883C290.84 3.23633 291.628 3.08008 292.5 3.08008C293.092 3.08008 293.643 3.13216 294.15 3.23633C294.658 3.33398 295.146 3.48698 295.615 3.69531V5.4043C295.153 5.15039 294.674 4.95833 294.18 4.82812C293.685 4.69141 293.145 4.62305 292.559 4.62305C291.96 4.62305 291.416 4.73698 290.928 4.96484C290.446 5.1862 290.036 5.51172 289.697 5.94141C289.359 6.36458 289.098 6.88542 288.916 7.50391C288.734 8.11589 288.643 8.81576 288.643 9.60352C288.643 11.2572 288.978 12.5039 289.648 13.3438C290.319 14.1836 291.302 14.6035 292.598 14.6035C293.145 14.6035 293.669 14.5417 294.17 14.418C294.671 14.2878 295.153 14.1087 295.615 13.8809V15.5215ZM307.793 16H305.898L305.01 13.2168H299.697L298.799 16H296.992L301.23 3.23633H303.613L307.793 16ZM304.512 11.6641L302.354 4.83789L300.195 11.6641H304.512ZM317.715 5.42383C317.24 5.16992 316.751 4.97461 316.25 4.83789C315.749 4.69466 315.202 4.62305 314.609 4.62305C313.932 4.62305 313.33 4.74349 312.803 4.98438C312.275 5.22526 311.829 5.56706 311.465 6.00977C311.107 6.44596 310.83 6.97331 310.635 7.5918C310.446 8.21029 310.352 8.89388 310.352 9.64258C310.352 10.4238 310.43 11.1237 310.586 11.7422C310.742 12.3607 310.986 12.8848 311.318 13.3145C311.65 13.7441 312.074 14.0729 312.588 14.3008C313.109 14.5286 313.73 14.6426 314.453 14.6426C314.577 14.6426 314.71 14.6361 314.854 14.623C314.997 14.61 315.14 14.5938 315.283 14.5742C315.426 14.5482 315.563 14.5189 315.693 14.4863C315.83 14.4538 315.951 14.418 316.055 14.3789V10.3164H313.447V8.88086H317.773V15.4043C317.507 15.528 317.223 15.6387 316.924 15.7363C316.631 15.834 316.328 15.9154 316.016 15.9805C315.71 16.0456 315.404 16.0944 315.098 16.127C314.792 16.1595 314.495 16.1758 314.209 16.1758C313.337 16.1758 312.549 16.0391 311.846 15.7656C311.149 15.4922 310.553 15.0885 310.059 14.5547C309.57 14.0143 309.193 13.3438 308.926 12.543C308.665 11.7422 308.535 10.8145 308.535 9.75977C308.535 8.71159 308.682 7.77409 308.975 6.94727C309.268 6.11393 309.678 5.41081 310.205 4.83789C310.739 4.25846 311.377 3.81901 312.119 3.51953C312.868 3.21354 313.691 3.06055 314.59 3.06055C315.163 3.06055 315.706 3.11263 316.221 3.2168C316.742 3.31445 317.24 3.47396 317.715 3.69531V5.42383ZM329.043 4.7207H325.264V16H323.506V4.7207H319.727V3.23633H329.043V4.7207ZM340.781 16H338.887L337.998 13.2168H332.686L331.787 16H329.98L334.219 3.23633H336.602L340.781 16ZM337.5 11.6641L335.342 4.83789L333.184 11.6641H337.5ZM350.703 5.42383C350.228 5.16992 349.74 4.97461 349.238 4.83789C348.737 4.69466 348.19 4.62305 347.598 4.62305C346.921 4.62305 346.318 4.74349 345.791 4.98438C345.264 5.22526 344.818 5.56706 344.453 6.00977C344.095 6.44596 343.818 6.97331 343.623 7.5918C343.434 8.21029 343.34 8.89388 343.34 9.64258C343.34 10.4238 343.418 11.1237 343.574 11.7422C343.73 12.3607 343.975 12.8848 344.307 13.3145C344.639 13.7441 345.062 14.0729 345.576 14.3008C346.097 14.5286 346.719 14.6426 347.441 14.6426C347.565 14.6426 347.699 14.6361 347.842 14.623C347.985 14.61 348.128 14.5938 348.271 14.5742C348.415 14.5482 348.551 14.5189 348.682 14.4863C348.818 14.4538 348.939 14.418 349.043 14.3789V10.3164H346.436V8.88086H350.762V15.4043C350.495 15.528 350.212 15.6387 349.912 15.7363C349.619 15.834 349.316 15.9154 349.004 15.9805C348.698 16.0456 348.392 16.0944 348.086 16.127C347.78 16.1595 347.484 16.1758 347.197 16.1758C346.325 16.1758 345.537 16.0391 344.834 15.7656C344.137 15.4922 343.542 15.0885 343.047 14.5547C342.559 14.0143 342.181 13.3438 341.914 12.543C341.654 11.7422 341.523 10.8145 341.523 9.75977C341.523 8.71159 341.67 7.77409 341.963 6.94727C342.256 6.11393 342.666 5.41081 343.193 4.83789C343.727 4.25846 344.365 3.81901 345.107 3.51953C345.856 3.21354 346.68 3.06055 347.578 3.06055C348.151 3.06055 348.695 3.11263 349.209 3.2168C349.73 3.31445 350.228 3.47396 350.703 3.69531V5.42383ZM9.92188 53.1426C9.92188 53.6634 9.82422 54.181 9.62891 54.6953C9.43359 55.2031 9.13086 55.6589 8.7207 56.0625C8.31055 56.4661 7.78646 56.7949 7.14844 57.0488C6.51042 57.2962 5.7487 57.4199 4.86328 57.4199H3.28125V62H1.54297V49.2363H5.13672C5.76823 49.2363 6.3737 49.3079 6.95312 49.4512C7.53255 49.5879 8.04036 49.8125 8.47656 50.125C8.91927 50.4375 9.27083 50.8411 9.53125 51.3359C9.79167 51.8307 9.92188 52.4329 9.92188 53.1426ZM8.11523 53.2207C8.11523 52.4004 7.84505 51.7721 7.30469 51.3359C6.77083 50.8997 6.02214 50.6816 5.05859 50.6816H3.28125V55.9355H4.90234C5.93099 55.9355 6.72201 55.7109 7.27539 55.2617C7.83529 54.8125 8.11523 54.1322 8.11523 53.2207ZM16.4941 52.0195C16.696 52.0195 16.888 52.0618 17.0703 52.1465C17.2526 52.2246 17.4121 52.332 17.5488 52.4688C17.6855 52.6055 17.793 52.765 17.8711 52.9473C17.9557 53.1296 17.998 53.3216 17.998 53.5234C17.998 53.7318 17.9557 53.9271 17.8711 54.1094C17.793 54.2852 17.6855 54.4414 17.5488 54.5781C17.4121 54.7148 17.2526 54.8223 17.0703 54.9004C16.888 54.9785 16.696 55.0176 16.4941 55.0176C16.2858 55.0176 16.0905 54.9785 15.9082 54.9004C15.7324 54.8223 15.5762 54.7148 15.4395 54.5781C15.3027 54.4414 15.1953 54.2852 15.1172 54.1094C15.0391 53.9271 15 53.7318 15 53.5234C15 53.3216 15.0391 53.1296 15.1172 52.9473C15.1953 52.765 15.3027 52.6055 15.4395 52.4688C15.5762 52.332 15.7324 52.2246 15.9082 52.1465C16.0905 52.0618 16.2858 52.0195 16.4941 52.0195ZM16.4941 59.1777C16.696 59.1777 16.888 59.2201 17.0703 59.3047C17.2526 59.3828 17.4121 59.4902 17.5488 59.627C17.6855 59.7637 17.793 59.9232 17.8711 60.1055C17.9557 60.2878 17.998 60.4798 17.998 60.6816C17.998 60.89 17.9557 61.0853 17.8711 61.2676C17.793 61.4434 17.6855 61.5996 17.5488 61.7363C17.4121 61.873 17.2526 61.9805 17.0703 62.0586C16.888 62.1367 16.696 62.1758 16.4941 62.1758C16.2858 62.1758 16.0905 62.1367 15.9082 62.0586C15.7324 61.9805 15.5762 61.873 15.4395 61.7363C15.3027 61.5996 15.1953 61.4434 15.1172 61.2676C15.0391 61.0853 15 60.89 15 60.6816C15 60.4798 15.0391 60.2878 15.1172 60.1055C15.1953 59.9232 15.3027 59.7637 15.4395 59.627C15.5762 59.4902 15.7324 59.3828 15.9082 59.3047C16.0905 59.2201 16.2858 59.1777 16.4941 59.1777Z" fill="#C9D1D9"/>
<path d="M152.773 5.42383C152.298 5.16992 151.81 4.97461 151.309 4.83789C150.807 4.69466 150.26 4.62305 149.668 4.62305C148.991 4.62305 148.389 4.74349 147.861 4.98438C147.334 5.22526 146.888 5.56706 146.523 6.00977C146.165 6.44596 145.889 6.97331 145.693 7.5918C145.505 8.21029 145.41 8.89388 145.41 9.64258C145.41 10.4238 145.488 11.1237 145.645 11.7422C145.801 12.3607 146.045 12.8848 146.377 13.3145C146.709 13.7441 147.132 14.0729 147.646 14.3008C148.167 14.5286 148.789 14.6426 149.512 14.6426C149.635 14.6426 149.769 14.6361 149.912 14.623C150.055 14.61 150.199 14.5938 150.342 14.5742C150.485 14.5482 150.622 14.5189 150.752 14.4863C150.889 14.4538 151.009 14.418 151.113 14.3789V10.3164H148.506V8.88086H152.832V15.4043C152.565 15.528 152.282 15.6387 151.982 15.7363C151.689 15.834 151.387 15.9154 151.074 15.9805C150.768 16.0456 150.462 16.0944 150.156 16.127C149.85 16.1595 149.554 16.1758 149.268 16.1758C148.395 16.1758 147.607 16.0391 146.904 15.7656C146.208 15.4922 145.612 15.0885 145.117 14.5547C144.629 14.0143 144.251 13.3438 143.984 12.543C143.724 11.7422 143.594 10.8145 143.594 9.75977C143.594 8.71159 143.74 7.77409 144.033 6.94727C144.326 6.11393 144.736 5.41081 145.264 4.83789C145.798 4.25846 146.436 3.81901 147.178 3.51953C147.926 3.21354 148.75 3.06055 149.648 3.06055C150.221 3.06055 150.765 3.11263 151.279 3.2168C151.8 3.31445 152.298 3.47396 152.773 3.69531V5.42383ZM164.102 4.7207H160.322V16H158.564V4.7207H154.785V3.23633H164.102V4.7207ZM185.762 5.42383C185.286 5.16992 184.798 4.97461 184.297 4.83789C183.796 4.69466 183.249 4.62305 182.656 4.62305C181.979 4.62305 181.377 4.74349 180.85 4.98438C180.322 5.22526 179.876 5.56706 179.512 6.00977C179.154 6.44596 178.877 6.97331 178.682 7.5918C178.493 8.21029 178.398 8.89388 178.398 9.64258C178.398 10.4238 178.477 11.1237 178.633 11.7422C178.789 12.3607 179.033 12.8848 179.365 13.3145C179.697 13.7441 180.12 14.0729 180.635 14.3008C181.156 14.5286 181.777 14.6426 182.5 14.6426C182.624 14.6426 182.757 14.6361 182.9 14.623C183.044 14.61 183.187 14.5938 183.33 14.5742C183.473 14.5482 183.61 14.5189 183.74 14.4863C183.877 14.4538 183.997 14.418 184.102 14.3789V10.3164H181.494V8.88086H185.82V15.4043C185.553 15.528 185.27 15.6387 184.971 15.7363C184.678 15.834 184.375 15.9154 184.062 15.9805C183.757 16.0456 183.451 16.0944 183.145 16.127C182.839 16.1595 182.542 16.1758 182.256 16.1758C181.383 16.1758 180.596 16.0391 179.893 15.7656C179.196 15.4922 178.6 15.0885 178.105 14.5547C177.617 14.0143 177.24 13.3438 176.973 12.543C176.712 11.7422 176.582 10.8145 176.582 9.75977C176.582 8.71159 176.729 7.77409 177.021 6.94727C177.314 6.11393 177.725 5.41081 178.252 4.83789C178.786 4.25846 179.424 3.81901 180.166 3.51953C180.915 3.21354 181.738 3.06055 182.637 3.06055C183.21 3.06055 183.753 3.11263 184.268 3.2168C184.788 3.31445 185.286 3.47396 185.762 3.69531V5.42383ZM196.65 15.5215C195.628 15.9447 194.557 16.1562 193.438 16.1562C191.634 16.1562 190.247 15.6191 189.277 14.5449C188.314 13.4642 187.832 11.8691 187.832 9.75977C187.832 8.73763 187.965 7.81315 188.232 6.98633C188.499 6.15951 188.88 5.45964 189.375 4.88672C189.87 4.30729 190.469 3.86133 191.172 3.54883C191.875 3.23633 192.663 3.08008 193.535 3.08008C194.128 3.08008 194.678 3.13216 195.186 3.23633C195.693 3.33398 196.182 3.48698 196.65 3.69531V5.4043C196.188 5.15039 195.71 4.95833 195.215 4.82812C194.72 4.69141 194.18 4.62305 193.594 4.62305C192.995 4.62305 192.451 4.73698 191.963 4.96484C191.481 5.1862 191.071 5.51172 190.732 5.94141C190.394 6.36458 190.133 6.88542 189.951 7.50391C189.769 8.11589 189.678 8.81576 189.678 9.60352C189.678 11.2572 190.013 12.5039 190.684 13.3438C191.354 14.1836 192.337 14.6035 193.633 14.6035C194.18 14.6035 194.704 14.5417 195.205 14.418C195.706 14.2878 196.188 14.1087 196.65 13.8809V15.5215ZM207.754 5.42383C207.279 5.16992 206.79 4.97461 206.289 4.83789C205.788 4.69466 205.241 4.62305 204.648 4.62305C203.971 4.62305 203.369 4.74349 202.842 4.98438C202.314 5.22526 201.868 5.56706 201.504 6.00977C201.146 6.44596 200.869 6.97331 200.674 7.5918C200.485 8.21029 200.391 8.89388 200.391 9.64258C200.391 10.4238 200.469 11.1237 200.625 11.7422C200.781 12.3607 201.025 12.8848 201.357 13.3145C201.689 13.7441 202.113 14.0729 202.627 14.3008C203.148 14.5286 203.77 14.6426 204.492 14.6426C204.616 14.6426 204.749 14.6361 204.893 14.623C205.036 14.61 205.179 14.5938 205.322 14.5742C205.465 14.5482 205.602 14.5189 205.732 14.4863C205.869 14.4538 205.99 14.418 206.094 14.3789V10.3164H203.486V8.88086H207.812V15.4043C207.546 15.528 207.262 15.6387 206.963 15.7363C206.67 15.834 206.367 15.9154 206.055 15.9805C205.749 16.0456 205.443 16.0944 205.137 16.127C204.831 16.1595 204.535 16.1758 204.248 16.1758C203.376 16.1758 202.588 16.0391 201.885 15.7656C201.188 15.4922 200.592 15.0885 200.098 14.5547C199.609 14.0143 199.232 13.3438 198.965 12.543C198.704 11.7422 198.574 10.8145 198.574 9.75977C198.574 8.71159 198.721 7.77409 199.014 6.94727C199.307 6.11393 199.717 5.41081 200.244 4.83789C200.778 4.25846 201.416 3.81901 202.158 3.51953C202.907 3.21354 203.73 3.06055 204.629 3.06055C205.202 3.06055 205.745 3.11263 206.26 3.2168C206.781 3.31445 207.279 3.47396 207.754 3.69531V5.42383ZM218.643 15.5215C217.62 15.9447 216.549 16.1562 215.43 16.1562C213.626 16.1562 212.24 15.6191 211.27 14.5449C210.306 13.4642 209.824 11.8691 209.824 9.75977C209.824 8.73763 209.958 7.81315 210.225 6.98633C210.492 6.15951 210.872 5.45964 211.367 4.88672C211.862 4.30729 212.461 3.86133 213.164 3.54883C213.867 3.23633 214.655 3.08008 215.527 3.08008C216.12 3.08008 216.67 3.13216 217.178 3.23633C217.686 3.33398 218.174 3.48698 218.643 3.69531V5.4043C218.18 5.15039 217.702 4.95833 217.207 4.82812C216.712 4.69141 216.172 4.62305 215.586 4.62305C214.987 4.62305 214.443 4.73698 213.955 4.96484C213.473 5.1862 213.063 5.51172 212.725 5.94141C212.386 6.36458 212.126 6.88542 211.943 7.50391C211.761 8.11589 211.67 8.81576 211.67 9.60352C211.67 11.2572 212.005 12.5039 212.676 13.3438C213.346 14.1836 214.329 14.6035 215.625 14.6035C216.172 14.6035 216.696 14.5417 217.197 14.418C217.699 14.2878 218.18 14.1087 218.643 13.8809V15.5215ZM229.746 5.42383C229.271 5.16992 228.783 4.97461 228.281 4.83789C227.78 4.69466 227.233 4.62305 226.641 4.62305C225.964 4.62305 225.361 4.74349 224.834 4.98438C224.307 5.22526 223.861 5.56706 223.496 6.00977C223.138 6.44596 222.861 6.97331 222.666 7.5918C222.477 8.21029 222.383 8.89388 222.383 9.64258C222.383 10.4238 222.461 11.1237 222.617 11.7422C222.773 12.3607 223.018 12.8848 223.35 13.3145C223.682 13.7441 224.105 14.0729 224.619 14.3008C225.14 14.5286 225.762 14.6426 226.484 14.6426C226.608 14.6426 226.742 14.6361 226.885 14.623C227.028 14.61 227.171 14.5938 227.314 14.5742C227.458 14.5482 227.594 14.5189 227.725 14.4863C227.861 14.4538 227.982 14.418 228.086 14.3789V10.3164H225.479V8.88086H229.805V15.4043C229.538 15.528 229.255 15.6387 228.955 15.7363C228.662 15.834 228.359 15.9154 228.047 15.9805C227.741 16.0456 227.435 16.0944 227.129 16.127C226.823 16.1595 226.527 16.1758 226.24 16.1758C225.368 16.1758 224.58 16.0391 223.877 15.7656C223.18 15.4922 222.585 15.0885 222.09 14.5547C221.602 14.0143 221.224 13.3438 220.957 12.543C220.697 11.7422 220.566 10.8145 220.566 9.75977C220.566 8.71159 220.713 7.77409 221.006 6.94727C221.299 6.11393 221.709 5.41081 222.236 4.83789C222.77 4.25846 223.408 3.81901 224.15 3.51953C224.899 3.21354 225.723 3.06055 226.621 3.06055C227.194 3.06055 227.738 3.11263 228.252 3.2168C228.773 3.31445 229.271 3.47396 229.746 3.69531V5.42383ZM152.773 51.4238C152.298 51.1699 151.81 50.9746 151.309 50.8379C150.807 50.6947 150.26 50.623 149.668 50.623C148.991 50.623 148.389 50.7435 147.861 50.9844C147.334 51.2253 146.888 51.5671 146.523 52.0098C146.165 52.446 145.889 52.9733 145.693 53.5918C145.505 54.2103 145.41 54.8939 145.41 55.6426C145.41 56.4238 145.488 57.1237 145.645 57.7422C145.801 58.3607 146.045 58.8848 146.377 59.3145C146.709 59.7441 147.132 60.0729 147.646 60.3008C148.167 60.5286 148.789 60.6426 149.512 60.6426C149.635 60.6426 149.769 60.6361 149.912 60.623C150.055 60.61 150.199 60.5938 150.342 60.5742C150.485 60.5482 150.622 60.5189 150.752 60.4863C150.889 60.4538 151.009 60.418 151.113 60.3789V56.3164H148.506V54.8809H152.832V61.4043C152.565 61.528 152.282 61.6387 151.982 61.7363C151.689 61.834 151.387 61.9154 151.074 61.9805C150.768 62.0456 150.462 62.0944 150.156 62.127C149.85 62.1595 149.554 62.1758 149.268 62.1758C148.395 62.1758 147.607 62.0391 146.904 61.7656C146.208 61.4922 145.612 61.0885 145.117 60.5547C144.629 60.0143 144.251 59.3438 143.984 58.543C143.724 57.7422 143.594 56.8145 143.594 55.7598C143.594 54.7116 143.74 53.7741 144.033 52.9473C144.326 52.1139 144.736 51.4108 145.264 50.8379C145.798 50.2585 146.436 49.819 147.178 49.5195C147.926 49.2135 148.75 49.0605 149.648 49.0605C150.221 49.0605 150.765 49.1126 151.279 49.2168C151.8 49.3145 152.298 49.474 152.773 49.6953V51.4238ZM164.102 50.7207H160.322V62H158.564V50.7207H154.785V49.2363H164.102V50.7207ZM185.762 51.4238C185.286 51.1699 184.798 50.9746 184.297 50.8379C183.796 50.6947 183.249 50.623 182.656 50.623C181.979 50.623 181.377 50.7435 180.85 50.9844C180.322 51.2253 179.876 51.5671 179.512 52.0098C179.154 52.446 178.877 52.9733 178.682 53.5918C178.493 54.2103 178.398 54.8939 178.398 55.6426C178.398 56.4238 178.477 57.1237 178.633 57.7422C178.789 58.3607 179.033 58.8848 179.365 59.3145C179.697 59.7441 180.12 60.0729 180.635 60.3008C181.156 60.5286 181.777 60.6426 182.5 60.6426C182.624 60.6426 182.757 60.6361 182.9 60.623C183.044 60.61 183.187 60.5938 183.33 60.5742C183.473 60.5482 183.61 60.5189 183.74 60.4863C183.877 60.4538 183.997 60.418 184.102 60.3789V56.3164H181.494V54.8809H185.82V61.4043C185.553 61.528 185.27 61.6387 184.971 61.7363C184.678 61.834 184.375 61.9154 184.062 61.9805C183.757 62.0456 183.451 62.0944 183.145 62.127C182.839 62.1595 182.542 62.1758 182.256 62.1758C181.383 62.1758 180.596 62.0391 179.893 61.7656C179.196 61.4922 178.6 61.0885 178.105 60.5547C177.617 60.0143 177.24 59.3438 176.973 58.543C176.712 57.7422 176.582 56.8145 176.582 55.7598C176.582 54.7116 176.729 53.7741 177.021 52.9473C177.314 52.1139 177.725 51.4108 178.252 50.8379C178.786 50.2585 179.424 49.819 180.166 49.5195C180.915 49.2135 181.738 49.0605 182.637 49.0605C183.21 49.0605 183.753 49.1126 184.268 49.2168C184.788 49.3145 185.286 49.474 185.762 49.6953V51.4238ZM196.65 61.5215C195.628 61.9447 194.557 62.1562 193.438 62.1562C191.634 62.1562 190.247 61.6191 189.277 60.5449C188.314 59.4642 187.832 57.8691 187.832 55.7598C187.832 54.7376 187.965 53.8132 188.232 52.9863C188.499 52.1595 188.88 51.4596 189.375 50.8867C189.87 50.3073 190.469 49.8613 191.172 49.5488C191.875 49.2363 192.663 49.0801 193.535 49.0801C194.128 49.0801 194.678 49.1322 195.186 49.2363C195.693 49.334 196.182 49.487 196.65 49.6953V51.4043C196.188 51.1504 195.71 50.9583 195.215 50.8281C194.72 50.6914 194.18 50.623 193.594 50.623C192.995 50.623 192.451 50.737 191.963 50.9648C191.481 51.1862 191.071 51.5117 190.732 51.9414C190.394 52.3646 190.133 52.8854 189.951 53.5039C189.769 54.1159 189.678 54.8158 189.678 55.6035C189.678 57.2572 190.013 58.5039 190.684 59.3438C191.354 60.1836 192.337 60.6035 193.633 60.6035C194.18 60.6035 194.704 60.5417 195.205 60.418C195.706 60.2878 196.188 60.1087 196.65 59.8809V61.5215ZM207.754 51.4238C207.279 51.1699 206.79 50.9746 206.289 50.8379C205.788 50.6947 205.241 50.623 204.648 50.623C203.971 50.623 203.369 50.7435 202.842 50.9844C202.314 51.2253 201.868 51.5671 201.504 52.0098C201.146 52.446 200.869 52.9733 200.674 53.5918C200.485 54.2103 200.391 54.8939 200.391 55.6426C200.391 56.4238 200.469 57.1237 200.625 57.7422C200.781 58.3607 201.025 58.8848 201.357 59.3145C201.689 59.7441 202.113 60.0729 202.627 60.3008C203.148 60.5286 203.77 60.6426 204.492 60.6426C204.616 60.6426 204.749 60.6361 204.893 60.623C205.036 60.61 205.179 60.5938 205.322 60.5742C205.465 60.5482 205.602 60.5189 205.732 60.4863C205.869 60.4538 205.99 60.418 206.094 60.3789V56.3164H203.486V54.8809H207.812V61.4043C207.546 61.528 207.262 61.6387 206.963 61.7363C206.67 61.834 206.367 61.9154 206.055 61.9805C205.749 62.0456 205.443 62.0944 205.137 62.127C204.831 62.1595 204.535 62.1758 204.248 62.1758C203.376 62.1758 202.588 62.0391 201.885 61.7656C201.188 61.4922 200.592 61.0885 200.098 60.5547C199.609 60.0143 199.232 59.3438 198.965 58.543C198.704 57.7422 198.574 56.8145 198.574 55.7598C198.574 54.7116 198.721 53.7741 199.014 52.9473C199.307 52.1139 199.717 51.4108 200.244 50.8379C200.778 50.2585 201.416 49.819 202.158 49.5195C202.907 49.2135 203.73 49.0605 204.629 49.0605C205.202 49.0605 205.745 49.1126 206.26 49.2168C206.781 49.3145 207.279 49.474 207.754 49.6953V51.4238ZM218.643 61.5215C217.62 61.9447 216.549 62.1562 215.43 62.1562C213.626 62.1562 212.24 61.6191 211.27 60.5449C210.306 59.4642 209.824 57.8691 209.824 55.7598C209.824 54.7376 209.958 53.8132 210.225 52.9863C210.492 52.1595 210.872 51.4596 211.367 50.8867C211.862 50.3073 212.461 49.8613 213.164 49.5488C213.867 49.2363 214.655 49.0801 215.527 49.0801C216.12 49.0801 216.67 49.1322 217.178 49.2363C217.686 49.334 218.174 49.487 218.643 49.6953V51.4043C218.18 51.1504 217.702 50.9583 217.207 50.8281C216.712 50.6914 216.172 50.623 215.586 50.623C214.987 50.623 214.443 50.737 213.955 50.9648C213.473 51.1862 213.063 51.5117 212.725 51.9414C212.386 52.3646 212.126 52.8854 211.943 53.5039C211.761 54.1159 211.67 54.8158 211.67 55.6035C211.67 57.2572 212.005 58.5039 212.676 59.3438C213.346 60.1836 214.329 60.6035 215.625 60.6035C216.172 60.6035 216.696 60.5417 217.197 60.418C217.699 60.2878 218.18 60.1087 218.643 59.8809V61.5215ZM229.746 51.4238C229.271 51.1699 228.783 50.9746 228.281 50.8379C227.78 50.6947 227.233 50.623 226.641 50.623C225.964 50.623 225.361 50.7435 224.834 50.9844C224.307 51.2253 223.861 51.5671 223.496 52.0098C223.138 52.446 222.861 52.9733 222.666 53.5918C222.477 54.2103 222.383 54.8939 222.383 55.6426C222.383 56.4238 222.461 57.1237 222.617 57.7422C222.773 58.3607 223.018 58.8848 223.35 59.3145C223.682 59.7441 224.105 60.0729 224.619 60.3008C225.14 60.5286 225.762 60.6426 226.484 60.6426C226.608 60.6426 226.742 60.6361 226.885 60.623C227.028 60.61 227.171 60.5938 227.314 60.5742C227.458 60.5482 227.594 60.5189 227.725 60.4863C227.861 60.4538 227.982 60.418 228.086 60.3789V56.3164H225.479V54.8809H229.805V61.4043C229.538 61.528 229.255 61.6387 228.955 61.7363C228.662 61.834 228.359 61.9154 228.047 61.9805C227.741 62.0456 227.435 62.0944 227.129 62.127C226.823 62.1595 226.527 62.1758 226.24 62.1758C225.368 62.1758 224.58 62.0391 223.877 61.7656C223.18 61.4922 222.585 61.0885 222.09 60.5547C221.602 60.0143 221.224 59.3438 220.957 58.543C220.697 57.7422 220.566 56.8145 220.566 55.7598C220.566 54.7116 220.713 53.7741 221.006 52.9473C221.299 52.1139 221.709 51.4108 222.236 50.8379C222.77 50.2585 223.408 49.819 224.15 49.5195C224.899 49.2135 225.723 49.0605 226.621 49.0605C227.194 49.0605 227.738 49.1126 228.252 49.2168C228.773 49.3145 229.271 49.474 229.746 49.6953V51.4238Z" fill="#989B05"/>
<path d="M175.84 16H173.945L173.057 13.2168H167.744L166.846 16H165.039L169.277 3.23633H171.66L175.84 16ZM172.559 11.6641L170.4 4.83789L168.242 11.6641H172.559Z" fill="#E30310"/>
<path d="M149 19V46" stroke="#C9D1D9"/>
<path d="M160.302 19V46" stroke="#C9D1D9"/>
<path d="M205.512 19V46" stroke="#C9D1D9"/>
<path d="M194.209 19V46" stroke="#C9D1D9"/>
<path d="M182.907 19V46" stroke="#C9D1D9"/>
<path d="M215.558 19V46" stroke="#C9D1D9"/>
<path d="M226.86 19V46" stroke="#C9D1D9"/>
</svg>
