<svg width="231" height="300" viewBox="0 0 231 300" fill="none" xmlns="http://www.w3.org/2000/svg">
<path d="M10.7617 16H8.56445L5.45898 10.8438L2.34375 16H0.175781L4.42383 9.47656L0.517578 3.23633H2.57812L5.49805 8.04102L8.4375 3.23633H10.4395L6.52344 9.39844L10.7617 16ZM16.4941 6.01953C16.696 6.01953 16.888 6.06185 17.0703 6.14648C17.2526 6.22461 17.4121 6.33203 17.5488 6.46875C17.6855 6.60547 17.793 6.76497 17.8711 6.94727C17.9557 7.12956 17.998 7.32161 17.998 7.52344C17.998 7.73177 17.9557 7.92708 17.8711 8.10938C17.793 8.28516 17.6855 8.44141 17.5488 8.57812C17.4121 8.71484 17.2526 8.82227 17.0703 8.90039C16.888 8.97852 16.696 9.01758 16.4941 9.01758C16.2858 9.01758 16.0905 8.97852 15.9082 8.90039C15.7324 8.82227 15.5762 8.71484 15.4395 8.57812C15.3027 8.44141 15.1953 8.28516 15.1172 8.10938C15.0391 7.92708 15 7.73177 15 7.52344C15 7.32161 15.0391 7.12956 15.1172 6.94727C15.1953 6.76497 15.3027 6.60547 15.4395 6.46875C15.5762 6.33203 15.7324 6.22461 15.9082 6.14648C16.0905 6.06185 16.2858 6.01953 16.4941 6.01953ZM16.4941 13.1777C16.696 13.1777 16.888 13.2201 17.0703 13.3047C17.2526 13.3828 17.4121 13.4902 17.5488 13.627C17.6855 13.7637 17.793 13.9232 17.8711 14.1055C17.9557 14.2878 17.998 14.4798 17.998 14.6816C17.998 14.89 17.9557 15.0853 17.8711 15.2676C17.793 15.4434 17.6855 15.5996 17.5488 15.7363C17.4121 15.873 17.2526 15.9805 17.0703 16.0586C16.888 16.1367 16.696 16.1758 16.4941 16.1758C16.2858 16.1758 16.0905 16.1367 15.9082 16.0586C15.7324 15.9805 15.5762 15.873 15.4395 15.7363C15.3027 15.5996 15.1953 15.4434 15.1172 15.2676C15.0391 15.0853 15 14.89 15 14.6816C15 14.4798 15.0391 14.2878 15.1172 14.1055C15.1953 13.9232 15.3027 13.7637 15.4395 13.627C15.5762 13.4902 15.7324 13.3828 15.9082 13.3047C16.0905 13.2201 16.2858 13.1777 16.4941 13.1777ZM42.8125 5.42383C42.3372 5.16992 41.849 4.97461 41.3477 4.83789C40.8464 4.69466 40.2995 4.62305 39.707 4.62305C39.0299 4.62305 38.4277 4.74349 37.9004 4.98438C37.373 5.22526 36.9271 5.56706 36.5625 6.00977C36.2044 6.44596 35.9277 6.97331 35.7324 7.5918C35.5436 8.21029 35.4492 8.89388 35.4492 9.64258C35.4492 10.4238 35.5273 11.1237 35.6836 11.7422C35.8398 12.3607 36.084 12.8848 36.416 13.3145C36.748 13.7441 37.1712 14.0729 37.6855 14.3008C38.2064 14.5286 38.8281 14.6426 39.5508 14.6426C39.6745 14.6426 39.8079 14.6361 39.9512 14.623C40.0944 14.61 40.2376 14.5938 40.3809 14.5742C40.5241 14.5482 40.6608 14.5189 40.791 14.4863C40.9277 14.4538 41.0482 14.418 41.1523 14.3789V10.3164H38.5449V8.88086H42.8711V15.4043C42.6042 15.528 42.321 15.6387 42.0215 15.7363C41.7285 15.834 41.4258 15.9154 41.1133 15.9805C40.8073 16.0456 40.5013 16.0944 40.1953 16.127C39.8893 16.1595 39.5931 16.1758 39.3066 16.1758C38.4342 16.1758 37.6465 16.0391 36.9434 15.7656C36.2467 15.4922 35.651 15.0885 35.1562 14.5547C34.668 14.0143 34.2904 13.3438 34.0234 12.543C33.763 11.7422 33.6328 10.8145 33.6328 9.75977C33.6328 8.71159 33.7793 7.77409 34.0723 6.94727C34.3652 6.11393 34.7754 5.41081 35.3027 4.83789C35.8366 4.25846 36.4746 3.81901 37.2168 3.51953C37.9655 3.21354 38.7891 3.06055 39.6875 3.06055C40.2604 3.06055 40.804 3.11263 41.3184 3.2168C41.8392 3.31445 42.3372 3.47396 42.8125 3.69531V5.42383ZM54.8828 16H52.9883L52.0996 13.2168H46.7871L45.8887 16H44.082L48.3203 3.23633H50.7031L54.8828 16ZM51.6016 11.6641L49.4434 4.83789L47.2852 11.6641H51.6016ZM64.8047 5.42383C64.3294 5.16992 63.8411 4.97461 63.3398 4.83789C62.8385 4.69466 62.2917 4.62305 61.6992 4.62305C61.0221 4.62305 60.4199 4.74349 59.8926 4.98438C59.3652 5.22526 58.9193 5.56706 58.5547 6.00977C58.1966 6.44596 57.9199 6.97331 57.7246 7.5918C57.5358 8.21029 57.4414 8.89388 57.4414 9.64258C57.4414 10.4238 57.5195 11.1237 57.6758 11.7422C57.832 12.3607 58.0762 12.8848 58.4082 13.3145C58.7402 13.7441 59.1634 14.0729 59.6777 14.3008C60.1986 14.5286 60.8203 14.6426 61.543 14.6426C61.6667 14.6426 61.8001 14.6361 61.9434 14.623C62.0866 14.61 62.2298 14.5938 62.373 14.5742C62.5163 14.5482 62.653 14.5189 62.7832 14.4863C62.9199 14.4538 63.0404 14.418 63.1445 14.3789V10.3164H60.5371V8.88086H64.8633V15.4043C64.5964 15.528 64.3132 15.6387 64.0137 15.7363C63.7207 15.834 63.418 15.9154 63.1055 15.9805C62.7995 16.0456 62.4935 16.0944 62.1875 16.127C61.8815 16.1595 61.5853 16.1758 61.2988 16.1758C60.4264 16.1758 59.6387 16.0391 58.9355 15.7656C58.2389 15.4922 57.6432 15.0885 57.1484 14.5547C56.6602 14.0143 56.2826 13.3438 56.0156 12.543C55.7552 11.7422 55.625 10.8145 55.625 9.75977C55.625 8.71159 55.7715 7.77409 56.0645 6.94727C56.3574 6.11393 56.7676 5.41081 57.2949 4.83789C57.8288 4.25846 58.4668 3.81901 59.209 3.51953C59.9577 3.21354 60.7812 3.06055 61.6797 3.06055C62.2526 3.06055 62.7962 3.11263 63.3105 3.2168C63.8314 3.31445 64.3294 3.47396 64.8047 3.69531V5.42383ZM75.8008 5.42383C75.3255 5.16992 74.8372 4.97461 74.3359 4.83789C73.8346 4.69466 73.2878 4.62305 72.6953 4.62305C72.0182 4.62305 71.416 4.74349 70.8887 4.98438C70.3613 5.22526 69.9154 5.56706 69.5508 6.00977C69.1927 6.44596 68.916 6.97331 68.7207 7.5918C68.5319 8.21029 68.4375 8.89388 68.4375 9.64258C68.4375 10.4238 68.5156 11.1237 68.6719 11.7422C68.8281 12.3607 69.0723 12.8848 69.4043 13.3145C69.7363 13.7441 70.1595 14.0729 70.6738 14.3008C71.1947 14.5286 71.8164 14.6426 72.5391 14.6426C72.6628 14.6426 72.7962 14.6361 72.9395 14.623C73.0827 14.61 73.2259 14.5938 73.3691 14.5742C73.5124 14.5482 73.6491 14.5189 73.7793 14.4863C73.916 14.4538 74.0365 14.418 74.1406 14.3789V10.3164H71.5332V8.88086H75.8594V15.4043C75.5924 15.528 75.3092 15.6387 75.0098 15.7363C74.7168 15.834 74.4141 15.9154 74.1016 15.9805C73.7956 16.0456 73.4896 16.0944 73.1836 16.127C72.8776 16.1595 72.5814 16.1758 72.2949 16.1758C71.4225 16.1758 70.6348 16.0391 69.9316 15.7656C69.235 15.4922 68.6393 15.0885 68.1445 14.5547C67.6562 14.0143 67.2786 13.3438 67.0117 12.543C66.7513 11.7422 66.6211 10.8145 66.6211 9.75977C66.6211 8.71159 66.7676 7.77409 67.0605 6.94727C67.3535 6.11393 67.7637 5.41081 68.291 4.83789C68.8249 4.25846 69.4629 3.81901 70.2051 3.51953C70.9538 3.21354 71.7773 3.06055 72.6758 3.06055C73.2487 3.06055 73.7923 3.11263 74.3066 3.2168C74.8275 3.31445 75.3255 3.47396 75.8008 3.69531V5.42383ZM87.1289 4.7207H83.3496V16H81.5918V4.7207H77.8125V3.23633H87.1289V4.7207ZM98.8672 16H96.9727L96.084 13.2168H90.7715L89.873 16H88.0664L92.3047 3.23633H94.6875L98.8672 16ZM95.5859 11.6641L93.4277 4.83789L91.2695 11.6641H95.5859ZM108.789 5.42383C108.314 5.16992 107.826 4.97461 107.324 4.83789C106.823 4.69466 106.276 4.62305 105.684 4.62305C105.007 4.62305 104.404 4.74349 103.877 4.98438C103.35 5.22526 102.904 5.56706 102.539 6.00977C102.181 6.44596 101.904 6.97331 101.709 7.5918C101.52 8.21029 101.426 8.89388 101.426 9.64258C101.426 10.4238 101.504 11.1237 101.66 11.7422C101.816 12.3607 102.061 12.8848 102.393 13.3145C102.725 13.7441 103.148 14.0729 103.662 14.3008C104.183 14.5286 104.805 14.6426 105.527 14.6426C105.651 14.6426 105.785 14.6361 105.928 14.623C106.071 14.61 106.214 14.5938 106.357 14.5742C106.501 14.5482 106.637 14.5189 106.768 14.4863C106.904 14.4538 107.025 14.418 107.129 14.3789V10.3164H104.521V8.88086H108.848V15.4043C108.581 15.528 108.298 15.6387 107.998 15.7363C107.705 15.834 107.402 15.9154 107.09 15.9805C106.784 16.0456 106.478 16.0944 106.172 16.127C105.866 16.1595 105.57 16.1758 105.283 16.1758C104.411 16.1758 103.623 16.0391 102.92 15.7656C102.223 15.4922 101.628 15.0885 101.133 14.5547C100.645 14.0143 100.267 13.3438 100 12.543C99.7396 11.7422 99.6094 10.8145 99.6094 9.75977C99.6094 8.71159 99.7559 7.77409 100.049 6.94727C100.342 6.11393 100.752 5.41081 101.279 4.83789C101.813 4.25846 102.451 3.81901 103.193 3.51953C103.942 3.21354 104.766 3.06055 105.664 3.06055C106.237 3.06055 106.781 3.11263 107.295 3.2168C107.816 3.31445 108.314 3.47396 108.789 3.69531V5.42383ZM119.678 15.5215C118.656 15.9447 117.585 16.1562 116.465 16.1562C114.661 16.1562 113.275 15.6191 112.305 14.5449C111.341 13.4642 110.859 11.8691 110.859 9.75977C110.859 8.73763 110.993 7.81315 111.26 6.98633C111.527 6.15951 111.908 5.45964 112.402 4.88672C112.897 4.30729 113.496 3.86133 114.199 3.54883C114.902 3.23633 115.69 3.08008 116.562 3.08008C117.155 3.08008 117.705 3.13216 118.213 3.23633C118.721 3.33398 119.209 3.48698 119.678 3.69531V5.4043C119.215 5.15039 118.737 4.95833 118.242 4.82812C117.747 4.69141 117.207 4.62305 116.621 4.62305C116.022 4.62305 115.479 4.73698 114.99 4.96484C114.508 5.1862 114.098 5.51172 113.76 5.94141C113.421 6.36458 113.161 6.88542 112.979 7.50391C112.796 8.11589 112.705 8.81576 112.705 9.60352C112.705 11.2572 113.04 12.5039 113.711 13.3438C114.382 14.1836 115.365 14.6035 116.66 14.6035C117.207 14.6035 117.731 14.5417 118.232 14.418C118.734 14.2878 119.215 14.1087 119.678 13.8809V15.5215ZM130.781 5.42383C130.306 5.16992 129.818 4.97461 129.316 4.83789C128.815 4.69466 128.268 4.62305 127.676 4.62305C126.999 4.62305 126.396 4.74349 125.869 4.98438C125.342 5.22526 124.896 5.56706 124.531 6.00977C124.173 6.44596 123.896 6.97331 123.701 7.5918C123.512 8.21029 123.418 8.89388 123.418 9.64258C123.418 10.4238 123.496 11.1237 123.652 11.7422C123.809 12.3607 124.053 12.8848 124.385 13.3145C124.717 13.7441 125.14 14.0729 125.654 14.3008C126.175 14.5286 126.797 14.6426 127.52 14.6426C127.643 14.6426 127.777 14.6361 127.92 14.623C128.063 14.61 128.206 14.5938 128.35 14.5742C128.493 14.5482 128.63 14.5189 128.76 14.4863C128.896 14.4538 129.017 14.418 129.121 14.3789V10.3164H126.514V8.88086H130.84V15.4043C130.573 15.528 130.29 15.6387 129.99 15.7363C129.697 15.834 129.395 15.9154 129.082 15.9805C128.776 16.0456 128.47 16.0944 128.164 16.127C127.858 16.1595 127.562 16.1758 127.275 16.1758C126.403 16.1758 125.615 16.0391 124.912 15.7656C124.215 15.4922 123.62 15.0885 123.125 14.5547C122.637 14.0143 122.259 13.3438 121.992 12.543C121.732 11.7422 121.602 10.8145 121.602 9.75977C121.602 8.71159 121.748 7.77409 122.041 6.94727C122.334 6.11393 122.744 5.41081 123.271 4.83789C123.805 4.25846 124.443 3.81901 125.186 3.51953C125.934 3.21354 126.758 3.06055 127.656 3.06055C128.229 3.06055 128.773 3.11263 129.287 3.2168C129.808 3.31445 130.306 3.47396 130.781 3.69531V5.42383ZM141.777 5.42383C141.302 5.16992 140.814 4.97461 140.312 4.83789C139.811 4.69466 139.264 4.62305 138.672 4.62305C137.995 4.62305 137.393 4.74349 136.865 4.98438C136.338 5.22526 135.892 5.56706 135.527 6.00977C135.169 6.44596 134.893 6.97331 134.697 7.5918C134.508 8.21029 134.414 8.89388 134.414 9.64258C134.414 10.4238 134.492 11.1237 134.648 11.7422C134.805 12.3607 135.049 12.8848 135.381 13.3145C135.713 13.7441 136.136 14.0729 136.65 14.3008C137.171 14.5286 137.793 14.6426 138.516 14.6426C138.639 14.6426 138.773 14.6361 138.916 14.623C139.059 14.61 139.202 14.5938 139.346 14.5742C139.489 14.5482 139.626 14.5189 139.756 14.4863C139.893 14.4538 140.013 14.418 140.117 14.3789V10.3164H137.51V8.88086H141.836V15.4043C141.569 15.528 141.286 15.6387 140.986 15.7363C140.693 15.834 140.391 15.9154 140.078 15.9805C139.772 16.0456 139.466 16.0944 139.16 16.127C138.854 16.1595 138.558 16.1758 138.271 16.1758C137.399 16.1758 136.611 16.0391 135.908 15.7656C135.212 15.4922 134.616 15.0885 134.121 14.5547C133.633 14.0143 133.255 13.3438 132.988 12.543C132.728 11.7422 132.598 10.8145 132.598 9.75977C132.598 8.71159 132.744 7.77409 133.037 6.94727C133.33 6.11393 133.74 5.41081 134.268 4.83789C134.801 4.25846 135.439 3.81901 136.182 3.51953C136.93 3.21354 137.754 3.06055 138.652 3.06055C139.225 3.06055 139.769 3.11263 140.283 3.2168C140.804 3.31445 141.302 3.47396 141.777 3.69531V5.42383ZM152.666 15.5215C151.644 15.9447 150.573 16.1562 149.453 16.1562C147.65 16.1562 146.263 15.6191 145.293 14.5449C144.329 13.4642 143.848 11.8691 143.848 9.75977C143.848 8.73763 143.981 7.81315 144.248 6.98633C144.515 6.15951 144.896 5.45964 145.391 4.88672C145.885 4.30729 146.484 3.86133 147.188 3.54883C147.891 3.23633 148.678 3.08008 149.551 3.08008C150.143 3.08008 150.693 3.13216 151.201 3.23633C151.709 3.33398 152.197 3.48698 152.666 3.69531V5.4043C152.204 5.15039 151.725 4.95833 151.23 4.82812C150.736 4.69141 150.195 4.62305 149.609 4.62305C149.01 4.62305 148.467 4.73698 147.979 4.96484C147.497 5.1862 147.087 5.51172 146.748 5.94141C146.41 6.36458 146.149 6.88542 145.967 7.50391C145.785 8.11589 145.693 8.81576 145.693 9.60352C145.693 11.2572 146.029 12.5039 146.699 13.3438C147.37 14.1836 148.353 14.6035 149.648 14.6035C150.195 14.6035 150.719 14.5417 151.221 14.418C151.722 14.2878 152.204 14.1087 152.666 13.8809V15.5215ZM163.77 5.42383C163.294 5.16992 162.806 4.97461 162.305 4.83789C161.803 4.69466 161.257 4.62305 160.664 4.62305C159.987 4.62305 159.385 4.74349 158.857 4.98438C158.33 5.22526 157.884 5.56706 157.52 6.00977C157.161 6.44596 156.885 6.97331 156.689 7.5918C156.501 8.21029 156.406 8.89388 156.406 9.64258C156.406 10.4238 156.484 11.1237 156.641 11.7422C156.797 12.3607 157.041 12.8848 157.373 13.3145C157.705 13.7441 158.128 14.0729 158.643 14.3008C159.163 14.5286 159.785 14.6426 160.508 14.6426C160.632 14.6426 160.765 14.6361 160.908 14.623C161.051 14.61 161.195 14.5938 161.338 14.5742C161.481 14.5482 161.618 14.5189 161.748 14.4863C161.885 14.4538 162.005 14.418 162.109 14.3789V10.3164H159.502V8.88086H163.828V15.4043C163.561 15.528 163.278 15.6387 162.979 15.7363C162.686 15.834 162.383 15.9154 162.07 15.9805C161.764 16.0456 161.458 16.0944 161.152 16.127C160.846 16.1595 160.55 16.1758 160.264 16.1758C159.391 16.1758 158.604 16.0391 157.9 15.7656C157.204 15.4922 156.608 15.0885 156.113 14.5547C155.625 14.0143 155.247 13.3438 154.98 12.543C154.72 11.7422 154.59 10.8145 154.59 9.75977C154.59 8.71159 154.736 7.77409 155.029 6.94727C155.322 6.11393 155.732 5.41081 156.26 4.83789C156.794 4.25846 157.432 3.81901 158.174 3.51953C158.923 3.21354 159.746 3.06055 160.645 3.06055C161.217 3.06055 161.761 3.11263 162.275 3.2168C162.796 3.31445 163.294 3.47396 163.77 3.69531V5.42383ZM175.098 4.7207H171.318V16H169.561V4.7207H165.781V3.23633H175.098V4.7207ZM186.094 4.7207H182.314V16H180.557V4.7207H176.777V3.23633H186.094V4.7207ZM197.09 4.7207H193.311V16H191.553V4.7207H187.773V3.23633H197.09V4.7207ZM208.828 16H206.934L206.045 13.2168H200.732L199.834 16H198.027L202.266 3.23633H204.648L208.828 16ZM205.547 11.6641L203.389 4.83789L201.23 11.6641H205.547ZM219.824 16H217.93L217.041 13.2168H211.729L210.83 16H209.023L213.262 3.23633H215.645L219.824 16ZM216.543 11.6641L214.385 4.83789L212.227 11.6641H216.543ZM229.639 15.5215C228.617 15.9447 227.546 16.1562 226.426 16.1562C224.622 16.1562 223.236 15.6191 222.266 14.5449C221.302 13.4642 220.82 11.8691 220.82 9.75977C220.82 8.73763 220.954 7.81315 221.221 6.98633C221.488 6.15951 221.868 5.45964 222.363 4.88672C222.858 4.30729 223.457 3.86133 224.16 3.54883C224.863 3.23633 225.651 3.08008 226.523 3.08008C227.116 3.08008 227.666 3.13216 228.174 3.23633C228.682 3.33398 229.17 3.48698 229.639 3.69531V5.4043C229.176 5.15039 228.698 4.95833 228.203 4.82812C227.708 4.69141 227.168 4.62305 226.582 4.62305C225.983 4.62305 225.439 4.73698 224.951 4.96484C224.469 5.1862 224.059 5.51172 223.721 5.94141C223.382 6.36458 223.122 6.88542 222.939 7.50391C222.757 8.11589 222.666 8.81576 222.666 9.60352C222.666 11.2572 223.001 12.5039 223.672 13.3438C224.342 14.1836 225.326 14.6035 226.621 14.6035C227.168 14.6035 227.692 14.5417 228.193 14.418C228.695 14.2878 229.176 14.1087 229.639 13.8809V15.5215ZM10.9961 49.2363L6.37695 57.4395V62H4.61914V57.4004L0 49.2363H2.09961L4.63867 53.9043L5.57617 55.7793L6.43555 54.0801L9.00391 49.2363H10.9961ZM16.4941 52.0195C16.696 52.0195 16.888 52.0618 17.0703 52.1465C17.2526 52.2246 17.4121 52.332 17.5488 52.4688C17.6855 52.6055 17.793 52.765 17.8711 52.9473C17.9557 53.1296 17.998 53.3216 17.998 53.5234C17.998 53.7318 17.9557 53.9271 17.8711 54.1094C17.793 54.2852 17.6855 54.4414 17.5488 54.5781C17.4121 54.7148 17.2526 54.8223 17.0703 54.9004C16.888 54.9785 16.696 55.0176 16.4941 55.0176C16.2858 55.0176 16.0905 54.9785 15.9082 54.9004C15.7324 54.8223 15.5762 54.7148 15.4395 54.5781C15.3027 54.4414 15.1953 54.2852 15.1172 54.1094C15.0391 53.9271 15 53.7318 15 53.5234C15 53.3216 15.0391 53.1296 15.1172 52.9473C15.1953 52.765 15.3027 52.6055 15.4395 52.4688C15.5762 52.332 15.7324 52.2246 15.9082 52.1465C16.0905 52.0618 16.2858 52.0195 16.4941 52.0195ZM16.4941 59.1777C16.696 59.1777 16.888 59.2201 17.0703 59.3047C17.2526 59.3828 17.4121 59.4902 17.5488 59.627C17.6855 59.7637 17.793 59.9232 17.8711 60.1055C17.9557 60.2878 17.998 60.4798 17.998 60.6816C17.998 60.89 17.9557 61.0853 17.8711 61.2676C17.793 61.4434 17.6855 61.5996 17.5488 61.7363C17.4121 61.873 17.2526 61.9805 17.0703 62.0586C16.888 62.1367 16.696 62.1758 16.4941 62.1758C16.2858 62.1758 16.0905 62.1367 15.9082 62.0586C15.7324 61.9805 15.5762 61.873 15.4395 61.7363C15.3027 61.5996 15.1953 61.4434 15.1172 61.2676C15.0391 61.0853 15 60.89 15 60.6816C15 60.4798 15.0391 60.2878 15.1172 60.1055C15.1953 59.9232 15.3027 59.7637 15.4395 59.627C15.5762 59.4902 15.7324 59.3828 15.9082 59.3047C16.0905 59.2201 16.2858 59.1777 16.4941 59.1777ZM42.8125 51.4238C42.3372 51.1699 41.849 50.9746 41.3477 50.8379C40.8464 50.6947 40.2995 50.623 39.707 50.623C39.0299 50.623 38.4277 50.7435 37.9004 50.9844C37.373 51.2253 36.9271 51.5671 36.5625 52.0098C36.2044 52.446 35.9277 52.9733 35.7324 53.5918C35.5436 54.2103 35.4492 54.8939 35.4492 55.6426C35.4492 56.4238 35.5273 57.1237 35.6836 57.7422C35.8398 58.3607 36.084 58.8848 36.416 59.3145C36.748 59.7441 37.1712 60.0729 37.6855 60.3008C38.2064 60.5286 38.8281 60.6426 39.5508 60.6426C39.6745 60.6426 39.8079 60.6361 39.9512 60.623C40.0944 60.61 40.2376 60.5938 40.3809 60.5742C40.5241 60.5482 40.6608 60.5189 40.791 60.4863C40.9277 60.4538 41.0482 60.418 41.1523 60.3789V56.3164H38.5449V54.8809H42.8711V61.4043C42.6042 61.528 42.321 61.6387 42.0215 61.7363C41.7285 61.834 41.4258 61.9154 41.1133 61.9805C40.8073 62.0456 40.5013 62.0944 40.1953 62.127C39.8893 62.1595 39.5931 62.1758 39.3066 62.1758C38.4342 62.1758 37.6465 62.0391 36.9434 61.7656C36.2467 61.4922 35.651 61.0885 35.1562 60.5547C34.668 60.0143 34.2904 59.3438 34.0234 58.543C33.763 57.7422 33.6328 56.8145 33.6328 55.7598C33.6328 54.7116 33.7793 53.7741 34.0723 52.9473C34.3652 52.1139 34.7754 51.4108 35.3027 50.8379C35.8366 50.2585 36.4746 49.819 37.2168 49.5195C37.9655 49.2135 38.7891 49.0605 39.6875 49.0605C40.2604 49.0605 40.804 49.1126 41.3184 49.2168C41.8392 49.3145 42.3372 49.474 42.8125 49.6953V51.4238ZM54.1406 50.7207H50.3613V62H48.6035V50.7207H44.8242V49.2363H54.1406V50.7207ZM64.8047 51.4238C64.3294 51.1699 63.8411 50.9746 63.3398 50.8379C62.8385 50.6947 62.2917 50.623 61.6992 50.623C61.0221 50.623 60.4199 50.7435 59.8926 50.9844C59.3652 51.2253 58.9193 51.5671 58.5547 52.0098C58.1966 52.446 57.9199 52.9733 57.7246 53.5918C57.5358 54.2103 57.4414 54.8939 57.4414 55.6426C57.4414 56.4238 57.5195 57.1237 57.6758 57.7422C57.832 58.3607 58.0762 58.8848 58.4082 59.3145C58.7402 59.7441 59.1634 60.0729 59.6777 60.3008C60.1986 60.5286 60.8203 60.6426 61.543 60.6426C61.6667 60.6426 61.8001 60.6361 61.9434 60.623C62.0866 60.61 62.2298 60.5938 62.373 60.5742C62.5163 60.5482 62.653 60.5189 62.7832 60.4863C62.9199 60.4538 63.0404 60.418 63.1445 60.3789V56.3164H60.5371V54.8809H64.8633V61.4043C64.5964 61.528 64.3132 61.6387 64.0137 61.7363C63.7207 61.834 63.418 61.9154 63.1055 61.9805C62.7995 62.0456 62.4935 62.0944 62.1875 62.127C61.8815 62.1595 61.5853 62.1758 61.2988 62.1758C60.4264 62.1758 59.6387 62.0391 58.9355 61.7656C58.2389 61.4922 57.6432 61.0885 57.1484 60.5547C56.6602 60.0143 56.2826 59.3438 56.0156 58.543C55.7552 57.7422 55.625 56.8145 55.625 55.7598C55.625 54.7116 55.7715 53.7741 56.0645 52.9473C56.3574 52.1139 56.7676 51.4108 57.2949 50.8379C57.8288 50.2585 58.4668 49.819 59.209 49.5195C59.9577 49.2135 60.7812 49.0605 61.6797 49.0605C62.2526 49.0605 62.7962 49.1126 63.3105 49.2168C63.8314 49.3145 64.3294 49.474 64.8047 49.6953V51.4238ZM75.8008 51.4238C75.3255 51.1699 74.8372 50.9746 74.3359 50.8379C73.8346 50.6947 73.2878 50.623 72.6953 50.623C72.0182 50.623 71.416 50.7435 70.8887 50.9844C70.3613 51.2253 69.9154 51.5671 69.5508 52.0098C69.1927 52.446 68.916 52.9733 68.7207 53.5918C68.5319 54.2103 68.4375 54.8939 68.4375 55.6426C68.4375 56.4238 68.5156 57.1237 68.6719 57.7422C68.8281 58.3607 69.0723 58.8848 69.4043 59.3145C69.7363 59.7441 70.1595 60.0729 70.6738 60.3008C71.1947 60.5286 71.8164 60.6426 72.5391 60.6426C72.6628 60.6426 72.7962 60.6361 72.9395 60.623C73.0827 60.61 73.2259 60.5938 73.3691 60.5742C73.5124 60.5482 73.6491 60.5189 73.7793 60.4863C73.916 60.4538 74.0365 60.418 74.1406 60.3789V56.3164H71.5332V54.8809H75.8594V61.4043C75.5924 61.528 75.3092 61.6387 75.0098 61.7363C74.7168 61.834 74.4141 61.9154 74.1016 61.9805C73.7956 62.0456 73.4896 62.0944 73.1836 62.127C72.8776 62.1595 72.5814 62.1758 72.2949 62.1758C71.4225 62.1758 70.6348 62.0391 69.9316 61.7656C69.235 61.4922 68.6393 61.0885 68.1445 60.5547C67.6562 60.0143 67.2786 59.3438 67.0117 58.543C66.7513 57.7422 66.6211 56.8145 66.6211 55.7598C66.6211 54.7116 66.7676 53.7741 67.0605 52.9473C67.3535 52.1139 67.7637 51.4108 68.291 50.8379C68.8249 50.2585 69.4629 49.819 70.2051 49.5195C70.9538 49.2135 71.7773 49.0605 72.6758 49.0605C73.2487 49.0605 73.7923 49.1126 74.3066 49.2168C74.8275 49.3145 75.3255 49.474 75.8008 49.6953V51.4238ZM87.1289 50.7207H83.3496V62H81.5918V50.7207H77.8125V49.2363H87.1289V50.7207ZM98.8672 62H96.9727L96.084 59.2168H90.7715L89.873 62H88.0664L92.3047 49.2363H94.6875L98.8672 62ZM95.5859 57.6641L93.4277 50.8379L91.2695 57.6641H95.5859ZM109.863 62H107.969L107.08 59.2168H101.768L100.869 62H99.0625L103.301 49.2363H105.684L109.863 62ZM106.582 57.6641L104.424 50.8379L102.266 57.6641H106.582ZM119.678 61.5215C118.656 61.9447 117.585 62.1562 116.465 62.1562C114.661 62.1562 113.275 61.6191 112.305 60.5449C111.341 59.4642 110.859 57.8691 110.859 55.7598C110.859 54.7376 110.993 53.8132 111.26 52.9863C111.527 52.1595 111.908 51.4596 112.402 50.8867C112.897 50.3073 113.496 49.8613 114.199 49.5488C114.902 49.2363 115.69 49.0801 116.562 49.0801C117.155 49.0801 117.705 49.1322 118.213 49.2363C118.721 49.334 119.209 49.487 119.678 49.6953V51.4043C119.215 51.1504 118.737 50.9583 118.242 50.8281C117.747 50.6914 117.207 50.623 116.621 50.623C116.022 50.623 115.479 50.737 114.99 50.9648C114.508 51.1862 114.098 51.5117 113.76 51.9414C113.421 52.3646 113.161 52.8854 112.979 53.5039C112.796 54.1159 112.705 54.8158 112.705 55.6035C112.705 57.2572 113.04 58.5039 113.711 59.3438C114.382 60.1836 115.365 60.6035 116.66 60.6035C117.207 60.6035 117.731 60.5417 118.232 60.418C118.734 60.2878 119.215 60.1087 119.678 59.8809V61.5215ZM130.781 51.4238C130.306 51.1699 129.818 50.9746 129.316 50.8379C128.815 50.6947 128.268 50.623 127.676 50.623C126.999 50.623 126.396 50.7435 125.869 50.9844C125.342 51.2253 124.896 51.5671 124.531 52.0098C124.173 52.446 123.896 52.9733 123.701 53.5918C123.512 54.2103 123.418 54.8939 123.418 55.6426C123.418 56.4238 123.496 57.1237 123.652 57.7422C123.809 58.3607 124.053 58.8848 124.385 59.3145C124.717 59.7441 125.14 60.0729 125.654 60.3008C126.175 60.5286 126.797 60.6426 127.52 60.6426C127.643 60.6426 127.777 60.6361 127.92 60.623C128.063 60.61 128.206 60.5938 128.35 60.5742C128.493 60.5482 128.63 60.5189 128.76 60.4863C128.896 60.4538 129.017 60.418 129.121 60.3789V56.3164H126.514V54.8809H130.84V61.4043C130.573 61.528 130.29 61.6387 129.99 61.7363C129.697 61.834 129.395 61.9154 129.082 61.9805C128.776 62.0456 128.47 62.0944 128.164 62.127C127.858 62.1595 127.562 62.1758 127.275 62.1758C126.403 62.1758 125.615 62.0391 124.912 61.7656C124.215 61.4922 123.62 61.0885 123.125 60.5547C122.637 60.0143 122.259 59.3438 121.992 58.543C121.732 57.7422 121.602 56.8145 121.602 55.7598C121.602 54.7116 121.748 53.7741 122.041 52.9473C122.334 52.1139 122.744 51.4108 123.271 50.8379C123.805 50.2585 124.443 49.819 125.186 49.5195C125.934 49.2135 126.758 49.0605 127.656 49.0605C128.229 49.0605 128.773 49.1126 129.287 49.2168C129.808 49.3145 130.306 49.474 130.781 49.6953V51.4238ZM141.777 51.4238C141.302 51.1699 140.814 50.9746 140.312 50.8379C139.811 50.6947 139.264 50.623 138.672 50.623C137.995 50.623 137.393 50.7435 136.865 50.9844C136.338 51.2253 135.892 51.5671 135.527 52.0098C135.169 52.446 134.893 52.9733 134.697 53.5918C134.508 54.2103 134.414 54.8939 134.414 55.6426C134.414 56.4238 134.492 57.1237 134.648 57.7422C134.805 58.3607 135.049 58.8848 135.381 59.3145C135.713 59.7441 136.136 60.0729 136.65 60.3008C137.171 60.5286 137.793 60.6426 138.516 60.6426C138.639 60.6426 138.773 60.6361 138.916 60.623C139.059 60.61 139.202 60.5938 139.346 60.5742C139.489 60.5482 139.626 60.5189 139.756 60.4863C139.893 60.4538 140.013 60.418 140.117 60.3789V56.3164H137.51V54.8809H141.836V61.4043C141.569 61.528 141.286 61.6387 140.986 61.7363C140.693 61.834 140.391 61.9154 140.078 61.9805C139.772 62.0456 139.466 62.0944 139.16 62.127C138.854 62.1595 138.558 62.1758 138.271 62.1758C137.399 62.1758 136.611 62.0391 135.908 61.7656C135.212 61.4922 134.616 61.0885 134.121 60.5547C133.633 60.0143 133.255 59.3438 132.988 58.543C132.728 57.7422 132.598 56.8145 132.598 55.7598C132.598 54.7116 132.744 53.7741 133.037 52.9473C133.33 52.1139 133.74 51.4108 134.268 50.8379C134.801 50.2585 135.439 49.819 136.182 49.5195C136.93 49.2135 137.754 49.0605 138.652 49.0605C139.225 49.0605 139.769 49.1126 140.283 49.2168C140.804 49.3145 141.302 49.474 141.777 49.6953V51.4238ZM152.773 51.4238C152.298 51.1699 151.81 50.9746 151.309 50.8379C150.807 50.6947 150.26 50.623 149.668 50.623C148.991 50.623 148.389 50.7435 147.861 50.9844C147.334 51.2253 146.888 51.5671 146.523 52.0098C146.165 52.446 145.889 52.9733 145.693 53.5918C145.505 54.2103 145.41 54.8939 145.41 55.6426C145.41 56.4238 145.488 57.1237 145.645 57.7422C145.801 58.3607 146.045 58.8848 146.377 59.3145C146.709 59.7441 147.132 60.0729 147.646 60.3008C148.167 60.5286 148.789 60.6426 149.512 60.6426C149.635 60.6426 149.769 60.6361 149.912 60.623C150.055 60.61 150.199 60.5938 150.342 60.5742C150.485 60.5482 150.622 60.5189 150.752 60.4863C150.889 60.4538 151.009 60.418 151.113 60.3789V56.3164H148.506V54.8809H152.832V61.4043C152.565 61.528 152.282 61.6387 151.982 61.7363C151.689 61.834 151.387 61.9154 151.074 61.9805C150.768 62.0456 150.462 62.0944 150.156 62.127C149.85 62.1595 149.554 62.1758 149.268 62.1758C148.395 62.1758 147.607 62.0391 146.904 61.7656C146.208 61.4922 145.612 61.0885 145.117 60.5547C144.629 60.0143 144.251 59.3438 143.984 58.543C143.724 57.7422 143.594 56.8145 143.594 55.7598C143.594 54.7116 143.74 53.7741 144.033 52.9473C144.326 52.1139 144.736 51.4108 145.264 50.8379C145.798 50.2585 146.436 49.819 147.178 49.5195C147.926 49.2135 148.75 49.0605 149.648 49.0605C150.221 49.0605 150.765 49.1126 151.279 49.2168C151.8 49.3145 152.298 49.474 152.773 49.6953V51.4238ZM163.77 51.4238C163.294 51.1699 162.806 50.9746 162.305 50.8379C161.803 50.6947 161.257 50.623 160.664 50.623C159.987 50.623 159.385 50.7435 158.857 50.9844C158.33 51.2253 157.884 51.5671 157.52 52.0098C157.161 52.446 156.885 52.9733 156.689 53.5918C156.501 54.2103 156.406 54.8939 156.406 55.6426C156.406 56.4238 156.484 57.1237 156.641 57.7422C156.797 58.3607 157.041 58.8848 157.373 59.3145C157.705 59.7441 158.128 60.0729 158.643 60.3008C159.163 60.5286 159.785 60.6426 160.508 60.6426C160.632 60.6426 160.765 60.6361 160.908 60.623C161.051 60.61 161.195 60.5938 161.338 60.5742C161.481 60.5482 161.618 60.5189 161.748 60.4863C161.885 60.4538 162.005 60.418 162.109 60.3789V56.3164H159.502V54.8809H163.828V61.4043C163.561 61.528 163.278 61.6387 162.979 61.7363C162.686 61.834 162.383 61.9154 162.07 61.9805C161.764 62.0456 161.458 62.0944 161.152 62.127C160.846 62.1595 160.55 62.1758 160.264 62.1758C159.391 62.1758 158.604 62.0391 157.9 61.7656C157.204 61.4922 156.608 61.0885 156.113 60.5547C155.625 60.0143 155.247 59.3438 154.98 58.543C154.72 57.7422 154.59 56.8145 154.59 55.7598C154.59 54.7116 154.736 53.7741 155.029 52.9473C155.322 52.1139 155.732 51.4108 156.26 50.8379C156.794 50.2585 157.432 49.819 158.174 49.5195C158.923 49.2135 159.746 49.0605 160.645 49.0605C161.217 49.0605 161.761 49.1126 162.275 49.2168C162.796 49.3145 163.294 49.474 163.77 49.6953V51.4238ZM175.098 50.7207H171.318V62H169.561V50.7207H165.781V49.2363H175.098V50.7207ZM186.094 50.7207H182.314V62H180.557V50.7207H176.777V49.2363H186.094V50.7207ZM197.09 50.7207H193.311V62H191.553V50.7207H187.773V49.2363H197.09V50.7207ZM208.828 62H206.934L206.045 59.2168H200.732L199.834 62H198.027L202.266 49.2363H204.648L208.828 62ZM205.547 57.6641L203.389 50.8379L201.23 57.6641H205.547ZM219.824 62H217.93L217.041 59.2168H211.729L210.83 62H209.023L213.262 49.2363H215.645L219.824 62ZM216.543 57.6641L214.385 50.8379L212.227 57.6641H216.543ZM229.639 61.5215C228.617 61.9447 227.546 62.1562 226.426 62.1562C224.622 62.1562 223.236 61.6191 222.266 60.5449C221.302 59.4642 220.82 57.8691 220.82 55.7598C220.82 54.7376 220.954 53.8132 221.221 52.9863C221.488 52.1595 221.868 51.4596 222.363 50.8867C222.858 50.3073 223.457 49.8613 224.16 49.5488C224.863 49.2363 225.651 49.0801 226.523 49.0801C227.116 49.0801 227.666 49.1322 228.174 49.2363C228.682 49.334 229.17 49.487 229.639 49.6953V51.4043C229.176 51.1504 228.698 50.9583 228.203 50.8281C227.708 50.6914 227.168 50.623 226.582 50.623C225.983 50.623 225.439 50.737 224.951 50.9648C224.469 51.1862 224.059 51.5117 223.721 51.9414C223.382 52.3646 223.122 52.8854 222.939 53.5039C222.757 54.1159 222.666 54.8158 222.666 55.6035C222.666 57.2572 223.001 58.5039 223.672 59.3438C224.342 60.1836 225.326 60.6035 226.621 60.6035C227.168 60.6035 227.692 60.5417 228.193 60.418C228.695 60.2878 229.176 60.1087 229.639 59.8809V61.5215Z" fill="#C9D1D9"/>
<path d="M6.73438 286.676C6.73438 285.879 6.11979 285.481 4.89062 285.481C4.27604 285.481 3.79427 285.608 3.44531 285.864C3.09635 286.119 2.92188 286.455 2.92188 286.871V292.793H1.45312V281.035H2.92188V285.293C3.45833 284.668 4.28125 284.356 5.39062 284.356C6.79688 284.356 7.68229 284.845 8.04688 285.824C8.15104 286.106 8.20312 286.416 8.20312 286.754V292.793H6.73438V286.676ZM13.2578 292.965C12.4193 292.965 11.7682 292.739 11.3047 292.285C10.8411 291.827 10.6094 291.259 10.6094 290.582C10.6094 290.197 10.6901 289.877 10.8516 289.621C11.1797 289.101 12.1589 288.603 13.7891 288.129C14.7318 287.869 15.2734 287.645 15.4141 287.457C15.5599 287.27 15.6406 287.124 15.6562 287.02C15.6719 286.91 15.6797 286.739 15.6797 286.504C15.6797 286.27 15.5833 286.041 15.3906 285.817C15.2031 285.593 14.7917 285.481 14.1562 285.481C13.2604 285.481 12.7109 285.653 12.5078 285.996C12.4036 286.173 12.3516 286.413 12.3516 286.715V287.082H10.9375V286.707C10.9375 285.9 11.2057 285.306 11.7422 284.926C12.2839 284.546 13.0911 284.356 14.1641 284.356C15.237 284.356 16.0026 284.601 16.4609 285.09C16.9193 285.574 17.1484 286.267 17.1484 287.168V290.699C17.1484 291.132 17.2031 291.413 17.3125 291.543C17.4219 291.668 17.6562 291.731 18.0156 291.731L17.8438 292.856H17.5469C17.026 292.856 16.638 292.757 16.3828 292.559C16.1276 292.356 15.9323 292.043 15.7969 291.621C15.3646 292.267 14.8438 292.673 14.2344 292.84C13.9427 292.923 13.6172 292.965 13.2578 292.965ZM13.9922 289.137C13.2526 289.351 12.7396 289.564 12.4531 289.778C12.1719 289.991 12.0312 290.293 12.0312 290.684C12.0312 291.069 12.1615 291.361 12.4219 291.559C12.6875 291.757 13.0052 291.856 13.375 291.856C13.75 291.856 14.0885 291.809 14.3906 291.715C14.6927 291.616 14.9635 291.473 15.2031 291.285C15.4479 291.093 15.6068 290.874 15.6797 290.629V288.239C15.2995 288.619 14.737 288.918 13.9922 289.137ZM25.3281 286.692C25.3281 285.884 24.7318 285.481 23.5391 285.481C22.9349 285.481 22.4688 285.611 22.1406 285.871C21.8177 286.127 21.6562 286.468 21.6562 286.895V292.793H20.1875V284.512H21.6562V285.317C22.2083 284.676 23.0365 284.356 24.1406 284.356C25.25 284.356 26.0234 284.718 26.4609 285.442L26.6562 285.254C27.2552 284.655 28.0938 284.356 29.1719 284.356C30.5625 284.356 31.4219 284.851 31.75 285.84C31.8438 286.121 31.8906 286.434 31.8906 286.778V292.793H30.4219V286.692C30.4219 285.884 29.8802 285.481 28.7969 285.481C28.1146 285.481 27.6094 285.611 27.2812 285.871C26.9583 286.127 26.7969 286.468 26.7969 286.895V292.793H25.3281V286.692ZM34.875 292.793V284.512H36.3438V292.793H34.875ZM34.875 283.02V281.496H36.3438V283.02H34.875ZM44.6562 286.692C44.6562 285.884 44.0391 285.481 42.8047 285.481C42.1953 285.481 41.7161 285.611 41.3672 285.871C41.0182 286.132 40.8438 286.473 40.8438 286.895V292.793H39.375V284.512H40.8438V285.317C41.3958 284.676 42.2135 284.356 43.2969 284.356C44.7031 284.356 45.5938 284.851 45.9688 285.84C46.0729 286.121 46.125 286.434 46.125 286.778V292.793H44.6562V286.692ZM49.8047 294.567C50.3464 294.765 51.0104 294.864 51.7969 294.864C52.5833 294.864 53.1328 294.715 53.4453 294.418C53.763 294.121 53.9219 293.66 53.9219 293.035V291.887C53.7083 292.085 53.388 292.233 52.9609 292.332C52.5391 292.431 52.151 292.481 51.7969 292.481C49.7031 292.481 48.6562 291.598 48.6562 289.832V287.106C48.6562 286.246 48.9167 285.574 49.4375 285.09C49.9635 284.601 50.75 284.356 51.7969 284.356C52.2135 284.356 52.6406 284.444 53.0781 284.621C53.5208 284.793 53.8021 284.978 53.9219 285.176V284.512H55.3906V292.598C55.3906 293.593 55.1276 294.405 54.6016 295.035C54.0807 295.666 53.237 295.981 52.0703 295.981C50.9036 295.981 50.0391 295.877 49.4766 295.668L49.8047 294.567ZM53.9219 286.621C53.9219 285.861 53.2891 285.481 52.0234 285.481C50.7578 285.481 50.125 285.97 50.125 286.949V290.059C50.125 290.923 50.7578 291.356 52.0234 291.356C52.7682 291.356 53.401 291.147 53.9219 290.731V286.621ZM59.3906 290.457C59.3906 291.379 60.0443 291.84 61.3516 291.84C62.6589 291.84 63.3125 291.379 63.3125 290.457V286.871C63.3125 285.944 62.6589 285.481 61.3516 285.481C60.0443 285.481 59.3906 285.944 59.3906 286.871V290.457ZM64.7812 290.332C64.7812 291.145 64.5026 291.788 63.9453 292.262C63.3932 292.731 62.526 292.965 61.3438 292.965C60.1615 292.965 59.2943 292.731 58.7422 292.262C58.1953 291.793 57.9219 291.15 57.9219 290.332V286.996C57.9219 286.179 58.1953 285.535 58.7422 285.067C59.2943 284.593 60.1615 284.356 61.3438 284.356C62.526 284.356 63.3932 284.593 63.9453 285.067C64.5026 285.541 64.7812 286.184 64.7812 286.996V290.332ZM69.6172 292.793L66.4062 284.512H67.8828L70.375 291.231L72.5938 284.512H74.0312L71.1016 292.793H69.6172ZM77.1562 290.457C77.1562 291.379 77.8099 291.84 79.1172 291.84C80.4245 291.84 81.0781 291.379 81.0781 290.457V286.871C81.0781 285.944 80.4245 285.481 79.1172 285.481C77.8099 285.481 77.1562 285.944 77.1562 286.871V290.457ZM82.5469 290.332C82.5469 291.145 82.2682 291.788 81.7109 292.262C81.1589 292.731 80.2917 292.965 79.1094 292.965C77.9271 292.965 77.0599 292.731 76.5078 292.262C75.9609 291.793 75.6875 291.15 75.6875 290.332V286.996C75.6875 286.179 75.9609 285.535 76.5078 285.067C77.0599 284.593 77.9271 284.356 79.1094 284.356C80.2917 284.356 81.1589 284.593 81.7109 285.067C82.2682 285.541 82.5469 286.184 82.5469 286.996V290.332ZM85.4062 292.793V281.496H90.4453C92.0026 281.496 92.9792 282.085 93.375 283.262C93.5208 283.699 93.5938 284.22 93.5938 284.824C93.599 285.423 93.5312 285.929 93.3906 286.34C93.25 286.746 93.0677 287.061 92.8438 287.285C92.625 287.504 92.3464 287.684 92.0078 287.824L94.4062 292.793H92.7891L90.5469 288.106L86.9844 288.114V292.793H85.4062ZM86.9844 286.918H90.3125C90.9792 286.918 91.4297 286.739 91.6641 286.379C91.9036 286.02 92.0234 285.512 92.0234 284.856C92.0182 283.679 91.7083 282.986 91.0938 282.778C90.9167 282.715 90.7161 282.686 90.4922 282.692H86.9844V286.918ZM98.8203 292.965C97.9818 292.965 97.3307 292.739 96.8672 292.285C96.4036 291.827 96.1719 291.259 96.1719 290.582C96.1719 290.197 96.2526 289.877 96.4141 289.621C96.7422 289.101 97.7214 288.603 99.3516 288.129C100.294 287.869 100.836 287.645 100.977 287.457C101.122 287.27 101.203 287.124 101.219 287.02C101.234 286.91 101.242 286.739 101.242 286.504C101.242 286.27 101.146 286.041 100.953 285.817C100.766 285.593 100.354 285.481 99.7188 285.481C98.8229 285.481 98.2734 285.653 98.0703 285.996C97.9661 286.173 97.9141 286.413 97.9141 286.715V287.082H96.5V286.707C96.5 285.9 96.7682 285.306 97.3047 284.926C97.8464 284.546 98.6536 284.356 99.7266 284.356C100.799 284.356 101.565 284.601 102.023 285.09C102.482 285.574 102.711 286.267 102.711 287.168V290.699C102.711 291.132 102.766 291.413 102.875 291.543C102.984 291.668 103.219 291.731 103.578 291.731L103.406 292.856H103.109C102.589 292.856 102.201 292.757 101.945 292.559C101.69 292.356 101.495 292.043 101.359 291.621C100.927 292.267 100.406 292.673 99.7969 292.84C99.5052 292.923 99.1797 292.965 98.8203 292.965ZM99.5547 289.137C98.8151 289.351 98.3021 289.564 98.0156 289.778C97.7344 289.991 97.5938 290.293 97.5938 290.684C97.5938 291.069 97.724 291.361 97.9844 291.559C98.25 291.757 98.5677 291.856 98.9375 291.856C99.3125 291.856 99.651 291.809 99.9531 291.715C100.255 291.616 100.526 291.473 100.766 291.285C101.01 291.093 101.169 290.874 101.242 290.629V288.239C100.862 288.619 100.299 288.918 99.5547 289.137ZM108.227 291.84C109.336 291.84 109.891 291.426 109.891 290.598C109.891 290.239 109.841 289.973 109.742 289.801C109.643 289.624 109.411 289.468 109.047 289.332L107.078 288.606C106.474 288.392 106.052 288.14 105.812 287.848C105.578 287.551 105.461 287.181 105.461 286.739C105.461 286.296 105.505 285.942 105.594 285.676C105.682 285.405 105.828 285.168 106.031 284.965C106.438 284.559 107.167 284.356 108.219 284.356C109.271 284.356 110.177 284.507 110.938 284.809L110.602 285.934C110.336 285.824 109.987 285.723 109.555 285.629C109.122 285.53 108.745 285.481 108.422 285.481C107.677 285.481 107.206 285.601 107.008 285.84C106.888 285.991 106.828 286.212 106.828 286.504C106.828 286.796 106.875 287.004 106.969 287.129C107.068 287.249 107.258 287.358 107.539 287.457L109.484 288.223C110.161 288.489 110.607 288.783 110.82 289.106C111.034 289.423 111.141 289.926 111.141 290.614C111.141 291.301 110.919 291.866 110.477 292.309C110.034 292.746 109.349 292.965 108.422 292.965C107.745 292.965 107.143 292.892 106.617 292.746C106.091 292.601 105.688 292.449 105.406 292.293L105.766 291.215C106.51 291.632 107.331 291.84 108.227 291.84ZM117.328 292.856C116.172 292.856 115.336 292.673 114.82 292.309C114.31 291.944 114.055 291.317 114.055 290.426V285.621H112.672V284.512H114.109L114.289 281.949H115.523V284.512H117.602V285.621H115.523V290.332C115.523 290.853 115.672 291.199 115.969 291.371C116.271 291.538 116.794 291.621 117.539 291.621H117.703L117.547 292.856H117.328ZM121.234 290.457C121.234 291.379 121.888 291.84 123.195 291.84C124.503 291.84 125.156 291.379 125.156 290.457V286.871C125.156 285.944 124.503 285.481 123.195 285.481C121.888 285.481 121.234 285.944 121.234 286.871V290.457ZM126.625 290.332C126.625 291.145 126.346 291.788 125.789 292.262C125.237 292.731 124.37 292.965 123.188 292.965C122.005 292.965 121.138 292.731 120.586 292.262C120.039 291.793 119.766 291.15 119.766 290.332V286.996C119.766 286.179 120.039 285.535 120.586 285.067C121.138 284.593 122.005 284.356 123.188 284.356C124.37 284.356 125.237 284.593 125.789 285.067C126.346 285.541 126.625 286.184 126.625 286.996V290.332ZM128.031 295.551L127.883 294.332H128.109C128.641 294.332 128.995 294.262 129.172 294.121C129.349 293.986 129.464 293.817 129.516 293.614C129.568 293.416 129.594 293.153 129.594 292.824V284.512H131.062V292.739C131.062 294.098 130.75 294.939 130.125 295.262C129.755 295.455 129.229 295.551 128.547 295.551H128.031ZM129.594 283.02V281.496H131.062V283.02H129.594ZM136.164 292.965C135.326 292.965 134.674 292.739 134.211 292.285C133.747 291.827 133.516 291.259 133.516 290.582C133.516 290.197 133.596 289.877 133.758 289.621C134.086 289.101 135.065 288.603 136.695 288.129C137.638 287.869 138.18 287.645 138.32 287.457C138.466 287.27 138.547 287.124 138.562 287.02C138.578 286.91 138.586 286.739 138.586 286.504C138.586 286.27 138.49 286.041 138.297 285.817C138.109 285.593 137.698 285.481 137.062 285.481C136.167 285.481 135.617 285.653 135.414 285.996C135.31 286.173 135.258 286.413 135.258 286.715V287.082H133.844V286.707C133.844 285.9 134.112 285.306 134.648 284.926C135.19 284.546 135.997 284.356 137.07 284.356C138.143 284.356 138.909 284.601 139.367 285.09C139.826 285.574 140.055 286.267 140.055 287.168V290.699C140.055 291.132 140.109 291.413 140.219 291.543C140.328 291.668 140.562 291.731 140.922 291.731L140.75 292.856H140.453C139.932 292.856 139.544 292.757 139.289 292.559C139.034 292.356 138.839 292.043 138.703 291.621C138.271 292.267 137.75 292.673 137.141 292.84C136.849 292.923 136.523 292.965 136.164 292.965ZM136.898 289.137C136.159 289.351 135.646 289.564 135.359 289.778C135.078 289.991 134.938 290.293 134.938 290.684C134.938 291.069 135.068 291.361 135.328 291.559C135.594 291.757 135.911 291.856 136.281 291.856C136.656 291.856 136.995 291.809 137.297 291.715C137.599 291.616 137.87 291.473 138.109 291.285C138.354 291.093 138.513 290.874 138.586 290.629V288.239C138.206 288.619 137.643 288.918 136.898 289.137ZM148.375 286.692C148.375 285.884 147.758 285.481 146.523 285.481C145.914 285.481 145.435 285.611 145.086 285.871C144.737 286.132 144.562 286.473 144.562 286.895V292.793H143.094V284.512H144.562V285.317C145.115 284.676 145.932 284.356 147.016 284.356C148.422 284.356 149.312 284.851 149.688 285.84C149.792 286.121 149.844 286.434 149.844 286.778V292.793H148.375V286.692ZM151.469 295.551L151.32 294.332H151.547C152.078 294.332 152.432 294.262 152.609 294.121C152.786 293.986 152.901 293.817 152.953 293.614C153.005 293.416 153.031 293.153 153.031 292.824V284.512H154.5V292.739C154.5 294.098 154.188 294.939 153.562 295.262C153.193 295.455 152.667 295.551 151.984 295.551H151.469ZM153.031 283.02V281.496H154.5V283.02H153.031ZM160.523 292.965C159.31 292.965 158.432 292.712 157.891 292.207C157.349 291.702 157.078 290.923 157.078 289.871V286.989C157.078 286.171 157.357 285.528 157.914 285.059C158.471 284.59 159.312 284.356 160.438 284.356C161.568 284.356 162.406 284.574 162.953 285.012C163.505 285.444 163.781 286.064 163.781 286.871V288.84H158.547V290.004C158.547 290.692 158.685 291.171 158.961 291.442C159.237 291.707 159.734 291.84 160.453 291.84C161.172 291.84 161.578 291.824 161.672 291.793C161.766 291.762 161.862 291.726 161.961 291.684C162.06 291.642 162.128 291.593 162.164 291.535C162.206 291.478 162.258 291.392 162.32 291.278C162.388 291.158 162.438 290.929 162.469 290.59H163.766C163.714 291.085 163.625 291.483 163.5 291.785C163.38 292.087 163.188 292.33 162.922 292.512C162.661 292.689 162.346 292.809 161.977 292.871C161.612 292.934 161.128 292.965 160.523 292.965ZM158.547 287.848H162.359V286.715C162.359 286.246 162.198 285.923 161.875 285.746C161.557 285.569 161.089 285.481 160.469 285.481C159.849 285.481 159.372 285.587 159.039 285.801C158.711 286.015 158.547 286.366 158.547 286.856V287.848ZM170 293.965C169.286 293.965 168.638 293.864 168.055 293.66C167.695 293.535 167.328 293.257 166.953 292.824C166.766 292.611 166.615 292.27 166.5 291.801C166.385 291.327 166.326 290.887 166.32 290.481C166.315 290.074 166.312 289.699 166.312 289.356V285.301C166.312 284.249 166.339 283.598 166.391 283.348C166.443 283.093 166.497 282.845 166.555 282.606C166.612 282.361 166.688 282.168 166.781 282.028C166.875 281.882 166.987 281.72 167.117 281.543C167.247 281.361 167.404 281.22 167.586 281.121C167.768 281.017 168.023 280.897 168.352 280.762C168.685 280.621 169.234 280.551 170 280.551V281.731C169.083 281.731 168.492 281.955 168.227 282.403C168.122 282.58 168.026 282.775 167.938 282.989C167.854 283.202 167.812 283.877 167.812 285.012V289.598C167.812 290.718 167.854 291.382 167.938 291.59C168.146 292.095 168.372 292.405 168.617 292.52C169.008 292.702 169.469 292.793 170 292.793V293.965ZM171.703 292.793L175.383 287.082L171.875 281.496H173.461L176.195 285.778L178.859 281.496H180.555L177.008 287.059L180.672 292.793H178.969L176.18 288.356L173.359 292.793H171.703ZM183.57 295.434L182.938 295.09C183.448 294.476 183.771 293.949 183.906 293.512C183.979 293.272 184.013 293.033 184.008 292.793H182.906V290.973H184.914V292.403C184.914 293.304 184.602 294.163 183.977 294.981C183.841 295.158 183.706 295.309 183.57 295.434ZM190.797 292.793V288.356L186.797 281.496H188.461L191.586 286.981L194.727 281.496H196.344L192.367 288.356V292.793H190.797ZM197.688 293.965V292.785C198.604 292.791 199.195 292.569 199.461 292.121C199.565 291.944 199.659 291.749 199.742 291.535C199.831 291.317 199.875 290.64 199.875 289.504V284.918C199.875 283.798 199.833 283.134 199.75 282.926C199.542 282.421 199.315 282.111 199.07 281.996C198.68 281.814 198.219 281.723 197.688 281.723V280.551C198.401 280.551 199.049 280.653 199.633 280.856C199.992 280.981 200.359 281.259 200.734 281.692C200.922 281.905 201.073 282.249 201.188 282.723C201.302 283.192 201.362 283.629 201.367 284.035C201.372 284.442 201.375 284.817 201.375 285.16V289.215C201.375 290.267 201.349 290.921 201.297 291.176C201.245 291.426 201.19 291.673 201.133 291.918C201.076 292.158 201 292.351 200.906 292.496C200.812 292.637 200.701 292.796 200.57 292.973C200.44 293.155 200.284 293.296 200.102 293.395C199.919 293.499 199.661 293.619 199.328 293.754C199 293.895 198.453 293.965 197.688 293.965ZM208.469 289.145V287.989H214.734V289.145H208.469ZM208.469 286.504V285.348H214.734V286.504H208.469ZM227.586 284.293C227.586 283.158 226.995 282.59 225.812 282.59C225.198 282.59 224.771 282.647 224.531 282.762C224.292 282.877 224.12 283.015 224.016 283.176C223.797 283.52 223.688 284.056 223.688 284.785H222.188C222.188 283.832 222.349 283.106 222.672 282.606C222.995 282.101 223.414 281.762 223.93 281.59C224.451 281.413 225.06 281.324 225.758 281.324C226.773 281.324 227.576 281.569 228.164 282.059C228.758 282.543 229.055 283.28 229.055 284.27C229.055 285.03 228.911 285.616 228.625 286.028C228.344 286.434 227.883 286.689 227.242 286.793C227.924 286.934 228.435 287.223 228.773 287.66C229.112 288.098 229.281 288.811 229.281 289.801C229.281 290.791 228.979 291.567 228.375 292.129C227.771 292.686 226.909 292.965 225.789 292.965C224.94 292.965 224.266 292.853 223.766 292.629C223.271 292.405 222.893 292.041 222.633 291.535C222.372 291.03 222.198 290.327 222.109 289.426H223.609C223.672 290.353 223.872 290.968 224.211 291.27C224.398 291.436 224.62 291.551 224.875 291.614C225.13 291.671 225.464 291.699 225.875 291.699C226.536 291.699 227.021 291.53 227.328 291.192C227.635 290.853 227.789 290.288 227.789 289.496C227.789 288.705 227.643 288.181 227.352 287.926C227.065 287.666 226.711 287.512 226.289 287.465C225.872 287.418 225.466 287.395 225.07 287.395V286.231C225.904 286.231 226.466 286.163 226.758 286.028C227.049 285.892 227.26 285.728 227.391 285.535C227.521 285.337 227.586 284.923 227.586 284.293Z" fill="#C9D1D9"/>
<path d="M10.7617 189.793H8.56445L5.45898 184.637L2.34375 189.793H0.175781L4.42383 183.27L0.517578 177.03H2.57812L5.49805 181.834L8.4375 177.03H10.4395L6.52344 183.192L10.7617 189.793ZM16.4941 179.813C16.696 179.813 16.888 179.855 17.0703 179.94C17.2526 180.018 17.4121 180.125 17.5488 180.262C17.6855 180.399 17.793 180.558 17.8711 180.74C17.9557 180.923 17.998 181.115 17.998 181.317C17.998 181.525 17.9557 181.72 17.8711 181.903C17.793 182.078 17.6855 182.235 17.5488 182.371C17.4121 182.508 17.2526 182.615 17.0703 182.694C16.888 182.772 16.696 182.811 16.4941 182.811C16.2858 182.811 16.0905 182.772 15.9082 182.694C15.7324 182.615 15.5762 182.508 15.4395 182.371C15.3027 182.235 15.1953 182.078 15.1172 181.903C15.0391 181.72 15 181.525 15 181.317C15 181.115 15.0391 180.923 15.1172 180.74C15.1953 180.558 15.3027 180.399 15.4395 180.262C15.5762 180.125 15.7324 180.018 15.9082 179.94C16.0905 179.855 16.2858 179.813 16.4941 179.813ZM16.4941 186.971C16.696 186.971 16.888 187.013 17.0703 187.098C17.2526 187.176 17.4121 187.283 17.5488 187.42C17.6855 187.557 17.793 187.716 17.8711 187.899C17.9557 188.081 17.998 188.273 17.998 188.475C17.998 188.683 17.9557 188.878 17.8711 189.061C17.793 189.237 17.6855 189.393 17.5488 189.53C17.4121 189.666 17.2526 189.774 17.0703 189.852C16.888 189.93 16.696 189.969 16.4941 189.969C16.2858 189.969 16.0905 189.93 15.9082 189.852C15.7324 189.774 15.5762 189.666 15.4395 189.53C15.3027 189.393 15.1953 189.237 15.1172 189.061C15.0391 188.878 15 188.683 15 188.475C15 188.273 15.0391 188.081 15.1172 187.899C15.1953 187.716 15.3027 187.557 15.4395 187.42C15.5762 187.283 15.7324 187.176 15.9082 187.098C16.0905 187.013 16.2858 186.971 16.4941 186.971ZM10.9961 223.03L6.37695 231.233V235.793H4.61914V231.194L0 223.03H2.09961L4.63867 227.698L5.57617 229.573L6.43555 227.873L9.00391 223.03H10.9961ZM16.4941 225.813C16.696 225.813 16.888 225.855 17.0703 225.94C17.2526 226.018 17.4121 226.125 17.5488 226.262C17.6855 226.399 17.793 226.558 17.8711 226.74C17.9557 226.923 17.998 227.115 17.998 227.317C17.998 227.525 17.9557 227.72 17.8711 227.903C17.793 228.078 17.6855 228.235 17.5488 228.371C17.4121 228.508 17.2526 228.615 17.0703 228.694C16.888 228.772 16.696 228.811 16.4941 228.811C16.2858 228.811 16.0905 228.772 15.9082 228.694C15.7324 228.615 15.5762 228.508 15.4395 228.371C15.3027 228.235 15.1953 228.078 15.1172 227.903C15.0391 227.72 15 227.525 15 227.317C15 227.115 15.0391 226.923 15.1172 226.74C15.1953 226.558 15.3027 226.399 15.4395 226.262C15.5762 226.125 15.7324 226.018 15.9082 225.94C16.0905 225.855 16.2858 225.813 16.4941 225.813ZM16.4941 232.971C16.696 232.971 16.888 233.013 17.0703 233.098C17.2526 233.176 17.4121 233.283 17.5488 233.42C17.6855 233.557 17.793 233.716 17.8711 233.899C17.9557 234.081 17.998 234.273 17.998 234.475C17.998 234.683 17.9557 234.878 17.8711 235.061C17.793 235.237 17.6855 235.393 17.5488 235.53C17.4121 235.666 17.2526 235.774 17.0703 235.852C16.888 235.93 16.696 235.969 16.4941 235.969C16.2858 235.969 16.0905 235.93 15.9082 235.852C15.7324 235.774 15.5762 235.666 15.4395 235.53C15.3027 235.393 15.1953 235.237 15.1172 235.061C15.0391 234.878 15 234.683 15 234.475C15 234.273 15.0391 234.081 15.1172 233.899C15.1953 233.716 15.3027 233.557 15.4395 233.42C15.5762 233.283 15.7324 233.176 15.9082 233.098C16.0905 233.013 16.2858 232.971 16.4941 232.971Z" fill="#C9D1D9"/>
<path d="M42.8125 179.217C42.3372 178.963 41.849 178.768 41.3477 178.631C40.8464 178.488 40.2995 178.416 39.707 178.416C39.0299 178.416 38.4277 178.537 37.9004 178.778C37.373 179.018 36.9271 179.36 36.5625 179.803C36.2044 180.239 35.9277 180.767 35.7324 181.385C35.5436 182.003 35.4492 182.687 35.4492 183.436C35.4492 184.217 35.5273 184.917 35.6836 185.535C35.8398 186.154 36.084 186.678 36.416 187.108C36.748 187.537 37.1712 187.866 37.6855 188.094C38.2064 188.322 38.8281 188.436 39.5508 188.436C39.6745 188.436 39.8079 188.429 39.9512 188.416C40.0944 188.403 40.2376 188.387 40.3809 188.367C40.5241 188.341 40.6608 188.312 40.791 188.28C40.9277 188.247 41.0482 188.211 41.1523 188.172V184.11H38.5449V182.674H42.8711V189.198C42.6042 189.321 42.321 189.432 42.0215 189.53C41.7285 189.627 41.4258 189.709 41.1133 189.774C40.8073 189.839 40.5013 189.888 40.1953 189.92C39.8893 189.953 39.5931 189.969 39.3066 189.969C38.4342 189.969 37.6465 189.832 36.9434 189.559C36.2467 189.285 35.651 188.882 35.1562 188.348C34.668 187.808 34.2904 187.137 34.0234 186.336C33.763 185.535 33.6328 184.608 33.6328 183.553C33.6328 182.505 33.7793 181.567 34.0723 180.74C34.3652 179.907 34.7754 179.204 35.3027 178.631C35.8366 178.052 36.4746 177.612 37.2168 177.313C37.9655 177.007 38.7891 176.854 39.6875 176.854C40.2604 176.854 40.804 176.906 41.3184 177.01C41.8392 177.108 42.3372 177.267 42.8125 177.489V179.217ZM64.8047 179.217C64.3294 178.963 63.8411 178.768 63.3398 178.631C62.8385 178.488 62.2917 178.416 61.6992 178.416C61.0221 178.416 60.4199 178.537 59.8926 178.778C59.3652 179.018 58.9193 179.36 58.5547 179.803C58.1966 180.239 57.9199 180.767 57.7246 181.385C57.5358 182.003 57.4414 182.687 57.4414 183.436C57.4414 184.217 57.5195 184.917 57.6758 185.535C57.832 186.154 58.0762 186.678 58.4082 187.108C58.7402 187.537 59.1634 187.866 59.6777 188.094C60.1986 188.322 60.8203 188.436 61.543 188.436C61.6667 188.436 61.8001 188.429 61.9434 188.416C62.0866 188.403 62.2298 188.387 62.373 188.367C62.5163 188.341 62.653 188.312 62.7832 188.28C62.9199 188.247 63.0404 188.211 63.1445 188.172V184.11H60.5371V182.674H64.8633V189.198C64.5964 189.321 64.3132 189.432 64.0137 189.53C63.7207 189.627 63.418 189.709 63.1055 189.774C62.7995 189.839 62.4935 189.888 62.1875 189.92C61.8815 189.953 61.5853 189.969 61.2988 189.969C60.4264 189.969 59.6387 189.832 58.9355 189.559C58.2389 189.285 57.6432 188.882 57.1484 188.348C56.6602 187.808 56.2826 187.137 56.0156 186.336C55.7552 185.535 55.625 184.608 55.625 183.553C55.625 182.505 55.7715 181.567 56.0645 180.74C56.3574 179.907 56.7676 179.204 57.2949 178.631C57.8288 178.052 58.4668 177.612 59.209 177.313C59.9577 177.007 60.7812 176.854 61.6797 176.854C62.2526 176.854 62.7962 176.906 63.3105 177.01C63.8314 177.108 64.3294 177.267 64.8047 177.489V179.217ZM75.8008 179.217C75.3255 178.963 74.8372 178.768 74.3359 178.631C73.8346 178.488 73.2878 178.416 72.6953 178.416C72.0182 178.416 71.416 178.537 70.8887 178.778C70.3613 179.018 69.9154 179.36 69.5508 179.803C69.1927 180.239 68.916 180.767 68.7207 181.385C68.5319 182.003 68.4375 182.687 68.4375 183.436C68.4375 184.217 68.5156 184.917 68.6719 185.535C68.8281 186.154 69.0723 186.678 69.4043 187.108C69.7363 187.537 70.1595 187.866 70.6738 188.094C71.1947 188.322 71.8164 188.436 72.5391 188.436C72.6628 188.436 72.7962 188.429 72.9395 188.416C73.0827 188.403 73.2259 188.387 73.3691 188.367C73.5124 188.341 73.6491 188.312 73.7793 188.28C73.916 188.247 74.0365 188.211 74.1406 188.172V184.11H71.5332V182.674H75.8594V189.198C75.5924 189.321 75.3092 189.432 75.0098 189.53C74.7168 189.627 74.4141 189.709 74.1016 189.774C73.7956 189.839 73.4896 189.888 73.1836 189.92C72.8776 189.953 72.5814 189.969 72.2949 189.969C71.4225 189.969 70.6348 189.832 69.9316 189.559C69.235 189.285 68.6393 188.882 68.1445 188.348C67.6562 187.808 67.2786 187.137 67.0117 186.336C66.7513 185.535 66.6211 184.608 66.6211 183.553C66.6211 182.505 66.7676 181.567 67.0605 180.74C67.3535 179.907 67.7637 179.204 68.291 178.631C68.8249 178.052 69.4629 177.612 70.2051 177.313C70.9538 177.007 71.7773 176.854 72.6758 176.854C73.2487 176.854 73.7923 176.906 74.3066 177.01C74.8275 177.108 75.3255 177.267 75.8008 177.489V179.217ZM87.1289 178.514H83.3496V189.793H81.5918V178.514H77.8125V177.03H87.1289V178.514ZM98.8672 189.793H96.9727L96.084 187.01H90.7715L89.873 189.793H88.0664L92.3047 177.03H94.6875L98.8672 189.793ZM95.5859 185.457L93.4277 178.631L91.2695 185.457H95.5859ZM119.678 189.315C118.656 189.738 117.585 189.949 116.465 189.949C114.661 189.949 113.275 189.412 112.305 188.338C111.341 187.257 110.859 185.662 110.859 183.553C110.859 182.531 110.993 181.606 111.26 180.78C111.527 179.953 111.908 179.253 112.402 178.68C112.897 178.101 113.496 177.655 114.199 177.342C114.902 177.03 115.69 176.873 116.562 176.873C117.155 176.873 117.705 176.925 118.213 177.03C118.721 177.127 119.209 177.28 119.678 177.489V179.198C119.215 178.944 118.737 178.752 118.242 178.621C117.747 178.485 117.207 178.416 116.621 178.416C116.022 178.416 115.479 178.53 114.99 178.758C114.508 178.979 114.098 179.305 113.76 179.735C113.421 180.158 113.161 180.679 112.979 181.297C112.796 181.909 112.705 182.609 112.705 183.397C112.705 185.05 113.04 186.297 113.711 187.137C114.382 187.977 115.365 188.397 116.66 188.397C117.207 188.397 117.731 188.335 118.232 188.211C118.734 188.081 119.215 187.902 119.678 187.674V189.315ZM130.781 179.217C130.306 178.963 129.818 178.768 129.316 178.631C128.815 178.488 128.268 178.416 127.676 178.416C126.999 178.416 126.396 178.537 125.869 178.778C125.342 179.018 124.896 179.36 124.531 179.803C124.173 180.239 123.896 180.767 123.701 181.385C123.512 182.003 123.418 182.687 123.418 183.436C123.418 184.217 123.496 184.917 123.652 185.535C123.809 186.154 124.053 186.678 124.385 187.108C124.717 187.537 125.14 187.866 125.654 188.094C126.175 188.322 126.797 188.436 127.52 188.436C127.643 188.436 127.777 188.429 127.92 188.416C128.063 188.403 128.206 188.387 128.35 188.367C128.493 188.341 128.63 188.312 128.76 188.28C128.896 188.247 129.017 188.211 129.121 188.172V184.11H126.514V182.674H130.84V189.198C130.573 189.321 130.29 189.432 129.99 189.53C129.697 189.627 129.395 189.709 129.082 189.774C128.776 189.839 128.47 189.888 128.164 189.92C127.858 189.953 127.562 189.969 127.275 189.969C126.403 189.969 125.615 189.832 124.912 189.559C124.215 189.285 123.62 188.882 123.125 188.348C122.637 187.808 122.259 187.137 121.992 186.336C121.732 185.535 121.602 184.608 121.602 183.553C121.602 182.505 121.748 181.567 122.041 180.74C122.334 179.907 122.744 179.204 123.271 178.631C123.805 178.052 124.443 177.612 125.186 177.313C125.934 177.007 126.758 176.854 127.656 176.854C128.229 176.854 128.773 176.906 129.287 177.01C129.808 177.108 130.306 177.267 130.781 177.489V179.217ZM141.777 179.217C141.302 178.963 140.814 178.768 140.312 178.631C139.811 178.488 139.264 178.416 138.672 178.416C137.995 178.416 137.393 178.537 136.865 178.778C136.338 179.018 135.892 179.36 135.527 179.803C135.169 180.239 134.893 180.767 134.697 181.385C134.508 182.003 134.414 182.687 134.414 183.436C134.414 184.217 134.492 184.917 134.648 185.535C134.805 186.154 135.049 186.678 135.381 187.108C135.713 187.537 136.136 187.866 136.65 188.094C137.171 188.322 137.793 188.436 138.516 188.436C138.639 188.436 138.773 188.429 138.916 188.416C139.059 188.403 139.202 188.387 139.346 188.367C139.489 188.341 139.626 188.312 139.756 188.28C139.893 188.247 140.013 188.211 140.117 188.172V184.11H137.51V182.674H141.836V189.198C141.569 189.321 141.286 189.432 140.986 189.53C140.693 189.627 140.391 189.709 140.078 189.774C139.772 189.839 139.466 189.888 139.16 189.92C138.854 189.953 138.558 189.969 138.271 189.969C137.399 189.969 136.611 189.832 135.908 189.559C135.212 189.285 134.616 188.882 134.121 188.348C133.633 187.808 133.255 187.137 132.988 186.336C132.728 185.535 132.598 184.608 132.598 183.553C132.598 182.505 132.744 181.567 133.037 180.74C133.33 179.907 133.74 179.204 134.268 178.631C134.801 178.052 135.439 177.612 136.182 177.313C136.93 177.007 137.754 176.854 138.652 176.854C139.225 176.854 139.769 176.906 140.283 177.01C140.804 177.108 141.302 177.267 141.777 177.489V179.217ZM163.77 179.217C163.294 178.963 162.806 178.768 162.305 178.631C161.803 178.488 161.257 178.416 160.664 178.416C159.987 178.416 159.385 178.537 158.857 178.778C158.33 179.018 157.884 179.36 157.52 179.803C157.161 180.239 156.885 180.767 156.689 181.385C156.501 182.003 156.406 182.687 156.406 183.436C156.406 184.217 156.484 184.917 156.641 185.535C156.797 186.154 157.041 186.678 157.373 187.108C157.705 187.537 158.128 187.866 158.643 188.094C159.163 188.322 159.785 188.436 160.508 188.436C160.632 188.436 160.765 188.429 160.908 188.416C161.051 188.403 161.195 188.387 161.338 188.367C161.481 188.341 161.618 188.312 161.748 188.28C161.885 188.247 162.005 188.211 162.109 188.172V184.11H159.502V182.674H163.828V189.198C163.561 189.321 163.278 189.432 162.979 189.53C162.686 189.627 162.383 189.709 162.07 189.774C161.764 189.839 161.458 189.888 161.152 189.92C160.846 189.953 160.55 189.969 160.264 189.969C159.391 189.969 158.604 189.832 157.9 189.559C157.204 189.285 156.608 188.882 156.113 188.348C155.625 187.808 155.247 187.137 154.98 186.336C154.72 185.535 154.59 184.608 154.59 183.553C154.59 182.505 154.736 181.567 155.029 180.74C155.322 179.907 155.732 179.204 156.26 178.631C156.794 178.052 157.432 177.612 158.174 177.313C158.923 177.007 159.746 176.854 160.645 176.854C161.217 176.854 161.761 176.906 162.275 177.01C162.796 177.108 163.294 177.267 163.77 177.489V179.217ZM175.098 178.514H171.318V189.793H169.561V178.514H165.781V177.03H175.098V178.514ZM186.094 178.514H182.314V189.793H180.557V178.514H176.777V177.03H186.094V178.514ZM197.09 178.514H193.311V189.793H191.553V178.514H187.773V177.03H197.09V178.514ZM208.828 189.793H206.934L206.045 187.01H200.732L199.834 189.793H198.027L202.266 177.03H204.648L208.828 189.793ZM205.547 185.457L203.389 178.631L201.23 185.457H205.547ZM219.824 189.793H217.93L217.041 187.01H211.729L210.83 189.793H209.023L213.262 177.03H215.645L219.824 189.793ZM216.543 185.457L214.385 178.631L212.227 185.457H216.543ZM229.639 189.315C228.617 189.738 227.546 189.949 226.426 189.949C224.622 189.949 223.236 189.412 222.266 188.338C221.302 187.257 220.82 185.662 220.82 183.553C220.82 182.531 220.954 181.606 221.221 180.78C221.488 179.953 221.868 179.253 222.363 178.68C222.858 178.101 223.457 177.655 224.16 177.342C224.863 177.03 225.651 176.873 226.523 176.873C227.116 176.873 227.666 176.925 228.174 177.03C228.682 177.127 229.17 177.28 229.639 177.489V179.198C229.176 178.944 228.698 178.752 228.203 178.621C227.708 178.485 227.168 178.416 226.582 178.416C225.983 178.416 225.439 178.53 224.951 178.758C224.469 178.979 224.059 179.305 223.721 179.735C223.382 180.158 223.122 180.679 222.939 181.297C222.757 181.909 222.666 182.609 222.666 183.397C222.666 185.05 223.001 186.297 223.672 187.137C224.342 187.977 225.326 188.397 226.621 188.397C227.168 188.397 227.692 188.335 228.193 188.211C228.695 188.081 229.176 187.902 229.639 187.674V189.315ZM42.8125 225.217C42.3372 224.963 41.849 224.768 41.3477 224.631C40.8464 224.488 40.2995 224.416 39.707 224.416C39.0299 224.416 38.4277 224.537 37.9004 224.778C37.373 225.018 36.9271 225.36 36.5625 225.803C36.2044 226.239 35.9277 226.767 35.7324 227.385C35.5436 228.003 35.4492 228.687 35.4492 229.436C35.4492 230.217 35.5273 230.917 35.6836 231.535C35.8398 232.154 36.084 232.678 36.416 233.108C36.748 233.537 37.1712 233.866 37.6855 234.094C38.2064 234.322 38.8281 234.436 39.5508 234.436C39.6745 234.436 39.8079 234.429 39.9512 234.416C40.0944 234.403 40.2376 234.387 40.3809 234.367C40.5241 234.341 40.6608 234.312 40.791 234.28C40.9277 234.247 41.0482 234.211 41.1523 234.172V230.11H38.5449V228.674H42.8711V235.198C42.6042 235.321 42.321 235.432 42.0215 235.53C41.7285 235.627 41.4258 235.709 41.1133 235.774C40.8073 235.839 40.5013 235.888 40.1953 235.92C39.8893 235.953 39.5931 235.969 39.3066 235.969C38.4342 235.969 37.6465 235.832 36.9434 235.559C36.2467 235.285 35.651 234.882 35.1562 234.348C34.668 233.808 34.2904 233.137 34.0234 232.336C33.763 231.535 33.6328 230.608 33.6328 229.553C33.6328 228.505 33.7793 227.567 34.0723 226.74C34.3652 225.907 34.7754 225.204 35.3027 224.631C35.8366 224.052 36.4746 223.612 37.2168 223.313C37.9655 223.007 38.7891 222.854 39.6875 222.854C40.2604 222.854 40.804 222.906 41.3184 223.01C41.8392 223.108 42.3372 223.267 42.8125 223.489V225.217ZM64.8047 225.217C64.3294 224.963 63.8411 224.768 63.3398 224.631C62.8385 224.488 62.2917 224.416 61.6992 224.416C61.0221 224.416 60.4199 224.537 59.8926 224.778C59.3652 225.018 58.9193 225.36 58.5547 225.803C58.1966 226.239 57.9199 226.767 57.7246 227.385C57.5358 228.003 57.4414 228.687 57.4414 229.436C57.4414 230.217 57.5195 230.917 57.6758 231.535C57.832 232.154 58.0762 232.678 58.4082 233.108C58.7402 233.537 59.1634 233.866 59.6777 234.094C60.1986 234.322 60.8203 234.436 61.543 234.436C61.6667 234.436 61.8001 234.429 61.9434 234.416C62.0866 234.403 62.2298 234.387 62.373 234.367C62.5163 234.341 62.653 234.312 62.7832 234.28C62.9199 234.247 63.0404 234.211 63.1445 234.172V230.11H60.5371V228.674H64.8633V235.198C64.5964 235.321 64.3132 235.432 64.0137 235.53C63.7207 235.627 63.418 235.709 63.1055 235.774C62.7995 235.839 62.4935 235.888 62.1875 235.92C61.8815 235.953 61.5853 235.969 61.2988 235.969C60.4264 235.969 59.6387 235.832 58.9355 235.559C58.2389 235.285 57.6432 234.882 57.1484 234.348C56.6602 233.808 56.2826 233.137 56.0156 232.336C55.7552 231.535 55.625 230.608 55.625 229.553C55.625 228.505 55.7715 227.567 56.0645 226.74C56.3574 225.907 56.7676 225.204 57.2949 224.631C57.8288 224.052 58.4668 223.612 59.209 223.313C59.9577 223.007 60.7812 222.854 61.6797 222.854C62.2526 222.854 62.7962 222.906 63.3105 223.01C63.8314 223.108 64.3294 223.267 64.8047 223.489V225.217ZM75.8008 225.217C75.3255 224.963 74.8372 224.768 74.3359 224.631C73.8346 224.488 73.2878 224.416 72.6953 224.416C72.0182 224.416 71.416 224.537 70.8887 224.778C70.3613 225.018 69.9154 225.36 69.5508 225.803C69.1927 226.239 68.916 226.767 68.7207 227.385C68.5319 228.003 68.4375 228.687 68.4375 229.436C68.4375 230.217 68.5156 230.917 68.6719 231.535C68.8281 232.154 69.0723 232.678 69.4043 233.108C69.7363 233.537 70.1595 233.866 70.6738 234.094C71.1947 234.322 71.8164 234.436 72.5391 234.436C72.6628 234.436 72.7962 234.429 72.9395 234.416C73.0827 234.403 73.2259 234.387 73.3691 234.367C73.5124 234.341 73.6491 234.312 73.7793 234.28C73.916 234.247 74.0365 234.211 74.1406 234.172V230.11H71.5332V228.674H75.8594V235.198C75.5924 235.321 75.3092 235.432 75.0098 235.53C74.7168 235.627 74.4141 235.709 74.1016 235.774C73.7956 235.839 73.4896 235.888 73.1836 235.92C72.8776 235.953 72.5814 235.969 72.2949 235.969C71.4225 235.969 70.6348 235.832 69.9316 235.559C69.235 235.285 68.6393 234.882 68.1445 234.348C67.6562 233.808 67.2786 233.137 67.0117 232.336C66.7513 231.535 66.6211 230.608 66.6211 229.553C66.6211 228.505 66.7676 227.567 67.0605 226.74C67.3535 225.907 67.7637 225.204 68.291 224.631C68.8249 224.052 69.4629 223.612 70.2051 223.313C70.9538 223.007 71.7773 222.854 72.6758 222.854C73.2487 222.854 73.7923 222.906 74.3066 223.01C74.8275 223.108 75.3255 223.267 75.8008 223.489V225.217ZM87.1289 224.514H83.3496V235.793H81.5918V224.514H77.8125V223.03H87.1289V224.514ZM98.8672 235.793H96.9727L96.084 233.01H90.7715L89.873 235.793H88.0664L92.3047 223.03H94.6875L98.8672 235.793ZM95.5859 231.457L93.4277 224.631L91.2695 231.457H95.5859ZM119.678 235.315C118.656 235.738 117.585 235.949 116.465 235.949C114.661 235.949 113.275 235.412 112.305 234.338C111.341 233.257 110.859 231.662 110.859 229.553C110.859 228.531 110.993 227.606 111.26 226.78C111.527 225.953 111.908 225.253 112.402 224.68C112.897 224.101 113.496 223.655 114.199 223.342C114.902 223.03 115.69 222.873 116.562 222.873C117.155 222.873 117.705 222.925 118.213 223.03C118.721 223.127 119.209 223.28 119.678 223.489V225.198C119.215 224.944 118.737 224.752 118.242 224.621C117.747 224.485 117.207 224.416 116.621 224.416C116.022 224.416 115.479 224.53 114.99 224.758C114.508 224.979 114.098 225.305 113.76 225.735C113.421 226.158 113.161 226.679 112.979 227.297C112.796 227.909 112.705 228.609 112.705 229.397C112.705 231.05 113.04 232.297 113.711 233.137C114.382 233.977 115.365 234.397 116.66 234.397C117.207 234.397 117.731 234.335 118.232 234.211C118.734 234.081 119.215 233.902 119.678 233.674V235.315ZM130.781 225.217C130.306 224.963 129.818 224.768 129.316 224.631C128.815 224.488 128.268 224.416 127.676 224.416C126.999 224.416 126.396 224.537 125.869 224.778C125.342 225.018 124.896 225.36 124.531 225.803C124.173 226.239 123.896 226.767 123.701 227.385C123.512 228.003 123.418 228.687 123.418 229.436C123.418 230.217 123.496 230.917 123.652 231.535C123.809 232.154 124.053 232.678 124.385 233.108C124.717 233.537 125.14 233.866 125.654 234.094C126.175 234.322 126.797 234.436 127.52 234.436C127.643 234.436 127.777 234.429 127.92 234.416C128.063 234.403 128.206 234.387 128.35 234.367C128.493 234.341 128.63 234.312 128.76 234.28C128.896 234.247 129.017 234.211 129.121 234.172V230.11H126.514V228.674H130.84V235.198C130.573 235.321 130.29 235.432 129.99 235.53C129.697 235.627 129.395 235.709 129.082 235.774C128.776 235.839 128.47 235.888 128.164 235.92C127.858 235.953 127.562 235.969 127.275 235.969C126.403 235.969 125.615 235.832 124.912 235.559C124.215 235.285 123.62 234.882 123.125 234.348C122.637 233.808 122.259 233.137 121.992 232.336C121.732 231.535 121.602 230.608 121.602 229.553C121.602 228.505 121.748 227.567 122.041 226.74C122.334 225.907 122.744 225.204 123.271 224.631C123.805 224.052 124.443 223.612 125.186 223.313C125.934 223.007 126.758 222.854 127.656 222.854C128.229 222.854 128.773 222.906 129.287 223.01C129.808 223.108 130.306 223.267 130.781 223.489V225.217ZM141.777 225.217C141.302 224.963 140.814 224.768 140.312 224.631C139.811 224.488 139.264 224.416 138.672 224.416C137.995 224.416 137.393 224.537 136.865 224.778C136.338 225.018 135.892 225.36 135.527 225.803C135.169 226.239 134.893 226.767 134.697 227.385C134.508 228.003 134.414 228.687 134.414 229.436C134.414 230.217 134.492 230.917 134.648 231.535C134.805 232.154 135.049 232.678 135.381 233.108C135.713 233.537 136.136 233.866 136.65 234.094C137.171 234.322 137.793 234.436 138.516 234.436C138.639 234.436 138.773 234.429 138.916 234.416C139.059 234.403 139.202 234.387 139.346 234.367C139.489 234.341 139.626 234.312 139.756 234.28C139.893 234.247 140.013 234.211 140.117 234.172V230.11H137.51V228.674H141.836V235.198C141.569 235.321 141.286 235.432 140.986 235.53C140.693 235.627 140.391 235.709 140.078 235.774C139.772 235.839 139.466 235.888 139.16 235.92C138.854 235.953 138.558 235.969 138.271 235.969C137.399 235.969 136.611 235.832 135.908 235.559C135.212 235.285 134.616 234.882 134.121 234.348C133.633 233.808 133.255 233.137 132.988 232.336C132.728 231.535 132.598 230.608 132.598 229.553C132.598 228.505 132.744 227.567 133.037 226.74C133.33 225.907 133.74 225.204 134.268 224.631C134.801 224.052 135.439 223.612 136.182 223.313C136.93 223.007 137.754 222.854 138.652 222.854C139.225 222.854 139.769 222.906 140.283 223.01C140.804 223.108 141.302 223.267 141.777 223.489V225.217ZM163.77 225.217C163.294 224.963 162.806 224.768 162.305 224.631C161.803 224.488 161.257 224.416 160.664 224.416C159.987 224.416 159.385 224.537 158.857 224.778C158.33 225.018 157.884 225.36 157.52 225.803C157.161 226.239 156.885 226.767 156.689 227.385C156.501 228.003 156.406 228.687 156.406 229.436C156.406 230.217 156.484 230.917 156.641 231.535C156.797 232.154 157.041 232.678 157.373 233.108C157.705 233.537 158.128 233.866 158.643 234.094C159.163 234.322 159.785 234.436 160.508 234.436C160.632 234.436 160.765 234.429 160.908 234.416C161.051 234.403 161.195 234.387 161.338 234.367C161.481 234.341 161.618 234.312 161.748 234.28C161.885 234.247 162.005 234.211 162.109 234.172V230.11H159.502V228.674H163.828V235.198C163.561 235.321 163.278 235.432 162.979 235.53C162.686 235.627 162.383 235.709 162.07 235.774C161.764 235.839 161.458 235.888 161.152 235.92C160.846 235.953 160.55 235.969 160.264 235.969C159.391 235.969 158.604 235.832 157.9 235.559C157.204 235.285 156.608 234.882 156.113 234.348C155.625 233.808 155.247 233.137 154.98 232.336C154.72 231.535 154.59 230.608 154.59 229.553C154.59 228.505 154.736 227.567 155.029 226.74C155.322 225.907 155.732 225.204 156.26 224.631C156.794 224.052 157.432 223.612 158.174 223.313C158.923 223.007 159.746 222.854 160.645 222.854C161.217 222.854 161.761 222.906 162.275 223.01C162.796 223.108 163.294 223.267 163.77 223.489V225.217ZM175.098 224.514H171.318V235.793H169.561V224.514H165.781V223.03H175.098V224.514ZM186.094 224.514H182.314V235.793H180.557V224.514H176.777V223.03H186.094V224.514ZM197.09 224.514H193.311V235.793H191.553V224.514H187.773V223.03H197.09V224.514ZM208.828 235.793H206.934L206.045 233.01H200.732L199.834 235.793H198.027L202.266 223.03H204.648L208.828 235.793ZM205.547 231.457L203.389 224.631L201.23 231.457H205.547ZM219.824 235.793H217.93L217.041 233.01H211.729L210.83 235.793H209.023L213.262 223.03H215.645L219.824 235.793ZM216.543 231.457L214.385 224.631L212.227 231.457H216.543ZM229.639 235.315C228.617 235.738 227.546 235.949 226.426 235.949C224.622 235.949 223.236 235.412 222.266 234.338C221.302 233.257 220.82 231.662 220.82 229.553C220.82 228.531 220.954 227.606 221.221 226.78C221.488 225.953 221.868 225.253 222.363 224.68C222.858 224.101 223.457 223.655 224.16 223.342C224.863 223.03 225.651 222.873 226.523 222.873C227.116 222.873 227.666 222.925 228.174 223.03C228.682 223.127 229.17 223.28 229.639 223.489V225.198C229.176 224.944 228.698 224.752 228.203 224.621C227.708 224.485 227.168 224.416 226.582 224.416C225.983 224.416 225.439 224.53 224.951 224.758C224.469 224.979 224.059 225.305 223.721 225.735C223.382 226.158 223.122 226.679 222.939 227.297C222.757 227.909 222.666 228.609 222.666 229.397C222.666 231.05 223.001 232.297 223.672 233.137C224.342 233.977 225.326 234.397 226.621 234.397C227.168 234.397 227.692 234.335 228.193 234.211C228.695 234.081 229.176 233.902 229.639 233.674V235.315Z" fill="#989B05"/>
<path d="M54.8828 189.793H52.9883L52.0996 187.01H46.7871L45.8887 189.793H44.082L48.3203 177.03H50.7031L54.8828 189.793ZM51.6016 185.457L49.4434 178.631L47.2852 185.457H51.6016ZM108.789 179.217C108.314 178.963 107.826 178.768 107.324 178.631C106.823 178.488 106.276 178.416 105.684 178.416C105.007 178.416 104.404 178.537 103.877 178.778C103.35 179.018 102.904 179.36 102.539 179.803C102.181 180.239 101.904 180.767 101.709 181.385C101.52 182.003 101.426 182.687 101.426 183.436C101.426 184.217 101.504 184.917 101.66 185.535C101.816 186.154 102.061 186.678 102.393 187.108C102.725 187.537 103.148 187.866 103.662 188.094C104.183 188.322 104.805 188.436 105.527 188.436C105.651 188.436 105.785 188.429 105.928 188.416C106.071 188.403 106.214 188.387 106.357 188.367C106.501 188.341 106.637 188.312 106.768 188.28C106.904 188.247 107.025 188.211 107.129 188.172V184.11H104.521V182.674H108.848V189.198C108.581 189.321 108.298 189.432 107.998 189.53C107.705 189.627 107.402 189.709 107.09 189.774C106.784 189.839 106.478 189.888 106.172 189.92C105.866 189.953 105.57 189.969 105.283 189.969C104.411 189.969 103.623 189.832 102.92 189.559C102.223 189.285 101.628 188.882 101.133 188.348C100.645 187.808 100.267 187.137 100 186.336C99.7396 185.535 99.6094 184.608 99.6094 183.553C99.6094 182.505 99.7559 181.567 100.049 180.74C100.342 179.907 100.752 179.204 101.279 178.631C101.813 178.052 102.451 177.612 103.193 177.313C103.942 177.007 104.766 176.854 105.664 176.854C106.237 176.854 106.781 176.906 107.295 177.01C107.816 177.108 108.314 177.267 108.789 177.489V179.217ZM152.666 189.315C151.644 189.738 150.573 189.949 149.453 189.949C147.65 189.949 146.263 189.412 145.293 188.338C144.329 187.257 143.848 185.662 143.848 183.553C143.848 182.531 143.981 181.606 144.248 180.78C144.515 179.953 144.896 179.253 145.391 178.68C145.885 178.101 146.484 177.655 147.188 177.342C147.891 177.03 148.678 176.873 149.551 176.873C150.143 176.873 150.693 176.925 151.201 177.03C151.709 177.127 152.197 177.28 152.666 177.489V179.198C152.204 178.944 151.725 178.752 151.23 178.621C150.736 178.485 150.195 178.416 149.609 178.416C149.01 178.416 148.467 178.53 147.979 178.758C147.497 178.979 147.087 179.305 146.748 179.735C146.41 180.158 146.149 180.679 145.967 181.297C145.785 181.909 145.693 182.609 145.693 183.397C145.693 185.05 146.029 186.297 146.699 187.137C147.37 187.977 148.353 188.397 149.648 188.397C150.195 188.397 150.719 188.335 151.221 188.211C151.722 188.081 152.204 187.902 152.666 187.674V189.315ZM54.1406 224.514H50.3613V235.793H48.6035V224.514H44.8242V223.03H54.1406V224.514ZM109.863 235.793H107.969L107.08 233.01H101.768L100.869 235.793H99.0625L103.301 223.03H105.684L109.863 235.793ZM106.582 231.457L104.424 224.631L102.266 231.457H106.582ZM152.773 225.217C152.298 224.963 151.81 224.768 151.309 224.631C150.807 224.488 150.26 224.416 149.668 224.416C148.991 224.416 148.389 224.537 147.861 224.778C147.334 225.018 146.888 225.36 146.523 225.803C146.165 226.239 145.889 226.767 145.693 227.385C145.505 228.003 145.41 228.687 145.41 229.436C145.41 230.217 145.488 230.917 145.645 231.535C145.801 232.154 146.045 232.678 146.377 233.108C146.709 233.537 147.132 233.866 147.646 234.094C148.167 234.322 148.789 234.436 149.512 234.436C149.635 234.436 149.769 234.429 149.912 234.416C150.055 234.403 150.199 234.387 150.342 234.367C150.485 234.341 150.622 234.312 150.752 234.28C150.889 234.247 151.009 234.211 151.113 234.172V230.11H148.506V228.674H152.832V235.198C152.565 235.321 152.282 235.432 151.982 235.53C151.689 235.627 151.387 235.709 151.074 235.774C150.768 235.839 150.462 235.888 150.156 235.92C149.85 235.953 149.554 235.969 149.268 235.969C148.395 235.969 147.607 235.832 146.904 235.559C146.208 235.285 145.612 234.882 145.117 234.348C144.629 233.808 144.251 233.137 143.984 232.336C143.724 231.535 143.594 230.608 143.594 229.553C143.594 228.505 143.74 227.567 144.033 226.74C144.326 225.907 144.736 225.204 145.264 224.631C145.798 224.052 146.436 223.612 147.178 223.313C147.926 223.007 148.75 222.854 149.648 222.854C150.221 222.854 150.765 222.906 151.279 223.01C151.8 223.108 152.298 223.267 152.773 223.489V225.217Z" fill="#E30310"/>
<path d="M38 194.793V217.353" stroke="#C9D1D9"/>
<path d="M60.56 194.793V217.353" stroke="#C9D1D9"/>
<path d="M71.84 194.793V217.353" stroke="#C9D1D9"/>
<path d="M81.8667 194.793V217.353" stroke="#C9D1D9"/>
<path d="M126.987 194.793V217.353" stroke="#C9D1D9"/>
<path d="M226 194.793V217.353" stroke="#C9D1D9"/>
<path d="M214.72 194.793V217.353" stroke="#C9D1D9"/>
<path d="M203.44 194.793V217.353" stroke="#C9D1D9"/>
<path d="M192.16 194.793V217.353" stroke="#C9D1D9"/>
<path d="M180.88 194.793V217.353" stroke="#C9D1D9"/>
<path d="M170.853 194.793V217.353" stroke="#C9D1D9"/>
<path d="M159.573 194.793V217.353" stroke="#C9D1D9"/>
<path d="M138.267 194.793V217.353" stroke="#C9D1D9"/>
<path d="M115.707 194.793V217.353" stroke="#C9D1D9"/>
<path d="M93.7733 194.793V217.353" stroke="#C9D1D9"/>
<path d="M115.293 136.5C115.683 136.891 116.317 136.891 116.707 136.5L123.071 130.136C123.462 129.746 123.462 129.113 123.071 128.722C122.681 128.332 122.047 128.332 121.657 128.722L116 134.379L110.343 128.722C109.953 128.332 109.319 128.332 108.929 128.722C108.538 129.113 108.538 129.746 108.929 130.136L115.293 136.5ZM115 99.7932V135.793H117V99.7932H115Z" fill="#C9D1D9"/>
</svg>
