<svg width="318" height="76" viewBox="0 0 318 76" fill="none" xmlns="http://www.w3.org/2000/svg">
<g filter="url(#filter0_d)">
<rect x="4" width="30" height="30" fill="#62F2A6"/>
<rect x="4" width="30" height="30" fill="url(#paint0_linear)" fill-opacity="0.5"/>
</g>
<path d="M154.917 7C152.751 7.00858 150.853 7.0608 148.885 8.09195C147.822 8.64923 145.637 10.128 145.948 11.6573C146.417 13.958 150.878 13.8527 152.571 13.7006C152.637 13.6947 154.289 13.4028 153.461 13.4028C152.322 13.4028 151.146 13.6349 150.092 14.0646C147.786 15.0039 145.406 16.824 144.343 19.1107C142.751 22.5353 147.09 23.0289 149.459 22.9987C152.598 22.9587 155.765 22.3566 158.702 21.2616C159.048 21.1327 159.104 21.1914 158.81 20.9968" stroke="#C9D1D9" stroke-width="2" stroke-linecap="round" stroke-linejoin="round"/>
<path d="M63.6973 16.6914H55.2988V15.2559H63.6973V16.6914ZM63.6973 20.0898H55.2988V18.6543H63.6973V20.0898ZM85.8359 17.5801C85.8359 17.821 85.8327 18.0228 85.8262 18.1855C85.8197 18.3483 85.8099 18.5013 85.7969 18.6445H78.9121C78.9121 19.6471 79.1921 20.4186 79.752 20.959C80.3118 21.4928 81.1191 21.7598 82.1738 21.7598C82.4603 21.7598 82.7467 21.75 83.0332 21.7305C83.3197 21.7044 83.5964 21.6719 83.8633 21.6328C84.1302 21.5938 84.3841 21.5514 84.625 21.5059C84.8724 21.4538 85.1003 21.3984 85.3086 21.3398V22.7363C84.8464 22.8665 84.3223 22.9707 83.7363 23.0488C83.1569 23.1335 82.5547 23.1758 81.9297 23.1758C81.0898 23.1758 80.3672 23.0618 79.7617 22.834C79.1562 22.6061 78.6582 22.2773 78.2676 21.8477C77.8835 21.4115 77.597 20.8809 77.4082 20.2559C77.2259 19.6243 77.1348 18.9115 77.1348 18.1172C77.1348 17.4271 77.2324 16.776 77.4277 16.1641C77.6296 15.5456 77.9193 15.0052 78.2969 14.543C78.681 14.0742 79.1497 13.7031 79.7031 13.4297C80.2565 13.1562 80.8848 13.0195 81.5879 13.0195C82.2715 13.0195 82.877 13.127 83.4043 13.3418C83.9316 13.5566 84.3743 13.8626 84.7324 14.2598C85.097 14.6504 85.3704 15.1289 85.5527 15.6953C85.7415 16.2552 85.8359 16.8835 85.8359 17.5801ZM84.0684 17.3359C84.0879 16.8997 84.0456 16.5026 83.9414 16.1445C83.8372 15.7799 83.6745 15.4674 83.4531 15.207C83.2383 14.9466 82.9681 14.7448 82.6426 14.6016C82.3171 14.4518 81.9395 14.377 81.5098 14.377C81.1387 14.377 80.8001 14.4486 80.4941 14.5918C80.1882 14.735 79.9245 14.9368 79.7031 15.1973C79.4818 15.4577 79.3027 15.7702 79.166 16.1348C79.0293 16.4993 78.9447 16.8997 78.9121 17.3359H84.0684ZM88.0527 18.3027C88.0527 17.4694 88.1667 16.7305 88.3945 16.0859C88.6224 15.4349 88.9447 14.888 89.3613 14.4453C89.7845 13.9961 90.2891 13.6576 90.875 13.4297C91.4674 13.1953 92.125 13.0781 92.8477 13.0781C93.1602 13.0781 93.4661 13.0977 93.7656 13.1367C94.0716 13.1758 94.3711 13.2376 94.6641 13.3223V9.20117H96.373V23H94.8496L94.791 21.1445C94.3158 21.8346 93.8014 22.3457 93.248 22.6777C92.6947 23.0098 92.0957 23.1758 91.4512 23.1758C90.8913 23.1758 90.3965 23.0586 89.9668 22.8242C89.5436 22.5898 89.1888 22.2611 88.9023 21.8379C88.6224 21.4082 88.4108 20.8939 88.2676 20.2949C88.1243 19.696 88.0527 19.0319 88.0527 18.3027ZM89.791 18.1953C89.791 19.3802 89.9635 20.2656 90.3086 20.8516C90.6602 21.431 91.1549 21.7207 91.793 21.7207C92.2227 21.7207 92.6751 21.5286 93.1504 21.1445C93.6322 20.7604 94.1367 20.1908 94.6641 19.4355V14.8848C94.3841 14.7546 94.0749 14.6569 93.7363 14.5918C93.3978 14.5202 93.0625 14.4844 92.7305 14.4844C91.806 14.4844 91.0833 14.7839 90.5625 15.3828C90.0482 15.9818 89.791 16.9193 89.791 18.1953ZM102.887 14.6016H99.9863V13.1953H104.605V21.584H107.525V23H99.6641V21.584H102.887V14.6016ZM103.482 9.08398C103.671 9.08398 103.847 9.11979 104.01 9.19141C104.173 9.25651 104.312 9.35091 104.43 9.47461C104.553 9.59831 104.648 9.74154 104.713 9.9043C104.785 10.0605 104.82 10.2331 104.82 10.4219C104.82 10.6042 104.785 10.7767 104.713 10.9395C104.648 11.1022 104.553 11.2454 104.43 11.3691C104.312 11.4928 104.173 11.5905 104.01 11.6621C103.847 11.7272 103.671 11.7598 103.482 11.7598C103.294 11.7598 103.118 11.7272 102.955 11.6621C102.792 11.5905 102.649 11.4928 102.525 11.3691C102.408 11.2454 102.314 11.1022 102.242 10.9395C102.177 10.7767 102.145 10.6042 102.145 10.4219C102.145 10.2331 102.177 10.0605 102.242 9.9043C102.314 9.74154 102.408 9.59831 102.525 9.47461C102.649 9.35091 102.792 9.25651 102.955 9.19141C103.118 9.11979 103.294 9.08398 103.482 9.08398ZM118.307 20.3242C118.307 20.6693 118.248 20.9785 118.131 21.252C118.014 21.5254 117.854 21.7695 117.652 21.9844C117.451 22.1927 117.216 22.3717 116.949 22.5215C116.682 22.6712 116.396 22.7949 116.09 22.8926C115.79 22.9902 115.481 23.0618 115.162 23.1074C114.843 23.153 114.531 23.1758 114.225 23.1758C113.561 23.1758 112.949 23.1465 112.389 23.0879C111.835 23.0293 111.292 22.9349 110.758 22.8047V21.2422C111.331 21.4049 111.9 21.5286 112.467 21.6133C113.033 21.6979 113.596 21.7402 114.156 21.7402C114.97 21.7402 115.572 21.6296 115.963 21.4082C116.354 21.1868 116.549 20.8711 116.549 20.4609C116.549 20.2852 116.516 20.1289 116.451 19.9922C116.393 19.849 116.282 19.7155 116.119 19.5918C115.956 19.4616 115.702 19.3281 115.357 19.1914C115.019 19.0547 114.553 18.8984 113.961 18.7227C113.518 18.5924 113.108 18.446 112.73 18.2832C112.359 18.1139 112.037 17.9154 111.764 17.6875C111.49 17.4596 111.275 17.1927 111.119 16.8867C110.963 16.5807 110.885 16.2194 110.885 15.8027C110.885 15.5293 110.947 15.2298 111.07 14.9043C111.201 14.5788 111.419 14.276 111.725 13.9961C112.031 13.7161 112.444 13.485 112.965 13.3027C113.486 13.1139 114.137 13.0195 114.918 13.0195C115.302 13.0195 115.729 13.0423 116.197 13.0879C116.666 13.127 117.154 13.1986 117.662 13.3027V14.8164C117.128 14.6862 116.62 14.5918 116.139 14.5332C115.663 14.4681 115.25 14.4355 114.898 14.4355C114.475 14.4355 114.117 14.4681 113.824 14.5332C113.538 14.5983 113.303 14.6895 113.121 14.8066C112.945 14.9173 112.818 15.0508 112.74 15.207C112.662 15.3568 112.623 15.5195 112.623 15.6953C112.623 15.8711 112.656 16.0306 112.721 16.1738C112.792 16.3171 112.919 16.457 113.102 16.5938C113.29 16.724 113.551 16.8574 113.883 16.9941C114.215 17.1243 114.648 17.2676 115.182 17.4238C115.761 17.5931 116.249 17.7721 116.646 17.9609C117.044 18.1432 117.366 18.3483 117.613 18.5762C117.861 18.804 118.036 19.0612 118.141 19.3477C118.251 19.6341 118.307 19.9596 118.307 20.3242ZM129.439 22.8633C129.055 22.9609 128.658 23.0293 128.248 23.0684C127.838 23.1139 127.421 23.1367 126.998 23.1367C125.768 23.1367 124.85 22.86 124.244 22.3066C123.639 21.7467 123.336 20.8906 123.336 19.7383V14.6211H120.592V13.1953H123.336V10.5L125.035 10.0605V13.1953H129.439V14.6211H125.035V19.6016C125.035 20.3047 125.221 20.832 125.592 21.1836C125.969 21.5286 126.523 21.7012 127.252 21.7012C127.564 21.7012 127.906 21.6784 128.277 21.6328C128.648 21.5807 129.036 21.5026 129.439 21.3984V22.8633ZM138.404 27.1016C135.403 24.3216 133.902 21.2487 133.902 17.8828C133.902 17.0951 133.98 16.3105 134.137 15.5293C134.299 14.7415 134.557 13.9538 134.908 13.166C135.266 12.3783 135.735 11.5905 136.314 10.8027C136.9 10.015 137.61 9.23372 138.443 8.45898L139.43 9.46484C136.904 11.9583 135.641 14.722 135.641 17.7559C135.641 19.2663 135.96 20.7181 136.598 22.1113C137.236 23.5046 138.18 24.8197 139.43 26.0566L138.404 27.1016ZM166.285 25.002C166.617 25.015 166.939 24.9857 167.252 24.9141C167.564 24.8424 167.838 24.735 168.072 24.5918C168.313 24.4551 168.505 24.2826 168.648 24.0742C168.792 23.8659 168.863 23.6283 168.863 23.3613C168.863 23.0879 168.814 22.8665 168.717 22.6973C168.626 22.528 168.521 22.3717 168.404 22.2285C168.287 22.0853 168.18 21.9323 168.082 21.7695C167.991 21.6068 167.945 21.3887 167.945 21.1152C167.945 20.9785 167.971 20.8353 168.023 20.6855C168.076 20.5358 168.154 20.3991 168.258 20.2754C168.368 20.1517 168.505 20.0508 168.668 19.9727C168.837 19.8945 169.036 19.8555 169.264 19.8555C169.492 19.8555 169.71 19.9043 169.918 20.002C170.133 20.0931 170.318 20.2363 170.475 20.4316C170.637 20.627 170.764 20.8711 170.855 21.1641C170.953 21.457 171.002 21.8021 171.002 22.1992C171.002 22.7396 170.901 23.2572 170.699 23.752C170.504 24.2533 170.208 24.696 169.811 25.0801C169.42 25.4642 168.928 25.7702 168.336 25.998C167.75 26.2259 167.066 26.3398 166.285 26.3398V25.002ZM177.281 14.2207C177.613 14.2337 177.936 14.2077 178.248 14.1426C178.561 14.071 178.834 13.9668 179.068 13.8301C179.309 13.6868 179.501 13.5111 179.645 13.3027C179.788 13.0944 179.859 12.8535 179.859 12.5801C179.859 12.3066 179.811 12.0853 179.713 11.916C179.622 11.7467 179.518 11.5905 179.4 11.4473C179.283 11.304 179.176 11.151 179.078 10.9883C178.987 10.8255 178.941 10.6107 178.941 10.3438C178.941 10.2005 178.967 10.0573 179.02 9.91406C179.072 9.76432 179.15 9.6276 179.254 9.50391C179.365 9.38021 179.501 9.2793 179.664 9.20117C179.833 9.12305 180.032 9.08398 180.26 9.08398C180.488 9.08398 180.706 9.13281 180.914 9.23047C181.129 9.32161 181.314 9.46484 181.471 9.66016C181.633 9.84896 181.76 10.0898 181.852 10.3828C181.949 10.6758 181.998 11.0208 181.998 11.418C181.998 11.9583 181.897 12.4792 181.695 12.9805C181.5 13.4753 181.204 13.9147 180.807 14.2988C180.416 14.6829 179.924 14.9889 179.332 15.2168C178.746 15.4447 178.062 15.5586 177.281 15.5586V14.2207ZM196.852 23H194.957L194.068 20.2168H188.756L187.857 23H186.051L190.289 10.2363H192.672L196.852 23ZM193.57 18.6641L191.412 11.8379L189.254 18.6641H193.57ZM207.848 23H205.953L205.064 20.2168H199.752L198.854 23H197.047L201.285 10.2363H203.668L207.848 23ZM204.566 18.6641L202.408 11.8379L200.25 18.6641H204.566ZM218.102 11.7207H214.322V23H212.564V11.7207H208.785V10.2363H218.102V11.7207ZM228.766 12.4238C228.29 12.1699 227.802 11.9746 227.301 11.8379C226.799 11.6947 226.253 11.623 225.66 11.623C224.983 11.623 224.381 11.7435 223.854 11.9844C223.326 12.2253 222.88 12.5671 222.516 13.0098C222.158 13.446 221.881 13.9733 221.686 14.5918C221.497 15.2103 221.402 15.8939 221.402 16.6426C221.402 17.4238 221.48 18.1237 221.637 18.7422C221.793 19.3607 222.037 19.8848 222.369 20.3145C222.701 20.7441 223.124 21.0729 223.639 21.3008C224.16 21.5286 224.781 21.6426 225.504 21.6426C225.628 21.6426 225.761 21.6361 225.904 21.623C226.048 21.61 226.191 21.5938 226.334 21.5742C226.477 21.5482 226.614 21.5189 226.744 21.4863C226.881 21.4538 227.001 21.418 227.105 21.3789V17.3164H224.498V15.8809H228.824V22.4043C228.557 22.528 228.274 22.6387 227.975 22.7363C227.682 22.834 227.379 22.9154 227.066 22.9805C226.76 23.0456 226.454 23.0944 226.148 23.127C225.842 23.1595 225.546 23.1758 225.26 23.1758C224.387 23.1758 223.6 23.0391 222.896 22.7656C222.2 22.4922 221.604 22.0885 221.109 21.5547C220.621 21.0143 220.243 20.3438 219.977 19.543C219.716 18.7422 219.586 17.8145 219.586 16.7598C219.586 15.7116 219.732 14.7741 220.025 13.9473C220.318 13.1139 220.729 12.4108 221.256 11.8379C221.79 11.2585 222.428 10.819 223.17 10.5195C223.919 10.2135 224.742 10.0605 225.641 10.0605C226.214 10.0605 226.757 10.1126 227.271 10.2168C227.792 10.3145 228.29 10.474 228.766 10.6953V12.4238ZM240.094 11.7207H236.314V23H234.557V11.7207H230.777V10.2363H240.094V11.7207ZM250.758 12.4238C250.283 12.1699 249.794 11.9746 249.293 11.8379C248.792 11.6947 248.245 11.623 247.652 11.623C246.975 11.623 246.373 11.7435 245.846 11.9844C245.318 12.2253 244.872 12.5671 244.508 13.0098C244.15 13.446 243.873 13.9733 243.678 14.5918C243.489 15.2103 243.395 15.8939 243.395 16.6426C243.395 17.4238 243.473 18.1237 243.629 18.7422C243.785 19.3607 244.029 19.8848 244.361 20.3145C244.693 20.7441 245.117 21.0729 245.631 21.3008C246.152 21.5286 246.773 21.6426 247.496 21.6426C247.62 21.6426 247.753 21.6361 247.896 21.623C248.04 21.61 248.183 21.5938 248.326 21.5742C248.469 21.5482 248.606 21.5189 248.736 21.4863C248.873 21.4538 248.993 21.418 249.098 21.3789V17.3164H246.49V15.8809H250.816V22.4043C250.549 22.528 250.266 22.6387 249.967 22.7363C249.674 22.834 249.371 22.9154 249.059 22.9805C248.753 23.0456 248.447 23.0944 248.141 23.127C247.835 23.1595 247.538 23.1758 247.252 23.1758C246.38 23.1758 245.592 23.0391 244.889 22.7656C244.192 22.4922 243.596 22.0885 243.102 21.5547C242.613 21.0143 242.236 20.3438 241.969 19.543C241.708 18.7422 241.578 17.8145 241.578 16.7598C241.578 15.7116 241.725 14.7741 242.018 13.9473C242.311 13.1139 242.721 12.4108 243.248 11.8379C243.782 11.2585 244.42 10.819 245.162 10.5195C245.911 10.2135 246.734 10.0605 247.633 10.0605C248.206 10.0605 248.749 10.1126 249.264 10.2168C249.785 10.3145 250.283 10.474 250.758 10.6953V12.4238ZM262.828 23H260.934L260.045 20.2168H254.732L253.834 23H252.027L256.266 10.2363H258.648L262.828 23ZM259.547 18.6641L257.389 11.8379L255.23 18.6641H259.547ZM272.643 22.5215C271.62 22.9447 270.549 23.1562 269.43 23.1562C267.626 23.1562 266.24 22.6191 265.27 21.5449C264.306 20.4642 263.824 18.8691 263.824 16.7598C263.824 15.7376 263.958 14.8132 264.225 13.9863C264.492 13.1595 264.872 12.4596 265.367 11.8867C265.862 11.3073 266.461 10.8613 267.164 10.5488C267.867 10.2363 268.655 10.0801 269.527 10.0801C270.12 10.0801 270.67 10.1322 271.178 10.2363C271.686 10.334 272.174 10.487 272.643 10.6953V12.4043C272.18 12.1504 271.702 11.9583 271.207 11.8281C270.712 11.6914 270.172 11.623 269.586 11.623C268.987 11.623 268.443 11.737 267.955 11.9648C267.473 12.1862 267.063 12.5117 266.725 12.9414C266.386 13.3646 266.126 13.8854 265.943 14.5039C265.761 15.1159 265.67 15.8158 265.67 16.6035C265.67 18.2572 266.005 19.5039 266.676 20.3438C267.346 21.1836 268.329 21.6035 269.625 21.6035C270.172 21.6035 270.696 21.5417 271.197 21.418C271.699 21.2878 272.18 21.1087 272.643 20.8809V22.5215ZM276.246 14.2207C276.578 14.2337 276.9 14.2077 277.213 14.1426C277.525 14.071 277.799 13.9668 278.033 13.8301C278.274 13.6868 278.466 13.5111 278.609 13.3027C278.753 13.0944 278.824 12.8535 278.824 12.5801C278.824 12.3066 278.775 12.0853 278.678 11.916C278.587 11.7467 278.482 11.5905 278.365 11.4473C278.248 11.304 278.141 11.151 278.043 10.9883C277.952 10.8255 277.906 10.6107 277.906 10.3438C277.906 10.2005 277.932 10.0573 277.984 9.91406C278.036 9.76432 278.115 9.6276 278.219 9.50391C278.329 9.38021 278.466 9.2793 278.629 9.20117C278.798 9.12305 278.997 9.08398 279.225 9.08398C279.452 9.08398 279.671 9.13281 279.879 9.23047C280.094 9.32161 280.279 9.46484 280.436 9.66016C280.598 9.84896 280.725 10.0898 280.816 10.3828C280.914 10.6758 280.963 11.0208 280.963 11.418C280.963 11.9583 280.862 12.4792 280.66 12.9805C280.465 13.4753 280.169 13.9147 279.771 14.2988C279.381 14.6829 278.889 14.9889 278.297 15.2168C277.711 15.4447 277.027 15.5586 276.246 15.5586V14.2207ZM288.482 8.45898C291.484 11.2389 292.984 14.3314 292.984 17.7363C292.984 18.4395 292.913 19.1686 292.77 19.9238C292.626 20.679 292.382 21.4538 292.037 22.248C291.692 23.0358 291.227 23.8366 290.641 24.6504C290.061 25.4642 289.329 26.2812 288.443 27.1016L287.457 26.0957C288.727 24.8392 289.674 23.5273 290.299 22.1602C290.924 20.793 291.236 19.3607 291.236 17.8633C291.236 14.7643 289.977 11.9779 287.457 9.50391L288.482 8.45898ZM63.6973 62.6914H55.2988V61.2559H63.6973V62.6914ZM63.6973 66.0898H55.2988V64.6543H63.6973V66.0898ZM80.8945 56.5977H77.9941V55.2012H82.6133V67.584H85.5332V69H77.6719V67.584H80.8945V56.5977ZM96.832 63.5801C96.832 63.821 96.8288 64.0228 96.8223 64.1855C96.8158 64.3483 96.806 64.5013 96.793 64.6445H89.9082C89.9082 65.6471 90.1882 66.4186 90.748 66.959C91.3079 67.4928 92.1152 67.7598 93.1699 67.7598C93.4564 67.7598 93.7428 67.75 94.0293 67.7305C94.3158 67.7044 94.5924 67.6719 94.8594 67.6328C95.1263 67.5938 95.3802 67.5514 95.6211 67.5059C95.8685 67.4538 96.0964 67.3984 96.3047 67.3398V68.7363C95.8424 68.8665 95.3184 68.9707 94.7324 69.0488C94.153 69.1335 93.5508 69.1758 92.9258 69.1758C92.0859 69.1758 91.3633 69.0618 90.7578 68.834C90.1523 68.6061 89.6543 68.2773 89.2637 67.8477C88.8796 67.4115 88.5931 66.8809 88.4043 66.2559C88.222 65.6243 88.1309 64.9115 88.1309 64.1172C88.1309 63.4271 88.2285 62.776 88.4238 62.1641C88.6257 61.5456 88.9154 61.0052 89.293 60.543C89.6771 60.0742 90.1458 59.7031 90.6992 59.4297C91.2526 59.1562 91.8809 59.0195 92.584 59.0195C93.2676 59.0195 93.873 59.127 94.4004 59.3418C94.9277 59.5566 95.3704 59.8626 95.7285 60.2598C96.0931 60.6504 96.3665 61.1289 96.5488 61.6953C96.7376 62.2552 96.832 62.8835 96.832 63.5801ZM95.0645 63.3359C95.084 62.8997 95.0417 62.5026 94.9375 62.1445C94.8333 61.7799 94.6706 61.4674 94.4492 61.207C94.2344 60.9466 93.9642 60.7448 93.6387 60.6016C93.3132 60.4518 92.9355 60.377 92.5059 60.377C92.1348 60.377 91.7962 60.4486 91.4902 60.5918C91.1842 60.735 90.9206 60.9368 90.6992 61.1973C90.4779 61.4577 90.2988 61.7702 90.1621 62.1348C90.0254 62.4993 89.9408 62.8997 89.9082 63.3359H95.0645ZM99.5469 59.1953H101.061L101.129 60.7773C101.415 60.4388 101.692 60.1589 101.959 59.9375C102.226 59.7096 102.486 59.5273 102.74 59.3906C103.001 59.2539 103.264 59.1595 103.531 59.1074C103.798 59.0488 104.075 59.0195 104.361 59.0195C105.37 59.0195 106.132 59.319 106.646 59.918C107.167 60.5104 107.428 61.4056 107.428 62.6035V69H105.729V62.7402C105.729 61.972 105.585 61.4056 105.299 61.041C105.012 60.6699 104.586 60.4844 104.02 60.4844C103.811 60.4844 103.606 60.5169 103.404 60.582C103.209 60.6406 103.004 60.748 102.789 60.9043C102.574 61.054 102.34 61.2591 102.086 61.5195C101.839 61.7799 101.559 62.1055 101.246 62.4961V69H99.5469V59.1953ZM116.412 73.1016C113.411 70.3216 111.91 67.2487 111.91 63.8828C111.91 63.0951 111.988 62.3105 112.145 61.5293C112.307 60.7415 112.564 59.9538 112.916 59.166C113.274 58.3783 113.743 57.5905 114.322 56.8027C114.908 56.015 115.618 55.2337 116.451 54.459L117.438 55.4648C114.911 57.9583 113.648 60.722 113.648 63.7559C113.648 65.2663 113.967 66.7181 114.605 68.1113C115.243 69.5046 116.188 70.8197 117.438 72.0566L116.412 73.1016ZM122.301 60.2207C122.633 60.2337 122.955 60.2077 123.268 60.1426C123.58 60.071 123.854 59.9668 124.088 59.8301C124.329 59.6868 124.521 59.5111 124.664 59.3027C124.807 59.0944 124.879 58.8535 124.879 58.5801C124.879 58.3066 124.83 58.0853 124.732 57.916C124.641 57.7467 124.537 57.5905 124.42 57.4473C124.303 57.304 124.195 57.151 124.098 56.9883C124.007 56.8255 123.961 56.6107 123.961 56.3438C123.961 56.2005 123.987 56.0573 124.039 55.9141C124.091 55.7643 124.169 55.6276 124.273 55.5039C124.384 55.3802 124.521 55.2793 124.684 55.2012C124.853 55.123 125.051 55.084 125.279 55.084C125.507 55.084 125.725 55.1328 125.934 55.2305C126.148 55.3216 126.334 55.4648 126.49 55.6602C126.653 55.849 126.78 56.0898 126.871 56.3828C126.969 56.6758 127.018 57.0208 127.018 57.418C127.018 57.9583 126.917 58.4792 126.715 58.9805C126.52 59.4753 126.223 59.9147 125.826 60.2988C125.436 60.6829 124.944 60.9889 124.352 61.2168C123.766 61.4447 123.082 61.5586 122.301 61.5586V60.2207ZM141.871 69H139.977L139.088 66.2168H133.775L132.877 69H131.07L135.309 56.2363H137.691L141.871 69ZM138.59 64.6641L136.432 57.8379L134.273 64.6641H138.59ZM152.867 69H150.973L150.084 66.2168H144.771L143.873 69H142.066L146.305 56.2363H148.688L152.867 69ZM149.586 64.6641L147.428 57.8379L145.27 64.6641H149.586ZM162.789 58.4238C162.314 58.1699 161.826 57.9746 161.324 57.8379C160.823 57.6947 160.276 57.623 159.684 57.623C159.007 57.623 158.404 57.7435 157.877 57.9844C157.35 58.2253 156.904 58.5671 156.539 59.0098C156.181 59.446 155.904 59.9733 155.709 60.5918C155.52 61.2103 155.426 61.8939 155.426 62.6426C155.426 63.4238 155.504 64.1237 155.66 64.7422C155.816 65.3607 156.061 65.8848 156.393 66.3145C156.725 66.7441 157.148 67.0729 157.662 67.3008C158.183 67.5286 158.805 67.6426 159.527 67.6426C159.651 67.6426 159.785 67.6361 159.928 67.623C160.071 67.61 160.214 67.5938 160.357 67.5742C160.501 67.5482 160.637 67.5189 160.768 67.4863C160.904 67.4538 161.025 67.418 161.129 67.3789V63.3164H158.521V61.8809H162.848V68.4043C162.581 68.528 162.298 68.6387 161.998 68.7363C161.705 68.834 161.402 68.9154 161.09 68.9805C160.784 69.0456 160.478 69.0944 160.172 69.127C159.866 69.1595 159.57 69.1758 159.283 69.1758C158.411 69.1758 157.623 69.0391 156.92 68.7656C156.223 68.4922 155.628 68.0885 155.133 67.5547C154.645 67.0143 154.267 66.3438 154 65.543C153.74 64.7422 153.609 63.8145 153.609 62.7598C153.609 61.7116 153.756 60.7741 154.049 59.9473C154.342 59.1139 154.752 58.4108 155.279 57.8379C155.813 57.2585 156.451 56.819 157.193 56.5195C157.942 56.2135 158.766 56.0605 159.664 56.0605C160.237 56.0605 160.781 56.1126 161.295 56.2168C161.816 56.3145 162.314 56.474 162.789 56.6953V58.4238ZM174.117 57.7207H170.338V69H168.58V57.7207H164.801V56.2363H174.117V57.7207ZM184.781 58.4238C184.306 58.1699 183.818 57.9746 183.316 57.8379C182.815 57.6947 182.268 57.623 181.676 57.623C180.999 57.623 180.396 57.7435 179.869 57.9844C179.342 58.2253 178.896 58.5671 178.531 59.0098C178.173 59.446 177.896 59.9733 177.701 60.5918C177.512 61.2103 177.418 61.8939 177.418 62.6426C177.418 63.4238 177.496 64.1237 177.652 64.7422C177.809 65.3607 178.053 65.8848 178.385 66.3145C178.717 66.7441 179.14 67.0729 179.654 67.3008C180.175 67.5286 180.797 67.6426 181.52 67.6426C181.643 67.6426 181.777 67.6361 181.92 67.623C182.063 67.61 182.206 67.5938 182.35 67.5742C182.493 67.5482 182.63 67.5189 182.76 67.4863C182.896 67.4538 183.017 67.418 183.121 67.3789V63.3164H180.514V61.8809H184.84V68.4043C184.573 68.528 184.29 68.6387 183.99 68.7363C183.697 68.834 183.395 68.9154 183.082 68.9805C182.776 69.0456 182.47 69.0944 182.164 69.127C181.858 69.1595 181.562 69.1758 181.275 69.1758C180.403 69.1758 179.615 69.0391 178.912 68.7656C178.215 68.4922 177.62 68.0885 177.125 67.5547C176.637 67.0143 176.259 66.3438 175.992 65.543C175.732 64.7422 175.602 63.8145 175.602 62.7598C175.602 61.7116 175.748 60.7741 176.041 59.9473C176.334 59.1139 176.744 58.4108 177.271 57.8379C177.805 57.2585 178.443 56.819 179.186 56.5195C179.934 56.2135 180.758 56.0605 181.656 56.0605C182.229 56.0605 182.773 56.1126 183.287 56.2168C183.808 56.3145 184.306 56.474 184.781 56.6953V58.4238ZM196.852 69H194.957L194.068 66.2168H188.756L187.857 69H186.051L190.289 56.2363H192.672L196.852 69ZM193.57 64.6641L191.412 57.8379L189.254 64.6641H193.57ZM207.105 57.7207H203.326V69H201.568V57.7207H197.789V56.2363H207.105V57.7207ZM217.662 68.5215C216.64 68.9447 215.569 69.1562 214.449 69.1562C212.646 69.1562 211.259 68.6191 210.289 67.5449C209.326 66.4642 208.844 64.8691 208.844 62.7598C208.844 61.7376 208.977 60.8132 209.244 59.9863C209.511 59.1595 209.892 58.4596 210.387 57.8867C210.882 57.3073 211.48 56.8613 212.184 56.5488C212.887 56.2363 213.674 56.0801 214.547 56.0801C215.139 56.0801 215.689 56.1322 216.197 56.2363C216.705 56.334 217.193 56.487 217.662 56.6953V58.4043C217.2 58.1504 216.721 57.9583 216.227 57.8281C215.732 57.6914 215.191 57.623 214.605 57.623C214.007 57.623 213.463 57.737 212.975 57.9648C212.493 58.1862 212.083 58.5117 211.744 58.9414C211.406 59.3646 211.145 59.8854 210.963 60.5039C210.781 61.1159 210.689 61.8158 210.689 62.6035C210.689 64.2572 211.025 65.5039 211.695 66.3438C212.366 67.1836 213.349 67.6035 214.645 67.6035C215.191 67.6035 215.715 67.5417 216.217 67.418C216.718 67.2878 217.2 67.1087 217.662 66.8809V68.5215ZM221.266 60.2207C221.598 60.2337 221.92 60.2077 222.232 60.1426C222.545 60.071 222.818 59.9668 223.053 59.8301C223.294 59.6868 223.486 59.5111 223.629 59.3027C223.772 59.0944 223.844 58.8535 223.844 58.5801C223.844 58.3066 223.795 58.0853 223.697 57.916C223.606 57.7467 223.502 57.5905 223.385 57.4473C223.268 57.304 223.16 57.151 223.062 56.9883C222.971 56.8255 222.926 56.6107 222.926 56.3438C222.926 56.2005 222.952 56.0573 223.004 55.9141C223.056 55.7643 223.134 55.6276 223.238 55.5039C223.349 55.3802 223.486 55.2793 223.648 55.2012C223.818 55.123 224.016 55.084 224.244 55.084C224.472 55.084 224.69 55.1328 224.898 55.2305C225.113 55.3216 225.299 55.4648 225.455 55.6602C225.618 55.849 225.745 56.0898 225.836 56.3828C225.934 56.6758 225.982 57.0208 225.982 57.418C225.982 57.9583 225.882 58.4792 225.68 58.9805C225.484 59.4753 225.188 59.9147 224.791 60.2988C224.4 60.6829 223.909 60.9889 223.316 61.2168C222.73 61.4447 222.047 61.5586 221.266 61.5586V60.2207ZM233.502 54.459C236.503 57.2389 238.004 60.3314 238.004 63.7363C238.004 64.4395 237.932 65.1686 237.789 65.9238C237.646 66.679 237.402 67.4538 237.057 68.248C236.712 69.0358 236.246 69.8366 235.66 70.6504C235.081 71.4642 234.348 72.2812 233.463 73.1016L232.477 72.0957C233.746 70.8392 234.693 69.5273 235.318 68.1602C235.943 66.793 236.256 65.3607 236.256 63.8633C236.256 60.7643 234.996 57.9779 232.477 55.5039L233.502 54.459ZM261.627 62.6914H253.229V61.2559H261.627V62.6914ZM261.627 66.0898H253.229V64.6543H261.627V66.0898ZM283.766 65.7969C283.766 66.3372 283.655 66.819 283.434 67.2422C283.212 67.6589 282.903 68.0104 282.506 68.2969C282.109 68.5833 281.64 68.8014 281.1 68.9512C280.559 69.1009 279.973 69.1758 279.342 69.1758C278.645 69.1758 278.03 69.0977 277.496 68.9414C276.969 68.7852 276.526 68.5671 276.168 68.2871C275.81 68.0072 275.54 67.6751 275.357 67.291C275.175 66.9069 275.084 66.4837 275.084 66.0215C275.084 65.2402 275.302 64.5664 275.738 64C276.174 63.4336 276.848 62.9193 277.76 62.457C276.926 62.0339 276.318 61.5651 275.934 61.0508C275.549 60.5299 275.357 59.9342 275.357 59.2637C275.357 58.8535 275.442 58.4564 275.611 58.0723C275.781 57.6882 276.035 57.3464 276.373 57.0469C276.718 56.7474 277.148 56.5098 277.662 56.334C278.176 56.1517 278.782 56.0605 279.479 56.0605C280.136 56.0605 280.712 56.1322 281.207 56.2754C281.708 56.4121 282.128 56.6107 282.467 56.8711C282.805 57.1315 283.059 57.4473 283.229 57.8184C283.398 58.1895 283.482 58.6029 283.482 59.0586C283.482 59.8008 283.274 60.4323 282.857 60.9531C282.447 61.474 281.861 61.9297 281.1 62.3203C281.477 62.5091 281.829 62.7174 282.154 62.9453C282.48 63.1732 282.763 63.4271 283.004 63.707C283.245 63.987 283.43 64.2995 283.561 64.6445C283.697 64.9896 283.766 65.3737 283.766 65.7969ZM281.744 59.1953C281.744 58.6159 281.539 58.1862 281.129 57.9062C280.725 57.6198 280.156 57.4766 279.42 57.4766C278.691 57.4766 278.121 57.6165 277.711 57.8965C277.307 58.1764 277.105 58.5964 277.105 59.1562C277.105 59.4102 277.154 59.6445 277.252 59.8594C277.35 60.0742 277.499 60.276 277.701 60.4648C277.91 60.6536 278.167 60.8392 278.473 61.0215C278.779 61.2038 279.143 61.3893 279.566 61.5781C280.302 61.2331 280.849 60.875 281.207 60.5039C281.565 60.1263 281.744 59.6901 281.744 59.1953ZM281.92 65.9238C281.92 65.6829 281.881 65.4486 281.803 65.2207C281.725 64.9928 281.585 64.7682 281.383 64.5469C281.181 64.3255 280.911 64.1042 280.572 63.8828C280.234 63.6615 279.804 63.4336 279.283 63.1992C278.84 63.4141 278.466 63.6289 278.16 63.8438C277.861 64.0521 277.617 64.2669 277.428 64.4883C277.245 64.7031 277.115 64.9277 277.037 65.1621C276.959 65.3965 276.92 65.6439 276.92 65.9043C276.92 66.1973 276.982 66.4577 277.105 66.6855C277.236 66.9069 277.411 67.0957 277.633 67.252C277.854 67.4082 278.118 67.5254 278.424 67.6035C278.73 67.6816 279.062 67.7207 279.42 67.7207C279.765 67.7207 280.09 67.6849 280.396 67.6133C280.702 67.5417 280.966 67.4342 281.188 67.291C281.415 67.1413 281.594 66.9557 281.725 66.7344C281.855 66.5065 281.92 66.2363 281.92 65.9238Z" fill="#C9D1D9"/>
<defs>
<filter id="filter0_d" x="0" y="0" width="38" height="38" filterUnits="userSpaceOnUse" color-interpolation-filters="sRGB">
<feFlood flood-opacity="0" result="BackgroundImageFix"/>
<feColorMatrix in="SourceAlpha" type="matrix" values="0 0 0 0 0 0 0 0 0 0 0 0 0 0 0 0 0 0 127 0"/>
<feOffset dy="4"/>
<feGaussianBlur stdDeviation="2"/>
<feColorMatrix type="matrix" values="0 0 0 0 0 0 0 0 0 0 0 0 0 0 0 0 0 0 0.25 0"/>
<feBlend mode="normal" in2="BackgroundImageFix" result="effect1_dropShadow"/>
<feBlend mode="normal" in="SourceGraphic" in2="effect1_dropShadow" result="shape"/>
</filter>
<linearGradient id="paint0_linear" x1="19" y1="0" x2="19" y2="30" gradientUnits="userSpaceOnUse">
<stop/>
<stop offset="1" stop-color="white" stop-opacity="0"/>
</linearGradient>
</defs>
</svg>
