<svg width="586" height="64" viewBox="0 0 586 64" fill="none" xmlns="http://www.w3.org/2000/svg">
<path d="M1.60938 19V17.7891H4.74219V9.02344L1.82031 9.33594L1.67969 8.09375L5.03125 7.70312H6.3125V17.7891H9.07812V19H1.60938ZM11.2188 19V17.1094H13.2188V19H11.2188ZM20.375 19V7.70312H21.5703L28.0391 16.7344V7.70312H29.4219V19H28.0234L21.7578 10.375V19H20.375ZM35.7266 19.1719C34.513 19.1719 33.6354 18.9193 33.0938 18.4141C32.5521 17.9089 32.2812 17.1302 32.2812 16.0781V13.1953C32.2812 12.3776 32.5599 11.7344 33.1172 11.2656C33.6745 10.7969 34.5156 10.5625 35.6406 10.5625C36.7708 10.5625 37.6094 10.7812 38.1562 11.2188C38.7083 11.651 38.9844 12.2708 38.9844 13.0781V15.0469H33.75V16.2109C33.75 16.8984 33.888 17.3776 34.1641 17.6484C34.4401 17.9141 34.9375 18.0469 35.6562 18.0469C36.375 18.0469 36.7812 18.0312 36.875 18C36.9688 17.9688 37.0651 17.9323 37.1641 17.8906C37.263 17.849 37.3307 17.7995 37.3672 17.7422C37.4089 17.6849 37.4609 17.599 37.5234 17.4844C37.5911 17.3646 37.6406 17.1354 37.6719 16.7969H38.9688C38.9167 17.2917 38.8281 17.6901 38.7031 17.9922C38.5833 18.2943 38.3906 18.5365 38.125 18.7188C37.8646 18.8958 37.5495 19.0156 37.1797 19.0781C36.8151 19.1406 36.3307 19.1719 35.7266 19.1719ZM33.75 14.0547H37.5625V12.9219C37.5625 12.4531 37.401 12.1302 37.0781 11.9531C36.7604 11.776 36.2917 11.6875 35.6719 11.6875C35.0521 11.6875 34.5755 11.7943 34.2422 12.0078C33.9141 12.2214 33.75 12.5729 33.75 13.0625V14.0547ZM41.625 19V7.23438H43.0938V14.9062L47.0547 10.7188H48.6641L45.2969 14.3594L49 19H47.3047L44.3359 15.1562L43.0938 16.3906V19H41.625ZM52.8516 19.1719C52.013 19.1719 51.362 18.9453 50.8984 18.4922C50.4349 18.0339 50.2031 17.4661 50.2031 16.7891C50.2031 16.4036 50.2839 16.0833 50.4453 15.8281C50.7734 15.3073 51.7526 14.8099 53.3828 14.3359C54.3255 14.0755 54.8672 13.8516 55.0078 13.6641C55.1536 13.4766 55.2344 13.3307 55.25 13.2266C55.2656 13.1172 55.2734 12.9453 55.2734 12.7109C55.2734 12.4766 55.1771 12.2474 54.9844 12.0234C54.7969 11.7995 54.3854 11.6875 53.75 11.6875C52.8542 11.6875 52.3047 11.8594 52.1016 12.2031C51.9974 12.3802 51.9453 12.6198 51.9453 12.9219V13.2891H50.5312V12.9141C50.5312 12.1068 50.7995 11.513 51.3359 11.1328C51.8776 10.7526 52.6849 10.5625 53.7578 10.5625C54.8307 10.5625 55.5964 10.8073 56.0547 11.2969C56.513 11.7812 56.7422 12.474 56.7422 13.375V16.9062C56.7422 17.3385 56.7969 17.6198 56.9062 17.75C57.0156 17.875 57.25 17.9375 57.6094 17.9375L57.4375 19.0625H57.1406C56.6198 19.0625 56.2318 18.9635 55.9766 18.7656C55.7214 18.5625 55.526 18.25 55.3906 17.8281C54.9583 18.474 54.4375 18.8802 53.8281 19.0469C53.5365 19.1302 53.2109 19.1719 52.8516 19.1719ZM53.5859 15.3438C52.8464 15.5573 52.3333 15.7708 52.0469 15.9844C51.7656 16.1979 51.625 16.5 51.625 16.8906C51.625 17.276 51.7552 17.5677 52.0156 17.7656C52.2812 17.9635 52.599 18.0625 52.9688 18.0625C53.3438 18.0625 53.6823 18.0156 53.9844 17.9219C54.2865 17.8229 54.5573 17.6797 54.7969 17.4922C55.0417 17.2995 55.2005 17.0807 55.2734 16.8359V14.4453C54.8932 14.8255 54.3307 15.125 53.5859 15.3438ZM66.2578 18.0469C67.3672 18.0469 67.9219 17.6328 67.9219 16.8047C67.9219 16.4453 67.8724 16.1797 67.7734 16.0078C67.6745 15.8307 67.4427 15.6745 67.0781 15.5391L65.1094 14.8125C64.5052 14.599 64.0833 14.3464 63.8438 14.0547C63.6094 13.7578 63.4922 13.388 63.4922 12.9453C63.4922 12.5026 63.5365 12.1484 63.625 11.8828C63.7135 11.612 63.8594 11.375 64.0625 11.1719C64.4688 10.7656 65.1979 10.5625 66.25 10.5625C67.3021 10.5625 68.2083 10.7135 68.9688 11.0156L68.6328 12.1406C68.3672 12.0312 68.0182 11.9297 67.5859 11.8359C67.1536 11.737 66.776 11.6875 66.4531 11.6875C65.7083 11.6875 65.237 11.8073 65.0391 12.0469C64.9193 12.1979 64.8594 12.4193 64.8594 12.7109C64.8594 13.0026 64.9062 13.2109 65 13.3359C65.099 13.4557 65.2891 13.5651 65.5703 13.6641L67.5156 14.4297C68.1927 14.6953 68.638 14.9896 68.8516 15.3125C69.0651 15.6302 69.1719 16.1328 69.1719 16.8203C69.1719 17.5078 68.9505 18.0729 68.5078 18.5156C68.0651 18.9531 67.3802 19.1719 66.4531 19.1719C65.776 19.1719 65.1745 19.099 64.6484 18.9531C64.1224 18.8073 63.7188 18.6562 63.4375 18.5L63.7969 17.4219C64.5417 17.8385 65.362 18.0469 66.2578 18.0469ZM74.3047 19.1719C72.8932 19.1719 71.9974 18.6719 71.6172 17.6719C71.5078 17.3854 71.4531 17.0729 71.4531 16.7344V10.7188H72.9219V16.7422C72.9219 17.1484 73.0703 17.4688 73.3672 17.7031C73.6693 17.9323 74.1172 18.0469 74.7109 18.0469C75.3047 18.0469 75.7865 17.901 76.1562 17.6094C76.5312 17.3125 76.7188 16.9714 76.7188 16.5859V10.7188H78.1875V19H76.875L76.7188 17.9609C76.2604 18.7682 75.4557 19.1719 74.3047 19.1719ZM84.1406 19L87.0859 14.8359L84.1875 10.7188H85.6641L87.8203 13.7969L90 10.7188H91.4141L88.5312 14.8203L91.4531 19H90.0234L87.8125 15.8516L85.6016 19H84.1406ZM97.5 19V10.7188H98.9688V19H97.5ZM97.5 9.22656V7.70312H98.9688V9.22656H97.5ZM106.094 22.1719V21.0234C106.74 21.0234 107.26 20.8646 107.656 20.5469C108.057 20.2292 108.357 19.7031 108.555 18.9688L105.141 10.7188H106.695L109.227 17.3125L111.344 10.7188H112.828L110.109 18.6484C109.75 19.6953 109.424 20.4193 109.133 20.8203C108.846 21.2266 108.57 21.5104 108.305 21.6719C107.758 22.0052 107.021 22.1719 106.094 22.1719ZM121.898 10.5625C122.565 10.5625 123.177 10.6667 123.734 10.875V7.23438H125.203V19H124.203L123.961 18.4531C123.706 18.651 123.37 18.8203 122.953 18.9609C122.536 19.1016 122.125 19.1719 121.719 19.1719C120.589 19.1719 119.758 18.9219 119.227 18.4219C118.701 17.9167 118.438 17.237 118.438 16.3828V13.2578C118.438 12.3984 118.721 11.7344 119.289 11.2656C119.857 10.7969 120.727 10.5625 121.898 10.5625ZM119.906 16.4922C119.906 16.987 120.081 17.3646 120.43 17.625C120.784 17.8854 121.198 18.0156 121.672 18.0156C122.516 18.0156 123.203 17.8516 123.734 17.5234V12.0312C123.26 11.8021 122.685 11.6875 122.008 11.6875C120.607 11.6875 119.906 12.1562 119.906 13.0938V16.4922ZM130.367 19L127.156 10.7188H128.633L131.125 17.4375L133.344 10.7188H134.781L131.852 19H130.367ZM139.883 19.1719C138.669 19.1719 137.792 18.9193 137.25 18.4141C136.708 17.9089 136.438 17.1302 136.438 16.0781V13.1953C136.438 12.3776 136.716 11.7344 137.273 11.2656C137.831 10.7969 138.672 10.5625 139.797 10.5625C140.927 10.5625 141.766 10.7812 142.312 11.2188C142.865 11.651 143.141 12.2708 143.141 13.0781V15.0469H137.906V16.2109C137.906 16.8984 138.044 17.3776 138.32 17.6484C138.596 17.9141 139.094 18.0469 139.812 18.0469C140.531 18.0469 140.938 18.0312 141.031 18C141.125 17.9688 141.221 17.9323 141.32 17.8906C141.419 17.849 141.487 17.7995 141.523 17.7422C141.565 17.6849 141.617 17.599 141.68 17.4844C141.747 17.3646 141.797 17.1354 141.828 16.7969H143.125C143.073 17.2917 142.984 17.6901 142.859 17.9922C142.74 18.2943 142.547 18.5365 142.281 18.7188C142.021 18.8958 141.706 19.0156 141.336 19.0781C140.971 19.1406 140.487 19.1719 139.883 19.1719ZM137.906 14.0547H141.719V12.9219C141.719 12.4531 141.557 12.1302 141.234 11.9531C140.917 11.776 140.448 11.6875 139.828 11.6875C139.208 11.6875 138.732 11.7943 138.398 12.0078C138.07 12.2214 137.906 12.5729 137.906 13.0625V14.0547ZM155.062 12.8984C155.062 12.0911 154.445 11.6875 153.211 11.6875C152.602 11.6875 152.122 11.8177 151.773 12.0781C151.424 12.3385 151.25 12.6797 151.25 13.1016V19H149.781V10.7188H151.25V11.5234C151.802 10.8828 152.62 10.5625 153.703 10.5625C155.109 10.5625 156 11.0573 156.375 12.0469C156.479 12.3281 156.531 12.6406 156.531 12.9844V19H155.062V12.8984ZM159.516 19V10.7188H160.984V19H159.516ZM159.516 9.22656V7.70312H160.984V9.22656H159.516ZM166.492 18.0469C167.602 18.0469 168.156 17.6328 168.156 16.8047C168.156 16.4453 168.107 16.1797 168.008 16.0078C167.909 15.8307 167.677 15.6745 167.312 15.5391L165.344 14.8125C164.74 14.599 164.318 14.3464 164.078 14.0547C163.844 13.7578 163.727 13.388 163.727 12.9453C163.727 12.5026 163.771 12.1484 163.859 11.8828C163.948 11.612 164.094 11.375 164.297 11.1719C164.703 10.7656 165.432 10.5625 166.484 10.5625C167.536 10.5625 168.443 10.7135 169.203 11.0156L168.867 12.1406C168.602 12.0312 168.253 11.9297 167.82 11.8359C167.388 11.737 167.01 11.6875 166.688 11.6875C165.943 11.6875 165.471 11.8073 165.273 12.0469C165.154 12.1979 165.094 12.4193 165.094 12.7109C165.094 13.0026 165.141 13.2109 165.234 13.3359C165.333 13.4557 165.523 13.5651 165.805 13.6641L167.75 14.4297C168.427 14.6953 168.872 14.9896 169.086 15.3125C169.299 15.6302 169.406 16.1328 169.406 16.8203C169.406 17.5078 169.185 18.0729 168.742 18.5156C168.299 18.9531 167.615 19.1719 166.688 19.1719C166.01 19.1719 165.409 19.099 164.883 18.9531C164.357 18.8073 163.953 18.6562 163.672 18.5L164.031 17.4219C164.776 17.8385 165.596 18.0469 166.492 18.0469ZM171.766 19V7.23438H173.234V14.9062L177.195 10.7188H178.805L175.438 14.3594L179.141 19H177.445L174.477 15.1562L173.234 16.3906V19H171.766ZM183.914 19.1719C182.701 19.1719 181.823 18.9193 181.281 18.4141C180.74 17.9089 180.469 17.1302 180.469 16.0781V13.1953C180.469 12.3776 180.747 11.7344 181.305 11.2656C181.862 10.7969 182.703 10.5625 183.828 10.5625C184.958 10.5625 185.797 10.7812 186.344 11.2188C186.896 11.651 187.172 12.2708 187.172 13.0781V15.0469H181.938V16.2109C181.938 16.8984 182.076 17.3776 182.352 17.6484C182.628 17.9141 183.125 18.0469 183.844 18.0469C184.562 18.0469 184.969 18.0312 185.062 18C185.156 17.9688 185.253 17.9323 185.352 17.8906C185.451 17.849 185.518 17.7995 185.555 17.7422C185.596 17.6849 185.648 17.599 185.711 17.4844C185.779 17.3646 185.828 17.1354 185.859 16.7969H187.156C187.104 17.2917 187.016 17.6901 186.891 17.9922C186.771 18.2943 186.578 18.5365 186.312 18.7188C186.052 18.8958 185.737 19.0156 185.367 19.0781C185.003 19.1406 184.518 19.1719 183.914 19.1719ZM181.938 14.0547H185.75V12.9219C185.75 12.4531 185.589 12.1302 185.266 11.9531C184.948 11.776 184.479 11.6875 183.859 11.6875C183.24 11.6875 182.763 11.7943 182.43 12.0078C182.102 12.2214 181.938 12.5729 181.938 13.0625V14.0547ZM193.969 19V10.7188H195.438V19H193.969ZM193.969 9.22656V7.70312H195.438V9.22656H193.969ZM200.945 18.0469C202.055 18.0469 202.609 17.6328 202.609 16.8047C202.609 16.4453 202.56 16.1797 202.461 16.0078C202.362 15.8307 202.13 15.6745 201.766 15.5391L199.797 14.8125C199.193 14.599 198.771 14.3464 198.531 14.0547C198.297 13.7578 198.18 13.388 198.18 12.9453C198.18 12.5026 198.224 12.1484 198.312 11.8828C198.401 11.612 198.547 11.375 198.75 11.1719C199.156 10.7656 199.885 10.5625 200.938 10.5625C201.99 10.5625 202.896 10.7135 203.656 11.0156L203.32 12.1406C203.055 12.0312 202.706 11.9297 202.273 11.8359C201.841 11.737 201.464 11.6875 201.141 11.6875C200.396 11.6875 199.924 11.8073 199.727 12.0469C199.607 12.1979 199.547 12.4193 199.547 12.7109C199.547 13.0026 199.594 13.2109 199.688 13.3359C199.786 13.4557 199.977 13.5651 200.258 13.6641L202.203 14.4297C202.88 14.6953 203.326 14.9896 203.539 15.3125C203.753 15.6302 203.859 16.1328 203.859 16.8203C203.859 17.5078 203.638 18.0729 203.195 18.5156C202.753 18.9531 202.068 19.1719 201.141 19.1719C200.464 19.1719 199.862 19.099 199.336 18.9531C198.81 18.8073 198.406 18.6562 198.125 18.5L198.484 17.4219C199.229 17.8385 200.049 18.0469 200.945 18.0469ZM210.047 19.0625C208.891 19.0625 208.055 18.8802 207.539 18.5156C207.029 18.151 206.773 17.5234 206.773 16.6328V11.8281H205.391V10.7188H206.828L207.008 8.15625H208.242V10.7188H210.32V11.8281H208.242V16.5391C208.242 17.0599 208.391 17.4062 208.688 17.5781C208.99 17.7448 209.513 17.8281 210.258 17.8281H210.422L210.266 19.0625H210.047ZM215.93 19.1719C214.716 19.1719 213.839 18.9193 213.297 18.4141C212.755 17.9089 212.484 17.1302 212.484 16.0781V13.1953C212.484 12.3776 212.763 11.7344 213.32 11.2656C213.878 10.7969 214.719 10.5625 215.844 10.5625C216.974 10.5625 217.812 10.7812 218.359 11.2188C218.911 11.651 219.188 12.2708 219.188 13.0781V15.0469H213.953V16.2109C213.953 16.8984 214.091 17.3776 214.367 17.6484C214.643 17.9141 215.141 18.0469 215.859 18.0469C216.578 18.0469 216.984 18.0312 217.078 18C217.172 17.9688 217.268 17.9323 217.367 17.8906C217.466 17.849 217.534 17.7995 217.57 17.7422C217.612 17.6849 217.664 17.599 217.727 17.4844C217.794 17.3646 217.844 17.1354 217.875 16.7969H219.172C219.12 17.2917 219.031 17.6901 218.906 17.9922C218.786 18.2943 218.594 18.5365 218.328 18.7188C218.068 18.8958 217.753 19.0156 217.383 19.0781C217.018 19.1406 216.534 19.1719 215.93 19.1719ZM213.953 14.0547H217.766V12.9219C217.766 12.4531 217.604 12.1302 217.281 11.9531C216.964 11.776 216.495 11.6875 215.875 11.6875C215.255 11.6875 214.779 11.7943 214.445 12.0078C214.117 12.2214 213.953 12.5729 213.953 13.0625V14.0547ZM228.992 10.5625C229.659 10.5625 230.271 10.6667 230.828 10.875V7.23438H232.297V19H231.297L231.055 18.4531C230.799 18.651 230.464 18.8203 230.047 18.9609C229.63 19.1016 229.219 19.1719 228.812 19.1719C227.682 19.1719 226.852 18.9219 226.32 18.4219C225.794 17.9167 225.531 17.237 225.531 16.3828V13.2578C225.531 12.3984 225.815 11.7344 226.383 11.2656C226.951 10.7969 227.82 10.5625 228.992 10.5625ZM227 16.4922C227 16.987 227.174 17.3646 227.523 17.625C227.878 17.8854 228.292 18.0156 228.766 18.0156C229.609 18.0156 230.297 17.8516 230.828 17.5234V12.0312C230.354 11.8021 229.779 11.6875 229.102 11.6875C227.701 11.6875 227 12.1562 227 13.0938V16.4922ZM237.977 19.1719C236.565 19.1719 235.669 18.6719 235.289 17.6719C235.18 17.3854 235.125 17.0729 235.125 16.7344V10.7188H236.594V16.7422C236.594 17.1484 236.742 17.4688 237.039 17.7031C237.341 17.9323 237.789 18.0469 238.383 18.0469C238.977 18.0469 239.458 17.901 239.828 17.6094C240.203 17.3125 240.391 16.9714 240.391 16.5859V10.7188H241.859V19H240.547L240.391 17.9609C239.932 18.7682 239.128 19.1719 237.977 19.1719ZM246.797 9.28906L245.195 7.21094H246.406L247.375 8.57031L248.406 7.21094H249.664L247.969 9.28906H246.797ZM244.406 19V18.0781L248.367 11.6875H244.547V10.7188H249.914V11.6172L245.93 18.0312H249.984V19H244.406ZM252.453 19V10.7188H253.922V19H252.453ZM252.453 9.22656V7.70312H253.922V9.22656H252.453ZM262.234 12.8984C262.234 12.0911 261.617 11.6875 260.383 11.6875C259.773 11.6875 259.294 11.8177 258.945 12.0781C258.596 12.3385 258.422 12.6797 258.422 13.1016V19H256.953V10.7188H258.422V11.5234C258.974 10.8828 259.792 10.5625 260.875 10.5625C262.281 10.5625 263.172 11.0573 263.547 12.0469C263.651 12.3281 263.703 12.6406 263.703 12.9844V19H262.234V12.8984ZM269.68 19.1719C268.466 19.1719 267.589 18.9193 267.047 18.4141C266.505 17.9089 266.234 17.1302 266.234 16.0781V13.1953C266.234 12.3776 266.513 11.7344 267.07 11.2656C267.628 10.7969 268.469 10.5625 269.594 10.5625C270.724 10.5625 271.562 10.7812 272.109 11.2188C272.661 11.651 272.938 12.2708 272.938 13.0781V15.0469H267.703V16.2109C267.703 16.8984 267.841 17.3776 268.117 17.6484C268.393 17.9141 268.891 18.0469 269.609 18.0469C270.328 18.0469 270.734 18.0312 270.828 18C270.922 17.9688 271.018 17.9323 271.117 17.8906C271.216 17.849 271.284 17.7995 271.32 17.7422C271.362 17.6849 271.414 17.599 271.477 17.4844C271.544 17.3646 271.594 17.1354 271.625 16.7969H272.922C272.87 17.2917 272.781 17.6901 272.656 17.9922C272.536 18.2943 272.344 18.5365 272.078 18.7188C271.818 18.8958 271.503 19.0156 271.133 19.0781C270.768 19.1406 270.284 19.1719 269.68 19.1719ZM267.703 14.0547H271.516V12.9219C271.516 12.4531 271.354 12.1302 271.031 11.9531C270.714 11.776 270.245 11.6875 269.625 11.6875C269.005 11.6875 268.529 11.7943 268.195 12.0078C267.867 12.2214 267.703 12.5729 267.703 13.0625V14.0547ZM275.578 19V17.1094H277.578V19H275.578ZM286.945 19V8.99219H283.688V7.70312H291.781V8.99219H288.516V19H286.945ZM296.023 19.1719C295.185 19.1719 294.534 18.9453 294.07 18.4922C293.607 18.0339 293.375 17.4661 293.375 16.7891C293.375 16.4036 293.456 16.0833 293.617 15.8281C293.945 15.3073 294.924 14.8099 296.555 14.3359C297.497 14.0755 298.039 13.8516 298.18 13.6641C298.326 13.4766 298.406 13.3307 298.422 13.2266C298.438 13.1172 298.445 12.9453 298.445 12.7109C298.445 12.4766 298.349 12.2474 298.156 12.0234C297.969 11.7995 297.557 11.6875 296.922 11.6875C296.026 11.6875 295.477 11.8594 295.273 12.2031C295.169 12.3802 295.117 12.6198 295.117 12.9219V13.2891H293.703V12.9141C293.703 12.1068 293.971 11.513 294.508 11.1328C295.049 10.7526 295.857 10.5625 296.93 10.5625C298.003 10.5625 298.768 10.8073 299.227 11.2969C299.685 11.7812 299.914 12.474 299.914 13.375V16.9062C299.914 17.3385 299.969 17.6198 300.078 17.75C300.188 17.875 300.422 17.9375 300.781 17.9375L300.609 19.0625H300.312C299.792 19.0625 299.404 18.9635 299.148 18.7656C298.893 18.5625 298.698 18.25 298.562 17.8281C298.13 18.474 297.609 18.8802 297 19.0469C296.708 19.1302 296.383 19.1719 296.023 19.1719ZM296.758 15.3438C296.018 15.5573 295.505 15.7708 295.219 15.9844C294.938 16.1979 294.797 16.5 294.797 16.8906C294.797 17.276 294.927 17.5677 295.188 17.7656C295.453 17.9635 295.771 18.0625 296.141 18.0625C296.516 18.0625 296.854 18.0156 297.156 17.9219C297.458 17.8229 297.729 17.6797 297.969 17.4922C298.214 17.2995 298.372 17.0807 298.445 16.8359V14.4453C298.065 14.8255 297.503 15.125 296.758 15.3438ZM306.117 10.5625C306.784 10.5625 307.396 10.6667 307.953 10.875V7.23438H309.422V19H308.422L308.18 18.4531C307.924 18.651 307.589 18.8203 307.172 18.9609C306.755 19.1016 306.344 19.1719 305.938 19.1719C304.807 19.1719 303.977 18.9219 303.445 18.4219C302.919 17.9167 302.656 17.237 302.656 16.3828V13.2578C302.656 12.3984 302.94 11.7344 303.508 11.2656C304.076 10.7969 304.945 10.5625 306.117 10.5625ZM304.125 16.4922C304.125 16.987 304.299 17.3646 304.648 17.625C305.003 17.8854 305.417 18.0156 305.891 18.0156C306.734 18.0156 307.422 17.8516 307.953 17.5234V12.0312C307.479 11.8021 306.904 11.6875 306.227 11.6875C304.826 11.6875 304.125 12.1562 304.125 13.0938V16.4922ZM314.555 19.1719C313.716 19.1719 313.065 18.9453 312.602 18.4922C312.138 18.0339 311.906 17.4661 311.906 16.7891C311.906 16.4036 311.987 16.0833 312.148 15.8281C312.477 15.3073 313.456 14.8099 315.086 14.3359C316.029 14.0755 316.57 13.8516 316.711 13.6641C316.857 13.4766 316.938 13.3307 316.953 13.2266C316.969 13.1172 316.977 12.9453 316.977 12.7109C316.977 12.4766 316.88 12.2474 316.688 12.0234C316.5 11.7995 316.089 11.6875 315.453 11.6875C314.557 11.6875 314.008 11.8594 313.805 12.2031C313.701 12.3802 313.648 12.6198 313.648 12.9219V13.2891H312.234V12.9141C312.234 12.1068 312.503 11.513 313.039 11.1328C313.581 10.7526 314.388 10.5625 315.461 10.5625C316.534 10.5625 317.299 10.8073 317.758 11.2969C318.216 11.7812 318.445 12.474 318.445 13.375V16.9062C318.445 17.3385 318.5 17.6198 318.609 17.75C318.719 17.875 318.953 17.9375 319.312 17.9375L319.141 19.0625H318.844C318.323 19.0625 317.935 18.9635 317.68 18.7656C317.424 18.5625 317.229 18.25 317.094 17.8281C316.661 18.474 316.141 18.8802 315.531 19.0469C315.24 19.1302 314.914 19.1719 314.555 19.1719ZM315.289 15.3438C314.549 15.5573 314.036 15.7708 313.75 15.9844C313.469 16.1979 313.328 16.5 313.328 16.8906C313.328 17.276 313.458 17.5677 313.719 17.7656C313.984 17.9635 314.302 18.0625 314.672 18.0625C315.047 18.0625 315.385 18.0156 315.688 17.9219C315.99 17.8229 316.26 17.6797 316.5 17.4922C316.745 17.2995 316.904 17.0807 316.977 16.8359V14.4453C316.596 14.8255 316.034 15.125 315.289 15.3438ZM328.07 9.28906L329.008 6.625H330.766L328.898 9.28906H328.07ZM328.555 19.1719C326.862 19.1719 325.802 18.5833 325.375 17.4062C325.25 17.0729 325.188 16.7083 325.188 16.3125V13.1562C325.188 12.3698 325.487 11.7422 326.086 11.2734C326.685 10.7995 327.495 10.5625 328.516 10.5625C329.818 10.5625 330.714 10.8438 331.203 11.4062C331.589 11.8438 331.781 12.4896 331.781 13.3438L330.383 13.4766C330.383 12.737 330.25 12.2552 329.984 12.0312C329.724 11.8021 329.258 11.6875 328.586 11.6875C327.914 11.6875 327.424 11.8047 327.117 12.0391C326.81 12.2734 326.656 12.6589 326.656 13.1953V16.4375C326.656 17.0104 326.818 17.4219 327.141 17.6719C327.464 17.9219 327.961 18.0469 328.633 18.0469C329.31 18.0469 329.76 17.9583 329.984 17.7812C330.214 17.6042 330.354 17.2031 330.406 16.5781H331.766C331.682 17.5365 331.406 18.2083 330.938 18.5938C330.469 18.9792 329.674 19.1719 328.555 19.1719ZM337.305 19.1719C336.091 19.1719 335.214 18.9193 334.672 18.4141C334.13 17.9089 333.859 17.1302 333.859 16.0781V13.1953C333.859 12.3776 334.138 11.7344 334.695 11.2656C335.253 10.7969 336.094 10.5625 337.219 10.5625C338.349 10.5625 339.188 10.7812 339.734 11.2188C340.286 11.651 340.562 12.2708 340.562 13.0781V15.0469H335.328V16.2109C335.328 16.8984 335.466 17.3776 335.742 17.6484C336.018 17.9141 336.516 18.0469 337.234 18.0469C337.953 18.0469 338.359 18.0312 338.453 18C338.547 17.9688 338.643 17.9323 338.742 17.8906C338.841 17.849 338.909 17.7995 338.945 17.7422C338.987 17.6849 339.039 17.599 339.102 17.4844C339.169 17.3646 339.219 17.1354 339.25 16.7969H340.547C340.495 17.2917 340.406 17.6901 340.281 17.9922C340.161 18.2943 339.969 18.5365 339.703 18.7188C339.443 18.8958 339.128 19.0156 338.758 19.0781C338.393 19.1406 337.909 19.1719 337.305 19.1719ZM335.328 14.0547H339.141V12.9219C339.141 12.4531 338.979 12.1302 338.656 11.9531C338.339 11.776 337.87 11.6875 337.25 11.6875C336.63 11.6875 336.154 11.7943 335.82 12.0078C335.492 12.2214 335.328 12.5729 335.328 13.0625V14.0547ZM349.461 19L346.25 10.7188H347.727L350.219 17.4375L352.438 10.7188H353.875L350.945 19H349.461ZM358.055 19.1719C357.216 19.1719 356.565 18.9453 356.102 18.4922C355.638 18.0339 355.406 17.4661 355.406 16.7891C355.406 16.4036 355.487 16.0833 355.648 15.8281C355.977 15.3073 356.956 14.8099 358.586 14.3359C359.529 14.0755 360.07 13.8516 360.211 13.6641C360.357 13.4766 360.438 13.3307 360.453 13.2266C360.469 13.1172 360.477 12.9453 360.477 12.7109C360.477 12.4766 360.38 12.2474 360.188 12.0234C360 11.7995 359.589 11.6875 358.953 11.6875C358.057 11.6875 357.508 11.8594 357.305 12.2031C357.201 12.3802 357.148 12.6198 357.148 12.9219V13.2891H355.734V12.9141C355.734 12.1068 356.003 11.513 356.539 11.1328C357.081 10.7526 357.888 10.5625 358.961 10.5625C360.034 10.5625 360.799 10.8073 361.258 11.2969C361.716 11.7812 361.945 12.474 361.945 13.375V16.9062C361.945 17.3385 362 17.6198 362.109 17.75C362.219 17.875 362.453 17.9375 362.812 17.9375L362.641 19.0625H362.344C361.823 19.0625 361.435 18.9635 361.18 18.7656C360.924 18.5625 360.729 18.25 360.594 17.8281C360.161 18.474 359.641 18.8802 359.031 19.0469C358.74 19.1302 358.414 19.1719 358.055 19.1719ZM358.789 15.3438C358.049 15.5573 357.536 15.7708 357.25 15.9844C356.969 16.1979 356.828 16.5 356.828 16.8906C356.828 17.276 356.958 17.5677 357.219 17.7656C357.484 17.9635 357.802 18.0625 358.172 18.0625C358.547 18.0625 358.885 18.0156 359.188 17.9219C359.49 17.8229 359.76 17.6797 360 17.4922C360.245 17.2995 360.404 17.0807 360.477 16.8359V14.4453C360.096 14.8255 359.534 15.125 358.789 15.3438ZM367.016 9.28906L365.414 7.21094H366.625L367.594 8.57031L368.625 7.21094H369.883L368.188 9.28906H367.016ZM364.625 19V18.0781L368.586 11.6875H364.766V10.7188H370.133V11.6172L366.148 18.0312H370.203V19H364.625ZM372.672 19V10.7188H374.141V19H372.672ZM372.672 9.22656V7.70312H374.141V9.22656H372.672ZM381 19.0625C379.844 19.0625 379.008 18.8802 378.492 18.5156C377.982 18.151 377.727 17.5234 377.727 16.6328V11.8281H376.344V10.7188H377.781L377.961 8.15625H379.195V10.7188H381.273V11.8281H379.195V16.5391C379.195 17.0599 379.344 17.4062 379.641 17.5781C379.943 17.7448 380.466 17.8281 381.211 17.8281H381.375L381.219 19.0625H381ZM383.891 19V10.7188H385.359V19H383.891ZM383.891 9.22656V7.70312H385.359V9.22656H383.891ZM394.867 18.0469C395.977 18.0469 396.531 17.6328 396.531 16.8047C396.531 16.4453 396.482 16.1797 396.383 16.0078C396.284 15.8307 396.052 15.6745 395.688 15.5391L393.719 14.8125C393.115 14.599 392.693 14.3464 392.453 14.0547C392.219 13.7578 392.102 13.388 392.102 12.9453C392.102 12.5026 392.146 12.1484 392.234 11.8828C392.323 11.612 392.469 11.375 392.672 11.1719C393.078 10.7656 393.807 10.5625 394.859 10.5625C395.911 10.5625 396.818 10.7135 397.578 11.0156L397.242 12.1406C396.977 12.0312 396.628 11.9297 396.195 11.8359C395.763 11.737 395.385 11.6875 395.062 11.6875C394.318 11.6875 393.846 11.8073 393.648 12.0469C393.529 12.1979 393.469 12.4193 393.469 12.7109C393.469 13.0026 393.516 13.2109 393.609 13.3359C393.708 13.4557 393.898 13.5651 394.18 13.6641L396.125 14.4297C396.802 14.6953 397.247 14.9896 397.461 15.3125C397.674 15.6302 397.781 16.1328 397.781 16.8203C397.781 17.5078 397.56 18.0729 397.117 18.5156C396.674 18.9531 395.99 19.1719 395.062 19.1719C394.385 19.1719 393.784 19.099 393.258 18.9531C392.732 18.8073 392.328 18.6562 392.047 18.5L392.406 17.4219C393.151 17.8385 393.971 18.0469 394.867 18.0469ZM402.828 19.0625C402.344 19.0625 401.948 19.026 401.641 18.9531C401.333 18.8802 401.062 18.7422 400.828 18.5391C400.391 18.1589 400.172 17.3802 400.172 16.2031V7.24219H401.641V16.2188C401.641 16.8854 401.74 17.3203 401.938 17.5234C402.135 17.7266 402.544 17.8281 403.164 17.8281H403.422L403.25 19.0625H402.828ZM408.727 19.1719C407.513 19.1719 406.635 18.9193 406.094 18.4141C405.552 17.9089 405.281 17.1302 405.281 16.0781V13.1953C405.281 12.3776 405.56 11.7344 406.117 11.2656C406.674 10.7969 407.516 10.5625 408.641 10.5625C409.771 10.5625 410.609 10.7812 411.156 11.2188C411.708 11.651 411.984 12.2708 411.984 13.0781V15.0469H406.75V16.2109C406.75 16.8984 406.888 17.3776 407.164 17.6484C407.44 17.9141 407.938 18.0469 408.656 18.0469C409.375 18.0469 409.781 18.0312 409.875 18C409.969 17.9688 410.065 17.9323 410.164 17.8906C410.263 17.849 410.331 17.7995 410.367 17.7422C410.409 17.6849 410.461 17.599 410.523 17.4844C410.591 17.3646 410.641 17.1354 410.672 16.7969H411.969C411.917 17.2917 411.828 17.6901 411.703 17.9922C411.583 18.2943 411.391 18.5365 411.125 18.7188C410.865 18.8958 410.549 19.0156 410.18 19.0781C409.815 19.1406 409.331 19.1719 408.727 19.1719ZM406.75 14.0547H410.562V12.9219C410.562 12.4531 410.401 12.1302 410.078 11.9531C409.76 11.776 409.292 11.6875 408.672 11.6875C408.052 11.6875 407.576 11.7943 407.242 12.0078C406.914 12.2214 406.75 12.5729 406.75 13.0625V14.0547ZM417.789 10.5625C418.456 10.5625 419.068 10.6667 419.625 10.875V7.23438H421.094V19H420.094L419.852 18.4531C419.596 18.651 419.26 18.8203 418.844 18.9609C418.427 19.1016 418.016 19.1719 417.609 19.1719C416.479 19.1719 415.648 18.9219 415.117 18.4219C414.591 17.9167 414.328 17.237 414.328 16.3828V13.2578C414.328 12.3984 414.612 11.7344 415.18 11.2656C415.747 10.7969 416.617 10.5625 417.789 10.5625ZM415.797 16.4922C415.797 16.987 415.971 17.3646 416.32 17.625C416.674 17.8854 417.089 18.0156 417.562 18.0156C418.406 18.0156 419.094 17.8516 419.625 17.5234V12.0312C419.151 11.8021 418.576 11.6875 417.898 11.6875C416.497 11.6875 415.797 12.1562 415.797 13.0938V16.4922ZM427.148 19.1719C425.935 19.1719 425.057 18.9193 424.516 18.4141C423.974 17.9089 423.703 17.1302 423.703 16.0781V13.1953C423.703 12.3776 423.982 11.7344 424.539 11.2656C425.096 10.7969 425.938 10.5625 427.062 10.5625C428.193 10.5625 429.031 10.7812 429.578 11.2188C430.13 11.651 430.406 12.2708 430.406 13.0781V15.0469H425.172V16.2109C425.172 16.8984 425.31 17.3776 425.586 17.6484C425.862 17.9141 426.359 18.0469 427.078 18.0469C427.797 18.0469 428.203 18.0312 428.297 18C428.391 17.9688 428.487 17.9323 428.586 17.8906C428.685 17.849 428.753 17.7995 428.789 17.7422C428.831 17.6849 428.883 17.599 428.945 17.4844C429.013 17.3646 429.062 17.1354 429.094 16.7969H430.391C430.339 17.2917 430.25 17.6901 430.125 17.9922C430.005 18.2943 429.812 18.5365 429.547 18.7188C429.286 18.8958 428.971 19.0156 428.602 19.0781C428.237 19.1406 427.753 19.1719 427.148 19.1719ZM425.172 14.0547H428.984V12.9219C428.984 12.4531 428.823 12.1302 428.5 11.9531C428.182 11.776 427.714 11.6875 427.094 11.6875C426.474 11.6875 425.997 11.7943 425.664 12.0078C425.336 12.2214 425.172 12.5729 425.172 13.0625V14.0547ZM435.633 9.28906L436.57 6.625H438.328L436.461 9.28906H435.633ZM436.117 19.1719C434.424 19.1719 433.365 18.5833 432.938 17.4062C432.812 17.0729 432.75 16.7083 432.75 16.3125V13.1562C432.75 12.3698 433.049 11.7422 433.648 11.2734C434.247 10.7995 435.057 10.5625 436.078 10.5625C437.38 10.5625 438.276 10.8438 438.766 11.4062C439.151 11.8438 439.344 12.4896 439.344 13.3438L437.945 13.4766C437.945 12.737 437.812 12.2552 437.547 12.0312C437.286 11.8021 436.82 11.6875 436.148 11.6875C435.477 11.6875 434.987 11.8047 434.68 12.0391C434.372 12.2734 434.219 12.6589 434.219 13.1953V16.4375C434.219 17.0104 434.38 17.4219 434.703 17.6719C435.026 17.9219 435.523 18.0469 436.195 18.0469C436.872 18.0469 437.323 17.9583 437.547 17.7812C437.776 17.6042 437.917 17.2031 437.969 16.5781H439.328C439.245 17.5365 438.969 18.2083 438.5 18.5938C438.031 18.9792 437.237 19.1719 436.117 19.1719ZM443.945 19.1719C443.107 19.1719 442.456 18.9453 441.992 18.4922C441.529 18.0339 441.297 17.4661 441.297 16.7891C441.297 16.4036 441.378 16.0833 441.539 15.8281C441.867 15.3073 442.846 14.8099 444.477 14.3359C445.419 14.0755 445.961 13.8516 446.102 13.6641C446.247 13.4766 446.328 13.3307 446.344 13.2266C446.359 13.1172 446.367 12.9453 446.367 12.7109C446.367 12.4766 446.271 12.2474 446.078 12.0234C445.891 11.7995 445.479 11.6875 444.844 11.6875C443.948 11.6875 443.398 11.8594 443.195 12.2031C443.091 12.3802 443.039 12.6198 443.039 12.9219V13.2891H441.625V12.9141C441.625 12.1068 441.893 11.513 442.43 11.1328C442.971 10.7526 443.779 10.5625 444.852 10.5625C445.924 10.5625 446.69 10.8073 447.148 11.2969C447.607 11.7812 447.836 12.474 447.836 13.375V16.9062C447.836 17.3385 447.891 17.6198 448 17.75C448.109 17.875 448.344 17.9375 448.703 17.9375L448.531 19.0625H448.234C447.714 19.0625 447.326 18.9635 447.07 18.7656C446.815 18.5625 446.62 18.25 446.484 17.8281C446.052 18.474 445.531 18.8802 444.922 19.0469C444.63 19.1302 444.305 19.1719 443.945 19.1719ZM444.68 15.3438C443.94 15.5573 443.427 15.7708 443.141 15.9844C442.859 16.1979 442.719 16.5 442.719 16.8906C442.719 17.276 442.849 17.5677 443.109 17.7656C443.375 17.9635 443.693 18.0625 444.062 18.0625C444.438 18.0625 444.776 18.0156 445.078 17.9219C445.38 17.8229 445.651 17.6797 445.891 17.4922C446.135 17.2995 446.294 17.0807 446.367 16.8359V14.4453C445.987 14.8255 445.424 15.125 444.68 15.3438ZM460.156 12.8984C460.156 12.0911 459.539 11.6875 458.305 11.6875C457.695 11.6875 457.216 11.8177 456.867 12.0781C456.518 12.3385 456.344 12.6797 456.344 13.1016V19H454.875V10.7188H456.344V11.5234C456.896 10.8828 457.714 10.5625 458.797 10.5625C460.203 10.5625 461.094 11.0573 461.469 12.0469C461.573 12.3281 461.625 12.6406 461.625 12.9844V19H460.156V12.8984ZM467.602 19.1719C466.388 19.1719 465.51 18.9193 464.969 18.4141C464.427 17.9089 464.156 17.1302 464.156 16.0781V13.1953C464.156 12.3776 464.435 11.7344 464.992 11.2656C465.549 10.7969 466.391 10.5625 467.516 10.5625C468.646 10.5625 469.484 10.7812 470.031 11.2188C470.583 11.651 470.859 12.2708 470.859 13.0781V15.0469H465.625V16.2109C465.625 16.8984 465.763 17.3776 466.039 17.6484C466.315 17.9141 466.812 18.0469 467.531 18.0469C468.25 18.0469 468.656 18.0312 468.75 18C468.844 17.9688 468.94 17.9323 469.039 17.8906C469.138 17.849 469.206 17.7995 469.242 17.7422C469.284 17.6849 469.336 17.599 469.398 17.4844C469.466 17.3646 469.516 17.1354 469.547 16.7969H470.844C470.792 17.2917 470.703 17.6901 470.578 17.9922C470.458 18.2943 470.266 18.5365 470 18.7188C469.74 18.8958 469.424 19.0156 469.055 19.0781C468.69 19.1406 468.206 19.1719 467.602 19.1719ZM465.625 14.0547H469.438V12.9219C469.438 12.4531 469.276 12.1302 468.953 11.9531C468.635 11.776 468.167 11.6875 467.547 11.6875C466.927 11.6875 466.451 11.7943 466.117 12.0078C465.789 12.2214 465.625 12.5729 465.625 13.0625V14.0547ZM472.297 21.7578L472.148 20.5391H472.375C472.906 20.5391 473.26 20.4688 473.438 20.3281C473.615 20.1927 473.729 20.0234 473.781 19.8203C473.833 19.6224 473.859 19.3594 473.859 19.0312V10.7188H475.328V18.9453C475.328 20.3047 475.016 21.1458 474.391 21.4688C474.021 21.6615 473.495 21.7578 472.812 21.7578H472.297ZM473.859 9.22656V7.70312H475.328V9.22656H473.859ZM481.352 19.1719C480.138 19.1719 479.26 18.9193 478.719 18.4141C478.177 17.9089 477.906 17.1302 477.906 16.0781V13.1953C477.906 12.3776 478.185 11.7344 478.742 11.2656C479.299 10.7969 480.141 10.5625 481.266 10.5625C482.396 10.5625 483.234 10.7812 483.781 11.2188C484.333 11.651 484.609 12.2708 484.609 13.0781V15.0469H479.375V16.2109C479.375 16.8984 479.513 17.3776 479.789 17.6484C480.065 17.9141 480.562 18.0469 481.281 18.0469C482 18.0469 482.406 18.0312 482.5 18C482.594 17.9688 482.69 17.9323 482.789 17.8906C482.888 17.849 482.956 17.7995 482.992 17.7422C483.034 17.6849 483.086 17.599 483.148 17.4844C483.216 17.3646 483.266 17.1354 483.297 16.7969H484.594C484.542 17.2917 484.453 17.6901 484.328 17.9922C484.208 18.2943 484.016 18.5365 483.75 18.7188C483.49 18.8958 483.174 19.0156 482.805 19.0781C482.44 19.1406 481.956 19.1719 481.352 19.1719ZM479.375 14.0547H483.188V12.9219C483.188 12.4531 483.026 12.1302 482.703 11.9531C482.385 11.776 481.917 11.6875 481.297 11.6875C480.677 11.6875 480.201 11.7943 479.867 12.0078C479.539 12.2214 479.375 12.5729 479.375 13.0625V14.0547ZM490.414 10.5625C491.081 10.5625 491.693 10.6667 492.25 10.875V7.23438H493.719V19H492.719L492.477 18.4531C492.221 18.651 491.885 18.8203 491.469 18.9609C491.052 19.1016 490.641 19.1719 490.234 19.1719C489.104 19.1719 488.273 18.9219 487.742 18.4219C487.216 17.9167 486.953 17.237 486.953 16.3828V13.2578C486.953 12.3984 487.237 11.7344 487.805 11.2656C488.372 10.7969 489.242 10.5625 490.414 10.5625ZM488.422 16.4922C488.422 16.987 488.596 17.3646 488.945 17.625C489.299 17.8854 489.714 18.0156 490.188 18.0156C491.031 18.0156 491.719 17.8516 492.25 17.5234V12.0312C491.776 11.8021 491.201 11.6875 490.523 11.6875C489.122 11.6875 488.422 12.1562 488.422 13.0938V16.4922ZM501.906 12.8984C501.906 12.0911 501.289 11.6875 500.055 11.6875C499.445 11.6875 498.966 11.8177 498.617 12.0781C498.268 12.3385 498.094 12.6797 498.094 13.1016V19H496.625V10.7188H498.094V11.5234C498.646 10.8828 499.464 10.5625 500.547 10.5625C501.953 10.5625 502.844 11.0573 503.219 12.0469C503.323 12.3281 503.375 12.6406 503.375 12.9844V19H501.906V12.8984ZM508.43 19.1719C507.591 19.1719 506.94 18.9453 506.477 18.4922C506.013 18.0339 505.781 17.4661 505.781 16.7891C505.781 16.4036 505.862 16.0833 506.023 15.8281C506.352 15.3073 507.331 14.8099 508.961 14.3359C509.904 14.0755 510.445 13.8516 510.586 13.6641C510.732 13.4766 510.812 13.3307 510.828 13.2266C510.844 13.1172 510.852 12.9453 510.852 12.7109C510.852 12.4766 510.755 12.2474 510.562 12.0234C510.375 11.7995 509.964 11.6875 509.328 11.6875C508.432 11.6875 507.883 11.8594 507.68 12.2031C507.576 12.3802 507.523 12.6198 507.523 12.9219V13.2891H506.109V12.9141C506.109 12.1068 506.378 11.513 506.914 11.1328C507.456 10.7526 508.263 10.5625 509.336 10.5625C510.409 10.5625 511.174 10.8073 511.633 11.2969C512.091 11.7812 512.32 12.474 512.32 13.375V16.9062C512.32 17.3385 512.375 17.6198 512.484 17.75C512.594 17.875 512.828 17.9375 513.188 17.9375L513.016 19.0625H512.719C512.198 19.0625 511.81 18.9635 511.555 18.7656C511.299 18.5625 511.104 18.25 510.969 17.8281C510.536 18.474 510.016 18.8802 509.406 19.0469C509.115 19.1302 508.789 19.1719 508.43 19.1719ZM509.164 15.3438C508.424 15.5573 507.911 15.7708 507.625 15.9844C507.344 16.1979 507.203 16.5 507.203 16.8906C507.203 17.276 507.333 17.5677 507.594 17.7656C507.859 17.9635 508.177 18.0625 508.547 18.0625C508.922 18.0625 509.26 18.0156 509.562 17.9219C509.865 17.8229 510.135 17.6797 510.375 17.4922C510.62 17.2995 510.779 17.0807 510.852 16.8359V14.4453C510.471 14.8255 509.909 15.125 509.164 15.3438ZM515.359 19V7.23438H516.828V14.9062L520.789 10.7188H522.398L519.031 14.3594L522.734 19H521.039L518.07 15.1562L516.828 16.3906V19H515.359ZM525.531 16.6641C525.531 17.5859 526.185 18.0469 527.492 18.0469C528.799 18.0469 529.453 17.5859 529.453 16.6641V13.0781C529.453 12.151 528.799 11.6875 527.492 11.6875C526.185 11.6875 525.531 12.151 525.531 13.0781V16.6641ZM530.922 16.5391C530.922 17.3516 530.643 17.9948 530.086 18.4688C529.534 18.9375 528.667 19.1719 527.484 19.1719C526.302 19.1719 525.435 18.9375 524.883 18.4688C524.336 18 524.062 17.3568 524.062 16.5391V13.2031C524.062 12.3854 524.336 11.7422 524.883 11.2734C525.435 10.7995 526.302 10.5625 527.484 10.5625C528.667 10.5625 529.534 10.7995 530.086 11.2734C530.643 11.7474 530.922 12.3906 530.922 13.2031V16.5391ZM536.008 18.0469C537.117 18.0469 537.672 17.6328 537.672 16.8047C537.672 16.4453 537.622 16.1797 537.523 16.0078C537.424 15.8307 537.193 15.6745 536.828 15.5391L534.859 14.8125C534.255 14.599 533.833 14.3464 533.594 14.0547C533.359 13.7578 533.242 13.388 533.242 12.9453C533.242 12.5026 533.286 12.1484 533.375 11.8828C533.464 11.612 533.609 11.375 533.812 11.1719C534.219 10.7656 534.948 10.5625 536 10.5625C537.052 10.5625 537.958 10.7135 538.719 11.0156L538.383 12.1406C538.117 12.0312 537.768 11.9297 537.336 11.8359C536.904 11.737 536.526 11.6875 536.203 11.6875C535.458 11.6875 534.987 11.8073 534.789 12.0469C534.669 12.1979 534.609 12.4193 534.609 12.7109C534.609 13.0026 534.656 13.2109 534.75 13.3359C534.849 13.4557 535.039 13.5651 535.32 13.6641L537.266 14.4297C537.943 14.6953 538.388 14.9896 538.602 15.3125C538.815 15.6302 538.922 16.1328 538.922 16.8203C538.922 17.5078 538.701 18.0729 538.258 18.5156C537.815 18.9531 537.13 19.1719 536.203 19.1719C535.526 19.1719 534.924 19.099 534.398 18.9531C533.872 18.8073 533.469 18.6562 533.188 18.5L533.547 17.4219C534.292 17.8385 535.112 18.0469 536.008 18.0469ZM545.109 19.0625C543.953 19.0625 543.117 18.8802 542.602 18.5156C542.091 18.151 541.836 17.5234 541.836 16.6328V11.8281H540.453V10.7188H541.891L542.07 8.15625H543.305V10.7188H545.383V11.8281H543.305V16.5391C543.305 17.0599 543.453 17.4062 543.75 17.5781C544.052 17.7448 544.576 17.8281 545.32 17.8281H545.484L545.328 19.0625H545.109ZM548.391 12.6094V10.7188H550.391V12.6094H548.391ZM548.391 18.2266V16.3359H550.391V18.2266H548.391Z" fill="#C9D1D9"/>
<path d="M76.159 47.7676C74.9455 47.7676 74.0679 47.515 73.5262 47.0098C72.9845 46.5046 72.7137 45.7259 72.7137 44.6738V41.791C72.7137 40.9733 72.9923 40.3301 73.5496 39.8613C74.1069 39.3926 74.9481 39.1582 76.0731 39.1582C77.2033 39.1582 78.0418 39.377 78.5887 39.8145C79.1408 40.2467 79.4168 40.8665 79.4168 41.6738V43.6426H74.1824V44.8066C74.1824 45.4941 74.3205 45.9733 74.5965 46.2441C74.8725 46.5098 75.3699 46.6426 76.0887 46.6426C76.8074 46.6426 77.2137 46.627 77.3074 46.5957C77.4012 46.5645 77.4975 46.528 77.5965 46.4863C77.6955 46.4447 77.7632 46.3952 77.7996 46.3379C77.8413 46.2806 77.8934 46.1947 77.9559 46.0801C78.0236 45.9603 78.0731 45.7311 78.1043 45.3926H79.4012C79.3491 45.8874 79.2606 46.2858 79.1356 46.5879C79.0158 46.89 78.8231 47.1322 78.5574 47.3145C78.297 47.4915 77.9819 47.6113 77.6121 47.6738C77.2475 47.7363 76.7632 47.7676 76.159 47.7676ZM74.1824 42.6504H77.9949V41.5176C77.9949 41.0488 77.8335 40.7259 77.5106 40.5488C77.1929 40.3717 76.7241 40.2832 76.1043 40.2832C75.4845 40.2832 75.008 40.39 74.6746 40.6035C74.3465 40.8171 74.1824 41.1686 74.1824 41.6582V42.6504ZM85.2215 39.1582C85.8882 39.1582 86.5001 39.2624 87.0574 39.4707V35.8301H88.5262V47.5957H87.5262L87.284 47.0488C87.0288 47.2467 86.6929 47.416 86.2762 47.5566C85.8595 47.6973 85.4481 47.7676 85.0418 47.7676C83.9116 47.7676 83.0809 47.5176 82.5496 47.0176C82.0236 46.5124 81.7606 45.8327 81.7606 44.9785V41.8535C81.7606 40.9941 82.0444 40.3301 82.6121 39.8613C83.1798 39.3926 84.0496 39.1582 85.2215 39.1582ZM83.2293 45.0879C83.2293 45.5827 83.4038 45.9603 83.7527 46.2207C84.1069 46.4811 84.521 46.6113 84.9949 46.6113C85.8387 46.6113 86.5262 46.4473 87.0574 46.1191V40.627C86.5835 40.3978 86.008 40.2832 85.3309 40.2832C83.9298 40.2832 83.2293 40.752 83.2293 41.6895V45.0879ZM91.5887 47.5957V39.3145H93.0574V47.5957H91.5887ZM91.5887 37.8223V36.2988H93.0574V37.8223H91.5887ZM99.9168 47.6582C98.7606 47.6582 97.9246 47.4759 97.409 47.1113C96.8986 46.7467 96.6434 46.1191 96.6434 45.2285V40.4238H95.2606V39.3145H96.6981L96.8777 36.752H98.1121V39.3145H100.19V40.4238H98.1121V45.1348C98.1121 45.6556 98.2606 46.002 98.5574 46.1738C98.8595 46.3405 99.383 46.4238 100.128 46.4238H100.292L100.136 47.6582H99.9168ZM102.901 47.5957V36.2988H107.94C109.498 36.2988 110.474 36.8874 110.87 38.0645C111.016 38.502 111.089 39.0228 111.089 39.627C111.094 40.2259 111.026 40.7311 110.886 41.1426C110.745 41.5488 110.563 41.8639 110.339 42.0879C110.12 42.3066 109.841 42.4863 109.503 42.627L111.901 47.5957H110.284L108.042 42.9082L104.479 42.916V47.5957H102.901ZM104.479 41.7207H107.807C108.474 41.7207 108.925 41.541 109.159 41.1816C109.399 40.8223 109.518 40.3145 109.518 39.6582C109.513 38.4811 109.203 37.7884 108.589 37.5801C108.412 37.5176 108.211 37.4889 107.987 37.4941H104.479V41.7207ZM116.315 47.7676C115.477 47.7676 114.826 47.541 114.362 47.0879C113.899 46.6296 113.667 46.0618 113.667 45.3848C113.667 44.9993 113.748 44.679 113.909 44.4238C114.237 43.903 115.216 43.4056 116.846 42.9316C117.789 42.6712 118.331 42.4473 118.471 42.2598C118.617 42.0723 118.698 41.9264 118.714 41.8223C118.729 41.7129 118.737 41.541 118.737 41.3066C118.737 41.0723 118.641 40.8431 118.448 40.6191C118.261 40.3952 117.849 40.2832 117.214 40.2832C116.318 40.2832 115.768 40.4551 115.565 40.7988C115.461 40.9759 115.409 41.2155 115.409 41.5176V41.8848H113.995V41.5098C113.995 40.7025 114.263 40.1087 114.8 39.7285C115.341 39.3483 116.149 39.1582 117.221 39.1582C118.294 39.1582 119.06 39.403 119.518 39.8926C119.977 40.377 120.206 41.0697 120.206 41.9707V45.502C120.206 45.9342 120.261 46.2155 120.37 46.3457C120.479 46.4707 120.714 46.5332 121.073 46.5332L120.901 47.6582H120.604C120.083 47.6582 119.695 47.5592 119.44 47.3613C119.185 47.1582 118.99 46.8457 118.854 46.4238C118.422 47.0697 117.901 47.4759 117.292 47.6426C117 47.7259 116.675 47.7676 116.315 47.7676ZM117.05 43.9395C116.31 44.153 115.797 44.3665 115.511 44.5801C115.229 44.7936 115.089 45.0957 115.089 45.4863C115.089 45.8717 115.219 46.1634 115.479 46.3613C115.745 46.5592 116.063 46.6582 116.432 46.6582C116.807 46.6582 117.146 46.6113 117.448 46.5176C117.75 46.4186 118.021 46.2754 118.261 46.0879C118.505 45.8952 118.664 45.6764 118.737 45.4316V43.041C118.357 43.4212 117.794 43.7207 117.05 43.9395ZM125.721 46.6426C126.831 46.6426 127.386 46.2285 127.386 45.4004C127.386 45.041 127.336 44.7754 127.237 44.6035C127.138 44.4264 126.906 44.2702 126.542 44.1348L124.573 43.4082C123.969 43.1947 123.547 42.9421 123.307 42.6504C123.073 42.3535 122.956 41.9837 122.956 41.541C122.956 41.0983 123 40.7441 123.089 40.4785C123.177 40.2077 123.323 39.9707 123.526 39.7676C123.932 39.3613 124.662 39.1582 125.714 39.1582C126.766 39.1582 127.672 39.3092 128.432 39.6113L128.096 40.7363C127.831 40.627 127.482 40.5254 127.05 40.4316C126.617 40.3327 126.24 40.2832 125.917 40.2832C125.172 40.2832 124.701 40.403 124.503 40.6426C124.383 40.7936 124.323 41.015 124.323 41.3066C124.323 41.5983 124.37 41.8066 124.464 41.9316C124.563 42.0514 124.753 42.1608 125.034 42.2598L126.979 43.0254C127.656 43.291 128.102 43.5853 128.315 43.9082C128.529 44.2259 128.636 44.7285 128.636 45.416C128.636 46.1035 128.414 46.6686 127.971 47.1113C127.529 47.5488 126.844 47.7676 125.917 47.7676C125.24 47.7676 124.638 47.6947 124.112 47.5488C123.586 47.403 123.182 47.252 122.901 47.0957L123.261 46.0176C124.005 46.4342 124.826 46.6426 125.721 46.6426ZM134.823 47.6582C133.667 47.6582 132.831 47.4759 132.315 47.1113C131.805 46.7467 131.55 46.1191 131.55 45.2285V40.4238H130.167V39.3145H131.604L131.784 36.752H133.018V39.3145H135.096V40.4238H133.018V45.1348C133.018 45.6556 133.167 46.002 133.464 46.1738C133.766 46.3405 134.289 46.4238 135.034 46.4238H135.198L135.042 47.6582H134.823ZM138.729 45.2598C138.729 46.1816 139.383 46.6426 140.69 46.6426C141.998 46.6426 142.651 46.1816 142.651 45.2598V41.6738C142.651 40.7467 141.998 40.2832 140.69 40.2832C139.383 40.2832 138.729 40.7467 138.729 41.6738V45.2598ZM144.12 45.1348C144.12 45.9473 143.841 46.5905 143.284 47.0645C142.732 47.5332 141.865 47.7676 140.682 47.7676C139.5 47.7676 138.633 47.5332 138.081 47.0645C137.534 46.5957 137.261 45.9525 137.261 45.1348V41.7988C137.261 40.9811 137.534 40.3379 138.081 39.8691C138.633 39.3952 139.5 39.1582 140.682 39.1582C141.865 39.1582 142.732 39.3952 143.284 39.8691C143.841 40.3431 144.12 40.9863 144.12 41.7988V45.1348ZM145.526 50.3535L145.378 49.1348H145.604C146.136 49.1348 146.49 49.0645 146.667 48.9238C146.844 48.7884 146.958 48.6191 147.011 48.416C147.063 48.2181 147.089 47.9551 147.089 47.627V39.3145H148.557V47.541C148.557 48.9004 148.245 49.7415 147.62 50.0645C147.25 50.2572 146.724 50.3535 146.042 50.3535H145.526ZM147.089 37.8223V36.2988H148.557V37.8223H147.089ZM153.659 47.7676C152.82 47.7676 152.169 47.541 151.706 47.0879C151.242 46.6296 151.011 46.0618 151.011 45.3848C151.011 44.9993 151.091 44.679 151.253 44.4238C151.581 43.903 152.56 43.4056 154.19 42.9316C155.133 42.6712 155.675 42.4473 155.815 42.2598C155.961 42.0723 156.042 41.9264 156.057 41.8223C156.073 41.7129 156.081 41.541 156.081 41.3066C156.081 41.0723 155.985 40.8431 155.792 40.6191C155.604 40.3952 155.193 40.2832 154.557 40.2832C153.662 40.2832 153.112 40.4551 152.909 40.7988C152.805 40.9759 152.753 41.2155 152.753 41.5176V41.8848H151.339V41.5098C151.339 40.7025 151.607 40.1087 152.143 39.7285C152.685 39.3483 153.492 39.1582 154.565 39.1582C155.638 39.1582 156.404 39.403 156.862 39.8926C157.32 40.377 157.55 41.0697 157.55 41.9707V45.502C157.55 45.9342 157.604 46.2155 157.714 46.3457C157.823 46.4707 158.057 46.5332 158.417 46.5332L158.245 47.6582H157.948C157.427 47.6582 157.039 47.5592 156.784 47.3613C156.529 47.1582 156.333 46.8457 156.198 46.4238C155.766 47.0697 155.245 47.4759 154.636 47.6426C154.344 47.7259 154.018 47.7676 153.659 47.7676ZM154.393 43.9395C153.654 44.153 153.141 44.3665 152.854 44.5801C152.573 44.7936 152.432 45.0957 152.432 45.4863C152.432 45.8717 152.563 46.1634 152.823 46.3613C153.089 46.5592 153.406 46.6582 153.776 46.6582C154.151 46.6582 154.49 46.6113 154.792 46.5176C155.094 46.4186 155.365 46.2754 155.604 46.0879C155.849 45.8952 156.008 45.6764 156.081 45.4316V43.041C155.701 43.4212 155.138 43.7207 154.393 43.9395ZM165.87 41.4941C165.87 40.6868 165.253 40.2832 164.018 40.2832C163.409 40.2832 162.93 40.4134 162.581 40.6738C162.232 40.9342 162.057 41.2754 162.057 41.6973V47.5957H160.589V39.3145H162.057V40.1191C162.61 39.4785 163.427 39.1582 164.511 39.1582C165.917 39.1582 166.807 39.653 167.182 40.6426C167.287 40.9238 167.339 41.2363 167.339 41.5801V47.5957H165.87V41.4941ZM168.964 50.3535L168.815 49.1348H169.042C169.573 49.1348 169.927 49.0645 170.104 48.9238C170.281 48.7884 170.396 48.6191 170.448 48.416C170.5 48.2181 170.526 47.9551 170.526 47.627V39.3145H171.995V47.541C171.995 48.9004 171.682 49.7415 171.057 50.0645C170.688 50.2572 170.162 50.3535 169.479 50.3535H168.964ZM170.526 37.8223V36.2988H171.995V37.8223H170.526ZM178.018 47.7676C176.805 47.7676 175.927 47.515 175.386 47.0098C174.844 46.5046 174.573 45.7259 174.573 44.6738V41.791C174.573 40.9733 174.852 40.3301 175.409 39.8613C175.966 39.3926 176.807 39.1582 177.932 39.1582C179.063 39.1582 179.901 39.377 180.448 39.8145C181 40.2467 181.276 40.8665 181.276 41.6738V43.6426H176.042V44.8066C176.042 45.4941 176.18 45.9733 176.456 46.2441C176.732 46.5098 177.229 46.6426 177.948 46.6426C178.667 46.6426 179.073 46.627 179.167 46.5957C179.261 46.5645 179.357 46.528 179.456 46.4863C179.555 46.4447 179.623 46.3952 179.659 46.3379C179.701 46.2806 179.753 46.1947 179.815 46.0801C179.883 45.9603 179.932 45.7311 179.964 45.3926H181.261C181.208 45.8874 181.12 46.2858 180.995 46.5879C180.875 46.89 180.682 47.1322 180.417 47.3145C180.156 47.4915 179.841 47.6113 179.471 47.6738C179.107 47.7363 178.623 47.7676 178.018 47.7676ZM176.042 42.6504H179.854V41.5176C179.854 41.0488 179.693 40.7259 179.37 40.5488C179.052 40.3717 178.583 40.2832 177.964 40.2832C177.344 40.2832 176.867 40.39 176.534 40.6035C176.206 40.8171 176.042 41.1686 176.042 41.6582V42.6504ZM187.495 48.7676C186.781 48.7676 186.133 48.666 185.55 48.4629C185.19 48.3379 184.823 48.0592 184.448 47.627C184.261 47.4134 184.11 47.0723 183.995 46.6035C183.88 46.1296 183.82 45.6895 183.815 45.2832C183.81 44.877 183.807 44.502 183.807 44.1582V40.1035C183.807 39.0514 183.833 38.4004 183.886 38.1504C183.938 37.8952 183.992 37.6478 184.05 37.4082C184.107 37.1634 184.182 36.9707 184.276 36.8301C184.37 36.6842 184.482 36.5228 184.612 36.3457C184.742 36.1634 184.899 36.0228 185.081 35.9238C185.263 35.8197 185.518 35.6999 185.846 35.5645C186.18 35.4238 186.729 35.3535 187.495 35.3535V36.5332C186.578 36.5332 185.987 36.7572 185.721 37.2051C185.617 37.3822 185.521 37.5775 185.432 37.791C185.349 38.0046 185.307 38.679 185.307 39.8145V44.4004C185.307 45.5202 185.349 46.1842 185.432 46.3926C185.641 46.8978 185.867 47.2077 186.112 47.3223C186.503 47.5046 186.964 47.5957 187.495 47.5957V48.7676ZM188.964 47.5957L191.909 43.4316L189.011 39.3145H190.487L192.643 42.3926L194.823 39.3145H196.237L193.354 43.416L196.276 47.5957H194.846L192.636 44.4473L190.425 47.5957H188.964ZM198.878 50.2363L198.245 49.8926C198.755 49.278 199.078 48.752 199.214 48.3145C199.287 48.0749 199.32 47.8353 199.315 47.5957H198.214V45.7754H200.221V47.2051C200.221 48.1061 199.909 48.9655 199.284 49.7832C199.149 49.9603 199.013 50.1113 198.878 50.2363ZM207.276 50.7676V49.6191C207.922 49.6191 208.443 49.4603 208.839 49.1426C209.24 48.8249 209.539 48.2988 209.737 47.5645L206.323 39.3145H207.878L210.409 45.9082L212.526 39.3145H214.011L211.292 47.2441C210.932 48.291 210.607 49.015 210.315 49.416C210.029 49.8223 209.753 50.1061 209.487 50.2676C208.94 50.6009 208.203 50.7676 207.276 50.7676ZM215.432 48.7676V47.5879C216.349 47.5931 216.94 47.3717 217.206 46.9238C217.31 46.7467 217.404 46.5514 217.487 46.3379C217.576 46.1191 217.62 45.4421 217.62 44.3066V39.7207C217.62 38.6009 217.578 37.9368 217.495 37.7285C217.287 37.2233 217.06 36.9134 216.815 36.7988C216.425 36.6165 215.964 36.5254 215.432 36.5254V35.3535C216.146 35.3535 216.794 35.4551 217.378 35.6582C217.737 35.7832 218.104 36.0618 218.479 36.4941C218.667 36.7077 218.818 37.0514 218.932 37.5254C219.047 37.9941 219.107 38.4316 219.112 38.8379C219.117 39.2441 219.12 39.6191 219.12 39.9629V44.0176C219.12 45.0697 219.094 45.7233 219.042 45.9785C218.99 46.2285 218.935 46.4759 218.878 46.7207C218.82 46.9603 218.745 47.153 218.651 47.2988C218.557 47.4395 218.445 47.5983 218.315 47.7754C218.185 47.9577 218.029 48.0983 217.846 48.1973C217.664 48.3014 217.406 48.4212 217.073 48.5566C216.745 48.6973 216.198 48.7676 215.432 48.7676Z" fill="#C9D1D9"/>
<path d="M256.51 41.4785C256.51 40.6816 255.896 40.2832 254.667 40.2832C254.052 40.2832 253.57 40.4108 253.221 40.666C252.872 40.9212 252.698 41.2572 252.698 41.6738V47.5957H251.229V35.8379H252.698V40.0957C253.234 39.4707 254.057 39.1582 255.167 39.1582C256.573 39.1582 257.458 39.6478 257.823 40.627C257.927 40.9082 257.979 41.2181 257.979 41.5566V47.5957H256.51V41.4785ZM263.034 47.7676C262.195 47.7676 261.544 47.541 261.081 47.0879C260.617 46.6296 260.385 46.0618 260.385 45.3848C260.385 44.9993 260.466 44.679 260.627 44.4238C260.956 43.903 261.935 43.4056 263.565 42.9316C264.508 42.6712 265.049 42.4473 265.19 42.2598C265.336 42.0723 265.417 41.9264 265.432 41.8223C265.448 41.7129 265.456 41.541 265.456 41.3066C265.456 41.0723 265.359 40.8431 265.167 40.6191C264.979 40.3952 264.568 40.2832 263.932 40.2832C263.036 40.2832 262.487 40.4551 262.284 40.7988C262.18 40.9759 262.127 41.2155 262.127 41.5176V41.8848H260.713V41.5098C260.713 40.7025 260.982 40.1087 261.518 39.7285C262.06 39.3483 262.867 39.1582 263.94 39.1582C265.013 39.1582 265.779 39.403 266.237 39.8926C266.695 40.377 266.924 41.0697 266.924 41.9707V45.502C266.924 45.9342 266.979 46.2155 267.088 46.3457C267.198 46.4707 267.432 46.5332 267.792 46.5332L267.62 47.6582H267.323C266.802 47.6582 266.414 47.5592 266.159 47.3613C265.904 47.1582 265.708 46.8457 265.573 46.4238C265.14 47.0697 264.62 47.4759 264.01 47.6426C263.719 47.7259 263.393 47.7676 263.034 47.7676ZM263.768 43.9395C263.029 44.153 262.515 44.3665 262.229 44.5801C261.948 44.7936 261.807 45.0957 261.807 45.4863C261.807 45.8717 261.937 46.1634 262.198 46.3613C262.463 46.5592 262.781 46.6582 263.151 46.6582C263.526 46.6582 263.864 46.6113 264.167 46.5176C264.469 46.4186 264.739 46.2754 264.979 46.0879C265.224 45.8952 265.383 45.6764 265.456 45.4316V43.041C265.075 43.4212 264.513 43.7207 263.768 43.9395ZM275.104 41.4941C275.104 40.6868 274.508 40.2832 273.315 40.2832C272.711 40.2832 272.245 40.4134 271.917 40.6738C271.594 40.929 271.432 41.2702 271.432 41.6973V47.5957H269.963V39.3145H271.432V40.1191C271.984 39.4785 272.812 39.1582 273.917 39.1582C275.026 39.1582 275.799 39.5202 276.237 40.2441L276.432 40.0566C277.031 39.4577 277.87 39.1582 278.948 39.1582C280.338 39.1582 281.198 39.653 281.526 40.6426C281.62 40.9238 281.667 41.2363 281.667 41.5801V47.5957H280.198V41.4941C280.198 40.6868 279.656 40.2832 278.573 40.2832C277.89 40.2832 277.385 40.4134 277.057 40.6738C276.734 40.929 276.573 41.2702 276.573 41.6973V47.5957H275.104V41.4941ZM284.651 47.5957V39.3145H286.12V47.5957H284.651ZM284.651 37.8223V36.2988H286.12V37.8223H284.651ZM294.432 41.4941C294.432 40.6868 293.815 40.2832 292.581 40.2832C291.971 40.2832 291.492 40.4134 291.143 40.6738C290.794 40.9342 290.62 41.2754 290.62 41.6973V47.5957H289.151V39.3145H290.62V40.1191C291.172 39.4785 291.989 39.1582 293.073 39.1582C294.479 39.1582 295.37 39.653 295.745 40.6426C295.849 40.9238 295.901 41.2363 295.901 41.5801V47.5957H294.432V41.4941ZM299.581 49.3691C300.122 49.5671 300.786 49.666 301.573 49.666C302.359 49.666 302.909 49.5176 303.221 49.2207C303.539 48.9238 303.698 48.4629 303.698 47.8379V46.6895C303.484 46.8874 303.164 47.0358 302.737 47.1348C302.315 47.2337 301.927 47.2832 301.573 47.2832C299.479 47.2832 298.432 46.4004 298.432 44.6348V41.9082C298.432 41.0488 298.693 40.377 299.213 39.8926C299.739 39.403 300.526 39.1582 301.573 39.1582C301.989 39.1582 302.417 39.2467 302.854 39.4238C303.297 39.5957 303.578 39.7806 303.698 39.9785V39.3145H305.167V47.4004C305.167 48.3952 304.904 49.2077 304.377 49.8379C303.857 50.4681 303.013 50.7832 301.846 50.7832C300.68 50.7832 299.815 50.679 299.252 50.4707L299.581 49.3691ZM303.698 41.4238C303.698 40.6634 303.065 40.2832 301.799 40.2832C300.534 40.2832 299.901 40.7728 299.901 41.752V44.8613C299.901 45.7259 300.534 46.1582 301.799 46.1582C302.544 46.1582 303.177 45.9499 303.698 45.5332V41.4238ZM309.167 45.2598C309.167 46.1816 309.82 46.6426 311.127 46.6426C312.435 46.6426 313.088 46.1816 313.088 45.2598V41.6738C313.088 40.7467 312.435 40.2832 311.127 40.2832C309.82 40.2832 309.167 40.7467 309.167 41.6738V45.2598ZM314.557 45.1348C314.557 45.9473 314.279 46.5905 313.721 47.0645C313.169 47.5332 312.302 47.7676 311.12 47.7676C309.937 47.7676 309.07 47.5332 308.518 47.0645C307.971 46.5957 307.698 45.9525 307.698 45.1348V41.7988C307.698 40.9811 307.971 40.3379 308.518 39.8691C309.07 39.3952 309.937 39.1582 311.12 39.1582C312.302 39.1582 313.169 39.3952 313.721 39.8691C314.279 40.3431 314.557 40.9863 314.557 41.7988V45.1348ZM319.393 47.5957L316.182 39.3145H317.659L320.151 46.0332L322.37 39.3145H323.807L320.877 47.5957H319.393ZM326.932 45.2598C326.932 46.1816 327.586 46.6426 328.893 46.6426C330.2 46.6426 330.854 46.1816 330.854 45.2598V41.6738C330.854 40.7467 330.2 40.2832 328.893 40.2832C327.586 40.2832 326.932 40.7467 326.932 41.6738V45.2598ZM332.323 45.1348C332.323 45.9473 332.044 46.5905 331.487 47.0645C330.935 47.5332 330.068 47.7676 328.885 47.7676C327.703 47.7676 326.836 47.5332 326.284 47.0645C325.737 46.5957 325.463 45.9525 325.463 45.1348V41.7988C325.463 40.9811 325.737 40.3379 326.284 39.8691C326.836 39.3952 327.703 39.1582 328.885 39.1582C330.068 39.1582 330.935 39.3952 331.487 39.8691C332.044 40.3431 332.323 40.9863 332.323 41.7988V45.1348ZM335.182 47.5957V36.2988H340.221C341.779 36.2988 342.755 36.8874 343.151 38.0645C343.297 38.502 343.37 39.0228 343.37 39.627C343.375 40.2259 343.307 40.7311 343.167 41.1426C343.026 41.5488 342.844 41.8639 342.62 42.0879C342.401 42.3066 342.122 42.4863 341.784 42.627L344.182 47.5957H342.565L340.323 42.9082L336.76 42.916V47.5957H335.182ZM336.76 41.7207H340.088C340.755 41.7207 341.206 41.541 341.44 41.1816C341.68 40.8223 341.799 40.3145 341.799 39.6582C341.794 38.4811 341.484 37.7884 340.87 37.5801C340.693 37.5176 340.492 37.4889 340.268 37.4941H336.76V41.7207ZM348.596 47.7676C347.758 47.7676 347.107 47.541 346.643 47.0879C346.18 46.6296 345.948 46.0618 345.948 45.3848C345.948 44.9993 346.029 44.679 346.19 44.4238C346.518 43.903 347.497 43.4056 349.127 42.9316C350.07 42.6712 350.612 42.4473 350.752 42.2598C350.898 42.0723 350.979 41.9264 350.995 41.8223C351.01 41.7129 351.018 41.541 351.018 41.3066C351.018 41.0723 350.922 40.8431 350.729 40.6191C350.542 40.3952 350.13 40.2832 349.495 40.2832C348.599 40.2832 348.049 40.4551 347.846 40.7988C347.742 40.9759 347.69 41.2155 347.69 41.5176V41.8848H346.276V41.5098C346.276 40.7025 346.544 40.1087 347.081 39.7285C347.622 39.3483 348.43 39.1582 349.502 39.1582C350.575 39.1582 351.341 39.403 351.799 39.8926C352.258 40.377 352.487 41.0697 352.487 41.9707V45.502C352.487 45.9342 352.542 46.2155 352.651 46.3457C352.76 46.4707 352.995 46.5332 353.354 46.5332L353.182 47.6582H352.885C352.364 47.6582 351.976 47.5592 351.721 47.3613C351.466 47.1582 351.271 46.8457 351.135 46.4238C350.703 47.0697 350.182 47.4759 349.573 47.6426C349.281 47.7259 348.956 47.7676 348.596 47.7676ZM349.331 43.9395C348.591 44.153 348.078 44.3665 347.792 44.5801C347.51 44.7936 347.37 45.0957 347.37 45.4863C347.37 45.8717 347.5 46.1634 347.76 46.3613C348.026 46.5592 348.344 46.6582 348.713 46.6582C349.088 46.6582 349.427 46.6113 349.729 46.5176C350.031 46.4186 350.302 46.2754 350.542 46.0879C350.786 45.8952 350.945 45.6764 351.018 45.4316V43.041C350.638 43.4212 350.075 43.7207 349.331 43.9395ZM358.002 46.6426C359.112 46.6426 359.667 46.2285 359.667 45.4004C359.667 45.041 359.617 44.7754 359.518 44.6035C359.419 44.4264 359.187 44.2702 358.823 44.1348L356.854 43.4082C356.25 43.1947 355.828 42.9421 355.588 42.6504C355.354 42.3535 355.237 41.9837 355.237 41.541C355.237 41.0983 355.281 40.7441 355.37 40.4785C355.458 40.2077 355.604 39.9707 355.807 39.7676C356.213 39.3613 356.943 39.1582 357.995 39.1582C359.047 39.1582 359.953 39.3092 360.713 39.6113L360.377 40.7363C360.112 40.627 359.763 40.5254 359.331 40.4316C358.898 40.3327 358.521 40.2832 358.198 40.2832C357.453 40.2832 356.982 40.403 356.784 40.6426C356.664 40.7936 356.604 41.015 356.604 41.3066C356.604 41.5983 356.651 41.8066 356.745 41.9316C356.844 42.0514 357.034 42.1608 357.315 42.2598L359.26 43.0254C359.937 43.291 360.383 43.5853 360.596 43.9082C360.81 44.2259 360.917 44.7285 360.917 45.416C360.917 46.1035 360.695 46.6686 360.252 47.1113C359.81 47.5488 359.125 47.7676 358.198 47.7676C357.521 47.7676 356.919 47.6947 356.393 47.5488C355.867 47.403 355.463 47.252 355.182 47.0957L355.542 46.0176C356.286 46.4342 357.107 46.6426 358.002 46.6426ZM367.104 47.6582C365.948 47.6582 365.112 47.4759 364.596 47.1113C364.086 46.7467 363.831 46.1191 363.831 45.2285V40.4238H362.448V39.3145H363.885L364.065 36.752H365.299V39.3145H367.377V40.4238H365.299V45.1348C365.299 45.6556 365.448 46.002 365.745 46.1738C366.047 46.3405 366.57 46.4238 367.315 46.4238H367.479L367.323 47.6582H367.104ZM371.01 45.2598C371.01 46.1816 371.664 46.6426 372.971 46.6426C374.279 46.6426 374.932 46.1816 374.932 45.2598V41.6738C374.932 40.7467 374.279 40.2832 372.971 40.2832C371.664 40.2832 371.01 40.7467 371.01 41.6738V45.2598ZM376.401 45.1348C376.401 45.9473 376.122 46.5905 375.565 47.0645C375.013 47.5332 374.146 47.7676 372.963 47.7676C371.781 47.7676 370.914 47.5332 370.362 47.0645C369.815 46.5957 369.542 45.9525 369.542 45.1348V41.7988C369.542 40.9811 369.815 40.3379 370.362 39.8691C370.914 39.3952 371.781 39.1582 372.963 39.1582C374.146 39.1582 375.013 39.3952 375.565 39.8691C376.122 40.3431 376.401 40.9863 376.401 41.7988V45.1348ZM377.807 50.3535L377.659 49.1348H377.885C378.417 49.1348 378.771 49.0645 378.948 48.9238C379.125 48.7884 379.239 48.6191 379.292 48.416C379.344 48.2181 379.37 47.9551 379.37 47.627V39.3145H380.838V47.541C380.838 48.9004 380.526 49.7415 379.901 50.0645C379.531 50.2572 379.005 50.3535 378.323 50.3535H377.807ZM379.37 37.8223V36.2988H380.838V37.8223H379.37ZM385.94 47.7676C385.101 47.7676 384.45 47.541 383.987 47.0879C383.523 46.6296 383.292 46.0618 383.292 45.3848C383.292 44.9993 383.372 44.679 383.534 44.4238C383.862 43.903 384.841 43.4056 386.471 42.9316C387.414 42.6712 387.956 42.4473 388.096 42.2598C388.242 42.0723 388.323 41.9264 388.338 41.8223C388.354 41.7129 388.362 41.541 388.362 41.3066C388.362 41.0723 388.265 40.8431 388.073 40.6191C387.885 40.3952 387.474 40.2832 386.838 40.2832C385.943 40.2832 385.393 40.4551 385.19 40.7988C385.086 40.9759 385.034 41.2155 385.034 41.5176V41.8848H383.62V41.5098C383.62 40.7025 383.888 40.1087 384.424 39.7285C384.966 39.3483 385.773 39.1582 386.846 39.1582C387.919 39.1582 388.685 39.403 389.143 39.8926C389.601 40.377 389.831 41.0697 389.831 41.9707V45.502C389.831 45.9342 389.885 46.2155 389.995 46.3457C390.104 46.4707 390.338 46.5332 390.698 46.5332L390.526 47.6582H390.229C389.708 47.6582 389.32 47.5592 389.065 47.3613C388.81 47.1582 388.614 46.8457 388.479 46.4238C388.047 47.0697 387.526 47.4759 386.917 47.6426C386.625 47.7259 386.299 47.7676 385.94 47.7676ZM386.674 43.9395C385.935 44.153 385.422 44.3665 385.135 44.5801C384.854 44.7936 384.713 45.0957 384.713 45.4863C384.713 45.8717 384.844 46.1634 385.104 46.3613C385.37 46.5592 385.687 46.6582 386.057 46.6582C386.432 46.6582 386.771 46.6113 387.073 46.5176C387.375 46.4186 387.646 46.2754 387.885 46.0879C388.13 45.8952 388.289 45.6764 388.362 45.4316V43.041C387.982 43.4212 387.419 43.7207 386.674 43.9395ZM398.151 41.4941C398.151 40.6868 397.534 40.2832 396.299 40.2832C395.69 40.2832 395.211 40.4134 394.862 40.6738C394.513 40.9342 394.338 41.2754 394.338 41.6973V47.5957H392.87V39.3145H394.338V40.1191C394.89 39.4785 395.708 39.1582 396.792 39.1582C398.198 39.1582 399.088 39.653 399.463 40.6426C399.568 40.9238 399.62 41.2363 399.62 41.5801V47.5957H398.151V41.4941ZM401.245 50.3535L401.096 49.1348H401.323C401.854 49.1348 402.208 49.0645 402.385 48.9238C402.562 48.7884 402.677 48.6191 402.729 48.416C402.781 48.2181 402.807 47.9551 402.807 47.627V39.3145H404.276V47.541C404.276 48.9004 403.963 49.7415 403.338 50.0645C402.969 50.2572 402.443 50.3535 401.76 50.3535H401.245ZM402.807 37.8223V36.2988H404.276V37.8223H402.807ZM410.299 47.7676C409.086 47.7676 408.208 47.515 407.667 47.0098C407.125 46.5046 406.854 45.7259 406.854 44.6738V41.791C406.854 40.9733 407.133 40.3301 407.69 39.8613C408.247 39.3926 409.088 39.1582 410.213 39.1582C411.344 39.1582 412.182 39.377 412.729 39.8145C413.281 40.2467 413.557 40.8665 413.557 41.6738V43.6426H408.323V44.8066C408.323 45.4941 408.461 45.9733 408.737 46.2441C409.013 46.5098 409.51 46.6426 410.229 46.6426C410.948 46.6426 411.354 46.627 411.448 46.5957C411.542 46.5645 411.638 46.528 411.737 46.4863C411.836 46.4447 411.904 46.3952 411.94 46.3379C411.982 46.2806 412.034 46.1947 412.096 46.0801C412.164 45.9603 412.213 45.7311 412.245 45.3926H413.542C413.489 45.8874 413.401 46.2858 413.276 46.5879C413.156 46.89 412.963 47.1322 412.698 47.3145C412.437 47.4915 412.122 47.6113 411.752 47.6738C411.388 47.7363 410.904 47.7676 410.299 47.7676ZM408.323 42.6504H412.135V41.5176C412.135 41.0488 411.974 40.7259 411.651 40.5488C411.333 40.3717 410.864 40.2832 410.245 40.2832C409.625 40.2832 409.148 40.39 408.815 40.6035C408.487 40.8171 408.323 41.1686 408.323 41.6582V42.6504ZM419.776 48.7676C419.062 48.7676 418.414 48.666 417.831 48.4629C417.471 48.3379 417.104 48.0592 416.729 47.627C416.542 47.4134 416.39 47.0723 416.276 46.6035C416.161 46.1296 416.101 45.6895 416.096 45.2832C416.091 44.877 416.088 44.502 416.088 44.1582V40.1035C416.088 39.0514 416.114 38.4004 416.167 38.1504C416.219 37.8952 416.273 37.6478 416.331 37.4082C416.388 37.1634 416.463 36.9707 416.557 36.8301C416.651 36.6842 416.763 36.5228 416.893 36.3457C417.023 36.1634 417.18 36.0228 417.362 35.9238C417.544 35.8197 417.799 35.6999 418.127 35.5645C418.461 35.4238 419.01 35.3535 419.776 35.3535V36.5332C418.859 36.5332 418.268 36.7572 418.002 37.2051C417.898 37.3822 417.802 37.5775 417.713 37.791C417.63 38.0046 417.588 38.679 417.588 39.8145V44.4004C417.588 45.5202 417.63 46.1842 417.713 46.3926C417.922 46.8978 418.148 47.2077 418.393 47.3223C418.784 47.5046 419.245 47.5957 419.776 47.5957V48.7676ZM421.245 47.5957L424.19 43.4316L421.292 39.3145H422.768L424.924 42.3926L427.104 39.3145H428.518L425.635 43.416L428.557 47.5957H427.127L424.917 44.4473L422.706 47.5957H421.245ZM431.159 50.2363L430.526 49.8926C431.036 49.278 431.359 48.752 431.495 48.3145C431.568 48.0749 431.601 47.8353 431.596 47.5957H430.495V45.7754H432.502V47.2051C432.502 48.1061 432.19 48.9655 431.565 49.7832C431.43 49.9603 431.294 50.1113 431.159 50.2363ZM439.557 50.7676V49.6191C440.203 49.6191 440.724 49.4603 441.12 49.1426C441.521 48.8249 441.82 48.2988 442.018 47.5645L438.604 39.3145H440.159L442.69 45.9082L444.807 39.3145H446.292L443.573 47.2441C443.213 48.291 442.888 49.015 442.596 49.416C442.31 49.8223 442.034 50.1061 441.768 50.2676C441.221 50.6009 440.484 50.7676 439.557 50.7676ZM447.713 48.7676V47.5879C448.63 47.5931 449.221 47.3717 449.487 46.9238C449.591 46.7467 449.685 46.5514 449.768 46.3379C449.857 46.1191 449.901 45.4421 449.901 44.3066V39.7207C449.901 38.6009 449.859 37.9368 449.776 37.7285C449.568 37.2233 449.341 36.9134 449.096 36.7988C448.706 36.6165 448.245 36.5254 447.713 36.5254V35.3535C448.427 35.3535 449.075 35.4551 449.659 35.6582C450.018 35.7832 450.385 36.0618 450.76 36.4941C450.948 36.7077 451.099 37.0514 451.213 37.5254C451.328 37.9941 451.388 38.4316 451.393 38.8379C451.398 39.2441 451.401 39.6191 451.401 39.9629V44.0176C451.401 45.0697 451.375 45.7233 451.323 45.9785C451.271 46.2285 451.216 46.4759 451.159 46.7207C451.101 46.9603 451.026 47.153 450.932 47.2988C450.838 47.4395 450.726 47.5983 450.596 47.7754C450.466 47.9577 450.31 48.0983 450.127 48.1973C449.945 48.3014 449.687 48.4212 449.354 48.5566C449.026 48.6973 448.479 48.7676 447.713 48.7676Z" fill="#C9D1D9"/>
<path d="M239.015 46.2341L232.093 42.5544V40.9841L239.015 37.2966V38.8826L233.304 41.7576L239.015 44.6013V46.2341Z" fill="#C9D1D9"/>
<path d="M232.224 46.2979L238.975 49.7021" stroke="#C9D1D9"/>
</svg>
