<svg width="607" height="68" viewBox="0 0 607 68" fill="none" xmlns="http://www.w3.org/2000/svg">
<path d="M1.80469 19L1.65625 17.7656L5.46875 13.6172C6.16146 12.8672 6.55469 12.4062 6.64844 12.2344C6.7474 12.0573 6.84115 11.8646 6.92969 11.6562C7.02344 11.4479 7.07031 11.1432 7.07031 10.7422C7.07031 10.0286 6.91927 9.52604 6.61719 9.23438C6.3151 8.94271 5.8125 8.79688 5.10938 8.79688C4.67188 8.79688 4.32031 8.82552 4.05469 8.88281C3.78906 8.9401 3.5599 9.04948 3.36719 9.21094C3.02344 9.4974 2.85156 10.0938 2.85156 11H1.28125C1.28125 8.6875 2.51823 7.53125 4.99219 7.53125C6.17969 7.53125 7.07031 7.83333 7.66406 8.4375C8.25781 9.03646 8.55469 9.76562 8.55469 10.625C8.55469 11.4844 8.39844 12.1562 8.08594 12.6406C7.77865 13.125 7.46094 13.5391 7.13281 13.8828C6.80469 14.2214 6.61979 14.4141 6.57812 14.4609L3.44531 17.7812H8.49219V19H1.80469ZM11.2188 19V17.1094H13.2188V19H11.2188ZM20.375 19V7.70312H21.5703L28.0391 16.7344V7.70312H29.4219V19H28.0234L21.7578 10.375V19H20.375ZM35.7266 19.1719C34.513 19.1719 33.6354 18.9193 33.0938 18.4141C32.5521 17.9089 32.2812 17.1302 32.2812 16.0781V13.1953C32.2812 12.3776 32.5599 11.7344 33.1172 11.2656C33.6745 10.7969 34.5156 10.5625 35.6406 10.5625C36.7708 10.5625 37.6094 10.7812 38.1562 11.2188C38.7083 11.651 38.9844 12.2708 38.9844 13.0781V15.0469H33.75V16.2109C33.75 16.8984 33.888 17.3776 34.1641 17.6484C34.4401 17.9141 34.9375 18.0469 35.6562 18.0469C36.375 18.0469 36.7812 18.0312 36.875 18C36.9688 17.9688 37.0651 17.9323 37.1641 17.8906C37.263 17.849 37.3307 17.7995 37.3672 17.7422C37.4089 17.6849 37.4609 17.599 37.5234 17.4844C37.5911 17.3646 37.6406 17.1354 37.6719 16.7969H38.9688C38.9167 17.2917 38.8281 17.6901 38.7031 17.9922C38.5833 18.2943 38.3906 18.5365 38.125 18.7188C37.8646 18.8958 37.5495 19.0156 37.1797 19.0781C36.8151 19.1406 36.3307 19.1719 35.7266 19.1719ZM33.75 14.0547H37.5625V12.9219C37.5625 12.4531 37.401 12.1302 37.0781 11.9531C36.7604 11.776 36.2917 11.6875 35.6719 11.6875C35.0521 11.6875 34.5755 11.7943 34.2422 12.0078C33.9141 12.2214 33.75 12.5729 33.75 13.0625V14.0547ZM41.625 19V7.23438H43.0938V14.9062L47.0547 10.7188H48.6641L45.2969 14.3594L49 19H47.3047L44.3359 15.1562L43.0938 16.3906V19H41.625ZM52.8516 19.1719C52.013 19.1719 51.362 18.9453 50.8984 18.4922C50.4349 18.0339 50.2031 17.4661 50.2031 16.7891C50.2031 16.4036 50.2839 16.0833 50.4453 15.8281C50.7734 15.3073 51.7526 14.8099 53.3828 14.3359C54.3255 14.0755 54.8672 13.8516 55.0078 13.6641C55.1536 13.4766 55.2344 13.3307 55.25 13.2266C55.2656 13.1172 55.2734 12.9453 55.2734 12.7109C55.2734 12.4766 55.1771 12.2474 54.9844 12.0234C54.7969 11.7995 54.3854 11.6875 53.75 11.6875C52.8542 11.6875 52.3047 11.8594 52.1016 12.2031C51.9974 12.3802 51.9453 12.6198 51.9453 12.9219V13.2891H50.5312V12.9141C50.5312 12.1068 50.7995 11.513 51.3359 11.1328C51.8776 10.7526 52.6849 10.5625 53.7578 10.5625C54.8307 10.5625 55.5964 10.8073 56.0547 11.2969C56.513 11.7812 56.7422 12.474 56.7422 13.375V16.9062C56.7422 17.3385 56.7969 17.6198 56.9062 17.75C57.0156 17.875 57.25 17.9375 57.6094 17.9375L57.4375 19.0625H57.1406C56.6198 19.0625 56.2318 18.9635 55.9766 18.7656C55.7214 18.5625 55.526 18.25 55.3906 17.8281C54.9583 18.474 54.4375 18.8802 53.8281 19.0469C53.5365 19.1302 53.2109 19.1719 52.8516 19.1719ZM53.5859 15.3438C52.8464 15.5573 52.3333 15.7708 52.0469 15.9844C51.7656 16.1979 51.625 16.5 51.625 16.8906C51.625 17.276 51.7552 17.5677 52.0156 17.7656C52.2812 17.9635 52.599 18.0625 52.9688 18.0625C53.3438 18.0625 53.6823 18.0156 53.9844 17.9219C54.2865 17.8229 54.5573 17.6797 54.7969 17.4922C55.0417 17.2995 55.2005 17.0807 55.2734 16.8359V14.4453C54.8932 14.8255 54.3307 15.125 53.5859 15.3438ZM66.2578 18.0469C67.3672 18.0469 67.9219 17.6328 67.9219 16.8047C67.9219 16.4453 67.8724 16.1797 67.7734 16.0078C67.6745 15.8307 67.4427 15.6745 67.0781 15.5391L65.1094 14.8125C64.5052 14.599 64.0833 14.3464 63.8438 14.0547C63.6094 13.7578 63.4922 13.388 63.4922 12.9453C63.4922 12.5026 63.5365 12.1484 63.625 11.8828C63.7135 11.612 63.8594 11.375 64.0625 11.1719C64.4688 10.7656 65.1979 10.5625 66.25 10.5625C67.3021 10.5625 68.2083 10.7135 68.9688 11.0156L68.6328 12.1406C68.3672 12.0312 68.0182 11.9297 67.5859 11.8359C67.1536 11.737 66.776 11.6875 66.4531 11.6875C65.7083 11.6875 65.237 11.8073 65.0391 12.0469C64.9193 12.1979 64.8594 12.4193 64.8594 12.7109C64.8594 13.0026 64.9062 13.2109 65 13.3359C65.099 13.4557 65.2891 13.5651 65.5703 13.6641L67.5156 14.4297C68.1927 14.6953 68.638 14.9896 68.8516 15.3125C69.0651 15.6302 69.1719 16.1328 69.1719 16.8203C69.1719 17.5078 68.9505 18.0729 68.5078 18.5156C68.0651 18.9531 67.3802 19.1719 66.4531 19.1719C65.776 19.1719 65.1745 19.099 64.6484 18.9531C64.1224 18.8073 63.7188 18.6562 63.4375 18.5L63.7969 17.4219C64.5417 17.8385 65.362 18.0469 66.2578 18.0469ZM74.3047 19.1719C72.8932 19.1719 71.9974 18.6719 71.6172 17.6719C71.5078 17.3854 71.4531 17.0729 71.4531 16.7344V10.7188H72.9219V16.7422C72.9219 17.1484 73.0703 17.4688 73.3672 17.7031C73.6693 17.9323 74.1172 18.0469 74.7109 18.0469C75.3047 18.0469 75.7865 17.901 76.1562 17.6094C76.5312 17.3125 76.7188 16.9714 76.7188 16.5859V10.7188H78.1875V19H76.875L76.7188 17.9609C76.2604 18.7682 75.4557 19.1719 74.3047 19.1719ZM84.1406 19L87.0859 14.8359L84.1875 10.7188H85.6641L87.8203 13.7969L90 10.7188H91.4141L88.5312 14.8203L91.4531 19H90.0234L87.8125 15.8516L85.6016 19H84.1406ZM97.5 19V10.7188H98.9688V19H97.5ZM97.5 9.22656V7.70312H98.9688V9.22656H97.5ZM106.094 22.1719V21.0234C106.74 21.0234 107.26 20.8646 107.656 20.5469C108.057 20.2292 108.357 19.7031 108.555 18.9688L105.141 10.7188H106.695L109.227 17.3125L111.344 10.7188H112.828L110.109 18.6484C109.75 19.6953 109.424 20.4193 109.133 20.8203C108.846 21.2266 108.57 21.5104 108.305 21.6719C107.758 22.0052 107.021 22.1719 106.094 22.1719ZM121.898 10.5625C122.565 10.5625 123.177 10.6667 123.734 10.875V7.23438H125.203V19H124.203L123.961 18.4531C123.706 18.651 123.37 18.8203 122.953 18.9609C122.536 19.1016 122.125 19.1719 121.719 19.1719C120.589 19.1719 119.758 18.9219 119.227 18.4219C118.701 17.9167 118.438 17.237 118.438 16.3828V13.2578C118.438 12.3984 118.721 11.7344 119.289 11.2656C119.857 10.7969 120.727 10.5625 121.898 10.5625ZM119.906 16.4922C119.906 16.987 120.081 17.3646 120.43 17.625C120.784 17.8854 121.198 18.0156 121.672 18.0156C122.516 18.0156 123.203 17.8516 123.734 17.5234V12.0312C123.26 11.8021 122.685 11.6875 122.008 11.6875C120.607 11.6875 119.906 12.1562 119.906 13.0938V16.4922ZM130.367 19L127.156 10.7188H128.633L131.125 17.4375L133.344 10.7188H134.781L131.852 19H130.367ZM139.883 19.1719C138.669 19.1719 137.792 18.9193 137.25 18.4141C136.708 17.9089 136.438 17.1302 136.438 16.0781V13.1953C136.438 12.3776 136.716 11.7344 137.273 11.2656C137.831 10.7969 138.672 10.5625 139.797 10.5625C140.927 10.5625 141.766 10.7812 142.312 11.2188C142.865 11.651 143.141 12.2708 143.141 13.0781V15.0469H137.906V16.2109C137.906 16.8984 138.044 17.3776 138.32 17.6484C138.596 17.9141 139.094 18.0469 139.812 18.0469C140.531 18.0469 140.938 18.0312 141.031 18C141.125 17.9688 141.221 17.9323 141.32 17.8906C141.419 17.849 141.487 17.7995 141.523 17.7422C141.565 17.6849 141.617 17.599 141.68 17.4844C141.747 17.3646 141.797 17.1354 141.828 16.7969H143.125C143.073 17.2917 142.984 17.6901 142.859 17.9922C142.74 18.2943 142.547 18.5365 142.281 18.7188C142.021 18.8958 141.706 19.0156 141.336 19.0781C140.971 19.1406 140.487 19.1719 139.883 19.1719ZM137.906 14.0547H141.719V12.9219C141.719 12.4531 141.557 12.1302 141.234 11.9531C140.917 11.776 140.448 11.6875 139.828 11.6875C139.208 11.6875 138.732 11.7943 138.398 12.0078C138.07 12.2214 137.906 12.5729 137.906 13.0625V14.0547ZM155.062 12.8984C155.062 12.0911 154.445 11.6875 153.211 11.6875C152.602 11.6875 152.122 11.8177 151.773 12.0781C151.424 12.3385 151.25 12.6797 151.25 13.1016V19H149.781V10.7188H151.25V11.5234C151.802 10.8828 152.62 10.5625 153.703 10.5625C155.109 10.5625 156 11.0573 156.375 12.0469C156.479 12.3281 156.531 12.6406 156.531 12.9844V19H155.062V12.8984ZM159.516 19V10.7188H160.984V19H159.516ZM159.516 9.22656V7.70312H160.984V9.22656H159.516ZM166.492 18.0469C167.602 18.0469 168.156 17.6328 168.156 16.8047C168.156 16.4453 168.107 16.1797 168.008 16.0078C167.909 15.8307 167.677 15.6745 167.312 15.5391L165.344 14.8125C164.74 14.599 164.318 14.3464 164.078 14.0547C163.844 13.7578 163.727 13.388 163.727 12.9453C163.727 12.5026 163.771 12.1484 163.859 11.8828C163.948 11.612 164.094 11.375 164.297 11.1719C164.703 10.7656 165.432 10.5625 166.484 10.5625C167.536 10.5625 168.443 10.7135 169.203 11.0156L168.867 12.1406C168.602 12.0312 168.253 11.9297 167.82 11.8359C167.388 11.737 167.01 11.6875 166.688 11.6875C165.943 11.6875 165.471 11.8073 165.273 12.0469C165.154 12.1979 165.094 12.4193 165.094 12.7109C165.094 13.0026 165.141 13.2109 165.234 13.3359C165.333 13.4557 165.523 13.5651 165.805 13.6641L167.75 14.4297C168.427 14.6953 168.872 14.9896 169.086 15.3125C169.299 15.6302 169.406 16.1328 169.406 16.8203C169.406 17.5078 169.185 18.0729 168.742 18.5156C168.299 18.9531 167.615 19.1719 166.688 19.1719C166.01 19.1719 165.409 19.099 164.883 18.9531C164.357 18.8073 163.953 18.6562 163.672 18.5L164.031 17.4219C164.776 17.8385 165.596 18.0469 166.492 18.0469ZM171.766 19V7.23438H173.234V14.9062L177.195 10.7188H178.805L175.438 14.3594L179.141 19H177.445L174.477 15.1562L173.234 16.3906V19H171.766ZM183.914 19.1719C182.701 19.1719 181.823 18.9193 181.281 18.4141C180.74 17.9089 180.469 17.1302 180.469 16.0781V13.1953C180.469 12.3776 180.747 11.7344 181.305 11.2656C181.862 10.7969 182.703 10.5625 183.828 10.5625C184.958 10.5625 185.797 10.7812 186.344 11.2188C186.896 11.651 187.172 12.2708 187.172 13.0781V15.0469H181.938V16.2109C181.938 16.8984 182.076 17.3776 182.352 17.6484C182.628 17.9141 183.125 18.0469 183.844 18.0469C184.562 18.0469 184.969 18.0312 185.062 18C185.156 17.9688 185.253 17.9323 185.352 17.8906C185.451 17.849 185.518 17.7995 185.555 17.7422C185.596 17.6849 185.648 17.599 185.711 17.4844C185.779 17.3646 185.828 17.1354 185.859 16.7969H187.156C187.104 17.2917 187.016 17.6901 186.891 17.9922C186.771 18.2943 186.578 18.5365 186.312 18.7188C186.052 18.8958 185.737 19.0156 185.367 19.0781C185.003 19.1406 184.518 19.1719 183.914 19.1719ZM181.938 14.0547H185.75V12.9219C185.75 12.4531 185.589 12.1302 185.266 11.9531C184.948 11.776 184.479 11.6875 183.859 11.6875C183.24 11.6875 182.763 11.7943 182.43 12.0078C182.102 12.2214 181.938 12.5729 181.938 13.0625V14.0547ZM193.812 19V10.7188H195.281V11.8906C195.469 11.3802 195.977 11.0104 196.805 10.7812C197.237 10.6562 197.688 10.5964 198.156 10.6016L198.109 11.8594C197.401 11.8594 196.753 12 196.164 12.2812C195.576 12.5625 195.281 12.8698 195.281 13.2031V19H193.812ZM202.242 19.1719C201.404 19.1719 200.753 18.9453 200.289 18.4922C199.826 18.0339 199.594 17.4661 199.594 16.7891C199.594 16.4036 199.674 16.0833 199.836 15.8281C200.164 15.3073 201.143 14.8099 202.773 14.3359C203.716 14.0755 204.258 13.8516 204.398 13.6641C204.544 13.4766 204.625 13.3307 204.641 13.2266C204.656 13.1172 204.664 12.9453 204.664 12.7109C204.664 12.4766 204.568 12.2474 204.375 12.0234C204.188 11.7995 203.776 11.6875 203.141 11.6875C202.245 11.6875 201.695 11.8594 201.492 12.2031C201.388 12.3802 201.336 12.6198 201.336 12.9219V13.2891H199.922V12.9141C199.922 12.1068 200.19 11.513 200.727 11.1328C201.268 10.7526 202.076 10.5625 203.148 10.5625C204.221 10.5625 204.987 10.8073 205.445 11.2969C205.904 11.7812 206.133 12.474 206.133 13.375V16.9062C206.133 17.3385 206.188 17.6198 206.297 17.75C206.406 17.875 206.641 17.9375 207 17.9375L206.828 19.0625H206.531C206.01 19.0625 205.622 18.9635 205.367 18.7656C205.112 18.5625 204.917 18.25 204.781 17.8281C204.349 18.474 203.828 18.8802 203.219 19.0469C202.927 19.1302 202.602 19.1719 202.242 19.1719ZM202.977 15.3438C202.237 15.5573 201.724 15.7708 201.438 15.9844C201.156 16.1979 201.016 16.5 201.016 16.8906C201.016 17.276 201.146 17.5677 201.406 17.7656C201.672 17.9635 201.99 18.0625 202.359 18.0625C202.734 18.0625 203.073 18.0156 203.375 17.9219C203.677 17.8229 203.948 17.6797 204.188 17.4922C204.432 17.2995 204.591 17.0807 204.664 16.8359V14.4453C204.284 14.8255 203.721 15.125 202.977 15.3438ZM208.812 19V18.0781L212.773 11.6875H208.953V10.7188H214.32V11.6172L210.336 18.0312H214.391V19H208.812ZM219.391 19.0625C218.906 19.0625 218.51 19.026 218.203 18.9531C217.896 18.8802 217.625 18.7422 217.391 18.5391C216.953 18.1589 216.734 17.3802 216.734 16.2031V7.24219H218.203V16.2188C218.203 16.8854 218.302 17.3203 218.5 17.5234C218.698 17.7266 219.107 17.8281 219.727 17.8281H219.984L219.812 19.0625H219.391ZM222.297 19V10.7188H223.766V19H222.297ZM222.297 9.22656V7.70312H223.766V9.22656H222.297ZM229.164 9.28906L227.562 7.21094H228.773L229.742 8.57031L230.773 7.21094H232.031L230.336 9.28906H229.164ZM229.867 19.1719C228.174 19.1719 227.115 18.5833 226.688 17.4062C226.562 17.0729 226.5 16.7083 226.5 16.3125V13.1562C226.5 12.3698 226.799 11.7422 227.398 11.2734C227.997 10.7995 228.807 10.5625 229.828 10.5625C231.13 10.5625 232.026 10.8438 232.516 11.4062C232.901 11.8438 233.094 12.4896 233.094 13.3438L231.695 13.4766C231.695 12.737 231.562 12.2552 231.297 12.0312C231.036 11.8021 230.57 11.6875 229.898 11.6875C229.227 11.6875 228.737 11.8047 228.43 12.0391C228.122 12.2734 227.969 12.6589 227.969 13.1953V16.4375C227.969 17.0104 228.13 17.4219 228.453 17.6719C228.776 17.9219 229.273 18.0469 229.945 18.0469C230.622 18.0469 231.073 17.9583 231.297 17.7812C231.526 17.6042 231.667 17.2031 231.719 16.5781H233.078C232.995 17.5365 232.719 18.2083 232.25 18.5938C231.781 18.9792 230.987 19.1719 229.867 19.1719ZM235.625 19V10.7188H237.094V19H235.625ZM235.625 9.22656V7.70312H237.094V9.22656H235.625ZM243.953 19.0625C242.797 19.0625 241.961 18.8802 241.445 18.5156C240.935 18.151 240.68 17.5234 240.68 16.6328V11.8281H239.297V10.7188H240.734L240.914 8.15625H242.148V10.7188H244.227V11.8281H242.148V16.5391C242.148 17.0599 242.297 17.4062 242.594 17.5781C242.896 17.7448 243.419 17.8281 244.164 17.8281H244.328L244.172 19.0625H243.953ZM249.836 19.1719C248.622 19.1719 247.745 18.9193 247.203 18.4141C246.661 17.9089 246.391 17.1302 246.391 16.0781V13.1953C246.391 12.3776 246.669 11.7344 247.227 11.2656C247.784 10.7969 248.625 10.5625 249.75 10.5625C250.88 10.5625 251.719 10.7812 252.266 11.2188C252.818 11.651 253.094 12.2708 253.094 13.0781V15.0469H247.859V16.2109C247.859 16.8984 247.997 17.3776 248.273 17.6484C248.549 17.9141 249.047 18.0469 249.766 18.0469C250.484 18.0469 250.891 18.0312 250.984 18C251.078 17.9688 251.174 17.9323 251.273 17.8906C251.372 17.849 251.44 17.7995 251.477 17.7422C251.518 17.6849 251.57 17.599 251.633 17.4844C251.701 17.3646 251.75 17.1354 251.781 16.7969H253.078C253.026 17.2917 252.938 17.6901 252.812 17.9922C252.693 18.2943 252.5 18.5365 252.234 18.7188C251.974 18.8958 251.659 19.0156 251.289 19.0781C250.924 19.1406 250.44 19.1719 249.836 19.1719ZM247.859 14.0547H251.672V12.9219C251.672 12.4531 251.51 12.1302 251.188 11.9531C250.87 11.776 250.401 11.6875 249.781 11.6875C249.161 11.6875 248.685 11.7943 248.352 12.0078C248.023 12.2214 247.859 12.5729 247.859 13.0625V14.0547ZM262.898 10.5625C263.565 10.5625 264.177 10.6667 264.734 10.875V7.23438H266.203V19H265.203L264.961 18.4531C264.706 18.651 264.37 18.8203 263.953 18.9609C263.536 19.1016 263.125 19.1719 262.719 19.1719C261.589 19.1719 260.758 18.9219 260.227 18.4219C259.701 17.9167 259.438 17.237 259.438 16.3828V13.2578C259.438 12.3984 259.721 11.7344 260.289 11.2656C260.857 10.7969 261.727 10.5625 262.898 10.5625ZM260.906 16.4922C260.906 16.987 261.081 17.3646 261.43 17.625C261.784 17.8854 262.198 18.0156 262.672 18.0156C263.516 18.0156 264.203 17.8516 264.734 17.5234V12.0312C264.26 11.8021 263.685 11.6875 263.008 11.6875C261.607 11.6875 260.906 12.1562 260.906 13.0938V16.4922ZM271.883 19.1719C270.471 19.1719 269.576 18.6719 269.195 17.6719C269.086 17.3854 269.031 17.0729 269.031 16.7344V10.7188H270.5V16.7422C270.5 17.1484 270.648 17.4688 270.945 17.7031C271.247 17.9323 271.695 18.0469 272.289 18.0469C272.883 18.0469 273.365 17.901 273.734 17.6094C274.109 17.3125 274.297 16.9714 274.297 16.5859V10.7188H275.766V19H274.453L274.297 17.9609C273.839 18.7682 273.034 19.1719 271.883 19.1719ZM280.703 9.28906L279.102 7.21094H280.312L281.281 8.57031L282.312 7.21094H283.57L281.875 9.28906H280.703ZM278.312 19V18.0781L282.273 11.6875H278.453V10.7188H283.82V11.6172L279.836 18.0312H283.891V19H278.312ZM286.359 19V10.7188H287.828V19H286.359ZM286.359 9.22656V7.70312H287.828V9.22656H286.359ZM296.141 12.8984C296.141 12.0911 295.523 11.6875 294.289 11.6875C293.68 11.6875 293.201 11.8177 292.852 12.0781C292.503 12.3385 292.328 12.6797 292.328 13.1016V19H290.859V10.7188H292.328V11.5234C292.88 10.8828 293.698 10.5625 294.781 10.5625C296.188 10.5625 297.078 11.0573 297.453 12.0469C297.557 12.3281 297.609 12.6406 297.609 12.9844V19H296.141V12.8984ZM303.586 19.1719C302.372 19.1719 301.495 18.9193 300.953 18.4141C300.411 17.9089 300.141 17.1302 300.141 16.0781V13.1953C300.141 12.3776 300.419 11.7344 300.977 11.2656C301.534 10.7969 302.375 10.5625 303.5 10.5625C304.63 10.5625 305.469 10.7812 306.016 11.2188C306.568 11.651 306.844 12.2708 306.844 13.0781V15.0469H301.609V16.2109C301.609 16.8984 301.747 17.3776 302.023 17.6484C302.299 17.9141 302.797 18.0469 303.516 18.0469C304.234 18.0469 304.641 18.0312 304.734 18C304.828 17.9688 304.924 17.9323 305.023 17.8906C305.122 17.849 305.19 17.7995 305.227 17.7422C305.268 17.6849 305.32 17.599 305.383 17.4844C305.451 17.3646 305.5 17.1354 305.531 16.7969H306.828C306.776 17.2917 306.688 17.6901 306.562 17.9922C306.443 18.2943 306.25 18.5365 305.984 18.7188C305.724 18.8958 305.409 19.0156 305.039 19.0781C304.674 19.1406 304.19 19.1719 303.586 19.1719ZM301.609 14.0547H305.422V12.9219C305.422 12.4531 305.26 12.1302 304.938 11.9531C304.62 11.776 304.151 11.6875 303.531 11.6875C302.911 11.6875 302.435 11.7943 302.102 12.0078C301.773 12.2214 301.609 12.5729 301.609 13.0625V14.0547ZM309.484 19V17.1094H311.484V19H309.484ZM320.852 19V8.99219H317.594V7.70312H325.688V8.99219H322.422V19H320.852ZM329.93 19.1719C329.091 19.1719 328.44 18.9453 327.977 18.4922C327.513 18.0339 327.281 17.4661 327.281 16.7891C327.281 16.4036 327.362 16.0833 327.523 15.8281C327.852 15.3073 328.831 14.8099 330.461 14.3359C331.404 14.0755 331.945 13.8516 332.086 13.6641C332.232 13.4766 332.312 13.3307 332.328 13.2266C332.344 13.1172 332.352 12.9453 332.352 12.7109C332.352 12.4766 332.255 12.2474 332.062 12.0234C331.875 11.7995 331.464 11.6875 330.828 11.6875C329.932 11.6875 329.383 11.8594 329.18 12.2031C329.076 12.3802 329.023 12.6198 329.023 12.9219V13.2891H327.609V12.9141C327.609 12.1068 327.878 11.513 328.414 11.1328C328.956 10.7526 329.763 10.5625 330.836 10.5625C331.909 10.5625 332.674 10.8073 333.133 11.2969C333.591 11.7812 333.82 12.474 333.82 13.375V16.9062C333.82 17.3385 333.875 17.6198 333.984 17.75C334.094 17.875 334.328 17.9375 334.688 17.9375L334.516 19.0625H334.219C333.698 19.0625 333.31 18.9635 333.055 18.7656C332.799 18.5625 332.604 18.25 332.469 17.8281C332.036 18.474 331.516 18.8802 330.906 19.0469C330.615 19.1302 330.289 19.1719 329.93 19.1719ZM330.664 15.3438C329.924 15.5573 329.411 15.7708 329.125 15.9844C328.844 16.1979 328.703 16.5 328.703 16.8906C328.703 17.276 328.833 17.5677 329.094 17.7656C329.359 17.9635 329.677 18.0625 330.047 18.0625C330.422 18.0625 330.76 18.0156 331.062 17.9219C331.365 17.8229 331.635 17.6797 331.875 17.4922C332.12 17.2995 332.279 17.0807 332.352 16.8359V14.4453C331.971 14.8255 331.409 15.125 330.664 15.3438ZM340.023 10.5625C340.69 10.5625 341.302 10.6667 341.859 10.875V7.23438H343.328V19H342.328L342.086 18.4531C341.831 18.651 341.495 18.8203 341.078 18.9609C340.661 19.1016 340.25 19.1719 339.844 19.1719C338.714 19.1719 337.883 18.9219 337.352 18.4219C336.826 17.9167 336.562 17.237 336.562 16.3828V13.2578C336.562 12.3984 336.846 11.7344 337.414 11.2656C337.982 10.7969 338.852 10.5625 340.023 10.5625ZM338.031 16.4922C338.031 16.987 338.206 17.3646 338.555 17.625C338.909 17.8854 339.323 18.0156 339.797 18.0156C340.641 18.0156 341.328 17.8516 341.859 17.5234V12.0312C341.385 11.8021 340.81 11.6875 340.133 11.6875C338.732 11.6875 338.031 12.1562 338.031 13.0938V16.4922ZM348.461 19.1719C347.622 19.1719 346.971 18.9453 346.508 18.4922C346.044 18.0339 345.812 17.4661 345.812 16.7891C345.812 16.4036 345.893 16.0833 346.055 15.8281C346.383 15.3073 347.362 14.8099 348.992 14.3359C349.935 14.0755 350.477 13.8516 350.617 13.6641C350.763 13.4766 350.844 13.3307 350.859 13.2266C350.875 13.1172 350.883 12.9453 350.883 12.7109C350.883 12.4766 350.786 12.2474 350.594 12.0234C350.406 11.7995 349.995 11.6875 349.359 11.6875C348.464 11.6875 347.914 11.8594 347.711 12.2031C347.607 12.3802 347.555 12.6198 347.555 12.9219V13.2891H346.141V12.9141C346.141 12.1068 346.409 11.513 346.945 11.1328C347.487 10.7526 348.294 10.5625 349.367 10.5625C350.44 10.5625 351.206 10.8073 351.664 11.2969C352.122 11.7812 352.352 12.474 352.352 13.375V16.9062C352.352 17.3385 352.406 17.6198 352.516 17.75C352.625 17.875 352.859 17.9375 353.219 17.9375L353.047 19.0625H352.75C352.229 19.0625 351.841 18.9635 351.586 18.7656C351.331 18.5625 351.135 18.25 351 17.8281C350.568 18.474 350.047 18.8802 349.438 19.0469C349.146 19.1302 348.82 19.1719 348.461 19.1719ZM349.195 15.3438C348.456 15.5573 347.943 15.7708 347.656 15.9844C347.375 16.1979 347.234 16.5 347.234 16.8906C347.234 17.276 347.365 17.5677 347.625 17.7656C347.891 17.9635 348.208 18.0625 348.578 18.0625C348.953 18.0625 349.292 18.0156 349.594 17.9219C349.896 17.8229 350.167 17.6797 350.406 17.4922C350.651 17.2995 350.81 17.0807 350.883 16.8359V14.4453C350.503 14.8255 349.94 15.125 349.195 15.3438ZM361.977 9.28906L362.914 6.625H364.672L362.805 9.28906H361.977ZM362.461 19.1719C360.768 19.1719 359.708 18.5833 359.281 17.4062C359.156 17.0729 359.094 16.7083 359.094 16.3125V13.1562C359.094 12.3698 359.393 11.7422 359.992 11.2734C360.591 10.7995 361.401 10.5625 362.422 10.5625C363.724 10.5625 364.62 10.8438 365.109 11.4062C365.495 11.8438 365.688 12.4896 365.688 13.3438L364.289 13.4766C364.289 12.737 364.156 12.2552 363.891 12.0312C363.63 11.8021 363.164 11.6875 362.492 11.6875C361.82 11.6875 361.331 11.8047 361.023 12.0391C360.716 12.2734 360.562 12.6589 360.562 13.1953V16.4375C360.562 17.0104 360.724 17.4219 361.047 17.6719C361.37 17.9219 361.867 18.0469 362.539 18.0469C363.216 18.0469 363.667 17.9583 363.891 17.7812C364.12 17.6042 364.26 17.2031 364.312 16.5781H365.672C365.589 17.5365 365.312 18.2083 364.844 18.5938C364.375 18.9792 363.581 19.1719 362.461 19.1719ZM371.211 19.1719C369.997 19.1719 369.12 18.9193 368.578 18.4141C368.036 17.9089 367.766 17.1302 367.766 16.0781V13.1953C367.766 12.3776 368.044 11.7344 368.602 11.2656C369.159 10.7969 370 10.5625 371.125 10.5625C372.255 10.5625 373.094 10.7812 373.641 11.2188C374.193 11.651 374.469 12.2708 374.469 13.0781V15.0469H369.234V16.2109C369.234 16.8984 369.372 17.3776 369.648 17.6484C369.924 17.9141 370.422 18.0469 371.141 18.0469C371.859 18.0469 372.266 18.0312 372.359 18C372.453 17.9688 372.549 17.9323 372.648 17.8906C372.747 17.849 372.815 17.7995 372.852 17.7422C372.893 17.6849 372.945 17.599 373.008 17.4844C373.076 17.3646 373.125 17.1354 373.156 16.7969H374.453C374.401 17.2917 374.312 17.6901 374.188 17.9922C374.068 18.2943 373.875 18.5365 373.609 18.7188C373.349 18.8958 373.034 19.0156 372.664 19.0781C372.299 19.1406 371.815 19.1719 371.211 19.1719ZM369.234 14.0547H373.047V12.9219C373.047 12.4531 372.885 12.1302 372.562 11.9531C372.245 11.776 371.776 11.6875 371.156 11.6875C370.536 11.6875 370.06 11.7943 369.727 12.0078C369.398 12.2214 369.234 12.5729 369.234 13.0625V14.0547ZM383.367 19L380.156 10.7188H381.633L384.125 17.4375L386.344 10.7188H387.781L384.852 19H383.367ZM391.961 19.1719C391.122 19.1719 390.471 18.9453 390.008 18.4922C389.544 18.0339 389.312 17.4661 389.312 16.7891C389.312 16.4036 389.393 16.0833 389.555 15.8281C389.883 15.3073 390.862 14.8099 392.492 14.3359C393.435 14.0755 393.977 13.8516 394.117 13.6641C394.263 13.4766 394.344 13.3307 394.359 13.2266C394.375 13.1172 394.383 12.9453 394.383 12.7109C394.383 12.4766 394.286 12.2474 394.094 12.0234C393.906 11.7995 393.495 11.6875 392.859 11.6875C391.964 11.6875 391.414 11.8594 391.211 12.2031C391.107 12.3802 391.055 12.6198 391.055 12.9219V13.2891H389.641V12.9141C389.641 12.1068 389.909 11.513 390.445 11.1328C390.987 10.7526 391.794 10.5625 392.867 10.5625C393.94 10.5625 394.706 10.8073 395.164 11.2969C395.622 11.7812 395.852 12.474 395.852 13.375V16.9062C395.852 17.3385 395.906 17.6198 396.016 17.75C396.125 17.875 396.359 17.9375 396.719 17.9375L396.547 19.0625H396.25C395.729 19.0625 395.341 18.9635 395.086 18.7656C394.831 18.5625 394.635 18.25 394.5 17.8281C394.068 18.474 393.547 18.8802 392.938 19.0469C392.646 19.1302 392.32 19.1719 391.961 19.1719ZM392.695 15.3438C391.956 15.5573 391.443 15.7708 391.156 15.9844C390.875 16.1979 390.734 16.5 390.734 16.8906C390.734 17.276 390.865 17.5677 391.125 17.7656C391.391 17.9635 391.708 18.0625 392.078 18.0625C392.453 18.0625 392.792 18.0156 393.094 17.9219C393.396 17.8229 393.667 17.6797 393.906 17.4922C394.151 17.2995 394.31 17.0807 394.383 16.8359V14.4453C394.003 14.8255 393.44 15.125 392.695 15.3438ZM400.922 9.28906L399.32 7.21094H400.531L401.5 8.57031L402.531 7.21094H403.789L402.094 9.28906H400.922ZM398.531 19V18.0781L402.492 11.6875H398.672V10.7188H404.039V11.6172L400.055 18.0312H404.109V19H398.531ZM406.578 19V10.7188H408.047V19H406.578ZM406.578 9.22656V7.70312H408.047V9.22656H406.578ZM414.906 19.0625C413.75 19.0625 412.914 18.8802 412.398 18.5156C411.888 18.151 411.633 17.5234 411.633 16.6328V11.8281H410.25V10.7188H411.688L411.867 8.15625H413.102V10.7188H415.18V11.8281H413.102V16.5391C413.102 17.0599 413.25 17.4062 413.547 17.5781C413.849 17.7448 414.372 17.8281 415.117 17.8281H415.281L415.125 19.0625H414.906ZM417.797 19V10.7188H419.266V19H417.797ZM417.797 9.22656V7.70312H419.266V9.22656H417.797ZM428.773 18.0469C429.883 18.0469 430.438 17.6328 430.438 16.8047C430.438 16.4453 430.388 16.1797 430.289 16.0078C430.19 15.8307 429.958 15.6745 429.594 15.5391L427.625 14.8125C427.021 14.599 426.599 14.3464 426.359 14.0547C426.125 13.7578 426.008 13.388 426.008 12.9453C426.008 12.5026 426.052 12.1484 426.141 11.8828C426.229 11.612 426.375 11.375 426.578 11.1719C426.984 10.7656 427.714 10.5625 428.766 10.5625C429.818 10.5625 430.724 10.7135 431.484 11.0156L431.148 12.1406C430.883 12.0312 430.534 11.9297 430.102 11.8359C429.669 11.737 429.292 11.6875 428.969 11.6875C428.224 11.6875 427.753 11.8073 427.555 12.0469C427.435 12.1979 427.375 12.4193 427.375 12.7109C427.375 13.0026 427.422 13.2109 427.516 13.3359C427.615 13.4557 427.805 13.5651 428.086 13.6641L430.031 14.4297C430.708 14.6953 431.154 14.9896 431.367 15.3125C431.581 15.6302 431.688 16.1328 431.688 16.8203C431.688 17.5078 431.466 18.0729 431.023 18.5156C430.581 18.9531 429.896 19.1719 428.969 19.1719C428.292 19.1719 427.69 19.099 427.164 18.9531C426.638 18.8073 426.234 18.6562 425.953 18.5L426.312 17.4219C427.057 17.8385 427.878 18.0469 428.773 18.0469ZM436.734 19.0625C436.25 19.0625 435.854 19.026 435.547 18.9531C435.24 18.8802 434.969 18.7422 434.734 18.5391C434.297 18.1589 434.078 17.3802 434.078 16.2031V7.24219H435.547V16.2188C435.547 16.8854 435.646 17.3203 435.844 17.5234C436.042 17.7266 436.451 17.8281 437.07 17.8281H437.328L437.156 19.0625H436.734ZM442.633 19.1719C441.419 19.1719 440.542 18.9193 440 18.4141C439.458 17.9089 439.188 17.1302 439.188 16.0781V13.1953C439.188 12.3776 439.466 11.7344 440.023 11.2656C440.581 10.7969 441.422 10.5625 442.547 10.5625C443.677 10.5625 444.516 10.7812 445.062 11.2188C445.615 11.651 445.891 12.2708 445.891 13.0781V15.0469H440.656V16.2109C440.656 16.8984 440.794 17.3776 441.07 17.6484C441.346 17.9141 441.844 18.0469 442.562 18.0469C443.281 18.0469 443.688 18.0312 443.781 18C443.875 17.9688 443.971 17.9323 444.07 17.8906C444.169 17.849 444.237 17.7995 444.273 17.7422C444.315 17.6849 444.367 17.599 444.43 17.4844C444.497 17.3646 444.547 17.1354 444.578 16.7969H445.875C445.823 17.2917 445.734 17.6901 445.609 17.9922C445.49 18.2943 445.297 18.5365 445.031 18.7188C444.771 18.8958 444.456 19.0156 444.086 19.0781C443.721 19.1406 443.237 19.1719 442.633 19.1719ZM440.656 14.0547H444.469V12.9219C444.469 12.4531 444.307 12.1302 443.984 11.9531C443.667 11.776 443.198 11.6875 442.578 11.6875C441.958 11.6875 441.482 11.7943 441.148 12.0078C440.82 12.2214 440.656 12.5729 440.656 13.0625V14.0547ZM451.695 10.5625C452.362 10.5625 452.974 10.6667 453.531 10.875V7.23438H455V19H454L453.758 18.4531C453.503 18.651 453.167 18.8203 452.75 18.9609C452.333 19.1016 451.922 19.1719 451.516 19.1719C450.385 19.1719 449.555 18.9219 449.023 18.4219C448.497 17.9167 448.234 17.237 448.234 16.3828V13.2578C448.234 12.3984 448.518 11.7344 449.086 11.2656C449.654 10.7969 450.523 10.5625 451.695 10.5625ZM449.703 16.4922C449.703 16.987 449.878 17.3646 450.227 17.625C450.581 17.8854 450.995 18.0156 451.469 18.0156C452.312 18.0156 453 17.8516 453.531 17.5234V12.0312C453.057 11.8021 452.482 11.6875 451.805 11.6875C450.404 11.6875 449.703 12.1562 449.703 13.0938V16.4922ZM461.055 19.1719C459.841 19.1719 458.964 18.9193 458.422 18.4141C457.88 17.9089 457.609 17.1302 457.609 16.0781V13.1953C457.609 12.3776 457.888 11.7344 458.445 11.2656C459.003 10.7969 459.844 10.5625 460.969 10.5625C462.099 10.5625 462.938 10.7812 463.484 11.2188C464.036 11.651 464.312 12.2708 464.312 13.0781V15.0469H459.078V16.2109C459.078 16.8984 459.216 17.3776 459.492 17.6484C459.768 17.9141 460.266 18.0469 460.984 18.0469C461.703 18.0469 462.109 18.0312 462.203 18C462.297 17.9688 462.393 17.9323 462.492 17.8906C462.591 17.849 462.659 17.7995 462.695 17.7422C462.737 17.6849 462.789 17.599 462.852 17.4844C462.919 17.3646 462.969 17.1354 463 16.7969H464.297C464.245 17.2917 464.156 17.6901 464.031 17.9922C463.911 18.2943 463.719 18.5365 463.453 18.7188C463.193 18.8958 462.878 19.0156 462.508 19.0781C462.143 19.1406 461.659 19.1719 461.055 19.1719ZM459.078 14.0547H462.891V12.9219C462.891 12.4531 462.729 12.1302 462.406 11.9531C462.089 11.776 461.62 11.6875 461 11.6875C460.38 11.6875 459.904 11.7943 459.57 12.0078C459.242 12.2214 459.078 12.5729 459.078 13.0625V14.0547ZM469.539 9.28906L470.477 6.625H472.234L470.367 9.28906H469.539ZM470.023 19.1719C468.331 19.1719 467.271 18.5833 466.844 17.4062C466.719 17.0729 466.656 16.7083 466.656 16.3125V13.1562C466.656 12.3698 466.956 11.7422 467.555 11.2734C468.154 10.7995 468.964 10.5625 469.984 10.5625C471.286 10.5625 472.182 10.8438 472.672 11.4062C473.057 11.8438 473.25 12.4896 473.25 13.3438L471.852 13.4766C471.852 12.737 471.719 12.2552 471.453 12.0312C471.193 11.8021 470.727 11.6875 470.055 11.6875C469.383 11.6875 468.893 11.8047 468.586 12.0391C468.279 12.2734 468.125 12.6589 468.125 13.1953V16.4375C468.125 17.0104 468.286 17.4219 468.609 17.6719C468.932 17.9219 469.43 18.0469 470.102 18.0469C470.779 18.0469 471.229 17.9583 471.453 17.7812C471.682 17.6042 471.823 17.2031 471.875 16.5781H473.234C473.151 17.5365 472.875 18.2083 472.406 18.5938C471.938 18.9792 471.143 19.1719 470.023 19.1719ZM477.852 19.1719C477.013 19.1719 476.362 18.9453 475.898 18.4922C475.435 18.0339 475.203 17.4661 475.203 16.7891C475.203 16.4036 475.284 16.0833 475.445 15.8281C475.773 15.3073 476.753 14.8099 478.383 14.3359C479.326 14.0755 479.867 13.8516 480.008 13.6641C480.154 13.4766 480.234 13.3307 480.25 13.2266C480.266 13.1172 480.273 12.9453 480.273 12.7109C480.273 12.4766 480.177 12.2474 479.984 12.0234C479.797 11.7995 479.385 11.6875 478.75 11.6875C477.854 11.6875 477.305 11.8594 477.102 12.2031C476.997 12.3802 476.945 12.6198 476.945 12.9219V13.2891H475.531V12.9141C475.531 12.1068 475.799 11.513 476.336 11.1328C476.878 10.7526 477.685 10.5625 478.758 10.5625C479.831 10.5625 480.596 10.8073 481.055 11.2969C481.513 11.7812 481.742 12.474 481.742 13.375V16.9062C481.742 17.3385 481.797 17.6198 481.906 17.75C482.016 17.875 482.25 17.9375 482.609 17.9375L482.438 19.0625H482.141C481.62 19.0625 481.232 18.9635 480.977 18.7656C480.721 18.5625 480.526 18.25 480.391 17.8281C479.958 18.474 479.438 18.8802 478.828 19.0469C478.536 19.1302 478.211 19.1719 477.852 19.1719ZM478.586 15.3438C477.846 15.5573 477.333 15.7708 477.047 15.9844C476.766 16.1979 476.625 16.5 476.625 16.8906C476.625 17.276 476.755 17.5677 477.016 17.7656C477.281 17.9635 477.599 18.0625 477.969 18.0625C478.344 18.0625 478.682 18.0156 478.984 17.9219C479.286 17.8229 479.557 17.6797 479.797 17.4922C480.042 17.2995 480.201 17.0807 480.273 16.8359V14.4453C479.893 14.8255 479.331 15.125 478.586 15.3438ZM494.062 12.8984C494.062 12.0911 493.445 11.6875 492.211 11.6875C491.602 11.6875 491.122 11.8177 490.773 12.0781C490.424 12.3385 490.25 12.6797 490.25 13.1016V19H488.781V10.7188H490.25V11.5234C490.802 10.8828 491.62 10.5625 492.703 10.5625C494.109 10.5625 495 11.0573 495.375 12.0469C495.479 12.3281 495.531 12.6406 495.531 12.9844V19H494.062V12.8984ZM501.508 19.1719C500.294 19.1719 499.417 18.9193 498.875 18.4141C498.333 17.9089 498.062 17.1302 498.062 16.0781V13.1953C498.062 12.3776 498.341 11.7344 498.898 11.2656C499.456 10.7969 500.297 10.5625 501.422 10.5625C502.552 10.5625 503.391 10.7812 503.938 11.2188C504.49 11.651 504.766 12.2708 504.766 13.0781V15.0469H499.531V16.2109C499.531 16.8984 499.669 17.3776 499.945 17.6484C500.221 17.9141 500.719 18.0469 501.438 18.0469C502.156 18.0469 502.562 18.0312 502.656 18C502.75 17.9688 502.846 17.9323 502.945 17.8906C503.044 17.849 503.112 17.7995 503.148 17.7422C503.19 17.6849 503.242 17.599 503.305 17.4844C503.372 17.3646 503.422 17.1354 503.453 16.7969H504.75C504.698 17.2917 504.609 17.6901 504.484 17.9922C504.365 18.2943 504.172 18.5365 503.906 18.7188C503.646 18.8958 503.331 19.0156 502.961 19.0781C502.596 19.1406 502.112 19.1719 501.508 19.1719ZM499.531 14.0547H503.344V12.9219C503.344 12.4531 503.182 12.1302 502.859 11.9531C502.542 11.776 502.073 11.6875 501.453 11.6875C500.833 11.6875 500.357 11.7943 500.023 12.0078C499.695 12.2214 499.531 12.5729 499.531 13.0625V14.0547ZM506.203 21.7578L506.055 20.5391H506.281C506.812 20.5391 507.167 20.4688 507.344 20.3281C507.521 20.1927 507.635 20.0234 507.688 19.8203C507.74 19.6224 507.766 19.3594 507.766 19.0312V10.7188H509.234V18.9453C509.234 20.3047 508.922 21.1458 508.297 21.4688C507.927 21.6615 507.401 21.7578 506.719 21.7578H506.203ZM507.766 9.22656V7.70312H509.234V9.22656H507.766ZM515.258 19.1719C514.044 19.1719 513.167 18.9193 512.625 18.4141C512.083 17.9089 511.812 17.1302 511.812 16.0781V13.1953C511.812 12.3776 512.091 11.7344 512.648 11.2656C513.206 10.7969 514.047 10.5625 515.172 10.5625C516.302 10.5625 517.141 10.7812 517.688 11.2188C518.24 11.651 518.516 12.2708 518.516 13.0781V15.0469H513.281V16.2109C513.281 16.8984 513.419 17.3776 513.695 17.6484C513.971 17.9141 514.469 18.0469 515.188 18.0469C515.906 18.0469 516.312 18.0312 516.406 18C516.5 17.9688 516.596 17.9323 516.695 17.8906C516.794 17.849 516.862 17.7995 516.898 17.7422C516.94 17.6849 516.992 17.599 517.055 17.4844C517.122 17.3646 517.172 17.1354 517.203 16.7969H518.5C518.448 17.2917 518.359 17.6901 518.234 17.9922C518.115 18.2943 517.922 18.5365 517.656 18.7188C517.396 18.8958 517.081 19.0156 516.711 19.0781C516.346 19.1406 515.862 19.1719 515.258 19.1719ZM513.281 14.0547H517.094V12.9219C517.094 12.4531 516.932 12.1302 516.609 11.9531C516.292 11.776 515.823 11.6875 515.203 11.6875C514.583 11.6875 514.107 11.7943 513.773 12.0078C513.445 12.2214 513.281 12.5729 513.281 13.0625V14.0547ZM524.32 10.5625C524.987 10.5625 525.599 10.6667 526.156 10.875V7.23438H527.625V19H526.625L526.383 18.4531C526.128 18.651 525.792 18.8203 525.375 18.9609C524.958 19.1016 524.547 19.1719 524.141 19.1719C523.01 19.1719 522.18 18.9219 521.648 18.4219C521.122 17.9167 520.859 17.237 520.859 16.3828V13.2578C520.859 12.3984 521.143 11.7344 521.711 11.2656C522.279 10.7969 523.148 10.5625 524.32 10.5625ZM522.328 16.4922C522.328 16.987 522.503 17.3646 522.852 17.625C523.206 17.8854 523.62 18.0156 524.094 18.0156C524.938 18.0156 525.625 17.8516 526.156 17.5234V12.0312C525.682 11.8021 525.107 11.6875 524.43 11.6875C523.029 11.6875 522.328 12.1562 522.328 13.0938V16.4922ZM535.812 12.8984C535.812 12.0911 535.195 11.6875 533.961 11.6875C533.352 11.6875 532.872 11.8177 532.523 12.0781C532.174 12.3385 532 12.6797 532 13.1016V19H530.531V10.7188H532V11.5234C532.552 10.8828 533.37 10.5625 534.453 10.5625C535.859 10.5625 536.75 11.0573 537.125 12.0469C537.229 12.3281 537.281 12.6406 537.281 12.9844V19H535.812V12.8984ZM542.336 19.1719C541.497 19.1719 540.846 18.9453 540.383 18.4922C539.919 18.0339 539.688 17.4661 539.688 16.7891C539.688 16.4036 539.768 16.0833 539.93 15.8281C540.258 15.3073 541.237 14.8099 542.867 14.3359C543.81 14.0755 544.352 13.8516 544.492 13.6641C544.638 13.4766 544.719 13.3307 544.734 13.2266C544.75 13.1172 544.758 12.9453 544.758 12.7109C544.758 12.4766 544.661 12.2474 544.469 12.0234C544.281 11.7995 543.87 11.6875 543.234 11.6875C542.339 11.6875 541.789 11.8594 541.586 12.2031C541.482 12.3802 541.43 12.6198 541.43 12.9219V13.2891H540.016V12.9141C540.016 12.1068 540.284 11.513 540.82 11.1328C541.362 10.7526 542.169 10.5625 543.242 10.5625C544.315 10.5625 545.081 10.8073 545.539 11.2969C545.997 11.7812 546.227 12.474 546.227 13.375V16.9062C546.227 17.3385 546.281 17.6198 546.391 17.75C546.5 17.875 546.734 17.9375 547.094 17.9375L546.922 19.0625H546.625C546.104 19.0625 545.716 18.9635 545.461 18.7656C545.206 18.5625 545.01 18.25 544.875 17.8281C544.443 18.474 543.922 18.8802 543.312 19.0469C543.021 19.1302 542.695 19.1719 542.336 19.1719ZM543.07 15.3438C542.331 15.5573 541.818 15.7708 541.531 15.9844C541.25 16.1979 541.109 16.5 541.109 16.8906C541.109 17.276 541.24 17.5677 541.5 17.7656C541.766 17.9635 542.083 18.0625 542.453 18.0625C542.828 18.0625 543.167 18.0156 543.469 17.9219C543.771 17.8229 544.042 17.6797 544.281 17.4922C544.526 17.2995 544.685 17.0807 544.758 16.8359V14.4453C544.378 14.8255 543.815 15.125 543.07 15.3438ZM549.266 19V7.23438H550.734V14.9062L554.695 10.7188H556.305L552.938 14.3594L556.641 19H554.945L551.977 15.1562L550.734 16.3906V19H549.266ZM559.438 16.6641C559.438 17.5859 560.091 18.0469 561.398 18.0469C562.706 18.0469 563.359 17.5859 563.359 16.6641V13.0781C563.359 12.151 562.706 11.6875 561.398 11.6875C560.091 11.6875 559.438 12.151 559.438 13.0781V16.6641ZM564.828 16.5391C564.828 17.3516 564.549 17.9948 563.992 18.4688C563.44 18.9375 562.573 19.1719 561.391 19.1719C560.208 19.1719 559.341 18.9375 558.789 18.4688C558.242 18 557.969 17.3568 557.969 16.5391V13.2031C557.969 12.3854 558.242 11.7422 558.789 11.2734C559.341 10.7995 560.208 10.5625 561.391 10.5625C562.573 10.5625 563.44 10.7995 563.992 11.2734C564.549 11.7474 564.828 12.3906 564.828 13.2031V16.5391ZM569.914 18.0469C571.023 18.0469 571.578 17.6328 571.578 16.8047C571.578 16.4453 571.529 16.1797 571.43 16.0078C571.331 15.8307 571.099 15.6745 570.734 15.5391L568.766 14.8125C568.161 14.599 567.74 14.3464 567.5 14.0547C567.266 13.7578 567.148 13.388 567.148 12.9453C567.148 12.5026 567.193 12.1484 567.281 11.8828C567.37 11.612 567.516 11.375 567.719 11.1719C568.125 10.7656 568.854 10.5625 569.906 10.5625C570.958 10.5625 571.865 10.7135 572.625 11.0156L572.289 12.1406C572.023 12.0312 571.674 11.9297 571.242 11.8359C570.81 11.737 570.432 11.6875 570.109 11.6875C569.365 11.6875 568.893 11.8073 568.695 12.0469C568.576 12.1979 568.516 12.4193 568.516 12.7109C568.516 13.0026 568.562 13.2109 568.656 13.3359C568.755 13.4557 568.945 13.5651 569.227 13.6641L571.172 14.4297C571.849 14.6953 572.294 14.9896 572.508 15.3125C572.721 15.6302 572.828 16.1328 572.828 16.8203C572.828 17.5078 572.607 18.0729 572.164 18.5156C571.721 18.9531 571.036 19.1719 570.109 19.1719C569.432 19.1719 568.831 19.099 568.305 18.9531C567.779 18.8073 567.375 18.6562 567.094 18.5L567.453 17.4219C568.198 17.8385 569.018 18.0469 569.914 18.0469ZM579.016 19.0625C577.859 19.0625 577.023 18.8802 576.508 18.5156C575.997 18.151 575.742 17.5234 575.742 16.6328V11.8281H574.359V10.7188H575.797L575.977 8.15625H577.211V10.7188H579.289V11.8281H577.211V16.5391C577.211 17.0599 577.359 17.4062 577.656 17.5781C577.958 17.7448 578.482 17.8281 579.227 17.8281H579.391L579.234 19.0625H579.016ZM582.297 12.6094V10.7188H584.297V12.6094H582.297ZM582.297 18.2266V16.3359H584.297V18.2266H582.297Z" fill="#C9D1D9"/>
<path d="M75.2682 48.7371C74.0547 48.7371 73.1771 48.4845 72.6354 47.9792C72.0937 47.474 71.8229 46.6954 71.8229 45.6433V42.7605C71.8229 41.9428 72.1016 41.2996 72.6588 40.8308C73.2161 40.3621 74.0573 40.1277 75.1823 40.1277C76.3125 40.1277 77.151 40.3464 77.6979 40.7839C78.25 41.2162 78.526 41.836 78.526 42.6433V44.6121H73.2917V45.7761C73.2917 46.4636 73.4297 46.9428 73.7057 47.2136C73.9818 47.4792 74.4792 47.6121 75.1979 47.6121C75.9167 47.6121 76.3229 47.5964 76.4167 47.5652C76.5104 47.5339 76.6068 47.4975 76.7057 47.4558C76.8047 47.4141 76.8724 47.3647 76.9088 47.3074C76.9505 47.2501 77.0026 47.1641 77.0651 47.0496C77.1328 46.9298 77.1823 46.7006 77.2135 46.3621H78.5104C78.4583 46.8569 78.3698 47.2553 78.2448 47.5574C78.125 47.8595 77.9323 48.1016 77.6667 48.2839C77.4062 48.461 77.0911 48.5808 76.7213 48.6433C76.3568 48.7058 75.8724 48.7371 75.2682 48.7371ZM73.2917 43.6199H77.1042V42.4871C77.1042 42.0183 76.9427 41.6954 76.6198 41.5183C76.3021 41.3412 75.8333 41.2527 75.2135 41.2527C74.5937 41.2527 74.1172 41.3595 73.7838 41.573C73.4557 41.7865 73.2917 42.1381 73.2917 42.6277V43.6199ZM84.3307 40.1277C84.9974 40.1277 85.6094 40.2319 86.1667 40.4402V36.7996H87.6354V48.5652H86.6354L86.3932 48.0183C86.138 48.2162 85.8021 48.3855 85.3854 48.5261C84.9687 48.6667 84.5573 48.7371 84.151 48.7371C83.0208 48.7371 82.1901 48.4871 81.6588 47.9871C81.1328 47.4819 80.8698 46.8022 80.8698 45.948V42.823C80.8698 41.9636 81.1536 41.2996 81.7213 40.8308C82.2891 40.3621 83.1588 40.1277 84.3307 40.1277ZM82.3385 46.0574C82.3385 46.5522 82.513 46.9298 82.862 47.1902C83.2161 47.4506 83.6302 47.5808 84.1042 47.5808C84.9479 47.5808 85.6354 47.4167 86.1667 47.0886V41.5964C85.6927 41.3673 85.1172 41.2527 84.4401 41.2527C83.0391 41.2527 82.3385 41.7214 82.3385 42.6589V46.0574ZM90.6979 48.5652V40.2839H92.1667V48.5652H90.6979ZM90.6979 38.7917V37.2683H92.1667V38.7917H90.6979ZM99.026 48.6277C97.8698 48.6277 97.0338 48.4454 96.5182 48.0808C96.0078 47.7162 95.7526 47.0886 95.7526 46.198V41.3933H94.3698V40.2839H95.8073L95.987 37.7214H97.2213V40.2839H99.2995V41.3933H97.2213V46.1042C97.2213 46.6251 97.3698 46.9714 97.6667 47.1433C97.9687 47.31 98.4922 47.3933 99.237 47.3933H99.401L99.2448 48.6277H99.026ZM102.01 48.5652V37.2683H107.049C108.607 37.2683 109.583 37.8569 109.979 39.0339C110.125 39.4714 110.198 39.9923 110.198 40.5964C110.203 41.1954 110.135 41.7006 109.995 42.1121C109.854 42.5183 109.672 42.8334 109.448 43.0574C109.229 43.2761 108.951 43.4558 108.612 43.5964L111.01 48.5652H109.393L107.151 43.8777L103.589 43.8855V48.5652H102.01ZM103.589 42.6902H106.917C107.583 42.6902 108.034 42.5105 108.268 42.1511C108.508 41.7917 108.628 41.2839 108.628 40.6277C108.622 39.4506 108.312 38.7579 107.698 38.5496C107.521 38.4871 107.32 38.4584 107.096 38.4636H103.589V42.6902ZM115.424 48.7371C114.586 48.7371 113.935 48.5105 113.471 48.0574C113.008 47.599 112.776 47.0313 112.776 46.3542C112.776 45.9688 112.857 45.6485 113.018 45.3933C113.346 44.8725 114.326 44.3751 115.956 43.9011C116.898 43.6407 117.44 43.4167 117.581 43.2292C117.727 43.0417 117.807 42.8959 117.823 42.7917C117.839 42.6824 117.846 42.5105 117.846 42.2761C117.846 42.0417 117.75 41.8126 117.557 41.5886C117.37 41.3647 116.958 41.2527 116.323 41.2527C115.427 41.2527 114.878 41.4246 114.674 41.7683C114.57 41.9454 114.518 42.185 114.518 42.4871V42.8542H113.104V42.4792C113.104 41.672 113.372 41.0782 113.909 40.698C114.451 40.3178 115.258 40.1277 116.331 40.1277C117.404 40.1277 118.169 40.3725 118.628 40.8621C119.086 41.3464 119.315 42.0391 119.315 42.9402V46.4714C119.315 46.9037 119.37 47.185 119.479 47.3152C119.589 47.4402 119.823 47.5027 120.182 47.5027L120.01 48.6277H119.714C119.193 48.6277 118.805 48.5287 118.549 48.3308C118.294 48.1277 118.099 47.8152 117.964 47.3933C117.531 48.0391 117.01 48.4454 116.401 48.6121C116.109 48.6954 115.784 48.7371 115.424 48.7371ZM116.159 44.9089C115.419 45.1225 114.906 45.336 114.62 45.5496C114.339 45.7631 114.198 46.0652 114.198 46.4558C114.198 46.8412 114.328 47.1329 114.589 47.3308C114.854 47.5287 115.172 47.6277 115.542 47.6277C115.917 47.6277 116.255 47.5808 116.557 47.4871C116.859 47.3881 117.13 47.2449 117.37 47.0574C117.615 46.8647 117.773 46.6459 117.846 46.4011V44.0105C117.466 44.3907 116.904 44.6902 116.159 44.9089ZM124.831 47.6121C125.94 47.6121 126.495 47.198 126.495 46.3699C126.495 46.0105 126.445 45.7449 126.346 45.573C126.247 45.3959 126.016 45.2397 125.651 45.1042L123.682 44.3777C123.078 44.1641 122.656 43.9115 122.417 43.6199C122.182 43.323 122.065 42.9532 122.065 42.5105C122.065 42.0678 122.109 41.7136 122.198 41.448C122.286 41.1772 122.432 40.9402 122.635 40.7371C123.042 40.3308 123.771 40.1277 124.823 40.1277C125.875 40.1277 126.781 40.2787 127.542 40.5808L127.206 41.7058C126.94 41.5964 126.591 41.4949 126.159 41.4011C125.727 41.3022 125.349 41.2527 125.026 41.2527C124.281 41.2527 123.81 41.3725 123.612 41.6121C123.492 41.7631 123.432 41.9845 123.432 42.2761C123.432 42.5678 123.479 42.7761 123.573 42.9011C123.672 43.0209 123.862 43.1303 124.143 43.2292L126.089 43.9949C126.766 44.2605 127.211 44.5548 127.424 44.8777C127.638 45.1954 127.745 45.698 127.745 46.3855C127.745 47.073 127.523 47.6381 127.081 48.0808C126.638 48.5183 125.953 48.7371 125.026 48.7371C124.349 48.7371 123.747 48.6641 123.221 48.5183C122.695 48.3725 122.292 48.2214 122.01 48.0652L122.37 46.9871C123.115 47.4037 123.935 47.6121 124.831 47.6121ZM133.932 48.6277C132.776 48.6277 131.94 48.4454 131.424 48.0808C130.914 47.7162 130.659 47.0886 130.659 46.198V41.3933H129.276V40.2839H130.714L130.893 37.7214H132.128V40.2839H134.206V41.3933H132.128V46.1042C132.128 46.6251 132.276 46.9714 132.573 47.1433C132.875 47.31 133.398 47.3933 134.143 47.3933H134.307L134.151 48.6277H133.932ZM137.839 46.2292C137.839 47.1511 138.492 47.6121 139.799 47.6121C141.107 47.6121 141.76 47.1511 141.76 46.2292V42.6433C141.76 41.7162 141.107 41.2527 139.799 41.2527C138.492 41.2527 137.839 41.7162 137.839 42.6433V46.2292ZM143.229 46.1042C143.229 46.9167 142.951 47.56 142.393 48.0339C141.841 48.5027 140.974 48.7371 139.792 48.7371C138.609 48.7371 137.742 48.5027 137.19 48.0339C136.643 47.5652 136.37 46.922 136.37 46.1042V42.7683C136.37 41.9506 136.643 41.3074 137.19 40.8386C137.742 40.3647 138.609 40.1277 139.792 40.1277C140.974 40.1277 141.841 40.3647 142.393 40.8386C142.951 41.3126 143.229 41.9558 143.229 42.7683V46.1042ZM144.635 51.323L144.487 50.1042H144.714C145.245 50.1042 145.599 50.0339 145.776 49.8933C145.953 49.7579 146.068 49.5886 146.12 49.3855C146.172 49.1876 146.198 48.9246 146.198 48.5964V40.2839H147.667V48.5105C147.667 49.8699 147.354 50.711 146.729 51.0339C146.359 51.2266 145.833 51.323 145.151 51.323H144.635ZM146.198 38.7917V37.2683H147.667V38.7917H146.198ZM152.768 48.7371C151.93 48.7371 151.279 48.5105 150.815 48.0574C150.352 47.599 150.12 47.0313 150.12 46.3542C150.12 45.9688 150.201 45.6485 150.362 45.3933C150.69 44.8725 151.669 44.3751 153.299 43.9011C154.242 43.6407 154.784 43.4167 154.924 43.2292C155.07 43.0417 155.151 42.8959 155.167 42.7917C155.182 42.6824 155.19 42.5105 155.19 42.2761C155.19 42.0417 155.094 41.8126 154.901 41.5886C154.714 41.3647 154.302 41.2527 153.667 41.2527C152.771 41.2527 152.221 41.4246 152.018 41.7683C151.914 41.9454 151.862 42.185 151.862 42.4871V42.8542H150.448V42.4792C150.448 41.672 150.716 41.0782 151.253 40.698C151.794 40.3178 152.602 40.1277 153.674 40.1277C154.747 40.1277 155.513 40.3725 155.971 40.8621C156.43 41.3464 156.659 42.0391 156.659 42.9402V46.4714C156.659 46.9037 156.714 47.185 156.823 47.3152C156.932 47.4402 157.167 47.5027 157.526 47.5027L157.354 48.6277H157.057C156.536 48.6277 156.148 48.5287 155.893 48.3308C155.638 48.1277 155.443 47.8152 155.307 47.3933C154.875 48.0391 154.354 48.4454 153.745 48.6121C153.453 48.6954 153.128 48.7371 152.768 48.7371ZM153.503 44.9089C152.763 45.1225 152.25 45.336 151.964 45.5496C151.682 45.7631 151.542 46.0652 151.542 46.4558C151.542 46.8412 151.672 47.1329 151.932 47.3308C152.198 47.5287 152.516 47.6277 152.885 47.6277C153.26 47.6277 153.599 47.5808 153.901 47.4871C154.203 47.3881 154.474 47.2449 154.714 47.0574C154.958 46.8647 155.117 46.6459 155.19 46.4011V44.0105C154.81 44.3907 154.247 44.6902 153.503 44.9089ZM164.979 42.4636C164.979 41.6563 164.362 41.2527 163.128 41.2527C162.518 41.2527 162.039 41.3829 161.69 41.6433C161.341 41.9037 161.167 42.2449 161.167 42.6667V48.5652H159.698V40.2839H161.167V41.0886C161.719 40.448 162.536 40.1277 163.62 40.1277C165.026 40.1277 165.917 40.6225 166.292 41.6121C166.396 41.8933 166.448 42.2058 166.448 42.5496V48.5652H164.979V42.4636ZM168.073 51.323L167.924 50.1042H168.151C168.682 50.1042 169.036 50.0339 169.214 49.8933C169.391 49.7579 169.505 49.5886 169.557 49.3855C169.609 49.1876 169.635 48.9246 169.635 48.5964V40.2839H171.104V48.5105C171.104 49.8699 170.792 50.711 170.167 51.0339C169.797 51.2266 169.271 51.323 168.589 51.323H168.073ZM169.635 38.7917V37.2683H171.104V38.7917H169.635ZM177.128 48.7371C175.914 48.7371 175.036 48.4845 174.495 47.9792C173.953 47.474 173.682 46.6954 173.682 45.6433V42.7605C173.682 41.9428 173.961 41.2996 174.518 40.8308C175.076 40.3621 175.917 40.1277 177.042 40.1277C178.172 40.1277 179.01 40.3464 179.557 40.7839C180.109 41.2162 180.385 41.836 180.385 42.6433V44.6121H175.151V45.7761C175.151 46.4636 175.289 46.9428 175.565 47.2136C175.841 47.4792 176.339 47.6121 177.057 47.6121C177.776 47.6121 178.182 47.5964 178.276 47.5652C178.37 47.5339 178.466 47.4975 178.565 47.4558C178.664 47.4141 178.732 47.3647 178.768 47.3074C178.81 47.2501 178.862 47.1641 178.924 47.0496C178.992 46.9298 179.042 46.7006 179.073 46.3621H180.37C180.318 46.8569 180.229 47.2553 180.104 47.5574C179.984 47.8595 179.792 48.1016 179.526 48.2839C179.266 48.461 178.951 48.5808 178.581 48.6433C178.216 48.7058 177.732 48.7371 177.128 48.7371ZM175.151 43.6199H178.964V42.4871C178.964 42.0183 178.802 41.6954 178.479 41.5183C178.161 41.3412 177.693 41.2527 177.073 41.2527C176.453 41.2527 175.977 41.3595 175.643 41.573C175.315 41.7865 175.151 42.1381 175.151 42.6277V43.6199ZM186.604 49.7371C185.891 49.7371 185.242 49.6355 184.659 49.4324C184.299 49.3074 183.932 49.0287 183.557 48.5964C183.37 48.3829 183.219 48.0417 183.104 47.573C182.99 47.099 182.93 46.6589 182.924 46.2527C182.919 45.8464 182.917 45.4714 182.917 45.1277V41.073C182.917 40.0209 182.943 39.3699 182.995 39.1199C183.047 38.8647 183.102 38.6173 183.159 38.3777C183.216 38.1329 183.292 37.9402 183.385 37.7996C183.479 37.6537 183.591 37.4923 183.721 37.3152C183.852 37.1329 184.008 36.9923 184.19 36.8933C184.372 36.7891 184.628 36.6694 184.956 36.5339C185.289 36.3933 185.839 36.323 186.604 36.323V37.5027C185.687 37.5027 185.096 37.7266 184.831 38.1746C184.727 38.3516 184.63 38.547 184.542 38.7605C184.458 38.974 184.417 39.6485 184.417 40.7839V45.3699C184.417 46.4897 184.458 47.1537 184.542 47.3621C184.75 47.8673 184.977 48.1772 185.221 48.2917C185.612 48.474 186.073 48.5652 186.604 48.5652V49.7371ZM188.073 48.5652L191.018 44.4011L188.12 40.2839H189.596L191.753 43.3621L193.932 40.2839H195.346L192.464 44.3855L195.385 48.5652H193.956L191.745 45.4167L189.534 48.5652H188.073ZM197.987 51.2058L197.354 50.8621C197.865 50.2475 198.187 49.7214 198.323 49.2839C198.396 49.0444 198.43 48.8048 198.424 48.5652H197.323V46.7449H199.331V48.1746C199.331 49.0756 199.018 49.935 198.393 50.7527C198.258 50.9298 198.122 51.0808 197.987 51.2058ZM206.385 51.7371V50.5886C207.031 50.5886 207.552 50.4298 207.948 50.1121C208.349 49.7944 208.648 49.2683 208.846 48.5339L205.432 40.2839H206.987L209.518 46.8777L211.635 40.2839H213.12L210.401 48.2136C210.042 49.2605 209.716 49.9845 209.424 50.3855C209.138 50.7917 208.862 51.0756 208.596 51.2371C208.049 51.5704 207.312 51.7371 206.385 51.7371ZM214.542 49.7371V48.5574C215.458 48.5626 216.049 48.3412 216.315 47.8933C216.419 47.7162 216.513 47.5209 216.596 47.3074C216.685 47.0886 216.729 46.4115 216.729 45.2761V40.6902C216.729 39.5704 216.687 38.9063 216.604 38.698C216.396 38.1928 216.169 37.8829 215.924 37.7683C215.534 37.586 215.073 37.4949 214.542 37.4949V36.323C215.255 36.323 215.904 36.4246 216.487 36.6277C216.846 36.7527 217.214 37.0313 217.589 37.4636C217.776 37.6772 217.927 38.0209 218.042 38.4949C218.156 38.9636 218.216 39.4011 218.221 39.8074C218.227 40.2136 218.229 40.5886 218.229 40.9324V44.9871C218.229 46.0391 218.203 46.6928 218.151 46.948C218.099 47.198 218.044 47.4454 217.987 47.6902C217.93 47.9298 217.854 48.1225 217.76 48.2683C217.667 48.4089 217.555 48.5678 217.424 48.7449C217.294 48.9272 217.138 49.0678 216.956 49.1667C216.773 49.2709 216.516 49.3907 216.182 49.5261C215.854 49.6667 215.307 49.7371 214.542 49.7371Z" fill="#C9D1D9"/>
<path d="M248.667 49.8699V36.4167H250.057V49.8699H248.667ZM254.057 49.8699V36.4167H255.448V49.8699H254.057ZM257.948 48.5652L260.893 44.4011L257.995 40.2839H259.471L261.628 43.3621L263.807 40.2839H265.221L262.339 44.3855L265.26 48.5652H263.831L261.62 45.4167L259.409 48.5652H257.948ZM267.698 49.8699V36.4167H269.089V49.8699H267.698ZM276.354 44.7058V43.5496H281.823V44.7058H276.354ZM289.089 49.8699V36.4167H290.479V49.8699H289.089ZM294.026 51.7371V50.5886C294.672 50.5886 295.193 50.4298 295.589 50.1121C295.99 49.7944 296.289 49.2683 296.487 48.5339L293.073 40.2839H294.628L297.159 46.8777L299.276 40.2839H300.76L298.042 48.2136C297.682 49.2605 297.357 49.9845 297.065 50.3855C296.779 50.7917 296.503 51.0756 296.237 51.2371C295.69 51.5704 294.953 51.7371 294.026 51.7371ZM303.214 49.8699V36.4167H304.604V49.8699H303.214ZM308.604 49.8699V36.4167H309.995V49.8699H308.604Z" fill="#C9D1D9"/>
<path d="M230.526 47.0869L237.448 43.4072V41.8369L230.526 38.1494V39.7354L236.237 42.6104L230.526 45.4541V47.0869Z" fill="#C9D1D9"/>
<path d="M237.333 48.7827L230.667 52.4784" stroke="#C9D1D9"/>
</svg>
