<svg width="811" height="190" viewBox="0 0 811 190" fill="none" xmlns="http://www.w3.org/2000/svg">
<g filter="url(#filter0_d)">
<rect x="6" width="233" height="182" fill="white"/>
<path d="M11.4199 77.9238C11.6413 77.9238 11.8496 77.9661 12.0449 78.0508C12.2467 78.1354 12.4193 78.2526 12.5625 78.4023C12.7122 78.5521 12.8294 78.7279 12.9141 78.9297C12.9987 79.125 13.041 79.3366 13.041 79.5645C13.041 79.7858 12.9987 79.9941 12.9141 80.1895C12.8294 80.3848 12.7122 80.5573 12.5625 80.707C12.4193 80.8503 12.2467 80.9642 12.0449 81.0488C11.8496 81.1335 11.6413 81.1758 11.4199 81.1758C11.1921 81.1758 10.9805 81.1335 10.7852 81.0488C10.5898 80.9642 10.4173 80.8503 10.2676 80.707C10.1243 80.5573 10.0104 80.3848 9.92578 80.1895C9.84115 79.9941 9.79883 79.7858 9.79883 79.5645C9.79883 79.3366 9.84115 79.125 9.92578 78.9297C10.0104 78.7279 10.1243 78.5521 10.2676 78.4023C10.4173 78.2526 10.5898 78.1354 10.7852 78.0508C10.9805 77.9661 11.1921 77.9238 11.4199 77.9238ZM22.416 77.9238C22.6374 77.9238 22.8457 77.9661 23.041 78.0508C23.2428 78.1354 23.4154 78.2526 23.5586 78.4023C23.7083 78.5521 23.8255 78.7279 23.9102 78.9297C23.9948 79.125 24.0371 79.3366 24.0371 79.5645C24.0371 79.7858 23.9948 79.9941 23.9102 80.1895C23.8255 80.3848 23.7083 80.5573 23.5586 80.707C23.4154 80.8503 23.2428 80.9642 23.041 81.0488C22.8457 81.1335 22.6374 81.1758 22.416 81.1758C22.1882 81.1758 21.9766 81.1335 21.7812 81.0488C21.5859 80.9642 21.4134 80.8503 21.2637 80.707C21.1204 80.5573 21.0065 80.3848 20.9219 80.1895C20.8372 79.9941 20.7949 79.7858 20.7949 79.5645C20.7949 79.3366 20.8372 79.125 20.9219 78.9297C21.0065 78.7279 21.1204 78.5521 21.2637 78.4023C21.4134 78.2526 21.5859 78.1354 21.7812 78.0508C21.9766 77.9661 22.1882 77.9238 22.416 77.9238ZM33.4121 77.9238C33.6335 77.9238 33.8418 77.9661 34.0371 78.0508C34.2389 78.1354 34.4115 78.2526 34.5547 78.4023C34.7044 78.5521 34.8216 78.7279 34.9062 78.9297C34.9909 79.125 35.0332 79.3366 35.0332 79.5645C35.0332 79.7858 34.9909 79.9941 34.9062 80.1895C34.8216 80.3848 34.7044 80.5573 34.5547 80.707C34.4115 80.8503 34.2389 80.9642 34.0371 81.0488C33.8418 81.1335 33.6335 81.1758 33.4121 81.1758C33.1842 81.1758 32.9727 81.1335 32.7773 81.0488C32.582 80.9642 32.4095 80.8503 32.2598 80.707C32.1165 80.5573 32.0026 80.3848 31.918 80.1895C31.8333 79.9941 31.791 79.7858 31.791 79.5645C31.791 79.3366 31.8333 79.125 31.918 78.9297C32.0026 78.7279 32.1165 78.5521 32.2598 78.4023C32.4095 78.2526 32.582 78.1354 32.7773 78.0508C32.9727 77.9661 33.1842 77.9238 33.4121 77.9238ZM48.8125 70.4238C48.3372 70.1699 47.849 69.9746 47.3477 69.8379C46.8464 69.6947 46.2995 69.623 45.707 69.623C45.0299 69.623 44.4277 69.7435 43.9004 69.9844C43.373 70.2253 42.9271 70.5671 42.5625 71.0098C42.2044 71.446 41.9277 71.9733 41.7324 72.5918C41.5436 73.2103 41.4492 73.8939 41.4492 74.6426C41.4492 75.4238 41.5273 76.1237 41.6836 76.7422C41.8398 77.3607 42.084 77.8848 42.416 78.3145C42.748 78.7441 43.1712 79.0729 43.6855 79.3008C44.2064 79.5286 44.8281 79.6426 45.5508 79.6426C45.6745 79.6426 45.8079 79.6361 45.9512 79.623C46.0944 79.61 46.2376 79.5938 46.3809 79.5742C46.5241 79.5482 46.6608 79.5189 46.791 79.4863C46.9277 79.4538 47.0482 79.418 47.1523 79.3789V75.3164H44.5449V73.8809H48.8711V80.4043C48.6042 80.528 48.321 80.6387 48.0215 80.7363C47.7285 80.834 47.4258 80.9154 47.1133 80.9805C46.8073 81.0456 46.5013 81.0944 46.1953 81.127C45.8893 81.1595 45.5931 81.1758 45.3066 81.1758C44.4342 81.1758 43.6465 81.0391 42.9434 80.7656C42.2467 80.4922 41.651 80.0885 41.1562 79.5547C40.668 79.0143 40.2904 78.3438 40.0234 77.543C39.763 76.7422 39.6328 75.8145 39.6328 74.7598C39.6328 73.7116 39.7793 72.7741 40.0723 71.9473C40.3652 71.1139 40.7754 70.4108 41.3027 69.8379C41.8366 69.2585 42.4746 68.819 43.2168 68.5195C43.9655 68.2135 44.7891 68.0605 45.6875 68.0605C46.2604 68.0605 46.804 68.1126 47.3184 68.2168C47.8392 68.3145 48.3372 68.474 48.8125 68.6953V70.4238ZM59.8086 70.4238C59.3333 70.1699 58.8451 69.9746 58.3438 69.8379C57.8424 69.6947 57.2956 69.623 56.7031 69.623C56.026 69.623 55.4238 69.7435 54.8965 69.9844C54.3691 70.2253 53.9232 70.5671 53.5586 71.0098C53.2005 71.446 52.9238 71.9733 52.7285 72.5918C52.5397 73.2103 52.4453 73.8939 52.4453 74.6426C52.4453 75.4238 52.5234 76.1237 52.6797 76.7422C52.8359 77.3607 53.0801 77.8848 53.4121 78.3145C53.7441 78.7441 54.1673 79.0729 54.6816 79.3008C55.2025 79.5286 55.8242 79.6426 56.5469 79.6426C56.6706 79.6426 56.804 79.6361 56.9473 79.623C57.0905 79.61 57.2337 79.5938 57.377 79.5742C57.5202 79.5482 57.6569 79.5189 57.7871 79.4863C57.9238 79.4538 58.0443 79.418 58.1484 79.3789V75.3164H55.541V73.8809H59.8672V80.4043C59.6003 80.528 59.3171 80.6387 59.0176 80.7363C58.7246 80.834 58.4219 80.9154 58.1094 80.9805C57.8034 81.0456 57.4974 81.0944 57.1914 81.127C56.8854 81.1595 56.5892 81.1758 56.3027 81.1758C55.4303 81.1758 54.6426 81.0391 53.9395 80.7656C53.2428 80.4922 52.6471 80.0885 52.1523 79.5547C51.6641 79.0143 51.2865 78.3438 51.0195 77.543C50.7591 76.7422 50.6289 75.8145 50.6289 74.7598C50.6289 73.7116 50.7754 72.7741 51.0684 71.9473C51.3613 71.1139 51.7715 70.4108 52.2988 69.8379C52.8327 69.2585 53.4707 68.819 54.2129 68.5195C54.9616 68.2135 55.7852 68.0605 56.6836 68.0605C57.2565 68.0605 57.8001 68.1126 58.3145 68.2168C58.8353 68.3145 59.3333 68.474 59.8086 68.6953V70.4238ZM70.6973 80.5215C69.6751 80.9447 68.6042 81.1562 67.4844 81.1562C65.681 81.1562 64.2943 80.6191 63.3242 79.5449C62.3607 78.4642 61.8789 76.8691 61.8789 74.7598C61.8789 73.7376 62.0124 72.8132 62.2793 71.9863C62.5462 71.1595 62.9271 70.4596 63.4219 69.8867C63.9167 69.3073 64.5156 68.8613 65.2188 68.5488C65.9219 68.2363 66.7096 68.0801 67.582 68.0801C68.1745 68.0801 68.7246 68.1322 69.2324 68.2363C69.7402 68.334 70.2285 68.487 70.6973 68.6953V70.4043C70.235 70.1504 69.7565 69.9583 69.2617 69.8281C68.7669 69.6914 68.2266 69.623 67.6406 69.623C67.0417 69.623 66.498 69.737 66.0098 69.9648C65.528 70.1862 65.1178 70.5117 64.7793 70.9414C64.4408 71.3646 64.1803 71.8854 63.998 72.5039C63.8158 73.1159 63.7246 73.8158 63.7246 74.6035C63.7246 76.2572 64.0599 77.5039 64.7305 78.3438C65.401 79.1836 66.3841 79.6035 67.6797 79.6035C68.2266 79.6035 68.7507 79.5417 69.252 79.418C69.7533 79.2878 70.235 79.1087 70.6973 78.8809V80.5215ZM81.6934 80.5215C80.6712 80.9447 79.6003 81.1562 78.4805 81.1562C76.6771 81.1562 75.2904 80.6191 74.3203 79.5449C73.3568 78.4642 72.875 76.8691 72.875 74.7598C72.875 73.7376 73.0085 72.8132 73.2754 71.9863C73.5423 71.1595 73.9232 70.4596 74.418 69.8867C74.9128 69.3073 75.5117 68.8613 76.2148 68.5488C76.918 68.2363 77.7057 68.0801 78.5781 68.0801C79.1706 68.0801 79.7207 68.1322 80.2285 68.2363C80.7363 68.334 81.2246 68.487 81.6934 68.6953V70.4043C81.2311 70.1504 80.7526 69.9583 80.2578 69.8281C79.763 69.6914 79.2227 69.623 78.6367 69.623C78.0378 69.623 77.4941 69.737 77.0059 69.9648C76.5241 70.1862 76.1139 70.5117 75.7754 70.9414C75.4368 71.3646 75.1764 71.8854 74.9941 72.5039C74.8118 73.1159 74.7207 73.8158 74.7207 74.6035C74.7207 76.2572 75.056 77.5039 75.7266 78.3438C76.3971 79.1836 77.3802 79.6035 78.6758 79.6035C79.2227 79.6035 79.7467 79.5417 80.248 79.418C80.7493 79.2878 81.2311 79.1087 81.6934 78.8809V80.5215ZM92.7969 70.4238C92.3216 70.1699 91.8333 69.9746 91.332 69.8379C90.8307 69.6947 90.2839 69.623 89.6914 69.623C89.0143 69.623 88.4121 69.7435 87.8848 69.9844C87.3574 70.2253 86.9115 70.5671 86.5469 71.0098C86.1888 71.446 85.9121 71.9733 85.7168 72.5918C85.528 73.2103 85.4336 73.8939 85.4336 74.6426C85.4336 75.4238 85.5117 76.1237 85.668 76.7422C85.8242 77.3607 86.0684 77.8848 86.4004 78.3145C86.7324 78.7441 87.1556 79.0729 87.6699 79.3008C88.1908 79.5286 88.8125 79.6426 89.5352 79.6426C89.6589 79.6426 89.7923 79.6361 89.9355 79.623C90.0788 79.61 90.222 79.5938 90.3652 79.5742C90.5085 79.5482 90.6452 79.5189 90.7754 79.4863C90.9121 79.4538 91.0326 79.418 91.1367 79.3789V75.3164H88.5293V73.8809H92.8555V80.4043C92.5885 80.528 92.3053 80.6387 92.0059 80.7363C91.7129 80.834 91.4102 80.9154 91.0977 80.9805C90.7917 81.0456 90.4857 81.0944 90.1797 81.127C89.8737 81.1595 89.5775 81.1758 89.291 81.1758C88.4186 81.1758 87.6309 81.0391 86.9277 80.7656C86.2311 80.4922 85.6354 80.0885 85.1406 79.5547C84.6523 79.0143 84.2747 78.3438 84.0078 77.543C83.7474 76.7422 83.6172 75.8145 83.6172 74.7598C83.6172 73.7116 83.7637 72.7741 84.0566 71.9473C84.3496 71.1139 84.7598 70.4108 85.2871 69.8379C85.821 69.2585 86.459 68.819 87.2012 68.5195C87.9499 68.2135 88.7734 68.0605 89.6719 68.0605C90.2448 68.0605 90.7884 68.1126 91.3027 68.2168C91.8236 68.3145 92.3216 68.474 92.7969 68.6953V70.4238ZM103.686 80.5215C102.663 80.9447 101.592 81.1562 100.473 81.1562C98.6693 81.1562 97.2826 80.6191 96.3125 79.5449C95.349 78.4642 94.8672 76.8691 94.8672 74.7598C94.8672 73.7376 95.0007 72.8132 95.2676 71.9863C95.5345 71.1595 95.9154 70.4596 96.4102 69.8867C96.9049 69.3073 97.5039 68.8613 98.207 68.5488C98.9102 68.2363 99.6979 68.0801 100.57 68.0801C101.163 68.0801 101.713 68.1322 102.221 68.2363C102.729 68.334 103.217 68.487 103.686 68.6953V70.4043C103.223 70.1504 102.745 69.9583 102.25 69.8281C101.755 69.6914 101.215 69.623 100.629 69.623C100.03 69.623 99.4863 69.737 98.998 69.9648C98.5163 70.1862 98.1061 70.5117 97.7676 70.9414C97.429 71.3646 97.1686 71.8854 96.9863 72.5039C96.804 73.1159 96.7129 73.8158 96.7129 74.6035C96.7129 76.2572 97.0482 77.5039 97.7188 78.3438C98.3893 79.1836 99.3724 79.6035 100.668 79.6035C101.215 79.6035 101.739 79.5417 102.24 79.418C102.742 79.2878 103.223 79.1087 103.686 78.8809V80.5215ZM114.789 70.4238C114.314 70.1699 113.826 69.9746 113.324 69.8379C112.823 69.6947 112.276 69.623 111.684 69.623C111.007 69.623 110.404 69.7435 109.877 69.9844C109.35 70.2253 108.904 70.5671 108.539 71.0098C108.181 71.446 107.904 71.9733 107.709 72.5918C107.52 73.2103 107.426 73.8939 107.426 74.6426C107.426 75.4238 107.504 76.1237 107.66 76.7422C107.816 77.3607 108.061 77.8848 108.393 78.3145C108.725 78.7441 109.148 79.0729 109.662 79.3008C110.183 79.5286 110.805 79.6426 111.527 79.6426C111.651 79.6426 111.785 79.6361 111.928 79.623C112.071 79.61 112.214 79.5938 112.357 79.5742C112.501 79.5482 112.637 79.5189 112.768 79.4863C112.904 79.4538 113.025 79.418 113.129 79.3789V75.3164H110.521V73.8809H114.848V80.4043C114.581 80.528 114.298 80.6387 113.998 80.7363C113.705 80.834 113.402 80.9154 113.09 80.9805C112.784 81.0456 112.478 81.0944 112.172 81.127C111.866 81.1595 111.57 81.1758 111.283 81.1758C110.411 81.1758 109.623 81.0391 108.92 80.7656C108.223 80.4922 107.628 80.0885 107.133 79.5547C106.645 79.0143 106.267 78.3438 106 77.543C105.74 76.7422 105.609 75.8145 105.609 74.7598C105.609 73.7116 105.756 72.7741 106.049 71.9473C106.342 71.1139 106.752 70.4108 107.279 69.8379C107.813 69.2585 108.451 68.819 109.193 68.5195C109.942 68.2135 110.766 68.0605 111.664 68.0605C112.237 68.0605 112.781 68.1126 113.295 68.2168C113.816 68.3145 114.314 68.474 114.789 68.6953V70.4238ZM125.678 80.5215C124.656 80.9447 123.585 81.1562 122.465 81.1562C120.661 81.1562 119.275 80.6191 118.305 79.5449C117.341 78.4642 116.859 76.8691 116.859 74.7598C116.859 73.7376 116.993 72.8132 117.26 71.9863C117.527 71.1595 117.908 70.4596 118.402 69.8867C118.897 69.3073 119.496 68.8613 120.199 68.5488C120.902 68.2363 121.69 68.0801 122.562 68.0801C123.155 68.0801 123.705 68.1322 124.213 68.2363C124.721 68.334 125.209 68.487 125.678 68.6953V70.4043C125.215 70.1504 124.737 69.9583 124.242 69.8281C123.747 69.6914 123.207 69.623 122.621 69.623C122.022 69.623 121.479 69.737 120.99 69.9648C120.508 70.1862 120.098 70.5117 119.76 70.9414C119.421 71.3646 119.161 71.8854 118.979 72.5039C118.796 73.1159 118.705 73.8158 118.705 74.6035C118.705 76.2572 119.04 77.5039 119.711 78.3438C120.382 79.1836 121.365 79.6035 122.66 79.6035C123.207 79.6035 123.731 79.5417 124.232 79.418C124.734 79.2878 125.215 79.1087 125.678 78.8809V80.5215ZM137.855 81H135.961L135.072 78.2168H129.76L128.861 81H127.055L131.293 68.2363H133.676L137.855 81ZM134.574 76.6641L132.416 69.8379L130.258 76.6641H134.574ZM148.852 81H146.957L146.068 78.2168H140.756L139.857 81H138.051L142.289 68.2363H144.672L148.852 81ZM145.57 76.6641L143.412 69.8379L141.254 76.6641H145.57ZM159.848 81H157.953L157.064 78.2168H151.752L150.854 81H149.047L153.285 68.2363H155.668L159.848 81ZM156.566 76.6641L154.408 69.8379L152.25 76.6641H156.566ZM170.844 81H168.949L168.061 78.2168H162.748L161.85 81H160.043L164.281 68.2363H166.664L170.844 81ZM167.562 76.6641L165.404 69.8379L163.246 76.6641H167.562ZM181.84 81H179.945L179.057 78.2168H173.744L172.846 81H171.039L175.277 68.2363H177.66L181.84 81ZM178.559 76.6641L176.4 69.8379L174.242 76.6641H178.559ZM191.654 80.5215C190.632 80.9447 189.561 81.1562 188.441 81.1562C186.638 81.1562 185.251 80.6191 184.281 79.5449C183.318 78.4642 182.836 76.8691 182.836 74.7598C182.836 73.7376 182.969 72.8132 183.236 71.9863C183.503 71.1595 183.884 70.4596 184.379 69.8867C184.874 69.3073 185.473 68.8613 186.176 68.5488C186.879 68.2363 187.667 68.0801 188.539 68.0801C189.132 68.0801 189.682 68.1322 190.189 68.2363C190.697 68.334 191.186 68.487 191.654 68.6953V70.4043C191.192 70.1504 190.714 69.9583 190.219 69.8281C189.724 69.6914 189.184 69.623 188.598 69.623C187.999 69.623 187.455 69.737 186.967 69.9648C186.485 70.1862 186.075 70.5117 185.736 70.9414C185.398 71.3646 185.137 71.8854 184.955 72.5039C184.773 73.1159 184.682 73.8158 184.682 74.6035C184.682 76.2572 185.017 77.5039 185.688 78.3438C186.358 79.1836 187.341 79.6035 188.637 79.6035C189.184 79.6035 189.708 79.5417 190.209 79.418C190.71 79.2878 191.192 79.1087 191.654 78.8809V80.5215ZM203.832 81H201.938L201.049 78.2168H195.736L194.838 81H193.031L197.27 68.2363H199.652L203.832 81ZM200.551 76.6641L198.393 69.8379L196.234 76.6641H200.551ZM213.754 70.4238C213.279 70.1699 212.79 69.9746 212.289 69.8379C211.788 69.6947 211.241 69.623 210.648 69.623C209.971 69.623 209.369 69.7435 208.842 69.9844C208.314 70.2253 207.868 70.5671 207.504 71.0098C207.146 71.446 206.869 71.9733 206.674 72.5918C206.485 73.2103 206.391 73.8939 206.391 74.6426C206.391 75.4238 206.469 76.1237 206.625 76.7422C206.781 77.3607 207.025 77.8848 207.357 78.3145C207.689 78.7441 208.113 79.0729 208.627 79.3008C209.148 79.5286 209.77 79.6426 210.492 79.6426C210.616 79.6426 210.749 79.6361 210.893 79.623C211.036 79.61 211.179 79.5938 211.322 79.5742C211.465 79.5482 211.602 79.5189 211.732 79.4863C211.869 79.4538 211.99 79.418 212.094 79.3789V75.3164H209.486V73.8809H213.812V80.4043C213.546 80.528 213.262 80.6387 212.963 80.7363C212.67 80.834 212.367 80.9154 212.055 80.9805C211.749 81.0456 211.443 81.0944 211.137 81.127C210.831 81.1595 210.535 81.1758 210.248 81.1758C209.376 81.1758 208.588 81.0391 207.885 80.7656C207.188 80.4922 206.592 80.0885 206.098 79.5547C205.609 79.0143 205.232 78.3438 204.965 77.543C204.704 76.7422 204.574 75.8145 204.574 74.7598C204.574 73.7116 204.721 72.7741 205.014 71.9473C205.307 71.1139 205.717 70.4108 206.244 69.8379C206.778 69.2585 207.416 68.819 208.158 68.5195C208.907 68.2135 209.73 68.0605 210.629 68.0605C211.202 68.0605 211.745 68.1126 212.26 68.2168C212.781 68.3145 213.279 68.474 213.754 68.6953V70.4238ZM11.4199 123.924C11.6413 123.924 11.8496 123.966 12.0449 124.051C12.2467 124.135 12.4193 124.253 12.5625 124.402C12.7122 124.552 12.8294 124.728 12.9141 124.93C12.9987 125.125 13.041 125.337 13.041 125.564C13.041 125.786 12.9987 125.994 12.9141 126.189C12.8294 126.385 12.7122 126.557 12.5625 126.707C12.4193 126.85 12.2467 126.964 12.0449 127.049C11.8496 127.133 11.6413 127.176 11.4199 127.176C11.1921 127.176 10.9805 127.133 10.7852 127.049C10.5898 126.964 10.4173 126.85 10.2676 126.707C10.1243 126.557 10.0104 126.385 9.92578 126.189C9.84115 125.994 9.79883 125.786 9.79883 125.564C9.79883 125.337 9.84115 125.125 9.92578 124.93C10.0104 124.728 10.1243 124.552 10.2676 124.402C10.4173 124.253 10.5898 124.135 10.7852 124.051C10.9805 123.966 11.1921 123.924 11.4199 123.924ZM22.416 123.924C22.6374 123.924 22.8457 123.966 23.041 124.051C23.2428 124.135 23.4154 124.253 23.5586 124.402C23.7083 124.552 23.8255 124.728 23.9102 124.93C23.9948 125.125 24.0371 125.337 24.0371 125.564C24.0371 125.786 23.9948 125.994 23.9102 126.189C23.8255 126.385 23.7083 126.557 23.5586 126.707C23.4154 126.85 23.2428 126.964 23.041 127.049C22.8457 127.133 22.6374 127.176 22.416 127.176C22.1882 127.176 21.9766 127.133 21.7812 127.049C21.5859 126.964 21.4134 126.85 21.2637 126.707C21.1204 126.557 21.0065 126.385 20.9219 126.189C20.8372 125.994 20.7949 125.786 20.7949 125.564C20.7949 125.337 20.8372 125.125 20.9219 124.93C21.0065 124.728 21.1204 124.552 21.2637 124.402C21.4134 124.253 21.5859 124.135 21.7812 124.051C21.9766 123.966 22.1882 123.924 22.416 123.924ZM33.4121 123.924C33.6335 123.924 33.8418 123.966 34.0371 124.051C34.2389 124.135 34.4115 124.253 34.5547 124.402C34.7044 124.552 34.8216 124.728 34.9062 124.93C34.9909 125.125 35.0332 125.337 35.0332 125.564C35.0332 125.786 34.9909 125.994 34.9062 126.189C34.8216 126.385 34.7044 126.557 34.5547 126.707C34.4115 126.85 34.2389 126.964 34.0371 127.049C33.8418 127.133 33.6335 127.176 33.4121 127.176C33.1842 127.176 32.9727 127.133 32.7773 127.049C32.582 126.964 32.4095 126.85 32.2598 126.707C32.1165 126.557 32.0026 126.385 31.918 126.189C31.8333 125.994 31.791 125.786 31.791 125.564C31.791 125.337 31.8333 125.125 31.918 124.93C32.0026 124.728 32.1165 124.552 32.2598 124.402C32.4095 124.253 32.582 124.135 32.7773 124.051C32.9727 123.966 33.1842 123.924 33.4121 123.924ZM49.8867 127H47.9922L47.1035 124.217H41.791L40.8926 127H39.0859L43.3242 114.236H45.707L49.8867 127ZM46.6055 122.664L44.4473 115.838L42.2891 122.664H46.6055ZM60.1406 115.721H56.3613V127H54.6035V115.721H50.8242V114.236H60.1406V115.721ZM70.8047 116.424C70.3294 116.17 69.8411 115.975 69.3398 115.838C68.8385 115.695 68.2917 115.623 67.6992 115.623C67.0221 115.623 66.4199 115.743 65.8926 115.984C65.3652 116.225 64.9193 116.567 64.5547 117.01C64.1966 117.446 63.9199 117.973 63.7246 118.592C63.5358 119.21 63.4414 119.894 63.4414 120.643C63.4414 121.424 63.5195 122.124 63.6758 122.742C63.832 123.361 64.0762 123.885 64.4082 124.314C64.7402 124.744 65.1634 125.073 65.6777 125.301C66.1986 125.529 66.8203 125.643 67.543 125.643C67.6667 125.643 67.8001 125.636 67.9434 125.623C68.0866 125.61 68.2298 125.594 68.373 125.574C68.5163 125.548 68.653 125.519 68.7832 125.486C68.9199 125.454 69.0404 125.418 69.1445 125.379V121.316H66.5371V119.881H70.8633V126.404C70.5964 126.528 70.3132 126.639 70.0137 126.736C69.7207 126.834 69.418 126.915 69.1055 126.98C68.7995 127.046 68.4935 127.094 68.1875 127.127C67.8815 127.16 67.5853 127.176 67.2988 127.176C66.4264 127.176 65.6387 127.039 64.9355 126.766C64.2389 126.492 63.6432 126.089 63.1484 125.555C62.6602 125.014 62.2826 124.344 62.0156 123.543C61.7552 122.742 61.625 121.814 61.625 120.76C61.625 119.712 61.7715 118.774 62.0645 117.947C62.3574 117.114 62.7676 116.411 63.2949 115.838C63.8288 115.258 64.4668 114.819 65.209 114.52C65.9577 114.214 66.7812 114.061 67.6797 114.061C68.2526 114.061 68.7962 114.113 69.3105 114.217C69.8314 114.314 70.3294 114.474 70.8047 114.695V116.424ZM81.6934 126.521C80.6712 126.945 79.6003 127.156 78.4805 127.156C76.6771 127.156 75.2904 126.619 74.3203 125.545C73.3568 124.464 72.875 122.869 72.875 120.76C72.875 119.738 73.0085 118.813 73.2754 117.986C73.5423 117.16 73.9232 116.46 74.418 115.887C74.9128 115.307 75.5117 114.861 76.2148 114.549C76.918 114.236 77.7057 114.08 78.5781 114.08C79.1706 114.08 79.7207 114.132 80.2285 114.236C80.7363 114.334 81.2246 114.487 81.6934 114.695V116.404C81.2311 116.15 80.7526 115.958 80.2578 115.828C79.763 115.691 79.2227 115.623 78.6367 115.623C78.0378 115.623 77.4941 115.737 77.0059 115.965C76.5241 116.186 76.1139 116.512 75.7754 116.941C75.4368 117.365 75.1764 117.885 74.9941 118.504C74.8118 119.116 74.7207 119.816 74.7207 120.604C74.7207 122.257 75.056 123.504 75.7266 124.344C76.3971 125.184 77.3802 125.604 78.6758 125.604C79.2227 125.604 79.7467 125.542 80.248 125.418C80.7493 125.288 81.2311 125.109 81.6934 124.881V126.521ZM92.6895 126.521C91.6673 126.945 90.5964 127.156 89.4766 127.156C87.6732 127.156 86.2865 126.619 85.3164 125.545C84.3529 124.464 83.8711 122.869 83.8711 120.76C83.8711 119.738 84.0046 118.813 84.2715 117.986C84.5384 117.16 84.9193 116.46 85.4141 115.887C85.9089 115.307 86.5078 114.861 87.2109 114.549C87.9141 114.236 88.7018 114.08 89.5742 114.08C90.1667 114.08 90.7168 114.132 91.2246 114.236C91.7324 114.334 92.2207 114.487 92.6895 114.695V116.404C92.2272 116.15 91.7487 115.958 91.2539 115.828C90.7591 115.691 90.2188 115.623 89.6328 115.623C89.0339 115.623 88.4902 115.737 88.002 115.965C87.5202 116.186 87.11 116.512 86.7715 116.941C86.4329 117.365 86.1725 117.885 85.9902 118.504C85.8079 119.116 85.7168 119.816 85.7168 120.604C85.7168 122.257 86.0521 123.504 86.7227 124.344C87.3932 125.184 88.3763 125.604 89.6719 125.604C90.2188 125.604 90.7428 125.542 91.2441 125.418C91.7454 125.288 92.2272 125.109 92.6895 124.881V126.521ZM103.793 116.424C103.318 116.17 102.829 115.975 102.328 115.838C101.827 115.695 101.28 115.623 100.688 115.623C100.01 115.623 99.4082 115.743 98.8809 115.984C98.3535 116.225 97.9076 116.567 97.543 117.01C97.1849 117.446 96.9082 117.973 96.7129 118.592C96.5241 119.21 96.4297 119.894 96.4297 120.643C96.4297 121.424 96.5078 122.124 96.6641 122.742C96.8203 123.361 97.0645 123.885 97.3965 124.314C97.7285 124.744 98.1517 125.073 98.666 125.301C99.1868 125.529 99.8086 125.643 100.531 125.643C100.655 125.643 100.788 125.636 100.932 125.623C101.075 125.61 101.218 125.594 101.361 125.574C101.505 125.548 101.641 125.519 101.771 125.486C101.908 125.454 102.029 125.418 102.133 125.379V121.316H99.5254V119.881H103.852V126.404C103.585 126.528 103.301 126.639 103.002 126.736C102.709 126.834 102.406 126.915 102.094 126.98C101.788 127.046 101.482 127.094 101.176 127.127C100.87 127.16 100.574 127.176 100.287 127.176C99.4147 127.176 98.627 127.039 97.9238 126.766C97.2272 126.492 96.6315 126.089 96.1367 125.555C95.6484 125.014 95.2708 124.344 95.0039 123.543C94.7435 122.742 94.6133 121.814 94.6133 120.76C94.6133 119.712 94.7598 118.774 95.0527 117.947C95.3457 117.114 95.7559 116.411 96.2832 115.838C96.8171 115.258 97.4551 114.819 98.1973 114.52C98.946 114.214 99.7695 114.061 100.668 114.061C101.241 114.061 101.785 114.113 102.299 114.217C102.82 114.314 103.318 114.474 103.793 114.695V116.424ZM114.682 126.521C113.66 126.945 112.589 127.156 111.469 127.156C109.665 127.156 108.279 126.619 107.309 125.545C106.345 124.464 105.863 122.869 105.863 120.76C105.863 119.738 105.997 118.813 106.264 117.986C106.531 117.16 106.911 116.46 107.406 115.887C107.901 115.307 108.5 114.861 109.203 114.549C109.906 114.236 110.694 114.08 111.566 114.08C112.159 114.08 112.709 114.132 113.217 114.236C113.725 114.334 114.213 114.487 114.682 114.695V116.404C114.219 116.15 113.741 115.958 113.246 115.828C112.751 115.691 112.211 115.623 111.625 115.623C111.026 115.623 110.482 115.737 109.994 115.965C109.512 116.186 109.102 116.512 108.764 116.941C108.425 117.365 108.165 117.885 107.982 118.504C107.8 119.116 107.709 119.816 107.709 120.604C107.709 122.257 108.044 123.504 108.715 124.344C109.385 125.184 110.368 125.604 111.664 125.604C112.211 125.604 112.735 125.542 113.236 125.418C113.738 125.288 114.219 125.109 114.682 124.881V126.521ZM125.785 116.424C125.31 116.17 124.822 115.975 124.32 115.838C123.819 115.695 123.272 115.623 122.68 115.623C122.003 115.623 121.4 115.743 120.873 115.984C120.346 116.225 119.9 116.567 119.535 117.01C119.177 117.446 118.9 117.973 118.705 118.592C118.516 119.21 118.422 119.894 118.422 120.643C118.422 121.424 118.5 122.124 118.656 122.742C118.812 123.361 119.057 123.885 119.389 124.314C119.721 124.744 120.144 125.073 120.658 125.301C121.179 125.529 121.801 125.643 122.523 125.643C122.647 125.643 122.781 125.636 122.924 125.623C123.067 125.61 123.21 125.594 123.354 125.574C123.497 125.548 123.633 125.519 123.764 125.486C123.9 125.454 124.021 125.418 124.125 125.379V121.316H121.518V119.881H125.844V126.404C125.577 126.528 125.294 126.639 124.994 126.736C124.701 126.834 124.398 126.915 124.086 126.98C123.78 127.046 123.474 127.094 123.168 127.127C122.862 127.16 122.566 127.176 122.279 127.176C121.407 127.176 120.619 127.039 119.916 126.766C119.219 126.492 118.624 126.089 118.129 125.555C117.641 125.014 117.263 124.344 116.996 123.543C116.736 122.742 116.605 121.814 116.605 120.76C116.605 119.712 116.752 118.774 117.045 117.947C117.338 117.114 117.748 116.411 118.275 115.838C118.809 115.258 119.447 114.819 120.189 114.52C120.938 114.214 121.762 114.061 122.66 114.061C123.233 114.061 123.777 114.113 124.291 114.217C124.812 114.314 125.31 114.474 125.785 114.695V116.424ZM137.855 127H135.961L135.072 124.217H129.76L128.861 127H127.055L131.293 114.236H133.676L137.855 127ZM134.574 122.664L132.416 115.838L130.258 122.664H134.574ZM148.852 127H146.957L146.068 124.217H140.756L139.857 127H138.051L142.289 114.236H144.672L148.852 127ZM145.57 122.664L143.412 115.838L141.254 122.664H145.57ZM159.848 127H157.953L157.064 124.217H151.752L150.854 127H149.047L153.285 114.236H155.668L159.848 127ZM156.566 122.664L154.408 115.838L152.25 122.664H156.566ZM170.844 127H168.949L168.061 124.217H162.748L161.85 127H160.043L164.281 114.236H166.664L170.844 127ZM167.562 122.664L165.404 115.838L163.246 122.664H167.562ZM181.84 127H179.945L179.057 124.217H173.744L172.846 127H171.039L175.277 114.236H177.66L181.84 127ZM178.559 122.664L176.4 115.838L174.242 122.664H178.559ZM191.654 126.521C190.632 126.945 189.561 127.156 188.441 127.156C186.638 127.156 185.251 126.619 184.281 125.545C183.318 124.464 182.836 122.869 182.836 120.76C182.836 119.738 182.969 118.813 183.236 117.986C183.503 117.16 183.884 116.46 184.379 115.887C184.874 115.307 185.473 114.861 186.176 114.549C186.879 114.236 187.667 114.08 188.539 114.08C189.132 114.08 189.682 114.132 190.189 114.236C190.697 114.334 191.186 114.487 191.654 114.695V116.404C191.192 116.15 190.714 115.958 190.219 115.828C189.724 115.691 189.184 115.623 188.598 115.623C187.999 115.623 187.455 115.737 186.967 115.965C186.485 116.186 186.075 116.512 185.736 116.941C185.398 117.365 185.137 117.885 184.955 118.504C184.773 119.116 184.682 119.816 184.682 120.604C184.682 122.257 185.017 123.504 185.688 124.344C186.358 125.184 187.341 125.604 188.637 125.604C189.184 125.604 189.708 125.542 190.209 125.418C190.71 125.288 191.192 125.109 191.654 124.881V126.521ZM203.832 127H201.938L201.049 124.217H195.736L194.838 127H193.031L197.27 114.236H199.652L203.832 127ZM200.551 122.664L198.393 115.838L196.234 122.664H200.551ZM214.086 115.721H210.307V127H208.549V115.721H204.77V114.236H214.086V115.721Z" fill="#FF7F50"/>
<path d="M224.643 80.5215C223.62 80.9447 222.549 81.1562 221.43 81.1562C219.626 81.1562 218.24 80.6191 217.27 79.5449C216.306 78.4642 215.824 76.8691 215.824 74.7598C215.824 73.7376 215.958 72.8132 216.225 71.9863C216.492 71.1595 216.872 70.4596 217.367 69.8867C217.862 69.3073 218.461 68.8613 219.164 68.5488C219.867 68.2363 220.655 68.0801 221.527 68.0801C222.12 68.0801 222.67 68.1322 223.178 68.2363C223.686 68.334 224.174 68.487 224.643 68.6953V70.4043C224.18 70.1504 223.702 69.9583 223.207 69.8281C222.712 69.6914 222.172 69.623 221.586 69.623C220.987 69.623 220.443 69.737 219.955 69.9648C219.473 70.1862 219.063 70.5117 218.725 70.9414C218.386 71.3646 218.126 71.8854 217.943 72.5039C217.761 73.1159 217.67 73.8158 217.67 74.6035C217.67 76.2572 218.005 77.5039 218.676 78.3438C219.346 79.1836 220.329 79.6035 221.625 79.6035C222.172 79.6035 222.696 79.5417 223.197 79.418C223.699 79.2878 224.18 79.1087 224.643 78.8809V80.5215ZM225.824 127H223.93L223.041 124.217H217.729L216.83 127H215.023L219.262 114.236H221.645L225.824 127ZM222.543 122.664L220.385 115.838L218.227 122.664H222.543Z" fill="black"/>
<path d="M424.809 117.5V122.5" stroke="black"/>
<path d="M216.353 81V86" stroke="black" stroke-width="2"/>
<path d="M7 85.2476H216.353" stroke="black" stroke-width="2"/>
<path d="M213.353 125V130" stroke="black" stroke-width="2"/>
<path d="M4 129.248H213.353" stroke="black" stroke-width="2"/>
<path d="M122.484 90C121.932 94.12 121.351 98.403 118.96 101.94C117.891 103.521 115.398 106.021 113.292 104.557C111.245 103.133 111.507 96.5003 114.968 97.3407C118.055 98.0902 117.809 103.525 121.754 103.82C123.435 103.946 127 104.087 127 101.827" stroke="black" stroke-width="2" stroke-linecap="round" stroke-linejoin="round"/>
<path d="M106 155C108.328 150.448 111.641 134.758 118.462 134.012C120.865 133.749 120.06 137.844 119.298 138.867C118.177 140.371 113.835 144.091 115.13 142.721C119.255 138.356 124.078 143.411 121.051 147.576C119.676 149.467 118.263 150.435 115.751 150.016C114.377 149.787 113.525 147.958 113.525 148.989" stroke="black" stroke-width="2" stroke-linecap="round" stroke-linejoin="round"/>
</g>
<g filter="url(#filter1_d)">
<rect x="387" width="233" height="182" fill="white"/>
<path d="M602.717 76.5215C601.695 76.9447 600.624 77.1562 599.504 77.1562C597.701 77.1562 596.314 76.6191 595.344 75.5449C594.38 74.4642 593.898 72.8691 593.898 70.7598C593.898 69.7376 594.032 68.8132 594.299 67.9863C594.566 67.1595 594.947 66.4596 595.441 65.8867C595.936 65.3073 596.535 64.8613 597.238 64.5488C597.941 64.2363 598.729 64.0801 599.602 64.0801C600.194 64.0801 600.744 64.1322 601.252 64.2363C601.76 64.334 602.248 64.487 602.717 64.6953V66.4043C602.255 66.1504 601.776 65.9583 601.281 65.8281C600.786 65.6914 600.246 65.623 599.66 65.623C599.061 65.623 598.518 65.737 598.029 65.9648C597.548 66.1862 597.137 66.5117 596.799 66.9414C596.46 67.3646 596.2 67.8854 596.018 68.5039C595.835 69.1159 595.744 69.8158 595.744 70.6035C595.744 72.2572 596.079 73.5039 596.75 74.3438C597.421 75.1836 598.404 75.6035 599.699 75.6035C600.246 75.6035 600.77 75.5417 601.271 75.418C601.773 75.2878 602.255 75.1087 602.717 74.8809V76.5215ZM603.898 123H602.004L601.115 120.217H595.803L594.904 123H593.098L597.336 110.236H599.719L603.898 123ZM600.617 118.664L598.459 111.838L596.301 118.664H600.617Z" fill="black"/>
<path d="M805.809 117.5V122.5" stroke="black"/>
<path d="M581.484 62C580.932 66.12 580.351 70.403 577.96 73.94C576.891 75.5205 574.398 78.021 572.292 76.5568C570.245 75.1332 570.507 68.5003 573.968 69.3407C577.055 70.0902 576.809 75.5252 580.754 75.8205C582.435 75.9462 586 76.0871 586 73.8267" stroke="black" stroke-width="2" stroke-linecap="round" stroke-linejoin="round"/>
<path d="M570 128C572.328 123.448 575.641 107.758 582.462 107.012C584.865 106.749 584.06 110.844 583.298 111.867C582.177 113.371 577.835 117.091 579.13 115.721C583.255 111.356 588.078 116.411 585.051 120.576C583.676 122.467 582.263 123.435 579.751 123.016C578.377 122.787 577.525 120.958 577.525 121.989" stroke="black" stroke-width="2" stroke-linecap="round" stroke-linejoin="round"/>
</g>
<path d="M342.354 94.3536C342.549 94.1583 342.549 93.8417 342.354 93.6464L339.172 90.4645C338.976 90.2692 338.66 90.2692 338.464 90.4645C338.269 90.6597 338.269 90.9763 338.464 91.1716L341.293 94L338.464 96.8284C338.269 97.0237 338.269 97.3403 338.464 97.5355C338.66 97.7308 338.976 97.7308 339.172 97.5355L342.354 94.3536ZM289 94.5H342V93.5H289V94.5Z" fill="#C9D1D9"/>
<defs>
<filter id="filter0_d" x="0" y="0" width="429.309" height="190" filterUnits="userSpaceOnUse" color-interpolation-filters="sRGB">
<feFlood flood-opacity="0" result="BackgroundImageFix"/>
<feColorMatrix in="SourceAlpha" type="matrix" values="0 0 0 0 0 0 0 0 0 0 0 0 0 0 0 0 0 0 127 0"/>
<feOffset dy="4"/>
<feGaussianBlur stdDeviation="2"/>
<feColorMatrix type="matrix" values="0 0 0 0 0 0 0 0 0 0 0 0 0 0 0 0 0 0 0.25 0"/>
<feBlend mode="normal" in2="BackgroundImageFix" result="effect1_dropShadow"/>
<feBlend mode="normal" in="SourceGraphic" in2="effect1_dropShadow" result="shape"/>
</filter>
<filter id="filter1_d" x="383" y="0" width="427.309" height="190" filterUnits="userSpaceOnUse" color-interpolation-filters="sRGB">
<feFlood flood-opacity="0" result="BackgroundImageFix"/>
<feColorMatrix in="SourceAlpha" type="matrix" values="0 0 0 0 0 0 0 0 0 0 0 0 0 0 0 0 0 0 127 0"/>
<feOffset dy="4"/>
<feGaussianBlur stdDeviation="2"/>
<feColorMatrix type="matrix" values="0 0 0 0 0 0 0 0 0 0 0 0 0 0 0 0 0 0 0.25 0"/>
<feBlend mode="normal" in2="BackgroundImageFix" result="effect1_dropShadow"/>
<feBlend mode="normal" in="SourceGraphic" in2="effect1_dropShadow" result="shape"/>
</filter>
</defs>
</svg>
