<svg width="463" height="144" viewBox="0 0 463 144" fill="none" xmlns="http://www.w3.org/2000/svg">
<path d="M360.676 107.592C362.84 103.024 365.919 87.2813 372.26 86.5332C374.494 86.2697 373.746 90.3784 373.037 91.4048C371.996 92.9135 367.959 96.6462 369.163 95.271C372.997 90.892 377.481 95.9642 374.667 100.143C373.389 102.04 372.075 103.011 369.74 102.591C368.463 102.361 367.672 100.526 367.672 101.56" stroke="#C9D1D9" stroke-linecap="round" stroke-linejoin="round"/>
<path d="M390.898 102H389.004L388.115 99.2168H382.803L381.904 102H380.098L384.336 89.2363H386.719L390.898 102ZM387.617 97.6641L385.459 90.8379L383.301 97.6641H387.617Z" fill="#C9D1D9"/>
<path d="M337.98 87.7606C337.478 91.5053 336.95 95.3983 334.777 98.6131C333.806 100.05 331.539 102.322 329.625 100.992C327.764 99.6977 328.003 93.6689 331.149 94.4327C333.954 95.114 333.73 100.054 337.316 100.322C338.844 100.437 342.084 100.565 342.084 98.5101" stroke="#C9D1D9" stroke-linecap="round" stroke-linejoin="round"/>
<path d="M268.886 97.1012C268.886 97.3421 268.883 97.5439 268.876 97.7067C268.87 97.8694 268.86 98.0224 268.847 98.1656H261.962C261.962 99.1683 262.242 99.9397 262.802 100.48C263.362 101.014 264.169 101.281 265.224 101.281C265.51 101.281 265.797 101.271 266.083 101.252C266.37 101.226 266.646 101.193 266.913 101.154C267.18 101.115 267.434 101.073 267.675 101.027C267.922 100.975 268.15 100.92 268.359 100.861V102.257C267.896 102.388 267.372 102.492 266.786 102.57C266.207 102.655 265.605 102.697 264.98 102.697C264.14 102.697 263.417 102.583 262.812 102.355C262.206 102.127 261.708 101.798 261.318 101.369C260.934 100.933 260.647 100.402 260.458 99.777C260.276 99.1455 260.185 98.4326 260.185 97.6383C260.185 96.9482 260.282 96.2972 260.478 95.6852C260.68 95.0667 260.969 94.5263 261.347 94.0641C261.731 93.5953 262.2 93.2242 262.753 92.9508C263.307 92.6774 263.935 92.5406 264.638 92.5406C265.322 92.5406 265.927 92.6481 266.454 92.8629C266.982 93.0778 267.424 93.3837 267.782 93.7809C268.147 94.1715 268.42 94.65 268.603 95.2164C268.792 95.7763 268.886 96.4046 268.886 97.1012ZM267.118 96.8571C267.138 96.4209 267.096 96.0237 266.991 95.6656C266.887 95.3011 266.725 94.9886 266.503 94.7281C266.288 94.4677 266.018 94.2659 265.693 94.1227C265.367 93.9729 264.99 93.8981 264.56 93.8981C264.189 93.8981 263.85 93.9697 263.544 94.1129C263.238 94.2561 262.975 94.458 262.753 94.7184C262.532 94.9788 262.353 95.2913 262.216 95.6559C262.079 96.0205 261.995 96.4209 261.962 96.8571H267.118ZM271.103 97.8239C271.103 96.9905 271.217 96.2516 271.445 95.6071C271.672 94.956 271.995 94.4091 272.411 93.9664C272.835 93.5172 273.339 93.1787 273.925 92.9508C274.517 92.7164 275.175 92.5992 275.898 92.5992C276.21 92.5992 276.516 92.6188 276.816 92.6578C277.122 92.6969 277.421 92.7587 277.714 92.8434V88.7223H279.423V102.521H277.9L277.841 100.666C277.366 101.356 276.851 101.867 276.298 102.199C275.745 102.531 275.146 102.697 274.501 102.697C273.941 102.697 273.447 102.58 273.017 102.345C272.594 102.111 272.239 101.782 271.952 101.359C271.672 100.929 271.461 100.415 271.318 99.816C271.174 99.2171 271.103 98.553 271.103 97.8239ZM272.841 97.7164C272.841 98.9013 273.014 99.7867 273.359 100.373C273.71 100.952 274.205 101.242 274.843 101.242C275.273 101.242 275.725 101.05 276.2 100.666C276.682 100.282 277.187 99.7119 277.714 98.9567V94.4059C277.434 94.2757 277.125 94.178 276.786 94.1129C276.448 94.0413 276.113 94.0055 275.781 94.0055C274.856 94.0055 274.133 94.305 273.613 94.9039C273.098 95.5029 272.841 96.4404 272.841 97.7164ZM285.937 94.1227H283.036V92.7164H287.656V101.105H290.575V102.521H282.714V101.105H285.937V94.1227ZM286.532 88.6051C286.721 88.6051 286.897 88.6409 287.06 88.7125C287.223 88.7776 287.363 88.872 287.48 88.9957C287.603 89.1194 287.698 89.2627 287.763 89.4254C287.835 89.5817 287.87 89.7542 287.87 89.943C287.87 90.1253 287.835 90.2978 287.763 90.4606C287.698 90.6233 287.603 90.7666 287.48 90.8903C287.363 91.014 287.223 91.1116 287.06 91.1832C286.897 91.2483 286.721 91.2809 286.532 91.2809C286.344 91.2809 286.168 91.2483 286.005 91.1832C285.842 91.1116 285.699 91.014 285.575 90.8903C285.458 90.7666 285.364 90.6233 285.292 90.4606C285.227 90.2978 285.195 90.1253 285.195 89.943C285.195 89.7542 285.227 89.5817 285.292 89.4254C285.364 89.2627 285.458 89.1194 285.575 88.9957C285.699 88.872 285.842 88.7776 286.005 88.7125C286.168 88.6409 286.344 88.6051 286.532 88.6051ZM301.357 99.8453C301.357 100.19 301.298 100.5 301.181 100.773C301.064 101.047 300.904 101.291 300.702 101.505C300.501 101.714 300.266 101.893 299.999 102.043C299.732 102.192 299.446 102.316 299.14 102.414C298.84 102.511 298.531 102.583 298.212 102.629C297.893 102.674 297.581 102.697 297.275 102.697C296.611 102.697 295.999 102.668 295.439 102.609C294.885 102.55 294.342 102.456 293.808 102.326V100.763C294.381 100.926 294.95 101.05 295.517 101.134C296.083 101.219 296.646 101.261 297.206 101.261C298.02 101.261 298.622 101.151 299.013 100.929C299.404 100.708 299.599 100.392 299.599 99.9821C299.599 99.8063 299.566 99.65 299.501 99.5133C299.443 99.3701 299.332 99.2366 299.169 99.1129C299.006 98.9827 298.753 98.8492 298.407 98.7125C298.069 98.5758 297.603 98.4196 297.011 98.2438C296.568 98.1136 296.158 97.9671 295.781 97.8043C295.409 97.6351 295.087 97.4365 294.814 97.2086C294.54 96.9808 294.325 96.7138 294.169 96.4078C294.013 96.1018 293.935 95.7405 293.935 95.3239C293.935 95.0504 293.997 94.7509 294.12 94.4254C294.251 94.0999 294.469 93.7972 294.775 93.5172C295.081 93.2373 295.494 93.0061 296.015 92.8239C296.536 92.6351 297.187 92.5406 297.968 92.5406C298.352 92.5406 298.779 92.5634 299.247 92.609C299.716 92.6481 300.204 92.7197 300.712 92.8239V94.3375C300.178 94.2073 299.67 94.1129 299.189 94.0543C298.713 93.9892 298.3 93.9567 297.948 93.9567C297.525 93.9567 297.167 93.9892 296.874 94.0543C296.588 94.1194 296.353 94.2106 296.171 94.3278C295.995 94.4384 295.868 94.5719 295.79 94.7281C295.712 94.8779 295.673 95.0406 295.673 95.2164C295.673 95.3922 295.706 95.5517 295.771 95.6949C295.842 95.8382 295.969 95.9781 296.152 96.1149C296.34 96.2451 296.601 96.3785 296.933 96.5153C297.265 96.6455 297.698 96.7887 298.232 96.9449C298.811 97.1142 299.299 97.2933 299.697 97.4821C300.094 97.6643 300.416 97.8694 300.663 98.0973C300.911 98.3252 301.087 98.5823 301.191 98.8688C301.301 99.1552 301.357 99.4808 301.357 99.8453ZM312.49 102.384C312.105 102.482 311.708 102.55 311.298 102.589C310.888 102.635 310.471 102.658 310.048 102.658C308.818 102.658 307.9 102.381 307.294 101.828C306.689 101.268 306.386 100.412 306.386 99.2594V94.1422H303.642V92.7164H306.386V90.0211L308.085 89.5817V92.7164H312.49V94.1422H308.085V99.1227C308.085 99.8258 308.271 100.353 308.642 100.705C309.019 101.05 309.573 101.222 310.302 101.222C310.615 101.222 310.956 101.2 311.327 101.154C311.698 101.102 312.086 101.024 312.49 100.92V102.384ZM321.454 106.623C318.453 103.843 316.952 100.77 316.952 97.4039C316.952 96.6162 317.031 95.8317 317.187 95.0504C317.35 94.2627 317.607 93.4749 317.958 92.6871C318.316 91.8994 318.785 91.1116 319.365 90.3239C319.95 89.5361 320.66 88.7548 321.493 87.9801L322.48 88.986C319.954 91.4795 318.691 94.2431 318.691 97.277C318.691 98.7874 319.01 100.239 319.648 101.632C320.286 103.026 321.23 104.341 322.48 105.578L321.454 106.623ZM349.335 104.523C349.667 104.536 349.99 104.507 350.302 104.435C350.615 104.364 350.888 104.256 351.122 104.113C351.363 103.976 351.555 103.804 351.698 103.595C351.842 103.387 351.913 103.149 351.913 102.882C351.913 102.609 351.865 102.388 351.767 102.218C351.676 102.049 351.572 101.893 351.454 101.75C351.337 101.606 351.23 101.453 351.132 101.291C351.041 101.128 350.995 100.91 350.995 100.636C350.995 100.5 351.021 100.356 351.073 100.207C351.126 100.057 351.204 99.9202 351.308 99.7965C351.419 99.6728 351.555 99.5719 351.718 99.4938C351.887 99.4156 352.086 99.3766 352.314 99.3766C352.542 99.3766 352.76 99.4254 352.968 99.5231C353.183 99.6142 353.368 99.7574 353.525 99.9528C353.687 100.148 353.814 100.392 353.906 100.685C354.003 100.978 354.052 101.323 354.052 101.72C354.052 102.261 353.951 102.778 353.749 103.273C353.554 103.774 353.258 104.217 352.861 104.601C352.47 104.985 351.978 105.291 351.386 105.519C350.8 105.747 350.116 105.861 349.335 105.861V104.523ZM394.56 87.9801C397.561 90.7601 399.062 93.8525 399.062 97.2574C399.062 97.9606 398.99 98.6897 398.847 99.4449C398.704 100.2 398.46 100.975 398.115 101.769C397.769 102.557 397.304 103.358 396.718 104.172C396.139 104.985 395.406 105.802 394.521 106.623L393.534 105.617C394.804 104.36 395.751 103.048 396.376 101.681C397.001 100.314 397.314 98.8818 397.314 97.3844C397.314 94.2854 396.054 91.499 393.534 89.025L394.56 87.9801ZM423.163 97.941H419.325V101.925H417.646V97.941H413.808V96.4567H417.646V92.5016H419.325V96.4567H423.163V97.941ZM444.716 102.521H436.698V100.939H439.98V91.6227L436.923 93.2828L436.298 91.8375L440.361 89.6989H441.865V100.939H444.716V102.521Z" fill="#C9D1D9"/>
<path d="M339.219 23.3098C338.718 27.0545 338.19 30.9475 336.016 34.1623C335.045 35.5989 332.778 37.8716 330.865 36.5408C329.004 35.2469 329.243 29.2181 332.388 29.9819C335.194 30.6632 334.97 35.6032 338.556 35.8715C340.084 35.9858 343.324 36.1139 343.324 34.0593" stroke="#C9D1D9" stroke-linecap="round" stroke-linejoin="round"/>
<path d="M360.676 41.9014C362.84 37.3342 365.919 21.5911 372.26 20.8431C374.494 20.5795 373.746 24.6882 373.037 25.7146C371.996 27.2234 367.959 30.956 369.163 29.5808C372.997 25.2018 377.481 30.274 374.667 34.4523C373.389 36.3497 372.076 37.3211 369.74 36.901C368.463 36.6712 367.672 34.8357 367.672 35.87" stroke="#C9D1D9" stroke-linecap="round" stroke-linejoin="round"/>
<path d="M268.727 31.411C268.727 31.6519 268.724 31.8537 268.717 32.0165C268.711 32.1792 268.701 32.3322 268.688 32.4755H261.803C261.803 33.4781 262.083 34.2496 262.643 34.7899C263.203 35.3238 264.01 35.5907 265.065 35.5907C265.352 35.5907 265.638 35.5809 265.924 35.5614C266.211 35.5354 266.488 35.5028 266.755 35.4637C267.021 35.4247 267.275 35.3824 267.516 35.3368C267.764 35.2847 267.992 35.2294 268.2 35.1708V36.5673C267.738 36.6975 267.214 36.8016 266.628 36.8798C266.048 36.9644 265.446 37.0067 264.821 37.0067C263.981 37.0067 263.258 36.8928 262.653 36.6649C262.048 36.4371 261.549 36.1083 261.159 35.6786C260.775 35.2424 260.488 34.7118 260.299 34.0868C260.117 33.4553 260.026 32.7424 260.026 31.9481C260.026 31.258 260.124 30.607 260.319 29.995C260.521 29.3765 260.811 28.8361 261.188 28.3739C261.572 27.9052 262.041 27.5341 262.594 27.2606C263.148 26.9872 263.776 26.8505 264.479 26.8505C265.163 26.8505 265.768 26.9579 266.296 27.1727C266.823 27.3876 267.266 27.6936 267.624 28.0907C267.988 28.4813 268.262 28.9598 268.444 29.5262C268.633 30.0861 268.727 30.7144 268.727 31.411ZM266.96 31.1669C266.979 30.7307 266.937 30.3335 266.833 29.9755C266.729 29.6109 266.566 29.2984 266.344 29.038C266.13 28.7775 265.859 28.5757 265.534 28.4325C265.208 28.2828 264.831 28.2079 264.401 28.2079C264.03 28.2079 263.691 28.2795 263.385 28.4227C263.079 28.566 262.816 28.7678 262.594 29.0282C262.373 29.2886 262.194 29.6011 262.057 29.9657C261.921 30.3303 261.836 30.7307 261.803 31.1669H266.96ZM270.944 32.1337C270.944 31.3003 271.058 30.5614 271.286 29.9169C271.514 29.2658 271.836 28.719 272.253 28.2762C272.676 27.827 273.18 27.4885 273.766 27.2606C274.359 27.0262 275.016 26.9091 275.739 26.9091C276.051 26.9091 276.357 26.9286 276.657 26.9677C276.963 27.0067 277.262 27.0686 277.555 27.1532V23.0321H279.264V36.8309H277.741L277.682 34.9755C277.207 35.6656 276.693 36.1766 276.139 36.5087C275.586 36.8407 274.987 37.0067 274.342 37.0067C273.783 37.0067 273.288 36.8895 272.858 36.6552C272.435 36.4208 272.08 36.092 271.794 35.6688C271.514 35.2391 271.302 34.7248 271.159 34.1259C271.016 33.5269 270.944 32.8628 270.944 32.1337ZM272.682 32.0262C272.682 33.2111 272.855 34.0966 273.2 34.6825C273.551 35.2619 274.046 35.5516 274.684 35.5516C275.114 35.5516 275.566 35.3596 276.042 34.9755C276.523 34.5913 277.028 34.0217 277.555 33.2665V28.7157C277.275 28.5855 276.966 28.4878 276.628 28.4227C276.289 28.3511 275.954 28.3153 275.622 28.3153C274.697 28.3153 273.975 28.6148 273.454 29.2137C272.939 29.8127 272.682 30.7502 272.682 32.0262ZM285.778 28.4325H282.878V27.0262H287.497V35.4149H290.417V36.8309H282.555V35.4149H285.778V28.4325ZM286.374 22.9149C286.562 22.9149 286.738 22.9507 286.901 23.0223C287.064 23.0874 287.204 23.1818 287.321 23.3055C287.445 23.4292 287.539 23.5725 287.604 23.7352C287.676 23.8915 287.712 24.064 287.712 24.2528C287.712 24.4351 287.676 24.6076 287.604 24.7704C287.539 24.9331 287.445 25.0764 287.321 25.2001C287.204 25.3238 287.064 25.4214 286.901 25.493C286.738 25.5581 286.562 25.5907 286.374 25.5907C286.185 25.5907 286.009 25.5581 285.846 25.493C285.684 25.4214 285.54 25.3238 285.417 25.2001C285.299 25.0764 285.205 24.9331 285.133 24.7704C285.068 24.6076 285.036 24.4351 285.036 24.2528C285.036 24.064 285.068 23.8915 285.133 23.7352C285.205 23.5725 285.299 23.4292 285.417 23.3055C285.54 23.1818 285.684 23.0874 285.846 23.0223C286.009 22.9507 286.185 22.9149 286.374 22.9149ZM301.198 34.1552C301.198 34.5002 301.139 34.8094 301.022 35.0829C300.905 35.3563 300.745 35.6005 300.544 35.8153C300.342 36.0236 300.107 36.2027 299.84 36.3524C299.574 36.5022 299.287 36.6259 298.981 36.7235C298.682 36.8212 298.372 36.8928 298.053 36.9384C297.734 36.9839 297.422 37.0067 297.116 37.0067C296.452 37.0067 295.84 36.9774 295.28 36.9188C294.727 36.8602 294.183 36.7658 293.649 36.6356V35.0731C294.222 35.2359 294.792 35.3596 295.358 35.4442C295.924 35.5288 296.488 35.5712 297.048 35.5712C297.861 35.5712 298.464 35.4605 298.854 35.2391C299.245 35.0178 299.44 34.702 299.44 34.2919C299.44 34.1161 299.408 33.9598 299.342 33.8231C299.284 33.6799 299.173 33.5464 299.01 33.4227C298.848 33.2925 298.594 33.1591 298.249 33.0223C297.91 32.8856 297.445 32.7294 296.852 32.5536C296.409 32.4234 295.999 32.2769 295.622 32.1141C295.251 31.9449 294.928 31.7463 294.655 31.5184C294.382 31.2906 294.167 31.0236 294.01 30.7177C293.854 30.4117 293.776 30.0503 293.776 29.6337C293.776 29.3602 293.838 29.0608 293.962 28.7352C294.092 28.4097 294.31 28.107 294.616 27.827C294.922 27.5471 295.335 27.316 295.856 27.1337C296.377 26.9449 297.028 26.8505 297.809 26.8505C298.193 26.8505 298.62 26.8733 299.089 26.9188C299.557 26.9579 300.046 27.0295 300.553 27.1337V28.6473C300.02 28.5171 299.512 28.4227 299.03 28.3641C298.555 28.299 298.141 28.2665 297.79 28.2665C297.367 28.2665 297.008 28.299 296.715 28.3641C296.429 28.4292 296.195 28.5204 296.012 28.6376C295.837 28.7483 295.71 28.8817 295.632 29.038C295.553 29.1877 295.514 29.3505 295.514 29.5262C295.514 29.702 295.547 29.8615 295.612 30.0048C295.684 30.148 295.811 30.288 295.993 30.4247C296.182 30.5549 296.442 30.6884 296.774 30.8251C297.106 30.9553 297.539 31.0985 298.073 31.2548C298.652 31.424 299.141 31.6031 299.538 31.7919C299.935 31.9742 300.257 32.1792 300.505 32.4071C300.752 32.635 300.928 32.8921 301.032 33.1786C301.143 33.465 301.198 33.7906 301.198 34.1552ZM312.331 36.6942C311.947 36.7919 311.549 36.8602 311.139 36.8993C310.729 36.9449 310.312 36.9677 309.889 36.9677C308.659 36.9677 307.741 36.691 307.135 36.1376C306.53 35.5777 306.227 34.7216 306.227 33.5692V28.452H303.483V27.0262H306.227V24.3309L307.926 23.8915V27.0262H312.331V28.452H307.926V33.4325C307.926 34.1356 308.112 34.663 308.483 35.0145C308.861 35.3596 309.414 35.5321 310.143 35.5321C310.456 35.5321 310.798 35.5093 311.169 35.4637C311.54 35.4117 311.927 35.3335 312.331 35.2294V36.6942ZM321.296 40.9325C318.294 38.1525 316.794 35.0796 316.794 31.7137C316.794 30.926 316.872 30.1415 317.028 29.3602C317.191 28.5725 317.448 27.7847 317.799 26.9969C318.158 26.2092 318.626 25.4214 319.206 24.6337C319.792 23.8459 320.501 23.0647 321.335 22.2899L322.321 23.2958C319.795 25.7893 318.532 28.5529 318.532 31.5868C318.532 33.0972 318.851 34.549 319.489 35.9423C320.127 37.3355 321.071 38.6506 322.321 39.8876L321.296 40.9325ZM349.176 38.8329C349.508 38.8459 349.831 38.8166 350.143 38.745C350.456 38.6734 350.729 38.566 350.964 38.4227C351.204 38.286 351.396 38.1135 351.54 37.9052C351.683 37.6968 351.755 37.4592 351.755 37.1923C351.755 36.9188 351.706 36.6975 351.608 36.5282C351.517 36.3589 351.413 36.2027 351.296 36.0594C351.178 35.9162 351.071 35.7632 350.973 35.6005C350.882 35.4377 350.837 35.2196 350.837 34.9462C350.837 34.8094 350.863 34.6662 350.915 34.5165C350.967 34.3667 351.045 34.23 351.149 34.1063C351.26 33.9826 351.396 33.8817 351.559 33.8036C351.729 33.7255 351.927 33.6864 352.155 33.6864C352.383 33.6864 352.601 33.7352 352.809 33.8329C353.024 33.924 353.21 34.0673 353.366 34.2626C353.529 34.4579 353.656 34.702 353.747 34.995C353.844 35.288 353.893 35.633 353.893 36.0302C353.893 36.5705 353.792 37.0881 353.59 37.5829C353.395 38.0842 353.099 38.5269 352.702 38.911C352.311 39.2951 351.82 39.6011 351.227 39.829C350.641 40.0568 349.958 40.1708 349.176 40.1708V38.8329ZM383.405 22.2899C386.406 25.0699 387.907 28.1623 387.907 31.5673C387.907 32.2704 387.835 32.9996 387.692 33.7548C387.549 34.51 387.305 35.2847 386.96 36.079C386.615 36.8667 386.149 37.6675 385.563 38.4813C384.984 39.2951 384.251 40.1122 383.366 40.9325L382.38 39.9266C383.649 38.6701 384.596 37.3583 385.221 35.9911C385.846 34.6239 386.159 33.1916 386.159 31.6942C386.159 28.5953 384.899 25.8088 382.38 23.3348L383.405 22.2899ZM423.005 32.2509H419.167V36.2352H417.487V32.2509H413.649V30.7665H417.487V26.8114H419.167V30.7665H423.005V32.2509ZM444.557 36.8309H436.54V35.2489H439.821V25.9325L436.764 27.5927L436.139 26.1473L440.202 24.0087H441.706V35.2489H444.557V36.8309Z" fill="#C9D1D9"/>
<path d="M335.501 55.5352C334.999 59.2799 334.471 63.1728 332.298 66.3876C331.327 67.8242 329.06 70.0969 327.146 68.7661C325.285 67.4722 325.524 61.4434 328.67 62.2073C331.476 62.8885 331.252 67.8285 334.837 68.0968C336.365 68.2112 339.606 68.3392 339.606 66.2847" stroke="#C9D1D9" stroke-linecap="round" stroke-linejoin="round"/>
<path d="M352.717 69.5215C351.695 69.9447 350.624 70.1562 349.504 70.1562C347.701 70.1562 346.314 69.6191 345.344 68.5449C344.38 67.4642 343.898 65.8691 343.898 63.7598C343.898 62.7376 344.032 61.8132 344.299 60.9863C344.566 60.1595 344.947 59.4596 345.441 58.8867C345.936 58.3073 346.535 57.8613 347.238 57.5488C347.941 57.2363 348.729 57.0801 349.602 57.0801C350.194 57.0801 350.744 57.1322 351.252 57.2363C351.76 57.334 352.248 57.487 352.717 57.6953V59.4043C352.255 59.1504 351.776 58.9583 351.281 58.8281C350.786 58.6914 350.246 58.623 349.66 58.623C349.061 58.623 348.518 58.737 348.029 58.9648C347.548 59.1862 347.137 59.5117 346.799 59.9414C346.46 60.3646 346.2 60.8854 346.018 61.5039C345.835 62.1159 345.744 62.8158 345.744 63.6035C345.744 65.2572 346.079 66.5039 346.75 67.3438C347.421 68.1836 348.404 68.6035 349.699 68.6035C350.246 68.6035 350.77 68.5417 351.271 68.418C351.773 68.2878 352.255 68.1087 352.717 67.8809V69.5215Z" fill="#C9D1D9"/>
<path d="M373.07 74.1268C375.234 69.5596 378.314 53.8166 384.654 53.0685C386.888 52.8049 386.14 56.9137 385.432 57.94C384.39 59.4488 380.354 63.1815 381.558 61.8063C385.392 57.4273 389.875 62.4994 387.061 66.6778C385.784 68.5752 384.47 69.5466 382.134 69.1264C380.857 68.8967 380.066 67.0612 380.066 68.0954" stroke="#C9D1D9" stroke-linecap="round" stroke-linejoin="round"/>
<path d="M268.886 63.6365C268.886 63.8774 268.883 64.0792 268.876 64.2419C268.87 64.4047 268.86 64.5577 268.847 64.7009H261.962C261.962 65.7035 262.242 66.475 262.802 67.0154C263.362 67.5492 264.169 67.8162 265.224 67.8162C265.51 67.8162 265.797 67.8064 266.083 67.7869C266.37 67.7608 266.646 67.7283 266.913 67.6892C267.18 67.6501 267.434 67.6078 267.675 67.5623C267.922 67.5102 268.15 67.4548 268.359 67.3962V68.7927C267.896 68.9229 267.372 69.0271 266.786 69.1052C266.207 69.1899 265.605 69.2322 264.98 69.2322C264.14 69.2322 263.417 69.1182 262.812 68.8904C262.206 68.6625 261.708 68.3337 261.318 67.9041C260.934 67.4679 260.647 66.9373 260.458 66.3123C260.276 65.6807 260.185 64.9679 260.185 64.1736C260.185 63.4835 260.282 62.8324 260.478 62.2205C260.68 61.602 260.969 61.0616 261.347 60.5994C261.731 60.1306 262.2 59.7595 262.753 59.4861C263.307 59.2126 263.935 59.0759 264.638 59.0759C265.322 59.0759 265.927 59.1833 266.454 59.3982C266.982 59.613 267.424 59.919 267.782 60.3162C268.147 60.7068 268.42 61.1853 268.603 61.7517C268.792 62.3116 268.886 62.9399 268.886 63.6365ZM267.118 63.3923C267.138 62.9561 267.096 62.559 266.991 62.2009C266.887 61.8363 266.725 61.5238 266.503 61.2634C266.288 61.003 266.018 60.8012 265.693 60.658C265.367 60.5082 264.99 60.4333 264.56 60.4333C264.189 60.4333 263.85 60.505 263.544 60.6482C263.238 60.7914 262.975 60.9932 262.753 61.2537C262.532 61.5141 262.353 61.8266 262.216 62.1912C262.079 62.5557 261.995 62.9561 261.962 63.3923H267.118ZM271.103 64.3591C271.103 63.5258 271.217 62.7869 271.445 62.1423C271.672 61.4913 271.995 60.9444 272.411 60.5017C272.835 60.0525 273.339 59.7139 273.925 59.4861C274.517 59.2517 275.175 59.1345 275.898 59.1345C276.21 59.1345 276.516 59.1541 276.816 59.1931C277.122 59.2322 277.421 59.294 277.714 59.3787V55.2576H279.423V69.0564H277.9L277.841 67.2009C277.366 67.891 276.851 68.4021 276.298 68.7341C275.745 69.0662 275.146 69.2322 274.501 69.2322C273.941 69.2322 273.447 69.115 273.017 68.8806C272.594 68.6462 272.239 68.3175 271.952 67.8943C271.672 67.4646 271.461 66.9503 271.318 66.3513C271.174 65.7524 271.103 65.0883 271.103 64.3591ZM272.841 64.2517C272.841 65.4366 273.014 66.322 273.359 66.908C273.71 67.4874 274.205 67.7771 274.843 67.7771C275.273 67.7771 275.725 67.585 276.2 67.2009C276.682 66.8168 277.187 66.2472 277.714 65.4919V60.9412C277.434 60.811 277.125 60.7133 276.786 60.6482C276.448 60.5766 276.113 60.5408 275.781 60.5408C274.856 60.5408 274.133 60.8403 273.613 61.4392C273.098 62.0382 272.841 62.9757 272.841 64.2517ZM285.937 60.658H283.036V59.2517H287.656V67.6404H290.575V69.0564H282.714V67.6404H285.937V60.658ZM286.532 55.1404C286.721 55.1404 286.897 55.1762 287.06 55.2478C287.223 55.3129 287.363 55.4073 287.48 55.531C287.603 55.6547 287.698 55.7979 287.763 55.9607C287.835 56.1169 287.87 56.2895 287.87 56.4783C287.87 56.6606 287.835 56.8331 287.763 56.9958C287.698 57.1586 287.603 57.3018 287.48 57.4255C287.363 57.5492 287.223 57.6469 287.06 57.7185C286.897 57.7836 286.721 57.8162 286.532 57.8162C286.344 57.8162 286.168 57.7836 286.005 57.7185C285.842 57.6469 285.699 57.5492 285.575 57.4255C285.458 57.3018 285.364 57.1586 285.292 56.9958C285.227 56.8331 285.195 56.6606 285.195 56.4783C285.195 56.2895 285.227 56.1169 285.292 55.9607C285.364 55.7979 285.458 55.6547 285.575 55.531C285.699 55.4073 285.842 55.3129 286.005 55.2478C286.168 55.1762 286.344 55.1404 286.532 55.1404ZM301.357 66.3806C301.357 66.7257 301.298 67.0349 301.181 67.3083C301.064 67.5818 300.904 67.8259 300.702 68.0408C300.501 68.2491 300.266 68.4281 299.999 68.5779C299.732 68.7276 299.446 68.8513 299.14 68.949C298.84 69.0466 298.531 69.1182 298.212 69.1638C297.893 69.2094 297.581 69.2322 297.275 69.2322C296.611 69.2322 295.999 69.2029 295.439 69.1443C294.885 69.0857 294.342 68.9913 293.808 68.8611V67.2986C294.381 67.4613 294.95 67.585 295.517 67.6697C296.083 67.7543 296.646 67.7966 297.206 67.7966C298.02 67.7966 298.622 67.686 299.013 67.4646C299.404 67.2432 299.599 66.9275 299.599 66.5173C299.599 66.3416 299.566 66.1853 299.501 66.0486C299.443 65.9054 299.332 65.7719 299.169 65.6482C299.006 65.518 298.753 65.3845 298.407 65.2478C298.069 65.1111 297.603 64.9548 297.011 64.7791C296.568 64.6488 296.158 64.5024 295.781 64.3396C295.409 64.1703 295.087 63.9718 294.814 63.7439C294.54 63.516 294.325 63.2491 294.169 62.9431C294.013 62.6371 293.935 62.2758 293.935 61.8591C293.935 61.5857 293.997 61.2862 294.12 60.9607C294.251 60.6352 294.469 60.3324 294.775 60.0525C295.081 59.7725 295.494 59.5414 296.015 59.3591C296.536 59.1703 297.187 59.0759 297.968 59.0759C298.352 59.0759 298.779 59.0987 299.247 59.1443C299.716 59.1833 300.204 59.255 300.712 59.3591V60.8728C300.178 60.7426 299.67 60.6482 299.189 60.5896C298.713 60.5245 298.3 60.4919 297.948 60.4919C297.525 60.4919 297.167 60.5245 296.874 60.5896C296.588 60.6547 296.353 60.7458 296.171 60.863C295.995 60.9737 295.868 61.1072 295.79 61.2634C295.712 61.4132 295.673 61.5759 295.673 61.7517C295.673 61.9275 295.706 62.087 295.771 62.2302C295.842 62.3735 295.969 62.5134 296.152 62.6501C296.34 62.7804 296.601 62.9138 296.933 63.0505C297.265 63.1807 297.698 63.324 298.232 63.4802C298.811 63.6495 299.299 63.8285 299.697 64.0173C300.094 64.1996 300.416 64.4047 300.663 64.6326C300.911 64.8604 301.087 65.1176 301.191 65.4041C301.301 65.6905 301.357 66.016 301.357 66.3806ZM312.49 68.9197C312.105 69.0173 311.708 69.0857 311.298 69.1248C310.888 69.1703 310.471 69.1931 310.048 69.1931C308.818 69.1931 307.9 68.9164 307.294 68.363C306.689 67.8031 306.386 66.947 306.386 65.7947V60.6775H303.642V59.2517H306.386V56.5564L308.085 56.1169V59.2517H312.49V60.6775H308.085V65.658C308.085 66.3611 308.271 66.8884 308.642 67.24C309.019 67.585 309.573 67.7576 310.302 67.7576C310.615 67.7576 310.956 67.7348 311.327 67.6892C311.698 67.6371 312.086 67.559 312.49 67.4548V68.9197ZM321.454 73.158C318.453 70.378 316.952 67.3051 316.952 63.9392C316.952 63.1514 317.031 62.3669 317.187 61.5857C317.35 60.7979 317.607 60.0102 317.958 59.2224C318.316 58.4347 318.785 57.6469 319.365 56.8591C319.95 56.0714 320.66 55.2901 321.493 54.5154L322.48 55.5212C319.954 58.0147 318.691 60.7784 318.691 63.8123C318.691 65.3227 319.01 66.7745 319.648 68.1677C320.286 69.561 321.23 70.8761 322.48 72.113L321.454 73.158ZM360.331 71.0583C360.663 71.0714 360.986 71.0421 361.298 70.9705C361.611 70.8988 361.884 70.7914 362.118 70.6482C362.359 70.5115 362.551 70.3389 362.695 70.1306C362.838 69.9223 362.909 69.6847 362.909 69.4177C362.909 69.1443 362.861 68.9229 362.763 68.7537C362.672 68.5844 362.568 68.4281 362.45 68.2849C362.333 68.1417 362.226 67.9887 362.128 67.8259C362.037 67.6632 361.991 67.4451 361.991 67.1716C361.991 67.0349 362.017 66.8917 362.07 66.7419C362.122 66.5922 362.2 66.4555 362.304 66.3318C362.415 66.2081 362.551 66.1072 362.714 66.0291C362.883 65.9509 363.082 65.9119 363.31 65.9119C363.538 65.9119 363.756 65.9607 363.964 66.0583C364.179 66.1495 364.365 66.2927 364.521 66.488C364.684 66.6833 364.81 66.9275 364.902 67.2205C364.999 67.5134 365.048 67.8585 365.048 68.2556C365.048 68.796 364.947 69.3136 364.745 69.8083C364.55 70.3097 364.254 70.7524 363.857 71.1365C363.466 71.5206 362.975 71.8266 362.382 72.0544C361.796 72.2823 361.113 72.3962 360.331 72.3962V71.0583ZM394.56 54.5154C397.561 57.2953 399.062 60.3878 399.062 63.7927C399.062 64.4958 398.99 65.225 398.847 65.9802C398.704 66.7354 398.46 67.5102 398.115 68.3044C397.769 69.0922 397.304 69.893 396.718 70.7068C396.139 71.5206 395.406 72.3376 394.521 73.158L393.534 72.1521C394.804 70.8956 395.751 69.5837 396.376 68.2166C397.001 66.8494 397.314 65.4171 397.314 63.9197C397.314 60.8207 396.054 58.0343 393.534 55.5603L394.56 54.5154ZM423.163 64.4763H419.325V68.4607H417.646V64.4763H413.808V62.9919H417.646V59.0369H419.325V62.9919H423.163V64.4763ZM444.716 69.0564H436.698V67.4744H439.98V58.158L436.923 59.8181L436.298 58.3728L440.361 56.2341H441.865V67.4744H444.716V69.0564Z" fill="#C9D1D9"/>
<path d="M77.698 56.7747C77.1964 60.5194 76.6684 64.4123 74.4951 67.6271C73.5239 69.0637 71.2573 71.3364 69.3433 70.0056C67.4825 68.7117 67.7213 62.6829 70.8671 63.4468C73.6727 64.128 73.4488 69.068 77.0346 69.3364C78.5624 69.4507 81.8028 69.5787 81.8028 67.5242" stroke="#C9D1D9" stroke-linecap="round" stroke-linejoin="round"/>
<path d="M95.7168 69.5215C94.6947 69.9447 93.6237 70.1562 92.5039 70.1562C90.7005 70.1562 89.3138 69.6191 88.3438 68.5449C87.3802 67.4642 86.8984 65.8691 86.8984 63.7598C86.8984 62.7376 87.0319 61.8132 87.2988 60.9863C87.5658 60.1595 87.9466 59.4596 88.4414 58.8867C88.9362 58.3073 89.5352 57.8613 90.2383 57.5488C90.9414 57.2363 91.7292 57.0801 92.6016 57.0801C93.194 57.0801 93.7441 57.1322 94.252 57.2363C94.7598 57.334 95.248 57.487 95.7168 57.6953V59.4043C95.2546 59.1504 94.776 58.9583 94.2812 58.8281C93.7865 58.6914 93.2461 58.623 92.6602 58.623C92.0612 58.623 91.5176 58.737 91.0293 58.9648C90.5475 59.1862 90.1374 59.5117 89.7988 59.9414C89.4603 60.3646 89.1999 60.8854 89.0176 61.5039C88.8353 62.1159 88.7441 62.8158 88.7441 63.6035C88.7441 65.2572 89.0794 66.5039 89.75 67.3438C90.4206 68.1836 91.4036 68.6035 92.6992 68.6035C93.2461 68.6035 93.7702 68.5417 94.2715 68.418C94.7728 68.2878 95.2546 68.1087 95.7168 67.8809V69.5215Z" fill="#C9D1D9"/>
<path d="M112.789 76.6056C114.952 72.0384 118.032 56.2953 124.373 55.5473C126.607 55.2837 125.859 59.3924 125.15 60.4188C124.108 61.9276 120.072 65.6602 121.276 64.2851C125.11 59.906 129.594 64.9782 126.78 69.1565C125.502 71.0539 124.188 72.0253 121.853 71.6052C120.576 71.3754 119.784 69.5399 119.784 70.5742" stroke="#C9D1D9" stroke-linecap="round" stroke-linejoin="round"/>
<path d="M142.898 70H141.004L140.115 67.2168H134.803L133.904 70H132.098L136.336 57.2363H138.719L142.898 70ZM139.617 65.6641L137.459 58.8379L135.301 65.6641H139.617Z" fill="#C9D1D9"/>
<path d="M9.84375 64.8759C9.84375 65.1167 9.84049 65.3186 9.83398 65.4813C9.82747 65.6441 9.81771 65.7971 9.80469 65.9403H2.91992C2.91992 66.9429 3.19987 67.7144 3.75977 68.2548C4.31966 68.7886 5.12695 69.0555 6.18164 69.0555C6.4681 69.0555 6.75456 69.0458 7.04102 69.0262C7.32747 69.0002 7.60417 68.9677 7.87109 68.9286C8.13802 68.8895 8.39193 68.8472 8.63281 68.8016C8.88021 68.7496 9.10807 68.6942 9.31641 68.6356V70.0321C8.85417 70.1623 8.33008 70.2665 7.74414 70.3446C7.16471 70.4292 6.5625 70.4716 5.9375 70.4716C5.09766 70.4716 4.375 70.3576 3.76953 70.1298C3.16406 69.9019 2.66602 69.5731 2.27539 69.1434C1.89128 68.7072 1.60482 68.1766 1.41602 67.5516C1.23372 66.9201 1.14258 66.2072 1.14258 65.413C1.14258 64.7229 1.24023 64.0718 1.43555 63.4598C1.63737 62.8413 1.92708 62.301 2.30469 61.8387C2.6888 61.37 3.15755 60.9989 3.71094 60.7255C4.26432 60.452 4.89258 60.3153 5.5957 60.3153C6.2793 60.3153 6.88477 60.4227 7.41211 60.6376C7.93945 60.8524 8.38216 61.1584 8.74023 61.5555C9.10482 61.9462 9.37826 62.4247 9.56055 62.9911C9.74935 63.551 9.84375 64.1792 9.84375 64.8759ZM8.07617 64.6317C8.0957 64.1955 8.05339 63.7984 7.94922 63.4403C7.84505 63.0757 7.68229 62.7632 7.46094 62.5028C7.24609 62.2424 6.97591 62.0406 6.65039 61.8973C6.32487 61.7476 5.94727 61.6727 5.51758 61.6727C5.14648 61.6727 4.80794 61.7443 4.50195 61.8876C4.19596 62.0308 3.93229 62.2326 3.71094 62.493C3.48958 62.7535 3.31055 63.066 3.17383 63.4305C3.03711 63.7951 2.95247 64.1955 2.91992 64.6317H8.07617ZM12.0605 65.5985C12.0605 64.7652 12.1745 64.0262 12.4023 63.3817C12.6302 62.7307 12.9525 62.1838 13.3691 61.7411C13.7923 61.2919 14.2969 60.9533 14.8828 60.7255C15.4753 60.4911 16.1328 60.3739 16.8555 60.3739C17.168 60.3739 17.474 60.3934 17.7734 60.4325C18.0794 60.4716 18.3789 60.5334 18.6719 60.618V56.4969H20.3809V70.2958H18.8574L18.7988 68.4403C18.3236 69.1304 17.8092 69.6415 17.2559 69.9735C16.7025 70.3055 16.1035 70.4716 15.459 70.4716C14.8991 70.4716 14.4043 70.3544 13.9746 70.12C13.5514 69.8856 13.1966 69.5568 12.9102 69.1337C12.6302 68.704 12.4186 68.1897 12.2754 67.5907C12.1322 66.9917 12.0605 66.3277 12.0605 65.5985ZM13.7988 65.4911C13.7988 66.676 13.9714 67.5614 14.3164 68.1473C14.668 68.7268 15.1628 69.0165 15.8008 69.0165C16.2305 69.0165 16.6829 68.8244 17.1582 68.4403C17.64 68.0562 18.1445 67.4865 18.6719 66.7313V62.1805C18.3919 62.0503 18.0827 61.9527 17.7441 61.8876C17.4056 61.816 17.0703 61.7802 16.7383 61.7802C15.8138 61.7802 15.0911 62.0796 14.5703 62.6786C14.056 63.2775 13.7988 64.215 13.7988 65.4911ZM26.8945 61.8973H23.9941V60.4911H28.6133V68.8798H31.5332V70.2958H23.6719V68.8798H26.8945V61.8973ZM27.4902 56.3798C27.679 56.3798 27.8548 56.4156 28.0176 56.4872C28.1803 56.5523 28.3203 56.6467 28.4375 56.7704C28.5612 56.8941 28.6556 57.0373 28.7207 57.2001C28.7923 57.3563 28.8281 57.5288 28.8281 57.7177C28.8281 57.8999 28.7923 58.0725 28.7207 58.2352C28.6556 58.398 28.5612 58.5412 28.4375 58.6649C28.3203 58.7886 28.1803 58.8863 28.0176 58.9579C27.8548 59.023 27.679 59.0555 27.4902 59.0555C27.3014 59.0555 27.1257 59.023 26.9629 58.9579C26.8001 58.8863 26.6569 58.7886 26.5332 58.6649C26.416 58.5412 26.3216 58.398 26.25 58.2352C26.1849 58.0725 26.1523 57.8999 26.1523 57.7177C26.1523 57.5288 26.1849 57.3563 26.25 57.2001C26.3216 57.0373 26.416 56.8941 26.5332 56.7704C26.6569 56.6467 26.8001 56.5523 26.9629 56.4872C27.1257 56.4156 27.3014 56.3798 27.4902 56.3798ZM42.3145 67.62C42.3145 67.965 42.2559 68.2743 42.1387 68.5477C42.0215 68.8212 41.862 69.0653 41.6602 69.2802C41.4583 69.4885 41.224 69.6675 40.957 69.8173C40.6901 69.967 40.4036 70.0907 40.0977 70.1884C39.7982 70.286 39.4889 70.3576 39.1699 70.4032C38.8509 70.4488 38.5384 70.4716 38.2324 70.4716C37.5684 70.4716 36.9564 70.4423 36.3965 70.3837C35.8431 70.3251 35.2995 70.2307 34.7656 70.1005V68.538C35.3385 68.7007 35.9082 68.8244 36.4746 68.9091C37.041 68.9937 37.6042 69.036 38.1641 69.036C38.9779 69.036 39.5801 68.9253 39.9707 68.704C40.3613 68.4826 40.5566 68.1669 40.5566 67.7567C40.5566 67.5809 40.5241 67.4247 40.459 67.288C40.4004 67.1447 40.2897 67.0113 40.127 66.8876C39.9642 66.7574 39.7103 66.6239 39.3652 66.4872C39.0267 66.3505 38.5612 66.1942 37.9688 66.0184C37.526 65.8882 37.1159 65.7417 36.7383 65.579C36.3672 65.4097 36.0449 65.2111 35.7715 64.9833C35.498 64.7554 35.2832 64.4885 35.127 64.1825C34.9707 63.8765 34.8926 63.5152 34.8926 63.0985C34.8926 62.8251 34.9544 62.5256 35.0781 62.2001C35.2083 61.8746 35.4264 61.5718 35.7324 61.2919C36.0384 61.0119 36.4518 60.7808 36.9727 60.5985C37.4935 60.4097 38.1445 60.3153 38.9258 60.3153C39.3099 60.3153 39.7363 60.3381 40.2051 60.3837C40.6738 60.4227 41.1621 60.4943 41.6699 60.5985V62.1122C41.1361 61.982 40.6283 61.8876 40.1465 61.829C39.6712 61.7639 39.2578 61.7313 38.9062 61.7313C38.4831 61.7313 38.125 61.7639 37.832 61.829C37.5456 61.8941 37.3112 61.9852 37.1289 62.1024C36.9531 62.2131 36.8262 62.3466 36.748 62.5028C36.6699 62.6525 36.6309 62.8153 36.6309 62.9911C36.6309 63.1669 36.6634 63.3264 36.7285 63.4696C36.8001 63.6128 36.9271 63.7528 37.1094 63.8895C37.2982 64.0197 37.5586 64.1532 37.8906 64.2899C38.2227 64.4201 38.6556 64.5634 39.1895 64.7196C39.7689 64.8889 40.2572 65.0679 40.6543 65.2567C41.0514 65.439 41.3737 65.6441 41.6211 65.8719C41.8685 66.0998 42.0443 66.357 42.1484 66.6434C42.2591 66.9299 42.3145 67.2554 42.3145 67.62ZM53.4473 70.1591C53.0632 70.2567 52.666 70.3251 52.2559 70.3641C51.8457 70.4097 51.429 70.4325 51.0059 70.4325C49.7754 70.4325 48.8574 70.1558 48.252 69.6024C47.6465 69.0425 47.3438 68.1864 47.3438 67.0341V61.9169H44.5996V60.4911H47.3438V57.7958L49.043 57.3563V60.4911H53.4473V61.9169H49.043V66.8973C49.043 67.6005 49.2285 68.1278 49.5996 68.4794C49.9772 68.8244 50.5306 68.9969 51.2598 68.9969C51.5723 68.9969 51.9141 68.9742 52.2852 68.9286C52.6562 68.8765 53.0436 68.7984 53.4473 68.6942V70.1591ZM62.4121 74.3973C59.4108 71.6174 57.9102 68.5445 57.9102 65.1786C57.9102 64.3908 57.9883 63.6063 58.1445 62.8251C58.3073 62.0373 58.5645 61.2496 58.916 60.4618C59.2741 59.674 59.7428 58.8863 60.3223 58.0985C60.9082 57.3108 61.6178 56.5295 62.4512 55.7548L63.4375 56.7606C60.9115 59.2541 59.6484 62.0178 59.6484 65.0516C59.6484 66.5621 59.9674 68.0139 60.6055 69.4071C61.2435 70.8003 62.1875 72.1154 63.4375 73.3524L62.4121 74.3973ZM101.289 72.2977C101.621 72.3108 101.943 72.2815 102.256 72.2098C102.568 72.1382 102.842 72.0308 103.076 71.8876C103.317 71.7509 103.509 71.5783 103.652 71.37C103.796 71.1617 103.867 70.924 103.867 70.6571C103.867 70.3837 103.818 70.1623 103.721 69.993C103.63 69.8238 103.525 69.6675 103.408 69.5243C103.291 69.3811 103.184 69.2281 103.086 69.0653C102.995 68.9025 102.949 68.6844 102.949 68.411C102.949 68.2743 102.975 68.1311 103.027 67.9813C103.079 67.8316 103.158 67.6949 103.262 67.5712C103.372 67.4475 103.509 67.3466 103.672 67.2684C103.841 67.1903 104.04 67.1512 104.268 67.1512C104.495 67.1512 104.714 67.2001 104.922 67.2977C105.137 67.3889 105.322 67.5321 105.479 67.7274C105.641 67.9227 105.768 68.1669 105.859 68.4598C105.957 68.7528 106.006 69.0979 106.006 69.495C106.006 70.0354 105.905 70.5529 105.703 71.0477C105.508 71.549 105.212 71.9917 104.814 72.3759C104.424 72.76 103.932 73.066 103.34 73.2938C102.754 73.5217 102.07 73.6356 101.289 73.6356V72.2977ZM146.514 55.7548C149.515 58.5347 151.016 61.6272 151.016 65.0321C151.016 65.7352 150.944 66.4644 150.801 67.2196C150.658 67.9748 150.413 68.7496 150.068 69.5438C149.723 70.3316 149.258 71.1324 148.672 71.9462C148.092 72.76 147.36 73.577 146.475 74.3973L145.488 73.3915C146.758 72.135 147.705 70.8231 148.33 69.4559C148.955 68.0887 149.268 66.6565 149.268 65.1591C149.268 62.0601 148.008 59.2736 145.488 56.7997L146.514 55.7548ZM174.639 63.9872H166.24V62.5516H174.639V63.9872ZM174.639 67.3856H166.24V65.9501H174.639V67.3856ZM195.488 70.2958V63.2548C195.488 62.9488 195.475 62.6981 195.449 62.5028C195.43 62.3075 195.394 62.1545 195.342 62.0438C195.296 61.9266 195.234 61.8453 195.156 61.7997C195.085 61.7541 194.993 61.7313 194.883 61.7313C194.753 61.7313 194.632 61.7704 194.521 61.8485C194.411 61.9266 194.29 62.0536 194.16 62.2294C194.036 62.4052 193.896 62.6395 193.74 62.9325C193.59 63.219 193.411 63.5738 193.203 63.9969V70.2958H191.65V63.4403C191.65 63.0822 191.637 62.7925 191.611 62.5712C191.592 62.3498 191.556 62.1773 191.504 62.0536C191.458 61.9299 191.396 61.8453 191.318 61.7997C191.24 61.7541 191.146 61.7313 191.035 61.7313C190.918 61.7313 190.807 61.7639 190.703 61.829C190.599 61.8941 190.482 62.0113 190.352 62.1805C190.228 62.3498 190.088 62.5809 189.932 62.8739C189.775 63.1669 189.59 63.5412 189.375 63.9969V70.2958H187.812V60.4911H189.111L189.189 62.3563C189.359 61.9852 189.521 61.6695 189.678 61.4091C189.84 61.1486 190.007 60.9403 190.176 60.7841C190.345 60.6213 190.524 60.5041 190.713 60.4325C190.908 60.3544 191.123 60.3153 191.357 60.3153C191.885 60.3153 192.285 60.4878 192.559 60.8329C192.832 61.1779 192.969 61.7118 192.969 62.4344C193.125 62.0959 193.278 61.7964 193.428 61.536C193.577 61.2691 193.737 61.0477 193.906 60.8719C194.082 60.6897 194.274 60.5529 194.482 60.4618C194.691 60.3641 194.932 60.3153 195.205 60.3153C196.436 60.3153 197.051 61.2626 197.051 63.1571V70.2958H195.488ZM202.832 61.8973H199.932V60.4911H204.551V68.8798H207.471V70.2958H199.609V68.8798H202.832V61.8973ZM203.428 56.3798C203.617 56.3798 203.792 56.4156 203.955 56.4872C204.118 56.5523 204.258 56.6467 204.375 56.7704C204.499 56.8941 204.593 57.0373 204.658 57.2001C204.73 57.3563 204.766 57.5288 204.766 57.7177C204.766 57.8999 204.73 58.0725 204.658 58.2352C204.593 58.398 204.499 58.5412 204.375 58.6649C204.258 58.7886 204.118 58.8863 203.955 58.9579C203.792 59.023 203.617 59.0555 203.428 59.0555C203.239 59.0555 203.063 59.023 202.9 58.9579C202.738 58.8863 202.594 58.7886 202.471 58.6649C202.354 58.5412 202.259 58.398 202.188 58.2352C202.122 58.0725 202.09 57.8999 202.09 57.7177C202.09 57.5288 202.122 57.3563 202.188 57.2001C202.259 57.0373 202.354 56.8941 202.471 56.7704C202.594 56.6467 202.738 56.5523 202.9 56.4872C203.063 56.4156 203.239 56.3798 203.428 56.3798ZM210.488 60.4911H212.002L212.07 62.0731C212.357 61.7346 212.633 61.4546 212.9 61.2333C213.167 61.0054 213.428 60.8231 213.682 60.6864C213.942 60.5497 214.206 60.4553 214.473 60.4032C214.74 60.3446 215.016 60.3153 215.303 60.3153C216.312 60.3153 217.074 60.6148 217.588 61.2137C218.109 61.8062 218.369 62.7014 218.369 63.8993V70.2958H216.67V64.036C216.67 63.2678 216.527 62.7014 216.24 62.3368C215.954 61.9657 215.527 61.7802 214.961 61.7802C214.753 61.7802 214.548 61.8127 214.346 61.8778C214.15 61.9364 213.945 62.0438 213.73 62.2001C213.516 62.3498 213.281 62.5549 213.027 62.8153C212.78 63.0757 212.5 63.4012 212.188 63.7919V70.2958H210.488V60.4911Z" fill="#C9D1D9"/>
<path d="M247.887 1C242.108 2.51882 239.52 3.32582 236.113 9.05634V54.9155L226.817 64.831L236.113 74.1268V119.366C238.207 124.988 240.946 126.592 247.887 127.423" stroke="#C9D1D9"/>
</svg>
