<svg width="741" height="65" viewBox="0 0 741 65" fill="none" xmlns="http://www.w3.org/2000/svg">
<path d="M7.85938 50.5391C7.47917 50.3359 7.08854 50.1797 6.6875 50.0703C6.28646 49.9557 5.84896 49.8984 5.375 49.8984C4.83333 49.8984 4.35156 49.9948 3.92969 50.1875C3.50781 50.3802 3.15104 50.6536 2.85938 51.0078C2.57292 51.3568 2.35156 51.7786 2.19531 52.2734C2.04427 52.7682 1.96875 53.3151 1.96875 53.9141C1.96875 54.5391 2.03125 55.099 2.15625 55.5938C2.28125 56.0885 2.47656 56.5078 2.74219 56.8516C3.00781 57.1953 3.34635 57.4583 3.75781 57.6406C4.17448 57.8229 4.67188 57.9141 5.25 57.9141C5.34896 57.9141 5.45573 57.9089 5.57031 57.8984C5.6849 57.888 5.79948 57.875 5.91406 57.8594C6.02865 57.8385 6.13802 57.8151 6.24219 57.7891C6.35156 57.763 6.44792 57.7344 6.53125 57.7031V54.4531H4.44531V53.3047H7.90625V58.5234C7.69271 58.6224 7.46615 58.7109 7.22656 58.7891C6.99219 58.8672 6.75 58.9323 6.5 58.9844C6.25521 59.0365 6.01042 59.0755 5.76562 59.1016C5.52083 59.1276 5.28385 59.1406 5.05469 59.1406C4.35677 59.1406 3.72656 59.0312 3.16406 58.8125C2.60677 58.5938 2.13021 58.2708 1.73438 57.8438C1.34375 57.4115 1.04167 56.875 0.828125 56.2344C0.619792 55.5938 0.515625 54.8516 0.515625 54.0078C0.515625 53.1693 0.632812 52.4193 0.867188 51.7578C1.10156 51.0911 1.42969 50.5286 1.85156 50.0703C2.27865 49.6068 2.78906 49.2552 3.38281 49.0156C3.98177 48.7708 4.64062 48.6484 5.35938 48.6484C5.81771 48.6484 6.2526 48.6901 6.66406 48.7734C7.08073 48.8516 7.47917 48.9792 7.85938 49.1562V50.5391ZM17.5156 59H16L15.2891 56.7734H11.0391L10.3203 59H8.875L12.2656 48.7891H14.1719L17.5156 59ZM14.8906 55.5312L13.1641 50.0703L11.4375 55.5312H14.8906ZM26.3125 59H24.7969L24.0859 56.7734H19.8359L19.1172 59H17.6719L21.0625 48.7891H22.9688L26.3125 59ZM23.6875 55.5312L21.9609 50.0703L20.2344 55.5312H23.6875ZM34.1641 58.6172C33.3464 58.9557 32.4896 59.125 31.5938 59.125C30.151 59.125 29.0417 58.6953 28.2656 57.8359C27.4948 56.9714 27.1094 55.6953 27.1094 54.0078C27.1094 53.1901 27.2161 52.4505 27.4297 51.7891C27.6432 51.1276 27.9479 50.5677 28.3438 50.1094C28.7396 49.6458 29.2188 49.2891 29.7812 49.0391C30.3438 48.7891 30.974 48.6641 31.6719 48.6641C32.1458 48.6641 32.5859 48.7057 32.9922 48.7891C33.3984 48.8672 33.7891 48.9896 34.1641 49.1562V50.5234C33.7943 50.3203 33.4115 50.1667 33.0156 50.0625C32.6198 49.9531 32.1875 49.8984 31.7188 49.8984C31.2396 49.8984 30.8047 49.9896 30.4141 50.1719C30.0286 50.349 29.7005 50.6094 29.4297 50.9531C29.1589 51.2917 28.9505 51.7083 28.8047 52.2031C28.6589 52.6927 28.5859 53.2526 28.5859 53.8828C28.5859 55.2057 28.8542 56.2031 29.3906 56.875C29.9271 57.5469 30.7135 57.8828 31.75 57.8828C32.1875 57.8828 32.6068 57.8333 33.0078 57.7344C33.4089 57.6302 33.7943 57.487 34.1641 57.3047V58.6172ZM43.3125 49.9766H40.2891V59H38.8828V49.9766H35.8594V48.7891H43.3125V49.9766ZM51.8438 50.5391C51.4635 50.3359 51.0729 50.1797 50.6719 50.0703C50.2708 49.9557 49.8333 49.8984 49.3594 49.8984C48.8177 49.8984 48.3359 49.9948 47.9141 50.1875C47.4922 50.3802 47.1354 50.6536 46.8438 51.0078C46.5573 51.3568 46.3359 51.7786 46.1797 52.2734C46.0286 52.7682 45.9531 53.3151 45.9531 53.9141C45.9531 54.5391 46.0156 55.099 46.1406 55.5938C46.2656 56.0885 46.4609 56.5078 46.7266 56.8516C46.9922 57.1953 47.3307 57.4583 47.7422 57.6406C48.1589 57.8229 48.6562 57.9141 49.2344 57.9141C49.3333 57.9141 49.4401 57.9089 49.5547 57.8984C49.6693 57.888 49.7839 57.875 49.8984 57.8594C50.013 57.8385 50.1224 57.8151 50.2266 57.7891C50.3359 57.763 50.4323 57.7344 50.5156 57.7031V54.4531H48.4297V53.3047H51.8906V58.5234C51.6771 58.6224 51.4505 58.7109 51.2109 58.7891C50.9766 58.8672 50.7344 58.9323 50.4844 58.9844C50.2396 59.0365 49.9948 59.0755 49.75 59.1016C49.5052 59.1276 49.2682 59.1406 49.0391 59.1406C48.3411 59.1406 47.7109 59.0312 47.1484 58.8125C46.5911 58.5938 46.1146 58.2708 45.7188 57.8438C45.3281 57.4115 45.026 56.875 44.8125 56.2344C44.6042 55.5938 44.5 54.8516 44.5 54.0078C44.5 53.1693 44.6172 52.4193 44.8516 51.7578C45.0859 51.0911 45.4141 50.5286 45.8359 50.0703C46.263 49.6068 46.7734 49.2552 47.3672 49.0156C47.9661 48.7708 48.625 48.6484 49.3438 48.6484C49.8021 48.6484 50.237 48.6901 50.6484 48.7734C51.0651 48.8516 51.4635 48.9792 51.8438 49.1562V50.5391ZM61.5 59H59.9844L59.2734 56.7734H55.0234L54.3047 59H52.8594L56.25 48.7891H58.1562L61.5 59ZM58.875 55.5312L57.1484 50.0703L55.4219 55.5312H58.875ZM69.7031 49.9766H66.6797V59H65.2734V49.9766H62.25V48.7891H69.7031V49.9766ZM79.0938 59H77.5781L76.8672 56.7734H72.6172L71.8984 59H70.4531L73.8438 48.7891H75.75L79.0938 59ZM76.4688 55.5312L74.7422 50.0703L73.0156 55.5312H76.4688ZM86.9453 58.6172C86.1276 58.9557 85.2708 59.125 84.375 59.125C82.9323 59.125 81.8229 58.6953 81.0469 57.8359C80.276 56.9714 79.8906 55.6953 79.8906 54.0078C79.8906 53.1901 79.9974 52.4505 80.2109 51.7891C80.4245 51.1276 80.7292 50.5677 81.125 50.1094C81.5208 49.6458 82 49.2891 82.5625 49.0391C83.125 48.7891 83.7552 48.6641 84.4531 48.6641C84.9271 48.6641 85.3672 48.7057 85.7734 48.7891C86.1797 48.8672 86.5703 48.9896 86.9453 49.1562V50.5234C86.5755 50.3203 86.1927 50.1667 85.7969 50.0625C85.401 49.9531 84.9688 49.8984 84.5 49.8984C84.0208 49.8984 83.5859 49.9896 83.1953 50.1719C82.8099 50.349 82.4818 50.6094 82.2109 50.9531C81.9401 51.2917 81.7318 51.7083 81.5859 52.2031C81.4401 52.6927 81.3672 53.2526 81.3672 53.8828C81.3672 55.2057 81.6354 56.2031 82.1719 56.875C82.7083 57.5469 83.4948 57.8828 84.5312 57.8828C84.9688 57.8828 85.388 57.8333 85.7891 57.7344C86.1901 57.6302 86.5755 57.487 86.9453 57.3047V58.6172ZM95.7422 58.6172C94.9245 58.9557 94.0677 59.125 93.1719 59.125C91.7292 59.125 90.6198 58.6953 89.8438 57.8359C89.0729 56.9714 88.6875 55.6953 88.6875 54.0078C88.6875 53.1901 88.7943 52.4505 89.0078 51.7891C89.2214 51.1276 89.526 50.5677 89.9219 50.1094C90.3177 49.6458 90.7969 49.2891 91.3594 49.0391C91.9219 48.7891 92.5521 48.6641 93.25 48.6641C93.724 48.6641 94.1641 48.7057 94.5703 48.7891C94.9766 48.8672 95.3672 48.9896 95.7422 49.1562V50.5234C95.3724 50.3203 94.9896 50.1667 94.5938 50.0625C94.1979 49.9531 93.7656 49.8984 93.2969 49.8984C92.8177 49.8984 92.3828 49.9896 91.9922 50.1719C91.6068 50.349 91.2786 50.6094 91.0078 50.9531C90.737 51.2917 90.5286 51.7083 90.3828 52.2031C90.237 52.6927 90.1641 53.2526 90.1641 53.8828C90.1641 55.2057 90.4323 56.2031 90.9688 56.875C91.5052 57.5469 92.2917 57.8828 93.3281 57.8828C93.7656 57.8828 94.1849 57.8333 94.5859 57.7344C94.987 57.6302 95.3724 57.487 95.7422 57.3047V58.6172ZM104.625 50.5391C104.245 50.3359 103.854 50.1797 103.453 50.0703C103.052 49.9557 102.615 49.8984 102.141 49.8984C101.599 49.8984 101.117 49.9948 100.695 50.1875C100.273 50.3802 99.9167 50.6536 99.625 51.0078C99.3385 51.3568 99.1172 51.7786 98.9609 52.2734C98.8099 52.7682 98.7344 53.3151 98.7344 53.9141C98.7344 54.5391 98.7969 55.099 98.9219 55.5938C99.0469 56.0885 99.2422 56.5078 99.5078 56.8516C99.7734 57.1953 100.112 57.4583 100.523 57.6406C100.94 57.8229 101.438 57.9141 102.016 57.9141C102.115 57.9141 102.221 57.9089 102.336 57.8984C102.451 57.888 102.565 57.875 102.68 57.8594C102.794 57.8385 102.904 57.8151 103.008 57.7891C103.117 57.763 103.214 57.7344 103.297 57.7031V54.4531H101.211V53.3047H104.672V58.5234C104.458 58.6224 104.232 58.7109 103.992 58.7891C103.758 58.8672 103.516 58.9323 103.266 58.9844C103.021 59.0365 102.776 59.0755 102.531 59.1016C102.286 59.1276 102.049 59.1406 101.82 59.1406C101.122 59.1406 100.492 59.0312 99.9297 58.8125C99.3724 58.5938 98.8958 58.2708 98.5 57.8438C98.1094 57.4115 97.8073 56.875 97.5938 56.2344C97.3854 55.5938 97.2812 54.8516 97.2812 54.0078C97.2812 53.1693 97.3984 52.4193 97.6328 51.7578C97.8672 51.0911 98.1953 50.5286 98.6172 50.0703C99.0443 49.6068 99.5547 49.2552 100.148 49.0156C100.747 48.7708 101.406 48.6484 102.125 48.6484C102.583 48.6484 103.018 48.6901 103.43 48.7734C103.846 48.8516 104.245 48.9792 104.625 49.1562V50.5391ZM113.422 50.5391C113.042 50.3359 112.651 50.1797 112.25 50.0703C111.849 49.9557 111.411 49.8984 110.938 49.8984C110.396 49.8984 109.914 49.9948 109.492 50.1875C109.07 50.3802 108.714 50.6536 108.422 51.0078C108.135 51.3568 107.914 51.7786 107.758 52.2734C107.607 52.7682 107.531 53.3151 107.531 53.9141C107.531 54.5391 107.594 55.099 107.719 55.5938C107.844 56.0885 108.039 56.5078 108.305 56.8516C108.57 57.1953 108.909 57.4583 109.32 57.6406C109.737 57.8229 110.234 57.9141 110.812 57.9141C110.911 57.9141 111.018 57.9089 111.133 57.8984C111.247 57.888 111.362 57.875 111.477 57.8594C111.591 57.8385 111.701 57.8151 111.805 57.7891C111.914 57.763 112.01 57.7344 112.094 57.7031V54.4531H110.008V53.3047H113.469V58.5234C113.255 58.6224 113.029 58.7109 112.789 58.7891C112.555 58.8672 112.312 58.9323 112.062 58.9844C111.818 59.0365 111.573 59.0755 111.328 59.1016C111.083 59.1276 110.846 59.1406 110.617 59.1406C109.919 59.1406 109.289 59.0312 108.727 58.8125C108.169 58.5938 107.693 58.2708 107.297 57.8438C106.906 57.4115 106.604 56.875 106.391 56.2344C106.182 55.5938 106.078 54.8516 106.078 54.0078C106.078 53.1693 106.195 52.4193 106.43 51.7578C106.664 51.0911 106.992 50.5286 107.414 50.0703C107.841 49.6068 108.352 49.2552 108.945 49.0156C109.544 48.7708 110.203 48.6484 110.922 48.6484C111.38 48.6484 111.815 48.6901 112.227 48.7734C112.643 48.8516 113.042 48.9792 113.422 49.1562V50.5391ZM122.219 50.5391C121.839 50.3359 121.448 50.1797 121.047 50.0703C120.646 49.9557 120.208 49.8984 119.734 49.8984C119.193 49.8984 118.711 49.9948 118.289 50.1875C117.867 50.3802 117.51 50.6536 117.219 51.0078C116.932 51.3568 116.711 51.7786 116.555 52.2734C116.404 52.7682 116.328 53.3151 116.328 53.9141C116.328 54.5391 116.391 55.099 116.516 55.5938C116.641 56.0885 116.836 56.5078 117.102 56.8516C117.367 57.1953 117.706 57.4583 118.117 57.6406C118.534 57.8229 119.031 57.9141 119.609 57.9141C119.708 57.9141 119.815 57.9089 119.93 57.8984C120.044 57.888 120.159 57.875 120.273 57.8594C120.388 57.8385 120.497 57.8151 120.602 57.7891C120.711 57.763 120.807 57.7344 120.891 57.7031V54.4531H118.805V53.3047H122.266V58.5234C122.052 58.6224 121.826 58.7109 121.586 58.7891C121.352 58.8672 121.109 58.9323 120.859 58.9844C120.615 59.0365 120.37 59.0755 120.125 59.1016C119.88 59.1276 119.643 59.1406 119.414 59.1406C118.716 59.1406 118.086 59.0312 117.523 58.8125C116.966 58.5938 116.49 58.2708 116.094 57.8438C115.703 57.4115 115.401 56.875 115.188 56.2344C114.979 55.5938 114.875 54.8516 114.875 54.0078C114.875 53.1693 114.992 52.4193 115.227 51.7578C115.461 51.0911 115.789 50.5286 116.211 50.0703C116.638 49.6068 117.148 49.2552 117.742 49.0156C118.341 48.7708 119 48.6484 119.719 48.6484C120.177 48.6484 120.612 48.6901 121.023 48.7734C121.44 48.8516 121.839 48.9792 122.219 49.1562V50.5391ZM131.016 50.5391C130.635 50.3359 130.245 50.1797 129.844 50.0703C129.443 49.9557 129.005 49.8984 128.531 49.8984C127.99 49.8984 127.508 49.9948 127.086 50.1875C126.664 50.3802 126.307 50.6536 126.016 51.0078C125.729 51.3568 125.508 51.7786 125.352 52.2734C125.201 52.7682 125.125 53.3151 125.125 53.9141C125.125 54.5391 125.188 55.099 125.312 55.5938C125.438 56.0885 125.633 56.5078 125.898 56.8516C126.164 57.1953 126.503 57.4583 126.914 57.6406C127.331 57.8229 127.828 57.9141 128.406 57.9141C128.505 57.9141 128.612 57.9089 128.727 57.8984C128.841 57.888 128.956 57.875 129.07 57.8594C129.185 57.8385 129.294 57.8151 129.398 57.7891C129.508 57.763 129.604 57.7344 129.688 57.7031V54.4531H127.602V53.3047H131.062V58.5234C130.849 58.6224 130.622 58.7109 130.383 58.7891C130.148 58.8672 129.906 58.9323 129.656 58.9844C129.411 59.0365 129.167 59.0755 128.922 59.1016C128.677 59.1276 128.44 59.1406 128.211 59.1406C127.513 59.1406 126.883 59.0312 126.32 58.8125C125.763 58.5938 125.286 58.2708 124.891 57.8438C124.5 57.4115 124.198 56.875 123.984 56.2344C123.776 55.5938 123.672 54.8516 123.672 54.0078C123.672 53.1693 123.789 52.4193 124.023 51.7578C124.258 51.0911 124.586 50.5286 125.008 50.0703C125.435 49.6068 125.945 49.2552 126.539 49.0156C127.138 48.7708 127.797 48.6484 128.516 48.6484C128.974 48.6484 129.409 48.6901 129.82 48.7734C130.237 48.8516 130.635 48.9792 131.016 49.1562V50.5391ZM140.078 49.9766H137.055V59H135.648V49.9766H132.625V48.7891H140.078V49.9766ZM148.875 49.9766H145.852V59H144.445V49.9766H141.422V48.7891H148.875V49.9766ZM157.406 50.5391C157.026 50.3359 156.635 50.1797 156.234 50.0703C155.833 49.9557 155.396 49.8984 154.922 49.8984C154.38 49.8984 153.898 49.9948 153.477 50.1875C153.055 50.3802 152.698 50.6536 152.406 51.0078C152.12 51.3568 151.898 51.7786 151.742 52.2734C151.591 52.7682 151.516 53.3151 151.516 53.9141C151.516 54.5391 151.578 55.099 151.703 55.5938C151.828 56.0885 152.023 56.5078 152.289 56.8516C152.555 57.1953 152.893 57.4583 153.305 57.6406C153.721 57.8229 154.219 57.9141 154.797 57.9141C154.896 57.9141 155.003 57.9089 155.117 57.8984C155.232 57.888 155.346 57.875 155.461 57.8594C155.576 57.8385 155.685 57.8151 155.789 57.7891C155.898 57.763 155.995 57.7344 156.078 57.7031V54.4531H153.992V53.3047H157.453V58.5234C157.24 58.6224 157.013 58.7109 156.773 58.7891C156.539 58.8672 156.297 58.9323 156.047 58.9844C155.802 59.0365 155.557 59.0755 155.312 59.1016C155.068 59.1276 154.831 59.1406 154.602 59.1406C153.904 59.1406 153.273 59.0312 152.711 58.8125C152.154 58.5938 151.677 58.2708 151.281 57.8438C150.891 57.4115 150.589 56.875 150.375 56.2344C150.167 55.5938 150.062 54.8516 150.062 54.0078C150.062 53.1693 150.18 52.4193 150.414 51.7578C150.648 51.0911 150.977 50.5286 151.398 50.0703C151.826 49.6068 152.336 49.2552 152.93 49.0156C153.529 48.7708 154.188 48.6484 154.906 48.6484C155.365 48.6484 155.799 48.6901 156.211 48.7734C156.628 48.8516 157.026 48.9792 157.406 49.1562V50.5391ZM166.117 58.6172C165.299 58.9557 164.443 59.125 163.547 59.125C162.104 59.125 160.995 58.6953 160.219 57.8359C159.448 56.9714 159.062 55.6953 159.062 54.0078C159.062 53.1901 159.169 52.4505 159.383 51.7891C159.596 51.1276 159.901 50.5677 160.297 50.1094C160.693 49.6458 161.172 49.2891 161.734 49.0391C162.297 48.7891 162.927 48.6641 163.625 48.6641C164.099 48.6641 164.539 48.7057 164.945 48.7891C165.352 48.8672 165.742 48.9896 166.117 49.1562V50.5234C165.747 50.3203 165.365 50.1667 164.969 50.0625C164.573 49.9531 164.141 49.8984 163.672 49.8984C163.193 49.8984 162.758 49.9896 162.367 50.1719C161.982 50.349 161.654 50.6094 161.383 50.9531C161.112 51.2917 160.904 51.7083 160.758 52.2031C160.612 52.6927 160.539 53.2526 160.539 53.8828C160.539 55.2057 160.807 56.2031 161.344 56.875C161.88 57.5469 162.667 57.8828 163.703 57.8828C164.141 57.8828 164.56 57.8333 164.961 57.7344C165.362 57.6302 165.747 57.487 166.117 57.3047V58.6172ZM175.266 49.9766H172.242V59H170.836V49.9766H167.812V48.7891H175.266V49.9766ZM183.797 50.5391C183.417 50.3359 183.026 50.1797 182.625 50.0703C182.224 49.9557 181.786 49.8984 181.312 49.8984C180.771 49.8984 180.289 49.9948 179.867 50.1875C179.445 50.3802 179.089 50.6536 178.797 51.0078C178.51 51.3568 178.289 51.7786 178.133 52.2734C177.982 52.7682 177.906 53.3151 177.906 53.9141C177.906 54.5391 177.969 55.099 178.094 55.5938C178.219 56.0885 178.414 56.5078 178.68 56.8516C178.945 57.1953 179.284 57.4583 179.695 57.6406C180.112 57.8229 180.609 57.9141 181.188 57.9141C181.286 57.9141 181.393 57.9089 181.508 57.8984C181.622 57.888 181.737 57.875 181.852 57.8594C181.966 57.8385 182.076 57.8151 182.18 57.7891C182.289 57.763 182.385 57.7344 182.469 57.7031V54.4531H180.383V53.3047H183.844V58.5234C183.63 58.6224 183.404 58.7109 183.164 58.7891C182.93 58.8672 182.688 58.9323 182.438 58.9844C182.193 59.0365 181.948 59.0755 181.703 59.1016C181.458 59.1276 181.221 59.1406 180.992 59.1406C180.294 59.1406 179.664 59.0312 179.102 58.8125C178.544 58.5938 178.068 58.2708 177.672 57.8438C177.281 57.4115 176.979 56.875 176.766 56.2344C176.557 55.5938 176.453 54.8516 176.453 54.0078C176.453 53.1693 176.57 52.4193 176.805 51.7578C177.039 51.0911 177.367 50.5286 177.789 50.0703C178.216 49.6068 178.727 49.2552 179.32 49.0156C179.919 48.7708 180.578 48.6484 181.297 48.6484C181.755 48.6484 182.19 48.6901 182.602 48.7734C183.018 48.8516 183.417 48.9792 183.797 49.1562V50.5391ZM193.453 59H191.938L191.227 56.7734H186.977L186.258 59H184.812L188.203 48.7891H190.109L193.453 59ZM190.828 55.5312L189.102 50.0703L187.375 55.5312H190.828ZM201.391 50.5391C201.01 50.3359 200.62 50.1797 200.219 50.0703C199.818 49.9557 199.38 49.8984 198.906 49.8984C198.365 49.8984 197.883 49.9948 197.461 50.1875C197.039 50.3802 196.682 50.6536 196.391 51.0078C196.104 51.3568 195.883 51.7786 195.727 52.2734C195.576 52.7682 195.5 53.3151 195.5 53.9141C195.5 54.5391 195.562 55.099 195.688 55.5938C195.812 56.0885 196.008 56.5078 196.273 56.8516C196.539 57.1953 196.878 57.4583 197.289 57.6406C197.706 57.8229 198.203 57.9141 198.781 57.9141C198.88 57.9141 198.987 57.9089 199.102 57.8984C199.216 57.888 199.331 57.875 199.445 57.8594C199.56 57.8385 199.669 57.8151 199.773 57.7891C199.883 57.763 199.979 57.7344 200.062 57.7031V54.4531H197.977V53.3047H201.438V58.5234C201.224 58.6224 200.997 58.7109 200.758 58.7891C200.523 58.8672 200.281 58.9323 200.031 58.9844C199.786 59.0365 199.542 59.0755 199.297 59.1016C199.052 59.1276 198.815 59.1406 198.586 59.1406C197.888 59.1406 197.258 59.0312 196.695 58.8125C196.138 58.5938 195.661 58.2708 195.266 57.8438C194.875 57.4115 194.573 56.875 194.359 56.2344C194.151 55.5938 194.047 54.8516 194.047 54.0078C194.047 53.1693 194.164 52.4193 194.398 51.7578C194.633 51.0911 194.961 50.5286 195.383 50.0703C195.81 49.6068 196.32 49.2552 196.914 49.0156C197.513 48.7708 198.172 48.6484 198.891 48.6484C199.349 48.6484 199.784 48.6901 200.195 48.7734C200.612 48.8516 201.01 48.9792 201.391 49.1562V50.5391ZM210.453 49.9766H207.43V59H206.023V49.9766H203V48.7891H210.453V49.9766ZM218.984 50.5391C218.604 50.3359 218.214 50.1797 217.812 50.0703C217.411 49.9557 216.974 49.8984 216.5 49.8984C215.958 49.8984 215.477 49.9948 215.055 50.1875C214.633 50.3802 214.276 50.6536 213.984 51.0078C213.698 51.3568 213.477 51.7786 213.32 52.2734C213.169 52.7682 213.094 53.3151 213.094 53.9141C213.094 54.5391 213.156 55.099 213.281 55.5938C213.406 56.0885 213.602 56.5078 213.867 56.8516C214.133 57.1953 214.471 57.4583 214.883 57.6406C215.299 57.8229 215.797 57.9141 216.375 57.9141C216.474 57.9141 216.581 57.9089 216.695 57.8984C216.81 57.888 216.924 57.875 217.039 57.8594C217.154 57.8385 217.263 57.8151 217.367 57.7891C217.477 57.763 217.573 57.7344 217.656 57.7031V54.4531H215.57V53.3047H219.031V58.5234C218.818 58.6224 218.591 58.7109 218.352 58.7891C218.117 58.8672 217.875 58.9323 217.625 58.9844C217.38 59.0365 217.135 59.0755 216.891 59.1016C216.646 59.1276 216.409 59.1406 216.18 59.1406C215.482 59.1406 214.852 59.0312 214.289 58.8125C213.732 58.5938 213.255 58.2708 212.859 57.8438C212.469 57.4115 212.167 56.875 211.953 56.2344C211.745 55.5938 211.641 54.8516 211.641 54.0078C211.641 53.1693 211.758 52.4193 211.992 51.7578C212.227 51.0911 212.555 50.5286 212.977 50.0703C213.404 49.6068 213.914 49.2552 214.508 49.0156C215.107 48.7708 215.766 48.6484 216.484 48.6484C216.943 48.6484 217.378 48.6901 217.789 48.7734C218.206 48.8516 218.604 48.9792 218.984 49.1562V50.5391ZM228.641 59H227.125L226.414 56.7734H222.164L221.445 59H220L223.391 48.7891H225.297L228.641 59ZM226.016 55.5312L224.289 50.0703L222.562 55.5312H226.016ZM237.438 59H235.922L235.211 56.7734H230.961L230.242 59H228.797L232.188 48.7891H234.094L237.438 59ZM234.812 55.5312L233.086 50.0703L231.359 55.5312H234.812ZM245.641 49.9766H242.617V59H241.211V49.9766H238.188V48.7891H245.641V49.9766ZM255.031 59H253.516L252.805 56.7734H248.555L247.836 59H246.391L249.781 48.7891H251.688L255.031 59ZM252.406 55.5312L250.68 50.0703L248.953 55.5312H252.406ZM263.234 49.9766H260.211V59H258.805V49.9766H255.781V48.7891H263.234V49.9766ZM272.625 59H271.109L270.398 56.7734H266.148L265.43 59H263.984L267.375 48.7891H269.281L272.625 59ZM270 55.5312L268.273 50.0703L266.547 55.5312H270ZM280.828 49.9766H277.805V59H276.398V49.9766H273.375V48.7891H280.828V49.9766ZM289.273 58.6172C288.456 58.9557 287.599 59.125 286.703 59.125C285.26 59.125 284.151 58.6953 283.375 57.8359C282.604 56.9714 282.219 55.6953 282.219 54.0078C282.219 53.1901 282.326 52.4505 282.539 51.7891C282.753 51.1276 283.057 50.5677 283.453 50.1094C283.849 49.6458 284.328 49.2891 284.891 49.0391C285.453 48.7891 286.083 48.6641 286.781 48.6641C287.255 48.6641 287.695 48.7057 288.102 48.7891C288.508 48.8672 288.898 48.9896 289.273 49.1562V50.5234C288.904 50.3203 288.521 50.1667 288.125 50.0625C287.729 49.9531 287.297 49.8984 286.828 49.8984C286.349 49.8984 285.914 49.9896 285.523 50.1719C285.138 50.349 284.81 50.6094 284.539 50.9531C284.268 51.2917 284.06 51.7083 283.914 52.2031C283.768 52.6927 283.695 53.2526 283.695 53.8828C283.695 55.2057 283.964 56.2031 284.5 56.875C285.036 57.5469 285.823 57.8828 286.859 57.8828C287.297 57.8828 287.716 57.8333 288.117 57.7344C288.518 57.6302 288.904 57.487 289.273 57.3047V58.6172ZM298.156 50.5391C297.776 50.3359 297.385 50.1797 296.984 50.0703C296.583 49.9557 296.146 49.8984 295.672 49.8984C295.13 49.8984 294.648 49.9948 294.227 50.1875C293.805 50.3802 293.448 50.6536 293.156 51.0078C292.87 51.3568 292.648 51.7786 292.492 52.2734C292.341 52.7682 292.266 53.3151 292.266 53.9141C292.266 54.5391 292.328 55.099 292.453 55.5938C292.578 56.0885 292.773 56.5078 293.039 56.8516C293.305 57.1953 293.643 57.4583 294.055 57.6406C294.471 57.8229 294.969 57.9141 295.547 57.9141C295.646 57.9141 295.753 57.9089 295.867 57.8984C295.982 57.888 296.096 57.875 296.211 57.8594C296.326 57.8385 296.435 57.8151 296.539 57.7891C296.648 57.763 296.745 57.7344 296.828 57.7031V54.4531H294.742V53.3047H298.203V58.5234C297.99 58.6224 297.763 58.7109 297.523 58.7891C297.289 58.8672 297.047 58.9323 296.797 58.9844C296.552 59.0365 296.307 59.0755 296.062 59.1016C295.818 59.1276 295.581 59.1406 295.352 59.1406C294.654 59.1406 294.023 59.0312 293.461 58.8125C292.904 58.5938 292.427 58.2708 292.031 57.8438C291.641 57.4115 291.339 56.875 291.125 56.2344C290.917 55.5938 290.812 54.8516 290.812 54.0078C290.812 53.1693 290.93 52.4193 291.164 51.7578C291.398 51.0911 291.727 50.5286 292.148 50.0703C292.576 49.6068 293.086 49.2552 293.68 49.0156C294.279 48.7708 294.938 48.6484 295.656 48.6484C296.115 48.6484 296.549 48.6901 296.961 48.7734C297.378 48.8516 297.776 48.9792 298.156 49.1562V50.5391ZM307.812 59H306.297L305.586 56.7734H301.336L300.617 59H299.172L302.562 48.7891H304.469L307.812 59ZM305.188 55.5312L303.461 50.0703L301.734 55.5312H305.188ZM316.609 59H315.094L314.383 56.7734H310.133L309.414 59H307.969L311.359 48.7891H313.266L316.609 59ZM313.984 55.5312L312.258 50.0703L310.531 55.5312H313.984ZM324.461 58.6172C323.643 58.9557 322.786 59.125 321.891 59.125C320.448 59.125 319.339 58.6953 318.562 57.8359C317.792 56.9714 317.406 55.6953 317.406 54.0078C317.406 53.1901 317.513 52.4505 317.727 51.7891C317.94 51.1276 318.245 50.5677 318.641 50.1094C319.036 49.6458 319.516 49.2891 320.078 49.0391C320.641 48.7891 321.271 48.6641 321.969 48.6641C322.443 48.6641 322.883 48.7057 323.289 48.7891C323.695 48.8672 324.086 48.9896 324.461 49.1562V50.5234C324.091 50.3203 323.708 50.1667 323.312 50.0625C322.917 49.9531 322.484 49.8984 322.016 49.8984C321.536 49.8984 321.102 49.9896 320.711 50.1719C320.326 50.349 319.997 50.6094 319.727 50.9531C319.456 51.2917 319.247 51.7083 319.102 52.2031C318.956 52.6927 318.883 53.2526 318.883 53.8828C318.883 55.2057 319.151 56.2031 319.688 56.875C320.224 57.5469 321.01 57.8828 322.047 57.8828C322.484 57.8828 322.904 57.8333 323.305 57.7344C323.706 57.6302 324.091 57.487 324.461 57.3047V58.6172ZM334.203 59H332.688L331.977 56.7734H327.727L327.008 59H325.562L328.953 48.7891H330.859L334.203 59ZM331.578 55.5312L329.852 50.0703L328.125 55.5312H331.578ZM342.141 50.5391C341.76 50.3359 341.37 50.1797 340.969 50.0703C340.568 49.9557 340.13 49.8984 339.656 49.8984C339.115 49.8984 338.633 49.9948 338.211 50.1875C337.789 50.3802 337.432 50.6536 337.141 51.0078C336.854 51.3568 336.633 51.7786 336.477 52.2734C336.326 52.7682 336.25 53.3151 336.25 53.9141C336.25 54.5391 336.312 55.099 336.438 55.5938C336.562 56.0885 336.758 56.5078 337.023 56.8516C337.289 57.1953 337.628 57.4583 338.039 57.6406C338.456 57.8229 338.953 57.9141 339.531 57.9141C339.63 57.9141 339.737 57.9089 339.852 57.8984C339.966 57.888 340.081 57.875 340.195 57.8594C340.31 57.8385 340.419 57.8151 340.523 57.7891C340.633 57.763 340.729 57.7344 340.812 57.7031V54.4531H338.727V53.3047H342.188V58.5234C341.974 58.6224 341.747 58.7109 341.508 58.7891C341.273 58.8672 341.031 58.9323 340.781 58.9844C340.536 59.0365 340.292 59.0755 340.047 59.1016C339.802 59.1276 339.565 59.1406 339.336 59.1406C338.638 59.1406 338.008 59.0312 337.445 58.8125C336.888 58.5938 336.411 58.2708 336.016 57.8438C335.625 57.4115 335.323 56.875 335.109 56.2344C334.901 55.5938 334.797 54.8516 334.797 54.0078C334.797 53.1693 334.914 52.4193 335.148 51.7578C335.383 51.0911 335.711 50.5286 336.133 50.0703C336.56 49.6068 337.07 49.2552 337.664 49.0156C338.263 48.7708 338.922 48.6484 339.641 48.6484C340.099 48.6484 340.534 48.6901 340.945 48.7734C341.362 48.8516 341.76 48.9792 342.141 49.1562V50.5391ZM351.203 49.9766H348.18V59H346.773V49.9766H343.75V48.7891H351.203V49.9766ZM359.648 58.6172C358.831 58.9557 357.974 59.125 357.078 59.125C355.635 59.125 354.526 58.6953 353.75 57.8359C352.979 56.9714 352.594 55.6953 352.594 54.0078C352.594 53.1901 352.701 52.4505 352.914 51.7891C353.128 51.1276 353.432 50.5677 353.828 50.1094C354.224 49.6458 354.703 49.2891 355.266 49.0391C355.828 48.7891 356.458 48.6641 357.156 48.6641C357.63 48.6641 358.07 48.7057 358.477 48.7891C358.883 48.8672 359.273 48.9896 359.648 49.1562V50.5234C359.279 50.3203 358.896 50.1667 358.5 50.0625C358.104 49.9531 357.672 49.8984 357.203 49.8984C356.724 49.8984 356.289 49.9896 355.898 50.1719C355.513 50.349 355.185 50.6094 354.914 50.9531C354.643 51.2917 354.435 51.7083 354.289 52.2031C354.143 52.6927 354.07 53.2526 354.07 53.8828C354.07 55.2057 354.339 56.2031 354.875 56.875C355.411 57.5469 356.198 57.8828 357.234 57.8828C357.672 57.8828 358.091 57.8333 358.492 57.7344C358.893 57.6302 359.279 57.487 359.648 57.3047V58.6172ZM369.391 59H367.875L367.164 56.7734H362.914L362.195 59H360.75L364.141 48.7891H366.047L369.391 59ZM366.766 55.5312L365.039 50.0703L363.312 55.5312H366.766ZM377.328 50.5391C376.948 50.3359 376.557 50.1797 376.156 50.0703C375.755 49.9557 375.318 49.8984 374.844 49.8984C374.302 49.8984 373.82 49.9948 373.398 50.1875C372.977 50.3802 372.62 50.6536 372.328 51.0078C372.042 51.3568 371.82 51.7786 371.664 52.2734C371.513 52.7682 371.438 53.3151 371.438 53.9141C371.438 54.5391 371.5 55.099 371.625 55.5938C371.75 56.0885 371.945 56.5078 372.211 56.8516C372.477 57.1953 372.815 57.4583 373.227 57.6406C373.643 57.8229 374.141 57.9141 374.719 57.9141C374.818 57.9141 374.924 57.9089 375.039 57.8984C375.154 57.888 375.268 57.875 375.383 57.8594C375.497 57.8385 375.607 57.8151 375.711 57.7891C375.82 57.763 375.917 57.7344 376 57.7031V54.4531H373.914V53.3047H377.375V58.5234C377.161 58.6224 376.935 58.7109 376.695 58.7891C376.461 58.8672 376.219 58.9323 375.969 58.9844C375.724 59.0365 375.479 59.0755 375.234 59.1016C374.99 59.1276 374.753 59.1406 374.523 59.1406C373.826 59.1406 373.195 59.0312 372.633 58.8125C372.076 58.5938 371.599 58.2708 371.203 57.8438C370.812 57.4115 370.51 56.875 370.297 56.2344C370.089 55.5938 369.984 54.8516 369.984 54.0078C369.984 53.1693 370.102 52.4193 370.336 51.7578C370.57 51.0911 370.898 50.5286 371.32 50.0703C371.747 49.6068 372.258 49.2552 372.852 49.0156C373.451 48.7708 374.109 48.6484 374.828 48.6484C375.286 48.6484 375.721 48.6901 376.133 48.7734C376.549 48.8516 376.948 48.9792 377.328 49.1562V50.5391ZM386.125 50.5391C385.745 50.3359 385.354 50.1797 384.953 50.0703C384.552 49.9557 384.115 49.8984 383.641 49.8984C383.099 49.8984 382.617 49.9948 382.195 50.1875C381.773 50.3802 381.417 50.6536 381.125 51.0078C380.839 51.3568 380.617 51.7786 380.461 52.2734C380.31 52.7682 380.234 53.3151 380.234 53.9141C380.234 54.5391 380.297 55.099 380.422 55.5938C380.547 56.0885 380.742 56.5078 381.008 56.8516C381.273 57.1953 381.612 57.4583 382.023 57.6406C382.44 57.8229 382.938 57.9141 383.516 57.9141C383.615 57.9141 383.721 57.9089 383.836 57.8984C383.951 57.888 384.065 57.875 384.18 57.8594C384.294 57.8385 384.404 57.8151 384.508 57.7891C384.617 57.763 384.714 57.7344 384.797 57.7031V54.4531H382.711V53.3047H386.172V58.5234C385.958 58.6224 385.732 58.7109 385.492 58.7891C385.258 58.8672 385.016 58.9323 384.766 58.9844C384.521 59.0365 384.276 59.0755 384.031 59.1016C383.786 59.1276 383.549 59.1406 383.32 59.1406C382.622 59.1406 381.992 59.0312 381.43 58.8125C380.872 58.5938 380.396 58.2708 380 57.8438C379.609 57.4115 379.307 56.875 379.094 56.2344C378.885 55.5938 378.781 54.8516 378.781 54.0078C378.781 53.1693 378.898 52.4193 379.133 51.7578C379.367 51.0911 379.695 50.5286 380.117 50.0703C380.544 49.6068 381.055 49.2552 381.648 49.0156C382.247 48.7708 382.906 48.6484 383.625 48.6484C384.083 48.6484 384.518 48.6901 384.93 48.7734C385.346 48.8516 385.745 48.9792 386.125 49.1562V50.5391ZM395.188 49.9766H392.164V59H390.758V49.9766H387.734V48.7891H395.188V49.9766ZM403.984 49.9766H400.961V59H399.555V49.9766H396.531V48.7891H403.984V49.9766ZM413.375 59H411.859L411.148 56.7734H406.898L406.18 59H404.734L408.125 48.7891H410.031L413.375 59ZM410.75 55.5312L409.023 50.0703L407.297 55.5312H410.75ZM422.172 59H420.656L419.945 56.7734H415.695L414.977 59H413.531L416.922 48.7891H418.828L422.172 59ZM419.547 55.5312L417.82 50.0703L416.094 55.5312H419.547ZM430.023 58.6172C429.206 58.9557 428.349 59.125 427.453 59.125C426.01 59.125 424.901 58.6953 424.125 57.8359C423.354 56.9714 422.969 55.6953 422.969 54.0078C422.969 53.1901 423.076 52.4505 423.289 51.7891C423.503 51.1276 423.807 50.5677 424.203 50.1094C424.599 49.6458 425.078 49.2891 425.641 49.0391C426.203 48.7891 426.833 48.6641 427.531 48.6641C428.005 48.6641 428.445 48.7057 428.852 48.7891C429.258 48.8672 429.648 48.9896 430.023 49.1562V50.5234C429.654 50.3203 429.271 50.1667 428.875 50.0625C428.479 49.9531 428.047 49.8984 427.578 49.8984C427.099 49.8984 426.664 49.9896 426.273 50.1719C425.888 50.349 425.56 50.6094 425.289 50.9531C425.018 51.2917 424.81 51.7083 424.664 52.2031C424.518 52.6927 424.445 53.2526 424.445 53.8828C424.445 55.2057 424.714 56.2031 425.25 56.875C425.786 57.5469 426.573 57.8828 427.609 57.8828C428.047 57.8828 428.466 57.8333 428.867 57.7344C429.268 57.6302 429.654 57.487 430.023 57.3047V58.6172ZM439.766 59H438.25L437.539 56.7734H433.289L432.57 59H431.125L434.516 48.7891H436.422L439.766 59ZM437.141 55.5312L435.414 50.0703L433.688 55.5312H437.141ZM447.703 50.5391C447.323 50.3359 446.932 50.1797 446.531 50.0703C446.13 49.9557 445.693 49.8984 445.219 49.8984C444.677 49.8984 444.195 49.9948 443.773 50.1875C443.352 50.3802 442.995 50.6536 442.703 51.0078C442.417 51.3568 442.195 51.7786 442.039 52.2734C441.888 52.7682 441.812 53.3151 441.812 53.9141C441.812 54.5391 441.875 55.099 442 55.5938C442.125 56.0885 442.32 56.5078 442.586 56.8516C442.852 57.1953 443.19 57.4583 443.602 57.6406C444.018 57.8229 444.516 57.9141 445.094 57.9141C445.193 57.9141 445.299 57.9089 445.414 57.8984C445.529 57.888 445.643 57.875 445.758 57.8594C445.872 57.8385 445.982 57.8151 446.086 57.7891C446.195 57.763 446.292 57.7344 446.375 57.7031V54.4531H444.289V53.3047H447.75V58.5234C447.536 58.6224 447.31 58.7109 447.07 58.7891C446.836 58.8672 446.594 58.9323 446.344 58.9844C446.099 59.0365 445.854 59.0755 445.609 59.1016C445.365 59.1276 445.128 59.1406 444.898 59.1406C444.201 59.1406 443.57 59.0312 443.008 58.8125C442.451 58.5938 441.974 58.2708 441.578 57.8438C441.188 57.4115 440.885 56.875 440.672 56.2344C440.464 55.5938 440.359 54.8516 440.359 54.0078C440.359 53.1693 440.477 52.4193 440.711 51.7578C440.945 51.0911 441.273 50.5286 441.695 50.0703C442.122 49.6068 442.633 49.2552 443.227 49.0156C443.826 48.7708 444.484 48.6484 445.203 48.6484C445.661 48.6484 446.096 48.6901 446.508 48.7734C446.924 48.8516 447.323 48.9792 447.703 49.1562V50.5391ZM456.5 50.5391C456.12 50.3359 455.729 50.1797 455.328 50.0703C454.927 49.9557 454.49 49.8984 454.016 49.8984C453.474 49.8984 452.992 49.9948 452.57 50.1875C452.148 50.3802 451.792 50.6536 451.5 51.0078C451.214 51.3568 450.992 51.7786 450.836 52.2734C450.685 52.7682 450.609 53.3151 450.609 53.9141C450.609 54.5391 450.672 55.099 450.797 55.5938C450.922 56.0885 451.117 56.5078 451.383 56.8516C451.648 57.1953 451.987 57.4583 452.398 57.6406C452.815 57.8229 453.312 57.9141 453.891 57.9141C453.99 57.9141 454.096 57.9089 454.211 57.8984C454.326 57.888 454.44 57.875 454.555 57.8594C454.669 57.8385 454.779 57.8151 454.883 57.7891C454.992 57.763 455.089 57.7344 455.172 57.7031V54.4531H453.086V53.3047H456.547V58.5234C456.333 58.6224 456.107 58.7109 455.867 58.7891C455.633 58.8672 455.391 58.9323 455.141 58.9844C454.896 59.0365 454.651 59.0755 454.406 59.1016C454.161 59.1276 453.924 59.1406 453.695 59.1406C452.997 59.1406 452.367 59.0312 451.805 58.8125C451.247 58.5938 450.771 58.2708 450.375 57.8438C449.984 57.4115 449.682 56.875 449.469 56.2344C449.26 55.5938 449.156 54.8516 449.156 54.0078C449.156 53.1693 449.273 52.4193 449.508 51.7578C449.742 51.0911 450.07 50.5286 450.492 50.0703C450.919 49.6068 451.43 49.2552 452.023 49.0156C452.622 48.7708 453.281 48.6484 454 48.6484C454.458 48.6484 454.893 48.6901 455.305 48.7734C455.721 48.8516 456.12 48.9792 456.5 49.1562V50.5391ZM465.211 58.6172C464.393 58.9557 463.536 59.125 462.641 59.125C461.198 59.125 460.089 58.6953 459.312 57.8359C458.542 56.9714 458.156 55.6953 458.156 54.0078C458.156 53.1901 458.263 52.4505 458.477 51.7891C458.69 51.1276 458.995 50.5677 459.391 50.1094C459.786 49.6458 460.266 49.2891 460.828 49.0391C461.391 48.7891 462.021 48.6641 462.719 48.6641C463.193 48.6641 463.633 48.7057 464.039 48.7891C464.445 48.8672 464.836 48.9896 465.211 49.1562V50.5234C464.841 50.3203 464.458 50.1667 464.062 50.0625C463.667 49.9531 463.234 49.8984 462.766 49.8984C462.286 49.8984 461.852 49.9896 461.461 50.1719C461.076 50.349 460.747 50.6094 460.477 50.9531C460.206 51.2917 459.997 51.7083 459.852 52.2031C459.706 52.6927 459.633 53.2526 459.633 53.8828C459.633 55.2057 459.901 56.2031 460.438 56.875C460.974 57.5469 461.76 57.8828 462.797 57.8828C463.234 57.8828 463.654 57.8333 464.055 57.7344C464.456 57.6302 464.841 57.487 465.211 57.3047V58.6172ZM474.359 49.9766H471.336V59H469.93V49.9766H466.906V48.7891H474.359V49.9766ZM482.891 50.5391C482.51 50.3359 482.12 50.1797 481.719 50.0703C481.318 49.9557 480.88 49.8984 480.406 49.8984C479.865 49.8984 479.383 49.9948 478.961 50.1875C478.539 50.3802 478.182 50.6536 477.891 51.0078C477.604 51.3568 477.383 51.7786 477.227 52.2734C477.076 52.7682 477 53.3151 477 53.9141C477 54.5391 477.062 55.099 477.188 55.5938C477.312 56.0885 477.508 56.5078 477.773 56.8516C478.039 57.1953 478.378 57.4583 478.789 57.6406C479.206 57.8229 479.703 57.9141 480.281 57.9141C480.38 57.9141 480.487 57.9089 480.602 57.8984C480.716 57.888 480.831 57.875 480.945 57.8594C481.06 57.8385 481.169 57.8151 481.273 57.7891C481.383 57.763 481.479 57.7344 481.562 57.7031V54.4531H479.477V53.3047H482.938V58.5234C482.724 58.6224 482.497 58.7109 482.258 58.7891C482.023 58.8672 481.781 58.9323 481.531 58.9844C481.286 59.0365 481.042 59.0755 480.797 59.1016C480.552 59.1276 480.315 59.1406 480.086 59.1406C479.388 59.1406 478.758 59.0312 478.195 58.8125C477.638 58.5938 477.161 58.2708 476.766 57.8438C476.375 57.4115 476.073 56.875 475.859 56.2344C475.651 55.5938 475.547 54.8516 475.547 54.0078C475.547 53.1693 475.664 52.4193 475.898 51.7578C476.133 51.0911 476.461 50.5286 476.883 50.0703C477.31 49.6068 477.82 49.2552 478.414 49.0156C479.013 48.7708 479.672 48.6484 480.391 48.6484C480.849 48.6484 481.284 48.6901 481.695 48.7734C482.112 48.8516 482.51 48.9792 482.891 49.1562V50.5391ZM491.602 58.6172C490.784 58.9557 489.927 59.125 489.031 59.125C487.589 59.125 486.479 58.6953 485.703 57.8359C484.932 56.9714 484.547 55.6953 484.547 54.0078C484.547 53.1901 484.654 52.4505 484.867 51.7891C485.081 51.1276 485.385 50.5677 485.781 50.1094C486.177 49.6458 486.656 49.2891 487.219 49.0391C487.781 48.7891 488.411 48.6641 489.109 48.6641C489.583 48.6641 490.023 48.7057 490.43 48.7891C490.836 48.8672 491.227 48.9896 491.602 49.1562V50.5234C491.232 50.3203 490.849 50.1667 490.453 50.0625C490.057 49.9531 489.625 49.8984 489.156 49.8984C488.677 49.8984 488.242 49.9896 487.852 50.1719C487.466 50.349 487.138 50.6094 486.867 50.9531C486.596 51.2917 486.388 51.7083 486.242 52.2031C486.096 52.6927 486.023 53.2526 486.023 53.8828C486.023 55.2057 486.292 56.2031 486.828 56.875C487.365 57.5469 488.151 57.8828 489.188 57.8828C489.625 57.8828 490.044 57.8333 490.445 57.7344C490.846 57.6302 491.232 57.487 491.602 57.3047V58.6172ZM500.484 50.5391C500.104 50.3359 499.714 50.1797 499.312 50.0703C498.911 49.9557 498.474 49.8984 498 49.8984C497.458 49.8984 496.977 49.9948 496.555 50.1875C496.133 50.3802 495.776 50.6536 495.484 51.0078C495.198 51.3568 494.977 51.7786 494.82 52.2734C494.669 52.7682 494.594 53.3151 494.594 53.9141C494.594 54.5391 494.656 55.099 494.781 55.5938C494.906 56.0885 495.102 56.5078 495.367 56.8516C495.633 57.1953 495.971 57.4583 496.383 57.6406C496.799 57.8229 497.297 57.9141 497.875 57.9141C497.974 57.9141 498.081 57.9089 498.195 57.8984C498.31 57.888 498.424 57.875 498.539 57.8594C498.654 57.8385 498.763 57.8151 498.867 57.7891C498.977 57.763 499.073 57.7344 499.156 57.7031V54.4531H497.07V53.3047H500.531V58.5234C500.318 58.6224 500.091 58.7109 499.852 58.7891C499.617 58.8672 499.375 58.9323 499.125 58.9844C498.88 59.0365 498.635 59.0755 498.391 59.1016C498.146 59.1276 497.909 59.1406 497.68 59.1406C496.982 59.1406 496.352 59.0312 495.789 58.8125C495.232 58.5938 494.755 58.2708 494.359 57.8438C493.969 57.4115 493.667 56.875 493.453 56.2344C493.245 55.5938 493.141 54.8516 493.141 54.0078C493.141 53.1693 493.258 52.4193 493.492 51.7578C493.727 51.0911 494.055 50.5286 494.477 50.0703C494.904 49.6068 495.414 49.2552 496.008 49.0156C496.607 48.7708 497.266 48.6484 497.984 48.6484C498.443 48.6484 498.878 48.6901 499.289 48.7734C499.706 48.8516 500.104 48.9792 500.484 49.1562V50.5391ZM509.281 50.5391C508.901 50.3359 508.51 50.1797 508.109 50.0703C507.708 49.9557 507.271 49.8984 506.797 49.8984C506.255 49.8984 505.773 49.9948 505.352 50.1875C504.93 50.3802 504.573 50.6536 504.281 51.0078C503.995 51.3568 503.773 51.7786 503.617 52.2734C503.466 52.7682 503.391 53.3151 503.391 53.9141C503.391 54.5391 503.453 55.099 503.578 55.5938C503.703 56.0885 503.898 56.5078 504.164 56.8516C504.43 57.1953 504.768 57.4583 505.18 57.6406C505.596 57.8229 506.094 57.9141 506.672 57.9141C506.771 57.9141 506.878 57.9089 506.992 57.8984C507.107 57.888 507.221 57.875 507.336 57.8594C507.451 57.8385 507.56 57.8151 507.664 57.7891C507.773 57.763 507.87 57.7344 507.953 57.7031V54.4531H505.867V53.3047H509.328V58.5234C509.115 58.6224 508.888 58.7109 508.648 58.7891C508.414 58.8672 508.172 58.9323 507.922 58.9844C507.677 59.0365 507.432 59.0755 507.188 59.1016C506.943 59.1276 506.706 59.1406 506.477 59.1406C505.779 59.1406 505.148 59.0312 504.586 58.8125C504.029 58.5938 503.552 58.2708 503.156 57.8438C502.766 57.4115 502.464 56.875 502.25 56.2344C502.042 55.5938 501.938 54.8516 501.938 54.0078C501.938 53.1693 502.055 52.4193 502.289 51.7578C502.523 51.0911 502.852 50.5286 503.273 50.0703C503.701 49.6068 504.211 49.2552 504.805 49.0156C505.404 48.7708 506.062 48.6484 506.781 48.6484C507.24 48.6484 507.674 48.6901 508.086 48.7734C508.503 48.8516 508.901 48.9792 509.281 49.1562V50.5391ZM517.992 58.6172C517.174 58.9557 516.318 59.125 515.422 59.125C513.979 59.125 512.87 58.6953 512.094 57.8359C511.323 56.9714 510.938 55.6953 510.938 54.0078C510.938 53.1901 511.044 52.4505 511.258 51.7891C511.471 51.1276 511.776 50.5677 512.172 50.1094C512.568 49.6458 513.047 49.2891 513.609 49.0391C514.172 48.7891 514.802 48.6641 515.5 48.6641C515.974 48.6641 516.414 48.7057 516.82 48.7891C517.227 48.8672 517.617 48.9896 517.992 49.1562V50.5234C517.622 50.3203 517.24 50.1667 516.844 50.0625C516.448 49.9531 516.016 49.8984 515.547 49.8984C515.068 49.8984 514.633 49.9896 514.242 50.1719C513.857 50.349 513.529 50.6094 513.258 50.9531C512.987 51.2917 512.779 51.7083 512.633 52.2031C512.487 52.6927 512.414 53.2526 512.414 53.8828C512.414 55.2057 512.682 56.2031 513.219 56.875C513.755 57.5469 514.542 57.8828 515.578 57.8828C516.016 57.8828 516.435 57.8333 516.836 57.7344C517.237 57.6302 517.622 57.487 517.992 57.3047V58.6172ZM527.734 59H526.219L525.508 56.7734H521.258L520.539 59H519.094L522.484 48.7891H524.391L527.734 59ZM525.109 55.5312L523.383 50.0703L521.656 55.5312H525.109ZM535.938 49.9766H532.914V59H531.508V49.9766H528.484V48.7891H535.938V49.9766ZM544.734 49.9766H541.711V59H540.305V49.9766H537.281V48.7891H544.734V49.9766ZM553.531 49.9766H550.508V59H549.102V49.9766H546.078V48.7891H553.531V49.9766ZM562.328 49.9766H559.305V59H557.898V49.9766H554.875V48.7891H562.328V49.9766ZM570.859 50.5391C570.479 50.3359 570.089 50.1797 569.688 50.0703C569.286 49.9557 568.849 49.8984 568.375 49.8984C567.833 49.8984 567.352 49.9948 566.93 50.1875C566.508 50.3802 566.151 50.6536 565.859 51.0078C565.573 51.3568 565.352 51.7786 565.195 52.2734C565.044 52.7682 564.969 53.3151 564.969 53.9141C564.969 54.5391 565.031 55.099 565.156 55.5938C565.281 56.0885 565.477 56.5078 565.742 56.8516C566.008 57.1953 566.346 57.4583 566.758 57.6406C567.174 57.8229 567.672 57.9141 568.25 57.9141C568.349 57.9141 568.456 57.9089 568.57 57.8984C568.685 57.888 568.799 57.875 568.914 57.8594C569.029 57.8385 569.138 57.8151 569.242 57.7891C569.352 57.763 569.448 57.7344 569.531 57.7031V54.4531H567.445V53.3047H570.906V58.5234C570.693 58.6224 570.466 58.7109 570.227 58.7891C569.992 58.8672 569.75 58.9323 569.5 58.9844C569.255 59.0365 569.01 59.0755 568.766 59.1016C568.521 59.1276 568.284 59.1406 568.055 59.1406C567.357 59.1406 566.727 59.0312 566.164 58.8125C565.607 58.5938 565.13 58.2708 564.734 57.8438C564.344 57.4115 564.042 56.875 563.828 56.2344C563.62 55.5938 563.516 54.8516 563.516 54.0078C563.516 53.1693 563.633 52.4193 563.867 51.7578C564.102 51.0911 564.43 50.5286 564.852 50.0703C565.279 49.6068 565.789 49.2552 566.383 49.0156C566.982 48.7708 567.641 48.6484 568.359 48.6484C568.818 48.6484 569.253 48.6901 569.664 48.7734C570.081 48.8516 570.479 48.9792 570.859 49.1562V50.5391ZM579.922 49.9766H576.898V59H575.492V49.9766H572.469V48.7891H579.922V49.9766ZM588.367 58.6172C587.549 58.9557 586.693 59.125 585.797 59.125C584.354 59.125 583.245 58.6953 582.469 57.8359C581.698 56.9714 581.312 55.6953 581.312 54.0078C581.312 53.1901 581.419 52.4505 581.633 51.7891C581.846 51.1276 582.151 50.5677 582.547 50.1094C582.943 49.6458 583.422 49.2891 583.984 49.0391C584.547 48.7891 585.177 48.6641 585.875 48.6641C586.349 48.6641 586.789 48.7057 587.195 48.7891C587.602 48.8672 587.992 48.9896 588.367 49.1562V50.5234C587.997 50.3203 587.615 50.1667 587.219 50.0625C586.823 49.9531 586.391 49.8984 585.922 49.8984C585.443 49.8984 585.008 49.9896 584.617 50.1719C584.232 50.349 583.904 50.6094 583.633 50.9531C583.362 51.2917 583.154 51.7083 583.008 52.2031C582.862 52.6927 582.789 53.2526 582.789 53.8828C582.789 55.2057 583.057 56.2031 583.594 56.875C584.13 57.5469 584.917 57.8828 585.953 57.8828C586.391 57.8828 586.81 57.8333 587.211 57.7344C587.612 57.6302 587.997 57.487 588.367 57.3047V58.6172ZM597.164 58.6172C596.346 58.9557 595.49 59.125 594.594 59.125C593.151 59.125 592.042 58.6953 591.266 57.8359C590.495 56.9714 590.109 55.6953 590.109 54.0078C590.109 53.1901 590.216 52.4505 590.43 51.7891C590.643 51.1276 590.948 50.5677 591.344 50.1094C591.74 49.6458 592.219 49.2891 592.781 49.0391C593.344 48.7891 593.974 48.6641 594.672 48.6641C595.146 48.6641 595.586 48.7057 595.992 48.7891C596.398 48.8672 596.789 48.9896 597.164 49.1562V50.5234C596.794 50.3203 596.411 50.1667 596.016 50.0625C595.62 49.9531 595.188 49.8984 594.719 49.8984C594.24 49.8984 593.805 49.9896 593.414 50.1719C593.029 50.349 592.701 50.6094 592.43 50.9531C592.159 51.2917 591.951 51.7083 591.805 52.2031C591.659 52.6927 591.586 53.2526 591.586 53.8828C591.586 55.2057 591.854 56.2031 592.391 56.875C592.927 57.5469 593.714 57.8828 594.75 57.8828C595.188 57.8828 595.607 57.8333 596.008 57.7344C596.409 57.6302 596.794 57.487 597.164 57.3047V58.6172ZM606.047 50.5391C605.667 50.3359 605.276 50.1797 604.875 50.0703C604.474 49.9557 604.036 49.8984 603.562 49.8984C603.021 49.8984 602.539 49.9948 602.117 50.1875C601.695 50.3802 601.339 50.6536 601.047 51.0078C600.76 51.3568 600.539 51.7786 600.383 52.2734C600.232 52.7682 600.156 53.3151 600.156 53.9141C600.156 54.5391 600.219 55.099 600.344 55.5938C600.469 56.0885 600.664 56.5078 600.93 56.8516C601.195 57.1953 601.534 57.4583 601.945 57.6406C602.362 57.8229 602.859 57.9141 603.438 57.9141C603.536 57.9141 603.643 57.9089 603.758 57.8984C603.872 57.888 603.987 57.875 604.102 57.8594C604.216 57.8385 604.326 57.8151 604.43 57.7891C604.539 57.763 604.635 57.7344 604.719 57.7031V54.4531H602.633V53.3047H606.094V58.5234C605.88 58.6224 605.654 58.7109 605.414 58.7891C605.18 58.8672 604.938 58.9323 604.688 58.9844C604.443 59.0365 604.198 59.0755 603.953 59.1016C603.708 59.1276 603.471 59.1406 603.242 59.1406C602.544 59.1406 601.914 59.0312 601.352 58.8125C600.794 58.5938 600.318 58.2708 599.922 57.8438C599.531 57.4115 599.229 56.875 599.016 56.2344C598.807 55.5938 598.703 54.8516 598.703 54.0078C598.703 53.1693 598.82 52.4193 599.055 51.7578C599.289 51.0911 599.617 50.5286 600.039 50.0703C600.466 49.6068 600.977 49.2552 601.57 49.0156C602.169 48.7708 602.828 48.6484 603.547 48.6484C604.005 48.6484 604.44 48.6901 604.852 48.7734C605.268 48.8516 605.667 48.9792 606.047 49.1562V50.5391ZM614.758 58.6172C613.94 58.9557 613.083 59.125 612.188 59.125C610.745 59.125 609.635 58.6953 608.859 57.8359C608.089 56.9714 607.703 55.6953 607.703 54.0078C607.703 53.1901 607.81 52.4505 608.023 51.7891C608.237 51.1276 608.542 50.5677 608.938 50.1094C609.333 49.6458 609.812 49.2891 610.375 49.0391C610.938 48.7891 611.568 48.6641 612.266 48.6641C612.74 48.6641 613.18 48.7057 613.586 48.7891C613.992 48.8672 614.383 48.9896 614.758 49.1562V50.5234C614.388 50.3203 614.005 50.1667 613.609 50.0625C613.214 49.9531 612.781 49.8984 612.312 49.8984C611.833 49.8984 611.398 49.9896 611.008 50.1719C610.622 50.349 610.294 50.6094 610.023 50.9531C609.753 51.2917 609.544 51.7083 609.398 52.2031C609.253 52.6927 609.18 53.2526 609.18 53.8828C609.18 55.2057 609.448 56.2031 609.984 56.875C610.521 57.5469 611.307 57.8828 612.344 57.8828C612.781 57.8828 613.201 57.8333 613.602 57.7344C614.003 57.6302 614.388 57.487 614.758 57.3047V58.6172ZM623.641 50.5391C623.26 50.3359 622.87 50.1797 622.469 50.0703C622.068 49.9557 621.63 49.8984 621.156 49.8984C620.615 49.8984 620.133 49.9948 619.711 50.1875C619.289 50.3802 618.932 50.6536 618.641 51.0078C618.354 51.3568 618.133 51.7786 617.977 52.2734C617.826 52.7682 617.75 53.3151 617.75 53.9141C617.75 54.5391 617.812 55.099 617.938 55.5938C618.062 56.0885 618.258 56.5078 618.523 56.8516C618.789 57.1953 619.128 57.4583 619.539 57.6406C619.956 57.8229 620.453 57.9141 621.031 57.9141C621.13 57.9141 621.237 57.9089 621.352 57.8984C621.466 57.888 621.581 57.875 621.695 57.8594C621.81 57.8385 621.919 57.8151 622.023 57.7891C622.133 57.763 622.229 57.7344 622.312 57.7031V54.4531H620.227V53.3047H623.688V58.5234C623.474 58.6224 623.247 58.7109 623.008 58.7891C622.773 58.8672 622.531 58.9323 622.281 58.9844C622.036 59.0365 621.792 59.0755 621.547 59.1016C621.302 59.1276 621.065 59.1406 620.836 59.1406C620.138 59.1406 619.508 59.0312 618.945 58.8125C618.388 58.5938 617.911 58.2708 617.516 57.8438C617.125 57.4115 616.823 56.875 616.609 56.2344C616.401 55.5938 616.297 54.8516 616.297 54.0078C616.297 53.1693 616.414 52.4193 616.648 51.7578C616.883 51.0911 617.211 50.5286 617.633 50.0703C618.06 49.6068 618.57 49.2552 619.164 49.0156C619.763 48.7708 620.422 48.6484 621.141 48.6484C621.599 48.6484 622.034 48.6901 622.445 48.7734C622.862 48.8516 623.26 48.9792 623.641 49.1562V50.5391ZM632.352 58.6172C631.534 58.9557 630.677 59.125 629.781 59.125C628.339 59.125 627.229 58.6953 626.453 57.8359C625.682 56.9714 625.297 55.6953 625.297 54.0078C625.297 53.1901 625.404 52.4505 625.617 51.7891C625.831 51.1276 626.135 50.5677 626.531 50.1094C626.927 49.6458 627.406 49.2891 627.969 49.0391C628.531 48.7891 629.161 48.6641 629.859 48.6641C630.333 48.6641 630.773 48.7057 631.18 48.7891C631.586 48.8672 631.977 48.9896 632.352 49.1562V50.5234C631.982 50.3203 631.599 50.1667 631.203 50.0625C630.807 49.9531 630.375 49.8984 629.906 49.8984C629.427 49.8984 628.992 49.9896 628.602 50.1719C628.216 50.349 627.888 50.6094 627.617 50.9531C627.346 51.2917 627.138 51.7083 626.992 52.2031C626.846 52.6927 626.773 53.2526 626.773 53.8828C626.773 55.2057 627.042 56.2031 627.578 56.875C628.115 57.5469 628.901 57.8828 629.938 57.8828C630.375 57.8828 630.794 57.8333 631.195 57.7344C631.596 57.6302 631.982 57.487 632.352 57.3047V58.6172ZM641.148 58.6172C640.331 58.9557 639.474 59.125 638.578 59.125C637.135 59.125 636.026 58.6953 635.25 57.8359C634.479 56.9714 634.094 55.6953 634.094 54.0078C634.094 53.1901 634.201 52.4505 634.414 51.7891C634.628 51.1276 634.932 50.5677 635.328 50.1094C635.724 49.6458 636.203 49.2891 636.766 49.0391C637.328 48.7891 637.958 48.6641 638.656 48.6641C639.13 48.6641 639.57 48.7057 639.977 48.7891C640.383 48.8672 640.773 48.9896 641.148 49.1562V50.5234C640.779 50.3203 640.396 50.1667 640 50.0625C639.604 49.9531 639.172 49.8984 638.703 49.8984C638.224 49.8984 637.789 49.9896 637.398 50.1719C637.013 50.349 636.685 50.6094 636.414 50.9531C636.143 51.2917 635.935 51.7083 635.789 52.2031C635.643 52.6927 635.57 53.2526 635.57 53.8828C635.57 55.2057 635.839 56.2031 636.375 56.875C636.911 57.5469 637.698 57.8828 638.734 57.8828C639.172 57.8828 639.591 57.8333 639.992 57.7344C640.393 57.6302 640.779 57.487 641.148 57.3047V58.6172ZM650.031 50.5391C649.651 50.3359 649.26 50.1797 648.859 50.0703C648.458 49.9557 648.021 49.8984 647.547 49.8984C647.005 49.8984 646.523 49.9948 646.102 50.1875C645.68 50.3802 645.323 50.6536 645.031 51.0078C644.745 51.3568 644.523 51.7786 644.367 52.2734C644.216 52.7682 644.141 53.3151 644.141 53.9141C644.141 54.5391 644.203 55.099 644.328 55.5938C644.453 56.0885 644.648 56.5078 644.914 56.8516C645.18 57.1953 645.518 57.4583 645.93 57.6406C646.346 57.8229 646.844 57.9141 647.422 57.9141C647.521 57.9141 647.628 57.9089 647.742 57.8984C647.857 57.888 647.971 57.875 648.086 57.8594C648.201 57.8385 648.31 57.8151 648.414 57.7891C648.523 57.763 648.62 57.7344 648.703 57.7031V54.4531H646.617V53.3047H650.078V58.5234C649.865 58.6224 649.638 58.7109 649.398 58.7891C649.164 58.8672 648.922 58.9323 648.672 58.9844C648.427 59.0365 648.182 59.0755 647.938 59.1016C647.693 59.1276 647.456 59.1406 647.227 59.1406C646.529 59.1406 645.898 59.0312 645.336 58.8125C644.779 58.5938 644.302 58.2708 643.906 57.8438C643.516 57.4115 643.214 56.875 643 56.2344C642.792 55.5938 642.688 54.8516 642.688 54.0078C642.688 53.1693 642.805 52.4193 643.039 51.7578C643.273 51.0911 643.602 50.5286 644.023 50.0703C644.451 49.6068 644.961 49.2552 645.555 49.0156C646.154 48.7708 646.812 48.6484 647.531 48.6484C647.99 48.6484 648.424 48.6901 648.836 48.7734C649.253 48.8516 649.651 48.9792 650.031 49.1562V50.5391ZM658.828 50.5391C658.448 50.3359 658.057 50.1797 657.656 50.0703C657.255 49.9557 656.818 49.8984 656.344 49.8984C655.802 49.8984 655.32 49.9948 654.898 50.1875C654.477 50.3802 654.12 50.6536 653.828 51.0078C653.542 51.3568 653.32 51.7786 653.164 52.2734C653.013 52.7682 652.938 53.3151 652.938 53.9141C652.938 54.5391 653 55.099 653.125 55.5938C653.25 56.0885 653.445 56.5078 653.711 56.8516C653.977 57.1953 654.315 57.4583 654.727 57.6406C655.143 57.8229 655.641 57.9141 656.219 57.9141C656.318 57.9141 656.424 57.9089 656.539 57.8984C656.654 57.888 656.768 57.875 656.883 57.8594C656.997 57.8385 657.107 57.8151 657.211 57.7891C657.32 57.763 657.417 57.7344 657.5 57.7031V54.4531H655.414V53.3047H658.875V58.5234C658.661 58.6224 658.435 58.7109 658.195 58.7891C657.961 58.8672 657.719 58.9323 657.469 58.9844C657.224 59.0365 656.979 59.0755 656.734 59.1016C656.49 59.1276 656.253 59.1406 656.023 59.1406C655.326 59.1406 654.695 59.0312 654.133 58.8125C653.576 58.5938 653.099 58.2708 652.703 57.8438C652.312 57.4115 652.01 56.875 651.797 56.2344C651.589 55.5938 651.484 54.8516 651.484 54.0078C651.484 53.1693 651.602 52.4193 651.836 51.7578C652.07 51.0911 652.398 50.5286 652.82 50.0703C653.247 49.6068 653.758 49.2552 654.352 49.0156C654.951 48.7708 655.609 48.6484 656.328 48.6484C656.786 48.6484 657.221 48.6901 657.633 48.7734C658.049 48.8516 658.448 48.9792 658.828 49.1562V50.5391ZM667.625 50.5391C667.245 50.3359 666.854 50.1797 666.453 50.0703C666.052 49.9557 665.615 49.8984 665.141 49.8984C664.599 49.8984 664.117 49.9948 663.695 50.1875C663.273 50.3802 662.917 50.6536 662.625 51.0078C662.339 51.3568 662.117 51.7786 661.961 52.2734C661.81 52.7682 661.734 53.3151 661.734 53.9141C661.734 54.5391 661.797 55.099 661.922 55.5938C662.047 56.0885 662.242 56.5078 662.508 56.8516C662.773 57.1953 663.112 57.4583 663.523 57.6406C663.94 57.8229 664.438 57.9141 665.016 57.9141C665.115 57.9141 665.221 57.9089 665.336 57.8984C665.451 57.888 665.565 57.875 665.68 57.8594C665.794 57.8385 665.904 57.8151 666.008 57.7891C666.117 57.763 666.214 57.7344 666.297 57.7031V54.4531H664.211V53.3047H667.672V58.5234C667.458 58.6224 667.232 58.7109 666.992 58.7891C666.758 58.8672 666.516 58.9323 666.266 58.9844C666.021 59.0365 665.776 59.0755 665.531 59.1016C665.286 59.1276 665.049 59.1406 664.82 59.1406C664.122 59.1406 663.492 59.0312 662.93 58.8125C662.372 58.5938 661.896 58.2708 661.5 57.8438C661.109 57.4115 660.807 56.875 660.594 56.2344C660.385 55.5938 660.281 54.8516 660.281 54.0078C660.281 53.1693 660.398 52.4193 660.633 51.7578C660.867 51.0911 661.195 50.5286 661.617 50.0703C662.044 49.6068 662.555 49.2552 663.148 49.0156C663.747 48.7708 664.406 48.6484 665.125 48.6484C665.583 48.6484 666.018 48.6901 666.43 48.7734C666.846 48.8516 667.245 48.9792 667.625 49.1562V50.5391ZM676.336 58.6172C675.518 58.9557 674.661 59.125 673.766 59.125C672.323 59.125 671.214 58.6953 670.438 57.8359C669.667 56.9714 669.281 55.6953 669.281 54.0078C669.281 53.1901 669.388 52.4505 669.602 51.7891C669.815 51.1276 670.12 50.5677 670.516 50.1094C670.911 49.6458 671.391 49.2891 671.953 49.0391C672.516 48.7891 673.146 48.6641 673.844 48.6641C674.318 48.6641 674.758 48.7057 675.164 48.7891C675.57 48.8672 675.961 48.9896 676.336 49.1562V50.5234C675.966 50.3203 675.583 50.1667 675.188 50.0625C674.792 49.9531 674.359 49.8984 673.891 49.8984C673.411 49.8984 672.977 49.9896 672.586 50.1719C672.201 50.349 671.872 50.6094 671.602 50.9531C671.331 51.2917 671.122 51.7083 670.977 52.2031C670.831 52.6927 670.758 53.2526 670.758 53.8828C670.758 55.2057 671.026 56.2031 671.562 56.875C672.099 57.5469 672.885 57.8828 673.922 57.8828C674.359 57.8828 674.779 57.8333 675.18 57.7344C675.581 57.6302 675.966 57.487 676.336 57.3047V58.6172ZM685.484 49.9766H682.461V59H681.055V49.9766H678.031V48.7891H685.484V49.9766ZM694.281 49.9766H691.258V59H689.852V49.9766H686.828V48.7891H694.281V49.9766ZM702.727 58.6172C701.909 58.9557 701.052 59.125 700.156 59.125C698.714 59.125 697.604 58.6953 696.828 57.8359C696.057 56.9714 695.672 55.6953 695.672 54.0078C695.672 53.1901 695.779 52.4505 695.992 51.7891C696.206 51.1276 696.51 50.5677 696.906 50.1094C697.302 49.6458 697.781 49.2891 698.344 49.0391C698.906 48.7891 699.536 48.6641 700.234 48.6641C700.708 48.6641 701.148 48.7057 701.555 48.7891C701.961 48.8672 702.352 48.9896 702.727 49.1562V50.5234C702.357 50.3203 701.974 50.1667 701.578 50.0625C701.182 49.9531 700.75 49.8984 700.281 49.8984C699.802 49.8984 699.367 49.9896 698.977 50.1719C698.591 50.349 698.263 50.6094 697.992 50.9531C697.721 51.2917 697.513 51.7083 697.367 52.2031C697.221 52.6927 697.148 53.2526 697.148 53.8828C697.148 55.2057 697.417 56.2031 697.953 56.875C698.49 57.5469 699.276 57.8828 700.312 57.8828C700.75 57.8828 701.169 57.8333 701.57 57.7344C701.971 57.6302 702.357 57.487 702.727 57.3047V58.6172ZM711.609 50.5391C711.229 50.3359 710.839 50.1797 710.438 50.0703C710.036 49.9557 709.599 49.8984 709.125 49.8984C708.583 49.8984 708.102 49.9948 707.68 50.1875C707.258 50.3802 706.901 50.6536 706.609 51.0078C706.323 51.3568 706.102 51.7786 705.945 52.2734C705.794 52.7682 705.719 53.3151 705.719 53.9141C705.719 54.5391 705.781 55.099 705.906 55.5938C706.031 56.0885 706.227 56.5078 706.492 56.8516C706.758 57.1953 707.096 57.4583 707.508 57.6406C707.924 57.8229 708.422 57.9141 709 57.9141C709.099 57.9141 709.206 57.9089 709.32 57.8984C709.435 57.888 709.549 57.875 709.664 57.8594C709.779 57.8385 709.888 57.8151 709.992 57.7891C710.102 57.763 710.198 57.7344 710.281 57.7031V54.4531H708.195V53.3047H711.656V58.5234C711.443 58.6224 711.216 58.7109 710.977 58.7891C710.742 58.8672 710.5 58.9323 710.25 58.9844C710.005 59.0365 709.76 59.0755 709.516 59.1016C709.271 59.1276 709.034 59.1406 708.805 59.1406C708.107 59.1406 707.477 59.0312 706.914 58.8125C706.357 58.5938 705.88 58.2708 705.484 57.8438C705.094 57.4115 704.792 56.875 704.578 56.2344C704.37 55.5938 704.266 54.8516 704.266 54.0078C704.266 53.1693 704.383 52.4193 704.617 51.7578C704.852 51.0911 705.18 50.5286 705.602 50.0703C706.029 49.6068 706.539 49.2552 707.133 49.0156C707.732 48.7708 708.391 48.6484 709.109 48.6484C709.568 48.6484 710.003 48.6901 710.414 48.7734C710.831 48.8516 711.229 48.9792 711.609 49.1562V50.5391ZM720.32 58.6172C719.503 58.9557 718.646 59.125 717.75 59.125C716.307 59.125 715.198 58.6953 714.422 57.8359C713.651 56.9714 713.266 55.6953 713.266 54.0078C713.266 53.1901 713.372 52.4505 713.586 51.7891C713.799 51.1276 714.104 50.5677 714.5 50.1094C714.896 49.6458 715.375 49.2891 715.938 49.0391C716.5 48.7891 717.13 48.6641 717.828 48.6641C718.302 48.6641 718.742 48.7057 719.148 48.7891C719.555 48.8672 719.945 48.9896 720.32 49.1562V50.5234C719.951 50.3203 719.568 50.1667 719.172 50.0625C718.776 49.9531 718.344 49.8984 717.875 49.8984C717.396 49.8984 716.961 49.9896 716.57 50.1719C716.185 50.349 715.857 50.6094 715.586 50.9531C715.315 51.2917 715.107 51.7083 714.961 52.2031C714.815 52.6927 714.742 53.2526 714.742 53.8828C714.742 55.2057 715.01 56.2031 715.547 56.875C716.083 57.5469 716.87 57.8828 717.906 57.8828C718.344 57.8828 718.763 57.8333 719.164 57.7344C719.565 57.6302 719.951 57.487 720.32 57.3047V58.6172Z" fill="#C9D1D9"/>
<path d="M6.15625 19.1719C4.05208 19.1719 2.67448 18.651 2.02344 17.6094C1.64323 17 1.45312 16.1979 1.45312 15.2031V11.6562C1.45312 10.0469 1.92188 8.92448 2.85938 8.28906C3.60417 7.78385 4.65104 7.53125 6 7.53125C7.34896 7.53125 8.33594 7.6849 8.96094 7.99219C9.59115 8.29427 10.0052 8.70052 10.2031 9.21094C10.401 9.71615 10.5 10.3333 10.5 11.0625L9.0625 11.1797C9.0625 10.4453 8.98958 9.95573 8.84375 9.71094C8.70312 9.46094 8.5651 9.28385 8.42969 9.17969C8.29948 9.07552 8.07552 8.98698 7.75781 8.91406C7.44531 8.83594 6.96875 8.79688 6.32812 8.79688C5.69271 8.79688 5.19271 8.83854 4.82812 8.92188C4.46354 9 4.14062 9.13542 3.85938 9.32812C3.30729 9.70833 3.03125 10.388 3.03125 11.3672V15.4453C3.03125 16.4245 3.29427 17.0807 3.82031 17.4141C4.34635 17.7422 5.11979 17.9062 6.14062 17.9062C7.16667 17.9062 7.90625 17.7448 8.35938 17.4219C8.81771 17.0938 9.04688 16.4349 9.04688 15.4453V14.4062H6.36719V13.2578H10.625V19H9.76562L9.57031 17.0781C9.47135 17.7292 9.14323 18.2422 8.58594 18.6172C8.03385 18.987 7.22396 19.1719 6.15625 19.1719ZM13.8594 19V7.70312H20.9141V8.875H15.4297V12.5938H20.2734V13.7656H15.4297V17.8281H21.0078V19H13.8594ZM23.6719 19V7.70312H24.8672L31.3359 16.7344V7.70312H32.7188V19H31.3203L25.0547 10.375V19H23.6719ZM40.5234 17.9062C41.5547 17.9062 42.3047 17.7422 42.7734 17.4141C43.2422 17.0807 43.4766 16.4245 43.4766 15.4453V11.3594C43.4766 10.3802 43.2396 9.70833 42.7656 9.34375C42.2969 8.97917 41.5521 8.79688 40.5312 8.79688C38.9479 8.79688 37.987 9.23438 37.6484 10.1094C37.5182 10.4427 37.4531 10.8594 37.4531 11.3594V15.4453C37.4531 16.4193 37.7083 17.0729 38.2188 17.4062C38.7292 17.7396 39.4974 17.9062 40.5234 17.9062ZM37.6328 18.6562C36.9505 18.3125 36.487 17.8516 36.2422 17.2734C35.9974 16.6953 35.875 16.0052 35.875 15.2031V11.6484C35.875 10.0286 36.3333 8.90625 37.25 8.28125C37.9896 7.78125 39.0833 7.53125 40.5312 7.53125C43.0938 7.53125 44.5599 8.48438 44.9297 10.3906C45.0078 10.7917 45.0469 11.2448 45.0469 11.75V15.0938C45.0469 16.6667 44.5964 17.7708 43.6953 18.4062C42.9714 18.9167 41.9505 19.1719 40.6328 19.1719C39.3151 19.1719 38.3151 19 37.6328 18.6562ZM48.2031 19V7.70312H49.6484L53.4531 14.0156L57.2969 7.70312H58.6875V19H57.2031V10.2422L54.0391 15.4219H52.875L49.7031 10.2734V19H48.2031ZM62.2656 13.0088V11.2363H64.1406V13.0088H62.2656ZM62.2656 18.2749V16.5024H64.1406V18.2749H62.2656Z" fill="#C9D1D9"/>
</svg>
