<svg width="683" height="85" viewBox="0 0 683 85" fill="none" xmlns="http://www.w3.org/2000/svg">
<path d="M364.859 37.5391C364.479 37.3359 364.089 37.1797 363.688 37.0703C363.286 36.9557 362.849 36.8984 362.375 36.8984C361.833 36.8984 361.352 36.9948 360.93 37.1875C360.508 37.3802 360.151 37.6536 359.859 38.0078C359.573 38.3568 359.352 38.7786 359.195 39.2734C359.044 39.7682 358.969 40.3151 358.969 40.9141C358.969 41.5391 359.031 42.099 359.156 42.5938C359.281 43.0885 359.477 43.5078 359.742 43.8516C360.008 44.1953 360.346 44.4583 360.758 44.6406C361.174 44.8229 361.672 44.9141 362.25 44.9141C362.349 44.9141 362.456 44.9089 362.57 44.8984C362.685 44.888 362.799 44.875 362.914 44.8594C363.029 44.8385 363.138 44.8151 363.242 44.7891C363.352 44.763 363.448 44.7344 363.531 44.7031V41.4531H361.445V40.3047H364.906V45.5234C364.693 45.6224 364.466 45.7109 364.227 45.7891C363.992 45.8672 363.75 45.9323 363.5 45.9844C363.255 46.0365 363.01 46.0755 362.766 46.1016C362.521 46.1276 362.284 46.1406 362.055 46.1406C361.357 46.1406 360.727 46.0312 360.164 45.8125C359.607 45.5938 359.13 45.2708 358.734 44.8438C358.344 44.4115 358.042 43.875 357.828 43.2344C357.62 42.5938 357.516 41.8516 357.516 41.0078C357.516 40.1693 357.633 39.4193 357.867 38.7578C358.102 38.0911 358.43 37.5286 358.852 37.0703C359.279 36.6068 359.789 36.2552 360.383 36.0156C360.982 35.7708 361.641 35.6484 362.359 35.6484C362.818 35.6484 363.253 35.6901 363.664 35.7734C364.081 35.8516 364.479 35.9792 364.859 36.1562V37.5391ZM374.516 46H373L372.289 43.7734H368.039L367.32 46H365.875L369.266 35.7891H371.172L374.516 46ZM371.891 42.5312L370.164 37.0703L368.438 42.5312H371.891ZM382.719 36.9766H379.695V46H378.289V36.9766H375.266V35.7891H382.719V36.9766ZM392.109 46H390.594L389.883 43.7734H385.633L384.914 46H383.469L386.859 35.7891H388.766L392.109 46ZM389.484 42.5312L387.758 37.0703L386.031 42.5312H389.484ZM399.961 45.6172C399.143 45.9557 398.286 46.125 397.391 46.125C395.948 46.125 394.839 45.6953 394.062 44.8359C393.292 43.9714 392.906 42.6953 392.906 41.0078C392.906 40.1901 393.013 39.4505 393.227 38.7891C393.44 38.1276 393.745 37.5677 394.141 37.1094C394.536 36.6458 395.016 36.2891 395.578 36.0391C396.141 35.7891 396.771 35.6641 397.469 35.6641C397.943 35.6641 398.383 35.7057 398.789 35.7891C399.195 35.8672 399.586 35.9896 399.961 36.1562V37.5234C399.591 37.3203 399.208 37.1667 398.812 37.0625C398.417 36.9531 397.984 36.8984 397.516 36.8984C397.036 36.8984 396.602 36.9896 396.211 37.1719C395.826 37.349 395.497 37.6094 395.227 37.9531C394.956 38.2917 394.747 38.7083 394.602 39.2031C394.456 39.6927 394.383 40.2526 394.383 40.8828C394.383 42.2057 394.651 43.2031 395.188 43.875C395.724 44.5469 396.51 44.8828 397.547 44.8828C397.984 44.8828 398.404 44.8333 398.805 44.7344C399.206 44.6302 399.591 44.487 399.961 44.3047V45.6172ZM408.758 45.6172C407.94 45.9557 407.083 46.125 406.188 46.125C404.745 46.125 403.635 45.6953 402.859 44.8359C402.089 43.9714 401.703 42.6953 401.703 41.0078C401.703 40.1901 401.81 39.4505 402.023 38.7891C402.237 38.1276 402.542 37.5677 402.938 37.1094C403.333 36.6458 403.812 36.2891 404.375 36.0391C404.938 35.7891 405.568 35.6641 406.266 35.6641C406.74 35.6641 407.18 35.7057 407.586 35.7891C407.992 35.8672 408.383 35.9896 408.758 36.1562V37.5234C408.388 37.3203 408.005 37.1667 407.609 37.0625C407.214 36.9531 406.781 36.8984 406.312 36.8984C405.833 36.8984 405.398 36.9896 405.008 37.1719C404.622 37.349 404.294 37.6094 404.023 37.9531C403.753 38.2917 403.544 38.7083 403.398 39.2031C403.253 39.6927 403.18 40.2526 403.18 40.8828C403.18 42.2057 403.448 43.2031 403.984 43.875C404.521 44.5469 405.307 44.8828 406.344 44.8828C406.781 44.8828 407.201 44.8333 407.602 44.7344C408.003 44.6302 408.388 44.487 408.758 44.3047V45.6172ZM417.641 37.5391C417.26 37.3359 416.87 37.1797 416.469 37.0703C416.068 36.9557 415.63 36.8984 415.156 36.8984C414.615 36.8984 414.133 36.9948 413.711 37.1875C413.289 37.3802 412.932 37.6536 412.641 38.0078C412.354 38.3568 412.133 38.7786 411.977 39.2734C411.826 39.7682 411.75 40.3151 411.75 40.9141C411.75 41.5391 411.812 42.099 411.938 42.5938C412.062 43.0885 412.258 43.5078 412.523 43.8516C412.789 44.1953 413.128 44.4583 413.539 44.6406C413.956 44.8229 414.453 44.9141 415.031 44.9141C415.13 44.9141 415.237 44.9089 415.352 44.8984C415.466 44.888 415.581 44.875 415.695 44.8594C415.81 44.8385 415.919 44.8151 416.023 44.7891C416.133 44.763 416.229 44.7344 416.312 44.7031V41.4531H414.227V40.3047H417.688V45.5234C417.474 45.6224 417.247 45.7109 417.008 45.7891C416.773 45.8672 416.531 45.9323 416.281 45.9844C416.036 46.0365 415.792 46.0755 415.547 46.1016C415.302 46.1276 415.065 46.1406 414.836 46.1406C414.138 46.1406 413.508 46.0312 412.945 45.8125C412.388 45.5938 411.911 45.2708 411.516 44.8438C411.125 44.4115 410.823 43.875 410.609 43.2344C410.401 42.5938 410.297 41.8516 410.297 41.0078C410.297 40.1693 410.414 39.4193 410.648 38.7578C410.883 38.0911 411.211 37.5286 411.633 37.0703C412.06 36.6068 412.57 36.2552 413.164 36.0156C413.763 35.7708 414.422 35.6484 415.141 35.6484C415.599 35.6484 416.034 35.6901 416.445 35.7734C416.862 35.8516 417.26 35.9792 417.641 36.1562V37.5391ZM426.438 37.5391C426.057 37.3359 425.667 37.1797 425.266 37.0703C424.865 36.9557 424.427 36.8984 423.953 36.8984C423.411 36.8984 422.93 36.9948 422.508 37.1875C422.086 37.3802 421.729 37.6536 421.438 38.0078C421.151 38.3568 420.93 38.7786 420.773 39.2734C420.622 39.7682 420.547 40.3151 420.547 40.9141C420.547 41.5391 420.609 42.099 420.734 42.5938C420.859 43.0885 421.055 43.5078 421.32 43.8516C421.586 44.1953 421.924 44.4583 422.336 44.6406C422.753 44.8229 423.25 44.9141 423.828 44.9141C423.927 44.9141 424.034 44.9089 424.148 44.8984C424.263 44.888 424.378 44.875 424.492 44.8594C424.607 44.8385 424.716 44.8151 424.82 44.7891C424.93 44.763 425.026 44.7344 425.109 44.7031V41.4531H423.023V40.3047H426.484V45.5234C426.271 45.6224 426.044 45.7109 425.805 45.7891C425.57 45.8672 425.328 45.9323 425.078 45.9844C424.833 46.0365 424.589 46.0755 424.344 46.1016C424.099 46.1276 423.862 46.1406 423.633 46.1406C422.935 46.1406 422.305 46.0312 421.742 45.8125C421.185 45.5938 420.708 45.2708 420.312 44.8438C419.922 44.4115 419.62 43.875 419.406 43.2344C419.198 42.5938 419.094 41.8516 419.094 41.0078C419.094 40.1693 419.211 39.4193 419.445 38.7578C419.68 38.0911 420.008 37.5286 420.43 37.0703C420.857 36.6068 421.367 36.2552 421.961 36.0156C422.56 35.7708 423.219 35.6484 423.938 35.6484C424.396 35.6484 424.831 35.6901 425.242 35.7734C425.659 35.8516 426.057 35.9792 426.438 36.1562V37.5391ZM435.234 37.5391C434.854 37.3359 434.464 37.1797 434.062 37.0703C433.661 36.9557 433.224 36.8984 432.75 36.8984C432.208 36.8984 431.727 36.9948 431.305 37.1875C430.883 37.3802 430.526 37.6536 430.234 38.0078C429.948 38.3568 429.727 38.7786 429.57 39.2734C429.419 39.7682 429.344 40.3151 429.344 40.9141C429.344 41.5391 429.406 42.099 429.531 42.5938C429.656 43.0885 429.852 43.5078 430.117 43.8516C430.383 44.1953 430.721 44.4583 431.133 44.6406C431.549 44.8229 432.047 44.9141 432.625 44.9141C432.724 44.9141 432.831 44.9089 432.945 44.8984C433.06 44.888 433.174 44.875 433.289 44.8594C433.404 44.8385 433.513 44.8151 433.617 44.7891C433.727 44.763 433.823 44.7344 433.906 44.7031V41.4531H431.82V40.3047H435.281V45.5234C435.068 45.6224 434.841 45.7109 434.602 45.7891C434.367 45.8672 434.125 45.9323 433.875 45.9844C433.63 46.0365 433.385 46.0755 433.141 46.1016C432.896 46.1276 432.659 46.1406 432.43 46.1406C431.732 46.1406 431.102 46.0312 430.539 45.8125C429.982 45.5938 429.505 45.2708 429.109 44.8438C428.719 44.4115 428.417 43.875 428.203 43.2344C427.995 42.5938 427.891 41.8516 427.891 41.0078C427.891 40.1693 428.008 39.4193 428.242 38.7578C428.477 38.0911 428.805 37.5286 429.227 37.0703C429.654 36.6068 430.164 36.2552 430.758 36.0156C431.357 35.7708 432.016 35.6484 432.734 35.6484C433.193 35.6484 433.628 35.6901 434.039 35.7734C434.456 35.8516 434.854 35.9792 435.234 36.1562V37.5391ZM444.031 37.5391C443.651 37.3359 443.26 37.1797 442.859 37.0703C442.458 36.9557 442.021 36.8984 441.547 36.8984C441.005 36.8984 440.523 36.9948 440.102 37.1875C439.68 37.3802 439.323 37.6536 439.031 38.0078C438.745 38.3568 438.523 38.7786 438.367 39.2734C438.216 39.7682 438.141 40.3151 438.141 40.9141C438.141 41.5391 438.203 42.099 438.328 42.5938C438.453 43.0885 438.648 43.5078 438.914 43.8516C439.18 44.1953 439.518 44.4583 439.93 44.6406C440.346 44.8229 440.844 44.9141 441.422 44.9141C441.521 44.9141 441.628 44.9089 441.742 44.8984C441.857 44.888 441.971 44.875 442.086 44.8594C442.201 44.8385 442.31 44.8151 442.414 44.7891C442.523 44.763 442.62 44.7344 442.703 44.7031V41.4531H440.617V40.3047H444.078V45.5234C443.865 45.6224 443.638 45.7109 443.398 45.7891C443.164 45.8672 442.922 45.9323 442.672 45.9844C442.427 46.0365 442.182 46.0755 441.938 46.1016C441.693 46.1276 441.456 46.1406 441.227 46.1406C440.529 46.1406 439.898 46.0312 439.336 45.8125C438.779 45.5938 438.302 45.2708 437.906 44.8438C437.516 44.4115 437.214 43.875 437 43.2344C436.792 42.5938 436.688 41.8516 436.688 41.0078C436.688 40.1693 436.805 39.4193 437.039 38.7578C437.273 38.0911 437.602 37.5286 438.023 37.0703C438.451 36.6068 438.961 36.2552 439.555 36.0156C440.154 35.7708 440.812 35.6484 441.531 35.6484C441.99 35.6484 442.424 35.6901 442.836 35.7734C443.253 35.8516 443.651 35.9792 444.031 36.1562V37.5391Z" fill="#247F8F"/>
<path d="M8.125 69.9766H5.10156V79H3.69531V69.9766H0.671875V68.7891H8.125V69.9766ZM16.6562 70.5391C16.276 70.3359 15.8854 70.1797 15.4844 70.0703C15.0833 69.9557 14.6458 69.8984 14.1719 69.8984C13.6302 69.8984 13.1484 69.9948 12.7266 70.1875C12.3047 70.3802 11.9479 70.6536 11.6562 71.0078C11.3698 71.3568 11.1484 71.7786 10.9922 72.2734C10.8411 72.7682 10.7656 73.3151 10.7656 73.9141C10.7656 74.5391 10.8281 75.099 10.9531 75.5938C11.0781 76.0885 11.2734 76.5078 11.5391 76.8516C11.8047 77.1953 12.1432 77.4583 12.5547 77.6406C12.9714 77.8229 13.4688 77.9141 14.0469 77.9141C14.1458 77.9141 14.2526 77.9089 14.3672 77.8984C14.4818 77.888 14.5964 77.875 14.7109 77.8594C14.8255 77.8385 14.9349 77.8151 15.0391 77.7891C15.1484 77.763 15.2448 77.7344 15.3281 77.7031V74.4531H13.2422V73.3047H16.7031V78.5234C16.4896 78.6224 16.263 78.7109 16.0234 78.7891C15.7891 78.8672 15.5469 78.9323 15.2969 78.9844C15.0521 79.0365 14.8073 79.0755 14.5625 79.1016C14.3177 79.1276 14.0807 79.1406 13.8516 79.1406C13.1536 79.1406 12.5234 79.0312 11.9609 78.8125C11.4036 78.5938 10.9271 78.2708 10.5312 77.8438C10.1406 77.4115 9.83854 76.875 9.625 76.2344C9.41667 75.5938 9.3125 74.8516 9.3125 74.0078C9.3125 73.1693 9.42969 72.4193 9.66406 71.7578C9.89844 71.0911 10.2266 70.5286 10.6484 70.0703C11.0755 69.6068 11.5859 69.2552 12.1797 69.0156C12.7786 68.7708 13.4375 68.6484 14.1562 68.6484C14.6146 68.6484 15.0495 68.6901 15.4609 68.7734C15.8776 68.8516 16.276 68.9792 16.6562 69.1562V70.5391ZM25.3672 78.6172C24.5495 78.9557 23.6927 79.125 22.7969 79.125C21.3542 79.125 20.2448 78.6953 19.4688 77.8359C18.6979 76.9714 18.3125 75.6953 18.3125 74.0078C18.3125 73.1901 18.4193 72.4505 18.6328 71.7891C18.8464 71.1276 19.151 70.5677 19.5469 70.1094C19.9427 69.6458 20.4219 69.2891 20.9844 69.0391C21.5469 68.7891 22.1771 68.6641 22.875 68.6641C23.349 68.6641 23.7891 68.7057 24.1953 68.7891C24.6016 68.8672 24.9922 68.9896 25.3672 69.1562V70.5234C24.9974 70.3203 24.6146 70.1667 24.2188 70.0625C23.8229 69.9531 23.3906 69.8984 22.9219 69.8984C22.4427 69.8984 22.0078 69.9896 21.6172 70.1719C21.2318 70.349 20.9036 70.6094 20.6328 70.9531C20.362 71.2917 20.1536 71.7083 20.0078 72.2031C19.862 72.6927 19.7891 73.2526 19.7891 73.8828C19.7891 75.2057 20.0573 76.2031 20.5938 76.875C21.1302 77.5469 21.9167 77.8828 22.9531 77.8828C23.3906 77.8828 23.8099 77.8333 24.2109 77.7344C24.612 77.6302 24.9974 77.487 25.3672 77.3047V78.6172ZM34.25 70.5391C33.8698 70.3359 33.4792 70.1797 33.0781 70.0703C32.6771 69.9557 32.2396 69.8984 31.7656 69.8984C31.224 69.8984 30.7422 69.9948 30.3203 70.1875C29.8984 70.3802 29.5417 70.6536 29.25 71.0078C28.9635 71.3568 28.7422 71.7786 28.5859 72.2734C28.4349 72.7682 28.3594 73.3151 28.3594 73.9141C28.3594 74.5391 28.4219 75.099 28.5469 75.5938C28.6719 76.0885 28.8672 76.5078 29.1328 76.8516C29.3984 77.1953 29.737 77.4583 30.1484 77.6406C30.5651 77.8229 31.0625 77.9141 31.6406 77.9141C31.7396 77.9141 31.8464 77.9089 31.9609 77.8984C32.0755 77.888 32.1901 77.875 32.3047 77.8594C32.4193 77.8385 32.5286 77.8151 32.6328 77.7891C32.7422 77.763 32.8385 77.7344 32.9219 77.7031V74.4531H30.8359V73.3047H34.2969V78.5234C34.0833 78.6224 33.8568 78.7109 33.6172 78.7891C33.3828 78.8672 33.1406 78.9323 32.8906 78.9844C32.6458 79.0365 32.401 79.0755 32.1562 79.1016C31.9115 79.1276 31.6745 79.1406 31.4453 79.1406C30.7474 79.1406 30.1172 79.0312 29.5547 78.8125C28.9974 78.5938 28.5208 78.2708 28.125 77.8438C27.7344 77.4115 27.4323 76.875 27.2188 76.2344C27.0104 75.5938 26.9062 74.8516 26.9062 74.0078C26.9062 73.1693 27.0234 72.4193 27.2578 71.7578C27.4922 71.0911 27.8203 70.5286 28.2422 70.0703C28.6693 69.6068 29.1797 69.2552 29.7734 69.0156C30.3724 68.7708 31.0312 68.6484 31.75 68.6484C32.2083 68.6484 32.6432 68.6901 33.0547 68.7734C33.4714 68.8516 33.8698 68.9792 34.25 69.1562V70.5391ZM43.0469 70.5391C42.6667 70.3359 42.276 70.1797 41.875 70.0703C41.474 69.9557 41.0365 69.8984 40.5625 69.8984C40.0208 69.8984 39.5391 69.9948 39.1172 70.1875C38.6953 70.3802 38.3385 70.6536 38.0469 71.0078C37.7604 71.3568 37.5391 71.7786 37.3828 72.2734C37.2318 72.7682 37.1562 73.3151 37.1562 73.9141C37.1562 74.5391 37.2188 75.099 37.3438 75.5938C37.4688 76.0885 37.6641 76.5078 37.9297 76.8516C38.1953 77.1953 38.5339 77.4583 38.9453 77.6406C39.362 77.8229 39.8594 77.9141 40.4375 77.9141C40.5365 77.9141 40.6432 77.9089 40.7578 77.8984C40.8724 77.888 40.987 77.875 41.1016 77.8594C41.2161 77.8385 41.3255 77.8151 41.4297 77.7891C41.5391 77.763 41.6354 77.7344 41.7188 77.7031V74.4531H39.6328V73.3047H43.0938V78.5234C42.8802 78.6224 42.6536 78.7109 42.4141 78.7891C42.1797 78.8672 41.9375 78.9323 41.6875 78.9844C41.4427 79.0365 41.1979 79.0755 40.9531 79.1016C40.7083 79.1276 40.4714 79.1406 40.2422 79.1406C39.5443 79.1406 38.9141 79.0312 38.3516 78.8125C37.7943 78.5938 37.3177 78.2708 36.9219 77.8438C36.5312 77.4115 36.2292 76.875 36.0156 76.2344C35.8073 75.5938 35.7031 74.8516 35.7031 74.0078C35.7031 73.1693 35.8203 72.4193 36.0547 71.7578C36.2891 71.0911 36.6172 70.5286 37.0391 70.0703C37.4661 69.6068 37.9766 69.2552 38.5703 69.0156C39.1693 68.7708 39.8281 68.6484 40.5469 68.6484C41.0052 68.6484 41.4401 68.6901 41.8516 68.7734C42.2682 68.8516 42.6667 68.9792 43.0469 69.1562V70.5391ZM51.7578 78.6172C50.9401 78.9557 50.0833 79.125 49.1875 79.125C47.7448 79.125 46.6354 78.6953 45.8594 77.8359C45.0885 76.9714 44.7031 75.6953 44.7031 74.0078C44.7031 73.1901 44.8099 72.4505 45.0234 71.7891C45.237 71.1276 45.5417 70.5677 45.9375 70.1094C46.3333 69.6458 46.8125 69.2891 47.375 69.0391C47.9375 68.7891 48.5677 68.6641 49.2656 68.6641C49.7396 68.6641 50.1797 68.7057 50.5859 68.7891C50.9922 68.8672 51.3828 68.9896 51.7578 69.1562V70.5234C51.388 70.3203 51.0052 70.1667 50.6094 70.0625C50.2135 69.9531 49.7812 69.8984 49.3125 69.8984C48.8333 69.8984 48.3984 69.9896 48.0078 70.1719C47.6224 70.349 47.2943 70.6094 47.0234 70.9531C46.7526 71.2917 46.5443 71.7083 46.3984 72.2031C46.2526 72.6927 46.1797 73.2526 46.1797 73.8828C46.1797 75.2057 46.4479 76.2031 46.9844 76.875C47.5208 77.5469 48.3073 77.8828 49.3438 77.8828C49.7812 77.8828 50.2005 77.8333 50.6016 77.7344C51.0026 77.6302 51.388 77.487 51.7578 77.3047V78.6172ZM61.5 79H59.9844L59.2734 76.7734H55.0234L54.3047 79H52.8594L56.25 68.7891H58.1562L61.5 79ZM58.875 75.5312L57.1484 70.0703L55.4219 75.5312H58.875ZM69.7031 69.9766H66.6797V79H65.2734V69.9766H62.25V68.7891H69.7031V69.9766ZM78.5 69.9766H75.4766V79H74.0703V69.9766H71.0469V68.7891H78.5V69.9766ZM87.2969 69.9766H84.2734V79H82.8672V69.9766H79.8438V68.7891H87.2969V69.9766Z" fill="#247F8F"/>
<path d="M603.125 36.9766H600.102V46H598.695V36.9766H595.672V35.7891H603.125V36.9766ZM611.656 37.5391C611.276 37.3359 610.885 37.1797 610.484 37.0703C610.083 36.9557 609.646 36.8984 609.172 36.8984C608.63 36.8984 608.148 36.9948 607.727 37.1875C607.305 37.3802 606.948 37.6536 606.656 38.0078C606.37 38.3568 606.148 38.7786 605.992 39.2734C605.841 39.7682 605.766 40.3151 605.766 40.9141C605.766 41.5391 605.828 42.099 605.953 42.5938C606.078 43.0885 606.273 43.5078 606.539 43.8516C606.805 44.1953 607.143 44.4583 607.555 44.6406C607.971 44.8229 608.469 44.9141 609.047 44.9141C609.146 44.9141 609.253 44.9089 609.367 44.8984C609.482 44.888 609.596 44.875 609.711 44.8594C609.826 44.8385 609.935 44.8151 610.039 44.7891C610.148 44.763 610.245 44.7344 610.328 44.7031V41.4531H608.242V40.3047H611.703V45.5234C611.49 45.6224 611.263 45.7109 611.023 45.7891C610.789 45.8672 610.547 45.9323 610.297 45.9844C610.052 46.0365 609.807 46.0755 609.562 46.1016C609.318 46.1276 609.081 46.1406 608.852 46.1406C608.154 46.1406 607.523 46.0312 606.961 45.8125C606.404 45.5938 605.927 45.2708 605.531 44.8438C605.141 44.4115 604.839 43.875 604.625 43.2344C604.417 42.5938 604.312 41.8516 604.312 41.0078C604.312 40.1693 604.43 39.4193 604.664 38.7578C604.898 38.0911 605.227 37.5286 605.648 37.0703C606.076 36.6068 606.586 36.2552 607.18 36.0156C607.779 35.7708 608.438 35.6484 609.156 35.6484C609.615 35.6484 610.049 35.6901 610.461 35.7734C610.878 35.8516 611.276 35.9792 611.656 36.1562V37.5391ZM621.312 46H619.797L619.086 43.7734H614.836L614.117 46H612.672L616.062 35.7891H617.969L621.312 46ZM618.688 42.5312L616.961 37.0703L615.234 42.5312H618.688ZM629.25 37.5391C628.87 37.3359 628.479 37.1797 628.078 37.0703C627.677 36.9557 627.24 36.8984 626.766 36.8984C626.224 36.8984 625.742 36.9948 625.32 37.1875C624.898 37.3802 624.542 37.6536 624.25 38.0078C623.964 38.3568 623.742 38.7786 623.586 39.2734C623.435 39.7682 623.359 40.3151 623.359 40.9141C623.359 41.5391 623.422 42.099 623.547 42.5938C623.672 43.0885 623.867 43.5078 624.133 43.8516C624.398 44.1953 624.737 44.4583 625.148 44.6406C625.565 44.8229 626.062 44.9141 626.641 44.9141C626.74 44.9141 626.846 44.9089 626.961 44.8984C627.076 44.888 627.19 44.875 627.305 44.8594C627.419 44.8385 627.529 44.8151 627.633 44.7891C627.742 44.763 627.839 44.7344 627.922 44.7031V41.4531H625.836V40.3047H629.297V45.5234C629.083 45.6224 628.857 45.7109 628.617 45.7891C628.383 45.8672 628.141 45.9323 627.891 45.9844C627.646 46.0365 627.401 46.0755 627.156 46.1016C626.911 46.1276 626.674 46.1406 626.445 46.1406C625.747 46.1406 625.117 46.0312 624.555 45.8125C623.997 45.5938 623.521 45.2708 623.125 44.8438C622.734 44.4115 622.432 43.875 622.219 43.2344C622.01 42.5938 621.906 41.8516 621.906 41.0078C621.906 40.1693 622.023 39.4193 622.258 38.7578C622.492 38.0911 622.82 37.5286 623.242 37.0703C623.669 36.6068 624.18 36.2552 624.773 36.0156C625.372 35.7708 626.031 35.6484 626.75 35.6484C627.208 35.6484 627.643 35.6901 628.055 35.7734C628.471 35.8516 628.87 35.9792 629.25 36.1562V37.5391ZM638.312 36.9766H635.289V46H633.883V36.9766H630.859V35.7891H638.312V36.9766ZM646.844 37.5391C646.464 37.3359 646.073 37.1797 645.672 37.0703C645.271 36.9557 644.833 36.8984 644.359 36.8984C643.818 36.8984 643.336 36.9948 642.914 37.1875C642.492 37.3802 642.135 37.6536 641.844 38.0078C641.557 38.3568 641.336 38.7786 641.18 39.2734C641.029 39.7682 640.953 40.3151 640.953 40.9141C640.953 41.5391 641.016 42.099 641.141 42.5938C641.266 43.0885 641.461 43.5078 641.727 43.8516C641.992 44.1953 642.331 44.4583 642.742 44.6406C643.159 44.8229 643.656 44.9141 644.234 44.9141C644.333 44.9141 644.44 44.9089 644.555 44.8984C644.669 44.888 644.784 44.875 644.898 44.8594C645.013 44.8385 645.122 44.8151 645.227 44.7891C645.336 44.763 645.432 44.7344 645.516 44.7031V41.4531H643.43V40.3047H646.891V45.5234C646.677 45.6224 646.451 45.7109 646.211 45.7891C645.977 45.8672 645.734 45.9323 645.484 45.9844C645.24 46.0365 644.995 46.0755 644.75 46.1016C644.505 46.1276 644.268 46.1406 644.039 46.1406C643.341 46.1406 642.711 46.0312 642.148 45.8125C641.591 45.5938 641.115 45.2708 640.719 44.8438C640.328 44.4115 640.026 43.875 639.812 43.2344C639.604 42.5938 639.5 41.8516 639.5 41.0078C639.5 40.1693 639.617 39.4193 639.852 38.7578C640.086 38.0911 640.414 37.5286 640.836 37.0703C641.263 36.6068 641.773 36.2552 642.367 36.0156C642.966 35.7708 643.625 35.6484 644.344 35.6484C644.802 35.6484 645.237 35.6901 645.648 35.7734C646.065 35.8516 646.464 35.9792 646.844 36.1562V37.5391ZM656.5 46H654.984L654.273 43.7734H650.023L649.305 46H647.859L651.25 35.7891H653.156L656.5 46ZM653.875 42.5312L652.148 37.0703L650.422 42.5312H653.875ZM665.297 46H663.781L663.07 43.7734H658.82L658.102 46H656.656L660.047 35.7891H661.953L665.297 46ZM662.672 42.5312L660.945 37.0703L659.219 42.5312H662.672ZM673.5 36.9766H670.477V46H669.07V36.9766H666.047V35.7891H673.5V36.9766ZM682.891 46H681.375L680.664 43.7734H676.414L675.695 46H674.25L677.641 35.7891H679.547L682.891 46ZM680.266 42.5312L678.539 37.0703L676.812 42.5312H680.266Z" fill="#247F8F"/>
<path d="M246.719 13H245.203L244.492 10.7734H240.242L239.523 13H238.078L241.469 2.78906H243.375L246.719 13ZM244.094 9.53125L242.367 4.07031L240.641 9.53125H244.094ZM254.922 3.97656H251.898V13H250.492V3.97656H247.469V2.78906H254.922V3.97656ZM263.367 12.6172C262.549 12.9557 261.693 13.125 260.797 13.125C259.354 13.125 258.245 12.6953 257.469 11.8359C256.698 10.9714 256.312 9.69531 256.312 8.00781C256.312 7.1901 256.419 6.45052 256.633 5.78906C256.846 5.1276 257.151 4.56771 257.547 4.10938C257.943 3.64583 258.422 3.28906 258.984 3.03906C259.547 2.78906 260.177 2.66406 260.875 2.66406C261.349 2.66406 261.789 2.70573 262.195 2.78906C262.602 2.86719 262.992 2.98958 263.367 3.15625V4.52344C262.997 4.32031 262.615 4.16667 262.219 4.0625C261.823 3.95312 261.391 3.89844 260.922 3.89844C260.443 3.89844 260.008 3.98958 259.617 4.17188C259.232 4.34896 258.904 4.60938 258.633 4.95312C258.362 5.29167 258.154 5.70833 258.008 6.20312C257.862 6.69271 257.789 7.2526 257.789 7.88281C257.789 9.20573 258.057 10.2031 258.594 10.875C259.13 11.5469 259.917 11.8828 260.953 11.8828C261.391 11.8828 261.81 11.8333 262.211 11.7344C262.612 11.6302 262.997 11.487 263.367 11.3047V12.6172ZM272.25 4.53906C271.87 4.33594 271.479 4.17969 271.078 4.07031C270.677 3.95573 270.24 3.89844 269.766 3.89844C269.224 3.89844 268.742 3.99479 268.32 4.1875C267.898 4.38021 267.542 4.65365 267.25 5.00781C266.964 5.35677 266.742 5.77865 266.586 6.27344C266.435 6.76823 266.359 7.3151 266.359 7.91406C266.359 8.53906 266.422 9.09896 266.547 9.59375C266.672 10.0885 266.867 10.5078 267.133 10.8516C267.398 11.1953 267.737 11.4583 268.148 11.6406C268.565 11.8229 269.062 11.9141 269.641 11.9141C269.74 11.9141 269.846 11.9089 269.961 11.8984C270.076 11.888 270.19 11.875 270.305 11.8594C270.419 11.8385 270.529 11.8151 270.633 11.7891C270.742 11.763 270.839 11.7344 270.922 11.7031V8.45312H268.836V7.30469H272.297V12.5234C272.083 12.6224 271.857 12.7109 271.617 12.7891C271.383 12.8672 271.141 12.9323 270.891 12.9844C270.646 13.0365 270.401 13.0755 270.156 13.1016C269.911 13.1276 269.674 13.1406 269.445 13.1406C268.747 13.1406 268.117 13.0312 267.555 12.8125C266.997 12.5938 266.521 12.2708 266.125 11.8438C265.734 11.4115 265.432 10.875 265.219 10.2344C265.01 9.59375 264.906 8.85156 264.906 8.00781C264.906 7.16927 265.023 6.41927 265.258 5.75781C265.492 5.09115 265.82 4.52865 266.242 4.07031C266.669 3.60677 267.18 3.25521 267.773 3.01562C268.372 2.77083 269.031 2.64844 269.75 2.64844C270.208 2.64844 270.643 2.6901 271.055 2.77344C271.471 2.85156 271.87 2.97917 272.25 3.15625V4.53906ZM281.906 13H280.391L279.68 10.7734H275.43L274.711 13H273.266L276.656 2.78906H278.562L281.906 13ZM279.281 9.53125L277.555 4.07031L275.828 9.53125H279.281ZM290.703 13H289.188L288.477 10.7734H284.227L283.508 13H282.062L285.453 2.78906H287.359L290.703 13ZM288.078 9.53125L286.352 4.07031L284.625 9.53125H288.078ZM298.555 12.6172C297.737 12.9557 296.88 13.125 295.984 13.125C294.542 13.125 293.432 12.6953 292.656 11.8359C291.885 10.9714 291.5 9.69531 291.5 8.00781C291.5 7.1901 291.607 6.45052 291.82 5.78906C292.034 5.1276 292.339 4.56771 292.734 4.10938C293.13 3.64583 293.609 3.28906 294.172 3.03906C294.734 2.78906 295.365 2.66406 296.062 2.66406C296.536 2.66406 296.977 2.70573 297.383 2.78906C297.789 2.86719 298.18 2.98958 298.555 3.15625V4.52344C298.185 4.32031 297.802 4.16667 297.406 4.0625C297.01 3.95312 296.578 3.89844 296.109 3.89844C295.63 3.89844 295.195 3.98958 294.805 4.17188C294.419 4.34896 294.091 4.60938 293.82 4.95312C293.549 5.29167 293.341 5.70833 293.195 6.20312C293.049 6.69271 292.977 7.2526 292.977 7.88281C292.977 9.20573 293.245 10.2031 293.781 10.875C294.318 11.5469 295.104 11.8828 296.141 11.8828C296.578 11.8828 296.997 11.8333 297.398 11.7344C297.799 11.6302 298.185 11.487 298.555 11.3047V12.6172ZM308.297 13H306.781L306.07 10.7734H301.82L301.102 13H299.656L303.047 2.78906H304.953L308.297 13ZM305.672 9.53125L303.945 4.07031L302.219 9.53125H305.672ZM316.234 4.53906C315.854 4.33594 315.464 4.17969 315.062 4.07031C314.661 3.95573 314.224 3.89844 313.75 3.89844C313.208 3.89844 312.727 3.99479 312.305 4.1875C311.883 4.38021 311.526 4.65365 311.234 5.00781C310.948 5.35677 310.727 5.77865 310.57 6.27344C310.419 6.76823 310.344 7.3151 310.344 7.91406C310.344 8.53906 310.406 9.09896 310.531 9.59375C310.656 10.0885 310.852 10.5078 311.117 10.8516C311.383 11.1953 311.721 11.4583 312.133 11.6406C312.549 11.8229 313.047 11.9141 313.625 11.9141C313.724 11.9141 313.831 11.9089 313.945 11.8984C314.06 11.888 314.174 11.875 314.289 11.8594C314.404 11.8385 314.513 11.8151 314.617 11.7891C314.727 11.763 314.823 11.7344 314.906 11.7031V8.45312H312.82V7.30469H316.281V12.5234C316.068 12.6224 315.841 12.7109 315.602 12.7891C315.367 12.8672 315.125 12.9323 314.875 12.9844C314.63 13.0365 314.385 13.0755 314.141 13.1016C313.896 13.1276 313.659 13.1406 313.43 13.1406C312.732 13.1406 312.102 13.0312 311.539 12.8125C310.982 12.5938 310.505 12.2708 310.109 11.8438C309.719 11.4115 309.417 10.875 309.203 10.2344C308.995 9.59375 308.891 8.85156 308.891 8.00781C308.891 7.16927 309.008 6.41927 309.242 5.75781C309.477 5.09115 309.805 4.52865 310.227 4.07031C310.654 3.60677 311.164 3.25521 311.758 3.01562C312.357 2.77083 313.016 2.64844 313.734 2.64844C314.193 2.64844 314.628 2.6901 315.039 2.77344C315.456 2.85156 315.854 2.97917 316.234 3.15625V4.53906ZM325.297 3.97656H322.273V13H320.867V3.97656H317.844V2.78906H325.297V3.97656Z" fill="#247F8F"/>
<path d="M8.71875 13H7.20312L6.49219 10.7734H2.24219L1.52344 13H0.078125L3.46875 2.78906H5.375L8.71875 13ZM6.09375 9.53125L4.36719 4.07031L2.64062 9.53125H6.09375ZM16.6562 4.53906C16.276 4.33594 15.8854 4.17969 15.4844 4.07031C15.0833 3.95573 14.6458 3.89844 14.1719 3.89844C13.6302 3.89844 13.1484 3.99479 12.7266 4.1875C12.3047 4.38021 11.9479 4.65365 11.6562 5.00781C11.3698 5.35677 11.1484 5.77865 10.9922 6.27344C10.8411 6.76823 10.7656 7.3151 10.7656 7.91406C10.7656 8.53906 10.8281 9.09896 10.9531 9.59375C11.0781 10.0885 11.2734 10.5078 11.5391 10.8516C11.8047 11.1953 12.1432 11.4583 12.5547 11.6406C12.9714 11.8229 13.4688 11.9141 14.0469 11.9141C14.1458 11.9141 14.2526 11.9089 14.3672 11.8984C14.4818 11.888 14.5964 11.875 14.7109 11.8594C14.8255 11.8385 14.9349 11.8151 15.0391 11.7891C15.1484 11.763 15.2448 11.7344 15.3281 11.7031V8.45312H13.2422V7.30469H16.7031V12.5234C16.4896 12.6224 16.263 12.7109 16.0234 12.7891C15.7891 12.8672 15.5469 12.9323 15.2969 12.9844C15.0521 13.0365 14.8073 13.0755 14.5625 13.1016C14.3177 13.1276 14.0807 13.1406 13.8516 13.1406C13.1536 13.1406 12.5234 13.0312 11.9609 12.8125C11.4036 12.5938 10.9271 12.2708 10.5312 11.8438C10.1406 11.4115 9.83854 10.875 9.625 10.2344C9.41667 9.59375 9.3125 8.85156 9.3125 8.00781C9.3125 7.16927 9.42969 6.41927 9.66406 5.75781C9.89844 5.09115 10.2266 4.52865 10.6484 4.07031C11.0755 3.60677 11.5859 3.25521 12.1797 3.01562C12.7786 2.77083 13.4375 2.64844 14.1562 2.64844C14.6146 2.64844 15.0495 2.6901 15.4609 2.77344C15.8776 2.85156 16.276 2.97917 16.6562 3.15625V4.53906ZM25.7188 3.97656H22.6953V13H21.2891V3.97656H18.2656V2.78906H25.7188V3.97656ZM34.1641 12.6172C33.3464 12.9557 32.4896 13.125 31.5938 13.125C30.151 13.125 29.0417 12.6953 28.2656 11.8359C27.4948 10.9714 27.1094 9.69531 27.1094 8.00781C27.1094 7.1901 27.2161 6.45052 27.4297 5.78906C27.6432 5.1276 27.9479 4.56771 28.3438 4.10938C28.7396 3.64583 29.2188 3.28906 29.7812 3.03906C30.3438 2.78906 30.974 2.66406 31.6719 2.66406C32.1458 2.66406 32.5859 2.70573 32.9922 2.78906C33.3984 2.86719 33.7891 2.98958 34.1641 3.15625V4.52344C33.7943 4.32031 33.4115 4.16667 33.0156 4.0625C32.6198 3.95312 32.1875 3.89844 31.7188 3.89844C31.2396 3.89844 30.8047 3.98958 30.4141 4.17188C30.0286 4.34896 29.7005 4.60938 29.4297 4.95312C29.1589 5.29167 28.9505 5.70833 28.8047 6.20312C28.6589 6.69271 28.5859 7.2526 28.5859 7.88281C28.5859 9.20573 28.8542 10.2031 29.3906 10.875C29.9271 11.5469 30.7135 11.8828 31.75 11.8828C32.1875 11.8828 32.6068 11.8333 33.0078 11.7344C33.4089 11.6302 33.7943 11.487 34.1641 11.3047V12.6172ZM43.9062 13H42.3906L41.6797 10.7734H37.4297L36.7109 13H35.2656L38.6562 2.78906H40.5625L43.9062 13ZM41.2812 9.53125L39.5547 4.07031L37.8281 9.53125H41.2812ZM51.8438 4.53906C51.4635 4.33594 51.0729 4.17969 50.6719 4.07031C50.2708 3.95573 49.8333 3.89844 49.3594 3.89844C48.8177 3.89844 48.3359 3.99479 47.9141 4.1875C47.4922 4.38021 47.1354 4.65365 46.8438 5.00781C46.5573 5.35677 46.3359 5.77865 46.1797 6.27344C46.0286 6.76823 45.9531 7.3151 45.9531 7.91406C45.9531 8.53906 46.0156 9.09896 46.1406 9.59375C46.2656 10.0885 46.4609 10.5078 46.7266 10.8516C46.9922 11.1953 47.3307 11.4583 47.7422 11.6406C48.1589 11.8229 48.6562 11.9141 49.2344 11.9141C49.3333 11.9141 49.4401 11.9089 49.5547 11.8984C49.6693 11.888 49.7839 11.875 49.8984 11.8594C50.013 11.8385 50.1224 11.8151 50.2266 11.7891C50.3359 11.763 50.4323 11.7344 50.5156 11.7031V8.45312H48.4297V7.30469H51.8906V12.5234C51.6771 12.6224 51.4505 12.7109 51.2109 12.7891C50.9766 12.8672 50.7344 12.9323 50.4844 12.9844C50.2396 13.0365 49.9948 13.0755 49.75 13.1016C49.5052 13.1276 49.2682 13.1406 49.0391 13.1406C48.3411 13.1406 47.7109 13.0312 47.1484 12.8125C46.5911 12.5938 46.1146 12.2708 45.7188 11.8438C45.3281 11.4115 45.026 10.875 44.8125 10.2344C44.6042 9.59375 44.5 8.85156 44.5 8.00781C44.5 7.16927 44.6172 6.41927 44.8516 5.75781C45.0859 5.09115 45.4141 4.52865 45.8359 4.07031C46.263 3.60677 46.7734 3.25521 47.3672 3.01562C47.9661 2.77083 48.625 2.64844 49.3438 2.64844C49.8021 2.64844 50.237 2.6901 50.6484 2.77344C51.0651 2.85156 51.4635 2.97917 51.8438 3.15625V4.53906ZM60.6406 4.53906C60.2604 4.33594 59.8698 4.17969 59.4688 4.07031C59.0677 3.95573 58.6302 3.89844 58.1562 3.89844C57.6146 3.89844 57.1328 3.99479 56.7109 4.1875C56.2891 4.38021 55.9323 4.65365 55.6406 5.00781C55.3542 5.35677 55.1328 5.77865 54.9766 6.27344C54.8255 6.76823 54.75 7.3151 54.75 7.91406C54.75 8.53906 54.8125 9.09896 54.9375 9.59375C55.0625 10.0885 55.2578 10.5078 55.5234 10.8516C55.7891 11.1953 56.1276 11.4583 56.5391 11.6406C56.9557 11.8229 57.4531 11.9141 58.0312 11.9141C58.1302 11.9141 58.237 11.9089 58.3516 11.8984C58.4661 11.888 58.5807 11.875 58.6953 11.8594C58.8099 11.8385 58.9193 11.8151 59.0234 11.7891C59.1328 11.763 59.2292 11.7344 59.3125 11.7031V8.45312H57.2266V7.30469H60.6875V12.5234C60.474 12.6224 60.2474 12.7109 60.0078 12.7891C59.7734 12.8672 59.5312 12.9323 59.2812 12.9844C59.0365 13.0365 58.7917 13.0755 58.5469 13.1016C58.3021 13.1276 58.0651 13.1406 57.8359 13.1406C57.138 13.1406 56.5078 13.0312 55.9453 12.8125C55.388 12.5938 54.9115 12.2708 54.5156 11.8438C54.125 11.4115 53.8229 10.875 53.6094 10.2344C53.401 9.59375 53.2969 8.85156 53.2969 8.00781C53.2969 7.16927 53.4141 6.41927 53.6484 5.75781C53.8828 5.09115 54.2109 4.52865 54.6328 4.07031C55.0599 3.60677 55.5703 3.25521 56.1641 3.01562C56.763 2.77083 57.4219 2.64844 58.1406 2.64844C58.599 2.64844 59.0339 2.6901 59.4453 2.77344C59.862 2.85156 60.2604 2.97917 60.6406 3.15625V4.53906ZM69.7031 3.97656H66.6797V13H65.2734V3.97656H62.25V2.78906H69.7031V3.97656ZM78.5 3.97656H75.4766V13H74.0703V3.97656H71.0469V2.78906H78.5V3.97656ZM87.8906 13H86.375L85.6641 10.7734H81.4141L80.6953 13H79.25L82.6406 2.78906H84.5469L87.8906 13ZM85.2656 9.53125L83.5391 4.07031L81.8125 9.53125H85.2656Z" fill="#247F8F"/>
<path d="M7.77344 45.6172C6.95573 45.9557 6.09896 46.125 5.20312 46.125C3.76042 46.125 2.65104 45.6953 1.875 44.8359C1.10417 43.9714 0.71875 42.6953 0.71875 41.0078C0.71875 40.1901 0.825521 39.4505 1.03906 38.7891C1.2526 38.1276 1.55729 37.5677 1.95312 37.1094C2.34896 36.6458 2.82812 36.2891 3.39062 36.0391C3.95312 35.7891 4.58333 35.6641 5.28125 35.6641C5.75521 35.6641 6.19531 35.7057 6.60156 35.7891C7.00781 35.8672 7.39844 35.9896 7.77344 36.1562V37.5234C7.40365 37.3203 7.02083 37.1667 6.625 37.0625C6.22917 36.9531 5.79688 36.8984 5.32812 36.8984C4.84896 36.8984 4.41406 36.9896 4.02344 37.1719C3.63802 37.349 3.3099 37.6094 3.03906 37.9531C2.76823 38.2917 2.5599 38.7083 2.41406 39.2031C2.26823 39.6927 2.19531 40.2526 2.19531 40.8828C2.19531 42.2057 2.46354 43.2031 3 43.875C3.53646 44.5469 4.32292 44.8828 5.35938 44.8828C5.79688 44.8828 6.21615 44.8333 6.61719 44.7344C7.01823 44.6302 7.40365 44.487 7.77344 44.3047V45.6172ZM16.6562 37.5391C16.276 37.3359 15.8854 37.1797 15.4844 37.0703C15.0833 36.9557 14.6458 36.8984 14.1719 36.8984C13.6302 36.8984 13.1484 36.9948 12.7266 37.1875C12.3047 37.3802 11.9479 37.6536 11.6562 38.0078C11.3698 38.3568 11.1484 38.7786 10.9922 39.2734C10.8411 39.7682 10.7656 40.3151 10.7656 40.9141C10.7656 41.5391 10.8281 42.099 10.9531 42.5938C11.0781 43.0885 11.2734 43.5078 11.5391 43.8516C11.8047 44.1953 12.1432 44.4583 12.5547 44.6406C12.9714 44.8229 13.4688 44.9141 14.0469 44.9141C14.1458 44.9141 14.2526 44.9089 14.3672 44.8984C14.4818 44.888 14.5964 44.875 14.7109 44.8594C14.8255 44.8385 14.9349 44.8151 15.0391 44.7891C15.1484 44.763 15.2448 44.7344 15.3281 44.7031V41.4531H13.2422V40.3047H16.7031V45.5234C16.4896 45.6224 16.263 45.7109 16.0234 45.7891C15.7891 45.8672 15.5469 45.9323 15.2969 45.9844C15.0521 46.0365 14.8073 46.0755 14.5625 46.1016C14.3177 46.1276 14.0807 46.1406 13.8516 46.1406C13.1536 46.1406 12.5234 46.0312 11.9609 45.8125C11.4036 45.5938 10.9271 45.2708 10.5312 44.8438C10.1406 44.4115 9.83854 43.875 9.625 43.2344C9.41667 42.5938 9.3125 41.8516 9.3125 41.0078C9.3125 40.1693 9.42969 39.4193 9.66406 38.7578C9.89844 38.0911 10.2266 37.5286 10.6484 37.0703C11.0755 36.6068 11.5859 36.2552 12.1797 36.0156C12.7786 35.7708 13.4375 35.6484 14.1562 35.6484C14.6146 35.6484 15.0495 35.6901 15.4609 35.7734C15.8776 35.8516 16.276 35.9792 16.6562 36.1562V37.5391ZM25.4531 37.5391C25.0729 37.3359 24.6823 37.1797 24.2812 37.0703C23.8802 36.9557 23.4427 36.8984 22.9688 36.8984C22.4271 36.8984 21.9453 36.9948 21.5234 37.1875C21.1016 37.3802 20.7448 37.6536 20.4531 38.0078C20.1667 38.3568 19.9453 38.7786 19.7891 39.2734C19.638 39.7682 19.5625 40.3151 19.5625 40.9141C19.5625 41.5391 19.625 42.099 19.75 42.5938C19.875 43.0885 20.0703 43.5078 20.3359 43.8516C20.6016 44.1953 20.9401 44.4583 21.3516 44.6406C21.7682 44.8229 22.2656 44.9141 22.8438 44.9141C22.9427 44.9141 23.0495 44.9089 23.1641 44.8984C23.2786 44.888 23.3932 44.875 23.5078 44.8594C23.6224 44.8385 23.7318 44.8151 23.8359 44.7891C23.9453 44.763 24.0417 44.7344 24.125 44.7031V41.4531H22.0391V40.3047H25.5V45.5234C25.2865 45.6224 25.0599 45.7109 24.8203 45.7891C24.5859 45.8672 24.3438 45.9323 24.0938 45.9844C23.849 46.0365 23.6042 46.0755 23.3594 46.1016C23.1146 46.1276 22.8776 46.1406 22.6484 46.1406C21.9505 46.1406 21.3203 46.0312 20.7578 45.8125C20.2005 45.5938 19.724 45.2708 19.3281 44.8438C18.9375 44.4115 18.6354 43.875 18.4219 43.2344C18.2135 42.5938 18.1094 41.8516 18.1094 41.0078C18.1094 40.1693 18.2266 39.4193 18.4609 38.7578C18.6953 38.0911 19.0234 37.5286 19.4453 37.0703C19.8724 36.6068 20.3828 36.2552 20.9766 36.0156C21.5755 35.7708 22.2344 35.6484 22.9531 35.6484C23.4115 35.6484 23.8464 35.6901 24.2578 35.7734C24.6745 35.8516 25.0729 35.9792 25.4531 36.1562V37.5391ZM34.25 37.5391C33.8698 37.3359 33.4792 37.1797 33.0781 37.0703C32.6771 36.9557 32.2396 36.8984 31.7656 36.8984C31.224 36.8984 30.7422 36.9948 30.3203 37.1875C29.8984 37.3802 29.5417 37.6536 29.25 38.0078C28.9635 38.3568 28.7422 38.7786 28.5859 39.2734C28.4349 39.7682 28.3594 40.3151 28.3594 40.9141C28.3594 41.5391 28.4219 42.099 28.5469 42.5938C28.6719 43.0885 28.8672 43.5078 29.1328 43.8516C29.3984 44.1953 29.737 44.4583 30.1484 44.6406C30.5651 44.8229 31.0625 44.9141 31.6406 44.9141C31.7396 44.9141 31.8464 44.9089 31.9609 44.8984C32.0755 44.888 32.1901 44.875 32.3047 44.8594C32.4193 44.8385 32.5286 44.8151 32.6328 44.7891C32.7422 44.763 32.8385 44.7344 32.9219 44.7031V41.4531H30.8359V40.3047H34.2969V45.5234C34.0833 45.6224 33.8568 45.7109 33.6172 45.7891C33.3828 45.8672 33.1406 45.9323 32.8906 45.9844C32.6458 46.0365 32.401 46.0755 32.1562 46.1016C31.9115 46.1276 31.6745 46.1406 31.4453 46.1406C30.7474 46.1406 30.1172 46.0312 29.5547 45.8125C28.9974 45.5938 28.5208 45.2708 28.125 44.8438C27.7344 44.4115 27.4323 43.875 27.2188 43.2344C27.0104 42.5938 26.9062 41.8516 26.9062 41.0078C26.9062 40.1693 27.0234 39.4193 27.2578 38.7578C27.4922 38.0911 27.8203 37.5286 28.2422 37.0703C28.6693 36.6068 29.1797 36.2552 29.7734 36.0156C30.3724 35.7708 31.0312 35.6484 31.75 35.6484C32.2083 35.6484 32.6432 35.6901 33.0547 35.7734C33.4714 35.8516 33.8698 35.9792 34.25 36.1562V37.5391ZM42.9609 45.6172C42.1432 45.9557 41.2865 46.125 40.3906 46.125C38.9479 46.125 37.8385 45.6953 37.0625 44.8359C36.2917 43.9714 35.9062 42.6953 35.9062 41.0078C35.9062 40.1901 36.013 39.4505 36.2266 38.7891C36.4401 38.1276 36.7448 37.5677 37.1406 37.1094C37.5365 36.6458 38.0156 36.2891 38.5781 36.0391C39.1406 35.7891 39.7708 35.6641 40.4688 35.6641C40.9427 35.6641 41.3828 35.7057 41.7891 35.7891C42.1953 35.8672 42.5859 35.9896 42.9609 36.1562V37.5234C42.5911 37.3203 42.2083 37.1667 41.8125 37.0625C41.4167 36.9531 40.9844 36.8984 40.5156 36.8984C40.0365 36.8984 39.6016 36.9896 39.2109 37.1719C38.8255 37.349 38.4974 37.6094 38.2266 37.9531C37.9557 38.2917 37.7474 38.7083 37.6016 39.2031C37.4557 39.6927 37.3828 40.2526 37.3828 40.8828C37.3828 42.2057 37.651 43.2031 38.1875 43.875C38.724 44.5469 39.5104 44.8828 40.5469 44.8828C40.9844 44.8828 41.4036 44.8333 41.8047 44.7344C42.2057 44.6302 42.5911 44.487 42.9609 44.3047V45.6172ZM52.1094 36.9766H49.0859V46H47.6797V36.9766H44.6562V35.7891H52.1094V36.9766ZM60.9062 36.9766H57.8828V46H56.4766V36.9766H53.4531V35.7891H60.9062V36.9766ZM69.3516 45.6172C68.5339 45.9557 67.6771 46.125 66.7812 46.125C65.3385 46.125 64.2292 45.6953 63.4531 44.8359C62.6823 43.9714 62.2969 42.6953 62.2969 41.0078C62.2969 40.1901 62.4036 39.4505 62.6172 38.7891C62.8307 38.1276 63.1354 37.5677 63.5312 37.1094C63.9271 36.6458 64.4062 36.2891 64.9688 36.0391C65.5312 35.7891 66.1615 35.6641 66.8594 35.6641C67.3333 35.6641 67.7734 35.7057 68.1797 35.7891C68.5859 35.8672 68.9766 35.9896 69.3516 36.1562V37.5234C68.9818 37.3203 68.599 37.1667 68.2031 37.0625C67.8073 36.9531 67.375 36.8984 66.9062 36.8984C66.4271 36.8984 65.9922 36.9896 65.6016 37.1719C65.2161 37.349 64.888 37.6094 64.6172 37.9531C64.3464 38.2917 64.138 38.7083 63.9922 39.2031C63.8464 39.6927 63.7734 40.2526 63.7734 40.8828C63.7734 42.2057 64.0417 43.2031 64.5781 43.875C65.1146 44.5469 65.901 44.8828 66.9375 44.8828C67.375 44.8828 67.7943 44.8333 68.1953 44.7344C68.5964 44.6302 68.9818 44.487 69.3516 44.3047V45.6172ZM78.2344 37.5391C77.8542 37.3359 77.4635 37.1797 77.0625 37.0703C76.6615 36.9557 76.224 36.8984 75.75 36.8984C75.2083 36.8984 74.7266 36.9948 74.3047 37.1875C73.8828 37.3802 73.526 37.6536 73.2344 38.0078C72.9479 38.3568 72.7266 38.7786 72.5703 39.2734C72.4193 39.7682 72.3438 40.3151 72.3438 40.9141C72.3438 41.5391 72.4062 42.099 72.5312 42.5938C72.6562 43.0885 72.8516 43.5078 73.1172 43.8516C73.3828 44.1953 73.7214 44.4583 74.1328 44.6406C74.5495 44.8229 75.0469 44.9141 75.625 44.9141C75.724 44.9141 75.8307 44.9089 75.9453 44.8984C76.0599 44.888 76.1745 44.875 76.2891 44.8594C76.4036 44.8385 76.513 44.8151 76.6172 44.7891C76.7266 44.763 76.8229 44.7344 76.9062 44.7031V41.4531H74.8203V40.3047H78.2812V45.5234C78.0677 45.6224 77.8411 45.7109 77.6016 45.7891C77.3672 45.8672 77.125 45.9323 76.875 45.9844C76.6302 46.0365 76.3854 46.0755 76.1406 46.1016C75.8958 46.1276 75.6589 46.1406 75.4297 46.1406C74.7318 46.1406 74.1016 46.0312 73.5391 45.8125C72.9818 45.5938 72.5052 45.2708 72.1094 44.8438C71.7188 44.4115 71.4167 43.875 71.2031 43.2344C70.9948 42.5938 70.8906 41.8516 70.8906 41.0078C70.8906 40.1693 71.0078 39.4193 71.2422 38.7578C71.4766 38.0911 71.8047 37.5286 72.2266 37.0703C72.6536 36.6068 73.1641 36.2552 73.7578 36.0156C74.3568 35.7708 75.0156 35.6484 75.7344 35.6484C76.1927 35.6484 76.6276 35.6901 77.0391 35.7734C77.4557 35.8516 77.8542 35.9792 78.2344 36.1562V37.5391ZM86.9453 45.6172C86.1276 45.9557 85.2708 46.125 84.375 46.125C82.9323 46.125 81.8229 45.6953 81.0469 44.8359C80.276 43.9714 79.8906 42.6953 79.8906 41.0078C79.8906 40.1901 79.9974 39.4505 80.2109 38.7891C80.4245 38.1276 80.7292 37.5677 81.125 37.1094C81.5208 36.6458 82 36.2891 82.5625 36.0391C83.125 35.7891 83.7552 35.6641 84.4531 35.6641C84.9271 35.6641 85.3672 35.7057 85.7734 35.7891C86.1797 35.8672 86.5703 35.9896 86.9453 36.1562V37.5234C86.5755 37.3203 86.1927 37.1667 85.7969 37.0625C85.401 36.9531 84.9688 36.8984 84.5 36.8984C84.0208 36.8984 83.5859 36.9896 83.1953 37.1719C82.8099 37.349 82.4818 37.6094 82.2109 37.9531C81.9401 38.2917 81.7318 38.7083 81.5859 39.2031C81.4401 39.6927 81.3672 40.2526 81.3672 40.8828C81.3672 42.2057 81.6354 43.2031 82.1719 43.875C82.7083 44.5469 83.4948 44.8828 84.5312 44.8828C84.9688 44.8828 85.388 44.8333 85.7891 44.7344C86.1901 44.6302 86.5755 44.487 86.9453 44.3047V45.6172Z" fill="#247F8F"/>
<path d="M602.773 12.6172C601.956 12.9557 601.099 13.125 600.203 13.125C598.76 13.125 597.651 12.6953 596.875 11.8359C596.104 10.9714 595.719 9.69531 595.719 8.00781C595.719 7.1901 595.826 6.45052 596.039 5.78906C596.253 5.1276 596.557 4.56771 596.953 4.10938C597.349 3.64583 597.828 3.28906 598.391 3.03906C598.953 2.78906 599.583 2.66406 600.281 2.66406C600.755 2.66406 601.195 2.70573 601.602 2.78906C602.008 2.86719 602.398 2.98958 602.773 3.15625V4.52344C602.404 4.32031 602.021 4.16667 601.625 4.0625C601.229 3.95312 600.797 3.89844 600.328 3.89844C599.849 3.89844 599.414 3.98958 599.023 4.17188C598.638 4.34896 598.31 4.60938 598.039 4.95312C597.768 5.29167 597.56 5.70833 597.414 6.20312C597.268 6.69271 597.195 7.2526 597.195 7.88281C597.195 9.20573 597.464 10.2031 598 10.875C598.536 11.5469 599.323 11.8828 600.359 11.8828C600.797 11.8828 601.216 11.8333 601.617 11.7344C602.018 11.6302 602.404 11.487 602.773 11.3047V12.6172ZM611.57 12.6172C610.753 12.9557 609.896 13.125 609 13.125C607.557 13.125 606.448 12.6953 605.672 11.8359C604.901 10.9714 604.516 9.69531 604.516 8.00781C604.516 7.1901 604.622 6.45052 604.836 5.78906C605.049 5.1276 605.354 4.56771 605.75 4.10938C606.146 3.64583 606.625 3.28906 607.188 3.03906C607.75 2.78906 608.38 2.66406 609.078 2.66406C609.552 2.66406 609.992 2.70573 610.398 2.78906C610.805 2.86719 611.195 2.98958 611.57 3.15625V4.52344C611.201 4.32031 610.818 4.16667 610.422 4.0625C610.026 3.95312 609.594 3.89844 609.125 3.89844C608.646 3.89844 608.211 3.98958 607.82 4.17188C607.435 4.34896 607.107 4.60938 606.836 4.95312C606.565 5.29167 606.357 5.70833 606.211 6.20312C606.065 6.69271 605.992 7.2526 605.992 7.88281C605.992 9.20573 606.26 10.2031 606.797 10.875C607.333 11.5469 608.12 11.8828 609.156 11.8828C609.594 11.8828 610.013 11.8333 610.414 11.7344C610.815 11.6302 611.201 11.487 611.57 11.3047V12.6172ZM620.453 4.53906C620.073 4.33594 619.682 4.17969 619.281 4.07031C618.88 3.95573 618.443 3.89844 617.969 3.89844C617.427 3.89844 616.945 3.99479 616.523 4.1875C616.102 4.38021 615.745 4.65365 615.453 5.00781C615.167 5.35677 614.945 5.77865 614.789 6.27344C614.638 6.76823 614.562 7.3151 614.562 7.91406C614.562 8.53906 614.625 9.09896 614.75 9.59375C614.875 10.0885 615.07 10.5078 615.336 10.8516C615.602 11.1953 615.94 11.4583 616.352 11.6406C616.768 11.8229 617.266 11.9141 617.844 11.9141C617.943 11.9141 618.049 11.9089 618.164 11.8984C618.279 11.888 618.393 11.875 618.508 11.8594C618.622 11.8385 618.732 11.8151 618.836 11.7891C618.945 11.763 619.042 11.7344 619.125 11.7031V8.45312H617.039V7.30469H620.5V12.5234C620.286 12.6224 620.06 12.7109 619.82 12.7891C619.586 12.8672 619.344 12.9323 619.094 12.9844C618.849 13.0365 618.604 13.0755 618.359 13.1016C618.115 13.1276 617.878 13.1406 617.648 13.1406C616.951 13.1406 616.32 13.0312 615.758 12.8125C615.201 12.5938 614.724 12.2708 614.328 11.8438C613.938 11.4115 613.635 10.875 613.422 10.2344C613.214 9.59375 613.109 8.85156 613.109 8.00781C613.109 7.16927 613.227 6.41927 613.461 5.75781C613.695 5.09115 614.023 4.52865 614.445 4.07031C614.872 3.60677 615.383 3.25521 615.977 3.01562C616.576 2.77083 617.234 2.64844 617.953 2.64844C618.411 2.64844 618.846 2.6901 619.258 2.77344C619.674 2.85156 620.073 2.97917 620.453 3.15625V4.53906ZM629.25 4.53906C628.87 4.33594 628.479 4.17969 628.078 4.07031C627.677 3.95573 627.24 3.89844 626.766 3.89844C626.224 3.89844 625.742 3.99479 625.32 4.1875C624.898 4.38021 624.542 4.65365 624.25 5.00781C623.964 5.35677 623.742 5.77865 623.586 6.27344C623.435 6.76823 623.359 7.3151 623.359 7.91406C623.359 8.53906 623.422 9.09896 623.547 9.59375C623.672 10.0885 623.867 10.5078 624.133 10.8516C624.398 11.1953 624.737 11.4583 625.148 11.6406C625.565 11.8229 626.062 11.9141 626.641 11.9141C626.74 11.9141 626.846 11.9089 626.961 11.8984C627.076 11.888 627.19 11.875 627.305 11.8594C627.419 11.8385 627.529 11.8151 627.633 11.7891C627.742 11.763 627.839 11.7344 627.922 11.7031V8.45312H625.836V7.30469H629.297V12.5234C629.083 12.6224 628.857 12.7109 628.617 12.7891C628.383 12.8672 628.141 12.9323 627.891 12.9844C627.646 13.0365 627.401 13.0755 627.156 13.1016C626.911 13.1276 626.674 13.1406 626.445 13.1406C625.747 13.1406 625.117 13.0312 624.555 12.8125C623.997 12.5938 623.521 12.2708 623.125 11.8438C622.734 11.4115 622.432 10.875 622.219 10.2344C622.01 9.59375 621.906 8.85156 621.906 8.00781C621.906 7.16927 622.023 6.41927 622.258 5.75781C622.492 5.09115 622.82 4.52865 623.242 4.07031C623.669 3.60677 624.18 3.25521 624.773 3.01562C625.372 2.77083 626.031 2.64844 626.75 2.64844C627.208 2.64844 627.643 2.6901 628.055 2.77344C628.471 2.85156 628.87 2.97917 629.25 3.15625V4.53906ZM638.047 4.53906C637.667 4.33594 637.276 4.17969 636.875 4.07031C636.474 3.95573 636.036 3.89844 635.562 3.89844C635.021 3.89844 634.539 3.99479 634.117 4.1875C633.695 4.38021 633.339 4.65365 633.047 5.00781C632.76 5.35677 632.539 5.77865 632.383 6.27344C632.232 6.76823 632.156 7.3151 632.156 7.91406C632.156 8.53906 632.219 9.09896 632.344 9.59375C632.469 10.0885 632.664 10.5078 632.93 10.8516C633.195 11.1953 633.534 11.4583 633.945 11.6406C634.362 11.8229 634.859 11.9141 635.438 11.9141C635.536 11.9141 635.643 11.9089 635.758 11.8984C635.872 11.888 635.987 11.875 636.102 11.8594C636.216 11.8385 636.326 11.8151 636.43 11.7891C636.539 11.763 636.635 11.7344 636.719 11.7031V8.45312H634.633V7.30469H638.094V12.5234C637.88 12.6224 637.654 12.7109 637.414 12.7891C637.18 12.8672 636.938 12.9323 636.688 12.9844C636.443 13.0365 636.198 13.0755 635.953 13.1016C635.708 13.1276 635.471 13.1406 635.242 13.1406C634.544 13.1406 633.914 13.0312 633.352 12.8125C632.794 12.5938 632.318 12.2708 631.922 11.8438C631.531 11.4115 631.229 10.875 631.016 10.2344C630.807 9.59375 630.703 8.85156 630.703 8.00781C630.703 7.16927 630.82 6.41927 631.055 5.75781C631.289 5.09115 631.617 4.52865 632.039 4.07031C632.466 3.60677 632.977 3.25521 633.57 3.01562C634.169 2.77083 634.828 2.64844 635.547 2.64844C636.005 2.64844 636.44 2.6901 636.852 2.77344C637.268 2.85156 637.667 2.97917 638.047 3.15625V4.53906ZM646.844 4.53906C646.464 4.33594 646.073 4.17969 645.672 4.07031C645.271 3.95573 644.833 3.89844 644.359 3.89844C643.818 3.89844 643.336 3.99479 642.914 4.1875C642.492 4.38021 642.135 4.65365 641.844 5.00781C641.557 5.35677 641.336 5.77865 641.18 6.27344C641.029 6.76823 640.953 7.3151 640.953 7.91406C640.953 8.53906 641.016 9.09896 641.141 9.59375C641.266 10.0885 641.461 10.5078 641.727 10.8516C641.992 11.1953 642.331 11.4583 642.742 11.6406C643.159 11.8229 643.656 11.9141 644.234 11.9141C644.333 11.9141 644.44 11.9089 644.555 11.8984C644.669 11.888 644.784 11.875 644.898 11.8594C645.013 11.8385 645.122 11.8151 645.227 11.7891C645.336 11.763 645.432 11.7344 645.516 11.7031V8.45312H643.43V7.30469H646.891V12.5234C646.677 12.6224 646.451 12.7109 646.211 12.7891C645.977 12.8672 645.734 12.9323 645.484 12.9844C645.24 13.0365 644.995 13.0755 644.75 13.1016C644.505 13.1276 644.268 13.1406 644.039 13.1406C643.341 13.1406 642.711 13.0312 642.148 12.8125C641.591 12.5938 641.115 12.2708 640.719 11.8438C640.328 11.4115 640.026 10.875 639.812 10.2344C639.604 9.59375 639.5 8.85156 639.5 8.00781C639.5 7.16927 639.617 6.41927 639.852 5.75781C640.086 5.09115 640.414 4.52865 640.836 4.07031C641.263 3.60677 641.773 3.25521 642.367 3.01562C642.966 2.77083 643.625 2.64844 644.344 2.64844C644.802 2.64844 645.237 2.6901 645.648 2.77344C646.065 2.85156 646.464 2.97917 646.844 3.15625V4.53906ZM655.906 3.97656H652.883V13H651.477V3.97656H648.453V2.78906H655.906V3.97656ZM664.703 3.97656H661.68V13H660.273V3.97656H657.25V2.78906H664.703V3.97656ZM673.234 4.53906C672.854 4.33594 672.464 4.17969 672.062 4.07031C671.661 3.95573 671.224 3.89844 670.75 3.89844C670.208 3.89844 669.727 3.99479 669.305 4.1875C668.883 4.38021 668.526 4.65365 668.234 5.00781C667.948 5.35677 667.727 5.77865 667.57 6.27344C667.419 6.76823 667.344 7.3151 667.344 7.91406C667.344 8.53906 667.406 9.09896 667.531 9.59375C667.656 10.0885 667.852 10.5078 668.117 10.8516C668.383 11.1953 668.721 11.4583 669.133 11.6406C669.549 11.8229 670.047 11.9141 670.625 11.9141C670.724 11.9141 670.831 11.9089 670.945 11.8984C671.06 11.888 671.174 11.875 671.289 11.8594C671.404 11.8385 671.513 11.8151 671.617 11.7891C671.727 11.763 671.823 11.7344 671.906 11.7031V8.45312H669.82V7.30469H673.281V12.5234C673.068 12.6224 672.841 12.7109 672.602 12.7891C672.367 12.8672 672.125 12.9323 671.875 12.9844C671.63 13.0365 671.385 13.0755 671.141 13.1016C670.896 13.1276 670.659 13.1406 670.43 13.1406C669.732 13.1406 669.102 13.0312 668.539 12.8125C667.982 12.5938 667.505 12.2708 667.109 11.8438C666.719 11.4115 666.417 10.875 666.203 10.2344C665.995 9.59375 665.891 8.85156 665.891 8.00781C665.891 7.16927 666.008 6.41927 666.242 5.75781C666.477 5.09115 666.805 4.52865 667.227 4.07031C667.654 3.60677 668.164 3.25521 668.758 3.01562C669.357 2.77083 670.016 2.64844 670.734 2.64844C671.193 2.64844 671.628 2.6901 672.039 2.77344C672.456 2.85156 672.854 2.97917 673.234 3.15625V4.53906ZM681.945 12.6172C681.128 12.9557 680.271 13.125 679.375 13.125C677.932 13.125 676.823 12.6953 676.047 11.8359C675.276 10.9714 674.891 9.69531 674.891 8.00781C674.891 7.1901 674.997 6.45052 675.211 5.78906C675.424 5.1276 675.729 4.56771 676.125 4.10938C676.521 3.64583 677 3.28906 677.562 3.03906C678.125 2.78906 678.755 2.66406 679.453 2.66406C679.927 2.66406 680.367 2.70573 680.773 2.78906C681.18 2.86719 681.57 2.98958 681.945 3.15625V4.52344C681.576 4.32031 681.193 4.16667 680.797 4.0625C680.401 3.95312 679.969 3.89844 679.5 3.89844C679.021 3.89844 678.586 3.98958 678.195 4.17188C677.81 4.34896 677.482 4.60938 677.211 4.95312C676.94 5.29167 676.732 5.70833 676.586 6.20312C676.44 6.69271 676.367 7.2526 676.367 7.88281C676.367 9.20573 676.635 10.2031 677.172 10.875C677.708 11.5469 678.495 11.8828 679.531 11.8828C679.969 11.8828 680.388 11.8333 680.789 11.7344C681.19 11.6302 681.576 11.487 681.945 11.3047V12.6172Z" fill="#247F8F"/>
<path d="M127.125 69.9766H124.102V79H122.695V69.9766H119.672V68.7891H127.125V69.9766ZM135.922 69.9766H132.898V79H131.492V69.9766H128.469V68.7891H135.922V69.9766ZM145.312 79H143.797L143.086 76.7734H138.836L138.117 79H136.672L140.062 68.7891H141.969L145.312 79ZM142.688 75.5312L140.961 70.0703L139.234 75.5312H142.688ZM154.109 79H152.594L151.883 76.7734H147.633L146.914 79H145.469L148.859 68.7891H150.766L154.109 79ZM151.484 75.5312L149.758 70.0703L148.031 75.5312H151.484ZM161.961 78.6172C161.143 78.9557 160.286 79.125 159.391 79.125C157.948 79.125 156.839 78.6953 156.062 77.8359C155.292 76.9714 154.906 75.6953 154.906 74.0078C154.906 73.1901 155.013 72.4505 155.227 71.7891C155.44 71.1276 155.745 70.5677 156.141 70.1094C156.536 69.6458 157.016 69.2891 157.578 69.0391C158.141 68.7891 158.771 68.6641 159.469 68.6641C159.943 68.6641 160.383 68.7057 160.789 68.7891C161.195 68.8672 161.586 68.9896 161.961 69.1562V70.5234C161.591 70.3203 161.208 70.1667 160.812 70.0625C160.417 69.9531 159.984 69.8984 159.516 69.8984C159.036 69.8984 158.602 69.9896 158.211 70.1719C157.826 70.349 157.497 70.6094 157.227 70.9531C156.956 71.2917 156.747 71.7083 156.602 72.2031C156.456 72.6927 156.383 73.2526 156.383 73.8828C156.383 75.2057 156.651 76.2031 157.188 76.875C157.724 77.5469 158.51 77.8828 159.547 77.8828C159.984 77.8828 160.404 77.8333 160.805 77.7344C161.206 77.6302 161.591 77.487 161.961 77.3047V78.6172ZM171.703 79H170.188L169.477 76.7734H165.227L164.508 79H163.062L166.453 68.7891H168.359L171.703 79ZM169.078 75.5312L167.352 70.0703L165.625 75.5312H169.078ZM179.641 70.5391C179.26 70.3359 178.87 70.1797 178.469 70.0703C178.068 69.9557 177.63 69.8984 177.156 69.8984C176.615 69.8984 176.133 69.9948 175.711 70.1875C175.289 70.3802 174.932 70.6536 174.641 71.0078C174.354 71.3568 174.133 71.7786 173.977 72.2734C173.826 72.7682 173.75 73.3151 173.75 73.9141C173.75 74.5391 173.812 75.099 173.938 75.5938C174.062 76.0885 174.258 76.5078 174.523 76.8516C174.789 77.1953 175.128 77.4583 175.539 77.6406C175.956 77.8229 176.453 77.9141 177.031 77.9141C177.13 77.9141 177.237 77.9089 177.352 77.8984C177.466 77.888 177.581 77.875 177.695 77.8594C177.81 77.8385 177.919 77.8151 178.023 77.7891C178.133 77.763 178.229 77.7344 178.312 77.7031V74.4531H176.227V73.3047H179.688V78.5234C179.474 78.6224 179.247 78.7109 179.008 78.7891C178.773 78.8672 178.531 78.9323 178.281 78.9844C178.036 79.0365 177.792 79.0755 177.547 79.1016C177.302 79.1276 177.065 79.1406 176.836 79.1406C176.138 79.1406 175.508 79.0312 174.945 78.8125C174.388 78.5938 173.911 78.2708 173.516 77.8438C173.125 77.4115 172.823 76.875 172.609 76.2344C172.401 75.5938 172.297 74.8516 172.297 74.0078C172.297 73.1693 172.414 72.4193 172.648 71.7578C172.883 71.0911 173.211 70.5286 173.633 70.0703C174.06 69.6068 174.57 69.2552 175.164 69.0156C175.763 68.7708 176.422 68.6484 177.141 68.6484C177.599 68.6484 178.034 68.6901 178.445 68.7734C178.862 68.8516 179.26 68.9792 179.641 69.1562V70.5391ZM188.438 70.5391C188.057 70.3359 187.667 70.1797 187.266 70.0703C186.865 69.9557 186.427 69.8984 185.953 69.8984C185.411 69.8984 184.93 69.9948 184.508 70.1875C184.086 70.3802 183.729 70.6536 183.438 71.0078C183.151 71.3568 182.93 71.7786 182.773 72.2734C182.622 72.7682 182.547 73.3151 182.547 73.9141C182.547 74.5391 182.609 75.099 182.734 75.5938C182.859 76.0885 183.055 76.5078 183.32 76.8516C183.586 77.1953 183.924 77.4583 184.336 77.6406C184.753 77.8229 185.25 77.9141 185.828 77.9141C185.927 77.9141 186.034 77.9089 186.148 77.8984C186.263 77.888 186.378 77.875 186.492 77.8594C186.607 77.8385 186.716 77.8151 186.82 77.7891C186.93 77.763 187.026 77.7344 187.109 77.7031V74.4531H185.023V73.3047H188.484V78.5234C188.271 78.6224 188.044 78.7109 187.805 78.7891C187.57 78.8672 187.328 78.9323 187.078 78.9844C186.833 79.0365 186.589 79.0755 186.344 79.1016C186.099 79.1276 185.862 79.1406 185.633 79.1406C184.935 79.1406 184.305 79.0312 183.742 78.8125C183.185 78.5938 182.708 78.2708 182.312 77.8438C181.922 77.4115 181.62 76.875 181.406 76.2344C181.198 75.5938 181.094 74.8516 181.094 74.0078C181.094 73.1693 181.211 72.4193 181.445 71.7578C181.68 71.0911 182.008 70.5286 182.43 70.0703C182.857 69.6068 183.367 69.2552 183.961 69.0156C184.56 68.7708 185.219 68.6484 185.938 68.6484C186.396 68.6484 186.831 68.6901 187.242 68.7734C187.659 68.8516 188.057 68.9792 188.438 69.1562V70.5391ZM197.148 78.6172C196.331 78.9557 195.474 79.125 194.578 79.125C193.135 79.125 192.026 78.6953 191.25 77.8359C190.479 76.9714 190.094 75.6953 190.094 74.0078C190.094 73.1901 190.201 72.4505 190.414 71.7891C190.628 71.1276 190.932 70.5677 191.328 70.1094C191.724 69.6458 192.203 69.2891 192.766 69.0391C193.328 68.7891 193.958 68.6641 194.656 68.6641C195.13 68.6641 195.57 68.7057 195.977 68.7891C196.383 68.8672 196.773 68.9896 197.148 69.1562V70.5234C196.779 70.3203 196.396 70.1667 196 70.0625C195.604 69.9531 195.172 69.8984 194.703 69.8984C194.224 69.8984 193.789 69.9896 193.398 70.1719C193.013 70.349 192.685 70.6094 192.414 70.9531C192.143 71.2917 191.935 71.7083 191.789 72.2031C191.643 72.6927 191.57 73.2526 191.57 73.8828C191.57 75.2057 191.839 76.2031 192.375 76.875C192.911 77.5469 193.698 77.8828 194.734 77.8828C195.172 77.8828 195.591 77.8333 195.992 77.7344C196.393 77.6302 196.779 77.487 197.148 77.3047V78.6172ZM206.297 69.9766H203.273V79H201.867V69.9766H198.844V68.7891H206.297V69.9766ZM246.492 76.5391C246.669 76.5391 246.836 76.5729 246.992 76.6406C247.154 76.7083 247.292 76.8021 247.406 76.9219C247.526 77.0417 247.62 77.1823 247.688 77.3438C247.755 77.5 247.789 77.6693 247.789 77.8516C247.789 78.0286 247.755 78.1953 247.688 78.3516C247.62 78.5078 247.526 78.6458 247.406 78.7656C247.292 78.8802 247.154 78.9714 246.992 79.0391C246.836 79.1068 246.669 79.1406 246.492 79.1406C246.31 79.1406 246.141 79.1068 245.984 79.0391C245.828 78.9714 245.69 78.8802 245.57 78.7656C245.456 78.6458 245.365 78.5078 245.297 78.3516C245.229 78.1953 245.195 78.0286 245.195 77.8516C245.195 77.6693 245.229 77.5 245.297 77.3438C245.365 77.1823 245.456 77.0417 245.57 76.9219C245.69 76.8021 245.828 76.7083 245.984 76.6406C246.141 76.5729 246.31 76.5391 246.492 76.5391ZM255.289 76.5391C255.466 76.5391 255.633 76.5729 255.789 76.6406C255.951 76.7083 256.089 76.8021 256.203 76.9219C256.323 77.0417 256.417 77.1823 256.484 77.3438C256.552 77.5 256.586 77.6693 256.586 77.8516C256.586 78.0286 256.552 78.1953 256.484 78.3516C256.417 78.5078 256.323 78.6458 256.203 78.7656C256.089 78.8802 255.951 78.9714 255.789 79.0391C255.633 79.1068 255.466 79.1406 255.289 79.1406C255.107 79.1406 254.938 79.1068 254.781 79.0391C254.625 78.9714 254.487 78.8802 254.367 78.7656C254.253 78.6458 254.161 78.5078 254.094 78.3516C254.026 78.1953 253.992 78.0286 253.992 77.8516C253.992 77.6693 254.026 77.5 254.094 77.3438C254.161 77.1823 254.253 77.0417 254.367 76.9219C254.487 76.8021 254.625 76.7083 254.781 76.6406C254.938 76.5729 255.107 76.5391 255.289 76.5391ZM264.086 76.5391C264.263 76.5391 264.43 76.5729 264.586 76.6406C264.747 76.7083 264.885 76.8021 265 76.9219C265.12 77.0417 265.214 77.1823 265.281 77.3438C265.349 77.5 265.383 77.6693 265.383 77.8516C265.383 78.0286 265.349 78.1953 265.281 78.3516C265.214 78.5078 265.12 78.6458 265 78.7656C264.885 78.8802 264.747 78.9714 264.586 79.0391C264.43 79.1068 264.263 79.1406 264.086 79.1406C263.904 79.1406 263.734 79.1068 263.578 79.0391C263.422 78.9714 263.284 78.8802 263.164 78.7656C263.049 78.6458 262.958 78.5078 262.891 78.3516C262.823 78.1953 262.789 78.0286 262.789 77.8516C262.789 77.6693 262.823 77.5 262.891 77.3438C262.958 77.1823 263.049 77.0417 263.164 76.9219C263.284 76.8021 263.422 76.7083 263.578 76.6406C263.734 76.5729 263.904 76.5391 264.086 76.5391Z" fill="#247F8F"/>
<path d="M483.773 12.6172C482.956 12.9557 482.099 13.125 481.203 13.125C479.76 13.125 478.651 12.6953 477.875 11.8359C477.104 10.9714 476.719 9.69531 476.719 8.00781C476.719 7.1901 476.826 6.45052 477.039 5.78906C477.253 5.1276 477.557 4.56771 477.953 4.10938C478.349 3.64583 478.828 3.28906 479.391 3.03906C479.953 2.78906 480.583 2.66406 481.281 2.66406C481.755 2.66406 482.195 2.70573 482.602 2.78906C483.008 2.86719 483.398 2.98958 483.773 3.15625V4.52344C483.404 4.32031 483.021 4.16667 482.625 4.0625C482.229 3.95312 481.797 3.89844 481.328 3.89844C480.849 3.89844 480.414 3.98958 480.023 4.17188C479.638 4.34896 479.31 4.60938 479.039 4.95312C478.768 5.29167 478.56 5.70833 478.414 6.20312C478.268 6.69271 478.195 7.2526 478.195 7.88281C478.195 9.20573 478.464 10.2031 479 10.875C479.536 11.5469 480.323 11.8828 481.359 11.8828C481.797 11.8828 482.216 11.8333 482.617 11.7344C483.018 11.6302 483.404 11.487 483.773 11.3047V12.6172ZM492.57 12.6172C491.753 12.9557 490.896 13.125 490 13.125C488.557 13.125 487.448 12.6953 486.672 11.8359C485.901 10.9714 485.516 9.69531 485.516 8.00781C485.516 7.1901 485.622 6.45052 485.836 5.78906C486.049 5.1276 486.354 4.56771 486.75 4.10938C487.146 3.64583 487.625 3.28906 488.188 3.03906C488.75 2.78906 489.38 2.66406 490.078 2.66406C490.552 2.66406 490.992 2.70573 491.398 2.78906C491.805 2.86719 492.195 2.98958 492.57 3.15625V4.52344C492.201 4.32031 491.818 4.16667 491.422 4.0625C491.026 3.95312 490.594 3.89844 490.125 3.89844C489.646 3.89844 489.211 3.98958 488.82 4.17188C488.435 4.34896 488.107 4.60938 487.836 4.95312C487.565 5.29167 487.357 5.70833 487.211 6.20312C487.065 6.69271 486.992 7.2526 486.992 7.88281C486.992 9.20573 487.26 10.2031 487.797 10.875C488.333 11.5469 489.12 11.8828 490.156 11.8828C490.594 11.8828 491.013 11.8333 491.414 11.7344C491.815 11.6302 492.201 11.487 492.57 11.3047V12.6172ZM501.453 4.53906C501.073 4.33594 500.682 4.17969 500.281 4.07031C499.88 3.95573 499.443 3.89844 498.969 3.89844C498.427 3.89844 497.945 3.99479 497.523 4.1875C497.102 4.38021 496.745 4.65365 496.453 5.00781C496.167 5.35677 495.945 5.77865 495.789 6.27344C495.638 6.76823 495.562 7.3151 495.562 7.91406C495.562 8.53906 495.625 9.09896 495.75 9.59375C495.875 10.0885 496.07 10.5078 496.336 10.8516C496.602 11.1953 496.94 11.4583 497.352 11.6406C497.768 11.8229 498.266 11.9141 498.844 11.9141C498.943 11.9141 499.049 11.9089 499.164 11.8984C499.279 11.888 499.393 11.875 499.508 11.8594C499.622 11.8385 499.732 11.8151 499.836 11.7891C499.945 11.763 500.042 11.7344 500.125 11.7031V8.45312H498.039V7.30469H501.5V12.5234C501.286 12.6224 501.06 12.7109 500.82 12.7891C500.586 12.8672 500.344 12.9323 500.094 12.9844C499.849 13.0365 499.604 13.0755 499.359 13.1016C499.115 13.1276 498.878 13.1406 498.648 13.1406C497.951 13.1406 497.32 13.0312 496.758 12.8125C496.201 12.5938 495.724 12.2708 495.328 11.8438C494.938 11.4115 494.635 10.875 494.422 10.2344C494.214 9.59375 494.109 8.85156 494.109 8.00781C494.109 7.16927 494.227 6.41927 494.461 5.75781C494.695 5.09115 495.023 4.52865 495.445 4.07031C495.872 3.60677 496.383 3.25521 496.977 3.01562C497.576 2.77083 498.234 2.64844 498.953 2.64844C499.411 2.64844 499.846 2.6901 500.258 2.77344C500.674 2.85156 501.073 2.97917 501.453 3.15625V4.53906ZM510.164 12.6172C509.346 12.9557 508.49 13.125 507.594 13.125C506.151 13.125 505.042 12.6953 504.266 11.8359C503.495 10.9714 503.109 9.69531 503.109 8.00781C503.109 7.1901 503.216 6.45052 503.43 5.78906C503.643 5.1276 503.948 4.56771 504.344 4.10938C504.74 3.64583 505.219 3.28906 505.781 3.03906C506.344 2.78906 506.974 2.66406 507.672 2.66406C508.146 2.66406 508.586 2.70573 508.992 2.78906C509.398 2.86719 509.789 2.98958 510.164 3.15625V4.52344C509.794 4.32031 509.411 4.16667 509.016 4.0625C508.62 3.95312 508.188 3.89844 507.719 3.89844C507.24 3.89844 506.805 3.98958 506.414 4.17188C506.029 4.34896 505.701 4.60938 505.43 4.95312C505.159 5.29167 504.951 5.70833 504.805 6.20312C504.659 6.69271 504.586 7.2526 504.586 7.88281C504.586 9.20573 504.854 10.2031 505.391 10.875C505.927 11.5469 506.714 11.8828 507.75 11.8828C508.188 11.8828 508.607 11.8333 509.008 11.7344C509.409 11.6302 509.794 11.487 510.164 11.3047V12.6172ZM519.047 4.53906C518.667 4.33594 518.276 4.17969 517.875 4.07031C517.474 3.95573 517.036 3.89844 516.562 3.89844C516.021 3.89844 515.539 3.99479 515.117 4.1875C514.695 4.38021 514.339 4.65365 514.047 5.00781C513.76 5.35677 513.539 5.77865 513.383 6.27344C513.232 6.76823 513.156 7.3151 513.156 7.91406C513.156 8.53906 513.219 9.09896 513.344 9.59375C513.469 10.0885 513.664 10.5078 513.93 10.8516C514.195 11.1953 514.534 11.4583 514.945 11.6406C515.362 11.8229 515.859 11.9141 516.438 11.9141C516.536 11.9141 516.643 11.9089 516.758 11.8984C516.872 11.888 516.987 11.875 517.102 11.8594C517.216 11.8385 517.326 11.8151 517.43 11.7891C517.539 11.763 517.635 11.7344 517.719 11.7031V8.45312H515.633V7.30469H519.094V12.5234C518.88 12.6224 518.654 12.7109 518.414 12.7891C518.18 12.8672 517.938 12.9323 517.688 12.9844C517.443 13.0365 517.198 13.0755 516.953 13.1016C516.708 13.1276 516.471 13.1406 516.242 13.1406C515.544 13.1406 514.914 13.0312 514.352 12.8125C513.794 12.5938 513.318 12.2708 512.922 11.8438C512.531 11.4115 512.229 10.875 512.016 10.2344C511.807 9.59375 511.703 8.85156 511.703 8.00781C511.703 7.16927 511.82 6.41927 512.055 5.75781C512.289 5.09115 512.617 4.52865 513.039 4.07031C513.466 3.60677 513.977 3.25521 514.57 3.01562C515.169 2.77083 515.828 2.64844 516.547 2.64844C517.005 2.64844 517.44 2.6901 517.852 2.77344C518.268 2.85156 518.667 2.97917 519.047 3.15625V4.53906ZM527.758 12.6172C526.94 12.9557 526.083 13.125 525.188 13.125C523.745 13.125 522.635 12.6953 521.859 11.8359C521.089 10.9714 520.703 9.69531 520.703 8.00781C520.703 7.1901 520.81 6.45052 521.023 5.78906C521.237 5.1276 521.542 4.56771 521.938 4.10938C522.333 3.64583 522.812 3.28906 523.375 3.03906C523.938 2.78906 524.568 2.66406 525.266 2.66406C525.74 2.66406 526.18 2.70573 526.586 2.78906C526.992 2.86719 527.383 2.98958 527.758 3.15625V4.52344C527.388 4.32031 527.005 4.16667 526.609 4.0625C526.214 3.95312 525.781 3.89844 525.312 3.89844C524.833 3.89844 524.398 3.98958 524.008 4.17188C523.622 4.34896 523.294 4.60938 523.023 4.95312C522.753 5.29167 522.544 5.70833 522.398 6.20312C522.253 6.69271 522.18 7.2526 522.18 7.88281C522.18 9.20573 522.448 10.2031 522.984 10.875C523.521 11.5469 524.307 11.8828 525.344 11.8828C525.781 11.8828 526.201 11.8333 526.602 11.7344C527.003 11.6302 527.388 11.487 527.758 11.3047V12.6172ZM536.555 12.6172C535.737 12.9557 534.88 13.125 533.984 13.125C532.542 13.125 531.432 12.6953 530.656 11.8359C529.885 10.9714 529.5 9.69531 529.5 8.00781C529.5 7.1901 529.607 6.45052 529.82 5.78906C530.034 5.1276 530.339 4.56771 530.734 4.10938C531.13 3.64583 531.609 3.28906 532.172 3.03906C532.734 2.78906 533.365 2.66406 534.062 2.66406C534.536 2.66406 534.977 2.70573 535.383 2.78906C535.789 2.86719 536.18 2.98958 536.555 3.15625V4.52344C536.185 4.32031 535.802 4.16667 535.406 4.0625C535.01 3.95312 534.578 3.89844 534.109 3.89844C533.63 3.89844 533.195 3.98958 532.805 4.17188C532.419 4.34896 532.091 4.60938 531.82 4.95312C531.549 5.29167 531.341 5.70833 531.195 6.20312C531.049 6.69271 530.977 7.2526 530.977 7.88281C530.977 9.20573 531.245 10.2031 531.781 10.875C532.318 11.5469 533.104 11.8828 534.141 11.8828C534.578 11.8828 534.997 11.8333 535.398 11.7344C535.799 11.6302 536.185 11.487 536.555 11.3047V12.6172ZM545.438 4.53906C545.057 4.33594 544.667 4.17969 544.266 4.07031C543.865 3.95573 543.427 3.89844 542.953 3.89844C542.411 3.89844 541.93 3.99479 541.508 4.1875C541.086 4.38021 540.729 4.65365 540.438 5.00781C540.151 5.35677 539.93 5.77865 539.773 6.27344C539.622 6.76823 539.547 7.3151 539.547 7.91406C539.547 8.53906 539.609 9.09896 539.734 9.59375C539.859 10.0885 540.055 10.5078 540.32 10.8516C540.586 11.1953 540.924 11.4583 541.336 11.6406C541.753 11.8229 542.25 11.9141 542.828 11.9141C542.927 11.9141 543.034 11.9089 543.148 11.8984C543.263 11.888 543.378 11.875 543.492 11.8594C543.607 11.8385 543.716 11.8151 543.82 11.7891C543.93 11.763 544.026 11.7344 544.109 11.7031V8.45312H542.023V7.30469H545.484V12.5234C545.271 12.6224 545.044 12.7109 544.805 12.7891C544.57 12.8672 544.328 12.9323 544.078 12.9844C543.833 13.0365 543.589 13.0755 543.344 13.1016C543.099 13.1276 542.862 13.1406 542.633 13.1406C541.935 13.1406 541.305 13.0312 540.742 12.8125C540.185 12.5938 539.708 12.2708 539.312 11.8438C538.922 11.4115 538.62 10.875 538.406 10.2344C538.198 9.59375 538.094 8.85156 538.094 8.00781C538.094 7.16927 538.211 6.41927 538.445 5.75781C538.68 5.09115 539.008 4.52865 539.43 4.07031C539.857 3.60677 540.367 3.25521 540.961 3.01562C541.56 2.77083 542.219 2.64844 542.938 2.64844C543.396 2.64844 543.831 2.6901 544.242 2.77344C544.659 2.85156 545.057 2.97917 545.438 3.15625V4.53906ZM554.234 4.53906C553.854 4.33594 553.464 4.17969 553.062 4.07031C552.661 3.95573 552.224 3.89844 551.75 3.89844C551.208 3.89844 550.727 3.99479 550.305 4.1875C549.883 4.38021 549.526 4.65365 549.234 5.00781C548.948 5.35677 548.727 5.77865 548.57 6.27344C548.419 6.76823 548.344 7.3151 548.344 7.91406C548.344 8.53906 548.406 9.09896 548.531 9.59375C548.656 10.0885 548.852 10.5078 549.117 10.8516C549.383 11.1953 549.721 11.4583 550.133 11.6406C550.549 11.8229 551.047 11.9141 551.625 11.9141C551.724 11.9141 551.831 11.9089 551.945 11.8984C552.06 11.888 552.174 11.875 552.289 11.8594C552.404 11.8385 552.513 11.8151 552.617 11.7891C552.727 11.763 552.823 11.7344 552.906 11.7031V8.45312H550.82V7.30469H554.281V12.5234C554.068 12.6224 553.841 12.7109 553.602 12.7891C553.367 12.8672 553.125 12.9323 552.875 12.9844C552.63 13.0365 552.385 13.0755 552.141 13.1016C551.896 13.1276 551.659 13.1406 551.43 13.1406C550.732 13.1406 550.102 13.0312 549.539 12.8125C548.982 12.5938 548.505 12.2708 548.109 11.8438C547.719 11.4115 547.417 10.875 547.203 10.2344C546.995 9.59375 546.891 8.85156 546.891 8.00781C546.891 7.16927 547.008 6.41927 547.242 5.75781C547.477 5.09115 547.805 4.52865 548.227 4.07031C548.654 3.60677 549.164 3.25521 549.758 3.01562C550.357 2.77083 551.016 2.64844 551.734 2.64844C552.193 2.64844 552.628 2.6901 553.039 2.77344C553.456 2.85156 553.854 2.97917 554.234 3.15625V4.53906ZM563.031 4.53906C562.651 4.33594 562.26 4.17969 561.859 4.07031C561.458 3.95573 561.021 3.89844 560.547 3.89844C560.005 3.89844 559.523 3.99479 559.102 4.1875C558.68 4.38021 558.323 4.65365 558.031 5.00781C557.745 5.35677 557.523 5.77865 557.367 6.27344C557.216 6.76823 557.141 7.3151 557.141 7.91406C557.141 8.53906 557.203 9.09896 557.328 9.59375C557.453 10.0885 557.648 10.5078 557.914 10.8516C558.18 11.1953 558.518 11.4583 558.93 11.6406C559.346 11.8229 559.844 11.9141 560.422 11.9141C560.521 11.9141 560.628 11.9089 560.742 11.8984C560.857 11.888 560.971 11.875 561.086 11.8594C561.201 11.8385 561.31 11.8151 561.414 11.7891C561.523 11.763 561.62 11.7344 561.703 11.7031V8.45312H559.617V7.30469H563.078V12.5234C562.865 12.6224 562.638 12.7109 562.398 12.7891C562.164 12.8672 561.922 12.9323 561.672 12.9844C561.427 13.0365 561.182 13.0755 560.938 13.1016C560.693 13.1276 560.456 13.1406 560.227 13.1406C559.529 13.1406 558.898 13.0312 558.336 12.8125C557.779 12.5938 557.302 12.2708 556.906 11.8438C556.516 11.4115 556.214 10.875 556 10.2344C555.792 9.59375 555.688 8.85156 555.688 8.00781C555.688 7.16927 555.805 6.41927 556.039 5.75781C556.273 5.09115 556.602 4.52865 557.023 4.07031C557.451 3.60677 557.961 3.25521 558.555 3.01562C559.154 2.77083 559.812 2.64844 560.531 2.64844C560.99 2.64844 561.424 2.6901 561.836 2.77344C562.253 2.85156 562.651 2.97917 563.031 3.15625V4.53906Z" fill="#247F8F"/>
<path d="M127.719 13H126.203L125.492 10.7734H121.242L120.523 13H119.078L122.469 2.78906H124.375L127.719 13ZM125.094 9.53125L123.367 4.07031L121.641 9.53125H125.094ZM135.922 3.97656H132.898V13H131.492V3.97656H128.469V2.78906H135.922V3.97656ZM145.312 13H143.797L143.086 10.7734H138.836L138.117 13H136.672L140.062 2.78906H141.969L145.312 13ZM142.688 9.53125L140.961 4.07031L139.234 9.53125H142.688ZM153.164 12.6172C152.346 12.9557 151.49 13.125 150.594 13.125C149.151 13.125 148.042 12.6953 147.266 11.8359C146.495 10.9714 146.109 9.69531 146.109 8.00781C146.109 7.1901 146.216 6.45052 146.43 5.78906C146.643 5.1276 146.948 4.56771 147.344 4.10938C147.74 3.64583 148.219 3.28906 148.781 3.03906C149.344 2.78906 149.974 2.66406 150.672 2.66406C151.146 2.66406 151.586 2.70573 151.992 2.78906C152.398 2.86719 152.789 2.98958 153.164 3.15625V4.52344C152.794 4.32031 152.411 4.16667 152.016 4.0625C151.62 3.95312 151.188 3.89844 150.719 3.89844C150.24 3.89844 149.805 3.98958 149.414 4.17188C149.029 4.34896 148.701 4.60938 148.43 4.95312C148.159 5.29167 147.951 5.70833 147.805 6.20312C147.659 6.69271 147.586 7.2526 147.586 7.88281C147.586 9.20573 147.854 10.2031 148.391 10.875C148.927 11.5469 149.714 11.8828 150.75 11.8828C151.188 11.8828 151.607 11.8333 152.008 11.7344C152.409 11.6302 152.794 11.487 153.164 11.3047V12.6172ZM161.961 12.6172C161.143 12.9557 160.286 13.125 159.391 13.125C157.948 13.125 156.839 12.6953 156.062 11.8359C155.292 10.9714 154.906 9.69531 154.906 8.00781C154.906 7.1901 155.013 6.45052 155.227 5.78906C155.44 5.1276 155.745 4.56771 156.141 4.10938C156.536 3.64583 157.016 3.28906 157.578 3.03906C158.141 2.78906 158.771 2.66406 159.469 2.66406C159.943 2.66406 160.383 2.70573 160.789 2.78906C161.195 2.86719 161.586 2.98958 161.961 3.15625V4.52344C161.591 4.32031 161.208 4.16667 160.812 4.0625C160.417 3.95312 159.984 3.89844 159.516 3.89844C159.036 3.89844 158.602 3.98958 158.211 4.17188C157.826 4.34896 157.497 4.60938 157.227 4.95312C156.956 5.29167 156.747 5.70833 156.602 6.20312C156.456 6.69271 156.383 7.2526 156.383 7.88281C156.383 9.20573 156.651 10.2031 157.188 10.875C157.724 11.5469 158.51 11.8828 159.547 11.8828C159.984 11.8828 160.404 11.8333 160.805 11.7344C161.206 11.6302 161.591 11.487 161.961 11.3047V12.6172ZM170.844 4.53906C170.464 4.33594 170.073 4.17969 169.672 4.07031C169.271 3.95573 168.833 3.89844 168.359 3.89844C167.818 3.89844 167.336 3.99479 166.914 4.1875C166.492 4.38021 166.135 4.65365 165.844 5.00781C165.557 5.35677 165.336 5.77865 165.18 6.27344C165.029 6.76823 164.953 7.3151 164.953 7.91406C164.953 8.53906 165.016 9.09896 165.141 9.59375C165.266 10.0885 165.461 10.5078 165.727 10.8516C165.992 11.1953 166.331 11.4583 166.742 11.6406C167.159 11.8229 167.656 11.9141 168.234 11.9141C168.333 11.9141 168.44 11.9089 168.555 11.8984C168.669 11.888 168.784 11.875 168.898 11.8594C169.013 11.8385 169.122 11.8151 169.227 11.7891C169.336 11.763 169.432 11.7344 169.516 11.7031V8.45312H167.43V7.30469H170.891V12.5234C170.677 12.6224 170.451 12.7109 170.211 12.7891C169.977 12.8672 169.734 12.9323 169.484 12.9844C169.24 13.0365 168.995 13.0755 168.75 13.1016C168.505 13.1276 168.268 13.1406 168.039 13.1406C167.341 13.1406 166.711 13.0312 166.148 12.8125C165.591 12.5938 165.115 12.2708 164.719 11.8438C164.328 11.4115 164.026 10.875 163.812 10.2344C163.604 9.59375 163.5 8.85156 163.5 8.00781C163.5 7.16927 163.617 6.41927 163.852 5.75781C164.086 5.09115 164.414 4.52865 164.836 4.07031C165.263 3.60677 165.773 3.25521 166.367 3.01562C166.966 2.77083 167.625 2.64844 168.344 2.64844C168.802 2.64844 169.237 2.6901 169.648 2.77344C170.065 2.85156 170.464 2.97917 170.844 3.15625V4.53906ZM179.641 4.53906C179.26 4.33594 178.87 4.17969 178.469 4.07031C178.068 3.95573 177.63 3.89844 177.156 3.89844C176.615 3.89844 176.133 3.99479 175.711 4.1875C175.289 4.38021 174.932 4.65365 174.641 5.00781C174.354 5.35677 174.133 5.77865 173.977 6.27344C173.826 6.76823 173.75 7.3151 173.75 7.91406C173.75 8.53906 173.812 9.09896 173.938 9.59375C174.062 10.0885 174.258 10.5078 174.523 10.8516C174.789 11.1953 175.128 11.4583 175.539 11.6406C175.956 11.8229 176.453 11.9141 177.031 11.9141C177.13 11.9141 177.237 11.9089 177.352 11.8984C177.466 11.888 177.581 11.875 177.695 11.8594C177.81 11.8385 177.919 11.8151 178.023 11.7891C178.133 11.763 178.229 11.7344 178.312 11.7031V8.45312H176.227V7.30469H179.688V12.5234C179.474 12.6224 179.247 12.7109 179.008 12.7891C178.773 12.8672 178.531 12.9323 178.281 12.9844C178.036 13.0365 177.792 13.0755 177.547 13.1016C177.302 13.1276 177.065 13.1406 176.836 13.1406C176.138 13.1406 175.508 13.0312 174.945 12.8125C174.388 12.5938 173.911 12.2708 173.516 11.8438C173.125 11.4115 172.823 10.875 172.609 10.2344C172.401 9.59375 172.297 8.85156 172.297 8.00781C172.297 7.16927 172.414 6.41927 172.648 5.75781C172.883 5.09115 173.211 4.52865 173.633 4.07031C174.06 3.60677 174.57 3.25521 175.164 3.01562C175.763 2.77083 176.422 2.64844 177.141 2.64844C177.599 2.64844 178.034 2.6901 178.445 2.77344C178.862 2.85156 179.26 2.97917 179.641 3.15625V4.53906ZM188.438 4.53906C188.057 4.33594 187.667 4.17969 187.266 4.07031C186.865 3.95573 186.427 3.89844 185.953 3.89844C185.411 3.89844 184.93 3.99479 184.508 4.1875C184.086 4.38021 183.729 4.65365 183.438 5.00781C183.151 5.35677 182.93 5.77865 182.773 6.27344C182.622 6.76823 182.547 7.3151 182.547 7.91406C182.547 8.53906 182.609 9.09896 182.734 9.59375C182.859 10.0885 183.055 10.5078 183.32 10.8516C183.586 11.1953 183.924 11.4583 184.336 11.6406C184.753 11.8229 185.25 11.9141 185.828 11.9141C185.927 11.9141 186.034 11.9089 186.148 11.8984C186.263 11.888 186.378 11.875 186.492 11.8594C186.607 11.8385 186.716 11.8151 186.82 11.7891C186.93 11.763 187.026 11.7344 187.109 11.7031V8.45312H185.023V7.30469H188.484V12.5234C188.271 12.6224 188.044 12.7109 187.805 12.7891C187.57 12.8672 187.328 12.9323 187.078 12.9844C186.833 13.0365 186.589 13.0755 186.344 13.1016C186.099 13.1276 185.862 13.1406 185.633 13.1406C184.935 13.1406 184.305 13.0312 183.742 12.8125C183.185 12.5938 182.708 12.2708 182.312 11.8438C181.922 11.4115 181.62 10.875 181.406 10.2344C181.198 9.59375 181.094 8.85156 181.094 8.00781C181.094 7.16927 181.211 6.41927 181.445 5.75781C181.68 5.09115 182.008 4.52865 182.43 4.07031C182.857 3.60677 183.367 3.25521 183.961 3.01562C184.56 2.77083 185.219 2.64844 185.938 2.64844C186.396 2.64844 186.831 2.6901 187.242 2.77344C187.659 2.85156 188.057 2.97917 188.438 3.15625V4.53906ZM197.234 4.53906C196.854 4.33594 196.464 4.17969 196.062 4.07031C195.661 3.95573 195.224 3.89844 194.75 3.89844C194.208 3.89844 193.727 3.99479 193.305 4.1875C192.883 4.38021 192.526 4.65365 192.234 5.00781C191.948 5.35677 191.727 5.77865 191.57 6.27344C191.419 6.76823 191.344 7.3151 191.344 7.91406C191.344 8.53906 191.406 9.09896 191.531 9.59375C191.656 10.0885 191.852 10.5078 192.117 10.8516C192.383 11.1953 192.721 11.4583 193.133 11.6406C193.549 11.8229 194.047 11.9141 194.625 11.9141C194.724 11.9141 194.831 11.9089 194.945 11.8984C195.06 11.888 195.174 11.875 195.289 11.8594C195.404 11.8385 195.513 11.8151 195.617 11.7891C195.727 11.763 195.823 11.7344 195.906 11.7031V8.45312H193.82V7.30469H197.281V12.5234C197.068 12.6224 196.841 12.7109 196.602 12.7891C196.367 12.8672 196.125 12.9323 195.875 12.9844C195.63 13.0365 195.385 13.0755 195.141 13.1016C194.896 13.1276 194.659 13.1406 194.43 13.1406C193.732 13.1406 193.102 13.0312 192.539 12.8125C191.982 12.5938 191.505 12.2708 191.109 11.8438C190.719 11.4115 190.417 10.875 190.203 10.2344C189.995 9.59375 189.891 8.85156 189.891 8.00781C189.891 7.16927 190.008 6.41927 190.242 5.75781C190.477 5.09115 190.805 4.52865 191.227 4.07031C191.654 3.60677 192.164 3.25521 192.758 3.01562C193.357 2.77083 194.016 2.64844 194.734 2.64844C195.193 2.64844 195.628 2.6901 196.039 2.77344C196.456 2.85156 196.854 2.97917 197.234 3.15625V4.53906ZM206.297 3.97656H203.273V13H201.867V3.97656H198.844V2.78906H206.297V3.97656Z" fill="#247F8F"/>
<path d="M483.859 37.5391C483.479 37.3359 483.089 37.1797 482.688 37.0703C482.286 36.9557 481.849 36.8984 481.375 36.8984C480.833 36.8984 480.352 36.9948 479.93 37.1875C479.508 37.3802 479.151 37.6536 478.859 38.0078C478.573 38.3568 478.352 38.7786 478.195 39.2734C478.044 39.7682 477.969 40.3151 477.969 40.9141C477.969 41.5391 478.031 42.099 478.156 42.5938C478.281 43.0885 478.477 43.5078 478.742 43.8516C479.008 44.1953 479.346 44.4583 479.758 44.6406C480.174 44.8229 480.672 44.9141 481.25 44.9141C481.349 44.9141 481.456 44.9089 481.57 44.8984C481.685 44.888 481.799 44.875 481.914 44.8594C482.029 44.8385 482.138 44.8151 482.242 44.7891C482.352 44.763 482.448 44.7344 482.531 44.7031V41.4531H480.445V40.3047H483.906V45.5234C483.693 45.6224 483.466 45.7109 483.227 45.7891C482.992 45.8672 482.75 45.9323 482.5 45.9844C482.255 46.0365 482.01 46.0755 481.766 46.1016C481.521 46.1276 481.284 46.1406 481.055 46.1406C480.357 46.1406 479.727 46.0312 479.164 45.8125C478.607 45.5938 478.13 45.2708 477.734 44.8438C477.344 44.4115 477.042 43.875 476.828 43.2344C476.62 42.5938 476.516 41.8516 476.516 41.0078C476.516 40.1693 476.633 39.4193 476.867 38.7578C477.102 38.0911 477.43 37.5286 477.852 37.0703C478.279 36.6068 478.789 36.2552 479.383 36.0156C479.982 35.7708 480.641 35.6484 481.359 35.6484C481.818 35.6484 482.253 35.6901 482.664 35.7734C483.081 35.8516 483.479 35.9792 483.859 36.1562V37.5391ZM492.922 36.9766H489.898V46H488.492V36.9766H485.469V35.7891H492.922V36.9766ZM501.367 45.6172C500.549 45.9557 499.693 46.125 498.797 46.125C497.354 46.125 496.245 45.6953 495.469 44.8359C494.698 43.9714 494.312 42.6953 494.312 41.0078C494.312 40.1901 494.419 39.4505 494.633 38.7891C494.846 38.1276 495.151 37.5677 495.547 37.1094C495.943 36.6458 496.422 36.2891 496.984 36.0391C497.547 35.7891 498.177 35.6641 498.875 35.6641C499.349 35.6641 499.789 35.7057 500.195 35.7891C500.602 35.8672 500.992 35.9896 501.367 36.1562V37.5234C500.997 37.3203 500.615 37.1667 500.219 37.0625C499.823 36.9531 499.391 36.8984 498.922 36.8984C498.443 36.8984 498.008 36.9896 497.617 37.1719C497.232 37.349 496.904 37.6094 496.633 37.9531C496.362 38.2917 496.154 38.7083 496.008 39.2031C495.862 39.6927 495.789 40.2526 495.789 40.8828C495.789 42.2057 496.057 43.2031 496.594 43.875C497.13 44.5469 497.917 44.8828 498.953 44.8828C499.391 44.8828 499.81 44.8333 500.211 44.7344C500.612 44.6302 500.997 44.487 501.367 44.3047V45.6172ZM511.109 46H509.594L508.883 43.7734H504.633L503.914 46H502.469L505.859 35.7891H507.766L511.109 46ZM508.484 42.5312L506.758 37.0703L505.031 42.5312H508.484ZM519.047 37.5391C518.667 37.3359 518.276 37.1797 517.875 37.0703C517.474 36.9557 517.036 36.8984 516.562 36.8984C516.021 36.8984 515.539 36.9948 515.117 37.1875C514.695 37.3802 514.339 37.6536 514.047 38.0078C513.76 38.3568 513.539 38.7786 513.383 39.2734C513.232 39.7682 513.156 40.3151 513.156 40.9141C513.156 41.5391 513.219 42.099 513.344 42.5938C513.469 43.0885 513.664 43.5078 513.93 43.8516C514.195 44.1953 514.534 44.4583 514.945 44.6406C515.362 44.8229 515.859 44.9141 516.438 44.9141C516.536 44.9141 516.643 44.9089 516.758 44.8984C516.872 44.888 516.987 44.875 517.102 44.8594C517.216 44.8385 517.326 44.8151 517.43 44.7891C517.539 44.763 517.635 44.7344 517.719 44.7031V41.4531H515.633V40.3047H519.094V45.5234C518.88 45.6224 518.654 45.7109 518.414 45.7891C518.18 45.8672 517.938 45.9323 517.688 45.9844C517.443 46.0365 517.198 46.0755 516.953 46.1016C516.708 46.1276 516.471 46.1406 516.242 46.1406C515.544 46.1406 514.914 46.0312 514.352 45.8125C513.794 45.5938 513.318 45.2708 512.922 44.8438C512.531 44.4115 512.229 43.875 512.016 43.2344C511.807 42.5938 511.703 41.8516 511.703 41.0078C511.703 40.1693 511.82 39.4193 512.055 38.7578C512.289 38.0911 512.617 37.5286 513.039 37.0703C513.466 36.6068 513.977 36.2552 514.57 36.0156C515.169 35.7708 515.828 35.6484 516.547 35.6484C517.005 35.6484 517.44 35.6901 517.852 35.7734C518.268 35.8516 518.667 35.9792 519.047 36.1562V37.5391ZM527.844 37.5391C527.464 37.3359 527.073 37.1797 526.672 37.0703C526.271 36.9557 525.833 36.8984 525.359 36.8984C524.818 36.8984 524.336 36.9948 523.914 37.1875C523.492 37.3802 523.135 37.6536 522.844 38.0078C522.557 38.3568 522.336 38.7786 522.18 39.2734C522.029 39.7682 521.953 40.3151 521.953 40.9141C521.953 41.5391 522.016 42.099 522.141 42.5938C522.266 43.0885 522.461 43.5078 522.727 43.8516C522.992 44.1953 523.331 44.4583 523.742 44.6406C524.159 44.8229 524.656 44.9141 525.234 44.9141C525.333 44.9141 525.44 44.9089 525.555 44.8984C525.669 44.888 525.784 44.875 525.898 44.8594C526.013 44.8385 526.122 44.8151 526.227 44.7891C526.336 44.763 526.432 44.7344 526.516 44.7031V41.4531H524.43V40.3047H527.891V45.5234C527.677 45.6224 527.451 45.7109 527.211 45.7891C526.977 45.8672 526.734 45.9323 526.484 45.9844C526.24 46.0365 525.995 46.0755 525.75 46.1016C525.505 46.1276 525.268 46.1406 525.039 46.1406C524.341 46.1406 523.711 46.0312 523.148 45.8125C522.591 45.5938 522.115 45.2708 521.719 44.8438C521.328 44.4115 521.026 43.875 520.812 43.2344C520.604 42.5938 520.5 41.8516 520.5 41.0078C520.5 40.1693 520.617 39.4193 520.852 38.7578C521.086 38.0911 521.414 37.5286 521.836 37.0703C522.263 36.6068 522.773 36.2552 523.367 36.0156C523.966 35.7708 524.625 35.6484 525.344 35.6484C525.802 35.6484 526.237 35.6901 526.648 35.7734C527.065 35.8516 527.464 35.9792 527.844 36.1562V37.5391ZM536.906 36.9766H533.883V46H532.477V36.9766H529.453V35.7891H536.906V36.9766ZM545.703 36.9766H542.68V46H541.273V36.9766H538.25V35.7891H545.703V36.9766ZM555.094 46H553.578L552.867 43.7734H548.617L547.898 46H546.453L549.844 35.7891H551.75L555.094 46ZM552.469 42.5312L550.742 37.0703L549.016 42.5312H552.469ZM563.891 46H562.375L561.664 43.7734H557.414L556.695 46H555.25L558.641 35.7891H560.547L563.891 46ZM561.266 42.5312L559.539 37.0703L557.812 42.5312H561.266Z" fill="#247F8F"/>
<path d="M364.773 12.6172C363.956 12.9557 363.099 13.125 362.203 13.125C360.76 13.125 359.651 12.6953 358.875 11.8359C358.104 10.9714 357.719 9.69531 357.719 8.00781C357.719 7.1901 357.826 6.45052 358.039 5.78906C358.253 5.1276 358.557 4.56771 358.953 4.10938C359.349 3.64583 359.828 3.28906 360.391 3.03906C360.953 2.78906 361.583 2.66406 362.281 2.66406C362.755 2.66406 363.195 2.70573 363.602 2.78906C364.008 2.86719 364.398 2.98958 364.773 3.15625V4.52344C364.404 4.32031 364.021 4.16667 363.625 4.0625C363.229 3.95312 362.797 3.89844 362.328 3.89844C361.849 3.89844 361.414 3.98958 361.023 4.17188C360.638 4.34896 360.31 4.60938 360.039 4.95312C359.768 5.29167 359.56 5.70833 359.414 6.20312C359.268 6.69271 359.195 7.2526 359.195 7.88281C359.195 9.20573 359.464 10.2031 360 10.875C360.536 11.5469 361.323 11.8828 362.359 11.8828C362.797 11.8828 363.216 11.8333 363.617 11.7344C364.018 11.6302 364.404 11.487 364.773 11.3047V12.6172ZM374.516 13H373L372.289 10.7734H368.039L367.32 13H365.875L369.266 2.78906H371.172L374.516 13ZM371.891 9.53125L370.164 4.07031L368.438 9.53125H371.891ZM382.719 3.97656H379.695V13H378.289V3.97656H375.266V2.78906H382.719V3.97656ZM391.516 3.97656H388.492V13H387.086V3.97656H384.062V2.78906H391.516V3.97656ZM400.312 3.97656H397.289V13H395.883V3.97656H392.859V2.78906H400.312V3.97656ZM409.109 3.97656H406.086V13H404.68V3.97656H401.656V2.78906H409.109V3.97656ZM417.641 4.53906C417.26 4.33594 416.87 4.17969 416.469 4.07031C416.068 3.95573 415.63 3.89844 415.156 3.89844C414.615 3.89844 414.133 3.99479 413.711 4.1875C413.289 4.38021 412.932 4.65365 412.641 5.00781C412.354 5.35677 412.133 5.77865 411.977 6.27344C411.826 6.76823 411.75 7.3151 411.75 7.91406C411.75 8.53906 411.812 9.09896 411.938 9.59375C412.062 10.0885 412.258 10.5078 412.523 10.8516C412.789 11.1953 413.128 11.4583 413.539 11.6406C413.956 11.8229 414.453 11.9141 415.031 11.9141C415.13 11.9141 415.237 11.9089 415.352 11.8984C415.466 11.888 415.581 11.875 415.695 11.8594C415.81 11.8385 415.919 11.8151 416.023 11.7891C416.133 11.763 416.229 11.7344 416.312 11.7031V8.45312H414.227V7.30469H417.688V12.5234C417.474 12.6224 417.247 12.7109 417.008 12.7891C416.773 12.8672 416.531 12.9323 416.281 12.9844C416.036 13.0365 415.792 13.0755 415.547 13.1016C415.302 13.1276 415.065 13.1406 414.836 13.1406C414.138 13.1406 413.508 13.0312 412.945 12.8125C412.388 12.5938 411.911 12.2708 411.516 11.8438C411.125 11.4115 410.823 10.875 410.609 10.2344C410.401 9.59375 410.297 8.85156 410.297 8.00781C410.297 7.16927 410.414 6.41927 410.648 5.75781C410.883 5.09115 411.211 4.52865 411.633 4.07031C412.06 3.60677 412.57 3.25521 413.164 3.01562C413.763 2.77083 414.422 2.64844 415.141 2.64844C415.599 2.64844 416.034 2.6901 416.445 2.77344C416.862 2.85156 417.26 2.97917 417.641 3.15625V4.53906ZM426.703 3.97656H423.68V13H422.273V3.97656H419.25V2.78906H426.703V3.97656ZM435.148 12.6172C434.331 12.9557 433.474 13.125 432.578 13.125C431.135 13.125 430.026 12.6953 429.25 11.8359C428.479 10.9714 428.094 9.69531 428.094 8.00781C428.094 7.1901 428.201 6.45052 428.414 5.78906C428.628 5.1276 428.932 4.56771 429.328 4.10938C429.724 3.64583 430.203 3.28906 430.766 3.03906C431.328 2.78906 431.958 2.66406 432.656 2.66406C433.13 2.66406 433.57 2.70573 433.977 2.78906C434.383 2.86719 434.773 2.98958 435.148 3.15625V4.52344C434.779 4.32031 434.396 4.16667 434 4.0625C433.604 3.95312 433.172 3.89844 432.703 3.89844C432.224 3.89844 431.789 3.98958 431.398 4.17188C431.013 4.34896 430.685 4.60938 430.414 4.95312C430.143 5.29167 429.935 5.70833 429.789 6.20312C429.643 6.69271 429.57 7.2526 429.57 7.88281C429.57 9.20573 429.839 10.2031 430.375 10.875C430.911 11.5469 431.698 11.8828 432.734 11.8828C433.172 11.8828 433.591 11.8333 433.992 11.7344C434.393 11.6302 434.779 11.487 435.148 11.3047V12.6172ZM443.945 12.6172C443.128 12.9557 442.271 13.125 441.375 13.125C439.932 13.125 438.823 12.6953 438.047 11.8359C437.276 10.9714 436.891 9.69531 436.891 8.00781C436.891 7.1901 436.997 6.45052 437.211 5.78906C437.424 5.1276 437.729 4.56771 438.125 4.10938C438.521 3.64583 439 3.28906 439.562 3.03906C440.125 2.78906 440.755 2.66406 441.453 2.66406C441.927 2.66406 442.367 2.70573 442.773 2.78906C443.18 2.86719 443.57 2.98958 443.945 3.15625V4.52344C443.576 4.32031 443.193 4.16667 442.797 4.0625C442.401 3.95312 441.969 3.89844 441.5 3.89844C441.021 3.89844 440.586 3.98958 440.195 4.17188C439.81 4.34896 439.482 4.60938 439.211 4.95312C438.94 5.29167 438.732 5.70833 438.586 6.20312C438.44 6.69271 438.367 7.2526 438.367 7.88281C438.367 9.20573 438.635 10.2031 439.172 10.875C439.708 11.5469 440.495 11.8828 441.531 11.8828C441.969 11.8828 442.388 11.8333 442.789 11.7344C443.19 11.6302 443.576 11.487 443.945 11.3047V12.6172Z" fill="#247F8F"/>
<path d="M126.859 37.5391C126.479 37.3359 126.089 37.1797 125.688 37.0703C125.286 36.9557 124.849 36.8984 124.375 36.8984C123.833 36.8984 123.352 36.9948 122.93 37.1875C122.508 37.3802 122.151 37.6536 121.859 38.0078C121.573 38.3568 121.352 38.7786 121.195 39.2734C121.044 39.7682 120.969 40.3151 120.969 40.9141C120.969 41.5391 121.031 42.099 121.156 42.5938C121.281 43.0885 121.477 43.5078 121.742 43.8516C122.008 44.1953 122.346 44.4583 122.758 44.6406C123.174 44.8229 123.672 44.9141 124.25 44.9141C124.349 44.9141 124.456 44.9089 124.57 44.8984C124.685 44.888 124.799 44.875 124.914 44.8594C125.029 44.8385 125.138 44.8151 125.242 44.7891C125.352 44.763 125.448 44.7344 125.531 44.7031V41.4531H123.445V40.3047H126.906V45.5234C126.693 45.6224 126.466 45.7109 126.227 45.7891C125.992 45.8672 125.75 45.9323 125.5 45.9844C125.255 46.0365 125.01 46.0755 124.766 46.1016C124.521 46.1276 124.284 46.1406 124.055 46.1406C123.357 46.1406 122.727 46.0312 122.164 45.8125C121.607 45.5938 121.13 45.2708 120.734 44.8438C120.344 44.4115 120.042 43.875 119.828 43.2344C119.62 42.5938 119.516 41.8516 119.516 41.0078C119.516 40.1693 119.633 39.4193 119.867 38.7578C120.102 38.0911 120.43 37.5286 120.852 37.0703C121.279 36.6068 121.789 36.2552 122.383 36.0156C122.982 35.7708 123.641 35.6484 124.359 35.6484C124.818 35.6484 125.253 35.6901 125.664 35.7734C126.081 35.8516 126.479 35.9792 126.859 36.1562V37.5391ZM136.516 46H135L134.289 43.7734H130.039L129.32 46H127.875L131.266 35.7891H133.172L136.516 46ZM133.891 42.5312L132.164 37.0703L130.438 42.5312H133.891ZM145.312 46H143.797L143.086 43.7734H138.836L138.117 46H136.672L140.062 35.7891H141.969L145.312 46ZM142.688 42.5312L140.961 37.0703L139.234 42.5312H142.688ZM153.164 45.6172C152.346 45.9557 151.49 46.125 150.594 46.125C149.151 46.125 148.042 45.6953 147.266 44.8359C146.495 43.9714 146.109 42.6953 146.109 41.0078C146.109 40.1901 146.216 39.4505 146.43 38.7891C146.643 38.1276 146.948 37.5677 147.344 37.1094C147.74 36.6458 148.219 36.2891 148.781 36.0391C149.344 35.7891 149.974 35.6641 150.672 35.6641C151.146 35.6641 151.586 35.7057 151.992 35.7891C152.398 35.8672 152.789 35.9896 153.164 36.1562V37.5234C152.794 37.3203 152.411 37.1667 152.016 37.0625C151.62 36.9531 151.188 36.8984 150.719 36.8984C150.24 36.8984 149.805 36.9896 149.414 37.1719C149.029 37.349 148.701 37.6094 148.43 37.9531C148.159 38.2917 147.951 38.7083 147.805 39.2031C147.659 39.6927 147.586 40.2526 147.586 40.8828C147.586 42.2057 147.854 43.2031 148.391 43.875C148.927 44.5469 149.714 44.8828 150.75 44.8828C151.188 44.8828 151.607 44.8333 152.008 44.7344C152.409 44.6302 152.794 44.487 153.164 44.3047V45.6172ZM162.312 36.9766H159.289V46H157.883V36.9766H154.859V35.7891H162.312V36.9766ZM170.844 37.5391C170.464 37.3359 170.073 37.1797 169.672 37.0703C169.271 36.9557 168.833 36.8984 168.359 36.8984C167.818 36.8984 167.336 36.9948 166.914 37.1875C166.492 37.3802 166.135 37.6536 165.844 38.0078C165.557 38.3568 165.336 38.7786 165.18 39.2734C165.029 39.7682 164.953 40.3151 164.953 40.9141C164.953 41.5391 165.016 42.099 165.141 42.5938C165.266 43.0885 165.461 43.5078 165.727 43.8516C165.992 44.1953 166.331 44.4583 166.742 44.6406C167.159 44.8229 167.656 44.9141 168.234 44.9141C168.333 44.9141 168.44 44.9089 168.555 44.8984C168.669 44.888 168.784 44.875 168.898 44.8594C169.013 44.8385 169.122 44.8151 169.227 44.7891C169.336 44.763 169.432 44.7344 169.516 44.7031V41.4531H167.43V40.3047H170.891V45.5234C170.677 45.6224 170.451 45.7109 170.211 45.7891C169.977 45.8672 169.734 45.9323 169.484 45.9844C169.24 46.0365 168.995 46.0755 168.75 46.1016C168.505 46.1276 168.268 46.1406 168.039 46.1406C167.341 46.1406 166.711 46.0312 166.148 45.8125C165.591 45.5938 165.115 45.2708 164.719 44.8438C164.328 44.4115 164.026 43.875 163.812 43.2344C163.604 42.5938 163.5 41.8516 163.5 41.0078C163.5 40.1693 163.617 39.4193 163.852 38.7578C164.086 38.0911 164.414 37.5286 164.836 37.0703C165.263 36.6068 165.773 36.2552 166.367 36.0156C166.966 35.7708 167.625 35.6484 168.344 35.6484C168.802 35.6484 169.237 35.6901 169.648 35.7734C170.065 35.8516 170.464 35.9792 170.844 36.1562V37.5391ZM180.5 46H178.984L178.273 43.7734H174.023L173.305 46H171.859L175.25 35.7891H177.156L180.5 46ZM177.875 42.5312L176.148 37.0703L174.422 42.5312H177.875ZM188.703 36.9766H185.68V46H184.273V36.9766H181.25V35.7891H188.703V36.9766ZM198.094 46H196.578L195.867 43.7734H191.617L190.898 46H189.453L192.844 35.7891H194.75L198.094 46ZM195.469 42.5312L193.742 37.0703L192.016 42.5312H195.469ZM205.945 45.6172C205.128 45.9557 204.271 46.125 203.375 46.125C201.932 46.125 200.823 45.6953 200.047 44.8359C199.276 43.9714 198.891 42.6953 198.891 41.0078C198.891 40.1901 198.997 39.4505 199.211 38.7891C199.424 38.1276 199.729 37.5677 200.125 37.1094C200.521 36.6458 201 36.2891 201.562 36.0391C202.125 35.7891 202.755 35.6641 203.453 35.6641C203.927 35.6641 204.367 35.7057 204.773 35.7891C205.18 35.8672 205.57 35.9896 205.945 36.1562V37.5234C205.576 37.3203 205.193 37.1667 204.797 37.0625C204.401 36.9531 203.969 36.8984 203.5 36.8984C203.021 36.8984 202.586 36.9896 202.195 37.1719C201.81 37.349 201.482 37.6094 201.211 37.9531C200.94 38.2917 200.732 38.7083 200.586 39.2031C200.44 39.6927 200.367 40.2526 200.367 40.8828C200.367 42.2057 200.635 43.2031 201.172 43.875C201.708 44.5469 202.495 44.8828 203.531 44.8828C203.969 44.8828 204.388 44.8333 204.789 44.7344C205.19 44.6302 205.576 44.487 205.945 44.3047V45.6172Z" fill="#247F8F"/>
<path d="M245.859 37.5391C245.479 37.3359 245.089 37.1797 244.688 37.0703C244.286 36.9557 243.849 36.8984 243.375 36.8984C242.833 36.8984 242.352 36.9948 241.93 37.1875C241.508 37.3802 241.151 37.6536 240.859 38.0078C240.573 38.3568 240.352 38.7786 240.195 39.2734C240.044 39.7682 239.969 40.3151 239.969 40.9141C239.969 41.5391 240.031 42.099 240.156 42.5938C240.281 43.0885 240.477 43.5078 240.742 43.8516C241.008 44.1953 241.346 44.4583 241.758 44.6406C242.174 44.8229 242.672 44.9141 243.25 44.9141C243.349 44.9141 243.456 44.9089 243.57 44.8984C243.685 44.888 243.799 44.875 243.914 44.8594C244.029 44.8385 244.138 44.8151 244.242 44.7891C244.352 44.763 244.448 44.7344 244.531 44.7031V41.4531H242.445V40.3047H245.906V45.5234C245.693 45.6224 245.466 45.7109 245.227 45.7891C244.992 45.8672 244.75 45.9323 244.5 45.9844C244.255 46.0365 244.01 46.0755 243.766 46.1016C243.521 46.1276 243.284 46.1406 243.055 46.1406C242.357 46.1406 241.727 46.0312 241.164 45.8125C240.607 45.5938 240.13 45.2708 239.734 44.8438C239.344 44.4115 239.042 43.875 238.828 43.2344C238.62 42.5938 238.516 41.8516 238.516 41.0078C238.516 40.1693 238.633 39.4193 238.867 38.7578C239.102 38.0911 239.43 37.5286 239.852 37.0703C240.279 36.6068 240.789 36.2552 241.383 36.0156C241.982 35.7708 242.641 35.6484 243.359 35.6484C243.818 35.6484 244.253 35.6901 244.664 35.7734C245.081 35.8516 245.479 35.9792 245.859 36.1562V37.5391ZM255.516 46H254L253.289 43.7734H249.039L248.32 46H246.875L250.266 35.7891H252.172L255.516 46ZM252.891 42.5312L251.164 37.0703L249.438 42.5312H252.891ZM263.453 37.5391C263.073 37.3359 262.682 37.1797 262.281 37.0703C261.88 36.9557 261.443 36.8984 260.969 36.8984C260.427 36.8984 259.945 36.9948 259.523 37.1875C259.102 37.3802 258.745 37.6536 258.453 38.0078C258.167 38.3568 257.945 38.7786 257.789 39.2734C257.638 39.7682 257.562 40.3151 257.562 40.9141C257.562 41.5391 257.625 42.099 257.75 42.5938C257.875 43.0885 258.07 43.5078 258.336 43.8516C258.602 44.1953 258.94 44.4583 259.352 44.6406C259.768 44.8229 260.266 44.9141 260.844 44.9141C260.943 44.9141 261.049 44.9089 261.164 44.8984C261.279 44.888 261.393 44.875 261.508 44.8594C261.622 44.8385 261.732 44.8151 261.836 44.7891C261.945 44.763 262.042 44.7344 262.125 44.7031V41.4531H260.039V40.3047H263.5V45.5234C263.286 45.6224 263.06 45.7109 262.82 45.7891C262.586 45.8672 262.344 45.9323 262.094 45.9844C261.849 46.0365 261.604 46.0755 261.359 46.1016C261.115 46.1276 260.878 46.1406 260.648 46.1406C259.951 46.1406 259.32 46.0312 258.758 45.8125C258.201 45.5938 257.724 45.2708 257.328 44.8438C256.938 44.4115 256.635 43.875 256.422 43.2344C256.214 42.5938 256.109 41.8516 256.109 41.0078C256.109 40.1693 256.227 39.4193 256.461 38.7578C256.695 38.0911 257.023 37.5286 257.445 37.0703C257.872 36.6068 258.383 36.2552 258.977 36.0156C259.576 35.7708 260.234 35.6484 260.953 35.6484C261.411 35.6484 261.846 35.6901 262.258 35.7734C262.674 35.8516 263.073 35.9792 263.453 36.1562V37.5391ZM272.516 36.9766H269.492V46H268.086V36.9766H265.062V35.7891H272.516V36.9766ZM281.047 37.5391C280.667 37.3359 280.276 37.1797 279.875 37.0703C279.474 36.9557 279.036 36.8984 278.562 36.8984C278.021 36.8984 277.539 36.9948 277.117 37.1875C276.695 37.3802 276.339 37.6536 276.047 38.0078C275.76 38.3568 275.539 38.7786 275.383 39.2734C275.232 39.7682 275.156 40.3151 275.156 40.9141C275.156 41.5391 275.219 42.099 275.344 42.5938C275.469 43.0885 275.664 43.5078 275.93 43.8516C276.195 44.1953 276.534 44.4583 276.945 44.6406C277.362 44.8229 277.859 44.9141 278.438 44.9141C278.536 44.9141 278.643 44.9089 278.758 44.8984C278.872 44.888 278.987 44.875 279.102 44.8594C279.216 44.8385 279.326 44.8151 279.43 44.7891C279.539 44.763 279.635 44.7344 279.719 44.7031V41.4531H277.633V40.3047H281.094V45.5234C280.88 45.6224 280.654 45.7109 280.414 45.7891C280.18 45.8672 279.938 45.9323 279.688 45.9844C279.443 46.0365 279.198 46.0755 278.953 46.1016C278.708 46.1276 278.471 46.1406 278.242 46.1406C277.544 46.1406 276.914 46.0312 276.352 45.8125C275.794 45.5938 275.318 45.2708 274.922 44.8438C274.531 44.4115 274.229 43.875 274.016 43.2344C273.807 42.5938 273.703 41.8516 273.703 41.0078C273.703 40.1693 273.82 39.4193 274.055 38.7578C274.289 38.0911 274.617 37.5286 275.039 37.0703C275.466 36.6068 275.977 36.2552 276.57 36.0156C277.169 35.7708 277.828 35.6484 278.547 35.6484C279.005 35.6484 279.44 35.6901 279.852 35.7734C280.268 35.8516 280.667 35.9792 281.047 36.1562V37.5391ZM290.703 46H289.188L288.477 43.7734H284.227L283.508 46H282.062L285.453 35.7891H287.359L290.703 46ZM288.078 42.5312L286.352 37.0703L284.625 42.5312H288.078ZM299.5 46H297.984L297.273 43.7734H293.023L292.305 46H290.859L294.25 35.7891H296.156L299.5 46ZM296.875 42.5312L295.148 37.0703L293.422 42.5312H296.875ZM307.703 36.9766H304.68V46H303.273V36.9766H300.25V35.7891H307.703V36.9766ZM317.094 46H315.578L314.867 43.7734H310.617L309.898 46H308.453L311.844 35.7891H313.75L317.094 46ZM314.469 42.5312L312.742 37.0703L311.016 42.5312H314.469ZM325.297 36.9766H322.273V46H320.867V36.9766H317.844V35.7891H325.297V36.9766Z" fill="#247F8F"/>
</svg>
