<svg width="738" height="273" viewBox="0 0 738 273" fill="none" xmlns="http://www.w3.org/2000/svg">
<g filter="url(#filter0_d)">
<rect x="4" width="730" height="256" fill="#C4C4C4"/>
<rect x="4" width="730" height="256" fill="url(#paint0_linear)"/>
<rect x="4.1" y="0.1" width="729.8" height="255.8" stroke="black" stroke-width="0.2"/>
</g>
<path d="M22.1016 28.9062C23.1328 28.9062 23.8828 28.7422 24.3516 28.4141C24.8203 28.0807 25.0547 27.4245 25.0547 26.4453V22.3594C25.0547 21.3802 24.8177 20.7083 24.3438 20.3438C23.875 19.9792 23.1302 19.7969 22.1094 19.7969C20.526 19.7969 19.5651 20.2344 19.2266 21.1094C19.0964 21.4427 19.0312 21.8594 19.0312 22.3594V26.4453C19.0312 27.4193 19.2865 28.0729 19.7969 28.4062C20.3073 28.7396 21.0755 28.9062 22.1016 28.9062ZM19.2109 29.6562C18.5286 29.3125 18.0651 28.8516 17.8203 28.2734C17.5755 27.6953 17.4531 27.0052 17.4531 26.2031V22.6484C17.4531 21.0286 17.9115 19.9062 18.8281 19.2812C19.5677 18.7812 20.6615 18.5312 22.1094 18.5312C24.6719 18.5312 26.138 19.4844 26.5078 21.3906C26.5859 21.7917 26.625 22.2448 26.625 22.75V26.0938C26.625 27.6667 26.1745 28.7708 25.2734 29.4062C24.5495 29.9167 23.5286 30.1719 22.2109 30.1719C20.8932 30.1719 19.8932 30 19.2109 29.6562ZM33.2344 17.2578L31.6328 15.1797H32.8438L33.8125 16.5391L34.8438 15.1797H36.1016L34.4062 17.2578H33.2344ZM31.1641 29.6641C30.5026 29.3203 30.0599 28.862 29.8359 28.2891C29.612 27.7109 29.5 27.0156 29.5 26.2031V22.6562C29.5 21.0104 29.9271 19.888 30.7812 19.2891C31.5052 18.7839 32.5573 18.5312 33.9375 18.5312C35.3229 18.5312 36.3281 18.724 36.9531 19.1094C37.5781 19.4896 37.9688 20.0885 38.125 20.9062C38.1979 21.2708 38.2344 21.7057 38.2344 22.2109L36.7422 22.3438C36.7422 21.5833 36.6771 21.0703 36.5469 20.8047C36.4167 20.5339 36.2865 20.3411 36.1562 20.2266C36.0312 20.112 35.8229 20.013 35.5312 19.9297C35.2396 19.8411 34.7839 19.7969 34.1641 19.7969C33.5443 19.7969 33.0573 19.8385 32.7031 19.9219C32.349 20 32.0469 20.1354 31.7969 20.3281C31.3177 20.6979 31.0781 21.3776 31.0781 22.3672V26.4453C31.0781 27.4245 31.3203 28.0807 31.8047 28.4141C32.2891 28.7422 33.0599 28.9062 34.1172 28.9062C35.1797 28.9062 35.8568 28.7812 36.1484 28.5312C36.4401 28.2812 36.6198 27.9167 36.6875 27.4375C36.724 27.1771 36.7422 26.8646 36.7422 26.5H38.2344C38.2344 27.6354 38.0703 28.4323 37.7422 28.8906C37.138 29.7448 35.9896 30.1719 34.2969 30.1719C32.875 30.1719 31.8307 30.0026 31.1641 29.6641ZM40.9375 30V28.8281H43.0938V19.8672H40.9375V18.7031H46.8125V19.8672H44.6641V28.8281H46.8125V30H40.9375ZM52.2109 30V19.9922H48.9531V18.7031H57.0469V19.9922H53.7812V30H52.2109ZM58.1875 30L62.3984 18.7031H63.7812L68 30H66.3984L65.6328 27.7969H60.5938L59.8203 30H58.1875ZM60.9688 26.6797H65.2734L63.1328 20.5L60.9688 26.6797ZM72.3438 30L68.3125 18.7031H69.9297L73.0469 27.7031L76.1641 18.7031H77.7969L73.7266 30H72.3438ZM78.8594 30L83.0703 18.7031H84.4531L88.6719 30H87.0703L86.3047 27.7969H81.2656L80.4922 30H78.8594ZM81.6406 26.6797H85.9453L83.8047 20.5L81.6406 26.6797ZM91.0469 30V18.7031H92.2422L98.7109 27.7344V18.7031H100.094V30H98.6953L92.4297 21.375V30H91.0469ZM105.875 30.1328C105.276 30.1328 104.654 30.0599 104.008 29.9141C103.362 29.763 102.891 29.6094 102.594 29.4531L103.023 28.2422C103.289 28.3672 103.698 28.5 104.25 28.6406C104.802 28.776 105.328 28.8438 105.828 28.8438C106.562 28.8438 107.099 28.6562 107.438 28.2812C107.776 27.9062 107.945 27.3464 107.945 26.6016V19.9922H103.625V18.7031H109.516V26.6328C109.516 27.7422 109.216 28.6042 108.617 29.2188C108.023 29.8281 107.109 30.1328 105.875 30.1328ZM111.891 30L116.102 18.7031H117.484L121.703 30H120.102L119.336 27.7969H114.297L113.523 30H111.891ZM114.672 26.6797H118.977L116.836 20.5L114.672 26.6797ZM124.375 23.6094V21.7188H126.375V23.6094H124.375ZM124.375 29.2266V27.3359H126.375V29.2266H124.375Z" fill="black"/>
<path d="M22.1562 205.172C20.0521 205.172 18.6745 204.651 18.0234 203.609C17.6432 203 17.4531 202.198 17.4531 201.203V197.656C17.4531 196.047 17.9219 194.924 18.8594 194.289C19.6042 193.784 20.651 193.531 22 193.531C23.349 193.531 24.3359 193.685 24.9609 193.992C25.5911 194.294 26.0052 194.701 26.2031 195.211C26.401 195.716 26.5 196.333 26.5 197.062L25.0625 197.18C25.0625 196.445 24.9896 195.956 24.8438 195.711C24.7031 195.461 24.5651 195.284 24.4297 195.18C24.2995 195.076 24.0755 194.987 23.7578 194.914C23.4453 194.836 22.9688 194.797 22.3281 194.797C21.6927 194.797 21.1927 194.839 20.8281 194.922C20.4635 195 20.1406 195.135 19.8594 195.328C19.3073 195.708 19.0312 196.388 19.0312 197.367V201.445C19.0312 202.424 19.2943 203.081 19.8203 203.414C20.3464 203.742 21.1198 203.906 22.1406 203.906C23.1667 203.906 23.9062 203.745 24.3594 203.422C24.8177 203.094 25.0469 202.435 25.0469 201.445V200.406H22.3672V199.258H26.625V205H25.7656L25.5703 203.078C25.4714 203.729 25.1432 204.242 24.5859 204.617C24.0339 204.987 23.224 205.172 22.1562 205.172ZM29.8594 205V193.703H36.9141V194.875H31.4297V198.594H36.2734V199.766H31.4297V203.828H37.0078V205H29.8594ZM39.6719 205V193.703H40.8672L47.3359 202.734V193.703H48.7188V205H47.3203L41.0547 196.375V205H39.6719ZM56.5234 203.906C57.5547 203.906 58.3047 203.742 58.7734 203.414C59.2422 203.081 59.4766 202.424 59.4766 201.445V197.359C59.4766 196.38 59.2396 195.708 58.7656 195.344C58.2969 194.979 57.5521 194.797 56.5312 194.797C54.9479 194.797 53.987 195.234 53.6484 196.109C53.5182 196.443 53.4531 196.859 53.4531 197.359V201.445C53.4531 202.419 53.7083 203.073 54.2188 203.406C54.7292 203.74 55.4974 203.906 56.5234 203.906ZM53.6328 204.656C52.9505 204.312 52.487 203.852 52.2422 203.273C51.9974 202.695 51.875 202.005 51.875 201.203V197.648C51.875 196.029 52.3333 194.906 53.25 194.281C53.9896 193.781 55.0833 193.531 56.5312 193.531C59.0938 193.531 60.5599 194.484 60.9297 196.391C61.0078 196.792 61.0469 197.245 61.0469 197.75V201.094C61.0469 202.667 60.5964 203.771 59.6953 204.406C58.9714 204.917 57.9505 205.172 56.6328 205.172C55.3151 205.172 54.3151 205 53.6328 204.656ZM64.2031 205V193.703H65.6484L69.4531 200.016L73.2969 193.703H74.6875V205H73.2031V196.242L70.0391 201.422H68.875L65.7031 196.273V205H64.2031ZM78.3906 198.609V196.719H80.3906V198.609H78.3906ZM78.3906 204.227V202.336H80.3906V204.227H78.3906Z" fill="black"/>
<path d="M710.055 240.29C710.055 240.055 710.123 239.86 710.26 239.704C710.401 239.547 710.611 239.469 710.89 239.469C711.168 239.469 711.378 239.547 711.52 239.704C711.666 239.86 711.739 240.055 711.739 240.29C711.739 240.514 711.666 240.702 711.52 240.854C711.378 241.005 711.168 241.081 710.89 241.081C710.611 241.081 710.401 241.005 710.26 240.854C710.123 240.702 710.055 240.514 710.055 240.29ZM714.01 240.29C714.01 240.055 714.078 239.86 714.215 239.704C714.356 239.547 714.566 239.469 714.845 239.469C715.123 239.469 715.333 239.547 715.475 239.704C715.621 239.86 715.694 240.055 715.694 240.29C715.694 240.514 715.621 240.702 715.475 240.854C715.333 241.005 715.123 241.081 714.845 241.081C714.566 241.081 714.356 241.005 714.215 240.854C714.078 240.702 714.01 240.514 714.01 240.29ZM717.965 240.29C717.965 240.055 718.033 239.86 718.17 239.704C718.312 239.547 718.521 239.469 718.8 239.469C719.078 239.469 719.288 239.547 719.43 239.704C719.576 239.86 719.649 240.055 719.649 240.29C719.649 240.514 719.576 240.702 719.43 240.854C719.288 241.005 719.078 241.081 718.8 241.081C718.521 241.081 718.312 241.005 718.17 240.854C718.033 240.702 717.965 240.514 717.965 240.29Z" fill="black"/>
<path d="M5.05469 240.29C5.05469 240.055 5.12305 239.86 5.25977 239.704C5.40137 239.547 5.61133 239.469 5.88965 239.469C6.16797 239.469 6.37793 239.547 6.51953 239.704C6.66602 239.86 6.73926 240.055 6.73926 240.29C6.73926 240.514 6.66602 240.702 6.51953 240.854C6.37793 241.005 6.16797 241.081 5.88965 241.081C5.61133 241.081 5.40137 241.005 5.25977 240.854C5.12305 240.702 5.05469 240.514 5.05469 240.29ZM9.00977 240.29C9.00977 240.055 9.07812 239.86 9.21484 239.704C9.35645 239.547 9.56641 239.469 9.84473 239.469C10.123 239.469 10.333 239.547 10.4746 239.704C10.6211 239.86 10.6943 240.055 10.6943 240.29C10.6943 240.514 10.6211 240.702 10.4746 240.854C10.333 241.005 10.123 241.081 9.84473 241.081C9.56641 241.081 9.35645 241.005 9.21484 240.854C9.07812 240.702 9.00977 240.514 9.00977 240.29ZM12.9648 240.29C12.9648 240.055 13.0332 239.86 13.1699 239.704C13.3115 239.547 13.5215 239.469 13.7998 239.469C14.0781 239.469 14.2881 239.547 14.4297 239.704C14.5762 239.86 14.6494 240.055 14.6494 240.29C14.6494 240.514 14.5762 240.702 14.4297 240.854C14.2881 241.005 14.0781 241.081 13.7998 241.081C13.5215 241.081 13.3115 241.005 13.1699 240.854C13.0332 240.702 12.9648 240.514 12.9648 240.29Z" fill="black"/>
<path d="M68 54H190" stroke="#247F8F" stroke-width="10"/>
<path d="M68 78H190" stroke="#247F8F" stroke-width="10"/>
<path d="M68 102H190" stroke="#247F8F" stroke-width="10"/>
<path d="M68 128H190" stroke="#247F8F" stroke-width="10"/>
<path d="M68 153H190" stroke="#247F8F" stroke-width="10"/>
<path d="M215 54H337" stroke="#247F8F" stroke-width="10"/>
<path d="M215 78H337" stroke="#247F8F" stroke-width="10"/>
<path d="M215 102H337" stroke="#247F8F" stroke-width="10"/>
<path d="M215 128H337" stroke="#247F8F" stroke-width="10"/>
<path d="M215 153H337" stroke="#247F8F" stroke-width="10"/>
<path d="M362 54H484" stroke="#247F8F" stroke-width="10"/>
<path d="M362 78H484" stroke="#247F8F" stroke-width="10"/>
<path d="M362 102H484" stroke="#247F8F" stroke-width="10"/>
<path d="M362 128H484" stroke="#247F8F" stroke-width="10"/>
<path d="M362 153H484" stroke="#247F8F" stroke-width="10"/>
<path d="M509 54H631" stroke="#247F8F" stroke-width="10"/>
<path d="M509 78H631" stroke="#247F8F" stroke-width="10"/>
<path d="M509 102H631" stroke="#247F8F" stroke-width="10"/>
<path d="M509 128H631" stroke="#247F8F" stroke-width="10"/>
<path d="M509 153H631" stroke="#247F8F" stroke-width="10"/>
<g filter="url(#filter1_f)">
<line x1="4" y1="240" x2="734" y2="240" stroke="black" stroke-width="10"/>
</g>
<path d="M412.56 176H411.651V169.979L409.83 170.648V169.828L412.418 168.856H412.56V176ZM419.664 172.968C419.664 174.026 419.483 174.812 419.122 175.326C418.761 175.84 418.196 176.098 417.428 176.098C416.669 176.098 416.108 175.847 415.743 175.346C415.379 174.841 415.19 174.089 415.177 173.09V171.884C415.177 170.839 415.357 170.062 415.719 169.555C416.08 169.047 416.646 168.793 417.418 168.793C418.183 168.793 418.746 169.039 419.107 169.53C419.469 170.019 419.654 170.774 419.664 171.796V172.968ZM418.761 171.732C418.761 170.967 418.653 170.411 418.438 170.062C418.224 169.711 417.883 169.535 417.418 169.535C416.956 169.535 416.619 169.709 416.407 170.058C416.196 170.406 416.087 170.941 416.08 171.664V173.109C416.08 173.878 416.191 174.446 416.412 174.813C416.637 175.178 416.975 175.36 417.428 175.36C417.874 175.36 418.204 175.188 418.419 174.843C418.637 174.498 418.751 173.954 418.761 173.212V171.732ZM425.279 172.968C425.279 174.026 425.099 174.812 424.737 175.326C424.376 175.84 423.811 176.098 423.043 176.098C422.285 176.098 421.723 175.847 421.358 175.346C420.994 174.841 420.805 174.089 420.792 173.09V171.884C420.792 170.839 420.973 170.062 421.334 169.555C421.695 169.047 422.262 168.793 423.033 168.793C423.798 168.793 424.361 169.039 424.723 169.53C425.084 170.019 425.27 170.774 425.279 171.796V172.968ZM424.376 171.732C424.376 170.967 424.269 170.411 424.054 170.062C423.839 169.711 423.499 169.535 423.033 169.535C422.571 169.535 422.234 169.709 422.022 170.058C421.811 170.406 421.702 170.941 421.695 171.664V173.109C421.695 173.878 421.806 174.446 422.027 174.813C422.252 175.178 422.59 175.36 423.043 175.36C423.489 175.36 423.819 175.188 424.034 174.843C424.252 174.498 424.366 173.954 424.376 173.212V171.732ZM429.864 170.717L429.894 171.381C430.297 170.873 430.825 170.619 431.476 170.619C432.592 170.619 433.155 171.249 433.165 172.509V176H432.262V172.504C432.258 172.123 432.171 171.841 431.998 171.659C431.829 171.477 431.563 171.386 431.202 171.386C430.909 171.386 430.652 171.464 430.431 171.62C430.209 171.776 430.037 171.981 429.913 172.235V176H429.01V170.717H429.864ZM435.753 169.438V170.717H436.739V171.415H435.753V174.691C435.753 174.903 435.797 175.062 435.885 175.17C435.973 175.274 436.122 175.326 436.334 175.326C436.438 175.326 436.581 175.307 436.764 175.268V176C436.526 176.065 436.295 176.098 436.07 176.098C435.667 176.098 435.362 175.976 435.157 175.731C434.952 175.487 434.85 175.141 434.85 174.691V171.415H433.888V170.717H434.85V169.438H435.753Z" fill="#247F8F"/>
<path d="M484.354 173.354C484.549 173.158 484.549 172.842 484.354 172.646L481.172 169.464C480.976 169.269 480.66 169.269 480.464 169.464C480.269 169.66 480.269 169.976 480.464 170.172L483.293 173L480.464 175.828C480.269 176.024 480.269 176.34 480.464 176.536C480.66 176.731 480.976 176.731 481.172 176.536L484.354 173.354ZM446 173.5H484V172.5H446V173.5Z" fill="#247F8F"/>
<path d="M361.646 172.646C361.451 172.842 361.451 173.158 361.646 173.354L364.828 176.536C365.024 176.731 365.34 176.731 365.536 176.536C365.731 176.34 365.731 176.024 365.536 175.828L362.707 173L365.536 170.172C365.731 169.976 365.731 169.66 365.536 169.464C365.34 169.269 365.024 169.269 364.828 169.464L361.646 172.646ZM400 172.5H362V173.5H400V172.5Z" fill="#247F8F"/>
<path d="M319.339 225H317.977V215.969L315.245 216.973V215.742L319.127 214.285H319.339V225ZM329.996 220.452C329.996 222.039 329.725 223.218 329.183 223.989C328.641 224.761 327.794 225.146 326.642 225.146C325.504 225.146 324.662 224.771 324.115 224.019C323.568 223.262 323.285 222.134 323.265 220.635V218.826C323.265 217.258 323.536 216.094 324.078 215.332C324.62 214.57 325.47 214.189 326.627 214.189C327.774 214.189 328.619 214.558 329.161 215.295C329.703 216.028 329.981 217.161 329.996 218.694V220.452ZM328.641 218.599C328.641 217.451 328.48 216.616 328.158 216.094C327.835 215.566 327.325 215.303 326.627 215.303C325.934 215.303 325.428 215.564 325.111 216.086C324.793 216.609 324.63 217.412 324.62 218.496V220.664C324.62 221.816 324.786 222.668 325.118 223.22C325.455 223.767 325.963 224.041 326.642 224.041C327.311 224.041 327.806 223.782 328.128 223.264C328.456 222.747 328.626 221.931 328.641 220.818V218.599ZM338.419 220.452C338.419 222.039 338.148 223.218 337.606 223.989C337.064 224.761 336.217 225.146 335.064 225.146C333.927 225.146 333.084 224.771 332.538 224.019C331.991 223.262 331.708 222.134 331.688 220.635V218.826C331.688 217.258 331.959 216.094 332.501 215.332C333.043 214.57 333.893 214.189 335.05 214.189C336.197 214.189 337.042 214.558 337.584 215.295C338.126 216.028 338.404 217.161 338.419 218.694V220.452ZM337.064 218.599C337.064 217.451 336.903 216.616 336.581 216.094C336.258 215.566 335.748 215.303 335.05 215.303C334.356 215.303 333.851 215.564 333.534 216.086C333.216 216.609 333.053 217.412 333.043 218.496V220.664C333.043 221.816 333.209 222.668 333.541 223.22C333.878 223.767 334.386 224.041 335.064 224.041C335.733 224.041 336.229 223.782 336.551 223.264C336.878 222.747 337.049 221.931 337.064 220.818V218.599ZM340.25 227.124L339.481 226.597C339.94 225.957 340.179 225.298 340.199 224.619V223.396H341.524V224.458C341.524 224.951 341.402 225.444 341.158 225.938C340.919 226.431 340.616 226.826 340.25 227.124ZM349.786 220.452C349.786 222.039 349.515 223.218 348.973 223.989C348.431 224.761 347.584 225.146 346.432 225.146C345.294 225.146 344.452 224.771 343.905 224.019C343.358 223.262 343.075 222.134 343.055 220.635V218.826C343.055 217.258 343.326 216.094 343.868 215.332C344.41 214.57 345.26 214.189 346.417 214.189C347.564 214.189 348.409 214.558 348.951 215.295C349.493 216.028 349.771 217.161 349.786 218.694V220.452ZM348.431 218.599C348.431 217.451 348.27 216.616 347.948 216.094C347.625 215.566 347.115 215.303 346.417 215.303C345.724 215.303 345.218 215.564 344.901 216.086C344.583 216.609 344.42 217.412 344.41 218.496V220.664C344.41 221.816 344.576 222.668 344.908 223.22C345.245 223.767 345.753 224.041 346.432 224.041C347.101 224.041 347.596 223.782 347.918 223.264C348.246 222.747 348.417 221.931 348.431 220.818V218.599ZM358.209 220.452C358.209 222.039 357.938 223.218 357.396 223.989C356.854 224.761 356.007 225.146 354.854 225.146C353.717 225.146 352.875 224.771 352.328 224.019C351.781 223.262 351.498 222.134 351.478 220.635V218.826C351.478 217.258 351.749 216.094 352.291 215.332C352.833 214.57 353.683 214.189 354.84 214.189C355.987 214.189 356.832 214.558 357.374 215.295C357.916 216.028 358.194 217.161 358.209 218.694V220.452ZM356.854 218.599C356.854 217.451 356.693 216.616 356.371 216.094C356.048 215.566 355.538 215.303 354.84 215.303C354.146 215.303 353.641 215.564 353.324 216.086C353.006 216.609 352.843 217.412 352.833 218.496V220.664C352.833 221.816 352.999 222.668 353.331 223.22C353.668 223.767 354.176 224.041 354.854 224.041C355.523 224.041 356.019 223.782 356.341 223.264C356.668 222.747 356.839 221.931 356.854 220.818V218.599ZM366.632 220.452C366.632 222.039 366.361 223.218 365.819 223.989C365.277 224.761 364.43 225.146 363.277 225.146C362.14 225.146 361.297 224.771 360.75 224.019C360.204 223.262 359.92 222.134 359.901 220.635V218.826C359.901 217.258 360.172 216.094 360.714 215.332C361.256 214.57 362.105 214.189 363.263 214.189C364.41 214.189 365.255 214.558 365.797 215.295C366.339 216.028 366.617 217.161 366.632 218.694V220.452ZM365.277 218.599C365.277 217.451 365.116 216.616 364.793 216.094C364.471 215.566 363.961 215.303 363.263 215.303C362.569 215.303 362.064 215.564 361.747 216.086C361.429 216.609 361.266 217.412 361.256 218.496V220.664C361.256 221.816 361.422 222.668 361.754 223.22C362.091 223.767 362.599 224.041 363.277 224.041C363.946 224.041 364.442 223.782 364.764 223.264C365.091 222.747 365.262 221.931 365.277 220.818V218.599ZM368.463 227.124L367.694 226.597C368.153 225.957 368.392 225.298 368.412 224.619V223.396H369.737V224.458C369.737 224.951 369.615 225.444 369.371 225.938C369.132 226.431 368.829 226.826 368.463 227.124ZM377.999 220.452C377.999 222.039 377.728 223.218 377.186 223.989C376.644 224.761 375.797 225.146 374.645 225.146C373.507 225.146 372.665 224.771 372.118 224.019C371.571 223.262 371.288 222.134 371.268 220.635V218.826C371.268 217.258 371.539 216.094 372.081 215.332C372.623 214.57 373.473 214.189 374.63 214.189C375.777 214.189 376.622 214.558 377.164 215.295C377.706 216.028 377.984 217.161 377.999 218.694V220.452ZM376.644 218.599C376.644 217.451 376.483 216.616 376.161 216.094C375.838 215.566 375.328 215.303 374.63 215.303C373.937 215.303 373.431 215.564 373.114 216.086C372.796 216.609 372.633 217.412 372.623 218.496V220.664C372.623 221.816 372.789 222.668 373.121 223.22C373.458 223.767 373.966 224.041 374.645 224.041C375.313 224.041 375.809 223.782 376.131 223.264C376.458 222.747 376.629 221.931 376.644 220.818V218.599ZM386.422 220.452C386.422 222.039 386.151 223.218 385.609 223.989C385.067 224.761 384.22 225.146 383.067 225.146C381.93 225.146 381.087 224.771 380.541 224.019C379.994 223.262 379.71 222.134 379.691 220.635V218.826C379.691 217.258 379.962 216.094 380.504 215.332C381.046 214.57 381.896 214.189 383.053 214.189C384.2 214.189 385.045 214.558 385.587 215.295C386.129 216.028 386.407 217.161 386.422 218.694V220.452ZM385.067 218.599C385.067 217.451 384.906 216.616 384.583 216.094C384.261 215.566 383.751 215.303 383.053 215.303C382.359 215.303 381.854 215.564 381.537 216.086C381.219 216.609 381.056 217.412 381.046 218.496V220.664C381.046 221.816 381.212 222.668 381.544 223.22C381.881 223.767 382.389 224.041 383.067 224.041C383.736 224.041 384.232 223.782 384.554 223.264C384.881 222.747 385.052 221.931 385.067 220.818V218.599ZM394.845 220.452C394.845 222.039 394.574 223.218 394.032 223.989C393.49 224.761 392.643 225.146 391.49 225.146C390.353 225.146 389.51 224.771 388.963 224.019C388.417 223.262 388.133 222.134 388.114 220.635V218.826C388.114 217.258 388.385 216.094 388.927 215.332C389.469 214.57 390.318 214.189 391.476 214.189C392.623 214.189 393.468 214.558 394.01 215.295C394.552 216.028 394.83 217.161 394.845 218.694V220.452ZM393.49 218.599C393.49 217.451 393.329 216.616 393.006 216.094C392.684 215.566 392.174 215.303 391.476 215.303C390.782 215.303 390.277 215.564 389.959 216.086C389.642 216.609 389.479 217.412 389.469 218.496V220.664C389.469 221.816 389.635 222.668 389.967 223.22C390.304 223.767 390.812 224.041 391.49 224.041C392.159 224.041 392.655 223.782 392.977 223.264C393.304 222.747 393.475 221.931 393.49 220.818V218.599ZM401.722 217.075L401.766 218.071C402.372 217.31 403.163 216.929 404.139 216.929C405.814 216.929 406.659 217.874 406.673 219.763V225H405.318V219.756C405.313 219.185 405.182 218.762 404.923 218.489C404.669 218.215 404.271 218.079 403.729 218.079C403.29 218.079 402.904 218.196 402.572 218.43C402.24 218.665 401.981 218.972 401.795 219.353V225H400.44V217.075H401.722ZM410.555 215.156V217.075H412.035V218.123H410.555V223.037C410.555 223.354 410.621 223.594 410.753 223.755C410.885 223.911 411.109 223.989 411.427 223.989C411.583 223.989 411.798 223.96 412.071 223.901V225C411.715 225.098 411.368 225.146 411.031 225.146C410.426 225.146 409.969 224.963 409.662 224.597C409.354 224.231 409.2 223.711 409.2 223.037V218.123H407.757V217.075H409.2V215.156H410.555Z" fill="black"/>
<path d="M351.93 244.361C351.93 242.766 352.124 241.495 352.511 240.55C352.899 239.604 353.605 238.676 354.63 237.764C355.667 236.841 356.356 236.095 356.698 235.525C357.04 234.944 357.211 234.335 357.211 233.697C357.211 231.771 356.322 230.809 354.545 230.809C353.702 230.809 353.024 231.071 352.511 231.595C352.01 232.107 351.748 232.819 351.725 233.731H346.769C346.792 231.555 347.493 229.852 348.871 228.621C350.261 227.391 352.152 226.775 354.545 226.775C356.96 226.775 358.834 227.362 360.167 228.536C361.5 229.698 362.167 231.344 362.167 233.475C362.167 234.443 361.951 235.36 361.518 236.226C361.085 237.081 360.327 238.032 359.245 239.08L357.86 240.396C356.994 241.228 356.499 242.202 356.374 243.318L356.305 244.361H351.93ZM351.435 249.607C351.435 248.844 351.691 248.217 352.204 247.728C352.728 247.226 353.394 246.976 354.203 246.976C355.012 246.976 355.673 247.226 356.186 247.728C356.71 248.217 356.972 248.844 356.972 249.607C356.972 250.359 356.715 250.98 356.203 251.47C355.701 251.96 355.035 252.205 354.203 252.205C353.371 252.205 352.699 251.96 352.187 251.47C351.685 250.98 351.435 250.359 351.435 249.607Z" fill="#E30310"/>
<path d="M722.354 220.354C722.549 220.158 722.549 219.842 722.354 219.646L719.172 216.464C718.976 216.269 718.66 216.269 718.464 216.464C718.269 216.66 718.269 216.976 718.464 217.172L721.293 220L718.464 222.828C718.269 223.024 718.269 223.34 718.464 223.536C718.66 223.731 718.976 223.731 719.172 223.536L722.354 220.354ZM438 220.5H722V219.5H438V220.5Z" fill="black"/>
<path d="M15.6465 219.646C15.4512 219.842 15.4512 220.158 15.6465 220.354L18.8284 223.536C19.0237 223.731 19.3403 223.731 19.5355 223.536C19.7308 223.34 19.7308 223.024 19.5355 222.828L16.7071 220L19.5355 217.172C19.7308 216.976 19.7308 216.66 19.5355 216.464C19.3403 216.269 19.0237 216.269 18.8284 216.464L15.6465 219.646ZM300 219.5L16 219.5V220.5L300 220.5V219.5Z" fill="black"/>
<defs>
<filter id="filter0_d" x="0" y="0" width="738" height="264" filterUnits="userSpaceOnUse" color-interpolation-filters="sRGB">
<feFlood flood-opacity="0" result="BackgroundImageFix"/>
<feColorMatrix in="SourceAlpha" type="matrix" values="0 0 0 0 0 0 0 0 0 0 0 0 0 0 0 0 0 0 127 0"/>
<feOffset dy="4"/>
<feGaussianBlur stdDeviation="2"/>
<feColorMatrix type="matrix" values="0 0 0 0 0 0 0 0 0 0 0 0 0 0 0 0 0 0 0.25 0"/>
<feBlend mode="normal" in2="BackgroundImageFix" result="effect1_dropShadow"/>
<feBlend mode="normal" in="SourceGraphic" in2="effect1_dropShadow" result="shape"/>
</filter>
<filter id="filter1_f" x="0" y="231" width="738" height="18" filterUnits="userSpaceOnUse" color-interpolation-filters="sRGB">
<feFlood flood-opacity="0" result="BackgroundImageFix"/>
<feBlend mode="normal" in="SourceGraphic" in2="BackgroundImageFix" result="shape"/>
<feGaussianBlur stdDeviation="2" result="effect1_foregroundBlur"/>
</filter>
<linearGradient id="paint0_linear" x1="369" y1="0" x2="369" y2="256" gradientUnits="userSpaceOnUse">
<stop stop-color="white"/>
<stop offset="1" stop-color="white" stop-opacity="0"/>
</linearGradient>
</defs>
</svg>
