<svg width="284" height="38" viewBox="0 0 284 38" fill="none" xmlns="http://www.w3.org/2000/svg">
<path d="M10.8984 27H9.00391L8.11523 24.2168H2.80273L1.9043 27H0.0976562L4.33594 14.2363H6.71875L10.8984 27ZM7.61719 22.6641L5.45898 15.8379L3.30078 22.6641H7.61719ZM21.1523 15.7207H17.373V27H15.6152V15.7207H11.8359V14.2363H21.1523V15.7207ZM32.8906 27H30.9961L30.1074 24.2168H24.7949L23.8965 27H22.0898L26.3281 14.2363H28.7109L32.8906 27ZM29.6094 22.6641L27.4512 15.8379L25.293 22.6641H29.6094ZM42.7051 26.5215C41.6829 26.9447 40.612 27.1562 39.4922 27.1562C37.6888 27.1562 36.3021 26.6191 35.332 25.5449C34.3685 24.4642 33.8867 22.8691 33.8867 20.7598C33.8867 19.7376 34.0202 18.8132 34.2871 17.9863C34.554 17.1595 34.9349 16.4596 35.4297 15.8867C35.9245 15.3073 36.5234 14.8613 37.2266 14.5488C37.9297 14.2363 38.7174 14.0801 39.5898 14.0801C40.1823 14.0801 40.7324 14.1322 41.2402 14.2363C41.748 14.334 42.2363 14.487 42.7051 14.6953V16.4043C42.2428 16.1504 41.7643 15.9583 41.2695 15.8281C40.7747 15.6914 40.2344 15.623 39.6484 15.623C39.0495 15.623 38.5059 15.737 38.0176 15.9648C37.5358 16.1862 37.1257 16.5117 36.7871 16.9414C36.4486 17.3646 36.1882 17.8854 36.0059 18.5039C35.8236 19.1159 35.7324 19.8158 35.7324 20.6035C35.7324 22.2572 36.0677 23.5039 36.7383 24.3438C37.4089 25.1836 38.3919 25.6035 39.6875 25.6035C40.2344 25.6035 40.7585 25.5417 41.2598 25.418C41.7611 25.2878 42.2428 25.1087 42.7051 24.8809V26.5215ZM53.7012 26.5215C52.679 26.9447 51.6081 27.1562 50.4883 27.1562C48.6849 27.1562 47.2982 26.6191 46.3281 25.5449C45.3646 24.4642 44.8828 22.8691 44.8828 20.7598C44.8828 19.7376 45.0163 18.8132 45.2832 17.9863C45.5501 17.1595 45.931 16.4596 46.4258 15.8867C46.9206 15.3073 47.5195 14.8613 48.2227 14.5488C48.9258 14.2363 49.7135 14.0801 50.5859 14.0801C51.1784 14.0801 51.7285 14.1322 52.2363 14.2363C52.7441 14.334 53.2324 14.487 53.7012 14.6953V16.4043C53.2389 16.1504 52.7604 15.9583 52.2656 15.8281C51.7708 15.6914 51.2305 15.623 50.6445 15.623C50.0456 15.623 49.502 15.737 49.0137 15.9648C48.5319 16.1862 48.1217 16.5117 47.7832 16.9414C47.4447 17.3646 47.1842 17.8854 47.002 18.5039C46.8197 19.1159 46.7285 19.8158 46.7285 20.6035C46.7285 22.2572 47.0638 23.5039 47.7344 24.3438C48.4049 25.1836 49.388 25.6035 50.6836 25.6035C51.2305 25.6035 51.7546 25.5417 52.2559 25.418C52.7572 25.2878 53.2389 25.1087 53.7012 24.8809V26.5215ZM64.8047 16.4238C64.3294 16.1699 63.8411 15.9746 63.3398 15.8379C62.8385 15.6947 62.2917 15.623 61.6992 15.623C61.0221 15.623 60.4199 15.7435 59.8926 15.9844C59.3652 16.2253 58.9193 16.5671 58.5547 17.0098C58.1966 17.446 57.9199 17.9733 57.7246 18.5918C57.5358 19.2103 57.4414 19.8939 57.4414 20.6426C57.4414 21.4238 57.5195 22.1237 57.6758 22.7422C57.832 23.3607 58.0762 23.8848 58.4082 24.3145C58.7402 24.7441 59.1634 25.0729 59.6777 25.3008C60.1986 25.5286 60.8203 25.6426 61.543 25.6426C61.6667 25.6426 61.8001 25.6361 61.9434 25.623C62.0866 25.61 62.2298 25.5938 62.373 25.5742C62.5163 25.5482 62.653 25.5189 62.7832 25.4863C62.9199 25.4538 63.0404 25.418 63.1445 25.3789V21.3164H60.5371V19.8809H64.8633V26.4043C64.5964 26.528 64.3132 26.6387 64.0137 26.7363C63.7207 26.834 63.418 26.9154 63.1055 26.9805C62.7995 27.0456 62.4935 27.0944 62.1875 27.127C61.8815 27.1595 61.5853 27.1758 61.2988 27.1758C60.4264 27.1758 59.6387 27.0391 58.9355 26.7656C58.2389 26.4922 57.6432 26.0885 57.1484 25.5547C56.6602 25.0143 56.2826 24.3438 56.0156 23.543C55.7552 22.7422 55.625 21.8145 55.625 20.7598C55.625 19.7116 55.7715 18.7741 56.0645 17.9473C56.3574 17.1139 56.7676 16.4108 57.2949 15.8379C57.8288 15.2585 58.4668 14.819 59.209 14.5195C59.9577 14.2135 60.7812 14.0605 61.6797 14.0605C62.2526 14.0605 62.7962 14.1126 63.3105 14.2168C63.8314 14.3145 64.3294 14.474 64.8047 14.6953V16.4238ZM75.8008 16.4238C75.3255 16.1699 74.8372 15.9746 74.3359 15.8379C73.8346 15.6947 73.2878 15.623 72.6953 15.623C72.0182 15.623 71.416 15.7435 70.8887 15.9844C70.3613 16.2253 69.9154 16.5671 69.5508 17.0098C69.1927 17.446 68.916 17.9733 68.7207 18.5918C68.5319 19.2103 68.4375 19.8939 68.4375 20.6426C68.4375 21.4238 68.5156 22.1237 68.6719 22.7422C68.8281 23.3607 69.0723 23.8848 69.4043 24.3145C69.7363 24.7441 70.1595 25.0729 70.6738 25.3008C71.1947 25.5286 71.8164 25.6426 72.5391 25.6426C72.6628 25.6426 72.7962 25.6361 72.9395 25.623C73.0827 25.61 73.2259 25.5938 73.3691 25.5742C73.5124 25.5482 73.6491 25.5189 73.7793 25.4863C73.916 25.4538 74.0365 25.418 74.1406 25.3789V21.3164H71.5332V19.8809H75.8594V26.4043C75.5924 26.528 75.3092 26.6387 75.0098 26.7363C74.7168 26.834 74.4141 26.9154 74.1016 26.9805C73.7956 27.0456 73.4896 27.0944 73.1836 27.127C72.8776 27.1595 72.5814 27.1758 72.2949 27.1758C71.4225 27.1758 70.6348 27.0391 69.9316 26.7656C69.235 26.4922 68.6393 26.0885 68.1445 25.5547C67.6562 25.0143 67.2786 24.3438 67.0117 23.543C66.7513 22.7422 66.6211 21.8145 66.6211 20.7598C66.6211 19.7116 66.7676 18.7741 67.0605 17.9473C67.3535 17.1139 67.7637 16.4108 68.291 15.8379C68.8249 15.2585 69.4629 14.819 70.2051 14.5195C70.9538 14.2135 71.7773 14.0605 72.6758 14.0605C73.2487 14.0605 73.7923 14.1126 74.3066 14.2168C74.8275 14.3145 75.3255 14.474 75.8008 14.6953V16.4238ZM86.7969 16.4238C86.3216 16.1699 85.8333 15.9746 85.332 15.8379C84.8307 15.6947 84.2839 15.623 83.6914 15.623C83.0143 15.623 82.4121 15.7435 81.8848 15.9844C81.3574 16.2253 80.9115 16.5671 80.5469 17.0098C80.1888 17.446 79.9121 17.9733 79.7168 18.5918C79.528 19.2103 79.4336 19.8939 79.4336 20.6426C79.4336 21.4238 79.5117 22.1237 79.668 22.7422C79.8242 23.3607 80.0684 23.8848 80.4004 24.3145C80.7324 24.7441 81.1556 25.0729 81.6699 25.3008C82.1908 25.5286 82.8125 25.6426 83.5352 25.6426C83.6589 25.6426 83.7923 25.6361 83.9355 25.623C84.0788 25.61 84.222 25.5938 84.3652 25.5742C84.5085 25.5482 84.6452 25.5189 84.7754 25.4863C84.9121 25.4538 85.0326 25.418 85.1367 25.3789V21.3164H82.5293V19.8809H86.8555V26.4043C86.5885 26.528 86.3053 26.6387 86.0059 26.7363C85.7129 26.834 85.4102 26.9154 85.0977 26.9805C84.7917 27.0456 84.4857 27.0944 84.1797 27.127C83.8737 27.1595 83.5775 27.1758 83.291 27.1758C82.4186 27.1758 81.6309 27.0391 80.9277 26.7656C80.2311 26.4922 79.6354 26.0885 79.1406 25.5547C78.6523 25.0143 78.2747 24.3438 78.0078 23.543C77.7474 22.7422 77.6172 21.8145 77.6172 20.7598C77.6172 19.7116 77.7637 18.7741 78.0566 17.9473C78.3496 17.1139 78.7598 16.4108 79.2871 15.8379C79.821 15.2585 80.459 14.819 81.2012 14.5195C81.9499 14.2135 82.7734 14.0605 83.6719 14.0605C84.2448 14.0605 84.7884 14.1126 85.3027 14.2168C85.8236 14.3145 86.3216 14.474 86.7969 14.6953V16.4238ZM97.793 16.4238C97.3177 16.1699 96.8294 15.9746 96.3281 15.8379C95.8268 15.6947 95.2799 15.623 94.6875 15.623C94.0104 15.623 93.4082 15.7435 92.8809 15.9844C92.3535 16.2253 91.9076 16.5671 91.543 17.0098C91.1849 17.446 90.9082 17.9733 90.7129 18.5918C90.5241 19.2103 90.4297 19.8939 90.4297 20.6426C90.4297 21.4238 90.5078 22.1237 90.6641 22.7422C90.8203 23.3607 91.0645 23.8848 91.3965 24.3145C91.7285 24.7441 92.1517 25.0729 92.666 25.3008C93.1868 25.5286 93.8086 25.6426 94.5312 25.6426C94.6549 25.6426 94.7884 25.6361 94.9316 25.623C95.0749 25.61 95.2181 25.5938 95.3613 25.5742C95.5046 25.5482 95.6413 25.5189 95.7715 25.4863C95.9082 25.4538 96.0286 25.418 96.1328 25.3789V21.3164H93.5254V19.8809H97.8516V26.4043C97.5846 26.528 97.3014 26.6387 97.002 26.7363C96.709 26.834 96.4062 26.9154 96.0938 26.9805C95.7878 27.0456 95.4818 27.0944 95.1758 27.127C94.8698 27.1595 94.5736 27.1758 94.2871 27.1758C93.4147 27.1758 92.627 27.0391 91.9238 26.7656C91.2272 26.4922 90.6315 26.0885 90.1367 25.5547C89.6484 25.0143 89.2708 24.3438 89.0039 23.543C88.7435 22.7422 88.6133 21.8145 88.6133 20.7598C88.6133 19.7116 88.7598 18.7741 89.0527 17.9473C89.3457 17.1139 89.7559 16.4108 90.2832 15.8379C90.8171 15.2585 91.4551 14.819 92.1973 14.5195C92.946 14.2135 93.7695 14.0605 94.668 14.0605C95.2409 14.0605 95.7845 14.1126 96.2988 14.2168C96.8197 14.3145 97.3177 14.474 97.793 14.6953V16.4238ZM109.121 15.7207H105.342V27H103.584V15.7207H99.8047V14.2363H109.121V15.7207Z" fill="#247F8F"/>
<path d="M183.717 26.5215C182.695 26.9447 181.624 27.1562 180.504 27.1562C178.701 27.1562 177.314 26.6191 176.344 25.5449C175.38 24.4642 174.898 22.8691 174.898 20.7598C174.898 19.7376 175.032 18.8132 175.299 17.9863C175.566 17.1595 175.947 16.4596 176.441 15.8867C176.936 15.3073 177.535 14.8613 178.238 14.5488C178.941 14.2363 179.729 14.0801 180.602 14.0801C181.194 14.0801 181.744 14.1322 182.252 14.2363C182.76 14.334 183.248 14.487 183.717 14.6953V16.4043C183.255 16.1504 182.776 15.9583 182.281 15.8281C181.786 15.6914 181.246 15.623 180.66 15.623C180.061 15.623 179.518 15.737 179.029 15.9648C178.548 16.1862 178.137 16.5117 177.799 16.9414C177.46 17.3646 177.2 17.8854 177.018 18.5039C176.835 19.1159 176.744 19.8158 176.744 20.6035C176.744 22.2572 177.079 23.5039 177.75 24.3438C178.421 25.1836 179.404 25.6035 180.699 25.6035C181.246 25.6035 181.77 25.5417 182.271 25.418C182.773 25.2878 183.255 25.1087 183.717 24.8809V26.5215ZM194.713 26.5215C193.691 26.9447 192.62 27.1562 191.5 27.1562C189.697 27.1562 188.31 26.6191 187.34 25.5449C186.376 24.4642 185.895 22.8691 185.895 20.7598C185.895 19.7376 186.028 18.8132 186.295 17.9863C186.562 17.1595 186.943 16.4596 187.438 15.8867C187.932 15.3073 188.531 14.8613 189.234 14.5488C189.938 14.2363 190.725 14.0801 191.598 14.0801C192.19 14.0801 192.74 14.1322 193.248 14.2363C193.756 14.334 194.244 14.487 194.713 14.6953V16.4043C194.251 16.1504 193.772 15.9583 193.277 15.8281C192.783 15.6914 192.242 15.623 191.656 15.623C191.057 15.623 190.514 15.737 190.025 15.9648C189.544 16.1862 189.133 16.5117 188.795 16.9414C188.456 17.3646 188.196 17.8854 188.014 18.5039C187.831 19.1159 187.74 19.8158 187.74 20.6035C187.74 22.2572 188.076 23.5039 188.746 24.3438C189.417 25.1836 190.4 25.6035 191.695 25.6035C192.242 25.6035 192.766 25.5417 193.268 25.418C193.769 25.2878 194.251 25.1087 194.713 24.8809V26.5215ZM205.816 16.4238C205.341 16.1699 204.853 15.9746 204.352 15.8379C203.85 15.6947 203.303 15.623 202.711 15.623C202.034 15.623 201.432 15.7435 200.904 15.9844C200.377 16.2253 199.931 16.5671 199.566 17.0098C199.208 17.446 198.932 17.9733 198.736 18.5918C198.548 19.2103 198.453 19.8939 198.453 20.6426C198.453 21.4238 198.531 22.1237 198.688 22.7422C198.844 23.3607 199.088 23.8848 199.42 24.3145C199.752 24.7441 200.175 25.0729 200.689 25.3008C201.21 25.5286 201.832 25.6426 202.555 25.6426C202.678 25.6426 202.812 25.6361 202.955 25.623C203.098 25.61 203.242 25.5938 203.385 25.5742C203.528 25.5482 203.665 25.5189 203.795 25.4863C203.932 25.4538 204.052 25.418 204.156 25.3789V21.3164H201.549V19.8809H205.875V26.4043C205.608 26.528 205.325 26.6387 205.025 26.7363C204.732 26.834 204.43 26.9154 204.117 26.9805C203.811 27.0456 203.505 27.0944 203.199 27.127C202.893 27.1595 202.597 27.1758 202.311 27.1758C201.438 27.1758 200.65 27.0391 199.947 26.7656C199.251 26.4922 198.655 26.0885 198.16 25.5547C197.672 25.0143 197.294 24.3438 197.027 23.543C196.767 22.7422 196.637 21.8145 196.637 20.7598C196.637 19.7116 196.783 18.7741 197.076 17.9473C197.369 17.1139 197.779 16.4108 198.307 15.8379C198.84 15.2585 199.479 14.819 200.221 14.5195C200.969 14.2135 201.793 14.0605 202.691 14.0605C203.264 14.0605 203.808 14.1126 204.322 14.2168C204.843 14.3145 205.341 14.474 205.816 14.6953V16.4238ZM216.812 16.4238C216.337 16.1699 215.849 15.9746 215.348 15.8379C214.846 15.6947 214.299 15.623 213.707 15.623C213.03 15.623 212.428 15.7435 211.9 15.9844C211.373 16.2253 210.927 16.5671 210.562 17.0098C210.204 17.446 209.928 17.9733 209.732 18.5918C209.544 19.2103 209.449 19.8939 209.449 20.6426C209.449 21.4238 209.527 22.1237 209.684 22.7422C209.84 23.3607 210.084 23.8848 210.416 24.3145C210.748 24.7441 211.171 25.0729 211.686 25.3008C212.206 25.5286 212.828 25.6426 213.551 25.6426C213.674 25.6426 213.808 25.6361 213.951 25.623C214.094 25.61 214.238 25.5938 214.381 25.5742C214.524 25.5482 214.661 25.5189 214.791 25.4863C214.928 25.4538 215.048 25.418 215.152 25.3789V21.3164H212.545V19.8809H216.871V26.4043C216.604 26.528 216.321 26.6387 216.021 26.7363C215.729 26.834 215.426 26.9154 215.113 26.9805C214.807 27.0456 214.501 27.0944 214.195 27.127C213.889 27.1595 213.593 27.1758 213.307 27.1758C212.434 27.1758 211.646 27.0391 210.943 26.7656C210.247 26.4922 209.651 26.0885 209.156 25.5547C208.668 25.0143 208.29 24.3438 208.023 23.543C207.763 22.7422 207.633 21.8145 207.633 20.7598C207.633 19.7116 207.779 18.7741 208.072 17.9473C208.365 17.1139 208.775 16.4108 209.303 15.8379C209.837 15.2585 210.475 14.819 211.217 14.5195C211.965 14.2135 212.789 14.0605 213.688 14.0605C214.26 14.0605 214.804 14.1126 215.318 14.2168C215.839 14.3145 216.337 14.474 216.812 14.6953V16.4238ZM227.809 16.4238C227.333 16.1699 226.845 15.9746 226.344 15.8379C225.842 15.6947 225.296 15.623 224.703 15.623C224.026 15.623 223.424 15.7435 222.896 15.9844C222.369 16.2253 221.923 16.5671 221.559 17.0098C221.201 17.446 220.924 17.9733 220.729 18.5918C220.54 19.2103 220.445 19.8939 220.445 20.6426C220.445 21.4238 220.523 22.1237 220.68 22.7422C220.836 23.3607 221.08 23.8848 221.412 24.3145C221.744 24.7441 222.167 25.0729 222.682 25.3008C223.202 25.5286 223.824 25.6426 224.547 25.6426C224.671 25.6426 224.804 25.6361 224.947 25.623C225.09 25.61 225.234 25.5938 225.377 25.5742C225.52 25.5482 225.657 25.5189 225.787 25.4863C225.924 25.4538 226.044 25.418 226.148 25.3789V21.3164H223.541V19.8809H227.867V26.4043C227.6 26.528 227.317 26.6387 227.018 26.7363C226.725 26.834 226.422 26.9154 226.109 26.9805C225.803 27.0456 225.497 27.0944 225.191 27.127C224.885 27.1595 224.589 27.1758 224.303 27.1758C223.43 27.1758 222.643 27.0391 221.939 26.7656C221.243 26.4922 220.647 26.0885 220.152 25.5547C219.664 25.0143 219.286 24.3438 219.02 23.543C218.759 22.7422 218.629 21.8145 218.629 20.7598C218.629 19.7116 218.775 18.7741 219.068 17.9473C219.361 17.1139 219.771 16.4108 220.299 15.8379C220.833 15.2585 221.471 14.819 222.213 14.5195C222.962 14.2135 223.785 14.0605 224.684 14.0605C225.257 14.0605 225.8 14.1126 226.314 14.2168C226.835 14.3145 227.333 14.474 227.809 14.6953V16.4238ZM238.805 16.4238C238.329 16.1699 237.841 15.9746 237.34 15.8379C236.839 15.6947 236.292 15.623 235.699 15.623C235.022 15.623 234.42 15.7435 233.893 15.9844C233.365 16.2253 232.919 16.5671 232.555 17.0098C232.197 17.446 231.92 17.9733 231.725 18.5918C231.536 19.2103 231.441 19.8939 231.441 20.6426C231.441 21.4238 231.52 22.1237 231.676 22.7422C231.832 23.3607 232.076 23.8848 232.408 24.3145C232.74 24.7441 233.163 25.0729 233.678 25.3008C234.199 25.5286 234.82 25.6426 235.543 25.6426C235.667 25.6426 235.8 25.6361 235.943 25.623C236.087 25.61 236.23 25.5938 236.373 25.5742C236.516 25.5482 236.653 25.5189 236.783 25.4863C236.92 25.4538 237.04 25.418 237.145 25.3789V21.3164H234.537V19.8809H238.863V26.4043C238.596 26.528 238.313 26.6387 238.014 26.7363C237.721 26.834 237.418 26.9154 237.105 26.9805C236.799 27.0456 236.493 27.0944 236.188 27.127C235.882 27.1595 235.585 27.1758 235.299 27.1758C234.426 27.1758 233.639 27.0391 232.936 26.7656C232.239 26.4922 231.643 26.0885 231.148 25.5547C230.66 25.0143 230.283 24.3438 230.016 23.543C229.755 22.7422 229.625 21.8145 229.625 20.7598C229.625 19.7116 229.771 18.7741 230.064 17.9473C230.357 17.1139 230.768 16.4108 231.295 15.8379C231.829 15.2585 232.467 14.819 233.209 14.5195C233.958 14.2135 234.781 14.0605 235.68 14.0605C236.253 14.0605 236.796 14.1126 237.311 14.2168C237.831 14.3145 238.329 14.474 238.805 14.6953V16.4238ZM250.133 15.7207H246.354V27H244.596V15.7207H240.816V14.2363H250.133V15.7207ZM261.129 15.7207H257.35V27H255.592V15.7207H251.812V14.2363H261.129V15.7207ZM271.793 16.4238C271.318 16.1699 270.829 15.9746 270.328 15.8379C269.827 15.6947 269.28 15.623 268.688 15.623C268.01 15.623 267.408 15.7435 266.881 15.9844C266.354 16.2253 265.908 16.5671 265.543 17.0098C265.185 17.446 264.908 17.9733 264.713 18.5918C264.524 19.2103 264.43 19.8939 264.43 20.6426C264.43 21.4238 264.508 22.1237 264.664 22.7422C264.82 23.3607 265.064 23.8848 265.396 24.3145C265.729 24.7441 266.152 25.0729 266.666 25.3008C267.187 25.5286 267.809 25.6426 268.531 25.6426C268.655 25.6426 268.788 25.6361 268.932 25.623C269.075 25.61 269.218 25.5938 269.361 25.5742C269.505 25.5482 269.641 25.5189 269.771 25.4863C269.908 25.4538 270.029 25.418 270.133 25.3789V21.3164H267.525V19.8809H271.852V26.4043C271.585 26.528 271.301 26.6387 271.002 26.7363C270.709 26.834 270.406 26.9154 270.094 26.9805C269.788 27.0456 269.482 27.0944 269.176 27.127C268.87 27.1595 268.574 27.1758 268.287 27.1758C267.415 27.1758 266.627 27.0391 265.924 26.7656C265.227 26.4922 264.632 26.0885 264.137 25.5547C263.648 25.0143 263.271 24.3438 263.004 23.543C262.743 22.7422 262.613 21.8145 262.613 20.7598C262.613 19.7116 262.76 18.7741 263.053 17.9473C263.346 17.1139 263.756 16.4108 264.283 15.8379C264.817 15.2585 265.455 14.819 266.197 14.5195C266.946 14.2135 267.77 14.0605 268.668 14.0605C269.241 14.0605 269.785 14.1126 270.299 14.2168C270.82 14.3145 271.318 14.474 271.793 14.6953V16.4238ZM282.682 26.5215C281.66 26.9447 280.589 27.1562 279.469 27.1562C277.665 27.1562 276.279 26.6191 275.309 25.5449C274.345 24.4642 273.863 22.8691 273.863 20.7598C273.863 19.7376 273.997 18.8132 274.264 17.9863C274.531 17.1595 274.911 16.4596 275.406 15.8867C275.901 15.3073 276.5 14.8613 277.203 14.5488C277.906 14.2363 278.694 14.0801 279.566 14.0801C280.159 14.0801 280.709 14.1322 281.217 14.2363C281.725 14.334 282.213 14.487 282.682 14.6953V16.4043C282.219 16.1504 281.741 15.9583 281.246 15.8281C280.751 15.6914 280.211 15.623 279.625 15.623C279.026 15.623 278.482 15.737 277.994 15.9648C277.512 16.1862 277.102 16.5117 276.764 16.9414C276.425 17.3646 276.165 17.8854 275.982 18.5039C275.8 19.1159 275.709 19.8158 275.709 20.6035C275.709 22.2572 276.044 23.5039 276.715 24.3438C277.385 25.1836 278.368 25.6035 279.664 25.6035C280.211 25.6035 280.735 25.5417 281.236 25.418C281.738 25.2878 282.219 25.1087 282.682 24.8809V26.5215Z" fill="#247F8F"/>
<rect x="31.5" y="1.5" width="81" height="35" stroke="#C9D1D9" stroke-width="3"/>
<rect x="171.5" y="1.5" width="81" height="35" stroke="#C9D1D9" stroke-width="3"/>
</svg>
