<svg width="676" height="375" viewBox="0 0 676 375" fill="none" xmlns="http://www.w3.org/2000/svg">
<g filter="url(#filter0_d)">
<path d="M442.051 366H5L228.703 135.967H671.024L442.051 366Z" fill="#C4C4C4"/>
<path d="M442.051 366H5L228.703 135.967H671.024L442.051 366Z" fill="url(#paint0_linear)"/>
<path d="M442.051 366H5L228.703 135.967H671.024L442.051 366Z" stroke="black" stroke-width="0.5"/>
</g>
<g filter="url(#filter1_d)">
<path d="M473.91 81.0928H440.84V53.1108L456.951 37H490.021V64.982L473.91 81.0928Z" fill="#62F2A6"/>
<path d="M473.91 81.0928H440.84V53.1108M473.91 81.0928V53.1108M473.91 81.0928L490.021 64.982V37M473.91 53.1108H440.84M473.91 53.1108L490.021 37M440.84 53.1108L456.951 37H490.021" stroke="#06662D" stroke-width="0.3"/>
<path d="M473.91 81.0928H440.84V53.1108M473.91 81.0928V53.1108M473.91 81.0928L490.021 64.982V37M473.91 53.1108H440.84M473.91 53.1108L490.021 37M440.84 53.1108L456.951 37H490.021" stroke="url(#paint1_linear)" stroke-opacity="0.5" stroke-width="0.3"/>
<path d="M473.91 109.584H440.84V81.6015H473.91L490.021 65.4907V93.4727L473.91 109.584Z" fill="#E8A62E"/>
<path d="M473.91 109.584H440.84V81.6015H473.91M473.91 109.584V81.6015M473.91 109.584L490.021 93.4727V65.4907L473.91 81.6015" stroke="#A54008" stroke-width="0.3"/>
<path d="M473.91 109.584H440.84V81.6015H473.91M473.91 109.584V81.6015M473.91 109.584L490.021 93.4727V65.4907L473.91 81.6015" stroke="url(#paint2_linear)" stroke-width="0.3"/>
<path d="M473.91 138.074H440.84V110.092H473.91L490.021 93.9814V121.963L473.91 138.074Z" fill="#EFE123"/>
<path d="M473.91 138.074H440.84V110.092H473.91M473.91 138.074V110.092M473.91 138.074L490.021 121.963V93.9814L473.91 110.092" stroke="#989B05" stroke-width="0.3"/>
<path d="M473.91 138.074H440.84V110.092H473.91M473.91 138.074V110.092M473.91 138.074L490.021 121.963V93.9814L473.91 110.092" stroke="url(#paint3_linear)" stroke-opacity="0.5" stroke-width="0.3"/>
<path d="M473.91 166.565H440.84V138.583H473.91L490.021 122.472V150.454L473.91 166.565Z" fill="#E8A32C"/>
<path d="M473.91 166.565H440.84V138.583H473.91M473.91 166.565V138.583M473.91 166.565L490.021 150.454V122.472L473.91 138.583" stroke="#A54008" stroke-width="0.3"/>
<path d="M473.91 166.565H440.84V138.583H473.91M473.91 166.565V138.583M473.91 166.565L490.021 150.454V122.472L473.91 138.583" stroke="url(#paint4_linear)" stroke-opacity="0.5" stroke-width="0.3"/>
<path d="M473.91 195.056H440.84V167.074H473.91L490.021 150.963V178.945L473.91 195.056Z" fill="#C6344A"/>
<path d="M473.91 195.056H440.84V167.074H473.91M473.91 195.056V167.074M473.91 195.056L490.021 178.945V150.963L473.91 167.074" stroke="#75062E" stroke-width="0.3"/>
<path d="M473.91 195.056H440.84V167.074H473.91M473.91 195.056V167.074M473.91 195.056L490.021 178.945V150.963L473.91 167.074" stroke="url(#paint5_linear)" stroke-opacity="0.5" stroke-width="0.3"/>
<path d="M472.064 40.7785C472.064 41.0036 471.934 41.2393 471.652 41.4737C471.37 41.7073 470.954 41.9244 470.426 42.1096C469.371 42.4795 467.905 42.7111 466.278 42.7111C464.652 42.7111 463.185 42.4795 462.131 42.1096C461.603 41.9244 461.187 41.7073 460.905 41.4737C460.622 41.2393 460.493 41.0036 460.493 40.7785C460.493 40.5533 460.622 40.3176 460.905 40.0832C461.187 39.8496 461.603 39.6325 462.131 39.4473C463.185 39.0774 464.652 38.8458 466.278 38.8458C467.905 38.8458 469.371 39.0774 470.426 39.4473C470.954 39.6325 471.37 39.8496 471.652 40.0832C471.934 40.3176 472.064 40.5533 472.064 40.7785Z" fill="#62F2A6"/>
<path d="M472.064 40.7785C472.064 41.0036 471.934 41.2393 471.652 41.4737C471.37 41.7073 470.954 41.9244 470.426 42.1096C469.371 42.4795 467.905 42.7111 466.278 42.7111C464.652 42.7111 463.185 42.4795 462.131 42.1096C461.603 41.9244 461.187 41.7073 460.905 41.4737C460.622 41.2393 460.493 41.0036 460.493 40.7785C460.493 40.5533 460.622 40.3176 460.905 40.0832C461.187 39.8496 461.603 39.6325 462.131 39.4473C463.185 39.0774 464.652 38.8458 466.278 38.8458C467.905 38.8458 469.371 39.0774 470.426 39.4473C470.954 39.6325 471.37 39.8496 471.652 40.0832C471.934 40.3176 472.064 40.5533 472.064 40.7785Z" fill="url(#paint6_linear)"/>
<path d="M472.064 40.7785C472.064 41.0036 471.934 41.2393 471.652 41.4737C471.37 41.7073 470.954 41.9244 470.426 42.1096C469.371 42.4795 467.905 42.7111 466.278 42.7111C464.652 42.7111 463.185 42.4795 462.131 42.1096C461.603 41.9244 461.187 41.7073 460.905 41.4737C460.622 41.2393 460.493 41.0036 460.493 40.7785C460.493 40.5533 460.622 40.3176 460.905 40.0832C461.187 39.8496 461.603 39.6325 462.131 39.4473C463.185 39.0774 464.652 38.8458 466.278 38.8458C467.905 38.8458 469.371 39.0774 470.426 39.4473C470.954 39.6325 471.37 39.8496 471.652 40.0832C471.934 40.3176 472.064 40.5533 472.064 40.7785Z" stroke="#032C13" stroke-width="0.3"/>
<path d="M472.064 40.7785C472.064 41.0036 471.934 41.2393 471.652 41.4737C471.37 41.7073 470.954 41.9244 470.426 42.1096C469.371 42.4795 467.905 42.7111 466.278 42.7111C464.652 42.7111 463.185 42.4795 462.131 42.1096C461.603 41.9244 461.187 41.7073 460.905 41.4737C460.622 41.2393 460.493 41.0036 460.493 40.7785C460.493 40.5533 460.622 40.3176 460.905 40.0832C461.187 39.8496 461.603 39.6325 462.131 39.4473C463.185 39.0774 464.652 38.8458 466.278 38.8458C467.905 38.8458 469.371 39.0774 470.426 39.4473C470.954 39.6325 471.37 39.8496 471.652 40.0832C471.934 40.3176 472.064 40.5533 472.064 40.7785Z" stroke="url(#paint7_linear)" stroke-opacity="0.5" stroke-width="0.3"/>
<path d="M472.001 45.7891L472.001 40.7783" stroke="#032C13" stroke-width="0.3"/>
<path d="M472.001 45.7891L472.001 40.7783" stroke="url(#paint8_linear)" stroke-opacity="0.5" stroke-width="0.3"/>
<path d="M460.485 45.7891V40.7783" stroke="#032C13" stroke-width="0.3"/>
<path d="M460.485 45.7891V40.7783" stroke="url(#paint9_linear)" stroke-opacity="0.5" stroke-width="0.3"/>
<path d="M460.343 45.7891C465.493 47.7126 468.027 47.6484 471.976 45.7891" stroke="#032C13" stroke-width="0.3"/>
<path d="M460.343 45.7891C465.493 47.7126 468.027 47.6484 471.976 45.7891" stroke="url(#paint10_linear)" stroke-opacity="0.5" stroke-width="0.3"/>
</g>
<g filter="url(#filter2_d)">
<path d="M334.848 103.139H301.778V75.1572L317.889 59.0464H350.959V87.0283L334.848 103.139Z" fill="#C6344A"/>
<path d="M334.848 103.139H301.778V75.1572M334.848 103.139V75.1572M334.848 103.139L350.959 87.0283V59.0464M334.848 75.1572H301.778M334.848 75.1572L350.959 59.0464M301.778 75.1572L317.889 59.0464H350.959" stroke="#800732" stroke-width="0.3"/>
<path d="M334.848 103.139H301.778V75.1572M334.848 103.139V75.1572M334.848 103.139L350.959 87.0283V59.0464M334.848 75.1572H301.778M334.848 75.1572L350.959 59.0464M301.778 75.1572L317.889 59.0464H350.959" stroke="url(#paint11_linear)" stroke-opacity="0.5" stroke-width="0.3"/>
<path d="M334.848 131.63H301.778V103.648H334.848L350.959 87.5376V115.52L334.848 131.63Z" fill="#C6344A"/>
<path d="M334.848 131.63H301.778V103.648H334.848M334.848 131.63V103.648M334.848 131.63L350.959 115.52V87.5376L334.848 103.648" stroke="#800732" stroke-width="0.3"/>
<path d="M334.848 131.63H301.778V103.648H334.848M334.848 131.63V103.648M334.848 131.63L350.959 115.52V87.5376L334.848 103.648" stroke="url(#paint12_linear)" stroke-width="0.3"/>
<path d="M334.848 160.121H301.778V132.139H334.848L350.959 116.028V144.01L334.848 160.121Z" fill="#EFE123"/>
<path d="M334.848 160.121H301.778V132.139H334.848M334.848 160.121V132.139M334.848 160.121L350.959 144.01V116.028L334.848 132.139" stroke="#989B05" stroke-width="0.3"/>
<path d="M334.848 160.121H301.778V132.139H334.848M334.848 160.121V132.139M334.848 160.121L350.959 144.01V116.028L334.848 132.139" stroke="url(#paint13_linear)" stroke-opacity="0.5" stroke-width="0.3"/>
<path d="M334.848 188.611H301.778V160.629H334.848L350.959 144.519V172.501L334.848 188.611Z" fill="#E8A62E"/>
<path d="M334.848 188.611H301.778V160.629H334.848M334.848 188.611V160.629M334.848 188.611L350.959 172.501V144.519L334.848 160.629" stroke="#A54008" stroke-width="0.3"/>
<path d="M334.848 188.611H301.778V160.629H334.848M334.848 188.611V160.629M334.848 188.611L350.959 172.501V144.519L334.848 160.629" stroke="url(#paint14_linear)" stroke-opacity="0.5" stroke-width="0.3"/>
<path d="M334.848 217.102H301.778V189.12H334.848L350.959 173.009V200.991L334.848 217.102Z" fill="#62F2A6"/>
<path d="M334.848 217.102H301.778V189.12H334.848M334.848 217.102V189.12M334.848 217.102L350.959 200.991V173.009L334.848 189.12" stroke="#06662D" stroke-width="0.3"/>
<path d="M334.848 217.102H301.778V189.12H334.848M334.848 217.102V189.12M334.848 217.102L350.959 200.991V173.009L334.848 189.12" stroke="url(#paint15_linear)" stroke-opacity="0.5" stroke-width="0.3"/>
<path d="M333.002 62.8248C333.002 63.05 332.872 63.2857 332.59 63.5201C332.308 63.7537 331.892 63.9708 331.364 64.156C330.31 64.5259 328.843 64.7575 327.217 64.7575C325.59 64.7575 324.123 64.5259 323.069 64.156C322.541 63.9708 322.125 63.7537 321.843 63.5201C321.561 63.2857 321.431 63.05 321.431 62.8248C321.431 62.5997 321.561 62.364 321.843 62.1296C322.125 61.896 322.541 61.6789 323.069 61.4937C324.123 61.1238 325.59 60.8922 327.217 60.8922C328.843 60.8922 330.31 61.1238 331.364 61.4937C331.892 61.6789 332.308 61.896 332.59 62.1296C332.872 62.364 333.002 62.5997 333.002 62.8248Z" fill="#C6344A"/>
<path d="M333.002 62.8248C333.002 63.05 332.872 63.2857 332.59 63.5201C332.308 63.7537 331.892 63.9708 331.364 64.156C330.31 64.5259 328.843 64.7575 327.217 64.7575C325.59 64.7575 324.123 64.5259 323.069 64.156C322.541 63.9708 322.125 63.7537 321.843 63.5201C321.561 63.2857 321.431 63.05 321.431 62.8248C321.431 62.5997 321.561 62.364 321.843 62.1296C322.125 61.896 322.541 61.6789 323.069 61.4937C324.123 61.1238 325.59 60.8922 327.217 60.8922C328.843 60.8922 330.31 61.1238 331.364 61.4937C331.892 61.6789 332.308 61.896 332.59 62.1296C332.872 62.364 333.002 62.5997 333.002 62.8248Z" fill="url(#paint16_linear)"/>
<path d="M333.002 62.8248C333.002 63.05 332.872 63.2857 332.59 63.5201C332.308 63.7537 331.892 63.9708 331.364 64.156C330.31 64.5259 328.843 64.7575 327.217 64.7575C325.59 64.7575 324.123 64.5259 323.069 64.156C322.541 63.9708 322.125 63.7537 321.843 63.5201C321.561 63.2857 321.431 63.05 321.431 62.8248C321.431 62.5997 321.561 62.364 321.843 62.1296C322.125 61.896 322.541 61.6789 323.069 61.4937C324.123 61.1238 325.59 60.8922 327.217 60.8922C328.843 60.8922 330.31 61.1238 331.364 61.4937C331.892 61.6789 332.308 61.896 332.59 62.1296C332.872 62.364 333.002 62.5997 333.002 62.8248Z" stroke="#75062E" stroke-width="0.3"/>
<path d="M333.002 62.8248C333.002 63.05 332.872 63.2857 332.59 63.5201C332.308 63.7537 331.892 63.9708 331.364 64.156C330.31 64.5259 328.843 64.7575 327.217 64.7575C325.59 64.7575 324.123 64.5259 323.069 64.156C322.541 63.9708 322.125 63.7537 321.843 63.5201C321.561 63.2857 321.431 63.05 321.431 62.8248C321.431 62.5997 321.561 62.364 321.843 62.1296C322.125 61.896 322.541 61.6789 323.069 61.4937C324.123 61.1238 325.59 60.8922 327.217 60.8922C328.843 60.8922 330.31 61.1238 331.364 61.4937C331.892 61.6789 332.308 61.896 332.59 62.1296C332.872 62.364 333.002 62.5997 333.002 62.8248Z" stroke="url(#paint17_linear)" stroke-opacity="0.25" stroke-width="0.3"/>
<path d="M332.939 67.8354L332.939 62.8246" stroke="#75062E" stroke-width="0.3"/>
<path d="M332.939 67.8354L332.939 62.8246" stroke="url(#paint18_linear)" stroke-opacity="0.25" stroke-width="0.3"/>
<path d="M321.423 67.8354V62.8246" stroke="#75062E" stroke-width="0.3"/>
<path d="M321.423 67.8354V62.8246" stroke="url(#paint19_linear)" stroke-opacity="0.25" stroke-width="0.3"/>
<path d="M321.281 67.8354C326.431 69.759 328.965 69.6948 332.914 67.8354" stroke="#75062E" stroke-width="0.3"/>
<path d="M321.281 67.8354C326.431 69.759 328.965 69.6948 332.914 67.8354" stroke="url(#paint20_linear)" stroke-opacity="0.25" stroke-width="0.3"/>
</g>
<g filter="url(#filter3_d)">
<path d="M141.518 213.371H108.448V185.389L124.559 169.278H157.629V197.26L141.518 213.371Z" fill="#62F2A6"/>
<path d="M141.518 213.371H108.448V185.389M141.518 213.371V185.389M141.518 213.371L157.629 197.26V169.278M141.518 185.389H108.448M141.518 185.389L157.629 169.278M108.448 185.389L124.559 169.278H157.629" stroke="#06662D" stroke-width="0.3"/>
<path d="M141.518 213.371H108.448V185.389M141.518 213.371V185.389M141.518 213.371L157.629 197.26V169.278M141.518 185.389H108.448M141.518 185.389L157.629 169.278M108.448 185.389L124.559 169.278H157.629" stroke="url(#paint21_linear)" stroke-opacity="0.5" stroke-width="0.3"/>
<path d="M141.518 241.862H108.448V213.88H141.518L157.629 197.769V225.751L141.518 241.862Z" fill="#C6344A"/>
<path d="M141.518 241.862H108.448V213.88H141.518M141.518 241.862V213.88M141.518 241.862L157.629 225.751V197.769L141.518 213.88" stroke="#800732" stroke-width="0.3"/>
<path d="M141.518 241.862H108.448V213.88H141.518M141.518 241.862V213.88M141.518 241.862L157.629 225.751V197.769L141.518 213.88" stroke="url(#paint22_linear)" stroke-width="0.3"/>
<path d="M141.518 270.353H108.448V242.371H141.518L157.629 226.26V254.242L141.518 270.353Z" fill="#EFE123"/>
<path d="M141.518 270.353H108.448V242.371H141.518M141.518 270.353V242.371M141.518 270.353L157.629 254.242V226.26L141.518 242.371" stroke="#989B05" stroke-width="0.3"/>
<path d="M141.518 270.353H108.448V242.371H141.518M141.518 270.353V242.371M141.518 270.353L157.629 254.242V226.26L141.518 242.371" stroke="url(#paint23_linear)" stroke-opacity="0.5" stroke-width="0.3"/>
<path d="M141.518 298.843H108.448V270.861H141.518L157.629 254.75V282.732L141.518 298.843Z" fill="#E8A62E"/>
<path d="M141.518 298.843H108.448V270.861H141.518M141.518 298.843V270.861M141.518 298.843L157.629 282.732V254.75L141.518 270.861" stroke="#A54008" stroke-width="0.3"/>
<path d="M141.518 298.843H108.448V270.861H141.518M141.518 298.843V270.861M141.518 298.843L157.629 282.732V254.75L141.518 270.861" stroke="url(#paint24_linear)" stroke-opacity="0.5" stroke-width="0.3"/>
<path d="M141.518 327.334H108.448V299.352H141.518L157.629 283.241V311.223L141.518 327.334Z" fill="#C6344A"/>
<path d="M141.518 327.334H108.448V299.352H141.518M141.518 327.334V299.352M141.518 327.334L157.629 311.223V283.241L141.518 299.352" stroke="#75062E" stroke-width="0.3"/>
<path d="M141.518 327.334H108.448V299.352H141.518M141.518 327.334V299.352M141.518 327.334L157.629 311.223V283.241L141.518 299.352" stroke="url(#paint25_linear)" stroke-opacity="0.5" stroke-width="0.3"/>
<path d="M139.672 173.057C139.672 173.282 139.542 173.518 139.26 173.752C138.978 173.986 138.562 174.203 138.034 174.388C136.98 174.758 135.513 174.989 133.887 174.989C132.26 174.989 130.794 174.758 129.739 174.388C129.211 174.203 128.795 173.986 128.513 173.752C128.231 173.518 128.101 173.282 128.101 173.057C128.101 172.832 128.231 172.596 128.513 172.362C128.795 172.128 129.211 171.911 129.739 171.726C130.794 171.356 132.26 171.124 133.887 171.124C135.513 171.124 136.98 171.356 138.034 171.726C138.562 171.911 138.978 172.128 139.26 172.362C139.542 172.596 139.672 172.832 139.672 173.057Z" fill="#62F2A6"/>
<path d="M139.672 173.057C139.672 173.282 139.542 173.518 139.26 173.752C138.978 173.986 138.562 174.203 138.034 174.388C136.98 174.758 135.513 174.989 133.887 174.989C132.26 174.989 130.794 174.758 129.739 174.388C129.211 174.203 128.795 173.986 128.513 173.752C128.231 173.518 128.101 173.282 128.101 173.057C128.101 172.832 128.231 172.596 128.513 172.362C128.795 172.128 129.211 171.911 129.739 171.726C130.794 171.356 132.26 171.124 133.887 171.124C135.513 171.124 136.98 171.356 138.034 171.726C138.562 171.911 138.978 172.128 139.26 172.362C139.542 172.596 139.672 172.832 139.672 173.057Z" fill="url(#paint26_linear)"/>
<path d="M139.672 173.057C139.672 173.282 139.542 173.518 139.26 173.752C138.978 173.986 138.562 174.203 138.034 174.388C136.98 174.758 135.513 174.989 133.887 174.989C132.26 174.989 130.794 174.758 129.739 174.388C129.211 174.203 128.795 173.986 128.513 173.752C128.231 173.518 128.101 173.282 128.101 173.057C128.101 172.832 128.231 172.596 128.513 172.362C128.795 172.128 129.211 171.911 129.739 171.726C130.794 171.356 132.26 171.124 133.887 171.124C135.513 171.124 136.98 171.356 138.034 171.726C138.562 171.911 138.978 172.128 139.26 172.362C139.542 172.596 139.672 172.832 139.672 173.057Z" stroke="#032C13" stroke-width="0.3"/>
<path d="M139.672 173.057C139.672 173.282 139.542 173.518 139.26 173.752C138.978 173.986 138.562 174.203 138.034 174.388C136.98 174.758 135.513 174.989 133.887 174.989C132.26 174.989 130.794 174.758 129.739 174.388C129.211 174.203 128.795 173.986 128.513 173.752C128.231 173.518 128.101 173.282 128.101 173.057C128.101 172.832 128.231 172.596 128.513 172.362C128.795 172.128 129.211 171.911 129.739 171.726C130.794 171.356 132.26 171.124 133.887 171.124C135.513 171.124 136.98 171.356 138.034 171.726C138.562 171.911 138.978 172.128 139.26 172.362C139.542 172.596 139.672 172.832 139.672 173.057Z" stroke="url(#paint27_linear)" stroke-opacity="0.5" stroke-width="0.3"/>
<path d="M139.609 178.067L139.609 173.057" stroke="#032C13" stroke-width="0.3"/>
<path d="M139.609 178.067L139.609 173.057" stroke="url(#paint28_linear)" stroke-opacity="0.5" stroke-width="0.3"/>
<path d="M128.093 178.067V173.057" stroke="#032C13" stroke-width="0.3"/>
<path d="M128.093 178.067V173.057" stroke="url(#paint29_linear)" stroke-opacity="0.5" stroke-width="0.3"/>
<path d="M127.951 178.067C133.101 179.991 135.635 179.927 139.584 178.067" stroke="#032C13" stroke-width="0.3"/>
<path d="M127.951 178.067C133.101 179.991 135.635 179.927 139.584 178.067" stroke="url(#paint30_linear)" stroke-opacity="0.5" stroke-width="0.3"/>
</g>
<path d="M44.4 210.2C54.2266 223.331 68.3168 235.553 85.2445 237.223C85.6895 237.267 95.1539 237.4 90.4 237.4" stroke="#C9D1D9" stroke-width="2" stroke-linecap="round" stroke-linejoin="round"/>
<path d="M83.2 242.2C86.7811 240.418 90.342 238.537 94 236.911C94.481 236.698 95.2578 236.694 94.7778 236.511C90.8513 235.015 87.3981 231.725 84 229.4" stroke="#C9D1D9" stroke-width="2" stroke-linecap="round" stroke-linejoin="round"/>
<path d="M227 68.0002C236.827 81.1313 250.917 93.3527 267.844 95.0224C268.289 95.0663 277.754 95.2002 273 95.2002" stroke="#C9D1D9" stroke-width="2" stroke-linecap="round" stroke-linejoin="round"/>
<path d="M265.8 100C269.381 98.2174 272.942 96.3369 276.6 94.7111C277.081 94.4973 277.858 94.494 277.378 94.3111C273.451 92.8153 269.998 89.525 266.6 87.2" stroke="#C9D1D9" stroke-width="2" stroke-linecap="round" stroke-linejoin="round"/>
<path d="M560.529 33.0002C550.702 46.1313 536.612 58.3527 519.684 60.0224C519.239 60.0663 509.775 60.2002 514.529 60.2002" stroke="#C9D1D9" stroke-width="2" stroke-linecap="round" stroke-linejoin="round"/>
<path d="M521.729 65C518.148 63.2174 514.587 61.3369 510.929 59.7111C510.448 59.4973 509.671 59.494 510.151 59.3111C514.077 57.8153 517.531 54.525 520.929 52.2" stroke="#C9D1D9" stroke-width="2" stroke-linecap="round" stroke-linejoin="round"/>
<path d="M38.2812 197.08C38.2812 198.232 39.0983 198.809 40.7324 198.809C42.3665 198.809 43.1836 198.232 43.1836 197.08V192.598C43.1836 191.439 42.3665 190.859 40.7324 190.859C39.0983 190.859 38.2812 191.439 38.2812 192.598V197.08ZM45.0195 196.924C45.0195 197.939 44.6712 198.743 43.9746 199.336C43.2845 199.922 42.2005 200.215 40.7227 200.215C39.2448 200.215 38.1608 199.922 37.4707 199.336C36.7871 198.75 36.4453 197.946 36.4453 196.924V192.754C36.4453 191.732 36.7871 190.928 37.4707 190.342C38.1608 189.749 39.2448 189.453 40.7227 189.453C42.2005 189.453 43.2845 189.749 43.9746 190.342C44.6712 190.934 45.0195 191.738 45.0195 192.754V196.924Z" fill="#C9D1D9"/>
<path d="M47.0059 205V204.243H48.9639V198.765L47.1377 198.96L47.0498 198.184L49.1445 197.939H49.9453V204.243H51.6738V205H47.0059Z" fill="#C9D1D9"/>
<path d="M221.281 54.0801C221.281 55.2324 222.098 55.8086 223.732 55.8086C225.367 55.8086 226.184 55.2324 226.184 54.0801V49.5977C226.184 48.4388 225.367 47.8594 223.732 47.8594C222.098 47.8594 221.281 48.4388 221.281 49.5977V54.0801ZM228.02 53.9238C228.02 54.9395 227.671 55.7435 226.975 56.3359C226.285 56.9219 225.201 57.2148 223.723 57.2148C222.245 57.2148 221.161 56.9219 220.471 56.3359C219.787 55.75 219.445 54.946 219.445 53.9238V49.7539C219.445 48.7318 219.787 47.9277 220.471 47.3418C221.161 46.7493 222.245 46.4531 223.723 46.4531C225.201 46.4531 226.285 46.7493 226.975 47.3418C227.671 47.9342 228.02 48.7383 228.02 49.7539V53.9238Z" fill="#C9D1D9"/>
<path d="M230.128 62L230.035 61.2285L232.418 58.6357C232.851 58.167 233.097 57.8789 233.155 57.7715C233.217 57.6608 233.276 57.5404 233.331 57.4102C233.39 57.2799 233.419 57.0895 233.419 56.8389C233.419 56.3929 233.325 56.0788 233.136 55.8965C232.947 55.7142 232.633 55.623 232.193 55.623C231.92 55.623 231.7 55.641 231.534 55.6768C231.368 55.7126 231.225 55.7809 231.104 55.8818C230.89 56.0609 230.782 56.4336 230.782 57H229.801C229.801 55.5547 230.574 54.832 232.12 54.832C232.862 54.832 233.419 55.0208 233.79 55.3984C234.161 55.7728 234.347 56.2285 234.347 56.7656C234.347 57.3027 234.249 57.7227 234.054 58.0254C233.862 58.3281 233.663 58.5869 233.458 58.8018C233.253 59.0133 233.137 59.1338 233.111 59.1631L231.153 61.2383H234.308V62H230.128Z" fill="#C9D1D9"/>
<path d="M564.281 21.0801C564.281 22.2324 565.098 22.8086 566.732 22.8086C568.367 22.8086 569.184 22.2324 569.184 21.0801V16.5977C569.184 15.4388 568.367 14.8594 566.732 14.8594C565.098 14.8594 564.281 15.4388 564.281 16.5977V21.0801ZM571.02 20.9238C571.02 21.9395 570.671 22.7435 569.975 23.3359C569.285 23.9219 568.201 24.2148 566.723 24.2148C565.245 24.2148 564.161 23.9219 563.471 23.3359C562.787 22.75 562.445 21.946 562.445 20.9238V16.7539C562.445 15.7318 562.787 14.9277 563.471 14.3418C564.161 13.7493 565.245 13.4531 566.723 13.4531C568.201 13.4531 569.285 13.7493 569.975 14.3418C570.671 14.9342 571.02 15.7383 571.02 16.7539V20.9238Z" fill="#C9D1D9"/>
<path d="M576.438 23.6875C576.438 22.9779 576.069 22.623 575.33 22.623C574.946 22.623 574.679 22.6589 574.529 22.7305C574.38 22.8021 574.272 22.8883 574.207 22.9893C574.07 23.2041 574.002 23.5394 574.002 23.9951H573.064C573.064 23.3994 573.165 22.9453 573.367 22.6328C573.569 22.3171 573.831 22.1055 574.153 21.998C574.479 21.8874 574.86 21.832 575.296 21.832C575.931 21.832 576.432 21.985 576.8 22.291C577.171 22.5938 577.356 23.0544 577.356 23.6729C577.356 24.1481 577.267 24.5143 577.088 24.7715C576.912 25.0254 576.624 25.1849 576.224 25.25C576.65 25.3379 576.969 25.5186 577.181 25.792C577.392 26.0654 577.498 26.5114 577.498 27.1299C577.498 27.7484 577.309 28.2334 576.932 28.585C576.554 28.9333 576.015 29.1074 575.315 29.1074C574.785 29.1074 574.363 29.0374 574.051 28.8975C573.742 28.7575 573.506 28.5296 573.343 28.2139C573.18 27.8981 573.071 27.4587 573.016 26.8955H573.953C573.992 27.4749 574.118 27.859 574.329 28.0479C574.446 28.152 574.585 28.2236 574.744 28.2627C574.904 28.2985 575.112 28.3164 575.369 28.3164C575.783 28.3164 576.085 28.2106 576.277 27.999C576.469 27.7874 576.565 27.4342 576.565 26.9395C576.565 26.4447 576.474 26.1175 576.292 25.958C576.113 25.7952 575.892 25.6992 575.628 25.6699C575.368 25.6406 575.114 25.626 574.866 25.626V24.8984C575.387 24.8984 575.739 24.8561 575.921 24.7715C576.103 24.6868 576.235 24.5843 576.316 24.4639C576.398 24.3402 576.438 24.0814 576.438 23.6875Z" fill="#C9D1D9"/>
<defs>
<filter id="filter0_d" x="0.408142" y="135.717" width="675.218" height="238.533" filterUnits="userSpaceOnUse" color-interpolation-filters="sRGB">
<feFlood flood-opacity="0" result="BackgroundImageFix"/>
<feColorMatrix in="SourceAlpha" type="matrix" values="0 0 0 0 0 0 0 0 0 0 0 0 0 0 0 0 0 0 127 0"/>
<feOffset dy="4"/>
<feGaussianBlur stdDeviation="2"/>
<feColorMatrix type="matrix" values="0 0 0 0 0 0 0 0 0 0 0 0 0 0 0 0 0 0 0.25 0"/>
<feBlend mode="normal" in2="BackgroundImageFix" result="effect1_dropShadow"/>
<feBlend mode="normal" in="SourceGraphic" in2="effect1_dropShadow" result="shape"/>
</filter>
<filter id="filter1_d" x="436.69" y="36.8501" width="57.4804" height="166.355" filterUnits="userSpaceOnUse" color-interpolation-filters="sRGB">
<feFlood flood-opacity="0" result="BackgroundImageFix"/>
<feColorMatrix in="SourceAlpha" type="matrix" values="0 0 0 0 0 0 0 0 0 0 0 0 0 0 0 0 0 0 127 0"/>
<feOffset dy="4"/>
<feGaussianBlur stdDeviation="2"/>
<feColorMatrix type="matrix" values="0 0 0 0 0 0 0 0 0 0 0 0 0 0 0 0 0 0 0.25 0"/>
<feBlend mode="normal" in2="BackgroundImageFix" result="effect1_dropShadow"/>
<feBlend mode="normal" in="SourceGraphic" in2="effect1_dropShadow" result="shape"/>
</filter>
<filter id="filter2_d" x="297.628" y="58.8965" width="57.4804" height="166.355" filterUnits="userSpaceOnUse" color-interpolation-filters="sRGB">
<feFlood flood-opacity="0" result="BackgroundImageFix"/>
<feColorMatrix in="SourceAlpha" type="matrix" values="0 0 0 0 0 0 0 0 0 0 0 0 0 0 0 0 0 0 127 0"/>
<feOffset dy="4"/>
<feGaussianBlur stdDeviation="2"/>
<feColorMatrix type="matrix" values="0 0 0 0 0 0 0 0 0 0 0 0 0 0 0 0 0 0 0.25 0"/>
<feBlend mode="normal" in2="BackgroundImageFix" result="effect1_dropShadow"/>
<feBlend mode="normal" in="SourceGraphic" in2="effect1_dropShadow" result="shape"/>
</filter>
<filter id="filter3_d" x="104.298" y="169.128" width="57.4804" height="166.355" filterUnits="userSpaceOnUse" color-interpolation-filters="sRGB">
<feFlood flood-opacity="0" result="BackgroundImageFix"/>
<feColorMatrix in="SourceAlpha" type="matrix" values="0 0 0 0 0 0 0 0 0 0 0 0 0 0 0 0 0 0 127 0"/>
<feOffset dy="4"/>
<feGaussianBlur stdDeviation="2"/>
<feColorMatrix type="matrix" values="0 0 0 0 0 0 0 0 0 0 0 0 0 0 0 0 0 0 0.25 0"/>
<feBlend mode="normal" in2="BackgroundImageFix" result="effect1_dropShadow"/>
<feBlend mode="normal" in="SourceGraphic" in2="effect1_dropShadow" result="shape"/>
</filter>
<linearGradient id="paint0_linear" x1="338.012" y1="135.967" x2="338.012" y2="366" gradientUnits="userSpaceOnUse">
<stop stop-color="white"/>
<stop offset="1" stop-color="white" stop-opacity="0"/>
</linearGradient>
<linearGradient id="paint1_linear" x1="465.43" y1="37" x2="465.43" y2="81.0928" gradientUnits="userSpaceOnUse">
<stop stop-color="#62F2A6"/>
<stop offset="1" stop-color="white" stop-opacity="0"/>
</linearGradient>
<linearGradient id="paint2_linear" x1="465.43" y1="65.4907" x2="465.43" y2="109.584" gradientUnits="userSpaceOnUse">
<stop stop-color="#E3740D"/>
<stop offset="1" stop-color="white" stop-opacity="0"/>
</linearGradient>
<linearGradient id="paint3_linear" x1="465.43" y1="93.9814" x2="465.43" y2="138.074" gradientUnits="userSpaceOnUse">
<stop stop-color="#EFE123"/>
<stop offset="1" stop-color="white" stop-opacity="0"/>
</linearGradient>
<linearGradient id="paint4_linear" x1="465.43" y1="122.472" x2="465.43" y2="166.565" gradientUnits="userSpaceOnUse">
<stop stop-color="#E3740D"/>
<stop offset="1" stop-color="white" stop-opacity="0"/>
</linearGradient>
<linearGradient id="paint5_linear" x1="465.43" y1="150.963" x2="465.43" y2="195.056" gradientUnits="userSpaceOnUse">
<stop stop-color="#C6344A"/>
<stop offset="1" stop-color="white" stop-opacity="0"/>
</linearGradient>
<linearGradient id="paint6_linear" x1="466.278" y1="38.6958" x2="466.278" y2="42.8611" gradientUnits="userSpaceOnUse">
<stop stop-color="white"/>
<stop offset="1" stop-color="white" stop-opacity="0"/>
</linearGradient>
<linearGradient id="paint7_linear" x1="466.786" y1="38.6958" x2="466.786" y2="42.8611" gradientUnits="userSpaceOnUse">
<stop stop-color="white"/>
<stop offset="1" stop-color="white" stop-opacity="0"/>
</linearGradient>
<linearGradient id="paint8_linear" x1="472.001" y1="43.0692" x2="473.001" y2="43.0692" gradientUnits="userSpaceOnUse">
<stop stop-color="white"/>
<stop offset="1" stop-color="white" stop-opacity="0"/>
</linearGradient>
<linearGradient id="paint9_linear" x1="460.485" y1="43.0692" x2="461.485" y2="43.0692" gradientUnits="userSpaceOnUse">
<stop stop-color="white"/>
<stop offset="1" stop-color="white" stop-opacity="0"/>
</linearGradient>
<linearGradient id="paint10_linear" x1="466.657" y1="45.7891" x2="466.657" y2="47.2077" gradientUnits="userSpaceOnUse">
<stop stop-color="white"/>
<stop offset="1" stop-color="white" stop-opacity="0"/>
</linearGradient>
<linearGradient id="paint11_linear" x1="326.369" y1="59.0464" x2="326.369" y2="103.139" gradientUnits="userSpaceOnUse">
<stop stop-color="#C6344A"/>
<stop offset="1" stop-color="white" stop-opacity="0"/>
</linearGradient>
<linearGradient id="paint12_linear" x1="326.369" y1="87.5376" x2="326.369" y2="131.63" gradientUnits="userSpaceOnUse">
<stop stop-color="#C6344A"/>
<stop offset="1" stop-color="white" stop-opacity="0"/>
</linearGradient>
<linearGradient id="paint13_linear" x1="326.369" y1="116.028" x2="326.369" y2="160.121" gradientUnits="userSpaceOnUse">
<stop stop-color="#EFE123"/>
<stop offset="1" stop-color="white" stop-opacity="0"/>
</linearGradient>
<linearGradient id="paint14_linear" x1="326.369" y1="144.519" x2="326.369" y2="188.611" gradientUnits="userSpaceOnUse">
<stop stop-color="#E3740D"/>
<stop offset="1" stop-color="white" stop-opacity="0"/>
</linearGradient>
<linearGradient id="paint15_linear" x1="326.369" y1="173.009" x2="326.369" y2="217.102" gradientUnits="userSpaceOnUse">
<stop stop-color="#62F2A6"/>
<stop offset="1" stop-color="white" stop-opacity="0"/>
</linearGradient>
<linearGradient id="paint16_linear" x1="327.217" y1="60.7422" x2="327.217" y2="64.9075" gradientUnits="userSpaceOnUse">
<stop stop-color="white"/>
<stop offset="1" stop-color="white" stop-opacity="0"/>
</linearGradient>
<linearGradient id="paint17_linear" x1="327.725" y1="60.7422" x2="327.725" y2="64.9075" gradientUnits="userSpaceOnUse">
<stop stop-color="white"/>
<stop offset="1" stop-color="white" stop-opacity="0"/>
</linearGradient>
<linearGradient id="paint18_linear" x1="332.939" y1="65.1156" x2="333.939" y2="65.1156" gradientUnits="userSpaceOnUse">
<stop stop-color="white"/>
<stop offset="1" stop-color="white" stop-opacity="0"/>
</linearGradient>
<linearGradient id="paint19_linear" x1="321.423" y1="65.1156" x2="322.423" y2="65.1156" gradientUnits="userSpaceOnUse">
<stop stop-color="white"/>
<stop offset="1" stop-color="white" stop-opacity="0"/>
</linearGradient>
<linearGradient id="paint20_linear" x1="327.595" y1="67.8354" x2="327.595" y2="69.2541" gradientUnits="userSpaceOnUse">
<stop stop-color="white"/>
<stop offset="1" stop-color="white" stop-opacity="0"/>
</linearGradient>
<linearGradient id="paint21_linear" x1="133.039" y1="169.278" x2="133.039" y2="213.371" gradientUnits="userSpaceOnUse">
<stop stop-color="#62F2A6"/>
<stop offset="1" stop-color="white" stop-opacity="0"/>
</linearGradient>
<linearGradient id="paint22_linear" x1="133.039" y1="197.769" x2="133.039" y2="241.862" gradientUnits="userSpaceOnUse">
<stop stop-color="#C6344A"/>
<stop offset="1" stop-color="white" stop-opacity="0"/>
</linearGradient>
<linearGradient id="paint23_linear" x1="133.039" y1="226.26" x2="133.039" y2="270.353" gradientUnits="userSpaceOnUse">
<stop stop-color="#EFE123"/>
<stop offset="1" stop-color="white" stop-opacity="0"/>
</linearGradient>
<linearGradient id="paint24_linear" x1="133.039" y1="254.75" x2="133.039" y2="298.843" gradientUnits="userSpaceOnUse">
<stop stop-color="#E3740D"/>
<stop offset="1" stop-color="white" stop-opacity="0"/>
</linearGradient>
<linearGradient id="paint25_linear" x1="133.039" y1="283.241" x2="133.039" y2="327.334" gradientUnits="userSpaceOnUse">
<stop stop-color="#C6344A"/>
<stop offset="1" stop-color="white" stop-opacity="0"/>
</linearGradient>
<linearGradient id="paint26_linear" x1="133.887" y1="170.974" x2="133.887" y2="175.139" gradientUnits="userSpaceOnUse">
<stop stop-color="white"/>
<stop offset="1" stop-color="white" stop-opacity="0"/>
</linearGradient>
<linearGradient id="paint27_linear" x1="134.395" y1="170.974" x2="134.395" y2="175.139" gradientUnits="userSpaceOnUse">
<stop stop-color="white"/>
<stop offset="1" stop-color="white" stop-opacity="0"/>
</linearGradient>
<linearGradient id="paint28_linear" x1="139.609" y1="175.347" x2="140.609" y2="175.347" gradientUnits="userSpaceOnUse">
<stop stop-color="white"/>
<stop offset="1" stop-color="white" stop-opacity="0"/>
</linearGradient>
<linearGradient id="paint29_linear" x1="128.093" y1="175.347" x2="129.093" y2="175.347" gradientUnits="userSpaceOnUse">
<stop stop-color="white"/>
<stop offset="1" stop-color="white" stop-opacity="0"/>
</linearGradient>
<linearGradient id="paint30_linear" x1="134.266" y1="178.067" x2="134.266" y2="179.486" gradientUnits="userSpaceOnUse">
<stop stop-color="white"/>
<stop offset="1" stop-color="white" stop-opacity="0"/>
</linearGradient>
</defs>
</svg>
