<svg width="638" height="289" viewBox="0 0 638 289" fill="none" xmlns="http://www.w3.org/2000/svg">
<path d="M418.087 288H1L214.484 76.0752H636.6L418.087 288Z" fill="#C4C4C4"/>
<path d="M418.087 288H1L214.484 76.0752H636.6L418.087 288Z" fill="url(#paint0_linear)"/>
<path d="M418.087 288H1L214.484 76.0752H636.6L418.087 288Z" stroke="black" stroke-width="0.5"/>
<path d="M187.145 202.564H170.118V188.675L178.413 180.679H195.44V194.568L187.145 202.564Z" fill="#E8A62E"/>
<path d="M187.145 202.564H170.118V188.675M187.145 202.564V188.675M187.145 202.564L195.44 194.568V180.679M187.145 188.675H170.118M187.145 188.675L195.44 180.679M170.118 188.675L178.413 180.679H195.44" stroke="#A54008"/>
<path d="M187.145 202.564H170.118V188.675M187.145 202.564V188.675M187.145 202.564L195.44 194.568V180.679M187.145 188.675H170.118M187.145 188.675L195.44 180.679M170.118 188.675L178.413 180.679H195.44" stroke="url(#paint1_linear)"/>
<path d="M187.175 188.83H170.118V185.61L178.428 177.962H195.485V181.183L187.175 188.83Z" fill="#E8A62E"/>
<path d="M187.175 188.83H170.118V185.61L178.428 177.962H195.485V181.183L187.175 188.83Z" fill="url(#paint2_linear)"/>
<path d="M187.175 188.83H170.118V185.61M187.175 188.83L195.485 181.183V177.962M187.175 188.83V185.61M170.118 185.61H187.175M170.118 185.61L178.428 177.962H195.485M187.175 185.61L195.485 177.962" stroke="#A54008"/>
<path d="M187.175 188.83H170.118V185.61M187.175 188.83L195.485 181.183V177.962M187.175 188.83V185.61M170.118 185.61H187.175M170.118 185.61L178.428 177.962H195.485M187.175 185.61L195.485 177.962" stroke="url(#paint3_linear)"/>
<path d="M223.083 212.073H206.055V198.185L214.35 190.188H231.378V204.077L223.083 212.073Z" fill="#E8A62E"/>
<path d="M223.083 212.073H206.055V198.185M223.083 212.073V198.185M223.083 212.073L231.378 204.077V190.188M223.083 198.185H206.055M223.083 198.185L231.378 190.188M206.055 198.185L214.35 190.188H231.378" stroke="#A54008"/>
<path d="M223.083 212.073H206.055V198.185M223.083 212.073V198.185M223.083 212.073L231.378 204.077V190.188M223.083 198.185H206.055M223.083 198.185L231.378 190.188M206.055 198.185L214.35 190.188H231.378" stroke="url(#paint4_linear)"/>
<path d="M223.113 198.34H206.055V195.119L214.365 187.472H231.423V190.692L223.113 198.34Z" fill="#E8A62E"/>
<path d="M223.113 198.34H206.055V195.119L214.365 187.472H231.423V190.692L223.113 198.34Z" fill="url(#paint5_linear)"/>
<path d="M223.113 198.34H206.055V195.119M223.113 198.34L231.423 190.692V187.472M223.113 198.34V195.119M206.055 195.119H223.113M206.055 195.119L214.365 187.472H231.423M223.113 195.119L231.423 187.472" stroke="#A54008"/>
<path d="M223.113 198.34H206.055V195.119M223.113 198.34L231.423 190.692V187.472M223.113 198.34V195.119M206.055 195.119H223.113M206.055 195.119L214.365 187.472H231.423M223.113 195.119L231.423 187.472" stroke="url(#paint6_linear)"/>
<path d="M214.697 220.02H197.67V206.132L205.965 198.136H222.993V212.024L214.697 220.02Z" fill="#E8A62E"/>
<path d="M214.697 220.02H197.67V206.132M214.697 220.02V206.132M214.697 220.02L222.993 212.024V198.136M214.697 206.132H197.67M214.697 206.132L222.993 198.136M197.67 206.132L205.965 198.136H222.993" stroke="#A54008"/>
<path d="M214.697 220.02H197.67V206.132M214.697 220.02V206.132M214.697 220.02L222.993 212.024V198.136M214.697 206.132H197.67M214.697 206.132L222.993 198.136M197.67 206.132L205.965 198.136H222.993" stroke="url(#paint7_linear)"/>
<path d="M214.727 206.287H197.67V203.067L205.98 195.419H223.037V198.639L214.727 206.287Z" fill="#E8A62E"/>
<path d="M214.727 206.287H197.67V203.067L205.98 195.419H223.037V198.639L214.727 206.287Z" fill="url(#paint8_linear)"/>
<path d="M214.727 206.287H197.67V203.067M214.727 206.287L223.037 198.639V195.419M214.727 206.287V203.067M197.67 203.067H214.727M197.67 203.067L205.98 195.419H223.037M214.727 203.067L223.037 195.419" stroke="#A54008"/>
<path d="M214.727 206.287H197.67V203.067M214.727 206.287L223.037 198.639V195.419M214.727 206.287V203.067M197.67 203.067H214.727M197.67 203.067L205.98 195.419H223.037M214.727 203.067L223.037 195.419" stroke="url(#paint9_linear)"/>
<path d="M206.171 228.103H189.143V214.215L197.439 206.219H214.466V220.107L206.171 228.103Z" fill="#E8A62E"/>
<path d="M206.171 228.103H189.143V214.215M206.171 228.103V214.215M206.171 228.103L214.466 220.107V206.219M206.171 214.215H189.143M206.171 214.215L214.466 206.219M189.143 214.215L197.439 206.219H214.466" stroke="#A54008"/>
<path d="M206.171 228.103H189.143V214.215M206.171 228.103V214.215M206.171 228.103L214.466 220.107V206.219M206.171 214.215H189.143M206.171 214.215L214.466 206.219M189.143 214.215L197.439 206.219H214.466" stroke="url(#paint10_linear)"/>
<path d="M206.201 214.37H189.143V211.15L197.453 203.502H214.511V206.722L206.201 214.37Z" fill="#E8A62E"/>
<path d="M206.201 214.37H189.143V211.15L197.453 203.502H214.511V206.722L206.201 214.37Z" fill="url(#paint11_linear)"/>
<path d="M206.201 214.37H189.143V211.15M206.201 214.37L214.511 206.722V203.502M206.201 214.37V211.15M189.143 211.15H206.201M189.143 211.15L197.453 203.502H214.511M206.201 211.15L214.511 203.502" stroke="#A54008"/>
<path d="M206.201 214.37H189.143V211.15M206.201 214.37L214.511 206.722V203.502M206.201 214.37V211.15M189.143 211.15H206.201M189.143 211.15L197.453 203.502H214.511M206.201 211.15L214.511 203.502" stroke="url(#paint12_linear)"/>
<path d="M197.715 236.254H180.687V222.366L188.983 214.37H206.01V228.258L197.715 236.254Z" fill="#E8A62E"/>
<path d="M197.715 236.254H180.687V222.366M197.715 236.254V222.366M197.715 236.254L206.01 228.258V214.37M197.715 222.366H180.687M197.715 222.366L206.01 214.37M180.687 222.366L188.983 214.37H206.01" stroke="#A54008"/>
<path d="M197.715 236.254H180.687V222.366M197.715 236.254V222.366M197.715 236.254L206.01 228.258V214.37M197.715 222.366H180.687M197.715 222.366L206.01 214.37M180.687 222.366L188.983 214.37H206.01" stroke="url(#paint13_linear)"/>
<path d="M197.745 222.52H180.687V219.3L188.997 211.652H206.055V214.872L197.745 222.52Z" fill="#E8A62E"/>
<path d="M197.745 222.52H180.687V219.3L188.997 211.652H206.055V214.872L197.745 222.52Z" fill="url(#paint14_linear)"/>
<path d="M197.745 222.52H180.687V219.3M197.745 222.52L206.055 214.872V211.652M197.745 222.52V219.3M180.687 219.3H197.745M180.687 219.3L188.997 211.652H206.055M197.745 219.3L206.055 211.652" stroke="#A54008"/>
<path d="M197.745 222.52H180.687V219.3M197.745 222.52L206.055 214.872V211.652M197.745 222.52V219.3M180.687 219.3H197.745M180.687 219.3L188.997 211.652H206.055M197.745 219.3L206.055 211.652" stroke="url(#paint15_linear)"/>
<path d="M144.866 210.715H127.838V196.827L136.134 188.831H153.161V202.719L144.866 210.715Z" fill="#E8A62E"/>
<path d="M144.866 210.715H127.838V196.827M144.866 210.715V196.827M144.866 210.715L153.161 202.719V188.831M144.866 196.827H127.838M144.866 196.827L153.161 188.831M127.838 196.827L136.134 188.831H153.161" stroke="#A54008"/>
<path d="M144.866 210.715H127.838V196.827M144.866 210.715V196.827M144.866 210.715L153.161 202.719V188.831M144.866 196.827H127.838M144.866 196.827L153.161 188.831M127.838 196.827L136.134 188.831H153.161" stroke="url(#paint16_linear)"/>
<path d="M144.896 196.981H127.838V193.761L136.148 186.113H153.206V189.333L144.896 196.981Z" fill="#E8A62E"/>
<path d="M144.896 196.981H127.838V193.761L136.148 186.113H153.206V189.333L144.896 196.981Z" fill="url(#paint17_linear)"/>
<path d="M144.896 196.981H127.838V193.761M144.896 196.981L153.206 189.333V186.113M144.896 196.981V193.761M127.838 193.761H144.896M127.838 193.761L136.148 186.113H153.206M144.896 193.761L153.206 186.113" stroke="#A54008"/>
<path d="M144.896 196.981H127.838V193.761M144.896 196.981L153.206 189.333V186.113M144.896 196.981V193.761M127.838 193.761H144.896M127.838 193.761L136.148 186.113H153.206M144.896 193.761L153.206 186.113" stroke="url(#paint18_linear)"/>
<path d="M154.731 244.678H137.703V230.789L145.999 222.793H163.026V236.681L154.731 244.678Z" fill="#E8A62E"/>
<path d="M154.731 244.678H137.703V230.789M154.731 244.678V230.789M154.731 244.678L163.026 236.681V222.793M154.731 230.789H137.703M154.731 230.789L163.026 222.793M137.703 230.789L145.999 222.793H163.026" stroke="#A54008"/>
<path d="M154.731 244.678H137.703V230.789M154.731 244.678V230.789M154.731 244.678L163.026 236.681V222.793M154.731 230.789H137.703M154.731 230.789L163.026 222.793M137.703 230.789L145.999 222.793H163.026" stroke="url(#paint19_linear)"/>
<path d="M154.761 230.944H137.703V227.723L146.013 220.076H163.071V223.296L154.761 230.944Z" fill="#E8A62E"/>
<path d="M154.761 230.944H137.703V227.723L146.013 220.076H163.071V223.296L154.761 230.944Z" fill="url(#paint20_linear)"/>
<path d="M154.761 230.944H137.703V227.723M154.761 230.944L163.071 223.296V220.076M154.761 230.944V227.723M137.703 227.723H154.761M137.703 227.723L146.013 220.076H163.071M154.761 227.723L163.071 220.076" stroke="#A54008"/>
<path d="M154.761 230.944H137.703V227.723M154.761 230.944L163.071 223.296V220.076M154.761 230.944V227.723M137.703 227.723H154.761M137.703 227.723L146.013 220.076H163.071M154.761 227.723L163.071 220.076" stroke="url(#paint21_linear)"/>
<path d="M136.41 218.866H119.382V204.978L127.678 196.981H144.705V210.87L136.41 218.866Z" fill="#E8A62E"/>
<path d="M136.41 218.866H119.382V204.978M136.41 218.866V204.978M136.41 218.866L144.705 210.87V196.981M136.41 204.978H119.382M136.41 204.978L144.705 196.981M119.382 204.978L127.678 196.981H144.705" stroke="#A54008"/>
<path d="M136.41 218.866H119.382V204.978M136.41 218.866V204.978M136.41 218.866L144.705 210.87V196.981M136.41 204.978H119.382M136.41 204.978L144.705 196.981M119.382 204.978L127.678 196.981H144.705" stroke="url(#paint22_linear)"/>
<path d="M136.44 205.133H119.382V201.912L127.692 194.265H144.75V197.485L136.44 205.133Z" fill="#E8A62E"/>
<path d="M136.44 205.133H119.382V201.912L127.692 194.265H144.75V197.485L136.44 205.133Z" fill="url(#paint23_linear)"/>
<path d="M136.44 205.133H119.382V201.912M136.44 205.133L144.75 197.485V194.265M136.44 205.133V201.912M119.382 201.912H136.44M119.382 201.912L127.692 194.265H144.75M136.44 201.912L144.75 194.265" stroke="#A54008"/>
<path d="M136.44 205.133H119.382V201.912M136.44 205.133L144.75 197.485V194.265M136.44 205.133V201.912M119.382 201.912H136.44M119.382 201.912L127.692 194.265H144.75M136.44 201.912L144.75 194.265" stroke="url(#paint24_linear)"/>
<path d="M157.831 258.67H140.804V244.781L149.099 236.785H166.127V250.673L157.831 258.67Z" fill="#E8A62E"/>
<path d="M157.831 258.67H140.804V244.781M157.831 258.67V244.781M157.831 258.67L166.127 250.673V236.785M157.831 244.781H140.804M157.831 244.781L166.127 236.785M140.804 244.781L149.099 236.785H166.127" stroke="#A54008"/>
<path d="M157.831 258.67H140.804V244.781M157.831 258.67V244.781M157.831 258.67L166.127 250.673V236.785M157.831 244.781H140.804M157.831 244.781L166.127 236.785M140.804 244.781L149.099 236.785H166.127" stroke="url(#paint25_linear)"/>
<path d="M157.861 244.936H140.804V241.716L149.114 234.068H166.171V237.288L157.861 244.936Z" fill="#E8A62E"/>
<path d="M157.861 244.936H140.804V241.716L149.114 234.068H166.171V237.288L157.861 244.936Z" fill="url(#paint26_linear)"/>
<path d="M157.861 244.936H140.804V241.716M157.861 244.936L166.171 237.288V234.068M157.861 244.936V241.716M140.804 241.716H157.861M140.804 241.716L149.114 234.068H166.171M157.861 241.716L166.171 234.068" stroke="#A54008"/>
<path d="M157.861 244.936H140.804V241.716M157.861 244.936L166.171 237.288V234.068M157.861 244.936V241.716M140.804 241.716H157.861M140.804 241.716L149.114 234.068H166.171M157.861 241.716L166.171 234.068" stroke="url(#paint27_linear)"/>
<path d="M132.182 266.82H115.154V252.932L123.45 244.936H140.477V258.824L132.182 266.82Z" fill="#E8A62E"/>
<path d="M132.182 266.82H115.154V252.932M132.182 266.82V252.932M132.182 266.82L140.477 258.824V244.936M132.182 252.932H115.154M132.182 252.932L140.477 244.936M115.154 252.932L123.45 244.936H140.477" stroke="#A54008"/>
<path d="M132.182 266.82H115.154V252.932M132.182 266.82V252.932M132.182 266.82L140.477 258.824V244.936M132.182 252.932H115.154M132.182 252.932L140.477 244.936M115.154 252.932L123.45 244.936H140.477" stroke="url(#paint28_linear)"/>
<path d="M132.212 253.086H115.154V249.866L123.464 242.218H140.522V245.438L132.212 253.086Z" fill="#E8A62E"/>
<path d="M132.212 253.086H115.154V249.866L123.464 242.218H140.522V245.438L132.212 253.086Z" fill="url(#paint29_linear)"/>
<path d="M132.212 253.086H115.154V249.866M132.212 253.086L140.522 245.438V242.218M132.212 253.086V249.866M115.154 249.866H132.212M115.154 249.866L123.464 242.218H140.522M132.212 249.866L140.522 242.218" stroke="#A54008"/>
<path d="M132.212 253.086H115.154V249.866M132.212 253.086L140.522 245.438V242.218M132.212 253.086V249.866M115.154 249.866H132.212M115.154 249.866L123.464 242.218H140.522M132.212 249.866L140.522 242.218" stroke="url(#paint30_linear)"/>
<g filter="url(#filter0_d)">
<path d="M187.145 188.639H170.118V174.751L178.413 166.755H195.44V180.643L187.145 188.639Z" fill="#C6344A"/>
<path d="M187.145 188.639H170.118V174.751M187.145 188.639V174.751M187.145 188.639L195.44 180.643V166.755M187.145 174.751H170.118M187.145 174.751L195.44 166.755M170.118 174.751L178.413 166.755H195.44" stroke="#800732" stroke-width="0.3"/>
<path d="M187.145 188.639H170.118V174.751M187.145 188.639V174.751M187.145 188.639L195.44 180.643V166.755M187.145 174.751H170.118M187.145 174.751L195.44 166.755M170.118 174.751L178.413 166.755H195.44" stroke="url(#paint31_linear)" stroke-width="0.3"/>
<path d="M187.175 174.906H170.118V171.685L178.428 164.038H195.485V167.258L187.175 174.906Z" fill="#C6344A"/>
<path d="M187.175 174.906H170.118V171.685L178.428 164.038H195.485V167.258L187.175 174.906Z" fill="url(#paint32_linear)"/>
<path d="M187.175 174.906H170.118V171.685M187.175 174.906L195.485 167.258V164.038M187.175 174.906V171.685M170.118 171.685H187.175M170.118 171.685L178.428 164.038H195.485M187.175 171.685L195.485 164.038" stroke="#800732" stroke-width="0.3"/>
<path d="M187.175 174.906H170.118V171.685M187.175 174.906L195.485 167.258V164.038M187.175 174.906V171.685M170.118 171.685H187.175M170.118 171.685L178.428 164.038H195.485M187.175 171.685L195.485 164.038" stroke="url(#paint33_linear)" stroke-width="0.3"/>
<path d="M223.083 198.149H206.055V184.26L214.35 176.264H231.378V190.152L223.083 198.149Z" fill="#C6344A"/>
<path d="M223.083 198.149H206.055V184.26M223.083 198.149V184.26M223.083 198.149L231.378 190.152V176.264M223.083 184.26H206.055M223.083 184.26L231.378 176.264M206.055 184.26L214.35 176.264H231.378" stroke="#800732" stroke-width="0.3"/>
<path d="M223.083 198.149H206.055V184.26M223.083 198.149V184.26M223.083 198.149L231.378 190.152V176.264M223.083 184.26H206.055M223.083 184.26L231.378 176.264M206.055 184.26L214.35 176.264H231.378" stroke="url(#paint34_linear)" stroke-width="0.3"/>
<path d="M144.866 196.79H127.838V182.902L136.134 174.905H153.161V188.794L144.866 196.79Z" fill="#C6344A"/>
<path d="M144.866 196.79H127.838V182.902M144.866 196.79V182.902M144.866 196.79L153.161 188.794V174.905M144.866 182.902H127.838M144.866 182.902L153.161 174.905M127.838 182.902L136.134 174.905H153.161" stroke="#800732" stroke-width="0.3"/>
<path d="M144.866 196.79H127.838V182.902M144.866 196.79V182.902M144.866 196.79L153.161 188.794V174.905M144.866 182.902H127.838M144.866 182.902L153.161 174.905M127.838 182.902L136.134 174.905H153.161" stroke="url(#paint35_linear)" stroke-width="0.3"/>
<path d="M144.896 183.056H127.838V179.836L136.148 172.188H153.206V175.408L144.896 183.056Z" fill="#C6344A"/>
<path d="M144.896 183.056H127.838V179.836L136.148 172.188H153.206V175.408L144.896 183.056Z" fill="url(#paint36_linear)"/>
<path d="M144.896 183.056H127.838V179.836M144.896 183.056L153.206 175.408V172.188M144.896 183.056V179.836M127.838 179.836H144.896M127.838 179.836L136.148 172.188H153.206M144.896 179.836L153.206 172.188" stroke="#800732" stroke-width="0.3"/>
<path d="M144.896 183.056H127.838V179.836M144.896 183.056L153.206 175.408V172.188M144.896 183.056V179.836M127.838 179.836H144.896M127.838 179.836L136.148 172.188H153.206M144.896 179.836L153.206 172.188" stroke="url(#paint37_linear)" stroke-width="0.3"/>
<path d="M154.731 230.752H137.703V216.864L145.999 208.868H163.026V222.756L154.731 230.752Z" fill="#C6344A"/>
<path d="M154.731 230.752H137.703V216.864M154.731 230.752V216.864M154.731 230.752L163.026 222.756V208.868M154.731 216.864H137.703M154.731 216.864L163.026 208.868M137.703 216.864L145.999 208.868H163.026" stroke="#800732" stroke-width="0.3"/>
<path d="M154.731 230.752H137.703V216.864M154.731 230.752V216.864M154.731 230.752L163.026 222.756V208.868M154.731 216.864H137.703M154.731 216.864L163.026 208.868M137.703 216.864L145.999 208.868H163.026" stroke="url(#paint38_linear)" stroke-width="0.3"/>
<path d="M154.761 217.018H137.703V213.798L146.013 206.15H163.071V209.371L154.761 217.018Z" fill="#C6344A"/>
<path d="M154.761 217.018H137.703V213.798L146.013 206.15H163.071V209.371L154.761 217.018Z" fill="url(#paint39_linear)"/>
<path d="M154.761 217.018H137.703V213.798M154.761 217.018L163.071 209.371V206.15M154.761 217.018V213.798M137.703 213.798H154.761M137.703 213.798L146.013 206.15H163.071M154.761 213.798L163.071 206.15" stroke="#800732" stroke-width="0.3"/>
<path d="M154.761 217.018H137.703V213.798M154.761 217.018L163.071 209.371V206.15M154.761 217.018V213.798M137.703 213.798H154.761M137.703 213.798L146.013 206.15H163.071M154.761 213.798L163.071 206.15" stroke="url(#paint40_linear)" stroke-width="0.3"/>
<path d="M136.41 204.941H119.382V191.052L127.678 183.056H144.705V196.944L136.41 204.941Z" fill="#C6344A"/>
<path d="M136.41 204.941H119.382V191.052M136.41 204.941V191.052M136.41 204.941L144.705 196.944V183.056M136.41 191.052H119.382M136.41 191.052L144.705 183.056M119.382 191.052L127.678 183.056H144.705" stroke="#800732" stroke-width="0.3"/>
<path d="M136.41 204.941H119.382V191.052M136.41 204.941V191.052M136.41 204.941L144.705 196.944V183.056M136.41 191.052H119.382M136.41 191.052L144.705 183.056M119.382 191.052L127.678 183.056H144.705" stroke="url(#paint41_linear)" stroke-width="0.3"/>
<path d="M136.44 191.207H119.382V187.987L127.692 180.339H144.75V183.559L136.44 191.207Z" fill="#C6344A"/>
<path d="M136.44 191.207H119.382V187.987L127.692 180.339H144.75V183.559L136.44 191.207Z" fill="url(#paint42_linear)"/>
<path d="M136.44 191.207H119.382V187.987M136.44 191.207L144.75 183.559V180.339M136.44 191.207V187.987M119.382 187.987H136.44M119.382 187.987L127.692 180.339H144.75M136.44 187.987L144.75 180.339" stroke="#800732" stroke-width="0.3"/>
<path d="M136.44 191.207H119.382V187.987M136.44 191.207L144.75 183.559V180.339M136.44 191.207V187.987M119.382 187.987H136.44M119.382 187.987L127.692 180.339H144.75M136.44 187.987L144.75 180.339" stroke="url(#paint43_linear)" stroke-width="0.3"/>
<path d="M157.831 244.744H140.804V230.856L149.099 222.86H166.127V236.748L157.831 244.744Z" fill="#C6344A"/>
<path d="M157.831 244.744H140.804V230.856M157.831 244.744V230.856M157.831 244.744L166.127 236.748V222.86M157.831 230.856H140.804M157.831 230.856L166.127 222.86M140.804 230.856L149.099 222.86H166.127" stroke="#800732" stroke-width="0.3"/>
<path d="M157.831 244.744H140.804V230.856M157.831 244.744V230.856M157.831 244.744L166.127 236.748V222.86M157.831 230.856H140.804M157.831 230.856L166.127 222.86M140.804 230.856L149.099 222.86H166.127" stroke="url(#paint44_linear)" stroke-width="0.3"/>
<path d="M157.861 231.011H140.804V227.79L149.114 220.143H166.171V223.363L157.861 231.011Z" fill="#C6344A"/>
<path d="M157.861 231.011H140.804V227.79L149.114 220.143H166.171V223.363L157.861 231.011Z" fill="url(#paint45_linear)"/>
<path d="M157.861 231.011H140.804V227.79M157.861 231.011L166.171 223.363V220.143M157.861 231.011V227.79M140.804 227.79H157.861M140.804 227.79L149.114 220.143H166.171M157.861 227.79L166.171 220.143" stroke="#800732" stroke-width="0.3"/>
<path d="M157.861 231.011H140.804V227.79M157.861 231.011L166.171 223.363V220.143M157.861 231.011V227.79M140.804 227.79H157.861M140.804 227.79L149.114 220.143H166.171M157.861 227.79L166.171 220.143" stroke="url(#paint46_linear)" stroke-width="0.3"/>
<path d="M132.182 252.895H115.154V239.007L123.45 231.011H140.477V244.899L132.182 252.895Z" fill="#C6344A"/>
<path d="M132.182 252.895H115.154V239.007M132.182 252.895V239.007M132.182 252.895L140.477 244.899V231.011M132.182 239.007H115.154M132.182 239.007L140.477 231.011M115.154 239.007L123.45 231.011H140.477" stroke="#800732" stroke-width="0.3"/>
<path d="M132.182 252.895H115.154V239.007M132.182 252.895V239.007M132.182 252.895L140.477 244.899V231.011M132.182 239.007H115.154M132.182 239.007L140.477 231.011M115.154 239.007L123.45 231.011H140.477" stroke="url(#paint47_linear)" stroke-width="0.3"/>
<path d="M132.212 239.162H115.154V235.942L123.464 228.294H140.522V231.514L132.212 239.162Z" fill="#C6344A"/>
<path d="M132.212 239.162H115.154V235.942L123.464 228.294H140.522V231.514L132.212 239.162Z" fill="url(#paint48_linear)"/>
<path d="M132.212 239.162H115.154V235.942M132.212 239.162L140.522 231.514V228.294M132.212 239.162V235.942M115.154 235.942H132.212M115.154 235.942L123.464 228.294H140.522M132.212 235.942L140.522 228.294" stroke="#800732" stroke-width="0.3"/>
<path d="M132.212 239.162H115.154V235.942M132.212 239.162L140.522 231.514V228.294M132.212 239.162V235.942M115.154 235.942H132.212M115.154 235.942L123.464 228.294H140.522M132.212 235.942L140.522 228.294" stroke="url(#paint49_linear)" stroke-width="0.3"/>
<path d="M223.083 184.903H206.055V171.015L214.35 163.019H231.378V176.907L223.083 184.903Z" fill="#EFE123"/>
<path d="M223.083 184.903H206.055V171.015M223.083 184.903V171.015M223.083 184.903L231.378 176.907V163.019M223.083 171.015H206.055M223.083 171.015L231.378 163.019M206.055 171.015L214.35 163.019H231.378" stroke="#989B05" stroke-width="0.3"/>
<path d="M223.083 184.903H206.055V171.015M223.083 184.903V171.015M223.083 184.903L231.378 176.907V163.019M223.083 171.015H206.055M223.083 171.015L231.378 163.019M206.055 171.015L214.35 163.019H231.378" stroke="url(#paint50_linear)" stroke-width="0.3"/>
<path d="M223.113 171.17H206.055V167.95L214.365 160.302H231.423V163.522L223.113 171.17Z" fill="#EFE123"/>
<path d="M223.113 171.17H206.055V167.95L214.365 160.302H231.423V163.522L223.113 171.17Z" fill="url(#paint51_linear)"/>
<path d="M223.113 171.17H206.055V167.95M223.113 171.17L231.423 163.522V160.302M223.113 171.17V167.95M206.055 167.95H223.113M206.055 167.95L214.365 160.302H231.423M223.113 167.95L231.423 160.302" stroke="#989B05" stroke-width="0.3"/>
<path d="M223.113 171.17H206.055V167.95M223.113 171.17L231.423 163.522V160.302M223.113 171.17V167.95M206.055 167.95H223.113M206.055 167.95L214.365 160.302H231.423M223.113 167.95L231.423 160.302" stroke="url(#paint52_linear)" stroke-width="0.3"/>
<path d="M214.697 206.096H197.67V192.207L205.965 184.211H222.993V198.099L214.697 206.096Z" fill="#C6344A"/>
<path d="M214.697 206.096H197.67V192.207M214.697 206.096V192.207M214.697 206.096L222.993 198.099V184.211M214.697 192.207H197.67M214.697 192.207L222.993 184.211M197.67 192.207L205.965 184.211H222.993" stroke="#800732" stroke-width="0.3"/>
<path d="M214.697 206.096H197.67V192.207M214.697 206.096V192.207M214.697 206.096L222.993 198.099V184.211M214.697 192.207H197.67M214.697 192.207L222.993 184.211M197.67 192.207L205.965 184.211H222.993" stroke="url(#paint53_linear)" stroke-width="0.3"/>
<path d="M214.727 192.362H197.67V189.142L205.98 181.494H223.037V184.714L214.727 192.362Z" fill="#C6344A"/>
<path d="M214.727 192.362H197.67V189.142L205.98 181.494H223.037V184.714L214.727 192.362Z" fill="url(#paint54_linear)"/>
<path d="M214.727 192.362H197.67V189.142M214.727 192.362L223.037 184.714V181.494M214.727 192.362V189.142M197.67 189.142H214.727M197.67 189.142L205.98 181.494H223.037M214.727 189.142L223.037 181.494" stroke="#800732" stroke-width="0.3"/>
<path d="M214.727 192.362H197.67V189.142M214.727 192.362L223.037 184.714V181.494M214.727 192.362V189.142M197.67 189.142H214.727M197.67 189.142L205.98 181.494H223.037M214.727 189.142L223.037 181.494" stroke="url(#paint55_linear)" stroke-width="0.3"/>
<path d="M206.171 214.179H189.143V200.29L197.439 192.294H214.466V206.182L206.171 214.179Z" fill="#C6344A"/>
<path d="M206.171 214.179H189.143V200.29M206.171 214.179V200.29M206.171 214.179L214.466 206.182V192.294M206.171 200.29H189.143M206.171 200.29L214.466 192.294M189.143 200.29L197.439 192.294H214.466" stroke="#800732" stroke-width="0.3"/>
<path d="M206.171 214.179H189.143V200.29M206.171 214.179V200.29M206.171 214.179L214.466 206.182V192.294M206.171 200.29H189.143M206.171 200.29L214.466 192.294M189.143 200.29L197.439 192.294H214.466" stroke="url(#paint56_linear)" stroke-width="0.3"/>
<path d="M206.201 200.445H189.143V197.224L197.453 189.577H214.511V192.797L206.201 200.445Z" fill="#C6344A"/>
<path d="M206.201 200.445H189.143V197.224L197.453 189.577H214.511V192.797L206.201 200.445Z" fill="url(#paint57_linear)"/>
<path d="M206.201 200.445H189.143V197.224M206.201 200.445L214.511 192.797V189.577M206.201 200.445V197.224M189.143 197.224H206.201M189.143 197.224L197.453 189.577H214.511M206.201 197.224L214.511 189.577" stroke="#800732" stroke-width="0.3"/>
<path d="M206.201 200.445H189.143V197.224M206.201 200.445L214.511 192.797V189.577M206.201 200.445V197.224M189.143 197.224H206.201M189.143 197.224L197.453 189.577H214.511M206.201 197.224L214.511 189.577" stroke="url(#paint58_linear)" stroke-width="0.3"/>
<path d="M197.715 222.329H180.687V208.441L188.983 200.444H206.01V214.333L197.715 222.329Z" fill="#C6344A"/>
<path d="M197.715 222.329H180.687V208.441M197.715 222.329V208.441M197.715 222.329L206.01 214.333V200.444M197.715 208.441H180.687M197.715 208.441L206.01 200.444M180.687 208.441L188.983 200.444H206.01" stroke="#800732" stroke-width="0.3"/>
<path d="M197.715 222.329H180.687V208.441M197.715 222.329V208.441M197.715 222.329L206.01 214.333V200.444M197.715 208.441H180.687M197.715 208.441L206.01 200.444M180.687 208.441L188.983 200.444H206.01" stroke="url(#paint59_linear)" stroke-width="0.3"/>
<path d="M197.745 208.595H180.687V205.375L188.997 197.728H206.055V200.948L197.745 208.595Z" fill="#C6344A"/>
<path d="M197.745 208.595H180.687V205.375L188.997 197.728H206.055V200.948L197.745 208.595Z" fill="url(#paint60_linear)"/>
<path d="M197.745 208.595H180.687V205.375M197.745 208.595L206.055 200.948V197.728M197.745 208.595V205.375M180.687 205.375H197.745M180.687 205.375L188.997 197.728H206.055M197.745 205.375L206.055 197.728" stroke="#800732" stroke-width="0.3"/>
<path d="M197.745 208.595H180.687V205.375M197.745 208.595L206.055 200.948V197.728M197.745 208.595V205.375M180.687 205.375H197.745M180.687 205.375L188.997 197.728H206.055M197.745 205.375L206.055 197.728" stroke="url(#paint61_linear)" stroke-width="0.3"/>
</g>
<g filter="url(#filter1_d)">
<path d="M187.145 175.054H170.118V161.166L178.413 153.169H195.44V167.058L187.145 175.054Z" fill="#62F2A6"/>
<path d="M187.145 175.054H170.118V161.166M187.145 175.054V161.166M187.145 175.054L195.44 167.058V153.169M187.145 161.166H170.118M187.145 161.166L195.44 153.169M170.118 161.166L178.413 153.169H195.44" stroke="#032C13"/>
<path d="M187.145 175.054H170.118V161.166M187.145 175.054V161.166M187.145 175.054L195.44 167.058V153.169M187.145 161.166H170.118M187.145 161.166L195.44 153.169M170.118 161.166L178.413 153.169H195.44" stroke="url(#paint62_linear)"/>
<path d="M144.866 183.205H127.838V169.317L136.134 161.321H153.161V175.209L144.866 183.205Z" fill="#62F2A6"/>
<path d="M144.866 183.205H127.838V169.317M144.866 183.205V169.317M144.866 183.205L153.161 175.209V161.321M144.866 169.317H127.838M144.866 169.317L153.161 161.321M127.838 169.317L136.134 161.321H153.161" stroke="#032C13"/>
<path d="M144.866 183.205H127.838V169.317M144.866 183.205V169.317M144.866 183.205L153.161 175.209V161.321M144.866 169.317H127.838M144.866 169.317L153.161 161.321M127.838 169.317L136.134 161.321H153.161" stroke="url(#paint63_linear)"/>
<path d="M144.896 169.471H127.838V166.251L136.148 158.604H153.206V161.824L144.896 169.471Z" fill="#62F2A6"/>
<path d="M144.896 169.471H127.838V166.251L136.148 158.604H153.206V161.824L144.896 169.471Z" fill="url(#paint64_linear)"/>
<path d="M144.896 169.471H127.838V166.251M144.896 169.471L153.206 161.824V158.604M144.896 169.471V166.251M127.838 166.251H144.896M127.838 166.251L136.148 158.604H153.206M144.896 166.251L153.206 158.604" stroke="#032C13"/>
<path d="M144.896 169.471H127.838V166.251M144.896 169.471L153.206 161.824V158.604M144.896 169.471V166.251M127.838 166.251H144.896M127.838 166.251L136.148 158.604H153.206M144.896 166.251L153.206 158.604" stroke="url(#paint65_linear)"/>
<path d="M154.731 217.168H137.703V203.28L145.999 195.283H163.026V209.172L154.731 217.168Z" fill="#62F2A6"/>
<path d="M154.731 217.168H137.703V203.279M154.731 217.168V203.279M154.731 217.168L163.026 209.172V195.283M154.731 203.279H137.703M154.731 203.279L163.026 195.283M137.703 203.279L145.999 195.283H163.026" stroke="#032C13"/>
<path d="M154.731 217.168H137.703V203.279M154.731 217.168V203.279M154.731 217.168L163.026 209.172V195.283M154.731 203.279H137.703M154.731 203.279L163.026 195.283M137.703 203.279L145.999 195.283H163.026" stroke="url(#paint66_linear)"/>
<path d="M154.761 203.434H137.703V200.214L146.013 192.566H163.071V195.786L154.761 203.434Z" fill="#62F2A6"/>
<path d="M154.761 203.434H137.703V200.214L146.013 192.566H163.071V195.786L154.761 203.434Z" fill="url(#paint67_linear)"/>
<path d="M154.761 203.434H137.703V200.214M154.761 203.434L163.071 195.786V192.566M154.761 203.434V200.214M137.703 200.214H154.761M137.703 200.214L146.013 192.566H163.071M154.761 200.214L163.071 192.566" stroke="#032C13"/>
<path d="M154.761 203.434H137.703V200.214M154.761 203.434L163.071 195.786V192.566M154.761 203.434V200.214M137.703 200.214H154.761M137.703 200.214L146.013 192.566H163.071M154.761 200.214L163.071 192.566" stroke="url(#paint68_linear)"/>
<path d="M136.41 191.356H119.382V177.468L127.678 169.472H144.705V183.36L136.41 191.356Z" fill="#62F2A6"/>
<path d="M136.41 191.356H119.382V177.468M136.41 191.356V177.468M136.41 191.356L144.705 183.36V169.472M136.41 177.468H119.382M136.41 177.468L144.705 169.472M119.382 177.468L127.678 169.472H144.705" stroke="#032C13"/>
<path d="M136.41 191.356H119.382V177.468M136.41 191.356V177.468M136.41 191.356L144.705 183.36V169.472M136.41 177.468H119.382M136.41 177.468L144.705 169.472M119.382 177.468L127.678 169.472H144.705" stroke="url(#paint69_linear)"/>
<path d="M136.44 177.623H119.382V174.403L127.692 166.755H144.75V169.975L136.44 177.623Z" fill="#62F2A6"/>
<path d="M136.44 177.623H119.382V174.403L127.692 166.755H144.75V169.975L136.44 177.623Z" fill="url(#paint70_linear)"/>
<path d="M136.44 177.623H119.382V174.403M136.44 177.623L144.75 169.975V166.755M136.44 177.623V174.403M119.382 174.403H136.44M119.382 174.403L127.692 166.755H144.75M136.44 174.403L144.75 166.755" stroke="#032C13"/>
<path d="M136.44 177.623H119.382V174.403M136.44 177.623L144.75 169.975V166.755M136.44 177.623V174.403M119.382 174.403H136.44M119.382 174.403L127.692 166.755H144.75M136.44 174.403L144.75 166.755" stroke="url(#paint71_linear)"/>
<path d="M157.831 231.16H140.804V217.272L149.099 209.275H166.127V223.164L157.831 231.16Z" fill="#62F2A6"/>
<path d="M157.831 231.16H140.804V217.272M157.831 231.16V217.272M157.831 231.16L166.127 223.164V209.275M157.831 217.272H140.804M157.831 217.272L166.127 209.275M140.804 217.272L149.099 209.275H166.127" stroke="#032C13"/>
<path d="M157.831 231.16H140.804V217.272M157.831 231.16V217.272M157.831 231.16L166.127 223.164V209.275M157.831 217.272H140.804M157.831 217.272L166.127 209.275M140.804 217.272L149.099 209.275H166.127" stroke="url(#paint72_linear)"/>
<path d="M157.861 217.426H140.804V214.206L149.114 206.558H166.171V209.778L157.861 217.426Z" fill="#62F2A6"/>
<path d="M157.861 217.426H140.804V214.206L149.114 206.558H166.171V209.778L157.861 217.426Z" fill="url(#paint73_linear)"/>
<path d="M157.861 217.426H140.804V214.206M157.861 217.426L166.171 209.778V206.558M157.861 217.426V214.206M140.804 214.206H157.861M140.804 214.206L149.114 206.558H166.171M157.861 214.206L166.171 206.558" stroke="#032C13"/>
<path d="M157.861 217.426H140.804V214.206M157.861 217.426L166.171 209.778V206.558M157.861 217.426V214.206M140.804 214.206H157.861M140.804 214.206L149.114 206.558H166.171M157.861 214.206L166.171 206.558" stroke="url(#paint74_linear)"/>
<path d="M132.182 239.311H115.154V225.423L123.45 217.426H140.477V231.315L132.182 239.311Z" fill="#62F2A6"/>
<path d="M132.182 239.311H115.154V225.423M132.182 239.311V225.423M132.182 239.311L140.477 231.315V217.426M132.182 225.423H115.154M132.182 225.423L140.477 217.426M115.154 225.423L123.45 217.426H140.477" stroke="#032C13"/>
<path d="M132.182 239.311H115.154V225.423M132.182 239.311V225.423M132.182 239.311L140.477 231.315V217.426M132.182 225.423H115.154M132.182 225.423L140.477 217.426M115.154 225.423L123.45 217.426H140.477" stroke="url(#paint75_linear)"/>
<path d="M132.212 225.577H115.154V222.357L123.464 214.709H140.522V217.929L132.212 225.577Z" fill="#62F2A6"/>
<path d="M132.212 225.577H115.154V222.357L123.464 214.709H140.522V217.929L132.212 225.577Z" fill="url(#paint76_linear)"/>
<path d="M132.212 225.577H115.154V222.357M132.212 225.577L140.522 217.929V214.709M132.212 225.577V222.357M115.154 222.357H132.212M115.154 222.357L123.464 214.709H140.522M132.212 222.357L140.522 214.709" stroke="#032C13"/>
<path d="M132.212 225.577H115.154V222.357M132.212 225.577L140.522 217.929V214.709M132.212 225.577V222.357M115.154 222.357H132.212M115.154 222.357L123.464 214.709H140.522M132.212 222.357L140.522 214.709" stroke="url(#paint77_linear)"/>
<path d="M223.082 171.319H206.055V157.43L214.35 149.434H231.378V163.322L223.082 171.319Z" fill="#E8A62E"/>
<path d="M223.082 171.319H206.055V157.43M223.082 171.319V157.43M223.082 171.319L231.378 163.322V149.434M223.082 157.43H206.055M223.082 157.43L231.378 149.434M206.055 157.43L214.35 149.434H231.378" stroke="#A54008"/>
<path d="M223.082 171.319H206.055V157.43M223.082 171.319V157.43M223.082 171.319L231.378 163.322V149.434M223.082 157.43H206.055M223.082 157.43L231.378 149.434M206.055 157.43L214.35 149.434H231.378" stroke="url(#paint78_linear)"/>
<path d="M223.113 157.585H206.055V154.365L214.365 146.717H231.423V149.937L223.113 157.585Z" fill="#E8A62E"/>
<path d="M223.113 157.585H206.055V154.365L214.365 146.717H231.423V149.937L223.113 157.585Z" fill="url(#paint79_linear)"/>
<path d="M223.113 157.585H206.055V154.365M223.113 157.585L231.423 149.937V146.717M223.113 157.585V154.365M206.055 154.365H223.113M206.055 154.365L214.365 146.717H231.423M223.113 154.365L231.423 146.717" stroke="#A54008"/>
<path d="M223.113 157.585H206.055V154.365M223.113 157.585L231.423 149.937V146.717M223.113 157.585V154.365M206.055 154.365H223.113M206.055 154.365L214.365 146.717H231.423M223.113 154.365L231.423 146.717" stroke="url(#paint80_linear)"/>
<path d="M214.697 192.511H197.67V178.623L205.965 170.626H222.993V184.515L214.697 192.511Z" fill="#62F2A6"/>
<path d="M214.697 192.511H197.67V178.623M214.697 192.511V178.623M214.697 192.511L222.993 184.515V170.626M214.697 178.623H197.67M214.697 178.623L222.993 170.626M197.67 178.623L205.965 170.626H222.993" stroke="#032C13"/>
<path d="M214.697 192.511H197.67V178.623M214.697 192.511V178.623M214.697 192.511L222.993 184.515V170.626M214.697 178.623H197.67M214.697 178.623L222.993 170.626M197.67 178.623L205.965 170.626H222.993" stroke="url(#paint81_linear)"/>
<path d="M214.727 178.778H197.67V175.557L205.98 167.91H223.037V171.13L214.727 178.778Z" fill="#62F2A6"/>
<path d="M214.727 178.778H197.67V175.557L205.98 167.91H223.037V171.13L214.727 178.778Z" fill="url(#paint82_linear)"/>
<path d="M214.727 178.778H197.67V175.557M214.727 178.778L223.037 171.13V167.91M214.727 178.778V175.557M197.67 175.557H214.727M197.67 175.557L205.98 167.91H223.037M214.727 175.557L223.037 167.91" stroke="#032C13"/>
<path d="M214.727 178.778H197.67V175.557M214.727 178.778L223.037 171.13V167.91M214.727 178.778V175.557M197.67 175.557H214.727M197.67 175.557L205.98 167.91H223.037M214.727 175.557L223.037 167.91" stroke="url(#paint83_linear)"/>
<path d="M206.171 200.594H189.143V186.705L197.439 178.709H214.466V192.597L206.171 200.594Z" fill="#62F2A6"/>
<path d="M206.171 200.594H189.143V186.705M206.171 200.594V186.705M206.171 200.594L214.466 192.597V178.709M206.171 186.705H189.143M206.171 186.705L214.466 178.709M189.143 186.705L197.439 178.709H214.466" stroke="#032C13"/>
<path d="M206.171 200.594H189.143V186.705M206.171 200.594V186.705M206.171 200.594L214.466 192.597V178.709M206.171 186.705H189.143M206.171 186.705L214.466 178.709M189.143 186.705L197.439 178.709H214.466" stroke="url(#paint84_linear)"/>
<path d="M206.201 186.86H189.143V183.64L197.453 175.992H214.511V179.212L206.201 186.86Z" fill="#62F2A6"/>
<path d="M206.201 186.86H189.143V183.64L197.453 175.992H214.511V179.212L206.201 186.86Z" fill="url(#paint85_linear)"/>
<path d="M206.201 186.86H189.143V183.64M206.201 186.86L214.511 179.212V175.992M206.201 186.86V183.64M189.143 183.64H206.201M189.143 183.64L197.453 175.992H214.511M206.201 183.64L214.511 175.992" stroke="#032C13"/>
<path d="M206.201 186.86H189.143V183.64M206.201 186.86L214.511 179.212V175.992M206.201 186.86V183.64M189.143 183.64H206.201M189.143 183.64L197.453 175.992H214.511M206.201 183.64L214.511 175.992" stroke="url(#paint86_linear)"/>
<path d="M197.715 208.745H180.687V194.857L188.983 186.86H206.01V200.749L197.715 208.745Z" fill="#62F2A6"/>
<path d="M197.715 208.745H180.687V194.857M197.715 208.745V194.857M197.715 208.745L206.01 200.749V186.86M197.715 194.857H180.687M197.715 194.857L206.01 186.86M180.687 194.857L188.983 186.86H206.01" stroke="#032C13"/>
<path d="M197.715 208.745H180.687V194.857M197.715 208.745V194.857M197.715 208.745L206.01 200.749V186.86M197.715 194.857H180.687M197.715 194.857L206.01 186.86M180.687 194.857L188.983 186.86H206.01" stroke="url(#paint87_linear)"/>
</g>
<g filter="url(#filter2_d)">
<rect x="101.561" y="0.5" width="50.9383" height="29.3675" rx="4.5" fill="url(#paint88_linear)" stroke="black"/>
<rect x="101.561" y="9.52783" width="50.9383" height="12.9526" fill="black" stroke="black"/>
<rect x="106.17" y="3.28271" width="4.25724" height="2.46223" rx="1" fill="black"/>
<ellipse cx="126.605" cy="15.5941" rx="8.51448" ry="8.20743" fill="white"/>
<path d="M133.768 15.5942C133.768 19.3805 130.578 22.4809 126.605 22.4809C122.631 22.4809 119.442 19.3805 119.442 15.5942C119.442 11.8079 122.631 8.70752 126.605 8.70752C130.578 8.70752 133.768 11.8079 133.768 15.5942Z" fill="#289DA5" stroke="black"/>
<ellipse cx="126.605" cy="15.5943" rx="2.12862" ry="2.05186" fill="#0E4D58"/>
<path d="M120.219 16.0046C120.287 17.3157 120.533 17.7767 121.07 18.4668L121.922 18.0565C121.255 17.1801 121.04 16.6494 121.07 15.5942L120.219 16.0046Z" fill="white"/>
<ellipse cx="125.327" cy="16.8249" rx="0.425724" ry="0.410371" fill="white"/>
</g>
<mask id="path-128-inside-1" fill="white">
<ellipse cx="194.205" cy="188.469" rx="2.94826" ry="0.997171"/>
</mask>
<ellipse cx="194.205" cy="188.469" rx="2.94826" ry="0.997171" fill="#62F2A6"/>
<ellipse cx="194.205" cy="188.469" rx="2.94826" ry="0.997171" fill="url(#paint89_linear)"/>
<path d="M196.154 188.469C196.154 188.175 196.331 188.049 196.297 188.076C196.274 188.095 196.177 188.156 195.97 188.227C195.565 188.364 194.941 188.466 194.205 188.466V190.466C195.098 190.466 195.949 190.345 196.611 190.121C196.936 190.011 197.272 189.857 197.547 189.638C197.811 189.426 198.154 189.038 198.154 188.469H196.154ZM194.205 188.466C193.47 188.466 192.846 188.364 192.441 188.227C192.233 188.156 192.137 188.095 192.113 188.076C192.08 188.049 192.257 188.175 192.257 188.469H190.257C190.257 189.038 190.6 189.426 190.864 189.638C191.139 189.857 191.474 190.011 191.8 190.121C192.462 190.345 193.313 190.466 194.205 190.466V188.466ZM192.257 188.469C192.257 188.763 192.08 188.889 192.113 188.862C192.137 188.843 192.233 188.781 192.441 188.711C192.846 188.574 193.47 188.472 194.205 188.472V186.472C193.313 186.472 192.462 186.593 191.8 186.816C191.474 186.927 191.139 187.08 190.864 187.3C190.6 187.511 190.257 187.9 190.257 188.469H192.257ZM194.205 188.472C194.941 188.472 195.565 188.574 195.97 188.711C196.177 188.781 196.274 188.843 196.297 188.862C196.331 188.889 196.154 188.763 196.154 188.469H198.154C198.154 187.9 197.811 187.511 197.547 187.3C197.272 187.08 196.936 186.927 196.611 186.816C195.949 186.593 195.098 186.472 194.205 186.472V188.472Z" fill="#032C13" mask="url(#path-128-inside-1)"/>
<path d="M196.154 188.469C196.154 188.175 196.331 188.049 196.297 188.076C196.274 188.095 196.177 188.156 195.97 188.227C195.565 188.364 194.941 188.466 194.205 188.466V190.466C195.098 190.466 195.949 190.345 196.611 190.121C196.936 190.011 197.272 189.857 197.547 189.638C197.811 189.426 198.154 189.038 198.154 188.469H196.154ZM194.205 188.466C193.47 188.466 192.846 188.364 192.441 188.227C192.233 188.156 192.137 188.095 192.113 188.076C192.08 188.049 192.257 188.175 192.257 188.469H190.257C190.257 189.038 190.6 189.426 190.864 189.638C191.139 189.857 191.474 190.011 191.8 190.121C192.462 190.345 193.313 190.466 194.205 190.466V188.466ZM192.257 188.469C192.257 188.763 192.08 188.889 192.113 188.862C192.137 188.843 192.233 188.781 192.441 188.711C192.846 188.574 193.47 188.472 194.205 188.472V186.472C193.313 186.472 192.462 186.593 191.8 186.816C191.474 186.927 191.139 187.08 190.864 187.3C190.6 187.511 190.257 187.9 190.257 188.469H192.257ZM194.205 188.472C194.941 188.472 195.565 188.574 195.97 188.711C196.177 188.781 196.274 188.843 196.297 188.862C196.331 188.889 196.154 188.763 196.154 188.469H198.154C198.154 187.9 197.811 187.511 197.547 187.3C197.272 187.08 196.936 186.927 196.611 186.816C195.949 186.593 195.098 186.472 194.205 186.472V188.472Z" fill="url(#paint90_linear)" fill-opacity="0.25" mask="url(#path-128-inside-1)"/>
<path d="M197.048 190.868L197.048 188.469" stroke="#032C13"/>
<path d="M197.048 190.868L197.048 188.469" stroke="url(#paint91_linear)" stroke-opacity="0.25"/>
<path d="M191.327 190.868V188.469" stroke="#032C13"/>
<path d="M191.327 190.868V188.469" stroke="url(#paint92_linear)" stroke-opacity="0.25"/>
<path d="M191.257 190.868C193.815 191.789 195.074 191.758 197.036 190.868" stroke="#032C13"/>
<path d="M191.257 190.868C193.815 191.789 195.074 191.758 197.036 190.868" stroke="url(#paint93_linear)" stroke-opacity="0.25"/>
<mask id="path-133-inside-2" fill="white">
<ellipse cx="182.931" cy="155.186" rx="2.94826" ry="0.997171"/>
</mask>
<ellipse cx="182.931" cy="155.186" rx="2.94826" ry="0.997171" fill="#62F2A6"/>
<ellipse cx="182.931" cy="155.186" rx="2.94826" ry="0.997171" fill="url(#paint94_linear)"/>
<path d="M184.879 155.186C184.879 154.892 185.057 154.766 185.023 154.793C184.999 154.812 184.903 154.873 184.695 154.943C184.29 155.081 183.666 155.183 182.931 155.183V157.183C183.824 157.183 184.674 157.062 185.336 156.838C185.662 156.728 185.998 156.574 186.272 156.355C186.537 156.143 186.879 155.755 186.879 155.186H184.879ZM182.931 155.183C182.196 155.183 181.572 155.081 181.167 154.943C180.959 154.873 180.863 154.812 180.839 154.793C180.805 154.766 180.983 154.892 180.983 155.186H178.983C178.983 155.755 179.325 156.143 179.59 156.355C179.864 156.574 180.2 156.728 180.526 156.838C181.188 157.062 182.038 157.183 182.931 157.183V155.183ZM180.983 155.186C180.983 155.479 180.805 155.605 180.839 155.579C180.863 155.559 180.959 155.498 181.167 155.428C181.572 155.291 182.196 155.188 182.931 155.188V153.188C182.038 153.188 181.188 153.309 180.526 153.533C180.2 153.643 179.864 153.797 179.59 154.017C179.325 154.228 178.983 154.617 178.983 155.186H180.983ZM182.931 155.188C183.666 155.188 184.29 155.291 184.695 155.428C184.903 155.498 184.999 155.559 185.023 155.579C185.057 155.605 184.879 155.479 184.879 155.186H186.879C186.879 154.617 186.537 154.228 186.272 154.017C185.998 153.797 185.662 153.643 185.336 153.533C184.674 153.309 183.824 153.188 182.931 153.188V155.188Z" fill="#032C13" mask="url(#path-133-inside-2)"/>
<path d="M184.879 155.186C184.879 154.892 185.057 154.766 185.023 154.793C184.999 154.812 184.903 154.873 184.695 154.943C184.29 155.081 183.666 155.183 182.931 155.183V157.183C183.824 157.183 184.674 157.062 185.336 156.838C185.662 156.728 185.998 156.574 186.272 156.355C186.537 156.143 186.879 155.755 186.879 155.186H184.879ZM182.931 155.183C182.196 155.183 181.572 155.081 181.167 154.943C180.959 154.873 180.863 154.812 180.839 154.793C180.805 154.766 180.983 154.892 180.983 155.186H178.983C178.983 155.755 179.325 156.143 179.59 156.355C179.864 156.574 180.2 156.728 180.526 156.838C181.188 157.062 182.038 157.183 182.931 157.183V155.183ZM180.983 155.186C180.983 155.479 180.805 155.605 180.839 155.579C180.863 155.559 180.959 155.498 181.167 155.428C181.572 155.291 182.196 155.188 182.931 155.188V153.188C182.038 153.188 181.188 153.309 180.526 153.533C180.2 153.643 179.864 153.797 179.59 154.017C179.325 154.228 178.983 154.617 178.983 155.186H180.983ZM182.931 155.188C183.666 155.188 184.29 155.291 184.695 155.428C184.903 155.498 184.999 155.559 185.023 155.579C185.057 155.605 184.879 155.479 184.879 155.186H186.879C186.879 154.617 186.537 154.228 186.272 154.017C185.998 153.797 185.662 153.643 185.336 153.533C184.674 153.309 183.824 153.188 182.931 153.188V155.188Z" fill="url(#paint95_linear)" fill-opacity="0.25" mask="url(#path-133-inside-2)"/>
<path d="M185.774 157.585L185.773 155.186" stroke="#032C13"/>
<path d="M185.774 157.585L185.773 155.186" stroke="url(#paint96_linear)" stroke-opacity="0.25"/>
<path d="M180.052 157.585V155.186" stroke="#032C13"/>
<path d="M180.052 157.585V155.186" stroke="url(#paint97_linear)" stroke-opacity="0.25"/>
<path d="M179.983 157.585C182.541 158.506 183.8 158.475 185.761 157.585" stroke="#032C13"/>
<path d="M179.983 157.585C182.541 158.506 183.8 158.475 185.761 157.585" stroke="url(#paint98_linear)" stroke-opacity="0.25"/>
<defs>
<filter id="filter0_d" x="111.004" y="160.152" width="124.568" height="100.894" filterUnits="userSpaceOnUse" color-interpolation-filters="sRGB">
<feFlood flood-opacity="0" result="BackgroundImageFix"/>
<feColorMatrix in="SourceAlpha" type="matrix" values="0 0 0 0 0 0 0 0 0 0 0 0 0 0 0 0 0 0 127 0"/>
<feOffset dy="4"/>
<feGaussianBlur stdDeviation="2"/>
<feColorMatrix type="matrix" values="0 0 0 0 0 0 0 0 0 0 0 0 0 0 0 0 0 0 0.25 0"/>
<feBlend mode="normal" in2="BackgroundImageFix" result="effect1_dropShadow"/>
<feBlend mode="normal" in="SourceGraphic" in2="effect1_dropShadow" result="shape"/>
</filter>
<filter id="filter1_d" x="110.654" y="146.217" width="125.268" height="101.594" filterUnits="userSpaceOnUse" color-interpolation-filters="sRGB">
<feFlood flood-opacity="0" result="BackgroundImageFix"/>
<feColorMatrix in="SourceAlpha" type="matrix" values="0 0 0 0 0 0 0 0 0 0 0 0 0 0 0 0 0 0 127 0"/>
<feOffset dy="4"/>
<feGaussianBlur stdDeviation="2"/>
<feColorMatrix type="matrix" values="0 0 0 0 0 0 0 0 0 0 0 0 0 0 0 0 0 0 0.25 0"/>
<feBlend mode="normal" in2="BackgroundImageFix" result="effect1_dropShadow"/>
<feBlend mode="normal" in="SourceGraphic" in2="effect1_dropShadow" result="shape"/>
</filter>
<filter id="filter2_d" x="97.0612" y="0" width="59.9383" height="38.3675" filterUnits="userSpaceOnUse" color-interpolation-filters="sRGB">
<feFlood flood-opacity="0" result="BackgroundImageFix"/>
<feColorMatrix in="SourceAlpha" type="matrix" values="0 0 0 0 0 0 0 0 0 0 0 0 0 0 0 0 0 0 127 0"/>
<feOffset dy="4"/>
<feGaussianBlur stdDeviation="2"/>
<feColorMatrix type="matrix" values="0 0 0 0 0 0 0 0 0 0 0 0 0 0 0 0 0 0 0.25 0"/>
<feBlend mode="normal" in2="BackgroundImageFix" result="effect1_dropShadow"/>
<feBlend mode="normal" in="SourceGraphic" in2="effect1_dropShadow" result="shape"/>
</filter>
<linearGradient id="paint0_linear" x1="318.8" y1="76.0752" x2="318.8" y2="288" gradientUnits="userSpaceOnUse">
<stop stop-color="white"/>
<stop offset="1" stop-color="white" stop-opacity="0"/>
</linearGradient>
<linearGradient id="paint1_linear" x1="182.779" y1="180.679" x2="182.779" y2="202.564" gradientUnits="userSpaceOnUse">
<stop stop-color="#E8A62E"/>
<stop offset="1" stop-color="white" stop-opacity="0"/>
</linearGradient>
<linearGradient id="paint2_linear" x1="182.801" y1="177.962" x2="182.801" y2="188.83" gradientUnits="userSpaceOnUse">
<stop stop-color="#E8A62E"/>
<stop offset="1" stop-color="white" stop-opacity="0"/>
</linearGradient>
<linearGradient id="paint3_linear" x1="182.801" y1="177.962" x2="182.801" y2="188.83" gradientUnits="userSpaceOnUse">
<stop stop-color="#E8A62E"/>
<stop offset="1" stop-color="white" stop-opacity="0"/>
</linearGradient>
<linearGradient id="paint4_linear" x1="218.716" y1="190.188" x2="218.716" y2="212.073" gradientUnits="userSpaceOnUse">
<stop stop-color="#E8A62E"/>
<stop offset="1" stop-color="white" stop-opacity="0"/>
</linearGradient>
<linearGradient id="paint5_linear" x1="218.739" y1="187.472" x2="218.739" y2="198.34" gradientUnits="userSpaceOnUse">
<stop stop-color="#E8A62E"/>
<stop offset="1" stop-color="white" stop-opacity="0"/>
</linearGradient>
<linearGradient id="paint6_linear" x1="218.739" y1="187.472" x2="218.739" y2="198.34" gradientUnits="userSpaceOnUse">
<stop stop-color="#E8A62E"/>
<stop offset="1" stop-color="white" stop-opacity="0"/>
</linearGradient>
<linearGradient id="paint7_linear" x1="210.331" y1="198.136" x2="210.331" y2="220.02" gradientUnits="userSpaceOnUse">
<stop stop-color="#E8A62E"/>
<stop offset="1" stop-color="white" stop-opacity="0"/>
</linearGradient>
<linearGradient id="paint8_linear" x1="210.353" y1="195.419" x2="210.353" y2="206.287" gradientUnits="userSpaceOnUse">
<stop stop-color="#E8A62E"/>
<stop offset="1" stop-color="white" stop-opacity="0"/>
</linearGradient>
<linearGradient id="paint9_linear" x1="210.353" y1="195.419" x2="210.353" y2="206.287" gradientUnits="userSpaceOnUse">
<stop stop-color="#E8A62E"/>
<stop offset="1" stop-color="white" stop-opacity="0"/>
</linearGradient>
<linearGradient id="paint10_linear" x1="201.805" y1="206.219" x2="201.805" y2="228.103" gradientUnits="userSpaceOnUse">
<stop stop-color="#E8A62E"/>
<stop offset="1" stop-color="white" stop-opacity="0"/>
</linearGradient>
<linearGradient id="paint11_linear" x1="201.827" y1="203.502" x2="201.827" y2="214.37" gradientUnits="userSpaceOnUse">
<stop stop-color="#E8A62E"/>
<stop offset="1" stop-color="white" stop-opacity="0"/>
</linearGradient>
<linearGradient id="paint12_linear" x1="201.827" y1="203.502" x2="201.827" y2="214.37" gradientUnits="userSpaceOnUse">
<stop stop-color="#E8A62E"/>
<stop offset="1" stop-color="white" stop-opacity="0"/>
</linearGradient>
<linearGradient id="paint13_linear" x1="193.349" y1="214.37" x2="193.349" y2="236.254" gradientUnits="userSpaceOnUse">
<stop stop-color="#E8A62E"/>
<stop offset="1" stop-color="white" stop-opacity="0"/>
</linearGradient>
<linearGradient id="paint14_linear" x1="193.371" y1="211.652" x2="193.371" y2="222.52" gradientUnits="userSpaceOnUse">
<stop stop-color="#E8A62E"/>
<stop offset="1" stop-color="white" stop-opacity="0"/>
</linearGradient>
<linearGradient id="paint15_linear" x1="193.371" y1="211.652" x2="193.371" y2="222.52" gradientUnits="userSpaceOnUse">
<stop stop-color="#E8A62E"/>
<stop offset="1" stop-color="white" stop-opacity="0"/>
</linearGradient>
<linearGradient id="paint16_linear" x1="140.5" y1="188.831" x2="140.5" y2="210.715" gradientUnits="userSpaceOnUse">
<stop stop-color="#E8A62E"/>
<stop offset="1" stop-color="white" stop-opacity="0"/>
</linearGradient>
<linearGradient id="paint17_linear" x1="140.522" y1="186.113" x2="140.522" y2="196.981" gradientUnits="userSpaceOnUse">
<stop stop-color="#E8A62E"/>
<stop offset="1" stop-color="white" stop-opacity="0"/>
</linearGradient>
<linearGradient id="paint18_linear" x1="140.522" y1="186.113" x2="140.522" y2="196.981" gradientUnits="userSpaceOnUse">
<stop stop-color="#E8A62E"/>
<stop offset="1" stop-color="white" stop-opacity="0"/>
</linearGradient>
<linearGradient id="paint19_linear" x1="150.365" y1="222.793" x2="150.365" y2="244.678" gradientUnits="userSpaceOnUse">
<stop stop-color="#E8A62E"/>
<stop offset="1" stop-color="white" stop-opacity="0"/>
</linearGradient>
<linearGradient id="paint20_linear" x1="150.387" y1="220.076" x2="150.387" y2="230.944" gradientUnits="userSpaceOnUse">
<stop stop-color="#E8A62E"/>
<stop offset="1" stop-color="white" stop-opacity="0"/>
</linearGradient>
<linearGradient id="paint21_linear" x1="150.387" y1="220.076" x2="150.387" y2="230.944" gradientUnits="userSpaceOnUse">
<stop stop-color="#E8A62E"/>
<stop offset="1" stop-color="white" stop-opacity="0"/>
</linearGradient>
<linearGradient id="paint22_linear" x1="132.044" y1="196.981" x2="132.044" y2="218.866" gradientUnits="userSpaceOnUse">
<stop stop-color="#E8A62E"/>
<stop offset="1" stop-color="white" stop-opacity="0"/>
</linearGradient>
<linearGradient id="paint23_linear" x1="132.066" y1="194.265" x2="132.066" y2="205.133" gradientUnits="userSpaceOnUse">
<stop stop-color="#E8A62E"/>
<stop offset="1" stop-color="white" stop-opacity="0"/>
</linearGradient>
<linearGradient id="paint24_linear" x1="132.066" y1="194.265" x2="132.066" y2="205.133" gradientUnits="userSpaceOnUse">
<stop stop-color="#E8A62E"/>
<stop offset="1" stop-color="white" stop-opacity="0"/>
</linearGradient>
<linearGradient id="paint25_linear" x1="153.465" y1="236.785" x2="153.465" y2="258.67" gradientUnits="userSpaceOnUse">
<stop stop-color="#E8A62E"/>
<stop offset="1" stop-color="white" stop-opacity="0"/>
</linearGradient>
<linearGradient id="paint26_linear" x1="153.488" y1="234.068" x2="153.488" y2="244.936" gradientUnits="userSpaceOnUse">
<stop stop-color="#E8A62E"/>
<stop offset="1" stop-color="white" stop-opacity="0"/>
</linearGradient>
<linearGradient id="paint27_linear" x1="153.488" y1="234.068" x2="153.488" y2="244.936" gradientUnits="userSpaceOnUse">
<stop stop-color="#E8A62E"/>
<stop offset="1" stop-color="white" stop-opacity="0"/>
</linearGradient>
<linearGradient id="paint28_linear" x1="127.816" y1="244.936" x2="127.816" y2="266.82" gradientUnits="userSpaceOnUse">
<stop stop-color="#E8A62E"/>
<stop offset="1" stop-color="white" stop-opacity="0"/>
</linearGradient>
<linearGradient id="paint29_linear" x1="127.838" y1="242.218" x2="127.838" y2="253.086" gradientUnits="userSpaceOnUse">
<stop stop-color="#E8A62E"/>
<stop offset="1" stop-color="white" stop-opacity="0"/>
</linearGradient>
<linearGradient id="paint30_linear" x1="127.838" y1="242.218" x2="127.838" y2="253.086" gradientUnits="userSpaceOnUse">
<stop stop-color="#E8A62E"/>
<stop offset="1" stop-color="white" stop-opacity="0"/>
</linearGradient>
<linearGradient id="paint31_linear" x1="182.779" y1="166.755" x2="182.779" y2="188.639" gradientUnits="userSpaceOnUse">
<stop stop-color="#C6344A"/>
<stop offset="1" stop-color="white" stop-opacity="0"/>
</linearGradient>
<linearGradient id="paint32_linear" x1="182.801" y1="164.038" x2="182.801" y2="174.906" gradientUnits="userSpaceOnUse">
<stop stop-color="#C6344A"/>
<stop offset="1" stop-color="white" stop-opacity="0"/>
</linearGradient>
<linearGradient id="paint33_linear" x1="182.801" y1="164.038" x2="182.801" y2="174.906" gradientUnits="userSpaceOnUse">
<stop stop-color="#C6344A"/>
<stop offset="1" stop-color="white" stop-opacity="0"/>
</linearGradient>
<linearGradient id="paint34_linear" x1="218.716" y1="176.264" x2="218.716" y2="198.149" gradientUnits="userSpaceOnUse">
<stop stop-color="#C6344A"/>
<stop offset="1" stop-color="white" stop-opacity="0"/>
</linearGradient>
<linearGradient id="paint35_linear" x1="140.5" y1="174.905" x2="140.5" y2="196.79" gradientUnits="userSpaceOnUse">
<stop stop-color="#C6344A"/>
<stop offset="1" stop-color="white" stop-opacity="0"/>
</linearGradient>
<linearGradient id="paint36_linear" x1="140.522" y1="172.188" x2="140.522" y2="183.056" gradientUnits="userSpaceOnUse">
<stop stop-color="#C6344A"/>
<stop offset="1" stop-color="white" stop-opacity="0"/>
</linearGradient>
<linearGradient id="paint37_linear" x1="140.522" y1="172.188" x2="140.522" y2="183.056" gradientUnits="userSpaceOnUse">
<stop stop-color="#C6344A"/>
<stop offset="1" stop-color="white" stop-opacity="0"/>
</linearGradient>
<linearGradient id="paint38_linear" x1="150.365" y1="208.868" x2="150.365" y2="230.752" gradientUnits="userSpaceOnUse">
<stop stop-color="#C6344A"/>
<stop offset="1" stop-color="white" stop-opacity="0"/>
</linearGradient>
<linearGradient id="paint39_linear" x1="150.387" y1="206.15" x2="150.387" y2="217.018" gradientUnits="userSpaceOnUse">
<stop stop-color="#C6344A"/>
<stop offset="1" stop-color="white" stop-opacity="0"/>
</linearGradient>
<linearGradient id="paint40_linear" x1="150.387" y1="206.15" x2="150.387" y2="217.018" gradientUnits="userSpaceOnUse">
<stop stop-color="#C6344A"/>
<stop offset="1" stop-color="white" stop-opacity="0"/>
</linearGradient>
<linearGradient id="paint41_linear" x1="132.044" y1="183.056" x2="132.044" y2="204.941" gradientUnits="userSpaceOnUse">
<stop stop-color="#C6344A"/>
<stop offset="1" stop-color="white" stop-opacity="0"/>
</linearGradient>
<linearGradient id="paint42_linear" x1="132.066" y1="180.339" x2="132.066" y2="191.207" gradientUnits="userSpaceOnUse">
<stop stop-color="#C6344A"/>
<stop offset="1" stop-color="white" stop-opacity="0"/>
</linearGradient>
<linearGradient id="paint43_linear" x1="132.066" y1="180.339" x2="132.066" y2="191.207" gradientUnits="userSpaceOnUse">
<stop stop-color="#C6344A"/>
<stop offset="1" stop-color="white" stop-opacity="0"/>
</linearGradient>
<linearGradient id="paint44_linear" x1="153.465" y1="222.86" x2="153.465" y2="244.744" gradientUnits="userSpaceOnUse">
<stop stop-color="#C6344A"/>
<stop offset="1" stop-color="white" stop-opacity="0"/>
</linearGradient>
<linearGradient id="paint45_linear" x1="153.488" y1="220.143" x2="153.488" y2="231.011" gradientUnits="userSpaceOnUse">
<stop stop-color="#C6344A"/>
<stop offset="1" stop-color="white" stop-opacity="0"/>
</linearGradient>
<linearGradient id="paint46_linear" x1="153.488" y1="220.143" x2="153.488" y2="231.011" gradientUnits="userSpaceOnUse">
<stop stop-color="#C6344A"/>
<stop offset="1" stop-color="white" stop-opacity="0"/>
</linearGradient>
<linearGradient id="paint47_linear" x1="127.816" y1="231.011" x2="127.816" y2="252.895" gradientUnits="userSpaceOnUse">
<stop stop-color="#C6344A"/>
<stop offset="1" stop-color="white" stop-opacity="0"/>
</linearGradient>
<linearGradient id="paint48_linear" x1="127.838" y1="228.294" x2="127.838" y2="239.162" gradientUnits="userSpaceOnUse">
<stop stop-color="#C6344A"/>
<stop offset="1" stop-color="white" stop-opacity="0"/>
</linearGradient>
<linearGradient id="paint49_linear" x1="127.838" y1="228.294" x2="127.838" y2="239.162" gradientUnits="userSpaceOnUse">
<stop stop-color="#C6344A"/>
<stop offset="1" stop-color="white" stop-opacity="0"/>
</linearGradient>
<linearGradient id="paint50_linear" x1="218.716" y1="163.019" x2="218.716" y2="184.903" gradientUnits="userSpaceOnUse">
<stop stop-color="#EFE123"/>
<stop offset="1" stop-color="white" stop-opacity="0"/>
</linearGradient>
<linearGradient id="paint51_linear" x1="218.739" y1="160.302" x2="218.739" y2="171.17" gradientUnits="userSpaceOnUse">
<stop stop-color="#EFE123"/>
<stop offset="1" stop-color="white" stop-opacity="0"/>
</linearGradient>
<linearGradient id="paint52_linear" x1="218.739" y1="160.302" x2="218.739" y2="171.17" gradientUnits="userSpaceOnUse">
<stop stop-color="#EFE123"/>
<stop offset="1" stop-color="white" stop-opacity="0"/>
</linearGradient>
<linearGradient id="paint53_linear" x1="210.331" y1="184.211" x2="210.331" y2="206.096" gradientUnits="userSpaceOnUse">
<stop stop-color="#C6344A"/>
<stop offset="1" stop-color="white" stop-opacity="0"/>
</linearGradient>
<linearGradient id="paint54_linear" x1="210.353" y1="181.494" x2="210.353" y2="192.362" gradientUnits="userSpaceOnUse">
<stop stop-color="#C6344A"/>
<stop offset="1" stop-color="white" stop-opacity="0"/>
</linearGradient>
<linearGradient id="paint55_linear" x1="210.353" y1="181.494" x2="210.353" y2="192.362" gradientUnits="userSpaceOnUse">
<stop stop-color="#C6344A"/>
<stop offset="1" stop-color="white" stop-opacity="0"/>
</linearGradient>
<linearGradient id="paint56_linear" x1="201.805" y1="192.294" x2="201.805" y2="214.179" gradientUnits="userSpaceOnUse">
<stop stop-color="#C6344A"/>
<stop offset="1" stop-color="white" stop-opacity="0"/>
</linearGradient>
<linearGradient id="paint57_linear" x1="201.827" y1="189.577" x2="201.827" y2="200.445" gradientUnits="userSpaceOnUse">
<stop stop-color="#C6344A"/>
<stop offset="1" stop-color="white" stop-opacity="0"/>
</linearGradient>
<linearGradient id="paint58_linear" x1="201.827" y1="189.577" x2="201.827" y2="200.445" gradientUnits="userSpaceOnUse">
<stop stop-color="#C6344A"/>
<stop offset="1" stop-color="white" stop-opacity="0"/>
</linearGradient>
<linearGradient id="paint59_linear" x1="193.349" y1="200.444" x2="193.349" y2="222.329" gradientUnits="userSpaceOnUse">
<stop stop-color="#C6344A"/>
<stop offset="1" stop-color="white" stop-opacity="0"/>
</linearGradient>
<linearGradient id="paint60_linear" x1="193.371" y1="197.728" x2="193.371" y2="208.595" gradientUnits="userSpaceOnUse">
<stop stop-color="#C6344A"/>
<stop offset="1" stop-color="white" stop-opacity="0"/>
</linearGradient>
<linearGradient id="paint61_linear" x1="193.371" y1="197.728" x2="193.371" y2="208.595" gradientUnits="userSpaceOnUse">
<stop stop-color="#C6344A"/>
<stop offset="1" stop-color="white" stop-opacity="0"/>
</linearGradient>
<linearGradient id="paint62_linear" x1="182.779" y1="153.169" x2="182.779" y2="175.054" gradientUnits="userSpaceOnUse">
<stop stop-color="#62F2A6"/>
<stop offset="1" stop-color="white" stop-opacity="0"/>
</linearGradient>
<linearGradient id="paint63_linear" x1="140.5" y1="161.321" x2="140.5" y2="183.205" gradientUnits="userSpaceOnUse">
<stop stop-color="#62F2A6"/>
<stop offset="1" stop-color="white" stop-opacity="0"/>
</linearGradient>
<linearGradient id="paint64_linear" x1="140.522" y1="158.604" x2="140.522" y2="169.471" gradientUnits="userSpaceOnUse">
<stop stop-color="#62F2A6"/>
<stop offset="1" stop-color="white" stop-opacity="0"/>
</linearGradient>
<linearGradient id="paint65_linear" x1="140.522" y1="158.604" x2="140.522" y2="169.471" gradientUnits="userSpaceOnUse">
<stop stop-color="#62F2A6"/>
<stop offset="1" stop-color="white" stop-opacity="0"/>
</linearGradient>
<linearGradient id="paint66_linear" x1="150.365" y1="195.283" x2="150.365" y2="217.168" gradientUnits="userSpaceOnUse">
<stop stop-color="#62F2A6"/>
<stop offset="1" stop-color="white" stop-opacity="0"/>
</linearGradient>
<linearGradient id="paint67_linear" x1="150.387" y1="192.566" x2="150.387" y2="203.434" gradientUnits="userSpaceOnUse">
<stop stop-color="#62F2A6"/>
<stop offset="1" stop-color="white" stop-opacity="0"/>
</linearGradient>
<linearGradient id="paint68_linear" x1="150.387" y1="192.566" x2="150.387" y2="203.434" gradientUnits="userSpaceOnUse">
<stop stop-color="#62F2A6"/>
<stop offset="1" stop-color="white" stop-opacity="0"/>
</linearGradient>
<linearGradient id="paint69_linear" x1="132.044" y1="169.472" x2="132.044" y2="191.356" gradientUnits="userSpaceOnUse">
<stop stop-color="#62F2A6"/>
<stop offset="1" stop-color="white" stop-opacity="0"/>
</linearGradient>
<linearGradient id="paint70_linear" x1="132.066" y1="166.755" x2="132.066" y2="177.623" gradientUnits="userSpaceOnUse">
<stop stop-color="#62F2A6"/>
<stop offset="1" stop-color="white" stop-opacity="0"/>
</linearGradient>
<linearGradient id="paint71_linear" x1="132.066" y1="166.755" x2="132.066" y2="177.623" gradientUnits="userSpaceOnUse">
<stop stop-color="#62F2A6"/>
<stop offset="1" stop-color="white" stop-opacity="0"/>
</linearGradient>
<linearGradient id="paint72_linear" x1="153.465" y1="209.275" x2="153.465" y2="231.16" gradientUnits="userSpaceOnUse">
<stop stop-color="#62F2A6"/>
<stop offset="1" stop-color="white" stop-opacity="0"/>
</linearGradient>
<linearGradient id="paint73_linear" x1="153.488" y1="206.558" x2="153.488" y2="217.426" gradientUnits="userSpaceOnUse">
<stop stop-color="#62F2A6"/>
<stop offset="1" stop-color="white" stop-opacity="0"/>
</linearGradient>
<linearGradient id="paint74_linear" x1="153.488" y1="206.558" x2="153.488" y2="217.426" gradientUnits="userSpaceOnUse">
<stop stop-color="#62F2A6"/>
<stop offset="1" stop-color="white" stop-opacity="0"/>
</linearGradient>
<linearGradient id="paint75_linear" x1="127.816" y1="217.426" x2="127.816" y2="239.311" gradientUnits="userSpaceOnUse">
<stop stop-color="#62F2A6"/>
<stop offset="1" stop-color="white" stop-opacity="0"/>
</linearGradient>
<linearGradient id="paint76_linear" x1="127.838" y1="214.709" x2="127.838" y2="225.577" gradientUnits="userSpaceOnUse">
<stop stop-color="#62F2A6"/>
<stop offset="1" stop-color="white" stop-opacity="0"/>
</linearGradient>
<linearGradient id="paint77_linear" x1="127.838" y1="214.709" x2="127.838" y2="225.577" gradientUnits="userSpaceOnUse">
<stop stop-color="#62F2A6"/>
<stop offset="1" stop-color="white" stop-opacity="0"/>
</linearGradient>
<linearGradient id="paint78_linear" x1="218.716" y1="149.434" x2="218.716" y2="171.319" gradientUnits="userSpaceOnUse">
<stop stop-color="#E8A62E"/>
<stop offset="1" stop-color="white" stop-opacity="0"/>
</linearGradient>
<linearGradient id="paint79_linear" x1="218.739" y1="146.717" x2="218.739" y2="157.585" gradientUnits="userSpaceOnUse">
<stop stop-color="#E8A62E"/>
<stop offset="1" stop-color="white" stop-opacity="0"/>
</linearGradient>
<linearGradient id="paint80_linear" x1="218.739" y1="146.717" x2="218.739" y2="157.585" gradientUnits="userSpaceOnUse">
<stop stop-color="#E8A62E"/>
<stop offset="1" stop-color="white" stop-opacity="0"/>
</linearGradient>
<linearGradient id="paint81_linear" x1="210.331" y1="170.626" x2="210.331" y2="192.511" gradientUnits="userSpaceOnUse">
<stop stop-color="#62F2A6"/>
<stop offset="1" stop-color="white" stop-opacity="0"/>
</linearGradient>
<linearGradient id="paint82_linear" x1="210.353" y1="167.91" x2="210.353" y2="178.778" gradientUnits="userSpaceOnUse">
<stop stop-color="#62F2A6"/>
<stop offset="1" stop-color="white" stop-opacity="0"/>
</linearGradient>
<linearGradient id="paint83_linear" x1="210.353" y1="167.91" x2="210.353" y2="178.778" gradientUnits="userSpaceOnUse">
<stop stop-color="#62F2A6"/>
<stop offset="1" stop-color="white" stop-opacity="0"/>
</linearGradient>
<linearGradient id="paint84_linear" x1="201.805" y1="178.709" x2="201.805" y2="200.594" gradientUnits="userSpaceOnUse">
<stop stop-color="#62F2A6"/>
<stop offset="1" stop-color="white" stop-opacity="0"/>
</linearGradient>
<linearGradient id="paint85_linear" x1="201.827" y1="175.992" x2="201.827" y2="186.86" gradientUnits="userSpaceOnUse">
<stop stop-color="#62F2A6"/>
<stop offset="1" stop-color="white" stop-opacity="0"/>
</linearGradient>
<linearGradient id="paint86_linear" x1="201.827" y1="175.992" x2="201.827" y2="186.86" gradientUnits="userSpaceOnUse">
<stop stop-color="#62F2A6"/>
<stop offset="1" stop-color="white" stop-opacity="0"/>
</linearGradient>
<linearGradient id="paint87_linear" x1="193.349" y1="186.86" x2="193.349" y2="208.745" gradientUnits="userSpaceOnUse">
<stop stop-color="#62F2A6"/>
<stop offset="1" stop-color="white" stop-opacity="0"/>
</linearGradient>
<linearGradient id="paint88_linear" x1="127.03" y1="0" x2="127.03" y2="30.3675" gradientUnits="userSpaceOnUse">
<stop stop-color="#C4C4C4"/>
<stop offset="1" stop-color="white" stop-opacity="0"/>
</linearGradient>
<linearGradient id="paint89_linear" x1="194.205" y1="187.472" x2="194.205" y2="189.466" gradientUnits="userSpaceOnUse">
<stop stop-color="white"/>
<stop offset="1" stop-color="white" stop-opacity="0"/>
</linearGradient>
<linearGradient id="paint90_linear" x1="194.458" y1="187.472" x2="194.458" y2="189.466" gradientUnits="userSpaceOnUse">
<stop stop-color="white"/>
<stop offset="1" stop-color="white" stop-opacity="0"/>
</linearGradient>
<linearGradient id="paint91_linear" x1="197.048" y1="189.566" x2="198.048" y2="189.566" gradientUnits="userSpaceOnUse">
<stop stop-color="white"/>
<stop offset="1" stop-color="white" stop-opacity="0"/>
</linearGradient>
<linearGradient id="paint92_linear" x1="191.327" y1="189.566" x2="192.327" y2="189.566" gradientUnits="userSpaceOnUse">
<stop stop-color="white"/>
<stop offset="1" stop-color="white" stop-opacity="0"/>
</linearGradient>
<linearGradient id="paint93_linear" x1="194.394" y1="190.868" x2="194.394" y2="191.547" gradientUnits="userSpaceOnUse">
<stop stop-color="white"/>
<stop offset="1" stop-color="white" stop-opacity="0"/>
</linearGradient>
<linearGradient id="paint94_linear" x1="182.931" y1="154.188" x2="182.931" y2="156.183" gradientUnits="userSpaceOnUse">
<stop stop-color="white"/>
<stop offset="1" stop-color="white" stop-opacity="0"/>
</linearGradient>
<linearGradient id="paint95_linear" x1="183.183" y1="154.188" x2="183.183" y2="156.183" gradientUnits="userSpaceOnUse">
<stop stop-color="white"/>
<stop offset="1" stop-color="white" stop-opacity="0"/>
</linearGradient>
<linearGradient id="paint96_linear" x1="185.773" y1="156.283" x2="186.773" y2="156.283" gradientUnits="userSpaceOnUse">
<stop stop-color="white"/>
<stop offset="1" stop-color="white" stop-opacity="0"/>
</linearGradient>
<linearGradient id="paint97_linear" x1="180.052" y1="156.283" x2="181.052" y2="156.283" gradientUnits="userSpaceOnUse">
<stop stop-color="white"/>
<stop offset="1" stop-color="white" stop-opacity="0"/>
</linearGradient>
<linearGradient id="paint98_linear" x1="183.119" y1="157.585" x2="183.119" y2="158.264" gradientUnits="userSpaceOnUse">
<stop stop-color="white"/>
<stop offset="1" stop-color="white" stop-opacity="0"/>
</linearGradient>
</defs>
</svg>
