<svg width="511" height="147" viewBox="0 0 511 147" fill="none" xmlns="http://www.w3.org/2000/svg">
<line x1="112" y1="22" x2="143" y2="22" stroke="#C9D1D9" stroke-width="2"/>
<line x1="112" y1="29" x2="143" y2="29" stroke="#C9D1D9" stroke-width="2"/>
<line x1="143.759" y1="12.3492" x2="155.759" y2="26.3492" stroke="#C9D1D9" stroke-width="2"/>
<line y1="-1" x2="18.4391" y2="-1" transform="matrix(0.650791 -0.759257 -0.759257 -0.650791 143 38)" stroke="#C9D1D9" stroke-width="2"/>
<line x1="112" y1="72" x2="143" y2="72" stroke="#C9D1D9" stroke-width="2"/>
<line x1="112" y1="79" x2="143" y2="79" stroke="#C9D1D9" stroke-width="2"/>
<line x1="143.759" y1="62.3492" x2="155.759" y2="76.3492" stroke="#C9D1D9" stroke-width="2"/>
<line y1="-1" x2="18.4391" y2="-1" transform="matrix(0.650791 -0.759257 -0.759257 -0.650791 143 88)" stroke="#C9D1D9" stroke-width="2"/>
<line x1="112" y1="120" x2="143" y2="120" stroke="#C9D1D9" stroke-width="2"/>
<line x1="112" y1="127" x2="143" y2="127" stroke="#C9D1D9" stroke-width="2"/>
<line x1="143.759" y1="110.349" x2="155.759" y2="124.349" stroke="#C9D1D9" stroke-width="2"/>
<line y1="-1" x2="18.4391" y2="-1" transform="matrix(0.650791 -0.759257 -0.759257 -0.650791 143 136)" stroke="#C9D1D9" stroke-width="2"/>
<path d="M11.4404 33.9492C13.374 33.9492 14.7803 33.6416 15.6592 33.0264C16.5381 32.4014 16.9775 31.1709 16.9775 29.335V21.6738C16.9775 19.8379 16.5332 18.5781 15.6445 17.8945C14.7656 17.2109 13.3691 16.8691 11.4551 16.8691C8.48633 16.8691 6.68457 17.6895 6.0498 19.3301C5.80566 19.9551 5.68359 20.7363 5.68359 21.6738V29.335C5.68359 31.1611 6.16211 32.3867 7.11914 33.0117C8.07617 33.6367 9.5166 33.9492 11.4404 33.9492ZM13.1104 36.249L15.8936 40.5117L13.8281 41.625L10.459 36.3076C7.74414 36.1904 5.77637 35.5459 4.55566 34.374C3.33496 33.2021 2.72461 31.3711 2.72461 28.8809V22.2158C2.72461 19.1787 3.58398 17.0742 5.30273 15.9023C6.68945 14.9648 8.74023 14.4961 11.4551 14.4961C16.2598 14.4961 19.0088 16.2832 19.7021 19.8574C19.8486 20.6094 19.9219 21.459 19.9219 22.4062V28.6758C19.9219 31.625 19.0771 33.6953 17.3877 34.8867C16.3428 35.6191 14.917 36.0732 13.1104 36.249ZM33.3691 29.1592V26.9912H45.1172V29.1592H33.3691ZM33.3691 24.208V22.04H45.1172V24.208H33.3691ZM58.916 36V33.7295H64.79V17.2939L59.3115 17.8799L59.0479 15.5508L65.332 14.8184H67.7344V33.7295H72.9199V36H58.916ZM83.4375 33.9492C84.541 33.9492 85.3516 33.7686 85.8691 33.4072C86.1523 33.2119 86.3965 33.0117 86.6016 32.8066C87.2949 32.1133 87.6416 30.4922 87.6416 27.9434V23.8125C87.6416 22.0938 87.5732 20.873 87.4365 20.1504C87.0361 17.9629 85.7861 16.8691 83.6865 16.8691C81.8701 16.8691 80.6445 17.4258 80.0098 18.5391C79.6191 19.2227 79.3701 19.999 79.2627 20.8682C79.1553 21.7275 79.1016 22.7871 79.1016 24.0469V26.9326C79.1016 29.0225 79.248 30.502 79.541 31.3711C80.127 33.0898 81.4258 33.9492 83.4375 33.9492ZM87.1289 35.5898C86.6797 35.8047 86.1475 35.9805 85.5322 36.1172C84.917 36.2539 84.1748 36.3223 83.3057 36.3223C82.4463 36.3223 81.6309 36.2148 80.8594 36C79.3652 35.5801 78.2861 34.877 77.6221 33.8906C76.9678 32.8945 76.5576 31.8105 76.3916 30.6387C76.2256 29.4668 76.1426 28.1484 76.1426 26.6836V24.4277C76.1426 22.377 76.2207 20.9951 76.377 20.2822C76.709 18.7979 77.085 17.7529 77.5049 17.1475C78.7354 15.3799 80.6055 14.4961 83.1152 14.4961C86.1035 14.4961 88.1152 15.3604 89.1504 17.0889C89.7852 18.1338 90.1807 19.2568 90.3369 20.458C90.5029 21.6592 90.5859 23.0459 90.5859 24.6182V26.4785C90.5859 28.4512 90.5078 29.7988 90.3516 30.5215C90.2051 31.2441 90.0439 31.8594 89.8682 32.3672C89.7021 32.875 89.4971 33.3096 89.2529 33.6709C89.0186 34.0225 88.7207 34.3789 88.3594 34.7402C87.998 35.0918 87.5879 35.375 87.1289 35.5898ZM11.4404 82.9492C13.374 82.9492 14.7803 82.6416 15.6592 82.0264C16.5381 81.4014 16.9775 80.1709 16.9775 78.335V70.6738C16.9775 68.8379 16.5332 67.5781 15.6445 66.8945C14.7656 66.2109 13.3691 65.8691 11.4551 65.8691C8.48633 65.8691 6.68457 66.6895 6.0498 68.3301C5.80566 68.9551 5.68359 69.7363 5.68359 70.6738V78.335C5.68359 80.1611 6.16211 81.3867 7.11914 82.0117C8.07617 82.6367 9.5166 82.9492 11.4404 82.9492ZM13.1104 85.249L15.8936 89.5117L13.8281 90.625L10.459 85.3076C7.74414 85.1904 5.77637 84.5459 4.55566 83.374C3.33496 82.2021 2.72461 80.3711 2.72461 77.8809V71.2158C2.72461 68.1787 3.58398 66.0742 5.30273 64.9023C6.68945 63.9648 8.74023 63.4961 11.4551 63.4961C16.2598 63.4961 19.0088 65.2832 19.7021 68.8574C19.8486 69.6094 19.9219 70.459 19.9219 71.4062V77.6758C19.9219 80.625 19.0771 82.6953 17.3877 83.8867C16.3428 84.6191 14.917 85.0732 13.1104 85.249ZM33.3691 78.1592V75.9912H45.1172V78.1592H33.3691ZM33.3691 73.208V71.04H45.1172V73.208H33.3691ZM59.2822 85L59.0039 82.6855L66.1523 74.9072C67.4512 73.501 68.1885 72.6367 68.3643 72.3145C68.5498 71.9824 68.7256 71.6211 68.8916 71.2305C69.0674 70.8398 69.1553 70.2686 69.1553 69.5166C69.1553 68.1787 68.8721 67.2363 68.3057 66.6895C67.7393 66.1426 66.7969 65.8691 65.4785 65.8691C64.6582 65.8691 63.999 65.9229 63.501 66.0303C63.0029 66.1377 62.5732 66.3428 62.2119 66.6455C61.5674 67.1826 61.2451 68.3008 61.2451 70H58.3008C58.3008 65.6641 60.6201 63.4961 65.2588 63.4961C67.4854 63.4961 69.1553 64.0625 70.2686 65.1953C71.3818 66.3184 71.9385 67.6855 71.9385 69.2969C71.9385 70.9082 71.6455 72.168 71.0596 73.0762C70.4834 73.9844 69.8877 74.7607 69.2725 75.4053C68.6572 76.04 68.3105 76.4014 68.2324 76.4893L62.3584 82.7148H71.8213V85H59.2822ZM83.4375 82.9492C84.541 82.9492 85.3516 82.7686 85.8691 82.4072C86.1523 82.2119 86.3965 82.0117 86.6016 81.8066C87.2949 81.1133 87.6416 79.4922 87.6416 76.9434V72.8125C87.6416 71.0938 87.5732 69.873 87.4365 69.1504C87.0361 66.9629 85.7861 65.8691 83.6865 65.8691C81.8701 65.8691 80.6445 66.4258 80.0098 67.5391C79.6191 68.2227 79.3701 68.999 79.2627 69.8682C79.1553 70.7275 79.1016 71.7871 79.1016 73.0469V75.9326C79.1016 78.0225 79.248 79.502 79.541 80.3711C80.127 82.0898 81.4258 82.9492 83.4375 82.9492ZM87.1289 84.5898C86.6797 84.8047 86.1475 84.9805 85.5322 85.1172C84.917 85.2539 84.1748 85.3223 83.3057 85.3223C82.4463 85.3223 81.6309 85.2148 80.8594 85C79.3652 84.5801 78.2861 83.877 77.6221 82.8906C76.9678 81.8945 76.5576 80.8105 76.3916 79.6387C76.2256 78.4668 76.1426 77.1484 76.1426 75.6836V73.4277C76.1426 71.377 76.2207 69.9951 76.377 69.2822C76.709 67.7979 77.085 66.7529 77.5049 66.1475C78.7354 64.3799 80.6055 63.4961 83.1152 63.4961C86.1035 63.4961 88.1152 64.3604 89.1504 66.0889C89.7852 67.1338 90.1807 68.2568 90.3369 69.458C90.5029 70.6592 90.5859 72.0459 90.5859 73.6182V75.4785C90.5859 77.4512 90.5078 78.7988 90.3516 79.5215C90.2051 80.2441 90.0439 80.8594 89.8682 81.3672C89.7021 81.875 89.4971 82.3096 89.2529 82.6709C89.0186 83.0225 88.7207 83.3789 88.3594 83.7402C87.998 84.0918 87.5879 84.375 87.1289 84.5898ZM11.4404 131.949C13.374 131.949 14.7803 131.642 15.6592 131.026C16.5381 130.401 16.9775 129.171 16.9775 127.335V119.674C16.9775 117.838 16.5332 116.578 15.6445 115.895C14.7656 115.211 13.3691 114.869 11.4551 114.869C8.48633 114.869 6.68457 115.689 6.0498 117.33C5.80566 117.955 5.68359 118.736 5.68359 119.674V127.335C5.68359 129.161 6.16211 130.387 7.11914 131.012C8.07617 131.637 9.5166 131.949 11.4404 131.949ZM13.1104 134.249L15.8936 138.512L13.8281 139.625L10.459 134.308C7.74414 134.19 5.77637 133.546 4.55566 132.374C3.33496 131.202 2.72461 129.371 2.72461 126.881V120.216C2.72461 117.179 3.58398 115.074 5.30273 113.902C6.68945 112.965 8.74023 112.496 11.4551 112.496C16.2598 112.496 19.0088 114.283 19.7021 117.857C19.8486 118.609 19.9219 119.459 19.9219 120.406V126.676C19.9219 129.625 19.0771 131.695 17.3877 132.887C16.3428 133.619 14.917 134.073 13.1104 134.249ZM33.3691 127.159V124.991H45.1172V127.159H33.3691ZM33.3691 122.208V120.04H45.1172V122.208H33.3691ZM69.2139 118.062C69.2139 115.934 68.1055 114.869 65.8887 114.869C64.7363 114.869 63.9355 114.977 63.4863 115.191C63.0371 115.406 62.7148 115.665 62.5195 115.968C62.1094 116.612 61.9043 117.618 61.9043 118.985H59.0918C59.0918 117.198 59.3945 115.836 60 114.898C60.6055 113.951 61.3916 113.316 62.3584 112.994C63.335 112.662 64.4775 112.496 65.7861 112.496C67.6904 112.496 69.1943 112.955 70.2979 113.873C71.4111 114.781 71.9678 116.163 71.9678 118.019C71.9678 119.444 71.6992 120.543 71.1621 121.314C70.6348 122.076 69.7705 122.555 68.5693 122.75C69.8486 123.014 70.8057 123.556 71.4404 124.376C72.0752 125.196 72.3926 126.534 72.3926 128.39C72.3926 130.245 71.8262 131.7 70.6934 132.755C69.5605 133.8 67.9443 134.322 65.8447 134.322C64.2529 134.322 62.9883 134.112 62.0508 133.692C61.123 133.272 60.415 132.589 59.9268 131.642C59.4385 130.694 59.1113 129.376 58.9453 127.687H61.7578C61.875 129.425 62.251 130.577 62.8857 131.144C63.2373 131.456 63.6523 131.671 64.1309 131.788C64.6094 131.896 65.2344 131.949 66.0059 131.949C67.2461 131.949 68.1543 131.632 68.7305 130.997C69.3066 130.362 69.5947 129.303 69.5947 127.818C69.5947 126.334 69.3213 125.353 68.7744 124.874C68.2373 124.386 67.5732 124.098 66.7822 124.01C66.001 123.922 65.2393 123.878 64.4971 123.878V121.695C66.0596 121.695 67.1143 121.568 67.6611 121.314C68.208 121.061 68.6035 120.753 68.8477 120.392C69.0918 120.021 69.2139 119.244 69.2139 118.062ZM83.4375 131.949C84.541 131.949 85.3516 131.769 85.8691 131.407C86.1523 131.212 86.3965 131.012 86.6016 130.807C87.2949 130.113 87.6416 128.492 87.6416 125.943V121.812C87.6416 120.094 87.5732 118.873 87.4365 118.15C87.0361 115.963 85.7861 114.869 83.6865 114.869C81.8701 114.869 80.6445 115.426 80.0098 116.539C79.6191 117.223 79.3701 117.999 79.2627 118.868C79.1553 119.728 79.1016 120.787 79.1016 122.047V124.933C79.1016 127.022 79.248 128.502 79.541 129.371C80.127 131.09 81.4258 131.949 83.4375 131.949ZM87.1289 133.59C86.6797 133.805 86.1475 133.98 85.5322 134.117C84.917 134.254 84.1748 134.322 83.3057 134.322C82.4463 134.322 81.6309 134.215 80.8594 134C79.3652 133.58 78.2861 132.877 77.6221 131.891C76.9678 130.895 76.5576 129.811 76.3916 128.639C76.2256 127.467 76.1426 126.148 76.1426 124.684V122.428C76.1426 120.377 76.2207 118.995 76.377 118.282C76.709 116.798 77.085 115.753 77.5049 115.147C78.7354 113.38 80.6055 112.496 83.1152 112.496C86.1035 112.496 88.1152 113.36 89.1504 115.089C89.7852 116.134 90.1807 117.257 90.3369 118.458C90.5029 119.659 90.5859 121.046 90.5859 122.618V124.479C90.5859 126.451 90.5078 127.799 90.3516 128.521C90.2051 129.244 90.0439 129.859 89.8682 130.367C89.7021 130.875 89.4971 131.31 89.2529 131.671C89.0186 132.022 88.7207 132.379 88.3594 132.74C87.998 133.092 87.5879 133.375 87.1289 133.59Z" fill="#C9D1D9"/>
<path d="M174.609 30V28.7891H177.742V20.0234L174.82 20.3359L174.68 19.0938L178.031 18.7031H179.312V28.7891H182.078V30H174.609ZM190.992 30.1719C189.581 30.1719 188.685 29.6719 188.305 28.6719C188.195 28.3854 188.141 28.0729 188.141 27.7344V21.7188H189.609V27.7422C189.609 28.1484 189.758 28.4688 190.055 28.7031C190.357 28.9323 190.805 29.0469 191.398 29.0469C191.992 29.0469 192.474 28.901 192.844 28.6094C193.219 28.3125 193.406 27.9714 193.406 27.5859V21.7188H194.875V30H193.562L193.406 28.9609C192.948 29.7682 192.143 30.1719 190.992 30.1719ZM201.938 30V28.7891H205.07V20.0234L202.148 20.3359L202.008 19.0938L205.359 18.7031H206.641V28.7891H209.406V30H201.938ZM215.016 28.9062C215.604 28.9062 216.036 28.8099 216.312 28.6172C216.464 28.513 216.594 28.4062 216.703 28.2969C217.073 27.9271 217.258 27.0625 217.258 25.7031V23.5C217.258 22.5833 217.221 21.9323 217.148 21.5469C216.935 20.3802 216.268 19.7969 215.148 19.7969C214.18 19.7969 213.526 20.0938 213.188 20.6875C212.979 21.0521 212.846 21.4661 212.789 21.9297C212.732 22.388 212.703 22.9531 212.703 23.625V25.1641C212.703 26.2786 212.781 27.0677 212.938 27.5312C213.25 28.4479 213.943 28.9062 215.016 28.9062ZM216.984 29.7812C216.745 29.8958 216.461 29.9896 216.133 30.0625C215.805 30.1354 215.409 30.1719 214.945 30.1719C214.487 30.1719 214.052 30.1146 213.641 30C212.844 29.776 212.268 29.401 211.914 28.875C211.565 28.3438 211.346 27.7656 211.258 27.1406C211.169 26.5156 211.125 25.8125 211.125 25.0312V23.8281C211.125 22.7344 211.167 21.9974 211.25 21.6172C211.427 20.8255 211.628 20.2682 211.852 19.9453C212.508 19.0026 213.505 18.5312 214.844 18.5312C216.438 18.5312 217.51 18.9922 218.062 19.9141C218.401 20.4714 218.612 21.0703 218.695 21.7109C218.784 22.3516 218.828 23.0911 218.828 23.9297V24.9219C218.828 25.974 218.786 26.6927 218.703 27.0781C218.625 27.4635 218.539 27.7917 218.445 28.0625C218.357 28.3333 218.247 28.5651 218.117 28.7578C217.992 28.9453 217.833 29.1354 217.641 29.3281C217.448 29.5156 217.229 29.6667 216.984 29.7812ZM227.203 20.2891L225.602 18.2109H226.812L227.781 19.5703L228.812 18.2109H230.07L228.375 20.2891H227.203ZM227.789 29.0469C228.898 29.0469 229.453 28.6328 229.453 27.8047C229.453 27.4453 229.404 27.1797 229.305 27.0078C229.206 26.8307 228.974 26.6745 228.609 26.5391L226.641 25.8125C226.036 25.599 225.615 25.3464 225.375 25.0547C225.141 24.7578 225.023 24.388 225.023 23.9453C225.023 23.5026 225.068 23.1484 225.156 22.8828C225.245 22.612 225.391 22.375 225.594 22.1719C226 21.7656 226.729 21.5625 227.781 21.5625C228.833 21.5625 229.74 21.7135 230.5 22.0156L230.164 23.1406C229.898 23.0312 229.549 22.9297 229.117 22.8359C228.685 22.737 228.307 22.6875 227.984 22.6875C227.24 22.6875 226.768 22.8073 226.57 23.0469C226.451 23.1979 226.391 23.4193 226.391 23.7109C226.391 24.0026 226.438 24.2109 226.531 24.3359C226.63 24.4557 226.82 24.5651 227.102 24.6641L229.047 25.4297C229.724 25.6953 230.169 25.9896 230.383 26.3125C230.596 26.6302 230.703 27.1328 230.703 27.8203C230.703 28.5078 230.482 29.0729 230.039 29.5156C229.596 29.9531 228.911 30.1719 227.984 30.1719C227.307 30.1719 226.706 30.099 226.18 29.9531C225.654 29.8073 225.25 29.6562 224.969 29.5L225.328 28.4219C226.073 28.8385 226.893 29.0469 227.789 29.0469ZM235.289 30.1719C234.451 30.1719 233.799 29.9453 233.336 29.4922C232.872 29.0339 232.641 28.4661 232.641 27.7891C232.641 27.4036 232.721 27.0833 232.883 26.8281C233.211 26.3073 234.19 25.8099 235.82 25.3359C236.763 25.0755 237.305 24.8516 237.445 24.6641C237.591 24.4766 237.672 24.3307 237.688 24.2266C237.703 24.1172 237.711 23.9453 237.711 23.7109C237.711 23.4766 237.615 23.2474 237.422 23.0234C237.234 22.7995 236.823 22.6875 236.188 22.6875C235.292 22.6875 234.742 22.8594 234.539 23.2031C234.435 23.3802 234.383 23.6198 234.383 23.9219V24.2891H232.969V23.9141C232.969 23.1068 233.237 22.513 233.773 22.1328C234.315 21.7526 235.122 21.5625 236.195 21.5625C237.268 21.5625 238.034 21.8073 238.492 22.2969C238.951 22.7812 239.18 23.474 239.18 24.375V27.9062C239.18 28.3385 239.234 28.6198 239.344 28.75C239.453 28.875 239.688 28.9375 240.047 28.9375L239.875 30.0625H239.578C239.057 30.0625 238.669 29.9635 238.414 29.7656C238.159 29.5625 237.964 29.25 237.828 28.8281C237.396 29.474 236.875 29.8802 236.266 30.0469C235.974 30.1302 235.648 30.1719 235.289 30.1719ZM236.023 26.3438C235.284 26.5573 234.771 26.7708 234.484 26.9844C234.203 27.1979 234.062 27.5 234.062 27.8906C234.062 28.276 234.193 28.5677 234.453 28.7656C234.719 28.9635 235.036 29.0625 235.406 29.0625C235.781 29.0625 236.12 29.0156 236.422 28.9219C236.724 28.8229 236.995 28.6797 237.234 28.4922C237.479 28.2995 237.638 28.0807 237.711 27.8359V25.4453C237.331 25.8255 236.768 26.125 236.023 26.3438ZM247.5 23.8984C247.5 23.0911 246.883 22.6875 245.648 22.6875C245.039 22.6875 244.56 22.8177 244.211 23.0781C243.862 23.3385 243.688 23.6797 243.688 24.1016V30H242.219V21.7188H243.688V22.5234C244.24 21.8828 245.057 21.5625 246.141 21.5625C247.547 21.5625 248.438 22.0573 248.812 23.0469C248.917 23.3281 248.969 23.6406 248.969 23.9844V30H247.5V23.8984ZM254.273 29.0469C255.383 29.0469 255.938 28.6328 255.938 27.8047C255.938 27.4453 255.888 27.1797 255.789 27.0078C255.69 26.8307 255.458 26.6745 255.094 26.5391L253.125 25.8125C252.521 25.599 252.099 25.3464 251.859 25.0547C251.625 24.7578 251.508 24.388 251.508 23.9453C251.508 23.5026 251.552 23.1484 251.641 22.8828C251.729 22.612 251.875 22.375 252.078 22.1719C252.484 21.7656 253.214 21.5625 254.266 21.5625C255.318 21.5625 256.224 21.7135 256.984 22.0156L256.648 23.1406C256.383 23.0312 256.034 22.9297 255.602 22.8359C255.169 22.737 254.792 22.6875 254.469 22.6875C253.724 22.6875 253.253 22.8073 253.055 23.0469C252.935 23.1979 252.875 23.4193 252.875 23.7109C252.875 24.0026 252.922 24.2109 253.016 24.3359C253.115 24.4557 253.305 24.5651 253.586 24.6641L255.531 25.4297C256.208 25.6953 256.654 25.9896 256.867 26.3125C257.081 26.6302 257.188 27.1328 257.188 27.8203C257.188 28.5078 256.966 29.0729 256.523 29.5156C256.081 29.9531 255.396 30.1719 254.469 30.1719C253.792 30.1719 253.19 30.099 252.664 29.9531C252.138 29.8073 251.734 29.6562 251.453 29.5L251.812 28.4219C252.557 28.8385 253.378 29.0469 254.273 29.0469ZM259.703 30V21.7188H261.172V30H259.703ZM259.703 20.2266V18.7031H261.172V20.2266H259.703ZM271.367 21.5625C272.034 21.5625 272.646 21.6667 273.203 21.875V18.2344H274.672V30H273.672L273.43 29.4531C273.174 29.651 272.839 29.8203 272.422 29.9609C272.005 30.1016 271.594 30.1719 271.188 30.1719C270.057 30.1719 269.227 29.9219 268.695 29.4219C268.169 28.9167 267.906 28.237 267.906 27.3828V24.2578C267.906 23.3984 268.19 22.7344 268.758 22.2656C269.326 21.7969 270.195 21.5625 271.367 21.5625ZM269.375 27.4922C269.375 27.987 269.549 28.3646 269.898 28.625C270.253 28.8854 270.667 29.0156 271.141 29.0156C271.984 29.0156 272.672 28.8516 273.203 28.5234V23.0312C272.729 22.8021 272.154 22.6875 271.477 22.6875C270.076 22.6875 269.375 23.1562 269.375 24.0938V27.4922ZM279.805 30.1719C278.966 30.1719 278.315 29.9453 277.852 29.4922C277.388 29.0339 277.156 28.4661 277.156 27.7891C277.156 27.4036 277.237 27.0833 277.398 26.8281C277.727 26.3073 278.706 25.8099 280.336 25.3359C281.279 25.0755 281.82 24.8516 281.961 24.6641C282.107 24.4766 282.188 24.3307 282.203 24.2266C282.219 24.1172 282.227 23.9453 282.227 23.7109C282.227 23.4766 282.13 23.2474 281.938 23.0234C281.75 22.7995 281.339 22.6875 280.703 22.6875C279.807 22.6875 279.258 22.8594 279.055 23.2031C278.951 23.3802 278.898 23.6198 278.898 23.9219V24.2891H277.484V23.9141C277.484 23.1068 277.753 22.513 278.289 22.1328C278.831 21.7526 279.638 21.5625 280.711 21.5625C281.784 21.5625 282.549 21.8073 283.008 22.2969C283.466 22.7812 283.695 23.474 283.695 24.375V27.9062C283.695 28.3385 283.75 28.6198 283.859 28.75C283.969 28.875 284.203 28.9375 284.562 28.9375L284.391 30.0625H284.094C283.573 30.0625 283.185 29.9635 282.93 29.7656C282.674 29.5625 282.479 29.25 282.344 28.8281C281.911 29.474 281.391 29.8802 280.781 30.0469C280.49 30.1302 280.164 30.1719 279.805 30.1719ZM280.539 26.3438C279.799 26.5573 279.286 26.7708 279 26.9844C278.719 27.1979 278.578 27.5 278.578 27.8906C278.578 28.276 278.708 28.5677 278.969 28.7656C279.234 28.9635 279.552 29.0625 279.922 29.0625C280.297 29.0625 280.635 29.0156 280.938 28.9219C281.24 28.8229 281.51 28.6797 281.75 28.4922C281.995 28.2995 282.154 28.0807 282.227 27.8359V25.4453C281.846 25.8255 281.284 26.125 280.539 26.3438ZM289.531 32.7578L289.383 31.5391H289.609C290.141 31.5391 290.495 31.4688 290.672 31.3281C290.849 31.1927 290.964 31.0234 291.016 30.8203C291.068 30.6224 291.094 30.3594 291.094 30.0312V21.7188H292.562V29.9453C292.562 31.3047 292.25 32.1458 291.625 32.4688C291.255 32.6615 290.729 32.7578 290.047 32.7578H289.531ZM291.094 20.2266V18.7031H292.562V20.2266H291.094ZM298.586 30.1719C297.372 30.1719 296.495 29.9193 295.953 29.4141C295.411 28.9089 295.141 28.1302 295.141 27.0781V24.1953C295.141 23.3776 295.419 22.7344 295.977 22.2656C296.534 21.7969 297.375 21.5625 298.5 21.5625C299.63 21.5625 300.469 21.7812 301.016 22.2188C301.568 22.651 301.844 23.2708 301.844 24.0781V26.0469H296.609V27.2109C296.609 27.8984 296.747 28.3776 297.023 28.6484C297.299 28.9141 297.797 29.0469 298.516 29.0469C299.234 29.0469 299.641 29.0312 299.734 29C299.828 28.9688 299.924 28.9323 300.023 28.8906C300.122 28.849 300.19 28.7995 300.227 28.7422C300.268 28.6849 300.32 28.599 300.383 28.4844C300.451 28.3646 300.5 28.1354 300.531 27.7969H301.828C301.776 28.2917 301.688 28.6901 301.562 28.9922C301.443 29.2943 301.25 29.5365 300.984 29.7188C300.724 29.8958 300.409 30.0156 300.039 30.0781C299.674 30.1406 299.19 30.1719 298.586 30.1719ZM296.609 25.0547H300.422V23.9219C300.422 23.4531 300.26 23.1302 299.938 22.9531C299.62 22.776 299.151 22.6875 298.531 22.6875C297.911 22.6875 297.435 22.7943 297.102 23.0078C296.773 23.2214 296.609 23.5729 296.609 24.0625V25.0547ZM309.953 22.1094C310.599 21.7448 311.378 21.5625 312.289 21.5625C313.201 21.5625 313.927 21.8047 314.469 22.2891C315.01 22.7734 315.281 23.4271 315.281 24.25V27.25C315.281 28.1094 314.984 28.8125 314.391 29.3594C313.797 29.901 312.974 30.1719 311.922 30.1719C311.255 30.1719 310.534 29.9297 309.758 29.4453L309.57 30H308.484V18.2344H309.953V22.1094ZM313.812 24.1406C313.812 23.1719 313.201 22.6875 311.977 22.6875C311.378 22.6875 310.703 22.8594 309.953 23.2031V28.5312C310.526 28.8542 311.109 29.0156 311.703 29.0156C312.302 29.0156 312.802 28.8724 313.203 28.5859C313.609 28.2943 313.812 27.901 313.812 27.4062V24.1406ZM320.117 30.1719C319.279 30.1719 318.628 29.9453 318.164 29.4922C317.701 29.0339 317.469 28.4661 317.469 27.7891C317.469 27.4036 317.549 27.0833 317.711 26.8281C318.039 26.3073 319.018 25.8099 320.648 25.3359C321.591 25.0755 322.133 24.8516 322.273 24.6641C322.419 24.4766 322.5 24.3307 322.516 24.2266C322.531 24.1172 322.539 23.9453 322.539 23.7109C322.539 23.4766 322.443 23.2474 322.25 23.0234C322.062 22.7995 321.651 22.6875 321.016 22.6875C320.12 22.6875 319.57 22.8594 319.367 23.2031C319.263 23.3802 319.211 23.6198 319.211 23.9219V24.2891H317.797V23.9141C317.797 23.1068 318.065 22.513 318.602 22.1328C319.143 21.7526 319.951 21.5625 321.023 21.5625C322.096 21.5625 322.862 21.8073 323.32 22.2969C323.779 22.7812 324.008 23.474 324.008 24.375V27.9062C324.008 28.3385 324.062 28.6198 324.172 28.75C324.281 28.875 324.516 28.9375 324.875 28.9375L324.703 30.0625H324.406C323.885 30.0625 323.497 29.9635 323.242 29.7656C322.987 29.5625 322.792 29.25 322.656 28.8281C322.224 29.474 321.703 29.8802 321.094 30.0469C320.802 30.1302 320.477 30.1719 320.117 30.1719ZM320.852 26.3438C320.112 26.5573 319.599 26.7708 319.312 26.9844C319.031 27.1979 318.891 27.5 318.891 27.8906C318.891 28.276 319.021 28.5677 319.281 28.7656C319.547 28.9635 319.865 29.0625 320.234 29.0625C320.609 29.0625 320.948 29.0156 321.25 28.9219C321.552 28.8229 321.823 28.6797 322.062 28.4922C322.307 28.2995 322.466 28.0807 322.539 27.8359V25.4453C322.159 25.8255 321.596 26.125 320.852 26.3438ZM326.688 30V29.0781L330.648 22.6875H326.828V21.7188H332.195V22.6172L328.211 29.0312H332.266V30H326.688ZM336.805 30.1719C335.966 30.1719 335.315 29.9453 334.852 29.4922C334.388 29.0339 334.156 28.4661 334.156 27.7891C334.156 27.4036 334.237 27.0833 334.398 26.8281C334.727 26.3073 335.706 25.8099 337.336 25.3359C338.279 25.0755 338.82 24.8516 338.961 24.6641C339.107 24.4766 339.188 24.3307 339.203 24.2266C339.219 24.1172 339.227 23.9453 339.227 23.7109C339.227 23.4766 339.13 23.2474 338.938 23.0234C338.75 22.7995 338.339 22.6875 337.703 22.6875C336.807 22.6875 336.258 22.8594 336.055 23.2031C335.951 23.3802 335.898 23.6198 335.898 23.9219V24.2891H334.484V23.9141C334.484 23.1068 334.753 22.513 335.289 22.1328C335.831 21.7526 336.638 21.5625 337.711 21.5625C338.784 21.5625 339.549 21.8073 340.008 22.2969C340.466 22.7812 340.695 23.474 340.695 24.375V27.9062C340.695 28.3385 340.75 28.6198 340.859 28.75C340.969 28.875 341.203 28.9375 341.562 28.9375L341.391 30.0625H341.094C340.573 30.0625 340.185 29.9635 339.93 29.7656C339.674 29.5625 339.479 29.25 339.344 28.8281C338.911 29.474 338.391 29.8802 337.781 30.0469C337.49 30.1302 337.164 30.1719 336.805 30.1719ZM337.539 26.3438C336.799 26.5573 336.286 26.7708 336 26.9844C335.719 27.1979 335.578 27.5 335.578 27.8906C335.578 28.276 335.708 28.5677 335.969 28.7656C336.234 28.9635 336.552 29.0625 336.922 29.0625C337.297 29.0625 337.635 29.0156 337.938 28.9219C338.24 28.8229 338.51 28.6797 338.75 28.4922C338.995 28.2995 339.154 28.0807 339.227 27.8359V25.4453C338.846 25.8255 338.284 26.125 337.539 26.3438ZM347.734 33.1875V21.7188H348.891L349.062 22.3438C349.302 22.1302 349.63 21.9479 350.047 21.7969C350.464 21.6406 350.896 21.5625 351.344 21.5625C352.37 21.5625 353.148 21.8125 353.68 22.3125C354.216 22.8125 354.484 23.4766 354.484 24.3047V27.3125C354.484 28.1667 354.193 28.8568 353.609 29.3828C353.026 29.9089 352.208 30.1719 351.156 30.1719C350.427 30.1719 349.776 30.026 349.203 29.7344V33.1875H347.734ZM349.203 28.6016C349.729 28.8984 350.318 29.0469 350.969 29.0469C351.62 29.0469 352.122 28.9089 352.477 28.6328C352.836 28.3568 353.016 27.9688 353.016 27.4688V24.1875C353.016 23.7083 352.839 23.3385 352.484 23.0781C352.135 22.8177 351.706 22.6875 351.195 22.6875C350.69 22.6875 350.258 22.7917 349.898 23C349.544 23.2083 349.312 23.3958 349.203 23.5625V28.6016ZM358.266 27.6641C358.266 28.5859 358.919 29.0469 360.227 29.0469C361.534 29.0469 362.188 28.5859 362.188 27.6641V24.0781C362.188 23.151 361.534 22.6875 360.227 22.6875C358.919 22.6875 358.266 23.151 358.266 24.0781V27.6641ZM363.656 27.5391C363.656 28.3516 363.378 28.9948 362.82 29.4688C362.268 29.9375 361.401 30.1719 360.219 30.1719C359.036 30.1719 358.169 29.9375 357.617 29.4688C357.07 29 356.797 28.3568 356.797 27.5391V24.2031C356.797 23.3854 357.07 22.7422 357.617 22.2734C358.169 21.7995 359.036 21.5625 360.219 21.5625C361.401 21.5625 362.268 21.7995 362.82 22.2734C363.378 22.7474 363.656 23.3906 363.656 24.2031V27.5391ZM367.117 31.7734C367.659 31.9714 368.323 32.0703 369.109 32.0703C369.896 32.0703 370.445 31.9219 370.758 31.625C371.076 31.3281 371.234 30.8672 371.234 30.2422V29.0938C371.021 29.2917 370.701 29.4401 370.273 29.5391C369.852 29.638 369.464 29.6875 369.109 29.6875C367.016 29.6875 365.969 28.8047 365.969 27.0391V24.3125C365.969 23.4531 366.229 22.7812 366.75 22.2969C367.276 21.8073 368.062 21.5625 369.109 21.5625C369.526 21.5625 369.953 21.651 370.391 21.8281C370.833 22 371.115 22.1849 371.234 22.3828V21.7188H372.703V29.8047C372.703 30.7995 372.44 31.612 371.914 32.2422C371.393 32.8724 370.549 33.1875 369.383 33.1875C368.216 33.1875 367.352 33.0833 366.789 32.875L367.117 31.7734ZM371.234 23.8281C371.234 23.0677 370.602 22.6875 369.336 22.6875C368.07 22.6875 367.438 23.1771 367.438 24.1562V27.2656C367.438 28.1302 368.07 28.5625 369.336 28.5625C370.081 28.5625 370.714 28.3542 371.234 27.9375V23.8281ZM375.531 30V21.7188H377V22.8906C377.188 22.3802 377.695 22.0104 378.523 21.7812C378.956 21.6562 379.406 21.5964 379.875 21.6016L379.828 22.8594C379.12 22.8594 378.471 23 377.883 23.2812C377.294 23.5625 377 23.8698 377 24.2031V30H375.531ZM384.883 30.1719C383.669 30.1719 382.792 29.9193 382.25 29.4141C381.708 28.9089 381.438 28.1302 381.438 27.0781V24.1953C381.438 23.3776 381.716 22.7344 382.273 22.2656C382.831 21.7969 383.672 21.5625 384.797 21.5625C385.927 21.5625 386.766 21.7812 387.312 22.2188C387.865 22.651 388.141 23.2708 388.141 24.0781V26.0469H382.906V27.2109C382.906 27.8984 383.044 28.3776 383.32 28.6484C383.596 28.9141 384.094 29.0469 384.812 29.0469C385.531 29.0469 385.938 29.0312 386.031 29C386.125 28.9688 386.221 28.9323 386.32 28.8906C386.419 28.849 386.487 28.7995 386.523 28.7422C386.565 28.6849 386.617 28.599 386.68 28.4844C386.747 28.3646 386.797 28.1354 386.828 27.7969H388.125C388.073 28.2917 387.984 28.6901 387.859 28.9922C387.74 29.2943 387.547 29.5365 387.281 29.7188C387.021 29.8958 386.706 30.0156 386.336 30.0781C385.971 30.1406 385.487 30.1719 384.883 30.1719ZM382.906 25.0547H386.719V23.9219C386.719 23.4531 386.557 23.1302 386.234 22.9531C385.917 22.776 385.448 22.6875 384.828 22.6875C384.208 22.6875 383.732 22.7943 383.398 23.0078C383.07 23.2214 382.906 23.5729 382.906 24.0625V25.0547ZM392.672 20.2891L391.07 18.2109H392.281L393.25 19.5703L394.281 18.2109H395.539L393.844 20.2891H392.672ZM393.258 29.0469C394.367 29.0469 394.922 28.6328 394.922 27.8047C394.922 27.4453 394.872 27.1797 394.773 27.0078C394.674 26.8307 394.443 26.6745 394.078 26.5391L392.109 25.8125C391.505 25.599 391.083 25.3464 390.844 25.0547C390.609 24.7578 390.492 24.388 390.492 23.9453C390.492 23.5026 390.536 23.1484 390.625 22.8828C390.714 22.612 390.859 22.375 391.062 22.1719C391.469 21.7656 392.198 21.5625 393.25 21.5625C394.302 21.5625 395.208 21.7135 395.969 22.0156L395.633 23.1406C395.367 23.0312 395.018 22.9297 394.586 22.8359C394.154 22.737 393.776 22.6875 393.453 22.6875C392.708 22.6875 392.237 22.8073 392.039 23.0469C391.919 23.1979 391.859 23.4193 391.859 23.7109C391.859 24.0026 391.906 24.2109 392 24.3359C392.099 24.4557 392.289 24.5651 392.57 24.6641L394.516 25.4297C395.193 25.6953 395.638 25.9896 395.852 26.3125C396.065 26.6302 396.172 27.1328 396.172 27.8203C396.172 28.5078 395.951 29.0729 395.508 29.5156C395.065 29.9531 394.38 30.1719 393.453 30.1719C392.776 30.1719 392.174 30.099 391.648 29.9531C391.122 29.8073 390.719 29.6562 390.438 29.5L390.797 28.4219C391.542 28.8385 392.362 29.0469 393.258 29.0469ZM403.812 23.8984C403.812 23.0911 403.195 22.6875 401.961 22.6875C401.352 22.6875 400.872 22.8177 400.523 23.0781C400.174 23.3385 400 23.6797 400 24.1016V30H398.531V21.7188H400V22.5234C400.552 21.8828 401.37 21.5625 402.453 21.5625C403.859 21.5625 404.75 22.0573 405.125 23.0469C405.229 23.3281 405.281 23.6406 405.281 23.9844V30H403.812V23.8984ZM409.281 27.6641C409.281 28.5859 409.935 29.0469 411.242 29.0469C412.549 29.0469 413.203 28.5859 413.203 27.6641V24.0781C413.203 23.151 412.549 22.6875 411.242 22.6875C409.935 22.6875 409.281 23.151 409.281 24.0781V27.6641ZM414.672 27.5391C414.672 28.3516 414.393 28.9948 413.836 29.4688C413.284 29.9375 412.417 30.1719 411.234 30.1719C410.052 30.1719 409.185 29.9375 408.633 29.4688C408.086 29 407.812 28.3568 407.812 27.5391V24.2031C407.812 23.3854 408.086 22.7422 408.633 22.2734C409.185 21.7995 410.052 21.5625 411.234 21.5625C412.417 21.5625 413.284 21.7995 413.836 22.2734C414.393 22.7474 414.672 23.3906 414.672 24.2031V27.5391ZM422.453 27.6641C422.453 28.5859 423.107 29.0469 424.414 29.0469C425.721 29.0469 426.375 28.5859 426.375 27.6641V24.0781C426.375 23.151 425.721 22.6875 424.414 22.6875C423.107 22.6875 422.453 23.151 422.453 24.0781V27.6641ZM427.844 27.5391C427.844 28.3516 427.565 28.9948 427.008 29.4688C426.456 29.9375 425.589 30.1719 424.406 30.1719C423.224 30.1719 422.357 29.9375 421.805 29.4688C421.258 29 420.984 28.3568 420.984 27.5391V24.2031C420.984 23.3854 421.258 22.7422 421.805 22.2734C422.357 21.7995 423.224 21.5625 424.406 21.5625C425.589 21.5625 426.456 21.7995 427.008 22.2734C427.565 22.7474 427.844 23.3906 427.844 24.2031V27.5391ZM433.617 21.5625C434.284 21.5625 434.896 21.6667 435.453 21.875V18.2344H436.922V30H435.922L435.68 29.4531C435.424 29.651 435.089 29.8203 434.672 29.9609C434.255 30.1016 433.844 30.1719 433.438 30.1719C432.307 30.1719 431.477 29.9219 430.945 29.4219C430.419 28.9167 430.156 28.237 430.156 27.3828V24.2578C430.156 23.3984 430.44 22.7344 431.008 22.2656C431.576 21.7969 432.445 21.5625 433.617 21.5625ZM431.625 27.4922C431.625 27.987 431.799 28.3646 432.148 28.625C432.503 28.8854 432.917 29.0156 433.391 29.0156C434.234 29.0156 434.922 28.8516 435.453 28.5234V23.0312C434.979 22.8021 434.404 22.6875 433.727 22.6875C432.326 22.6875 431.625 23.1562 431.625 24.0938V27.4922ZM439.828 30V21.7188H441.297V22.8906C441.484 22.3802 441.992 22.0104 442.82 21.7812C443.253 21.6562 443.703 21.5964 444.172 21.6016L444.125 22.8594C443.417 22.8594 442.768 23 442.18 23.2812C441.591 23.5625 441.297 23.8698 441.297 24.2031V30H439.828ZM449.18 30.1719C447.966 30.1719 447.089 29.9193 446.547 29.4141C446.005 28.9089 445.734 28.1302 445.734 27.0781V24.1953C445.734 23.3776 446.013 22.7344 446.57 22.2656C447.128 21.7969 447.969 21.5625 449.094 21.5625C450.224 21.5625 451.062 21.7812 451.609 22.2188C452.161 22.651 452.438 23.2708 452.438 24.0781V26.0469H447.203V27.2109C447.203 27.8984 447.341 28.3776 447.617 28.6484C447.893 28.9141 448.391 29.0469 449.109 29.0469C449.828 29.0469 450.234 29.0312 450.328 29C450.422 28.9688 450.518 28.9323 450.617 28.8906C450.716 28.849 450.784 28.7995 450.82 28.7422C450.862 28.6849 450.914 28.599 450.977 28.4844C451.044 28.3646 451.094 28.1354 451.125 27.7969H452.422C452.37 28.2917 452.281 28.6901 452.156 28.9922C452.036 29.2943 451.844 29.5365 451.578 29.7188C451.318 29.8958 451.003 30.0156 450.633 30.0781C450.268 30.1406 449.784 30.1719 449.18 30.1719ZM447.203 25.0547H451.016V23.9219C451.016 23.4531 450.854 23.1302 450.531 22.9531C450.214 22.776 449.745 22.6875 449.125 22.6875C448.505 22.6875 448.029 22.7943 447.695 23.0078C447.367 23.2214 447.203 23.5729 447.203 24.0625V25.0547ZM456.25 27.4922C456.25 27.987 456.424 28.3646 456.773 28.625C457.128 28.8854 457.542 29.0156 458.016 29.0156C458.859 29.0156 459.547 28.8516 460.078 28.5234V23.0312C459.604 22.8021 459.029 22.6875 458.352 22.6875C456.951 22.6875 456.25 23.1562 456.25 24.0938V27.4922ZM458.242 21.5625C458.909 21.5625 459.521 21.6667 460.078 21.875V20.2422H457.234V19.2734H460.078V18.2344H461.547V19.2734H462.82V20.2422H461.547V30H460.547L460.305 29.4531C460.049 29.651 459.714 29.8203 459.297 29.9609C458.88 30.1016 458.469 30.1719 458.062 30.1719C456.932 30.1719 456.102 29.9219 455.57 29.4219C455.044 28.9167 454.781 28.237 454.781 27.3828V24.2578C454.781 23.3984 455.065 22.7344 455.633 22.2656C456.201 21.7969 457.07 21.5625 458.242 21.5625ZM467.602 30.1719C466.388 30.1719 465.51 29.9193 464.969 29.4141C464.427 28.9089 464.156 28.1302 464.156 27.0781V24.1953C464.156 23.3776 464.435 22.7344 464.992 22.2656C465.549 21.7969 466.391 21.5625 467.516 21.5625C468.646 21.5625 469.484 21.7812 470.031 22.2188C470.583 22.651 470.859 23.2708 470.859 24.0781V26.0469H465.625V27.2109C465.625 27.8984 465.763 28.3776 466.039 28.6484C466.315 28.9141 466.812 29.0469 467.531 29.0469C468.25 29.0469 468.656 29.0312 468.75 29C468.844 28.9688 468.94 28.9323 469.039 28.8906C469.138 28.849 469.206 28.7995 469.242 28.7422C469.284 28.6849 469.336 28.599 469.398 28.4844C469.466 28.3646 469.516 28.1354 469.547 27.7969H470.844C470.792 28.2917 470.703 28.6901 470.578 28.9922C470.458 29.2943 470.266 29.5365 470 29.7188C469.74 29.8958 469.424 30.0156 469.055 30.0781C468.69 30.1406 468.206 30.1719 467.602 30.1719ZM465.625 25.0547H469.438V23.9219C469.438 23.4531 469.276 23.1302 468.953 22.9531C468.635 22.776 468.167 22.6875 467.547 22.6875C466.927 22.6875 466.451 22.7943 466.117 23.0078C465.789 23.2214 465.625 23.5729 465.625 24.0625V25.0547ZM478.781 23.8984C478.781 23.0911 478.164 22.6875 476.93 22.6875C476.32 22.6875 475.841 22.8177 475.492 23.0781C475.143 23.3385 474.969 23.6797 474.969 24.1016V30H473.5V21.7188H474.969V22.5234C475.521 21.8828 476.339 21.5625 477.422 21.5625C478.828 21.5625 479.719 22.0573 480.094 23.0469C480.198 23.3281 480.25 23.6406 480.25 23.9844V30H478.781V23.8984ZM485.305 30.1719C484.466 30.1719 483.815 29.9453 483.352 29.4922C482.888 29.0339 482.656 28.4661 482.656 27.7891C482.656 27.4036 482.737 27.0833 482.898 26.8281C483.227 26.3073 484.206 25.8099 485.836 25.3359C486.779 25.0755 487.32 24.8516 487.461 24.6641C487.607 24.4766 487.688 24.3307 487.703 24.2266C487.719 24.1172 487.727 23.9453 487.727 23.7109C487.727 23.4766 487.63 23.2474 487.438 23.0234C487.25 22.7995 486.839 22.6875 486.203 22.6875C485.307 22.6875 484.758 22.8594 484.555 23.2031C484.451 23.3802 484.398 23.6198 484.398 23.9219V24.2891H482.984V23.9141C482.984 23.1068 483.253 22.513 483.789 22.1328C484.331 21.7526 485.138 21.5625 486.211 21.5625C487.284 21.5625 488.049 21.8073 488.508 22.2969C488.966 22.7812 489.195 23.474 489.195 24.375V27.9062C489.195 28.3385 489.25 28.6198 489.359 28.75C489.469 28.875 489.703 28.9375 490.062 28.9375L489.891 30.0625H489.594C489.073 30.0625 488.685 29.9635 488.43 29.7656C488.174 29.5625 487.979 29.25 487.844 28.8281C487.411 29.474 486.891 29.8802 486.281 30.0469C485.99 30.1302 485.664 30.1719 485.305 30.1719ZM486.039 26.3438C485.299 26.5573 484.786 26.7708 484.5 26.9844C484.219 27.1979 484.078 27.5 484.078 27.8906C484.078 28.276 484.208 28.5677 484.469 28.7656C484.734 28.9635 485.052 29.0625 485.422 29.0625C485.797 29.0625 486.135 29.0156 486.438 28.9219C486.74 28.8229 487.01 28.6797 487.25 28.4922C487.495 28.2995 487.654 28.0807 487.727 27.8359V25.4453C487.346 25.8255 486.784 26.125 486.039 26.3438Z" fill="#C9D1D9"/>
<path d="M174.609 80V78.7891H177.742V70.0234L174.82 70.3359L174.68 69.0938L178.031 68.7031H179.312V78.7891H182.078V80H174.609ZM190.992 80.1719C189.581 80.1719 188.685 79.6719 188.305 78.6719C188.195 78.3854 188.141 78.0729 188.141 77.7344V71.7188H189.609V77.7422C189.609 78.1484 189.758 78.4688 190.055 78.7031C190.357 78.9323 190.805 79.0469 191.398 79.0469C191.992 79.0469 192.474 78.901 192.844 78.6094C193.219 78.3125 193.406 77.9714 193.406 77.5859V71.7188H194.875V80H193.562L193.406 78.9609C192.948 79.7682 192.143 80.1719 190.992 80.1719ZM201.938 80V78.7891H205.07V70.0234L202.148 70.3359L202.008 69.0938L205.359 68.7031H206.641V78.7891H209.406V80H201.938ZM215.016 78.9062C215.604 78.9062 216.036 78.8099 216.312 78.6172C216.464 78.513 216.594 78.4062 216.703 78.2969C217.073 77.9271 217.258 77.0625 217.258 75.7031V73.5C217.258 72.5833 217.221 71.9323 217.148 71.5469C216.935 70.3802 216.268 69.7969 215.148 69.7969C214.18 69.7969 213.526 70.0938 213.188 70.6875C212.979 71.0521 212.846 71.4661 212.789 71.9297C212.732 72.388 212.703 72.9531 212.703 73.625V75.1641C212.703 76.2786 212.781 77.0677 212.938 77.5312C213.25 78.4479 213.943 78.9062 215.016 78.9062ZM216.984 79.7812C216.745 79.8958 216.461 79.9896 216.133 80.0625C215.805 80.1354 215.409 80.1719 214.945 80.1719C214.487 80.1719 214.052 80.1146 213.641 80C212.844 79.776 212.268 79.401 211.914 78.875C211.565 78.3438 211.346 77.7656 211.258 77.1406C211.169 76.5156 211.125 75.8125 211.125 75.0312V73.8281C211.125 72.7344 211.167 71.9974 211.25 71.6172C211.427 70.8255 211.628 70.2682 211.852 69.9453C212.508 69.0026 213.505 68.5312 214.844 68.5312C216.438 68.5312 217.51 68.9922 218.062 69.9141C218.401 70.4714 218.612 71.0703 218.695 71.7109C218.784 72.3516 218.828 73.0911 218.828 73.9297V74.9219C218.828 75.974 218.786 76.6927 218.703 77.0781C218.625 77.4635 218.539 77.7917 218.445 78.0625C218.357 78.3333 218.247 78.5651 218.117 78.7578C217.992 78.9453 217.833 79.1354 217.641 79.3281C217.448 79.5156 217.229 79.6667 216.984 79.7812ZM224.781 78.9062C225.37 78.9062 225.802 78.8099 226.078 78.6172C226.229 78.513 226.359 78.4062 226.469 78.2969C226.839 77.9271 227.023 77.0625 227.023 75.7031V73.5C227.023 72.5833 226.987 71.9323 226.914 71.5469C226.701 70.3802 226.034 69.7969 224.914 69.7969C223.945 69.7969 223.292 70.0938 222.953 70.6875C222.745 71.0521 222.612 71.4661 222.555 71.9297C222.497 72.388 222.469 72.9531 222.469 73.625V75.1641C222.469 76.2786 222.547 77.0677 222.703 77.5312C223.016 78.4479 223.708 78.9062 224.781 78.9062ZM226.75 79.7812C226.51 79.8958 226.227 79.9896 225.898 80.0625C225.57 80.1354 225.174 80.1719 224.711 80.1719C224.253 80.1719 223.818 80.1146 223.406 80C222.609 79.776 222.034 79.401 221.68 78.875C221.331 78.3438 221.112 77.7656 221.023 77.1406C220.935 76.5156 220.891 75.8125 220.891 75.0312V73.8281C220.891 72.7344 220.932 71.9974 221.016 71.6172C221.193 70.8255 221.393 70.2682 221.617 69.9453C222.273 69.0026 223.271 68.5312 224.609 68.5312C226.203 68.5312 227.276 68.9922 227.828 69.9141C228.167 70.4714 228.378 71.0703 228.461 71.7109C228.549 72.3516 228.594 73.0911 228.594 73.9297V74.9219C228.594 75.974 228.552 76.6927 228.469 77.0781C228.391 77.4635 228.305 77.7917 228.211 78.0625C228.122 78.3333 228.013 78.5651 227.883 78.7578C227.758 78.9453 227.599 79.1354 227.406 79.3281C227.214 79.5156 226.995 79.6667 226.75 79.7812ZM236.969 70.2891L235.367 68.2109H236.578L237.547 69.5703L238.578 68.2109H239.836L238.141 70.2891H236.969ZM237.555 79.0469C238.664 79.0469 239.219 78.6328 239.219 77.8047C239.219 77.4453 239.169 77.1797 239.07 77.0078C238.971 76.8307 238.74 76.6745 238.375 76.5391L236.406 75.8125C235.802 75.599 235.38 75.3464 235.141 75.0547C234.906 74.7578 234.789 74.388 234.789 73.9453C234.789 73.5026 234.833 73.1484 234.922 72.8828C235.01 72.612 235.156 72.375 235.359 72.1719C235.766 71.7656 236.495 71.5625 237.547 71.5625C238.599 71.5625 239.505 71.7135 240.266 72.0156L239.93 73.1406C239.664 73.0312 239.315 72.9297 238.883 72.8359C238.451 72.737 238.073 72.6875 237.75 72.6875C237.005 72.6875 236.534 72.8073 236.336 73.0469C236.216 73.1979 236.156 73.4193 236.156 73.7109C236.156 74.0026 236.203 74.2109 236.297 74.3359C236.396 74.4557 236.586 74.5651 236.867 74.6641L238.812 75.4297C239.49 75.6953 239.935 75.9896 240.148 76.3125C240.362 76.6302 240.469 77.1328 240.469 77.8203C240.469 78.5078 240.247 79.0729 239.805 79.5156C239.362 79.9531 238.677 80.1719 237.75 80.1719C237.073 80.1719 236.471 80.099 235.945 79.9531C235.419 79.8073 235.016 79.6562 234.734 79.5L235.094 78.4219C235.839 78.8385 236.659 79.0469 237.555 79.0469ZM245.055 80.1719C244.216 80.1719 243.565 79.9453 243.102 79.4922C242.638 79.0339 242.406 78.4661 242.406 77.7891C242.406 77.4036 242.487 77.0833 242.648 76.8281C242.977 76.3073 243.956 75.8099 245.586 75.3359C246.529 75.0755 247.07 74.8516 247.211 74.6641C247.357 74.4766 247.438 74.3307 247.453 74.2266C247.469 74.1172 247.477 73.9453 247.477 73.7109C247.477 73.4766 247.38 73.2474 247.188 73.0234C247 72.7995 246.589 72.6875 245.953 72.6875C245.057 72.6875 244.508 72.8594 244.305 73.2031C244.201 73.3802 244.148 73.6198 244.148 73.9219V74.2891H242.734V73.9141C242.734 73.1068 243.003 72.513 243.539 72.1328C244.081 71.7526 244.888 71.5625 245.961 71.5625C247.034 71.5625 247.799 71.8073 248.258 72.2969C248.716 72.7812 248.945 73.474 248.945 74.375V77.9062C248.945 78.3385 249 78.6198 249.109 78.75C249.219 78.875 249.453 78.9375 249.812 78.9375L249.641 80.0625H249.344C248.823 80.0625 248.435 79.9635 248.18 79.7656C247.924 79.5625 247.729 79.25 247.594 78.8281C247.161 79.474 246.641 79.8802 246.031 80.0469C245.74 80.1302 245.414 80.1719 245.055 80.1719ZM245.789 76.3438C245.049 76.5573 244.536 76.7708 244.25 76.9844C243.969 77.1979 243.828 77.5 243.828 77.8906C243.828 78.276 243.958 78.5677 244.219 78.7656C244.484 78.9635 244.802 79.0625 245.172 79.0625C245.547 79.0625 245.885 79.0156 246.188 78.9219C246.49 78.8229 246.76 78.6797 247 78.4922C247.245 78.2995 247.404 78.0807 247.477 77.8359V75.4453C247.096 75.8255 246.534 76.125 245.789 76.3438ZM257.266 73.8984C257.266 73.0911 256.648 72.6875 255.414 72.6875C254.805 72.6875 254.326 72.8177 253.977 73.0781C253.628 73.3385 253.453 73.6797 253.453 74.1016V80H251.984V71.7188H253.453V72.5234C254.005 71.8828 254.823 71.5625 255.906 71.5625C257.312 71.5625 258.203 72.0573 258.578 73.0469C258.682 73.3281 258.734 73.6406 258.734 73.9844V80H257.266V73.8984ZM264.039 79.0469C265.148 79.0469 265.703 78.6328 265.703 77.8047C265.703 77.4453 265.654 77.1797 265.555 77.0078C265.456 76.8307 265.224 76.6745 264.859 76.5391L262.891 75.8125C262.286 75.599 261.865 75.3464 261.625 75.0547C261.391 74.7578 261.273 74.388 261.273 73.9453C261.273 73.5026 261.318 73.1484 261.406 72.8828C261.495 72.612 261.641 72.375 261.844 72.1719C262.25 71.7656 262.979 71.5625 264.031 71.5625C265.083 71.5625 265.99 71.7135 266.75 72.0156L266.414 73.1406C266.148 73.0312 265.799 72.9297 265.367 72.8359C264.935 72.737 264.557 72.6875 264.234 72.6875C263.49 72.6875 263.018 72.8073 262.82 73.0469C262.701 73.1979 262.641 73.4193 262.641 73.7109C262.641 74.0026 262.688 74.2109 262.781 74.3359C262.88 74.4557 263.07 74.5651 263.352 74.6641L265.297 75.4297C265.974 75.6953 266.419 75.9896 266.633 76.3125C266.846 76.6302 266.953 77.1328 266.953 77.8203C266.953 78.5078 266.732 79.0729 266.289 79.5156C265.846 79.9531 265.161 80.1719 264.234 80.1719C263.557 80.1719 262.956 80.099 262.43 79.9531C261.904 79.8073 261.5 79.6562 261.219 79.5L261.578 78.4219C262.323 78.8385 263.143 79.0469 264.039 79.0469ZM269.469 80V71.7188H270.938V80H269.469ZM269.469 70.2266V68.7031H270.938V70.2266H269.469ZM281.133 71.5625C281.799 71.5625 282.411 71.6667 282.969 71.875V68.2344H284.438V80H283.438L283.195 79.4531C282.94 79.651 282.604 79.8203 282.188 79.9609C281.771 80.1016 281.359 80.1719 280.953 80.1719C279.823 80.1719 278.992 79.9219 278.461 79.4219C277.935 78.9167 277.672 78.237 277.672 77.3828V74.2578C277.672 73.3984 277.956 72.7344 278.523 72.2656C279.091 71.7969 279.961 71.5625 281.133 71.5625ZM279.141 77.4922C279.141 77.987 279.315 78.3646 279.664 78.625C280.018 78.8854 280.432 79.0156 280.906 79.0156C281.75 79.0156 282.438 78.8516 282.969 78.5234V73.0312C282.495 72.8021 281.919 72.6875 281.242 72.6875C279.841 72.6875 279.141 73.1562 279.141 74.0938V77.4922ZM289.57 80.1719C288.732 80.1719 288.081 79.9453 287.617 79.4922C287.154 79.0339 286.922 78.4661 286.922 77.7891C286.922 77.4036 287.003 77.0833 287.164 76.8281C287.492 76.3073 288.471 75.8099 290.102 75.3359C291.044 75.0755 291.586 74.8516 291.727 74.6641C291.872 74.4766 291.953 74.3307 291.969 74.2266C291.984 74.1172 291.992 73.9453 291.992 73.7109C291.992 73.4766 291.896 73.2474 291.703 73.0234C291.516 72.7995 291.104 72.6875 290.469 72.6875C289.573 72.6875 289.023 72.8594 288.82 73.2031C288.716 73.3802 288.664 73.6198 288.664 73.9219V74.2891H287.25V73.9141C287.25 73.1068 287.518 72.513 288.055 72.1328C288.596 71.7526 289.404 71.5625 290.477 71.5625C291.549 71.5625 292.315 71.8073 292.773 72.2969C293.232 72.7812 293.461 73.474 293.461 74.375V77.9062C293.461 78.3385 293.516 78.6198 293.625 78.75C293.734 78.875 293.969 78.9375 294.328 78.9375L294.156 80.0625H293.859C293.339 80.0625 292.951 79.9635 292.695 79.7656C292.44 79.5625 292.245 79.25 292.109 78.8281C291.677 79.474 291.156 79.8802 290.547 80.0469C290.255 80.1302 289.93 80.1719 289.57 80.1719ZM290.305 76.3438C289.565 76.5573 289.052 76.7708 288.766 76.9844C288.484 77.1979 288.344 77.5 288.344 77.8906C288.344 78.276 288.474 78.5677 288.734 78.7656C289 78.9635 289.318 79.0625 289.688 79.0625C290.062 79.0625 290.401 79.0156 290.703 78.9219C291.005 78.8229 291.276 78.6797 291.516 78.4922C291.76 78.2995 291.919 78.0807 291.992 77.8359V75.4453C291.612 75.8255 291.049 76.125 290.305 76.3438ZM299.297 82.7578L299.148 81.5391H299.375C299.906 81.5391 300.26 81.4688 300.438 81.3281C300.615 81.1927 300.729 81.0234 300.781 80.8203C300.833 80.6224 300.859 80.3594 300.859 80.0312V71.7188H302.328V79.9453C302.328 81.3047 302.016 82.1458 301.391 82.4688C301.021 82.6615 300.495 82.7578 299.812 82.7578H299.297ZM300.859 70.2266V68.7031H302.328V70.2266H300.859ZM308.352 80.1719C307.138 80.1719 306.26 79.9193 305.719 79.4141C305.177 78.9089 304.906 78.1302 304.906 77.0781V74.1953C304.906 73.3776 305.185 72.7344 305.742 72.2656C306.299 71.7969 307.141 71.5625 308.266 71.5625C309.396 71.5625 310.234 71.7812 310.781 72.2188C311.333 72.651 311.609 73.2708 311.609 74.0781V76.0469H306.375V77.2109C306.375 77.8984 306.513 78.3776 306.789 78.6484C307.065 78.9141 307.562 79.0469 308.281 79.0469C309 79.0469 309.406 79.0312 309.5 79C309.594 78.9688 309.69 78.9323 309.789 78.8906C309.888 78.849 309.956 78.7995 309.992 78.7422C310.034 78.6849 310.086 78.599 310.148 78.4844C310.216 78.3646 310.266 78.1354 310.297 77.7969H311.594C311.542 78.2917 311.453 78.6901 311.328 78.9922C311.208 79.2943 311.016 79.5365 310.75 79.7188C310.49 79.8958 310.174 80.0156 309.805 80.0781C309.44 80.1406 308.956 80.1719 308.352 80.1719ZM306.375 75.0547H310.188V73.9219C310.188 73.4531 310.026 73.1302 309.703 72.9531C309.385 72.776 308.917 72.6875 308.297 72.6875C307.677 72.6875 307.201 72.7943 306.867 73.0078C306.539 73.2214 306.375 73.5729 306.375 74.0625V75.0547ZM319.719 72.1094C320.365 71.7448 321.143 71.5625 322.055 71.5625C322.966 71.5625 323.693 71.8047 324.234 72.2891C324.776 72.7734 325.047 73.4271 325.047 74.25V77.25C325.047 78.1094 324.75 78.8125 324.156 79.3594C323.562 79.901 322.74 80.1719 321.688 80.1719C321.021 80.1719 320.299 79.9297 319.523 79.4453L319.336 80H318.25V68.2344H319.719V72.1094ZM323.578 74.1406C323.578 73.1719 322.966 72.6875 321.742 72.6875C321.143 72.6875 320.469 72.8594 319.719 73.2031V78.5312C320.292 78.8542 320.875 79.0156 321.469 79.0156C322.068 79.0156 322.568 78.8724 322.969 78.5859C323.375 78.2943 323.578 77.901 323.578 77.4062V74.1406ZM329.883 80.1719C329.044 80.1719 328.393 79.9453 327.93 79.4922C327.466 79.0339 327.234 78.4661 327.234 77.7891C327.234 77.4036 327.315 77.0833 327.477 76.8281C327.805 76.3073 328.784 75.8099 330.414 75.3359C331.357 75.0755 331.898 74.8516 332.039 74.6641C332.185 74.4766 332.266 74.3307 332.281 74.2266C332.297 74.1172 332.305 73.9453 332.305 73.7109C332.305 73.4766 332.208 73.2474 332.016 73.0234C331.828 72.7995 331.417 72.6875 330.781 72.6875C329.885 72.6875 329.336 72.8594 329.133 73.2031C329.029 73.3802 328.977 73.6198 328.977 73.9219V74.2891H327.562V73.9141C327.562 73.1068 327.831 72.513 328.367 72.1328C328.909 71.7526 329.716 71.5625 330.789 71.5625C331.862 71.5625 332.628 71.8073 333.086 72.2969C333.544 72.7812 333.773 73.474 333.773 74.375V77.9062C333.773 78.3385 333.828 78.6198 333.938 78.75C334.047 78.875 334.281 78.9375 334.641 78.9375L334.469 80.0625H334.172C333.651 80.0625 333.263 79.9635 333.008 79.7656C332.753 79.5625 332.557 79.25 332.422 78.8281C331.99 79.474 331.469 79.8802 330.859 80.0469C330.568 80.1302 330.242 80.1719 329.883 80.1719ZM330.617 76.3438C329.878 76.5573 329.365 76.7708 329.078 76.9844C328.797 77.1979 328.656 77.5 328.656 77.8906C328.656 78.276 328.786 78.5677 329.047 78.7656C329.312 78.9635 329.63 79.0625 330 79.0625C330.375 79.0625 330.714 79.0156 331.016 78.9219C331.318 78.8229 331.589 78.6797 331.828 78.4922C332.073 78.2995 332.232 78.0807 332.305 77.8359V75.4453C331.924 75.8255 331.362 76.125 330.617 76.3438ZM336.453 80V79.0781L340.414 72.6875H336.594V71.7188H341.961V72.6172L337.977 79.0312H342.031V80H336.453ZM346.57 80.1719C345.732 80.1719 345.081 79.9453 344.617 79.4922C344.154 79.0339 343.922 78.4661 343.922 77.7891C343.922 77.4036 344.003 77.0833 344.164 76.8281C344.492 76.3073 345.471 75.8099 347.102 75.3359C348.044 75.0755 348.586 74.8516 348.727 74.6641C348.872 74.4766 348.953 74.3307 348.969 74.2266C348.984 74.1172 348.992 73.9453 348.992 73.7109C348.992 73.4766 348.896 73.2474 348.703 73.0234C348.516 72.7995 348.104 72.6875 347.469 72.6875C346.573 72.6875 346.023 72.8594 345.82 73.2031C345.716 73.3802 345.664 73.6198 345.664 73.9219V74.2891H344.25V73.9141C344.25 73.1068 344.518 72.513 345.055 72.1328C345.596 71.7526 346.404 71.5625 347.477 71.5625C348.549 71.5625 349.315 71.8073 349.773 72.2969C350.232 72.7812 350.461 73.474 350.461 74.375V77.9062C350.461 78.3385 350.516 78.6198 350.625 78.75C350.734 78.875 350.969 78.9375 351.328 78.9375L351.156 80.0625H350.859C350.339 80.0625 349.951 79.9635 349.695 79.7656C349.44 79.5625 349.245 79.25 349.109 78.8281C348.677 79.474 348.156 79.8802 347.547 80.0469C347.255 80.1302 346.93 80.1719 346.57 80.1719ZM347.305 76.3438C346.565 76.5573 346.052 76.7708 345.766 76.9844C345.484 77.1979 345.344 77.5 345.344 77.8906C345.344 78.276 345.474 78.5677 345.734 78.7656C346 78.9635 346.318 79.0625 346.688 79.0625C347.062 79.0625 347.401 79.0156 347.703 78.9219C348.005 78.8229 348.276 78.6797 348.516 78.4922C348.76 78.2995 348.919 78.0807 348.992 77.8359V75.4453C348.612 75.8255 348.049 76.125 347.305 76.3438ZM357.5 83.1875V71.7188H358.656L358.828 72.3438C359.068 72.1302 359.396 71.9479 359.812 71.7969C360.229 71.6406 360.661 71.5625 361.109 71.5625C362.135 71.5625 362.914 71.8125 363.445 72.3125C363.982 72.8125 364.25 73.4766 364.25 74.3047V77.3125C364.25 78.1667 363.958 78.8568 363.375 79.3828C362.792 79.9089 361.974 80.1719 360.922 80.1719C360.193 80.1719 359.542 80.026 358.969 79.7344V83.1875H357.5ZM358.969 78.6016C359.495 78.8984 360.083 79.0469 360.734 79.0469C361.385 79.0469 361.888 78.9089 362.242 78.6328C362.602 78.3568 362.781 77.9688 362.781 77.4688V74.1875C362.781 73.7083 362.604 73.3385 362.25 73.0781C361.901 72.8177 361.471 72.6875 360.961 72.6875C360.456 72.6875 360.023 72.7917 359.664 73C359.31 73.2083 359.078 73.3958 358.969 73.5625V78.6016ZM368.031 77.6641C368.031 78.5859 368.685 79.0469 369.992 79.0469C371.299 79.0469 371.953 78.5859 371.953 77.6641V74.0781C371.953 73.151 371.299 72.6875 369.992 72.6875C368.685 72.6875 368.031 73.151 368.031 74.0781V77.6641ZM373.422 77.5391C373.422 78.3516 373.143 78.9948 372.586 79.4688C372.034 79.9375 371.167 80.1719 369.984 80.1719C368.802 80.1719 367.935 79.9375 367.383 79.4688C366.836 79 366.562 78.3568 366.562 77.5391V74.2031C366.562 73.3854 366.836 72.7422 367.383 72.2734C367.935 71.7995 368.802 71.5625 369.984 71.5625C371.167 71.5625 372.034 71.7995 372.586 72.2734C373.143 72.7474 373.422 73.3906 373.422 74.2031V77.5391ZM376.883 81.7734C377.424 81.9714 378.089 82.0703 378.875 82.0703C379.661 82.0703 380.211 81.9219 380.523 81.625C380.841 81.3281 381 80.8672 381 80.2422V79.0938C380.786 79.2917 380.466 79.4401 380.039 79.5391C379.617 79.638 379.229 79.6875 378.875 79.6875C376.781 79.6875 375.734 78.8047 375.734 77.0391V74.3125C375.734 73.4531 375.995 72.7812 376.516 72.2969C377.042 71.8073 377.828 71.5625 378.875 71.5625C379.292 71.5625 379.719 71.651 380.156 71.8281C380.599 72 380.88 72.1849 381 72.3828V71.7188H382.469V79.8047C382.469 80.7995 382.206 81.612 381.68 82.2422C381.159 82.8724 380.315 83.1875 379.148 83.1875C377.982 83.1875 377.117 83.0833 376.555 82.875L376.883 81.7734ZM381 73.8281C381 73.0677 380.367 72.6875 379.102 72.6875C377.836 72.6875 377.203 73.1771 377.203 74.1562V77.2656C377.203 78.1302 377.836 78.5625 379.102 78.5625C379.846 78.5625 380.479 78.3542 381 77.9375V73.8281ZM385.297 80V71.7188H386.766V72.8906C386.953 72.3802 387.461 72.0104 388.289 71.7812C388.721 71.6562 389.172 71.5964 389.641 71.6016L389.594 72.8594C388.885 72.8594 388.237 73 387.648 73.2812C387.06 73.5625 386.766 73.8698 386.766 74.2031V80H385.297ZM394.648 80.1719C393.435 80.1719 392.557 79.9193 392.016 79.4141C391.474 78.9089 391.203 78.1302 391.203 77.0781V74.1953C391.203 73.3776 391.482 72.7344 392.039 72.2656C392.596 71.7969 393.438 71.5625 394.562 71.5625C395.693 71.5625 396.531 71.7812 397.078 72.2188C397.63 72.651 397.906 73.2708 397.906 74.0781V76.0469H392.672V77.2109C392.672 77.8984 392.81 78.3776 393.086 78.6484C393.362 78.9141 393.859 79.0469 394.578 79.0469C395.297 79.0469 395.703 79.0312 395.797 79C395.891 78.9688 395.987 78.9323 396.086 78.8906C396.185 78.849 396.253 78.7995 396.289 78.7422C396.331 78.6849 396.383 78.599 396.445 78.4844C396.513 78.3646 396.562 78.1354 396.594 77.7969H397.891C397.839 78.2917 397.75 78.6901 397.625 78.9922C397.505 79.2943 397.312 79.5365 397.047 79.7188C396.786 79.8958 396.471 80.0156 396.102 80.0781C395.737 80.1406 395.253 80.1719 394.648 80.1719ZM392.672 75.0547H396.484V73.9219C396.484 73.4531 396.323 73.1302 396 72.9531C395.682 72.776 395.214 72.6875 394.594 72.6875C393.974 72.6875 393.497 72.7943 393.164 73.0078C392.836 73.2214 392.672 73.5729 392.672 74.0625V75.0547ZM402.438 70.2891L400.836 68.2109H402.047L403.016 69.5703L404.047 68.2109H405.305L403.609 70.2891H402.438ZM403.023 79.0469C404.133 79.0469 404.688 78.6328 404.688 77.8047C404.688 77.4453 404.638 77.1797 404.539 77.0078C404.44 76.8307 404.208 76.6745 403.844 76.5391L401.875 75.8125C401.271 75.599 400.849 75.3464 400.609 75.0547C400.375 74.7578 400.258 74.388 400.258 73.9453C400.258 73.5026 400.302 73.1484 400.391 72.8828C400.479 72.612 400.625 72.375 400.828 72.1719C401.234 71.7656 401.964 71.5625 403.016 71.5625C404.068 71.5625 404.974 71.7135 405.734 72.0156L405.398 73.1406C405.133 73.0312 404.784 72.9297 404.352 72.8359C403.919 72.737 403.542 72.6875 403.219 72.6875C402.474 72.6875 402.003 72.8073 401.805 73.0469C401.685 73.1979 401.625 73.4193 401.625 73.7109C401.625 74.0026 401.672 74.2109 401.766 74.3359C401.865 74.4557 402.055 74.5651 402.336 74.6641L404.281 75.4297C404.958 75.6953 405.404 75.9896 405.617 76.3125C405.831 76.6302 405.938 77.1328 405.938 77.8203C405.938 78.5078 405.716 79.0729 405.273 79.5156C404.831 79.9531 404.146 80.1719 403.219 80.1719C402.542 80.1719 401.94 80.099 401.414 79.9531C400.888 79.8073 400.484 79.6562 400.203 79.5L400.562 78.4219C401.307 78.8385 402.128 79.0469 403.023 79.0469ZM413.578 73.8984C413.578 73.0911 412.961 72.6875 411.727 72.6875C411.117 72.6875 410.638 72.8177 410.289 73.0781C409.94 73.3385 409.766 73.6797 409.766 74.1016V80H408.297V71.7188H409.766V72.5234C410.318 71.8828 411.135 71.5625 412.219 71.5625C413.625 71.5625 414.516 72.0573 414.891 73.0469C414.995 73.3281 415.047 73.6406 415.047 73.9844V80H413.578V73.8984ZM419.047 77.6641C419.047 78.5859 419.701 79.0469 421.008 79.0469C422.315 79.0469 422.969 78.5859 422.969 77.6641V74.0781C422.969 73.151 422.315 72.6875 421.008 72.6875C419.701 72.6875 419.047 73.151 419.047 74.0781V77.6641ZM424.438 77.5391C424.438 78.3516 424.159 78.9948 423.602 79.4688C423.049 79.9375 422.182 80.1719 421 80.1719C419.818 80.1719 418.951 79.9375 418.398 79.4688C417.852 79 417.578 78.3568 417.578 77.5391V74.2031C417.578 73.3854 417.852 72.7422 418.398 72.2734C418.951 71.7995 419.818 71.5625 421 71.5625C422.182 71.5625 423.049 71.7995 423.602 72.2734C424.159 72.7474 424.438 73.3906 424.438 74.2031V77.5391ZM432.219 77.6641C432.219 78.5859 432.872 79.0469 434.18 79.0469C435.487 79.0469 436.141 78.5859 436.141 77.6641V74.0781C436.141 73.151 435.487 72.6875 434.18 72.6875C432.872 72.6875 432.219 73.151 432.219 74.0781V77.6641ZM437.609 77.5391C437.609 78.3516 437.331 78.9948 436.773 79.4688C436.221 79.9375 435.354 80.1719 434.172 80.1719C432.99 80.1719 432.122 79.9375 431.57 79.4688C431.023 79 430.75 78.3568 430.75 77.5391V74.2031C430.75 73.3854 431.023 72.7422 431.57 72.2734C432.122 71.7995 432.99 71.5625 434.172 71.5625C435.354 71.5625 436.221 71.7995 436.773 72.2734C437.331 72.7474 437.609 73.3906 437.609 74.2031V77.5391ZM443.383 71.5625C444.049 71.5625 444.661 71.6667 445.219 71.875V68.2344H446.688V80H445.688L445.445 79.4531C445.19 79.651 444.854 79.8203 444.438 79.9609C444.021 80.1016 443.609 80.1719 443.203 80.1719C442.073 80.1719 441.242 79.9219 440.711 79.4219C440.185 78.9167 439.922 78.237 439.922 77.3828V74.2578C439.922 73.3984 440.206 72.7344 440.773 72.2656C441.341 71.7969 442.211 71.5625 443.383 71.5625ZM441.391 77.4922C441.391 77.987 441.565 78.3646 441.914 78.625C442.268 78.8854 442.682 79.0156 443.156 79.0156C444 79.0156 444.688 78.8516 445.219 78.5234V73.0312C444.745 72.8021 444.169 72.6875 443.492 72.6875C442.091 72.6875 441.391 73.1562 441.391 74.0938V77.4922ZM449.594 80V71.7188H451.062V72.8906C451.25 72.3802 451.758 72.0104 452.586 71.7812C453.018 71.6562 453.469 71.5964 453.938 71.6016L453.891 72.8594C453.182 72.8594 452.534 73 451.945 73.2812C451.357 73.5625 451.062 73.8698 451.062 74.2031V80H449.594ZM458.945 80.1719C457.732 80.1719 456.854 79.9193 456.312 79.4141C455.771 78.9089 455.5 78.1302 455.5 77.0781V74.1953C455.5 73.3776 455.779 72.7344 456.336 72.2656C456.893 71.7969 457.734 71.5625 458.859 71.5625C459.99 71.5625 460.828 71.7812 461.375 72.2188C461.927 72.651 462.203 73.2708 462.203 74.0781V76.0469H456.969V77.2109C456.969 77.8984 457.107 78.3776 457.383 78.6484C457.659 78.9141 458.156 79.0469 458.875 79.0469C459.594 79.0469 460 79.0312 460.094 79C460.188 78.9688 460.284 78.9323 460.383 78.8906C460.482 78.849 460.549 78.7995 460.586 78.7422C460.628 78.6849 460.68 78.599 460.742 78.4844C460.81 78.3646 460.859 78.1354 460.891 77.7969H462.188C462.135 78.2917 462.047 78.6901 461.922 78.9922C461.802 79.2943 461.609 79.5365 461.344 79.7188C461.083 79.8958 460.768 80.0156 460.398 80.0781C460.034 80.1406 459.549 80.1719 458.945 80.1719ZM456.969 75.0547H460.781V73.9219C460.781 73.4531 460.62 73.1302 460.297 72.9531C459.979 72.776 459.51 72.6875 458.891 72.6875C458.271 72.6875 457.794 72.7943 457.461 73.0078C457.133 73.2214 456.969 73.5729 456.969 74.0625V75.0547ZM466.016 77.4922C466.016 77.987 466.19 78.3646 466.539 78.625C466.893 78.8854 467.307 79.0156 467.781 79.0156C468.625 79.0156 469.312 78.8516 469.844 78.5234V73.0312C469.37 72.8021 468.794 72.6875 468.117 72.6875C466.716 72.6875 466.016 73.1562 466.016 74.0938V77.4922ZM468.008 71.5625C468.674 71.5625 469.286 71.6667 469.844 71.875V70.2422H467V69.2734H469.844V68.2344H471.312V69.2734H472.586V70.2422H471.312V80H470.312L470.07 79.4531C469.815 79.651 469.479 79.8203 469.062 79.9609C468.646 80.1016 468.234 80.1719 467.828 80.1719C466.698 80.1719 465.867 79.9219 465.336 79.4219C464.81 78.9167 464.547 78.237 464.547 77.3828V74.2578C464.547 73.3984 464.831 72.7344 465.398 72.2656C465.966 71.7969 466.836 71.5625 468.008 71.5625ZM477.367 80.1719C476.154 80.1719 475.276 79.9193 474.734 79.4141C474.193 78.9089 473.922 78.1302 473.922 77.0781V74.1953C473.922 73.3776 474.201 72.7344 474.758 72.2656C475.315 71.7969 476.156 71.5625 477.281 71.5625C478.411 71.5625 479.25 71.7812 479.797 72.2188C480.349 72.651 480.625 73.2708 480.625 74.0781V76.0469H475.391V77.2109C475.391 77.8984 475.529 78.3776 475.805 78.6484C476.081 78.9141 476.578 79.0469 477.297 79.0469C478.016 79.0469 478.422 79.0312 478.516 79C478.609 78.9688 478.706 78.9323 478.805 78.8906C478.904 78.849 478.971 78.7995 479.008 78.7422C479.049 78.6849 479.102 78.599 479.164 78.4844C479.232 78.3646 479.281 78.1354 479.312 77.7969H480.609C480.557 78.2917 480.469 78.6901 480.344 78.9922C480.224 79.2943 480.031 79.5365 479.766 79.7188C479.505 79.8958 479.19 80.0156 478.82 80.0781C478.456 80.1406 477.971 80.1719 477.367 80.1719ZM475.391 75.0547H479.203V73.9219C479.203 73.4531 479.042 73.1302 478.719 72.9531C478.401 72.776 477.932 72.6875 477.312 72.6875C476.693 72.6875 476.216 72.7943 475.883 73.0078C475.555 73.2214 475.391 73.5729 475.391 74.0625V75.0547ZM488.547 73.8984C488.547 73.0911 487.93 72.6875 486.695 72.6875C486.086 72.6875 485.607 72.8177 485.258 73.0781C484.909 73.3385 484.734 73.6797 484.734 74.1016V80H483.266V71.7188H484.734V72.5234C485.286 71.8828 486.104 71.5625 487.188 71.5625C488.594 71.5625 489.484 72.0573 489.859 73.0469C489.964 73.3281 490.016 73.6406 490.016 73.9844V80H488.547V73.8984ZM495.07 80.1719C494.232 80.1719 493.581 79.9453 493.117 79.4922C492.654 79.0339 492.422 78.4661 492.422 77.7891C492.422 77.4036 492.503 77.0833 492.664 76.8281C492.992 76.3073 493.971 75.8099 495.602 75.3359C496.544 75.0755 497.086 74.8516 497.227 74.6641C497.372 74.4766 497.453 74.3307 497.469 74.2266C497.484 74.1172 497.492 73.9453 497.492 73.7109C497.492 73.4766 497.396 73.2474 497.203 73.0234C497.016 72.7995 496.604 72.6875 495.969 72.6875C495.073 72.6875 494.523 72.8594 494.32 73.2031C494.216 73.3802 494.164 73.6198 494.164 73.9219V74.2891H492.75V73.9141C492.75 73.1068 493.018 72.513 493.555 72.1328C494.096 71.7526 494.904 71.5625 495.977 71.5625C497.049 71.5625 497.815 71.8073 498.273 72.2969C498.732 72.7812 498.961 73.474 498.961 74.375V77.9062C498.961 78.3385 499.016 78.6198 499.125 78.75C499.234 78.875 499.469 78.9375 499.828 78.9375L499.656 80.0625H499.359C498.839 80.0625 498.451 79.9635 498.195 79.7656C497.94 79.5625 497.745 79.25 497.609 78.8281C497.177 79.474 496.656 79.8802 496.047 80.0469C495.755 80.1302 495.43 80.1719 495.07 80.1719ZM495.805 76.3438C495.065 76.5573 494.552 76.7708 494.266 76.9844C493.984 77.1979 493.844 77.5 493.844 77.8906C493.844 78.276 493.974 78.5677 494.234 78.7656C494.5 78.9635 494.818 79.0625 495.188 79.0625C495.562 79.0625 495.901 79.0156 496.203 78.9219C496.505 78.8229 496.776 78.6797 497.016 78.4922C497.26 78.2995 497.419 78.0807 497.492 77.8359V75.4453C497.112 75.8255 496.549 76.125 495.805 76.3438Z" fill="#C9D1D9"/>
<path d="M174.609 130V128.789H177.742V120.023L174.82 120.336L174.68 119.094L178.031 118.703H179.312V128.789H182.078V130H174.609ZM190.992 130.172C189.581 130.172 188.685 129.672 188.305 128.672C188.195 128.385 188.141 128.073 188.141 127.734V121.719H189.609V127.742C189.609 128.148 189.758 128.469 190.055 128.703C190.357 128.932 190.805 129.047 191.398 129.047C191.992 129.047 192.474 128.901 192.844 128.609C193.219 128.312 193.406 127.971 193.406 127.586V121.719H194.875V130H193.562L193.406 128.961C192.948 129.768 192.143 130.172 190.992 130.172ZM201.938 130V128.789H205.07V120.023L202.148 120.336L202.008 119.094L205.359 118.703H206.641V128.789H209.406V130H201.938ZM215.016 128.906C215.604 128.906 216.036 128.81 216.312 128.617C216.464 128.513 216.594 128.406 216.703 128.297C217.073 127.927 217.258 127.062 217.258 125.703V123.5C217.258 122.583 217.221 121.932 217.148 121.547C216.935 120.38 216.268 119.797 215.148 119.797C214.18 119.797 213.526 120.094 213.188 120.688C212.979 121.052 212.846 121.466 212.789 121.93C212.732 122.388 212.703 122.953 212.703 123.625V125.164C212.703 126.279 212.781 127.068 212.938 127.531C213.25 128.448 213.943 128.906 215.016 128.906ZM216.984 129.781C216.745 129.896 216.461 129.99 216.133 130.062C215.805 130.135 215.409 130.172 214.945 130.172C214.487 130.172 214.052 130.115 213.641 130C212.844 129.776 212.268 129.401 211.914 128.875C211.565 128.344 211.346 127.766 211.258 127.141C211.169 126.516 211.125 125.812 211.125 125.031V123.828C211.125 122.734 211.167 121.997 211.25 121.617C211.427 120.826 211.628 120.268 211.852 119.945C212.508 119.003 213.505 118.531 214.844 118.531C216.438 118.531 217.51 118.992 218.062 119.914C218.401 120.471 218.612 121.07 218.695 121.711C218.784 122.352 218.828 123.091 218.828 123.93V124.922C218.828 125.974 218.786 126.693 218.703 127.078C218.625 127.464 218.539 127.792 218.445 128.062C218.357 128.333 218.247 128.565 218.117 128.758C217.992 128.945 217.833 129.135 217.641 129.328C217.448 129.516 217.229 129.667 216.984 129.781ZM224.781 128.906C225.37 128.906 225.802 128.81 226.078 128.617C226.229 128.513 226.359 128.406 226.469 128.297C226.839 127.927 227.023 127.062 227.023 125.703V123.5C227.023 122.583 226.987 121.932 226.914 121.547C226.701 120.38 226.034 119.797 224.914 119.797C223.945 119.797 223.292 120.094 222.953 120.688C222.745 121.052 222.612 121.466 222.555 121.93C222.497 122.388 222.469 122.953 222.469 123.625V125.164C222.469 126.279 222.547 127.068 222.703 127.531C223.016 128.448 223.708 128.906 224.781 128.906ZM226.75 129.781C226.51 129.896 226.227 129.99 225.898 130.062C225.57 130.135 225.174 130.172 224.711 130.172C224.253 130.172 223.818 130.115 223.406 130C222.609 129.776 222.034 129.401 221.68 128.875C221.331 128.344 221.112 127.766 221.023 127.141C220.935 126.516 220.891 125.812 220.891 125.031V123.828C220.891 122.734 220.932 121.997 221.016 121.617C221.193 120.826 221.393 120.268 221.617 119.945C222.273 119.003 223.271 118.531 224.609 118.531C226.203 118.531 227.276 118.992 227.828 119.914C228.167 120.471 228.378 121.07 228.461 121.711C228.549 122.352 228.594 123.091 228.594 123.93V124.922C228.594 125.974 228.552 126.693 228.469 127.078C228.391 127.464 228.305 127.792 228.211 128.062C228.122 128.333 228.013 128.565 227.883 128.758C227.758 128.945 227.599 129.135 227.406 129.328C227.214 129.516 226.995 129.667 226.75 129.781ZM234.547 128.906C235.135 128.906 235.568 128.81 235.844 128.617C235.995 128.513 236.125 128.406 236.234 128.297C236.604 127.927 236.789 127.062 236.789 125.703V123.5C236.789 122.583 236.753 121.932 236.68 121.547C236.466 120.38 235.799 119.797 234.68 119.797C233.711 119.797 233.057 120.094 232.719 120.688C232.51 121.052 232.378 121.466 232.32 121.93C232.263 122.388 232.234 122.953 232.234 123.625V125.164C232.234 126.279 232.312 127.068 232.469 127.531C232.781 128.448 233.474 128.906 234.547 128.906ZM236.516 129.781C236.276 129.896 235.992 129.99 235.664 130.062C235.336 130.135 234.94 130.172 234.477 130.172C234.018 130.172 233.583 130.115 233.172 130C232.375 129.776 231.799 129.401 231.445 128.875C231.096 128.344 230.878 127.766 230.789 127.141C230.701 126.516 230.656 125.812 230.656 125.031V123.828C230.656 122.734 230.698 121.997 230.781 121.617C230.958 120.826 231.159 120.268 231.383 119.945C232.039 119.003 233.036 118.531 234.375 118.531C235.969 118.531 237.042 118.992 237.594 119.914C237.932 120.471 238.143 121.07 238.227 121.711C238.315 122.352 238.359 123.091 238.359 123.93V124.922C238.359 125.974 238.318 126.693 238.234 127.078C238.156 127.464 238.07 127.792 237.977 128.062C237.888 128.333 237.779 128.565 237.648 128.758C237.523 128.945 237.365 129.135 237.172 129.328C236.979 129.516 236.76 129.667 236.516 129.781ZM246.734 120.289L245.133 118.211H246.344L247.312 119.57L248.344 118.211H249.602L247.906 120.289H246.734ZM247.32 129.047C248.43 129.047 248.984 128.633 248.984 127.805C248.984 127.445 248.935 127.18 248.836 127.008C248.737 126.831 248.505 126.674 248.141 126.539L246.172 125.812C245.568 125.599 245.146 125.346 244.906 125.055C244.672 124.758 244.555 124.388 244.555 123.945C244.555 123.503 244.599 123.148 244.688 122.883C244.776 122.612 244.922 122.375 245.125 122.172C245.531 121.766 246.26 121.562 247.312 121.562C248.365 121.562 249.271 121.714 250.031 122.016L249.695 123.141C249.43 123.031 249.081 122.93 248.648 122.836C248.216 122.737 247.839 122.688 247.516 122.688C246.771 122.688 246.299 122.807 246.102 123.047C245.982 123.198 245.922 123.419 245.922 123.711C245.922 124.003 245.969 124.211 246.062 124.336C246.161 124.456 246.352 124.565 246.633 124.664L248.578 125.43C249.255 125.695 249.701 125.99 249.914 126.312C250.128 126.63 250.234 127.133 250.234 127.82C250.234 128.508 250.013 129.073 249.57 129.516C249.128 129.953 248.443 130.172 247.516 130.172C246.839 130.172 246.237 130.099 245.711 129.953C245.185 129.807 244.781 129.656 244.5 129.5L244.859 128.422C245.604 128.839 246.424 129.047 247.32 129.047ZM254.82 130.172C253.982 130.172 253.331 129.945 252.867 129.492C252.404 129.034 252.172 128.466 252.172 127.789C252.172 127.404 252.253 127.083 252.414 126.828C252.742 126.307 253.721 125.81 255.352 125.336C256.294 125.076 256.836 124.852 256.977 124.664C257.122 124.477 257.203 124.331 257.219 124.227C257.234 124.117 257.242 123.945 257.242 123.711C257.242 123.477 257.146 123.247 256.953 123.023C256.766 122.799 256.354 122.688 255.719 122.688C254.823 122.688 254.273 122.859 254.07 123.203C253.966 123.38 253.914 123.62 253.914 123.922V124.289H252.5V123.914C252.5 123.107 252.768 122.513 253.305 122.133C253.846 121.753 254.654 121.562 255.727 121.562C256.799 121.562 257.565 121.807 258.023 122.297C258.482 122.781 258.711 123.474 258.711 124.375V127.906C258.711 128.339 258.766 128.62 258.875 128.75C258.984 128.875 259.219 128.938 259.578 128.938L259.406 130.062H259.109C258.589 130.062 258.201 129.964 257.945 129.766C257.69 129.562 257.495 129.25 257.359 128.828C256.927 129.474 256.406 129.88 255.797 130.047C255.505 130.13 255.18 130.172 254.82 130.172ZM255.555 126.344C254.815 126.557 254.302 126.771 254.016 126.984C253.734 127.198 253.594 127.5 253.594 127.891C253.594 128.276 253.724 128.568 253.984 128.766C254.25 128.964 254.568 129.062 254.938 129.062C255.312 129.062 255.651 129.016 255.953 128.922C256.255 128.823 256.526 128.68 256.766 128.492C257.01 128.299 257.169 128.081 257.242 127.836V125.445C256.862 125.826 256.299 126.125 255.555 126.344ZM267.031 123.898C267.031 123.091 266.414 122.688 265.18 122.688C264.57 122.688 264.091 122.818 263.742 123.078C263.393 123.339 263.219 123.68 263.219 124.102V130H261.75V121.719H263.219V122.523C263.771 121.883 264.589 121.562 265.672 121.562C267.078 121.562 267.969 122.057 268.344 123.047C268.448 123.328 268.5 123.641 268.5 123.984V130H267.031V123.898ZM273.805 129.047C274.914 129.047 275.469 128.633 275.469 127.805C275.469 127.445 275.419 127.18 275.32 127.008C275.221 126.831 274.99 126.674 274.625 126.539L272.656 125.812C272.052 125.599 271.63 125.346 271.391 125.055C271.156 124.758 271.039 124.388 271.039 123.945C271.039 123.503 271.083 123.148 271.172 122.883C271.26 122.612 271.406 122.375 271.609 122.172C272.016 121.766 272.745 121.562 273.797 121.562C274.849 121.562 275.755 121.714 276.516 122.016L276.18 123.141C275.914 123.031 275.565 122.93 275.133 122.836C274.701 122.737 274.323 122.688 274 122.688C273.255 122.688 272.784 122.807 272.586 123.047C272.466 123.198 272.406 123.419 272.406 123.711C272.406 124.003 272.453 124.211 272.547 124.336C272.646 124.456 272.836 124.565 273.117 124.664L275.062 125.43C275.74 125.695 276.185 125.99 276.398 126.312C276.612 126.63 276.719 127.133 276.719 127.82C276.719 128.508 276.497 129.073 276.055 129.516C275.612 129.953 274.927 130.172 274 130.172C273.323 130.172 272.721 130.099 272.195 129.953C271.669 129.807 271.266 129.656 270.984 129.5L271.344 128.422C272.089 128.839 272.909 129.047 273.805 129.047ZM279.234 130V121.719H280.703V130H279.234ZM279.234 120.227V118.703H280.703V120.227H279.234ZM290.898 121.562C291.565 121.562 292.177 121.667 292.734 121.875V118.234H294.203V130H293.203L292.961 129.453C292.706 129.651 292.37 129.82 291.953 129.961C291.536 130.102 291.125 130.172 290.719 130.172C289.589 130.172 288.758 129.922 288.227 129.422C287.701 128.917 287.438 128.237 287.438 127.383V124.258C287.438 123.398 287.721 122.734 288.289 122.266C288.857 121.797 289.727 121.562 290.898 121.562ZM288.906 127.492C288.906 127.987 289.081 128.365 289.43 128.625C289.784 128.885 290.198 129.016 290.672 129.016C291.516 129.016 292.203 128.852 292.734 128.523V123.031C292.26 122.802 291.685 122.688 291.008 122.688C289.607 122.688 288.906 123.156 288.906 124.094V127.492ZM299.336 130.172C298.497 130.172 297.846 129.945 297.383 129.492C296.919 129.034 296.688 128.466 296.688 127.789C296.688 127.404 296.768 127.083 296.93 126.828C297.258 126.307 298.237 125.81 299.867 125.336C300.81 125.076 301.352 124.852 301.492 124.664C301.638 124.477 301.719 124.331 301.734 124.227C301.75 124.117 301.758 123.945 301.758 123.711C301.758 123.477 301.661 123.247 301.469 123.023C301.281 122.799 300.87 122.688 300.234 122.688C299.339 122.688 298.789 122.859 298.586 123.203C298.482 123.38 298.43 123.62 298.43 123.922V124.289H297.016V123.914C297.016 123.107 297.284 122.513 297.82 122.133C298.362 121.753 299.169 121.562 300.242 121.562C301.315 121.562 302.081 121.807 302.539 122.297C302.997 122.781 303.227 123.474 303.227 124.375V127.906C303.227 128.339 303.281 128.62 303.391 128.75C303.5 128.875 303.734 128.938 304.094 128.938L303.922 130.062H303.625C303.104 130.062 302.716 129.964 302.461 129.766C302.206 129.562 302.01 129.25 301.875 128.828C301.443 129.474 300.922 129.88 300.312 130.047C300.021 130.13 299.695 130.172 299.336 130.172ZM300.07 126.344C299.331 126.557 298.818 126.771 298.531 126.984C298.25 127.198 298.109 127.5 298.109 127.891C298.109 128.276 298.24 128.568 298.5 128.766C298.766 128.964 299.083 129.062 299.453 129.062C299.828 129.062 300.167 129.016 300.469 128.922C300.771 128.823 301.042 128.68 301.281 128.492C301.526 128.299 301.685 128.081 301.758 127.836V125.445C301.378 125.826 300.815 126.125 300.07 126.344ZM309.062 132.758L308.914 131.539H309.141C309.672 131.539 310.026 131.469 310.203 131.328C310.38 131.193 310.495 131.023 310.547 130.82C310.599 130.622 310.625 130.359 310.625 130.031V121.719H312.094V129.945C312.094 131.305 311.781 132.146 311.156 132.469C310.786 132.661 310.26 132.758 309.578 132.758H309.062ZM310.625 120.227V118.703H312.094V120.227H310.625ZM318.117 130.172C316.904 130.172 316.026 129.919 315.484 129.414C314.943 128.909 314.672 128.13 314.672 127.078V124.195C314.672 123.378 314.951 122.734 315.508 122.266C316.065 121.797 316.906 121.562 318.031 121.562C319.161 121.562 320 121.781 320.547 122.219C321.099 122.651 321.375 123.271 321.375 124.078V126.047H316.141V127.211C316.141 127.898 316.279 128.378 316.555 128.648C316.831 128.914 317.328 129.047 318.047 129.047C318.766 129.047 319.172 129.031 319.266 129C319.359 128.969 319.456 128.932 319.555 128.891C319.654 128.849 319.721 128.799 319.758 128.742C319.799 128.685 319.852 128.599 319.914 128.484C319.982 128.365 320.031 128.135 320.062 127.797H321.359C321.307 128.292 321.219 128.69 321.094 128.992C320.974 129.294 320.781 129.536 320.516 129.719C320.255 129.896 319.94 130.016 319.57 130.078C319.206 130.141 318.721 130.172 318.117 130.172ZM316.141 125.055H319.953V123.922C319.953 123.453 319.792 123.13 319.469 122.953C319.151 122.776 318.682 122.688 318.062 122.688C317.443 122.688 316.966 122.794 316.633 123.008C316.305 123.221 316.141 123.573 316.141 124.062V125.055ZM329.484 122.109C330.13 121.745 330.909 121.562 331.82 121.562C332.732 121.562 333.458 121.805 334 122.289C334.542 122.773 334.812 123.427 334.812 124.25V127.25C334.812 128.109 334.516 128.812 333.922 129.359C333.328 129.901 332.505 130.172 331.453 130.172C330.786 130.172 330.065 129.93 329.289 129.445L329.102 130H328.016V118.234H329.484V122.109ZM333.344 124.141C333.344 123.172 332.732 122.688 331.508 122.688C330.909 122.688 330.234 122.859 329.484 123.203V128.531C330.057 128.854 330.641 129.016 331.234 129.016C331.833 129.016 332.333 128.872 332.734 128.586C333.141 128.294 333.344 127.901 333.344 127.406V124.141ZM339.648 130.172C338.81 130.172 338.159 129.945 337.695 129.492C337.232 129.034 337 128.466 337 127.789C337 127.404 337.081 127.083 337.242 126.828C337.57 126.307 338.549 125.81 340.18 125.336C341.122 125.076 341.664 124.852 341.805 124.664C341.951 124.477 342.031 124.331 342.047 124.227C342.062 124.117 342.07 123.945 342.07 123.711C342.07 123.477 341.974 123.247 341.781 123.023C341.594 122.799 341.182 122.688 340.547 122.688C339.651 122.688 339.102 122.859 338.898 123.203C338.794 123.38 338.742 123.62 338.742 123.922V124.289H337.328V123.914C337.328 123.107 337.596 122.513 338.133 122.133C338.674 121.753 339.482 121.562 340.555 121.562C341.628 121.562 342.393 121.807 342.852 122.297C343.31 122.781 343.539 123.474 343.539 124.375V127.906C343.539 128.339 343.594 128.62 343.703 128.75C343.812 128.875 344.047 128.938 344.406 128.938L344.234 130.062H343.938C343.417 130.062 343.029 129.964 342.773 129.766C342.518 129.562 342.323 129.25 342.188 128.828C341.755 129.474 341.234 129.88 340.625 130.047C340.333 130.13 340.008 130.172 339.648 130.172ZM340.383 126.344C339.643 126.557 339.13 126.771 338.844 126.984C338.562 127.198 338.422 127.5 338.422 127.891C338.422 128.276 338.552 128.568 338.812 128.766C339.078 128.964 339.396 129.062 339.766 129.062C340.141 129.062 340.479 129.016 340.781 128.922C341.083 128.823 341.354 128.68 341.594 128.492C341.839 128.299 341.997 128.081 342.07 127.836V125.445C341.69 125.826 341.128 126.125 340.383 126.344ZM346.219 130V129.078L350.18 122.688H346.359V121.719H351.727V122.617L347.742 129.031H351.797V130H346.219ZM356.336 130.172C355.497 130.172 354.846 129.945 354.383 129.492C353.919 129.034 353.688 128.466 353.688 127.789C353.688 127.404 353.768 127.083 353.93 126.828C354.258 126.307 355.237 125.81 356.867 125.336C357.81 125.076 358.352 124.852 358.492 124.664C358.638 124.477 358.719 124.331 358.734 124.227C358.75 124.117 358.758 123.945 358.758 123.711C358.758 123.477 358.661 123.247 358.469 123.023C358.281 122.799 357.87 122.688 357.234 122.688C356.339 122.688 355.789 122.859 355.586 123.203C355.482 123.38 355.43 123.62 355.43 123.922V124.289H354.016V123.914C354.016 123.107 354.284 122.513 354.82 122.133C355.362 121.753 356.169 121.562 357.242 121.562C358.315 121.562 359.081 121.807 359.539 122.297C359.997 122.781 360.227 123.474 360.227 124.375V127.906C360.227 128.339 360.281 128.62 360.391 128.75C360.5 128.875 360.734 128.938 361.094 128.938L360.922 130.062H360.625C360.104 130.062 359.716 129.964 359.461 129.766C359.206 129.562 359.01 129.25 358.875 128.828C358.443 129.474 357.922 129.88 357.312 130.047C357.021 130.13 356.695 130.172 356.336 130.172ZM357.07 126.344C356.331 126.557 355.818 126.771 355.531 126.984C355.25 127.198 355.109 127.5 355.109 127.891C355.109 128.276 355.24 128.568 355.5 128.766C355.766 128.964 356.083 129.062 356.453 129.062C356.828 129.062 357.167 129.016 357.469 128.922C357.771 128.823 358.042 128.68 358.281 128.492C358.526 128.299 358.685 128.081 358.758 127.836V125.445C358.378 125.826 357.815 126.125 357.07 126.344ZM367.266 133.188V121.719H368.422L368.594 122.344C368.833 122.13 369.161 121.948 369.578 121.797C369.995 121.641 370.427 121.562 370.875 121.562C371.901 121.562 372.68 121.812 373.211 122.312C373.747 122.812 374.016 123.477 374.016 124.305V127.312C374.016 128.167 373.724 128.857 373.141 129.383C372.557 129.909 371.74 130.172 370.688 130.172C369.958 130.172 369.307 130.026 368.734 129.734V133.188H367.266ZM368.734 128.602C369.26 128.898 369.849 129.047 370.5 129.047C371.151 129.047 371.654 128.909 372.008 128.633C372.367 128.357 372.547 127.969 372.547 127.469V124.188C372.547 123.708 372.37 123.339 372.016 123.078C371.667 122.818 371.237 122.688 370.727 122.688C370.221 122.688 369.789 122.792 369.43 123C369.076 123.208 368.844 123.396 368.734 123.562V128.602ZM377.797 127.664C377.797 128.586 378.451 129.047 379.758 129.047C381.065 129.047 381.719 128.586 381.719 127.664V124.078C381.719 123.151 381.065 122.688 379.758 122.688C378.451 122.688 377.797 123.151 377.797 124.078V127.664ZM383.188 127.539C383.188 128.352 382.909 128.995 382.352 129.469C381.799 129.938 380.932 130.172 379.75 130.172C378.568 130.172 377.701 129.938 377.148 129.469C376.602 129 376.328 128.357 376.328 127.539V124.203C376.328 123.385 376.602 122.742 377.148 122.273C377.701 121.799 378.568 121.562 379.75 121.562C380.932 121.562 381.799 121.799 382.352 122.273C382.909 122.747 383.188 123.391 383.188 124.203V127.539ZM386.648 131.773C387.19 131.971 387.854 132.07 388.641 132.07C389.427 132.07 389.977 131.922 390.289 131.625C390.607 131.328 390.766 130.867 390.766 130.242V129.094C390.552 129.292 390.232 129.44 389.805 129.539C389.383 129.638 388.995 129.688 388.641 129.688C386.547 129.688 385.5 128.805 385.5 127.039V124.312C385.5 123.453 385.76 122.781 386.281 122.297C386.807 121.807 387.594 121.562 388.641 121.562C389.057 121.562 389.484 121.651 389.922 121.828C390.365 122 390.646 122.185 390.766 122.383V121.719H392.234V129.805C392.234 130.799 391.971 131.612 391.445 132.242C390.924 132.872 390.081 133.188 388.914 133.188C387.747 133.188 386.883 133.083 386.32 132.875L386.648 131.773ZM390.766 123.828C390.766 123.068 390.133 122.688 388.867 122.688C387.602 122.688 386.969 123.177 386.969 124.156V127.266C386.969 128.13 387.602 128.562 388.867 128.562C389.612 128.562 390.245 128.354 390.766 127.938V123.828ZM395.062 130V121.719H396.531V122.891C396.719 122.38 397.227 122.01 398.055 121.781C398.487 121.656 398.938 121.596 399.406 121.602L399.359 122.859C398.651 122.859 398.003 123 397.414 123.281C396.826 123.562 396.531 123.87 396.531 124.203V130H395.062ZM404.414 130.172C403.201 130.172 402.323 129.919 401.781 129.414C401.24 128.909 400.969 128.13 400.969 127.078V124.195C400.969 123.378 401.247 122.734 401.805 122.266C402.362 121.797 403.203 121.562 404.328 121.562C405.458 121.562 406.297 121.781 406.844 122.219C407.396 122.651 407.672 123.271 407.672 124.078V126.047H402.438V127.211C402.438 127.898 402.576 128.378 402.852 128.648C403.128 128.914 403.625 129.047 404.344 129.047C405.062 129.047 405.469 129.031 405.562 129C405.656 128.969 405.753 128.932 405.852 128.891C405.951 128.849 406.018 128.799 406.055 128.742C406.096 128.685 406.148 128.599 406.211 128.484C406.279 128.365 406.328 128.135 406.359 127.797H407.656C407.604 128.292 407.516 128.69 407.391 128.992C407.271 129.294 407.078 129.536 406.812 129.719C406.552 129.896 406.237 130.016 405.867 130.078C405.503 130.141 405.018 130.172 404.414 130.172ZM402.438 125.055H406.25V123.922C406.25 123.453 406.089 123.13 405.766 122.953C405.448 122.776 404.979 122.688 404.359 122.688C403.74 122.688 403.263 122.794 402.93 123.008C402.602 123.221 402.438 123.573 402.438 124.062V125.055ZM412.203 120.289L410.602 118.211H411.812L412.781 119.57L413.812 118.211H415.07L413.375 120.289H412.203ZM412.789 129.047C413.898 129.047 414.453 128.633 414.453 127.805C414.453 127.445 414.404 127.18 414.305 127.008C414.206 126.831 413.974 126.674 413.609 126.539L411.641 125.812C411.036 125.599 410.615 125.346 410.375 125.055C410.141 124.758 410.023 124.388 410.023 123.945C410.023 123.503 410.068 123.148 410.156 122.883C410.245 122.612 410.391 122.375 410.594 122.172C411 121.766 411.729 121.562 412.781 121.562C413.833 121.562 414.74 121.714 415.5 122.016L415.164 123.141C414.898 123.031 414.549 122.93 414.117 122.836C413.685 122.737 413.307 122.688 412.984 122.688C412.24 122.688 411.768 122.807 411.57 123.047C411.451 123.198 411.391 123.419 411.391 123.711C411.391 124.003 411.438 124.211 411.531 124.336C411.63 124.456 411.82 124.565 412.102 124.664L414.047 125.43C414.724 125.695 415.169 125.99 415.383 126.312C415.596 126.63 415.703 127.133 415.703 127.82C415.703 128.508 415.482 129.073 415.039 129.516C414.596 129.953 413.911 130.172 412.984 130.172C412.307 130.172 411.706 130.099 411.18 129.953C410.654 129.807 410.25 129.656 409.969 129.5L410.328 128.422C411.073 128.839 411.893 129.047 412.789 129.047ZM423.344 123.898C423.344 123.091 422.727 122.688 421.492 122.688C420.883 122.688 420.404 122.818 420.055 123.078C419.706 123.339 419.531 123.68 419.531 124.102V130H418.062V121.719H419.531V122.523C420.083 121.883 420.901 121.562 421.984 121.562C423.391 121.562 424.281 122.057 424.656 123.047C424.76 123.328 424.812 123.641 424.812 123.984V130H423.344V123.898ZM428.812 127.664C428.812 128.586 429.466 129.047 430.773 129.047C432.081 129.047 432.734 128.586 432.734 127.664V124.078C432.734 123.151 432.081 122.688 430.773 122.688C429.466 122.688 428.812 123.151 428.812 124.078V127.664ZM434.203 127.539C434.203 128.352 433.924 128.995 433.367 129.469C432.815 129.938 431.948 130.172 430.766 130.172C429.583 130.172 428.716 129.938 428.164 129.469C427.617 129 427.344 128.357 427.344 127.539V124.203C427.344 123.385 427.617 122.742 428.164 122.273C428.716 121.799 429.583 121.562 430.766 121.562C431.948 121.562 432.815 121.799 433.367 122.273C433.924 122.747 434.203 123.391 434.203 124.203V127.539ZM441.984 127.664C441.984 128.586 442.638 129.047 443.945 129.047C445.253 129.047 445.906 128.586 445.906 127.664V124.078C445.906 123.151 445.253 122.688 443.945 122.688C442.638 122.688 441.984 123.151 441.984 124.078V127.664ZM447.375 127.539C447.375 128.352 447.096 128.995 446.539 129.469C445.987 129.938 445.12 130.172 443.938 130.172C442.755 130.172 441.888 129.938 441.336 129.469C440.789 129 440.516 128.357 440.516 127.539V124.203C440.516 123.385 440.789 122.742 441.336 122.273C441.888 121.799 442.755 121.562 443.938 121.562C445.12 121.562 445.987 121.799 446.539 122.273C447.096 122.747 447.375 123.391 447.375 124.203V127.539ZM453.148 121.562C453.815 121.562 454.427 121.667 454.984 121.875V118.234H456.453V130H455.453L455.211 129.453C454.956 129.651 454.62 129.82 454.203 129.961C453.786 130.102 453.375 130.172 452.969 130.172C451.839 130.172 451.008 129.922 450.477 129.422C449.951 128.917 449.688 128.237 449.688 127.383V124.258C449.688 123.398 449.971 122.734 450.539 122.266C451.107 121.797 451.977 121.562 453.148 121.562ZM451.156 127.492C451.156 127.987 451.331 128.365 451.68 128.625C452.034 128.885 452.448 129.016 452.922 129.016C453.766 129.016 454.453 128.852 454.984 128.523V123.031C454.51 122.802 453.935 122.688 453.258 122.688C451.857 122.688 451.156 123.156 451.156 124.094V127.492ZM459.359 130V121.719H460.828V122.891C461.016 122.38 461.523 122.01 462.352 121.781C462.784 121.656 463.234 121.596 463.703 121.602L463.656 122.859C462.948 122.859 462.299 123 461.711 123.281C461.122 123.562 460.828 123.87 460.828 124.203V130H459.359ZM468.711 130.172C467.497 130.172 466.62 129.919 466.078 129.414C465.536 128.909 465.266 128.13 465.266 127.078V124.195C465.266 123.378 465.544 122.734 466.102 122.266C466.659 121.797 467.5 121.562 468.625 121.562C469.755 121.562 470.594 121.781 471.141 122.219C471.693 122.651 471.969 123.271 471.969 124.078V126.047H466.734V127.211C466.734 127.898 466.872 128.378 467.148 128.648C467.424 128.914 467.922 129.047 468.641 129.047C469.359 129.047 469.766 129.031 469.859 129C469.953 128.969 470.049 128.932 470.148 128.891C470.247 128.849 470.315 128.799 470.352 128.742C470.393 128.685 470.445 128.599 470.508 128.484C470.576 128.365 470.625 128.135 470.656 127.797H471.953C471.901 128.292 471.812 128.69 471.688 128.992C471.568 129.294 471.375 129.536 471.109 129.719C470.849 129.896 470.534 130.016 470.164 130.078C469.799 130.141 469.315 130.172 468.711 130.172ZM466.734 125.055H470.547V123.922C470.547 123.453 470.385 123.13 470.062 122.953C469.745 122.776 469.276 122.688 468.656 122.688C468.036 122.688 467.56 122.794 467.227 123.008C466.898 123.221 466.734 123.573 466.734 124.062V125.055ZM475.781 127.492C475.781 127.987 475.956 128.365 476.305 128.625C476.659 128.885 477.073 129.016 477.547 129.016C478.391 129.016 479.078 128.852 479.609 128.523V123.031C479.135 122.802 478.56 122.688 477.883 122.688C476.482 122.688 475.781 123.156 475.781 124.094V127.492ZM477.773 121.562C478.44 121.562 479.052 121.667 479.609 121.875V120.242H476.766V119.273H479.609V118.234H481.078V119.273H482.352V120.242H481.078V130H480.078L479.836 129.453C479.581 129.651 479.245 129.82 478.828 129.961C478.411 130.102 478 130.172 477.594 130.172C476.464 130.172 475.633 129.922 475.102 129.422C474.576 128.917 474.312 128.237 474.312 127.383V124.258C474.312 123.398 474.596 122.734 475.164 122.266C475.732 121.797 476.602 121.562 477.773 121.562ZM487.133 130.172C485.919 130.172 485.042 129.919 484.5 129.414C483.958 128.909 483.688 128.13 483.688 127.078V124.195C483.688 123.378 483.966 122.734 484.523 122.266C485.081 121.797 485.922 121.562 487.047 121.562C488.177 121.562 489.016 121.781 489.562 122.219C490.115 122.651 490.391 123.271 490.391 124.078V126.047H485.156V127.211C485.156 127.898 485.294 128.378 485.57 128.648C485.846 128.914 486.344 129.047 487.062 129.047C487.781 129.047 488.188 129.031 488.281 129C488.375 128.969 488.471 128.932 488.57 128.891C488.669 128.849 488.737 128.799 488.773 128.742C488.815 128.685 488.867 128.599 488.93 128.484C488.997 128.365 489.047 128.135 489.078 127.797H490.375C490.323 128.292 490.234 128.69 490.109 128.992C489.99 129.294 489.797 129.536 489.531 129.719C489.271 129.896 488.956 130.016 488.586 130.078C488.221 130.141 487.737 130.172 487.133 130.172ZM485.156 125.055H488.969V123.922C488.969 123.453 488.807 123.13 488.484 122.953C488.167 122.776 487.698 122.688 487.078 122.688C486.458 122.688 485.982 122.794 485.648 123.008C485.32 123.221 485.156 123.573 485.156 124.062V125.055ZM498.312 123.898C498.312 123.091 497.695 122.688 496.461 122.688C495.852 122.688 495.372 122.818 495.023 123.078C494.674 123.339 494.5 123.68 494.5 124.102V130H493.031V121.719H494.5V122.523C495.052 121.883 495.87 121.562 496.953 121.562C498.359 121.562 499.25 122.057 499.625 123.047C499.729 123.328 499.781 123.641 499.781 123.984V130H498.312V123.898ZM504.836 130.172C503.997 130.172 503.346 129.945 502.883 129.492C502.419 129.034 502.188 128.466 502.188 127.789C502.188 127.404 502.268 127.083 502.43 126.828C502.758 126.307 503.737 125.81 505.367 125.336C506.31 125.076 506.852 124.852 506.992 124.664C507.138 124.477 507.219 124.331 507.234 124.227C507.25 124.117 507.258 123.945 507.258 123.711C507.258 123.477 507.161 123.247 506.969 123.023C506.781 122.799 506.37 122.688 505.734 122.688C504.839 122.688 504.289 122.859 504.086 123.203C503.982 123.38 503.93 123.62 503.93 123.922V124.289H502.516V123.914C502.516 123.107 502.784 122.513 503.32 122.133C503.862 121.753 504.669 121.562 505.742 121.562C506.815 121.562 507.581 121.807 508.039 122.297C508.497 122.781 508.727 123.474 508.727 124.375V127.906C508.727 128.339 508.781 128.62 508.891 128.75C509 128.875 509.234 128.938 509.594 128.938L509.422 130.062H509.125C508.604 130.062 508.216 129.964 507.961 129.766C507.706 129.562 507.51 129.25 507.375 128.828C506.943 129.474 506.422 129.88 505.812 130.047C505.521 130.13 505.195 130.172 504.836 130.172ZM505.57 126.344C504.831 126.557 504.318 126.771 504.031 126.984C503.75 127.198 503.609 127.5 503.609 127.891C503.609 128.276 503.74 128.568 504 128.766C504.266 128.964 504.583 129.062 504.953 129.062C505.328 129.062 505.667 129.016 505.969 128.922C506.271 128.823 506.542 128.68 506.781 128.492C507.026 128.299 507.185 128.081 507.258 127.836V125.445C506.878 125.826 506.315 126.125 505.57 126.344Z" fill="#C9D1D9"/>
</svg>
