<svg width="263" height="263" viewBox="0 0 263 263" fill="none" xmlns="http://www.w3.org/2000/svg">
<g filter="url(#filter0_d)">
<rect x="4" width="255" height="255" fill="#C4C4C4"/>
<rect x="4" width="255" height="255" fill="url(#paint0_linear)"/>
<rect x="4.15" y="0.15" width="254.7" height="254.7" stroke="black" stroke-width="0.3"/>
</g>
<g filter="url(#filter1_d)">
<rect x="100.9" y="90.1001" width="17" height="17" fill="#E8A62E"/>
<rect x="100.9" y="107.1" width="17" height="17" fill="#E8A62E"/>
<rect x="100.9" y="141.1" width="17" height="17" fill="#E8A62E"/>
<rect x="100.9" y="124.1" width="17" height="17" fill="#E8A62E"/>
<rect x="15.9" y="141.1" width="17" height="17" fill="#E8A62E"/>
<rect x="32.9" y="107.1" width="17" height="17" fill="#E8A62E"/>
<rect x="15.9" y="124.1" width="17" height="17" fill="#E8A62E"/>
<rect x="66.9" y="158.1" width="17" height="17" fill="#E8A62E"/>
<rect x="83.9" y="192.1" width="17" height="17" fill="#E8A62E"/>
<rect x="66.9" y="209.1" width="17" height="17" fill="#E8A62E"/>
</g>
<defs>
<filter id="filter0_d" x="0" y="0" width="263" height="263" filterUnits="userSpaceOnUse" color-interpolation-filters="sRGB">
<feFlood flood-opacity="0" result="BackgroundImageFix"/>
<feColorMatrix in="SourceAlpha" type="matrix" values="0 0 0 0 0 0 0 0 0 0 0 0 0 0 0 0 0 0 127 0"/>
<feOffset dy="4"/>
<feGaussianBlur stdDeviation="2"/>
<feColorMatrix type="matrix" values="0 0 0 0 0 0 0 0 0 0 0 0 0 0 0 0 0 0 0.25 0"/>
<feBlend mode="normal" in2="BackgroundImageFix" result="effect1_dropShadow"/>
<feBlend mode="normal" in="SourceGraphic" in2="effect1_dropShadow" result="shape"/>
</filter>
<filter id="filter1_d" x="11.9" y="90.1001" width="110" height="144" filterUnits="userSpaceOnUse" color-interpolation-filters="sRGB">
<feFlood flood-opacity="0" result="BackgroundImageFix"/>
<feColorMatrix in="SourceAlpha" type="matrix" values="0 0 0 0 0 0 0 0 0 0 0 0 0 0 0 0 0 0 127 0"/>
<feOffset dy="4"/>
<feGaussianBlur stdDeviation="2"/>
<feColorMatrix type="matrix" values="0 0 0 0 0 0 0 0 0 0 0 0 0 0 0 0 0 0 0.25 0"/>
<feBlend mode="normal" in2="BackgroundImageFix" result="effect1_dropShadow"/>
<feBlend mode="normal" in="SourceGraphic" in2="effect1_dropShadow" result="shape"/>
</filter>
<linearGradient id="paint0_linear" x1="131.5" y1="0" x2="131.5" y2="255" gradientUnits="userSpaceOnUse">
<stop stop-color="white"/>
<stop offset="1" stop-color="white" stop-opacity="0"/>
</linearGradient>
</defs>
</svg>
