<svg width="282" height="12" viewBox="0 0 282 12" fill="none" xmlns="http://www.w3.org/2000/svg">
<path d="M7.85938 2.53906C7.47917 2.33594 7.08854 2.17969 6.6875 2.07031C6.28646 1.95573 5.84896 1.89844 5.375 1.89844C4.83333 1.89844 4.35156 1.99479 3.92969 2.1875C3.50781 2.38021 3.15104 2.65365 2.85938 3.00781C2.57292 3.35677 2.35156 3.77865 2.19531 4.27344C2.04427 4.76823 1.96875 5.3151 1.96875 5.91406C1.96875 6.53906 2.03125 7.09896 2.15625 7.59375C2.28125 8.08854 2.47656 8.50781 2.74219 8.85156C3.00781 9.19531 3.34635 9.45833 3.75781 9.64062C4.17448 9.82292 4.67188 9.91406 5.25 9.91406C5.34896 9.91406 5.45573 9.90885 5.57031 9.89844C5.6849 9.88802 5.79948 9.875 5.91406 9.85938C6.02865 9.83854 6.13802 9.8151 6.24219 9.78906C6.35156 9.76302 6.44792 9.73438 6.53125 9.70312V6.45312H4.44531V5.30469H7.90625V10.5234C7.69271 10.6224 7.46615 10.7109 7.22656 10.7891C6.99219 10.8672 6.75 10.9323 6.5 10.9844C6.25521 11.0365 6.01042 11.0755 5.76562 11.1016C5.52083 11.1276 5.28385 11.1406 5.05469 11.1406C4.35677 11.1406 3.72656 11.0312 3.16406 10.8125C2.60677 10.5938 2.13021 10.2708 1.73438 9.84375C1.34375 9.41146 1.04167 8.875 0.828125 8.23438C0.619792 7.59375 0.515625 6.85156 0.515625 6.00781C0.515625 5.16927 0.632812 4.41927 0.867188 3.75781C1.10156 3.09115 1.42969 2.52865 1.85156 2.07031C2.27865 1.60677 2.78906 1.25521 3.38281 1.01562C3.98177 0.770833 4.64062 0.648438 5.35938 0.648438C5.81771 0.648438 6.2526 0.690104 6.66406 0.773438C7.08073 0.851562 7.47917 0.979167 7.85938 1.15625V2.53906ZM17.5156 11H16L15.2891 8.77344H11.0391L10.3203 11H8.875L12.2656 0.789062H14.1719L17.5156 11ZM14.8906 7.53125L13.1641 2.07031L11.4375 7.53125H14.8906ZM25.7188 1.97656H22.6953V11H21.2891V1.97656H18.2656V0.789062H25.7188V1.97656ZM34.1641 10.6172C33.3464 10.9557 32.4896 11.125 31.5938 11.125C30.151 11.125 29.0417 10.6953 28.2656 9.83594C27.4948 8.97135 27.1094 7.69531 27.1094 6.00781C27.1094 5.1901 27.2161 4.45052 27.4297 3.78906C27.6432 3.1276 27.9479 2.56771 28.3438 2.10938C28.7396 1.64583 29.2188 1.28906 29.7812 1.03906C30.3438 0.789062 30.974 0.664062 31.6719 0.664062C32.1458 0.664062 32.5859 0.705729 32.9922 0.789062C33.3984 0.867188 33.7891 0.989583 34.1641 1.15625V2.52344C33.7943 2.32031 33.4115 2.16667 33.0156 2.0625C32.6198 1.95312 32.1875 1.89844 31.7188 1.89844C31.2396 1.89844 30.8047 1.98958 30.4141 2.17188C30.0286 2.34896 29.7005 2.60938 29.4297 2.95312C29.1589 3.29167 28.9505 3.70833 28.8047 4.20312C28.6589 4.69271 28.5859 5.2526 28.5859 5.88281C28.5859 7.20573 28.8542 8.20312 29.3906 8.875C29.9271 9.54688 30.7135 9.88281 31.75 9.88281C32.1875 9.88281 32.6068 9.83333 33.0078 9.73438C33.4089 9.63021 33.7943 9.48698 34.1641 9.30469V10.6172ZM43.9062 11H42.3906L41.6797 8.77344H37.4297L36.7109 11H35.2656L38.6562 0.789062H40.5625L43.9062 11ZM41.2812 7.53125L39.5547 2.07031L37.8281 7.53125H41.2812ZM52.7031 11H51.1875L50.4766 8.77344H46.2266L45.5078 11H44.0625L47.4531 0.789062H49.3594L52.7031 11ZM50.0781 7.53125L48.3516 2.07031L46.625 7.53125H50.0781ZM60.6406 2.53906C60.2604 2.33594 59.8698 2.17969 59.4688 2.07031C59.0677 1.95573 58.6302 1.89844 58.1562 1.89844C57.6146 1.89844 57.1328 1.99479 56.7109 2.1875C56.2891 2.38021 55.9323 2.65365 55.6406 3.00781C55.3542 3.35677 55.1328 3.77865 54.9766 4.27344C54.8255 4.76823 54.75 5.3151 54.75 5.91406C54.75 6.53906 54.8125 7.09896 54.9375 7.59375C55.0625 8.08854 55.2578 8.50781 55.5234 8.85156C55.7891 9.19531 56.1276 9.45833 56.5391 9.64062C56.9557 9.82292 57.4531 9.91406 58.0312 9.91406C58.1302 9.91406 58.237 9.90885 58.3516 9.89844C58.4661 9.88802 58.5807 9.875 58.6953 9.85938C58.8099 9.83854 58.9193 9.8151 59.0234 9.78906C59.1328 9.76302 59.2292 9.73438 59.3125 9.70312V6.45312H57.2266V5.30469H60.6875V10.5234C60.474 10.6224 60.2474 10.7109 60.0078 10.7891C59.7734 10.8672 59.5312 10.9323 59.2812 10.9844C59.0365 11.0365 58.7917 11.0755 58.5469 11.1016C58.3021 11.1276 58.0651 11.1406 57.8359 11.1406C57.138 11.1406 56.5078 11.0312 55.9453 10.8125C55.388 10.5938 54.9115 10.2708 54.5156 9.84375C54.125 9.41146 53.8229 8.875 53.6094 8.23438C53.401 7.59375 53.2969 6.85156 53.2969 6.00781C53.2969 5.16927 53.4141 4.41927 53.6484 3.75781C53.8828 3.09115 54.2109 2.52865 54.6328 2.07031C55.0599 1.60677 55.5703 1.25521 56.1641 1.01562C56.763 0.770833 57.4219 0.648438 58.1406 0.648438C58.599 0.648438 59.0339 0.690104 59.4453 0.773438C59.862 0.851562 60.2604 0.979167 60.6406 1.15625V2.53906ZM69.3516 10.6172C68.5339 10.9557 67.6771 11.125 66.7812 11.125C65.3385 11.125 64.2292 10.6953 63.4531 9.83594C62.6823 8.97135 62.2969 7.69531 62.2969 6.00781C62.2969 5.1901 62.4036 4.45052 62.6172 3.78906C62.8307 3.1276 63.1354 2.56771 63.5312 2.10938C63.9271 1.64583 64.4062 1.28906 64.9688 1.03906C65.5312 0.789062 66.1615 0.664062 66.8594 0.664062C67.3333 0.664062 67.7734 0.705729 68.1797 0.789062C68.5859 0.867188 68.9766 0.989583 69.3516 1.15625V2.52344C68.9818 2.32031 68.599 2.16667 68.2031 2.0625C67.8073 1.95312 67.375 1.89844 66.9062 1.89844C66.4271 1.89844 65.9922 1.98958 65.6016 2.17188C65.2161 2.34896 64.888 2.60938 64.6172 2.95312C64.3464 3.29167 64.138 3.70833 63.9922 4.20312C63.8464 4.69271 63.7734 5.2526 63.7734 5.88281C63.7734 7.20573 64.0417 8.20312 64.5781 8.875C65.1146 9.54688 65.901 9.88281 66.9375 9.88281C67.375 9.88281 67.7943 9.83333 68.1953 9.73438C68.5964 9.63021 68.9818 9.48698 69.3516 9.30469V10.6172ZM78.5 1.97656H75.4766V11H74.0703V1.97656H71.0469V0.789062H78.5V1.97656ZM87.0312 2.53906C86.651 2.33594 86.2604 2.17969 85.8594 2.07031C85.4583 1.95573 85.0208 1.89844 84.5469 1.89844C84.0052 1.89844 83.5234 1.99479 83.1016 2.1875C82.6797 2.38021 82.3229 2.65365 82.0312 3.00781C81.7448 3.35677 81.5234 3.77865 81.3672 4.27344C81.2161 4.76823 81.1406 5.3151 81.1406 5.91406C81.1406 6.53906 81.2031 7.09896 81.3281 7.59375C81.4531 8.08854 81.6484 8.50781 81.9141 8.85156C82.1797 9.19531 82.5182 9.45833 82.9297 9.64062C83.3464 9.82292 83.8438 9.91406 84.4219 9.91406C84.5208 9.91406 84.6276 9.90885 84.7422 9.89844C84.8568 9.88802 84.9714 9.875 85.0859 9.85938C85.2005 9.83854 85.3099 9.8151 85.4141 9.78906C85.5234 9.76302 85.6198 9.73438 85.7031 9.70312V6.45312H83.6172V5.30469H87.0781V10.5234C86.8646 10.6224 86.638 10.7109 86.3984 10.7891C86.1641 10.8672 85.9219 10.9323 85.6719 10.9844C85.4271 11.0365 85.1823 11.0755 84.9375 11.1016C84.6927 11.1276 84.4557 11.1406 84.2266 11.1406C83.5286 11.1406 82.8984 11.0312 82.3359 10.8125C81.7786 10.5938 81.3021 10.2708 80.9062 9.84375C80.5156 9.41146 80.2135 8.875 80 8.23438C79.7917 7.59375 79.6875 6.85156 79.6875 6.00781C79.6875 5.16927 79.8047 4.41927 80.0391 3.75781C80.2734 3.09115 80.6016 2.52865 81.0234 2.07031C81.4505 1.60677 81.9609 1.25521 82.5547 1.01562C83.1536 0.770833 83.8125 0.648438 84.5312 0.648438C84.9896 0.648438 85.4245 0.690104 85.8359 0.773438C86.2526 0.851562 86.651 0.979167 87.0312 1.15625V2.53906ZM95.7422 10.6172C94.9245 10.9557 94.0677 11.125 93.1719 11.125C91.7292 11.125 90.6198 10.6953 89.8438 9.83594C89.0729 8.97135 88.6875 7.69531 88.6875 6.00781C88.6875 5.1901 88.7943 4.45052 89.0078 3.78906C89.2214 3.1276 89.526 2.56771 89.9219 2.10938C90.3177 1.64583 90.7969 1.28906 91.3594 1.03906C91.9219 0.789062 92.5521 0.664062 93.25 0.664062C93.724 0.664062 94.1641 0.705729 94.5703 0.789062C94.9766 0.867188 95.3672 0.989583 95.7422 1.15625V2.52344C95.3724 2.32031 94.9896 2.16667 94.5938 2.0625C94.1979 1.95312 93.7656 1.89844 93.2969 1.89844C92.8177 1.89844 92.3828 1.98958 91.9922 2.17188C91.6068 2.34896 91.2786 2.60938 91.0078 2.95312C90.737 3.29167 90.5286 3.70833 90.3828 4.20312C90.237 4.69271 90.1641 5.2526 90.1641 5.88281C90.1641 7.20573 90.4323 8.20312 90.9688 8.875C91.5052 9.54688 92.2917 9.88281 93.3281 9.88281C93.7656 9.88281 94.1849 9.83333 94.5859 9.73438C94.987 9.63021 95.3724 9.48698 95.7422 9.30469V10.6172ZM105.484 11H103.969L103.258 8.77344H99.0078L98.2891 11H96.8438L100.234 0.789062H102.141L105.484 11ZM102.859 7.53125L101.133 2.07031L99.4062 7.53125H102.859ZM113.422 2.53906C113.042 2.33594 112.651 2.17969 112.25 2.07031C111.849 1.95573 111.411 1.89844 110.938 1.89844C110.396 1.89844 109.914 1.99479 109.492 2.1875C109.07 2.38021 108.714 2.65365 108.422 3.00781C108.135 3.35677 107.914 3.77865 107.758 4.27344C107.607 4.76823 107.531 5.3151 107.531 5.91406C107.531 6.53906 107.594 7.09896 107.719 7.59375C107.844 8.08854 108.039 8.50781 108.305 8.85156C108.57 9.19531 108.909 9.45833 109.32 9.64062C109.737 9.82292 110.234 9.91406 110.812 9.91406C110.911 9.91406 111.018 9.90885 111.133 9.89844C111.247 9.88802 111.362 9.875 111.477 9.85938C111.591 9.83854 111.701 9.8151 111.805 9.78906C111.914 9.76302 112.01 9.73438 112.094 9.70312V6.45312H110.008V5.30469H113.469V10.5234C113.255 10.6224 113.029 10.7109 112.789 10.7891C112.555 10.8672 112.312 10.9323 112.062 10.9844C111.818 11.0365 111.573 11.0755 111.328 11.1016C111.083 11.1276 110.846 11.1406 110.617 11.1406C109.919 11.1406 109.289 11.0312 108.727 10.8125C108.169 10.5938 107.693 10.2708 107.297 9.84375C106.906 9.41146 106.604 8.875 106.391 8.23438C106.182 7.59375 106.078 6.85156 106.078 6.00781C106.078 5.16927 106.195 4.41927 106.43 3.75781C106.664 3.09115 106.992 2.52865 107.414 2.07031C107.841 1.60677 108.352 1.25521 108.945 1.01562C109.544 0.770833 110.203 0.648438 110.922 0.648438C111.38 0.648438 111.815 0.690104 112.227 0.773438C112.643 0.851562 113.042 0.979167 113.422 1.15625V2.53906ZM122.484 1.97656H119.461V11H118.055V1.97656H115.031V0.789062H122.484V1.97656ZM131.016 2.53906C130.635 2.33594 130.245 2.17969 129.844 2.07031C129.443 1.95573 129.005 1.89844 128.531 1.89844C127.99 1.89844 127.508 1.99479 127.086 2.1875C126.664 2.38021 126.307 2.65365 126.016 3.00781C125.729 3.35677 125.508 3.77865 125.352 4.27344C125.201 4.76823 125.125 5.3151 125.125 5.91406C125.125 6.53906 125.188 7.09896 125.312 7.59375C125.438 8.08854 125.633 8.50781 125.898 8.85156C126.164 9.19531 126.503 9.45833 126.914 9.64062C127.331 9.82292 127.828 9.91406 128.406 9.91406C128.505 9.91406 128.612 9.90885 128.727 9.89844C128.841 9.88802 128.956 9.875 129.07 9.85938C129.185 9.83854 129.294 9.8151 129.398 9.78906C129.508 9.76302 129.604 9.73438 129.688 9.70312V6.45312H127.602V5.30469H131.062V10.5234C130.849 10.6224 130.622 10.7109 130.383 10.7891C130.148 10.8672 129.906 10.9323 129.656 10.9844C129.411 11.0365 129.167 11.0755 128.922 11.1016C128.677 11.1276 128.44 11.1406 128.211 11.1406C127.513 11.1406 126.883 11.0312 126.32 10.8125C125.763 10.5938 125.286 10.2708 124.891 9.84375C124.5 9.41146 124.198 8.875 123.984 8.23438C123.776 7.59375 123.672 6.85156 123.672 6.00781C123.672 5.16927 123.789 4.41927 124.023 3.75781C124.258 3.09115 124.586 2.52865 125.008 2.07031C125.435 1.60677 125.945 1.25521 126.539 1.01562C127.138 0.770833 127.797 0.648438 128.516 0.648438C128.974 0.648438 129.409 0.690104 129.82 0.773438C130.237 0.851562 130.635 0.979167 131.016 1.15625V2.53906ZM139.727 10.6172C138.909 10.9557 138.052 11.125 137.156 11.125C135.714 11.125 134.604 10.6953 133.828 9.83594C133.057 8.97135 132.672 7.69531 132.672 6.00781C132.672 5.1901 132.779 4.45052 132.992 3.78906C133.206 3.1276 133.51 2.56771 133.906 2.10938C134.302 1.64583 134.781 1.28906 135.344 1.03906C135.906 0.789062 136.536 0.664062 137.234 0.664062C137.708 0.664062 138.148 0.705729 138.555 0.789062C138.961 0.867188 139.352 0.989583 139.727 1.15625V2.52344C139.357 2.32031 138.974 2.16667 138.578 2.0625C138.182 1.95312 137.75 1.89844 137.281 1.89844C136.802 1.89844 136.367 1.98958 135.977 2.17188C135.591 2.34896 135.263 2.60938 134.992 2.95312C134.721 3.29167 134.513 3.70833 134.367 4.20312C134.221 4.69271 134.148 5.2526 134.148 5.88281C134.148 7.20573 134.417 8.20312 134.953 8.875C135.49 9.54688 136.276 9.88281 137.312 9.88281C137.75 9.88281 138.169 9.83333 138.57 9.73438C138.971 9.63021 139.357 9.48698 139.727 9.30469V10.6172ZM149.469 11H147.953L147.242 8.77344H142.992L142.273 11H140.828L144.219 0.789062H146.125L149.469 11ZM146.844 7.53125L145.117 2.07031L143.391 7.53125H146.844ZM157.406 2.53906C157.026 2.33594 156.635 2.17969 156.234 2.07031C155.833 1.95573 155.396 1.89844 154.922 1.89844C154.38 1.89844 153.898 1.99479 153.477 2.1875C153.055 2.38021 152.698 2.65365 152.406 3.00781C152.12 3.35677 151.898 3.77865 151.742 4.27344C151.591 4.76823 151.516 5.3151 151.516 5.91406C151.516 6.53906 151.578 7.09896 151.703 7.59375C151.828 8.08854 152.023 8.50781 152.289 8.85156C152.555 9.19531 152.893 9.45833 153.305 9.64062C153.721 9.82292 154.219 9.91406 154.797 9.91406C154.896 9.91406 155.003 9.90885 155.117 9.89844C155.232 9.88802 155.346 9.875 155.461 9.85938C155.576 9.83854 155.685 9.8151 155.789 9.78906C155.898 9.76302 155.995 9.73438 156.078 9.70312V6.45312H153.992V5.30469H157.453V10.5234C157.24 10.6224 157.013 10.7109 156.773 10.7891C156.539 10.8672 156.297 10.9323 156.047 10.9844C155.802 11.0365 155.557 11.0755 155.312 11.1016C155.068 11.1276 154.831 11.1406 154.602 11.1406C153.904 11.1406 153.273 11.0312 152.711 10.8125C152.154 10.5938 151.677 10.2708 151.281 9.84375C150.891 9.41146 150.589 8.875 150.375 8.23438C150.167 7.59375 150.062 6.85156 150.062 6.00781C150.062 5.16927 150.18 4.41927 150.414 3.75781C150.648 3.09115 150.977 2.52865 151.398 2.07031C151.826 1.60677 152.336 1.25521 152.93 1.01562C153.529 0.770833 154.188 0.648438 154.906 0.648438C155.365 0.648438 155.799 0.690104 156.211 0.773438C156.628 0.851562 157.026 0.979167 157.406 1.15625V2.53906ZM166.469 1.97656H163.445V11H162.039V1.97656H159.016V0.789062H166.469V1.97656ZM175 2.53906C174.62 2.33594 174.229 2.17969 173.828 2.07031C173.427 1.95573 172.99 1.89844 172.516 1.89844C171.974 1.89844 171.492 1.99479 171.07 2.1875C170.648 2.38021 170.292 2.65365 170 3.00781C169.714 3.35677 169.492 3.77865 169.336 4.27344C169.185 4.76823 169.109 5.3151 169.109 5.91406C169.109 6.53906 169.172 7.09896 169.297 7.59375C169.422 8.08854 169.617 8.50781 169.883 8.85156C170.148 9.19531 170.487 9.45833 170.898 9.64062C171.315 9.82292 171.812 9.91406 172.391 9.91406C172.49 9.91406 172.596 9.90885 172.711 9.89844C172.826 9.88802 172.94 9.875 173.055 9.85938C173.169 9.83854 173.279 9.8151 173.383 9.78906C173.492 9.76302 173.589 9.73438 173.672 9.70312V6.45312H171.586V5.30469H175.047V10.5234C174.833 10.6224 174.607 10.7109 174.367 10.7891C174.133 10.8672 173.891 10.9323 173.641 10.9844C173.396 11.0365 173.151 11.0755 172.906 11.1016C172.661 11.1276 172.424 11.1406 172.195 11.1406C171.497 11.1406 170.867 11.0312 170.305 10.8125C169.747 10.5938 169.271 10.2708 168.875 9.84375C168.484 9.41146 168.182 8.875 167.969 8.23438C167.76 7.59375 167.656 6.85156 167.656 6.00781C167.656 5.16927 167.773 4.41927 168.008 3.75781C168.242 3.09115 168.57 2.52865 168.992 2.07031C169.419 1.60677 169.93 1.25521 170.523 1.01562C171.122 0.770833 171.781 0.648438 172.5 0.648438C172.958 0.648438 173.393 0.690104 173.805 0.773438C174.221 0.851562 174.62 0.979167 175 1.15625V2.53906ZM183.711 10.6172C182.893 10.9557 182.036 11.125 181.141 11.125C179.698 11.125 178.589 10.6953 177.812 9.83594C177.042 8.97135 176.656 7.69531 176.656 6.00781C176.656 5.1901 176.763 4.45052 176.977 3.78906C177.19 3.1276 177.495 2.56771 177.891 2.10938C178.286 1.64583 178.766 1.28906 179.328 1.03906C179.891 0.789062 180.521 0.664062 181.219 0.664062C181.693 0.664062 182.133 0.705729 182.539 0.789062C182.945 0.867188 183.336 0.989583 183.711 1.15625V2.52344C183.341 2.32031 182.958 2.16667 182.562 2.0625C182.167 1.95312 181.734 1.89844 181.266 1.89844C180.786 1.89844 180.352 1.98958 179.961 2.17188C179.576 2.34896 179.247 2.60938 178.977 2.95312C178.706 3.29167 178.497 3.70833 178.352 4.20312C178.206 4.69271 178.133 5.2526 178.133 5.88281C178.133 7.20573 178.401 8.20312 178.938 8.875C179.474 9.54688 180.26 9.88281 181.297 9.88281C181.734 9.88281 182.154 9.83333 182.555 9.73438C182.956 9.63021 183.341 9.48698 183.711 9.30469V10.6172ZM193.453 11H191.938L191.227 8.77344H186.977L186.258 11H184.812L188.203 0.789062H190.109L193.453 11ZM190.828 7.53125L189.102 2.07031L187.375 7.53125H190.828ZM201.391 2.53906C201.01 2.33594 200.62 2.17969 200.219 2.07031C199.818 1.95573 199.38 1.89844 198.906 1.89844C198.365 1.89844 197.883 1.99479 197.461 2.1875C197.039 2.38021 196.682 2.65365 196.391 3.00781C196.104 3.35677 195.883 3.77865 195.727 4.27344C195.576 4.76823 195.5 5.3151 195.5 5.91406C195.5 6.53906 195.562 7.09896 195.688 7.59375C195.812 8.08854 196.008 8.50781 196.273 8.85156C196.539 9.19531 196.878 9.45833 197.289 9.64062C197.706 9.82292 198.203 9.91406 198.781 9.91406C198.88 9.91406 198.987 9.90885 199.102 9.89844C199.216 9.88802 199.331 9.875 199.445 9.85938C199.56 9.83854 199.669 9.8151 199.773 9.78906C199.883 9.76302 199.979 9.73438 200.062 9.70312V6.45312H197.977V5.30469H201.438V10.5234C201.224 10.6224 200.997 10.7109 200.758 10.7891C200.523 10.8672 200.281 10.9323 200.031 10.9844C199.786 11.0365 199.542 11.0755 199.297 11.1016C199.052 11.1276 198.815 11.1406 198.586 11.1406C197.888 11.1406 197.258 11.0312 196.695 10.8125C196.138 10.5938 195.661 10.2708 195.266 9.84375C194.875 9.41146 194.573 8.875 194.359 8.23438C194.151 7.59375 194.047 6.85156 194.047 6.00781C194.047 5.16927 194.164 4.41927 194.398 3.75781C194.633 3.09115 194.961 2.52865 195.383 2.07031C195.81 1.60677 196.32 1.25521 196.914 1.01562C197.513 0.770833 198.172 0.648438 198.891 0.648438C199.349 0.648438 199.784 0.690104 200.195 0.773438C200.612 0.851562 201.01 0.979167 201.391 1.15625V2.53906ZM210.453 1.97656H207.43V11H206.023V1.97656H203V0.789062H210.453V1.97656ZM218.984 2.53906C218.604 2.33594 218.214 2.17969 217.812 2.07031C217.411 1.95573 216.974 1.89844 216.5 1.89844C215.958 1.89844 215.477 1.99479 215.055 2.1875C214.633 2.38021 214.276 2.65365 213.984 3.00781C213.698 3.35677 213.477 3.77865 213.32 4.27344C213.169 4.76823 213.094 5.3151 213.094 5.91406C213.094 6.53906 213.156 7.09896 213.281 7.59375C213.406 8.08854 213.602 8.50781 213.867 8.85156C214.133 9.19531 214.471 9.45833 214.883 9.64062C215.299 9.82292 215.797 9.91406 216.375 9.91406C216.474 9.91406 216.581 9.90885 216.695 9.89844C216.81 9.88802 216.924 9.875 217.039 9.85938C217.154 9.83854 217.263 9.8151 217.367 9.78906C217.477 9.76302 217.573 9.73438 217.656 9.70312V6.45312H215.57V5.30469H219.031V10.5234C218.818 10.6224 218.591 10.7109 218.352 10.7891C218.117 10.8672 217.875 10.9323 217.625 10.9844C217.38 11.0365 217.135 11.0755 216.891 11.1016C216.646 11.1276 216.409 11.1406 216.18 11.1406C215.482 11.1406 214.852 11.0312 214.289 10.8125C213.732 10.5938 213.255 10.2708 212.859 9.84375C212.469 9.41146 212.167 8.875 211.953 8.23438C211.745 7.59375 211.641 6.85156 211.641 6.00781C211.641 5.16927 211.758 4.41927 211.992 3.75781C212.227 3.09115 212.555 2.52865 212.977 2.07031C213.404 1.60677 213.914 1.25521 214.508 1.01562C215.107 0.770833 215.766 0.648438 216.484 0.648438C216.943 0.648438 217.378 0.690104 217.789 0.773438C218.206 0.851562 218.604 0.979167 218.984 1.15625V2.53906ZM228.641 11H227.125L226.414 8.77344H222.164L221.445 11H220L223.391 0.789062H225.297L228.641 11ZM226.016 7.53125L224.289 2.07031L222.562 7.53125H226.016ZM237.438 11H235.922L235.211 8.77344H230.961L230.242 11H228.797L232.188 0.789062H234.094L237.438 11ZM234.812 7.53125L233.086 2.07031L231.359 7.53125H234.812ZM246.234 11H244.719L244.008 8.77344H239.758L239.039 11H237.594L240.984 0.789062H242.891L246.234 11ZM243.609 7.53125L241.883 2.07031L240.156 7.53125H243.609ZM254.172 2.53906C253.792 2.33594 253.401 2.17969 253 2.07031C252.599 1.95573 252.161 1.89844 251.688 1.89844C251.146 1.89844 250.664 1.99479 250.242 2.1875C249.82 2.38021 249.464 2.65365 249.172 3.00781C248.885 3.35677 248.664 3.77865 248.508 4.27344C248.357 4.76823 248.281 5.3151 248.281 5.91406C248.281 6.53906 248.344 7.09896 248.469 7.59375C248.594 8.08854 248.789 8.50781 249.055 8.85156C249.32 9.19531 249.659 9.45833 250.07 9.64062C250.487 9.82292 250.984 9.91406 251.562 9.91406C251.661 9.91406 251.768 9.90885 251.883 9.89844C251.997 9.88802 252.112 9.875 252.227 9.85938C252.341 9.83854 252.451 9.8151 252.555 9.78906C252.664 9.76302 252.76 9.73438 252.844 9.70312V6.45312H250.758V5.30469H254.219V10.5234C254.005 10.6224 253.779 10.7109 253.539 10.7891C253.305 10.8672 253.062 10.9323 252.812 10.9844C252.568 11.0365 252.323 11.0755 252.078 11.1016C251.833 11.1276 251.596 11.1406 251.367 11.1406C250.669 11.1406 250.039 11.0312 249.477 10.8125C248.919 10.5938 248.443 10.2708 248.047 9.84375C247.656 9.41146 247.354 8.875 247.141 8.23438C246.932 7.59375 246.828 6.85156 246.828 6.00781C246.828 5.16927 246.945 4.41927 247.18 3.75781C247.414 3.09115 247.742 2.52865 248.164 2.07031C248.591 1.60677 249.102 1.25521 249.695 1.01562C250.294 0.770833 250.953 0.648438 251.672 0.648438C252.13 0.648438 252.565 0.690104 252.977 0.773438C253.393 0.851562 253.792 0.979167 254.172 1.15625V2.53906ZM263.234 1.97656H260.211V11H258.805V1.97656H255.781V0.789062H263.234V1.97656ZM271.68 10.6172C270.862 10.9557 270.005 11.125 269.109 11.125C267.667 11.125 266.557 10.6953 265.781 9.83594C265.01 8.97135 264.625 7.69531 264.625 6.00781C264.625 5.1901 264.732 4.45052 264.945 3.78906C265.159 3.1276 265.464 2.56771 265.859 2.10938C266.255 1.64583 266.734 1.28906 267.297 1.03906C267.859 0.789062 268.49 0.664062 269.188 0.664062C269.661 0.664062 270.102 0.705729 270.508 0.789062C270.914 0.867188 271.305 0.989583 271.68 1.15625V2.52344C271.31 2.32031 270.927 2.16667 270.531 2.0625C270.135 1.95312 269.703 1.89844 269.234 1.89844C268.755 1.89844 268.32 1.98958 267.93 2.17188C267.544 2.34896 267.216 2.60938 266.945 2.95312C266.674 3.29167 266.466 3.70833 266.32 4.20312C266.174 4.69271 266.102 5.2526 266.102 5.88281C266.102 7.20573 266.37 8.20312 266.906 8.875C267.443 9.54688 268.229 9.88281 269.266 9.88281C269.703 9.88281 270.122 9.83333 270.523 9.73438C270.924 9.63021 271.31 9.48698 271.68 9.30469V10.6172ZM281.422 11H279.906L279.195 8.77344H274.945L274.227 11H272.781L276.172 0.789062H278.078L281.422 11ZM278.797 7.53125L277.07 2.07031L275.344 7.53125H278.797Z" fill="#C9D1D9"/>
</svg>
