<svg width="577" height="395" viewBox="0 0 577 395" fill="none" xmlns="http://www.w3.org/2000/svg">
<g filter="url(#filter0_d)">
<rect x="63.5" y="117.5" width="509" height="269" stroke="#C9D1D9"/>
<path d="M242 118V387" stroke="#C9D1D9"/>
<path d="M152 118V387" stroke="#C9D1D9"/>
<path d="M332 118V386" stroke="#C9D1D9"/>
<path d="M122 118V387" stroke="#C9D1D9"/>
<path d="M92 118V387" stroke="#C9D1D9"/>
<path d="M212 118V387" stroke="#C9D1D9"/>
<path d="M182 118V387" stroke="#C9D1D9"/>
<path d="M392 118V387" stroke="#C9D1D9"/>
<path d="M422 118V386" stroke="#C9D1D9"/>
<path d="M451 118V386" stroke="#C9D1D9"/>
<path d="M481 118V386" stroke="#C9D1D9"/>
<path d="M512 118V386" stroke="#C9D1D9"/>
<path d="M542 118V386" stroke="#C9D1D9"/>
<path d="M362 118V387" stroke="#C9D1D9"/>
<path d="M302 118V387" stroke="#C9D1D9"/>
<path d="M272 118V386" stroke="#C9D1D9"/>
<path d="M63 328H572.5" stroke="#C9D1D9"/>
<path d="M64.2635 238H572.5" stroke="#C9D1D9"/>
<path d="M64.1317 358H572.5" stroke="#C9D1D9"/>
<path d="M64 178H572.5" stroke="#C9D1D9"/>
<path d="M63 148H572" stroke="#C9D1D9"/>
<path d="M64 208H572" stroke="#C9D1D9"/>
<path d="M64.2306 268H572.5" stroke="#C9D1D9"/>
<path d="M64.1976 298H572.5" stroke="#C9D1D9"/>
</g>
<path d="M111.125 101.977H108.102V111H106.695V101.977H103.672V100.789H111.125V101.977Z" fill="#C9D1D9"/>
<path d="M141.719 111H140.203L139.492 108.773H135.242L134.523 111H133.078L136.469 100.789H138.375L141.719 111ZM139.094 107.531L137.367 102.07L135.641 107.531H139.094Z" fill="#C9D1D9"/>
<path d="M171.125 101.977H168.102V111H166.695V101.977H163.672V100.789H171.125V101.977Z" fill="#C9D1D9"/>
<path d="M52.125 250.977H49.1016V260H47.6953V250.977H44.6719V249.789H52.125V250.977Z" fill="#C9D1D9"/>
<path d="M201.125 101.977H198.102V111H196.695V101.977H193.672V100.789H201.125V101.977Z" fill="#C9D1D9"/>
<path d="M51.8594 221.539C51.4792 221.336 51.0885 221.18 50.6875 221.07C50.2865 220.956 49.849 220.898 49.375 220.898C48.8333 220.898 48.3516 220.995 47.9297 221.188C47.5078 221.38 47.151 221.654 46.8594 222.008C46.5729 222.357 46.3516 222.779 46.1953 223.273C46.0443 223.768 45.9688 224.315 45.9688 224.914C45.9688 225.539 46.0312 226.099 46.1562 226.594C46.2812 227.089 46.4766 227.508 46.7422 227.852C47.0078 228.195 47.3464 228.458 47.7578 228.641C48.1745 228.823 48.6719 228.914 49.25 228.914C49.349 228.914 49.4557 228.909 49.5703 228.898C49.6849 228.888 49.7995 228.875 49.9141 228.859C50.0286 228.839 50.138 228.815 50.2422 228.789C50.3516 228.763 50.4479 228.734 50.5312 228.703V225.453H48.4453V224.305H51.9062V229.523C51.6927 229.622 51.4661 229.711 51.2266 229.789C50.9922 229.867 50.75 229.932 50.5 229.984C50.2552 230.036 50.0104 230.076 49.7656 230.102C49.5208 230.128 49.2839 230.141 49.0547 230.141C48.3568 230.141 47.7266 230.031 47.1641 229.812C46.6068 229.594 46.1302 229.271 45.7344 228.844C45.3438 228.411 45.0417 227.875 44.8281 227.234C44.6198 226.594 44.5156 225.852 44.5156 225.008C44.5156 224.169 44.6328 223.419 44.8672 222.758C45.1016 222.091 45.4297 221.529 45.8516 221.07C46.2786 220.607 46.7891 220.255 47.3828 220.016C47.9818 219.771 48.6406 219.648 49.3594 219.648C49.8177 219.648 50.2526 219.69 50.6641 219.773C51.0807 219.852 51.4792 219.979 51.8594 220.156V221.539Z" fill="#C9D1D9"/>
<path d="M52.125 310.977H49.1016V320H47.6953V310.977H44.6719V309.789H52.125V310.977Z" fill="#C9D1D9"/>
<path d="M51.8594 341.539C51.4792 341.336 51.0885 341.18 50.6875 341.07C50.2865 340.956 49.849 340.898 49.375 340.898C48.8333 340.898 48.3516 340.995 47.9297 341.188C47.5078 341.38 47.151 341.654 46.8594 342.008C46.5729 342.357 46.3516 342.779 46.1953 343.273C46.0443 343.768 45.9688 344.315 45.9688 344.914C45.9688 345.539 46.0312 346.099 46.1562 346.594C46.2812 347.089 46.4766 347.508 46.7422 347.852C47.0078 348.195 47.3464 348.458 47.7578 348.641C48.1745 348.823 48.6719 348.914 49.25 348.914C49.349 348.914 49.4557 348.909 49.5703 348.898C49.6849 348.888 49.7995 348.875 49.9141 348.859C50.0286 348.839 50.138 348.815 50.2422 348.789C50.3516 348.763 50.4479 348.734 50.5312 348.703V345.453H48.4453V344.305H51.9062V349.523C51.6927 349.622 51.4661 349.711 51.2266 349.789C50.9922 349.867 50.75 349.932 50.5 349.984C50.2552 350.036 50.0104 350.076 49.7656 350.102C49.5208 350.128 49.2839 350.141 49.0547 350.141C48.3568 350.141 47.7266 350.031 47.1641 349.812C46.6068 349.594 46.1302 349.271 45.7344 348.844C45.3438 348.411 45.0417 347.875 44.8281 347.234C44.6198 346.594 44.5156 345.852 44.5156 345.008C44.5156 344.169 44.6328 343.419 44.8672 342.758C45.1016 342.091 45.4297 341.529 45.8516 341.07C46.2786 340.607 46.7891 340.255 47.3828 340.016C47.9818 339.771 48.6406 339.648 49.3594 339.648C49.8177 339.648 50.2526 339.69 50.6641 339.773C51.0807 339.852 51.4792 339.979 51.8594 340.156V341.539Z" fill="#C9D1D9"/>
<path d="M51.7734 379.617C50.9557 379.956 50.099 380.125 49.2031 380.125C47.7604 380.125 46.651 379.695 45.875 378.836C45.1042 377.971 44.7188 376.695 44.7188 375.008C44.7188 374.19 44.8255 373.451 45.0391 372.789C45.2526 372.128 45.5573 371.568 45.9531 371.109C46.349 370.646 46.8281 370.289 47.3906 370.039C47.9531 369.789 48.5833 369.664 49.2812 369.664C49.7552 369.664 50.1953 369.706 50.6016 369.789C51.0078 369.867 51.3984 369.99 51.7734 370.156V371.523C51.4036 371.32 51.0208 371.167 50.625 371.062C50.2292 370.953 49.7969 370.898 49.3281 370.898C48.849 370.898 48.4141 370.99 48.0234 371.172C47.638 371.349 47.3099 371.609 47.0391 371.953C46.7682 372.292 46.5599 372.708 46.4141 373.203C46.2682 373.693 46.1953 374.253 46.1953 374.883C46.1953 376.206 46.4635 377.203 47 377.875C47.5365 378.547 48.3229 378.883 49.3594 378.883C49.7969 378.883 50.2161 378.833 50.6172 378.734C51.0182 378.63 51.4036 378.487 51.7734 378.305V379.617Z" fill="#C9D1D9"/>
<path d="M52.7188 290H51.2031L50.4922 287.773H46.2422L45.5234 290H44.0781L47.4688 279.789H49.375L52.7188 290ZM50.0938 286.531L48.3672 281.07L46.6406 286.531H50.0938Z" fill="#C9D1D9"/>
<path d="M230.859 102.539C230.479 102.336 230.089 102.18 229.688 102.07C229.286 101.956 228.849 101.898 228.375 101.898C227.833 101.898 227.352 101.995 226.93 102.188C226.508 102.38 226.151 102.654 225.859 103.008C225.573 103.357 225.352 103.779 225.195 104.273C225.044 104.768 224.969 105.315 224.969 105.914C224.969 106.539 225.031 107.099 225.156 107.594C225.281 108.089 225.477 108.508 225.742 108.852C226.008 109.195 226.346 109.458 226.758 109.641C227.174 109.823 227.672 109.914 228.25 109.914C228.349 109.914 228.456 109.909 228.57 109.898C228.685 109.888 228.799 109.875 228.914 109.859C229.029 109.839 229.138 109.815 229.242 109.789C229.352 109.763 229.448 109.734 229.531 109.703V106.453H227.445V105.305H230.906V110.523C230.693 110.622 230.466 110.711 230.227 110.789C229.992 110.867 229.75 110.932 229.5 110.984C229.255 111.036 229.01 111.076 228.766 111.102C228.521 111.128 228.284 111.141 228.055 111.141C227.357 111.141 226.727 111.031 226.164 110.812C225.607 110.594 225.13 110.271 224.734 109.844C224.344 109.411 224.042 108.875 223.828 108.234C223.62 107.594 223.516 106.852 223.516 106.008C223.516 105.169 223.633 104.419 223.867 103.758C224.102 103.091 224.43 102.529 224.852 102.07C225.279 101.607 225.789 101.255 226.383 101.016C226.982 100.771 227.641 100.648 228.359 100.648C228.818 100.648 229.253 100.69 229.664 100.773C230.081 100.852 230.479 100.979 230.859 101.156V102.539Z" fill="#C9D1D9"/>
<path d="M260.859 102.539C260.479 102.336 260.089 102.18 259.688 102.07C259.286 101.956 258.849 101.898 258.375 101.898C257.833 101.898 257.352 101.995 256.93 102.188C256.508 102.38 256.151 102.654 255.859 103.008C255.573 103.357 255.352 103.779 255.195 104.273C255.044 104.768 254.969 105.315 254.969 105.914C254.969 106.539 255.031 107.099 255.156 107.594C255.281 108.089 255.477 108.508 255.742 108.852C256.008 109.195 256.346 109.458 256.758 109.641C257.174 109.823 257.672 109.914 258.25 109.914C258.349 109.914 258.456 109.909 258.57 109.898C258.685 109.888 258.799 109.875 258.914 109.859C259.029 109.839 259.138 109.815 259.242 109.789C259.352 109.763 259.448 109.734 259.531 109.703V106.453H257.445V105.305H260.906V110.523C260.693 110.622 260.466 110.711 260.227 110.789C259.992 110.867 259.75 110.932 259.5 110.984C259.255 111.036 259.01 111.076 258.766 111.102C258.521 111.128 258.284 111.141 258.055 111.141C257.357 111.141 256.727 111.031 256.164 110.812C255.607 110.594 255.13 110.271 254.734 109.844C254.344 109.411 254.042 108.875 253.828 108.234C253.62 107.594 253.516 106.852 253.516 106.008C253.516 105.169 253.633 104.419 253.867 103.758C254.102 103.091 254.43 102.529 254.852 102.07C255.279 101.607 255.789 101.255 256.383 101.016C256.982 100.771 257.641 100.648 258.359 100.648C258.818 100.648 259.253 100.69 259.664 100.773C260.081 100.852 260.479 100.979 260.859 101.156V102.539Z" fill="#C9D1D9"/>
<path d="M321.125 101.977H318.102V111H316.695V101.977H313.672V100.789H321.125V101.977Z" fill="#C9D1D9"/>
<path d="M381.125 101.977H378.102V111H376.695V101.977H373.672V100.789H381.125V101.977Z" fill="#C9D1D9"/>
<path d="M411.719 111H410.203L409.492 108.773H405.242L404.523 111H403.078L406.469 100.789H408.375L411.719 111ZM409.094 107.531L407.367 102.07L405.641 107.531H409.094Z" fill="#C9D1D9"/>
<path d="M440.773 110.617C439.956 110.956 439.099 111.125 438.203 111.125C436.76 111.125 435.651 110.695 434.875 109.836C434.104 108.971 433.719 107.695 433.719 106.008C433.719 105.19 433.826 104.451 434.039 103.789C434.253 103.128 434.557 102.568 434.953 102.109C435.349 101.646 435.828 101.289 436.391 101.039C436.953 100.789 437.583 100.664 438.281 100.664C438.755 100.664 439.195 100.706 439.602 100.789C440.008 100.867 440.398 100.99 440.773 101.156V102.523C440.404 102.32 440.021 102.167 439.625 102.062C439.229 101.953 438.797 101.898 438.328 101.898C437.849 101.898 437.414 101.99 437.023 102.172C436.638 102.349 436.31 102.609 436.039 102.953C435.768 103.292 435.56 103.708 435.414 104.203C435.268 104.693 435.195 105.253 435.195 105.883C435.195 107.206 435.464 108.203 436 108.875C436.536 109.547 437.323 109.883 438.359 109.883C438.797 109.883 439.216 109.833 439.617 109.734C440.018 109.63 440.404 109.487 440.773 109.305V110.617Z" fill="#C9D1D9"/>
<path d="M470.859 102.539C470.479 102.336 470.089 102.18 469.688 102.07C469.286 101.956 468.849 101.898 468.375 101.898C467.833 101.898 467.352 101.995 466.93 102.188C466.508 102.38 466.151 102.654 465.859 103.008C465.573 103.357 465.352 103.779 465.195 104.273C465.044 104.768 464.969 105.315 464.969 105.914C464.969 106.539 465.031 107.099 465.156 107.594C465.281 108.089 465.477 108.508 465.742 108.852C466.008 109.195 466.346 109.458 466.758 109.641C467.174 109.823 467.672 109.914 468.25 109.914C468.349 109.914 468.456 109.909 468.57 109.898C468.685 109.888 468.799 109.875 468.914 109.859C469.029 109.839 469.138 109.815 469.242 109.789C469.352 109.763 469.448 109.734 469.531 109.703V106.453H467.445V105.305H470.906V110.523C470.693 110.622 470.466 110.711 470.227 110.789C469.992 110.867 469.75 110.932 469.5 110.984C469.255 111.036 469.01 111.076 468.766 111.102C468.521 111.128 468.284 111.141 468.055 111.141C467.357 111.141 466.727 111.031 466.164 110.812C465.607 110.594 465.13 110.271 464.734 109.844C464.344 109.411 464.042 108.875 463.828 108.234C463.62 107.594 463.516 106.852 463.516 106.008C463.516 105.169 463.633 104.419 463.867 103.758C464.102 103.091 464.43 102.529 464.852 102.07C465.279 101.607 465.789 101.255 466.383 101.016C466.982 100.771 467.641 100.648 468.359 100.648C468.818 100.648 469.253 100.69 469.664 100.773C470.081 100.852 470.479 100.979 470.859 101.156V102.539Z" fill="#C9D1D9"/>
<path d="M351.719 111H350.203L349.492 108.773H345.242L344.523 111H343.078L346.469 100.789H348.375L351.719 111ZM349.094 107.531L347.367 102.07L345.641 107.531H349.094Z" fill="#C9D1D9"/>
<path d="M290.773 110.617C289.956 110.956 289.099 111.125 288.203 111.125C286.76 111.125 285.651 110.695 284.875 109.836C284.104 108.971 283.719 107.695 283.719 106.008C283.719 105.19 283.826 104.451 284.039 103.789C284.253 103.128 284.557 102.568 284.953 102.109C285.349 101.646 285.828 101.289 286.391 101.039C286.953 100.789 287.583 100.664 288.281 100.664C288.755 100.664 289.195 100.706 289.602 100.789C290.008 100.867 290.398 100.99 290.773 101.156V102.523C290.404 102.32 290.021 102.167 289.625 102.062C289.229 101.953 288.797 101.898 288.328 101.898C287.849 101.898 287.414 101.99 287.023 102.172C286.638 102.349 286.31 102.609 286.039 102.953C285.768 103.292 285.56 103.708 285.414 104.203C285.268 104.693 285.195 105.253 285.195 105.883C285.195 107.206 285.464 108.203 286 108.875C286.536 109.547 287.323 109.883 288.359 109.883C288.797 109.883 289.216 109.833 289.617 109.734C290.018 109.63 290.404 109.487 290.773 109.305V110.617Z" fill="#C9D1D9"/>
<path d="M51.8594 161.539C51.4792 161.336 51.0885 161.18 50.6875 161.07C50.2865 160.956 49.849 160.898 49.375 160.898C48.8333 160.898 48.3516 160.995 47.9297 161.188C47.5078 161.38 47.151 161.654 46.8594 162.008C46.5729 162.357 46.3516 162.779 46.1953 163.273C46.0443 163.768 45.9688 164.315 45.9688 164.914C45.9688 165.539 46.0312 166.099 46.1562 166.594C46.2812 167.089 46.4766 167.508 46.7422 167.852C47.0078 168.195 47.3464 168.458 47.7578 168.641C48.1745 168.823 48.6719 168.914 49.25 168.914C49.349 168.914 49.4557 168.909 49.5703 168.898C49.6849 168.888 49.7995 168.875 49.9141 168.859C50.0286 168.839 50.138 168.815 50.2422 168.789C50.3516 168.763 50.4479 168.734 50.5312 168.703V165.453H48.4453V164.305H51.9062V169.523C51.6927 169.622 51.4661 169.711 51.2266 169.789C50.9922 169.867 50.75 169.932 50.5 169.984C50.2552 170.036 50.0104 170.076 49.7656 170.102C49.5208 170.128 49.2839 170.141 49.0547 170.141C48.3568 170.141 47.7266 170.031 47.1641 169.812C46.6068 169.594 46.1302 169.271 45.7344 168.844C45.3438 168.411 45.0417 167.875 44.8281 167.234C44.6198 166.594 44.5156 165.852 44.5156 165.008C44.5156 164.169 44.6328 163.419 44.8672 162.758C45.1016 162.091 45.4297 161.529 45.8516 161.07C46.2786 160.607 46.7891 160.255 47.3828 160.016C47.9818 159.771 48.6406 159.648 49.3594 159.648C49.8177 159.648 50.2526 159.69 50.6641 159.773C51.0807 159.852 51.4792 159.979 51.8594 160.156V161.539Z" fill="#C9D1D9"/>
<path d="M51.7734 199.617C50.9557 199.956 50.099 200.125 49.2031 200.125C47.7604 200.125 46.651 199.695 45.875 198.836C45.1042 197.971 44.7188 196.695 44.7188 195.008C44.7188 194.19 44.8255 193.451 45.0391 192.789C45.2526 192.128 45.5573 191.568 45.9531 191.109C46.349 190.646 46.8281 190.289 47.3906 190.039C47.9531 189.789 48.5833 189.664 49.2812 189.664C49.7552 189.664 50.1953 189.706 50.6016 189.789C51.0078 189.867 51.3984 189.99 51.7734 190.156V191.523C51.4036 191.32 51.0208 191.167 50.625 191.062C50.2292 190.953 49.7969 190.898 49.3281 190.898C48.849 190.898 48.4141 190.99 48.0234 191.172C47.638 191.349 47.3099 191.609 47.0391 191.953C46.7682 192.292 46.5599 192.708 46.4141 193.203C46.2682 193.693 46.1953 194.253 46.1953 194.883C46.1953 196.206 46.4635 197.203 47 197.875C47.5365 198.547 48.3229 198.883 49.3594 198.883C49.7969 198.883 50.2161 198.833 50.6172 198.734C51.0182 198.63 51.4036 198.487 51.7734 198.305V199.617Z" fill="#C9D1D9"/>
<path d="M79.0057 99C77.4177 99.0064 76.0253 99.0456 74.5824 99.819C73.8027 100.237 72.2003 101.346 72.4288 102.493C72.7724 104.218 76.0438 104.14 77.2852 104.025C77.3337 104.021 78.5453 103.802 77.938 103.802C77.1028 103.802 76.2407 103.976 75.4671 104.298C73.7764 105.003 72.0308 106.368 71.2513 108.083C70.0839 110.651 73.2661 111.022 75.0034 110.999C77.3052 110.969 79.628 110.517 81.7817 109.696C82.0352 109.599 82.0762 109.644 81.861 109.498" stroke="#C9D1D9" stroke-width="1.5" stroke-linecap="round" stroke-linejoin="round"/>
<path d="M52.0057 128C50.4177 128.006 49.0253 128.046 47.5824 128.819C46.8027 129.237 45.2003 130.346 45.4288 131.493C45.7724 133.218 49.0438 133.14 50.2852 133.025C50.3337 133.021 51.5453 132.802 50.938 132.802C50.1028 132.802 49.2407 132.976 48.4671 133.298C46.7764 134.003 45.0308 135.368 44.2513 137.083C43.0839 139.651 46.2661 140.022 48.0034 139.999C50.3052 139.969 52.628 139.517 54.7817 138.696C55.0352 138.599 55.0762 138.644 54.861 138.498" stroke="#C9D1D9" stroke-width="1.5" stroke-linecap="round" stroke-linejoin="round"/>
<path d="M13.9219 245.143C13.9219 245.663 13.8242 246.181 13.6289 246.695C13.4336 247.203 13.1309 247.659 12.7207 248.062C12.3105 248.466 11.7865 248.795 11.1484 249.049C10.5104 249.296 9.7487 249.42 8.86328 249.42H7.28125V254H5.54297V241.236H9.13672C9.76823 241.236 10.3737 241.308 10.9531 241.451C11.5326 241.588 12.0404 241.812 12.4766 242.125C12.9193 242.438 13.2708 242.841 13.5312 243.336C13.7917 243.831 13.9219 244.433 13.9219 245.143ZM12.1152 245.221C12.1152 244.4 11.8451 243.772 11.3047 243.336C10.7708 242.9 10.0221 242.682 9.05859 242.682H7.28125V247.936H8.90234C9.93099 247.936 10.722 247.711 11.2754 247.262C11.8353 246.812 12.1152 246.132 12.1152 245.221Z" fill="#C9D1D9"/>
<path d="M312.156 68.7207H308.377V80H306.619V68.7207H302.84V67.2363H312.156V68.7207Z" fill="#C9D1D9"/>
<path d="M498.859 102.539C498.479 102.336 498.089 102.18 497.688 102.07C497.286 101.956 496.849 101.898 496.375 101.898C495.833 101.898 495.352 101.995 494.93 102.188C494.508 102.38 494.151 102.654 493.859 103.008C493.573 103.357 493.352 103.779 493.195 104.273C493.044 104.768 492.969 105.315 492.969 105.914C492.969 106.539 493.031 107.099 493.156 107.594C493.281 108.089 493.477 108.508 493.742 108.852C494.008 109.195 494.346 109.458 494.758 109.641C495.174 109.823 495.672 109.914 496.25 109.914C496.349 109.914 496.456 109.909 496.57 109.898C496.685 109.888 496.799 109.875 496.914 109.859C497.029 109.839 497.138 109.815 497.242 109.789C497.352 109.763 497.448 109.734 497.531 109.703V106.453H495.445V105.305H498.906V110.523C498.693 110.622 498.466 110.711 498.227 110.789C497.992 110.867 497.75 110.932 497.5 110.984C497.255 111.036 497.01 111.076 496.766 111.102C496.521 111.128 496.284 111.141 496.055 111.141C495.357 111.141 494.727 111.031 494.164 110.812C493.607 110.594 493.13 110.271 492.734 109.844C492.344 109.411 492.042 108.875 491.828 108.234C491.62 107.594 491.516 106.852 491.516 106.008C491.516 105.169 491.633 104.419 491.867 103.758C492.102 103.091 492.43 102.529 492.852 102.07C493.279 101.607 493.789 101.255 494.383 101.016C494.982 100.771 495.641 100.648 496.359 100.648C496.818 100.648 497.253 100.69 497.664 100.773C498.081 100.852 498.479 100.979 498.859 101.156V102.539Z" fill="#C9D1D9"/>
<path d="M528.125 101.977H525.102V111H523.695V101.977H520.672V100.789H528.125V101.977Z" fill="#C9D1D9"/>
<path d="M557.125 101.977H554.102V111H552.695V101.977H549.672V100.789H557.125V101.977Z" fill="#C9D1D9"/>
<path d="M10.1562 4.7207H6.37695V16H4.61914V4.7207H0.839844V3.23633H10.1562V4.7207ZM16.4941 6.01953C16.696 6.01953 16.888 6.06185 17.0703 6.14648C17.2526 6.22461 17.4121 6.33203 17.5488 6.46875C17.6855 6.60547 17.793 6.76497 17.8711 6.94727C17.9557 7.12956 17.998 7.32161 17.998 7.52344C17.998 7.73177 17.9557 7.92708 17.8711 8.10938C17.793 8.28516 17.6855 8.44141 17.5488 8.57812C17.4121 8.71484 17.2526 8.82227 17.0703 8.90039C16.888 8.97852 16.696 9.01758 16.4941 9.01758C16.2858 9.01758 16.0905 8.97852 15.9082 8.90039C15.7324 8.82227 15.5762 8.71484 15.4395 8.57812C15.3027 8.44141 15.1953 8.28516 15.1172 8.10938C15.0391 7.92708 15 7.73177 15 7.52344C15 7.32161 15.0391 7.12956 15.1172 6.94727C15.1953 6.76497 15.3027 6.60547 15.4395 6.46875C15.5762 6.33203 15.7324 6.22461 15.9082 6.14648C16.0905 6.06185 16.2858 6.01953 16.4941 6.01953ZM16.4941 13.1777C16.696 13.1777 16.888 13.2201 17.0703 13.3047C17.2526 13.3828 17.4121 13.4902 17.5488 13.627C17.6855 13.7637 17.793 13.9232 17.8711 14.1055C17.9557 14.2878 17.998 14.4798 17.998 14.6816C17.998 14.89 17.9557 15.0853 17.8711 15.2676C17.793 15.4434 17.6855 15.5996 17.5488 15.7363C17.4121 15.873 17.2526 15.9805 17.0703 16.0586C16.888 16.1367 16.696 16.1758 16.4941 16.1758C16.2858 16.1758 16.0905 16.1367 15.9082 16.0586C15.7324 15.9805 15.5762 15.873 15.4395 15.7363C15.3027 15.5996 15.1953 15.4434 15.1172 15.2676C15.0391 15.0853 15 14.89 15 14.6816C15 14.4798 15.0391 14.2878 15.1172 14.1055C15.1953 13.9232 15.3027 13.7637 15.4395 13.627C15.5762 13.4902 15.7324 13.3828 15.9082 13.3047C16.0905 13.2201 16.2858 13.1777 16.4941 13.1777ZM43.1445 4.7207H39.3652V16H37.6074V4.7207H33.8281V3.23633H43.1445V4.7207ZM54.8828 16H52.9883L52.0996 13.2168H46.7871L45.8887 16H44.082L48.3203 3.23633H50.7031L54.8828 16ZM51.6016 11.6641L49.4434 4.83789L47.2852 11.6641H51.6016ZM65.1367 4.7207H61.3574V16H59.5996V4.7207H55.8203V3.23633H65.1367V4.7207ZM76.1328 4.7207H72.3535V16H70.5957V4.7207H66.8164V3.23633H76.1328V4.7207ZM86.7969 5.42383C86.3216 5.16992 85.8333 4.97461 85.332 4.83789C84.8307 4.69466 84.2839 4.62305 83.6914 4.62305C83.0143 4.62305 82.4121 4.74349 81.8848 4.98438C81.3574 5.22526 80.9115 5.56706 80.5469 6.00977C80.1888 6.44596 79.9121 6.97331 79.7168 7.5918C79.528 8.21029 79.4336 8.89388 79.4336 9.64258C79.4336 10.4238 79.5117 11.1237 79.668 11.7422C79.8242 12.3607 80.0684 12.8848 80.4004 13.3145C80.7324 13.7441 81.1556 14.0729 81.6699 14.3008C82.1908 14.5286 82.8125 14.6426 83.5352 14.6426C83.6589 14.6426 83.7923 14.6361 83.9355 14.623C84.0788 14.61 84.222 14.5938 84.3652 14.5742C84.5085 14.5482 84.6452 14.5189 84.7754 14.4863C84.9121 14.4538 85.0326 14.418 85.1367 14.3789V10.3164H82.5293V8.88086H86.8555V15.4043C86.5885 15.528 86.3053 15.6387 86.0059 15.7363C85.7129 15.834 85.4102 15.9154 85.0977 15.9805C84.7917 16.0456 84.4857 16.0944 84.1797 16.127C83.8737 16.1595 83.5775 16.1758 83.291 16.1758C82.4186 16.1758 81.6309 16.0391 80.9277 15.7656C80.2311 15.4922 79.6354 15.0885 79.1406 14.5547C78.6523 14.0143 78.2747 13.3438 78.0078 12.543C77.7474 11.7422 77.6172 10.8145 77.6172 9.75977C77.6172 8.71159 77.7637 7.77409 78.0566 6.94727C78.3496 6.11393 78.7598 5.41081 79.2871 4.83789C79.821 4.25846 80.459 3.81901 81.2012 3.51953C81.9499 3.21354 82.7734 3.06055 83.6719 3.06055C84.2448 3.06055 84.7884 3.11263 85.3027 3.2168C85.8236 3.31445 86.3216 3.47396 86.7969 3.69531V5.42383ZM97.793 5.42383C97.3177 5.16992 96.8294 4.97461 96.3281 4.83789C95.8268 4.69466 95.2799 4.62305 94.6875 4.62305C94.0104 4.62305 93.4082 4.74349 92.8809 4.98438C92.3535 5.22526 91.9076 5.56706 91.543 6.00977C91.1849 6.44596 90.9082 6.97331 90.7129 7.5918C90.5241 8.21029 90.4297 8.89388 90.4297 9.64258C90.4297 10.4238 90.5078 11.1237 90.6641 11.7422C90.8203 12.3607 91.0645 12.8848 91.3965 13.3145C91.7285 13.7441 92.1517 14.0729 92.666 14.3008C93.1868 14.5286 93.8086 14.6426 94.5312 14.6426C94.6549 14.6426 94.7884 14.6361 94.9316 14.623C95.0749 14.61 95.2181 14.5938 95.3613 14.5742C95.5046 14.5482 95.6413 14.5189 95.7715 14.4863C95.9082 14.4538 96.0286 14.418 96.1328 14.3789V10.3164H93.5254V8.88086H97.8516V15.4043C97.5846 15.528 97.3014 15.6387 97.002 15.7363C96.709 15.834 96.4062 15.9154 96.0938 15.9805C95.7878 16.0456 95.4818 16.0944 95.1758 16.127C94.8698 16.1595 94.5736 16.1758 94.2871 16.1758C93.4147 16.1758 92.627 16.0391 91.9238 15.7656C91.2272 15.4922 90.6315 15.0885 90.1367 14.5547C89.6484 14.0143 89.2708 13.3438 89.0039 12.543C88.7435 11.7422 88.6133 10.8145 88.6133 9.75977C88.6133 8.71159 88.7598 7.77409 89.0527 6.94727C89.3457 6.11393 89.7559 5.41081 90.2832 4.83789C90.8171 4.25846 91.4551 3.81901 92.1973 3.51953C92.946 3.21354 93.7695 3.06055 94.668 3.06055C95.2409 3.06055 95.7845 3.11263 96.2988 3.2168C96.8197 3.31445 97.3177 3.47396 97.793 3.69531V5.42383ZM108.682 15.5215C107.66 15.9447 106.589 16.1562 105.469 16.1562C103.665 16.1562 102.279 15.6191 101.309 14.5449C100.345 13.4642 99.8633 11.8691 99.8633 9.75977C99.8633 8.73763 99.9967 7.81315 100.264 6.98633C100.531 6.15951 100.911 5.45964 101.406 4.88672C101.901 4.30729 102.5 3.86133 103.203 3.54883C103.906 3.23633 104.694 3.08008 105.566 3.08008C106.159 3.08008 106.709 3.13216 107.217 3.23633C107.725 3.33398 108.213 3.48698 108.682 3.69531V5.4043C108.219 5.15039 107.741 4.95833 107.246 4.82812C106.751 4.69141 106.211 4.62305 105.625 4.62305C105.026 4.62305 104.482 4.73698 103.994 4.96484C103.512 5.1862 103.102 5.51172 102.764 5.94141C102.425 6.36458 102.165 6.88542 101.982 7.50391C101.8 8.11589 101.709 8.81576 101.709 9.60352C101.709 11.2572 102.044 12.5039 102.715 13.3438C103.385 14.1836 104.368 14.6035 105.664 14.6035C106.211 14.6035 106.735 14.5417 107.236 14.418C107.738 14.2878 108.219 14.1087 108.682 13.8809V15.5215ZM120.117 4.7207H116.338V16H114.58V4.7207H110.801V3.23633H120.117V4.7207ZM131.855 16H129.961L129.072 13.2168H123.76L122.861 16H121.055L125.293 3.23633H127.676L131.855 16ZM128.574 11.6641L126.416 4.83789L124.258 11.6641H128.574ZM142.109 4.7207H138.33V16H136.572V4.7207H132.793V3.23633H142.109V4.7207ZM153.848 16H151.953L151.064 13.2168H145.752L144.854 16H143.047L147.285 3.23633H149.668L153.848 16ZM150.566 11.6641L148.408 4.83789L146.25 11.6641H150.566ZM163.662 15.5215C162.64 15.9447 161.569 16.1562 160.449 16.1562C158.646 16.1562 157.259 15.6191 156.289 14.5449C155.326 13.4642 154.844 11.8691 154.844 9.75977C154.844 8.73763 154.977 7.81315 155.244 6.98633C155.511 6.15951 155.892 5.45964 156.387 4.88672C156.882 4.30729 157.48 3.86133 158.184 3.54883C158.887 3.23633 159.674 3.08008 160.547 3.08008C161.139 3.08008 161.689 3.13216 162.197 3.23633C162.705 3.33398 163.193 3.48698 163.662 3.69531V5.4043C163.2 5.15039 162.721 4.95833 162.227 4.82812C161.732 4.69141 161.191 4.62305 160.605 4.62305C160.007 4.62305 159.463 4.73698 158.975 4.96484C158.493 5.1862 158.083 5.51172 157.744 5.94141C157.406 6.36458 157.145 6.88542 156.963 7.50391C156.781 8.11589 156.689 8.81576 156.689 9.60352C156.689 11.2572 157.025 12.5039 157.695 13.3438C158.366 14.1836 159.349 14.6035 160.645 14.6035C161.191 14.6035 161.715 14.5417 162.217 14.418C162.718 14.2878 163.2 14.1087 163.662 13.8809V15.5215ZM174.766 5.42383C174.29 5.16992 173.802 4.97461 173.301 4.83789C172.799 4.69466 172.253 4.62305 171.66 4.62305C170.983 4.62305 170.381 4.74349 169.854 4.98438C169.326 5.22526 168.88 5.56706 168.516 6.00977C168.158 6.44596 167.881 6.97331 167.686 7.5918C167.497 8.21029 167.402 8.89388 167.402 9.64258C167.402 10.4238 167.48 11.1237 167.637 11.7422C167.793 12.3607 168.037 12.8848 168.369 13.3145C168.701 13.7441 169.124 14.0729 169.639 14.3008C170.16 14.5286 170.781 14.6426 171.504 14.6426C171.628 14.6426 171.761 14.6361 171.904 14.623C172.048 14.61 172.191 14.5938 172.334 14.5742C172.477 14.5482 172.614 14.5189 172.744 14.4863C172.881 14.4538 173.001 14.418 173.105 14.3789V10.3164H170.498V8.88086H174.824V15.4043C174.557 15.528 174.274 15.6387 173.975 15.7363C173.682 15.834 173.379 15.9154 173.066 15.9805C172.76 16.0456 172.454 16.0944 172.148 16.127C171.842 16.1595 171.546 16.1758 171.26 16.1758C170.387 16.1758 169.6 16.0391 168.896 15.7656C168.2 15.4922 167.604 15.0885 167.109 14.5547C166.621 14.0143 166.243 13.3438 165.977 12.543C165.716 11.7422 165.586 10.8145 165.586 9.75977C165.586 8.71159 165.732 7.77409 166.025 6.94727C166.318 6.11393 166.729 5.41081 167.256 4.83789C167.79 4.25846 168.428 3.81901 169.17 3.51953C169.919 3.21354 170.742 3.06055 171.641 3.06055C172.214 3.06055 172.757 3.11263 173.271 3.2168C173.792 3.31445 174.29 3.47396 174.766 3.69531V5.42383ZM185.762 5.42383C185.286 5.16992 184.798 4.97461 184.297 4.83789C183.796 4.69466 183.249 4.62305 182.656 4.62305C181.979 4.62305 181.377 4.74349 180.85 4.98438C180.322 5.22526 179.876 5.56706 179.512 6.00977C179.154 6.44596 178.877 6.97331 178.682 7.5918C178.493 8.21029 178.398 8.89388 178.398 9.64258C178.398 10.4238 178.477 11.1237 178.633 11.7422C178.789 12.3607 179.033 12.8848 179.365 13.3145C179.697 13.7441 180.12 14.0729 180.635 14.3008C181.156 14.5286 181.777 14.6426 182.5 14.6426C182.624 14.6426 182.757 14.6361 182.9 14.623C183.044 14.61 183.187 14.5938 183.33 14.5742C183.473 14.5482 183.61 14.5189 183.74 14.4863C183.877 14.4538 183.997 14.418 184.102 14.3789V10.3164H181.494V8.88086H185.82V15.4043C185.553 15.528 185.27 15.6387 184.971 15.7363C184.678 15.834 184.375 15.9154 184.062 15.9805C183.757 16.0456 183.451 16.0944 183.145 16.127C182.839 16.1595 182.542 16.1758 182.256 16.1758C181.383 16.1758 180.596 16.0391 179.893 15.7656C179.196 15.4922 178.6 15.0885 178.105 14.5547C177.617 14.0143 177.24 13.3438 176.973 12.543C176.712 11.7422 176.582 10.8145 176.582 9.75977C176.582 8.71159 176.729 7.77409 177.021 6.94727C177.314 6.11393 177.725 5.41081 178.252 4.83789C178.786 4.25846 179.424 3.81901 180.166 3.51953C180.915 3.21354 181.738 3.06055 182.637 3.06055C183.21 3.06055 183.753 3.11263 184.268 3.2168C184.788 3.31445 185.286 3.47396 185.762 3.69531V5.42383ZM197.09 4.7207H193.311V16H191.553V4.7207H187.773V3.23633H197.09V4.7207ZM208.086 4.7207H204.307V16H202.549V4.7207H198.77V3.23633H208.086V4.7207ZM9.92188 30.1426C9.92188 30.6634 9.82422 31.181 9.62891 31.6953C9.43359 32.2031 9.13086 32.6589 8.7207 33.0625C8.31055 33.4661 7.78646 33.7949 7.14844 34.0488C6.51042 34.2962 5.7487 34.4199 4.86328 34.4199H3.28125V39H1.54297V26.2363H5.13672C5.76823 26.2363 6.3737 26.3079 6.95312 26.4512C7.53255 26.5879 8.04036 26.8125 8.47656 27.125C8.91927 27.4375 9.27083 27.8411 9.53125 28.3359C9.79167 28.8307 9.92188 29.4329 9.92188 30.1426ZM8.11523 30.2207C8.11523 29.4004 7.84505 28.7721 7.30469 28.3359C6.77083 27.8997 6.02214 27.6816 5.05859 27.6816H3.28125V32.9355H4.90234C5.93099 32.9355 6.72201 32.7109 7.27539 32.2617C7.83529 31.8125 8.11523 31.1322 8.11523 30.2207ZM16.4941 29.0195C16.696 29.0195 16.888 29.0618 17.0703 29.1465C17.2526 29.2246 17.4121 29.332 17.5488 29.4688C17.6855 29.6055 17.793 29.765 17.8711 29.9473C17.9557 30.1296 17.998 30.3216 17.998 30.5234C17.998 30.7318 17.9557 30.9271 17.8711 31.1094C17.793 31.2852 17.6855 31.4414 17.5488 31.5781C17.4121 31.7148 17.2526 31.8223 17.0703 31.9004C16.888 31.9785 16.696 32.0176 16.4941 32.0176C16.2858 32.0176 16.0905 31.9785 15.9082 31.9004C15.7324 31.8223 15.5762 31.7148 15.4395 31.5781C15.3027 31.4414 15.1953 31.2852 15.1172 31.1094C15.0391 30.9271 15 30.7318 15 30.5234C15 30.3216 15.0391 30.1296 15.1172 29.9473C15.1953 29.765 15.3027 29.6055 15.4395 29.4688C15.5762 29.332 15.7324 29.2246 15.9082 29.1465C16.0905 29.0618 16.2858 29.0195 16.4941 29.0195ZM16.4941 36.1777C16.696 36.1777 16.888 36.2201 17.0703 36.3047C17.2526 36.3828 17.4121 36.4902 17.5488 36.627C17.6855 36.7637 17.793 36.9232 17.8711 37.1055C17.9557 37.2878 17.998 37.4798 17.998 37.6816C17.998 37.89 17.9557 38.0853 17.8711 38.2676C17.793 38.4434 17.6855 38.5996 17.5488 38.7363C17.4121 38.873 17.2526 38.9805 17.0703 39.0586C16.888 39.1367 16.696 39.1758 16.4941 39.1758C16.2858 39.1758 16.0905 39.1367 15.9082 39.0586C15.7324 38.9805 15.5762 38.873 15.4395 38.7363C15.3027 38.5996 15.1953 38.4434 15.1172 38.2676C15.0391 38.0853 15 37.89 15 37.6816C15 37.4798 15.0391 37.2878 15.1172 37.1055C15.1953 36.9232 15.3027 36.7637 15.4395 36.627C15.5762 36.4902 15.7324 36.3828 15.9082 36.3047C16.0905 36.2201 16.2858 36.1777 16.4941 36.1777ZM42.8125 28.4238C42.3372 28.1699 41.849 27.9746 41.3477 27.8379C40.8464 27.6947 40.2995 27.623 39.707 27.623C39.0299 27.623 38.4277 27.7435 37.9004 27.9844C37.373 28.2253 36.9271 28.5671 36.5625 29.0098C36.2044 29.446 35.9277 29.9733 35.7324 30.5918C35.5436 31.2103 35.4492 31.8939 35.4492 32.6426C35.4492 33.4238 35.5273 34.1237 35.6836 34.7422C35.8398 35.3607 36.084 35.8848 36.416 36.3145C36.748 36.7441 37.1712 37.0729 37.6855 37.3008C38.2064 37.5286 38.8281 37.6426 39.5508 37.6426C39.6745 37.6426 39.8079 37.6361 39.9512 37.623C40.0944 37.61 40.2376 37.5938 40.3809 37.5742C40.5241 37.5482 40.6608 37.5189 40.791 37.4863C40.9277 37.4538 41.0482 37.418 41.1523 37.3789V33.3164H38.5449V31.8809H42.8711V38.4043C42.6042 38.528 42.321 38.6387 42.0215 38.7363C41.7285 38.834 41.4258 38.9154 41.1133 38.9805C40.8073 39.0456 40.5013 39.0944 40.1953 39.127C39.8893 39.1595 39.5931 39.1758 39.3066 39.1758C38.4342 39.1758 37.6465 39.0391 36.9434 38.7656C36.2467 38.4922 35.651 38.0885 35.1562 37.5547C34.668 37.0143 34.2904 36.3438 34.0234 35.543C33.763 34.7422 33.6328 33.8145 33.6328 32.7598C33.6328 31.7116 33.7793 30.7741 34.0723 29.9473C34.3652 29.1139 34.7754 28.4108 35.3027 27.8379C35.8366 27.2585 36.4746 26.819 37.2168 26.5195C37.9655 26.2135 38.7891 26.0605 39.6875 26.0605C40.2604 26.0605 40.804 26.1126 41.3184 26.2168C41.8392 26.3145 42.3372 26.474 42.8125 26.6953V28.4238ZM53.7012 38.5215C52.679 38.9447 51.6081 39.1562 50.4883 39.1562C48.6849 39.1562 47.2982 38.6191 46.3281 37.5449C45.3646 36.4642 44.8828 34.8691 44.8828 32.7598C44.8828 31.7376 45.0163 30.8132 45.2832 29.9863C45.5501 29.1595 45.931 28.4596 46.4258 27.8867C46.9206 27.3073 47.5195 26.8613 48.2227 26.5488C48.9258 26.2363 49.7135 26.0801 50.5859 26.0801C51.1784 26.0801 51.7285 26.1322 52.2363 26.2363C52.7441 26.334 53.2324 26.487 53.7012 26.6953V28.4043C53.2389 28.1504 52.7604 27.9583 52.2656 27.8281C51.7708 27.6914 51.2305 27.623 50.6445 27.623C50.0456 27.623 49.502 27.737 49.0137 27.9648C48.5319 28.1862 48.1217 28.5117 47.7832 28.9414C47.4447 29.3646 47.1842 29.8854 47.002 30.5039C46.8197 31.1159 46.7285 31.8158 46.7285 32.6035C46.7285 34.2572 47.0638 35.5039 47.7344 36.3438C48.4049 37.1836 49.388 37.6035 50.6836 37.6035C51.2305 37.6035 51.7546 37.5417 52.2559 37.418C52.7572 37.2878 53.2389 37.1087 53.7012 36.8809V38.5215ZM64.8047 28.4238C64.3294 28.1699 63.8411 27.9746 63.3398 27.8379C62.8385 27.6947 62.2917 27.623 61.6992 27.623C61.0221 27.623 60.4199 27.7435 59.8926 27.9844C59.3652 28.2253 58.9193 28.5671 58.5547 29.0098C58.1966 29.446 57.9199 29.9733 57.7246 30.5918C57.5358 31.2103 57.4414 31.8939 57.4414 32.6426C57.4414 33.4238 57.5195 34.1237 57.6758 34.7422C57.832 35.3607 58.0762 35.8848 58.4082 36.3145C58.7402 36.7441 59.1634 37.0729 59.6777 37.3008C60.1986 37.5286 60.8203 37.6426 61.543 37.6426C61.6667 37.6426 61.8001 37.6361 61.9434 37.623C62.0866 37.61 62.2298 37.5938 62.373 37.5742C62.5163 37.5482 62.653 37.5189 62.7832 37.4863C62.9199 37.4538 63.0404 37.418 63.1445 37.3789V33.3164H60.5371V31.8809H64.8633V38.4043C64.5964 38.528 64.3132 38.6387 64.0137 38.7363C63.7207 38.834 63.418 38.9154 63.1055 38.9805C62.7995 39.0456 62.4935 39.0944 62.1875 39.127C61.8815 39.1595 61.5853 39.1758 61.2988 39.1758C60.4264 39.1758 59.6387 39.0391 58.9355 38.7656C58.2389 38.4922 57.6432 38.0885 57.1484 37.5547C56.6602 37.0143 56.2826 36.3438 56.0156 35.543C55.7552 34.7422 55.625 33.8145 55.625 32.7598C55.625 31.7116 55.7715 30.7741 56.0645 29.9473C56.3574 29.1139 56.7676 28.4108 57.2949 27.8379C57.8288 27.2585 58.4668 26.819 59.209 26.5195C59.9577 26.2135 60.7812 26.0605 61.6797 26.0605C62.2526 26.0605 62.7962 26.1126 63.3105 26.2168C63.8314 26.3145 64.3294 26.474 64.8047 26.6953V28.4238ZM76.1328 27.7207H72.3535V39H70.5957V27.7207H66.8164V26.2363H76.1328V27.7207ZM87.8711 39H85.9766L85.0879 36.2168H79.7754L78.877 39H77.0703L81.3086 26.2363H83.6914L87.8711 39ZM84.5898 34.6641L82.4316 27.8379L80.2734 34.6641H84.5898ZM98.125 27.7207H94.3457V39H92.5879V27.7207H88.8086V26.2363H98.125V27.7207ZM108.789 28.4238C108.314 28.1699 107.826 27.9746 107.324 27.8379C106.823 27.6947 106.276 27.623 105.684 27.623C105.007 27.623 104.404 27.7435 103.877 27.9844C103.35 28.2253 102.904 28.5671 102.539 29.0098C102.181 29.446 101.904 29.9733 101.709 30.5918C101.52 31.2103 101.426 31.8939 101.426 32.6426C101.426 33.4238 101.504 34.1237 101.66 34.7422C101.816 35.3607 102.061 35.8848 102.393 36.3145C102.725 36.7441 103.148 37.0729 103.662 37.3008C104.183 37.5286 104.805 37.6426 105.527 37.6426C105.651 37.6426 105.785 37.6361 105.928 37.623C106.071 37.61 106.214 37.5938 106.357 37.5742C106.501 37.5482 106.637 37.5189 106.768 37.4863C106.904 37.4538 107.025 37.418 107.129 37.3789V33.3164H104.521V31.8809H108.848V38.4043C108.581 38.528 108.298 38.6387 107.998 38.7363C107.705 38.834 107.402 38.9154 107.09 38.9805C106.784 39.0456 106.478 39.0944 106.172 39.127C105.866 39.1595 105.57 39.1758 105.283 39.1758C104.411 39.1758 103.623 39.0391 102.92 38.7656C102.223 38.4922 101.628 38.0885 101.133 37.5547C100.645 37.0143 100.267 36.3438 100 35.543C99.7396 34.7422 99.6094 33.8145 99.6094 32.7598C99.6094 31.7116 99.7559 30.7741 100.049 29.9473C100.342 29.1139 100.752 28.4108 101.279 27.8379C101.813 27.2585 102.451 26.819 103.193 26.5195C103.942 26.2135 104.766 26.0605 105.664 26.0605C106.237 26.0605 106.781 26.1126 107.295 26.2168C107.816 26.3145 108.314 26.474 108.789 26.6953V28.4238ZM119.678 38.5215C118.656 38.9447 117.585 39.1562 116.465 39.1562C114.661 39.1562 113.275 38.6191 112.305 37.5449C111.341 36.4642 110.859 34.8691 110.859 32.7598C110.859 31.7376 110.993 30.8132 111.26 29.9863C111.527 29.1595 111.908 28.4596 112.402 27.8867C112.897 27.3073 113.496 26.8613 114.199 26.5488C114.902 26.2363 115.69 26.0801 116.562 26.0801C117.155 26.0801 117.705 26.1322 118.213 26.2363C118.721 26.334 119.209 26.487 119.678 26.6953V28.4043C119.215 28.1504 118.737 27.9583 118.242 27.8281C117.747 27.6914 117.207 27.623 116.621 27.623C116.022 27.623 115.479 27.737 114.99 27.9648C114.508 28.1862 114.098 28.5117 113.76 28.9414C113.421 29.3646 113.161 29.8854 112.979 30.5039C112.796 31.1159 112.705 31.8158 112.705 32.6035C112.705 34.2572 113.04 35.5039 113.711 36.3438C114.382 37.1836 115.365 37.6035 116.66 37.6035C117.207 37.6035 117.731 37.5417 118.232 37.418C118.734 37.2878 119.215 37.1087 119.678 36.8809V38.5215Z" fill="#C9D1D9"/>
<defs>
<filter id="filter0_d" x="59" y="117" width="518" height="278" filterUnits="userSpaceOnUse" color-interpolation-filters="sRGB">
<feFlood flood-opacity="0" result="BackgroundImageFix"/>
<feColorMatrix in="SourceAlpha" type="matrix" values="0 0 0 0 0 0 0 0 0 0 0 0 0 0 0 0 0 0 127 0"/>
<feOffset dy="4"/>
<feGaussianBlur stdDeviation="2"/>
<feColorMatrix type="matrix" values="0 0 0 0 0 0 0 0 0 0 0 0 0 0 0 0 0 0 0.25 0"/>
<feBlend mode="normal" in2="BackgroundImageFix" result="effect1_dropShadow"/>
<feBlend mode="normal" in="SourceGraphic" in2="effect1_dropShadow" result="shape"/>
</filter>
</defs>
</svg>
