<svg width="875" height="71" viewBox="0 0 875 71" fill="none" xmlns="http://www.w3.org/2000/svg">
<g filter="url(#filter0_d)">
<line x1="670.167" y1="18.984" x2="670.35" y2="32.3784" stroke="#62F2A6" stroke-width="5"/>
<line x1="660.241" y1="12.5089" x2="660.526" y2="33.4376" stroke="#E8A62E" stroke-width="5"/>
<line x1="650.34" y1="7.92835" x2="650.682" y2="33.0428" stroke="#C6344A" stroke-width="5"/>
<line x1="629.899" y1="16.8518" x2="630.23" y2="32.7557" stroke="#EFE123" stroke-width="5"/>
<line x1="640.538" y1="10.5739" x2="640.846" y2="33.1769" stroke="#62F2A6" stroke-width="5"/>
<line y1="-2.5" x2="13.5719" y2="-2.5" transform="matrix(-0.0136212 -0.999907 -0.999907 0.0136212 600.856 45.5469)" stroke="#E8A62F" stroke-width="5"/>
<line y1="-2.5" x2="20.9747" y2="-2.5" transform="matrix(-0.0136212 -0.999907 -0.999907 0.0136212 591.121 53.083)" stroke="#C6344A" stroke-width="5"/>
<line y1="-2.5" x2="23.4423" y2="-2.5" transform="matrix(-0.0136212 -0.999907 -0.999907 0.0136212 581.318 55.6846)" stroke="#EFE123" stroke-width="5"/>
<line x1="563.043" y1="46.4957" x2="563.173" y2="32.2635" stroke="#62F2A6" stroke-width="5"/>
<line y1="-2.5" x2="23.4423" y2="-2.5" transform="matrix(-0.0136212 -0.999907 -0.999907 0.0136212 571.481 55.8184)" stroke="#E8A62E" stroke-width="5"/>
<line y1="-2.5" x2="12.5584" y2="-2.5" transform="matrix(-0.0136212 -0.999907 -0.999907 0.0136212 667.899 44.9282)" stroke="#EFE123" stroke-width="5"/>
<line y1="-2.5" x2="18.7274" y2="-2.5" transform="matrix(-0.0136212 -0.999907 -0.999907 0.0136212 658.153 51.6714)" stroke="#C6344A" stroke-width="5"/>
<line y1="-2.5" x2="20.9307" y2="-2.5" transform="matrix(-0.0136212 -0.999907 -0.999907 0.0136212 648.346 54.0083)" stroke="#E8A62F" stroke-width="5"/>
<line x1="630.188" y1="46.2124" x2="630.188" y2="32.8168" stroke="#62F2A6" stroke-width="5"/>
<line y1="-2.5" x2="21.7679" y2="-2.5" transform="matrix(-0.0136212 -0.999907 -0.999907 0.0136212 638.51 54.1421)" stroke="#EFE123" stroke-width="5"/>
<line x1="603.178" y1="19.839" x2="603.343" y2="31.9556" stroke="#C6344A" stroke-width="5"/>
<line x1="593.251" y1="13.3639" x2="593.507" y2="32.0896" stroke="#E8A62E" stroke-width="5"/>
<line x1="583.362" y1="9.60315" x2="583.67" y2="32.241" stroke="#62F2A6" stroke-width="5"/>
<line x1="562.899" y1="20.1902" x2="563.207" y2="32.4627" stroke="#EFE123" stroke-width="5"/>
<line x1="573.4" y1="11.4288" x2="573.685" y2="32.3576" stroke="#C6344A" stroke-width="5"/>
<line y1="-2.5" x2="15.026" y2="-2.5" transform="matrix(-0.0136212 -0.999907 -0.999907 0.0136212 534.013 44.4854)" stroke="#E8A62F" stroke-width="5"/>
<line y1="-2.5" x2="23.222" y2="-2.5" transform="matrix(-0.0136212 -0.999907 -0.999907 0.0136212 524.288 52.8149)" stroke="#E8A62F" stroke-width="5"/>
<line y1="-2.5" x2="25.954" y2="-2.5" transform="matrix(-0.0136212 -0.999907 -0.999907 0.0136212 514.489 55.6807)" stroke="#EFE123" stroke-width="5"/>
<line x1="496.065" y1="48.7246" x2="496.065" y2="31.9801" stroke="#E8A62F" stroke-width="5"/>
<line y1="-2.5" x2="25.954" y2="-2.5" transform="matrix(-0.0136212 -0.999907 -0.999907 0.0136212 504.652 55.8145)" stroke="#C63449" stroke-width="5"/>
<line x1="536.177" y1="19.8214" x2="536.342" y2="31.938" stroke="#C6344A" stroke-width="5"/>
<line x1="526.25" y1="13.3463" x2="526.505" y2="32.072" stroke="#C6344A" stroke-width="5"/>
<path d="M516.7 6.86328L516.7 32.2119" stroke="#62F2A6" stroke-width="5"/>
<line x1="495.9" y1="13.2199" x2="496.162" y2="32.4743" stroke="#C6344A" stroke-width="5"/>
<line x1="506.547" y1="11.4113" x2="506.832" y2="32.34" stroke="#E8A62E" stroke-width="5"/>
<line y1="-2.5" x2="15.026" y2="-2.5" transform="matrix(-0.0136212 -0.999907 -0.999907 0.0136212 803.6 44.4834)" stroke="#E8A62F" stroke-width="5"/>
<line y1="-2.5" x2="23.222" y2="-2.5" transform="matrix(-0.0136212 -0.999907 -0.999907 0.0136212 793.875 52.8125)" stroke="#E8A62F" stroke-width="5"/>
<line y1="-2.5" x2="25.954" y2="-2.5" transform="matrix(-0.0136212 -0.999907 -0.999907 0.0136212 784.075 55.6782)" stroke="#EFE123" stroke-width="5"/>
<line y1="-2.5" x2="19.2562" y2="-2.5" transform="matrix(-0.0136212 -0.999907 -0.999907 0.0136212 764.345 51.7603)" stroke="#E8A62F" stroke-width="5"/>
<line y1="-2.5" x2="25.954" y2="-2.5" transform="matrix(-0.0136212 -0.999907 -0.999907 0.0136212 774.239 55.812)" stroke="#C63449" stroke-width="5"/>
<line x1="805.764" y1="19.8195" x2="805.929" y2="31.9361" stroke="#C6344A" stroke-width="5"/>
<line x1="795.837" y1="13.3444" x2="796.092" y2="32.0701" stroke="#C6344A" stroke-width="5"/>
<line x1="785.971" y1="11.2755" x2="786.256" y2="32.2042" stroke="#62F2A6" stroke-width="5"/>
<line x1="766.321" y1="13.2179" x2="766.583" y2="32.4723" stroke="#C6344A" stroke-width="5"/>
<line x1="776.134" y1="11.4093" x2="776.419" y2="32.338" stroke="#E8A62E" stroke-width="5"/>
<line y1="-2.5" x2="13.5719" y2="-2.5" transform="matrix(-0.0136212 -0.999907 -0.999907 0.0136212 466.246 43.8682)" stroke="#EFE122" stroke-width="5"/>
<line y1="-2.5" x2="20.9747" y2="-2.5" transform="matrix(-0.0136212 -0.999907 -0.999907 0.0136212 456.51 51.4043)" stroke="#62F2A6" stroke-width="5"/>
<line y1="-2.5" x2="23.4423" y2="-2.5" transform="matrix(-0.0136212 -0.999907 -0.999907 0.0136212 446.707 54.0059)" stroke="#62F2A6" stroke-width="5"/>
<line x1="428.64" y1="48.391" x2="428.424" y2="32.4852" stroke="#E8A62F" stroke-width="5"/>
<line y1="-2.5" x2="23.4423" y2="-2.5" transform="matrix(-0.0136212 -0.999907 -0.999907 0.0136212 436.871 54.1396)" stroke="#EFE123" stroke-width="5"/>
<line x1="468.419" y1="19.8214" x2="468.584" y2="31.938" stroke="#62F2A6" stroke-width="5"/>
<path d="M458.8 9.79346L458.8 32.0774" stroke="#EFE123" stroke-width="5"/>
<line x1="448.568" y1="7.09144" x2="448.911" y2="32.2373" stroke="#EFE123" stroke-width="5"/>
<line x1="428.099" y1="16.8553" x2="428.441" y2="32.4528" stroke="#C6344A" stroke-width="5"/>
<line x1="438.789" y1="11.4113" x2="439.074" y2="32.34" stroke="#62F2A6" stroke-width="5"/>
<line y1="-2.5" x2="13.5719" y2="-2.5" transform="matrix(-0.0136212 -0.999907 -0.999907 0.0136212 737.507 43.8662)" stroke="#EFE122" stroke-width="5"/>
<line y1="-2.5" x2="20.9747" y2="-2.5" transform="matrix(-0.0136212 -0.999907 -0.999907 0.0136212 727.771 51.4023)" stroke="#62F2A6" stroke-width="5"/>
<line y1="-2.5" x2="23.4423" y2="-2.5" transform="matrix(-0.0136212 -0.999907 -0.999907 0.0136212 717.969 54.0039)" stroke="#62F2A6" stroke-width="5"/>
<line x1="700.5" y1="48.389" x2="700.284" y2="32.4832" stroke="#E8A62F" stroke-width="5"/>
<line y1="-2.5" x2="23.4423" y2="-2.5" transform="matrix(-0.0136212 -0.999907 -0.999907 0.0136212 708.132 54.1377)" stroke="#EFE123" stroke-width="5"/>
<line x1="739.68" y1="19.8195" x2="739.845" y2="31.9361" stroke="#62F2A6" stroke-width="5"/>
<line x1="729.753" y1="13.3444" x2="730.008" y2="32.0701" stroke="#EFE123" stroke-width="5"/>
<line x1="719.83" y1="7.08948" x2="720.172" y2="32.2353" stroke="#EFE123" stroke-width="5"/>
<line x1="700.237" y1="13.2174" x2="700.499" y2="32.4718" stroke="#C6344A" stroke-width="5"/>
<line x1="710.05" y1="11.4093" x2="710.335" y2="32.338" stroke="#62F2A6" stroke-width="5"/>
<path d="M413 28.7561L416.992 33.4786L417.636 34.23L418.279 34.9793L418.922 35.7259L419.565 36.4692L420.209 37.2084L420.852 37.9429L421.495 38.672L422.139 39.3951L422.782 40.1115L423.425 40.8206L424.069 41.5217L424.712 42.2142L425.355 42.8975L425.998 43.571L426.642 44.234L427.285 44.886L427.928 45.5264L428.572 46.1546L429.215 46.77L429.858 47.3722L430.502 47.9604L431.145 48.5343L431.788 49.0932L432.431 49.6368L433.075 50.1644L433.718 50.6757L434.361 51.1702L435.005 51.6473L435.648 52.1068L436.291 52.5481L436.935 52.971L437.578 53.3749L438.221 53.7596L438.864 54.1246L439.508 54.4698L440.151 54.7946L440.794 55.099L441.438 55.3825L442.081 55.645L442.724 55.8862L443.368 56.1058L444.011 56.3037L444.654 56.4798L445.297 56.6337L445.941 56.7655L446.584 56.875L447.227 56.962L447.871 57.0266L448.514 57.0686L449.157 57.088L449.801 57.0849L450.444 57.0591L451.087 57.0108L451.73 56.9399L452.374 56.8465L453.017 56.7308L453.66 56.5928L454.304 56.4326L454.947 56.2505L455.59 56.0464L456.234 55.8207L456.877 55.5736L457.52 55.3052L458.163 55.0158L458.807 54.7057L459.45 54.3751L460.093 54.0243L460.737 53.6537L461.38 53.2636L462.023 52.8544L462.667 52.4263L463.31 51.9798L463.953 51.5154L464.596 51.0333L465.24 50.5341L465.883 50.0182L466.526 49.486L467.17 48.9381L467.813 48.3749L468.456 47.797L469.1 47.2048L469.743 46.5989L470.386 45.9798L471.029 45.3482L471.673 44.7045L472.316 44.0493L472.959 43.3833L473.603 42.707L474.246 42.021L474.889 41.326L475.533 40.6226L476.176 39.9114L476.819 39.1931L477.462 38.4682L478.106 37.7375L478.749 37.0017L479.392 36.2613L480.036 35.517L480.679 34.7695L481.322 34.0196L481.966 33.2678L482.609 32.5148L483.252 31.7613L483.895 31.008L484.539 30.2556L485.182 29.5048L485.825 28.7561L486.469 28.0104L487.112 27.2682L487.755 26.5302L488.399 25.7972L489.042 25.0697L489.685 24.3484L490.328 23.634L490.972 22.9271L491.615 22.2283L492.258 21.5383L492.902 20.8577L493.545 20.1871L494.188 19.5271L494.832 18.8782L495.475 18.2412L496.118 17.6166L496.761 17.0048L497.405 16.4065L498.048 15.8223L498.691 15.2525L499.335 14.6978L499.978 14.1587L500.621 13.6356L501.265 13.129L501.908 12.6393L502.551 12.1671L503.194 11.7126L503.838 11.2764L504.481 10.8589L505.124 10.4603L505.768 10.0811L506.411 9.72157L507.054 9.38208L507.698 9.06292L508.341 8.76438L508.984 8.48673L509.627 8.23022L510.271 7.99506L510.914 7.78149L511.557 7.58968L512.201 7.41982L512.844 7.27206L513.487 7.14652L514.131 7.04332L514.774 6.96256L515.417 6.90431L516.06 6.86862L516.704 6.85551L517.347 6.86502L517.99 6.89711L518.634 6.95178L519.277 7.02896L519.92 7.12859L520.564 7.25057L521.207 7.3948L521.85 7.56116L522.493 7.74948L523.137 7.95959L523.78 8.19132L524.423 8.44445L525.067 8.71876L525.71 9.01399L526.353 9.32988L526.997 9.66615L527.64 10.0225L528.283 10.3986L528.926 10.7941L529.57 11.2087L530.213 11.6419L530.856 12.0935L531.5 12.5629L532.143 13.0498L532.786 13.5538L533.43 14.0743L534.073 14.6109L534.716 15.1632L535.359 15.7305L536.003 16.3125L536.646 16.9086L537.289 17.5182L537.933 18.1409L538.576 18.776L539.219 19.423L539.863 20.0812L540.506 20.7502L541.149 21.4292L541.792 22.1178L542.436 22.8152L543.079 23.5209L543.722 24.2342L544.366 24.9544L545.009 25.6809L545.652 26.4131L546.296 27.1504L546.939 27.8919L547.582 28.6371L548.225 29.3854L548.869 30.1359L549.512 30.8881L550.155 31.6413L550.799 32.3948L551.442 33.1479L552.085 33.8999L552.729 34.6502L553.372 35.3981L554.015 36.143L554.658 36.884L555.302 37.6207L555.945 38.3522L556.588 39.078L557.232 39.7975L557.875 40.5099L558.518 41.2145L559.162 41.9109L559.805 42.5984L560.448 43.2762L561.091 43.944L561.735 44.6009L562.378 45.2464L563.021 45.8801L563.665 46.5012L564.308 47.1092L564.951 47.7036L565.595 48.2839L566.238 48.8494L566.881 49.3998L567.524 49.9345L568.168 50.453L568.811 50.9549L569.454 51.4398L570.098 51.9071L570.741 52.3564L571.384 52.7874L572.028 53.1997L572.671 53.5929L573.314 53.9666L573.957 54.3206L574.601 54.6544L575.244 54.9678L575.887 55.2605L576.531 55.5323L577.174 55.7828L577.817 56.0119L578.461 56.2194L579.104 56.4051L579.747 56.5688L580.39 56.7103L581.034 56.8296L581.677 56.9265L582.32 57.001L582.964 57.0529L583.607 57.0823L584.25 57.089L584.894 57.0732L585.537 57.0348L586.18 56.9738L586.823 56.8903L587.467 56.7844L588.11 56.6562L588.753 56.5058L589.397 56.3332L590.04 56.1388L590.683 55.9226L591.327 55.6848L591.97 55.4258L592.613 55.1456L593.256 54.8445L593.9 54.5229L594.543 54.1809L595.186 53.819L595.83 53.4375L596.473 53.0366L597.116 52.6167L597.76 52.1783L598.403 51.7217L599.046 51.2473L599.689 50.7556L600.333 50.247L600.976 49.7219L601.619 49.1808L602.263 48.6243L602.906 48.0528L603.549 47.4668L604.193 46.8668L604.836 46.2535L605.479 45.6273L606.122 44.9888L606.766 44.3386L607.409 43.6773L608.052 43.0055L608.696 42.3237L609.339 41.6326L609.982 40.9328L610.626 40.2249L611.269 39.5096L611.912 38.7876L612.555 38.0594L613.199 37.3257L613.842 36.5872L614.485 35.8445L615.129 35.0984L615.772 34.3495L616.415 33.5984L617.059 32.8458L617.702 32.0925L618.345 31.339L618.988 30.5862L619.632 29.8345L620.275 29.0848L620.918 28.3377L621.562 27.5939L622.205 26.854L622.848 26.1187L623.492 25.3887L624.135 24.6646L624.778 23.9471L625.421 23.2368L626.065 22.5344L626.708 21.8404L627.351 21.1556L627.995 20.4805L628.638 19.8158L629.281 19.162L629.925 18.5197L630.568 17.8895L631.211 17.272L631.854 16.6678L632.498 16.0773L633.141 15.5011L633.784 14.9397L634.428 14.3937L635.071 13.8635L635.714 13.3496L636.358 12.8524L637.001 12.3725L637.644 11.9101L638.287 11.4659L638.931 11.0401L639.574 10.6331L640.217 10.2453L640.861 9.87713L641.504 9.5288L642.147 9.20068L642.791 8.89304L643.434 8.60618L644.077 8.34034L644.72 8.09576L645.364 7.87269L646.007 7.67129L646.65 7.49177L647.294 7.33427L647.937 7.19895L648.58 7.08593L649.224 6.99529L649.867 6.92714L650.51 6.88152L651.153 6.85849L651.797 6.85806L652.44 6.88023L653.083 6.92498L653.727 6.99227L654.37 7.08204L655.013 7.19421L655.657 7.32868L656.3 7.48533L656.943 7.66402L657.586 7.86457L658.23 8.08683L658.873 8.33058L659.516 8.59561L660.16 8.88168L660.803 9.18852L661.446 9.51587L662.09 9.86343L662.733 10.2309L663.376 10.6179L664.02 11.0241L664.663 11.4492L665.306 11.8928L665.949 12.3544L666.593 12.8337L667.236 13.3302L667.879 13.8435L668.523 14.3731L669.166 14.9186L669.809 15.4793L670.452 16.055L671.096 16.6449L671.739 17.2487L672.382 17.8657L673.026 18.4954L673.669 19.1372L674.312 19.7906L674.956 20.4549L675.599 21.1296L676.242 21.814L676.885 22.5077L677.529 23.2098L678.172 23.9198L678.815 24.637L679.459 25.3609L680.102 26.0907L680.745 26.8258L681.389 27.5655L682.032 28.3092L682.675 29.0562L683.318 29.8058L683.962 30.5574L684.605 31.3102L685.248 32.0636L685.892 32.817L686.535 33.5696L687.178 34.3207L687.822 35.0698L688.465 35.816L689.108 36.5588L689.751 37.2975L690.395 38.0314L691.038 38.7598L691.681 39.4821L692.325 40.1977L692.968 40.9058L693.611 41.6059L694.255 42.2974L694.898 42.9795L695.541 43.6518L696.184 44.3135L696.828 44.9641L697.471 45.6031L698.114 46.2298L698.758 46.8436L699.401 47.4441L700.044 48.0306L700.688 48.6027L701.331 49.1598L701.974 49.7015L702.617 50.2272L703.261 50.7364L703.904 51.2288L704.547 51.7039L705.191 52.1612L705.834 52.6003L706.477 53.0208L707.121 53.4225L707.764 53.8048L708.407 54.1675L709.05 54.5102L709.694 54.8326L710.337 55.1344L710.98 55.4154L711.624 55.6753L712.267 55.9139L712.91 56.1309L713.554 56.3262L714.197 56.4996L714.84 56.6508L715.483 56.7799L716.127 56.8867L716.77 56.971L717.413 57.0329L718.057 57.0722L718.7 57.0889L719.343 57.083L719.987 57.0545L720.63 57.0034L721.273 56.9298L721.917 56.8337L722.56 56.7153L723.203 56.5746L723.846 56.4118L724.49 56.2269L725.133 56.0203L725.776 55.792L726.42 55.5422L727.063 55.2713L727.706 54.9794L728.349 54.6668L728.993 54.3337L729.636 53.9805L730.279 53.6076L730.923 53.2151L731.566 52.8036L732.209 52.3733L732.853 51.9246L733.496 51.458L734.139 50.9738L734.782 50.4726L735.426 49.9547L736.069 49.4206L736.712 48.8708L737.356 48.3058L737.999 47.7261L738.642 47.1322L739.286 46.5247L739.929 45.9041L740.572 45.2709L741.216 44.6258L741.859 43.9693L742.502 43.302L743.145 42.6245L743.789 41.9374L744.432 41.2414L745.075 40.537L745.719 39.8249L746.362 39.1057L747.005 38.3801L747.648 37.6488L748.292 36.9123L748.935 36.1714L749.578 35.4267L750.222 34.6789L750.865 33.9287L751.508 33.1767L752.152 32.4236L752.795 31.6702L753.438 30.9169L754.082 30.1647L754.725 29.4141L755.368 28.6657L756.011 27.9204L756.655 27.1787L757.298 26.4413L757.941 25.7089L758.585 24.9821L759.228 24.2616L759.871 23.5481L760.515 22.8421L761.158 22.1443L761.801 21.4554L762.444 20.776L763.088 20.1066L763.731 19.448L764.374 18.8005L765.018 18.165L765.661 17.5418L766.304 16.9317L766.947 16.3351L767.591 15.7525L768.234 15.1846L768.877 14.6318L769.521 14.0945L770.164 13.5734L770.807 13.0688L771.451 12.5813L772.094 12.1111L772.737 11.6589L773.38 11.2249L774.024 10.8096L774.667 10.4134L775.31 10.0365L775.954 9.67943L776.597 9.34238L777.24 9.02571L777.884 8.72968L778.527 8.45457L779.17 8.20062L779.814 7.96807L780.457 7.75712L781.1 7.56796L781.743 7.40077L782.387 7.25568L783.03 7.13284L783.673 7.03236L784.317 6.95432L784.96 6.89879L785.603 6.86583L786.247 6.85547L786.89 6.8677L787.533 6.90253L788.176 6.95992L788.82 7.03982L789.463 7.14216L790.106 7.26684L790.75 7.41376L791.393 7.58277L792.036 7.77374L792.679 7.98648L793.323 8.22082L793.966 8.47652L794.609 8.75337L795.253 9.05112L795.896 9.36949L796.539 9.7082L797.183 10.067L797.826 10.4454L798.469 10.8433L799.112 11.2601L799.756 11.6956L800.399 12.1493L801.042 12.6209L801.686 13.1099L802.329 13.6159L802.972 14.1384L803.616 14.6769L804.259 15.231L804.902 15.8002L805.545 16.3839L806.189 16.9816L806.832 17.5929L807.475 18.2171L808.119 18.8536L808.762 19.502L809.405 20.1616L810.049 20.8318L810.692 21.5121L811.335 22.2017L811.978 22.9002L812.622 23.6068L813.265 24.3209L813.908 25.042L814.552 25.7692L815.195 26.5021L815.838 27.2399L816.482 27.9819L817.125 28.7275L817.768 29.4761L818.411 30.2268L819.055 30.9792" stroke="#79CCDB" stroke-width="10"/>
<g filter="url(#filter1_d)">
<path d="M418.023 29.1748L419.565 27.4752L420.209 26.736L420.852 26.0015L421.495 25.2724L422.139 24.5493L422.782 23.8329L423.425 23.1238L424.069 22.4227L424.712 21.7301L425.355 21.0468L425.998 20.3733L426.642 19.7103L427.285 19.0583L427.928 18.4179L428.572 17.7897L429.215 17.1743L429.858 16.5722L430.502 15.9839L431.145 15.4101L431.788 14.8511L432.431 14.3076L433.075 13.7799L433.718 13.2686L434.361 12.7742L435.005 12.297L435.648 11.8375L436.291 11.3962L436.935 10.9734L437.578 10.5694L438.221 10.1848L438.864 9.81969L439.508 9.47457L440.151 9.14969L440.794 8.84534L441.438 8.56181L442.081 8.29934L442.724 8.05818L443.368 7.83854L444.011 7.64061L444.654 7.46458L445.297 7.31061L445.941 7.17884L446.584 7.06937L447.227 6.98231L447.871 6.91775L448.514 6.87573L449.157 6.85629L449.801 6.85946L450.444 6.88523L451.087 6.93357L451.73 7.00445L452.374 7.09779L453.017 7.21352L453.66 7.35153L454.304 7.5117L454.947 7.69388L455.59 7.89791L456.234 8.1236L456.877 8.37075L457.52 8.63915L458.163 8.92854L458.807 9.23867L459.45 9.56926L460.093 9.92001L460.737 10.2906L461.38 10.6807L462.023 11.09L462.667 11.518L463.31 11.9645L463.953 12.429L464.596 12.911L465.24 13.4102L465.883 13.9262L466.526 14.4583L467.17 15.0062L467.813 15.5694L468.456 16.1474L469.1 16.7395L469.743 17.3454L470.386 17.9645L471.029 18.5962L471.673 19.2399L472.316 19.895L472.959 20.5611L473.603 21.2373L474.246 21.9233L474.889 22.6183L475.533 23.3217L476.176 24.0329L476.819 24.7513L477.462 25.4761L478.106 26.2068L478.749 26.9427L479.392 27.6831L480.036 28.4273L480.679 29.1748L481.322 29.9248L481.966 30.6766L482.609 31.4296L483.252 32.183L483.895 32.9363L484.539 33.6887L485.182 34.4396L485.825 35.1882L486.469 35.934L487.112 36.6761L487.755 37.4141L488.399 38.1471L489.042 38.8746L489.685 39.5959L490.328 40.3103L490.972 41.0173L491.615 41.716L492.258 42.406L492.902 43.0867L493.545 43.7573L494.188 44.4173L494.832 45.0661L495.475 45.7031L496.118 46.3278L496.761 46.9395L497.405 47.5378L498.048 48.1221L498.691 48.6918L499.335 49.2465L499.978 49.7856L500.621 50.3088L501.265 50.8154L501.908 51.305L502.551 51.7773L503.194 52.2317L503.838 52.6679L504.481 53.0855L505.124 53.484L505.768 53.8633L506.411 54.2228L507.054 54.5623L507.698 54.8814L508.341 55.18L508.984 55.4576L509.627 55.7141L510.271 55.9493L510.914 56.1628L511.557 56.3547L512.201 56.5245L512.844 56.6723L513.487 56.7978L514.131 56.901L514.774 56.9818L515.417 57.04L516.06 57.0757L516.704 57.0888L517.347 57.0793L517.99 57.0472L518.634 56.9926L519.277 56.9154L519.92 56.8157L520.564 56.6938L521.207 56.5495L521.85 56.3832L522.493 56.1949L523.137 55.9847L523.78 55.753L524.423 55.4999L525.067 55.2256L525.71 54.9303L526.353 54.6145L526.997 54.2782L527.64 53.9218L528.283 53.5457L528.926 53.1502L529.57 52.7357L530.213 52.3024L530.856 51.8508L531.5 51.3814L532.143 50.8945L532.786 50.3906L533.43 49.87L534.073 49.3334L534.716 48.7812L535.359 48.2138L536.003 47.6318L536.646 47.0357L537.289 46.4261L537.933 45.8034L538.576 45.1683L539.219 44.5214L539.863 43.8631L540.506 43.1941L541.149 42.5151L541.792 41.8265L542.436 41.1291L543.079 40.4234L543.722 39.7102L544.366 38.9899L545.009 38.2634L545.652 37.5312L546.296 36.794L546.939 36.0524L547.582 35.3072L548.225 34.559L548.869 33.8084L549.512 33.0562L550.155 32.303L550.799 31.5495L551.442 30.7964L552.085 30.0444L552.729 29.2941L553.372 28.5462L554.015 27.8014L554.658 27.0603L555.302 26.3237L555.945 25.5921L556.588 24.8663L557.232 24.1469L557.875 23.4345L558.518 22.7298L559.162 22.0334L559.805 21.346L560.448 20.6681L561.091 20.0004L561.735 19.3435L562.378 18.6979L563.021 18.0643L563.665 17.4432L564.308 16.8351L564.951 16.2407L565.595 15.6605L566.238 15.0949L566.881 14.5445L567.524 14.0098L568.168 13.4913L568.811 12.9894L569.454 12.5046L570.098 12.0373L570.741 11.5879L571.384 11.1569L572.028 10.7446L572.671 10.3514L573.314 9.97771L573.957 9.62378L574.601 9.28996L575.244 8.97656L575.887 8.68384L576.531 8.41208L577.174 8.16153L577.817 7.9324L578.461 7.72492L579.104 7.53924L579.747 7.37556L580.39 7.23401L581.034 7.11473L581.677 7.01781L582.32 6.94335L582.964 6.89141L583.607 6.86206L584.25 6.85529L584.894 6.87112L585.537 6.90955L586.18 6.97052L586.823 7.054L587.467 7.1599L588.11 7.28814L588.753 7.43858L589.397 7.61111L590.04 7.80555L590.683 8.02175L591.327 8.2595L591.97 8.51859L592.613 8.79878L593.256 9.09983L593.9 9.42146L594.543 9.76339L595.186 10.1253L595.83 10.5069L596.473 10.9078L597.116 11.3276L597.76 11.766L598.403 12.2226L599.046 12.697L599.689 13.1887L600.333 13.6974L600.976 14.2225L601.619 14.7635L602.263 15.32L602.906 15.8916L603.549 16.4776L604.193 17.0775L604.836 17.6908L605.479 18.317L606.122 18.9555L606.766 19.6057L607.409 20.267L608.052 20.9389L608.696 21.6207L609.339 22.3118L609.982 23.0116L610.626 23.7194L611.269 24.4347L611.912 25.1568L612.555 25.885L613.199 26.6187L613.842 27.3572L614.485 28.0998L615.129 28.8459L615.772 29.5949L616.415 30.346L617.059 31.0985L617.702 31.8519L618.345 32.6053L618.988 33.3582L619.632 34.1098L620.275 34.8595L620.918 35.6066L621.562 36.3504L622.205 37.0903L622.848 37.8256L623.492 38.5556L624.135 39.2797L624.778 39.9972L625.421 40.7075L626.065 41.41L626.708 42.1039L627.351 42.7887L627.995 43.4638L628.638 44.1285L629.281 44.7824L629.925 45.4246L630.568 46.0548L631.211 46.6723L631.854 47.2766L632.498 47.867L633.141 48.4432L633.784 49.0046L634.428 49.5506L635.071 50.0808L635.714 50.5948L636.358 51.0919L637.001 51.5719L637.644 52.0342L638.288 52.4785L638.931 52.9043L639.574 53.3112L640.217 53.699L640.861 54.0672L641.504 54.4155L642.147 54.7437L642.791 55.0513L643.434 55.3382L644.077 55.604L644.72 55.8486L645.364 56.0716L646.007 56.273L646.65 56.4526L647.294 56.6101L647.937 56.7454L648.58 56.8584L649.224 56.949L649.867 57.0172L650.51 57.0628L651.153 57.0858L651.797 57.0863L652.44 57.0641L653.083 57.0194L653.727 56.9521L654.37 56.8623L655.013 56.7501L655.657 56.6157L656.3 56.459L656.943 56.2803L657.586 56.0798L658.23 55.8575L658.873 55.6138L659.516 55.3487L660.16 55.0627L660.803 54.7558L661.446 54.4285L662.09 54.0809L662.733 53.7135L663.376 53.3264L664.02 52.9202L664.663 52.4951L665.306 52.0515L665.949 51.5899L666.593 51.1106L667.236 50.6141L667.879 50.1008L668.523 49.5712L669.166 49.0258L669.809 48.465L670.453 47.8894L671.096 47.2994L671.739 46.6957L672.382 46.0787L673.026 45.449L673.669 44.8072L674.312 44.1538L674.956 43.4894L675.599 42.8147L676.242 42.1303L676.885 41.4367L677.529 40.7346L678.172 40.0246L678.815 39.3073L679.459 38.5835L680.102 37.8537L680.745 37.1186L681.389 36.3788L682.032 35.6351L682.675 34.8882L683.318 34.1385L683.962 33.387L684.605 32.6341L685.248 31.8807L685.892 31.1273L686.535 30.3748L687.178 29.6236L687.822 28.8746L688.465 28.1283L689.108 27.3855L689.752 26.6468L690.395 25.913L691.038 25.1845L691.681 24.4622L692.325 23.7467L692.968 23.0385L693.611 22.3384L694.255 21.647L694.898 20.9648L695.541 20.2926L696.184 19.6308L696.828 18.9802L697.471 18.3412L698.114 17.7146L698.758 17.1007L699.401 16.5003L700.044 15.9137L700.688 15.3416L701.331 14.7845L701.974 14.2429L702.618 13.7172L703.261 13.2079L703.904 12.7155L704.547 12.2405L705.191 11.7832L705.834 11.3441L706.477 10.9235L707.121 10.5219L707.764 10.1395L708.407 9.77688L709.051 9.43418L709.694 9.11177L710.337 8.80993L710.98 8.52893L711.624 8.26903L712.267 8.03045L712.91 7.81343L713.554 7.61815L714.197 7.44478L714.84 7.29349L715.484 7.1644L716.127 7.05764L716.77 6.9733L717.413 6.91146L718.057 6.87217L718.7 6.85547L719.343 6.86137L719.987 6.88988L720.63 6.94094L721.273 7.01455L721.917 7.1106L722.56 7.22903L723.203 7.36974L723.846 7.53257L724.49 7.71741L725.133 7.92406L725.776 8.15236L726.42 8.4021L727.063 8.67305L727.706 8.96497L728.35 9.27758L728.993 9.61063L729.636 9.96379L730.279 10.3368L730.923 10.7292L731.566 11.1408L732.209 11.5711L732.853 12.0197L733.496 12.4864L734.139 12.9705L734.783 13.4718L735.426 13.9897L736.069 14.5238L736.712 15.0736L737.356 15.6386L737.999 16.2183L738.642 16.8121L739.286 17.4196L739.929 18.0403L740.572 18.6734L741.216 19.3185L741.859 19.975L742.502 20.6423L743.145 21.3198L743.789 22.0069L744.432 22.703L745.075 23.4074L745.719 24.1195L746.362 24.8386L747.005 25.5642L747.649 26.2956L748.292 27.032L748.935 27.7729L749.578 28.5176L750.222 29.2654L750.865 30.0156L751.508 30.7676L752.152 31.5207L752.795 32.2742L753.438 33.0274L754.082 33.7796L754.725 34.5303L755.368 35.2786L756.011 36.024L756.655 36.7657L757.298 37.503L757.941 38.2355L758.585 38.9622L759.228 39.6827L759.871 40.3963L760.515 41.1022L761.158 41.8L761.801 42.4889L762.444 43.1683L763.088 43.8377L763.731 44.4964L764.374 45.1438L765.018 45.7794L765.661 46.4025L766.304 47.0126L766.948 47.6092L767.591 48.1918L768.234 48.7597L768.877 49.3126L769.521 49.8498L770.164 50.3709L770.807 50.8755L771.451 51.3631L772.094 51.8332L772.737 52.2854L773.381 52.7194L774.024 53.1347L774.667 53.531L775.31 53.9078L775.954 54.2649L776.597 54.602L777.24 54.9186L777.884 55.2147L778.527 55.4898L779.17 55.7437L779.814 55.9763L780.457 56.1872L781.1 56.3764L781.743 56.5436L782.387 56.6887L783.03 56.8115L783.673 56.912L784.317 56.99L784.96 57.0455L785.603 57.0785L786.247 57.0889L786.89 57.0766L787.533 57.0418L788.176 56.9844L788.82 56.9045L789.463 56.8022L790.106 56.6775L790.75 56.5306L791.393 56.3616L792.036 56.1706L792.68 55.9579L793.323 55.7235L793.966 55.4678L794.609 55.191L795.253 54.8932L795.896 54.5748L796.539 54.2361L797.183 53.8774L797.826 53.4989L798.469 53.1011L799.113 52.6842L799.756 52.2487L800.399 51.795L801.042 51.3234L801.686 50.8344L802.329 50.3285L802.972 49.806L803.616 49.2674L804.259 48.7133L804.902 48.1442L805.546 47.5604L806.189 46.9627L806.832 46.3514L807.475 45.7273L808.119 45.0907L808.762 44.4423L809.405 43.7827L810.049 43.1125L810.692 42.4323L811.335 41.7426L811.978 41.0442L812.622 40.3375L813.265 39.6234L813.908 38.9024L814.552 38.1751L815.195 37.4423L815.838 36.7045L816.482 35.9624L817.125 35.2168L817.768 34.4683L818.412 33.7175L819.055 32.9651" stroke="#79CCDB" stroke-width="10"/>
<path d="M418.023 29.1748L419.565 27.4752L420.209 26.736L420.852 26.0015L421.495 25.2724L422.139 24.5493L422.782 23.8329L423.425 23.1238L424.069 22.4227L424.712 21.7301L425.355 21.0468L425.998 20.3733L426.642 19.7103L427.285 19.0583L427.928 18.4179L428.572 17.7897L429.215 17.1743L429.858 16.5722L430.502 15.9839L431.145 15.4101L431.788 14.8511L432.431 14.3076L433.075 13.7799L433.718 13.2686L434.361 12.7742L435.005 12.297L435.648 11.8375L436.291 11.3962L436.935 10.9734L437.578 10.5694L438.221 10.1848L438.864 9.81969L439.508 9.47457L440.151 9.14969L440.794 8.84534L441.438 8.56181L442.081 8.29934L442.724 8.05818L443.368 7.83854L444.011 7.64061L444.654 7.46458L445.297 7.31061L445.941 7.17884L446.584 7.06937L447.227 6.98231L447.871 6.91775L448.514 6.87573L449.157 6.85629L449.801 6.85946L450.444 6.88523L451.087 6.93357L451.73 7.00445L452.374 7.09779L453.017 7.21352L453.66 7.35153L454.304 7.5117L454.947 7.69388L455.59 7.89791L456.234 8.1236L456.877 8.37075L457.52 8.63915L458.163 8.92854L458.807 9.23867L459.45 9.56926L460.093 9.92001L460.737 10.2906L461.38 10.6807L462.023 11.09L462.667 11.518L463.31 11.9645L463.953 12.429L464.596 12.911L465.24 13.4102L465.883 13.9262L466.526 14.4583L467.17 15.0062L467.813 15.5694L468.456 16.1474L469.1 16.7395L469.743 17.3454L470.386 17.9645L471.029 18.5962L471.673 19.2399L472.316 19.895L472.959 20.5611L473.603 21.2373L474.246 21.9233L474.889 22.6183L475.533 23.3217L476.176 24.0329L476.819 24.7513L477.462 25.4761L478.106 26.2068L478.749 26.9427L479.392 27.6831L480.036 28.4273L480.679 29.1748L481.322 29.9248L481.966 30.6766L482.609 31.4296L483.252 32.183L483.895 32.9363L484.539 33.6887L485.182 34.4396L485.825 35.1882L486.469 35.934L487.112 36.6761L487.755 37.4141L488.399 38.1471L489.042 38.8746L489.685 39.5959L490.328 40.3103L490.972 41.0173L491.615 41.716L492.258 42.406L492.902 43.0867L493.545 43.7573L494.188 44.4173L494.832 45.0661L495.475 45.7031L496.118 46.3278L496.761 46.9395L497.405 47.5378L498.048 48.1221L498.691 48.6918L499.335 49.2465L499.978 49.7856L500.621 50.3088L501.265 50.8154L501.908 51.305L502.551 51.7773L503.194 52.2317L503.838 52.6679L504.481 53.0855L505.124 53.484L505.768 53.8633L506.411 54.2228L507.054 54.5623L507.698 54.8814L508.341 55.18L508.984 55.4576L509.627 55.7141L510.271 55.9493L510.914 56.1628L511.557 56.3547L512.201 56.5245L512.844 56.6723L513.487 56.7978L514.131 56.901L514.774 56.9818L515.417 57.04L516.06 57.0757L516.704 57.0888L517.347 57.0793L517.99 57.0472L518.634 56.9926L519.277 56.9154L519.92 56.8157L520.564 56.6938L521.207 56.5495L521.85 56.3832L522.493 56.1949L523.137 55.9847L523.78 55.753L524.423 55.4999L525.067 55.2256L525.71 54.9303L526.353 54.6145L526.997 54.2782L527.64 53.9218L528.283 53.5457L528.926 53.1502L529.57 52.7357L530.213 52.3024L530.856 51.8508L531.5 51.3814L532.143 50.8945L532.786 50.3906L533.43 49.87L534.073 49.3334L534.716 48.7812L535.359 48.2138L536.003 47.6318L536.646 47.0357L537.289 46.4261L537.933 45.8034L538.576 45.1683L539.219 44.5214L539.863 43.8631L540.506 43.1941L541.149 42.5151L541.792 41.8265L542.436 41.1291L543.079 40.4234L543.722 39.7102L544.366 38.9899L545.009 38.2634L545.652 37.5312L546.296 36.794L546.939 36.0524L547.582 35.3072L548.225 34.559L548.869 33.8084L549.512 33.0562L550.155 32.303L550.799 31.5495L551.442 30.7964L552.085 30.0444L552.729 29.2941L553.372 28.5462L554.015 27.8014L554.658 27.0603L555.302 26.3237L555.945 25.5921L556.588 24.8663L557.232 24.1469L557.875 23.4345L558.518 22.7298L559.162 22.0334L559.805 21.346L560.448 20.6681L561.091 20.0004L561.735 19.3435L562.378 18.6979L563.021 18.0643L563.665 17.4432L564.308 16.8351L564.951 16.2407L565.595 15.6605L566.238 15.0949L566.881 14.5445L567.524 14.0098L568.168 13.4913L568.811 12.9894L569.454 12.5046L570.098 12.0373L570.741 11.5879L571.384 11.1569L572.028 10.7446L572.671 10.3514L573.314 9.97771L573.957 9.62378L574.601 9.28996L575.244 8.97656L575.887 8.68384L576.531 8.41208L577.174 8.16153L577.817 7.9324L578.461 7.72492L579.104 7.53924L579.747 7.37556L580.39 7.23401L581.034 7.11473L581.677 7.01781L582.32 6.94335L582.964 6.89141L583.607 6.86206L584.25 6.85529L584.894 6.87112L585.537 6.90955L586.18 6.97052L586.823 7.054L587.467 7.1599L588.11 7.28814L588.753 7.43858L589.397 7.61111L590.04 7.80555L590.683 8.02175L591.327 8.2595L591.97 8.51859L592.613 8.79878L593.256 9.09983L593.9 9.42146L594.543 9.76339L595.186 10.1253L595.83 10.5069L596.473 10.9078L597.116 11.3276L597.76 11.766L598.403 12.2226L599.046 12.697L599.689 13.1887L600.333 13.6974L600.976 14.2225L601.619 14.7635L602.263 15.32L602.906 15.8916L603.549 16.4776L604.193 17.0775L604.836 17.6908L605.479 18.317L606.122 18.9555L606.766 19.6057L607.409 20.267L608.052 20.9389L608.696 21.6207L609.339 22.3118L609.982 23.0116L610.626 23.7194L611.269 24.4347L611.912 25.1568L612.555 25.885L613.199 26.6187L613.842 27.3572L614.485 28.0998L615.129 28.8459L615.772 29.5949L616.415 30.346L617.059 31.0985L617.702 31.8519L618.345 32.6053L618.988 33.3582L619.632 34.1098L620.275 34.8595L620.918 35.6066L621.562 36.3504L622.205 37.0903L622.848 37.8256L623.492 38.5556L624.135 39.2797L624.778 39.9972L625.421 40.7075L626.065 41.41L626.708 42.1039L627.351 42.7887L627.995 43.4638L628.638 44.1285L629.281 44.7824L629.925 45.4246L630.568 46.0548L631.211 46.6723L631.854 47.2766L632.498 47.867L633.141 48.4432L633.784 49.0046L634.428 49.5506L635.071 50.0808L635.714 50.5948L636.358 51.0919L637.001 51.5719L637.644 52.0342L638.288 52.4785L638.931 52.9043L639.574 53.3112L640.217 53.699L640.861 54.0672L641.504 54.4155L642.147 54.7437L642.791 55.0513L643.434 55.3382L644.077 55.604L644.72 55.8486L645.364 56.0716L646.007 56.273L646.65 56.4526L647.294 56.6101L647.937 56.7454L648.58 56.8584L649.224 56.949L649.867 57.0172L650.51 57.0628L651.153 57.0858L651.797 57.0863L652.44 57.0641L653.083 57.0194L653.727 56.9521L654.37 56.8623L655.013 56.7501L655.657 56.6157L656.3 56.459L656.943 56.2803L657.586 56.0798L658.23 55.8575L658.873 55.6138L659.516 55.3487L660.16 55.0627L660.803 54.7558L661.446 54.4285L662.09 54.0809L662.733 53.7135L663.376 53.3264L664.02 52.9202L664.663 52.4951L665.306 52.0515L665.949 51.5899L666.593 51.1106L667.236 50.6141L667.879 50.1008L668.523 49.5712L669.166 49.0258L669.809 48.465L670.453 47.8894L671.096 47.2994L671.739 46.6957L672.382 46.0787L673.026 45.449L673.669 44.8072L674.312 44.1538L674.956 43.4894L675.599 42.8147L676.242 42.1303L676.885 41.4367L677.529 40.7346L678.172 40.0246L678.815 39.3073L679.459 38.5835L680.102 37.8537L680.745 37.1186L681.389 36.3788L682.032 35.6351L682.675 34.8882L683.318 34.1385L683.962 33.387L684.605 32.6341L685.248 31.8807L685.892 31.1273L686.535 30.3748L687.178 29.6236L687.822 28.8746L688.465 28.1283L689.108 27.3855L689.752 26.6468L690.395 25.913L691.038 25.1845L691.681 24.4622L692.325 23.7467L692.968 23.0385L693.611 22.3384L694.255 21.647L694.898 20.9648L695.541 20.2926L696.184 19.6308L696.828 18.9802L697.471 18.3412L698.114 17.7146L698.758 17.1007L699.401 16.5003L700.044 15.9137L700.688 15.3416L701.331 14.7845L701.974 14.2429L702.618 13.7172L703.261 13.2079L703.904 12.7155L704.547 12.2405L705.191 11.7832L705.834 11.3441L706.477 10.9235L707.121 10.5219L707.764 10.1395L708.407 9.77688L709.051 9.43418L709.694 9.11177L710.337 8.80993L710.98 8.52893L711.624 8.26903L712.267 8.03045L712.91 7.81343L713.554 7.61815L714.197 7.44478L714.84 7.29349L715.484 7.1644L716.127 7.05764L716.77 6.9733L717.413 6.91146L718.057 6.87217L718.7 6.85547L719.343 6.86137L719.987 6.88988L720.63 6.94094L721.273 7.01455L721.917 7.1106L722.56 7.22903L723.203 7.36974L723.846 7.53257L724.49 7.71741L725.133 7.92406L725.776 8.15236L726.42 8.4021L727.063 8.67305L727.706 8.96497L728.35 9.27758L728.993 9.61063L729.636 9.96379L730.279 10.3368L730.923 10.7292L731.566 11.1408L732.209 11.5711L732.853 12.0197L733.496 12.4864L734.139 12.9705L734.783 13.4718L735.426 13.9897L736.069 14.5238L736.712 15.0736L737.356 15.6386L737.999 16.2183L738.642 16.8121L739.286 17.4196L739.929 18.0403L740.572 18.6734L741.216 19.3185L741.859 19.975L742.502 20.6423L743.145 21.3198L743.789 22.0069L744.432 22.703L745.075 23.4074L745.719 24.1195L746.362 24.8386L747.005 25.5642L747.649 26.2956L748.292 27.032L748.935 27.7729L749.578 28.5176L750.222 29.2654L750.865 30.0156L751.508 30.7676L752.152 31.5207L752.795 32.2742L753.438 33.0274L754.082 33.7796L754.725 34.5303L755.368 35.2786L756.011 36.024L756.655 36.7657L757.298 37.503L757.941 38.2355L758.585 38.9622L759.228 39.6827L759.871 40.3963L760.515 41.1022L761.158 41.8L761.801 42.4889L762.444 43.1683L763.088 43.8377L763.731 44.4964L764.374 45.1438L765.018 45.7794L765.661 46.4025L766.304 47.0126L766.948 47.6092L767.591 48.1918L768.234 48.7597L768.877 49.3126L769.521 49.8498L770.164 50.3709L770.807 50.8755L771.451 51.3631L772.094 51.8332L772.737 52.2854L773.381 52.7194L774.024 53.1347L774.667 53.531L775.31 53.9078L775.954 54.2649L776.597 54.602L777.24 54.9186L777.884 55.2147L778.527 55.4898L779.17 55.7437L779.814 55.9763L780.457 56.1872L781.1 56.3764L781.743 56.5436L782.387 56.6887L783.03 56.8115L783.673 56.912L784.317 56.99L784.96 57.0455L785.603 57.0785L786.247 57.0889L786.89 57.0766L787.533 57.0418L788.176 56.9844L788.82 56.9045L789.463 56.8022L790.106 56.6775L790.75 56.5306L791.393 56.3616L792.036 56.1706L792.68 55.9579L793.323 55.7235L793.966 55.4678L794.609 55.191L795.253 54.8932L795.896 54.5748L796.539 54.2361L797.183 53.8774L797.826 53.4989L798.469 53.1011L799.113 52.6842L799.756 52.2487L800.399 51.795L801.042 51.3234L801.686 50.8344L802.329 50.3285L802.972 49.806L803.616 49.2674L804.259 48.7133L804.902 48.1442L805.546 47.5604L806.189 46.9627L806.832 46.3514L807.475 45.7273L808.119 45.0907L808.762 44.4423L809.405 43.7827L810.049 43.1125L810.692 42.4323L811.335 41.7426L811.978 41.0442L812.622 40.3375L813.265 39.6234L813.908 38.9024L814.552 38.1751L815.195 37.4423L815.838 36.7045L816.482 35.9624L817.125 35.2168L817.768 34.4683L818.412 33.7175L819.055 32.9651" stroke="url(#paint0_linear)" stroke-width="10"/>
</g>
<path d="M551.142 39.0964C548.48 36.0061 546.929 34.1841 544.026 30.7242L549.049 24.0264C551.849 26.674 554.067 29.5065 556.166 32.3986L551.142 39.0964Z" fill="#79CCDB"/>
<path d="M691 45.8163C688.258 42.5442 680.99 34.8779 678 31.2145L684.933 23.8027C687.816 26.6061 695.339 36.754 697.5 39.8163L691 45.8163Z" fill="#79CCDB"/>
<path d="M554.5 43.8027C551.929 40.7124 545.803 34.2626 543 30.8027L549 23.3027C551.703 25.9504 558.974 34.9241 561 37.8163L554.5 43.8027Z" fill="#79CCDB"/>
<path d="M821.207 41.8027C818.136 37.9065 816.348 35.6094 813 31.2472L818.793 22.8027C822.022 26.1408 824.58 29.7119 827 33.3583L821.207 41.8027Z" fill="#79CCDB"/>
<path d="M420.5 44.5C417.929 41.4097 411.803 34.9599 409 31.5L415 24C417.703 26.6477 424.974 35.6214 427 38.5135L420.5 44.5Z" fill="#79CCDB"/>
</g>
<line x1="265.167" y1="17.984" x2="265.35" y2="31.3784" stroke="#62F2A6" stroke-width="5"/>
<line x1="255.241" y1="11.5089" x2="255.526" y2="32.4376" stroke="#E8A62E" stroke-width="5"/>
<line x1="245.34" y1="6.92835" x2="245.682" y2="32.0428" stroke="#C6344A" stroke-width="5"/>
<line x1="224.899" y1="15.8518" x2="225.23" y2="31.7557" stroke="#EFE123" stroke-width="5"/>
<line x1="235.538" y1="9.57386" x2="235.846" y2="32.1769" stroke="#62F2A6" stroke-width="5"/>
<line y1="-2.5" x2="13.5719" y2="-2.5" transform="matrix(-0.0136212 -0.999907 -0.999907 0.0136212 195.856 44.5469)" stroke="#E8A62F" stroke-width="5"/>
<line y1="-2.5" x2="20.9747" y2="-2.5" transform="matrix(-0.0136212 -0.999907 -0.999907 0.0136212 186.121 52.083)" stroke="#C6344A" stroke-width="5"/>
<line y1="-2.5" x2="23.4423" y2="-2.5" transform="matrix(-0.0136212 -0.999907 -0.999907 0.0136212 176.318 54.6846)" stroke="#EFE123" stroke-width="5"/>
<line x1="158.043" y1="45.4957" x2="158.173" y2="31.2635" stroke="#62F2A6" stroke-width="5"/>
<line y1="-2.5" x2="23.4423" y2="-2.5" transform="matrix(-0.0136212 -0.999907 -0.999907 0.0136212 166.481 54.8184)" stroke="#E8A62E" stroke-width="5"/>
<line y1="-2.5" x2="12.5584" y2="-2.5" transform="matrix(-0.0136212 -0.999907 -0.999907 0.0136212 262.899 43.9282)" stroke="#EFE123" stroke-width="5"/>
<line y1="-2.5" x2="18.7274" y2="-2.5" transform="matrix(-0.0136212 -0.999907 -0.999907 0.0136212 253.153 50.6714)" stroke="#C6344A" stroke-width="5"/>
<line y1="-2.5" x2="20.9307" y2="-2.5" transform="matrix(-0.0136212 -0.999907 -0.999907 0.0136212 243.346 53.0083)" stroke="#E8A62F" stroke-width="5"/>
<line x1="225.188" y1="45.2124" x2="225.188" y2="31.8168" stroke="#62F2A6" stroke-width="5"/>
<line y1="-2.5" x2="21.7679" y2="-2.5" transform="matrix(-0.0136212 -0.999907 -0.999907 0.0136212 233.51 53.1421)" stroke="#EFE123" stroke-width="5"/>
<line x1="198.178" y1="18.839" x2="198.343" y2="30.9556" stroke="#C6344A" stroke-width="5"/>
<line x1="188.251" y1="12.3639" x2="188.507" y2="31.0896" stroke="#E8A62E" stroke-width="5"/>
<line x1="178.362" y1="8.60315" x2="178.67" y2="31.241" stroke="#62F2A6" stroke-width="5"/>
<line x1="157.899" y1="19.1902" x2="158.207" y2="31.4627" stroke="#EFE123" stroke-width="5"/>
<line x1="168.4" y1="10.4288" x2="168.685" y2="31.3576" stroke="#C6344A" stroke-width="5"/>
<line y1="-2.5" x2="15.026" y2="-2.5" transform="matrix(-0.0136212 -0.999907 -0.999907 0.0136212 129.013 43.4854)" stroke="#E8A62F" stroke-width="5"/>
<line y1="-2.5" x2="23.222" y2="-2.5" transform="matrix(-0.0136212 -0.999907 -0.999907 0.0136212 119.288 51.8149)" stroke="#E8A62F" stroke-width="5"/>
<line y1="-2.5" x2="25.954" y2="-2.5" transform="matrix(-0.0136212 -0.999907 -0.999907 0.0136212 109.489 54.6807)" stroke="#EFE123" stroke-width="5"/>
<line x1="91.0647" y1="47.7246" x2="91.0647" y2="30.9801" stroke="#E8A62F" stroke-width="5"/>
<line y1="-2.5" x2="25.954" y2="-2.5" transform="matrix(-0.0136212 -0.999907 -0.999907 0.0136212 99.6521 54.8145)" stroke="#C63449" stroke-width="5"/>
<line x1="131.177" y1="18.8214" x2="131.342" y2="30.938" stroke="#C6344A" stroke-width="5"/>
<line x1="121.25" y1="12.3463" x2="121.505" y2="31.072" stroke="#C6344A" stroke-width="5"/>
<path d="M111.7 5.86328L111.7 31.2119" stroke="#62F2A6" stroke-width="5"/>
<line x1="90.8998" y1="12.2199" x2="91.1621" y2="31.4743" stroke="#C6344A" stroke-width="5"/>
<line x1="101.547" y1="10.4113" x2="101.832" y2="31.34" stroke="#E8A62E" stroke-width="5"/>
<line y1="-2.5" x2="15.026" y2="-2.5" transform="matrix(-0.0136212 -0.999907 -0.999907 0.0136212 398.6 43.4834)" stroke="#E8A62F" stroke-width="5"/>
<line y1="-2.5" x2="23.222" y2="-2.5" transform="matrix(-0.0136212 -0.999907 -0.999907 0.0136212 388.875 51.8125)" stroke="#E8A62F" stroke-width="5"/>
<line y1="-2.5" x2="25.954" y2="-2.5" transform="matrix(-0.0136212 -0.999907 -0.999907 0.0136212 379.075 54.6782)" stroke="#EFE123" stroke-width="5"/>
<line y1="-2.5" x2="19.2562" y2="-2.5" transform="matrix(-0.0136212 -0.999907 -0.999907 0.0136212 359.345 50.7603)" stroke="#E8A62F" stroke-width="5"/>
<line y1="-2.5" x2="25.954" y2="-2.5" transform="matrix(-0.0136212 -0.999907 -0.999907 0.0136212 369.239 54.812)" stroke="#C63449" stroke-width="5"/>
<line x1="400.764" y1="18.8195" x2="400.929" y2="30.9361" stroke="#C6344A" stroke-width="5"/>
<line x1="390.837" y1="12.3444" x2="391.092" y2="31.0701" stroke="#C6344A" stroke-width="5"/>
<line x1="380.971" y1="10.2755" x2="381.256" y2="31.2042" stroke="#62F2A6" stroke-width="5"/>
<line x1="361.32" y1="12.2179" x2="361.583" y2="31.4723" stroke="#C6344A" stroke-width="5"/>
<line x1="371.134" y1="10.4093" x2="371.419" y2="31.338" stroke="#E8A62E" stroke-width="5"/>
<line y1="-2.5" x2="13.5719" y2="-2.5" transform="matrix(-0.0136212 -0.999907 -0.999907 0.0136212 61.2458 42.8682)" stroke="#EFE122" stroke-width="5"/>
<line y1="-2.5" x2="20.9747" y2="-2.5" transform="matrix(-0.0136212 -0.999907 -0.999907 0.0136212 51.5102 50.4043)" stroke="#62F2A6" stroke-width="5"/>
<line y1="-2.5" x2="23.4423" y2="-2.5" transform="matrix(-0.0136212 -0.999907 -0.999907 0.0136212 41.7073 53.0059)" stroke="#62F2A6" stroke-width="5"/>
<line x1="23.6404" y1="47.391" x2="23.4238" y2="31.4852" stroke="#E8A62F" stroke-width="5"/>
<line y1="-2.5" x2="23.4423" y2="-2.5" transform="matrix(-0.0136212 -0.999907 -0.999907 0.0136212 31.8708 53.1396)" stroke="#EFE123" stroke-width="5"/>
<line x1="63.4185" y1="18.8214" x2="63.5836" y2="30.938" stroke="#62F2A6" stroke-width="5"/>
<path d="M53.8 8.79346L53.8 31.0774" stroke="#EFE123" stroke-width="5"/>
<line x1="43.5684" y1="6.09144" x2="43.911" y2="31.2373" stroke="#EFE123" stroke-width="5"/>
<line x1="23.0994" y1="15.8553" x2="23.4415" y2="31.4528" stroke="#C6344A" stroke-width="5"/>
<line x1="33.789" y1="10.4113" x2="34.0741" y2="31.34" stroke="#62F2A6" stroke-width="5"/>
<line y1="-2.5" x2="13.5719" y2="-2.5" transform="matrix(-0.0136212 -0.999907 -0.999907 0.0136212 332.507 42.8662)" stroke="#EFE122" stroke-width="5"/>
<line y1="-2.5" x2="20.9747" y2="-2.5" transform="matrix(-0.0136212 -0.999907 -0.999907 0.0136212 322.771 50.4023)" stroke="#62F2A6" stroke-width="5"/>
<line y1="-2.5" x2="23.4423" y2="-2.5" transform="matrix(-0.0136212 -0.999907 -0.999907 0.0136212 312.969 53.0039)" stroke="#62F2A6" stroke-width="5"/>
<line x1="295.5" y1="47.389" x2="295.284" y2="31.4832" stroke="#E8A62F" stroke-width="5"/>
<line y1="-2.5" x2="23.4423" y2="-2.5" transform="matrix(-0.0136212 -0.999907 -0.999907 0.0136212 303.132 53.1377)" stroke="#EFE123" stroke-width="5"/>
<line x1="334.68" y1="18.8195" x2="334.845" y2="30.9361" stroke="#62F2A6" stroke-width="5"/>
<line x1="324.753" y1="12.3444" x2="325.008" y2="31.0701" stroke="#EFE123" stroke-width="5"/>
<line x1="314.83" y1="6.08948" x2="315.172" y2="31.2353" stroke="#EFE123" stroke-width="5"/>
<line x1="295.237" y1="12.2174" x2="295.499" y2="31.4718" stroke="#C6344A" stroke-width="5"/>
<line x1="305.05" y1="10.4093" x2="305.335" y2="31.338" stroke="#62F2A6" stroke-width="5"/>
<g filter="url(#filter2_d)">
<path d="M8 27.7561L11.9922 32.4786L12.6355 33.23L13.2788 33.9793L13.9221 34.7259L14.5654 35.4692L15.2087 36.2084L15.852 36.9429L16.4953 37.672L17.1386 38.3951L17.7819 39.1115L18.4252 39.8206L19.0685 40.5217L19.7118 41.2142L20.3551 41.8975L20.9984 42.571L21.6417 43.234L22.285 43.886L22.9283 44.5264L23.5716 45.1546L24.2149 45.77L24.8582 46.3722L25.5015 46.9604L26.1448 47.5343L26.7881 48.0932L27.4314 48.6368L28.0747 49.1644L28.718 49.6757L29.3613 50.1702L30.0046 50.6473L30.6479 51.1068L31.2912 51.5481L31.9345 51.971L32.5778 52.3749L33.2211 52.7596L33.8644 53.1246L34.5077 53.4698L35.151 53.7946L35.7943 54.099L36.4376 54.3825L37.0809 54.645L37.7242 54.8862L38.3675 55.1058L39.0108 55.3037L39.6541 55.4798L40.2974 55.6337L40.9407 55.7655L41.584 55.875L42.2273 55.962L42.8706 56.0266L43.5139 56.0686L44.1572 56.088L44.8005 56.0849L45.4438 56.0591L46.0871 56.0108L46.7304 55.9399L47.3737 55.8465L48.017 55.7308L48.6603 55.5928L49.3036 55.4326L49.9469 55.2505L50.5902 55.0464L51.2335 54.8207L51.8768 54.5736L52.5201 54.3052L53.1634 54.0158L53.8067 53.7057L54.45 53.3751L55.0933 53.0243L55.7366 52.6537L56.3799 52.2636L57.0232 51.8544L57.6665 51.4263L58.3098 50.9798L58.9531 50.5154L59.5964 50.0333L60.2397 49.5341L60.883 49.0182L61.5263 48.486L62.1696 47.9381L62.8129 47.3749L63.4562 46.797L64.0995 46.2048L64.7428 45.5989L65.3861 44.9798L66.0294 44.3482L66.6727 43.7045L67.316 43.0493L67.9593 42.3833L68.6026 41.707L69.2459 41.021L69.8892 40.326L70.5325 39.6226L71.1758 38.9114L71.8191 38.1931L72.4624 37.4682L73.1057 36.7375L73.749 36.0017L74.3923 35.2613L75.0356 34.517L75.6789 33.7695L76.3222 33.0196L76.9655 32.2678L77.6088 31.5148L78.2521 30.7613L78.8954 30.008L79.5387 29.2556L80.182 28.5048L80.8253 27.7561L81.4686 27.0104L82.1119 26.2682L82.7552 25.5302L83.3985 24.7972L84.0418 24.0697L84.6851 23.3484L85.3284 22.634L85.9717 21.9271L86.615 21.2283L87.2583 20.5383L87.9016 19.8577L88.5449 19.1871L89.1882 18.5271L89.8315 17.8782L90.4748 17.2412L91.1181 16.6166L91.7614 16.0048L92.4047 15.4065L93.048 14.8223L93.6913 14.2525L94.3346 13.6978L94.9779 13.1587L95.6212 12.6356L96.2645 12.129L96.9078 11.6393L97.5511 11.1671L98.1944 10.7126L98.8377 10.2764L99.481 9.85886L100.124 9.46029L100.768 9.08108L101.411 8.72157L102.054 8.38208L102.698 8.06292L103.341 7.76438L103.984 7.48673L104.627 7.23022L105.271 6.99506L105.914 6.78149L106.557 6.58968L107.201 6.41982L107.844 6.27206L108.487 6.14652L109.131 6.04332L109.774 5.96256L110.417 5.90431L111.06 5.86862L111.704 5.85551L112.347 5.86502L112.99 5.89711L113.634 5.95178L114.277 6.02896L114.92 6.12859L115.564 6.25057L116.207 6.3948L116.85 6.56116L117.493 6.74948L118.137 6.95959L118.78 7.19132L119.423 7.44445L120.067 7.71876L120.71 8.01399L121.353 8.32988L121.997 8.66615L122.64 9.02249L123.283 9.39859L123.926 9.7941L124.57 10.2087L125.213 10.6419L125.856 11.0935L126.5 11.5629L127.143 12.0498L127.786 12.5538L128.43 13.0743L129.073 13.6109L129.716 14.1632L130.359 14.7305L131.003 15.3125L131.646 15.9086L132.289 16.5182L132.933 17.1409L133.576 17.776L134.219 18.423L134.863 19.0812L135.506 19.7502L136.149 20.4292L136.792 21.1178L137.436 21.8152L138.079 22.5209L138.722 23.2342L139.366 23.9544L140.009 24.6809L140.652 25.4131L141.296 26.1504L141.939 26.8919L142.582 27.6371L143.225 28.3854L143.869 29.1359L144.512 29.8881L145.155 30.6413L145.799 31.3948L146.442 32.1479L147.085 32.8999L147.729 33.6502L148.372 34.3981L149.015 35.143L149.658 35.884L150.302 36.6207L150.945 37.3522L151.588 38.078L152.232 38.7975L152.875 39.5099L153.518 40.2145L154.162 40.9109L154.805 41.5984L155.448 42.2762L156.091 42.944L156.735 43.6009L157.378 44.2464L158.021 44.8801L158.665 45.5012L159.308 46.1092L159.951 46.7036L160.595 47.2839L161.238 47.8494L161.881 48.3998L162.524 48.9345L163.168 49.453L163.811 49.9549L164.454 50.4398L165.098 50.9071L165.741 51.3564L166.384 51.7874L167.028 52.1997L167.671 52.5929L168.314 52.9666L168.957 53.3206L169.601 53.6544L170.244 53.9678L170.887 54.2605L171.531 54.5323L172.174 54.7828L172.817 55.0119L173.461 55.2194L174.104 55.4051L174.747 55.5688L175.39 55.7103L176.034 55.8296L176.677 55.9265L177.32 56.001L177.964 56.0529L178.607 56.0823L179.25 56.089L179.894 56.0732L180.537 56.0348L181.18 55.9738L181.823 55.8903L182.467 55.7844L183.11 55.6562L183.753 55.5058L184.397 55.3332L185.04 55.1388L185.683 54.9226L186.327 54.6848L186.97 54.4258L187.613 54.1456L188.256 53.8445L188.9 53.5229L189.543 53.1809L190.186 52.819L190.83 52.4375L191.473 52.0366L192.116 51.6167L192.76 51.1783L193.403 50.7217L194.046 50.2473L194.689 49.7556L195.333 49.247L195.976 48.7219L196.619 48.1808L197.263 47.6243L197.906 47.0528L198.549 46.4668L199.193 45.8668L199.836 45.2535L200.479 44.6273L201.122 43.9888L201.766 43.3386L202.409 42.6773L203.052 42.0055L203.696 41.3237L204.339 40.6326L204.982 39.9328L205.626 39.2249L206.269 38.5096L206.912 37.7876L207.555 37.0594L208.199 36.3257L208.842 35.5872L209.485 34.8445L210.129 34.0984L210.772 33.3495L211.415 32.5984L212.059 31.8458L212.702 31.0925L213.345 30.339L213.988 29.5862L214.632 28.8345L215.275 28.0848L215.918 27.3377L216.562 26.5939L217.205 25.854L217.848 25.1187L218.492 24.3887L219.135 23.6646L219.778 22.9471L220.421 22.2368L221.065 21.5344L221.708 20.8404L222.351 20.1556L222.995 19.4805L223.638 18.8158L224.281 18.162L224.925 17.5197L225.568 16.8895L226.211 16.272L226.854 15.6678L227.498 15.0773L228.141 14.5011L228.784 13.9397L229.428 13.3937L230.071 12.8635L230.714 12.3496L231.358 11.8524L232.001 11.3725L232.644 10.9101L233.287 10.4659L233.931 10.0401L234.574 9.63311L235.217 9.24534L235.861 8.87713L236.504 8.5288L237.147 8.20068L237.791 7.89304L238.434 7.60618L239.077 7.34034L239.72 7.09576L240.364 6.87269L241.007 6.67129L241.65 6.49177L242.294 6.33427L242.937 6.19895L243.58 6.08593L244.224 5.99529L244.867 5.92714L245.51 5.88152L246.153 5.85849L246.797 5.85806L247.44 5.88023L248.083 5.92498L248.727 5.99227L249.37 6.08204L250.013 6.19421L250.657 6.32868L251.3 6.48533L251.943 6.66402L252.586 6.86457L253.23 7.08683L253.873 7.33058L254.516 7.59561L255.16 7.88168L255.803 8.18852L256.446 8.51587L257.09 8.86343L257.733 9.23088L258.376 9.61791L259.02 10.0241L259.663 10.4492L260.306 10.8928L260.949 11.3544L261.593 11.8337L262.236 12.3302L262.879 12.8435L263.523 13.3731L264.166 13.9186L264.809 14.4793L265.452 15.055L266.096 15.6449L266.739 16.2487L267.382 16.8657L268.026 17.4954L268.669 18.1372L269.312 18.7906L269.956 19.4549L270.599 20.1296L271.242 20.814L271.885 21.5077L272.529 22.2098L273.172 22.9198L273.815 23.637L274.459 24.3609L275.102 25.0907L275.745 25.8258L276.389 26.5655L277.032 27.3092L277.675 28.0562L278.318 28.8058L278.962 29.5574L279.605 30.3102L280.248 31.0636L280.892 31.817L281.535 32.5696L282.178 33.3207L282.822 34.0698L283.465 34.816L284.108 35.5588L284.751 36.2975L285.395 37.0314L286.038 37.7598L286.681 38.4821L287.325 39.1977L287.968 39.9058L288.611 40.6059L289.255 41.2974L289.898 41.9795L290.541 42.6518L291.184 43.3135L291.828 43.9641L292.471 44.6031L293.114 45.2298L293.758 45.8436L294.401 46.4441L295.044 47.0306L295.688 47.6027L296.331 48.1598L296.974 48.7015L297.617 49.2272L298.261 49.7364L298.904 50.2288L299.547 50.7039L300.191 51.1612L300.834 51.6003L301.477 52.0208L302.121 52.4225L302.764 52.8048L303.407 53.1675L304.05 53.5102L304.694 53.8326L305.337 54.1344L305.98 54.4154L306.624 54.6753L307.267 54.9139L307.91 55.1309L308.554 55.3262L309.197 55.4996L309.84 55.6508L310.483 55.7799L311.127 55.8867L311.77 55.971L312.413 56.0329L313.057 56.0722L313.7 56.0889L314.343 56.083L314.987 56.0545L315.63 56.0034L316.273 55.9298L316.917 55.8337L317.56 55.7153L318.203 55.5746L318.846 55.4118L319.49 55.2269L320.133 55.0203L320.776 54.792L321.42 54.5422L322.063 54.2713L322.706 53.9794L323.349 53.6668L323.993 53.3337L324.636 52.9805L325.279 52.6076L325.923 52.2151L326.566 51.8036L327.209 51.3733L327.853 50.9246L328.496 50.458L329.139 49.9738L329.782 49.4726L330.426 48.9547L331.069 48.4206L331.712 47.8708L332.356 47.3058L332.999 46.7261L333.642 46.1322L334.286 45.5247L334.929 44.9041L335.572 44.2709L336.216 43.6258L336.859 42.9693L337.502 42.302L338.145 41.6245L338.789 40.9374L339.432 40.2414L340.075 39.537L340.719 38.8249L341.362 38.1057L342.005 37.3801L342.648 36.6488L343.292 35.9123L343.935 35.1714L344.578 34.4267L345.222 33.6789L345.865 32.9287L346.508 32.1767L347.152 31.4236L347.795 30.6702L348.438 29.9169L349.082 29.1647L349.725 28.4141L350.368 27.6657L351.011 26.9204L351.655 26.1787L352.298 25.4413L352.941 24.7089L353.585 23.9821L354.228 23.2616L354.871 22.5481L355.515 21.8421L356.158 21.1443L356.801 20.4554L357.444 19.776L358.088 19.1066L358.731 18.448L359.374 17.8005L360.018 17.165L360.661 16.5418L361.304 15.9317L361.947 15.3351L362.591 14.7525L363.234 14.1846L363.877 13.6318L364.521 13.0945L365.164 12.5734L365.807 12.0688L366.451 11.5813L367.094 11.1111L367.737 10.6589L368.38 10.2249L369.024 9.80962L369.667 9.41338L370.31 9.03654L370.954 8.67943L371.597 8.34238L372.24 8.02571L372.884 7.72968L373.527 7.45457L374.17 7.20062L374.814 6.96807L375.457 6.75712L376.1 6.56796L376.743 6.40077L377.387 6.25568L378.03 6.13284L378.673 6.03236L379.317 5.95432L379.96 5.89879L380.603 5.86583L381.247 5.85547L381.89 5.8677L382.533 5.90253L383.176 5.95992L383.82 6.03982L384.463 6.14216L385.106 6.26684L385.75 6.41376L386.393 6.58277L387.036 6.77374L387.679 6.98648L388.323 7.22082L388.966 7.47652L389.609 7.75337L390.253 8.05112L390.896 8.36949L391.539 8.7082L392.183 9.06695L392.826 9.44541L393.469 9.84325L394.112 10.2601L394.756 10.6956L395.399 11.1493L396.042 11.6209L396.686 12.1099L397.329 12.6159L397.972 13.1384L398.616 13.6769L399.259 14.231L399.902 14.8002L400.545 15.3839L401.189 15.9816L401.832 16.5929L402.475 17.2171L403.119 17.8536L403.762 18.502L404.405 19.1616L405.049 19.8318L405.692 20.5121L406.335 21.2017L406.978 21.9002L407.622 22.6068L408.265 23.3209L408.908 24.042L409.552 24.7692L410.195 25.5021L410.838 26.2399L411.482 26.9819L412.125 27.7275L412.768 28.4761L413.411 29.2268L414.055 29.9792" stroke="#79CCDB" stroke-width="10"/>
</g>
<g filter="url(#filter3_d)">
<path d="M13.0233 28.1748L14.5654 26.4752L15.2087 25.736L15.852 25.0015L16.4953 24.2724L17.1386 23.5493L17.7819 22.8329L18.4252 22.1238L19.0685 21.4227L19.7118 20.7301L20.3551 20.0468L20.9984 19.3733L21.6417 18.7103L22.285 18.0583L22.9283 17.4179L23.5716 16.7897L24.2149 16.1743L24.8582 15.5722L25.5015 14.9839L26.1448 14.4101L26.7881 13.8511L27.4314 13.3076L28.0747 12.7799L28.718 12.2686L29.3613 11.7742L30.0046 11.297L30.6479 10.8375L31.2912 10.3962L31.9345 9.97337L32.5778 9.56944L33.2211 9.18476L33.8644 8.81969L34.5077 8.47457L35.151 8.14969L35.7943 7.84534L36.4376 7.56181L37.0809 7.29934L37.7242 7.05818L38.3675 6.83854L39.0108 6.64061L39.6541 6.46458L40.2974 6.31061L40.9407 6.17884L41.584 6.06937L42.2273 5.98231L42.8706 5.91775L43.5139 5.87573L44.1572 5.85629L44.8005 5.85946L45.4438 5.88523L46.0871 5.93357L46.7304 6.00445L47.3737 6.09779L48.017 6.21352L48.6603 6.35153L49.3036 6.5117L49.9469 6.69388L50.5902 6.89791L51.2335 7.1236L51.8768 7.37075L52.5201 7.63915L53.1634 7.92854L53.8067 8.23867L54.45 8.56926L55.0933 8.92001L55.7366 9.2906L56.3799 9.68071L57.0232 10.09L57.6665 10.518L58.3098 10.9645L58.9531 11.429L59.5964 11.911L60.2397 12.4102L60.883 12.9262L61.5263 13.4583L62.1696 14.0062L62.8129 14.5694L63.4562 15.1474L64.0995 15.7395L64.7428 16.3454L65.3861 16.9645L66.0294 17.5962L66.6727 18.2399L67.316 18.895L67.9593 19.5611L68.6026 20.2373L69.2459 20.9233L69.8892 21.6183L70.5325 22.3217L71.1758 23.0329L71.8191 23.7513L72.4624 24.4761L73.1057 25.2068L73.749 25.9427L74.3923 26.6831L75.0356 27.4273L75.6789 28.1748L76.3222 28.9248L76.9655 29.6766L77.6088 30.4296L78.2521 31.183L78.8954 31.9363L79.5387 32.6887L80.182 33.4396L80.8253 34.1882L81.4686 34.934L82.1119 35.6761L82.7552 36.4141L83.3985 37.1471L84.0418 37.8746L84.6851 38.5959L85.3284 39.3103L85.9717 40.0173L86.615 40.716L87.2583 41.406L87.9016 42.0867L88.5449 42.7573L89.1882 43.4173L89.8315 44.0661L90.4748 44.7031L91.1181 45.3278L91.7614 45.9395L92.4047 46.5378L93.048 47.1221L93.6913 47.6918L94.3346 48.2465L94.9779 48.7856L95.6212 49.3088L96.2645 49.8154L96.9078 50.305L97.5511 50.7773L98.1944 51.2317L98.8377 51.6679L99.481 52.0855L100.124 52.484L100.768 52.8633L101.411 53.2228L102.054 53.5623L102.698 53.8814L103.341 54.18L103.984 54.4576L104.627 54.7141L105.271 54.9493L105.914 55.1628L106.557 55.3547L107.201 55.5245L107.844 55.6723L108.487 55.7978L109.131 55.901L109.774 55.9818L110.417 56.04L111.06 56.0757L111.704 56.0888L112.347 56.0793L112.99 56.0472L113.634 55.9926L114.277 55.9154L114.92 55.8157L115.564 55.6938L116.207 55.5495L116.85 55.3832L117.493 55.1949L118.137 54.9847L118.78 54.753L119.423 54.4999L120.067 54.2256L120.71 53.9303L121.353 53.6145L121.997 53.2782L122.64 52.9218L123.283 52.5457L123.926 52.1502L124.57 51.7357L125.213 51.3024L125.856 50.8508L126.5 50.3814L127.143 49.8945L127.786 49.3906L128.43 48.87L129.073 48.3334L129.716 47.7812L130.359 47.2138L131.003 46.6318L131.646 46.0357L132.289 45.4261L132.933 44.8034L133.576 44.1683L134.219 43.5214L134.863 42.8631L135.506 42.1941L136.149 41.5151L136.792 40.8265L137.436 40.1291L138.079 39.4234L138.722 38.7102L139.366 37.9899L140.009 37.2634L140.652 36.5312L141.296 35.794L141.939 35.0524L142.582 34.3072L143.225 33.559L143.869 32.8084L144.512 32.0562L145.155 31.303L145.799 30.5495L146.442 29.7964L147.085 29.0444L147.729 28.2941L148.372 27.5462L149.015 26.8014L149.658 26.0603L150.302 25.3237L150.945 24.5921L151.588 23.8663L152.232 23.1469L152.875 22.4345L153.518 21.7298L154.162 21.0334L154.805 20.346L155.448 19.6681L156.091 19.0004L156.735 18.3435L157.378 17.6979L158.021 17.0643L158.665 16.4432L159.308 15.8351L159.951 15.2407L160.595 14.6605L161.238 14.0949L161.881 13.5445L162.524 13.0098L163.168 12.4913L163.811 11.9894L164.454 11.5046L165.098 11.0373L165.741 10.5879L166.384 10.1569L167.028 9.74462L167.671 9.35144L168.314 8.97771L168.957 8.62378L169.601 8.28996L170.244 7.97656L170.887 7.68384L171.531 7.41208L172.174 7.16153L172.817 6.9324L173.461 6.72492L174.104 6.53924L174.747 6.37556L175.39 6.23401L176.034 6.11473L176.677 6.01781L177.32 5.94335L177.964 5.89141L178.607 5.86206L179.25 5.85529L179.894 5.87112L180.537 5.90955L181.18 5.97052L181.823 6.054L182.467 6.1599L183.11 6.28814L183.753 6.43858L184.397 6.61111L185.04 6.80555L185.683 7.02175L186.327 7.2595L186.97 7.51859L187.613 7.79878L188.256 8.09983L188.9 8.42146L189.543 8.76339L190.186 9.1253L190.83 9.50687L191.473 9.90776L192.116 10.3276L192.76 10.766L193.403 11.2226L194.046 11.697L194.689 12.1887L195.333 12.6974L195.976 13.2225L196.619 13.7635L197.263 14.32L197.906 14.8916L198.549 15.4776L199.193 16.0775L199.836 16.6908L200.479 17.317L201.122 17.9555L201.766 18.6057L202.409 19.267L203.052 19.9389L203.696 20.6207L204.339 21.3118L204.982 22.0116L205.626 22.7194L206.269 23.4347L206.912 24.1568L207.555 24.885L208.199 25.6187L208.842 26.3572L209.485 27.0998L210.129 27.8459L210.772 28.5949L211.415 29.346L212.059 30.0985L212.702 30.8519L213.345 31.6053L213.988 32.3582L214.632 33.1098L215.275 33.8595L215.918 34.6066L216.562 35.3504L217.205 36.0903L217.848 36.8256L218.492 37.5556L219.135 38.2797L219.778 38.9972L220.421 39.7075L221.065 40.41L221.708 41.1039L222.351 41.7887L222.995 42.4638L223.638 43.1285L224.281 43.7824L224.925 44.4246L225.568 45.0548L226.211 45.6723L226.854 46.2766L227.498 46.867L228.141 47.4432L228.784 48.0046L229.428 48.5506L230.071 49.0808L230.714 49.5948L231.358 50.0919L232.001 50.5719L232.644 51.0342L233.287 51.4785L233.931 51.9043L234.574 52.3112L235.217 52.699L235.861 53.0672L236.504 53.4155L237.147 53.7437L237.791 54.0513L238.434 54.3382L239.077 54.604L239.72 54.8486L240.364 55.0716L241.007 55.273L241.65 55.4526L242.294 55.6101L242.937 55.7454L243.58 55.8584L244.224 55.949L244.867 56.0172L245.51 56.0628L246.153 56.0858L246.797 56.0863L247.44 56.0641L248.083 56.0194L248.727 55.9521L249.37 55.8623L250.013 55.7501L250.657 55.6157L251.3 55.459L251.943 55.2803L252.586 55.0798L253.23 54.8575L253.873 54.6138L254.516 54.3487L255.16 54.0627L255.803 53.7558L256.446 53.4285L257.09 53.0809L257.733 52.7135L258.376 52.3264L259.02 51.9202L259.663 51.4951L260.306 51.0515L260.949 50.5899L261.593 50.1106L262.236 49.6141L262.879 49.1008L263.523 48.5712L264.166 48.0258L264.809 47.465L265.452 46.8894L266.096 46.2994L266.739 45.6957L267.382 45.0787L268.026 44.449L268.669 43.8072L269.312 43.1538L269.956 42.4894L270.599 41.8147L271.242 41.1303L271.885 40.4367L272.529 39.7346L273.172 39.0246L273.815 38.3073L274.459 37.5835L275.102 36.8537L275.745 36.1186L276.389 35.3788L277.032 34.6351L277.675 33.8882L278.318 33.1385L278.962 32.387L279.605 31.6341L280.248 30.8807L280.892 30.1273L281.535 29.3748L282.178 28.6236L282.822 27.8746L283.465 27.1283L284.108 26.3855L284.751 25.6468L285.395 24.913L286.038 24.1845L286.681 23.4622L287.325 22.7467L287.968 22.0385L288.611 21.3384L289.255 20.647L289.898 19.9648L290.541 19.2926L291.184 18.6308L291.828 17.9802L292.471 17.3412L293.114 16.7146L293.758 16.1007L294.401 15.5003L295.044 14.9137L295.688 14.3416L296.331 13.7845L296.974 13.2429L297.617 12.7172L298.261 12.2079L298.904 11.7155L299.547 11.2405L300.191 10.7832L300.834 10.3441L301.477 9.92349L302.121 9.52187L302.764 9.13955L303.407 8.77688L304.051 8.43418L304.694 8.11177L305.337 7.80993L305.98 7.52893L306.624 7.26903L307.267 7.03045L307.91 6.81343L308.554 6.61815L309.197 6.44478L309.84 6.29349L310.483 6.1644L311.127 6.05764L311.77 5.9733L312.413 5.91146L313.057 5.87217L313.7 5.85547L314.343 5.86137L314.987 5.88988L315.63 5.94094L316.273 6.01455L316.917 6.1106L317.56 6.22903L318.203 6.36974L318.846 6.53257L319.49 6.71741L320.133 6.92406L320.776 7.15236L321.42 7.4021L322.063 7.67305L322.706 7.96497L323.35 8.27758L323.993 8.61063L324.636 8.96379L325.279 9.33676L325.923 9.72921L326.566 10.1408L327.209 10.5711L327.853 11.0197L328.496 11.4864L329.139 11.9705L329.783 12.4718L330.426 12.9897L331.069 13.5238L331.712 14.0736L332.356 14.6386L332.999 15.2183L333.642 15.8121L334.286 16.4196L334.929 17.0403L335.572 17.6734L336.216 18.3185L336.859 18.975L337.502 19.6423L338.145 20.3198L338.789 21.0069L339.432 21.703L340.075 22.4074L340.719 23.1195L341.362 23.8386L342.005 24.5642L342.648 25.2956L343.292 26.032L343.935 26.7729L344.578 27.5176L345.222 28.2654L345.865 29.0156L346.508 29.7676L347.152 30.5207L347.795 31.2742L348.438 32.0274L349.082 32.7796L349.725 33.5303L350.368 34.2786L351.011 35.024L351.655 35.7657L352.298 36.503L352.941 37.2355L353.585 37.9622L354.228 38.6827L354.871 39.3963L355.515 40.1022L356.158 40.8L356.801 41.4889L357.444 42.1683L358.088 42.8377L358.731 43.4964L359.374 44.1438L360.018 44.7794L360.661 45.4025L361.304 46.0126L361.948 46.6092L362.591 47.1918L363.234 47.7597L363.877 48.3126L364.521 48.8498L365.164 49.3709L365.807 49.8755L366.451 50.3631L367.094 50.8332L367.737 51.2854L368.38 51.7194L369.024 52.1347L369.667 52.531L370.31 52.9078L370.954 53.2649L371.597 53.602L372.24 53.9186L372.884 54.2147L373.527 54.4898L374.17 54.7437L374.814 54.9763L375.457 55.1872L376.1 55.3764L376.743 55.5436L377.387 55.6887L378.03 55.8115L378.673 55.912L379.317 55.99L379.96 56.0455L380.603 56.0785L381.247 56.0889L381.89 56.0766L382.533 56.0418L383.176 55.9844L383.82 55.9045L384.463 55.8022L385.106 55.6775L385.75 55.5306L386.393 55.3616L387.036 55.1706L387.68 54.9579L388.323 54.7235L388.966 54.4678L389.609 54.191L390.253 53.8932L390.896 53.5748L391.539 53.2361L392.183 52.8774L392.826 52.4989L393.469 52.1011L394.113 51.6842L394.756 51.2487L395.399 50.795L396.042 50.3234L396.686 49.8344L397.329 49.3285L397.972 48.806L398.616 48.2674L399.259 47.7133L399.902 47.1442L400.546 46.5604L401.189 45.9627L401.832 45.3514L402.475 44.7273L403.119 44.0907L403.762 43.4423L404.405 42.7827L405.049 42.1125L405.692 41.4323L406.335 40.7426L406.978 40.0442L407.622 39.3375L408.265 38.6234L408.908 37.9024L409.552 37.1751L410.195 36.4423L410.838 35.7045L411.482 34.9624L412.125 34.2168L412.768 33.4683L413.411 32.7175L414.055 31.9651" stroke="#79CCDB" stroke-width="10"/>
<path d="M13.0233 28.1748L14.5654 26.4752L15.2087 25.736L15.852 25.0015L16.4953 24.2724L17.1386 23.5493L17.7819 22.8329L18.4252 22.1238L19.0685 21.4227L19.7118 20.7301L20.3551 20.0468L20.9984 19.3733L21.6417 18.7103L22.285 18.0583L22.9283 17.4179L23.5716 16.7897L24.2149 16.1743L24.8582 15.5722L25.5015 14.9839L26.1448 14.4101L26.7881 13.8511L27.4314 13.3076L28.0747 12.7799L28.718 12.2686L29.3613 11.7742L30.0046 11.297L30.6479 10.8375L31.2912 10.3962L31.9345 9.97337L32.5778 9.56944L33.2211 9.18476L33.8644 8.81969L34.5077 8.47457L35.151 8.14969L35.7943 7.84534L36.4376 7.56181L37.0809 7.29934L37.7242 7.05818L38.3675 6.83854L39.0108 6.64061L39.6541 6.46458L40.2974 6.31061L40.9407 6.17884L41.584 6.06937L42.2273 5.98231L42.8706 5.91775L43.5139 5.87573L44.1572 5.85629L44.8005 5.85946L45.4438 5.88523L46.0871 5.93357L46.7304 6.00445L47.3737 6.09779L48.017 6.21352L48.6603 6.35153L49.3036 6.5117L49.9469 6.69388L50.5902 6.89791L51.2335 7.1236L51.8768 7.37075L52.5201 7.63915L53.1634 7.92854L53.8067 8.23867L54.45 8.56926L55.0933 8.92001L55.7366 9.2906L56.3799 9.68071L57.0232 10.09L57.6665 10.518L58.3098 10.9645L58.9531 11.429L59.5964 11.911L60.2397 12.4102L60.883 12.9262L61.5263 13.4583L62.1696 14.0062L62.8129 14.5694L63.4562 15.1474L64.0995 15.7395L64.7428 16.3454L65.3861 16.9645L66.0294 17.5962L66.6727 18.2399L67.316 18.895L67.9593 19.5611L68.6026 20.2373L69.2459 20.9233L69.8892 21.6183L70.5325 22.3217L71.1758 23.0329L71.8191 23.7513L72.4624 24.4761L73.1057 25.2068L73.749 25.9427L74.3923 26.6831L75.0356 27.4273L75.6789 28.1748L76.3222 28.9248L76.9655 29.6766L77.6088 30.4296L78.2521 31.183L78.8954 31.9363L79.5387 32.6887L80.182 33.4396L80.8253 34.1882L81.4686 34.934L82.1119 35.6761L82.7552 36.4141L83.3985 37.1471L84.0418 37.8746L84.6851 38.5959L85.3284 39.3103L85.9717 40.0173L86.615 40.716L87.2583 41.406L87.9016 42.0867L88.5449 42.7573L89.1882 43.4173L89.8315 44.0661L90.4748 44.7031L91.1181 45.3278L91.7614 45.9395L92.4047 46.5378L93.048 47.1221L93.6913 47.6918L94.3346 48.2465L94.9779 48.7856L95.6212 49.3088L96.2645 49.8154L96.9078 50.305L97.5511 50.7773L98.1944 51.2317L98.8377 51.6679L99.481 52.0855L100.124 52.484L100.768 52.8633L101.411 53.2228L102.054 53.5623L102.698 53.8814L103.341 54.18L103.984 54.4576L104.627 54.7141L105.271 54.9493L105.914 55.1628L106.557 55.3547L107.201 55.5245L107.844 55.6723L108.487 55.7978L109.131 55.901L109.774 55.9818L110.417 56.04L111.06 56.0757L111.704 56.0888L112.347 56.0793L112.99 56.0472L113.634 55.9926L114.277 55.9154L114.92 55.8157L115.564 55.6938L116.207 55.5495L116.85 55.3832L117.493 55.1949L118.137 54.9847L118.78 54.753L119.423 54.4999L120.067 54.2256L120.71 53.9303L121.353 53.6145L121.997 53.2782L122.64 52.9218L123.283 52.5457L123.926 52.1502L124.57 51.7357L125.213 51.3024L125.856 50.8508L126.5 50.3814L127.143 49.8945L127.786 49.3906L128.43 48.87L129.073 48.3334L129.716 47.7812L130.359 47.2138L131.003 46.6318L131.646 46.0357L132.289 45.4261L132.933 44.8034L133.576 44.1683L134.219 43.5214L134.863 42.8631L135.506 42.1941L136.149 41.5151L136.792 40.8265L137.436 40.1291L138.079 39.4234L138.722 38.7102L139.366 37.9899L140.009 37.2634L140.652 36.5312L141.296 35.794L141.939 35.0524L142.582 34.3072L143.225 33.559L143.869 32.8084L144.512 32.0562L145.155 31.303L145.799 30.5495L146.442 29.7964L147.085 29.0444L147.729 28.2941L148.372 27.5462L149.015 26.8014L149.658 26.0603L150.302 25.3237L150.945 24.5921L151.588 23.8663L152.232 23.1469L152.875 22.4345L153.518 21.7298L154.162 21.0334L154.805 20.346L155.448 19.6681L156.091 19.0004L156.735 18.3435L157.378 17.6979L158.021 17.0643L158.665 16.4432L159.308 15.8351L159.951 15.2407L160.595 14.6605L161.238 14.0949L161.881 13.5445L162.524 13.0098L163.168 12.4913L163.811 11.9894L164.454 11.5046L165.098 11.0373L165.741 10.5879L166.384 10.1569L167.028 9.74462L167.671 9.35144L168.314 8.97771L168.957 8.62378L169.601 8.28996L170.244 7.97656L170.887 7.68384L171.531 7.41208L172.174 7.16153L172.817 6.9324L173.461 6.72492L174.104 6.53924L174.747 6.37556L175.39 6.23401L176.034 6.11473L176.677 6.01781L177.32 5.94335L177.964 5.89141L178.607 5.86206L179.25 5.85529L179.894 5.87112L180.537 5.90955L181.18 5.97052L181.823 6.054L182.467 6.1599L183.11 6.28814L183.753 6.43858L184.397 6.61111L185.04 6.80555L185.683 7.02175L186.327 7.2595L186.97 7.51859L187.613 7.79878L188.256 8.09983L188.9 8.42146L189.543 8.76339L190.186 9.1253L190.83 9.50687L191.473 9.90776L192.116 10.3276L192.76 10.766L193.403 11.2226L194.046 11.697L194.689 12.1887L195.333 12.6974L195.976 13.2225L196.619 13.7635L197.263 14.32L197.906 14.8916L198.549 15.4776L199.193 16.0775L199.836 16.6908L200.479 17.317L201.122 17.9555L201.766 18.6057L202.409 19.267L203.052 19.9389L203.696 20.6207L204.339 21.3118L204.982 22.0116L205.626 22.7194L206.269 23.4347L206.912 24.1568L207.555 24.885L208.199 25.6187L208.842 26.3572L209.485 27.0998L210.129 27.8459L210.772 28.5949L211.415 29.346L212.059 30.0985L212.702 30.8519L213.345 31.6053L213.988 32.3582L214.632 33.1098L215.275 33.8595L215.918 34.6066L216.562 35.3504L217.205 36.0903L217.848 36.8256L218.492 37.5556L219.135 38.2797L219.778 38.9972L220.421 39.7075L221.065 40.41L221.708 41.1039L222.351 41.7887L222.995 42.4638L223.638 43.1285L224.281 43.7824L224.925 44.4246L225.568 45.0548L226.211 45.6723L226.854 46.2766L227.498 46.867L228.141 47.4432L228.784 48.0046L229.428 48.5506L230.071 49.0808L230.714 49.5948L231.358 50.0919L232.001 50.5719L232.644 51.0342L233.287 51.4785L233.931 51.9043L234.574 52.3112L235.217 52.699L235.861 53.0672L236.504 53.4155L237.147 53.7437L237.791 54.0513L238.434 54.3382L239.077 54.604L239.72 54.8486L240.364 55.0716L241.007 55.273L241.65 55.4526L242.294 55.6101L242.937 55.7454L243.58 55.8584L244.224 55.949L244.867 56.0172L245.51 56.0628L246.153 56.0858L246.797 56.0863L247.44 56.0641L248.083 56.0194L248.727 55.9521L249.37 55.8623L250.013 55.7501L250.657 55.6157L251.3 55.459L251.943 55.2803L252.586 55.0798L253.23 54.8575L253.873 54.6138L254.516 54.3487L255.16 54.0627L255.803 53.7558L256.446 53.4285L257.09 53.0809L257.733 52.7135L258.376 52.3264L259.02 51.9202L259.663 51.4951L260.306 51.0515L260.949 50.5899L261.593 50.1106L262.236 49.6141L262.879 49.1008L263.523 48.5712L264.166 48.0258L264.809 47.465L265.452 46.8894L266.096 46.2994L266.739 45.6957L267.382 45.0787L268.026 44.449L268.669 43.8072L269.312 43.1538L269.956 42.4894L270.599 41.8147L271.242 41.1303L271.885 40.4367L272.529 39.7346L273.172 39.0246L273.815 38.3073L274.459 37.5835L275.102 36.8537L275.745 36.1186L276.389 35.3788L277.032 34.6351L277.675 33.8882L278.318 33.1385L278.962 32.387L279.605 31.6341L280.248 30.8807L280.892 30.1273L281.535 29.3748L282.178 28.6236L282.822 27.8746L283.465 27.1283L284.108 26.3855L284.751 25.6468L285.395 24.913L286.038 24.1845L286.681 23.4622L287.325 22.7467L287.968 22.0385L288.611 21.3384L289.255 20.647L289.898 19.9648L290.541 19.2926L291.184 18.6308L291.828 17.9802L292.471 17.3412L293.114 16.7146L293.758 16.1007L294.401 15.5003L295.044 14.9137L295.688 14.3416L296.331 13.7845L296.974 13.2429L297.617 12.7172L298.261 12.2079L298.904 11.7155L299.547 11.2405L300.191 10.7832L300.834 10.3441L301.477 9.92349L302.121 9.52187L302.764 9.13955L303.407 8.77688L304.051 8.43418L304.694 8.11177L305.337 7.80993L305.98 7.52893L306.624 7.26903L307.267 7.03045L307.91 6.81343L308.554 6.61815L309.197 6.44478L309.84 6.29349L310.483 6.1644L311.127 6.05764L311.77 5.9733L312.413 5.91146L313.057 5.87217L313.7 5.85547L314.343 5.86137L314.987 5.88988L315.63 5.94094L316.273 6.01455L316.917 6.1106L317.56 6.22903L318.203 6.36974L318.846 6.53257L319.49 6.71741L320.133 6.92406L320.776 7.15236L321.42 7.4021L322.063 7.67305L322.706 7.96497L323.35 8.27758L323.993 8.61063L324.636 8.96379L325.279 9.33676L325.923 9.72921L326.566 10.1408L327.209 10.5711L327.853 11.0197L328.496 11.4864L329.139 11.9705L329.783 12.4718L330.426 12.9897L331.069 13.5238L331.712 14.0736L332.356 14.6386L332.999 15.2183L333.642 15.8121L334.286 16.4196L334.929 17.0403L335.572 17.6734L336.216 18.3185L336.859 18.975L337.502 19.6423L338.145 20.3198L338.789 21.0069L339.432 21.703L340.075 22.4074L340.719 23.1195L341.362 23.8386L342.005 24.5642L342.648 25.2956L343.292 26.032L343.935 26.7729L344.578 27.5176L345.222 28.2654L345.865 29.0156L346.508 29.7676L347.152 30.5207L347.795 31.2742L348.438 32.0274L349.082 32.7796L349.725 33.5303L350.368 34.2786L351.011 35.024L351.655 35.7657L352.298 36.503L352.941 37.2355L353.585 37.9622L354.228 38.6827L354.871 39.3963L355.515 40.1022L356.158 40.8L356.801 41.4889L357.444 42.1683L358.088 42.8377L358.731 43.4964L359.374 44.1438L360.018 44.7794L360.661 45.4025L361.304 46.0126L361.948 46.6092L362.591 47.1918L363.234 47.7597L363.877 48.3126L364.521 48.8498L365.164 49.3709L365.807 49.8755L366.451 50.3631L367.094 50.8332L367.737 51.2854L368.38 51.7194L369.024 52.1347L369.667 52.531L370.31 52.9078L370.954 53.2649L371.597 53.602L372.24 53.9186L372.884 54.2147L373.527 54.4898L374.17 54.7437L374.814 54.9763L375.457 55.1872L376.1 55.3764L376.743 55.5436L377.387 55.6887L378.03 55.8115L378.673 55.912L379.317 55.99L379.96 56.0455L380.603 56.0785L381.247 56.0889L381.89 56.0766L382.533 56.0418L383.176 55.9844L383.82 55.9045L384.463 55.8022L385.106 55.6775L385.75 55.5306L386.393 55.3616L387.036 55.1706L387.68 54.9579L388.323 54.7235L388.966 54.4678L389.609 54.191L390.253 53.8932L390.896 53.5748L391.539 53.2361L392.183 52.8774L392.826 52.4989L393.469 52.1011L394.113 51.6842L394.756 51.2487L395.399 50.795L396.042 50.3234L396.686 49.8344L397.329 49.3285L397.972 48.806L398.616 48.2674L399.259 47.7133L399.902 47.1442L400.546 46.5604L401.189 45.9627L401.832 45.3514L402.475 44.7273L403.119 44.0907L403.762 43.4423L404.405 42.7827L405.049 42.1125L405.692 41.4323L406.335 40.7426L406.978 40.0442L407.622 39.3375L408.265 38.6234L408.908 37.9024L409.552 37.1751L410.195 36.4423L410.838 35.7045L411.482 34.9624L412.125 34.2168L412.768 33.4683L413.411 32.7175L414.055 31.9651" stroke="url(#paint1_linear)" stroke-width="10"/>
</g>
<path d="M146.142 38.0964C143.48 35.0061 141.929 33.1841 139.026 29.7242L144.049 23.0264C146.849 25.674 149.067 28.5065 151.166 31.3986L146.142 38.0964Z" fill="#79CCDB"/>
<path d="M286 44.8163C283.258 41.5442 275.99 33.8779 273 30.2145L279.933 22.8027C282.816 25.6061 290.339 35.754 292.5 38.8163L286 44.8163Z" fill="#79CCDB"/>
<path d="M149.5 42.8027C146.929 39.7124 140.803 33.2626 138 29.8027L144 22.3027C146.703 24.9504 153.974 33.9241 156 36.8163L149.5 42.8027Z" fill="#79CCDB"/>
<path d="M417 40.5C413.93 36.6038 411.348 34.6094 408 30.2472L413.793 21.8027C417.022 25.1408 419.58 28.7119 422 32.3583L417 40.5Z" fill="#79CCDB"/>
<g filter="url(#filter4_d)">
<circle cx="841" cy="35" r="4" fill="#79CCDB"/>
</g>
<g filter="url(#filter5_d)">
<circle cx="867" cy="35" r="4" fill="#79CCDB"/>
</g>
<g filter="url(#filter6_d)">
<circle cx="854" cy="35" r="4" fill="#79CCDB"/>
</g>
<defs>
<filter id="filter0_d" x="405" y="1.85449" width="426" height="68.235" filterUnits="userSpaceOnUse" color-interpolation-filters="sRGB">
<feFlood flood-opacity="0" result="BackgroundImageFix"/>
<feColorMatrix in="SourceAlpha" type="matrix" values="0 0 0 0 0 0 0 0 0 0 0 0 0 0 0 0 0 0 127 0"/>
<feOffset dy="4"/>
<feGaussianBlur stdDeviation="2"/>
<feColorMatrix type="matrix" values="0 0 0 0 0 0 0 0 0 0 0 0 0 0 0 0 0 0 0.25 0"/>
<feBlend mode="normal" in2="BackgroundImageFix" result="effect1_dropShadow"/>
<feBlend mode="normal" in="SourceGraphic" in2="effect1_dropShadow" result="shape"/>
</filter>
<filter id="filter1_d" x="410.32" y="1.85449" width="416.535" height="68.235" filterUnits="userSpaceOnUse" color-interpolation-filters="sRGB">
<feFlood flood-opacity="0" result="BackgroundImageFix"/>
<feColorMatrix in="SourceAlpha" type="matrix" values="0 0 0 0 0 0 0 0 0 0 0 0 0 0 0 0 0 0 127 0"/>
<feOffset dy="4"/>
<feGaussianBlur stdDeviation="2"/>
<feColorMatrix type="matrix" values="0 0 0 0 0 0 0 0 0 0 0 0 0 0 0 0 0 0 0.25 0"/>
<feBlend mode="normal" in2="BackgroundImageFix" result="effect1_dropShadow"/>
<feBlend mode="normal" in="SourceGraphic" in2="effect1_dropShadow" result="shape"/>
</filter>
<filter id="filter2_d" x="0.18158" y="0.854492" width="421.673" height="68.235" filterUnits="userSpaceOnUse" color-interpolation-filters="sRGB">
<feFlood flood-opacity="0" result="BackgroundImageFix"/>
<feColorMatrix in="SourceAlpha" type="matrix" values="0 0 0 0 0 0 0 0 0 0 0 0 0 0 0 0 0 0 127 0"/>
<feOffset dy="4"/>
<feGaussianBlur stdDeviation="2"/>
<feColorMatrix type="matrix" values="0 0 0 0 0 0 0 0 0 0 0 0 0 0 0 0 0 0 0.25 0"/>
<feBlend mode="normal" in2="BackgroundImageFix" result="effect1_dropShadow"/>
<feBlend mode="normal" in="SourceGraphic" in2="effect1_dropShadow" result="shape"/>
</filter>
<filter id="filter3_d" x="5.32031" y="0.854492" width="416.535" height="68.235" filterUnits="userSpaceOnUse" color-interpolation-filters="sRGB">
<feFlood flood-opacity="0" result="BackgroundImageFix"/>
<feColorMatrix in="SourceAlpha" type="matrix" values="0 0 0 0 0 0 0 0 0 0 0 0 0 0 0 0 0 0 127 0"/>
<feOffset dy="4"/>
<feGaussianBlur stdDeviation="2"/>
<feColorMatrix type="matrix" values="0 0 0 0 0 0 0 0 0 0 0 0 0 0 0 0 0 0 0.25 0"/>
<feBlend mode="normal" in2="BackgroundImageFix" result="effect1_dropShadow"/>
<feBlend mode="normal" in="SourceGraphic" in2="effect1_dropShadow" result="shape"/>
</filter>
<filter id="filter4_d" x="833" y="31" width="16" height="16" filterUnits="userSpaceOnUse" color-interpolation-filters="sRGB">
<feFlood flood-opacity="0" result="BackgroundImageFix"/>
<feColorMatrix in="SourceAlpha" type="matrix" values="0 0 0 0 0 0 0 0 0 0 0 0 0 0 0 0 0 0 127 0"/>
<feOffset dy="4"/>
<feGaussianBlur stdDeviation="2"/>
<feColorMatrix type="matrix" values="0 0 0 0 0 0 0 0 0 0 0 0 0 0 0 0 0 0 0.25 0"/>
<feBlend mode="normal" in2="BackgroundImageFix" result="effect1_dropShadow"/>
<feBlend mode="normal" in="SourceGraphic" in2="effect1_dropShadow" result="shape"/>
</filter>
<filter id="filter5_d" x="859" y="31" width="16" height="16" filterUnits="userSpaceOnUse" color-interpolation-filters="sRGB">
<feFlood flood-opacity="0" result="BackgroundImageFix"/>
<feColorMatrix in="SourceAlpha" type="matrix" values="0 0 0 0 0 0 0 0 0 0 0 0 0 0 0 0 0 0 127 0"/>
<feOffset dy="4"/>
<feGaussianBlur stdDeviation="2"/>
<feColorMatrix type="matrix" values="0 0 0 0 0 0 0 0 0 0 0 0 0 0 0 0 0 0 0.25 0"/>
<feBlend mode="normal" in2="BackgroundImageFix" result="effect1_dropShadow"/>
<feBlend mode="normal" in="SourceGraphic" in2="effect1_dropShadow" result="shape"/>
</filter>
<filter id="filter6_d" x="846" y="31" width="16" height="16" filterUnits="userSpaceOnUse" color-interpolation-filters="sRGB">
<feFlood flood-opacity="0" result="BackgroundImageFix"/>
<feColorMatrix in="SourceAlpha" type="matrix" values="0 0 0 0 0 0 0 0 0 0 0 0 0 0 0 0 0 0 127 0"/>
<feOffset dy="4"/>
<feGaussianBlur stdDeviation="2"/>
<feColorMatrix type="matrix" values="0 0 0 0 0 0 0 0 0 0 0 0 0 0 0 0 0 0 0.25 0"/>
<feBlend mode="normal" in2="BackgroundImageFix" result="effect1_dropShadow"/>
<feBlend mode="normal" in="SourceGraphic" in2="effect1_dropShadow" result="shape"/>
</filter>
<linearGradient id="paint0_linear" x1="617.702" y1="57.0889" x2="617.702" y2="6.85529" gradientUnits="userSpaceOnUse">
<stop stop-color="white"/>
<stop offset="1" stop-color="white" stop-opacity="0"/>
</linearGradient>
<linearGradient id="paint1_linear" x1="212.702" y1="56.0889" x2="212.702" y2="5.85529" gradientUnits="userSpaceOnUse">
<stop stop-color="white"/>
<stop offset="1" stop-color="white" stop-opacity="0"/>
</linearGradient>
</defs>
</svg>
