<svg width="830" height="209" viewBox="0 0 830 209" fill="none" xmlns="http://www.w3.org/2000/svg">
<g filter="url(#filter0_d)">
<circle cx="67.2653" cy="108.367" r="63.2653" fill="#5B41A9"/>
<circle r="15.8163" transform="matrix(1 0 0 -1 66.6326 107.735)" fill="#BD63D2"/>
<path d="M67.9724 27.9459C67.5819 27.5554 66.9487 27.5554 66.5582 27.9459L60.1943 34.3099C59.8037 34.7004 59.8037 35.3336 60.1943 35.7241C60.5848 36.1146 61.2179 36.1146 61.6085 35.7241L67.2653 30.0672L72.9222 35.7241C73.3127 36.1146 73.9459 36.1146 74.3364 35.7241C74.7269 35.3336 74.7269 34.7004 74.3364 34.3099L67.9724 27.9459ZM68.2653 108.367V28.653H66.2653V108.367H68.2653Z" fill="#C9D1D9"/>
<path d="M34.25 21.7578L34.1016 20.5391H34.3281C34.8594 20.5391 35.2135 20.4688 35.3906 20.3281C35.5677 20.1927 35.6823 20.0234 35.7344 19.8203C35.7865 19.6224 35.8125 19.3594 35.8125 19.0312V10.7188H37.2812V18.9453C37.2812 20.3047 36.9688 21.1458 36.3438 21.4688C35.974 21.6615 35.4479 21.7578 34.7656 21.7578H34.25ZM35.8125 9.22656V7.70312H37.2812V9.22656H35.8125ZM43.3047 19.1719C42.0911 19.1719 41.2135 18.9193 40.6719 18.4141C40.1302 17.9089 39.8594 17.1302 39.8594 16.0781V13.1953C39.8594 12.3776 40.138 11.7344 40.6953 11.2656C41.2526 10.7969 42.0938 10.5625 43.2188 10.5625C44.349 10.5625 45.1875 10.7812 45.7344 11.2188C46.2865 11.651 46.5625 12.2708 46.5625 13.0781V15.0469H41.3281V16.2109C41.3281 16.8984 41.4661 17.3776 41.7422 17.6484C42.0182 17.9141 42.5156 18.0469 43.2344 18.0469C43.9531 18.0469 44.3594 18.0312 44.4531 18C44.5469 17.9688 44.6432 17.9323 44.7422 17.8906C44.8411 17.849 44.9089 17.7995 44.9453 17.7422C44.987 17.6849 45.0391 17.599 45.1016 17.4844C45.1693 17.3646 45.2188 17.1354 45.25 16.7969H46.5469C46.4948 17.2917 46.4062 17.6901 46.2812 17.9922C46.1615 18.2943 45.9688 18.5365 45.7031 18.7188C45.4427 18.8958 45.1276 19.0156 44.7578 19.0781C44.3932 19.1406 43.9089 19.1719 43.3047 19.1719ZM41.3281 14.0547H45.1406V12.9219C45.1406 12.4531 44.9792 12.1302 44.6562 11.9531C44.3385 11.776 43.8698 11.6875 43.25 11.6875C42.6302 11.6875 42.1536 11.7943 41.8203 12.0078C41.4922 12.2214 41.3281 12.5729 41.3281 13.0625V14.0547ZM52.3672 10.5625C53.0339 10.5625 53.6458 10.6667 54.2031 10.875V7.23438H55.6719V19H54.6719L54.4297 18.4531C54.1745 18.651 53.8385 18.8203 53.4219 18.9609C53.0052 19.1016 52.5938 19.1719 52.1875 19.1719C51.0573 19.1719 50.2266 18.9219 49.6953 18.4219C49.1693 17.9167 48.9062 17.237 48.9062 16.3828V13.2578C48.9062 12.3984 49.1901 11.7344 49.7578 11.2656C50.3255 10.7969 51.1953 10.5625 52.3672 10.5625ZM50.375 16.4922C50.375 16.987 50.5495 17.3646 50.8984 17.625C51.2526 17.8854 51.6667 18.0156 52.1406 18.0156C52.9844 18.0156 53.6719 17.8516 54.2031 17.5234V12.0312C53.7292 11.8021 53.1536 11.6875 52.4766 11.6875C51.0755 11.6875 50.375 12.1562 50.375 13.0938V16.4922ZM58.5781 19V10.7188H60.0469V11.8906C60.2344 11.3802 60.7422 11.0104 61.5703 10.7812C62.0026 10.6562 62.4531 10.5964 62.9219 10.6016L62.875 11.8594C62.1667 11.8594 61.5182 12 60.9297 12.2812C60.3411 12.5625 60.0469 12.8698 60.0469 13.2031V19H58.5781ZM65.9531 16.6641C65.9531 17.5859 66.6068 18.0469 67.9141 18.0469C69.2214 18.0469 69.875 17.5859 69.875 16.6641V13.0781C69.875 12.151 69.2214 11.6875 67.9141 11.6875C66.6068 11.6875 65.9531 12.151 65.9531 13.0781V16.6641ZM71.3438 16.5391C71.3438 17.3516 71.0651 17.9948 70.5078 18.4688C69.9557 18.9375 69.0885 19.1719 67.9062 19.1719C66.724 19.1719 65.8568 18.9375 65.3047 18.4688C64.7578 18 64.4844 17.3568 64.4844 16.5391V13.2031C64.4844 12.3854 64.7578 11.7422 65.3047 11.2734C65.8568 10.7995 66.724 10.5625 67.9062 10.5625C69.0885 10.5625 69.9557 10.7995 70.5078 11.2734C71.0651 11.7474 71.3438 12.3906 71.3438 13.2031V16.5391ZM80.5391 9.28906L81.4766 6.625H83.2344L81.3672 9.28906H80.5391ZM81.0234 19.1719C79.3307 19.1719 78.2708 18.5833 77.8438 17.4062C77.7188 17.0729 77.6562 16.7083 77.6562 16.3125V13.1562C77.6562 12.3698 77.9557 11.7422 78.5547 11.2734C79.1536 10.7995 79.9635 10.5625 80.9844 10.5625C82.2865 10.5625 83.1823 10.8438 83.6719 11.4062C84.0573 11.8438 84.25 12.4896 84.25 13.3438L82.8516 13.4766C82.8516 12.737 82.7188 12.2552 82.4531 12.0312C82.1927 11.8021 81.7266 11.6875 81.0547 11.6875C80.3828 11.6875 79.8932 11.8047 79.5859 12.0391C79.2786 12.2734 79.125 12.6589 79.125 13.1953V16.4375C79.125 17.0104 79.2865 17.4219 79.6094 17.6719C79.9323 17.9219 80.4297 18.0469 81.1016 18.0469C81.7786 18.0469 82.2292 17.9583 82.4531 17.7812C82.6823 17.6042 82.8229 17.2031 82.875 16.5781H84.2344C84.151 17.5365 83.875 18.2083 83.4062 18.5938C82.9375 18.9792 82.1432 19.1719 81.0234 19.1719ZM89.7734 19.1719C88.5599 19.1719 87.6823 18.9193 87.1406 18.4141C86.599 17.9089 86.3281 17.1302 86.3281 16.0781V13.1953C86.3281 12.3776 86.6068 11.7344 87.1641 11.2656C87.7214 10.7969 88.5625 10.5625 89.6875 10.5625C90.8177 10.5625 91.6562 10.7812 92.2031 11.2188C92.7552 11.651 93.0312 12.2708 93.0312 13.0781V15.0469H87.7969V16.2109C87.7969 16.8984 87.9349 17.3776 88.2109 17.6484C88.487 17.9141 88.9844 18.0469 89.7031 18.0469C90.4219 18.0469 90.8281 18.0312 90.9219 18C91.0156 17.9688 91.112 17.9323 91.2109 17.8906C91.3099 17.849 91.3776 17.7995 91.4141 17.7422C91.4557 17.6849 91.5078 17.599 91.5703 17.4844C91.638 17.3646 91.6875 17.1354 91.7188 16.7969H93.0156C92.9635 17.2917 92.875 17.6901 92.75 17.9922C92.6302 18.2943 92.4375 18.5365 92.1719 18.7188C91.9115 18.8958 91.5964 19.0156 91.2266 19.0781C90.862 19.1406 90.3776 19.1719 89.7734 19.1719ZM87.7969 14.0547H91.6094V12.9219C91.6094 12.4531 91.4479 12.1302 91.125 11.9531C90.8073 11.776 90.3385 11.6875 89.7188 11.6875C89.099 11.6875 88.6224 11.7943 88.2891 12.0078C87.9609 12.2214 87.7969 12.5729 87.7969 13.0625V14.0547ZM98.3594 19.0625C97.875 19.0625 97.4792 19.026 97.1719 18.9531C96.8646 18.8802 96.5938 18.7422 96.3594 18.5391C95.9219 18.1589 95.7031 17.3802 95.7031 16.2031V7.24219H97.1719V16.2188C97.1719 16.8854 97.2708 17.3203 97.4688 17.5234C97.6667 17.7266 98.0755 17.8281 98.6953 17.8281H98.9531L98.7812 19.0625H98.3594ZM101.266 19V10.7188H102.734V19H101.266ZM101.266 9.22656V7.70312H102.734V9.22656H101.266ZM104.562 21.7578L104.414 20.5391H104.641C105.172 20.5391 105.526 20.4688 105.703 20.3281C105.88 20.1927 105.995 20.0234 106.047 19.8203C106.099 19.6224 106.125 19.3594 106.125 19.0312V10.7188H107.594V18.9453C107.594 20.3047 107.281 21.1458 106.656 21.4688C106.286 21.6615 105.76 21.7578 105.078 21.7578H104.562ZM106.125 9.22656V7.70312H107.594V9.22656H106.125ZM113.617 19.1719C112.404 19.1719 111.526 18.9193 110.984 18.4141C110.443 17.9089 110.172 17.1302 110.172 16.0781V13.1953C110.172 12.3776 110.451 11.7344 111.008 11.2656C111.565 10.7969 112.406 10.5625 113.531 10.5625C114.661 10.5625 115.5 10.7812 116.047 11.2188C116.599 11.651 116.875 12.2708 116.875 13.0781V15.0469H111.641V16.2109C111.641 16.8984 111.779 17.3776 112.055 17.6484C112.331 17.9141 112.828 18.0469 113.547 18.0469C114.266 18.0469 114.672 18.0312 114.766 18C114.859 17.9688 114.956 17.9323 115.055 17.8906C115.154 17.849 115.221 17.7995 115.258 17.7422C115.299 17.6849 115.352 17.599 115.414 17.4844C115.482 17.3646 115.531 17.1354 115.562 16.7969H116.859C116.807 17.2917 116.719 17.6901 116.594 17.9922C116.474 18.2943 116.281 18.5365 116.016 18.7188C115.755 18.8958 115.44 19.0156 115.07 19.0781C114.706 19.1406 114.221 19.1719 113.617 19.1719ZM111.641 14.0547H115.453V12.9219C115.453 12.4531 115.292 12.1302 114.969 11.9531C114.651 11.776 114.182 11.6875 113.562 11.6875C112.943 11.6875 112.466 11.7943 112.133 12.0078C111.805 12.2214 111.641 12.5729 111.641 13.0625V14.0547Z" fill="#C9D1D9"/>
<path d="M7.60156 198.172C6.38802 198.172 5.51042 197.919 4.96875 197.414C4.42708 196.909 4.15625 196.13 4.15625 195.078V192.195C4.15625 191.378 4.4349 190.734 4.99219 190.266C5.54948 189.797 6.39062 189.562 7.51562 189.562C8.64583 189.562 9.48438 189.781 10.0312 190.219C10.5833 190.651 10.8594 191.271 10.8594 192.078V194.047H5.625V195.211C5.625 195.898 5.76302 196.378 6.03906 196.648C6.3151 196.914 6.8125 197.047 7.53125 197.047C8.25 197.047 8.65625 197.031 8.75 197C8.84375 196.969 8.9401 196.932 9.03906 196.891C9.13802 196.849 9.20573 196.799 9.24219 196.742C9.28385 196.685 9.33594 196.599 9.39844 196.484C9.46615 196.365 9.51562 196.135 9.54688 195.797H10.8438C10.7917 196.292 10.7031 196.69 10.5781 196.992C10.4583 197.294 10.2656 197.536 10 197.719C9.73958 197.896 9.42448 198.016 9.05469 198.078C8.6901 198.141 8.20573 198.172 7.60156 198.172ZM5.625 193.055H9.4375V191.922C9.4375 191.453 9.27604 191.13 8.95312 190.953C8.63542 190.776 8.16667 190.688 7.54688 190.688C6.92708 190.688 6.45052 190.794 6.11719 191.008C5.78906 191.221 5.625 191.573 5.625 192.062V193.055ZM16.2734 198.172C14.862 198.172 13.9661 197.672 13.5859 196.672C13.4766 196.385 13.4219 196.073 13.4219 195.734V189.719H14.8906V195.742C14.8906 196.148 15.0391 196.469 15.3359 196.703C15.638 196.932 16.0859 197.047 16.6797 197.047C17.2734 197.047 17.7552 196.901 18.125 196.609C18.5 196.312 18.6875 195.971 18.6875 195.586V189.719H20.1562V198H18.8438L18.6875 196.961C18.2292 197.768 17.4245 198.172 16.2734 198.172ZM23.0625 198V186.234H24.5312V193.906L28.4922 189.719H30.1016L26.7344 193.359L30.4375 198H28.7422L25.7734 194.156L24.5312 195.391V198H23.0625ZM34.2891 198.172C33.4505 198.172 32.7995 197.945 32.3359 197.492C31.8724 197.034 31.6406 196.466 31.6406 195.789C31.6406 195.404 31.7214 195.083 31.8828 194.828C32.2109 194.307 33.1901 193.81 34.8203 193.336C35.763 193.076 36.3047 192.852 36.4453 192.664C36.5911 192.477 36.6719 192.331 36.6875 192.227C36.7031 192.117 36.7109 191.945 36.7109 191.711C36.7109 191.477 36.6146 191.247 36.4219 191.023C36.2344 190.799 35.8229 190.688 35.1875 190.688C34.2917 190.688 33.7422 190.859 33.5391 191.203C33.4349 191.38 33.3828 191.62 33.3828 191.922V192.289H31.9688V191.914C31.9688 191.107 32.237 190.513 32.7734 190.133C33.3151 189.753 34.1224 189.562 35.1953 189.562C36.2682 189.562 37.0339 189.807 37.4922 190.297C37.9505 190.781 38.1797 191.474 38.1797 192.375V195.906C38.1797 196.339 38.2344 196.62 38.3438 196.75C38.4531 196.875 38.6875 196.938 39.0469 196.938L38.875 198.062H38.5781C38.0573 198.062 37.6693 197.964 37.4141 197.766C37.1589 197.562 36.9635 197.25 36.8281 196.828C36.3958 197.474 35.875 197.88 35.2656 198.047C34.974 198.13 34.6484 198.172 34.2891 198.172ZM35.0234 194.344C34.2839 194.557 33.7708 194.771 33.4844 194.984C33.2031 195.198 33.0625 195.5 33.0625 195.891C33.0625 196.276 33.1927 196.568 33.4531 196.766C33.7188 196.964 34.0365 197.062 34.4062 197.062C34.7812 197.062 35.1198 197.016 35.4219 196.922C35.724 196.823 35.9948 196.68 36.2344 196.492C36.4792 196.299 36.638 196.081 36.7109 195.836V193.445C36.3307 193.826 35.7682 194.125 35.0234 194.344ZM41.2188 198V189.719H42.6875V190.891C42.875 190.38 43.3828 190.01 44.2109 189.781C44.6432 189.656 45.0938 189.596 45.5625 189.602L45.5156 190.859C44.8073 190.859 44.1589 191 43.5703 191.281C42.9818 191.562 42.6875 191.87 42.6875 192.203V198H41.2188ZM47.5781 198V189.719H49.0469V198H47.5781ZM47.5781 188.227V186.703H49.0469V188.227H47.5781ZM53.25 195.664C53.25 196.586 53.9036 197.047 55.2109 197.047C56.5182 197.047 57.1719 196.586 57.1719 195.664V192.078C57.1719 191.151 56.5182 190.688 55.2109 190.688C53.9036 190.688 53.25 191.151 53.25 192.078V195.664ZM58.6406 195.539C58.6406 196.352 58.362 196.995 57.8047 197.469C57.2526 197.938 56.3854 198.172 55.2031 198.172C54.0208 198.172 53.1536 197.938 52.6016 197.469C52.0547 197 51.7812 196.357 51.7812 195.539V192.203C51.7812 191.385 52.0547 190.742 52.6016 190.273C53.1536 189.799 54.0208 189.562 55.2031 189.562C56.3854 189.562 57.2526 189.799 57.8047 190.273C58.362 190.747 58.6406 191.391 58.6406 192.203V195.539ZM65.0781 198.062C63.9219 198.062 63.0859 197.88 62.5703 197.516C62.0599 197.151 61.8047 196.523 61.8047 195.633V190.828H60.4219V189.719H61.8594L62.0391 187.156H63.2734V189.719H65.3516V190.828H63.2734V195.539C63.2734 196.06 63.4219 196.406 63.7188 196.578C64.0208 196.745 64.5443 196.828 65.2891 196.828H65.4531L65.2969 198.062H65.0781ZM70.2891 197.047C71.3984 197.047 71.9531 196.633 71.9531 195.805C71.9531 195.445 71.9036 195.18 71.8047 195.008C71.7057 194.831 71.474 194.674 71.1094 194.539L69.1406 193.812C68.5365 193.599 68.1146 193.346 67.875 193.055C67.6406 192.758 67.5234 192.388 67.5234 191.945C67.5234 191.503 67.5677 191.148 67.6562 190.883C67.7448 190.612 67.8906 190.375 68.0938 190.172C68.5 189.766 69.2292 189.562 70.2812 189.562C71.3333 189.562 72.2396 189.714 73 190.016L72.6641 191.141C72.3984 191.031 72.0495 190.93 71.6172 190.836C71.1849 190.737 70.8073 190.688 70.4844 190.688C69.7396 190.688 69.2682 190.807 69.0703 191.047C68.9505 191.198 68.8906 191.419 68.8906 191.711C68.8906 192.003 68.9375 192.211 69.0312 192.336C69.1302 192.456 69.3203 192.565 69.6016 192.664L71.5469 193.43C72.224 193.695 72.6693 193.99 72.8828 194.312C73.0964 194.63 73.2031 195.133 73.2031 195.82C73.2031 196.508 72.9818 197.073 72.5391 197.516C72.0964 197.953 71.4115 198.172 70.4844 198.172C69.8073 198.172 69.2057 198.099 68.6797 197.953C68.1536 197.807 67.75 197.656 67.4688 197.5L67.8281 196.422C68.5729 196.839 69.3932 197.047 70.2891 197.047ZM75.5625 198V186.234H77.0312V193.906L80.9922 189.719H82.6016L79.2344 193.359L82.9375 198H81.2422L78.2734 194.156L77.0312 195.391V198H75.5625ZM86.7891 198.172C85.9505 198.172 85.2995 197.945 84.8359 197.492C84.3724 197.034 84.1406 196.466 84.1406 195.789C84.1406 195.404 84.2214 195.083 84.3828 194.828C84.7109 194.307 85.6901 193.81 87.3203 193.336C88.263 193.076 88.8047 192.852 88.9453 192.664C89.0911 192.477 89.1719 192.331 89.1875 192.227C89.2031 192.117 89.2109 191.945 89.2109 191.711C89.2109 191.477 89.1146 191.247 88.9219 191.023C88.7344 190.799 88.3229 190.688 87.6875 190.688C86.7917 190.688 86.2422 190.859 86.0391 191.203C85.9349 191.38 85.8828 191.62 85.8828 191.922V192.289H84.4688V191.914C84.4688 191.107 84.737 190.513 85.2734 190.133C85.8151 189.753 86.6224 189.562 87.6953 189.562C88.7682 189.562 89.5339 189.807 89.9922 190.297C90.4505 190.781 90.6797 191.474 90.6797 192.375V195.906C90.6797 196.339 90.7344 196.62 90.8438 196.75C90.9531 196.875 91.1875 196.938 91.5469 196.938L91.375 198.062H91.0781C90.5573 198.062 90.1693 197.964 89.9141 197.766C89.6589 197.562 89.4635 197.25 89.3281 196.828C88.8958 197.474 88.375 197.88 87.7656 198.047C87.474 198.13 87.1484 198.172 86.7891 198.172ZM87.5234 194.344C86.7839 194.557 86.2708 194.771 85.9844 194.984C85.7031 195.198 85.5625 195.5 85.5625 195.891C85.5625 196.276 85.6927 196.568 85.9531 196.766C86.2188 196.964 86.5365 197.062 86.9062 197.062C87.2812 197.062 87.6198 197.016 87.9219 196.922C88.224 196.823 88.4948 196.68 88.7344 196.492C88.9792 196.299 89.138 196.081 89.2109 195.836V193.445C88.8307 193.826 88.2682 194.125 87.5234 194.344ZM100.305 188.289L101.242 185.625H103L101.133 188.289H100.305ZM100.789 198.172C99.0964 198.172 98.0365 197.583 97.6094 196.406C97.4844 196.073 97.4219 195.708 97.4219 195.312V192.156C97.4219 191.37 97.7214 190.742 98.3203 190.273C98.9193 189.799 99.7292 189.562 100.75 189.562C102.052 189.562 102.948 189.844 103.438 190.406C103.823 190.844 104.016 191.49 104.016 192.344L102.617 192.477C102.617 191.737 102.484 191.255 102.219 191.031C101.958 190.802 101.492 190.688 100.82 190.688C100.148 190.688 99.6589 190.805 99.3516 191.039C99.0443 191.273 98.8906 191.659 98.8906 192.195V195.438C98.8906 196.01 99.0521 196.422 99.375 196.672C99.6979 196.922 100.195 197.047 100.867 197.047C101.544 197.047 101.995 196.958 102.219 196.781C102.448 196.604 102.589 196.203 102.641 195.578H104C103.917 196.536 103.641 197.208 103.172 197.594C102.703 197.979 101.909 198.172 100.789 198.172ZM109.539 198.172C108.326 198.172 107.448 197.919 106.906 197.414C106.365 196.909 106.094 196.13 106.094 195.078V192.195C106.094 191.378 106.372 190.734 106.93 190.266C107.487 189.797 108.328 189.562 109.453 189.562C110.583 189.562 111.422 189.781 111.969 190.219C112.521 190.651 112.797 191.271 112.797 192.078V194.047H107.562V195.211C107.562 195.898 107.701 196.378 107.977 196.648C108.253 196.914 108.75 197.047 109.469 197.047C110.188 197.047 110.594 197.031 110.688 197C110.781 196.969 110.878 196.932 110.977 196.891C111.076 196.849 111.143 196.799 111.18 196.742C111.221 196.685 111.273 196.599 111.336 196.484C111.404 196.365 111.453 196.135 111.484 195.797H112.781C112.729 196.292 112.641 196.69 112.516 196.992C112.396 197.294 112.203 197.536 111.938 197.719C111.677 197.896 111.362 198.016 110.992 198.078C110.628 198.141 110.143 198.172 109.539 198.172ZM107.562 193.055H111.375V191.922C111.375 191.453 111.214 191.13 110.891 190.953C110.573 190.776 110.104 190.688 109.484 190.688C108.865 190.688 108.388 190.794 108.055 191.008C107.727 191.221 107.562 191.573 107.562 192.062V193.055ZM118.125 198.062C117.641 198.062 117.245 198.026 116.938 197.953C116.63 197.88 116.359 197.742 116.125 197.539C115.688 197.159 115.469 196.38 115.469 195.203V186.242H116.938V195.219C116.938 195.885 117.036 196.32 117.234 196.523C117.432 196.727 117.841 196.828 118.461 196.828H118.719L118.547 198.062H118.125ZM121.031 198V189.719H122.5V198H121.031ZM121.031 188.227V186.703H122.5V188.227H121.031ZM124.328 200.758L124.18 199.539H124.406C124.938 199.539 125.292 199.469 125.469 199.328C125.646 199.193 125.76 199.023 125.812 198.82C125.865 198.622 125.891 198.359 125.891 198.031V189.719H127.359V197.945C127.359 199.305 127.047 200.146 126.422 200.469C126.052 200.661 125.526 200.758 124.844 200.758H124.328ZM125.891 188.227V186.703H127.359V188.227H125.891ZM132.461 198.172C131.622 198.172 130.971 197.945 130.508 197.492C130.044 197.034 129.812 196.466 129.812 195.789C129.812 195.404 129.893 195.083 130.055 194.828C130.383 194.307 131.362 193.81 132.992 193.336C133.935 193.076 134.477 192.852 134.617 192.664C134.763 192.477 134.844 192.331 134.859 192.227C134.875 192.117 134.883 191.945 134.883 191.711C134.883 191.477 134.786 191.247 134.594 191.023C134.406 190.799 133.995 190.688 133.359 190.688C132.464 190.688 131.914 190.859 131.711 191.203C131.607 191.38 131.555 191.62 131.555 191.922V192.289H130.141V191.914C130.141 191.107 130.409 190.513 130.945 190.133C131.487 189.753 132.294 189.562 133.367 189.562C134.44 189.562 135.206 189.807 135.664 190.297C136.122 190.781 136.352 191.474 136.352 192.375V195.906C136.352 196.339 136.406 196.62 136.516 196.75C136.625 196.875 136.859 196.938 137.219 196.938L137.047 198.062H136.75C136.229 198.062 135.841 197.964 135.586 197.766C135.331 197.562 135.135 197.25 135 196.828C134.568 197.474 134.047 197.88 133.438 198.047C133.146 198.13 132.82 198.172 132.461 198.172ZM133.195 194.344C132.456 194.557 131.943 194.771 131.656 194.984C131.375 195.198 131.234 195.5 131.234 195.891C131.234 196.276 131.365 196.568 131.625 196.766C131.891 196.964 132.208 197.062 132.578 197.062C132.953 197.062 133.292 197.016 133.594 196.922C133.896 196.823 134.167 196.68 134.406 196.492C134.651 196.299 134.81 196.081 134.883 195.836V193.445C134.503 193.826 133.94 194.125 133.195 194.344Z" fill="#C9D1D9"/>
</g>
<g filter="url(#filter1_d)">
<circle cx="245.041" cy="114.061" r="52.5102" fill="#5B41A9"/>
<circle r="13.1276" transform="matrix(1 0 0 -1 244.516 113.536)" fill="#BD63D2"/>
<circle cx="400.673" cy="114.061" r="52.5102" fill="#5B41A9"/>
<circle r="13.1276" transform="matrix(1 0 0 -1 400.148 113.536)" fill="#BD63D2"/>
<circle cx="476.592" cy="112.796" r="52.5102" fill="#5B41A9"/>
<circle r="13.1276" transform="matrix(1 0 0 -1 476.067 112.271)" fill="#BD63D2"/>
<path d="M344.721 115.047C344.916 114.852 344.916 114.536 344.721 114.34L341.539 111.158C341.344 110.963 341.027 110.963 340.832 111.158C340.637 111.354 340.637 111.67 340.832 111.865L343.66 114.694L340.832 117.522C340.637 117.718 340.637 118.034 340.832 118.229C341.027 118.425 341.344 118.425 341.539 118.229L344.721 115.047ZM301.347 115.194H344.367V114.194H301.347V115.194Z" fill="#C9D1D9"/>
<path d="M578.803 112.517C578.998 112.321 578.998 112.005 578.803 111.81L575.621 108.628C575.425 108.432 575.109 108.432 574.913 108.628C574.718 108.823 574.718 109.14 574.913 109.335L577.742 112.163L574.913 114.992C574.718 115.187 574.718 115.503 574.913 115.699C575.109 115.894 575.425 115.894 575.621 115.699L578.803 112.517ZM535.429 112.663H578.449V111.663H535.429V112.663Z" fill="#C9D1D9"/>
<path d="M457.617 187.562C458.284 187.562 458.896 187.667 459.453 187.875V184.234H460.922V196H459.922L459.68 195.453C459.424 195.651 459.089 195.82 458.672 195.961C458.255 196.102 457.844 196.172 457.438 196.172C456.307 196.172 455.477 195.922 454.945 195.422C454.419 194.917 454.156 194.237 454.156 193.383V190.258C454.156 189.398 454.44 188.734 455.008 188.266C455.576 187.797 456.445 187.562 457.617 187.562ZM455.625 193.492C455.625 193.987 455.799 194.365 456.148 194.625C456.503 194.885 456.917 195.016 457.391 195.016C458.234 195.016 458.922 194.852 459.453 194.523V189.031C458.979 188.802 458.404 188.688 457.727 188.688C456.326 188.688 455.625 189.156 455.625 190.094V193.492ZM470.977 196.172C469.763 196.172 468.885 195.919 468.344 195.414C467.802 194.909 467.531 194.13 467.531 193.078V190.195C467.531 189.378 467.81 188.734 468.367 188.266C468.924 187.797 469.766 187.562 470.891 187.562C472.021 187.562 472.859 187.781 473.406 188.219C473.958 188.651 474.234 189.271 474.234 190.078V192.047H469V193.211C469 193.898 469.138 194.378 469.414 194.648C469.69 194.914 470.188 195.047 470.906 195.047C471.625 195.047 472.031 195.031 472.125 195C472.219 194.969 472.315 194.932 472.414 194.891C472.513 194.849 472.581 194.799 472.617 194.742C472.659 194.685 472.711 194.599 472.773 194.484C472.841 194.365 472.891 194.135 472.922 193.797H474.219C474.167 194.292 474.078 194.69 473.953 194.992C473.833 195.294 473.641 195.536 473.375 195.719C473.115 195.896 472.799 196.016 472.43 196.078C472.065 196.141 471.581 196.172 470.977 196.172ZM469 191.055H472.812V189.922C472.812 189.453 472.651 189.13 472.328 188.953C472.01 188.776 471.542 188.688 470.922 188.688C470.302 188.688 469.826 188.794 469.492 189.008C469.164 189.221 469 189.573 469 190.062V191.055ZM482.047 193.664C482.047 194.586 482.701 195.047 484.008 195.047C485.315 195.047 485.969 194.586 485.969 193.664V190.078C485.969 189.151 485.315 188.688 484.008 188.688C482.701 188.688 482.047 189.151 482.047 190.078V193.664ZM487.438 193.539C487.438 194.352 487.159 194.995 486.602 195.469C486.049 195.938 485.182 196.172 484 196.172C482.818 196.172 481.951 195.938 481.398 195.469C480.852 195 480.578 194.357 480.578 193.539V190.203C480.578 189.385 480.852 188.742 481.398 188.273C481.951 187.799 482.818 187.562 484 187.562C485.182 187.562 486.049 187.799 486.602 188.273C487.159 188.747 487.438 189.391 487.438 190.203V193.539ZM495.516 188.109C496.161 187.745 496.94 187.562 497.852 187.562C498.763 187.562 499.49 187.805 500.031 188.289C500.573 188.773 500.844 189.427 500.844 190.25V193.25C500.844 194.109 500.547 194.812 499.953 195.359C499.359 195.901 498.536 196.172 497.484 196.172C496.818 196.172 496.096 195.93 495.32 195.445L495.133 196H494.047V184.234H495.516V188.109ZM499.375 190.141C499.375 189.172 498.763 188.688 497.539 188.688C496.94 188.688 496.266 188.859 495.516 189.203V194.531C496.089 194.854 496.672 195.016 497.266 195.016C497.865 195.016 498.365 194.872 498.766 194.586C499.172 194.294 499.375 193.901 499.375 193.406V190.141ZM509.68 196.172C508.841 196.172 508.19 195.945 507.727 195.492C507.263 195.034 507.031 194.466 507.031 193.789C507.031 193.404 507.112 193.083 507.273 192.828C507.602 192.307 508.581 191.81 510.211 191.336C511.154 191.076 511.695 190.852 511.836 190.664C511.982 190.477 512.062 190.331 512.078 190.227C512.094 190.117 512.102 189.945 512.102 189.711C512.102 189.477 512.005 189.247 511.812 189.023C511.625 188.799 511.214 188.688 510.578 188.688C509.682 188.688 509.133 188.859 508.93 189.203C508.826 189.38 508.773 189.62 508.773 189.922V190.289H507.359V189.914C507.359 189.107 507.628 188.513 508.164 188.133C508.706 187.753 509.513 187.562 510.586 187.562C511.659 187.562 512.424 187.807 512.883 188.297C513.341 188.781 513.57 189.474 513.57 190.375V193.906C513.57 194.339 513.625 194.62 513.734 194.75C513.844 194.875 514.078 194.938 514.438 194.938L514.266 196.062H513.969C513.448 196.062 513.06 195.964 512.805 195.766C512.549 195.562 512.354 195.25 512.219 194.828C511.786 195.474 511.266 195.88 510.656 196.047C510.365 196.13 510.039 196.172 509.68 196.172ZM510.414 192.344C509.674 192.557 509.161 192.771 508.875 192.984C508.594 193.198 508.453 193.5 508.453 193.891C508.453 194.276 508.583 194.568 508.844 194.766C509.109 194.964 509.427 195.062 509.797 195.062C510.172 195.062 510.51 195.016 510.812 194.922C511.115 194.823 511.385 194.68 511.625 194.492C511.87 194.299 512.029 194.081 512.102 193.836V191.445C511.721 191.826 511.159 192.125 510.414 192.344ZM535.195 186.289L536.133 183.625H537.891L536.023 186.289H535.195ZM535.68 196.172C533.987 196.172 532.927 195.583 532.5 194.406C532.375 194.073 532.312 193.708 532.312 193.312V190.156C532.312 189.37 532.612 188.742 533.211 188.273C533.81 187.799 534.62 187.562 535.641 187.562C536.943 187.562 537.839 187.844 538.328 188.406C538.714 188.844 538.906 189.49 538.906 190.344L537.508 190.477C537.508 189.737 537.375 189.255 537.109 189.031C536.849 188.802 536.383 188.688 535.711 188.688C535.039 188.688 534.549 188.805 534.242 189.039C533.935 189.273 533.781 189.659 533.781 190.195V193.438C533.781 194.01 533.943 194.422 534.266 194.672C534.589 194.922 535.086 195.047 535.758 195.047C536.435 195.047 536.885 194.958 537.109 194.781C537.339 194.604 537.479 194.203 537.531 193.578H538.891C538.807 194.536 538.531 195.208 538.062 195.594C537.594 195.979 536.799 196.172 535.68 196.172ZM548.43 196.172C547.216 196.172 546.339 195.919 545.797 195.414C545.255 194.909 544.984 194.13 544.984 193.078V190.195C544.984 189.378 545.263 188.734 545.82 188.266C546.378 187.797 547.219 187.562 548.344 187.562C549.474 187.562 550.312 187.781 550.859 188.219C551.411 188.651 551.688 189.271 551.688 190.078V192.047H546.453V193.211C546.453 193.898 546.591 194.378 546.867 194.648C547.143 194.914 547.641 195.047 548.359 195.047C549.078 195.047 549.484 195.031 549.578 195C549.672 194.969 549.768 194.932 549.867 194.891C549.966 194.849 550.034 194.799 550.07 194.742C550.112 194.685 550.164 194.599 550.227 194.484C550.294 194.365 550.344 194.135 550.375 193.797H551.672C551.62 194.292 551.531 194.69 551.406 194.992C551.286 195.294 551.094 195.536 550.828 195.719C550.568 195.896 550.253 196.016 549.883 196.078C549.518 196.141 549.034 196.172 548.43 196.172ZM546.453 191.055H550.266V189.922C550.266 189.453 550.104 189.13 549.781 188.953C549.464 188.776 548.995 188.688 548.375 188.688C547.755 188.688 547.279 188.794 546.945 189.008C546.617 189.221 546.453 189.573 546.453 190.062V191.055ZM561.016 196.062C560.531 196.062 560.135 196.026 559.828 195.953C559.521 195.88 559.25 195.742 559.016 195.539C558.578 195.159 558.359 194.38 558.359 193.203V184.242H559.828V193.219C559.828 193.885 559.927 194.32 560.125 194.523C560.323 194.727 560.732 194.828 561.352 194.828H561.609L561.438 196.062H561.016ZM567.922 196V187.719H569.391V196H567.922ZM567.922 186.227V184.703H569.391V186.227H567.922ZM575.219 198.758L575.07 197.539H575.297C575.828 197.539 576.182 197.469 576.359 197.328C576.536 197.193 576.651 197.023 576.703 196.82C576.755 196.622 576.781 196.359 576.781 196.031V187.719H578.25V195.945C578.25 197.305 577.938 198.146 577.312 198.469C576.943 198.661 576.417 198.758 575.734 198.758H575.219ZM576.781 186.227V184.703H578.25V186.227H576.781ZM588.273 196.172C587.06 196.172 586.182 195.919 585.641 195.414C585.099 194.909 584.828 194.13 584.828 193.078V190.195C584.828 189.378 585.107 188.734 585.664 188.266C586.221 187.797 587.062 187.562 588.188 187.562C589.318 187.562 590.156 187.781 590.703 188.219C591.255 188.651 591.531 189.271 591.531 190.078V192.047H586.297V193.211C586.297 193.898 586.435 194.378 586.711 194.648C586.987 194.914 587.484 195.047 588.203 195.047C588.922 195.047 589.328 195.031 589.422 195C589.516 194.969 589.612 194.932 589.711 194.891C589.81 194.849 589.878 194.799 589.914 194.742C589.956 194.685 590.008 194.599 590.07 194.484C590.138 194.365 590.188 194.135 590.219 193.797H591.516C591.464 194.292 591.375 194.69 591.25 194.992C591.13 195.294 590.938 195.536 590.672 195.719C590.411 195.896 590.096 196.016 589.727 196.078C589.362 196.141 588.878 196.172 588.273 196.172ZM586.297 191.055H590.109V189.922C590.109 189.453 589.948 189.13 589.625 188.953C589.307 188.776 588.839 188.688 588.219 188.688C587.599 188.688 587.122 188.794 586.789 189.008C586.461 189.221 586.297 189.573 586.297 190.062V191.055Z" fill="#C9D1D9"/>
<circle cx="637.286" cy="110.265" r="52.5102" fill="#5B41A9"/>
<circle r="13.1276" transform="matrix(1 0 0 -1 636.761 109.74)" fill="#BD63D2"/>
<path d="M648.939 109.601C648.939 116.299 643.509 121.728 636.811 121.728C630.113 121.728 624.684 116.299 624.684 109.601C624.684 102.903 630.113 97.4734 636.811 97.4734C643.509 97.4734 648.939 102.903 648.939 109.601Z" stroke="#28D9CE" stroke-width="2"/>
<line y1="-1" x2="16.4094" y2="-1" transform="matrix(0.599999 -0.8 0.799999 0.600001 624.449 110.695)" stroke="#28D9CE" stroke-width="2"/>
<line y1="-1" x2="15.8624" y2="-1" transform="matrix(0.599999 -0.8 0.799999 0.600001 640.421 122.291)" stroke="#28D9CE" stroke-width="2"/>
<line y1="-1" x2="20.2383" y2="-1" transform="matrix(0.591363 -0.806406 0.806404 0.591365 637.358 122.729)" stroke="#28D9CE" stroke-width="2"/>
<line y1="-1" x2="20.2383" y2="-1" transform="matrix(0.591363 -0.806406 0.806404 0.591365 625.106 113.888)" stroke="#28D9CE" stroke-width="2"/>
<line y1="-1" x2="22.9732" y2="-1" transform="matrix(0.599999 -0.8 0.799999 0.600001 626.419 115.946)" stroke="#28D9CE" stroke-width="2"/>
<line y1="-1" x2="22.9732" y2="-1" transform="matrix(0.599999 -0.8 0.799999 0.600001 634.623 122.51)" stroke="#28D9CE" stroke-width="2"/>
<line y1="-1" x2="25.1611" y2="-1" transform="matrix(0.599999 -0.8 0.799999 0.600001 630.247 119.884)" stroke="#28D9CE" stroke-width="2"/>
<line y1="-1" x2="25.1611" y2="-1" transform="matrix(0.599999 -0.8 0.799999 0.600001 627.512 118.79)" stroke="#28D9CE" stroke-width="2"/>
<line y1="-1" x2="24.6141" y2="-1" transform="matrix(0.599999 -0.8 0.799999 0.600001 631.888 121.635)" stroke="#28D9CE" stroke-width="2"/>
<circle cx="772.673" cy="110.265" r="52.5102" fill="#5B41A9"/>
<circle r="13.1276" transform="matrix(1 0 0 -1 772.148 109.74)" fill="#BD63D2"/>
<path d="M784.326 109.601C784.326 116.299 778.897 121.728 772.199 121.728C765.501 121.728 760.071 116.299 760.071 109.601C760.071 102.903 765.501 97.4734 772.199 97.4734C778.897 97.4734 784.326 102.903 784.326 109.601Z" stroke="#28D9CE" stroke-width="2"/>
<line y1="-1" x2="16.4094" y2="-1" transform="matrix(0.599999 -0.8 0.799999 0.600001 759.837 110.695)" stroke="#28D9CE" stroke-width="2"/>
<line y1="-1" x2="15.8624" y2="-1" transform="matrix(0.599999 -0.8 0.799999 0.600001 775.809 122.291)" stroke="#28D9CE" stroke-width="2"/>
<line y1="-1" x2="20.2383" y2="-1" transform="matrix(0.591363 -0.806406 0.806404 0.591365 772.746 122.729)" stroke="#28D9CE" stroke-width="2"/>
<line y1="-1" x2="20.2383" y2="-1" transform="matrix(0.591363 -0.806406 0.806404 0.591365 760.494 113.888)" stroke="#28D9CE" stroke-width="2"/>
<line y1="-1" x2="22.9732" y2="-1" transform="matrix(0.599999 -0.8 0.799999 0.600001 761.806 115.946)" stroke="#28D9CE" stroke-width="2"/>
<line y1="-1" x2="22.9732" y2="-1" transform="matrix(0.599999 -0.8 0.799999 0.600001 770.011 122.51)" stroke="#28D9CE" stroke-width="2"/>
<line y1="-1" x2="25.1611" y2="-1" transform="matrix(0.599999 -0.8 0.799999 0.600001 765.635 119.884)" stroke="#28D9CE" stroke-width="2"/>
<line y1="-1" x2="25.1611" y2="-1" transform="matrix(0.599999 -0.8 0.799999 0.600001 762.9 118.79)" stroke="#28D9CE" stroke-width="2"/>
<line y1="-1" x2="24.6141" y2="-1" transform="matrix(0.599999 -0.8 0.799999 0.600001 767.276 121.635)" stroke="#28D9CE" stroke-width="2"/>
<line x1="632.497" y1="97.3119" x2="704.858" y2="69.3833" stroke="#28D9CE" stroke-width="2"/>
<line x1="774.2" y1="97.9081" x2="704.534" y2="70.0417" stroke="#28D9CE" stroke-width="2"/>
<line x1="633.05" y1="121.305" x2="705.306" y2="135.519" stroke="#28D9CE" stroke-width="2"/>
<line x1="772.248" y1="122.252" x2="705.064" y2="136.446" stroke="#34D9CF" stroke-width="2"/>
<path d="M688.281 91.8281H691.047C692.182 91.8281 692.94 91.6172 693.32 91.1953C693.706 90.7734 693.898 90.1719 693.898 89.3906V85.4141C693.898 84.263 693.513 83.5156 692.742 83.1719C692.305 82.974 691.74 82.8776 691.047 82.8828H688.281V91.8281ZM686.703 93V81.7031H691.188C693.349 81.7031 694.698 82.4688 695.234 84C695.391 84.4479 695.469 84.9505 695.469 85.5078V89.2344C695.469 90.4688 695.112 91.4062 694.398 92.0469C693.69 92.6823 692.625 93 691.203 93H686.703ZM698.594 93V81.7031H699.789L706.258 90.7344V81.7031H707.641V93H706.242L699.977 84.375V93H698.594ZM711.047 93V81.7031H712.617V87.8672C713.456 86.8516 714.456 85.6849 715.617 84.3672C716.784 83.0495 717.565 82.1615 717.961 81.7031H719.664L715.422 86.7656L719.891 93H718.148L714.32 87.6094L712.617 89.3438V93H711.047Z" fill="#C9D1D9"/>
</g>
<defs>
<filter id="filter0_d" x="0" y="6.625" width="141.219" height="202.133" filterUnits="userSpaceOnUse" color-interpolation-filters="sRGB">
<feFlood flood-opacity="0" result="BackgroundImageFix"/>
<feColorMatrix in="SourceAlpha" type="matrix" values="0 0 0 0 0 0 0 0 0 0 0 0 0 0 0 0 0 0 127 0"/>
<feOffset dy="4"/>
<feGaussianBlur stdDeviation="2"/>
<feColorMatrix type="matrix" values="0 0 0 0 0 0 0 0 0 0 0 0 0 0 0 0 0 0 0.25 0"/>
<feBlend mode="normal" in2="BackgroundImageFix" result="effect1_dropShadow"/>
<feBlend mode="normal" in="SourceGraphic" in2="effect1_dropShadow" result="shape"/>
</filter>
<filter id="filter1_d" x="188.531" y="57.7551" width="640.653" height="149.003" filterUnits="userSpaceOnUse" color-interpolation-filters="sRGB">
<feFlood flood-opacity="0" result="BackgroundImageFix"/>
<feColorMatrix in="SourceAlpha" type="matrix" values="0 0 0 0 0 0 0 0 0 0 0 0 0 0 0 0 0 0 127 0"/>
<feOffset dy="4"/>
<feGaussianBlur stdDeviation="2"/>
<feColorMatrix type="matrix" values="0 0 0 0 0 0 0 0 0 0 0 0 0 0 0 0 0 0 0.25 0"/>
<feBlend mode="normal" in2="BackgroundImageFix" result="effect1_dropShadow"/>
<feBlend mode="normal" in="SourceGraphic" in2="effect1_dropShadow" result="shape"/>
</filter>
</defs>
</svg>
