<svg width="30" height="50" viewBox="0 0 30 50" fill="none" xmlns="http://www.w3.org/2000/svg">
<g filter="url(#filter0_d)">
<path d="M10.6699 8.0835C12.5944 4.75016 17.4056 4.75016 19.3301 8.0835L21.9282 12.5835C23.8527 15.9168 21.4471 20.0835 17.5981 20.0835H12.4019C8.55292 20.0835 6.1473 15.9168 8.0718 12.5835L10.6699 8.0835Z" fill="#E8A32C"/>
<rect x="5.03333" y="15.3169" width="20.3667" height="26" rx="5" fill="#62F2A6"/>
<circle cx="12.1833" cy="16.8335" r="3.25" fill="#C9D1D9"/>
<circle cx="12.14" cy="17.0502" r="1.73333" fill="black"/>
<circle cx="18.6833" cy="16.8335" r="3.25" fill="#C9D1D9"/>
<circle cx="18.4667" cy="17.0502" r="1.73333" fill="black"/>
<path d="M5.03333 33.3C8.34969 35.8198 15 36.1167 15 36.1167C15 36.1167 22.2706 35.3453 25.4 33.3" stroke="black"/>
<path d="M12.8333 23.1167C15.0444 25.2141 15.9944 24.6525 17.6 23.1167" stroke="black"/>
<rect x="12.8333" y="34.8169" width="4.76667" height="2.16667" fill="#E8A62F"/>
</g>
<defs>
<filter id="filter0_d" x="0.730835" y="5.5835" width="28.9427" height="43.7334" filterUnits="userSpaceOnUse" color-interpolation-filters="sRGB">
<feFlood flood-opacity="0" result="BackgroundImageFix"/>
<feColorMatrix in="SourceAlpha" type="matrix" values="0 0 0 0 0 0 0 0 0 0 0 0 0 0 0 0 0 0 127 0"/>
<feOffset dy="4"/>
<feGaussianBlur stdDeviation="2"/>
<feColorMatrix type="matrix" values="0 0 0 0 0 0 0 0 0 0 0 0 0 0 0 0 0 0 0.25 0"/>
<feBlend mode="normal" in2="BackgroundImageFix" result="effect1_dropShadow"/>
<feBlend mode="normal" in="SourceGraphic" in2="effect1_dropShadow" result="shape"/>
</filter>
</defs>
</svg>
