<svg width="721" height="181" viewBox="0 0 721 181" fill="none" xmlns="http://www.w3.org/2000/svg">
<g filter="url(#filter0_d)">
<line x1="684.5" y1="137" x2="684.5" y2="160.333" stroke="#E8A62F" stroke-width="3"/>
<line x1="684.5" y1="24" x2="684.5" y2="47.3333" stroke="#C6344A" stroke-width="3"/>
<line x1="675.5" y1="137" x2="675.5" y2="160.333" stroke="#EFE123" stroke-width="3"/>
<line x1="666.5" y1="137" x2="666.5" y2="160.333" stroke="#62F2A6" stroke-width="3"/>
<line x1="666.5" y1="24" x2="666.5" y2="47.3333" stroke="#EFE123" stroke-width="3"/>
<line x1="656.5" y1="137" x2="656.5" y2="160.333" stroke="#EFE123" stroke-width="3"/>
<line x1="656.5" y1="24.0005" x2="656.5" y2="47.3338" stroke="#62F2A6" stroke-width="3"/>
<line x1="647.5" y1="137" x2="647.5" y2="160.333" stroke="#E8A62F" stroke-width="3"/>
<line x1="647.5" y1="24.0005" x2="647.5" y2="47.3338" stroke="#C6344A" stroke-width="3"/>
<line x1="675.5" y1="24" x2="675.5" y2="47.3333" stroke="#62F2A6" stroke-width="3"/>
<line x1="638.5" y1="137" x2="638.5" y2="160.333" stroke="#EFE123" stroke-width="3"/>
<line x1="638.5" y1="24.0005" x2="638.5" y2="47.3338" stroke="#62F2A6" stroke-width="3"/>
<line x1="619.5" y1="24" x2="619.5" y2="47.3333" stroke="#62F2A6" stroke-width="3"/>
<line x1="619.5" y1="137" x2="619.5" y2="160.333" stroke="#EFE123" stroke-width="3"/>
<line x1="610.5" y1="137" x2="610.5" y2="160.333" stroke="#EFE123" stroke-width="3"/>
<line x1="610.5" y1="24.0005" x2="610.5" y2="47.3338" stroke="#62F2A6" stroke-width="3"/>
<line x1="600.5" y1="137" x2="600.5" y2="160.334" stroke="#C6344A" stroke-width="3"/>
<line x1="600.5" y1="24" x2="600.5" y2="47.3333" stroke="#E8A62F" stroke-width="3"/>
<line x1="628.5" y1="24.0005" x2="628.5" y2="47.3338" stroke="#C6344A" stroke-width="3"/>
<line x1="628.5" y1="137" x2="628.5" y2="160.333" stroke="#E8A62F" stroke-width="3"/>
<line x1="591.5" y1="137" x2="591.5" y2="160.334" stroke="#E8A62F" stroke-width="3"/>
<line x1="591.5" y1="24" x2="591.5" y2="47.3333" stroke="#C6344A" stroke-width="3"/>
<line x1="572.5" y1="137" x2="572.5" y2="160.334" stroke="#EFE123" stroke-width="3"/>
<line x1="572.5" y1="24" x2="572.5" y2="47.3333" stroke="#62F2A6" stroke-width="3"/>
<line x1="563.5" y1="137" x2="563.5" y2="160.333" stroke="#E8A62F" stroke-width="3"/>
<line x1="563.5" y1="24" x2="563.5" y2="47.3333" stroke="#C6344A" stroke-width="3"/>
<line x1="554.5" y1="137" x2="554.5" y2="160.334" stroke="#62F2A6" stroke-width="3"/>
<line x1="554.5" y1="24.0005" x2="554.5" y2="47.3338" stroke="#EDDE22" stroke-width="3"/>
<line x1="582.5" y1="24.0005" x2="582.5" y2="47.3338" stroke="#E8A62F" stroke-width="3"/>
<line x1="582.5" y1="137" x2="582.5" y2="160.334" stroke="#C6344A" stroke-width="3"/>
<line x1="544.5" y1="137" x2="544.5" y2="160.333" stroke="#C6344A" stroke-width="3"/>
<line x1="544.5" y1="24" x2="544.5" y2="47.3333" stroke="#E8A62F" stroke-width="3"/>
<line x1="526.5" y1="137" x2="526.5" y2="160.333" stroke="#EFE123" stroke-width="3"/>
<line x1="526.5" y1="24" x2="526.5" y2="47.3333" stroke="#62F2A6" stroke-width="3"/>
<line x1="517.5" y1="137" x2="517.5" y2="160.333" stroke="#E8A62F" stroke-width="3"/>
<line x1="517.5" y1="24" x2="517.5" y2="47.3333" stroke="#C6344A" stroke-width="3"/>
<line x1="509.5" y1="137" x2="509.5" y2="160.334" stroke="#E8A62F" stroke-width="3"/>
<line x1="509.5" y1="24.0005" x2="509.5" y2="47.3338" stroke="#C6344A" stroke-width="3"/>
<line x1="535.5" y1="24" x2="535.5" y2="47.3333" stroke="#62F2A6" stroke-width="3"/>
<line x1="535.5" y1="137" x2="535.5" y2="160.333" stroke="#EFE123" stroke-width="3"/>
<line x1="501.5" y1="137" x2="501.5" y2="160.333" stroke="#EFE123" stroke-width="3"/>
<line x1="501.5" y1="24" x2="501.5" y2="47.3333" stroke="#62F2A6" stroke-width="3"/>
<line x1="416.5" y1="24.0044" x2="416.5" y2="47.3377" stroke="#E8A62F" stroke-width="3"/>
<line x1="425" y1="24" x2="425" y2="47.3333" stroke="#C6344A" stroke-width="3"/>
<line x1="434.5" y1="24" x2="434.5" y2="47.3333" stroke="#62F2A6" stroke-width="3"/>
<line x1="443.5" y1="24" x2="443.5" y2="47.3333" stroke="#C6344A" stroke-width="3"/>
<line x1="452.5" y1="24" x2="452.5" y2="47.3333" stroke="#E8A62F" stroke-width="3"/>
<line x1="460.5" y1="24" x2="460.5" y2="47.3333" stroke="#62F2A6" stroke-width="3"/>
<line x1="468.5" y1="24" x2="468.5" y2="47.3333" stroke="#E8A62F" stroke-width="3"/>
<line x1="476.5" y1="24" x2="476.5" y2="47.3333" stroke="#E8A62F" stroke-width="3"/>
<line x1="484.5" y1="24" x2="484.5" y2="47.3333" stroke="#62F2A6" stroke-width="3"/>
<line x1="493.5" y1="24" x2="493.5" y2="47.3333" stroke="#62F2A6" stroke-width="3"/>
<line x1="425" y1="47.0005" x2="425" y2="70.3338" stroke="#E8A62F" stroke-width="3"/>
<line x1="434.5" y1="47.0005" x2="434.5" y2="70.3338" stroke="#EDDE22" stroke-width="3"/>
<line x1="443.5" y1="47.0005" x2="443.5" y2="70.3338" stroke="#E8A62F" stroke-width="3"/>
<line x1="452.5" y1="47.0005" x2="452.5" y2="70.3338" stroke="#C6344A" stroke-width="3"/>
<line x1="460.5" y1="47.0005" x2="460.5" y2="70.3338" stroke="#EDDE22" stroke-width="3"/>
<line x1="468.5" y1="47.0005" x2="468.5" y2="70.3338" stroke="#C6344A" stroke-width="3"/>
<line x1="476.5" y1="47.0005" x2="476.5" y2="70.3338" stroke="#C6344A" stroke-width="3"/>
<line x1="484.5" y1="47.0005" x2="484.5" y2="70.3338" stroke="#EDDE22" stroke-width="3"/>
<line x1="493.5" y1="47.0005" x2="493.5" y2="70.3338" stroke="#EDDE22" stroke-width="3"/>
<line x1="501.5" y1="47.0005" x2="501.5" y2="70.3338" stroke="#C6344A" stroke-width="3"/>
<line x1="509.5" y1="47.0005" x2="509.5" y2="70.3338" stroke="#E8A62F" stroke-width="3"/>
<line x1="517.5" y1="47.0005" x2="517.5" y2="70.3338" stroke="#E8A62F" stroke-width="3"/>
<line x1="526.5" y1="47.0005" x2="526.5" y2="70.3338" stroke="#EDDE22" stroke-width="3"/>
<line x1="535.5" y1="47.0005" x2="535.5" y2="70.3338" stroke="#EDDE22" stroke-width="3"/>
<line x1="544.5" y1="47.0005" x2="544.5" y2="70.3338" stroke="#C6344A" stroke-width="3"/>
<line x1="554.5" y1="47.0005" x2="554.5" y2="70.3338" stroke="#62F2A6" stroke-width="3"/>
<line x1="563.5" y1="47.0005" x2="563.5" y2="70.3338" stroke="#E8A62F" stroke-width="3"/>
<line x1="572.5" y1="47.0005" x2="572.5" y2="70.3338" stroke="#EDDE22" stroke-width="3"/>
<line x1="582.5" y1="47.0005" x2="582.5" y2="70.3338" stroke="#C6344A" stroke-width="3"/>
<line x1="591.5" y1="47.0005" x2="591.5" y2="70.3338" stroke="#E8A62F" stroke-width="3"/>
<line x1="600.5" y1="47.0005" x2="600.5" y2="70.3338" stroke="#C6344A" stroke-width="3"/>
<line x1="610.5" y1="47.0005" x2="610.5" y2="70.3338" stroke="#EDDE22" stroke-width="3"/>
<line x1="619.5" y1="47.0005" x2="619.5" y2="70.3338" stroke="#EDDE22" stroke-width="3"/>
<line x1="628.5" y1="47.0005" x2="628.5" y2="70.3338" stroke="#E8A62F" stroke-width="3"/>
<line x1="638.5" y1="47.0005" x2="638.5" y2="70.3338" stroke="#EDDE22" stroke-width="3"/>
<line x1="647.5" y1="47.0005" x2="647.5" y2="70.3338" stroke="#E8A62F" stroke-width="3"/>
<line x1="656.5" y1="47.0005" x2="656.5" y2="70.3338" stroke="#EFE123" stroke-width="3"/>
<line x1="666.5" y1="47.0005" x2="666.5" y2="70.3338" stroke="#62F2A6" stroke-width="3"/>
<line x1="675.5" y1="47.0005" x2="675.5" y2="70.3338" stroke="#EFE123" stroke-width="3"/>
<line x1="684.5" y1="47.0005" x2="684.5" y2="70.3338" stroke="#E8A62F" stroke-width="3"/>
<line x1="425" y1="137" x2="425" y2="160.334" stroke="#E8A62F" stroke-width="3"/>
<line x1="434.5" y1="137" x2="434.5" y2="160.334" stroke="#EDDE22" stroke-width="3"/>
<line x1="443.5" y1="137" x2="443.5" y2="160.334" stroke="#E8A62F" stroke-width="3"/>
<line x1="452.5" y1="137" x2="452.5" y2="160.334" stroke="#C6344A" stroke-width="3"/>
<line x1="460.5" y1="137" x2="460.5" y2="160.334" stroke="#EDDE22" stroke-width="3"/>
<line x1="468.5" y1="137" x2="468.5" y2="160.334" stroke="#C6344A" stroke-width="3"/>
<line x1="476.5" y1="137" x2="476.5" y2="160.334" stroke="#C6344A" stroke-width="3"/>
<line x1="484.5" y1="137" x2="484.5" y2="160.334" stroke="#EDDE22" stroke-width="3"/>
<line x1="493.5" y1="137" x2="493.5" y2="160.334" stroke="#EDDE22" stroke-width="3"/>
<line x1="407.167" y1="24.0044" x2="407.167" y2="47.3377" stroke="#62F2A6" stroke-width="3"/>
<line x1="397.833" y1="24.0044" x2="397.833" y2="47.3377" stroke="#62F2A6" stroke-width="3"/>
<line x1="388.5" y1="24.0044" x2="388.5" y2="47.3377" stroke="#E8A62F" stroke-width="3"/>
<path d="M446.667 165.004L29 165.005" stroke="#79CCDB" stroke-width="10"/>
<path d="M451.667 19.0075L28 19.0075" stroke="#79CCDB" stroke-width="10"/>
<line x1="341.833" y1="24.0044" x2="341.833" y2="47.3377" stroke="#C6344A" stroke-width="3"/>
<line x1="332.5" y1="24.0044" x2="332.5" y2="47.3377" stroke="#62F2A6" stroke-width="3"/>
<line x1="323.167" y1="24.0044" x2="323.167" y2="47.3377" stroke="#EDDE22" stroke-width="3"/>
<line x1="313.833" y1="24.0044" x2="313.833" y2="47.3377" stroke="#62F2A6" stroke-width="3"/>
<line x1="304.5" y1="24.0044" x2="304.5" y2="47.3377" stroke="#E8A62F" stroke-width="3"/>
<line x1="295.167" y1="24.0044" x2="295.167" y2="47.3377" stroke="#62F2A6" stroke-width="3"/>
<line x1="285.833" y1="24.0044" x2="285.833" y2="47.3377" stroke="#C6344A" stroke-width="3"/>
<line x1="276.5" y1="24.0044" x2="276.5" y2="47.3377" stroke="#62F2A6" stroke-width="3"/>
<line x1="239.833" y1="24.0073" x2="239.833" y2="47.3407" stroke="#E8A62F" stroke-width="3"/>
<line x1="230.5" y1="24.0073" x2="230.5" y2="47.3407" stroke="#C6344A" stroke-width="3"/>
<line x1="221.167" y1="24.0073" x2="221.167" y2="47.3407" stroke="#62F2A6" stroke-width="3"/>
<line x1="211.833" y1="24.0073" x2="211.833" y2="47.3407" stroke="#EDDE22" stroke-width="3"/>
<line x1="202.5" y1="24.0073" x2="202.5" y2="47.3407" stroke="#62F2A6" stroke-width="3"/>
<line x1="192.833" y1="24.0073" x2="192.833" y2="47.3407" stroke="#62F2A6" stroke-width="3"/>
<line x1="183.5" y1="24.0073" x2="183.5" y2="47.3407" stroke="#E8A62F" stroke-width="3"/>
<line x1="174.167" y1="24.0073" x2="174.167" y2="47.3407" stroke="#62F2A6" stroke-width="3"/>
<line x1="164.833" y1="24.0073" x2="164.833" y2="47.3407" stroke="#EDDE22" stroke-width="3"/>
<line x1="155.5" y1="24.0073" x2="155.5" y2="47.3407" stroke="#C6344A" stroke-width="3"/>
<line x1="146.833" y1="24.0073" x2="146.833" y2="47.3407" stroke="#C6344A" stroke-width="3"/>
<line x1="137.5" y1="24.0073" x2="137.5" y2="47.3407" stroke="#E8A62F" stroke-width="3"/>
<line x1="128.167" y1="24.0073" x2="128.167" y2="47.3407" stroke="#E8A62F" stroke-width="3"/>
<line x1="118.833" y1="24.0073" x2="118.833" y2="47.3407" stroke="#62F2A6" stroke-width="3"/>
<line x1="109.5" y1="24.0073" x2="109.5" y2="47.3407" stroke="#62F2A6" stroke-width="3"/>
<line x1="100.833" y1="24.0073" x2="100.833" y2="47.3407" stroke="#EDDE22" stroke-width="3"/>
<line x1="91.5" y1="24.0073" x2="91.5" y2="47.3407" stroke="#EDDE22" stroke-width="3"/>
<line x1="82.1667" y1="24.0073" x2="82.1667" y2="47.3407" stroke="#62F2A6" stroke-width="3"/>
<line x1="72.8333" y1="24.0073" x2="72.8333" y2="47.3407" stroke="#EDDE22" stroke-width="3"/>
<line x1="63.5" y1="24.0073" x2="63.5" y2="47.3407" stroke="#62F2A6" stroke-width="3"/>
<line x1="54.8333" y1="24.0073" x2="54.8333" y2="47.3407" stroke="#E8A62F" stroke-width="3"/>
<line x1="45.5" y1="24.0073" x2="45.5" y2="47.3407" stroke="#62F2A6" stroke-width="3"/>
<line x1="36.1667" y1="24.0073" x2="36.1667" y2="47.3407" stroke="#C6344A" stroke-width="3"/>
<line x1="239.833" y1="137.003" x2="239.833" y2="160.337" stroke="#C6344A" stroke-width="3"/>
<line x1="230.5" y1="137.003" x2="230.5" y2="160.337" stroke="#E8A62F" stroke-width="3"/>
<line x1="221.167" y1="137.003" x2="221.167" y2="160.337" stroke="#EDDE22" stroke-width="3"/>
<line x1="211.833" y1="137.003" x2="211.833" y2="160.337" stroke="#62F2A6" stroke-width="3"/>
<line x1="202.5" y1="137.003" x2="202.5" y2="160.337" stroke="#EDDE22" stroke-width="3"/>
<line x1="193.833" y1="137.002" x2="193.833" y2="160.335" stroke="#EDDE22" stroke-width="3"/>
<line x1="184.5" y1="137.002" x2="184.5" y2="160.335" stroke="#C6344A" stroke-width="3"/>
<line x1="175.167" y1="137.002" x2="175.167" y2="160.335" stroke="#EDDE22" stroke-width="3"/>
<line x1="165.833" y1="137.002" x2="165.833" y2="160.335" stroke="#62F2A6" stroke-width="3"/>
<line x1="156.5" y1="137.002" x2="156.5" y2="160.335" stroke="#E8A62F" stroke-width="3"/>
<line x1="147.833" y1="137.002" x2="147.833" y2="160.335" stroke="#E8A62F" stroke-width="3"/>
<line x1="138.5" y1="137.002" x2="138.5" y2="160.335" stroke="#C6344A" stroke-width="3"/>
<line x1="129.167" y1="137.002" x2="129.167" y2="160.335" stroke="#C6344A" stroke-width="3"/>
<line x1="119.833" y1="137.002" x2="119.833" y2="160.335" stroke="#EDDE22" stroke-width="3"/>
<line x1="110.5" y1="137.002" x2="110.5" y2="160.335" stroke="#EDDE22" stroke-width="3"/>
<line x1="101.833" y1="137.002" x2="101.833" y2="160.335" stroke="#62F2A6" stroke-width="3"/>
<line x1="92.5" y1="137.002" x2="92.5" y2="160.335" stroke="#62F2A6" stroke-width="3"/>
<line x1="83.1667" y1="137.002" x2="83.1667" y2="160.335" stroke="#EDDE22" stroke-width="3"/>
<line x1="73.8333" y1="137.002" x2="73.8333" y2="160.335" stroke="#62F2A6" stroke-width="3"/>
<line x1="64.5" y1="137.002" x2="64.5" y2="160.335" stroke="#EDDE22" stroke-width="3"/>
<line x1="55.8333" y1="137" x2="55.8333" y2="160.334" stroke="#C6344A" stroke-width="3"/>
<line x1="46.5" y1="137" x2="46.5" y2="160.334" stroke="#EDDE22" stroke-width="3"/>
<line x1="37.1667" y1="137" x2="37.1667" y2="160.334" stroke="#E8A62F" stroke-width="3"/>
<line x1="257.833" y1="136.671" x2="257.833" y2="160.004" stroke="#EDDE22" stroke-width="3"/>
<line x1="248.5" y1="136.671" x2="248.5" y2="160.004" stroke="#E8A62F" stroke-width="3"/>
<line x1="267.167" y1="24.0044" x2="267.167" y2="47.3377" stroke="#EDDE22" stroke-width="3"/>
<line x1="257.833" y1="24.0044" x2="257.833" y2="47.3377" stroke="#62F2A6" stroke-width="3"/>
<line x1="248.5" y1="24.0044" x2="248.5" y2="47.3377" stroke="#C6344A" stroke-width="3"/>
<line x1="379.167" y1="24.0044" x2="379.167" y2="47.3377" stroke="#E8A62F" stroke-width="3"/>
<line x1="369.833" y1="24.0044" x2="369.833" y2="47.3377" stroke="#EDDE22" stroke-width="3"/>
<line x1="360.5" y1="24.0044" x2="360.5" y2="47.3377" stroke="#62F2A6" stroke-width="3"/>
<line x1="351.167" y1="24.0044" x2="351.167" y2="47.3377" stroke="#C6344A" stroke-width="3"/>
<path d="M690.5 19.0005C690.5 19.0005 504.267 19.0005 496.801 19.0005C489.335 19.0005 484.662 19.0005 475.984 19.0005L247 19.0005" stroke="#79CCDB" stroke-width="10"/>
<line y1="-1.5" x2="23.3333" y2="-1.5" transform="matrix(0 -1 -1 0 415 160.004)" stroke="#C6344A" stroke-width="3"/>
<line y1="-1.5" x2="23.3333" y2="-1.5" transform="matrix(0 -1 -1 0 405.667 160.004)" stroke="#EDDE22" stroke-width="3"/>
<line y1="-1.5" x2="23.3333" y2="-1.5" transform="matrix(0 -1 -1 0 396.333 160.004)" stroke="#EDDE22" stroke-width="3"/>
<line y1="-1.5" x2="23.3333" y2="-1.5" transform="matrix(0 -1 -1 0 387 160.004)" stroke="#C6344A" stroke-width="3"/>
<line y1="-1.5" x2="23.3333" y2="-1.5" transform="matrix(0 -1 -1 0 340.333 160.004)" stroke="#E8A62F" stroke-width="3"/>
<line y1="-1.5" x2="23.3333" y2="-1.5" transform="matrix(0 -1 -1 0 331 160.004)" stroke="#EDDE22" stroke-width="3"/>
<line y1="-1.5" x2="23.3333" y2="-1.5" transform="matrix(0 -1 -1 0 321.667 160.004)" stroke="#62F2A6" stroke-width="3"/>
<line y1="-1.5" x2="23.3333" y2="-1.5" transform="matrix(0 -1 -1 0 312.333 160.004)" stroke="#EDDE22" stroke-width="3"/>
<line y1="-1.5" x2="23.3333" y2="-1.5" transform="matrix(0 -1 -1 0 303 160.004)" stroke="#C6344A" stroke-width="3"/>
<line y1="-1.5" x2="23.3333" y2="-1.5" transform="matrix(0 -1 -1 0 293.667 160.004)" stroke="#EDDE22" stroke-width="3"/>
<line y1="-1.5" x2="23.3333" y2="-1.5" transform="matrix(0 -1 -1 0 284 160.332)" stroke="#E8A62F" stroke-width="3"/>
<line y1="-1.5" x2="23.3333" y2="-1.5" transform="matrix(0 -1 -1 0 275 160.004)" stroke="#EDDE22" stroke-width="3"/>
<line y1="-1.5" x2="23.3333" y2="-1.5" transform="matrix(0 -1 -1 0 265.667 160.004)" stroke="#62F2A6" stroke-width="3"/>
<line y1="-1.5" x2="23.3333" y2="-1.5" transform="matrix(0 -1 -1 0 377.667 160.004)" stroke="#C6344A" stroke-width="3"/>
<line y1="-1.5" x2="23.3333" y2="-1.5" transform="matrix(0 -1 -1 0 368.333 160.004)" stroke="#62F2A6" stroke-width="3"/>
<line y1="-1.5" x2="23.3333" y2="-1.5" transform="matrix(0 -1 -1 0 359 160.004)" stroke="#EDDE22" stroke-width="3"/>
<line y1="-1.5" x2="23.3333" y2="-1.5" transform="matrix(0 -1 -1 0 349.667 160.004)" stroke="#E8A62F" stroke-width="3"/>
<path d="M690.5 165.2C690.5 165.2 529.632 165.325 521.429 165.2C513.227 165.076 508.093 165.04 498.56 165L247 165" stroke="#79CCDB" stroke-width="10"/>
</g>
<g filter="url(#filter1_d)">
<path d="M11.9824 24.0664C13.6947 24.0664 14.5508 23.3242 14.5508 21.8398C14.5508 21.1367 14.4596 20.6257 14.2773 20.3066C14.1016 19.9811 13.7891 19.7467 13.3398 19.6035C12.8906 19.4538 12.2396 19.3789 11.3867 19.3789V17.4355C12.9622 17.4355 13.8997 17.1947 14.1992 16.7129C14.3815 16.4134 14.4727 15.9609 14.4727 15.3555C14.4727 14.7435 14.2871 14.2845 13.916 13.9785C13.5449 13.666 12.8906 13.5098 11.9531 13.5098C11.0156 13.5098 10.3613 13.6855 9.99023 14.0371C9.62565 14.3822 9.44661 15.0072 9.45312 15.9121H6.83594C6.84896 14.2194 7.30469 13.0312 8.20312 12.3477C9.10156 11.6641 10.3451 11.3223 11.9336 11.3223C13.5286 11.3223 14.8014 11.6706 15.752 12.3672C16.7025 13.0573 17.1777 14.0176 17.1777 15.248C17.1777 16.2376 16.9889 16.9701 16.6113 17.4453C16.2337 17.9141 15.6934 18.2266 14.9902 18.3828C16.5332 18.7995 17.3047 19.9518 17.3047 21.8398C17.3047 23.1484 16.888 24.2129 16.0547 25.0332C15.2214 25.8535 13.8965 26.2637 12.0801 26.2637C10.2637 26.2637 8.93555 25.8796 8.0957 25.1113C7.25586 24.3366 6.81641 23.2135 6.77734 21.7422H9.39453C9.40755 22.6276 9.61263 23.2363 10.0098 23.5684C10.4134 23.9004 11.071 24.0664 11.9824 24.0664ZM22.5977 17.8066L21.5527 17.3574C21.8848 16.9798 22.2038 16.4785 22.5098 15.8535C22.8223 15.222 22.9785 14.6068 22.9785 14.0078H21.3672V11.3125H24.5117V13.4902C24.5117 14.3561 24.2969 15.1992 23.8672 16.0195C23.4375 16.8333 23.0143 17.429 22.5977 17.8066Z" fill="#C9D1D9"/>
</g>
<g filter="url(#filter2_d)">
<path d="M703.982 170.066C705.695 170.066 706.551 169.324 706.551 167.84C706.551 167.137 706.46 166.626 706.277 166.307C706.102 165.981 705.789 165.747 705.34 165.604C704.891 165.454 704.24 165.379 703.387 165.379V163.436C704.962 163.436 705.9 163.195 706.199 162.713C706.382 162.413 706.473 161.961 706.473 161.355C706.473 160.743 706.287 160.285 705.916 159.979C705.545 159.666 704.891 159.51 703.953 159.51C703.016 159.51 702.361 159.686 701.99 160.037C701.626 160.382 701.447 161.007 701.453 161.912H698.836C698.849 160.219 699.305 159.031 700.203 158.348C701.102 157.664 702.345 157.322 703.934 157.322C705.529 157.322 706.801 157.671 707.752 158.367C708.702 159.057 709.178 160.018 709.178 161.248C709.178 162.238 708.989 162.97 708.611 163.445C708.234 163.914 707.693 164.227 706.99 164.383C708.533 164.799 709.305 165.952 709.305 167.84C709.305 169.148 708.888 170.213 708.055 171.033C707.221 171.854 705.896 172.264 704.08 172.264C702.264 172.264 700.936 171.88 700.096 171.111C699.256 170.337 698.816 169.214 698.777 167.742H701.395C701.408 168.628 701.613 169.236 702.01 169.568C702.413 169.9 703.071 170.066 703.982 170.066ZM714.598 163.807L713.553 163.357C713.885 162.98 714.204 162.479 714.51 161.854C714.822 161.222 714.979 160.607 714.979 160.008H713.367V157.312H716.512V159.49C716.512 160.356 716.297 161.199 715.867 162.02C715.438 162.833 715.014 163.429 714.598 163.807Z" fill="#C9D1D9"/>
</g>
<g filter="url(#filter3_d)">
<path d="M699.99 15.6016C700.55 15.0156 701.52 14.7227 702.9 14.7227C704.287 14.7227 705.404 15.1719 706.25 16.0703C707.103 16.9688 707.529 18.1178 707.529 19.5176C707.529 20.9173 707.038 22.0599 706.055 22.9453C705.072 23.8242 703.75 24.2637 702.09 24.2637C701.068 24.2637 700.068 24.1139 699.092 23.8145C698.115 23.515 697.386 23.1895 696.904 22.8379L697.676 20.8945C699.004 21.6888 700.423 22.0859 701.934 22.0859C703.77 22.0859 704.691 21.2103 704.697 19.459V19.4492C704.697 18.7526 704.473 18.1992 704.023 17.7891C703.581 17.3724 703.018 17.1641 702.334 17.1641C701.156 17.1641 700.212 17.4993 699.502 18.1699L697.412 17.125L698.203 9.58594H706.426V11.9883H700.391L699.99 15.6016ZM712.598 15.8066L711.553 15.3574C711.885 14.9798 712.204 14.4785 712.51 13.8535C712.822 13.222 712.979 12.6068 712.979 12.0078H711.367V9.3125H714.512V11.4902C714.512 12.3561 714.297 13.1992 713.867 14.0195C713.438 14.8333 713.014 15.429 712.598 15.8066Z" fill="#C9D1D9"/>
</g>
<g filter="url(#filter4_d)">
<path d="M7.99023 163.602C8.55013 163.016 9.52018 162.723 10.9004 162.723C12.2871 162.723 13.4036 163.172 14.25 164.07C15.1029 164.969 15.5293 166.118 15.5293 167.518C15.5293 168.917 15.0378 170.06 14.0547 170.945C13.0716 171.824 11.75 172.264 10.0898 172.264C9.06771 172.264 8.06836 172.114 7.0918 171.814C6.11523 171.515 5.38607 171.189 4.9043 170.838L5.67578 168.895C7.00391 169.689 8.42318 170.086 9.93359 170.086C11.7695 170.086 12.6908 169.21 12.6973 167.459V167.449C12.6973 166.753 12.4727 166.199 12.0234 165.789C11.5807 165.372 11.0176 165.164 10.334 165.164C9.1556 165.164 8.21159 165.499 7.50195 166.17L5.41211 165.125L6.20312 157.586H14.4258V159.988H8.39062L7.99023 163.602ZM20.5977 163.807L19.5527 163.357C19.8848 162.98 20.2038 162.479 20.5098 161.854C20.8223 161.222 20.9785 160.607 20.9785 160.008H19.3672V157.312H22.5117V159.49C22.5117 160.356 22.2969 161.199 21.8672 162.02C21.4375 162.833 21.0143 163.429 20.5977 163.807Z" fill="#C9D1D9"/>
</g>
<g filter="url(#filter5_d)">
<path d="M703.982 80.0664C705.695 80.0664 706.551 79.3242 706.551 77.8398C706.551 77.1367 706.46 76.6257 706.277 76.3066C706.102 75.9811 705.789 75.7467 705.34 75.6035C704.891 75.4538 704.24 75.3789 703.387 75.3789V73.4355C704.962 73.4355 705.9 73.1947 706.199 72.7129C706.382 72.4134 706.473 71.9609 706.473 71.3555C706.473 70.7435 706.287 70.2845 705.916 69.9785C705.545 69.666 704.891 69.5098 703.953 69.5098C703.016 69.5098 702.361 69.6855 701.99 70.0371C701.626 70.3822 701.447 71.0072 701.453 71.9121H698.836C698.849 70.2194 699.305 69.0312 700.203 68.3477C701.102 67.6641 702.345 67.3223 703.934 67.3223C705.529 67.3223 706.801 67.6706 707.752 68.3672C708.702 69.0573 709.178 70.0176 709.178 71.248C709.178 72.2376 708.989 72.9701 708.611 73.4453C708.234 73.9141 707.693 74.2266 706.99 74.3828C708.533 74.7995 709.305 75.9518 709.305 77.8398C709.305 79.1484 708.888 80.2129 708.055 81.0332C707.221 81.8535 705.896 82.2637 704.08 82.2637C702.264 82.2637 700.936 81.8796 700.096 81.1113C699.256 80.3366 698.816 79.2135 698.777 77.7422H701.395C701.408 78.6276 701.613 79.2363 702.01 79.5684C702.413 79.9004 703.071 80.0664 703.982 80.0664ZM714.598 73.8066L713.553 73.3574C713.885 72.9798 714.204 72.4785 714.51 71.8535C714.822 71.222 714.979 70.6068 714.979 70.0078H713.367V67.3125H716.512V69.4902C716.512 70.3561 716.297 71.1992 715.867 72.0195C715.438 72.8333 715.014 73.429 714.598 73.8066Z" fill="#2E55B9"/>
</g>
<g filter="url(#filter6_d)">
<path d="M11.9824 114.066C13.6947 114.066 14.5508 113.324 14.5508 111.84C14.5508 111.137 14.4596 110.626 14.2773 110.307C14.1016 109.981 13.7891 109.747 13.3398 109.604C12.8906 109.454 12.2396 109.379 11.3867 109.379V107.436C12.9622 107.436 13.8997 107.195 14.1992 106.713C14.3815 106.413 14.4727 105.961 14.4727 105.355C14.4727 104.743 14.2871 104.285 13.916 103.979C13.5449 103.666 12.8906 103.51 11.9531 103.51C11.0156 103.51 10.3613 103.686 9.99023 104.037C9.62565 104.382 9.44661 105.007 9.45312 105.912H6.83594C6.84896 104.219 7.30469 103.031 8.20312 102.348C9.10156 101.664 10.3451 101.322 11.9336 101.322C13.5286 101.322 14.8014 101.671 15.752 102.367C16.7025 103.057 17.1777 104.018 17.1777 105.248C17.1777 106.238 16.9889 106.97 16.6113 107.445C16.2337 107.914 15.6934 108.227 14.9902 108.383C16.5332 108.799 17.3047 109.952 17.3047 111.84C17.3047 113.148 16.888 114.213 16.0547 115.033C15.2214 115.854 13.8965 116.264 12.0801 116.264C10.2637 116.264 8.93555 115.88 8.0957 115.111C7.25586 114.337 6.81641 113.214 6.77734 111.742H9.39453C9.40755 112.628 9.61263 113.236 10.0098 113.568C10.4134 113.9 11.071 114.066 11.9824 114.066ZM22.5977 107.807L21.5527 107.357C21.8848 106.98 22.2038 106.479 22.5098 105.854C22.8223 105.222 22.9785 104.607 22.9785 104.008H21.3672V101.312H24.5117V103.49C24.5117 104.356 24.2969 105.199 23.8672 106.02C23.4375 106.833 23.0143 107.429 22.5977 107.807Z" fill="#2E55B9"/>
</g>
<g filter="url(#filter7_d)">
<path d="M9.99023 68.6016C10.5501 68.0156 11.5202 67.7227 12.9004 67.7227C14.2871 67.7227 15.4036 68.1719 16.25 69.0703C17.1029 69.9688 17.5293 71.1178 17.5293 72.5176C17.5293 73.9173 17.0378 75.0599 16.0547 75.9453C15.0716 76.8242 13.75 77.2637 12.0898 77.2637C11.0677 77.2637 10.0684 77.1139 9.0918 76.8145C8.11523 76.515 7.38607 76.1895 6.9043 75.8379L7.67578 73.8945C9.00391 74.6888 10.4232 75.0859 11.9336 75.0859C13.7695 75.0859 14.6908 74.2103 14.6973 72.459V72.4492C14.6973 71.7526 14.4727 71.1992 14.0234 70.7891C13.5807 70.3724 13.0176 70.1641 12.334 70.1641C11.1556 70.1641 10.2116 70.4993 9.50195 71.1699L7.41211 70.125L8.20312 62.5859H16.4258V64.9883H10.3906L9.99023 68.6016ZM22.5977 68.8066L21.5527 68.3574C21.8848 67.9798 22.2038 67.4785 22.5098 66.8535C22.8223 66.222 22.9785 65.6068 22.9785 65.0078H21.3672V62.3125H24.5117V64.4902C24.5117 65.3561 24.2969 66.1992 23.8672 67.0195C23.4375 67.8333 23.0143 68.429 22.5977 68.8066Z" fill="#2E55B9"/>
</g>
<g filter="url(#filter8_d)">
<path d="M701.99 108.602C702.55 108.016 703.52 107.723 704.9 107.723C706.287 107.723 707.404 108.172 708.25 109.07C709.103 109.969 709.529 111.118 709.529 112.518C709.529 113.917 709.038 115.06 708.055 115.945C707.072 116.824 705.75 117.264 704.09 117.264C703.068 117.264 702.068 117.114 701.092 116.814C700.115 116.515 699.386 116.189 698.904 115.838L699.676 113.895C701.004 114.689 702.423 115.086 703.934 115.086C705.77 115.086 706.691 114.21 706.697 112.459V112.449C706.697 111.753 706.473 111.199 706.023 110.789C705.581 110.372 705.018 110.164 704.334 110.164C703.156 110.164 702.212 110.499 701.502 111.17L699.412 110.125L700.203 102.586H708.426V104.988H702.391L701.99 108.602ZM714.598 108.807L713.553 108.357C713.885 107.98 714.204 107.479 714.51 106.854C714.822 106.222 714.979 105.607 714.979 105.008H713.367V102.312H716.512V104.49C716.512 105.356 716.297 106.199 715.867 107.02C715.438 107.833 715.014 108.429 714.598 108.807Z" fill="#2E55B9"/>
</g>
<g filter="url(#filter9_d)">
<line x1="45.2" y1="47" x2="45.2" y2="70.33" stroke="#EDDE22" stroke-width="3"/>
<line x1="54.9" y1="47" x2="54.9" y2="70.33" stroke="#C6344A" stroke-width="3"/>
<line x1="63.7" y1="47" x2="63.7" y2="70.33" stroke="#EDDE22" stroke-width="3"/>
<line x1="82" y1="47" x2="82" y2="70.33" stroke="#EDDE22" stroke-width="3"/>
<line x1="73" y1="47" x2="73" y2="70.33" stroke="#62F2A6" stroke-width="3"/>
<line x1="91.3" y1="47" x2="91.3" y2="70.33" stroke="#62F2A6" stroke-width="3"/>
<line x1="101" y1="47" x2="101" y2="70.33" stroke="#62F2A6" stroke-width="3"/>
<line x1="109.5" y1="47" x2="109.5" y2="70.33" stroke="#EDDE22" stroke-width="3"/>
<line x1="35.9" y1="47" x2="35.9" y2="70.33" stroke="#E8A62F" stroke-width="3"/>
</g>
<g filter="url(#filter10_d)">
<line x1="211.7" y1="137.3" x2="211.7" y2="113.97" stroke="#EDDE22" stroke-width="3"/>
<line x1="202.5" y1="137.3" x2="202.5" y2="113.97" stroke="#62F2A6" stroke-width="3"/>
<line x1="193.8" y1="137.3" x2="193.8" y2="113.97" stroke="#62F2A6" stroke-width="3"/>
<line x1="175.2" y1="137.3" x2="175.2" y2="113.97" stroke="#62F2A6" stroke-width="3"/>
<line x1="184.5" y1="137.3" x2="184.5" y2="113.97" stroke="#E8A62F" stroke-width="3"/>
<line x1="165.7" y1="137.3" x2="165.7" y2="113.97" stroke="#EDDE22" stroke-width="3"/>
<line x1="156.5" y1="137.3" x2="156.5" y2="113.97" stroke="#C6344A" stroke-width="3"/>
<line x1="148" y1="137.3" x2="148" y2="113.97" stroke="#C6344A" stroke-width="3"/>
<line x1="221.1" y1="137.3" x2="221.1" y2="113.97" stroke="#62F2A6" stroke-width="3"/>
</g>
<g filter="url(#filter11_d)">
<line x1="416.5" y1="137.3" x2="416.5" y2="113.97" stroke="#E8A62F" stroke-width="3"/>
<line x1="407.5" y1="137.3" x2="407.5" y2="113.97" stroke="#62F2A6" stroke-width="3"/>
<line x1="397.8" y1="137.3" x2="397.8" y2="113.97" stroke="#62F2A6" stroke-width="3"/>
<line x1="379.2" y1="137.3" x2="379.2" y2="113.97" stroke="#E8A62F" stroke-width="3"/>
<line x1="388.5" y1="137.3" x2="388.5" y2="113.97" stroke="#E8A62F" stroke-width="3"/>
<line x1="369.7" y1="137.3" x2="369.7" y2="113.97" stroke="#EDDE22" stroke-width="3"/>
<line x1="360.5" y1="137.3" x2="360.5" y2="113.97" stroke="#62F2A6" stroke-width="3"/>
<line x1="351.2" y1="137.3" x2="351.2" y2="113.97" stroke="#C6344A" stroke-width="3"/>
<line x1="425" y1="137.3" x2="425" y2="113.97" stroke="#C6344A" stroke-width="3"/>
</g>
<g filter="url(#filter12_d)">
<line x1="675.5" y1="137.3" x2="675.5" y2="113.97" stroke="#62F2A6" stroke-width="3"/>
<line x1="666.5" y1="137.3" x2="666.5" y2="113.97" stroke="#EFE123" stroke-width="3"/>
<line x1="656.8" y1="137.3" x2="656.8" y2="113.97" stroke="#62F2A6" stroke-width="3"/>
<line x1="638.5" y1="137.33" x2="638.5" y2="114" stroke="#62F2A6" stroke-width="3"/>
<line x1="647.5" y1="137.3" x2="647.5" y2="113.97" stroke="#C6344A" stroke-width="3"/>
<line x1="628.5" y1="137.33" x2="628.5" y2="114" stroke="#C6344A" stroke-width="3"/>
<line x1="619.5" y1="137.3" x2="619.5" y2="113.97" stroke="#62F2A6" stroke-width="3"/>
<line x1="610.2" y1="137.3" x2="610.2" y2="113.97" stroke="#62F2A6" stroke-width="3"/>
<line x1="684.5" y1="137.33" x2="684.5" y2="114" stroke="#C6344A" stroke-width="3"/>
</g>
<g filter="url(#filter13_d)">
<path d="M28.5 75H690" stroke="#79CCDB" stroke-width="10"/>
<line x1="128.3" y1="47" x2="128.3" y2="70.33" stroke="#C6344A" stroke-width="3"/>
<line x1="137.5" y1="47" x2="137.5" y2="70.33" stroke="#C6344A" stroke-width="3"/>
<line x1="146.7" y1="47" x2="146.7" y2="70.33" stroke="#E8A62F" stroke-width="3"/>
<line x1="165" y1="47" x2="165" y2="70.33" stroke="#62F2A6" stroke-width="3"/>
<line x1="155.7" y1="47" x2="155.7" y2="70.33" stroke="#E8A62F" stroke-width="3"/>
<line x1="174" y1="47" x2="174" y2="70.33" stroke="#EDDE22" stroke-width="3"/>
<line x1="183.5" y1="47" x2="183.5" y2="70.33" stroke="#C6344A" stroke-width="3"/>
<line x1="202.5" y1="47" x2="202.5" y2="70.33" stroke="#EDDE22" stroke-width="3"/>
<line x1="193" y1="47" x2="193" y2="70.33" stroke="#EDDE22" stroke-width="3"/>
<line x1="212" y1="47" x2="212" y2="70.33" stroke="#62F2A6" stroke-width="3"/>
<line x1="221.2" y1="47" x2="221.2" y2="70.33" stroke="#EDDE22" stroke-width="3"/>
<line x1="230.5" y1="47" x2="230.5" y2="70.33" stroke="#E8A62F" stroke-width="3"/>
<line x1="239.7" y1="47" x2="239.7" y2="70.33" stroke="#C6344A" stroke-width="3"/>
<line x1="248.5" y1="47" x2="248.5" y2="70.33" stroke="#E8A62F" stroke-width="3"/>
<line x1="257.5" y1="47" x2="257.5" y2="70.33" stroke="#EDDE22" stroke-width="3"/>
<line x1="267.5" y1="47" x2="267.5" y2="70.33" stroke="#62F2A6" stroke-width="3"/>
<line x1="276.5" y1="47" x2="276.5" y2="70.33" stroke="#EDDE22" stroke-width="3"/>
<line x1="285.7" y1="47" x2="285.7" y2="70.33" stroke="#E8A62F" stroke-width="3"/>
<line x1="295.3" y1="47" x2="295.3" y2="70.33" stroke="#EDDE22" stroke-width="3"/>
<line x1="304.5" y1="47" x2="304.5" y2="70.33" stroke="#C6344A" stroke-width="3"/>
<line x1="313.9" y1="47" x2="313.9" y2="70.33" stroke="#EDDE22" stroke-width="3"/>
<line x1="323.5" y1="47" x2="323.5" y2="70.33" stroke="#62F2A6" stroke-width="3"/>
<line x1="332.5" y1="47" x2="332.5" y2="70.33" stroke="#EDDE22" stroke-width="3"/>
<line x1="342" y1="47" x2="342" y2="70.33" stroke="#E8A62F" stroke-width="3"/>
<line x1="351.5" y1="47" x2="351.5" y2="70.33" stroke="#E8A62F" stroke-width="3"/>
<line x1="360.5" y1="47" x2="360.5" y2="70.33" stroke="#EDDE22" stroke-width="3"/>
<line x1="369.7" y1="47" x2="369.7" y2="70.33" stroke="#62F2A6" stroke-width="3"/>
<line x1="379.3" y1="47" x2="379.3" y2="70.33" stroke="#C6344A" stroke-width="3"/>
<line x1="388.5" y1="47" x2="388.5" y2="70.33" stroke="#C6344A" stroke-width="3"/>
<line x1="397.5" y1="47" x2="397.5" y2="70.33" stroke="#EDDE22" stroke-width="3"/>
<line x1="407" y1="47" x2="407" y2="70.33" stroke="#EDDE22" stroke-width="3"/>
<line x1="416.5" y1="47" x2="416.5" y2="70.33" stroke="#C6344A" stroke-width="3"/>
<line x1="118.8" y1="47" x2="118.8" y2="70.33" stroke="#EDDE22" stroke-width="3"/>
</g>
<g filter="url(#filter14_d)">
<path d="M31 109H142.7" stroke="#79CCDB" stroke-width="10"/>
<line y1="-1.5" x2="23.33" y2="-1.5" transform="matrix(0 -1 -1 0 91.1 137.17)" stroke="#EDDE22" stroke-width="3"/>
<line y1="-1.5" x2="23.33" y2="-1.5" transform="matrix(0 -1 -1 0 100.3 137.17)" stroke="#EDDE22" stroke-width="3"/>
<line y1="-1.5" x2="23.33" y2="-1.5" transform="matrix(0 -1 -1 0 109.3 137.17)" stroke="#62F2A6" stroke-width="3"/>
<line y1="-1.5" x2="23.33" y2="-1.5" transform="matrix(0 -1 -1 0 127.8 137.17)" stroke="#E8A62F" stroke-width="3"/>
<line y1="-1.5" x2="23.33" y2="-1.5" transform="matrix(0 -1 -1 0 118.7 137.17)" stroke="#62F2A6" stroke-width="3"/>
<line y1="-1.5" x2="23.33" y2="-1.5" transform="matrix(0 -1 -1 0 137.1 137.17)" stroke="#E8A62F" stroke-width="3"/>
<line y1="-1.5" x2="23.33" y2="-1.5" transform="matrix(0 -1 -1 0 81.6 137.17)" stroke="#62F2A6" stroke-width="3"/>
<line y1="-1.5" x2="23.33" y2="-1.5" transform="matrix(0 -1 -1 0 72.3 137.17)" stroke="#EDDE22" stroke-width="3"/>
<line y1="-1.5" x2="23.33" y2="-1.5" transform="matrix(0 -1 -1 0 63.1 137.5)" stroke="#62F2A6" stroke-width="3"/>
<line y1="-1.5" x2="23.33" y2="-1.5" transform="matrix(0 -1 -1 0 54.5 137.33)" stroke="#E8A62F" stroke-width="3"/>
<line y1="-1.5" x2="23.33" y2="-1.5" transform="matrix(0 -1 -1 0 45 137.33)" stroke="#62F2A6" stroke-width="3"/>
<line y1="-1.5" x2="23.33" y2="-1.5" transform="matrix(0 -1 -1 0 36 137.329)" stroke="#C6344A" stroke-width="3"/>
</g>
<g filter="url(#filter15_d)">
<path d="M137 109H353" stroke="#79CCDB" stroke-width="10"/>
<line y1="-1.5" x2="23.33" y2="-1.5" transform="matrix(0 -1 -1 0 293.9 137.17)" stroke="#62F2A6" stroke-width="3"/>
<line y1="-1.5" x2="23.33" y2="-1.5" transform="matrix(0 -1 -1 0 303.1 137.17)" stroke="#E8A62F" stroke-width="3"/>
<line y1="-1.5" x2="23.33" y2="-1.5" transform="matrix(0 -1 -1 0 312.5 137.17)" stroke="#62F2A6" stroke-width="3"/>
<line y1="-1.5" x2="23.33" y2="-1.5" transform="matrix(0 -1 -1 0 331 137.17)" stroke="#62F2A6" stroke-width="3"/>
<line y1="-1.5" x2="23.33" y2="-1.5" transform="matrix(0 -1 -1 0 321.5 137.17)" stroke="#EDDE22" stroke-width="3"/>
<line y1="-1.5" x2="23.33" y2="-1.5" transform="matrix(0 -1 -1 0 340.5 137.17)" stroke="#C6344A" stroke-width="3"/>
<line y1="-1.5" x2="23.33" y2="-1.5" transform="matrix(0 -1 -1 0 284 137.17)" stroke="#C6344A" stroke-width="3"/>
<line y1="-1.5" x2="23.33" y2="-1.5" transform="matrix(0 -1 -1 0 275.1 137.17)" stroke="#62F2A6" stroke-width="3"/>
<line y1="-1.5" x2="23.33" y2="-1.5" transform="matrix(0 -1 -1 0 265.7 137.5)" stroke="#EDDE22" stroke-width="3"/>
<line y1="-1.5" x2="23.33" y2="-1.5" transform="matrix(0 -1 -1 0 256.2 137.33)" stroke="#62F2A6" stroke-width="3"/>
<line y1="-1.5" x2="23.33" y2="-1.5" transform="matrix(0 -1 -1 0 247 137.33)" stroke="#C6344A" stroke-width="3"/>
<line y1="-1.5" x2="23.33" y2="-1.5" transform="matrix(0 -1 -1 0 238.5 137.33)" stroke="#E8A62F" stroke-width="3"/>
<line y1="-1.5" x2="23.33" y2="-1.5" transform="matrix(0 -1 -1 0 229 137.33)" stroke="#C6344A" stroke-width="3"/>
</g>
<g filter="url(#filter16_d)">
<path d="M348 109.002H690" stroke="#79CCDB" stroke-width="10"/>
<line y1="-1.5" x2="23.33" y2="-1.5" transform="matrix(0 -1 -1 0 553 137.332)" stroke="#EFE123" stroke-width="3"/>
<line y1="-1.5" x2="23.33" y2="-1.5" transform="matrix(0 -1 -1 0 562 137.332)" stroke="#C6344A" stroke-width="3"/>
<line y1="-1.5" x2="23.33" y2="-1.5" transform="matrix(0 -1 -1 0 571 137.172)" stroke="#62F2A6" stroke-width="3"/>
<line y1="-1.5" x2="23.33" y2="-1.5" transform="matrix(0 -1 -1 0 590 137.332)" stroke="#C6344A" stroke-width="3"/>
<line y1="-1.5" x2="23.33" y2="-1.5" transform="matrix(0 -1 -1 0 581 137.332)" stroke="#E8A62F" stroke-width="3"/>
<line y1="-1.5" x2="23.33" y2="-1.5" transform="matrix(0 -1 -1 0 599 137.172)" stroke="#E8A62F" stroke-width="3"/>
<line y1="-1.5" x2="23.33" y2="-1.5" transform="matrix(0 -1 -1 0 543 137.332)" stroke="#E8A62F" stroke-width="3"/>
<line y1="-1.5" x2="23.33" y2="-1.5" transform="matrix(0 -1 -1 0 534 137.332)" stroke="#62F2A6" stroke-width="3"/>
<line y1="-1.5" x2="23.33" y2="-1.5" transform="matrix(0 -1 -1 0 525 137.332)" stroke="#62F2A6" stroke-width="3"/>
<line y1="-1.5" x2="23.33" y2="-1.5" transform="matrix(0 -1 -1 0 516 137.332)" stroke="#C6344A" stroke-width="3"/>
<line y1="-1.5" x2="23.33" y2="-1.5" transform="matrix(0 -1 -1 0 508 137.332)" stroke="#C6344A" stroke-width="3"/>
<line y1="-1.5" x2="23.33" y2="-1.5" transform="matrix(0 -1 -1 0 500 137.332)" stroke="#62F2A6" stroke-width="3"/>
<line y1="-1.5" x2="23.33" y2="-1.5" transform="matrix(0 -1 -1 0 492 137.332)" stroke="#62F2A6" stroke-width="3"/>
<line y1="-1.5" x2="23.33" y2="-1.5" transform="matrix(0 -1 -1 0 483 137.332)" stroke="#62F2A6" stroke-width="3"/>
<line y1="-1.5" x2="23.33" y2="-1.5" transform="matrix(0 -1 -1 0 475 137.332)" stroke="#E8A62F" stroke-width="3"/>
<line y1="-1.5" x2="23.33" y2="-1.5" transform="matrix(0 -1 -1 0 467 137.331)" stroke="#E8A62F" stroke-width="3"/>
<line y1="-1.5" x2="23.33" y2="-1.5" transform="matrix(0 -1 -1 0 459 137.331)" stroke="#62F2A6" stroke-width="3"/>
<line y1="-1.5" x2="23.33" y2="-1.5" transform="matrix(0 -1 -1 0 451 137.331)" stroke="#E8A62F" stroke-width="3"/>
<line y1="-1.5" x2="23.33" y2="-1.5" transform="matrix(0 -1 -1 0 442 137.331)" stroke="#C6344A" stroke-width="3"/>
<line y1="-1.5" x2="23.33" y2="-1.5" transform="matrix(0 -1 -1 0 433 137.331)" stroke="#62F2A6" stroke-width="3"/>
</g>
<defs>
<filter id="filter0_d" x="24" y="14.0005" width="670.503" height="164.256" filterUnits="userSpaceOnUse" color-interpolation-filters="sRGB">
<feFlood flood-opacity="0" result="BackgroundImageFix"/>
<feColorMatrix in="SourceAlpha" type="matrix" values="0 0 0 0 0 0 0 0 0 0 0 0 0 0 0 0 0 0 127 0"/>
<feOffset dy="4"/>
<feGaussianBlur stdDeviation="2"/>
<feColorMatrix type="matrix" values="0 0 0 0 0 0 0 0 0 0 0 0 0 0 0 0 0 0 0.25 0"/>
<feBlend mode="normal" in2="BackgroundImageFix" result="effect1_dropShadow"/>
<feBlend mode="normal" in="SourceGraphic" in2="effect1_dropShadow" result="shape"/>
</filter>
<filter id="filter1_d" x="2.77734" y="11.3125" width="25.7344" height="22.9512" filterUnits="userSpaceOnUse" color-interpolation-filters="sRGB">
<feFlood flood-opacity="0" result="BackgroundImageFix"/>
<feColorMatrix in="SourceAlpha" type="matrix" values="0 0 0 0 0 0 0 0 0 0 0 0 0 0 0 0 0 0 127 0"/>
<feOffset dy="4"/>
<feGaussianBlur stdDeviation="2"/>
<feColorMatrix type="matrix" values="0 0 0 0 0 0 0 0 0 0 0 0 0 0 0 0 0 0 0.25 0"/>
<feBlend mode="normal" in2="BackgroundImageFix" result="effect1_dropShadow"/>
<feBlend mode="normal" in="SourceGraphic" in2="effect1_dropShadow" result="shape"/>
</filter>
<filter id="filter2_d" x="694.777" y="157.312" width="25.7344" height="22.9512" filterUnits="userSpaceOnUse" color-interpolation-filters="sRGB">
<feFlood flood-opacity="0" result="BackgroundImageFix"/>
<feColorMatrix in="SourceAlpha" type="matrix" values="0 0 0 0 0 0 0 0 0 0 0 0 0 0 0 0 0 0 127 0"/>
<feOffset dy="4"/>
<feGaussianBlur stdDeviation="2"/>
<feColorMatrix type="matrix" values="0 0 0 0 0 0 0 0 0 0 0 0 0 0 0 0 0 0 0.25 0"/>
<feBlend mode="normal" in2="BackgroundImageFix" result="effect1_dropShadow"/>
<feBlend mode="normal" in="SourceGraphic" in2="effect1_dropShadow" result="shape"/>
</filter>
<filter id="filter3_d" x="692.904" y="9.3125" width="25.6074" height="22.9512" filterUnits="userSpaceOnUse" color-interpolation-filters="sRGB">
<feFlood flood-opacity="0" result="BackgroundImageFix"/>
<feColorMatrix in="SourceAlpha" type="matrix" values="0 0 0 0 0 0 0 0 0 0 0 0 0 0 0 0 0 0 127 0"/>
<feOffset dy="4"/>
<feGaussianBlur stdDeviation="2"/>
<feColorMatrix type="matrix" values="0 0 0 0 0 0 0 0 0 0 0 0 0 0 0 0 0 0 0.25 0"/>
<feBlend mode="normal" in2="BackgroundImageFix" result="effect1_dropShadow"/>
<feBlend mode="normal" in="SourceGraphic" in2="effect1_dropShadow" result="shape"/>
</filter>
<filter id="filter4_d" x="0.904297" y="157.312" width="25.6074" height="22.9512" filterUnits="userSpaceOnUse" color-interpolation-filters="sRGB">
<feFlood flood-opacity="0" result="BackgroundImageFix"/>
<feColorMatrix in="SourceAlpha" type="matrix" values="0 0 0 0 0 0 0 0 0 0 0 0 0 0 0 0 0 0 127 0"/>
<feOffset dy="4"/>
<feGaussianBlur stdDeviation="2"/>
<feColorMatrix type="matrix" values="0 0 0 0 0 0 0 0 0 0 0 0 0 0 0 0 0 0 0.25 0"/>
<feBlend mode="normal" in2="BackgroundImageFix" result="effect1_dropShadow"/>
<feBlend mode="normal" in="SourceGraphic" in2="effect1_dropShadow" result="shape"/>
</filter>
<filter id="filter5_d" x="694.777" y="67.3125" width="25.7344" height="22.9512" filterUnits="userSpaceOnUse" color-interpolation-filters="sRGB">
<feFlood flood-opacity="0" result="BackgroundImageFix"/>
<feColorMatrix in="SourceAlpha" type="matrix" values="0 0 0 0 0 0 0 0 0 0 0 0 0 0 0 0 0 0 127 0"/>
<feOffset dy="4"/>
<feGaussianBlur stdDeviation="2"/>
<feColorMatrix type="matrix" values="0 0 0 0 0 0 0 0 0 0 0 0 0 0 0 0 0 0 0.25 0"/>
<feBlend mode="normal" in2="BackgroundImageFix" result="effect1_dropShadow"/>
<feBlend mode="normal" in="SourceGraphic" in2="effect1_dropShadow" result="shape"/>
</filter>
<filter id="filter6_d" x="2.77734" y="101.312" width="25.7344" height="22.9512" filterUnits="userSpaceOnUse" color-interpolation-filters="sRGB">
<feFlood flood-opacity="0" result="BackgroundImageFix"/>
<feColorMatrix in="SourceAlpha" type="matrix" values="0 0 0 0 0 0 0 0 0 0 0 0 0 0 0 0 0 0 127 0"/>
<feOffset dy="4"/>
<feGaussianBlur stdDeviation="2"/>
<feColorMatrix type="matrix" values="0 0 0 0 0 0 0 0 0 0 0 0 0 0 0 0 0 0 0.25 0"/>
<feBlend mode="normal" in2="BackgroundImageFix" result="effect1_dropShadow"/>
<feBlend mode="normal" in="SourceGraphic" in2="effect1_dropShadow" result="shape"/>
</filter>
<filter id="filter7_d" x="2.9043" y="62.3125" width="25.6074" height="22.9512" filterUnits="userSpaceOnUse" color-interpolation-filters="sRGB">
<feFlood flood-opacity="0" result="BackgroundImageFix"/>
<feColorMatrix in="SourceAlpha" type="matrix" values="0 0 0 0 0 0 0 0 0 0 0 0 0 0 0 0 0 0 127 0"/>
<feOffset dy="4"/>
<feGaussianBlur stdDeviation="2"/>
<feColorMatrix type="matrix" values="0 0 0 0 0 0 0 0 0 0 0 0 0 0 0 0 0 0 0.25 0"/>
<feBlend mode="normal" in2="BackgroundImageFix" result="effect1_dropShadow"/>
<feBlend mode="normal" in="SourceGraphic" in2="effect1_dropShadow" result="shape"/>
</filter>
<filter id="filter8_d" x="694.904" y="102.312" width="25.6074" height="22.9512" filterUnits="userSpaceOnUse" color-interpolation-filters="sRGB">
<feFlood flood-opacity="0" result="BackgroundImageFix"/>
<feColorMatrix in="SourceAlpha" type="matrix" values="0 0 0 0 0 0 0 0 0 0 0 0 0 0 0 0 0 0 127 0"/>
<feOffset dy="4"/>
<feGaussianBlur stdDeviation="2"/>
<feColorMatrix type="matrix" values="0 0 0 0 0 0 0 0 0 0 0 0 0 0 0 0 0 0 0.25 0"/>
<feBlend mode="normal" in2="BackgroundImageFix" result="effect1_dropShadow"/>
<feBlend mode="normal" in="SourceGraphic" in2="effect1_dropShadow" result="shape"/>
</filter>
<filter id="filter9_d" x="30.4" y="47" width="84.6" height="31.33" filterUnits="userSpaceOnUse" color-interpolation-filters="sRGB">
<feFlood flood-opacity="0" result="BackgroundImageFix"/>
<feColorMatrix in="SourceAlpha" type="matrix" values="0 0 0 0 0 0 0 0 0 0 0 0 0 0 0 0 0 0 127 0"/>
<feOffset dy="4"/>
<feGaussianBlur stdDeviation="2"/>
<feColorMatrix type="matrix" values="0 0 0 0 0 0 0 0 0 0 0 0 0 0 0 0 0 0 0.25 0"/>
<feBlend mode="normal" in2="BackgroundImageFix" result="effect1_dropShadow"/>
<feBlend mode="normal" in="SourceGraphic" in2="effect1_dropShadow" result="shape"/>
</filter>
<filter id="filter10_d" x="142.5" y="113.97" width="84.1" height="31.33" filterUnits="userSpaceOnUse" color-interpolation-filters="sRGB">
<feFlood flood-opacity="0" result="BackgroundImageFix"/>
<feColorMatrix in="SourceAlpha" type="matrix" values="0 0 0 0 0 0 0 0 0 0 0 0 0 0 0 0 0 0 127 0"/>
<feOffset dy="4"/>
<feGaussianBlur stdDeviation="2"/>
<feColorMatrix type="matrix" values="0 0 0 0 0 0 0 0 0 0 0 0 0 0 0 0 0 0 0.25 0"/>
<feBlend mode="normal" in2="BackgroundImageFix" result="effect1_dropShadow"/>
<feBlend mode="normal" in="SourceGraphic" in2="effect1_dropShadow" result="shape"/>
</filter>
<filter id="filter11_d" x="345.7" y="113.97" width="84.8" height="31.33" filterUnits="userSpaceOnUse" color-interpolation-filters="sRGB">
<feFlood flood-opacity="0" result="BackgroundImageFix"/>
<feColorMatrix in="SourceAlpha" type="matrix" values="0 0 0 0 0 0 0 0 0 0 0 0 0 0 0 0 0 0 127 0"/>
<feOffset dy="4"/>
<feGaussianBlur stdDeviation="2"/>
<feColorMatrix type="matrix" values="0 0 0 0 0 0 0 0 0 0 0 0 0 0 0 0 0 0 0.25 0"/>
<feBlend mode="normal" in2="BackgroundImageFix" result="effect1_dropShadow"/>
<feBlend mode="normal" in="SourceGraphic" in2="effect1_dropShadow" result="shape"/>
</filter>
<filter id="filter12_d" x="604.7" y="113.97" width="85.3" height="31.3603" filterUnits="userSpaceOnUse" color-interpolation-filters="sRGB">
<feFlood flood-opacity="0" result="BackgroundImageFix"/>
<feColorMatrix in="SourceAlpha" type="matrix" values="0 0 0 0 0 0 0 0 0 0 0 0 0 0 0 0 0 0 127 0"/>
<feOffset dy="4"/>
<feGaussianBlur stdDeviation="2"/>
<feColorMatrix type="matrix" values="0 0 0 0 0 0 0 0 0 0 0 0 0 0 0 0 0 0 0.25 0"/>
<feBlend mode="normal" in2="BackgroundImageFix" result="effect1_dropShadow"/>
<feBlend mode="normal" in="SourceGraphic" in2="effect1_dropShadow" result="shape"/>
</filter>
<filter id="filter13_d" x="24.5" y="47" width="669.5" height="41" filterUnits="userSpaceOnUse" color-interpolation-filters="sRGB">
<feFlood flood-opacity="0" result="BackgroundImageFix"/>
<feColorMatrix in="SourceAlpha" type="matrix" values="0 0 0 0 0 0 0 0 0 0 0 0 0 0 0 0 0 0 127 0"/>
<feOffset dy="4"/>
<feGaussianBlur stdDeviation="2"/>
<feColorMatrix type="matrix" values="0 0 0 0 0 0 0 0 0 0 0 0 0 0 0 0 0 0 0.25 0"/>
<feBlend mode="normal" in2="BackgroundImageFix" result="effect1_dropShadow"/>
<feBlend mode="normal" in="SourceGraphic" in2="effect1_dropShadow" result="shape"/>
</filter>
<filter id="filter14_d" x="27" y="104" width="119.7" height="41.4999" filterUnits="userSpaceOnUse" color-interpolation-filters="sRGB">
<feFlood flood-opacity="0" result="BackgroundImageFix"/>
<feColorMatrix in="SourceAlpha" type="matrix" values="0 0 0 0 0 0 0 0 0 0 0 0 0 0 0 0 0 0 127 0"/>
<feOffset dy="4"/>
<feGaussianBlur stdDeviation="2"/>
<feColorMatrix type="matrix" values="0 0 0 0 0 0 0 0 0 0 0 0 0 0 0 0 0 0 0.25 0"/>
<feBlend mode="normal" in2="BackgroundImageFix" result="effect1_dropShadow"/>
<feBlend mode="normal" in="SourceGraphic" in2="effect1_dropShadow" result="shape"/>
</filter>
<filter id="filter15_d" x="133" y="104" width="224" height="41.4999" filterUnits="userSpaceOnUse" color-interpolation-filters="sRGB">
<feFlood flood-opacity="0" result="BackgroundImageFix"/>
<feColorMatrix in="SourceAlpha" type="matrix" values="0 0 0 0 0 0 0 0 0 0 0 0 0 0 0 0 0 0 127 0"/>
<feOffset dy="4"/>
<feGaussianBlur stdDeviation="2"/>
<feColorMatrix type="matrix" values="0 0 0 0 0 0 0 0 0 0 0 0 0 0 0 0 0 0 0.25 0"/>
<feBlend mode="normal" in2="BackgroundImageFix" result="effect1_dropShadow"/>
<feBlend mode="normal" in="SourceGraphic" in2="effect1_dropShadow" result="shape"/>
</filter>
<filter id="filter16_d" x="344" y="104.002" width="350" height="41.33" filterUnits="userSpaceOnUse" color-interpolation-filters="sRGB">
<feFlood flood-opacity="0" result="BackgroundImageFix"/>
<feColorMatrix in="SourceAlpha" type="matrix" values="0 0 0 0 0 0 0 0 0 0 0 0 0 0 0 0 0 0 127 0"/>
<feOffset dy="4"/>
<feGaussianBlur stdDeviation="2"/>
<feColorMatrix type="matrix" values="0 0 0 0 0 0 0 0 0 0 0 0 0 0 0 0 0 0 0.25 0"/>
<feBlend mode="normal" in2="BackgroundImageFix" result="effect1_dropShadow"/>
<feBlend mode="normal" in="SourceGraphic" in2="effect1_dropShadow" result="shape"/>
</filter>
</defs>
</svg>
