<svg width="649" height="69" viewBox="0 0 649 69" fill="none" xmlns="http://www.w3.org/2000/svg">
<path d="M10.2246 16H8.03711L3.26172 9.74023V16H1.52344V3.23633H3.26172V9.16406L7.93945 3.23633H10L4.96094 9.30078L10.2246 16ZM21.0938 11.0195C21.0938 11.7812 20.9863 12.4811 20.7715 13.1191C20.5566 13.7507 20.2474 14.2943 19.8438 14.75C19.4401 15.1992 18.9486 15.5508 18.3691 15.8047C17.7897 16.0521 17.1322 16.1758 16.3965 16.1758C15.6934 16.1758 15.0618 16.0684 14.502 15.8535C13.9486 15.6322 13.4766 15.3099 13.0859 14.8867C12.7018 14.4635 12.4056 13.9395 12.1973 13.3145C11.9954 12.6895 11.8945 11.9701 11.8945 11.1562C11.8945 10.3945 12.002 9.70117 12.2168 9.07617C12.4316 8.44466 12.7409 7.9043 13.1445 7.45508C13.5482 6.99935 14.0397 6.64779 14.6191 6.40039C15.1986 6.14648 15.8561 6.01953 16.5918 6.01953C17.2949 6.01953 17.9232 6.13021 18.4766 6.35156C19.0365 6.56641 19.5085 6.88542 19.8926 7.30859C20.2832 7.72526 20.5794 8.24609 20.7812 8.87109C20.9896 9.49609 21.0938 10.2122 21.0938 11.0195ZM19.3555 11.0977C19.3555 10.4922 19.2871 9.96484 19.1504 9.51562C19.0202 9.0599 18.8314 8.68229 18.584 8.38281C18.3366 8.07682 18.0339 7.84896 17.6758 7.69922C17.3242 7.54297 16.9303 7.46484 16.4941 7.46484C15.9863 7.46484 15.5501 7.56576 15.1855 7.76758C14.8275 7.96289 14.5312 8.22656 14.2969 8.55859C14.069 8.89062 13.8997 9.27799 13.7891 9.7207C13.6849 10.1569 13.6328 10.6159 13.6328 11.0977C13.6328 11.7031 13.6979 12.2337 13.8281 12.6895C13.9648 13.1452 14.1569 13.526 14.4043 13.832C14.6517 14.1315 14.9512 14.3594 15.3027 14.5156C15.6543 14.6654 16.0514 14.7402 16.4941 14.7402C17.002 14.7402 17.4349 14.6426 17.793 14.4473C18.1576 14.2454 18.4538 13.9785 18.6816 13.6465C18.916 13.3145 19.0853 12.9303 19.1895 12.4941C19.3001 12.0514 19.3555 11.5859 19.3555 11.0977ZM30.5469 16V8.95898C30.5469 8.65299 30.5339 8.40234 30.5078 8.20703C30.4883 8.01172 30.4525 7.85872 30.4004 7.74805C30.3548 7.63086 30.293 7.54948 30.2148 7.50391C30.1432 7.45833 30.0521 7.43555 29.9414 7.43555C29.8112 7.43555 29.6908 7.47461 29.5801 7.55273C29.4694 7.63086 29.349 7.75781 29.2188 7.93359C29.0951 8.10938 28.9551 8.34375 28.7988 8.63672C28.6491 8.92318 28.4701 9.27799 28.2617 9.70117V16H26.709V9.14453C26.709 8.78646 26.696 8.49674 26.6699 8.27539C26.6504 8.05404 26.6146 7.88151 26.5625 7.75781C26.5169 7.63411 26.4551 7.54948 26.377 7.50391C26.2988 7.45833 26.2044 7.43555 26.0938 7.43555C25.9766 7.43555 25.8659 7.4681 25.7617 7.5332C25.6576 7.59831 25.5404 7.71549 25.4102 7.88477C25.2865 8.05404 25.1465 8.28516 24.9902 8.57812C24.834 8.87109 24.6484 9.24544 24.4336 9.70117V16H22.8711V6.19531H24.1699L24.248 8.06055C24.4173 7.68945 24.5801 7.3737 24.7363 7.11328C24.8991 6.85286 25.0651 6.64453 25.2344 6.48828C25.4036 6.32552 25.5827 6.20833 25.7715 6.13672C25.9668 6.05859 26.1816 6.01953 26.416 6.01953C26.9434 6.01953 27.3438 6.19206 27.6172 6.53711C27.8906 6.88216 28.0273 7.41602 28.0273 8.13867C28.1836 7.80013 28.3366 7.50065 28.4863 7.24023C28.6361 6.97331 28.7956 6.75195 28.9648 6.57617C29.1406 6.39388 29.3327 6.25716 29.541 6.16602C29.7493 6.06836 29.9902 6.01953 30.2637 6.01953C31.4941 6.01953 32.1094 6.9668 32.1094 8.86133V16H30.5469ZM42.9297 10.9219C42.9297 11.7943 42.806 12.556 42.5586 13.207C42.3177 13.8581 41.9824 14.3984 41.5527 14.8281C41.123 15.2578 40.6152 15.5801 40.0293 15.7949C39.4434 16.0098 38.8086 16.1172 38.125 16.1172C37.8125 16.1172 37.5 16.1009 37.1875 16.0684C36.8815 16.0358 36.569 15.9805 36.25 15.9023V20.0039H34.5508V6.19531H36.0645L36.1719 7.83594C36.6602 7.16536 37.181 6.69661 37.7344 6.42969C38.2878 6.15625 38.8867 6.01953 39.5312 6.01953C40.0911 6.01953 40.5827 6.13672 41.0059 6.37109C41.429 6.60547 41.7839 6.9375 42.0703 7.36719C42.3568 7.79036 42.5716 8.30469 42.7148 8.91016C42.8581 9.50911 42.9297 10.1797 42.9297 10.9219ZM41.1914 11C41.1914 10.4857 41.1523 10.0137 41.0742 9.58398C41.0026 9.1543 40.8854 8.78646 40.7227 8.48047C40.5599 8.17448 40.3516 7.93685 40.0977 7.76758C39.8438 7.5918 39.541 7.50391 39.1895 7.50391C38.9746 7.50391 38.7565 7.53971 38.5352 7.61133C38.3138 7.67643 38.0827 7.79036 37.8418 7.95312C37.6074 8.10938 37.3568 8.32096 37.0898 8.58789C36.8294 8.84831 36.5495 9.17383 36.25 9.56445V14.3203C36.5625 14.4505 36.8913 14.5547 37.2363 14.6328C37.5814 14.7044 37.9199 14.7402 38.252 14.7402C39.1699 14.7402 39.8893 14.431 40.4102 13.8125C40.931 13.1875 41.1914 12.25 41.1914 11ZM54.082 11.0195C54.082 11.7812 53.9746 12.4811 53.7598 13.1191C53.5449 13.7507 53.2357 14.2943 52.832 14.75C52.4284 15.1992 51.9368 15.5508 51.3574 15.8047C50.778 16.0521 50.1204 16.1758 49.3848 16.1758C48.6816 16.1758 48.0501 16.0684 47.4902 15.8535C46.9368 15.6322 46.4648 15.3099 46.0742 14.8867C45.6901 14.4635 45.3939 13.9395 45.1855 13.3145C44.9837 12.6895 44.8828 11.9701 44.8828 11.1562C44.8828 10.3945 44.9902 9.70117 45.2051 9.07617C45.4199 8.44466 45.7292 7.9043 46.1328 7.45508C46.5365 6.99935 47.028 6.64779 47.6074 6.40039C48.1868 6.14648 48.8444 6.01953 49.5801 6.01953C50.2832 6.01953 50.9115 6.13021 51.4648 6.35156C52.0247 6.56641 52.4967 6.88542 52.8809 7.30859C53.2715 7.72526 53.5677 8.24609 53.7695 8.87109C53.9779 9.49609 54.082 10.2122 54.082 11.0195ZM52.3438 11.0977C52.3438 10.4922 52.2754 9.96484 52.1387 9.51562C52.0085 9.0599 51.8197 8.68229 51.5723 8.38281C51.3249 8.07682 51.0221 7.84896 50.6641 7.69922C50.3125 7.54297 49.9186 7.46484 49.4824 7.46484C48.9746 7.46484 48.5384 7.56576 48.1738 7.76758C47.8158 7.96289 47.5195 8.22656 47.2852 8.55859C47.0573 8.89062 46.888 9.27799 46.7773 9.7207C46.6732 10.1569 46.6211 10.6159 46.6211 11.0977C46.6211 11.7031 46.6862 12.2337 46.8164 12.6895C46.9531 13.1452 47.1452 13.526 47.3926 13.832C47.64 14.1315 47.9395 14.3594 48.291 14.5156C48.6426 14.6654 49.0397 14.7402 49.4824 14.7402C49.9902 14.7402 50.4232 14.6426 50.7812 14.4473C51.1458 14.2454 51.4421 13.9785 51.6699 13.6465C51.9043 13.3145 52.0736 12.9303 52.1777 12.4941C52.2884 12.0514 52.3438 11.5859 52.3438 11.0977ZM64.4824 16H56.582V14.7793L62.1191 7.62109H56.7188V6.19531H64.1602V7.52344L58.7207 14.5645H64.4824V16ZM70.8789 7.60156H67.9785V6.19531H72.5977V14.584H75.5176V16H67.6562V14.584H70.8789V7.60156ZM71.4746 2.08398C71.6634 2.08398 71.8392 2.11979 72.002 2.19141C72.1647 2.25651 72.3047 2.35091 72.4219 2.47461C72.5456 2.59831 72.64 2.74154 72.7051 2.9043C72.7767 3.06055 72.8125 3.23307 72.8125 3.42188C72.8125 3.60417 72.7767 3.77669 72.7051 3.93945C72.64 4.10221 72.5456 4.24544 72.4219 4.36914C72.3047 4.49284 72.1647 4.59049 72.002 4.66211C71.8392 4.72721 71.6634 4.75977 71.4746 4.75977C71.2858 4.75977 71.11 4.72721 70.9473 4.66211C70.7845 4.59049 70.6413 4.49284 70.5176 4.36914C70.4004 4.24544 70.306 4.10221 70.2344 3.93945C70.1693 3.77669 70.1367 3.60417 70.1367 3.42188C70.1367 3.23307 70.1693 3.06055 70.2344 2.9043C70.306 2.74154 70.4004 2.59831 70.5176 2.47461C70.6413 2.35091 70.7845 2.25651 70.9473 2.19141C71.11 2.11979 71.2858 2.08398 71.4746 2.08398ZM86.1523 15.6387C85.7096 15.8079 85.2539 15.9316 84.7852 16.0098C84.3229 16.0944 83.8444 16.1367 83.3496 16.1367C81.8001 16.1367 80.6055 15.7168 79.7656 14.877C78.9323 14.0371 78.5156 12.8099 78.5156 11.1953C78.5156 10.4206 78.6361 9.71745 78.877 9.08594C79.1178 8.45443 79.4564 7.91406 79.8926 7.46484C80.3288 7.01562 80.8496 6.67057 81.4551 6.42969C82.0605 6.18229 82.7279 6.05859 83.457 6.05859C83.9648 6.05859 84.4401 6.0944 84.8828 6.16602C85.3255 6.23763 85.7487 6.35482 86.1523 6.51758V8.13867C85.7292 7.91732 85.2962 7.75781 84.8535 7.66016C84.4173 7.55599 83.9648 7.50391 83.4961 7.50391C83.0599 7.50391 82.6465 7.58854 82.2559 7.75781C81.8717 7.92057 81.5332 8.1582 81.2402 8.4707C80.9473 8.7832 80.7161 9.16406 80.5469 9.61328C80.3776 10.0625 80.293 10.5703 80.293 11.1367C80.293 12.3216 80.5794 13.2103 81.1523 13.8027C81.7318 14.3887 82.5326 14.6816 83.5547 14.6816C84.0169 14.6816 84.4629 14.6296 84.8926 14.5254C85.3288 14.4212 85.7487 14.265 86.1523 14.0566V15.6387ZM92.8711 7.60156H89.9707V6.19531H94.5898V14.584H97.5098V16H89.6484V14.584H92.8711V7.60156ZM93.4668 2.08398C93.6556 2.08398 93.8314 2.11979 93.9941 2.19141C94.1569 2.25651 94.2969 2.35091 94.4141 2.47461C94.5378 2.59831 94.6322 2.74154 94.6973 2.9043C94.7689 3.06055 94.8047 3.23307 94.8047 3.42188C94.8047 3.60417 94.7689 3.77669 94.6973 3.93945C94.6322 4.10221 94.5378 4.24544 94.4141 4.36914C94.2969 4.49284 94.1569 4.59049 93.9941 4.66211C93.8314 4.72721 93.6556 4.75977 93.4668 4.75977C93.278 4.75977 93.1022 4.72721 92.9395 4.66211C92.7767 4.59049 92.6335 4.49284 92.5098 4.36914C92.3926 4.24544 92.2982 4.10221 92.2266 3.93945C92.1615 3.77669 92.1289 3.60417 92.1289 3.42188C92.1289 3.23307 92.1615 3.06055 92.2266 2.9043C92.2982 2.74154 92.3926 2.59831 92.5098 2.47461C92.6335 2.35091 92.7767 2.25651 92.9395 2.19141C93.1022 2.11979 93.278 2.08398 93.4668 2.08398ZM107.168 6.19531V15.8242C107.168 16.5078 107.07 17.1133 106.875 17.6406C106.68 18.1745 106.4 18.6237 106.035 18.9883C105.671 19.3529 105.221 19.6296 104.688 19.8184C104.16 20.0072 103.564 20.1016 102.9 20.1016C102.419 20.1016 101.947 20.056 101.484 19.9648C101.029 19.8802 100.615 19.7598 100.244 19.6035V17.9824C100.446 18.0866 100.661 18.181 100.889 18.2656C101.123 18.3503 101.361 18.4219 101.602 18.4805C101.849 18.5391 102.096 18.5814 102.344 18.6074C102.591 18.64 102.832 18.6562 103.066 18.6562C103.809 18.6562 104.391 18.4219 104.814 17.9531C105.238 17.4844 105.449 16.7943 105.449 15.8828V7.60156H100.645V6.19531H107.168ZM106.143 2.08398C106.331 2.08398 106.507 2.11979 106.67 2.19141C106.833 2.25651 106.973 2.35091 107.09 2.47461C107.214 2.59831 107.308 2.74154 107.373 2.9043C107.445 3.06706 107.48 3.23958 107.48 3.42188C107.48 3.61068 107.445 3.78646 107.373 3.94922C107.308 4.10547 107.214 4.24544 107.09 4.36914C106.973 4.49284 106.833 4.59049 106.67 4.66211C106.507 4.72721 106.331 4.75977 106.143 4.75977C105.954 4.75977 105.778 4.72721 105.615 4.66211C105.452 4.59049 105.309 4.49284 105.186 4.36914C105.068 4.24544 104.974 4.10547 104.902 3.94922C104.837 3.78646 104.805 3.61068 104.805 3.42188C104.805 3.23958 104.837 3.06706 104.902 2.9043C104.974 2.74154 105.068 2.59831 105.186 2.47461C105.309 2.35091 105.452 2.25651 105.615 2.19141C105.778 2.11979 105.954 2.08398 106.143 2.08398ZM117.822 16L117.783 14.6816C117.249 15.209 116.706 15.5898 116.152 15.8242C115.605 16.0586 115.029 16.1758 114.424 16.1758C113.864 16.1758 113.385 16.1042 112.988 15.9609C112.591 15.8177 112.262 15.6224 112.002 15.375C111.748 15.1211 111.559 14.8249 111.436 14.4863C111.318 14.1478 111.26 13.7799 111.26 13.3828C111.26 12.3997 111.624 11.6315 112.354 11.0781C113.089 10.5182 114.173 10.2383 115.605 10.2383H117.637V9.37891C117.637 8.79948 117.451 8.33724 117.08 7.99219C116.709 7.64062 116.143 7.46484 115.381 7.46484C114.827 7.46484 114.281 7.52669 113.74 7.65039C113.206 7.77409 112.653 7.94987 112.08 8.17773V6.64453C112.295 6.56641 112.533 6.49154 112.793 6.41992C113.06 6.3418 113.34 6.27344 113.633 6.21484C113.926 6.15625 114.232 6.11068 114.551 6.07812C114.87 6.03906 115.192 6.01953 115.518 6.01953C116.11 6.01953 116.644 6.08464 117.119 6.21484C117.594 6.34505 117.995 6.54362 118.32 6.81055C118.652 7.07747 118.906 7.41276 119.082 7.81641C119.258 8.22005 119.346 8.69531 119.346 9.24219V16H117.822ZM117.637 11.5371H115.479C115.055 11.5371 114.691 11.5794 114.385 11.6641C114.079 11.7487 113.828 11.8691 113.633 12.0254C113.438 12.1816 113.291 12.3704 113.193 12.5918C113.102 12.8066 113.057 13.0508 113.057 13.3242C113.057 13.513 113.086 13.6953 113.145 13.8711C113.203 14.0404 113.298 14.1934 113.428 14.3301C113.558 14.4603 113.727 14.5645 113.936 14.6426C114.144 14.7207 114.398 14.7598 114.697 14.7598C115.088 14.7598 115.534 14.6426 116.035 14.4082C116.543 14.1673 117.077 13.7897 117.637 13.2754V11.5371ZM139.385 20.1016C136.383 17.3216 134.883 14.2487 134.883 10.8828C134.883 10.0951 134.961 9.31055 135.117 8.5293C135.28 7.74154 135.537 6.95378 135.889 6.16602C136.247 5.37826 136.715 4.59049 137.295 3.80273C137.881 3.01497 138.59 2.23372 139.424 1.45898L140.41 2.46484C137.884 4.95833 136.621 7.72201 136.621 10.7559C136.621 12.2663 136.94 13.7181 137.578 15.1113C138.216 16.5046 139.16 17.8197 140.41 19.0566L139.385 20.1016ZM153.105 4.7207H149.326V16H147.568V4.7207H143.789V3.23633H153.105V4.7207ZM164.844 16H162.949L162.061 13.2168H156.748L155.85 16H154.043L158.281 3.23633H160.664L164.844 16ZM161.562 11.6641L159.404 4.83789L157.246 11.6641H161.562ZM175.84 16H173.945L173.057 13.2168H167.744L166.846 16H165.039L169.277 3.23633H171.66L175.84 16ZM172.559 11.6641L170.4 4.83789L168.242 11.6641H172.559ZM186.094 4.7207H182.314V16H180.557V4.7207H176.777V3.23633H186.094V4.7207ZM196.758 5.42383C196.283 5.16992 195.794 4.97461 195.293 4.83789C194.792 4.69466 194.245 4.62305 193.652 4.62305C192.975 4.62305 192.373 4.74349 191.846 4.98438C191.318 5.22526 190.872 5.56706 190.508 6.00977C190.15 6.44596 189.873 6.97331 189.678 7.5918C189.489 8.21029 189.395 8.89388 189.395 9.64258C189.395 10.4238 189.473 11.1237 189.629 11.7422C189.785 12.3607 190.029 12.8848 190.361 13.3145C190.693 13.7441 191.117 14.0729 191.631 14.3008C192.152 14.5286 192.773 14.6426 193.496 14.6426C193.62 14.6426 193.753 14.6361 193.896 14.623C194.04 14.61 194.183 14.5938 194.326 14.5742C194.469 14.5482 194.606 14.5189 194.736 14.4863C194.873 14.4538 194.993 14.418 195.098 14.3789V10.3164H192.49V8.88086H196.816V15.4043C196.549 15.528 196.266 15.6387 195.967 15.7363C195.674 15.834 195.371 15.9154 195.059 15.9805C194.753 16.0456 194.447 16.0944 194.141 16.127C193.835 16.1595 193.538 16.1758 193.252 16.1758C192.38 16.1758 191.592 16.0391 190.889 15.7656C190.192 15.4922 189.596 15.0885 189.102 14.5547C188.613 14.0143 188.236 13.3438 187.969 12.543C187.708 11.7422 187.578 10.8145 187.578 9.75977C187.578 8.71159 187.725 7.77409 188.018 6.94727C188.311 6.11393 188.721 5.41081 189.248 4.83789C189.782 4.25846 190.42 3.81901 191.162 3.51953C191.911 3.21354 192.734 3.06055 193.633 3.06055C194.206 3.06055 194.749 3.11263 195.264 3.2168C195.785 3.31445 196.283 3.47396 196.758 3.69531V5.42383ZM207.646 15.5215C206.624 15.9447 205.553 16.1562 204.434 16.1562C202.63 16.1562 201.243 15.6191 200.273 14.5449C199.31 13.4642 198.828 11.8691 198.828 9.75977C198.828 8.73763 198.962 7.81315 199.229 6.98633C199.495 6.15951 199.876 5.45964 200.371 4.88672C200.866 4.30729 201.465 3.86133 202.168 3.54883C202.871 3.23633 203.659 3.08008 204.531 3.08008C205.124 3.08008 205.674 3.13216 206.182 3.23633C206.689 3.33398 207.178 3.48698 207.646 3.69531V5.4043C207.184 5.15039 206.706 4.95833 206.211 4.82812C205.716 4.69141 205.176 4.62305 204.59 4.62305C203.991 4.62305 203.447 4.73698 202.959 4.96484C202.477 5.1862 202.067 5.51172 201.729 5.94141C201.39 6.36458 201.13 6.88542 200.947 7.50391C200.765 8.11589 200.674 8.81576 200.674 9.60352C200.674 11.2572 201.009 12.5039 201.68 13.3438C202.35 14.1836 203.333 14.6035 204.629 14.6035C205.176 14.6035 205.7 14.5417 206.201 14.418C206.702 14.2878 207.184 14.1087 207.646 13.8809V15.5215ZM218.643 15.5215C217.62 15.9447 216.549 16.1562 215.43 16.1562C213.626 16.1562 212.24 15.6191 211.27 14.5449C210.306 13.4642 209.824 11.8691 209.824 9.75977C209.824 8.73763 209.958 7.81315 210.225 6.98633C210.492 6.15951 210.872 5.45964 211.367 4.88672C211.862 4.30729 212.461 3.86133 213.164 3.54883C213.867 3.23633 214.655 3.08008 215.527 3.08008C216.12 3.08008 216.67 3.13216 217.178 3.23633C217.686 3.33398 218.174 3.48698 218.643 3.69531V5.4043C218.18 5.15039 217.702 4.95833 217.207 4.82812C216.712 4.69141 216.172 4.62305 215.586 4.62305C214.987 4.62305 214.443 4.73698 213.955 4.96484C213.473 5.1862 213.063 5.51172 212.725 5.94141C212.386 6.36458 212.126 6.88542 211.943 7.50391C211.761 8.11589 211.67 8.81576 211.67 9.60352C211.67 11.2572 212.005 12.5039 212.676 13.3438C213.346 14.1836 214.329 14.6035 215.625 14.6035C216.172 14.6035 216.696 14.5417 217.197 14.418C217.699 14.2878 218.18 14.1087 218.643 13.8809V15.5215ZM230.82 16H228.926L228.037 13.2168H222.725L221.826 16H220.02L224.258 3.23633H226.641L230.82 16ZM227.539 11.6641L225.381 4.83789L223.223 11.6641H227.539ZM241.074 4.7207H237.295V16H235.537V4.7207H231.758V3.23633H241.074V4.7207ZM251.738 5.42383C251.263 5.16992 250.775 4.97461 250.273 4.83789C249.772 4.69466 249.225 4.62305 248.633 4.62305C247.956 4.62305 247.354 4.74349 246.826 4.98438C246.299 5.22526 245.853 5.56706 245.488 6.00977C245.13 6.44596 244.854 6.97331 244.658 7.5918C244.469 8.21029 244.375 8.89388 244.375 9.64258C244.375 10.4238 244.453 11.1237 244.609 11.7422C244.766 12.3607 245.01 12.8848 245.342 13.3145C245.674 13.7441 246.097 14.0729 246.611 14.3008C247.132 14.5286 247.754 14.6426 248.477 14.6426C248.6 14.6426 248.734 14.6361 248.877 14.623C249.02 14.61 249.163 14.5938 249.307 14.5742C249.45 14.5482 249.587 14.5189 249.717 14.4863C249.854 14.4538 249.974 14.418 250.078 14.3789V10.3164H247.471V8.88086H251.797V15.4043C251.53 15.528 251.247 15.6387 250.947 15.7363C250.654 15.834 250.352 15.9154 250.039 15.9805C249.733 16.0456 249.427 16.0944 249.121 16.127C248.815 16.1595 248.519 16.1758 248.232 16.1758C247.36 16.1758 246.572 16.0391 245.869 15.7656C245.173 15.4922 244.577 15.0885 244.082 14.5547C243.594 14.0143 243.216 13.3438 242.949 12.543C242.689 11.7422 242.559 10.8145 242.559 9.75977C242.559 8.71159 242.705 7.77409 242.998 6.94727C243.291 6.11393 243.701 5.41081 244.229 4.83789C244.762 4.25846 245.4 3.81901 246.143 3.51953C246.891 3.21354 247.715 3.06055 248.613 3.06055C249.186 3.06055 249.73 3.11263 250.244 3.2168C250.765 3.31445 251.263 3.47396 251.738 3.69531V5.42383ZM262.734 5.42383C262.259 5.16992 261.771 4.97461 261.27 4.83789C260.768 4.69466 260.221 4.62305 259.629 4.62305C258.952 4.62305 258.35 4.74349 257.822 4.98438C257.295 5.22526 256.849 5.56706 256.484 6.00977C256.126 6.44596 255.85 6.97331 255.654 7.5918C255.465 8.21029 255.371 8.89388 255.371 9.64258C255.371 10.4238 255.449 11.1237 255.605 11.7422C255.762 12.3607 256.006 12.8848 256.338 13.3145C256.67 13.7441 257.093 14.0729 257.607 14.3008C258.128 14.5286 258.75 14.6426 259.473 14.6426C259.596 14.6426 259.73 14.6361 259.873 14.623C260.016 14.61 260.16 14.5938 260.303 14.5742C260.446 14.5482 260.583 14.5189 260.713 14.4863C260.85 14.4538 260.97 14.418 261.074 14.3789V10.3164H258.467V8.88086H262.793V15.4043C262.526 15.528 262.243 15.6387 261.943 15.7363C261.65 15.834 261.348 15.9154 261.035 15.9805C260.729 16.0456 260.423 16.0944 260.117 16.127C259.811 16.1595 259.515 16.1758 259.229 16.1758C258.356 16.1758 257.568 16.0391 256.865 15.7656C256.169 15.4922 255.573 15.0885 255.078 14.5547C254.59 14.0143 254.212 13.3438 253.945 12.543C253.685 11.7422 253.555 10.8145 253.555 9.75977C253.555 8.71159 253.701 7.77409 253.994 6.94727C254.287 6.11393 254.697 5.41081 255.225 4.83789C255.758 4.25846 256.396 3.81901 257.139 3.51953C257.887 3.21354 258.711 3.06055 259.609 3.06055C260.182 3.06055 260.726 3.11263 261.24 3.2168C261.761 3.31445 262.259 3.47396 262.734 3.69531V5.42383ZM273.73 5.42383C273.255 5.16992 272.767 4.97461 272.266 4.83789C271.764 4.69466 271.217 4.62305 270.625 4.62305C269.948 4.62305 269.346 4.74349 268.818 4.98438C268.291 5.22526 267.845 5.56706 267.48 6.00977C267.122 6.44596 266.846 6.97331 266.65 7.5918C266.462 8.21029 266.367 8.89388 266.367 9.64258C266.367 10.4238 266.445 11.1237 266.602 11.7422C266.758 12.3607 267.002 12.8848 267.334 13.3145C267.666 13.7441 268.089 14.0729 268.604 14.3008C269.124 14.5286 269.746 14.6426 270.469 14.6426C270.592 14.6426 270.726 14.6361 270.869 14.623C271.012 14.61 271.156 14.5938 271.299 14.5742C271.442 14.5482 271.579 14.5189 271.709 14.4863C271.846 14.4538 271.966 14.418 272.07 14.3789V10.3164H269.463V8.88086H273.789V15.4043C273.522 15.528 273.239 15.6387 272.939 15.7363C272.646 15.834 272.344 15.9154 272.031 15.9805C271.725 16.0456 271.419 16.0944 271.113 16.127C270.807 16.1595 270.511 16.1758 270.225 16.1758C269.352 16.1758 268.564 16.0391 267.861 15.7656C267.165 15.4922 266.569 15.0885 266.074 14.5547C265.586 14.0143 265.208 13.3438 264.941 12.543C264.681 11.7422 264.551 10.8145 264.551 9.75977C264.551 8.71159 264.697 7.77409 264.99 6.94727C265.283 6.11393 265.693 5.41081 266.221 4.83789C266.755 4.25846 267.393 3.81901 268.135 3.51953C268.883 3.21354 269.707 3.06055 270.605 3.06055C271.178 3.06055 271.722 3.11263 272.236 3.2168C272.757 3.31445 273.255 3.47396 273.73 3.69531V5.42383ZM285.801 16H283.906L283.018 13.2168H277.705L276.807 16H275L279.238 3.23633H281.621L285.801 16ZM282.52 11.6641L280.361 4.83789L278.203 11.6641H282.52ZM296.055 4.7207H292.275V16H290.518V4.7207H286.738V3.23633H296.055V4.7207ZM306.719 5.42383C306.243 5.16992 305.755 4.97461 305.254 4.83789C304.753 4.69466 304.206 4.62305 303.613 4.62305C302.936 4.62305 302.334 4.74349 301.807 4.98438C301.279 5.22526 300.833 5.56706 300.469 6.00977C300.111 6.44596 299.834 6.97331 299.639 7.5918C299.45 8.21029 299.355 8.89388 299.355 9.64258C299.355 10.4238 299.434 11.1237 299.59 11.7422C299.746 12.3607 299.99 12.8848 300.322 13.3145C300.654 13.7441 301.077 14.0729 301.592 14.3008C302.113 14.5286 302.734 14.6426 303.457 14.6426C303.581 14.6426 303.714 14.6361 303.857 14.623C304.001 14.61 304.144 14.5938 304.287 14.5742C304.43 14.5482 304.567 14.5189 304.697 14.4863C304.834 14.4538 304.954 14.418 305.059 14.3789V10.3164H302.451V8.88086H306.777V15.4043C306.51 15.528 306.227 15.6387 305.928 15.7363C305.635 15.834 305.332 15.9154 305.02 15.9805C304.714 16.0456 304.408 16.0944 304.102 16.127C303.796 16.1595 303.499 16.1758 303.213 16.1758C302.34 16.1758 301.553 16.0391 300.85 15.7656C300.153 15.4922 299.557 15.0885 299.062 14.5547C298.574 14.0143 298.197 13.3438 297.93 12.543C297.669 11.7422 297.539 10.8145 297.539 9.75977C297.539 8.71159 297.686 7.77409 297.979 6.94727C298.271 6.11393 298.682 5.41081 299.209 4.83789C299.743 4.25846 300.381 3.81901 301.123 3.51953C301.872 3.21354 302.695 3.06055 303.594 3.06055C304.167 3.06055 304.71 3.11263 305.225 3.2168C305.745 3.31445 306.243 3.47396 306.719 3.69531V5.42383ZM318.047 4.7207H314.268V16H312.51V4.7207H308.73V3.23633H318.047V4.7207ZM329.043 4.7207H325.264V16H323.506V4.7207H319.727V3.23633H329.043V4.7207ZM333.447 1.45898C336.449 4.23893 337.949 7.33138 337.949 10.7363C337.949 11.4395 337.878 12.1686 337.734 12.9238C337.591 13.679 337.347 14.4538 337.002 15.248C336.657 16.0358 336.191 16.8366 335.605 17.6504C335.026 18.4642 334.294 19.2812 333.408 20.1016L332.422 19.0957C333.691 17.8392 334.639 16.5273 335.264 15.1602C335.889 13.793 336.201 12.3607 336.201 10.8633C336.201 7.76432 334.941 4.97786 332.422 2.50391L333.447 1.45898ZM361.572 9.69141H353.174V8.25586H361.572V9.69141ZM361.572 13.0898H353.174V11.6543H361.572V13.0898ZM10.1562 50.7207H6.37695V62H4.61914V50.7207H0.839844V49.2363H10.1562V50.7207ZM21.8945 62H20L19.1113 59.2168H13.7988L12.9004 62H11.0938L15.332 49.2363H17.7148L21.8945 62ZM18.6133 57.6641L16.4551 50.8379L14.2969 57.6641H18.6133ZM32.8906 62H30.9961L30.1074 59.2168H24.7949L23.8965 62H22.0898L26.3281 49.2363H28.7109L32.8906 62ZM29.6094 57.6641L27.4512 50.8379L25.293 57.6641H29.6094ZM54.8828 62H52.9883L52.0996 59.2168H46.7871L45.8887 62H44.082L48.3203 49.2363H50.7031L54.8828 62ZM51.6016 57.6641L49.4434 50.8379L47.2852 57.6641H51.6016ZM65.8789 62H63.9844L63.0957 59.2168H57.7832L56.8848 62H55.0781L59.3164 49.2363H61.6992L65.8789 62ZM62.5977 57.6641L60.4395 50.8379L58.2812 57.6641H62.5977ZM76.1328 50.7207H72.3535V62H70.5957V50.7207H66.8164V49.2363H76.1328V50.7207ZM98.8672 62H96.9727L96.084 59.2168H90.7715L89.873 62H88.0664L92.3047 49.2363H94.6875L98.8672 62ZM95.5859 57.6641L93.4277 50.8379L91.2695 57.6641H95.5859ZM109.121 50.7207H105.342V62H103.584V50.7207H99.8047V49.2363H109.121V50.7207ZM119.785 51.4238C119.31 51.1699 118.822 50.9746 118.32 50.8379C117.819 50.6947 117.272 50.623 116.68 50.623C116.003 50.623 115.4 50.7435 114.873 50.9844C114.346 51.2253 113.9 51.5671 113.535 52.0098C113.177 52.446 112.9 52.9733 112.705 53.5918C112.516 54.2103 112.422 54.8939 112.422 55.6426C112.422 56.4238 112.5 57.1237 112.656 57.7422C112.812 58.3607 113.057 58.8848 113.389 59.3145C113.721 59.7441 114.144 60.0729 114.658 60.3008C115.179 60.5286 115.801 60.6426 116.523 60.6426C116.647 60.6426 116.781 60.6361 116.924 60.623C117.067 60.61 117.21 60.5938 117.354 60.5742C117.497 60.5482 117.633 60.5189 117.764 60.4863C117.9 60.4538 118.021 60.418 118.125 60.3789V56.3164H115.518V54.8809H119.844V61.4043C119.577 61.528 119.294 61.6387 118.994 61.7363C118.701 61.834 118.398 61.9154 118.086 61.9805C117.78 62.0456 117.474 62.0944 117.168 62.127C116.862 62.1595 116.566 62.1758 116.279 62.1758C115.407 62.1758 114.619 62.0391 113.916 61.7656C113.219 61.4922 112.624 61.0885 112.129 60.5547C111.641 60.0143 111.263 59.3438 110.996 58.543C110.736 57.7422 110.605 56.8145 110.605 55.7598C110.605 54.7116 110.752 53.7741 111.045 52.9473C111.338 52.1139 111.748 51.4108 112.275 50.8379C112.809 50.2585 113.447 49.819 114.189 49.5195C114.938 49.2135 115.762 49.0605 116.66 49.0605C117.233 49.0605 117.777 49.1126 118.291 49.2168C118.812 49.3145 119.31 49.474 119.785 49.6953V51.4238ZM142.109 50.7207H138.33V62H136.572V50.7207H132.793V49.2363H142.109V50.7207ZM152.773 51.4238C152.298 51.1699 151.81 50.9746 151.309 50.8379C150.807 50.6947 150.26 50.623 149.668 50.623C148.991 50.623 148.389 50.7435 147.861 50.9844C147.334 51.2253 146.888 51.5671 146.523 52.0098C146.165 52.446 145.889 52.9733 145.693 53.5918C145.505 54.2103 145.41 54.8939 145.41 55.6426C145.41 56.4238 145.488 57.1237 145.645 57.7422C145.801 58.3607 146.045 58.8848 146.377 59.3145C146.709 59.7441 147.132 60.0729 147.646 60.3008C148.167 60.5286 148.789 60.6426 149.512 60.6426C149.635 60.6426 149.769 60.6361 149.912 60.623C150.055 60.61 150.199 60.5938 150.342 60.5742C150.485 60.5482 150.622 60.5189 150.752 60.4863C150.889 60.4538 151.009 60.418 151.113 60.3789V56.3164H148.506V54.8809H152.832V61.4043C152.565 61.528 152.282 61.6387 151.982 61.7363C151.689 61.834 151.387 61.9154 151.074 61.9805C150.768 62.0456 150.462 62.0944 150.156 62.127C149.85 62.1595 149.554 62.1758 149.268 62.1758C148.395 62.1758 147.607 62.0391 146.904 61.7656C146.208 61.4922 145.612 61.0885 145.117 60.5547C144.629 60.0143 144.251 59.3438 143.984 58.543C143.724 57.7422 143.594 56.8145 143.594 55.7598C143.594 54.7116 143.74 53.7741 144.033 52.9473C144.326 52.1139 144.736 51.4108 145.264 50.8379C145.798 50.2585 146.436 49.819 147.178 49.5195C147.926 49.2135 148.75 49.0605 149.648 49.0605C150.221 49.0605 150.765 49.1126 151.279 49.2168C151.8 49.3145 152.298 49.474 152.773 49.6953V51.4238ZM163.662 61.5215C162.64 61.9447 161.569 62.1562 160.449 62.1562C158.646 62.1562 157.259 61.6191 156.289 60.5449C155.326 59.4642 154.844 57.8691 154.844 55.7598C154.844 54.7376 154.977 53.8132 155.244 52.9863C155.511 52.1595 155.892 51.4596 156.387 50.8867C156.882 50.3073 157.48 49.8613 158.184 49.5488C158.887 49.2363 159.674 49.0801 160.547 49.0801C161.139 49.0801 161.689 49.1322 162.197 49.2363C162.705 49.334 163.193 49.487 163.662 49.6953V51.4043C163.2 51.1504 162.721 50.9583 162.227 50.8281C161.732 50.6914 161.191 50.623 160.605 50.623C160.007 50.623 159.463 50.737 158.975 50.9648C158.493 51.1862 158.083 51.5117 157.744 51.9414C157.406 52.3646 157.145 52.8854 156.963 53.5039C156.781 54.1159 156.689 54.8158 156.689 55.6035C156.689 57.2572 157.025 58.5039 157.695 59.3438C158.366 60.1836 159.349 60.6035 160.645 60.6035C161.191 60.6035 161.715 60.5417 162.217 60.418C162.718 60.2878 163.2 60.1087 163.662 59.8809V61.5215ZM185.762 51.4238C185.286 51.1699 184.798 50.9746 184.297 50.8379C183.796 50.6947 183.249 50.623 182.656 50.623C181.979 50.623 181.377 50.7435 180.85 50.9844C180.322 51.2253 179.876 51.5671 179.512 52.0098C179.154 52.446 178.877 52.9733 178.682 53.5918C178.493 54.2103 178.398 54.8939 178.398 55.6426C178.398 56.4238 178.477 57.1237 178.633 57.7422C178.789 58.3607 179.033 58.8848 179.365 59.3145C179.697 59.7441 180.12 60.0729 180.635 60.3008C181.156 60.5286 181.777 60.6426 182.5 60.6426C182.624 60.6426 182.757 60.6361 182.9 60.623C183.044 60.61 183.187 60.5938 183.33 60.5742C183.473 60.5482 183.61 60.5189 183.74 60.4863C183.877 60.4538 183.997 60.418 184.102 60.3789V56.3164H181.494V54.8809H185.82V61.4043C185.553 61.528 185.27 61.6387 184.971 61.7363C184.678 61.834 184.375 61.9154 184.062 61.9805C183.757 62.0456 183.451 62.0944 183.145 62.127C182.839 62.1595 182.542 62.1758 182.256 62.1758C181.383 62.1758 180.596 62.0391 179.893 61.7656C179.196 61.4922 178.6 61.0885 178.105 60.5547C177.617 60.0143 177.24 59.3438 176.973 58.543C176.712 57.7422 176.582 56.8145 176.582 55.7598C176.582 54.7116 176.729 53.7741 177.021 52.9473C177.314 52.1139 177.725 51.4108 178.252 50.8379C178.786 50.2585 179.424 49.819 180.166 49.5195C180.915 49.2135 181.738 49.0605 182.637 49.0605C183.21 49.0605 183.753 49.1126 184.268 49.2168C184.788 49.3145 185.286 49.474 185.762 49.6953V51.4238ZM196.65 61.5215C195.628 61.9447 194.557 62.1562 193.438 62.1562C191.634 62.1562 190.247 61.6191 189.277 60.5449C188.314 59.4642 187.832 57.8691 187.832 55.7598C187.832 54.7376 187.965 53.8132 188.232 52.9863C188.499 52.1595 188.88 51.4596 189.375 50.8867C189.87 50.3073 190.469 49.8613 191.172 49.5488C191.875 49.2363 192.663 49.0801 193.535 49.0801C194.128 49.0801 194.678 49.1322 195.186 49.2363C195.693 49.334 196.182 49.487 196.65 49.6953V51.4043C196.188 51.1504 195.71 50.9583 195.215 50.8281C194.72 50.6914 194.18 50.623 193.594 50.623C192.995 50.623 192.451 50.737 191.963 50.9648C191.481 51.1862 191.071 51.5117 190.732 51.9414C190.394 52.3646 190.133 52.8854 189.951 53.5039C189.769 54.1159 189.678 54.8158 189.678 55.6035C189.678 57.2572 190.013 58.5039 190.684 59.3438C191.354 60.1836 192.337 60.6035 193.633 60.6035C194.18 60.6035 194.704 60.5417 195.205 60.418C195.706 60.2878 196.188 60.1087 196.65 59.8809V61.5215ZM207.646 61.5215C206.624 61.9447 205.553 62.1562 204.434 62.1562C202.63 62.1562 201.243 61.6191 200.273 60.5449C199.31 59.4642 198.828 57.8691 198.828 55.7598C198.828 54.7376 198.962 53.8132 199.229 52.9863C199.495 52.1595 199.876 51.4596 200.371 50.8867C200.866 50.3073 201.465 49.8613 202.168 49.5488C202.871 49.2363 203.659 49.0801 204.531 49.0801C205.124 49.0801 205.674 49.1322 206.182 49.2363C206.689 49.334 207.178 49.487 207.646 49.6953V51.4043C207.184 51.1504 206.706 50.9583 206.211 50.8281C205.716 50.6914 205.176 50.623 204.59 50.623C203.991 50.623 203.447 50.737 202.959 50.9648C202.477 51.1862 202.067 51.5117 201.729 51.9414C201.39 52.3646 201.13 52.8854 200.947 53.5039C200.765 54.1159 200.674 54.8158 200.674 55.6035C200.674 57.2572 201.009 58.5039 201.68 59.3438C202.35 60.1836 203.333 60.6035 204.629 60.6035C205.176 60.6035 205.7 60.5417 206.201 60.418C206.702 60.2878 207.184 60.1087 207.646 59.8809V61.5215ZM229.639 61.5215C228.617 61.9447 227.546 62.1562 226.426 62.1562C224.622 62.1562 223.236 61.6191 222.266 60.5449C221.302 59.4642 220.82 57.8691 220.82 55.7598C220.82 54.7376 220.954 53.8132 221.221 52.9863C221.488 52.1595 221.868 51.4596 222.363 50.8867C222.858 50.3073 223.457 49.8613 224.16 49.5488C224.863 49.2363 225.651 49.0801 226.523 49.0801C227.116 49.0801 227.666 49.1322 228.174 49.2363C228.682 49.334 229.17 49.487 229.639 49.6953V51.4043C229.176 51.1504 228.698 50.9583 228.203 50.8281C227.708 50.6914 227.168 50.623 226.582 50.623C225.983 50.623 225.439 50.737 224.951 50.9648C224.469 51.1862 224.059 51.5117 223.721 51.9414C223.382 52.3646 223.122 52.8854 222.939 53.5039C222.757 54.1159 222.666 54.8158 222.666 55.6035C222.666 57.2572 223.001 58.5039 223.672 59.3438C224.342 60.1836 225.326 60.6035 226.621 60.6035C227.168 60.6035 227.692 60.5417 228.193 60.418C228.695 60.2878 229.176 60.1087 229.639 59.8809V61.5215ZM240.635 61.5215C239.613 61.9447 238.542 62.1562 237.422 62.1562C235.618 62.1562 234.232 61.6191 233.262 60.5449C232.298 59.4642 231.816 57.8691 231.816 55.7598C231.816 54.7376 231.95 53.8132 232.217 52.9863C232.484 52.1595 232.865 51.4596 233.359 50.8867C233.854 50.3073 234.453 49.8613 235.156 49.5488C235.859 49.2363 236.647 49.0801 237.52 49.0801C238.112 49.0801 238.662 49.1322 239.17 49.2363C239.678 49.334 240.166 49.487 240.635 49.6953V51.4043C240.173 51.1504 239.694 50.9583 239.199 50.8281C238.704 50.6914 238.164 50.623 237.578 50.623C236.979 50.623 236.436 50.737 235.947 50.9648C235.465 51.1862 235.055 51.5117 234.717 51.9414C234.378 52.3646 234.118 52.8854 233.936 53.5039C233.753 54.1159 233.662 54.8158 233.662 55.6035C233.662 57.2572 233.997 58.5039 234.668 59.3438C235.339 60.1836 236.322 60.6035 237.617 60.6035C238.164 60.6035 238.688 60.5417 239.189 60.418C239.691 60.2878 240.173 60.1087 240.635 59.8809V61.5215ZM252.812 62H250.918L250.029 59.2168H244.717L243.818 62H242.012L246.25 49.2363H248.633L252.812 62ZM249.531 57.6641L247.373 50.8379L245.215 57.6641H249.531ZM273.623 61.5215C272.601 61.9447 271.53 62.1562 270.41 62.1562C268.607 62.1562 267.22 61.6191 266.25 60.5449C265.286 59.4642 264.805 57.8691 264.805 55.7598C264.805 54.7376 264.938 53.8132 265.205 52.9863C265.472 52.1595 265.853 51.4596 266.348 50.8867C266.842 50.3073 267.441 49.8613 268.145 49.5488C268.848 49.2363 269.635 49.0801 270.508 49.0801C271.1 49.0801 271.65 49.1322 272.158 49.2363C272.666 49.334 273.154 49.487 273.623 49.6953V51.4043C273.161 51.1504 272.682 50.9583 272.188 50.8281C271.693 50.6914 271.152 50.623 270.566 50.623C269.967 50.623 269.424 50.737 268.936 50.9648C268.454 51.1862 268.044 51.5117 267.705 51.9414C267.367 52.3646 267.106 52.8854 266.924 53.5039C266.742 54.1159 266.65 54.8158 266.65 55.6035C266.65 57.2572 266.986 58.5039 267.656 59.3438C268.327 60.1836 269.31 60.6035 270.605 60.6035C271.152 60.6035 271.676 60.5417 272.178 60.418C272.679 60.2878 273.161 60.1087 273.623 59.8809V61.5215ZM285.801 62H283.906L283.018 59.2168H277.705L276.807 62H275L279.238 49.2363H281.621L285.801 62ZM282.52 57.6641L280.361 50.8379L278.203 57.6641H282.52ZM296.055 50.7207H292.275V62H290.518V50.7207H286.738V49.2363H296.055V50.7207ZM318.789 62H316.895L316.006 59.2168H310.693L309.795 62H307.988L312.227 49.2363H314.609L318.789 62ZM315.508 57.6641L313.35 50.8379L311.191 57.6641H315.508ZM329.043 50.7207H325.264V62H323.506V50.7207H319.727V49.2363H329.043V50.7207ZM339.707 51.4238C339.232 51.1699 338.743 50.9746 338.242 50.8379C337.741 50.6947 337.194 50.623 336.602 50.623C335.924 50.623 335.322 50.7435 334.795 50.9844C334.268 51.2253 333.822 51.5671 333.457 52.0098C333.099 52.446 332.822 52.9733 332.627 53.5918C332.438 54.2103 332.344 54.8939 332.344 55.6426C332.344 56.4238 332.422 57.1237 332.578 57.7422C332.734 58.3607 332.979 58.8848 333.311 59.3145C333.643 59.7441 334.066 60.0729 334.58 60.3008C335.101 60.5286 335.723 60.6426 336.445 60.6426C336.569 60.6426 336.702 60.6361 336.846 60.623C336.989 60.61 337.132 60.5938 337.275 60.5742C337.419 60.5482 337.555 60.5189 337.686 60.4863C337.822 60.4538 337.943 60.418 338.047 60.3789V56.3164H335.439V54.8809H339.766V61.4043C339.499 61.528 339.215 61.6387 338.916 61.7363C338.623 61.834 338.32 61.9154 338.008 61.9805C337.702 62.0456 337.396 62.0944 337.09 62.127C336.784 62.1595 336.488 62.1758 336.201 62.1758C335.329 62.1758 334.541 62.0391 333.838 61.7656C333.141 61.4922 332.546 61.0885 332.051 60.5547C331.562 60.0143 331.185 59.3438 330.918 58.543C330.658 57.7422 330.527 56.8145 330.527 55.7598C330.527 54.7116 330.674 53.7741 330.967 52.9473C331.26 52.1139 331.67 51.4108 332.197 50.8379C332.731 50.2585 333.369 49.819 334.111 49.5195C334.86 49.2135 335.684 49.0605 336.582 49.0605C337.155 49.0605 337.699 49.1126 338.213 49.2168C338.734 49.3145 339.232 49.474 339.707 49.6953V51.4238ZM362.031 50.7207H358.252V62H356.494V50.7207H352.715V49.2363H362.031V50.7207ZM372.695 51.4238C372.22 51.1699 371.732 50.9746 371.23 50.8379C370.729 50.6947 370.182 50.623 369.59 50.623C368.913 50.623 368.311 50.7435 367.783 50.9844C367.256 51.2253 366.81 51.5671 366.445 52.0098C366.087 52.446 365.811 52.9733 365.615 53.5918C365.426 54.2103 365.332 54.8939 365.332 55.6426C365.332 56.4238 365.41 57.1237 365.566 57.7422C365.723 58.3607 365.967 58.8848 366.299 59.3145C366.631 59.7441 367.054 60.0729 367.568 60.3008C368.089 60.5286 368.711 60.6426 369.434 60.6426C369.557 60.6426 369.691 60.6361 369.834 60.623C369.977 60.61 370.12 60.5938 370.264 60.5742C370.407 60.5482 370.544 60.5189 370.674 60.4863C370.811 60.4538 370.931 60.418 371.035 60.3789V56.3164H368.428V54.8809H372.754V61.4043C372.487 61.528 372.204 61.6387 371.904 61.7363C371.611 61.834 371.309 61.9154 370.996 61.9805C370.69 62.0456 370.384 62.0944 370.078 62.127C369.772 62.1595 369.476 62.1758 369.189 62.1758C368.317 62.1758 367.529 62.0391 366.826 61.7656C366.13 61.4922 365.534 61.0885 365.039 60.5547C364.551 60.0143 364.173 59.3438 363.906 58.543C363.646 57.7422 363.516 56.8145 363.516 55.7598C363.516 54.7116 363.662 53.7741 363.955 52.9473C364.248 52.1139 364.658 51.4108 365.186 50.8379C365.719 50.2585 366.357 49.819 367.1 49.5195C367.848 49.2135 368.672 49.0605 369.57 49.0605C370.143 49.0605 370.687 49.1126 371.201 49.2168C371.722 49.3145 372.22 49.474 372.695 49.6953V51.4238ZM383.691 51.4238C383.216 51.1699 382.728 50.9746 382.227 50.8379C381.725 50.6947 381.178 50.623 380.586 50.623C379.909 50.623 379.307 50.7435 378.779 50.9844C378.252 51.2253 377.806 51.5671 377.441 52.0098C377.083 52.446 376.807 52.9733 376.611 53.5918C376.423 54.2103 376.328 54.8939 376.328 55.6426C376.328 56.4238 376.406 57.1237 376.562 57.7422C376.719 58.3607 376.963 58.8848 377.295 59.3145C377.627 59.7441 378.05 60.0729 378.564 60.3008C379.085 60.5286 379.707 60.6426 380.43 60.6426C380.553 60.6426 380.687 60.6361 380.83 60.623C380.973 60.61 381.117 60.5938 381.26 60.5742C381.403 60.5482 381.54 60.5189 381.67 60.4863C381.807 60.4538 381.927 60.418 382.031 60.3789V56.3164H379.424V54.8809H383.75V61.4043C383.483 61.528 383.2 61.6387 382.9 61.7363C382.607 61.834 382.305 61.9154 381.992 61.9805C381.686 62.0456 381.38 62.0944 381.074 62.127C380.768 62.1595 380.472 62.1758 380.186 62.1758C379.313 62.1758 378.525 62.0391 377.822 61.7656C377.126 61.4922 376.53 61.0885 376.035 60.5547C375.547 60.0143 375.169 59.3438 374.902 58.543C374.642 57.7422 374.512 56.8145 374.512 55.7598C374.512 54.7116 374.658 53.7741 374.951 52.9473C375.244 52.1139 375.654 51.4108 376.182 50.8379C376.715 50.2585 377.354 49.819 378.096 49.5195C378.844 49.2135 379.668 49.0605 380.566 49.0605C381.139 49.0605 381.683 49.1126 382.197 49.2168C382.718 49.3145 383.216 49.474 383.691 49.6953V51.4238ZM405.684 51.4238C405.208 51.1699 404.72 50.9746 404.219 50.8379C403.717 50.6947 403.171 50.623 402.578 50.623C401.901 50.623 401.299 50.7435 400.771 50.9844C400.244 51.2253 399.798 51.5671 399.434 52.0098C399.076 52.446 398.799 52.9733 398.604 53.5918C398.415 54.2103 398.32 54.8939 398.32 55.6426C398.32 56.4238 398.398 57.1237 398.555 57.7422C398.711 58.3607 398.955 58.8848 399.287 59.3145C399.619 59.7441 400.042 60.0729 400.557 60.3008C401.077 60.5286 401.699 60.6426 402.422 60.6426C402.546 60.6426 402.679 60.6361 402.822 60.623C402.965 60.61 403.109 60.5938 403.252 60.5742C403.395 60.5482 403.532 60.5189 403.662 60.4863C403.799 60.4538 403.919 60.418 404.023 60.3789V56.3164H401.416V54.8809H405.742V61.4043C405.475 61.528 405.192 61.6387 404.893 61.7363C404.6 61.834 404.297 61.9154 403.984 61.9805C403.678 62.0456 403.372 62.0944 403.066 62.127C402.76 62.1595 402.464 62.1758 402.178 62.1758C401.305 62.1758 400.518 62.0391 399.814 61.7656C399.118 61.4922 398.522 61.0885 398.027 60.5547C397.539 60.0143 397.161 59.3438 396.895 58.543C396.634 57.7422 396.504 56.8145 396.504 55.7598C396.504 54.7116 396.65 53.7741 396.943 52.9473C397.236 52.1139 397.646 51.4108 398.174 50.8379C398.708 50.2585 399.346 49.819 400.088 49.5195C400.837 49.2135 401.66 49.0605 402.559 49.0605C403.132 49.0605 403.675 49.1126 404.189 49.2168C404.71 49.3145 405.208 49.474 405.684 49.6953V51.4238ZM416.68 51.4238C416.204 51.1699 415.716 50.9746 415.215 50.8379C414.714 50.6947 414.167 50.623 413.574 50.623C412.897 50.623 412.295 50.7435 411.768 50.9844C411.24 51.2253 410.794 51.5671 410.43 52.0098C410.072 52.446 409.795 52.9733 409.6 53.5918C409.411 54.2103 409.316 54.8939 409.316 55.6426C409.316 56.4238 409.395 57.1237 409.551 57.7422C409.707 58.3607 409.951 58.8848 410.283 59.3145C410.615 59.7441 411.038 60.0729 411.553 60.3008C412.074 60.5286 412.695 60.6426 413.418 60.6426C413.542 60.6426 413.675 60.6361 413.818 60.623C413.962 60.61 414.105 60.5938 414.248 60.5742C414.391 60.5482 414.528 60.5189 414.658 60.4863C414.795 60.4538 414.915 60.418 415.02 60.3789V56.3164H412.412V54.8809H416.738V61.4043C416.471 61.528 416.188 61.6387 415.889 61.7363C415.596 61.834 415.293 61.9154 414.98 61.9805C414.674 62.0456 414.368 62.0944 414.062 62.127C413.757 62.1595 413.46 62.1758 413.174 62.1758C412.301 62.1758 411.514 62.0391 410.811 61.7656C410.114 61.4922 409.518 61.0885 409.023 60.5547C408.535 60.0143 408.158 59.3438 407.891 58.543C407.63 57.7422 407.5 56.8145 407.5 55.7598C407.5 54.7116 407.646 53.7741 407.939 52.9473C408.232 52.1139 408.643 51.4108 409.17 50.8379C409.704 50.2585 410.342 49.819 411.084 49.5195C411.833 49.2135 412.656 49.0605 413.555 49.0605C414.128 49.0605 414.671 49.1126 415.186 49.2168C415.706 49.3145 416.204 49.474 416.68 49.6953V51.4238ZM427.676 51.4238C427.201 51.1699 426.712 50.9746 426.211 50.8379C425.71 50.6947 425.163 50.623 424.57 50.623C423.893 50.623 423.291 50.7435 422.764 50.9844C422.236 51.2253 421.79 51.5671 421.426 52.0098C421.068 52.446 420.791 52.9733 420.596 53.5918C420.407 54.2103 420.312 54.8939 420.312 55.6426C420.312 56.4238 420.391 57.1237 420.547 57.7422C420.703 58.3607 420.947 58.8848 421.279 59.3145C421.611 59.7441 422.035 60.0729 422.549 60.3008C423.07 60.5286 423.691 60.6426 424.414 60.6426C424.538 60.6426 424.671 60.6361 424.814 60.623C424.958 60.61 425.101 60.5938 425.244 60.5742C425.387 60.5482 425.524 60.5189 425.654 60.4863C425.791 60.4538 425.911 60.418 426.016 60.3789V56.3164H423.408V54.8809H427.734V61.4043C427.467 61.528 427.184 61.6387 426.885 61.7363C426.592 61.834 426.289 61.9154 425.977 61.9805C425.671 62.0456 425.365 62.0944 425.059 62.127C424.753 62.1595 424.456 62.1758 424.17 62.1758C423.298 62.1758 422.51 62.0391 421.807 61.7656C421.11 61.4922 420.514 61.0885 420.02 60.5547C419.531 60.0143 419.154 59.3438 418.887 58.543C418.626 57.7422 418.496 56.8145 418.496 55.7598C418.496 54.7116 418.643 53.7741 418.936 52.9473C419.229 52.1139 419.639 51.4108 420.166 50.8379C420.7 50.2585 421.338 49.819 422.08 49.5195C422.829 49.2135 423.652 49.0605 424.551 49.0605C425.124 49.0605 425.667 49.1126 426.182 49.2168C426.702 49.3145 427.201 49.474 427.676 49.6953V51.4238ZM449.668 51.4238C449.193 51.1699 448.704 50.9746 448.203 50.8379C447.702 50.6947 447.155 50.623 446.562 50.623C445.885 50.623 445.283 50.7435 444.756 50.9844C444.229 51.2253 443.783 51.5671 443.418 52.0098C443.06 52.446 442.783 52.9733 442.588 53.5918C442.399 54.2103 442.305 54.8939 442.305 55.6426C442.305 56.4238 442.383 57.1237 442.539 57.7422C442.695 58.3607 442.939 58.8848 443.271 59.3145C443.604 59.7441 444.027 60.0729 444.541 60.3008C445.062 60.5286 445.684 60.6426 446.406 60.6426C446.53 60.6426 446.663 60.6361 446.807 60.623C446.95 60.61 447.093 60.5938 447.236 60.5742C447.38 60.5482 447.516 60.5189 447.646 60.4863C447.783 60.4538 447.904 60.418 448.008 60.3789V56.3164H445.4V54.8809H449.727V61.4043C449.46 61.528 449.176 61.6387 448.877 61.7363C448.584 61.834 448.281 61.9154 447.969 61.9805C447.663 62.0456 447.357 62.0944 447.051 62.127C446.745 62.1595 446.449 62.1758 446.162 62.1758C445.29 62.1758 444.502 62.0391 443.799 61.7656C443.102 61.4922 442.507 61.0885 442.012 60.5547C441.523 60.0143 441.146 59.3438 440.879 58.543C440.618 57.7422 440.488 56.8145 440.488 55.7598C440.488 54.7116 440.635 53.7741 440.928 52.9473C441.221 52.1139 441.631 51.4108 442.158 50.8379C442.692 50.2585 443.33 49.819 444.072 49.5195C444.821 49.2135 445.645 49.0605 446.543 49.0605C447.116 49.0605 447.66 49.1126 448.174 49.2168C448.695 49.3145 449.193 49.474 449.668 49.6953V51.4238ZM460.664 51.4238C460.189 51.1699 459.701 50.9746 459.199 50.8379C458.698 50.6947 458.151 50.623 457.559 50.623C456.882 50.623 456.279 50.7435 455.752 50.9844C455.225 51.2253 454.779 51.5671 454.414 52.0098C454.056 52.446 453.779 52.9733 453.584 53.5918C453.395 54.2103 453.301 54.8939 453.301 55.6426C453.301 56.4238 453.379 57.1237 453.535 57.7422C453.691 58.3607 453.936 58.8848 454.268 59.3145C454.6 59.7441 455.023 60.0729 455.537 60.3008C456.058 60.5286 456.68 60.6426 457.402 60.6426C457.526 60.6426 457.66 60.6361 457.803 60.623C457.946 60.61 458.089 60.5938 458.232 60.5742C458.376 60.5482 458.512 60.5189 458.643 60.4863C458.779 60.4538 458.9 60.418 459.004 60.3789V56.3164H456.396V54.8809H460.723V61.4043C460.456 61.528 460.173 61.6387 459.873 61.7363C459.58 61.834 459.277 61.9154 458.965 61.9805C458.659 62.0456 458.353 62.0944 458.047 62.127C457.741 62.1595 457.445 62.1758 457.158 62.1758C456.286 62.1758 455.498 62.0391 454.795 61.7656C454.098 61.4922 453.503 61.0885 453.008 60.5547C452.52 60.0143 452.142 59.3438 451.875 58.543C451.615 57.7422 451.484 56.8145 451.484 55.7598C451.484 54.7116 451.631 53.7741 451.924 52.9473C452.217 52.1139 452.627 51.4108 453.154 50.8379C453.688 50.2585 454.326 49.819 455.068 49.5195C455.817 49.2135 456.641 49.0605 457.539 49.0605C458.112 49.0605 458.656 49.1126 459.17 49.2168C459.691 49.3145 460.189 49.474 460.664 49.6953V51.4238ZM472.734 62H470.84L469.951 59.2168H464.639L463.74 62H461.934L466.172 49.2363H468.555L472.734 62ZM469.453 57.6641L467.295 50.8379L465.137 57.6641H469.453ZM493.652 51.4238C493.177 51.1699 492.689 50.9746 492.188 50.8379C491.686 50.6947 491.139 50.623 490.547 50.623C489.87 50.623 489.268 50.7435 488.74 50.9844C488.213 51.2253 487.767 51.5671 487.402 52.0098C487.044 52.446 486.768 52.9733 486.572 53.5918C486.383 54.2103 486.289 54.8939 486.289 55.6426C486.289 56.4238 486.367 57.1237 486.523 57.7422C486.68 58.3607 486.924 58.8848 487.256 59.3145C487.588 59.7441 488.011 60.0729 488.525 60.3008C489.046 60.5286 489.668 60.6426 490.391 60.6426C490.514 60.6426 490.648 60.6361 490.791 60.623C490.934 60.61 491.077 60.5938 491.221 60.5742C491.364 60.5482 491.501 60.5189 491.631 60.4863C491.768 60.4538 491.888 60.418 491.992 60.3789V56.3164H489.385V54.8809H493.711V61.4043C493.444 61.528 493.161 61.6387 492.861 61.7363C492.568 61.834 492.266 61.9154 491.953 61.9805C491.647 62.0456 491.341 62.0944 491.035 62.127C490.729 62.1595 490.433 62.1758 490.146 62.1758C489.274 62.1758 488.486 62.0391 487.783 61.7656C487.087 61.4922 486.491 61.0885 485.996 60.5547C485.508 60.0143 485.13 59.3438 484.863 58.543C484.603 57.7422 484.473 56.8145 484.473 55.7598C484.473 54.7116 484.619 53.7741 484.912 52.9473C485.205 52.1139 485.615 51.4108 486.143 50.8379C486.676 50.2585 487.314 49.819 488.057 49.5195C488.805 49.2135 489.629 49.0605 490.527 49.0605C491.1 49.0605 491.644 49.1126 492.158 49.2168C492.679 49.3145 493.177 49.474 493.652 49.6953V51.4238ZM505.723 62H503.828L502.939 59.2168H497.627L496.729 62H494.922L499.16 49.2363H501.543L505.723 62ZM502.441 57.6641L500.283 50.8379L498.125 57.6641H502.441ZM515.977 50.7207H512.197V62H510.439V50.7207H506.66V49.2363H515.977V50.7207ZM538.711 62H536.816L535.928 59.2168H530.615L529.717 62H527.91L532.148 49.2363H534.531L538.711 62ZM535.43 57.6641L533.271 50.8379L531.113 57.6641H535.43ZM548.965 50.7207H545.186V62H543.428V50.7207H539.648V49.2363H548.965V50.7207ZM559.629 51.4238C559.154 51.1699 558.665 50.9746 558.164 50.8379C557.663 50.6947 557.116 50.623 556.523 50.623C555.846 50.623 555.244 50.7435 554.717 50.9844C554.189 51.2253 553.743 51.5671 553.379 52.0098C553.021 52.446 552.744 52.9733 552.549 53.5918C552.36 54.2103 552.266 54.8939 552.266 55.6426C552.266 56.4238 552.344 57.1237 552.5 57.7422C552.656 58.3607 552.9 58.8848 553.232 59.3145C553.564 59.7441 553.988 60.0729 554.502 60.3008C555.023 60.5286 555.645 60.6426 556.367 60.6426C556.491 60.6426 556.624 60.6361 556.768 60.623C556.911 60.61 557.054 60.5938 557.197 60.5742C557.34 60.5482 557.477 60.5189 557.607 60.4863C557.744 60.4538 557.865 60.418 557.969 60.3789V56.3164H555.361V54.8809H559.688V61.4043C559.421 61.528 559.137 61.6387 558.838 61.7363C558.545 61.834 558.242 61.9154 557.93 61.9805C557.624 62.0456 557.318 62.0944 557.012 62.127C556.706 62.1595 556.41 62.1758 556.123 62.1758C555.251 62.1758 554.463 62.0391 553.76 61.7656C553.063 61.4922 552.467 61.0885 551.973 60.5547C551.484 60.0143 551.107 59.3438 550.84 58.543C550.579 57.7422 550.449 56.8145 550.449 55.7598C550.449 54.7116 550.596 53.7741 550.889 52.9473C551.182 52.1139 551.592 51.4108 552.119 50.8379C552.653 50.2585 553.291 49.819 554.033 49.5195C554.782 49.2135 555.605 49.0605 556.504 49.0605C557.077 49.0605 557.62 49.1126 558.135 49.2168C558.656 49.3145 559.154 49.474 559.629 49.6953V51.4238ZM581.953 50.7207H578.174V62H576.416V50.7207H572.637V49.2363H581.953V50.7207ZM592.617 51.4238C592.142 51.1699 591.654 50.9746 591.152 50.8379C590.651 50.6947 590.104 50.623 589.512 50.623C588.835 50.623 588.232 50.7435 587.705 50.9844C587.178 51.2253 586.732 51.5671 586.367 52.0098C586.009 52.446 585.732 52.9733 585.537 53.5918C585.348 54.2103 585.254 54.8939 585.254 55.6426C585.254 56.4238 585.332 57.1237 585.488 57.7422C585.645 58.3607 585.889 58.8848 586.221 59.3145C586.553 59.7441 586.976 60.0729 587.49 60.3008C588.011 60.5286 588.633 60.6426 589.355 60.6426C589.479 60.6426 589.613 60.6361 589.756 60.623C589.899 60.61 590.042 60.5938 590.186 60.5742C590.329 60.5482 590.465 60.5189 590.596 60.4863C590.732 60.4538 590.853 60.418 590.957 60.3789V56.3164H588.35V54.8809H592.676V61.4043C592.409 61.528 592.126 61.6387 591.826 61.7363C591.533 61.834 591.23 61.9154 590.918 61.9805C590.612 62.0456 590.306 62.0944 590 62.127C589.694 62.1595 589.398 62.1758 589.111 62.1758C588.239 62.1758 587.451 62.0391 586.748 61.7656C586.051 61.4922 585.456 61.0885 584.961 60.5547C584.473 60.0143 584.095 59.3438 583.828 58.543C583.568 57.7422 583.438 56.8145 583.438 55.7598C583.438 54.7116 583.584 53.7741 583.877 52.9473C584.17 52.1139 584.58 51.4108 585.107 50.8379C585.641 50.2585 586.279 49.819 587.021 49.5195C587.77 49.2135 588.594 49.0605 589.492 49.0605C590.065 49.0605 590.609 49.1126 591.123 49.2168C591.644 49.3145 592.142 49.474 592.617 49.6953V51.4238ZM603.945 50.7207H600.166V62H598.408V50.7207H594.629V49.2363H603.945V50.7207ZM625.605 51.4238C625.13 51.1699 624.642 50.9746 624.141 50.8379C623.639 50.6947 623.092 50.623 622.5 50.623C621.823 50.623 621.221 50.7435 620.693 50.9844C620.166 51.2253 619.72 51.5671 619.355 52.0098C618.997 52.446 618.721 52.9733 618.525 53.5918C618.337 54.2103 618.242 54.8939 618.242 55.6426C618.242 56.4238 618.32 57.1237 618.477 57.7422C618.633 58.3607 618.877 58.8848 619.209 59.3145C619.541 59.7441 619.964 60.0729 620.479 60.3008C620.999 60.5286 621.621 60.6426 622.344 60.6426C622.467 60.6426 622.601 60.6361 622.744 60.623C622.887 60.61 623.031 60.5938 623.174 60.5742C623.317 60.5482 623.454 60.5189 623.584 60.4863C623.721 60.4538 623.841 60.418 623.945 60.3789V56.3164H621.338V54.8809H625.664V61.4043C625.397 61.528 625.114 61.6387 624.814 61.7363C624.521 61.834 624.219 61.9154 623.906 61.9805C623.6 62.0456 623.294 62.0944 622.988 62.127C622.682 62.1595 622.386 62.1758 622.1 62.1758C621.227 62.1758 620.439 62.0391 619.736 61.7656C619.04 61.4922 618.444 61.0885 617.949 60.5547C617.461 60.0143 617.083 59.3438 616.816 58.543C616.556 57.7422 616.426 56.8145 616.426 55.7598C616.426 54.7116 616.572 53.7741 616.865 52.9473C617.158 52.1139 617.568 51.4108 618.096 50.8379C618.63 50.2585 619.268 49.819 620.01 49.5195C620.758 49.2135 621.582 49.0605 622.48 49.0605C623.053 49.0605 623.597 49.1126 624.111 49.2168C624.632 49.3145 625.13 49.474 625.605 49.6953V51.4238ZM636.934 50.7207H633.154V62H631.396V50.7207H627.617V49.2363H636.934V50.7207ZM647.93 50.7207H644.15V62H642.393V50.7207H638.613V49.2363H647.93V50.7207Z" fill="#C9D1D9"/>
<path d="M130.214 15.5625C130.214 14.569 129.697 14.0723 128.662 14.0723C128.124 14.0723 127.751 14.1224 127.541 14.2227C127.331 14.3229 127.181 14.4437 127.09 14.585C126.898 14.8857 126.803 15.3551 126.803 15.9932H125.49C125.49 15.1592 125.632 14.5234 125.914 14.0859C126.197 13.6439 126.563 13.3477 127.015 13.1973C127.47 13.0423 128.004 12.9648 128.614 12.9648C129.503 12.9648 130.205 13.179 130.72 13.6074C131.239 14.0312 131.499 14.6761 131.499 15.542C131.499 16.2074 131.374 16.7201 131.123 17.0801C130.877 17.4355 130.474 17.6589 129.913 17.75C130.51 17.873 130.957 18.126 131.253 18.5088C131.549 18.8916 131.697 19.516 131.697 20.3818C131.697 21.2477 131.433 21.9268 130.904 22.4189C130.376 22.9066 129.621 23.1504 128.642 23.1504C127.899 23.1504 127.309 23.0524 126.871 22.8564C126.438 22.6605 126.108 22.3415 125.88 21.8994C125.652 21.4574 125.499 20.8421 125.422 20.0537H126.734C126.789 20.8649 126.965 21.4027 127.261 21.667C127.425 21.8128 127.618 21.9131 127.842 21.9678C128.065 22.0179 128.357 22.043 128.717 22.043C129.296 22.043 129.719 21.8949 129.988 21.5986C130.257 21.3024 130.392 20.8079 130.392 20.1152C130.392 19.4225 130.264 18.9645 130.009 18.7412C129.758 18.5133 129.448 18.3789 129.079 18.3379C128.715 18.2969 128.359 18.2764 128.013 18.2764V17.2578C128.742 17.2578 129.234 17.1986 129.489 17.0801C129.744 16.9616 129.929 16.818 130.043 16.6494C130.157 16.4762 130.214 16.1139 130.214 15.5625Z" fill="#C9D1D9"/>
</svg>
