<svg width="813" height="45" viewBox="0 0 813 45" fill="none" xmlns="http://www.w3.org/2000/svg">
<path d="M15.8984 28H14.0039L13.1152 25.2168H7.80273L6.9043 28H5.09766L9.33594 15.2363H11.7188L15.8984 28ZM12.6172 23.6641L10.459 16.8379L8.30078 23.6641H12.6172ZM26.8945 28H25L24.1113 25.2168H18.7988L17.9004 28H16.0938L20.332 15.2363H22.7148L26.8945 28ZM23.6133 23.6641L21.4551 16.8379L19.2969 23.6641H23.6133ZM37.1484 16.7207H33.3691V28H31.6113V16.7207H27.832V15.2363H37.1484V16.7207ZM70.8789 28H68.9844L68.0957 25.2168H62.7832L61.8848 28H60.0781L64.3164 15.2363H66.6992L70.8789 28ZM67.5977 23.6641L65.4395 16.8379L63.2812 23.6641H67.5977ZM81.1328 16.7207H77.3535V28H75.5957V16.7207H71.8164V15.2363H81.1328V16.7207ZM91.7969 17.4238C91.3216 17.1699 90.8333 16.9746 90.332 16.8379C89.8307 16.6947 89.2839 16.623 88.6914 16.623C88.0143 16.623 87.4121 16.7435 86.8848 16.9844C86.3574 17.2253 85.9115 17.5671 85.5469 18.0098C85.1888 18.446 84.9121 18.9733 84.7168 19.5918C84.528 20.2103 84.4336 20.8939 84.4336 21.6426C84.4336 22.4238 84.5117 23.1237 84.668 23.7422C84.8242 24.3607 85.0684 24.8848 85.4004 25.3145C85.7324 25.7441 86.1556 26.0729 86.6699 26.3008C87.1908 26.5286 87.8125 26.6426 88.5352 26.6426C88.6589 26.6426 88.7923 26.6361 88.9355 26.623C89.0788 26.61 89.222 26.5938 89.3652 26.5742C89.5085 26.5482 89.6452 26.5189 89.7754 26.4863C89.9121 26.4538 90.0326 26.418 90.1367 26.3789V22.3164H87.5293V20.8809H91.8555V27.4043C91.5885 27.528 91.3053 27.6387 91.0059 27.7363C90.7129 27.834 90.4102 27.9154 90.0977 27.9805C89.7917 28.0456 89.4857 28.0944 89.1797 28.127C88.8737 28.1595 88.5775 28.1758 88.291 28.1758C87.4186 28.1758 86.6309 28.0391 85.9277 27.7656C85.2311 27.4922 84.6354 27.0885 84.1406 26.5547C83.6523 26.0143 83.2747 25.3438 83.0078 24.543C82.7474 23.7422 82.6172 22.8145 82.6172 21.7598C82.6172 20.7116 82.7637 19.7741 83.0566 18.9473C83.3496 18.1139 83.7598 17.4108 84.2871 16.8379C84.821 16.2585 85.459 15.819 86.2012 15.5195C86.9499 15.2135 87.7734 15.0605 88.6719 15.0605C89.2448 15.0605 89.7884 15.1126 90.3027 15.2168C90.8236 15.3145 91.3216 15.474 91.7969 15.6953V17.4238ZM125.859 28H123.965L123.076 25.2168H117.764L116.865 28H115.059L119.297 15.2363H121.68L125.859 28ZM122.578 23.6641L120.42 16.8379L118.262 23.6641H122.578ZM136.113 16.7207H132.334V28H130.576V16.7207H126.797V15.2363H136.113V16.7207ZM146.777 17.4238C146.302 17.1699 145.814 16.9746 145.312 16.8379C144.811 16.6947 144.264 16.623 143.672 16.623C142.995 16.623 142.393 16.7435 141.865 16.9844C141.338 17.2253 140.892 17.5671 140.527 18.0098C140.169 18.446 139.893 18.9733 139.697 19.5918C139.508 20.2103 139.414 20.8939 139.414 21.6426C139.414 22.4238 139.492 23.1237 139.648 23.7422C139.805 24.3607 140.049 24.8848 140.381 25.3145C140.713 25.7441 141.136 26.0729 141.65 26.3008C142.171 26.5286 142.793 26.6426 143.516 26.6426C143.639 26.6426 143.773 26.6361 143.916 26.623C144.059 26.61 144.202 26.5938 144.346 26.5742C144.489 26.5482 144.626 26.5189 144.756 26.4863C144.893 26.4538 145.013 26.418 145.117 26.3789V22.3164H142.51V20.8809H146.836V27.4043C146.569 27.528 146.286 27.6387 145.986 27.7363C145.693 27.834 145.391 27.9154 145.078 27.9805C144.772 28.0456 144.466 28.0944 144.16 28.127C143.854 28.1595 143.558 28.1758 143.271 28.1758C142.399 28.1758 141.611 28.0391 140.908 27.7656C140.212 27.4922 139.616 27.0885 139.121 26.5547C138.633 26.0143 138.255 25.3438 137.988 24.543C137.728 23.7422 137.598 22.8145 137.598 21.7598C137.598 20.7116 137.744 19.7741 138.037 18.9473C138.33 18.1139 138.74 17.4108 139.268 16.8379C139.801 16.2585 140.439 15.819 141.182 15.5195C141.93 15.2135 142.754 15.0605 143.652 15.0605C144.225 15.0605 144.769 15.1126 145.283 15.2168C145.804 15.3145 146.302 15.474 146.777 15.6953V17.4238ZM180.84 28H178.945L178.057 25.2168H172.744L171.846 28H170.039L174.277 15.2363H176.66L180.84 28ZM177.559 23.6641L175.4 16.8379L173.242 23.6641H177.559ZM191.094 16.7207H187.314V28H185.557V16.7207H181.777V15.2363H191.094V16.7207ZM201.758 17.4238C201.283 17.1699 200.794 16.9746 200.293 16.8379C199.792 16.6947 199.245 16.623 198.652 16.623C197.975 16.623 197.373 16.7435 196.846 16.9844C196.318 17.2253 195.872 17.5671 195.508 18.0098C195.15 18.446 194.873 18.9733 194.678 19.5918C194.489 20.2103 194.395 20.8939 194.395 21.6426C194.395 22.4238 194.473 23.1237 194.629 23.7422C194.785 24.3607 195.029 24.8848 195.361 25.3145C195.693 25.7441 196.117 26.0729 196.631 26.3008C197.152 26.5286 197.773 26.6426 198.496 26.6426C198.62 26.6426 198.753 26.6361 198.896 26.623C199.04 26.61 199.183 26.5938 199.326 26.5742C199.469 26.5482 199.606 26.5189 199.736 26.4863C199.873 26.4538 199.993 26.418 200.098 26.3789V22.3164H197.49V20.8809H201.816V27.4043C201.549 27.528 201.266 27.6387 200.967 27.7363C200.674 27.834 200.371 27.9154 200.059 27.9805C199.753 28.0456 199.447 28.0944 199.141 28.127C198.835 28.1595 198.538 28.1758 198.252 28.1758C197.38 28.1758 196.592 28.0391 195.889 27.7656C195.192 27.4922 194.596 27.0885 194.102 26.5547C193.613 26.0143 193.236 25.3438 192.969 24.543C192.708 23.7422 192.578 22.8145 192.578 21.7598C192.578 20.7116 192.725 19.7741 193.018 18.9473C193.311 18.1139 193.721 17.4108 194.248 16.8379C194.782 16.2585 195.42 15.819 196.162 15.5195C196.911 15.2135 197.734 15.0605 198.633 15.0605C199.206 15.0605 199.749 15.1126 200.264 15.2168C200.785 15.3145 201.283 15.474 201.758 15.6953V17.4238ZM234.639 27.5215C233.617 27.9447 232.546 28.1562 231.426 28.1562C229.622 28.1562 228.236 27.6191 227.266 26.5449C226.302 25.4642 225.82 23.8691 225.82 21.7598C225.82 20.7376 225.954 19.8132 226.221 18.9863C226.488 18.1595 226.868 17.4596 227.363 16.8867C227.858 16.3073 228.457 15.8613 229.16 15.5488C229.863 15.2363 230.651 15.0801 231.523 15.0801C232.116 15.0801 232.666 15.1322 233.174 15.2363C233.682 15.334 234.17 15.487 234.639 15.6953V17.4043C234.176 17.1504 233.698 16.9583 233.203 16.8281C232.708 16.6914 232.168 16.623 231.582 16.623C230.983 16.623 230.439 16.737 229.951 16.9648C229.469 17.1862 229.059 17.5117 228.721 17.9414C228.382 18.3646 228.122 18.8854 227.939 19.5039C227.757 20.1159 227.666 20.8158 227.666 21.6035C227.666 23.2572 228.001 24.5039 228.672 25.3438C229.342 26.1836 230.326 26.6035 231.621 26.6035C232.168 26.6035 232.692 26.5417 233.193 26.418C233.695 26.2878 234.176 26.1087 234.639 25.8809V27.5215ZM246.816 28H244.922L244.033 25.2168H238.721L237.822 28H236.016L240.254 15.2363H242.637L246.816 28ZM243.535 23.6641L241.377 16.8379L239.219 23.6641H243.535ZM257.07 16.7207H253.291V28H251.533V16.7207H247.754V15.2363H257.07V16.7207ZM289.619 27.5215C288.597 27.9447 287.526 28.1562 286.406 28.1562C284.603 28.1562 283.216 27.6191 282.246 26.5449C281.283 25.4642 280.801 23.8691 280.801 21.7598C280.801 20.7376 280.934 19.8132 281.201 18.9863C281.468 18.1595 281.849 17.4596 282.344 16.8867C282.839 16.3073 283.438 15.8613 284.141 15.5488C284.844 15.2363 285.632 15.0801 286.504 15.0801C287.096 15.0801 287.646 15.1322 288.154 15.2363C288.662 15.334 289.15 15.487 289.619 15.6953V17.4043C289.157 17.1504 288.678 16.9583 288.184 16.8281C287.689 16.6914 287.148 16.623 286.562 16.623C285.964 16.623 285.42 16.737 284.932 16.9648C284.45 17.1862 284.04 17.5117 283.701 17.9414C283.363 18.3646 283.102 18.8854 282.92 19.5039C282.738 20.1159 282.646 20.8158 282.646 21.6035C282.646 23.2572 282.982 24.5039 283.652 25.3438C284.323 26.1836 285.306 26.6035 286.602 26.6035C287.148 26.6035 287.673 26.5417 288.174 26.418C288.675 26.2878 289.157 26.1087 289.619 25.8809V27.5215ZM300.615 27.5215C299.593 27.9447 298.522 28.1562 297.402 28.1562C295.599 28.1562 294.212 27.6191 293.242 26.5449C292.279 25.4642 291.797 23.8691 291.797 21.7598C291.797 20.7376 291.93 19.8132 292.197 18.9863C292.464 18.1595 292.845 17.4596 293.34 16.8867C293.835 16.3073 294.434 15.8613 295.137 15.5488C295.84 15.2363 296.628 15.0801 297.5 15.0801C298.092 15.0801 298.643 15.1322 299.15 15.2363C299.658 15.334 300.146 15.487 300.615 15.6953V17.4043C300.153 17.1504 299.674 16.9583 299.18 16.8281C298.685 16.6914 298.145 16.623 297.559 16.623C296.96 16.623 296.416 16.737 295.928 16.9648C295.446 17.1862 295.036 17.5117 294.697 17.9414C294.359 18.3646 294.098 18.8854 293.916 19.5039C293.734 20.1159 293.643 20.8158 293.643 21.6035C293.643 23.2572 293.978 24.5039 294.648 25.3438C295.319 26.1836 296.302 26.6035 297.598 26.6035C298.145 26.6035 298.669 26.5417 299.17 26.418C299.671 26.2878 300.153 26.1087 300.615 25.8809V27.5215ZM312.793 28H310.898L310.01 25.2168H304.697L303.799 28H301.992L306.23 15.2363H308.613L312.793 28ZM309.512 23.6641L307.354 16.8379L305.195 23.6641H309.512ZM344.707 17.4238C344.232 17.1699 343.743 16.9746 343.242 16.8379C342.741 16.6947 342.194 16.623 341.602 16.623C340.924 16.623 340.322 16.7435 339.795 16.9844C339.268 17.2253 338.822 17.5671 338.457 18.0098C338.099 18.446 337.822 18.9733 337.627 19.5918C337.438 20.2103 337.344 20.8939 337.344 21.6426C337.344 22.4238 337.422 23.1237 337.578 23.7422C337.734 24.3607 337.979 24.8848 338.311 25.3145C338.643 25.7441 339.066 26.0729 339.58 26.3008C340.101 26.5286 340.723 26.6426 341.445 26.6426C341.569 26.6426 341.702 26.6361 341.846 26.623C341.989 26.61 342.132 26.5938 342.275 26.5742C342.419 26.5482 342.555 26.5189 342.686 26.4863C342.822 26.4538 342.943 26.418 343.047 26.3789V22.3164H340.439V20.8809H344.766V27.4043C344.499 27.528 344.215 27.6387 343.916 27.7363C343.623 27.834 343.32 27.9154 343.008 27.9805C342.702 28.0456 342.396 28.0944 342.09 28.127C341.784 28.1595 341.488 28.1758 341.201 28.1758C340.329 28.1758 339.541 28.0391 338.838 27.7656C338.141 27.4922 337.546 27.0885 337.051 26.5547C336.562 26.0143 336.185 25.3438 335.918 24.543C335.658 23.7422 335.527 22.8145 335.527 21.7598C335.527 20.7116 335.674 19.7741 335.967 18.9473C336.26 18.1139 336.67 17.4108 337.197 16.8379C337.731 16.2585 338.369 15.819 339.111 15.5195C339.86 15.2135 340.684 15.0605 341.582 15.0605C342.155 15.0605 342.699 15.1126 343.213 15.2168C343.734 15.3145 344.232 15.474 344.707 15.6953V17.4238ZM356.777 28H354.883L353.994 25.2168H348.682L347.783 28H345.977L350.215 15.2363H352.598L356.777 28ZM353.496 23.6641L351.338 16.8379L349.18 23.6641H353.496ZM367.031 16.7207H363.252V28H361.494V16.7207H357.715V15.2363H367.031V16.7207ZM399.688 17.4238C399.212 17.1699 398.724 16.9746 398.223 16.8379C397.721 16.6947 397.174 16.623 396.582 16.623C395.905 16.623 395.303 16.7435 394.775 16.9844C394.248 17.2253 393.802 17.5671 393.438 18.0098C393.079 18.446 392.803 18.9733 392.607 19.5918C392.419 20.2103 392.324 20.8939 392.324 21.6426C392.324 22.4238 392.402 23.1237 392.559 23.7422C392.715 24.3607 392.959 24.8848 393.291 25.3145C393.623 25.7441 394.046 26.0729 394.561 26.3008C395.081 26.5286 395.703 26.6426 396.426 26.6426C396.549 26.6426 396.683 26.6361 396.826 26.623C396.969 26.61 397.113 26.5938 397.256 26.5742C397.399 26.5482 397.536 26.5189 397.666 26.4863C397.803 26.4538 397.923 26.418 398.027 26.3789V22.3164H395.42V20.8809H399.746V27.4043C399.479 27.528 399.196 27.6387 398.896 27.7363C398.604 27.834 398.301 27.9154 397.988 27.9805C397.682 28.0456 397.376 28.0944 397.07 28.127C396.764 28.1595 396.468 28.1758 396.182 28.1758C395.309 28.1758 394.521 28.0391 393.818 27.7656C393.122 27.4922 392.526 27.0885 392.031 26.5547C391.543 26.0143 391.165 25.3438 390.898 24.543C390.638 23.7422 390.508 22.8145 390.508 21.7598C390.508 20.7116 390.654 19.7741 390.947 18.9473C391.24 18.1139 391.65 17.4108 392.178 16.8379C392.712 16.2585 393.35 15.819 394.092 15.5195C394.84 15.2135 395.664 15.0605 396.562 15.0605C397.135 15.0605 397.679 15.1126 398.193 15.2168C398.714 15.3145 399.212 15.474 399.688 15.6953V17.4238ZM410.576 27.5215C409.554 27.9447 408.483 28.1562 407.363 28.1562C405.56 28.1562 404.173 27.6191 403.203 26.5449C402.24 25.4642 401.758 23.8691 401.758 21.7598C401.758 20.7376 401.891 19.8132 402.158 18.9863C402.425 18.1595 402.806 17.4596 403.301 16.8867C403.796 16.3073 404.395 15.8613 405.098 15.5488C405.801 15.2363 406.589 15.0801 407.461 15.0801C408.053 15.0801 408.604 15.1322 409.111 15.2363C409.619 15.334 410.107 15.487 410.576 15.6953V17.4043C410.114 17.1504 409.635 16.9583 409.141 16.8281C408.646 16.6914 408.105 16.623 407.52 16.623C406.921 16.623 406.377 16.737 405.889 16.9648C405.407 17.1862 404.997 17.5117 404.658 17.9414C404.32 18.3646 404.059 18.8854 403.877 19.5039C403.695 20.1159 403.604 20.8158 403.604 21.6035C403.604 23.2572 403.939 24.5039 404.609 25.3438C405.28 26.1836 406.263 26.6035 407.559 26.6035C408.105 26.6035 408.63 26.5417 409.131 26.418C409.632 26.2878 410.114 26.1087 410.576 25.8809V27.5215ZM421.572 27.5215C420.55 27.9447 419.479 28.1562 418.359 28.1562C416.556 28.1562 415.169 27.6191 414.199 26.5449C413.236 25.4642 412.754 23.8691 412.754 21.7598C412.754 20.7376 412.887 19.8132 413.154 18.9863C413.421 18.1595 413.802 17.4596 414.297 16.8867C414.792 16.3073 415.391 15.8613 416.094 15.5488C416.797 15.2363 417.585 15.0801 418.457 15.0801C419.049 15.0801 419.6 15.1322 420.107 15.2363C420.615 15.334 421.104 15.487 421.572 15.6953V17.4043C421.11 17.1504 420.632 16.9583 420.137 16.8281C419.642 16.6914 419.102 16.623 418.516 16.623C417.917 16.623 417.373 16.737 416.885 16.9648C416.403 17.1862 415.993 17.5117 415.654 17.9414C415.316 18.3646 415.055 18.8854 414.873 19.5039C414.691 20.1159 414.6 20.8158 414.6 21.6035C414.6 23.2572 414.935 24.5039 415.605 25.3438C416.276 26.1836 417.259 26.6035 418.555 26.6035C419.102 26.6035 419.626 26.5417 420.127 26.418C420.628 26.2878 421.11 26.1087 421.572 25.8809V27.5215ZM454.668 17.4238C454.193 17.1699 453.704 16.9746 453.203 16.8379C452.702 16.6947 452.155 16.623 451.562 16.623C450.885 16.623 450.283 16.7435 449.756 16.9844C449.229 17.2253 448.783 17.5671 448.418 18.0098C448.06 18.446 447.783 18.9733 447.588 19.5918C447.399 20.2103 447.305 20.8939 447.305 21.6426C447.305 22.4238 447.383 23.1237 447.539 23.7422C447.695 24.3607 447.939 24.8848 448.271 25.3145C448.604 25.7441 449.027 26.0729 449.541 26.3008C450.062 26.5286 450.684 26.6426 451.406 26.6426C451.53 26.6426 451.663 26.6361 451.807 26.623C451.95 26.61 452.093 26.5938 452.236 26.5742C452.38 26.5482 452.516 26.5189 452.646 26.4863C452.783 26.4538 452.904 26.418 453.008 26.3789V22.3164H450.4V20.8809H454.727V27.4043C454.46 27.528 454.176 27.6387 453.877 27.7363C453.584 27.834 453.281 27.9154 452.969 27.9805C452.663 28.0456 452.357 28.0944 452.051 28.127C451.745 28.1595 451.449 28.1758 451.162 28.1758C450.29 28.1758 449.502 28.0391 448.799 27.7656C448.102 27.4922 447.507 27.0885 447.012 26.5547C446.523 26.0143 446.146 25.3438 445.879 24.543C445.618 23.7422 445.488 22.8145 445.488 21.7598C445.488 20.7116 445.635 19.7741 445.928 18.9473C446.221 18.1139 446.631 17.4108 447.158 16.8379C447.692 16.2585 448.33 15.819 449.072 15.5195C449.821 15.2135 450.645 15.0605 451.543 15.0605C452.116 15.0605 452.66 15.1126 453.174 15.2168C453.695 15.3145 454.193 15.474 454.668 15.6953V17.4238ZM465.664 17.4238C465.189 17.1699 464.701 16.9746 464.199 16.8379C463.698 16.6947 463.151 16.623 462.559 16.623C461.882 16.623 461.279 16.7435 460.752 16.9844C460.225 17.2253 459.779 17.5671 459.414 18.0098C459.056 18.446 458.779 18.9733 458.584 19.5918C458.395 20.2103 458.301 20.8939 458.301 21.6426C458.301 22.4238 458.379 23.1237 458.535 23.7422C458.691 24.3607 458.936 24.8848 459.268 25.3145C459.6 25.7441 460.023 26.0729 460.537 26.3008C461.058 26.5286 461.68 26.6426 462.402 26.6426C462.526 26.6426 462.66 26.6361 462.803 26.623C462.946 26.61 463.089 26.5938 463.232 26.5742C463.376 26.5482 463.512 26.5189 463.643 26.4863C463.779 26.4538 463.9 26.418 464.004 26.3789V22.3164H461.396V20.8809H465.723V27.4043C465.456 27.528 465.173 27.6387 464.873 27.7363C464.58 27.834 464.277 27.9154 463.965 27.9805C463.659 28.0456 463.353 28.0944 463.047 28.127C462.741 28.1595 462.445 28.1758 462.158 28.1758C461.286 28.1758 460.498 28.0391 459.795 27.7656C459.098 27.4922 458.503 27.0885 458.008 26.5547C457.52 26.0143 457.142 25.3438 456.875 24.543C456.615 23.7422 456.484 22.8145 456.484 21.7598C456.484 20.7116 456.631 19.7741 456.924 18.9473C457.217 18.1139 457.627 17.4108 458.154 16.8379C458.688 16.2585 459.326 15.819 460.068 15.5195C460.817 15.2135 461.641 15.0605 462.539 15.0605C463.112 15.0605 463.656 15.1126 464.17 15.2168C464.691 15.3145 465.189 15.474 465.664 15.6953V17.4238ZM477.734 28H475.84L474.951 25.2168H469.639L468.74 28H466.934L471.172 15.2363H473.555L477.734 28ZM474.453 23.6641L472.295 16.8379L470.137 23.6641H474.453ZM509.648 17.4238C509.173 17.1699 508.685 16.9746 508.184 16.8379C507.682 16.6947 507.135 16.623 506.543 16.623C505.866 16.623 505.264 16.7435 504.736 16.9844C504.209 17.2253 503.763 17.5671 503.398 18.0098C503.04 18.446 502.764 18.9733 502.568 19.5918C502.38 20.2103 502.285 20.8939 502.285 21.6426C502.285 22.4238 502.363 23.1237 502.52 23.7422C502.676 24.3607 502.92 24.8848 503.252 25.3145C503.584 25.7441 504.007 26.0729 504.521 26.3008C505.042 26.5286 505.664 26.6426 506.387 26.6426C506.51 26.6426 506.644 26.6361 506.787 26.623C506.93 26.61 507.074 26.5938 507.217 26.5742C507.36 26.5482 507.497 26.5189 507.627 26.4863C507.764 26.4538 507.884 26.418 507.988 26.3789V22.3164H505.381V20.8809H509.707V27.4043C509.44 27.528 509.157 27.6387 508.857 27.7363C508.564 27.834 508.262 27.9154 507.949 27.9805C507.643 28.0456 507.337 28.0944 507.031 28.127C506.725 28.1595 506.429 28.1758 506.143 28.1758C505.27 28.1758 504.482 28.0391 503.779 27.7656C503.083 27.4922 502.487 27.0885 501.992 26.5547C501.504 26.0143 501.126 25.3438 500.859 24.543C500.599 23.7422 500.469 22.8145 500.469 21.7598C500.469 20.7116 500.615 19.7741 500.908 18.9473C501.201 18.1139 501.611 17.4108 502.139 16.8379C502.673 16.2585 503.311 15.819 504.053 15.5195C504.801 15.2135 505.625 15.0605 506.523 15.0605C507.096 15.0605 507.64 15.1126 508.154 15.2168C508.675 15.3145 509.173 15.474 509.648 15.6953V17.4238ZM520.645 17.4238C520.169 17.1699 519.681 16.9746 519.18 16.8379C518.678 16.6947 518.132 16.623 517.539 16.623C516.862 16.623 516.26 16.7435 515.732 16.9844C515.205 17.2253 514.759 17.5671 514.395 18.0098C514.036 18.446 513.76 18.9733 513.564 19.5918C513.376 20.2103 513.281 20.8939 513.281 21.6426C513.281 22.4238 513.359 23.1237 513.516 23.7422C513.672 24.3607 513.916 24.8848 514.248 25.3145C514.58 25.7441 515.003 26.0729 515.518 26.3008C516.038 26.5286 516.66 26.6426 517.383 26.6426C517.507 26.6426 517.64 26.6361 517.783 26.623C517.926 26.61 518.07 26.5938 518.213 26.5742C518.356 26.5482 518.493 26.5189 518.623 26.4863C518.76 26.4538 518.88 26.418 518.984 26.3789V22.3164H516.377V20.8809H520.703V27.4043C520.436 27.528 520.153 27.6387 519.854 27.7363C519.561 27.834 519.258 27.9154 518.945 27.9805C518.639 28.0456 518.333 28.0944 518.027 28.127C517.721 28.1595 517.425 28.1758 517.139 28.1758C516.266 28.1758 515.479 28.0391 514.775 27.7656C514.079 27.4922 513.483 27.0885 512.988 26.5547C512.5 26.0143 512.122 25.3438 511.855 24.543C511.595 23.7422 511.465 22.8145 511.465 21.7598C511.465 20.7116 511.611 19.7741 511.904 18.9473C512.197 18.1139 512.607 17.4108 513.135 16.8379C513.669 16.2585 514.307 15.819 515.049 15.5195C515.798 15.2135 516.621 15.0605 517.52 15.0605C518.092 15.0605 518.636 15.1126 519.15 15.2168C519.671 15.3145 520.169 15.474 520.645 15.6953V17.4238ZM531.641 17.4238C531.165 17.1699 530.677 16.9746 530.176 16.8379C529.674 16.6947 529.128 16.623 528.535 16.623C527.858 16.623 527.256 16.7435 526.729 16.9844C526.201 17.2253 525.755 17.5671 525.391 18.0098C525.033 18.446 524.756 18.9733 524.561 19.5918C524.372 20.2103 524.277 20.8939 524.277 21.6426C524.277 22.4238 524.355 23.1237 524.512 23.7422C524.668 24.3607 524.912 24.8848 525.244 25.3145C525.576 25.7441 525.999 26.0729 526.514 26.3008C527.035 26.5286 527.656 26.6426 528.379 26.6426C528.503 26.6426 528.636 26.6361 528.779 26.623C528.923 26.61 529.066 26.5938 529.209 26.5742C529.352 26.5482 529.489 26.5189 529.619 26.4863C529.756 26.4538 529.876 26.418 529.98 26.3789V22.3164H527.373V20.8809H531.699V27.4043C531.432 27.528 531.149 27.6387 530.85 27.7363C530.557 27.834 530.254 27.9154 529.941 27.9805C529.635 28.0456 529.329 28.0944 529.023 28.127C528.717 28.1595 528.421 28.1758 528.135 28.1758C527.262 28.1758 526.475 28.0391 525.771 27.7656C525.075 27.4922 524.479 27.0885 523.984 26.5547C523.496 26.0143 523.118 25.3438 522.852 24.543C522.591 23.7422 522.461 22.8145 522.461 21.7598C522.461 20.7116 522.607 19.7741 522.9 18.9473C523.193 18.1139 523.604 17.4108 524.131 16.8379C524.665 16.2585 525.303 15.819 526.045 15.5195C526.794 15.2135 527.617 15.0605 528.516 15.0605C529.089 15.0605 529.632 15.1126 530.146 15.2168C530.667 15.3145 531.165 15.474 531.641 15.6953V17.4238ZM564.629 17.4238C564.154 17.1699 563.665 16.9746 563.164 16.8379C562.663 16.6947 562.116 16.623 561.523 16.623C560.846 16.623 560.244 16.7435 559.717 16.9844C559.189 17.2253 558.743 17.5671 558.379 18.0098C558.021 18.446 557.744 18.9733 557.549 19.5918C557.36 20.2103 557.266 20.8939 557.266 21.6426C557.266 22.4238 557.344 23.1237 557.5 23.7422C557.656 24.3607 557.9 24.8848 558.232 25.3145C558.564 25.7441 558.988 26.0729 559.502 26.3008C560.023 26.5286 560.645 26.6426 561.367 26.6426C561.491 26.6426 561.624 26.6361 561.768 26.623C561.911 26.61 562.054 26.5938 562.197 26.5742C562.34 26.5482 562.477 26.5189 562.607 26.4863C562.744 26.4538 562.865 26.418 562.969 26.3789V22.3164H560.361V20.8809H564.688V27.4043C564.421 27.528 564.137 27.6387 563.838 27.7363C563.545 27.834 563.242 27.9154 562.93 27.9805C562.624 28.0456 562.318 28.0944 562.012 28.127C561.706 28.1595 561.41 28.1758 561.123 28.1758C560.251 28.1758 559.463 28.0391 558.76 27.7656C558.063 27.4922 557.467 27.0885 556.973 26.5547C556.484 26.0143 556.107 25.3438 555.84 24.543C555.579 23.7422 555.449 22.8145 555.449 21.7598C555.449 20.7116 555.596 19.7741 555.889 18.9473C556.182 18.1139 556.592 17.4108 557.119 16.8379C557.653 16.2585 558.291 15.819 559.033 15.5195C559.782 15.2135 560.605 15.0605 561.504 15.0605C562.077 15.0605 562.62 15.1126 563.135 15.2168C563.656 15.3145 564.154 15.474 564.629 15.6953V17.4238ZM575.957 16.7207H572.178V28H570.42V16.7207H566.641V15.2363H575.957V16.7207ZM586.953 16.7207H583.174V28H581.416V16.7207H577.637V15.2363H586.953V16.7207ZM619.941 16.7207H616.162V28H614.404V16.7207H610.625V15.2363H619.941V16.7207ZM631.68 28H629.785L628.896 25.2168H623.584L622.686 28H620.879L625.117 15.2363H627.5L631.68 28ZM628.398 23.6641L626.24 16.8379L624.082 23.6641H628.398ZM642.676 28H640.781L639.893 25.2168H634.58L633.682 28H631.875L636.113 15.2363H638.496L642.676 28ZM639.395 23.6641L637.236 16.8379L635.078 23.6641H639.395ZM674.922 16.7207H671.143V28H669.385V16.7207H665.605V15.2363H674.922V16.7207ZM685.586 17.4238C685.111 17.1699 684.622 16.9746 684.121 16.8379C683.62 16.6947 683.073 16.623 682.48 16.623C681.803 16.623 681.201 16.7435 680.674 16.9844C680.146 17.2253 679.701 17.5671 679.336 18.0098C678.978 18.446 678.701 18.9733 678.506 19.5918C678.317 20.2103 678.223 20.8939 678.223 21.6426C678.223 22.4238 678.301 23.1237 678.457 23.7422C678.613 24.3607 678.857 24.8848 679.189 25.3145C679.521 25.7441 679.945 26.0729 680.459 26.3008C680.98 26.5286 681.602 26.6426 682.324 26.6426C682.448 26.6426 682.581 26.6361 682.725 26.623C682.868 26.61 683.011 26.5938 683.154 26.5742C683.298 26.5482 683.434 26.5189 683.564 26.4863C683.701 26.4538 683.822 26.418 683.926 26.3789V22.3164H681.318V20.8809H685.645V27.4043C685.378 27.528 685.094 27.6387 684.795 27.7363C684.502 27.834 684.199 27.9154 683.887 27.9805C683.581 28.0456 683.275 28.0944 682.969 28.127C682.663 28.1595 682.367 28.1758 682.08 28.1758C681.208 28.1758 680.42 28.0391 679.717 27.7656C679.02 27.4922 678.424 27.0885 677.93 26.5547C677.441 26.0143 677.064 25.3438 676.797 24.543C676.536 23.7422 676.406 22.8145 676.406 21.7598C676.406 20.7116 676.553 19.7741 676.846 18.9473C677.139 18.1139 677.549 17.4108 678.076 16.8379C678.61 16.2585 679.248 15.819 679.99 15.5195C680.739 15.2135 681.562 15.0605 682.461 15.0605C683.034 15.0605 683.577 15.1126 684.092 15.2168C684.613 15.3145 685.111 15.474 685.586 15.6953V17.4238ZM696.475 27.5215C695.452 27.9447 694.382 28.1562 693.262 28.1562C691.458 28.1562 690.072 27.6191 689.102 26.5449C688.138 25.4642 687.656 23.8691 687.656 21.7598C687.656 20.7376 687.79 19.8132 688.057 18.9863C688.324 18.1595 688.704 17.4596 689.199 16.8867C689.694 16.3073 690.293 15.8613 690.996 15.5488C691.699 15.2363 692.487 15.0801 693.359 15.0801C693.952 15.0801 694.502 15.1322 695.01 15.2363C695.518 15.334 696.006 15.487 696.475 15.6953V17.4043C696.012 17.1504 695.534 16.9583 695.039 16.8281C694.544 16.6914 694.004 16.623 693.418 16.623C692.819 16.623 692.275 16.737 691.787 16.9648C691.305 17.1862 690.895 17.5117 690.557 17.9414C690.218 18.3646 689.958 18.8854 689.775 19.5039C689.593 20.1159 689.502 20.8158 689.502 21.6035C689.502 23.2572 689.837 24.5039 690.508 25.3438C691.178 26.1836 692.161 26.6035 693.457 26.6035C694.004 26.6035 694.528 26.5417 695.029 26.418C695.531 26.2878 696.012 26.1087 696.475 25.8809V27.5215ZM729.902 16.7207H726.123V28H724.365V16.7207H720.586V15.2363H729.902V16.7207ZM740.566 17.4238C740.091 17.1699 739.603 16.9746 739.102 16.8379C738.6 16.6947 738.053 16.623 737.461 16.623C736.784 16.623 736.182 16.7435 735.654 16.9844C735.127 17.2253 734.681 17.5671 734.316 18.0098C733.958 18.446 733.682 18.9733 733.486 19.5918C733.298 20.2103 733.203 20.8939 733.203 21.6426C733.203 22.4238 733.281 23.1237 733.438 23.7422C733.594 24.3607 733.838 24.8848 734.17 25.3145C734.502 25.7441 734.925 26.0729 735.439 26.3008C735.96 26.5286 736.582 26.6426 737.305 26.6426C737.428 26.6426 737.562 26.6361 737.705 26.623C737.848 26.61 737.992 26.5938 738.135 26.5742C738.278 26.5482 738.415 26.5189 738.545 26.4863C738.682 26.4538 738.802 26.418 738.906 26.3789V22.3164H736.299V20.8809H740.625V27.4043C740.358 27.528 740.075 27.6387 739.775 27.7363C739.482 27.834 739.18 27.9154 738.867 27.9805C738.561 28.0456 738.255 28.0944 737.949 28.127C737.643 28.1595 737.347 28.1758 737.061 28.1758C736.188 28.1758 735.4 28.0391 734.697 27.7656C734.001 27.4922 733.405 27.0885 732.91 26.5547C732.422 26.0143 732.044 25.3438 731.777 24.543C731.517 23.7422 731.387 22.8145 731.387 21.7598C731.387 20.7116 731.533 19.7741 731.826 18.9473C732.119 18.1139 732.529 17.4108 733.057 16.8379C733.59 16.2585 734.229 15.819 734.971 15.5195C735.719 15.2135 736.543 15.0605 737.441 15.0605C738.014 15.0605 738.558 15.1126 739.072 15.2168C739.593 15.3145 740.091 15.474 740.566 15.6953V17.4238ZM751.562 17.4238C751.087 17.1699 750.599 16.9746 750.098 16.8379C749.596 16.6947 749.049 16.623 748.457 16.623C747.78 16.623 747.178 16.7435 746.65 16.9844C746.123 17.2253 745.677 17.5671 745.312 18.0098C744.954 18.446 744.678 18.9733 744.482 19.5918C744.294 20.2103 744.199 20.8939 744.199 21.6426C744.199 22.4238 744.277 23.1237 744.434 23.7422C744.59 24.3607 744.834 24.8848 745.166 25.3145C745.498 25.7441 745.921 26.0729 746.436 26.3008C746.956 26.5286 747.578 26.6426 748.301 26.6426C748.424 26.6426 748.558 26.6361 748.701 26.623C748.844 26.61 748.988 26.5938 749.131 26.5742C749.274 26.5482 749.411 26.5189 749.541 26.4863C749.678 26.4538 749.798 26.418 749.902 26.3789V22.3164H747.295V20.8809H751.621V27.4043C751.354 27.528 751.071 27.6387 750.771 27.7363C750.479 27.834 750.176 27.9154 749.863 27.9805C749.557 28.0456 749.251 28.0944 748.945 28.127C748.639 28.1595 748.343 28.1758 748.057 28.1758C747.184 28.1758 746.396 28.0391 745.693 27.7656C744.997 27.4922 744.401 27.0885 743.906 26.5547C743.418 26.0143 743.04 25.3438 742.773 24.543C742.513 23.7422 742.383 22.8145 742.383 21.7598C742.383 20.7116 742.529 19.7741 742.822 18.9473C743.115 18.1139 743.525 17.4108 744.053 16.8379C744.587 16.2585 745.225 15.819 745.967 15.5195C746.715 15.2135 747.539 15.0605 748.438 15.0605C749.01 15.0605 749.554 15.1126 750.068 15.2168C750.589 15.3145 751.087 15.474 751.562 15.6953V17.4238ZM784.883 16.7207H781.104V28H779.346V16.7207H775.566V15.2363H784.883V16.7207ZM795.547 17.4238C795.072 17.1699 794.583 16.9746 794.082 16.8379C793.581 16.6947 793.034 16.623 792.441 16.623C791.764 16.623 791.162 16.7435 790.635 16.9844C790.107 17.2253 789.661 17.5671 789.297 18.0098C788.939 18.446 788.662 18.9733 788.467 19.5918C788.278 20.2103 788.184 20.8939 788.184 21.6426C788.184 22.4238 788.262 23.1237 788.418 23.7422C788.574 24.3607 788.818 24.8848 789.15 25.3145C789.482 25.7441 789.906 26.0729 790.42 26.3008C790.941 26.5286 791.562 26.6426 792.285 26.6426C792.409 26.6426 792.542 26.6361 792.686 26.623C792.829 26.61 792.972 26.5938 793.115 26.5742C793.258 26.5482 793.395 26.5189 793.525 26.4863C793.662 26.4538 793.783 26.418 793.887 26.3789V22.3164H791.279V20.8809H795.605V27.4043C795.339 27.528 795.055 27.6387 794.756 27.7363C794.463 27.834 794.16 27.9154 793.848 27.9805C793.542 28.0456 793.236 28.0944 792.93 28.127C792.624 28.1595 792.327 28.1758 792.041 28.1758C791.169 28.1758 790.381 28.0391 789.678 27.7656C788.981 27.4922 788.385 27.0885 787.891 26.5547C787.402 26.0143 787.025 25.3438 786.758 24.543C786.497 23.7422 786.367 22.8145 786.367 21.7598C786.367 20.7116 786.514 19.7741 786.807 18.9473C787.1 18.1139 787.51 17.4108 788.037 16.8379C788.571 16.2585 789.209 15.819 789.951 15.5195C790.7 15.2135 791.523 15.0605 792.422 15.0605C792.995 15.0605 793.538 15.1126 794.053 15.2168C794.574 15.3145 795.072 15.474 795.547 15.6953V17.4238ZM806.875 16.7207H803.096V28H801.338V16.7207H797.559V15.2363H806.875V16.7207Z" fill="#C9D1D9"/>
<circle cx="22" cy="22" r="21" stroke="#C4A8A8" stroke-width="2"/>
<circle cx="76" cy="22" r="21" stroke="#C4A8A8" stroke-width="2"/>
<circle cx="132" cy="22" r="21" stroke="#C4A8A8" stroke-width="2"/>
<circle cx="188" cy="22" r="21" stroke="#C4A8A8" stroke-width="2"/>
<circle cx="242" cy="22" r="21" stroke="#C4A8A8" stroke-width="2"/>
<circle cx="298" cy="22" r="21" stroke="#C4A8A8" stroke-width="2"/>
<circle cx="351" cy="22" r="21" stroke="#C4A8A8" stroke-width="2"/>
<circle cx="407" cy="22" r="21" stroke="#C4A8A8" stroke-width="2"/>
<circle cx="463" cy="22" r="21" stroke="#C4A8A8" stroke-width="2"/>
<circle cx="516" cy="22" r="21" stroke="#C4A8A8" stroke-width="2"/>
<circle cx="572" cy="22" r="21" stroke="#C4A8A8" stroke-width="2"/>
<circle cx="626" cy="22" r="21" stroke="#C4A8A8" stroke-width="2"/>
<circle cx="681" cy="23" r="21" stroke="#C4A8A8" stroke-width="2"/>
<circle cx="737" cy="23" r="21" stroke="#C4A8A8" stroke-width="2"/>
<circle cx="791" cy="22" r="21" stroke="#C4A8A8" stroke-width="2"/>
</svg>
