<svg width="428" height="186" viewBox="0 0 428 186" fill="none" xmlns="http://www.w3.org/2000/svg">
<path fill-rule="evenodd" clip-rule="evenodd" d="M49.5893 115.018L1.2461 86.6459L1.18958 29.8047L49.4763 1.33613L97.8195 29.7087L97.876 86.5498L49.5893 115.018Z" fill="#E8A32C"/>
<path fill-rule="evenodd" clip-rule="evenodd" d="M49.5893 115.018L1.2461 86.6459L1.18958 29.8047L49.4763 1.33613L97.8195 29.7087L97.876 86.5498L49.5893 115.018Z" fill="#E8A32C"/>
<path fill-rule="evenodd" clip-rule="evenodd" d="M49.5893 115.018L1.2461 86.6459L1.18958 29.8047L49.4763 1.33613L97.8195 29.7087L97.876 86.5498L49.5893 115.018Z" fill="#E8A32C"/>
<path fill-rule="evenodd" clip-rule="evenodd" d="M49.5893 115.018L1.2461 86.6459L1.18958 29.8047L49.4763 1.33613L97.8195 29.7087L97.876 86.5498L49.5893 115.018Z" stroke="white"/>
<path fill-rule="evenodd" clip-rule="evenodd" d="M371.689 115.018L323.346 86.6459L323.289 29.8047L371.576 1.33613L419.919 29.7087L419.976 86.5498L371.689 115.018Z" fill="#61ECA1" stroke="white"/>
<path d="M14.8795 165.766C14.2181 165.422 13.7753 164.964 13.5514 164.391C13.3274 163.813 13.2155 163.118 13.2155 162.305V158.758C13.2155 157.112 13.6425 155.99 14.4967 155.391C15.2207 154.886 16.2727 154.633 17.653 154.633C19.0384 154.633 20.0436 154.826 20.6686 155.211C21.2936 155.592 21.6842 156.191 21.8405 157.008C21.9134 157.373 21.9498 157.808 21.9498 158.313L20.4576 158.446C20.4576 157.685 20.3925 157.172 20.2623 156.907C20.1321 156.636 20.0019 156.443 19.8717 156.329C19.7467 156.214 19.5384 156.115 19.2467 156.032C18.955 155.943 18.4993 155.899 17.8795 155.899C17.2597 155.899 16.7727 155.941 16.4186 156.024C16.0644 156.102 15.7623 156.237 15.5123 156.43C15.0332 156.8 14.7936 157.48 14.7936 158.469V162.547C14.7936 163.527 15.0358 164.183 15.5201 164.516C16.0045 164.844 16.7753 165.008 17.8326 165.008C18.8951 165.008 19.5722 164.883 19.8639 164.633C20.1556 164.383 20.3352 164.019 20.403 163.54C20.4394 163.279 20.4576 162.967 20.4576 162.602H21.9498C21.9498 163.737 21.7858 164.534 21.4576 164.993C20.8535 165.847 19.705 166.274 18.0123 166.274C16.5905 166.274 15.5462 166.105 14.8795 165.766ZM24.778 166.102V157.821H26.2467V166.102H24.778ZM24.778 156.329V154.805H26.2467V156.329H24.778ZM33.1061 166.165C31.9498 166.165 31.1139 165.982 30.5983 165.618C30.0878 165.253 29.8326 164.625 29.8326 163.735V158.93H28.4498V157.821H29.8873L30.067 155.258H31.3014V157.821H33.3795V158.93H31.3014V163.641C31.3014 164.162 31.4498 164.508 31.7467 164.68C32.0488 164.847 32.5722 164.93 33.317 164.93H33.4811L33.3248 166.165H33.1061ZM37.0123 163.766C37.0123 164.688 37.666 165.149 38.9733 165.149C40.2806 165.149 40.9342 164.688 40.9342 163.766V160.18C40.9342 159.253 40.2806 158.79 38.9733 158.79C37.666 158.79 37.0123 159.253 37.0123 160.18V163.766ZM42.403 163.641C42.403 164.454 42.1243 165.097 41.567 165.571C41.0149 166.04 40.1477 166.274 38.9655 166.274C37.7832 166.274 36.916 166.04 36.3639 165.571C35.817 165.102 35.5436 164.459 35.5436 163.641V160.305C35.5436 159.487 35.817 158.844 36.3639 158.375C36.916 157.902 37.7832 157.665 38.9655 157.665C40.1477 157.665 41.0149 157.902 41.567 158.375C42.1243 158.849 42.403 159.493 42.403 160.305V163.641ZM44.653 166.102V165.18L48.6139 158.79H44.7936V157.821H50.1608V158.719L46.1764 165.133H50.2311V166.102H44.653ZM52.6998 166.102V157.821H54.1686V166.102H52.6998ZM52.6998 156.329V154.805H54.1686V156.329H52.6998ZM62.4811 160C62.4811 159.193 61.8639 158.79 60.6295 158.79C60.0201 158.79 59.541 158.92 59.192 159.18C58.8431 159.441 58.6686 159.782 58.6686 160.204V166.102H57.1998V157.821H58.6686V158.625C59.2207 157.985 60.0384 157.665 61.1217 157.665C62.528 157.665 63.4186 158.159 63.7936 159.149C63.8977 159.43 63.9498 159.743 63.9498 160.086V166.102H62.4811V160Z" fill="#E8A32C"/>
<path d="M346.827 166.102V156.094H343.569V154.805H351.663V156.094H348.397V166.102H346.827ZM353.929 166.102V157.821H355.397V166.102H353.929ZM353.929 156.329V154.805H355.397V156.329H353.929ZM363.569 160C363.569 159.193 362.973 158.79 361.78 158.79C361.176 158.79 360.71 158.92 360.382 159.18C360.059 159.435 359.897 159.777 359.897 160.204V166.102H358.429V157.821H359.897V158.625C360.449 157.985 361.278 157.665 362.382 157.665C363.491 157.665 364.265 158.027 364.702 158.75L364.897 158.563C365.496 157.964 366.335 157.665 367.413 157.665C368.804 157.665 369.663 158.159 369.991 159.149C370.085 159.43 370.132 159.743 370.132 160.086V166.102H368.663V160C368.663 159.193 368.121 158.79 367.038 158.79C366.356 158.79 365.85 158.92 365.522 159.18C365.199 159.435 365.038 159.777 365.038 160.204V166.102H363.569V160ZM373.116 166.102V157.821H374.585V166.102H373.116ZM373.116 156.329V154.805H374.585V156.329H373.116ZM382.897 160C382.897 159.193 382.28 158.79 381.046 158.79C380.436 158.79 379.957 158.92 379.608 159.18C379.259 159.441 379.085 159.782 379.085 160.204V166.102H377.616V157.821H379.085V158.625C379.637 157.985 380.455 157.665 381.538 157.665C382.944 157.665 383.835 158.159 384.21 159.149C384.314 159.43 384.366 159.743 384.366 160.086V166.102H382.897V160Z" fill="#61ECA1"/>
</svg>
