<svg width="223" height="98" viewBox="0 0 223 98" fill="none" xmlns="http://www.w3.org/2000/svg">
<path fill-rule="evenodd" clip-rule="evenodd" d="M26.5596 61.0253L1.04474 46.0507L1.01491 16.0507L26.5 1.02536L52.0149 16L52.0447 46L26.5596 61.0253Z" fill="#E8A32C"/>
<path fill-rule="evenodd" clip-rule="evenodd" d="M26.5596 61.0253L1.04474 46.0507L1.01491 16.0507L26.5 1.02536L52.0149 16L52.0447 46L26.5596 61.0253Z" fill="#E8A32C"/>
<path fill-rule="evenodd" clip-rule="evenodd" d="M26.5596 61.0253L1.04474 46.0507L1.01491 16.0507L26.5 1.02536L52.0149 16L52.0447 46L26.5596 61.0253Z" fill="#E8A32C"/>
<path fill-rule="evenodd" clip-rule="evenodd" d="M26.5596 61.0253L1.04474 46.0507L1.01491 16.0507L26.5 1.02536L52.0149 16L52.0447 46L26.5596 61.0253Z" stroke="white"/>
<path fill-rule="evenodd" clip-rule="evenodd" d="M196.56 61.0253L171.045 46.0507L171.015 16.0507L196.5 1.02536L222.015 16L222.045 46L196.56 61.0253Z" fill="#61ECA1" stroke="white"/>
<path d="M9.31442 92.748C8.81833 92.4902 8.4863 92.1465 8.31833 91.7168C8.15036 91.2832 8.06638 90.7617 8.06638 90.1523V87.4922C8.06638 86.2578 8.38669 85.416 9.02731 84.9668C9.57028 84.5879 10.3593 84.3984 11.3945 84.3984C12.4336 84.3984 13.1875 84.543 13.6562 84.832C14.125 85.1172 14.4179 85.5664 14.5351 86.1797C14.5898 86.4531 14.6172 86.7793 14.6172 87.1582L13.498 87.2578C13.498 86.6875 13.4492 86.3027 13.3515 86.1035C13.2539 85.9004 13.1562 85.7559 13.0586 85.6699C12.9648 85.584 12.8086 85.5098 12.5898 85.4473C12.3711 85.3809 12.0293 85.3477 11.5644 85.3477C11.0996 85.3477 10.7343 85.3789 10.4687 85.4414C10.2031 85.5 9.97653 85.6016 9.78903 85.7461C9.42966 86.0234 9.24997 86.5332 9.24997 87.2754V90.334C9.24997 91.0684 9.43161 91.5605 9.79489 91.8105C10.1582 92.0566 10.7363 92.1797 11.5293 92.1797C12.3261 92.1797 12.834 92.0859 13.0527 91.8984C13.2715 91.7109 13.4062 91.4375 13.457 91.0781C13.4843 90.8828 13.498 90.6484 13.498 90.375H14.6172C14.6172 91.2266 14.4941 91.8242 14.248 92.168C13.7949 92.8086 12.9336 93.1289 11.664 93.1289C10.5976 93.1289 9.81442 93.002 9.31442 92.748ZM16.7383 93V86.7891H17.8398V93H16.7383ZM16.7383 85.6699V84.5273H17.8398V85.6699H16.7383ZM22.9843 93.0469C22.1172 93.0469 21.4902 92.9102 21.1035 92.6367C20.7207 92.3633 20.5293 91.8926 20.5293 91.2246V87.6211H19.4922V86.7891H20.5703L20.705 84.8672H21.6308V86.7891H23.1894V87.6211H21.6308V91.1543C21.6308 91.5449 21.7422 91.8047 21.9648 91.9336C22.1914 92.0586 22.584 92.1211 23.1425 92.1211H23.2656L23.1484 93.0469H22.9843ZM25.914 91.248C25.914 91.9395 26.4043 92.2852 27.3847 92.2852C28.3652 92.2852 28.8554 91.9395 28.8554 91.248V88.5586C28.8554 87.8633 28.3652 87.5156 27.3847 87.5156C26.4043 87.5156 25.914 87.8633 25.914 88.5586V91.248ZM29.957 91.1543C29.957 91.7637 29.748 92.2461 29.33 92.6016C28.916 92.9531 28.2656 93.1289 27.3789 93.1289C26.4922 93.1289 25.8418 92.9531 25.4277 92.6016C25.0175 92.25 24.8125 91.7676 24.8125 91.1543V88.6523C24.8125 88.0391 25.0175 87.5566 25.4277 87.2051C25.8418 86.8496 26.4922 86.6719 27.3789 86.6719C28.2656 86.6719 28.916 86.8496 29.33 87.2051C29.748 87.5605 29.957 88.043 29.957 88.6523V91.1543ZM31.6445 93V92.3086L34.6152 87.5156H31.75V86.7891H35.7754V87.4629L32.7871 92.2734H35.8281V93H31.6445ZM37.6797 93V86.7891H38.7812V93H37.6797ZM37.6797 85.6699V84.5273H38.7812V85.6699H37.6797ZM45.0156 88.4238C45.0156 87.8184 44.5527 87.5156 43.6269 87.5156C43.1699 87.5156 42.8105 87.6133 42.5488 87.8086C42.2871 88.0039 42.1562 88.2598 42.1562 88.5762V93H41.0547V86.7891H42.1562V87.3926C42.5703 86.9121 43.1836 86.6719 43.9961 86.6719C45.0508 86.6719 45.7187 87.043 46 87.7852C46.0781 87.9961 46.1172 88.2305 46.1172 88.4883V93H45.0156V88.4238Z" fill="#E8A32C"/>
<path d="M183.936 93V85.4941H181.492V84.5273H187.562V85.4941H185.113V93H183.936ZM189.262 93V86.7891H190.363V93H189.262ZM189.262 85.6699V84.5273H190.363V85.6699H189.262ZM196.492 88.4238C196.492 87.8184 196.045 87.5156 195.15 87.5156C194.697 87.5156 194.348 87.6133 194.102 87.8086C193.859 88 193.738 88.2559 193.738 88.5762V93H192.637V86.7891H193.738V87.3926C194.152 86.9121 194.773 86.6719 195.602 86.6719C196.434 86.6719 197.014 86.9434 197.342 87.4863L197.488 87.3457C197.938 86.8965 198.566 86.6719 199.375 86.6719C200.418 86.6719 201.062 87.043 201.309 87.7852C201.379 87.9961 201.414 88.2305 201.414 88.4883V93H200.312V88.4238C200.312 87.8184 199.906 87.5156 199.094 87.5156C198.582 87.5156 198.203 87.6133 197.957 87.8086C197.715 88 197.594 88.2559 197.594 88.5762V93H196.492V88.4238ZM203.652 93V86.7891H204.754V93H203.652ZM203.652 85.6699V84.5273H204.754V85.6699H203.652ZM210.988 88.4238C210.988 87.8184 210.525 87.5156 209.6 87.5156C209.143 87.5156 208.783 87.6133 208.521 87.8086C208.26 88.0039 208.129 88.2598 208.129 88.5762V93H207.027V86.7891H208.129V87.3926C208.543 86.9121 209.156 86.6719 209.969 86.6719C211.023 86.6719 211.691 87.043 211.973 87.7852C212.051 87.9961 212.09 88.2305 212.09 88.4883V93H210.988V88.4238Z" fill="#61ECA1"/>
</svg>
