<svg width="569" height="554" viewBox="0 0 569 554" fill="none" xmlns="http://www.w3.org/2000/svg">
<g style="mix-blend-mode:hard-light" opacity="0.35">
<rect x="438.5" y="552.5" width="81" height="552" transform="rotate(-180 438.5 552.5)" fill="#A8EBE7" stroke="#79CCDB"/>
<line x1="409.072" y1="107.182" x2="411.619" y2="128.831" stroke="white"/>
<path fill-rule="evenodd" clip-rule="evenodd" d="M387.295 123.108L365.51 107.529L373.904 82.4238L400.877 82.4869L409.153 107.631L387.295 123.108Z" fill="#22B674" stroke="#22B674"/>
<line x1="409.072" y1="201.419" x2="411.619" y2="223.068" stroke="white"/>
<line x1="411.554" y1="441.143" x2="400.729" y2="459.608" stroke="white"/>
<line x1="409.072" y1="484.129" x2="411.619" y2="505.778" stroke="white"/>
<path fill-rule="evenodd" clip-rule="evenodd" d="M387.295 500.055L365.51 484.476L373.904 459.371L400.877 459.434L409.153 484.578L387.295 500.055Z" fill="#22B674" stroke="#22B674"/>
<circle cx="409.212" cy="520.482" r="16.5551" transform="rotate(-180 409.212 520.482)" fill="#D42B2B"/>
<path d="M410.48 517.332V512.322H413.41V526.541H407.863C406.795 526.541 405.858 526.346 405.051 525.955C404.237 525.565 403.612 525.008 403.176 524.285C402.739 523.569 402.521 522.752 402.521 521.834C402.521 520.441 403 519.341 403.957 518.533C404.907 517.733 406.226 517.332 407.912 517.332H410.48ZM410.48 519.705H407.863C407.088 519.705 406.499 519.887 406.096 520.252C405.685 520.617 405.48 521.137 405.48 521.815C405.48 522.511 405.685 523.074 406.096 523.504C406.506 523.934 407.072 524.155 407.795 524.168H410.48V519.705Z" fill="white"/>
<line x1="411.554" y1="64.1957" x2="400.729" y2="82.661" stroke="white"/>
<circle cx="409.212" cy="143.535" r="16.5551" transform="rotate(-180 409.212 143.535)" fill="#D42B2B"/>
<circle cx="409.212" cy="426.245" r="16.5551" transform="rotate(-180 409.212 426.245)" fill="#D42B2B"/>
<line x1="411.554" y1="346.906" x2="400.729" y2="365.371" stroke="white"/>
<line x1="409.072" y1="389.893" x2="411.619" y2="411.541" stroke="white"/>
<path fill-rule="evenodd" clip-rule="evenodd" d="M387.295 405.818L365.51 390.239L373.904 365.134L400.877 365.197L409.153 390.341L387.295 405.818Z" fill="#22B674" stroke="#22B674"/>
<circle cx="409.212" cy="426.245" r="16.5551" transform="rotate(-180 409.212 426.245)" fill="#D42B2B"/>
<path d="M411.48 422.332V417.322H414.41V431.541H408.863C407.795 431.541 406.858 431.346 406.051 430.955C405.237 430.565 404.612 430.008 404.176 429.285C403.739 428.569 403.521 427.752 403.521 426.834C403.521 425.441 404 424.341 404.957 423.533C405.907 422.733 407.226 422.332 408.912 422.332H411.48ZM411.48 424.705H408.863C408.088 424.705 407.499 424.887 407.096 425.252C406.685 425.617 406.48 426.137 406.48 426.815C406.48 427.511 406.685 428.074 407.096 428.504C407.506 428.934 408.072 429.155 408.795 429.168H411.48V424.705Z" fill="white"/>
<line x1="411.554" y1="252.669" x2="400.729" y2="271.134" stroke="white"/>
<line x1="409.072" y1="295.656" x2="411.619" y2="317.305" stroke="white"/>
<path fill-rule="evenodd" clip-rule="evenodd" d="M387.295 311.582L365.51 296.003L373.904 270.897L400.877 270.96L409.153 296.105L387.295 311.582Z" fill="#22B674" stroke="#22B674"/>
<circle cx="409.212" cy="332.008" r="16.5551" transform="rotate(-180 409.212 332.008)" fill="#D42B2B"/>
<path d="M410.48 328.332V323.323H413.41V337.541H407.863C406.795 337.541 405.858 337.346 405.051 336.955C404.237 336.565 403.612 336.008 403.176 335.285C402.739 334.569 402.521 333.752 402.521 332.834C402.521 331.441 403 330.341 403.957 329.533C404.907 328.733 406.226 328.332 407.912 328.332H410.48ZM410.48 330.705H407.863C407.088 330.705 406.499 330.888 406.096 331.252C405.685 331.617 405.48 332.138 405.48 332.815C405.48 333.511 405.685 334.074 406.096 334.504C406.506 334.934 407.072 335.155 407.795 335.168H410.48V330.705Z" fill="white"/>
<circle cx="409.212" cy="237.771" r="16.5551" transform="rotate(-180 409.212 237.771)" fill="#D42B2B"/>
<path d="M410.48 234.332V229.322H413.41V243.541H407.863C406.795 243.541 405.858 243.346 405.051 242.955C404.237 242.564 403.612 242.008 403.176 241.285C402.739 240.569 402.521 239.752 402.521 238.834C402.521 237.441 403 236.34 403.957 235.533C404.907 234.732 406.226 234.332 407.912 234.332H410.48ZM410.48 236.705H407.863C407.088 236.705 406.499 236.887 406.096 237.252C405.685 237.617 405.48 238.137 405.48 238.814C405.48 239.511 405.685 240.074 406.096 240.504C406.506 240.934 407.072 241.155 407.795 241.168H410.48V236.705Z" fill="white"/>
<line x1="411.554" y1="158.432" x2="400.729" y2="176.898" stroke="white"/>
<path fill-rule="evenodd" clip-rule="evenodd" d="M387.295 217.345L365.51 201.766L373.904 176.66L400.877 176.724L409.153 201.868L387.295 217.345Z" fill="#22B674" stroke="#22B674"/>
<circle cx="409.217" cy="143.767" r="16.5551" transform="rotate(-180 409.217 143.767)" fill="#D42B2B"/>
<path d="M410.485 140.565V135.555H413.415V149.774H407.868C406.8 149.774 405.863 149.578 405.055 149.188C404.242 148.797 403.617 148.241 403.18 147.518C402.744 146.802 402.526 145.985 402.526 145.067C402.526 143.674 403.005 142.573 403.962 141.766C404.912 140.965 406.23 140.565 407.917 140.565H410.485ZM410.485 142.938H407.868C407.093 142.938 406.504 143.12 406.1 143.485C405.69 143.849 405.485 144.37 405.485 145.047C405.485 145.744 405.69 146.307 406.1 146.737C406.51 147.166 407.077 147.388 407.799 147.401H410.485V142.938Z" fill="white"/>
<path d="M409.076 45.3224H412.006V51.4161H417.719V45.3224H420.649V59.5411H417.719V53.7794H412.006V59.5411H409.076V45.3224ZM394.828 52.1095C394.828 50.7098 395.076 49.4825 395.57 48.4279C396.065 47.3732 396.775 46.5594 397.699 45.9865C398.617 45.4135 399.672 45.1271 400.863 45.1271C402.042 45.1271 403.093 45.4103 404.018 45.9767C404.942 46.5431 405.658 47.3504 406.166 48.3986C406.674 49.4532 406.931 50.6642 406.938 52.0314V52.7345C406.938 54.1342 406.687 55.3647 406.186 56.4259C405.678 57.4936 404.965 58.3107 404.047 58.8771C403.122 59.45 402.068 59.7365 400.883 59.7365C399.698 59.7365 398.647 59.45 397.729 58.8771C396.804 58.3107 396.091 57.4936 395.59 56.4259C395.082 55.3647 394.828 54.1375 394.828 52.7443V52.1095ZM397.797 52.754C397.797 54.2449 398.064 55.3777 398.598 56.1525C399.132 56.9272 399.893 57.3146 400.883 57.3146C401.866 57.3146 402.624 56.9305 403.158 56.1622C403.692 55.4005 403.962 54.2807 403.969 52.8029V52.1095C403.969 50.6577 403.702 49.5314 403.168 48.7306C402.634 47.9298 401.866 47.5294 400.863 47.5294C399.88 47.5294 399.125 47.9135 398.598 48.6818C398.07 49.4565 397.803 50.5828 397.797 52.0607V52.754Z" fill="white"/>
<path d="M384.541 500.23C384.541 499.53 384.664 498.917 384.912 498.389C385.159 497.862 385.514 497.455 385.976 497.169C386.435 496.882 386.963 496.739 387.558 496.739C388.148 496.739 388.673 496.881 389.136 497.164C389.598 497.447 389.956 497.851 390.21 498.375C390.464 498.902 390.592 499.508 390.595 500.191V500.543C390.595 501.243 390.47 501.858 390.219 502.388C389.966 502.922 389.609 503.331 389.15 503.614C388.688 503.9 388.161 504.044 387.568 504.044C386.976 504.044 386.45 503.9 385.991 503.614C385.529 503.331 385.172 502.922 384.922 502.388C384.668 501.858 384.541 501.244 384.541 500.548V500.23ZM386.025 500.552C386.025 501.298 386.159 501.864 386.426 502.252C386.692 502.639 387.073 502.833 387.568 502.833C388.06 502.833 388.439 502.641 388.706 502.257C388.973 501.876 389.108 501.316 389.111 500.577V500.23C389.111 499.504 388.978 498.941 388.711 498.541C388.444 498.14 388.06 497.94 387.558 497.94C387.067 497.94 386.689 498.132 386.426 498.516C386.162 498.904 386.028 499.467 386.025 500.206V500.552Z" fill="white"/>
<path d="M384.541 406.63C384.541 405.93 384.664 405.317 384.912 404.789C385.159 404.262 385.514 403.855 385.976 403.569C386.435 403.282 386.963 403.139 387.558 403.139C388.148 403.139 388.673 403.281 389.136 403.564C389.598 403.847 389.956 404.251 390.21 404.775C390.464 405.302 390.592 405.908 390.595 406.591V406.943C390.595 407.643 390.47 408.258 390.219 408.788C389.966 409.322 389.609 409.731 389.15 410.014C388.688 410.3 388.161 410.444 387.568 410.444C386.976 410.444 386.45 410.3 385.991 410.014C385.529 409.731 385.172 409.322 384.922 408.788C384.668 408.258 384.541 407.644 384.541 406.948V406.63ZM386.025 406.953C386.025 407.698 386.159 408.264 386.426 408.652C386.692 409.039 387.073 409.233 387.568 409.233C388.06 409.233 388.439 409.041 388.706 408.657C388.973 408.276 389.108 407.716 389.111 406.977V406.63C389.111 405.904 388.978 405.341 388.711 404.941C388.444 404.54 388.06 404.34 387.558 404.34C387.067 404.34 386.689 404.532 386.426 404.916C386.162 405.304 386.028 405.867 386.025 406.606V406.953Z" fill="white"/>
<path d="M384.541 313.03C384.541 312.33 384.664 311.717 384.912 311.189C385.159 310.662 385.514 310.255 385.976 309.969C386.435 309.682 386.963 309.539 387.558 309.539C388.148 309.539 388.673 309.681 389.136 309.964C389.598 310.247 389.956 310.651 390.21 311.175C390.464 311.702 390.592 312.308 390.595 312.991V313.343C390.595 314.043 390.47 314.658 390.219 315.188C389.966 315.722 389.609 316.131 389.15 316.414C388.688 316.701 388.161 316.844 387.568 316.844C386.976 316.844 386.45 316.701 385.991 316.414C385.529 316.131 385.172 315.722 384.922 315.188C384.668 314.658 384.541 314.044 384.541 313.348V313.03ZM386.025 313.353C386.025 314.098 386.159 314.664 386.426 315.052C386.692 315.439 387.073 315.633 387.568 315.633C388.06 315.633 388.439 315.441 388.706 315.057C388.973 314.676 389.108 314.116 389.111 313.377V313.03C389.111 312.304 388.978 311.741 388.711 311.341C388.444 310.94 388.06 310.74 387.558 310.74C387.067 310.74 386.689 310.932 386.426 311.316C386.162 311.704 386.028 312.267 386.025 313.006V313.353Z" fill="white"/>
<path d="M384.541 218.157C384.541 217.457 384.664 216.843 384.912 216.316C385.159 215.789 385.514 215.382 385.976 215.095C386.435 214.809 386.963 214.666 387.558 214.666C388.148 214.666 388.673 214.807 389.136 215.09C389.598 215.374 389.956 215.777 390.21 216.301C390.464 216.829 390.592 217.434 390.595 218.118V218.469C390.595 219.169 390.47 219.784 390.219 220.315C389.966 220.849 389.609 221.257 389.15 221.541C388.688 221.827 388.161 221.97 387.568 221.97C386.976 221.97 386.45 221.827 385.991 221.541C385.529 221.257 385.172 220.849 384.922 220.315C384.668 219.784 384.541 219.171 384.541 218.474V218.157ZM386.025 218.479C386.025 219.224 386.159 219.791 386.426 220.178C386.692 220.566 387.073 220.759 387.568 220.759C388.06 220.759 388.439 220.567 388.706 220.183C388.973 219.802 389.108 219.242 389.111 218.503V218.157C389.111 217.431 388.978 216.868 388.711 216.467C388.444 216.067 388.06 215.867 387.558 215.867C387.067 215.867 386.689 216.059 386.426 216.443C386.162 216.83 386.028 217.393 386.025 218.132V218.479Z" fill="white"/>
<path d="M384.541 123.283C384.541 122.583 384.664 121.97 384.912 121.443C385.159 120.915 385.514 120.508 385.976 120.222C386.435 119.935 386.963 119.792 387.558 119.792C388.148 119.792 388.673 119.934 389.136 120.217C389.598 120.5 389.956 120.904 390.21 121.428C390.464 121.955 390.592 122.561 390.595 123.244V123.596C390.595 124.296 390.47 124.911 390.219 125.442C389.966 125.975 389.609 126.384 389.15 126.667C388.688 126.954 388.161 127.097 387.568 127.097C386.976 127.097 386.45 126.954 385.991 126.667C385.529 126.384 385.172 125.975 384.922 125.442C384.668 124.911 384.541 124.297 384.541 123.601V123.283ZM386.025 123.606C386.025 124.351 386.159 124.917 386.426 125.305C386.692 125.692 387.073 125.886 387.568 125.886C388.06 125.886 388.439 125.694 388.706 125.31C388.973 124.929 389.108 124.369 389.111 123.63V123.283C389.111 122.557 388.978 121.994 388.711 121.594C388.444 121.193 388.06 120.993 387.558 120.993C387.067 120.993 386.689 121.185 386.426 121.569C386.162 121.957 386.028 122.52 386.025 123.259V123.606Z" fill="white"/>
<rect x="122.5" y="0.5" width="80.502" height="552.322" fill="#A8EBE7" stroke="#79CCDB"/>
<line x1="232.792" y1="84.8225" x2="338.49" y2="84.8225" stroke="white"/>
<line x1="232.792" y1="95.647" x2="338.49" y2="95.647" stroke="white"/>
<line x1="235.976" y1="367.533" x2="341.673" y2="367.533" stroke="white"/>
<line x1="235.976" y1="378.357" x2="341.673" y2="378.357" stroke="white"/>
<line x1="236.612" y1="462.406" x2="342.31" y2="462.406" stroke="white"/>
<line x1="236.612" y1="473.231" x2="342.31" y2="473.231" stroke="white"/>
<line x1="244.89" y1="184.472" x2="322.571" y2="184.472" stroke="white"/>
<line x1="220.694" y1="179.059" x2="326.392" y2="179.059" stroke="white"/>
<line x1="220.694" y1="189.884" x2="326.392" y2="189.884" stroke="white"/>
<line x1="244.89" y1="278.708" x2="322.571" y2="278.708" stroke="white"/>
<line x1="220.694" y1="273.296" x2="326.392" y2="273.296" stroke="white"/>
<line x1="220.694" y1="284.12" x2="326.392" y2="284.12" stroke="white"/>
<line x1="195.225" y1="74.6348" x2="228.971" y2="74.6348" stroke="white"/>
<line x1="194.588" y1="168.872" x2="228.335" y2="168.872" stroke="white"/>
<line x1="194.588" y1="263.108" x2="228.335" y2="263.108" stroke="white"/>
<line x1="194.588" y1="357.345" x2="228.335" y2="357.345" stroke="white"/>
<line x1="192.041" y1="451.582" x2="225.788" y2="451.582" stroke="white"/>
<circle cx="228.971" cy="467.363" r="16.5551" fill="#62F2A6"/>
<path d="M234.876 463.155H230.521V475H227.591V463.155H223.294V460.781H234.876V463.155Z" fill="white"/>
<circle cx="228.335" cy="90.4164" r="16.5551" fill="#F1E023"/>
<path d="M231.452 95.0703H226.315L225.338 98H222.223L227.516 83.7812H230.231L235.553 98H232.438L231.452 95.0703ZM227.106 92.6973H230.661L228.874 87.375L227.106 92.6973Z" fill="white"/>
<circle cx="228.971" cy="373.127" r="16.5551" fill="#F1E023"/>
<path d="M231.452 377.07H226.315L225.338 380H222.223L227.516 365.781H230.231L235.553 380H232.438L231.452 377.07ZM227.106 374.697H230.661L228.874 369.375L227.106 374.697Z" fill="white"/>
<circle cx="228.971" cy="184.972" r="16.5551" fill="#C6344A"/>
<path d="M234.587 190.203C234.059 190.835 233.314 191.326 232.35 191.678C231.387 192.023 230.319 192.196 229.147 192.196C227.917 192.196 226.836 191.929 225.905 191.395C224.98 190.854 224.264 190.073 223.756 189.051C223.255 188.029 222.998 186.828 222.985 185.448V184.481C222.985 183.061 223.223 181.834 223.698 180.799C224.18 179.757 224.87 178.963 225.768 178.416C226.673 177.863 227.731 177.586 228.942 177.586C230.628 177.586 231.947 177.99 232.897 178.797C233.848 179.598 234.411 180.767 234.587 182.303H231.735C231.605 181.489 231.315 180.893 230.866 180.516C230.423 180.138 229.811 179.949 229.03 179.949C228.034 179.949 227.275 180.324 226.755 181.073C226.234 181.821 225.97 182.934 225.963 184.412V185.321C225.963 186.811 226.247 187.938 226.813 188.699C227.38 189.461 228.21 189.842 229.303 189.842C230.404 189.842 231.188 189.608 231.657 189.139V186.688H228.991V184.53H234.587V190.203Z" fill="white"/>
<circle cx="228.971" cy="278.89" r="16.5551" fill="#E8A62F"/>
<path d="M234.772 281.264C234.661 282.794 234.095 283.998 233.073 284.877C232.057 285.756 230.716 286.195 229.049 286.195C227.227 286.195 225.791 285.583 224.743 284.359C223.701 283.129 223.18 281.443 223.18 279.301V278.432C223.18 277.065 223.421 275.86 223.903 274.818C224.385 273.777 225.072 272.979 225.963 272.426C226.862 271.866 227.904 271.586 229.088 271.586C230.729 271.586 232.051 272.026 233.053 272.904C234.056 273.783 234.635 275.017 234.792 276.606H231.862C231.79 275.688 231.533 275.024 231.09 274.613C230.654 274.197 229.987 273.988 229.088 273.988C228.112 273.988 227.38 274.34 226.891 275.043C226.409 275.74 226.162 276.824 226.149 278.295V279.369C226.149 280.906 226.38 282.029 226.842 282.738C227.311 283.448 228.047 283.803 229.049 283.803C229.954 283.803 230.628 283.598 231.071 283.188C231.52 282.771 231.777 282.13 231.842 281.264H234.772Z" fill="white"/>
<line x1="151.43" y1="357.903" x2="148.883" y2="336.254" stroke="white"/>
<line x1="148.948" y1="118.18" x2="159.773" y2="99.7146" stroke="white"/>
<line x1="151.43" y1="75.1932" x2="148.883" y2="53.5442" stroke="white"/>
<path fill-rule="evenodd" clip-rule="evenodd" d="M173.207 59.2676L194.992 74.8466L186.598 99.9518L159.625 99.8888L151.349 74.7445L173.207 59.2676Z" fill="#22B674" stroke="#22B674"/>
<circle cx="151.29" cy="38.8409" r="16.5551" fill="#D42B2B"/>
<path d="M150.022 41.9904V47.0001H147.092V32.7814H152.639C153.707 32.7814 154.644 32.9767 155.451 33.3673C156.265 33.7579 156.89 34.3146 157.326 35.0372C157.763 35.7534 157.981 36.5704 157.981 37.4884C157.981 38.8816 157.502 39.9819 156.545 40.7892C155.595 41.59 154.276 41.9904 152.59 41.9904H150.022ZM150.022 39.6173H152.639C153.414 39.6173 154.003 39.435 154.406 39.0704C154.817 38.7059 155.022 38.185 155.022 37.5079C155.022 36.8113 154.817 36.2482 154.406 35.8185C153.996 35.3888 153.43 35.1674 152.707 35.1544H150.022V39.6173Z" fill="white"/>
<line x1="148.948" y1="495.127" x2="159.773" y2="476.661" stroke="white"/>
<line x1="151.43" y1="452.14" x2="148.883" y2="430.491" stroke="white"/>
<path fill-rule="evenodd" clip-rule="evenodd" d="M173.207 436.214L194.992 451.793L186.598 476.899L159.625 476.836L151.349 451.691L173.207 436.214Z" fill="#22B674" stroke="#22B674"/>
<circle cx="151.29" cy="133.078" r="16.5551" fill="#D42B2B"/>
<line x1="148.948" y1="212.417" x2="159.773" y2="193.951" stroke="white"/>
<line x1="151.43" y1="169.43" x2="148.883" y2="147.781" stroke="white"/>
<path fill-rule="evenodd" clip-rule="evenodd" d="M173.207 153.504L194.992 169.083L186.598 194.189L159.625 194.125L151.349 168.981L173.207 153.504Z" fill="#22B674" stroke="#22B674"/>
<circle cx="151.29" cy="133.078" r="16.5551" fill="#D42B2B"/>
<path d="M149.022 136.99V142H146.092V127.781H151.639C152.707 127.781 153.644 127.977 154.451 128.367C155.265 128.758 155.89 129.315 156.326 130.037C156.763 130.753 156.981 131.57 156.981 132.488C156.981 133.882 156.502 134.982 155.545 135.789C154.595 136.59 153.276 136.99 151.59 136.99H149.022ZM149.022 134.617H151.639C152.414 134.617 153.003 134.435 153.406 134.07C153.817 133.706 154.022 133.185 154.022 132.508C154.022 131.811 153.817 131.248 153.406 130.818C152.996 130.389 152.43 130.167 151.707 130.154H149.022V134.617Z" fill="white"/>
<line x1="148.948" y1="306.653" x2="159.773" y2="288.188" stroke="white"/>
<line x1="151.43" y1="263.667" x2="148.883" y2="242.018" stroke="white"/>
<path fill-rule="evenodd" clip-rule="evenodd" d="M173.207 247.741L194.992 263.32L186.598 288.425L159.625 288.362L151.349 263.218L173.207 247.741Z" fill="#22B674" stroke="#22B674"/>
<circle cx="151.29" cy="227.314" r="16.5551" fill="#D42B2B"/>
<path d="M150.022 230.99V236H147.092V221.781H152.639C153.707 221.781 154.644 221.977 155.451 222.367C156.265 222.758 156.89 223.314 157.326 224.037C157.763 224.753 157.981 225.57 157.981 226.488C157.981 227.882 157.502 228.982 156.545 229.789C155.595 230.59 154.276 230.99 152.59 230.99H150.022ZM150.022 228.617H152.639C153.414 228.617 154.003 228.435 154.406 228.07C154.817 227.706 155.022 227.185 155.022 226.508C155.022 225.811 154.817 225.248 154.406 224.818C153.996 224.389 153.43 224.167 152.707 224.154H150.022V228.617Z" fill="white"/>
<circle cx="151.29" cy="321.551" r="16.5551" fill="#D42B2B"/>
<path d="M150.022 324.99V330H147.092V315.781H152.639C153.707 315.781 154.644 315.977 155.451 316.367C156.265 316.758 156.89 317.315 157.326 318.037C157.763 318.753 157.981 319.571 157.981 320.489C157.981 321.882 157.502 322.982 156.545 323.789C155.595 324.59 154.276 324.99 152.59 324.99H150.022ZM150.022 322.617H152.639C153.414 322.617 154.003 322.435 154.406 322.071C154.817 321.706 155.022 321.185 155.022 320.508C155.022 319.811 154.817 319.248 154.406 318.819C153.996 318.389 153.43 318.168 152.707 318.155H150.022V322.617Z" fill="white"/>
<line x1="148.948" y1="400.89" x2="159.773" y2="382.425" stroke="white"/>
<path fill-rule="evenodd" clip-rule="evenodd" d="M173.207 341.978L194.992 357.557L186.598 382.662L159.625 382.599L151.349 357.455L173.207 341.978Z" fill="#22B674" stroke="#22B674"/>
<circle cx="151.285" cy="415.555" r="16.5551" fill="#D42B2B"/>
<path d="M150.017 418.758V423.767H147.087V409.549H152.634C153.702 409.549 154.639 409.744 155.447 410.135C156.261 410.525 156.886 411.082 157.322 411.805C157.758 412.521 157.976 413.338 157.976 414.256C157.976 415.649 157.498 416.749 156.54 417.557C155.59 418.357 154.272 418.758 152.585 418.758H150.017ZM150.017 416.385H152.634C153.409 416.385 153.998 416.202 154.402 415.838C154.812 415.473 155.017 414.952 155.017 414.275C155.017 413.579 154.812 413.016 154.402 412.586C153.992 412.156 153.425 411.935 152.703 411.922H150.017V416.385Z" fill="white"/>
<path d="M151.426 514H148.496V507.906H142.783V514H139.854V499.781H142.783V505.543H148.496V499.781H151.426V514ZM165.674 507.213C165.674 508.613 165.426 509.84 164.932 510.895C164.437 511.949 163.727 512.763 162.803 513.336C161.885 513.909 160.83 514.195 159.639 514.195C158.46 514.195 157.409 513.912 156.484 513.346C155.56 512.779 154.844 511.972 154.336 510.924C153.828 509.869 153.571 508.658 153.564 507.291V506.588C153.564 505.188 153.815 503.958 154.316 502.897C154.824 501.829 155.537 501.012 156.455 500.445C157.38 499.873 158.434 499.586 159.619 499.586C160.804 499.586 161.855 499.873 162.773 500.445C163.698 501.012 164.411 501.829 164.912 502.897C165.42 503.958 165.674 505.185 165.674 506.578V507.213ZM162.705 506.568C162.705 505.078 162.438 503.945 161.904 503.17C161.37 502.395 160.609 502.008 159.619 502.008C158.636 502.008 157.878 502.392 157.344 503.16C156.81 503.922 156.54 505.042 156.533 506.52V507.213C156.533 508.665 156.8 509.791 157.334 510.592C157.868 511.393 158.636 511.793 159.639 511.793C160.622 511.793 161.377 511.409 161.904 510.641C162.432 509.866 162.699 508.74 162.705 507.262V506.568Z" fill="white"/>
<path d="M175.961 59.0923C175.961 59.7922 175.838 60.4058 175.59 60.9331C175.343 61.4604 174.988 61.8674 174.526 62.1538C174.067 62.4403 173.539 62.5835 172.944 62.5835C172.354 62.5835 171.829 62.4419 171.367 62.1587C170.904 61.8755 170.546 61.4718 170.292 60.9478C170.038 60.4204 169.91 59.8149 169.907 59.1313V58.7798C169.907 58.0799 170.032 57.4647 170.283 56.9341C170.536 56.4002 170.893 55.9917 171.352 55.7085C171.814 55.422 172.341 55.2788 172.934 55.2788C173.526 55.2788 174.052 55.422 174.511 55.7085C174.973 55.9917 175.33 56.4002 175.58 56.9341C175.834 57.4647 175.961 58.0783 175.961 58.7749V59.0923ZM174.477 58.77C174.477 58.0246 174.343 57.4582 174.076 57.0708C173.81 56.6834 173.429 56.4897 172.934 56.4897C172.442 56.4897 172.063 56.6818 171.796 57.0659C171.529 57.4468 171.394 58.0067 171.391 58.7456V59.0923C171.391 59.8182 171.524 60.3813 171.791 60.7817C172.058 61.1821 172.442 61.3823 172.944 61.3823C173.435 61.3823 173.813 61.1903 174.076 60.8062C174.34 60.4188 174.474 59.8556 174.477 59.1167V58.77Z" fill="white"/>
<path d="M175.961 152.692C175.961 153.392 175.838 154.006 175.59 154.533C175.343 155.06 174.988 155.467 174.526 155.754C174.067 156.04 173.539 156.183 172.944 156.183C172.354 156.183 171.829 156.042 171.367 155.759C170.904 155.475 170.546 155.072 170.292 154.548C170.038 154.02 169.91 153.415 169.907 152.731V152.38C169.907 151.68 170.032 151.065 170.283 150.534C170.536 150 170.893 149.592 171.352 149.308C171.814 149.022 172.341 148.879 172.934 148.879C173.526 148.879 174.052 149.022 174.511 149.308C174.973 149.592 175.33 150 175.58 150.534C175.834 151.065 175.961 151.678 175.961 152.375V152.692ZM174.477 152.37C174.477 151.625 174.343 151.058 174.076 150.671C173.81 150.283 173.429 150.09 172.934 150.09C172.442 150.09 172.063 150.282 171.796 150.666C171.529 151.047 171.394 151.607 171.391 152.346V152.692C171.391 153.418 171.524 153.981 171.791 154.382C172.058 154.782 172.442 154.982 172.944 154.982C173.435 154.982 173.813 154.79 174.076 154.406C174.34 154.019 174.474 153.456 174.477 152.717V152.37Z" fill="white"/>
<path d="M175.961 246.292C175.961 246.992 175.838 247.606 175.59 248.133C175.343 248.66 174.988 249.067 174.526 249.354C174.067 249.64 173.539 249.783 172.944 249.783C172.354 249.783 171.829 249.642 171.367 249.359C170.904 249.075 170.546 248.672 170.292 248.148C170.038 247.62 169.91 247.015 169.907 246.331V245.98C169.907 245.28 170.032 244.665 170.283 244.134C170.536 243.6 170.893 243.192 171.352 242.908C171.814 242.622 172.341 242.479 172.934 242.479C173.526 242.479 174.052 242.622 174.511 242.908C174.973 243.192 175.33 243.6 175.58 244.134C175.834 244.665 175.961 245.278 175.961 245.975V246.292ZM174.477 245.97C174.477 245.225 174.343 244.658 174.076 244.271C173.81 243.883 173.429 243.69 172.934 243.69C172.442 243.69 172.063 243.882 171.796 244.266C171.529 244.647 171.394 245.207 171.391 245.946V246.292C171.391 247.018 171.524 247.581 171.791 247.982C172.058 248.382 172.442 248.582 172.944 248.582C173.435 248.582 173.813 248.39 174.076 248.006C174.34 247.619 174.474 247.056 174.477 246.317V245.97Z" fill="white"/>
<path d="M175.961 341.166C175.961 341.866 175.838 342.479 175.59 343.007C175.343 343.534 174.988 343.941 174.526 344.227C174.067 344.514 173.539 344.657 172.944 344.657C172.354 344.657 171.829 344.515 171.367 344.232C170.904 343.949 170.546 343.545 170.292 343.021C170.038 342.494 169.91 341.888 169.907 341.205V340.853C169.907 340.153 170.032 339.538 170.283 339.008C170.536 338.474 170.893 338.065 171.352 337.782C171.814 337.496 172.341 337.352 172.934 337.352C173.526 337.352 174.052 337.496 174.511 337.782C174.973 338.065 175.33 338.474 175.58 339.008C175.834 339.538 175.961 340.152 175.961 340.848V341.166ZM174.477 340.844C174.477 340.098 174.343 339.532 174.076 339.144C173.81 338.757 173.429 338.563 172.934 338.563C172.442 338.563 172.063 338.755 171.796 339.139C171.529 339.52 171.394 340.08 171.391 340.819V341.166C171.391 341.892 171.524 342.455 171.791 342.855C172.058 343.256 172.442 343.456 172.944 343.456C173.435 343.456 173.813 343.264 174.076 342.88C174.34 342.492 174.474 341.929 174.477 341.19V340.844Z" fill="white"/>
<path d="M175.961 436.039C175.961 436.739 175.838 437.353 175.59 437.88C175.343 438.407 174.988 438.814 174.526 439.101C174.067 439.387 173.539 439.53 172.944 439.53C172.354 439.53 171.829 439.389 171.367 439.106C170.904 438.822 170.546 438.419 170.292 437.895C170.038 437.367 169.91 436.762 169.907 436.078V435.727C169.907 435.027 170.032 434.412 170.283 433.881C170.536 433.347 170.893 432.939 171.352 432.655C171.814 432.369 172.341 432.226 172.934 432.226C173.526 432.226 174.052 432.369 174.511 432.655C174.973 432.939 175.33 433.347 175.58 433.881C175.834 434.412 175.961 435.025 175.961 435.722V436.039ZM174.477 435.717C174.477 434.971 174.343 434.405 174.076 434.018C173.81 433.63 173.429 433.437 172.934 433.437C172.442 433.437 172.063 433.629 171.796 434.013C171.529 434.394 171.394 434.954 171.391 435.693V436.039C171.391 436.765 171.524 437.328 171.791 437.729C172.058 438.129 172.442 438.329 172.944 438.329C173.435 438.329 173.813 438.137 174.076 437.753C174.34 437.366 174.474 436.803 174.477 436.064V435.717Z" fill="white"/>
<line x1="364.994" y1="107.5" x2="334.027" y2="107.153" stroke="white"/>
<line x1="364.596" y1="484.1" x2="330.849" y2="484.1" stroke="white"/>
<line x1="365.233" y1="389.863" x2="331.486" y2="389.863" stroke="white"/>
<line x1="365.233" y1="295.627" x2="331.486" y2="295.627" stroke="white"/>
<line x1="365.233" y1="201.39" x2="331.486" y2="201.39" stroke="white"/>
<circle cx="330.849" cy="91.3715" r="16.5551" transform="rotate(-180 330.849 91.3715)" fill="#62F2A6"/>
<path d="M324.314 94.0729H328.669V82.2272H331.599V94.0729H335.896V96.4459H324.314V94.0729Z" fill="white"/>
<circle cx="331.486" cy="468.318" r="16.5551" transform="rotate(-180 331.486 468.318)" fill="#F1E023"/>
<path d="M328.315 465.157H333.452L334.428 462.227H337.544L332.251 476.446H329.536L324.213 462.227H327.329L328.315 465.157ZM332.661 467.53H329.106L330.893 472.852L332.661 467.53Z" fill="white"/>
<circle cx="330.849" cy="185.608" r="16.5551" transform="rotate(-180 330.849 185.608)" fill="#E8A62F"/>
<path d="M323.995 183.963C324.105 182.433 324.672 181.229 325.694 180.35C326.71 179.471 328.051 179.032 329.717 179.032C331.54 179.032 332.976 179.644 334.024 180.868C335.066 182.098 335.587 183.784 335.587 185.926V186.795C335.587 188.163 335.346 189.367 334.864 190.409C334.382 191.45 333.695 192.248 332.803 192.801C331.905 193.361 330.863 193.641 329.678 193.641C328.038 193.641 326.716 193.202 325.713 192.323C324.711 191.444 324.131 190.21 323.975 188.622H326.905C326.977 189.54 327.234 190.204 327.676 190.614C328.113 191.03 328.78 191.239 329.678 191.239C330.655 191.239 331.387 190.887 331.876 190.184C332.357 189.487 332.605 188.403 332.618 186.932V185.858C332.618 184.321 332.387 183.198 331.924 182.489C331.456 181.779 330.72 181.424 329.717 181.424C328.812 181.424 328.139 181.629 327.696 182.04C327.247 182.456 326.99 183.097 326.924 183.963H323.995Z" fill="white"/>
<circle cx="330.849" cy="279.845" r="16.5551" transform="rotate(-180 330.849 279.845)" fill="#C6344A"/>
<path d="M324.18 273.024C324.708 272.392 325.453 271.901 326.417 271.549C327.38 271.204 328.448 271.032 329.62 271.032C330.85 271.032 331.931 271.299 332.862 271.832C333.786 272.373 334.503 273.154 335.01 274.176C335.512 275.198 335.769 276.399 335.782 277.78V278.746C335.782 280.166 335.544 281.393 335.069 282.428C334.587 283.47 333.897 284.264 332.999 284.811C332.094 285.364 331.036 285.641 329.825 285.641C328.139 285.641 326.82 285.237 325.87 284.43C324.919 283.629 324.356 282.461 324.18 280.924H327.032C327.162 281.738 327.452 282.334 327.901 282.711C328.344 283.089 328.956 283.278 329.737 283.278C330.733 283.278 331.491 282.903 332.012 282.155C332.533 281.406 332.797 280.293 332.803 278.815V277.907C332.803 276.416 332.52 275.289 331.954 274.528C331.387 273.766 330.557 273.385 329.463 273.385C328.363 273.385 327.579 273.62 327.11 274.088V276.539H329.776V278.698H324.18V273.024Z" fill="white"/>
<circle cx="330.849" cy="373.445" r="16.5551" transform="rotate(-180 330.849 373.445)" fill="#62F2A6"/>
<path d="M325.314 376.073H329.669V364.227H332.599V376.073H336.896V378.446H325.314V376.073Z" fill="white"/>
</g>
<g style="mix-blend-mode:hard-light" opacity="0.35">
<rect x="438.5" y="552.5" width="81" height="552" transform="rotate(-180 438.5 552.5)" fill="#A8EBE7" stroke="#79CCDB"/>
<line x1="409.072" y1="107.182" x2="411.619" y2="128.831" stroke="white"/>
<path fill-rule="evenodd" clip-rule="evenodd" d="M387.295 123.108L365.51 107.529L373.904 82.4238L400.877 82.4869L409.153 107.631L387.295 123.108Z" fill="#22B674" stroke="#22B674"/>
<line x1="409.072" y1="201.419" x2="411.619" y2="223.068" stroke="white"/>
<line x1="411.554" y1="441.143" x2="400.729" y2="459.608" stroke="white"/>
<line x1="409.072" y1="484.129" x2="411.619" y2="505.778" stroke="white"/>
<path fill-rule="evenodd" clip-rule="evenodd" d="M387.295 500.055L365.51 484.476L373.904 459.371L400.877 459.434L409.153 484.578L387.295 500.055Z" fill="#22B674" stroke="#22B674"/>
<circle cx="409.212" cy="520.482" r="16.5551" transform="rotate(-180 409.212 520.482)" fill="#D42B2B"/>
<path d="M410.48 517.332V512.322H413.41V526.541H407.863C406.795 526.541 405.858 526.346 405.051 525.955C404.237 525.565 403.612 525.008 403.176 524.285C402.739 523.569 402.521 522.752 402.521 521.834C402.521 520.441 403 519.341 403.957 518.533C404.907 517.733 406.226 517.332 407.912 517.332H410.48ZM410.48 519.705H407.863C407.088 519.705 406.499 519.887 406.096 520.252C405.685 520.617 405.48 521.137 405.48 521.815C405.48 522.511 405.685 523.074 406.096 523.504C406.506 523.934 407.072 524.155 407.795 524.168H410.48V519.705Z" fill="white"/>
<line x1="411.554" y1="64.1957" x2="400.729" y2="82.661" stroke="white"/>
<circle cx="409.212" cy="143.535" r="16.5551" transform="rotate(-180 409.212 143.535)" fill="#D42B2B"/>
<circle cx="409.212" cy="426.245" r="16.5551" transform="rotate(-180 409.212 426.245)" fill="#D42B2B"/>
<line x1="411.554" y1="346.906" x2="400.729" y2="365.371" stroke="white"/>
<line x1="409.072" y1="389.893" x2="411.619" y2="411.541" stroke="white"/>
<path fill-rule="evenodd" clip-rule="evenodd" d="M387.295 405.818L365.51 390.239L373.904 365.134L400.877 365.197L409.153 390.341L387.295 405.818Z" fill="#22B674" stroke="#22B674"/>
<circle cx="409.212" cy="426.245" r="16.5551" transform="rotate(-180 409.212 426.245)" fill="#D42B2B"/>
<path d="M411.48 422.332V417.322H414.41V431.541H408.863C407.795 431.541 406.858 431.346 406.051 430.955C405.237 430.565 404.612 430.008 404.176 429.285C403.739 428.569 403.521 427.752 403.521 426.834C403.521 425.441 404 424.341 404.957 423.533C405.907 422.733 407.226 422.332 408.912 422.332H411.48ZM411.48 424.705H408.863C408.088 424.705 407.499 424.887 407.096 425.252C406.685 425.617 406.48 426.137 406.48 426.815C406.48 427.511 406.685 428.074 407.096 428.504C407.506 428.934 408.072 429.155 408.795 429.168H411.48V424.705Z" fill="white"/>
<line x1="411.554" y1="252.669" x2="400.729" y2="271.134" stroke="white"/>
<line x1="409.072" y1="295.656" x2="411.619" y2="317.305" stroke="white"/>
<path fill-rule="evenodd" clip-rule="evenodd" d="M387.295 311.582L365.51 296.003L373.904 270.897L400.877 270.96L409.153 296.105L387.295 311.582Z" fill="#22B674" stroke="#22B674"/>
<circle cx="409.212" cy="332.008" r="16.5551" transform="rotate(-180 409.212 332.008)" fill="#D42B2B"/>
<path d="M410.48 328.332V323.323H413.41V337.541H407.863C406.795 337.541 405.858 337.346 405.051 336.955C404.237 336.565 403.612 336.008 403.176 335.285C402.739 334.569 402.521 333.752 402.521 332.834C402.521 331.441 403 330.341 403.957 329.533C404.907 328.733 406.226 328.332 407.912 328.332H410.48ZM410.48 330.705H407.863C407.088 330.705 406.499 330.888 406.096 331.252C405.685 331.617 405.48 332.138 405.48 332.815C405.48 333.511 405.685 334.074 406.096 334.504C406.506 334.934 407.072 335.155 407.795 335.168H410.48V330.705Z" fill="white"/>
<circle cx="409.212" cy="237.771" r="16.5551" transform="rotate(-180 409.212 237.771)" fill="#D42B2B"/>
<path d="M410.48 234.332V229.322H413.41V243.541H407.863C406.795 243.541 405.858 243.346 405.051 242.955C404.237 242.564 403.612 242.008 403.176 241.285C402.739 240.569 402.521 239.752 402.521 238.834C402.521 237.441 403 236.34 403.957 235.533C404.907 234.732 406.226 234.332 407.912 234.332H410.48ZM410.48 236.705H407.863C407.088 236.705 406.499 236.887 406.096 237.252C405.685 237.617 405.48 238.137 405.48 238.814C405.48 239.511 405.685 240.074 406.096 240.504C406.506 240.934 407.072 241.155 407.795 241.168H410.48V236.705Z" fill="white"/>
<line x1="411.554" y1="158.432" x2="400.729" y2="176.898" stroke="white"/>
<path fill-rule="evenodd" clip-rule="evenodd" d="M387.295 217.345L365.51 201.766L373.904 176.66L400.877 176.724L409.153 201.868L387.295 217.345Z" fill="#22B674" stroke="#22B674"/>
<circle cx="409.217" cy="143.767" r="16.5551" transform="rotate(-180 409.217 143.767)" fill="#D42B2B"/>
<path d="M410.485 140.565V135.555H413.415V149.774H407.868C406.8 149.774 405.863 149.578 405.055 149.188C404.242 148.797 403.617 148.241 403.18 147.518C402.744 146.802 402.526 145.985 402.526 145.067C402.526 143.674 403.005 142.573 403.962 141.766C404.912 140.965 406.23 140.565 407.917 140.565H410.485ZM410.485 142.938H407.868C407.093 142.938 406.504 143.12 406.1 143.485C405.69 143.849 405.485 144.37 405.485 145.047C405.485 145.744 405.69 146.307 406.1 146.737C406.51 147.166 407.077 147.388 407.799 147.401H410.485V142.938Z" fill="white"/>
<path d="M409.076 45.3224H412.006V51.4161H417.719V45.3224H420.649V59.5411H417.719V53.7794H412.006V59.5411H409.076V45.3224ZM394.828 52.1095C394.828 50.7098 395.076 49.4825 395.57 48.4279C396.065 47.3732 396.775 46.5594 397.699 45.9865C398.617 45.4135 399.672 45.1271 400.863 45.1271C402.042 45.1271 403.093 45.4103 404.018 45.9767C404.942 46.5431 405.658 47.3504 406.166 48.3986C406.674 49.4532 406.931 50.6642 406.938 52.0314V52.7345C406.938 54.1342 406.687 55.3647 406.186 56.4259C405.678 57.4936 404.965 58.3107 404.047 58.8771C403.122 59.45 402.068 59.7365 400.883 59.7365C399.698 59.7365 398.647 59.45 397.729 58.8771C396.804 58.3107 396.091 57.4936 395.59 56.4259C395.082 55.3647 394.828 54.1375 394.828 52.7443V52.1095ZM397.797 52.754C397.797 54.2449 398.064 55.3777 398.598 56.1525C399.132 56.9272 399.893 57.3146 400.883 57.3146C401.866 57.3146 402.624 56.9305 403.158 56.1622C403.692 55.4005 403.962 54.2807 403.969 52.8029V52.1095C403.969 50.6577 403.702 49.5314 403.168 48.7306C402.634 47.9298 401.866 47.5294 400.863 47.5294C399.88 47.5294 399.125 47.9135 398.598 48.6818C398.07 49.4565 397.803 50.5828 397.797 52.0607V52.754Z" fill="white"/>
<path d="M384.541 500.23C384.541 499.53 384.664 498.917 384.912 498.389C385.159 497.862 385.514 497.455 385.976 497.169C386.435 496.882 386.963 496.739 387.558 496.739C388.148 496.739 388.673 496.881 389.136 497.164C389.598 497.447 389.956 497.851 390.21 498.375C390.464 498.902 390.592 499.508 390.595 500.191V500.543C390.595 501.243 390.47 501.858 390.219 502.388C389.966 502.922 389.609 503.331 389.15 503.614C388.688 503.9 388.161 504.044 387.568 504.044C386.976 504.044 386.45 503.9 385.991 503.614C385.529 503.331 385.172 502.922 384.922 502.388C384.668 501.858 384.541 501.244 384.541 500.548V500.23ZM386.025 500.552C386.025 501.298 386.159 501.864 386.426 502.252C386.692 502.639 387.073 502.833 387.568 502.833C388.06 502.833 388.439 502.641 388.706 502.257C388.973 501.876 389.108 501.316 389.111 500.577V500.23C389.111 499.504 388.978 498.941 388.711 498.541C388.444 498.14 388.06 497.94 387.558 497.94C387.067 497.94 386.689 498.132 386.426 498.516C386.162 498.904 386.028 499.467 386.025 500.206V500.552Z" fill="white"/>
<path d="M384.541 406.63C384.541 405.93 384.664 405.317 384.912 404.789C385.159 404.262 385.514 403.855 385.976 403.569C386.435 403.282 386.963 403.139 387.558 403.139C388.148 403.139 388.673 403.281 389.136 403.564C389.598 403.847 389.956 404.251 390.21 404.775C390.464 405.302 390.592 405.908 390.595 406.591V406.943C390.595 407.643 390.47 408.258 390.219 408.788C389.966 409.322 389.609 409.731 389.15 410.014C388.688 410.3 388.161 410.444 387.568 410.444C386.976 410.444 386.45 410.3 385.991 410.014C385.529 409.731 385.172 409.322 384.922 408.788C384.668 408.258 384.541 407.644 384.541 406.948V406.63ZM386.025 406.953C386.025 407.698 386.159 408.264 386.426 408.652C386.692 409.039 387.073 409.233 387.568 409.233C388.06 409.233 388.439 409.041 388.706 408.657C388.973 408.276 389.108 407.716 389.111 406.977V406.63C389.111 405.904 388.978 405.341 388.711 404.941C388.444 404.54 388.06 404.34 387.558 404.34C387.067 404.34 386.689 404.532 386.426 404.916C386.162 405.304 386.028 405.867 386.025 406.606V406.953Z" fill="white"/>
<path d="M384.541 313.03C384.541 312.33 384.664 311.717 384.912 311.189C385.159 310.662 385.514 310.255 385.976 309.969C386.435 309.682 386.963 309.539 387.558 309.539C388.148 309.539 388.673 309.681 389.136 309.964C389.598 310.247 389.956 310.651 390.21 311.175C390.464 311.702 390.592 312.308 390.595 312.991V313.343C390.595 314.043 390.47 314.658 390.219 315.188C389.966 315.722 389.609 316.131 389.15 316.414C388.688 316.701 388.161 316.844 387.568 316.844C386.976 316.844 386.45 316.701 385.991 316.414C385.529 316.131 385.172 315.722 384.922 315.188C384.668 314.658 384.541 314.044 384.541 313.348V313.03ZM386.025 313.353C386.025 314.098 386.159 314.664 386.426 315.052C386.692 315.439 387.073 315.633 387.568 315.633C388.06 315.633 388.439 315.441 388.706 315.057C388.973 314.676 389.108 314.116 389.111 313.377V313.03C389.111 312.304 388.978 311.741 388.711 311.341C388.444 310.94 388.06 310.74 387.558 310.74C387.067 310.74 386.689 310.932 386.426 311.316C386.162 311.704 386.028 312.267 386.025 313.006V313.353Z" fill="white"/>
<path d="M384.541 218.157C384.541 217.457 384.664 216.843 384.912 216.316C385.159 215.789 385.514 215.382 385.976 215.095C386.435 214.809 386.963 214.666 387.558 214.666C388.148 214.666 388.673 214.807 389.136 215.09C389.598 215.374 389.956 215.777 390.21 216.301C390.464 216.829 390.592 217.434 390.595 218.118V218.469C390.595 219.169 390.47 219.784 390.219 220.315C389.966 220.849 389.609 221.257 389.15 221.541C388.688 221.827 388.161 221.97 387.568 221.97C386.976 221.97 386.45 221.827 385.991 221.541C385.529 221.257 385.172 220.849 384.922 220.315C384.668 219.784 384.541 219.171 384.541 218.474V218.157ZM386.025 218.479C386.025 219.224 386.159 219.791 386.426 220.178C386.692 220.566 387.073 220.759 387.568 220.759C388.06 220.759 388.439 220.567 388.706 220.183C388.973 219.802 389.108 219.242 389.111 218.503V218.157C389.111 217.431 388.978 216.868 388.711 216.467C388.444 216.067 388.06 215.867 387.558 215.867C387.067 215.867 386.689 216.059 386.426 216.443C386.162 216.83 386.028 217.393 386.025 218.132V218.479Z" fill="white"/>
<path d="M384.541 123.283C384.541 122.583 384.664 121.97 384.912 121.443C385.159 120.915 385.514 120.508 385.976 120.222C386.435 119.935 386.963 119.792 387.558 119.792C388.148 119.792 388.673 119.934 389.136 120.217C389.598 120.5 389.956 120.904 390.21 121.428C390.464 121.955 390.592 122.561 390.595 123.244V123.596C390.595 124.296 390.47 124.911 390.219 125.442C389.966 125.975 389.609 126.384 389.15 126.667C388.688 126.954 388.161 127.097 387.568 127.097C386.976 127.097 386.45 126.954 385.991 126.667C385.529 126.384 385.172 125.975 384.922 125.442C384.668 124.911 384.541 124.297 384.541 123.601V123.283ZM386.025 123.606C386.025 124.351 386.159 124.917 386.426 125.305C386.692 125.692 387.073 125.886 387.568 125.886C388.06 125.886 388.439 125.694 388.706 125.31C388.973 124.929 389.108 124.369 389.111 123.63V123.283C389.111 122.557 388.978 121.994 388.711 121.594C388.444 121.193 388.06 120.993 387.558 120.993C387.067 120.993 386.689 121.185 386.426 121.569C386.162 121.957 386.028 122.52 386.025 123.259V123.606Z" fill="white"/>
<rect x="122.5" y="0.5" width="80.502" height="552.322" fill="#A8EBE7" stroke="#79CCDB"/>
<line x1="232.792" y1="84.8225" x2="338.49" y2="84.8225" stroke="white"/>
<line x1="232.792" y1="95.647" x2="338.49" y2="95.647" stroke="white"/>
<line x1="235.976" y1="367.533" x2="341.673" y2="367.533" stroke="white"/>
<line x1="235.976" y1="378.357" x2="341.673" y2="378.357" stroke="white"/>
<line x1="236.612" y1="462.406" x2="342.31" y2="462.406" stroke="white"/>
<line x1="236.612" y1="473.231" x2="342.31" y2="473.231" stroke="white"/>
<line x1="244.89" y1="184.472" x2="322.571" y2="184.472" stroke="white"/>
<line x1="220.694" y1="179.059" x2="326.392" y2="179.059" stroke="white"/>
<line x1="220.694" y1="189.884" x2="326.392" y2="189.884" stroke="white"/>
<line x1="244.89" y1="278.708" x2="322.571" y2="278.708" stroke="white"/>
<line x1="220.694" y1="273.296" x2="326.392" y2="273.296" stroke="white"/>
<line x1="220.694" y1="284.12" x2="326.392" y2="284.12" stroke="white"/>
<line x1="195.225" y1="74.6348" x2="228.971" y2="74.6348" stroke="white"/>
<line x1="194.588" y1="168.872" x2="228.335" y2="168.872" stroke="white"/>
<line x1="194.588" y1="263.108" x2="228.335" y2="263.108" stroke="white"/>
<line x1="194.588" y1="357.345" x2="228.335" y2="357.345" stroke="white"/>
<line x1="192.041" y1="451.582" x2="225.788" y2="451.582" stroke="white"/>
<circle cx="228.971" cy="467.363" r="16.5551" fill="#62F2A6"/>
<path d="M234.876 463.155H230.521V475H227.591V463.155H223.294V460.781H234.876V463.155Z" fill="white"/>
<circle cx="228.335" cy="90.4164" r="16.5551" fill="#F1E023"/>
<path d="M231.452 95.0703H226.315L225.338 98H222.223L227.516 83.7812H230.231L235.553 98H232.438L231.452 95.0703ZM227.106 92.6973H230.661L228.874 87.375L227.106 92.6973Z" fill="white"/>
<circle cx="228.971" cy="373.127" r="16.5551" fill="#F1E023"/>
<path d="M231.452 377.07H226.315L225.338 380H222.223L227.516 365.781H230.231L235.553 380H232.438L231.452 377.07ZM227.106 374.697H230.661L228.874 369.375L227.106 374.697Z" fill="white"/>
<circle cx="228.971" cy="184.972" r="16.5551" fill="#C6344A"/>
<path d="M234.587 190.203C234.059 190.835 233.314 191.326 232.35 191.678C231.387 192.023 230.319 192.196 229.147 192.196C227.917 192.196 226.836 191.929 225.905 191.395C224.98 190.854 224.264 190.073 223.756 189.051C223.255 188.029 222.998 186.828 222.985 185.448V184.481C222.985 183.061 223.223 181.834 223.698 180.799C224.18 179.757 224.87 178.963 225.768 178.416C226.673 177.863 227.731 177.586 228.942 177.586C230.628 177.586 231.947 177.99 232.897 178.797C233.848 179.598 234.411 180.767 234.587 182.303H231.735C231.605 181.489 231.315 180.893 230.866 180.516C230.423 180.138 229.811 179.949 229.03 179.949C228.034 179.949 227.275 180.324 226.755 181.073C226.234 181.821 225.97 182.934 225.963 184.412V185.321C225.963 186.811 226.247 187.938 226.813 188.699C227.38 189.461 228.21 189.842 229.303 189.842C230.404 189.842 231.188 189.608 231.657 189.139V186.688H228.991V184.53H234.587V190.203Z" fill="white"/>
<circle cx="228.971" cy="278.89" r="16.5551" fill="#E8A62F"/>
<path d="M234.772 281.264C234.661 282.794 234.095 283.998 233.073 284.877C232.057 285.756 230.716 286.195 229.049 286.195C227.227 286.195 225.791 285.583 224.743 284.359C223.701 283.129 223.18 281.443 223.18 279.301V278.432C223.18 277.065 223.421 275.86 223.903 274.818C224.385 273.777 225.072 272.979 225.963 272.426C226.862 271.866 227.904 271.586 229.088 271.586C230.729 271.586 232.051 272.026 233.053 272.904C234.056 273.783 234.635 275.017 234.792 276.606H231.862C231.79 275.688 231.533 275.024 231.09 274.613C230.654 274.197 229.987 273.988 229.088 273.988C228.112 273.988 227.38 274.34 226.891 275.043C226.409 275.74 226.162 276.824 226.149 278.295V279.369C226.149 280.906 226.38 282.029 226.842 282.738C227.311 283.448 228.047 283.803 229.049 283.803C229.954 283.803 230.628 283.598 231.071 283.188C231.52 282.771 231.777 282.13 231.842 281.264H234.772Z" fill="white"/>
<line x1="151.43" y1="357.903" x2="148.883" y2="336.254" stroke="white"/>
<line x1="148.948" y1="118.18" x2="159.773" y2="99.7146" stroke="white"/>
<line x1="151.43" y1="75.1932" x2="148.883" y2="53.5442" stroke="white"/>
<path fill-rule="evenodd" clip-rule="evenodd" d="M173.207 59.2676L194.992 74.8466L186.598 99.9518L159.625 99.8888L151.349 74.7445L173.207 59.2676Z" fill="#22B674" stroke="#22B674"/>
<circle cx="151.29" cy="38.8409" r="16.5551" fill="#D42B2B"/>
<path d="M150.022 41.9904V47.0001H147.092V32.7814H152.639C153.707 32.7814 154.644 32.9767 155.451 33.3673C156.265 33.7579 156.89 34.3146 157.326 35.0372C157.763 35.7534 157.981 36.5704 157.981 37.4884C157.981 38.8816 157.502 39.9819 156.545 40.7892C155.595 41.59 154.276 41.9904 152.59 41.9904H150.022ZM150.022 39.6173H152.639C153.414 39.6173 154.003 39.435 154.406 39.0704C154.817 38.7059 155.022 38.185 155.022 37.5079C155.022 36.8113 154.817 36.2482 154.406 35.8185C153.996 35.3888 153.43 35.1674 152.707 35.1544H150.022V39.6173Z" fill="white"/>
<line x1="148.948" y1="495.127" x2="159.773" y2="476.661" stroke="white"/>
<line x1="151.43" y1="452.14" x2="148.883" y2="430.491" stroke="white"/>
<path fill-rule="evenodd" clip-rule="evenodd" d="M173.207 436.214L194.992 451.793L186.598 476.899L159.625 476.836L151.349 451.691L173.207 436.214Z" fill="#22B674" stroke="#22B674"/>
<circle cx="151.29" cy="133.078" r="16.5551" fill="#D42B2B"/>
<line x1="148.948" y1="212.417" x2="159.773" y2="193.951" stroke="white"/>
<line x1="151.43" y1="169.43" x2="148.883" y2="147.781" stroke="white"/>
<path fill-rule="evenodd" clip-rule="evenodd" d="M173.207 153.504L194.992 169.083L186.598 194.189L159.625 194.125L151.349 168.981L173.207 153.504Z" fill="#22B674" stroke="#22B674"/>
<circle cx="151.29" cy="133.078" r="16.5551" fill="#D42B2B"/>
<path d="M149.022 136.99V142H146.092V127.781H151.639C152.707 127.781 153.644 127.977 154.451 128.367C155.265 128.758 155.89 129.315 156.326 130.037C156.763 130.753 156.981 131.57 156.981 132.488C156.981 133.882 156.502 134.982 155.545 135.789C154.595 136.59 153.276 136.99 151.59 136.99H149.022ZM149.022 134.617H151.639C152.414 134.617 153.003 134.435 153.406 134.07C153.817 133.706 154.022 133.185 154.022 132.508C154.022 131.811 153.817 131.248 153.406 130.818C152.996 130.389 152.43 130.167 151.707 130.154H149.022V134.617Z" fill="white"/>
<line x1="148.948" y1="306.653" x2="159.773" y2="288.188" stroke="white"/>
<line x1="151.43" y1="263.667" x2="148.883" y2="242.018" stroke="white"/>
<path fill-rule="evenodd" clip-rule="evenodd" d="M173.207 247.741L194.992 263.32L186.598 288.425L159.625 288.362L151.349 263.218L173.207 247.741Z" fill="#22B674" stroke="#22B674"/>
<circle cx="151.29" cy="227.314" r="16.5551" fill="#D42B2B"/>
<path d="M150.022 230.99V236H147.092V221.781H152.639C153.707 221.781 154.644 221.977 155.451 222.367C156.265 222.758 156.89 223.314 157.326 224.037C157.763 224.753 157.981 225.57 157.981 226.488C157.981 227.882 157.502 228.982 156.545 229.789C155.595 230.59 154.276 230.99 152.59 230.99H150.022ZM150.022 228.617H152.639C153.414 228.617 154.003 228.435 154.406 228.07C154.817 227.706 155.022 227.185 155.022 226.508C155.022 225.811 154.817 225.248 154.406 224.818C153.996 224.389 153.43 224.167 152.707 224.154H150.022V228.617Z" fill="white"/>
<circle cx="151.29" cy="321.551" r="16.5551" fill="#D42B2B"/>
<path d="M150.022 324.99V330H147.092V315.781H152.639C153.707 315.781 154.644 315.977 155.451 316.367C156.265 316.758 156.89 317.315 157.326 318.037C157.763 318.753 157.981 319.571 157.981 320.489C157.981 321.882 157.502 322.982 156.545 323.789C155.595 324.59 154.276 324.99 152.59 324.99H150.022ZM150.022 322.617H152.639C153.414 322.617 154.003 322.435 154.406 322.071C154.817 321.706 155.022 321.185 155.022 320.508C155.022 319.811 154.817 319.248 154.406 318.819C153.996 318.389 153.43 318.168 152.707 318.155H150.022V322.617Z" fill="white"/>
<line x1="148.948" y1="400.89" x2="159.773" y2="382.425" stroke="white"/>
<path fill-rule="evenodd" clip-rule="evenodd" d="M173.207 341.978L194.992 357.557L186.598 382.662L159.625 382.599L151.349 357.455L173.207 341.978Z" fill="#22B674" stroke="#22B674"/>
<circle cx="151.285" cy="415.555" r="16.5551" fill="#D42B2B"/>
<path d="M150.017 418.758V423.767H147.087V409.549H152.634C153.702 409.549 154.639 409.744 155.447 410.135C156.261 410.525 156.886 411.082 157.322 411.805C157.758 412.521 157.976 413.338 157.976 414.256C157.976 415.649 157.498 416.749 156.54 417.557C155.59 418.357 154.272 418.758 152.585 418.758H150.017ZM150.017 416.385H152.634C153.409 416.385 153.998 416.202 154.402 415.838C154.812 415.473 155.017 414.952 155.017 414.275C155.017 413.579 154.812 413.016 154.402 412.586C153.992 412.156 153.425 411.935 152.703 411.922H150.017V416.385Z" fill="white"/>
<path d="M151.426 514H148.496V507.906H142.783V514H139.854V499.781H142.783V505.543H148.496V499.781H151.426V514ZM165.674 507.213C165.674 508.613 165.426 509.84 164.932 510.895C164.437 511.949 163.727 512.763 162.803 513.336C161.885 513.909 160.83 514.195 159.639 514.195C158.46 514.195 157.409 513.912 156.484 513.346C155.56 512.779 154.844 511.972 154.336 510.924C153.828 509.869 153.571 508.658 153.564 507.291V506.588C153.564 505.188 153.815 503.958 154.316 502.897C154.824 501.829 155.537 501.012 156.455 500.445C157.38 499.873 158.434 499.586 159.619 499.586C160.804 499.586 161.855 499.873 162.773 500.445C163.698 501.012 164.411 501.829 164.912 502.897C165.42 503.958 165.674 505.185 165.674 506.578V507.213ZM162.705 506.568C162.705 505.078 162.438 503.945 161.904 503.17C161.37 502.395 160.609 502.008 159.619 502.008C158.636 502.008 157.878 502.392 157.344 503.16C156.81 503.922 156.54 505.042 156.533 506.52V507.213C156.533 508.665 156.8 509.791 157.334 510.592C157.868 511.393 158.636 511.793 159.639 511.793C160.622 511.793 161.377 511.409 161.904 510.641C162.432 509.866 162.699 508.74 162.705 507.262V506.568Z" fill="white"/>
<path d="M175.961 59.0923C175.961 59.7922 175.838 60.4058 175.59 60.9331C175.343 61.4604 174.988 61.8674 174.526 62.1538C174.067 62.4403 173.539 62.5835 172.944 62.5835C172.354 62.5835 171.829 62.4419 171.367 62.1587C170.904 61.8755 170.546 61.4718 170.292 60.9478C170.038 60.4204 169.91 59.8149 169.907 59.1313V58.7798C169.907 58.0799 170.032 57.4647 170.283 56.9341C170.536 56.4002 170.893 55.9917 171.352 55.7085C171.814 55.422 172.341 55.2788 172.934 55.2788C173.526 55.2788 174.052 55.422 174.511 55.7085C174.973 55.9917 175.33 56.4002 175.58 56.9341C175.834 57.4647 175.961 58.0783 175.961 58.7749V59.0923ZM174.477 58.77C174.477 58.0246 174.343 57.4582 174.076 57.0708C173.81 56.6834 173.429 56.4897 172.934 56.4897C172.442 56.4897 172.063 56.6818 171.796 57.0659C171.529 57.4468 171.394 58.0067 171.391 58.7456V59.0923C171.391 59.8182 171.524 60.3813 171.791 60.7817C172.058 61.1821 172.442 61.3823 172.944 61.3823C173.435 61.3823 173.813 61.1903 174.076 60.8062C174.34 60.4188 174.474 59.8556 174.477 59.1167V58.77Z" fill="white"/>
<path d="M175.961 152.692C175.961 153.392 175.838 154.006 175.59 154.533C175.343 155.06 174.988 155.467 174.526 155.754C174.067 156.04 173.539 156.183 172.944 156.183C172.354 156.183 171.829 156.042 171.367 155.759C170.904 155.475 170.546 155.072 170.292 154.548C170.038 154.02 169.91 153.415 169.907 152.731V152.38C169.907 151.68 170.032 151.065 170.283 150.534C170.536 150 170.893 149.592 171.352 149.308C171.814 149.022 172.341 148.879 172.934 148.879C173.526 148.879 174.052 149.022 174.511 149.308C174.973 149.592 175.33 150 175.58 150.534C175.834 151.065 175.961 151.678 175.961 152.375V152.692ZM174.477 152.37C174.477 151.625 174.343 151.058 174.076 150.671C173.81 150.283 173.429 150.09 172.934 150.09C172.442 150.09 172.063 150.282 171.796 150.666C171.529 151.047 171.394 151.607 171.391 152.346V152.692C171.391 153.418 171.524 153.981 171.791 154.382C172.058 154.782 172.442 154.982 172.944 154.982C173.435 154.982 173.813 154.79 174.076 154.406C174.34 154.019 174.474 153.456 174.477 152.717V152.37Z" fill="white"/>
<path d="M175.961 246.292C175.961 246.992 175.838 247.606 175.59 248.133C175.343 248.66 174.988 249.067 174.526 249.354C174.067 249.64 173.539 249.783 172.944 249.783C172.354 249.783 171.829 249.642 171.367 249.359C170.904 249.075 170.546 248.672 170.292 248.148C170.038 247.62 169.91 247.015 169.907 246.331V245.98C169.907 245.28 170.032 244.665 170.283 244.134C170.536 243.6 170.893 243.192 171.352 242.908C171.814 242.622 172.341 242.479 172.934 242.479C173.526 242.479 174.052 242.622 174.511 242.908C174.973 243.192 175.33 243.6 175.58 244.134C175.834 244.665 175.961 245.278 175.961 245.975V246.292ZM174.477 245.97C174.477 245.225 174.343 244.658 174.076 244.271C173.81 243.883 173.429 243.69 172.934 243.69C172.442 243.69 172.063 243.882 171.796 244.266C171.529 244.647 171.394 245.207 171.391 245.946V246.292C171.391 247.018 171.524 247.581 171.791 247.982C172.058 248.382 172.442 248.582 172.944 248.582C173.435 248.582 173.813 248.39 174.076 248.006C174.34 247.619 174.474 247.056 174.477 246.317V245.97Z" fill="white"/>
<path d="M175.961 341.166C175.961 341.866 175.838 342.479 175.59 343.007C175.343 343.534 174.988 343.941 174.526 344.227C174.067 344.514 173.539 344.657 172.944 344.657C172.354 344.657 171.829 344.515 171.367 344.232C170.904 343.949 170.546 343.545 170.292 343.021C170.038 342.494 169.91 341.888 169.907 341.205V340.853C169.907 340.153 170.032 339.538 170.283 339.008C170.536 338.474 170.893 338.065 171.352 337.782C171.814 337.496 172.341 337.352 172.934 337.352C173.526 337.352 174.052 337.496 174.511 337.782C174.973 338.065 175.33 338.474 175.58 339.008C175.834 339.538 175.961 340.152 175.961 340.848V341.166ZM174.477 340.844C174.477 340.098 174.343 339.532 174.076 339.144C173.81 338.757 173.429 338.563 172.934 338.563C172.442 338.563 172.063 338.755 171.796 339.139C171.529 339.52 171.394 340.08 171.391 340.819V341.166C171.391 341.892 171.524 342.455 171.791 342.855C172.058 343.256 172.442 343.456 172.944 343.456C173.435 343.456 173.813 343.264 174.076 342.88C174.34 342.492 174.474 341.929 174.477 341.19V340.844Z" fill="white"/>
<path d="M175.961 436.039C175.961 436.739 175.838 437.353 175.59 437.88C175.343 438.407 174.988 438.814 174.526 439.101C174.067 439.387 173.539 439.53 172.944 439.53C172.354 439.53 171.829 439.389 171.367 439.106C170.904 438.822 170.546 438.419 170.292 437.895C170.038 437.367 169.91 436.762 169.907 436.078V435.727C169.907 435.027 170.032 434.412 170.283 433.881C170.536 433.347 170.893 432.939 171.352 432.655C171.814 432.369 172.341 432.226 172.934 432.226C173.526 432.226 174.052 432.369 174.511 432.655C174.973 432.939 175.33 433.347 175.58 433.881C175.834 434.412 175.961 435.025 175.961 435.722V436.039ZM174.477 435.717C174.477 434.971 174.343 434.405 174.076 434.018C173.81 433.63 173.429 433.437 172.934 433.437C172.442 433.437 172.063 433.629 171.796 434.013C171.529 434.394 171.394 434.954 171.391 435.693V436.039C171.391 436.765 171.524 437.328 171.791 437.729C172.058 438.129 172.442 438.329 172.944 438.329C173.435 438.329 173.813 438.137 174.076 437.753C174.34 437.366 174.474 436.803 174.477 436.064V435.717Z" fill="white"/>
<line x1="364.994" y1="107.5" x2="334.027" y2="107.153" stroke="white"/>
<line x1="364.596" y1="484.1" x2="330.849" y2="484.1" stroke="white"/>
<line x1="365.233" y1="389.863" x2="331.486" y2="389.863" stroke="white"/>
<line x1="365.233" y1="295.627" x2="331.486" y2="295.627" stroke="white"/>
<line x1="365.233" y1="201.39" x2="331.486" y2="201.39" stroke="white"/>
<circle cx="330.849" cy="91.3715" r="16.5551" transform="rotate(-180 330.849 91.3715)" fill="#62F2A6"/>
<path d="M324.314 94.0729H328.669V82.2272H331.599V94.0729H335.896V96.4459H324.314V94.0729Z" fill="white"/>
<circle cx="331.486" cy="468.318" r="16.5551" transform="rotate(-180 331.486 468.318)" fill="#F1E023"/>
<path d="M328.315 465.157H333.452L334.428 462.227H337.544L332.251 476.446H329.536L324.213 462.227H327.329L328.315 465.157ZM332.661 467.53H329.106L330.893 472.852L332.661 467.53Z" fill="white"/>
<circle cx="330.849" cy="185.608" r="16.5551" transform="rotate(-180 330.849 185.608)" fill="#E8A62F"/>
<path d="M323.995 183.963C324.105 182.433 324.672 181.229 325.694 180.35C326.71 179.471 328.051 179.032 329.717 179.032C331.54 179.032 332.976 179.644 334.024 180.868C335.066 182.098 335.587 183.784 335.587 185.926V186.795C335.587 188.163 335.346 189.367 334.864 190.409C334.382 191.45 333.695 192.248 332.803 192.801C331.905 193.361 330.863 193.641 329.678 193.641C328.038 193.641 326.716 193.202 325.713 192.323C324.711 191.444 324.131 190.21 323.975 188.622H326.905C326.977 189.54 327.234 190.204 327.676 190.614C328.113 191.03 328.78 191.239 329.678 191.239C330.655 191.239 331.387 190.887 331.876 190.184C332.357 189.487 332.605 188.403 332.618 186.932V185.858C332.618 184.321 332.387 183.198 331.924 182.489C331.456 181.779 330.72 181.424 329.717 181.424C328.812 181.424 328.139 181.629 327.696 182.04C327.247 182.456 326.99 183.097 326.924 183.963H323.995Z" fill="white"/>
<circle cx="330.849" cy="279.845" r="16.5551" transform="rotate(-180 330.849 279.845)" fill="#C6344A"/>
<path d="M324.18 273.024C324.708 272.392 325.453 271.901 326.417 271.549C327.38 271.204 328.448 271.032 329.62 271.032C330.85 271.032 331.931 271.299 332.862 271.832C333.786 272.373 334.503 273.154 335.01 274.176C335.512 275.198 335.769 276.399 335.782 277.78V278.746C335.782 280.166 335.544 281.393 335.069 282.428C334.587 283.47 333.897 284.264 332.999 284.811C332.094 285.364 331.036 285.641 329.825 285.641C328.139 285.641 326.82 285.237 325.87 284.43C324.919 283.629 324.356 282.461 324.18 280.924H327.032C327.162 281.738 327.452 282.334 327.901 282.711C328.344 283.089 328.956 283.278 329.737 283.278C330.733 283.278 331.491 282.903 332.012 282.155C332.533 281.406 332.797 280.293 332.803 278.815V277.907C332.803 276.416 332.52 275.289 331.954 274.528C331.387 273.766 330.557 273.385 329.463 273.385C328.363 273.385 327.579 273.62 327.11 274.088V276.539H329.776V278.698H324.18V273.024Z" fill="white"/>
<circle cx="330.849" cy="373.445" r="16.5551" transform="rotate(-180 330.849 373.445)" fill="#62F2A6"/>
<path d="M325.314 376.073H329.669V364.227H332.599V376.073H336.896V378.446H325.314V376.073Z" fill="white"/>
</g>
<path fill-rule="evenodd" clip-rule="evenodd" d="M199.565 72.3001L189.625 103.733L156.658 103.993L146.224 72.7202L172.742 53.133L199.565 72.3001V72.3001Z" stroke="#F40F0F" stroke-width="2"/>
<line x1="165.709" y1="54.5931" x2="172.709" y2="49.5931" stroke="#F40F0F"/>
<line y1="-0.5" x2="8.60233" y2="-0.5" transform="matrix(-0.813733 -0.581238 -0.581238 0.813733 179 55)" stroke="#F40F0F"/>
<line x1="165.709" y1="52.5931" x2="172.709" y2="47.5931" stroke="#F40F0F"/>
<line y1="-0.5" x2="8.60233" y2="-0.5" transform="matrix(-0.813733 -0.581238 -0.581238 0.813733 179 53)" stroke="#F40F0F"/>
<line x1="165.709" y1="50.5931" x2="172.709" y2="45.5931" stroke="#F40F0F"/>
<line y1="-0.5" x2="8.60233" y2="-0.5" transform="matrix(-0.813733 -0.581238 -0.581238 0.813733 179 51)" stroke="#F40F0F"/>
<path fill-rule="evenodd" clip-rule="evenodd" d="M199.565 166.3L189.625 197.733L156.658 197.993L146.224 166.72L172.742 147.133L199.565 166.3V166.3Z" stroke="#F40F0F" stroke-width="2"/>
<line x1="165.709" y1="148.593" x2="172.709" y2="143.593" stroke="#F40F0F"/>
<line y1="-0.5" x2="8.60233" y2="-0.5" transform="matrix(-0.813733 -0.581238 -0.581238 0.813733 179 149)" stroke="#F40F0F"/>
<line x1="165.709" y1="146.593" x2="172.709" y2="141.593" stroke="#F40F0F"/>
<line y1="-0.5" x2="8.60233" y2="-0.5" transform="matrix(-0.813733 -0.581238 -0.581238 0.813733 179 147)" stroke="#F40F0F"/>
<line x1="165.709" y1="144.593" x2="172.709" y2="139.593" stroke="#F40F0F"/>
<line y1="-0.5" x2="8.60233" y2="-0.5" transform="matrix(-0.813733 -0.581238 -0.581238 0.813733 179 145)" stroke="#F40F0F"/>
<path fill-rule="evenodd" clip-rule="evenodd" d="M199.565 260.244L189.625 291.677L156.658 291.936L146.224 260.664L172.742 241.077L199.565 260.244V260.244Z" stroke="#F40F0F" stroke-width="2"/>
<line x1="166.709" y1="241.593" x2="173.709" y2="236.593" stroke="#F40F0F"/>
<line y1="-0.5" x2="8.60233" y2="-0.5" transform="matrix(-0.813733 -0.581238 -0.581238 0.813733 180 242)" stroke="#F40F0F"/>
<line x1="166.709" y1="239.593" x2="173.709" y2="234.593" stroke="#F40F0F"/>
<line y1="-0.5" x2="8.60233" y2="-0.5" transform="matrix(-0.813733 -0.581238 -0.581238 0.813733 180 240)" stroke="#F40F0F"/>
<line x1="166.709" y1="237.593" x2="173.709" y2="232.593" stroke="#F40F0F"/>
<line y1="-0.5" x2="8.60233" y2="-0.5" transform="matrix(-0.813733 -0.581238 -0.581238 0.813733 180 238)" stroke="#F40F0F"/>
<path fill-rule="evenodd" clip-rule="evenodd" d="M199.565 354.244L189.625 385.677L156.658 385.936L146.224 354.664L172.742 335.077L199.565 354.244V354.244Z" stroke="#F40F0F" stroke-width="2"/>
<line x1="166.709" y1="335.593" x2="173.709" y2="330.593" stroke="#F40F0F"/>
<line y1="-0.5" x2="8.60233" y2="-0.5" transform="matrix(-0.813733 -0.581238 -0.581238 0.813733 180 336)" stroke="#F40F0F"/>
<line x1="166.709" y1="333.593" x2="173.709" y2="328.593" stroke="#F40F0F"/>
<line y1="-0.5" x2="8.60233" y2="-0.5" transform="matrix(-0.813733 -0.581238 -0.581238 0.813733 180 334)" stroke="#F40F0F"/>
<line x1="166.709" y1="331.593" x2="173.709" y2="326.593" stroke="#F40F0F"/>
<line y1="-0.5" x2="8.60233" y2="-0.5" transform="matrix(-0.813733 -0.581238 -0.581238 0.813733 180 332)" stroke="#F40F0F"/>
<path fill-rule="evenodd" clip-rule="evenodd" d="M199.565 448.244L189.625 479.677L156.658 479.936L146.224 448.664L172.742 429.077L199.565 448.244V448.244Z" stroke="#F40F0F" stroke-width="2"/>
<line x1="166.709" y1="429.593" x2="173.709" y2="424.593" stroke="#F40F0F"/>
<line y1="-0.5" x2="8.60233" y2="-0.5" transform="matrix(-0.813733 -0.581238 -0.581238 0.813733 180 430)" stroke="#F40F0F"/>
<line x1="166.709" y1="427.593" x2="173.709" y2="422.593" stroke="#F40F0F"/>
<line y1="-0.5" x2="8.60233" y2="-0.5" transform="matrix(-0.813733 -0.581238 -0.581238 0.813733 180 428)" stroke="#F40F0F"/>
<line x1="166.709" y1="425.593" x2="173.709" y2="420.593" stroke="#F40F0F"/>
<line y1="-0.5" x2="8.60233" y2="-0.5" transform="matrix(-0.813733 -0.581238 -0.581238 0.813733 180 426)" stroke="#F40F0F"/>
<path fill-rule="evenodd" clip-rule="evenodd" d="M413.565 487.357L403.625 455.924L370.658 455.664L360.224 486.937L386.742 506.524L413.565 487.357V487.357Z" stroke="#F40F0F" stroke-width="2"/>
<line y1="-0.5" x2="8.60233" y2="-0.5" transform="matrix(0.813733 0.581238 0.581238 -0.813733 381 505.6)" stroke="#F40F0F"/>
<line x1="394.291" y1="506.007" x2="387.291" y2="511.007" stroke="#F40F0F"/>
<line y1="-0.5" x2="8.60233" y2="-0.5" transform="matrix(0.813733 0.581238 0.581238 -0.813733 381 507.6)" stroke="#F40F0F"/>
<line x1="394.291" y1="508.007" x2="387.291" y2="513.007" stroke="#F40F0F"/>
<line y1="-0.5" x2="8.60233" y2="-0.5" transform="matrix(0.813733 0.581238 0.581238 -0.813733 381 509.6)" stroke="#F40F0F"/>
<line x1="394.291" y1="510.007" x2="387.291" y2="515.007" stroke="#F40F0F"/>
<path fill-rule="evenodd" clip-rule="evenodd" d="M413.565 392.357L403.625 360.924L370.658 360.664L360.224 391.937L386.742 411.524L413.565 392.357V392.357Z" stroke="#F40F0F" stroke-width="2"/>
<line y1="-0.5" x2="8.60233" y2="-0.5" transform="matrix(0.813733 0.581238 0.581238 -0.813733 381 410.6)" stroke="#F40F0F"/>
<line x1="394.291" y1="411.007" x2="387.291" y2="416.007" stroke="#F40F0F"/>
<line y1="-0.5" x2="8.60233" y2="-0.5" transform="matrix(0.813733 0.581238 0.581238 -0.813733 381 412.6)" stroke="#F40F0F"/>
<line x1="394.291" y1="413.007" x2="387.291" y2="418.007" stroke="#F40F0F"/>
<line y1="-0.5" x2="8.60233" y2="-0.5" transform="matrix(0.813733 0.581238 0.581238 -0.813733 381 414.6)" stroke="#F40F0F"/>
<line x1="394.291" y1="415.007" x2="387.291" y2="420.007" stroke="#F40F0F"/>
<path fill-rule="evenodd" clip-rule="evenodd" d="M413.565 298.357L403.625 266.924L370.658 266.664L360.224 297.937L386.742 317.524L413.565 298.357V298.357Z" stroke="#F40F0F" stroke-width="2"/>
<line y1="-0.5" x2="8.60233" y2="-0.5" transform="matrix(0.813733 0.581238 0.581238 -0.813733 381 316.6)" stroke="#F40F0F"/>
<line x1="394.291" y1="317.007" x2="387.291" y2="322.007" stroke="#F40F0F"/>
<line y1="-0.5" x2="8.60233" y2="-0.5" transform="matrix(0.813733 0.581238 0.581238 -0.813733 381 318.6)" stroke="#F40F0F"/>
<line x1="394.291" y1="319.007" x2="387.291" y2="324.007" stroke="#F40F0F"/>
<line y1="-0.5" x2="8.60233" y2="-0.5" transform="matrix(0.813733 0.581238 0.581238 -0.813733 381 320.6)" stroke="#F40F0F"/>
<line x1="394.291" y1="321.007" x2="387.291" y2="326.007" stroke="#F40F0F"/>
<path fill-rule="evenodd" clip-rule="evenodd" d="M413.565 204.357L403.625 172.924L370.658 172.664L360.224 203.937L386.742 223.524L413.565 204.357V204.357Z" stroke="#2E55B9"/>
<line y1="-0.5" x2="8.60233" y2="-0.5" transform="matrix(0.813733 0.581238 0.581238 -0.813733 381 222.6)" stroke="#2E55B9"/>
<line x1="394.291" y1="223.007" x2="387.291" y2="228.007" stroke="#2E55B9"/>
<line y1="-0.5" x2="8.60233" y2="-0.5" transform="matrix(0.813733 0.581238 0.581238 -0.813733 381 224.6)" stroke="#2E55B9"/>
<line x1="394.291" y1="225.007" x2="387.291" y2="230.007" stroke="#2E55B9"/>
<line y1="-0.5" x2="8.60233" y2="-0.5" transform="matrix(0.813733 0.581238 0.581238 -0.813733 381 226.6)" stroke="#2E55B9"/>
<line x1="394.291" y1="227.007" x2="387.291" y2="232.007" stroke="#2E55B9"/>
<path fill-rule="evenodd" clip-rule="evenodd" d="M413.565 204.357L403.625 172.924L370.658 172.664L360.224 203.937L386.742 223.524L413.565 204.357V204.357Z" stroke="#F40F0F" stroke-width="2"/>
<line y1="-0.5" x2="8.60233" y2="-0.5" transform="matrix(0.813733 0.581238 0.581238 -0.813733 381 222.6)" stroke="#F40F0F"/>
<line x1="394.291" y1="223.007" x2="387.291" y2="228.007" stroke="#F40F0F"/>
<line y1="-0.5" x2="8.60233" y2="-0.5" transform="matrix(0.813733 0.581238 0.581238 -0.813733 381 224.6)" stroke="#F40F0F"/>
<line x1="394.291" y1="225.007" x2="387.291" y2="230.007" stroke="#F40F0F"/>
<line y1="-0.5" x2="8.60233" y2="-0.5" transform="matrix(0.813733 0.581238 0.581238 -0.813733 381 226.6)" stroke="#F40F0F"/>
<line x1="394.291" y1="227.007" x2="387.291" y2="232.007" stroke="#F40F0F"/>
<g style="mix-blend-mode:darken">
<line y1="-1" x2="13.7634" y2="-1" transform="matrix(0.813733 0.581238 0.581238 -0.813733 465 297)" stroke="white" stroke-width="2"/>
<line x1="486.381" y1="297.813" x2="475.181" y2="305.813" stroke="white" stroke-width="2"/>
<line y1="-1" x2="13.7634" y2="-1" transform="matrix(0.813733 0.581238 0.581238 -0.813733 465 275)" stroke="white" stroke-width="2"/>
<line x1="486.381" y1="275.814" x2="475.181" y2="283.814" stroke="white" stroke-width="2"/>
<line y1="-1" x2="13.7634" y2="-1" transform="matrix(0.813733 0.581238 0.581238 -0.813733 465 286)" stroke="white" stroke-width="2"/>
<line x1="486.381" y1="286.813" x2="475.181" y2="294.813" stroke="white" stroke-width="2"/>
</g>
<line x1="74.4188" y1="282.186" x2="85.6185" y2="274.186" stroke="white" stroke-width="2"/>
<line y1="-1" x2="13.7634" y2="-1" transform="matrix(-0.813733 -0.581238 -0.581238 0.813733 95.7995 283)" stroke="white" stroke-width="2"/>
<line x1="74.4188" y1="304.186" x2="85.6185" y2="296.186" stroke="white" stroke-width="2"/>
<line y1="-1" x2="13.7634" y2="-1" transform="matrix(-0.813733 -0.581238 -0.581238 0.813733 95.7995 305)" stroke="white" stroke-width="2"/>
<line x1="74.4188" y1="293.186" x2="85.6185" y2="285.186" stroke="white" stroke-width="2"/>
<line y1="-1" x2="13.7634" y2="-1" transform="matrix(-0.813733 -0.581238 -0.581238 0.813733 95.7995 294)" stroke="white" stroke-width="2"/>
<path fill-rule="evenodd" clip-rule="evenodd" d="M414.565 110.357L404.625 78.9235L371.658 78.6639L361.224 109.937L387.742 129.524L414.565 110.357V110.357Z" stroke="#F40F0F" stroke-width="2"/>
<line y1="-0.5" x2="8.60233" y2="-0.5" transform="matrix(0.813733 0.581238 0.581238 -0.813733 382 128.6)" stroke="#F40F0F"/>
<line x1="395.291" y1="129.007" x2="388.291" y2="134.007" stroke="#F40F0F"/>
<line y1="-0.5" x2="8.60233" y2="-0.5" transform="matrix(0.813733 0.581238 0.581238 -0.813733 382 130.6)" stroke="#F40F0F"/>
<line x1="395.291" y1="131.007" x2="388.291" y2="136.007" stroke="#F40F0F"/>
<line y1="-0.5" x2="8.60233" y2="-0.5" transform="matrix(0.813733 0.581238 0.581238 -0.813733 382 132.6)" stroke="#F40F0F"/>
<line x1="395.291" y1="133.007" x2="388.291" y2="138.007" stroke="#F40F0F"/>
<path fill-rule="evenodd" clip-rule="evenodd" d="M532.915 213.666L554.699 198.088L546.305 172.984L519.334 173.047L511.059 198.19L532.915 213.666Z" fill="#22B674" stroke="#22B674"/>
<path d="M535.356 213.926C535.356 213.229 535.239 212.62 535.005 212.099C534.771 211.582 534.438 211.186 534.009 210.913C533.579 210.639 533.078 210.503 532.505 210.503C531.945 210.503 531.449 210.639 531.016 210.913C530.583 211.19 530.246 211.582 530.005 212.09C529.767 212.601 529.645 213.191 529.639 213.862V214.375C529.639 215.058 529.757 215.662 529.995 216.186C530.233 216.71 530.568 217.111 531.001 217.387C531.437 217.667 531.935 217.807 532.495 217.807C533.065 217.807 533.566 217.669 533.999 217.392C534.435 217.119 534.771 216.72 535.005 216.196C535.239 215.675 535.356 215.068 535.356 214.375V213.926ZM534.424 214.385C534.424 215.228 534.255 215.874 533.916 216.323C533.577 216.775 533.104 217.002 532.495 217.002C531.903 217.002 531.436 216.775 531.094 216.323C530.755 215.874 530.581 215.249 530.571 214.448V213.926C530.571 213.108 530.742 212.466 531.084 211.997C531.429 211.531 531.903 211.299 532.505 211.299C533.11 211.299 533.579 211.518 533.911 211.958C534.243 212.4 534.414 213.034 534.424 213.857V214.385Z" fill="white"/>
<path fill-rule="evenodd" clip-rule="evenodd" d="M559.565 201.357L549.625 169.924L516.658 169.664L506.224 200.937L532.742 220.524L559.565 201.357V201.357Z" stroke="#F40F0F" stroke-width="2"/>
<line y1="-0.5" x2="8.60233" y2="-0.5" transform="matrix(0.813733 0.581238 0.581238 -0.813733 527 219.6)" stroke="#F40F0F"/>
<line x1="540.291" y1="220.007" x2="533.291" y2="225.007" stroke="#F40F0F"/>
<line y1="-0.5" x2="8.60233" y2="-0.5" transform="matrix(0.813733 0.581238 0.581238 -0.813733 527 221.6)" stroke="#F40F0F"/>
<line x1="540.291" y1="222.007" x2="533.291" y2="227.007" stroke="#F40F0F"/>
<line y1="-0.5" x2="8.60233" y2="-0.5" transform="matrix(0.813733 0.581238 0.581238 -0.813733 527 223.6)" stroke="#F40F0F"/>
<line x1="540.291" y1="224.007" x2="533.291" y2="229.007" stroke="#F40F0F"/>
<path fill-rule="evenodd" clip-rule="evenodd" d="M29.915 58.9346L51.6986 74.5125L43.3054 99.616L16.3345 99.5529L8.05875 74.4104L29.915 58.9346Z" fill="#22B674" stroke="#22B674"/>
<path d="M32.3564 58.6748C32.3564 59.3714 32.2393 59.9801 32.0049 60.501C31.7705 61.0186 31.4385 61.4141 31.0088 61.6875C30.5791 61.9609 30.0778 62.0977 29.5049 62.0977C28.945 62.0977 28.4486 61.9609 28.0156 61.6875C27.5827 61.4108 27.2458 61.0186 27.0049 60.5107C26.7673 59.9997 26.6452 59.4089 26.6387 58.7383V58.2256C26.6387 57.542 26.7575 56.9382 26.9951 56.4141C27.2327 55.89 27.568 55.4896 28.001 55.2129C28.4372 54.9329 28.9352 54.793 29.4951 54.793C30.0648 54.793 30.5661 54.9313 30.999 55.208C31.4352 55.4814 31.7705 55.8802 32.0049 56.4043C32.2393 56.9251 32.3564 57.5322 32.3564 58.2256V58.6748ZM31.4238 58.2158C31.4238 57.3727 31.2546 56.7266 30.916 56.2773C30.5775 55.8249 30.1038 55.5986 29.4951 55.5986C28.9027 55.5986 28.4355 55.8249 28.0938 56.2773C27.7552 56.7266 27.5811 57.3516 27.5713 58.1523V58.6748C27.5713 59.4919 27.7422 60.1348 28.084 60.6035C28.429 61.069 28.9027 61.3018 29.5049 61.3018C30.1104 61.3018 30.5791 61.082 30.9111 60.6426C31.2432 60.1999 31.4141 59.5667 31.4238 58.7432V58.2158Z" fill="white"/>
<path fill-rule="evenodd" clip-rule="evenodd" d="M56.5651 71.2437L46.6248 102.677L13.6584 102.936L3.22432 71.6638L29.7421 52.0766L56.5651 71.2437V71.2437Z" stroke="#F40F0F" stroke-width="2"/>
<line x1="23.7094" y1="52.5931" x2="30.7094" y2="47.5931" stroke="#F40F0F"/>
<line y1="-0.5" x2="8.60233" y2="-0.5" transform="matrix(-0.813733 -0.581238 -0.581238 0.813733 37 53)" stroke="#F40F0F"/>
<line x1="23.7094" y1="50.5931" x2="30.7094" y2="45.5931" stroke="#F40F0F"/>
<line y1="-0.5" x2="8.60233" y2="-0.5" transform="matrix(-0.813733 -0.581238 -0.581238 0.813733 37 51)" stroke="#F40F0F"/>
<line x1="23.7094" y1="48.5931" x2="30.7094" y2="43.5931" stroke="#F40F0F"/>
<line y1="-0.5" x2="8.60233" y2="-0.5" transform="matrix(-0.813733 -0.581238 -0.581238 0.813733 37 49)" stroke="#F40F0F"/>
<path d="M496.354 190.354C496.549 190.158 496.549 189.842 496.354 189.646L493.172 186.464C492.976 186.269 492.66 186.269 492.464 186.464C492.269 186.66 492.269 186.976 492.464 187.172L495.293 190L492.464 192.828C492.269 193.024 492.269 193.34 492.464 193.536C492.66 193.731 492.976 193.731 493.172 193.536L496.354 190.354ZM426 190.5H496V189.5H426V190.5Z" fill="white"/>
<path d="M64.6464 74.3536C64.4512 74.1583 64.4512 73.8417 64.6464 73.6464L67.8284 70.4645C68.0237 70.2692 68.3403 70.2692 68.5355 70.4645C68.7308 70.6597 68.7308 70.9763 68.5355 71.1716L65.7071 74L68.5355 76.8284C68.7308 77.0237 68.7308 77.3403 68.5355 77.5355C68.3403 77.7308 68.0237 77.7308 67.8284 77.5355L64.6464 74.3536ZM135 74.5H65V73.5H135V74.5Z" fill="white"/>
</svg>
