<svg width="647" height="603" viewBox="0 0 647 603" fill="none" xmlns="http://www.w3.org/2000/svg">
<g filter="url(#filter0_d)">
<rect x="642.5" y="552.5" width="81" height="552" transform="rotate(-180 642.5 552.5)" fill="#79CCDB"/>
<rect x="642.5" y="552.5" width="81" height="552" transform="rotate(-180 642.5 552.5)" fill="url(#paint0_linear)"/>
<rect x="642.5" y="552.5" width="81" height="552" transform="rotate(-180 642.5 552.5)" stroke="#79CCDB"/>
<line x1="613.072" y1="107.183" x2="615.619" y2="128.832" stroke="white"/>
<path fill-rule="evenodd" clip-rule="evenodd" d="M591.295 123.108L569.51 107.529L577.904 82.4238L604.877 82.4869L613.153 107.631L591.295 123.108Z" fill="#22B674" stroke="#22B674"/>
<line x1="613.072" y1="201.419" x2="615.619" y2="223.068" stroke="white"/>
<line x1="615.554" y1="441.143" x2="604.729" y2="459.608" stroke="white"/>
<line x1="613.072" y1="484.129" x2="615.619" y2="505.778" stroke="white"/>
<path fill-rule="evenodd" clip-rule="evenodd" d="M591.295 500.055L569.51 484.476L577.904 459.371L604.877 459.434L613.153 484.578L591.295 500.055Z" fill="#22B674" stroke="#22B674"/>
<circle cx="613.212" cy="520.482" r="16.5551" transform="rotate(-180 613.212 520.482)" fill="#D42B2B"/>
<path d="M614.48 517.332V512.323H617.41V526.541H611.863C610.795 526.541 609.858 526.346 609.051 525.955C608.237 525.565 607.612 525.008 607.176 524.285C606.739 523.569 606.521 522.752 606.521 521.834C606.521 520.441 607 519.341 607.957 518.533C608.907 517.733 610.226 517.332 611.912 517.332H614.48ZM614.48 519.705H611.863C611.088 519.705 610.499 519.888 610.096 520.252C609.685 520.617 609.48 521.138 609.48 521.815C609.48 522.511 609.685 523.074 610.096 523.504C610.506 523.934 611.072 524.155 611.795 524.168H614.48V519.705Z" fill="white"/>
<line x1="615.554" y1="64.1957" x2="604.729" y2="82.661" stroke="white"/>
<circle cx="613.212" cy="143.535" r="16.5551" transform="rotate(-180 613.212 143.535)" fill="#D42B2B"/>
<circle cx="613.212" cy="426.245" r="16.5551" transform="rotate(-180 613.212 426.245)" fill="#D42B2B"/>
<line x1="615.554" y1="346.906" x2="604.729" y2="365.371" stroke="white"/>
<line x1="613.072" y1="389.893" x2="615.619" y2="411.542" stroke="white"/>
<path fill-rule="evenodd" clip-rule="evenodd" d="M591.295 405.818L569.51 390.239L577.904 365.134L604.877 365.197L613.153 390.342L591.295 405.818Z" fill="#22B674" stroke="#22B674"/>
<circle cx="613.212" cy="426.245" r="16.5551" transform="rotate(-180 613.212 426.245)" fill="#D42B2B"/>
<path d="M615.48 422.332V417.323H618.41V431.541H612.863C611.795 431.541 610.858 431.346 610.051 430.955C609.237 430.565 608.612 430.008 608.176 429.285C607.739 428.569 607.521 427.752 607.521 426.834C607.521 425.441 608 424.341 608.957 423.533C609.907 422.733 611.226 422.332 612.912 422.332H615.48ZM615.48 424.705H612.863C612.088 424.705 611.499 424.888 611.096 425.252C610.685 425.617 610.48 426.138 610.48 426.815C610.48 427.511 610.685 428.074 611.096 428.504C611.506 428.934 612.072 429.155 612.795 429.168H615.48V424.705Z" fill="white"/>
<line x1="615.554" y1="252.669" x2="604.729" y2="271.135" stroke="white"/>
<line x1="613.072" y1="295.656" x2="615.619" y2="317.305" stroke="white"/>
<path fill-rule="evenodd" clip-rule="evenodd" d="M591.295 311.582L569.51 296.003L577.904 270.897L604.877 270.96L613.153 296.105L591.295 311.582Z" fill="#22B674" stroke="#22B674"/>
<circle cx="613.212" cy="332.008" r="16.5551" transform="rotate(-180 613.212 332.008)" fill="#D42B2B"/>
<path d="M614.48 328.332V323.323H617.41V337.541H611.863C610.795 337.541 609.858 337.346 609.051 336.955C608.237 336.565 607.612 336.008 607.176 335.285C606.739 334.569 606.521 333.752 606.521 332.834C606.521 331.441 607 330.341 607.957 329.533C608.907 328.733 610.226 328.332 611.912 328.332H614.48ZM614.48 330.705H611.863C611.088 330.705 610.499 330.888 610.096 331.252C609.685 331.617 609.48 332.138 609.48 332.815C609.48 333.511 609.685 334.074 610.096 334.504C610.506 334.934 611.072 335.155 611.795 335.168H614.48V330.705Z" fill="white"/>
<circle cx="613.212" cy="237.772" r="16.5551" transform="rotate(-180 613.212 237.772)" fill="#D42B2B"/>
<path d="M614.48 234.332V229.323H617.41V243.541H611.863C610.795 243.541 609.858 243.346 609.051 242.955C608.237 242.565 607.612 242.008 607.176 241.285C606.739 240.569 606.521 239.752 606.521 238.834C606.521 237.441 607 236.341 607.957 235.533C608.907 234.733 610.226 234.332 611.912 234.332H614.48ZM614.48 236.705H611.863C611.088 236.705 610.499 236.888 610.096 237.252C609.685 237.617 609.48 238.138 609.48 238.815C609.48 239.511 609.685 240.074 610.096 240.504C610.506 240.934 611.072 241.155 611.795 241.168H614.48V236.705Z" fill="white"/>
<line x1="615.554" y1="158.433" x2="604.729" y2="176.898" stroke="white"/>
<path fill-rule="evenodd" clip-rule="evenodd" d="M591.295 217.345L569.51 201.766L577.904 176.661L604.877 176.724L613.153 201.868L591.295 217.345Z" fill="#22B674" stroke="#22B674"/>
<circle cx="613.217" cy="143.767" r="16.5551" transform="rotate(-180 613.217 143.767)" fill="#D42B2B"/>
<path d="M614.485 140.565V135.555H617.415V149.774H611.868C610.8 149.774 609.863 149.579 609.055 149.188C608.242 148.797 607.617 148.241 607.18 147.518C606.744 146.802 606.526 145.985 606.526 145.067C606.526 143.674 607.005 142.573 607.962 141.766C608.912 140.965 610.23 140.565 611.917 140.565H614.485ZM614.485 142.938H611.868C611.093 142.938 610.504 143.12 610.1 143.485C609.69 143.849 609.485 144.37 609.485 145.047C609.485 145.744 609.69 146.307 610.1 146.737C610.51 147.167 611.077 147.388 611.799 147.401H614.485V142.938Z" fill="white"/>
<path d="M613.076 45.3225H616.006V51.4163H621.719V45.3225H624.649V59.5413H621.719V53.7795H616.006V59.5413H613.076V45.3225ZM598.828 52.1096C598.828 50.7099 599.076 49.4827 599.57 48.428C600.065 47.3733 600.775 46.5595 601.699 45.9866C602.617 45.4137 603.672 45.1272 604.863 45.1272C606.042 45.1272 607.093 45.4104 608.018 45.9768C608.942 46.5432 609.658 47.3505 610.166 48.3987C610.674 49.4534 610.931 50.6643 610.938 52.0315V52.7346C610.938 54.1344 610.687 55.3648 610.186 56.426C609.678 57.4937 608.965 58.3108 608.047 58.8772C607.122 59.4501 606.068 59.7366 604.883 59.7366C603.698 59.7366 602.647 59.4501 601.729 58.8772C600.804 58.3108 600.091 57.4937 599.59 56.426C599.082 55.3648 598.828 54.1376 598.828 52.7444V52.1096ZM601.797 52.7542C601.797 54.245 602.064 55.3778 602.598 56.1526C603.132 56.9273 603.893 57.3147 604.883 57.3147C605.866 57.3147 606.624 56.9306 607.158 56.1624C607.692 55.4006 607.962 54.2808 607.969 52.803V52.1096C607.969 50.6578 607.702 49.5315 607.168 48.7307C606.634 47.9299 605.866 47.5295 604.863 47.5295C603.88 47.5295 603.125 47.9137 602.598 48.6819C602.07 49.4566 601.803 50.5829 601.797 52.0608V52.7542Z" fill="white"/>
<path d="M588.541 500.23C588.541 499.531 588.664 498.917 588.912 498.39C589.159 497.862 589.514 497.455 589.976 497.169C590.435 496.882 590.963 496.739 591.558 496.739C592.148 496.739 592.673 496.881 593.136 497.164C593.598 497.447 593.956 497.851 594.21 498.375C594.464 498.902 594.592 499.508 594.595 500.191V500.543C594.595 501.243 594.47 501.858 594.219 502.389C593.966 502.923 593.609 503.331 593.15 503.614C592.688 503.901 592.161 504.044 591.568 504.044C590.976 504.044 590.45 503.901 589.991 503.614C589.529 503.331 589.172 502.923 588.922 502.389C588.668 501.858 588.541 501.244 588.541 500.548V500.23ZM590.025 500.553C590.025 501.298 590.159 501.865 590.426 502.252C590.692 502.639 591.073 502.833 591.568 502.833C592.06 502.833 592.439 502.641 592.706 502.257C592.973 501.876 593.108 501.316 593.111 500.577V500.23C593.111 499.505 592.978 498.941 592.711 498.541C592.444 498.141 592.06 497.94 591.558 497.94C591.067 497.94 590.689 498.132 590.426 498.517C590.162 498.904 590.028 499.467 590.025 500.206V500.553Z" fill="white"/>
<path d="M588.541 406.63C588.541 405.931 588.664 405.317 588.912 404.79C589.159 404.262 589.514 403.855 589.976 403.569C590.435 403.282 590.963 403.139 591.558 403.139C592.148 403.139 592.673 403.281 593.136 403.564C593.598 403.847 593.956 404.251 594.21 404.775C594.464 405.302 594.592 405.908 594.595 406.591V406.943C594.595 407.643 594.47 408.258 594.219 408.789C593.966 409.322 593.609 409.731 593.15 410.014C592.688 410.301 592.161 410.444 591.568 410.444C590.976 410.444 590.45 410.301 589.991 410.014C589.529 409.731 589.172 409.322 588.922 408.789C588.668 408.258 588.541 407.644 588.541 406.948V406.63ZM590.025 406.953C590.025 407.698 590.159 408.264 590.426 408.652C590.692 409.039 591.073 409.233 591.568 409.233C592.06 409.233 592.439 409.041 592.706 408.657C592.973 408.276 593.108 407.716 593.111 406.977V406.63C593.111 405.904 592.978 405.341 592.711 404.941C592.444 404.541 592.06 404.34 591.558 404.34C591.067 404.34 590.689 404.532 590.426 404.917C590.162 405.304 590.028 405.867 590.025 406.606V406.953Z" fill="white"/>
<path d="M588.541 313.03C588.541 312.33 588.664 311.717 588.912 311.189C589.159 310.662 589.514 310.255 589.976 309.969C590.435 309.682 590.963 309.539 591.558 309.539C592.148 309.539 592.673 309.681 593.136 309.964C593.598 310.247 593.956 310.651 594.21 311.175C594.464 311.702 594.592 312.308 594.595 312.991V313.343C594.595 314.043 594.47 314.658 594.219 315.188C593.966 315.722 593.609 316.131 593.15 316.414C592.688 316.701 592.161 316.844 591.568 316.844C590.976 316.844 590.45 316.701 589.991 316.414C589.529 316.131 589.172 315.722 588.922 315.188C588.668 314.658 588.541 314.044 588.541 313.348V313.03ZM590.025 313.353C590.025 314.098 590.159 314.664 590.426 315.052C590.692 315.439 591.073 315.633 591.568 315.633C592.06 315.633 592.439 315.441 592.706 315.057C592.973 314.676 593.108 314.116 593.111 313.377V313.03C593.111 312.304 592.978 311.741 592.711 311.341C592.444 310.94 592.06 310.74 591.558 310.74C591.067 310.74 590.689 310.932 590.426 311.316C590.162 311.704 590.028 312.267 590.025 313.006V313.353Z" fill="white"/>
<path d="M588.541 218.157C588.541 217.457 588.664 216.844 588.912 216.316C589.159 215.789 589.514 215.382 589.976 215.095C590.435 214.809 590.963 214.666 591.558 214.666C592.148 214.666 592.673 214.807 593.136 215.091C593.598 215.374 593.956 215.777 594.21 216.302C594.464 216.829 594.592 217.434 594.595 218.118V218.469C594.595 219.169 594.47 219.785 594.219 220.315C593.966 220.849 593.609 221.258 593.15 221.541C592.688 221.827 592.161 221.97 591.568 221.97C590.976 221.97 590.45 221.827 589.991 221.541C589.529 221.258 589.172 220.849 588.922 220.315C588.668 219.785 588.541 219.171 588.541 218.474V218.157ZM590.025 218.479C590.025 219.225 590.159 219.791 590.426 220.178C590.692 220.566 591.073 220.76 591.568 220.76C592.06 220.76 592.439 220.567 592.706 220.183C592.973 219.802 593.108 219.243 593.111 218.504V218.157C593.111 217.431 592.978 216.868 592.711 216.468C592.444 216.067 592.06 215.867 591.558 215.867C591.067 215.867 590.689 216.059 590.426 216.443C590.162 216.83 590.028 217.394 590.025 218.133V218.479Z" fill="white"/>
<path d="M588.541 123.283C588.541 122.584 588.664 121.97 588.912 121.443C589.159 120.915 589.514 120.508 589.976 120.222C590.435 119.935 590.963 119.792 591.558 119.792C592.148 119.792 592.673 119.934 593.136 120.217C593.598 120.5 593.956 120.904 594.21 121.428C594.464 121.955 594.592 122.561 594.595 123.244V123.596C594.595 124.296 594.47 124.911 594.219 125.442C593.966 125.976 593.609 126.384 593.15 126.667C592.688 126.954 592.161 127.097 591.568 127.097C590.976 127.097 590.45 126.954 589.991 126.667C589.529 126.384 589.172 125.976 588.922 125.442C588.668 124.911 588.541 124.297 588.541 123.601V123.283ZM590.025 123.606C590.025 124.351 590.159 124.918 590.426 125.305C590.692 125.692 591.073 125.886 591.568 125.886C592.06 125.886 592.439 125.694 592.706 125.31C592.973 124.929 593.108 124.369 593.111 123.63V123.283C593.111 122.558 592.978 121.994 592.711 121.594C592.444 121.194 592.06 120.993 591.558 120.993C591.067 120.993 590.689 121.185 590.426 121.57C590.162 121.957 590.028 122.52 590.025 123.259V123.606Z" fill="white"/>
<rect x="326.5" y="0.5" width="80.502" height="552.322" fill="#79CCDB" stroke="#79CCDB"/>
<line x1="436.792" y1="84.8225" x2="542.49" y2="84.8225" stroke="white"/>
<line x1="436.792" y1="95.647" x2="542.49" y2="95.647" stroke="white"/>
<line x1="439.976" y1="367.533" x2="545.673" y2="367.533" stroke="white"/>
<line x1="439.976" y1="378.357" x2="545.673" y2="378.357" stroke="white"/>
<line x1="440.612" y1="462.406" x2="546.31" y2="462.406" stroke="white"/>
<line x1="440.612" y1="473.231" x2="546.31" y2="473.231" stroke="white"/>
<line x1="448.89" y1="184.471" x2="526.571" y2="184.471" stroke="white"/>
<line x1="424.694" y1="179.059" x2="530.392" y2="179.059" stroke="white"/>
<line x1="424.694" y1="189.884" x2="530.392" y2="189.884" stroke="white"/>
<line x1="448.89" y1="278.708" x2="526.571" y2="278.708" stroke="white"/>
<line x1="424.694" y1="273.296" x2="530.392" y2="273.296" stroke="white"/>
<line x1="424.694" y1="284.12" x2="530.392" y2="284.12" stroke="white"/>
<line x1="399.225" y1="74.6348" x2="432.971" y2="74.6348" stroke="white"/>
<line x1="398.588" y1="168.871" x2="432.335" y2="168.871" stroke="white"/>
<line x1="398.588" y1="263.108" x2="432.335" y2="263.108" stroke="white"/>
<line x1="398.588" y1="357.345" x2="432.335" y2="357.345" stroke="white"/>
<line x1="396.041" y1="451.582" x2="429.788" y2="451.582" stroke="white"/>
<circle cx="432.971" cy="467.363" r="16.5551" fill="#62F2A6"/>
<path d="M438.876 463.154H434.521V475H431.591V463.154H427.294V460.781H438.876V463.154Z" fill="white"/>
<circle cx="432.335" cy="90.4164" r="16.5551" fill="#F1E023"/>
<path d="M435.452 95.0703H430.315L429.338 98H426.223L431.516 83.7812H434.231L439.553 98H436.438L435.452 95.0703ZM431.106 92.6973H434.661L432.874 87.375L431.106 92.6973Z" fill="white"/>
<circle cx="432.971" cy="373.127" r="16.5551" fill="#F1E023"/>
<path d="M435.452 377.07H430.315L429.338 380H426.223L431.516 365.781H434.231L439.553 380H436.438L435.452 377.07ZM431.106 374.697H434.661L432.874 369.375L431.106 374.697Z" fill="white"/>
<circle cx="432.971" cy="184.971" r="16.5551" fill="#C6344A"/>
<path d="M438.587 190.203C438.059 190.835 437.314 191.326 436.35 191.678C435.387 192.023 434.319 192.195 433.147 192.195C431.917 192.195 430.836 191.928 429.905 191.395C428.98 190.854 428.264 190.073 427.756 189.051C427.255 188.029 426.998 186.827 426.985 185.447V184.48C426.985 183.061 427.223 181.834 427.698 180.799C428.18 179.757 428.87 178.963 429.768 178.416C430.673 177.863 431.731 177.586 432.942 177.586C434.628 177.586 435.947 177.99 436.897 178.797C437.848 179.598 438.411 180.766 438.587 182.303H435.735C435.605 181.489 435.315 180.893 434.866 180.516C434.423 180.138 433.811 179.949 433.03 179.949C432.034 179.949 431.275 180.324 430.755 181.072C430.234 181.821 429.97 182.934 429.963 184.412V185.32C429.963 186.811 430.247 187.938 430.813 188.699C431.38 189.461 432.21 189.842 433.303 189.842C434.404 189.842 435.188 189.607 435.657 189.139V186.688H432.991V184.529H438.587V190.203Z" fill="white"/>
<circle cx="432.971" cy="278.89" r="16.5551" fill="#E8A62F"/>
<path d="M438.772 281.264C438.661 282.794 438.095 283.998 437.073 284.877C436.057 285.756 434.716 286.195 433.049 286.195C431.227 286.195 429.791 285.583 428.743 284.359C427.701 283.129 427.18 281.443 427.18 279.301V278.432C427.18 277.064 427.421 275.86 427.903 274.818C428.385 273.777 429.072 272.979 429.963 272.426C430.862 271.866 431.904 271.586 433.088 271.586C434.729 271.586 436.051 272.025 437.053 272.904C438.056 273.783 438.635 275.017 438.792 276.605H435.862C435.79 275.688 435.533 275.023 435.09 274.613C434.654 274.197 433.987 273.988 433.088 273.988C432.112 273.988 431.38 274.34 430.891 275.043C430.409 275.74 430.162 276.824 430.149 278.295V279.369C430.149 280.906 430.38 282.029 430.842 282.738C431.311 283.448 432.047 283.803 433.049 283.803C433.954 283.803 434.628 283.598 435.071 283.188C435.52 282.771 435.777 282.13 435.842 281.264H438.772Z" fill="white"/>
<line x1="355.43" y1="357.903" x2="352.883" y2="336.254" stroke="white"/>
<line x1="352.948" y1="118.18" x2="363.773" y2="99.7145" stroke="white"/>
<line x1="355.43" y1="75.1932" x2="352.883" y2="53.5442" stroke="white"/>
<path fill-rule="evenodd" clip-rule="evenodd" d="M377.207 59.2675L398.992 74.8464L390.598 99.9517L363.625 99.8886L355.349 74.7444L377.207 59.2675Z" fill="#22B674" stroke="#22B674"/>
<circle cx="355.29" cy="38.8407" r="16.5551" fill="#D42B2B"/>
<path d="M354.022 41.9902V47H351.092V32.7812H356.639C357.707 32.7812 358.644 32.9766 359.451 33.3672C360.265 33.7578 360.89 34.3145 361.326 35.0371C361.763 35.7533 361.981 36.5703 361.981 37.4883C361.981 38.8815 361.502 39.9818 360.545 40.7891C359.595 41.5898 358.276 41.9902 356.59 41.9902H354.022ZM354.022 39.6172H356.639C357.414 39.6172 358.003 39.4349 358.406 39.0703C358.817 38.7057 359.022 38.1849 359.022 37.5078C359.022 36.8112 358.817 36.248 358.406 35.8184C357.996 35.3887 357.43 35.1673 356.707 35.1543H354.022V39.6172Z" fill="white"/>
<line x1="352.948" y1="495.127" x2="363.773" y2="476.661" stroke="white"/>
<line x1="355.43" y1="452.14" x2="352.883" y2="430.491" stroke="white"/>
<path fill-rule="evenodd" clip-rule="evenodd" d="M377.207 436.214L398.992 451.793L390.598 476.898L363.625 476.835L355.349 451.691L377.207 436.214Z" fill="#22B674" stroke="#22B674"/>
<circle cx="355.29" cy="133.078" r="16.5551" fill="#D42B2B"/>
<line x1="352.948" y1="212.417" x2="363.773" y2="193.951" stroke="white"/>
<line x1="355.43" y1="169.43" x2="352.883" y2="147.781" stroke="white"/>
<path fill-rule="evenodd" clip-rule="evenodd" d="M377.207 153.504L398.992 169.083L390.598 194.189L363.625 194.125L355.349 168.981L377.207 153.504Z" fill="#22B674" stroke="#22B674"/>
<circle cx="355.29" cy="133.078" r="16.5551" fill="#D42B2B"/>
<path d="M353.022 136.99V142H350.092V127.781H355.639C356.707 127.781 357.644 127.977 358.451 128.367C359.265 128.758 359.89 129.314 360.326 130.037C360.763 130.753 360.981 131.57 360.981 132.488C360.981 133.882 360.502 134.982 359.545 135.789C358.595 136.59 357.276 136.99 355.59 136.99H353.022ZM353.022 134.617H355.639C356.414 134.617 357.003 134.435 357.406 134.07C357.817 133.706 358.022 133.185 358.022 132.508C358.022 131.811 357.817 131.248 357.406 130.818C356.996 130.389 356.43 130.167 355.707 130.154H353.022V134.617Z" fill="white"/>
<line x1="352.948" y1="306.653" x2="363.773" y2="288.188" stroke="white"/>
<line x1="355.43" y1="263.667" x2="352.883" y2="242.018" stroke="white"/>
<path fill-rule="evenodd" clip-rule="evenodd" d="M377.207 247.741L398.992 263.32L390.598 288.425L363.625 288.362L355.349 263.218L377.207 247.741Z" fill="#22B674" stroke="#22B674"/>
<circle cx="355.29" cy="227.314" r="16.5551" fill="#D42B2B"/>
<path d="M354.022 230.99V236H351.092V221.781H356.639C357.707 221.781 358.644 221.977 359.451 222.367C360.265 222.758 360.89 223.314 361.326 224.037C361.763 224.753 361.981 225.57 361.981 226.488C361.981 227.882 361.502 228.982 360.545 229.789C359.595 230.59 358.276 230.99 356.59 230.99H354.022ZM354.022 228.617H356.639C357.414 228.617 358.003 228.435 358.406 228.07C358.817 227.706 359.022 227.185 359.022 226.508C359.022 225.811 358.817 225.248 358.406 224.818C357.996 224.389 357.43 224.167 356.707 224.154H354.022V228.617Z" fill="white"/>
<circle cx="355.29" cy="321.551" r="16.5551" fill="#D42B2B"/>
<path d="M354.022 324.99V330H351.092V315.781H356.639C357.707 315.781 358.644 315.977 359.451 316.367C360.265 316.758 360.89 317.314 361.326 318.037C361.763 318.753 361.981 319.57 361.981 320.488C361.981 321.882 361.502 322.982 360.545 323.789C359.595 324.59 358.276 324.99 356.59 324.99H354.022ZM354.022 322.617H356.639C357.414 322.617 358.003 322.435 358.406 322.07C358.817 321.706 359.022 321.185 359.022 320.508C359.022 319.811 358.817 319.248 358.406 318.818C357.996 318.389 357.43 318.167 356.707 318.154H354.022V322.617Z" fill="white"/>
<line x1="352.948" y1="400.89" x2="363.773" y2="382.425" stroke="white"/>
<path fill-rule="evenodd" clip-rule="evenodd" d="M377.207 341.978L398.992 357.557L390.598 382.662L363.625 382.599L355.349 357.455L377.207 341.978Z" fill="#22B674" stroke="#22B674"/>
<circle cx="355.285" cy="415.555" r="16.5551" fill="#D42B2B"/>
<path d="M354.017 418.758V423.767H351.087V409.549H356.634C357.702 409.549 358.639 409.744 359.447 410.135C360.261 410.525 360.886 411.082 361.322 411.804C361.758 412.521 361.976 413.338 361.976 414.256C361.976 415.649 361.498 416.749 360.54 417.556C359.59 418.357 358.272 418.758 356.585 418.758H354.017ZM354.017 416.385H356.634C357.409 416.385 357.998 416.202 358.402 415.838C358.812 415.473 359.017 414.952 359.017 414.275C359.017 413.579 358.812 413.015 358.402 412.586C357.992 412.156 357.425 411.935 356.703 411.922H354.017V416.385Z" fill="white"/>
<path d="M355.426 514H352.496V507.906H346.783V514H343.854V499.781H346.783V505.543H352.496V499.781H355.426V514ZM369.674 507.213C369.674 508.613 369.426 509.84 368.932 510.895C368.437 511.949 367.727 512.763 366.803 513.336C365.885 513.909 364.83 514.195 363.639 514.195C362.46 514.195 361.409 513.912 360.484 513.346C359.56 512.779 358.844 511.972 358.336 510.924C357.828 509.869 357.571 508.658 357.564 507.291V506.588C357.564 505.188 357.815 503.958 358.316 502.896C358.824 501.829 359.537 501.012 360.455 500.445C361.38 499.872 362.434 499.586 363.619 499.586C364.804 499.586 365.855 499.872 366.773 500.445C367.698 501.012 368.411 501.829 368.912 502.896C369.42 503.958 369.674 505.185 369.674 506.578V507.213ZM366.705 506.568C366.705 505.077 366.438 503.945 365.904 503.17C365.37 502.395 364.609 502.008 363.619 502.008C362.636 502.008 361.878 502.392 361.344 503.16C360.81 503.922 360.54 505.042 360.533 506.52V507.213C360.533 508.665 360.8 509.791 361.334 510.592C361.868 511.393 362.636 511.793 363.639 511.793C364.622 511.793 365.377 511.409 365.904 510.641C366.432 509.866 366.699 508.74 366.705 507.262V506.568Z" fill="white"/>
<path d="M379.961 59.0923C379.961 59.7922 379.838 60.4058 379.59 60.9331C379.343 61.4604 378.988 61.8674 378.526 62.1538C378.067 62.4403 377.539 62.5835 376.944 62.5835C376.354 62.5835 375.829 62.4419 375.367 62.1587C374.904 61.8755 374.546 61.4718 374.292 60.9478C374.038 60.4204 373.91 59.8149 373.907 59.1313V58.7798C373.907 58.0799 374.032 57.4647 374.283 56.9341C374.536 56.4002 374.893 55.9917 375.352 55.7085C375.814 55.422 376.341 55.2788 376.934 55.2788C377.526 55.2788 378.052 55.422 378.511 55.7085C378.973 55.9917 379.33 56.4002 379.58 56.9341C379.834 57.4647 379.961 58.0783 379.961 58.7749V59.0923ZM378.477 58.77C378.477 58.0246 378.343 57.4582 378.076 57.0708C377.81 56.6834 377.429 56.4897 376.934 56.4897C376.442 56.4897 376.063 56.6818 375.796 57.0659C375.529 57.4468 375.394 58.0067 375.391 58.7456V59.0923C375.391 59.8182 375.524 60.3813 375.791 60.7817C376.058 61.1821 376.442 61.3823 376.944 61.3823C377.435 61.3823 377.813 61.1903 378.076 60.8062C378.34 60.4188 378.474 59.8556 378.477 59.1167V58.77Z" fill="white"/>
<path d="M379.961 152.692C379.961 153.392 379.838 154.006 379.59 154.533C379.343 155.06 378.988 155.467 378.526 155.754C378.067 156.04 377.539 156.183 376.944 156.183C376.354 156.183 375.829 156.042 375.367 155.759C374.904 155.475 374.546 155.072 374.292 154.548C374.038 154.02 373.91 153.415 373.907 152.731V152.38C373.907 151.68 374.032 151.065 374.283 150.534C374.536 150 374.893 149.592 375.352 149.308C375.814 149.022 376.341 148.879 376.934 148.879C377.526 148.879 378.052 149.022 378.511 149.308C378.973 149.592 379.33 150 379.58 150.534C379.834 151.065 379.961 151.678 379.961 152.375V152.692ZM378.477 152.37C378.477 151.624 378.343 151.058 378.076 150.671C377.81 150.283 377.429 150.09 376.934 150.09C376.442 150.09 376.063 150.282 375.796 150.666C375.529 151.047 375.394 151.607 375.391 152.345V152.692C375.391 153.418 375.524 153.981 375.791 154.382C376.058 154.782 376.442 154.982 376.944 154.982C377.435 154.982 377.813 154.79 378.076 154.406C378.34 154.019 378.474 153.455 378.477 152.717V152.37Z" fill="white"/>
<path d="M379.961 246.292C379.961 246.992 379.838 247.606 379.59 248.133C379.343 248.66 378.988 249.067 378.526 249.354C378.067 249.64 377.539 249.783 376.944 249.783C376.354 249.783 375.829 249.642 375.367 249.359C374.904 249.075 374.546 248.672 374.292 248.148C374.038 247.62 373.91 247.015 373.907 246.331V245.98C373.907 245.28 374.032 244.665 374.283 244.134C374.536 243.6 374.893 243.192 375.352 242.908C375.814 242.622 376.341 242.479 376.934 242.479C377.526 242.479 378.052 242.622 378.511 242.908C378.973 243.192 379.33 243.6 379.58 244.134C379.834 244.665 379.961 245.278 379.961 245.975V246.292ZM378.477 245.97C378.477 245.225 378.343 244.658 378.076 244.271C377.81 243.883 377.429 243.69 376.934 243.69C376.442 243.69 376.063 243.882 375.796 244.266C375.529 244.647 375.394 245.207 375.391 245.946V246.292C375.391 247.018 375.524 247.581 375.791 247.982C376.058 248.382 376.442 248.582 376.944 248.582C377.435 248.582 377.813 248.39 378.076 248.006C378.34 247.619 378.474 247.056 378.477 246.317V245.97Z" fill="white"/>
<path d="M379.961 341.166C379.961 341.865 379.838 342.479 379.59 343.006C379.343 343.534 378.988 343.941 378.526 344.227C378.067 344.514 377.539 344.657 376.944 344.657C376.354 344.657 375.829 344.515 375.367 344.232C374.904 343.949 374.546 343.545 374.292 343.021C374.038 342.494 373.91 341.888 373.907 341.205V340.853C373.907 340.153 374.032 339.538 374.283 339.007C374.536 338.473 374.893 338.065 375.352 337.782C375.814 337.495 376.341 337.352 376.934 337.352C377.526 337.352 378.052 337.495 378.511 337.782C378.973 338.065 379.33 338.473 379.58 339.007C379.834 339.538 379.961 340.152 379.961 340.848V341.166ZM378.477 340.843C378.477 340.098 378.343 339.531 378.076 339.144C377.81 338.757 377.429 338.563 376.934 338.563C376.442 338.563 376.063 338.755 375.796 339.139C375.529 339.52 375.394 340.08 375.391 340.819V341.166C375.391 341.891 375.524 342.455 375.791 342.855C376.058 343.255 376.442 343.456 376.944 343.456C377.435 343.456 377.813 343.264 378.076 342.879C378.34 342.492 378.474 341.929 378.477 341.19V340.843Z" fill="white"/>
<path d="M379.961 436.039C379.961 436.739 379.838 437.353 379.59 437.88C379.343 438.407 378.988 438.814 378.526 439.101C378.067 439.387 377.539 439.53 376.944 439.53C376.354 439.53 375.829 439.389 375.367 439.105C374.904 438.822 374.546 438.419 374.292 437.895C374.038 437.367 373.91 436.762 373.907 436.078V435.727C373.907 435.027 374.032 434.411 374.283 433.881C374.536 433.347 374.893 432.938 375.352 432.655C375.814 432.369 376.341 432.226 376.934 432.226C377.526 432.226 378.052 432.369 378.511 432.655C378.973 432.938 379.33 433.347 379.58 433.881C379.834 434.411 379.961 435.025 379.961 435.722V436.039ZM378.477 435.717C378.477 434.971 378.343 434.405 378.076 434.018C377.81 433.63 377.429 433.437 376.934 433.437C376.442 433.437 376.063 433.629 375.796 434.013C375.529 434.394 375.394 434.953 375.391 435.692V436.039C375.391 436.765 375.524 437.328 375.791 437.729C376.058 438.129 376.442 438.329 376.944 438.329C377.435 438.329 377.813 438.137 378.076 437.753C378.34 437.366 378.474 436.802 378.477 436.063V435.717Z" fill="white"/>
<line x1="568.994" y1="107.5" x2="538.027" y2="107.153" stroke="white"/>
<line x1="568.596" y1="484.1" x2="534.849" y2="484.1" stroke="white"/>
<line x1="569.233" y1="389.863" x2="535.486" y2="389.863" stroke="white"/>
<line x1="569.233" y1="295.626" x2="535.486" y2="295.626" stroke="white"/>
<line x1="569.233" y1="201.39" x2="535.486" y2="201.39" stroke="white"/>
<circle cx="534.849" cy="91.3712" r="16.5551" transform="rotate(-180 534.849 91.3712)" fill="#62F2A6"/>
<path d="M528.314 94.0725H532.669V82.2268H535.599V94.0725H539.896V96.4456H528.314V94.0725Z" fill="white"/>
<circle cx="535.486" cy="468.318" r="16.5551" transform="rotate(-180 535.486 468.318)" fill="#F1E023"/>
<path d="M532.315 465.156H537.452L538.428 462.227H541.544L536.251 476.446H533.536L528.213 462.227H531.329L532.315 465.156ZM536.661 467.53H533.106L534.893 472.852L536.661 467.53Z" fill="white"/>
<circle cx="534.849" cy="185.608" r="16.5551" transform="rotate(-180 534.849 185.608)" fill="#E8A62F"/>
<path d="M527.995 183.963C528.105 182.433 528.672 181.229 529.694 180.35C530.71 179.471 532.051 179.031 533.717 179.031C535.54 179.031 536.976 179.643 538.024 180.867C539.066 182.098 539.587 183.784 539.587 185.926V186.795C539.587 188.162 539.346 189.367 538.864 190.408C538.382 191.45 537.695 192.248 536.803 192.801C535.905 193.361 534.863 193.641 533.678 193.641C532.038 193.641 530.716 193.201 529.713 192.323C528.711 191.444 528.131 190.21 527.975 188.621H530.905C530.977 189.539 531.234 190.203 531.676 190.614C532.113 191.03 532.78 191.239 533.678 191.239C534.655 191.239 535.387 190.887 535.876 190.184C536.357 189.487 536.605 188.403 536.618 186.932V185.858C536.618 184.321 536.387 183.198 535.924 182.489C535.456 181.779 534.72 181.424 533.717 181.424C532.812 181.424 532.139 181.629 531.696 182.039C531.247 182.456 530.99 183.097 530.924 183.963H527.995Z" fill="white"/>
<circle cx="534.849" cy="279.845" r="16.5551" transform="rotate(-180 534.849 279.845)" fill="#C6344A"/>
<path d="M528.18 273.024C528.708 272.392 529.453 271.901 530.417 271.549C531.38 271.204 532.448 271.031 533.62 271.031C534.85 271.031 535.931 271.298 536.862 271.832C537.786 272.373 538.503 273.154 539.01 274.176C539.512 275.198 539.769 276.399 539.782 277.78V278.746C539.782 280.166 539.544 281.393 539.069 282.428C538.587 283.47 537.897 284.264 536.999 284.811C536.094 285.364 535.036 285.641 533.825 285.641C532.139 285.641 530.82 285.237 529.87 284.43C528.919 283.629 528.356 282.461 528.18 280.924H531.032C531.162 281.738 531.452 282.334 531.901 282.711C532.344 283.089 532.956 283.278 533.737 283.278C534.733 283.278 535.491 282.903 536.012 282.155C536.533 281.406 536.797 280.293 536.803 278.815V277.906C536.803 276.416 536.52 275.289 535.954 274.528C535.387 273.766 534.557 273.385 533.463 273.385C532.363 273.385 531.579 273.619 531.11 274.088V276.539H533.776V278.698H528.18V273.024Z" fill="white"/>
<circle cx="534.849" cy="373.445" r="16.5551" transform="rotate(-180 534.849 373.445)" fill="#62F2A6"/>
<path d="M529.314 376.073H533.669V364.227H536.599V376.073H540.896V378.446H529.314V376.073Z" fill="white"/>
<g filter="url(#filter1_d)">
<rect x="302.5" y="0.5" width="151" height="113" stroke="white"/>
</g>
<path d="M207.646 56.6464C207.451 56.8417 207.451 57.1583 207.646 57.3536L210.828 60.5355C211.024 60.7308 211.34 60.7308 211.536 60.5355C211.731 60.3403 211.731 60.0237 211.536 59.8284L208.707 57L211.536 54.1716C211.731 53.9763 211.731 53.6597 211.536 53.4645C211.34 53.2692 211.024 53.2692 210.828 53.4645L207.646 56.6464ZM310 56.5L208 56.5V57.5L310 57.5V56.5Z" fill="white"/>
<path d="M207.63 366.146C207.435 366.342 207.435 366.658 207.63 366.854L210.812 370.036C211.008 370.231 211.324 370.231 211.519 370.036C211.715 369.84 211.715 369.524 211.519 369.328L208.691 366.5L211.519 363.672C211.715 363.476 211.715 363.16 211.519 362.964C211.324 362.769 211.008 362.769 210.812 362.964L207.63 366.146ZM348.016 366L207.984 366V367L348.016 367V366Z" fill="white"/>
<path d="M110.471 55.4238C110.471 54.8184 110.008 54.5156 109.082 54.5156C108.625 54.5156 108.266 54.6133 108.004 54.8086C107.742 55.0039 107.611 55.2598 107.611 55.5762V60H106.51V53.7891H107.611V54.3926C108.025 53.9121 108.639 53.6719 109.451 53.6719C110.506 53.6719 111.174 54.043 111.455 54.7852C111.533 54.9961 111.572 55.2305 111.572 55.4883V60H110.471V55.4238ZM118.773 60.1289C117.715 60.1289 117.043 59.7539 116.758 59.0039C116.676 58.7891 116.635 58.5547 116.635 58.3008V53.7891H117.736V58.3066C117.736 58.6113 117.848 58.8516 118.07 59.0273C118.297 59.1992 118.633 59.2852 119.078 59.2852C119.523 59.2852 119.885 59.1758 120.162 58.957C120.443 58.7344 120.584 58.4785 120.584 58.1895V53.7891H121.686V60H120.701L120.584 59.2207C120.24 59.8262 119.637 60.1289 118.773 60.1289ZM126.865 60V51.1758H127.967V56.9297L130.938 53.7891H132.145L129.619 56.5195L132.396 60H131.125L128.898 57.1172L127.967 58.043V60H126.865ZM138.631 60.0469C138.268 60.0469 137.971 60.0195 137.74 59.9648C137.51 59.9102 137.307 59.8066 137.131 59.6543C136.803 59.3691 136.639 58.7852 136.639 57.9023V51.1816H137.74V57.9141C137.74 58.4141 137.814 58.7402 137.963 58.8926C138.111 59.0449 138.418 59.1211 138.883 59.1211H139.076L138.947 60.0469H138.631ZM146.055 60.1289C145.145 60.1289 144.486 59.9395 144.08 59.5605C143.674 59.1816 143.471 58.5977 143.471 57.8086V55.6465C143.471 55.0332 143.68 54.5508 144.098 54.1992C144.516 53.8477 145.146 53.6719 145.99 53.6719C146.838 53.6719 147.467 53.8359 147.877 54.1641C148.291 54.4883 148.498 54.9531 148.498 55.5586V57.0352H144.572V57.9082C144.572 58.4238 144.676 58.7832 144.883 58.9863C145.09 59.1855 145.463 59.2852 146.002 59.2852C146.541 59.2852 146.846 59.2734 146.916 59.25C146.986 59.2266 147.059 59.1992 147.133 59.168C147.207 59.1367 147.258 59.0996 147.285 59.0566C147.316 59.0137 147.355 58.9492 147.402 58.8633C147.453 58.7734 147.49 58.6016 147.514 58.3477H148.486C148.447 58.7188 148.381 59.0176 148.287 59.2441C148.197 59.4707 148.053 59.6523 147.854 59.7891C147.658 59.9219 147.422 60.0117 147.145 60.0586C146.871 60.1055 146.508 60.1289 146.055 60.1289ZM144.572 56.291H147.432V55.4414C147.432 55.0898 147.311 54.8477 147.068 54.7148C146.83 54.582 146.479 54.5156 146.014 54.5156C145.549 54.5156 145.191 54.5957 144.941 54.7559C144.695 54.916 144.572 55.1797 144.572 55.5469V56.291ZM154.357 58.248C154.357 58.9395 154.848 59.2852 155.828 59.2852C156.809 59.2852 157.299 58.9395 157.299 58.248V55.5586C157.299 54.8633 156.809 54.5156 155.828 54.5156C154.848 54.5156 154.357 54.8633 154.357 55.5586V58.248ZM158.4 58.1543C158.4 58.7637 158.191 59.2461 157.773 59.6016C157.359 59.9531 156.709 60.1289 155.822 60.1289C154.936 60.1289 154.285 59.9531 153.871 59.6016C153.461 59.25 153.256 58.7676 153.256 58.1543V55.6523C153.256 55.0391 153.461 54.5566 153.871 54.2051C154.285 53.8496 154.936 53.6719 155.822 53.6719C156.709 53.6719 157.359 53.8496 157.773 54.2051C158.191 54.5605 158.4 55.043 158.4 55.6523V58.1543ZM166.229 60.0469C165.361 60.0469 164.734 59.9102 164.348 59.6367C163.965 59.3633 163.773 58.8926 163.773 58.2246V54.6211H162.736V53.7891H163.814L163.949 51.8672H164.875V53.7891H166.434V54.6211H164.875V58.1543C164.875 58.5449 164.986 58.8047 165.209 58.9336C165.436 59.0586 165.828 59.1211 166.387 59.1211H166.51L166.393 60.0469H166.229ZM171.396 60V53.7891H172.498V60H171.396ZM171.396 52.6699V51.5273H172.498V52.6699H171.396ZM180.145 53.6719C180.645 53.6719 181.104 53.75 181.521 53.9062V51.1758H182.623V60H181.873L181.691 59.5898C181.5 59.7383 181.248 59.8652 180.936 59.9707C180.623 60.0762 180.314 60.1289 180.01 60.1289C179.162 60.1289 178.539 59.9414 178.141 59.5664C177.746 59.1875 177.549 58.6777 177.549 58.0371V55.6934C177.549 55.0488 177.762 54.5508 178.188 54.1992C178.613 53.8477 179.266 53.6719 180.145 53.6719ZM178.65 58.1191C178.65 58.4902 178.781 58.7734 179.043 58.9688C179.309 59.1641 179.619 59.2617 179.975 59.2617C180.607 59.2617 181.123 59.1387 181.521 58.8926V54.7734C181.166 54.6016 180.734 54.5156 180.227 54.5156C179.176 54.5156 178.65 54.8672 178.65 55.5703V58.1191ZM189.473 60.1289C188.844 60.1289 188.355 59.959 188.008 59.6191C187.66 59.2754 187.486 58.8496 187.486 58.3418C187.486 58.0527 187.547 57.8125 187.668 57.6211C187.914 57.2305 188.648 56.8574 189.871 56.502C190.578 56.3066 190.984 56.1387 191.09 55.998C191.199 55.8574 191.26 55.748 191.271 55.6699C191.283 55.5879 191.289 55.459 191.289 55.2832C191.289 55.1074 191.217 54.9355 191.072 54.7676C190.932 54.5996 190.623 54.5156 190.146 54.5156C189.475 54.5156 189.062 54.6445 188.91 54.9023C188.832 55.0352 188.793 55.2148 188.793 55.4414V55.7168H187.732V55.4355C187.732 54.8301 187.934 54.3848 188.336 54.0996C188.742 53.8145 189.348 53.6719 190.152 53.6719C190.957 53.6719 191.531 53.8555 191.875 54.2227C192.219 54.5859 192.391 55.1055 192.391 55.7812V58.4297C192.391 58.7539 192.432 58.9648 192.514 59.0625C192.596 59.1562 192.771 59.2031 193.041 59.2031L192.912 60.0469H192.689C192.299 60.0469 192.008 59.9727 191.816 59.8242C191.625 59.6719 191.479 59.4375 191.377 59.1211C191.053 59.6055 190.662 59.9102 190.205 60.0352C189.986 60.0977 189.742 60.1289 189.473 60.1289ZM190.023 57.2578C189.469 57.418 189.084 57.5781 188.869 57.7383C188.658 57.8984 188.553 58.125 188.553 58.418C188.553 58.707 188.65 58.9258 188.846 59.0742C189.045 59.2227 189.283 59.2969 189.561 59.2969C189.842 59.2969 190.096 59.2617 190.322 59.1914C190.549 59.1172 190.752 59.0098 190.932 58.8691C191.115 58.7246 191.234 58.5605 191.289 58.377V56.584C191.004 56.8691 190.582 57.0938 190.023 57.2578ZM22.7793 80.8789C22.2441 80.8789 21.7578 80.8027 21.3203 80.6504C21.0508 80.5566 20.7754 80.3477 20.4941 80.0234C20.3535 79.8633 20.2402 79.6074 20.1543 79.2559C20.0684 78.9004 20.0234 78.5703 20.0195 78.2656C20.0156 77.9609 20.0137 77.6797 20.0137 77.4219V74.3809C20.0137 73.5918 20.0332 73.1035 20.0723 72.916C20.1113 72.7246 20.1523 72.5391 20.1953 72.3594C20.2383 72.1758 20.2949 72.0312 20.3652 71.9258C20.4355 71.8164 20.5195 71.6953 20.6172 71.5625C20.7148 71.4258 20.832 71.3203 20.9688 71.2461C21.1055 71.168 21.2969 71.0781 21.543 70.9766C21.793 70.8711 22.2051 70.8184 22.7793 70.8184V71.7031C22.0918 71.7031 21.6484 71.8711 21.4492 72.207C21.3711 72.3398 21.2988 72.4863 21.2324 72.6465C21.1699 72.8066 21.1387 73.3125 21.1387 74.1641V77.6035C21.1387 78.4434 21.1699 78.9414 21.2324 79.0977C21.3887 79.4766 21.5586 79.709 21.7422 79.7949C22.0352 79.9316 22.3809 80 22.7793 80V80.8789ZM25.1875 80V74.6211H24.1504V73.7891H25.1875V72.8457C25.1875 72.2715 25.3438 71.8516 25.6562 71.5859C25.9727 71.3164 26.4531 71.1816 27.0977 71.1816H27.7949L27.8652 71.9609H27.1855C26.5879 71.9609 26.2891 72.2207 26.2891 72.7402V73.7891H27.7949V74.6211H26.2891V80H25.1875ZM30.1035 78.248C30.1035 78.9395 30.5938 79.2852 31.5742 79.2852C32.5547 79.2852 33.0449 78.9395 33.0449 78.248V75.5586C33.0449 74.8633 32.5547 74.5156 31.5742 74.5156C30.5938 74.5156 30.1035 74.8633 30.1035 75.5586V78.248ZM34.1465 78.1543C34.1465 78.7637 33.9375 79.2461 33.5195 79.6016C33.1055 79.9531 32.4551 80.1289 31.5684 80.1289C30.6816 80.1289 30.0312 79.9531 29.6172 79.6016C29.207 79.25 29.002 78.7676 29.002 78.1543V75.6523C29.002 75.0391 29.207 74.5566 29.6172 74.2051C30.0312 73.8496 30.6816 73.6719 31.5684 73.6719C32.4551 73.6719 33.1055 73.8496 33.5195 74.2051C33.9375 74.5605 34.1465 75.043 34.1465 75.6523V78.1543ZM37.9609 79.2852C38.793 79.2852 39.209 78.9746 39.209 78.3535C39.209 78.084 39.1719 77.8848 39.0977 77.7559C39.0234 77.623 38.8496 77.5059 38.5762 77.4043L37.0996 76.8594C36.6465 76.6992 36.3301 76.5098 36.1504 76.291C35.9746 76.0684 35.8867 75.791 35.8867 75.459C35.8867 75.127 35.9199 74.8613 35.9863 74.6621C36.0527 74.459 36.1621 74.2812 36.3145 74.1289C36.6191 73.8242 37.166 73.6719 37.9551 73.6719C38.7441 73.6719 39.4238 73.7852 39.9941 74.0117L39.7422 74.8555C39.543 74.7734 39.2812 74.6973 38.957 74.627C38.6328 74.5527 38.3496 74.5156 38.1074 74.5156C37.5488 74.5156 37.1953 74.6055 37.0469 74.7852C36.957 74.8984 36.9121 75.0645 36.9121 75.2832C36.9121 75.502 36.9473 75.6582 37.0176 75.752C37.0918 75.8418 37.2344 75.9238 37.4453 75.998L38.9043 76.5723C39.4121 76.7715 39.7461 76.9922 39.9062 77.2344C40.0664 77.4727 40.1465 77.8496 40.1465 78.3652C40.1465 78.8809 39.9805 79.3047 39.6484 79.6367C39.3164 79.9648 38.8027 80.1289 38.1074 80.1289C37.5996 80.1289 37.1484 80.0742 36.7539 79.9648C36.3594 79.8555 36.0566 79.7422 35.8457 79.625L36.1152 78.8164C36.6738 79.1289 37.2891 79.2852 37.9609 79.2852ZM42.5078 80V74.6211H41.4707V73.7891H42.5078V72.8457C42.5078 72.2715 42.6641 71.8516 42.9766 71.5859C43.293 71.3164 43.7734 71.1816 44.418 71.1816H45.1152L45.1855 71.9609H44.5059C43.9082 71.9609 43.6094 72.2207 43.6094 72.7402V73.7891H45.1152V74.6211H43.6094V80H42.5078ZM47.4238 78.248C47.4238 78.9395 47.9141 79.2852 48.8945 79.2852C49.875 79.2852 50.3652 78.9395 50.3652 78.248V75.5586C50.3652 74.8633 49.875 74.5156 48.8945 74.5156C47.9141 74.5156 47.4238 74.8633 47.4238 75.5586V78.248ZM51.4668 78.1543C51.4668 78.7637 51.2578 79.2461 50.8398 79.6016C50.4258 79.9531 49.7754 80.1289 48.8887 80.1289C48.002 80.1289 47.3516 79.9531 46.9375 79.6016C46.5273 79.25 46.3223 78.7676 46.3223 78.1543V75.6523C46.3223 75.0391 46.5273 74.5566 46.9375 74.2051C47.3516 73.8496 48.002 73.6719 48.8887 73.6719C49.7754 73.6719 50.4258 73.8496 50.8398 74.2051C51.2578 74.5605 51.4668 75.043 51.4668 75.6523V78.1543ZM53.4238 80V73.7891H54.5254V74.668C54.666 74.2852 55.0469 74.0078 55.668 73.8359C55.9922 73.7422 56.3301 73.6973 56.6816 73.7012L56.6465 74.6445C56.1152 74.6445 55.6289 74.75 55.1875 74.9609C54.7461 75.1719 54.5254 75.4023 54.5254 75.6523V80H53.4238ZM62.0371 75.4238C62.0371 74.8184 61.5742 74.5156 60.6484 74.5156C60.1914 74.5156 59.832 74.6133 59.5703 74.8086C59.3086 75.0039 59.1777 75.2598 59.1777 75.5762V80H58.0762V73.7891H59.1777V74.3926C59.5918 73.9121 60.2051 73.6719 61.0176 73.6719C62.0723 73.6719 62.7402 74.043 63.0215 74.7852C63.0996 74.9961 63.1387 75.2305 63.1387 75.4883V80H62.0371V75.4238ZM66.9297 80.1289C66.3008 80.1289 65.8125 79.959 65.4648 79.6191C65.1172 79.2754 64.9434 78.8496 64.9434 78.3418C64.9434 78.0527 65.0039 77.8125 65.125 77.6211C65.3711 77.2305 66.1055 76.8574 67.3281 76.502C68.0352 76.3066 68.4414 76.1387 68.5469 75.998C68.6562 75.8574 68.7168 75.748 68.7285 75.6699C68.7402 75.5879 68.7461 75.459 68.7461 75.2832C68.7461 75.1074 68.6738 74.9355 68.5293 74.7676C68.3887 74.5996 68.0801 74.5156 67.6035 74.5156C66.9316 74.5156 66.5195 74.6445 66.3672 74.9023C66.2891 75.0352 66.25 75.2148 66.25 75.4414V75.7168H65.1895V75.4355C65.1895 74.8301 65.3906 74.3848 65.793 74.0996C66.1992 73.8145 66.8047 73.6719 67.6094 73.6719C68.4141 73.6719 68.9883 73.8555 69.332 74.2227C69.6758 74.5859 69.8477 75.1055 69.8477 75.7812V78.4297C69.8477 78.7539 69.8887 78.9648 69.9707 79.0625C70.0527 79.1562 70.2285 79.2031 70.498 79.2031L70.3691 80.0469H70.1465C69.7559 80.0469 69.4648 79.9727 69.2734 79.8242C69.082 79.6719 68.9355 79.4375 68.834 79.1211C68.5098 79.6055 68.1191 79.9102 67.6621 80.0352C67.4434 80.0977 67.1992 80.1289 66.9297 80.1289ZM67.4805 77.2578C66.9258 77.418 66.541 77.5781 66.3262 77.7383C66.1152 77.8984 66.0098 78.125 66.0098 78.418C66.0098 78.707 66.1074 78.9258 66.3027 79.0742C66.502 79.2227 66.7402 79.2969 67.0176 79.2969C67.2988 79.2969 67.5527 79.2617 67.7793 79.1914C68.0059 79.1172 68.209 79.0098 68.3887 78.8691C68.5723 78.7246 68.6914 78.5605 68.7461 78.377V76.584C68.4609 76.8691 68.0391 77.0938 67.4805 77.2578ZM75.7656 81.3301C76.1719 81.4785 76.6699 81.5527 77.2598 81.5527C77.8496 81.5527 78.2617 81.4414 78.4961 81.2188C78.7344 80.9961 78.8535 80.6504 78.8535 80.1816V79.3203C78.6934 79.4688 78.4531 79.5801 78.1328 79.6543C77.8164 79.7285 77.5254 79.7656 77.2598 79.7656C75.6895 79.7656 74.9043 79.1035 74.9043 77.7793V75.7344C74.9043 75.0898 75.0996 74.5859 75.4902 74.2227C75.8848 73.8555 76.4746 73.6719 77.2598 73.6719C77.5723 73.6719 77.8926 73.7383 78.2207 73.8711C78.5527 74 78.7637 74.1387 78.8535 74.2871V73.7891H79.9551V79.8535C79.9551 80.5996 79.7578 81.209 79.3633 81.6816C78.9727 82.1543 78.3398 82.3906 77.4648 82.3906C76.5898 82.3906 75.9414 82.3125 75.5195 82.1562L75.7656 81.3301ZM78.8535 75.3711C78.8535 74.8008 78.3789 74.5156 77.4297 74.5156C76.4805 74.5156 76.0059 74.8828 76.0059 75.6172V77.9492C76.0059 78.5977 76.4805 78.9219 77.4297 78.9219C77.9883 78.9219 78.4629 78.7656 78.8535 78.4531V75.3711ZM82.0762 80V73.7891H83.1777V74.668C83.3184 74.2852 83.6992 74.0078 84.3203 73.8359C84.6445 73.7422 84.9824 73.6973 85.334 73.7012L85.2988 74.6445C84.7676 74.6445 84.2812 74.75 83.8398 74.9609C83.3984 75.1719 83.1777 75.4023 83.1777 75.6523V80H82.0762ZM88.8086 80.1289C87.75 80.1289 87.0781 79.7539 86.793 79.0039C86.7109 78.7891 86.6699 78.5547 86.6699 78.3008V73.7891H87.7715V78.3066C87.7715 78.6113 87.8828 78.8516 88.1055 79.0273C88.332 79.1992 88.668 79.2852 89.1133 79.2852C89.5586 79.2852 89.9199 79.1758 90.1973 78.957C90.4785 78.7344 90.6191 78.4785 90.6191 78.1895V73.7891H91.7207V80H90.7363L90.6191 79.2207C90.2754 79.8262 89.6719 80.1289 88.8086 80.1289ZM93.9004 82.3906V73.7891H94.7676L94.8965 74.2578C95.0762 74.0977 95.3223 73.9609 95.6348 73.8477C95.9473 73.7305 96.2715 73.6719 96.6074 73.6719C97.377 73.6719 97.9609 73.8594 98.3594 74.2344C98.7617 74.6094 98.9629 75.1074 98.9629 75.7285V77.9844C98.9629 78.625 98.7441 79.1426 98.3066 79.5371C97.8691 79.9316 97.2559 80.1289 96.4668 80.1289C95.9199 80.1289 95.4316 80.0195 95.002 79.8008V82.3906H93.9004ZM95.002 78.9512C95.3965 79.1738 95.8379 79.2852 96.3262 79.2852C96.8145 79.2852 97.1914 79.1816 97.457 78.9746C97.7266 78.7676 97.8613 78.4766 97.8613 78.1016V75.6406C97.8613 75.2812 97.7285 75.0039 97.4629 74.8086C97.2012 74.6133 96.8789 74.5156 96.4961 74.5156C96.1172 74.5156 95.793 74.5938 95.5234 74.75C95.2578 74.9062 95.084 75.0469 95.002 75.1719V78.9512ZM102.59 80.1289C101.961 80.1289 101.473 79.959 101.125 79.6191C100.777 79.2754 100.604 78.8496 100.604 78.3418C100.604 78.0527 100.664 77.8125 100.785 77.6211C101.031 77.2305 101.766 76.8574 102.988 76.502C103.695 76.3066 104.102 76.1387 104.207 75.998C104.316 75.8574 104.377 75.748 104.389 75.6699C104.4 75.5879 104.406 75.459 104.406 75.2832C104.406 75.1074 104.334 74.9355 104.189 74.7676C104.049 74.5996 103.74 74.5156 103.264 74.5156C102.592 74.5156 102.18 74.6445 102.027 74.9023C101.949 75.0352 101.91 75.2148 101.91 75.4414V75.7168H100.85V75.4355C100.85 74.8301 101.051 74.3848 101.453 74.0996C101.859 73.8145 102.465 73.6719 103.27 73.6719C104.074 73.6719 104.648 73.8555 104.992 74.2227C105.336 74.5859 105.508 75.1055 105.508 75.7812V78.4297C105.508 78.7539 105.549 78.9648 105.631 79.0625C105.713 79.1562 105.889 79.2031 106.158 79.2031L106.029 80.0469H105.807C105.416 80.0469 105.125 79.9727 104.934 79.8242C104.742 79.6719 104.596 79.4375 104.494 79.1211C104.17 79.6055 103.779 79.9102 103.322 80.0352C103.104 80.0977 102.859 80.1289 102.59 80.1289ZM103.141 77.2578C102.586 77.418 102.201 77.5781 101.986 77.7383C101.775 77.8984 101.67 78.125 101.67 78.418C101.67 78.707 101.768 78.9258 101.963 79.0742C102.162 79.2227 102.4 79.2969 102.678 79.2969C102.959 79.2969 103.213 79.2617 103.439 79.1914C103.666 79.1172 103.869 79.0098 104.049 78.8691C104.232 78.7246 104.352 78.5605 104.406 78.377V76.584C104.121 76.8691 103.699 77.0938 103.141 77.2578ZM112.258 79.0859V77.1055H110.646V76.2383H112.258V74.3281H113.143V76.2383H114.748V77.1055H113.143V79.0859H112.258ZM122.16 73.6719C122.66 73.6719 123.119 73.75 123.537 73.9062V71.1758H124.639V80H123.889L123.707 79.5898C123.516 79.7383 123.264 79.8652 122.951 79.9707C122.639 80.0762 122.33 80.1289 122.025 80.1289C121.178 80.1289 120.555 79.9414 120.156 79.5664C119.762 79.1875 119.564 78.6777 119.564 78.0371V75.6934C119.564 75.0488 119.777 74.5508 120.203 74.1992C120.629 73.8477 121.281 73.6719 122.16 73.6719ZM120.666 78.1191C120.666 78.4902 120.797 78.7734 121.059 78.9688C121.324 79.1641 121.635 79.2617 121.99 79.2617C122.623 79.2617 123.139 79.1387 123.537 78.8926V74.7734C123.182 74.6016 122.75 74.5156 122.242 74.5156C121.191 74.5156 120.666 74.8672 120.666 75.5703V78.1191ZM129.18 80.1289C128.27 80.1289 127.611 79.9395 127.205 79.5605C126.799 79.1816 126.596 78.5977 126.596 77.8086V75.6465C126.596 75.0332 126.805 74.5508 127.223 74.1992C127.641 73.8477 128.271 73.6719 129.115 73.6719C129.963 73.6719 130.592 73.8359 131.002 74.1641C131.416 74.4883 131.623 74.9531 131.623 75.5586V77.0352H127.697V77.9082C127.697 78.4238 127.801 78.7832 128.008 78.9863C128.215 79.1855 128.588 79.2852 129.127 79.2852C129.666 79.2852 129.971 79.2734 130.041 79.25C130.111 79.2266 130.184 79.1992 130.258 79.168C130.332 79.1367 130.383 79.0996 130.41 79.0566C130.441 79.0137 130.48 78.9492 130.527 78.8633C130.578 78.7734 130.615 78.6016 130.639 78.3477H131.611C131.572 78.7188 131.506 79.0176 131.412 79.2441C131.322 79.4707 131.178 79.6523 130.979 79.7891C130.783 79.9219 130.547 80.0117 130.27 80.0586C129.996 80.1055 129.633 80.1289 129.18 80.1289ZM127.697 76.291H130.557V75.4414C130.557 75.0898 130.436 74.8477 130.193 74.7148C129.955 74.582 129.604 74.5156 129.139 74.5156C128.674 74.5156 128.316 74.5957 128.066 74.7559C127.82 74.916 127.697 75.1797 127.697 75.5469V76.291ZM133.334 80V79.3086L136.305 74.5156H133.439V73.7891H137.465V74.4629L134.477 79.2734H137.518V80H133.334ZM140.131 78.248C140.131 78.9395 140.621 79.2852 141.602 79.2852C142.582 79.2852 143.072 78.9395 143.072 78.248V75.5586C143.072 74.8633 142.582 74.5156 141.602 74.5156C140.621 74.5156 140.131 74.8633 140.131 75.5586V78.248ZM144.174 78.1543C144.174 78.7637 143.965 79.2461 143.547 79.6016C143.133 79.9531 142.482 80.1289 141.596 80.1289C140.709 80.1289 140.059 79.9531 139.645 79.6016C139.234 79.25 139.029 78.7676 139.029 78.1543V75.6523C139.029 75.0391 139.234 74.5566 139.645 74.2051C140.059 73.8496 140.709 73.6719 141.596 73.6719C142.482 73.6719 143.133 73.8496 143.547 74.2051C143.965 74.5605 144.174 75.043 144.174 75.6523V78.1543ZM146.131 80V71.1758H147.232V76.9297L150.203 73.7891H151.41L148.885 76.5195L151.662 80H150.391L148.164 77.1172L147.232 78.043V80H146.131ZM154.738 79.2852C155.57 79.2852 155.986 78.9746 155.986 78.3535C155.986 78.084 155.949 77.8848 155.875 77.7559C155.801 77.623 155.627 77.5059 155.354 77.4043L153.877 76.8594C153.424 76.6992 153.107 76.5098 152.928 76.291C152.752 76.0684 152.664 75.791 152.664 75.459C152.664 75.127 152.697 74.8613 152.764 74.6621C152.83 74.459 152.939 74.2812 153.092 74.1289C153.396 73.8242 153.943 73.6719 154.732 73.6719C155.521 73.6719 156.201 73.7852 156.771 74.0117L156.52 74.8555C156.32 74.7734 156.059 74.6973 155.734 74.627C155.41 74.5527 155.127 74.5156 154.885 74.5156C154.326 74.5156 153.973 74.6055 153.824 74.7852C153.734 74.8984 153.689 75.0645 153.689 75.2832C153.689 75.502 153.725 75.6582 153.795 75.752C153.869 75.8418 154.012 75.9238 154.223 75.998L155.682 76.5723C156.189 76.7715 156.523 76.9922 156.684 77.2344C156.844 77.4727 156.924 77.8496 156.924 78.3652C156.924 78.8809 156.758 79.3047 156.426 79.6367C156.094 79.9648 155.58 80.1289 154.885 80.1289C154.377 80.1289 153.926 80.0742 153.531 79.9648C153.137 79.8555 152.834 79.7422 152.623 79.625L152.893 78.8164C153.451 79.1289 154.066 79.2852 154.738 79.2852ZM158.811 80V73.7891H159.912V80H158.811ZM158.811 72.6699V71.5273H159.912V72.6699H158.811ZM162.186 80V73.7891H163.287V74.668C163.428 74.2852 163.809 74.0078 164.43 73.8359C164.754 73.7422 165.092 73.6973 165.443 73.7012L165.408 74.6445C164.877 74.6445 164.391 74.75 163.949 74.9609C163.508 75.1719 163.287 75.4023 163.287 75.6523V80H162.186ZM166.955 80V73.7891H168.057V80H166.955ZM166.955 72.6699V71.5273H168.057V72.6699H166.955ZM171.432 74.082C171.916 73.8086 172.5 73.6719 173.184 73.6719C173.867 73.6719 174.412 73.8535 174.818 74.2168C175.225 74.5801 175.428 75.0703 175.428 75.6875V77.9375C175.428 78.582 175.205 79.1094 174.76 79.5195C174.314 79.9258 173.697 80.1289 172.908 80.1289C172.408 80.1289 171.867 79.9473 171.285 79.584L171.145 80H170.33V71.1758H171.432V74.082ZM174.326 75.6055C174.326 74.8789 173.867 74.5156 172.949 74.5156C172.5 74.5156 171.994 74.6445 171.432 74.9023V78.8984C171.861 79.1406 172.299 79.2617 172.744 79.2617C173.193 79.2617 173.568 79.1543 173.869 78.9395C174.174 78.7207 174.326 78.4258 174.326 78.0547V75.6055ZM178.264 78.248C178.264 78.9395 178.754 79.2852 179.734 79.2852C180.715 79.2852 181.205 78.9395 181.205 78.248V75.5586C181.205 74.8633 180.715 74.5156 179.734 74.5156C178.754 74.5156 178.264 74.8633 178.264 75.5586V78.248ZM182.307 78.1543C182.307 78.7637 182.098 79.2461 181.68 79.6016C181.266 79.9531 180.615 80.1289 179.729 80.1289C178.842 80.1289 178.191 79.9531 177.777 79.6016C177.367 79.25 177.162 78.7676 177.162 78.1543V75.6523C177.162 75.0391 177.367 74.5566 177.777 74.2051C178.191 73.8496 178.842 73.6719 179.729 73.6719C180.615 73.6719 181.266 73.8496 181.68 74.2051C182.098 74.5605 182.307 75.043 182.307 75.6523V78.1543ZM183.994 80V79.3086L186.965 74.5156H184.1V73.7891H188.125V74.4629L185.137 79.2734H188.178V80H183.994ZM191.582 80.1289C190.953 80.1289 190.465 79.959 190.117 79.6191C189.77 79.2754 189.596 78.8496 189.596 78.3418C189.596 78.0527 189.656 77.8125 189.777 77.6211C190.023 77.2305 190.758 76.8574 191.98 76.502C192.688 76.3066 193.094 76.1387 193.199 75.998C193.309 75.8574 193.369 75.748 193.381 75.6699C193.393 75.5879 193.398 75.459 193.398 75.2832C193.398 75.1074 193.326 74.9355 193.182 74.7676C193.041 74.5996 192.732 74.5156 192.256 74.5156C191.584 74.5156 191.172 74.6445 191.02 74.9023C190.941 75.0352 190.902 75.2148 190.902 75.4414V75.7168H189.842V75.4355C189.842 74.8301 190.043 74.3848 190.445 74.0996C190.852 73.8145 191.457 73.6719 192.262 73.6719C193.066 73.6719 193.641 73.8555 193.984 74.2227C194.328 74.5859 194.5 75.1055 194.5 75.7812V78.4297C194.5 78.7539 194.541 78.9648 194.623 79.0625C194.705 79.1562 194.881 79.2031 195.15 79.2031L195.021 80.0469H194.799C194.408 80.0469 194.117 79.9727 193.926 79.8242C193.734 79.6719 193.588 79.4375 193.486 79.1211C193.162 79.6055 192.771 79.9102 192.314 80.0352C192.096 80.0977 191.852 80.1289 191.582 80.1289ZM192.133 77.2578C191.578 77.418 191.193 77.5781 190.979 77.7383C190.768 77.8984 190.662 78.125 190.662 78.418C190.662 78.707 190.76 78.9258 190.955 79.0742C191.154 79.2227 191.393 79.2969 191.67 79.2969C191.951 79.2969 192.205 79.2617 192.432 79.1914C192.658 79.1172 192.861 79.0098 193.041 78.8691C193.225 78.7246 193.344 78.5605 193.398 78.377V76.584C193.113 76.8691 192.691 77.0938 192.133 77.2578ZM201.25 79.0859V77.1055H199.639V76.2383H201.25V74.3281H202.135V76.2383H203.74V77.1055H202.135V79.0859H201.25ZM210.449 80.1289C209.82 80.1289 209.332 79.959 208.984 79.6191C208.637 79.2754 208.463 78.8496 208.463 78.3418C208.463 78.0527 208.523 77.8125 208.645 77.6211C208.891 77.2305 209.625 76.8574 210.848 76.502C211.555 76.3066 211.961 76.1387 212.066 75.998C212.176 75.8574 212.236 75.748 212.248 75.6699C212.26 75.5879 212.266 75.459 212.266 75.2832C212.266 75.1074 212.193 74.9355 212.049 74.7676C211.908 74.5996 211.6 74.5156 211.123 74.5156C210.451 74.5156 210.039 74.6445 209.887 74.9023C209.809 75.0352 209.77 75.2148 209.77 75.4414V75.7168H208.709V75.4355C208.709 74.8301 208.91 74.3848 209.312 74.0996C209.719 73.8145 210.324 73.6719 211.129 73.6719C211.934 73.6719 212.508 73.8555 212.852 74.2227C213.195 74.5859 213.367 75.1055 213.367 75.7812V78.4297C213.367 78.7539 213.408 78.9648 213.49 79.0625C213.572 79.1562 213.748 79.2031 214.018 79.2031L213.889 80.0469H213.666C213.275 80.0469 212.984 79.9727 212.793 79.8242C212.602 79.6719 212.455 79.4375 212.354 79.1211C212.029 79.6055 211.639 79.9102 211.182 80.0352C210.963 80.0977 210.719 80.1289 210.449 80.1289ZM211 77.2578C210.445 77.418 210.061 77.5781 209.846 77.7383C209.635 77.8984 209.529 78.125 209.529 78.418C209.529 78.707 209.627 78.9258 209.822 79.0742C210.021 79.2227 210.26 79.2969 210.537 79.2969C210.818 79.2969 211.072 79.2617 211.299 79.1914C211.525 79.1172 211.729 79.0098 211.908 78.8691C212.092 78.7246 212.211 78.5605 212.266 78.377V76.584C211.98 76.8691 211.559 77.0938 211 77.2578ZM215.377 80V79.3086L218.348 74.5156H215.482V73.7891H219.508V74.4629L216.52 79.2734H219.561V80H215.377ZM222.174 78.248C222.174 78.9395 222.664 79.2852 223.645 79.2852C224.625 79.2852 225.115 78.9395 225.115 78.248V75.5586C225.115 74.8633 224.625 74.5156 223.645 74.5156C222.664 74.5156 222.174 74.8633 222.174 75.5586V78.248ZM226.217 78.1543C226.217 78.7637 226.008 79.2461 225.59 79.6016C225.176 79.9531 224.525 80.1289 223.639 80.1289C222.752 80.1289 222.102 79.9531 221.688 79.6016C221.277 79.25 221.072 78.7676 221.072 78.1543V75.6523C221.072 75.0391 221.277 74.5566 221.688 74.2051C222.102 73.8496 222.752 73.6719 223.639 73.6719C224.525 73.6719 225.176 73.8496 225.59 74.2051C226.008 74.5605 226.217 75.043 226.217 75.6523V78.1543ZM231.045 80.0469C230.178 80.0469 229.551 79.9102 229.164 79.6367C228.781 79.3633 228.59 78.8926 228.59 78.2246V74.6211H227.553V73.7891H228.631L228.766 71.8672H229.691V73.7891H231.25V74.6211H229.691V78.1543C229.691 78.5449 229.803 78.8047 230.025 78.9336C230.252 79.0586 230.645 79.1211 231.203 79.1211H231.326L231.209 80.0469H231.045ZM237.057 75.4238C237.057 74.8184 236.594 74.5156 235.668 74.5156C235.211 74.5156 234.852 74.6133 234.59 74.8086C234.328 75.0039 234.197 75.2598 234.197 75.5762V80H233.096V73.7891H234.197V74.3926C234.611 73.9121 235.225 73.6719 236.037 73.6719C237.092 73.6719 237.76 74.043 238.041 74.7852C238.119 74.9961 238.158 75.2305 238.158 75.4883V80H237.057V75.4238ZM241.949 80.1289C241.32 80.1289 240.832 79.959 240.484 79.6191C240.137 79.2754 239.963 78.8496 239.963 78.3418C239.963 78.0527 240.023 77.8125 240.145 77.6211C240.391 77.2305 241.125 76.8574 242.348 76.502C243.055 76.3066 243.461 76.1387 243.566 75.998C243.676 75.8574 243.736 75.748 243.748 75.6699C243.76 75.5879 243.766 75.459 243.766 75.2832C243.766 75.1074 243.693 74.9355 243.549 74.7676C243.408 74.5996 243.1 74.5156 242.623 74.5156C241.951 74.5156 241.539 74.6445 241.387 74.9023C241.309 75.0352 241.27 75.2148 241.27 75.4414V75.7168H240.209V75.4355C240.209 74.8301 240.41 74.3848 240.812 74.0996C241.219 73.8145 241.824 73.6719 242.629 73.6719C243.434 73.6719 244.008 73.8555 244.352 74.2227C244.695 74.5859 244.867 75.1055 244.867 75.7812V78.4297C244.867 78.7539 244.908 78.9648 244.99 79.0625C245.072 79.1562 245.248 79.2031 245.518 79.2031L245.389 80.0469H245.166C244.775 80.0469 244.484 79.9727 244.293 79.8242C244.102 79.6719 243.955 79.4375 243.854 79.1211C243.529 79.6055 243.139 79.9102 242.682 80.0352C242.463 80.0977 242.219 80.1289 241.949 80.1289ZM242.5 77.2578C241.945 77.418 241.561 77.5781 241.346 77.7383C241.135 77.8984 241.029 78.125 241.029 78.418C241.029 78.707 241.127 78.9258 241.322 79.0742C241.521 79.2227 241.76 79.2969 242.037 79.2969C242.318 79.2969 242.572 79.2617 242.799 79.1914C243.025 79.1172 243.229 79.0098 243.408 78.8691C243.592 78.7246 243.711 78.5605 243.766 78.377V76.584C243.48 76.8691 243.059 77.0938 242.5 77.2578ZM251.248 74.082C251.732 73.8086 252.316 73.6719 253 73.6719C253.684 73.6719 254.229 73.8535 254.635 74.2168C255.041 74.5801 255.244 75.0703 255.244 75.6875V77.9375C255.244 78.582 255.021 79.1094 254.576 79.5195C254.131 79.9258 253.514 80.1289 252.725 80.1289C252.225 80.1289 251.684 79.9473 251.102 79.584L250.961 80H250.146V71.1758H251.248V74.082ZM254.143 75.6055C254.143 74.8789 253.684 74.5156 252.766 74.5156C252.316 74.5156 251.811 74.6445 251.248 74.9023V78.8984C251.678 79.1406 252.115 79.2617 252.561 79.2617C253.01 79.2617 253.385 79.1543 253.686 78.9395C253.99 78.7207 254.143 78.4258 254.143 78.0547V75.6055ZM258.871 80.1289C258.242 80.1289 257.754 79.959 257.406 79.6191C257.059 79.2754 256.885 78.8496 256.885 78.3418C256.885 78.0527 256.945 77.8125 257.066 77.6211C257.312 77.2305 258.047 76.8574 259.27 76.502C259.977 76.3066 260.383 76.1387 260.488 75.998C260.598 75.8574 260.658 75.748 260.67 75.6699C260.682 75.5879 260.688 75.459 260.688 75.2832C260.688 75.1074 260.615 74.9355 260.471 74.7676C260.33 74.5996 260.021 74.5156 259.545 74.5156C258.873 74.5156 258.461 74.6445 258.309 74.9023C258.23 75.0352 258.191 75.2148 258.191 75.4414V75.7168H257.131V75.4355C257.131 74.8301 257.332 74.3848 257.734 74.0996C258.141 73.8145 258.746 73.6719 259.551 73.6719C260.355 73.6719 260.93 73.8555 261.273 74.2227C261.617 74.5859 261.789 75.1055 261.789 75.7812V78.4297C261.789 78.7539 261.83 78.9648 261.912 79.0625C261.994 79.1562 262.17 79.2031 262.439 79.2031L262.311 80.0469H262.088C261.697 80.0469 261.406 79.9727 261.215 79.8242C261.023 79.6719 260.877 79.4375 260.775 79.1211C260.451 79.6055 260.061 79.9102 259.604 80.0352C259.385 80.0977 259.141 80.1289 258.871 80.1289ZM259.422 77.2578C258.867 77.418 258.482 77.5781 258.268 77.7383C258.057 77.8984 257.951 78.125 257.951 78.418C257.951 78.707 258.049 78.9258 258.244 79.0742C258.443 79.2227 258.682 79.2969 258.959 79.2969C259.24 79.2969 259.494 79.2617 259.721 79.1914C259.947 79.1172 260.15 79.0098 260.33 78.8691C260.514 78.7246 260.633 78.5605 260.688 78.377V76.584C260.402 76.8691 259.98 77.0938 259.422 77.2578ZM263.799 80V79.3086L266.77 74.5156H263.904V73.7891H267.93V74.4629L264.941 79.2734H267.982V80H263.799ZM271.387 80.1289C270.758 80.1289 270.27 79.959 269.922 79.6191C269.574 79.2754 269.4 78.8496 269.4 78.3418C269.4 78.0527 269.461 77.8125 269.582 77.6211C269.828 77.2305 270.562 76.8574 271.785 76.502C272.492 76.3066 272.898 76.1387 273.004 75.998C273.113 75.8574 273.174 75.748 273.186 75.6699C273.197 75.5879 273.203 75.459 273.203 75.2832C273.203 75.1074 273.131 74.9355 272.986 74.7676C272.846 74.5996 272.537 74.5156 272.061 74.5156C271.389 74.5156 270.977 74.6445 270.824 74.9023C270.746 75.0352 270.707 75.2148 270.707 75.4414V75.7168H269.646V75.4355C269.646 74.8301 269.848 74.3848 270.25 74.0996C270.656 73.8145 271.262 73.6719 272.066 73.6719C272.871 73.6719 273.445 73.8555 273.789 74.2227C274.133 74.5859 274.305 75.1055 274.305 75.7812V78.4297C274.305 78.7539 274.346 78.9648 274.428 79.0625C274.51 79.1562 274.686 79.2031 274.955 79.2031L274.826 80.0469H274.604C274.213 80.0469 273.922 79.9727 273.73 79.8242C273.539 79.6719 273.393 79.4375 273.291 79.1211C272.967 79.6055 272.576 79.9102 272.119 80.0352C271.9 80.0977 271.656 80.1289 271.387 80.1289ZM271.938 77.2578C271.383 77.418 270.998 77.5781 270.783 77.7383C270.572 77.8984 270.467 78.125 270.467 78.418C270.467 78.707 270.564 78.9258 270.76 79.0742C270.959 79.2227 271.197 79.2969 271.475 79.2969C271.756 79.2969 272.01 79.2617 272.236 79.1914C272.463 79.1172 272.666 79.0098 272.846 78.8691C273.029 78.7246 273.148 78.5605 273.203 78.377V76.584C272.918 76.8691 272.496 77.0938 271.938 77.2578ZM276.221 80.8789V79.9941C276.908 79.998 277.352 79.832 277.551 79.4961C277.629 79.3633 277.699 79.2168 277.762 79.0566C277.828 78.8926 277.861 78.3848 277.861 77.5332V74.0938C277.861 73.2539 277.83 72.7559 277.768 72.5996C277.611 72.2207 277.441 71.9883 277.258 71.9023C276.965 71.7656 276.619 71.6973 276.221 71.6973V70.8184C276.756 70.8184 277.242 70.8945 277.68 71.0469C277.949 71.1406 278.225 71.3496 278.506 71.6738C278.646 71.834 278.76 72.0918 278.846 72.4473C278.932 72.7988 278.977 73.127 278.98 73.4316C278.984 73.7363 278.986 74.0176 278.986 74.2754V77.3164C278.986 78.1055 278.967 78.5957 278.928 78.7871C278.889 78.9746 278.848 79.1602 278.805 79.3438C278.762 79.5234 278.705 79.668 278.635 79.7773C278.564 79.8828 278.48 80.002 278.383 80.1348C278.285 80.2715 278.168 80.377 278.031 80.4512C277.895 80.5293 277.701 80.6191 277.451 80.7207C277.205 80.8262 276.795 80.8789 276.221 80.8789Z" fill="white"/>
<path d="M122.041 366.424C122.041 365.818 121.578 365.516 120.652 365.516C120.195 365.516 119.836 365.613 119.574 365.809C119.312 366.004 119.182 366.26 119.182 366.576V371H118.08V364.789H119.182V365.393C119.596 364.912 120.209 364.672 121.021 364.672C122.076 364.672 122.744 365.043 123.025 365.785C123.104 365.996 123.143 366.23 123.143 366.488V371H122.041V366.424ZM130.344 371.129C129.285 371.129 128.613 370.754 128.328 370.004C128.246 369.789 128.205 369.555 128.205 369.301V364.789H129.307V369.307C129.307 369.611 129.418 369.852 129.641 370.027C129.867 370.199 130.203 370.285 130.648 370.285C131.094 370.285 131.455 370.176 131.732 369.957C132.014 369.734 132.154 369.479 132.154 369.189V364.789H133.256V371H132.271L132.154 370.221C131.811 370.826 131.207 371.129 130.344 371.129ZM138.436 371V362.176H139.537V367.93L142.508 364.789H143.715L141.189 367.52L143.967 371H142.695L140.469 368.117L139.537 369.043V371H138.436ZM150.201 371.047C149.838 371.047 149.541 371.02 149.311 370.965C149.08 370.91 148.877 370.807 148.701 370.654C148.373 370.369 148.209 369.785 148.209 368.902V362.182H149.311V368.914C149.311 369.414 149.385 369.74 149.533 369.893C149.682 370.045 149.988 370.121 150.453 370.121H150.646L150.518 371.047H150.201ZM157.625 371.129C156.715 371.129 156.057 370.939 155.65 370.561C155.244 370.182 155.041 369.598 155.041 368.809V366.646C155.041 366.033 155.25 365.551 155.668 365.199C156.086 364.848 156.717 364.672 157.561 364.672C158.408 364.672 159.037 364.836 159.447 365.164C159.861 365.488 160.068 365.953 160.068 366.559V368.035H156.143V368.908C156.143 369.424 156.246 369.783 156.453 369.986C156.66 370.186 157.033 370.285 157.572 370.285C158.111 370.285 158.416 370.273 158.486 370.25C158.557 370.227 158.629 370.199 158.703 370.168C158.777 370.137 158.828 370.1 158.855 370.057C158.887 370.014 158.926 369.949 158.973 369.863C159.023 369.773 159.061 369.602 159.084 369.348H160.057C160.018 369.719 159.951 370.018 159.857 370.244C159.768 370.471 159.623 370.652 159.424 370.789C159.229 370.922 158.992 371.012 158.715 371.059C158.441 371.105 158.078 371.129 157.625 371.129ZM156.143 367.291H159.002V366.441C159.002 366.09 158.881 365.848 158.639 365.715C158.4 365.582 158.049 365.516 157.584 365.516C157.119 365.516 156.762 365.596 156.512 365.756C156.266 365.916 156.143 366.18 156.143 366.547V367.291ZM165.928 369.248C165.928 369.939 166.418 370.285 167.398 370.285C168.379 370.285 168.869 369.939 168.869 369.248V366.559C168.869 365.863 168.379 365.516 167.398 365.516C166.418 365.516 165.928 365.863 165.928 366.559V369.248ZM169.971 369.154C169.971 369.764 169.762 370.246 169.344 370.602C168.93 370.953 168.279 371.129 167.393 371.129C166.506 371.129 165.855 370.953 165.441 370.602C165.031 370.25 164.826 369.768 164.826 369.154V366.652C164.826 366.039 165.031 365.557 165.441 365.205C165.855 364.85 166.506 364.672 167.393 364.672C168.279 364.672 168.93 364.85 169.344 365.205C169.762 365.561 169.971 366.043 169.971 366.652V369.154ZM174.658 371V370.309L177.629 365.516H174.764V364.789H178.789V365.463L175.801 370.273H178.842V371H174.658ZM183.693 371V364.789H184.795V371H183.693ZM183.693 363.67V362.527H184.795V363.67H183.693ZM192.441 364.672C192.941 364.672 193.4 364.75 193.818 364.906V362.176H194.92V371H194.17L193.988 370.59C193.797 370.738 193.545 370.865 193.232 370.971C192.92 371.076 192.611 371.129 192.307 371.129C191.459 371.129 190.836 370.941 190.438 370.566C190.043 370.188 189.846 369.678 189.846 369.037V366.693C189.846 366.049 190.059 365.551 190.484 365.199C190.91 364.848 191.562 364.672 192.441 364.672ZM190.947 369.119C190.947 369.49 191.078 369.773 191.34 369.969C191.605 370.164 191.916 370.262 192.271 370.262C192.904 370.262 193.42 370.139 193.818 369.893V365.773C193.463 365.602 193.031 365.516 192.523 365.516C191.473 365.516 190.947 365.867 190.947 366.57V369.119ZM77.375 391.879C76.8398 391.879 76.3535 391.803 75.916 391.65C75.6465 391.557 75.3711 391.348 75.0898 391.023C74.9492 390.863 74.8359 390.607 74.75 390.256C74.6641 389.9 74.6191 389.57 74.6152 389.266C74.6113 388.961 74.6094 388.68 74.6094 388.422V385.381C74.6094 384.592 74.6289 384.104 74.668 383.916C74.707 383.725 74.748 383.539 74.791 383.359C74.834 383.176 74.8906 383.031 74.9609 382.926C75.0312 382.816 75.1152 382.695 75.2129 382.562C75.3105 382.426 75.4277 382.32 75.5645 382.246C75.7012 382.168 75.8926 382.078 76.1387 381.977C76.3887 381.871 76.8008 381.818 77.375 381.818V382.703C76.6875 382.703 76.2441 382.871 76.0449 383.207C75.9668 383.34 75.8945 383.486 75.8281 383.646C75.7656 383.807 75.7344 384.312 75.7344 385.164V388.604C75.7344 389.443 75.7656 389.941 75.8281 390.098C75.9844 390.477 76.1543 390.709 76.3379 390.795C76.6309 390.932 76.9766 391 77.375 391V391.879ZM81.5645 384.672C82.0645 384.672 82.5234 384.75 82.9414 384.906V382.176H84.043V391H83.293L83.1113 390.59C82.9199 390.738 82.668 390.865 82.3555 390.971C82.043 391.076 81.7344 391.129 81.4297 391.129C80.582 391.129 79.959 390.941 79.5605 390.566C79.166 390.188 78.9688 389.678 78.9688 389.037V386.693C78.9688 386.049 79.1816 385.551 79.6074 385.199C80.0332 384.848 80.6855 384.672 81.5645 384.672ZM80.0703 389.119C80.0703 389.49 80.2012 389.773 80.4629 389.969C80.7285 390.164 81.0391 390.262 81.3945 390.262C82.0273 390.262 82.543 390.139 82.9414 389.893V385.773C82.5859 385.602 82.1543 385.516 81.6465 385.516C80.5957 385.516 80.0703 385.867 80.0703 386.57V389.119ZM88.584 391.129C87.6738 391.129 87.0156 390.939 86.6094 390.561C86.2031 390.182 86 389.598 86 388.809V386.646C86 386.033 86.209 385.551 86.627 385.199C87.0449 384.848 87.6758 384.672 88.5195 384.672C89.3672 384.672 89.9961 384.836 90.4062 385.164C90.8203 385.488 91.0273 385.953 91.0273 386.559V388.035H87.1016V388.908C87.1016 389.424 87.2051 389.783 87.4121 389.986C87.6191 390.186 87.9922 390.285 88.5312 390.285C89.0703 390.285 89.375 390.273 89.4453 390.25C89.5156 390.227 89.5879 390.199 89.6621 390.168C89.7363 390.137 89.7871 390.1 89.8145 390.057C89.8457 390.014 89.8848 389.949 89.9316 389.863C89.9824 389.773 90.0195 389.602 90.043 389.348H91.0156C90.9766 389.719 90.9102 390.018 90.8164 390.244C90.7266 390.471 90.582 390.652 90.3828 390.789C90.1875 390.922 89.9512 391.012 89.6738 391.059C89.4004 391.105 89.0371 391.129 88.584 391.129ZM87.1016 387.291H89.9609V386.441C89.9609 386.09 89.8398 385.848 89.5977 385.715C89.3594 385.582 89.0078 385.516 88.543 385.516C88.0781 385.516 87.7207 385.596 87.4707 385.756C87.2246 385.916 87.1016 386.18 87.1016 386.547V387.291ZM92.7383 391V390.309L95.709 385.516H92.8438V384.789H96.8691V385.463L93.8809 390.273H96.9219V391H92.7383ZM99.5352 389.248C99.5352 389.939 100.025 390.285 101.006 390.285C101.986 390.285 102.477 389.939 102.477 389.248V386.559C102.477 385.863 101.986 385.516 101.006 385.516C100.025 385.516 99.5352 385.863 99.5352 386.559V389.248ZM103.578 389.154C103.578 389.764 103.369 390.246 102.951 390.602C102.537 390.953 101.887 391.129 101 391.129C100.113 391.129 99.4629 390.953 99.0488 390.602C98.6387 390.25 98.4336 389.768 98.4336 389.154V386.652C98.4336 386.039 98.6387 385.557 99.0488 385.205C99.4629 384.85 100.113 384.672 101 384.672C101.887 384.672 102.537 384.85 102.951 385.205C103.369 385.561 103.578 386.043 103.578 386.652V389.154ZM105.535 391V382.176H106.637V387.93L109.607 384.789H110.814L108.289 387.52L111.066 391H109.795L107.568 388.117L106.637 389.043V391H105.535ZM114.143 390.285C114.975 390.285 115.391 389.975 115.391 389.354C115.391 389.084 115.354 388.885 115.279 388.756C115.205 388.623 115.031 388.506 114.758 388.404L113.281 387.859C112.828 387.699 112.512 387.51 112.332 387.291C112.156 387.068 112.068 386.791 112.068 386.459C112.068 386.127 112.102 385.861 112.168 385.662C112.234 385.459 112.344 385.281 112.496 385.129C112.801 384.824 113.348 384.672 114.137 384.672C114.926 384.672 115.605 384.785 116.176 385.012L115.924 385.855C115.725 385.773 115.463 385.697 115.139 385.627C114.814 385.553 114.531 385.516 114.289 385.516C113.73 385.516 113.377 385.605 113.229 385.785C113.139 385.898 113.094 386.064 113.094 386.283C113.094 386.502 113.129 386.658 113.199 386.752C113.273 386.842 113.416 386.924 113.627 386.998L115.086 387.572C115.594 387.771 115.928 387.992 116.088 388.234C116.248 388.473 116.328 388.85 116.328 389.365C116.328 389.881 116.162 390.305 115.83 390.637C115.498 390.965 114.984 391.129 114.289 391.129C113.781 391.129 113.33 391.074 112.936 390.965C112.541 390.855 112.238 390.742 112.027 390.625L112.297 389.816C112.855 390.129 113.471 390.285 114.143 390.285ZM118.215 391V384.789H119.316V391H118.215ZM118.215 383.67V382.527H119.316V383.67H118.215ZM121.59 391V384.789H122.691V385.668C122.832 385.285 123.213 385.008 123.834 384.836C124.158 384.742 124.496 384.697 124.848 384.701L124.812 385.645C124.281 385.645 123.795 385.75 123.354 385.961C122.912 386.172 122.691 386.402 122.691 386.652V391H121.59ZM126.359 391V384.789H127.461V391H126.359ZM126.359 383.67V382.527H127.461V383.67H126.359ZM130.836 385.082C131.32 384.809 131.904 384.672 132.588 384.672C133.271 384.672 133.816 384.854 134.223 385.217C134.629 385.58 134.832 386.07 134.832 386.688V388.938C134.832 389.582 134.609 390.109 134.164 390.52C133.719 390.926 133.102 391.129 132.312 391.129C131.812 391.129 131.271 390.947 130.689 390.584L130.549 391H129.734V382.176H130.836V385.082ZM133.73 386.605C133.73 385.879 133.271 385.516 132.354 385.516C131.904 385.516 131.398 385.645 130.836 385.902V389.898C131.266 390.141 131.703 390.262 132.148 390.262C132.598 390.262 132.973 390.154 133.273 389.939C133.578 389.721 133.73 389.426 133.73 389.055V386.605ZM137.668 389.248C137.668 389.939 138.158 390.285 139.139 390.285C140.119 390.285 140.609 389.939 140.609 389.248V386.559C140.609 385.863 140.119 385.516 139.139 385.516C138.158 385.516 137.668 385.863 137.668 386.559V389.248ZM141.711 389.154C141.711 389.764 141.502 390.246 141.084 390.602C140.67 390.953 140.02 391.129 139.133 391.129C138.246 391.129 137.596 390.953 137.182 390.602C136.771 390.25 136.566 389.768 136.566 389.154V386.652C136.566 386.039 136.771 385.557 137.182 385.205C137.596 384.85 138.246 384.672 139.133 384.672C140.02 384.672 140.67 384.85 141.084 385.205C141.502 385.561 141.711 386.043 141.711 386.652V389.154ZM143.398 391V390.309L146.369 385.516H143.504V384.789H147.529V385.463L144.541 390.273H147.582V391H143.398ZM150.986 391.129C150.357 391.129 149.869 390.959 149.521 390.619C149.174 390.275 149 389.85 149 389.342C149 389.053 149.061 388.812 149.182 388.621C149.428 388.23 150.162 387.857 151.385 387.502C152.092 387.307 152.498 387.139 152.604 386.998C152.713 386.857 152.773 386.748 152.785 386.67C152.797 386.588 152.803 386.459 152.803 386.283C152.803 386.107 152.73 385.936 152.586 385.768C152.445 385.6 152.137 385.516 151.66 385.516C150.988 385.516 150.576 385.645 150.424 385.902C150.346 386.035 150.307 386.215 150.307 386.441V386.717H149.246V386.436C149.246 385.83 149.447 385.385 149.85 385.1C150.256 384.814 150.861 384.672 151.666 384.672C152.471 384.672 153.045 384.855 153.389 385.223C153.732 385.586 153.904 386.105 153.904 386.781V389.43C153.904 389.754 153.945 389.965 154.027 390.062C154.109 390.156 154.285 390.203 154.555 390.203L154.426 391.047H154.203C153.812 391.047 153.521 390.973 153.33 390.824C153.139 390.672 152.992 390.438 152.891 390.121C152.566 390.605 152.176 390.91 151.719 391.035C151.5 391.098 151.256 391.129 150.986 391.129ZM151.537 388.258C150.982 388.418 150.598 388.578 150.383 388.738C150.172 388.898 150.066 389.125 150.066 389.418C150.066 389.707 150.164 389.926 150.359 390.074C150.559 390.223 150.797 390.297 151.074 390.297C151.355 390.297 151.609 390.262 151.836 390.191C152.062 390.117 152.266 390.01 152.445 389.869C152.629 389.725 152.748 389.561 152.803 389.377V387.584C152.518 387.869 152.096 388.094 151.537 388.258ZM160.654 390.086V388.105H159.043V387.238H160.654V385.328H161.539V387.238H163.145V388.105H161.539V390.086H160.654ZM169.854 391.129C169.225 391.129 168.736 390.959 168.389 390.619C168.041 390.275 167.867 389.85 167.867 389.342C167.867 389.053 167.928 388.812 168.049 388.621C168.295 388.23 169.029 387.857 170.252 387.502C170.959 387.307 171.365 387.139 171.471 386.998C171.58 386.857 171.641 386.748 171.652 386.67C171.664 386.588 171.67 386.459 171.67 386.283C171.67 386.107 171.598 385.936 171.453 385.768C171.312 385.6 171.004 385.516 170.527 385.516C169.855 385.516 169.443 385.645 169.291 385.902C169.213 386.035 169.174 386.215 169.174 386.441V386.717H168.113V386.436C168.113 385.83 168.314 385.385 168.717 385.1C169.123 384.814 169.729 384.672 170.533 384.672C171.338 384.672 171.912 384.855 172.256 385.223C172.6 385.586 172.771 386.105 172.771 386.781V389.43C172.771 389.754 172.812 389.965 172.895 390.062C172.977 390.156 173.152 390.203 173.422 390.203L173.293 391.047H173.07C172.68 391.047 172.389 390.973 172.197 390.824C172.006 390.672 171.859 390.438 171.758 390.121C171.434 390.605 171.043 390.91 170.586 391.035C170.367 391.098 170.123 391.129 169.854 391.129ZM170.404 388.258C169.85 388.418 169.465 388.578 169.25 388.738C169.039 388.898 168.934 389.125 168.934 389.418C168.934 389.707 169.031 389.926 169.227 390.074C169.426 390.223 169.664 390.297 169.941 390.297C170.223 390.297 170.477 390.262 170.703 390.191C170.93 390.117 171.133 390.01 171.312 389.869C171.496 389.725 171.615 389.561 171.67 389.377V387.584C171.385 387.869 170.963 388.094 170.404 388.258ZM174.781 391V390.309L177.752 385.516H174.887V384.789H178.912V385.463L175.924 390.273H178.965V391H174.781ZM181.578 389.248C181.578 389.939 182.068 390.285 183.049 390.285C184.029 390.285 184.52 389.939 184.52 389.248V386.559C184.52 385.863 184.029 385.516 183.049 385.516C182.068 385.516 181.578 385.863 181.578 386.559V389.248ZM185.621 389.154C185.621 389.764 185.412 390.246 184.994 390.602C184.58 390.953 183.93 391.129 183.043 391.129C182.156 391.129 181.506 390.953 181.092 390.602C180.682 390.25 180.477 389.768 180.477 389.154V386.652C180.477 386.039 180.682 385.557 181.092 385.205C181.506 384.85 182.156 384.672 183.043 384.672C183.93 384.672 184.58 384.85 184.994 385.205C185.412 385.561 185.621 386.043 185.621 386.652V389.154ZM190.449 391.047C189.582 391.047 188.955 390.91 188.568 390.637C188.186 390.363 187.994 389.893 187.994 389.225V385.621H186.957V384.789H188.035L188.17 382.867H189.096V384.789H190.654V385.621H189.096V389.154C189.096 389.545 189.207 389.805 189.43 389.934C189.656 390.059 190.049 390.121 190.607 390.121H190.73L190.613 391.047H190.449ZM196.461 386.424C196.461 385.818 195.998 385.516 195.072 385.516C194.615 385.516 194.256 385.613 193.994 385.809C193.732 386.004 193.602 386.26 193.602 386.576V391H192.5V384.789H193.602V385.393C194.016 384.912 194.629 384.672 195.441 384.672C196.496 384.672 197.164 385.043 197.445 385.785C197.523 385.996 197.562 386.23 197.562 386.488V391H196.461V386.424ZM201.354 391.129C200.725 391.129 200.236 390.959 199.889 390.619C199.541 390.275 199.367 389.85 199.367 389.342C199.367 389.053 199.428 388.812 199.549 388.621C199.795 388.23 200.529 387.857 201.752 387.502C202.459 387.307 202.865 387.139 202.971 386.998C203.08 386.857 203.141 386.748 203.152 386.67C203.164 386.588 203.17 386.459 203.17 386.283C203.17 386.107 203.098 385.936 202.953 385.768C202.812 385.6 202.504 385.516 202.027 385.516C201.355 385.516 200.943 385.645 200.791 385.902C200.713 386.035 200.674 386.215 200.674 386.441V386.717H199.613V386.436C199.613 385.83 199.814 385.385 200.217 385.1C200.623 384.814 201.229 384.672 202.033 384.672C202.838 384.672 203.412 384.855 203.756 385.223C204.1 385.586 204.271 386.105 204.271 386.781V389.43C204.271 389.754 204.312 389.965 204.395 390.062C204.477 390.156 204.652 390.203 204.922 390.203L204.793 391.047H204.57C204.18 391.047 203.889 390.973 203.697 390.824C203.506 390.672 203.359 390.438 203.258 390.121C202.934 390.605 202.543 390.91 202.086 391.035C201.867 391.098 201.623 391.129 201.354 391.129ZM201.904 388.258C201.35 388.418 200.965 388.578 200.75 388.738C200.539 388.898 200.434 389.125 200.434 389.418C200.434 389.707 200.531 389.926 200.727 390.074C200.926 390.223 201.164 390.297 201.441 390.297C201.723 390.297 201.977 390.262 202.203 390.191C202.43 390.117 202.633 390.01 202.812 389.869C202.996 389.725 203.115 389.561 203.17 389.377V387.584C202.885 387.869 202.463 388.094 201.904 388.258ZM210.652 385.082C211.137 384.809 211.721 384.672 212.404 384.672C213.088 384.672 213.633 384.854 214.039 385.217C214.445 385.58 214.648 386.07 214.648 386.688V388.938C214.648 389.582 214.426 390.109 213.98 390.52C213.535 390.926 212.918 391.129 212.129 391.129C211.629 391.129 211.088 390.947 210.506 390.584L210.365 391H209.551V382.176H210.652V385.082ZM213.547 386.605C213.547 385.879 213.088 385.516 212.17 385.516C211.721 385.516 211.215 385.645 210.652 385.902V389.898C211.082 390.141 211.52 390.262 211.965 390.262C212.414 390.262 212.789 390.154 213.09 389.939C213.395 389.721 213.547 389.426 213.547 389.055V386.605ZM218.275 391.129C217.646 391.129 217.158 390.959 216.811 390.619C216.463 390.275 216.289 389.85 216.289 389.342C216.289 389.053 216.35 388.812 216.471 388.621C216.717 388.23 217.451 387.857 218.674 387.502C219.381 387.307 219.787 387.139 219.893 386.998C220.002 386.857 220.062 386.748 220.074 386.67C220.086 386.588 220.092 386.459 220.092 386.283C220.092 386.107 220.02 385.936 219.875 385.768C219.734 385.6 219.426 385.516 218.949 385.516C218.277 385.516 217.865 385.645 217.713 385.902C217.635 386.035 217.596 386.215 217.596 386.441V386.717H216.535V386.436C216.535 385.83 216.736 385.385 217.139 385.1C217.545 384.814 218.15 384.672 218.955 384.672C219.76 384.672 220.334 384.855 220.678 385.223C221.021 385.586 221.193 386.105 221.193 386.781V389.43C221.193 389.754 221.234 389.965 221.316 390.062C221.398 390.156 221.574 390.203 221.844 390.203L221.715 391.047H221.492C221.102 391.047 220.811 390.973 220.619 390.824C220.428 390.672 220.281 390.438 220.18 390.121C219.855 390.605 219.465 390.91 219.008 391.035C218.789 391.098 218.545 391.129 218.275 391.129ZM218.826 388.258C218.271 388.418 217.887 388.578 217.672 388.738C217.461 388.898 217.355 389.125 217.355 389.418C217.355 389.707 217.453 389.926 217.648 390.074C217.848 390.223 218.086 390.297 218.363 390.297C218.645 390.297 218.898 390.262 219.125 390.191C219.352 390.117 219.555 390.01 219.734 389.869C219.918 389.725 220.037 389.561 220.092 389.377V387.584C219.807 387.869 219.385 388.094 218.826 388.258ZM223.203 391V390.309L226.174 385.516H223.309V384.789H227.334V385.463L224.346 390.273H227.387V391H223.203ZM230.791 391.129C230.162 391.129 229.674 390.959 229.326 390.619C228.979 390.275 228.805 389.85 228.805 389.342C228.805 389.053 228.865 388.812 228.986 388.621C229.232 388.23 229.967 387.857 231.189 387.502C231.896 387.307 232.303 387.139 232.408 386.998C232.518 386.857 232.578 386.748 232.59 386.67C232.602 386.588 232.607 386.459 232.607 386.283C232.607 386.107 232.535 385.936 232.391 385.768C232.25 385.6 231.941 385.516 231.465 385.516C230.793 385.516 230.381 385.645 230.229 385.902C230.15 386.035 230.111 386.215 230.111 386.441V386.717H229.051V386.436C229.051 385.83 229.252 385.385 229.654 385.1C230.061 384.814 230.666 384.672 231.471 384.672C232.275 384.672 232.85 384.855 233.193 385.223C233.537 385.586 233.709 386.105 233.709 386.781V389.43C233.709 389.754 233.75 389.965 233.832 390.062C233.914 390.156 234.09 390.203 234.359 390.203L234.23 391.047H234.008C233.617 391.047 233.326 390.973 233.135 390.824C232.943 390.672 232.797 390.438 232.695 390.121C232.371 390.605 231.98 390.91 231.523 391.035C231.305 391.098 231.061 391.129 230.791 391.129ZM231.342 388.258C230.787 388.418 230.402 388.578 230.188 388.738C229.977 388.898 229.871 389.125 229.871 389.418C229.871 389.707 229.969 389.926 230.164 390.074C230.363 390.223 230.602 390.297 230.879 390.297C231.16 390.297 231.414 390.262 231.641 390.191C231.867 390.117 232.07 390.01 232.25 389.869C232.434 389.725 232.553 389.561 232.607 389.377V387.584C232.322 387.869 231.9 388.094 231.342 388.258ZM235.625 391.879V390.994C236.312 390.998 236.756 390.832 236.955 390.496C237.033 390.363 237.104 390.217 237.166 390.057C237.232 389.893 237.266 389.385 237.266 388.533V385.094C237.266 384.254 237.234 383.756 237.172 383.6C237.016 383.221 236.846 382.988 236.662 382.902C236.369 382.766 236.023 382.697 235.625 382.697V381.818C236.16 381.818 236.646 381.895 237.084 382.047C237.354 382.141 237.629 382.35 237.91 382.674C238.051 382.834 238.164 383.092 238.25 383.447C238.336 383.799 238.381 384.127 238.385 384.432C238.389 384.736 238.391 385.018 238.391 385.275V388.316C238.391 389.105 238.371 389.596 238.332 389.787C238.293 389.975 238.252 390.16 238.209 390.344C238.166 390.523 238.109 390.668 238.039 390.777C237.969 390.883 237.885 391.002 237.787 391.135C237.689 391.271 237.572 391.377 237.436 391.451C237.299 391.529 237.105 391.619 236.855 391.721C236.609 391.826 236.199 391.879 235.625 391.879Z" fill="white"/>
<g filter="url(#filter2_d)">
<path d="M467.5 368C467.5 378.244 460.449 387.609 448.855 394.439C437.272 401.263 421.238 405.5 403.5 405.5C385.762 405.5 369.728 401.263 358.145 394.439C346.551 387.609 339.5 378.244 339.5 368C339.5 357.756 346.551 348.391 358.145 341.561C369.728 334.737 385.762 330.5 403.5 330.5C421.238 330.5 437.272 334.737 448.855 341.561C460.449 348.391 467.5 357.756 467.5 368Z" stroke="white"/>
</g>
</g>
<path d="M426.029 597.168C424.789 597.168 423.766 596.963 422.96 596.553L423.363 595.198C424.281 595.589 425.145 595.784 425.956 595.784C426.576 595.784 426.927 595.508 427.01 594.957C427.02 594.888 427.025 594.825 427.025 594.766C427.025 594.371 426.803 594.102 426.358 593.96L424.63 593.418C424.039 593.233 423.619 592.955 423.37 592.583C423.126 592.212 423.004 591.761 423.004 591.229C423.004 591.209 423.004 591.189 423.004 591.17C423.014 589.7 424.02 588.965 426.021 588.965C427.008 588.965 427.892 589.188 428.673 589.632L428.204 590.87C427.955 590.738 427.616 590.621 427.186 590.518C426.761 590.411 426.361 590.357 425.985 590.357C425.609 590.357 425.335 590.425 425.165 590.562C424.994 590.694 424.908 590.923 424.908 591.25C424.908 591.573 425.089 591.79 425.45 591.902L427.076 592.415C427.726 592.62 428.182 592.908 428.446 593.279C428.714 593.65 428.849 594.168 428.849 594.832C428.849 595.496 428.604 596.053 428.116 596.502C427.628 596.946 426.932 597.168 426.029 597.168ZM438.092 597.088C436.896 597.088 436.039 596.907 435.521 596.546C435.003 596.185 434.745 595.503 434.745 594.502V590.401H433.697V589.134H434.803L434.986 586.607H436.737V589.134H438.604V590.401H436.737V594.363C436.737 594.852 436.852 595.181 437.081 595.352C437.315 595.523 437.762 595.608 438.421 595.608H438.656L438.583 597.088H438.092ZM444.142 597V589.134H446.134V590.071C446.251 589.847 446.495 589.646 446.866 589.471C447.506 589.163 448.124 589.009 448.719 589.009C448.788 589.009 448.851 589.012 448.91 589.017L448.866 590.708C447.992 590.752 447.267 590.916 446.69 591.199C446.368 591.355 446.183 591.531 446.134 591.727V597H444.142ZM458.9 596.136C458.744 596.458 458.441 596.712 457.992 596.897C457.542 597.078 457.044 597.168 456.498 597.168C455.711 597.168 455.091 596.951 454.637 596.517C454.183 596.082 453.956 595.533 453.956 594.869V589.134H455.948V594.546C455.948 594.922 456.08 595.203 456.344 595.389C456.612 595.574 456.939 595.667 457.325 595.667C457.711 595.667 458.06 595.564 458.373 595.359C458.685 595.149 458.841 594.842 458.841 594.437V589.134H460.833V597H458.958L458.9 596.136ZM466.949 597V585.896H468.941V592.591L472.054 589.134H474.325L471.366 592.525L474.457 597H472.281L469.82 593.36L468.941 594.261V597H466.949ZM483.194 597.088C481.998 597.088 481.141 596.907 480.624 596.546C480.106 596.185 479.847 595.503 479.847 594.502V590.401H478.8V589.134H479.906L480.089 586.607H481.839V589.134H483.707V590.401H481.839V594.363C481.839 594.852 481.954 595.181 482.184 595.352C482.418 595.523 482.865 595.608 483.524 595.608H483.758L483.685 597.088H483.194ZM494.129 596.136C493.973 596.458 493.67 596.712 493.221 596.897C492.772 597.078 492.274 597.168 491.727 597.168C490.941 597.168 490.321 596.951 489.867 596.517C489.413 596.082 489.186 595.533 489.186 594.869V589.134H491.178V594.546C491.178 594.922 491.31 595.203 491.573 595.389C491.842 595.574 492.169 595.667 492.555 595.667C492.94 595.667 493.29 595.564 493.602 595.359C493.915 595.149 494.071 594.842 494.071 594.437V589.134H496.063V597H494.188L494.129 596.136ZM502.164 597V589.134H504.156V590.071C504.273 589.847 504.518 589.646 504.889 589.471C505.528 589.163 506.146 589.009 506.742 589.009C506.81 589.009 506.874 589.012 506.932 589.017L506.888 590.708C506.014 590.752 505.289 590.916 504.713 591.199C504.391 591.355 504.205 591.531 504.156 591.727V597H502.164ZM513.67 594.847C513.67 595.477 514.012 595.792 514.696 595.792C514.964 595.792 515.248 595.721 515.545 595.579C515.843 595.438 516.078 595.237 516.249 594.979V593.016C516.014 593.206 515.602 593.411 515.011 593.631C514.42 593.846 514.049 594.046 513.897 594.231C513.746 594.412 513.67 594.617 513.67 594.847ZM516.41 596.128C516.18 596.426 515.851 596.675 515.421 596.875C514.996 597.071 514.479 597.168 513.868 597.168C513.258 597.168 512.74 596.971 512.315 596.575C511.896 596.18 511.686 595.674 511.686 595.059C511.686 594.444 511.876 593.951 512.257 593.58C512.643 593.208 513.377 592.852 514.461 592.51C515.121 592.3 515.582 592.112 515.846 591.946C516.114 591.78 516.249 591.551 516.249 591.258C516.249 590.652 515.836 590.352 515.011 590.357C514.547 590.357 514.227 590.447 514.051 590.628C513.875 590.804 513.788 591.06 513.788 591.397V591.705H511.92V591.47C511.92 590.684 512.181 590.071 512.704 589.632C513.226 589.188 514.029 588.965 515.113 588.965C516.197 588.965 516.983 589.195 517.472 589.654C517.965 590.113 518.211 590.772 518.211 591.631V594.744C518.211 595.096 518.255 595.328 518.343 595.44C518.431 595.552 518.6 595.608 518.849 595.608L518.768 597.059H518.351C517.809 597.059 517.386 596.985 517.083 596.839C516.781 596.688 516.556 596.451 516.41 596.128ZM528.414 597V586.189H533.102C534.83 586.189 535.992 586.702 536.588 587.728C536.92 588.304 537.086 589.048 537.086 589.961V593.279C537.086 595.105 536.393 596.255 535.006 596.729C534.479 596.91 533.846 597 533.109 597H528.414ZM530.589 595.308H532.918C533.661 595.308 534.178 595.171 534.471 594.898C534.764 594.625 534.911 594.178 534.911 593.558V589.676C534.911 589.065 534.759 588.614 534.457 588.321C534.159 588.028 533.646 587.881 532.918 587.881H530.589V595.308ZM539.649 597V586.189H541.283L546.9 593.602V586.189H548.834V597H547.201L541.605 589.705V597H539.649ZM551.617 597V586.189H553.792V591.434L557.997 586.189H560.399L556.612 591.111L560.67 597H558.216L554.811 592.027L553.792 593.038V597H551.617Z" fill="white"/>
<defs>
<filter id="filter0_d" x="16.0137" y="0" width="630.986" height="561.322" filterUnits="userSpaceOnUse" color-interpolation-filters="sRGB">
<feFlood flood-opacity="0" result="BackgroundImageFix"/>
<feColorMatrix in="SourceAlpha" type="matrix" values="0 0 0 0 0 0 0 0 0 0 0 0 0 0 0 0 0 0 127 0"/>
<feOffset dy="4"/>
<feGaussianBlur stdDeviation="2"/>
<feColorMatrix type="matrix" values="0 0 0 0 0 0 0 0 0 0 0 0 0 0 0 0 0 0 0.25 0"/>
<feBlend mode="normal" in2="BackgroundImageFix" result="effect1_dropShadow"/>
<feBlend mode="normal" in="SourceGraphic" in2="effect1_dropShadow" result="shape"/>
</filter>
<filter id="filter1_d" x="298" y="0" width="160" height="122" filterUnits="userSpaceOnUse" color-interpolation-filters="sRGB">
<feFlood flood-opacity="0" result="BackgroundImageFix"/>
<feColorMatrix in="SourceAlpha" type="matrix" values="0 0 0 0 0 0 0 0 0 0 0 0 0 0 0 0 0 0 127 0"/>
<feOffset dy="4"/>
<feGaussianBlur stdDeviation="2"/>
<feColorMatrix type="matrix" values="0 0 0 0 0 0 0 0 0 0 0 0 0 0 0 0 0 0 0.25 0"/>
<feBlend mode="normal" in2="BackgroundImageFix" result="effect1_dropShadow"/>
<feBlend mode="normal" in="SourceGraphic" in2="effect1_dropShadow" result="shape"/>
</filter>
<filter id="filter2_d" x="335" y="330" width="137" height="84" filterUnits="userSpaceOnUse" color-interpolation-filters="sRGB">
<feFlood flood-opacity="0" result="BackgroundImageFix"/>
<feColorMatrix in="SourceAlpha" type="matrix" values="0 0 0 0 0 0 0 0 0 0 0 0 0 0 0 0 0 0 127 0"/>
<feOffset dy="4"/>
<feGaussianBlur stdDeviation="2"/>
<feColorMatrix type="matrix" values="0 0 0 0 0 0 0 0 0 0 0 0 0 0 0 0 0 0 0.25 0"/>
<feBlend mode="normal" in2="BackgroundImageFix" result="effect1_dropShadow"/>
<feBlend mode="normal" in="SourceGraphic" in2="effect1_dropShadow" result="shape"/>
</filter>
<linearGradient id="paint0_linear" x1="684" y1="553" x2="684" y2="1106" gradientUnits="userSpaceOnUse">
<stop stop-color="white"/>
<stop offset="1" stop-color="white" stop-opacity="0"/>
</linearGradient>
</defs>
</svg>
