<svg width="524" height="614" viewBox="0 0 524 614" fill="none" xmlns="http://www.w3.org/2000/svg">
<g filter="url(#filter0_d)">
<rect x="519.5" y="562.672" width="77.9403" height="531.366" transform="rotate(-180 519.5 562.672)" fill="#79CCDB" stroke="#79CCDB"/>
<line x1="491.207" y1="133.987" x2="493.659" y2="154.828" stroke="white"/>
<path fill-rule="evenodd" clip-rule="evenodd" d="M470.225 149.32L449.252 134.323L457.333 110.154L483.3 110.215L491.267 134.421L470.225 149.32Z" fill="#22B674" stroke="#22B674"/>
<line x1="491.207" y1="224.707" x2="493.659" y2="245.548" stroke="white"/>
<line x1="493.594" y1="455.498" x2="483.173" y2="473.274" stroke="white"/>
<line x1="491.207" y1="496.869" x2="493.659" y2="517.71" stroke="white"/>
<path fill-rule="evenodd" clip-rule="evenodd" d="M470.225 512.202L449.252 497.205L457.333 473.036L483.3 473.097L491.267 497.303L470.225 512.202Z" fill="#22B674" stroke="#22B674"/>
<circle cx="491.324" cy="531.867" r="15.9374" transform="rotate(-180 491.324 531.867)" fill="#D42B2B"/>
<path d="M492.629 528.35V523.34H495.558V537.559H490.012C488.944 537.559 488.006 537.364 487.199 536.973C486.385 536.582 485.76 536.026 485.324 535.303C484.888 534.587 484.67 533.77 484.67 532.852C484.67 531.459 485.148 530.359 486.105 529.551C487.056 528.75 488.374 528.35 490.06 528.35H492.629ZM492.629 530.723H490.012C489.237 530.723 488.648 530.905 488.244 531.27C487.834 531.635 487.629 532.155 487.629 532.832C487.629 533.529 487.834 534.092 488.244 534.522C488.654 534.952 489.22 535.173 489.943 535.186H492.629V530.723Z" fill="white"/>
<line x1="493.594" y1="92.6157" x2="483.173" y2="110.392" stroke="white"/>
<circle cx="491.324" cy="168.985" r="15.9374" transform="rotate(-180 491.324 168.985)" fill="#D42B2B"/>
<circle cx="491.324" cy="441.146" r="15.9374" transform="rotate(-180 491.324 441.146)" fill="#D42B2B"/>
<line x1="493.594" y1="364.777" x2="483.173" y2="382.553" stroke="white"/>
<line x1="491.207" y1="406.148" x2="493.659" y2="426.989" stroke="white"/>
<path fill-rule="evenodd" clip-rule="evenodd" d="M470.225 421.482L449.252 406.484L457.333 382.316L483.3 382.376L491.267 406.582L470.225 421.482Z" fill="#22B674" stroke="#22B674"/>
<circle cx="491.324" cy="441.146" r="15.9374" transform="rotate(-180 491.324 441.146)" fill="#D42B2B"/>
<path d="M493.591 436.895V431.885H496.521V446.104H490.974C489.906 446.104 488.969 445.908 488.162 445.518C487.348 445.127 486.723 444.57 486.287 443.848C485.85 443.132 485.632 442.315 485.632 441.397C485.632 440.003 486.111 438.903 487.068 438.096C488.018 437.295 489.337 436.895 491.023 436.895H493.591ZM493.591 439.268H490.974C490.199 439.268 489.61 439.45 489.207 439.815C488.796 440.179 488.591 440.7 488.591 441.377C488.591 442.074 488.796 442.637 489.207 443.067C489.617 443.496 490.183 443.718 490.906 443.731H493.591V439.268Z" fill="white"/>
<line x1="493.594" y1="274.057" x2="483.173" y2="291.833" stroke="white"/>
<line x1="491.207" y1="315.428" x2="493.659" y2="336.269" stroke="white"/>
<path fill-rule="evenodd" clip-rule="evenodd" d="M470.225 330.761L449.252 315.764L457.333 291.595L483.3 291.656L491.267 315.862L470.225 330.761Z" fill="#22B674" stroke="#22B674"/>
<circle cx="491.324" cy="350.426" r="15.9374" transform="rotate(-180 491.324 350.426)" fill="#D42B2B"/>
<path d="M492.629 346.402V341.393H495.558V355.611H490.011C488.944 355.611 488.006 355.416 487.199 355.025C486.385 354.635 485.76 354.078 485.324 353.355C484.888 352.639 484.67 351.822 484.67 350.904C484.67 349.511 485.148 348.411 486.105 347.604C487.056 346.803 488.374 346.402 490.06 346.402H492.629ZM492.629 348.775H490.011C489.237 348.775 488.648 348.958 488.244 349.322C487.834 349.687 487.629 350.208 487.629 350.885C487.629 351.581 487.834 352.145 488.244 352.574C488.654 353.004 489.22 353.225 489.943 353.238H492.629V348.775Z" fill="white"/>
<circle cx="491.324" cy="259.705" r="15.9374" transform="rotate(-180 491.324 259.705)" fill="#D42B2B"/>
<path d="M492.629 255.91V250.9H495.558V265.119H490.011C488.944 265.119 488.006 264.923 487.199 264.533C486.385 264.142 485.76 263.586 485.324 262.863C484.888 262.147 484.67 261.33 484.67 260.412C484.67 259.018 485.148 257.918 486.105 257.111C487.056 256.31 488.374 255.91 490.06 255.91H492.629ZM492.629 258.283H490.011C489.237 258.283 488.648 258.465 488.244 258.83C487.834 259.194 487.629 259.715 487.629 260.392C487.629 261.089 487.834 261.652 488.244 262.082C488.654 262.511 489.22 262.733 489.943 262.746H492.629V258.283Z" fill="white"/>
<line x1="493.594" y1="183.336" x2="483.173" y2="201.113" stroke="white"/>
<path fill-rule="evenodd" clip-rule="evenodd" d="M470.225 240.041L449.252 225.043L457.333 200.875L483.3 200.935L491.267 225.141L470.225 240.041Z" fill="#22B674" stroke="#22B674"/>
<circle cx="491.328" cy="169.209" r="15.9374" transform="rotate(-180 491.328 169.209)" fill="#D42B2B"/>
<path d="M492.633 165.641V160.631H495.563V174.85H490.016C488.948 174.85 488.011 174.655 487.203 174.264C486.39 173.874 485.765 173.317 485.328 172.594C484.892 171.878 484.674 171.061 484.674 170.143C484.674 168.75 485.153 167.65 486.11 166.842C487.06 166.042 488.379 165.641 490.065 165.641H492.633ZM492.633 168.014H490.016C489.241 168.014 488.652 168.197 488.248 168.561C487.838 168.926 487.633 169.447 487.633 170.124C487.633 170.82 487.838 171.383 488.248 171.813C488.659 172.243 489.225 172.464 489.948 172.477H492.633V168.014Z" fill="white"/>
<path d="M501.296 73.8099H504.226V79.9036H509.939V73.8099H512.868V88.0286H509.939V82.2669H504.226V88.0286H501.296V73.8099ZM487.048 80.597C487.048 79.1972 487.295 77.97 487.79 76.9153C488.285 75.8607 488.995 75.0469 489.919 74.4739C490.837 73.901 491.892 73.6146 493.083 73.6146C494.262 73.6146 495.313 73.8978 496.238 74.4642C497.162 75.0306 497.878 75.8379 498.386 76.886C498.894 77.9407 499.151 79.1517 499.157 80.5189V81.222C499.157 82.6217 498.907 83.8522 498.406 84.9134C497.898 85.9811 497.185 86.7982 496.267 87.3646C495.342 87.9375 494.288 88.2239 493.103 88.2239C491.918 88.2239 490.866 87.9375 489.948 87.3646C489.024 86.7982 488.311 85.9811 487.81 84.9134C487.302 83.8522 487.048 82.625 487.048 81.2318V80.597ZM490.017 81.2415C490.017 82.7324 490.284 83.8652 490.818 84.64C491.351 85.4147 492.113 85.8021 493.103 85.8021C494.086 85.8021 494.844 85.4179 495.378 84.6497C495.912 83.888 496.182 82.7682 496.189 81.2903V80.597C496.189 79.1452 495.922 78.0189 495.388 77.2181C494.854 76.4173 494.086 76.0169 493.083 76.0169C492.1 76.0169 491.345 76.401 490.818 77.1693C490.29 77.944 490.023 79.0703 490.017 80.5482V81.2415Z" fill="white"/>
<path d="M467.46 512.162C467.46 511.462 467.584 510.848 467.831 510.321C468.079 509.794 468.433 509.387 468.896 509.1C469.355 508.814 469.882 508.671 470.478 508.671C471.067 508.671 471.593 508.812 472.055 509.095C472.517 509.379 472.875 509.782 473.129 510.306C473.383 510.834 473.512 511.439 473.515 512.123V512.474C473.515 513.174 473.389 513.789 473.139 514.32C472.885 514.854 472.528 515.262 472.069 515.546C471.607 515.832 471.08 515.975 470.487 515.975C469.895 515.975 469.369 515.832 468.91 515.546C468.448 515.262 468.092 514.854 467.841 514.32C467.587 513.789 467.46 513.176 467.46 512.479V512.162ZM468.944 512.484C468.944 513.23 469.078 513.796 469.345 514.183C469.612 514.571 469.993 514.764 470.487 514.764C470.979 514.764 471.358 514.572 471.625 514.188C471.892 513.807 472.027 513.247 472.03 512.509V512.162C472.03 511.436 471.897 510.873 471.63 510.472C471.363 510.072 470.979 509.872 470.478 509.872C469.986 509.872 469.609 510.064 469.345 510.448C469.081 510.835 468.948 511.399 468.944 512.137V512.484Z" fill="white"/>
<path d="M467.46 422.054C467.46 421.354 467.584 420.741 467.831 420.214C468.079 419.686 468.433 419.279 468.896 418.993C469.355 418.706 469.882 418.563 470.478 418.563C471.067 418.563 471.593 418.705 472.055 418.988C472.517 419.271 472.875 419.675 473.129 420.199C473.383 420.726 473.512 421.332 473.515 422.015V422.367C473.515 423.067 473.389 423.682 473.139 424.213C472.885 424.746 472.528 425.155 472.069 425.438C471.607 425.725 471.08 425.868 470.487 425.868C469.895 425.868 469.369 425.725 468.91 425.438C468.448 425.155 468.092 424.746 467.841 424.213C467.587 423.682 467.46 423.068 467.46 422.372V422.054ZM468.944 422.377C468.944 423.122 469.078 423.688 469.345 424.076C469.612 424.463 469.993 424.657 470.487 424.657C470.979 424.657 471.358 424.465 471.625 424.081C471.892 423.7 472.027 423.14 472.03 422.401V422.054C472.03 421.328 471.897 420.765 471.63 420.365C471.363 419.964 470.979 419.764 470.478 419.764C469.986 419.764 469.609 419.956 469.345 420.34C469.081 420.728 468.948 421.291 468.944 422.03V422.377Z" fill="white"/>
<path d="M467.46 331.947C467.46 331.247 467.584 330.633 467.831 330.106C468.079 329.579 468.433 329.172 468.896 328.885C469.355 328.599 469.882 328.456 470.478 328.456C471.067 328.456 471.593 328.597 472.055 328.88C472.517 329.164 472.875 329.567 473.129 330.091C473.383 330.619 473.512 331.224 473.515 331.908V332.259C473.515 332.959 473.389 333.574 473.139 334.105C472.885 334.639 472.528 335.047 472.069 335.331C471.607 335.617 471.08 335.76 470.487 335.76C469.895 335.76 469.369 335.617 468.91 335.331C468.448 335.047 468.092 334.639 467.841 334.105C467.587 333.574 467.46 332.961 467.46 332.264V331.947ZM468.944 332.269C468.944 333.014 469.078 333.581 469.345 333.968C469.612 334.356 469.993 334.549 470.487 334.549C470.979 334.549 471.358 334.357 471.625 333.973C471.892 333.592 472.027 333.032 472.03 332.293V331.947C472.03 331.221 471.897 330.658 471.63 330.257C471.363 329.857 470.979 329.657 470.478 329.657C469.986 329.657 469.609 329.849 469.345 330.233C469.081 330.62 468.948 331.183 468.944 331.922V332.269Z" fill="white"/>
<path d="M467.46 240.613C467.46 239.914 467.584 239.3 467.831 238.773C468.079 238.245 468.433 237.838 468.896 237.552C469.355 237.266 469.882 237.122 470.478 237.122C471.067 237.122 471.593 237.264 472.055 237.547C472.517 237.83 472.875 238.234 473.129 238.758C473.383 239.285 473.512 239.891 473.515 240.574V240.926C473.515 241.626 473.389 242.241 473.139 242.772C472.885 243.306 472.528 243.714 472.069 243.997C471.607 244.284 471.08 244.427 470.487 244.427C469.895 244.427 469.369 244.284 468.91 243.997C468.448 243.714 468.092 243.306 467.841 242.772C467.587 242.241 467.46 241.627 467.46 240.931V240.613ZM468.944 240.936C468.944 241.681 469.078 242.248 469.345 242.635C469.612 243.022 469.993 243.216 470.487 243.216C470.979 243.216 471.358 243.024 471.625 242.64C471.892 242.259 472.027 241.699 472.03 240.96V240.613C472.03 239.888 471.897 239.324 471.63 238.924C471.363 238.524 470.979 238.323 470.478 238.323C469.986 238.323 469.609 238.516 469.345 238.9C469.081 239.287 468.948 239.85 468.944 240.589V240.936Z" fill="white"/>
<path d="M467.46 149.28C467.46 148.58 467.584 147.967 467.831 147.439C468.079 146.912 468.433 146.505 468.896 146.219C469.355 145.932 469.882 145.789 470.478 145.789C471.067 145.789 471.593 145.93 472.055 146.214C472.517 146.497 472.875 146.9 473.129 147.425C473.383 147.952 473.512 148.557 473.515 149.241V149.593C473.515 150.292 473.389 150.908 473.139 151.438C472.885 151.972 472.528 152.381 472.069 152.664C471.607 152.95 471.08 153.094 470.487 153.094C469.895 153.094 469.369 152.95 468.91 152.664C468.448 152.381 468.092 151.972 467.841 151.438C467.587 150.908 467.46 150.294 467.46 149.597V149.28ZM468.944 149.602C468.944 150.348 469.078 150.914 469.345 151.302C469.612 151.689 469.993 151.883 470.487 151.883C470.979 151.883 471.358 151.691 471.625 151.306C471.892 150.926 472.027 150.366 472.03 149.627V149.28C472.03 148.554 471.897 147.991 471.63 147.591C471.363 147.19 470.979 146.99 470.478 146.99C469.986 146.99 469.609 147.182 469.345 147.566C469.081 147.954 468.948 148.517 468.944 149.256V149.602Z" fill="white"/>
<rect x="215.328" y="31.306" width="77.4609" height="531.676" fill="#79CCDB" stroke="#79CCDB"/>
<line x1="321.486" y1="112.445" x2="423.24" y2="112.445" stroke="white"/>
<line x1="321.486" y1="122.865" x2="423.24" y2="122.865" stroke="white"/>
<line x1="324.551" y1="384.606" x2="426.305" y2="384.606" stroke="white"/>
<line x1="324.551" y1="395.027" x2="426.305" y2="395.027" stroke="white"/>
<line x1="325.164" y1="475.94" x2="426.918" y2="475.94" stroke="white"/>
<line x1="325.164" y1="486.36" x2="426.918" y2="486.36" stroke="white"/>
<line x1="333.133" y1="208.376" x2="407.916" y2="208.376" stroke="white"/>
<line x1="309.84" y1="203.165" x2="411.594" y2="203.165" stroke="white"/>
<line x1="309.84" y1="213.586" x2="411.594" y2="213.586" stroke="white"/>
<line x1="333.133" y1="299.096" x2="407.916" y2="299.096" stroke="white"/>
<line x1="309.84" y1="293.886" x2="411.594" y2="293.886" stroke="white"/>
<line x1="309.84" y1="304.307" x2="411.594" y2="304.307" stroke="white"/>
<line x1="285.321" y1="102.637" x2="317.808" y2="102.637" stroke="white"/>
<line x1="284.708" y1="193.358" x2="317.195" y2="193.358" stroke="white"/>
<line x1="284.708" y1="284.078" x2="317.195" y2="284.078" stroke="white"/>
<line x1="284.708" y1="374.799" x2="317.195" y2="374.799" stroke="white"/>
<line x1="282.256" y1="465.519" x2="314.743" y2="465.519" stroke="white"/>
<circle cx="317.808" cy="480.731" r="15.9374" fill="#62F2A6"/>
<path d="M323.709 476.908H319.353V488.754H316.423V476.908H312.127V474.535H323.709V476.908Z" fill="white"/>
<circle cx="317.195" cy="117.849" r="15.9374" fill="#F1E023"/>
<path d="M320.292 122.891H315.155L314.179 125.821H311.063L316.356 111.602H319.071L324.394 125.821H321.278L320.292 122.891ZM315.946 120.518H319.501L317.714 115.196L315.946 120.518Z" fill="white"/>
<circle cx="317.808" cy="390.01" r="15.9374" fill="#F1E023"/>
<path d="M320.292 394.369H315.155L314.179 397.299H311.063L316.356 383.08H319.071L324.394 397.299H321.278L320.292 394.369ZM315.946 391.996H319.501L317.714 386.674L315.946 391.996Z" fill="white"/>
<circle cx="317.808" cy="208.876" r="15.9374" fill="#C6344A"/>
<path d="M323.427 214.517C322.899 215.148 322.154 215.64 321.19 215.992C320.227 216.337 319.159 216.509 317.987 216.509C316.757 216.509 315.676 216.242 314.745 215.708C313.821 215.168 313.104 214.387 312.597 213.365C312.095 212.342 311.838 211.141 311.825 209.761V208.794C311.825 207.375 312.063 206.148 312.538 205.113C313.02 204.071 313.71 203.277 314.608 202.73C315.513 202.176 316.571 201.9 317.782 201.9C319.468 201.9 320.787 202.303 321.737 203.111C322.688 203.911 323.251 205.08 323.427 206.617H320.575C320.445 205.803 320.155 205.207 319.706 204.829C319.263 204.452 318.651 204.263 317.87 204.263C316.874 204.263 316.116 204.637 315.595 205.386C315.074 206.135 314.81 207.248 314.804 208.726V209.634C314.804 211.125 315.087 212.251 315.653 213.013C316.22 213.775 317.05 214.156 318.144 214.156C319.244 214.156 320.028 213.921 320.497 213.452V211.001H317.831V208.843H323.427V214.517Z" fill="white"/>
<circle cx="317.808" cy="299.29" r="15.9374" fill="#E8A62F"/>
<path d="M323.612 302.07C323.502 303.6 322.935 304.804 321.913 305.683C320.897 306.562 319.556 307.001 317.89 307.001C316.067 307.001 314.631 306.389 313.583 305.165C312.541 303.935 312.02 302.249 312.02 300.107V299.238C312.02 297.871 312.261 296.666 312.743 295.624C313.225 294.583 313.912 293.785 314.804 293.232C315.702 292.672 316.744 292.392 317.929 292.392C319.569 292.392 320.891 292.831 321.894 293.71C322.896 294.589 323.476 295.823 323.632 297.412H320.702C320.63 296.494 320.373 295.829 319.931 295.419C319.494 295.003 318.827 294.794 317.929 294.794C316.952 294.794 316.22 295.146 315.731 295.849C315.25 296.546 315.002 297.63 314.989 299.101V300.175C314.989 301.712 315.22 302.835 315.683 303.544C316.151 304.254 316.887 304.609 317.89 304.609C318.795 304.609 319.468 304.404 319.911 303.994C320.36 303.577 320.617 302.936 320.683 302.07H323.612Z" fill="white"/>
<line x1="243.142" y1="375.357" x2="240.69" y2="354.516" stroke="white"/>
<line x1="240.755" y1="144.567" x2="251.176" y2="126.791" stroke="white"/>
<line x1="243.142" y1="103.196" x2="240.69" y2="82.3545" stroke="white"/>
<path fill-rule="evenodd" clip-rule="evenodd" d="M264.124 87.8621L285.097 102.86L277.016 127.028L251.049 126.968L243.082 102.762L264.124 87.8621Z" fill="#22B674" stroke="#22B674"/>
<circle cx="243.025" cy="68.1976" r="15.9374" fill="#D42B2B"/>
<path d="M241.72 71.7143V76.7241H238.791V62.5053H244.338C245.405 62.5053 246.343 62.7006 247.15 63.0912C247.964 63.4819 248.589 64.0385 249.025 64.7612C249.461 65.4773 249.679 66.2944 249.679 67.2123C249.679 68.6056 249.201 69.7058 248.244 70.5131C247.293 71.3139 245.975 71.7143 244.289 71.7143H241.72ZM241.72 69.3412H244.338C245.112 69.3412 245.701 69.159 246.105 68.7944C246.515 68.4298 246.72 67.909 246.72 67.2319C246.72 66.5353 246.515 65.9721 246.105 65.5424C245.695 65.1127 245.129 64.8914 244.406 64.8784H241.72V69.3412Z" fill="white"/>
<line x1="240.755" y1="507.448" x2="251.176" y2="489.672" stroke="white"/>
<line x1="243.142" y1="466.078" x2="240.69" y2="445.236" stroke="white"/>
<path fill-rule="evenodd" clip-rule="evenodd" d="M264.124 450.744L285.097 465.742L277.016 489.91L251.049 489.849L243.082 465.643L264.124 450.744Z" fill="#22B674" stroke="#22B674"/>
<circle cx="243.025" cy="158.918" r="15.9374" fill="#D42B2B"/>
<line x1="240.755" y1="235.287" x2="251.176" y2="217.511" stroke="white"/>
<line x1="243.142" y1="193.916" x2="240.69" y2="173.075" stroke="white"/>
<path fill-rule="evenodd" clip-rule="evenodd" d="M264.124 178.583L285.097 193.58L277.016 217.749L251.049 217.688L243.082 193.482L264.124 178.583Z" fill="#22B674" stroke="#22B674"/>
<circle cx="243.025" cy="158.918" r="15.9374" fill="#D42B2B"/>
<path d="M240.758 163.169V168.179H237.828V153.96H243.375C244.443 153.96 245.38 154.156 246.187 154.546C247.001 154.937 247.626 155.494 248.062 156.216C248.499 156.932 248.717 157.749 248.717 158.667C248.717 160.061 248.238 161.161 247.281 161.968C246.331 162.769 245.012 163.169 243.326 163.169H240.758ZM240.758 160.796H243.375C244.15 160.796 244.739 160.614 245.142 160.249C245.553 159.885 245.758 159.364 245.758 158.687C245.758 157.99 245.553 157.427 245.142 156.998C244.732 156.568 244.166 156.346 243.443 156.333H240.758V160.796Z" fill="white"/>
<line x1="240.755" y1="326.008" x2="251.176" y2="308.231" stroke="white"/>
<line x1="243.142" y1="284.637" x2="240.69" y2="263.796" stroke="white"/>
<path fill-rule="evenodd" clip-rule="evenodd" d="M264.124 269.303L285.097 284.301L277.016 308.469L251.049 308.409L243.082 284.202L264.124 269.303Z" fill="#22B674" stroke="#22B674"/>
<circle cx="243.025" cy="249.639" r="15.9374" fill="#D42B2B"/>
<path d="M241.72 253.662V258.672H238.791V244.453H244.338C245.405 244.453 246.343 244.648 247.15 245.039C247.964 245.429 248.589 245.986 249.025 246.709C249.461 247.425 249.679 248.242 249.679 249.16C249.679 250.553 249.201 251.653 248.244 252.461C247.293 253.261 245.975 253.662 244.289 253.662H241.72ZM241.72 251.289H244.338C245.112 251.289 245.701 251.107 246.105 250.742C246.515 250.377 246.72 249.857 246.72 249.179C246.72 248.483 246.515 247.92 246.105 247.49C245.695 247.06 245.129 246.839 244.406 246.826H241.72V251.289Z" fill="white"/>
<circle cx="243.025" cy="340.359" r="15.9374" fill="#D42B2B"/>
<path d="M241.72 344.155V349.164H238.791V334.946H244.338C245.405 334.946 246.343 335.141 247.15 335.532C247.964 335.922 248.589 336.479 249.025 337.202C249.461 337.918 249.679 338.735 249.679 339.653C249.679 341.046 249.201 342.146 248.244 342.954C247.293 343.754 245.975 344.155 244.289 344.155H241.72ZM241.72 341.782H244.338C245.112 341.782 245.701 341.599 246.105 341.235C246.515 340.87 246.72 340.349 246.72 339.672C246.72 338.976 246.515 338.413 246.105 337.983C245.695 337.553 245.129 337.332 244.406 337.319H241.72V341.782Z" fill="white"/>
<line x1="240.755" y1="416.728" x2="251.176" y2="398.952" stroke="white"/>
<path fill-rule="evenodd" clip-rule="evenodd" d="M264.124 360.023L285.097 375.021L277.016 399.189L251.049 399.129L243.082 374.923L264.124 360.023Z" fill="#22B674" stroke="#22B674"/>
<circle cx="243.021" cy="430.855" r="15.9374" fill="#D42B2B"/>
<path d="M241.716 434.423V439.433H238.786V425.214H244.333C245.401 425.214 246.338 425.409 247.146 425.8C247.959 426.191 248.584 426.747 249.021 427.47C249.457 428.186 249.675 429.003 249.675 429.921C249.675 431.314 249.196 432.415 248.239 433.222C247.289 434.023 245.97 434.423 244.284 434.423H241.716ZM241.716 432.05H244.333C245.108 432.05 245.697 431.868 246.101 431.503C246.511 431.138 246.716 430.618 246.716 429.941C246.716 429.244 246.511 428.681 246.101 428.251C245.69 427.821 245.124 427.6 244.401 427.587H241.716V432.05Z" fill="white"/>
<path d="M231.031 527H228.101V520.906H222.388V527H219.458V512.781H222.388V518.543H228.101V512.781H231.031V527ZM245.279 520.213C245.279 521.613 245.031 522.84 244.536 523.895C244.042 524.949 243.332 525.763 242.407 526.336C241.489 526.909 240.435 527.195 239.243 527.195C238.065 527.195 237.014 526.912 236.089 526.346C235.165 525.779 234.448 524.972 233.941 523.924C233.433 522.869 233.176 521.658 233.169 520.291V519.588C233.169 518.188 233.42 516.958 233.921 515.896C234.429 514.829 235.142 514.012 236.06 513.445C236.984 512.872 238.039 512.586 239.224 512.586C240.409 512.586 241.46 512.872 242.378 513.445C243.303 514.012 244.016 514.829 244.517 515.896C245.025 516.958 245.279 518.185 245.279 519.578V520.213ZM242.31 519.568C242.31 518.077 242.043 516.945 241.509 516.17C240.975 515.395 240.213 515.008 239.224 515.008C238.241 515.008 237.482 515.392 236.948 516.16C236.415 516.922 236.144 518.042 236.138 519.52V520.213C236.138 521.665 236.405 522.791 236.939 523.592C237.473 524.393 238.241 524.793 239.243 524.793C240.226 524.793 240.982 524.409 241.509 523.641C242.036 522.866 242.303 521.74 242.31 520.262V519.568Z" fill="white"/>
<path d="M266.889 87.9026C266.889 88.6025 266.765 89.2161 266.518 89.7434C266.27 90.2708 265.916 90.6777 265.453 90.9641C264.994 91.2506 264.467 91.3938 263.871 91.3938C263.282 91.3938 262.756 91.2522 262.294 90.969C261.832 90.6858 261.474 90.2821 261.22 89.7581C260.966 89.2307 260.837 88.6252 260.834 87.9417V87.5901C260.834 86.8902 260.96 86.275 261.21 85.7444C261.464 85.2105 261.821 84.802 262.28 84.5188C262.742 84.2323 263.269 84.0891 263.862 84.0891C264.454 84.0891 264.98 84.2323 265.439 84.5188C265.901 84.802 266.257 85.2105 266.508 85.7444C266.762 86.275 266.889 86.8886 266.889 87.5852V87.9026ZM265.405 87.5803C265.405 86.8349 265.271 86.2685 265.004 85.8811C264.737 85.4937 264.356 85.3 263.862 85.3C263.37 85.3 262.991 85.4921 262.724 85.8762C262.457 86.2571 262.322 86.817 262.319 87.5559V87.9026C262.319 88.6285 262.452 89.1917 262.719 89.592C262.986 89.9924 263.37 90.1926 263.871 90.1926C264.363 90.1926 264.74 90.0006 265.004 89.6165C265.268 89.2291 265.401 88.6659 265.405 87.927V87.5803Z" fill="white"/>
<path d="M266.889 178.01C266.889 178.71 266.765 179.324 266.518 179.851C266.27 180.378 265.916 180.785 265.453 181.072C264.994 181.358 264.467 181.501 263.871 181.501C263.282 181.501 262.756 181.36 262.294 181.077C261.832 180.793 261.474 180.39 261.22 179.866C260.966 179.338 260.837 178.733 260.834 178.049V177.698C260.834 176.998 260.96 176.383 261.21 175.852C261.464 175.318 261.821 174.91 262.28 174.626C262.742 174.34 263.269 174.197 263.862 174.197C264.454 174.197 264.98 174.34 265.439 174.626C265.901 174.91 266.257 175.318 266.508 175.852C266.762 176.383 266.889 176.996 266.889 177.693V178.01ZM265.405 177.688C265.405 176.942 265.271 176.376 265.004 175.989C264.737 175.601 264.356 175.408 263.862 175.408C263.37 175.408 262.991 175.6 262.724 175.984C262.457 176.365 262.322 176.925 262.319 177.663V178.01C262.319 178.736 262.452 179.299 262.719 179.7C262.986 180.1 263.37 180.3 263.871 180.3C264.363 180.3 264.74 180.108 265.004 179.724C265.268 179.337 265.401 178.773 265.405 178.035V177.688Z" fill="white"/>
<path d="M266.889 268.117C266.889 268.817 266.765 269.431 266.518 269.958C266.27 270.486 265.916 270.892 265.453 271.179C264.994 271.465 264.467 271.609 263.871 271.609C263.282 271.609 262.756 271.467 262.294 271.184C261.832 270.901 261.474 270.497 261.22 269.973C260.966 269.446 260.837 268.84 260.834 268.156V267.805C260.834 267.105 260.96 266.49 261.21 265.959C261.464 265.425 261.821 265.017 262.28 264.734C262.742 264.447 263.269 264.304 263.862 264.304C264.454 264.304 264.98 264.447 265.439 264.734C265.901 265.017 266.257 265.425 266.508 265.959C266.762 266.49 266.889 267.103 266.889 267.8V268.117ZM265.405 267.795C265.405 267.05 265.271 266.483 265.004 266.096C264.737 265.709 264.356 265.515 263.862 265.515C263.37 265.515 262.991 265.707 262.724 266.091C262.457 266.472 262.322 267.032 262.319 267.771V268.117C262.319 268.843 262.452 269.406 262.719 269.807C262.986 270.207 263.37 270.407 263.871 270.407C264.363 270.407 264.74 270.215 265.004 269.831C265.268 269.444 265.401 268.881 265.405 268.142V267.795Z" fill="white"/>
<path d="M266.889 359.451C266.889 360.151 266.765 360.764 266.518 361.292C266.27 361.819 265.916 362.226 265.453 362.512C264.994 362.799 264.467 362.942 263.871 362.942C263.282 362.942 262.756 362.801 262.294 362.517C261.832 362.234 261.474 361.83 261.22 361.306C260.966 360.779 260.837 360.174 260.834 359.49V359.138C260.834 358.439 260.96 357.823 261.21 357.293C261.464 356.759 261.821 356.35 262.28 356.067C262.742 355.781 263.269 355.637 263.862 355.637C264.454 355.637 264.98 355.781 265.439 356.067C265.901 356.35 266.257 356.759 266.508 357.293C266.762 357.823 266.889 358.437 266.889 359.134V359.451ZM265.405 359.129C265.405 358.383 265.271 357.817 265.004 357.429C264.737 357.042 264.356 356.848 263.862 356.848C263.37 356.848 262.991 357.04 262.724 357.425C262.457 357.805 262.322 358.365 262.319 359.104V359.451C262.319 360.177 262.452 360.74 262.719 361.14C262.986 361.541 263.37 361.741 263.871 361.741C264.363 361.741 264.74 361.549 265.004 361.165C265.268 360.777 265.401 360.214 265.405 359.475V359.129Z" fill="white"/>
<path d="M266.889 450.784C266.889 451.484 266.765 452.098 266.518 452.625C266.27 453.153 265.916 453.559 265.453 453.846C264.994 454.132 264.467 454.276 263.871 454.276C263.282 454.276 262.756 454.134 262.294 453.851C261.832 453.568 261.474 453.164 261.22 452.64C260.966 452.113 260.837 451.507 260.834 450.823V450.472C260.834 449.772 260.96 449.157 261.21 448.626C261.464 448.092 261.821 447.684 262.28 447.401C262.742 447.114 263.269 446.971 263.862 446.971C264.454 446.971 264.98 447.114 265.439 447.401C265.901 447.684 266.257 448.092 266.508 448.626C266.762 449.157 266.889 449.77 266.889 450.467V450.784ZM265.405 450.462C265.405 449.717 265.271 449.15 265.004 448.763C264.737 448.376 264.356 448.182 263.862 448.182C263.37 448.182 262.991 448.374 262.724 448.758C262.457 449.139 262.322 449.699 262.319 450.438V450.784C262.319 451.51 262.452 452.073 262.719 452.474C262.986 452.874 263.37 453.074 263.871 453.074C264.363 453.074 264.74 452.882 265.004 452.498C265.268 452.111 265.401 451.548 265.405 450.809V450.462Z" fill="white"/>
<line x1="448.756" y1="134.314" x2="418.944" y2="133.98" stroke="white"/>
<line x1="448.372" y1="496.861" x2="415.885" y2="496.861" stroke="white"/>
<line x1="448.985" y1="406.141" x2="416.497" y2="406.141" stroke="white"/>
<line x1="448.985" y1="315.421" x2="416.497" y2="315.421" stroke="white"/>
<line x1="448.985" y1="224.7" x2="416.497" y2="224.7" stroke="white"/>
<circle cx="415.885" cy="118.768" r="15.9374" transform="rotate(-180 415.885 118.768)" fill="#62F2A6"/>
<path d="M409.377 121.139H413.733V109.294H416.663V121.139H420.959V123.512H409.377V121.139Z" fill="white"/>
<circle cx="416.497" cy="481.65" r="15.9374" transform="rotate(-180 416.497 481.65)" fill="#F1E023"/>
<path d="M413.349 478.044H418.486L419.463 475.114H422.578L417.285 489.333H414.57L409.248 475.114H412.363L413.349 478.044ZM417.695 480.417H414.14L415.927 485.739L417.695 480.417Z" fill="white"/>
<circle cx="415.885" cy="209.489" r="15.9374" transform="rotate(-180 415.885 209.489)" fill="#E8A62F"/>
<path d="M409.066 207.41C409.177 205.88 409.743 204.676 410.765 203.797C411.781 202.918 413.122 202.479 414.789 202.479C416.612 202.479 418.047 203.091 419.096 204.315C420.137 205.545 420.658 207.231 420.658 209.373V210.242C420.658 211.61 420.417 212.814 419.935 213.856C419.454 214.897 418.767 215.695 417.875 216.248C416.976 216.808 415.935 217.088 414.75 217.088C413.109 217.088 411.788 216.649 410.785 215.77C409.782 214.891 409.203 213.657 409.047 212.069H411.976C412.048 212.987 412.305 213.651 412.748 214.061C413.184 214.477 413.851 214.686 414.75 214.686C415.726 214.686 416.459 214.334 416.947 213.631C417.429 212.934 417.676 211.85 417.689 210.379V209.305C417.689 207.768 417.458 206.645 416.996 205.936C416.527 205.226 415.792 204.871 414.789 204.871C413.884 204.871 413.21 205.076 412.767 205.487C412.318 205.903 412.061 206.544 411.996 207.41H409.066Z" fill="white"/>
<circle cx="415.885" cy="300.209" r="15.9374" transform="rotate(-180 415.885 300.209)" fill="#C6344A"/>
<path d="M409.252 293.038C409.779 292.406 410.525 291.915 411.488 291.563C412.452 291.218 413.519 291.046 414.691 291.046C415.922 291.046 417.002 291.313 417.933 291.846C418.858 292.387 419.574 293.168 420.082 294.19C420.583 295.212 420.84 296.414 420.853 297.794V298.761C420.853 300.18 420.616 301.407 420.14 302.442C419.659 303.484 418.969 304.278 418.07 304.825C417.165 305.378 416.107 305.655 414.896 305.655C413.21 305.655 411.892 305.251 410.941 304.444C409.991 303.643 409.428 302.475 409.252 300.938H412.103C412.234 301.752 412.523 302.348 412.973 302.725C413.415 303.103 414.027 303.292 414.808 303.292C415.805 303.292 416.563 302.917 417.084 302.169C417.605 301.42 417.868 300.307 417.875 298.829V297.921C417.875 296.43 417.592 295.304 417.025 294.542C416.459 293.78 415.629 293.399 414.535 293.399C413.435 293.399 412.65 293.634 412.182 294.102V296.554H414.848V298.712H409.252V293.038Z" fill="white"/>
<circle cx="415.885" cy="390.316" r="15.9374" transform="rotate(-180 415.885 390.316)" fill="#62F2A6"/>
<path d="M410.34 392.617H414.696V380.771H417.625V392.617H421.922V394.99H410.34V392.617Z" fill="white"/>
</g>
<rect x="222.567" y="47.209" width="64.4254" height="83.6791" stroke="white" stroke-width="2"/>
<rect x="219.679" y="444.799" width="70.2015" height="88.4925" stroke="white" stroke-width="2"/>
<path d="M151.547 87.8601C151.156 88.2506 151.156 88.8838 151.547 89.2743L157.911 95.6383C158.301 96.0288 158.934 96.0288 159.325 95.6383C159.715 95.2477 159.715 94.6146 159.325 94.2241L153.668 88.5672L159.325 82.9103C159.715 82.5198 159.715 81.8867 159.325 81.4961C158.934 81.1056 158.301 81.1056 157.911 81.4961L151.547 87.8601ZM221.567 87.5672L152.254 87.5672V89.5672L221.567 89.5672V87.5672Z" fill="white"/>
<path d="M153.472 488.789C153.081 488.399 153.081 487.766 153.472 487.375L159.836 481.011C160.227 480.621 160.86 480.621 161.25 481.011C161.641 481.402 161.641 482.035 161.25 482.425L155.593 488.082L161.25 493.739C161.641 494.13 161.641 494.763 161.25 495.153C160.86 495.544 160.227 495.544 159.836 495.153L153.472 488.789ZM218.679 489.082H154.179V487.082H218.679V489.082Z" fill="white"/>
<path d="M28.515 175.173C29.0189 174.645 29.892 174.382 31.1342 174.382C32.3822 174.382 33.3871 174.786 34.1488 175.595C34.9164 176.403 35.3002 177.437 35.3002 178.697C35.3002 179.957 34.8578 180.985 33.973 181.782C33.0883 182.573 31.8988 182.969 30.4047 182.969C29.4848 182.969 28.5853 182.834 27.7064 182.564C26.8275 182.295 26.1713 182.002 25.7377 181.685L26.432 179.936C27.6273 180.651 28.9047 181.009 30.2641 181.009C31.9164 181.009 32.7455 180.221 32.7514 178.644V178.636C32.7514 178.009 32.5492 177.511 32.1449 177.142C31.7465 176.767 31.2396 176.579 30.6244 176.579C29.5639 176.579 28.7143 176.881 28.0756 177.484L26.1947 176.544L26.9066 169.759H34.307V171.921H28.8754L28.515 175.173ZM39.8617 175.357L38.9213 174.953C39.2201 174.613 39.5072 174.162 39.7826 173.6C40.0639 173.031 40.2045 172.477 40.2045 171.938H38.7543V169.513H41.5844V171.473C41.5844 172.252 41.391 173.011 41.0043 173.749C40.6176 174.481 40.2367 175.018 39.8617 175.357ZM55.6381 181.694C55.4506 182.081 55.0873 182.386 54.5482 182.608C54.0092 182.825 53.4115 182.934 52.7553 182.934C51.8119 182.934 51.0678 182.673 50.5228 182.151C49.9779 181.63 49.7055 180.971 49.7055 180.174V173.292H52.0961V179.787C52.0961 180.238 52.2543 180.575 52.5707 180.798C52.893 181.02 53.2855 181.132 53.7484 181.132C54.2113 181.132 54.6303 181.009 55.0053 180.763C55.3803 180.511 55.5678 180.142 55.5678 179.655V173.292H57.9584V182.731H55.7084L55.6381 181.694ZM64.5062 180.859C65.2855 180.859 65.8685 180.719 66.2553 180.437V175.419C66.2553 175.278 66.0883 175.132 65.7543 174.979C65.4144 174.833 64.9809 174.76 64.4535 174.76C63.3637 174.76 62.8187 175.199 62.8187 176.078V179.602C62.8187 180.44 63.3812 180.859 64.5062 180.859ZM64.3832 186.607C62.9945 186.607 61.9545 186.443 61.2631 186.115L61.7553 184.489C62.64 184.735 63.4545 184.858 64.1986 184.858C64.9486 184.858 65.4789 184.709 65.7894 184.41C66.1 184.117 66.2553 183.645 66.2553 182.995V181.958C65.7045 182.286 64.9223 182.45 63.9086 182.45C62.9008 182.45 62.0687 182.192 61.4125 181.677C60.7562 181.155 60.4281 180.435 60.4281 179.515V176.131C60.4281 175.281 60.7035 174.563 61.2543 173.977C61.8109 173.386 62.7338 173.09 64.0228 173.09C64.5209 173.09 65.0072 173.175 65.4818 173.345C65.9623 173.509 66.3578 173.717 66.6684 173.969L66.8705 173.283H68.6459V182.837C68.6459 185.351 67.225 186.607 64.3832 186.607ZM74.6225 182.837C73.5385 182.837 72.7357 182.591 72.2143 182.099C71.6928 181.606 71.432 180.783 71.432 179.629V169.416H73.8227V179.594C73.8227 180.121 73.9457 180.499 74.1918 180.727C74.4379 180.95 74.8773 181.061 75.5102 181.061H75.809L75.6244 182.837H74.6225ZM78.0062 171.947V169.829H80.3969V171.947H78.0062ZM76.2396 185.913L76.1254 184.208H76.5121C77.5199 184.208 78.0238 183.686 78.0238 182.643V173.292H80.4144V182.758C80.4144 183.742 80.1478 184.513 79.6146 185.069C79.0814 185.632 78.2523 185.913 77.1273 185.913H76.2396ZM85.3012 177.01H88.6937V175.902C88.6937 175.334 88.4652 174.985 88.0082 174.856C87.768 174.786 87.4018 174.754 86.9096 174.76C86.4232 174.76 86.0336 174.842 85.7406 175.006C85.4477 175.17 85.3012 175.483 85.3012 175.946V177.01ZM85.3539 182.775C84.8852 182.676 84.4633 182.509 84.0883 182.274C83.3031 181.794 82.9105 180.962 82.9105 179.778V176.096C82.9105 175.146 83.2709 174.408 83.9916 173.881C84.7123 173.353 85.6937 173.09 86.9359 173.09C89.6137 173.09 90.9525 174.121 90.9525 176.184V178.469H85.3012V180.007C85.3012 180.528 85.4301 180.871 85.6879 181.035C85.9457 181.193 86.3822 181.272 86.9975 181.272C87.6127 181.272 87.976 181.243 88.0873 181.185C88.351 181.038 88.5209 180.862 88.5971 180.657C88.6732 180.446 88.7172 180.171 88.7289 179.831H90.9437C90.9086 181.284 90.3959 182.204 89.4057 182.591C88.8256 182.813 88.1225 182.925 87.2963 182.925C86.4701 182.931 85.8227 182.881 85.3539 182.775ZM99.223 176.096C99.223 175.281 98.6693 174.874 97.5619 174.874C97.0873 174.874 96.6625 175 96.2875 175.252C95.9125 175.498 95.725 175.838 95.725 176.271V182.731H93.3344V173.292H95.725V174.127C96.5277 173.424 97.4652 173.072 98.5375 173.072C99.6098 173.072 100.389 173.348 100.875 173.898C101.368 174.449 101.614 175.138 101.614 175.964V182.731H99.223V176.096ZM104.409 171.947V169.829H106.799V171.947H104.409ZM104.409 182.731V173.292H106.799V182.731H104.409ZM109.629 182.731V169.407H112.02V177.44L115.755 173.292H118.48L114.929 177.361L118.638 182.731H116.028L113.075 178.363L112.02 179.444V182.731H109.629Z" fill="white"/>
<path d="M27.9423 601.26C29.4833 601.26 30.2538 600.592 30.2538 599.256C30.2538 598.623 30.1718 598.163 30.0077 597.876C29.8495 597.583 29.5683 597.372 29.164 597.243C28.7597 597.108 28.1738 597.041 27.4062 597.041V595.292C28.8241 595.292 29.6679 595.075 29.9374 594.642C30.1015 594.372 30.1835 593.965 30.1835 593.42C30.1835 592.869 30.0165 592.456 29.6825 592.181C29.3486 591.899 28.7597 591.759 27.9159 591.759C27.0722 591.759 26.4833 591.917 26.1493 592.233C25.8212 592.544 25.6601 593.106 25.6659 593.921H23.3105C23.3222 592.397 23.7323 591.328 24.5409 590.713C25.3495 590.098 26.4687 589.79 27.8984 589.79C29.3339 589.79 30.4794 590.104 31.3349 590.73C32.1904 591.352 32.6181 592.216 32.6181 593.323C32.6181 594.214 32.4482 594.873 32.1083 595.301C31.7685 595.723 31.2822 596.004 30.6493 596.145C32.038 596.52 32.7323 597.557 32.7323 599.256C32.7323 600.434 32.3573 601.392 31.6073 602.13C30.8573 602.868 29.665 603.237 28.0302 603.237C26.3954 603.237 25.2001 602.892 24.4443 602.2C23.6884 601.503 23.2929 600.492 23.2577 599.168H25.6132C25.6249 599.965 25.8095 600.513 26.1669 600.812C26.5302 601.11 27.122 601.26 27.9423 601.26ZM37.496 595.626L36.5556 595.222C36.8544 594.882 37.1415 594.431 37.4169 593.868C37.6982 593.3 37.8388 592.746 37.8388 592.207H36.3886V589.781H39.2187V591.741C39.2187 592.521 39.0253 593.279 38.6386 594.018C38.2519 594.75 37.871 595.286 37.496 595.626ZM53.2724 601.963C53.0849 602.35 52.7216 602.654 52.1825 602.877C51.6435 603.094 51.0458 603.202 50.3896 603.202C49.4462 603.202 48.7021 602.941 48.1572 602.42C47.6122 601.898 47.3398 601.239 47.3398 600.442V593.561H49.7304V600.056C49.7304 600.507 49.8886 600.844 50.205 601.066C50.5273 601.289 50.9198 601.4 51.3827 601.4C51.8456 601.4 52.2646 601.277 52.6396 601.031C53.0146 600.779 53.2021 600.41 53.2021 599.924V593.561H55.5927V603H53.3427L53.2724 601.963ZM62.1406 601.128C62.9198 601.128 63.5029 600.987 63.8896 600.706V595.688C63.8896 595.547 63.7226 595.4 63.3886 595.248C63.0488 595.102 62.6152 595.028 62.0878 595.028C60.998 595.028 60.4531 595.468 60.4531 596.347V599.871C60.4531 600.709 61.0156 601.128 62.1406 601.128ZM62.0175 606.876C60.6288 606.876 59.5888 606.712 58.8974 606.384L59.3896 604.758C60.2743 605.004 61.0888 605.127 61.8329 605.127C62.5829 605.127 63.1132 604.978 63.4238 604.679C63.7343 604.386 63.8896 603.914 63.8896 603.264V602.227C63.3388 602.555 62.5566 602.719 61.5429 602.719C60.5351 602.719 59.7031 602.461 59.0468 601.945C58.3906 601.424 58.0624 600.703 58.0624 599.783V596.399C58.0624 595.55 58.3378 594.832 58.8886 594.246C59.4452 593.654 60.3681 593.358 61.6572 593.358C62.1552 593.358 62.6415 593.443 63.1161 593.613C63.5966 593.777 63.9921 593.985 64.3027 594.237L64.5048 593.552H66.2802V603.105C66.2802 605.619 64.8593 606.876 62.0175 606.876ZM72.2568 603.105C71.1728 603.105 70.37 602.859 69.8486 602.367C69.3271 601.875 69.0663 601.052 69.0663 599.897V589.685H71.457V599.862C71.457 600.39 71.58 600.768 71.8261 600.996C72.0722 601.219 72.5116 601.33 73.1445 601.33H73.4433L73.2587 603.105H72.2568ZM75.6406 592.216V590.098H78.0312V592.216H75.6406ZM73.874 606.182L73.7597 604.477H74.1464C75.1542 604.477 75.6581 603.955 75.6581 602.912V593.561H78.0488V603.026C78.0488 604.011 77.7822 604.781 77.249 605.338C76.7157 605.9 75.8866 606.182 74.7616 606.182H73.874ZM82.9355 597.278H86.3281V596.171C86.3281 595.603 86.0995 595.254 85.6425 595.125C85.4023 595.055 85.0361 595.022 84.5439 595.028C84.0575 595.028 83.6679 595.11 83.3749 595.274C83.082 595.438 82.9355 595.752 82.9355 596.215V597.278ZM82.9882 603.044C82.5195 602.944 82.0976 602.777 81.7226 602.543C80.9374 602.062 80.5448 601.23 80.5448 600.047V596.364C80.5448 595.415 80.9052 594.677 81.6259 594.149C82.3466 593.622 83.3281 593.358 84.5702 593.358C87.248 593.358 88.5868 594.39 88.5868 596.452V598.737H82.9355V600.275C82.9355 600.797 83.0644 601.14 83.3222 601.304C83.58 601.462 84.0165 601.541 84.6318 601.541C85.247 601.541 85.6103 601.512 85.7216 601.453C85.9853 601.307 86.1552 601.131 86.2314 600.926C86.3075 600.715 86.3515 600.439 86.3632 600.1H88.5781C88.5429 601.553 88.0302 602.473 87.04 602.859C86.4599 603.082 85.7568 603.193 84.9306 603.193C84.1044 603.199 83.457 603.149 82.9882 603.044ZM96.8573 596.364C96.8573 595.55 96.3036 595.143 95.1962 595.143C94.7216 595.143 94.2968 595.269 93.9218 595.521C93.5468 595.767 93.3593 596.106 93.3593 596.54V603H90.9687V593.561H93.3593V594.396C94.162 593.692 95.0995 593.341 96.1718 593.341C97.2441 593.341 98.0234 593.616 98.5097 594.167C99.0019 594.718 99.248 595.406 99.248 596.232V603H96.8573V596.364ZM102.043 592.216V590.098H104.434V592.216H102.043ZM102.043 603V593.561H104.434V603H102.043ZM107.264 603V589.676H109.654V597.709L113.39 593.561H116.114L112.563 597.63L116.272 603H113.662L110.709 598.632L109.654 599.713V603H107.264Z" fill="white"/>
<circle r="3.3694" transform="matrix(1 0 0 -1 60.3172 504.929)" fill="white"/>
<rect x="17.9776" y="537.679" width="39.4328" height="32.694" stroke="white"/>
<g filter="url(#filter1_d)">
<rect width="142.478" height="161.731" rx="20" transform="matrix(1 0 0 -1 4 582.425)" fill="#79CCDB"/>
<path d="M50.5757 501.457C50.5757 500.038 49.8367 499.328 48.3589 499.328C47.5906 499.328 47.0568 499.4 46.7573 499.543C46.4578 499.686 46.243 499.859 46.1128 500.061C45.8393 500.49 45.7026 501.161 45.7026 502.072H43.8276C43.8276 500.881 44.0294 499.973 44.4331 499.348C44.8367 498.716 45.3608 498.293 46.0054 498.078C46.6564 497.857 47.4181 497.746 48.2905 497.746C49.56 497.746 50.5626 498.052 51.2983 498.664C52.0405 499.27 52.4116 500.191 52.4116 501.428C52.4116 502.378 52.2326 503.111 51.8745 503.625C51.5229 504.133 50.9468 504.452 50.146 504.582C50.9988 504.758 51.6369 505.119 52.06 505.666C52.4832 506.213 52.6948 507.105 52.6948 508.342C52.6948 509.579 52.3172 510.549 51.562 511.252C50.8068 511.949 49.7293 512.297 48.3296 512.297C47.2684 512.297 46.4253 512.157 45.8003 511.877C45.1818 511.597 44.7098 511.141 44.3843 510.51C44.0587 509.878 43.8406 508.999 43.73 507.873H45.605C45.6831 509.032 45.9337 509.8 46.3569 510.178C46.5913 510.386 46.868 510.529 47.187 510.607C47.506 510.679 47.9227 510.715 48.437 510.715C49.2638 510.715 49.8693 510.503 50.2534 510.08C50.6375 509.657 50.8296 508.951 50.8296 507.961C50.8296 506.971 50.6473 506.317 50.2827 505.998C49.9246 505.673 49.4819 505.48 48.9546 505.422C48.4337 505.363 47.9259 505.334 47.4311 505.334V503.879C48.4728 503.879 49.1759 503.794 49.5405 503.625C49.9051 503.456 50.1688 503.251 50.3315 503.01C50.4943 502.762 50.5757 502.245 50.5757 501.457Z" fill="#F40F0F"/>
<line x1="43.9856" y1="537.918" x2="61.314" y2="503.261" stroke="white"/>
<path d="M36.9575 540.948H32.563V550.088H23.9936V540.948H19.5991V562.276H23.9936V553.633H32.563V562.276H36.9575V540.948ZM58.3296 551.128C58.3296 549.029 57.9585 547.188 57.2163 545.606C56.4741 544.024 55.4096 542.803 54.0229 541.944C52.646 541.084 51.0639 540.655 49.2768 540.655C47.5092 540.655 45.9321 541.08 44.5454 541.929C43.1587 542.779 42.0844 543.99 41.3227 545.562C40.561 547.144 40.1753 548.96 40.1655 551.011V552.066C40.1655 554.165 40.5415 556.011 41.2934 557.603C42.0551 559.205 43.1245 560.43 44.5014 561.28C45.8881 562.139 47.4702 562.569 49.2475 562.569C51.0249 562.569 52.602 562.139 53.979 561.28C55.3657 560.43 56.435 559.205 57.187 557.603C57.9487 556.011 58.3296 554.17 58.3296 552.081V551.128ZM53.8764 552.095C53.8764 554.331 53.476 556.031 52.6753 557.193C51.8745 558.355 50.7319 558.936 49.2475 558.936C47.7729 558.936 46.6352 558.36 45.8344 557.207C45.0337 556.065 44.6284 554.385 44.6186 552.168V551.128C44.6186 548.951 45.019 547.261 45.8198 546.06C46.6206 544.859 47.7729 544.258 49.2768 544.258C50.7514 544.258 51.8842 544.834 52.6753 545.987C53.4663 547.149 53.8667 548.838 53.8764 551.055V552.095Z" fill="white"/>
<line x1="49.7231" y1="469.909" x2="41.0589" y2="434.29" stroke="white"/>
<path fill-rule="evenodd" clip-rule="evenodd" d="M81.2998 441.342L115.075 465.495L102.062 504.417L60.2434 504.319L47.4119 465.337L81.2998 441.342Z" fill="#22B674" stroke="#22B674"/>
<path d="M83.8063 442.462C83.8063 443.178 83.7084 443.803 83.5124 444.338C83.3164 444.869 83.0388 445.275 82.6795 445.556C82.3202 445.837 81.901 445.977 81.422 445.977C80.9538 445.977 80.5387 445.837 80.1767 445.556C79.8147 445.272 79.533 444.869 79.3316 444.348C79.1329 443.823 79.0308 443.216 79.0254 442.527V442.001C79.0254 441.299 79.1247 440.679 79.3234 440.141C79.5221 439.602 79.8025 439.191 80.1645 438.907C80.5292 438.62 80.9456 438.476 81.4138 438.476C81.8901 438.476 82.3093 438.618 82.6713 438.902C83.0361 439.183 83.3164 439.592 83.5124 440.131C83.7084 440.665 83.8063 441.289 83.8063 442.001V442.462ZM83.0265 441.991C83.0265 441.125 82.885 440.462 82.6019 440C82.3188 439.536 81.9228 439.303 81.4138 439.303C80.9184 439.303 80.5278 439.536 80.242 440C79.959 440.462 79.8133 441.103 79.8052 441.926V442.462C79.8052 443.301 79.9481 443.962 80.2339 444.443C80.5224 444.921 80.9184 445.16 81.422 445.16C81.9282 445.16 82.3202 444.934 82.5978 444.483C82.8755 444.028 83.0184 443.378 83.0265 442.532V441.991Z" fill="white"/>
<path d="M41.8349 466.388V464.674H38.7099V463.908L41.2929 459.327H42.3134L39.8037 463.917H41.8349V462.301H42.6503V463.917H43.6855V464.674H42.6503V466.388H41.8349Z" fill="#F40F0F"/>
<path d="M118.921 468.313V467.557H120.879V462.078L119.052 462.273L118.964 461.497L121.059 461.253H121.86V467.557H123.588V468.313H118.921Z" fill="#F40F0F"/>
<path d="M106.528 509.709L106.435 508.937L108.818 506.345C109.251 505.876 109.496 505.588 109.555 505.48C109.617 505.37 109.675 505.249 109.731 505.119C109.789 504.989 109.819 504.798 109.819 504.548C109.819 504.102 109.724 503.788 109.535 503.605C109.347 503.423 109.033 503.332 108.593 503.332C108.32 503.332 108.1 503.35 107.934 503.386C107.768 503.421 107.625 503.49 107.504 503.591C107.289 503.77 107.182 504.142 107.182 504.709H106.201C106.201 503.264 106.974 502.541 108.52 502.541C109.262 502.541 109.819 502.73 110.19 503.107C110.561 503.482 110.746 503.937 110.746 504.475C110.746 505.012 110.649 505.432 110.453 505.734C110.261 506.037 110.063 506.296 109.858 506.511C109.653 506.722 109.537 506.843 109.511 506.872L107.553 508.947H110.707V509.709H106.528Z" fill="#F40F0F"/>
<path d="M36.1434 431.583C36.4721 431.284 36.9002 431.134 37.4275 431.134C38.1437 431.134 38.6873 431.332 39.0584 431.729C39.4295 432.127 39.615 432.675 39.615 433.375C39.615 434.072 39.3969 434.632 38.9607 435.055C38.5278 435.478 37.9565 435.689 37.2469 435.689C36.9083 435.689 36.5877 435.654 36.285 435.582C35.9822 435.514 35.7462 435.44 35.577 435.362C35.4077 435.284 35.2173 435.183 35.0057 435.06L35.2645 434.312C35.4663 434.446 35.6388 434.549 35.782 434.62C36.1531 434.806 36.6284 434.898 37.2078 434.898C37.9207 434.898 38.3813 434.618 38.5896 434.059C38.658 433.876 38.6922 433.67 38.6922 433.438C38.6922 432.944 38.5799 432.558 38.3553 432.281C38.1307 432.001 37.7824 431.861 37.3104 431.861C37.0825 431.861 36.879 431.902 36.7 431.983C36.5242 432.062 36.2996 432.2 36.0262 432.398L35.3133 432.105L35.5623 428.521H39.1609V429.327H36.3484L36.1434 431.583Z" fill="#F40F0F"/>
<rect x="16" y="536" width="47" height="32" stroke="white" stroke-width="2"/>
</g>
<g filter="url(#filter2_d)">
<rect x="4" width="142.478" height="161.731" rx="20" fill="#79CCDB"/>
<line x1="59.35" y1="105.051" x2="50.6858" y2="69.4316" stroke="white"/>
<path fill-rule="evenodd" clip-rule="evenodd" d="M92.5495 80.8439L126.325 104.997L113.311 143.919L71.4931 143.821L58.6616 104.839L92.5495 80.8439Z" fill="#22B674" stroke="#22B674"/>
<path d="M95.056 81.9638C95.056 82.6792 94.9581 83.3044 94.7621 83.8392C94.5661 84.3707 94.2885 84.7769 93.9292 85.0577C93.5699 85.3385 93.1507 85.4789 92.6717 85.4789C92.2035 85.4789 91.7884 85.3385 91.4264 85.0577C91.0644 84.7736 90.7827 84.3707 90.5813 83.8493C90.3826 83.3244 90.2805 82.7177 90.2751 82.029V81.5025C90.2751 80.8005 90.3744 80.1804 90.5731 79.6422C90.7718 79.104 91.0522 78.6928 91.4142 78.4087C91.7789 78.1212 92.1953 77.9774 92.6635 77.9774C93.1398 77.9774 93.559 78.1195 93.921 78.4036C94.2857 78.6844 94.5661 79.094 94.7621 79.6322C94.9581 80.167 95.056 80.7905 95.056 81.5025V81.9638ZM94.2762 81.4925C94.2762 80.6267 94.1347 79.9631 93.8516 79.5018C93.5685 79.0371 93.1725 78.8048 92.6635 78.8048C92.1681 78.8048 91.7775 79.0371 91.4917 79.5018C91.2087 79.9631 91.063 80.6049 91.0549 81.4273V81.9638C91.0549 82.8029 91.1978 83.4631 91.4836 83.9445C91.7721 84.4226 92.1681 84.6616 92.6717 84.6616C93.1779 84.6616 93.5699 84.4359 93.8475 83.9846C94.1252 83.53 94.2681 82.8798 94.2762 82.034V81.4925Z" fill="white"/>
<path d="M40.8501 82.4273C41.5077 81.8283 42.3638 81.5289 43.4185 81.5289C44.8508 81.5289 45.938 81.926 46.6802 82.7203C47.4224 83.5145 47.7935 84.6116 47.7935 86.0113C47.7935 87.4045 47.3573 88.5243 46.4849 89.3707C45.619 90.217 44.4764 90.6402 43.0572 90.6402C42.3801 90.6402 41.7388 90.5686 41.1333 90.4254C40.5279 90.2886 40.0559 90.1422 39.7173 89.9859C39.3788 89.8297 38.9979 89.6278 38.5748 89.3804L39.0923 87.8863C39.496 88.1532 39.841 88.3583 40.1275 88.5015C40.8697 88.8726 41.8202 89.0582 42.9791 89.0582C44.4048 89.0582 45.3261 88.4983 45.7427 87.3785C45.8794 87.0139 45.9478 86.6005 45.9478 86.1382C45.9478 85.1487 45.7232 84.3772 45.274 83.8238C44.8248 83.2639 44.1281 82.9839 43.1841 82.9839C42.7284 82.9839 42.3215 83.0653 41.9634 83.2281C41.6119 83.3843 41.1626 83.661 40.6158 84.0582L39.19 83.4722L39.688 76.3043H46.8853V77.9156H41.2603L40.8501 82.4273Z" fill="#F40F0F"/>
<circle cx="50.2089" cy="45.2462" r="26.9552" fill="#D42B2B"/>
<path d="M48.5171 46.8248V50.5821H46.3198V39.918H50.48C51.2807 39.918 51.9839 40.0645 52.5893 40.3575C53.1997 40.6505 53.6684 41.0679 53.9956 41.6099C54.3227 42.147 54.4863 42.7598 54.4863 43.4483C54.4863 44.4932 54.1274 45.3184 53.4096 45.9239C52.6968 46.5245 51.708 46.8248 50.4433 46.8248H48.5171ZM48.5171 45.045H50.48C51.061 45.045 51.5029 44.9083 51.8056 44.6348C52.1133 44.3614 52.2671 43.9708 52.2671 43.463C52.2671 42.9405 52.1133 42.5181 51.8056 42.1959C51.498 41.8736 51.0732 41.7076 50.5312 41.6978H48.5171V45.045Z" fill="white"/>
<circle cx="51.653" cy="74.6082" r="3.3694" fill="white"/>
<circle cx="50.2089" cy="45.2462" r="28.8433" stroke="white" stroke-width="2"/>
<path d="M128.547 107.306V106.549H130.505V101.071L128.679 101.266L128.591 100.49L130.686 100.245H131.487V106.549H133.215V107.306H128.547Z" fill="#F40F0F"/>
<path d="M117.117 147.739L117.024 146.967L119.407 144.375C119.84 143.906 120.086 143.618 120.145 143.51C120.206 143.4 120.265 143.279 120.32 143.149C120.379 143.019 120.408 142.828 120.408 142.578C120.408 142.132 120.314 141.818 120.125 141.635C119.936 141.453 119.622 141.362 119.183 141.362C118.909 141.362 118.689 141.38 118.523 141.416C118.357 141.451 118.214 141.52 118.094 141.621C117.879 141.8 117.772 142.172 117.772 142.739H116.79C116.79 141.293 117.563 140.571 119.109 140.571C119.852 140.571 120.408 140.76 120.779 141.137C121.15 141.512 121.336 141.967 121.336 142.504C121.336 143.042 121.238 143.461 121.043 143.764C120.851 144.067 120.652 144.326 120.447 144.541C120.242 144.752 120.127 144.873 120.101 144.902L118.143 146.977H121.297V147.739H117.117Z" fill="#F40F0F"/>
<path d="M67.48 141.464C67.48 140.754 67.1105 140.399 66.3716 140.399C65.9875 140.399 65.7206 140.435 65.5708 140.507C65.4211 140.578 65.3137 140.664 65.2486 140.765C65.1118 140.98 65.0435 141.316 65.0435 141.771H64.106C64.106 141.176 64.2069 140.721 64.4087 140.409C64.6105 140.093 64.8726 139.882 65.1948 139.774C65.5204 139.663 65.9012 139.608 66.3374 139.608C66.9722 139.608 67.4735 139.761 67.8413 140.067C68.2124 140.37 68.398 140.83 68.398 141.449C68.398 141.924 68.3084 142.29 68.1294 142.548C67.9536 142.802 67.6655 142.961 67.2652 143.026C67.6916 143.114 68.0106 143.295 68.2222 143.568C68.4338 143.842 68.5396 144.288 68.5396 144.906C68.5396 145.524 68.3508 146.01 67.9732 146.361C67.5956 146.709 67.0568 146.884 66.357 146.884C65.8264 146.884 65.4048 146.814 65.0923 146.674C64.7831 146.534 64.5471 146.306 64.3843 145.99C64.2215 145.674 64.1125 145.235 64.0571 144.672H64.9946C65.0337 145.251 65.159 145.635 65.3706 145.824C65.4878 145.928 65.6262 146 65.7857 146.039C65.9452 146.075 66.1535 146.093 66.4107 146.093C66.8241 146.093 67.1268 145.987 67.3189 145.775C67.5109 145.564 67.607 145.21 67.607 144.716C67.607 144.221 67.5158 143.894 67.3335 143.734C67.1545 143.571 66.9331 143.475 66.6695 143.446C66.409 143.417 66.1551 143.402 65.9077 143.402V142.675C66.4286 142.675 66.7801 142.632 66.9624 142.548C67.1447 142.463 67.2765 142.36 67.3579 142.24C67.4393 142.116 67.48 141.858 67.48 141.464Z" fill="#F40F0F"/>
<path d="M54.3498 107.306V105.592H51.2248V104.826L53.8078 100.245H54.8284L52.3186 104.835H54.3498V103.219H55.1653V104.835H56.2004V105.592H55.1653V107.306H54.3498Z" fill="#F40F0F"/>
</g>
<defs>
<filter id="filter0_d" x="210.828" y="30.806" width="313.172" height="540.676" filterUnits="userSpaceOnUse" color-interpolation-filters="sRGB">
<feFlood flood-opacity="0" result="BackgroundImageFix"/>
<feColorMatrix in="SourceAlpha" type="matrix" values="0 0 0 0 0 0 0 0 0 0 0 0 0 0 0 0 0 0 127 0"/>
<feOffset dy="4"/>
<feGaussianBlur stdDeviation="2"/>
<feColorMatrix type="matrix" values="0 0 0 0 0 0 0 0 0 0 0 0 0 0 0 0 0 0 0.25 0"/>
<feBlend mode="normal" in2="BackgroundImageFix" result="effect1_dropShadow"/>
<feBlend mode="normal" in="SourceGraphic" in2="effect1_dropShadow" result="shape"/>
</filter>
<filter id="filter1_d" x="0" y="420.694" width="150.478" height="169.731" filterUnits="userSpaceOnUse" color-interpolation-filters="sRGB">
<feFlood flood-opacity="0" result="BackgroundImageFix"/>
<feColorMatrix in="SourceAlpha" type="matrix" values="0 0 0 0 0 0 0 0 0 0 0 0 0 0 0 0 0 0 127 0"/>
<feOffset dy="4"/>
<feGaussianBlur stdDeviation="2"/>
<feColorMatrix type="matrix" values="0 0 0 0 0 0 0 0 0 0 0 0 0 0 0 0 0 0 0.25 0"/>
<feBlend mode="normal" in2="BackgroundImageFix" result="effect1_dropShadow"/>
<feBlend mode="normal" in="SourceGraphic" in2="effect1_dropShadow" result="shape"/>
</filter>
<filter id="filter2_d" x="0" y="0" width="150.478" height="169.731" filterUnits="userSpaceOnUse" color-interpolation-filters="sRGB">
<feFlood flood-opacity="0" result="BackgroundImageFix"/>
<feColorMatrix in="SourceAlpha" type="matrix" values="0 0 0 0 0 0 0 0 0 0 0 0 0 0 0 0 0 0 127 0"/>
<feOffset dy="4"/>
<feGaussianBlur stdDeviation="2"/>
<feColorMatrix type="matrix" values="0 0 0 0 0 0 0 0 0 0 0 0 0 0 0 0 0 0 0.25 0"/>
<feBlend mode="normal" in2="BackgroundImageFix" result="effect1_dropShadow"/>
<feBlend mode="normal" in="SourceGraphic" in2="effect1_dropShadow" result="shape"/>
</filter>
</defs>
</svg>
