<svg width="934" height="318" viewBox="0 0 934 318" fill="none" xmlns="http://www.w3.org/2000/svg">
<g filter="url(#filter0_d)">
<line x1="734.959" y1="219.58" x2="748.464" y2="219.58" stroke="#C9D1D9" stroke-width="2"/>
<line x1="755.967" y1="219.58" x2="772.473" y2="219.58" stroke="#C9D1D9" stroke-width="2"/>
</g>
<path fill-rule="evenodd" clip-rule="evenodd" d="M529.061 297.355L507.413 258.598L530.158 219.75L574.551 219.66L596.199 258.417L573.454 297.265L529.061 297.355Z" fill="#61ECA1" stroke="#C9D1D9"/>
<path fill-rule="evenodd" clip-rule="evenodd" d="M359.708 219.802L381.688 258.372L359.277 297.414L314.887 297.885L292.907 259.315L315.318 220.274L359.708 219.802Z" fill="#EDDE22" stroke="#C9D1D9"/>
<path fill-rule="evenodd" clip-rule="evenodd" d="M240.046 203.799L282.723 185.939L315.108 220.773L292.446 260.161L246.055 249.671L240.046 203.799Z" fill="#EDDE22" stroke="#C9D1D9"/>
<g filter="url(#filter1_d)">
<line x1="360.202" y1="219.323" x2="371.257" y2="205.109" stroke="#C9D1D9" stroke-width="2"/>
<line y1="-1" x2="18.0066" y2="-1" transform="matrix(-0.613941 -0.789352 -0.789352 0.613941 529.604 220.195)" stroke="#C9D1D9" stroke-width="2"/>
<line x1="371.495" y1="204.981" x2="385" y2="204.981" stroke="#C9D1D9" stroke-width="2"/>
<line x1="392.503" y1="204.981" x2="409.009" y2="204.981" stroke="#C9D1D9" stroke-width="2"/>
<line x1="412.01" y1="204.981" x2="428.516" y2="204.981" stroke="#C9D1D9" stroke-width="2"/>
<line x1="433.018" y1="204.981" x2="449.524" y2="204.981" stroke="#C9D1D9" stroke-width="2"/>
<line x1="455.526" y1="204.981" x2="472.032" y2="204.981" stroke="#C9D1D9" stroke-width="2"/>
<line x1="479.535" y1="204.981" x2="496.041" y2="204.981" stroke="#C9D1D9" stroke-width="2"/>
<line x1="502.043" y1="204.981" x2="518.549" y2="204.981" stroke="#C9D1D9" stroke-width="2"/>
</g>
<g filter="url(#filter2_d)">
<line x1="381.999" y1="258.251" x2="395.504" y2="258.251" stroke="#C9D1D9" stroke-width="2"/>
<line x1="403.006" y1="258.251" x2="419.512" y2="258.251" stroke="#C9D1D9" stroke-width="2"/>
<line x1="422.514" y1="258.251" x2="439.02" y2="258.251" stroke="#C9D1D9" stroke-width="2"/>
<line x1="443.521" y1="258.251" x2="460.027" y2="258.251" stroke="#C9D1D9" stroke-width="2"/>
<line x1="466.029" y1="258.251" x2="482.535" y2="258.251" stroke="#C9D1D9" stroke-width="2"/>
<line x1="490.038" y1="258.251" x2="506.544" y2="258.251" stroke="#C9D1D9" stroke-width="2"/>
</g>
<path fill-rule="evenodd" clip-rule="evenodd" d="M521.89 133.041L500.242 94.284L522.987 55.4364L567.38 55.3462L589.028 94.1035L566.283 132.951L521.89 133.041Z" fill="#E8A32C" stroke="#C9D1D9"/>
<path fill-rule="evenodd" clip-rule="evenodd" d="M351.505 55.7385L373.485 94.3084L351.074 133.35L306.684 133.821L284.704 95.2515L307.115 56.21L351.505 55.7385Z" fill="#C6344A" stroke="#C9D1D9"/>
<path fill-rule="evenodd" clip-rule="evenodd" d="M231.843 39.7354L274.52 21.8756L306.905 56.7091L284.243 96.0972L237.852 85.6069L231.843 39.7354Z" fill="#C6344A" stroke="#C9D1D9"/>
<g filter="url(#filter3_d)">
<line x1="351.998" y1="55.2584" x2="363.053" y2="41.0448" stroke="#C9D1D9" stroke-width="2"/>
<line y1="-1" x2="18.0066" y2="-1" transform="matrix(-0.613941 -0.789352 -0.789352 0.613941 521.4 56.1304)" stroke="#C9D1D9" stroke-width="2"/>
<line x1="363.292" y1="40.9175" x2="376.797" y2="40.9175" stroke="#C9D1D9" stroke-width="2"/>
<line x1="384.299" y1="40.917" x2="400.805" y2="40.917" stroke="#C9D1D9" stroke-width="2"/>
<line x1="403.807" y1="40.917" x2="420.313" y2="40.917" stroke="#C9D1D9" stroke-width="2"/>
<line x1="424.814" y1="40.917" x2="441.32" y2="40.917" stroke="#C9D1D9" stroke-width="2"/>
<line x1="447.322" y1="40.917" x2="463.828" y2="40.917" stroke="#C9D1D9" stroke-width="2"/>
<line x1="471.331" y1="40.917" x2="487.837" y2="40.917" stroke="#C9D1D9" stroke-width="2"/>
<line x1="493.839" y1="40.917" x2="510.346" y2="40.917" stroke="#C9D1D9" stroke-width="2"/>
</g>
<g filter="url(#filter4_d)">
<line y1="-1" x2="18.0066" y2="-1" transform="matrix(0.613941 0.789352 0.789352 -0.613941 351.287 131.542)" stroke="#C9D1D9" stroke-width="2"/>
<line x1="520.689" y1="131.897" x2="509.634" y2="146.111" stroke="#C9D1D9" stroke-width="2"/>
<line y1="-1" x2="13.5049" y2="-1" transform="matrix(1 0 0 -1 361.791 145.496)" stroke="#C9D1D9" stroke-width="2"/>
<line y1="-1" x2="16.506" y2="-1" transform="matrix(1 0 0 -1 382.799 145.497)" stroke="#C9D1D9" stroke-width="2"/>
<line y1="-1" x2="16.506" y2="-1" transform="matrix(1 0 0 -1 402.306 145.497)" stroke="#C9D1D9" stroke-width="2"/>
<line y1="-1" x2="16.506" y2="-1" transform="matrix(1 0 0 -1 423.314 145.497)" stroke="#C9D1D9" stroke-width="2"/>
<line y1="-1" x2="16.506" y2="-1" transform="matrix(1 0 0 -1 445.822 145.497)" stroke="#C9D1D9" stroke-width="2"/>
<line y1="-1" x2="16.506" y2="-1" transform="matrix(1 0 0 -1 469.831 145.497)" stroke="#C9D1D9" stroke-width="2"/>
<line y1="-1" x2="16.506" y2="-1" transform="matrix(1 0 0 -1 492.339 145.497)" stroke="#C9D1D9" stroke-width="2"/>
</g>
<g filter="url(#filter5_d)">
<line x1="373.796" y1="94.1863" x2="387.301" y2="94.1863" stroke="#C9D1D9" stroke-width="2"/>
<line x1="394.803" y1="94.1863" x2="411.309" y2="94.1863" stroke="#C9D1D9" stroke-width="2"/>
<line x1="414.31" y1="94.1863" x2="430.816" y2="94.1863" stroke="#C9D1D9" stroke-width="2"/>
<line x1="435.318" y1="94.1863" x2="451.824" y2="94.1863" stroke="#C9D1D9" stroke-width="2"/>
<line x1="457.826" y1="94.1863" x2="474.332" y2="94.1863" stroke="#C9D1D9" stroke-width="2"/>
<line x1="481.835" y1="94.1863" x2="498.341" y2="94.1863" stroke="#C9D1D9" stroke-width="2"/>
</g>
<path d="M784.818 214.173V212.283H786.818V214.173H784.818ZM784.818 219.791V217.9H786.818V219.791H784.818ZM796.529 220.564L793.318 212.283H794.794L797.286 219.001L799.505 212.283H800.943L798.013 220.564H796.529ZM804.068 218.228C804.068 219.15 804.721 219.611 806.029 219.611C807.336 219.611 807.99 219.15 807.99 218.228V214.642C807.99 213.715 807.336 213.251 806.029 213.251C804.721 213.251 804.068 213.715 804.068 214.642V218.228ZM809.458 218.103C809.458 218.916 809.18 219.559 808.622 220.033C808.07 220.501 807.203 220.736 806.021 220.736C804.839 220.736 803.971 220.501 803.419 220.033C802.872 219.564 802.599 218.921 802.599 218.103V214.767C802.599 213.949 802.872 213.306 803.419 212.837C803.971 212.363 804.839 212.126 806.021 212.126C807.203 212.126 808.07 212.363 808.622 212.837C809.18 213.311 809.458 213.955 809.458 214.767V218.103ZM815.232 212.126C815.898 212.126 816.51 212.231 817.068 212.439V208.798H818.536V220.564H817.536L817.294 220.017C817.039 220.215 816.703 220.384 816.286 220.525C815.87 220.666 815.458 220.736 815.052 220.736C813.922 220.736 813.091 220.486 812.56 219.986C812.034 219.481 811.771 218.801 811.771 217.947V214.822C811.771 213.962 812.055 213.298 812.622 212.83C813.19 212.361 814.06 212.126 815.232 212.126ZM813.24 218.056C813.24 218.551 813.414 218.929 813.763 219.189C814.117 219.449 814.531 219.58 815.005 219.58C815.849 219.58 816.536 219.416 817.068 219.087V213.595C816.594 213.366 816.018 213.251 815.341 213.251C813.94 213.251 813.24 213.72 813.24 214.658V218.056ZM822.615 218.228C822.615 219.15 823.268 219.611 824.576 219.611C825.883 219.611 826.536 219.15 826.536 218.228V214.642C826.536 213.715 825.883 213.251 824.576 213.251C823.268 213.251 822.615 213.715 822.615 214.642V218.228ZM828.005 218.103C828.005 218.916 827.727 219.559 827.169 220.033C826.617 220.501 825.75 220.736 824.568 220.736C823.385 220.736 822.518 220.501 821.966 220.033C821.419 219.564 821.146 218.921 821.146 218.103V214.767C821.146 213.949 821.419 213.306 821.966 212.837C822.518 212.363 823.385 212.126 824.568 212.126C825.75 212.126 826.617 212.363 827.169 212.837C827.727 213.311 828.005 213.955 828.005 214.767V218.103ZM835.896 214.462C835.896 213.655 835.279 213.251 834.044 213.251C833.435 213.251 832.956 213.382 832.607 213.642C832.258 213.903 832.083 214.244 832.083 214.666V220.564H830.615V212.283H832.083V213.087C832.635 212.447 833.453 212.126 834.536 212.126C835.943 212.126 836.833 212.621 837.208 213.611C837.313 213.892 837.365 214.205 837.365 214.548V220.564H835.896V214.462ZM840.349 220.564V212.283H841.818V220.564H840.349ZM840.349 210.791V209.267H841.818V210.791H840.349ZM847.216 210.853L845.615 208.775H846.826L847.794 210.134L848.826 208.775H850.083L848.388 210.853H847.216ZM847.919 220.736C846.227 220.736 845.167 220.147 844.74 218.97C844.615 218.637 844.552 218.272 844.552 217.876V214.72C844.552 213.934 844.852 213.306 845.451 212.837C846.05 212.363 846.859 212.126 847.88 212.126C849.182 212.126 850.078 212.408 850.568 212.97C850.953 213.408 851.146 214.054 851.146 214.908L849.747 215.041C849.747 214.301 849.615 213.819 849.349 213.595C849.089 213.366 848.622 213.251 847.951 213.251C847.279 213.251 846.789 213.369 846.482 213.603C846.175 213.837 846.021 214.223 846.021 214.759V218.001C846.021 218.574 846.182 218.986 846.505 219.236C846.828 219.486 847.326 219.611 847.997 219.611C848.675 219.611 849.125 219.522 849.349 219.345C849.578 219.168 849.719 218.767 849.771 218.142H851.13C851.047 219.1 850.771 219.772 850.302 220.158C849.833 220.543 849.039 220.736 847.919 220.736ZM858.802 214.462C858.802 213.655 858.185 213.251 856.951 213.251C856.341 213.251 855.862 213.382 855.513 213.642C855.164 213.903 854.99 214.244 854.99 214.666V220.564H853.521V212.283H854.99V213.087C855.542 212.447 856.359 212.126 857.443 212.126C858.849 212.126 859.74 212.621 860.115 213.611C860.219 213.892 860.271 214.205 860.271 214.548V220.564H858.802V214.462ZM865.326 220.736C864.487 220.736 863.836 220.509 863.372 220.056C862.909 219.598 862.677 219.03 862.677 218.353C862.677 217.968 862.758 217.647 862.919 217.392C863.247 216.871 864.227 216.374 865.857 215.9C866.8 215.639 867.341 215.416 867.482 215.228C867.628 215.041 867.708 214.895 867.724 214.791C867.74 214.681 867.747 214.509 867.747 214.275C867.747 214.041 867.651 213.811 867.458 213.587C867.271 213.363 866.859 213.251 866.224 213.251C865.328 213.251 864.779 213.423 864.576 213.767C864.471 213.944 864.419 214.184 864.419 214.486V214.853H863.005V214.478C863.005 213.671 863.273 213.077 863.81 212.697C864.352 212.317 865.159 212.126 866.232 212.126C867.305 212.126 868.07 212.371 868.529 212.861C868.987 213.345 869.216 214.038 869.216 214.939V218.47C869.216 218.903 869.271 219.184 869.38 219.314C869.49 219.439 869.724 219.501 870.083 219.501L869.911 220.626H869.615C869.094 220.626 868.706 220.528 868.451 220.33C868.195 220.126 868 219.814 867.865 219.392C867.432 220.038 866.911 220.444 866.302 220.611C866.01 220.694 865.685 220.736 865.326 220.736ZM866.06 216.908C865.32 217.121 864.807 217.335 864.521 217.548C864.24 217.762 864.099 218.064 864.099 218.455C864.099 218.84 864.229 219.132 864.49 219.33C864.755 219.528 865.073 219.626 865.443 219.626C865.818 219.626 866.156 219.58 866.458 219.486C866.76 219.387 867.031 219.244 867.271 219.056C867.516 218.863 867.675 218.645 867.747 218.4V216.009C867.367 216.389 866.805 216.689 866.06 216.908ZM878.513 220.564L875.302 212.283H876.779L879.271 219.001L881.49 212.283H882.927L879.997 220.564H878.513ZM888.029 220.736C886.815 220.736 885.938 220.483 885.396 219.978C884.854 219.473 884.583 218.694 884.583 217.642V214.759C884.583 213.942 884.862 213.298 885.419 212.83C885.977 212.361 886.818 212.126 887.943 212.126C889.073 212.126 889.911 212.345 890.458 212.783C891.01 213.215 891.286 213.835 891.286 214.642V216.611H886.052V217.775C886.052 218.462 886.19 218.942 886.466 219.212C886.742 219.478 887.24 219.611 887.958 219.611C888.677 219.611 889.083 219.595 889.177 219.564C889.271 219.533 889.367 219.496 889.466 219.455C889.565 219.413 889.633 219.363 889.669 219.306C889.711 219.249 889.763 219.163 889.826 219.048C889.893 218.929 889.943 218.699 889.974 218.361H891.271C891.219 218.856 891.13 219.254 891.005 219.556C890.885 219.858 890.693 220.1 890.427 220.283C890.167 220.46 889.852 220.58 889.482 220.642C889.117 220.705 888.633 220.736 888.029 220.736ZM886.052 215.619H889.865V214.486C889.865 214.017 889.703 213.694 889.38 213.517C889.063 213.34 888.594 213.251 887.974 213.251C887.354 213.251 886.878 213.358 886.544 213.572C886.216 213.785 886.052 214.137 886.052 214.626V215.619ZM893.568 220.564V219.642L897.529 213.251H893.708V212.283H899.076V213.181L895.091 219.595H899.146V220.564H893.568ZM903.685 220.736C902.846 220.736 902.195 220.509 901.732 220.056C901.268 219.598 901.036 219.03 901.036 218.353C901.036 217.968 901.117 217.647 901.279 217.392C901.607 216.871 902.586 216.374 904.216 215.9C905.159 215.639 905.701 215.416 905.841 215.228C905.987 215.041 906.068 214.895 906.083 214.791C906.099 214.681 906.107 214.509 906.107 214.275C906.107 214.041 906.01 213.811 905.818 213.587C905.63 213.363 905.219 213.251 904.583 213.251C903.688 213.251 903.138 213.423 902.935 213.767C902.831 213.944 902.779 214.184 902.779 214.486V214.853H901.365V214.478C901.365 213.671 901.633 213.077 902.169 212.697C902.711 212.317 903.518 212.126 904.591 212.126C905.664 212.126 906.43 212.371 906.888 212.861C907.346 213.345 907.576 214.038 907.576 214.939V218.47C907.576 218.903 907.63 219.184 907.74 219.314C907.849 219.439 908.083 219.501 908.443 219.501L908.271 220.626H907.974C907.453 220.626 907.065 220.528 906.81 220.33C906.555 220.126 906.359 219.814 906.224 219.392C905.792 220.038 905.271 220.444 904.661 220.611C904.37 220.694 904.044 220.736 903.685 220.736ZM904.419 216.908C903.68 217.121 903.167 217.335 902.88 217.548C902.599 217.762 902.458 218.064 902.458 218.455C902.458 218.84 902.589 219.132 902.849 219.33C903.115 219.528 903.432 219.626 903.802 219.626C904.177 219.626 904.516 219.58 904.818 219.486C905.12 219.387 905.391 219.244 905.63 219.056C905.875 218.863 906.034 218.645 906.107 218.4V216.009C905.727 216.389 905.164 216.689 904.419 216.908Z" fill="#C9D1D9"/>
<path d="M328.424 97.688C326.32 97.688 324.942 97.1672 324.291 96.1255C323.911 95.5161 323.721 94.714 323.721 93.7192V90.1724C323.721 88.563 324.19 87.4406 325.127 86.8052C325.872 86.3 326.919 86.0474 328.268 86.0474C329.617 86.0474 330.604 86.201 331.229 86.5083C331.859 86.8104 332.273 87.2166 332.471 87.7271C332.669 88.2323 332.768 88.8494 332.768 89.5786L331.33 89.6958C331.33 88.9614 331.257 88.4718 331.112 88.2271C330.971 87.9771 330.833 87.8 330.698 87.6958C330.567 87.5916 330.343 87.5031 330.026 87.4302C329.713 87.3521 329.237 87.313 328.596 87.313C327.961 87.313 327.461 87.3547 327.096 87.438C326.731 87.5161 326.408 87.6515 326.127 87.8442C325.575 88.2244 325.299 88.9041 325.299 89.8833V93.9614C325.299 94.9406 325.562 95.5968 326.088 95.9302C326.614 96.2583 327.388 96.4224 328.408 96.4224C329.434 96.4224 330.174 96.2609 330.627 95.938C331.086 95.6099 331.315 94.951 331.315 93.9614V92.9224H328.635V91.7739H332.893V97.5161H332.033L331.838 95.5942C331.739 96.2453 331.411 96.7583 330.854 97.1333C330.302 97.5031 329.492 97.688 328.424 97.688Z" fill="#6B6565"/>
<path d="M539.808 97.1802C539.147 96.8364 538.704 96.3781 538.48 95.8052C538.256 95.2271 538.144 94.5317 538.144 93.7192V90.1724C538.144 88.5265 538.571 87.4041 539.425 86.8052C540.149 86.3 541.202 86.0474 542.582 86.0474C543.967 86.0474 544.972 86.2401 545.597 86.6255C546.222 87.0057 546.613 87.6047 546.769 88.4224C546.842 88.7869 546.879 89.2218 546.879 89.7271L545.386 89.8599C545.386 89.0994 545.321 88.5864 545.191 88.3208C545.061 88.05 544.931 87.8573 544.8 87.7427C544.675 87.6281 544.467 87.5291 544.175 87.4458C543.884 87.3573 543.428 87.313 542.808 87.313C542.188 87.313 541.702 87.3547 541.347 87.438C540.993 87.5161 540.691 87.6515 540.441 87.8442C539.962 88.214 539.722 88.8937 539.722 89.8833V93.9614C539.722 94.9406 539.965 95.5968 540.449 95.9302C540.933 96.2583 541.704 96.4224 542.761 96.4224C543.824 96.4224 544.501 96.2974 544.793 96.0474C545.084 95.7974 545.264 95.4328 545.332 94.9536C545.368 94.6932 545.386 94.3807 545.386 94.0161H546.879C546.879 95.1515 546.715 95.9484 546.386 96.4067C545.782 97.2609 544.634 97.688 542.941 97.688C541.519 97.688 540.475 97.5187 539.808 97.1802Z" fill="#6B6565"/>
<path d="M331.143 262.752L335.354 251.455H336.737L340.955 262.752H339.354L338.588 260.549H333.549L332.776 262.752H331.143ZM333.924 259.431H338.229L336.088 253.252L333.924 259.431Z" fill="#6B6565"/>
<path d="M548.84 263.924V253.916H545.582V252.627H553.676V253.916H550.41V263.924H548.84Z" fill="#6B6565"/>
<rect x="734.959" y="33.012" width="19.5071" height="19.5071" fill="#EDDE22"/>
<rect x="734.959" y="69.0249" width="19.5071" height="19.5071" fill="#61ECA1"/>
<rect x="734.959" y="103.538" width="19.5071" height="19.5071" fill="#C6344A"/>
<rect x="734.959" y="139.551" width="19.5071" height="19.5071" fill="#E8A62F"/>
<path d="M767.083 47.1252L771.294 35.8284H772.677L776.896 47.1252H775.294L774.529 44.9221H769.49L768.716 47.1252H767.083ZM769.865 43.8049H774.169L772.029 37.6252L769.865 43.8049ZM782.185 38.6877C782.851 38.6877 783.463 38.7919 784.021 39.0002V35.3596H785.49V47.1252H784.49L784.247 46.5784C783.992 46.7763 783.656 46.9456 783.24 47.0862C782.823 47.2268 782.411 47.2971 782.005 47.2971C780.875 47.2971 780.044 47.0471 779.513 46.5471C778.987 46.0419 778.724 45.3622 778.724 44.5081V41.3831C778.724 40.5237 779.008 39.8596 779.575 39.3909C780.143 38.9221 781.013 38.6877 782.185 38.6877ZM780.193 44.6174C780.193 45.1122 780.367 45.4898 780.716 45.7502C781.07 46.0107 781.484 46.1409 781.958 46.1409C782.802 46.1409 783.49 45.9768 784.021 45.6487V40.1565C783.547 39.9273 782.971 39.8127 782.294 39.8127C780.893 39.8127 780.193 40.2815 780.193 41.219V44.6174ZM791.544 47.2971C790.331 47.2971 789.453 47.0445 788.911 46.5393C788.37 46.0341 788.099 45.2555 788.099 44.2034V41.3206C788.099 40.5028 788.378 39.8596 788.935 39.3909C789.492 38.9221 790.333 38.6877 791.458 38.6877C792.588 38.6877 793.427 38.9065 793.974 39.344C794.526 39.7763 794.802 40.3961 794.802 41.2034V43.1721H789.568V44.3362C789.568 45.0237 789.706 45.5028 789.982 45.7737C790.258 46.0393 790.755 46.1721 791.474 46.1721C792.193 46.1721 792.599 46.1565 792.693 46.1252C792.786 46.094 792.883 46.0575 792.982 46.0159C793.081 45.9742 793.148 45.9247 793.185 45.8674C793.226 45.8101 793.279 45.7242 793.341 45.6096C793.409 45.4898 793.458 45.2607 793.49 44.9221H794.786C794.734 45.4169 794.646 45.8153 794.521 46.1174C794.401 46.4195 794.208 46.6617 793.943 46.844C793.682 47.0211 793.367 47.1409 792.997 47.2034C792.633 47.2659 792.148 47.2971 791.544 47.2971ZM789.568 42.1799H793.38V41.0471C793.38 40.5784 793.219 40.2555 792.896 40.0784C792.578 39.9013 792.109 39.8127 791.49 39.8127C790.87 39.8127 790.393 39.9195 790.06 40.1331C789.732 40.3466 789.568 40.6982 789.568 41.1877V42.1799ZM802.724 41.0237C802.724 40.2164 802.107 39.8127 800.872 39.8127C800.263 39.8127 799.784 39.943 799.435 40.2034C799.086 40.4638 798.911 40.8049 798.911 41.2268V47.1252H797.443V38.844H798.911V39.6487C799.463 39.0081 800.281 38.6877 801.365 38.6877C802.771 38.6877 803.661 39.1825 804.036 40.1721C804.141 40.4534 804.193 40.7659 804.193 41.1096V47.1252H802.724V41.0237ZM807.177 47.1252V38.844H808.646V47.1252H807.177ZM807.177 37.3518V35.8284H808.646V37.3518H807.177ZM816.958 41.0237C816.958 40.2164 816.341 39.8127 815.107 39.8127C814.497 39.8127 814.018 39.943 813.669 40.2034C813.32 40.4638 813.146 40.8049 813.146 41.2268V47.1252H811.677V38.844H813.146V39.6487C813.698 39.0081 814.516 38.6877 815.599 38.6877C817.005 38.6877 817.896 39.1825 818.271 40.1721C818.375 40.4534 818.427 40.7659 818.427 41.1096V47.1252H816.958V41.0237Z" fill="#EDDE22"/>
<path d="M770.325 83.4536V73.4458H767.068V72.1567H775.161V73.4458H771.896V83.4536H770.325ZM777.427 83.4536V75.1724H778.896V83.4536H777.427ZM777.427 73.6802V72.1567H778.896V73.6802H777.427ZM787.068 77.3521C787.068 76.5448 786.471 76.1411 785.279 76.1411C784.674 76.1411 784.208 76.2713 783.88 76.5317C783.557 76.7869 783.396 77.1281 783.396 77.5552V83.4536H781.927V75.1724H783.396V75.9771C783.948 75.3364 784.776 75.0161 785.88 75.0161C786.99 75.0161 787.763 75.3781 788.2 76.1021L788.396 75.9146C788.995 75.3156 789.833 75.0161 790.911 75.0161C792.302 75.0161 793.161 75.5109 793.49 76.5005C793.583 76.7817 793.63 77.0942 793.63 77.438V83.4536H792.161V77.3521C792.161 76.5448 791.62 76.1411 790.536 76.1411C789.854 76.1411 789.349 76.2713 789.021 76.5317C788.698 76.7869 788.536 77.1281 788.536 77.5552V83.4536H787.068V77.3521ZM796.615 83.4536V75.1724H798.083V83.4536H796.615ZM796.615 73.6802V72.1567H798.083V73.6802H796.615ZM806.396 77.3521C806.396 76.5448 805.779 76.1411 804.544 76.1411C803.935 76.1411 803.456 76.2713 803.107 76.5317C802.758 76.7922 802.583 77.1333 802.583 77.5552V83.4536H801.115V75.1724H802.583V75.9771C803.135 75.3364 803.953 75.0161 805.036 75.0161C806.443 75.0161 807.333 75.5109 807.708 76.5005C807.812 76.7817 807.865 77.0942 807.865 77.438V83.4536H806.396V77.3521Z" fill="#61ECA1"/>
<path d="M772.568 118.782C770.463 118.782 769.086 118.261 768.435 117.219C768.055 116.61 767.865 115.808 767.865 114.813V111.266C767.865 109.657 768.333 108.535 769.271 107.899C770.016 107.394 771.062 107.141 772.411 107.141C773.76 107.141 774.747 107.295 775.372 107.602C776.003 107.904 776.417 108.311 776.615 108.821C776.812 109.326 776.911 109.943 776.911 110.673L775.474 110.79C775.474 110.055 775.401 109.566 775.255 109.321C775.115 109.071 774.976 108.894 774.841 108.79C774.711 108.686 774.487 108.597 774.169 108.524C773.857 108.446 773.38 108.407 772.74 108.407C772.104 108.407 771.604 108.449 771.24 108.532C770.875 108.61 770.552 108.746 770.271 108.938C769.719 109.318 769.443 109.998 769.443 110.977V115.055C769.443 116.035 769.706 116.691 770.232 117.024C770.758 117.352 771.531 117.516 772.552 117.516C773.578 117.516 774.318 117.355 774.771 117.032C775.229 116.704 775.458 116.045 775.458 115.055V114.016H772.779V112.868H777.036V118.61H776.177L775.982 116.688C775.883 117.339 775.555 117.852 774.997 118.227C774.445 118.597 773.635 118.782 772.568 118.782ZM782.794 118.782C781.383 118.782 780.487 118.282 780.107 117.282C779.997 116.996 779.943 116.683 779.943 116.344V110.329H781.411V116.352C781.411 116.759 781.56 117.079 781.857 117.313C782.159 117.542 782.607 117.657 783.2 117.657C783.794 117.657 784.276 117.511 784.646 117.219C785.021 116.923 785.208 116.581 785.208 116.196V110.329H786.677V118.61H785.365L785.208 117.571C784.75 118.378 783.945 118.782 782.794 118.782ZM791.81 118.782C790.971 118.782 790.32 118.555 789.857 118.102C789.393 117.644 789.161 117.076 789.161 116.399C789.161 116.014 789.242 115.693 789.404 115.438C789.732 114.917 790.711 114.42 792.341 113.946C793.284 113.686 793.825 113.462 793.966 113.274C794.112 113.087 794.193 112.941 794.208 112.837C794.224 112.727 794.232 112.555 794.232 112.321C794.232 112.087 794.135 111.858 793.943 111.634C793.755 111.41 793.344 111.298 792.708 111.298C791.812 111.298 791.263 111.469 791.06 111.813C790.956 111.99 790.904 112.23 790.904 112.532V112.899H789.49V112.524C789.49 111.717 789.758 111.123 790.294 110.743C790.836 110.363 791.643 110.173 792.716 110.173C793.789 110.173 794.555 110.417 795.013 110.907C795.471 111.391 795.7 112.084 795.7 112.985V116.516C795.7 116.949 795.755 117.23 795.865 117.36C795.974 117.485 796.208 117.548 796.568 117.548L796.396 118.673H796.099C795.578 118.673 795.19 118.574 794.935 118.376C794.68 118.173 794.484 117.86 794.349 117.438C793.917 118.084 793.396 118.49 792.786 118.657C792.495 118.74 792.169 118.782 791.81 118.782ZM792.544 114.954C791.805 115.167 791.292 115.381 791.005 115.594C790.724 115.808 790.583 116.11 790.583 116.501C790.583 116.886 790.713 117.178 790.974 117.376C791.24 117.574 791.557 117.673 791.927 117.673C792.302 117.673 792.641 117.626 792.943 117.532C793.245 117.433 793.516 117.29 793.755 117.102C794 116.91 794.159 116.691 794.232 116.446V114.055C793.851 114.436 793.289 114.735 792.544 114.954ZM804.021 112.509C804.021 111.701 803.404 111.298 802.169 111.298C801.56 111.298 801.081 111.428 800.732 111.688C800.383 111.949 800.208 112.29 800.208 112.712V118.61H798.74V110.329H800.208V111.134C800.76 110.493 801.578 110.173 802.661 110.173C804.068 110.173 804.958 110.667 805.333 111.657C805.437 111.938 805.49 112.251 805.49 112.594V118.61H804.021V112.509ZM808.474 118.61V110.329H809.943V118.61H808.474ZM808.474 108.837V107.313H809.943V108.837H808.474ZM818.255 112.509C818.255 111.701 817.638 111.298 816.404 111.298C815.794 111.298 815.315 111.428 814.966 111.688C814.617 111.949 814.443 112.29 814.443 112.712V118.61H812.974V110.329H814.443V111.134C814.995 110.493 815.812 110.173 816.896 110.173C818.302 110.173 819.193 110.667 819.568 111.657C819.672 111.938 819.724 112.251 819.724 112.594V118.61H818.255V112.509Z" fill="#C6344A"/>
<path d="M769.497 155.774C768.836 155.431 768.393 154.972 768.169 154.399C767.945 153.821 767.833 153.126 767.833 152.313V148.767C767.833 147.121 768.26 145.998 769.115 145.399C769.838 144.894 770.891 144.642 772.271 144.642C773.656 144.642 774.661 144.834 775.286 145.22C775.911 145.6 776.302 146.199 776.458 147.017C776.531 147.381 776.568 147.816 776.568 148.321L775.075 148.454C775.075 147.694 775.01 147.181 774.88 146.915C774.75 146.644 774.62 146.451 774.49 146.337C774.365 146.222 774.156 146.123 773.865 146.04C773.573 145.951 773.117 145.907 772.497 145.907C771.878 145.907 771.391 145.949 771.036 146.032C770.682 146.11 770.38 146.246 770.13 146.438C769.651 146.808 769.411 147.488 769.411 148.478V152.556C769.411 153.535 769.654 154.191 770.138 154.524C770.622 154.853 771.393 155.017 772.45 155.017C773.513 155.017 774.19 154.892 774.482 154.642C774.773 154.392 774.953 154.027 775.021 153.548C775.057 153.287 775.075 152.975 775.075 152.61H776.568C776.568 153.746 776.404 154.543 776.075 155.001C775.471 155.855 774.323 156.282 772.63 156.282C771.208 156.282 770.164 156.113 769.497 155.774ZM779.396 156.11V147.829H780.865V156.11H779.396ZM779.396 146.337V144.813H780.865V146.337H779.396ZM787.724 156.173C786.568 156.173 785.732 155.991 785.216 155.626C784.706 155.261 784.45 154.634 784.45 153.743V148.938H783.068V147.829H784.505L784.685 145.267H785.919V147.829H787.997V148.938H785.919V153.649C785.919 154.17 786.068 154.517 786.365 154.688C786.667 154.855 787.19 154.938 787.935 154.938H788.099L787.943 156.173H787.724ZM791.63 153.774C791.63 154.696 792.284 155.157 793.591 155.157C794.898 155.157 795.552 154.696 795.552 153.774V150.188C795.552 149.261 794.898 148.798 793.591 148.798C792.284 148.798 791.63 149.261 791.63 150.188V153.774ZM797.021 153.649C797.021 154.462 796.742 155.105 796.185 155.579C795.633 156.048 794.766 156.282 793.583 156.282C792.401 156.282 791.534 156.048 790.982 155.579C790.435 155.11 790.161 154.467 790.161 153.649V150.313C790.161 149.496 790.435 148.853 790.982 148.384C791.534 147.91 792.401 147.673 793.583 147.673C794.766 147.673 795.633 147.91 796.185 148.384C796.742 148.858 797.021 149.501 797.021 150.313V153.649ZM799.271 156.11V155.188L803.232 148.798H799.411V147.829H804.779V148.728L800.794 155.142H804.849V156.11H799.271ZM807.318 156.11V147.829H808.786V156.11H807.318ZM807.318 146.337V144.813H808.786V146.337H807.318ZM817.099 150.009C817.099 149.201 816.482 148.798 815.247 148.798C814.638 148.798 814.159 148.928 813.81 149.188C813.461 149.449 813.286 149.79 813.286 150.212V156.11H811.818V147.829H813.286V148.634C813.838 147.993 814.656 147.673 815.74 147.673C817.146 147.673 818.036 148.168 818.411 149.157C818.516 149.438 818.568 149.751 818.568 150.095V156.11H817.099V150.009Z" fill="#E8A62F"/>
<g clip-path="url(#clip0)">
<g filter="url(#filter6_d)">
<line y1="-2.5" x2="15.6981" y2="-2.5" transform="matrix(-0.999907 0.0136218 -0.0136206 -0.999907 72.4202 260.935)" stroke="#62F2A6" stroke-width="5"/>
<line y1="-2.5" x2="24.5283" y2="-2.5" transform="matrix(-0.999907 0.0136219 -0.0136206 -0.999907 80.0082 249.302)" stroke="#E8A62E" stroke-width="5"/>
<line x1="85.41" y1="240.2" x2="55.9788" y2="240.601" stroke="#C6344A" stroke-width="5"/>
<line x1="74.9496" y1="216.246" x2="56.3121" y2="216.634" stroke="#EFE123" stroke-width="5"/>
<line x1="82.3099" y1="228.713" x2="55.8218" y2="229.074" stroke="#62F2A6" stroke-width="5"/>
<line y1="-2.5" x2="15.9047" y2="-2.5" transform="matrix(0.999907 -0.0136214 -0.013621 -0.999907 41.3314 182.641)" stroke="#E8A62F" stroke-width="5"/>
<line y1="-2.5" x2="24.5799" y2="-2.5" transform="matrix(0.999907 -0.0136215 -0.0136209 -0.999907 32.5 171.232)" stroke="#C6344A" stroke-width="5"/>
<line y1="-2.5" x2="27.4717" y2="-2.5" transform="matrix(0.999907 -0.0136213 -0.0136212 -0.999907 29.4514 159.744)" stroke="#EFE123" stroke-width="5"/>
<line x1="40.2155" y1="138.757" x2="56.894" y2="138.909" stroke="#62F2A6" stroke-width="5"/>
<line y1="-2.5" x2="27.4717" y2="-2.5" transform="matrix(0.999907 -0.0136213 -0.0136212 -0.999907 29.2944 148.217)" stroke="#E8A62E" stroke-width="5"/>
<line y1="-2.5" x2="14.717" y2="-2.5" transform="matrix(0.999907 -0.0136196 -0.0136228 -0.999907 42.0565 261.207)" stroke="#EFE123" stroke-width="5"/>
<line y1="-2.5" x2="21.9464" y2="-2.5" transform="matrix(0.999907 -0.0136212 -0.0136213 -0.999907 34.1544 249.785)" stroke="#C6344A" stroke-width="5"/>
<line y1="-2.5" x2="24.5283" y2="-2.5" transform="matrix(0.999907 -0.0136213 -0.0136212 -0.999907 31.4156 238.293)" stroke="#E8A62F" stroke-width="5"/>
<line x1="40.5513" y1="217.444" x2="56.2494" y2="217.444" stroke="#62F2A6" stroke-width="5"/>
<line y1="-2.5" x2="25.5094" y2="-2.5" transform="matrix(0.999907 -0.013622 -0.0136205 -0.999907 31.2587 226.766)" stroke="#EFE123" stroke-width="5"/>
<line x1="71.4526" y1="184.932" x2="57.2534" y2="185.125" stroke="#C6344A" stroke-width="5"/>
<line x1="79.0406" y1="173.299" x2="57.0963" y2="173.598" stroke="#E8A62E" stroke-width="5"/>
<line x1="83.4477" y1="161.709" x2="56.9188" y2="162.071" stroke="#62F2A6" stroke-width="5"/>
<line y1="-2.5" x2="14.3865" y2="-2.5" transform="matrix(-0.999685 0.0251014 -0.0251002 -0.999685 70.973 135.23)" stroke="#EFE123" stroke-width="5"/>
<line x1="81.3082" y1="150.035" x2="56.7822" y2="150.369" stroke="#C6344A" stroke-width="5"/>
<line y1="-2.5" x2="17.6087" y2="-2.5" transform="matrix(0.999907 -0.0136213 -0.0136212 -0.999907 42.5756 104.308)" stroke="#E8A62F" stroke-width="5"/>
<line y1="-2.5" x2="27.2135" y2="-2.5" transform="matrix(0.999907 -0.0136214 -0.0136211 -0.999907 32.8147 92.9114)" stroke="#E8A62F" stroke-width="5"/>
<line y1="-2.5" x2="30.4151" y2="-2.5" transform="matrix(0.999907 -0.0136213 -0.0136212 -0.999907 29.4563 81.4277)" stroke="#EFE123" stroke-width="5"/>
<line x1="37.6079" y1="60.2668" x2="57.2305" y2="60.2668" stroke="#E8A62F" stroke-width="5"/>
<line y1="-2.5" x2="30.4151" y2="-2.5" transform="matrix(0.999907 -0.0136213 -0.0136212 -0.999907 29.2993 69.9004)" stroke="#C63449" stroke-width="5"/>
<line x1="71.4729" y1="106.414" x2="57.2736" y2="106.607" stroke="#C6344A" stroke-width="5"/>
<line x1="79.0609" y1="94.7813" x2="57.1166" y2="95.0802" stroke="#C6344A" stroke-width="5"/>
<path d="M86.6644 84.019L56.9589 84.0191" stroke="#62F2A6" stroke-width="5"/>
<line x1="79.2093" y1="59.2139" x2="56.6454" y2="59.5213" stroke="#C6344A" stroke-width="5"/>
<line x1="81.3285" y1="71.6917" x2="56.8025" y2="72.0258" stroke="#E8A62E" stroke-width="5"/>
<g filter="url(#filter7_d)">
<path d="M61.0083 -37.5051L55.4742 -32.8267L54.5936 -32.0729L53.7155 -31.319L52.8406 -30.5651L51.9695 -29.8112L51.1033 -29.0574L50.2426 -28.3035L49.3881 -27.5496L48.5407 -26.7958L47.7012 -26.0419L46.8702 -25.288L46.0486 -24.5341L45.237 -23.7803L44.4363 -23.0264L43.647 -22.2725L42.87 -21.5186L42.106 -20.7648L41.3555 -20.0109L40.6193 -19.257L39.8981 -18.5032L39.1925 -17.7493L38.5032 -16.9954L37.8307 -16.2415L37.1756 -15.4877L36.5387 -14.7338L35.9203 -13.9799L35.3212 -13.226L34.7417 -12.4722L34.1825 -11.7183L33.6441 -10.9644L33.1269 -10.2106L32.6314 -9.45669L32.158 -8.70281L31.7072 -7.94894L31.2794 -7.19507L30.875 -6.44119L30.4942 -5.68732L30.1376 -4.93345L29.8053 -4.17958L29.4977 -3.4257L29.2151 -2.67183L28.9577 -1.91796L28.7258 -1.16408L28.5195 -0.410215L28.3391 0.343658L28.1846 1.09753L28.0563 1.8514L27.9543 2.60528L27.8787 3.35914L27.8294 4.11302L27.8066 4.86689L27.8104 5.62076L27.8406 6.37464L27.8972 7.12851L27.9803 7.88238L28.0896 8.63625L28.2253 9.39013L28.387 10.144L28.5747 10.8979L28.7882 11.6517L29.0273 12.4056L29.2918 13.1595L29.5814 13.9134L29.8959 14.6672L30.2351 15.4211L30.5985 16.175L30.9859 16.9289L31.397 17.6827L31.8313 18.4366L32.2884 19.1905L32.768 19.9443L33.2697 20.6982L33.7929 21.4521L34.3372 22.206L34.9021 22.9598L35.4871 23.7137L36.0917 24.4676L36.7153 25.2214L37.3574 25.9753L38.0174 26.7292L38.6947 27.4831L39.3887 28.2369L40.0987 28.9908L40.8242 29.7447L41.5644 30.4986L42.3187 31.2524L43.0865 32.0063L43.867 32.7602L44.6595 33.514L45.4634 34.2679L46.2779 35.0218L47.1022 35.7757L47.9356 36.5295L48.7775 37.2834L49.6269 38.0373L50.4832 38.7912L51.3455 39.545L52.2132 40.2989L53.0854 41.0528L53.9613 41.8066L54.8402 42.5605L55.7212 43.3144L56.6036 44.0683L57.4866 44.8221L58.3694 45.576L59.2511 46.3299L60.131 47.0837L61.0083 47.8376L61.8823 48.5915L62.752 49.3454L63.6168 50.0992L64.4759 50.8531L65.3284 51.607L66.1737 52.3609L67.0109 53.1147L67.8393 53.8686L68.6582 54.6225L69.4668 55.3763L70.2644 56.1302L71.0503 56.8841L71.8237 57.638L72.5841 58.3918L73.3306 59.1457L74.0626 59.8996L74.7795 60.6534L75.4806 61.4073L76.1653 62.1612L76.833 62.9151L77.483 63.6689L78.1148 64.4228L78.7278 65.1767L79.3215 65.9306L79.8954 66.6844L80.4488 67.4383L80.9813 68.1922L81.4925 68.946L81.9818 69.6999L82.4489 70.4538L82.8933 71.2077L83.3146 71.9615L83.7124 72.7154L84.0865 73.4693L84.4363 74.2232L84.7617 74.977L85.0623 75.7309L85.3379 76.4848L85.5882 77.2386L85.8129 77.9925L86.012 78.7464L86.1851 79.5003L86.3323 80.2541L86.4532 81.008L86.5478 81.7619L86.6161 82.5158L86.6579 83.2696L86.6733 84.0235L86.6621 84.7774L86.6245 85.5312L86.5605 86.2851L86.47 87.039L86.3533 87.7928L86.2103 88.5467L86.0413 89.3006L85.8464 90.0545L85.6257 90.8083L85.3794 91.5622L85.1079 92.3161L84.8112 93.07L84.4898 93.8238L84.1438 94.5777L83.7736 95.3316L83.3795 96.0855L82.962 96.8393L82.5212 97.5932L82.0577 98.3471L81.5719 99.1009L81.0642 99.8548L80.535 100.609L79.9849 101.363L79.4143 102.116L78.8237 102.87L78.2137 103.624L77.5849 104.378L76.9377 105.132L76.2728 105.886L75.5908 106.64L74.8922 107.394L74.1778 108.147L73.4481 108.901L72.7039 109.655L71.9457 110.409L71.1743 111.163L70.3904 111.917L69.5946 112.671L68.7877 113.425L67.9704 114.178L67.1434 114.932L66.3076 115.686L65.4635 116.44L64.6121 117.194L63.754 117.948L62.8901 118.702L62.0211 119.455L61.1478 120.209L60.2709 120.963L59.3914 121.717L58.5099 122.471L57.6272 123.225L56.7442 123.979L55.8617 124.733L54.9804 125.486L54.1011 126.24L53.2247 126.994L52.3518 127.748L51.4834 128.502L50.6201 129.256L49.7628 130.01L48.9123 130.764L48.0692 131.517L47.2343 132.271L46.4085 133.025L45.5924 133.779L44.7868 134.533L43.9925 135.287L43.21 136.041L42.4401 136.795L41.6836 137.548L40.9411 138.302L40.2132 139.056L39.5007 139.81L38.8041 140.564L38.1241 141.318L37.4613 142.072L36.8164 142.826L36.1898 143.579L35.5821 144.333L34.9939 145.087L34.4258 145.841L33.8781 146.595L33.3516 147.349L32.8465 148.103L32.3633 148.857L31.9025 149.61L31.4646 150.364L31.0498 151.118L30.6586 151.872L30.2913 152.626L29.9483 153.38L29.6298 154.134L29.3362 154.887L29.0677 155.641L28.8246 156.395L28.607 157.149L28.4152 157.903L28.2493 158.657L28.1095 159.411L27.9959 160.165L27.9087 160.918L27.8478 161.672L27.8134 162.426L27.8055 163.18L27.824 163.934L27.8691 164.688L27.9405 165.442L28.0383 166.196L28.1624 166.949L28.3127 167.703L28.489 168.457L28.6912 169.211L28.9191 169.965L29.1724 170.719L29.451 171.473L29.7547 172.227L30.083 172.98L30.4358 173.734L30.8127 174.488L31.2134 175.242L31.6375 175.996L32.0847 176.75L32.5545 177.504L33.0465 178.258L33.5603 179.011L34.0954 179.765L34.6513 180.519L35.2275 181.273L35.8236 182.027L36.4389 182.781L37.073 183.535L37.7252 184.289L38.3949 185.042L39.0816 185.796L39.7847 186.55L40.5034 187.304L41.2373 188.058L41.9855 188.812L42.7475 189.566L43.5225 190.32L44.3098 191.073L45.1088 191.827L45.9186 192.581L46.7387 193.335L47.5683 194.089L48.4065 194.843L49.2527 195.597L50.106 196.35L50.9658 197.104L51.8313 197.858L52.7016 198.612L53.5759 199.366L54.4536 200.12L55.3338 200.874L56.2157 201.628L57.0985 202.381L57.9815 203.135L58.8637 203.889L59.7446 204.643L60.6231 205.397L61.4986 206.151L62.3703 206.905L63.2374 207.659L64.0991 208.412L64.9546 209.166L65.8031 209.92L66.6439 210.674L67.4763 211.428L68.2995 212.182L69.1127 212.936L69.9152 213.69L70.7064 214.443L71.4854 215.197L72.2515 215.951L73.0042 216.705L73.7427 217.459L74.4663 218.213L75.1745 218.967L75.8664 219.721L76.5417 220.474L77.1995 221.228L77.8394 221.982L78.4608 222.736L79.063 223.49L79.6456 224.244L80.2081 224.998L80.7499 225.752L81.2705 226.505L81.7695 227.259L82.2464 228.013L82.7008 228.767L83.1323 229.521L83.5405 230.275L83.925 231.029L84.2855 231.782L84.6217 232.536L84.9332 233.29L85.2199 234.044L85.4813 234.798L85.7173 235.552L85.9277 236.306L86.1122 237.06L86.2708 237.813L86.4033 238.567L86.5095 239.321L86.5894 240.075L86.6428 240.829L86.6698 241.583L86.6703 242.337L86.6443 243.091L86.5919 243.844L86.513 244.598L86.4078 245.352L86.2764 246.106L86.1188 246.86L85.9352 247.614L85.7258 248.368L85.4908 249.122L85.2303 249.875L84.9447 250.629L84.6341 251.383L84.2989 252.137L83.9393 252.891L83.5557 253.645L83.1484 254.399L82.7177 255.153L82.2642 255.906L81.7881 256.66L81.29 257.414L80.7702 258.168L80.2292 258.922L79.6675 259.676L79.0857 260.43L78.4842 261.184L77.8635 261.937L77.2244 262.691L76.5672 263.445L75.8926 264.199L75.2013 264.953L74.4937 265.707L73.7707 266.461L73.0328 267.214L72.2806 267.968L71.5149 268.722L70.7364 269.476L69.9457 270.23L69.1436 270.984L68.3308 271.738L67.508 272.492L66.676 273.245L65.8354 273.999L64.9872 274.753L64.1319 275.507L63.2705 276.261L62.4036 277.015L61.5321 277.769L60.6567 278.523L59.7782 279.276L58.8975 280.03L58.0153 280.784L57.1323 281.538L56.2495 282.292L55.3675 283.046L54.4873 283.8L53.6095 284.554L52.735 285.307L51.8645 286.061L50.9988 286.815L50.1388 287.569L49.2852 288.323L48.4387 289.077L47.6002 289.831L46.7703 290.585L45.9499 291.338L45.1396 292.092L44.3402 292.846L43.5524 293.6L42.7769 294.354L42.0144 295.108L41.2657 295.862L40.5313 296.616L39.8119 297.369L39.1083 298.123L38.4209 298.877L37.7505 299.631L37.0976 300.385L36.4629 301.139L35.8468 301.893L35.25 302.646L34.673 303.4L34.1163 304.154L33.5804 304.908L33.0658 305.662L32.5729 306.416L32.1023 307.17L31.6542 307.924L31.2292 308.678L30.8276 309.431L30.4498 310.185L30.0961 310.939L29.7668 311.693L29.4622 312.447L29.1826 313.201L28.9283 313.955L28.6995 314.708L28.4963 315.462L28.319 316.216L28.1677 316.97L28.0426 317.724L27.9438 318.478L27.8713 319.232L27.8253 319.986L27.8057 320.739L27.8126 321.493L27.846 322.247L27.9058 323.001L27.9921 323.755L28.1047 324.509L28.2435 325.263L28.4083 326.017L28.5992 326.77L28.8158 327.524L29.0579 328.278L29.3255 329.032L29.6181 329.786L29.9357 330.54L30.2778 331.294L30.6441 332.048L31.0344 332.801L31.4483 333.555L31.8853 334.309L32.3453 335.063L32.8275 335.817L33.3318 336.571L33.8576 337.325L34.4044 338.079L34.9718 338.832L35.5592 339.586L36.1661 340.34L36.792 341.094L37.4363 341.848L38.0984 342.602L38.7778 343.356L39.4737 344.109L40.1857 344.863L40.9129 345.617L41.6549 346.371L42.4109 347.125L43.1803 347.879L43.9623 348.633L44.7562 349.387L45.5614 350.14L46.3771 350.894L47.2025 351.648L48.0371 352.402L48.8798 353.156L49.7301 353.91L50.5872 354.664L51.4502 355.418L52.3185 356.171L53.1912 356.925L54.0675 357.679L54.9467 358.433L55.8279 359.187L56.7104 359.941L57.5934 360.695L58.4761 361.449L59.3577 362.202L60.2373 362.956L61.1143 363.71L61.9877 364.464L62.8569 365.218L63.7211 365.972L64.5794 366.726L65.4311 367.48L66.2754 368.233L67.1116 368.987L67.9389 369.741L68.7566 370.495L69.5639 371.249L70.3601 372.003L71.1445 372.757L71.9164 373.51L72.6751 374.264L73.4199 375.018L74.1502 375.772L74.8652 376.526L75.5643 377.28L76.247 378.034L76.9126 378.788L77.5604 379.541L78.19 380.295L78.8007 381.049L79.392 381.803L79.9634 382.557L80.5143 383.311L81.0443 384.065L81.5529 384.819L82.0395 385.572L82.5039 386.326L82.9455 387.08L83.364 387.834L83.759 388.588L84.1301 389.342L84.477 390.096L84.7994 390.85L85.097 391.603L85.3695 392.357L85.6167 393.111L85.8384 393.865L86.0343 394.619L86.2043 395.373L86.3483 396.127L86.466 396.881L86.5575 397.634L86.6226 398.388L86.6612 399.142L86.6733 399.896L86.659 400.65L86.6182 401.404L86.5509 402.158L86.4573 402.912L86.3374 403.665L86.1913 404.419L86.0191 405.173L85.821 405.927L85.5972 406.681L85.3479 407.435L85.0733 408.189L84.7737 408.942L84.4492 409.696L84.1003 410.45L83.7272 411.204L83.3303 411.958L82.9099 412.712L82.4663 413.466L82.0001 414.22L81.5116 414.973L81.0013 415.727L80.4695 416.481L79.9169 417.235L79.3439 417.989L78.7509 418.743L78.1386 419.497L77.5075 420.251L76.8582 421.004L76.1912 421.758L75.5071 422.512L74.8066 423.266L74.0903 424.02L73.3589 424.774L72.6129 425.528L71.8531 426.282L71.0801 427.035L70.2947 427.789L69.4975 428.543L68.6893 429.297L67.8708 430.051L67.0428 430.805L66.2059 431.559L65.3609 432.313L64.5086 433.066L63.6498 433.82L62.7852 434.574L61.9156 435.328L61.0419 436.082L60.1647 436.836L59.2848 437.59L58.4031 438.343" stroke="#79CCDB" stroke-width="10"/>
</g>
<g filter="url(#filter8_d)">
<path d="M60.5174 -31.6184L62.5092 -29.8113L63.3755 -29.0574L64.2362 -28.3036L65.0906 -27.5497L65.938 -26.7958L66.7776 -26.0419L67.6085 -25.2881L68.4302 -24.5342L69.2417 -23.7803L70.0425 -23.0265L70.8317 -22.2726L71.6087 -21.5187L72.3728 -20.7648L73.1233 -20.011L73.8594 -19.2571L74.5806 -18.5032L75.2862 -17.7493L75.9756 -16.9955L76.6481 -16.2416L77.3031 -15.4877L77.9401 -14.7339L78.5584 -13.98L79.1576 -13.2261L79.737 -12.4722L80.2962 -11.7184L80.8347 -10.9645L81.3519 -10.2106L81.8474 -9.45675L82.3207 -8.70288L82.7715 -7.949L83.1993 -7.19513L83.6038 -6.44126L83.9845 -5.68738L84.3412 -4.93351L84.6734 -4.17964L84.981 -3.42576L85.2636 -2.67189L85.521 -1.91803L85.753 -1.16415L85.9593 -0.410279L86.1397 0.343597L86.2941 1.09747L86.4224 1.85134L86.5244 2.60522L86.6001 3.35908L86.6493 4.11296L86.6721 4.86684L86.6684 5.6207L86.6382 6.37458L86.5815 7.12845L86.4985 7.88232L86.3891 8.6362L86.2535 9.39007L86.0917 10.1439L85.904 10.8978L85.6906 11.6517L85.4515 12.4056L85.187 13.1594L84.8973 13.9133L84.5828 14.6672L84.2437 15.421L83.8802 16.1749L83.4928 16.9288L83.0818 17.6827L82.6475 18.4365L82.1903 19.1904L81.7107 19.9443L81.2091 20.6982L80.6859 21.452L80.1416 22.2059L79.5767 22.9598L78.9916 23.7136L78.3871 24.4675L77.7634 25.2214L77.1213 25.9753L76.4613 26.7291L75.7841 27.483L75.0901 28.2369L74.3801 28.9907L73.6546 29.7446L72.9144 30.4985L72.16 31.2524L71.3922 32.0062L70.6117 32.7601L69.8192 33.514L69.0153 34.2679L68.2009 35.0217L67.3766 35.7756L66.5431 36.5295L65.7013 37.2833L64.8519 38.0372L63.9956 38.7911L63.1332 39.545L62.2656 40.2988L61.3934 41.0527L60.5174 41.8066L59.6386 42.5604L58.7575 43.3143L57.8751 44.0682L56.9921 44.8221L56.1094 45.5759L55.2277 46.3298L54.3477 47.0837L53.4704 47.8376L52.5965 48.5914L51.7267 49.3453L50.8619 50.0992L50.0029 50.8531L49.1504 51.6069L48.3051 52.3608L47.4679 53.1147L46.6395 53.8685L45.8206 54.6224L45.012 55.3763L44.2144 56.1302L43.4285 56.884L42.655 57.6379L41.8947 58.3918L41.1482 59.1456L40.4161 59.8995L39.6993 60.6534L38.9981 61.4073L38.3134 62.1611L37.6458 62.915L36.9957 63.6689L36.3639 64.4228L35.7509 65.1766L35.1572 65.9305L34.5834 66.6844L34.03 67.4382L33.4974 68.1921L32.9863 68.946L32.4969 69.6999L32.0298 70.4537L31.5855 71.2076L31.1642 71.9615L30.7663 72.7154L30.3923 73.4692L30.0424 74.2231L29.7171 74.977L29.4165 75.7308L29.1409 76.4847L28.8906 77.2386L28.6658 77.9925L28.4668 78.7463L28.2936 79.5002L28.1465 80.2541L28.0256 81.008L27.9309 81.7618L27.8627 82.5157L27.8208 83.2696L27.8055 84.0234L27.8166 84.7773L27.8542 85.5312L27.9183 86.2851L28.0087 87.0389L28.1255 87.7928L28.2684 88.5467L28.4375 89.3006L28.6324 90.0544L28.8531 90.8083L29.0993 91.5622L29.3709 92.316L29.6675 93.0699L29.989 93.8238L30.335 94.5777L30.7051 95.3315L31.0992 96.0854L31.5168 96.8393L31.9575 97.5931L32.421 98.347L32.9069 99.1009L33.4146 99.8548L33.9438 100.609L34.4939 101.363L35.0645 102.116L35.6551 102.87L36.265 103.624L36.8939 104.378L37.5411 105.132L38.206 105.886L38.888 106.64L39.5865 107.394L40.3009 108.147L41.0306 108.901L41.7749 109.655L42.533 110.409L43.3045 111.163L44.0884 111.917L44.8842 112.671L45.6911 113.424L46.5084 114.178L47.3353 114.932L48.1712 115.686L49.0152 116.44L49.8667 117.194L50.7247 117.948L51.5887 118.702L52.4577 119.455L53.331 120.209L54.2078 120.963L55.0874 121.717L55.9689 122.471L56.8515 123.225L57.7345 123.979L58.6171 124.733L59.4984 125.486L60.3776 126.24L61.2541 126.994L62.1269 127.748L62.9954 128.502L63.8586 129.256L64.7159 130.01L65.5665 130.764L66.4096 131.517L67.2444 132.271L68.0702 133.025L68.8863 133.779L69.6919 134.533L70.4863 135.287L71.2688 136.041L72.0386 136.795L72.7951 137.548L73.5377 138.302L74.2655 139.056L74.9781 139.81L75.6746 140.564L76.3546 141.318L77.0174 142.072L77.6624 142.826L78.289 143.579L78.8967 144.333L79.4848 145.087L80.053 145.841L80.6006 146.595L81.1272 147.349L81.6323 148.103L82.1154 148.856L82.5762 149.61L83.0142 150.364L83.4289 151.118L83.8201 151.872L84.1874 152.626L84.5304 153.38L84.8489 154.134L85.1425 154.887L85.411 155.641L85.6542 156.395L85.8718 157.149L86.0636 157.903L86.2295 158.657L86.3693 159.411L86.4828 160.165L86.5701 160.918L86.631 161.672L86.6654 162.426L86.6733 163.18L86.6547 163.934L86.6097 164.688L86.5382 165.442L86.4404 166.196L86.3163 166.949L86.166 167.703L85.9897 168.457L85.7876 169.211L85.5597 169.965L85.3063 170.719L85.0277 171.473L84.7241 172.227L84.3957 172.98L84.0429 173.734L83.666 174.488L83.2653 175.242L82.8412 175.996L82.3941 176.75L81.9243 177.504L81.4323 178.257L80.9185 179.011L80.3834 179.765L79.8275 180.519L79.2512 181.273L78.6552 182.027L78.0398 182.781L77.4058 183.535L76.7536 184.288L76.0838 185.042L75.3971 185.796L74.6941 186.55L73.9753 187.304L73.2415 188.058L72.4932 188.812L71.7313 189.566L70.9563 190.319L70.169 191.073L69.37 191.827L68.5601 192.581L67.74 193.335L66.9105 194.089L66.0723 194.843L65.2261 195.597L64.3727 196.35L63.5129 197.104L62.6475 197.858L61.7772 198.612L60.9028 199.366L60.0252 200.12L59.145 200.874L58.2631 201.628L57.3802 202.381L56.4973 203.135L55.615 203.889L54.7342 204.643L53.8556 205.397L52.9801 206.151L52.1084 206.905L51.2414 207.659L50.3797 208.412L49.5242 209.166L48.6757 209.92L47.8348 210.674L47.0024 211.428L46.1793 212.182L45.366 212.936L44.5635 213.689L43.7724 214.443L42.9934 215.197L42.2272 215.951L41.4745 216.705L40.7361 217.459L40.0124 218.213L39.3043 218.967L38.6123 219.72L37.9371 220.474L37.2792 221.228L36.6393 221.982L36.018 222.736L35.4157 223.49L34.8331 224.244L34.2707 224.998L33.7289 225.751L33.2083 226.505L32.7093 227.259L32.2324 228.013L31.778 228.767L31.3465 229.521L30.9383 230.275L30.5537 231.029L30.1932 231.782L29.857 232.536L29.5455 233.29L29.2589 234.044L28.9975 234.798L28.7615 235.552L28.5511 236.306L28.3665 237.06L28.2079 237.813L28.0755 238.567L27.9693 239.321L27.8894 240.075L27.836 240.829L27.809 241.583L27.8085 242.337L27.8344 243.091L27.8869 243.844L27.9657 244.598L28.0709 245.352L28.2024 246.106L28.36 246.86L28.5435 247.614L28.7529 248.368L28.988 249.122L29.2484 249.875L29.5341 250.629L29.8447 251.383L30.1799 252.137L30.5395 252.891L30.9231 253.645L31.3304 254.399L31.761 255.153L32.2146 255.906L32.6906 256.66L33.1888 257.414L33.7086 258.168L34.2496 258.922L34.8112 259.676L35.3931 260.43L35.9946 261.183L36.6152 261.937L37.2544 262.691L37.9116 263.445L38.5861 264.199L39.2775 264.953L39.985 265.707L40.7081 266.461L41.446 267.214L42.1981 267.968L42.9638 268.722L43.7423 269.476L44.533 270.23L45.3351 270.984L46.1479 271.738L46.9707 272.492L47.8028 273.245L48.6433 273.999L49.4916 274.753L50.3468 275.507L51.2083 276.261L52.0752 277.015L52.9467 277.769L53.8221 278.523L54.7005 279.276L55.5813 280.03L56.4635 280.784L57.3464 281.538L58.2293 282.292L59.1112 283.046L59.9915 283.8L60.8693 284.554L61.7438 285.307L62.6143 286.061L63.4799 286.815L64.3399 287.569L65.1935 288.323L66.04 289.077L66.8786 289.831L67.7084 290.585L68.5289 291.338L69.3392 292.092L70.1386 292.846L70.9264 293.6L71.7019 294.354L72.4643 295.108L73.2131 295.862L73.9475 296.615L74.6668 297.369L75.3705 298.123L76.0578 298.877L76.7283 299.631L77.3811 300.385L78.0159 301.139L78.6319 301.893L79.2288 302.646L79.8058 303.4L80.3625 304.154L80.8984 304.908L81.413 305.662L81.9058 306.416L82.3765 307.17L82.8245 307.924L83.2495 308.677L83.6511 309.431L84.029 310.185L84.3827 310.939L84.712 311.693L85.0165 312.447L85.2961 313.201L85.5504 313.955L85.7793 314.708L85.9825 315.462L86.1598 316.216L86.311 316.97L86.4361 317.724L86.535 318.478L86.6075 319.232L86.6535 319.986L86.6731 320.739L86.6662 321.493L86.6328 322.247L86.5729 323.001L86.4867 323.755L86.3741 324.509L86.2353 325.263L86.0704 326.017L85.8796 326.77L85.663 327.524L85.4208 328.278L85.1533 329.032L84.8606 329.786L84.5431 330.54L84.201 331.294L83.8346 332.048L83.4444 332.801L83.0305 333.555L82.5934 334.309L82.1335 335.063L81.6512 335.817L81.1469 336.571L80.6211 337.325L80.0743 338.078L79.5069 338.832L78.9195 339.586L78.3126 340.34L77.6867 341.094L77.0424 341.848L76.3803 342.602L75.701 343.356L75.005 344.109L74.2931 344.863L73.5658 345.617L72.8238 346.371L72.0678 347.125L71.2985 347.879L70.5165 348.633L69.7225 349.387L68.9174 350.14L68.1017 350.894L67.2762 351.648L66.4417 352.402L65.5989 353.156L64.7486 353.91L63.8916 354.664L63.0285 355.418L62.1603 356.171L61.2876 356.925L60.4113 357.679L59.5321 358.433L58.6508 359.187L57.7683 359.941L56.8853 360.695L56.0027 361.449L55.1211 362.202L54.2414 362.956L53.3645 363.71L52.491 364.464L51.6218 365.218L50.7577 365.972L49.8994 366.726L49.0477 367.48L48.2034 368.233L47.3672 368.987L46.5399 369.741L45.7222 370.495L44.9149 371.249L44.1187 372.003L43.3342 372.757L42.5623 373.51L41.8036 374.264L41.0588 375.018L40.3286 375.772L39.6136 376.526L38.9144 377.28L38.2318 378.034L37.5662 378.788L36.9183 379.541L36.2888 380.295L35.678 381.049L35.0867 381.803L34.5154 382.557L33.9644 383.311L33.4345 384.065L32.9259 384.819L32.4392 385.572L31.9749 386.326L31.5333 387.08L31.1148 387.834L30.7198 388.588L30.3487 389.342L30.0018 390.096L29.6794 390.85L29.3818 391.603L29.1093 392.357L28.8621 393.111L28.6404 393.865L28.4444 394.619L28.2744 395.373L28.1305 396.127L28.0127 396.881L27.9213 397.634L27.8562 398.388L27.8176 399.142L27.8054 399.896L27.8198 400.65L27.8606 401.404L27.9278 402.158L28.0215 402.912L28.1414 403.665L28.2875 404.419L28.4597 405.173L28.6577 405.927L28.8815 406.681L29.1308 407.435L29.4055 408.189L29.7051 408.942L30.0295 409.696L30.3785 410.45L30.7516 411.204L31.1485 411.958L31.5689 412.712L32.0124 413.466L32.4786 414.22L32.9671 414.973L33.4775 415.727L34.0092 416.481L34.5618 417.235L35.1349 417.989L35.7278 418.743L36.3401 419.497L36.9712 420.251L37.6206 421.004L38.2876 421.758L38.9716 422.512L39.6721 423.266L40.3884 424.02L41.1199 424.774L41.8659 425.528L42.6257 426.282L43.3986 427.035L44.1841 427.789L44.9812 428.543L45.7894 429.297L46.6079 430.051L47.436 430.805L48.2729 431.559L49.1179 432.313L49.9701 433.066L50.829 433.82L51.6935 434.574L52.5631 435.328L53.4369 436.082L54.3141 436.836L55.1939 437.59L56.0756 438.343" stroke="#79CCDB" stroke-width="10"/>
<path d="M60.5174 -31.6184L62.5092 -29.8113L63.3755 -29.0574L64.2362 -28.3036L65.0906 -27.5497L65.938 -26.7958L66.7776 -26.0419L67.6085 -25.2881L68.4302 -24.5342L69.2417 -23.7803L70.0425 -23.0265L70.8317 -22.2726L71.6087 -21.5187L72.3728 -20.7648L73.1233 -20.011L73.8594 -19.2571L74.5806 -18.5032L75.2862 -17.7493L75.9756 -16.9955L76.6481 -16.2416L77.3031 -15.4877L77.9401 -14.7339L78.5584 -13.98L79.1576 -13.2261L79.737 -12.4722L80.2962 -11.7184L80.8347 -10.9645L81.3519 -10.2106L81.8474 -9.45675L82.3207 -8.70288L82.7715 -7.949L83.1993 -7.19513L83.6038 -6.44126L83.9845 -5.68738L84.3412 -4.93351L84.6734 -4.17964L84.981 -3.42576L85.2636 -2.67189L85.521 -1.91803L85.753 -1.16415L85.9593 -0.410279L86.1397 0.343597L86.2941 1.09747L86.4224 1.85134L86.5244 2.60522L86.6001 3.35908L86.6493 4.11296L86.6721 4.86684L86.6684 5.6207L86.6382 6.37458L86.5815 7.12845L86.4985 7.88232L86.3891 8.6362L86.2535 9.39007L86.0917 10.1439L85.904 10.8978L85.6906 11.6517L85.4515 12.4056L85.187 13.1594L84.8973 13.9133L84.5828 14.6672L84.2437 15.421L83.8802 16.1749L83.4928 16.9288L83.0818 17.6827L82.6475 18.4365L82.1903 19.1904L81.7107 19.9443L81.2091 20.6982L80.6859 21.452L80.1416 22.2059L79.5767 22.9598L78.9916 23.7136L78.3871 24.4675L77.7634 25.2214L77.1213 25.9753L76.4613 26.7291L75.7841 27.483L75.0901 28.2369L74.3801 28.9907L73.6546 29.7446L72.9144 30.4985L72.16 31.2524L71.3922 32.0062L70.6117 32.7601L69.8192 33.514L69.0153 34.2679L68.2009 35.0217L67.3766 35.7756L66.5431 36.5295L65.7013 37.2833L64.8519 38.0372L63.9956 38.7911L63.1332 39.545L62.2656 40.2988L61.3934 41.0527L60.5174 41.8066L59.6386 42.5604L58.7575 43.3143L57.8751 44.0682L56.9921 44.8221L56.1094 45.5759L55.2277 46.3298L54.3477 47.0837L53.4704 47.8376L52.5965 48.5914L51.7267 49.3453L50.8619 50.0992L50.0029 50.8531L49.1504 51.6069L48.3051 52.3608L47.4679 53.1147L46.6395 53.8685L45.8206 54.6224L45.012 55.3763L44.2144 56.1302L43.4285 56.884L42.655 57.6379L41.8947 58.3918L41.1482 59.1456L40.4161 59.8995L39.6993 60.6534L38.9981 61.4073L38.3134 62.1611L37.6458 62.915L36.9957 63.6689L36.3639 64.4228L35.7509 65.1766L35.1572 65.9305L34.5834 66.6844L34.03 67.4382L33.4974 68.1921L32.9863 68.946L32.4969 69.6999L32.0298 70.4537L31.5855 71.2076L31.1642 71.9615L30.7663 72.7154L30.3923 73.4692L30.0424 74.2231L29.7171 74.977L29.4165 75.7308L29.1409 76.4847L28.8906 77.2386L28.6658 77.9925L28.4668 78.7463L28.2936 79.5002L28.1465 80.2541L28.0256 81.008L27.9309 81.7618L27.8627 82.5157L27.8208 83.2696L27.8055 84.0234L27.8166 84.7773L27.8542 85.5312L27.9183 86.2851L28.0087 87.0389L28.1255 87.7928L28.2684 88.5467L28.4375 89.3006L28.6324 90.0544L28.8531 90.8083L29.0993 91.5622L29.3709 92.316L29.6675 93.0699L29.989 93.8238L30.335 94.5777L30.7051 95.3315L31.0992 96.0854L31.5168 96.8393L31.9575 97.5931L32.421 98.347L32.9069 99.1009L33.4146 99.8548L33.9438 100.609L34.4939 101.363L35.0645 102.116L35.6551 102.87L36.265 103.624L36.8939 104.378L37.5411 105.132L38.206 105.886L38.888 106.64L39.5865 107.394L40.3009 108.147L41.0306 108.901L41.7749 109.655L42.533 110.409L43.3045 111.163L44.0884 111.917L44.8842 112.671L45.6911 113.424L46.5084 114.178L47.3353 114.932L48.1712 115.686L49.0152 116.44L49.8667 117.194L50.7247 117.948L51.5887 118.702L52.4577 119.455L53.331 120.209L54.2078 120.963L55.0874 121.717L55.9689 122.471L56.8515 123.225L57.7345 123.979L58.6171 124.733L59.4984 125.486L60.3776 126.24L61.2541 126.994L62.1269 127.748L62.9954 128.502L63.8586 129.256L64.7159 130.01L65.5665 130.764L66.4096 131.517L67.2444 132.271L68.0702 133.025L68.8863 133.779L69.6919 134.533L70.4863 135.287L71.2688 136.041L72.0386 136.795L72.7951 137.548L73.5377 138.302L74.2655 139.056L74.9781 139.81L75.6746 140.564L76.3546 141.318L77.0174 142.072L77.6624 142.826L78.289 143.579L78.8967 144.333L79.4848 145.087L80.053 145.841L80.6006 146.595L81.1272 147.349L81.6323 148.103L82.1154 148.856L82.5762 149.61L83.0142 150.364L83.4289 151.118L83.8201 151.872L84.1874 152.626L84.5304 153.38L84.8489 154.134L85.1425 154.887L85.411 155.641L85.6542 156.395L85.8718 157.149L86.0636 157.903L86.2295 158.657L86.3693 159.411L86.4828 160.165L86.5701 160.918L86.631 161.672L86.6654 162.426L86.6733 163.18L86.6547 163.934L86.6097 164.688L86.5382 165.442L86.4404 166.196L86.3163 166.949L86.166 167.703L85.9897 168.457L85.7876 169.211L85.5597 169.965L85.3063 170.719L85.0277 171.473L84.7241 172.227L84.3957 172.98L84.0429 173.734L83.666 174.488L83.2653 175.242L82.8412 175.996L82.3941 176.75L81.9243 177.504L81.4323 178.257L80.9185 179.011L80.3834 179.765L79.8275 180.519L79.2512 181.273L78.6552 182.027L78.0398 182.781L77.4058 183.535L76.7536 184.288L76.0838 185.042L75.3971 185.796L74.6941 186.55L73.9753 187.304L73.2415 188.058L72.4932 188.812L71.7313 189.566L70.9563 190.319L70.169 191.073L69.37 191.827L68.5601 192.581L67.74 193.335L66.9105 194.089L66.0723 194.843L65.2261 195.597L64.3727 196.35L63.5129 197.104L62.6475 197.858L61.7772 198.612L60.9028 199.366L60.0252 200.12L59.145 200.874L58.2631 201.628L57.3802 202.381L56.4973 203.135L55.615 203.889L54.7342 204.643L53.8556 205.397L52.9801 206.151L52.1084 206.905L51.2414 207.659L50.3797 208.412L49.5242 209.166L48.6757 209.92L47.8348 210.674L47.0024 211.428L46.1793 212.182L45.366 212.936L44.5635 213.689L43.7724 214.443L42.9934 215.197L42.2272 215.951L41.4745 216.705L40.7361 217.459L40.0124 218.213L39.3043 218.967L38.6123 219.72L37.9371 220.474L37.2792 221.228L36.6393 221.982L36.018 222.736L35.4157 223.49L34.8331 224.244L34.2707 224.998L33.7289 225.751L33.2083 226.505L32.7093 227.259L32.2324 228.013L31.778 228.767L31.3465 229.521L30.9383 230.275L30.5537 231.029L30.1932 231.782L29.857 232.536L29.5455 233.29L29.2589 234.044L28.9975 234.798L28.7615 235.552L28.5511 236.306L28.3665 237.06L28.2079 237.813L28.0755 238.567L27.9693 239.321L27.8894 240.075L27.836 240.829L27.809 241.583L27.8085 242.337L27.8344 243.091L27.8869 243.844L27.9657 244.598L28.0709 245.352L28.2024 246.106L28.36 246.86L28.5435 247.614L28.7529 248.368L28.988 249.122L29.2484 249.875L29.5341 250.629L29.8447 251.383L30.1799 252.137L30.5395 252.891L30.9231 253.645L31.3304 254.399L31.761 255.153L32.2146 255.906L32.6906 256.66L33.1888 257.414L33.7086 258.168L34.2496 258.922L34.8112 259.676L35.3931 260.43L35.9946 261.183L36.6152 261.937L37.2544 262.691L37.9116 263.445L38.5861 264.199L39.2775 264.953L39.985 265.707L40.7081 266.461L41.446 267.214L42.1981 267.968L42.9638 268.722L43.7423 269.476L44.533 270.23L45.3351 270.984L46.1479 271.738L46.9707 272.492L47.8028 273.245L48.6433 273.999L49.4916 274.753L50.3468 275.507L51.2083 276.261L52.0752 277.015L52.9467 277.769L53.8221 278.523L54.7005 279.276L55.5813 280.03L56.4635 280.784L57.3464 281.538L58.2293 282.292L59.1112 283.046L59.9915 283.8L60.8693 284.554L61.7438 285.307L62.6143 286.061L63.4799 286.815L64.3399 287.569L65.1935 288.323L66.04 289.077L66.8786 289.831L67.7084 290.585L68.5289 291.338L69.3392 292.092L70.1386 292.846L70.9264 293.6L71.7019 294.354L72.4643 295.108L73.2131 295.862L73.9475 296.615L74.6668 297.369L75.3705 298.123L76.0578 298.877L76.7283 299.631L77.3811 300.385L78.0159 301.139L78.6319 301.893L79.2288 302.646L79.8058 303.4L80.3625 304.154L80.8984 304.908L81.413 305.662L81.9058 306.416L82.3765 307.17L82.8245 307.924L83.2495 308.677L83.6511 309.431L84.029 310.185L84.3827 310.939L84.712 311.693L85.0165 312.447L85.2961 313.201L85.5504 313.955L85.7793 314.708L85.9825 315.462L86.1598 316.216L86.311 316.97L86.4361 317.724L86.535 318.478L86.6075 319.232L86.6535 319.986L86.6731 320.739L86.6662 321.493L86.6328 322.247L86.5729 323.001L86.4867 323.755L86.3741 324.509L86.2353 325.263L86.0704 326.017L85.8796 326.77L85.663 327.524L85.4208 328.278L85.1533 329.032L84.8606 329.786L84.5431 330.54L84.201 331.294L83.8346 332.048L83.4444 332.801L83.0305 333.555L82.5934 334.309L82.1335 335.063L81.6512 335.817L81.1469 336.571L80.6211 337.325L80.0743 338.078L79.5069 338.832L78.9195 339.586L78.3126 340.34L77.6867 341.094L77.0424 341.848L76.3803 342.602L75.701 343.356L75.005 344.109L74.2931 344.863L73.5658 345.617L72.8238 346.371L72.0678 347.125L71.2985 347.879L70.5165 348.633L69.7225 349.387L68.9174 350.14L68.1017 350.894L67.2762 351.648L66.4417 352.402L65.5989 353.156L64.7486 353.91L63.8916 354.664L63.0285 355.418L62.1603 356.171L61.2876 356.925L60.4113 357.679L59.5321 358.433L58.6508 359.187L57.7683 359.941L56.8853 360.695L56.0027 361.449L55.1211 362.202L54.2414 362.956L53.3645 363.71L52.491 364.464L51.6218 365.218L50.7577 365.972L49.8994 366.726L49.0477 367.48L48.2034 368.233L47.3672 368.987L46.5399 369.741L45.7222 370.495L44.9149 371.249L44.1187 372.003L43.3342 372.757L42.5623 373.51L41.8036 374.264L41.0588 375.018L40.3286 375.772L39.6136 376.526L38.9144 377.28L38.2318 378.034L37.5662 378.788L36.9183 379.541L36.2888 380.295L35.678 381.049L35.0867 381.803L34.5154 382.557L33.9644 383.311L33.4345 384.065L32.9259 384.819L32.4392 385.572L31.9749 386.326L31.5333 387.08L31.1148 387.834L30.7198 388.588L30.3487 389.342L30.0018 390.096L29.6794 390.85L29.3818 391.603L29.1093 392.357L28.8621 393.111L28.6404 393.865L28.4444 394.619L28.2744 395.373L28.1305 396.127L28.0127 396.881L27.9213 397.634L27.8562 398.388L27.8176 399.142L27.8054 399.896L27.8198 400.65L27.8606 401.404L27.9278 402.158L28.0215 402.912L28.1414 403.665L28.2875 404.419L28.4597 405.173L28.6577 405.927L28.8815 406.681L29.1308 407.435L29.4055 408.189L29.7051 408.942L30.0295 409.696L30.3785 410.45L30.7516 411.204L31.1485 411.958L31.5689 412.712L32.0124 413.466L32.4786 414.22L32.9671 414.973L33.4775 415.727L34.0092 416.481L34.5618 417.235L35.1349 417.989L35.7278 418.743L36.3401 419.497L36.9712 420.251L37.6206 421.004L38.2876 421.758L38.9716 422.512L39.6721 423.266L40.3884 424.02L41.1199 424.774L41.8659 425.528L42.6257 426.282L43.3986 427.035L44.1841 427.789L44.9812 428.543L45.7894 429.297L46.6079 430.051L47.436 430.805L48.2729 431.559L49.1179 432.313L49.9701 433.066L50.829 433.82L51.6935 434.574L52.5631 435.328L53.4369 436.082L54.3141 436.836L55.1939 437.59L56.0756 438.343" stroke="url(#paint0_linear)" stroke-width="10"/>
</g>
<path d="M48.8907 124.382C52.5121 121.262 54.6474 119.444 58.702 116.042L66.551 121.929C63.4483 125.209 60.129 127.809 56.7397 130.268L48.8907 124.382Z" fill="#79CCDB"/>
<path d="M41.0158 288.278C44.8504 285.065 53.8343 276.548 58.1274 273.044L66.8131 281.169C63.5278 284.548 51.6358 293.363 48.0471 295.896L41.0158 288.278Z" fill="#79CCDB"/>
<path d="M43.3754 128.316C46.9969 125.304 54.5553 118.124 58.6099 114.84L67.399 121.871C64.2963 125.038 53.7802 133.559 50.3909 135.933L43.3754 128.316Z" fill="#79CCDB"/>
</g>
<path d="M66.9692 72.6519C66.9692 76.6301 63.7442 79.8551 59.766 79.8551C55.7878 79.8551 52.5629 76.6301 52.5629 72.6519C52.5629 68.6737 55.7878 65.4487 59.766 65.4487C63.7442 65.4487 66.9692 68.6737 66.9692 72.6519Z" stroke="#C9D1D9" stroke-width="2"/>
<path d="M64.6255 217.965C64.6255 221.944 61.4005 225.169 57.4223 225.169C53.4441 225.169 50.2191 221.944 50.2191 217.965C50.2191 213.987 53.4441 210.762 57.4223 210.762C61.4005 210.762 64.6255 213.987 64.6255 217.965Z" stroke="#C9D1D9" stroke-width="2"/>
</g>
<path d="M182.349 218.672C182.74 218.282 182.74 217.649 182.349 217.258L175.985 210.894C175.595 210.504 174.961 210.504 174.571 210.894C174.18 211.285 174.18 211.918 174.571 212.308L180.228 217.965L174.571 223.622C174.18 224.013 174.18 224.646 174.571 225.036C174.961 225.427 175.595 225.427 175.985 225.036L182.349 218.672ZM64.4536 218.965H181.642V216.965H64.4536V218.965Z" fill="#C9D1D9"/>
<path d="M184.693 73.359C185.083 72.9684 185.083 72.3353 184.693 71.9447L178.329 65.5808C177.938 65.1903 177.305 65.1903 176.915 65.5808C176.524 65.9713 176.524 66.6045 176.915 66.995L182.571 72.6519L176.915 78.3087C176.524 78.6992 176.524 79.3324 176.915 79.7229C177.305 80.1134 177.938 80.1134 178.329 79.7229L184.693 73.359ZM66.7974 73.6519H183.986V71.6519H66.7974V73.6519Z" fill="#C9D1D9"/>
<defs>
<filter id="filter0_d" x="730.959" y="218.58" width="45.5137" height="10" filterUnits="userSpaceOnUse" color-interpolation-filters="sRGB">
<feFlood flood-opacity="0" result="BackgroundImageFix"/>
<feColorMatrix in="SourceAlpha" type="matrix" values="0 0 0 0 0 0 0 0 0 0 0 0 0 0 0 0 0 0 127 0"/>
<feOffset dy="4"/>
<feGaussianBlur stdDeviation="2"/>
<feColorMatrix type="matrix" values="0 0 0 0 0 0 0 0 0 0 0 0 0 0 0 0 0 0 0.25 0"/>
<feBlend mode="normal" in2="BackgroundImageFix" result="effect1_dropShadow"/>
<feBlend mode="normal" in="SourceGraphic" in2="effect1_dropShadow" result="shape"/>
</filter>
<filter id="filter1_d" x="355.412" y="203.981" width="179.77" height="24.2134" filterUnits="userSpaceOnUse" color-interpolation-filters="sRGB">
<feFlood flood-opacity="0" result="BackgroundImageFix"/>
<feColorMatrix in="SourceAlpha" type="matrix" values="0 0 0 0 0 0 0 0 0 0 0 0 0 0 0 0 0 0 127 0"/>
<feOffset dy="4"/>
<feGaussianBlur stdDeviation="2"/>
<feColorMatrix type="matrix" values="0 0 0 0 0 0 0 0 0 0 0 0 0 0 0 0 0 0 0.25 0"/>
<feBlend mode="normal" in2="BackgroundImageFix" result="effect1_dropShadow"/>
<feBlend mode="normal" in="SourceGraphic" in2="effect1_dropShadow" result="shape"/>
</filter>
<filter id="filter2_d" x="377.999" y="257.251" width="132.546" height="10.0005" filterUnits="userSpaceOnUse" color-interpolation-filters="sRGB">
<feFlood flood-opacity="0" result="BackgroundImageFix"/>
<feColorMatrix in="SourceAlpha" type="matrix" values="0 0 0 0 0 0 0 0 0 0 0 0 0 0 0 0 0 0 127 0"/>
<feOffset dy="4"/>
<feGaussianBlur stdDeviation="2"/>
<feColorMatrix type="matrix" values="0 0 0 0 0 0 0 0 0 0 0 0 0 0 0 0 0 0 0.25 0"/>
<feBlend mode="normal" in2="BackgroundImageFix" result="effect1_dropShadow"/>
<feBlend mode="normal" in="SourceGraphic" in2="effect1_dropShadow" result="shape"/>
</filter>
<filter id="filter3_d" x="347.209" y="39.917" width="179.77" height="24.2134" filterUnits="userSpaceOnUse" color-interpolation-filters="sRGB">
<feFlood flood-opacity="0" result="BackgroundImageFix"/>
<feColorMatrix in="SourceAlpha" type="matrix" values="0 0 0 0 0 0 0 0 0 0 0 0 0 0 0 0 0 0 127 0"/>
<feOffset dy="4"/>
<feGaussianBlur stdDeviation="2"/>
<feColorMatrix type="matrix" values="0 0 0 0 0 0 0 0 0 0 0 0 0 0 0 0 0 0 0.25 0"/>
<feBlend mode="normal" in2="BackgroundImageFix" result="effect1_dropShadow"/>
<feBlend mode="normal" in="SourceGraphic" in2="effect1_dropShadow" result="shape"/>
</filter>
<filter id="filter4_d" x="345.709" y="131.283" width="179.77" height="24.2134" filterUnits="userSpaceOnUse" color-interpolation-filters="sRGB">
<feFlood flood-opacity="0" result="BackgroundImageFix"/>
<feColorMatrix in="SourceAlpha" type="matrix" values="0 0 0 0 0 0 0 0 0 0 0 0 0 0 0 0 0 0 127 0"/>
<feOffset dy="4"/>
<feGaussianBlur stdDeviation="2"/>
<feColorMatrix type="matrix" values="0 0 0 0 0 0 0 0 0 0 0 0 0 0 0 0 0 0 0.25 0"/>
<feBlend mode="normal" in2="BackgroundImageFix" result="effect1_dropShadow"/>
<feBlend mode="normal" in="SourceGraphic" in2="effect1_dropShadow" result="shape"/>
</filter>
<filter id="filter5_d" x="369.796" y="93.1863" width="132.546" height="10" filterUnits="userSpaceOnUse" color-interpolation-filters="sRGB">
<feFlood flood-opacity="0" result="BackgroundImageFix"/>
<feColorMatrix in="SourceAlpha" type="matrix" values="0 0 0 0 0 0 0 0 0 0 0 0 0 0 0 0 0 0 127 0"/>
<feOffset dy="4"/>
<feGaussianBlur stdDeviation="2"/>
<feColorMatrix type="matrix" values="0 0 0 0 0 0 0 0 0 0 0 0 0 0 0 0 0 0 0.25 0"/>
<feBlend mode="normal" in2="BackgroundImageFix" result="effect1_dropShadow"/>
<feBlend mode="normal" in="SourceGraphic" in2="effect1_dropShadow" result="shape"/>
</filter>
<filter id="filter6_d" x="18.8047" y="-41.3235" width="76.8694" height="496.978" filterUnits="userSpaceOnUse" color-interpolation-filters="sRGB">
<feFlood flood-opacity="0" result="BackgroundImageFix"/>
<feColorMatrix in="SourceAlpha" type="matrix" values="0 0 0 0 0 0 0 0 0 0 0 0 0 0 0 0 0 0 127 0"/>
<feOffset dy="4"/>
<feGaussianBlur stdDeviation="2"/>
<feColorMatrix type="matrix" values="0 0 0 0 0 0 0 0 0 0 0 0 0 0 0 0 0 0 0.25 0"/>
<feBlend mode="normal" in2="BackgroundImageFix" result="effect1_dropShadow"/>
<feBlend mode="normal" in="SourceGraphic" in2="effect1_dropShadow" result="shape"/>
</filter>
<filter id="filter7_d" x="18.8048" y="-41.3235" width="76.8693" height="491.467" filterUnits="userSpaceOnUse" color-interpolation-filters="sRGB">
<feFlood flood-opacity="0" result="BackgroundImageFix"/>
<feColorMatrix in="SourceAlpha" type="matrix" values="0 0 0 0 0 0 0 0 0 0 0 0 0 0 0 0 0 0 127 0"/>
<feOffset dy="4"/>
<feGaussianBlur stdDeviation="2"/>
<feColorMatrix type="matrix" values="0 0 0 0 0 0 0 0 0 0 0 0 0 0 0 0 0 0 0.25 0"/>
<feBlend mode="normal" in2="BackgroundImageFix" result="effect1_dropShadow"/>
<feBlend mode="normal" in="SourceGraphic" in2="effect1_dropShadow" result="shape"/>
</filter>
<filter id="filter8_d" x="18.8047" y="-35.3215" width="76.8693" height="485.465" filterUnits="userSpaceOnUse" color-interpolation-filters="sRGB">
<feFlood flood-opacity="0" result="BackgroundImageFix"/>
<feColorMatrix in="SourceAlpha" type="matrix" values="0 0 0 0 0 0 0 0 0 0 0 0 0 0 0 0 0 0 127 0"/>
<feOffset dy="4"/>
<feGaussianBlur stdDeviation="2"/>
<feColorMatrix type="matrix" values="0 0 0 0 0 0 0 0 0 0 0 0 0 0 0 0 0 0 0.25 0"/>
<feBlend mode="normal" in2="BackgroundImageFix" result="effect1_dropShadow"/>
<feBlend mode="normal" in="SourceGraphic" in2="effect1_dropShadow" result="shape"/>
</filter>
<linearGradient id="paint0_linear" x1="27.8054" y1="202.381" x2="86.6733" y2="202.381" gradientUnits="userSpaceOnUse">
<stop stop-color="white"/>
<stop offset="1" stop-color="white" stop-opacity="0"/>
</linearGradient>
<clipPath id="clip0">
<rect width="117.188" height="246.095" fill="white" transform="translate(0 45.6985)"/>
</clipPath>
</defs>
</svg>
