<svg width="742" height="214" viewBox="0 0 742 214" fill="none" xmlns="http://www.w3.org/2000/svg">
<g filter="url(#filter0_d)">
<path d="M9.98242 22.0664C11.6947 22.0664 12.5508 21.3242 12.5508 19.8398C12.5508 19.1367 12.4596 18.6257 12.2773 18.3066C12.1016 17.9811 11.7891 17.7467 11.3398 17.6035C10.8906 17.4538 10.2396 17.3789 9.38672 17.3789V15.4355C10.9622 15.4355 11.8997 15.1947 12.1992 14.7129C12.3815 14.4134 12.4727 13.9609 12.4727 13.3555C12.4727 12.7435 12.2871 12.2845 11.916 11.9785C11.5449 11.666 10.8906 11.5098 9.95312 11.5098C9.01562 11.5098 8.36133 11.6855 7.99023 12.0371C7.62565 12.3822 7.44661 13.0072 7.45312 13.9121H4.83594C4.84896 12.2194 5.30469 11.0312 6.20312 10.3477C7.10156 9.66406 8.34505 9.32227 9.93359 9.32227C11.5286 9.32227 12.8014 9.67057 13.752 10.3672C14.7025 11.0573 15.1777 12.0176 15.1777 13.248C15.1777 14.2376 14.9889 14.9701 14.6113 15.4453C14.2337 15.9141 13.6934 16.2266 12.9902 16.3828C14.5332 16.7995 15.3047 17.9518 15.3047 19.8398C15.3047 21.1484 14.888 22.2129 14.0547 23.0332C13.2214 23.8535 11.8965 24.2637 10.0801 24.2637C8.26367 24.2637 6.93555 23.8796 6.0957 23.1113C5.25586 22.3366 4.81641 21.2135 4.77734 19.7422H7.39453C7.40755 20.6276 7.61263 21.2363 8.00977 21.5684C8.41341 21.9004 9.07096 22.0664 9.98242 22.0664ZM20.5977 15.8066L19.5527 15.3574C19.8848 14.9798 20.2038 14.4785 20.5098 13.8535C20.8223 13.222 20.9785 12.6068 20.9785 12.0078H19.3672V9.3125H22.5117V11.4902C22.5117 12.3561 22.2969 13.1992 21.8672 14.0195C21.4375 14.8333 21.0143 15.429 20.5977 15.8066Z" fill="white"/>
</g>
<path d="M6.99023 165.602C7.55013 165.016 8.52018 164.723 9.90039 164.723C11.2871 164.723 12.4036 165.172 13.25 166.07C14.1029 166.969 14.5293 168.118 14.5293 169.518C14.5293 170.917 14.0378 172.06 13.0547 172.945C12.0716 173.824 10.75 174.264 9.08984 174.264C8.06771 174.264 7.06836 174.114 6.0918 173.814C5.11523 173.515 4.38607 173.189 3.9043 172.838L4.67578 170.895C6.00391 171.689 7.42318 172.086 8.93359 172.086C10.7695 172.086 11.6908 171.21 11.6973 169.459V169.449C11.6973 168.753 11.4727 168.199 11.0234 167.789C10.5807 167.372 10.0176 167.164 9.33398 167.164C8.1556 167.164 7.21159 167.499 6.50195 168.17L4.41211 167.125L5.20312 159.586H13.4258V161.988H7.39062L6.99023 165.602ZM19.5977 165.807L18.5527 165.357C18.8848 164.98 19.2038 164.479 19.5098 163.854C19.8223 163.222 19.9785 162.607 19.9785 162.008H18.3672V159.312H21.5117V161.49C21.5117 162.356 21.2969 163.199 20.8672 164.02C20.4375 164.833 20.0143 165.429 19.5977 165.807Z" fill="white"/>
<g filter="url(#filter1_d)">
<path d="M722.99 61.6016C723.55 61.0156 724.52 60.7227 725.9 60.7227C727.287 60.7227 728.404 61.1719 729.25 62.0703C730.103 62.9688 730.529 64.1178 730.529 65.5176C730.529 66.9173 730.038 68.0599 729.055 68.9453C728.072 69.8242 726.75 70.2637 725.09 70.2637C724.068 70.2637 723.068 70.1139 722.092 69.8145C721.115 69.515 720.386 69.1895 719.904 68.8379L720.676 66.8945C722.004 67.6888 723.423 68.0859 724.934 68.0859C726.77 68.0859 727.691 67.2103 727.697 65.459V65.4492C727.697 64.7526 727.473 64.1992 727.023 63.7891C726.581 63.3724 726.018 63.1641 725.334 63.1641C724.156 63.1641 723.212 63.4993 722.502 64.1699L720.412 63.125L721.203 55.5859H729.426V57.9883H723.391L722.99 61.6016ZM735.598 61.8066L734.553 61.3574C734.885 60.9798 735.204 60.4785 735.51 59.8535C735.822 59.222 735.979 58.6068 735.979 58.0078H734.367V55.3125H737.512V57.4902C737.512 58.3561 737.297 59.1992 736.867 60.0195C736.438 60.8333 736.014 61.429 735.598 61.8066Z" fill="white"/>
</g>
<g filter="url(#filter2_d)">
<path d="M724.982 124.066C726.695 124.066 727.551 123.324 727.551 121.84C727.551 121.137 727.46 120.626 727.277 120.307C727.102 119.981 726.789 119.747 726.34 119.604C725.891 119.454 725.24 119.379 724.387 119.379V117.436C725.962 117.436 726.9 117.195 727.199 116.713C727.382 116.413 727.473 115.961 727.473 115.355C727.473 114.743 727.287 114.285 726.916 113.979C726.545 113.666 725.891 113.51 724.953 113.51C724.016 113.51 723.361 113.686 722.99 114.037C722.626 114.382 722.447 115.007 722.453 115.912H719.836C719.849 114.219 720.305 113.031 721.203 112.348C722.102 111.664 723.345 111.322 724.934 111.322C726.529 111.322 727.801 111.671 728.752 112.367C729.702 113.057 730.178 114.018 730.178 115.248C730.178 116.238 729.989 116.97 729.611 117.445C729.234 117.914 728.693 118.227 727.99 118.383C729.533 118.799 730.305 119.952 730.305 121.84C730.305 123.148 729.888 124.213 729.055 125.033C728.221 125.854 726.896 126.264 725.08 126.264C723.264 126.264 721.936 125.88 721.096 125.111C720.256 124.337 719.816 123.214 719.777 121.742H722.395C722.408 122.628 722.613 123.236 723.01 123.568C723.413 123.9 724.071 124.066 724.982 124.066ZM735.598 117.807L734.553 117.357C734.885 116.98 735.204 116.479 735.51 115.854C735.822 115.222 735.979 114.607 735.979 114.008H734.367V111.312H737.512V113.49C737.512 114.356 737.297 115.199 736.867 116.02C736.438 116.833 736.014 117.429 735.598 117.807Z" fill="white"/>
</g>
<g filter="url(#filter3_d)">
<rect x="225" y="81.0566" width="27.2843" height="23.0505" rx="5" fill="#DF0F0F"/>
<path d="M275.233 90.4951C276.748 91.2206 276.748 93.3773 275.233 94.1027L248.773 106.775C247.445 107.411 245.909 106.443 245.909 104.971V79.6269C245.909 78.155 247.445 77.1873 248.773 77.8231L275.233 90.4951Z" fill="#DF0F0F"/>
<circle cx="263.104" cy="85.7608" r="4.20419" fill="white" stroke="black"/>
<circle cx="264.28" cy="85.9956" r="1.17605" fill="black"/>
<path d="M261.67 95.1711C263.467 95.4709 264.251 95.041 265.456 93.7577" stroke="black"/>
<circle cx="256.988" cy="84.349" r="4.20419" fill="white" stroke="black"/>
<circle cx="258.635" cy="84.5845" r="1.17605" fill="black"/>
</g>
<rect x="39" y="198" width="13" height="13" fill="#2E55B9"/>
<path d="M62.5469 209.129C61.0391 209.129 60.0469 208.73 59.5703 207.934C59.3047 207.488 59.1719 206.92 59.1719 206.229V200.527H60.3555V206.352C60.3555 207.414 60.8633 208.012 61.8789 208.145C62.0781 208.168 62.3242 208.18 62.6172 208.18C63.2188 208.18 63.709 208.062 64.0879 207.828C64.4668 207.594 64.6562 207.102 64.6562 206.352V200.527H65.8398V206.229C65.8398 207.326 65.5156 208.105 64.8672 208.566C64.3359 208.941 63.5625 209.129 62.5469 209.129ZM68.1016 209V202.789H69.2031V203.668C69.3438 203.285 69.7246 203.008 70.3457 202.836C70.6699 202.742 71.0078 202.697 71.3594 202.701L71.3242 203.645C70.793 203.645 70.3066 203.75 69.8652 203.961C69.4238 204.172 69.2031 204.402 69.2031 204.652V209H68.1016ZM74.4238 209.129C73.7949 209.129 73.3066 208.959 72.959 208.619C72.6113 208.275 72.4375 207.85 72.4375 207.342C72.4375 207.053 72.498 206.812 72.6191 206.621C72.8652 206.23 73.5996 205.857 74.8223 205.502C75.5293 205.307 75.9355 205.139 76.041 204.998C76.1504 204.857 76.2109 204.748 76.2227 204.67C76.2344 204.588 76.2402 204.459 76.2402 204.283C76.2402 204.107 76.168 203.936 76.0234 203.768C75.8828 203.6 75.5742 203.516 75.0977 203.516C74.4258 203.516 74.0137 203.645 73.8613 203.902C73.7832 204.035 73.7441 204.215 73.7441 204.441V204.717H72.6836V204.436C72.6836 203.83 72.8848 203.385 73.2871 203.1C73.6934 202.814 74.2988 202.672 75.1035 202.672C75.9082 202.672 76.4824 202.855 76.8262 203.223C77.1699 203.586 77.3418 204.105 77.3418 204.781V207.43C77.3418 207.754 77.3828 207.965 77.4648 208.062C77.5469 208.156 77.7227 208.203 77.9922 208.203L77.8633 209.047H77.6406C77.25 209.047 76.959 208.973 76.7676 208.824C76.5762 208.672 76.4297 208.438 76.3281 208.121C76.0039 208.605 75.6133 208.91 75.1562 209.035C74.9375 209.098 74.6934 209.129 74.4238 209.129ZM74.9746 206.258C74.4199 206.418 74.0352 206.578 73.8203 206.738C73.6094 206.898 73.5039 207.125 73.5039 207.418C73.5039 207.707 73.6016 207.926 73.7969 208.074C73.9961 208.223 74.2344 208.297 74.5117 208.297C74.793 208.297 75.0469 208.262 75.2734 208.191C75.5 208.117 75.7031 208.01 75.8828 207.869C76.0664 207.725 76.1855 207.561 76.2402 207.377V205.584C75.9551 205.869 75.5332 206.094 74.9746 206.258ZM81.9238 209.129C80.6543 209.129 79.8594 208.688 79.5391 207.805C79.4453 207.555 79.3984 207.281 79.3984 206.984V204.617C79.3984 204.027 79.623 203.557 80.0723 203.205C80.5215 202.85 81.1289 202.672 81.8945 202.672C82.8711 202.672 83.543 202.883 83.9102 203.305C84.1992 203.633 84.3438 204.117 84.3438 204.758L83.2949 204.857C83.2949 204.303 83.1953 203.941 82.9961 203.773C82.8008 203.602 82.4512 203.516 81.9473 203.516C81.4434 203.516 81.0762 203.604 80.8457 203.779C80.6152 203.955 80.5 204.244 80.5 204.646V207.078C80.5 207.508 80.6211 207.816 80.8633 208.004C81.1055 208.191 81.4785 208.285 81.9824 208.285C82.4902 208.285 82.8281 208.219 82.9961 208.086C83.168 207.953 83.2734 207.652 83.3125 207.184H84.332C84.2695 207.902 84.0625 208.406 83.7109 208.695C83.3594 208.984 82.7637 209.129 81.9238 209.129ZM86.2422 209V202.789H87.3438V209H86.2422ZM86.2422 201.67V200.527H87.3438V201.67H86.2422ZM91.6328 209.047C91.2695 209.047 90.9727 209.02 90.7422 208.965C90.5117 208.91 90.3086 208.807 90.1328 208.654C89.8047 208.369 89.6406 207.785 89.6406 206.902V200.182H90.7422V206.914C90.7422 207.414 90.8164 207.74 90.9648 207.893C91.1133 208.045 91.4199 208.121 91.8848 208.121H92.0781L91.9492 209.047H91.6328Z" fill="#2E55B9"/>
<g filter="url(#filter4_d)">
<rect x="110" y="56.1064" width="12.1702" height="14.0426" rx="6.08511" fill="#E3740D"/>
<circle cx="114.33" cy="56.9255" r="1.75532" fill="white"/>
<circle cx="117.84" cy="56.9255" r="1.75532" fill="white"/>
<circle cx="117.723" cy="57.2767" r="1.17021" fill="black"/>
<circle cx="114.213" cy="57.2767" r="1.17021" fill="black"/>
<path d="M117.489 59.6169C116.393 60.2273 115.778 60.1572 114.681 59.6169V61.6156C115.581 62.3356 116.17 62.4297 117.489 61.6156V59.6169Z" stroke="black"/>
<path d="M127.787 54.708C129.432 55.4126 130.355 55.6123 132 54.708V57.7506C130.502 58.6359 129.599 58.7516 127.787 57.7506C126.142 57.1742 125.22 57.0579 123.574 57.7506V54.708C124.925 53.8223 125.808 53.7074 127.787 54.708Z" fill="#13D527" stroke="#13D427"/>
<line x1="123.84" y1="54.468" x2="123.84" y2="63.1276" stroke="white"/>
<line x1="121.463" y1="62.4206" x2="123.57" y2="60.3142" stroke="#E3740D" stroke-width="2"/>
</g>
<g filter="url(#filter5_d)">
<rect width="12.1702" height="14.0426" rx="6.08511" transform="matrix(-1 0 0 1 149 118.106)" fill="#E3740D"/>
<circle r="1.75532" transform="matrix(-1 0 0 1 144.67 118.925)" fill="white"/>
<circle r="1.75532" transform="matrix(-1 0 0 1 141.16 118.925)" fill="white"/>
<circle r="1.17021" transform="matrix(-1 0 0 1 141.277 119.277)" fill="black"/>
<circle r="1.17021" transform="matrix(-1 0 0 1 144.787 119.277)" fill="black"/>
<path d="M141.511 121.617C142.607 122.227 143.222 122.157 144.319 121.617V123.616C143.419 124.336 142.83 124.43 141.511 123.616V121.617Z" stroke="black"/>
<path d="M131.213 116.708C129.568 117.413 128.645 117.612 127 116.708V119.751C128.498 120.636 129.401 120.752 131.213 119.751C132.858 119.174 133.78 119.058 135.426 119.751V116.708C134.075 115.822 133.192 115.707 131.213 116.708Z" fill="#13D527" stroke="#13D427"/>
<line y1="-0.5" x2="8.65957" y2="-0.5" transform="matrix(0 1 1 0 135.66 116.468)" stroke="white"/>
<line y1="-1" x2="2.97888" y2="-1" transform="matrix(-0.707107 -0.707107 -0.707107 0.707107 136.83 125.128)" stroke="#E3740D" stroke-width="2"/>
</g>
<g filter="url(#filter6_d)">
<line x1="711.833" y1="69.6665" x2="711.833" y2="92.9998" stroke="#62F2A6" stroke-width="3"/>
<line x1="711.833" y1="93" x2="711.833" y2="116.333" stroke="#EFE123" stroke-width="3"/>
<line x1="711.833" y1="69.6665" x2="711.833" y2="92.9998" stroke="#62F2A6" stroke-width="3"/>
<line x1="711.833" y1="69.6665" x2="711.833" y2="92.9998" stroke="#62F2A6" stroke-width="3"/>
<line x1="711.833" y1="93" x2="711.833" y2="116.333" stroke="#E8A62F" stroke-width="3"/>
<line x1="711.833" y1="69.6665" x2="711.833" y2="92.9998" stroke="#62F2A6" stroke-width="3"/>
<line x1="711.833" y1="69.6665" x2="711.833" y2="92.9998" stroke="#C6344A" stroke-width="3"/>
<line x1="693.167" y1="69.6665" x2="693.167" y2="92.9998" stroke="#62F2A6" stroke-width="3"/>
<line x1="693.167" y1="93" x2="693.167" y2="116.333" stroke="#EFE123" stroke-width="3"/>
<line x1="693.167" y1="69.6665" x2="693.167" y2="92.9998" stroke="#62F2A6" stroke-width="3"/>
<line x1="693.167" y1="69.6665" x2="693.167" y2="92.9998" stroke="#62F2A6" stroke-width="3"/>
<line x1="693.167" y1="93" x2="693.167" y2="116.333" stroke="#61ECA1" stroke-width="3"/>
<line x1="693.167" y1="69.6665" x2="693.167" y2="92.9998" stroke="#62F2A6" stroke-width="3"/>
<line x1="693.167" y1="69.6665" x2="693.167" y2="92.9998" stroke="#62F2A6" stroke-width="3"/>
<line x1="693.167" y1="69.6665" x2="693.167" y2="92.9998" stroke="#EDDE22" stroke-width="3"/>
<line x1="683.833" y1="69.6665" x2="683.833" y2="92.9998" stroke="#62F2A6" stroke-width="3"/>
<line x1="683.833" y1="93" x2="683.833" y2="116.333" stroke="#EFE123" stroke-width="3"/>
<line x1="683.833" y1="69.6665" x2="683.833" y2="92.9998" stroke="#62F2A6" stroke-width="3"/>
<line x1="683.833" y1="69.6665" x2="683.833" y2="92.9998" stroke="#62F2A6" stroke-width="3"/>
<line x1="683.833" y1="93" x2="683.833" y2="116.333" stroke="#EFE123" stroke-width="3"/>
<line x1="683.833" y1="69.6665" x2="683.833" y2="92.9998" stroke="#62F2A6" stroke-width="3"/>
<line x1="683.833" y1="69.6665" x2="683.833" y2="92.9998" stroke="#62F2A6" stroke-width="3"/>
<line x1="683.833" y1="69.6665" x2="683.833" y2="92.9998" stroke="#62F2A6" stroke-width="3"/>
<line x1="674.5" y1="69.6665" x2="674.5" y2="92.9998" stroke="#62F2A6" stroke-width="3"/>
<line x1="674.5" y1="93" x2="674.5" y2="116.333" stroke="#EFE123" stroke-width="3"/>
<line x1="674.5" y1="69.6665" x2="674.5" y2="92.9998" stroke="#62F2A6" stroke-width="3"/>
<line x1="674.5" y1="69.6665" x2="674.5" y2="92.9998" stroke="#62F2A6" stroke-width="3"/>
<line x1="674.5" y1="93" x2="674.5" y2="116.333" stroke="#E8A62F" stroke-width="3"/>
<line x1="674.5" y1="69.6665" x2="674.5" y2="92.9998" stroke="#62F2A6" stroke-width="3"/>
<line x1="674.5" y1="69.6665" x2="674.5" y2="92.9998" stroke="#62F2A6" stroke-width="3"/>
<line x1="674.5" y1="69.6665" x2="674.5" y2="92.9998" stroke="#C6344A" stroke-width="3"/>
<line x1="702.5" y1="69.6665" x2="702.5" y2="92.9998" stroke="#62F2A6" stroke-width="3"/>
<line x1="702.5" y1="93" x2="702.5" y2="116.333" stroke="#EFE123" stroke-width="3"/>
<line x1="665.167" y1="69.6665" x2="665.167" y2="92.9998" stroke="#62F2A6" stroke-width="3"/>
<line x1="665.167" y1="93" x2="665.167" y2="116.333" stroke="#EFE123" stroke-width="3"/>
<line x1="665.167" y1="69.6665" x2="665.167" y2="92.9998" stroke="#62F2A6" stroke-width="3"/>
<line x1="665.167" y1="69.6665" x2="665.167" y2="92.9998" stroke="#62F2A6" stroke-width="3"/>
<line x1="665.167" y1="93" x2="665.167" y2="116.333" stroke="#EFE123" stroke-width="3"/>
<line x1="665.167" y1="69.6665" x2="665.167" y2="92.9998" stroke="#62F2A6" stroke-width="3"/>
<line x1="665.167" y1="69.6665" x2="665.167" y2="92.9998" stroke="#62F2A6" stroke-width="3"/>
<line x1="665.167" y1="69.6665" x2="665.167" y2="92.9998" stroke="#62F2A6" stroke-width="3"/>
<line x1="646.5" y1="69.6665" x2="646.5" y2="92.9998" stroke="#62F2A6" stroke-width="3"/>
<line x1="646.5" y1="93" x2="646.5" y2="116.333" stroke="#EFE123" stroke-width="3"/>
<line x1="646.5" y1="69.6665" x2="646.5" y2="92.9998" stroke="#62F2A6" stroke-width="3"/>
<line x1="646.5" y1="69.6665" x2="646.5" y2="92.9998" stroke="#62F2A6" stroke-width="3"/>
<line x1="646.5" y1="93" x2="646.5" y2="116.333" stroke="#EFE123" stroke-width="3"/>
<line x1="646.5" y1="69.6665" x2="646.5" y2="92.9998" stroke="#62F2A6" stroke-width="3"/>
<line x1="646.5" y1="69.6665" x2="646.5" y2="92.9998" stroke="#62F2A6" stroke-width="3"/>
<line x1="646.5" y1="69.6665" x2="646.5" y2="92.9998" stroke="#62F2A6" stroke-width="3"/>
<line x1="637.167" y1="69.6665" x2="637.167" y2="92.9998" stroke="#62F2A6" stroke-width="3"/>
<line x1="637.167" y1="93" x2="637.167" y2="116.333" stroke="#EFE123" stroke-width="3"/>
<line x1="637.167" y1="69.6665" x2="637.167" y2="92.9998" stroke="#62F2A6" stroke-width="3"/>
<line x1="637.167" y1="69.6665" x2="637.167" y2="92.9998" stroke="#62F2A6" stroke-width="3"/>
<line x1="637.167" y1="69.6665" x2="637.167" y2="92.9998" stroke="#62F2A6" stroke-width="3"/>
<line x1="637.167" y1="69.6665" x2="637.167" y2="92.9998" stroke="#62F2A6" stroke-width="3"/>
<line x1="637.167" y1="69.6665" x2="637.167" y2="92.9998" stroke="#62F2A6" stroke-width="3"/>
<line x1="627.833" y1="69.6665" x2="627.833" y2="92.9998" stroke="#62F2A6" stroke-width="3"/>
<line x1="627.833" y1="93" x2="627.833" y2="116.333" stroke="#EFE123" stroke-width="3"/>
<line x1="627.833" y1="69.6665" x2="627.833" y2="92.9998" stroke="#62F2A6" stroke-width="3"/>
<line x1="627.833" y1="69.6665" x2="627.833" y2="92.9998" stroke="#62F2A6" stroke-width="3"/>
<line x1="627.833" y1="93" x2="627.833" y2="116.333" stroke="#C6344A" stroke-width="3"/>
<line x1="627.833" y1="69.6665" x2="627.833" y2="92.9998" stroke="#62F2A6" stroke-width="3"/>
<line x1="627.833" y1="69.6665" x2="627.833" y2="92.9998" stroke="#62F2A6" stroke-width="3"/>
<line x1="627.833" y1="69.6665" x2="627.833" y2="92.9998" stroke="#E8A62F" stroke-width="3"/>
<line x1="655.833" y1="69.6665" x2="655.833" y2="92.9998" stroke="#C6344A" stroke-width="3"/>
<line x1="655.833" y1="93" x2="655.833" y2="116.333" stroke="#E8A62F" stroke-width="3"/>
<line x1="618.5" y1="69.6665" x2="618.5" y2="92.9998" stroke="#62F2A6" stroke-width="3"/>
<line x1="618.5" y1="93" x2="618.5" y2="116.333" stroke="#EFE123" stroke-width="3"/>
<line x1="618.5" y1="69.6665" x2="618.5" y2="92.9998" stroke="#62F2A6" stroke-width="3"/>
<line x1="618.5" y1="69.6665" x2="618.5" y2="92.9998" stroke="#62F2A6" stroke-width="3"/>
<line x1="618.5" y1="93" x2="618.5" y2="116.333" stroke="#E8A62F" stroke-width="3"/>
<line x1="618.5" y1="69.6665" x2="618.5" y2="92.9998" stroke="#62F2A6" stroke-width="3"/>
<line x1="618.5" y1="69.6665" x2="618.5" y2="92.9998" stroke="#C6344A" stroke-width="3"/>
<line x1="599.833" y1="69.6665" x2="599.833" y2="92.9998" stroke="#62F2A6" stroke-width="3"/>
<line x1="599.833" y1="93" x2="599.833" y2="116.333" stroke="#EFE123" stroke-width="3"/>
<line x1="599.833" y1="69.6665" x2="599.833" y2="92.9998" stroke="#62F2A6" stroke-width="3"/>
<line x1="599.833" y1="69.6665" x2="599.833" y2="92.9998" stroke="#62F2A6" stroke-width="3"/>
<line x1="599.833" y1="93" x2="599.833" y2="116.333" stroke="#EFE123" stroke-width="3"/>
<line x1="599.833" y1="69.6665" x2="599.833" y2="92.9998" stroke="#62F2A6" stroke-width="3"/>
<line x1="599.833" y1="69.6665" x2="599.833" y2="92.9998" stroke="#62F2A6" stroke-width="3"/>
<line x1="599.833" y1="69.6665" x2="599.833" y2="92.9998" stroke="#62F2A6" stroke-width="3"/>
<line x1="590.5" y1="69.6665" x2="590.5" y2="92.9998" stroke="#62F2A6" stroke-width="3"/>
<line x1="590.5" y1="93" x2="590.5" y2="116.333" stroke="#EFE123" stroke-width="3"/>
<line x1="590.5" y1="69.6665" x2="590.5" y2="92.9998" stroke="#62F2A6" stroke-width="3"/>
<line x1="590.5" y1="69.6665" x2="590.5" y2="92.9998" stroke="#62F2A6" stroke-width="3"/>
<line x1="590.5" y1="93" x2="590.5" y2="116.333" stroke="#E8A62F" stroke-width="3"/>
<line x1="590.5" y1="69.6665" x2="590.5" y2="92.9998" stroke="#62F2A6" stroke-width="3"/>
<line x1="590.5" y1="69.6665" x2="590.5" y2="92.9998" stroke="#62F2A6" stroke-width="3"/>
<line x1="590.5" y1="69.6665" x2="590.5" y2="92.9998" stroke="#C6344A" stroke-width="3"/>
<line x1="581.167" y1="69.6665" x2="581.167" y2="92.9998" stroke="#62F2A6" stroke-width="3"/>
<line x1="581.167" y1="93" x2="581.167" y2="116.333" stroke="#EFE123" stroke-width="3"/>
<line x1="581.167" y1="69.6665" x2="581.167" y2="92.9998" stroke="#62F2A6" stroke-width="3"/>
<line x1="581.167" y1="69.6665" x2="581.167" y2="92.9998" stroke="#62F2A6" stroke-width="3"/>
<line x1="581.167" y1="93" x2="581.167" y2="116.333" stroke="#61ECA1" stroke-width="3"/>
<line x1="581.167" y1="69.6665" x2="581.167" y2="92.9998" stroke="#62F2A6" stroke-width="3"/>
<line x1="581.167" y1="69.6665" x2="581.167" y2="92.9998" stroke="#62F2A6" stroke-width="3"/>
<line x1="581.167" y1="69.6665" x2="581.167" y2="92.9998" stroke="#EDDE22" stroke-width="3"/>
<line x1="609.167" y1="69.6665" x2="609.167" y2="92.9998" stroke="#E8A62F" stroke-width="3"/>
<line x1="609.167" y1="93" x2="609.167" y2="116.333" stroke="#C6344A" stroke-width="3"/>
<line x1="571.833" y1="69.6665" x2="571.833" y2="92.9998" stroke="#62F2A6" stroke-width="3"/>
<line x1="571.833" y1="93" x2="571.833" y2="116.333" stroke="#EFE123" stroke-width="3"/>
<line x1="571.833" y1="69.6665" x2="571.833" y2="92.9998" stroke="#62F2A6" stroke-width="3"/>
<line x1="571.833" y1="69.6665" x2="571.833" y2="92.9998" stroke="#62F2A6" stroke-width="3"/>
<line x1="571.833" y1="93" x2="571.833" y2="116.333" stroke="#C6344A" stroke-width="3"/>
<line x1="571.833" y1="69.6665" x2="571.833" y2="92.9998" stroke="#62F2A6" stroke-width="3"/>
<line x1="571.833" y1="69.6665" x2="571.833" y2="92.9998" stroke="#62F2A6" stroke-width="3"/>
<line x1="571.833" y1="69.6665" x2="571.833" y2="92.9998" stroke="#E8A62F" stroke-width="3"/>
<line x1="553.167" y1="69.6665" x2="553.167" y2="92.9998" stroke="#62F2A6" stroke-width="3"/>
<line x1="553.167" y1="93" x2="553.167" y2="116.333" stroke="#EFE123" stroke-width="3"/>
<line x1="553.167" y1="69.6665" x2="553.167" y2="92.9998" stroke="#62F2A6" stroke-width="3"/>
<line x1="553.167" y1="69.6665" x2="553.167" y2="92.9998" stroke="#62F2A6" stroke-width="3"/>
<line x1="553.167" y1="93" x2="553.167" y2="116.333" stroke="#EFE123" stroke-width="3"/>
<line x1="553.167" y1="69.6665" x2="553.167" y2="92.9998" stroke="#62F2A6" stroke-width="3"/>
<line x1="553.167" y1="69.6665" x2="553.167" y2="92.9998" stroke="#62F2A6" stroke-width="3"/>
<line x1="553.167" y1="69.6665" x2="553.167" y2="92.9998" stroke="#62F2A6" stroke-width="3"/>
<line x1="543.833" y1="69.6665" x2="543.833" y2="92.9998" stroke="#62F2A6" stroke-width="3"/>
<line x1="543.833" y1="93" x2="543.833" y2="116.333" stroke="#E8A62F" stroke-width="3"/>
<line x1="543.833" y1="69.6665" x2="543.833" y2="92.9998" stroke="#62F2A6" stroke-width="3"/>
<line x1="543.833" y1="69.6665" x2="543.833" y2="92.9998" stroke="#62F2A6" stroke-width="3"/>
<line x1="543.833" y1="69.6665" x2="543.833" y2="92.9998" stroke="#62F2A6" stroke-width="3"/>
<line x1="543.833" y1="69.6665" x2="543.833" y2="92.9998" stroke="#62F2A6" stroke-width="3"/>
<line x1="543.833" y1="69.6665" x2="543.833" y2="92.9998" stroke="#C6344A" stroke-width="3"/>
<line x1="534.5" y1="69.6665" x2="534.5" y2="92.9998" stroke="#62F2A6" stroke-width="3"/>
<line x1="534.5" y1="93" x2="534.5" y2="116.333" stroke="#EFE123" stroke-width="3"/>
<line x1="534.5" y1="69.6665" x2="534.5" y2="92.9998" stroke="#62F2A6" stroke-width="3"/>
<line x1="534.5" y1="69.6665" x2="534.5" y2="92.9998" stroke="#62F2A6" stroke-width="3"/>
<line x1="534.5" y1="93" x2="534.5" y2="116.333" stroke="#E8A62F" stroke-width="3"/>
<line x1="534.5" y1="69.6665" x2="534.5" y2="92.9998" stroke="#62F2A6" stroke-width="3"/>
<line x1="534.5" y1="69.6665" x2="534.5" y2="92.9998" stroke="#62F2A6" stroke-width="3"/>
<line x1="534.5" y1="69.6665" x2="534.5" y2="92.9998" stroke="#C6344A" stroke-width="3"/>
<line x1="562.5" y1="69.6665" x2="562.5" y2="92.9998" stroke="#62F2A6" stroke-width="3"/>
<line x1="562.5" y1="93" x2="562.5" y2="116.333" stroke="#EFE123" stroke-width="3"/>
<line x1="525.167" y1="69.6665" x2="525.167" y2="92.9998" stroke="#62F2A6" stroke-width="3"/>
<line x1="525.167" y1="93" x2="525.167" y2="116.333" stroke="#EFE123" stroke-width="3"/>
<line x1="525.167" y1="69.6665" x2="525.167" y2="92.9998" stroke="#62F2A6" stroke-width="3"/>
<line x1="525.167" y1="69.6665" x2="525.167" y2="92.9998" stroke="#62F2A6" stroke-width="3"/>
<line x1="525.167" y1="93" x2="525.167" y2="116.333" stroke="#EFE123" stroke-width="3"/>
<line x1="525.167" y1="69.6665" x2="525.167" y2="92.9998" stroke="#62F2A6" stroke-width="3"/>
<line x1="525.167" y1="69.6665" x2="525.167" y2="92.9998" stroke="#62F2A6" stroke-width="3"/>
<line x1="506.5" y1="69.6665" x2="506.5" y2="92.9998" stroke="#62F2A6" stroke-width="3"/>
<line x1="506.5" y1="93" x2="506.5" y2="116.333" stroke="#EFE123" stroke-width="3"/>
<line x1="506.5" y1="69.6665" x2="506.5" y2="92.9998" stroke="#62F2A6" stroke-width="3"/>
<line x1="506.5" y1="69.6665" x2="506.5" y2="92.9998" stroke="#62F2A6" stroke-width="3"/>
<line x1="506.5" y1="93" x2="506.5" y2="116.333" stroke="#EFE123" stroke-width="3"/>
<line x1="506.5" y1="69.6665" x2="506.5" y2="92.9998" stroke="#62F2A6" stroke-width="3"/>
<line x1="506.5" y1="69.6665" x2="506.5" y2="92.9998" stroke="#62F2A6" stroke-width="3"/>
<line x1="506.5" y1="69.6665" x2="506.5" y2="92.9998" stroke="#62F2A6" stroke-width="3"/>
<line x1="497.167" y1="69.6665" x2="497.167" y2="92.9998" stroke="#62F2A6" stroke-width="3"/>
<line x1="497.167" y1="93" x2="497.167" y2="116.333" stroke="#EFE123" stroke-width="3"/>
<line x1="497.167" y1="69.6665" x2="497.167" y2="92.9998" stroke="#62F2A6" stroke-width="3"/>
<line x1="497.167" y1="69.6665" x2="497.167" y2="92.9998" stroke="#62F2A6" stroke-width="3"/>
<line x1="497.167" y1="93" x2="497.167" y2="116.333" stroke="#C6344A" stroke-width="3"/>
<line x1="497.167" y1="69.6665" x2="497.167" y2="92.9998" stroke="#62F2A6" stroke-width="3"/>
<line x1="497.167" y1="69.6665" x2="497.167" y2="92.9998" stroke="#62F2A6" stroke-width="3"/>
<line x1="497.167" y1="69.6665" x2="497.167" y2="92.9998" stroke="#E8A62F" stroke-width="3"/>
<line x1="487.833" y1="69.6665" x2="487.833" y2="92.9998" stroke="#62F2A6" stroke-width="3"/>
<line x1="487.833" y1="93" x2="487.833" y2="116.333" stroke="#EFE123" stroke-width="3"/>
<line x1="487.833" y1="69.6665" x2="487.833" y2="92.9998" stroke="#62F2A6" stroke-width="3"/>
<line x1="487.833" y1="69.6665" x2="487.833" y2="92.9998" stroke="#62F2A6" stroke-width="3"/>
<line x1="487.833" y1="93" x2="487.833" y2="116.333" stroke="#C6344A" stroke-width="3"/>
<line x1="487.833" y1="69.6665" x2="487.833" y2="92.9998" stroke="#62F2A6" stroke-width="3"/>
<line x1="487.833" y1="69.6665" x2="487.833" y2="92.9998" stroke="#62F2A6" stroke-width="3"/>
<line x1="487.833" y1="69.6665" x2="487.833" y2="92.9998" stroke="#E8A62F" stroke-width="3"/>
<line x1="515.833" y1="69.6665" x2="515.833" y2="92.9998" stroke="#62F2A6" stroke-width="3"/>
<line x1="515.833" y1="93" x2="515.833" y2="116.333" stroke="#EFE123" stroke-width="3"/>
<line x1="478.5" y1="69.6665" x2="478.5" y2="92.9998" stroke="#62F2A6" stroke-width="3"/>
<line x1="478.5" y1="93" x2="478.5" y2="116.333" stroke="#EFE123" stroke-width="3"/>
<line x1="478.5" y1="69.6665" x2="478.5" y2="92.9998" stroke="#62F2A6" stroke-width="3"/>
<line x1="478.5" y1="69.6665" x2="478.5" y2="92.9998" stroke="#62F2A6" stroke-width="3"/>
<line x1="478.5" y1="93" x2="478.5" y2="116.333" stroke="#EFE123" stroke-width="3"/>
<line x1="478.5" y1="69.6665" x2="478.5" y2="92.9998" stroke="#62F2A6" stroke-width="3"/>
<line x1="478.5" y1="69.6665" x2="478.5" y2="92.9998" stroke="#62F2A6" stroke-width="3"/>
<line x1="478.5" y1="69.6665" x2="478.5" y2="92.9998" stroke="#62F2A6" stroke-width="3"/>
<line x1="459.833" y1="69.6665" x2="459.833" y2="92.9998" stroke="#62F2A6" stroke-width="3"/>
<line x1="459.833" y1="93" x2="459.833" y2="116.333" stroke="#EFE123" stroke-width="3"/>
<line x1="459.833" y1="69.6665" x2="459.833" y2="92.9998" stroke="#62F2A6" stroke-width="3"/>
<line x1="459.833" y1="69.6665" x2="459.833" y2="92.9998" stroke="#62F2A6" stroke-width="3"/>
<line x1="459.833" y1="93" x2="459.833" y2="116.333" stroke="#E8A62F" stroke-width="3"/>
<line x1="459.833" y1="69.6665" x2="459.833" y2="92.9998" stroke="#62F2A6" stroke-width="3"/>
<line x1="459.833" y1="69.6665" x2="459.833" y2="92.9998" stroke="#62F2A6" stroke-width="3"/>
<line x1="459.833" y1="69.6665" x2="459.833" y2="92.9998" stroke="#C6344A" stroke-width="3"/>
<line x1="450.5" y1="69.6665" x2="450.5" y2="92.9998" stroke="#62F2A6" stroke-width="3"/>
<line x1="450.5" y1="93" x2="450.5" y2="116.333" stroke="#EFE123" stroke-width="3"/>
<line x1="450.5" y1="69.6665" x2="450.5" y2="92.9998" stroke="#62F2A6" stroke-width="3"/>
<line x1="450.5" y1="69.6665" x2="450.5" y2="92.9998" stroke="#62F2A6" stroke-width="3"/>
<line x1="450.5" y1="69.6665" x2="450.5" y2="92.9998" stroke="#62F2A6" stroke-width="3"/>
<line x1="450.5" y1="69.6665" x2="450.5" y2="92.9998" stroke="#62F2A6" stroke-width="3"/>
<line x1="450.5" y1="69.6665" x2="450.5" y2="92.9998" stroke="#62F2A6" stroke-width="3"/>
<line x1="441.167" y1="69.6665" x2="441.167" y2="92.9998" stroke="#62F2A6" stroke-width="3"/>
<line x1="441.167" y1="93" x2="441.167" y2="116.333" stroke="#EFE123" stroke-width="3"/>
<line x1="441.167" y1="69.6665" x2="441.167" y2="92.9998" stroke="#62F2A6" stroke-width="3"/>
<line x1="441.167" y1="69.6665" x2="441.167" y2="92.9998" stroke="#62F2A6" stroke-width="3"/>
<line x1="441.167" y1="93" x2="441.167" y2="116.333" stroke="#E8A62F" stroke-width="3"/>
<line x1="441.167" y1="69.6665" x2="441.167" y2="92.9998" stroke="#62F2A6" stroke-width="3"/>
<line x1="441.167" y1="69.6665" x2="441.167" y2="92.9998" stroke="#62F2A6" stroke-width="3"/>
<line x1="441.167" y1="69.6665" x2="441.167" y2="92.9998" stroke="#C6344A" stroke-width="3"/>
<line x1="469.167" y1="69.6665" x2="469.167" y2="92.9998" stroke="#E8A62F" stroke-width="3"/>
<line x1="469.167" y1="93" x2="469.167" y2="116.333" stroke="#C6344A" stroke-width="3"/>
<line x1="431.833" y1="69.6665" x2="431.833" y2="92.9998" stroke="#62F2A6" stroke-width="3"/>
<line x1="431.833" y1="93" x2="431.833" y2="116.333" stroke="#EFE123" stroke-width="3"/>
<line x1="431.833" y1="69.6665" x2="431.833" y2="92.9998" stroke="#62F2A6" stroke-width="3"/>
<line x1="431.833" y1="69.6665" x2="431.833" y2="92.9998" stroke="#62F2A6" stroke-width="3"/>
<line x1="431.833" y1="93" x2="431.833" y2="116.333" stroke="#C6344A" stroke-width="3"/>
<line x1="431.833" y1="69.6665" x2="431.833" y2="92.9998" stroke="#62F2A6" stroke-width="3"/>
<line x1="431.833" y1="69.6665" x2="431.833" y2="92.9998" stroke="#E8A62F" stroke-width="3"/>
<line x1="413.167" y1="69.6665" x2="413.167" y2="92.9998" stroke="#62F2A6" stroke-width="3"/>
<line x1="413.167" y1="93" x2="413.167" y2="116.333" stroke="#EFE123" stroke-width="3"/>
<line x1="413.167" y1="69.6665" x2="413.167" y2="92.9998" stroke="#62F2A6" stroke-width="3"/>
<line x1="413.167" y1="69.6665" x2="413.167" y2="92.9998" stroke="#62F2A6" stroke-width="3"/>
<line x1="413.167" y1="93" x2="413.167" y2="116.333" stroke="#EFE123" stroke-width="3"/>
<line x1="413.167" y1="69.6665" x2="413.167" y2="92.9998" stroke="#62F2A6" stroke-width="3"/>
<line x1="413.167" y1="69.6665" x2="413.167" y2="92.9998" stroke="#62F2A6" stroke-width="3"/>
<line x1="413.167" y1="69.6665" x2="413.167" y2="92.9998" stroke="#62F2A6" stroke-width="3"/>
<line x1="403.833" y1="69.6665" x2="403.833" y2="92.9998" stroke="#62F2A6" stroke-width="3"/>
<line x1="403.833" y1="93" x2="403.833" y2="116.333" stroke="#EFE123" stroke-width="3"/>
<line x1="403.833" y1="69.6665" x2="403.833" y2="92.9998" stroke="#62F2A6" stroke-width="3"/>
<line x1="403.833" y1="69.6665" x2="403.833" y2="92.9998" stroke="#62F2A6" stroke-width="3"/>
<line x1="403.833" y1="93" x2="403.833" y2="116.333" stroke="#C6344A" stroke-width="3"/>
<line x1="403.833" y1="69.6665" x2="403.833" y2="92.9998" stroke="#62F2A6" stroke-width="3"/>
<line x1="403.833" y1="69.6665" x2="403.833" y2="92.9998" stroke="#62F2A6" stroke-width="3"/>
<line x1="403.833" y1="69.6665" x2="403.833" y2="92.9998" stroke="#E8A62F" stroke-width="3"/>
<line x1="394.5" y1="69.6665" x2="394.5" y2="92.9998" stroke="#62F2A6" stroke-width="3"/>
<line x1="394.5" y1="93" x2="394.5" y2="116.333" stroke="#EFE123" stroke-width="3"/>
<line x1="394.5" y1="69.6665" x2="394.5" y2="92.9998" stroke="#62F2A6" stroke-width="3"/>
<line x1="394.5" y1="69.6665" x2="394.5" y2="92.9998" stroke="#62F2A6" stroke-width="3"/>
<line x1="394.5" y1="93" x2="394.5" y2="116.333" stroke="#C6344A" stroke-width="3"/>
<line x1="394.5" y1="69.6665" x2="394.5" y2="92.9998" stroke="#62F2A6" stroke-width="3"/>
<line x1="394.5" y1="69.6665" x2="394.5" y2="92.9998" stroke="#62F2A6" stroke-width="3"/>
<line x1="394.5" y1="69.6665" x2="394.5" y2="92.9998" stroke="#E8A62F" stroke-width="3"/>
<line x1="422.5" y1="69.6665" x2="422.5" y2="92.9998" stroke="#62F2A6" stroke-width="3"/>
<line x1="422.5" y1="93" x2="422.5" y2="116.333" stroke="#EFE123" stroke-width="3"/>
<line x1="385.167" y1="69.6665" x2="385.167" y2="92.9998" stroke="#62F2A6" stroke-width="3"/>
<line x1="385.167" y1="93" x2="385.167" y2="116.333" stroke="#EFE123" stroke-width="3"/>
<line x1="385.167" y1="69.6665" x2="385.167" y2="92.9998" stroke="#62F2A6" stroke-width="3"/>
<line x1="385.167" y1="69.6665" x2="385.167" y2="92.9998" stroke="#62F2A6" stroke-width="3"/>
<line x1="385.167" y1="93" x2="385.167" y2="116.333" stroke="#61ECA1" stroke-width="3"/>
<line x1="385.167" y1="69.6665" x2="385.167" y2="92.9998" stroke="#62F2A6" stroke-width="3"/>
<line x1="385.167" y1="69.6665" x2="385.167" y2="92.9998" stroke="#62F2A6" stroke-width="3"/>
<line x1="385.167" y1="69.6665" x2="385.167" y2="92.9998" stroke="#EDDE22" stroke-width="3"/>
<line x1="366.5" y1="69.6665" x2="366.5" y2="92.9998" stroke="#62F2A6" stroke-width="3"/>
<line x1="366.5" y1="93" x2="366.5" y2="116.333" stroke="#EFE123" stroke-width="3"/>
<line x1="366.5" y1="69.6665" x2="366.5" y2="92.9998" stroke="#62F2A6" stroke-width="3"/>
<line x1="366.5" y1="69.6665" x2="366.5" y2="92.9998" stroke="#62F2A6" stroke-width="3"/>
<line x1="366.5" y1="93" x2="366.5" y2="116.333" stroke="#EFE123" stroke-width="3"/>
<line x1="366.5" y1="69.6665" x2="366.5" y2="92.9998" stroke="#62F2A6" stroke-width="3"/>
<line x1="366.5" y1="69.6665" x2="366.5" y2="92.9998" stroke="#62F2A6" stroke-width="3"/>
<line x1="366.5" y1="69.6665" x2="366.5" y2="92.9998" stroke="#62F2A6" stroke-width="3"/>
<line x1="357.167" y1="69.6665" x2="357.167" y2="92.9998" stroke="#62F2A6" stroke-width="3"/>
<line x1="357.167" y1="93" x2="357.167" y2="116.333" stroke="#E8A62F" stroke-width="3"/>
<line x1="357.167" y1="69.6665" x2="357.167" y2="92.9998" stroke="#62F2A6" stroke-width="3"/>
<line x1="357.167" y1="69.6665" x2="357.167" y2="92.9998" stroke="#62F2A6" stroke-width="3"/>
<line x1="357.167" y1="69.6665" x2="357.167" y2="92.9998" stroke="#62F2A6" stroke-width="3"/>
<line x1="357.167" y1="69.6665" x2="357.167" y2="92.9998" stroke="#62F2A6" stroke-width="3"/>
<line x1="357.167" y1="69.6665" x2="357.167" y2="92.9998" stroke="#C6344A" stroke-width="3"/>
<line x1="347.833" y1="69.6665" x2="347.833" y2="92.9998" stroke="#62F2A6" stroke-width="3"/>
<line x1="347.833" y1="93" x2="347.833" y2="116.333" stroke="#EFE123" stroke-width="3"/>
<line x1="347.833" y1="69.6665" x2="347.833" y2="92.9998" stroke="#62F2A6" stroke-width="3"/>
<line x1="347.833" y1="69.6665" x2="347.833" y2="92.9998" stroke="#62F2A6" stroke-width="3"/>
<line x1="347.833" y1="93" x2="347.833" y2="116.333" stroke="#E8A62F" stroke-width="3"/>
<line x1="347.833" y1="69.6665" x2="347.833" y2="92.9998" stroke="#62F2A6" stroke-width="3"/>
<line x1="347.833" y1="69.6665" x2="347.833" y2="92.9998" stroke="#62F2A6" stroke-width="3"/>
<line x1="347.833" y1="69.6665" x2="347.833" y2="92.9998" stroke="#C6344A" stroke-width="3"/>
<line x1="375.833" y1="69.6665" x2="375.833" y2="92.9998" stroke="#62F2A6" stroke-width="3"/>
<line x1="375.833" y1="93" x2="375.833" y2="116.333" stroke="#EFE123" stroke-width="3"/>
<line x1="338.5" y1="69.6665" x2="338.5" y2="92.9998" stroke="#62F2A6" stroke-width="3"/>
<line x1="338.5" y1="93" x2="338.5" y2="116.333" stroke="#EFE123" stroke-width="3"/>
<line x1="338.5" y1="69.6665" x2="338.5" y2="92.9998" stroke="#62F2A6" stroke-width="3"/>
<line x1="338.5" y1="69.6665" x2="338.5" y2="92.9998" stroke="#62F2A6" stroke-width="3"/>
<line x1="338.5" y1="93" x2="338.5" y2="116.333" stroke="#EFE123" stroke-width="3"/>
<line x1="338.5" y1="69.6665" x2="338.5" y2="92.9998" stroke="#62F2A6" stroke-width="3"/>
<line x1="338.5" y1="69.6665" x2="338.5" y2="92.9998" stroke="#62F2A6" stroke-width="3"/>
<line x1="319.833" y1="69.6665" x2="319.833" y2="92.9998" stroke="#62F2A6" stroke-width="3"/>
<line x1="319.833" y1="93" x2="319.833" y2="116.333" stroke="#EFE123" stroke-width="3"/>
<line x1="319.833" y1="69.6665" x2="319.833" y2="92.9998" stroke="#62F2A6" stroke-width="3"/>
<line x1="319.833" y1="69.6665" x2="319.833" y2="92.9998" stroke="#62F2A6" stroke-width="3"/>
<line x1="319.833" y1="93" x2="319.833" y2="116.333" stroke="#EFE123" stroke-width="3"/>
<line x1="319.833" y1="69.6665" x2="319.833" y2="92.9998" stroke="#62F2A6" stroke-width="3"/>
<line x1="319.833" y1="69.6665" x2="319.833" y2="92.9998" stroke="#62F2A6" stroke-width="3"/>
<line x1="319.833" y1="69.6665" x2="319.833" y2="92.9998" stroke="#62F2A6" stroke-width="3"/>
<line x1="310.5" y1="69.6665" x2="310.5" y2="92.9998" stroke="#62F2A6" stroke-width="3"/>
<line x1="310.5" y1="93" x2="310.5" y2="116.333" stroke="#EFE123" stroke-width="3"/>
<line x1="310.5" y1="69.6665" x2="310.5" y2="92.9998" stroke="#62F2A6" stroke-width="3"/>
<line x1="310.5" y1="69.6665" x2="310.5" y2="92.9998" stroke="#62F2A6" stroke-width="3"/>
<line x1="310.5" y1="93" x2="310.5" y2="116.333" stroke="#C6344A" stroke-width="3"/>
<line x1="310.5" y1="69.6665" x2="310.5" y2="92.9998" stroke="#62F2A6" stroke-width="3"/>
<line x1="310.5" y1="69.6665" x2="310.5" y2="92.9998" stroke="#62F2A6" stroke-width="3"/>
<line x1="310.5" y1="69.6665" x2="310.5" y2="92.9998" stroke="#E8A62F" stroke-width="3"/>
<line x1="301.167" y1="69.6665" x2="301.167" y2="92.9998" stroke="#62F2A6" stroke-width="3"/>
<line x1="301.167" y1="93" x2="301.167" y2="116.333" stroke="#EFE123" stroke-width="3"/>
<line x1="301.167" y1="69.6665" x2="301.167" y2="92.9998" stroke="#62F2A6" stroke-width="3"/>
<line x1="301.167" y1="69.6665" x2="301.167" y2="92.9998" stroke="#62F2A6" stroke-width="3"/>
<line x1="301.167" y1="93" x2="301.167" y2="116.333" stroke="#EFE123" stroke-width="3"/>
<line x1="301.167" y1="69.6665" x2="301.167" y2="92.9998" stroke="#62F2A6" stroke-width="3"/>
<line x1="301.167" y1="69.6665" x2="301.167" y2="92.9998" stroke="#62F2A6" stroke-width="3"/>
<line x1="301.167" y1="69.6665" x2="301.167" y2="92.9998" stroke="#62F2A6" stroke-width="3"/>
<line x1="329.167" y1="69.6665" x2="329.167" y2="92.9998" stroke="#EDDE22" stroke-width="3"/>
<line x1="329.167" y1="93" x2="329.167" y2="116.333" stroke="#61ECA1" stroke-width="3"/>
<line x1="291.833" y1="69.6665" x2="291.833" y2="92.9998" stroke="#62F2A6" stroke-width="3"/>
<line x1="291.833" y1="93" x2="291.833" y2="116.333" stroke="#EFE123" stroke-width="3"/>
<line x1="291.833" y1="69.6665" x2="291.833" y2="92.9998" stroke="#62F2A6" stroke-width="3"/>
<line x1="291.833" y1="69.6665" x2="291.833" y2="92.9998" stroke="#62F2A6" stroke-width="3"/>
<line x1="291.833" y1="93" x2="291.833" y2="116.333" stroke="#E8A62F" stroke-width="3"/>
<line x1="291.833" y1="69.6665" x2="291.833" y2="92.9998" stroke="#62F2A6" stroke-width="3"/>
<line x1="291.833" y1="69.6665" x2="291.833" y2="92.9998" stroke="#62F2A6" stroke-width="3"/>
<line x1="291.833" y1="69.6665" x2="291.833" y2="92.9998" stroke="#C6344A" stroke-width="3"/>
<line x1="282.5" y1="69.6665" x2="282.5" y2="92.9998" stroke="#62F2A6" stroke-width="3"/>
<line x1="273.167" y1="66.3333" x2="273.167" y2="89.6666" stroke="#EDDE22" stroke-width="3"/>
<line x1="263.833" y1="54.3333" x2="263.833" y2="77.6666" stroke="#62F2A6" stroke-width="3"/>
<line x1="254.5" y1="42.3333" x2="254.5" y2="65.6666" stroke="#C6344A" stroke-width="3"/>
<line x1="245.167" y1="33" x2="245.167" y2="56.3333" stroke="#E8A62F" stroke-width="3"/>
<path d="M234.333 22.9961L234.333 49.6628" stroke="#C6344A" stroke-width="3"/>
<line x1="222.5" y1="25" x2="222.5" y2="48.3333" stroke="#62F2A6" stroke-width="3"/>
<line x1="213.167" y1="25" x2="213.167" y2="48.3333" stroke="#EDDE22" stroke-width="3"/>
<line x1="203.833" y1="25" x2="203.833" y2="48.3333" stroke="#62F2A6" stroke-width="3"/>
<line x1="282.5" y1="93" x2="282.5" y2="116.333" stroke="#EFE123" stroke-width="3"/>
<line x1="194.5" y1="25" x2="194.5" y2="48.3333" stroke="#62F2A6" stroke-width="3"/>
<line x1="185.167" y1="25" x2="185.167" y2="48.3333" stroke="#E8A62F" stroke-width="3"/>
<line x1="175.833" y1="25" x2="175.833" y2="48.3333" stroke="#62F2A6" stroke-width="3"/>
<line x1="166.5" y1="25" x2="166.5" y2="48.3333" stroke="#EDDE22" stroke-width="3"/>
<line x1="715" y1="64.875" x2="274.999" y2="64.875" stroke="#79CCDB" stroke-width="10"/>
<line x1="715" y1="121.083" x2="274.333" y2="121.083" stroke="#79CCDB" stroke-width="10"/>
<line x1="119.833" y1="25" x2="119.833" y2="48.3333" stroke="#62F2A6" stroke-width="3"/>
<line x1="110.5" y1="25" x2="110.5" y2="48.3333" stroke="#62F2A6" stroke-width="3"/>
<line x1="101.167" y1="25" x2="101.167" y2="48.3333" stroke="#EDDE22" stroke-width="3"/>
<line x1="91.8333" y1="25" x2="91.8333" y2="48.3333" stroke="#EDDE22" stroke-width="3"/>
<line x1="82.5" y1="25" x2="82.5" y2="48.3333" stroke="#62F2A6" stroke-width="3"/>
<line x1="73.1667" y1="25" x2="73.1667" y2="48.3333" stroke="#EDDE22" stroke-width="3"/>
<line x1="63.8333" y1="25" x2="63.8333" y2="48.3333" stroke="#62F2A6" stroke-width="3"/>
<line x1="54.5" y1="25" x2="54.5" y2="48.3333" stroke="#E8A62F" stroke-width="3"/>
<line x1="35.8333" y1="137.667" x2="35.8333" y2="161" stroke="#E8A62F" stroke-width="3"/>
<line x1="26.5" y1="137.667" x2="26.5" y2="161" stroke="#EDDE22" stroke-width="3"/>
<line x1="45.1667" y1="25" x2="45.1667" y2="48.3333" stroke="#62F2A6" stroke-width="3"/>
<line x1="35.8333" y1="25" x2="35.8333" y2="48.3333" stroke="#C6344A" stroke-width="3"/>
<line x1="26.5" y1="25" x2="26.5" y2="48.3333" stroke="#62F2A6" stroke-width="3"/>
<line x1="157.167" y1="25" x2="157.167" y2="48.3333" stroke="#C6344A" stroke-width="3"/>
<line x1="147.833" y1="25" x2="147.833" y2="48.3333" stroke="#C6344A" stroke-width="3"/>
<line x1="138.5" y1="25" x2="138.5" y2="48.3333" stroke="#E8A62F" stroke-width="3"/>
<line x1="129.167" y1="25" x2="129.167" y2="48.3333" stroke="#E8A62F" stroke-width="3"/>
<path d="M279.667 66.6667C279.667 66.6667 255.695 35.1609 249 29.3333C242.639 23.7969 238.539 22.0234 231.473 20.276C230.718 20.0893 229.94 20 229.163 20L25 20" stroke="#79CCDB" stroke-width="10"/>
<line y1="-1.5" x2="23.3333" y2="-1.5" transform="matrix(0 -1 -1 0 271.667 119.667)" stroke="#62F2A6" stroke-width="3"/>
<line y1="-1.5" x2="23.3333" y2="-1.5" transform="matrix(0 -1 -1 0 262.333 131.667)" stroke="#EDDE22" stroke-width="3"/>
<line y1="-1.5" x2="23.3333" y2="-1.5" transform="matrix(0 -1 -1 0 253 143.667)" stroke="#E8A62F" stroke-width="3"/>
<line y1="-1.5" x2="23.3333" y2="-1.5" transform="matrix(0 -1 -1 0 243.667 153)" stroke="#C6344A" stroke-width="3"/>
<path d="M234.333 163.004V136.337" stroke="#E8A62F" stroke-width="3"/>
<line y1="-1.5" x2="23.3333" y2="-1.5" transform="matrix(0 -1 -1 0 221 161)" stroke="#EDDE22" stroke-width="3"/>
<line y1="-1.5" x2="23.3333" y2="-1.5" transform="matrix(0 -1 -1 0 211.667 161)" stroke="#62F2A6" stroke-width="3"/>
<line y1="-1.5" x2="23.3333" y2="-1.5" transform="matrix(0 -1 -1 0 202.333 161)" stroke="#EDDE22" stroke-width="3"/>
<line y1="-1.5" x2="23.3333" y2="-1.5" transform="matrix(0 -1 -1 0 193 161)" stroke="#EDDE22" stroke-width="3"/>
<line y1="-1.5" x2="23.3333" y2="-1.5" transform="matrix(0 -1 -1 0 183.667 161)" stroke="#C6344A" stroke-width="3"/>
<line y1="-1.5" x2="23.3333" y2="-1.5" transform="matrix(0 -1 -1 0 174.333 161)" stroke="#EDDE22" stroke-width="3"/>
<line y1="-1.5" x2="23.3333" y2="-1.5" transform="matrix(0 -1 -1 0 165 161)" stroke="#62F2A6" stroke-width="3"/>
<line y1="-1.5" x2="23.3333" y2="-1.5" transform="matrix(0 -1 -1 0 118.333 161)" stroke="#EDDE22" stroke-width="3"/>
<line y1="-1.5" x2="23.3333" y2="-1.5" transform="matrix(0 -1 -1 0 109 161)" stroke="#EDDE22" stroke-width="3"/>
<line y1="-1.5" x2="23.3333" y2="-1.5" transform="matrix(0 -1 -1 0 99.6667 161)" stroke="#62F2A6" stroke-width="3"/>
<line y1="-1.5" x2="23.3333" y2="-1.5" transform="matrix(0 -1 -1 0 90.3333 161)" stroke="#62F2A6" stroke-width="3"/>
<line y1="-1.5" x2="23.3333" y2="-1.5" transform="matrix(0 -1 -1 0 81 161)" stroke="#EDDE22" stroke-width="3"/>
<line y1="-1.5" x2="23.3333" y2="-1.5" transform="matrix(0 -1 -1 0 71.6667 161)" stroke="#62F2A6" stroke-width="3"/>
<line y1="-1.5" x2="23.3333" y2="-1.5" transform="matrix(0 -1 -1 0 62.3333 161)" stroke="#EDDE22" stroke-width="3"/>
<line y1="-1.5" x2="23.3333" y2="-1.5" transform="matrix(0 -1 -1 0 53 161)" stroke="#C6344A" stroke-width="3"/>
<line y1="-1.5" x2="23.3333" y2="-1.5" transform="matrix(0 -1 -1 0 43.6667 161)" stroke="#EDDE22" stroke-width="3"/>
<line y1="-1.5" x2="23.3333" y2="-1.5" transform="matrix(0 -1 -1 0 155.667 161)" stroke="#E8A62F" stroke-width="3"/>
<line y1="-1.5" x2="23.3333" y2="-1.5" transform="matrix(0 -1 -1 0 146.333 161)" stroke="#E8A62F" stroke-width="3"/>
<line y1="-1.5" x2="23.3333" y2="-1.5" transform="matrix(0 -1 -1 0 137 161)" stroke="#C6344A" stroke-width="3"/>
<line y1="-1.5" x2="23.3333" y2="-1.5" transform="matrix(0 -1 -1 0 127.667 161)" stroke="#C6344A" stroke-width="3"/>
<path d="M279.667 119.333C279.667 119.333 255.695 150.839 249 156.667C242.639 162.203 238.539 163.977 231.473 165.724C230.718 165.911 229.94 166 229.163 166L25 166" stroke="#79CCDB" stroke-width="10"/>
</g>
<g filter="url(#filter7_d)">
<line x1="34" y1="72.3999" x2="112.5" y2="72.3999" stroke="white" stroke-width="2"/>
<line x1="45.3" y1="48" x2="45.3" y2="71.33" stroke="#EDDE22" stroke-width="3"/>
<line x1="54.5" y1="48" x2="54.5" y2="71.33" stroke="#C6344A" stroke-width="3"/>
<line x1="63.7" y1="48" x2="63.7" y2="71.33" stroke="#EDDE22" stroke-width="3"/>
<line x1="82.5" y1="48" x2="82.5" y2="71.33" stroke="#EDDE22" stroke-width="3"/>
<line x1="73.5" y1="48" x2="73.5" y2="71.33" stroke="#2E55B9" stroke-width="3"/>
<line x1="91.8" y1="48" x2="91.8" y2="71.33" stroke="#2E55B9" stroke-width="3"/>
<line x1="101.5" y1="48" x2="101.5" y2="71.33" stroke="#2E55B9" stroke-width="3"/>
<line x1="110.5" y1="48" x2="110.5" y2="71.33" stroke="#EDDE22" stroke-width="3"/>
<line x1="35.8" y1="48" x2="35.8" y2="71.33" stroke="#E8A62F" stroke-width="3"/>
</g>
<g filter="url(#filter8_d)">
<line x1="224.6" y1="113.7" x2="146.1" y2="113.7" stroke="white" stroke-width="2"/>
<line x1="213.1" y1="138" x2="213.1" y2="114.67" stroke="#EDDE22" stroke-width="3"/>
<line x1="204" y1="138" x2="204" y2="114.67" stroke="#2E55B9" stroke-width="3"/>
<line x1="194.6" y1="138" x2="194.6" y2="114.67" stroke="#2E55B9" stroke-width="3"/>
<line x1="175.91" y1="138" x2="175.91" y2="114.67" stroke="#2E55B9" stroke-width="3"/>
<line x1="185.2" y1="138" x2="185.2" y2="114.67" stroke="#E8A62F" stroke-width="3"/>
<line x1="166.5" y1="138" x2="166.5" y2="114.67" stroke="#EDDE22" stroke-width="3"/>
<line x1="157.1" y1="138" x2="157.1" y2="114.67" stroke="#C6344A" stroke-width="3"/>
<line x1="147.9" y1="138" x2="147.9" y2="114.67" stroke="#C6344A" stroke-width="3"/>
<line x1="222.5" y1="138" x2="222.5" y2="114.67" stroke="#2E55B9" stroke-width="3"/>
</g>
<g filter="url(#filter9_d)">
<path d="M45.4531 93.1875V81.7188H46.6094L46.7812 82.3438C47.0208 82.1302 47.349 81.9479 47.7656 81.7969C48.1823 81.6406 48.6146 81.5625 49.0625 81.5625C50.0885 81.5625 50.8672 81.8125 51.3984 82.3125C51.9349 82.8125 52.2031 83.4766 52.2031 84.3047V87.3125C52.2031 88.1667 51.9115 88.8568 51.3281 89.3828C50.7448 89.9089 49.9271 90.1719 48.875 90.1719C48.1458 90.1719 47.4948 90.026 46.9219 89.7344V93.1875H45.4531ZM46.9219 88.6016C47.4479 88.8984 48.0365 89.0469 48.6875 89.0469C49.3385 89.0469 49.8411 88.9089 50.1953 88.6328C50.5547 88.3568 50.7344 87.9688 50.7344 87.4688V84.1875C50.7344 83.7083 50.5573 83.3385 50.2031 83.0781C49.8542 82.8177 49.4245 82.6875 48.9141 82.6875C48.4089 82.6875 47.9766 82.7917 47.6172 83C47.263 83.2083 47.0312 83.3958 46.9219 83.5625V88.6016ZM54.8125 90V81.7188H56.2812V82.8906C56.4688 82.3802 56.9766 82.0104 57.8047 81.7812C58.237 81.6562 58.6875 81.5964 59.1562 81.6016L59.1094 82.8594C58.401 82.8594 57.7526 83 57.1641 83.2812C56.5755 83.5625 56.2812 83.8698 56.2812 84.2031V90H54.8125ZM63.2422 90.1719C62.4036 90.1719 61.7526 89.9453 61.2891 89.4922C60.8255 89.0339 60.5938 88.4661 60.5938 87.7891C60.5938 87.4036 60.6745 87.0833 60.8359 86.8281C61.1641 86.3073 62.1432 85.8099 63.7734 85.3359C64.7161 85.0755 65.2578 84.8516 65.3984 84.6641C65.5443 84.4766 65.625 84.3307 65.6406 84.2266C65.6562 84.1172 65.6641 83.9453 65.6641 83.7109C65.6641 83.4766 65.5677 83.2474 65.375 83.0234C65.1875 82.7995 64.776 82.6875 64.1406 82.6875C63.2448 82.6875 62.6953 82.8594 62.4922 83.2031C62.388 83.3802 62.3359 83.6198 62.3359 83.9219V84.2891H60.9219V83.9141C60.9219 83.1068 61.1901 82.513 61.7266 82.1328C62.2682 81.7526 63.0755 81.5625 64.1484 81.5625C65.2214 81.5625 65.987 81.8073 66.4453 82.2969C66.9036 82.7812 67.1328 83.474 67.1328 84.375V87.9062C67.1328 88.3385 67.1875 88.6198 67.2969 88.75C67.4062 88.875 67.6406 88.9375 68 88.9375L67.8281 90.0625H67.5312C67.0104 90.0625 66.6224 89.9635 66.3672 89.7656C66.112 89.5625 65.9167 89.25 65.7812 88.8281C65.349 89.474 64.8281 89.8802 64.2188 90.0469C63.9271 90.1302 63.6016 90.1719 63.2422 90.1719ZM63.9766 86.3438C63.237 86.5573 62.724 86.7708 62.4375 86.9844C62.1562 87.1979 62.0156 87.5 62.0156 87.8906C62.0156 88.276 62.1458 88.5677 62.4062 88.7656C62.6719 88.9635 62.9896 89.0625 63.3594 89.0625C63.7344 89.0625 64.0729 89.0156 64.375 88.9219C64.6771 88.8229 64.9479 88.6797 65.1875 88.4922C65.4323 88.2995 65.5911 88.0807 65.6641 87.8359V85.4453C65.2839 85.8255 64.7214 86.125 63.9766 86.3438ZM68.9688 92.7578L68.8203 91.5391H69.0469C69.5781 91.5391 69.9323 91.4688 70.1094 91.3281C70.2865 91.1927 70.401 91.0234 70.4531 90.8203C70.5052 90.6224 70.5312 90.3594 70.5312 90.0312V81.7188H72V89.9453C72 91.3047 71.6875 92.1458 71.0625 92.4688C70.6927 92.6615 70.1667 92.7578 69.4844 92.7578H68.9688ZM70.5312 80.2266V78.7031H72V80.2266H70.5312ZM80.0156 83.8984C80.0156 83.0911 79.4193 82.6875 78.2266 82.6875C77.6224 82.6875 77.1562 82.8177 76.8281 83.0781C76.5052 83.3333 76.3438 83.6745 76.3438 84.1016V90H74.875V81.7188H76.3438V82.5234C76.8958 81.8828 77.724 81.5625 78.8281 81.5625C79.9375 81.5625 80.7109 81.9245 81.1484 82.6484L81.3438 82.4609C81.9427 81.862 82.7812 81.5625 83.8594 81.5625C85.25 81.5625 86.1094 82.0573 86.4375 83.0469C86.5312 83.3281 86.5781 83.6406 86.5781 83.9844V90H85.1094V83.8984C85.1094 83.0911 84.5677 82.6875 83.4844 82.6875C82.8021 82.6875 82.2969 82.8177 81.9688 83.0781C81.6458 83.3333 81.4844 83.6745 81.4844 84.1016V90H80.0156V83.8984ZM92.5547 90.1719C91.3411 90.1719 90.4635 89.9193 89.9219 89.4141C89.3802 88.9089 89.1094 88.1302 89.1094 87.0781V84.1953C89.1094 83.3776 89.388 82.7344 89.9453 82.2656C90.5026 81.7969 91.3438 81.5625 92.4688 81.5625C93.599 81.5625 94.4375 81.7812 94.9844 82.2188C95.5365 82.651 95.8125 83.2708 95.8125 84.0781V86.0469H90.5781V87.2109C90.5781 87.8984 90.7161 88.3776 90.9922 88.6484C91.2682 88.9141 91.7656 89.0469 92.4844 89.0469C93.2031 89.0469 93.6094 89.0312 93.7031 89C93.7969 88.9688 93.8932 88.9323 93.9922 88.8906C94.0911 88.849 94.1589 88.7995 94.1953 88.7422C94.237 88.6849 94.2891 88.599 94.3516 88.4844C94.4193 88.3646 94.4688 88.1354 94.5 87.7969H95.7969C95.7448 88.2917 95.6562 88.6901 95.5312 88.9922C95.4115 89.2943 95.2188 89.5365 94.9531 89.7188C94.6927 89.8958 94.3776 90.0156 94.0078 90.0781C93.6432 90.1406 93.1589 90.1719 92.5547 90.1719ZM90.5781 85.0547H94.3906V83.9219C94.3906 83.4531 94.2292 83.1302 93.9062 82.9531C93.5885 82.776 93.1198 82.6875 92.5 82.6875C91.8802 82.6875 91.4036 82.7943 91.0703 83.0078C90.7422 83.2214 90.5781 83.5729 90.5781 84.0625V85.0547ZM98.4531 90V81.7188H99.9219V82.8906C100.109 82.3802 100.617 82.0104 101.445 81.7812C101.878 81.6562 102.328 81.5964 102.797 81.6016L102.75 82.8594C102.042 82.8594 101.393 83 100.805 83.2812C100.216 83.5625 99.9219 83.8698 99.9219 84.2031V90H98.4531Z" fill="white"/>
</g>
<g filter="url(#filter10_d)">
<path d="M156.453 109.188V97.7188H157.609L157.781 98.3438C158.021 98.1302 158.349 97.9479 158.766 97.7969C159.182 97.6406 159.615 97.5625 160.062 97.5625C161.089 97.5625 161.867 97.8125 162.398 98.3125C162.935 98.8125 163.203 99.4766 163.203 100.305V103.312C163.203 104.167 162.911 104.857 162.328 105.383C161.745 105.909 160.927 106.172 159.875 106.172C159.146 106.172 158.495 106.026 157.922 105.734V109.188H156.453ZM157.922 104.602C158.448 104.898 159.036 105.047 159.688 105.047C160.339 105.047 160.841 104.909 161.195 104.633C161.555 104.357 161.734 103.969 161.734 103.469V100.188C161.734 99.7083 161.557 99.3385 161.203 99.0781C160.854 98.8177 160.424 98.6875 159.914 98.6875C159.409 98.6875 158.977 98.7917 158.617 99C158.263 99.2083 158.031 99.3958 157.922 99.5625V104.602ZM165.812 106V97.7188H167.281V98.8906C167.469 98.3802 167.977 98.0104 168.805 97.7812C169.237 97.6562 169.688 97.5964 170.156 97.6016L170.109 98.8594C169.401 98.8594 168.753 99 168.164 99.2812C167.576 99.5625 167.281 99.8698 167.281 100.203V106H165.812ZM174.242 106.172C173.404 106.172 172.753 105.945 172.289 105.492C171.826 105.034 171.594 104.466 171.594 103.789C171.594 103.404 171.674 103.083 171.836 102.828C172.164 102.307 173.143 101.81 174.773 101.336C175.716 101.076 176.258 100.852 176.398 100.664C176.544 100.477 176.625 100.331 176.641 100.227C176.656 100.117 176.664 99.9453 176.664 99.7109C176.664 99.4766 176.568 99.2474 176.375 99.0234C176.188 98.7995 175.776 98.6875 175.141 98.6875C174.245 98.6875 173.695 98.8594 173.492 99.2031C173.388 99.3802 173.336 99.6198 173.336 99.9219V100.289H171.922V99.9141C171.922 99.1068 172.19 98.513 172.727 98.1328C173.268 97.7526 174.076 97.5625 175.148 97.5625C176.221 97.5625 176.987 97.8073 177.445 98.2969C177.904 98.7812 178.133 99.474 178.133 100.375V103.906C178.133 104.339 178.188 104.62 178.297 104.75C178.406 104.875 178.641 104.938 179 104.938L178.828 106.062H178.531C178.01 106.062 177.622 105.964 177.367 105.766C177.112 105.562 176.917 105.25 176.781 104.828C176.349 105.474 175.828 105.88 175.219 106.047C174.927 106.13 174.602 106.172 174.242 106.172ZM174.977 102.344C174.237 102.557 173.724 102.771 173.438 102.984C173.156 103.198 173.016 103.5 173.016 103.891C173.016 104.276 173.146 104.568 173.406 104.766C173.672 104.964 173.99 105.062 174.359 105.062C174.734 105.062 175.073 105.016 175.375 104.922C175.677 104.823 175.948 104.68 176.188 104.492C176.432 104.299 176.591 104.081 176.664 103.836V101.445C176.284 101.826 175.721 102.125 174.977 102.344ZM179.969 108.758L179.82 107.539H180.047C180.578 107.539 180.932 107.469 181.109 107.328C181.286 107.193 181.401 107.023 181.453 106.82C181.505 106.622 181.531 106.359 181.531 106.031V97.7188H183V105.945C183 107.305 182.688 108.146 182.062 108.469C181.693 108.661 181.167 108.758 180.484 108.758H179.969ZM181.531 96.2266V94.7031H183V96.2266H181.531ZM191.016 99.8984C191.016 99.0911 190.419 98.6875 189.227 98.6875C188.622 98.6875 188.156 98.8177 187.828 99.0781C187.505 99.3333 187.344 99.6745 187.344 100.102V106H185.875V97.7188H187.344V98.5234C187.896 97.8828 188.724 97.5625 189.828 97.5625C190.938 97.5625 191.711 97.9245 192.148 98.6484L192.344 98.4609C192.943 97.862 193.781 97.5625 194.859 97.5625C196.25 97.5625 197.109 98.0573 197.438 99.0469C197.531 99.3281 197.578 99.6406 197.578 99.9844V106H196.109V99.8984C196.109 99.0911 195.568 98.6875 194.484 98.6875C193.802 98.6875 193.297 98.8177 192.969 99.0781C192.646 99.3333 192.484 99.6745 192.484 100.102V106H191.016V99.8984ZM203.555 106.172C202.341 106.172 201.464 105.919 200.922 105.414C200.38 104.909 200.109 104.13 200.109 103.078V100.195C200.109 99.3776 200.388 98.7344 200.945 98.2656C201.503 97.7969 202.344 97.5625 203.469 97.5625C204.599 97.5625 205.438 97.7812 205.984 98.2188C206.536 98.651 206.812 99.2708 206.812 100.078V102.047H201.578V103.211C201.578 103.898 201.716 104.378 201.992 104.648C202.268 104.914 202.766 105.047 203.484 105.047C204.203 105.047 204.609 105.031 204.703 105C204.797 104.969 204.893 104.932 204.992 104.891C205.091 104.849 205.159 104.799 205.195 104.742C205.237 104.685 205.289 104.599 205.352 104.484C205.419 104.365 205.469 104.135 205.5 103.797H206.797C206.745 104.292 206.656 104.69 206.531 104.992C206.411 105.294 206.219 105.536 205.953 105.719C205.693 105.896 205.378 106.016 205.008 106.078C204.643 106.141 204.159 106.172 203.555 106.172ZM201.578 101.055H205.391V99.9219C205.391 99.4531 205.229 99.1302 204.906 98.9531C204.589 98.776 204.12 98.6875 203.5 98.6875C202.88 98.6875 202.404 98.7943 202.07 99.0078C201.742 99.2214 201.578 99.5729 201.578 100.062V101.055ZM209.453 106V97.7188H210.922V98.8906C211.109 98.3802 211.617 98.0104 212.445 97.7812C212.878 97.6562 213.328 97.5964 213.797 97.6016L213.75 98.8594C213.042 98.8594 212.393 99 211.805 99.2812C211.216 99.5625 210.922 99.8698 210.922 100.203V106H209.453Z" fill="white"/>
</g>
<defs>
<filter id="filter0_d" x="0.777344" y="9.3125" width="25.7344" height="22.9512" filterUnits="userSpaceOnUse" color-interpolation-filters="sRGB">
<feFlood flood-opacity="0" result="BackgroundImageFix"/>
<feColorMatrix in="SourceAlpha" type="matrix" values="0 0 0 0 0 0 0 0 0 0 0 0 0 0 0 0 0 0 127 0"/>
<feOffset dy="4"/>
<feGaussianBlur stdDeviation="2"/>
<feColorMatrix type="matrix" values="0 0 0 0 0 0 0 0 0 0 0 0 0 0 0 0 0 0 0.25 0"/>
<feBlend mode="normal" in2="BackgroundImageFix" result="effect1_dropShadow"/>
<feBlend mode="normal" in="SourceGraphic" in2="effect1_dropShadow" result="shape"/>
</filter>
<filter id="filter1_d" x="715.904" y="55.3125" width="25.6074" height="22.9512" filterUnits="userSpaceOnUse" color-interpolation-filters="sRGB">
<feFlood flood-opacity="0" result="BackgroundImageFix"/>
<feColorMatrix in="SourceAlpha" type="matrix" values="0 0 0 0 0 0 0 0 0 0 0 0 0 0 0 0 0 0 127 0"/>
<feOffset dy="4"/>
<feGaussianBlur stdDeviation="2"/>
<feColorMatrix type="matrix" values="0 0 0 0 0 0 0 0 0 0 0 0 0 0 0 0 0 0 0.25 0"/>
<feBlend mode="normal" in2="BackgroundImageFix" result="effect1_dropShadow"/>
<feBlend mode="normal" in="SourceGraphic" in2="effect1_dropShadow" result="shape"/>
</filter>
<filter id="filter2_d" x="715.777" y="111.312" width="25.7344" height="22.9512" filterUnits="userSpaceOnUse" color-interpolation-filters="sRGB">
<feFlood flood-opacity="0" result="BackgroundImageFix"/>
<feColorMatrix in="SourceAlpha" type="matrix" values="0 0 0 0 0 0 0 0 0 0 0 0 0 0 0 0 0 0 127 0"/>
<feOffset dy="4"/>
<feGaussianBlur stdDeviation="2"/>
<feColorMatrix type="matrix" values="0 0 0 0 0 0 0 0 0 0 0 0 0 0 0 0 0 0 0.25 0"/>
<feBlend mode="normal" in2="BackgroundImageFix" result="effect1_dropShadow"/>
<feBlend mode="normal" in="SourceGraphic" in2="effect1_dropShadow" result="shape"/>
</filter>
<filter id="filter3_d" x="221" y="77.6245" width="59.3696" height="37.3489" filterUnits="userSpaceOnUse" color-interpolation-filters="sRGB">
<feFlood flood-opacity="0" result="BackgroundImageFix"/>
<feColorMatrix in="SourceAlpha" type="matrix" values="0 0 0 0 0 0 0 0 0 0 0 0 0 0 0 0 0 0 127 0"/>
<feOffset dy="4"/>
<feGaussianBlur stdDeviation="2"/>
<feColorMatrix type="matrix" values="0 0 0 0 0 0 0 0 0 0 0 0 0 0 0 0 0 0 0.25 0"/>
<feBlend mode="normal" in2="BackgroundImageFix" result="effect1_dropShadow"/>
<feBlend mode="normal" in="SourceGraphic" in2="effect1_dropShadow" result="shape"/>
</filter>
<filter id="filter4_d" x="106" y="53.5" width="30.5" height="24.649" filterUnits="userSpaceOnUse" color-interpolation-filters="sRGB">
<feFlood flood-opacity="0" result="BackgroundImageFix"/>
<feColorMatrix in="SourceAlpha" type="matrix" values="0 0 0 0 0 0 0 0 0 0 0 0 0 0 0 0 0 0 127 0"/>
<feOffset dy="4"/>
<feGaussianBlur stdDeviation="2"/>
<feColorMatrix type="matrix" values="0 0 0 0 0 0 0 0 0 0 0 0 0 0 0 0 0 0 0.25 0"/>
<feBlend mode="normal" in2="BackgroundImageFix" result="effect1_dropShadow"/>
<feBlend mode="normal" in="SourceGraphic" in2="effect1_dropShadow" result="shape"/>
</filter>
<filter id="filter5_d" x="122.5" y="115.5" width="30.5" height="24.649" filterUnits="userSpaceOnUse" color-interpolation-filters="sRGB">
<feFlood flood-opacity="0" result="BackgroundImageFix"/>
<feColorMatrix in="SourceAlpha" type="matrix" values="0 0 0 0 0 0 0 0 0 0 0 0 0 0 0 0 0 0 127 0"/>
<feOffset dy="4"/>
<feGaussianBlur stdDeviation="2"/>
<feColorMatrix type="matrix" values="0 0 0 0 0 0 0 0 0 0 0 0 0 0 0 0 0 0 0.25 0"/>
<feBlend mode="normal" in2="BackgroundImageFix" result="effect1_dropShadow"/>
<feBlend mode="normal" in="SourceGraphic" in2="effect1_dropShadow" result="shape"/>
</filter>
<filter id="filter6_d" x="21" y="15" width="698" height="164" filterUnits="userSpaceOnUse" color-interpolation-filters="sRGB">
<feFlood flood-opacity="0" result="BackgroundImageFix"/>
<feColorMatrix in="SourceAlpha" type="matrix" values="0 0 0 0 0 0 0 0 0 0 0 0 0 0 0 0 0 0 127 0"/>
<feOffset dy="4"/>
<feGaussianBlur stdDeviation="2"/>
<feColorMatrix type="matrix" values="0 0 0 0 0 0 0 0 0 0 0 0 0 0 0 0 0 0 0.25 0"/>
<feBlend mode="normal" in2="BackgroundImageFix" result="effect1_dropShadow"/>
<feBlend mode="normal" in="SourceGraphic" in2="effect1_dropShadow" result="shape"/>
</filter>
<filter id="filter7_d" x="30" y="48" width="86.5" height="33.3999" filterUnits="userSpaceOnUse" color-interpolation-filters="sRGB">
<feFlood flood-opacity="0" result="BackgroundImageFix"/>
<feColorMatrix in="SourceAlpha" type="matrix" values="0 0 0 0 0 0 0 0 0 0 0 0 0 0 0 0 0 0 127 0"/>
<feOffset dy="4"/>
<feGaussianBlur stdDeviation="2"/>
<feColorMatrix type="matrix" values="0 0 0 0 0 0 0 0 0 0 0 0 0 0 0 0 0 0 0.25 0"/>
<feBlend mode="normal" in2="BackgroundImageFix" result="effect1_dropShadow"/>
<feBlend mode="normal" in="SourceGraphic" in2="effect1_dropShadow" result="shape"/>
</filter>
<filter id="filter8_d" x="142.1" y="112.7" width="86.5" height="33.3" filterUnits="userSpaceOnUse" color-interpolation-filters="sRGB">
<feFlood flood-opacity="0" result="BackgroundImageFix"/>
<feColorMatrix in="SourceAlpha" type="matrix" values="0 0 0 0 0 0 0 0 0 0 0 0 0 0 0 0 0 0 127 0"/>
<feOffset dy="4"/>
<feGaussianBlur stdDeviation="2"/>
<feColorMatrix type="matrix" values="0 0 0 0 0 0 0 0 0 0 0 0 0 0 0 0 0 0 0.25 0"/>
<feBlend mode="normal" in2="BackgroundImageFix" result="effect1_dropShadow"/>
<feBlend mode="normal" in="SourceGraphic" in2="effect1_dropShadow" result="shape"/>
</filter>
<filter id="filter9_d" x="41.4531" y="78.7031" width="65.3438" height="22.4844" filterUnits="userSpaceOnUse" color-interpolation-filters="sRGB">
<feFlood flood-opacity="0" result="BackgroundImageFix"/>
<feColorMatrix in="SourceAlpha" type="matrix" values="0 0 0 0 0 0 0 0 0 0 0 0 0 0 0 0 0 0 127 0"/>
<feOffset dy="4"/>
<feGaussianBlur stdDeviation="2"/>
<feColorMatrix type="matrix" values="0 0 0 0 0 0 0 0 0 0 0 0 0 0 0 0 0 0 0.25 0"/>
<feBlend mode="normal" in2="BackgroundImageFix" result="effect1_dropShadow"/>
<feBlend mode="normal" in="SourceGraphic" in2="effect1_dropShadow" result="shape"/>
</filter>
<filter id="filter10_d" x="152.453" y="94.7031" width="65.3438" height="22.4844" filterUnits="userSpaceOnUse" color-interpolation-filters="sRGB">
<feFlood flood-opacity="0" result="BackgroundImageFix"/>
<feColorMatrix in="SourceAlpha" type="matrix" values="0 0 0 0 0 0 0 0 0 0 0 0 0 0 0 0 0 0 127 0"/>
<feOffset dy="4"/>
<feGaussianBlur stdDeviation="2"/>
<feColorMatrix type="matrix" values="0 0 0 0 0 0 0 0 0 0 0 0 0 0 0 0 0 0 0.25 0"/>
<feBlend mode="normal" in2="BackgroundImageFix" result="effect1_dropShadow"/>
<feBlend mode="normal" in="SourceGraphic" in2="effect1_dropShadow" result="shape"/>
</filter>
</defs>
</svg>
