<svg width="247" height="266" viewBox="0 0 247 266" fill="none" xmlns="http://www.w3.org/2000/svg">
<path fill-rule="evenodd" clip-rule="evenodd" d="M129.33 12.0359L224.019 79.7489L187.536 188.867L70.2982 188.593L34.3252 79.3053L129.33 12.0359Z" fill="#22B674"/>
<path fill-rule="evenodd" clip-rule="evenodd" d="M129.33 12.0359L224.019 79.7489L187.536 188.867L70.2982 188.593L34.3252 79.3053L129.33 12.0359Z" fill="url(#paint0_linear)" fill-opacity="0.5"/>
<path fill-rule="evenodd" clip-rule="evenodd" d="M129.33 12.0359L224.019 79.7489L187.536 188.867L70.2982 188.593L34.3252 79.3053L129.33 12.0359Z" stroke="#22B674"/>
<path d="M225.823 82.0332C224.801 82.4564 223.73 82.668 222.611 82.668C220.807 82.668 219.42 82.1309 218.45 81.0566C217.487 79.9759 217.005 78.3809 217.005 76.2715C217.005 75.2493 217.139 74.3249 217.405 73.498C217.672 72.6712 218.053 71.9714 218.548 71.3984C219.043 70.819 219.642 70.373 220.345 70.0605C221.048 69.748 221.836 69.5918 222.708 69.5918C223.301 69.5918 223.851 69.6439 224.359 69.748C224.866 69.8457 225.355 69.9987 225.823 70.207V71.916C225.361 71.6621 224.883 71.4701 224.388 71.3398C223.893 71.2031 223.353 71.1348 222.767 71.1348C222.168 71.1348 221.624 71.2487 221.136 71.4766C220.654 71.6979 220.244 72.0234 219.905 72.4531C219.567 72.8763 219.306 73.3971 219.124 74.0156C218.942 74.6276 218.851 75.3275 218.851 76.1152C218.851 77.7689 219.186 79.0156 219.857 79.8555C220.527 80.6953 221.51 81.1152 222.806 81.1152C223.353 81.1152 223.877 81.0534 224.378 80.9297C224.879 80.7995 225.361 80.6204 225.823 80.3926V82.0332Z" fill="#C9D1D9"/>
<path d="M191.033 195.521C190.011 195.945 188.94 196.156 187.82 196.156C186.016 196.156 184.63 195.619 183.66 194.545C182.696 193.464 182.214 191.869 182.214 189.76C182.214 188.738 182.348 187.813 182.615 186.986C182.882 186.16 183.263 185.46 183.757 184.887C184.252 184.307 184.851 183.861 185.554 183.549C186.257 183.236 187.045 183.08 187.917 183.08C188.51 183.08 189.06 183.132 189.568 183.236C190.076 183.334 190.564 183.487 191.033 183.695V185.404C190.57 185.15 190.092 184.958 189.597 184.828C189.102 184.691 188.562 184.623 187.976 184.623C187.377 184.623 186.833 184.737 186.345 184.965C185.863 185.186 185.453 185.512 185.115 185.941C184.776 186.365 184.516 186.885 184.333 187.504C184.151 188.116 184.06 188.816 184.06 189.604C184.06 191.257 184.395 192.504 185.066 193.344C185.736 194.184 186.72 194.604 188.015 194.604C188.562 194.604 189.086 194.542 189.587 194.418C190.089 194.288 190.57 194.109 191.033 193.881V195.521Z" fill="#C9D1D9"/>
<path d="M40.2421 82.0332C39.2199 82.4564 38.149 82.668 37.0292 82.668C35.2258 82.668 33.8391 82.1309 32.869 81.0566C31.9055 79.9759 31.4237 78.3809 31.4237 76.2715C31.4237 75.2493 31.5572 74.3249 31.8241 73.498C32.091 72.6712 32.4719 71.9714 32.9667 71.3984C33.4615 70.819 34.0604 70.373 34.7635 70.0605C35.4667 69.748 36.2544 69.5918 37.1268 69.5918C37.7193 69.5918 38.2694 69.6439 38.7772 69.748C39.285 69.8457 39.7733 69.9987 40.2421 70.207V71.916C39.7798 71.6621 39.3013 71.4701 38.8065 71.3398C38.3117 71.2031 37.7714 71.1348 37.1854 71.1348C36.5865 71.1348 36.0428 71.2487 35.5546 71.4766C35.0728 71.6979 34.6626 72.0234 34.3241 72.4531C33.9855 72.8763 33.7251 73.3971 33.5428 74.0156C33.3605 74.6276 33.2694 75.3275 33.2694 76.1152C33.2694 77.7689 33.6047 79.0156 34.2753 79.8555C34.9458 80.6953 35.9289 81.1152 37.2245 81.1152C37.7714 81.1152 38.2954 81.0534 38.7967 80.9297C39.298 80.7995 39.7798 80.6204 40.2421 80.3926V82.0332Z" fill="#C9D1D9"/>
<path d="M75.4048 191.429C74.3827 191.852 73.3117 192.063 72.1919 192.063C70.3886 192.063 69.0018 191.526 68.0318 190.452C67.0682 189.371 66.5865 187.776 66.5865 185.667C66.5865 184.645 66.7199 183.72 66.9869 182.894C67.2538 182.067 67.6347 181.367 68.1294 180.794C68.6242 180.215 69.2232 179.769 69.9263 179.456C70.6294 179.144 71.4172 178.987 72.2896 178.987C72.882 178.987 73.4322 179.039 73.94 179.144C74.4478 179.241 74.9361 179.394 75.4048 179.603V181.312C74.9426 181.058 74.4641 180.866 73.9693 180.735C73.4745 180.599 72.9341 180.53 72.3482 180.53C71.7492 180.53 71.2056 180.644 70.7173 180.872C70.2356 181.093 69.8254 181.419 69.4869 181.849C69.1483 182.272 68.8879 182.793 68.7056 183.411C68.5233 184.023 68.4322 184.723 68.4322 185.511C68.4322 187.164 68.7675 188.411 69.438 189.251C70.1086 190.091 71.0917 190.511 72.3873 190.511C72.9341 190.511 73.4582 190.449 73.9595 190.325C74.4608 190.195 74.9426 190.016 75.4048 189.788V191.429Z" fill="#C9D1D9"/>
<path d="M142.087 20.792L213.791 72.3714" stroke="#C9D1D9"/>
<path d="M117.093 20.6045L43.8372 72.3718" stroke="#C9D1D9"/>
<path d="M191.326 177.86L219.651 93.8604" stroke="#C9D1D9"/>
<path d="M220.091 21.3491C220.091 22.495 219.954 23.4845 219.681 24.3179C219.414 25.1512 219.049 25.8413 218.587 26.3882C218.131 26.9285 217.594 27.3322 216.976 27.5991C216.364 27.8595 215.716 27.9897 215.032 27.9897C214.212 27.9897 213.496 27.8433 212.884 27.5503C212.278 27.2508 211.774 26.8211 211.37 26.2612C210.973 25.7013 210.677 25.021 210.481 24.2202C210.286 23.4129 210.188 22.5047 210.188 21.4956C210.188 20.3628 210.322 19.3797 210.589 18.5464C210.856 17.7131 211.217 17.0262 211.673 16.4858C212.135 15.939 212.672 15.5353 213.284 15.2749C213.896 15.008 214.544 14.8745 215.228 14.8745C216.048 14.8745 216.761 15.0243 217.366 15.3237C217.978 15.6232 218.486 16.0529 218.89 16.6128C219.293 17.1662 219.593 17.8433 219.788 18.644C219.99 19.4448 220.091 20.3465 220.091 21.3491ZM218.284 21.4761C218.284 20.7274 218.226 20.0438 218.108 19.4253C217.998 18.8003 217.815 18.2632 217.561 17.814C217.308 17.3647 216.979 17.0164 216.575 16.769C216.178 16.5216 215.696 16.3979 215.13 16.3979C214.583 16.3979 214.111 16.5314 213.714 16.7983C213.323 17.0588 213.001 17.4168 212.747 17.8726C212.493 18.3218 212.304 18.8524 212.181 19.4644C212.057 20.0698 211.995 20.7144 211.995 21.3979C211.995 22.1532 212.054 22.8433 212.171 23.4683C212.288 24.0868 212.47 24.6206 212.718 25.0698C212.972 25.5125 213.297 25.8576 213.694 26.105C214.091 26.3524 214.57 26.4761 215.13 26.4761C215.677 26.4761 216.149 26.3459 216.546 26.0854C216.943 25.8185 217.269 25.4604 217.522 25.0112C217.783 24.5555 217.975 24.0249 218.099 23.4194C218.222 22.814 218.284 22.1662 218.284 21.4761ZM230.55 27.814H228.811V21.9546H223.45V27.814H221.712V15.0503H223.45V20.4507H228.811V15.0503H230.55V27.814Z" fill="#C9D1D9"/>
<path d="M71.6257 244.047C71.6257 245.193 71.489 246.182 71.2156 247.016C70.9486 247.849 70.584 248.539 70.1218 249.086C69.6661 249.626 69.129 250.03 68.5105 250.297C67.8985 250.557 67.2507 250.688 66.5671 250.688C65.7468 250.688 65.0307 250.541 64.4187 250.248C63.8132 249.949 63.3087 249.519 62.905 248.959C62.5079 248.399 62.2116 247.719 62.0163 246.918C61.821 246.111 61.7234 245.202 61.7234 244.193C61.7234 243.061 61.8568 242.077 62.1238 241.244C62.3907 240.411 62.752 239.724 63.2077 239.184C63.67 238.637 64.2071 238.233 64.8191 237.973C65.431 237.706 66.0788 237.572 66.7624 237.572C67.5827 237.572 68.2956 237.722 68.9011 238.021C69.5131 238.321 70.0209 238.751 70.4245 239.311C70.8282 239.864 71.1277 240.541 71.323 241.342C71.5248 242.143 71.6257 243.044 71.6257 244.047ZM69.8191 244.174C69.8191 243.425 69.7605 242.742 69.6433 242.123C69.5326 241.498 69.3503 240.961 69.0964 240.512C68.8425 240.062 68.5137 239.714 68.1101 239.467C67.7129 239.219 67.2312 239.096 66.6648 239.096C66.1179 239.096 65.6459 239.229 65.2488 239.496C64.8581 239.757 64.5359 240.115 64.282 240.57C64.0281 241.02 63.8392 241.55 63.7156 242.162C63.5919 242.768 63.53 243.412 63.53 244.096C63.53 244.851 63.5886 245.541 63.7058 246.166C63.823 246.785 64.0053 247.318 64.2527 247.768C64.5066 248.21 64.8321 248.555 65.2292 248.803C65.6264 249.05 66.1049 249.174 66.6648 249.174C67.2116 249.174 67.6837 249.044 68.0808 248.783C68.4779 248.516 68.8034 248.158 69.0573 247.709C69.3178 247.253 69.5098 246.723 69.6335 246.117C69.7572 245.512 69.8191 244.864 69.8191 244.174ZM82.0847 250.512H80.3464V244.652H74.9851V250.512H73.2468V237.748H74.9851V243.148H80.3464V237.748H82.0847V250.512Z" fill="#C9D1D9"/>
<line x1="187.895" y1="177.861" x2="187.895" y2="146.465" stroke="#C9D1D9"/>
<path d="M191.842 135.256H190.104V129.396H184.743V135.256H183.005V122.492H184.743V127.893H190.104V122.492H191.842V135.256Z" fill="#C9D1D9"/>
<line x1="72.6395" y1="177.86" x2="72.6395" y2="146.465" stroke="#C9D1D9"/>
<line x1="70.5" y1="233.396" x2="70.5" y2="202" stroke="#C9D1D9"/>
<line x1="222.5" y1="63.3955" x2="222.5" y2="32.0002" stroke="#C9D1D9"/>
<line x1="35.5" y1="65.3955" x2="35.5" y2="34.0002" stroke="#C9D1D9"/>
<path d="M76.5867 135.256H74.8484V129.396H69.487V135.256H67.7488V122.492H69.487V127.893H74.8484V122.492H76.5867V135.256Z" fill="#C9D1D9"/>
<line x1="223.058" y1="125.184" x2="223.058" y2="93.8604" stroke="#C9D1D9"/>
<path d="M227.005 141.184H225.267V135.324H219.906V141.184H218.167V128.42H219.906V133.82H225.267V128.42H227.005V141.184Z" fill="#C9D1D9"/>
<line x1="35.5233" y1="125.184" x2="35.5233" y2="93.8604" stroke="#C9D1D9"/>
<path d="M39.4704 141.184H37.7321V135.324H32.3708V141.184H30.6325V128.42H32.3708V133.82H37.7321V128.42H39.4704V141.184Z" fill="#C9D1D9"/>
<line x1="187.895" y1="234.58" x2="187.895" y2="203.256" stroke="#C9D1D9"/>
<path d="M191.842 250.58H190.104V244.72H184.743V250.58H183.005V237.816H184.743V243.216H190.104V237.816H191.842V250.58Z" fill="#C9D1D9"/>
<path d="M25.9533 27.3354C24.9311 27.7586 23.8602 27.9702 22.7404 27.9702C20.937 27.9702 19.5503 27.4331 18.5802 26.3589C17.6167 25.2782 17.1349 23.6831 17.1349 21.5737C17.1349 20.5516 17.2684 19.6271 17.5353 18.8003C17.8022 17.9735 18.1831 17.2736 18.6779 16.7007C19.1727 16.1213 19.7716 15.6753 20.4748 15.3628C21.1779 15.0503 21.9657 14.894 22.838 14.894C23.4305 14.894 23.9806 14.9461 24.4884 15.0503C24.9963 15.1479 25.4845 15.3009 25.9533 15.5093V17.2183C25.491 16.9644 25.0125 16.7723 24.5177 16.6421C24.0229 16.5054 23.4826 16.437 22.8966 16.437C22.2977 16.437 21.7541 16.5509 21.2658 16.7788C20.784 17.0002 20.3739 17.3257 20.0353 17.7554C19.6968 18.1785 19.4364 18.6994 19.2541 19.3179C19.0718 19.9299 18.9806 20.6297 18.9806 21.4175C18.9806 23.0711 19.3159 24.3179 19.9865 25.1577C20.6571 25.9976 21.6401 26.4175 22.9357 26.4175C23.4826 26.4175 24.0067 26.3556 24.508 26.2319C25.0093 26.1017 25.491 25.9227 25.9533 25.6948V27.3354ZM37.1545 27.814H35.4162V21.9546H30.0548V27.814H28.3166V15.0503H30.0548V20.4507H35.4162V15.0503H37.1545V27.814Z" fill="#C9D1D9"/>
<path d="M39.5984 33L39.4871 32.0742L42.3464 28.9629C42.866 28.4004 43.1609 28.0547 43.2312 27.9258C43.3054 27.793 43.3757 27.6484 43.4421 27.4922C43.5124 27.3359 43.5476 27.1074 43.5476 26.8066C43.5476 26.2715 43.4343 25.8945 43.2078 25.6758C42.9812 25.457 42.6042 25.3477 42.0769 25.3477C41.7488 25.3477 41.4851 25.3691 41.2859 25.4121C41.0867 25.4551 40.9148 25.5371 40.7703 25.6582C40.5124 25.873 40.3835 26.3203 40.3835 27H39.2058C39.2058 25.2656 40.1335 24.3984 41.989 24.3984C42.8796 24.3984 43.5476 24.625 43.9929 25.0781C44.4382 25.5273 44.6609 26.0742 44.6609 26.7188C44.6609 27.3633 44.5437 27.8672 44.3093 28.2305C44.0789 28.5938 43.8406 28.9043 43.5945 29.1621C43.3484 29.416 43.2097 29.5605 43.1785 29.5957L40.8289 32.0859H44.614V33H39.5984Z" fill="#C9D1D9"/>
<path d="M58.0675 21.5352C58.0675 22.681 57.9308 23.6706 57.6574 24.5039C57.3905 25.3372 57.0259 26.0273 56.5636 26.5742C56.1079 27.1146 55.5708 27.5182 54.9523 27.7852C54.3403 28.0456 53.6925 28.1758 53.0089 28.1758C52.1886 28.1758 51.4725 28.0293 50.8605 27.7363C50.255 27.4368 49.7505 27.0072 49.3468 26.4473C48.9497 25.8874 48.6535 25.207 48.4582 24.4062C48.2629 23.599 48.1652 22.6908 48.1652 21.6816C48.1652 20.5488 48.2987 19.5658 48.5656 18.7324C48.8325 17.8991 49.1938 17.2122 49.6496 16.6719C50.1118 16.125 50.6489 15.7214 51.2609 15.4609C51.8729 15.194 52.5207 15.0605 53.2043 15.0605C54.0246 15.0605 54.7375 15.2103 55.3429 15.5098C55.9549 15.8092 56.4627 16.2389 56.8664 16.7988C57.27 17.3522 57.5695 18.0293 57.7648 18.8301C57.9666 19.6309 58.0675 20.5326 58.0675 21.5352ZM56.2609 21.6621C56.2609 20.9134 56.2023 20.2298 56.0851 19.6113C55.9744 18.9863 55.7922 18.4492 55.5382 18C55.2843 17.5508 54.9556 17.2025 54.5519 16.9551C54.1548 16.7077 53.673 16.584 53.1066 16.584C52.5597 16.584 52.0877 16.7174 51.6906 16.9844C51.3 17.2448 50.9777 17.6029 50.7238 18.0586C50.4699 18.5078 50.2811 19.0384 50.1574 19.6504C50.0337 20.2559 49.9718 20.9004 49.9718 21.584C49.9718 22.3392 50.0304 23.0293 50.1476 23.6543C50.2648 24.2728 50.4471 24.8066 50.6945 25.2559C50.9484 25.6986 51.2739 26.0436 51.6711 26.291C52.0682 26.5384 52.5467 26.6621 53.1066 26.6621C53.6535 26.6621 54.1255 26.5319 54.5226 26.2715C54.9198 26.0046 55.2453 25.6465 55.4992 25.1973C55.7596 24.7415 55.9517 24.2109 56.0754 23.6055C56.1991 23 56.2609 22.3522 56.2609 21.6621ZM68.5265 28H66.7882V22.1406H61.4269V28H59.6886V15.2363H61.4269V20.6367H66.7882V15.2363H68.5265V28Z" fill="#C9D1D9"/>
<path d="M134.566 9.53516C134.566 10.681 134.429 11.6706 134.155 12.5039C133.889 13.3372 133.524 14.0273 133.062 14.5742C132.606 15.1146 132.069 15.5182 131.45 15.7852C130.838 16.0456 130.191 16.1758 129.507 16.1758C128.687 16.1758 127.971 16.0293 127.359 15.7363C126.753 15.4368 126.249 15.0072 125.845 14.4473C125.448 13.8874 125.152 13.207 124.956 12.4062C124.761 11.599 124.663 10.6908 124.663 9.68164C124.663 8.54883 124.797 7.56576 125.064 6.73242C125.331 5.89909 125.692 5.21224 126.148 4.67188C126.61 4.125 127.147 3.72135 127.759 3.46094C128.371 3.19401 129.019 3.06055 129.702 3.06055C130.523 3.06055 131.236 3.21029 131.841 3.50977C132.453 3.80924 132.961 4.23893 133.364 4.79883C133.768 5.35221 134.068 6.0293 134.263 6.83008C134.465 7.63086 134.566 8.53255 134.566 9.53516ZM132.759 9.66211C132.759 8.91341 132.7 8.22982 132.583 7.61133C132.472 6.98633 132.29 6.44922 132.036 6C131.782 5.55078 131.454 5.20247 131.05 4.95508C130.653 4.70768 130.171 4.58398 129.605 4.58398C129.058 4.58398 128.586 4.71745 128.189 4.98438C127.798 5.24479 127.476 5.60286 127.222 6.05859C126.968 6.50781 126.779 7.03841 126.655 7.65039C126.532 8.25586 126.47 8.90039 126.47 9.58398C126.47 10.3392 126.528 11.0293 126.646 11.6543C126.763 12.2728 126.945 12.8066 127.193 13.2559C127.446 13.6986 127.772 14.0436 128.169 14.291C128.566 14.5384 129.045 14.6621 129.605 14.6621C130.152 14.6621 130.624 14.5319 131.021 14.2715C131.418 14.0046 131.743 13.6465 131.997 13.1973C132.258 12.7415 132.45 12.2109 132.573 11.6055C132.697 11 132.759 10.3522 132.759 9.66211Z" fill="#C9D1D9"/>
<path d="M236.359 78V77.0918H238.708V70.5176L236.517 70.752L236.412 69.8203L238.925 69.5273H239.886V77.0918H241.96V78H236.359Z" fill="#F40F0F"/>
<path d="M200.505 194L200.394 193.074L203.253 189.963C203.773 189.4 204.068 189.055 204.138 188.926C204.212 188.793 204.283 188.648 204.349 188.492C204.419 188.336 204.455 188.107 204.455 187.807C204.455 187.271 204.341 186.895 204.115 186.676C203.888 186.457 203.511 186.348 202.984 186.348C202.656 186.348 202.392 186.369 202.193 186.412C201.994 186.455 201.822 186.537 201.677 186.658C201.419 186.873 201.291 187.32 201.291 188H200.113C200.113 186.266 201.041 185.398 202.896 185.398C203.787 185.398 204.455 185.625 204.9 186.078C205.345 186.527 205.568 187.074 205.568 187.719C205.568 188.363 205.451 188.867 205.216 189.23C204.986 189.594 204.748 189.904 204.501 190.162C204.255 190.416 204.117 190.561 204.085 190.596L201.736 193.086H205.521V194H200.505Z" fill="#F40F0F"/>
<path d="M57.478 184.625C57.478 183.773 57.0347 183.348 56.1479 183.348C55.687 183.348 55.3667 183.391 55.187 183.477C55.0073 183.562 54.8784 183.666 54.8003 183.787C54.6362 184.045 54.5542 184.447 54.5542 184.994H53.4292C53.4292 184.279 53.5503 183.734 53.7925 183.359C54.0347 182.98 54.3491 182.727 54.7358 182.598C55.1265 182.465 55.5835 182.398 56.1069 182.398C56.8686 182.398 57.4702 182.582 57.9116 182.949C58.3569 183.312 58.5796 183.865 58.5796 184.607C58.5796 185.178 58.4722 185.617 58.2573 185.926C58.0464 186.23 57.7007 186.422 57.2202 186.5C57.7319 186.605 58.1147 186.822 58.3686 187.15C58.6225 187.479 58.7495 188.014 58.7495 188.756C58.7495 189.498 58.5229 190.08 58.0698 190.502C57.6167 190.92 56.9702 191.129 56.1304 191.129C55.4936 191.129 54.9878 191.045 54.6128 190.877C54.2417 190.709 53.9585 190.436 53.7632 190.057C53.5679 189.678 53.437 189.15 53.3706 188.475H54.4956C54.5425 189.17 54.6929 189.631 54.9468 189.857C55.0874 189.982 55.2534 190.068 55.4448 190.115C55.6362 190.158 55.8862 190.18 56.1948 190.18C56.6909 190.18 57.0542 190.053 57.2847 189.799C57.5151 189.545 57.6304 189.121 57.6304 188.527C57.6304 187.934 57.521 187.541 57.3022 187.35C57.0874 187.154 56.8218 187.039 56.5054 187.004C56.1929 186.969 55.8882 186.951 55.5913 186.951V186.078C56.2163 186.078 56.6382 186.027 56.8569 185.926C57.0757 185.824 57.2339 185.701 57.3315 185.557C57.4292 185.408 57.478 185.098 57.478 184.625Z" fill="#F40F0F"/>
<path d="M23.7397 78V75.9434H19.9897V75.0234L23.0893 69.5273H24.314L21.3022 75.0352H23.7397V73.0957H24.7183V75.0352H25.9604V75.9434H24.7183V78H23.7397Z" fill="#F40F0F"/>
<path d="M6.53075 21.2012C6.92528 20.8418 7.43895 20.6621 8.07177 20.6621C8.93114 20.6621 9.58348 20.9004 10.0288 21.377C10.4741 21.8535 10.6968 22.5117 10.6968 23.3516C10.6968 24.1875 10.435 24.8594 9.91161 25.3672C9.39208 25.875 8.70653 26.1289 7.85497 26.1289C7.44872 26.1289 7.06395 26.0859 6.70067 26C6.33739 25.918 6.05419 25.8301 5.85106 25.7363C5.64794 25.6426 5.41942 25.5215 5.16552 25.373L5.47606 24.4766C5.71825 24.6367 5.92528 24.7598 6.09716 24.8457C6.54247 25.0684 7.11278 25.1797 7.80809 25.1797C8.66356 25.1797 9.2163 24.8438 9.4663 24.1719C9.54833 23.9531 9.58934 23.7051 9.58934 23.4277C9.58934 22.834 9.45458 22.3711 9.18505 22.0391C8.91552 21.7031 8.49755 21.5352 7.93114 21.5352C7.6577 21.5352 7.41356 21.584 7.19872 21.6816C6.98778 21.7754 6.71825 21.9414 6.39013 22.1797L5.53466 21.8281L5.83348 17.5273H10.1518V18.4941H6.77684L6.53075 21.2012Z" fill="#F40F0F"/>
<circle cx="129.791" cy="105.581" r="34.6628" stroke="#F40F0F"/>
<path d="M160.888 92.3808C161.15 92.4682 161.434 92.3266 161.521 92.0646L162.944 87.7955C163.031 87.5336 162.89 87.2504 162.628 87.1631C162.366 87.0757 162.083 87.2173 161.995 87.4793L160.73 91.274L156.936 90.0091C156.674 89.9218 156.39 90.0634 156.303 90.3254C156.216 90.5873 156.357 90.8705 156.619 90.9578L160.888 92.3808ZM158.646 88.2231L160.599 92.1301L161.494 91.6829L159.54 87.7759L158.646 88.2231Z" fill="#F40F0F"/>
<path d="M97.7163 116.828C97.4543 116.74 97.1712 116.882 97.0838 117.144L95.6608 121.413C95.5735 121.675 95.7151 121.958 95.977 122.045C96.239 122.133 96.5222 121.991 96.6095 121.729L97.8744 117.934L101.669 119.199C101.931 119.287 102.214 119.145 102.302 118.883C102.389 118.621 102.247 118.338 101.985 118.251L97.7163 116.828ZM99.9589 120.985L98.0054 117.078L97.111 117.526L99.0644 121.433L99.9589 120.985Z" fill="#F40F0F"/>
<line x1="80.9535" y1="189.277" x2="172.767" y2="189.277" stroke="#C9D1D9"/>
<path d="M64.4012 170.362L37.9767 89.9536" stroke="#C9D1D9"/>
<defs>
<linearGradient id="paint0_linear" x1="34.2764" y1="100.161" x2="223.971" y2="100.605" gradientUnits="userSpaceOnUse">
<stop/>
<stop offset="1" stop-color="white" stop-opacity="0"/>
</linearGradient>
</defs>
</svg>
