<svg width="747" height="197" viewBox="0 0 747 197" fill="none" xmlns="http://www.w3.org/2000/svg">
<g filter="url(#filter0_d)">
<line x1="713.833" y1="70.6665" x2="713.833" y2="93.9998" stroke="#62F2A6" stroke-width="3"/>
<line x1="713.833" y1="94" x2="713.833" y2="117.333" stroke="#EFE123" stroke-width="3"/>
<line x1="713.833" y1="70.6665" x2="713.833" y2="93.9998" stroke="#62F2A6" stroke-width="3"/>
<line x1="713.833" y1="70.6665" x2="713.833" y2="93.9998" stroke="#62F2A6" stroke-width="3"/>
<line x1="713.833" y1="94" x2="713.833" y2="117.333" stroke="#E8A62F" stroke-width="3"/>
<line x1="713.833" y1="70.6665" x2="713.833" y2="93.9998" stroke="#62F2A6" stroke-width="3"/>
<line x1="713.833" y1="70.6665" x2="713.833" y2="93.9998" stroke="#C6344A" stroke-width="3"/>
<line x1="695.167" y1="70.6665" x2="695.167" y2="93.9998" stroke="#62F2A6" stroke-width="3"/>
<line x1="695.167" y1="94" x2="695.167" y2="117.333" stroke="#EFE123" stroke-width="3"/>
<line x1="695.167" y1="70.6665" x2="695.167" y2="93.9998" stroke="#62F2A6" stroke-width="3"/>
<line x1="695.167" y1="70.6665" x2="695.167" y2="93.9998" stroke="#62F2A6" stroke-width="3"/>
<line x1="695.167" y1="94" x2="695.167" y2="117.333" stroke="#61ECA1" stroke-width="3"/>
<line x1="695.167" y1="70.6665" x2="695.167" y2="93.9998" stroke="#62F2A6" stroke-width="3"/>
<line x1="695.167" y1="70.6665" x2="695.167" y2="93.9998" stroke="#62F2A6" stroke-width="3"/>
<line x1="695.167" y1="70.6665" x2="695.167" y2="93.9998" stroke="#EDDE22" stroke-width="3"/>
<line x1="685.833" y1="70.6665" x2="685.833" y2="93.9998" stroke="#62F2A6" stroke-width="3"/>
<line x1="685.833" y1="94" x2="685.833" y2="117.333" stroke="#EFE123" stroke-width="3"/>
<line x1="685.833" y1="70.6665" x2="685.833" y2="93.9998" stroke="#62F2A6" stroke-width="3"/>
<line x1="685.833" y1="70.6665" x2="685.833" y2="93.9998" stroke="#62F2A6" stroke-width="3"/>
<line x1="685.833" y1="94" x2="685.833" y2="117.333" stroke="#EFE123" stroke-width="3"/>
<line x1="685.833" y1="70.6665" x2="685.833" y2="93.9998" stroke="#62F2A6" stroke-width="3"/>
<line x1="685.833" y1="70.6665" x2="685.833" y2="93.9998" stroke="#62F2A6" stroke-width="3"/>
<line x1="685.833" y1="70.6665" x2="685.833" y2="93.9998" stroke="#62F2A6" stroke-width="3"/>
<line x1="676.5" y1="70.6665" x2="676.5" y2="93.9998" stroke="#62F2A6" stroke-width="3"/>
<line x1="676.5" y1="94" x2="676.5" y2="117.333" stroke="#EFE123" stroke-width="3"/>
<line x1="676.5" y1="70.6665" x2="676.5" y2="93.9998" stroke="#62F2A6" stroke-width="3"/>
<line x1="676.5" y1="70.6665" x2="676.5" y2="93.9998" stroke="#62F2A6" stroke-width="3"/>
<line x1="676.5" y1="94" x2="676.5" y2="117.333" stroke="#E8A62F" stroke-width="3"/>
<line x1="676.5" y1="70.6665" x2="676.5" y2="93.9998" stroke="#62F2A6" stroke-width="3"/>
<line x1="676.5" y1="70.6665" x2="676.5" y2="93.9998" stroke="#62F2A6" stroke-width="3"/>
<line x1="676.5" y1="70.6665" x2="676.5" y2="93.9998" stroke="#C6344A" stroke-width="3"/>
<line x1="704.5" y1="70.6665" x2="704.5" y2="93.9998" stroke="#62F2A6" stroke-width="3"/>
<line x1="704.5" y1="94" x2="704.5" y2="117.333" stroke="#EFE123" stroke-width="3"/>
<line x1="667.167" y1="70.6665" x2="667.167" y2="93.9998" stroke="#62F2A6" stroke-width="3"/>
<line x1="667.167" y1="94" x2="667.167" y2="117.333" stroke="#EFE123" stroke-width="3"/>
<line x1="667.167" y1="70.6665" x2="667.167" y2="93.9998" stroke="#62F2A6" stroke-width="3"/>
<line x1="667.167" y1="70.6665" x2="667.167" y2="93.9998" stroke="#62F2A6" stroke-width="3"/>
<line x1="667.167" y1="94" x2="667.167" y2="117.333" stroke="#EFE123" stroke-width="3"/>
<line x1="667.167" y1="70.6665" x2="667.167" y2="93.9998" stroke="#62F2A6" stroke-width="3"/>
<line x1="667.167" y1="70.6665" x2="667.167" y2="93.9998" stroke="#62F2A6" stroke-width="3"/>
<line x1="667.167" y1="70.6665" x2="667.167" y2="93.9998" stroke="#62F2A6" stroke-width="3"/>
<line x1="648.5" y1="70.6665" x2="648.5" y2="93.9998" stroke="#62F2A6" stroke-width="3"/>
<line x1="648.5" y1="94" x2="648.5" y2="117.333" stroke="#EFE123" stroke-width="3"/>
<line x1="648.5" y1="70.6665" x2="648.5" y2="93.9998" stroke="#62F2A6" stroke-width="3"/>
<line x1="648.5" y1="70.6665" x2="648.5" y2="93.9998" stroke="#62F2A6" stroke-width="3"/>
<line x1="648.5" y1="94" x2="648.5" y2="117.333" stroke="#EFE123" stroke-width="3"/>
<line x1="648.5" y1="70.6665" x2="648.5" y2="93.9998" stroke="#62F2A6" stroke-width="3"/>
<line x1="648.5" y1="70.6665" x2="648.5" y2="93.9998" stroke="#62F2A6" stroke-width="3"/>
<line x1="648.5" y1="70.6665" x2="648.5" y2="93.9998" stroke="#62F2A6" stroke-width="3"/>
<line x1="639.167" y1="70.6665" x2="639.167" y2="93.9998" stroke="#62F2A6" stroke-width="3"/>
<line x1="639.167" y1="94" x2="639.167" y2="117.333" stroke="#EFE123" stroke-width="3"/>
<line x1="639.167" y1="70.6665" x2="639.167" y2="93.9998" stroke="#62F2A6" stroke-width="3"/>
<line x1="639.167" y1="70.6665" x2="639.167" y2="93.9998" stroke="#62F2A6" stroke-width="3"/>
<line x1="639.167" y1="70.6665" x2="639.167" y2="93.9998" stroke="#62F2A6" stroke-width="3"/>
<line x1="639.167" y1="70.6665" x2="639.167" y2="93.9998" stroke="#62F2A6" stroke-width="3"/>
<line x1="639.167" y1="70.6665" x2="639.167" y2="93.9998" stroke="#62F2A6" stroke-width="3"/>
<line x1="629.833" y1="70.6665" x2="629.833" y2="93.9998" stroke="#62F2A6" stroke-width="3"/>
<line x1="629.833" y1="94" x2="629.833" y2="117.333" stroke="#EFE123" stroke-width="3"/>
<line x1="629.833" y1="70.6665" x2="629.833" y2="93.9998" stroke="#62F2A6" stroke-width="3"/>
<line x1="629.833" y1="70.6665" x2="629.833" y2="93.9998" stroke="#62F2A6" stroke-width="3"/>
<line x1="629.833" y1="94" x2="629.833" y2="117.333" stroke="#C6344A" stroke-width="3"/>
<line x1="629.833" y1="70.6665" x2="629.833" y2="93.9998" stroke="#62F2A6" stroke-width="3"/>
<line x1="629.833" y1="70.6665" x2="629.833" y2="93.9998" stroke="#62F2A6" stroke-width="3"/>
<line x1="629.833" y1="70.6665" x2="629.833" y2="93.9998" stroke="#E8A62F" stroke-width="3"/>
<line x1="657.833" y1="70.6665" x2="657.833" y2="93.9998" stroke="#C6344A" stroke-width="3"/>
<line x1="657.833" y1="94" x2="657.833" y2="117.333" stroke="#E8A62F" stroke-width="3"/>
<line x1="620.5" y1="70.6665" x2="620.5" y2="93.9998" stroke="#62F2A6" stroke-width="3"/>
<line x1="620.5" y1="94" x2="620.5" y2="117.333" stroke="#EFE123" stroke-width="3"/>
<line x1="620.5" y1="70.6665" x2="620.5" y2="93.9998" stroke="#62F2A6" stroke-width="3"/>
<line x1="620.5" y1="70.6665" x2="620.5" y2="93.9998" stroke="#62F2A6" stroke-width="3"/>
<line x1="620.5" y1="94" x2="620.5" y2="117.333" stroke="#E8A62F" stroke-width="3"/>
<line x1="620.5" y1="70.6665" x2="620.5" y2="93.9998" stroke="#62F2A6" stroke-width="3"/>
<line x1="620.5" y1="70.6665" x2="620.5" y2="93.9998" stroke="#C6344A" stroke-width="3"/>
<line x1="601.833" y1="70.6665" x2="601.833" y2="93.9998" stroke="#62F2A6" stroke-width="3"/>
<line x1="601.833" y1="94" x2="601.833" y2="117.333" stroke="#EFE123" stroke-width="3"/>
<line x1="601.833" y1="70.6665" x2="601.833" y2="93.9998" stroke="#62F2A6" stroke-width="3"/>
<line x1="601.833" y1="70.6665" x2="601.833" y2="93.9998" stroke="#62F2A6" stroke-width="3"/>
<line x1="601.833" y1="94" x2="601.833" y2="117.333" stroke="#EFE123" stroke-width="3"/>
<line x1="601.833" y1="70.6665" x2="601.833" y2="93.9998" stroke="#62F2A6" stroke-width="3"/>
<line x1="601.833" y1="70.6665" x2="601.833" y2="93.9998" stroke="#62F2A6" stroke-width="3"/>
<line x1="601.833" y1="70.6665" x2="601.833" y2="93.9998" stroke="#62F2A6" stroke-width="3"/>
<line x1="592.5" y1="70.6665" x2="592.5" y2="93.9998" stroke="#62F2A6" stroke-width="3"/>
<line x1="592.5" y1="94" x2="592.5" y2="117.333" stroke="#EFE123" stroke-width="3"/>
<line x1="592.5" y1="70.6665" x2="592.5" y2="93.9998" stroke="#62F2A6" stroke-width="3"/>
<line x1="592.5" y1="70.6665" x2="592.5" y2="93.9998" stroke="#62F2A6" stroke-width="3"/>
<line x1="592.5" y1="94" x2="592.5" y2="117.333" stroke="#E8A62F" stroke-width="3"/>
<line x1="592.5" y1="70.6665" x2="592.5" y2="93.9998" stroke="#62F2A6" stroke-width="3"/>
<line x1="592.5" y1="70.6665" x2="592.5" y2="93.9998" stroke="#62F2A6" stroke-width="3"/>
<line x1="592.5" y1="70.6665" x2="592.5" y2="93.9998" stroke="#C6344A" stroke-width="3"/>
<line x1="583.167" y1="70.6665" x2="583.167" y2="93.9998" stroke="#62F2A6" stroke-width="3"/>
<line x1="583.167" y1="94" x2="583.167" y2="117.333" stroke="#EFE123" stroke-width="3"/>
<line x1="583.167" y1="70.6665" x2="583.167" y2="93.9998" stroke="#62F2A6" stroke-width="3"/>
<line x1="583.167" y1="70.6665" x2="583.167" y2="93.9998" stroke="#62F2A6" stroke-width="3"/>
<line x1="583.167" y1="94" x2="583.167" y2="117.333" stroke="#61ECA1" stroke-width="3"/>
<line x1="583.167" y1="70.6665" x2="583.167" y2="93.9998" stroke="#62F2A6" stroke-width="3"/>
<line x1="583.167" y1="70.6665" x2="583.167" y2="93.9998" stroke="#62F2A6" stroke-width="3"/>
<line x1="583.167" y1="70.6665" x2="583.167" y2="93.9998" stroke="#EDDE22" stroke-width="3"/>
<line x1="611.167" y1="70.6665" x2="611.167" y2="93.9998" stroke="#E8A62F" stroke-width="3"/>
<line x1="611.167" y1="94" x2="611.167" y2="117.333" stroke="#C6344A" stroke-width="3"/>
<line x1="573.833" y1="70.6665" x2="573.833" y2="93.9998" stroke="#62F2A6" stroke-width="3"/>
<line x1="573.833" y1="94" x2="573.833" y2="117.333" stroke="#EFE123" stroke-width="3"/>
<line x1="573.833" y1="70.6665" x2="573.833" y2="93.9998" stroke="#62F2A6" stroke-width="3"/>
<line x1="573.833" y1="70.6665" x2="573.833" y2="93.9998" stroke="#62F2A6" stroke-width="3"/>
<line x1="573.833" y1="94" x2="573.833" y2="117.333" stroke="#C6344A" stroke-width="3"/>
<line x1="573.833" y1="70.6665" x2="573.833" y2="93.9998" stroke="#62F2A6" stroke-width="3"/>
<line x1="573.833" y1="70.6665" x2="573.833" y2="93.9998" stroke="#62F2A6" stroke-width="3"/>
<line x1="573.833" y1="70.6665" x2="573.833" y2="93.9998" stroke="#E8A62F" stroke-width="3"/>
<line x1="555.167" y1="70.6665" x2="555.167" y2="93.9998" stroke="#62F2A6" stroke-width="3"/>
<line x1="555.167" y1="94" x2="555.167" y2="117.333" stroke="#EFE123" stroke-width="3"/>
<line x1="555.167" y1="70.6665" x2="555.167" y2="93.9998" stroke="#62F2A6" stroke-width="3"/>
<line x1="555.167" y1="70.6665" x2="555.167" y2="93.9998" stroke="#62F2A6" stroke-width="3"/>
<line x1="555.167" y1="94" x2="555.167" y2="117.333" stroke="#EFE123" stroke-width="3"/>
<line x1="555.167" y1="70.6665" x2="555.167" y2="93.9998" stroke="#62F2A6" stroke-width="3"/>
<line x1="555.167" y1="70.6665" x2="555.167" y2="93.9998" stroke="#62F2A6" stroke-width="3"/>
<line x1="555.167" y1="70.6665" x2="555.167" y2="93.9998" stroke="#62F2A6" stroke-width="3"/>
<line x1="545.833" y1="70.6665" x2="545.833" y2="93.9998" stroke="#62F2A6" stroke-width="3"/>
<line x1="545.833" y1="94" x2="545.833" y2="117.333" stroke="#E8A62F" stroke-width="3"/>
<line x1="545.833" y1="70.6665" x2="545.833" y2="93.9998" stroke="#62F2A6" stroke-width="3"/>
<line x1="545.833" y1="70.6665" x2="545.833" y2="93.9998" stroke="#62F2A6" stroke-width="3"/>
<line x1="545.833" y1="70.6665" x2="545.833" y2="93.9998" stroke="#62F2A6" stroke-width="3"/>
<line x1="545.833" y1="70.6665" x2="545.833" y2="93.9998" stroke="#62F2A6" stroke-width="3"/>
<line x1="545.833" y1="70.6665" x2="545.833" y2="93.9998" stroke="#C6344A" stroke-width="3"/>
<line x1="536.5" y1="70.6665" x2="536.5" y2="93.9998" stroke="#62F2A6" stroke-width="3"/>
<line x1="536.5" y1="94" x2="536.5" y2="117.333" stroke="#EFE123" stroke-width="3"/>
<line x1="536.5" y1="70.6665" x2="536.5" y2="93.9998" stroke="#62F2A6" stroke-width="3"/>
<line x1="536.5" y1="70.6665" x2="536.5" y2="93.9998" stroke="#62F2A6" stroke-width="3"/>
<line x1="536.5" y1="94" x2="536.5" y2="117.333" stroke="#E8A62F" stroke-width="3"/>
<line x1="536.5" y1="70.6665" x2="536.5" y2="93.9998" stroke="#62F2A6" stroke-width="3"/>
<line x1="536.5" y1="70.6665" x2="536.5" y2="93.9998" stroke="#62F2A6" stroke-width="3"/>
<line x1="536.5" y1="70.6665" x2="536.5" y2="93.9998" stroke="#C6344A" stroke-width="3"/>
<line x1="564.5" y1="70.6665" x2="564.5" y2="93.9998" stroke="#62F2A6" stroke-width="3"/>
<line x1="564.5" y1="94" x2="564.5" y2="117.333" stroke="#EFE123" stroke-width="3"/>
<line x1="527.167" y1="70.6665" x2="527.167" y2="93.9998" stroke="#62F2A6" stroke-width="3"/>
<line x1="527.167" y1="94" x2="527.167" y2="117.333" stroke="#EFE123" stroke-width="3"/>
<line x1="527.167" y1="70.6665" x2="527.167" y2="93.9998" stroke="#62F2A6" stroke-width="3"/>
<line x1="527.167" y1="70.6665" x2="527.167" y2="93.9998" stroke="#62F2A6" stroke-width="3"/>
<line x1="527.167" y1="94" x2="527.167" y2="117.333" stroke="#EFE123" stroke-width="3"/>
<line x1="527.167" y1="70.6665" x2="527.167" y2="93.9998" stroke="#62F2A6" stroke-width="3"/>
<line x1="527.167" y1="70.6665" x2="527.167" y2="93.9998" stroke="#62F2A6" stroke-width="3"/>
<line x1="508.5" y1="70.6665" x2="508.5" y2="93.9998" stroke="#62F2A6" stroke-width="3"/>
<line x1="508.5" y1="94" x2="508.5" y2="117.333" stroke="#EFE123" stroke-width="3"/>
<line x1="508.5" y1="70.6665" x2="508.5" y2="93.9998" stroke="#62F2A6" stroke-width="3"/>
<line x1="508.5" y1="70.6665" x2="508.5" y2="93.9998" stroke="#62F2A6" stroke-width="3"/>
<line x1="508.5" y1="94" x2="508.5" y2="117.333" stroke="#EFE123" stroke-width="3"/>
<line x1="508.5" y1="70.6665" x2="508.5" y2="93.9998" stroke="#62F2A6" stroke-width="3"/>
<line x1="508.5" y1="70.6665" x2="508.5" y2="93.9998" stroke="#62F2A6" stroke-width="3"/>
<line x1="508.5" y1="70.6665" x2="508.5" y2="93.9998" stroke="#62F2A6" stroke-width="3"/>
<line x1="499.167" y1="70.6665" x2="499.167" y2="93.9998" stroke="#62F2A6" stroke-width="3"/>
<line x1="499.167" y1="94" x2="499.167" y2="117.333" stroke="#EFE123" stroke-width="3"/>
<line x1="499.167" y1="70.6665" x2="499.167" y2="93.9998" stroke="#62F2A6" stroke-width="3"/>
<line x1="499.167" y1="70.6665" x2="499.167" y2="93.9998" stroke="#62F2A6" stroke-width="3"/>
<line x1="499.167" y1="94" x2="499.167" y2="117.333" stroke="#C6344A" stroke-width="3"/>
<line x1="499.167" y1="70.6665" x2="499.167" y2="93.9998" stroke="#62F2A6" stroke-width="3"/>
<line x1="499.167" y1="70.6665" x2="499.167" y2="93.9998" stroke="#62F2A6" stroke-width="3"/>
<line x1="499.167" y1="70.6665" x2="499.167" y2="93.9998" stroke="#E8A62F" stroke-width="3"/>
<line x1="489.833" y1="70.6665" x2="489.833" y2="93.9998" stroke="#62F2A6" stroke-width="3"/>
<line x1="489.833" y1="94" x2="489.833" y2="117.333" stroke="#EFE123" stroke-width="3"/>
<line x1="489.833" y1="70.6665" x2="489.833" y2="93.9998" stroke="#62F2A6" stroke-width="3"/>
<line x1="489.833" y1="70.6665" x2="489.833" y2="93.9998" stroke="#62F2A6" stroke-width="3"/>
<line x1="489.833" y1="94" x2="489.833" y2="117.333" stroke="#C6344A" stroke-width="3"/>
<line x1="489.833" y1="70.6665" x2="489.833" y2="93.9998" stroke="#62F2A6" stroke-width="3"/>
<line x1="489.833" y1="70.6665" x2="489.833" y2="93.9998" stroke="#62F2A6" stroke-width="3"/>
<line x1="489.833" y1="70.6665" x2="489.833" y2="93.9998" stroke="#E8A62F" stroke-width="3"/>
<line x1="517.833" y1="70.6665" x2="517.833" y2="93.9998" stroke="#62F2A6" stroke-width="3"/>
<line x1="517.833" y1="94" x2="517.833" y2="117.333" stroke="#EFE123" stroke-width="3"/>
<line x1="480.5" y1="70.6665" x2="480.5" y2="93.9998" stroke="#62F2A6" stroke-width="3"/>
<line x1="480.5" y1="94" x2="480.5" y2="117.333" stroke="#EFE123" stroke-width="3"/>
<line x1="480.5" y1="70.6665" x2="480.5" y2="93.9998" stroke="#62F2A6" stroke-width="3"/>
<line x1="480.5" y1="70.6665" x2="480.5" y2="93.9998" stroke="#62F2A6" stroke-width="3"/>
<line x1="480.5" y1="94" x2="480.5" y2="117.333" stroke="#EFE123" stroke-width="3"/>
<line x1="480.5" y1="70.6665" x2="480.5" y2="93.9998" stroke="#62F2A6" stroke-width="3"/>
<line x1="480.5" y1="70.6665" x2="480.5" y2="93.9998" stroke="#62F2A6" stroke-width="3"/>
<line x1="480.5" y1="70.6665" x2="480.5" y2="93.9998" stroke="#62F2A6" stroke-width="3"/>
<line x1="461.833" y1="70.6665" x2="461.833" y2="93.9998" stroke="#62F2A6" stroke-width="3"/>
<line x1="461.833" y1="94" x2="461.833" y2="117.333" stroke="#EFE123" stroke-width="3"/>
<line x1="461.833" y1="70.6665" x2="461.833" y2="93.9998" stroke="#62F2A6" stroke-width="3"/>
<line x1="461.833" y1="70.6665" x2="461.833" y2="93.9998" stroke="#62F2A6" stroke-width="3"/>
<line x1="461.833" y1="94" x2="461.833" y2="117.333" stroke="#E8A62F" stroke-width="3"/>
<line x1="461.833" y1="70.6665" x2="461.833" y2="93.9998" stroke="#62F2A6" stroke-width="3"/>
<line x1="461.833" y1="70.6665" x2="461.833" y2="93.9998" stroke="#62F2A6" stroke-width="3"/>
<line x1="461.833" y1="70.6665" x2="461.833" y2="93.9998" stroke="#C6344A" stroke-width="3"/>
<line x1="452.5" y1="70.6665" x2="452.5" y2="93.9998" stroke="#62F2A6" stroke-width="3"/>
<line x1="452.5" y1="94" x2="452.5" y2="117.333" stroke="#EFE123" stroke-width="3"/>
<line x1="452.5" y1="70.6665" x2="452.5" y2="93.9998" stroke="#62F2A6" stroke-width="3"/>
<line x1="452.5" y1="70.6665" x2="452.5" y2="93.9998" stroke="#62F2A6" stroke-width="3"/>
<line x1="452.5" y1="70.6665" x2="452.5" y2="93.9998" stroke="#62F2A6" stroke-width="3"/>
<line x1="452.5" y1="70.6665" x2="452.5" y2="93.9998" stroke="#62F2A6" stroke-width="3"/>
<line x1="452.5" y1="70.6665" x2="452.5" y2="93.9998" stroke="#62F2A6" stroke-width="3"/>
<line x1="443.167" y1="70.6665" x2="443.167" y2="93.9998" stroke="#62F2A6" stroke-width="3"/>
<line x1="443.167" y1="94" x2="443.167" y2="117.333" stroke="#EFE123" stroke-width="3"/>
<line x1="443.167" y1="70.6665" x2="443.167" y2="93.9998" stroke="#62F2A6" stroke-width="3"/>
<line x1="443.167" y1="70.6665" x2="443.167" y2="93.9998" stroke="#62F2A6" stroke-width="3"/>
<line x1="443.167" y1="94" x2="443.167" y2="117.333" stroke="#E8A62F" stroke-width="3"/>
<line x1="443.167" y1="70.6665" x2="443.167" y2="93.9998" stroke="#62F2A6" stroke-width="3"/>
<line x1="443.167" y1="70.6665" x2="443.167" y2="93.9998" stroke="#62F2A6" stroke-width="3"/>
<line x1="443.167" y1="70.6665" x2="443.167" y2="93.9998" stroke="#C6344A" stroke-width="3"/>
<line x1="471.167" y1="70.6665" x2="471.167" y2="93.9998" stroke="#E8A62F" stroke-width="3"/>
<line x1="471.167" y1="94" x2="471.167" y2="117.333" stroke="#C6344A" stroke-width="3"/>
<line x1="433.833" y1="70.6665" x2="433.833" y2="93.9998" stroke="#62F2A6" stroke-width="3"/>
<line x1="433.833" y1="94" x2="433.833" y2="117.333" stroke="#EFE123" stroke-width="3"/>
<line x1="433.833" y1="70.6665" x2="433.833" y2="93.9998" stroke="#62F2A6" stroke-width="3"/>
<line x1="433.833" y1="70.6665" x2="433.833" y2="93.9998" stroke="#62F2A6" stroke-width="3"/>
<line x1="433.833" y1="94" x2="433.833" y2="117.333" stroke="#C6344A" stroke-width="3"/>
<line x1="433.833" y1="70.6665" x2="433.833" y2="93.9998" stroke="#62F2A6" stroke-width="3"/>
<line x1="433.833" y1="70.6665" x2="433.833" y2="93.9998" stroke="#E8A62F" stroke-width="3"/>
<line x1="415.167" y1="70.6665" x2="415.167" y2="93.9998" stroke="#62F2A6" stroke-width="3"/>
<line x1="415.167" y1="94" x2="415.167" y2="117.333" stroke="#EFE123" stroke-width="3"/>
<line x1="415.167" y1="70.6665" x2="415.167" y2="93.9998" stroke="#62F2A6" stroke-width="3"/>
<line x1="415.167" y1="70.6665" x2="415.167" y2="93.9998" stroke="#62F2A6" stroke-width="3"/>
<line x1="415.167" y1="94" x2="415.167" y2="117.333" stroke="#EFE123" stroke-width="3"/>
<line x1="415.167" y1="70.6665" x2="415.167" y2="93.9998" stroke="#62F2A6" stroke-width="3"/>
<line x1="415.167" y1="70.6665" x2="415.167" y2="93.9998" stroke="#62F2A6" stroke-width="3"/>
<line x1="415.167" y1="70.6665" x2="415.167" y2="93.9998" stroke="#62F2A6" stroke-width="3"/>
<line x1="405.833" y1="70.6665" x2="405.833" y2="93.9998" stroke="#62F2A6" stroke-width="3"/>
<line x1="405.833" y1="94" x2="405.833" y2="117.333" stroke="#EFE123" stroke-width="3"/>
<line x1="405.833" y1="70.6665" x2="405.833" y2="93.9998" stroke="#62F2A6" stroke-width="3"/>
<line x1="405.833" y1="70.6665" x2="405.833" y2="93.9998" stroke="#62F2A6" stroke-width="3"/>
<line x1="405.833" y1="94" x2="405.833" y2="117.333" stroke="#C6344A" stroke-width="3"/>
<line x1="405.833" y1="70.6665" x2="405.833" y2="93.9998" stroke="#62F2A6" stroke-width="3"/>
<line x1="405.833" y1="70.6665" x2="405.833" y2="93.9998" stroke="#62F2A6" stroke-width="3"/>
<line x1="405.833" y1="70.6665" x2="405.833" y2="93.9998" stroke="#E8A62F" stroke-width="3"/>
<line x1="396.5" y1="70.6665" x2="396.5" y2="93.9998" stroke="#62F2A6" stroke-width="3"/>
<line x1="396.5" y1="94" x2="396.5" y2="117.333" stroke="#EFE123" stroke-width="3"/>
<line x1="396.5" y1="70.6665" x2="396.5" y2="93.9998" stroke="#62F2A6" stroke-width="3"/>
<line x1="396.5" y1="70.6665" x2="396.5" y2="93.9998" stroke="#62F2A6" stroke-width="3"/>
<line x1="396.5" y1="94" x2="396.5" y2="117.333" stroke="#C6344A" stroke-width="3"/>
<line x1="396.5" y1="70.6665" x2="396.5" y2="93.9998" stroke="#62F2A6" stroke-width="3"/>
<line x1="396.5" y1="70.6665" x2="396.5" y2="93.9998" stroke="#62F2A6" stroke-width="3"/>
<line x1="396.5" y1="70.6665" x2="396.5" y2="93.9998" stroke="#E8A62F" stroke-width="3"/>
<line x1="424.5" y1="70.6665" x2="424.5" y2="93.9998" stroke="#62F2A6" stroke-width="3"/>
<line x1="424.5" y1="94" x2="424.5" y2="117.333" stroke="#EFE123" stroke-width="3"/>
<line x1="387.167" y1="70.6665" x2="387.167" y2="93.9998" stroke="#62F2A6" stroke-width="3"/>
<line x1="387.167" y1="94" x2="387.167" y2="117.333" stroke="#EFE123" stroke-width="3"/>
<line x1="387.167" y1="70.6665" x2="387.167" y2="93.9998" stroke="#62F2A6" stroke-width="3"/>
<line x1="387.167" y1="70.6665" x2="387.167" y2="93.9998" stroke="#62F2A6" stroke-width="3"/>
<line x1="387.167" y1="94" x2="387.167" y2="117.333" stroke="#61ECA1" stroke-width="3"/>
<line x1="387.167" y1="70.6665" x2="387.167" y2="93.9998" stroke="#62F2A6" stroke-width="3"/>
<line x1="387.167" y1="70.6665" x2="387.167" y2="93.9998" stroke="#62F2A6" stroke-width="3"/>
<line x1="387.167" y1="70.6665" x2="387.167" y2="93.9998" stroke="#EDDE22" stroke-width="3"/>
<line x1="368.5" y1="70.6665" x2="368.5" y2="93.9998" stroke="#62F2A6" stroke-width="3"/>
<line x1="368.5" y1="94" x2="368.5" y2="117.333" stroke="#EFE123" stroke-width="3"/>
<line x1="368.5" y1="70.6665" x2="368.5" y2="93.9998" stroke="#62F2A6" stroke-width="3"/>
<line x1="368.5" y1="70.6665" x2="368.5" y2="93.9998" stroke="#62F2A6" stroke-width="3"/>
<line x1="368.5" y1="94" x2="368.5" y2="117.333" stroke="#EFE123" stroke-width="3"/>
<line x1="368.5" y1="70.6665" x2="368.5" y2="93.9998" stroke="#62F2A6" stroke-width="3"/>
<line x1="368.5" y1="70.6665" x2="368.5" y2="93.9998" stroke="#62F2A6" stroke-width="3"/>
<line x1="368.5" y1="70.6665" x2="368.5" y2="93.9998" stroke="#62F2A6" stroke-width="3"/>
<line x1="359.167" y1="70.6665" x2="359.167" y2="93.9998" stroke="#62F2A6" stroke-width="3"/>
<line x1="359.167" y1="94" x2="359.167" y2="117.333" stroke="#E8A62F" stroke-width="3"/>
<line x1="359.167" y1="70.6665" x2="359.167" y2="93.9998" stroke="#62F2A6" stroke-width="3"/>
<line x1="359.167" y1="70.6665" x2="359.167" y2="93.9998" stroke="#62F2A6" stroke-width="3"/>
<line x1="359.167" y1="70.6665" x2="359.167" y2="93.9998" stroke="#62F2A6" stroke-width="3"/>
<line x1="359.167" y1="70.6665" x2="359.167" y2="93.9998" stroke="#62F2A6" stroke-width="3"/>
<line x1="359.167" y1="70.6665" x2="359.167" y2="93.9998" stroke="#C6344A" stroke-width="3"/>
<line x1="349.833" y1="70.6665" x2="349.833" y2="93.9998" stroke="#62F2A6" stroke-width="3"/>
<line x1="349.833" y1="94" x2="349.833" y2="117.333" stroke="#EFE123" stroke-width="3"/>
<line x1="349.833" y1="70.6665" x2="349.833" y2="93.9998" stroke="#62F2A6" stroke-width="3"/>
<line x1="349.833" y1="70.6665" x2="349.833" y2="93.9998" stroke="#62F2A6" stroke-width="3"/>
<line x1="349.833" y1="94" x2="349.833" y2="117.333" stroke="#E8A62F" stroke-width="3"/>
<line x1="349.833" y1="70.6665" x2="349.833" y2="93.9998" stroke="#62F2A6" stroke-width="3"/>
<line x1="349.833" y1="70.6665" x2="349.833" y2="93.9998" stroke="#62F2A6" stroke-width="3"/>
<line x1="349.833" y1="70.6665" x2="349.833" y2="93.9998" stroke="#C6344A" stroke-width="3"/>
<line x1="377.833" y1="70.6665" x2="377.833" y2="93.9998" stroke="#62F2A6" stroke-width="3"/>
<line x1="377.833" y1="94" x2="377.833" y2="117.333" stroke="#EFE123" stroke-width="3"/>
<line x1="340.5" y1="70.6665" x2="340.5" y2="93.9998" stroke="#62F2A6" stroke-width="3"/>
<line x1="340.5" y1="94" x2="340.5" y2="117.333" stroke="#EFE123" stroke-width="3"/>
<line x1="340.5" y1="70.6665" x2="340.5" y2="93.9998" stroke="#62F2A6" stroke-width="3"/>
<line x1="340.5" y1="70.6665" x2="340.5" y2="93.9998" stroke="#62F2A6" stroke-width="3"/>
<line x1="340.5" y1="94" x2="340.5" y2="117.333" stroke="#EFE123" stroke-width="3"/>
<line x1="340.5" y1="70.6665" x2="340.5" y2="93.9998" stroke="#62F2A6" stroke-width="3"/>
<line x1="340.5" y1="70.6665" x2="340.5" y2="93.9998" stroke="#62F2A6" stroke-width="3"/>
<line x1="321.833" y1="70.6665" x2="321.833" y2="93.9998" stroke="#62F2A6" stroke-width="3"/>
<line x1="321.833" y1="94" x2="321.833" y2="117.333" stroke="#EFE123" stroke-width="3"/>
<line x1="321.833" y1="70.6665" x2="321.833" y2="93.9998" stroke="#62F2A6" stroke-width="3"/>
<line x1="321.833" y1="70.6665" x2="321.833" y2="93.9998" stroke="#62F2A6" stroke-width="3"/>
<line x1="321.833" y1="94" x2="321.833" y2="117.333" stroke="#EFE123" stroke-width="3"/>
<line x1="321.833" y1="70.6665" x2="321.833" y2="93.9998" stroke="#62F2A6" stroke-width="3"/>
<line x1="321.833" y1="70.6665" x2="321.833" y2="93.9998" stroke="#62F2A6" stroke-width="3"/>
<line x1="321.833" y1="70.6665" x2="321.833" y2="93.9998" stroke="#62F2A6" stroke-width="3"/>
<line x1="312.5" y1="70.6665" x2="312.5" y2="93.9998" stroke="#62F2A6" stroke-width="3"/>
<line x1="312.5" y1="94" x2="312.5" y2="117.333" stroke="#EFE123" stroke-width="3"/>
<line x1="312.5" y1="70.6665" x2="312.5" y2="93.9998" stroke="#62F2A6" stroke-width="3"/>
<line x1="312.5" y1="70.6665" x2="312.5" y2="93.9998" stroke="#62F2A6" stroke-width="3"/>
<line x1="312.5" y1="94" x2="312.5" y2="117.333" stroke="#C6344A" stroke-width="3"/>
<line x1="312.5" y1="70.6665" x2="312.5" y2="93.9998" stroke="#62F2A6" stroke-width="3"/>
<line x1="312.5" y1="70.6665" x2="312.5" y2="93.9998" stroke="#62F2A6" stroke-width="3"/>
<line x1="312.5" y1="70.6665" x2="312.5" y2="93.9998" stroke="#E8A62F" stroke-width="3"/>
<line x1="303.167" y1="70.6665" x2="303.167" y2="93.9998" stroke="#62F2A6" stroke-width="3"/>
<line x1="303.167" y1="94" x2="303.167" y2="117.333" stroke="#EFE123" stroke-width="3"/>
<line x1="303.167" y1="70.6665" x2="303.167" y2="93.9998" stroke="#62F2A6" stroke-width="3"/>
<line x1="303.167" y1="70.6665" x2="303.167" y2="93.9998" stroke="#62F2A6" stroke-width="3"/>
<line x1="303.167" y1="94" x2="303.167" y2="117.333" stroke="#EFE123" stroke-width="3"/>
<line x1="303.167" y1="70.6665" x2="303.167" y2="93.9998" stroke="#62F2A6" stroke-width="3"/>
<line x1="303.167" y1="70.6665" x2="303.167" y2="93.9998" stroke="#62F2A6" stroke-width="3"/>
<line x1="303.167" y1="70.6665" x2="303.167" y2="93.9998" stroke="#62F2A6" stroke-width="3"/>
<line x1="331.167" y1="70.6665" x2="331.167" y2="93.9998" stroke="#EDDE22" stroke-width="3"/>
<line x1="331.167" y1="94" x2="331.167" y2="117.333" stroke="#61ECA1" stroke-width="3"/>
<line x1="293.833" y1="70.6665" x2="293.833" y2="93.9998" stroke="#62F2A6" stroke-width="3"/>
<line x1="293.833" y1="94" x2="293.833" y2="117.333" stroke="#EFE123" stroke-width="3"/>
<line x1="293.833" y1="70.6665" x2="293.833" y2="93.9998" stroke="#62F2A6" stroke-width="3"/>
<line x1="293.833" y1="70.6665" x2="293.833" y2="93.9998" stroke="#62F2A6" stroke-width="3"/>
<line x1="293.833" y1="94" x2="293.833" y2="117.333" stroke="#E8A62F" stroke-width="3"/>
<line x1="293.833" y1="70.6665" x2="293.833" y2="93.9998" stroke="#62F2A6" stroke-width="3"/>
<line x1="293.833" y1="70.6665" x2="293.833" y2="93.9998" stroke="#62F2A6" stroke-width="3"/>
<line x1="293.833" y1="70.6665" x2="293.833" y2="93.9998" stroke="#C6344A" stroke-width="3"/>
<line x1="284.5" y1="70.6665" x2="284.5" y2="93.9998" stroke="#62F2A6" stroke-width="3"/>
<line x1="275.167" y1="67.3333" x2="275.167" y2="90.6666" stroke="#EDDE22" stroke-width="3"/>
<line x1="265.833" y1="55.3333" x2="265.833" y2="78.6666" stroke="#62F2A6" stroke-width="3"/>
<line x1="256.5" y1="43.3333" x2="256.5" y2="66.6666" stroke="#C6344A" stroke-width="3"/>
<line x1="247.167" y1="34" x2="247.167" y2="57.3333" stroke="#E8A62F" stroke-width="3"/>
<path d="M236.333 23.9961L236.333 50.6628" stroke="#C6344A" stroke-width="3"/>
<line x1="224.5" y1="26" x2="224.5" y2="49.3333" stroke="#62F2A6" stroke-width="3"/>
<line x1="215.167" y1="26" x2="215.167" y2="49.3333" stroke="#EDDE22" stroke-width="3"/>
<line x1="205.833" y1="26" x2="205.833" y2="49.3333" stroke="#62F2A6" stroke-width="3"/>
<line x1="284.5" y1="94" x2="284.5" y2="117.333" stroke="#EFE123" stroke-width="3"/>
<line x1="196.5" y1="26" x2="196.5" y2="49.3333" stroke="#62F2A6" stroke-width="3"/>
<line x1="187.167" y1="26" x2="187.167" y2="49.3333" stroke="#E8A62F" stroke-width="3"/>
<line x1="177.833" y1="26" x2="177.833" y2="49.3333" stroke="#62F2A6" stroke-width="3"/>
<line x1="168.5" y1="26" x2="168.5" y2="49.3333" stroke="#EDDE22" stroke-width="3"/>
<line x1="717" y1="65.875" x2="276.999" y2="65.875" stroke="#79CCDB" stroke-width="10"/>
<line x1="121.833" y1="26" x2="121.833" y2="49.3333" stroke="#62F2A6" stroke-width="3"/>
<line x1="112.5" y1="26" x2="112.5" y2="49.3333" stroke="#62F2A6" stroke-width="3"/>
<line x1="103.167" y1="26" x2="103.167" y2="49.3333" stroke="#EDDE22" stroke-width="3"/>
<line x1="93.8333" y1="26" x2="93.8333" y2="49.3333" stroke="#EDDE22" stroke-width="3"/>
<line x1="84.5" y1="26" x2="84.5" y2="49.3333" stroke="#62F2A6" stroke-width="3"/>
<line x1="75.1667" y1="26" x2="75.1667" y2="49.3333" stroke="#EDDE22" stroke-width="3"/>
<line x1="65.8333" y1="26" x2="65.8333" y2="49.3333" stroke="#62F2A6" stroke-width="3"/>
<line x1="56.5" y1="26" x2="56.5" y2="49.3333" stroke="#E8A62F" stroke-width="3"/>
<line x1="37.8333" y1="138.667" x2="37.8333" y2="162" stroke="#E8A62F" stroke-width="3"/>
<line x1="28.5" y1="138.667" x2="28.5" y2="162" stroke="#EDDE22" stroke-width="3"/>
<line x1="47.1667" y1="26" x2="47.1667" y2="49.3333" stroke="#62F2A6" stroke-width="3"/>
<line x1="37.8333" y1="26" x2="37.8333" y2="49.3333" stroke="#C6344A" stroke-width="3"/>
<line x1="28.5" y1="26" x2="28.5" y2="49.3333" stroke="#62F2A6" stroke-width="3"/>
<line x1="159.167" y1="26" x2="159.167" y2="49.3333" stroke="#C6344A" stroke-width="3"/>
<line x1="149.833" y1="26" x2="149.833" y2="49.3333" stroke="#C6344A" stroke-width="3"/>
<line x1="140.5" y1="26" x2="140.5" y2="49.3333" stroke="#E8A62F" stroke-width="3"/>
<line x1="131.167" y1="26" x2="131.167" y2="49.3333" stroke="#E8A62F" stroke-width="3"/>
<path d="M281.667 67.6667C281.667 67.6667 257.695 36.1609 251 30.3333C244.639 24.7969 240.539 23.0234 233.473 21.276C232.718 21.0893 231.94 21 231.163 21L27 21" stroke="#79CCDB" stroke-width="10"/>
<line y1="-1.5" x2="23.3333" y2="-1.5" transform="matrix(0 -1 -1 0 273.667 120.667)" stroke="#62F2A6" stroke-width="3"/>
<line y1="-1.5" x2="23.3333" y2="-1.5" transform="matrix(0 -1 -1 0 264.333 132.667)" stroke="#EDDE22" stroke-width="3"/>
<line y1="-1.5" x2="23.3333" y2="-1.5" transform="matrix(0 -1 -1 0 255 144.667)" stroke="#E8A62F" stroke-width="3"/>
<line y1="-1.5" x2="23.3333" y2="-1.5" transform="matrix(0 -1 -1 0 245.667 154)" stroke="#C6344A" stroke-width="3"/>
<path d="M236.333 164.004V137.337" stroke="#E8A62F" stroke-width="3"/>
<line y1="-1.5" x2="23.3333" y2="-1.5" transform="matrix(0 -1 -1 0 223 162)" stroke="#EDDE22" stroke-width="3"/>
<line y1="-1.5" x2="23.3333" y2="-1.5" transform="matrix(0 -1 -1 0 213.667 162)" stroke="#62F2A6" stroke-width="3"/>
<line y1="-1.5" x2="23.3333" y2="-1.5" transform="matrix(0 -1 -1 0 204.333 162)" stroke="#EDDE22" stroke-width="3"/>
<line y1="-1.5" x2="23.3333" y2="-1.5" transform="matrix(0 -1 -1 0 195 162)" stroke="#EDDE22" stroke-width="3"/>
<line y1="-1.5" x2="23.3333" y2="-1.5" transform="matrix(0 -1 -1 0 185.667 162)" stroke="#C6344A" stroke-width="3"/>
<line y1="-1.5" x2="23.3333" y2="-1.5" transform="matrix(0 -1 -1 0 176.333 162)" stroke="#EDDE22" stroke-width="3"/>
<line y1="-1.5" x2="23.3333" y2="-1.5" transform="matrix(0 -1 -1 0 167 162)" stroke="#62F2A6" stroke-width="3"/>
<line y1="-1.5" x2="23.3333" y2="-1.5" transform="matrix(0 -1 -1 0 120.333 162)" stroke="#EDDE22" stroke-width="3"/>
<line y1="-1.5" x2="23.3333" y2="-1.5" transform="matrix(0 -1 -1 0 111 162)" stroke="#EDDE22" stroke-width="3"/>
<line y1="-1.5" x2="23.3333" y2="-1.5" transform="matrix(0 -1 -1 0 101.667 162)" stroke="#62F2A6" stroke-width="3"/>
<line y1="-1.5" x2="23.3333" y2="-1.5" transform="matrix(0 -1 -1 0 92.3333 162)" stroke="#62F2A6" stroke-width="3"/>
<line y1="-1.5" x2="23.3333" y2="-1.5" transform="matrix(0 -1 -1 0 83 162)" stroke="#EDDE22" stroke-width="3"/>
<line y1="-1.5" x2="23.3333" y2="-1.5" transform="matrix(0 -1 -1 0 73.6667 162)" stroke="#62F2A6" stroke-width="3"/>
<line y1="-1.5" x2="23.3333" y2="-1.5" transform="matrix(0 -1 -1 0 64.3333 162)" stroke="#EDDE22" stroke-width="3"/>
<line y1="-1.5" x2="23.3333" y2="-1.5" transform="matrix(0 -1 -1 0 55 162)" stroke="#C6344A" stroke-width="3"/>
<line y1="-1.5" x2="23.3333" y2="-1.5" transform="matrix(0 -1 -1 0 45.6667 162)" stroke="#EDDE22" stroke-width="3"/>
<line y1="-1.5" x2="23.3333" y2="-1.5" transform="matrix(0 -1 -1 0 157.667 162)" stroke="#E8A62F" stroke-width="3"/>
<line y1="-1.5" x2="23.3333" y2="-1.5" transform="matrix(0 -1 -1 0 148.333 162)" stroke="#E8A62F" stroke-width="3"/>
<line y1="-1.5" x2="23.3333" y2="-1.5" transform="matrix(0 -1 -1 0 139 162)" stroke="#C6344A" stroke-width="3"/>
<line y1="-1.5" x2="23.3333" y2="-1.5" transform="matrix(0 -1 -1 0 129.667 162)" stroke="#C6344A" stroke-width="3"/>
<path d="M281.667 120.333C281.667 120.333 257.695 151.839 251 157.667C244.639 163.203 240.539 164.977 233.473 166.724C232.718 166.911 231.94 167 231.163 167L27 167" stroke="#79CCDB" stroke-width="10"/>
<path d="M717 122.083L279 122.083" stroke="#79CCDB" stroke-width="10"/>
</g>
<path d="M6.98242 22.0664C8.69466 22.0664 9.55078 21.3242 9.55078 19.8398C9.55078 19.1367 9.45964 18.6257 9.27734 18.3066C9.10156 17.9811 8.78906 17.7467 8.33984 17.6035C7.89062 17.4538 7.23958 17.3789 6.38672 17.3789V15.4355C7.96224 15.4355 8.89974 15.1947 9.19922 14.7129C9.38151 14.4134 9.47266 13.9609 9.47266 13.3555C9.47266 12.7435 9.28711 12.2845 8.91602 11.9785C8.54492 11.666 7.89062 11.5098 6.95312 11.5098C6.01562 11.5098 5.36133 11.6855 4.99023 12.0371C4.62565 12.3822 4.44661 13.0072 4.45312 13.9121H1.83594C1.84896 12.2194 2.30469 11.0312 3.20312 10.3477C4.10156 9.66406 5.34505 9.32227 6.93359 9.32227C8.52865 9.32227 9.80143 9.67057 10.752 10.3672C11.7025 11.0573 12.1777 12.0176 12.1777 13.248C12.1777 14.2376 11.9889 14.9701 11.6113 15.4453C11.2337 15.9141 10.6934 16.2266 9.99023 16.3828C11.5332 16.7995 12.3047 17.9518 12.3047 19.8398C12.3047 21.1484 11.888 22.2129 11.0547 23.0332C10.2214 23.8535 8.89648 24.2637 7.08008 24.2637C5.26367 24.2637 3.93555 23.8796 3.0957 23.1113C2.25586 22.3366 1.81641 21.2135 1.77734 19.7422H4.39453C4.40755 20.6276 4.61263 21.2363 5.00977 21.5684C5.41341 21.9004 6.07096 22.0664 6.98242 22.0664ZM17.5977 15.8066L16.5527 15.3574C16.8848 14.9798 17.2038 14.4785 17.5098 13.8535C17.8223 13.222 17.9785 12.6068 17.9785 12.0078H16.3672V9.3125H19.5117V11.4902C19.5117 12.3561 19.2969 13.1992 18.8672 14.0195C18.4375 14.8333 18.0143 15.429 17.5977 15.8066Z" fill="white"/>
<path d="M729.982 131.066C731.695 131.066 732.551 130.324 732.551 128.84C732.551 128.137 732.46 127.626 732.277 127.307C732.102 126.981 731.789 126.747 731.34 126.604C730.891 126.454 730.24 126.379 729.387 126.379V124.436C730.962 124.436 731.9 124.195 732.199 123.713C732.382 123.413 732.473 122.961 732.473 122.355C732.473 121.743 732.287 121.285 731.916 120.979C731.545 120.666 730.891 120.51 729.953 120.51C729.016 120.51 728.361 120.686 727.99 121.037C727.626 121.382 727.447 122.007 727.453 122.912H724.836C724.849 121.219 725.305 120.031 726.203 119.348C727.102 118.664 728.345 118.322 729.934 118.322C731.529 118.322 732.801 118.671 733.752 119.367C734.702 120.057 735.178 121.018 735.178 122.248C735.178 123.238 734.989 123.97 734.611 124.445C734.234 124.914 733.693 125.227 732.99 125.383C734.533 125.799 735.305 126.952 735.305 128.84C735.305 130.148 734.888 131.213 734.055 132.033C733.221 132.854 731.896 133.264 730.08 133.264C728.264 133.264 726.936 132.88 726.096 132.111C725.256 131.337 724.816 130.214 724.777 128.742H727.395C727.408 129.628 727.613 130.236 728.01 130.568C728.413 130.9 729.071 131.066 729.982 131.066ZM740.598 124.807L739.553 124.357C739.885 123.98 740.204 123.479 740.51 122.854C740.822 122.222 740.979 121.607 740.979 121.008H739.367V118.312H742.512V120.49C742.512 121.356 742.297 122.199 741.867 123.02C741.438 123.833 741.014 124.429 740.598 124.807Z" fill="white"/>
<path d="M728.99 62.6016C729.55 62.0156 730.52 61.7227 731.9 61.7227C733.287 61.7227 734.404 62.1719 735.25 63.0703C736.103 63.9688 736.529 65.1178 736.529 66.5176C736.529 67.9173 736.038 69.0599 735.055 69.9453C734.072 70.8242 732.75 71.2637 731.09 71.2637C730.068 71.2637 729.068 71.1139 728.092 70.8145C727.115 70.515 726.386 70.1895 725.904 69.8379L726.676 67.8945C728.004 68.6888 729.423 69.0859 730.934 69.0859C732.77 69.0859 733.691 68.2103 733.697 66.459V66.4492C733.697 65.7526 733.473 65.1992 733.023 64.7891C732.581 64.3724 732.018 64.1641 731.334 64.1641C730.156 64.1641 729.212 64.4993 728.502 65.1699L726.412 64.125L727.203 56.5859H735.426V58.9883H729.391L728.99 62.6016ZM741.598 62.8066L740.553 62.3574C740.885 61.9798 741.204 61.4785 741.51 60.8535C741.822 60.222 741.979 59.6068 741.979 59.0078H740.367V56.3125H743.512V58.4902C743.512 59.3561 743.297 60.1992 742.867 61.0195C742.438 61.8333 742.014 62.429 741.598 62.8066Z" fill="white"/>
<path d="M4.99023 169.602C5.55013 169.016 6.52018 168.723 7.90039 168.723C9.28711 168.723 10.4036 169.172 11.25 170.07C12.1029 170.969 12.5293 172.118 12.5293 173.518C12.5293 174.917 12.0378 176.06 11.0547 176.945C10.0716 177.824 8.75 178.264 7.08984 178.264C6.06771 178.264 5.06836 178.114 4.0918 177.814C3.11523 177.515 2.38607 177.189 1.9043 176.838L2.67578 174.895C4.00391 175.689 5.42318 176.086 6.93359 176.086C8.76953 176.086 9.69076 175.21 9.69727 173.459V173.449C9.69727 172.753 9.47266 172.199 9.02344 171.789C8.58073 171.372 8.01758 171.164 7.33398 171.164C6.1556 171.164 5.21159 171.499 4.50195 172.17L2.41211 171.125L3.20312 163.586H11.4258V165.988H5.39062L4.99023 169.602ZM17.5977 169.807L16.5527 169.357C16.8848 168.98 17.2038 168.479 17.5098 167.854C17.8223 167.222 17.9785 166.607 17.9785 166.008H16.3672V163.312H19.5117V165.49C19.5117 166.356 19.2969 167.199 18.8672 168.02C18.4375 168.833 18.0143 169.429 17.5977 169.807Z" fill="white"/>
<g filter="url(#filter1_d)">
<rect x="218" y="81.1018" width="31.3264" height="26.4654" rx="5" fill="#DF0F0F"/>
<path d="M276.233 92.2061C277.748 92.9315 277.748 95.0882 276.233 95.8137L244.871 110.833C243.543 111.469 242.007 110.502 242.007 109.03V78.9901C242.007 77.5182 243.543 76.5505 244.871 77.1863L276.233 92.2061Z" fill="#DF0F0F"/>
<circle cx="261.749" cy="86.5029" r="4.9011" fill="white" stroke="black"/>
<circle cx="263.099" cy="86.7726" r="1.35028" fill="black"/>
<path d="M260.103 97.3076C262.165 97.6518 263.066 97.1582 264.449 95.6848" stroke="black"/>
<circle cx="254.727" cy="84.8821" r="4.9011" fill="white" stroke="black"/>
<circle cx="256.618" cy="85.1525" r="1.35028" fill="black"/>
</g>
<path d="M36.6522 84.6222C40.4215 86.2364 42.535 86.694 46.3043 84.6222V91.5933C42.8731 93.6216 40.8037 93.8868 36.6522 91.5933C32.8828 90.2726 30.7692 90.0062 27 91.5933V84.6222C30.0932 82.5929 32.1184 82.3296 36.6522 84.6222Z" fill="#13D527" stroke="#13D427"/>
<line x1="26.5" y1="84" x2="26.5" y2="103.841" stroke="black"/>
<g filter="url(#filter2_b)">
<path d="M18.457 114.135C16.6367 114.135 15.7266 113.455 15.7266 112.096V109.617C15.7266 108.973 15.9648 108.471 16.4414 108.111C16.9219 107.752 17.5918 107.572 18.4512 107.572C19.3145 107.572 19.9863 107.754 20.4668 108.117C20.9473 108.477 21.1875 108.977 21.1875 109.617V112.096C21.1875 113.107 20.707 113.74 19.7461 113.994C19.3867 114.088 18.957 114.135 18.457 114.135ZM18.457 113.027C19.2148 113.027 19.5938 112.74 19.5938 112.166V109.547C19.5938 109.238 19.498 109.018 19.3066 108.885C19.1152 108.752 18.832 108.686 18.457 108.686C17.6992 108.686 17.3203 108.973 17.3203 109.547V112.166C17.3203 112.475 17.4141 112.695 17.6016 112.828C17.793 112.961 18.0781 113.027 18.457 113.027ZM22.8516 114V107.707H24.4453V108.457C24.5391 108.277 24.7344 108.117 25.0312 107.977C25.543 107.73 26.0371 107.607 26.5137 107.607C26.5684 107.607 26.6191 107.609 26.666 107.613L26.6309 108.967C25.9316 109.002 25.3516 109.133 24.8906 109.359C24.6328 109.484 24.4844 109.625 24.4453 109.781V114H22.8516ZM27.7617 106.811V105.398H29.3555V106.811H27.7617ZM27.7617 114V107.707H29.3555V114H27.7617ZM35.0273 114.152C34.3164 114.152 33.7422 114.102 33.3047 114C32.8672 113.898 32.5156 113.764 32.25 113.596C31.9883 113.428 31.7793 113.213 31.623 112.951C31.4668 112.686 31.3613 112.414 31.3066 112.137C31.2559 111.859 31.2305 111.535 31.2305 111.164V108.275C31.2305 107.244 31.4395 106.521 31.8574 106.107C32.2754 105.689 32.8301 105.422 33.5215 105.305C33.9121 105.234 34.3535 105.201 34.8457 105.205C36.6309 105.205 37.6953 105.693 38.0391 106.67C38.1953 107.107 38.2734 107.631 38.2734 108.24V108.346L36.5684 108.545V108.105C36.5684 107.504 36.4492 107.098 36.2109 106.887C35.9766 106.676 35.5254 106.57 34.8574 106.57C34.1895 106.57 33.707 106.678 33.4102 106.893C33.1172 107.104 32.9707 107.496 32.9707 108.07V111.34C32.9707 111.918 33.1211 112.305 33.4219 112.5C33.7266 112.691 34.209 112.787 34.8691 112.787C35.2168 112.787 35.4922 112.77 35.6953 112.734C35.8984 112.695 36.0684 112.619 36.2051 112.506C36.3457 112.393 36.4414 112.242 36.4922 112.055C36.543 111.867 36.5684 111.617 36.5684 111.305V111.029H38.2734V111.188C38.2734 112.043 38.1465 112.662 37.8926 113.045C37.6426 113.424 37.2812 113.703 36.8086 113.883C36.3359 114.062 35.7422 114.152 35.0273 114.152Z" fill="white"/>
</g>
<path d="M87.9375 192V185.707H89.5312V186.457C89.625 186.277 89.8203 186.117 90.1172 185.977C90.6289 185.73 91.123 185.607 91.5996 185.607C91.6543 185.607 91.7051 185.609 91.752 185.613L91.7168 186.967C91.0176 187.002 90.4375 187.133 89.9766 187.359C89.7188 187.484 89.5703 187.625 89.5312 187.781V192H87.9375ZM94.1953 188.186H96.457V187.447C96.457 187.068 96.3047 186.836 96 186.75C95.8398 186.703 95.5957 186.682 95.2676 186.686C94.9434 186.686 94.6836 186.74 94.4883 186.85C94.293 186.959 94.1953 187.168 94.1953 187.477V188.186ZM94.2305 192.029C93.918 191.963 93.6367 191.852 93.3867 191.695C92.8633 191.375 92.6016 190.82 92.6016 190.031V187.576C92.6016 186.943 92.8418 186.451 93.3223 186.1C93.8027 185.748 94.457 185.572 95.2852 185.572C97.0703 185.572 97.9629 186.26 97.9629 187.635V189.158H94.1953V190.184C94.1953 190.531 94.2812 190.76 94.4531 190.869C94.625 190.975 94.916 191.027 95.3262 191.027C95.7363 191.027 95.9785 191.008 96.0527 190.969C96.2285 190.871 96.3418 190.754 96.3926 190.617C96.4434 190.477 96.4727 190.293 96.4805 190.066H97.957C97.9336 191.035 97.5918 191.648 96.9316 191.906C96.5449 192.055 96.0762 192.129 95.5254 192.129C94.9746 192.133 94.543 192.1 94.2305 192.029ZM102.211 191.027C102.961 191.027 103.336 190.727 103.336 190.125V187.576C103.336 186.982 102.979 186.686 102.264 186.686C102.025 186.686 101.805 186.725 101.602 186.803C101.398 186.881 101.246 186.971 101.145 187.072V190.752C101.488 190.936 101.844 191.027 102.211 191.027ZM99.5508 194.402V185.707H100.664L100.822 186.117C101.318 185.754 101.914 185.572 102.609 185.572C103.309 185.572 103.869 185.758 104.291 186.129C104.717 186.496 104.93 186.986 104.93 187.6V190.09C104.93 190.652 104.715 191.135 104.285 191.537C103.855 191.936 103.209 192.135 102.346 192.135C101.896 192.135 101.496 192.057 101.145 191.9V194.402H99.5508ZM108.744 192.07C108.021 192.07 107.486 191.906 107.139 191.578C106.791 191.25 106.617 190.701 106.617 189.932V183.123H108.211V189.908C108.211 190.26 108.293 190.512 108.457 190.664C108.621 190.812 108.914 190.887 109.336 190.887H109.535L109.412 192.07H108.744ZM110.777 184.811V183.398H112.371V184.811H110.777ZM110.777 192V185.707H112.371V192H110.777ZM114.258 192V183.117H115.852V188.473L118.342 185.707H120.158L117.791 188.42L120.264 192H118.523L116.555 189.088L115.852 189.809V192H114.258ZM122.584 190.277C122.584 190.781 122.857 191.033 123.404 191.033C123.619 191.033 123.846 190.977 124.084 190.863C124.322 190.75 124.51 190.59 124.646 190.383V188.812C124.459 188.965 124.129 189.129 123.656 189.305C123.184 189.477 122.887 189.637 122.766 189.785C122.645 189.93 122.584 190.094 122.584 190.277ZM124.775 191.303C124.592 191.541 124.328 191.74 123.984 191.9C123.645 192.057 123.23 192.135 122.742 192.135C122.254 192.135 121.84 191.977 121.5 191.66C121.164 191.344 120.996 190.939 120.996 190.447C120.996 189.955 121.148 189.561 121.453 189.264C121.762 188.967 122.35 188.682 123.217 188.408C123.744 188.24 124.113 188.09 124.324 187.957C124.539 187.824 124.646 187.641 124.646 187.406C124.646 186.922 124.316 186.682 123.656 186.686C123.285 186.686 123.029 186.758 122.889 186.902C122.748 187.043 122.678 187.248 122.678 187.518V187.764H121.184V187.576C121.184 186.947 121.393 186.457 121.811 186.105C122.229 185.75 122.871 185.572 123.738 185.572C124.605 185.572 125.234 185.756 125.625 186.123C126.02 186.49 126.217 187.018 126.217 187.705V190.195C126.217 190.477 126.252 190.662 126.322 190.752C126.393 190.842 126.527 190.887 126.727 190.887L126.662 192.047H126.328C125.895 192.047 125.557 191.988 125.314 191.871C125.072 191.75 124.893 191.561 124.775 191.303ZM131.109 192.07C130.152 192.07 129.467 191.926 129.053 191.637C128.639 191.348 128.432 190.803 128.432 190.002V186.721H127.594V185.707H128.479L128.625 183.686H130.025V185.707H131.52V186.721H130.025V189.891C130.025 190.281 130.117 190.545 130.301 190.682C130.488 190.818 130.846 190.887 131.373 190.887H131.561L131.502 192.07H131.109ZM132.961 184.811V183.398H134.555V184.811H132.961ZM132.961 192V185.707H134.555V192H132.961ZM137.93 192L135.691 185.707H137.279L138.779 190.441L140.25 185.707H141.756L139.623 192H137.93ZM146.824 187.576C146.824 187.033 146.455 186.762 145.717 186.762C145.4 186.762 145.117 186.846 144.867 187.014C144.617 187.178 144.492 187.404 144.492 187.693V192H142.898V185.707H144.492V186.264C145.027 185.795 145.652 185.561 146.367 185.561C147.082 185.561 147.602 185.744 147.926 186.111C148.254 186.479 148.418 186.938 148.418 187.488V192H146.824V187.576ZM151.553 190.277C151.553 190.781 151.826 191.033 152.373 191.033C152.588 191.033 152.814 190.977 153.053 190.863C153.291 190.75 153.479 190.59 153.615 190.383V188.812C153.428 188.965 153.098 189.129 152.625 189.305C152.152 189.477 151.855 189.637 151.734 189.785C151.613 189.93 151.553 190.094 151.553 190.277ZM153.744 191.303C153.561 191.541 153.297 191.74 152.953 191.9C152.613 192.057 152.199 192.135 151.711 192.135C151.223 192.135 150.809 191.977 150.469 191.66C150.133 191.344 149.965 190.939 149.965 190.447C149.965 189.955 150.117 189.561 150.422 189.264C150.73 188.967 151.318 188.682 152.186 188.408C152.713 188.24 153.082 188.09 153.293 187.957C153.508 187.824 153.615 187.641 153.615 187.406C153.615 186.922 153.285 186.682 152.625 186.686C152.254 186.686 151.998 186.758 151.857 186.902C151.717 187.043 151.646 187.248 151.646 187.518V187.764H150.152V187.576C150.152 186.947 150.361 186.457 150.779 186.105C151.197 185.75 151.84 185.572 152.707 185.572C153.574 185.572 154.203 185.756 154.594 186.123C154.988 186.49 155.186 187.018 155.186 187.705V190.195C155.186 190.477 155.221 190.662 155.291 190.752C155.361 190.842 155.496 190.887 155.695 190.887L155.631 192.047H155.297C154.863 192.047 154.525 191.988 154.283 191.871C154.041 191.75 153.861 191.561 153.744 191.303ZM161.648 192L159.41 185.707H160.998L162.498 190.441L163.969 185.707H165.475L163.342 192H161.648ZM166.652 184.811V183.398H168.246V184.811H166.652ZM166.652 192V185.707H168.246V192H166.652ZM172.271 192.07C171.549 192.07 171.014 191.906 170.666 191.578C170.318 191.25 170.145 190.701 170.145 189.932V183.123H171.738V189.908C171.738 190.26 171.82 190.512 171.984 190.664C172.148 190.812 172.441 190.887 172.863 190.887H173.062L172.939 192.07H172.271ZM174.527 184.811V183.398H176.121V184.811H174.527ZM173.35 194.121L173.273 192.984H173.531C174.203 192.984 174.539 192.637 174.539 191.941V185.707H176.133V192.018C176.133 192.674 175.955 193.188 175.6 193.559C175.244 193.934 174.691 194.121 173.941 194.121H173.35ZM181.916 191.309C181.791 191.566 181.549 191.77 181.189 191.918C180.83 192.062 180.432 192.135 179.994 192.135C179.365 192.135 178.869 191.961 178.506 191.613C178.143 191.266 177.961 190.826 177.961 190.295V185.707H179.555V190.037C179.555 190.338 179.66 190.562 179.871 190.711C180.086 190.859 180.348 190.934 180.656 190.934C180.965 190.934 181.244 190.852 181.494 190.688C181.744 190.52 181.869 190.273 181.869 189.949V185.707H183.463V192H181.963L181.916 191.309ZM186.855 184.494L185.555 182.736H186.58L187.33 183.762L188.127 182.736H189.182L187.811 184.494H186.855ZM187.471 192.135C186.479 192.135 185.66 191.971 185.016 191.643L185.338 190.559C186.072 190.871 186.764 191.027 187.412 191.027C187.908 191.027 188.189 190.807 188.256 190.365C188.264 190.311 188.268 190.26 188.268 190.213C188.268 189.896 188.09 189.682 187.734 189.568L186.352 189.135C185.879 188.986 185.543 188.764 185.344 188.467C185.148 188.17 185.051 187.809 185.051 187.383C185.051 187.367 185.051 187.352 185.051 187.336C185.059 186.16 185.863 185.572 187.465 185.572C188.254 185.572 188.961 185.75 189.586 186.105L189.211 187.096C189.012 186.99 188.74 186.896 188.396 186.814C188.057 186.729 187.736 186.686 187.436 186.686C187.135 186.686 186.916 186.74 186.779 186.85C186.643 186.955 186.574 187.139 186.574 187.4C186.574 187.658 186.719 187.832 187.008 187.922L188.309 188.332C188.828 188.496 189.193 188.727 189.404 189.023C189.619 189.32 189.727 189.734 189.727 190.266C189.727 190.797 189.531 191.242 189.141 191.602C188.75 191.957 188.193 192.135 187.471 192.135ZM191.156 192V183.117H192.75V188.473L195.24 185.707H197.057L194.689 188.42L197.162 192H195.422L193.453 189.088L192.75 189.809V192H191.156ZM199.482 190.277C199.482 190.781 199.756 191.033 200.303 191.033C200.518 191.033 200.744 190.977 200.982 190.863C201.221 190.75 201.408 190.59 201.545 190.383V188.812C201.357 188.965 201.027 189.129 200.555 189.305C200.082 189.477 199.785 189.637 199.664 189.785C199.543 189.93 199.482 190.094 199.482 190.277ZM201.674 191.303C201.49 191.541 201.227 191.74 200.883 191.9C200.543 192.057 200.129 192.135 199.641 192.135C199.152 192.135 198.738 191.977 198.398 191.66C198.062 191.344 197.895 190.939 197.895 190.447C197.895 189.955 198.047 189.561 198.352 189.264C198.66 188.967 199.248 188.682 200.115 188.408C200.643 188.24 201.012 188.09 201.223 187.957C201.438 187.824 201.545 187.641 201.545 187.406C201.545 186.922 201.215 186.682 200.555 186.686C200.184 186.686 199.928 186.758 199.787 186.902C199.646 187.043 199.576 187.248 199.576 187.518V187.764H198.082V187.576C198.082 186.947 198.291 186.457 198.709 186.105C199.127 185.75 199.77 185.572 200.637 185.572C201.504 185.572 202.133 185.756 202.523 186.123C202.918 186.49 203.115 187.018 203.115 187.705V190.195C203.115 190.477 203.15 190.662 203.221 190.752C203.291 190.842 203.426 190.887 203.625 190.887L203.561 192.047H203.227C202.793 192.047 202.455 191.988 202.213 191.871C201.971 191.75 201.791 191.561 201.674 191.303Z" fill="white"/>
<defs>
<filter id="filter0_d" x="23" y="16" width="698" height="164" filterUnits="userSpaceOnUse" color-interpolation-filters="sRGB">
<feFlood flood-opacity="0" result="BackgroundImageFix"/>
<feColorMatrix in="SourceAlpha" type="matrix" values="0 0 0 0 0 0 0 0 0 0 0 0 0 0 0 0 0 0 127 0"/>
<feOffset dy="4"/>
<feGaussianBlur stdDeviation="2"/>
<feColorMatrix type="matrix" values="0 0 0 0 0 0 0 0 0 0 0 0 0 0 0 0 0 0 0.25 0"/>
<feBlend mode="normal" in2="BackgroundImageFix" result="effect1_dropShadow"/>
<feBlend mode="normal" in="SourceGraphic" in2="effect1_dropShadow" result="shape"/>
</filter>
<filter id="filter1_d" x="214" y="76.9875" width="67.3696" height="42.0444" filterUnits="userSpaceOnUse" color-interpolation-filters="sRGB">
<feFlood flood-opacity="0" result="BackgroundImageFix"/>
<feColorMatrix in="SourceAlpha" type="matrix" values="0 0 0 0 0 0 0 0 0 0 0 0 0 0 0 0 0 0 127 0"/>
<feOffset dy="4"/>
<feGaussianBlur stdDeviation="2"/>
<feColorMatrix type="matrix" values="0 0 0 0 0 0 0 0 0 0 0 0 0 0 0 0 0 0 0.25 0"/>
<feBlend mode="normal" in2="BackgroundImageFix" result="effect1_dropShadow"/>
<feBlend mode="normal" in="SourceGraphic" in2="effect1_dropShadow" result="shape"/>
</filter>
<filter id="filter2_b" x="11.7266" y="101.205" width="30.5469" height="16.9476" filterUnits="userSpaceOnUse" color-interpolation-filters="sRGB">
<feFlood flood-opacity="0" result="BackgroundImageFix"/>
<feGaussianBlur in="BackgroundImage" stdDeviation="2"/>
<feComposite in2="SourceAlpha" operator="in" result="effect1_backgroundBlur"/>
<feBlend mode="normal" in="SourceGraphic" in2="effect1_backgroundBlur" result="shape"/>
</filter>
</defs>
</svg>
