<svg width="844" height="183" viewBox="0 0 844 183" fill="none" xmlns="http://www.w3.org/2000/svg">
<path d="M111.982 22.0664C113.695 22.0664 114.551 21.3242 114.551 19.8398C114.551 19.1367 114.46 18.6257 114.277 18.3066C114.102 17.9811 113.789 17.7467 113.34 17.6035C112.891 17.4538 112.24 17.3789 111.387 17.3789V15.4355C112.962 15.4355 113.9 15.1947 114.199 14.7129C114.382 14.4134 114.473 13.9609 114.473 13.3555C114.473 12.7435 114.287 12.2845 113.916 11.9785C113.545 11.666 112.891 11.5098 111.953 11.5098C111.016 11.5098 110.361 11.6855 109.99 12.0371C109.626 12.3822 109.447 13.0072 109.453 13.9121H106.836C106.849 12.2194 107.305 11.0312 108.203 10.3477C109.102 9.66406 110.345 9.32227 111.934 9.32227C113.529 9.32227 114.801 9.67057 115.752 10.3672C116.702 11.0573 117.178 12.0176 117.178 13.248C117.178 14.2376 116.989 14.9701 116.611 15.4453C116.234 15.9141 115.693 16.2266 114.99 16.3828C116.533 16.7995 117.305 17.9518 117.305 19.8398C117.305 21.1484 116.888 22.2129 116.055 23.0332C115.221 23.8535 113.896 24.2637 112.08 24.2637C110.264 24.2637 108.936 23.8796 108.096 23.1113C107.256 22.3366 106.816 21.2135 106.777 19.7422H109.395C109.408 20.6276 109.613 21.2363 110.01 21.5684C110.413 21.9004 111.071 22.0664 111.982 22.0664ZM122.598 15.8066L121.553 15.3574C121.885 14.9798 122.204 14.4785 122.51 13.8535C122.822 13.222 122.979 12.6068 122.979 12.0078H121.367V9.3125H124.512V11.4902C124.512 12.3561 124.297 13.1992 123.867 14.0195C123.438 14.8333 123.014 15.429 122.598 15.8066Z" fill="white"/>
<g filter="url(#filter0_d)">
<path d="M148.67 106.5C150.594 103.167 155.406 103.167 157.33 106.5L159.928 111C161.853 114.333 159.447 118.5 155.598 118.5H150.402C146.553 118.5 144.147 114.333 146.072 111L148.67 106.5Z" fill="#E8A32C"/>
<rect x="143.033" y="113.733" width="20.3667" height="26" rx="5" fill="#62F2A6"/>
<circle cx="150.183" cy="115.25" r="3.25" fill="white"/>
<circle cx="150.14" cy="115.467" r="1.73333" fill="black"/>
<circle cx="156.683" cy="115.25" r="3.25" fill="white"/>
<circle cx="156.467" cy="115.467" r="1.73333" fill="black"/>
<path d="M143.033 131.716C146.35 134.236 153 134.533 153 134.533C153 134.533 160.271 133.762 163.4 131.716" stroke="black"/>
<path d="M150.833 121.533C153.044 123.631 153.994 123.069 155.6 121.533" stroke="black"/>
<rect x="150.833" y="133.233" width="4.76667" height="2.16667" fill="#E8A62F"/>
</g>
<g filter="url(#filter1_d)">
<path d="M294.67 49.5C296.594 46.1667 301.406 46.1667 303.33 49.5L305.928 54C307.853 57.3333 305.447 61.5 301.598 61.5H296.402C292.553 61.5 290.147 57.3333 292.072 54L294.67 49.5Z" fill="#E8A32C"/>
<rect x="289.033" y="56.7334" width="20.3667" height="26" rx="5" fill="#62F2A6"/>
<circle cx="296.183" cy="58.25" r="3.25" fill="white"/>
<circle cx="296.14" cy="58.4667" r="1.73333" fill="black"/>
<circle cx="302.683" cy="58.25" r="3.25" fill="white"/>
<circle cx="302.467" cy="58.4667" r="1.73333" fill="black"/>
<path d="M289.033 74.7166C292.35 77.2363 299 77.5332 299 77.5332C299 77.5332 306.271 76.7618 309.4 74.7166" stroke="black"/>
<path d="M296.833 64.5332C299.044 66.6306 299.994 66.069 301.6 64.5332" stroke="black"/>
<rect x="296.833" y="76.2334" width="4.76667" height="2.16667" fill="#E8A62F"/>
</g>
<path d="M109.99 165.602C110.55 165.016 111.52 164.723 112.9 164.723C114.287 164.723 115.404 165.172 116.25 166.07C117.103 166.969 117.529 168.118 117.529 169.518C117.529 170.917 117.038 172.06 116.055 172.945C115.072 173.824 113.75 174.264 112.09 174.264C111.068 174.264 110.068 174.114 109.092 173.814C108.115 173.515 107.386 173.189 106.904 172.838L107.676 170.895C109.004 171.689 110.423 172.086 111.934 172.086C113.77 172.086 114.691 171.21 114.697 169.459V169.449C114.697 168.753 114.473 168.199 114.023 167.789C113.581 167.372 113.018 167.164 112.334 167.164C111.156 167.164 110.212 167.499 109.502 168.17L107.412 167.125L108.203 159.586H116.426V161.988H110.391L109.99 165.602ZM122.598 165.807L121.553 165.357C121.885 164.98 122.204 164.479 122.51 163.854C122.822 163.222 122.979 162.607 122.979 162.008H121.367V159.312H124.512V161.49C124.512 162.356 124.297 163.199 123.867 164.02C123.438 164.833 123.014 165.429 122.598 165.807Z" fill="white"/>
<g filter="url(#filter2_d)">
<rect x="327" y="82.0566" width="27.2843" height="23.0505" rx="5" fill="#DF0F0F"/>
<path d="M377.233 91.4951C378.748 92.2206 378.748 94.3773 377.233 95.1027L350.773 107.775C349.445 108.411 347.909 107.443 347.909 105.971V80.6269C347.909 79.155 349.445 78.1873 350.773 78.8231L377.233 91.4951Z" fill="#DF0F0F"/>
<circle cx="365.104" cy="86.7608" r="4.20419" fill="white" stroke="black"/>
<circle cx="366.28" cy="86.9956" r="1.17605" fill="black"/>
<path d="M363.67 96.1711C365.467 96.4709 366.251 96.041 367.456 94.7577" stroke="black"/>
<circle cx="358.988" cy="85.349" r="4.20419" fill="white" stroke="black"/>
<circle cx="360.635" cy="85.5845" r="1.17605" fill="black"/>
</g>
<g filter="url(#filter3_d)">
<path d="M160.491 103.033C161.347 103.033 161.775 102.662 161.775 101.92C161.775 101.568 161.73 101.313 161.639 101.153C161.551 100.991 161.395 100.873 161.17 100.802C160.945 100.727 160.62 100.689 160.193 100.689V99.7178C160.981 99.7178 161.45 99.5973 161.6 99.3564C161.691 99.2067 161.736 98.9805 161.736 98.6777C161.736 98.3717 161.644 98.1423 161.458 97.9893C161.272 97.833 160.945 97.7549 160.477 97.7549C160.008 97.7549 159.681 97.8428 159.495 98.0186C159.313 98.1911 159.223 98.5036 159.227 98.9561H157.918C157.924 98.1097 158.152 97.5156 158.602 97.1738C159.051 96.832 159.673 96.6611 160.467 96.6611C161.264 96.6611 161.901 96.8353 162.376 97.1836C162.851 97.5286 163.089 98.0088 163.089 98.624C163.089 99.1188 162.994 99.485 162.806 99.7227C162.617 99.957 162.347 100.113 161.995 100.191C162.767 100.4 163.152 100.976 163.152 101.92C163.152 102.574 162.944 103.106 162.527 103.517C162.111 103.927 161.448 104.132 160.54 104.132C159.632 104.132 158.968 103.94 158.548 103.556C158.128 103.168 157.908 102.607 157.889 101.871H159.197C159.204 102.314 159.306 102.618 159.505 102.784C159.707 102.95 160.035 103.033 160.491 103.033ZM165.799 99.9033L165.276 99.6787C165.442 99.4899 165.602 99.2393 165.755 98.9268C165.911 98.611 165.989 98.3034 165.989 98.0039H165.184V96.6562H166.756V97.7451C166.756 98.1781 166.648 98.5996 166.434 99.0098C166.219 99.4167 166.007 99.7145 165.799 99.9033Z" fill="#2E55B9"/>
</g>
<g filter="url(#filter4_d)">
<path d="M219.495 86.8008C219.775 86.5078 220.26 86.3613 220.95 86.3613C221.644 86.3613 222.202 86.5859 222.625 87.0352C223.051 87.4844 223.265 88.0589 223.265 88.7588C223.265 89.4587 223.019 90.0299 222.527 90.4727C222.036 90.9121 221.375 91.1318 220.545 91.1318C220.034 91.1318 219.534 91.057 219.046 90.9072C218.558 90.7575 218.193 90.5947 217.952 90.4189L218.338 89.4473C219.002 89.8444 219.712 90.043 220.467 90.043C221.385 90.043 221.845 89.6051 221.849 88.7295V88.7246C221.849 88.3763 221.736 88.0996 221.512 87.8945C221.29 87.6862 221.009 87.582 220.667 87.582C220.078 87.582 219.606 87.7497 219.251 88.085L218.206 87.5625L218.602 83.793H222.713V84.9941H219.695L219.495 86.8008ZM225.799 86.9033L225.276 86.6787C225.442 86.4899 225.602 86.2393 225.755 85.9268C225.911 85.611 225.989 85.3034 225.989 85.0039H225.184V83.6562H226.756V84.7451C226.756 85.1781 226.648 85.5996 226.434 86.0098C226.219 86.4167 226.007 86.7145 225.799 86.9033Z" fill="#2E55B9"/>
</g>
<g filter="url(#filter5_d)">
<path d="M295.491 90.0332C296.347 90.0332 296.775 89.6621 296.775 88.9199C296.775 88.5684 296.73 88.3128 296.639 88.1533C296.551 87.9906 296.395 87.8734 296.17 87.8018C295.945 87.7269 295.62 87.6895 295.193 87.6895V86.7178C295.981 86.7178 296.45 86.5973 296.6 86.3564C296.691 86.2067 296.736 85.9805 296.736 85.6777C296.736 85.3717 296.644 85.1423 296.458 84.9893C296.272 84.833 295.945 84.7549 295.477 84.7549C295.008 84.7549 294.681 84.8428 294.495 85.0186C294.313 85.1911 294.223 85.5036 294.227 85.9561H292.918C292.924 85.1097 293.152 84.5156 293.602 84.1738C294.051 83.832 294.673 83.6611 295.467 83.6611C296.264 83.6611 296.901 83.8353 297.376 84.1836C297.851 84.5286 298.089 85.0088 298.089 85.624C298.089 86.1188 297.994 86.485 297.806 86.7227C297.617 86.957 297.347 87.1133 296.995 87.1914C297.767 87.3997 298.152 87.9759 298.152 88.9199C298.152 89.5742 297.944 90.1064 297.527 90.5166C297.111 90.9268 296.448 91.1318 295.54 91.1318C294.632 91.1318 293.968 90.9398 293.548 90.5557C293.128 90.1683 292.908 89.6068 292.889 88.8711H294.197C294.204 89.3138 294.306 89.6182 294.505 89.7842C294.707 89.9502 295.035 90.0332 295.491 90.0332ZM300.799 86.9033L300.276 86.6787C300.442 86.4899 300.602 86.2393 300.755 85.9268C300.911 85.611 300.989 85.3034 300.989 85.0039H300.184V83.6562H301.756V84.7451C301.756 85.1781 301.648 85.5996 301.434 86.0098C301.219 86.4167 301.007 86.7145 300.799 86.9033Z" fill="#2E55B9"/>
</g>
<g filter="url(#filter6_d)">
<path d="M237.495 99.8008C237.775 99.5078 238.26 99.3613 238.95 99.3613C239.644 99.3613 240.202 99.5859 240.625 100.035C241.051 100.484 241.265 101.059 241.265 101.759C241.265 102.459 241.019 103.03 240.527 103.473C240.036 103.912 239.375 104.132 238.545 104.132C238.034 104.132 237.534 104.057 237.046 103.907C236.558 103.757 236.193 103.595 235.952 103.419L236.338 102.447C237.002 102.844 237.712 103.043 238.467 103.043C239.385 103.043 239.845 102.605 239.849 101.729V101.725C239.849 101.376 239.736 101.1 239.512 100.895C239.29 100.686 239.009 100.582 238.667 100.582C238.078 100.582 237.606 100.75 237.251 101.085L236.206 100.562L236.602 96.793H240.713V97.9941H237.695L237.495 99.8008ZM243.799 99.9033L243.276 99.6787C243.442 99.4899 243.602 99.2393 243.755 98.9268C243.911 98.611 243.989 98.3034 243.989 98.0039H243.184V96.6562H244.756V97.7451C244.756 98.1781 244.648 98.5996 244.434 99.0098C244.219 99.4167 244.007 99.7145 243.799 99.9033Z" fill="#2E55B9"/>
</g>
<g filter="url(#filter7_d)">
<path d="M824.99 61.6016C825.55 61.0156 826.52 60.7227 827.9 60.7227C829.287 60.7227 830.404 61.1719 831.25 62.0703C832.103 62.9688 832.529 64.1178 832.529 65.5176C832.529 66.9173 832.038 68.0599 831.055 68.9453C830.072 69.8242 828.75 70.2637 827.09 70.2637C826.068 70.2637 825.068 70.1139 824.092 69.8145C823.115 69.515 822.386 69.1895 821.904 68.8379L822.676 66.8945C824.004 67.6888 825.423 68.0859 826.934 68.0859C828.77 68.0859 829.691 67.2103 829.697 65.459V65.4492C829.697 64.7526 829.473 64.1992 829.023 63.7891C828.581 63.3724 828.018 63.1641 827.334 63.1641C826.156 63.1641 825.212 63.4993 824.502 64.1699L822.412 63.125L823.203 55.5859H831.426V57.9883H825.391L824.99 61.6016ZM837.598 61.8066L836.553 61.3574C836.885 60.9798 837.204 60.4785 837.51 59.8535C837.822 59.222 837.979 58.6068 837.979 58.0078H836.367V55.3125H839.512V57.4902C839.512 58.3561 839.297 59.1992 838.867 60.0195C838.438 60.8333 838.014 61.429 837.598 61.8066Z" fill="white"/>
</g>
<g filter="url(#filter8_d)">
<path d="M826.982 124.066C828.695 124.066 829.551 123.324 829.551 121.84C829.551 121.137 829.46 120.626 829.277 120.307C829.102 119.981 828.789 119.747 828.34 119.604C827.891 119.454 827.24 119.379 826.387 119.379V117.436C827.962 117.436 828.9 117.195 829.199 116.713C829.382 116.413 829.473 115.961 829.473 115.355C829.473 114.743 829.287 114.285 828.916 113.979C828.545 113.666 827.891 113.51 826.953 113.51C826.016 113.51 825.361 113.686 824.99 114.037C824.626 114.382 824.447 115.007 824.453 115.912H821.836C821.849 114.219 822.305 113.031 823.203 112.348C824.102 111.664 825.345 111.322 826.934 111.322C828.529 111.322 829.801 111.671 830.752 112.367C831.702 113.057 832.178 114.018 832.178 115.248C832.178 116.238 831.989 116.97 831.611 117.445C831.234 117.914 830.693 118.227 829.99 118.383C831.533 118.799 832.305 119.952 832.305 121.84C832.305 123.148 831.888 124.213 831.055 125.033C830.221 125.854 828.896 126.264 827.08 126.264C825.264 126.264 823.936 125.88 823.096 125.111C822.256 124.337 821.816 123.214 821.777 121.742H824.395C824.408 122.628 824.613 123.236 825.01 123.568C825.413 123.9 826.071 124.066 826.982 124.066ZM837.598 117.807L836.553 117.357C836.885 116.98 837.204 116.479 837.51 115.854C837.822 115.222 837.979 114.607 837.979 114.008H836.367V111.312H839.512V113.49C839.512 114.356 839.297 115.199 838.867 116.02C838.438 116.833 838.014 117.429 837.598 117.807Z" fill="white"/>
</g>
<g filter="url(#filter9_d)">
<line x1="813.833" y1="69.6665" x2="813.833" y2="92.9998" stroke="#62F2A6" stroke-width="3"/>
<line x1="813.833" y1="93" x2="813.833" y2="116.333" stroke="#EFE123" stroke-width="3"/>
<line x1="813.833" y1="69.6665" x2="813.833" y2="92.9998" stroke="#62F2A6" stroke-width="3"/>
<line x1="813.833" y1="69.6665" x2="813.833" y2="92.9998" stroke="#62F2A6" stroke-width="3"/>
<line x1="813.833" y1="93" x2="813.833" y2="116.333" stroke="#E8A62F" stroke-width="3"/>
<line x1="813.833" y1="69.6665" x2="813.833" y2="92.9998" stroke="#62F2A6" stroke-width="3"/>
<line x1="813.833" y1="69.6665" x2="813.833" y2="92.9998" stroke="#C6344A" stroke-width="3"/>
<line x1="795.167" y1="69.6665" x2="795.167" y2="92.9998" stroke="#62F2A6" stroke-width="3"/>
<line x1="795.167" y1="93" x2="795.167" y2="116.333" stroke="#EFE123" stroke-width="3"/>
<line x1="795.167" y1="69.6665" x2="795.167" y2="92.9998" stroke="#62F2A6" stroke-width="3"/>
<line x1="795.167" y1="69.6665" x2="795.167" y2="92.9998" stroke="#62F2A6" stroke-width="3"/>
<line x1="795.167" y1="93" x2="795.167" y2="116.333" stroke="#61ECA1" stroke-width="3"/>
<line x1="795.167" y1="69.6665" x2="795.167" y2="92.9998" stroke="#62F2A6" stroke-width="3"/>
<line x1="795.167" y1="69.6665" x2="795.167" y2="92.9998" stroke="#62F2A6" stroke-width="3"/>
<line x1="795.167" y1="69.6665" x2="795.167" y2="92.9998" stroke="#EDDE22" stroke-width="3"/>
<line x1="785.833" y1="69.6665" x2="785.833" y2="92.9998" stroke="#62F2A6" stroke-width="3"/>
<line x1="785.833" y1="93" x2="785.833" y2="116.333" stroke="#EFE123" stroke-width="3"/>
<line x1="785.833" y1="69.6665" x2="785.833" y2="92.9998" stroke="#62F2A6" stroke-width="3"/>
<line x1="785.833" y1="69.6665" x2="785.833" y2="92.9998" stroke="#62F2A6" stroke-width="3"/>
<line x1="785.833" y1="93" x2="785.833" y2="116.333" stroke="#EFE123" stroke-width="3"/>
<line x1="785.833" y1="69.6665" x2="785.833" y2="92.9998" stroke="#62F2A6" stroke-width="3"/>
<line x1="785.833" y1="69.6665" x2="785.833" y2="92.9998" stroke="#62F2A6" stroke-width="3"/>
<line x1="785.833" y1="69.6665" x2="785.833" y2="92.9998" stroke="#62F2A6" stroke-width="3"/>
<line x1="776.5" y1="69.6665" x2="776.5" y2="92.9998" stroke="#62F2A6" stroke-width="3"/>
<line x1="776.5" y1="93" x2="776.5" y2="116.333" stroke="#EFE123" stroke-width="3"/>
<line x1="776.5" y1="69.6665" x2="776.5" y2="92.9998" stroke="#62F2A6" stroke-width="3"/>
<line x1="776.5" y1="69.6665" x2="776.5" y2="92.9998" stroke="#62F2A6" stroke-width="3"/>
<line x1="776.5" y1="93" x2="776.5" y2="116.333" stroke="#E8A62F" stroke-width="3"/>
<line x1="776.5" y1="69.6665" x2="776.5" y2="92.9998" stroke="#62F2A6" stroke-width="3"/>
<line x1="776.5" y1="69.6665" x2="776.5" y2="92.9998" stroke="#62F2A6" stroke-width="3"/>
<line x1="776.5" y1="69.6665" x2="776.5" y2="92.9998" stroke="#C6344A" stroke-width="3"/>
<line x1="804.5" y1="69.6665" x2="804.5" y2="92.9998" stroke="#62F2A6" stroke-width="3"/>
<line x1="804.5" y1="93" x2="804.5" y2="116.333" stroke="#EFE123" stroke-width="3"/>
<line x1="767.167" y1="69.6665" x2="767.167" y2="92.9998" stroke="#62F2A6" stroke-width="3"/>
<line x1="767.167" y1="93" x2="767.167" y2="116.333" stroke="#EFE123" stroke-width="3"/>
<line x1="767.167" y1="69.6665" x2="767.167" y2="92.9998" stroke="#62F2A6" stroke-width="3"/>
<line x1="767.167" y1="69.6665" x2="767.167" y2="92.9998" stroke="#62F2A6" stroke-width="3"/>
<line x1="767.167" y1="93" x2="767.167" y2="116.333" stroke="#EFE123" stroke-width="3"/>
<line x1="767.167" y1="69.6665" x2="767.167" y2="92.9998" stroke="#62F2A6" stroke-width="3"/>
<line x1="767.167" y1="69.6665" x2="767.167" y2="92.9998" stroke="#62F2A6" stroke-width="3"/>
<line x1="767.167" y1="69.6665" x2="767.167" y2="92.9998" stroke="#62F2A6" stroke-width="3"/>
<line x1="748.5" y1="69.6665" x2="748.5" y2="92.9998" stroke="#62F2A6" stroke-width="3"/>
<line x1="748.5" y1="93" x2="748.5" y2="116.333" stroke="#EFE123" stroke-width="3"/>
<line x1="748.5" y1="69.6665" x2="748.5" y2="92.9998" stroke="#62F2A6" stroke-width="3"/>
<line x1="748.5" y1="69.6665" x2="748.5" y2="92.9998" stroke="#62F2A6" stroke-width="3"/>
<line x1="748.5" y1="93" x2="748.5" y2="116.333" stroke="#EFE123" stroke-width="3"/>
<line x1="748.5" y1="69.6665" x2="748.5" y2="92.9998" stroke="#62F2A6" stroke-width="3"/>
<line x1="748.5" y1="69.6665" x2="748.5" y2="92.9998" stroke="#62F2A6" stroke-width="3"/>
<line x1="748.5" y1="69.6665" x2="748.5" y2="92.9998" stroke="#62F2A6" stroke-width="3"/>
<line x1="739.167" y1="69.6665" x2="739.167" y2="92.9998" stroke="#62F2A6" stroke-width="3"/>
<line x1="739.167" y1="93" x2="739.167" y2="116.333" stroke="#EFE123" stroke-width="3"/>
<line x1="739.167" y1="69.6665" x2="739.167" y2="92.9998" stroke="#62F2A6" stroke-width="3"/>
<line x1="739.167" y1="69.6665" x2="739.167" y2="92.9998" stroke="#62F2A6" stroke-width="3"/>
<line x1="739.167" y1="69.6665" x2="739.167" y2="92.9998" stroke="#62F2A6" stroke-width="3"/>
<line x1="739.167" y1="69.6665" x2="739.167" y2="92.9998" stroke="#62F2A6" stroke-width="3"/>
<line x1="739.167" y1="69.6665" x2="739.167" y2="92.9998" stroke="#62F2A6" stroke-width="3"/>
<line x1="729.833" y1="69.6665" x2="729.833" y2="92.9998" stroke="#62F2A6" stroke-width="3"/>
<line x1="729.833" y1="93" x2="729.833" y2="116.333" stroke="#EFE123" stroke-width="3"/>
<line x1="729.833" y1="69.6665" x2="729.833" y2="92.9998" stroke="#62F2A6" stroke-width="3"/>
<line x1="729.833" y1="69.6665" x2="729.833" y2="92.9998" stroke="#62F2A6" stroke-width="3"/>
<line x1="729.833" y1="93" x2="729.833" y2="116.333" stroke="#C6344A" stroke-width="3"/>
<line x1="729.833" y1="69.6665" x2="729.833" y2="92.9998" stroke="#62F2A6" stroke-width="3"/>
<line x1="729.833" y1="69.6665" x2="729.833" y2="92.9998" stroke="#62F2A6" stroke-width="3"/>
<line x1="729.833" y1="69.6665" x2="729.833" y2="92.9998" stroke="#E8A62F" stroke-width="3"/>
<line x1="757.833" y1="69.6665" x2="757.833" y2="92.9998" stroke="#C6344A" stroke-width="3"/>
<line x1="757.833" y1="93" x2="757.833" y2="116.333" stroke="#E8A62F" stroke-width="3"/>
<line x1="720.5" y1="69.6665" x2="720.5" y2="92.9998" stroke="#62F2A6" stroke-width="3"/>
<line x1="720.5" y1="93" x2="720.5" y2="116.333" stroke="#EFE123" stroke-width="3"/>
<line x1="720.5" y1="69.6665" x2="720.5" y2="92.9998" stroke="#62F2A6" stroke-width="3"/>
<line x1="720.5" y1="69.6665" x2="720.5" y2="92.9998" stroke="#62F2A6" stroke-width="3"/>
<line x1="720.5" y1="93" x2="720.5" y2="116.333" stroke="#E8A62F" stroke-width="3"/>
<line x1="720.5" y1="69.6665" x2="720.5" y2="92.9998" stroke="#62F2A6" stroke-width="3"/>
<line x1="720.5" y1="69.6665" x2="720.5" y2="92.9998" stroke="#C6344A" stroke-width="3"/>
<line x1="701.833" y1="69.6665" x2="701.833" y2="92.9998" stroke="#62F2A6" stroke-width="3"/>
<line x1="701.833" y1="93" x2="701.833" y2="116.333" stroke="#EFE123" stroke-width="3"/>
<line x1="701.833" y1="69.6665" x2="701.833" y2="92.9998" stroke="#62F2A6" stroke-width="3"/>
<line x1="701.833" y1="69.6665" x2="701.833" y2="92.9998" stroke="#62F2A6" stroke-width="3"/>
<line x1="701.833" y1="93" x2="701.833" y2="116.333" stroke="#EFE123" stroke-width="3"/>
<line x1="701.833" y1="69.6665" x2="701.833" y2="92.9998" stroke="#62F2A6" stroke-width="3"/>
<line x1="701.833" y1="69.6665" x2="701.833" y2="92.9998" stroke="#62F2A6" stroke-width="3"/>
<line x1="701.833" y1="69.6665" x2="701.833" y2="92.9998" stroke="#62F2A6" stroke-width="3"/>
<line x1="692.5" y1="69.6665" x2="692.5" y2="92.9998" stroke="#62F2A6" stroke-width="3"/>
<line x1="692.5" y1="93" x2="692.5" y2="116.333" stroke="#EFE123" stroke-width="3"/>
<line x1="692.5" y1="69.6665" x2="692.5" y2="92.9998" stroke="#62F2A6" stroke-width="3"/>
<line x1="692.5" y1="69.6665" x2="692.5" y2="92.9998" stroke="#62F2A6" stroke-width="3"/>
<line x1="692.5" y1="93" x2="692.5" y2="116.333" stroke="#E8A62F" stroke-width="3"/>
<line x1="692.5" y1="69.6665" x2="692.5" y2="92.9998" stroke="#62F2A6" stroke-width="3"/>
<line x1="692.5" y1="69.6665" x2="692.5" y2="92.9998" stroke="#62F2A6" stroke-width="3"/>
<line x1="692.5" y1="69.6665" x2="692.5" y2="92.9998" stroke="#C6344A" stroke-width="3"/>
<line x1="683.167" y1="69.6665" x2="683.167" y2="92.9998" stroke="#62F2A6" stroke-width="3"/>
<line x1="683.167" y1="93" x2="683.167" y2="116.333" stroke="#EFE123" stroke-width="3"/>
<line x1="683.167" y1="69.6665" x2="683.167" y2="92.9998" stroke="#62F2A6" stroke-width="3"/>
<line x1="683.167" y1="69.6665" x2="683.167" y2="92.9998" stroke="#62F2A6" stroke-width="3"/>
<line x1="683.167" y1="93" x2="683.167" y2="116.333" stroke="#61ECA1" stroke-width="3"/>
<line x1="683.167" y1="69.6665" x2="683.167" y2="92.9998" stroke="#62F2A6" stroke-width="3"/>
<line x1="683.167" y1="69.6665" x2="683.167" y2="92.9998" stroke="#62F2A6" stroke-width="3"/>
<line x1="683.167" y1="69.6665" x2="683.167" y2="92.9998" stroke="#EDDE22" stroke-width="3"/>
<line x1="711.167" y1="69.6665" x2="711.167" y2="92.9998" stroke="#E8A62F" stroke-width="3"/>
<line x1="711.167" y1="93" x2="711.167" y2="116.333" stroke="#C6344A" stroke-width="3"/>
<line x1="673.833" y1="69.6665" x2="673.833" y2="92.9998" stroke="#62F2A6" stroke-width="3"/>
<line x1="673.833" y1="93" x2="673.833" y2="116.333" stroke="#EFE123" stroke-width="3"/>
<line x1="673.833" y1="69.6665" x2="673.833" y2="92.9998" stroke="#62F2A6" stroke-width="3"/>
<line x1="673.833" y1="69.6665" x2="673.833" y2="92.9998" stroke="#62F2A6" stroke-width="3"/>
<line x1="673.833" y1="93" x2="673.833" y2="116.333" stroke="#C6344A" stroke-width="3"/>
<line x1="673.833" y1="69.6665" x2="673.833" y2="92.9998" stroke="#62F2A6" stroke-width="3"/>
<line x1="673.833" y1="69.6665" x2="673.833" y2="92.9998" stroke="#62F2A6" stroke-width="3"/>
<line x1="673.833" y1="69.6665" x2="673.833" y2="92.9998" stroke="#E8A62F" stroke-width="3"/>
<line x1="655.167" y1="69.6665" x2="655.167" y2="92.9998" stroke="#62F2A6" stroke-width="3"/>
<line x1="655.167" y1="93" x2="655.167" y2="116.333" stroke="#EFE123" stroke-width="3"/>
<line x1="655.167" y1="69.6665" x2="655.167" y2="92.9998" stroke="#62F2A6" stroke-width="3"/>
<line x1="655.167" y1="69.6665" x2="655.167" y2="92.9998" stroke="#62F2A6" stroke-width="3"/>
<line x1="655.167" y1="93" x2="655.167" y2="116.333" stroke="#EFE123" stroke-width="3"/>
<line x1="655.167" y1="69.6665" x2="655.167" y2="92.9998" stroke="#62F2A6" stroke-width="3"/>
<line x1="655.167" y1="69.6665" x2="655.167" y2="92.9998" stroke="#62F2A6" stroke-width="3"/>
<line x1="655.167" y1="69.6665" x2="655.167" y2="92.9998" stroke="#62F2A6" stroke-width="3"/>
<line x1="645.833" y1="69.6665" x2="645.833" y2="92.9998" stroke="#62F2A6" stroke-width="3"/>
<line x1="645.833" y1="93" x2="645.833" y2="116.333" stroke="#E8A62F" stroke-width="3"/>
<line x1="645.833" y1="69.6665" x2="645.833" y2="92.9998" stroke="#62F2A6" stroke-width="3"/>
<line x1="645.833" y1="69.6665" x2="645.833" y2="92.9998" stroke="#62F2A6" stroke-width="3"/>
<line x1="645.833" y1="69.6665" x2="645.833" y2="92.9998" stroke="#62F2A6" stroke-width="3"/>
<line x1="645.833" y1="69.6665" x2="645.833" y2="92.9998" stroke="#62F2A6" stroke-width="3"/>
<line x1="645.833" y1="69.6665" x2="645.833" y2="92.9998" stroke="#C6344A" stroke-width="3"/>
<line x1="636.5" y1="69.6665" x2="636.5" y2="92.9998" stroke="#62F2A6" stroke-width="3"/>
<line x1="636.5" y1="93" x2="636.5" y2="116.333" stroke="#EFE123" stroke-width="3"/>
<line x1="636.5" y1="69.6665" x2="636.5" y2="92.9998" stroke="#62F2A6" stroke-width="3"/>
<line x1="636.5" y1="69.6665" x2="636.5" y2="92.9998" stroke="#62F2A6" stroke-width="3"/>
<line x1="636.5" y1="93" x2="636.5" y2="116.333" stroke="#E8A62F" stroke-width="3"/>
<line x1="636.5" y1="69.6665" x2="636.5" y2="92.9998" stroke="#62F2A6" stroke-width="3"/>
<line x1="636.5" y1="69.6665" x2="636.5" y2="92.9998" stroke="#62F2A6" stroke-width="3"/>
<line x1="636.5" y1="69.6665" x2="636.5" y2="92.9998" stroke="#C6344A" stroke-width="3"/>
<line x1="664.5" y1="69.6665" x2="664.5" y2="92.9998" stroke="#62F2A6" stroke-width="3"/>
<line x1="664.5" y1="93" x2="664.5" y2="116.333" stroke="#EFE123" stroke-width="3"/>
<line x1="627.167" y1="69.6665" x2="627.167" y2="92.9998" stroke="#62F2A6" stroke-width="3"/>
<line x1="627.167" y1="93" x2="627.167" y2="116.333" stroke="#EFE123" stroke-width="3"/>
<line x1="627.167" y1="69.6665" x2="627.167" y2="92.9998" stroke="#62F2A6" stroke-width="3"/>
<line x1="627.167" y1="69.6665" x2="627.167" y2="92.9998" stroke="#62F2A6" stroke-width="3"/>
<line x1="627.167" y1="93" x2="627.167" y2="116.333" stroke="#EFE123" stroke-width="3"/>
<line x1="627.167" y1="69.6665" x2="627.167" y2="92.9998" stroke="#62F2A6" stroke-width="3"/>
<line x1="627.167" y1="69.6665" x2="627.167" y2="92.9998" stroke="#62F2A6" stroke-width="3"/>
<line x1="608.5" y1="69.6665" x2="608.5" y2="92.9998" stroke="#62F2A6" stroke-width="3"/>
<line x1="608.5" y1="93" x2="608.5" y2="116.333" stroke="#EFE123" stroke-width="3"/>
<line x1="608.5" y1="69.6665" x2="608.5" y2="92.9998" stroke="#62F2A6" stroke-width="3"/>
<line x1="608.5" y1="69.6665" x2="608.5" y2="92.9998" stroke="#62F2A6" stroke-width="3"/>
<line x1="608.5" y1="93" x2="608.5" y2="116.333" stroke="#EFE123" stroke-width="3"/>
<line x1="608.5" y1="69.6665" x2="608.5" y2="92.9998" stroke="#62F2A6" stroke-width="3"/>
<line x1="608.5" y1="69.6665" x2="608.5" y2="92.9998" stroke="#62F2A6" stroke-width="3"/>
<line x1="608.5" y1="69.6665" x2="608.5" y2="92.9998" stroke="#62F2A6" stroke-width="3"/>
<line x1="599.167" y1="69.6665" x2="599.167" y2="92.9998" stroke="#62F2A6" stroke-width="3"/>
<line x1="599.167" y1="93" x2="599.167" y2="116.333" stroke="#EFE123" stroke-width="3"/>
<line x1="599.167" y1="69.6665" x2="599.167" y2="92.9998" stroke="#62F2A6" stroke-width="3"/>
<line x1="599.167" y1="69.6665" x2="599.167" y2="92.9998" stroke="#62F2A6" stroke-width="3"/>
<line x1="599.167" y1="93" x2="599.167" y2="116.333" stroke="#C6344A" stroke-width="3"/>
<line x1="599.167" y1="69.6665" x2="599.167" y2="92.9998" stroke="#62F2A6" stroke-width="3"/>
<line x1="599.167" y1="69.6665" x2="599.167" y2="92.9998" stroke="#62F2A6" stroke-width="3"/>
<line x1="599.167" y1="69.6665" x2="599.167" y2="92.9998" stroke="#E8A62F" stroke-width="3"/>
<line x1="589.833" y1="69.6665" x2="589.833" y2="92.9998" stroke="#62F2A6" stroke-width="3"/>
<line x1="589.833" y1="93" x2="589.833" y2="116.333" stroke="#EFE123" stroke-width="3"/>
<line x1="589.833" y1="69.6665" x2="589.833" y2="92.9998" stroke="#62F2A6" stroke-width="3"/>
<line x1="589.833" y1="69.6665" x2="589.833" y2="92.9998" stroke="#62F2A6" stroke-width="3"/>
<line x1="589.833" y1="93" x2="589.833" y2="116.333" stroke="#C6344A" stroke-width="3"/>
<line x1="589.833" y1="69.6665" x2="589.833" y2="92.9998" stroke="#62F2A6" stroke-width="3"/>
<line x1="589.833" y1="69.6665" x2="589.833" y2="92.9998" stroke="#62F2A6" stroke-width="3"/>
<line x1="589.833" y1="69.6665" x2="589.833" y2="92.9998" stroke="#E8A62F" stroke-width="3"/>
<line x1="617.833" y1="69.6665" x2="617.833" y2="92.9998" stroke="#62F2A6" stroke-width="3"/>
<line x1="617.833" y1="93" x2="617.833" y2="116.333" stroke="#EFE123" stroke-width="3"/>
<line x1="580.5" y1="69.6665" x2="580.5" y2="92.9998" stroke="#62F2A6" stroke-width="3"/>
<line x1="580.5" y1="93" x2="580.5" y2="116.333" stroke="#EFE123" stroke-width="3"/>
<line x1="580.5" y1="69.6665" x2="580.5" y2="92.9998" stroke="#62F2A6" stroke-width="3"/>
<line x1="580.5" y1="69.6665" x2="580.5" y2="92.9998" stroke="#62F2A6" stroke-width="3"/>
<line x1="580.5" y1="93" x2="580.5" y2="116.333" stroke="#EFE123" stroke-width="3"/>
<line x1="580.5" y1="69.6665" x2="580.5" y2="92.9998" stroke="#62F2A6" stroke-width="3"/>
<line x1="580.5" y1="69.6665" x2="580.5" y2="92.9998" stroke="#62F2A6" stroke-width="3"/>
<line x1="580.5" y1="69.6665" x2="580.5" y2="92.9998" stroke="#62F2A6" stroke-width="3"/>
<line x1="561.833" y1="69.6665" x2="561.833" y2="92.9998" stroke="#62F2A6" stroke-width="3"/>
<line x1="561.833" y1="93" x2="561.833" y2="116.333" stroke="#EFE123" stroke-width="3"/>
<line x1="561.833" y1="69.6665" x2="561.833" y2="92.9998" stroke="#62F2A6" stroke-width="3"/>
<line x1="561.833" y1="69.6665" x2="561.833" y2="92.9998" stroke="#62F2A6" stroke-width="3"/>
<line x1="561.833" y1="93" x2="561.833" y2="116.333" stroke="#E8A62F" stroke-width="3"/>
<line x1="561.833" y1="69.6665" x2="561.833" y2="92.9998" stroke="#62F2A6" stroke-width="3"/>
<line x1="561.833" y1="69.6665" x2="561.833" y2="92.9998" stroke="#62F2A6" stroke-width="3"/>
<line x1="561.833" y1="69.6665" x2="561.833" y2="92.9998" stroke="#C6344A" stroke-width="3"/>
<line x1="552.5" y1="69.6665" x2="552.5" y2="92.9998" stroke="#62F2A6" stroke-width="3"/>
<line x1="552.5" y1="93" x2="552.5" y2="116.333" stroke="#EFE123" stroke-width="3"/>
<line x1="552.5" y1="69.6665" x2="552.5" y2="92.9998" stroke="#62F2A6" stroke-width="3"/>
<line x1="552.5" y1="69.6665" x2="552.5" y2="92.9998" stroke="#62F2A6" stroke-width="3"/>
<line x1="552.5" y1="69.6665" x2="552.5" y2="92.9998" stroke="#62F2A6" stroke-width="3"/>
<line x1="552.5" y1="69.6665" x2="552.5" y2="92.9998" stroke="#62F2A6" stroke-width="3"/>
<line x1="552.5" y1="69.6665" x2="552.5" y2="92.9998" stroke="#62F2A6" stroke-width="3"/>
<line x1="543.167" y1="69.6665" x2="543.167" y2="92.9998" stroke="#62F2A6" stroke-width="3"/>
<line x1="543.167" y1="93" x2="543.167" y2="116.333" stroke="#EFE123" stroke-width="3"/>
<line x1="543.167" y1="69.6665" x2="543.167" y2="92.9998" stroke="#62F2A6" stroke-width="3"/>
<line x1="543.167" y1="69.6665" x2="543.167" y2="92.9998" stroke="#62F2A6" stroke-width="3"/>
<line x1="543.167" y1="93" x2="543.167" y2="116.333" stroke="#E8A62F" stroke-width="3"/>
<line x1="543.167" y1="69.6665" x2="543.167" y2="92.9998" stroke="#62F2A6" stroke-width="3"/>
<line x1="543.167" y1="69.6665" x2="543.167" y2="92.9998" stroke="#62F2A6" stroke-width="3"/>
<line x1="543.167" y1="69.6665" x2="543.167" y2="92.9998" stroke="#C6344A" stroke-width="3"/>
<line x1="571.167" y1="69.6665" x2="571.167" y2="92.9998" stroke="#E8A62F" stroke-width="3"/>
<line x1="571.167" y1="93" x2="571.167" y2="116.333" stroke="#C6344A" stroke-width="3"/>
<line x1="533.833" y1="69.6665" x2="533.833" y2="92.9998" stroke="#62F2A6" stroke-width="3"/>
<line x1="533.833" y1="93" x2="533.833" y2="116.333" stroke="#EFE123" stroke-width="3"/>
<line x1="533.833" y1="69.6665" x2="533.833" y2="92.9998" stroke="#62F2A6" stroke-width="3"/>
<line x1="533.833" y1="69.6665" x2="533.833" y2="92.9998" stroke="#62F2A6" stroke-width="3"/>
<line x1="533.833" y1="93" x2="533.833" y2="116.333" stroke="#C6344A" stroke-width="3"/>
<line x1="533.833" y1="69.6665" x2="533.833" y2="92.9998" stroke="#62F2A6" stroke-width="3"/>
<line x1="533.833" y1="69.6665" x2="533.833" y2="92.9998" stroke="#E8A62F" stroke-width="3"/>
<line x1="515.167" y1="69.6665" x2="515.167" y2="92.9998" stroke="#62F2A6" stroke-width="3"/>
<line x1="515.167" y1="93" x2="515.167" y2="116.333" stroke="#EFE123" stroke-width="3"/>
<line x1="515.167" y1="69.6665" x2="515.167" y2="92.9998" stroke="#62F2A6" stroke-width="3"/>
<line x1="515.167" y1="69.6665" x2="515.167" y2="92.9998" stroke="#62F2A6" stroke-width="3"/>
<line x1="515.167" y1="93" x2="515.167" y2="116.333" stroke="#EFE123" stroke-width="3"/>
<line x1="515.167" y1="69.6665" x2="515.167" y2="92.9998" stroke="#62F2A6" stroke-width="3"/>
<line x1="515.167" y1="69.6665" x2="515.167" y2="92.9998" stroke="#62F2A6" stroke-width="3"/>
<line x1="515.167" y1="69.6665" x2="515.167" y2="92.9998" stroke="#62F2A6" stroke-width="3"/>
<line x1="505.833" y1="69.6665" x2="505.833" y2="92.9998" stroke="#62F2A6" stroke-width="3"/>
<line x1="505.833" y1="93" x2="505.833" y2="116.333" stroke="#EFE123" stroke-width="3"/>
<line x1="505.833" y1="69.6665" x2="505.833" y2="92.9998" stroke="#62F2A6" stroke-width="3"/>
<line x1="505.833" y1="69.6665" x2="505.833" y2="92.9998" stroke="#62F2A6" stroke-width="3"/>
<line x1="505.833" y1="93" x2="505.833" y2="116.333" stroke="#C6344A" stroke-width="3"/>
<line x1="505.833" y1="69.6665" x2="505.833" y2="92.9998" stroke="#62F2A6" stroke-width="3"/>
<line x1="505.833" y1="69.6665" x2="505.833" y2="92.9998" stroke="#62F2A6" stroke-width="3"/>
<line x1="505.833" y1="69.6665" x2="505.833" y2="92.9998" stroke="#E8A62F" stroke-width="3"/>
<line x1="496.5" y1="69.6665" x2="496.5" y2="92.9998" stroke="#62F2A6" stroke-width="3"/>
<line x1="496.5" y1="93" x2="496.5" y2="116.333" stroke="#EFE123" stroke-width="3"/>
<line x1="496.5" y1="69.6665" x2="496.5" y2="92.9998" stroke="#62F2A6" stroke-width="3"/>
<line x1="496.5" y1="69.6665" x2="496.5" y2="92.9998" stroke="#62F2A6" stroke-width="3"/>
<line x1="496.5" y1="93" x2="496.5" y2="116.333" stroke="#C6344A" stroke-width="3"/>
<line x1="496.5" y1="69.6665" x2="496.5" y2="92.9998" stroke="#62F2A6" stroke-width="3"/>
<line x1="496.5" y1="69.6665" x2="496.5" y2="92.9998" stroke="#62F2A6" stroke-width="3"/>
<line x1="496.5" y1="69.6665" x2="496.5" y2="92.9998" stroke="#E8A62F" stroke-width="3"/>
<line x1="524.5" y1="69.6665" x2="524.5" y2="92.9998" stroke="#62F2A6" stroke-width="3"/>
<line x1="524.5" y1="93" x2="524.5" y2="116.333" stroke="#EFE123" stroke-width="3"/>
<line x1="487.167" y1="69.6665" x2="487.167" y2="92.9998" stroke="#62F2A6" stroke-width="3"/>
<line x1="487.167" y1="93" x2="487.167" y2="116.333" stroke="#EFE123" stroke-width="3"/>
<line x1="487.167" y1="69.6665" x2="487.167" y2="92.9998" stroke="#62F2A6" stroke-width="3"/>
<line x1="487.167" y1="69.6665" x2="487.167" y2="92.9998" stroke="#62F2A6" stroke-width="3"/>
<line x1="487.167" y1="93" x2="487.167" y2="116.333" stroke="#61ECA1" stroke-width="3"/>
<line x1="487.167" y1="69.6665" x2="487.167" y2="92.9998" stroke="#62F2A6" stroke-width="3"/>
<line x1="487.167" y1="69.6665" x2="487.167" y2="92.9998" stroke="#62F2A6" stroke-width="3"/>
<line x1="487.167" y1="69.6665" x2="487.167" y2="92.9998" stroke="#EDDE22" stroke-width="3"/>
<line x1="468.5" y1="69.6665" x2="468.5" y2="92.9998" stroke="#62F2A6" stroke-width="3"/>
<line x1="468.5" y1="93" x2="468.5" y2="116.333" stroke="#EFE123" stroke-width="3"/>
<line x1="468.5" y1="69.6665" x2="468.5" y2="92.9998" stroke="#62F2A6" stroke-width="3"/>
<line x1="468.5" y1="69.6665" x2="468.5" y2="92.9998" stroke="#62F2A6" stroke-width="3"/>
<line x1="468.5" y1="93" x2="468.5" y2="116.333" stroke="#EFE123" stroke-width="3"/>
<line x1="468.5" y1="69.6665" x2="468.5" y2="92.9998" stroke="#62F2A6" stroke-width="3"/>
<line x1="468.5" y1="69.6665" x2="468.5" y2="92.9998" stroke="#62F2A6" stroke-width="3"/>
<line x1="468.5" y1="69.6665" x2="468.5" y2="92.9998" stroke="#62F2A6" stroke-width="3"/>
<line x1="459.167" y1="69.6665" x2="459.167" y2="92.9998" stroke="#62F2A6" stroke-width="3"/>
<line x1="459.167" y1="93" x2="459.167" y2="116.333" stroke="#E8A62F" stroke-width="3"/>
<line x1="459.167" y1="69.6665" x2="459.167" y2="92.9998" stroke="#62F2A6" stroke-width="3"/>
<line x1="459.167" y1="69.6665" x2="459.167" y2="92.9998" stroke="#62F2A6" stroke-width="3"/>
<line x1="459.167" y1="69.6665" x2="459.167" y2="92.9998" stroke="#62F2A6" stroke-width="3"/>
<line x1="459.167" y1="69.6665" x2="459.167" y2="92.9998" stroke="#62F2A6" stroke-width="3"/>
<line x1="459.167" y1="69.6665" x2="459.167" y2="92.9998" stroke="#C6344A" stroke-width="3"/>
<line x1="449.833" y1="69.6665" x2="449.833" y2="92.9998" stroke="#62F2A6" stroke-width="3"/>
<line x1="449.833" y1="93" x2="449.833" y2="116.333" stroke="#EFE123" stroke-width="3"/>
<line x1="449.833" y1="69.6665" x2="449.833" y2="92.9998" stroke="#62F2A6" stroke-width="3"/>
<line x1="449.833" y1="69.6665" x2="449.833" y2="92.9998" stroke="#62F2A6" stroke-width="3"/>
<line x1="449.833" y1="93" x2="449.833" y2="116.333" stroke="#E8A62F" stroke-width="3"/>
<line x1="449.833" y1="69.6665" x2="449.833" y2="92.9998" stroke="#62F2A6" stroke-width="3"/>
<line x1="449.833" y1="69.6665" x2="449.833" y2="92.9998" stroke="#62F2A6" stroke-width="3"/>
<line x1="449.833" y1="69.6665" x2="449.833" y2="92.9998" stroke="#C6344A" stroke-width="3"/>
<line x1="477.833" y1="69.6665" x2="477.833" y2="92.9998" stroke="#62F2A6" stroke-width="3"/>
<line x1="477.833" y1="93" x2="477.833" y2="116.333" stroke="#EFE123" stroke-width="3"/>
<line x1="440.5" y1="69.6665" x2="440.5" y2="92.9998" stroke="#62F2A6" stroke-width="3"/>
<line x1="440.5" y1="93" x2="440.5" y2="116.333" stroke="#EFE123" stroke-width="3"/>
<line x1="440.5" y1="69.6665" x2="440.5" y2="92.9998" stroke="#62F2A6" stroke-width="3"/>
<line x1="440.5" y1="69.6665" x2="440.5" y2="92.9998" stroke="#62F2A6" stroke-width="3"/>
<line x1="440.5" y1="93" x2="440.5" y2="116.333" stroke="#EFE123" stroke-width="3"/>
<line x1="440.5" y1="69.6665" x2="440.5" y2="92.9998" stroke="#62F2A6" stroke-width="3"/>
<line x1="440.5" y1="69.6665" x2="440.5" y2="92.9998" stroke="#62F2A6" stroke-width="3"/>
<line x1="421.833" y1="69.6665" x2="421.833" y2="92.9998" stroke="#62F2A6" stroke-width="3"/>
<line x1="421.833" y1="93" x2="421.833" y2="116.333" stroke="#EFE123" stroke-width="3"/>
<line x1="421.833" y1="69.6665" x2="421.833" y2="92.9998" stroke="#62F2A6" stroke-width="3"/>
<line x1="421.833" y1="69.6665" x2="421.833" y2="92.9998" stroke="#62F2A6" stroke-width="3"/>
<line x1="421.833" y1="93" x2="421.833" y2="116.333" stroke="#EFE123" stroke-width="3"/>
<line x1="421.833" y1="69.6665" x2="421.833" y2="92.9998" stroke="#62F2A6" stroke-width="3"/>
<line x1="421.833" y1="69.6665" x2="421.833" y2="92.9998" stroke="#62F2A6" stroke-width="3"/>
<line x1="421.833" y1="69.6665" x2="421.833" y2="92.9998" stroke="#62F2A6" stroke-width="3"/>
<line x1="412.5" y1="69.6665" x2="412.5" y2="92.9998" stroke="#62F2A6" stroke-width="3"/>
<line x1="412.5" y1="93" x2="412.5" y2="116.333" stroke="#EFE123" stroke-width="3"/>
<line x1="412.5" y1="69.6665" x2="412.5" y2="92.9998" stroke="#62F2A6" stroke-width="3"/>
<line x1="412.5" y1="69.6665" x2="412.5" y2="92.9998" stroke="#62F2A6" stroke-width="3"/>
<line x1="412.5" y1="93" x2="412.5" y2="116.333" stroke="#C6344A" stroke-width="3"/>
<line x1="412.5" y1="69.6665" x2="412.5" y2="92.9998" stroke="#62F2A6" stroke-width="3"/>
<line x1="412.5" y1="69.6665" x2="412.5" y2="92.9998" stroke="#62F2A6" stroke-width="3"/>
<line x1="412.5" y1="69.6665" x2="412.5" y2="92.9998" stroke="#E8A62F" stroke-width="3"/>
<line x1="403.167" y1="69.6665" x2="403.167" y2="92.9998" stroke="#62F2A6" stroke-width="3"/>
<line x1="403.167" y1="93" x2="403.167" y2="116.333" stroke="#EFE123" stroke-width="3"/>
<line x1="403.167" y1="69.6665" x2="403.167" y2="92.9998" stroke="#62F2A6" stroke-width="3"/>
<line x1="403.167" y1="69.6665" x2="403.167" y2="92.9998" stroke="#62F2A6" stroke-width="3"/>
<line x1="403.167" y1="93" x2="403.167" y2="116.333" stroke="#EFE123" stroke-width="3"/>
<line x1="403.167" y1="69.6665" x2="403.167" y2="92.9998" stroke="#62F2A6" stroke-width="3"/>
<line x1="403.167" y1="69.6665" x2="403.167" y2="92.9998" stroke="#62F2A6" stroke-width="3"/>
<line x1="403.167" y1="69.6665" x2="403.167" y2="92.9998" stroke="#62F2A6" stroke-width="3"/>
<line x1="431.167" y1="69.6665" x2="431.167" y2="92.9998" stroke="#EDDE22" stroke-width="3"/>
<line x1="431.167" y1="93" x2="431.167" y2="116.333" stroke="#61ECA1" stroke-width="3"/>
<line x1="393.833" y1="69.6665" x2="393.833" y2="92.9998" stroke="#62F2A6" stroke-width="3"/>
<line x1="393.833" y1="93" x2="393.833" y2="116.333" stroke="#EFE123" stroke-width="3"/>
<line x1="393.833" y1="69.6665" x2="393.833" y2="92.9998" stroke="#62F2A6" stroke-width="3"/>
<line x1="393.833" y1="69.6665" x2="393.833" y2="92.9998" stroke="#62F2A6" stroke-width="3"/>
<line x1="393.833" y1="93" x2="393.833" y2="116.333" stroke="#E8A62F" stroke-width="3"/>
<line x1="393.833" y1="69.6665" x2="393.833" y2="92.9998" stroke="#62F2A6" stroke-width="3"/>
<line x1="393.833" y1="69.6665" x2="393.833" y2="92.9998" stroke="#62F2A6" stroke-width="3"/>
<line x1="393.833" y1="69.6665" x2="393.833" y2="92.9998" stroke="#C6344A" stroke-width="3"/>
<line x1="384.5" y1="69.6665" x2="384.5" y2="92.9998" stroke="#62F2A6" stroke-width="3"/>
<line x1="375.167" y1="66.3333" x2="375.167" y2="89.6666" stroke="#EDDE22" stroke-width="3"/>
<line x1="365.833" y1="54.3333" x2="365.833" y2="77.6666" stroke="#62F2A6" stroke-width="3"/>
<line x1="356.5" y1="42.3333" x2="356.5" y2="65.6666" stroke="#C6344A" stroke-width="3"/>
<line x1="347.167" y1="33" x2="347.167" y2="56.3333" stroke="#E8A62F" stroke-width="3"/>
<path d="M336.333 22.9961V49.6628" stroke="#C6344A" stroke-width="3"/>
<line x1="324.5" y1="25" x2="324.5" y2="48.3333" stroke="#62F2A6" stroke-width="3"/>
<line x1="315.167" y1="25" x2="315.167" y2="48.3333" stroke="#EDDE22" stroke-width="3"/>
<line x1="305.833" y1="25" x2="305.833" y2="48.3333" stroke="#62F2A6" stroke-width="3"/>
<line x1="384.5" y1="93" x2="384.5" y2="116.333" stroke="#EFE123" stroke-width="3"/>
<line x1="296.5" y1="25" x2="296.5" y2="48.3333" stroke="#62F2A6" stroke-width="3"/>
<line x1="287.167" y1="25" x2="287.167" y2="48.3333" stroke="#E8A62F" stroke-width="3"/>
<line x1="277.833" y1="25" x2="277.833" y2="48.3333" stroke="#62F2A6" stroke-width="3"/>
<line x1="268.5" y1="25" x2="268.5" y2="48.3333" stroke="#EDDE22" stroke-width="3"/>
<line x1="817" y1="64.875" x2="376.999" y2="64.875" stroke="#79CCDB" stroke-width="10"/>
<line x1="817" y1="121.083" x2="376.333" y2="121.083" stroke="#79CCDB" stroke-width="10"/>
<line x1="221.833" y1="25" x2="221.833" y2="48.3333" stroke="#62F2A6" stroke-width="3"/>
<line x1="212.5" y1="25" x2="212.5" y2="48.3333" stroke="#62F2A6" stroke-width="3"/>
<line x1="203.167" y1="25" x2="203.167" y2="48.3333" stroke="#EDDE22" stroke-width="3"/>
<line x1="193.833" y1="25" x2="193.833" y2="48.3333" stroke="#EDDE22" stroke-width="3"/>
<line x1="184.5" y1="25" x2="184.5" y2="48.3333" stroke="#62F2A6" stroke-width="3"/>
<line x1="175.167" y1="25" x2="175.167" y2="48.3333" stroke="#EDDE22" stroke-width="3"/>
<line x1="165.833" y1="25" x2="165.833" y2="48.3333" stroke="#62F2A6" stroke-width="3"/>
<line x1="156.5" y1="25" x2="156.5" y2="48.3333" stroke="#E8A62F" stroke-width="3"/>
<line x1="137.833" y1="137.667" x2="137.833" y2="161" stroke="#E8A62F" stroke-width="3"/>
<line x1="128.5" y1="137.667" x2="128.5" y2="161" stroke="#EDDE22" stroke-width="3"/>
<line x1="147.167" y1="25" x2="147.167" y2="48.3333" stroke="#62F2A6" stroke-width="3"/>
<line x1="137.833" y1="25" x2="137.833" y2="48.3333" stroke="#C6344A" stroke-width="3"/>
<line x1="128.5" y1="25" x2="128.5" y2="48.3333" stroke="#62F2A6" stroke-width="3"/>
<line x1="259.167" y1="25" x2="259.167" y2="48.3333" stroke="#C6344A" stroke-width="3"/>
<line x1="249.833" y1="25" x2="249.833" y2="48.3333" stroke="#C6344A" stroke-width="3"/>
<line x1="240.5" y1="25" x2="240.5" y2="48.3333" stroke="#E8A62F" stroke-width="3"/>
<line x1="231.167" y1="25" x2="231.167" y2="48.3333" stroke="#E8A62F" stroke-width="3"/>
<path d="M381.667 66.6667C381.667 66.6667 357.695 35.1609 351 29.3333C344.639 23.7969 340.539 22.0234 333.473 20.276C332.718 20.0893 331.94 20 331.163 20L127 20" stroke="#79CCDB" stroke-width="10"/>
<line y1="-1.5" x2="23.3333" y2="-1.5" transform="matrix(0 -1 -1 0 373.667 119.667)" stroke="#62F2A6" stroke-width="3"/>
<line y1="-1.5" x2="23.3333" y2="-1.5" transform="matrix(0 -1 -1 0 364.333 131.667)" stroke="#EDDE22" stroke-width="3"/>
<line y1="-1.5" x2="23.3333" y2="-1.5" transform="matrix(0 -1 -1 0 355 143.667)" stroke="#E8A62F" stroke-width="3"/>
<line y1="-1.5" x2="23.3333" y2="-1.5" transform="matrix(0 -1 -1 0 345.667 153)" stroke="#C6344A" stroke-width="3"/>
<path d="M336.333 163.004V136.337" stroke="#E8A62F" stroke-width="3"/>
<line y1="-1.5" x2="23.3333" y2="-1.5" transform="matrix(0 -1 -1 0 323 161)" stroke="#EDDE22" stroke-width="3"/>
<line y1="-1.5" x2="23.3333" y2="-1.5" transform="matrix(0 -1 -1 0 313.667 161)" stroke="#62F2A6" stroke-width="3"/>
<line y1="-1.5" x2="23.3333" y2="-1.5" transform="matrix(0 -1 -1 0 304.333 161)" stroke="#EDDE22" stroke-width="3"/>
<line y1="-1.5" x2="23.3333" y2="-1.5" transform="matrix(0 -1 -1 0 295 161)" stroke="#EDDE22" stroke-width="3"/>
<line y1="-1.5" x2="23.3333" y2="-1.5" transform="matrix(0 -1 -1 0 285.667 161)" stroke="#C6344A" stroke-width="3"/>
<line y1="-1.5" x2="23.3333" y2="-1.5" transform="matrix(0 -1 -1 0 276.333 161)" stroke="#EDDE22" stroke-width="3"/>
<line y1="-1.5" x2="23.3333" y2="-1.5" transform="matrix(0 -1 -1 0 267 161)" stroke="#62F2A6" stroke-width="3"/>
<line y1="-1.5" x2="23.3333" y2="-1.5" transform="matrix(0 -1 -1 0 220.333 161)" stroke="#EDDE22" stroke-width="3"/>
<line y1="-1.5" x2="23.3333" y2="-1.5" transform="matrix(0 -1 -1 0 211 161)" stroke="#EDDE22" stroke-width="3"/>
<line y1="-1.5" x2="23.3333" y2="-1.5" transform="matrix(0 -1 -1 0 201.667 161)" stroke="#62F2A6" stroke-width="3"/>
<line y1="-1.5" x2="23.3333" y2="-1.5" transform="matrix(0 -1 -1 0 192.333 161)" stroke="#62F2A6" stroke-width="3"/>
<line y1="-1.5" x2="23.3333" y2="-1.5" transform="matrix(0 -1 -1 0 183 161)" stroke="#EDDE22" stroke-width="3"/>
<line y1="-1.5" x2="23.3333" y2="-1.5" transform="matrix(0 -1 -1 0 173.667 161)" stroke="#62F2A6" stroke-width="3"/>
<line y1="-1.5" x2="23.3333" y2="-1.5" transform="matrix(0 -1 -1 0 164.333 161)" stroke="#EDDE22" stroke-width="3"/>
<line y1="-1.5" x2="23.3333" y2="-1.5" transform="matrix(0 -1 -1 0 155 161)" stroke="#C6344A" stroke-width="3"/>
<line y1="-1.5" x2="23.3333" y2="-1.5" transform="matrix(0 -1 -1 0 145.667 161)" stroke="#EDDE22" stroke-width="3"/>
<line y1="-1.5" x2="23.3333" y2="-1.5" transform="matrix(0 -1 -1 0 257.667 161)" stroke="#E8A62F" stroke-width="3"/>
<line y1="-1.5" x2="23.3333" y2="-1.5" transform="matrix(0 -1 -1 0 248.333 161)" stroke="#E8A62F" stroke-width="3"/>
<line y1="-1.5" x2="23.3333" y2="-1.5" transform="matrix(0 -1 -1 0 239 161)" stroke="#C6344A" stroke-width="3"/>
<line y1="-1.5" x2="23.3333" y2="-1.5" transform="matrix(0 -1 -1 0 229.667 161)" stroke="#C6344A" stroke-width="3"/>
<path d="M381.667 119.333C381.667 119.333 357.695 150.839 351 156.667C344.639 162.203 340.539 163.977 333.473 165.724C332.718 165.911 331.94 166 331.163 166L127 166" stroke="#79CCDB" stroke-width="10"/>
</g>
<g filter="url(#filter10_d)">
<line x1="136" y1="72.3999" x2="214.5" y2="72.3999" stroke="white" stroke-width="2"/>
<line x1="147.3" y1="48" x2="147.3" y2="71.33" stroke="#EDDE22" stroke-width="3"/>
<line x1="156.5" y1="48" x2="156.5" y2="71.33" stroke="#C6344A" stroke-width="3"/>
<line x1="165.7" y1="48" x2="165.7" y2="71.33" stroke="#EDDE22" stroke-width="3"/>
<line x1="184.5" y1="48" x2="184.5" y2="71.33" stroke="#EDDE22" stroke-width="3"/>
<line x1="175.5" y1="48" x2="175.5" y2="71.33" stroke="#2E55B9" stroke-width="3"/>
<line x1="193.8" y1="48" x2="193.8" y2="71.33" stroke="#2E55B9" stroke-width="3"/>
<line x1="203.5" y1="48" x2="203.5" y2="71.33" stroke="#2E55B9" stroke-width="3"/>
<line x1="212.5" y1="48" x2="212.5" y2="71.33" stroke="#EDDE22" stroke-width="3"/>
<line x1="137.8" y1="48" x2="137.8" y2="71.33" stroke="#E8A62F" stroke-width="3"/>
</g>
<g filter="url(#filter11_d)">
<line x1="220" y1="76" x2="290" y2="76" stroke="#79CCDB" stroke-width="10"/>
<line x1="231.3" y1="48" x2="231.3" y2="71.33" stroke="#C6344A" stroke-width="3"/>
<line x1="240.5" y1="48" x2="240.5" y2="71.33" stroke="#C6344A" stroke-width="3"/>
<line x1="249.7" y1="48" x2="249.7" y2="71.33" stroke="#E8A62F" stroke-width="3"/>
<line x1="268.5" y1="48" x2="268.5" y2="71.33" stroke="#62F2A6" stroke-width="3"/>
<line x1="259.2" y1="48" x2="259.2" y2="71.33" stroke="#E8A62F" stroke-width="3"/>
<line x1="277.8" y1="48" x2="277.8" y2="71.33" stroke="#EDDE22" stroke-width="3"/>
<line x1="287.3" y1="48" x2="287.3" y2="71.33" stroke="#C6344A" stroke-width="3"/>
<line x1="221.8" y1="48" x2="221.8" y2="71.33" stroke="#EDDE22" stroke-width="3"/>
</g>
<g filter="url(#filter12_d)">
<path d="M163 109.5H244" stroke="#79CCDB" stroke-width="10"/>
<line y1="-1.5" x2="23.33" y2="-1.5" transform="matrix(0 -1 -1 0 192.4 137.67)" stroke="#EDDE22" stroke-width="3"/>
<line y1="-1.5" x2="23.33" y2="-1.5" transform="matrix(0 -1 -1 0 201.6 137.67)" stroke="#EDDE22" stroke-width="3"/>
<line y1="-1.5" x2="23.33" y2="-1.5" transform="matrix(0 -1 -1 0 210.8 137.67)" stroke="#62F2A6" stroke-width="3"/>
<line y1="-1.5" x2="23.33" y2="-1.5" transform="matrix(0 -1 -1 0 229.6 137.67)" stroke="#E8A62F" stroke-width="3"/>
<line y1="-1.5" x2="23.33" y2="-1.5" transform="matrix(0 -1 -1 0 220.3 137.67)" stroke="#62F2A6" stroke-width="3"/>
<line y1="-1.5" x2="23.33" y2="-1.5" transform="matrix(0 -1 -1 0 238.9 137.67)" stroke="#E8A62F" stroke-width="3"/>
<line y1="-1.5" x2="23.33" y2="-1.5" transform="matrix(0 -1 -1 0 182.9 137.67)" stroke="#62F2A6" stroke-width="3"/>
<line y1="-1.5" x2="23.33" y2="-1.5" transform="matrix(0 -1 -1 0 173.6 137.67)" stroke="#EDDE22" stroke-width="3"/>
<line y1="-1.5" x2="23.33" y2="-1.5" transform="matrix(0 -1 -1 0 164.4 138)" stroke="#62F2A6" stroke-width="3"/>
</g>
<g filter="url(#filter13_d)">
<line x1="326.6" y1="113.7" x2="248.1" y2="113.7" stroke="white" stroke-width="2"/>
<line x1="315.1" y1="138" x2="315.1" y2="114.67" stroke="#EDDE22" stroke-width="3"/>
<line x1="306" y1="138" x2="306" y2="114.67" stroke="#2E55B9" stroke-width="3"/>
<line x1="296.6" y1="138" x2="296.6" y2="114.67" stroke="#2E55B9" stroke-width="3"/>
<line x1="277.91" y1="138" x2="277.91" y2="114.67" stroke="#2E55B9" stroke-width="3"/>
<line x1="287.2" y1="138" x2="287.2" y2="114.67" stroke="#E8A62F" stroke-width="3"/>
<line x1="268.5" y1="138" x2="268.5" y2="114.67" stroke="#EDDE22" stroke-width="3"/>
<line x1="259.1" y1="138" x2="259.1" y2="114.67" stroke="#C6344A" stroke-width="3"/>
<line x1="249.9" y1="138" x2="249.9" y2="114.67" stroke="#C6344A" stroke-width="3"/>
<line x1="324.5" y1="138" x2="324.5" y2="114.67" stroke="#2E55B9" stroke-width="3"/>
</g>
<g filter="url(#filter14_d)">
<path d="M286.283 87.2828C286.439 87.1266 286.439 86.8734 286.283 86.7172L283.737 84.1716C283.581 84.0154 283.328 84.0154 283.172 84.1716C283.015 84.3278 283.015 84.581 283.172 84.7373L285.434 87L283.172 89.2627C283.015 89.419 283.015 89.6722 283.172 89.8284C283.328 89.9846 283.581 89.9846 283.737 89.8284L286.283 87.2828ZM230 87.4H286V86.6H230V87.4Z" fill="#2E55B9"/>
</g>
<g filter="url(#filter15_d)">
<path d="M174.717 100.283C174.561 100.127 174.561 99.8734 174.717 99.7172L177.263 97.1716C177.419 97.0154 177.672 97.0154 177.828 97.1716C177.985 97.3278 177.985 97.581 177.828 97.7373L175.566 100L177.828 102.263C177.985 102.419 177.985 102.672 177.828 102.828C177.672 102.985 177.419 102.985 177.263 102.828L174.717 100.283ZM231 100.4H175V99.6H231V100.4Z" fill="#2E55B9"/>
</g>
<path d="M105 23H85V71H105" stroke="white"/>
<path d="M105 120H85V168H105" stroke="white"/>
<path d="M10.0312 51L8.16602 45.7559H9.48926L10.7393 49.7012L11.9648 45.7559H13.2197L11.4424 51H10.0312ZM16.2715 51.1123C14.7546 51.1123 13.9961 50.5459 13.9961 49.4131V47.3477C13.9961 46.8105 14.1947 46.3923 14.5918 46.0928C14.9922 45.7933 15.5505 45.6436 16.2666 45.6436C16.986 45.6436 17.5459 45.7949 17.9463 46.0977C18.3467 46.3971 18.5469 46.8138 18.5469 47.3477V49.4131C18.5469 50.2562 18.1465 50.7835 17.3457 50.9951C17.0462 51.0732 16.6882 51.1123 16.2715 51.1123ZM16.2715 50.1895C16.903 50.1895 17.2188 49.9502 17.2188 49.4717V47.2891C17.2188 47.0319 17.139 46.848 16.9795 46.7373C16.82 46.6266 16.584 46.5713 16.2715 46.5713C15.64 46.5713 15.3242 46.8105 15.3242 47.2891V49.4717C15.3242 49.7288 15.4023 49.9128 15.5586 50.0234C15.7181 50.1341 15.9557 50.1895 16.2715 50.1895ZM21.0859 49.4375C21.0859 49.6979 21.1624 49.8867 21.3154 50.0039C21.4684 50.1211 21.7142 50.1797 22.0527 50.1797C22.3913 50.1797 22.6777 50.1097 22.9121 49.9697V46.752C22.6582 46.6315 22.3717 46.5713 22.0527 46.5713C21.7337 46.5713 21.4928 46.6283 21.3301 46.7422C21.1673 46.8529 21.0859 47.0368 21.0859 47.2939V49.4375ZM21.8428 51.1123C21.1462 51.1123 20.6237 50.9658 20.2754 50.6729C19.9303 50.3766 19.7578 49.9583 19.7578 49.418V47.3232C19.7578 46.8122 19.9368 46.4053 20.2949 46.1025C20.6562 45.7965 21.2031 45.6436 21.9355 45.6436C22.248 45.6436 22.5736 45.7054 22.9121 45.8291V43.5977H24.2402V51H23.3418L23.2002 50.6924C22.7998 50.9723 22.3473 51.1123 21.8428 51.1123ZM26.9355 47.8213H28.8203V47.2061C28.8203 46.8903 28.6934 46.6966 28.4395 46.625C28.306 46.5859 28.1025 46.568 27.8291 46.5713C27.5589 46.5713 27.3424 46.6169 27.1797 46.708C27.0169 46.7992 26.9355 46.9733 26.9355 47.2305V47.8213ZM26.9648 51.0244C26.7044 50.9691 26.4701 50.8763 26.2617 50.7461C25.8255 50.4792 25.6074 50.0169 25.6074 49.3594V47.3135C25.6074 46.7861 25.8076 46.376 26.208 46.083C26.6084 45.79 27.1536 45.6436 27.8438 45.6436C29.3314 45.6436 30.0752 46.2165 30.0752 47.3623V48.6318H26.9355V49.4863C26.9355 49.776 27.0072 49.9665 27.1504 50.0576C27.2936 50.1455 27.5361 50.1895 27.8779 50.1895C28.2197 50.1895 28.4215 50.1732 28.4834 50.1406C28.6299 50.0592 28.7243 49.9616 28.7666 49.8477C28.8089 49.7305 28.8333 49.5775 28.8398 49.3887H30.0703C30.0508 50.196 29.766 50.707 29.2158 50.9219C28.8936 51.0456 28.5029 51.1074 28.0439 51.1074C27.585 51.1107 27.2253 51.083 26.9648 51.0244ZM33.0195 44.7451L33.5762 42.9629H34.8848L33.7471 44.7451H33.0195ZM33.4688 51.1123C32.4531 51.1123 31.7972 50.8844 31.501 50.4287C31.3154 50.1488 31.2227 49.807 31.2227 49.4033V47.3037C31.2227 46.7796 31.4131 46.3727 31.7939 46.083C32.1748 45.79 32.7168 45.6436 33.4199 45.6436C34.123 45.6436 34.652 45.7835 35.0068 46.0635C35.3649 46.3402 35.5439 46.848 35.5439 47.5869L34.2939 47.6846C34.2939 47.2126 34.237 46.9082 34.123 46.7715C34.0547 46.6868 33.9701 46.6315 33.8691 46.6055C33.7715 46.5827 33.6022 46.5713 33.3613 46.5713C32.821 46.5713 32.5508 46.8171 32.5508 47.3086V49.4277C32.5508 49.7012 32.6208 49.8949 32.7607 50.0088C32.904 50.1227 33.1139 50.1797 33.3906 50.1797C33.6706 50.1797 33.8675 50.1553 33.9814 50.1064C34.0954 50.0544 34.1768 49.9583 34.2256 49.8184C34.2744 49.6751 34.2988 49.4505 34.2988 49.1445H35.5391C35.5326 49.5286 35.4967 49.8411 35.4316 50.082C35.3665 50.3164 35.2526 50.515 35.0898 50.6777C34.7969 50.9642 34.2565 51.109 33.4688 51.1123ZM36.8379 45.0088V43.832H38.166V45.0088H36.8379ZM36.8379 51V45.7559H38.166V51H36.8379ZM44.04 51.0586C43.4378 51.0586 42.9919 50.9219 42.7021 50.6484C42.4124 50.375 42.2676 49.9176 42.2676 49.2764V43.6025H43.5957V49.2568C43.5957 49.5498 43.6641 49.7598 43.8008 49.8867C43.9375 50.0104 44.1816 50.0723 44.5332 50.0723H44.6992L44.5967 51.0586H44.04ZM46.7939 49.5645C46.7939 49.9844 47.0218 50.1943 47.4775 50.1943C47.6566 50.1943 47.8454 50.1471 48.0439 50.0527C48.2425 49.9583 48.3988 49.8249 48.5127 49.6523V48.3438C48.3564 48.4707 48.0814 48.6074 47.6875 48.7539C47.2936 48.8971 47.0462 49.0306 46.9453 49.1543C46.8444 49.2747 46.7939 49.4115 46.7939 49.5645ZM48.6201 50.4189C48.4671 50.6175 48.2474 50.7835 47.9609 50.917C47.6777 51.0472 47.3327 51.1123 46.9258 51.1123C46.5189 51.1123 46.1738 50.9805 45.8906 50.7168C45.6107 50.4531 45.4707 50.1162 45.4707 49.7061C45.4707 49.2959 45.5977 48.9671 45.8516 48.7197C46.1087 48.4723 46.5986 48.2347 47.3213 48.0068C47.7607 47.8669 48.0684 47.7415 48.2441 47.6309C48.4232 47.5202 48.5127 47.3672 48.5127 47.1719C48.5127 46.7682 48.2376 46.568 47.6875 46.5713C47.3783 46.5713 47.165 46.6315 47.0479 46.752C46.9307 46.8691 46.8721 47.04 46.8721 47.2646V47.4697H45.627V47.3135C45.627 46.7894 45.8011 46.3809 46.1494 46.0879C46.4977 45.7917 47.0332 45.6436 47.7559 45.6436C48.4785 45.6436 49.0026 45.7965 49.3281 46.1025C49.6569 46.4085 49.8213 46.848 49.8213 47.4209V49.4961C49.8213 49.7305 49.8506 49.8851 49.9092 49.96C49.9678 50.0348 50.0801 50.0723 50.2461 50.0723L50.1924 51.0391H49.9141C49.5527 51.0391 49.2712 50.9902 49.0693 50.8926C48.8675 50.7917 48.7178 50.6338 48.6201 50.4189ZM54.709 47.3135C54.709 46.861 54.4014 46.6348 53.7861 46.6348C53.5225 46.6348 53.2865 46.7048 53.0781 46.8447C52.8698 46.9814 52.7656 47.1702 52.7656 47.4111V51H51.4375V45.7559H52.7656V46.2197C53.2116 45.8291 53.7324 45.6338 54.3281 45.6338C54.9238 45.6338 55.3568 45.7868 55.627 46.0928C55.9004 46.3988 56.0371 46.7812 56.0371 47.2402V51H54.709V47.3135ZM58.6494 49.5645C58.6494 49.9844 58.8773 50.1943 59.333 50.1943C59.512 50.1943 59.7008 50.1471 59.8994 50.0527C60.098 49.9583 60.2542 49.8249 60.3682 49.6523V48.3438C60.2119 48.4707 59.9368 48.6074 59.543 48.7539C59.1491 48.8971 58.9017 49.0306 58.8008 49.1543C58.6999 49.2747 58.6494 49.4115 58.6494 49.5645ZM60.4756 50.4189C60.3226 50.6175 60.1029 50.7835 59.8164 50.917C59.5332 51.0472 59.1882 51.1123 58.7812 51.1123C58.3743 51.1123 58.0293 50.9805 57.7461 50.7168C57.4661 50.4531 57.3262 50.1162 57.3262 49.7061C57.3262 49.2959 57.4531 48.9671 57.707 48.7197C57.9642 48.4723 58.4541 48.2347 59.1768 48.0068C59.6162 47.8669 59.9238 47.7415 60.0996 47.6309C60.2786 47.5202 60.3682 47.3672 60.3682 47.1719C60.3682 46.7682 60.0931 46.568 59.543 46.5713C59.2337 46.5713 59.0205 46.6315 58.9033 46.752C58.7861 46.8691 58.7275 47.04 58.7275 47.2646V47.4697H57.4824V47.3135C57.4824 46.7894 57.6566 46.3809 58.0049 46.0879C58.3532 45.7917 58.8887 45.6436 59.6113 45.6436C60.334 45.6436 60.8581 45.7965 61.1836 46.1025C61.5124 46.4085 61.6768 46.848 61.6768 47.4209V49.4961C61.6768 49.7305 61.7061 49.8851 61.7646 49.96C61.8232 50.0348 61.9355 50.0723 62.1016 50.0723L62.0479 51.0391H61.7695C61.4082 51.0391 61.1266 50.9902 60.9248 50.8926C60.723 50.7917 60.5732 50.6338 60.4756 50.4189ZM65.3633 51.1123C64.3477 51.1123 63.6917 50.8844 63.3955 50.4287C63.21 50.1488 63.1172 49.807 63.1172 49.4033V47.3037C63.1172 46.7796 63.3076 46.3727 63.6885 46.083C64.0693 45.79 64.6113 45.6436 65.3145 45.6436C66.0176 45.6436 66.5465 45.7835 66.9014 46.0635C67.2594 46.3402 67.4385 46.848 67.4385 47.5869L66.1885 47.6846C66.1885 47.2126 66.1315 46.9082 66.0176 46.7715C65.9492 46.6868 65.8646 46.6315 65.7637 46.6055C65.666 46.5827 65.4967 46.5713 65.2559 46.5713C64.7155 46.5713 64.4453 46.8171 64.4453 47.3086V49.4277C64.4453 49.7012 64.5153 49.8949 64.6553 50.0088C64.7985 50.1227 65.0085 50.1797 65.2852 50.1797C65.5651 50.1797 65.762 50.1553 65.876 50.1064C65.9899 50.0544 66.0713 49.9583 66.1201 49.8184C66.1689 49.6751 66.1934 49.4505 66.1934 49.1445H67.4336C67.4271 49.5286 67.3913 49.8411 67.3262 50.082C67.2611 50.3164 67.1471 50.515 66.9844 50.6777C66.6914 50.9642 66.151 51.109 65.3633 51.1123Z" fill="white"/>
<path d="M0.507812 145V144.185L2.56836 140.664H0.556641V139.756H3.99414V140.557L1.94824 144.072H3.96973V145H0.507812ZM6.29395 143.564C6.29395 143.984 6.52181 144.194 6.97754 144.194C7.15658 144.194 7.34538 144.147 7.54395 144.053C7.74251 143.958 7.89876 143.825 8.0127 143.652V142.344C7.85645 142.471 7.58138 142.607 7.1875 142.754C6.79362 142.897 6.54622 143.031 6.44531 143.154C6.3444 143.275 6.29395 143.411 6.29395 143.564ZM8.12012 144.419C7.96712 144.618 7.7474 144.784 7.46094 144.917C7.17773 145.047 6.83268 145.112 6.42578 145.112C6.01888 145.112 5.67383 144.98 5.39062 144.717C5.11068 144.453 4.9707 144.116 4.9707 143.706C4.9707 143.296 5.09766 142.967 5.35156 142.72C5.60872 142.472 6.09863 142.235 6.82129 142.007C7.26074 141.867 7.56836 141.742 7.74414 141.631C7.92318 141.52 8.0127 141.367 8.0127 141.172C8.0127 140.768 7.73763 140.568 7.1875 140.571C6.87826 140.571 6.66504 140.632 6.54785 140.752C6.43066 140.869 6.37207 141.04 6.37207 141.265V141.47H5.12695V141.313C5.12695 140.789 5.30111 140.381 5.64941 140.088C5.99772 139.792 6.5332 139.644 7.25586 139.644C7.97852 139.644 8.5026 139.797 8.82812 140.103C9.1569 140.409 9.32129 140.848 9.32129 141.421V143.496C9.32129 143.73 9.35059 143.885 9.40918 143.96C9.46777 144.035 9.58008 144.072 9.74609 144.072L9.69238 145.039H9.41406C9.05273 145.039 8.77116 144.99 8.56934 144.893C8.36751 144.792 8.21777 144.634 8.12012 144.419ZM13.0371 145.112C11.5202 145.112 10.7617 144.546 10.7617 143.413V141.348C10.7617 140.811 10.9603 140.392 11.3574 140.093C11.7578 139.793 12.3161 139.644 13.0322 139.644C13.7516 139.644 14.3115 139.795 14.7119 140.098C15.1123 140.397 15.3125 140.814 15.3125 141.348V143.413C15.3125 144.256 14.9121 144.784 14.1113 144.995C13.8118 145.073 13.4538 145.112 13.0371 145.112ZM13.0371 144.189C13.6686 144.189 13.9844 143.95 13.9844 143.472V141.289C13.9844 141.032 13.9046 140.848 13.7451 140.737C13.5856 140.627 13.3496 140.571 13.0371 140.571C12.4056 140.571 12.0898 140.811 12.0898 141.289V143.472C12.0898 143.729 12.168 143.913 12.3242 144.023C12.4837 144.134 12.7214 144.189 13.0371 144.189ZM18.4912 145.112C17.6644 145.112 16.9824 144.976 16.4453 144.702L16.7139 143.799C17.3258 144.059 17.902 144.189 18.4424 144.189C18.8558 144.189 19.0902 144.006 19.1455 143.638C19.152 143.592 19.1553 143.55 19.1553 143.511C19.1553 143.247 19.0072 143.068 18.7109 142.974L17.5586 142.612C17.1647 142.489 16.8848 142.303 16.7188 142.056C16.556 141.808 16.4746 141.507 16.4746 141.152C16.4746 141.139 16.4746 141.126 16.4746 141.113C16.4811 140.133 17.1517 139.644 18.4863 139.644C19.1439 139.644 19.7331 139.792 20.2539 140.088L19.9414 140.913C19.7754 140.825 19.5492 140.747 19.2627 140.679C18.9795 140.607 18.7126 140.571 18.4619 140.571C18.2113 140.571 18.029 140.617 17.915 140.708C17.8011 140.796 17.7441 140.949 17.7441 141.167C17.7441 141.382 17.8646 141.527 18.1055 141.602L19.1895 141.943C19.6224 142.08 19.9268 142.272 20.1025 142.52C20.2816 142.767 20.3711 143.112 20.3711 143.555C20.3711 143.997 20.2083 144.368 19.8828 144.668C19.5573 144.964 19.0934 145.112 18.4912 145.112ZM24.0137 145.059C23.2161 145.059 22.6449 144.938 22.2998 144.697C21.9548 144.456 21.7822 144.002 21.7822 143.335V140.601H21.084V139.756H21.8213L21.9434 138.071H23.1104V139.756H24.3555V140.601H23.1104V143.242C23.1104 143.568 23.1868 143.787 23.3398 143.901C23.4961 144.015 23.7939 144.072 24.2334 144.072H24.3896L24.3408 145.059H24.0137ZM26.6162 143.564C26.6162 143.984 26.8441 144.194 27.2998 144.194C27.4788 144.194 27.6676 144.147 27.8662 144.053C28.0648 143.958 28.221 143.825 28.335 143.652V142.344C28.1787 142.471 27.9036 142.607 27.5098 142.754C27.1159 142.897 26.8685 143.031 26.7676 143.154C26.6667 143.275 26.6162 143.411 26.6162 143.564ZM28.4424 144.419C28.2894 144.618 28.0697 144.784 27.7832 144.917C27.5 145.047 27.1549 145.112 26.748 145.112C26.3411 145.112 25.9961 144.98 25.7129 144.717C25.4329 144.453 25.293 144.116 25.293 143.706C25.293 143.296 25.4199 142.967 25.6738 142.72C25.931 142.472 26.4209 142.235 27.1436 142.007C27.583 141.867 27.8906 141.742 28.0664 141.631C28.2454 141.52 28.335 141.367 28.335 141.172C28.335 140.768 28.0599 140.568 27.5098 140.571C27.2005 140.571 26.9873 140.632 26.8701 140.752C26.7529 140.869 26.6943 141.04 26.6943 141.265V141.47H25.4492V141.313C25.4492 140.789 25.6234 140.381 25.9717 140.088C26.32 139.792 26.8555 139.644 27.5781 139.644C28.3008 139.644 28.8249 139.797 29.1504 140.103C29.4792 140.409 29.6436 140.848 29.6436 141.421V143.496C29.6436 143.73 29.6729 143.885 29.7314 143.96C29.79 144.035 29.9023 144.072 30.0684 144.072L30.0146 145.039H29.7363C29.375 145.039 29.0934 144.99 28.8916 144.893C28.6898 144.792 28.54 144.634 28.4424 144.419ZM31.4746 139.009V137.832H32.8027V139.009H31.4746ZM30.4932 146.768L30.4297 145.82H30.6445C31.2044 145.82 31.4844 145.531 31.4844 144.951V139.756H32.8125V145.015C32.8125 145.562 32.6644 145.99 32.3682 146.299C32.0719 146.611 31.6113 146.768 30.9863 146.768H30.4932ZM37.6318 144.424C37.5277 144.639 37.3258 144.808 37.0264 144.932C36.7269 145.052 36.3949 145.112 36.0303 145.112C35.5062 145.112 35.0928 144.967 34.79 144.678C34.4873 144.388 34.3359 144.022 34.3359 143.579V139.756H35.6641V143.364C35.6641 143.615 35.752 143.802 35.9277 143.926C36.1068 144.049 36.3249 144.111 36.582 144.111C36.8392 144.111 37.0719 144.043 37.2803 143.906C37.4886 143.766 37.5928 143.561 37.5928 143.291V139.756H38.9209V145H37.6709L37.6318 144.424ZM42.0898 138.745L42.6465 136.963H43.9551L42.8174 138.745H42.0898ZM42.5391 145.112C41.5234 145.112 40.8675 144.884 40.5713 144.429C40.3857 144.149 40.293 143.807 40.293 143.403V141.304C40.293 140.78 40.4834 140.373 40.8643 140.083C41.2451 139.79 41.7871 139.644 42.4902 139.644C43.1934 139.644 43.7223 139.784 44.0771 140.063C44.4352 140.34 44.6143 140.848 44.6143 141.587L43.3643 141.685C43.3643 141.213 43.3073 140.908 43.1934 140.771C43.125 140.687 43.0404 140.632 42.9395 140.605C42.8418 140.583 42.6725 140.571 42.4316 140.571C41.8913 140.571 41.6211 140.817 41.6211 141.309V143.428C41.6211 143.701 41.6911 143.895 41.8311 144.009C41.9743 144.123 42.1842 144.18 42.4609 144.18C42.7409 144.18 42.9378 144.155 43.0518 144.106C43.1657 144.054 43.2471 143.958 43.2959 143.818C43.3447 143.675 43.3691 143.451 43.3691 143.145H44.6094C44.6029 143.529 44.5671 143.841 44.502 144.082C44.4368 144.316 44.3229 144.515 44.1602 144.678C43.8672 144.964 43.3268 145.109 42.5391 145.112ZM45.9082 139.009V137.832H47.2363V139.009H45.9082ZM45.9082 145V139.756H47.2363V145H45.9082ZM53.1104 145.059C52.5081 145.059 52.0622 144.922 51.7725 144.648C51.4827 144.375 51.3379 143.918 51.3379 143.276V137.603H52.666V143.257C52.666 143.55 52.7344 143.76 52.8711 143.887C53.0078 144.01 53.252 144.072 53.6035 144.072H53.7695L53.667 145.059H53.1104ZM55.8643 143.564C55.8643 143.984 56.0921 144.194 56.5479 144.194C56.7269 144.194 56.9157 144.147 57.1143 144.053C57.3128 143.958 57.4691 143.825 57.583 143.652V142.344C57.4268 142.471 57.1517 142.607 56.7578 142.754C56.3639 142.897 56.1165 143.031 56.0156 143.154C55.9147 143.275 55.8643 143.411 55.8643 143.564ZM57.6904 144.419C57.5374 144.618 57.3177 144.784 57.0312 144.917C56.748 145.047 56.403 145.112 55.9961 145.112C55.5892 145.112 55.2441 144.98 54.9609 144.717C54.681 144.453 54.541 144.116 54.541 143.706C54.541 143.296 54.668 142.967 54.9219 142.72C55.179 142.472 55.6689 142.235 56.3916 142.007C56.8311 141.867 57.1387 141.742 57.3145 141.631C57.4935 141.52 57.583 141.367 57.583 141.172C57.583 140.768 57.3079 140.568 56.7578 140.571C56.4486 140.571 56.2354 140.632 56.1182 140.752C56.001 140.869 55.9424 141.04 55.9424 141.265V141.47H54.6973V141.313C54.6973 140.789 54.8714 140.381 55.2197 140.088C55.568 139.792 56.1035 139.644 56.8262 139.644C57.5488 139.644 58.0729 139.797 58.3984 140.103C58.7272 140.409 58.8916 140.848 58.8916 141.421V143.496C58.8916 143.73 58.9209 143.885 58.9795 143.96C59.0381 144.035 59.1504 144.072 59.3164 144.072L59.2627 145.039H58.9844C58.623 145.039 58.3415 144.99 58.1396 144.893C57.9378 144.792 57.7881 144.634 57.6904 144.419ZM63.7793 141.313C63.7793 140.861 63.4717 140.635 62.8564 140.635C62.5928 140.635 62.3568 140.705 62.1484 140.845C61.9401 140.981 61.8359 141.17 61.8359 141.411V145H60.5078V139.756H61.8359V140.22C62.2819 139.829 62.8027 139.634 63.3984 139.634C63.9941 139.634 64.4271 139.787 64.6973 140.093C64.9707 140.399 65.1074 140.781 65.1074 141.24V145H63.7793V141.313ZM67.7197 143.564C67.7197 143.984 67.9476 144.194 68.4033 144.194C68.5824 144.194 68.7712 144.147 68.9697 144.053C69.1683 143.958 69.3245 143.825 69.4385 143.652V142.344C69.2822 142.471 69.0072 142.607 68.6133 142.754C68.2194 142.897 67.972 143.031 67.8711 143.154C67.7702 143.275 67.7197 143.411 67.7197 143.564ZM69.5459 144.419C69.3929 144.618 69.1732 144.784 68.8867 144.917C68.6035 145.047 68.2585 145.112 67.8516 145.112C67.4447 145.112 67.0996 144.98 66.8164 144.717C66.5365 144.453 66.3965 144.116 66.3965 143.706C66.3965 143.296 66.5234 142.967 66.7773 142.72C67.0345 142.472 67.5244 142.235 68.2471 142.007C68.6865 141.867 68.9941 141.742 69.1699 141.631C69.349 141.52 69.4385 141.367 69.4385 141.172C69.4385 140.768 69.1634 140.568 68.6133 140.571C68.304 140.571 68.0908 140.632 67.9736 140.752C67.8564 140.869 67.7979 141.04 67.7979 141.265V141.47H66.5527V141.313C66.5527 140.789 66.7269 140.381 67.0752 140.088C67.4235 139.792 67.959 139.644 68.6816 139.644C69.4043 139.644 69.9284 139.797 70.2539 140.103C70.5827 140.409 70.7471 140.848 70.7471 141.421V143.496C70.7471 143.73 70.7764 143.885 70.835 143.96C70.8936 144.035 71.0059 144.072 71.1719 144.072L71.1182 145.039H70.8398C70.4785 145.039 70.1969 144.99 69.9951 144.893C69.7933 144.792 69.6436 144.634 69.5459 144.419ZM74.4336 145.112C73.418 145.112 72.762 144.884 72.4658 144.429C72.2803 144.149 72.1875 143.807 72.1875 143.403V141.304C72.1875 140.78 72.3779 140.373 72.7588 140.083C73.1396 139.79 73.6816 139.644 74.3848 139.644C75.0879 139.644 75.6169 139.784 75.9717 140.063C76.3298 140.34 76.5088 140.848 76.5088 141.587L75.2588 141.685C75.2588 141.213 75.2018 140.908 75.0879 140.771C75.0195 140.687 74.9349 140.632 74.834 140.605C74.7363 140.583 74.5671 140.571 74.3262 140.571C73.7858 140.571 73.5156 140.817 73.5156 141.309V143.428C73.5156 143.701 73.5856 143.895 73.7256 144.009C73.8688 144.123 74.0788 144.18 74.3555 144.18C74.6354 144.18 74.8324 144.155 74.9463 144.106C75.0602 144.054 75.1416 143.958 75.1904 143.818C75.2393 143.675 75.2637 143.451 75.2637 143.145H76.5039C76.4974 143.529 76.4616 143.841 76.3965 144.082C76.3314 144.316 76.2174 144.515 76.0547 144.678C75.7617 144.964 75.2214 145.109 74.4336 145.112Z" fill="white"/>
<defs>
<filter id="filter0_d" x="138.731" y="104" width="28.9427" height="43.7334" filterUnits="userSpaceOnUse" color-interpolation-filters="sRGB">
<feFlood flood-opacity="0" result="BackgroundImageFix"/>
<feColorMatrix in="SourceAlpha" type="matrix" values="0 0 0 0 0 0 0 0 0 0 0 0 0 0 0 0 0 0 127 0"/>
<feOffset dy="4"/>
<feGaussianBlur stdDeviation="2"/>
<feColorMatrix type="matrix" values="0 0 0 0 0 0 0 0 0 0 0 0 0 0 0 0 0 0 0.25 0"/>
<feBlend mode="normal" in2="BackgroundImageFix" result="effect1_dropShadow"/>
<feBlend mode="normal" in="SourceGraphic" in2="effect1_dropShadow" result="shape"/>
</filter>
<filter id="filter1_d" x="284.731" y="47" width="28.9427" height="43.7334" filterUnits="userSpaceOnUse" color-interpolation-filters="sRGB">
<feFlood flood-opacity="0" result="BackgroundImageFix"/>
<feColorMatrix in="SourceAlpha" type="matrix" values="0 0 0 0 0 0 0 0 0 0 0 0 0 0 0 0 0 0 127 0"/>
<feOffset dy="4"/>
<feGaussianBlur stdDeviation="2"/>
<feColorMatrix type="matrix" values="0 0 0 0 0 0 0 0 0 0 0 0 0 0 0 0 0 0 0.25 0"/>
<feBlend mode="normal" in2="BackgroundImageFix" result="effect1_dropShadow"/>
<feBlend mode="normal" in="SourceGraphic" in2="effect1_dropShadow" result="shape"/>
</filter>
<filter id="filter2_d" x="323" y="78.6245" width="59.3696" height="37.3489" filterUnits="userSpaceOnUse" color-interpolation-filters="sRGB">
<feFlood flood-opacity="0" result="BackgroundImageFix"/>
<feColorMatrix in="SourceAlpha" type="matrix" values="0 0 0 0 0 0 0 0 0 0 0 0 0 0 0 0 0 0 127 0"/>
<feOffset dy="4"/>
<feGaussianBlur stdDeviation="2"/>
<feColorMatrix type="matrix" values="0 0 0 0 0 0 0 0 0 0 0 0 0 0 0 0 0 0 0.25 0"/>
<feBlend mode="normal" in2="BackgroundImageFix" result="effect1_dropShadow"/>
<feBlend mode="normal" in="SourceGraphic" in2="effect1_dropShadow" result="shape"/>
</filter>
<filter id="filter3_d" x="153.889" y="96.6562" width="16.8672" height="15.4756" filterUnits="userSpaceOnUse" color-interpolation-filters="sRGB">
<feFlood flood-opacity="0" result="BackgroundImageFix"/>
<feColorMatrix in="SourceAlpha" type="matrix" values="0 0 0 0 0 0 0 0 0 0 0 0 0 0 0 0 0 0 127 0"/>
<feOffset dy="4"/>
<feGaussianBlur stdDeviation="2"/>
<feColorMatrix type="matrix" values="0 0 0 0 0 0 0 0 0 0 0 0 0 0 0 0 0 0 0.25 0"/>
<feBlend mode="normal" in2="BackgroundImageFix" result="effect1_dropShadow"/>
<feBlend mode="normal" in="SourceGraphic" in2="effect1_dropShadow" result="shape"/>
</filter>
<filter id="filter4_d" x="213.952" y="83.6562" width="16.8037" height="15.4756" filterUnits="userSpaceOnUse" color-interpolation-filters="sRGB">
<feFlood flood-opacity="0" result="BackgroundImageFix"/>
<feColorMatrix in="SourceAlpha" type="matrix" values="0 0 0 0 0 0 0 0 0 0 0 0 0 0 0 0 0 0 127 0"/>
<feOffset dy="4"/>
<feGaussianBlur stdDeviation="2"/>
<feColorMatrix type="matrix" values="0 0 0 0 0 0 0 0 0 0 0 0 0 0 0 0 0 0 0.25 0"/>
<feBlend mode="normal" in2="BackgroundImageFix" result="effect1_dropShadow"/>
<feBlend mode="normal" in="SourceGraphic" in2="effect1_dropShadow" result="shape"/>
</filter>
<filter id="filter5_d" x="288.889" y="83.6562" width="16.8672" height="15.4756" filterUnits="userSpaceOnUse" color-interpolation-filters="sRGB">
<feFlood flood-opacity="0" result="BackgroundImageFix"/>
<feColorMatrix in="SourceAlpha" type="matrix" values="0 0 0 0 0 0 0 0 0 0 0 0 0 0 0 0 0 0 127 0"/>
<feOffset dy="4"/>
<feGaussianBlur stdDeviation="2"/>
<feColorMatrix type="matrix" values="0 0 0 0 0 0 0 0 0 0 0 0 0 0 0 0 0 0 0.25 0"/>
<feBlend mode="normal" in2="BackgroundImageFix" result="effect1_dropShadow"/>
<feBlend mode="normal" in="SourceGraphic" in2="effect1_dropShadow" result="shape"/>
</filter>
<filter id="filter6_d" x="231.952" y="96.6562" width="16.8037" height="15.4756" filterUnits="userSpaceOnUse" color-interpolation-filters="sRGB">
<feFlood flood-opacity="0" result="BackgroundImageFix"/>
<feColorMatrix in="SourceAlpha" type="matrix" values="0 0 0 0 0 0 0 0 0 0 0 0 0 0 0 0 0 0 127 0"/>
<feOffset dy="4"/>
<feGaussianBlur stdDeviation="2"/>
<feColorMatrix type="matrix" values="0 0 0 0 0 0 0 0 0 0 0 0 0 0 0 0 0 0 0.25 0"/>
<feBlend mode="normal" in2="BackgroundImageFix" result="effect1_dropShadow"/>
<feBlend mode="normal" in="SourceGraphic" in2="effect1_dropShadow" result="shape"/>
</filter>
<filter id="filter7_d" x="817.904" y="55.3125" width="25.6074" height="22.9512" filterUnits="userSpaceOnUse" color-interpolation-filters="sRGB">
<feFlood flood-opacity="0" result="BackgroundImageFix"/>
<feColorMatrix in="SourceAlpha" type="matrix" values="0 0 0 0 0 0 0 0 0 0 0 0 0 0 0 0 0 0 127 0"/>
<feOffset dy="4"/>
<feGaussianBlur stdDeviation="2"/>
<feColorMatrix type="matrix" values="0 0 0 0 0 0 0 0 0 0 0 0 0 0 0 0 0 0 0.25 0"/>
<feBlend mode="normal" in2="BackgroundImageFix" result="effect1_dropShadow"/>
<feBlend mode="normal" in="SourceGraphic" in2="effect1_dropShadow" result="shape"/>
</filter>
<filter id="filter8_d" x="817.777" y="111.312" width="25.7344" height="22.9512" filterUnits="userSpaceOnUse" color-interpolation-filters="sRGB">
<feFlood flood-opacity="0" result="BackgroundImageFix"/>
<feColorMatrix in="SourceAlpha" type="matrix" values="0 0 0 0 0 0 0 0 0 0 0 0 0 0 0 0 0 0 127 0"/>
<feOffset dy="4"/>
<feGaussianBlur stdDeviation="2"/>
<feColorMatrix type="matrix" values="0 0 0 0 0 0 0 0 0 0 0 0 0 0 0 0 0 0 0.25 0"/>
<feBlend mode="normal" in2="BackgroundImageFix" result="effect1_dropShadow"/>
<feBlend mode="normal" in="SourceGraphic" in2="effect1_dropShadow" result="shape"/>
</filter>
<filter id="filter9_d" x="123" y="15" width="698" height="164" filterUnits="userSpaceOnUse" color-interpolation-filters="sRGB">
<feFlood flood-opacity="0" result="BackgroundImageFix"/>
<feColorMatrix in="SourceAlpha" type="matrix" values="0 0 0 0 0 0 0 0 0 0 0 0 0 0 0 0 0 0 127 0"/>
<feOffset dy="4"/>
<feGaussianBlur stdDeviation="2"/>
<feColorMatrix type="matrix" values="0 0 0 0 0 0 0 0 0 0 0 0 0 0 0 0 0 0 0.25 0"/>
<feBlend mode="normal" in2="BackgroundImageFix" result="effect1_dropShadow"/>
<feBlend mode="normal" in="SourceGraphic" in2="effect1_dropShadow" result="shape"/>
</filter>
<filter id="filter10_d" x="132" y="48" width="86.5" height="33.3999" filterUnits="userSpaceOnUse" color-interpolation-filters="sRGB">
<feFlood flood-opacity="0" result="BackgroundImageFix"/>
<feColorMatrix in="SourceAlpha" type="matrix" values="0 0 0 0 0 0 0 0 0 0 0 0 0 0 0 0 0 0 127 0"/>
<feOffset dy="4"/>
<feGaussianBlur stdDeviation="2"/>
<feColorMatrix type="matrix" values="0 0 0 0 0 0 0 0 0 0 0 0 0 0 0 0 0 0 0.25 0"/>
<feBlend mode="normal" in2="BackgroundImageFix" result="effect1_dropShadow"/>
<feBlend mode="normal" in="SourceGraphic" in2="effect1_dropShadow" result="shape"/>
</filter>
<filter id="filter11_d" x="216" y="48" width="78" height="41" filterUnits="userSpaceOnUse" color-interpolation-filters="sRGB">
<feFlood flood-opacity="0" result="BackgroundImageFix"/>
<feColorMatrix in="SourceAlpha" type="matrix" values="0 0 0 0 0 0 0 0 0 0 0 0 0 0 0 0 0 0 127 0"/>
<feOffset dy="4"/>
<feGaussianBlur stdDeviation="2"/>
<feColorMatrix type="matrix" values="0 0 0 0 0 0 0 0 0 0 0 0 0 0 0 0 0 0 0.25 0"/>
<feBlend mode="normal" in2="BackgroundImageFix" result="effect1_dropShadow"/>
<feBlend mode="normal" in="SourceGraphic" in2="effect1_dropShadow" result="shape"/>
</filter>
<filter id="filter12_d" x="159" y="104.5" width="89" height="41.4999" filterUnits="userSpaceOnUse" color-interpolation-filters="sRGB">
<feFlood flood-opacity="0" result="BackgroundImageFix"/>
<feColorMatrix in="SourceAlpha" type="matrix" values="0 0 0 0 0 0 0 0 0 0 0 0 0 0 0 0 0 0 127 0"/>
<feOffset dy="4"/>
<feGaussianBlur stdDeviation="2"/>
<feColorMatrix type="matrix" values="0 0 0 0 0 0 0 0 0 0 0 0 0 0 0 0 0 0 0.25 0"/>
<feBlend mode="normal" in2="BackgroundImageFix" result="effect1_dropShadow"/>
<feBlend mode="normal" in="SourceGraphic" in2="effect1_dropShadow" result="shape"/>
</filter>
<filter id="filter13_d" x="244.1" y="112.7" width="86.5" height="33.3" filterUnits="userSpaceOnUse" color-interpolation-filters="sRGB">
<feFlood flood-opacity="0" result="BackgroundImageFix"/>
<feColorMatrix in="SourceAlpha" type="matrix" values="0 0 0 0 0 0 0 0 0 0 0 0 0 0 0 0 0 0 127 0"/>
<feOffset dy="4"/>
<feGaussianBlur stdDeviation="2"/>
<feColorMatrix type="matrix" values="0 0 0 0 0 0 0 0 0 0 0 0 0 0 0 0 0 0 0.25 0"/>
<feBlend mode="normal" in2="BackgroundImageFix" result="effect1_dropShadow"/>
<feBlend mode="normal" in="SourceGraphic" in2="effect1_dropShadow" result="shape"/>
</filter>
<filter id="filter14_d" x="226" y="84.0544" width="64.4" height="13.8912" filterUnits="userSpaceOnUse" color-interpolation-filters="sRGB">
<feFlood flood-opacity="0" result="BackgroundImageFix"/>
<feColorMatrix in="SourceAlpha" type="matrix" values="0 0 0 0 0 0 0 0 0 0 0 0 0 0 0 0 0 0 127 0"/>
<feOffset dy="4"/>
<feGaussianBlur stdDeviation="2"/>
<feColorMatrix type="matrix" values="0 0 0 0 0 0 0 0 0 0 0 0 0 0 0 0 0 0 0.25 0"/>
<feBlend mode="normal" in2="BackgroundImageFix" result="effect1_dropShadow"/>
<feBlend mode="normal" in="SourceGraphic" in2="effect1_dropShadow" result="shape"/>
</filter>
<filter id="filter15_d" x="170.6" y="97.0544" width="64.4" height="13.8912" filterUnits="userSpaceOnUse" color-interpolation-filters="sRGB">
<feFlood flood-opacity="0" result="BackgroundImageFix"/>
<feColorMatrix in="SourceAlpha" type="matrix" values="0 0 0 0 0 0 0 0 0 0 0 0 0 0 0 0 0 0 127 0"/>
<feOffset dy="4"/>
<feGaussianBlur stdDeviation="2"/>
<feColorMatrix type="matrix" values="0 0 0 0 0 0 0 0 0 0 0 0 0 0 0 0 0 0 0.25 0"/>
<feBlend mode="normal" in2="BackgroundImageFix" result="effect1_dropShadow"/>
<feBlend mode="normal" in="SourceGraphic" in2="effect1_dropShadow" result="shape"/>
</filter>
</defs>
</svg>
