<svg width="435" height="61" viewBox="0 0 435 61" fill="none" xmlns="http://www.w3.org/2000/svg">
<path d="M10.1562 14.7207H6.37695V26H4.61914V14.7207H0.839844V13.2363H10.1562V14.7207ZM16.4941 16.0195C16.696 16.0195 16.888 16.0618 17.0703 16.1465C17.2526 16.2246 17.4121 16.332 17.5488 16.4688C17.6855 16.6055 17.793 16.765 17.8711 16.9473C17.9557 17.1296 17.998 17.3216 17.998 17.5234C17.998 17.7318 17.9557 17.9271 17.8711 18.1094C17.793 18.2852 17.6855 18.4414 17.5488 18.5781C17.4121 18.7148 17.2526 18.8223 17.0703 18.9004C16.888 18.9785 16.696 19.0176 16.4941 19.0176C16.2858 19.0176 16.0905 18.9785 15.9082 18.9004C15.7324 18.8223 15.5762 18.7148 15.4395 18.5781C15.3027 18.4414 15.1953 18.2852 15.1172 18.1094C15.0391 17.9271 15 17.7318 15 17.5234C15 17.3216 15.0391 17.1296 15.1172 16.9473C15.1953 16.765 15.3027 16.6055 15.4395 16.4688C15.5762 16.332 15.7324 16.2246 15.9082 16.1465C16.0905 16.0618 16.2858 16.0195 16.4941 16.0195ZM16.4941 23.1777C16.696 23.1777 16.888 23.2201 17.0703 23.3047C17.2526 23.3828 17.4121 23.4902 17.5488 23.627C17.6855 23.7637 17.793 23.9232 17.8711 24.1055C17.9557 24.2878 17.998 24.4798 17.998 24.6816C17.998 24.89 17.9557 25.0853 17.8711 25.2676C17.793 25.4434 17.6855 25.5996 17.5488 25.7363C17.4121 25.873 17.2526 25.9805 17.0703 26.0586C16.888 26.1367 16.696 26.1758 16.4941 26.1758C16.2858 26.1758 16.0905 26.1367 15.9082 26.0586C15.7324 25.9805 15.5762 25.873 15.4395 25.7363C15.3027 25.5996 15.1953 25.4434 15.1172 25.2676C15.0391 25.0853 15 24.89 15 24.6816C15 24.4798 15.0391 24.2878 15.1172 24.1055C15.1953 23.9232 15.3027 23.7637 15.4395 23.627C15.5762 23.4902 15.7324 23.3828 15.9082 23.3047C16.0905 23.2201 16.2858 23.1777 16.4941 23.1777ZM42.7051 25.5215C41.6829 25.9447 40.612 26.1562 39.4922 26.1562C37.6888 26.1562 36.3021 25.6191 35.332 24.5449C34.3685 23.4642 33.8867 21.8691 33.8867 19.7598C33.8867 18.7376 34.0202 17.8132 34.2871 16.9863C34.554 16.1595 34.9349 15.4596 35.4297 14.8867C35.9245 14.3073 36.5234 13.8613 37.2266 13.5488C37.9297 13.2363 38.7174 13.0801 39.5898 13.0801C40.1823 13.0801 40.7324 13.1322 41.2402 13.2363C41.748 13.334 42.2363 13.487 42.7051 13.6953V15.4043C42.2428 15.1504 41.7643 14.9583 41.2695 14.8281C40.7747 14.6914 40.2344 14.623 39.6484 14.623C39.0495 14.623 38.5059 14.737 38.0176 14.9648C37.5358 15.1862 37.1257 15.5117 36.7871 15.9414C36.4486 16.3646 36.1882 16.8854 36.0059 17.5039C35.8236 18.1159 35.7324 18.8158 35.7324 19.6035C35.7324 21.2572 36.0677 22.5039 36.7383 23.3438C37.4089 24.1836 38.3919 24.6035 39.6875 24.6035C40.2344 24.6035 40.7585 24.5417 41.2598 24.418C41.7611 24.2878 42.2428 24.1087 42.7051 23.8809V25.5215ZM53.8086 15.4238C53.3333 15.1699 52.8451 14.9746 52.3438 14.8379C51.8424 14.6947 51.2956 14.623 50.7031 14.623C50.026 14.623 49.4238 14.7435 48.8965 14.9844C48.3691 15.2253 47.9232 15.5671 47.5586 16.0098C47.2005 16.446 46.9238 16.9733 46.7285 17.5918C46.5397 18.2103 46.4453 18.8939 46.4453 19.6426C46.4453 20.4238 46.5234 21.1237 46.6797 21.7422C46.8359 22.3607 47.0801 22.8848 47.4121 23.3145C47.7441 23.7441 48.1673 24.0729 48.6816 24.3008C49.2025 24.5286 49.8242 24.6426 50.5469 24.6426C50.6706 24.6426 50.804 24.6361 50.9473 24.623C51.0905 24.61 51.2337 24.5938 51.377 24.5742C51.5202 24.5482 51.6569 24.5189 51.7871 24.4863C51.9238 24.4538 52.0443 24.418 52.1484 24.3789V20.3164H49.541V18.8809H53.8672V25.4043C53.6003 25.528 53.3171 25.6387 53.0176 25.7363C52.7246 25.834 52.4219 25.9154 52.1094 25.9805C51.8034 26.0456 51.4974 26.0944 51.1914 26.127C50.8854 26.1595 50.5892 26.1758 50.3027 26.1758C49.4303 26.1758 48.6426 26.0391 47.9395 25.7656C47.2428 25.4922 46.6471 25.0885 46.1523 24.5547C45.6641 24.0143 45.2865 23.3438 45.0195 22.543C44.7591 21.7422 44.6289 20.8145 44.6289 19.7598C44.6289 18.7116 44.7754 17.7741 45.0684 16.9473C45.3613 16.1139 45.7715 15.4108 46.2988 14.8379C46.8327 14.2585 47.4707 13.819 48.2129 13.5195C48.9616 13.2135 49.7852 13.0605 50.6836 13.0605C51.2565 13.0605 51.8001 13.1126 52.3145 13.2168C52.8353 13.3145 53.3333 13.474 53.8086 13.6953V15.4238ZM65.1367 14.7207H61.3574V26H59.5996V14.7207H55.8203V13.2363H65.1367V14.7207ZM75.8008 15.4238C75.3255 15.1699 74.8372 14.9746 74.3359 14.8379C73.8346 14.6947 73.2878 14.623 72.6953 14.623C72.0182 14.623 71.416 14.7435 70.8887 14.9844C70.3613 15.2253 69.9154 15.5671 69.5508 16.0098C69.1927 16.446 68.916 16.9733 68.7207 17.5918C68.5319 18.2103 68.4375 18.8939 68.4375 19.6426C68.4375 20.4238 68.5156 21.1237 68.6719 21.7422C68.8281 22.3607 69.0723 22.8848 69.4043 23.3145C69.7363 23.7441 70.1595 24.0729 70.6738 24.3008C71.1947 24.5286 71.8164 24.6426 72.5391 24.6426C72.6628 24.6426 72.7962 24.6361 72.9395 24.623C73.0827 24.61 73.2259 24.5938 73.3691 24.5742C73.5124 24.5482 73.6491 24.5189 73.7793 24.4863C73.916 24.4538 74.0365 24.418 74.1406 24.3789V20.3164H71.5332V18.8809H75.8594V25.4043C75.5924 25.528 75.3092 25.6387 75.0098 25.7363C74.7168 25.834 74.4141 25.9154 74.1016 25.9805C73.7956 26.0456 73.4896 26.0944 73.1836 26.127C72.8776 26.1595 72.5814 26.1758 72.2949 26.1758C71.4225 26.1758 70.6348 26.0391 69.9316 25.7656C69.235 25.4922 68.6393 25.0885 68.1445 24.5547C67.6562 24.0143 67.2786 23.3438 67.0117 22.543C66.7513 21.7422 66.6211 20.8145 66.6211 19.7598C66.6211 18.7116 66.7676 17.7741 67.0605 16.9473C67.3535 16.1139 67.7637 15.4108 68.291 14.8379C68.8249 14.2585 69.4629 13.819 70.2051 13.5195C70.9538 13.2135 71.7773 13.0605 72.6758 13.0605C73.2487 13.0605 73.7923 13.1126 74.3066 13.2168C74.8275 13.3145 75.3255 13.474 75.8008 13.6953V15.4238ZM142.109 14.7207H138.33V26H136.572V14.7207H132.793V13.2363H142.109V14.7207ZM153.105 14.7207H149.326V26H147.568V14.7207H143.789V13.2363H153.105V14.7207ZM9.92188 40.1426C9.92188 40.6634 9.82422 41.181 9.62891 41.6953C9.43359 42.2031 9.13086 42.6589 8.7207 43.0625C8.31055 43.4661 7.78646 43.7949 7.14844 44.0488C6.51042 44.2962 5.7487 44.4199 4.86328 44.4199H3.28125V49H1.54297V36.2363H5.13672C5.76823 36.2363 6.3737 36.3079 6.95312 36.4512C7.53255 36.5879 8.04036 36.8125 8.47656 37.125C8.91927 37.4375 9.27083 37.8411 9.53125 38.3359C9.79167 38.8307 9.92188 39.4329 9.92188 40.1426ZM8.11523 40.2207C8.11523 39.4004 7.84505 38.7721 7.30469 38.3359C6.77083 37.8997 6.02214 37.6816 5.05859 37.6816H3.28125V42.9355H4.90234C5.93099 42.9355 6.72201 42.7109 7.27539 42.2617C7.83529 41.8125 8.11523 41.1322 8.11523 40.2207ZM16.4941 39.0195C16.696 39.0195 16.888 39.0618 17.0703 39.1465C17.2526 39.2246 17.4121 39.332 17.5488 39.4688C17.6855 39.6055 17.793 39.765 17.8711 39.9473C17.9557 40.1296 17.998 40.3216 17.998 40.5234C17.998 40.7318 17.9557 40.9271 17.8711 41.1094C17.793 41.2852 17.6855 41.4414 17.5488 41.5781C17.4121 41.7148 17.2526 41.8223 17.0703 41.9004C16.888 41.9785 16.696 42.0176 16.4941 42.0176C16.2858 42.0176 16.0905 41.9785 15.9082 41.9004C15.7324 41.8223 15.5762 41.7148 15.4395 41.5781C15.3027 41.4414 15.1953 41.2852 15.1172 41.1094C15.0391 40.9271 15 40.7318 15 40.5234C15 40.3216 15.0391 40.1296 15.1172 39.9473C15.1953 39.765 15.3027 39.6055 15.4395 39.4688C15.5762 39.332 15.7324 39.2246 15.9082 39.1465C16.0905 39.0618 16.2858 39.0195 16.4941 39.0195ZM16.4941 46.1777C16.696 46.1777 16.888 46.2201 17.0703 46.3047C17.2526 46.3828 17.4121 46.4902 17.5488 46.627C17.6855 46.7637 17.793 46.9232 17.8711 47.1055C17.9557 47.2878 17.998 47.4798 17.998 47.6816C17.998 47.89 17.9557 48.0853 17.8711 48.2676C17.793 48.4434 17.6855 48.5996 17.5488 48.7363C17.4121 48.873 17.2526 48.9805 17.0703 49.0586C16.888 49.1367 16.696 49.1758 16.4941 49.1758C16.2858 49.1758 16.0905 49.1367 15.9082 49.0586C15.7324 48.9805 15.5762 48.873 15.4395 48.7363C15.3027 48.5996 15.1953 48.4434 15.1172 48.2676C15.0391 48.0853 15 47.89 15 47.6816C15 47.4798 15.0391 47.2878 15.1172 47.1055C15.1953 46.9232 15.3027 46.7637 15.4395 46.627C15.5762 46.4902 15.7324 46.3828 15.9082 46.3047C16.0905 46.2201 16.2858 46.1777 16.4941 46.1777ZM42.8125 38.4238C42.3372 38.1699 41.849 37.9746 41.3477 37.8379C40.8464 37.6947 40.2995 37.623 39.707 37.623C39.0299 37.623 38.4277 37.7435 37.9004 37.9844C37.373 38.2253 36.9271 38.5671 36.5625 39.0098C36.2044 39.446 35.9277 39.9733 35.7324 40.5918C35.5436 41.2103 35.4492 41.8939 35.4492 42.6426C35.4492 43.4238 35.5273 44.1237 35.6836 44.7422C35.8398 45.3607 36.084 45.8848 36.416 46.3145C36.748 46.7441 37.1712 47.0729 37.6855 47.3008C38.2064 47.5286 38.8281 47.6426 39.5508 47.6426C39.6745 47.6426 39.8079 47.6361 39.9512 47.623C40.0944 47.61 40.2376 47.5938 40.3809 47.5742C40.5241 47.5482 40.6608 47.5189 40.791 47.4863C40.9277 47.4538 41.0482 47.418 41.1523 47.3789V43.3164H38.5449V41.8809H42.8711V48.4043C42.6042 48.528 42.321 48.6387 42.0215 48.7363C41.7285 48.834 41.4258 48.9154 41.1133 48.9805C40.8073 49.0456 40.5013 49.0944 40.1953 49.127C39.8893 49.1595 39.5931 49.1758 39.3066 49.1758C38.4342 49.1758 37.6465 49.0391 36.9434 48.7656C36.2467 48.4922 35.651 48.0885 35.1562 47.5547C34.668 47.0143 34.2904 46.3438 34.0234 45.543C33.763 44.7422 33.6328 43.8145 33.6328 42.7598C33.6328 41.7116 33.7793 40.7741 34.0723 39.9473C34.3652 39.1139 34.7754 38.4108 35.3027 37.8379C35.8366 37.2585 36.4746 36.819 37.2168 36.5195C37.9655 36.2135 38.7891 36.0605 39.6875 36.0605C40.2604 36.0605 40.804 36.1126 41.3184 36.2168C41.8392 36.3145 42.3372 36.474 42.8125 36.6953V38.4238Z" fill="#C9D1D9"/>
<path d="M86.6895 25.5215C85.6673 25.9447 84.5964 26.1562 83.4766 26.1562C81.6732 26.1562 80.2865 25.6191 79.3164 24.5449C78.3529 23.4642 77.8711 21.8691 77.8711 19.7598C77.8711 18.7376 78.0046 17.8132 78.2715 16.9863C78.5384 16.1595 78.9193 15.4596 79.4141 14.8867C79.9089 14.3073 80.5078 13.8613 81.2109 13.5488C81.9141 13.2363 82.7018 13.0801 83.5742 13.0801C84.1667 13.0801 84.7168 13.1322 85.2246 13.2363C85.7324 13.334 86.2207 13.487 86.6895 13.6953V15.4043C86.2272 15.1504 85.7487 14.9583 85.2539 14.8281C84.7591 14.6914 84.2188 14.623 83.6328 14.623C83.0339 14.623 82.4902 14.737 82.002 14.9648C81.5202 15.1862 81.11 15.5117 80.7715 15.9414C80.4329 16.3646 80.1725 16.8854 79.9902 17.5039C79.8079 18.1159 79.7168 18.8158 79.7168 19.6035C79.7168 21.2572 80.0521 22.5039 80.7227 23.3438C81.3932 24.1836 82.3763 24.6035 83.6719 24.6035C84.2188 24.6035 84.7428 24.5417 85.2441 24.418C85.7454 24.2878 86.2272 24.1087 86.6895 23.8809V25.5215ZM97.793 15.4238C97.3177 15.1699 96.8294 14.9746 96.3281 14.8379C95.8268 14.6947 95.2799 14.623 94.6875 14.623C94.0104 14.623 93.4082 14.7435 92.8809 14.9844C92.3535 15.2253 91.9076 15.5671 91.543 16.0098C91.1849 16.446 90.9082 16.9733 90.7129 17.5918C90.5241 18.2103 90.4297 18.8939 90.4297 19.6426C90.4297 20.4238 90.5078 21.1237 90.6641 21.7422C90.8203 22.3607 91.0645 22.8848 91.3965 23.3145C91.7285 23.7441 92.1517 24.0729 92.666 24.3008C93.1868 24.5286 93.8086 24.6426 94.5312 24.6426C94.6549 24.6426 94.7884 24.6361 94.9316 24.623C95.0749 24.61 95.2181 24.5938 95.3613 24.5742C95.5046 24.5482 95.6413 24.5189 95.7715 24.4863C95.9082 24.4538 96.0286 24.418 96.1328 24.3789V20.3164H93.5254V18.8809H97.8516V25.4043C97.5846 25.528 97.3014 25.6387 97.002 25.7363C96.709 25.834 96.4062 25.9154 96.0938 25.9805C95.7878 26.0456 95.4818 26.0944 95.1758 26.127C94.8698 26.1595 94.5736 26.1758 94.2871 26.1758C93.4147 26.1758 92.627 26.0391 91.9238 25.7656C91.2272 25.4922 90.6315 25.0885 90.1367 24.5547C89.6484 24.0143 89.2708 23.3438 89.0039 22.543C88.7435 21.7422 88.6133 20.8145 88.6133 19.7598C88.6133 18.7116 88.7598 17.7741 89.0527 16.9473C89.3457 16.1139 89.7559 15.4108 90.2832 14.8379C90.8171 14.2585 91.4551 13.819 92.1973 13.5195C92.946 13.2135 93.7695 13.0605 94.668 13.0605C95.2409 13.0605 95.7845 13.1126 96.2988 13.2168C96.8197 13.3145 97.3177 13.474 97.793 13.6953V15.4238ZM109.121 14.7207H105.342V26H103.584V14.7207H99.8047V13.2363H109.121V14.7207ZM119.785 15.4238C119.31 15.1699 118.822 14.9746 118.32 14.8379C117.819 14.6947 117.272 14.623 116.68 14.623C116.003 14.623 115.4 14.7435 114.873 14.9844C114.346 15.2253 113.9 15.5671 113.535 16.0098C113.177 16.446 112.9 16.9733 112.705 17.5918C112.516 18.2103 112.422 18.8939 112.422 19.6426C112.422 20.4238 112.5 21.1237 112.656 21.7422C112.812 22.3607 113.057 22.8848 113.389 23.3145C113.721 23.7441 114.144 24.0729 114.658 24.3008C115.179 24.5286 115.801 24.6426 116.523 24.6426C116.647 24.6426 116.781 24.6361 116.924 24.623C117.067 24.61 117.21 24.5938 117.354 24.5742C117.497 24.5482 117.633 24.5189 117.764 24.4863C117.9 24.4538 118.021 24.418 118.125 24.3789V20.3164H115.518V18.8809H119.844V25.4043C119.577 25.528 119.294 25.6387 118.994 25.7363C118.701 25.834 118.398 25.9154 118.086 25.9805C117.78 26.0456 117.474 26.0944 117.168 26.127C116.862 26.1595 116.566 26.1758 116.279 26.1758C115.407 26.1758 114.619 26.0391 113.916 25.7656C113.219 25.4922 112.624 25.0885 112.129 24.5547C111.641 24.0143 111.263 23.3438 110.996 22.543C110.736 21.7422 110.605 20.8145 110.605 19.7598C110.605 18.7116 110.752 17.7741 111.045 16.9473C111.338 16.1139 111.748 15.4108 112.275 14.8379C112.809 14.2585 113.447 13.819 114.189 13.5195C114.938 13.2135 115.762 13.0605 116.66 13.0605C117.233 13.0605 117.777 13.1126 118.291 13.2168C118.812 13.3145 119.31 13.474 119.785 13.6953V15.4238ZM130.674 25.5215C129.652 25.9447 128.581 26.1562 127.461 26.1562C125.658 26.1562 124.271 25.6191 123.301 24.5449C122.337 23.4642 121.855 21.8691 121.855 19.7598C121.855 18.7376 121.989 17.8132 122.256 16.9863C122.523 16.1595 122.904 15.4596 123.398 14.8867C123.893 14.3073 124.492 13.8613 125.195 13.5488C125.898 13.2363 126.686 13.0801 127.559 13.0801C128.151 13.0801 128.701 13.1322 129.209 13.2363C129.717 13.334 130.205 13.487 130.674 13.6953V15.4043C130.212 15.1504 129.733 14.9583 129.238 14.8281C128.743 14.6914 128.203 14.623 127.617 14.623C127.018 14.623 126.475 14.737 125.986 14.9648C125.505 15.1862 125.094 15.5117 124.756 15.9414C124.417 16.3646 124.157 16.8854 123.975 17.5039C123.792 18.1159 123.701 18.8158 123.701 19.6035C123.701 21.2572 124.036 22.5039 124.707 23.3438C125.378 24.1836 126.361 24.6035 127.656 24.6035C128.203 24.6035 128.727 24.5417 129.229 24.418C129.73 24.2878 130.212 24.1087 130.674 23.8809V25.5215ZM53.7012 48.5215C52.679 48.9447 51.6081 49.1562 50.4883 49.1562C48.6849 49.1562 47.2982 48.6191 46.3281 47.5449C45.3646 46.4642 44.8828 44.8691 44.8828 42.7598C44.8828 41.7376 45.0163 40.8132 45.2832 39.9863C45.5501 39.1595 45.931 38.4596 46.4258 37.8867C46.9206 37.3073 47.5195 36.8613 48.2227 36.5488C48.9258 36.2363 49.7135 36.0801 50.5859 36.0801C51.1784 36.0801 51.7285 36.1322 52.2363 36.2363C52.7441 36.334 53.2324 36.487 53.7012 36.6953V38.4043C53.2389 38.1504 52.7604 37.9583 52.2656 37.8281C51.7708 37.6914 51.2305 37.623 50.6445 37.623C50.0456 37.623 49.502 37.737 49.0137 37.9648C48.5319 38.1862 48.1217 38.5117 47.7832 38.9414C47.4447 39.3646 47.1842 39.8854 47.002 40.5039C46.8197 41.1159 46.7285 41.8158 46.7285 42.6035C46.7285 44.2572 47.0638 45.5039 47.7344 46.3438C48.4049 47.1836 49.388 47.6035 50.6836 47.6035C51.2305 47.6035 51.7546 47.5417 52.2559 47.418C52.7572 47.2878 53.2389 47.1087 53.7012 46.8809V48.5215ZM64.8047 38.4238C64.3294 38.1699 63.8411 37.9746 63.3398 37.8379C62.8385 37.6947 62.2917 37.623 61.6992 37.623C61.0221 37.623 60.4199 37.7435 59.8926 37.9844C59.3652 38.2253 58.9193 38.5671 58.5547 39.0098C58.1966 39.446 57.9199 39.9733 57.7246 40.5918C57.5358 41.2103 57.4414 41.8939 57.4414 42.6426C57.4414 43.4238 57.5195 44.1237 57.6758 44.7422C57.832 45.3607 58.0762 45.8848 58.4082 46.3145C58.7402 46.7441 59.1634 47.0729 59.6777 47.3008C60.1986 47.5286 60.8203 47.6426 61.543 47.6426C61.6667 47.6426 61.8001 47.6361 61.9434 47.623C62.0866 47.61 62.2298 47.5938 62.373 47.5742C62.5163 47.5482 62.653 47.5189 62.7832 47.4863C62.9199 47.4538 63.0404 47.418 63.1445 47.3789V43.3164H60.5371V41.8809H64.8633V48.4043C64.5964 48.528 64.3132 48.6387 64.0137 48.7363C63.7207 48.834 63.418 48.9154 63.1055 48.9805C62.7995 49.0456 62.4935 49.0944 62.1875 49.127C61.8815 49.1595 61.5853 49.1758 61.2988 49.1758C60.4264 49.1758 59.6387 49.0391 58.9355 48.7656C58.2389 48.4922 57.6432 48.0885 57.1484 47.5547C56.6602 47.0143 56.2826 46.3438 56.0156 45.543C55.7552 44.7422 55.625 43.8145 55.625 42.7598C55.625 41.7116 55.7715 40.7741 56.0645 39.9473C56.3574 39.1139 56.7676 38.4108 57.2949 37.8379C57.8288 37.2585 58.4668 36.819 59.209 36.5195C59.9577 36.2135 60.7812 36.0605 61.6797 36.0605C62.2526 36.0605 62.7962 36.1126 63.3105 36.2168C63.8314 36.3145 64.3294 36.474 64.8047 36.6953V38.4238ZM76.1328 37.7207H72.3535V49H70.5957V37.7207H66.8164V36.2363H76.1328V37.7207ZM86.7969 38.4238C86.3216 38.1699 85.8333 37.9746 85.332 37.8379C84.8307 37.6947 84.2839 37.623 83.6914 37.623C83.0143 37.623 82.4121 37.7435 81.8848 37.9844C81.3574 38.2253 80.9115 38.5671 80.5469 39.0098C80.1888 39.446 79.9121 39.9733 79.7168 40.5918C79.528 41.2103 79.4336 41.8939 79.4336 42.6426C79.4336 43.4238 79.5117 44.1237 79.668 44.7422C79.8242 45.3607 80.0684 45.8848 80.4004 46.3145C80.7324 46.7441 81.1556 47.0729 81.6699 47.3008C82.1908 47.5286 82.8125 47.6426 83.5352 47.6426C83.6589 47.6426 83.7923 47.6361 83.9355 47.623C84.0788 47.61 84.222 47.5938 84.3652 47.5742C84.5085 47.5482 84.6452 47.5189 84.7754 47.4863C84.9121 47.4538 85.0326 47.418 85.1367 47.3789V43.3164H82.5293V41.8809H86.8555V48.4043C86.5885 48.528 86.3053 48.6387 86.0059 48.7363C85.7129 48.834 85.4102 48.9154 85.0977 48.9805C84.7917 49.0456 84.4857 49.0944 84.1797 49.127C83.8737 49.1595 83.5775 49.1758 83.291 49.1758C82.4186 49.1758 81.6309 49.0391 80.9277 48.7656C80.2311 48.4922 79.6354 48.0885 79.1406 47.5547C78.6523 47.0143 78.2747 46.3438 78.0078 45.543C77.7474 44.7422 77.6172 43.8145 77.6172 42.7598C77.6172 41.7116 77.7637 40.7741 78.0566 39.9473C78.3496 39.1139 78.7598 38.4108 79.2871 37.8379C79.821 37.2585 80.459 36.819 81.2012 36.5195C81.9499 36.2135 82.7734 36.0605 83.6719 36.0605C84.2448 36.0605 84.7884 36.1126 85.3027 36.2168C85.8236 36.3145 86.3216 36.474 86.7969 36.6953V38.4238ZM97.6855 48.5215C96.6634 48.9447 95.5924 49.1562 94.4727 49.1562C92.6693 49.1562 91.2826 48.6191 90.3125 47.5449C89.349 46.4642 88.8672 44.8691 88.8672 42.7598C88.8672 41.7376 89.0007 40.8132 89.2676 39.9863C89.5345 39.1595 89.9154 38.4596 90.4102 37.8867C90.9049 37.3073 91.5039 36.8613 92.207 36.5488C92.9102 36.2363 93.6979 36.0801 94.5703 36.0801C95.1628 36.0801 95.7129 36.1322 96.2207 36.2363C96.7285 36.334 97.2168 36.487 97.6855 36.6953V38.4043C97.2233 38.1504 96.7448 37.9583 96.25 37.8281C95.7552 37.6914 95.2148 37.623 94.6289 37.623C94.0299 37.623 93.4863 37.737 92.998 37.9648C92.5163 38.1862 92.1061 38.5117 91.7676 38.9414C91.429 39.3646 91.1686 39.8854 90.9863 40.5039C90.804 41.1159 90.7129 41.8158 90.7129 42.6035C90.7129 44.2572 91.0482 45.5039 91.7188 46.3438C92.3893 47.1836 93.3724 47.6035 94.668 47.6035C95.2148 47.6035 95.7389 47.5417 96.2402 47.418C96.7415 47.2878 97.2233 47.1087 97.6855 46.8809V48.5215Z" fill="#989B05"/>
<path d="M39.3536 50.6464C39.1583 50.4512 38.8417 50.4512 38.6464 50.6464L35.4645 53.8284C35.2692 54.0237 35.2692 54.3403 35.4645 54.5355C35.6597 54.7308 35.9763 54.7308 36.1716 54.5355L39 51.7071L41.8284 54.5355C42.0237 54.7308 42.3403 54.7308 42.5355 54.5355C42.7308 54.3403 42.7308 54.0237 42.5355 53.8284L39.3536 50.6464ZM39.5 61V51H38.5V61H39.5Z" fill="#F40F0F"/>
<path d="M72.6464 10.3536C72.8417 10.5488 73.1583 10.5488 73.3536 10.3536L76.5355 7.17157C76.7308 6.97631 76.7308 6.65973 76.5355 6.46447C76.3403 6.2692 76.0237 6.2692 75.8284 6.46447L73 9.29289L70.1716 6.46447C69.9763 6.2692 69.6597 6.2692 69.4645 6.46447C69.2692 6.65973 69.2692 6.97631 69.4645 7.17157L72.6464 10.3536ZM72.5 0V10H73.5V0L72.5 0Z" fill="#F40F0F"/>
<path d="M291.156 14.7207H287.377V26H285.619V14.7207H281.84V13.2363H291.156V14.7207ZM297.494 16.0195C297.696 16.0195 297.888 16.0618 298.07 16.1465C298.253 16.2246 298.412 16.332 298.549 16.4688C298.686 16.6055 298.793 16.765 298.871 16.9473C298.956 17.1296 298.998 17.3216 298.998 17.5234C298.998 17.7318 298.956 17.9271 298.871 18.1094C298.793 18.2852 298.686 18.4414 298.549 18.5781C298.412 18.7148 298.253 18.8223 298.07 18.9004C297.888 18.9785 297.696 19.0176 297.494 19.0176C297.286 19.0176 297.09 18.9785 296.908 18.9004C296.732 18.8223 296.576 18.7148 296.439 18.5781C296.303 18.4414 296.195 18.2852 296.117 18.1094C296.039 17.9271 296 17.7318 296 17.5234C296 17.3216 296.039 17.1296 296.117 16.9473C296.195 16.765 296.303 16.6055 296.439 16.4688C296.576 16.332 296.732 16.2246 296.908 16.1465C297.09 16.0618 297.286 16.0195 297.494 16.0195ZM297.494 23.1777C297.696 23.1777 297.888 23.2201 298.07 23.3047C298.253 23.3828 298.412 23.4902 298.549 23.627C298.686 23.7637 298.793 23.9232 298.871 24.1055C298.956 24.2878 298.998 24.4798 298.998 24.6816C298.998 24.89 298.956 25.0853 298.871 25.2676C298.793 25.4434 298.686 25.5996 298.549 25.7363C298.412 25.873 298.253 25.9805 298.07 26.0586C297.888 26.1367 297.696 26.1758 297.494 26.1758C297.286 26.1758 297.09 26.1367 296.908 26.0586C296.732 25.9805 296.576 25.873 296.439 25.7363C296.303 25.5996 296.195 25.4434 296.117 25.2676C296.039 25.0853 296 24.89 296 24.6816C296 24.4798 296.039 24.2878 296.117 24.1055C296.195 23.9232 296.303 23.7637 296.439 23.627C296.576 23.4902 296.732 23.3828 296.908 23.3047C297.09 23.2201 297.286 23.1777 297.494 23.1777ZM323.705 25.5215C322.683 25.9447 321.612 26.1562 320.492 26.1562C318.689 26.1562 317.302 25.6191 316.332 24.5449C315.368 23.4642 314.887 21.8691 314.887 19.7598C314.887 18.7376 315.02 17.8132 315.287 16.9863C315.554 16.1595 315.935 15.4596 316.43 14.8867C316.924 14.3073 317.523 13.8613 318.227 13.5488C318.93 13.2363 319.717 13.0801 320.59 13.0801C321.182 13.0801 321.732 13.1322 322.24 13.2363C322.748 13.334 323.236 13.487 323.705 13.6953V15.4043C323.243 15.1504 322.764 14.9583 322.27 14.8281C321.775 14.6914 321.234 14.623 320.648 14.623C320.049 14.623 319.506 14.737 319.018 14.9648C318.536 15.1862 318.126 15.5117 317.787 15.9414C317.449 16.3646 317.188 16.8854 317.006 17.5039C316.824 18.1159 316.732 18.8158 316.732 19.6035C316.732 21.2572 317.068 22.5039 317.738 23.3438C318.409 24.1836 319.392 24.6035 320.688 24.6035C321.234 24.6035 321.758 24.5417 322.26 24.418C322.761 24.2878 323.243 24.1087 323.705 23.8809V25.5215ZM334.809 15.4238C334.333 15.1699 333.845 14.9746 333.344 14.8379C332.842 14.6947 332.296 14.623 331.703 14.623C331.026 14.623 330.424 14.7435 329.896 14.9844C329.369 15.2253 328.923 15.5671 328.559 16.0098C328.201 16.446 327.924 16.9733 327.729 17.5918C327.54 18.2103 327.445 18.8939 327.445 19.6426C327.445 20.4238 327.523 21.1237 327.68 21.7422C327.836 22.3607 328.08 22.8848 328.412 23.3145C328.744 23.7441 329.167 24.0729 329.682 24.3008C330.202 24.5286 330.824 24.6426 331.547 24.6426C331.671 24.6426 331.804 24.6361 331.947 24.623C332.09 24.61 332.234 24.5938 332.377 24.5742C332.52 24.5482 332.657 24.5189 332.787 24.4863C332.924 24.4538 333.044 24.418 333.148 24.3789V20.3164H330.541V18.8809H334.867V25.4043C334.6 25.528 334.317 25.6387 334.018 25.7363C333.725 25.834 333.422 25.9154 333.109 25.9805C332.803 26.0456 332.497 26.0944 332.191 26.127C331.885 26.1595 331.589 26.1758 331.303 26.1758C330.43 26.1758 329.643 26.0391 328.939 25.7656C328.243 25.4922 327.647 25.0885 327.152 24.5547C326.664 24.0143 326.286 23.3438 326.02 22.543C325.759 21.7422 325.629 20.8145 325.629 19.7598C325.629 18.7116 325.775 17.7741 326.068 16.9473C326.361 16.1139 326.771 15.4108 327.299 14.8379C327.833 14.2585 328.471 13.819 329.213 13.5195C329.962 13.2135 330.785 13.0605 331.684 13.0605C332.257 13.0605 332.8 13.1126 333.314 13.2168C333.835 13.3145 334.333 13.474 334.809 13.6953V15.4238ZM346.137 14.7207H342.357V26H340.6V14.7207H336.82V13.2363H346.137V14.7207ZM423.109 14.7207H419.33V26H417.572V14.7207H413.793V13.2363H423.109V14.7207ZM434.105 14.7207H430.326V26H428.568V14.7207H424.789V13.2363H434.105V14.7207ZM290.922 40.1426C290.922 40.6634 290.824 41.181 290.629 41.6953C290.434 42.2031 290.131 42.6589 289.721 43.0625C289.311 43.4661 288.786 43.7949 288.148 44.0488C287.51 44.2962 286.749 44.4199 285.863 44.4199H284.281V49H282.543V36.2363H286.137C286.768 36.2363 287.374 36.3079 287.953 36.4512C288.533 36.5879 289.04 36.8125 289.477 37.125C289.919 37.4375 290.271 37.8411 290.531 38.3359C290.792 38.8307 290.922 39.4329 290.922 40.1426ZM289.115 40.2207C289.115 39.4004 288.845 38.7721 288.305 38.3359C287.771 37.8997 287.022 37.6816 286.059 37.6816H284.281V42.9355H285.902C286.931 42.9355 287.722 42.7109 288.275 42.2617C288.835 41.8125 289.115 41.1322 289.115 40.2207ZM297.494 39.0195C297.696 39.0195 297.888 39.0618 298.07 39.1465C298.253 39.2246 298.412 39.332 298.549 39.4688C298.686 39.6055 298.793 39.765 298.871 39.9473C298.956 40.1296 298.998 40.3216 298.998 40.5234C298.998 40.7318 298.956 40.9271 298.871 41.1094C298.793 41.2852 298.686 41.4414 298.549 41.5781C298.412 41.7148 298.253 41.8223 298.07 41.9004C297.888 41.9785 297.696 42.0176 297.494 42.0176C297.286 42.0176 297.09 41.9785 296.908 41.9004C296.732 41.8223 296.576 41.7148 296.439 41.5781C296.303 41.4414 296.195 41.2852 296.117 41.1094C296.039 40.9271 296 40.7318 296 40.5234C296 40.3216 296.039 40.1296 296.117 39.9473C296.195 39.765 296.303 39.6055 296.439 39.4688C296.576 39.332 296.732 39.2246 296.908 39.1465C297.09 39.0618 297.286 39.0195 297.494 39.0195ZM297.494 46.1777C297.696 46.1777 297.888 46.2201 298.07 46.3047C298.253 46.3828 298.412 46.4902 298.549 46.627C298.686 46.7637 298.793 46.9232 298.871 47.1055C298.956 47.2878 298.998 47.4798 298.998 47.6816C298.998 47.89 298.956 48.0853 298.871 48.2676C298.793 48.4434 298.686 48.5996 298.549 48.7363C298.412 48.873 298.253 48.9805 298.07 49.0586C297.888 49.1367 297.696 49.1758 297.494 49.1758C297.286 49.1758 297.09 49.1367 296.908 49.0586C296.732 48.9805 296.576 48.873 296.439 48.7363C296.303 48.5996 296.195 48.4434 296.117 48.2676C296.039 48.0853 296 47.89 296 47.6816C296 47.4798 296.039 47.2878 296.117 47.1055C296.195 46.9232 296.303 46.7637 296.439 46.627C296.576 46.4902 296.732 46.3828 296.908 46.3047C297.09 46.2201 297.286 46.1777 297.494 46.1777Z" fill="#C9D1D9"/>
<path d="M356.801 15.4238C356.326 15.1699 355.837 14.9746 355.336 14.8379C354.835 14.6947 354.288 14.623 353.695 14.623C353.018 14.623 352.416 14.7435 351.889 14.9844C351.361 15.2253 350.915 15.5671 350.551 16.0098C350.193 16.446 349.916 16.9733 349.721 17.5918C349.532 18.2103 349.438 18.8939 349.438 19.6426C349.438 20.4238 349.516 21.1237 349.672 21.7422C349.828 22.3607 350.072 22.8848 350.404 23.3145C350.736 23.7441 351.16 24.0729 351.674 24.3008C352.195 24.5286 352.816 24.6426 353.539 24.6426C353.663 24.6426 353.796 24.6361 353.939 24.623C354.083 24.61 354.226 24.5938 354.369 24.5742C354.512 24.5482 354.649 24.5189 354.779 24.4863C354.916 24.4538 355.036 24.418 355.141 24.3789V20.3164H352.533V18.8809H356.859V25.4043C356.592 25.528 356.309 25.6387 356.01 25.7363C355.717 25.834 355.414 25.9154 355.102 25.9805C354.796 26.0456 354.49 26.0944 354.184 26.127C353.878 26.1595 353.581 26.1758 353.295 26.1758C352.423 26.1758 351.635 26.0391 350.932 25.7656C350.235 25.4922 349.639 25.0885 349.145 24.5547C348.656 24.0143 348.279 23.3438 348.012 22.543C347.751 21.7422 347.621 20.8145 347.621 19.7598C347.621 18.7116 347.768 17.7741 348.061 16.9473C348.354 16.1139 348.764 15.4108 349.291 14.8379C349.825 14.2585 350.463 13.819 351.205 13.5195C351.954 13.2135 352.777 13.0605 353.676 13.0605C354.249 13.0605 354.792 13.1126 355.307 13.2168C355.827 13.3145 356.326 13.474 356.801 13.6953V15.4238ZM367.689 25.5215C366.667 25.9447 365.596 26.1562 364.477 26.1562C362.673 26.1562 361.286 25.6191 360.316 24.5449C359.353 23.4642 358.871 21.8691 358.871 19.7598C358.871 18.7376 359.005 17.8132 359.271 16.9863C359.538 16.1595 359.919 15.4596 360.414 14.8867C360.909 14.3073 361.508 13.8613 362.211 13.5488C362.914 13.2363 363.702 13.0801 364.574 13.0801C365.167 13.0801 365.717 13.1322 366.225 13.2363C366.732 13.334 367.221 13.487 367.689 13.6953V15.4043C367.227 15.1504 366.749 14.9583 366.254 14.8281C365.759 14.6914 365.219 14.623 364.633 14.623C364.034 14.623 363.49 14.737 363.002 14.9648C362.52 15.1862 362.11 15.5117 361.771 15.9414C361.433 16.3646 361.173 16.8854 360.99 17.5039C360.808 18.1159 360.717 18.8158 360.717 19.6035C360.717 21.2572 361.052 22.5039 361.723 23.3438C362.393 24.1836 363.376 24.6035 364.672 24.6035C365.219 24.6035 365.743 24.5417 366.244 24.418C366.745 24.2878 367.227 24.1087 367.689 23.8809V25.5215ZM378.793 15.4238C378.318 15.1699 377.829 14.9746 377.328 14.8379C376.827 14.6947 376.28 14.623 375.688 14.623C375.01 14.623 374.408 14.7435 373.881 14.9844C373.354 15.2253 372.908 15.5671 372.543 16.0098C372.185 16.446 371.908 16.9733 371.713 17.5918C371.524 18.2103 371.43 18.8939 371.43 19.6426C371.43 20.4238 371.508 21.1237 371.664 21.7422C371.82 22.3607 372.064 22.8848 372.396 23.3145C372.729 23.7441 373.152 24.0729 373.666 24.3008C374.187 24.5286 374.809 24.6426 375.531 24.6426C375.655 24.6426 375.788 24.6361 375.932 24.623C376.075 24.61 376.218 24.5938 376.361 24.5742C376.505 24.5482 376.641 24.5189 376.771 24.4863C376.908 24.4538 377.029 24.418 377.133 24.3789V20.3164H374.525V18.8809H378.852V25.4043C378.585 25.528 378.301 25.6387 378.002 25.7363C377.709 25.834 377.406 25.9154 377.094 25.9805C376.788 26.0456 376.482 26.0944 376.176 26.127C375.87 26.1595 375.574 26.1758 375.287 26.1758C374.415 26.1758 373.627 26.0391 372.924 25.7656C372.227 25.4922 371.632 25.0885 371.137 24.5547C370.648 24.0143 370.271 23.3438 370.004 22.543C369.743 21.7422 369.613 20.8145 369.613 19.7598C369.613 18.7116 369.76 17.7741 370.053 16.9473C370.346 16.1139 370.756 15.4108 371.283 14.8379C371.817 14.2585 372.455 13.819 373.197 13.5195C373.946 13.2135 374.77 13.0605 375.668 13.0605C376.241 13.0605 376.785 13.1126 377.299 13.2168C377.82 13.3145 378.318 13.474 378.793 13.6953V15.4238ZM390.121 14.7207H386.342V26H384.584V14.7207H380.805V13.2363H390.121V14.7207ZM400.785 15.4238C400.31 15.1699 399.822 14.9746 399.32 14.8379C398.819 14.6947 398.272 14.623 397.68 14.623C397.003 14.623 396.4 14.7435 395.873 14.9844C395.346 15.2253 394.9 15.5671 394.535 16.0098C394.177 16.446 393.9 16.9733 393.705 17.5918C393.516 18.2103 393.422 18.8939 393.422 19.6426C393.422 20.4238 393.5 21.1237 393.656 21.7422C393.812 22.3607 394.057 22.8848 394.389 23.3145C394.721 23.7441 395.144 24.0729 395.658 24.3008C396.179 24.5286 396.801 24.6426 397.523 24.6426C397.647 24.6426 397.781 24.6361 397.924 24.623C398.067 24.61 398.21 24.5938 398.354 24.5742C398.497 24.5482 398.633 24.5189 398.764 24.4863C398.9 24.4538 399.021 24.418 399.125 24.3789V20.3164H396.518V18.8809H400.844V25.4043C400.577 25.528 400.294 25.6387 399.994 25.7363C399.701 25.834 399.398 25.9154 399.086 25.9805C398.78 26.0456 398.474 26.0944 398.168 26.127C397.862 26.1595 397.566 26.1758 397.279 26.1758C396.407 26.1758 395.619 26.0391 394.916 25.7656C394.219 25.4922 393.624 25.0885 393.129 24.5547C392.641 24.0143 392.263 23.3438 391.996 22.543C391.736 21.7422 391.605 20.8145 391.605 19.7598C391.605 18.7116 391.752 17.7741 392.045 16.9473C392.338 16.1139 392.748 15.4108 393.275 14.8379C393.809 14.2585 394.447 13.819 395.189 13.5195C395.938 13.2135 396.762 13.0605 397.66 13.0605C398.233 13.0605 398.777 13.1126 399.291 13.2168C399.812 13.3145 400.31 13.474 400.785 13.6953V15.4238ZM411.674 25.5215C410.652 25.9447 409.581 26.1562 408.461 26.1562C406.658 26.1562 405.271 25.6191 404.301 24.5449C403.337 23.4642 402.855 21.8691 402.855 19.7598C402.855 18.7376 402.989 17.8132 403.256 16.9863C403.523 16.1595 403.904 15.4596 404.398 14.8867C404.893 14.3073 405.492 13.8613 406.195 13.5488C406.898 13.2363 407.686 13.0801 408.559 13.0801C409.151 13.0801 409.701 13.1322 410.209 13.2363C410.717 13.334 411.205 13.487 411.674 13.6953V15.4043C411.212 15.1504 410.733 14.9583 410.238 14.8281C409.743 14.6914 409.203 14.623 408.617 14.623C408.018 14.623 407.475 14.737 406.986 14.9648C406.505 15.1862 406.094 15.5117 405.756 15.9414C405.417 16.3646 405.157 16.8854 404.975 17.5039C404.792 18.1159 404.701 18.8158 404.701 19.6035C404.701 21.2572 405.036 22.5039 405.707 23.3438C406.378 24.1836 407.361 24.6035 408.656 24.6035C409.203 24.6035 409.727 24.5417 410.229 24.418C410.73 24.2878 411.212 24.1087 411.674 23.8809V25.5215ZM323.812 38.4238C323.337 38.1699 322.849 37.9746 322.348 37.8379C321.846 37.6947 321.299 37.623 320.707 37.623C320.03 37.623 319.428 37.7435 318.9 37.9844C318.373 38.2253 317.927 38.5671 317.562 39.0098C317.204 39.446 316.928 39.9733 316.732 40.5918C316.544 41.2103 316.449 41.8939 316.449 42.6426C316.449 43.4238 316.527 44.1237 316.684 44.7422C316.84 45.3607 317.084 45.8848 317.416 46.3145C317.748 46.7441 318.171 47.0729 318.686 47.3008C319.206 47.5286 319.828 47.6426 320.551 47.6426C320.674 47.6426 320.808 47.6361 320.951 47.623C321.094 47.61 321.238 47.5938 321.381 47.5742C321.524 47.5482 321.661 47.5189 321.791 47.4863C321.928 47.4538 322.048 47.418 322.152 47.3789V43.3164H319.545V41.8809H323.871V48.4043C323.604 48.528 323.321 48.6387 323.021 48.7363C322.729 48.834 322.426 48.9154 322.113 48.9805C321.807 49.0456 321.501 49.0944 321.195 49.127C320.889 49.1595 320.593 49.1758 320.307 49.1758C319.434 49.1758 318.646 49.0391 317.943 48.7656C317.247 48.4922 316.651 48.0885 316.156 47.5547C315.668 47.0143 315.29 46.3438 315.023 45.543C314.763 44.7422 314.633 43.8145 314.633 42.7598C314.633 41.7116 314.779 40.7741 315.072 39.9473C315.365 39.1139 315.775 38.4108 316.303 37.8379C316.837 37.2585 317.475 36.819 318.217 36.5195C318.965 36.2135 319.789 36.0605 320.688 36.0605C321.26 36.0605 321.804 36.1126 322.318 36.2168C322.839 36.3145 323.337 36.474 323.812 36.6953V38.4238ZM334.701 48.5215C333.679 48.9447 332.608 49.1562 331.488 49.1562C329.685 49.1562 328.298 48.6191 327.328 47.5449C326.365 46.4642 325.883 44.8691 325.883 42.7598C325.883 41.7376 326.016 40.8132 326.283 39.9863C326.55 39.1595 326.931 38.4596 327.426 37.8867C327.921 37.3073 328.52 36.8613 329.223 36.5488C329.926 36.2363 330.714 36.0801 331.586 36.0801C332.178 36.0801 332.729 36.1322 333.236 36.2363C333.744 36.334 334.232 36.487 334.701 36.6953V38.4043C334.239 38.1504 333.76 37.9583 333.266 37.8281C332.771 37.6914 332.23 37.623 331.645 37.623C331.046 37.623 330.502 37.737 330.014 37.9648C329.532 38.1862 329.122 38.5117 328.783 38.9414C328.445 39.3646 328.184 39.8854 328.002 40.5039C327.82 41.1159 327.729 41.8158 327.729 42.6035C327.729 44.2572 328.064 45.5039 328.734 46.3438C329.405 47.1836 330.388 47.6035 331.684 47.6035C332.23 47.6035 332.755 47.5417 333.256 47.418C333.757 47.2878 334.239 47.1087 334.701 46.8809V48.5215ZM345.805 38.4238C345.329 38.1699 344.841 37.9746 344.34 37.8379C343.839 37.6947 343.292 37.623 342.699 37.623C342.022 37.623 341.42 37.7435 340.893 37.9844C340.365 38.2253 339.919 38.5671 339.555 39.0098C339.197 39.446 338.92 39.9733 338.725 40.5918C338.536 41.2103 338.441 41.8939 338.441 42.6426C338.441 43.4238 338.52 44.1237 338.676 44.7422C338.832 45.3607 339.076 45.8848 339.408 46.3145C339.74 46.7441 340.163 47.0729 340.678 47.3008C341.199 47.5286 341.82 47.6426 342.543 47.6426C342.667 47.6426 342.8 47.6361 342.943 47.623C343.087 47.61 343.23 47.5938 343.373 47.5742C343.516 47.5482 343.653 47.5189 343.783 47.4863C343.92 47.4538 344.04 47.418 344.145 47.3789V43.3164H341.537V41.8809H345.863V48.4043C345.596 48.528 345.313 48.6387 345.014 48.7363C344.721 48.834 344.418 48.9154 344.105 48.9805C343.799 49.0456 343.493 49.0944 343.188 49.127C342.882 49.1595 342.585 49.1758 342.299 49.1758C341.426 49.1758 340.639 49.0391 339.936 48.7656C339.239 48.4922 338.643 48.0885 338.148 47.5547C337.66 47.0143 337.283 46.3438 337.016 45.543C336.755 44.7422 336.625 43.8145 336.625 42.7598C336.625 41.7116 336.771 40.7741 337.064 39.9473C337.357 39.1139 337.768 38.4108 338.295 37.8379C338.829 37.2585 339.467 36.819 340.209 36.5195C340.958 36.2135 341.781 36.0605 342.68 36.0605C343.253 36.0605 343.796 36.1126 344.311 36.2168C344.831 36.3145 345.329 36.474 345.805 36.6953V38.4238ZM357.133 37.7207H353.354V49H351.596V37.7207H347.816V36.2363H357.133V37.7207ZM367.797 38.4238C367.322 38.1699 366.833 37.9746 366.332 37.8379C365.831 37.6947 365.284 37.623 364.691 37.623C364.014 37.623 363.412 37.7435 362.885 37.9844C362.357 38.2253 361.911 38.5671 361.547 39.0098C361.189 39.446 360.912 39.9733 360.717 40.5918C360.528 41.2103 360.434 41.8939 360.434 42.6426C360.434 43.4238 360.512 44.1237 360.668 44.7422C360.824 45.3607 361.068 45.8848 361.4 46.3145C361.732 46.7441 362.156 47.0729 362.67 47.3008C363.191 47.5286 363.812 47.6426 364.535 47.6426C364.659 47.6426 364.792 47.6361 364.936 47.623C365.079 47.61 365.222 47.5938 365.365 47.5742C365.508 47.5482 365.645 47.5189 365.775 47.4863C365.912 47.4538 366.033 47.418 366.137 47.3789V43.3164H363.529V41.8809H367.855V48.4043C367.589 48.528 367.305 48.6387 367.006 48.7363C366.713 48.834 366.41 48.9154 366.098 48.9805C365.792 49.0456 365.486 49.0944 365.18 49.127C364.874 49.1595 364.577 49.1758 364.291 49.1758C363.419 49.1758 362.631 49.0391 361.928 48.7656C361.231 48.4922 360.635 48.0885 360.141 47.5547C359.652 47.0143 359.275 46.3438 359.008 45.543C358.747 44.7422 358.617 43.8145 358.617 42.7598C358.617 41.7116 358.764 40.7741 359.057 39.9473C359.35 39.1139 359.76 38.4108 360.287 37.8379C360.821 37.2585 361.459 36.819 362.201 36.5195C362.95 36.2135 363.773 36.0605 364.672 36.0605C365.245 36.0605 365.788 36.1126 366.303 36.2168C366.824 36.3145 367.322 36.474 367.797 36.6953V38.4238ZM378.686 48.5215C377.663 48.9447 376.592 49.1562 375.473 49.1562C373.669 49.1562 372.283 48.6191 371.312 47.5449C370.349 46.4642 369.867 44.8691 369.867 42.7598C369.867 41.7376 370.001 40.8132 370.268 39.9863C370.535 39.1595 370.915 38.4596 371.41 37.8867C371.905 37.3073 372.504 36.8613 373.207 36.5488C373.91 36.2363 374.698 36.0801 375.57 36.0801C376.163 36.0801 376.713 36.1322 377.221 36.2363C377.729 36.334 378.217 36.487 378.686 36.6953V38.4043C378.223 38.1504 377.745 37.9583 377.25 37.8281C376.755 37.6914 376.215 37.623 375.629 37.623C375.03 37.623 374.486 37.737 373.998 37.9648C373.516 38.1862 373.106 38.5117 372.768 38.9414C372.429 39.3646 372.169 39.8854 371.986 40.5039C371.804 41.1159 371.713 41.8158 371.713 42.6035C371.713 44.2572 372.048 45.5039 372.719 46.3438C373.389 47.1836 374.372 47.6035 375.668 47.6035C376.215 47.6035 376.739 47.5417 377.24 47.418C377.742 47.2878 378.223 47.1087 378.686 46.8809V48.5215Z" fill="#989B05"/>
<g filter="url(#filter0_d)">
<path d="M233.707 29.7071C234.098 29.3166 234.098 28.6834 233.707 28.2929L227.343 21.9289C226.953 21.5384 226.319 21.5384 225.929 21.9289C225.538 22.3195 225.538 22.9526 225.929 23.3431L231.586 29L225.929 34.6569C225.538 35.0474 225.538 35.6805 225.929 36.0711C226.319 36.4616 226.953 36.4616 227.343 36.0711L233.707 29.7071ZM181 30H233V28H181V30Z" fill="#C9D1D9"/>
</g>
<defs>
<filter id="filter0_d" x="177" y="21.636" width="61" height="22.7279" filterUnits="userSpaceOnUse" color-interpolation-filters="sRGB">
<feFlood flood-opacity="0" result="BackgroundImageFix"/>
<feColorMatrix in="SourceAlpha" type="matrix" values="0 0 0 0 0 0 0 0 0 0 0 0 0 0 0 0 0 0 127 0"/>
<feOffset dy="4"/>
<feGaussianBlur stdDeviation="2"/>
<feColorMatrix type="matrix" values="0 0 0 0 0 0 0 0 0 0 0 0 0 0 0 0 0 0 0.25 0"/>
<feBlend mode="normal" in2="BackgroundImageFix" result="effect1_dropShadow"/>
<feBlend mode="normal" in="SourceGraphic" in2="effect1_dropShadow" result="shape"/>
</filter>
</defs>
</svg>
