<svg width="436" height="51" viewBox="0 0 436 51" fill="none" xmlns="http://www.w3.org/2000/svg">
<path d="M10.1562 4.7207H6.37695V16H4.61914V4.7207H0.839844V3.23633H10.1562V4.7207ZM16.4941 6.01953C16.696 6.01953 16.888 6.06185 17.0703 6.14648C17.2526 6.22461 17.4121 6.33203 17.5488 6.46875C17.6855 6.60547 17.793 6.76497 17.8711 6.94727C17.9557 7.12956 17.998 7.32161 17.998 7.52344C17.998 7.73177 17.9557 7.92708 17.8711 8.10938C17.793 8.28516 17.6855 8.44141 17.5488 8.57812C17.4121 8.71484 17.2526 8.82227 17.0703 8.90039C16.888 8.97852 16.696 9.01758 16.4941 9.01758C16.2858 9.01758 16.0905 8.97852 15.9082 8.90039C15.7324 8.82227 15.5762 8.71484 15.4395 8.57812C15.3027 8.44141 15.1953 8.28516 15.1172 8.10938C15.0391 7.92708 15 7.73177 15 7.52344C15 7.32161 15.0391 7.12956 15.1172 6.94727C15.1953 6.76497 15.3027 6.60547 15.4395 6.46875C15.5762 6.33203 15.7324 6.22461 15.9082 6.14648C16.0905 6.06185 16.2858 6.01953 16.4941 6.01953ZM16.4941 13.1777C16.696 13.1777 16.888 13.2201 17.0703 13.3047C17.2526 13.3828 17.4121 13.4902 17.5488 13.627C17.6855 13.7637 17.793 13.9232 17.8711 14.1055C17.9557 14.2878 17.998 14.4798 17.998 14.6816C17.998 14.89 17.9557 15.0853 17.8711 15.2676C17.793 15.4434 17.6855 15.5996 17.5488 15.7363C17.4121 15.873 17.2526 15.9805 17.0703 16.0586C16.888 16.1367 16.696 16.1758 16.4941 16.1758C16.2858 16.1758 16.0905 16.1367 15.9082 16.0586C15.7324 15.9805 15.5762 15.873 15.4395 15.7363C15.3027 15.5996 15.1953 15.4434 15.1172 15.2676C15.0391 15.0853 15 14.89 15 14.6816C15 14.4798 15.0391 14.2878 15.1172 14.1055C15.1953 13.9232 15.3027 13.7637 15.4395 13.627C15.5762 13.4902 15.7324 13.3828 15.9082 13.3047C16.0905 13.2201 16.2858 13.1777 16.4941 13.1777ZM42.7051 15.5215C41.6829 15.9447 40.612 16.1562 39.4922 16.1562C37.6888 16.1562 36.3021 15.6191 35.332 14.5449C34.3685 13.4642 33.8867 11.8691 33.8867 9.75977C33.8867 8.73763 34.0202 7.81315 34.2871 6.98633C34.554 6.15951 34.9349 5.45964 35.4297 4.88672C35.9245 4.30729 36.5234 3.86133 37.2266 3.54883C37.9297 3.23633 38.7174 3.08008 39.5898 3.08008C40.1823 3.08008 40.7324 3.13216 41.2402 3.23633C41.748 3.33398 42.2363 3.48698 42.7051 3.69531V5.4043C42.2428 5.15039 41.7643 4.95833 41.2695 4.82812C40.7747 4.69141 40.2344 4.62305 39.6484 4.62305C39.0495 4.62305 38.5059 4.73698 38.0176 4.96484C37.5358 5.1862 37.1257 5.51172 36.7871 5.94141C36.4486 6.36458 36.1882 6.88542 36.0059 7.50391C35.8236 8.11589 35.7324 8.81576 35.7324 9.60352C35.7324 11.2572 36.0677 12.5039 36.7383 13.3438C37.4089 14.1836 38.3919 14.6035 39.6875 14.6035C40.2344 14.6035 40.7585 14.5417 41.2598 14.418C41.7611 14.2878 42.2428 14.1087 42.7051 13.8809V15.5215ZM53.8086 5.42383C53.3333 5.16992 52.8451 4.97461 52.3438 4.83789C51.8424 4.69466 51.2956 4.62305 50.7031 4.62305C50.026 4.62305 49.4238 4.74349 48.8965 4.98438C48.3691 5.22526 47.9232 5.56706 47.5586 6.00977C47.2005 6.44596 46.9238 6.97331 46.7285 7.5918C46.5397 8.21029 46.4453 8.89388 46.4453 9.64258C46.4453 10.4238 46.5234 11.1237 46.6797 11.7422C46.8359 12.3607 47.0801 12.8848 47.4121 13.3145C47.7441 13.7441 48.1673 14.0729 48.6816 14.3008C49.2025 14.5286 49.8242 14.6426 50.5469 14.6426C50.6706 14.6426 50.804 14.6361 50.9473 14.623C51.0905 14.61 51.2337 14.5938 51.377 14.5742C51.5202 14.5482 51.6569 14.5189 51.7871 14.4863C51.9238 14.4538 52.0443 14.418 52.1484 14.3789V10.3164H49.541V8.88086H53.8672V15.4043C53.6003 15.528 53.3171 15.6387 53.0176 15.7363C52.7246 15.834 52.4219 15.9154 52.1094 15.9805C51.8034 16.0456 51.4974 16.0944 51.1914 16.127C50.8854 16.1595 50.5892 16.1758 50.3027 16.1758C49.4303 16.1758 48.6426 16.0391 47.9395 15.7656C47.2428 15.4922 46.6471 15.0885 46.1523 14.5547C45.6641 14.0143 45.2865 13.3438 45.0195 12.543C44.7591 11.7422 44.6289 10.8145 44.6289 9.75977C44.6289 8.71159 44.7754 7.77409 45.0684 6.94727C45.3613 6.11393 45.7715 5.41081 46.2988 4.83789C46.8327 4.25846 47.4707 3.81901 48.2129 3.51953C48.9616 3.21354 49.7852 3.06055 50.6836 3.06055C51.2565 3.06055 51.8001 3.11263 52.3145 3.2168C52.8353 3.31445 53.3333 3.47396 53.8086 3.69531V5.42383ZM65.1367 4.7207H61.3574V16H59.5996V4.7207H55.8203V3.23633H65.1367V4.7207ZM130.674 15.5215C129.652 15.9447 128.581 16.1562 127.461 16.1562C125.658 16.1562 124.271 15.6191 123.301 14.5449C122.337 13.4642 121.855 11.8691 121.855 9.75977C121.855 8.73763 121.989 7.81315 122.256 6.98633C122.523 6.15951 122.904 5.45964 123.398 4.88672C123.893 4.30729 124.492 3.86133 125.195 3.54883C125.898 3.23633 126.686 3.08008 127.559 3.08008C128.151 3.08008 128.701 3.13216 129.209 3.23633C129.717 3.33398 130.205 3.48698 130.674 3.69531V5.4043C130.212 5.15039 129.733 4.95833 129.238 4.82812C128.743 4.69141 128.203 4.62305 127.617 4.62305C127.018 4.62305 126.475 4.73698 125.986 4.96484C125.505 5.1862 125.094 5.51172 124.756 5.94141C124.417 6.36458 124.157 6.88542 123.975 7.50391C123.792 8.11589 123.701 8.81576 123.701 9.60352C123.701 11.2572 124.036 12.5039 124.707 13.3438C125.378 14.1836 126.361 14.6035 127.656 14.6035C128.203 14.6035 128.727 14.5417 129.229 14.418C129.73 14.2878 130.212 14.1087 130.674 13.8809V15.5215ZM142.109 4.7207H138.33V16H136.572V4.7207H132.793V3.23633H142.109V4.7207ZM153.105 4.7207H149.326V16H147.568V4.7207H143.789V3.23633H153.105V4.7207ZM9.92188 30.1426C9.92188 30.6634 9.82422 31.181 9.62891 31.6953C9.43359 32.2031 9.13086 32.6589 8.7207 33.0625C8.31055 33.4661 7.78646 33.7949 7.14844 34.0488C6.51042 34.2962 5.7487 34.4199 4.86328 34.4199H3.28125V39H1.54297V26.2363H5.13672C5.76823 26.2363 6.3737 26.3079 6.95312 26.4512C7.53255 26.5879 8.04036 26.8125 8.47656 27.125C8.91927 27.4375 9.27083 27.8411 9.53125 28.3359C9.79167 28.8307 9.92188 29.4329 9.92188 30.1426ZM8.11523 30.2207C8.11523 29.4004 7.84505 28.7721 7.30469 28.3359C6.77083 27.8997 6.02214 27.6816 5.05859 27.6816H3.28125V32.9355H4.90234C5.93099 32.9355 6.72201 32.7109 7.27539 32.2617C7.83529 31.8125 8.11523 31.1322 8.11523 30.2207ZM16.4941 29.0195C16.696 29.0195 16.888 29.0618 17.0703 29.1465C17.2526 29.2246 17.4121 29.332 17.5488 29.4688C17.6855 29.6055 17.793 29.765 17.8711 29.9473C17.9557 30.1296 17.998 30.3216 17.998 30.5234C17.998 30.7318 17.9557 30.9271 17.8711 31.1094C17.793 31.2852 17.6855 31.4414 17.5488 31.5781C17.4121 31.7148 17.2526 31.8223 17.0703 31.9004C16.888 31.9785 16.696 32.0176 16.4941 32.0176C16.2858 32.0176 16.0905 31.9785 15.9082 31.9004C15.7324 31.8223 15.5762 31.7148 15.4395 31.5781C15.3027 31.4414 15.1953 31.2852 15.1172 31.1094C15.0391 30.9271 15 30.7318 15 30.5234C15 30.3216 15.0391 30.1296 15.1172 29.9473C15.1953 29.765 15.3027 29.6055 15.4395 29.4688C15.5762 29.332 15.7324 29.2246 15.9082 29.1465C16.0905 29.0618 16.2858 29.0195 16.4941 29.0195ZM16.4941 36.1777C16.696 36.1777 16.888 36.2201 17.0703 36.3047C17.2526 36.3828 17.4121 36.4902 17.5488 36.627C17.6855 36.7637 17.793 36.9232 17.8711 37.1055C17.9557 37.2878 17.998 37.4798 17.998 37.6816C17.998 37.89 17.9557 38.0853 17.8711 38.2676C17.793 38.4434 17.6855 38.5996 17.5488 38.7363C17.4121 38.873 17.2526 38.9805 17.0703 39.0586C16.888 39.1367 16.696 39.1758 16.4941 39.1758C16.2858 39.1758 16.0905 39.1367 15.9082 39.0586C15.7324 38.9805 15.5762 38.873 15.4395 38.7363C15.3027 38.5996 15.1953 38.4434 15.1172 38.2676C15.0391 38.0853 15 37.89 15 37.6816C15 37.4798 15.0391 37.2878 15.1172 37.1055C15.1953 36.9232 15.3027 36.7637 15.4395 36.627C15.5762 36.4902 15.7324 36.3828 15.9082 36.3047C16.0905 36.2201 16.2858 36.1777 16.4941 36.1777ZM97.6855 38.5215C96.6634 38.9447 95.5924 39.1562 94.4727 39.1562C92.6693 39.1562 91.2826 38.6191 90.3125 37.5449C89.349 36.4642 88.8672 34.8691 88.8672 32.7598C88.8672 31.7376 89.0007 30.8132 89.2676 29.9863C89.5345 29.1595 89.9154 28.4596 90.4102 27.8867C90.9049 27.3073 91.5039 26.8613 92.207 26.5488C92.9102 26.2363 93.6979 26.0801 94.5703 26.0801C95.1628 26.0801 95.7129 26.1322 96.2207 26.2363C96.7285 26.334 97.2168 26.487 97.6855 26.6953V28.4043C97.2233 28.1504 96.7448 27.9583 96.25 27.8281C95.7552 27.6914 95.2148 27.623 94.6289 27.623C94.0299 27.623 93.4863 27.737 92.998 27.9648C92.5163 28.1862 92.1061 28.5117 91.7676 28.9414C91.429 29.3646 91.1686 29.8854 90.9863 30.5039C90.804 31.1159 90.7129 31.8158 90.7129 32.6035C90.7129 34.2572 91.0482 35.5039 91.7188 36.3438C92.3893 37.1836 93.3724 37.6035 94.668 37.6035C95.2148 37.6035 95.7389 37.5417 96.2402 37.418C96.7415 37.2878 97.2233 37.1087 97.6855 36.8809V38.5215Z" fill="#C9D1D9"/>
<path d="M75.8008 5.42383C75.3255 5.16992 74.8372 4.97461 74.3359 4.83789C73.8346 4.69466 73.2878 4.62305 72.6953 4.62305C72.0182 4.62305 71.416 4.74349 70.8887 4.98438C70.3613 5.22526 69.9154 5.56706 69.5508 6.00977C69.1927 6.44596 68.916 6.97331 68.7207 7.5918C68.5319 8.21029 68.4375 8.89388 68.4375 9.64258C68.4375 10.4238 68.5156 11.1237 68.6719 11.7422C68.8281 12.3607 69.0723 12.8848 69.4043 13.3145C69.7363 13.7441 70.1595 14.0729 70.6738 14.3008C71.1947 14.5286 71.8164 14.6426 72.5391 14.6426C72.6628 14.6426 72.7962 14.6361 72.9395 14.623C73.0827 14.61 73.2259 14.5938 73.3691 14.5742C73.5124 14.5482 73.6491 14.5189 73.7793 14.4863C73.916 14.4538 74.0365 14.418 74.1406 14.3789V10.3164H71.5332V8.88086H75.8594V15.4043C75.5924 15.528 75.3092 15.6387 75.0098 15.7363C74.7168 15.834 74.4141 15.9154 74.1016 15.9805C73.7956 16.0456 73.4896 16.0944 73.1836 16.127C72.8776 16.1595 72.5814 16.1758 72.2949 16.1758C71.4225 16.1758 70.6348 16.0391 69.9316 15.7656C69.235 15.4922 68.6393 15.0885 68.1445 14.5547C67.6562 14.0143 67.2786 13.3438 67.0117 12.543C66.7513 11.7422 66.6211 10.8145 66.6211 9.75977C66.6211 8.71159 66.7676 7.77409 67.0605 6.94727C67.3535 6.11393 67.7637 5.41081 68.291 4.83789C68.8249 4.25846 69.4629 3.81901 70.2051 3.51953C70.9538 3.21354 71.7773 3.06055 72.6758 3.06055C73.2487 3.06055 73.7923 3.11263 74.3066 3.2168C74.8275 3.31445 75.3255 3.47396 75.8008 3.69531V5.42383ZM86.6895 15.5215C85.6673 15.9447 84.5964 16.1562 83.4766 16.1562C81.6732 16.1562 80.2865 15.6191 79.3164 14.5449C78.3529 13.4642 77.8711 11.8691 77.8711 9.75977C77.8711 8.73763 78.0046 7.81315 78.2715 6.98633C78.5384 6.15951 78.9193 5.45964 79.4141 4.88672C79.9089 4.30729 80.5078 3.86133 81.2109 3.54883C81.9141 3.23633 82.7018 3.08008 83.5742 3.08008C84.1667 3.08008 84.7168 3.13216 85.2246 3.23633C85.7324 3.33398 86.2207 3.48698 86.6895 3.69531V5.4043C86.2272 5.15039 85.7487 4.95833 85.2539 4.82812C84.7591 4.69141 84.2188 4.62305 83.6328 4.62305C83.0339 4.62305 82.4902 4.73698 82.002 4.96484C81.5202 5.1862 81.11 5.51172 80.7715 5.94141C80.4329 6.36458 80.1725 6.88542 79.9902 7.50391C79.8079 8.11589 79.7168 8.81576 79.7168 9.60352C79.7168 11.2572 80.0521 12.5039 80.7227 13.3438C81.3932 14.1836 82.3763 14.6035 83.6719 14.6035C84.2188 14.6035 84.7428 14.5417 85.2441 14.418C85.7454 14.2878 86.2272 14.1087 86.6895 13.8809V15.5215ZM97.793 5.42383C97.3177 5.16992 96.8294 4.97461 96.3281 4.83789C95.8268 4.69466 95.2799 4.62305 94.6875 4.62305C94.0104 4.62305 93.4082 4.74349 92.8809 4.98438C92.3535 5.22526 91.9076 5.56706 91.543 6.00977C91.1849 6.44596 90.9082 6.97331 90.7129 7.5918C90.5241 8.21029 90.4297 8.89388 90.4297 9.64258C90.4297 10.4238 90.5078 11.1237 90.6641 11.7422C90.8203 12.3607 91.0645 12.8848 91.3965 13.3145C91.7285 13.7441 92.1517 14.0729 92.666 14.3008C93.1868 14.5286 93.8086 14.6426 94.5312 14.6426C94.6549 14.6426 94.7884 14.6361 94.9316 14.623C95.0749 14.61 95.2181 14.5938 95.3613 14.5742C95.5046 14.5482 95.6413 14.5189 95.7715 14.4863C95.9082 14.4538 96.0286 14.418 96.1328 14.3789V10.3164H93.5254V8.88086H97.8516V15.4043C97.5846 15.528 97.3014 15.6387 97.002 15.7363C96.709 15.834 96.4062 15.9154 96.0938 15.9805C95.7878 16.0456 95.4818 16.0944 95.1758 16.127C94.8698 16.1595 94.5736 16.1758 94.2871 16.1758C93.4147 16.1758 92.627 16.0391 91.9238 15.7656C91.2272 15.4922 90.6315 15.0885 90.1367 14.5547C89.6484 14.0143 89.2708 13.3438 89.0039 12.543C88.7435 11.7422 88.6133 10.8145 88.6133 9.75977C88.6133 8.71159 88.7598 7.77409 89.0527 6.94727C89.3457 6.11393 89.7559 5.41081 90.2832 4.83789C90.8171 4.25846 91.4551 3.81901 92.1973 3.51953C92.946 3.21354 93.7695 3.06055 94.668 3.06055C95.2409 3.06055 95.7845 3.11263 96.2988 3.2168C96.8197 3.31445 97.3177 3.47396 97.793 3.69531V5.42383ZM109.121 4.7207H105.342V16H103.584V4.7207H99.8047V3.23633H109.121V4.7207ZM119.785 5.42383C119.31 5.16992 118.822 4.97461 118.32 4.83789C117.819 4.69466 117.272 4.62305 116.68 4.62305C116.003 4.62305 115.4 4.74349 114.873 4.98438C114.346 5.22526 113.9 5.56706 113.535 6.00977C113.177 6.44596 112.9 6.97331 112.705 7.5918C112.516 8.21029 112.422 8.89388 112.422 9.64258C112.422 10.4238 112.5 11.1237 112.656 11.7422C112.812 12.3607 113.057 12.8848 113.389 13.3145C113.721 13.7441 114.144 14.0729 114.658 14.3008C115.179 14.5286 115.801 14.6426 116.523 14.6426C116.647 14.6426 116.781 14.6361 116.924 14.623C117.067 14.61 117.21 14.5938 117.354 14.5742C117.497 14.5482 117.633 14.5189 117.764 14.4863C117.9 14.4538 118.021 14.418 118.125 14.3789V10.3164H115.518V8.88086H119.844V15.4043C119.577 15.528 119.294 15.6387 118.994 15.7363C118.701 15.834 118.398 15.9154 118.086 15.9805C117.78 16.0456 117.474 16.0944 117.168 16.127C116.862 16.1595 116.566 16.1758 116.279 16.1758C115.407 16.1758 114.619 16.0391 113.916 15.7656C113.219 15.4922 112.624 15.0885 112.129 14.5547C111.641 14.0143 111.263 13.3438 110.996 12.543C110.736 11.7422 110.605 10.8145 110.605 9.75977C110.605 8.71159 110.752 7.77409 111.045 6.94727C111.338 6.11393 111.748 5.41081 112.275 4.83789C112.809 4.25846 113.447 3.81901 114.189 3.51953C114.938 3.21354 115.762 3.06055 116.66 3.06055C117.233 3.06055 117.777 3.11263 118.291 3.2168C118.812 3.31445 119.31 3.47396 119.785 3.69531V5.42383ZM42.8125 28.4238C42.3372 28.1699 41.849 27.9746 41.3477 27.8379C40.8464 27.6947 40.2995 27.623 39.707 27.623C39.0299 27.623 38.4277 27.7435 37.9004 27.9844C37.373 28.2253 36.9271 28.5671 36.5625 29.0098C36.2044 29.446 35.9277 29.9733 35.7324 30.5918C35.5436 31.2103 35.4492 31.8939 35.4492 32.6426C35.4492 33.4238 35.5273 34.1237 35.6836 34.7422C35.8398 35.3607 36.084 35.8848 36.416 36.3145C36.748 36.7441 37.1712 37.0729 37.6855 37.3008C38.2064 37.5286 38.8281 37.6426 39.5508 37.6426C39.6745 37.6426 39.8079 37.6361 39.9512 37.623C40.0944 37.61 40.2376 37.5938 40.3809 37.5742C40.5241 37.5482 40.6608 37.5189 40.791 37.4863C40.9277 37.4538 41.0482 37.418 41.1523 37.3789V33.3164H38.5449V31.8809H42.8711V38.4043C42.6042 38.528 42.321 38.6387 42.0215 38.7363C41.7285 38.834 41.4258 38.9154 41.1133 38.9805C40.8073 39.0456 40.5013 39.0944 40.1953 39.127C39.8893 39.1595 39.5931 39.1758 39.3066 39.1758C38.4342 39.1758 37.6465 39.0391 36.9434 38.7656C36.2467 38.4922 35.651 38.0885 35.1562 37.5547C34.668 37.0143 34.2904 36.3438 34.0234 35.543C33.763 34.7422 33.6328 33.8145 33.6328 32.7598C33.6328 31.7116 33.7793 30.7741 34.0723 29.9473C34.3652 29.1139 34.7754 28.4108 35.3027 27.8379C35.8366 27.2585 36.4746 26.819 37.2168 26.5195C37.9655 26.2135 38.7891 26.0605 39.6875 26.0605C40.2604 26.0605 40.804 26.1126 41.3184 26.2168C41.8392 26.3145 42.3372 26.474 42.8125 26.6953V28.4238ZM53.7012 38.5215C52.679 38.9447 51.6081 39.1562 50.4883 39.1562C48.6849 39.1562 47.2982 38.6191 46.3281 37.5449C45.3646 36.4642 44.8828 34.8691 44.8828 32.7598C44.8828 31.7376 45.0163 30.8132 45.2832 29.9863C45.5501 29.1595 45.931 28.4596 46.4258 27.8867C46.9206 27.3073 47.5195 26.8613 48.2227 26.5488C48.9258 26.2363 49.7135 26.0801 50.5859 26.0801C51.1784 26.0801 51.7285 26.1322 52.2363 26.2363C52.7441 26.334 53.2324 26.487 53.7012 26.6953V28.4043C53.2389 28.1504 52.7604 27.9583 52.2656 27.8281C51.7708 27.6914 51.2305 27.623 50.6445 27.623C50.0456 27.623 49.502 27.737 49.0137 27.9648C48.5319 28.1862 48.1217 28.5117 47.7832 28.9414C47.4447 29.3646 47.1842 29.8854 47.002 30.5039C46.8197 31.1159 46.7285 31.8158 46.7285 32.6035C46.7285 34.2572 47.0638 35.5039 47.7344 36.3438C48.4049 37.1836 49.388 37.6035 50.6836 37.6035C51.2305 37.6035 51.7546 37.5417 52.2559 37.418C52.7572 37.2878 53.2389 37.1087 53.7012 36.8809V38.5215ZM64.8047 28.4238C64.3294 28.1699 63.8411 27.9746 63.3398 27.8379C62.8385 27.6947 62.2917 27.623 61.6992 27.623C61.0221 27.623 60.4199 27.7435 59.8926 27.9844C59.3652 28.2253 58.9193 28.5671 58.5547 29.0098C58.1966 29.446 57.9199 29.9733 57.7246 30.5918C57.5358 31.2103 57.4414 31.8939 57.4414 32.6426C57.4414 33.4238 57.5195 34.1237 57.6758 34.7422C57.832 35.3607 58.0762 35.8848 58.4082 36.3145C58.7402 36.7441 59.1634 37.0729 59.6777 37.3008C60.1986 37.5286 60.8203 37.6426 61.543 37.6426C61.6667 37.6426 61.8001 37.6361 61.9434 37.623C62.0866 37.61 62.2298 37.5938 62.373 37.5742C62.5163 37.5482 62.653 37.5189 62.7832 37.4863C62.9199 37.4538 63.0404 37.418 63.1445 37.3789V33.3164H60.5371V31.8809H64.8633V38.4043C64.5964 38.528 64.3132 38.6387 64.0137 38.7363C63.7207 38.834 63.418 38.9154 63.1055 38.9805C62.7995 39.0456 62.4935 39.0944 62.1875 39.127C61.8815 39.1595 61.5853 39.1758 61.2988 39.1758C60.4264 39.1758 59.6387 39.0391 58.9355 38.7656C58.2389 38.4922 57.6432 38.0885 57.1484 37.5547C56.6602 37.0143 56.2826 36.3438 56.0156 35.543C55.7552 34.7422 55.625 33.8145 55.625 32.7598C55.625 31.7116 55.7715 30.7741 56.0645 29.9473C56.3574 29.1139 56.7676 28.4108 57.2949 27.8379C57.8288 27.2585 58.4668 26.819 59.209 26.5195C59.9577 26.2135 60.7812 26.0605 61.6797 26.0605C62.2526 26.0605 62.7962 26.1126 63.3105 26.2168C63.8314 26.3145 64.3294 26.474 64.8047 26.6953V28.4238ZM76.1328 27.7207H72.3535V39H70.5957V27.7207H66.8164V26.2363H76.1328V27.7207ZM86.7969 28.4238C86.3216 28.1699 85.8333 27.9746 85.332 27.8379C84.8307 27.6947 84.2839 27.623 83.6914 27.623C83.0143 27.623 82.4121 27.7435 81.8848 27.9844C81.3574 28.2253 80.9115 28.5671 80.5469 29.0098C80.1888 29.446 79.9121 29.9733 79.7168 30.5918C79.528 31.2103 79.4336 31.8939 79.4336 32.6426C79.4336 33.4238 79.5117 34.1237 79.668 34.7422C79.8242 35.3607 80.0684 35.8848 80.4004 36.3145C80.7324 36.7441 81.1556 37.0729 81.6699 37.3008C82.1908 37.5286 82.8125 37.6426 83.5352 37.6426C83.6589 37.6426 83.7923 37.6361 83.9355 37.623C84.0788 37.61 84.222 37.5938 84.3652 37.5742C84.5085 37.5482 84.6452 37.5189 84.7754 37.4863C84.9121 37.4538 85.0326 37.418 85.1367 37.3789V33.3164H82.5293V31.8809H86.8555V38.4043C86.5885 38.528 86.3053 38.6387 86.0059 38.7363C85.7129 38.834 85.4102 38.9154 85.0977 38.9805C84.7917 39.0456 84.4857 39.0944 84.1797 39.127C83.8737 39.1595 83.5775 39.1758 83.291 39.1758C82.4186 39.1758 81.6309 39.0391 80.9277 38.7656C80.2311 38.4922 79.6354 38.0885 79.1406 37.5547C78.6523 37.0143 78.2747 36.3438 78.0078 35.543C77.7474 34.7422 77.6172 33.8145 77.6172 32.7598C77.6172 31.7116 77.7637 30.7741 78.0566 29.9473C78.3496 29.1139 78.7598 28.4108 79.2871 27.8379C79.821 27.2585 80.459 26.819 81.2012 26.5195C81.9499 26.2135 82.7734 26.0605 83.6719 26.0605C84.2448 26.0605 84.7884 26.1126 85.3027 26.2168C85.8236 26.3145 86.3216 26.474 86.7969 26.6953V28.4238Z" fill="#989B05"/>
<path d="M94.3536 40.6464C94.1583 40.4512 93.8417 40.4512 93.6464 40.6464L90.4645 43.8284C90.2692 44.0237 90.2692 44.3403 90.4645 44.5355C90.6597 44.7308 90.9763 44.7308 91.1716 44.5355L94 41.7071L96.8284 44.5355C97.0237 44.7308 97.3403 44.7308 97.5355 44.5355C97.7308 44.3403 97.7308 44.0237 97.5355 43.8284L94.3536 40.6464ZM94.5 51V41H93.5V51H94.5Z" fill="#F40F0F"/>
<path d="M127.354 18.6464C127.158 18.4512 126.842 18.4512 126.646 18.6464L123.464 21.8284C123.269 22.0237 123.269 22.3403 123.464 22.5355C123.66 22.7308 123.976 22.7308 124.172 22.5355L127 19.7071L129.828 22.5355C130.024 22.7308 130.34 22.7308 130.536 22.5355C130.731 22.3403 130.731 22.0237 130.536 21.8284L127.354 18.6464ZM127.5 29V19H126.5V29H127.5Z" fill="#F40F0F"/>
<path d="M292.156 4.7207H288.377V16H286.619V4.7207H282.84V3.23633H292.156V4.7207ZM298.494 6.01953C298.696 6.01953 298.888 6.06185 299.07 6.14648C299.253 6.22461 299.412 6.33203 299.549 6.46875C299.686 6.60547 299.793 6.76497 299.871 6.94727C299.956 7.12956 299.998 7.32161 299.998 7.52344C299.998 7.73177 299.956 7.92708 299.871 8.10938C299.793 8.28516 299.686 8.44141 299.549 8.57812C299.412 8.71484 299.253 8.82227 299.07 8.90039C298.888 8.97852 298.696 9.01758 298.494 9.01758C298.286 9.01758 298.09 8.97852 297.908 8.90039C297.732 8.82227 297.576 8.71484 297.439 8.57812C297.303 8.44141 297.195 8.28516 297.117 8.10938C297.039 7.92708 297 7.73177 297 7.52344C297 7.32161 297.039 7.12956 297.117 6.94727C297.195 6.76497 297.303 6.60547 297.439 6.46875C297.576 6.33203 297.732 6.22461 297.908 6.14648C298.09 6.06185 298.286 6.01953 298.494 6.01953ZM298.494 13.1777C298.696 13.1777 298.888 13.2201 299.07 13.3047C299.253 13.3828 299.412 13.4902 299.549 13.627C299.686 13.7637 299.793 13.9232 299.871 14.1055C299.956 14.2878 299.998 14.4798 299.998 14.6816C299.998 14.89 299.956 15.0853 299.871 15.2676C299.793 15.4434 299.686 15.5996 299.549 15.7363C299.412 15.873 299.253 15.9805 299.07 16.0586C298.888 16.1367 298.696 16.1758 298.494 16.1758C298.286 16.1758 298.09 16.1367 297.908 16.0586C297.732 15.9805 297.576 15.873 297.439 15.7363C297.303 15.5996 297.195 15.4434 297.117 15.2676C297.039 15.0853 297 14.89 297 14.6816C297 14.4798 297.039 14.2878 297.117 14.1055C297.195 13.9232 297.303 13.7637 297.439 13.627C297.576 13.4902 297.732 13.3828 297.908 13.3047C298.09 13.2201 298.286 13.1777 298.494 13.1777ZM324.705 15.5215C323.683 15.9447 322.612 16.1562 321.492 16.1562C319.689 16.1562 318.302 15.6191 317.332 14.5449C316.368 13.4642 315.887 11.8691 315.887 9.75977C315.887 8.73763 316.02 7.81315 316.287 6.98633C316.554 6.15951 316.935 5.45964 317.43 4.88672C317.924 4.30729 318.523 3.86133 319.227 3.54883C319.93 3.23633 320.717 3.08008 321.59 3.08008C322.182 3.08008 322.732 3.13216 323.24 3.23633C323.748 3.33398 324.236 3.48698 324.705 3.69531V5.4043C324.243 5.15039 323.764 4.95833 323.27 4.82812C322.775 4.69141 322.234 4.62305 321.648 4.62305C321.049 4.62305 320.506 4.73698 320.018 4.96484C319.536 5.1862 319.126 5.51172 318.787 5.94141C318.449 6.36458 318.188 6.88542 318.006 7.50391C317.824 8.11589 317.732 8.81576 317.732 9.60352C317.732 11.2572 318.068 12.5039 318.738 13.3438C319.409 14.1836 320.392 14.6035 321.688 14.6035C322.234 14.6035 322.758 14.5417 323.26 14.418C323.761 14.2878 324.243 14.1087 324.705 13.8809V15.5215ZM335.809 5.42383C335.333 5.16992 334.845 4.97461 334.344 4.83789C333.842 4.69466 333.296 4.62305 332.703 4.62305C332.026 4.62305 331.424 4.74349 330.896 4.98438C330.369 5.22526 329.923 5.56706 329.559 6.00977C329.201 6.44596 328.924 6.97331 328.729 7.5918C328.54 8.21029 328.445 8.89388 328.445 9.64258C328.445 10.4238 328.523 11.1237 328.68 11.7422C328.836 12.3607 329.08 12.8848 329.412 13.3145C329.744 13.7441 330.167 14.0729 330.682 14.3008C331.202 14.5286 331.824 14.6426 332.547 14.6426C332.671 14.6426 332.804 14.6361 332.947 14.623C333.09 14.61 333.234 14.5938 333.377 14.5742C333.52 14.5482 333.657 14.5189 333.787 14.4863C333.924 14.4538 334.044 14.418 334.148 14.3789V10.3164H331.541V8.88086H335.867V15.4043C335.6 15.528 335.317 15.6387 335.018 15.7363C334.725 15.834 334.422 15.9154 334.109 15.9805C333.803 16.0456 333.497 16.0944 333.191 16.127C332.885 16.1595 332.589 16.1758 332.303 16.1758C331.43 16.1758 330.643 16.0391 329.939 15.7656C329.243 15.4922 328.647 15.0885 328.152 14.5547C327.664 14.0143 327.286 13.3438 327.02 12.543C326.759 11.7422 326.629 10.8145 326.629 9.75977C326.629 8.71159 326.775 7.77409 327.068 6.94727C327.361 6.11393 327.771 5.41081 328.299 4.83789C328.833 4.25846 329.471 3.81901 330.213 3.51953C330.962 3.21354 331.785 3.06055 332.684 3.06055C333.257 3.06055 333.8 3.11263 334.314 3.2168C334.835 3.31445 335.333 3.47396 335.809 3.69531V5.42383ZM347.137 4.7207H343.357V16H341.6V4.7207H337.82V3.23633H347.137V4.7207ZM424.109 4.7207H420.33V16H418.572V4.7207H414.793V3.23633H424.109V4.7207ZM435.105 4.7207H431.326V16H429.568V4.7207H425.789V3.23633H435.105V4.7207ZM291.922 30.1426C291.922 30.6634 291.824 31.181 291.629 31.6953C291.434 32.2031 291.131 32.6589 290.721 33.0625C290.311 33.4661 289.786 33.7949 289.148 34.0488C288.51 34.2962 287.749 34.4199 286.863 34.4199H285.281V39H283.543V26.2363H287.137C287.768 26.2363 288.374 26.3079 288.953 26.4512C289.533 26.5879 290.04 26.8125 290.477 27.125C290.919 27.4375 291.271 27.8411 291.531 28.3359C291.792 28.8307 291.922 29.4329 291.922 30.1426ZM290.115 30.2207C290.115 29.4004 289.845 28.7721 289.305 28.3359C288.771 27.8997 288.022 27.6816 287.059 27.6816H285.281V32.9355H286.902C287.931 32.9355 288.722 32.7109 289.275 32.2617C289.835 31.8125 290.115 31.1322 290.115 30.2207ZM298.494 29.0195C298.696 29.0195 298.888 29.0618 299.07 29.1465C299.253 29.2246 299.412 29.332 299.549 29.4688C299.686 29.6055 299.793 29.765 299.871 29.9473C299.956 30.1296 299.998 30.3216 299.998 30.5234C299.998 30.7318 299.956 30.9271 299.871 31.1094C299.793 31.2852 299.686 31.4414 299.549 31.5781C299.412 31.7148 299.253 31.8223 299.07 31.9004C298.888 31.9785 298.696 32.0176 298.494 32.0176C298.286 32.0176 298.09 31.9785 297.908 31.9004C297.732 31.8223 297.576 31.7148 297.439 31.5781C297.303 31.4414 297.195 31.2852 297.117 31.1094C297.039 30.9271 297 30.7318 297 30.5234C297 30.3216 297.039 30.1296 297.117 29.9473C297.195 29.765 297.303 29.6055 297.439 29.4688C297.576 29.332 297.732 29.2246 297.908 29.1465C298.09 29.0618 298.286 29.0195 298.494 29.0195ZM298.494 36.1777C298.696 36.1777 298.888 36.2201 299.07 36.3047C299.253 36.3828 299.412 36.4902 299.549 36.627C299.686 36.7637 299.793 36.9232 299.871 37.1055C299.956 37.2878 299.998 37.4798 299.998 37.6816C299.998 37.89 299.956 38.0853 299.871 38.2676C299.793 38.4434 299.686 38.5996 299.549 38.7363C299.412 38.873 299.253 38.9805 299.07 39.0586C298.888 39.1367 298.696 39.1758 298.494 39.1758C298.286 39.1758 298.09 39.1367 297.908 39.0586C297.732 38.9805 297.576 38.873 297.439 38.7363C297.303 38.5996 297.195 38.4434 297.117 38.2676C297.039 38.0853 297 37.89 297 37.6816C297 37.4798 297.039 37.2878 297.117 37.1055C297.195 36.9232 297.303 36.7637 297.439 36.627C297.576 36.4902 297.732 36.3828 297.908 36.3047C298.09 36.2201 298.286 36.1777 298.494 36.1777Z" fill="#C9D1D9"/>
<path d="M357.801 5.42383C357.326 5.16992 356.837 4.97461 356.336 4.83789C355.835 4.69466 355.288 4.62305 354.695 4.62305C354.018 4.62305 353.416 4.74349 352.889 4.98438C352.361 5.22526 351.915 5.56706 351.551 6.00977C351.193 6.44596 350.916 6.97331 350.721 7.5918C350.532 8.21029 350.438 8.89388 350.438 9.64258C350.438 10.4238 350.516 11.1237 350.672 11.7422C350.828 12.3607 351.072 12.8848 351.404 13.3145C351.736 13.7441 352.16 14.0729 352.674 14.3008C353.195 14.5286 353.816 14.6426 354.539 14.6426C354.663 14.6426 354.796 14.6361 354.939 14.623C355.083 14.61 355.226 14.5938 355.369 14.5742C355.512 14.5482 355.649 14.5189 355.779 14.4863C355.916 14.4538 356.036 14.418 356.141 14.3789V10.3164H353.533V8.88086H357.859V15.4043C357.592 15.528 357.309 15.6387 357.01 15.7363C356.717 15.834 356.414 15.9154 356.102 15.9805C355.796 16.0456 355.49 16.0944 355.184 16.127C354.878 16.1595 354.581 16.1758 354.295 16.1758C353.423 16.1758 352.635 16.0391 351.932 15.7656C351.235 15.4922 350.639 15.0885 350.145 14.5547C349.656 14.0143 349.279 13.3438 349.012 12.543C348.751 11.7422 348.621 10.8145 348.621 9.75977C348.621 8.71159 348.768 7.77409 349.061 6.94727C349.354 6.11393 349.764 5.41081 350.291 4.83789C350.825 4.25846 351.463 3.81901 352.205 3.51953C352.954 3.21354 353.777 3.06055 354.676 3.06055C355.249 3.06055 355.792 3.11263 356.307 3.2168C356.827 3.31445 357.326 3.47396 357.801 3.69531V5.42383ZM368.689 15.5215C367.667 15.9447 366.596 16.1562 365.477 16.1562C363.673 16.1562 362.286 15.6191 361.316 14.5449C360.353 13.4642 359.871 11.8691 359.871 9.75977C359.871 8.73763 360.005 7.81315 360.271 6.98633C360.538 6.15951 360.919 5.45964 361.414 4.88672C361.909 4.30729 362.508 3.86133 363.211 3.54883C363.914 3.23633 364.702 3.08008 365.574 3.08008C366.167 3.08008 366.717 3.13216 367.225 3.23633C367.732 3.33398 368.221 3.48698 368.689 3.69531V5.4043C368.227 5.15039 367.749 4.95833 367.254 4.82812C366.759 4.69141 366.219 4.62305 365.633 4.62305C365.034 4.62305 364.49 4.73698 364.002 4.96484C363.52 5.1862 363.11 5.51172 362.771 5.94141C362.433 6.36458 362.173 6.88542 361.99 7.50391C361.808 8.11589 361.717 8.81576 361.717 9.60352C361.717 11.2572 362.052 12.5039 362.723 13.3438C363.393 14.1836 364.376 14.6035 365.672 14.6035C366.219 14.6035 366.743 14.5417 367.244 14.418C367.745 14.2878 368.227 14.1087 368.689 13.8809V15.5215ZM379.793 5.42383C379.318 5.16992 378.829 4.97461 378.328 4.83789C377.827 4.69466 377.28 4.62305 376.688 4.62305C376.01 4.62305 375.408 4.74349 374.881 4.98438C374.354 5.22526 373.908 5.56706 373.543 6.00977C373.185 6.44596 372.908 6.97331 372.713 7.5918C372.524 8.21029 372.43 8.89388 372.43 9.64258C372.43 10.4238 372.508 11.1237 372.664 11.7422C372.82 12.3607 373.064 12.8848 373.396 13.3145C373.729 13.7441 374.152 14.0729 374.666 14.3008C375.187 14.5286 375.809 14.6426 376.531 14.6426C376.655 14.6426 376.788 14.6361 376.932 14.623C377.075 14.61 377.218 14.5938 377.361 14.5742C377.505 14.5482 377.641 14.5189 377.771 14.4863C377.908 14.4538 378.029 14.418 378.133 14.3789V10.3164H375.525V8.88086H379.852V15.4043C379.585 15.528 379.301 15.6387 379.002 15.7363C378.709 15.834 378.406 15.9154 378.094 15.9805C377.788 16.0456 377.482 16.0944 377.176 16.127C376.87 16.1595 376.574 16.1758 376.287 16.1758C375.415 16.1758 374.627 16.0391 373.924 15.7656C373.227 15.4922 372.632 15.0885 372.137 14.5547C371.648 14.0143 371.271 13.3438 371.004 12.543C370.743 11.7422 370.613 10.8145 370.613 9.75977C370.613 8.71159 370.76 7.77409 371.053 6.94727C371.346 6.11393 371.756 5.41081 372.283 4.83789C372.817 4.25846 373.455 3.81901 374.197 3.51953C374.946 3.21354 375.77 3.06055 376.668 3.06055C377.241 3.06055 377.785 3.11263 378.299 3.2168C378.82 3.31445 379.318 3.47396 379.793 3.69531V5.42383ZM391.121 4.7207H387.342V16H385.584V4.7207H381.805V3.23633H391.121V4.7207ZM401.785 5.42383C401.31 5.16992 400.822 4.97461 400.32 4.83789C399.819 4.69466 399.272 4.62305 398.68 4.62305C398.003 4.62305 397.4 4.74349 396.873 4.98438C396.346 5.22526 395.9 5.56706 395.535 6.00977C395.177 6.44596 394.9 6.97331 394.705 7.5918C394.516 8.21029 394.422 8.89388 394.422 9.64258C394.422 10.4238 394.5 11.1237 394.656 11.7422C394.812 12.3607 395.057 12.8848 395.389 13.3145C395.721 13.7441 396.144 14.0729 396.658 14.3008C397.179 14.5286 397.801 14.6426 398.523 14.6426C398.647 14.6426 398.781 14.6361 398.924 14.623C399.067 14.61 399.21 14.5938 399.354 14.5742C399.497 14.5482 399.633 14.5189 399.764 14.4863C399.9 14.4538 400.021 14.418 400.125 14.3789V10.3164H397.518V8.88086H401.844V15.4043C401.577 15.528 401.294 15.6387 400.994 15.7363C400.701 15.834 400.398 15.9154 400.086 15.9805C399.78 16.0456 399.474 16.0944 399.168 16.127C398.862 16.1595 398.566 16.1758 398.279 16.1758C397.407 16.1758 396.619 16.0391 395.916 15.7656C395.219 15.4922 394.624 15.0885 394.129 14.5547C393.641 14.0143 393.263 13.3438 392.996 12.543C392.736 11.7422 392.605 10.8145 392.605 9.75977C392.605 8.71159 392.752 7.77409 393.045 6.94727C393.338 6.11393 393.748 5.41081 394.275 4.83789C394.809 4.25846 395.447 3.81901 396.189 3.51953C396.938 3.21354 397.762 3.06055 398.66 3.06055C399.233 3.06055 399.777 3.11263 400.291 3.2168C400.812 3.31445 401.31 3.47396 401.785 3.69531V5.42383ZM412.674 15.5215C411.652 15.9447 410.581 16.1562 409.461 16.1562C407.658 16.1562 406.271 15.6191 405.301 14.5449C404.337 13.4642 403.855 11.8691 403.855 9.75977C403.855 8.73763 403.989 7.81315 404.256 6.98633C404.523 6.15951 404.904 5.45964 405.398 4.88672C405.893 4.30729 406.492 3.86133 407.195 3.54883C407.898 3.23633 408.686 3.08008 409.559 3.08008C410.151 3.08008 410.701 3.13216 411.209 3.23633C411.717 3.33398 412.205 3.48698 412.674 3.69531V5.4043C412.212 5.15039 411.733 4.95833 411.238 4.82812C410.743 4.69141 410.203 4.62305 409.617 4.62305C409.018 4.62305 408.475 4.73698 407.986 4.96484C407.505 5.1862 407.094 5.51172 406.756 5.94141C406.417 6.36458 406.157 6.88542 405.975 7.50391C405.792 8.11589 405.701 8.81576 405.701 9.60352C405.701 11.2572 406.036 12.5039 406.707 13.3438C407.378 14.1836 408.361 14.6035 409.656 14.6035C410.203 14.6035 410.727 14.5417 411.229 14.418C411.73 14.2878 412.212 14.1087 412.674 13.8809V15.5215ZM324.812 28.4238C324.337 28.1699 323.849 27.9746 323.348 27.8379C322.846 27.6947 322.299 27.623 321.707 27.623C321.03 27.623 320.428 27.7435 319.9 27.9844C319.373 28.2253 318.927 28.5671 318.562 29.0098C318.204 29.446 317.928 29.9733 317.732 30.5918C317.544 31.2103 317.449 31.8939 317.449 32.6426C317.449 33.4238 317.527 34.1237 317.684 34.7422C317.84 35.3607 318.084 35.8848 318.416 36.3145C318.748 36.7441 319.171 37.0729 319.686 37.3008C320.206 37.5286 320.828 37.6426 321.551 37.6426C321.674 37.6426 321.808 37.6361 321.951 37.623C322.094 37.61 322.238 37.5938 322.381 37.5742C322.524 37.5482 322.661 37.5189 322.791 37.4863C322.928 37.4538 323.048 37.418 323.152 37.3789V33.3164H320.545V31.8809H324.871V38.4043C324.604 38.528 324.321 38.6387 324.021 38.7363C323.729 38.834 323.426 38.9154 323.113 38.9805C322.807 39.0456 322.501 39.0944 322.195 39.127C321.889 39.1595 321.593 39.1758 321.307 39.1758C320.434 39.1758 319.646 39.0391 318.943 38.7656C318.247 38.4922 317.651 38.0885 317.156 37.5547C316.668 37.0143 316.29 36.3438 316.023 35.543C315.763 34.7422 315.633 33.8145 315.633 32.7598C315.633 31.7116 315.779 30.7741 316.072 29.9473C316.365 29.1139 316.775 28.4108 317.303 27.8379C317.837 27.2585 318.475 26.819 319.217 26.5195C319.965 26.2135 320.789 26.0605 321.688 26.0605C322.26 26.0605 322.804 26.1126 323.318 26.2168C323.839 26.3145 324.337 26.474 324.812 26.6953V28.4238ZM335.701 38.5215C334.679 38.9447 333.608 39.1562 332.488 39.1562C330.685 39.1562 329.298 38.6191 328.328 37.5449C327.365 36.4642 326.883 34.8691 326.883 32.7598C326.883 31.7376 327.016 30.8132 327.283 29.9863C327.55 29.1595 327.931 28.4596 328.426 27.8867C328.921 27.3073 329.52 26.8613 330.223 26.5488C330.926 26.2363 331.714 26.0801 332.586 26.0801C333.178 26.0801 333.729 26.1322 334.236 26.2363C334.744 26.334 335.232 26.487 335.701 26.6953V28.4043C335.239 28.1504 334.76 27.9583 334.266 27.8281C333.771 27.6914 333.23 27.623 332.645 27.623C332.046 27.623 331.502 27.737 331.014 27.9648C330.532 28.1862 330.122 28.5117 329.783 28.9414C329.445 29.3646 329.184 29.8854 329.002 30.5039C328.82 31.1159 328.729 31.8158 328.729 32.6035C328.729 34.2572 329.064 35.5039 329.734 36.3438C330.405 37.1836 331.388 37.6035 332.684 37.6035C333.23 37.6035 333.755 37.5417 334.256 37.418C334.757 37.2878 335.239 37.1087 335.701 36.8809V38.5215ZM346.805 28.4238C346.329 28.1699 345.841 27.9746 345.34 27.8379C344.839 27.6947 344.292 27.623 343.699 27.623C343.022 27.623 342.42 27.7435 341.893 27.9844C341.365 28.2253 340.919 28.5671 340.555 29.0098C340.197 29.446 339.92 29.9733 339.725 30.5918C339.536 31.2103 339.441 31.8939 339.441 32.6426C339.441 33.4238 339.52 34.1237 339.676 34.7422C339.832 35.3607 340.076 35.8848 340.408 36.3145C340.74 36.7441 341.163 37.0729 341.678 37.3008C342.199 37.5286 342.82 37.6426 343.543 37.6426C343.667 37.6426 343.8 37.6361 343.943 37.623C344.087 37.61 344.23 37.5938 344.373 37.5742C344.516 37.5482 344.653 37.5189 344.783 37.4863C344.92 37.4538 345.04 37.418 345.145 37.3789V33.3164H342.537V31.8809H346.863V38.4043C346.596 38.528 346.313 38.6387 346.014 38.7363C345.721 38.834 345.418 38.9154 345.105 38.9805C344.799 39.0456 344.493 39.0944 344.188 39.127C343.882 39.1595 343.585 39.1758 343.299 39.1758C342.426 39.1758 341.639 39.0391 340.936 38.7656C340.239 38.4922 339.643 38.0885 339.148 37.5547C338.66 37.0143 338.283 36.3438 338.016 35.543C337.755 34.7422 337.625 33.8145 337.625 32.7598C337.625 31.7116 337.771 30.7741 338.064 29.9473C338.357 29.1139 338.768 28.4108 339.295 27.8379C339.829 27.2585 340.467 26.819 341.209 26.5195C341.958 26.2135 342.781 26.0605 343.68 26.0605C344.253 26.0605 344.796 26.1126 345.311 26.2168C345.831 26.3145 346.329 26.474 346.805 26.6953V28.4238ZM358.133 27.7207H354.354V39H352.596V27.7207H348.816V26.2363H358.133V27.7207ZM368.797 28.4238C368.322 28.1699 367.833 27.9746 367.332 27.8379C366.831 27.6947 366.284 27.623 365.691 27.623C365.014 27.623 364.412 27.7435 363.885 27.9844C363.357 28.2253 362.911 28.5671 362.547 29.0098C362.189 29.446 361.912 29.9733 361.717 30.5918C361.528 31.2103 361.434 31.8939 361.434 32.6426C361.434 33.4238 361.512 34.1237 361.668 34.7422C361.824 35.3607 362.068 35.8848 362.4 36.3145C362.732 36.7441 363.156 37.0729 363.67 37.3008C364.191 37.5286 364.812 37.6426 365.535 37.6426C365.659 37.6426 365.792 37.6361 365.936 37.623C366.079 37.61 366.222 37.5938 366.365 37.5742C366.508 37.5482 366.645 37.5189 366.775 37.4863C366.912 37.4538 367.033 37.418 367.137 37.3789V33.3164H364.529V31.8809H368.855V38.4043C368.589 38.528 368.305 38.6387 368.006 38.7363C367.713 38.834 367.41 38.9154 367.098 38.9805C366.792 39.0456 366.486 39.0944 366.18 39.127C365.874 39.1595 365.577 39.1758 365.291 39.1758C364.419 39.1758 363.631 39.0391 362.928 38.7656C362.231 38.4922 361.635 38.0885 361.141 37.5547C360.652 37.0143 360.275 36.3438 360.008 35.543C359.747 34.7422 359.617 33.8145 359.617 32.7598C359.617 31.7116 359.764 30.7741 360.057 29.9473C360.35 29.1139 360.76 28.4108 361.287 27.8379C361.821 27.2585 362.459 26.819 363.201 26.5195C363.95 26.2135 364.773 26.0605 365.672 26.0605C366.245 26.0605 366.788 26.1126 367.303 26.2168C367.824 26.3145 368.322 26.474 368.797 26.6953V28.4238ZM379.686 38.5215C378.663 38.9447 377.592 39.1562 376.473 39.1562C374.669 39.1562 373.283 38.6191 372.312 37.5449C371.349 36.4642 370.867 34.8691 370.867 32.7598C370.867 31.7376 371.001 30.8132 371.268 29.9863C371.535 29.1595 371.915 28.4596 372.41 27.8867C372.905 27.3073 373.504 26.8613 374.207 26.5488C374.91 26.2363 375.698 26.0801 376.57 26.0801C377.163 26.0801 377.713 26.1322 378.221 26.2363C378.729 26.334 379.217 26.487 379.686 26.6953V28.4043C379.223 28.1504 378.745 27.9583 378.25 27.8281C377.755 27.6914 377.215 27.623 376.629 27.623C376.03 27.623 375.486 27.737 374.998 27.9648C374.516 28.1862 374.106 28.5117 373.768 28.9414C373.429 29.3646 373.169 29.8854 372.986 30.5039C372.804 31.1159 372.713 31.8158 372.713 32.6035C372.713 34.2572 373.048 35.5039 373.719 36.3438C374.389 37.1836 375.372 37.6035 376.668 37.6035C377.215 37.6035 377.739 37.5417 378.24 37.418C378.742 37.2878 379.223 37.1087 379.686 36.8809V38.5215Z" fill="#989B05"/>
<g filter="url(#filter0_d)">
<path d="M234.707 19.7071C235.098 19.3166 235.098 18.6834 234.707 18.2929L228.343 11.9289C227.953 11.5384 227.319 11.5384 226.929 11.9289C226.538 12.3195 226.538 12.9526 226.929 13.3431L232.586 19L226.929 24.6569C226.538 25.0474 226.538 25.6805 226.929 26.0711C227.319 26.4616 227.953 26.4616 228.343 26.0711L234.707 19.7071ZM182 20H234V18H182V20Z" fill="#C9D1D9"/>
</g>
<defs>
<filter id="filter0_d" x="178" y="11.636" width="61" height="22.7279" filterUnits="userSpaceOnUse" color-interpolation-filters="sRGB">
<feFlood flood-opacity="0" result="BackgroundImageFix"/>
<feColorMatrix in="SourceAlpha" type="matrix" values="0 0 0 0 0 0 0 0 0 0 0 0 0 0 0 0 0 0 127 0"/>
<feOffset dy="4"/>
<feGaussianBlur stdDeviation="2"/>
<feColorMatrix type="matrix" values="0 0 0 0 0 0 0 0 0 0 0 0 0 0 0 0 0 0 0.25 0"/>
<feBlend mode="normal" in2="BackgroundImageFix" result="effect1_dropShadow"/>
<feBlend mode="normal" in="SourceGraphic" in2="effect1_dropShadow" result="shape"/>
</filter>
</defs>
</svg>
