<svg width="199" height="271" viewBox="0 0 199 271" fill="none" xmlns="http://www.w3.org/2000/svg">
<g filter="url(#filter0_i)">
<g filter="url(#filter1_d)">
<rect x="4" width="188.391" height="220" rx="10" fill="#FF7F50"/>
<rect x="4" width="188.391" height="220" rx="10" fill="url(#paint0_linear)" fill-opacity="0.5"/>
</g>
<path d="M44.4844 28V26.8281H46.6406V17.8672H44.4844V16.7031H50.3594V17.8672H48.2109V26.8281H50.3594V28H44.4844ZM53.5469 28V16.7031H54.7422L61.2109 25.7344V16.7031H62.5938V28H61.1953L54.9297 19.375V28H53.5469ZM67.5781 26.8281H70.3438C71.4792 26.8281 72.237 26.6172 72.6172 26.1953C73.0026 25.7734 73.1953 25.1719 73.1953 24.3906V20.4141C73.1953 19.263 72.8099 18.5156 72.0391 18.1719C71.6016 17.974 71.0365 17.8776 70.3438 17.8828H67.5781V26.8281ZM66 28V16.7031H70.4844C72.6458 16.7031 73.9948 17.4688 74.5312 19C74.6875 19.4479 74.7656 19.9505 74.7656 20.5078V24.2344C74.7656 25.4688 74.4089 26.4062 73.6953 27.0469C72.987 27.6823 71.9219 28 70.5 28H66ZM77.8906 28V16.7031H84.9453V17.875H79.4609V21.5938H84.3047V22.7656H79.4609V26.8281H85.0391V28H77.8906ZM87.7031 28V16.7031H89.2734V22.8672C90.112 21.8516 91.112 20.6849 92.2734 19.3672C93.4401 18.0495 94.2214 17.1615 94.6172 16.7031H96.3203L92.0781 21.7656L96.5469 28H94.8047L90.9766 22.6094L89.2734 24.3438V28H87.7031ZM106.172 24.8281C106.172 27.0573 104.94 28.1719 102.477 28.1719C100.841 28.1719 99.4167 27.8203 98.2031 27.1172L98.7578 25.9141C99.2266 26.1901 99.7943 26.4245 100.461 26.6172C101.133 26.8099 101.784 26.9062 102.414 26.9062C103.049 26.9062 103.529 26.8255 103.852 26.6641C104.43 26.3724 104.719 25.7786 104.719 24.8828C104.719 24.513 104.701 24.2656 104.664 24.1406C104.544 23.724 104.104 23.3958 103.344 23.1562L100.617 22.25C99.737 21.9635 99.1484 21.6016 98.8516 21.1641C98.5599 20.7214 98.4141 20.1562 98.4141 19.4688C98.4193 18.4792 98.7812 17.724 99.5 17.2031C100.12 16.7604 101.021 16.5365 102.203 16.5312C103.885 16.5312 105.148 16.7943 105.992 17.3203L105.609 18.5469C104.682 18.0469 103.638 17.7969 102.477 17.7969C101.669 17.7969 101.055 17.901 100.633 18.1094C100.211 18.3177 99.9844 18.6536 99.9531 19.1172C99.9427 19.263 99.9375 19.3932 99.9375 19.5078C99.9375 19.8828 100.016 20.1719 100.172 20.375C100.333 20.5781 100.643 20.7578 101.102 20.9141L103.945 21.875C104.727 22.1406 105.292 22.4896 105.641 22.9219C105.995 23.349 106.172 23.9844 106.172 24.8281ZM117.367 26.9062C118.398 26.9062 119.148 26.7422 119.617 26.4141C120.086 26.0807 120.32 25.4245 120.32 24.4453V20.3594C120.32 19.3802 120.083 18.7083 119.609 18.3438C119.141 17.9792 118.396 17.7969 117.375 17.7969C115.792 17.7969 114.831 18.2344 114.492 19.1094C114.362 19.4427 114.297 19.8594 114.297 20.3594V24.4453C114.297 25.4193 114.552 26.0729 115.062 26.4062C115.573 26.7396 116.341 26.9062 117.367 26.9062ZM114.477 27.6562C113.794 27.3125 113.331 26.8516 113.086 26.2734C112.841 25.6953 112.719 25.0052 112.719 24.2031V20.6484C112.719 19.0286 113.177 17.9062 114.094 17.2812C114.833 16.7812 115.927 16.5312 117.375 16.5312C119.938 16.5312 121.404 17.4844 121.773 19.3906C121.852 19.7917 121.891 20.2448 121.891 20.75V24.0938C121.891 25.6667 121.44 26.7708 120.539 27.4062C119.815 27.9167 118.794 28.1719 117.477 28.1719C116.159 28.1719 115.159 28 114.477 27.6562ZM126.625 26.8281H129.391C130.526 26.8281 131.284 26.6172 131.664 26.1953C132.049 25.7734 132.242 25.1719 132.242 24.3906V20.4141C132.242 19.263 131.857 18.5156 131.086 18.1719C130.648 17.974 130.083 17.8776 129.391 17.8828H126.625V26.8281ZM125.047 28V16.7031H129.531C131.693 16.7031 133.042 17.4688 133.578 19C133.734 19.4479 133.812 19.9505 133.812 20.5078V24.2344C133.812 25.4688 133.456 26.4062 132.742 27.0469C132.034 27.6823 130.969 28 129.547 28H125.047ZM143.148 28V17.9922H139.891V16.7031H147.984V17.9922H144.719V28H143.148Z" fill="#C9D1D9"/>
</g>
<path d="M16.6953 237.901H11.9712V252H9.77393V237.901H5.0498V236.045H16.6953V237.901ZM24.6177 239.524C24.87 239.524 25.11 239.577 25.3379 239.683C25.5658 239.781 25.7651 239.915 25.936 240.086C26.1069 240.257 26.2412 240.456 26.3389 240.684C26.4447 240.912 26.4976 241.152 26.4976 241.404C26.4976 241.665 26.4447 241.909 26.3389 242.137C26.2412 242.356 26.1069 242.552 25.936 242.723C25.7651 242.894 25.5658 243.028 25.3379 243.125C25.11 243.223 24.87 243.272 24.6177 243.272C24.3573 243.272 24.1131 243.223 23.8853 243.125C23.6655 243.028 23.4702 242.894 23.2993 242.723C23.1284 242.552 22.9941 242.356 22.8965 242.137C22.7988 241.909 22.75 241.665 22.75 241.404C22.75 241.152 22.7988 240.912 22.8965 240.684C22.9941 240.456 23.1284 240.257 23.2993 240.086C23.4702 239.915 23.6655 239.781 23.8853 239.683C24.1131 239.577 24.3573 239.524 24.6177 239.524ZM24.6177 248.472C24.87 248.472 25.11 248.525 25.3379 248.631C25.5658 248.729 25.7651 248.863 25.936 249.034C26.1069 249.205 26.2412 249.404 26.3389 249.632C26.4447 249.86 26.4976 250.1 26.4976 250.352C26.4976 250.612 26.4447 250.857 26.3389 251.084C26.2412 251.304 26.1069 251.5 25.936 251.67C25.7651 251.841 25.5658 251.976 25.3379 252.073C25.11 252.171 24.87 252.22 24.6177 252.22C24.3573 252.22 24.1131 252.171 23.8853 252.073C23.6655 251.976 23.4702 251.841 23.2993 251.67C23.1284 251.5 22.9941 251.304 22.8965 251.084C22.7988 250.857 22.75 250.612 22.75 250.352C22.75 250.1 22.7988 249.86 22.8965 249.632C22.9941 249.404 23.1284 249.205 23.2993 249.034C23.4702 248.863 23.6655 248.729 23.8853 248.631C24.1131 248.525 24.3573 248.472 24.6177 248.472ZM57.3813 251.402C56.1037 251.931 54.765 252.195 53.3652 252.195C51.111 252.195 49.3776 251.524 48.165 250.181C46.9606 248.83 46.3584 246.836 46.3584 244.2C46.3584 242.922 46.5252 241.766 46.8589 240.733C47.1925 239.699 47.6686 238.825 48.2871 238.108C48.9056 237.384 49.6543 236.827 50.5332 236.436C51.4121 236.045 52.3968 235.85 53.4873 235.85C54.2279 235.85 54.9155 235.915 55.5503 236.045C56.1851 236.167 56.7954 236.359 57.3813 236.619V238.755C56.8035 238.438 56.2054 238.198 55.5869 238.035C54.9684 237.864 54.293 237.779 53.5605 237.779C52.8118 237.779 52.1323 237.921 51.522 238.206C50.9198 238.483 50.4071 238.89 49.9839 239.427C49.5607 239.956 49.2352 240.607 49.0073 241.38C48.7795 242.145 48.6655 243.02 48.6655 244.004C48.6655 246.071 49.0846 247.63 49.9229 248.68C50.7611 249.729 51.9899 250.254 53.6094 250.254C54.293 250.254 54.9481 250.177 55.5747 250.022C56.2013 249.86 56.8035 249.636 57.3813 249.351V251.402ZM71.2607 238.78C70.6667 238.462 70.0563 238.218 69.4297 238.047C68.8031 237.868 68.1195 237.779 67.3789 237.779C66.5326 237.779 65.7798 237.929 65.1206 238.23C64.4614 238.532 63.904 238.959 63.4482 239.512C63.0007 240.057 62.6548 240.717 62.4106 241.49C62.1746 242.263 62.0566 243.117 62.0566 244.053C62.0566 245.03 62.1543 245.905 62.3496 246.678C62.5449 247.451 62.8501 248.106 63.2651 248.643C63.6802 249.18 64.2091 249.591 64.8521 249.876C65.5031 250.161 66.2803 250.303 67.1836 250.303C67.3382 250.303 67.505 250.295 67.6841 250.279C67.8631 250.263 68.0422 250.242 68.2212 250.218C68.4002 250.185 68.5711 250.149 68.7339 250.108C68.9048 250.067 69.0553 250.022 69.1855 249.974V244.896H65.9263V243.101H71.334V251.255C71.0003 251.41 70.6463 251.548 70.272 251.67C69.9058 251.792 69.5273 251.894 69.1367 251.976C68.7542 252.057 68.3717 252.118 67.9893 252.159C67.6068 252.199 67.2365 252.22 66.8784 252.22C65.7879 252.22 64.8032 252.049 63.9243 251.707C63.0535 251.365 62.3089 250.861 61.6904 250.193C61.0801 249.518 60.6081 248.68 60.2744 247.679C59.9489 246.678 59.7861 245.518 59.7861 244.2C59.7861 242.889 59.9692 241.718 60.3354 240.684C60.7017 239.642 61.2144 238.764 61.8735 238.047C62.5409 237.323 63.3384 236.774 64.2661 236.399C65.202 236.017 66.2314 235.826 67.3545 235.826C68.0706 235.826 68.7502 235.891 69.3931 236.021C70.0441 236.143 70.6667 236.342 71.2607 236.619V238.78ZM85.4209 237.901H80.6968V252H78.4995V237.901H73.7754V236.045H85.4209V237.901ZM98.751 238.78C98.1569 238.462 97.5465 238.218 96.9199 238.047C96.2933 237.868 95.6097 237.779 94.8691 237.779C94.0228 237.779 93.27 237.929 92.6108 238.23C91.9517 238.532 91.3942 238.959 90.9385 239.512C90.4909 240.057 90.145 240.717 89.9009 241.49C89.6649 242.263 89.5469 243.117 89.5469 244.053C89.5469 245.03 89.6445 245.905 89.8398 246.678C90.0352 247.451 90.3403 248.106 90.7554 248.643C91.1704 249.18 91.6994 249.591 92.3423 249.876C92.9933 250.161 93.7705 250.303 94.6738 250.303C94.8285 250.303 94.9953 250.295 95.1743 250.279C95.3534 250.263 95.5324 250.242 95.7114 250.218C95.8905 250.185 96.0614 250.149 96.2241 250.108C96.395 250.067 96.5456 250.022 96.6758 249.974V244.896H93.4165V243.101H98.8242V251.255C98.4906 251.41 98.1366 251.548 97.7622 251.67C97.396 251.792 97.0176 251.894 96.627 251.976C96.2445 252.057 95.862 252.118 95.4795 252.159C95.097 252.199 94.7267 252.22 94.3687 252.22C93.2782 252.22 92.2935 252.049 91.4146 251.707C90.5438 251.365 89.7992 250.861 89.1807 250.193C88.5703 249.518 88.0983 248.68 87.7646 247.679C87.4391 246.678 87.2764 245.518 87.2764 244.2C87.2764 242.889 87.4595 241.718 87.8257 240.684C88.1919 239.642 88.7046 238.764 89.3638 238.047C90.0311 237.323 90.8286 236.774 91.7563 236.399C92.6922 236.017 93.7217 235.826 94.8447 235.826C95.5609 235.826 96.2404 235.891 96.8833 236.021C97.5343 236.143 98.1569 236.342 98.751 236.619V238.78ZM112.362 251.402C111.084 251.931 109.745 252.195 108.346 252.195C106.091 252.195 104.358 251.524 103.146 250.181C101.941 248.83 101.339 246.836 101.339 244.2C101.339 242.922 101.506 241.766 101.839 240.733C102.173 239.699 102.649 238.825 103.268 238.108C103.886 237.384 104.635 236.827 105.514 236.436C106.393 236.045 107.377 235.85 108.468 235.85C109.208 235.85 109.896 235.915 110.531 236.045C111.166 236.167 111.776 236.359 112.362 236.619V238.755C111.784 238.438 111.186 238.198 110.567 238.035C109.949 237.864 109.273 237.779 108.541 237.779C107.792 237.779 107.113 237.921 106.502 238.206C105.9 238.483 105.388 238.89 104.964 239.427C104.541 239.956 104.216 240.607 103.988 241.38C103.76 242.145 103.646 243.02 103.646 244.004C103.646 246.071 104.065 247.63 104.903 248.68C105.742 249.729 106.97 250.254 108.59 250.254C109.273 250.254 109.929 250.177 110.555 250.022C111.182 249.86 111.784 249.636 112.362 249.351V251.402ZM126.241 238.78C125.647 238.462 125.037 238.218 124.41 238.047C123.784 237.868 123.1 237.779 122.359 237.779C121.513 237.779 120.76 237.929 120.101 238.23C119.442 238.532 118.884 238.959 118.429 239.512C117.981 240.057 117.635 240.717 117.391 241.49C117.155 242.263 117.037 243.117 117.037 244.053C117.037 245.03 117.135 245.905 117.33 246.678C117.525 247.451 117.831 248.106 118.246 248.643C118.661 249.18 119.19 249.591 119.833 249.876C120.484 250.161 121.261 250.303 122.164 250.303C122.319 250.303 122.486 250.295 122.665 250.279C122.844 250.263 123.023 250.242 123.202 250.218C123.381 250.185 123.552 250.149 123.714 250.108C123.885 250.067 124.036 250.022 124.166 249.974V244.896H120.907V243.101H126.314V251.255C125.981 251.41 125.627 251.548 125.252 251.67C124.886 251.792 124.508 251.894 124.117 251.976C123.735 252.057 123.352 252.118 122.97 252.159C122.587 252.199 122.217 252.22 121.859 252.22C120.768 252.22 119.784 252.049 118.905 251.707C118.034 251.365 117.289 250.861 116.671 250.193C116.061 249.518 115.589 248.68 115.255 247.679C114.929 246.678 114.767 245.518 114.767 244.2C114.767 242.889 114.95 241.718 115.316 240.684C115.682 239.642 116.195 238.764 116.854 238.047C117.521 237.323 118.319 236.774 119.247 236.399C120.182 236.017 121.212 235.826 122.335 235.826C123.051 235.826 123.731 235.891 124.374 236.021C125.025 236.143 125.647 236.342 126.241 236.619V238.78ZM140.401 237.901H135.677V252H133.48V237.901H128.756V236.045H140.401V237.901ZM153.731 238.78C153.137 238.462 152.527 238.218 151.9 238.047C151.274 237.868 150.59 237.779 149.85 237.779C149.003 237.779 148.25 237.929 147.591 238.23C146.932 238.532 146.375 238.959 145.919 239.512C145.471 240.057 145.125 240.717 144.881 241.49C144.645 242.263 144.527 243.117 144.527 244.053C144.527 245.03 144.625 245.905 144.82 246.678C145.016 247.451 145.321 248.106 145.736 248.643C146.151 249.18 146.68 249.591 147.323 249.876C147.974 250.161 148.751 250.303 149.654 250.303C149.809 250.303 149.976 250.295 150.155 250.279C150.334 250.263 150.513 250.242 150.692 250.218C150.871 250.185 151.042 250.149 151.205 250.108C151.375 250.067 151.526 250.022 151.656 249.974V244.896H148.397V243.101H153.805V251.255C153.471 251.41 153.117 251.548 152.743 251.67C152.376 251.792 151.998 251.894 151.607 251.976C151.225 252.057 150.842 252.118 150.46 252.159C150.077 252.199 149.707 252.22 149.349 252.22C148.259 252.22 147.274 252.049 146.395 251.707C145.524 251.365 144.78 250.861 144.161 250.193C143.551 249.518 143.079 248.68 142.745 247.679C142.42 246.678 142.257 245.518 142.257 244.2C142.257 242.889 142.44 241.718 142.806 240.684C143.172 239.642 143.685 238.764 144.344 238.047C145.012 237.323 145.809 236.774 146.737 236.399C147.673 236.017 148.702 235.826 149.825 235.826C150.541 235.826 151.221 235.891 151.864 236.021C152.515 236.143 153.137 236.342 153.731 236.619V238.78ZM167.342 251.402C166.065 251.931 164.726 252.195 163.326 252.195C161.072 252.195 159.339 251.524 158.126 250.181C156.922 248.83 156.319 246.836 156.319 244.2C156.319 242.922 156.486 241.766 156.82 240.733C157.153 239.699 157.63 238.825 158.248 238.108C158.867 237.384 159.615 236.827 160.494 236.436C161.373 236.045 162.358 235.85 163.448 235.85C164.189 235.85 164.876 235.915 165.511 236.045C166.146 236.167 166.756 236.359 167.342 236.619V238.755C166.764 238.438 166.166 238.198 165.548 238.035C164.929 237.864 164.254 237.779 163.521 237.779C162.773 237.779 162.093 237.921 161.483 238.206C160.881 238.483 160.368 238.89 159.945 239.427C159.522 239.956 159.196 240.607 158.968 241.38C158.74 242.145 158.626 243.02 158.626 244.004C158.626 246.071 159.046 247.63 159.884 248.68C160.722 249.729 161.951 250.254 163.57 250.254C164.254 250.254 164.909 250.177 165.536 250.022C166.162 249.86 166.764 249.636 167.342 249.351V251.402ZM181.637 237.901H176.913V252H174.715V237.901H169.991V236.045H181.637V237.901ZM195.382 237.901H190.658V252H188.46V237.901H183.736V236.045H195.382V237.901Z" fill="#C9D1D9"/>
<path d="M56.5889 260.039C56.5889 260.674 56.5254 261.253 56.3984 261.778C56.2715 262.299 56.0789 262.747 55.8208 263.124C55.5627 263.496 55.241 263.786 54.856 263.993C54.4751 264.197 54.0265 264.298 53.5103 264.298C53.0659 264.298 52.6618 264.216 52.2979 264.051C51.9339 263.881 51.6229 263.623 51.3647 263.276C51.1066 262.929 50.9077 262.487 50.7681 261.95C50.6284 261.412 50.5586 260.775 50.5586 260.039C50.5586 259.404 50.6221 258.824 50.749 258.3C50.8802 257.775 51.0728 257.326 51.3267 256.954C51.5848 256.577 51.9064 256.287 52.2915 256.084C52.6766 255.877 53.1252 255.773 53.6372 255.773C54.0815 255.773 54.4857 255.858 54.8496 256.027C55.2135 256.192 55.5246 256.45 55.7827 256.802C56.0409 257.149 56.2397 257.591 56.3794 258.128C56.519 258.666 56.5889 259.303 56.5889 260.039ZM55.4717 260.077C55.4717 259.933 55.4653 259.791 55.4526 259.652C55.4442 259.508 55.4336 259.368 55.4209 259.233L51.9106 261.842C51.9741 262.062 52.0545 262.265 52.1519 262.451C52.2492 262.637 52.3656 262.798 52.501 262.933C52.6406 263.065 52.7972 263.168 52.9707 263.244C53.1484 263.316 53.3494 263.352 53.5737 263.352C53.8615 263.352 54.1217 263.283 54.3545 263.143C54.5915 263.003 54.7925 262.796 54.9575 262.521C55.1226 262.246 55.2495 261.905 55.3384 261.499C55.4272 261.088 55.4717 260.614 55.4717 260.077ZM51.6758 260.001C51.6758 260.132 51.6758 260.263 51.6758 260.394C51.68 260.526 51.6885 260.652 51.7012 260.775L55.2114 258.179C55.1479 257.963 55.0675 257.766 54.9702 257.589C54.8729 257.411 54.7565 257.259 54.6211 257.132C54.4857 257 54.3312 256.899 54.1577 256.827C53.9842 256.755 53.7896 256.719 53.5737 256.719C53.286 256.719 53.0236 256.789 52.7866 256.929C52.5539 257.068 52.355 257.278 52.1899 257.557C52.0249 257.832 51.8979 258.175 51.8091 258.585C51.7202 258.992 51.6758 259.463 51.6758 260.001Z" fill="#C9D1D9"/>
<path d="M70.3286 264.184H65.1172V263.156H67.25V257.1L65.2632 258.179L64.8569 257.24L67.4976 255.849H68.4751V263.156H70.3286V264.184Z" fill="#F40F0F"/>
<path d="M82.3984 264.184H76.9331V263.194L79.0786 261.061C79.4299 260.714 79.7155 260.413 79.9355 260.159C80.1556 259.906 80.327 259.675 80.4497 259.468C80.5724 259.256 80.6549 259.057 80.6973 258.871C80.7396 258.685 80.7607 258.484 80.7607 258.268C80.7607 258.065 80.7332 257.872 80.6782 257.69C80.6232 257.504 80.5386 257.341 80.4243 257.201C80.3101 257.062 80.1619 256.952 79.98 256.871C79.798 256.791 79.5801 256.751 79.3262 256.751C78.9749 256.751 78.6554 256.829 78.3677 256.986C78.0799 257.142 77.8154 257.345 77.5742 257.595L76.9648 256.865C77.278 256.535 77.6377 256.27 78.0439 256.072C78.4544 255.873 78.9305 255.773 79.4722 255.773C79.8403 255.773 80.1746 255.828 80.4751 255.938C80.7798 256.048 81.0422 256.207 81.2622 256.414C81.4823 256.622 81.6515 256.876 81.77 257.176C81.8927 257.477 81.9541 257.815 81.9541 258.192C81.9541 258.509 81.9118 258.803 81.8271 259.074C81.7425 259.345 81.6134 259.616 81.4399 259.887C81.2707 260.153 81.0549 260.43 80.7925 260.718C80.5343 261.006 80.2275 261.321 79.8721 261.664L78.3677 263.13H82.3984V264.184Z" fill="#C9D1D9"/>
<path d="M96.2397 261.664C96.2397 262.028 96.1657 262.371 96.0176 262.692C95.8695 263.01 95.6473 263.289 95.3511 263.53C95.0549 263.767 94.6825 263.955 94.2339 264.095C93.7853 264.23 93.2627 264.298 92.666 264.298C92.3359 264.298 92.0397 264.288 91.7773 264.266C91.515 264.245 91.2695 264.218 91.041 264.184V263.194C91.3034 263.24 91.5806 263.276 91.8726 263.302C92.1646 263.327 92.4629 263.34 92.7676 263.34C93.1823 263.34 93.5356 263.304 93.8276 263.232C94.1239 263.156 94.3651 263.048 94.5513 262.908C94.7375 262.768 94.8729 262.599 94.9575 262.4C95.0422 262.201 95.0845 261.977 95.0845 261.727C95.0845 261.499 95.0337 261.3 94.9321 261.131C94.8306 260.961 94.6867 260.82 94.5005 260.705C94.3185 260.591 94.0985 260.506 93.8403 260.451C93.5864 260.392 93.3071 260.363 93.0024 260.363H92.0566V259.455H93.0151C93.2648 259.455 93.4912 259.423 93.6943 259.36C93.9017 259.292 94.0773 259.197 94.2212 259.074C94.3693 258.951 94.4814 258.801 94.5576 258.623C94.638 258.441 94.6782 258.236 94.6782 258.008C94.6782 257.563 94.5428 257.24 94.272 257.036C94.0011 256.833 93.6034 256.732 93.0786 256.732C92.7993 256.732 92.5116 256.759 92.2153 256.814C91.9191 256.869 91.6017 256.952 91.2632 257.062V256.097C91.4071 256.046 91.5594 256.002 91.7202 255.964C91.8853 255.921 92.0482 255.888 92.209 255.862C92.374 255.832 92.5369 255.811 92.6978 255.799C92.8586 255.782 93.013 255.773 93.1611 255.773C93.6012 255.773 93.9884 255.822 94.3228 255.919C94.6571 256.012 94.9364 256.148 95.1606 256.326C95.3849 256.503 95.5542 256.719 95.6685 256.973C95.7827 257.227 95.8398 257.513 95.8398 257.83C95.8398 258.304 95.7171 258.702 95.4717 259.023C95.2305 259.345 94.8983 259.601 94.4751 259.791C94.6909 259.825 94.9025 259.893 95.1099 259.994C95.3215 260.096 95.5098 260.227 95.6748 260.388C95.8441 260.545 95.9795 260.731 96.0811 260.947C96.1868 261.162 96.2397 261.402 96.2397 261.664Z" fill="#C9D1D9"/>
<path d="M110.811 262.349H109.396V264.184H108.266V262.349H104.273V261.378L107.809 255.888H109.396V261.378H110.811V262.349ZM108.266 256.954L105.377 261.378H108.266V256.954Z" fill="#C9D1D9"/>
<path d="M124.189 261.531C124.189 261.941 124.1 262.316 123.922 262.654C123.745 262.993 123.499 263.285 123.186 263.53C122.877 263.771 122.511 263.96 122.088 264.095C121.665 264.23 121.208 264.298 120.717 264.298C120.594 264.298 120.461 264.294 120.317 264.285C120.177 264.281 120.038 264.273 119.898 264.26C119.758 264.252 119.621 264.241 119.485 264.228C119.354 264.216 119.236 264.201 119.13 264.184V263.181C119.358 263.236 119.619 263.276 119.911 263.302C120.207 263.327 120.505 263.34 120.806 263.34C121.144 263.34 121.449 263.299 121.72 263.219C121.991 263.139 122.221 263.024 122.412 262.876C122.602 262.724 122.748 262.542 122.85 262.33C122.951 262.115 123.002 261.873 123.002 261.607C123.002 261.09 122.816 260.716 122.443 260.483C122.075 260.246 121.544 260.128 120.85 260.128H119.276V255.888H123.745V256.852H120.317V259.182H121.041C121.438 259.182 121.826 259.218 122.202 259.29C122.579 259.362 122.913 259.489 123.205 259.671C123.501 259.848 123.738 260.09 123.916 260.394C124.098 260.695 124.189 261.074 124.189 261.531Z" fill="#C9D1D9"/>
<path d="M138 261.556C138 261.937 137.93 262.294 137.791 262.629C137.655 262.963 137.46 263.255 137.207 263.505C136.953 263.75 136.646 263.945 136.286 264.089C135.931 264.228 135.535 264.298 135.099 264.298C134.642 264.298 134.238 264.226 133.887 264.082C133.535 263.934 133.241 263.71 133.004 263.409C132.767 263.105 132.588 262.722 132.465 262.261C132.342 261.799 132.281 261.253 132.281 260.623C132.281 260.2 132.308 259.789 132.363 259.391C132.418 258.994 132.509 258.619 132.636 258.268C132.763 257.917 132.932 257.595 133.144 257.303C133.356 257.011 133.618 256.761 133.931 256.554C134.249 256.342 134.621 256.18 135.048 256.065C135.476 255.947 135.971 255.888 136.534 255.888H137.353V256.852H136.464C135.969 256.852 135.539 256.912 135.175 257.03C134.811 257.149 134.507 257.316 134.261 257.532C134.016 257.747 133.827 258.008 133.696 258.312C133.565 258.617 133.483 258.958 133.449 259.334L133.423 259.595C133.69 259.438 133.997 259.313 134.344 259.22C134.695 259.123 135.074 259.074 135.48 259.074C135.899 259.074 136.265 259.135 136.578 259.258C136.896 259.381 137.158 259.552 137.365 259.772C137.577 259.988 137.736 260.248 137.841 260.553C137.947 260.858 138 261.192 138 261.556ZM136.845 261.626C136.845 261.372 136.813 261.143 136.75 260.94C136.69 260.733 136.595 260.559 136.464 260.42C136.333 260.276 136.166 260.166 135.962 260.09C135.764 260.009 135.524 259.969 135.245 259.969C135.084 259.969 134.921 259.984 134.756 260.013C134.591 260.043 134.428 260.085 134.268 260.14C134.111 260.191 133.961 260.25 133.817 260.318C133.673 260.386 133.542 260.458 133.423 260.534C133.423 261.08 133.461 261.537 133.538 261.905C133.614 262.269 133.726 262.561 133.874 262.781C134.026 263.001 134.213 263.158 134.433 263.251C134.653 263.344 134.907 263.39 135.194 263.39C135.436 263.39 135.656 263.352 135.854 263.276C136.058 263.196 136.231 263.079 136.375 262.927C136.523 262.775 136.637 262.591 136.718 262.375C136.802 262.155 136.845 261.905 136.845 261.626Z" fill="#C9D1D9"/>
<path d="M152.354 256.916L148.875 264.184H147.612L151.224 256.916H146.743V255.888H152.354V256.916Z" fill="#C9D1D9"/>
<path d="M166.398 262.102C166.398 262.453 166.326 262.766 166.183 263.041C166.039 263.312 165.838 263.541 165.58 263.727C165.321 263.913 165.017 264.055 164.666 264.152C164.314 264.249 163.933 264.298 163.523 264.298C163.07 264.298 162.67 264.247 162.323 264.146C161.98 264.044 161.693 263.902 161.46 263.721C161.227 263.539 161.052 263.323 160.933 263.073C160.815 262.823 160.755 262.548 160.755 262.248C160.755 261.74 160.897 261.302 161.181 260.934C161.464 260.566 161.902 260.231 162.495 259.931C161.953 259.656 161.557 259.351 161.308 259.017C161.058 258.678 160.933 258.291 160.933 257.855C160.933 257.589 160.988 257.331 161.098 257.081C161.208 256.831 161.373 256.609 161.593 256.414C161.818 256.22 162.097 256.065 162.431 255.951C162.765 255.832 163.159 255.773 163.612 255.773C164.039 255.773 164.414 255.82 164.735 255.913C165.061 256.002 165.334 256.131 165.554 256.3C165.774 256.469 165.939 256.675 166.049 256.916C166.159 257.157 166.214 257.426 166.214 257.722C166.214 258.204 166.079 258.615 165.808 258.953C165.542 259.292 165.161 259.588 164.666 259.842C164.911 259.965 165.139 260.1 165.351 260.248C165.563 260.396 165.747 260.562 165.903 260.743C166.06 260.925 166.181 261.129 166.265 261.353C166.354 261.577 166.398 261.827 166.398 262.102ZM165.084 257.811C165.084 257.434 164.951 257.155 164.685 256.973C164.422 256.787 164.052 256.694 163.574 256.694C163.1 256.694 162.729 256.785 162.463 256.967C162.201 257.149 162.069 257.422 162.069 257.785C162.069 257.951 162.101 258.103 162.165 258.242C162.228 258.382 162.325 258.513 162.457 258.636C162.592 258.759 162.759 258.879 162.958 258.998C163.157 259.116 163.394 259.237 163.669 259.36C164.147 259.135 164.503 258.903 164.735 258.661C164.968 258.416 165.084 258.132 165.084 257.811ZM165.199 262.184C165.199 262.028 165.173 261.875 165.123 261.727C165.072 261.579 164.981 261.433 164.85 261.289C164.718 261.145 164.543 261.002 164.323 260.858C164.103 260.714 163.823 260.566 163.485 260.413C163.197 260.553 162.954 260.693 162.755 260.832C162.56 260.968 162.402 261.107 162.279 261.251C162.16 261.391 162.076 261.537 162.025 261.689C161.974 261.842 161.949 262.002 161.949 262.172C161.949 262.362 161.989 262.531 162.069 262.68C162.154 262.823 162.268 262.946 162.412 263.048C162.556 263.149 162.727 263.225 162.926 263.276C163.125 263.327 163.341 263.352 163.574 263.352C163.798 263.352 164.01 263.329 164.208 263.283C164.407 263.236 164.579 263.166 164.723 263.073C164.871 262.976 164.987 262.855 165.072 262.711C165.156 262.563 165.199 262.388 165.199 262.184Z" fill="#C9D1D9"/>
<path d="M178.354 259.569C178.354 260.377 178.257 261.074 178.062 261.658C177.867 262.237 177.58 262.715 177.199 263.092C176.818 263.464 176.346 263.74 175.783 263.917C175.22 264.095 174.571 264.184 173.834 264.184H173.143V263.219H173.911C174.457 263.219 174.928 263.164 175.326 263.054C175.724 262.944 176.054 262.783 176.316 262.572C176.583 262.356 176.786 262.096 176.926 261.791C177.065 261.482 177.152 261.131 177.186 260.737L177.211 260.477C176.945 260.633 176.638 260.76 176.291 260.858C175.944 260.951 175.567 260.997 175.161 260.997C174.742 260.997 174.374 260.936 174.057 260.813C173.739 260.691 173.475 260.519 173.263 260.299C173.056 260.079 172.899 259.819 172.793 259.518C172.688 259.214 172.635 258.884 172.635 258.528C172.635 258.143 172.705 257.783 172.844 257.449C172.984 257.115 173.179 256.825 173.428 256.579C173.682 256.33 173.985 256.133 174.336 255.989C174.687 255.845 175.074 255.773 175.498 255.773C175.908 255.773 176.287 255.841 176.634 255.976C176.985 256.112 177.288 256.332 177.542 256.637C177.795 256.937 177.994 257.328 178.138 257.811C178.282 258.293 178.354 258.879 178.354 259.569ZM175.447 256.681C175.21 256.681 174.99 256.721 174.787 256.802C174.588 256.878 174.414 256.992 174.266 257.144C174.122 257.292 174.008 257.477 173.923 257.697C173.839 257.917 173.796 258.168 173.796 258.452C173.796 258.71 173.826 258.941 173.885 259.144C173.949 259.347 174.044 259.52 174.171 259.664C174.302 259.804 174.469 259.912 174.672 259.988C174.875 260.064 175.117 260.102 175.396 260.102C175.553 260.102 175.713 260.088 175.878 260.058C176.048 260.028 176.211 259.988 176.367 259.937C176.528 259.887 176.68 259.827 176.824 259.76C176.968 259.692 177.097 259.62 177.211 259.544C177.211 258.998 177.171 258.543 177.091 258.179C177.01 257.811 176.894 257.517 176.742 257.297C176.589 257.072 176.403 256.914 176.183 256.821C175.967 256.728 175.722 256.681 175.447 256.681Z" fill="#C9D1D9"/>
<path d="M188.329 264.184H183.117V263.156H185.25V257.1L183.263 258.179L182.857 257.24L185.498 255.849H186.475V263.156H188.329V264.184ZM195.736 260.039C195.736 260.674 195.673 261.253 195.546 261.778C195.419 262.299 195.226 262.747 194.968 263.124C194.71 263.496 194.389 263.786 194.003 263.993C193.623 264.197 193.174 264.298 192.658 264.298C192.213 264.298 191.809 264.216 191.445 264.051C191.081 263.881 190.77 263.623 190.512 263.276C190.254 262.929 190.055 262.487 189.916 261.95C189.776 261.412 189.706 260.775 189.706 260.039C189.706 259.404 189.77 258.824 189.896 258.3C190.028 257.775 190.22 257.326 190.474 256.954C190.732 256.577 191.054 256.287 191.439 256.084C191.824 255.877 192.273 255.773 192.785 255.773C193.229 255.773 193.633 255.858 193.997 256.027C194.361 256.192 194.672 256.45 194.93 256.802C195.188 257.149 195.387 257.591 195.527 258.128C195.667 258.666 195.736 259.303 195.736 260.039ZM194.619 260.077C194.619 259.933 194.613 259.791 194.6 259.652C194.592 259.508 194.581 259.368 194.568 259.233L191.058 261.842C191.122 262.062 191.202 262.265 191.299 262.451C191.397 262.637 191.513 262.798 191.648 262.933C191.788 263.065 191.945 263.168 192.118 263.244C192.296 263.316 192.497 263.352 192.721 263.352C193.009 263.352 193.269 263.283 193.502 263.143C193.739 263.003 193.94 262.796 194.105 262.521C194.27 262.246 194.397 261.905 194.486 261.499C194.575 261.088 194.619 260.614 194.619 260.077ZM190.823 260.001C190.823 260.132 190.823 260.263 190.823 260.394C190.827 260.526 190.836 260.652 190.849 260.775L194.359 258.179C194.295 257.963 194.215 257.766 194.118 257.589C194.02 257.411 193.904 257.259 193.769 257.132C193.633 257 193.479 256.899 193.305 256.827C193.132 256.755 192.937 256.719 192.721 256.719C192.433 256.719 192.171 256.789 191.934 256.929C191.701 257.068 191.502 257.278 191.337 257.557C191.172 257.832 191.045 258.175 190.957 258.585C190.868 258.992 190.823 259.463 190.823 260.001Z" fill="#C9D1D9"/>
<line x1="59.5" y1="255.184" x2="59.5" y2="270.184" stroke="#F40F0F"/>
<line x1="129.5" y1="255.184" x2="129.5" y2="270.184" stroke="#F40F0F"/>
<line x1="59" y1="269.684" x2="129" y2="269.684" stroke="#F40F0F"/>
<path d="M36.7168 67.5215C35.6946 67.9447 34.6237 68.1562 33.5039 68.1562C31.7005 68.1562 30.3138 67.6191 29.3437 66.5449C28.3802 65.4642 27.8984 63.8691 27.8984 61.7598C27.8984 60.7376 28.0319 59.8132 28.2988 58.9863C28.5657 58.1595 28.9466 57.4596 29.4414 56.8867C29.9362 56.3073 30.5351 55.8613 31.2383 55.5488C31.9414 55.2363 32.7291 55.0801 33.6015 55.0801C34.194 55.0801 34.7441 55.1322 35.2519 55.2363C35.7597 55.334 36.248 55.487 36.7168 55.6953V57.4043C36.2545 57.1504 35.776 56.9583 35.2812 56.8281C34.7864 56.6914 34.2461 56.623 33.6601 56.623C33.0612 56.623 32.5175 56.737 32.0293 56.9648C31.5475 57.1862 31.1373 57.5117 30.7988 57.9414C30.4603 58.3646 30.1998 58.8854 30.0175 59.5039C29.8353 60.1159 29.7441 60.8158 29.7441 61.6035C29.7441 63.2572 30.0794 64.5039 30.75 65.3438C31.4205 66.1836 32.4036 66.6035 33.6992 66.6035C34.2461 66.6035 34.7702 66.5417 35.2715 66.418C35.7728 66.2878 36.2545 66.1087 36.7168 65.8809V67.5215ZM47.8203 57.4238C47.345 57.1699 46.8567 56.9746 46.3554 56.8379C45.8541 56.6947 45.3073 56.623 44.7148 56.623C44.0377 56.623 43.4355 56.7435 42.9082 56.9844C42.3808 57.2253 41.9349 57.5671 41.5703 58.0098C41.2122 58.446 40.9355 58.9733 40.7402 59.5918C40.5514 60.2103 40.457 60.8939 40.457 61.6426C40.457 62.4238 40.5351 63.1237 40.6914 63.7422C40.8476 64.3607 41.0918 64.8848 41.4238 65.3145C41.7558 65.7441 42.179 66.0729 42.6933 66.3008C43.2142 66.5286 43.8359 66.6426 44.5586 66.6426C44.6823 66.6426 44.8157 66.6361 44.959 66.623C45.1022 66.61 45.2454 66.5938 45.3886 66.5742C45.5319 66.5482 45.6686 66.5189 45.7988 66.4863C45.9355 66.4538 46.056 66.418 46.1601 66.3789V62.3164H43.5527V60.8809H47.8789V67.4043C47.6119 67.528 47.3287 67.6387 47.0293 67.7363C46.7363 67.834 46.4336 67.9154 46.1211 67.9805C45.8151 68.0456 45.5091 68.0944 45.2031 68.127C44.8971 68.1595 44.6009 68.1758 44.3144 68.1758C43.442 68.1758 42.6543 68.0391 41.9511 67.7656C41.2545 67.4922 40.6588 67.0885 40.164 66.5547C39.6758 66.0143 39.2981 65.3438 39.0312 64.543C38.7708 63.7422 38.6406 62.8145 38.6406 61.7598C38.6406 60.7116 38.7871 59.7741 39.08 58.9473C39.373 58.1139 39.7832 57.4108 40.3105 56.8379C40.8444 56.2585 41.4824 55.819 42.2246 55.5195C42.9733 55.2135 43.7968 55.0605 44.6953 55.0605C45.2682 55.0605 45.8118 55.1126 46.3261 55.2168C46.847 55.3145 47.345 55.474 47.8203 55.6953V57.4238ZM59.1484 56.7207H55.3691V68H53.6113V56.7207H49.832V55.2363H59.1484V56.7207ZM69.8125 57.4238C69.3372 57.1699 68.8489 56.9746 68.3476 56.8379C67.8463 56.6947 67.2994 56.623 66.707 56.623C66.0299 56.623 65.4277 56.7435 64.9004 56.9844C64.373 57.2253 63.9271 57.5671 63.5625 58.0098C63.2044 58.446 62.9277 58.9733 62.7324 59.5918C62.5436 60.2103 62.4492 60.8939 62.4492 61.6426C62.4492 62.4238 62.5273 63.1237 62.6836 63.7422C62.8398 64.3607 63.084 64.8848 63.416 65.3145C63.748 65.7441 64.1712 66.0729 64.6855 66.3008C65.2063 66.5286 65.8281 66.6426 66.5508 66.6426C66.6744 66.6426 66.8079 66.6361 66.9511 66.623C67.0944 66.61 67.2376 66.5938 67.3808 66.5742C67.5241 66.5482 67.6608 66.5189 67.791 66.4863C67.9277 66.4538 68.0481 66.418 68.1523 66.3789V62.3164H65.5449V60.8809H69.8711V67.4043C69.6041 67.528 69.3209 67.6387 69.0215 67.7363C68.7285 67.834 68.4258 67.9154 68.1133 67.9805C67.8073 68.0456 67.5013 68.0944 67.1953 68.127C66.8893 68.1595 66.5931 68.1758 66.3066 68.1758C65.4342 68.1758 64.6465 68.0391 63.9433 67.7656C63.2467 67.4922 62.651 67.0885 62.1562 66.5547C61.6679 66.0143 61.2903 65.3438 61.0234 64.543C60.763 63.7422 60.6328 62.8145 60.6328 61.7598C60.6328 60.7116 60.7793 59.7741 61.0722 58.9473C61.3652 58.1139 61.7754 57.4108 62.3027 56.8379C62.8366 56.2585 63.4746 55.819 64.2168 55.5195C64.9655 55.2135 65.789 55.0605 66.6875 55.0605C67.2604 55.0605 67.804 55.1126 68.3183 55.2168C68.8392 55.3145 69.3372 55.474 69.8125 55.6953V57.4238ZM80.7011 67.5215C79.679 67.9447 78.608 68.1562 77.4883 68.1562C75.6849 68.1562 74.2981 67.6191 73.3281 66.5449C72.3646 65.4642 71.8828 63.8691 71.8828 61.7598C71.8828 60.7376 72.0162 59.8132 72.2832 58.9863C72.5501 58.1595 72.931 57.4596 73.4258 56.8867C73.9205 56.3073 74.5195 55.8613 75.2226 55.5488C75.9258 55.2363 76.7135 55.0801 77.5859 55.0801C78.1784 55.0801 78.7285 55.1322 79.2363 55.2363C79.7441 55.334 80.2324 55.487 80.7011 55.6953V57.4043C80.2389 57.1504 79.7604 56.9583 79.2656 56.8281C78.7708 56.6914 78.2304 56.623 77.6445 56.623C77.0455 56.623 76.5019 56.737 76.0136 56.9648C75.5319 57.1862 75.1217 57.5117 74.7832 57.9414C74.4446 58.3646 74.1842 58.8854 74.0019 59.5039C73.8196 60.1159 73.7285 60.8158 73.7285 61.6035C73.7285 63.2572 74.0638 64.5039 74.7343 65.3438C75.4049 66.1836 76.388 66.6035 77.6836 66.6035C78.2304 66.6035 78.7545 66.5417 79.2558 66.418C79.7571 66.2878 80.2389 66.1087 80.7011 65.8809V67.5215ZM87.4785 58.0195C87.6803 58.0195 87.8724 58.0618 88.0547 58.1465C88.2369 58.2246 88.3965 58.332 88.5332 58.4688C88.6699 58.6055 88.7773 58.765 88.8554 58.9473C88.9401 59.1296 88.9824 59.3216 88.9824 59.5234C88.9824 59.7318 88.9401 59.9271 88.8554 60.1094C88.7773 60.2852 88.6699 60.4414 88.5332 60.5781C88.3965 60.7148 88.2369 60.8223 88.0547 60.9004C87.8724 60.9785 87.6803 61.0176 87.4785 61.0176C87.2702 61.0176 87.0748 60.9785 86.8925 60.9004C86.7168 60.8223 86.5605 60.7148 86.4238 60.5781C86.2871 60.4414 86.1797 60.2852 86.1015 60.1094C86.0234 59.9271 85.9843 59.7318 85.9843 59.5234C85.9843 59.3216 86.0234 59.1296 86.1015 58.9473C86.1797 58.765 86.2871 58.6055 86.4238 58.4688C86.5605 58.332 86.7168 58.2246 86.8925 58.1465C87.0748 58.0618 87.2702 58.0195 87.4785 58.0195ZM87.4785 65.1777C87.6803 65.1777 87.8724 65.2201 88.0547 65.3047C88.2369 65.3828 88.3965 65.4902 88.5332 65.627C88.6699 65.7637 88.7773 65.9232 88.8554 66.1055C88.9401 66.2878 88.9824 66.4798 88.9824 66.6816C88.9824 66.89 88.9401 67.0853 88.8554 67.2676C88.7773 67.4434 88.6699 67.5996 88.5332 67.7363C88.3965 67.873 88.2369 67.9805 88.0547 68.0586C87.8724 68.1367 87.6803 68.1758 87.4785 68.1758C87.2702 68.1758 87.0748 68.1367 86.8925 68.0586C86.7168 67.9805 86.5605 67.873 86.4238 67.7363C86.2871 67.5996 86.1797 67.4434 86.1015 67.2676C86.0234 67.0853 85.9843 66.89 85.9843 66.6816C85.9843 66.4798 86.0234 66.2878 86.1015 66.1055C86.1797 65.9232 86.2871 65.7637 86.4238 65.627C86.5605 65.4902 86.7168 65.3828 86.8925 65.3047C87.0748 65.2201 87.2702 65.1777 87.4785 65.1777ZM114.109 61.623C114.109 62.5996 114.012 63.4915 113.816 64.2988C113.621 65.0996 113.325 65.7897 112.928 66.3691C112.531 66.9421 112.036 67.388 111.443 67.707C110.857 68.0195 110.167 68.1758 109.373 68.1758C108.689 68.1758 108.068 68.0488 107.508 67.7949C106.948 67.5345 106.469 67.1374 106.072 66.6035C105.675 66.0697 105.369 65.3893 105.154 64.5625C104.939 63.7357 104.832 62.7559 104.832 61.623C104.832 60.6465 104.93 59.7546 105.125 58.9473C105.327 58.14 105.623 57.4499 106.014 56.877C106.411 56.2975 106.906 55.8516 107.498 55.5391C108.09 55.2201 108.781 55.0605 109.568 55.0605C110.252 55.0605 110.874 55.1908 111.434 55.4512C111.993 55.7051 112.472 56.1022 112.869 56.6426C113.266 57.1764 113.572 57.8568 113.787 58.6836C114.002 59.5104 114.109 60.4902 114.109 61.623ZM112.391 61.6816C112.391 61.4603 112.381 61.2422 112.361 61.0273C112.348 60.806 112.332 60.5911 112.312 60.3828L106.912 64.3965C107.01 64.735 107.133 65.0475 107.283 65.334C107.433 65.6204 107.612 65.8678 107.82 66.0762C108.035 66.278 108.276 66.4375 108.543 66.5547C108.816 66.6654 109.126 66.7207 109.471 66.7207C109.913 66.7207 110.314 66.6133 110.672 66.3984C111.036 66.1836 111.346 65.8646 111.6 65.4414C111.853 65.0182 112.049 64.4941 112.186 63.8691C112.322 63.2376 112.391 62.5085 112.391 61.6816ZM106.551 61.5645C106.551 61.7663 106.551 61.9681 106.551 62.1699C106.557 62.3717 106.57 62.5671 106.59 62.7559L111.99 58.7617C111.893 58.4297 111.769 58.127 111.619 57.8535C111.469 57.5801 111.29 57.3457 111.082 57.1504C110.874 56.9486 110.636 56.7923 110.369 56.6816C110.102 56.571 109.803 56.5156 109.471 56.5156C109.028 56.5156 108.624 56.623 108.26 56.8379C107.902 57.0527 107.596 57.375 107.342 57.8047C107.088 58.2279 106.893 58.7552 106.756 59.3867C106.619 60.0117 106.551 60.7376 106.551 61.5645ZM36.8242 80.4238C36.3489 80.1699 35.8606 79.9746 35.3593 79.8379C34.858 79.6947 34.3112 79.623 33.7187 79.623C33.0416 79.623 32.4394 79.7435 31.9121 79.9844C31.3847 80.2253 30.9388 80.5671 30.5742 81.0098C30.2161 81.446 29.9394 81.9733 29.7441 82.5918C29.5553 83.2103 29.4609 83.8939 29.4609 84.6426C29.4609 85.4238 29.539 86.1237 29.6953 86.7422C29.8515 87.3607 30.0957 87.8848 30.4277 88.3145C30.7597 88.7441 31.1829 89.0729 31.6972 89.3008C32.2181 89.5286 32.8398 89.6426 33.5625 89.6426C33.6862 89.6426 33.8196 89.6361 33.9629 89.623C34.1061 89.61 34.2493 89.5938 34.3925 89.5742C34.5358 89.5482 34.6725 89.5189 34.8027 89.4863C34.9394 89.4538 35.0599 89.418 35.164 89.3789V85.3164H32.5566V83.8809H36.8828V90.4043C36.6159 90.528 36.3327 90.6387 36.0332 90.7363C35.7402 90.834 35.4375 90.9154 35.125 90.9805C34.819 91.0456 34.513 91.0944 34.207 91.127C33.901 91.1595 33.6048 91.1758 33.3183 91.1758C32.4459 91.1758 31.6582 91.0391 30.955 90.7656C30.2584 90.4922 29.6627 90.0885 29.1679 89.5547C28.6797 89.0143 28.3021 88.3438 28.0351 87.543C27.7747 86.7422 27.6445 85.8145 27.6445 84.7598C27.6445 83.7116 27.791 82.7741 28.084 81.9473C28.3769 81.1139 28.7871 80.4108 29.3144 79.8379C29.8483 79.2585 30.4863 78.819 31.2285 78.5195C31.9772 78.2135 32.8008 78.0605 33.6992 78.0605C34.2721 78.0605 34.8157 78.1126 35.33 78.2168C35.8509 78.3145 36.3489 78.474 36.8242 78.6953V80.4238ZM48.1523 79.7207H44.373V91H42.6152V79.7207H38.8359V78.2363H48.1523V79.7207ZM58.8164 80.4238C58.3411 80.1699 57.8528 79.9746 57.3515 79.8379C56.8502 79.6947 56.3034 79.623 55.7109 79.623C55.0338 79.623 54.4316 79.7435 53.9043 79.9844C53.3769 80.2253 52.931 80.5671 52.5664 81.0098C52.2083 81.446 51.9316 81.9733 51.7363 82.5918C51.5475 83.2103 51.4531 83.8939 51.4531 84.6426C51.4531 85.4238 51.5312 86.1237 51.6875 86.7422C51.8437 87.3607 52.0879 87.8848 52.4199 88.3145C52.7519 88.7441 53.1751 89.0729 53.6894 89.3008C54.2103 89.5286 54.832 89.6426 55.5547 89.6426C55.6784 89.6426 55.8118 89.6361 55.955 89.623C56.0983 89.61 56.2415 89.5938 56.3847 89.5742C56.528 89.5482 56.6647 89.5189 56.7949 89.4863C56.9316 89.4538 57.0521 89.418 57.1562 89.3789V85.3164H54.5488V83.8809H58.875V90.4043C58.608 90.528 58.3248 90.6387 58.0254 90.7363C57.7324 90.834 57.4297 90.9154 57.1172 90.9805C56.8112 91.0456 56.5052 91.0944 56.1992 91.127C55.8932 91.1595 55.597 91.1758 55.3105 91.1758C54.4381 91.1758 53.6504 91.0391 52.9472 90.7656C52.2506 90.4922 51.6549 90.0885 51.1601 89.5547C50.6718 89.0143 50.2942 88.3438 50.0273 87.543C49.7669 86.7422 49.6367 85.8145 49.6367 84.7598C49.6367 83.7116 49.7832 82.7741 50.0761 81.9473C50.3691 81.1139 50.7793 80.4108 51.3066 79.8379C51.8405 79.2585 52.4785 78.819 53.2207 78.5195C53.9694 78.2135 54.7929 78.0605 55.6914 78.0605C56.2643 78.0605 56.8079 78.1126 57.3222 78.2168C57.8431 78.3145 58.3411 78.474 58.8164 78.6953V80.4238ZM69.705 90.5215C68.6829 90.9447 67.6119 91.1562 66.4922 91.1562C64.6888 91.1562 63.3021 90.6191 62.332 89.5449C61.3685 88.4642 60.8867 86.8691 60.8867 84.7598C60.8867 83.7376 61.0202 82.8132 61.2871 81.9863C61.554 81.1595 61.9349 80.4596 62.4297 79.8867C62.9244 79.3073 63.5234 78.8613 64.2265 78.5488C64.9297 78.2363 65.7174 78.0801 66.5898 78.0801C67.1823 78.0801 67.7324 78.1322 68.2402 78.2363C68.748 78.334 69.2363 78.487 69.705 78.6953V80.4043C69.2428 80.1504 68.7643 79.9583 68.2695 79.8281C67.7747 79.6914 67.2343 79.623 66.6484 79.623C66.0494 79.623 65.5058 79.737 65.0175 79.9648C64.5358 80.1862 64.1256 80.5117 63.7871 80.9414C63.4485 81.3646 63.1881 81.8854 63.0058 82.5039C62.8235 83.1159 62.7324 83.8158 62.7324 84.6035C62.7324 86.2572 63.0677 87.5039 63.7383 88.3438C64.4088 89.1836 65.3919 89.6035 66.6875 89.6035C67.2343 89.6035 67.7584 89.5417 68.2597 89.418C68.761 89.2878 69.2428 89.1087 69.705 88.8809V90.5215ZM80.8086 80.4238C80.3333 80.1699 79.845 79.9746 79.3437 79.8379C78.8424 79.6947 78.2955 79.623 77.7031 79.623C77.026 79.623 76.4238 79.7435 75.8965 79.9844C75.3691 80.2253 74.9231 80.5671 74.5586 81.0098C74.2005 81.446 73.9238 81.9733 73.7285 82.5918C73.5397 83.2103 73.4453 83.8939 73.4453 84.6426C73.4453 85.4238 73.5234 86.1237 73.6797 86.7422C73.8359 87.3607 74.08 87.8848 74.4121 88.3145C74.7441 88.7441 75.1673 89.0729 75.6816 89.3008C76.2024 89.5286 76.8242 89.6426 77.5468 89.6426C77.6705 89.6426 77.804 89.6361 77.9472 89.623C78.0905 89.61 78.2337 89.5938 78.3769 89.5742C78.5202 89.5482 78.6569 89.5189 78.7871 89.4863C78.9238 89.4538 79.0442 89.418 79.1484 89.3789V85.3164H76.541V83.8809H80.8672V90.4043C80.6002 90.528 80.317 90.6387 80.0175 90.7363C79.7246 90.834 79.4218 90.9154 79.1093 90.9805C78.8034 91.0456 78.4974 91.0944 78.1914 91.127C77.8854 91.1595 77.5892 91.1758 77.3027 91.1758C76.4303 91.1758 75.6425 91.0391 74.9394 90.7656C74.2428 90.4922 73.6471 90.0885 73.1523 89.5547C72.664 89.0143 72.2864 88.3438 72.0195 87.543C71.7591 86.7422 71.6289 85.8145 71.6289 84.7598C71.6289 83.7116 71.7754 82.7741 72.0683 81.9473C72.3613 81.1139 72.7715 80.4108 73.2988 79.8379C73.8327 79.2585 74.4707 78.819 75.2129 78.5195C75.9616 78.2135 76.7851 78.0605 77.6836 78.0605C78.2565 78.0605 78.8001 78.1126 79.3144 78.2168C79.8353 78.3145 80.3333 78.474 80.8086 78.6953V80.4238ZM87.4785 81.0195C87.6803 81.0195 87.8724 81.0618 88.0547 81.1465C88.2369 81.2246 88.3965 81.332 88.5332 81.4688C88.6699 81.6055 88.7773 81.765 88.8554 81.9473C88.9401 82.1296 88.9824 82.3216 88.9824 82.5234C88.9824 82.7318 88.9401 82.9271 88.8554 83.1094C88.7773 83.2852 88.6699 83.4414 88.5332 83.5781C88.3965 83.7148 88.2369 83.8223 88.0547 83.9004C87.8724 83.9785 87.6803 84.0176 87.4785 84.0176C87.2702 84.0176 87.0748 83.9785 86.8925 83.9004C86.7168 83.8223 86.5605 83.7148 86.4238 83.5781C86.2871 83.4414 86.1797 83.2852 86.1015 83.1094C86.0234 82.9271 85.9843 82.7318 85.9843 82.5234C85.9843 82.3216 86.0234 82.1296 86.1015 81.9473C86.1797 81.765 86.2871 81.6055 86.4238 81.4688C86.5605 81.332 86.7168 81.2246 86.8925 81.1465C87.0748 81.0618 87.2702 81.0195 87.4785 81.0195ZM87.4785 88.1777C87.6803 88.1777 87.8724 88.2201 88.0547 88.3047C88.2369 88.3828 88.3965 88.4902 88.5332 88.627C88.6699 88.7637 88.7773 88.9232 88.8554 89.1055C88.9401 89.2878 88.9824 89.4798 88.9824 89.6816C88.9824 89.89 88.9401 90.0853 88.8554 90.2676C88.7773 90.4434 88.6699 90.5996 88.5332 90.7363C88.3965 90.873 88.2369 90.9805 88.0547 91.0586C87.8724 91.1367 87.6803 91.1758 87.4785 91.1758C87.2702 91.1758 87.0748 91.1367 86.8925 91.0586C86.7168 90.9805 86.5605 90.873 86.4238 90.7363C86.2871 90.5996 86.1797 90.4434 86.1015 90.2676C86.0234 90.0853 85.9843 89.89 85.9843 89.6816C85.9843 89.4798 86.0234 89.2878 86.1015 89.1055C86.1797 88.9232 86.2871 88.7637 86.4238 88.627C86.5605 88.4902 86.7168 88.3828 86.8925 88.3047C87.0748 88.2201 87.2702 88.1777 87.4785 88.1777Z" fill="#C9D1D9"/>
<path d="M113.709 91H105.691V89.418H108.973V80.1016L105.916 81.7617L105.291 80.3164L109.353 78.1777H110.857V89.418H113.709V91Z" fill="#F40F0F"/>
<defs>
<filter id="filter0_i" x="4" y="0" width="188.391" height="224" filterUnits="userSpaceOnUse" color-interpolation-filters="sRGB">
<feFlood flood-opacity="0" result="BackgroundImageFix"/>
<feBlend mode="normal" in="SourceGraphic" in2="BackgroundImageFix" result="shape"/>
<feColorMatrix in="SourceAlpha" type="matrix" values="0 0 0 0 0 0 0 0 0 0 0 0 0 0 0 0 0 0 127 0" result="hardAlpha"/>
<feOffset dy="4"/>
<feGaussianBlur stdDeviation="2"/>
<feComposite in2="hardAlpha" operator="arithmetic" k2="-1" k3="1"/>
<feColorMatrix type="matrix" values="0 0 0 0 0 0 0 0 0 0 0 0 0 0 0 0 0 0 0.25 0"/>
<feBlend mode="normal" in2="shape" result="effect1_innerShadow"/>
</filter>
<filter id="filter1_d" x="0" y="0" width="196.391" height="228" filterUnits="userSpaceOnUse" color-interpolation-filters="sRGB">
<feFlood flood-opacity="0" result="BackgroundImageFix"/>
<feColorMatrix in="SourceAlpha" type="matrix" values="0 0 0 0 0 0 0 0 0 0 0 0 0 0 0 0 0 0 127 0"/>
<feOffset dy="4"/>
<feGaussianBlur stdDeviation="2"/>
<feColorMatrix type="matrix" values="0 0 0 0 0 0 0 0 0 0 0 0 0 0 0 0 0 0 0.25 0"/>
<feBlend mode="normal" in2="BackgroundImageFix" result="effect1_dropShadow"/>
<feBlend mode="normal" in="SourceGraphic" in2="effect1_dropShadow" result="shape"/>
</filter>
<linearGradient id="paint0_linear" x1="98.1954" y1="0" x2="98.1954" y2="220" gradientUnits="userSpaceOnUse">
<stop/>
<stop offset="1" stop-color="white" stop-opacity="0"/>
</linearGradient>
</defs>
</svg>
