<svg width="438" height="410" viewBox="0 0 438 410" fill="none" xmlns="http://www.w3.org/2000/svg">
<circle cx="15" cy="207" r="14" stroke="#C4A8A8" stroke-width="2"/>
<circle cx="80" cy="207" r="14" stroke="#C4A8A8" stroke-width="2"/>
<circle cx="146" cy="207" r="14" stroke="#FFD700" stroke-width="2"/>
<circle cx="146" cy="137" r="14" stroke="#FFD700" stroke-width="2"/>
<circle cx="146" cy="71" r="14" stroke="#C4A8A8" stroke-width="2"/>
<circle cx="261" cy="71" r="14" stroke="#C4A8A8" stroke-width="2"/>
<circle cx="261" cy="137" r="14" stroke="#C4A8A8" stroke-width="2"/>
<circle cx="207" cy="15" r="14" stroke="#C4A8A8" stroke-width="2"/>
<circle cx="291" cy="207" r="14" stroke="#C4A8A8" stroke-width="2"/>
<circle cx="358" cy="207" r="14" stroke="#C4A8A8" stroke-width="2"/>
<circle cx="423" cy="207" r="14" stroke="#C4A8A8" stroke-width="2"/>
<path d="M35.7285 185.238V196H33.2676V185.238H29.7715V183.236H39.2246V185.238H35.7285ZM48.2969 196L47.5938 193.48H43.1406L42.418 196H40.0352L43.8145 183.236H47.1738L50.9531 196H48.2969ZM45.3965 185.58L43.7168 191.518H47.0566L45.3965 185.58ZM59.293 196L58.5898 193.48H54.1367L53.4141 196H51.0312L54.8105 183.236H58.1699L61.9492 196H59.293ZM56.3926 185.58L54.7129 191.518H58.0527L56.3926 185.58Z" fill="#C9D1D9"/>
<path d="M104.301 196L103.598 193.48H99.1445L98.4219 196H96.0391L99.8184 183.236H103.178L106.957 196H104.301ZM101.4 185.58L99.7207 191.518H103.061L101.4 185.58ZM115.297 196L114.594 193.48H110.141L109.418 196H107.035L110.814 183.236H114.174L117.953 196H115.297ZM112.396 185.58L110.717 191.518H114.057L112.396 185.58ZM124.721 185.238V196H122.26V185.238H118.764V183.236H128.217V185.238H124.721Z" fill="#C9D1D9"/>
<path d="M312.729 185.238V196H310.268V185.238H306.771V183.236H316.225V185.238H312.729ZM322.553 190.6V188.617H327.094V195.424C326.508 195.697 325.896 195.899 325.258 196.029C324.62 196.16 323.926 196.225 323.178 196.225C322.292 196.225 321.495 196.088 320.785 195.814C320.082 195.541 319.483 195.134 318.988 194.594C318.493 194.053 318.113 193.383 317.846 192.582C317.585 191.781 317.455 190.854 317.455 189.799C317.455 188.738 317.592 187.787 317.865 186.947C318.145 186.107 318.549 185.398 319.076 184.818C319.61 184.232 320.261 183.786 321.029 183.48C321.804 183.174 322.686 183.021 323.676 183.021C324.262 183.021 324.831 183.074 325.385 183.178C325.945 183.275 326.501 183.409 327.055 183.578V185.951C326.573 185.723 326.039 185.538 325.453 185.395C324.874 185.245 324.288 185.17 323.695 185.17C323.096 185.17 322.566 185.274 322.104 185.482C321.648 185.691 321.264 185.987 320.951 186.371C320.645 186.755 320.411 187.227 320.248 187.787C320.092 188.347 320.014 188.979 320.014 189.682C320.014 190.359 320.076 190.971 320.199 191.518C320.323 192.058 320.521 192.52 320.795 192.904C321.075 193.282 321.433 193.572 321.869 193.773C322.305 193.975 322.836 194.076 323.461 194.076C323.611 194.076 323.741 194.073 323.852 194.066C323.962 194.053 324.066 194.037 324.164 194.018C324.262 193.998 324.353 193.975 324.438 193.949C324.529 193.923 324.623 193.894 324.721 193.861V190.6H322.553ZM334.721 185.238V196H332.26V185.238H328.764V183.236H338.217V185.238H334.721Z" fill="#C9D1D9"/>
<path d="M378.557 190.6V188.617H383.098V195.424C382.512 195.697 381.9 195.899 381.262 196.029C380.624 196.16 379.93 196.225 379.182 196.225C378.296 196.225 377.499 196.088 376.789 195.814C376.086 195.541 375.487 195.134 374.992 194.594C374.497 194.053 374.117 193.383 373.85 192.582C373.589 191.781 373.459 190.854 373.459 189.799C373.459 188.738 373.596 187.787 373.869 186.947C374.149 186.107 374.553 185.398 375.08 184.818C375.614 184.232 376.265 183.786 377.033 183.48C377.808 183.174 378.69 183.021 379.68 183.021C380.266 183.021 380.835 183.074 381.389 183.178C381.949 183.275 382.505 183.409 383.059 183.578V185.951C382.577 185.723 382.043 185.538 381.457 185.395C380.878 185.245 380.292 185.17 379.699 185.17C379.1 185.17 378.57 185.274 378.107 185.482C377.652 185.691 377.268 185.987 376.955 186.371C376.649 186.755 376.415 187.227 376.252 187.787C376.096 188.347 376.018 188.979 376.018 189.682C376.018 190.359 376.079 190.971 376.203 191.518C376.327 192.058 376.525 192.52 376.799 192.904C377.079 193.282 377.437 193.572 377.873 193.773C378.309 193.975 378.84 194.076 379.465 194.076C379.615 194.076 379.745 194.073 379.855 194.066C379.966 194.053 380.07 194.037 380.168 194.018C380.266 193.998 380.357 193.975 380.441 193.949C380.533 193.923 380.627 193.894 380.725 193.861V190.6H378.557ZM390.725 185.238V196H388.264V185.238H384.768V183.236H394.221V185.238H390.725ZM401.721 185.238V196H399.26V185.238H395.764V183.236H405.217V185.238H401.721Z" fill="#C9D1D9"/>
<path d="M64.7071 207.707C65.0976 207.317 65.0976 206.683 64.7071 206.293L58.3431 199.929C57.9526 199.538 57.3195 199.538 56.9289 199.929C56.5384 200.319 56.5384 200.953 56.9289 201.343L62.5858 207L56.9289 212.657C56.5384 213.047 56.5384 213.681 56.9289 214.071C57.3195 214.462 57.9526 214.462 58.3431 214.071L64.7071 207.707ZM30 208H64V206H30V208Z" fill="#C4A8A8"/>
<path d="M131.207 207.707C131.598 207.317 131.598 206.683 131.207 206.293L124.843 199.929C124.453 199.538 123.819 199.538 123.429 199.929C123.038 200.319 123.038 200.953 123.429 201.343L129.086 207L123.429 212.657C123.038 213.047 123.038 213.681 123.429 214.071C123.819 214.462 124.453 214.462 124.843 214.071L131.207 207.707ZM95 208H130.5V206H95V208Z" fill="#C4A8A8"/>
<path d="M249.976 151.217C250.096 150.678 249.756 150.144 249.217 150.024L240.431 148.071C239.892 147.952 239.358 148.292 239.238 148.831C239.118 149.37 239.458 149.904 239.997 150.024L247.807 151.759L246.071 159.569C245.952 160.108 246.292 160.642 246.831 160.762C247.37 160.882 247.904 160.542 248.024 160.003L249.976 151.217ZM161.537 207.844L204.942 180.222L203.869 178.535L160.463 206.156L161.537 207.844ZM204.942 180.222L249.537 151.844L248.463 150.156L203.869 178.535L204.942 180.222Z" fill="#C4A8A8"/>
<path d="M257.005 259C257.557 258.997 258.003 258.548 258 257.995L257.958 248.995C257.956 248.443 257.506 247.998 256.953 248C256.401 248.003 255.956 248.452 255.958 249.005L255.995 257.005L247.995 257.042C247.443 257.044 246.998 257.494 247 258.047C247.003 258.599 247.452 259.044 248.005 259.042L257.005 259ZM148.296 151.71L201.566 204.487L202.974 203.067L149.704 150.29L148.296 151.71ZM201.566 204.487L256.296 258.71L257.704 257.29L202.974 203.067L201.566 204.487Z" fill="#C4A8A8"/>
<path d="M222 208.998L222 207.998L221.692 207.998L221.437 208.171L222 208.998ZM276.707 209.705C277.098 209.314 277.098 208.681 276.707 208.291L270.343 201.927C269.953 201.536 269.319 201.536 268.929 201.927C268.538 202.317 268.538 202.951 268.929 203.341L274.586 208.998L268.929 214.655C268.538 215.045 268.538 215.678 268.929 216.069C269.319 216.459 269.953 216.459 270.343 216.069L276.707 209.705ZM150.563 258.827L222.563 209.825L221.437 208.171L149.437 257.173L150.563 258.827ZM222 209.998L276 209.998L276 207.998L222 207.998L222 209.998Z" fill="#C4A8A8"/>
<path d="M145.293 122.707C145.683 123.098 146.317 123.098 146.707 122.707L153.071 116.343C153.462 115.953 153.462 115.319 153.071 114.929C152.681 114.538 152.047 114.538 151.657 114.929L146 120.586L140.343 114.929C139.953 114.538 139.319 114.538 138.929 114.929C138.538 115.319 138.538 115.953 138.929 116.343L145.293 122.707ZM145 86V104.25H147V86H145ZM145 104.25V122H147V104.25H145Z" fill="#C4A8A8"/>
<path d="M261.707 85.2929C261.317 84.9024 260.683 84.9024 260.293 85.2929L253.929 91.6569C253.538 92.0474 253.538 92.6805 253.929 93.0711C254.319 93.4616 254.953 93.4616 255.343 93.0711L261 87.4142L266.657 93.0711C267.047 93.4616 267.681 93.4616 268.071 93.0711C268.462 92.6805 268.462 92.0474 268.071 91.6569L261.707 85.2929ZM262 122V103.75H260V122H262ZM262 103.75V86H260V103.75H262Z" fill="#C4A8A8"/>
<path d="M239.75 39.2709L239.074 40.008L239.076 40.0098L239.75 39.2709ZM221.957 22.001C221.405 22.025 220.977 22.4917 221.001 23.0435L221.392 32.035C221.416 32.5867 221.883 33.0146 222.434 32.9906C222.986 32.9666 223.414 32.4999 223.39 31.9481L223.042 23.9556L231.035 23.6081C231.587 23.5842 232.015 23.1174 231.991 22.5657C231.967 22.0139 231.5 21.586 230.948 21.61L221.957 22.001ZM257.674 54.2611L240.424 38.5319L239.076 40.0098L256.326 55.7389L257.674 54.2611ZM240.426 38.5337L222.676 22.2629L221.324 23.7372L239.074 40.008L240.426 38.5337Z" fill="#C4A8A8"/>
<path d="M174.929 39.673L175.598 40.4159L175.6 40.4141L174.929 39.673ZM156.043 55.7402C156.014 56.2918 156.438 56.7621 156.989 56.7908L165.977 57.2583C166.529 57.287 166.999 56.8631 167.028 56.3116C167.056 55.76 166.632 55.2897 166.081 55.261L158.092 54.8455L158.507 46.8563C158.536 46.3047 158.112 45.8343 157.561 45.8057C157.009 45.777 156.539 46.2008 156.51 46.7524L156.043 55.7402ZM191.559 23.2589L174.258 38.9319L175.6 40.4141L192.901 24.7411L191.559 23.2589ZM174.26 38.9301L156.372 55.0493L157.711 56.535L175.598 40.4159L174.26 38.9301Z" fill="#C4A8A8"/>
<circle r="14" transform="matrix(1 0 0 -1 147 273)" stroke="#FFD700" stroke-width="2"/>
<circle r="14" transform="matrix(1 0 0 -1 147 339)" stroke="#C4A8A8" stroke-width="2"/>
<circle r="14" transform="matrix(1 0 0 -1 262 339)" stroke="#C4A8A8" stroke-width="2"/>
<circle r="14" transform="matrix(1 0 0 -1 262 273)" stroke="#C4A8A8" stroke-width="2"/>
<circle r="14" transform="matrix(1 0 0 -1 208 395)" stroke="#C4A8A8" stroke-width="2"/>
<path d="M146.293 287.293C146.683 286.902 147.317 286.902 147.707 287.293L154.071 293.657C154.462 294.047 154.462 294.681 154.071 295.071C153.681 295.462 153.047 295.462 152.657 295.071L147 289.414L141.343 295.071C140.953 295.462 140.319 295.462 139.929 295.071C139.538 294.681 139.538 294.047 139.929 293.657L146.293 287.293ZM146 324V305.75H148V324H146ZM146 305.75V288H148V305.75H146Z" fill="#C4A8A8"/>
<path d="M262.707 324.707C262.317 325.098 261.683 325.098 261.293 324.707L254.929 318.343C254.538 317.953 254.538 317.319 254.929 316.929C255.319 316.538 255.953 316.538 256.343 316.929L262 322.586L267.657 316.929C268.047 316.538 268.681 316.538 269.071 316.929C269.462 317.319 269.462 317.953 269.071 318.343L262.707 324.707ZM263 288V306.25H261V288H263ZM263 306.25V324H261V306.25H263Z" fill="#C4A8A8"/>
<path d="M240.75 370.729L240.074 369.992L240.076 369.99L240.75 370.729ZM222.957 387.999C222.405 387.975 221.977 387.508 222.001 386.956L222.392 377.965C222.416 377.413 222.883 376.985 223.434 377.009C223.986 377.033 224.414 377.5 224.39 378.052L224.042 386.044L232.035 386.392C232.587 386.416 233.015 386.882 232.991 387.434C232.967 387.986 232.5 388.414 231.948 388.39L222.957 387.999ZM258.674 355.739L241.424 371.468L240.076 369.99L257.326 354.261L258.674 355.739ZM241.426 371.466L223.676 387.737L222.324 386.263L240.074 369.992L241.426 371.466Z" fill="#C4A8A8"/>
<path d="M175.929 370.327L176.598 369.584L176.6 369.586L175.929 370.327ZM157.043 354.26C157.014 353.708 157.438 353.238 157.989 353.209L166.977 352.742C167.529 352.713 167.999 353.137 168.028 353.688C168.056 354.24 167.632 354.71 167.081 354.739L159.092 355.155L159.507 363.144C159.536 363.695 159.112 364.166 158.561 364.194C158.009 364.223 157.539 363.799 157.51 363.248L157.043 354.26ZM192.559 386.741L175.258 371.068L176.6 369.586L193.901 385.259L192.559 386.741ZM175.26 371.07L157.372 354.951L158.711 353.465L176.598 369.584L175.26 371.07Z" fill="#C4A8A8"/>
<path d="M343.707 207.707C344.098 207.317 344.098 206.683 343.707 206.293L337.343 199.929C336.953 199.538 336.319 199.538 335.929 199.929C335.538 200.319 335.538 200.953 335.929 201.343L341.586 207L335.929 212.657C335.538 213.047 335.538 213.681 335.929 214.071C336.319 214.462 336.953 214.462 337.343 214.071L343.707 207.707ZM305 208H323.25V206H305V208ZM323.25 208H343V206H323.25V208Z" fill="#C4A8A8"/>
<path d="M408.207 207.707C408.598 207.317 408.598 206.683 408.207 206.293L401.843 199.929C401.453 199.538 400.819 199.538 400.429 199.929C400.038 200.319 400.038 200.953 400.429 201.343L406.086 207L400.429 212.657C400.038 213.047 400.038 213.681 400.429 214.071C400.819 214.462 401.453 214.462 401.843 214.071L408.207 207.707ZM373 208H391.25V206H373V208ZM391.25 208H407.5V206H391.25V208Z" fill="#C4A8A8"/>
<path d="M13.1562 201.721H9.37695V213H7.61914V201.721H3.83984V200.236H13.1562V201.721ZM24.8945 213H23L22.1113 210.217H16.7988L15.9004 213H14.0938L18.332 200.236H20.7148L24.8945 213ZM21.6133 208.664L19.4551 201.838L17.2969 208.664H21.6133Z" fill="#C9D1D9"/>
<path d="M79.8984 213H78.0039L77.1152 210.217H71.8027L70.9043 213H69.0977L73.3359 200.236H75.7188L79.8984 213ZM76.6172 208.664L74.459 201.838L72.3008 208.664H76.6172ZM90.8945 213H89L88.1113 210.217H82.7988L81.9004 213H80.0938L84.332 200.236H86.7148L90.8945 213ZM87.6133 208.664L85.4551 201.838L83.2969 208.664H87.6133Z" fill="#C9D1D9"/>
<path d="M145.898 213H144.004L143.115 210.217H137.803L136.904 213H135.098L139.336 200.236H141.719L145.898 213ZM142.617 208.664L140.459 201.838L138.301 208.664H142.617ZM156.152 201.721H152.373V213H150.615V201.721H146.836V200.236H156.152V201.721Z" fill="#C9D1D9"/>
<path d="M145.824 334.424C145.349 334.17 144.861 333.975 144.359 333.838C143.858 333.695 143.311 333.623 142.719 333.623C142.042 333.623 141.439 333.743 140.912 333.984C140.385 334.225 139.939 334.567 139.574 335.01C139.216 335.446 138.939 335.973 138.744 336.592C138.555 337.21 138.461 337.894 138.461 338.643C138.461 339.424 138.539 340.124 138.695 340.742C138.852 341.361 139.096 341.885 139.428 342.314C139.76 342.744 140.183 343.073 140.697 343.301C141.218 343.529 141.84 343.643 142.562 343.643C142.686 343.643 142.82 343.636 142.963 343.623C143.106 343.61 143.249 343.594 143.393 343.574C143.536 343.548 143.673 343.519 143.803 343.486C143.939 343.454 144.06 343.418 144.164 343.379V339.316H141.557V337.881H145.883V344.404C145.616 344.528 145.333 344.639 145.033 344.736C144.74 344.834 144.438 344.915 144.125 344.98C143.819 345.046 143.513 345.094 143.207 345.127C142.901 345.16 142.605 345.176 142.318 345.176C141.446 345.176 140.658 345.039 139.955 344.766C139.258 344.492 138.663 344.089 138.168 343.555C137.68 343.014 137.302 342.344 137.035 341.543C136.775 340.742 136.645 339.814 136.645 338.76C136.645 337.712 136.791 336.774 137.084 335.947C137.377 335.114 137.787 334.411 138.314 333.838C138.848 333.258 139.486 332.819 140.229 332.52C140.977 332.214 141.801 332.061 142.699 332.061C143.272 332.061 143.816 332.113 144.33 332.217C144.851 332.314 145.349 332.474 145.824 332.695V334.424ZM157.895 345H156L155.111 342.217H149.799L148.9 345H147.094L151.332 332.236H153.715L157.895 345ZM154.613 340.664L152.455 333.838L150.297 340.664H154.613Z" fill="#C9D1D9"/>
<path d="M261.156 267.721H257.377V279H255.619V267.721H251.84V266.236H261.156V267.721ZM271.82 268.424C271.345 268.17 270.857 267.975 270.355 267.838C269.854 267.695 269.307 267.623 268.715 267.623C268.038 267.623 267.436 267.743 266.908 267.984C266.381 268.225 265.935 268.567 265.57 269.01C265.212 269.446 264.936 269.973 264.74 270.592C264.551 271.21 264.457 271.894 264.457 272.643C264.457 273.424 264.535 274.124 264.691 274.742C264.848 275.361 265.092 275.885 265.424 276.314C265.756 276.744 266.179 277.073 266.693 277.301C267.214 277.529 267.836 277.643 268.559 277.643C268.682 277.643 268.816 277.636 268.959 277.623C269.102 277.61 269.245 277.594 269.389 277.574C269.532 277.548 269.669 277.519 269.799 277.486C269.936 277.454 270.056 277.418 270.16 277.379V273.316H267.553V271.881H271.879V278.404C271.612 278.528 271.329 278.639 271.029 278.736C270.736 278.834 270.434 278.915 270.121 278.98C269.815 279.046 269.509 279.094 269.203 279.127C268.897 279.16 268.601 279.176 268.314 279.176C267.442 279.176 266.654 279.039 265.951 278.766C265.255 278.492 264.659 278.089 264.164 277.555C263.676 277.014 263.298 276.344 263.031 275.543C262.771 274.742 262.641 273.814 262.641 272.76C262.641 271.712 262.787 270.774 263.08 269.947C263.373 269.114 263.783 268.411 264.311 267.838C264.844 267.258 265.482 266.819 266.225 266.52C266.973 266.214 267.797 266.061 268.695 266.061C269.268 266.061 269.812 266.113 270.326 266.217C270.847 266.314 271.345 266.474 271.82 266.695V268.424Z" fill="#C9D1D9"/>
<path d="M290.156 202.721H286.377V214H284.619V202.721H280.84V201.236H290.156V202.721ZM300.82 203.424C300.345 203.17 299.857 202.975 299.355 202.838C298.854 202.695 298.307 202.623 297.715 202.623C297.038 202.623 296.436 202.743 295.908 202.984C295.381 203.225 294.935 203.567 294.57 204.01C294.212 204.446 293.936 204.973 293.74 205.592C293.551 206.21 293.457 206.894 293.457 207.643C293.457 208.424 293.535 209.124 293.691 209.742C293.848 210.361 294.092 210.885 294.424 211.314C294.756 211.744 295.179 212.073 295.693 212.301C296.214 212.529 296.836 212.643 297.559 212.643C297.682 212.643 297.816 212.636 297.959 212.623C298.102 212.61 298.245 212.594 298.389 212.574C298.532 212.548 298.669 212.519 298.799 212.486C298.936 212.454 299.056 212.418 299.16 212.379V208.316H296.553V206.881H300.879V213.404C300.612 213.528 300.329 213.639 300.029 213.736C299.736 213.834 299.434 213.915 299.121 213.98C298.815 214.046 298.509 214.094 298.203 214.127C297.897 214.16 297.601 214.176 297.314 214.176C296.442 214.176 295.654 214.039 294.951 213.766C294.255 213.492 293.659 213.089 293.164 212.555C292.676 212.014 292.298 211.344 292.031 210.543C291.771 209.742 291.641 208.814 291.641 207.76C291.641 206.712 291.787 205.774 292.08 204.947C292.373 204.114 292.783 203.411 293.311 202.838C293.844 202.258 294.482 201.819 295.225 201.52C295.973 201.214 296.797 201.061 297.695 201.061C298.268 201.061 298.812 201.113 299.326 201.217C299.847 201.314 300.345 201.474 300.82 201.695V203.424Z" fill="#C9D1D9"/>
<path d="M355.824 203.424C355.349 203.17 354.861 202.975 354.359 202.838C353.858 202.695 353.311 202.623 352.719 202.623C352.042 202.623 351.439 202.743 350.912 202.984C350.385 203.225 349.939 203.567 349.574 204.01C349.216 204.446 348.939 204.973 348.744 205.592C348.555 206.21 348.461 206.894 348.461 207.643C348.461 208.424 348.539 209.124 348.695 209.742C348.852 210.361 349.096 210.885 349.428 211.314C349.76 211.744 350.183 212.073 350.697 212.301C351.218 212.529 351.84 212.643 352.562 212.643C352.686 212.643 352.82 212.636 352.963 212.623C353.106 212.61 353.249 212.594 353.393 212.574C353.536 212.548 353.673 212.519 353.803 212.486C353.939 212.454 354.06 212.418 354.164 212.379V208.316H351.557V206.881H355.883V213.404C355.616 213.528 355.333 213.639 355.033 213.736C354.74 213.834 354.438 213.915 354.125 213.98C353.819 214.046 353.513 214.094 353.207 214.127C352.901 214.16 352.605 214.176 352.318 214.176C351.446 214.176 350.658 214.039 349.955 213.766C349.258 213.492 348.663 213.089 348.168 212.555C347.68 212.014 347.302 211.344 347.035 210.543C346.775 209.742 346.645 208.814 346.645 207.76C346.645 206.712 346.791 205.774 347.084 204.947C347.377 204.114 347.787 203.411 348.314 202.838C348.848 202.258 349.486 201.819 350.229 201.52C350.977 201.214 351.801 201.061 352.699 201.061C353.272 201.061 353.816 201.113 354.33 201.217C354.851 201.314 355.349 201.474 355.824 201.695V203.424ZM367.152 202.721H363.373V214H361.615V202.721H357.836V201.236H367.152V202.721Z" fill="#C9D1D9"/>
<path d="M423.156 202.721H419.377V214H417.619V202.721H413.84V201.236H423.156V202.721ZM434.152 202.721H430.373V214H428.615V202.721H424.836V201.236H434.152V202.721Z" fill="#C9D1D9"/>
<path d="M259.156 132.721H255.377V144H253.619V132.721H249.84V131.236H259.156V132.721ZM269.82 133.424C269.345 133.17 268.857 132.975 268.355 132.838C267.854 132.695 267.307 132.623 266.715 132.623C266.038 132.623 265.436 132.743 264.908 132.984C264.381 133.225 263.935 133.567 263.57 134.01C263.212 134.446 262.936 134.973 262.74 135.592C262.551 136.21 262.457 136.894 262.457 137.643C262.457 138.424 262.535 139.124 262.691 139.742C262.848 140.361 263.092 140.885 263.424 141.314C263.756 141.744 264.179 142.073 264.693 142.301C265.214 142.529 265.836 142.643 266.559 142.643C266.682 142.643 266.816 142.636 266.959 142.623C267.102 142.61 267.245 142.594 267.389 142.574C267.532 142.548 267.669 142.519 267.799 142.486C267.936 142.454 268.056 142.418 268.16 142.379V138.316H265.553V136.881H269.879V143.404C269.612 143.528 269.329 143.639 269.029 143.736C268.736 143.834 268.434 143.915 268.121 143.98C267.815 144.046 267.509 144.094 267.203 144.127C266.897 144.16 266.601 144.176 266.314 144.176C265.442 144.176 264.654 144.039 263.951 143.766C263.255 143.492 262.659 143.089 262.164 142.555C261.676 142.014 261.298 141.344 261.031 140.543C260.771 139.742 260.641 138.814 260.641 137.76C260.641 136.712 260.787 135.774 261.08 134.947C261.373 134.114 261.783 133.411 262.311 132.838C262.844 132.258 263.482 131.819 264.225 131.52C264.973 131.214 265.797 131.061 266.695 131.061C267.268 131.061 267.812 131.113 268.326 131.217C268.847 131.314 269.345 131.474 269.82 131.695V133.424Z" fill="#C9D1D9"/>
<path d="M258.824 67.4238C258.349 67.1699 257.861 66.9746 257.359 66.8379C256.858 66.6947 256.311 66.623 255.719 66.623C255.042 66.623 254.439 66.7435 253.912 66.9844C253.385 67.2253 252.939 67.5671 252.574 68.0098C252.216 68.446 251.939 68.9733 251.744 69.5918C251.555 70.2103 251.461 70.8939 251.461 71.6426C251.461 72.4238 251.539 73.1237 251.695 73.7422C251.852 74.3607 252.096 74.8848 252.428 75.3145C252.76 75.7441 253.183 76.0729 253.697 76.3008C254.218 76.5286 254.84 76.6426 255.562 76.6426C255.686 76.6426 255.82 76.6361 255.963 76.623C256.106 76.61 256.249 76.5938 256.393 76.5742C256.536 76.5482 256.673 76.5189 256.803 76.4863C256.939 76.4538 257.06 76.418 257.164 76.3789V72.3164H254.557V70.8809H258.883V77.4043C258.616 77.528 258.333 77.6387 258.033 77.7363C257.74 77.834 257.438 77.9154 257.125 77.9805C256.819 78.0456 256.513 78.0944 256.207 78.127C255.901 78.1595 255.605 78.1758 255.318 78.1758C254.446 78.1758 253.658 78.0391 252.955 77.7656C252.258 77.4922 251.663 77.0885 251.168 76.5547C250.68 76.0143 250.302 75.3438 250.035 74.543C249.775 73.7422 249.645 72.8145 249.645 71.7598C249.645 70.7116 249.791 69.7741 250.084 68.9473C250.377 68.1139 250.787 67.4108 251.314 66.8379C251.848 66.2585 252.486 65.819 253.229 65.5195C253.977 65.2135 254.801 65.0605 255.699 65.0605C256.272 65.0605 256.816 65.1126 257.33 65.2168C257.851 65.3145 258.349 65.474 258.824 65.6953V67.4238ZM269.713 77.5215C268.691 77.9447 267.62 78.1562 266.5 78.1562C264.697 78.1562 263.31 77.6191 262.34 76.5449C261.376 75.4642 260.895 73.8691 260.895 71.7598C260.895 70.7376 261.028 69.8132 261.295 68.9863C261.562 68.1595 261.943 67.4596 262.438 66.8867C262.932 66.3073 263.531 65.8613 264.234 65.5488C264.938 65.2363 265.725 65.0801 266.598 65.0801C267.19 65.0801 267.74 65.1322 268.248 65.2363C268.756 65.334 269.244 65.487 269.713 65.6953V67.4043C269.251 67.1504 268.772 66.9583 268.277 66.8281C267.783 66.6914 267.242 66.623 266.656 66.623C266.057 66.623 265.514 66.737 265.025 66.9648C264.544 67.1862 264.133 67.5117 263.795 67.9414C263.456 68.3646 263.196 68.8854 263.014 69.5039C262.831 70.1159 262.74 70.8158 262.74 71.6035C262.74 73.2572 263.076 74.5039 263.746 75.3438C264.417 76.1836 265.4 76.6035 266.695 76.6035C267.242 76.6035 267.766 76.5417 268.268 76.418C268.769 76.2878 269.251 76.1087 269.713 75.8809V77.5215Z" fill="#C9D1D9"/>
<path d="M205.717 20.5215C204.695 20.9447 203.624 21.1562 202.504 21.1562C200.701 21.1562 199.314 20.6191 198.344 19.5449C197.38 18.4642 196.898 16.8691 196.898 14.7598C196.898 13.7376 197.032 12.8132 197.299 11.9863C197.566 11.1595 197.947 10.4596 198.441 9.88672C198.936 9.30729 199.535 8.86133 200.238 8.54883C200.941 8.23633 201.729 8.08008 202.602 8.08008C203.194 8.08008 203.744 8.13216 204.252 8.23633C204.76 8.33398 205.248 8.48698 205.717 8.69531V10.4043C205.255 10.1504 204.776 9.95833 204.281 9.82812C203.786 9.69141 203.246 9.62305 202.66 9.62305C202.061 9.62305 201.518 9.73698 201.029 9.96484C200.548 10.1862 200.137 10.5117 199.799 10.9414C199.46 11.3646 199.2 11.8854 199.018 12.5039C198.835 13.1159 198.744 13.8158 198.744 14.6035C198.744 16.2572 199.079 17.5039 199.75 18.3438C200.421 19.1836 201.404 19.6035 202.699 19.6035C203.246 19.6035 203.77 19.5417 204.271 19.418C204.773 19.2878 205.255 19.1087 205.717 18.8809V20.5215ZM216.713 20.5215C215.691 20.9447 214.62 21.1562 213.5 21.1562C211.697 21.1562 210.31 20.6191 209.34 19.5449C208.376 18.4642 207.895 16.8691 207.895 14.7598C207.895 13.7376 208.028 12.8132 208.295 11.9863C208.562 11.1595 208.943 10.4596 209.438 9.88672C209.932 9.30729 210.531 8.86133 211.234 8.54883C211.938 8.23633 212.725 8.08008 213.598 8.08008C214.19 8.08008 214.74 8.13216 215.248 8.23633C215.756 8.33398 216.244 8.48698 216.713 8.69531V10.4043C216.251 10.1504 215.772 9.95833 215.277 9.82812C214.783 9.69141 214.242 9.62305 213.656 9.62305C213.057 9.62305 212.514 9.73698 212.025 9.96484C211.544 10.1862 211.133 10.5117 210.795 10.9414C210.456 11.3646 210.196 11.8854 210.014 12.5039C209.831 13.1159 209.74 13.8158 209.74 14.6035C209.74 16.2572 210.076 17.5039 210.746 18.3438C211.417 19.1836 212.4 19.6035 213.695 19.6035C214.242 19.6035 214.766 19.5417 215.268 19.418C215.769 19.2878 216.251 19.1087 216.713 18.8809V20.5215Z" fill="#C9D1D9"/>
<path d="M144.717 77.5215C143.695 77.9447 142.624 78.1562 141.504 78.1562C139.701 78.1562 138.314 77.6191 137.344 76.5449C136.38 75.4642 135.898 73.8691 135.898 71.7598C135.898 70.7376 136.032 69.8132 136.299 68.9863C136.566 68.1595 136.947 67.4596 137.441 66.8867C137.936 66.3073 138.535 65.8613 139.238 65.5488C139.941 65.2363 140.729 65.0801 141.602 65.0801C142.194 65.0801 142.744 65.1322 143.252 65.2363C143.76 65.334 144.248 65.487 144.717 65.6953V67.4043C144.255 67.1504 143.776 66.9583 143.281 66.8281C142.786 66.6914 142.246 66.623 141.66 66.623C141.061 66.623 140.518 66.737 140.029 66.9648C139.548 67.1862 139.137 67.5117 138.799 67.9414C138.46 68.3646 138.2 68.8854 138.018 69.5039C137.835 70.1159 137.744 70.8158 137.744 71.6035C137.744 73.2572 138.079 74.5039 138.75 75.3438C139.421 76.1836 140.404 76.6035 141.699 76.6035C142.246 76.6035 142.77 76.5417 143.271 76.418C143.773 76.2878 144.255 76.1087 144.717 75.8809V77.5215ZM156.895 78H155L154.111 75.2168H148.799L147.9 78H146.094L150.332 65.2363H152.715L156.895 78ZM153.613 73.6641L151.455 66.8379L149.297 73.6641H153.613Z" fill="#C9D1D9"/>
<path d="M260.824 334.424C260.349 334.17 259.861 333.975 259.359 333.838C258.858 333.695 258.311 333.623 257.719 333.623C257.042 333.623 256.439 333.743 255.912 333.984C255.385 334.225 254.939 334.567 254.574 335.01C254.216 335.446 253.939 335.973 253.744 336.592C253.555 337.21 253.461 337.894 253.461 338.643C253.461 339.424 253.539 340.124 253.695 340.742C253.852 341.361 254.096 341.885 254.428 342.314C254.76 342.744 255.183 343.073 255.697 343.301C256.218 343.529 256.84 343.643 257.562 343.643C257.686 343.643 257.82 343.636 257.963 343.623C258.106 343.61 258.249 343.594 258.393 343.574C258.536 343.548 258.673 343.519 258.803 343.486C258.939 343.454 259.06 343.418 259.164 343.379V339.316H256.557V337.881H260.883V344.404C260.616 344.528 260.333 344.639 260.033 344.736C259.74 344.834 259.438 344.915 259.125 344.98C258.819 345.046 258.513 345.094 258.207 345.127C257.901 345.16 257.605 345.176 257.318 345.176C256.446 345.176 255.658 345.039 254.955 344.766C254.258 344.492 253.663 344.089 253.168 343.555C252.68 343.014 252.302 342.344 252.035 341.543C251.775 340.742 251.645 339.814 251.645 338.76C251.645 337.712 251.791 336.774 252.084 335.947C252.377 335.114 252.787 334.411 253.314 333.838C253.848 333.258 254.486 332.819 255.229 332.52C255.977 332.214 256.801 332.061 257.699 332.061C258.272 332.061 258.816 332.113 259.33 332.217C259.851 332.314 260.349 332.474 260.824 332.695V334.424ZM271.82 334.424C271.345 334.17 270.857 333.975 270.355 333.838C269.854 333.695 269.307 333.623 268.715 333.623C268.038 333.623 267.436 333.743 266.908 333.984C266.381 334.225 265.935 334.567 265.57 335.01C265.212 335.446 264.936 335.973 264.74 336.592C264.551 337.21 264.457 337.894 264.457 338.643C264.457 339.424 264.535 340.124 264.691 340.742C264.848 341.361 265.092 341.885 265.424 342.314C265.756 342.744 266.179 343.073 266.693 343.301C267.214 343.529 267.836 343.643 268.559 343.643C268.682 343.643 268.816 343.636 268.959 343.623C269.102 343.61 269.245 343.594 269.389 343.574C269.532 343.548 269.669 343.519 269.799 343.486C269.936 343.454 270.056 343.418 270.16 343.379V339.316H267.553V337.881H271.879V344.404C271.612 344.528 271.329 344.639 271.029 344.736C270.736 344.834 270.434 344.915 270.121 344.98C269.815 345.046 269.509 345.094 269.203 345.127C268.897 345.16 268.601 345.176 268.314 345.176C267.442 345.176 266.654 345.039 265.951 344.766C265.255 344.492 264.659 344.089 264.164 343.555C263.676 343.014 263.298 342.344 263.031 341.543C262.771 340.742 262.641 339.814 262.641 338.76C262.641 337.712 262.787 336.774 263.08 335.947C263.373 335.114 263.783 334.411 264.311 333.838C264.844 333.258 265.482 332.819 266.225 332.52C266.973 332.214 267.797 332.061 268.695 332.061C269.268 332.061 269.812 332.113 270.326 332.217C270.847 332.314 271.345 332.474 271.82 332.695V334.424Z" fill="#C9D1D9"/>
<path d="M206.824 391.424C206.349 391.17 205.861 390.975 205.359 390.838C204.858 390.695 204.311 390.623 203.719 390.623C203.042 390.623 202.439 390.743 201.912 390.984C201.385 391.225 200.939 391.567 200.574 392.01C200.216 392.446 199.939 392.973 199.744 393.592C199.555 394.21 199.461 394.894 199.461 395.643C199.461 396.424 199.539 397.124 199.695 397.742C199.852 398.361 200.096 398.885 200.428 399.314C200.76 399.744 201.183 400.073 201.697 400.301C202.218 400.529 202.84 400.643 203.562 400.643C203.686 400.643 203.82 400.636 203.963 400.623C204.106 400.61 204.249 400.594 204.393 400.574C204.536 400.548 204.673 400.519 204.803 400.486C204.939 400.454 205.06 400.418 205.164 400.379V396.316H202.557V394.881H206.883V401.404C206.616 401.528 206.333 401.639 206.033 401.736C205.74 401.834 205.438 401.915 205.125 401.98C204.819 402.046 204.513 402.094 204.207 402.127C203.901 402.16 203.605 402.176 203.318 402.176C202.446 402.176 201.658 402.039 200.955 401.766C200.258 401.492 199.663 401.089 199.168 400.555C198.68 400.014 198.302 399.344 198.035 398.543C197.775 397.742 197.645 396.814 197.645 395.76C197.645 394.712 197.791 393.774 198.084 392.947C198.377 392.114 198.787 391.411 199.314 390.838C199.848 390.258 200.486 389.819 201.229 389.52C201.977 389.214 202.801 389.061 203.699 389.061C204.272 389.061 204.816 389.113 205.33 389.217C205.851 389.314 206.349 389.474 206.824 389.695V391.424ZM217.82 391.424C217.345 391.17 216.857 390.975 216.355 390.838C215.854 390.695 215.307 390.623 214.715 390.623C214.038 390.623 213.436 390.743 212.908 390.984C212.381 391.225 211.935 391.567 211.57 392.01C211.212 392.446 210.936 392.973 210.74 393.592C210.551 394.21 210.457 394.894 210.457 395.643C210.457 396.424 210.535 397.124 210.691 397.742C210.848 398.361 211.092 398.885 211.424 399.314C211.756 399.744 212.179 400.073 212.693 400.301C213.214 400.529 213.836 400.643 214.559 400.643C214.682 400.643 214.816 400.636 214.959 400.623C215.102 400.61 215.245 400.594 215.389 400.574C215.532 400.548 215.669 400.519 215.799 400.486C215.936 400.454 216.056 400.418 216.16 400.379V396.316H213.553V394.881H217.879V401.404C217.612 401.528 217.329 401.639 217.029 401.736C216.736 401.834 216.434 401.915 216.121 401.98C215.815 402.046 215.509 402.094 215.203 402.127C214.897 402.16 214.601 402.176 214.314 402.176C213.442 402.176 212.654 402.039 211.951 401.766C211.255 401.492 210.659 401.089 210.164 400.555C209.676 400.014 209.298 399.344 209.031 398.543C208.771 397.742 208.641 396.814 208.641 395.76C208.641 394.712 208.787 393.774 209.08 392.947C209.373 392.114 209.783 391.411 210.311 390.838C210.844 390.258 211.482 389.819 212.225 389.52C212.973 389.214 213.797 389.061 214.695 389.061C215.268 389.061 215.812 389.113 216.326 389.217C216.847 389.314 217.345 389.474 217.82 389.695V391.424Z" fill="#C9D1D9"/>
<path d="M146.898 279H145.004L144.115 276.217H138.803L137.904 279H136.098L140.336 266.236H142.719L146.898 279ZM143.617 274.664L141.459 267.838L139.301 274.664H143.617ZM157.152 267.721H153.373V279H151.615V267.721H147.836V266.236H157.152V267.721Z" fill="#C9D1D9"/>
<path d="M145.898 145H144.004L143.115 142.217H137.803L136.904 145H135.098L139.336 132.236H141.719L145.898 145ZM142.617 140.664L140.459 133.838L138.301 140.664H142.617ZM156.152 133.721H152.373V145H150.615V133.721H146.836V132.236H156.152V133.721Z" fill="#C9D1D9"/>
<path d="M196.301 172L195.598 169.48H191.145L190.422 172H188.039L191.818 159.236H195.178L198.957 172H196.301ZM193.4 161.58L191.721 167.518H195.061L193.4 161.58ZM205.725 161.238V172H203.264V161.238H199.768V159.236H209.221V161.238H205.725ZM215.549 166.6V164.617H220.09V171.424C219.504 171.697 218.892 171.899 218.254 172.029C217.616 172.16 216.923 172.225 216.174 172.225C215.288 172.225 214.491 172.088 213.781 171.814C213.078 171.541 212.479 171.134 211.984 170.594C211.49 170.053 211.109 169.383 210.842 168.582C210.581 167.781 210.451 166.854 210.451 165.799C210.451 164.738 210.588 163.787 210.861 162.947C211.141 162.107 211.545 161.398 212.072 160.818C212.606 160.232 213.257 159.786 214.025 159.48C214.8 159.174 215.682 159.021 216.672 159.021C217.258 159.021 217.827 159.074 218.381 159.178C218.941 159.275 219.497 159.409 220.051 159.578V161.951C219.569 161.723 219.035 161.538 218.449 161.395C217.87 161.245 217.284 161.17 216.691 161.17C216.092 161.17 215.562 161.274 215.1 161.482C214.644 161.691 214.26 161.987 213.947 162.371C213.641 162.755 213.407 163.227 213.244 163.787C213.088 164.347 213.01 164.979 213.01 165.682C213.01 166.359 213.072 166.971 213.195 167.518C213.319 168.058 213.518 168.52 213.791 168.904C214.071 169.282 214.429 169.572 214.865 169.773C215.301 169.975 215.832 170.076 216.457 170.076C216.607 170.076 216.737 170.073 216.848 170.066C216.958 170.053 217.062 170.037 217.16 170.018C217.258 169.998 217.349 169.975 217.434 169.949C217.525 169.923 217.619 169.894 217.717 169.861V166.6H215.549Z" fill="#C9D1D9"/>
<path d="M235.301 196L234.598 193.48H230.145L229.422 196H227.039L230.818 183.236H234.178L237.957 196H235.301ZM232.4 185.58L230.721 191.518H234.061L232.4 185.58ZM244.725 185.238V196H242.264V185.238H238.768V183.236H248.221V185.238H244.725ZM254.549 190.6V188.617H259.09V195.424C258.504 195.697 257.892 195.899 257.254 196.029C256.616 196.16 255.923 196.225 255.174 196.225C254.288 196.225 253.491 196.088 252.781 195.814C252.078 195.541 251.479 195.134 250.984 194.594C250.49 194.053 250.109 193.383 249.842 192.582C249.581 191.781 249.451 190.854 249.451 189.799C249.451 188.738 249.588 187.787 249.861 186.947C250.141 186.107 250.545 185.398 251.072 184.818C251.606 184.232 252.257 183.786 253.025 183.48C253.8 183.174 254.682 183.021 255.672 183.021C256.258 183.021 256.827 183.074 257.381 183.178C257.941 183.275 258.497 183.409 259.051 183.578V185.951C258.569 185.723 258.035 185.538 257.449 185.395C256.87 185.245 256.284 185.17 255.691 185.17C255.092 185.17 254.562 185.274 254.1 185.482C253.644 185.691 253.26 185.987 252.947 186.371C252.641 186.755 252.407 187.227 252.244 187.787C252.088 188.347 252.01 188.979 252.01 189.682C252.01 190.359 252.072 190.971 252.195 191.518C252.319 192.058 252.518 192.52 252.791 192.904C253.071 193.282 253.429 193.572 253.865 193.773C254.301 193.975 254.832 194.076 255.457 194.076C255.607 194.076 255.737 194.073 255.848 194.066C255.958 194.053 256.062 194.037 256.16 194.018C256.258 193.998 256.349 193.975 256.434 193.949C256.525 193.923 256.619 193.894 256.717 193.861V190.6H254.549Z" fill="#C9D1D9"/>
<path d="M212.301 241L211.598 238.48H207.145L206.422 241H204.039L207.818 228.236H211.178L214.957 241H212.301ZM209.4 230.58L207.721 236.518H211.061L209.4 230.58ZM221.725 230.238V241H219.264V230.238H215.768V228.236H225.221V230.238H221.725ZM231.549 235.6V233.617H236.09V240.424C235.504 240.697 234.892 240.899 234.254 241.029C233.616 241.16 232.923 241.225 232.174 241.225C231.288 241.225 230.491 241.088 229.781 240.814C229.078 240.541 228.479 240.134 227.984 239.594C227.49 239.053 227.109 238.383 226.842 237.582C226.581 236.781 226.451 235.854 226.451 234.799C226.451 233.738 226.588 232.787 226.861 231.947C227.141 231.107 227.545 230.398 228.072 229.818C228.606 229.232 229.257 228.786 230.025 228.48C230.8 228.174 231.682 228.021 232.672 228.021C233.258 228.021 233.827 228.074 234.381 228.178C234.941 228.275 235.497 228.409 236.051 228.578V230.951C235.569 230.723 235.035 230.538 234.449 230.395C233.87 230.245 233.284 230.17 232.691 230.17C232.092 230.17 231.562 230.274 231.1 230.482C230.644 230.691 230.26 230.987 229.947 231.371C229.641 231.755 229.407 232.227 229.244 232.787C229.088 233.347 229.01 233.979 229.01 234.682C229.01 235.359 229.072 235.971 229.195 236.518C229.319 237.058 229.518 237.52 229.791 237.904C230.071 238.282 230.429 238.572 230.865 238.773C231.301 238.975 231.832 239.076 232.457 239.076C232.607 239.076 232.737 239.073 232.848 239.066C232.958 239.053 233.062 239.037 233.16 239.018C233.258 238.998 233.349 238.975 233.434 238.949C233.525 238.923 233.619 238.894 233.717 238.861V235.6H231.549Z" fill="#C9D1D9"/>
<path d="M103.557 309.6V307.617H108.098V314.424C107.512 314.697 106.9 314.899 106.262 315.029C105.624 315.16 104.93 315.225 104.182 315.225C103.296 315.225 102.499 315.088 101.789 314.814C101.086 314.541 100.487 314.134 99.9922 313.594C99.4974 313.053 99.1165 312.383 98.8496 311.582C98.5892 310.781 98.459 309.854 98.459 308.799C98.459 307.738 98.5957 306.787 98.8691 305.947C99.1491 305.107 99.5527 304.398 100.08 303.818C100.614 303.232 101.265 302.786 102.033 302.48C102.808 302.174 103.69 302.021 104.68 302.021C105.266 302.021 105.835 302.074 106.389 302.178C106.949 302.275 107.505 302.409 108.059 302.578V304.951C107.577 304.723 107.043 304.538 106.457 304.395C105.878 304.245 105.292 304.17 104.699 304.17C104.1 304.17 103.57 304.274 103.107 304.482C102.652 304.691 102.268 304.987 101.955 305.371C101.649 305.755 101.415 306.227 101.252 306.787C101.096 307.347 101.018 307.979 101.018 308.682C101.018 309.359 101.079 309.971 101.203 310.518C101.327 311.058 101.525 311.52 101.799 311.904C102.079 312.282 102.437 312.572 102.873 312.773C103.309 312.975 103.84 313.076 104.465 313.076C104.615 313.076 104.745 313.073 104.855 313.066C104.966 313.053 105.07 313.037 105.168 313.018C105.266 312.998 105.357 312.975 105.441 312.949C105.533 312.923 105.627 312.894 105.725 312.861V309.6H103.557ZM117.297 315L116.594 312.48H112.141L111.418 315H109.035L112.814 302.236H116.174L119.953 315H117.297ZM114.396 304.58L112.717 310.518H116.057L114.396 304.58ZM126.721 304.238V315H124.26V304.238H120.764V302.236H130.217V304.238H126.721Z" fill="#C9D1D9"/>
<path d="M277.729 304.238V315H275.268V304.238H271.771V302.236H281.225V304.238H277.729ZM287.553 309.6V307.617H292.094V314.424C291.508 314.697 290.896 314.899 290.258 315.029C289.62 315.16 288.926 315.225 288.178 315.225C287.292 315.225 286.495 315.088 285.785 314.814C285.082 314.541 284.483 314.134 283.988 313.594C283.493 313.053 283.113 312.383 282.846 311.582C282.585 310.781 282.455 309.854 282.455 308.799C282.455 307.738 282.592 306.787 282.865 305.947C283.145 305.107 283.549 304.398 284.076 303.818C284.61 303.232 285.261 302.786 286.029 302.48C286.804 302.174 287.686 302.021 288.676 302.021C289.262 302.021 289.831 302.074 290.385 302.178C290.945 302.275 291.501 302.409 292.055 302.578V304.951C291.573 304.723 291.039 304.538 290.453 304.395C289.874 304.245 289.288 304.17 288.695 304.17C288.096 304.17 287.566 304.274 287.104 304.482C286.648 304.691 286.264 304.987 285.951 305.371C285.645 305.755 285.411 306.227 285.248 306.787C285.092 307.347 285.014 307.979 285.014 308.682C285.014 309.359 285.076 309.971 285.199 310.518C285.323 311.058 285.521 311.52 285.795 311.904C286.075 312.282 286.433 312.572 286.869 312.773C287.305 312.975 287.836 313.076 288.461 313.076C288.611 313.076 288.741 313.073 288.852 313.066C288.962 313.053 289.066 313.037 289.164 313.018C289.262 312.998 289.353 312.975 289.438 312.949C289.529 312.923 289.623 312.894 289.721 312.861V309.6H287.553ZM298.549 309.6V307.617H303.09V314.424C302.504 314.697 301.892 314.899 301.254 315.029C300.616 315.16 299.923 315.225 299.174 315.225C298.288 315.225 297.491 315.088 296.781 314.814C296.078 314.541 295.479 314.134 294.984 313.594C294.49 313.053 294.109 312.383 293.842 311.582C293.581 310.781 293.451 309.854 293.451 308.799C293.451 307.738 293.588 306.787 293.861 305.947C294.141 305.107 294.545 304.398 295.072 303.818C295.606 303.232 296.257 302.786 297.025 302.48C297.8 302.174 298.682 302.021 299.672 302.021C300.258 302.021 300.827 302.074 301.381 302.178C301.941 302.275 302.497 302.409 303.051 302.578V304.951C302.569 304.723 302.035 304.538 301.449 304.395C300.87 304.245 300.284 304.17 299.691 304.17C299.092 304.17 298.562 304.274 298.1 304.482C297.644 304.691 297.26 304.987 296.947 305.371C296.641 305.755 296.407 306.227 296.244 306.787C296.088 307.347 296.01 307.979 296.01 308.682C296.01 309.359 296.072 309.971 296.195 310.518C296.319 311.058 296.518 311.52 296.791 311.904C297.071 312.282 297.429 312.572 297.865 312.773C298.301 312.975 298.832 313.076 299.457 313.076C299.607 313.076 299.737 313.073 299.848 313.066C299.958 313.053 300.062 313.037 300.16 313.018C300.258 312.998 300.349 312.975 300.434 312.949C300.525 312.923 300.619 312.894 300.717 312.861V309.6H298.549Z" fill="#C9D1D9"/>
<path d="M277.729 102.238V113H275.268V102.238H271.771V100.236H281.225V102.238H277.729ZM287.553 107.6V105.617H292.094V112.424C291.508 112.697 290.896 112.899 290.258 113.029C289.62 113.16 288.926 113.225 288.178 113.225C287.292 113.225 286.495 113.088 285.785 112.814C285.082 112.541 284.483 112.134 283.988 111.594C283.493 111.053 283.113 110.383 282.846 109.582C282.585 108.781 282.455 107.854 282.455 106.799C282.455 105.738 282.592 104.787 282.865 103.947C283.145 103.107 283.549 102.398 284.076 101.818C284.61 101.232 285.261 100.786 286.029 100.48C286.804 100.174 287.686 100.021 288.676 100.021C289.262 100.021 289.831 100.074 290.385 100.178C290.945 100.275 291.501 100.409 292.055 100.578V102.951C291.573 102.723 291.039 102.538 290.453 102.395C289.874 102.245 289.288 102.17 288.695 102.17C288.096 102.17 287.566 102.274 287.104 102.482C286.648 102.691 286.264 102.987 285.951 103.371C285.645 103.755 285.411 104.227 285.248 104.787C285.092 105.347 285.014 105.979 285.014 106.682C285.014 107.359 285.076 107.971 285.199 108.518C285.323 109.058 285.521 109.52 285.795 109.904C286.075 110.282 286.433 110.572 286.869 110.773C287.305 110.975 287.836 111.076 288.461 111.076C288.611 111.076 288.741 111.073 288.852 111.066C288.962 111.053 289.066 111.037 289.164 111.018C289.262 110.998 289.353 110.975 289.438 110.949C289.529 110.923 289.623 110.894 289.721 110.861V107.6H287.553ZM302.797 112.502C302.23 112.73 301.68 112.899 301.146 113.01C300.619 113.12 300.069 113.176 299.496 113.176C298.578 113.176 297.764 113.042 297.055 112.775C296.352 112.502 295.756 112.098 295.268 111.564C294.786 111.031 294.418 110.37 294.164 109.582C293.917 108.788 293.793 107.867 293.793 106.818C293.793 105.744 293.93 104.79 294.203 103.957C294.477 103.117 294.867 102.411 295.375 101.838C295.883 101.258 296.498 100.819 297.221 100.52C297.95 100.214 298.767 100.061 299.672 100.061C299.965 100.061 300.238 100.067 300.492 100.08C300.753 100.093 301.007 100.119 301.254 100.158C301.501 100.191 301.752 100.236 302.006 100.295C302.26 100.354 302.523 100.428 302.797 100.52V102.902C302.243 102.642 301.716 102.456 301.215 102.346C300.714 102.235 300.258 102.18 299.848 102.18C299.242 102.18 298.725 102.29 298.295 102.512C297.865 102.727 297.51 103.033 297.23 103.43C296.957 103.82 296.755 104.289 296.625 104.836C296.495 105.376 296.43 105.972 296.43 106.623C296.43 107.313 296.495 107.932 296.625 108.479C296.762 109.019 296.97 109.478 297.25 109.855C297.53 110.233 297.888 110.523 298.324 110.725C298.76 110.92 299.278 111.018 299.877 111.018C300.092 111.018 300.323 110.998 300.57 110.959C300.824 110.913 301.078 110.858 301.332 110.793C301.592 110.721 301.846 110.64 302.094 110.549C302.348 110.451 302.582 110.354 302.797 110.256V112.502Z" fill="#C9D1D9"/>
<path d="M110.805 108.502C110.238 108.73 109.688 108.899 109.154 109.01C108.627 109.12 108.077 109.176 107.504 109.176C106.586 109.176 105.772 109.042 105.062 108.775C104.359 108.502 103.764 108.098 103.275 107.564C102.794 107.031 102.426 106.37 102.172 105.582C101.924 104.788 101.801 103.867 101.801 102.818C101.801 101.744 101.938 100.79 102.211 99.957C102.484 99.1172 102.875 98.4108 103.383 97.8379C103.891 97.2585 104.506 96.819 105.229 96.5195C105.958 96.2135 106.775 96.0605 107.68 96.0605C107.973 96.0605 108.246 96.0671 108.5 96.0801C108.76 96.0931 109.014 96.1191 109.262 96.1582C109.509 96.1908 109.76 96.2363 110.014 96.2949C110.268 96.3535 110.531 96.4284 110.805 96.5195V98.9023C110.251 98.6419 109.724 98.4564 109.223 98.3457C108.721 98.235 108.266 98.1797 107.855 98.1797C107.25 98.1797 106.732 98.2904 106.303 98.5117C105.873 98.7266 105.518 99.0326 105.238 99.4297C104.965 99.8203 104.763 100.289 104.633 100.836C104.503 101.376 104.438 101.972 104.438 102.623C104.438 103.313 104.503 103.932 104.633 104.479C104.77 105.019 104.978 105.478 105.258 105.855C105.538 106.233 105.896 106.523 106.332 106.725C106.768 106.92 107.286 107.018 107.885 107.018C108.1 107.018 108.331 106.998 108.578 106.959C108.832 106.913 109.086 106.858 109.34 106.793C109.6 106.721 109.854 106.64 110.102 106.549C110.355 106.451 110.59 106.354 110.805 106.256V108.502ZM120.297 109L119.594 106.48H115.141L114.418 109H112.035L115.814 96.2363H119.174L122.953 109H120.297ZM117.396 98.5801L115.717 104.518H119.057L117.396 98.5801ZM129.721 98.2383V109H127.26V98.2383H123.764V96.2363H133.217V98.2383H129.721Z" fill="#C9D1D9"/>
<path d="M157.805 34.502C157.238 34.7298 156.688 34.8991 156.154 35.0098C155.627 35.1204 155.077 35.1758 154.504 35.1758C153.586 35.1758 152.772 35.0423 152.062 34.7754C151.359 34.502 150.764 34.0983 150.275 33.5645C149.794 33.0306 149.426 32.3698 149.172 31.582C148.924 30.7878 148.801 29.8665 148.801 28.8184C148.801 27.7441 148.938 26.7904 149.211 25.957C149.484 25.1172 149.875 24.4108 150.383 23.8379C150.891 23.2585 151.506 22.819 152.229 22.5195C152.958 22.2135 153.775 22.0605 154.68 22.0605C154.973 22.0605 155.246 22.0671 155.5 22.0801C155.76 22.0931 156.014 22.1191 156.262 22.1582C156.509 22.1908 156.76 22.2363 157.014 22.2949C157.268 22.3535 157.531 22.4284 157.805 22.5195V24.9023C157.251 24.6419 156.724 24.4564 156.223 24.3457C155.721 24.235 155.266 24.1797 154.855 24.1797C154.25 24.1797 153.732 24.2904 153.303 24.5117C152.873 24.7266 152.518 25.0326 152.238 25.4297C151.965 25.8203 151.763 26.2891 151.633 26.8359C151.503 27.3763 151.438 27.972 151.438 28.623C151.438 29.3132 151.503 29.9316 151.633 30.4785C151.77 31.0189 151.978 31.4779 152.258 31.8555C152.538 32.2331 152.896 32.5228 153.332 32.7246C153.768 32.9199 154.286 33.0176 154.885 33.0176C155.1 33.0176 155.331 32.998 155.578 32.959C155.832 32.9134 156.086 32.8581 156.34 32.793C156.6 32.7214 156.854 32.64 157.102 32.5488C157.355 32.4512 157.59 32.3535 157.805 32.2559V34.502ZM168.801 34.502C168.234 34.7298 167.684 34.8991 167.15 35.0098C166.623 35.1204 166.073 35.1758 165.5 35.1758C164.582 35.1758 163.768 35.0423 163.059 34.7754C162.355 34.502 161.76 34.0983 161.271 33.5645C160.79 33.0306 160.422 32.3698 160.168 31.582C159.921 30.7878 159.797 29.8665 159.797 28.8184C159.797 27.7441 159.934 26.7904 160.207 25.957C160.48 25.1172 160.871 24.4108 161.379 23.8379C161.887 23.2585 162.502 22.819 163.225 22.5195C163.954 22.2135 164.771 22.0605 165.676 22.0605C165.969 22.0605 166.242 22.0671 166.496 22.0801C166.757 22.0931 167.01 22.1191 167.258 22.1582C167.505 22.1908 167.756 22.2363 168.01 22.2949C168.264 22.3535 168.527 22.4284 168.801 22.5195V24.9023C168.247 24.6419 167.72 24.4564 167.219 24.3457C166.717 24.235 166.262 24.1797 165.852 24.1797C165.246 24.1797 164.729 24.2904 164.299 24.5117C163.869 24.7266 163.514 25.0326 163.234 25.4297C162.961 25.8203 162.759 26.2891 162.629 26.8359C162.499 27.3763 162.434 27.972 162.434 28.623C162.434 29.3132 162.499 29.9316 162.629 30.4785C162.766 31.0189 162.974 31.4779 163.254 31.8555C163.534 32.2331 163.892 32.5228 164.328 32.7246C164.764 32.9199 165.282 33.0176 165.881 33.0176C166.096 33.0176 166.327 32.998 166.574 32.959C166.828 32.9134 167.082 32.8581 167.336 32.793C167.596 32.7214 167.85 32.64 168.098 32.5488C168.352 32.4512 168.586 32.3535 168.801 32.2559V34.502ZM178.293 35L177.59 32.4805H173.137L172.414 35H170.031L173.811 22.2363H177.17L180.949 35H178.293ZM175.393 24.5801L173.713 30.5176H177.053L175.393 24.5801Z" fill="#C9D1D9"/>
<path d="M243.557 31.5996V29.6172H248.098V36.4238C247.512 36.6973 246.9 36.8991 246.262 37.0293C245.624 37.1595 244.93 37.2246 244.182 37.2246C243.296 37.2246 242.499 37.0879 241.789 36.8145C241.086 36.541 240.487 36.1341 239.992 35.5938C239.497 35.0534 239.117 34.3828 238.85 33.582C238.589 32.7812 238.459 31.8535 238.459 30.7988C238.459 29.7376 238.596 28.7871 238.869 27.9473C239.149 27.1074 239.553 26.3978 240.08 25.8184C240.614 25.2324 241.265 24.7865 242.033 24.4805C242.808 24.1745 243.69 24.0215 244.68 24.0215C245.266 24.0215 245.835 24.0736 246.389 24.1777C246.949 24.2754 247.505 24.4089 248.059 24.5781V26.9512C247.577 26.7233 247.043 26.5378 246.457 26.3945C245.878 26.2448 245.292 26.1699 244.699 26.1699C244.1 26.1699 243.57 26.2741 243.107 26.4824C242.652 26.6908 242.268 26.987 241.955 27.3711C241.649 27.7552 241.415 28.2272 241.252 28.7871C241.096 29.347 241.018 29.9785 241.018 30.6816C241.018 31.3587 241.079 31.9707 241.203 32.5176C241.327 33.0579 241.525 33.5202 241.799 33.9043C242.079 34.2819 242.437 34.5716 242.873 34.7734C243.309 34.9753 243.84 35.0762 244.465 35.0762C244.615 35.0762 244.745 35.0729 244.855 35.0664C244.966 35.0534 245.07 35.0371 245.168 35.0176C245.266 34.998 245.357 34.9753 245.441 34.9492C245.533 34.9232 245.627 34.8939 245.725 34.8613V31.5996H243.557ZM258.801 36.502C258.234 36.7298 257.684 36.8991 257.15 37.0098C256.623 37.1204 256.073 37.1758 255.5 37.1758C254.582 37.1758 253.768 37.0423 253.059 36.7754C252.355 36.502 251.76 36.0983 251.271 35.5645C250.79 35.0306 250.422 34.3698 250.168 33.582C249.921 32.7878 249.797 31.8665 249.797 30.8184C249.797 29.7441 249.934 28.7904 250.207 27.957C250.48 27.1172 250.871 26.4108 251.379 25.8379C251.887 25.2585 252.502 24.819 253.225 24.5195C253.954 24.2135 254.771 24.0605 255.676 24.0605C255.969 24.0605 256.242 24.0671 256.496 24.0801C256.757 24.0931 257.01 24.1191 257.258 24.1582C257.505 24.1908 257.756 24.2363 258.01 24.2949C258.264 24.3535 258.527 24.4284 258.801 24.5195V26.9023C258.247 26.6419 257.72 26.4564 257.219 26.3457C256.717 26.235 256.262 26.1797 255.852 26.1797C255.246 26.1797 254.729 26.2904 254.299 26.5117C253.869 26.7266 253.514 27.0326 253.234 27.4297C252.961 27.8203 252.759 28.2891 252.629 28.8359C252.499 29.3763 252.434 29.972 252.434 30.623C252.434 31.3132 252.499 31.9316 252.629 32.4785C252.766 33.0189 252.974 33.4779 253.254 33.8555C253.534 34.2331 253.892 34.5228 254.328 34.7246C254.764 34.9199 255.282 35.0176 255.881 35.0176C256.096 35.0176 256.327 34.998 256.574 34.959C256.828 34.9134 257.082 34.8581 257.336 34.793C257.596 34.7214 257.85 34.64 258.098 34.5488C258.352 34.4512 258.586 34.3535 258.801 34.2559V36.502ZM269.797 36.502C269.23 36.7298 268.68 36.8991 268.146 37.0098C267.619 37.1204 267.069 37.1758 266.496 37.1758C265.578 37.1758 264.764 37.0423 264.055 36.7754C263.352 36.502 262.756 36.0983 262.268 35.5645C261.786 35.0306 261.418 34.3698 261.164 33.582C260.917 32.7878 260.793 31.8665 260.793 30.8184C260.793 29.7441 260.93 28.7904 261.203 27.957C261.477 27.1172 261.867 26.4108 262.375 25.8379C262.883 25.2585 263.498 24.819 264.221 24.5195C264.95 24.2135 265.767 24.0605 266.672 24.0605C266.965 24.0605 267.238 24.0671 267.492 24.0801C267.753 24.0931 268.007 24.1191 268.254 24.1582C268.501 24.1908 268.752 24.2363 269.006 24.2949C269.26 24.3535 269.523 24.4284 269.797 24.5195V26.9023C269.243 26.6419 268.716 26.4564 268.215 26.3457C267.714 26.235 267.258 26.1797 266.848 26.1797C266.242 26.1797 265.725 26.2904 265.295 26.5117C264.865 26.7266 264.51 27.0326 264.23 27.4297C263.957 27.8203 263.755 28.2891 263.625 28.8359C263.495 29.3763 263.43 29.972 263.43 30.623C263.43 31.3132 263.495 31.9316 263.625 32.4785C263.762 33.0189 263.97 33.4779 264.25 33.8555C264.53 34.2331 264.888 34.5228 265.324 34.7246C265.76 34.9199 266.278 35.0176 266.877 35.0176C267.092 35.0176 267.323 34.998 267.57 34.959C267.824 34.9134 268.078 34.8581 268.332 34.793C268.592 34.7214 268.846 34.64 269.094 34.5488C269.348 34.4512 269.582 34.3535 269.797 34.2559V36.502Z" fill="#C9D1D9"/>
<path d="M148.557 381.6V379.617H153.098V386.424C152.512 386.697 151.9 386.899 151.262 387.029C150.624 387.16 149.93 387.225 149.182 387.225C148.296 387.225 147.499 387.088 146.789 386.814C146.086 386.541 145.487 386.134 144.992 385.594C144.497 385.053 144.117 384.383 143.85 383.582C143.589 382.781 143.459 381.854 143.459 380.799C143.459 379.738 143.596 378.787 143.869 377.947C144.149 377.107 144.553 376.398 145.08 375.818C145.614 375.232 146.265 374.786 147.033 374.48C147.808 374.174 148.69 374.021 149.68 374.021C150.266 374.021 150.835 374.074 151.389 374.178C151.949 374.275 152.505 374.409 153.059 374.578V376.951C152.577 376.723 152.043 376.538 151.457 376.395C150.878 376.245 150.292 376.17 149.699 376.17C149.1 376.17 148.57 376.274 148.107 376.482C147.652 376.691 147.268 376.987 146.955 377.371C146.649 377.755 146.415 378.227 146.252 378.787C146.096 379.347 146.018 379.979 146.018 380.682C146.018 381.359 146.079 381.971 146.203 382.518C146.327 383.058 146.525 383.52 146.799 383.904C147.079 384.282 147.437 384.572 147.873 384.773C148.309 384.975 148.84 385.076 149.465 385.076C149.615 385.076 149.745 385.073 149.855 385.066C149.966 385.053 150.07 385.037 150.168 385.018C150.266 384.998 150.357 384.975 150.441 384.949C150.533 384.923 150.627 384.894 150.725 384.861V381.6H148.557ZM159.553 381.6V379.617H164.094V386.424C163.508 386.697 162.896 386.899 162.258 387.029C161.62 387.16 160.926 387.225 160.178 387.225C159.292 387.225 158.495 387.088 157.785 386.814C157.082 386.541 156.483 386.134 155.988 385.594C155.493 385.053 155.113 384.383 154.846 383.582C154.585 382.781 154.455 381.854 154.455 380.799C154.455 379.738 154.592 378.787 154.865 377.947C155.145 377.107 155.549 376.398 156.076 375.818C156.61 375.232 157.261 374.786 158.029 374.48C158.804 374.174 159.686 374.021 160.676 374.021C161.262 374.021 161.831 374.074 162.385 374.178C162.945 374.275 163.501 374.409 164.055 374.578V376.951C163.573 376.723 163.039 376.538 162.453 376.395C161.874 376.245 161.288 376.17 160.695 376.17C160.096 376.17 159.566 376.274 159.104 376.482C158.648 376.691 158.264 376.987 157.951 377.371C157.645 377.755 157.411 378.227 157.248 378.787C157.092 379.347 157.014 379.979 157.014 380.682C157.014 381.359 157.076 381.971 157.199 382.518C157.323 383.058 157.521 383.52 157.795 383.904C158.075 384.282 158.433 384.572 158.869 384.773C159.305 384.975 159.836 385.076 160.461 385.076C160.611 385.076 160.741 385.073 160.852 385.066C160.962 385.053 161.066 385.037 161.164 385.018C161.262 384.998 161.353 384.975 161.438 384.949C161.529 384.923 161.623 384.894 161.721 384.861V381.6H159.553ZM173.293 387L172.59 384.48H168.137L167.414 387H165.031L168.811 374.236H172.17L175.949 387H173.293ZM170.393 376.58L168.713 382.518H172.053L170.393 376.58Z" fill="#C9D1D9"/>
<path d="M246.557 378.6V376.617H251.098V383.424C250.512 383.697 249.9 383.899 249.262 384.029C248.624 384.16 247.93 384.225 247.182 384.225C246.296 384.225 245.499 384.088 244.789 383.814C244.086 383.541 243.487 383.134 242.992 382.594C242.497 382.053 242.117 381.383 241.85 380.582C241.589 379.781 241.459 378.854 241.459 377.799C241.459 376.738 241.596 375.787 241.869 374.947C242.149 374.107 242.553 373.398 243.08 372.818C243.614 372.232 244.265 371.786 245.033 371.48C245.808 371.174 246.69 371.021 247.68 371.021C248.266 371.021 248.835 371.074 249.389 371.178C249.949 371.275 250.505 371.409 251.059 371.578V373.951C250.577 373.723 250.043 373.538 249.457 373.395C248.878 373.245 248.292 373.17 247.699 373.17C247.1 373.17 246.57 373.274 246.107 373.482C245.652 373.691 245.268 373.987 244.955 374.371C244.649 374.755 244.415 375.227 244.252 375.787C244.096 376.347 244.018 376.979 244.018 377.682C244.018 378.359 244.079 378.971 244.203 379.518C244.327 380.058 244.525 380.52 244.799 380.904C245.079 381.282 245.437 381.572 245.873 381.773C246.309 381.975 246.84 382.076 247.465 382.076C247.615 382.076 247.745 382.073 247.855 382.066C247.966 382.053 248.07 382.037 248.168 382.018C248.266 381.998 248.357 381.975 248.441 381.949C248.533 381.923 248.627 381.894 248.725 381.861V378.6H246.557ZM257.553 378.6V376.617H262.094V383.424C261.508 383.697 260.896 383.899 260.258 384.029C259.62 384.16 258.926 384.225 258.178 384.225C257.292 384.225 256.495 384.088 255.785 383.814C255.082 383.541 254.483 383.134 253.988 382.594C253.493 382.053 253.113 381.383 252.846 380.582C252.585 379.781 252.455 378.854 252.455 377.799C252.455 376.738 252.592 375.787 252.865 374.947C253.145 374.107 253.549 373.398 254.076 372.818C254.61 372.232 255.261 371.786 256.029 371.48C256.804 371.174 257.686 371.021 258.676 371.021C259.262 371.021 259.831 371.074 260.385 371.178C260.945 371.275 261.501 371.409 262.055 371.578V373.951C261.573 373.723 261.039 373.538 260.453 373.395C259.874 373.245 259.288 373.17 258.695 373.17C258.096 373.17 257.566 373.274 257.104 373.482C256.648 373.691 256.264 373.987 255.951 374.371C255.645 374.755 255.411 375.227 255.248 375.787C255.092 376.347 255.014 376.979 255.014 377.682C255.014 378.359 255.076 378.971 255.199 379.518C255.323 380.058 255.521 380.52 255.795 380.904C256.075 381.282 256.433 381.572 256.869 381.773C257.305 381.975 257.836 382.076 258.461 382.076C258.611 382.076 258.741 382.073 258.852 382.066C258.962 382.053 259.066 382.037 259.164 382.018C259.262 381.998 259.353 381.975 259.438 381.949C259.529 381.923 259.623 381.894 259.721 381.861V378.6H257.553ZM268.549 378.6V376.617H273.09V383.424C272.504 383.697 271.892 383.899 271.254 384.029C270.616 384.16 269.923 384.225 269.174 384.225C268.288 384.225 267.491 384.088 266.781 383.814C266.078 383.541 265.479 383.134 264.984 382.594C264.49 382.053 264.109 381.383 263.842 380.582C263.581 379.781 263.451 378.854 263.451 377.799C263.451 376.738 263.588 375.787 263.861 374.947C264.141 374.107 264.545 373.398 265.072 372.818C265.606 372.232 266.257 371.786 267.025 371.48C267.8 371.174 268.682 371.021 269.672 371.021C270.258 371.021 270.827 371.074 271.381 371.178C271.941 371.275 272.497 371.409 273.051 371.578V373.951C272.569 373.723 272.035 373.538 271.449 373.395C270.87 373.245 270.284 373.17 269.691 373.17C269.092 373.17 268.562 373.274 268.1 373.482C267.644 373.691 267.26 373.987 266.947 374.371C266.641 374.755 266.407 375.227 266.244 375.787C266.088 376.347 266.01 376.979 266.01 377.682C266.01 378.359 266.072 378.971 266.195 379.518C266.319 380.058 266.518 380.52 266.791 380.904C267.071 381.282 267.429 381.572 267.865 381.773C268.301 381.975 268.832 382.076 269.457 382.076C269.607 382.076 269.737 382.073 269.848 382.066C269.958 382.053 270.062 382.037 270.16 382.018C270.258 381.998 270.349 381.975 270.434 381.949C270.525 381.923 270.619 381.894 270.717 381.861V378.6H268.549Z" fill="#C9D1D9"/>
</svg>
