<svg width="438" height="410" viewBox="0 0 438 410" fill="none" xmlns="http://www.w3.org/2000/svg">
<circle cx="15" cy="207" r="14" stroke="#C4A8A8" stroke-width="2"/>
<circle cx="80" cy="207" r="14" stroke="#C4A8A8" stroke-width="2"/>
<circle cx="146" cy="207" r="14" stroke="#FFD700" stroke-width="2"/>
<circle cx="146" cy="71" r="14" stroke="#C4A8A8" stroke-width="2"/>
<circle cx="261" cy="71" r="14" stroke="#C4A8A8" stroke-width="2"/>
<circle cx="261" cy="137" r="14" stroke="#C4A8A8" stroke-width="2"/>
<circle cx="207" cy="15" r="14" stroke="#C4A8A8" stroke-width="2"/>
<circle cx="291" cy="207" r="14" stroke="#C4A8A8" stroke-width="2"/>
<circle cx="358" cy="207" r="14" stroke="#C4A8A8" stroke-width="2"/>
<circle cx="423" cy="207" r="14" stroke="#C4A8A8" stroke-width="2"/>
<path d="M35.7285 185.238V196H33.2676V185.238H29.7715V183.236H39.2246V185.238H35.7285ZM48.2969 196L47.5938 193.48H43.1406L42.418 196H40.0352L43.8145 183.236H47.1738L50.9531 196H48.2969ZM45.3965 185.58L43.7168 191.518H47.0566L45.3965 185.58ZM59.293 196L58.5898 193.48H54.1367L53.4141 196H51.0312L54.8105 183.236H58.1699L61.9492 196H59.293ZM56.3926 185.58L54.7129 191.518H58.0527L56.3926 185.58Z" fill="#C9D1D9"/>
<path d="M104.301 196L103.598 193.48H99.1445L98.4219 196H96.0391L99.8184 183.236H103.178L106.957 196H104.301ZM101.4 185.58L99.7207 191.518H103.061L101.4 185.58ZM115.297 196L114.594 193.48H110.141L109.418 196H107.035L110.814 183.236H114.174L117.953 196H115.297ZM112.396 185.58L110.717 191.518H114.057L112.396 185.58ZM124.721 185.238V196H122.26V185.238H118.764V183.236H128.217V185.238H124.721Z" fill="#C9D1D9"/>
<path d="M312.729 185.238V196H310.268V185.238H306.771V183.236H316.225V185.238H312.729ZM322.553 190.6V188.617H327.094V195.424C326.508 195.697 325.896 195.899 325.258 196.029C324.62 196.16 323.926 196.225 323.178 196.225C322.292 196.225 321.495 196.088 320.785 195.814C320.082 195.541 319.483 195.134 318.988 194.594C318.493 194.053 318.113 193.383 317.846 192.582C317.585 191.781 317.455 190.854 317.455 189.799C317.455 188.738 317.592 187.787 317.865 186.947C318.145 186.107 318.549 185.398 319.076 184.818C319.61 184.232 320.261 183.786 321.029 183.48C321.804 183.174 322.686 183.021 323.676 183.021C324.262 183.021 324.831 183.074 325.385 183.178C325.945 183.275 326.501 183.409 327.055 183.578V185.951C326.573 185.723 326.039 185.538 325.453 185.395C324.874 185.245 324.288 185.17 323.695 185.17C323.096 185.17 322.566 185.274 322.104 185.482C321.648 185.691 321.264 185.987 320.951 186.371C320.645 186.755 320.411 187.227 320.248 187.787C320.092 188.347 320.014 188.979 320.014 189.682C320.014 190.359 320.076 190.971 320.199 191.518C320.323 192.058 320.521 192.52 320.795 192.904C321.075 193.282 321.433 193.572 321.869 193.773C322.305 193.975 322.836 194.076 323.461 194.076C323.611 194.076 323.741 194.073 323.852 194.066C323.962 194.053 324.066 194.037 324.164 194.018C324.262 193.998 324.353 193.975 324.438 193.949C324.529 193.923 324.623 193.894 324.721 193.861V190.6H322.553ZM334.721 185.238V196H332.26V185.238H328.764V183.236H338.217V185.238H334.721Z" fill="#C9D1D9"/>
<path d="M378.557 190.6V188.617H383.098V195.424C382.512 195.697 381.9 195.899 381.262 196.029C380.624 196.16 379.93 196.225 379.182 196.225C378.296 196.225 377.499 196.088 376.789 195.814C376.086 195.541 375.487 195.134 374.992 194.594C374.497 194.053 374.117 193.383 373.85 192.582C373.589 191.781 373.459 190.854 373.459 189.799C373.459 188.738 373.596 187.787 373.869 186.947C374.149 186.107 374.553 185.398 375.08 184.818C375.614 184.232 376.265 183.786 377.033 183.48C377.808 183.174 378.69 183.021 379.68 183.021C380.266 183.021 380.835 183.074 381.389 183.178C381.949 183.275 382.505 183.409 383.059 183.578V185.951C382.577 185.723 382.043 185.538 381.457 185.395C380.878 185.245 380.292 185.17 379.699 185.17C379.1 185.17 378.57 185.274 378.107 185.482C377.652 185.691 377.268 185.987 376.955 186.371C376.649 186.755 376.415 187.227 376.252 187.787C376.096 188.347 376.018 188.979 376.018 189.682C376.018 190.359 376.079 190.971 376.203 191.518C376.327 192.058 376.525 192.52 376.799 192.904C377.079 193.282 377.437 193.572 377.873 193.773C378.309 193.975 378.84 194.076 379.465 194.076C379.615 194.076 379.745 194.073 379.855 194.066C379.966 194.053 380.07 194.037 380.168 194.018C380.266 193.998 380.357 193.975 380.441 193.949C380.533 193.923 380.627 193.894 380.725 193.861V190.6H378.557ZM390.725 185.238V196H388.264V185.238H384.768V183.236H394.221V185.238H390.725ZM401.721 185.238V196H399.26V185.238H395.764V183.236H405.217V185.238H401.721Z" fill="#C9D1D9"/>
<path d="M64.7071 207.707C65.0976 207.317 65.0976 206.683 64.7071 206.293L58.3431 199.929C57.9526 199.538 57.3195 199.538 56.9289 199.929C56.5384 200.319 56.5384 200.953 56.9289 201.343L62.5858 207L56.9289 212.657C56.5384 213.047 56.5384 213.681 56.9289 214.071C57.3195 214.462 57.9526 214.462 58.3431 214.071L64.7071 207.707ZM30 208H64V206H30V208Z" fill="#C4A8A8"/>
<path d="M131.207 207.707C131.598 207.317 131.598 206.683 131.207 206.293L124.843 199.929C124.453 199.538 123.819 199.538 123.429 199.929C123.038 200.319 123.038 200.953 123.429 201.343L129.086 207L123.429 212.657C123.038 213.047 123.038 213.681 123.429 214.071C123.819 214.462 124.453 214.462 124.843 214.071L131.207 207.707ZM95 208H130.5V206H95V208Z" fill="#C4A8A8"/>
<path d="M249.976 151.217C250.096 150.678 249.756 150.144 249.217 150.024L240.431 148.071C239.892 147.952 239.358 148.292 239.238 148.831C239.118 149.37 239.458 149.904 239.997 150.024L247.807 151.759L246.071 159.569C245.952 160.108 246.292 160.642 246.831 160.762C247.37 160.882 247.904 160.542 248.024 160.003L249.976 151.217ZM161.537 207.844L204.942 180.222L203.869 178.535L160.463 206.156L161.537 207.844ZM204.942 180.222L249.537 151.844L248.463 150.156L203.869 178.535L204.942 180.222Z" fill="#C4A8A8"/>
<path d="M250.976 263.783C251.096 264.322 250.756 264.856 250.217 264.976L241.431 266.929C240.892 267.048 240.358 266.708 240.238 266.169C240.118 265.63 240.458 265.096 240.997 264.976L248.807 263.241L247.071 255.431C246.952 254.892 247.292 254.358 247.831 254.238C248.37 254.118 248.904 254.458 249.024 254.997L250.976 263.783ZM162.537 207.156L205.942 234.778L204.869 236.465L161.463 208.844L162.537 207.156ZM205.942 234.778L250.537 263.156L249.463 264.844L204.869 236.465L205.942 234.778Z" fill="#C4A8A8"/>
<path d="M145.293 192.707C145.683 193.098 146.317 193.098 146.707 192.707L153.071 186.343C153.462 185.953 153.462 185.319 153.071 184.929C152.681 184.538 152.047 184.538 151.657 184.929L146 190.586L140.343 184.929C139.953 184.538 139.319 184.538 138.929 184.929C138.538 185.319 138.538 185.953 138.929 186.343L145.293 192.707ZM145 86V139.736H147V86H145ZM145 139.736V192H147V139.736H145Z" fill="#C4A8A8"/>
<path d="M261.707 85.2929C261.317 84.9024 260.683 84.9024 260.293 85.2929L253.929 91.6569C253.538 92.0474 253.538 92.6805 253.929 93.0711C254.319 93.4616 254.953 93.4616 255.343 93.0711L261 87.4142L266.657 93.0711C267.047 93.4616 267.681 93.4616 268.071 93.0711C268.462 92.6805 268.462 92.0474 268.071 91.6569L261.707 85.2929ZM262 122V103.75H260V122H262ZM262 103.75V86H260V103.75H262Z" fill="#C4A8A8"/>
<path d="M239.75 39.271L239.074 40.0081L239.076 40.0099L239.75 39.271ZM221.957 22.0011C221.405 22.0251 220.977 22.4918 221.001 23.0436L221.392 32.0351C221.416 32.5869 221.883 33.0147 222.434 32.9907C222.986 32.9667 223.414 32.5 223.39 31.9482L223.042 23.9558L231.035 23.6083C231.587 23.5843 232.015 23.1175 231.991 22.5658C231.967 22.014 231.5 21.5862 230.948 21.6102L221.957 22.0011ZM257.674 54.2612L240.424 38.5321L239.076 40.0099L256.326 55.7391L257.674 54.2612ZM240.426 38.5338L222.676 22.263L221.324 23.7373L239.074 40.0081L240.426 38.5338Z" fill="#C4A8A8"/>
<path d="M174.929 39.673L175.598 40.4159L175.6 40.4141L174.929 39.673ZM156.043 55.7402C156.014 56.2918 156.438 56.7621 156.989 56.7908L165.977 57.2583C166.529 57.287 166.999 56.8631 167.028 56.3116C167.056 55.76 166.632 55.2897 166.081 55.261L158.092 54.8455L158.507 46.8563C158.536 46.3047 158.112 45.8343 157.561 45.8057C157.009 45.777 156.539 46.2008 156.51 46.7524L156.043 55.7402ZM191.559 23.2589L174.258 38.9319L175.6 40.4141L192.901 24.7411L191.559 23.2589ZM174.26 38.9301L156.372 55.0493L157.711 56.535L175.598 40.4159L174.26 38.9301Z" fill="#C4A8A8"/>
<circle r="14" transform="matrix(1 0 0 -1 147 339)" stroke="#C4A8A8" stroke-width="2"/>
<circle r="14" transform="matrix(1 0 0 -1 262 339)" stroke="#C4A8A8" stroke-width="2"/>
<circle r="14" transform="matrix(1 0 0 -1 262 273)" stroke="#C4A8A8" stroke-width="2"/>
<circle r="14" transform="matrix(1 0 0 -1 208 395)" stroke="#C4A8A8" stroke-width="2"/>
<path d="M146.707 224.293C146.317 223.902 145.683 223.902 145.293 224.293L138.929 230.657C138.538 231.047 138.538 231.681 138.929 232.071C139.319 232.462 139.953 232.462 140.343 232.071L146 226.414L151.657 232.071C152.047 232.462 152.681 232.462 153.071 232.071C153.462 231.681 153.462 231.047 153.071 230.657L146.707 224.293ZM147 324V273.812H145V324H147ZM147 273.812V225H145V273.812H147Z" fill="#C4A8A8"/>
<path d="M262.707 324.707C262.317 325.098 261.683 325.098 261.293 324.707L254.929 318.343C254.538 317.953 254.538 317.319 254.929 316.929C255.319 316.538 255.953 316.538 256.343 316.929L262 322.586L267.657 316.929C268.047 316.538 268.681 316.538 269.071 316.929C269.462 317.319 269.462 317.953 269.071 318.343L262.707 324.707ZM263 288V306.25H261V288H263ZM263 306.25V324H261V306.25H263Z" fill="#C4A8A8"/>
<path d="M240.75 370.729L240.074 369.992L240.076 369.99L240.75 370.729ZM222.957 387.999C222.405 387.975 221.977 387.508 222.001 386.956L222.392 377.965C222.416 377.413 222.883 376.985 223.434 377.009C223.986 377.033 224.414 377.5 224.39 378.052L224.042 386.044L232.035 386.392C232.587 386.416 233.015 386.882 232.991 387.434C232.967 387.986 232.5 388.414 231.948 388.39L222.957 387.999ZM258.674 355.739L241.424 371.468L240.076 369.99L257.326 354.261L258.674 355.739ZM241.426 371.466L223.676 387.737L222.324 386.263L240.074 369.992L241.426 371.466Z" fill="#C4A8A8"/>
<path d="M175.929 370.327L176.598 369.584L176.6 369.586L175.929 370.327ZM157.043 354.26C157.014 353.708 157.438 353.238 157.989 353.209L166.977 352.742C167.529 352.713 167.999 353.137 168.028 353.688C168.056 354.24 167.632 354.71 167.081 354.739L159.092 355.155L159.507 363.144C159.536 363.695 159.112 364.166 158.561 364.194C158.009 364.223 157.539 363.799 157.51 363.248L157.043 354.26ZM192.559 386.741L175.258 371.068L176.6 369.586L193.901 385.259L192.559 386.741ZM175.26 371.07L157.372 354.951L158.711 353.465L176.598 369.584L175.26 371.07Z" fill="#C4A8A8"/>
<path d="M343.707 207.707C344.098 207.317 344.098 206.683 343.707 206.293L337.343 199.929C336.953 199.538 336.319 199.538 335.929 199.929C335.538 200.319 335.538 200.953 335.929 201.343L341.586 207L335.929 212.657C335.538 213.047 335.538 213.681 335.929 214.071C336.319 214.462 336.953 214.462 337.343 214.071L343.707 207.707ZM305 208H323.25V206H305V208ZM323.25 208H343V206H323.25V208Z" fill="#C4A8A8"/>
<path d="M276.707 207.707C277.098 207.317 277.098 206.683 276.707 206.293L270.343 199.929C269.953 199.538 269.319 199.538 268.929 199.929C268.538 200.319 268.538 200.953 268.929 201.343L274.586 207L268.929 212.657C268.538 213.047 268.538 213.681 268.929 214.071C269.319 214.462 269.953 214.462 270.343 214.071L276.707 207.707ZM161 208H216.23V206H161V208ZM216.23 208H276V206H216.23V208Z" fill="#C4A8A8"/>
<path d="M408.207 207.707C408.598 207.317 408.598 206.683 408.207 206.293L401.843 199.929C401.453 199.538 400.819 199.538 400.429 199.929C400.038 200.319 400.038 200.953 400.429 201.343L406.086 207L400.429 212.657C400.038 213.047 400.038 213.681 400.429 214.071C400.819 214.462 401.453 214.462 401.843 214.071L408.207 207.707ZM373 208H391.25V206H373V208ZM391.25 208H407.5V206H391.25V208Z" fill="#C4A8A8"/>
<path d="M13.1562 201.721H9.37695V213H7.61914V201.721H3.83984V200.236H13.1562V201.721ZM24.8945 213H23L22.1113 210.217H16.7988L15.9004 213H14.0938L18.332 200.236H20.7148L24.8945 213ZM21.6133 208.664L19.4551 201.838L17.2969 208.664H21.6133Z" fill="#C9D1D9"/>
<path d="M79.8984 213H78.0039L77.1152 210.217H71.8027L70.9043 213H69.0977L73.3359 200.236H75.7188L79.8984 213ZM76.6172 208.664L74.459 201.838L72.3008 208.664H76.6172ZM90.8945 213H89L88.1113 210.217H82.7988L81.9004 213H80.0938L84.332 200.236H86.7148L90.8945 213ZM87.6133 208.664L85.4551 201.838L83.2969 208.664H87.6133Z" fill="#C9D1D9"/>
<path d="M145.898 213H144.004L143.115 210.217H137.803L136.904 213H135.098L139.336 200.236H141.719L145.898 213ZM142.617 208.664L140.459 201.838L138.301 208.664H142.617ZM156.152 201.721H152.373V213H150.615V201.721H146.836V200.236H156.152V201.721Z" fill="#C9D1D9"/>
<path d="M145.824 334.424C145.349 334.17 144.861 333.975 144.359 333.838C143.858 333.695 143.311 333.623 142.719 333.623C142.042 333.623 141.439 333.743 140.912 333.984C140.385 334.225 139.939 334.567 139.574 335.01C139.216 335.446 138.939 335.973 138.744 336.592C138.555 337.21 138.461 337.894 138.461 338.643C138.461 339.424 138.539 340.124 138.695 340.742C138.852 341.361 139.096 341.885 139.428 342.314C139.76 342.744 140.183 343.073 140.697 343.301C141.218 343.529 141.84 343.643 142.562 343.643C142.686 343.643 142.82 343.636 142.963 343.623C143.106 343.61 143.249 343.594 143.393 343.574C143.536 343.548 143.673 343.519 143.803 343.486C143.939 343.454 144.06 343.418 144.164 343.379V339.316H141.557V337.881H145.883V344.404C145.616 344.528 145.333 344.639 145.033 344.736C144.74 344.834 144.438 344.915 144.125 344.98C143.819 345.046 143.513 345.094 143.207 345.127C142.901 345.16 142.605 345.176 142.318 345.176C141.446 345.176 140.658 345.039 139.955 344.766C139.258 344.492 138.663 344.089 138.168 343.555C137.68 343.014 137.302 342.344 137.035 341.543C136.775 340.742 136.645 339.814 136.645 338.76C136.645 337.712 136.791 336.774 137.084 335.947C137.377 335.114 137.787 334.411 138.314 333.838C138.848 333.258 139.486 332.819 140.229 332.52C140.977 332.214 141.801 332.061 142.699 332.061C143.272 332.061 143.816 332.113 144.33 332.217C144.851 332.314 145.349 332.474 145.824 332.695V334.424ZM157.895 345H156L155.111 342.217H149.799L148.9 345H147.094L151.332 332.236H153.715L157.895 345ZM154.613 340.664L152.455 333.838L150.297 340.664H154.613Z" fill="#C9D1D9"/>
<path d="M261.156 267.721H257.377V279H255.619V267.721H251.84V266.236H261.156V267.721ZM271.82 268.424C271.345 268.17 270.857 267.975 270.355 267.838C269.854 267.695 269.307 267.623 268.715 267.623C268.038 267.623 267.436 267.743 266.908 267.984C266.381 268.225 265.935 268.567 265.57 269.01C265.212 269.446 264.936 269.973 264.74 270.592C264.551 271.21 264.457 271.894 264.457 272.643C264.457 273.424 264.535 274.124 264.691 274.742C264.848 275.361 265.092 275.885 265.424 276.314C265.756 276.744 266.179 277.073 266.693 277.301C267.214 277.529 267.836 277.643 268.559 277.643C268.682 277.643 268.816 277.636 268.959 277.623C269.102 277.61 269.245 277.594 269.389 277.574C269.532 277.548 269.669 277.519 269.799 277.486C269.936 277.454 270.056 277.418 270.16 277.379V273.316H267.553V271.881H271.879V278.404C271.612 278.528 271.329 278.639 271.029 278.736C270.736 278.834 270.434 278.915 270.121 278.98C269.815 279.046 269.509 279.094 269.203 279.127C268.897 279.16 268.601 279.176 268.314 279.176C267.442 279.176 266.654 279.039 265.951 278.766C265.255 278.492 264.659 278.089 264.164 277.555C263.676 277.014 263.298 276.344 263.031 275.543C262.771 274.742 262.641 273.814 262.641 272.76C262.641 271.712 262.787 270.774 263.08 269.947C263.373 269.114 263.783 268.411 264.311 267.838C264.844 267.258 265.482 266.819 266.225 266.52C266.973 266.214 267.797 266.061 268.695 266.061C269.268 266.061 269.812 266.113 270.326 266.217C270.847 266.314 271.345 266.474 271.82 266.695V268.424Z" fill="#C9D1D9"/>
<path d="M290.156 202.721H286.377V214H284.619V202.721H280.84V201.236H290.156V202.721ZM300.82 203.424C300.345 203.17 299.857 202.975 299.355 202.838C298.854 202.695 298.307 202.623 297.715 202.623C297.038 202.623 296.436 202.743 295.908 202.984C295.381 203.225 294.935 203.567 294.57 204.01C294.212 204.446 293.936 204.973 293.74 205.592C293.551 206.21 293.457 206.894 293.457 207.643C293.457 208.424 293.535 209.124 293.691 209.742C293.848 210.361 294.092 210.885 294.424 211.314C294.756 211.744 295.179 212.073 295.693 212.301C296.214 212.529 296.836 212.643 297.559 212.643C297.682 212.643 297.816 212.636 297.959 212.623C298.102 212.61 298.245 212.594 298.389 212.574C298.532 212.548 298.669 212.519 298.799 212.486C298.936 212.454 299.056 212.418 299.16 212.379V208.316H296.553V206.881H300.879V213.404C300.612 213.528 300.329 213.639 300.029 213.736C299.736 213.834 299.434 213.915 299.121 213.98C298.815 214.046 298.509 214.094 298.203 214.127C297.897 214.16 297.601 214.176 297.314 214.176C296.442 214.176 295.654 214.039 294.951 213.766C294.255 213.492 293.659 213.089 293.164 212.555C292.676 212.014 292.298 211.344 292.031 210.543C291.771 209.742 291.641 208.814 291.641 207.76C291.641 206.712 291.787 205.774 292.08 204.947C292.373 204.114 292.783 203.411 293.311 202.838C293.844 202.258 294.482 201.819 295.225 201.52C295.973 201.214 296.797 201.061 297.695 201.061C298.268 201.061 298.812 201.113 299.326 201.217C299.847 201.314 300.345 201.474 300.82 201.695V203.424Z" fill="#C9D1D9"/>
<path d="M355.824 203.424C355.349 203.17 354.861 202.975 354.359 202.838C353.858 202.695 353.311 202.623 352.719 202.623C352.042 202.623 351.439 202.743 350.912 202.984C350.385 203.225 349.939 203.567 349.574 204.01C349.216 204.446 348.939 204.973 348.744 205.592C348.555 206.21 348.461 206.894 348.461 207.643C348.461 208.424 348.539 209.124 348.695 209.742C348.852 210.361 349.096 210.885 349.428 211.314C349.76 211.744 350.183 212.073 350.697 212.301C351.218 212.529 351.84 212.643 352.562 212.643C352.686 212.643 352.82 212.636 352.963 212.623C353.106 212.61 353.249 212.594 353.393 212.574C353.536 212.548 353.673 212.519 353.803 212.486C353.939 212.454 354.06 212.418 354.164 212.379V208.316H351.557V206.881H355.883V213.404C355.616 213.528 355.333 213.639 355.033 213.736C354.74 213.834 354.438 213.915 354.125 213.98C353.819 214.046 353.513 214.094 353.207 214.127C352.901 214.16 352.605 214.176 352.318 214.176C351.446 214.176 350.658 214.039 349.955 213.766C349.258 213.492 348.663 213.089 348.168 212.555C347.68 212.014 347.302 211.344 347.035 210.543C346.775 209.742 346.645 208.814 346.645 207.76C346.645 206.712 346.791 205.774 347.084 204.947C347.377 204.114 347.787 203.411 348.314 202.838C348.848 202.258 349.486 201.819 350.229 201.52C350.977 201.214 351.801 201.061 352.699 201.061C353.272 201.061 353.816 201.113 354.33 201.217C354.851 201.314 355.349 201.474 355.824 201.695V203.424ZM367.152 202.721H363.373V214H361.615V202.721H357.836V201.236H367.152V202.721Z" fill="#C9D1D9"/>
<path d="M423.156 202.721H419.377V214H417.619V202.721H413.84V201.236H423.156V202.721ZM434.152 202.721H430.373V214H428.615V202.721H424.836V201.236H434.152V202.721Z" fill="#C9D1D9"/>
<path d="M259.156 132.721H255.377V144H253.619V132.721H249.84V131.236H259.156V132.721ZM269.82 133.424C269.345 133.17 268.857 132.975 268.355 132.838C267.854 132.695 267.307 132.623 266.715 132.623C266.038 132.623 265.436 132.743 264.908 132.984C264.381 133.225 263.935 133.567 263.57 134.01C263.212 134.446 262.936 134.973 262.74 135.592C262.551 136.21 262.457 136.894 262.457 137.643C262.457 138.424 262.535 139.124 262.691 139.742C262.848 140.361 263.092 140.885 263.424 141.314C263.756 141.744 264.179 142.073 264.693 142.301C265.214 142.529 265.836 142.643 266.559 142.643C266.682 142.643 266.816 142.636 266.959 142.623C267.102 142.61 267.245 142.594 267.389 142.574C267.532 142.548 267.669 142.519 267.799 142.486C267.936 142.454 268.056 142.418 268.16 142.379V138.316H265.553V136.881H269.879V143.404C269.612 143.528 269.329 143.639 269.029 143.736C268.736 143.834 268.434 143.915 268.121 143.98C267.815 144.046 267.509 144.094 267.203 144.127C266.897 144.16 266.601 144.176 266.314 144.176C265.442 144.176 264.654 144.039 263.951 143.766C263.255 143.492 262.659 143.089 262.164 142.555C261.676 142.014 261.298 141.344 261.031 140.543C260.771 139.742 260.641 138.814 260.641 137.76C260.641 136.712 260.787 135.774 261.08 134.947C261.373 134.114 261.783 133.411 262.311 132.838C262.844 132.258 263.482 131.819 264.225 131.52C264.973 131.214 265.797 131.061 266.695 131.061C267.268 131.061 267.812 131.113 268.326 131.217C268.847 131.314 269.345 131.474 269.82 131.695V133.424Z" fill="#C9D1D9"/>
<path d="M258.824 67.4238C258.349 67.1699 257.861 66.9746 257.359 66.8379C256.858 66.6947 256.311 66.623 255.719 66.623C255.042 66.623 254.439 66.7435 253.912 66.9844C253.385 67.2253 252.939 67.5671 252.574 68.0098C252.216 68.446 251.939 68.9733 251.744 69.5918C251.555 70.2103 251.461 70.8939 251.461 71.6426C251.461 72.4238 251.539 73.1237 251.695 73.7422C251.852 74.3607 252.096 74.8848 252.428 75.3145C252.76 75.7441 253.183 76.0729 253.697 76.3008C254.218 76.5286 254.84 76.6426 255.562 76.6426C255.686 76.6426 255.82 76.6361 255.963 76.623C256.106 76.61 256.249 76.5938 256.393 76.5742C256.536 76.5482 256.673 76.5189 256.803 76.4863C256.939 76.4538 257.06 76.418 257.164 76.3789V72.3164H254.557V70.8809H258.883V77.4043C258.616 77.528 258.333 77.6387 258.033 77.7363C257.74 77.834 257.438 77.9154 257.125 77.9805C256.819 78.0456 256.513 78.0944 256.207 78.127C255.901 78.1595 255.605 78.1758 255.318 78.1758C254.446 78.1758 253.658 78.0391 252.955 77.7656C252.258 77.4922 251.663 77.0885 251.168 76.5547C250.68 76.0143 250.302 75.3438 250.035 74.543C249.775 73.7422 249.645 72.8145 249.645 71.7598C249.645 70.7116 249.791 69.7741 250.084 68.9473C250.377 68.1139 250.787 67.4108 251.314 66.8379C251.848 66.2585 252.486 65.819 253.229 65.5195C253.977 65.2135 254.801 65.0605 255.699 65.0605C256.272 65.0605 256.816 65.1126 257.33 65.2168C257.851 65.3145 258.349 65.474 258.824 65.6953V67.4238ZM269.713 77.5215C268.691 77.9447 267.62 78.1562 266.5 78.1562C264.697 78.1562 263.31 77.6191 262.34 76.5449C261.376 75.4642 260.895 73.8691 260.895 71.7598C260.895 70.7376 261.028 69.8132 261.295 68.9863C261.562 68.1595 261.943 67.4596 262.438 66.8867C262.932 66.3073 263.531 65.8613 264.234 65.5488C264.938 65.2363 265.725 65.0801 266.598 65.0801C267.19 65.0801 267.74 65.1322 268.248 65.2363C268.756 65.334 269.244 65.487 269.713 65.6953V67.4043C269.251 67.1504 268.772 66.9583 268.277 66.8281C267.783 66.6914 267.242 66.623 266.656 66.623C266.057 66.623 265.514 66.737 265.025 66.9648C264.544 67.1862 264.133 67.5117 263.795 67.9414C263.456 68.3646 263.196 68.8854 263.014 69.5039C262.831 70.1159 262.74 70.8158 262.74 71.6035C262.74 73.2572 263.076 74.5039 263.746 75.3438C264.417 76.1836 265.4 76.6035 266.695 76.6035C267.242 76.6035 267.766 76.5417 268.268 76.418C268.769 76.2878 269.251 76.1087 269.713 75.8809V77.5215Z" fill="#C9D1D9"/>
<path d="M205.717 20.5215C204.695 20.9447 203.624 21.1562 202.504 21.1562C200.701 21.1562 199.314 20.6191 198.344 19.5449C197.38 18.4642 196.898 16.8691 196.898 14.7598C196.898 13.7376 197.032 12.8132 197.299 11.9863C197.566 11.1595 197.947 10.4596 198.441 9.88672C198.936 9.30729 199.535 8.86133 200.238 8.54883C200.941 8.23633 201.729 8.08008 202.602 8.08008C203.194 8.08008 203.744 8.13216 204.252 8.23633C204.76 8.33398 205.248 8.48698 205.717 8.69531V10.4043C205.255 10.1504 204.776 9.95833 204.281 9.82812C203.786 9.69141 203.246 9.62305 202.66 9.62305C202.061 9.62305 201.518 9.73698 201.029 9.96484C200.548 10.1862 200.137 10.5117 199.799 10.9414C199.46 11.3646 199.2 11.8854 199.018 12.5039C198.835 13.1159 198.744 13.8158 198.744 14.6035C198.744 16.2572 199.079 17.5039 199.75 18.3438C200.421 19.1836 201.404 19.6035 202.699 19.6035C203.246 19.6035 203.77 19.5417 204.271 19.418C204.773 19.2878 205.255 19.1087 205.717 18.8809V20.5215ZM216.713 20.5215C215.691 20.9447 214.62 21.1562 213.5 21.1562C211.697 21.1562 210.31 20.6191 209.34 19.5449C208.376 18.4642 207.895 16.8691 207.895 14.7598C207.895 13.7376 208.028 12.8132 208.295 11.9863C208.562 11.1595 208.943 10.4596 209.438 9.88672C209.932 9.30729 210.531 8.86133 211.234 8.54883C211.938 8.23633 212.725 8.08008 213.598 8.08008C214.19 8.08008 214.74 8.13216 215.248 8.23633C215.756 8.33398 216.244 8.48698 216.713 8.69531V10.4043C216.251 10.1504 215.772 9.95833 215.277 9.82812C214.783 9.69141 214.242 9.62305 213.656 9.62305C213.057 9.62305 212.514 9.73698 212.025 9.96484C211.544 10.1862 211.133 10.5117 210.795 10.9414C210.456 11.3646 210.196 11.8854 210.014 12.5039C209.831 13.1159 209.74 13.8158 209.74 14.6035C209.74 16.2572 210.076 17.5039 210.746 18.3438C211.417 19.1836 212.4 19.6035 213.695 19.6035C214.242 19.6035 214.766 19.5417 215.268 19.418C215.769 19.2878 216.251 19.1087 216.713 18.8809V20.5215Z" fill="#C9D1D9"/>
<path d="M144.717 77.5215C143.695 77.9447 142.624 78.1562 141.504 78.1562C139.701 78.1562 138.314 77.6191 137.344 76.5449C136.38 75.4642 135.898 73.8691 135.898 71.7598C135.898 70.7376 136.032 69.8132 136.299 68.9863C136.566 68.1595 136.947 67.4596 137.441 66.8867C137.936 66.3073 138.535 65.8613 139.238 65.5488C139.941 65.2363 140.729 65.0801 141.602 65.0801C142.194 65.0801 142.744 65.1322 143.252 65.2363C143.76 65.334 144.248 65.487 144.717 65.6953V67.4043C144.255 67.1504 143.776 66.9583 143.281 66.8281C142.786 66.6914 142.246 66.623 141.66 66.623C141.061 66.623 140.518 66.737 140.029 66.9648C139.548 67.1862 139.137 67.5117 138.799 67.9414C138.46 68.3646 138.2 68.8854 138.018 69.5039C137.835 70.1159 137.744 70.8158 137.744 71.6035C137.744 73.2572 138.079 74.5039 138.75 75.3438C139.421 76.1836 140.404 76.6035 141.699 76.6035C142.246 76.6035 142.77 76.5417 143.271 76.418C143.773 76.2878 144.255 76.1087 144.717 75.8809V77.5215ZM156.895 78H155L154.111 75.2168H148.799L147.9 78H146.094L150.332 65.2363H152.715L156.895 78ZM153.613 73.6641L151.455 66.8379L149.297 73.6641H153.613Z" fill="#C9D1D9"/>
<path d="M260.824 334.424C260.349 334.17 259.861 333.975 259.359 333.838C258.858 333.695 258.311 333.623 257.719 333.623C257.042 333.623 256.439 333.743 255.912 333.984C255.385 334.225 254.939 334.567 254.574 335.01C254.216 335.446 253.939 335.973 253.744 336.592C253.555 337.21 253.461 337.894 253.461 338.643C253.461 339.424 253.539 340.124 253.695 340.742C253.852 341.361 254.096 341.885 254.428 342.314C254.76 342.744 255.183 343.073 255.697 343.301C256.218 343.529 256.84 343.643 257.562 343.643C257.686 343.643 257.82 343.636 257.963 343.623C258.106 343.61 258.249 343.594 258.393 343.574C258.536 343.548 258.673 343.519 258.803 343.486C258.939 343.454 259.06 343.418 259.164 343.379V339.316H256.557V337.881H260.883V344.404C260.616 344.528 260.333 344.639 260.033 344.736C259.74 344.834 259.438 344.915 259.125 344.98C258.819 345.046 258.513 345.094 258.207 345.127C257.901 345.16 257.605 345.176 257.318 345.176C256.446 345.176 255.658 345.039 254.955 344.766C254.258 344.492 253.663 344.089 253.168 343.555C252.68 343.014 252.302 342.344 252.035 341.543C251.775 340.742 251.645 339.814 251.645 338.76C251.645 337.712 251.791 336.774 252.084 335.947C252.377 335.114 252.787 334.411 253.314 333.838C253.848 333.258 254.486 332.819 255.229 332.52C255.977 332.214 256.801 332.061 257.699 332.061C258.272 332.061 258.816 332.113 259.33 332.217C259.851 332.314 260.349 332.474 260.824 332.695V334.424ZM271.82 334.424C271.345 334.17 270.857 333.975 270.355 333.838C269.854 333.695 269.307 333.623 268.715 333.623C268.038 333.623 267.436 333.743 266.908 333.984C266.381 334.225 265.935 334.567 265.57 335.01C265.212 335.446 264.936 335.973 264.74 336.592C264.551 337.21 264.457 337.894 264.457 338.643C264.457 339.424 264.535 340.124 264.691 340.742C264.848 341.361 265.092 341.885 265.424 342.314C265.756 342.744 266.179 343.073 266.693 343.301C267.214 343.529 267.836 343.643 268.559 343.643C268.682 343.643 268.816 343.636 268.959 343.623C269.102 343.61 269.245 343.594 269.389 343.574C269.532 343.548 269.669 343.519 269.799 343.486C269.936 343.454 270.056 343.418 270.16 343.379V339.316H267.553V337.881H271.879V344.404C271.612 344.528 271.329 344.639 271.029 344.736C270.736 344.834 270.434 344.915 270.121 344.98C269.815 345.046 269.509 345.094 269.203 345.127C268.897 345.16 268.601 345.176 268.314 345.176C267.442 345.176 266.654 345.039 265.951 344.766C265.255 344.492 264.659 344.089 264.164 343.555C263.676 343.014 263.298 342.344 263.031 341.543C262.771 340.742 262.641 339.814 262.641 338.76C262.641 337.712 262.787 336.774 263.08 335.947C263.373 335.114 263.783 334.411 264.311 333.838C264.844 333.258 265.482 332.819 266.225 332.52C266.973 332.214 267.797 332.061 268.695 332.061C269.268 332.061 269.812 332.113 270.326 332.217C270.847 332.314 271.345 332.474 271.82 332.695V334.424Z" fill="#C9D1D9"/>
<path d="M206.824 391.424C206.349 391.17 205.861 390.975 205.359 390.838C204.858 390.695 204.311 390.623 203.719 390.623C203.042 390.623 202.439 390.743 201.912 390.984C201.385 391.225 200.939 391.567 200.574 392.01C200.216 392.446 199.939 392.973 199.744 393.592C199.555 394.21 199.461 394.894 199.461 395.643C199.461 396.424 199.539 397.124 199.695 397.742C199.852 398.361 200.096 398.885 200.428 399.314C200.76 399.744 201.183 400.073 201.697 400.301C202.218 400.529 202.84 400.643 203.562 400.643C203.686 400.643 203.82 400.636 203.963 400.623C204.106 400.61 204.249 400.594 204.393 400.574C204.536 400.548 204.673 400.519 204.803 400.486C204.939 400.454 205.06 400.418 205.164 400.379V396.316H202.557V394.881H206.883V401.404C206.616 401.528 206.333 401.639 206.033 401.736C205.74 401.834 205.438 401.915 205.125 401.98C204.819 402.046 204.513 402.094 204.207 402.127C203.901 402.16 203.605 402.176 203.318 402.176C202.446 402.176 201.658 402.039 200.955 401.766C200.258 401.492 199.663 401.089 199.168 400.555C198.68 400.014 198.302 399.344 198.035 398.543C197.775 397.742 197.645 396.814 197.645 395.76C197.645 394.712 197.791 393.774 198.084 392.947C198.377 392.114 198.787 391.411 199.314 390.838C199.848 390.258 200.486 389.819 201.229 389.52C201.977 389.214 202.801 389.061 203.699 389.061C204.272 389.061 204.816 389.113 205.33 389.217C205.851 389.314 206.349 389.474 206.824 389.695V391.424ZM217.82 391.424C217.345 391.17 216.857 390.975 216.355 390.838C215.854 390.695 215.307 390.623 214.715 390.623C214.038 390.623 213.436 390.743 212.908 390.984C212.381 391.225 211.935 391.567 211.57 392.01C211.212 392.446 210.936 392.973 210.74 393.592C210.551 394.21 210.457 394.894 210.457 395.643C210.457 396.424 210.535 397.124 210.691 397.742C210.848 398.361 211.092 398.885 211.424 399.314C211.756 399.744 212.179 400.073 212.693 400.301C213.214 400.529 213.836 400.643 214.559 400.643C214.682 400.643 214.816 400.636 214.959 400.623C215.102 400.61 215.245 400.594 215.389 400.574C215.532 400.548 215.669 400.519 215.799 400.486C215.936 400.454 216.056 400.418 216.16 400.379V396.316H213.553V394.881H217.879V401.404C217.612 401.528 217.329 401.639 217.029 401.736C216.736 401.834 216.434 401.915 216.121 401.98C215.815 402.046 215.509 402.094 215.203 402.127C214.897 402.16 214.601 402.176 214.314 402.176C213.442 402.176 212.654 402.039 211.951 401.766C211.255 401.492 210.659 401.089 210.164 400.555C209.676 400.014 209.298 399.344 209.031 398.543C208.771 397.742 208.641 396.814 208.641 395.76C208.641 394.712 208.787 393.774 209.08 392.947C209.373 392.114 209.783 391.411 210.311 390.838C210.844 390.258 211.482 389.819 212.225 389.52C212.973 389.214 213.797 389.061 214.695 389.061C215.268 389.061 215.812 389.113 216.326 389.217C216.847 389.314 217.345 389.474 217.82 389.695V391.424Z" fill="#C9D1D9"/>
<path d="M190.301 168L189.598 165.48H185.145L184.422 168H182.039L185.818 155.236H189.178L192.957 168H190.301ZM187.4 157.58L185.721 163.518H189.061L187.4 157.58ZM199.725 157.238V168H197.264V157.238H193.768V155.236H203.221V157.238H199.725ZM209.549 162.6V160.617H214.09V167.424C213.504 167.697 212.892 167.899 212.254 168.029C211.616 168.16 210.923 168.225 210.174 168.225C209.288 168.225 208.491 168.088 207.781 167.814C207.078 167.541 206.479 167.134 205.984 166.594C205.49 166.053 205.109 165.383 204.842 164.582C204.581 163.781 204.451 162.854 204.451 161.799C204.451 160.738 204.588 159.787 204.861 158.947C205.141 158.107 205.545 157.398 206.072 156.818C206.606 156.232 207.257 155.786 208.025 155.48C208.8 155.174 209.682 155.021 210.672 155.021C211.258 155.021 211.827 155.074 212.381 155.178C212.941 155.275 213.497 155.409 214.051 155.578V157.951C213.569 157.723 213.035 157.538 212.449 157.395C211.87 157.245 211.284 157.17 210.691 157.17C210.092 157.17 209.562 157.274 209.1 157.482C208.644 157.691 208.26 157.987 207.947 158.371C207.641 158.755 207.407 159.227 207.244 159.787C207.088 160.347 207.01 160.979 207.01 161.682C207.01 162.359 207.072 162.971 207.195 163.518C207.319 164.058 207.518 164.52 207.791 164.904C208.071 165.282 208.429 165.572 208.865 165.773C209.301 165.975 209.832 166.076 210.457 166.076C210.607 166.076 210.737 166.073 210.848 166.066C210.958 166.053 211.062 166.037 211.16 166.018C211.258 165.998 211.349 165.975 211.434 165.949C211.525 165.923 211.619 165.894 211.717 165.861V162.6H209.549Z" fill="#C9D1D9"/>
<path d="M230.301 196L229.598 193.48H225.145L224.422 196H222.039L225.818 183.236H229.178L232.957 196H230.301ZM227.4 185.58L225.721 191.518H229.061L227.4 185.58ZM239.725 185.238V196H237.264V185.238H233.768V183.236H243.221V185.238H239.725ZM249.549 190.6V188.617H254.09V195.424C253.504 195.697 252.892 195.899 252.254 196.029C251.616 196.16 250.923 196.225 250.174 196.225C249.288 196.225 248.491 196.088 247.781 195.814C247.078 195.541 246.479 195.134 245.984 194.594C245.49 194.053 245.109 193.383 244.842 192.582C244.581 191.781 244.451 190.854 244.451 189.799C244.451 188.738 244.588 187.787 244.861 186.947C245.141 186.107 245.545 185.398 246.072 184.818C246.606 184.232 247.257 183.786 248.025 183.48C248.8 183.174 249.682 183.021 250.672 183.021C251.258 183.021 251.827 183.074 252.381 183.178C252.941 183.275 253.497 183.409 254.051 183.578V185.951C253.569 185.723 253.035 185.538 252.449 185.395C251.87 185.245 251.284 185.17 250.691 185.17C250.092 185.17 249.562 185.274 249.1 185.482C248.644 185.691 248.26 185.987 247.947 186.371C247.641 186.755 247.407 187.227 247.244 187.787C247.088 188.347 247.01 188.979 247.01 189.682C247.01 190.359 247.072 190.971 247.195 191.518C247.319 192.058 247.518 192.52 247.791 192.904C248.071 193.282 248.429 193.572 248.865 193.773C249.301 193.975 249.832 194.076 250.457 194.076C250.607 194.076 250.737 194.073 250.848 194.066C250.958 194.053 251.062 194.037 251.16 194.018C251.258 193.998 251.349 193.975 251.434 193.949C251.525 193.923 251.619 193.894 251.717 193.861V190.6H249.549Z" fill="#C9D1D9"/>
<path d="M210.301 236L209.598 233.48H205.145L204.422 236H202.039L205.818 223.236H209.178L212.957 236H210.301ZM207.4 225.58L205.721 231.518H209.061L207.4 225.58ZM219.725 225.238V236H217.264V225.238H213.768V223.236H223.221V225.238H219.725ZM229.549 230.6V228.617H234.09V235.424C233.504 235.697 232.892 235.899 232.254 236.029C231.616 236.16 230.923 236.225 230.174 236.225C229.288 236.225 228.491 236.088 227.781 235.814C227.078 235.541 226.479 235.134 225.984 234.594C225.49 234.053 225.109 233.383 224.842 232.582C224.581 231.781 224.451 230.854 224.451 229.799C224.451 228.738 224.588 227.787 224.861 226.947C225.141 226.107 225.545 225.398 226.072 224.818C226.606 224.232 227.257 223.786 228.025 223.48C228.8 223.174 229.682 223.021 230.672 223.021C231.258 223.021 231.827 223.074 232.381 223.178C232.941 223.275 233.497 223.409 234.051 223.578V225.951C233.569 225.723 233.035 225.538 232.449 225.395C231.87 225.245 231.284 225.17 230.691 225.17C230.092 225.17 229.562 225.274 229.1 225.482C228.644 225.691 228.26 225.987 227.947 226.371C227.641 226.755 227.407 227.227 227.244 227.787C227.088 228.347 227.01 228.979 227.01 229.682C227.01 230.359 227.072 230.971 227.195 231.518C227.319 232.058 227.518 232.52 227.791 232.904C228.071 233.282 228.429 233.572 228.865 233.773C229.301 233.975 229.832 234.076 230.457 234.076C230.607 234.076 230.737 234.073 230.848 234.066C230.958 234.053 231.062 234.037 231.16 234.018C231.258 233.998 231.349 233.975 231.434 233.949C231.525 233.923 231.619 233.894 231.717 233.861V230.6H229.549Z" fill="#C9D1D9"/>
<path d="M114.557 280.6V278.617H119.098V285.424C118.512 285.697 117.9 285.899 117.262 286.029C116.624 286.16 115.93 286.225 115.182 286.225C114.296 286.225 113.499 286.088 112.789 285.814C112.086 285.541 111.487 285.134 110.992 284.594C110.497 284.053 110.117 283.383 109.85 282.582C109.589 281.781 109.459 280.854 109.459 279.799C109.459 278.738 109.596 277.787 109.869 276.947C110.149 276.107 110.553 275.398 111.08 274.818C111.614 274.232 112.265 273.786 113.033 273.48C113.808 273.174 114.69 273.021 115.68 273.021C116.266 273.021 116.835 273.074 117.389 273.178C117.949 273.275 118.505 273.409 119.059 273.578V275.951C118.577 275.723 118.043 275.538 117.457 275.395C116.878 275.245 116.292 275.17 115.699 275.17C115.1 275.17 114.57 275.274 114.107 275.482C113.652 275.691 113.268 275.987 112.955 276.371C112.649 276.755 112.415 277.227 112.252 277.787C112.096 278.347 112.018 278.979 112.018 279.682C112.018 280.359 112.079 280.971 112.203 281.518C112.327 282.058 112.525 282.52 112.799 282.904C113.079 283.282 113.437 283.572 113.873 283.773C114.309 283.975 114.84 284.076 115.465 284.076C115.615 284.076 115.745 284.073 115.855 284.066C115.966 284.053 116.07 284.037 116.168 284.018C116.266 283.998 116.357 283.975 116.441 283.949C116.533 283.923 116.627 283.894 116.725 283.861V280.6H114.557ZM128.297 286L127.594 283.48H123.141L122.418 286H120.035L123.814 273.236H127.174L130.953 286H128.297ZM125.396 275.58L123.717 281.518H127.057L125.396 275.58ZM137.721 275.238V286H135.26V275.238H131.764V273.236H141.217V275.238H137.721Z" fill="#C9D1D9"/>
<path d="M273.729 300.238V311H271.268V300.238H267.771V298.236H277.225V300.238H273.729ZM283.553 305.6V303.617H288.094V310.424C287.508 310.697 286.896 310.899 286.258 311.029C285.62 311.16 284.926 311.225 284.178 311.225C283.292 311.225 282.495 311.088 281.785 310.814C281.082 310.541 280.483 310.134 279.988 309.594C279.493 309.053 279.113 308.383 278.846 307.582C278.585 306.781 278.455 305.854 278.455 304.799C278.455 303.738 278.592 302.787 278.865 301.947C279.145 301.107 279.549 300.398 280.076 299.818C280.61 299.232 281.261 298.786 282.029 298.48C282.804 298.174 283.686 298.021 284.676 298.021C285.262 298.021 285.831 298.074 286.385 298.178C286.945 298.275 287.501 298.409 288.055 298.578V300.951C287.573 300.723 287.039 300.538 286.453 300.395C285.874 300.245 285.288 300.17 284.695 300.17C284.096 300.17 283.566 300.274 283.104 300.482C282.648 300.691 282.264 300.987 281.951 301.371C281.645 301.755 281.411 302.227 281.248 302.787C281.092 303.347 281.014 303.979 281.014 304.682C281.014 305.359 281.076 305.971 281.199 306.518C281.323 307.058 281.521 307.52 281.795 307.904C282.075 308.282 282.433 308.572 282.869 308.773C283.305 308.975 283.836 309.076 284.461 309.076C284.611 309.076 284.741 309.073 284.852 309.066C284.962 309.053 285.066 309.037 285.164 309.018C285.262 308.998 285.353 308.975 285.438 308.949C285.529 308.923 285.623 308.894 285.721 308.861V305.6H283.553ZM294.549 305.6V303.617H299.09V310.424C298.504 310.697 297.892 310.899 297.254 311.029C296.616 311.16 295.923 311.225 295.174 311.225C294.288 311.225 293.491 311.088 292.781 310.814C292.078 310.541 291.479 310.134 290.984 309.594C290.49 309.053 290.109 308.383 289.842 307.582C289.581 306.781 289.451 305.854 289.451 304.799C289.451 303.738 289.588 302.787 289.861 301.947C290.141 301.107 290.545 300.398 291.072 299.818C291.606 299.232 292.257 298.786 293.025 298.48C293.8 298.174 294.682 298.021 295.672 298.021C296.258 298.021 296.827 298.074 297.381 298.178C297.941 298.275 298.497 298.409 299.051 298.578V300.951C298.569 300.723 298.035 300.538 297.449 300.395C296.87 300.245 296.284 300.17 295.691 300.17C295.092 300.17 294.562 300.274 294.1 300.482C293.644 300.691 293.26 300.987 292.947 301.371C292.641 301.755 292.407 302.227 292.244 302.787C292.088 303.347 292.01 303.979 292.01 304.682C292.01 305.359 292.072 305.971 292.195 306.518C292.319 307.058 292.518 307.52 292.791 307.904C293.071 308.282 293.429 308.572 293.865 308.773C294.301 308.975 294.832 309.076 295.457 309.076C295.607 309.076 295.737 309.073 295.848 309.066C295.958 309.053 296.062 309.037 296.16 309.018C296.258 308.998 296.349 308.975 296.434 308.949C296.525 308.923 296.619 308.894 296.717 308.861V305.6H294.549Z" fill="#C9D1D9"/>
<path d="M270.729 102.238V113H268.268V102.238H264.771V100.236H274.225V102.238H270.729ZM280.553 107.6V105.617H285.094V112.424C284.508 112.697 283.896 112.899 283.258 113.029C282.62 113.16 281.926 113.225 281.178 113.225C280.292 113.225 279.495 113.088 278.785 112.814C278.082 112.541 277.483 112.134 276.988 111.594C276.493 111.053 276.113 110.383 275.846 109.582C275.585 108.781 275.455 107.854 275.455 106.799C275.455 105.738 275.592 104.787 275.865 103.947C276.145 103.107 276.549 102.398 277.076 101.818C277.61 101.232 278.261 100.786 279.029 100.48C279.804 100.174 280.686 100.021 281.676 100.021C282.262 100.021 282.831 100.074 283.385 100.178C283.945 100.275 284.501 100.409 285.055 100.578V102.951C284.573 102.723 284.039 102.538 283.453 102.395C282.874 102.245 282.288 102.17 281.695 102.17C281.096 102.17 280.566 102.274 280.104 102.482C279.648 102.691 279.264 102.987 278.951 103.371C278.645 103.755 278.411 104.227 278.248 104.787C278.092 105.347 278.014 105.979 278.014 106.682C278.014 107.359 278.076 107.971 278.199 108.518C278.323 109.058 278.521 109.52 278.795 109.904C279.075 110.282 279.433 110.572 279.869 110.773C280.305 110.975 280.836 111.076 281.461 111.076C281.611 111.076 281.741 111.073 281.852 111.066C281.962 111.053 282.066 111.037 282.164 111.018C282.262 110.998 282.353 110.975 282.438 110.949C282.529 110.923 282.623 110.894 282.721 110.861V107.6H280.553ZM295.797 112.502C295.23 112.73 294.68 112.899 294.146 113.01C293.619 113.12 293.069 113.176 292.496 113.176C291.578 113.176 290.764 113.042 290.055 112.775C289.352 112.502 288.756 112.098 288.268 111.564C287.786 111.031 287.418 110.37 287.164 109.582C286.917 108.788 286.793 107.867 286.793 106.818C286.793 105.744 286.93 104.79 287.203 103.957C287.477 103.117 287.867 102.411 288.375 101.838C288.883 101.258 289.498 100.819 290.221 100.52C290.95 100.214 291.767 100.061 292.672 100.061C292.965 100.061 293.238 100.067 293.492 100.08C293.753 100.093 294.007 100.119 294.254 100.158C294.501 100.191 294.752 100.236 295.006 100.295C295.26 100.354 295.523 100.428 295.797 100.52V102.902C295.243 102.642 294.716 102.456 294.215 102.346C293.714 102.235 293.258 102.18 292.848 102.18C292.242 102.18 291.725 102.29 291.295 102.512C290.865 102.727 290.51 103.033 290.23 103.43C289.957 103.82 289.755 104.289 289.625 104.836C289.495 105.376 289.43 105.972 289.43 106.623C289.43 107.313 289.495 107.932 289.625 108.479C289.762 109.019 289.97 109.478 290.25 109.855C290.53 110.233 290.888 110.523 291.324 110.725C291.76 110.92 292.278 111.018 292.877 111.018C293.092 111.018 293.323 110.998 293.57 110.959C293.824 110.913 294.078 110.858 294.332 110.793C294.592 110.721 294.846 110.64 295.094 110.549C295.348 110.451 295.582 110.354 295.797 110.256V112.502Z" fill="#C9D1D9"/>
<path d="M117.805 132.502C117.238 132.73 116.688 132.899 116.154 133.01C115.627 133.12 115.077 133.176 114.504 133.176C113.586 133.176 112.772 133.042 112.062 132.775C111.359 132.502 110.764 132.098 110.275 131.564C109.794 131.031 109.426 130.37 109.172 129.582C108.924 128.788 108.801 127.867 108.801 126.818C108.801 125.744 108.938 124.79 109.211 123.957C109.484 123.117 109.875 122.411 110.383 121.838C110.891 121.258 111.506 120.819 112.229 120.52C112.958 120.214 113.775 120.061 114.68 120.061C114.973 120.061 115.246 120.067 115.5 120.08C115.76 120.093 116.014 120.119 116.262 120.158C116.509 120.191 116.76 120.236 117.014 120.295C117.268 120.354 117.531 120.428 117.805 120.52V122.902C117.251 122.642 116.724 122.456 116.223 122.346C115.721 122.235 115.266 122.18 114.855 122.18C114.25 122.18 113.732 122.29 113.303 122.512C112.873 122.727 112.518 123.033 112.238 123.43C111.965 123.82 111.763 124.289 111.633 124.836C111.503 125.376 111.438 125.972 111.438 126.623C111.438 127.313 111.503 127.932 111.633 128.479C111.77 129.019 111.978 129.478 112.258 129.855C112.538 130.233 112.896 130.523 113.332 130.725C113.768 130.92 114.286 131.018 114.885 131.018C115.1 131.018 115.331 130.998 115.578 130.959C115.832 130.913 116.086 130.858 116.34 130.793C116.6 130.721 116.854 130.64 117.102 130.549C117.355 130.451 117.59 130.354 117.805 130.256V132.502ZM127.297 133L126.594 130.48H122.141L121.418 133H119.035L122.814 120.236H126.174L129.953 133H127.297ZM124.396 122.58L122.717 128.518H126.057L124.396 122.58ZM136.721 122.238V133H134.26V122.238H130.764V120.236H140.217V122.238H136.721Z" fill="#C9D1D9"/>
<path d="M149.805 43.502C149.238 43.7298 148.688 43.8991 148.154 44.0098C147.627 44.1204 147.077 44.1758 146.504 44.1758C145.586 44.1758 144.772 44.0423 144.062 43.7754C143.359 43.502 142.764 43.0983 142.275 42.5645C141.794 42.0306 141.426 41.3698 141.172 40.582C140.924 39.7878 140.801 38.8665 140.801 37.8184C140.801 36.7441 140.938 35.7904 141.211 34.957C141.484 34.1172 141.875 33.4108 142.383 32.8379C142.891 32.2585 143.506 31.819 144.229 31.5195C144.958 31.2135 145.775 31.0605 146.68 31.0605C146.973 31.0605 147.246 31.0671 147.5 31.0801C147.76 31.0931 148.014 31.1191 148.262 31.1582C148.509 31.1908 148.76 31.2363 149.014 31.2949C149.268 31.3535 149.531 31.4284 149.805 31.5195V33.9023C149.251 33.6419 148.724 33.4564 148.223 33.3457C147.721 33.235 147.266 33.1797 146.855 33.1797C146.25 33.1797 145.732 33.2904 145.303 33.5117C144.873 33.7266 144.518 34.0326 144.238 34.4297C143.965 34.8203 143.763 35.2891 143.633 35.8359C143.503 36.3763 143.438 36.972 143.438 37.623C143.438 38.3132 143.503 38.9316 143.633 39.4785C143.77 40.0189 143.978 40.4779 144.258 40.8555C144.538 41.2331 144.896 41.5228 145.332 41.7246C145.768 41.9199 146.286 42.0176 146.885 42.0176C147.1 42.0176 147.331 41.998 147.578 41.959C147.832 41.9134 148.086 41.8581 148.34 41.793C148.6 41.7214 148.854 41.64 149.102 41.5488C149.355 41.4512 149.59 41.3535 149.805 41.2559V43.502ZM160.801 43.502C160.234 43.7298 159.684 43.8991 159.15 44.0098C158.623 44.1204 158.073 44.1758 157.5 44.1758C156.582 44.1758 155.768 44.0423 155.059 43.7754C154.355 43.502 153.76 43.0983 153.271 42.5645C152.79 42.0306 152.422 41.3698 152.168 40.582C151.921 39.7878 151.797 38.8665 151.797 37.8184C151.797 36.7441 151.934 35.7904 152.207 34.957C152.48 34.1172 152.871 33.4108 153.379 32.8379C153.887 32.2585 154.502 31.819 155.225 31.5195C155.954 31.2135 156.771 31.0605 157.676 31.0605C157.969 31.0605 158.242 31.0671 158.496 31.0801C158.757 31.0931 159.01 31.1191 159.258 31.1582C159.505 31.1908 159.756 31.2363 160.01 31.2949C160.264 31.3535 160.527 31.4284 160.801 31.5195V33.9023C160.247 33.6419 159.72 33.4564 159.219 33.3457C158.717 33.235 158.262 33.1797 157.852 33.1797C157.246 33.1797 156.729 33.2904 156.299 33.5117C155.869 33.7266 155.514 34.0326 155.234 34.4297C154.961 34.8203 154.759 35.2891 154.629 35.8359C154.499 36.3763 154.434 36.972 154.434 37.623C154.434 38.3132 154.499 38.9316 154.629 39.4785C154.766 40.0189 154.974 40.4779 155.254 40.8555C155.534 41.2331 155.892 41.5228 156.328 41.7246C156.764 41.9199 157.282 42.0176 157.881 42.0176C158.096 42.0176 158.327 41.998 158.574 41.959C158.828 41.9134 159.082 41.8581 159.336 41.793C159.596 41.7214 159.85 41.64 160.098 41.5488C160.352 41.4512 160.586 41.3535 160.801 41.2559V43.502ZM170.293 44L169.59 41.4805H165.137L164.414 44H162.031L165.811 31.2363H169.17L172.949 44H170.293ZM167.393 33.5801L165.713 39.5176H169.053L167.393 33.5801Z" fill="#C9D1D9"/>
<path d="M252.557 38.5996V36.6172H257.098V43.4238C256.512 43.6973 255.9 43.8991 255.262 44.0293C254.624 44.1595 253.93 44.2246 253.182 44.2246C252.296 44.2246 251.499 44.0879 250.789 43.8145C250.086 43.541 249.487 43.1341 248.992 42.5938C248.497 42.0534 248.117 41.3828 247.85 40.582C247.589 39.7812 247.459 38.8535 247.459 37.7988C247.459 36.7376 247.596 35.7871 247.869 34.9473C248.149 34.1074 248.553 33.3978 249.08 32.8184C249.614 32.2324 250.265 31.7865 251.033 31.4805C251.808 31.1745 252.69 31.0215 253.68 31.0215C254.266 31.0215 254.835 31.0736 255.389 31.1777C255.949 31.2754 256.505 31.4089 257.059 31.5781V33.9512C256.577 33.7233 256.043 33.5378 255.457 33.3945C254.878 33.2448 254.292 33.1699 253.699 33.1699C253.1 33.1699 252.57 33.2741 252.107 33.4824C251.652 33.6908 251.268 33.987 250.955 34.3711C250.649 34.7552 250.415 35.2272 250.252 35.7871C250.096 36.347 250.018 36.9785 250.018 37.6816C250.018 38.3587 250.079 38.9707 250.203 39.5176C250.327 40.0579 250.525 40.5202 250.799 40.9043C251.079 41.2819 251.437 41.5716 251.873 41.7734C252.309 41.9753 252.84 42.0762 253.465 42.0762C253.615 42.0762 253.745 42.0729 253.855 42.0664C253.966 42.0534 254.07 42.0371 254.168 42.0176C254.266 41.998 254.357 41.9753 254.441 41.9492C254.533 41.9232 254.627 41.8939 254.725 41.8613V38.5996H252.557ZM267.801 43.502C267.234 43.7298 266.684 43.8991 266.15 44.0098C265.623 44.1204 265.073 44.1758 264.5 44.1758C263.582 44.1758 262.768 44.0423 262.059 43.7754C261.355 43.502 260.76 43.0983 260.271 42.5645C259.79 42.0306 259.422 41.3698 259.168 40.582C258.921 39.7878 258.797 38.8665 258.797 37.8184C258.797 36.7441 258.934 35.7904 259.207 34.957C259.48 34.1172 259.871 33.4108 260.379 32.8379C260.887 32.2585 261.502 31.819 262.225 31.5195C262.954 31.2135 263.771 31.0605 264.676 31.0605C264.969 31.0605 265.242 31.0671 265.496 31.0801C265.757 31.0931 266.01 31.1191 266.258 31.1582C266.505 31.1908 266.756 31.2363 267.01 31.2949C267.264 31.3535 267.527 31.4284 267.801 31.5195V33.9023C267.247 33.6419 266.72 33.4564 266.219 33.3457C265.717 33.235 265.262 33.1797 264.852 33.1797C264.246 33.1797 263.729 33.2904 263.299 33.5117C262.869 33.7266 262.514 34.0326 262.234 34.4297C261.961 34.8203 261.759 35.2891 261.629 35.8359C261.499 36.3763 261.434 36.972 261.434 37.623C261.434 38.3132 261.499 38.9316 261.629 39.4785C261.766 40.0189 261.974 40.4779 262.254 40.8555C262.534 41.2331 262.892 41.5228 263.328 41.7246C263.764 41.9199 264.282 42.0176 264.881 42.0176C265.096 42.0176 265.327 41.998 265.574 41.959C265.828 41.9134 266.082 41.8581 266.336 41.793C266.596 41.7214 266.85 41.64 267.098 41.5488C267.352 41.4512 267.586 41.3535 267.801 41.2559V43.502ZM278.797 43.502C278.23 43.7298 277.68 43.8991 277.146 44.0098C276.619 44.1204 276.069 44.1758 275.496 44.1758C274.578 44.1758 273.764 44.0423 273.055 43.7754C272.352 43.502 271.756 43.0983 271.268 42.5645C270.786 42.0306 270.418 41.3698 270.164 40.582C269.917 39.7878 269.793 38.8665 269.793 37.8184C269.793 36.7441 269.93 35.7904 270.203 34.957C270.477 34.1172 270.867 33.4108 271.375 32.8379C271.883 32.2585 272.498 31.819 273.221 31.5195C273.95 31.2135 274.767 31.0605 275.672 31.0605C275.965 31.0605 276.238 31.0671 276.492 31.0801C276.753 31.0931 277.007 31.1191 277.254 31.1582C277.501 31.1908 277.752 31.2363 278.006 31.2949C278.26 31.3535 278.523 31.4284 278.797 31.5195V33.9023C278.243 33.6419 277.716 33.4564 277.215 33.3457C276.714 33.235 276.258 33.1797 275.848 33.1797C275.242 33.1797 274.725 33.2904 274.295 33.5117C273.865 33.7266 273.51 34.0326 273.23 34.4297C272.957 34.8203 272.755 35.2891 272.625 35.8359C272.495 36.3763 272.43 36.972 272.43 37.623C272.43 38.3132 272.495 38.9316 272.625 39.4785C272.762 40.0189 272.97 40.4779 273.25 40.8555C273.53 41.2331 273.888 41.5228 274.324 41.7246C274.76 41.9199 275.278 42.0176 275.877 42.0176C276.092 42.0176 276.323 41.998 276.57 41.959C276.824 41.9134 277.078 41.8581 277.332 41.793C277.592 41.7214 277.846 41.64 278.094 41.5488C278.348 41.4512 278.582 41.3535 278.797 41.2559V43.502Z" fill="#C9D1D9"/>
<path d="M146.557 380.6V378.617H151.098V385.424C150.512 385.697 149.9 385.899 149.262 386.029C148.624 386.16 147.93 386.225 147.182 386.225C146.296 386.225 145.499 386.088 144.789 385.814C144.086 385.541 143.487 385.134 142.992 384.594C142.497 384.053 142.117 383.383 141.85 382.582C141.589 381.781 141.459 380.854 141.459 379.799C141.459 378.738 141.596 377.787 141.869 376.947C142.149 376.107 142.553 375.398 143.08 374.818C143.614 374.232 144.265 373.786 145.033 373.48C145.808 373.174 146.69 373.021 147.68 373.021C148.266 373.021 148.835 373.074 149.389 373.178C149.949 373.275 150.505 373.409 151.059 373.578V375.951C150.577 375.723 150.043 375.538 149.457 375.395C148.878 375.245 148.292 375.17 147.699 375.17C147.1 375.17 146.57 375.274 146.107 375.482C145.652 375.691 145.268 375.987 144.955 376.371C144.649 376.755 144.415 377.227 144.252 377.787C144.096 378.347 144.018 378.979 144.018 379.682C144.018 380.359 144.079 380.971 144.203 381.518C144.327 382.058 144.525 382.52 144.799 382.904C145.079 383.282 145.437 383.572 145.873 383.773C146.309 383.975 146.84 384.076 147.465 384.076C147.615 384.076 147.745 384.073 147.855 384.066C147.966 384.053 148.07 384.037 148.168 384.018C148.266 383.998 148.357 383.975 148.441 383.949C148.533 383.923 148.627 383.894 148.725 383.861V380.6H146.557ZM157.553 380.6V378.617H162.094V385.424C161.508 385.697 160.896 385.899 160.258 386.029C159.62 386.16 158.926 386.225 158.178 386.225C157.292 386.225 156.495 386.088 155.785 385.814C155.082 385.541 154.483 385.134 153.988 384.594C153.493 384.053 153.113 383.383 152.846 382.582C152.585 381.781 152.455 380.854 152.455 379.799C152.455 378.738 152.592 377.787 152.865 376.947C153.145 376.107 153.549 375.398 154.076 374.818C154.61 374.232 155.261 373.786 156.029 373.48C156.804 373.174 157.686 373.021 158.676 373.021C159.262 373.021 159.831 373.074 160.385 373.178C160.945 373.275 161.501 373.409 162.055 373.578V375.951C161.573 375.723 161.039 375.538 160.453 375.395C159.874 375.245 159.288 375.17 158.695 375.17C158.096 375.17 157.566 375.274 157.104 375.482C156.648 375.691 156.264 375.987 155.951 376.371C155.645 376.755 155.411 377.227 155.248 377.787C155.092 378.347 155.014 378.979 155.014 379.682C155.014 380.359 155.076 380.971 155.199 381.518C155.323 382.058 155.521 382.52 155.795 382.904C156.075 383.282 156.433 383.572 156.869 383.773C157.305 383.975 157.836 384.076 158.461 384.076C158.611 384.076 158.741 384.073 158.852 384.066C158.962 384.053 159.066 384.037 159.164 384.018C159.262 383.998 159.353 383.975 159.438 383.949C159.529 383.923 159.623 383.894 159.721 383.861V380.6H157.553ZM171.293 386L170.59 383.48H166.137L165.414 386H163.031L166.811 373.236H170.17L173.949 386H171.293ZM168.393 375.58L166.713 381.518H170.053L168.393 375.58Z" fill="#C9D1D9"/>
<path d="M250.557 380.6V378.617H255.098V385.424C254.512 385.697 253.9 385.899 253.262 386.029C252.624 386.16 251.93 386.225 251.182 386.225C250.296 386.225 249.499 386.088 248.789 385.814C248.086 385.541 247.487 385.134 246.992 384.594C246.497 384.053 246.117 383.383 245.85 382.582C245.589 381.781 245.459 380.854 245.459 379.799C245.459 378.738 245.596 377.787 245.869 376.947C246.149 376.107 246.553 375.398 247.08 374.818C247.614 374.232 248.265 373.786 249.033 373.48C249.808 373.174 250.69 373.021 251.68 373.021C252.266 373.021 252.835 373.074 253.389 373.178C253.949 373.275 254.505 373.409 255.059 373.578V375.951C254.577 375.723 254.043 375.538 253.457 375.395C252.878 375.245 252.292 375.17 251.699 375.17C251.1 375.17 250.57 375.274 250.107 375.482C249.652 375.691 249.268 375.987 248.955 376.371C248.649 376.755 248.415 377.227 248.252 377.787C248.096 378.347 248.018 378.979 248.018 379.682C248.018 380.359 248.079 380.971 248.203 381.518C248.327 382.058 248.525 382.52 248.799 382.904C249.079 383.282 249.437 383.572 249.873 383.773C250.309 383.975 250.84 384.076 251.465 384.076C251.615 384.076 251.745 384.073 251.855 384.066C251.966 384.053 252.07 384.037 252.168 384.018C252.266 383.998 252.357 383.975 252.441 383.949C252.533 383.923 252.627 383.894 252.725 383.861V380.6H250.557ZM261.553 380.6V378.617H266.094V385.424C265.508 385.697 264.896 385.899 264.258 386.029C263.62 386.16 262.926 386.225 262.178 386.225C261.292 386.225 260.495 386.088 259.785 385.814C259.082 385.541 258.483 385.134 257.988 384.594C257.493 384.053 257.113 383.383 256.846 382.582C256.585 381.781 256.455 380.854 256.455 379.799C256.455 378.738 256.592 377.787 256.865 376.947C257.145 376.107 257.549 375.398 258.076 374.818C258.61 374.232 259.261 373.786 260.029 373.48C260.804 373.174 261.686 373.021 262.676 373.021C263.262 373.021 263.831 373.074 264.385 373.178C264.945 373.275 265.501 373.409 266.055 373.578V375.951C265.573 375.723 265.039 375.538 264.453 375.395C263.874 375.245 263.288 375.17 262.695 375.17C262.096 375.17 261.566 375.274 261.104 375.482C260.648 375.691 260.264 375.987 259.951 376.371C259.645 376.755 259.411 377.227 259.248 377.787C259.092 378.347 259.014 378.979 259.014 379.682C259.014 380.359 259.076 380.971 259.199 381.518C259.323 382.058 259.521 382.52 259.795 382.904C260.075 383.282 260.433 383.572 260.869 383.773C261.305 383.975 261.836 384.076 262.461 384.076C262.611 384.076 262.741 384.073 262.852 384.066C262.962 384.053 263.066 384.037 263.164 384.018C263.262 383.998 263.353 383.975 263.438 383.949C263.529 383.923 263.623 383.894 263.721 383.861V380.6H261.553ZM272.549 380.6V378.617H277.09V385.424C276.504 385.697 275.892 385.899 275.254 386.029C274.616 386.16 273.923 386.225 273.174 386.225C272.288 386.225 271.491 386.088 270.781 385.814C270.078 385.541 269.479 385.134 268.984 384.594C268.49 384.053 268.109 383.383 267.842 382.582C267.581 381.781 267.451 380.854 267.451 379.799C267.451 378.738 267.588 377.787 267.861 376.947C268.141 376.107 268.545 375.398 269.072 374.818C269.606 374.232 270.257 373.786 271.025 373.48C271.8 373.174 272.682 373.021 273.672 373.021C274.258 373.021 274.827 373.074 275.381 373.178C275.941 373.275 276.497 373.409 277.051 373.578V375.951C276.569 375.723 276.035 375.538 275.449 375.395C274.87 375.245 274.284 375.17 273.691 375.17C273.092 375.17 272.562 375.274 272.1 375.482C271.644 375.691 271.26 375.987 270.947 376.371C270.641 376.755 270.407 377.227 270.244 377.787C270.088 378.347 270.01 378.979 270.01 379.682C270.01 380.359 270.072 380.971 270.195 381.518C270.319 382.058 270.518 382.52 270.791 382.904C271.071 383.282 271.429 383.572 271.865 383.773C272.301 383.975 272.832 384.076 273.457 384.076C273.607 384.076 273.737 384.073 273.848 384.066C273.958 384.053 274.062 384.037 274.16 384.018C274.258 383.998 274.349 383.975 274.434 383.949C274.525 383.923 274.619 383.894 274.717 383.861V380.6H272.549Z" fill="#C9D1D9"/>
</svg>
