<svg width="551" height="386" viewBox="0 0 551 386" fill="none" xmlns="http://www.w3.org/2000/svg">
<circle cx="471" cy="209" r="14" stroke="#C4A8A8" stroke-width="2"/>
<circle cx="536" cy="209" r="14" stroke="#FFD700" stroke-width="2"/>
<path d="M494.824 187.424C494.349 187.17 493.861 186.975 493.359 186.838C492.858 186.695 492.311 186.623 491.719 186.623C491.042 186.623 490.439 186.743 489.912 186.984C489.385 187.225 488.939 187.567 488.574 188.01C488.216 188.446 487.939 188.973 487.744 189.592C487.555 190.21 487.461 190.894 487.461 191.643C487.461 192.424 487.539 193.124 487.695 193.742C487.852 194.361 488.096 194.885 488.428 195.314C488.76 195.744 489.183 196.073 489.697 196.301C490.218 196.529 490.84 196.643 491.562 196.643C491.686 196.643 491.82 196.636 491.963 196.623C492.106 196.61 492.249 196.594 492.393 196.574C492.536 196.548 492.673 196.519 492.803 196.486C492.939 196.454 493.06 196.418 493.164 196.379V192.316H490.557V190.881H494.883V197.404C494.616 197.528 494.333 197.639 494.033 197.736C493.74 197.834 493.438 197.915 493.125 197.98C492.819 198.046 492.513 198.094 492.207 198.127C491.901 198.16 491.605 198.176 491.318 198.176C490.446 198.176 489.658 198.039 488.955 197.766C488.258 197.492 487.663 197.089 487.168 196.555C486.68 196.014 486.302 195.344 486.035 194.543C485.775 193.742 485.645 192.814 485.645 191.76C485.645 190.712 485.791 189.774 486.084 188.947C486.377 188.114 486.787 187.411 487.314 186.838C487.848 186.258 488.486 185.819 489.229 185.52C489.977 185.214 490.801 185.061 491.699 185.061C492.272 185.061 492.816 185.113 493.33 185.217C493.851 185.314 494.349 185.474 494.824 185.695V187.424ZM505.713 197.521C504.691 197.945 503.62 198.156 502.5 198.156C500.697 198.156 499.31 197.619 498.34 196.545C497.376 195.464 496.895 193.869 496.895 191.76C496.895 190.738 497.028 189.813 497.295 188.986C497.562 188.16 497.943 187.46 498.438 186.887C498.932 186.307 499.531 185.861 500.234 185.549C500.938 185.236 501.725 185.08 502.598 185.08C503.19 185.08 503.74 185.132 504.248 185.236C504.756 185.334 505.244 185.487 505.713 185.695V187.404C505.251 187.15 504.772 186.958 504.277 186.828C503.783 186.691 503.242 186.623 502.656 186.623C502.057 186.623 501.514 186.737 501.025 186.965C500.544 187.186 500.133 187.512 499.795 187.941C499.456 188.365 499.196 188.885 499.014 189.504C498.831 190.116 498.74 190.816 498.74 191.604C498.74 193.257 499.076 194.504 499.746 195.344C500.417 196.184 501.4 196.604 502.695 196.604C503.242 196.604 503.766 196.542 504.268 196.418C504.769 196.288 505.251 196.109 505.713 195.881V197.521ZM516.709 197.521C515.687 197.945 514.616 198.156 513.496 198.156C511.693 198.156 510.306 197.619 509.336 196.545C508.372 195.464 507.891 193.869 507.891 191.76C507.891 190.738 508.024 189.813 508.291 188.986C508.558 188.16 508.939 187.46 509.434 186.887C509.928 186.307 510.527 185.861 511.23 185.549C511.934 185.236 512.721 185.08 513.594 185.08C514.186 185.08 514.736 185.132 515.244 185.236C515.752 185.334 516.24 185.487 516.709 185.695V187.404C516.247 187.15 515.768 186.958 515.273 186.828C514.779 186.691 514.238 186.623 513.652 186.623C513.053 186.623 512.51 186.737 512.021 186.965C511.54 187.186 511.13 187.512 510.791 187.941C510.452 188.365 510.192 188.885 510.01 189.504C509.827 190.116 509.736 190.816 509.736 191.604C509.736 193.257 510.072 194.504 510.742 195.344C511.413 196.184 512.396 196.604 513.691 196.604C514.238 196.604 514.762 196.542 515.264 196.418C515.765 196.288 516.247 196.109 516.709 195.881V197.521Z" fill="#C9D1D9"/>
<path d="M520.707 209.707C521.098 209.317 521.098 208.683 520.707 208.293L514.343 201.929C513.953 201.538 513.319 201.538 512.929 201.929C512.538 202.319 512.538 202.953 512.929 203.343L518.586 209L512.929 214.657C512.538 215.047 512.538 215.681 512.929 216.071C513.319 216.462 513.953 216.462 514.343 216.071L520.707 209.707ZM486 210H520V208H486V210Z" fill="#C4A8A8"/>
<path d="M468.824 204.424C468.349 204.17 467.861 203.975 467.359 203.838C466.858 203.695 466.311 203.623 465.719 203.623C465.042 203.623 464.439 203.743 463.912 203.984C463.385 204.225 462.939 204.567 462.574 205.01C462.216 205.446 461.939 205.973 461.744 206.592C461.555 207.21 461.461 207.894 461.461 208.643C461.461 209.424 461.539 210.124 461.695 210.742C461.852 211.361 462.096 211.885 462.428 212.314C462.76 212.744 463.183 213.073 463.697 213.301C464.218 213.529 464.84 213.643 465.562 213.643C465.686 213.643 465.82 213.636 465.963 213.623C466.106 213.61 466.249 213.594 466.393 213.574C466.536 213.548 466.673 213.519 466.803 213.486C466.939 213.454 467.06 213.418 467.164 213.379V209.316H464.557V207.881H468.883V214.404C468.616 214.528 468.333 214.639 468.033 214.736C467.74 214.834 467.438 214.915 467.125 214.98C466.819 215.046 466.513 215.094 466.207 215.127C465.901 215.16 465.605 215.176 465.318 215.176C464.446 215.176 463.658 215.039 462.955 214.766C462.258 214.492 461.663 214.089 461.168 213.555C460.68 213.014 460.302 212.344 460.035 211.543C459.775 210.742 459.645 209.814 459.645 208.76C459.645 207.712 459.791 206.774 460.084 205.947C460.377 205.114 460.787 204.411 461.314 203.838C461.848 203.258 462.486 202.819 463.229 202.52C463.977 202.214 464.801 202.061 465.699 202.061C466.272 202.061 466.816 202.113 467.33 202.217C467.851 202.314 468.349 202.474 468.824 202.695V204.424ZM479.713 214.521C478.691 214.945 477.62 215.156 476.5 215.156C474.697 215.156 473.31 214.619 472.34 213.545C471.376 212.464 470.895 210.869 470.895 208.76C470.895 207.738 471.028 206.813 471.295 205.986C471.562 205.16 471.943 204.46 472.438 203.887C472.932 203.307 473.531 202.861 474.234 202.549C474.938 202.236 475.725 202.08 476.598 202.08C477.19 202.08 477.74 202.132 478.248 202.236C478.756 202.334 479.244 202.487 479.713 202.695V204.404C479.251 204.15 478.772 203.958 478.277 203.828C477.783 203.691 477.242 203.623 476.656 203.623C476.057 203.623 475.514 203.737 475.025 203.965C474.544 204.186 474.133 204.512 473.795 204.941C473.456 205.365 473.196 205.885 473.014 206.504C472.831 207.116 472.74 207.816 472.74 208.604C472.74 210.257 473.076 211.504 473.746 212.344C474.417 213.184 475.4 213.604 476.695 213.604C477.242 213.604 477.766 213.542 478.268 213.418C478.769 213.288 479.251 213.109 479.713 212.881V214.521Z" fill="#C9D1D9"/>
<path d="M534.717 214.521C533.695 214.945 532.624 215.156 531.504 215.156C529.701 215.156 528.314 214.619 527.344 213.545C526.38 212.464 525.898 210.869 525.898 208.76C525.898 207.738 526.032 206.813 526.299 205.986C526.566 205.16 526.947 204.46 527.441 203.887C527.936 203.307 528.535 202.861 529.238 202.549C529.941 202.236 530.729 202.08 531.602 202.08C532.194 202.08 532.744 202.132 533.252 202.236C533.76 202.334 534.248 202.487 534.717 202.695V204.404C534.255 204.15 533.776 203.958 533.281 203.828C532.786 203.691 532.246 203.623 531.66 203.623C531.061 203.623 530.518 203.737 530.029 203.965C529.548 204.186 529.137 204.512 528.799 204.941C528.46 205.365 528.2 205.885 528.018 206.504C527.835 207.116 527.744 207.816 527.744 208.604C527.744 210.257 528.079 211.504 528.75 212.344C529.421 213.184 530.404 213.604 531.699 213.604C532.246 213.604 532.77 213.542 533.271 213.418C533.773 213.288 534.255 213.109 534.717 212.881V214.521ZM545.713 214.521C544.691 214.945 543.62 215.156 542.5 215.156C540.697 215.156 539.31 214.619 538.34 213.545C537.376 212.464 536.895 210.869 536.895 208.76C536.895 207.738 537.028 206.813 537.295 205.986C537.562 205.16 537.943 204.46 538.438 203.887C538.932 203.307 539.531 202.861 540.234 202.549C540.938 202.236 541.725 202.08 542.598 202.08C543.19 202.08 543.74 202.132 544.248 202.236C544.756 202.334 545.244 202.487 545.713 202.695V204.404C545.251 204.15 544.772 203.958 544.277 203.828C543.783 203.691 543.242 203.623 542.656 203.623C542.057 203.623 541.514 203.737 541.025 203.965C540.544 204.186 540.133 204.512 539.795 204.941C539.456 205.365 539.196 205.885 539.014 206.504C538.831 207.116 538.74 207.816 538.74 208.604C538.74 210.257 539.076 211.504 539.746 212.344C540.417 213.184 541.4 213.604 542.695 213.604C543.242 213.604 543.766 213.542 544.268 213.418C544.769 213.288 545.251 213.109 545.713 212.881V214.521Z" fill="#C9D1D9"/>
<circle cx="202" cy="15" r="14" stroke="#FFD700" stroke-width="2"/>
<path d="M150.717 32.5215C149.695 32.9447 148.624 33.1562 147.504 33.1562C145.701 33.1562 144.314 32.6191 143.344 31.5449C142.38 30.4642 141.898 28.8691 141.898 26.7598C141.898 25.7376 142.032 24.8132 142.299 23.9863C142.566 23.1595 142.947 22.4596 143.441 21.8867C143.936 21.3073 144.535 20.8613 145.238 20.5488C145.941 20.2363 146.729 20.0801 147.602 20.0801C148.194 20.0801 148.744 20.1322 149.252 20.2363C149.76 20.334 150.248 20.487 150.717 20.6953V22.4043C150.255 22.1504 149.776 21.9583 149.281 21.8281C148.786 21.6914 148.246 21.623 147.66 21.623C147.061 21.623 146.518 21.737 146.029 21.9648C145.548 22.1862 145.137 22.5117 144.799 22.9414C144.46 23.3646 144.2 23.8854 144.018 24.5039C143.835 25.1159 143.744 25.8158 143.744 26.6035C143.744 28.2572 144.079 29.5039 144.75 30.3438C145.421 31.1836 146.404 31.6035 147.699 31.6035C148.246 31.6035 148.77 31.5417 149.271 31.418C149.773 31.2878 150.255 31.1087 150.717 30.8809V32.5215ZM161.713 32.5215C160.691 32.9447 159.62 33.1562 158.5 33.1562C156.697 33.1562 155.31 32.6191 154.34 31.5449C153.376 30.4642 152.895 28.8691 152.895 26.7598C152.895 25.7376 153.028 24.8132 153.295 23.9863C153.562 23.1595 153.943 22.4596 154.438 21.8867C154.932 21.3073 155.531 20.8613 156.234 20.5488C156.938 20.2363 157.725 20.0801 158.598 20.0801C159.19 20.0801 159.74 20.1322 160.248 20.2363C160.756 20.334 161.244 20.487 161.713 20.6953V22.4043C161.251 22.1504 160.772 21.9583 160.277 21.8281C159.783 21.6914 159.242 21.623 158.656 21.623C158.057 21.623 157.514 21.737 157.025 21.9648C156.544 22.1862 156.133 22.5117 155.795 22.9414C155.456 23.3646 155.196 23.8854 155.014 24.5039C154.831 25.1159 154.74 25.8158 154.74 26.6035C154.74 28.2572 155.076 29.5039 155.746 30.3438C156.417 31.1836 157.4 31.6035 158.695 31.6035C159.242 31.6035 159.766 31.5417 160.268 31.418C160.769 31.2878 161.251 31.1087 161.713 30.8809V32.5215ZM173.891 33H171.996L171.107 30.2168H165.795L164.896 33H163.09L167.328 20.2363H169.711L173.891 33ZM170.609 28.6641L168.451 21.8379L166.293 28.6641H170.609Z" fill="#C9D1D9"/>
<path d="M156.001 55.9539C155.976 56.5056 156.402 56.9735 156.954 56.9989L165.944 57.4139C166.496 57.4393 166.964 57.0127 166.989 56.461C167.015 55.9093 166.588 55.4415 166.037 55.416L158.045 55.0472L158.414 47.0557C158.439 46.504 158.013 46.0361 157.461 46.0106C156.909 45.9852 156.441 46.4118 156.416 46.9635L156.001 55.9539ZM190.326 24.261L156.326 55.261L157.674 56.739L191.674 25.739L190.326 24.261Z" fill="#C4A8A8"/>
<path d="M199.717 20.5215C198.695 20.9447 197.624 21.1562 196.504 21.1562C194.701 21.1562 193.314 20.6191 192.344 19.5449C191.38 18.4642 190.898 16.8691 190.898 14.7598C190.898 13.7376 191.032 12.8132 191.299 11.9863C191.566 11.1595 191.947 10.4596 192.441 9.88672C192.936 9.30729 193.535 8.86133 194.238 8.54883C194.941 8.23633 195.729 8.08008 196.602 8.08008C197.194 8.08008 197.744 8.13216 198.252 8.23633C198.76 8.33398 199.248 8.48698 199.717 8.69531V10.4043C199.255 10.1504 198.776 9.95833 198.281 9.82812C197.786 9.69141 197.246 9.62305 196.66 9.62305C196.061 9.62305 195.518 9.73698 195.029 9.96484C194.548 10.1862 194.137 10.5117 193.799 10.9414C193.46 11.3646 193.2 11.8854 193.018 12.5039C192.835 13.1159 192.744 13.8158 192.744 14.6035C192.744 16.2572 193.079 17.5039 193.75 18.3438C194.421 19.1836 195.404 19.6035 196.699 19.6035C197.246 19.6035 197.77 19.5417 198.271 19.418C198.773 19.2878 199.255 19.1087 199.717 18.8809V20.5215ZM210.713 20.5215C209.691 20.9447 208.62 21.1562 207.5 21.1562C205.697 21.1562 204.31 20.6191 203.34 19.5449C202.376 18.4642 201.895 16.8691 201.895 14.7598C201.895 13.7376 202.028 12.8132 202.295 11.9863C202.562 11.1595 202.943 10.4596 203.438 9.88672C203.932 9.30729 204.531 8.86133 205.234 8.54883C205.938 8.23633 206.725 8.08008 207.598 8.08008C208.19 8.08008 208.74 8.13216 209.248 8.23633C209.756 8.33398 210.244 8.48698 210.713 8.69531V10.4043C210.251 10.1504 209.772 9.95833 209.277 9.82812C208.783 9.69141 208.242 9.62305 207.656 9.62305C207.057 9.62305 206.514 9.73698 206.025 9.96484C205.544 10.1862 205.133 10.5117 204.795 10.9414C204.456 11.3646 204.196 11.8854 204.014 12.5039C203.831 13.1159 203.74 13.8158 203.74 14.6035C203.74 16.2572 204.076 17.5039 204.746 18.3438C205.417 19.1836 206.4 19.6035 207.695 19.6035C208.242 19.6035 208.766 19.5417 209.268 19.418C209.769 19.2878 210.251 19.1087 210.713 18.8809V20.5215Z" fill="#C9D1D9"/>
<path d="M287.053 346.615L278.628 345.492" stroke="#C4A8A8" stroke-width="2"/>
<path d="M281.238 337.265L278 346.417" stroke="#C4A8A8" stroke-width="2"/>
<path d="M262 360.694C263.413 371.825 267.686 379.187 278.533 383.049C285.704 385.603 295.608 385.423 301.844 380.583C307.137 376.475 310.411 371.787 310.756 364.983C311.038 359.397 309.869 353.119 306.222 348.694C301.894 343.441 292.204 340.842 285.6 342.493C284.777 342.699 278.692 345.494 280 345.494" stroke="#C4A8A8" stroke-width="2" stroke-linecap="round" stroke-linejoin="round"/>
<circle cx="393" cy="208" r="14" stroke="#C4A8A8" stroke-width="2"/>
<path d="M351.824 186.424C351.349 186.17 350.861 185.975 350.359 185.838C349.858 185.695 349.311 185.623 348.719 185.623C348.042 185.623 347.439 185.743 346.912 185.984C346.385 186.225 345.939 186.567 345.574 187.01C345.216 187.446 344.939 187.973 344.744 188.592C344.555 189.21 344.461 189.894 344.461 190.643C344.461 191.424 344.539 192.124 344.695 192.742C344.852 193.361 345.096 193.885 345.428 194.314C345.76 194.744 346.183 195.073 346.697 195.301C347.218 195.529 347.84 195.643 348.562 195.643C348.686 195.643 348.82 195.636 348.963 195.623C349.106 195.61 349.249 195.594 349.393 195.574C349.536 195.548 349.673 195.519 349.803 195.486C349.939 195.454 350.06 195.418 350.164 195.379V191.316H347.557V189.881H351.883V196.404C351.616 196.528 351.333 196.639 351.033 196.736C350.74 196.834 350.438 196.915 350.125 196.98C349.819 197.046 349.513 197.094 349.207 197.127C348.901 197.16 348.605 197.176 348.318 197.176C347.446 197.176 346.658 197.039 345.955 196.766C345.258 196.492 344.663 196.089 344.168 195.555C343.68 195.014 343.302 194.344 343.035 193.543C342.775 192.742 342.645 191.814 342.645 190.76C342.645 189.712 342.791 188.774 343.084 187.947C343.377 187.114 343.787 186.411 344.314 185.838C344.848 185.258 345.486 184.819 346.229 184.52C346.977 184.214 347.801 184.061 348.699 184.061C349.272 184.061 349.816 184.113 350.33 184.217C350.851 184.314 351.349 184.474 351.824 184.695V186.424ZM363.152 185.721H359.373V197H357.615V185.721H353.836V184.236H363.152V185.721ZM374.148 185.721H370.369V197H368.611V185.721H364.832V184.236H374.148V185.721Z" fill="#C9D1D9"/>
<path d="M377.707 208.707C378.098 208.317 378.098 207.683 377.707 207.293L371.343 200.929C370.953 200.538 370.319 200.538 369.929 200.929C369.538 201.319 369.538 201.953 369.929 202.343L375.586 208L369.929 213.657C369.538 214.047 369.538 214.681 369.929 215.071C370.319 215.462 370.953 215.462 371.343 215.071L377.707 208.707ZM343 209H377V207H343V209Z" fill="#C4A8A8"/>
<path d="M392.156 202.721H388.377V214H386.619V202.721H382.84V201.236H392.156V202.721ZM403.152 202.721H399.373V214H397.615V202.721H393.836V201.236H403.152V202.721Z" fill="#C9D1D9"/>
<circle cx="15" cy="208" r="14" stroke="#C4A8A8" stroke-width="2"/>
<path d="M39.1562 186.721H35.377V198H33.6191V186.721H29.8398V185.236H39.1562V186.721ZM50.8945 198H49L48.1113 195.217H42.7988L41.9004 198H40.0938L44.332 185.236H46.7148L50.8945 198ZM47.6133 193.664L45.4551 186.838L43.2969 193.664H47.6133ZM61.8906 198H59.9961L59.1074 195.217H53.7949L52.8965 198H51.0898L55.3281 185.236H57.7109L61.8906 198ZM58.6094 193.664L56.4512 186.838L54.293 193.664H58.6094Z" fill="#C9D1D9"/>
<path d="M64.7071 208.707C65.0976 208.317 65.0976 207.683 64.7071 207.293L58.3431 200.929C57.9526 200.538 57.3195 200.538 56.9289 200.929C56.5384 201.319 56.5384 201.953 56.9289 202.343L62.5858 208L56.9289 213.657C56.5384 214.047 56.5384 214.681 56.9289 215.071C57.3195 215.462 57.9526 215.462 58.3431 215.071L64.7071 208.707ZM30 209H64V207H30V209Z" fill="#C4A8A8"/>
<path d="M13.1562 202.721H9.37695V214H7.61914V202.721H3.83984V201.236H13.1562V202.721ZM24.8945 214H23L22.1113 211.217H16.7988L15.9004 214H14.0938L18.332 201.236H20.7148L24.8945 214ZM21.6133 209.664L19.4551 202.838L17.2969 209.664H21.6133Z" fill="#C9D1D9"/>
<circle cx="80" cy="208" r="14" stroke="#C4A8A8" stroke-width="2"/>
<circle cx="145" cy="208" r="14" stroke="#C4A8A8" stroke-width="2"/>
<path d="M104.898 197H103.004L102.115 194.217H96.8027L95.9043 197H94.0977L98.3359 184.236H100.719L104.898 197ZM101.617 192.664L99.459 185.838L97.3008 192.664H101.617ZM115.895 197H114L113.111 194.217H107.799L106.9 197H105.094L109.332 184.236H111.715L115.895 197ZM112.613 192.664L110.455 185.838L108.297 192.664H112.613ZM126.148 185.721H122.369V197H120.611V185.721H116.832V184.236H126.148V185.721Z" fill="#C9D1D9"/>
<path d="M197.898 167H196.004L195.115 164.217H189.803L188.904 167H187.098L191.336 154.236H193.719L197.898 167ZM194.617 162.664L192.459 155.838L190.301 162.664H194.617ZM208.152 155.721H204.373V167H202.615V155.721H198.836V154.236H208.152V155.721ZM218.816 156.424C218.341 156.17 217.853 155.975 217.352 155.838C216.85 155.695 216.303 155.623 215.711 155.623C215.034 155.623 214.432 155.743 213.904 155.984C213.377 156.225 212.931 156.567 212.566 157.01C212.208 157.446 211.932 157.973 211.736 158.592C211.548 159.21 211.453 159.894 211.453 160.643C211.453 161.424 211.531 162.124 211.688 162.742C211.844 163.361 212.088 163.885 212.42 164.314C212.752 164.744 213.175 165.073 213.689 165.301C214.21 165.529 214.832 165.643 215.555 165.643C215.678 165.643 215.812 165.636 215.955 165.623C216.098 165.61 216.242 165.594 216.385 165.574C216.528 165.548 216.665 165.519 216.795 165.486C216.932 165.454 217.052 165.418 217.156 165.379V161.316H214.549V159.881H218.875V166.404C218.608 166.528 218.325 166.639 218.025 166.736C217.732 166.834 217.43 166.915 217.117 166.98C216.811 167.046 216.505 167.094 216.199 167.127C215.893 167.16 215.597 167.176 215.311 167.176C214.438 167.176 213.65 167.039 212.947 166.766C212.251 166.492 211.655 166.089 211.16 165.555C210.672 165.014 210.294 164.344 210.027 163.543C209.767 162.742 209.637 161.814 209.637 160.76C209.637 159.712 209.783 158.774 210.076 157.947C210.369 157.114 210.779 156.411 211.307 155.838C211.84 155.258 212.479 154.819 213.221 154.52C213.969 154.214 214.793 154.061 215.691 154.061C216.264 154.061 216.808 154.113 217.322 154.217C217.843 154.314 218.341 154.474 218.816 154.695V156.424Z" fill="#C9D1D9"/>
<path d="M197.898 239H196.004L195.115 236.217H189.803L188.904 239H187.098L191.336 226.236H193.719L197.898 239ZM194.617 234.664L192.459 227.838L190.301 234.664H194.617ZM208.152 227.721H204.373V239H202.615V227.721H198.836V226.236H208.152V227.721ZM218.816 228.424C218.341 228.17 217.853 227.975 217.352 227.838C216.85 227.695 216.303 227.623 215.711 227.623C215.034 227.623 214.432 227.743 213.904 227.984C213.377 228.225 212.931 228.567 212.566 229.01C212.208 229.446 211.932 229.973 211.736 230.592C211.548 231.21 211.453 231.894 211.453 232.643C211.453 233.424 211.531 234.124 211.688 234.742C211.844 235.361 212.088 235.885 212.42 236.314C212.752 236.744 213.175 237.073 213.689 237.301C214.21 237.529 214.832 237.643 215.555 237.643C215.678 237.643 215.812 237.636 215.955 237.623C216.098 237.61 216.242 237.594 216.385 237.574C216.528 237.548 216.665 237.519 216.795 237.486C216.932 237.454 217.052 237.418 217.156 237.379V233.316H214.549V231.881H218.875V238.404C218.608 238.528 218.325 238.639 218.025 238.736C217.732 238.834 217.43 238.915 217.117 238.98C216.811 239.046 216.505 239.094 216.199 239.127C215.893 239.16 215.597 239.176 215.311 239.176C214.438 239.176 213.65 239.039 212.947 238.766C212.251 238.492 211.655 238.089 211.16 237.555C210.672 237.014 210.294 236.344 210.027 235.543C209.767 234.742 209.637 233.814 209.637 232.76C209.637 231.712 209.783 230.774 210.076 229.947C210.369 229.114 210.779 228.411 211.307 227.838C211.84 227.258 212.479 226.819 213.221 226.52C213.969 226.214 214.793 226.061 215.691 226.061C216.264 226.061 216.808 226.113 217.322 226.217C217.843 226.314 218.341 226.474 218.816 226.695V228.424Z" fill="#C9D1D9"/>
<path d="M197.898 203H196.004L195.115 200.217H189.803L188.904 203H187.098L191.336 190.236H193.719L197.898 203ZM194.617 198.664L192.459 191.838L190.301 198.664H194.617ZM208.152 191.721H204.373V203H202.615V191.721H198.836V190.236H208.152V191.721ZM218.816 192.424C218.341 192.17 217.853 191.975 217.352 191.838C216.85 191.695 216.303 191.623 215.711 191.623C215.034 191.623 214.432 191.743 213.904 191.984C213.377 192.225 212.931 192.567 212.566 193.01C212.208 193.446 211.932 193.973 211.736 194.592C211.548 195.21 211.453 195.894 211.453 196.643C211.453 197.424 211.531 198.124 211.688 198.742C211.844 199.361 212.088 199.885 212.42 200.314C212.752 200.744 213.175 201.073 213.689 201.301C214.21 201.529 214.832 201.643 215.555 201.643C215.678 201.643 215.812 201.636 215.955 201.623C216.098 201.61 216.242 201.594 216.385 201.574C216.528 201.548 216.665 201.519 216.795 201.486C216.932 201.454 217.052 201.418 217.156 201.379V197.316H214.549V195.881H218.875V202.404C218.608 202.528 218.325 202.639 218.025 202.736C217.732 202.834 217.43 202.915 217.117 202.98C216.811 203.046 216.505 203.094 216.199 203.127C215.893 203.16 215.597 203.176 215.311 203.176C214.438 203.176 213.65 203.039 212.947 202.766C212.251 202.492 211.655 202.089 211.16 201.555C210.672 201.014 210.294 200.344 210.027 199.543C209.767 198.742 209.637 197.814 209.637 196.76C209.637 195.712 209.783 194.774 210.076 193.947C210.369 193.114 210.779 192.411 211.307 191.838C211.84 191.258 212.479 190.819 213.221 190.52C213.969 190.214 214.793 190.061 215.691 190.061C216.264 190.061 216.808 190.113 217.322 190.217C217.843 190.314 218.341 190.474 218.816 190.695V192.424Z" fill="#C9D1D9"/>
<path d="M129.707 208.707C130.098 208.317 130.098 207.683 129.707 207.293L123.343 200.929C122.953 200.538 122.319 200.538 121.929 200.929C121.538 201.319 121.538 201.953 121.929 202.343L127.586 208L121.929 213.657C121.538 214.047 121.538 214.681 121.929 215.071C122.319 215.462 122.953 215.462 123.343 215.071L129.707 208.707ZM95 209H129V207H95V209Z" fill="#C4A8A8"/>
<path d="M312.707 208.707C313.098 208.317 313.098 207.683 312.707 207.293L306.343 200.929C305.953 200.538 305.319 200.538 304.929 200.929C304.538 201.319 304.538 201.953 304.929 202.343L310.586 208L304.929 213.657C304.538 214.047 304.538 214.681 304.929 215.071C305.319 215.462 305.953 215.462 306.343 215.071L312.707 208.707ZM278 209H312V207H278V209Z" fill="#C4A8A8"/>
<path d="M78.8984 214H77.0039L76.1152 211.217H70.8027L69.9043 214H68.0977L72.3359 201.236H74.7188L78.8984 214ZM75.6172 209.664L73.459 202.838L71.3008 209.664H75.6172ZM89.8945 214H88L87.1113 211.217H81.7988L80.9004 214H79.0938L83.332 201.236H85.7148L89.8945 214ZM86.6133 209.664L84.4551 202.838L82.2969 209.664H86.6133Z" fill="#C9D1D9"/>
<path d="M144.898 214H143.004L142.115 211.217H136.803L135.904 214H134.098L138.336 201.236H140.719L144.898 214ZM141.617 209.664L139.459 202.838L137.301 209.664H141.617ZM155.152 202.721H151.373V214H149.615V202.721H145.836V201.236H155.152V202.721Z" fill="#C9D1D9"/>
<circle cx="263" cy="208" r="14" stroke="#C4A8A8" stroke-width="2"/>
<path d="M262.156 202.721H258.377V214H256.619V202.721H252.84V201.236H262.156V202.721ZM272.82 203.424C272.345 203.17 271.857 202.975 271.355 202.838C270.854 202.695 270.307 202.623 269.715 202.623C269.038 202.623 268.436 202.743 267.908 202.984C267.381 203.225 266.935 203.567 266.57 204.01C266.212 204.446 265.936 204.973 265.74 205.592C265.551 206.21 265.457 206.894 265.457 207.643C265.457 208.424 265.535 209.124 265.691 209.742C265.848 210.361 266.092 210.885 266.424 211.314C266.756 211.744 267.179 212.073 267.693 212.301C268.214 212.529 268.836 212.643 269.559 212.643C269.682 212.643 269.816 212.636 269.959 212.623C270.102 212.61 270.245 212.594 270.389 212.574C270.532 212.548 270.669 212.519 270.799 212.486C270.936 212.454 271.056 212.418 271.16 212.379V208.316H268.553V206.881H272.879V213.404C272.612 213.528 272.329 213.639 272.029 213.736C271.736 213.834 271.434 213.915 271.121 213.98C270.815 214.046 270.509 214.094 270.203 214.127C269.897 214.16 269.601 214.176 269.314 214.176C268.442 214.176 267.654 214.039 266.951 213.766C266.255 213.492 265.659 213.089 265.164 212.555C264.676 212.014 264.298 211.344 264.031 210.543C263.771 209.742 263.641 208.814 263.641 207.76C263.641 206.712 263.787 205.774 264.08 204.947C264.373 204.114 264.783 203.411 265.311 202.838C265.844 202.258 266.482 201.819 267.225 201.52C267.973 201.214 268.797 201.061 269.695 201.061C270.268 201.061 270.812 201.113 271.326 201.217C271.847 201.314 272.345 201.474 272.82 201.695V203.424Z" fill="#C9D1D9"/>
<circle cx="145" cy="68" r="14" stroke="#C4A8A8" stroke-width="2"/>
<path d="M143.717 73.5215C142.695 73.9447 141.624 74.1562 140.504 74.1562C138.701 74.1562 137.314 73.6191 136.344 72.5449C135.38 71.4642 134.898 69.8691 134.898 67.7598C134.898 66.7376 135.032 65.8132 135.299 64.9863C135.566 64.1595 135.947 63.4596 136.441 62.8867C136.936 62.3073 137.535 61.8613 138.238 61.5488C138.941 61.2363 139.729 61.0801 140.602 61.0801C141.194 61.0801 141.744 61.1322 142.252 61.2363C142.76 61.334 143.248 61.487 143.717 61.6953V63.4043C143.255 63.1504 142.776 62.9583 142.281 62.8281C141.786 62.6914 141.246 62.623 140.66 62.623C140.061 62.623 139.518 62.737 139.029 62.9648C138.548 63.1862 138.137 63.5117 137.799 63.9414C137.46 64.3646 137.2 64.8854 137.018 65.5039C136.835 66.1159 136.744 66.8158 136.744 67.6035C136.744 69.2572 137.079 70.5039 137.75 71.3438C138.421 72.1836 139.404 72.6035 140.699 72.6035C141.246 72.6035 141.77 72.5417 142.271 72.418C142.773 72.2878 143.255 72.1087 143.717 71.8809V73.5215ZM155.895 74H154L153.111 71.2168H147.799L146.9 74H145.094L149.332 61.2363H151.715L155.895 74ZM152.613 69.6641L150.455 62.8379L148.297 69.6641H152.613Z" fill="#C9D1D9"/>
<circle cx="328" cy="207" r="14" stroke="#C4A8A8" stroke-width="2"/>
<path d="M326.824 202.424C326.349 202.17 325.861 201.975 325.359 201.838C324.858 201.695 324.311 201.623 323.719 201.623C323.042 201.623 322.439 201.743 321.912 201.984C321.385 202.225 320.939 202.567 320.574 203.01C320.216 203.446 319.939 203.973 319.744 204.592C319.555 205.21 319.461 205.894 319.461 206.643C319.461 207.424 319.539 208.124 319.695 208.742C319.852 209.361 320.096 209.885 320.428 210.314C320.76 210.744 321.183 211.073 321.697 211.301C322.218 211.529 322.84 211.643 323.562 211.643C323.686 211.643 323.82 211.636 323.963 211.623C324.106 211.61 324.249 211.594 324.393 211.574C324.536 211.548 324.673 211.519 324.803 211.486C324.939 211.454 325.06 211.418 325.164 211.379V207.316H322.557V205.881H326.883V212.404C326.616 212.528 326.333 212.639 326.033 212.736C325.74 212.834 325.438 212.915 325.125 212.98C324.819 213.046 324.513 213.094 324.207 213.127C323.901 213.16 323.605 213.176 323.318 213.176C322.446 213.176 321.658 213.039 320.955 212.766C320.258 212.492 319.663 212.089 319.168 211.555C318.68 211.014 318.302 210.344 318.035 209.543C317.775 208.742 317.645 207.814 317.645 206.76C317.645 205.712 317.791 204.774 318.084 203.947C318.377 203.114 318.787 202.411 319.314 201.838C319.848 201.258 320.486 200.819 321.229 200.52C321.977 200.214 322.801 200.061 323.699 200.061C324.272 200.061 324.816 200.113 325.33 200.217C325.851 200.314 326.349 200.474 326.824 200.695V202.424ZM338.152 201.721H334.373V213H332.615V201.721H328.836V200.236H338.152V201.721Z" fill="#C9D1D9"/>
<circle cx="263" cy="68" r="14" stroke="#C4A8A8" stroke-width="2"/>
<path d="M261.824 63.4238C261.349 63.1699 260.861 62.9746 260.359 62.8379C259.858 62.6947 259.311 62.623 258.719 62.623C258.042 62.623 257.439 62.7435 256.912 62.9844C256.385 63.2253 255.939 63.5671 255.574 64.0098C255.216 64.446 254.939 64.9733 254.744 65.5918C254.555 66.2103 254.461 66.8939 254.461 67.6426C254.461 68.4238 254.539 69.1237 254.695 69.7422C254.852 70.3607 255.096 70.8848 255.428 71.3145C255.76 71.7441 256.183 72.0729 256.697 72.3008C257.218 72.5286 257.84 72.6426 258.562 72.6426C258.686 72.6426 258.82 72.6361 258.963 72.623C259.106 72.61 259.249 72.5938 259.393 72.5742C259.536 72.5482 259.673 72.5189 259.803 72.4863C259.939 72.4538 260.06 72.418 260.164 72.3789V68.3164H257.557V66.8809H261.883V73.4043C261.616 73.528 261.333 73.6387 261.033 73.7363C260.74 73.834 260.438 73.9154 260.125 73.9805C259.819 74.0456 259.513 74.0944 259.207 74.127C258.901 74.1595 258.605 74.1758 258.318 74.1758C257.446 74.1758 256.658 74.0391 255.955 73.7656C255.258 73.4922 254.663 73.0885 254.168 72.5547C253.68 72.0143 253.302 71.3438 253.035 70.543C252.775 69.7422 252.645 68.8145 252.645 67.7598C252.645 66.7116 252.791 65.7741 253.084 64.9473C253.377 64.1139 253.787 63.4108 254.314 62.8379C254.848 62.2585 255.486 61.819 256.229 61.5195C256.977 61.2135 257.801 61.0605 258.699 61.0605C259.272 61.0605 259.816 61.1126 260.33 61.2168C260.851 61.3145 261.349 61.474 261.824 61.6953V63.4238ZM272.713 73.5215C271.691 73.9447 270.62 74.1562 269.5 74.1562C267.697 74.1562 266.31 73.6191 265.34 72.5449C264.376 71.4642 263.895 69.8691 263.895 67.7598C263.895 66.7376 264.028 65.8132 264.295 64.9863C264.562 64.1595 264.943 63.4596 265.438 62.8867C265.932 62.3073 266.531 61.8613 267.234 61.5488C267.938 61.2363 268.725 61.0801 269.598 61.0801C270.19 61.0801 270.74 61.1322 271.248 61.2363C271.756 61.334 272.244 61.487 272.713 61.6953V63.4043C272.251 63.1504 271.772 62.9583 271.277 62.8281C270.783 62.6914 270.242 62.623 269.656 62.623C269.057 62.623 268.514 62.737 268.025 62.9648C267.544 63.1862 267.133 63.5117 266.795 63.9414C266.456 64.3646 266.196 64.8854 266.014 65.5039C265.831 66.1159 265.74 66.8158 265.74 67.6035C265.74 69.2572 266.076 70.5039 266.746 71.3438C267.417 72.1836 268.4 72.6035 269.695 72.6035C270.242 72.6035 270.766 72.5417 271.268 72.418C271.769 72.2878 272.251 72.1087 272.713 71.8809V73.5215Z" fill="#C9D1D9"/>
<circle cx="263" cy="346" r="14" stroke="#C4A8A8" stroke-width="2"/>
<path d="M261.824 341.424C261.349 341.17 260.861 340.975 260.359 340.838C259.858 340.695 259.311 340.623 258.719 340.623C258.042 340.623 257.439 340.743 256.912 340.984C256.385 341.225 255.939 341.567 255.574 342.01C255.216 342.446 254.939 342.973 254.744 343.592C254.555 344.21 254.461 344.894 254.461 345.643C254.461 346.424 254.539 347.124 254.695 347.742C254.852 348.361 255.096 348.885 255.428 349.314C255.76 349.744 256.183 350.073 256.697 350.301C257.218 350.529 257.84 350.643 258.562 350.643C258.686 350.643 258.82 350.636 258.963 350.623C259.106 350.61 259.249 350.594 259.393 350.574C259.536 350.548 259.673 350.519 259.803 350.486C259.939 350.454 260.06 350.418 260.164 350.379V346.316H257.557V344.881H261.883V351.404C261.616 351.528 261.333 351.639 261.033 351.736C260.74 351.834 260.438 351.915 260.125 351.98C259.819 352.046 259.513 352.094 259.207 352.127C258.901 352.16 258.605 352.176 258.318 352.176C257.446 352.176 256.658 352.039 255.955 351.766C255.258 351.492 254.663 351.089 254.168 350.555C253.68 350.014 253.302 349.344 253.035 348.543C252.775 347.742 252.645 346.814 252.645 345.76C252.645 344.712 252.791 343.774 253.084 342.947C253.377 342.114 253.787 341.411 254.314 340.838C254.848 340.258 255.486 339.819 256.229 339.52C256.977 339.214 257.801 339.061 258.699 339.061C259.272 339.061 259.816 339.113 260.33 339.217C260.851 339.314 261.349 339.474 261.824 339.695V341.424ZM272.82 341.424C272.345 341.17 271.857 340.975 271.355 340.838C270.854 340.695 270.307 340.623 269.715 340.623C269.038 340.623 268.436 340.743 267.908 340.984C267.381 341.225 266.935 341.567 266.57 342.01C266.212 342.446 265.936 342.973 265.74 343.592C265.551 344.21 265.457 344.894 265.457 345.643C265.457 346.424 265.535 347.124 265.691 347.742C265.848 348.361 266.092 348.885 266.424 349.314C266.756 349.744 267.179 350.073 267.693 350.301C268.214 350.529 268.836 350.643 269.559 350.643C269.682 350.643 269.816 350.636 269.959 350.623C270.102 350.61 270.245 350.594 270.389 350.574C270.532 350.548 270.669 350.519 270.799 350.486C270.936 350.454 271.056 350.418 271.16 350.379V346.316H268.553V344.881H272.879V351.404C272.612 351.528 272.329 351.639 272.029 351.736C271.736 351.834 271.434 351.915 271.121 351.98C270.815 352.046 270.509 352.094 270.203 352.127C269.897 352.16 269.601 352.176 269.314 352.176C268.442 352.176 267.654 352.039 266.951 351.766C266.255 351.492 265.659 351.089 265.164 350.555C264.676 350.014 264.298 349.344 264.031 348.543C263.771 347.742 263.641 346.814 263.641 345.76C263.641 344.712 263.787 343.774 264.08 342.947C264.373 342.114 264.783 341.411 265.311 340.838C265.844 340.258 266.482 339.819 267.225 339.52C267.973 339.214 268.797 339.061 269.695 339.061C270.268 339.061 270.812 339.113 271.326 339.217C271.847 339.314 272.345 339.474 272.82 339.695V341.424Z" fill="#C9D1D9"/>
<circle cx="145" cy="348" r="14" stroke="#C4A8A8" stroke-width="2"/>
<path d="M143.824 343.424C143.349 343.17 142.861 342.975 142.359 342.838C141.858 342.695 141.311 342.623 140.719 342.623C140.042 342.623 139.439 342.743 138.912 342.984C138.385 343.225 137.939 343.567 137.574 344.01C137.216 344.446 136.939 344.973 136.744 345.592C136.555 346.21 136.461 346.894 136.461 347.643C136.461 348.424 136.539 349.124 136.695 349.742C136.852 350.361 137.096 350.885 137.428 351.314C137.76 351.744 138.183 352.073 138.697 352.301C139.218 352.529 139.84 352.643 140.562 352.643C140.686 352.643 140.82 352.636 140.963 352.623C141.106 352.61 141.249 352.594 141.393 352.574C141.536 352.548 141.673 352.519 141.803 352.486C141.939 352.454 142.06 352.418 142.164 352.379V348.316H139.557V346.881H143.883V353.404C143.616 353.528 143.333 353.639 143.033 353.736C142.74 353.834 142.438 353.915 142.125 353.98C141.819 354.046 141.513 354.094 141.207 354.127C140.901 354.16 140.605 354.176 140.318 354.176C139.446 354.176 138.658 354.039 137.955 353.766C137.258 353.492 136.663 353.089 136.168 352.555C135.68 352.014 135.302 351.344 135.035 350.543C134.775 349.742 134.645 348.814 134.645 347.76C134.645 346.712 134.791 345.774 135.084 344.947C135.377 344.114 135.787 343.411 136.314 342.838C136.848 342.258 137.486 341.819 138.229 341.52C138.977 341.214 139.801 341.061 140.699 341.061C141.272 341.061 141.816 341.113 142.33 341.217C142.851 341.314 143.349 341.474 143.824 341.695V343.424ZM155.895 354H154L153.111 351.217H147.799L146.9 354H145.094L149.332 341.236H151.715L155.895 354ZM152.613 349.664L150.455 342.838L148.297 349.664H152.613Z" fill="#C9D1D9"/>
<path d="M112.717 134.521C111.695 134.945 110.624 135.156 109.504 135.156C107.701 135.156 106.314 134.619 105.344 133.545C104.38 132.464 103.898 130.869 103.898 128.76C103.898 127.738 104.032 126.813 104.299 125.986C104.566 125.16 104.947 124.46 105.441 123.887C105.936 123.307 106.535 122.861 107.238 122.549C107.941 122.236 108.729 122.08 109.602 122.08C110.194 122.08 110.744 122.132 111.252 122.236C111.76 122.334 112.248 122.487 112.717 122.695V124.404C112.255 124.15 111.776 123.958 111.281 123.828C110.786 123.691 110.246 123.623 109.66 123.623C109.061 123.623 108.518 123.737 108.029 123.965C107.548 124.186 107.137 124.512 106.799 124.941C106.46 125.365 106.2 125.885 106.018 126.504C105.835 127.116 105.744 127.816 105.744 128.604C105.744 130.257 106.079 131.504 106.75 132.344C107.421 133.184 108.404 133.604 109.699 133.604C110.246 133.604 110.77 133.542 111.271 133.418C111.773 133.288 112.255 133.109 112.717 132.881V134.521ZM124.895 135H123L122.111 132.217H116.799L115.9 135H114.094L118.332 122.236H120.715L124.895 135ZM121.613 130.664L119.455 123.838L117.297 130.664H121.613ZM135.148 123.721H131.369V135H129.611V123.721H125.832V122.236H135.148V123.721Z" fill="#C9D1D9"/>
<path d="M110.824 284.424C110.349 284.17 109.861 283.975 109.359 283.838C108.858 283.695 108.311 283.623 107.719 283.623C107.042 283.623 106.439 283.743 105.912 283.984C105.385 284.225 104.939 284.567 104.574 285.01C104.216 285.446 103.939 285.973 103.744 286.592C103.555 287.21 103.461 287.894 103.461 288.643C103.461 289.424 103.539 290.124 103.695 290.742C103.852 291.361 104.096 291.885 104.428 292.314C104.76 292.744 105.183 293.073 105.697 293.301C106.218 293.529 106.84 293.643 107.562 293.643C107.686 293.643 107.82 293.636 107.963 293.623C108.106 293.61 108.249 293.594 108.393 293.574C108.536 293.548 108.673 293.519 108.803 293.486C108.939 293.454 109.06 293.418 109.164 293.379V289.316H106.557V287.881H110.883V294.404C110.616 294.528 110.333 294.639 110.033 294.736C109.74 294.834 109.438 294.915 109.125 294.98C108.819 295.046 108.513 295.094 108.207 295.127C107.901 295.16 107.605 295.176 107.318 295.176C106.446 295.176 105.658 295.039 104.955 294.766C104.258 294.492 103.663 294.089 103.168 293.555C102.68 293.014 102.302 292.344 102.035 291.543C101.775 290.742 101.645 289.814 101.645 288.76C101.645 287.712 101.791 286.774 102.084 285.947C102.377 285.114 102.787 284.411 103.314 283.838C103.848 283.258 104.486 282.819 105.229 282.52C105.977 282.214 106.801 282.061 107.699 282.061C108.272 282.061 108.816 282.113 109.33 282.217C109.851 282.314 110.349 282.474 110.824 282.695V284.424ZM122.895 295H121L120.111 292.217H114.799L113.9 295H112.094L116.332 282.236H118.715L122.895 295ZM119.613 290.664L117.455 283.838L115.297 290.664H119.613ZM133.148 283.721H129.369V295H127.611V283.721H123.832V282.236H133.148V283.721Z" fill="#C9D1D9"/>
<path d="M279.824 368.424C279.349 368.17 278.861 367.975 278.359 367.838C277.858 367.695 277.311 367.623 276.719 367.623C276.042 367.623 275.439 367.743 274.912 367.984C274.385 368.225 273.939 368.567 273.574 369.01C273.216 369.446 272.939 369.973 272.744 370.592C272.555 371.21 272.461 371.894 272.461 372.643C272.461 373.424 272.539 374.124 272.695 374.742C272.852 375.361 273.096 375.885 273.428 376.314C273.76 376.744 274.183 377.073 274.697 377.301C275.218 377.529 275.84 377.643 276.562 377.643C276.686 377.643 276.82 377.636 276.963 377.623C277.106 377.61 277.249 377.594 277.393 377.574C277.536 377.548 277.673 377.519 277.803 377.486C277.939 377.454 278.06 377.418 278.164 377.379V373.316H275.557V371.881H279.883V378.404C279.616 378.528 279.333 378.639 279.033 378.736C278.74 378.834 278.438 378.915 278.125 378.98C277.819 379.046 277.513 379.094 277.207 379.127C276.901 379.16 276.605 379.176 276.318 379.176C275.446 379.176 274.658 379.039 273.955 378.766C273.258 378.492 272.663 378.089 272.168 377.555C271.68 377.014 271.302 376.344 271.035 375.543C270.775 374.742 270.645 373.814 270.645 372.76C270.645 371.712 270.791 370.774 271.084 369.947C271.377 369.114 271.787 368.411 272.314 367.838C272.848 367.258 273.486 366.819 274.229 366.52C274.977 366.214 275.801 366.061 276.699 366.061C277.272 366.061 277.816 366.113 278.33 366.217C278.851 366.314 279.349 366.474 279.824 366.695V368.424ZM290.82 368.424C290.345 368.17 289.857 367.975 289.355 367.838C288.854 367.695 288.307 367.623 287.715 367.623C287.038 367.623 286.436 367.743 285.908 367.984C285.381 368.225 284.935 368.567 284.57 369.01C284.212 369.446 283.936 369.973 283.74 370.592C283.551 371.21 283.457 371.894 283.457 372.643C283.457 373.424 283.535 374.124 283.691 374.742C283.848 375.361 284.092 375.885 284.424 376.314C284.756 376.744 285.179 377.073 285.693 377.301C286.214 377.529 286.836 377.643 287.559 377.643C287.682 377.643 287.816 377.636 287.959 377.623C288.102 377.61 288.245 377.594 288.389 377.574C288.532 377.548 288.669 377.519 288.799 377.486C288.936 377.454 289.056 377.418 289.16 377.379V373.316H286.553V371.881H290.879V378.404C290.612 378.528 290.329 378.639 290.029 378.736C289.736 378.834 289.434 378.915 289.121 378.98C288.815 379.046 288.509 379.094 288.203 379.127C287.897 379.16 287.601 379.176 287.314 379.176C286.442 379.176 285.654 379.039 284.951 378.766C284.255 378.492 283.659 378.089 283.164 377.555C282.676 377.014 282.298 376.344 282.031 375.543C281.771 374.742 281.641 373.814 281.641 372.76C281.641 371.712 281.787 370.774 282.08 369.947C282.373 369.114 282.783 368.411 283.311 367.838C283.844 367.258 284.482 366.819 285.225 366.52C285.973 366.214 286.797 366.061 287.695 366.061C288.268 366.061 288.812 366.113 289.326 366.217C289.847 366.314 290.345 366.474 290.82 366.695V368.424ZM301.816 368.424C301.341 368.17 300.853 367.975 300.352 367.838C299.85 367.695 299.303 367.623 298.711 367.623C298.034 367.623 297.432 367.743 296.904 367.984C296.377 368.225 295.931 368.567 295.566 369.01C295.208 369.446 294.932 369.973 294.736 370.592C294.548 371.21 294.453 371.894 294.453 372.643C294.453 373.424 294.531 374.124 294.688 374.742C294.844 375.361 295.088 375.885 295.42 376.314C295.752 376.744 296.175 377.073 296.689 377.301C297.21 377.529 297.832 377.643 298.555 377.643C298.678 377.643 298.812 377.636 298.955 377.623C299.098 377.61 299.242 377.594 299.385 377.574C299.528 377.548 299.665 377.519 299.795 377.486C299.932 377.454 300.052 377.418 300.156 377.379V373.316H297.549V371.881H301.875V378.404C301.608 378.528 301.325 378.639 301.025 378.736C300.732 378.834 300.43 378.915 300.117 378.98C299.811 379.046 299.505 379.094 299.199 379.127C298.893 379.16 298.597 379.176 298.311 379.176C297.438 379.176 296.65 379.039 295.947 378.766C295.251 378.492 294.655 378.089 294.16 377.555C293.672 377.014 293.294 376.344 293.027 375.543C292.767 374.742 292.637 373.814 292.637 372.76C292.637 371.712 292.783 370.774 293.076 369.947C293.369 369.114 293.779 368.411 294.307 367.838C294.84 367.258 295.479 366.819 296.221 366.52C296.969 366.214 297.793 366.061 298.691 366.061C299.264 366.061 299.808 366.113 300.322 366.217C300.843 366.314 301.341 366.474 301.816 366.695V368.424Z" fill="#C9D1D9"/>
<path d="M201.824 330.424C201.349 330.17 200.861 329.975 200.359 329.838C199.858 329.695 199.311 329.623 198.719 329.623C198.042 329.623 197.439 329.743 196.912 329.984C196.385 330.225 195.939 330.567 195.574 331.01C195.216 331.446 194.939 331.973 194.744 332.592C194.555 333.21 194.461 333.894 194.461 334.643C194.461 335.424 194.539 336.124 194.695 336.742C194.852 337.361 195.096 337.885 195.428 338.314C195.76 338.744 196.183 339.073 196.697 339.301C197.218 339.529 197.84 339.643 198.562 339.643C198.686 339.643 198.82 339.636 198.963 339.623C199.106 339.61 199.249 339.594 199.393 339.574C199.536 339.548 199.673 339.519 199.803 339.486C199.939 339.454 200.06 339.418 200.164 339.379V335.316H197.557V333.881H201.883V340.404C201.616 340.528 201.333 340.639 201.033 340.736C200.74 340.834 200.438 340.915 200.125 340.98C199.819 341.046 199.513 341.094 199.207 341.127C198.901 341.16 198.605 341.176 198.318 341.176C197.446 341.176 196.658 341.039 195.955 340.766C195.258 340.492 194.663 340.089 194.168 339.555C193.68 339.014 193.302 338.344 193.035 337.543C192.775 336.742 192.645 335.814 192.645 334.76C192.645 333.712 192.791 332.774 193.084 331.947C193.377 331.114 193.787 330.411 194.314 329.838C194.848 329.258 195.486 328.819 196.229 328.52C196.977 328.214 197.801 328.061 198.699 328.061C199.272 328.061 199.816 328.113 200.33 328.217C200.851 328.314 201.349 328.474 201.824 328.695V330.424ZM212.82 330.424C212.345 330.17 211.857 329.975 211.355 329.838C210.854 329.695 210.307 329.623 209.715 329.623C209.038 329.623 208.436 329.743 207.908 329.984C207.381 330.225 206.935 330.567 206.57 331.01C206.212 331.446 205.936 331.973 205.74 332.592C205.551 333.21 205.457 333.894 205.457 334.643C205.457 335.424 205.535 336.124 205.691 336.742C205.848 337.361 206.092 337.885 206.424 338.314C206.756 338.744 207.179 339.073 207.693 339.301C208.214 339.529 208.836 339.643 209.559 339.643C209.682 339.643 209.816 339.636 209.959 339.623C210.102 339.61 210.245 339.594 210.389 339.574C210.532 339.548 210.669 339.519 210.799 339.486C210.936 339.454 211.056 339.418 211.16 339.379V335.316H208.553V333.881H212.879V340.404C212.612 340.528 212.329 340.639 212.029 340.736C211.736 340.834 211.434 340.915 211.121 340.98C210.815 341.046 210.509 341.094 210.203 341.127C209.897 341.16 209.601 341.176 209.314 341.176C208.442 341.176 207.654 341.039 206.951 340.766C206.255 340.492 205.659 340.089 205.164 339.555C204.676 339.014 204.298 338.344 204.031 337.543C203.771 336.742 203.641 335.814 203.641 334.76C203.641 333.712 203.787 332.774 204.08 331.947C204.373 331.114 204.783 330.411 205.311 329.838C205.844 329.258 206.482 328.819 207.225 328.52C207.973 328.214 208.797 328.061 209.695 328.061C210.268 328.061 210.812 328.113 211.326 328.217C211.847 328.314 212.345 328.474 212.82 328.695V330.424ZM224.891 341H222.996L222.107 338.217H216.795L215.896 341H214.09L218.328 328.236H220.711L224.891 341ZM221.609 336.664L219.451 329.838L217.293 336.664H221.609Z" fill="#C9D1D9"/>
<path d="M279.156 283.721H275.377V295H273.619V283.721H269.84V282.236H279.156V283.721ZM289.82 284.424C289.345 284.17 288.857 283.975 288.355 283.838C287.854 283.695 287.307 283.623 286.715 283.623C286.038 283.623 285.436 283.743 284.908 283.984C284.381 284.225 283.935 284.567 283.57 285.01C283.212 285.446 282.936 285.973 282.74 286.592C282.551 287.21 282.457 287.894 282.457 288.643C282.457 289.424 282.535 290.124 282.691 290.742C282.848 291.361 283.092 291.885 283.424 292.314C283.756 292.744 284.179 293.073 284.693 293.301C285.214 293.529 285.836 293.643 286.559 293.643C286.682 293.643 286.816 293.636 286.959 293.623C287.102 293.61 287.245 293.594 287.389 293.574C287.532 293.548 287.669 293.519 287.799 293.486C287.936 293.454 288.056 293.418 288.16 293.379V289.316H285.553V287.881H289.879V294.404C289.612 294.528 289.329 294.639 289.029 294.736C288.736 294.834 288.434 294.915 288.121 294.98C287.815 295.046 287.509 295.094 287.203 295.127C286.897 295.16 286.601 295.176 286.314 295.176C285.442 295.176 284.654 295.039 283.951 294.766C283.255 294.492 282.659 294.089 282.164 293.555C281.676 293.014 281.298 292.344 281.031 291.543C280.771 290.742 280.641 289.814 280.641 288.76C280.641 287.712 280.787 286.774 281.08 285.947C281.373 285.114 281.783 284.411 282.311 283.838C282.844 283.258 283.482 282.819 284.225 282.52C284.973 282.214 285.797 282.061 286.695 282.061C287.268 282.061 287.812 282.113 288.326 282.217C288.847 282.314 289.345 282.474 289.82 282.695V284.424ZM300.816 284.424C300.341 284.17 299.853 283.975 299.352 283.838C298.85 283.695 298.303 283.623 297.711 283.623C297.034 283.623 296.432 283.743 295.904 283.984C295.377 284.225 294.931 284.567 294.566 285.01C294.208 285.446 293.932 285.973 293.736 286.592C293.548 287.21 293.453 287.894 293.453 288.643C293.453 289.424 293.531 290.124 293.688 290.742C293.844 291.361 294.088 291.885 294.42 292.314C294.752 292.744 295.175 293.073 295.689 293.301C296.21 293.529 296.832 293.643 297.555 293.643C297.678 293.643 297.812 293.636 297.955 293.623C298.098 293.61 298.242 293.594 298.385 293.574C298.528 293.548 298.665 293.519 298.795 293.486C298.932 293.454 299.052 293.418 299.156 293.379V289.316H296.549V287.881H300.875V294.404C300.608 294.528 300.325 294.639 300.025 294.736C299.732 294.834 299.43 294.915 299.117 294.98C298.811 295.046 298.505 295.094 298.199 295.127C297.893 295.16 297.597 295.176 297.311 295.176C296.438 295.176 295.65 295.039 294.947 294.766C294.251 294.492 293.655 294.089 293.16 293.555C292.672 293.014 292.294 292.344 292.027 291.543C291.767 290.742 291.637 289.814 291.637 288.76C291.637 287.712 291.783 286.774 292.076 285.947C292.369 285.114 292.779 284.411 293.307 283.838C293.84 283.258 294.479 282.819 295.221 282.52C295.969 282.214 296.793 282.061 297.691 282.061C298.264 282.061 298.808 282.113 299.322 282.217C299.843 282.314 300.341 282.474 300.816 282.695V284.424Z" fill="#C9D1D9"/>
<path d="M279.156 123.721H275.377V135H273.619V123.721H269.84V122.236H279.156V123.721ZM289.82 124.424C289.345 124.17 288.857 123.975 288.355 123.838C287.854 123.695 287.307 123.623 286.715 123.623C286.038 123.623 285.436 123.743 284.908 123.984C284.381 124.225 283.935 124.567 283.57 125.01C283.212 125.446 282.936 125.973 282.74 126.592C282.551 127.21 282.457 127.894 282.457 128.643C282.457 129.424 282.535 130.124 282.691 130.742C282.848 131.361 283.092 131.885 283.424 132.314C283.756 132.744 284.179 133.073 284.693 133.301C285.214 133.529 285.836 133.643 286.559 133.643C286.682 133.643 286.816 133.636 286.959 133.623C287.102 133.61 287.245 133.594 287.389 133.574C287.532 133.548 287.669 133.519 287.799 133.486C287.936 133.454 288.056 133.418 288.16 133.379V129.316H285.553V127.881H289.879V134.404C289.612 134.528 289.329 134.639 289.029 134.736C288.736 134.834 288.434 134.915 288.121 134.98C287.815 135.046 287.509 135.094 287.203 135.127C286.897 135.16 286.601 135.176 286.314 135.176C285.442 135.176 284.654 135.039 283.951 134.766C283.255 134.492 282.659 134.089 282.164 133.555C281.676 133.014 281.298 132.344 281.031 131.543C280.771 130.742 280.641 129.814 280.641 128.76C280.641 127.712 280.787 126.774 281.08 125.947C281.373 125.114 281.783 124.411 282.311 123.838C282.844 123.258 283.482 122.819 284.225 122.52C284.973 122.214 285.797 122.061 286.695 122.061C287.268 122.061 287.812 122.113 288.326 122.217C288.847 122.314 289.345 122.474 289.82 122.695V124.424ZM300.709 134.521C299.687 134.945 298.616 135.156 297.496 135.156C295.693 135.156 294.306 134.619 293.336 133.545C292.372 132.464 291.891 130.869 291.891 128.76C291.891 127.738 292.024 126.813 292.291 125.986C292.558 125.16 292.939 124.46 293.434 123.887C293.928 123.307 294.527 122.861 295.23 122.549C295.934 122.236 296.721 122.08 297.594 122.08C298.186 122.08 298.736 122.132 299.244 122.236C299.752 122.334 300.24 122.487 300.709 122.695V124.404C300.247 124.15 299.768 123.958 299.273 123.828C298.779 123.691 298.238 123.623 297.652 123.623C297.053 123.623 296.51 123.737 296.021 123.965C295.54 124.186 295.13 124.512 294.791 124.941C294.452 125.365 294.192 125.885 294.01 126.504C293.827 127.116 293.736 127.816 293.736 128.604C293.736 130.257 294.072 131.504 294.742 132.344C295.413 133.184 296.396 133.604 297.691 133.604C298.238 133.604 298.762 133.542 299.264 133.418C299.765 133.288 300.247 133.109 300.709 132.881V134.521Z" fill="#C9D1D9"/>
<path d="M247.707 208.707C248.098 208.317 248.098 207.683 247.707 207.293L241.343 200.929C240.953 200.538 240.319 200.538 239.929 200.929C239.538 201.319 239.538 201.953 239.929 202.343L245.586 208L239.929 213.657C239.538 214.047 239.538 214.681 239.929 215.071C240.319 215.462 240.953 215.462 241.343 215.071L247.707 208.707ZM160 209H215.23V207H160V209ZM215.23 209H247V207H215.23V209Z" fill="#C4A8A8"/>
<path d="M156 194.709C173.6 179.584 193.566 166.787 217.689 172.309C226.276 174.275 235.26 179.886 241.511 185.998C244.388 188.812 248.5 193.5 251 197" stroke="#C4A8A8" stroke-width="2" stroke-linecap="round" stroke-linejoin="round"/>
<path d="M251 188.5V197" stroke="#C4A8A8" stroke-width="2"/>
<path d="M242.5 195.5L252 197.5" stroke="#C4A8A8" stroke-width="2"/>
<path d="M156 220.291C173.6 235.416 193.566 248.213 217.689 242.691C226.276 240.725 235.26 235.114 241.511 229.002C244.388 226.188 248.5 221.5 251 218" stroke="#C4A8A8" stroke-width="2" stroke-linecap="round" stroke-linejoin="round"/>
<path d="M251 226.5V218" stroke="#C4A8A8" stroke-width="2"/>
<path d="M242.5 219.5L252 217.5" stroke="#C4A8A8" stroke-width="2"/>
<path d="M144.293 189.707C144.683 190.098 145.317 190.098 145.707 189.707L152.071 183.343C152.462 182.953 152.462 182.319 152.071 181.929C151.681 181.538 151.047 181.538 150.657 181.929L145 187.586L139.343 181.929C138.953 181.538 138.319 181.538 137.929 181.929C137.538 182.319 137.538 182.953 137.929 183.343L144.293 189.707ZM144 83V189H146V83H144Z" fill="#C4A8A8"/>
<path d="M144.293 189.707C144.683 190.098 145.317 190.098 145.707 189.707L152.071 183.343C152.462 182.953 152.462 182.319 152.071 181.929C151.681 181.538 151.047 181.538 150.657 181.929L145 187.586L139.343 181.929C138.953 181.538 138.319 181.538 137.929 181.929C137.538 182.319 137.538 182.953 137.929 183.343L144.293 189.707ZM144 83V189H146V83H144Z" fill="#C4A8A8"/>
<path d="M144.293 189.707C144.683 190.098 145.317 190.098 145.707 189.707L152.071 183.343C152.462 182.953 152.462 182.319 152.071 181.929C151.681 181.538 151.047 181.538 150.657 181.929L145 187.586L139.343 181.929C138.953 181.538 138.319 181.538 137.929 181.929C137.538 182.319 137.538 182.953 137.929 183.343L144.293 189.707ZM144 83V189H146V83H144Z" fill="#C4A8A8"/>
<path d="M262.293 330.707C262.683 331.098 263.317 331.098 263.707 330.707L270.071 324.343C270.462 323.953 270.462 323.319 270.071 322.929C269.681 322.538 269.047 322.538 268.657 322.929L263 328.586L257.343 322.929C256.953 322.538 256.319 322.538 255.929 322.929C255.538 323.319 255.538 323.953 255.929 324.343L262.293 330.707ZM262 224V330H264V224H262Z" fill="#C4A8A8"/>
<path d="M262.293 330.707C262.683 331.098 263.317 331.098 263.707 330.707L270.071 324.343C270.462 323.953 270.462 323.319 270.071 322.929C269.681 322.538 269.047 322.538 268.657 322.929L263 328.586L257.343 322.929C256.953 322.538 256.319 322.538 255.929 322.929C255.538 323.319 255.538 323.953 255.929 324.343L262.293 330.707ZM262 224V330H264V224H262Z" fill="#C4A8A8"/>
<path d="M262.293 330.707C262.683 331.098 263.317 331.098 263.707 330.707L270.071 324.343C270.462 323.953 270.462 323.319 270.071 322.929C269.681 322.538 269.047 322.538 268.657 322.929L263 328.586L257.343 322.929C256.953 322.538 256.319 322.538 255.929 322.929C255.538 323.319 255.538 323.953 255.929 324.343L262.293 330.707ZM262 224V330H264V224H262Z" fill="#C4A8A8"/>
<path d="M263.707 83.2929C263.317 82.9024 262.683 82.9024 262.293 83.2929L255.929 89.6569C255.538 90.0474 255.538 90.6805 255.929 91.0711C256.319 91.4616 256.953 91.4616 257.343 91.0711L263 85.4142L268.657 91.0711C269.047 91.4616 269.681 91.4616 270.071 91.0711C270.462 90.6805 270.462 90.0474 270.071 89.6569L263.707 83.2929ZM264 190V84H262V190H264Z" fill="#C4A8A8"/>
<path d="M263.707 83.2929C263.317 82.9024 262.683 82.9024 262.293 83.2929L255.929 89.6569C255.538 90.0474 255.538 90.6805 255.929 91.0711C256.319 91.4616 256.953 91.4616 257.343 91.0711L263 85.4142L268.657 91.0711C269.047 91.4616 269.681 91.4616 270.071 91.0711C270.462 90.6805 270.462 90.0474 270.071 89.6569L263.707 83.2929ZM264 190V84H262V190H264Z" fill="#C4A8A8"/>
<path d="M263.707 83.2929C263.317 82.9024 262.683 82.9024 262.293 83.2929L255.929 89.6569C255.538 90.0474 255.538 90.6805 255.929 91.0711C256.319 91.4616 256.953 91.4616 257.343 91.0711L263 85.4142L268.657 91.0711C269.047 91.4616 269.681 91.4616 270.071 91.0711C270.462 90.6805 270.462 90.0474 270.071 89.6569L263.707 83.2929ZM264 190V84H262V190H264Z" fill="#C4A8A8"/>
<path d="M145.707 225.293C145.317 224.902 144.683 224.902 144.293 225.293L137.929 231.657C137.538 232.047 137.538 232.681 137.929 233.071C138.319 233.462 138.953 233.462 139.343 233.071L145 227.414L150.657 233.071C151.047 233.462 151.681 233.462 152.071 233.071C152.462 232.681 152.462 232.047 152.071 231.657L145.707 225.293ZM146 332V226H144V332H146Z" fill="#C4A8A8"/>
<path d="M145.707 225.293C145.317 224.902 144.683 224.902 144.293 225.293L137.929 231.657C137.538 232.047 137.538 232.681 137.929 233.071C138.319 233.462 138.953 233.462 139.343 233.071L145 227.414L150.657 233.071C151.047 233.462 151.681 233.462 152.071 233.071C152.462 232.681 152.462 232.047 152.071 231.657L145.707 225.293ZM146 332V226H144V332H146Z" fill="#C4A8A8"/>
<path d="M145.707 225.293C145.317 224.902 144.683 224.902 144.293 225.293L137.929 231.657C137.538 232.047 137.538 232.681 137.929 233.071C138.319 233.462 138.953 233.462 139.343 233.071L145 227.414L150.657 233.071C151.047 233.462 151.681 233.462 152.071 233.071C152.462 232.681 152.462 232.047 152.071 231.657L145.707 225.293ZM146 332V226H144V332H146Z" fill="#C4A8A8"/>
<path d="M159.293 345.293C158.902 345.683 158.902 346.317 159.293 346.707L165.657 353.071C166.047 353.462 166.681 353.462 167.071 353.071C167.462 352.681 167.462 352.047 167.071 351.657L161.414 346L167.071 340.343C167.462 339.953 167.462 339.319 167.071 338.929C166.681 338.538 166.047 338.538 165.657 338.929L159.293 345.293ZM247 345H160V347H247V345Z" fill="#C4A8A8"/>
</svg>
