<svg width="882" height="312" viewBox="0 0 882 312" fill="none" xmlns="http://www.w3.org/2000/svg">
<circle cx="327" cy="198" r="14" stroke="#FFD700" stroke-width="2"/>
<circle cx="392" cy="198" r="14" stroke="#C4A8A8" stroke-width="2"/>
<path d="M350.824 176.424C350.349 176.17 349.861 175.975 349.359 175.838C348.858 175.695 348.311 175.623 347.719 175.623C347.042 175.623 346.439 175.743 345.912 175.984C345.385 176.225 344.939 176.567 344.574 177.01C344.216 177.446 343.939 177.973 343.744 178.592C343.555 179.21 343.461 179.894 343.461 180.643C343.461 181.424 343.539 182.124 343.695 182.742C343.852 183.361 344.096 183.885 344.428 184.314C344.76 184.744 345.183 185.073 345.697 185.301C346.218 185.529 346.84 185.643 347.562 185.643C347.686 185.643 347.82 185.636 347.963 185.623C348.106 185.61 348.249 185.594 348.393 185.574C348.536 185.548 348.673 185.519 348.803 185.486C348.939 185.454 349.06 185.418 349.164 185.379V181.316H346.557V179.881H350.883V186.404C350.616 186.528 350.333 186.639 350.033 186.736C349.74 186.834 349.438 186.915 349.125 186.98C348.819 187.046 348.513 187.094 348.207 187.127C347.901 187.16 347.605 187.176 347.318 187.176C346.446 187.176 345.658 187.039 344.955 186.766C344.258 186.492 343.663 186.089 343.168 185.555C342.68 185.014 342.302 184.344 342.035 183.543C341.775 182.742 341.645 181.814 341.645 180.76C341.645 179.712 341.791 178.774 342.084 177.947C342.377 177.114 342.787 176.411 343.314 175.838C343.848 175.258 344.486 174.819 345.229 174.52C345.977 174.214 346.801 174.061 347.699 174.061C348.272 174.061 348.816 174.113 349.33 174.217C349.851 174.314 350.349 174.474 350.824 174.695V176.424ZM362.152 175.721H358.373V187H356.615V175.721H352.836V174.236H362.152V175.721ZM373.148 175.721H369.369V187H367.611V175.721H363.832V174.236H373.148V175.721Z" fill="#C9D1D9"/>
<path d="M376.707 198.707C377.098 198.317 377.098 197.683 376.707 197.293L370.343 190.929C369.953 190.538 369.319 190.538 368.929 190.929C368.538 191.319 368.538 191.953 368.929 192.343L374.586 198L368.929 203.657C368.538 204.047 368.538 204.681 368.929 205.071C369.319 205.462 369.953 205.462 370.343 205.071L376.707 198.707ZM342 199H376V197H342V199Z" fill="#C4A8A8"/>
<path d="M324.824 193.424C324.349 193.17 323.861 192.975 323.359 192.838C322.858 192.695 322.311 192.623 321.719 192.623C321.042 192.623 320.439 192.743 319.912 192.984C319.385 193.225 318.939 193.567 318.574 194.01C318.216 194.446 317.939 194.973 317.744 195.592C317.555 196.21 317.461 196.894 317.461 197.643C317.461 198.424 317.539 199.124 317.695 199.742C317.852 200.361 318.096 200.885 318.428 201.314C318.76 201.744 319.183 202.073 319.697 202.301C320.218 202.529 320.84 202.643 321.562 202.643C321.686 202.643 321.82 202.636 321.963 202.623C322.106 202.61 322.249 202.594 322.393 202.574C322.536 202.548 322.673 202.519 322.803 202.486C322.939 202.454 323.06 202.418 323.164 202.379V198.316H320.557V196.881H324.883V203.404C324.616 203.528 324.333 203.639 324.033 203.736C323.74 203.834 323.438 203.915 323.125 203.98C322.819 204.046 322.513 204.094 322.207 204.127C321.901 204.16 321.605 204.176 321.318 204.176C320.446 204.176 319.658 204.039 318.955 203.766C318.258 203.492 317.663 203.089 317.168 202.555C316.68 202.014 316.302 201.344 316.035 200.543C315.775 199.742 315.645 198.814 315.645 197.76C315.645 196.712 315.791 195.774 316.084 194.947C316.377 194.114 316.787 193.411 317.314 192.838C317.848 192.258 318.486 191.819 319.229 191.52C319.977 191.214 320.801 191.061 321.699 191.061C322.272 191.061 322.816 191.113 323.33 191.217C323.851 191.314 324.349 191.474 324.824 191.695V193.424ZM336.152 192.721H332.373V204H330.615V192.721H326.836V191.236H336.152V192.721Z" fill="#C9D1D9"/>
<path d="M391.156 192.721H387.377V204H385.619V192.721H381.84V191.236H391.156V192.721ZM402.152 192.721H398.373V204H396.615V192.721H392.836V191.236H402.152V192.721Z" fill="#C9D1D9"/>
<circle cx="15" cy="157" r="14" stroke="#C4A8A8" stroke-width="2"/>
<path d="M39.1562 135.721H35.377V147H33.6191V135.721H29.8398V134.236H39.1562V135.721ZM50.8945 147H49L48.1113 144.217H42.7988L41.9004 147H40.0938L44.332 134.236H46.7148L50.8945 147ZM47.6133 142.664L45.4551 135.838L43.2969 142.664H47.6133ZM61.8906 147H59.9961L59.1074 144.217H53.7949L52.8965 147H51.0898L55.3281 134.236H57.7109L61.8906 147ZM58.6094 142.664L56.4512 135.838L54.293 142.664H58.6094Z" fill="#C9D1D9"/>
<path d="M64.7071 157.707C65.0976 157.317 65.0976 156.683 64.7071 156.293L58.3431 149.929C57.9526 149.538 57.3195 149.538 56.9289 149.929C56.5384 150.319 56.5384 150.953 56.9289 151.343L62.5858 157L56.9289 162.657C56.5384 163.047 56.5384 163.681 56.9289 164.071C57.3195 164.462 57.9526 164.462 58.3431 164.071L64.7071 157.707ZM30 158H64V156H30V158Z" fill="#C4A8A8"/>
<path d="M13.1562 151.721H9.37695V163H7.61914V151.721H3.83984V150.236H13.1562V151.721ZM24.8945 163H23L22.1113 160.217H16.7988L15.9004 163H14.0938L18.332 150.236H20.7148L24.8945 163ZM21.6133 158.664L19.4551 151.838L17.2969 158.664H21.6133Z" fill="#C9D1D9"/>
<circle cx="80" cy="157" r="14" stroke="#C4A8A8" stroke-width="2"/>
<circle cx="145" cy="157" r="14" stroke="#C4A8A8" stroke-width="2"/>
<path d="M104.898 146H103.004L102.115 143.217H96.8027L95.9043 146H94.0977L98.3359 133.236H100.719L104.898 146ZM101.617 141.664L99.459 134.838L97.3008 141.664H101.617ZM115.895 146H114L113.111 143.217H107.799L106.9 146H105.094L109.332 133.236H111.715L115.895 146ZM112.613 141.664L110.455 134.838L108.297 141.664H112.613ZM126.148 134.721H122.369V146H120.611V134.721H116.832V133.236H126.148V134.721Z" fill="#C9D1D9"/>
<path d="M197.898 116H196.004L195.115 113.217H189.803L188.904 116H187.098L191.336 103.236H193.719L197.898 116ZM194.617 111.664L192.459 104.838L190.301 111.664H194.617ZM208.152 104.721H204.373V116H202.615V104.721H198.836V103.236H208.152V104.721ZM218.816 105.424C218.341 105.17 217.853 104.975 217.352 104.838C216.85 104.695 216.303 104.623 215.711 104.623C215.034 104.623 214.432 104.743 213.904 104.984C213.377 105.225 212.931 105.567 212.566 106.01C212.208 106.446 211.932 106.973 211.736 107.592C211.548 108.21 211.453 108.894 211.453 109.643C211.453 110.424 211.531 111.124 211.688 111.742C211.844 112.361 212.088 112.885 212.42 113.314C212.752 113.744 213.175 114.073 213.689 114.301C214.21 114.529 214.832 114.643 215.555 114.643C215.678 114.643 215.812 114.636 215.955 114.623C216.098 114.61 216.242 114.594 216.385 114.574C216.528 114.548 216.665 114.519 216.795 114.486C216.932 114.454 217.052 114.418 217.156 114.379V110.316H214.549V108.881H218.875V115.404C218.608 115.528 218.325 115.639 218.025 115.736C217.732 115.834 217.43 115.915 217.117 115.98C216.811 116.046 216.505 116.094 216.199 116.127C215.893 116.16 215.597 116.176 215.311 116.176C214.438 116.176 213.65 116.039 212.947 115.766C212.251 115.492 211.655 115.089 211.16 114.555C210.672 114.014 210.294 113.344 210.027 112.543C209.767 111.742 209.637 110.814 209.637 109.76C209.637 108.712 209.783 107.774 210.076 106.947C210.369 106.114 210.779 105.411 211.307 104.838C211.84 104.258 212.479 103.819 213.221 103.52C213.969 103.214 214.793 103.061 215.691 103.061C216.264 103.061 216.808 103.113 217.322 103.217C217.843 103.314 218.341 103.474 218.816 103.695V105.424Z" fill="#C9D1D9"/>
<path d="M197.898 188H196.004L195.115 185.217H189.803L188.904 188H187.098L191.336 175.236H193.719L197.898 188ZM194.617 183.664L192.459 176.838L190.301 183.664H194.617ZM208.152 176.721H204.373V188H202.615V176.721H198.836V175.236H208.152V176.721ZM218.816 177.424C218.341 177.17 217.853 176.975 217.352 176.838C216.85 176.695 216.303 176.623 215.711 176.623C215.034 176.623 214.432 176.743 213.904 176.984C213.377 177.225 212.931 177.567 212.566 178.01C212.208 178.446 211.932 178.973 211.736 179.592C211.548 180.21 211.453 180.894 211.453 181.643C211.453 182.424 211.531 183.124 211.688 183.742C211.844 184.361 212.088 184.885 212.42 185.314C212.752 185.744 213.175 186.073 213.689 186.301C214.21 186.529 214.832 186.643 215.555 186.643C215.678 186.643 215.812 186.636 215.955 186.623C216.098 186.61 216.242 186.594 216.385 186.574C216.528 186.548 216.665 186.519 216.795 186.486C216.932 186.454 217.052 186.418 217.156 186.379V182.316H214.549V180.881H218.875V187.404C218.608 187.528 218.325 187.639 218.025 187.736C217.732 187.834 217.43 187.915 217.117 187.98C216.811 188.046 216.505 188.094 216.199 188.127C215.893 188.16 215.597 188.176 215.311 188.176C214.438 188.176 213.65 188.039 212.947 187.766C212.251 187.492 211.655 187.089 211.16 186.555C210.672 186.014 210.294 185.344 210.027 184.543C209.767 183.742 209.637 182.814 209.637 181.76C209.637 180.712 209.783 179.774 210.076 178.947C210.369 178.114 210.779 177.411 211.307 176.838C211.84 176.258 212.479 175.819 213.221 175.52C213.969 175.214 214.793 175.061 215.691 175.061C216.264 175.061 216.808 175.113 217.322 175.217C217.843 175.314 218.341 175.474 218.816 175.695V177.424Z" fill="#C9D1D9"/>
<path d="M197.898 152H196.004L195.115 149.217H189.803L188.904 152H187.098L191.336 139.236H193.719L197.898 152ZM194.617 147.664L192.459 140.838L190.301 147.664H194.617ZM208.152 140.721H204.373V152H202.615V140.721H198.836V139.236H208.152V140.721ZM218.816 141.424C218.341 141.17 217.853 140.975 217.352 140.838C216.85 140.695 216.303 140.623 215.711 140.623C215.034 140.623 214.432 140.743 213.904 140.984C213.377 141.225 212.931 141.567 212.566 142.01C212.208 142.446 211.932 142.973 211.736 143.592C211.548 144.21 211.453 144.894 211.453 145.643C211.453 146.424 211.531 147.124 211.688 147.742C211.844 148.361 212.088 148.885 212.42 149.314C212.752 149.744 213.175 150.073 213.689 150.301C214.21 150.529 214.832 150.643 215.555 150.643C215.678 150.643 215.812 150.636 215.955 150.623C216.098 150.61 216.242 150.594 216.385 150.574C216.528 150.548 216.665 150.519 216.795 150.486C216.932 150.454 217.052 150.418 217.156 150.379V146.316H214.549V144.881H218.875V151.404C218.608 151.528 218.325 151.639 218.025 151.736C217.732 151.834 217.43 151.915 217.117 151.98C216.811 152.046 216.505 152.094 216.199 152.127C215.893 152.16 215.597 152.176 215.311 152.176C214.438 152.176 213.65 152.039 212.947 151.766C212.251 151.492 211.655 151.089 211.16 150.555C210.672 150.014 210.294 149.344 210.027 148.543C209.767 147.742 209.637 146.814 209.637 145.76C209.637 144.712 209.783 143.774 210.076 142.947C210.369 142.114 210.779 141.411 211.307 140.838C211.84 140.258 212.479 139.819 213.221 139.52C213.969 139.214 214.793 139.061 215.691 139.061C216.264 139.061 216.808 139.113 217.322 139.217C217.843 139.314 218.341 139.474 218.816 139.695V141.424Z" fill="#C9D1D9"/>
<path d="M129.707 157.707C130.098 157.317 130.098 156.683 129.707 156.293L123.343 149.929C122.953 149.538 122.319 149.538 121.929 149.929C121.538 150.319 121.538 150.953 121.929 151.343L127.586 157L121.929 162.657C121.538 163.047 121.538 163.681 121.929 164.071C122.319 164.462 122.953 164.462 123.343 164.071L129.707 157.707ZM95 158H129V156H95V158Z" fill="#C4A8A8"/>
<path d="M312.707 157.707C313.098 157.317 313.098 156.683 312.707 156.293L306.343 149.929C305.953 149.538 305.319 149.538 304.929 149.929C304.538 150.319 304.538 150.953 304.929 151.343L310.586 157L304.929 162.657C304.538 163.047 304.538 163.681 304.929 164.071C305.319 164.462 305.953 164.462 306.343 164.071L312.707 157.707ZM278 158H312V156H278V158Z" fill="#C4A8A8"/>
<path d="M78.8984 163H77.0039L76.1152 160.217H70.8027L69.9043 163H68.0977L72.3359 150.236H74.7188L78.8984 163ZM75.6172 158.664L73.459 151.838L71.3008 158.664H75.6172ZM89.8945 163H88L87.1113 160.217H81.7988L80.9004 163H79.0938L83.332 150.236H85.7148L89.8945 163ZM86.6133 158.664L84.4551 151.838L82.2969 158.664H86.6133Z" fill="#C9D1D9"/>
<path d="M144.898 163H143.004L142.115 160.217H136.803L135.904 163H134.098L138.336 150.236H140.719L144.898 163ZM141.617 158.664L139.459 151.838L137.301 158.664H141.617ZM155.152 151.721H151.373V163H149.615V151.721H145.836V150.236H155.152V151.721Z" fill="#C9D1D9"/>
<circle cx="263" cy="157" r="14" stroke="#C4A8A8" stroke-width="2"/>
<path d="M262.156 151.721H258.377V163H256.619V151.721H252.84V150.236H262.156V151.721ZM272.82 152.424C272.345 152.17 271.857 151.975 271.355 151.838C270.854 151.695 270.307 151.623 269.715 151.623C269.038 151.623 268.436 151.743 267.908 151.984C267.381 152.225 266.935 152.567 266.57 153.01C266.212 153.446 265.936 153.973 265.74 154.592C265.551 155.21 265.457 155.894 265.457 156.643C265.457 157.424 265.535 158.124 265.691 158.742C265.848 159.361 266.092 159.885 266.424 160.314C266.756 160.744 267.179 161.073 267.693 161.301C268.214 161.529 268.836 161.643 269.559 161.643C269.682 161.643 269.816 161.636 269.959 161.623C270.102 161.61 270.245 161.594 270.389 161.574C270.532 161.548 270.669 161.519 270.799 161.486C270.936 161.454 271.056 161.418 271.16 161.379V157.316H268.553V155.881H272.879V162.404C272.612 162.528 272.329 162.639 272.029 162.736C271.736 162.834 271.434 162.915 271.121 162.98C270.815 163.046 270.509 163.094 270.203 163.127C269.897 163.16 269.601 163.176 269.314 163.176C268.442 163.176 267.654 163.039 266.951 162.766C266.255 162.492 265.659 162.089 265.164 161.555C264.676 161.014 264.298 160.344 264.031 159.543C263.771 158.742 263.641 157.814 263.641 156.76C263.641 155.712 263.787 154.774 264.08 153.947C264.373 153.114 264.783 152.411 265.311 151.838C265.844 151.258 266.482 150.819 267.225 150.52C267.973 150.214 268.797 150.061 269.695 150.061C270.268 150.061 270.812 150.113 271.326 150.217C271.847 150.314 272.345 150.474 272.82 150.695V152.424Z" fill="#C9D1D9"/>
<circle cx="145" cy="17" r="14" stroke="#C3A8A8" stroke-width="2"/>
<path d="M143.717 22.5215C142.695 22.9447 141.624 23.1562 140.504 23.1562C138.701 23.1562 137.314 22.6191 136.344 21.5449C135.38 20.4642 134.898 18.8691 134.898 16.7598C134.898 15.7376 135.032 14.8132 135.299 13.9863C135.566 13.1595 135.947 12.4596 136.441 11.8867C136.936 11.3073 137.535 10.8613 138.238 10.5488C138.941 10.2363 139.729 10.0801 140.602 10.0801C141.194 10.0801 141.744 10.1322 142.252 10.2363C142.76 10.334 143.248 10.487 143.717 10.6953V12.4043C143.255 12.1504 142.776 11.9583 142.281 11.8281C141.786 11.6914 141.246 11.623 140.66 11.623C140.061 11.623 139.518 11.737 139.029 11.9648C138.548 12.1862 138.137 12.5117 137.799 12.9414C137.46 13.3646 137.2 13.8854 137.018 14.5039C136.835 15.1159 136.744 15.8158 136.744 16.6035C136.744 18.2572 137.079 19.5039 137.75 20.3438C138.421 21.1836 139.404 21.6035 140.699 21.6035C141.246 21.6035 141.77 21.5417 142.271 21.418C142.773 21.2878 143.255 21.1087 143.717 20.8809V22.5215ZM155.895 23H154L153.111 20.2168H147.799L146.9 23H145.094L149.332 10.2363H151.715L155.895 23ZM152.613 18.6641L150.455 11.8379L148.297 18.6641H152.613Z" fill="#C9D1D9"/>
<circle cx="328" cy="156" r="14" stroke="#FFD700" stroke-width="2"/>
<path d="M326.824 151.424C326.349 151.17 325.861 150.975 325.359 150.838C324.858 150.695 324.311 150.623 323.719 150.623C323.042 150.623 322.439 150.743 321.912 150.984C321.385 151.225 320.939 151.567 320.574 152.01C320.216 152.446 319.939 152.973 319.744 153.592C319.555 154.21 319.461 154.894 319.461 155.643C319.461 156.424 319.539 157.124 319.695 157.742C319.852 158.361 320.096 158.885 320.428 159.314C320.76 159.744 321.183 160.073 321.697 160.301C322.218 160.529 322.84 160.643 323.562 160.643C323.686 160.643 323.82 160.636 323.963 160.623C324.106 160.61 324.249 160.594 324.393 160.574C324.536 160.548 324.673 160.519 324.803 160.486C324.939 160.454 325.06 160.418 325.164 160.379V156.316H322.557V154.881H326.883V161.404C326.616 161.528 326.333 161.639 326.033 161.736C325.74 161.834 325.438 161.915 325.125 161.98C324.819 162.046 324.513 162.094 324.207 162.127C323.901 162.16 323.605 162.176 323.318 162.176C322.446 162.176 321.658 162.039 320.955 161.766C320.258 161.492 319.663 161.089 319.168 160.555C318.68 160.014 318.302 159.344 318.035 158.543C317.775 157.742 317.645 156.814 317.645 155.76C317.645 154.712 317.791 153.774 318.084 152.947C318.377 152.114 318.787 151.411 319.314 150.838C319.848 150.258 320.486 149.819 321.229 149.52C321.977 149.214 322.801 149.061 323.699 149.061C324.272 149.061 324.816 149.113 325.33 149.217C325.851 149.314 326.349 149.474 326.824 149.695V151.424ZM338.152 150.721H334.373V162H332.615V150.721H328.836V149.236H338.152V150.721Z" fill="#C9D1D9"/>
<circle cx="263" cy="17" r="14" stroke="#C4A8A8" stroke-width="2"/>
<path d="M261.824 12.4238C261.349 12.1699 260.861 11.9746 260.359 11.8379C259.858 11.6947 259.311 11.623 258.719 11.623C258.042 11.623 257.439 11.7435 256.912 11.9844C256.385 12.2253 255.939 12.5671 255.574 13.0098C255.216 13.446 254.939 13.9733 254.744 14.5918C254.555 15.2103 254.461 15.8939 254.461 16.6426C254.461 17.4238 254.539 18.1237 254.695 18.7422C254.852 19.3607 255.096 19.8848 255.428 20.3145C255.76 20.7441 256.183 21.0729 256.697 21.3008C257.218 21.5286 257.84 21.6426 258.562 21.6426C258.686 21.6426 258.82 21.6361 258.963 21.623C259.106 21.61 259.249 21.5938 259.393 21.5742C259.536 21.5482 259.673 21.5189 259.803 21.4863C259.939 21.4538 260.06 21.418 260.164 21.3789V17.3164H257.557V15.8809H261.883V22.4043C261.616 22.528 261.333 22.6387 261.033 22.7363C260.74 22.834 260.438 22.9154 260.125 22.9805C259.819 23.0456 259.513 23.0944 259.207 23.127C258.901 23.1595 258.605 23.1758 258.318 23.1758C257.446 23.1758 256.658 23.0391 255.955 22.7656C255.258 22.4922 254.663 22.0885 254.168 21.5547C253.68 21.0143 253.302 20.3438 253.035 19.543C252.775 18.7422 252.645 17.8145 252.645 16.7598C252.645 15.7116 252.791 14.7741 253.084 13.9473C253.377 13.1139 253.787 12.4108 254.314 11.8379C254.848 11.2585 255.486 10.819 256.229 10.5195C256.977 10.2135 257.801 10.0605 258.699 10.0605C259.272 10.0605 259.816 10.1126 260.33 10.2168C260.851 10.3145 261.349 10.474 261.824 10.6953V12.4238ZM272.713 22.5215C271.691 22.9447 270.62 23.1562 269.5 23.1562C267.697 23.1562 266.31 22.6191 265.34 21.5449C264.376 20.4642 263.895 18.8691 263.895 16.7598C263.895 15.7376 264.028 14.8132 264.295 13.9863C264.562 13.1595 264.943 12.4596 265.438 11.8867C265.932 11.3073 266.531 10.8613 267.234 10.5488C267.938 10.2363 268.725 10.0801 269.598 10.0801C270.19 10.0801 270.74 10.1322 271.248 10.2363C271.756 10.334 272.244 10.487 272.713 10.6953V12.4043C272.251 12.1504 271.772 11.9583 271.277 11.8281C270.783 11.6914 270.242 11.623 269.656 11.623C269.057 11.623 268.514 11.737 268.025 11.9648C267.544 12.1862 267.133 12.5117 266.795 12.9414C266.456 13.3646 266.196 13.8854 266.014 14.5039C265.831 15.1159 265.74 15.8158 265.74 16.6035C265.74 18.2572 266.076 19.5039 266.746 20.3438C267.417 21.1836 268.4 21.6035 269.695 21.6035C270.242 21.6035 270.766 21.5417 271.268 21.418C271.769 21.2878 272.251 21.1087 272.713 20.8809V22.5215Z" fill="#C9D1D9"/>
<circle cx="263" cy="295" r="14" stroke="#C4A8A8" stroke-width="2"/>
<path d="M261.824 290.424C261.349 290.17 260.861 289.975 260.359 289.838C259.858 289.695 259.311 289.623 258.719 289.623C258.042 289.623 257.439 289.743 256.912 289.984C256.385 290.225 255.939 290.567 255.574 291.01C255.216 291.446 254.939 291.973 254.744 292.592C254.555 293.21 254.461 293.894 254.461 294.643C254.461 295.424 254.539 296.124 254.695 296.742C254.852 297.361 255.096 297.885 255.428 298.314C255.76 298.744 256.183 299.073 256.697 299.301C257.218 299.529 257.84 299.643 258.562 299.643C258.686 299.643 258.82 299.636 258.963 299.623C259.106 299.61 259.249 299.594 259.393 299.574C259.536 299.548 259.673 299.519 259.803 299.486C259.939 299.454 260.06 299.418 260.164 299.379V295.316H257.557V293.881H261.883V300.404C261.616 300.528 261.333 300.639 261.033 300.736C260.74 300.834 260.438 300.915 260.125 300.98C259.819 301.046 259.513 301.094 259.207 301.127C258.901 301.16 258.605 301.176 258.318 301.176C257.446 301.176 256.658 301.039 255.955 300.766C255.258 300.492 254.663 300.089 254.168 299.555C253.68 299.014 253.302 298.344 253.035 297.543C252.775 296.742 252.645 295.814 252.645 294.76C252.645 293.712 252.791 292.774 253.084 291.947C253.377 291.114 253.787 290.411 254.314 289.838C254.848 289.258 255.486 288.819 256.229 288.52C256.977 288.214 257.801 288.061 258.699 288.061C259.272 288.061 259.816 288.113 260.33 288.217C260.851 288.314 261.349 288.474 261.824 288.695V290.424ZM272.82 290.424C272.345 290.17 271.857 289.975 271.355 289.838C270.854 289.695 270.307 289.623 269.715 289.623C269.038 289.623 268.436 289.743 267.908 289.984C267.381 290.225 266.935 290.567 266.57 291.01C266.212 291.446 265.936 291.973 265.74 292.592C265.551 293.21 265.457 293.894 265.457 294.643C265.457 295.424 265.535 296.124 265.691 296.742C265.848 297.361 266.092 297.885 266.424 298.314C266.756 298.744 267.179 299.073 267.693 299.301C268.214 299.529 268.836 299.643 269.559 299.643C269.682 299.643 269.816 299.636 269.959 299.623C270.102 299.61 270.245 299.594 270.389 299.574C270.532 299.548 270.669 299.519 270.799 299.486C270.936 299.454 271.056 299.418 271.16 299.379V295.316H268.553V293.881H272.879V300.404C272.612 300.528 272.329 300.639 272.029 300.736C271.736 300.834 271.434 300.915 271.121 300.98C270.815 301.046 270.509 301.094 270.203 301.127C269.897 301.16 269.601 301.176 269.314 301.176C268.442 301.176 267.654 301.039 266.951 300.766C266.255 300.492 265.659 300.089 265.164 299.555C264.676 299.014 264.298 298.344 264.031 297.543C263.771 296.742 263.641 295.814 263.641 294.76C263.641 293.712 263.787 292.774 264.08 291.947C264.373 291.114 264.783 290.411 265.311 289.838C265.844 289.258 266.482 288.819 267.225 288.52C267.973 288.214 268.797 288.061 269.695 288.061C270.268 288.061 270.812 288.113 271.326 288.217C271.847 288.314 272.345 288.474 272.82 288.695V290.424Z" fill="#C9D1D9"/>
<circle cx="145" cy="297" r="14" stroke="#C4A8A8" stroke-width="2"/>
<path d="M143.824 292.424C143.349 292.17 142.861 291.975 142.359 291.838C141.858 291.695 141.311 291.623 140.719 291.623C140.042 291.623 139.439 291.743 138.912 291.984C138.385 292.225 137.939 292.567 137.574 293.01C137.216 293.446 136.939 293.973 136.744 294.592C136.555 295.21 136.461 295.894 136.461 296.643C136.461 297.424 136.539 298.124 136.695 298.742C136.852 299.361 137.096 299.885 137.428 300.314C137.76 300.744 138.183 301.073 138.697 301.301C139.218 301.529 139.84 301.643 140.562 301.643C140.686 301.643 140.82 301.636 140.963 301.623C141.106 301.61 141.249 301.594 141.393 301.574C141.536 301.548 141.673 301.519 141.803 301.486C141.939 301.454 142.06 301.418 142.164 301.379V297.316H139.557V295.881H143.883V302.404C143.616 302.528 143.333 302.639 143.033 302.736C142.74 302.834 142.438 302.915 142.125 302.98C141.819 303.046 141.513 303.094 141.207 303.127C140.901 303.16 140.605 303.176 140.318 303.176C139.446 303.176 138.658 303.039 137.955 302.766C137.258 302.492 136.663 302.089 136.168 301.555C135.68 301.014 135.302 300.344 135.035 299.543C134.775 298.742 134.645 297.814 134.645 296.76C134.645 295.712 134.791 294.774 135.084 293.947C135.377 293.114 135.787 292.411 136.314 291.838C136.848 291.258 137.486 290.819 138.229 290.52C138.977 290.214 139.801 290.061 140.699 290.061C141.272 290.061 141.816 290.113 142.33 290.217C142.851 290.314 143.349 290.474 143.824 290.695V292.424ZM155.895 303H154L153.111 300.217H147.799L146.9 303H145.094L149.332 290.236H151.715L155.895 303ZM152.613 298.664L150.455 291.838L148.297 298.664H152.613Z" fill="#C9D1D9"/>
<path d="M112.717 83.5215C111.695 83.9447 110.624 84.1562 109.504 84.1562C107.701 84.1562 106.314 83.6191 105.344 82.5449C104.38 81.4642 103.898 79.8691 103.898 77.7598C103.898 76.7376 104.032 75.8132 104.299 74.9863C104.566 74.1595 104.947 73.4596 105.441 72.8867C105.936 72.3073 106.535 71.8613 107.238 71.5488C107.941 71.2363 108.729 71.0801 109.602 71.0801C110.194 71.0801 110.744 71.1322 111.252 71.2363C111.76 71.334 112.248 71.487 112.717 71.6953V73.4043C112.255 73.1504 111.776 72.9583 111.281 72.8281C110.786 72.6914 110.246 72.623 109.66 72.623C109.061 72.623 108.518 72.737 108.029 72.9648C107.548 73.1862 107.137 73.5117 106.799 73.9414C106.46 74.3646 106.2 74.8854 106.018 75.5039C105.835 76.1159 105.744 76.8158 105.744 77.6035C105.744 79.2572 106.079 80.5039 106.75 81.3438C107.421 82.1836 108.404 82.6035 109.699 82.6035C110.246 82.6035 110.77 82.5417 111.271 82.418C111.773 82.2878 112.255 82.1087 112.717 81.8809V83.5215ZM124.895 84H123L122.111 81.2168H116.799L115.9 84H114.094L118.332 71.2363H120.715L124.895 84ZM121.613 79.6641L119.455 72.8379L117.297 79.6641H121.613ZM135.148 72.7207H131.369V84H129.611V72.7207H125.832V71.2363H135.148V72.7207Z" fill="#C9D1D9"/>
<path d="M110.824 233.424C110.349 233.17 109.861 232.975 109.359 232.838C108.858 232.695 108.311 232.623 107.719 232.623C107.042 232.623 106.439 232.743 105.912 232.984C105.385 233.225 104.939 233.567 104.574 234.01C104.216 234.446 103.939 234.973 103.744 235.592C103.555 236.21 103.461 236.894 103.461 237.643C103.461 238.424 103.539 239.124 103.695 239.742C103.852 240.361 104.096 240.885 104.428 241.314C104.76 241.744 105.183 242.073 105.697 242.301C106.218 242.529 106.84 242.643 107.562 242.643C107.686 242.643 107.82 242.636 107.963 242.623C108.106 242.61 108.249 242.594 108.393 242.574C108.536 242.548 108.673 242.519 108.803 242.486C108.939 242.454 109.06 242.418 109.164 242.379V238.316H106.557V236.881H110.883V243.404C110.616 243.528 110.333 243.639 110.033 243.736C109.74 243.834 109.438 243.915 109.125 243.98C108.819 244.046 108.513 244.094 108.207 244.127C107.901 244.16 107.605 244.176 107.318 244.176C106.446 244.176 105.658 244.039 104.955 243.766C104.258 243.492 103.663 243.089 103.168 242.555C102.68 242.014 102.302 241.344 102.035 240.543C101.775 239.742 101.645 238.814 101.645 237.76C101.645 236.712 101.791 235.774 102.084 234.947C102.377 234.114 102.787 233.411 103.314 232.838C103.848 232.258 104.486 231.819 105.229 231.52C105.977 231.214 106.801 231.061 107.699 231.061C108.272 231.061 108.816 231.113 109.33 231.217C109.851 231.314 110.349 231.474 110.824 231.695V233.424ZM122.895 244H121L120.111 241.217H114.799L113.9 244H112.094L116.332 231.236H118.715L122.895 244ZM119.613 239.664L117.455 232.838L115.297 239.664H119.613ZM133.148 232.721H129.369V244H127.611V232.721H123.832V231.236H133.148V232.721Z" fill="#C9D1D9"/>
<path d="M284.156 231.721H280.377V243H278.619V231.721H274.84V230.236H284.156V231.721ZM294.82 232.424C294.345 232.17 293.857 231.975 293.355 231.838C292.854 231.695 292.307 231.623 291.715 231.623C291.038 231.623 290.436 231.743 289.908 231.984C289.381 232.225 288.935 232.567 288.57 233.01C288.212 233.446 287.936 233.973 287.74 234.592C287.551 235.21 287.457 235.894 287.457 236.643C287.457 237.424 287.535 238.124 287.691 238.742C287.848 239.361 288.092 239.885 288.424 240.314C288.756 240.744 289.179 241.073 289.693 241.301C290.214 241.529 290.836 241.643 291.559 241.643C291.682 241.643 291.816 241.636 291.959 241.623C292.102 241.61 292.245 241.594 292.389 241.574C292.532 241.548 292.669 241.519 292.799 241.486C292.936 241.454 293.056 241.418 293.16 241.379V237.316H290.553V235.881H294.879V242.404C294.612 242.528 294.329 242.639 294.029 242.736C293.736 242.834 293.434 242.915 293.121 242.98C292.815 243.046 292.509 243.094 292.203 243.127C291.897 243.16 291.601 243.176 291.314 243.176C290.442 243.176 289.654 243.039 288.951 242.766C288.255 242.492 287.659 242.089 287.164 241.555C286.676 241.014 286.298 240.344 286.031 239.543C285.771 238.742 285.641 237.814 285.641 236.76C285.641 235.712 285.787 234.774 286.08 233.947C286.373 233.114 286.783 232.411 287.311 231.838C287.844 231.258 288.482 230.819 289.225 230.52C289.973 230.214 290.797 230.061 291.695 230.061C292.268 230.061 292.812 230.113 293.326 230.217C293.847 230.314 294.345 230.474 294.82 230.695V232.424ZM305.816 232.424C305.341 232.17 304.853 231.975 304.352 231.838C303.85 231.695 303.303 231.623 302.711 231.623C302.034 231.623 301.432 231.743 300.904 231.984C300.377 232.225 299.931 232.567 299.566 233.01C299.208 233.446 298.932 233.973 298.736 234.592C298.548 235.21 298.453 235.894 298.453 236.643C298.453 237.424 298.531 238.124 298.688 238.742C298.844 239.361 299.088 239.885 299.42 240.314C299.752 240.744 300.175 241.073 300.689 241.301C301.21 241.529 301.832 241.643 302.555 241.643C302.678 241.643 302.812 241.636 302.955 241.623C303.098 241.61 303.242 241.594 303.385 241.574C303.528 241.548 303.665 241.519 303.795 241.486C303.932 241.454 304.052 241.418 304.156 241.379V237.316H301.549V235.881H305.875V242.404C305.608 242.528 305.325 242.639 305.025 242.736C304.732 242.834 304.43 242.915 304.117 242.98C303.811 243.046 303.505 243.094 303.199 243.127C302.893 243.16 302.597 243.176 302.311 243.176C301.438 243.176 300.65 243.039 299.947 242.766C299.251 242.492 298.655 242.089 298.16 241.555C297.672 241.014 297.294 240.344 297.027 239.543C296.767 238.742 296.637 237.814 296.637 236.76C296.637 235.712 296.783 234.774 297.076 233.947C297.369 233.114 297.779 232.411 298.307 231.838C298.84 231.258 299.479 230.819 300.221 230.52C300.969 230.214 301.793 230.061 302.691 230.061C303.264 230.061 303.808 230.113 304.322 230.217C304.843 230.314 305.341 230.474 305.816 230.695V232.424Z" fill="#C9D1D9"/>
<path d="M279.156 72.7207H275.377V84H273.619V72.7207H269.84V71.2363H279.156V72.7207ZM289.82 73.4238C289.345 73.1699 288.857 72.9746 288.355 72.8379C287.854 72.6947 287.307 72.623 286.715 72.623C286.038 72.623 285.436 72.7435 284.908 72.9844C284.381 73.2253 283.935 73.5671 283.57 74.0098C283.212 74.446 282.936 74.9733 282.74 75.5918C282.551 76.2103 282.457 76.8939 282.457 77.6426C282.457 78.4238 282.535 79.1237 282.691 79.7422C282.848 80.3607 283.092 80.8848 283.424 81.3145C283.756 81.7441 284.179 82.0729 284.693 82.3008C285.214 82.5286 285.836 82.6426 286.559 82.6426C286.682 82.6426 286.816 82.6361 286.959 82.623C287.102 82.61 287.245 82.5938 287.389 82.5742C287.532 82.5482 287.669 82.5189 287.799 82.4863C287.936 82.4538 288.056 82.418 288.16 82.3789V78.3164H285.553V76.8809H289.879V83.4043C289.612 83.528 289.329 83.6387 289.029 83.7363C288.736 83.834 288.434 83.9154 288.121 83.9805C287.815 84.0456 287.509 84.0944 287.203 84.127C286.897 84.1595 286.601 84.1758 286.314 84.1758C285.442 84.1758 284.654 84.0391 283.951 83.7656C283.255 83.4922 282.659 83.0885 282.164 82.5547C281.676 82.0143 281.298 81.3438 281.031 80.543C280.771 79.7422 280.641 78.8145 280.641 77.7598C280.641 76.7116 280.787 75.7741 281.08 74.9473C281.373 74.1139 281.783 73.4108 282.311 72.8379C282.844 72.2585 283.482 71.819 284.225 71.5195C284.973 71.2135 285.797 71.0605 286.695 71.0605C287.268 71.0605 287.812 71.1126 288.326 71.2168C288.847 71.3145 289.345 71.474 289.82 71.6953V73.4238ZM300.709 83.5215C299.687 83.9447 298.616 84.1562 297.496 84.1562C295.693 84.1562 294.306 83.6191 293.336 82.5449C292.372 81.4642 291.891 79.8691 291.891 77.7598C291.891 76.7376 292.024 75.8132 292.291 74.9863C292.558 74.1595 292.939 73.4596 293.434 72.8867C293.928 72.3073 294.527 71.8613 295.23 71.5488C295.934 71.2363 296.721 71.0801 297.594 71.0801C298.186 71.0801 298.736 71.1322 299.244 71.2363C299.752 71.334 300.24 71.487 300.709 71.6953V73.4043C300.247 73.1504 299.768 72.9583 299.273 72.8281C298.779 72.6914 298.238 72.623 297.652 72.623C297.053 72.623 296.51 72.737 296.021 72.9648C295.54 73.1862 295.13 73.5117 294.791 73.9414C294.452 74.3646 294.192 74.8854 294.01 75.5039C293.827 76.1159 293.736 76.8158 293.736 77.6035C293.736 79.2572 294.072 80.5039 294.742 81.3438C295.413 82.1836 296.396 82.6035 297.691 82.6035C298.238 82.6035 298.762 82.5417 299.264 82.418C299.765 82.2878 300.247 82.1087 300.709 81.8809V83.5215Z" fill="#C9D1D9"/>
<path d="M247.707 157.707C248.098 157.317 248.098 156.683 247.707 156.293L241.343 149.929C240.953 149.538 240.319 149.538 239.929 149.929C239.538 150.319 239.538 150.953 239.929 151.343L245.586 157L239.929 162.657C239.538 163.047 239.538 163.681 239.929 164.071C240.319 164.462 240.953 164.462 241.343 164.071L247.707 157.707ZM160 158H215.23V156H160V158ZM215.23 158H247V156H215.23V158Z" fill="#C4A8A8"/>
<path d="M156 143.709C173.6 128.584 193.566 115.787 217.689 121.309C226.276 123.275 235.26 128.886 241.511 134.998C244.388 137.812 248.5 142.5 251 146" stroke="#C4A8A8" stroke-width="2" stroke-linecap="round" stroke-linejoin="round"/>
<path d="M251 137.5V146" stroke="#C4A8A8" stroke-width="2"/>
<path d="M242.5 144.5L252 146.5" stroke="#C4A8A8" stroke-width="2"/>
<path d="M156 169.291C173.6 184.416 193.566 197.213 217.689 191.691C226.276 189.725 235.26 184.114 241.511 178.002C244.388 175.188 248.5 170.5 251 167" stroke="#C4A8A8" stroke-width="2" stroke-linecap="round" stroke-linejoin="round"/>
<path d="M251 175.5V167" stroke="#C4A8A8" stroke-width="2"/>
<path d="M242.5 168.5L252 166.5" stroke="#C4A8A8" stroke-width="2"/>
<path d="M144.293 138.707C144.683 139.098 145.317 139.098 145.707 138.707L152.071 132.343C152.462 131.953 152.462 131.319 152.071 130.929C151.681 130.538 151.047 130.538 150.657 130.929L145 136.586L139.343 130.929C138.953 130.538 138.319 130.538 137.929 130.929C137.538 131.319 137.538 131.953 137.929 132.343L144.293 138.707ZM144 32V138H146V32H144Z" fill="#C4A8A8"/>
<path d="M144.293 138.707C144.683 139.098 145.317 139.098 145.707 138.707L152.071 132.343C152.462 131.953 152.462 131.319 152.071 130.929C151.681 130.538 151.047 130.538 150.657 130.929L145 136.586L139.343 130.929C138.953 130.538 138.319 130.538 137.929 130.929C137.538 131.319 137.538 131.953 137.929 132.343L144.293 138.707ZM144 32V138H146V32H144Z" fill="#C4A8A8"/>
<path d="M144.293 138.707C144.683 139.098 145.317 139.098 145.707 138.707L152.071 132.343C152.462 131.953 152.462 131.319 152.071 130.929C151.681 130.538 151.047 130.538 150.657 130.929L145 136.586L139.343 130.929C138.953 130.538 138.319 130.538 137.929 130.929C137.538 131.319 137.538 131.953 137.929 132.343L144.293 138.707ZM144 32V138H146V32H144Z" fill="#C4A8A8"/>
<path d="M262.293 279.707C262.683 280.098 263.317 280.098 263.707 279.707L270.071 273.343C270.462 272.953 270.462 272.319 270.071 271.929C269.681 271.538 269.047 271.538 268.657 271.929L263 277.586L257.343 271.929C256.953 271.538 256.319 271.538 255.929 271.929C255.538 272.319 255.538 272.953 255.929 273.343L262.293 279.707ZM262 173V279H264V173H262Z" fill="#C4A8A8"/>
<path d="M262.293 279.707C262.683 280.098 263.317 280.098 263.707 279.707L270.071 273.343C270.462 272.953 270.462 272.319 270.071 271.929C269.681 271.538 269.047 271.538 268.657 271.929L263 277.586L257.343 271.929C256.953 271.538 256.319 271.538 255.929 271.929C255.538 272.319 255.538 272.953 255.929 273.343L262.293 279.707ZM262 173V279H264V173H262Z" fill="#C4A8A8"/>
<path d="M262.293 279.707C262.683 280.098 263.317 280.098 263.707 279.707L270.071 273.343C270.462 272.953 270.462 272.319 270.071 271.929C269.681 271.538 269.047 271.538 268.657 271.929L263 277.586L257.343 271.929C256.953 271.538 256.319 271.538 255.929 271.929C255.538 272.319 255.538 272.953 255.929 273.343L262.293 279.707ZM262 173V279H264V173H262Z" fill="#C4A8A8"/>
<path d="M263.707 32.2929C263.317 31.9024 262.683 31.9024 262.293 32.2929L255.929 38.6569C255.538 39.0474 255.538 39.6805 255.929 40.0711C256.319 40.4616 256.953 40.4616 257.343 40.0711L263 34.4142L268.657 40.0711C269.047 40.4616 269.681 40.4616 270.071 40.0711C270.462 39.6805 270.462 39.0474 270.071 38.6569L263.707 32.2929ZM264 139V33H262V139H264Z" fill="#C4A8A8"/>
<path d="M263.707 32.2929C263.317 31.9024 262.683 31.9024 262.293 32.2929L255.929 38.6569C255.538 39.0474 255.538 39.6805 255.929 40.0711C256.319 40.4616 256.953 40.4616 257.343 40.0711L263 34.4142L268.657 40.0711C269.047 40.4616 269.681 40.4616 270.071 40.0711C270.462 39.6805 270.462 39.0474 270.071 38.6569L263.707 32.2929ZM264 139V33H262V139H264Z" fill="#C4A8A8"/>
<path d="M263.707 32.2929C263.317 31.9024 262.683 31.9024 262.293 32.2929L255.929 38.6569C255.538 39.0474 255.538 39.6805 255.929 40.0711C256.319 40.4616 256.953 40.4616 257.343 40.0711L263 34.4142L268.657 40.0711C269.047 40.4616 269.681 40.4616 270.071 40.0711C270.462 39.6805 270.462 39.0474 270.071 38.6569L263.707 32.2929ZM264 139V33H262V139H264Z" fill="#C4A8A8"/>
<path d="M145.707 174.293C145.317 173.902 144.683 173.902 144.293 174.293L137.929 180.657C137.538 181.047 137.538 181.681 137.929 182.071C138.319 182.462 138.953 182.462 139.343 182.071L145 176.414L150.657 182.071C151.047 182.462 151.681 182.462 152.071 182.071C152.462 181.681 152.462 181.047 152.071 180.657L145.707 174.293ZM146 281V175H144V281H146Z" fill="#C4A8A8"/>
<path d="M145.707 174.293C145.317 173.902 144.683 173.902 144.293 174.293L137.929 180.657C137.538 181.047 137.538 181.681 137.929 182.071C138.319 182.462 138.953 182.462 139.343 182.071L145 176.414L150.657 182.071C151.047 182.462 151.681 182.462 152.071 182.071C152.462 181.681 152.462 181.047 152.071 180.657L145.707 174.293ZM146 281V175H144V281H146Z" fill="#C4A8A8"/>
<path d="M145.707 174.293C145.317 173.902 144.683 173.902 144.293 174.293L137.929 180.657C137.538 181.047 137.538 181.681 137.929 182.071C138.319 182.462 138.953 182.462 139.343 182.071L145 176.414L150.657 182.071C151.047 182.462 151.681 182.462 152.071 182.071C152.462 181.681 152.462 181.047 152.071 180.657L145.707 174.293ZM146 281V175H144V281H146Z" fill="#C4A8A8"/>
<circle cx="867" cy="155" r="14" stroke="#C4A8A8" stroke-width="2"/>
<path d="M825.824 133.424C825.349 133.17 824.861 132.975 824.359 132.838C823.858 132.695 823.311 132.623 822.719 132.623C822.042 132.623 821.439 132.743 820.912 132.984C820.385 133.225 819.939 133.567 819.574 134.01C819.216 134.446 818.939 134.973 818.744 135.592C818.555 136.21 818.461 136.894 818.461 137.643C818.461 138.424 818.539 139.124 818.695 139.742C818.852 140.361 819.096 140.885 819.428 141.314C819.76 141.744 820.183 142.073 820.697 142.301C821.218 142.529 821.84 142.643 822.562 142.643C822.686 142.643 822.82 142.636 822.963 142.623C823.106 142.61 823.249 142.594 823.393 142.574C823.536 142.548 823.673 142.519 823.803 142.486C823.939 142.454 824.06 142.418 824.164 142.379V138.316H821.557V136.881H825.883V143.404C825.616 143.528 825.333 143.639 825.033 143.736C824.74 143.834 824.438 143.915 824.125 143.98C823.819 144.046 823.513 144.094 823.207 144.127C822.901 144.16 822.605 144.176 822.318 144.176C821.446 144.176 820.658 144.039 819.955 143.766C819.258 143.492 818.663 143.089 818.168 142.555C817.68 142.014 817.302 141.344 817.035 140.543C816.775 139.742 816.645 138.814 816.645 137.76C816.645 136.712 816.791 135.774 817.084 134.947C817.377 134.114 817.787 133.411 818.314 132.838C818.848 132.258 819.486 131.819 820.229 131.52C820.977 131.214 821.801 131.061 822.699 131.061C823.272 131.061 823.816 131.113 824.33 131.217C824.851 131.314 825.349 131.474 825.824 131.695V133.424ZM837.152 132.721H833.373V144H831.615V132.721H827.836V131.236H837.152V132.721ZM848.148 132.721H844.369V144H842.611V132.721H838.832V131.236H848.148V132.721Z" fill="#C9D1D9"/>
<path d="M851.707 155.707C852.098 155.317 852.098 154.683 851.707 154.293L845.343 147.929C844.953 147.538 844.319 147.538 843.929 147.929C843.538 148.319 843.538 148.953 843.929 149.343L849.586 155L843.929 160.657C843.538 161.047 843.538 161.681 843.929 162.071C844.319 162.462 844.953 162.462 845.343 162.071L851.707 155.707ZM817 156H851V154H817V156Z" fill="#C4A8A8"/>
<path d="M866.156 149.721H862.377V161H860.619V149.721H856.84V148.236H866.156V149.721ZM877.152 149.721H873.373V161H871.615V149.721H867.836V148.236H877.152V149.721Z" fill="#C9D1D9"/>
<circle cx="489" cy="155" r="14" stroke="#C4A8A8" stroke-width="2"/>
<path d="M513.156 133.721H509.377V145H507.619V133.721H503.84V132.236H513.156V133.721ZM524.895 145H523L522.111 142.217H516.799L515.9 145H514.094L518.332 132.236H520.715L524.895 145ZM521.613 140.664L519.455 133.838L517.297 140.664H521.613ZM535.891 145H533.996L533.107 142.217H527.795L526.896 145H525.09L529.328 132.236H531.711L535.891 145ZM532.609 140.664L530.451 133.838L528.293 140.664H532.609Z" fill="#C9D1D9"/>
<path d="M538.707 155.707C539.098 155.317 539.098 154.683 538.707 154.293L532.343 147.929C531.953 147.538 531.319 147.538 530.929 147.929C530.538 148.319 530.538 148.953 530.929 149.343L536.586 155L530.929 160.657C530.538 161.047 530.538 161.681 530.929 162.071C531.319 162.462 531.953 162.462 532.343 162.071L538.707 155.707ZM504 156H538V154H504V156Z" fill="#C4A8A8"/>
<path d="M487.156 149.721H483.377V161H481.619V149.721H477.84V148.236H487.156V149.721ZM498.895 161H497L496.111 158.217H490.799L489.9 161H488.094L492.332 148.236H494.715L498.895 161ZM495.613 156.664L493.455 149.838L491.297 156.664H495.613Z" fill="#C9D1D9"/>
<circle cx="554" cy="155" r="14" stroke="#C4A8A8" stroke-width="2"/>
<circle cx="619" cy="155" r="14" stroke="#C4A8A8" stroke-width="2"/>
<path d="M578.898 144H577.004L576.115 141.217H570.803L569.904 144H568.098L572.336 131.236H574.719L578.898 144ZM575.617 139.664L573.459 132.838L571.301 139.664H575.617ZM589.895 144H588L587.111 141.217H581.799L580.9 144H579.094L583.332 131.236H585.715L589.895 144ZM586.613 139.664L584.455 132.838L582.297 139.664H586.613ZM600.148 132.721H596.369V144H594.611V132.721H590.832V131.236H600.148V132.721Z" fill="#C9D1D9"/>
<path d="M671.898 114H670.004L669.115 111.217H663.803L662.904 114H661.098L665.336 101.236H667.719L671.898 114ZM668.617 109.664L666.459 102.838L664.301 109.664H668.617ZM682.152 102.721H678.373V114H676.615V102.721H672.836V101.236H682.152V102.721ZM692.816 103.424C692.341 103.17 691.853 102.975 691.352 102.838C690.85 102.695 690.303 102.623 689.711 102.623C689.034 102.623 688.432 102.743 687.904 102.984C687.377 103.225 686.931 103.567 686.566 104.01C686.208 104.446 685.932 104.973 685.736 105.592C685.548 106.21 685.453 106.894 685.453 107.643C685.453 108.424 685.531 109.124 685.688 109.742C685.844 110.361 686.088 110.885 686.42 111.314C686.752 111.744 687.175 112.073 687.689 112.301C688.21 112.529 688.832 112.643 689.555 112.643C689.678 112.643 689.812 112.636 689.955 112.623C690.098 112.61 690.242 112.594 690.385 112.574C690.528 112.548 690.665 112.519 690.795 112.486C690.932 112.454 691.052 112.418 691.156 112.379V108.316H688.549V106.881H692.875V113.404C692.608 113.528 692.325 113.639 692.025 113.736C691.732 113.834 691.43 113.915 691.117 113.98C690.811 114.046 690.505 114.094 690.199 114.127C689.893 114.16 689.597 114.176 689.311 114.176C688.438 114.176 687.65 114.039 686.947 113.766C686.251 113.492 685.655 113.089 685.16 112.555C684.672 112.014 684.294 111.344 684.027 110.543C683.767 109.742 683.637 108.814 683.637 107.76C683.637 106.712 683.783 105.774 684.076 104.947C684.369 104.114 684.779 103.411 685.307 102.838C685.84 102.258 686.479 101.819 687.221 101.52C687.969 101.214 688.793 101.061 689.691 101.061C690.264 101.061 690.808 101.113 691.322 101.217C691.843 101.314 692.341 101.474 692.816 101.695V103.424Z" fill="#C9D1D9"/>
<path d="M671.898 186H670.004L669.115 183.217H663.803L662.904 186H661.098L665.336 173.236H667.719L671.898 186ZM668.617 181.664L666.459 174.838L664.301 181.664H668.617ZM682.152 174.721H678.373V186H676.615V174.721H672.836V173.236H682.152V174.721ZM692.816 175.424C692.341 175.17 691.853 174.975 691.352 174.838C690.85 174.695 690.303 174.623 689.711 174.623C689.034 174.623 688.432 174.743 687.904 174.984C687.377 175.225 686.931 175.567 686.566 176.01C686.208 176.446 685.932 176.973 685.736 177.592C685.548 178.21 685.453 178.894 685.453 179.643C685.453 180.424 685.531 181.124 685.688 181.742C685.844 182.361 686.088 182.885 686.42 183.314C686.752 183.744 687.175 184.073 687.689 184.301C688.21 184.529 688.832 184.643 689.555 184.643C689.678 184.643 689.812 184.636 689.955 184.623C690.098 184.61 690.242 184.594 690.385 184.574C690.528 184.548 690.665 184.519 690.795 184.486C690.932 184.454 691.052 184.418 691.156 184.379V180.316H688.549V178.881H692.875V185.404C692.608 185.528 692.325 185.639 692.025 185.736C691.732 185.834 691.43 185.915 691.117 185.98C690.811 186.046 690.505 186.094 690.199 186.127C689.893 186.16 689.597 186.176 689.311 186.176C688.438 186.176 687.65 186.039 686.947 185.766C686.251 185.492 685.655 185.089 685.16 184.555C684.672 184.014 684.294 183.344 684.027 182.543C683.767 181.742 683.637 180.814 683.637 179.76C683.637 178.712 683.783 177.774 684.076 176.947C684.369 176.114 684.779 175.411 685.307 174.838C685.84 174.258 686.479 173.819 687.221 173.52C687.969 173.214 688.793 173.061 689.691 173.061C690.264 173.061 690.808 173.113 691.322 173.217C691.843 173.314 692.341 173.474 692.816 173.695V175.424Z" fill="#C9D1D9"/>
<path d="M671.898 150H670.004L669.115 147.217H663.803L662.904 150H661.098L665.336 137.236H667.719L671.898 150ZM668.617 145.664L666.459 138.838L664.301 145.664H668.617ZM682.152 138.721H678.373V150H676.615V138.721H672.836V137.236H682.152V138.721ZM692.816 139.424C692.341 139.17 691.853 138.975 691.352 138.838C690.85 138.695 690.303 138.623 689.711 138.623C689.034 138.623 688.432 138.743 687.904 138.984C687.377 139.225 686.931 139.567 686.566 140.01C686.208 140.446 685.932 140.973 685.736 141.592C685.548 142.21 685.453 142.894 685.453 143.643C685.453 144.424 685.531 145.124 685.688 145.742C685.844 146.361 686.088 146.885 686.42 147.314C686.752 147.744 687.175 148.073 687.689 148.301C688.21 148.529 688.832 148.643 689.555 148.643C689.678 148.643 689.812 148.636 689.955 148.623C690.098 148.61 690.242 148.594 690.385 148.574C690.528 148.548 690.665 148.519 690.795 148.486C690.932 148.454 691.052 148.418 691.156 148.379V144.316H688.549V142.881H692.875V149.404C692.608 149.528 692.325 149.639 692.025 149.736C691.732 149.834 691.43 149.915 691.117 149.98C690.811 150.046 690.505 150.094 690.199 150.127C689.893 150.16 689.597 150.176 689.311 150.176C688.438 150.176 687.65 150.039 686.947 149.766C686.251 149.492 685.655 149.089 685.16 148.555C684.672 148.014 684.294 147.344 684.027 146.543C683.767 145.742 683.637 144.814 683.637 143.76C683.637 142.712 683.783 141.774 684.076 140.947C684.369 140.114 684.779 139.411 685.307 138.838C685.84 138.258 686.479 137.819 687.221 137.52C687.969 137.214 688.793 137.061 689.691 137.061C690.264 137.061 690.808 137.113 691.322 137.217C691.843 137.314 692.341 137.474 692.816 137.695V139.424Z" fill="#C9D1D9"/>
<path d="M603.707 155.707C604.098 155.317 604.098 154.683 603.707 154.293L597.343 147.929C596.953 147.538 596.319 147.538 595.929 147.929C595.538 148.319 595.538 148.953 595.929 149.343L601.586 155L595.929 160.657C595.538 161.047 595.538 161.681 595.929 162.071C596.319 162.462 596.953 162.462 597.343 162.071L603.707 155.707ZM569 156H603V154H569V156Z" fill="#C4A8A8"/>
<path d="M786.707 155.707C787.098 155.317 787.098 154.683 786.707 154.293L780.343 147.929C779.953 147.538 779.319 147.538 778.929 147.929C778.538 148.319 778.538 148.953 778.929 149.343L784.586 155L778.929 160.657C778.538 161.047 778.538 161.681 778.929 162.071C779.319 162.462 779.953 162.462 780.343 162.071L786.707 155.707ZM752 156H786V154H752V156Z" fill="#C4A8A8"/>
<path d="M552.898 161H551.004L550.115 158.217H544.803L543.904 161H542.098L546.336 148.236H548.719L552.898 161ZM549.617 156.664L547.459 149.838L545.301 156.664H549.617ZM563.895 161H562L561.111 158.217H555.799L554.9 161H553.094L557.332 148.236H559.715L563.895 161ZM560.613 156.664L558.455 149.838L556.297 156.664H560.613Z" fill="#C9D1D9"/>
<path d="M618.898 161H617.004L616.115 158.217H610.803L609.904 161H608.098L612.336 148.236H614.719L618.898 161ZM615.617 156.664L613.459 149.838L611.301 156.664H615.617ZM629.152 149.721H625.373V161H623.615V149.721H619.836V148.236H629.152V149.721Z" fill="#C9D1D9"/>
<circle cx="737" cy="155" r="14" stroke="#C4A8A8" stroke-width="2"/>
<path d="M736.156 149.721H732.377V161H730.619V149.721H726.84V148.236H736.156V149.721ZM746.82 150.424C746.345 150.17 745.857 149.975 745.355 149.838C744.854 149.695 744.307 149.623 743.715 149.623C743.038 149.623 742.436 149.743 741.908 149.984C741.381 150.225 740.935 150.567 740.57 151.01C740.212 151.446 739.936 151.973 739.74 152.592C739.551 153.21 739.457 153.894 739.457 154.643C739.457 155.424 739.535 156.124 739.691 156.742C739.848 157.361 740.092 157.885 740.424 158.314C740.756 158.744 741.179 159.073 741.693 159.301C742.214 159.529 742.836 159.643 743.559 159.643C743.682 159.643 743.816 159.636 743.959 159.623C744.102 159.61 744.245 159.594 744.389 159.574C744.532 159.548 744.669 159.519 744.799 159.486C744.936 159.454 745.056 159.418 745.16 159.379V155.316H742.553V153.881H746.879V160.404C746.612 160.528 746.329 160.639 746.029 160.736C745.736 160.834 745.434 160.915 745.121 160.98C744.815 161.046 744.509 161.094 744.203 161.127C743.897 161.16 743.601 161.176 743.314 161.176C742.442 161.176 741.654 161.039 740.951 160.766C740.255 160.492 739.659 160.089 739.164 159.555C738.676 159.014 738.298 158.344 738.031 157.543C737.771 156.742 737.641 155.814 737.641 154.76C737.641 153.712 737.787 152.774 738.08 151.947C738.373 151.114 738.783 150.411 739.311 149.838C739.844 149.258 740.482 148.819 741.225 148.52C741.973 148.214 742.797 148.061 743.695 148.061C744.268 148.061 744.812 148.113 745.326 148.217C745.847 148.314 746.345 148.474 746.82 148.695V150.424Z" fill="#C9D1D9"/>
<circle cx="619" cy="15" r="14" stroke="#C3A8A8" stroke-width="2"/>
<path d="M617.717 20.5215C616.695 20.9447 615.624 21.1562 614.504 21.1562C612.701 21.1562 611.314 20.6191 610.344 19.5449C609.38 18.4642 608.898 16.8691 608.898 14.7598C608.898 13.7376 609.032 12.8132 609.299 11.9863C609.566 11.1595 609.947 10.4596 610.441 9.88672C610.936 9.30729 611.535 8.86133 612.238 8.54883C612.941 8.23633 613.729 8.08008 614.602 8.08008C615.194 8.08008 615.744 8.13216 616.252 8.23633C616.76 8.33398 617.248 8.48698 617.717 8.69531V10.4043C617.255 10.1504 616.776 9.95833 616.281 9.82812C615.786 9.69141 615.246 9.62305 614.66 9.62305C614.061 9.62305 613.518 9.73698 613.029 9.96484C612.548 10.1862 612.137 10.5117 611.799 10.9414C611.46 11.3646 611.2 11.8854 611.018 12.5039C610.835 13.1159 610.744 13.8158 610.744 14.6035C610.744 16.2572 611.079 17.5039 611.75 18.3438C612.421 19.1836 613.404 19.6035 614.699 19.6035C615.246 19.6035 615.77 19.5417 616.271 19.418C616.773 19.2878 617.255 19.1087 617.717 18.8809V20.5215ZM629.895 21H628L627.111 18.2168H621.799L620.9 21H619.094L623.332 8.23633H625.715L629.895 21ZM626.613 16.6641L624.455 9.83789L622.297 16.6641H626.613Z" fill="#C9D1D9"/>
<circle cx="802" cy="154" r="14" stroke="#FFD700" stroke-width="2"/>
<path d="M800.824 149.424C800.349 149.17 799.861 148.975 799.359 148.838C798.858 148.695 798.311 148.623 797.719 148.623C797.042 148.623 796.439 148.743 795.912 148.984C795.385 149.225 794.939 149.567 794.574 150.01C794.216 150.446 793.939 150.973 793.744 151.592C793.555 152.21 793.461 152.894 793.461 153.643C793.461 154.424 793.539 155.124 793.695 155.742C793.852 156.361 794.096 156.885 794.428 157.314C794.76 157.744 795.183 158.073 795.697 158.301C796.218 158.529 796.84 158.643 797.562 158.643C797.686 158.643 797.82 158.636 797.963 158.623C798.106 158.61 798.249 158.594 798.393 158.574C798.536 158.548 798.673 158.519 798.803 158.486C798.939 158.454 799.06 158.418 799.164 158.379V154.316H796.557V152.881H800.883V159.404C800.616 159.528 800.333 159.639 800.033 159.736C799.74 159.834 799.438 159.915 799.125 159.98C798.819 160.046 798.513 160.094 798.207 160.127C797.901 160.16 797.605 160.176 797.318 160.176C796.446 160.176 795.658 160.039 794.955 159.766C794.258 159.492 793.663 159.089 793.168 158.555C792.68 158.014 792.302 157.344 792.035 156.543C791.775 155.742 791.645 154.814 791.645 153.76C791.645 152.712 791.791 151.774 792.084 150.947C792.377 150.114 792.787 149.411 793.314 148.838C793.848 148.258 794.486 147.819 795.229 147.52C795.977 147.214 796.801 147.061 797.699 147.061C798.272 147.061 798.816 147.113 799.33 147.217C799.851 147.314 800.349 147.474 800.824 147.695V149.424ZM812.152 148.721H808.373V160H806.615V148.721H802.836V147.236H812.152V148.721Z" fill="#C9D1D9"/>
<circle cx="737" cy="15" r="14" stroke="#C4A8A8" stroke-width="2"/>
<path d="M735.824 10.4238C735.349 10.1699 734.861 9.97461 734.359 9.83789C733.858 9.69466 733.311 9.62305 732.719 9.62305C732.042 9.62305 731.439 9.74349 730.912 9.98438C730.385 10.2253 729.939 10.5671 729.574 11.0098C729.216 11.446 728.939 11.9733 728.744 12.5918C728.555 13.2103 728.461 13.8939 728.461 14.6426C728.461 15.4238 728.539 16.1237 728.695 16.7422C728.852 17.3607 729.096 17.8848 729.428 18.3145C729.76 18.7441 730.183 19.0729 730.697 19.3008C731.218 19.5286 731.84 19.6426 732.562 19.6426C732.686 19.6426 732.82 19.6361 732.963 19.623C733.106 19.61 733.249 19.5938 733.393 19.5742C733.536 19.5482 733.673 19.5189 733.803 19.4863C733.939 19.4538 734.06 19.418 734.164 19.3789V15.3164H731.557V13.8809H735.883V20.4043C735.616 20.528 735.333 20.6387 735.033 20.7363C734.74 20.834 734.438 20.9154 734.125 20.9805C733.819 21.0456 733.513 21.0944 733.207 21.127C732.901 21.1595 732.605 21.1758 732.318 21.1758C731.446 21.1758 730.658 21.0391 729.955 20.7656C729.258 20.4922 728.663 20.0885 728.168 19.5547C727.68 19.0143 727.302 18.3438 727.035 17.543C726.775 16.7422 726.645 15.8145 726.645 14.7598C726.645 13.7116 726.791 12.7741 727.084 11.9473C727.377 11.1139 727.787 10.4108 728.314 9.83789C728.848 9.25846 729.486 8.81901 730.229 8.51953C730.977 8.21354 731.801 8.06055 732.699 8.06055C733.272 8.06055 733.816 8.11263 734.33 8.2168C734.851 8.31445 735.349 8.47396 735.824 8.69531V10.4238ZM746.713 20.5215C745.691 20.9447 744.62 21.1562 743.5 21.1562C741.697 21.1562 740.31 20.6191 739.34 19.5449C738.376 18.4642 737.895 16.8691 737.895 14.7598C737.895 13.7376 738.028 12.8132 738.295 11.9863C738.562 11.1595 738.943 10.4596 739.438 9.88672C739.932 9.30729 740.531 8.86133 741.234 8.54883C741.938 8.23633 742.725 8.08008 743.598 8.08008C744.19 8.08008 744.74 8.13216 745.248 8.23633C745.756 8.33398 746.244 8.48698 746.713 8.69531V10.4043C746.251 10.1504 745.772 9.95833 745.277 9.82812C744.783 9.69141 744.242 9.62305 743.656 9.62305C743.057 9.62305 742.514 9.73698 742.025 9.96484C741.544 10.1862 741.133 10.5117 740.795 10.9414C740.456 11.3646 740.196 11.8854 740.014 12.5039C739.831 13.1159 739.74 13.8158 739.74 14.6035C739.74 16.2572 740.076 17.5039 740.746 18.3438C741.417 19.1836 742.4 19.6035 743.695 19.6035C744.242 19.6035 744.766 19.5417 745.268 19.418C745.769 19.2878 746.251 19.1087 746.713 18.8809V20.5215Z" fill="#C9D1D9"/>
<circle cx="737" cy="293" r="14" stroke="#C4A8A8" stroke-width="2"/>
<path d="M735.824 288.424C735.349 288.17 734.861 287.975 734.359 287.838C733.858 287.695 733.311 287.623 732.719 287.623C732.042 287.623 731.439 287.743 730.912 287.984C730.385 288.225 729.939 288.567 729.574 289.01C729.216 289.446 728.939 289.973 728.744 290.592C728.555 291.21 728.461 291.894 728.461 292.643C728.461 293.424 728.539 294.124 728.695 294.742C728.852 295.361 729.096 295.885 729.428 296.314C729.76 296.744 730.183 297.073 730.697 297.301C731.218 297.529 731.84 297.643 732.562 297.643C732.686 297.643 732.82 297.636 732.963 297.623C733.106 297.61 733.249 297.594 733.393 297.574C733.536 297.548 733.673 297.519 733.803 297.486C733.939 297.454 734.06 297.418 734.164 297.379V293.316H731.557V291.881H735.883V298.404C735.616 298.528 735.333 298.639 735.033 298.736C734.74 298.834 734.438 298.915 734.125 298.98C733.819 299.046 733.513 299.094 733.207 299.127C732.901 299.16 732.605 299.176 732.318 299.176C731.446 299.176 730.658 299.039 729.955 298.766C729.258 298.492 728.663 298.089 728.168 297.555C727.68 297.014 727.302 296.344 727.035 295.543C726.775 294.742 726.645 293.814 726.645 292.76C726.645 291.712 726.791 290.774 727.084 289.947C727.377 289.114 727.787 288.411 728.314 287.838C728.848 287.258 729.486 286.819 730.229 286.52C730.977 286.214 731.801 286.061 732.699 286.061C733.272 286.061 733.816 286.113 734.33 286.217C734.851 286.314 735.349 286.474 735.824 286.695V288.424ZM746.82 288.424C746.345 288.17 745.857 287.975 745.355 287.838C744.854 287.695 744.307 287.623 743.715 287.623C743.038 287.623 742.436 287.743 741.908 287.984C741.381 288.225 740.935 288.567 740.57 289.01C740.212 289.446 739.936 289.973 739.74 290.592C739.551 291.21 739.457 291.894 739.457 292.643C739.457 293.424 739.535 294.124 739.691 294.742C739.848 295.361 740.092 295.885 740.424 296.314C740.756 296.744 741.179 297.073 741.693 297.301C742.214 297.529 742.836 297.643 743.559 297.643C743.682 297.643 743.816 297.636 743.959 297.623C744.102 297.61 744.245 297.594 744.389 297.574C744.532 297.548 744.669 297.519 744.799 297.486C744.936 297.454 745.056 297.418 745.16 297.379V293.316H742.553V291.881H746.879V298.404C746.612 298.528 746.329 298.639 746.029 298.736C745.736 298.834 745.434 298.915 745.121 298.98C744.815 299.046 744.509 299.094 744.203 299.127C743.897 299.16 743.601 299.176 743.314 299.176C742.442 299.176 741.654 299.039 740.951 298.766C740.255 298.492 739.659 298.089 739.164 297.555C738.676 297.014 738.298 296.344 738.031 295.543C737.771 294.742 737.641 293.814 737.641 292.76C737.641 291.712 737.787 290.774 738.08 289.947C738.373 289.114 738.783 288.411 739.311 287.838C739.844 287.258 740.482 286.819 741.225 286.52C741.973 286.214 742.797 286.061 743.695 286.061C744.268 286.061 744.812 286.113 745.326 286.217C745.847 286.314 746.345 286.474 746.82 286.695V288.424Z" fill="#C9D1D9"/>
<circle cx="619" cy="295" r="14" stroke="#C4A8A8" stroke-width="2"/>
<path d="M617.824 290.424C617.349 290.17 616.861 289.975 616.359 289.838C615.858 289.695 615.311 289.623 614.719 289.623C614.042 289.623 613.439 289.743 612.912 289.984C612.385 290.225 611.939 290.567 611.574 291.01C611.216 291.446 610.939 291.973 610.744 292.592C610.555 293.21 610.461 293.894 610.461 294.643C610.461 295.424 610.539 296.124 610.695 296.742C610.852 297.361 611.096 297.885 611.428 298.314C611.76 298.744 612.183 299.073 612.697 299.301C613.218 299.529 613.84 299.643 614.562 299.643C614.686 299.643 614.82 299.636 614.963 299.623C615.106 299.61 615.249 299.594 615.393 299.574C615.536 299.548 615.673 299.519 615.803 299.486C615.939 299.454 616.06 299.418 616.164 299.379V295.316H613.557V293.881H617.883V300.404C617.616 300.528 617.333 300.639 617.033 300.736C616.74 300.834 616.438 300.915 616.125 300.98C615.819 301.046 615.513 301.094 615.207 301.127C614.901 301.16 614.605 301.176 614.318 301.176C613.446 301.176 612.658 301.039 611.955 300.766C611.258 300.492 610.663 300.089 610.168 299.555C609.68 299.014 609.302 298.344 609.035 297.543C608.775 296.742 608.645 295.814 608.645 294.76C608.645 293.712 608.791 292.774 609.084 291.947C609.377 291.114 609.787 290.411 610.314 289.838C610.848 289.258 611.486 288.819 612.229 288.52C612.977 288.214 613.801 288.061 614.699 288.061C615.272 288.061 615.816 288.113 616.33 288.217C616.851 288.314 617.349 288.474 617.824 288.695V290.424ZM629.895 301H628L627.111 298.217H621.799L620.9 301H619.094L623.332 288.236H625.715L629.895 301ZM626.613 296.664L624.455 289.838L622.297 296.664H626.613Z" fill="#C9D1D9"/>
<path d="M586.717 81.5215C585.695 81.9447 584.624 82.1562 583.504 82.1562C581.701 82.1562 580.314 81.6191 579.344 80.5449C578.38 79.4642 577.898 77.8691 577.898 75.7598C577.898 74.7376 578.032 73.8132 578.299 72.9863C578.566 72.1595 578.947 71.4596 579.441 70.8867C579.936 70.3073 580.535 69.8613 581.238 69.5488C581.941 69.2363 582.729 69.0801 583.602 69.0801C584.194 69.0801 584.744 69.1322 585.252 69.2363C585.76 69.334 586.248 69.487 586.717 69.6953V71.4043C586.255 71.1504 585.776 70.9583 585.281 70.8281C584.786 70.6914 584.246 70.623 583.66 70.623C583.061 70.623 582.518 70.737 582.029 70.9648C581.548 71.1862 581.137 71.5117 580.799 71.9414C580.46 72.3646 580.2 72.8854 580.018 73.5039C579.835 74.1159 579.744 74.8158 579.744 75.6035C579.744 77.2572 580.079 78.5039 580.75 79.3438C581.421 80.1836 582.404 80.6035 583.699 80.6035C584.246 80.6035 584.77 80.5417 585.271 80.418C585.773 80.2878 586.255 80.1087 586.717 79.8809V81.5215ZM598.895 82H597L596.111 79.2168H590.799L589.9 82H588.094L592.332 69.2363H594.715L598.895 82ZM595.613 77.6641L593.455 70.8379L591.297 77.6641H595.613ZM609.148 70.7207H605.369V82H603.611V70.7207H599.832V69.2363H609.148V70.7207Z" fill="#C9D1D9"/>
<path d="M584.824 231.424C584.349 231.17 583.861 230.975 583.359 230.838C582.858 230.695 582.311 230.623 581.719 230.623C581.042 230.623 580.439 230.743 579.912 230.984C579.385 231.225 578.939 231.567 578.574 232.01C578.216 232.446 577.939 232.973 577.744 233.592C577.555 234.21 577.461 234.894 577.461 235.643C577.461 236.424 577.539 237.124 577.695 237.742C577.852 238.361 578.096 238.885 578.428 239.314C578.76 239.744 579.183 240.073 579.697 240.301C580.218 240.529 580.84 240.643 581.562 240.643C581.686 240.643 581.82 240.636 581.963 240.623C582.106 240.61 582.249 240.594 582.393 240.574C582.536 240.548 582.673 240.519 582.803 240.486C582.939 240.454 583.06 240.418 583.164 240.379V236.316H580.557V234.881H584.883V241.404C584.616 241.528 584.333 241.639 584.033 241.736C583.74 241.834 583.438 241.915 583.125 241.98C582.819 242.046 582.513 242.094 582.207 242.127C581.901 242.16 581.605 242.176 581.318 242.176C580.446 242.176 579.658 242.039 578.955 241.766C578.258 241.492 577.663 241.089 577.168 240.555C576.68 240.014 576.302 239.344 576.035 238.543C575.775 237.742 575.645 236.814 575.645 235.76C575.645 234.712 575.791 233.774 576.084 232.947C576.377 232.114 576.787 231.411 577.314 230.838C577.848 230.258 578.486 229.819 579.229 229.52C579.977 229.214 580.801 229.061 581.699 229.061C582.272 229.061 582.816 229.113 583.33 229.217C583.851 229.314 584.349 229.474 584.824 229.695V231.424ZM596.895 242H595L594.111 239.217H588.799L587.9 242H586.094L590.332 229.236H592.715L596.895 242ZM593.613 237.664L591.455 230.838L589.297 237.664H593.613ZM607.148 230.721H603.369V242H601.611V230.721H597.832V229.236H607.148V230.721Z" fill="#C9D1D9"/>
<path d="M758.156 229.721H754.377V241H752.619V229.721H748.84V228.236H758.156V229.721ZM768.82 230.424C768.345 230.17 767.857 229.975 767.355 229.838C766.854 229.695 766.307 229.623 765.715 229.623C765.038 229.623 764.436 229.743 763.908 229.984C763.381 230.225 762.935 230.567 762.57 231.01C762.212 231.446 761.936 231.973 761.74 232.592C761.551 233.21 761.457 233.894 761.457 234.643C761.457 235.424 761.535 236.124 761.691 236.742C761.848 237.361 762.092 237.885 762.424 238.314C762.756 238.744 763.179 239.073 763.693 239.301C764.214 239.529 764.836 239.643 765.559 239.643C765.682 239.643 765.816 239.636 765.959 239.623C766.102 239.61 766.245 239.594 766.389 239.574C766.532 239.548 766.669 239.519 766.799 239.486C766.936 239.454 767.056 239.418 767.16 239.379V235.316H764.553V233.881H768.879V240.404C768.612 240.528 768.329 240.639 768.029 240.736C767.736 240.834 767.434 240.915 767.121 240.98C766.815 241.046 766.509 241.094 766.203 241.127C765.897 241.16 765.601 241.176 765.314 241.176C764.442 241.176 763.654 241.039 762.951 240.766C762.255 240.492 761.659 240.089 761.164 239.555C760.676 239.014 760.298 238.344 760.031 237.543C759.771 236.742 759.641 235.814 759.641 234.76C759.641 233.712 759.787 232.774 760.08 231.947C760.373 231.114 760.783 230.411 761.311 229.838C761.844 229.258 762.482 228.819 763.225 228.52C763.973 228.214 764.797 228.061 765.695 228.061C766.268 228.061 766.812 228.113 767.326 228.217C767.847 228.314 768.345 228.474 768.82 228.695V230.424ZM779.816 230.424C779.341 230.17 778.853 229.975 778.352 229.838C777.85 229.695 777.303 229.623 776.711 229.623C776.034 229.623 775.432 229.743 774.904 229.984C774.377 230.225 773.931 230.567 773.566 231.01C773.208 231.446 772.932 231.973 772.736 232.592C772.548 233.21 772.453 233.894 772.453 234.643C772.453 235.424 772.531 236.124 772.688 236.742C772.844 237.361 773.088 237.885 773.42 238.314C773.752 238.744 774.175 239.073 774.689 239.301C775.21 239.529 775.832 239.643 776.555 239.643C776.678 239.643 776.812 239.636 776.955 239.623C777.098 239.61 777.242 239.594 777.385 239.574C777.528 239.548 777.665 239.519 777.795 239.486C777.932 239.454 778.052 239.418 778.156 239.379V235.316H775.549V233.881H779.875V240.404C779.608 240.528 779.325 240.639 779.025 240.736C778.732 240.834 778.43 240.915 778.117 240.98C777.811 241.046 777.505 241.094 777.199 241.127C776.893 241.16 776.597 241.176 776.311 241.176C775.438 241.176 774.65 241.039 773.947 240.766C773.251 240.492 772.655 240.089 772.16 239.555C771.672 239.014 771.294 238.344 771.027 237.543C770.767 236.742 770.637 235.814 770.637 234.76C770.637 233.712 770.783 232.774 771.076 231.947C771.369 231.114 771.779 230.411 772.307 229.838C772.84 229.258 773.479 228.819 774.221 228.52C774.969 228.214 775.793 228.061 776.691 228.061C777.264 228.061 777.808 228.113 778.322 228.217C778.843 228.314 779.341 228.474 779.816 228.695V230.424Z" fill="#C9D1D9"/>
<path d="M753.156 70.7207H749.377V82H747.619V70.7207H743.84V69.2363H753.156V70.7207ZM763.82 71.4238C763.345 71.1699 762.857 70.9746 762.355 70.8379C761.854 70.6947 761.307 70.623 760.715 70.623C760.038 70.623 759.436 70.7435 758.908 70.9844C758.381 71.2253 757.935 71.5671 757.57 72.0098C757.212 72.446 756.936 72.9733 756.74 73.5918C756.551 74.2103 756.457 74.8939 756.457 75.6426C756.457 76.4238 756.535 77.1237 756.691 77.7422C756.848 78.3607 757.092 78.8848 757.424 79.3145C757.756 79.7441 758.179 80.0729 758.693 80.3008C759.214 80.5286 759.836 80.6426 760.559 80.6426C760.682 80.6426 760.816 80.6361 760.959 80.623C761.102 80.61 761.245 80.5938 761.389 80.5742C761.532 80.5482 761.669 80.5189 761.799 80.4863C761.936 80.4538 762.056 80.418 762.16 80.3789V76.3164H759.553V74.8809H763.879V81.4043C763.612 81.528 763.329 81.6387 763.029 81.7363C762.736 81.834 762.434 81.9154 762.121 81.9805C761.815 82.0456 761.509 82.0944 761.203 82.127C760.897 82.1595 760.601 82.1758 760.314 82.1758C759.442 82.1758 758.654 82.0391 757.951 81.7656C757.255 81.4922 756.659 81.0885 756.164 80.5547C755.676 80.0143 755.298 79.3438 755.031 78.543C754.771 77.7422 754.641 76.8145 754.641 75.7598C754.641 74.7116 754.787 73.7741 755.08 72.9473C755.373 72.1139 755.783 71.4108 756.311 70.8379C756.844 70.2585 757.482 69.819 758.225 69.5195C758.973 69.2135 759.797 69.0605 760.695 69.0605C761.268 69.0605 761.812 69.1126 762.326 69.2168C762.847 69.3145 763.345 69.474 763.82 69.6953V71.4238ZM774.709 81.5215C773.687 81.9447 772.616 82.1562 771.496 82.1562C769.693 82.1562 768.306 81.6191 767.336 80.5449C766.372 79.4642 765.891 77.8691 765.891 75.7598C765.891 74.7376 766.024 73.8132 766.291 72.9863C766.558 72.1595 766.939 71.4596 767.434 70.8867C767.928 70.3073 768.527 69.8613 769.23 69.5488C769.934 69.2363 770.721 69.0801 771.594 69.0801C772.186 69.0801 772.736 69.1322 773.244 69.2363C773.752 69.334 774.24 69.487 774.709 69.6953V71.4043C774.247 71.1504 773.768 70.9583 773.273 70.8281C772.779 70.6914 772.238 70.623 771.652 70.623C771.053 70.623 770.51 70.737 770.021 70.9648C769.54 71.1862 769.13 71.5117 768.791 71.9414C768.452 72.3646 768.192 72.8854 768.01 73.5039C767.827 74.1159 767.736 74.8158 767.736 75.6035C767.736 77.2572 768.072 78.5039 768.742 79.3438C769.413 80.1836 770.396 80.6035 771.691 80.6035C772.238 80.6035 772.762 80.5417 773.264 80.418C773.765 80.2878 774.247 80.1087 774.709 79.8809V81.5215Z" fill="#C9D1D9"/>
<path d="M721.707 155.707C722.098 155.317 722.098 154.683 721.707 154.293L715.343 147.929C714.953 147.538 714.319 147.538 713.929 147.929C713.538 148.319 713.538 148.953 713.929 149.343L719.586 155L713.929 160.657C713.538 161.047 713.538 161.681 713.929 162.071C714.319 162.462 714.953 162.462 715.343 162.071L721.707 155.707ZM634 156H689.23V154H634V156ZM689.23 156H721V154H689.23V156Z" fill="#C4A8A8"/>
<path d="M630 141.709C647.6 126.584 667.566 113.787 691.689 119.309C700.276 121.275 709.26 126.886 715.511 132.998C718.388 135.812 722.5 140.5 725 144" stroke="#C4A8A8" stroke-width="2" stroke-linecap="round" stroke-linejoin="round"/>
<path d="M725 135.5V144" stroke="#C4A8A8" stroke-width="2"/>
<path d="M716.5 142.5L726 144.5" stroke="#C4A8A8" stroke-width="2"/>
<path d="M630 167.291C647.6 182.416 667.566 195.213 691.689 189.691C700.276 187.725 709.26 182.114 715.511 176.002C718.388 173.188 722.5 168.5 725 165" stroke="#C4A8A8" stroke-width="2" stroke-linecap="round" stroke-linejoin="round"/>
<path d="M725 173.5V165" stroke="#C4A8A8" stroke-width="2"/>
<path d="M716.5 166.5L726 164.5" stroke="#C4A8A8" stroke-width="2"/>
<path d="M618.293 136.707C618.683 137.098 619.317 137.098 619.707 136.707L626.071 130.343C626.462 129.953 626.462 129.319 626.071 128.929C625.681 128.538 625.047 128.538 624.657 128.929L619 134.586L613.343 128.929C612.953 128.538 612.319 128.538 611.929 128.929C611.538 129.319 611.538 129.953 611.929 130.343L618.293 136.707ZM618 30V136H620V30H618Z" fill="#C4A8A8"/>
<path d="M618.293 136.707C618.683 137.098 619.317 137.098 619.707 136.707L626.071 130.343C626.462 129.953 626.462 129.319 626.071 128.929C625.681 128.538 625.047 128.538 624.657 128.929L619 134.586L613.343 128.929C612.953 128.538 612.319 128.538 611.929 128.929C611.538 129.319 611.538 129.953 611.929 130.343L618.293 136.707ZM618 30V136H620V30H618Z" fill="#C4A8A8"/>
<path d="M618.293 136.707C618.683 137.098 619.317 137.098 619.707 136.707L626.071 130.343C626.462 129.953 626.462 129.319 626.071 128.929C625.681 128.538 625.047 128.538 624.657 128.929L619 134.586L613.343 128.929C612.953 128.538 612.319 128.538 611.929 128.929C611.538 129.319 611.538 129.953 611.929 130.343L618.293 136.707ZM618 30V136H620V30H618Z" fill="#C4A8A8"/>
<path d="M736.293 277.707C736.683 278.098 737.317 278.098 737.707 277.707L744.071 271.343C744.462 270.953 744.462 270.319 744.071 269.929C743.681 269.538 743.047 269.538 742.657 269.929L737 275.586L731.343 269.929C730.953 269.538 730.319 269.538 729.929 269.929C729.538 270.319 729.538 270.953 729.929 271.343L736.293 277.707ZM736 171V277H738V171H736Z" fill="#C4A8A8"/>
<path d="M736.293 277.707C736.683 278.098 737.317 278.098 737.707 277.707L744.071 271.343C744.462 270.953 744.462 270.319 744.071 269.929C743.681 269.538 743.047 269.538 742.657 269.929L737 275.586L731.343 269.929C730.953 269.538 730.319 269.538 729.929 269.929C729.538 270.319 729.538 270.953 729.929 271.343L736.293 277.707ZM736 171V277H738V171H736Z" fill="#C4A8A8"/>
<path d="M736.293 277.707C736.683 278.098 737.317 278.098 737.707 277.707L744.071 271.343C744.462 270.953 744.462 270.319 744.071 269.929C743.681 269.538 743.047 269.538 742.657 269.929L737 275.586L731.343 269.929C730.953 269.538 730.319 269.538 729.929 269.929C729.538 270.319 729.538 270.953 729.929 271.343L736.293 277.707ZM736 171V277H738V171H736Z" fill="#C4A8A8"/>
<path d="M737.707 30.2929C737.317 29.9024 736.683 29.9024 736.293 30.2929L729.929 36.6569C729.538 37.0474 729.538 37.6805 729.929 38.0711C730.319 38.4616 730.953 38.4616 731.343 38.0711L737 32.4142L742.657 38.0711C743.047 38.4616 743.681 38.4616 744.071 38.0711C744.462 37.6805 744.462 37.0474 744.071 36.6569L737.707 30.2929ZM738 137V31H736V137H738Z" fill="#C4A8A8"/>
<path d="M737.707 30.2929C737.317 29.9024 736.683 29.9024 736.293 30.2929L729.929 36.6569C729.538 37.0474 729.538 37.6805 729.929 38.0711C730.319 38.4616 730.953 38.4616 731.343 38.0711L737 32.4142L742.657 38.0711C743.047 38.4616 743.681 38.4616 744.071 38.0711C744.462 37.6805 744.462 37.0474 744.071 36.6569L737.707 30.2929ZM738 137V31H736V137H738Z" fill="#C4A8A8"/>
<path d="M737.707 30.2929C737.317 29.9024 736.683 29.9024 736.293 30.2929L729.929 36.6569C729.538 37.0474 729.538 37.6805 729.929 38.0711C730.319 38.4616 730.953 38.4616 731.343 38.0711L737 32.4142L742.657 38.0711C743.047 38.4616 743.681 38.4616 744.071 38.0711C744.462 37.6805 744.462 37.0474 744.071 36.6569L737.707 30.2929ZM738 137V31H736V137H738Z" fill="#C4A8A8"/>
<path d="M619.707 172.293C619.317 171.902 618.683 171.902 618.293 172.293L611.929 178.657C611.538 179.047 611.538 179.681 611.929 180.071C612.319 180.462 612.953 180.462 613.343 180.071L619 174.414L624.657 180.071C625.047 180.462 625.681 180.462 626.071 180.071C626.462 179.681 626.462 179.047 626.071 178.657L619.707 172.293ZM620 279V173H618V279H620Z" fill="#C4A8A8"/>
<path d="M619.707 172.293C619.317 171.902 618.683 171.902 618.293 172.293L611.929 178.657C611.538 179.047 611.538 179.681 611.929 180.071C612.319 180.462 612.953 180.462 613.343 180.071L619 174.414L624.657 180.071C625.047 180.462 625.681 180.462 626.071 180.071C626.462 179.681 626.462 179.047 626.071 178.657L619.707 172.293ZM620 279V173H618V279H620Z" fill="#C4A8A8"/>
<path d="M619.707 172.293C619.317 171.902 618.683 171.902 618.293 172.293L611.929 178.657C611.538 179.047 611.538 179.681 611.929 180.071C612.319 180.462 612.953 180.462 613.343 180.071L619 174.414L624.657 180.071C625.047 180.462 625.681 180.462 626.071 180.071C626.462 179.681 626.462 179.047 626.071 178.657L619.707 172.293ZM620 279V173H618V279H620Z" fill="#C4A8A8"/>
<path d="M372 120.796C380.936 112.717 390.637 107.26 404.135 103.846C412.298 101.782 424.101 100.907 432.025 104.134C440.249 107.484 448.276 111.064 453.583 116.811" stroke="#C4C4C4" stroke-width="2" stroke-linecap="round" stroke-linejoin="round"/>
<path d="M454.644 106.211C454.597 110.074 454.644 113.504 454.644 116.799C454.218 118.166 454.787 118.68 452.522 117.351C450.984 116.448 441.323 115.006 440.5 117.351" stroke="#C4C4C4" stroke-width="2" stroke-linecap="round" stroke-linejoin="round"/>
</svg>
