<svg width="395" height="26" viewBox="0 0 395 26" fill="none" xmlns="http://www.w3.org/2000/svg">
<path d="M204.707 13.7071C205.098 13.3166 205.098 12.6834 204.707 12.2929L198.343 5.92893C197.953 5.53841 197.319 5.53841 196.929 5.92893C196.538 6.31946 196.538 6.95262 196.929 7.34315L202.586 13L196.929 18.6569C196.538 19.0474 196.538 19.6805 196.929 20.0711C197.319 20.4616 197.953 20.4616 198.343 20.0711L204.707 13.7071ZM123 14H204V12H123V14Z" fill="#C4A8A8"/>
<path d="M6.10156 17.9062C7.13281 17.9062 7.88281 17.7422 8.35156 17.4141C8.82031 17.0807 9.05469 16.4245 9.05469 15.4453V11.3594C9.05469 10.3802 8.81771 9.70833 8.34375 9.34375C7.875 8.97917 7.13021 8.79688 6.10938 8.79688C4.52604 8.79688 3.5651 9.23438 3.22656 10.1094C3.09635 10.4427 3.03125 10.8594 3.03125 11.3594V15.4453C3.03125 16.4193 3.28646 17.0729 3.79688 17.4062C4.30729 17.7396 5.07552 17.9062 6.10156 17.9062ZM3.21094 18.6562C2.52865 18.3125 2.0651 17.8516 1.82031 17.2734C1.57552 16.6953 1.45312 16.0052 1.45312 15.2031V11.6484C1.45312 10.0286 1.91146 8.90625 2.82812 8.28125C3.56771 7.78125 4.66146 7.53125 6.10938 7.53125C8.67188 7.53125 10.138 8.48438 10.5078 10.3906C10.5859 10.7917 10.625 11.2448 10.625 11.75V15.0938C10.625 16.6667 10.1745 17.7708 9.27344 18.4062C8.54948 18.9167 7.52865 19.1719 6.21094 19.1719C4.89323 19.1719 3.89323 19 3.21094 18.6562ZM17.2344 6.25781L15.6328 4.17969H16.8438L17.8125 5.53906L18.8438 4.17969H20.1016L18.4062 6.25781H17.2344ZM15.1641 18.6641C14.5026 18.3203 14.0599 17.862 13.8359 17.2891C13.612 16.7109 13.5 16.0156 13.5 15.2031V11.6562C13.5 10.0104 13.9271 8.88802 14.7812 8.28906C15.5052 7.78385 16.5573 7.53125 17.9375 7.53125C19.3229 7.53125 20.3281 7.72396 20.9531 8.10938C21.5781 8.48958 21.9688 9.08854 22.125 9.90625C22.1979 10.2708 22.2344 10.7057 22.2344 11.2109L20.7422 11.3438C20.7422 10.5833 20.6771 10.0703 20.5469 9.80469C20.4167 9.53385 20.2865 9.34115 20.1562 9.22656C20.0312 9.11198 19.8229 9.01302 19.5312 8.92969C19.2396 8.84115 18.7839 8.79688 18.1641 8.79688C17.5443 8.79688 17.0573 8.83854 16.7031 8.92188C16.349 9 16.0469 9.13542 15.7969 9.32812C15.3177 9.69792 15.0781 10.3776 15.0781 11.3672V15.4453C15.0781 16.4245 15.3203 17.0807 15.8047 17.4141C16.2891 17.7422 17.0599 17.9062 18.1172 17.9062C19.1797 17.9062 19.8568 17.7812 20.1484 17.5312C20.4401 17.2812 20.6198 16.9167 20.6875 16.4375C20.724 16.1771 20.7422 15.8646 20.7422 15.5H22.2344C22.2344 16.6354 22.0703 17.4323 21.7422 17.8906C21.138 18.7448 19.9896 19.1719 18.2969 19.1719C16.875 19.1719 15.8307 19.0026 15.1641 18.6641ZM24.9375 19V17.8281H27.0938V8.86719H24.9375V7.70312H30.8125V8.86719H28.6641V17.8281H30.8125V19H24.9375ZM36.2109 19V8.99219H32.9531V7.70312H41.0469V8.99219H37.7812V19H36.2109ZM42.1875 19L46.3984 7.70312H47.7812L52 19H50.3984L49.6328 16.7969H44.5938L43.8203 19H42.1875ZM44.9688 15.6797H49.2734L47.1328 9.5L44.9688 15.6797ZM56.3438 19L52.3125 7.70312H53.9297L57.0469 16.7031L60.1641 7.70312H61.7969L57.7266 19H56.3438ZM62.8594 19L67.0703 7.70312H68.4531L72.6719 19H71.0703L70.3047 16.7969H65.2656L64.4922 19H62.8594ZM65.6406 15.6797H69.9453L67.8047 9.5L65.6406 15.6797ZM75.0469 19V7.70312H76.2422L82.7109 16.7344V7.70312H84.0938V19H82.6953L76.4297 10.375V19H75.0469ZM89.875 19.1328C89.276 19.1328 88.6536 19.0599 88.0078 18.9141C87.362 18.763 86.8906 18.6094 86.5938 18.4531L87.0234 17.2422C87.2891 17.3672 87.6979 17.5 88.25 17.6406C88.8021 17.776 89.3281 17.8438 89.8281 17.8438C90.5625 17.8438 91.099 17.6562 91.4375 17.2812C91.776 16.9062 91.9453 16.3464 91.9453 15.6016V8.99219H87.625V7.70312H93.5156V15.6328C93.5156 16.7422 93.2161 17.6042 92.6172 18.2188C92.0234 18.8281 91.1094 19.1328 89.875 19.1328ZM95.8906 19L100.102 7.70312H101.484L105.703 19H104.102L103.336 16.7969H98.2969L97.5234 19H95.8906ZM98.6719 15.6797H102.977L100.836 9.5L98.6719 15.6797Z" fill="#C9D1D9"/>
<path d="M226.281 17.8281H229.047C230.182 17.8281 230.94 17.6172 231.32 17.1953C231.706 16.7734 231.898 16.1719 231.898 15.3906V11.4141C231.898 10.263 231.513 9.51562 230.742 9.17188C230.305 8.97396 229.74 8.8776 229.047 8.88281H226.281V17.8281ZM224.703 19V7.70312H229.188C231.349 7.70312 232.698 8.46875 233.234 10C233.391 10.4479 233.469 10.9505 233.469 11.5078V15.2344C233.469 16.4688 233.112 17.4062 232.398 18.0469C231.69 18.6823 230.625 19 229.203 19H224.703ZM236.594 19V7.70312H243.648V8.875H238.164V12.5938H243.008V13.7656H238.164V17.8281H243.742V19H236.594ZM250.406 19V7.70312H254.5C256.25 7.70312 257.359 8.09115 257.828 8.86719C258.109 9.33073 258.25 9.97656 258.25 10.8047C258.224 11.9245 257.75 12.6432 256.828 12.9609C257.474 13.1068 257.964 13.4297 258.297 13.9297C258.63 14.4297 258.797 15.0495 258.797 15.7891C258.797 16.9089 258.482 17.724 257.852 18.2344C257.221 18.7448 256.219 19 254.844 19H250.406ZM251.984 17.8359H254.727C255.612 17.8359 256.253 17.6927 256.648 17.4062C257.049 17.1198 257.25 16.5234 257.25 15.6172C257.25 14.2474 256.536 13.5625 255.109 13.5625H251.984V17.8359ZM251.984 12.4922H254.883C255.555 12.4922 256.021 12.3516 256.281 12.0703C256.547 11.7891 256.68 11.4062 256.68 10.9219C256.68 10.4375 256.643 10.0729 256.57 9.82812C256.503 9.58333 256.37 9.38802 256.172 9.24219C255.979 9.09635 255.737 9 255.445 8.95312C255.159 8.90625 254.763 8.88281 254.258 8.88281H251.984V12.4922ZM261.5 19V7.70312H266.539C268.096 7.70312 269.073 8.29167 269.469 9.46875C269.615 9.90625 269.688 10.4271 269.688 11.0312C269.693 11.6302 269.625 12.1354 269.484 12.5469C269.344 12.9531 269.161 13.2682 268.938 13.4922C268.719 13.7109 268.44 13.8906 268.102 14.0312L270.5 19H268.883L266.641 14.3125L263.078 14.3203V19H261.5ZM263.078 13.125H266.406C267.073 13.125 267.523 12.9453 267.758 12.5859C267.997 12.2266 268.117 11.7188 268.117 11.0625C268.112 9.88542 267.802 9.19271 267.188 8.98438C267.01 8.92188 266.81 8.89323 266.586 8.89844H263.078V13.125ZM277.297 19.1719C275.286 19.1719 273.964 18.6406 273.328 17.5781C272.974 16.9844 272.797 16.2266 272.797 15.3047V7.70312H274.375V15.4688C274.375 16.8854 275.052 17.6823 276.406 17.8594C276.672 17.8906 277 17.9062 277.391 17.9062C278.193 17.9062 278.846 17.75 279.352 17.4375C279.857 17.125 280.109 16.4688 280.109 15.4688V7.70312H281.688V15.3047C281.688 16.7682 281.255 17.8073 280.391 18.4219C279.682 18.9219 278.651 19.1719 277.297 19.1719ZM287.328 19.1328C286.729 19.1328 286.107 19.0599 285.461 18.9141C284.815 18.763 284.344 18.6094 284.047 18.4531L284.477 17.2422C284.742 17.3672 285.151 17.5 285.703 17.6406C286.255 17.776 286.781 17.8438 287.281 17.8438C288.016 17.8438 288.552 17.6562 288.891 17.2812C289.229 16.9062 289.398 16.3464 289.398 15.6016V8.99219H285.078V7.70312H290.969V15.6328C290.969 16.7422 290.669 17.6042 290.07 18.2188C289.477 18.8281 288.562 19.1328 287.328 19.1328ZM294.156 19V17.8281H296.312V8.86719H294.156V7.70312H300.031V8.86719H297.883V17.8281H300.031V19H294.156ZM303.219 19V7.70312H304.414L310.883 16.7344V7.70312H312.266V19H310.867L304.602 10.375V19H303.219ZM320.07 17.9062C321.102 17.9062 321.852 17.7422 322.32 17.4141C322.789 17.0807 323.023 16.4245 323.023 15.4453V11.3594C323.023 10.3802 322.786 9.70833 322.312 9.34375C321.844 8.97917 321.099 8.79688 320.078 8.79688C318.495 8.79688 317.534 9.23438 317.195 10.1094C317.065 10.4427 317 10.8594 317 11.3594V15.4453C317 16.4193 317.255 17.0729 317.766 17.4062C318.276 17.7396 319.044 17.9062 320.07 17.9062ZM317.18 18.6562C316.497 18.3125 316.034 17.8516 315.789 17.2734C315.544 16.6953 315.422 16.0052 315.422 15.2031V11.6484C315.422 10.0286 315.88 8.90625 316.797 8.28125C317.536 7.78125 318.63 7.53125 320.078 7.53125C322.641 7.53125 324.107 8.48438 324.477 10.3906C324.555 10.7917 324.594 11.2448 324.594 11.75V15.0938C324.594 16.6667 324.143 17.7708 323.242 18.4062C322.518 18.9167 321.497 19.1719 320.18 19.1719C318.862 19.1719 317.862 19 317.18 18.6562ZM330.703 19L326.672 7.70312H328.289L331.406 16.7031L334.523 7.70312H336.156L332.086 19H330.703ZM346.984 19.1719C344.88 19.1719 343.503 18.651 342.852 17.6094C342.471 17 342.281 16.1979 342.281 15.2031V11.6562C342.281 10.0469 342.75 8.92448 343.688 8.28906C344.432 7.78385 345.479 7.53125 346.828 7.53125C348.177 7.53125 349.164 7.6849 349.789 7.99219C350.419 8.29427 350.833 8.70052 351.031 9.21094C351.229 9.71615 351.328 10.3333 351.328 11.0625L349.891 11.1797C349.891 10.4453 349.818 9.95573 349.672 9.71094C349.531 9.46094 349.393 9.28385 349.258 9.17969C349.128 9.07552 348.904 8.98698 348.586 8.91406C348.273 8.83594 347.797 8.79688 347.156 8.79688C346.521 8.79688 346.021 8.83854 345.656 8.92188C345.292 9 344.969 9.13542 344.688 9.32812C344.135 9.70833 343.859 10.388 343.859 11.3672V15.4453C343.859 16.4245 344.122 17.0807 344.648 17.4141C345.174 17.7422 345.948 17.9062 346.969 17.9062C347.995 17.9062 348.734 17.7448 349.188 17.4219C349.646 17.0938 349.875 16.4349 349.875 15.4453V14.4062H347.195V13.2578H351.453V19H350.594L350.398 17.0781C350.299 17.7292 349.971 18.2422 349.414 18.6172C348.862 18.987 348.052 19.1719 346.984 19.1719ZM354.688 19V7.70312H359.727C361.284 7.70312 362.26 8.29167 362.656 9.46875C362.802 9.90625 362.875 10.4271 362.875 11.0312C362.88 11.6302 362.812 12.1354 362.672 12.5469C362.531 12.9531 362.349 13.2682 362.125 13.4922C361.906 13.7109 361.628 13.8906 361.289 14.0312L363.688 19H362.07L359.828 14.3125L356.266 14.3203V19H354.688ZM356.266 13.125H359.594C360.26 13.125 360.711 12.9453 360.945 12.5859C361.185 12.2266 361.305 11.7188 361.305 11.0625C361.299 9.88542 360.99 9.19271 360.375 8.98438C360.198 8.92188 359.997 8.89323 359.773 8.89844H356.266V13.125ZM365.094 19L369.305 7.70312H370.688L374.906 19H373.305L372.539 16.7969H367.5L366.727 19H365.094ZM367.875 15.6797H372.18L370.039 9.5L367.875 15.6797ZM377.281 19V7.70312H383.695V8.875H378.852V12.6406H383.414V13.8125H378.852V19H377.281ZM390.641 12.6094V10.7188H392.641V12.6094H390.641ZM390.641 18.2266V16.3359H392.641V18.2266H390.641Z" fill="#C9D1D9"/>
</svg>
