<svg width="806" height="179" viewBox="0 0 806 179" fill="none" xmlns="http://www.w3.org/2000/svg">
<circle cx="15" cy="29" r="14" stroke="#C4A8A8" stroke-width="2"/>
<circle cx="80" cy="29" r="14" stroke="#C4A8A8" stroke-width="2"/>
<path d="M39.8984 18H38.0039L37.1152 15.2168H31.8027L30.9043 18H29.0977L33.3359 5.23633H35.7188L39.8984 18ZM36.6172 13.6641L34.459 6.83789L32.3008 13.6641H36.6172ZM50.8945 18H49L48.1113 15.2168H42.7988L41.9004 18H40.0938L44.332 5.23633H46.7148L50.8945 18ZM47.6133 13.6641L45.4551 6.83789L43.2969 13.6641H47.6133ZM61.1484 6.7207H57.3691V18H55.6113V6.7207H51.832V5.23633H61.1484V6.7207Z" fill="#C9D1D9"/>
<path d="M64.7071 29.7071C65.0976 29.3166 65.0976 28.6834 64.7071 28.2929L58.3431 21.9289C57.9526 21.5384 57.3195 21.5384 56.9289 21.9289C56.5384 22.3195 56.5384 22.9526 56.9289 23.3431L62.5858 29L56.9289 34.6569C56.5384 35.0474 56.5384 35.6805 56.9289 36.0711C57.3195 36.4616 57.9526 36.4616 58.3431 36.0711L64.7071 29.7071ZM30 30H64V28H30V30Z" fill="#C4A8A8"/>
<path d="M13.8984 35H12.0039L11.1152 32.2168H5.80273L4.9043 35H3.09766L7.33594 22.2363H9.71875L13.8984 35ZM10.6172 30.6641L8.45898 23.8379L6.30078 30.6641H10.6172ZM24.8945 35H23L22.1113 32.2168H16.7988L15.9004 35H14.0938L18.332 22.2363H20.7148L24.8945 35ZM21.6133 30.6641L19.4551 23.8379L17.2969 30.6641H21.6133Z" fill="#C9D1D9"/>
<path d="M79.8984 35H78.0039L77.1152 32.2168H71.8027L70.9043 35H69.0977L73.3359 22.2363H75.7188L79.8984 35ZM76.6172 30.6641L74.459 23.8379L72.3008 30.6641H76.6172ZM90.1523 23.7207H86.373V35H84.6152V23.7207H80.8359V22.2363H90.1523V23.7207Z" fill="#C9D1D9"/>
<circle cx="134" cy="29" r="14" stroke="#C4A8A8" stroke-width="2"/>
<circle cx="199" cy="29" r="14" stroke="#C4A8A8" stroke-width="2"/>
<path d="M158.898 18H157.004L156.115 15.2168H150.803L149.904 18H148.098L152.336 5.23633H154.719L158.898 18ZM155.617 13.6641L153.459 6.83789L151.301 13.6641H155.617ZM169.152 6.7207H165.373V18H163.615V6.7207H159.836V5.23633H169.152V6.7207ZM179.816 7.42383C179.341 7.16992 178.853 6.97461 178.352 6.83789C177.85 6.69466 177.303 6.62305 176.711 6.62305C176.034 6.62305 175.432 6.74349 174.904 6.98438C174.377 7.22526 173.931 7.56706 173.566 8.00977C173.208 8.44596 172.932 8.97331 172.736 9.5918C172.548 10.2103 172.453 10.8939 172.453 11.6426C172.453 12.4238 172.531 13.1237 172.688 13.7422C172.844 14.3607 173.088 14.8848 173.42 15.3145C173.752 15.7441 174.175 16.0729 174.689 16.3008C175.21 16.5286 175.832 16.6426 176.555 16.6426C176.678 16.6426 176.812 16.6361 176.955 16.623C177.098 16.61 177.242 16.5938 177.385 16.5742C177.528 16.5482 177.665 16.5189 177.795 16.4863C177.932 16.4538 178.052 16.418 178.156 16.3789V12.3164H175.549V10.8809H179.875V17.4043C179.608 17.528 179.325 17.6387 179.025 17.7363C178.732 17.834 178.43 17.9154 178.117 17.9805C177.811 18.0456 177.505 18.0944 177.199 18.127C176.893 18.1595 176.597 18.1758 176.311 18.1758C175.438 18.1758 174.65 18.0391 173.947 17.7656C173.251 17.4922 172.655 17.0885 172.16 16.5547C171.672 16.0143 171.294 15.3438 171.027 14.543C170.767 13.7422 170.637 12.8145 170.637 11.7598C170.637 10.7116 170.783 9.77409 171.076 8.94727C171.369 8.11393 171.779 7.41081 172.307 6.83789C172.84 6.25846 173.479 5.81901 174.221 5.51953C174.969 5.21354 175.793 5.06055 176.691 5.06055C177.264 5.06055 177.808 5.11263 178.322 5.2168C178.843 5.31445 179.341 5.47396 179.816 5.69531V7.42383Z" fill="#C9D1D9"/>
<path d="M183.707 29.7071C184.098 29.3166 184.098 28.6834 183.707 28.2929L177.343 21.9289C176.953 21.5384 176.319 21.5384 175.929 21.9289C175.538 22.3195 175.538 22.9526 175.929 23.3431L181.586 29L175.929 34.6569C175.538 35.0474 175.538 35.6805 175.929 36.0711C176.319 36.4616 176.953 36.4616 177.343 36.0711L183.707 29.7071ZM149 30H183V28H149V30Z" fill="#C4A8A8"/>
<path d="M132.898 35H131.004L130.115 32.2168H124.803L123.904 35H122.098L126.336 22.2363H128.719L132.898 35ZM129.617 30.6641L127.459 23.8379L125.301 30.6641H129.617ZM143.152 23.7207H139.373V35H137.615V23.7207H133.836V22.2363H143.152V23.7207Z" fill="#C9D1D9"/>
<path d="M198.156 23.7207H194.377V35H192.619V23.7207H188.84V22.2363H198.156V23.7207ZM208.82 24.4238C208.345 24.1699 207.857 23.9746 207.355 23.8379C206.854 23.6947 206.307 23.623 205.715 23.623C205.038 23.623 204.436 23.7435 203.908 23.9844C203.381 24.2253 202.935 24.5671 202.57 25.0098C202.212 25.446 201.936 25.9733 201.74 26.5918C201.551 27.2103 201.457 27.8939 201.457 28.6426C201.457 29.4238 201.535 30.1237 201.691 30.7422C201.848 31.3607 202.092 31.8848 202.424 32.3145C202.756 32.7441 203.179 33.0729 203.693 33.3008C204.214 33.5286 204.836 33.6426 205.559 33.6426C205.682 33.6426 205.816 33.6361 205.959 33.623C206.102 33.61 206.245 33.5938 206.389 33.5742C206.532 33.5482 206.669 33.5189 206.799 33.4863C206.936 33.4538 207.056 33.418 207.16 33.3789V29.3164H204.553V27.8809H208.879V34.4043C208.612 34.528 208.329 34.6387 208.029 34.7363C207.736 34.834 207.434 34.9154 207.121 34.9805C206.815 35.0456 206.509 35.0944 206.203 35.127C205.897 35.1595 205.601 35.1758 205.314 35.1758C204.442 35.1758 203.654 35.0391 202.951 34.7656C202.255 34.4922 201.659 34.0885 201.164 33.5547C200.676 33.0143 200.298 32.3438 200.031 31.543C199.771 30.7422 199.641 29.8145 199.641 28.7598C199.641 27.7116 199.787 26.7741 200.08 25.9473C200.373 25.1139 200.783 24.4108 201.311 23.8379C201.844 23.2585 202.482 22.819 203.225 22.5195C203.973 22.2135 204.797 22.0605 205.695 22.0605C206.268 22.0605 206.812 22.1126 207.326 22.2168C207.847 22.3145 208.345 22.474 208.82 22.6953V24.4238Z" fill="#C9D1D9"/>
<circle cx="251" cy="29" r="14" stroke="#C4A8A8" stroke-width="2"/>
<circle cx="316" cy="29" r="14" stroke="#C4A8A8" stroke-width="2"/>
<path d="M275.898 18H274.004L273.115 15.2168H267.803L266.904 18H265.098L269.336 5.23633H271.719L275.898 18ZM272.617 13.6641L270.459 6.83789L268.301 13.6641H272.617ZM286.152 6.7207H282.373V18H280.615V6.7207H276.836V5.23633H286.152V6.7207ZM296.816 7.42383C296.341 7.16992 295.853 6.97461 295.352 6.83789C294.85 6.69466 294.303 6.62305 293.711 6.62305C293.034 6.62305 292.432 6.74349 291.904 6.98438C291.377 7.22526 290.931 7.56706 290.566 8.00977C290.208 8.44596 289.932 8.97331 289.736 9.5918C289.548 10.2103 289.453 10.8939 289.453 11.6426C289.453 12.4238 289.531 13.1237 289.688 13.7422C289.844 14.3607 290.088 14.8848 290.42 15.3145C290.752 15.7441 291.175 16.0729 291.689 16.3008C292.21 16.5286 292.832 16.6426 293.555 16.6426C293.678 16.6426 293.812 16.6361 293.955 16.623C294.098 16.61 294.242 16.5938 294.385 16.5742C294.528 16.5482 294.665 16.5189 294.795 16.4863C294.932 16.4538 295.052 16.418 295.156 16.3789V12.3164H292.549V10.8809H296.875V17.4043C296.608 17.528 296.325 17.6387 296.025 17.7363C295.732 17.834 295.43 17.9154 295.117 17.9805C294.811 18.0456 294.505 18.0944 294.199 18.127C293.893 18.1595 293.597 18.1758 293.311 18.1758C292.438 18.1758 291.65 18.0391 290.947 17.7656C290.251 17.4922 289.655 17.0885 289.16 16.5547C288.672 16.0143 288.294 15.3438 288.027 14.543C287.767 13.7422 287.637 12.8145 287.637 11.7598C287.637 10.7116 287.783 9.77409 288.076 8.94727C288.369 8.11393 288.779 7.41081 289.307 6.83789C289.84 6.25846 290.479 5.81901 291.221 5.51953C291.969 5.21354 292.793 5.06055 293.691 5.06055C294.264 5.06055 294.808 5.11263 295.322 5.2168C295.843 5.31445 296.341 5.47396 296.816 5.69531V7.42383Z" fill="#C9D1D9"/>
<path d="M300.707 29.7071C301.098 29.3166 301.098 28.6834 300.707 28.2929L294.343 21.9289C293.953 21.5384 293.319 21.5384 292.929 21.9289C292.538 22.3195 292.538 22.9526 292.929 23.3431L298.586 29L292.929 34.6569C292.538 35.0474 292.538 35.6805 292.929 36.0711C293.319 36.4616 293.953 36.4616 294.343 36.0711L300.707 29.7071ZM266 30H300V28H266V30Z" fill="#C4A8A8"/>
<path d="M249.898 35H248.004L247.115 32.2168H241.803L240.904 35H239.098L243.336 22.2363H245.719L249.898 35ZM246.617 30.6641L244.459 23.8379L242.301 30.6641H246.617ZM260.152 23.7207H256.373V35H254.615V23.7207H250.836V22.2363H260.152V23.7207Z" fill="#C9D1D9"/>
<path d="M315.156 23.7207H311.377V35H309.619V23.7207H305.84V22.2363H315.156V23.7207ZM325.82 24.4238C325.345 24.1699 324.857 23.9746 324.355 23.8379C323.854 23.6947 323.307 23.623 322.715 23.623C322.038 23.623 321.436 23.7435 320.908 23.9844C320.381 24.2253 319.935 24.5671 319.57 25.0098C319.212 25.446 318.936 25.9733 318.74 26.5918C318.551 27.2103 318.457 27.8939 318.457 28.6426C318.457 29.4238 318.535 30.1237 318.691 30.7422C318.848 31.3607 319.092 31.8848 319.424 32.3145C319.756 32.7441 320.179 33.0729 320.693 33.3008C321.214 33.5286 321.836 33.6426 322.559 33.6426C322.682 33.6426 322.816 33.6361 322.959 33.623C323.102 33.61 323.245 33.5938 323.389 33.5742C323.532 33.5482 323.669 33.5189 323.799 33.4863C323.936 33.4538 324.056 33.418 324.16 33.3789V29.3164H321.553V27.8809H325.879V34.4043C325.612 34.528 325.329 34.6387 325.029 34.7363C324.736 34.834 324.434 34.9154 324.121 34.9805C323.815 35.0456 323.509 35.0944 323.203 35.127C322.897 35.1595 322.601 35.1758 322.314 35.1758C321.442 35.1758 320.654 35.0391 319.951 34.7656C319.255 34.4922 318.659 34.0885 318.164 33.5547C317.676 33.0143 317.298 32.3438 317.031 31.543C316.771 30.7422 316.641 29.8145 316.641 28.7598C316.641 27.7116 316.787 26.7741 317.08 25.9473C317.373 25.1139 317.783 24.4108 318.311 23.8379C318.844 23.2585 319.482 22.819 320.225 22.5195C320.973 22.2135 321.797 22.0605 322.695 22.0605C323.268 22.0605 323.812 22.1126 324.326 22.2168C324.847 22.3145 325.345 22.474 325.82 22.6953V24.4238Z" fill="#C9D1D9"/>
<circle cx="372" cy="29" r="14" stroke="#C4A8A8" stroke-width="2"/>
<circle cx="437" cy="29" r="14" stroke="#C4A8A8" stroke-width="2"/>
<path d="M396.898 18H395.004L394.115 15.2168H388.803L387.904 18H386.098L390.336 5.23633H392.719L396.898 18ZM393.617 13.6641L391.459 6.83789L389.301 13.6641H393.617ZM407.152 6.7207H403.373V18H401.615V6.7207H397.836V5.23633H407.152V6.7207ZM417.816 7.42383C417.341 7.16992 416.853 6.97461 416.352 6.83789C415.85 6.69466 415.303 6.62305 414.711 6.62305C414.034 6.62305 413.432 6.74349 412.904 6.98438C412.377 7.22526 411.931 7.56706 411.566 8.00977C411.208 8.44596 410.932 8.97331 410.736 9.5918C410.548 10.2103 410.453 10.8939 410.453 11.6426C410.453 12.4238 410.531 13.1237 410.688 13.7422C410.844 14.3607 411.088 14.8848 411.42 15.3145C411.752 15.7441 412.175 16.0729 412.689 16.3008C413.21 16.5286 413.832 16.6426 414.555 16.6426C414.678 16.6426 414.812 16.6361 414.955 16.623C415.098 16.61 415.242 16.5938 415.385 16.5742C415.528 16.5482 415.665 16.5189 415.795 16.4863C415.932 16.4538 416.052 16.418 416.156 16.3789V12.3164H413.549V10.8809H417.875V17.4043C417.608 17.528 417.325 17.6387 417.025 17.7363C416.732 17.834 416.43 17.9154 416.117 17.9805C415.811 18.0456 415.505 18.0944 415.199 18.127C414.893 18.1595 414.597 18.1758 414.311 18.1758C413.438 18.1758 412.65 18.0391 411.947 17.7656C411.251 17.4922 410.655 17.0885 410.16 16.5547C409.672 16.0143 409.294 15.3438 409.027 14.543C408.767 13.7422 408.637 12.8145 408.637 11.7598C408.637 10.7116 408.783 9.77409 409.076 8.94727C409.369 8.11393 409.779 7.41081 410.307 6.83789C410.84 6.25846 411.479 5.81901 412.221 5.51953C412.969 5.21354 413.793 5.06055 414.691 5.06055C415.264 5.06055 415.808 5.11263 416.322 5.2168C416.843 5.31445 417.341 5.47396 417.816 5.69531V7.42383Z" fill="#C9D1D9"/>
<path d="M421.707 29.7071C422.098 29.3166 422.098 28.6834 421.707 28.2929L415.343 21.9289C414.953 21.5384 414.319 21.5384 413.929 21.9289C413.538 22.3195 413.538 22.9526 413.929 23.3431L419.586 29L413.929 34.6569C413.538 35.0474 413.538 35.6805 413.929 36.0711C414.319 36.4616 414.953 36.4616 415.343 36.0711L421.707 29.7071ZM387 30H421V28H387V30Z" fill="#C4A8A8"/>
<path d="M370.898 35H369.004L368.115 32.2168H362.803L361.904 35H360.098L364.336 22.2363H366.719L370.898 35ZM367.617 30.6641L365.459 23.8379L363.301 30.6641H367.617ZM381.152 23.7207H377.373V35H375.615V23.7207H371.836V22.2363H381.152V23.7207Z" fill="#C9D1D9"/>
<path d="M436.156 23.7207H432.377V35H430.619V23.7207H426.84V22.2363H436.156V23.7207ZM446.82 24.4238C446.345 24.1699 445.857 23.9746 445.355 23.8379C444.854 23.6947 444.307 23.623 443.715 23.623C443.038 23.623 442.436 23.7435 441.908 23.9844C441.381 24.2253 440.935 24.5671 440.57 25.0098C440.212 25.446 439.936 25.9733 439.74 26.5918C439.551 27.2103 439.457 27.8939 439.457 28.6426C439.457 29.4238 439.535 30.1237 439.691 30.7422C439.848 31.3607 440.092 31.8848 440.424 32.3145C440.756 32.7441 441.179 33.0729 441.693 33.3008C442.214 33.5286 442.836 33.6426 443.559 33.6426C443.682 33.6426 443.816 33.6361 443.959 33.623C444.102 33.61 444.245 33.5938 444.389 33.5742C444.532 33.5482 444.669 33.5189 444.799 33.4863C444.936 33.4538 445.056 33.418 445.16 33.3789V29.3164H442.553V27.8809H446.879V34.4043C446.612 34.528 446.329 34.6387 446.029 34.7363C445.736 34.834 445.434 34.9154 445.121 34.9805C444.815 35.0456 444.509 35.0944 444.203 35.127C443.897 35.1595 443.601 35.1758 443.314 35.1758C442.442 35.1758 441.654 35.0391 440.951 34.7656C440.255 34.4922 439.659 34.0885 439.164 33.5547C438.676 33.0143 438.298 32.3438 438.031 31.543C437.771 30.7422 437.641 29.8145 437.641 28.7598C437.641 27.7116 437.787 26.7741 438.08 25.9473C438.373 25.1139 438.783 24.4108 439.311 23.8379C439.844 23.2585 440.482 22.819 441.225 22.5195C441.973 22.2135 442.797 22.0605 443.695 22.0605C444.268 22.0605 444.812 22.1126 445.326 22.2168C445.847 22.3145 446.345 22.474 446.82 22.6953V24.4238Z" fill="#C9D1D9"/>
<circle cx="493" cy="29" r="14" stroke="#C4A8A8" stroke-width="2"/>
<circle cx="558" cy="29" r="14" stroke="#C4A8A8" stroke-width="2"/>
<path d="M516.717 17.5215C515.695 17.9447 514.624 18.1562 513.504 18.1562C511.701 18.1562 510.314 17.6191 509.344 16.5449C508.38 15.4642 507.898 13.8691 507.898 11.7598C507.898 10.7376 508.032 9.81315 508.299 8.98633C508.566 8.15951 508.947 7.45964 509.441 6.88672C509.936 6.30729 510.535 5.86133 511.238 5.54883C511.941 5.23633 512.729 5.08008 513.602 5.08008C514.194 5.08008 514.744 5.13216 515.252 5.23633C515.76 5.33398 516.248 5.48698 516.717 5.69531V7.4043C516.255 7.15039 515.776 6.95833 515.281 6.82812C514.786 6.69141 514.246 6.62305 513.66 6.62305C513.061 6.62305 512.518 6.73698 512.029 6.96484C511.548 7.1862 511.137 7.51172 510.799 7.94141C510.46 8.36458 510.2 8.88542 510.018 9.50391C509.835 10.1159 509.744 10.8158 509.744 11.6035C509.744 13.2572 510.079 14.5039 510.75 15.3438C511.421 16.1836 512.404 16.6035 513.699 16.6035C514.246 16.6035 514.77 16.5417 515.271 16.418C515.773 16.2878 516.255 16.1087 516.717 15.8809V17.5215ZM528.895 18H527L526.111 15.2168H520.799L519.9 18H518.094L522.332 5.23633H524.715L528.895 18ZM525.613 13.6641L523.455 6.83789L521.297 13.6641H525.613ZM539.148 6.7207H535.369V18H533.611V6.7207H529.832V5.23633H539.148V6.7207Z" fill="#C9D1D9"/>
<path d="M542.707 29.7071C543.098 29.3166 543.098 28.6834 542.707 28.2929L536.343 21.9289C535.953 21.5384 535.319 21.5384 534.929 21.9289C534.538 22.3195 534.538 22.9526 534.929 23.3431L540.586 29L534.929 34.6569C534.538 35.0474 534.538 35.6805 534.929 36.0711C535.319 36.4616 535.953 36.4616 536.343 36.0711L542.707 29.7071ZM508 30H542V28H508V30Z" fill="#C4A8A8"/>
<path d="M490.717 34.5215C489.695 34.9447 488.624 35.1562 487.504 35.1562C485.701 35.1562 484.314 34.6191 483.344 33.5449C482.38 32.4642 481.898 30.8691 481.898 28.7598C481.898 27.7376 482.032 26.8132 482.299 25.9863C482.566 25.1595 482.947 24.4596 483.441 23.8867C483.936 23.3073 484.535 22.8613 485.238 22.5488C485.941 22.2363 486.729 22.0801 487.602 22.0801C488.194 22.0801 488.744 22.1322 489.252 22.2363C489.76 22.334 490.248 22.487 490.717 22.6953V24.4043C490.255 24.1504 489.776 23.9583 489.281 23.8281C488.786 23.6914 488.246 23.623 487.66 23.623C487.061 23.623 486.518 23.737 486.029 23.9648C485.548 24.1862 485.137 24.5117 484.799 24.9414C484.46 25.3646 484.2 25.8854 484.018 26.5039C483.835 27.1159 483.744 27.8158 483.744 28.6035C483.744 30.2572 484.079 31.5039 484.75 32.3438C485.421 33.1836 486.404 33.6035 487.699 33.6035C488.246 33.6035 488.77 33.5417 489.271 33.418C489.773 33.2878 490.255 33.1087 490.717 32.8809V34.5215ZM502.895 35H501L500.111 32.2168H494.799L493.9 35H492.094L496.332 22.2363H498.715L502.895 35ZM499.613 30.6641L497.455 23.8379L495.297 30.6641H499.613Z" fill="#C9D1D9"/>
<path d="M557.898 35H556.004L555.115 32.2168H549.803L548.904 35H547.098L551.336 22.2363H553.719L557.898 35ZM554.617 30.6641L552.459 23.8379L550.301 30.6641H554.617ZM568.152 23.7207H564.373V35H562.615V23.7207H558.836V22.2363H568.152V23.7207Z" fill="#C9D1D9"/>
<circle cx="607" cy="27" r="14" stroke="#C4A8A8" stroke-width="2"/>
<circle cx="672" cy="27" r="14" stroke="#C4A8A8" stroke-width="2"/>
<path d="M630.717 15.5215C629.695 15.9447 628.624 16.1562 627.504 16.1562C625.701 16.1562 624.314 15.6191 623.344 14.5449C622.38 13.4642 621.898 11.8691 621.898 9.75977C621.898 8.73763 622.032 7.81315 622.299 6.98633C622.566 6.15951 622.947 5.45964 623.441 4.88672C623.936 4.30729 624.535 3.86133 625.238 3.54883C625.941 3.23633 626.729 3.08008 627.602 3.08008C628.194 3.08008 628.744 3.13216 629.252 3.23633C629.76 3.33398 630.248 3.48698 630.717 3.69531V5.4043C630.255 5.15039 629.776 4.95833 629.281 4.82812C628.786 4.69141 628.246 4.62305 627.66 4.62305C627.061 4.62305 626.518 4.73698 626.029 4.96484C625.548 5.1862 625.137 5.51172 624.799 5.94141C624.46 6.36458 624.2 6.88542 624.018 7.50391C623.835 8.11589 623.744 8.81576 623.744 9.60352C623.744 11.2572 624.079 12.5039 624.75 13.3438C625.421 14.1836 626.404 14.6035 627.699 14.6035C628.246 14.6035 628.77 14.5417 629.271 14.418C629.773 14.2878 630.255 14.1087 630.717 13.8809V15.5215ZM641.713 15.5215C640.691 15.9447 639.62 16.1562 638.5 16.1562C636.697 16.1562 635.31 15.6191 634.34 14.5449C633.376 13.4642 632.895 11.8691 632.895 9.75977C632.895 8.73763 633.028 7.81315 633.295 6.98633C633.562 6.15951 633.943 5.45964 634.438 4.88672C634.932 4.30729 635.531 3.86133 636.234 3.54883C636.938 3.23633 637.725 3.08008 638.598 3.08008C639.19 3.08008 639.74 3.13216 640.248 3.23633C640.756 3.33398 641.244 3.48698 641.713 3.69531V5.4043C641.251 5.15039 640.772 4.95833 640.277 4.82812C639.783 4.69141 639.242 4.62305 638.656 4.62305C638.057 4.62305 637.514 4.73698 637.025 4.96484C636.544 5.1862 636.133 5.51172 635.795 5.94141C635.456 6.36458 635.196 6.88542 635.014 7.50391C634.831 8.11589 634.74 8.81576 634.74 9.60352C634.74 11.2572 635.076 12.5039 635.746 13.3438C636.417 14.1836 637.4 14.6035 638.695 14.6035C639.242 14.6035 639.766 14.5417 640.268 14.418C640.769 14.2878 641.251 14.1087 641.713 13.8809V15.5215ZM653.891 16H651.996L651.107 13.2168H645.795L644.896 16H643.09L647.328 3.23633H649.711L653.891 16ZM650.609 11.6641L648.451 4.83789L646.293 11.6641H650.609Z" fill="#C9D1D9"/>
<path d="M656.707 27.7071C657.098 27.3166 657.098 26.6834 656.707 26.2929L650.343 19.9289C649.953 19.5384 649.319 19.5384 648.929 19.9289C648.538 20.3195 648.538 20.9526 648.929 21.3431L654.586 27L648.929 32.6569C648.538 33.0474 648.538 33.6805 648.929 34.0711C649.319 34.4616 649.953 34.4616 650.343 34.0711L656.707 27.7071ZM622 28H656V26H622V28Z" fill="#C4A8A8"/>
<path d="M604.717 32.5215C603.695 32.9447 602.624 33.1562 601.504 33.1562C599.701 33.1562 598.314 32.6191 597.344 31.5449C596.38 30.4642 595.898 28.8691 595.898 26.7598C595.898 25.7376 596.032 24.8132 596.299 23.9863C596.566 23.1595 596.947 22.4596 597.441 21.8867C597.936 21.3073 598.535 20.8613 599.238 20.5488C599.941 20.2363 600.729 20.0801 601.602 20.0801C602.194 20.0801 602.744 20.1322 603.252 20.2363C603.76 20.334 604.248 20.487 604.717 20.6953V22.4043C604.255 22.1504 603.776 21.9583 603.281 21.8281C602.786 21.6914 602.246 21.623 601.66 21.623C601.061 21.623 600.518 21.737 600.029 21.9648C599.548 22.1862 599.137 22.5117 598.799 22.9414C598.46 23.3646 598.2 23.8854 598.018 24.5039C597.835 25.1159 597.744 25.8158 597.744 26.6035C597.744 28.2572 598.079 29.5039 598.75 30.3438C599.421 31.1836 600.404 31.6035 601.699 31.6035C602.246 31.6035 602.77 31.5417 603.271 31.418C603.773 31.2878 604.255 31.1087 604.717 30.8809V32.5215ZM615.713 32.5215C614.691 32.9447 613.62 33.1562 612.5 33.1562C610.697 33.1562 609.31 32.6191 608.34 31.5449C607.376 30.4642 606.895 28.8691 606.895 26.7598C606.895 25.7376 607.028 24.8132 607.295 23.9863C607.562 23.1595 607.943 22.4596 608.438 21.8867C608.932 21.3073 609.531 20.8613 610.234 20.5488C610.938 20.2363 611.725 20.0801 612.598 20.0801C613.19 20.0801 613.74 20.1322 614.248 20.2363C614.756 20.334 615.244 20.487 615.713 20.6953V22.4043C615.251 22.1504 614.772 21.9583 614.277 21.8281C613.783 21.6914 613.242 21.623 612.656 21.623C612.057 21.623 611.514 21.737 611.025 21.9648C610.544 22.1862 610.133 22.5117 609.795 22.9414C609.456 23.3646 609.196 23.8854 609.014 24.5039C608.831 25.1159 608.74 25.8158 608.74 26.6035C608.74 28.2572 609.076 29.5039 609.746 30.3438C610.417 31.1836 611.4 31.6035 612.695 31.6035C613.242 31.6035 613.766 31.5417 614.268 31.418C614.769 31.2878 615.251 31.1087 615.713 30.8809V32.5215Z" fill="#C9D1D9"/>
<path d="M670.717 32.5215C669.695 32.9447 668.624 33.1562 667.504 33.1562C665.701 33.1562 664.314 32.6191 663.344 31.5449C662.38 30.4642 661.898 28.8691 661.898 26.7598C661.898 25.7376 662.032 24.8132 662.299 23.9863C662.566 23.1595 662.947 22.4596 663.441 21.8867C663.936 21.3073 664.535 20.8613 665.238 20.5488C665.941 20.2363 666.729 20.0801 667.602 20.0801C668.194 20.0801 668.744 20.1322 669.252 20.2363C669.76 20.334 670.248 20.487 670.717 20.6953V22.4043C670.255 22.1504 669.776 21.9583 669.281 21.8281C668.786 21.6914 668.246 21.623 667.66 21.623C667.061 21.623 666.518 21.737 666.029 21.9648C665.548 22.1862 665.137 22.5117 664.799 22.9414C664.46 23.3646 664.2 23.8854 664.018 24.5039C663.835 25.1159 663.744 25.8158 663.744 26.6035C663.744 28.2572 664.079 29.5039 664.75 30.3438C665.421 31.1836 666.404 31.6035 667.699 31.6035C668.246 31.6035 668.77 31.5417 669.271 31.418C669.773 31.2878 670.255 31.1087 670.717 30.8809V32.5215ZM682.895 33H681L680.111 30.2168H674.799L673.9 33H672.094L676.332 20.2363H678.715L682.895 33ZM679.613 28.6641L677.455 21.8379L675.297 28.6641H679.613Z" fill="#C9D1D9"/>
<circle cx="726" cy="27" r="14" stroke="#C4A8A8" stroke-width="2"/>
<circle cx="791" cy="27" r="14" stroke="#C4A8A8" stroke-width="2"/>
<path d="M749.824 5.42383C749.349 5.16992 748.861 4.97461 748.359 4.83789C747.858 4.69466 747.311 4.62305 746.719 4.62305C746.042 4.62305 745.439 4.74349 744.912 4.98438C744.385 5.22526 743.939 5.56706 743.574 6.00977C743.216 6.44596 742.939 6.97331 742.744 7.5918C742.555 8.21029 742.461 8.89388 742.461 9.64258C742.461 10.4238 742.539 11.1237 742.695 11.7422C742.852 12.3607 743.096 12.8848 743.428 13.3145C743.76 13.7441 744.183 14.0729 744.697 14.3008C745.218 14.5286 745.84 14.6426 746.562 14.6426C746.686 14.6426 746.82 14.6361 746.963 14.623C747.106 14.61 747.249 14.5938 747.393 14.5742C747.536 14.5482 747.673 14.5189 747.803 14.4863C747.939 14.4538 748.06 14.418 748.164 14.3789V10.3164H745.557V8.88086H749.883V15.4043C749.616 15.528 749.333 15.6387 749.033 15.7363C748.74 15.834 748.438 15.9154 748.125 15.9805C747.819 16.0456 747.513 16.0944 747.207 16.127C746.901 16.1595 746.605 16.1758 746.318 16.1758C745.446 16.1758 744.658 16.0391 743.955 15.7656C743.258 15.4922 742.663 15.0885 742.168 14.5547C741.68 14.0143 741.302 13.3438 741.035 12.543C740.775 11.7422 740.645 10.8145 740.645 9.75977C740.645 8.71159 740.791 7.77409 741.084 6.94727C741.377 6.11393 741.787 5.41081 742.314 4.83789C742.848 4.25846 743.486 3.81901 744.229 3.51953C744.977 3.21354 745.801 3.06055 746.699 3.06055C747.272 3.06055 747.816 3.11263 748.33 3.2168C748.851 3.31445 749.349 3.47396 749.824 3.69531V5.42383ZM761.895 16H760L759.111 13.2168H753.799L752.9 16H751.094L755.332 3.23633H757.715L761.895 16ZM758.613 11.6641L756.455 4.83789L754.297 11.6641H758.613ZM772.148 4.7207H768.369V16H766.611V4.7207H762.832V3.23633H772.148V4.7207Z" fill="#C9D1D9"/>
<path d="M775.707 27.7071C776.098 27.3166 776.098 26.6834 775.707 26.2929L769.343 19.9289C768.953 19.5384 768.319 19.5384 767.929 19.9289C767.538 20.3195 767.538 20.9526 767.929 21.3431L773.586 27L767.929 32.6569C767.538 33.0474 767.538 33.6805 767.929 34.0711C768.319 34.4616 768.953 34.4616 769.343 34.0711L775.707 27.7071ZM741 28H775V26H741V28Z" fill="#C4A8A8"/>
<path d="M723.824 22.4238C723.349 22.1699 722.861 21.9746 722.359 21.8379C721.858 21.6947 721.311 21.623 720.719 21.623C720.042 21.623 719.439 21.7435 718.912 21.9844C718.385 22.2253 717.939 22.5671 717.574 23.0098C717.216 23.446 716.939 23.9733 716.744 24.5918C716.555 25.2103 716.461 25.8939 716.461 26.6426C716.461 27.4238 716.539 28.1237 716.695 28.7422C716.852 29.3607 717.096 29.8848 717.428 30.3145C717.76 30.7441 718.183 31.0729 718.697 31.3008C719.218 31.5286 719.84 31.6426 720.562 31.6426C720.686 31.6426 720.82 31.6361 720.963 31.623C721.106 31.61 721.249 31.5938 721.393 31.5742C721.536 31.5482 721.673 31.5189 721.803 31.4863C721.939 31.4538 722.06 31.418 722.164 31.3789V27.3164H719.557V25.8809H723.883V32.4043C723.616 32.528 723.333 32.6387 723.033 32.7363C722.74 32.834 722.438 32.9154 722.125 32.9805C721.819 33.0456 721.513 33.0944 721.207 33.127C720.901 33.1595 720.605 33.1758 720.318 33.1758C719.446 33.1758 718.658 33.0391 717.955 32.7656C717.258 32.4922 716.663 32.0885 716.168 31.5547C715.68 31.0143 715.302 30.3438 715.035 29.543C714.775 28.7422 714.645 27.8145 714.645 26.7598C714.645 25.7116 714.791 24.7741 715.084 23.9473C715.377 23.1139 715.787 22.4108 716.314 21.8379C716.848 21.2585 717.486 20.819 718.229 20.5195C718.977 20.2135 719.801 20.0605 720.699 20.0605C721.272 20.0605 721.816 20.1126 722.33 20.2168C722.851 20.3145 723.349 20.474 723.824 20.6953V22.4238ZM735.895 33H734L733.111 30.2168H727.799L726.9 33H725.094L729.332 20.2363H731.715L735.895 33ZM732.613 28.6641L730.455 21.8379L728.297 28.6641H732.613Z" fill="#C9D1D9"/>
<path d="M790.898 33H789.004L788.115 30.2168H782.803L781.904 33H780.098L784.336 20.2363H786.719L790.898 33ZM787.617 28.6641L785.459 21.8379L783.301 28.6641H787.617ZM801.152 21.7207H797.373V33H795.615V21.7207H791.836V20.2363H801.152V21.7207Z" fill="#C9D1D9"/>
<circle cx="15" cy="99" r="14" stroke="#C4A8A8" stroke-width="2"/>
<circle cx="80" cy="99" r="14" stroke="#C4A8A8" stroke-width="2"/>
<path d="M38.8242 77.4238C38.349 77.1699 37.8607 76.9746 37.3594 76.8379C36.8581 76.6947 36.3112 76.623 35.7188 76.623C35.0417 76.623 34.4395 76.7435 33.9121 76.9844C33.3848 77.2253 32.9388 77.5671 32.5742 78.0098C32.2161 78.446 31.9395 78.9733 31.7441 79.5918C31.5553 80.2103 31.4609 80.8939 31.4609 81.6426C31.4609 82.4238 31.5391 83.1237 31.6953 83.7422C31.8516 84.3607 32.0957 84.8848 32.4277 85.3145C32.7598 85.7441 33.1829 86.0729 33.6973 86.3008C34.2181 86.5286 34.8398 86.6426 35.5625 86.6426C35.6862 86.6426 35.8197 86.6361 35.9629 86.623C36.1061 86.61 36.2493 86.5938 36.3926 86.5742C36.5358 86.5482 36.6725 86.5189 36.8027 86.4863C36.9395 86.4538 37.0599 86.418 37.1641 86.3789V82.3164H34.5566V80.8809H38.8828V87.4043C38.6159 87.528 38.3327 87.6387 38.0332 87.7363C37.7402 87.834 37.4375 87.9154 37.125 87.9805C36.819 88.0456 36.513 88.0944 36.207 88.127C35.901 88.1595 35.6048 88.1758 35.3184 88.1758C34.446 88.1758 33.6582 88.0391 32.9551 87.7656C32.2585 87.4922 31.6628 87.0885 31.168 86.5547C30.6797 86.0143 30.3021 85.3438 30.0352 84.543C29.7747 83.7422 29.6445 82.8145 29.6445 81.7598C29.6445 80.7116 29.791 79.7741 30.084 78.9473C30.377 78.1139 30.7871 77.4108 31.3145 76.8379C31.8483 76.2585 32.4863 75.819 33.2285 75.5195C33.9772 75.2135 34.8008 75.0605 35.6992 75.0605C36.2721 75.0605 36.8158 75.1126 37.3301 75.2168C37.8509 75.3145 38.349 75.474 38.8242 75.6953V77.4238ZM49.7129 87.5215C48.6908 87.9447 47.6198 88.1562 46.5 88.1562C44.6966 88.1562 43.3099 87.6191 42.3398 86.5449C41.3763 85.4642 40.8945 83.8691 40.8945 81.7598C40.8945 80.7376 41.028 79.8132 41.2949 78.9863C41.5618 78.1595 41.9427 77.4596 42.4375 76.8867C42.9323 76.3073 43.5312 75.8613 44.2344 75.5488C44.9375 75.2363 45.7253 75.0801 46.5977 75.0801C47.1901 75.0801 47.7402 75.1322 48.248 75.2363C48.7559 75.334 49.2441 75.487 49.7129 75.6953V77.4043C49.2507 77.1504 48.7721 76.9583 48.2773 76.8281C47.7826 76.6914 47.2422 76.623 46.6562 76.623C46.0573 76.623 45.5137 76.737 45.0254 76.9648C44.5436 77.1862 44.1335 77.5117 43.7949 77.9414C43.4564 78.3646 43.196 78.8854 43.0137 79.5039C42.8314 80.1159 42.7402 80.8158 42.7402 81.6035C42.7402 83.2572 43.0755 84.5039 43.7461 85.3438C44.4167 86.1836 45.3997 86.6035 46.6953 86.6035C47.2422 86.6035 47.7663 86.5417 48.2676 86.418C48.7689 86.2878 49.2507 86.1087 49.7129 85.8809V87.5215ZM60.709 87.5215C59.6868 87.9447 58.6159 88.1562 57.4961 88.1562C55.6927 88.1562 54.306 87.6191 53.3359 86.5449C52.3724 85.4642 51.8906 83.8691 51.8906 81.7598C51.8906 80.7376 52.0241 79.8132 52.291 78.9863C52.5579 78.1595 52.9388 77.4596 53.4336 76.8867C53.9284 76.3073 54.5273 75.8613 55.2305 75.5488C55.9336 75.2363 56.7214 75.0801 57.5938 75.0801C58.1862 75.0801 58.7363 75.1322 59.2441 75.2363C59.752 75.334 60.2402 75.487 60.709 75.6953V77.4043C60.2467 77.1504 59.7682 76.9583 59.2734 76.8281C58.7786 76.6914 58.2383 76.623 57.6523 76.623C57.0534 76.623 56.5098 76.737 56.0215 76.9648C55.5397 77.1862 55.1296 77.5117 54.791 77.9414C54.4525 78.3646 54.1921 78.8854 54.0098 79.5039C53.8275 80.1159 53.7363 80.8158 53.7363 81.6035C53.7363 83.2572 54.0716 84.5039 54.7422 85.3438C55.4128 86.1836 56.3958 86.6035 57.6914 86.6035C58.2383 86.6035 58.7624 86.5417 59.2637 86.418C59.765 86.2878 60.2467 86.1087 60.709 85.8809V87.5215Z" fill="#C9D1D9"/>
<path d="M64.7071 99.7071C65.0976 99.3166 65.0976 98.6834 64.7071 98.2929L58.3431 91.9289C57.9526 91.5384 57.3195 91.5384 56.9289 91.9289C56.5384 92.3195 56.5384 92.9526 56.9289 93.3431L62.5858 99L56.9289 104.657C56.5384 105.047 56.5384 105.681 56.9289 106.071C57.3195 106.462 57.9526 106.462 58.3431 106.071L64.7071 99.7071ZM30 100H64V98H30V100Z" fill="#C4A8A8"/>
<path d="M12.8242 94.4238C12.349 94.1699 11.8607 93.9746 11.3594 93.8379C10.8581 93.6947 10.3112 93.623 9.71875 93.623C9.04167 93.623 8.43945 93.7435 7.91211 93.9844C7.38477 94.2253 6.9388 94.5671 6.57422 95.0098C6.21615 95.446 5.93945 95.9733 5.74414 96.5918C5.55534 97.2103 5.46094 97.8939 5.46094 98.6426C5.46094 99.4238 5.53906 100.124 5.69531 100.742C5.85156 101.361 6.0957 101.885 6.42773 102.314C6.75977 102.744 7.18294 103.073 7.69727 103.301C8.2181 103.529 8.83984 103.643 9.5625 103.643C9.6862 103.643 9.81966 103.636 9.96289 103.623C10.1061 103.61 10.2493 103.594 10.3926 103.574C10.5358 103.548 10.6725 103.519 10.8027 103.486C10.9395 103.454 11.0599 103.418 11.1641 103.379V99.3164H8.55664V97.8809H12.8828V104.404C12.6159 104.528 12.3327 104.639 12.0332 104.736C11.7402 104.834 11.4375 104.915 11.125 104.98C10.819 105.046 10.513 105.094 10.207 105.127C9.90104 105.16 9.60482 105.176 9.31836 105.176C8.44596 105.176 7.6582 105.039 6.95508 104.766C6.25846 104.492 5.66276 104.089 5.16797 103.555C4.67969 103.014 4.30208 102.344 4.03516 101.543C3.77474 100.742 3.64453 99.8145 3.64453 98.7598C3.64453 97.7116 3.79102 96.7741 4.08398 95.9473C4.37695 95.1139 4.78711 94.4108 5.31445 93.8379C5.84831 93.2585 6.48633 92.819 7.22852 92.5195C7.97721 92.2135 8.80078 92.0605 9.69922 92.0605C10.2721 92.0605 10.8158 92.1126 11.3301 92.2168C11.8509 92.3145 12.349 92.474 12.8242 92.6953V94.4238ZM23.7129 104.521C22.6908 104.945 21.6198 105.156 20.5 105.156C18.6966 105.156 17.3099 104.619 16.3398 103.545C15.3763 102.464 14.8945 100.869 14.8945 98.7598C14.8945 97.7376 15.028 96.8132 15.2949 95.9863C15.5618 95.1595 15.9427 94.4596 16.4375 93.8867C16.9323 93.3073 17.5312 92.8613 18.2344 92.5488C18.9375 92.2363 19.7253 92.0801 20.5977 92.0801C21.1901 92.0801 21.7402 92.1322 22.248 92.2363C22.7559 92.334 23.2441 92.487 23.7129 92.6953V94.4043C23.2507 94.1504 22.7721 93.9583 22.2773 93.8281C21.7826 93.6914 21.2422 93.623 20.6562 93.623C20.0573 93.623 19.5137 93.737 19.0254 93.9648C18.5436 94.1862 18.1335 94.5117 17.7949 94.9414C17.4564 95.3646 17.196 95.8854 17.0137 96.5039C16.8314 97.1159 16.7402 97.8158 16.7402 98.6035C16.7402 100.257 17.0755 101.504 17.7461 102.344C18.4167 103.184 19.3997 103.604 20.6953 103.604C21.2422 103.604 21.7663 103.542 22.2676 103.418C22.7689 103.288 23.2507 103.109 23.7129 102.881V104.521Z" fill="#C9D1D9"/>
<path d="M78.7168 104.521C77.6947 104.945 76.6237 105.156 75.5039 105.156C73.7005 105.156 72.3138 104.619 71.3438 103.545C70.3802 102.464 69.8984 100.869 69.8984 98.7598C69.8984 97.7376 70.0319 96.8132 70.2988 95.9863C70.5658 95.1595 70.9466 94.4596 71.4414 93.8867C71.9362 93.3073 72.5352 92.8613 73.2383 92.5488C73.9414 92.2363 74.7292 92.0801 75.6016 92.0801C76.194 92.0801 76.7441 92.1322 77.252 92.2363C77.7598 92.334 78.248 92.487 78.7168 92.6953V94.4043C78.2546 94.1504 77.776 93.9583 77.2812 93.8281C76.7865 93.6914 76.2461 93.623 75.6602 93.623C75.0612 93.623 74.5176 93.737 74.0293 93.9648C73.5475 94.1862 73.1374 94.5117 72.7988 94.9414C72.4603 95.3646 72.1999 95.8854 72.0176 96.5039C71.8353 97.1159 71.7441 97.8158 71.7441 98.6035C71.7441 100.257 72.0794 101.504 72.75 102.344C73.4206 103.184 74.4036 103.604 75.6992 103.604C76.2461 103.604 76.7702 103.542 77.2715 103.418C77.7728 103.288 78.2546 103.109 78.7168 102.881V104.521ZM89.7129 104.521C88.6908 104.945 87.6198 105.156 86.5 105.156C84.6966 105.156 83.3099 104.619 82.3398 103.545C81.3763 102.464 80.8945 100.869 80.8945 98.7598C80.8945 97.7376 81.028 96.8132 81.2949 95.9863C81.5618 95.1595 81.9427 94.4596 82.4375 93.8867C82.9323 93.3073 83.5312 92.8613 84.2344 92.5488C84.9375 92.2363 85.7253 92.0801 86.5977 92.0801C87.1901 92.0801 87.7402 92.1322 88.248 92.2363C88.7559 92.334 89.2441 92.487 89.7129 92.6953V94.4043C89.2507 94.1504 88.7721 93.9583 88.2773 93.8281C87.7826 93.6914 87.2422 93.623 86.6562 93.623C86.0573 93.623 85.5137 93.737 85.0254 93.9648C84.5436 94.1862 84.1335 94.5117 83.7949 94.9414C83.4564 95.3646 83.196 95.8854 83.0137 96.5039C82.8314 97.1159 82.7402 97.8158 82.7402 98.6035C82.7402 100.257 83.0755 101.504 83.7461 102.344C84.4167 103.184 85.3997 103.604 86.6953 103.604C87.2422 103.604 87.7663 103.542 88.2676 103.418C88.7689 103.288 89.2507 103.109 89.7129 102.881V104.521Z" fill="#C9D1D9"/>
<circle cx="15" cy="164" r="14" stroke="#C4A8A8" stroke-width="2"/>
<circle cx="80" cy="164" r="14" stroke="#C4A8A8" stroke-width="2"/>
<path d="M39.1562 141.721H35.377V153H33.6191V141.721H29.8398V140.236H39.1562V141.721ZM49.8203 142.424C49.3451 142.17 48.8568 141.975 48.3555 141.838C47.8542 141.695 47.3073 141.623 46.7148 141.623C46.0378 141.623 45.4355 141.743 44.9082 141.984C44.3809 142.225 43.9349 142.567 43.5703 143.01C43.2122 143.446 42.9355 143.973 42.7402 144.592C42.5514 145.21 42.457 145.894 42.457 146.643C42.457 147.424 42.5352 148.124 42.6914 148.742C42.8477 149.361 43.0918 149.885 43.4238 150.314C43.7559 150.744 44.179 151.073 44.6934 151.301C45.2142 151.529 45.8359 151.643 46.5586 151.643C46.6823 151.643 46.8158 151.636 46.959 151.623C47.1022 151.61 47.2454 151.594 47.3887 151.574C47.5319 151.548 47.6686 151.519 47.7988 151.486C47.9355 151.454 48.056 151.418 48.1602 151.379V147.316H45.5527V145.881H49.8789V152.404C49.612 152.528 49.3288 152.639 49.0293 152.736C48.7363 152.834 48.4336 152.915 48.1211 152.98C47.8151 153.046 47.5091 153.094 47.2031 153.127C46.8971 153.16 46.6009 153.176 46.3145 153.176C45.4421 153.176 44.6543 153.039 43.9512 152.766C43.2546 152.492 42.6589 152.089 42.1641 151.555C41.6758 151.014 41.2982 150.344 41.0312 149.543C40.7708 148.742 40.6406 147.814 40.6406 146.76C40.6406 145.712 40.7871 144.774 41.0801 143.947C41.373 143.114 41.7832 142.411 42.3105 141.838C42.8444 141.258 43.4824 140.819 44.2246 140.52C44.9733 140.214 45.7969 140.061 46.6953 140.061C47.2682 140.061 47.8118 140.113 48.3262 140.217C48.847 140.314 49.3451 140.474 49.8203 140.695V142.424ZM61.1484 141.721H57.3691V153H55.6113V141.721H51.832V140.236H61.1484V141.721Z" fill="#C9D1D9"/>
<path d="M64.7071 164.707C65.0976 164.317 65.0976 163.683 64.7071 163.293L58.3431 156.929C57.9526 156.538 57.3195 156.538 56.9289 156.929C56.5384 157.319 56.5384 157.953 56.9289 158.343L62.5858 164L56.9289 169.657C56.5384 170.047 56.5384 170.681 56.9289 171.071C57.3195 171.462 57.9526 171.462 58.3431 171.071L64.7071 164.707ZM30 165H64V163H30V165Z" fill="#C4A8A8"/>
<path d="M13.1562 158.721H9.37695V170H7.61914V158.721H3.83984V157.236H13.1562V158.721ZM23.8203 159.424C23.3451 159.17 22.8568 158.975 22.3555 158.838C21.8542 158.695 21.3073 158.623 20.7148 158.623C20.0378 158.623 19.4355 158.743 18.9082 158.984C18.3809 159.225 17.9349 159.567 17.5703 160.01C17.2122 160.446 16.9355 160.973 16.7402 161.592C16.5514 162.21 16.457 162.894 16.457 163.643C16.457 164.424 16.5352 165.124 16.6914 165.742C16.8477 166.361 17.0918 166.885 17.4238 167.314C17.7559 167.744 18.179 168.073 18.6934 168.301C19.2142 168.529 19.8359 168.643 20.5586 168.643C20.6823 168.643 20.8158 168.636 20.959 168.623C21.1022 168.61 21.2454 168.594 21.3887 168.574C21.5319 168.548 21.6686 168.519 21.7988 168.486C21.9355 168.454 22.056 168.418 22.1602 168.379V164.316H19.5527V162.881H23.8789V169.404C23.612 169.528 23.3288 169.639 23.0293 169.736C22.7363 169.834 22.4336 169.915 22.1211 169.98C21.8151 170.046 21.5091 170.094 21.2031 170.127C20.8971 170.16 20.6009 170.176 20.3145 170.176C19.4421 170.176 18.6543 170.039 17.9512 169.766C17.2546 169.492 16.6589 169.089 16.1641 168.555C15.6758 168.014 15.2982 167.344 15.0312 166.543C14.7708 165.742 14.6406 164.814 14.6406 163.76C14.6406 162.712 14.7871 161.774 15.0801 160.947C15.373 160.114 15.7832 159.411 16.3105 158.838C16.8444 158.258 17.4824 157.819 18.2246 157.52C18.9733 157.214 19.7969 157.061 20.6953 157.061C21.2682 157.061 21.8118 157.113 22.3262 157.217C22.847 157.314 23.3451 157.474 23.8203 157.695V159.424Z" fill="#C9D1D9"/>
<path d="M78.8242 159.424C78.349 159.17 77.8607 158.975 77.3594 158.838C76.8581 158.695 76.3112 158.623 75.7188 158.623C75.0417 158.623 74.4395 158.743 73.9121 158.984C73.3848 159.225 72.9388 159.567 72.5742 160.01C72.2161 160.446 71.9395 160.973 71.7441 161.592C71.5553 162.21 71.4609 162.894 71.4609 163.643C71.4609 164.424 71.5391 165.124 71.6953 165.742C71.8516 166.361 72.0957 166.885 72.4277 167.314C72.7598 167.744 73.1829 168.073 73.6973 168.301C74.2181 168.529 74.8398 168.643 75.5625 168.643C75.6862 168.643 75.8197 168.636 75.9629 168.623C76.1061 168.61 76.2493 168.594 76.3926 168.574C76.5358 168.548 76.6725 168.519 76.8027 168.486C76.9395 168.454 77.0599 168.418 77.1641 168.379V164.316H74.5566V162.881H78.8828V169.404C78.6159 169.528 78.3327 169.639 78.0332 169.736C77.7402 169.834 77.4375 169.915 77.125 169.98C76.819 170.046 76.513 170.094 76.207 170.127C75.901 170.16 75.6048 170.176 75.3184 170.176C74.446 170.176 73.6582 170.039 72.9551 169.766C72.2585 169.492 71.6628 169.089 71.168 168.555C70.6797 168.014 70.3021 167.344 70.0352 166.543C69.7747 165.742 69.6445 164.814 69.6445 163.76C69.6445 162.712 69.791 161.774 70.084 160.947C70.377 160.114 70.7871 159.411 71.3145 158.838C71.8483 158.258 72.4863 157.819 73.2285 157.52C73.9772 157.214 74.8008 157.061 75.6992 157.061C76.2721 157.061 76.8158 157.113 77.3301 157.217C77.8509 157.314 78.349 157.474 78.8242 157.695V159.424ZM90.1523 158.721H86.373V170H84.6152V158.721H80.8359V157.236H90.1523V158.721Z" fill="#C9D1D9"/>
<circle cx="134" cy="99" r="14" stroke="#C4A8A8" stroke-width="2"/>
<circle cx="199" cy="99" r="14" stroke="#C4A8A8" stroke-width="2"/>
<path d="M157.824 77.4238C157.349 77.1699 156.861 76.9746 156.359 76.8379C155.858 76.6947 155.311 76.623 154.719 76.623C154.042 76.623 153.439 76.7435 152.912 76.9844C152.385 77.2253 151.939 77.5671 151.574 78.0098C151.216 78.446 150.939 78.9733 150.744 79.5918C150.555 80.2103 150.461 80.8939 150.461 81.6426C150.461 82.4238 150.539 83.1237 150.695 83.7422C150.852 84.3607 151.096 84.8848 151.428 85.3145C151.76 85.7441 152.183 86.0729 152.697 86.3008C153.218 86.5286 153.84 86.6426 154.562 86.6426C154.686 86.6426 154.82 86.6361 154.963 86.623C155.106 86.61 155.249 86.5938 155.393 86.5742C155.536 86.5482 155.673 86.5189 155.803 86.4863C155.939 86.4538 156.06 86.418 156.164 86.3789V82.3164H153.557V80.8809H157.883V87.4043C157.616 87.528 157.333 87.6387 157.033 87.7363C156.74 87.834 156.438 87.9154 156.125 87.9805C155.819 88.0456 155.513 88.0944 155.207 88.127C154.901 88.1595 154.605 88.1758 154.318 88.1758C153.446 88.1758 152.658 88.0391 151.955 87.7656C151.258 87.4922 150.663 87.0885 150.168 86.5547C149.68 86.0143 149.302 85.3438 149.035 84.543C148.775 83.7422 148.645 82.8145 148.645 81.7598C148.645 80.7116 148.791 79.7741 149.084 78.9473C149.377 78.1139 149.787 77.4108 150.314 76.8379C150.848 76.2585 151.486 75.819 152.229 75.5195C152.977 75.2135 153.801 75.0605 154.699 75.0605C155.272 75.0605 155.816 75.1126 156.33 75.2168C156.851 75.3145 157.349 75.474 157.824 75.6953V77.4238ZM168.82 77.4238C168.345 77.1699 167.857 76.9746 167.355 76.8379C166.854 76.6947 166.307 76.623 165.715 76.623C165.038 76.623 164.436 76.7435 163.908 76.9844C163.381 77.2253 162.935 77.5671 162.57 78.0098C162.212 78.446 161.936 78.9733 161.74 79.5918C161.551 80.2103 161.457 80.8939 161.457 81.6426C161.457 82.4238 161.535 83.1237 161.691 83.7422C161.848 84.3607 162.092 84.8848 162.424 85.3145C162.756 85.7441 163.179 86.0729 163.693 86.3008C164.214 86.5286 164.836 86.6426 165.559 86.6426C165.682 86.6426 165.816 86.6361 165.959 86.623C166.102 86.61 166.245 86.5938 166.389 86.5742C166.532 86.5482 166.669 86.5189 166.799 86.4863C166.936 86.4538 167.056 86.418 167.16 86.3789V82.3164H164.553V80.8809H168.879V87.4043C168.612 87.528 168.329 87.6387 168.029 87.7363C167.736 87.834 167.434 87.9154 167.121 87.9805C166.815 88.0456 166.509 88.0944 166.203 88.127C165.897 88.1595 165.601 88.1758 165.314 88.1758C164.442 88.1758 163.654 88.0391 162.951 87.7656C162.255 87.4922 161.659 87.0885 161.164 86.5547C160.676 86.0143 160.298 85.3438 160.031 84.543C159.771 83.7422 159.641 82.8145 159.641 81.7598C159.641 80.7116 159.787 79.7741 160.08 78.9473C160.373 78.1139 160.783 77.4108 161.311 76.8379C161.844 76.2585 162.482 75.819 163.225 75.5195C163.973 75.2135 164.797 75.0605 165.695 75.0605C166.268 75.0605 166.812 75.1126 167.326 75.2168C167.847 75.3145 168.345 75.474 168.82 75.6953V77.4238ZM180.891 88H178.996L178.107 85.2168H172.795L171.896 88H170.09L174.328 75.2363H176.711L180.891 88ZM177.609 83.6641L175.451 76.8379L173.293 83.6641H177.609Z" fill="#C9D1D9"/>
<path d="M183.707 99.7071C184.098 99.3166 184.098 98.6834 183.707 98.2929L177.343 91.9289C176.953 91.5384 176.319 91.5384 175.929 91.9289C175.538 92.3195 175.538 92.9526 175.929 93.3431L181.586 99L175.929 104.657C175.538 105.047 175.538 105.681 175.929 106.071C176.319 106.462 176.953 106.462 177.343 106.071L183.707 99.7071ZM149 100H183V98H149V100Z" fill="#C4A8A8"/>
<path d="M131.824 94.4238C131.349 94.1699 130.861 93.9746 130.359 93.8379C129.858 93.6947 129.311 93.623 128.719 93.623C128.042 93.623 127.439 93.7435 126.912 93.9844C126.385 94.2253 125.939 94.5671 125.574 95.0098C125.216 95.446 124.939 95.9733 124.744 96.5918C124.555 97.2103 124.461 97.8939 124.461 98.6426C124.461 99.4238 124.539 100.124 124.695 100.742C124.852 101.361 125.096 101.885 125.428 102.314C125.76 102.744 126.183 103.073 126.697 103.301C127.218 103.529 127.84 103.643 128.562 103.643C128.686 103.643 128.82 103.636 128.963 103.623C129.106 103.61 129.249 103.594 129.393 103.574C129.536 103.548 129.673 103.519 129.803 103.486C129.939 103.454 130.06 103.418 130.164 103.379V99.3164H127.557V97.8809H131.883V104.404C131.616 104.528 131.333 104.639 131.033 104.736C130.74 104.834 130.438 104.915 130.125 104.98C129.819 105.046 129.513 105.094 129.207 105.127C128.901 105.16 128.605 105.176 128.318 105.176C127.446 105.176 126.658 105.039 125.955 104.766C125.258 104.492 124.663 104.089 124.168 103.555C123.68 103.014 123.302 102.344 123.035 101.543C122.775 100.742 122.645 99.8145 122.645 98.7598C122.645 97.7116 122.791 96.7741 123.084 95.9473C123.377 95.1139 123.787 94.4108 124.314 93.8379C124.848 93.2585 125.486 92.819 126.229 92.5195C126.977 92.2135 127.801 92.0605 128.699 92.0605C129.272 92.0605 129.816 92.1126 130.33 92.2168C130.851 92.3145 131.349 92.474 131.824 92.6953V94.4238ZM142.82 94.4238C142.345 94.1699 141.857 93.9746 141.355 93.8379C140.854 93.6947 140.307 93.623 139.715 93.623C139.038 93.623 138.436 93.7435 137.908 93.9844C137.381 94.2253 136.935 94.5671 136.57 95.0098C136.212 95.446 135.936 95.9733 135.74 96.5918C135.551 97.2103 135.457 97.8939 135.457 98.6426C135.457 99.4238 135.535 100.124 135.691 100.742C135.848 101.361 136.092 101.885 136.424 102.314C136.756 102.744 137.179 103.073 137.693 103.301C138.214 103.529 138.836 103.643 139.559 103.643C139.682 103.643 139.816 103.636 139.959 103.623C140.102 103.61 140.245 103.594 140.389 103.574C140.532 103.548 140.669 103.519 140.799 103.486C140.936 103.454 141.056 103.418 141.16 103.379V99.3164H138.553V97.8809H142.879V104.404C142.612 104.528 142.329 104.639 142.029 104.736C141.736 104.834 141.434 104.915 141.121 104.98C140.815 105.046 140.509 105.094 140.203 105.127C139.897 105.16 139.601 105.176 139.314 105.176C138.442 105.176 137.654 105.039 136.951 104.766C136.255 104.492 135.659 104.089 135.164 103.555C134.676 103.014 134.298 102.344 134.031 101.543C133.771 100.742 133.641 99.8145 133.641 98.7598C133.641 97.7116 133.787 96.7741 134.08 95.9473C134.373 95.1139 134.783 94.4108 135.311 93.8379C135.844 93.2585 136.482 92.819 137.225 92.5195C137.973 92.2135 138.797 92.0605 139.695 92.0605C140.268 92.0605 140.812 92.1126 141.326 92.2168C141.847 92.3145 142.345 92.474 142.82 92.6953V94.4238Z" fill="#C9D1D9"/>
<path d="M197.824 94.4238C197.349 94.1699 196.861 93.9746 196.359 93.8379C195.858 93.6947 195.311 93.623 194.719 93.623C194.042 93.623 193.439 93.7435 192.912 93.9844C192.385 94.2253 191.939 94.5671 191.574 95.0098C191.216 95.446 190.939 95.9733 190.744 96.5918C190.555 97.2103 190.461 97.8939 190.461 98.6426C190.461 99.4238 190.539 100.124 190.695 100.742C190.852 101.361 191.096 101.885 191.428 102.314C191.76 102.744 192.183 103.073 192.697 103.301C193.218 103.529 193.84 103.643 194.562 103.643C194.686 103.643 194.82 103.636 194.963 103.623C195.106 103.61 195.249 103.594 195.393 103.574C195.536 103.548 195.673 103.519 195.803 103.486C195.939 103.454 196.06 103.418 196.164 103.379V99.3164H193.557V97.8809H197.883V104.404C197.616 104.528 197.333 104.639 197.033 104.736C196.74 104.834 196.438 104.915 196.125 104.98C195.819 105.046 195.513 105.094 195.207 105.127C194.901 105.16 194.605 105.176 194.318 105.176C193.446 105.176 192.658 105.039 191.955 104.766C191.258 104.492 190.663 104.089 190.168 103.555C189.68 103.014 189.302 102.344 189.035 101.543C188.775 100.742 188.645 99.8145 188.645 98.7598C188.645 97.7116 188.791 96.7741 189.084 95.9473C189.377 95.1139 189.787 94.4108 190.314 93.8379C190.848 93.2585 191.486 92.819 192.229 92.5195C192.977 92.2135 193.801 92.0605 194.699 92.0605C195.272 92.0605 195.816 92.1126 196.33 92.2168C196.851 92.3145 197.349 92.474 197.824 92.6953V94.4238ZM209.895 105H208L207.111 102.217H201.799L200.9 105H199.094L203.332 92.2363H205.715L209.895 105ZM206.613 100.664L204.455 93.8379L202.297 100.664H206.613Z" fill="#C9D1D9"/>
<circle cx="251" cy="99" r="14" stroke="#C4A8A8" stroke-width="2"/>
<circle cx="316" cy="99" r="14" stroke="#C4A8A8" stroke-width="2"/>
<path d="M274.824 77.4238C274.349 77.1699 273.861 76.9746 273.359 76.8379C272.858 76.6947 272.311 76.623 271.719 76.623C271.042 76.623 270.439 76.7435 269.912 76.9844C269.385 77.2253 268.939 77.5671 268.574 78.0098C268.216 78.446 267.939 78.9733 267.744 79.5918C267.555 80.2103 267.461 80.8939 267.461 81.6426C267.461 82.4238 267.539 83.1237 267.695 83.7422C267.852 84.3607 268.096 84.8848 268.428 85.3145C268.76 85.7441 269.183 86.0729 269.697 86.3008C270.218 86.5286 270.84 86.6426 271.562 86.6426C271.686 86.6426 271.82 86.6361 271.963 86.623C272.106 86.61 272.249 86.5938 272.393 86.5742C272.536 86.5482 272.673 86.5189 272.803 86.4863C272.939 86.4538 273.06 86.418 273.164 86.3789V82.3164H270.557V80.8809H274.883V87.4043C274.616 87.528 274.333 87.6387 274.033 87.7363C273.74 87.834 273.438 87.9154 273.125 87.9805C272.819 88.0456 272.513 88.0944 272.207 88.127C271.901 88.1595 271.605 88.1758 271.318 88.1758C270.446 88.1758 269.658 88.0391 268.955 87.7656C268.258 87.4922 267.663 87.0885 267.168 86.5547C266.68 86.0143 266.302 85.3438 266.035 84.543C265.775 83.7422 265.645 82.8145 265.645 81.7598C265.645 80.7116 265.791 79.7741 266.084 78.9473C266.377 78.1139 266.787 77.4108 267.314 76.8379C267.848 76.2585 268.486 75.819 269.229 75.5195C269.977 75.2135 270.801 75.0605 271.699 75.0605C272.272 75.0605 272.816 75.1126 273.33 75.2168C273.851 75.3145 274.349 75.474 274.824 75.6953V77.4238ZM285.82 77.4238C285.345 77.1699 284.857 76.9746 284.355 76.8379C283.854 76.6947 283.307 76.623 282.715 76.623C282.038 76.623 281.436 76.7435 280.908 76.9844C280.381 77.2253 279.935 77.5671 279.57 78.0098C279.212 78.446 278.936 78.9733 278.74 79.5918C278.551 80.2103 278.457 80.8939 278.457 81.6426C278.457 82.4238 278.535 83.1237 278.691 83.7422C278.848 84.3607 279.092 84.8848 279.424 85.3145C279.756 85.7441 280.179 86.0729 280.693 86.3008C281.214 86.5286 281.836 86.6426 282.559 86.6426C282.682 86.6426 282.816 86.6361 282.959 86.623C283.102 86.61 283.245 86.5938 283.389 86.5742C283.532 86.5482 283.669 86.5189 283.799 86.4863C283.936 86.4538 284.056 86.418 284.16 86.3789V82.3164H281.553V80.8809H285.879V87.4043C285.612 87.528 285.329 87.6387 285.029 87.7363C284.736 87.834 284.434 87.9154 284.121 87.9805C283.815 88.0456 283.509 88.0944 283.203 88.127C282.897 88.1595 282.601 88.1758 282.314 88.1758C281.442 88.1758 280.654 88.0391 279.951 87.7656C279.255 87.4922 278.659 87.0885 278.164 86.5547C277.676 86.0143 277.298 85.3438 277.031 84.543C276.771 83.7422 276.641 82.8145 276.641 81.7598C276.641 80.7116 276.787 79.7741 277.08 78.9473C277.373 78.1139 277.783 77.4108 278.311 76.8379C278.844 76.2585 279.482 75.819 280.225 75.5195C280.973 75.2135 281.797 75.0605 282.695 75.0605C283.268 75.0605 283.812 75.1126 284.326 75.2168C284.847 75.3145 285.345 75.474 285.82 75.6953V77.4238ZM296.816 77.4238C296.341 77.1699 295.853 76.9746 295.352 76.8379C294.85 76.6947 294.303 76.623 293.711 76.623C293.034 76.623 292.432 76.7435 291.904 76.9844C291.377 77.2253 290.931 77.5671 290.566 78.0098C290.208 78.446 289.932 78.9733 289.736 79.5918C289.548 80.2103 289.453 80.8939 289.453 81.6426C289.453 82.4238 289.531 83.1237 289.688 83.7422C289.844 84.3607 290.088 84.8848 290.42 85.3145C290.752 85.7441 291.175 86.0729 291.689 86.3008C292.21 86.5286 292.832 86.6426 293.555 86.6426C293.678 86.6426 293.812 86.6361 293.955 86.623C294.098 86.61 294.242 86.5938 294.385 86.5742C294.528 86.5482 294.665 86.5189 294.795 86.4863C294.932 86.4538 295.052 86.418 295.156 86.3789V82.3164H292.549V80.8809H296.875V87.4043C296.608 87.528 296.325 87.6387 296.025 87.7363C295.732 87.834 295.43 87.9154 295.117 87.9805C294.811 88.0456 294.505 88.0944 294.199 88.127C293.893 88.1595 293.597 88.1758 293.311 88.1758C292.438 88.1758 291.65 88.0391 290.947 87.7656C290.251 87.4922 289.655 87.0885 289.16 86.5547C288.672 86.0143 288.294 85.3438 288.027 84.543C287.767 83.7422 287.637 82.8145 287.637 81.7598C287.637 80.7116 287.783 79.7741 288.076 78.9473C288.369 78.1139 288.779 77.4108 289.307 76.8379C289.84 76.2585 290.479 75.819 291.221 75.5195C291.969 75.2135 292.793 75.0605 293.691 75.0605C294.264 75.0605 294.808 75.1126 295.322 75.2168C295.843 75.3145 296.341 75.474 296.816 75.6953V77.4238Z" fill="#C9D1D9"/>
<path d="M300.707 99.7071C301.098 99.3166 301.098 98.6834 300.707 98.2929L294.343 91.9289C293.953 91.5384 293.319 91.5384 292.929 91.9289C292.538 92.3195 292.538 92.9526 292.929 93.3431L298.586 99L292.929 104.657C292.538 105.047 292.538 105.681 292.929 106.071C293.319 106.462 293.953 106.462 294.343 106.071L300.707 99.7071ZM266 100H300V98H266V100Z" fill="#C4A8A8"/>
<path d="M248.824 94.4238C248.349 94.1699 247.861 93.9746 247.359 93.8379C246.858 93.6947 246.311 93.623 245.719 93.623C245.042 93.623 244.439 93.7435 243.912 93.9844C243.385 94.2253 242.939 94.5671 242.574 95.0098C242.216 95.446 241.939 95.9733 241.744 96.5918C241.555 97.2103 241.461 97.8939 241.461 98.6426C241.461 99.4238 241.539 100.124 241.695 100.742C241.852 101.361 242.096 101.885 242.428 102.314C242.76 102.744 243.183 103.073 243.697 103.301C244.218 103.529 244.84 103.643 245.562 103.643C245.686 103.643 245.82 103.636 245.963 103.623C246.106 103.61 246.249 103.594 246.393 103.574C246.536 103.548 246.673 103.519 246.803 103.486C246.939 103.454 247.06 103.418 247.164 103.379V99.3164H244.557V97.8809H248.883V104.404C248.616 104.528 248.333 104.639 248.033 104.736C247.74 104.834 247.438 104.915 247.125 104.98C246.819 105.046 246.513 105.094 246.207 105.127C245.901 105.16 245.605 105.176 245.318 105.176C244.446 105.176 243.658 105.039 242.955 104.766C242.258 104.492 241.663 104.089 241.168 103.555C240.68 103.014 240.302 102.344 240.035 101.543C239.775 100.742 239.645 99.8145 239.645 98.7598C239.645 97.7116 239.791 96.7741 240.084 95.9473C240.377 95.1139 240.787 94.4108 241.314 93.8379C241.848 93.2585 242.486 92.819 243.229 92.5195C243.977 92.2135 244.801 92.0605 245.699 92.0605C246.272 92.0605 246.816 92.1126 247.33 92.2168C247.851 92.3145 248.349 92.474 248.824 92.6953V94.4238ZM259.82 94.4238C259.345 94.1699 258.857 93.9746 258.355 93.8379C257.854 93.6947 257.307 93.623 256.715 93.623C256.038 93.623 255.436 93.7435 254.908 93.9844C254.381 94.2253 253.935 94.5671 253.57 95.0098C253.212 95.446 252.936 95.9733 252.74 96.5918C252.551 97.2103 252.457 97.8939 252.457 98.6426C252.457 99.4238 252.535 100.124 252.691 100.742C252.848 101.361 253.092 101.885 253.424 102.314C253.756 102.744 254.179 103.073 254.693 103.301C255.214 103.529 255.836 103.643 256.559 103.643C256.682 103.643 256.816 103.636 256.959 103.623C257.102 103.61 257.245 103.594 257.389 103.574C257.532 103.548 257.669 103.519 257.799 103.486C257.936 103.454 258.056 103.418 258.16 103.379V99.3164H255.553V97.8809H259.879V104.404C259.612 104.528 259.329 104.639 259.029 104.736C258.736 104.834 258.434 104.915 258.121 104.98C257.815 105.046 257.509 105.094 257.203 105.127C256.897 105.16 256.601 105.176 256.314 105.176C255.442 105.176 254.654 105.039 253.951 104.766C253.255 104.492 252.659 104.089 252.164 103.555C251.676 103.014 251.298 102.344 251.031 101.543C250.771 100.742 250.641 99.8145 250.641 98.7598C250.641 97.7116 250.787 96.7741 251.08 95.9473C251.373 95.1139 251.783 94.4108 252.311 93.8379C252.844 93.2585 253.482 92.819 254.225 92.5195C254.973 92.2135 255.797 92.0605 256.695 92.0605C257.268 92.0605 257.812 92.1126 258.326 92.2168C258.847 92.3145 259.345 92.474 259.82 92.6953V94.4238Z" fill="#C9D1D9"/>
<path d="M314.824 94.4238C314.349 94.1699 313.861 93.9746 313.359 93.8379C312.858 93.6947 312.311 93.623 311.719 93.623C311.042 93.623 310.439 93.7435 309.912 93.9844C309.385 94.2253 308.939 94.5671 308.574 95.0098C308.216 95.446 307.939 95.9733 307.744 96.5918C307.555 97.2103 307.461 97.8939 307.461 98.6426C307.461 99.4238 307.539 100.124 307.695 100.742C307.852 101.361 308.096 101.885 308.428 102.314C308.76 102.744 309.183 103.073 309.697 103.301C310.218 103.529 310.84 103.643 311.562 103.643C311.686 103.643 311.82 103.636 311.963 103.623C312.106 103.61 312.249 103.594 312.393 103.574C312.536 103.548 312.673 103.519 312.803 103.486C312.939 103.454 313.06 103.418 313.164 103.379V99.3164H310.557V97.8809H314.883V104.404C314.616 104.528 314.333 104.639 314.033 104.736C313.74 104.834 313.438 104.915 313.125 104.98C312.819 105.046 312.513 105.094 312.207 105.127C311.901 105.16 311.605 105.176 311.318 105.176C310.446 105.176 309.658 105.039 308.955 104.766C308.258 104.492 307.663 104.089 307.168 103.555C306.68 103.014 306.302 102.344 306.035 101.543C305.775 100.742 305.645 99.8145 305.645 98.7598C305.645 97.7116 305.791 96.7741 306.084 95.9473C306.377 95.1139 306.787 94.4108 307.314 93.8379C307.848 93.2585 308.486 92.819 309.229 92.5195C309.977 92.2135 310.801 92.0605 311.699 92.0605C312.272 92.0605 312.816 92.1126 313.33 92.2168C313.851 92.3145 314.349 92.474 314.824 92.6953V94.4238ZM325.82 94.4238C325.345 94.1699 324.857 93.9746 324.355 93.8379C323.854 93.6947 323.307 93.623 322.715 93.623C322.038 93.623 321.436 93.7435 320.908 93.9844C320.381 94.2253 319.935 94.5671 319.57 95.0098C319.212 95.446 318.936 95.9733 318.74 96.5918C318.551 97.2103 318.457 97.8939 318.457 98.6426C318.457 99.4238 318.535 100.124 318.691 100.742C318.848 101.361 319.092 101.885 319.424 102.314C319.756 102.744 320.179 103.073 320.693 103.301C321.214 103.529 321.836 103.643 322.559 103.643C322.682 103.643 322.816 103.636 322.959 103.623C323.102 103.61 323.245 103.594 323.389 103.574C323.532 103.548 323.669 103.519 323.799 103.486C323.936 103.454 324.056 103.418 324.16 103.379V99.3164H321.553V97.8809H325.879V104.404C325.612 104.528 325.329 104.639 325.029 104.736C324.736 104.834 324.434 104.915 324.121 104.98C323.815 105.046 323.509 105.094 323.203 105.127C322.897 105.16 322.601 105.176 322.314 105.176C321.442 105.176 320.654 105.039 319.951 104.766C319.255 104.492 318.659 104.089 318.164 103.555C317.676 103.014 317.298 102.344 317.031 101.543C316.771 100.742 316.641 99.8145 316.641 98.7598C316.641 97.7116 316.787 96.7741 317.08 95.9473C317.373 95.1139 317.783 94.4108 318.311 93.8379C318.844 93.2585 319.482 92.819 320.225 92.5195C320.973 92.2135 321.797 92.0605 322.695 92.0605C323.268 92.0605 323.812 92.1126 324.326 92.2168C324.847 92.3145 325.345 92.474 325.82 92.6953V94.4238Z" fill="#C9D1D9"/>
<circle cx="372" cy="99" r="14" stroke="#C4A8A8" stroke-width="2"/>
<circle cx="437" cy="99" r="14" stroke="#C4A8A8" stroke-width="2"/>
<path d="M395.824 77.4238C395.349 77.1699 394.861 76.9746 394.359 76.8379C393.858 76.6947 393.311 76.623 392.719 76.623C392.042 76.623 391.439 76.7435 390.912 76.9844C390.385 77.2253 389.939 77.5671 389.574 78.0098C389.216 78.446 388.939 78.9733 388.744 79.5918C388.555 80.2103 388.461 80.8939 388.461 81.6426C388.461 82.4238 388.539 83.1237 388.695 83.7422C388.852 84.3607 389.096 84.8848 389.428 85.3145C389.76 85.7441 390.183 86.0729 390.697 86.3008C391.218 86.5286 391.84 86.6426 392.562 86.6426C392.686 86.6426 392.82 86.6361 392.963 86.623C393.106 86.61 393.249 86.5938 393.393 86.5742C393.536 86.5482 393.673 86.5189 393.803 86.4863C393.939 86.4538 394.06 86.418 394.164 86.3789V82.3164H391.557V80.8809H395.883V87.4043C395.616 87.528 395.333 87.6387 395.033 87.7363C394.74 87.834 394.438 87.9154 394.125 87.9805C393.819 88.0456 393.513 88.0944 393.207 88.127C392.901 88.1595 392.605 88.1758 392.318 88.1758C391.446 88.1758 390.658 88.0391 389.955 87.7656C389.258 87.4922 388.663 87.0885 388.168 86.5547C387.68 86.0143 387.302 85.3438 387.035 84.543C386.775 83.7422 386.645 82.8145 386.645 81.7598C386.645 80.7116 386.791 79.7741 387.084 78.9473C387.377 78.1139 387.787 77.4108 388.314 76.8379C388.848 76.2585 389.486 75.819 390.229 75.5195C390.977 75.2135 391.801 75.0605 392.699 75.0605C393.272 75.0605 393.816 75.1126 394.33 75.2168C394.851 75.3145 395.349 75.474 395.824 75.6953V77.4238ZM407.152 76.7207H403.373V88H401.615V76.7207H397.836V75.2363H407.152V76.7207ZM418.148 76.7207H414.369V88H412.611V76.7207H408.832V75.2363H418.148V76.7207Z" fill="#C9D1D9"/>
<path d="M421.707 99.7071C422.098 99.3166 422.098 98.6834 421.707 98.2929L415.343 91.9289C414.953 91.5384 414.319 91.5384 413.929 91.9289C413.538 92.3195 413.538 92.9526 413.929 93.3431L419.586 99L413.929 104.657C413.538 105.047 413.538 105.681 413.929 106.071C414.319 106.462 414.953 106.462 415.343 106.071L421.707 99.7071ZM387 100H421V98H387V100Z" fill="#C4A8A8"/>
<path d="M369.824 94.4238C369.349 94.1699 368.861 93.9746 368.359 93.8379C367.858 93.6947 367.311 93.623 366.719 93.623C366.042 93.623 365.439 93.7435 364.912 93.9844C364.385 94.2253 363.939 94.5671 363.574 95.0098C363.216 95.446 362.939 95.9733 362.744 96.5918C362.555 97.2103 362.461 97.8939 362.461 98.6426C362.461 99.4238 362.539 100.124 362.695 100.742C362.852 101.361 363.096 101.885 363.428 102.314C363.76 102.744 364.183 103.073 364.697 103.301C365.218 103.529 365.84 103.643 366.562 103.643C366.686 103.643 366.82 103.636 366.963 103.623C367.106 103.61 367.249 103.594 367.393 103.574C367.536 103.548 367.673 103.519 367.803 103.486C367.939 103.454 368.06 103.418 368.164 103.379V99.3164H365.557V97.8809H369.883V104.404C369.616 104.528 369.333 104.639 369.033 104.736C368.74 104.834 368.438 104.915 368.125 104.98C367.819 105.046 367.513 105.094 367.207 105.127C366.901 105.16 366.605 105.176 366.318 105.176C365.446 105.176 364.658 105.039 363.955 104.766C363.258 104.492 362.663 104.089 362.168 103.555C361.68 103.014 361.302 102.344 361.035 101.543C360.775 100.742 360.645 99.8145 360.645 98.7598C360.645 97.7116 360.791 96.7741 361.084 95.9473C361.377 95.1139 361.787 94.4108 362.314 93.8379C362.848 93.2585 363.486 92.819 364.229 92.5195C364.977 92.2135 365.801 92.0605 366.699 92.0605C367.272 92.0605 367.816 92.1126 368.33 92.2168C368.851 92.3145 369.349 92.474 369.824 92.6953V94.4238ZM381.152 93.7207H377.373V105H375.615V93.7207H371.836V92.2363H381.152V93.7207Z" fill="#C9D1D9"/>
<path d="M436.156 93.7207H432.377V105H430.619V93.7207H426.84V92.2363H436.156V93.7207ZM447.152 93.7207H443.373V105H441.615V93.7207H437.836V92.2363H447.152V93.7207Z" fill="#C9D1D9"/>
<circle cx="493" cy="99" r="14" stroke="#C4A8A8" stroke-width="2"/>
<circle cx="558" cy="99" r="14" stroke="#C4A8A8" stroke-width="2"/>
<path d="M517.156 76.7207H513.377V88H511.619V76.7207H507.84V75.2363H517.156V76.7207ZM528.895 88H527L526.111 85.2168H520.799L519.9 88H518.094L522.332 75.2363H524.715L528.895 88ZM525.613 83.6641L523.455 76.8379L521.297 83.6641H525.613ZM539.891 88H537.996L537.107 85.2168H531.795L530.896 88H529.09L533.328 75.2363H535.711L539.891 88ZM536.609 83.6641L534.451 76.8379L532.293 83.6641H536.609Z" fill="#C9D1D9"/>
<path d="M542.707 99.7071C543.098 99.3166 543.098 98.6834 542.707 98.2929L536.343 91.9289C535.953 91.5384 535.319 91.5384 534.929 91.9289C534.538 92.3195 534.538 92.9526 534.929 93.3431L540.586 99L534.929 104.657C534.538 105.047 534.538 105.681 534.929 106.071C535.319 106.462 535.953 106.462 536.343 106.071L542.707 99.7071ZM508 100H542V98H508V100Z" fill="#C4A8A8"/>
<path d="M491.156 93.7207H487.377V105H485.619V93.7207H481.84V92.2363H491.156V93.7207ZM502.895 105H501L500.111 102.217H494.799L493.9 105H492.094L496.332 92.2363H498.715L502.895 105ZM499.613 100.664L497.455 93.8379L495.297 100.664H499.613Z" fill="#C9D1D9"/>
<path d="M557.898 105H556.004L555.115 102.217H549.803L548.904 105H547.098L551.336 92.2363H553.719L557.898 105ZM554.617 100.664L552.459 93.8379L550.301 100.664H554.617ZM568.895 105H567L566.111 102.217H560.799L559.9 105H558.094L562.332 92.2363H564.715L568.895 105ZM565.613 100.664L563.455 93.8379L561.297 100.664H565.613Z" fill="#C9D1D9"/>
<circle cx="607" cy="97" r="14" stroke="#C4A8A8" stroke-width="2"/>
<circle cx="672" cy="97" r="14" stroke="#C4A8A8" stroke-width="2"/>
<path d="M631.156 74.7207H627.377V86H625.619V74.7207H621.84V73.2363H631.156V74.7207ZM641.82 75.4238C641.345 75.1699 640.857 74.9746 640.355 74.8379C639.854 74.6947 639.307 74.623 638.715 74.623C638.038 74.623 637.436 74.7435 636.908 74.9844C636.381 75.2253 635.935 75.5671 635.57 76.0098C635.212 76.446 634.936 76.9733 634.74 77.5918C634.551 78.2103 634.457 78.8939 634.457 79.6426C634.457 80.4238 634.535 81.1237 634.691 81.7422C634.848 82.3607 635.092 82.8848 635.424 83.3145C635.756 83.7441 636.179 84.0729 636.693 84.3008C637.214 84.5286 637.836 84.6426 638.559 84.6426C638.682 84.6426 638.816 84.6361 638.959 84.623C639.102 84.61 639.245 84.5938 639.389 84.5742C639.532 84.5482 639.669 84.5189 639.799 84.4863C639.936 84.4538 640.056 84.418 640.16 84.3789V80.3164H637.553V78.8809H641.879V85.4043C641.612 85.528 641.329 85.6387 641.029 85.7363C640.736 85.834 640.434 85.9154 640.121 85.9805C639.815 86.0456 639.509 86.0944 639.203 86.127C638.897 86.1595 638.601 86.1758 638.314 86.1758C637.442 86.1758 636.654 86.0391 635.951 85.7656C635.255 85.4922 634.659 85.0885 634.164 84.5547C633.676 84.0143 633.298 83.3438 633.031 82.543C632.771 81.7422 632.641 80.8145 632.641 79.7598C632.641 78.7116 632.787 77.7741 633.08 76.9473C633.373 76.1139 633.783 75.4108 634.311 74.8379C634.844 74.2585 635.482 73.819 636.225 73.5195C636.973 73.2135 637.797 73.0605 638.695 73.0605C639.268 73.0605 639.812 73.1126 640.326 73.2168C640.847 73.3145 641.345 73.474 641.82 73.6953V75.4238ZM652.709 85.5215C651.687 85.9447 650.616 86.1562 649.496 86.1562C647.693 86.1562 646.306 85.6191 645.336 84.5449C644.372 83.4642 643.891 81.8691 643.891 79.7598C643.891 78.7376 644.024 77.8132 644.291 76.9863C644.558 76.1595 644.939 75.4596 645.434 74.8867C645.928 74.3073 646.527 73.8613 647.23 73.5488C647.934 73.2363 648.721 73.0801 649.594 73.0801C650.186 73.0801 650.736 73.1322 651.244 73.2363C651.752 73.334 652.24 73.487 652.709 73.6953V75.4043C652.247 75.1504 651.768 74.9583 651.273 74.8281C650.779 74.6914 650.238 74.623 649.652 74.623C649.053 74.623 648.51 74.737 648.021 74.9648C647.54 75.1862 647.13 75.5117 646.791 75.9414C646.452 76.3646 646.192 76.8854 646.01 77.5039C645.827 78.1159 645.736 78.8158 645.736 79.6035C645.736 81.2572 646.072 82.5039 646.742 83.3438C647.413 84.1836 648.396 84.6035 649.691 84.6035C650.238 84.6035 650.762 84.5417 651.264 84.418C651.765 84.2878 652.247 84.1087 652.709 83.8809V85.5215Z" fill="#C9D1D9"/>
<path d="M656.707 97.7071C657.098 97.3166 657.098 96.6834 656.707 96.2929L650.343 89.9289C649.953 89.5384 649.319 89.5384 648.929 89.9289C648.538 90.3195 648.538 90.9526 648.929 91.3431L654.586 97L648.929 102.657C648.538 103.047 648.538 103.681 648.929 104.071C649.319 104.462 649.953 104.462 650.343 104.071L656.707 97.7071ZM622 98H656V96H622V98Z" fill="#C4A8A8"/>
<path d="M605.156 91.7207H601.377V103H599.619V91.7207H595.84V90.2363H605.156V91.7207ZM615.82 92.4238C615.345 92.1699 614.857 91.9746 614.355 91.8379C613.854 91.6947 613.307 91.623 612.715 91.623C612.038 91.623 611.436 91.7435 610.908 91.9844C610.381 92.2253 609.935 92.5671 609.57 93.0098C609.212 93.446 608.936 93.9733 608.74 94.5918C608.551 95.2103 608.457 95.8939 608.457 96.6426C608.457 97.4238 608.535 98.1237 608.691 98.7422C608.848 99.3607 609.092 99.8848 609.424 100.314C609.756 100.744 610.179 101.073 610.693 101.301C611.214 101.529 611.836 101.643 612.559 101.643C612.682 101.643 612.816 101.636 612.959 101.623C613.102 101.61 613.245 101.594 613.389 101.574C613.532 101.548 613.669 101.519 613.799 101.486C613.936 101.454 614.056 101.418 614.16 101.379V97.3164H611.553V95.8809H615.879V102.404C615.612 102.528 615.329 102.639 615.029 102.736C614.736 102.834 614.434 102.915 614.121 102.98C613.815 103.046 613.509 103.094 613.203 103.127C612.897 103.16 612.601 103.176 612.314 103.176C611.442 103.176 610.654 103.039 609.951 102.766C609.255 102.492 608.659 102.089 608.164 101.555C607.676 101.014 607.298 100.344 607.031 99.543C606.771 98.7422 606.641 97.8145 606.641 96.7598C606.641 95.7116 606.787 94.7741 607.08 93.9473C607.373 93.1139 607.783 92.4108 608.311 91.8379C608.844 91.2585 609.482 90.819 610.225 90.5195C610.973 90.2135 611.797 90.0605 612.695 90.0605C613.268 90.0605 613.812 90.1126 614.326 90.2168C614.847 90.3145 615.345 90.474 615.82 90.6953V92.4238Z" fill="#C9D1D9"/>
<path d="M670.824 92.4238C670.349 92.1699 669.861 91.9746 669.359 91.8379C668.858 91.6947 668.311 91.623 667.719 91.623C667.042 91.623 666.439 91.7435 665.912 91.9844C665.385 92.2253 664.939 92.5671 664.574 93.0098C664.216 93.446 663.939 93.9733 663.744 94.5918C663.555 95.2103 663.461 95.8939 663.461 96.6426C663.461 97.4238 663.539 98.1237 663.695 98.7422C663.852 99.3607 664.096 99.8848 664.428 100.314C664.76 100.744 665.183 101.073 665.697 101.301C666.218 101.529 666.84 101.643 667.562 101.643C667.686 101.643 667.82 101.636 667.963 101.623C668.106 101.61 668.249 101.594 668.393 101.574C668.536 101.548 668.673 101.519 668.803 101.486C668.939 101.454 669.06 101.418 669.164 101.379V97.3164H666.557V95.8809H670.883V102.404C670.616 102.528 670.333 102.639 670.033 102.736C669.74 102.834 669.438 102.915 669.125 102.98C668.819 103.046 668.513 103.094 668.207 103.127C667.901 103.16 667.605 103.176 667.318 103.176C666.446 103.176 665.658 103.039 664.955 102.766C664.258 102.492 663.663 102.089 663.168 101.555C662.68 101.014 662.302 100.344 662.035 99.543C661.775 98.7422 661.645 97.8145 661.645 96.7598C661.645 95.7116 661.791 94.7741 662.084 93.9473C662.377 93.1139 662.787 92.4108 663.314 91.8379C663.848 91.2585 664.486 90.819 665.229 90.5195C665.977 90.2135 666.801 90.0605 667.699 90.0605C668.272 90.0605 668.816 90.1126 669.33 90.2168C669.851 90.3145 670.349 90.474 670.824 90.6953V92.4238ZM681.713 102.521C680.691 102.945 679.62 103.156 678.5 103.156C676.697 103.156 675.31 102.619 674.34 101.545C673.376 100.464 672.895 98.8691 672.895 96.7598C672.895 95.7376 673.028 94.8132 673.295 93.9863C673.562 93.1595 673.943 92.4596 674.438 91.8867C674.932 91.3073 675.531 90.8613 676.234 90.5488C676.938 90.2363 677.725 90.0801 678.598 90.0801C679.19 90.0801 679.74 90.1322 680.248 90.2363C680.756 90.334 681.244 90.487 681.713 90.6953V92.4043C681.251 92.1504 680.772 91.9583 680.277 91.8281C679.783 91.6914 679.242 91.623 678.656 91.623C678.057 91.623 677.514 91.737 677.025 91.9648C676.544 92.1862 676.133 92.5117 675.795 92.9414C675.456 93.3646 675.196 93.8854 675.014 94.5039C674.831 95.1159 674.74 95.8158 674.74 96.6035C674.74 98.2572 675.076 99.5039 675.746 100.344C676.417 101.184 677.4 101.604 678.695 101.604C679.242 101.604 679.766 101.542 680.268 101.418C680.769 101.288 681.251 101.109 681.713 100.881V102.521Z" fill="#C9D1D9"/>
<circle cx="726" cy="97" r="14" stroke="#C4A8A8" stroke-width="2"/>
<circle cx="791" cy="97" r="14" stroke="#C4A8A8" stroke-width="2"/>
<path d="M750.156 74.7207H746.377V86H744.619V74.7207H740.84V73.2363H750.156V74.7207ZM760.82 75.4238C760.345 75.1699 759.857 74.9746 759.355 74.8379C758.854 74.6947 758.307 74.623 757.715 74.623C757.038 74.623 756.436 74.7435 755.908 74.9844C755.381 75.2253 754.935 75.5671 754.57 76.0098C754.212 76.446 753.936 76.9733 753.74 77.5918C753.551 78.2103 753.457 78.8939 753.457 79.6426C753.457 80.4238 753.535 81.1237 753.691 81.7422C753.848 82.3607 754.092 82.8848 754.424 83.3145C754.756 83.7441 755.179 84.0729 755.693 84.3008C756.214 84.5286 756.836 84.6426 757.559 84.6426C757.682 84.6426 757.816 84.6361 757.959 84.623C758.102 84.61 758.245 84.5938 758.389 84.5742C758.532 84.5482 758.669 84.5189 758.799 84.4863C758.936 84.4538 759.056 84.418 759.16 84.3789V80.3164H756.553V78.8809H760.879V85.4043C760.612 85.528 760.329 85.6387 760.029 85.7363C759.736 85.834 759.434 85.9154 759.121 85.9805C758.815 86.0456 758.509 86.0944 758.203 86.127C757.897 86.1595 757.601 86.1758 757.314 86.1758C756.442 86.1758 755.654 86.0391 754.951 85.7656C754.255 85.4922 753.659 85.0885 753.164 84.5547C752.676 84.0143 752.298 83.3438 752.031 82.543C751.771 81.7422 751.641 80.8145 751.641 79.7598C751.641 78.7116 751.787 77.7741 752.08 76.9473C752.373 76.1139 752.783 75.4108 753.311 74.8379C753.844 74.2585 754.482 73.819 755.225 73.5195C755.973 73.2135 756.797 73.0605 757.695 73.0605C758.268 73.0605 758.812 73.1126 759.326 73.2168C759.847 73.3145 760.345 73.474 760.82 73.6953V75.4238ZM771.816 75.4238C771.341 75.1699 770.853 74.9746 770.352 74.8379C769.85 74.6947 769.303 74.623 768.711 74.623C768.034 74.623 767.432 74.7435 766.904 74.9844C766.377 75.2253 765.931 75.5671 765.566 76.0098C765.208 76.446 764.932 76.9733 764.736 77.5918C764.548 78.2103 764.453 78.8939 764.453 79.6426C764.453 80.4238 764.531 81.1237 764.688 81.7422C764.844 82.3607 765.088 82.8848 765.42 83.3145C765.752 83.7441 766.175 84.0729 766.689 84.3008C767.21 84.5286 767.832 84.6426 768.555 84.6426C768.678 84.6426 768.812 84.6361 768.955 84.623C769.098 84.61 769.242 84.5938 769.385 84.5742C769.528 84.5482 769.665 84.5189 769.795 84.4863C769.932 84.4538 770.052 84.418 770.156 84.3789V80.3164H767.549V78.8809H771.875V85.4043C771.608 85.528 771.325 85.6387 771.025 85.7363C770.732 85.834 770.43 85.9154 770.117 85.9805C769.811 86.0456 769.505 86.0944 769.199 86.127C768.893 86.1595 768.597 86.1758 768.311 86.1758C767.438 86.1758 766.65 86.0391 765.947 85.7656C765.251 85.4922 764.655 85.0885 764.16 84.5547C763.672 84.0143 763.294 83.3438 763.027 82.543C762.767 81.7422 762.637 80.8145 762.637 79.7598C762.637 78.7116 762.783 77.7741 763.076 76.9473C763.369 76.1139 763.779 75.4108 764.307 74.8379C764.84 74.2585 765.479 73.819 766.221 73.5195C766.969 73.2135 767.793 73.0605 768.691 73.0605C769.264 73.0605 769.808 73.1126 770.322 73.2168C770.843 73.3145 771.341 73.474 771.816 73.6953V75.4238Z" fill="#C9D1D9"/>
<path d="M775.707 97.7071C776.098 97.3166 776.098 96.6834 775.707 96.2929L769.343 89.9289C768.953 89.5384 768.319 89.5384 767.929 89.9289C767.538 90.3195 767.538 90.9526 767.929 91.3431L773.586 97L767.929 102.657C767.538 103.047 767.538 103.681 767.929 104.071C768.319 104.462 768.953 104.462 769.343 104.071L775.707 97.7071ZM741 98H775V96H741V98Z" fill="#C4A8A8"/>
<path d="M724.156 91.7207H720.377V103H718.619V91.7207H714.84V90.2363H724.156V91.7207ZM734.82 92.4238C734.345 92.1699 733.857 91.9746 733.355 91.8379C732.854 91.6947 732.307 91.623 731.715 91.623C731.038 91.623 730.436 91.7435 729.908 91.9844C729.381 92.2253 728.935 92.5671 728.57 93.0098C728.212 93.446 727.936 93.9733 727.74 94.5918C727.551 95.2103 727.457 95.8939 727.457 96.6426C727.457 97.4238 727.535 98.1237 727.691 98.7422C727.848 99.3607 728.092 99.8848 728.424 100.314C728.756 100.744 729.179 101.073 729.693 101.301C730.214 101.529 730.836 101.643 731.559 101.643C731.682 101.643 731.816 101.636 731.959 101.623C732.102 101.61 732.245 101.594 732.389 101.574C732.532 101.548 732.669 101.519 732.799 101.486C732.936 101.454 733.056 101.418 733.16 101.379V97.3164H730.553V95.8809H734.879V102.404C734.612 102.528 734.329 102.639 734.029 102.736C733.736 102.834 733.434 102.915 733.121 102.98C732.815 103.046 732.509 103.094 732.203 103.127C731.897 103.16 731.601 103.176 731.314 103.176C730.442 103.176 729.654 103.039 728.951 102.766C728.255 102.492 727.659 102.089 727.164 101.555C726.676 101.014 726.298 100.344 726.031 99.543C725.771 98.7422 725.641 97.8145 725.641 96.7598C725.641 95.7116 725.787 94.7741 726.08 93.9473C726.373 93.1139 726.783 92.4108 727.311 91.8379C727.844 91.2585 728.482 90.819 729.225 90.5195C729.973 90.2135 730.797 90.0605 731.695 90.0605C732.268 90.0605 732.812 90.1126 733.326 90.2168C733.847 90.3145 734.345 90.474 734.82 90.6953V92.4238Z" fill="#C9D1D9"/>
<path d="M789.824 92.4238C789.349 92.1699 788.861 91.9746 788.359 91.8379C787.858 91.6947 787.311 91.623 786.719 91.623C786.042 91.623 785.439 91.7435 784.912 91.9844C784.385 92.2253 783.939 92.5671 783.574 93.0098C783.216 93.446 782.939 93.9733 782.744 94.5918C782.555 95.2103 782.461 95.8939 782.461 96.6426C782.461 97.4238 782.539 98.1237 782.695 98.7422C782.852 99.3607 783.096 99.8848 783.428 100.314C783.76 100.744 784.183 101.073 784.697 101.301C785.218 101.529 785.84 101.643 786.562 101.643C786.686 101.643 786.82 101.636 786.963 101.623C787.106 101.61 787.249 101.594 787.393 101.574C787.536 101.548 787.673 101.519 787.803 101.486C787.939 101.454 788.06 101.418 788.164 101.379V97.3164H785.557V95.8809H789.883V102.404C789.616 102.528 789.333 102.639 789.033 102.736C788.74 102.834 788.438 102.915 788.125 102.98C787.819 103.046 787.513 103.094 787.207 103.127C786.901 103.16 786.605 103.176 786.318 103.176C785.446 103.176 784.658 103.039 783.955 102.766C783.258 102.492 782.663 102.089 782.168 101.555C781.68 101.014 781.302 100.344 781.035 99.543C780.775 98.7422 780.645 97.8145 780.645 96.7598C780.645 95.7116 780.791 94.7741 781.084 93.9473C781.377 93.1139 781.787 92.4108 782.314 91.8379C782.848 91.2585 783.486 90.819 784.229 90.5195C784.977 90.2135 785.801 90.0605 786.699 90.0605C787.272 90.0605 787.816 90.1126 788.33 90.2168C788.851 90.3145 789.349 90.474 789.824 90.6953V92.4238ZM800.82 92.4238C800.345 92.1699 799.857 91.9746 799.355 91.8379C798.854 91.6947 798.307 91.623 797.715 91.623C797.038 91.623 796.436 91.7435 795.908 91.9844C795.381 92.2253 794.935 92.5671 794.57 93.0098C794.212 93.446 793.936 93.9733 793.74 94.5918C793.551 95.2103 793.457 95.8939 793.457 96.6426C793.457 97.4238 793.535 98.1237 793.691 98.7422C793.848 99.3607 794.092 99.8848 794.424 100.314C794.756 100.744 795.179 101.073 795.693 101.301C796.214 101.529 796.836 101.643 797.559 101.643C797.682 101.643 797.816 101.636 797.959 101.623C798.102 101.61 798.245 101.594 798.389 101.574C798.532 101.548 798.669 101.519 798.799 101.486C798.936 101.454 799.056 101.418 799.16 101.379V97.3164H796.553V95.8809H800.879V102.404C800.612 102.528 800.329 102.639 800.029 102.736C799.736 102.834 799.434 102.915 799.121 102.98C798.815 103.046 798.509 103.094 798.203 103.127C797.897 103.16 797.601 103.176 797.314 103.176C796.442 103.176 795.654 103.039 794.951 102.766C794.255 102.492 793.659 102.089 793.164 101.555C792.676 101.014 792.298 100.344 792.031 99.543C791.771 98.7422 791.641 97.8145 791.641 96.7598C791.641 95.7116 791.787 94.7741 792.08 93.9473C792.373 93.1139 792.783 92.4108 793.311 91.8379C793.844 91.2585 794.482 90.819 795.225 90.5195C795.973 90.2135 796.797 90.0605 797.695 90.0605C798.268 90.0605 798.812 90.1126 799.326 90.2168C799.847 90.3145 800.345 90.474 800.82 90.6953V92.4238Z" fill="#C9D1D9"/>
</svg>
