<svg width="782" height="310" viewBox="0 0 782 310" fill="none" xmlns="http://www.w3.org/2000/svg">
<circle cx="346" cy="83" r="14" stroke="#C4A8A8" stroke-width="2"/>
<circle cx="411" cy="83" r="14" stroke="#C4A8A8" stroke-width="2"/>
<path d="M369.717 71.5215C368.695 71.9447 367.624 72.1562 366.504 72.1562C364.701 72.1562 363.314 71.6191 362.344 70.5449C361.38 69.4642 360.898 67.8691 360.898 65.7598C360.898 64.7376 361.032 63.8132 361.299 62.9863C361.566 62.1595 361.947 61.4596 362.441 60.8867C362.936 60.3073 363.535 59.8613 364.238 59.5488C364.941 59.2363 365.729 59.0801 366.602 59.0801C367.194 59.0801 367.744 59.1322 368.252 59.2363C368.76 59.334 369.248 59.487 369.717 59.6953V61.4043C369.255 61.1504 368.776 60.9583 368.281 60.8281C367.786 60.6914 367.246 60.623 366.66 60.623C366.061 60.623 365.518 60.737 365.029 60.9648C364.548 61.1862 364.137 61.5117 363.799 61.9414C363.46 62.3646 363.2 62.8854 363.018 63.5039C362.835 64.1159 362.744 64.8158 362.744 65.6035C362.744 67.2572 363.079 68.5039 363.75 69.3438C364.421 70.1836 365.404 70.6035 366.699 70.6035C367.246 70.6035 367.77 70.5417 368.271 70.418C368.773 70.2878 369.255 70.1087 369.717 69.8809V71.5215ZM380.713 71.5215C379.691 71.9447 378.62 72.1562 377.5 72.1562C375.697 72.1562 374.31 71.6191 373.34 70.5449C372.376 69.4642 371.895 67.8691 371.895 65.7598C371.895 64.7376 372.028 63.8132 372.295 62.9863C372.562 62.1595 372.943 61.4596 373.438 60.8867C373.932 60.3073 374.531 59.8613 375.234 59.5488C375.938 59.2363 376.725 59.0801 377.598 59.0801C378.19 59.0801 378.74 59.1322 379.248 59.2363C379.756 59.334 380.244 59.487 380.713 59.6953V61.4043C380.251 61.1504 379.772 60.9583 379.277 60.8281C378.783 60.6914 378.242 60.623 377.656 60.623C377.057 60.623 376.514 60.737 376.025 60.9648C375.544 61.1862 375.133 61.5117 374.795 61.9414C374.456 62.3646 374.196 62.8854 374.014 63.5039C373.831 64.1159 373.74 64.8158 373.74 65.6035C373.74 67.2572 374.076 68.5039 374.746 69.3438C375.417 70.1836 376.4 70.6035 377.695 70.6035C378.242 70.6035 378.766 70.5417 379.268 70.418C379.769 70.2878 380.251 70.1087 380.713 69.8809V71.5215ZM392.891 72H390.996L390.107 69.2168H384.795L383.896 72H382.09L386.328 59.2363H388.711L392.891 72ZM389.609 67.6641L387.451 60.8379L385.293 67.6641H389.609Z" fill="#C9D1D9"/>
<path d="M395.707 83.7071C396.098 83.3166 396.098 82.6834 395.707 82.2929L389.343 75.9289C388.953 75.5384 388.319 75.5384 387.929 75.9289C387.538 76.3195 387.538 76.9526 387.929 77.3431L393.586 83L387.929 88.6569C387.538 89.0474 387.538 89.6805 387.929 90.0711C388.319 90.4616 388.953 90.4616 389.343 90.0711L395.707 83.7071ZM361 84H395V82H361V84Z" fill="#C4A8A8"/>
<path d="M343.717 88.5215C342.695 88.9447 341.624 89.1562 340.504 89.1562C338.701 89.1562 337.314 88.6191 336.344 87.5449C335.38 86.4642 334.898 84.8691 334.898 82.7598C334.898 81.7376 335.032 80.8132 335.299 79.9863C335.566 79.1595 335.947 78.4596 336.441 77.8867C336.936 77.3073 337.535 76.8613 338.238 76.5488C338.941 76.2363 339.729 76.0801 340.602 76.0801C341.194 76.0801 341.744 76.1322 342.252 76.2363C342.76 76.334 343.248 76.487 343.717 76.6953V78.4043C343.255 78.1504 342.776 77.9583 342.281 77.8281C341.786 77.6914 341.246 77.623 340.66 77.623C340.061 77.623 339.518 77.737 339.029 77.9648C338.548 78.1862 338.137 78.5117 337.799 78.9414C337.46 79.3646 337.2 79.8854 337.018 80.5039C336.835 81.1159 336.744 81.8158 336.744 82.6035C336.744 84.2572 337.079 85.5039 337.75 86.3438C338.421 87.1836 339.404 87.6035 340.699 87.6035C341.246 87.6035 341.77 87.5417 342.271 87.418C342.773 87.2878 343.255 87.1087 343.717 86.8809V88.5215ZM354.713 88.5215C353.691 88.9447 352.62 89.1562 351.5 89.1562C349.697 89.1562 348.31 88.6191 347.34 87.5449C346.376 86.4642 345.895 84.8691 345.895 82.7598C345.895 81.7376 346.028 80.8132 346.295 79.9863C346.562 79.1595 346.943 78.4596 347.438 77.8867C347.932 77.3073 348.531 76.8613 349.234 76.5488C349.938 76.2363 350.725 76.0801 351.598 76.0801C352.19 76.0801 352.74 76.1322 353.248 76.2363C353.756 76.334 354.244 76.487 354.713 76.6953V78.4043C354.251 78.1504 353.772 77.9583 353.277 77.8281C352.783 77.6914 352.242 77.623 351.656 77.623C351.057 77.623 350.514 77.737 350.025 77.9648C349.544 78.1862 349.133 78.5117 348.795 78.9414C348.456 79.3646 348.196 79.8854 348.014 80.5039C347.831 81.1159 347.74 81.8158 347.74 82.6035C347.74 84.2572 348.076 85.5039 348.746 86.3438C349.417 87.1836 350.4 87.6035 351.695 87.6035C352.242 87.6035 352.766 87.5417 353.268 87.418C353.769 87.2878 354.251 87.1087 354.713 86.8809V88.5215Z" fill="#C9D1D9"/>
<path d="M409.717 88.5215C408.695 88.9447 407.624 89.1562 406.504 89.1562C404.701 89.1562 403.314 88.6191 402.344 87.5449C401.38 86.4642 400.898 84.8691 400.898 82.7598C400.898 81.7376 401.032 80.8132 401.299 79.9863C401.566 79.1595 401.947 78.4596 402.441 77.8867C402.936 77.3073 403.535 76.8613 404.238 76.5488C404.941 76.2363 405.729 76.0801 406.602 76.0801C407.194 76.0801 407.744 76.1322 408.252 76.2363C408.76 76.334 409.248 76.487 409.717 76.6953V78.4043C409.255 78.1504 408.776 77.9583 408.281 77.8281C407.786 77.6914 407.246 77.623 406.66 77.623C406.061 77.623 405.518 77.737 405.029 77.9648C404.548 78.1862 404.137 78.5117 403.799 78.9414C403.46 79.3646 403.2 79.8854 403.018 80.5039C402.835 81.1159 402.744 81.8158 402.744 82.6035C402.744 84.2572 403.079 85.5039 403.75 86.3438C404.421 87.1836 405.404 87.6035 406.699 87.6035C407.246 87.6035 407.77 87.5417 408.271 87.418C408.773 87.2878 409.255 87.1087 409.717 86.8809V88.5215ZM421.895 89H420L419.111 86.2168H413.799L412.9 89H411.094L415.332 76.2363H417.715L421.895 89ZM418.613 84.6641L416.455 77.8379L414.297 84.6641H418.613Z" fill="#C9D1D9"/>
<circle cx="466" cy="85" r="14" stroke="#C4A8A8" stroke-width="2"/>
<circle cx="531" cy="85" r="14" stroke="#C4A8A8" stroke-width="2"/>
<path d="M489.824 63.4238C489.349 63.1699 488.861 62.9746 488.359 62.8379C487.858 62.6947 487.311 62.623 486.719 62.623C486.042 62.623 485.439 62.7435 484.912 62.9844C484.385 63.2253 483.939 63.5671 483.574 64.0098C483.216 64.446 482.939 64.9733 482.744 65.5918C482.555 66.2103 482.461 66.8939 482.461 67.6426C482.461 68.4238 482.539 69.1237 482.695 69.7422C482.852 70.3607 483.096 70.8848 483.428 71.3145C483.76 71.7441 484.183 72.0729 484.697 72.3008C485.218 72.5286 485.84 72.6426 486.562 72.6426C486.686 72.6426 486.82 72.6361 486.963 72.623C487.106 72.61 487.249 72.5938 487.393 72.5742C487.536 72.5482 487.673 72.5189 487.803 72.4863C487.939 72.4538 488.06 72.418 488.164 72.3789V68.3164H485.557V66.8809H489.883V73.4043C489.616 73.528 489.333 73.6387 489.033 73.7363C488.74 73.834 488.438 73.9154 488.125 73.9805C487.819 74.0456 487.513 74.0944 487.207 74.127C486.901 74.1595 486.605 74.1758 486.318 74.1758C485.446 74.1758 484.658 74.0391 483.955 73.7656C483.258 73.4922 482.663 73.0885 482.168 72.5547C481.68 72.0143 481.302 71.3438 481.035 70.543C480.775 69.7422 480.645 68.8145 480.645 67.7598C480.645 66.7116 480.791 65.7741 481.084 64.9473C481.377 64.1139 481.787 63.4108 482.314 62.8379C482.848 62.2585 483.486 61.819 484.229 61.5195C484.977 61.2135 485.801 61.0605 486.699 61.0605C487.272 61.0605 487.816 61.1126 488.33 61.2168C488.851 61.3145 489.349 61.474 489.824 61.6953V63.4238ZM500.713 73.5215C499.691 73.9447 498.62 74.1562 497.5 74.1562C495.697 74.1562 494.31 73.6191 493.34 72.5449C492.376 71.4642 491.895 69.8691 491.895 67.7598C491.895 66.7376 492.028 65.8132 492.295 64.9863C492.562 64.1595 492.943 63.4596 493.438 62.8867C493.932 62.3073 494.531 61.8613 495.234 61.5488C495.938 61.2363 496.725 61.0801 497.598 61.0801C498.19 61.0801 498.74 61.1322 499.248 61.2363C499.756 61.334 500.244 61.487 500.713 61.6953V63.4043C500.251 63.1504 499.772 62.9583 499.277 62.8281C498.783 62.6914 498.242 62.623 497.656 62.623C497.057 62.623 496.514 62.737 496.025 62.9648C495.544 63.1862 495.133 63.5117 494.795 63.9414C494.456 64.3646 494.196 64.8854 494.014 65.5039C493.831 66.1159 493.74 66.8158 493.74 67.6035C493.74 69.2572 494.076 70.5039 494.746 71.3438C495.417 72.1836 496.4 72.6035 497.695 72.6035C498.242 72.6035 498.766 72.5417 499.268 72.418C499.769 72.2878 500.251 72.1087 500.713 71.8809V73.5215ZM511.709 73.5215C510.687 73.9447 509.616 74.1562 508.496 74.1562C506.693 74.1562 505.306 73.6191 504.336 72.5449C503.372 71.4642 502.891 69.8691 502.891 67.7598C502.891 66.7376 503.024 65.8132 503.291 64.9863C503.558 64.1595 503.939 63.4596 504.434 62.8867C504.928 62.3073 505.527 61.8613 506.23 61.5488C506.934 61.2363 507.721 61.0801 508.594 61.0801C509.186 61.0801 509.736 61.1322 510.244 61.2363C510.752 61.334 511.24 61.487 511.709 61.6953V63.4043C511.247 63.1504 510.768 62.9583 510.273 62.8281C509.779 62.6914 509.238 62.623 508.652 62.623C508.053 62.623 507.51 62.737 507.021 62.9648C506.54 63.1862 506.13 63.5117 505.791 63.9414C505.452 64.3646 505.192 64.8854 505.01 65.5039C504.827 66.1159 504.736 66.8158 504.736 67.6035C504.736 69.2572 505.072 70.5039 505.742 71.3438C506.413 72.1836 507.396 72.6035 508.691 72.6035C509.238 72.6035 509.762 72.5417 510.264 72.418C510.765 72.2878 511.247 72.1087 511.709 71.8809V73.5215Z" fill="#C9D1D9"/>
<path d="M515.707 85.7071C516.098 85.3166 516.098 84.6834 515.707 84.2929L509.343 77.9289C508.953 77.5384 508.319 77.5384 507.929 77.9289C507.538 78.3195 507.538 78.9526 507.929 79.3431L513.586 85L507.929 90.6569C507.538 91.0474 507.538 91.6805 507.929 92.0711C508.319 92.4616 508.953 92.4616 509.343 92.0711L515.707 85.7071ZM481 86H515V84H481V86Z" fill="#C4A8A8"/>
<path d="M463.824 80.4238C463.349 80.1699 462.861 79.9746 462.359 79.8379C461.858 79.6947 461.311 79.623 460.719 79.623C460.042 79.623 459.439 79.7435 458.912 79.9844C458.385 80.2253 457.939 80.5671 457.574 81.0098C457.216 81.446 456.939 81.9733 456.744 82.5918C456.555 83.2103 456.461 83.8939 456.461 84.6426C456.461 85.4238 456.539 86.1237 456.695 86.7422C456.852 87.3607 457.096 87.8848 457.428 88.3145C457.76 88.7441 458.183 89.0729 458.697 89.3008C459.218 89.5286 459.84 89.6426 460.562 89.6426C460.686 89.6426 460.82 89.6361 460.963 89.623C461.106 89.61 461.249 89.5938 461.393 89.5742C461.536 89.5482 461.673 89.5189 461.803 89.4863C461.939 89.4538 462.06 89.418 462.164 89.3789V85.3164H459.557V83.8809H463.883V90.4043C463.616 90.528 463.333 90.6387 463.033 90.7363C462.74 90.834 462.438 90.9154 462.125 90.9805C461.819 91.0456 461.513 91.0944 461.207 91.127C460.901 91.1595 460.605 91.1758 460.318 91.1758C459.446 91.1758 458.658 91.0391 457.955 90.7656C457.258 90.4922 456.663 90.0885 456.168 89.5547C455.68 89.0143 455.302 88.3438 455.035 87.543C454.775 86.7422 454.645 85.8145 454.645 84.7598C454.645 83.7116 454.791 82.7741 455.084 81.9473C455.377 81.1139 455.787 80.4108 456.314 79.8379C456.848 79.2585 457.486 78.819 458.229 78.5195C458.977 78.2135 459.801 78.0605 460.699 78.0605C461.272 78.0605 461.816 78.1126 462.33 78.2168C462.851 78.3145 463.349 78.474 463.824 78.6953V80.4238ZM474.713 90.5215C473.691 90.9447 472.62 91.1562 471.5 91.1562C469.697 91.1562 468.31 90.6191 467.34 89.5449C466.376 88.4642 465.895 86.8691 465.895 84.7598C465.895 83.7376 466.028 82.8132 466.295 81.9863C466.562 81.1595 466.943 80.4596 467.438 79.8867C467.932 79.3073 468.531 78.8613 469.234 78.5488C469.938 78.2363 470.725 78.0801 471.598 78.0801C472.19 78.0801 472.74 78.1322 473.248 78.2363C473.756 78.334 474.244 78.487 474.713 78.6953V80.4043C474.251 80.1504 473.772 79.9583 473.277 79.8281C472.783 79.6914 472.242 79.623 471.656 79.623C471.057 79.623 470.514 79.737 470.025 79.9648C469.544 80.1862 469.133 80.5117 468.795 80.9414C468.456 81.3646 468.196 81.8854 468.014 82.5039C467.831 83.1159 467.74 83.8158 467.74 84.6035C467.74 86.2572 468.076 87.5039 468.746 88.3438C469.417 89.1836 470.4 89.6035 471.695 89.6035C472.242 89.6035 472.766 89.5417 473.268 89.418C473.769 89.2878 474.251 89.1087 474.713 88.8809V90.5215Z" fill="#C9D1D9"/>
<path d="M529.717 90.5215C528.695 90.9447 527.624 91.1562 526.504 91.1562C524.701 91.1562 523.314 90.6191 522.344 89.5449C521.38 88.4642 520.898 86.8691 520.898 84.7598C520.898 83.7376 521.032 82.8132 521.299 81.9863C521.566 81.1595 521.947 80.4596 522.441 79.8867C522.936 79.3073 523.535 78.8613 524.238 78.5488C524.941 78.2363 525.729 78.0801 526.602 78.0801C527.194 78.0801 527.744 78.1322 528.252 78.2363C528.76 78.334 529.248 78.487 529.717 78.6953V80.4043C529.255 80.1504 528.776 79.9583 528.281 79.8281C527.786 79.6914 527.246 79.623 526.66 79.623C526.061 79.623 525.518 79.737 525.029 79.9648C524.548 80.1862 524.137 80.5117 523.799 80.9414C523.46 81.3646 523.2 81.8854 523.018 82.5039C522.835 83.1159 522.744 83.8158 522.744 84.6035C522.744 86.2572 523.079 87.5039 523.75 88.3438C524.421 89.1836 525.404 89.6035 526.699 89.6035C527.246 89.6035 527.77 89.5417 528.271 89.418C528.773 89.2878 529.255 89.1087 529.717 88.8809V90.5215ZM540.713 90.5215C539.691 90.9447 538.62 91.1562 537.5 91.1562C535.697 91.1562 534.31 90.6191 533.34 89.5449C532.376 88.4642 531.895 86.8691 531.895 84.7598C531.895 83.7376 532.028 82.8132 532.295 81.9863C532.562 81.1595 532.943 80.4596 533.438 79.8867C533.932 79.3073 534.531 78.8613 535.234 78.5488C535.938 78.2363 536.725 78.0801 537.598 78.0801C538.19 78.0801 538.74 78.1322 539.248 78.2363C539.756 78.334 540.244 78.487 540.713 78.6953V80.4043C540.251 80.1504 539.772 79.9583 539.277 79.8281C538.783 79.6914 538.242 79.623 537.656 79.623C537.057 79.623 536.514 79.737 536.025 79.9648C535.544 80.1862 535.133 80.5117 534.795 80.9414C534.456 81.3646 534.196 81.8854 534.014 82.5039C533.831 83.1159 533.74 83.8158 533.74 84.6035C533.74 86.2572 534.076 87.5039 534.746 88.3438C535.417 89.1836 536.4 89.6035 537.695 89.6035C538.242 89.6035 538.766 89.5417 539.268 89.418C539.769 89.2878 540.251 89.1087 540.713 88.8809V90.5215Z" fill="#C9D1D9"/>
<circle cx="585" cy="85" r="14" stroke="#C4A8A8" stroke-width="2"/>
<circle cx="650" cy="85" r="14" stroke="#C4A8A8" stroke-width="2"/>
<path d="M608.824 63.4238C608.349 63.1699 607.861 62.9746 607.359 62.8379C606.858 62.6947 606.311 62.623 605.719 62.623C605.042 62.623 604.439 62.7435 603.912 62.9844C603.385 63.2253 602.939 63.5671 602.574 64.0098C602.216 64.446 601.939 64.9733 601.744 65.5918C601.555 66.2103 601.461 66.8939 601.461 67.6426C601.461 68.4238 601.539 69.1237 601.695 69.7422C601.852 70.3607 602.096 70.8848 602.428 71.3145C602.76 71.7441 603.183 72.0729 603.697 72.3008C604.218 72.5286 604.84 72.6426 605.562 72.6426C605.686 72.6426 605.82 72.6361 605.963 72.623C606.106 72.61 606.249 72.5938 606.393 72.5742C606.536 72.5482 606.673 72.5189 606.803 72.4863C606.939 72.4538 607.06 72.418 607.164 72.3789V68.3164H604.557V66.8809H608.883V73.4043C608.616 73.528 608.333 73.6387 608.033 73.7363C607.74 73.834 607.438 73.9154 607.125 73.9805C606.819 74.0456 606.513 74.0944 606.207 74.127C605.901 74.1595 605.605 74.1758 605.318 74.1758C604.446 74.1758 603.658 74.0391 602.955 73.7656C602.258 73.4922 601.663 73.0885 601.168 72.5547C600.68 72.0143 600.302 71.3438 600.035 70.543C599.775 69.7422 599.645 68.8145 599.645 67.7598C599.645 66.7116 599.791 65.7741 600.084 64.9473C600.377 64.1139 600.787 63.4108 601.314 62.8379C601.848 62.2585 602.486 61.819 603.229 61.5195C603.977 61.2135 604.801 61.0605 605.699 61.0605C606.272 61.0605 606.816 61.1126 607.33 61.2168C607.851 61.3145 608.349 61.474 608.824 61.6953V63.4238ZM619.82 63.4238C619.345 63.1699 618.857 62.9746 618.355 62.8379C617.854 62.6947 617.307 62.623 616.715 62.623C616.038 62.623 615.436 62.7435 614.908 62.9844C614.381 63.2253 613.935 63.5671 613.57 64.0098C613.212 64.446 612.936 64.9733 612.74 65.5918C612.551 66.2103 612.457 66.8939 612.457 67.6426C612.457 68.4238 612.535 69.1237 612.691 69.7422C612.848 70.3607 613.092 70.8848 613.424 71.3145C613.756 71.7441 614.179 72.0729 614.693 72.3008C615.214 72.5286 615.836 72.6426 616.559 72.6426C616.682 72.6426 616.816 72.6361 616.959 72.623C617.102 72.61 617.245 72.5938 617.389 72.5742C617.532 72.5482 617.669 72.5189 617.799 72.4863C617.936 72.4538 618.056 72.418 618.16 72.3789V68.3164H615.553V66.8809H619.879V73.4043C619.612 73.528 619.329 73.6387 619.029 73.7363C618.736 73.834 618.434 73.9154 618.121 73.9805C617.815 74.0456 617.509 74.0944 617.203 74.127C616.897 74.1595 616.601 74.1758 616.314 74.1758C615.442 74.1758 614.654 74.0391 613.951 73.7656C613.255 73.4922 612.659 73.0885 612.164 72.5547C611.676 72.0143 611.298 71.3438 611.031 70.543C610.771 69.7422 610.641 68.8145 610.641 67.7598C610.641 66.7116 610.787 65.7741 611.08 64.9473C611.373 64.1139 611.783 63.4108 612.311 62.8379C612.844 62.2585 613.482 61.819 614.225 61.5195C614.973 61.2135 615.797 61.0605 616.695 61.0605C617.268 61.0605 617.812 61.1126 618.326 61.2168C618.847 61.3145 619.345 61.474 619.82 61.6953V63.4238ZM631.891 74H629.996L629.107 71.2168H623.795L622.896 74H621.09L625.328 61.2363H627.711L631.891 74ZM628.609 69.6641L626.451 62.8379L624.293 69.6641H628.609Z" fill="#C9D1D9"/>
<path d="M634.707 85.7071C635.098 85.3166 635.098 84.6834 634.707 84.2929L628.343 77.9289C627.953 77.5384 627.319 77.5384 626.929 77.9289C626.538 78.3195 626.538 78.9526 626.929 79.3431L632.586 85L626.929 90.6569C626.538 91.0474 626.538 91.6805 626.929 92.0711C627.319 92.4616 627.953 92.4616 628.343 92.0711L634.707 85.7071ZM600 86H634V84H600V86Z" fill="#C4A8A8"/>
<path d="M582.824 80.4238C582.349 80.1699 581.861 79.9746 581.359 79.8379C580.858 79.6947 580.311 79.623 579.719 79.623C579.042 79.623 578.439 79.7435 577.912 79.9844C577.385 80.2253 576.939 80.5671 576.574 81.0098C576.216 81.446 575.939 81.9733 575.744 82.5918C575.555 83.2103 575.461 83.8939 575.461 84.6426C575.461 85.4238 575.539 86.1237 575.695 86.7422C575.852 87.3607 576.096 87.8848 576.428 88.3145C576.76 88.7441 577.183 89.0729 577.697 89.3008C578.218 89.5286 578.84 89.6426 579.562 89.6426C579.686 89.6426 579.82 89.6361 579.963 89.623C580.106 89.61 580.249 89.5938 580.393 89.5742C580.536 89.5482 580.673 89.5189 580.803 89.4863C580.939 89.4538 581.06 89.418 581.164 89.3789V85.3164H578.557V83.8809H582.883V90.4043C582.616 90.528 582.333 90.6387 582.033 90.7363C581.74 90.834 581.438 90.9154 581.125 90.9805C580.819 91.0456 580.513 91.0944 580.207 91.127C579.901 91.1595 579.605 91.1758 579.318 91.1758C578.446 91.1758 577.658 91.0391 576.955 90.7656C576.258 90.4922 575.663 90.0885 575.168 89.5547C574.68 89.0143 574.302 88.3438 574.035 87.543C573.775 86.7422 573.645 85.8145 573.645 84.7598C573.645 83.7116 573.791 82.7741 574.084 81.9473C574.377 81.1139 574.787 80.4108 575.314 79.8379C575.848 79.2585 576.486 78.819 577.229 78.5195C577.977 78.2135 578.801 78.0605 579.699 78.0605C580.272 78.0605 580.816 78.1126 581.33 78.2168C581.851 78.3145 582.349 78.474 582.824 78.6953V80.4238ZM593.82 80.4238C593.345 80.1699 592.857 79.9746 592.355 79.8379C591.854 79.6947 591.307 79.623 590.715 79.623C590.038 79.623 589.436 79.7435 588.908 79.9844C588.381 80.2253 587.935 80.5671 587.57 81.0098C587.212 81.446 586.936 81.9733 586.74 82.5918C586.551 83.2103 586.457 83.8939 586.457 84.6426C586.457 85.4238 586.535 86.1237 586.691 86.7422C586.848 87.3607 587.092 87.8848 587.424 88.3145C587.756 88.7441 588.179 89.0729 588.693 89.3008C589.214 89.5286 589.836 89.6426 590.559 89.6426C590.682 89.6426 590.816 89.6361 590.959 89.623C591.102 89.61 591.245 89.5938 591.389 89.5742C591.532 89.5482 591.669 89.5189 591.799 89.4863C591.936 89.4538 592.056 89.418 592.16 89.3789V85.3164H589.553V83.8809H593.879V90.4043C593.612 90.528 593.329 90.6387 593.029 90.7363C592.736 90.834 592.434 90.9154 592.121 90.9805C591.815 91.0456 591.509 91.0944 591.203 91.127C590.897 91.1595 590.601 91.1758 590.314 91.1758C589.442 91.1758 588.654 91.0391 587.951 90.7656C587.255 90.4922 586.659 90.0885 586.164 89.5547C585.676 89.0143 585.298 88.3438 585.031 87.543C584.771 86.7422 584.641 85.8145 584.641 84.7598C584.641 83.7116 584.787 82.7741 585.08 81.9473C585.373 81.1139 585.783 80.4108 586.311 79.8379C586.844 79.2585 587.482 78.819 588.225 78.5195C588.973 78.2135 589.797 78.0605 590.695 78.0605C591.268 78.0605 591.812 78.1126 592.326 78.2168C592.847 78.3145 593.345 78.474 593.82 78.6953V80.4238Z" fill="#C9D1D9"/>
<path d="M648.824 80.4238C648.349 80.1699 647.861 79.9746 647.359 79.8379C646.858 79.6947 646.311 79.623 645.719 79.623C645.042 79.623 644.439 79.7435 643.912 79.9844C643.385 80.2253 642.939 80.5671 642.574 81.0098C642.216 81.446 641.939 81.9733 641.744 82.5918C641.555 83.2103 641.461 83.8939 641.461 84.6426C641.461 85.4238 641.539 86.1237 641.695 86.7422C641.852 87.3607 642.096 87.8848 642.428 88.3145C642.76 88.7441 643.183 89.0729 643.697 89.3008C644.218 89.5286 644.84 89.6426 645.562 89.6426C645.686 89.6426 645.82 89.6361 645.963 89.623C646.106 89.61 646.249 89.5938 646.393 89.5742C646.536 89.5482 646.673 89.5189 646.803 89.4863C646.939 89.4538 647.06 89.418 647.164 89.3789V85.3164H644.557V83.8809H648.883V90.4043C648.616 90.528 648.333 90.6387 648.033 90.7363C647.74 90.834 647.438 90.9154 647.125 90.9805C646.819 91.0456 646.513 91.0944 646.207 91.127C645.901 91.1595 645.605 91.1758 645.318 91.1758C644.446 91.1758 643.658 91.0391 642.955 90.7656C642.258 90.4922 641.663 90.0885 641.168 89.5547C640.68 89.0143 640.302 88.3438 640.035 87.543C639.775 86.7422 639.645 85.8145 639.645 84.7598C639.645 83.7116 639.791 82.7741 640.084 81.9473C640.377 81.1139 640.787 80.4108 641.314 79.8379C641.848 79.2585 642.486 78.819 643.229 78.5195C643.977 78.2135 644.801 78.0605 645.699 78.0605C646.272 78.0605 646.816 78.1126 647.33 78.2168C647.851 78.3145 648.349 78.474 648.824 78.6953V80.4238ZM660.895 91H659L658.111 88.2168H652.799L651.9 91H650.094L654.332 78.2363H656.715L660.895 91ZM657.613 86.6641L655.455 79.8379L653.297 86.6641H657.613Z" fill="#C9D1D9"/>
<circle cx="702" cy="85" r="14" stroke="#C4A8A8" stroke-width="2"/>
<circle cx="767" cy="85" r="14" stroke="#C4A8A8" stroke-width="2"/>
<path d="M725.824 63.4238C725.349 63.1699 724.861 62.9746 724.359 62.8379C723.858 62.6947 723.311 62.623 722.719 62.623C722.042 62.623 721.439 62.7435 720.912 62.9844C720.385 63.2253 719.939 63.5671 719.574 64.0098C719.216 64.446 718.939 64.9733 718.744 65.5918C718.555 66.2103 718.461 66.8939 718.461 67.6426C718.461 68.4238 718.539 69.1237 718.695 69.7422C718.852 70.3607 719.096 70.8848 719.428 71.3145C719.76 71.7441 720.183 72.0729 720.697 72.3008C721.218 72.5286 721.84 72.6426 722.562 72.6426C722.686 72.6426 722.82 72.6361 722.963 72.623C723.106 72.61 723.249 72.5938 723.393 72.5742C723.536 72.5482 723.673 72.5189 723.803 72.4863C723.939 72.4538 724.06 72.418 724.164 72.3789V68.3164H721.557V66.8809H725.883V73.4043C725.616 73.528 725.333 73.6387 725.033 73.7363C724.74 73.834 724.438 73.9154 724.125 73.9805C723.819 74.0456 723.513 74.0944 723.207 74.127C722.901 74.1595 722.605 74.1758 722.318 74.1758C721.446 74.1758 720.658 74.0391 719.955 73.7656C719.258 73.4922 718.663 73.0885 718.168 72.5547C717.68 72.0143 717.302 71.3438 717.035 70.543C716.775 69.7422 716.645 68.8145 716.645 67.7598C716.645 66.7116 716.791 65.7741 717.084 64.9473C717.377 64.1139 717.787 63.4108 718.314 62.8379C718.848 62.2585 719.486 61.819 720.229 61.5195C720.977 61.2135 721.801 61.0605 722.699 61.0605C723.272 61.0605 723.816 61.1126 724.33 61.2168C724.851 61.3145 725.349 61.474 725.824 61.6953V63.4238ZM736.82 63.4238C736.345 63.1699 735.857 62.9746 735.355 62.8379C734.854 62.6947 734.307 62.623 733.715 62.623C733.038 62.623 732.436 62.7435 731.908 62.9844C731.381 63.2253 730.935 63.5671 730.57 64.0098C730.212 64.446 729.936 64.9733 729.74 65.5918C729.551 66.2103 729.457 66.8939 729.457 67.6426C729.457 68.4238 729.535 69.1237 729.691 69.7422C729.848 70.3607 730.092 70.8848 730.424 71.3145C730.756 71.7441 731.179 72.0729 731.693 72.3008C732.214 72.5286 732.836 72.6426 733.559 72.6426C733.682 72.6426 733.816 72.6361 733.959 72.623C734.102 72.61 734.245 72.5938 734.389 72.5742C734.532 72.5482 734.669 72.5189 734.799 72.4863C734.936 72.4538 735.056 72.418 735.16 72.3789V68.3164H732.553V66.8809H736.879V73.4043C736.612 73.528 736.329 73.6387 736.029 73.7363C735.736 73.834 735.434 73.9154 735.121 73.9805C734.815 74.0456 734.509 74.0944 734.203 74.127C733.897 74.1595 733.601 74.1758 733.314 74.1758C732.442 74.1758 731.654 74.0391 730.951 73.7656C730.255 73.4922 729.659 73.0885 729.164 72.5547C728.676 72.0143 728.298 71.3438 728.031 70.543C727.771 69.7422 727.641 68.8145 727.641 67.7598C727.641 66.7116 727.787 65.7741 728.08 64.9473C728.373 64.1139 728.783 63.4108 729.311 62.8379C729.844 62.2585 730.482 61.819 731.225 61.5195C731.973 61.2135 732.797 61.0605 733.695 61.0605C734.268 61.0605 734.812 61.1126 735.326 61.2168C735.847 61.3145 736.345 61.474 736.82 61.6953V63.4238ZM747.816 63.4238C747.341 63.1699 746.853 62.9746 746.352 62.8379C745.85 62.6947 745.303 62.623 744.711 62.623C744.034 62.623 743.432 62.7435 742.904 62.9844C742.377 63.2253 741.931 63.5671 741.566 64.0098C741.208 64.446 740.932 64.9733 740.736 65.5918C740.548 66.2103 740.453 66.8939 740.453 67.6426C740.453 68.4238 740.531 69.1237 740.688 69.7422C740.844 70.3607 741.088 70.8848 741.42 71.3145C741.752 71.7441 742.175 72.0729 742.689 72.3008C743.21 72.5286 743.832 72.6426 744.555 72.6426C744.678 72.6426 744.812 72.6361 744.955 72.623C745.098 72.61 745.242 72.5938 745.385 72.5742C745.528 72.5482 745.665 72.5189 745.795 72.4863C745.932 72.4538 746.052 72.418 746.156 72.3789V68.3164H743.549V66.8809H747.875V73.4043C747.608 73.528 747.325 73.6387 747.025 73.7363C746.732 73.834 746.43 73.9154 746.117 73.9805C745.811 74.0456 745.505 74.0944 745.199 74.127C744.893 74.1595 744.597 74.1758 744.311 74.1758C743.438 74.1758 742.65 74.0391 741.947 73.7656C741.251 73.4922 740.655 73.0885 740.16 72.5547C739.672 72.0143 739.294 71.3438 739.027 70.543C738.767 69.7422 738.637 68.8145 738.637 67.7598C738.637 66.7116 738.783 65.7741 739.076 64.9473C739.369 64.1139 739.779 63.4108 740.307 62.8379C740.84 62.2585 741.479 61.819 742.221 61.5195C742.969 61.2135 743.793 61.0605 744.691 61.0605C745.264 61.0605 745.808 61.1126 746.322 61.2168C746.843 61.3145 747.341 61.474 747.816 61.6953V63.4238Z" fill="#C9D1D9"/>
<path d="M751.707 85.7071C752.098 85.3166 752.098 84.6834 751.707 84.2929L745.343 77.9289C744.953 77.5384 744.319 77.5384 743.929 77.9289C743.538 78.3195 743.538 78.9526 743.929 79.3431L749.586 85L743.929 90.6569C743.538 91.0474 743.538 91.6805 743.929 92.0711C744.319 92.4616 744.953 92.4616 745.343 92.0711L751.707 85.7071ZM717 86H751V84H717V86Z" fill="#C4A8A8"/>
<path d="M699.824 80.4238C699.349 80.1699 698.861 79.9746 698.359 79.8379C697.858 79.6947 697.311 79.623 696.719 79.623C696.042 79.623 695.439 79.7435 694.912 79.9844C694.385 80.2253 693.939 80.5671 693.574 81.0098C693.216 81.446 692.939 81.9733 692.744 82.5918C692.555 83.2103 692.461 83.8939 692.461 84.6426C692.461 85.4238 692.539 86.1237 692.695 86.7422C692.852 87.3607 693.096 87.8848 693.428 88.3145C693.76 88.7441 694.183 89.0729 694.697 89.3008C695.218 89.5286 695.84 89.6426 696.562 89.6426C696.686 89.6426 696.82 89.6361 696.963 89.623C697.106 89.61 697.249 89.5938 697.393 89.5742C697.536 89.5482 697.673 89.5189 697.803 89.4863C697.939 89.4538 698.06 89.418 698.164 89.3789V85.3164H695.557V83.8809H699.883V90.4043C699.616 90.528 699.333 90.6387 699.033 90.7363C698.74 90.834 698.438 90.9154 698.125 90.9805C697.819 91.0456 697.513 91.0944 697.207 91.127C696.901 91.1595 696.605 91.1758 696.318 91.1758C695.446 91.1758 694.658 91.0391 693.955 90.7656C693.258 90.4922 692.663 90.0885 692.168 89.5547C691.68 89.0143 691.302 88.3438 691.035 87.543C690.775 86.7422 690.645 85.8145 690.645 84.7598C690.645 83.7116 690.791 82.7741 691.084 81.9473C691.377 81.1139 691.787 80.4108 692.314 79.8379C692.848 79.2585 693.486 78.819 694.229 78.5195C694.977 78.2135 695.801 78.0605 696.699 78.0605C697.272 78.0605 697.816 78.1126 698.33 78.2168C698.851 78.3145 699.349 78.474 699.824 78.6953V80.4238ZM710.82 80.4238C710.345 80.1699 709.857 79.9746 709.355 79.8379C708.854 79.6947 708.307 79.623 707.715 79.623C707.038 79.623 706.436 79.7435 705.908 79.9844C705.381 80.2253 704.935 80.5671 704.57 81.0098C704.212 81.446 703.936 81.9733 703.74 82.5918C703.551 83.2103 703.457 83.8939 703.457 84.6426C703.457 85.4238 703.535 86.1237 703.691 86.7422C703.848 87.3607 704.092 87.8848 704.424 88.3145C704.756 88.7441 705.179 89.0729 705.693 89.3008C706.214 89.5286 706.836 89.6426 707.559 89.6426C707.682 89.6426 707.816 89.6361 707.959 89.623C708.102 89.61 708.245 89.5938 708.389 89.5742C708.532 89.5482 708.669 89.5189 708.799 89.4863C708.936 89.4538 709.056 89.418 709.16 89.3789V85.3164H706.553V83.8809H710.879V90.4043C710.612 90.528 710.329 90.6387 710.029 90.7363C709.736 90.834 709.434 90.9154 709.121 90.9805C708.815 91.0456 708.509 91.0944 708.203 91.127C707.897 91.1595 707.601 91.1758 707.314 91.1758C706.442 91.1758 705.654 91.0391 704.951 90.7656C704.255 90.4922 703.659 90.0885 703.164 89.5547C702.676 89.0143 702.298 88.3438 702.031 87.543C701.771 86.7422 701.641 85.8145 701.641 84.7598C701.641 83.7116 701.787 82.7741 702.08 81.9473C702.373 81.1139 702.783 80.4108 703.311 79.8379C703.844 79.2585 704.482 78.819 705.225 78.5195C705.973 78.2135 706.797 78.0605 707.695 78.0605C708.268 78.0605 708.812 78.1126 709.326 78.2168C709.847 78.3145 710.345 78.474 710.82 78.6953V80.4238Z" fill="#C9D1D9"/>
<path d="M765.824 80.4238C765.349 80.1699 764.861 79.9746 764.359 79.8379C763.858 79.6947 763.311 79.623 762.719 79.623C762.042 79.623 761.439 79.7435 760.912 79.9844C760.385 80.2253 759.939 80.5671 759.574 81.0098C759.216 81.446 758.939 81.9733 758.744 82.5918C758.555 83.2103 758.461 83.8939 758.461 84.6426C758.461 85.4238 758.539 86.1237 758.695 86.7422C758.852 87.3607 759.096 87.8848 759.428 88.3145C759.76 88.7441 760.183 89.0729 760.697 89.3008C761.218 89.5286 761.84 89.6426 762.562 89.6426C762.686 89.6426 762.82 89.6361 762.963 89.623C763.106 89.61 763.249 89.5938 763.393 89.5742C763.536 89.5482 763.673 89.5189 763.803 89.4863C763.939 89.4538 764.06 89.418 764.164 89.3789V85.3164H761.557V83.8809H765.883V90.4043C765.616 90.528 765.333 90.6387 765.033 90.7363C764.74 90.834 764.438 90.9154 764.125 90.9805C763.819 91.0456 763.513 91.0944 763.207 91.127C762.901 91.1595 762.605 91.1758 762.318 91.1758C761.446 91.1758 760.658 91.0391 759.955 90.7656C759.258 90.4922 758.663 90.0885 758.168 89.5547C757.68 89.0143 757.302 88.3438 757.035 87.543C756.775 86.7422 756.645 85.8145 756.645 84.7598C756.645 83.7116 756.791 82.7741 757.084 81.9473C757.377 81.1139 757.787 80.4108 758.314 79.8379C758.848 79.2585 759.486 78.819 760.229 78.5195C760.977 78.2135 761.801 78.0605 762.699 78.0605C763.272 78.0605 763.816 78.1126 764.33 78.2168C764.851 78.3145 765.349 78.474 765.824 78.6953V80.4238ZM776.82 80.4238C776.345 80.1699 775.857 79.9746 775.355 79.8379C774.854 79.6947 774.307 79.623 773.715 79.623C773.038 79.623 772.436 79.7435 771.908 79.9844C771.381 80.2253 770.935 80.5671 770.57 81.0098C770.212 81.446 769.936 81.9733 769.74 82.5918C769.551 83.2103 769.457 83.8939 769.457 84.6426C769.457 85.4238 769.535 86.1237 769.691 86.7422C769.848 87.3607 770.092 87.8848 770.424 88.3145C770.756 88.7441 771.179 89.0729 771.693 89.3008C772.214 89.5286 772.836 89.6426 773.559 89.6426C773.682 89.6426 773.816 89.6361 773.959 89.623C774.102 89.61 774.245 89.5938 774.389 89.5742C774.532 89.5482 774.669 89.5189 774.799 89.4863C774.936 89.4538 775.056 89.418 775.16 89.3789V85.3164H772.553V83.8809H776.879V90.4043C776.612 90.528 776.329 90.6387 776.029 90.7363C775.736 90.834 775.434 90.9154 775.121 90.9805C774.815 91.0456 774.509 91.0944 774.203 91.127C773.897 91.1595 773.601 91.1758 773.314 91.1758C772.442 91.1758 771.654 91.0391 770.951 90.7656C770.255 90.4922 769.659 90.0885 769.164 89.5547C768.676 89.0143 768.298 88.3438 768.031 87.543C767.771 86.7422 767.641 85.8145 767.641 84.7598C767.641 83.7116 767.787 82.7741 768.08 81.9473C768.373 81.1139 768.783 80.4108 769.311 79.8379C769.844 79.2585 770.482 78.819 771.225 78.5195C771.973 78.2135 772.797 78.0605 773.695 78.0605C774.268 78.0605 774.812 78.1126 775.326 78.2168C775.847 78.3145 776.345 78.474 776.82 78.6953V80.4238Z" fill="#C9D1D9"/>
<circle cx="346" cy="155" r="14" stroke="#C4A8A8" stroke-width="2"/>
<circle cx="411" cy="155" r="14" stroke="#C4A8A8" stroke-width="2"/>
<path d="M369.824 133.424C369.349 133.17 368.861 132.975 368.359 132.838C367.858 132.695 367.311 132.623 366.719 132.623C366.042 132.623 365.439 132.743 364.912 132.984C364.385 133.225 363.939 133.567 363.574 134.01C363.216 134.446 362.939 134.973 362.744 135.592C362.555 136.21 362.461 136.894 362.461 137.643C362.461 138.424 362.539 139.124 362.695 139.742C362.852 140.361 363.096 140.885 363.428 141.314C363.76 141.744 364.183 142.073 364.697 142.301C365.218 142.529 365.84 142.643 366.562 142.643C366.686 142.643 366.82 142.636 366.963 142.623C367.106 142.61 367.249 142.594 367.393 142.574C367.536 142.548 367.673 142.519 367.803 142.486C367.939 142.454 368.06 142.418 368.164 142.379V138.316H365.557V136.881H369.883V143.404C369.616 143.528 369.333 143.639 369.033 143.736C368.74 143.834 368.438 143.915 368.125 143.98C367.819 144.046 367.513 144.094 367.207 144.127C366.901 144.16 366.605 144.176 366.318 144.176C365.446 144.176 364.658 144.039 363.955 143.766C363.258 143.492 362.663 143.089 362.168 142.555C361.68 142.014 361.302 141.344 361.035 140.543C360.775 139.742 360.645 138.814 360.645 137.76C360.645 136.712 360.791 135.774 361.084 134.947C361.377 134.114 361.787 133.411 362.314 132.838C362.848 132.258 363.486 131.819 364.229 131.52C364.977 131.214 365.801 131.061 366.699 131.061C367.272 131.061 367.816 131.113 368.33 131.217C368.851 131.314 369.349 131.474 369.824 131.695V133.424ZM381.152 132.721H377.373V144H375.615V132.721H371.836V131.236H381.152V132.721ZM392.148 132.721H388.369V144H386.611V132.721H382.832V131.236H392.148V132.721Z" fill="#C9D1D9"/>
<path d="M395.707 155.707C396.098 155.317 396.098 154.683 395.707 154.293L389.343 147.929C388.953 147.538 388.319 147.538 387.929 147.929C387.538 148.319 387.538 148.953 387.929 149.343L393.586 155L387.929 160.657C387.538 161.047 387.538 161.681 387.929 162.071C388.319 162.462 388.953 162.462 389.343 162.071L395.707 155.707ZM361 156H395V154H361V156Z" fill="#C4A8A8"/>
<path d="M343.824 150.424C343.349 150.17 342.861 149.975 342.359 149.838C341.858 149.695 341.311 149.623 340.719 149.623C340.042 149.623 339.439 149.743 338.912 149.984C338.385 150.225 337.939 150.567 337.574 151.01C337.216 151.446 336.939 151.973 336.744 152.592C336.555 153.21 336.461 153.894 336.461 154.643C336.461 155.424 336.539 156.124 336.695 156.742C336.852 157.361 337.096 157.885 337.428 158.314C337.76 158.744 338.183 159.073 338.697 159.301C339.218 159.529 339.84 159.643 340.562 159.643C340.686 159.643 340.82 159.636 340.963 159.623C341.106 159.61 341.249 159.594 341.393 159.574C341.536 159.548 341.673 159.519 341.803 159.486C341.939 159.454 342.06 159.418 342.164 159.379V155.316H339.557V153.881H343.883V160.404C343.616 160.528 343.333 160.639 343.033 160.736C342.74 160.834 342.438 160.915 342.125 160.98C341.819 161.046 341.513 161.094 341.207 161.127C340.901 161.16 340.605 161.176 340.318 161.176C339.446 161.176 338.658 161.039 337.955 160.766C337.258 160.492 336.663 160.089 336.168 159.555C335.68 159.014 335.302 158.344 335.035 157.543C334.775 156.742 334.645 155.814 334.645 154.76C334.645 153.712 334.791 152.774 335.084 151.947C335.377 151.114 335.787 150.411 336.314 149.838C336.848 149.258 337.486 148.819 338.229 148.52C338.977 148.214 339.801 148.061 340.699 148.061C341.272 148.061 341.816 148.113 342.33 148.217C342.851 148.314 343.349 148.474 343.824 148.695V150.424ZM355.152 149.721H351.373V161H349.615V149.721H345.836V148.236H355.152V149.721Z" fill="#C9D1D9"/>
<path d="M410.156 149.721H406.377V161H404.619V149.721H400.84V148.236H410.156V149.721ZM421.152 149.721H417.373V161H415.615V149.721H411.836V148.236H421.152V149.721Z" fill="#C9D1D9"/>
<circle cx="474" cy="155" r="14" stroke="#C4A8A8" stroke-width="2"/>
<circle cx="539" cy="155" r="14" stroke="#FFD700" stroke-width="2"/>
<path d="M498.156 132.721H494.377V144H492.619V132.721H488.84V131.236H498.156V132.721ZM509.895 144H508L507.111 141.217H501.799L500.9 144H499.094L503.332 131.236H505.715L509.895 144ZM506.613 139.664L504.455 132.838L502.297 139.664H506.613ZM520.891 144H518.996L518.107 141.217H512.795L511.896 144H510.09L514.328 131.236H516.711L520.891 144ZM517.609 139.664L515.451 132.838L513.293 139.664H517.609Z" fill="#C9D1D9"/>
<path d="M523.707 155.707C524.098 155.317 524.098 154.683 523.707 154.293L517.343 147.929C516.953 147.538 516.319 147.538 515.929 147.929C515.538 148.319 515.538 148.953 515.929 149.343L521.586 155L515.929 160.657C515.538 161.047 515.538 161.681 515.929 162.071C516.319 162.462 516.953 162.462 517.343 162.071L523.707 155.707ZM489 156H523V154H489V156Z" fill="#C4A8A8"/>
<path d="M472.156 149.721H468.377V161H466.619V149.721H462.84V148.236H472.156V149.721ZM483.895 161H482L481.111 158.217H475.799L474.9 161H473.094L477.332 148.236H479.715L483.895 161ZM480.613 156.664L478.455 149.838L476.297 156.664H480.613Z" fill="#C9D1D9"/>
<path d="M538.898 161H537.004L536.115 158.217H530.803L529.904 161H528.098L532.336 148.236H534.719L538.898 161ZM535.617 156.664L533.459 149.838L531.301 156.664H535.617ZM549.895 161H548L547.111 158.217H541.799L540.9 161H539.094L543.332 148.236H545.715L549.895 161ZM546.613 156.664L544.455 149.838L542.297 156.664H546.613Z" fill="#C9D1D9"/>
<circle cx="15" cy="155" r="14" stroke="#FFD700" stroke-width="2"/>
<circle cx="80" cy="155" r="14" stroke="#C4A8A8" stroke-width="2"/>
<path d="M39.8984 144H38.0039L37.1152 141.217H31.8027L30.9043 144H29.0977L33.3359 131.236H35.7188L39.8984 144ZM36.6172 139.664L34.459 132.838L32.3008 139.664H36.6172ZM50.8945 144H49L48.1113 141.217H42.7988L41.9004 144H40.0938L44.332 131.236H46.7148L50.8945 144ZM47.6133 139.664L45.4551 132.838L43.2969 139.664H47.6133ZM61.1484 132.721H57.3691V144H55.6113V132.721H51.832V131.236H61.1484V132.721Z" fill="#C9D1D9"/>
<path d="M132.898 114H131.004L130.115 111.217H124.803L123.904 114H122.098L126.336 101.236H128.719L132.898 114ZM129.617 109.664L127.459 102.838L125.301 109.664H129.617ZM143.152 102.721H139.373V114H137.615V102.721H133.836V101.236H143.152V102.721ZM153.816 103.424C153.341 103.17 152.853 102.975 152.352 102.838C151.85 102.695 151.303 102.623 150.711 102.623C150.034 102.623 149.432 102.743 148.904 102.984C148.377 103.225 147.931 103.567 147.566 104.01C147.208 104.446 146.932 104.973 146.736 105.592C146.548 106.21 146.453 106.894 146.453 107.643C146.453 108.424 146.531 109.124 146.688 109.742C146.844 110.361 147.088 110.885 147.42 111.314C147.752 111.744 148.175 112.073 148.689 112.301C149.21 112.529 149.832 112.643 150.555 112.643C150.678 112.643 150.812 112.636 150.955 112.623C151.098 112.61 151.242 112.594 151.385 112.574C151.528 112.548 151.665 112.519 151.795 112.486C151.932 112.454 152.052 112.418 152.156 112.379V108.316H149.549V106.881H153.875V113.404C153.608 113.528 153.325 113.639 153.025 113.736C152.732 113.834 152.43 113.915 152.117 113.98C151.811 114.046 151.505 114.094 151.199 114.127C150.893 114.16 150.597 114.176 150.311 114.176C149.438 114.176 148.65 114.039 147.947 113.766C147.251 113.492 146.655 113.089 146.16 112.555C145.672 112.014 145.294 111.344 145.027 110.543C144.767 109.742 144.637 108.814 144.637 107.76C144.637 106.712 144.783 105.774 145.076 104.947C145.369 104.114 145.779 103.411 146.307 102.838C146.84 102.258 147.479 101.819 148.221 101.52C148.969 101.214 149.793 101.061 150.691 101.061C151.264 101.061 151.808 101.113 152.322 101.217C152.843 101.314 153.341 101.474 153.816 101.695V103.424Z" fill="#C9D1D9"/>
<path d="M132.898 186H131.004L130.115 183.217H124.803L123.904 186H122.098L126.336 173.236H128.719L132.898 186ZM129.617 181.664L127.459 174.838L125.301 181.664H129.617ZM143.152 174.721H139.373V186H137.615V174.721H133.836V173.236H143.152V174.721ZM153.816 175.424C153.341 175.17 152.853 174.975 152.352 174.838C151.85 174.695 151.303 174.623 150.711 174.623C150.034 174.623 149.432 174.743 148.904 174.984C148.377 175.225 147.931 175.567 147.566 176.01C147.208 176.446 146.932 176.973 146.736 177.592C146.548 178.21 146.453 178.894 146.453 179.643C146.453 180.424 146.531 181.124 146.688 181.742C146.844 182.361 147.088 182.885 147.42 183.314C147.752 183.744 148.175 184.073 148.689 184.301C149.21 184.529 149.832 184.643 150.555 184.643C150.678 184.643 150.812 184.636 150.955 184.623C151.098 184.61 151.242 184.594 151.385 184.574C151.528 184.548 151.665 184.519 151.795 184.486C151.932 184.454 152.052 184.418 152.156 184.379V180.316H149.549V178.881H153.875V185.404C153.608 185.528 153.325 185.639 153.025 185.736C152.732 185.834 152.43 185.915 152.117 185.98C151.811 186.046 151.505 186.094 151.199 186.127C150.893 186.16 150.597 186.176 150.311 186.176C149.438 186.176 148.65 186.039 147.947 185.766C147.251 185.492 146.655 185.089 146.16 184.555C145.672 184.014 145.294 183.344 145.027 182.543C144.767 181.742 144.637 180.814 144.637 179.76C144.637 178.712 144.783 177.774 145.076 176.947C145.369 176.114 145.779 175.411 146.307 174.838C146.84 174.258 147.479 173.819 148.221 173.52C148.969 173.214 149.793 173.061 150.691 173.061C151.264 173.061 151.808 173.113 152.322 173.217C152.843 173.314 153.341 173.474 153.816 173.695V175.424Z" fill="#C9D1D9"/>
<path d="M132.898 150H131.004L130.115 147.217H124.803L123.904 150H122.098L126.336 137.236H128.719L132.898 150ZM129.617 145.664L127.459 138.838L125.301 145.664H129.617ZM143.152 138.721H139.373V150H137.615V138.721H133.836V137.236H143.152V138.721ZM153.816 139.424C153.341 139.17 152.853 138.975 152.352 138.838C151.85 138.695 151.303 138.623 150.711 138.623C150.034 138.623 149.432 138.743 148.904 138.984C148.377 139.225 147.931 139.567 147.566 140.01C147.208 140.446 146.932 140.973 146.736 141.592C146.548 142.21 146.453 142.894 146.453 143.643C146.453 144.424 146.531 145.124 146.688 145.742C146.844 146.361 147.088 146.885 147.42 147.314C147.752 147.744 148.175 148.073 148.689 148.301C149.21 148.529 149.832 148.643 150.555 148.643C150.678 148.643 150.812 148.636 150.955 148.623C151.098 148.61 151.242 148.594 151.385 148.574C151.528 148.548 151.665 148.519 151.795 148.486C151.932 148.454 152.052 148.418 152.156 148.379V144.316H149.549V142.881H153.875V149.404C153.608 149.528 153.325 149.639 153.025 149.736C152.732 149.834 152.43 149.915 152.117 149.98C151.811 150.046 151.505 150.094 151.199 150.127C150.893 150.16 150.597 150.176 150.311 150.176C149.438 150.176 148.65 150.039 147.947 149.766C147.251 149.492 146.655 149.089 146.16 148.555C145.672 148.014 145.294 147.344 145.027 146.543C144.767 145.742 144.637 144.814 144.637 143.76C144.637 142.712 144.783 141.774 145.076 140.947C145.369 140.114 145.779 139.411 146.307 138.838C146.84 138.258 147.479 137.819 148.221 137.52C148.969 137.214 149.793 137.061 150.691 137.061C151.264 137.061 151.808 137.113 152.322 137.217C152.843 137.314 153.341 137.474 153.816 137.695V139.424Z" fill="#C9D1D9"/>
<path d="M64.7071 155.707C65.0976 155.317 65.0976 154.683 64.7071 154.293L58.3431 147.929C57.9526 147.538 57.3195 147.538 56.9289 147.929C56.5384 148.319 56.5384 148.953 56.9289 149.343L62.5858 155L56.9289 160.657C56.5384 161.047 56.5384 161.681 56.9289 162.071C57.3195 162.462 57.9526 162.462 58.3431 162.071L64.7071 155.707ZM30 156H64V154H30V156Z" fill="#C4A8A8"/>
<path d="M247.707 155.707C248.098 155.317 248.098 154.683 247.707 154.293L241.343 147.929C240.953 147.538 240.319 147.538 239.929 147.929C239.538 148.319 239.538 148.953 239.929 149.343L245.586 155L239.929 160.657C239.538 161.047 239.538 161.681 239.929 162.071C240.319 162.462 240.953 162.462 241.343 162.071L247.707 155.707ZM213 156H247V154H213V156Z" fill="#C4A8A8"/>
<path d="M13.8984 161H12.0039L11.1152 158.217H5.80273L4.9043 161H3.09766L7.33594 148.236H9.71875L13.8984 161ZM10.6172 156.664L8.45898 149.838L6.30078 156.664H10.6172ZM24.8945 161H23L22.1113 158.217H16.7988L15.9004 161H14.0938L18.332 148.236H20.7148L24.8945 161ZM21.6133 156.664L19.4551 149.838L17.2969 156.664H21.6133Z" fill="#C9D1D9"/>
<path d="M79.8984 161H78.0039L77.1152 158.217H71.8027L70.9043 161H69.0977L73.3359 148.236H75.7188L79.8984 161ZM76.6172 156.664L74.459 149.838L72.3008 156.664H76.6172ZM90.1523 149.721H86.373V161H84.6152V149.721H80.8359V148.236H90.1523V149.721Z" fill="#C9D1D9"/>
<circle cx="198" cy="155" r="14" stroke="#C4A8A8" stroke-width="2"/>
<path d="M197.156 149.721H193.377V161H191.619V149.721H187.84V148.236H197.156V149.721ZM207.82 150.424C207.345 150.17 206.857 149.975 206.355 149.838C205.854 149.695 205.307 149.623 204.715 149.623C204.038 149.623 203.436 149.743 202.908 149.984C202.381 150.225 201.935 150.567 201.57 151.01C201.212 151.446 200.936 151.973 200.74 152.592C200.551 153.21 200.457 153.894 200.457 154.643C200.457 155.424 200.535 156.124 200.691 156.742C200.848 157.361 201.092 157.885 201.424 158.314C201.756 158.744 202.179 159.073 202.693 159.301C203.214 159.529 203.836 159.643 204.559 159.643C204.682 159.643 204.816 159.636 204.959 159.623C205.102 159.61 205.245 159.594 205.389 159.574C205.532 159.548 205.669 159.519 205.799 159.486C205.936 159.454 206.056 159.418 206.16 159.379V155.316H203.553V153.881H207.879V160.404C207.612 160.528 207.329 160.639 207.029 160.736C206.736 160.834 206.434 160.915 206.121 160.98C205.815 161.046 205.509 161.094 205.203 161.127C204.897 161.16 204.601 161.176 204.314 161.176C203.442 161.176 202.654 161.039 201.951 160.766C201.255 160.492 200.659 160.089 200.164 159.555C199.676 159.014 199.298 158.344 199.031 157.543C198.771 156.742 198.641 155.814 198.641 154.76C198.641 153.712 198.787 152.774 199.08 151.947C199.373 151.114 199.783 150.411 200.311 149.838C200.844 149.258 201.482 148.819 202.225 148.52C202.973 148.214 203.797 148.061 204.695 148.061C205.268 148.061 205.812 148.113 206.326 148.217C206.847 148.314 207.345 148.474 207.82 148.695V150.424Z" fill="#C9D1D9"/>
<circle cx="80" cy="15" r="14" stroke="#C3A8A8" stroke-width="2"/>
<path d="M78.7168 20.5215C77.6947 20.9447 76.6237 21.1562 75.5039 21.1562C73.7005 21.1562 72.3138 20.6191 71.3438 19.5449C70.3802 18.4642 69.8984 16.8691 69.8984 14.7598C69.8984 13.7376 70.0319 12.8132 70.2988 11.9863C70.5658 11.1595 70.9466 10.4596 71.4414 9.88672C71.9362 9.30729 72.5352 8.86133 73.2383 8.54883C73.9414 8.23633 74.7292 8.08008 75.6016 8.08008C76.194 8.08008 76.7441 8.13216 77.252 8.23633C77.7598 8.33398 78.248 8.48698 78.7168 8.69531V10.4043C78.2546 10.1504 77.776 9.95833 77.2812 9.82812C76.7865 9.69141 76.2461 9.62305 75.6602 9.62305C75.0612 9.62305 74.5176 9.73698 74.0293 9.96484C73.5475 10.1862 73.1374 10.5117 72.7988 10.9414C72.4603 11.3646 72.1999 11.8854 72.0176 12.5039C71.8353 13.1159 71.7441 13.8158 71.7441 14.6035C71.7441 16.2572 72.0794 17.5039 72.75 18.3438C73.4206 19.1836 74.4036 19.6035 75.6992 19.6035C76.2461 19.6035 76.7702 19.5417 77.2715 19.418C77.7728 19.2878 78.2546 19.1087 78.7168 18.8809V20.5215ZM90.8945 21H89L88.1113 18.2168H82.7988L81.9004 21H80.0938L84.332 8.23633H86.7148L90.8945 21ZM87.6133 16.6641L85.4551 9.83789L83.2969 16.6641H87.6133Z" fill="#C9D1D9"/>
<circle cx="263" cy="154" r="14" stroke="#C4A8A8" stroke-width="2"/>
<path d="M261.824 149.424C261.349 149.17 260.861 148.975 260.359 148.838C259.858 148.695 259.311 148.623 258.719 148.623C258.042 148.623 257.439 148.743 256.912 148.984C256.385 149.225 255.939 149.567 255.574 150.01C255.216 150.446 254.939 150.973 254.744 151.592C254.555 152.21 254.461 152.894 254.461 153.643C254.461 154.424 254.539 155.124 254.695 155.742C254.852 156.361 255.096 156.885 255.428 157.314C255.76 157.744 256.183 158.073 256.697 158.301C257.218 158.529 257.84 158.643 258.562 158.643C258.686 158.643 258.82 158.636 258.963 158.623C259.106 158.61 259.249 158.594 259.393 158.574C259.536 158.548 259.673 158.519 259.803 158.486C259.939 158.454 260.06 158.418 260.164 158.379V154.316H257.557V152.881H261.883V159.404C261.616 159.528 261.333 159.639 261.033 159.736C260.74 159.834 260.438 159.915 260.125 159.98C259.819 160.046 259.513 160.094 259.207 160.127C258.901 160.16 258.605 160.176 258.318 160.176C257.446 160.176 256.658 160.039 255.955 159.766C255.258 159.492 254.663 159.089 254.168 158.555C253.68 158.014 253.302 157.344 253.035 156.543C252.775 155.742 252.645 154.814 252.645 153.76C252.645 152.712 252.791 151.774 253.084 150.947C253.377 150.114 253.787 149.411 254.314 148.838C254.848 148.258 255.486 147.819 256.229 147.52C256.977 147.214 257.801 147.061 258.699 147.061C259.272 147.061 259.816 147.113 260.33 147.217C260.851 147.314 261.349 147.474 261.824 147.695V149.424ZM273.152 148.721H269.373V160H267.615V148.721H263.836V147.236H273.152V148.721Z" fill="#C9D1D9"/>
<circle cx="198" cy="15" r="14" stroke="#C4A8A8" stroke-width="2"/>
<path d="M196.824 10.4238C196.349 10.1699 195.861 9.97461 195.359 9.83789C194.858 9.69466 194.311 9.62305 193.719 9.62305C193.042 9.62305 192.439 9.74349 191.912 9.98438C191.385 10.2253 190.939 10.5671 190.574 11.0098C190.216 11.446 189.939 11.9733 189.744 12.5918C189.555 13.2103 189.461 13.8939 189.461 14.6426C189.461 15.4238 189.539 16.1237 189.695 16.7422C189.852 17.3607 190.096 17.8848 190.428 18.3145C190.76 18.7441 191.183 19.0729 191.697 19.3008C192.218 19.5286 192.84 19.6426 193.562 19.6426C193.686 19.6426 193.82 19.6361 193.963 19.623C194.106 19.61 194.249 19.5938 194.393 19.5742C194.536 19.5482 194.673 19.5189 194.803 19.4863C194.939 19.4538 195.06 19.418 195.164 19.3789V15.3164H192.557V13.8809H196.883V20.4043C196.616 20.528 196.333 20.6387 196.033 20.7363C195.74 20.834 195.438 20.9154 195.125 20.9805C194.819 21.0456 194.513 21.0944 194.207 21.127C193.901 21.1595 193.605 21.1758 193.318 21.1758C192.446 21.1758 191.658 21.0391 190.955 20.7656C190.258 20.4922 189.663 20.0885 189.168 19.5547C188.68 19.0143 188.302 18.3438 188.035 17.543C187.775 16.7422 187.645 15.8145 187.645 14.7598C187.645 13.7116 187.791 12.7741 188.084 11.9473C188.377 11.1139 188.787 10.4108 189.314 9.83789C189.848 9.25846 190.486 8.81901 191.229 8.51953C191.977 8.21354 192.801 8.06055 193.699 8.06055C194.272 8.06055 194.816 8.11263 195.33 8.2168C195.851 8.31445 196.349 8.47396 196.824 8.69531V10.4238ZM207.713 20.5215C206.691 20.9447 205.62 21.1562 204.5 21.1562C202.697 21.1562 201.31 20.6191 200.34 19.5449C199.376 18.4642 198.895 16.8691 198.895 14.7598C198.895 13.7376 199.028 12.8132 199.295 11.9863C199.562 11.1595 199.943 10.4596 200.438 9.88672C200.932 9.30729 201.531 8.86133 202.234 8.54883C202.938 8.23633 203.725 8.08008 204.598 8.08008C205.19 8.08008 205.74 8.13216 206.248 8.23633C206.756 8.33398 207.244 8.48698 207.713 8.69531V10.4043C207.251 10.1504 206.772 9.95833 206.277 9.82812C205.783 9.69141 205.242 9.62305 204.656 9.62305C204.057 9.62305 203.514 9.73698 203.025 9.96484C202.544 10.1862 202.133 10.5117 201.795 10.9414C201.456 11.3646 201.196 11.8854 201.014 12.5039C200.831 13.1159 200.74 13.8158 200.74 14.6035C200.74 16.2572 201.076 17.5039 201.746 18.3438C202.417 19.1836 203.4 19.6035 204.695 19.6035C205.242 19.6035 205.766 19.5417 206.268 19.418C206.769 19.2878 207.251 19.1087 207.713 18.8809V20.5215Z" fill="#C9D1D9"/>
<circle cx="198" cy="293" r="14" stroke="#C4A8A8" stroke-width="2"/>
<path d="M196.824 288.424C196.349 288.17 195.861 287.975 195.359 287.838C194.858 287.695 194.311 287.623 193.719 287.623C193.042 287.623 192.439 287.743 191.912 287.984C191.385 288.225 190.939 288.567 190.574 289.01C190.216 289.446 189.939 289.973 189.744 290.592C189.555 291.21 189.461 291.894 189.461 292.643C189.461 293.424 189.539 294.124 189.695 294.742C189.852 295.361 190.096 295.885 190.428 296.314C190.76 296.744 191.183 297.073 191.697 297.301C192.218 297.529 192.84 297.643 193.562 297.643C193.686 297.643 193.82 297.636 193.963 297.623C194.106 297.61 194.249 297.594 194.393 297.574C194.536 297.548 194.673 297.519 194.803 297.486C194.939 297.454 195.06 297.418 195.164 297.379V293.316H192.557V291.881H196.883V298.404C196.616 298.528 196.333 298.639 196.033 298.736C195.74 298.834 195.438 298.915 195.125 298.98C194.819 299.046 194.513 299.094 194.207 299.127C193.901 299.16 193.605 299.176 193.318 299.176C192.446 299.176 191.658 299.039 190.955 298.766C190.258 298.492 189.663 298.089 189.168 297.555C188.68 297.014 188.302 296.344 188.035 295.543C187.775 294.742 187.645 293.814 187.645 292.76C187.645 291.712 187.791 290.774 188.084 289.947C188.377 289.114 188.787 288.411 189.314 287.838C189.848 287.258 190.486 286.819 191.229 286.52C191.977 286.214 192.801 286.061 193.699 286.061C194.272 286.061 194.816 286.113 195.33 286.217C195.851 286.314 196.349 286.474 196.824 286.695V288.424ZM207.82 288.424C207.345 288.17 206.857 287.975 206.355 287.838C205.854 287.695 205.307 287.623 204.715 287.623C204.038 287.623 203.436 287.743 202.908 287.984C202.381 288.225 201.935 288.567 201.57 289.01C201.212 289.446 200.936 289.973 200.74 290.592C200.551 291.21 200.457 291.894 200.457 292.643C200.457 293.424 200.535 294.124 200.691 294.742C200.848 295.361 201.092 295.885 201.424 296.314C201.756 296.744 202.179 297.073 202.693 297.301C203.214 297.529 203.836 297.643 204.559 297.643C204.682 297.643 204.816 297.636 204.959 297.623C205.102 297.61 205.245 297.594 205.389 297.574C205.532 297.548 205.669 297.519 205.799 297.486C205.936 297.454 206.056 297.418 206.16 297.379V293.316H203.553V291.881H207.879V298.404C207.612 298.528 207.329 298.639 207.029 298.736C206.736 298.834 206.434 298.915 206.121 298.98C205.815 299.046 205.509 299.094 205.203 299.127C204.897 299.16 204.601 299.176 204.314 299.176C203.442 299.176 202.654 299.039 201.951 298.766C201.255 298.492 200.659 298.089 200.164 297.555C199.676 297.014 199.298 296.344 199.031 295.543C198.771 294.742 198.641 293.814 198.641 292.76C198.641 291.712 198.787 290.774 199.08 289.947C199.373 289.114 199.783 288.411 200.311 287.838C200.844 287.258 201.482 286.819 202.225 286.52C202.973 286.214 203.797 286.061 204.695 286.061C205.268 286.061 205.812 286.113 206.326 286.217C206.847 286.314 207.345 286.474 207.82 286.695V288.424Z" fill="#C9D1D9"/>
<circle cx="80" cy="295" r="14" stroke="#C4A8A8" stroke-width="2"/>
<path d="M78.8242 290.424C78.349 290.17 77.8607 289.975 77.3594 289.838C76.8581 289.695 76.3112 289.623 75.7188 289.623C75.0417 289.623 74.4395 289.743 73.9121 289.984C73.3848 290.225 72.9388 290.567 72.5742 291.01C72.2161 291.446 71.9395 291.973 71.7441 292.592C71.5553 293.21 71.4609 293.894 71.4609 294.643C71.4609 295.424 71.5391 296.124 71.6953 296.742C71.8516 297.361 72.0957 297.885 72.4277 298.314C72.7598 298.744 73.1829 299.073 73.6973 299.301C74.2181 299.529 74.8398 299.643 75.5625 299.643C75.6862 299.643 75.8197 299.636 75.9629 299.623C76.1061 299.61 76.2493 299.594 76.3926 299.574C76.5358 299.548 76.6725 299.519 76.8027 299.486C76.9395 299.454 77.0599 299.418 77.1641 299.379V295.316H74.5566V293.881H78.8828V300.404C78.6159 300.528 78.3327 300.639 78.0332 300.736C77.7402 300.834 77.4375 300.915 77.125 300.98C76.819 301.046 76.513 301.094 76.207 301.127C75.901 301.16 75.6048 301.176 75.3184 301.176C74.446 301.176 73.6582 301.039 72.9551 300.766C72.2585 300.492 71.6628 300.089 71.168 299.555C70.6797 299.014 70.3021 298.344 70.0352 297.543C69.7747 296.742 69.6445 295.814 69.6445 294.76C69.6445 293.712 69.791 292.774 70.084 291.947C70.377 291.114 70.7871 290.411 71.3145 289.838C71.8483 289.258 72.4863 288.819 73.2285 288.52C73.9772 288.214 74.8008 288.061 75.6992 288.061C76.2721 288.061 76.8158 288.113 77.3301 288.217C77.8509 288.314 78.349 288.474 78.8242 288.695V290.424ZM90.8945 301H89L88.1113 298.217H82.7988L81.9004 301H80.0938L84.332 288.236H86.7148L90.8945 301ZM87.6133 296.664L85.4551 289.838L83.2969 296.664H87.6133Z" fill="#C9D1D9"/>
<path d="M47.7168 81.5215C46.6947 81.9447 45.6237 82.1562 44.5039 82.1562C42.7005 82.1562 41.3138 81.6191 40.3438 80.5449C39.3802 79.4642 38.8984 77.8691 38.8984 75.7598C38.8984 74.7376 39.0319 73.8132 39.2988 72.9863C39.5658 72.1595 39.9466 71.4596 40.4414 70.8867C40.9362 70.3073 41.5352 69.8613 42.2383 69.5488C42.9414 69.2363 43.7292 69.0801 44.6016 69.0801C45.194 69.0801 45.7441 69.1322 46.252 69.2363C46.7598 69.334 47.248 69.487 47.7168 69.6953V71.4043C47.2546 71.1504 46.776 70.9583 46.2812 70.8281C45.7865 70.6914 45.2461 70.623 44.6602 70.623C44.0612 70.623 43.5176 70.737 43.0293 70.9648C42.5475 71.1862 42.1374 71.5117 41.7988 71.9414C41.4603 72.3646 41.1999 72.8854 41.0176 73.5039C40.8353 74.1159 40.7441 74.8158 40.7441 75.6035C40.7441 77.2572 41.0794 78.5039 41.75 79.3438C42.4206 80.1836 43.4036 80.6035 44.6992 80.6035C45.2461 80.6035 45.7702 80.5417 46.2715 80.418C46.7728 80.2878 47.2546 80.1087 47.7168 79.8809V81.5215ZM59.8945 82H58L57.1113 79.2168H51.7988L50.9004 82H49.0938L53.332 69.2363H55.7148L59.8945 82ZM56.6133 77.6641L54.4551 70.8379L52.2969 77.6641H56.6133ZM70.1484 70.7207H66.3691V82H64.6113V70.7207H60.832V69.2363H70.1484V70.7207Z" fill="#C9D1D9"/>
<path d="M45.8242 231.424C45.349 231.17 44.8607 230.975 44.3594 230.838C43.8581 230.695 43.3112 230.623 42.7188 230.623C42.0417 230.623 41.4395 230.743 40.9121 230.984C40.3848 231.225 39.9388 231.567 39.5742 232.01C39.2161 232.446 38.9395 232.973 38.7441 233.592C38.5553 234.21 38.4609 234.894 38.4609 235.643C38.4609 236.424 38.5391 237.124 38.6953 237.742C38.8516 238.361 39.0957 238.885 39.4277 239.314C39.7598 239.744 40.1829 240.073 40.6973 240.301C41.2181 240.529 41.8398 240.643 42.5625 240.643C42.6862 240.643 42.8197 240.636 42.9629 240.623C43.1061 240.61 43.2493 240.594 43.3926 240.574C43.5358 240.548 43.6725 240.519 43.8027 240.486C43.9395 240.454 44.0599 240.418 44.1641 240.379V236.316H41.5566V234.881H45.8828V241.404C45.6159 241.528 45.3327 241.639 45.0332 241.736C44.7402 241.834 44.4375 241.915 44.125 241.98C43.819 242.046 43.513 242.094 43.207 242.127C42.901 242.16 42.6048 242.176 42.3184 242.176C41.446 242.176 40.6582 242.039 39.9551 241.766C39.2585 241.492 38.6628 241.089 38.168 240.555C37.6797 240.014 37.3021 239.344 37.0352 238.543C36.7747 237.742 36.6445 236.814 36.6445 235.76C36.6445 234.712 36.791 233.774 37.084 232.947C37.377 232.114 37.7871 231.411 38.3145 230.838C38.8483 230.258 39.4863 229.819 40.2285 229.52C40.9772 229.214 41.8008 229.061 42.6992 229.061C43.2721 229.061 43.8158 229.113 44.3301 229.217C44.8509 229.314 45.349 229.474 45.8242 229.695V231.424ZM57.8945 242H56L55.1113 239.217H49.7988L48.9004 242H47.0938L51.332 229.236H53.7148L57.8945 242ZM54.6133 237.664L52.4551 230.838L50.2969 237.664H54.6133ZM68.1484 230.721H64.3691V242H62.6113V230.721H58.832V229.236H68.1484V230.721Z" fill="#C9D1D9"/>
<path d="M219.156 229.721H215.377V241H213.619V229.721H209.84V228.236H219.156V229.721ZM229.82 230.424C229.345 230.17 228.857 229.975 228.355 229.838C227.854 229.695 227.307 229.623 226.715 229.623C226.038 229.623 225.436 229.743 224.908 229.984C224.381 230.225 223.935 230.567 223.57 231.01C223.212 231.446 222.936 231.973 222.74 232.592C222.551 233.21 222.457 233.894 222.457 234.643C222.457 235.424 222.535 236.124 222.691 236.742C222.848 237.361 223.092 237.885 223.424 238.314C223.756 238.744 224.179 239.073 224.693 239.301C225.214 239.529 225.836 239.643 226.559 239.643C226.682 239.643 226.816 239.636 226.959 239.623C227.102 239.61 227.245 239.594 227.389 239.574C227.532 239.548 227.669 239.519 227.799 239.486C227.936 239.454 228.056 239.418 228.16 239.379V235.316H225.553V233.881H229.879V240.404C229.612 240.528 229.329 240.639 229.029 240.736C228.736 240.834 228.434 240.915 228.121 240.98C227.815 241.046 227.509 241.094 227.203 241.127C226.897 241.16 226.601 241.176 226.314 241.176C225.442 241.176 224.654 241.039 223.951 240.766C223.255 240.492 222.659 240.089 222.164 239.555C221.676 239.014 221.298 238.344 221.031 237.543C220.771 236.742 220.641 235.814 220.641 234.76C220.641 233.712 220.787 232.774 221.08 231.947C221.373 231.114 221.783 230.411 222.311 229.838C222.844 229.258 223.482 228.819 224.225 228.52C224.973 228.214 225.797 228.061 226.695 228.061C227.268 228.061 227.812 228.113 228.326 228.217C228.847 228.314 229.345 228.474 229.82 228.695V230.424ZM240.816 230.424C240.341 230.17 239.853 229.975 239.352 229.838C238.85 229.695 238.303 229.623 237.711 229.623C237.034 229.623 236.432 229.743 235.904 229.984C235.377 230.225 234.931 230.567 234.566 231.01C234.208 231.446 233.932 231.973 233.736 232.592C233.548 233.21 233.453 233.894 233.453 234.643C233.453 235.424 233.531 236.124 233.688 236.742C233.844 237.361 234.088 237.885 234.42 238.314C234.752 238.744 235.175 239.073 235.689 239.301C236.21 239.529 236.832 239.643 237.555 239.643C237.678 239.643 237.812 239.636 237.955 239.623C238.098 239.61 238.242 239.594 238.385 239.574C238.528 239.548 238.665 239.519 238.795 239.486C238.932 239.454 239.052 239.418 239.156 239.379V235.316H236.549V233.881H240.875V240.404C240.608 240.528 240.325 240.639 240.025 240.736C239.732 240.834 239.43 240.915 239.117 240.98C238.811 241.046 238.505 241.094 238.199 241.127C237.893 241.16 237.597 241.176 237.311 241.176C236.438 241.176 235.65 241.039 234.947 240.766C234.251 240.492 233.655 240.089 233.16 239.555C232.672 239.014 232.294 238.344 232.027 237.543C231.767 236.742 231.637 235.814 231.637 234.76C231.637 233.712 231.783 232.774 232.076 231.947C232.369 231.114 232.779 230.411 233.307 229.838C233.84 229.258 234.479 228.819 235.221 228.52C235.969 228.214 236.793 228.061 237.691 228.061C238.264 228.061 238.808 228.113 239.322 228.217C239.843 228.314 240.341 228.474 240.816 228.695V230.424Z" fill="#C9D1D9"/>
<path d="M214.156 70.7207H210.377V82H208.619V70.7207H204.84V69.2363H214.156V70.7207ZM224.82 71.4238C224.345 71.1699 223.857 70.9746 223.355 70.8379C222.854 70.6947 222.307 70.623 221.715 70.623C221.038 70.623 220.436 70.7435 219.908 70.9844C219.381 71.2253 218.935 71.5671 218.57 72.0098C218.212 72.446 217.936 72.9733 217.74 73.5918C217.551 74.2103 217.457 74.8939 217.457 75.6426C217.457 76.4238 217.535 77.1237 217.691 77.7422C217.848 78.3607 218.092 78.8848 218.424 79.3145C218.756 79.7441 219.179 80.0729 219.693 80.3008C220.214 80.5286 220.836 80.6426 221.559 80.6426C221.682 80.6426 221.816 80.6361 221.959 80.623C222.102 80.61 222.245 80.5938 222.389 80.5742C222.532 80.5482 222.669 80.5189 222.799 80.4863C222.936 80.4538 223.056 80.418 223.16 80.3789V76.3164H220.553V74.8809H224.879V81.4043C224.612 81.528 224.329 81.6387 224.029 81.7363C223.736 81.834 223.434 81.9154 223.121 81.9805C222.815 82.0456 222.509 82.0944 222.203 82.127C221.897 82.1595 221.601 82.1758 221.314 82.1758C220.442 82.1758 219.654 82.0391 218.951 81.7656C218.255 81.4922 217.659 81.0885 217.164 80.5547C216.676 80.0143 216.298 79.3438 216.031 78.543C215.771 77.7422 215.641 76.8145 215.641 75.7598C215.641 74.7116 215.787 73.7741 216.08 72.9473C216.373 72.1139 216.783 71.4108 217.311 70.8379C217.844 70.2585 218.482 69.819 219.225 69.5195C219.973 69.2135 220.797 69.0605 221.695 69.0605C222.268 69.0605 222.812 69.1126 223.326 69.2168C223.847 69.3145 224.345 69.474 224.82 69.6953V71.4238ZM235.709 81.5215C234.687 81.9447 233.616 82.1562 232.496 82.1562C230.693 82.1562 229.306 81.6191 228.336 80.5449C227.372 79.4642 226.891 77.8691 226.891 75.7598C226.891 74.7376 227.024 73.8132 227.291 72.9863C227.558 72.1595 227.939 71.4596 228.434 70.8867C228.928 70.3073 229.527 69.8613 230.23 69.5488C230.934 69.2363 231.721 69.0801 232.594 69.0801C233.186 69.0801 233.736 69.1322 234.244 69.2363C234.752 69.334 235.24 69.487 235.709 69.6953V71.4043C235.247 71.1504 234.768 70.9583 234.273 70.8281C233.779 70.6914 233.238 70.623 232.652 70.623C232.053 70.623 231.51 70.737 231.021 70.9648C230.54 71.1862 230.13 71.5117 229.791 71.9414C229.452 72.3646 229.192 72.8854 229.01 73.5039C228.827 74.1159 228.736 74.8158 228.736 75.6035C228.736 77.2572 229.072 78.5039 229.742 79.3438C230.413 80.1836 231.396 80.6035 232.691 80.6035C233.238 80.6035 233.762 80.5417 234.264 80.418C234.765 80.2878 235.247 80.1087 235.709 79.8809V81.5215Z" fill="#C9D1D9"/>
<path d="M182.707 155.707C183.098 155.317 183.098 154.683 182.707 154.293L176.343 147.929C175.953 147.538 175.319 147.538 174.929 147.929C174.538 148.319 174.538 148.953 174.929 149.343L180.586 155L174.929 160.657C174.538 161.047 174.538 161.681 174.929 162.071C175.319 162.462 175.953 162.462 176.343 162.071L182.707 155.707ZM95 156H150.23V154H95V156ZM150.23 156H182V154H150.23V156Z" fill="#C4A8A8"/>
<path d="M91 141.709C108.6 126.584 128.566 113.787 152.689 119.309C161.276 121.275 170.26 126.886 176.511 132.998C179.388 135.812 183.5 140.5 186 144" stroke="#C4A8A8" stroke-width="2" stroke-linecap="round" stroke-linejoin="round"/>
<path d="M186 135.5V144" stroke="#C4A8A8" stroke-width="2"/>
<path d="M177.5 142.5L187 144.5" stroke="#C4A8A8" stroke-width="2"/>
<path d="M91 167.291C108.6 182.416 128.566 195.213 152.689 189.691C161.276 187.725 170.26 182.114 176.511 176.002C179.388 173.188 183.5 168.5 186 165" stroke="#C4A8A8" stroke-width="2" stroke-linecap="round" stroke-linejoin="round"/>
<path d="M186 173.5V165" stroke="#C4A8A8" stroke-width="2"/>
<path d="M177.5 166.5L187 164.5" stroke="#C4A8A8" stroke-width="2"/>
<path d="M79.2929 136.707C79.6834 137.098 80.3166 137.098 80.7071 136.707L87.0711 130.343C87.4616 129.953 87.4616 129.319 87.0711 128.929C86.6805 128.538 86.0474 128.538 85.6569 128.929L80 134.586L74.3431 128.929C73.9526 128.538 73.3195 128.538 72.9289 128.929C72.5384 129.319 72.5384 129.953 72.9289 130.343L79.2929 136.707ZM79 30V136H81V30H79Z" fill="#C4A8A8"/>
<path d="M79.2929 136.707C79.6834 137.098 80.3166 137.098 80.7071 136.707L87.0711 130.343C87.4616 129.953 87.4616 129.319 87.0711 128.929C86.6805 128.538 86.0474 128.538 85.6569 128.929L80 134.586L74.3431 128.929C73.9526 128.538 73.3195 128.538 72.9289 128.929C72.5384 129.319 72.5384 129.953 72.9289 130.343L79.2929 136.707ZM79 30V136H81V30H79Z" fill="#C4A8A8"/>
<path d="M79.2929 136.707C79.6834 137.098 80.3166 137.098 80.7071 136.707L87.0711 130.343C87.4616 129.953 87.4616 129.319 87.0711 128.929C86.6805 128.538 86.0474 128.538 85.6569 128.929L80 134.586L74.3431 128.929C73.9526 128.538 73.3195 128.538 72.9289 128.929C72.5384 129.319 72.5384 129.953 72.9289 130.343L79.2929 136.707ZM79 30V136H81V30H79Z" fill="#C4A8A8"/>
<path d="M197.293 277.707C197.683 278.098 198.317 278.098 198.707 277.707L205.071 271.343C205.462 270.953 205.462 270.319 205.071 269.929C204.681 269.538 204.047 269.538 203.657 269.929L198 275.586L192.343 269.929C191.953 269.538 191.319 269.538 190.929 269.929C190.538 270.319 190.538 270.953 190.929 271.343L197.293 277.707ZM197 171V277H199V171H197Z" fill="#C4A8A8"/>
<path d="M197.293 277.707C197.683 278.098 198.317 278.098 198.707 277.707L205.071 271.343C205.462 270.953 205.462 270.319 205.071 269.929C204.681 269.538 204.047 269.538 203.657 269.929L198 275.586L192.343 269.929C191.953 269.538 191.319 269.538 190.929 269.929C190.538 270.319 190.538 270.953 190.929 271.343L197.293 277.707ZM197 171V277H199V171H197Z" fill="#C4A8A8"/>
<path d="M197.293 277.707C197.683 278.098 198.317 278.098 198.707 277.707L205.071 271.343C205.462 270.953 205.462 270.319 205.071 269.929C204.681 269.538 204.047 269.538 203.657 269.929L198 275.586L192.343 269.929C191.953 269.538 191.319 269.538 190.929 269.929C190.538 270.319 190.538 270.953 190.929 271.343L197.293 277.707ZM197 171V277H199V171H197Z" fill="#C4A8A8"/>
<path d="M198.707 30.2929C198.317 29.9024 197.683 29.9024 197.293 30.2929L190.929 36.6569C190.538 37.0474 190.538 37.6805 190.929 38.0711C191.319 38.4616 191.953 38.4616 192.343 38.0711L198 32.4142L203.657 38.0711C204.047 38.4616 204.681 38.4616 205.071 38.0711C205.462 37.6805 205.462 37.0474 205.071 36.6569L198.707 30.2929ZM199 137V31H197V137H199Z" fill="#C4A8A8"/>
<path d="M198.707 30.2929C198.317 29.9024 197.683 29.9024 197.293 30.2929L190.929 36.6569C190.538 37.0474 190.538 37.6805 190.929 38.0711C191.319 38.4616 191.953 38.4616 192.343 38.0711L198 32.4142L203.657 38.0711C204.047 38.4616 204.681 38.4616 205.071 38.0711C205.462 37.6805 205.462 37.0474 205.071 36.6569L198.707 30.2929ZM199 137V31H197V137H199Z" fill="#C4A8A8"/>
<path d="M198.707 30.2929C198.317 29.9024 197.683 29.9024 197.293 30.2929L190.929 36.6569C190.538 37.0474 190.538 37.6805 190.929 38.0711C191.319 38.4616 191.953 38.4616 192.343 38.0711L198 32.4142L203.657 38.0711C204.047 38.4616 204.681 38.4616 205.071 38.0711C205.462 37.6805 205.462 37.0474 205.071 36.6569L198.707 30.2929ZM199 137V31H197V137H199Z" fill="#C4A8A8"/>
<path d="M80.7071 172.293C80.3166 171.902 79.6834 171.902 79.2929 172.293L72.9289 178.657C72.5384 179.047 72.5384 179.681 72.9289 180.071C73.3195 180.462 73.9526 180.462 74.3431 180.071L80 174.414L85.6569 180.071C86.0474 180.462 86.6805 180.462 87.0711 180.071C87.4616 179.681 87.4616 179.047 87.0711 178.657L80.7071 172.293ZM81 279V173H79V279H81Z" fill="#C4A8A8"/>
<path d="M80.7071 172.293C80.3166 171.902 79.6834 171.902 79.2929 172.293L72.9289 178.657C72.5384 179.047 72.5384 179.681 72.9289 180.071C73.3195 180.462 73.9526 180.462 74.3431 180.071L80 174.414L85.6569 180.071C86.0474 180.462 86.6805 180.462 87.0711 180.071C87.4616 179.681 87.4616 179.047 87.0711 178.657L80.7071 172.293ZM81 279V173H79V279H81Z" fill="#C4A8A8"/>
<path d="M80.7071 172.293C80.3166 171.902 79.6834 171.902 79.2929 172.293L72.9289 178.657C72.5384 179.047 72.5384 179.681 72.9289 180.071C73.3195 180.462 73.9526 180.462 74.3431 180.071L80 174.414L85.6569 180.071C86.0474 180.462 86.6805 180.462 87.0711 180.071C87.4616 179.681 87.4616 179.047 87.0711 178.657L80.7071 172.293ZM81 279V173H79V279H81Z" fill="#C4A8A8"/>
</svg>
