<svg width="402" height="75" viewBox="0 0 402 75" fill="none" xmlns="http://www.w3.org/2000/svg">
<g filter="url(#filter0_d)">
<rect x="5.5" y="0.5" width="390.25" height="35.25" fill="#62F2A6"/>
<rect x="5.5" y="0.5" width="390.25" height="35.25" fill="url(#paint0_linear)" fill-opacity="0.5"/>
<rect x="5.5" y="0.5" width="390.25" height="35.25" stroke="black"/>
<path d="M202 0V36" stroke="black"/>
<path d="M5.625 45.625H396.25" stroke="#C9D1D9" stroke-width="2"/>
<path d="M5.625 42.5V48.75" stroke="#C9D1D9" stroke-width="2"/>
<path d="M396.25 42.5V48.75" stroke="#C9D1D9" stroke-width="2"/>
<path d="M196.703 61.5V50.2031H201.219C203.312 50.2031 204.359 51.388 204.359 53.7578C204.359 55.0495 204.086 55.974 203.539 56.5312C202.997 57.0885 202.216 57.3672 201.195 57.3672H198.281V61.5H196.703ZM198.281 56.1719H201.227C202.148 56.1719 202.656 55.6354 202.75 54.5625C202.771 54.3646 202.781 54.1302 202.781 53.8594C202.781 52.9479 202.656 52.3099 202.406 51.9453C202.161 51.5807 201.781 51.3984 201.266 51.3984H198.281V56.1719Z" fill="#C9D1D9"/>
<path d="M262.158 23.25V22.0684H263.408V23.25H262.158ZM267.725 23.25V22.0684H268.975V23.25H267.725ZM273.291 23.25V22.0684H274.541V23.25H273.291Z" fill="#C9D1D9"/>
</g>
<path d="M104.283 26.2148C102.519 26.2148 101.399 25.5898 100.924 24.3398C100.787 23.9818 100.719 23.5911 100.719 23.168V15.6484H102.555V23.1777C102.555 23.6855 102.74 24.0859 103.111 24.3789C103.489 24.6654 104.049 24.8086 104.791 24.8086C105.533 24.8086 106.135 24.6263 106.598 24.2617C107.066 23.8906 107.301 23.4642 107.301 22.9824V15.6484H109.137V26H107.496L107.301 24.7012C106.728 25.7103 105.722 26.2148 104.283 26.2148Z" fill="black"/>
<path d="M287.639 26L283.625 15.6484H285.471L288.586 24.0469L291.359 15.6484H293.156L289.494 26H287.639Z" fill="black"/>
<defs>
<filter id="filter0_d" x="0.625" y="0" width="400.625" height="69.5" filterUnits="userSpaceOnUse" color-interpolation-filters="sRGB">
<feFlood flood-opacity="0" result="BackgroundImageFix"/>
<feColorMatrix in="SourceAlpha" type="matrix" values="0 0 0 0 0 0 0 0 0 0 0 0 0 0 0 0 0 0 127 0"/>
<feOffset dy="4"/>
<feGaussianBlur stdDeviation="2"/>
<feColorMatrix type="matrix" values="0 0 0 0 0 0 0 0 0 0 0 0 0 0 0 0 0 0 0.25 0"/>
<feBlend mode="normal" in2="BackgroundImageFix" result="effect1_dropShadow"/>
<feBlend mode="normal" in="SourceGraphic" in2="effect1_dropShadow" result="shape"/>
</filter>
<linearGradient id="paint0_linear" x1="200.625" y1="0" x2="200.625" y2="36.25" gradientUnits="userSpaceOnUse">
<stop/>
<stop offset="1" stop-color="white" stop-opacity="0"/>
</linearGradient>
</defs>
</svg>
