<svg width="176" height="95" viewBox="0 0 176 95" fill="none" xmlns="http://www.w3.org/2000/svg">
<path d="M8.71875 13H7.20312L6.49219 10.7734H2.24219L1.52344 13H0.078125L3.46875 2.78906H5.375L8.71875 13ZM6.09375 9.53125L4.36719 4.07031L2.64062 9.53125H6.09375ZM16.9219 3.97656H13.8984V13H12.4922V3.97656H9.46875V2.78906H16.9219V3.97656ZM25.4531 4.53906C25.0729 4.33594 24.6823 4.17969 24.2812 4.07031C23.8802 3.95573 23.4427 3.89844 22.9688 3.89844C22.4271 3.89844 21.9453 3.99479 21.5234 4.1875C21.1016 4.38021 20.7448 4.65365 20.4531 5.00781C20.1667 5.35677 19.9453 5.77865 19.7891 6.27344C19.638 6.76823 19.5625 7.3151 19.5625 7.91406C19.5625 8.53906 19.625 9.09896 19.75 9.59375C19.875 10.0885 20.0703 10.5078 20.3359 10.8516C20.6016 11.1953 20.9401 11.4583 21.3516 11.6406C21.7682 11.8229 22.2656 11.9141 22.8438 11.9141C22.9427 11.9141 23.0495 11.9089 23.1641 11.8984C23.2786 11.888 23.3932 11.875 23.5078 11.8594C23.6224 11.8385 23.7318 11.8151 23.8359 11.7891C23.9453 11.763 24.0417 11.7344 24.125 11.7031V8.45312H22.0391V7.30469H25.5V12.5234C25.2865 12.6224 25.0599 12.7109 24.8203 12.7891C24.5859 12.8672 24.3438 12.9323 24.0938 12.9844C23.849 13.0365 23.6042 13.0755 23.3594 13.1016C23.1146 13.1276 22.8776 13.1406 22.6484 13.1406C21.9505 13.1406 21.3203 13.0312 20.7578 12.8125C20.2005 12.5938 19.724 12.2708 19.3281 11.8438C18.9375 11.4115 18.6354 10.875 18.4219 10.2344C18.2135 9.59375 18.1094 8.85156 18.1094 8.00781C18.1094 7.16927 18.2266 6.41927 18.4609 5.75781C18.6953 5.09115 19.0234 4.52865 19.4453 4.07031C19.8724 3.60677 20.3828 3.25521 20.9766 3.01562C21.5755 2.77083 22.2344 2.64844 22.9531 2.64844C23.4115 2.64844 23.8464 2.6901 24.2578 2.77344C24.6745 2.85156 25.0729 2.97917 25.4531 3.15625V4.53906ZM34.1641 12.6172C33.3464 12.9557 32.4896 13.125 31.5938 13.125C30.151 13.125 29.0417 12.6953 28.2656 11.8359C27.4948 10.9714 27.1094 9.69531 27.1094 8.00781C27.1094 7.1901 27.2161 6.45052 27.4297 5.78906C27.6432 5.1276 27.9479 4.56771 28.3438 4.10938C28.7396 3.64583 29.2188 3.28906 29.7812 3.03906C30.3438 2.78906 30.974 2.66406 31.6719 2.66406C32.1458 2.66406 32.5859 2.70573 32.9922 2.78906C33.3984 2.86719 33.7891 2.98958 34.1641 3.15625V4.52344C33.7943 4.32031 33.4115 4.16667 33.0156 4.0625C32.6198 3.95312 32.1875 3.89844 31.7188 3.89844C31.2396 3.89844 30.8047 3.98958 30.4141 4.17188C30.0286 4.34896 29.7005 4.60938 29.4297 4.95312C29.1589 5.29167 28.9505 5.70833 28.8047 6.20312C28.6589 6.69271 28.5859 7.2526 28.5859 7.88281C28.5859 9.20573 28.8542 10.2031 29.3906 10.875C29.9271 11.5469 30.7135 11.8828 31.75 11.8828C32.1875 11.8828 32.6068 11.8333 33.0078 11.7344C33.4089 11.6302 33.7943 11.487 34.1641 11.3047V12.6172ZM42.9609 12.6172C42.1432 12.9557 41.2865 13.125 40.3906 13.125C38.9479 13.125 37.8385 12.6953 37.0625 11.8359C36.2917 10.9714 35.9062 9.69531 35.9062 8.00781C35.9062 7.1901 36.013 6.45052 36.2266 5.78906C36.4401 5.1276 36.7448 4.56771 37.1406 4.10938C37.5365 3.64583 38.0156 3.28906 38.5781 3.03906C39.1406 2.78906 39.7708 2.66406 40.4688 2.66406C40.9427 2.66406 41.3828 2.70573 41.7891 2.78906C42.1953 2.86719 42.5859 2.98958 42.9609 3.15625V4.52344C42.5911 4.32031 42.2083 4.16667 41.8125 4.0625C41.4167 3.95312 40.9844 3.89844 40.5156 3.89844C40.0365 3.89844 39.6016 3.98958 39.2109 4.17188C38.8255 4.34896 38.4974 4.60938 38.2266 4.95312C37.9557 5.29167 37.7474 5.70833 37.6016 6.20312C37.4557 6.69271 37.3828 7.2526 37.3828 7.88281C37.3828 9.20573 37.651 10.2031 38.1875 10.875C38.724 11.5469 39.5104 11.8828 40.5469 11.8828C40.9844 11.8828 41.4036 11.8333 41.8047 11.7344C42.2057 11.6302 42.5911 11.487 42.9609 11.3047V12.6172ZM51.8438 4.53906C51.4635 4.33594 51.0729 4.17969 50.6719 4.07031C50.2708 3.95573 49.8333 3.89844 49.3594 3.89844C48.8177 3.89844 48.3359 3.99479 47.9141 4.1875C47.4922 4.38021 47.1354 4.65365 46.8438 5.00781C46.5573 5.35677 46.3359 5.77865 46.1797 6.27344C46.0286 6.76823 45.9531 7.3151 45.9531 7.91406C45.9531 8.53906 46.0156 9.09896 46.1406 9.59375C46.2656 10.0885 46.4609 10.5078 46.7266 10.8516C46.9922 11.1953 47.3307 11.4583 47.7422 11.6406C48.1589 11.8229 48.6562 11.9141 49.2344 11.9141C49.3333 11.9141 49.4401 11.9089 49.5547 11.8984C49.6693 11.888 49.7839 11.875 49.8984 11.8594C50.013 11.8385 50.1224 11.8151 50.2266 11.7891C50.3359 11.763 50.4323 11.7344 50.5156 11.7031V8.45312H48.4297V7.30469H51.8906V12.5234C51.6771 12.6224 51.4505 12.7109 51.2109 12.7891C50.9766 12.8672 50.7344 12.9323 50.4844 12.9844C50.2396 13.0365 49.9948 13.0755 49.75 13.1016C49.5052 13.1276 49.2682 13.1406 49.0391 13.1406C48.3411 13.1406 47.7109 13.0312 47.1484 12.8125C46.5911 12.5938 46.1146 12.2708 45.7188 11.8438C45.3281 11.4115 45.026 10.875 44.8125 10.2344C44.6042 9.59375 44.5 8.85156 44.5 8.00781C44.5 7.16927 44.6172 6.41927 44.8516 5.75781C45.0859 5.09115 45.4141 4.52865 45.8359 4.07031C46.263 3.60677 46.7734 3.25521 47.3672 3.01562C47.9661 2.77083 48.625 2.64844 49.3438 2.64844C49.8021 2.64844 50.237 2.6901 50.6484 2.77344C51.0651 2.85156 51.4635 2.97917 51.8438 3.15625V4.53906ZM60.9062 3.97656H57.8828V13H56.4766V3.97656H53.4531V2.78906H60.9062V3.97656ZM70.2969 13H68.7812L68.0703 10.7734H63.8203L63.1016 13H61.6562L65.0469 2.78906H66.9531L70.2969 13ZM67.6719 9.53125L65.9453 4.07031L64.2188 9.53125H67.6719ZM78.5 3.97656H75.4766V13H74.0703V3.97656H71.0469V2.78906H78.5V3.97656ZM87.0312 4.53906C86.651 4.33594 86.2604 4.17969 85.8594 4.07031C85.4583 3.95573 85.0208 3.89844 84.5469 3.89844C84.0052 3.89844 83.5234 3.99479 83.1016 4.1875C82.6797 4.38021 82.3229 4.65365 82.0312 5.00781C81.7448 5.35677 81.5234 5.77865 81.3672 6.27344C81.2161 6.76823 81.1406 7.3151 81.1406 7.91406C81.1406 8.53906 81.2031 9.09896 81.3281 9.59375C81.4531 10.0885 81.6484 10.5078 81.9141 10.8516C82.1797 11.1953 82.5182 11.4583 82.9297 11.6406C83.3464 11.8229 83.8438 11.9141 84.4219 11.9141C84.5208 11.9141 84.6276 11.9089 84.7422 11.8984C84.8568 11.888 84.9714 11.875 85.0859 11.8594C85.2005 11.8385 85.3099 11.8151 85.4141 11.7891C85.5234 11.763 85.6198 11.7344 85.7031 11.7031V8.45312H83.6172V7.30469H87.0781V12.5234C86.8646 12.6224 86.638 12.7109 86.3984 12.7891C86.1641 12.8672 85.9219 12.9323 85.6719 12.9844C85.4271 13.0365 85.1823 13.0755 84.9375 13.1016C84.6927 13.1276 84.4557 13.1406 84.2266 13.1406C83.5286 13.1406 82.8984 13.0312 82.3359 12.8125C81.7786 12.5938 81.3021 12.2708 80.9062 11.8438C80.5156 11.4115 80.2135 10.875 80 10.2344C79.7917 9.59375 79.6875 8.85156 79.6875 8.00781C79.6875 7.16927 79.8047 6.41927 80.0391 5.75781C80.2734 5.09115 80.6016 4.52865 81.0234 4.07031C81.4505 3.60677 81.9609 3.25521 82.5547 3.01562C83.1536 2.77083 83.8125 2.64844 84.5312 2.64844C84.9896 2.64844 85.4245 2.6901 85.8359 2.77344C86.2526 2.85156 86.651 2.97917 87.0312 3.15625V4.53906ZM95.8281 4.53906C95.4479 4.33594 95.0573 4.17969 94.6562 4.07031C94.2552 3.95573 93.8177 3.89844 93.3438 3.89844C92.8021 3.89844 92.3203 3.99479 91.8984 4.1875C91.4766 4.38021 91.1198 4.65365 90.8281 5.00781C90.5417 5.35677 90.3203 5.77865 90.1641 6.27344C90.013 6.76823 89.9375 7.3151 89.9375 7.91406C89.9375 8.53906 90 9.09896 90.125 9.59375C90.25 10.0885 90.4453 10.5078 90.7109 10.8516C90.9766 11.1953 91.3151 11.4583 91.7266 11.6406C92.1432 11.8229 92.6406 11.9141 93.2188 11.9141C93.3177 11.9141 93.4245 11.9089 93.5391 11.8984C93.6536 11.888 93.7682 11.875 93.8828 11.8594C93.9974 11.8385 94.1068 11.8151 94.2109 11.7891C94.3203 11.763 94.4167 11.7344 94.5 11.7031V8.45312H92.4141V7.30469H95.875V12.5234C95.6615 12.6224 95.4349 12.7109 95.1953 12.7891C94.9609 12.8672 94.7188 12.9323 94.4688 12.9844C94.224 13.0365 93.9792 13.0755 93.7344 13.1016C93.4896 13.1276 93.2526 13.1406 93.0234 13.1406C92.3255 13.1406 91.6953 13.0312 91.1328 12.8125C90.5755 12.5938 90.099 12.2708 89.7031 11.8438C89.3125 11.4115 89.0104 10.875 88.7969 10.2344C88.5885 9.59375 88.4844 8.85156 88.4844 8.00781C88.4844 7.16927 88.6016 6.41927 88.8359 5.75781C89.0703 5.09115 89.3984 4.52865 89.8203 4.07031C90.2474 3.60677 90.7578 3.25521 91.3516 3.01562C91.9505 2.77083 92.6094 2.64844 93.3281 2.64844C93.7865 2.64844 94.2214 2.6901 94.6328 2.77344C95.0495 2.85156 95.4479 2.97917 95.8281 3.15625V4.53906ZM105.484 13H103.969L103.258 10.7734H99.0078L98.2891 13H96.8438L100.234 2.78906H102.141L105.484 13ZM102.859 9.53125L101.133 4.07031L99.4062 9.53125H102.859ZM113.336 12.6172C112.518 12.9557 111.661 13.125 110.766 13.125C109.323 13.125 108.214 12.6953 107.438 11.8359C106.667 10.9714 106.281 9.69531 106.281 8.00781C106.281 7.1901 106.388 6.45052 106.602 5.78906C106.815 5.1276 107.12 4.56771 107.516 4.10938C107.911 3.64583 108.391 3.28906 108.953 3.03906C109.516 2.78906 110.146 2.66406 110.844 2.66406C111.318 2.66406 111.758 2.70573 112.164 2.78906C112.57 2.86719 112.961 2.98958 113.336 3.15625V4.52344C112.966 4.32031 112.583 4.16667 112.188 4.0625C111.792 3.95312 111.359 3.89844 110.891 3.89844C110.411 3.89844 109.977 3.98958 109.586 4.17188C109.201 4.34896 108.872 4.60938 108.602 4.95312C108.331 5.29167 108.122 5.70833 107.977 6.20312C107.831 6.69271 107.758 7.2526 107.758 7.88281C107.758 9.20573 108.026 10.2031 108.562 10.875C109.099 11.5469 109.885 11.8828 110.922 11.8828C111.359 11.8828 111.779 11.8333 112.18 11.7344C112.581 11.6302 112.966 11.487 113.336 11.3047V12.6172ZM123.078 13H121.562L120.852 10.7734H116.602L115.883 13H114.438L117.828 2.78906H119.734L123.078 13ZM120.453 9.53125L118.727 4.07031L117 9.53125H120.453ZM131.875 13H130.359L129.648 10.7734H125.398L124.68 13H123.234L126.625 2.78906H128.531L131.875 13ZM129.25 9.53125L127.523 4.07031L125.797 9.53125H129.25ZM139.727 12.6172C138.909 12.9557 138.052 13.125 137.156 13.125C135.714 13.125 134.604 12.6953 133.828 11.8359C133.057 10.9714 132.672 9.69531 132.672 8.00781C132.672 7.1901 132.779 6.45052 132.992 5.78906C133.206 5.1276 133.51 4.56771 133.906 4.10938C134.302 3.64583 134.781 3.28906 135.344 3.03906C135.906 2.78906 136.536 2.66406 137.234 2.66406C137.708 2.66406 138.148 2.70573 138.555 2.78906C138.961 2.86719 139.352 2.98958 139.727 3.15625V4.52344C139.357 4.32031 138.974 4.16667 138.578 4.0625C138.182 3.95312 137.75 3.89844 137.281 3.89844C136.802 3.89844 136.367 3.98958 135.977 4.17188C135.591 4.34896 135.263 4.60938 134.992 4.95312C134.721 5.29167 134.513 5.70833 134.367 6.20312C134.221 6.69271 134.148 7.2526 134.148 7.88281C134.148 9.20573 134.417 10.2031 134.953 10.875C135.49 11.5469 136.276 11.8828 137.312 11.8828C137.75 11.8828 138.169 11.8333 138.57 11.7344C138.971 11.6302 139.357 11.487 139.727 11.3047V12.6172ZM148.609 4.53906C148.229 4.33594 147.839 4.17969 147.438 4.07031C147.036 3.95573 146.599 3.89844 146.125 3.89844C145.583 3.89844 145.102 3.99479 144.68 4.1875C144.258 4.38021 143.901 4.65365 143.609 5.00781C143.323 5.35677 143.102 5.77865 142.945 6.27344C142.794 6.76823 142.719 7.3151 142.719 7.91406C142.719 8.53906 142.781 9.09896 142.906 9.59375C143.031 10.0885 143.227 10.5078 143.492 10.8516C143.758 11.1953 144.096 11.4583 144.508 11.6406C144.924 11.8229 145.422 11.9141 146 11.9141C146.099 11.9141 146.206 11.9089 146.32 11.8984C146.435 11.888 146.549 11.875 146.664 11.8594C146.779 11.8385 146.888 11.8151 146.992 11.7891C147.102 11.763 147.198 11.7344 147.281 11.7031V8.45312H145.195V7.30469H148.656V12.5234C148.443 12.6224 148.216 12.7109 147.977 12.7891C147.742 12.8672 147.5 12.9323 147.25 12.9844C147.005 13.0365 146.76 13.0755 146.516 13.1016C146.271 13.1276 146.034 13.1406 145.805 13.1406C145.107 13.1406 144.477 13.0312 143.914 12.8125C143.357 12.5938 142.88 12.2708 142.484 11.8438C142.094 11.4115 141.792 10.875 141.578 10.2344C141.37 9.59375 141.266 8.85156 141.266 8.00781C141.266 7.16927 141.383 6.41927 141.617 5.75781C141.852 5.09115 142.18 4.52865 142.602 4.07031C143.029 3.60677 143.539 3.25521 144.133 3.01562C144.732 2.77083 145.391 2.64844 146.109 2.64844C146.568 2.64844 147.003 2.6901 147.414 2.77344C147.831 2.85156 148.229 2.97917 148.609 3.15625V4.53906ZM158.266 13H156.75L156.039 10.7734H151.789L151.07 13H149.625L153.016 2.78906H154.922L158.266 13ZM155.641 9.53125L153.914 4.07031L152.188 9.53125H155.641ZM166.117 12.6172C165.299 12.9557 164.443 13.125 163.547 13.125C162.104 13.125 160.995 12.6953 160.219 11.8359C159.448 10.9714 159.062 9.69531 159.062 8.00781C159.062 7.1901 159.169 6.45052 159.383 5.78906C159.596 5.1276 159.901 4.56771 160.297 4.10938C160.693 3.64583 161.172 3.28906 161.734 3.03906C162.297 2.78906 162.927 2.66406 163.625 2.66406C164.099 2.66406 164.539 2.70573 164.945 2.78906C165.352 2.86719 165.742 2.98958 166.117 3.15625V4.52344C165.747 4.32031 165.365 4.16667 164.969 4.0625C164.573 3.95312 164.141 3.89844 163.672 3.89844C163.193 3.89844 162.758 3.98958 162.367 4.17188C161.982 4.34896 161.654 4.60938 161.383 4.95312C161.112 5.29167 160.904 5.70833 160.758 6.20312C160.612 6.69271 160.539 7.2526 160.539 7.88281C160.539 9.20573 160.807 10.2031 161.344 10.875C161.88 11.5469 162.667 11.8828 163.703 11.8828C164.141 11.8828 164.56 11.8333 164.961 11.7344C165.362 11.6302 165.747 11.487 166.117 11.3047V12.6172ZM175.266 3.97656H172.242V13H170.836V3.97656H167.812V2.78906H175.266V3.97656Z" fill="#C9D1D9"/>
<path d="M8.71875 32H7.20312L6.49219 29.7734H2.24219L1.52344 32H0.078125L3.46875 21.7891H5.375L8.71875 32ZM6.09375 28.5312L4.36719 23.0703L2.64062 28.5312H6.09375ZM16.9219 22.9766H13.8984V32H12.4922V22.9766H9.46875V21.7891H16.9219V22.9766ZM25.4531 23.5391C25.0729 23.3359 24.6823 23.1797 24.2812 23.0703C23.8802 22.9557 23.4427 22.8984 22.9688 22.8984C22.4271 22.8984 21.9453 22.9948 21.5234 23.1875C21.1016 23.3802 20.7448 23.6536 20.4531 24.0078C20.1667 24.3568 19.9453 24.7786 19.7891 25.2734C19.638 25.7682 19.5625 26.3151 19.5625 26.9141C19.5625 27.5391 19.625 28.099 19.75 28.5938C19.875 29.0885 20.0703 29.5078 20.3359 29.8516C20.6016 30.1953 20.9401 30.4583 21.3516 30.6406C21.7682 30.8229 22.2656 30.9141 22.8438 30.9141C22.9427 30.9141 23.0495 30.9089 23.1641 30.8984C23.2786 30.888 23.3932 30.875 23.5078 30.8594C23.6224 30.8385 23.7318 30.8151 23.8359 30.7891C23.9453 30.763 24.0417 30.7344 24.125 30.7031V27.4531H22.0391V26.3047H25.5V31.5234C25.2865 31.6224 25.0599 31.7109 24.8203 31.7891C24.5859 31.8672 24.3438 31.9323 24.0938 31.9844C23.849 32.0365 23.6042 32.0755 23.3594 32.1016C23.1146 32.1276 22.8776 32.1406 22.6484 32.1406C21.9505 32.1406 21.3203 32.0312 20.7578 31.8125C20.2005 31.5938 19.724 31.2708 19.3281 30.8438C18.9375 30.4115 18.6354 29.875 18.4219 29.2344C18.2135 28.5938 18.1094 27.8516 18.1094 27.0078C18.1094 26.1693 18.2266 25.4193 18.4609 24.7578C18.6953 24.0911 19.0234 23.5286 19.4453 23.0703C19.8724 22.6068 20.3828 22.2552 20.9766 22.0156C21.5755 21.7708 22.2344 21.6484 22.9531 21.6484C23.4115 21.6484 23.8464 21.6901 24.2578 21.7734C24.6745 21.8516 25.0729 21.9792 25.4531 22.1562V23.5391ZM34.1641 31.6172C33.3464 31.9557 32.4896 32.125 31.5938 32.125C30.151 32.125 29.0417 31.6953 28.2656 30.8359C27.4948 29.9714 27.1094 28.6953 27.1094 27.0078C27.1094 26.1901 27.2161 25.4505 27.4297 24.7891C27.6432 24.1276 27.9479 23.5677 28.3438 23.1094C28.7396 22.6458 29.2188 22.2891 29.7812 22.0391C30.3438 21.7891 30.974 21.6641 31.6719 21.6641C32.1458 21.6641 32.5859 21.7057 32.9922 21.7891C33.3984 21.8672 33.7891 21.9896 34.1641 22.1562V23.5234C33.7943 23.3203 33.4115 23.1667 33.0156 23.0625C32.6198 22.9531 32.1875 22.8984 31.7188 22.8984C31.2396 22.8984 30.8047 22.9896 30.4141 23.1719C30.0286 23.349 29.7005 23.6094 29.4297 23.9531C29.1589 24.2917 28.9505 24.7083 28.8047 25.2031C28.6589 25.6927 28.5859 26.2526 28.5859 26.8828C28.5859 28.2057 28.8542 29.2031 29.3906 29.875C29.9271 30.5469 30.7135 30.8828 31.75 30.8828C32.1875 30.8828 32.6068 30.8333 33.0078 30.7344C33.4089 30.6302 33.7943 30.487 34.1641 30.3047V31.6172ZM42.9609 31.6172C42.1432 31.9557 41.2865 32.125 40.3906 32.125C38.9479 32.125 37.8385 31.6953 37.0625 30.8359C36.2917 29.9714 35.9062 28.6953 35.9062 27.0078C35.9062 26.1901 36.013 25.4505 36.2266 24.7891C36.4401 24.1276 36.7448 23.5677 37.1406 23.1094C37.5365 22.6458 38.0156 22.2891 38.5781 22.0391C39.1406 21.7891 39.7708 21.6641 40.4688 21.6641C40.9427 21.6641 41.3828 21.7057 41.7891 21.7891C42.1953 21.8672 42.5859 21.9896 42.9609 22.1562V23.5234C42.5911 23.3203 42.2083 23.1667 41.8125 23.0625C41.4167 22.9531 40.9844 22.8984 40.5156 22.8984C40.0365 22.8984 39.6016 22.9896 39.2109 23.1719C38.8255 23.349 38.4974 23.6094 38.2266 23.9531C37.9557 24.2917 37.7474 24.7083 37.6016 25.2031C37.4557 25.6927 37.3828 26.2526 37.3828 26.8828C37.3828 28.2057 37.651 29.2031 38.1875 29.875C38.724 30.5469 39.5104 30.8828 40.5469 30.8828C40.9844 30.8828 41.4036 30.8333 41.8047 30.7344C42.2057 30.6302 42.5911 30.487 42.9609 30.3047V31.6172ZM51.8438 23.5391C51.4635 23.3359 51.0729 23.1797 50.6719 23.0703C50.2708 22.9557 49.8333 22.8984 49.3594 22.8984C48.8177 22.8984 48.3359 22.9948 47.9141 23.1875C47.4922 23.3802 47.1354 23.6536 46.8438 24.0078C46.5573 24.3568 46.3359 24.7786 46.1797 25.2734C46.0286 25.7682 45.9531 26.3151 45.9531 26.9141C45.9531 27.5391 46.0156 28.099 46.1406 28.5938C46.2656 29.0885 46.4609 29.5078 46.7266 29.8516C46.9922 30.1953 47.3307 30.4583 47.7422 30.6406C48.1589 30.8229 48.6562 30.9141 49.2344 30.9141C49.3333 30.9141 49.4401 30.9089 49.5547 30.8984C49.6693 30.888 49.7839 30.875 49.8984 30.8594C50.013 30.8385 50.1224 30.8151 50.2266 30.7891C50.3359 30.763 50.4323 30.7344 50.5156 30.7031V27.4531H48.4297V26.3047H51.8906V31.5234C51.6771 31.6224 51.4505 31.7109 51.2109 31.7891C50.9766 31.8672 50.7344 31.9323 50.4844 31.9844C50.2396 32.0365 49.9948 32.0755 49.75 32.1016C49.5052 32.1276 49.2682 32.1406 49.0391 32.1406C48.3411 32.1406 47.7109 32.0312 47.1484 31.8125C46.5911 31.5938 46.1146 31.2708 45.7188 30.8438C45.3281 30.4115 45.026 29.875 44.8125 29.2344C44.6042 28.5938 44.5 27.8516 44.5 27.0078C44.5 26.1693 44.6172 25.4193 44.8516 24.7578C45.0859 24.0911 45.4141 23.5286 45.8359 23.0703C46.263 22.6068 46.7734 22.2552 47.3672 22.0156C47.9661 21.7708 48.625 21.6484 49.3438 21.6484C49.8021 21.6484 50.237 21.6901 50.6484 21.7734C51.0651 21.8516 51.4635 21.9792 51.8438 22.1562V23.5391ZM60.9062 22.9766H57.8828V32H56.4766V22.9766H53.4531V21.7891H60.9062V22.9766ZM70.2969 32H68.7812L68.0703 29.7734H63.8203L63.1016 32H61.6562L65.0469 21.7891H66.9531L70.2969 32ZM67.6719 28.5312L65.9453 23.0703L64.2188 28.5312H67.6719ZM78.5 22.9766H75.4766V32H74.0703V22.9766H71.0469V21.7891H78.5V22.9766ZM87.0312 23.5391C86.651 23.3359 86.2604 23.1797 85.8594 23.0703C85.4583 22.9557 85.0208 22.8984 84.5469 22.8984C84.0052 22.8984 83.5234 22.9948 83.1016 23.1875C82.6797 23.3802 82.3229 23.6536 82.0312 24.0078C81.7448 24.3568 81.5234 24.7786 81.3672 25.2734C81.2161 25.7682 81.1406 26.3151 81.1406 26.9141C81.1406 27.5391 81.2031 28.099 81.3281 28.5938C81.4531 29.0885 81.6484 29.5078 81.9141 29.8516C82.1797 30.1953 82.5182 30.4583 82.9297 30.6406C83.3464 30.8229 83.8438 30.9141 84.4219 30.9141C84.5208 30.9141 84.6276 30.9089 84.7422 30.8984C84.8568 30.888 84.9714 30.875 85.0859 30.8594C85.2005 30.8385 85.3099 30.8151 85.4141 30.7891C85.5234 30.763 85.6198 30.7344 85.7031 30.7031V27.4531H83.6172V26.3047H87.0781V31.5234C86.8646 31.6224 86.638 31.7109 86.3984 31.7891C86.1641 31.8672 85.9219 31.9323 85.6719 31.9844C85.4271 32.0365 85.1823 32.0755 84.9375 32.1016C84.6927 32.1276 84.4557 32.1406 84.2266 32.1406C83.5286 32.1406 82.8984 32.0312 82.3359 31.8125C81.7786 31.5938 81.3021 31.2708 80.9062 30.8438C80.5156 30.4115 80.2135 29.875 80 29.2344C79.7917 28.5938 79.6875 27.8516 79.6875 27.0078C79.6875 26.1693 79.8047 25.4193 80.0391 24.7578C80.2734 24.0911 80.6016 23.5286 81.0234 23.0703C81.4505 22.6068 81.9609 22.2552 82.5547 22.0156C83.1536 21.7708 83.8125 21.6484 84.5312 21.6484C84.9896 21.6484 85.4245 21.6901 85.8359 21.7734C86.2526 21.8516 86.651 21.9792 87.0312 22.1562V23.5391Z" fill="#FF7F50"/>
<path d="M25.4531 42.5391C25.0729 42.3359 24.6823 42.1797 24.2812 42.0703C23.8802 41.9557 23.4427 41.8984 22.9688 41.8984C22.4271 41.8984 21.9453 41.9948 21.5234 42.1875C21.1016 42.3802 20.7448 42.6536 20.4531 43.0078C20.1667 43.3568 19.9453 43.7786 19.7891 44.2734C19.638 44.7682 19.5625 45.3151 19.5625 45.9141C19.5625 46.5391 19.625 47.099 19.75 47.5938C19.875 48.0885 20.0703 48.5078 20.3359 48.8516C20.6016 49.1953 20.9401 49.4583 21.3516 49.6406C21.7682 49.8229 22.2656 49.9141 22.8438 49.9141C22.9427 49.9141 23.0495 49.9089 23.1641 49.8984C23.2786 49.888 23.3932 49.875 23.5078 49.8594C23.6224 49.8385 23.7318 49.8151 23.8359 49.7891C23.9453 49.763 24.0417 49.7344 24.125 49.7031V46.4531H22.0391V45.3047H25.5V50.5234C25.2865 50.6224 25.0599 50.7109 24.8203 50.7891C24.5859 50.8672 24.3438 50.9323 24.0938 50.9844C23.849 51.0365 23.6042 51.0755 23.3594 51.1016C23.1146 51.1276 22.8776 51.1406 22.6484 51.1406C21.9505 51.1406 21.3203 51.0312 20.7578 50.8125C20.2005 50.5938 19.724 50.2708 19.3281 49.8438C18.9375 49.4115 18.6354 48.875 18.4219 48.2344C18.2135 47.5938 18.1094 46.8516 18.1094 46.0078C18.1094 45.1693 18.2266 44.4193 18.4609 43.7578C18.6953 43.0911 19.0234 42.5286 19.4453 42.0703C19.8724 41.6068 20.3828 41.2552 20.9766 41.0156C21.5755 40.7708 22.2344 40.6484 22.9531 40.6484C23.4115 40.6484 23.8464 40.6901 24.2578 40.7734C24.6745 40.8516 25.0729 40.9792 25.4531 41.1562V42.5391ZM34.1641 50.6172C33.3464 50.9557 32.4896 51.125 31.5938 51.125C30.151 51.125 29.0417 50.6953 28.2656 49.8359C27.4948 48.9714 27.1094 47.6953 27.1094 46.0078C27.1094 45.1901 27.2161 44.4505 27.4297 43.7891C27.6432 43.1276 27.9479 42.5677 28.3438 42.1094C28.7396 41.6458 29.2188 41.2891 29.7812 41.0391C30.3438 40.7891 30.974 40.6641 31.6719 40.6641C32.1458 40.6641 32.5859 40.7057 32.9922 40.7891C33.3984 40.8672 33.7891 40.9896 34.1641 41.1562V42.5234C33.7943 42.3203 33.4115 42.1667 33.0156 42.0625C32.6198 41.9531 32.1875 41.8984 31.7188 41.8984C31.2396 41.8984 30.8047 41.9896 30.4141 42.1719C30.0286 42.349 29.7005 42.6094 29.4297 42.9531C29.1589 43.2917 28.9505 43.7083 28.8047 44.2031C28.6589 44.6927 28.5859 45.2526 28.5859 45.8828C28.5859 47.2057 28.8542 48.2031 29.3906 48.875C29.9271 49.5469 30.7135 49.8828 31.75 49.8828C32.1875 49.8828 32.6068 49.8333 33.0078 49.7344C33.4089 49.6302 33.7943 49.487 34.1641 49.3047V50.6172ZM42.9609 50.6172C42.1432 50.9557 41.2865 51.125 40.3906 51.125C38.9479 51.125 37.8385 50.6953 37.0625 49.8359C36.2917 48.9714 35.9062 47.6953 35.9062 46.0078C35.9062 45.1901 36.013 44.4505 36.2266 43.7891C36.4401 43.1276 36.7448 42.5677 37.1406 42.1094C37.5365 41.6458 38.0156 41.2891 38.5781 41.0391C39.1406 40.7891 39.7708 40.6641 40.4688 40.6641C40.9427 40.6641 41.3828 40.7057 41.7891 40.7891C42.1953 40.8672 42.5859 40.9896 42.9609 41.1562V42.5234C42.5911 42.3203 42.2083 42.1667 41.8125 42.0625C41.4167 41.9531 40.9844 41.8984 40.5156 41.8984C40.0365 41.8984 39.6016 41.9896 39.2109 42.1719C38.8255 42.349 38.4974 42.6094 38.2266 42.9531C37.9557 43.2917 37.7474 43.7083 37.6016 44.2031C37.4557 44.6927 37.3828 45.2526 37.3828 45.8828C37.3828 47.2057 37.651 48.2031 38.1875 48.875C38.724 49.5469 39.5104 49.8828 40.5469 49.8828C40.9844 49.8828 41.4036 49.8333 41.8047 49.7344C42.2057 49.6302 42.5911 49.487 42.9609 49.3047V50.6172ZM51.8438 42.5391C51.4635 42.3359 51.0729 42.1797 50.6719 42.0703C50.2708 41.9557 49.8333 41.8984 49.3594 41.8984C48.8177 41.8984 48.3359 41.9948 47.9141 42.1875C47.4922 42.3802 47.1354 42.6536 46.8438 43.0078C46.5573 43.3568 46.3359 43.7786 46.1797 44.2734C46.0286 44.7682 45.9531 45.3151 45.9531 45.9141C45.9531 46.5391 46.0156 47.099 46.1406 47.5938C46.2656 48.0885 46.4609 48.5078 46.7266 48.8516C46.9922 49.1953 47.3307 49.4583 47.7422 49.6406C48.1589 49.8229 48.6562 49.9141 49.2344 49.9141C49.3333 49.9141 49.4401 49.9089 49.5547 49.8984C49.6693 49.888 49.7839 49.875 49.8984 49.8594C50.013 49.8385 50.1224 49.8151 50.2266 49.7891C50.3359 49.763 50.4323 49.7344 50.5156 49.7031V46.4531H48.4297V45.3047H51.8906V50.5234C51.6771 50.6224 51.4505 50.7109 51.2109 50.7891C50.9766 50.8672 50.7344 50.9323 50.4844 50.9844C50.2396 51.0365 49.9948 51.0755 49.75 51.1016C49.5052 51.1276 49.2682 51.1406 49.0391 51.1406C48.3411 51.1406 47.7109 51.0312 47.1484 50.8125C46.5911 50.5938 46.1146 50.2708 45.7188 49.8438C45.3281 49.4115 45.026 48.875 44.8125 48.2344C44.6042 47.5938 44.5 46.8516 44.5 46.0078C44.5 45.1693 44.6172 44.4193 44.8516 43.7578C45.0859 43.0911 45.4141 42.5286 45.8359 42.0703C46.263 41.6068 46.7734 41.2552 47.3672 41.0156C47.9661 40.7708 48.625 40.6484 49.3438 40.6484C49.8021 40.6484 50.237 40.6901 50.6484 40.7734C51.0651 40.8516 51.4635 40.9792 51.8438 41.1562V42.5391ZM60.9062 41.9766H57.8828V51H56.4766V41.9766H53.4531V40.7891H60.9062V41.9766ZM70.2969 51H68.7812L68.0703 48.7734H63.8203L63.1016 51H61.6562L65.0469 40.7891H66.9531L70.2969 51ZM67.6719 47.5312L65.9453 42.0703L64.2188 47.5312H67.6719ZM78.5 41.9766H75.4766V51H74.0703V41.9766H71.0469V40.7891H78.5V41.9766ZM87.0312 42.5391C86.651 42.3359 86.2604 42.1797 85.8594 42.0703C85.4583 41.9557 85.0208 41.8984 84.5469 41.8984C84.0052 41.8984 83.5234 41.9948 83.1016 42.1875C82.6797 42.3802 82.3229 42.6536 82.0312 43.0078C81.7448 43.3568 81.5234 43.7786 81.3672 44.2734C81.2161 44.7682 81.1406 45.3151 81.1406 45.9141C81.1406 46.5391 81.2031 47.099 81.3281 47.5938C81.4531 48.0885 81.6484 48.5078 81.9141 48.8516C82.1797 49.1953 82.5182 49.4583 82.9297 49.6406C83.3464 49.8229 83.8438 49.9141 84.4219 49.9141C84.5208 49.9141 84.6276 49.9089 84.7422 49.8984C84.8568 49.888 84.9714 49.875 85.0859 49.8594C85.2005 49.8385 85.3099 49.8151 85.4141 49.7891C85.5234 49.763 85.6198 49.7344 85.7031 49.7031V46.4531H83.6172V45.3047H87.0781V50.5234C86.8646 50.6224 86.638 50.7109 86.3984 50.7891C86.1641 50.8672 85.9219 50.9323 85.6719 50.9844C85.4271 51.0365 85.1823 51.0755 84.9375 51.1016C84.6927 51.1276 84.4557 51.1406 84.2266 51.1406C83.5286 51.1406 82.8984 51.0312 82.3359 50.8125C81.7786 50.5938 81.3021 50.2708 80.9062 49.8438C80.5156 49.4115 80.2135 48.875 80 48.2344C79.7917 47.5938 79.6875 46.8516 79.6875 46.0078C79.6875 45.1693 79.8047 44.4193 80.0391 43.7578C80.2734 43.0911 80.6016 42.5286 81.0234 42.0703C81.4505 41.6068 81.9609 41.2552 82.5547 41.0156C83.1536 40.7708 83.8125 40.6484 84.5312 40.6484C84.9896 40.6484 85.4245 40.6901 85.8359 40.7734C86.2526 40.8516 86.651 40.9792 87.0312 41.1562V42.5391ZM95.8281 42.5391C95.4479 42.3359 95.0573 42.1797 94.6562 42.0703C94.2552 41.9557 93.8177 41.8984 93.3438 41.8984C92.8021 41.8984 92.3203 41.9948 91.8984 42.1875C91.4766 42.3802 91.1198 42.6536 90.8281 43.0078C90.5417 43.3568 90.3203 43.7786 90.1641 44.2734C90.013 44.7682 89.9375 45.3151 89.9375 45.9141C89.9375 46.5391 90 47.099 90.125 47.5938C90.25 48.0885 90.4453 48.5078 90.7109 48.8516C90.9766 49.1953 91.3151 49.4583 91.7266 49.6406C92.1432 49.8229 92.6406 49.9141 93.2188 49.9141C93.3177 49.9141 93.4245 49.9089 93.5391 49.8984C93.6536 49.888 93.7682 49.875 93.8828 49.8594C93.9974 49.8385 94.1068 49.8151 94.2109 49.7891C94.3203 49.763 94.4167 49.7344 94.5 49.7031V46.4531H92.4141V45.3047H95.875V50.5234C95.6615 50.6224 95.4349 50.7109 95.1953 50.7891C94.9609 50.8672 94.7188 50.9323 94.4688 50.9844C94.224 51.0365 93.9792 51.0755 93.7344 51.1016C93.4896 51.1276 93.2526 51.1406 93.0234 51.1406C92.3255 51.1406 91.6953 51.0312 91.1328 50.8125C90.5755 50.5938 90.099 50.2708 89.7031 49.8438C89.3125 49.4115 89.0104 48.875 88.7969 48.2344C88.5885 47.5938 88.4844 46.8516 88.4844 46.0078C88.4844 45.1693 88.6016 44.4193 88.8359 43.7578C89.0703 43.0911 89.3984 42.5286 89.8203 42.0703C90.2474 41.6068 90.7578 41.2552 91.3516 41.0156C91.9505 40.7708 92.6094 40.6484 93.3281 40.6484C93.7865 40.6484 94.2214 40.6901 94.6328 40.7734C95.0495 40.8516 95.4479 40.9792 95.8281 41.1562V42.5391ZM105.484 51H103.969L103.258 48.7734H99.0078L98.2891 51H96.8438L100.234 40.7891H102.141L105.484 51ZM102.859 47.5312L101.133 42.0703L99.4062 47.5312H102.859Z" fill="#247F8F"/>
<path d="M51.8438 61.5391C51.4635 61.3359 51.0729 61.1797 50.6719 61.0703C50.2708 60.9557 49.8333 60.8984 49.3594 60.8984C48.8177 60.8984 48.3359 60.9948 47.9141 61.1875C47.4922 61.3802 47.1354 61.6536 46.8438 62.0078C46.5573 62.3568 46.3359 62.7786 46.1797 63.2734C46.0286 63.7682 45.9531 64.3151 45.9531 64.9141C45.9531 65.5391 46.0156 66.099 46.1406 66.5938C46.2656 67.0885 46.4609 67.5078 46.7266 67.8516C46.9922 68.1953 47.3307 68.4583 47.7422 68.6406C48.1589 68.8229 48.6562 68.9141 49.2344 68.9141C49.3333 68.9141 49.4401 68.9089 49.5547 68.8984C49.6693 68.888 49.7839 68.875 49.8984 68.8594C50.013 68.8385 50.1224 68.8151 50.2266 68.7891C50.3359 68.763 50.4323 68.7344 50.5156 68.7031V65.4531H48.4297V64.3047H51.8906V69.5234C51.6771 69.6224 51.4505 69.7109 51.2109 69.7891C50.9766 69.8672 50.7344 69.9323 50.4844 69.9844C50.2396 70.0365 49.9948 70.0755 49.75 70.1016C49.5052 70.1276 49.2682 70.1406 49.0391 70.1406C48.3411 70.1406 47.7109 70.0312 47.1484 69.8125C46.5911 69.5938 46.1146 69.2708 45.7188 68.8438C45.3281 68.4115 45.026 67.875 44.8125 67.2344C44.6042 66.5938 44.5 65.8516 44.5 65.0078C44.5 64.1693 44.6172 63.4193 44.8516 62.7578C45.0859 62.0911 45.4141 61.5286 45.8359 61.0703C46.263 60.6068 46.7734 60.2552 47.3672 60.0156C47.9661 59.7708 48.625 59.6484 49.3438 59.6484C49.8021 59.6484 50.237 59.6901 50.6484 59.7734C51.0651 59.8516 51.4635 59.9792 51.8438 60.1562V61.5391ZM60.9062 60.9766H57.8828V70H56.4766V60.9766H53.4531V59.7891H60.9062V60.9766ZM70.2969 70H68.7812L68.0703 67.7734H63.8203L63.1016 70H61.6562L65.0469 59.7891H66.9531L70.2969 70ZM67.6719 66.5312L65.9453 61.0703L64.2188 66.5312H67.6719ZM78.5 60.9766H75.4766V70H74.0703V60.9766H71.0469V59.7891H78.5V60.9766ZM87.0312 61.5391C86.651 61.3359 86.2604 61.1797 85.8594 61.0703C85.4583 60.9557 85.0208 60.8984 84.5469 60.8984C84.0052 60.8984 83.5234 60.9948 83.1016 61.1875C82.6797 61.3802 82.3229 61.6536 82.0312 62.0078C81.7448 62.3568 81.5234 62.7786 81.3672 63.2734C81.2161 63.7682 81.1406 64.3151 81.1406 64.9141C81.1406 65.5391 81.2031 66.099 81.3281 66.5938C81.4531 67.0885 81.6484 67.5078 81.9141 67.8516C82.1797 68.1953 82.5182 68.4583 82.9297 68.6406C83.3464 68.8229 83.8438 68.9141 84.4219 68.9141C84.5208 68.9141 84.6276 68.9089 84.7422 68.8984C84.8568 68.888 84.9714 68.875 85.0859 68.8594C85.2005 68.8385 85.3099 68.8151 85.4141 68.7891C85.5234 68.763 85.6198 68.7344 85.7031 68.7031V65.4531H83.6172V64.3047H87.0781V69.5234C86.8646 69.6224 86.638 69.7109 86.3984 69.7891C86.1641 69.8672 85.9219 69.9323 85.6719 69.9844C85.4271 70.0365 85.1823 70.0755 84.9375 70.1016C84.6927 70.1276 84.4557 70.1406 84.2266 70.1406C83.5286 70.1406 82.8984 70.0312 82.3359 69.8125C81.7786 69.5938 81.3021 69.2708 80.9062 68.8438C80.5156 68.4115 80.2135 67.875 80 67.2344C79.7917 66.5938 79.6875 65.8516 79.6875 65.0078C79.6875 64.1693 79.8047 63.4193 80.0391 62.7578C80.2734 62.0911 80.6016 61.5286 81.0234 61.0703C81.4505 60.6068 81.9609 60.2552 82.5547 60.0156C83.1536 59.7708 83.8125 59.6484 84.5312 59.6484C84.9896 59.6484 85.4245 59.6901 85.8359 59.7734C86.2526 59.8516 86.651 59.9792 87.0312 60.1562V61.5391ZM95.8281 61.5391C95.4479 61.3359 95.0573 61.1797 94.6562 61.0703C94.2552 60.9557 93.8177 60.8984 93.3438 60.8984C92.8021 60.8984 92.3203 60.9948 91.8984 61.1875C91.4766 61.3802 91.1198 61.6536 90.8281 62.0078C90.5417 62.3568 90.3203 62.7786 90.1641 63.2734C90.013 63.7682 89.9375 64.3151 89.9375 64.9141C89.9375 65.5391 90 66.099 90.125 66.5938C90.25 67.0885 90.4453 67.5078 90.7109 67.8516C90.9766 68.1953 91.3151 68.4583 91.7266 68.6406C92.1432 68.8229 92.6406 68.9141 93.2188 68.9141C93.3177 68.9141 93.4245 68.9089 93.5391 68.8984C93.6536 68.888 93.7682 68.875 93.8828 68.8594C93.9974 68.8385 94.1068 68.8151 94.2109 68.7891C94.3203 68.763 94.4167 68.7344 94.5 68.7031V65.4531H92.4141V64.3047H95.875V69.5234C95.6615 69.6224 95.4349 69.7109 95.1953 69.7891C94.9609 69.8672 94.7188 69.9323 94.4688 69.9844C94.224 70.0365 93.9792 70.0755 93.7344 70.1016C93.4896 70.1276 93.2526 70.1406 93.0234 70.1406C92.3255 70.1406 91.6953 70.0312 91.1328 69.8125C90.5755 69.5938 90.099 69.2708 89.7031 68.8438C89.3125 68.4115 89.0104 67.875 88.7969 67.2344C88.5885 66.5938 88.4844 65.8516 88.4844 65.0078C88.4844 64.1693 88.6016 63.4193 88.8359 62.7578C89.0703 62.0911 89.3984 61.5286 89.8203 61.0703C90.2474 60.6068 90.7578 60.2552 91.3516 60.0156C91.9505 59.7708 92.6094 59.6484 93.3281 59.6484C93.7865 59.6484 94.2214 59.6901 94.6328 59.7734C95.0495 59.8516 95.4479 59.9792 95.8281 60.1562V61.5391ZM105.484 70H103.969L103.258 67.7734H99.0078L98.2891 70H96.8438L100.234 59.7891H102.141L105.484 70ZM102.859 66.5312L101.133 61.0703L99.4062 66.5312H102.859ZM113.336 69.6172C112.518 69.9557 111.661 70.125 110.766 70.125C109.323 70.125 108.214 69.6953 107.438 68.8359C106.667 67.9714 106.281 66.6953 106.281 65.0078C106.281 64.1901 106.388 63.4505 106.602 62.7891C106.815 62.1276 107.12 61.5677 107.516 61.1094C107.911 60.6458 108.391 60.2891 108.953 60.0391C109.516 59.7891 110.146 59.6641 110.844 59.6641C111.318 59.6641 111.758 59.7057 112.164 59.7891C112.57 59.8672 112.961 59.9896 113.336 60.1562V61.5234C112.966 61.3203 112.583 61.1667 112.188 61.0625C111.792 60.9531 111.359 60.8984 110.891 60.8984C110.411 60.8984 109.977 60.9896 109.586 61.1719C109.201 61.349 108.872 61.6094 108.602 61.9531C108.331 62.2917 108.122 62.7083 107.977 63.2031C107.831 63.6927 107.758 64.2526 107.758 64.8828C107.758 66.2057 108.026 67.2031 108.562 67.875C109.099 68.5469 109.885 68.8828 110.922 68.8828C111.359 68.8828 111.779 68.8333 112.18 68.7344C112.581 68.6302 112.966 68.487 113.336 68.3047V69.6172ZM123.078 70H121.562L120.852 67.7734H116.602L115.883 70H114.438L117.828 59.7891H119.734L123.078 70ZM120.453 66.5312L118.727 61.0703L117 66.5312H120.453ZM131.875 70H130.359L129.648 67.7734H125.398L124.68 70H123.234L126.625 59.7891H128.531L131.875 70ZM129.25 66.5312L127.523 61.0703L125.797 66.5312H129.25Z" fill="#E0E33C"/>
<path d="M95.8281 80.5391C95.4479 80.3359 95.0573 80.1797 94.6562 80.0703C94.2552 79.9557 93.8177 79.8984 93.3438 79.8984C92.8021 79.8984 92.3203 79.9948 91.8984 80.1875C91.4766 80.3802 91.1198 80.6536 90.8281 81.0078C90.5417 81.3568 90.3203 81.7786 90.1641 82.2734C90.013 82.7682 89.9375 83.3151 89.9375 83.9141C89.9375 84.5391 90 85.099 90.125 85.5938C90.25 86.0885 90.4453 86.5078 90.7109 86.8516C90.9766 87.1953 91.3151 87.4583 91.7266 87.6406C92.1432 87.8229 92.6406 87.9141 93.2188 87.9141C93.3177 87.9141 93.4245 87.9089 93.5391 87.8984C93.6536 87.888 93.7682 87.875 93.8828 87.8594C93.9974 87.8385 94.1068 87.8151 94.2109 87.7891C94.3203 87.763 94.4167 87.7344 94.5 87.7031V84.4531H92.4141V83.3047H95.875V88.5234C95.6615 88.6224 95.4349 88.7109 95.1953 88.7891C94.9609 88.8672 94.7188 88.9323 94.4688 88.9844C94.224 89.0365 93.9792 89.0755 93.7344 89.1016C93.4896 89.1276 93.2526 89.1406 93.0234 89.1406C92.3255 89.1406 91.6953 89.0312 91.1328 88.8125C90.5755 88.5938 90.099 88.2708 89.7031 87.8438C89.3125 87.4115 89.0104 86.875 88.7969 86.2344C88.5885 85.5938 88.4844 84.8516 88.4844 84.0078C88.4844 83.1693 88.6016 82.4193 88.8359 81.7578C89.0703 81.0911 89.3984 80.5286 89.8203 80.0703C90.2474 79.6068 90.7578 79.2552 91.3516 79.0156C91.9505 78.7708 92.6094 78.6484 93.3281 78.6484C93.7865 78.6484 94.2214 78.6901 94.6328 78.7734C95.0495 78.8516 95.4479 78.9792 95.8281 79.1562V80.5391ZM105.484 89H103.969L103.258 86.7734H99.0078L98.2891 89H96.8438L100.234 78.7891H102.141L105.484 89ZM102.859 85.5312L101.133 80.0703L99.4062 85.5312H102.859ZM113.336 88.6172C112.518 88.9557 111.661 89.125 110.766 89.125C109.323 89.125 108.214 88.6953 107.438 87.8359C106.667 86.9714 106.281 85.6953 106.281 84.0078C106.281 83.1901 106.388 82.4505 106.602 81.7891C106.815 81.1276 107.12 80.5677 107.516 80.1094C107.911 79.6458 108.391 79.2891 108.953 79.0391C109.516 78.7891 110.146 78.6641 110.844 78.6641C111.318 78.6641 111.758 78.7057 112.164 78.7891C112.57 78.8672 112.961 78.9896 113.336 79.1562V80.5234C112.966 80.3203 112.583 80.1667 112.188 80.0625C111.792 79.9531 111.359 79.8984 110.891 79.8984C110.411 79.8984 109.977 79.9896 109.586 80.1719C109.201 80.349 108.872 80.6094 108.602 80.9531C108.331 81.2917 108.122 81.7083 107.977 82.2031C107.831 82.6927 107.758 83.2526 107.758 83.8828C107.758 85.2057 108.026 86.2031 108.562 86.875C109.099 87.5469 109.885 87.8828 110.922 87.8828C111.359 87.8828 111.779 87.8333 112.18 87.7344C112.581 87.6302 112.966 87.487 113.336 87.3047V88.6172ZM123.078 89H121.562L120.852 86.7734H116.602L115.883 89H114.438L117.828 78.7891H119.734L123.078 89ZM120.453 85.5312L118.727 80.0703L117 85.5312H120.453ZM131.875 89H130.359L129.648 86.7734H125.398L124.68 89H123.234L126.625 78.7891H128.531L131.875 89ZM129.25 85.5312L127.523 80.0703L125.797 85.5312H129.25ZM139.727 88.6172C138.909 88.9557 138.052 89.125 137.156 89.125C135.714 89.125 134.604 88.6953 133.828 87.8359C133.057 86.9714 132.672 85.6953 132.672 84.0078C132.672 83.1901 132.779 82.4505 132.992 81.7891C133.206 81.1276 133.51 80.5677 133.906 80.1094C134.302 79.6458 134.781 79.2891 135.344 79.0391C135.906 78.7891 136.536 78.6641 137.234 78.6641C137.708 78.6641 138.148 78.7057 138.555 78.7891C138.961 78.8672 139.352 78.9896 139.727 79.1562V80.5234C139.357 80.3203 138.974 80.1667 138.578 80.0625C138.182 79.9531 137.75 79.8984 137.281 79.8984C136.802 79.8984 136.367 79.9896 135.977 80.1719C135.591 80.349 135.263 80.6094 134.992 80.9531C134.721 81.2917 134.513 81.7083 134.367 82.2031C134.221 82.6927 134.148 83.2526 134.148 83.8828C134.148 85.2057 134.417 86.2031 134.953 86.875C135.49 87.5469 136.276 87.8828 137.312 87.8828C137.75 87.8828 138.169 87.8333 138.57 87.7344C138.971 87.6302 139.357 87.487 139.727 87.3047V88.6172ZM148.609 80.5391C148.229 80.3359 147.839 80.1797 147.438 80.0703C147.036 79.9557 146.599 79.8984 146.125 79.8984C145.583 79.8984 145.102 79.9948 144.68 80.1875C144.258 80.3802 143.901 80.6536 143.609 81.0078C143.323 81.3568 143.102 81.7786 142.945 82.2734C142.794 82.7682 142.719 83.3151 142.719 83.9141C142.719 84.5391 142.781 85.099 142.906 85.5938C143.031 86.0885 143.227 86.5078 143.492 86.8516C143.758 87.1953 144.096 87.4583 144.508 87.6406C144.924 87.8229 145.422 87.9141 146 87.9141C146.099 87.9141 146.206 87.9089 146.32 87.8984C146.435 87.888 146.549 87.875 146.664 87.8594C146.779 87.8385 146.888 87.8151 146.992 87.7891C147.102 87.763 147.198 87.7344 147.281 87.7031V84.4531H145.195V83.3047H148.656V88.5234C148.443 88.6224 148.216 88.7109 147.977 88.7891C147.742 88.8672 147.5 88.9323 147.25 88.9844C147.005 89.0365 146.76 89.0755 146.516 89.1016C146.271 89.1276 146.034 89.1406 145.805 89.1406C145.107 89.1406 144.477 89.0312 143.914 88.8125C143.357 88.5938 142.88 88.2708 142.484 87.8438C142.094 87.4115 141.792 86.875 141.578 86.2344C141.37 85.5938 141.266 84.8516 141.266 84.0078C141.266 83.1693 141.383 82.4193 141.617 81.7578C141.852 81.0911 142.18 80.5286 142.602 80.0703C143.029 79.6068 143.539 79.2552 144.133 79.0156C144.732 78.7708 145.391 78.6484 146.109 78.6484C146.568 78.6484 147.003 78.6901 147.414 78.7734C147.831 78.8516 148.229 78.9792 148.609 79.1562V80.5391ZM158.266 89H156.75L156.039 86.7734H151.789L151.07 89H149.625L153.016 78.7891H154.922L158.266 89ZM155.641 85.5312L153.914 80.0703L152.188 85.5312H155.641ZM166.117 88.6172C165.299 88.9557 164.443 89.125 163.547 89.125C162.104 89.125 160.995 88.6953 160.219 87.8359C159.448 86.9714 159.062 85.6953 159.062 84.0078C159.062 83.1901 159.169 82.4505 159.383 81.7891C159.596 81.1276 159.901 80.5677 160.297 80.1094C160.693 79.6458 161.172 79.2891 161.734 79.0391C162.297 78.7891 162.927 78.6641 163.625 78.6641C164.099 78.6641 164.539 78.7057 164.945 78.7891C165.352 78.8672 165.742 78.9896 166.117 79.1562V80.5234C165.747 80.3203 165.365 80.1667 164.969 80.0625C164.573 79.9531 164.141 79.8984 163.672 79.8984C163.193 79.8984 162.758 79.9896 162.367 80.1719C161.982 80.349 161.654 80.6094 161.383 80.9531C161.112 81.2917 160.904 81.7083 160.758 82.2031C160.612 82.6927 160.539 83.2526 160.539 83.8828C160.539 85.2057 160.807 86.2031 161.344 86.875C161.88 87.5469 162.667 87.8828 163.703 87.8828C164.141 87.8828 164.56 87.8333 164.961 87.7344C165.362 87.6302 165.747 87.487 166.117 87.3047V88.6172ZM175.266 79.9766H172.242V89H170.836V79.9766H167.812V78.7891H175.266V79.9766Z" fill="#7B6C6C"/>
</svg>
