<svg width="233" height="192" viewBox="0 0 233 192" fill="none" xmlns="http://www.w3.org/2000/svg">
<path d="M22.7188 13H21.2031L20.4922 10.7734H16.2422L15.5234 13H14.0781L17.4688 2.78906H19.375L22.7188 13ZM20.0938 9.53125L18.3672 4.07031L16.6406 9.53125H20.0938ZM30.9219 3.97656H27.8984V13H26.4922V3.97656H23.4688V2.78906H30.9219V3.97656ZM39.4531 4.53906C39.0729 4.33594 38.6823 4.17969 38.2812 4.07031C37.8802 3.95573 37.4427 3.89844 36.9688 3.89844C36.4271 3.89844 35.9453 3.99479 35.5234 4.1875C35.1016 4.38021 34.7448 4.65365 34.4531 5.00781C34.1667 5.35677 33.9453 5.77865 33.7891 6.27344C33.638 6.76823 33.5625 7.3151 33.5625 7.91406C33.5625 8.53906 33.625 9.09896 33.75 9.59375C33.875 10.0885 34.0703 10.5078 34.3359 10.8516C34.6016 11.1953 34.9401 11.4583 35.3516 11.6406C35.7682 11.8229 36.2656 11.9141 36.8438 11.9141C36.9427 11.9141 37.0495 11.9089 37.1641 11.8984C37.2786 11.888 37.3932 11.875 37.5078 11.8594C37.6224 11.8385 37.7318 11.8151 37.8359 11.7891C37.9453 11.763 38.0417 11.7344 38.125 11.7031V8.45312H36.0391V7.30469H39.5V12.5234C39.2865 12.6224 39.0599 12.7109 38.8203 12.7891C38.5859 12.8672 38.3438 12.9323 38.0938 12.9844C37.849 13.0365 37.6042 13.0755 37.3594 13.1016C37.1146 13.1276 36.8776 13.1406 36.6484 13.1406C35.9505 13.1406 35.3203 13.0312 34.7578 12.8125C34.2005 12.5938 33.724 12.2708 33.3281 11.8438C32.9375 11.4115 32.6354 10.875 32.4219 10.2344C32.2135 9.59375 32.1094 8.85156 32.1094 8.00781C32.1094 7.16927 32.2266 6.41927 32.4609 5.75781C32.6953 5.09115 33.0234 4.52865 33.4453 4.07031C33.8724 3.60677 34.3828 3.25521 34.9766 3.01562C35.5755 2.77083 36.2344 2.64844 36.9531 2.64844C37.4115 2.64844 37.8464 2.6901 38.2578 2.77344C38.6745 2.85156 39.0729 2.97917 39.4531 3.15625V4.53906ZM48.1641 12.6172C47.3464 12.9557 46.4896 13.125 45.5938 13.125C44.151 13.125 43.0417 12.6953 42.2656 11.8359C41.4948 10.9714 41.1094 9.69531 41.1094 8.00781C41.1094 7.1901 41.2161 6.45052 41.4297 5.78906C41.6432 5.1276 41.9479 4.56771 42.3438 4.10938C42.7396 3.64583 43.2188 3.28906 43.7812 3.03906C44.3438 2.78906 44.974 2.66406 45.6719 2.66406C46.1458 2.66406 46.5859 2.70573 46.9922 2.78906C47.3984 2.86719 47.7891 2.98958 48.1641 3.15625V4.52344C47.7943 4.32031 47.4115 4.16667 47.0156 4.0625C46.6198 3.95312 46.1875 3.89844 45.7188 3.89844C45.2396 3.89844 44.8047 3.98958 44.4141 4.17188C44.0286 4.34896 43.7005 4.60938 43.4297 4.95312C43.1589 5.29167 42.9505 5.70833 42.8047 6.20312C42.6589 6.69271 42.5859 7.2526 42.5859 7.88281C42.5859 9.20573 42.8542 10.2031 43.3906 10.875C43.9271 11.5469 44.7135 11.8828 45.75 11.8828C46.1875 11.8828 46.6068 11.8333 47.0078 11.7344C47.4089 11.6302 47.7943 11.487 48.1641 11.3047V12.6172ZM56.9609 12.6172C56.1432 12.9557 55.2865 13.125 54.3906 13.125C52.9479 13.125 51.8385 12.6953 51.0625 11.8359C50.2917 10.9714 49.9062 9.69531 49.9062 8.00781C49.9062 7.1901 50.013 6.45052 50.2266 5.78906C50.4401 5.1276 50.7448 4.56771 51.1406 4.10938C51.5365 3.64583 52.0156 3.28906 52.5781 3.03906C53.1406 2.78906 53.7708 2.66406 54.4688 2.66406C54.9427 2.66406 55.3828 2.70573 55.7891 2.78906C56.1953 2.86719 56.5859 2.98958 56.9609 3.15625V4.52344C56.5911 4.32031 56.2083 4.16667 55.8125 4.0625C55.4167 3.95312 54.9844 3.89844 54.5156 3.89844C54.0365 3.89844 53.6016 3.98958 53.2109 4.17188C52.8255 4.34896 52.4974 4.60938 52.2266 4.95312C51.9557 5.29167 51.7474 5.70833 51.6016 6.20312C51.4557 6.69271 51.3828 7.2526 51.3828 7.88281C51.3828 9.20573 51.651 10.2031 52.1875 10.875C52.724 11.5469 53.5104 11.8828 54.5469 11.8828C54.9844 11.8828 55.4036 11.8333 55.8047 11.7344C56.2057 11.6302 56.5911 11.487 56.9609 11.3047V12.6172ZM65.8438 4.53906C65.4635 4.33594 65.0729 4.17969 64.6719 4.07031C64.2708 3.95573 63.8333 3.89844 63.3594 3.89844C62.8177 3.89844 62.3359 3.99479 61.9141 4.1875C61.4922 4.38021 61.1354 4.65365 60.8438 5.00781C60.5573 5.35677 60.3359 5.77865 60.1797 6.27344C60.0286 6.76823 59.9531 7.3151 59.9531 7.91406C59.9531 8.53906 60.0156 9.09896 60.1406 9.59375C60.2656 10.0885 60.4609 10.5078 60.7266 10.8516C60.9922 11.1953 61.3307 11.4583 61.7422 11.6406C62.1589 11.8229 62.6562 11.9141 63.2344 11.9141C63.3333 11.9141 63.4401 11.9089 63.5547 11.8984C63.6693 11.888 63.7839 11.875 63.8984 11.8594C64.013 11.8385 64.1224 11.8151 64.2266 11.7891C64.3359 11.763 64.4323 11.7344 64.5156 11.7031V8.45312H62.4297V7.30469H65.8906V12.5234C65.6771 12.6224 65.4505 12.7109 65.2109 12.7891C64.9766 12.8672 64.7344 12.9323 64.4844 12.9844C64.2396 13.0365 63.9948 13.0755 63.75 13.1016C63.5052 13.1276 63.2682 13.1406 63.0391 13.1406C62.3411 13.1406 61.7109 13.0312 61.1484 12.8125C60.5911 12.5938 60.1146 12.2708 59.7188 11.8438C59.3281 11.4115 59.026 10.875 58.8125 10.2344C58.6042 9.59375 58.5 8.85156 58.5 8.00781C58.5 7.16927 58.6172 6.41927 58.8516 5.75781C59.0859 5.09115 59.4141 4.52865 59.8359 4.07031C60.263 3.60677 60.7734 3.25521 61.3672 3.01562C61.9661 2.77083 62.625 2.64844 63.3438 2.64844C63.8021 2.64844 64.237 2.6901 64.6484 2.77344C65.0651 2.85156 65.4635 2.97917 65.8438 3.15625V4.53906ZM74.9062 3.97656H71.8828V13H70.4766V3.97656H67.4531V2.78906H74.9062V3.97656ZM84.2969 13H82.7812L82.0703 10.7734H77.8203L77.1016 13H75.6562L79.0469 2.78906H80.9531L84.2969 13ZM81.6719 9.53125L79.9453 4.07031L78.2188 9.53125H81.6719ZM92.5 3.97656H89.4766V13H88.0703V3.97656H85.0469V2.78906H92.5V3.97656ZM101.031 4.53906C100.651 4.33594 100.26 4.17969 99.8594 4.07031C99.4583 3.95573 99.0208 3.89844 98.5469 3.89844C98.0052 3.89844 97.5234 3.99479 97.1016 4.1875C96.6797 4.38021 96.3229 4.65365 96.0312 5.00781C95.7448 5.35677 95.5234 5.77865 95.3672 6.27344C95.2161 6.76823 95.1406 7.3151 95.1406 7.91406C95.1406 8.53906 95.2031 9.09896 95.3281 9.59375C95.4531 10.0885 95.6484 10.5078 95.9141 10.8516C96.1797 11.1953 96.5182 11.4583 96.9297 11.6406C97.3464 11.8229 97.8438 11.9141 98.4219 11.9141C98.5208 11.9141 98.6276 11.9089 98.7422 11.8984C98.8568 11.888 98.9714 11.875 99.0859 11.8594C99.2005 11.8385 99.3099 11.8151 99.4141 11.7891C99.5234 11.763 99.6198 11.7344 99.7031 11.7031V8.45312H97.6172V7.30469H101.078V12.5234C100.865 12.6224 100.638 12.7109 100.398 12.7891C100.164 12.8672 99.9219 12.9323 99.6719 12.9844C99.4271 13.0365 99.1823 13.0755 98.9375 13.1016C98.6927 13.1276 98.4557 13.1406 98.2266 13.1406C97.5286 13.1406 96.8984 13.0312 96.3359 12.8125C95.7786 12.5938 95.3021 12.2708 94.9062 11.8438C94.5156 11.4115 94.2135 10.875 94 10.2344C93.7917 9.59375 93.6875 8.85156 93.6875 8.00781C93.6875 7.16927 93.8047 6.41927 94.0391 5.75781C94.2734 5.09115 94.6016 4.52865 95.0234 4.07031C95.4505 3.60677 95.9609 3.25521 96.5547 3.01562C97.1536 2.77083 97.8125 2.64844 98.5312 2.64844C98.9896 2.64844 99.4245 2.6901 99.8359 2.77344C100.253 2.85156 100.651 2.97917 101.031 3.15625V4.53906ZM109.828 4.53906C109.448 4.33594 109.057 4.17969 108.656 4.07031C108.255 3.95573 107.818 3.89844 107.344 3.89844C106.802 3.89844 106.32 3.99479 105.898 4.1875C105.477 4.38021 105.12 4.65365 104.828 5.00781C104.542 5.35677 104.32 5.77865 104.164 6.27344C104.013 6.76823 103.938 7.3151 103.938 7.91406C103.938 8.53906 104 9.09896 104.125 9.59375C104.25 10.0885 104.445 10.5078 104.711 10.8516C104.977 11.1953 105.315 11.4583 105.727 11.6406C106.143 11.8229 106.641 11.9141 107.219 11.9141C107.318 11.9141 107.424 11.9089 107.539 11.8984C107.654 11.888 107.768 11.875 107.883 11.8594C107.997 11.8385 108.107 11.8151 108.211 11.7891C108.32 11.763 108.417 11.7344 108.5 11.7031V8.45312H106.414V7.30469H109.875V12.5234C109.661 12.6224 109.435 12.7109 109.195 12.7891C108.961 12.8672 108.719 12.9323 108.469 12.9844C108.224 13.0365 107.979 13.0755 107.734 13.1016C107.49 13.1276 107.253 13.1406 107.023 13.1406C106.326 13.1406 105.695 13.0312 105.133 12.8125C104.576 12.5938 104.099 12.2708 103.703 11.8438C103.312 11.4115 103.01 10.875 102.797 10.2344C102.589 9.59375 102.484 8.85156 102.484 8.00781C102.484 7.16927 102.602 6.41927 102.836 5.75781C103.07 5.09115 103.398 4.52865 103.82 4.07031C104.247 3.60677 104.758 3.25521 105.352 3.01562C105.951 2.77083 106.609 2.64844 107.328 2.64844C107.786 2.64844 108.221 2.6901 108.633 2.77344C109.049 2.85156 109.448 2.97917 109.828 3.15625V4.53906ZM119.484 13H117.969L117.258 10.7734H113.008L112.289 13H110.844L114.234 2.78906H116.141L119.484 13ZM116.859 9.53125L115.133 4.07031L113.406 9.53125H116.859ZM127.336 12.6172C126.518 12.9557 125.661 13.125 124.766 13.125C123.323 13.125 122.214 12.6953 121.438 11.8359C120.667 10.9714 120.281 9.69531 120.281 8.00781C120.281 7.1901 120.388 6.45052 120.602 5.78906C120.815 5.1276 121.12 4.56771 121.516 4.10938C121.911 3.64583 122.391 3.28906 122.953 3.03906C123.516 2.78906 124.146 2.66406 124.844 2.66406C125.318 2.66406 125.758 2.70573 126.164 2.78906C126.57 2.86719 126.961 2.98958 127.336 3.15625V4.52344C126.966 4.32031 126.583 4.16667 126.188 4.0625C125.792 3.95312 125.359 3.89844 124.891 3.89844C124.411 3.89844 123.977 3.98958 123.586 4.17188C123.201 4.34896 122.872 4.60938 122.602 4.95312C122.331 5.29167 122.122 5.70833 121.977 6.20312C121.831 6.69271 121.758 7.2526 121.758 7.88281C121.758 9.20573 122.026 10.2031 122.562 10.875C123.099 11.5469 123.885 11.8828 124.922 11.8828C125.359 11.8828 125.779 11.8333 126.18 11.7344C126.581 11.6302 126.966 11.487 127.336 11.3047V12.6172ZM137.078 13H135.562L134.852 10.7734H130.602L129.883 13H128.438L131.828 2.78906H133.734L137.078 13ZM134.453 9.53125L132.727 4.07031L131 9.53125H134.453ZM145.875 13H144.359L143.648 10.7734H139.398L138.68 13H137.234L140.625 2.78906H142.531L145.875 13ZM143.25 9.53125L141.523 4.07031L139.797 9.53125H143.25ZM153.727 12.6172C152.909 12.9557 152.052 13.125 151.156 13.125C149.714 13.125 148.604 12.6953 147.828 11.8359C147.057 10.9714 146.672 9.69531 146.672 8.00781C146.672 7.1901 146.779 6.45052 146.992 5.78906C147.206 5.1276 147.51 4.56771 147.906 4.10938C148.302 3.64583 148.781 3.28906 149.344 3.03906C149.906 2.78906 150.536 2.66406 151.234 2.66406C151.708 2.66406 152.148 2.70573 152.555 2.78906C152.961 2.86719 153.352 2.98958 153.727 3.15625V4.52344C153.357 4.32031 152.974 4.16667 152.578 4.0625C152.182 3.95312 151.75 3.89844 151.281 3.89844C150.802 3.89844 150.367 3.98958 149.977 4.17188C149.591 4.34896 149.263 4.60938 148.992 4.95312C148.721 5.29167 148.513 5.70833 148.367 6.20312C148.221 6.69271 148.148 7.2526 148.148 7.88281C148.148 9.20573 148.417 10.2031 148.953 10.875C149.49 11.5469 150.276 11.8828 151.312 11.8828C151.75 11.8828 152.169 11.8333 152.57 11.7344C152.971 11.6302 153.357 11.487 153.727 11.3047V12.6172ZM162.609 4.53906C162.229 4.33594 161.839 4.17969 161.438 4.07031C161.036 3.95573 160.599 3.89844 160.125 3.89844C159.583 3.89844 159.102 3.99479 158.68 4.1875C158.258 4.38021 157.901 4.65365 157.609 5.00781C157.323 5.35677 157.102 5.77865 156.945 6.27344C156.794 6.76823 156.719 7.3151 156.719 7.91406C156.719 8.53906 156.781 9.09896 156.906 9.59375C157.031 10.0885 157.227 10.5078 157.492 10.8516C157.758 11.1953 158.096 11.4583 158.508 11.6406C158.924 11.8229 159.422 11.9141 160 11.9141C160.099 11.9141 160.206 11.9089 160.32 11.8984C160.435 11.888 160.549 11.875 160.664 11.8594C160.779 11.8385 160.888 11.8151 160.992 11.7891C161.102 11.763 161.198 11.7344 161.281 11.7031V8.45312H159.195V7.30469H162.656V12.5234C162.443 12.6224 162.216 12.7109 161.977 12.7891C161.742 12.8672 161.5 12.9323 161.25 12.9844C161.005 13.0365 160.76 13.0755 160.516 13.1016C160.271 13.1276 160.034 13.1406 159.805 13.1406C159.107 13.1406 158.477 13.0312 157.914 12.8125C157.357 12.5938 156.88 12.2708 156.484 11.8438C156.094 11.4115 155.792 10.875 155.578 10.2344C155.37 9.59375 155.266 8.85156 155.266 8.00781C155.266 7.16927 155.383 6.41927 155.617 5.75781C155.852 5.09115 156.18 4.52865 156.602 4.07031C157.029 3.60677 157.539 3.25521 158.133 3.01562C158.732 2.77083 159.391 2.64844 160.109 2.64844C160.568 2.64844 161.003 2.6901 161.414 2.77344C161.831 2.85156 162.229 2.97917 162.609 3.15625V4.53906ZM172.266 13H170.75L170.039 10.7734H165.789L165.07 13H163.625L167.016 2.78906H168.922L172.266 13ZM169.641 9.53125L167.914 4.07031L166.188 9.53125H169.641ZM180.117 12.6172C179.299 12.9557 178.443 13.125 177.547 13.125C176.104 13.125 174.995 12.6953 174.219 11.8359C173.448 10.9714 173.062 9.69531 173.062 8.00781C173.062 7.1901 173.169 6.45052 173.383 5.78906C173.596 5.1276 173.901 4.56771 174.297 4.10938C174.693 3.64583 175.172 3.28906 175.734 3.03906C176.297 2.78906 176.927 2.66406 177.625 2.66406C178.099 2.66406 178.539 2.70573 178.945 2.78906C179.352 2.86719 179.742 2.98958 180.117 3.15625V4.52344C179.747 4.32031 179.365 4.16667 178.969 4.0625C178.573 3.95312 178.141 3.89844 177.672 3.89844C177.193 3.89844 176.758 3.98958 176.367 4.17188C175.982 4.34896 175.654 4.60938 175.383 4.95312C175.112 5.29167 174.904 5.70833 174.758 6.20312C174.612 6.69271 174.539 7.2526 174.539 7.88281C174.539 9.20573 174.807 10.2031 175.344 10.875C175.88 11.5469 176.667 11.8828 177.703 11.8828C178.141 11.8828 178.56 11.8333 178.961 11.7344C179.362 11.6302 179.747 11.487 180.117 11.3047V12.6172ZM189.266 3.97656H186.242V13H184.836V3.97656H181.812V2.78906H189.266V3.97656Z" fill="#C9D1D9"/>
<path d="M22.7188 32H21.2031L20.4922 29.7734H16.2422L15.5234 32H14.0781L17.4688 21.7891H19.375L22.7188 32ZM20.0938 28.5312L18.3672 23.0703L16.6406 28.5312H20.0938ZM30.9219 22.9766H27.8984V32H26.4922V22.9766H23.4688V21.7891H30.9219V22.9766ZM39.4531 23.5391C39.0729 23.3359 38.6823 23.1797 38.2812 23.0703C37.8802 22.9557 37.4427 22.8984 36.9688 22.8984C36.4271 22.8984 35.9453 22.9948 35.5234 23.1875C35.1016 23.3802 34.7448 23.6536 34.4531 24.0078C34.1667 24.3568 33.9453 24.7786 33.7891 25.2734C33.638 25.7682 33.5625 26.3151 33.5625 26.9141C33.5625 27.5391 33.625 28.099 33.75 28.5938C33.875 29.0885 34.0703 29.5078 34.3359 29.8516C34.6016 30.1953 34.9401 30.4583 35.3516 30.6406C35.7682 30.8229 36.2656 30.9141 36.8438 30.9141C36.9427 30.9141 37.0495 30.9089 37.1641 30.8984C37.2786 30.888 37.3932 30.875 37.5078 30.8594C37.6224 30.8385 37.7318 30.8151 37.8359 30.7891C37.9453 30.763 38.0417 30.7344 38.125 30.7031V27.4531H36.0391V26.3047H39.5V31.5234C39.2865 31.6224 39.0599 31.7109 38.8203 31.7891C38.5859 31.8672 38.3438 31.9323 38.0938 31.9844C37.849 32.0365 37.6042 32.0755 37.3594 32.1016C37.1146 32.1276 36.8776 32.1406 36.6484 32.1406C35.9505 32.1406 35.3203 32.0312 34.7578 31.8125C34.2005 31.5938 33.724 31.2708 33.3281 30.8438C32.9375 30.4115 32.6354 29.875 32.4219 29.2344C32.2135 28.5938 32.1094 27.8516 32.1094 27.0078C32.1094 26.1693 32.2266 25.4193 32.4609 24.7578C32.6953 24.0911 33.0234 23.5286 33.4453 23.0703C33.8724 22.6068 34.3828 22.2552 34.9766 22.0156C35.5755 21.7708 36.2344 21.6484 36.9531 21.6484C37.4115 21.6484 37.8464 21.6901 38.2578 21.7734C38.6745 21.8516 39.0729 21.9792 39.4531 22.1562V23.5391ZM48.1641 31.6172C47.3464 31.9557 46.4896 32.125 45.5938 32.125C44.151 32.125 43.0417 31.6953 42.2656 30.8359C41.4948 29.9714 41.1094 28.6953 41.1094 27.0078C41.1094 26.1901 41.2161 25.4505 41.4297 24.7891C41.6432 24.1276 41.9479 23.5677 42.3438 23.1094C42.7396 22.6458 43.2188 22.2891 43.7812 22.0391C44.3438 21.7891 44.974 21.6641 45.6719 21.6641C46.1458 21.6641 46.5859 21.7057 46.9922 21.7891C47.3984 21.8672 47.7891 21.9896 48.1641 22.1562V23.5234C47.7943 23.3203 47.4115 23.1667 47.0156 23.0625C46.6198 22.9531 46.1875 22.8984 45.7188 22.8984C45.2396 22.8984 44.8047 22.9896 44.4141 23.1719C44.0286 23.349 43.7005 23.6094 43.4297 23.9531C43.1589 24.2917 42.9505 24.7083 42.8047 25.2031C42.6589 25.6927 42.5859 26.2526 42.5859 26.8828C42.5859 28.2057 42.8542 29.2031 43.3906 29.875C43.9271 30.5469 44.7135 30.8828 45.75 30.8828C46.1875 30.8828 46.6068 30.8333 47.0078 30.7344C47.4089 30.6302 47.7943 30.487 48.1641 30.3047V31.6172ZM56.9609 31.6172C56.1432 31.9557 55.2865 32.125 54.3906 32.125C52.9479 32.125 51.8385 31.6953 51.0625 30.8359C50.2917 29.9714 49.9062 28.6953 49.9062 27.0078C49.9062 26.1901 50.013 25.4505 50.2266 24.7891C50.4401 24.1276 50.7448 23.5677 51.1406 23.1094C51.5365 22.6458 52.0156 22.2891 52.5781 22.0391C53.1406 21.7891 53.7708 21.6641 54.4688 21.6641C54.9427 21.6641 55.3828 21.7057 55.7891 21.7891C56.1953 21.8672 56.5859 21.9896 56.9609 22.1562V23.5234C56.5911 23.3203 56.2083 23.1667 55.8125 23.0625C55.4167 22.9531 54.9844 22.8984 54.5156 22.8984C54.0365 22.8984 53.6016 22.9896 53.2109 23.1719C52.8255 23.349 52.4974 23.6094 52.2266 23.9531C51.9557 24.2917 51.7474 24.7083 51.6016 25.2031C51.4557 25.6927 51.3828 26.2526 51.3828 26.8828C51.3828 28.2057 51.651 29.2031 52.1875 29.875C52.724 30.5469 53.5104 30.8828 54.5469 30.8828C54.9844 30.8828 55.4036 30.8333 55.8047 30.7344C56.2057 30.6302 56.5911 30.487 56.9609 30.3047V31.6172ZM65.8438 23.5391C65.4635 23.3359 65.0729 23.1797 64.6719 23.0703C64.2708 22.9557 63.8333 22.8984 63.3594 22.8984C62.8177 22.8984 62.3359 22.9948 61.9141 23.1875C61.4922 23.3802 61.1354 23.6536 60.8438 24.0078C60.5573 24.3568 60.3359 24.7786 60.1797 25.2734C60.0286 25.7682 59.9531 26.3151 59.9531 26.9141C59.9531 27.5391 60.0156 28.099 60.1406 28.5938C60.2656 29.0885 60.4609 29.5078 60.7266 29.8516C60.9922 30.1953 61.3307 30.4583 61.7422 30.6406C62.1589 30.8229 62.6562 30.9141 63.2344 30.9141C63.3333 30.9141 63.4401 30.9089 63.5547 30.8984C63.6693 30.888 63.7839 30.875 63.8984 30.8594C64.013 30.8385 64.1224 30.8151 64.2266 30.7891C64.3359 30.763 64.4323 30.7344 64.5156 30.7031V27.4531H62.4297V26.3047H65.8906V31.5234C65.6771 31.6224 65.4505 31.7109 65.2109 31.7891C64.9766 31.8672 64.7344 31.9323 64.4844 31.9844C64.2396 32.0365 63.9948 32.0755 63.75 32.1016C63.5052 32.1276 63.2682 32.1406 63.0391 32.1406C62.3411 32.1406 61.7109 32.0312 61.1484 31.8125C60.5911 31.5938 60.1146 31.2708 59.7188 30.8438C59.3281 30.4115 59.026 29.875 58.8125 29.2344C58.6042 28.5938 58.5 27.8516 58.5 27.0078C58.5 26.1693 58.6172 25.4193 58.8516 24.7578C59.0859 24.0911 59.4141 23.5286 59.8359 23.0703C60.263 22.6068 60.7734 22.2552 61.3672 22.0156C61.9661 21.7708 62.625 21.6484 63.3438 21.6484C63.8021 21.6484 64.237 21.6901 64.6484 21.7734C65.0651 21.8516 65.4635 21.9792 65.8438 22.1562V23.5391ZM74.9062 22.9766H71.8828V32H70.4766V22.9766H67.4531V21.7891H74.9062V22.9766ZM84.2969 32H82.7812L82.0703 29.7734H77.8203L77.1016 32H75.6562L79.0469 21.7891H80.9531L84.2969 32ZM81.6719 28.5312L79.9453 23.0703L78.2188 28.5312H81.6719ZM92.5 22.9766H89.4766V32H88.0703V22.9766H85.0469V21.7891H92.5V22.9766ZM101.031 23.5391C100.651 23.3359 100.26 23.1797 99.8594 23.0703C99.4583 22.9557 99.0208 22.8984 98.5469 22.8984C98.0052 22.8984 97.5234 22.9948 97.1016 23.1875C96.6797 23.3802 96.3229 23.6536 96.0312 24.0078C95.7448 24.3568 95.5234 24.7786 95.3672 25.2734C95.2161 25.7682 95.1406 26.3151 95.1406 26.9141C95.1406 27.5391 95.2031 28.099 95.3281 28.5938C95.4531 29.0885 95.6484 29.5078 95.9141 29.8516C96.1797 30.1953 96.5182 30.4583 96.9297 30.6406C97.3464 30.8229 97.8438 30.9141 98.4219 30.9141C98.5208 30.9141 98.6276 30.9089 98.7422 30.8984C98.8568 30.888 98.9714 30.875 99.0859 30.8594C99.2005 30.8385 99.3099 30.8151 99.4141 30.7891C99.5234 30.763 99.6198 30.7344 99.7031 30.7031V27.4531H97.6172V26.3047H101.078V31.5234C100.865 31.6224 100.638 31.7109 100.398 31.7891C100.164 31.8672 99.9219 31.9323 99.6719 31.9844C99.4271 32.0365 99.1823 32.0755 98.9375 32.1016C98.6927 32.1276 98.4557 32.1406 98.2266 32.1406C97.5286 32.1406 96.8984 32.0312 96.3359 31.8125C95.7786 31.5938 95.3021 31.2708 94.9062 30.8438C94.5156 30.4115 94.2135 29.875 94 29.2344C93.7917 28.5938 93.6875 27.8516 93.6875 27.0078C93.6875 26.1693 93.8047 25.4193 94.0391 24.7578C94.2734 24.0911 94.6016 23.5286 95.0234 23.0703C95.4505 22.6068 95.9609 22.2552 96.5547 22.0156C97.1536 21.7708 97.8125 21.6484 98.5312 21.6484C98.9896 21.6484 99.4245 21.6901 99.8359 21.7734C100.253 21.8516 100.651 21.9792 101.031 22.1562V23.5391Z" fill="#FF7F50"/>
<path d="M39.4531 42.5391C39.0729 42.3359 38.6823 42.1797 38.2812 42.0703C37.8802 41.9557 37.4427 41.8984 36.9688 41.8984C36.4271 41.8984 35.9453 41.9948 35.5234 42.1875C35.1016 42.3802 34.7448 42.6536 34.4531 43.0078C34.1667 43.3568 33.9453 43.7786 33.7891 44.2734C33.638 44.7682 33.5625 45.3151 33.5625 45.9141C33.5625 46.5391 33.625 47.099 33.75 47.5938C33.875 48.0885 34.0703 48.5078 34.3359 48.8516C34.6016 49.1953 34.9401 49.4583 35.3516 49.6406C35.7682 49.8229 36.2656 49.9141 36.8438 49.9141C36.9427 49.9141 37.0495 49.9089 37.1641 49.8984C37.2786 49.888 37.3932 49.875 37.5078 49.8594C37.6224 49.8385 37.7318 49.8151 37.8359 49.7891C37.9453 49.763 38.0417 49.7344 38.125 49.7031V46.4531H36.0391V45.3047H39.5V50.5234C39.2865 50.6224 39.0599 50.7109 38.8203 50.7891C38.5859 50.8672 38.3438 50.9323 38.0938 50.9844C37.849 51.0365 37.6042 51.0755 37.3594 51.1016C37.1146 51.1276 36.8776 51.1406 36.6484 51.1406C35.9505 51.1406 35.3203 51.0312 34.7578 50.8125C34.2005 50.5938 33.724 50.2708 33.3281 49.8438C32.9375 49.4115 32.6354 48.875 32.4219 48.2344C32.2135 47.5938 32.1094 46.8516 32.1094 46.0078C32.1094 45.1693 32.2266 44.4193 32.4609 43.7578C32.6953 43.0911 33.0234 42.5286 33.4453 42.0703C33.8724 41.6068 34.3828 41.2552 34.9766 41.0156C35.5755 40.7708 36.2344 40.6484 36.9531 40.6484C37.4115 40.6484 37.8464 40.6901 38.2578 40.7734C38.6745 40.8516 39.0729 40.9792 39.4531 41.1562V42.5391ZM48.1641 50.6172C47.3464 50.9557 46.4896 51.125 45.5938 51.125C44.151 51.125 43.0417 50.6953 42.2656 49.8359C41.4948 48.9714 41.1094 47.6953 41.1094 46.0078C41.1094 45.1901 41.2161 44.4505 41.4297 43.7891C41.6432 43.1276 41.9479 42.5677 42.3438 42.1094C42.7396 41.6458 43.2188 41.2891 43.7812 41.0391C44.3438 40.7891 44.974 40.6641 45.6719 40.6641C46.1458 40.6641 46.5859 40.7057 46.9922 40.7891C47.3984 40.8672 47.7891 40.9896 48.1641 41.1562V42.5234C47.7943 42.3203 47.4115 42.1667 47.0156 42.0625C46.6198 41.9531 46.1875 41.8984 45.7188 41.8984C45.2396 41.8984 44.8047 41.9896 44.4141 42.1719C44.0286 42.349 43.7005 42.6094 43.4297 42.9531C43.1589 43.2917 42.9505 43.7083 42.8047 44.2031C42.6589 44.6927 42.5859 45.2526 42.5859 45.8828C42.5859 47.2057 42.8542 48.2031 43.3906 48.875C43.9271 49.5469 44.7135 49.8828 45.75 49.8828C46.1875 49.8828 46.6068 49.8333 47.0078 49.7344C47.4089 49.6302 47.7943 49.487 48.1641 49.3047V50.6172ZM56.9609 50.6172C56.1432 50.9557 55.2865 51.125 54.3906 51.125C52.9479 51.125 51.8385 50.6953 51.0625 49.8359C50.2917 48.9714 49.9062 47.6953 49.9062 46.0078C49.9062 45.1901 50.013 44.4505 50.2266 43.7891C50.4401 43.1276 50.7448 42.5677 51.1406 42.1094C51.5365 41.6458 52.0156 41.2891 52.5781 41.0391C53.1406 40.7891 53.7708 40.6641 54.4688 40.6641C54.9427 40.6641 55.3828 40.7057 55.7891 40.7891C56.1953 40.8672 56.5859 40.9896 56.9609 41.1562V42.5234C56.5911 42.3203 56.2083 42.1667 55.8125 42.0625C55.4167 41.9531 54.9844 41.8984 54.5156 41.8984C54.0365 41.8984 53.6016 41.9896 53.2109 42.1719C52.8255 42.349 52.4974 42.6094 52.2266 42.9531C51.9557 43.2917 51.7474 43.7083 51.6016 44.2031C51.4557 44.6927 51.3828 45.2526 51.3828 45.8828C51.3828 47.2057 51.651 48.2031 52.1875 48.875C52.724 49.5469 53.5104 49.8828 54.5469 49.8828C54.9844 49.8828 55.4036 49.8333 55.8047 49.7344C56.2057 49.6302 56.5911 49.487 56.9609 49.3047V50.6172ZM65.8438 42.5391C65.4635 42.3359 65.0729 42.1797 64.6719 42.0703C64.2708 41.9557 63.8333 41.8984 63.3594 41.8984C62.8177 41.8984 62.3359 41.9948 61.9141 42.1875C61.4922 42.3802 61.1354 42.6536 60.8438 43.0078C60.5573 43.3568 60.3359 43.7786 60.1797 44.2734C60.0286 44.7682 59.9531 45.3151 59.9531 45.9141C59.9531 46.5391 60.0156 47.099 60.1406 47.5938C60.2656 48.0885 60.4609 48.5078 60.7266 48.8516C60.9922 49.1953 61.3307 49.4583 61.7422 49.6406C62.1589 49.8229 62.6562 49.9141 63.2344 49.9141C63.3333 49.9141 63.4401 49.9089 63.5547 49.8984C63.6693 49.888 63.7839 49.875 63.8984 49.8594C64.013 49.8385 64.1224 49.8151 64.2266 49.7891C64.3359 49.763 64.4323 49.7344 64.5156 49.7031V46.4531H62.4297V45.3047H65.8906V50.5234C65.6771 50.6224 65.4505 50.7109 65.2109 50.7891C64.9766 50.8672 64.7344 50.9323 64.4844 50.9844C64.2396 51.0365 63.9948 51.0755 63.75 51.1016C63.5052 51.1276 63.2682 51.1406 63.0391 51.1406C62.3411 51.1406 61.7109 51.0312 61.1484 50.8125C60.5911 50.5938 60.1146 50.2708 59.7188 49.8438C59.3281 49.4115 59.026 48.875 58.8125 48.2344C58.6042 47.5938 58.5 46.8516 58.5 46.0078C58.5 45.1693 58.6172 44.4193 58.8516 43.7578C59.0859 43.0911 59.4141 42.5286 59.8359 42.0703C60.263 41.6068 60.7734 41.2552 61.3672 41.0156C61.9661 40.7708 62.625 40.6484 63.3438 40.6484C63.8021 40.6484 64.237 40.6901 64.6484 40.7734C65.0651 40.8516 65.4635 40.9792 65.8438 41.1562V42.5391ZM74.9062 41.9766H71.8828V51H70.4766V41.9766H67.4531V40.7891H74.9062V41.9766ZM84.2969 51H82.7812L82.0703 48.7734H77.8203L77.1016 51H75.6562L79.0469 40.7891H80.9531L84.2969 51ZM81.6719 47.5312L79.9453 42.0703L78.2188 47.5312H81.6719ZM92.5 41.9766H89.4766V51H88.0703V41.9766H85.0469V40.7891H92.5V41.9766ZM101.031 42.5391C100.651 42.3359 100.26 42.1797 99.8594 42.0703C99.4583 41.9557 99.0208 41.8984 98.5469 41.8984C98.0052 41.8984 97.5234 41.9948 97.1016 42.1875C96.6797 42.3802 96.3229 42.6536 96.0312 43.0078C95.7448 43.3568 95.5234 43.7786 95.3672 44.2734C95.2161 44.7682 95.1406 45.3151 95.1406 45.9141C95.1406 46.5391 95.2031 47.099 95.3281 47.5938C95.4531 48.0885 95.6484 48.5078 95.9141 48.8516C96.1797 49.1953 96.5182 49.4583 96.9297 49.6406C97.3464 49.8229 97.8438 49.9141 98.4219 49.9141C98.5208 49.9141 98.6276 49.9089 98.7422 49.8984C98.8568 49.888 98.9714 49.875 99.0859 49.8594C99.2005 49.8385 99.3099 49.8151 99.4141 49.7891C99.5234 49.763 99.6198 49.7344 99.7031 49.7031V46.4531H97.6172V45.3047H101.078V50.5234C100.865 50.6224 100.638 50.7109 100.398 50.7891C100.164 50.8672 99.9219 50.9323 99.6719 50.9844C99.4271 51.0365 99.1823 51.0755 98.9375 51.1016C98.6927 51.1276 98.4557 51.1406 98.2266 51.1406C97.5286 51.1406 96.8984 51.0312 96.3359 50.8125C95.7786 50.5938 95.3021 50.2708 94.9062 49.8438C94.5156 49.4115 94.2135 48.875 94 48.2344C93.7917 47.5938 93.6875 46.8516 93.6875 46.0078C93.6875 45.1693 93.8047 44.4193 94.0391 43.7578C94.2734 43.0911 94.6016 42.5286 95.0234 42.0703C95.4505 41.6068 95.9609 41.2552 96.5547 41.0156C97.1536 40.7708 97.8125 40.6484 98.5312 40.6484C98.9896 40.6484 99.4245 40.6901 99.8359 40.7734C100.253 40.8516 100.651 40.9792 101.031 41.1562V42.5391ZM109.828 42.5391C109.448 42.3359 109.057 42.1797 108.656 42.0703C108.255 41.9557 107.818 41.8984 107.344 41.8984C106.802 41.8984 106.32 41.9948 105.898 42.1875C105.477 42.3802 105.12 42.6536 104.828 43.0078C104.542 43.3568 104.32 43.7786 104.164 44.2734C104.013 44.7682 103.938 45.3151 103.938 45.9141C103.938 46.5391 104 47.099 104.125 47.5938C104.25 48.0885 104.445 48.5078 104.711 48.8516C104.977 49.1953 105.315 49.4583 105.727 49.6406C106.143 49.8229 106.641 49.9141 107.219 49.9141C107.318 49.9141 107.424 49.9089 107.539 49.8984C107.654 49.888 107.768 49.875 107.883 49.8594C107.997 49.8385 108.107 49.8151 108.211 49.7891C108.32 49.763 108.417 49.7344 108.5 49.7031V46.4531H106.414V45.3047H109.875V50.5234C109.661 50.6224 109.435 50.7109 109.195 50.7891C108.961 50.8672 108.719 50.9323 108.469 50.9844C108.224 51.0365 107.979 51.0755 107.734 51.1016C107.49 51.1276 107.253 51.1406 107.023 51.1406C106.326 51.1406 105.695 51.0312 105.133 50.8125C104.576 50.5938 104.099 50.2708 103.703 49.8438C103.312 49.4115 103.01 48.875 102.797 48.2344C102.589 47.5938 102.484 46.8516 102.484 46.0078C102.484 45.1693 102.602 44.4193 102.836 43.7578C103.07 43.0911 103.398 42.5286 103.82 42.0703C104.247 41.6068 104.758 41.2552 105.352 41.0156C105.951 40.7708 106.609 40.6484 107.328 40.6484C107.786 40.6484 108.221 40.6901 108.633 40.7734C109.049 40.8516 109.448 40.9792 109.828 41.1562V42.5391ZM119.484 51H117.969L117.258 48.7734H113.008L112.289 51H110.844L114.234 40.7891H116.141L119.484 51ZM116.859 47.5312L115.133 42.0703L113.406 47.5312H116.859Z" fill="#247F8F"/>
<path d="M65.8438 61.5391C65.4635 61.3359 65.0729 61.1797 64.6719 61.0703C64.2708 60.9557 63.8333 60.8984 63.3594 60.8984C62.8177 60.8984 62.3359 60.9948 61.9141 61.1875C61.4922 61.3802 61.1354 61.6536 60.8438 62.0078C60.5573 62.3568 60.3359 62.7786 60.1797 63.2734C60.0286 63.7682 59.9531 64.3151 59.9531 64.9141C59.9531 65.5391 60.0156 66.099 60.1406 66.5938C60.2656 67.0885 60.4609 67.5078 60.7266 67.8516C60.9922 68.1953 61.3307 68.4583 61.7422 68.6406C62.1589 68.8229 62.6562 68.9141 63.2344 68.9141C63.3333 68.9141 63.4401 68.9089 63.5547 68.8984C63.6693 68.888 63.7839 68.875 63.8984 68.8594C64.013 68.8385 64.1224 68.8151 64.2266 68.7891C64.3359 68.763 64.4323 68.7344 64.5156 68.7031V65.4531H62.4297V64.3047H65.8906V69.5234C65.6771 69.6224 65.4505 69.7109 65.2109 69.7891C64.9766 69.8672 64.7344 69.9323 64.4844 69.9844C64.2396 70.0365 63.9948 70.0755 63.75 70.1016C63.5052 70.1276 63.2682 70.1406 63.0391 70.1406C62.3411 70.1406 61.7109 70.0312 61.1484 69.8125C60.5911 69.5938 60.1146 69.2708 59.7188 68.8438C59.3281 68.4115 59.026 67.875 58.8125 67.2344C58.6042 66.5938 58.5 65.8516 58.5 65.0078C58.5 64.1693 58.6172 63.4193 58.8516 62.7578C59.0859 62.0911 59.4141 61.5286 59.8359 61.0703C60.263 60.6068 60.7734 60.2552 61.3672 60.0156C61.9661 59.7708 62.625 59.6484 63.3438 59.6484C63.8021 59.6484 64.237 59.6901 64.6484 59.7734C65.0651 59.8516 65.4635 59.9792 65.8438 60.1562V61.5391ZM74.9062 60.9766H71.8828V70H70.4766V60.9766H67.4531V59.7891H74.9062V60.9766ZM84.2969 70H82.7812L82.0703 67.7734H77.8203L77.1016 70H75.6562L79.0469 59.7891H80.9531L84.2969 70ZM81.6719 66.5312L79.9453 61.0703L78.2188 66.5312H81.6719ZM92.5 60.9766H89.4766V70H88.0703V60.9766H85.0469V59.7891H92.5V60.9766ZM101.031 61.5391C100.651 61.3359 100.26 61.1797 99.8594 61.0703C99.4583 60.9557 99.0208 60.8984 98.5469 60.8984C98.0052 60.8984 97.5234 60.9948 97.1016 61.1875C96.6797 61.3802 96.3229 61.6536 96.0312 62.0078C95.7448 62.3568 95.5234 62.7786 95.3672 63.2734C95.2161 63.7682 95.1406 64.3151 95.1406 64.9141C95.1406 65.5391 95.2031 66.099 95.3281 66.5938C95.4531 67.0885 95.6484 67.5078 95.9141 67.8516C96.1797 68.1953 96.5182 68.4583 96.9297 68.6406C97.3464 68.8229 97.8438 68.9141 98.4219 68.9141C98.5208 68.9141 98.6276 68.9089 98.7422 68.8984C98.8568 68.888 98.9714 68.875 99.0859 68.8594C99.2005 68.8385 99.3099 68.8151 99.4141 68.7891C99.5234 68.763 99.6198 68.7344 99.7031 68.7031V65.4531H97.6172V64.3047H101.078V69.5234C100.865 69.6224 100.638 69.7109 100.398 69.7891C100.164 69.8672 99.9219 69.9323 99.6719 69.9844C99.4271 70.0365 99.1823 70.0755 98.9375 70.1016C98.6927 70.1276 98.4557 70.1406 98.2266 70.1406C97.5286 70.1406 96.8984 70.0312 96.3359 69.8125C95.7786 69.5938 95.3021 69.2708 94.9062 68.8438C94.5156 68.4115 94.2135 67.875 94 67.2344C93.7917 66.5938 93.6875 65.8516 93.6875 65.0078C93.6875 64.1693 93.8047 63.4193 94.0391 62.7578C94.2734 62.0911 94.6016 61.5286 95.0234 61.0703C95.4505 60.6068 95.9609 60.2552 96.5547 60.0156C97.1536 59.7708 97.8125 59.6484 98.5312 59.6484C98.9896 59.6484 99.4245 59.6901 99.8359 59.7734C100.253 59.8516 100.651 59.9792 101.031 60.1562V61.5391ZM109.828 61.5391C109.448 61.3359 109.057 61.1797 108.656 61.0703C108.255 60.9557 107.818 60.8984 107.344 60.8984C106.802 60.8984 106.32 60.9948 105.898 61.1875C105.477 61.3802 105.12 61.6536 104.828 62.0078C104.542 62.3568 104.32 62.7786 104.164 63.2734C104.013 63.7682 103.938 64.3151 103.938 64.9141C103.938 65.5391 104 66.099 104.125 66.5938C104.25 67.0885 104.445 67.5078 104.711 67.8516C104.977 68.1953 105.315 68.4583 105.727 68.6406C106.143 68.8229 106.641 68.9141 107.219 68.9141C107.318 68.9141 107.424 68.9089 107.539 68.8984C107.654 68.888 107.768 68.875 107.883 68.8594C107.997 68.8385 108.107 68.8151 108.211 68.7891C108.32 68.763 108.417 68.7344 108.5 68.7031V65.4531H106.414V64.3047H109.875V69.5234C109.661 69.6224 109.435 69.7109 109.195 69.7891C108.961 69.8672 108.719 69.9323 108.469 69.9844C108.224 70.0365 107.979 70.0755 107.734 70.1016C107.49 70.1276 107.253 70.1406 107.023 70.1406C106.326 70.1406 105.695 70.0312 105.133 69.8125C104.576 69.5938 104.099 69.2708 103.703 68.8438C103.312 68.4115 103.01 67.875 102.797 67.2344C102.589 66.5938 102.484 65.8516 102.484 65.0078C102.484 64.1693 102.602 63.4193 102.836 62.7578C103.07 62.0911 103.398 61.5286 103.82 61.0703C104.247 60.6068 104.758 60.2552 105.352 60.0156C105.951 59.7708 106.609 59.6484 107.328 59.6484C107.786 59.6484 108.221 59.6901 108.633 59.7734C109.049 59.8516 109.448 59.9792 109.828 60.1562V61.5391ZM119.484 70H117.969L117.258 67.7734H113.008L112.289 70H110.844L114.234 59.7891H116.141L119.484 70ZM116.859 66.5312L115.133 61.0703L113.406 66.5312H116.859ZM127.336 69.6172C126.518 69.9557 125.661 70.125 124.766 70.125C123.323 70.125 122.214 69.6953 121.438 68.8359C120.667 67.9714 120.281 66.6953 120.281 65.0078C120.281 64.1901 120.388 63.4505 120.602 62.7891C120.815 62.1276 121.12 61.5677 121.516 61.1094C121.911 60.6458 122.391 60.2891 122.953 60.0391C123.516 59.7891 124.146 59.6641 124.844 59.6641C125.318 59.6641 125.758 59.7057 126.164 59.7891C126.57 59.8672 126.961 59.9896 127.336 60.1562V61.5234C126.966 61.3203 126.583 61.1667 126.188 61.0625C125.792 60.9531 125.359 60.8984 124.891 60.8984C124.411 60.8984 123.977 60.9896 123.586 61.1719C123.201 61.349 122.872 61.6094 122.602 61.9531C122.331 62.2917 122.122 62.7083 121.977 63.2031C121.831 63.6927 121.758 64.2526 121.758 64.8828C121.758 66.2057 122.026 67.2031 122.562 67.875C123.099 68.5469 123.885 68.8828 124.922 68.8828C125.359 68.8828 125.779 68.8333 126.18 68.7344C126.581 68.6302 126.966 68.487 127.336 68.3047V69.6172ZM137.078 70H135.562L134.852 67.7734H130.602L129.883 70H128.438L131.828 59.7891H133.734L137.078 70ZM134.453 66.5312L132.727 61.0703L131 66.5312H134.453ZM145.875 70H144.359L143.648 67.7734H139.398L138.68 70H137.234L140.625 59.7891H142.531L145.875 70ZM143.25 66.5312L141.523 61.0703L139.797 66.5312H143.25Z" fill="#E0E33C"/>
<path d="M109.828 80.5391C109.448 80.3359 109.057 80.1797 108.656 80.0703C108.255 79.9557 107.818 79.8984 107.344 79.8984C106.802 79.8984 106.32 79.9948 105.898 80.1875C105.477 80.3802 105.12 80.6536 104.828 81.0078C104.542 81.3568 104.32 81.7786 104.164 82.2734C104.013 82.7682 103.938 83.3151 103.938 83.9141C103.938 84.5391 104 85.099 104.125 85.5938C104.25 86.0885 104.445 86.5078 104.711 86.8516C104.977 87.1953 105.315 87.4583 105.727 87.6406C106.143 87.8229 106.641 87.9141 107.219 87.9141C107.318 87.9141 107.424 87.9089 107.539 87.8984C107.654 87.888 107.768 87.875 107.883 87.8594C107.997 87.8385 108.107 87.8151 108.211 87.7891C108.32 87.763 108.417 87.7344 108.5 87.7031V84.4531H106.414V83.3047H109.875V88.5234C109.661 88.6224 109.435 88.7109 109.195 88.7891C108.961 88.8672 108.719 88.9323 108.469 88.9844C108.224 89.0365 107.979 89.0755 107.734 89.1016C107.49 89.1276 107.253 89.1406 107.023 89.1406C106.326 89.1406 105.695 89.0312 105.133 88.8125C104.576 88.5938 104.099 88.2708 103.703 87.8438C103.312 87.4115 103.01 86.875 102.797 86.2344C102.589 85.5938 102.484 84.8516 102.484 84.0078C102.484 83.1693 102.602 82.4193 102.836 81.7578C103.07 81.0911 103.398 80.5286 103.82 80.0703C104.247 79.6068 104.758 79.2552 105.352 79.0156C105.951 78.7708 106.609 78.6484 107.328 78.6484C107.786 78.6484 108.221 78.6901 108.633 78.7734C109.049 78.8516 109.448 78.9792 109.828 79.1562V80.5391ZM119.484 89H117.969L117.258 86.7734H113.008L112.289 89H110.844L114.234 78.7891H116.141L119.484 89ZM116.859 85.5312L115.133 80.0703L113.406 85.5312H116.859ZM127.336 88.6172C126.518 88.9557 125.661 89.125 124.766 89.125C123.323 89.125 122.214 88.6953 121.438 87.8359C120.667 86.9714 120.281 85.6953 120.281 84.0078C120.281 83.1901 120.388 82.4505 120.602 81.7891C120.815 81.1276 121.12 80.5677 121.516 80.1094C121.911 79.6458 122.391 79.2891 122.953 79.0391C123.516 78.7891 124.146 78.6641 124.844 78.6641C125.318 78.6641 125.758 78.7057 126.164 78.7891C126.57 78.8672 126.961 78.9896 127.336 79.1562V80.5234C126.966 80.3203 126.583 80.1667 126.188 80.0625C125.792 79.9531 125.359 79.8984 124.891 79.8984C124.411 79.8984 123.977 79.9896 123.586 80.1719C123.201 80.349 122.872 80.6094 122.602 80.9531C122.331 81.2917 122.122 81.7083 121.977 82.2031C121.831 82.6927 121.758 83.2526 121.758 83.8828C121.758 85.2057 122.026 86.2031 122.562 86.875C123.099 87.5469 123.885 87.8828 124.922 87.8828C125.359 87.8828 125.779 87.8333 126.18 87.7344C126.581 87.6302 126.966 87.487 127.336 87.3047V88.6172ZM137.078 89H135.562L134.852 86.7734H130.602L129.883 89H128.438L131.828 78.7891H133.734L137.078 89ZM134.453 85.5312L132.727 80.0703L131 85.5312H134.453ZM145.875 89H144.359L143.648 86.7734H139.398L138.68 89H137.234L140.625 78.7891H142.531L145.875 89ZM143.25 85.5312L141.523 80.0703L139.797 85.5312H143.25ZM153.727 88.6172C152.909 88.9557 152.052 89.125 151.156 89.125C149.714 89.125 148.604 88.6953 147.828 87.8359C147.057 86.9714 146.672 85.6953 146.672 84.0078C146.672 83.1901 146.779 82.4505 146.992 81.7891C147.206 81.1276 147.51 80.5677 147.906 80.1094C148.302 79.6458 148.781 79.2891 149.344 79.0391C149.906 78.7891 150.536 78.6641 151.234 78.6641C151.708 78.6641 152.148 78.7057 152.555 78.7891C152.961 78.8672 153.352 78.9896 153.727 79.1562V80.5234C153.357 80.3203 152.974 80.1667 152.578 80.0625C152.182 79.9531 151.75 79.8984 151.281 79.8984C150.802 79.8984 150.367 79.9896 149.977 80.1719C149.591 80.349 149.263 80.6094 148.992 80.9531C148.721 81.2917 148.513 81.7083 148.367 82.2031C148.221 82.6927 148.148 83.2526 148.148 83.8828C148.148 85.2057 148.417 86.2031 148.953 86.875C149.49 87.5469 150.276 87.8828 151.312 87.8828C151.75 87.8828 152.169 87.8333 152.57 87.7344C152.971 87.6302 153.357 87.487 153.727 87.3047V88.6172ZM162.609 80.5391C162.229 80.3359 161.839 80.1797 161.438 80.0703C161.036 79.9557 160.599 79.8984 160.125 79.8984C159.583 79.8984 159.102 79.9948 158.68 80.1875C158.258 80.3802 157.901 80.6536 157.609 81.0078C157.323 81.3568 157.102 81.7786 156.945 82.2734C156.794 82.7682 156.719 83.3151 156.719 83.9141C156.719 84.5391 156.781 85.099 156.906 85.5938C157.031 86.0885 157.227 86.5078 157.492 86.8516C157.758 87.1953 158.096 87.4583 158.508 87.6406C158.924 87.8229 159.422 87.9141 160 87.9141C160.099 87.9141 160.206 87.9089 160.32 87.8984C160.435 87.888 160.549 87.875 160.664 87.8594C160.779 87.8385 160.888 87.8151 160.992 87.7891C161.102 87.763 161.198 87.7344 161.281 87.7031V84.4531H159.195V83.3047H162.656V88.5234C162.443 88.6224 162.216 88.7109 161.977 88.7891C161.742 88.8672 161.5 88.9323 161.25 88.9844C161.005 89.0365 160.76 89.0755 160.516 89.1016C160.271 89.1276 160.034 89.1406 159.805 89.1406C159.107 89.1406 158.477 89.0312 157.914 88.8125C157.357 88.5938 156.88 88.2708 156.484 87.8438C156.094 87.4115 155.792 86.875 155.578 86.2344C155.37 85.5938 155.266 84.8516 155.266 84.0078C155.266 83.1693 155.383 82.4193 155.617 81.7578C155.852 81.0911 156.18 80.5286 156.602 80.0703C157.029 79.6068 157.539 79.2552 158.133 79.0156C158.732 78.7708 159.391 78.6484 160.109 78.6484C160.568 78.6484 161.003 78.6901 161.414 78.7734C161.831 78.8516 162.229 78.9792 162.609 79.1562V80.5391ZM172.266 89H170.75L170.039 86.7734H165.789L165.07 89H163.625L167.016 78.7891H168.922L172.266 89ZM169.641 85.5312L167.914 80.0703L166.188 85.5312H169.641ZM180.117 88.6172C179.299 88.9557 178.443 89.125 177.547 89.125C176.104 89.125 174.995 88.6953 174.219 87.8359C173.448 86.9714 173.062 85.6953 173.062 84.0078C173.062 83.1901 173.169 82.4505 173.383 81.7891C173.596 81.1276 173.901 80.5677 174.297 80.1094C174.693 79.6458 175.172 79.2891 175.734 79.0391C176.297 78.7891 176.927 78.6641 177.625 78.6641C178.099 78.6641 178.539 78.7057 178.945 78.7891C179.352 78.8672 179.742 78.9896 180.117 79.1562V80.5234C179.747 80.3203 179.365 80.1667 178.969 80.0625C178.573 79.9531 178.141 79.8984 177.672 79.8984C177.193 79.8984 176.758 79.9896 176.367 80.1719C175.982 80.349 175.654 80.6094 175.383 80.9531C175.112 81.2917 174.904 81.7083 174.758 82.2031C174.612 82.6927 174.539 83.2526 174.539 83.8828C174.539 85.2057 174.807 86.2031 175.344 86.875C175.88 87.5469 176.667 87.8828 177.703 87.8828C178.141 87.8828 178.56 87.8333 178.961 87.7344C179.362 87.6302 179.747 87.487 180.117 87.3047V88.6172ZM189.266 79.9766H186.242V89H184.836V79.9766H181.812V78.7891H189.266V79.9766Z" fill="#7B6C6C"/>
<path d="M56.9609 107.617C56.1432 107.956 55.2865 108.125 54.3906 108.125C52.9479 108.125 51.8385 107.695 51.0625 106.836C50.2917 105.971 49.9062 104.695 49.9062 103.008C49.9062 102.19 50.013 101.451 50.2266 100.789C50.4401 100.128 50.7448 99.5677 51.1406 99.1094C51.5365 98.6458 52.0156 98.2891 52.5781 98.0391C53.1406 97.7891 53.7708 97.6641 54.4688 97.6641C54.9427 97.6641 55.3828 97.7057 55.7891 97.7891C56.1953 97.8672 56.5859 97.9896 56.9609 98.1562V99.5234C56.5911 99.3203 56.2083 99.1667 55.8125 99.0625C55.4167 98.9531 54.9844 98.8984 54.5156 98.8984C54.0365 98.8984 53.6016 98.9896 53.2109 99.1719C52.8255 99.349 52.4974 99.6094 52.2266 99.9531C51.9557 100.292 51.7474 100.708 51.6016 101.203C51.4557 101.693 51.3828 102.253 51.3828 102.883C51.3828 104.206 51.651 105.203 52.1875 105.875C52.724 106.547 53.5104 106.883 54.5469 106.883C54.9844 106.883 55.4036 106.833 55.8047 106.734C56.2057 106.63 56.5911 106.487 56.9609 106.305V107.617ZM65.8438 99.5391C65.4635 99.3359 65.0729 99.1797 64.6719 99.0703C64.2708 98.9557 63.8333 98.8984 63.3594 98.8984C62.8177 98.8984 62.3359 98.9948 61.9141 99.1875C61.4922 99.3802 61.1354 99.6536 60.8438 100.008C60.5573 100.357 60.3359 100.779 60.1797 101.273C60.0286 101.768 59.9531 102.315 59.9531 102.914C59.9531 103.539 60.0156 104.099 60.1406 104.594C60.2656 105.089 60.4609 105.508 60.7266 105.852C60.9922 106.195 61.3307 106.458 61.7422 106.641C62.1589 106.823 62.6562 106.914 63.2344 106.914C63.3333 106.914 63.4401 106.909 63.5547 106.898C63.6693 106.888 63.7839 106.875 63.8984 106.859C64.013 106.839 64.1224 106.815 64.2266 106.789C64.3359 106.763 64.4323 106.734 64.5156 106.703V103.453H62.4297V102.305H65.8906V107.523C65.6771 107.622 65.4505 107.711 65.2109 107.789C64.9766 107.867 64.7344 107.932 64.4844 107.984C64.2396 108.036 63.9948 108.076 63.75 108.102C63.5052 108.128 63.2682 108.141 63.0391 108.141C62.3411 108.141 61.7109 108.031 61.1484 107.812C60.5911 107.594 60.1146 107.271 59.7188 106.844C59.3281 106.411 59.026 105.875 58.8125 105.234C58.6042 104.594 58.5 103.852 58.5 103.008C58.5 102.169 58.6172 101.419 58.8516 100.758C59.0859 100.091 59.4141 99.5286 59.8359 99.0703C60.263 98.6068 60.7734 98.2552 61.3672 98.0156C61.9661 97.7708 62.625 97.6484 63.3438 97.6484C63.8021 97.6484 64.237 97.6901 64.6484 97.7734C65.0651 97.8516 65.4635 97.9792 65.8438 98.1562V99.5391ZM74.9062 98.9766H71.8828V108H70.4766V98.9766H67.4531V97.7891H74.9062V98.9766ZM84.2969 108H82.7812L82.0703 105.773H77.8203L77.1016 108H75.6562L79.0469 97.7891H80.9531L84.2969 108ZM81.6719 104.531L79.9453 99.0703L78.2188 104.531H81.6719ZM91.7188 107.711C91.3646 107.846 91 107.945 90.625 108.008C90.2552 108.076 89.8724 108.109 89.4766 108.109C88.237 108.109 87.2812 107.773 86.6094 107.102C85.9427 106.43 85.6094 105.448 85.6094 104.156C85.6094 103.536 85.7057 102.974 85.8984 102.469C86.0911 101.964 86.362 101.531 86.7109 101.172C87.0599 100.812 87.4766 100.536 87.9609 100.344C88.4453 100.146 88.9792 100.047 89.5625 100.047C89.9688 100.047 90.349 100.076 90.7031 100.133C91.0573 100.19 91.3958 100.284 91.7188 100.414V101.711C91.3802 101.534 91.0339 101.406 90.6797 101.328C90.3307 101.245 89.9688 101.203 89.5938 101.203C89.2448 101.203 88.9141 101.271 88.6016 101.406C88.2943 101.536 88.0234 101.727 87.7891 101.977C87.5547 102.227 87.3698 102.531 87.2344 102.891C87.099 103.25 87.0312 103.656 87.0312 104.109C87.0312 105.057 87.2604 105.768 87.7188 106.242C88.1823 106.711 88.8229 106.945 89.6406 106.945C90.0104 106.945 90.3672 106.904 90.7109 106.82C91.0599 106.737 91.3958 106.612 91.7188 106.445V107.711ZM101.031 99.5391C100.651 99.3359 100.26 99.1797 99.8594 99.0703C99.4583 98.9557 99.0208 98.8984 98.5469 98.8984C98.0052 98.8984 97.5234 98.9948 97.1016 99.1875C96.6797 99.3802 96.3229 99.6536 96.0312 100.008C95.7448 100.357 95.5234 100.779 95.3672 101.273C95.2161 101.768 95.1406 102.315 95.1406 102.914C95.1406 103.539 95.2031 104.099 95.3281 104.594C95.4531 105.089 95.6484 105.508 95.9141 105.852C96.1797 106.195 96.5182 106.458 96.9297 106.641C97.3464 106.823 97.8438 106.914 98.4219 106.914C98.5208 106.914 98.6276 106.909 98.7422 106.898C98.8568 106.888 98.9714 106.875 99.0859 106.859C99.2005 106.839 99.3099 106.815 99.4141 106.789C99.5234 106.763 99.6198 106.734 99.7031 106.703V103.453H97.6172V102.305H101.078V107.523C100.865 107.622 100.638 107.711 100.398 107.789C100.164 107.867 99.9219 107.932 99.6719 107.984C99.4271 108.036 99.1823 108.076 98.9375 108.102C98.6927 108.128 98.4557 108.141 98.2266 108.141C97.5286 108.141 96.8984 108.031 96.3359 107.812C95.7786 107.594 95.3021 107.271 94.9062 106.844C94.5156 106.411 94.2135 105.875 94 105.234C93.7917 104.594 93.6875 103.852 93.6875 103.008C93.6875 102.169 93.8047 101.419 94.0391 100.758C94.2734 100.091 94.6016 99.5286 95.0234 99.0703C95.4505 98.6068 95.9609 98.2552 96.5547 98.0156C97.1536 97.7708 97.8125 97.6484 98.5312 97.6484C98.9896 97.6484 99.4245 97.6901 99.8359 97.7734C100.253 97.8516 100.651 97.9792 101.031 98.1562V99.5391ZM109.828 99.5391C109.448 99.3359 109.057 99.1797 108.656 99.0703C108.255 98.9557 107.818 98.8984 107.344 98.8984C106.802 98.8984 106.32 98.9948 105.898 99.1875C105.477 99.3802 105.12 99.6536 104.828 100.008C104.542 100.357 104.32 100.779 104.164 101.273C104.013 101.768 103.938 102.315 103.938 102.914C103.938 103.539 104 104.099 104.125 104.594C104.25 105.089 104.445 105.508 104.711 105.852C104.977 106.195 105.315 106.458 105.727 106.641C106.143 106.823 106.641 106.914 107.219 106.914C107.318 106.914 107.424 106.909 107.539 106.898C107.654 106.888 107.768 106.875 107.883 106.859C107.997 106.839 108.107 106.815 108.211 106.789C108.32 106.763 108.417 106.734 108.5 106.703V103.453H106.414V102.305H109.875V107.523C109.661 107.622 109.435 107.711 109.195 107.789C108.961 107.867 108.719 107.932 108.469 107.984C108.224 108.036 107.979 108.076 107.734 108.102C107.49 108.128 107.253 108.141 107.023 108.141C106.326 108.141 105.695 108.031 105.133 107.812C104.576 107.594 104.099 107.271 103.703 106.844C103.312 106.411 103.01 105.875 102.797 105.234C102.589 104.594 102.484 103.852 102.484 103.008C102.484 102.169 102.602 101.419 102.836 100.758C103.07 100.091 103.398 99.5286 103.82 99.0703C104.247 98.6068 104.758 98.2552 105.352 98.0156C105.951 97.7708 106.609 97.6484 107.328 97.6484C107.786 97.6484 108.221 97.6901 108.633 97.7734C109.049 97.8516 109.448 97.9792 109.828 98.1562V99.5391ZM119.484 108H117.969L117.258 105.773H113.008L112.289 108H110.844L114.234 97.7891H116.141L119.484 108ZM116.859 104.531L115.133 99.0703L113.406 104.531H116.859ZM127.336 107.617C126.518 107.956 125.661 108.125 124.766 108.125C123.323 108.125 122.214 107.695 121.438 106.836C120.667 105.971 120.281 104.695 120.281 103.008C120.281 102.19 120.388 101.451 120.602 100.789C120.815 100.128 121.12 99.5677 121.516 99.1094C121.911 98.6458 122.391 98.2891 122.953 98.0391C123.516 97.7891 124.146 97.6641 124.844 97.6641C125.318 97.6641 125.758 97.7057 126.164 97.7891C126.57 97.8672 126.961 97.9896 127.336 98.1562V99.5234C126.966 99.3203 126.583 99.1667 126.188 99.0625C125.792 98.9531 125.359 98.8984 124.891 98.8984C124.411 98.8984 123.977 98.9896 123.586 99.1719C123.201 99.349 122.872 99.6094 122.602 99.9531C122.331 100.292 122.122 100.708 121.977 101.203C121.831 101.693 121.758 102.253 121.758 102.883C121.758 104.206 122.026 105.203 122.562 105.875C123.099 106.547 123.885 106.883 124.922 106.883C125.359 106.883 125.779 106.833 126.18 106.734C126.581 106.63 126.966 106.487 127.336 106.305V107.617ZM137.078 108H135.562L134.852 105.773H130.602L129.883 108H128.438L131.828 97.7891H133.734L137.078 108ZM134.453 104.531L132.727 99.0703L131 104.531H134.453Z" fill="#FF0000"/>
<path d="M89.7071 113.293C89.3166 112.902 88.6834 112.902 88.2929 113.293L81.9289 119.657C81.5384 120.047 81.5384 120.681 81.9289 121.071C82.3195 121.462 82.9526 121.462 83.3431 121.071L89 115.414L94.6569 121.071C95.0474 121.462 95.6805 121.462 96.0711 121.071C96.4616 120.681 96.4616 120.047 96.0711 119.657L89.7071 113.293ZM90 140V114H88V140H90Z" fill="#C4C4C4"/>
<path d="M2.30469 160.773C2.84635 160.971 3.51042 161.07 4.29688 161.07C5.08333 161.07 5.63281 160.922 5.94531 160.625C6.26302 160.328 6.42188 159.867 6.42188 159.242V158.094C6.20833 158.292 5.88802 158.44 5.46094 158.539C5.03906 158.638 4.65104 158.688 4.29688 158.688C2.20312 158.688 1.15625 157.805 1.15625 156.039V153.312C1.15625 152.453 1.41667 151.781 1.9375 151.297C2.46354 150.807 3.25 150.562 4.29688 150.562C4.71354 150.562 5.14062 150.651 5.57812 150.828C6.02083 151 6.30208 151.185 6.42188 151.383V150.719H7.89062V158.805C7.89062 159.799 7.6276 160.612 7.10156 161.242C6.58073 161.872 5.73698 162.188 4.57031 162.188C3.40365 162.188 2.53906 162.083 1.97656 161.875L2.30469 160.773ZM6.42188 152.828C6.42188 152.068 5.78906 151.688 4.52344 151.688C3.25781 151.688 2.625 152.177 2.625 153.156V156.266C2.625 157.13 3.25781 157.562 4.52344 157.562C5.26823 157.562 5.90104 157.354 6.42188 156.938V152.828ZM10.7188 159V150.719H12.1875V151.891C12.375 151.38 12.8828 151.01 13.7109 150.781C14.1432 150.656 14.5938 150.596 15.0625 150.602L15.0156 151.859C14.3073 151.859 13.6589 152 13.0703 152.281C12.4818 152.562 12.1875 152.87 12.1875 153.203V159H10.7188ZM20.0703 159.172C18.8568 159.172 17.9792 158.919 17.4375 158.414C16.8958 157.909 16.625 157.13 16.625 156.078V153.195C16.625 152.378 16.9036 151.734 17.4609 151.266C18.0182 150.797 18.8594 150.562 19.9844 150.562C21.1146 150.562 21.9531 150.781 22.5 151.219C23.0521 151.651 23.3281 152.271 23.3281 153.078V155.047H18.0938V156.211C18.0938 156.898 18.2318 157.378 18.5078 157.648C18.7839 157.914 19.2812 158.047 20 158.047C20.7188 158.047 21.125 158.031 21.2188 158C21.3125 157.969 21.4089 157.932 21.5078 157.891C21.6068 157.849 21.6745 157.799 21.7109 157.742C21.7526 157.685 21.8047 157.599 21.8672 157.484C21.9349 157.365 21.9844 157.135 22.0156 156.797H23.3125C23.2604 157.292 23.1719 157.69 23.0469 157.992C22.9271 158.294 22.7344 158.536 22.4688 158.719C22.2083 158.896 21.8932 159.016 21.5234 159.078C21.1589 159.141 20.6745 159.172 20.0703 159.172ZM18.0938 154.055H21.9062V152.922C21.9062 152.453 21.7448 152.13 21.4219 151.953C21.1042 151.776 20.6354 151.688 20.0156 151.688C19.3958 151.688 18.9193 151.794 18.5859 152.008C18.2578 152.221 18.0938 152.573 18.0938 153.062V154.055ZM27.8594 149.289L26.2578 147.211H27.4688L28.4375 148.57L29.4688 147.211H30.7266L29.0312 149.289H27.8594ZM28.4453 158.047C29.5547 158.047 30.1094 157.633 30.1094 156.805C30.1094 156.445 30.0599 156.18 29.9609 156.008C29.862 155.831 29.6302 155.674 29.2656 155.539L27.2969 154.812C26.6927 154.599 26.2708 154.346 26.0312 154.055C25.7969 153.758 25.6797 153.388 25.6797 152.945C25.6797 152.503 25.724 152.148 25.8125 151.883C25.901 151.612 26.0469 151.375 26.25 151.172C26.6562 150.766 27.3854 150.562 28.4375 150.562C29.4896 150.562 30.3958 150.714 31.1562 151.016L30.8203 152.141C30.5547 152.031 30.2057 151.93 29.7734 151.836C29.3411 151.737 28.9635 151.688 28.6406 151.688C27.8958 151.688 27.4245 151.807 27.2266 152.047C27.1068 152.198 27.0469 152.419 27.0469 152.711C27.0469 153.003 27.0938 153.211 27.1875 153.336C27.2865 153.456 27.4766 153.565 27.7578 153.664L29.7031 154.43C30.3802 154.695 30.8255 154.99 31.0391 155.312C31.2526 155.63 31.3594 156.133 31.3594 156.82C31.3594 157.508 31.138 158.073 30.6953 158.516C30.2526 158.953 29.5677 159.172 28.6406 159.172C27.9635 159.172 27.362 159.099 26.8359 158.953C26.3099 158.807 25.9062 158.656 25.625 158.5L25.9844 157.422C26.7292 157.839 27.5495 158.047 28.4453 158.047ZM33.7188 159V147.234H35.1875V154.906L39.1484 150.719H40.7578L37.3906 154.359L41.0938 159H39.3984L36.4297 155.156L35.1875 156.391V159H33.7188ZM44.9453 159.172C44.1068 159.172 43.4557 158.945 42.9922 158.492C42.5286 158.034 42.2969 157.466 42.2969 156.789C42.2969 156.404 42.3776 156.083 42.5391 155.828C42.8672 155.307 43.8464 154.81 45.4766 154.336C46.4193 154.076 46.9609 153.852 47.1016 153.664C47.2474 153.477 47.3281 153.331 47.3438 153.227C47.3594 153.117 47.3672 152.945 47.3672 152.711C47.3672 152.477 47.2708 152.247 47.0781 152.023C46.8906 151.799 46.4792 151.688 45.8438 151.688C44.9479 151.688 44.3984 151.859 44.1953 152.203C44.0911 152.38 44.0391 152.62 44.0391 152.922V153.289H42.625V152.914C42.625 152.107 42.8932 151.513 43.4297 151.133C43.9714 150.753 44.7786 150.562 45.8516 150.562C46.9245 150.562 47.6901 150.807 48.1484 151.297C48.6068 151.781 48.8359 152.474 48.8359 153.375V156.906C48.8359 157.339 48.8906 157.62 49 157.75C49.1094 157.875 49.3438 157.938 49.7031 157.938L49.5312 159.062H49.2344C48.7135 159.062 48.3255 158.964 48.0703 158.766C47.8151 158.562 47.6198 158.25 47.4844 157.828C47.0521 158.474 46.5312 158.88 45.9219 159.047C45.6302 159.13 45.3047 159.172 44.9453 159.172ZM45.6797 155.344C44.9401 155.557 44.4271 155.771 44.1406 155.984C43.8594 156.198 43.7188 156.5 43.7188 156.891C43.7188 157.276 43.849 157.568 44.1094 157.766C44.375 157.964 44.6927 158.062 45.0625 158.062C45.4375 158.062 45.776 158.016 46.0781 157.922C46.3802 157.823 46.651 157.68 46.8906 157.492C47.1354 157.299 47.2943 157.081 47.3672 156.836V154.445C46.987 154.826 46.4245 155.125 45.6797 155.344ZM55.875 159V147.234H57.3438V154.906L61.3047 150.719H62.9141L59.5469 154.359L63.25 159H61.5547L58.5859 155.156L57.3438 156.391V159H55.875ZM66.0469 156.664C66.0469 157.586 66.7005 158.047 68.0078 158.047C69.3151 158.047 69.9688 157.586 69.9688 156.664V153.078C69.9688 152.151 69.3151 151.688 68.0078 151.688C66.7005 151.688 66.0469 152.151 66.0469 153.078V156.664ZM71.4375 156.539C71.4375 157.352 71.1589 157.995 70.6016 158.469C70.0495 158.938 69.1823 159.172 68 159.172C66.8177 159.172 65.9505 158.938 65.3984 158.469C64.8516 158 64.5781 157.357 64.5781 156.539V153.203C64.5781 152.385 64.8516 151.742 65.3984 151.273C65.9505 150.799 66.8177 150.562 68 150.562C69.1823 150.562 70.0495 150.799 70.6016 151.273C71.1589 151.747 71.4375 152.391 71.4375 153.203V156.539ZM72.8438 161.758L72.6953 160.539H72.9219C73.4531 160.539 73.8073 160.469 73.9844 160.328C74.1615 160.193 74.276 160.023 74.3281 159.82C74.3802 159.622 74.4062 159.359 74.4062 159.031V150.719H75.875V158.945C75.875 160.305 75.5625 161.146 74.9375 161.469C74.5677 161.661 74.0417 161.758 73.3594 161.758H72.8438ZM74.4062 149.227V147.703H75.875V149.227H74.4062ZM81.5234 159.172C80.112 159.172 79.2161 158.672 78.8359 157.672C78.7266 157.385 78.6719 157.073 78.6719 156.734V150.719H80.1406V156.742C80.1406 157.148 80.2891 157.469 80.5859 157.703C80.888 157.932 81.3359 158.047 81.9297 158.047C82.5234 158.047 83.0052 157.901 83.375 157.609C83.75 157.312 83.9375 156.971 83.9375 156.586V150.719H85.4062V159H84.0938L83.9375 157.961C83.4792 158.768 82.6745 159.172 81.5234 159.172ZM94.8984 149.289L95.8359 146.625H97.5938L95.7266 149.289H94.8984ZM95.3828 159.172C93.6901 159.172 92.6302 158.583 92.2031 157.406C92.0781 157.073 92.0156 156.708 92.0156 156.312V153.156C92.0156 152.37 92.3151 151.742 92.9141 151.273C93.513 150.799 94.3229 150.562 95.3438 150.562C96.6458 150.562 97.5417 150.844 98.0312 151.406C98.4167 151.844 98.6094 152.49 98.6094 153.344L97.2109 153.477C97.2109 152.737 97.0781 152.255 96.8125 152.031C96.5521 151.802 96.0859 151.688 95.4141 151.688C94.7422 151.688 94.2526 151.805 93.9453 152.039C93.638 152.273 93.4844 152.659 93.4844 153.195V156.438C93.4844 157.01 93.6458 157.422 93.9688 157.672C94.2917 157.922 94.7891 158.047 95.4609 158.047C96.138 158.047 96.5885 157.958 96.8125 157.781C97.0417 157.604 97.1823 157.203 97.2344 156.578H98.5938C98.5104 157.536 98.2344 158.208 97.7656 158.594C97.2969 158.979 96.5026 159.172 95.3828 159.172ZM104.133 159.172C102.919 159.172 102.042 158.919 101.5 158.414C100.958 157.909 100.688 157.13 100.688 156.078V153.195C100.688 152.378 100.966 151.734 101.523 151.266C102.081 150.797 102.922 150.562 104.047 150.562C105.177 150.562 106.016 150.781 106.562 151.219C107.115 151.651 107.391 152.271 107.391 153.078V155.047H102.156V156.211C102.156 156.898 102.294 157.378 102.57 157.648C102.846 157.914 103.344 158.047 104.062 158.047C104.781 158.047 105.188 158.031 105.281 158C105.375 157.969 105.471 157.932 105.57 157.891C105.669 157.849 105.737 157.799 105.773 157.742C105.815 157.685 105.867 157.599 105.93 157.484C105.997 157.365 106.047 157.135 106.078 156.797H107.375C107.323 157.292 107.234 157.69 107.109 157.992C106.99 158.294 106.797 158.536 106.531 158.719C106.271 158.896 105.956 159.016 105.586 159.078C105.221 159.141 104.737 159.172 104.133 159.172ZM102.156 154.055H105.969V152.922C105.969 152.453 105.807 152.13 105.484 151.953C105.167 151.776 104.698 151.688 104.078 151.688C103.458 151.688 102.982 151.794 102.648 152.008C102.32 152.221 102.156 152.573 102.156 153.062V154.055ZM115.172 152.898C115.172 152.091 114.576 151.688 113.383 151.688C112.779 151.688 112.312 151.818 111.984 152.078C111.661 152.333 111.5 152.674 111.5 153.102V159H110.031V150.719H111.5V151.523C112.052 150.883 112.88 150.562 113.984 150.562C115.094 150.562 115.867 150.924 116.305 151.648L116.5 151.461C117.099 150.862 117.938 150.562 119.016 150.562C120.406 150.562 121.266 151.057 121.594 152.047C121.688 152.328 121.734 152.641 121.734 152.984V159H120.266V152.898C120.266 152.091 119.724 151.688 118.641 151.688C117.958 151.688 117.453 151.818 117.125 152.078C116.802 152.333 116.641 152.674 116.641 153.102V159H115.172V152.898ZM125.734 156.664C125.734 157.586 126.388 158.047 127.695 158.047C129.003 158.047 129.656 157.586 129.656 156.664V153.078C129.656 152.151 129.003 151.688 127.695 151.688C126.388 151.688 125.734 152.151 125.734 153.078V156.664ZM131.125 156.539C131.125 157.352 130.846 157.995 130.289 158.469C129.737 158.938 128.87 159.172 127.688 159.172C126.505 159.172 125.638 158.938 125.086 158.469C124.539 158 124.266 157.357 124.266 156.539V153.203C124.266 152.385 124.539 151.742 125.086 151.273C125.638 150.799 126.505 150.562 127.688 150.562C128.87 150.562 129.737 150.799 130.289 151.273C130.846 151.747 131.125 152.391 131.125 153.203V156.539ZM138.906 156.664C138.906 157.586 139.56 158.047 140.867 158.047C142.174 158.047 142.828 157.586 142.828 156.664V153.078C142.828 152.151 142.174 151.688 140.867 151.688C139.56 151.688 138.906 152.151 138.906 153.078V156.664ZM144.297 156.539C144.297 157.352 144.018 157.995 143.461 158.469C142.909 158.938 142.042 159.172 140.859 159.172C139.677 159.172 138.81 158.938 138.258 158.469C137.711 158 137.438 157.357 137.438 156.539V153.203C137.438 152.385 137.711 151.742 138.258 151.273C138.81 150.799 139.677 150.562 140.859 150.562C142.042 150.562 142.909 150.799 143.461 151.273C144.018 151.747 144.297 152.391 144.297 153.203V156.539ZM148.375 151.109C149.021 150.745 149.799 150.562 150.711 150.562C151.622 150.562 152.349 150.805 152.891 151.289C153.432 151.773 153.703 152.427 153.703 153.25V156.25C153.703 157.109 153.406 157.812 152.812 158.359C152.219 158.901 151.396 159.172 150.344 159.172C149.677 159.172 148.956 158.93 148.18 158.445L147.992 159H146.906V147.234H148.375V151.109ZM152.234 153.141C152.234 152.172 151.622 151.688 150.398 151.688C149.799 151.688 149.125 151.859 148.375 152.203V157.531C148.948 157.854 149.531 158.016 150.125 158.016C150.724 158.016 151.224 157.872 151.625 157.586C152.031 157.294 152.234 156.901 152.234 156.406V153.141ZM159.461 159.172C158.247 159.172 157.37 158.919 156.828 158.414C156.286 157.909 156.016 157.13 156.016 156.078V153.195C156.016 152.378 156.294 151.734 156.852 151.266C157.409 150.797 158.25 150.562 159.375 150.562C160.505 150.562 161.344 150.781 161.891 151.219C162.443 151.651 162.719 152.271 162.719 153.078V155.047H157.484V156.211C157.484 156.898 157.622 157.378 157.898 157.648C158.174 157.914 158.672 158.047 159.391 158.047C160.109 158.047 160.516 158.031 160.609 158C160.703 157.969 160.799 157.932 160.898 157.891C160.997 157.849 161.065 157.799 161.102 157.742C161.143 157.685 161.195 157.599 161.258 157.484C161.326 157.365 161.375 157.135 161.406 156.797H162.703C162.651 157.292 162.562 157.69 162.438 157.992C162.318 158.294 162.125 158.536 161.859 158.719C161.599 158.896 161.284 159.016 160.914 159.078C160.549 159.141 160.065 159.172 159.461 159.172ZM157.484 154.055H161.297V152.922C161.297 152.453 161.135 152.13 160.812 151.953C160.495 151.776 160.026 151.688 159.406 151.688C158.786 151.688 158.31 151.794 157.977 152.008C157.648 152.221 157.484 152.573 157.484 153.062V154.055ZM168.047 159.062C167.562 159.062 167.167 159.026 166.859 158.953C166.552 158.88 166.281 158.742 166.047 158.539C165.609 158.159 165.391 157.38 165.391 156.203V147.242H166.859V156.219C166.859 156.885 166.958 157.32 167.156 157.523C167.354 157.727 167.763 157.828 168.383 157.828H168.641L168.469 159.062H168.047ZM173.945 159.172C172.732 159.172 171.854 158.919 171.312 158.414C170.771 157.909 170.5 157.13 170.5 156.078V153.195C170.5 152.378 170.779 151.734 171.336 151.266C171.893 150.797 172.734 150.562 173.859 150.562C174.99 150.562 175.828 150.781 176.375 151.219C176.927 151.651 177.203 152.271 177.203 153.078V155.047H171.969V156.211C171.969 156.898 172.107 157.378 172.383 157.648C172.659 157.914 173.156 158.047 173.875 158.047C174.594 158.047 175 158.031 175.094 158C175.188 157.969 175.284 157.932 175.383 157.891C175.482 157.849 175.549 157.799 175.586 157.742C175.628 157.685 175.68 157.599 175.742 157.484C175.81 157.365 175.859 157.135 175.891 156.797H177.188C177.135 157.292 177.047 157.69 176.922 157.992C176.802 158.294 176.609 158.536 176.344 158.719C176.083 158.896 175.768 159.016 175.398 159.078C175.034 159.141 174.549 159.172 173.945 159.172ZM171.969 154.055H175.781V152.922C175.781 152.453 175.62 152.13 175.297 151.953C174.979 151.776 174.51 151.688 173.891 151.688C173.271 151.688 172.794 151.794 172.461 152.008C172.133 152.221 171.969 152.573 171.969 153.062V154.055ZM181.875 149.289L180.273 147.211H181.484L182.453 148.57L183.484 147.211H184.742L183.047 149.289H181.875ZM179.484 159V158.078L183.445 151.688H179.625V150.719H184.992V151.617L181.008 158.031H185.062V159H179.484ZM187.531 159V150.719H189V159H187.531ZM187.531 149.227V147.703H189V149.227H187.531ZM195.859 159.062C194.703 159.062 193.867 158.88 193.352 158.516C192.841 158.151 192.586 157.523 192.586 156.633V151.828H191.203V150.719H192.641L192.82 148.156H194.055V150.719H196.133V151.828H194.055V156.539C194.055 157.06 194.203 157.406 194.5 157.578C194.802 157.745 195.326 157.828 196.07 157.828H196.234L196.078 159.062H195.859ZM198.75 159V150.719H200.219V159H198.75ZM198.75 149.227V147.703H200.219V149.227H198.75ZM6.59375 178.898C6.59375 178.091 5.9974 177.688 4.80469 177.688C4.20052 177.688 3.73438 177.818 3.40625 178.078C3.08333 178.333 2.92188 178.674 2.92188 179.102V185H1.45312V176.719H2.92188V177.523C3.47396 176.883 4.30208 176.562 5.40625 176.562C6.51562 176.562 7.28906 176.924 7.72656 177.648L7.92188 177.461C8.52083 176.862 9.35938 176.562 10.4375 176.562C11.8281 176.562 12.6875 177.057 13.0156 178.047C13.1094 178.328 13.1562 178.641 13.1562 178.984V185H11.6875V178.898C11.6875 178.091 11.1458 177.688 10.0625 177.688C9.38021 177.688 8.875 177.818 8.54688 178.078C8.22396 178.333 8.0625 178.674 8.0625 179.102V185H6.59375V178.898ZM18.2109 185.172C17.3724 185.172 16.7214 184.945 16.2578 184.492C15.7943 184.034 15.5625 183.466 15.5625 182.789C15.5625 182.404 15.6432 182.083 15.8047 181.828C16.1328 181.307 17.112 180.81 18.7422 180.336C19.6849 180.076 20.2266 179.852 20.3672 179.664C20.513 179.477 20.5938 179.331 20.6094 179.227C20.625 179.117 20.6328 178.945 20.6328 178.711C20.6328 178.477 20.5365 178.247 20.3438 178.023C20.1562 177.799 19.7448 177.688 19.1094 177.688C18.2135 177.688 17.6641 177.859 17.4609 178.203C17.3568 178.38 17.3047 178.62 17.3047 178.922V179.289H15.8906V178.914C15.8906 178.107 16.1589 177.513 16.6953 177.133C17.237 176.753 18.0443 176.562 19.1172 176.562C20.1901 176.562 20.9557 176.807 21.4141 177.297C21.8724 177.781 22.1016 178.474 22.1016 179.375V182.906C22.1016 183.339 22.1562 183.62 22.2656 183.75C22.375 183.875 22.6094 183.938 22.9688 183.938L22.7969 185.062H22.5C21.9792 185.062 21.5911 184.964 21.3359 184.766C21.0807 184.562 20.8854 184.25 20.75 183.828C20.3177 184.474 19.7969 184.88 19.1875 185.047C18.8958 185.13 18.5703 185.172 18.2109 185.172ZM18.9453 181.344C18.2057 181.557 17.6927 181.771 17.4062 181.984C17.125 182.198 16.9844 182.5 16.9844 182.891C16.9844 183.276 17.1146 183.568 17.375 183.766C17.6406 183.964 17.9583 184.062 18.3281 184.062C18.7031 184.062 19.0417 184.016 19.3438 183.922C19.6458 183.823 19.9167 183.68 20.1562 183.492C20.401 183.299 20.5599 183.081 20.6328 182.836V180.445C20.2526 180.826 19.6901 181.125 18.9453 181.344ZM27.8281 185.062C27.3438 185.062 26.9479 185.026 26.6406 184.953C26.3333 184.88 26.0625 184.742 25.8281 184.539C25.3906 184.159 25.1719 183.38 25.1719 182.203V173.242H26.6406V182.219C26.6406 182.885 26.7396 183.32 26.9375 183.523C27.1354 183.727 27.5443 183.828 28.1641 183.828H28.4219L28.25 185.062H27.8281ZM30.7344 185V176.719H32.2031V185H30.7344ZM30.7344 175.227V173.703H32.2031V175.227H30.7344ZM40.375 178.898C40.375 178.091 39.7786 177.688 38.5859 177.688C37.9818 177.688 37.5156 177.818 37.1875 178.078C36.8646 178.333 36.7031 178.674 36.7031 179.102V185H35.2344V176.719H36.7031V177.523C37.2552 176.883 38.0833 176.562 39.1875 176.562C40.2969 176.562 41.0703 176.924 41.5078 177.648L41.7031 177.461C42.3021 176.862 43.1406 176.562 44.2188 176.562C45.6094 176.562 46.4688 177.057 46.7969 178.047C46.8906 178.328 46.9375 178.641 46.9375 178.984V185H45.4688V178.898C45.4688 178.091 44.9271 177.688 43.8438 177.688C43.1615 177.688 42.6562 177.818 42.3281 178.078C42.0052 178.333 41.8438 178.674 41.8438 179.102V185H40.375V178.898ZM56.2422 184.047C57.3516 184.047 57.9062 183.633 57.9062 182.805C57.9062 182.445 57.8568 182.18 57.7578 182.008C57.6589 181.831 57.4271 181.674 57.0625 181.539L55.0938 180.812C54.4896 180.599 54.0677 180.346 53.8281 180.055C53.5938 179.758 53.4766 179.388 53.4766 178.945C53.4766 178.503 53.5208 178.148 53.6094 177.883C53.6979 177.612 53.8438 177.375 54.0469 177.172C54.4531 176.766 55.1823 176.562 56.2344 176.562C57.2865 176.562 58.1927 176.714 58.9531 177.016L58.6172 178.141C58.3516 178.031 58.0026 177.93 57.5703 177.836C57.138 177.737 56.7604 177.688 56.4375 177.688C55.6927 177.688 55.2214 177.807 55.0234 178.047C54.9036 178.198 54.8438 178.419 54.8438 178.711C54.8438 179.003 54.8906 179.211 54.9844 179.336C55.0833 179.456 55.2734 179.565 55.5547 179.664L57.5 180.43C58.1771 180.695 58.6224 180.99 58.8359 181.312C59.0495 181.63 59.1562 182.133 59.1562 182.82C59.1562 183.508 58.9349 184.073 58.4922 184.516C58.0495 184.953 57.3646 185.172 56.4375 185.172C55.7604 185.172 55.1589 185.099 54.6328 184.953C54.1068 184.807 53.7031 184.656 53.4219 184.5L53.7812 183.422C54.526 183.839 55.3464 184.047 56.2422 184.047ZM64.2031 185.062C63.7188 185.062 63.3229 185.026 63.0156 184.953C62.7083 184.88 62.4375 184.742 62.2031 184.539C61.7656 184.159 61.5469 183.38 61.5469 182.203V173.242H63.0156V182.219C63.0156 182.885 63.1146 183.32 63.3125 183.523C63.5104 183.727 63.9193 183.828 64.5391 183.828H64.7969L64.625 185.062H64.2031ZM68.125 182.664C68.125 183.586 68.7786 184.047 70.0859 184.047C71.3932 184.047 72.0469 183.586 72.0469 182.664V179.078C72.0469 178.151 71.3932 177.688 70.0859 177.688C68.7786 177.688 68.125 178.151 68.125 179.078V182.664ZM73.5156 182.539C73.5156 183.352 73.237 183.995 72.6797 184.469C72.1276 184.938 71.2604 185.172 70.0781 185.172C68.8958 185.172 68.0286 184.938 67.4766 184.469C66.9297 184 66.6562 183.357 66.6562 182.539V179.203C66.6562 178.385 66.9297 177.742 67.4766 177.273C68.0286 176.799 68.8958 176.562 70.0781 176.562C71.2604 176.562 72.1276 176.799 72.6797 177.273C73.237 177.747 73.5156 178.391 73.5156 179.203V182.539ZM78.3516 185L75.1406 176.719H76.6172L79.1094 183.438L81.3281 176.719H82.7656L79.8359 185H78.3516ZM85.8906 182.664C85.8906 183.586 86.5443 184.047 87.8516 184.047C89.1589 184.047 89.8125 183.586 89.8125 182.664V179.078C89.8125 178.151 89.1589 177.688 87.8516 177.688C86.5443 177.688 85.8906 178.151 85.8906 179.078V182.664ZM91.2812 182.539C91.2812 183.352 91.0026 183.995 90.4453 184.469C89.8932 184.938 89.026 185.172 87.8438 185.172C86.6615 185.172 85.7943 184.938 85.2422 184.469C84.6953 184 84.4219 183.357 84.4219 182.539V179.203C84.4219 178.385 84.6953 177.742 85.2422 177.273C85.7943 176.799 86.6615 176.562 87.8438 176.562C89.026 176.562 89.8932 176.799 90.4453 177.273C91.0026 177.747 91.2812 178.391 91.2812 179.203V182.539ZM99.0312 178.898C99.0312 178.091 98.4349 177.688 97.2422 177.688C96.638 177.688 96.1719 177.818 95.8438 178.078C95.5208 178.333 95.3594 178.674 95.3594 179.102V185H93.8906V176.719H95.3594V177.523C95.9115 176.883 96.7396 176.562 97.8438 176.562C98.9531 176.562 99.7266 176.924 100.164 177.648L100.359 177.461C100.958 176.862 101.797 176.562 102.875 176.562C104.266 176.562 105.125 177.057 105.453 178.047C105.547 178.328 105.594 178.641 105.594 178.984V185H104.125V178.898C104.125 178.091 103.583 177.688 102.5 177.688C101.818 177.688 101.312 177.818 100.984 178.078C100.661 178.333 100.5 178.674 100.5 179.102V185H99.0312V178.898ZM116 186.172C115.286 186.172 114.638 186.07 114.055 185.867C113.695 185.742 113.328 185.464 112.953 185.031C112.766 184.818 112.615 184.477 112.5 184.008C112.385 183.534 112.326 183.094 112.32 182.688C112.315 182.281 112.312 181.906 112.312 181.562V177.508C112.312 176.456 112.339 175.805 112.391 175.555C112.443 175.299 112.497 175.052 112.555 174.812C112.612 174.568 112.688 174.375 112.781 174.234C112.875 174.089 112.987 173.927 113.117 173.75C113.247 173.568 113.404 173.427 113.586 173.328C113.768 173.224 114.023 173.104 114.352 172.969C114.685 172.828 115.234 172.758 116 172.758V173.938C115.083 173.938 114.492 174.161 114.227 174.609C114.122 174.786 114.026 174.982 113.938 175.195C113.854 175.409 113.812 176.083 113.812 177.219V181.805C113.812 182.924 113.854 183.589 113.938 183.797C114.146 184.302 114.372 184.612 114.617 184.727C115.008 184.909 115.469 185 116 185V186.172ZM118.422 188.188V176.719H119.578L119.75 177.344C119.99 177.13 120.318 176.948 120.734 176.797C121.151 176.641 121.583 176.562 122.031 176.562C123.057 176.562 123.836 176.812 124.367 177.312C124.904 177.812 125.172 178.477 125.172 179.305V182.312C125.172 183.167 124.88 183.857 124.297 184.383C123.714 184.909 122.896 185.172 121.844 185.172C121.115 185.172 120.464 185.026 119.891 184.734V188.188H118.422ZM119.891 183.602C120.417 183.898 121.005 184.047 121.656 184.047C122.307 184.047 122.81 183.909 123.164 183.633C123.523 183.357 123.703 182.969 123.703 182.469V179.188C123.703 178.708 123.526 178.339 123.172 178.078C122.823 177.818 122.393 177.688 121.883 177.688C121.378 177.688 120.945 177.792 120.586 178C120.232 178.208 120 178.396 119.891 178.562V183.602ZM127.781 185V176.719H129.25V177.891C129.438 177.38 129.945 177.01 130.773 176.781C131.206 176.656 131.656 176.596 132.125 176.602L132.078 177.859C131.37 177.859 130.721 178 130.133 178.281C129.544 178.562 129.25 178.87 129.25 179.203V185H127.781ZM135.156 182.664C135.156 183.586 135.81 184.047 137.117 184.047C138.424 184.047 139.078 183.586 139.078 182.664V179.078C139.078 178.151 138.424 177.688 137.117 177.688C135.81 177.688 135.156 178.151 135.156 179.078V182.664ZM140.547 182.539C140.547 183.352 140.268 183.995 139.711 184.469C139.159 184.938 138.292 185.172 137.109 185.172C135.927 185.172 135.06 184.938 134.508 184.469C133.961 184 133.688 183.357 133.688 182.539V179.203C133.688 178.385 133.961 177.742 134.508 177.273C135.06 176.799 135.927 176.562 137.109 176.562C138.292 176.562 139.159 176.799 139.711 177.273C140.268 177.747 140.547 178.391 140.547 179.203V182.539ZM148.297 178.898C148.297 178.091 147.701 177.688 146.508 177.688C145.904 177.688 145.438 177.818 145.109 178.078C144.786 178.333 144.625 178.674 144.625 179.102V185H143.156V176.719H144.625V177.523C145.177 176.883 146.005 176.562 147.109 176.562C148.219 176.562 148.992 176.924 149.43 177.648L149.625 177.461C150.224 176.862 151.062 176.562 152.141 176.562C153.531 176.562 154.391 177.057 154.719 178.047C154.812 178.328 154.859 178.641 154.859 178.984V185H153.391V178.898C153.391 178.091 152.849 177.688 151.766 177.688C151.083 177.688 150.578 177.818 150.25 178.078C149.927 178.333 149.766 178.674 149.766 179.102V185H148.297V178.898ZM160.836 185.172C159.622 185.172 158.745 184.919 158.203 184.414C157.661 183.909 157.391 183.13 157.391 182.078V179.195C157.391 178.378 157.669 177.734 158.227 177.266C158.784 176.797 159.625 176.562 160.75 176.562C161.88 176.562 162.719 176.781 163.266 177.219C163.818 177.651 164.094 178.271 164.094 179.078V181.047H158.859V182.211C158.859 182.898 158.997 183.378 159.273 183.648C159.549 183.914 160.047 184.047 160.766 184.047C161.484 184.047 161.891 184.031 161.984 184C162.078 183.969 162.174 183.932 162.273 183.891C162.372 183.849 162.44 183.799 162.477 183.742C162.518 183.685 162.57 183.599 162.633 183.484C162.701 183.365 162.75 183.135 162.781 182.797H164.078C164.026 183.292 163.938 183.69 163.812 183.992C163.693 184.294 163.5 184.536 163.234 184.719C162.974 184.896 162.659 185.016 162.289 185.078C161.924 185.141 161.44 185.172 160.836 185.172ZM158.859 180.055H162.672V178.922C162.672 178.453 162.51 178.13 162.188 177.953C161.87 177.776 161.401 177.688 160.781 177.688C160.161 177.688 159.685 177.794 159.352 178.008C159.023 178.221 158.859 178.573 158.859 179.062V180.055ZM172.016 178.898C172.016 178.091 171.398 177.688 170.164 177.688C169.555 177.688 169.076 177.818 168.727 178.078C168.378 178.339 168.203 178.68 168.203 179.102V185H166.734V176.719H168.203V177.523C168.755 176.883 169.573 176.562 170.656 176.562C172.062 176.562 172.953 177.057 173.328 178.047C173.432 178.328 173.484 178.641 173.484 178.984V185H172.016V178.898ZM178.539 185.172C177.701 185.172 177.049 184.945 176.586 184.492C176.122 184.034 175.891 183.466 175.891 182.789C175.891 182.404 175.971 182.083 176.133 181.828C176.461 181.307 177.44 180.81 179.07 180.336C180.013 180.076 180.555 179.852 180.695 179.664C180.841 179.477 180.922 179.331 180.938 179.227C180.953 179.117 180.961 178.945 180.961 178.711C180.961 178.477 180.865 178.247 180.672 178.023C180.484 177.799 180.073 177.688 179.438 177.688C178.542 177.688 177.992 177.859 177.789 178.203C177.685 178.38 177.633 178.62 177.633 178.922V179.289H176.219V178.914C176.219 178.107 176.487 177.513 177.023 177.133C177.565 176.753 178.372 176.562 179.445 176.562C180.518 176.562 181.284 176.807 181.742 177.297C182.201 177.781 182.43 178.474 182.43 179.375V182.906C182.43 183.339 182.484 183.62 182.594 183.75C182.703 183.875 182.938 183.938 183.297 183.938L183.125 185.062H182.828C182.307 185.062 181.919 184.964 181.664 184.766C181.409 184.562 181.214 184.25 181.078 183.828C180.646 184.474 180.125 184.88 179.516 185.047C179.224 185.13 178.898 185.172 178.539 185.172ZM179.273 181.344C178.534 181.557 178.021 181.771 177.734 181.984C177.453 182.198 177.312 182.5 177.312 182.891C177.312 183.276 177.443 183.568 177.703 183.766C177.969 183.964 178.286 184.062 178.656 184.062C179.031 184.062 179.37 184.016 179.672 183.922C179.974 183.823 180.245 183.68 180.484 183.492C180.729 183.299 180.888 183.081 180.961 182.836V180.445C180.581 180.826 180.018 181.125 179.273 181.344ZM191.93 185V174.992H188.672V173.703H196.766V174.992H193.5V185H191.93ZM205.648 185.172C204.237 185.172 203.341 184.672 202.961 183.672C202.852 183.385 202.797 183.073 202.797 182.734V176.719H204.266V182.742C204.266 183.148 204.414 183.469 204.711 183.703C205.013 183.932 205.461 184.047 206.055 184.047C206.648 184.047 207.13 183.901 207.5 183.609C207.875 183.312 208.062 182.971 208.062 182.586V176.719H209.531V185H208.219L208.062 183.961C207.604 184.768 206.799 185.172 205.648 185.172ZM218.07 184.664C217.409 184.32 216.966 183.862 216.742 183.289C216.518 182.711 216.406 182.016 216.406 181.203V177.656C216.406 176.01 216.833 174.888 217.688 174.289C218.411 173.784 219.464 173.531 220.844 173.531C222.229 173.531 223.234 173.724 223.859 174.109C224.484 174.49 224.875 175.089 225.031 175.906C225.104 176.271 225.141 176.706 225.141 177.211L223.648 177.344C223.648 176.583 223.583 176.07 223.453 175.805C223.323 175.534 223.193 175.341 223.062 175.227C222.938 175.112 222.729 175.013 222.438 174.93C222.146 174.841 221.69 174.797 221.07 174.797C220.451 174.797 219.964 174.839 219.609 174.922C219.255 175 218.953 175.135 218.703 175.328C218.224 175.698 217.984 176.378 217.984 177.367V181.445C217.984 182.424 218.227 183.081 218.711 183.414C219.195 183.742 219.966 183.906 221.023 183.906C222.086 183.906 222.763 183.781 223.055 183.531C223.346 183.281 223.526 182.917 223.594 182.438C223.63 182.177 223.648 181.865 223.648 181.5H225.141C225.141 182.635 224.977 183.432 224.648 183.891C224.044 184.745 222.896 185.172 221.203 185.172C219.781 185.172 218.737 185.003 218.07 184.664ZM227.328 186.172V184.992C228.245 184.997 228.836 184.776 229.102 184.328C229.206 184.151 229.299 183.956 229.383 183.742C229.471 183.523 229.516 182.846 229.516 181.711V177.125C229.516 176.005 229.474 175.341 229.391 175.133C229.182 174.628 228.956 174.318 228.711 174.203C228.32 174.021 227.859 173.93 227.328 173.93V172.758C228.042 172.758 228.69 172.859 229.273 173.062C229.633 173.188 230 173.466 230.375 173.898C230.562 174.112 230.714 174.456 230.828 174.93C230.943 175.398 231.003 175.836 231.008 176.242C231.013 176.648 231.016 177.023 231.016 177.367V181.422C231.016 182.474 230.99 183.128 230.938 183.383C230.885 183.633 230.831 183.88 230.773 184.125C230.716 184.365 230.641 184.557 230.547 184.703C230.453 184.844 230.341 185.003 230.211 185.18C230.081 185.362 229.924 185.503 229.742 185.602C229.56 185.706 229.302 185.826 228.969 185.961C228.641 186.102 228.094 186.172 227.328 186.172Z" fill="#C9D1D9"/>
</svg>
