<svg width="582" height="37" viewBox="0 0 582 37" fill="none" xmlns="http://www.w3.org/2000/svg">
<path d="M10.8984 13H9.00391L8.11523 10.2168H2.80273L1.9043 13H0.0976562L4.33594 0.236328H6.71875L10.8984 13ZM7.61719 8.66406L5.45898 1.83789L3.30078 8.66406H7.61719ZM21.8945 13H20L19.1113 10.2168H13.7988L12.9004 13H11.0938L15.332 0.236328H17.7148L21.8945 13ZM18.6133 8.66406L16.4551 1.83789L14.2969 8.66406H18.6133ZM32.1484 1.7207H28.3691V13H26.6113V1.7207H22.832V0.236328H32.1484V1.7207ZM65.8789 13H63.9844L63.0957 10.2168H57.7832L56.8848 13H55.0781L59.3164 0.236328H61.6992L65.8789 13ZM62.5977 8.66406L60.4395 1.83789L58.2812 8.66406H62.5977ZM76.1328 1.7207H72.3535V13H70.5957V1.7207H66.8164V0.236328H76.1328V1.7207ZM86.7969 2.42383C86.3216 2.16992 85.8333 1.97461 85.332 1.83789C84.8307 1.69466 84.2839 1.62305 83.6914 1.62305C83.0143 1.62305 82.4121 1.74349 81.8848 1.98438C81.3574 2.22526 80.9115 2.56706 80.5469 3.00977C80.1888 3.44596 79.9121 3.97331 79.7168 4.5918C79.528 5.21029 79.4336 5.89388 79.4336 6.64258C79.4336 7.42383 79.5117 8.1237 79.668 8.74219C79.8242 9.36068 80.0684 9.88477 80.4004 10.3145C80.7324 10.7441 81.1556 11.0729 81.6699 11.3008C82.1908 11.5286 82.8125 11.6426 83.5352 11.6426C83.6589 11.6426 83.7923 11.6361 83.9355 11.623C84.0788 11.61 84.222 11.5938 84.3652 11.5742C84.5085 11.5482 84.6452 11.5189 84.7754 11.4863C84.9121 11.4538 85.0326 11.418 85.1367 11.3789V7.31641H82.5293V5.88086H86.8555V12.4043C86.5885 12.528 86.3053 12.6387 86.0059 12.7363C85.7129 12.834 85.4102 12.9154 85.0977 12.9805C84.7917 13.0456 84.4857 13.0944 84.1797 13.127C83.8737 13.1595 83.5775 13.1758 83.291 13.1758C82.4186 13.1758 81.6309 13.0391 80.9277 12.7656C80.2311 12.4922 79.6354 12.0885 79.1406 11.5547C78.6523 11.0143 78.2747 10.3438 78.0078 9.54297C77.7474 8.74219 77.6172 7.81445 77.6172 6.75977C77.6172 5.71159 77.7637 4.77409 78.0566 3.94727C78.3496 3.11393 78.7598 2.41081 79.2871 1.83789C79.821 1.25846 80.459 0.81901 81.2012 0.519531C81.9499 0.213542 82.7734 0.0605469 83.6719 0.0605469C84.2448 0.0605469 84.7884 0.11263 85.3027 0.216797C85.8236 0.314453 86.3216 0.473958 86.7969 0.695312V2.42383ZM120.859 13H118.965L118.076 10.2168H112.764L111.865 13H110.059L114.297 0.236328H116.68L120.859 13ZM117.578 8.66406L115.42 1.83789L113.262 8.66406H117.578ZM131.113 1.7207H127.334V13H125.576V1.7207H121.797V0.236328H131.113V1.7207ZM141.777 2.42383C141.302 2.16992 140.814 1.97461 140.312 1.83789C139.811 1.69466 139.264 1.62305 138.672 1.62305C137.995 1.62305 137.393 1.74349 136.865 1.98438C136.338 2.22526 135.892 2.56706 135.527 3.00977C135.169 3.44596 134.893 3.97331 134.697 4.5918C134.508 5.21029 134.414 5.89388 134.414 6.64258C134.414 7.42383 134.492 8.1237 134.648 8.74219C134.805 9.36068 135.049 9.88477 135.381 10.3145C135.713 10.7441 136.136 11.0729 136.65 11.3008C137.171 11.5286 137.793 11.6426 138.516 11.6426C138.639 11.6426 138.773 11.6361 138.916 11.623C139.059 11.61 139.202 11.5938 139.346 11.5742C139.489 11.5482 139.626 11.5189 139.756 11.4863C139.893 11.4538 140.013 11.418 140.117 11.3789V7.31641H137.51V5.88086H141.836V12.4043C141.569 12.528 141.286 12.6387 140.986 12.7363C140.693 12.834 140.391 12.9154 140.078 12.9805C139.772 13.0456 139.466 13.0944 139.16 13.127C138.854 13.1595 138.558 13.1758 138.271 13.1758C137.399 13.1758 136.611 13.0391 135.908 12.7656C135.212 12.4922 134.616 12.0885 134.121 11.5547C133.633 11.0143 133.255 10.3438 132.988 9.54297C132.728 8.74219 132.598 7.81445 132.598 6.75977C132.598 5.71159 132.744 4.77409 133.037 3.94727C133.33 3.11393 133.74 2.41081 134.268 1.83789C134.801 1.25846 135.439 0.81901 136.182 0.519531C136.93 0.213542 137.754 0.0605469 138.652 0.0605469C139.225 0.0605469 139.769 0.11263 140.283 0.216797C140.804 0.314453 141.302 0.473958 141.777 0.695312V2.42383ZM174.658 12.5215C173.636 12.9447 172.565 13.1562 171.445 13.1562C169.642 13.1562 168.255 12.6191 167.285 11.5449C166.322 10.4642 165.84 8.86914 165.84 6.75977C165.84 5.73763 165.973 4.81315 166.24 3.98633C166.507 3.15951 166.888 2.45964 167.383 1.88672C167.878 1.30729 168.477 0.861328 169.18 0.548828C169.883 0.236328 170.671 0.0800781 171.543 0.0800781C172.135 0.0800781 172.686 0.132161 173.193 0.236328C173.701 0.333984 174.189 0.486979 174.658 0.695312V2.4043C174.196 2.15039 173.717 1.95833 173.223 1.82812C172.728 1.69141 172.188 1.62305 171.602 1.62305C171.003 1.62305 170.459 1.73698 169.971 1.96484C169.489 2.1862 169.079 2.51172 168.74 2.94141C168.402 3.36458 168.141 3.88542 167.959 4.50391C167.777 5.11589 167.686 5.81576 167.686 6.60352C167.686 8.25716 168.021 9.50391 168.691 10.3438C169.362 11.1836 170.345 11.6035 171.641 11.6035C172.188 11.6035 172.712 11.5417 173.213 11.418C173.714 11.2878 174.196 11.1087 174.658 10.8809V12.5215ZM186.836 13H184.941L184.053 10.2168H178.74L177.842 13H176.035L180.273 0.236328H182.656L186.836 13ZM183.555 8.66406L181.396 1.83789L179.238 8.66406H183.555ZM197.09 1.7207H193.311V13H191.553V1.7207H187.773V0.236328H197.09V1.7207ZM229.639 12.5215C228.617 12.9447 227.546 13.1562 226.426 13.1562C224.622 13.1562 223.236 12.6191 222.266 11.5449C221.302 10.4642 220.82 8.86914 220.82 6.75977C220.82 5.73763 220.954 4.81315 221.221 3.98633C221.488 3.15951 221.868 2.45964 222.363 1.88672C222.858 1.30729 223.457 0.861328 224.16 0.548828C224.863 0.236328 225.651 0.0800781 226.523 0.0800781C227.116 0.0800781 227.666 0.132161 228.174 0.236328C228.682 0.333984 229.17 0.486979 229.639 0.695312V2.4043C229.176 2.15039 228.698 1.95833 228.203 1.82812C227.708 1.69141 227.168 1.62305 226.582 1.62305C225.983 1.62305 225.439 1.73698 224.951 1.96484C224.469 2.1862 224.059 2.51172 223.721 2.94141C223.382 3.36458 223.122 3.88542 222.939 4.50391C222.757 5.11589 222.666 5.81576 222.666 6.60352C222.666 8.25716 223.001 9.50391 223.672 10.3438C224.342 11.1836 225.326 11.6035 226.621 11.6035C227.168 11.6035 227.692 11.5417 228.193 11.418C228.695 11.2878 229.176 11.1087 229.639 10.8809V12.5215ZM240.635 12.5215C239.613 12.9447 238.542 13.1562 237.422 13.1562C235.618 13.1562 234.232 12.6191 233.262 11.5449C232.298 10.4642 231.816 8.86914 231.816 6.75977C231.816 5.73763 231.95 4.81315 232.217 3.98633C232.484 3.15951 232.865 2.45964 233.359 1.88672C233.854 1.30729 234.453 0.861328 235.156 0.548828C235.859 0.236328 236.647 0.0800781 237.52 0.0800781C238.112 0.0800781 238.662 0.132161 239.17 0.236328C239.678 0.333984 240.166 0.486979 240.635 0.695312V2.4043C240.173 2.15039 239.694 1.95833 239.199 1.82812C238.704 1.69141 238.164 1.62305 237.578 1.62305C236.979 1.62305 236.436 1.73698 235.947 1.96484C235.465 2.1862 235.055 2.51172 234.717 2.94141C234.378 3.36458 234.118 3.88542 233.936 4.50391C233.753 5.11589 233.662 5.81576 233.662 6.60352C233.662 8.25716 233.997 9.50391 234.668 10.3438C235.339 11.1836 236.322 11.6035 237.617 11.6035C238.164 11.6035 238.688 11.5417 239.189 11.418C239.691 11.2878 240.173 11.1087 240.635 10.8809V12.5215ZM252.812 13H250.918L250.029 10.2168H244.717L243.818 13H242.012L246.25 0.236328H248.633L252.812 13ZM249.531 8.66406L247.373 1.83789L245.215 8.66406H249.531ZM284.727 2.42383C284.251 2.16992 283.763 1.97461 283.262 1.83789C282.76 1.69466 282.214 1.62305 281.621 1.62305C280.944 1.62305 280.342 1.74349 279.814 1.98438C279.287 2.22526 278.841 2.56706 278.477 3.00977C278.118 3.44596 277.842 3.97331 277.646 4.5918C277.458 5.21029 277.363 5.89388 277.363 6.64258C277.363 7.42383 277.441 8.1237 277.598 8.74219C277.754 9.36068 277.998 9.88477 278.33 10.3145C278.662 10.7441 279.085 11.0729 279.6 11.3008C280.12 11.5286 280.742 11.6426 281.465 11.6426C281.589 11.6426 281.722 11.6361 281.865 11.623C282.008 11.61 282.152 11.5938 282.295 11.5742C282.438 11.5482 282.575 11.5189 282.705 11.4863C282.842 11.4538 282.962 11.418 283.066 11.3789V7.31641H280.459V5.88086H284.785V12.4043C284.518 12.528 284.235 12.6387 283.936 12.7363C283.643 12.834 283.34 12.9154 283.027 12.9805C282.721 13.0456 282.415 13.0944 282.109 13.127C281.803 13.1595 281.507 13.1758 281.221 13.1758C280.348 13.1758 279.561 13.0391 278.857 12.7656C278.161 12.4922 277.565 12.0885 277.07 11.5547C276.582 11.0143 276.204 10.3438 275.938 9.54297C275.677 8.74219 275.547 7.81445 275.547 6.75977C275.547 5.71159 275.693 4.77409 275.986 3.94727C276.279 3.11393 276.689 2.41081 277.217 1.83789C277.751 1.25846 278.389 0.81901 279.131 0.519531C279.88 0.213542 280.703 0.0605469 281.602 0.0605469C282.174 0.0605469 282.718 0.11263 283.232 0.216797C283.753 0.314453 284.251 0.473958 284.727 0.695312V2.42383ZM295.615 12.5215C294.593 12.9447 293.522 13.1562 292.402 13.1562C290.599 13.1562 289.212 12.6191 288.242 11.5449C287.279 10.4642 286.797 8.86914 286.797 6.75977C286.797 5.73763 286.93 4.81315 287.197 3.98633C287.464 3.15951 287.845 2.45964 288.34 1.88672C288.835 1.30729 289.434 0.861328 290.137 0.548828C290.84 0.236328 291.628 0.0800781 292.5 0.0800781C293.092 0.0800781 293.643 0.132161 294.15 0.236328C294.658 0.333984 295.146 0.486979 295.615 0.695312V2.4043C295.153 2.15039 294.674 1.95833 294.18 1.82812C293.685 1.69141 293.145 1.62305 292.559 1.62305C291.96 1.62305 291.416 1.73698 290.928 1.96484C290.446 2.1862 290.036 2.51172 289.697 2.94141C289.359 3.36458 289.098 3.88542 288.916 4.50391C288.734 5.11589 288.643 5.81576 288.643 6.60352C288.643 8.25716 288.978 9.50391 289.648 10.3438C290.319 11.1836 291.302 11.6035 292.598 11.6035C293.145 11.6035 293.669 11.5417 294.17 11.418C294.671 11.2878 295.153 11.1087 295.615 10.8809V12.5215ZM306.611 12.5215C305.589 12.9447 304.518 13.1562 303.398 13.1562C301.595 13.1562 300.208 12.6191 299.238 11.5449C298.275 10.4642 297.793 8.86914 297.793 6.75977C297.793 5.73763 297.926 4.81315 298.193 3.98633C298.46 3.15951 298.841 2.45964 299.336 1.88672C299.831 1.30729 300.43 0.861328 301.133 0.548828C301.836 0.236328 302.624 0.0800781 303.496 0.0800781C304.089 0.0800781 304.639 0.132161 305.146 0.236328C305.654 0.333984 306.143 0.486979 306.611 0.695312V2.4043C306.149 2.15039 305.671 1.95833 305.176 1.82812C304.681 1.69141 304.141 1.62305 303.555 1.62305C302.956 1.62305 302.412 1.73698 301.924 1.96484C301.442 2.1862 301.032 2.51172 300.693 2.94141C300.355 3.36458 300.094 3.88542 299.912 4.50391C299.73 5.11589 299.639 5.81576 299.639 6.60352C299.639 8.25716 299.974 9.50391 300.645 10.3438C301.315 11.1836 302.298 11.6035 303.594 11.6035C304.141 11.6035 304.665 11.5417 305.166 11.418C305.667 11.2878 306.149 11.1087 306.611 10.8809V12.5215ZM339.707 2.42383C339.232 2.16992 338.743 1.97461 338.242 1.83789C337.741 1.69466 337.194 1.62305 336.602 1.62305C335.924 1.62305 335.322 1.74349 334.795 1.98438C334.268 2.22526 333.822 2.56706 333.457 3.00977C333.099 3.44596 332.822 3.97331 332.627 4.5918C332.438 5.21029 332.344 5.89388 332.344 6.64258C332.344 7.42383 332.422 8.1237 332.578 8.74219C332.734 9.36068 332.979 9.88477 333.311 10.3145C333.643 10.7441 334.066 11.0729 334.58 11.3008C335.101 11.5286 335.723 11.6426 336.445 11.6426C336.569 11.6426 336.702 11.6361 336.846 11.623C336.989 11.61 337.132 11.5938 337.275 11.5742C337.419 11.5482 337.555 11.5189 337.686 11.4863C337.822 11.4538 337.943 11.418 338.047 11.3789V7.31641H335.439V5.88086H339.766V12.4043C339.499 12.528 339.215 12.6387 338.916 12.7363C338.623 12.834 338.32 12.9154 338.008 12.9805C337.702 13.0456 337.396 13.0944 337.09 13.127C336.784 13.1595 336.488 13.1758 336.201 13.1758C335.329 13.1758 334.541 13.0391 333.838 12.7656C333.141 12.4922 332.546 12.0885 332.051 11.5547C331.562 11.0143 331.185 10.3438 330.918 9.54297C330.658 8.74219 330.527 7.81445 330.527 6.75977C330.527 5.71159 330.674 4.77409 330.967 3.94727C331.26 3.11393 331.67 2.41081 332.197 1.83789C332.731 1.25846 333.369 0.81901 334.111 0.519531C334.86 0.213542 335.684 0.0605469 336.582 0.0605469C337.155 0.0605469 337.699 0.11263 338.213 0.216797C338.734 0.314453 339.232 0.473958 339.707 0.695312V2.42383ZM350.703 2.42383C350.228 2.16992 349.74 1.97461 349.238 1.83789C348.737 1.69466 348.19 1.62305 347.598 1.62305C346.921 1.62305 346.318 1.74349 345.791 1.98438C345.264 2.22526 344.818 2.56706 344.453 3.00977C344.095 3.44596 343.818 3.97331 343.623 4.5918C343.434 5.21029 343.34 5.89388 343.34 6.64258C343.34 7.42383 343.418 8.1237 343.574 8.74219C343.73 9.36068 343.975 9.88477 344.307 10.3145C344.639 10.7441 345.062 11.0729 345.576 11.3008C346.097 11.5286 346.719 11.6426 347.441 11.6426C347.565 11.6426 347.699 11.6361 347.842 11.623C347.985 11.61 348.128 11.5938 348.271 11.5742C348.415 11.5482 348.551 11.5189 348.682 11.4863C348.818 11.4538 348.939 11.418 349.043 11.3789V7.31641H346.436V5.88086H350.762V12.4043C350.495 12.528 350.212 12.6387 349.912 12.7363C349.619 12.834 349.316 12.9154 349.004 12.9805C348.698 13.0456 348.392 13.0944 348.086 13.127C347.78 13.1595 347.484 13.1758 347.197 13.1758C346.325 13.1758 345.537 13.0391 344.834 12.7656C344.137 12.4922 343.542 12.0885 343.047 11.5547C342.559 11.0143 342.181 10.3438 341.914 9.54297C341.654 8.74219 341.523 7.81445 341.523 6.75977C341.523 5.71159 341.67 4.77409 341.963 3.94727C342.256 3.11393 342.666 2.41081 343.193 1.83789C343.727 1.25846 344.365 0.81901 345.107 0.519531C345.856 0.213542 346.68 0.0605469 347.578 0.0605469C348.151 0.0605469 348.695 0.11263 349.209 0.216797C349.73 0.314453 350.228 0.473958 350.703 0.695312V2.42383ZM362.773 13H360.879L359.99 10.2168H354.678L353.779 13H351.973L356.211 0.236328H358.594L362.773 13ZM359.492 8.66406L357.334 1.83789L355.176 8.66406H359.492ZM394.688 2.42383C394.212 2.16992 393.724 1.97461 393.223 1.83789C392.721 1.69466 392.174 1.62305 391.582 1.62305C390.905 1.62305 390.303 1.74349 389.775 1.98438C389.248 2.22526 388.802 2.56706 388.438 3.00977C388.079 3.44596 387.803 3.97331 387.607 4.5918C387.419 5.21029 387.324 5.89388 387.324 6.64258C387.324 7.42383 387.402 8.1237 387.559 8.74219C387.715 9.36068 387.959 9.88477 388.291 10.3145C388.623 10.7441 389.046 11.0729 389.561 11.3008C390.081 11.5286 390.703 11.6426 391.426 11.6426C391.549 11.6426 391.683 11.6361 391.826 11.623C391.969 11.61 392.113 11.5938 392.256 11.5742C392.399 11.5482 392.536 11.5189 392.666 11.4863C392.803 11.4538 392.923 11.418 393.027 11.3789V7.31641H390.42V5.88086H394.746V12.4043C394.479 12.528 394.196 12.6387 393.896 12.7363C393.604 12.834 393.301 12.9154 392.988 12.9805C392.682 13.0456 392.376 13.0944 392.07 13.127C391.764 13.1595 391.468 13.1758 391.182 13.1758C390.309 13.1758 389.521 13.0391 388.818 12.7656C388.122 12.4922 387.526 12.0885 387.031 11.5547C386.543 11.0143 386.165 10.3438 385.898 9.54297C385.638 8.74219 385.508 7.81445 385.508 6.75977C385.508 5.71159 385.654 4.77409 385.947 3.94727C386.24 3.11393 386.65 2.41081 387.178 1.83789C387.712 1.25846 388.35 0.81901 389.092 0.519531C389.84 0.213542 390.664 0.0605469 391.562 0.0605469C392.135 0.0605469 392.679 0.11263 393.193 0.216797C393.714 0.314453 394.212 0.473958 394.688 0.695312V2.42383ZM405.684 2.42383C405.208 2.16992 404.72 1.97461 404.219 1.83789C403.717 1.69466 403.171 1.62305 402.578 1.62305C401.901 1.62305 401.299 1.74349 400.771 1.98438C400.244 2.22526 399.798 2.56706 399.434 3.00977C399.076 3.44596 398.799 3.97331 398.604 4.5918C398.415 5.21029 398.32 5.89388 398.32 6.64258C398.32 7.42383 398.398 8.1237 398.555 8.74219C398.711 9.36068 398.955 9.88477 399.287 10.3145C399.619 10.7441 400.042 11.0729 400.557 11.3008C401.077 11.5286 401.699 11.6426 402.422 11.6426C402.546 11.6426 402.679 11.6361 402.822 11.623C402.965 11.61 403.109 11.5938 403.252 11.5742C403.395 11.5482 403.532 11.5189 403.662 11.4863C403.799 11.4538 403.919 11.418 404.023 11.3789V7.31641H401.416V5.88086H405.742V12.4043C405.475 12.528 405.192 12.6387 404.893 12.7363C404.6 12.834 404.297 12.9154 403.984 12.9805C403.678 13.0456 403.372 13.0944 403.066 13.127C402.76 13.1595 402.464 13.1758 402.178 13.1758C401.305 13.1758 400.518 13.0391 399.814 12.7656C399.118 12.4922 398.522 12.0885 398.027 11.5547C397.539 11.0143 397.161 10.3438 396.895 9.54297C396.634 8.74219 396.504 7.81445 396.504 6.75977C396.504 5.71159 396.65 4.77409 396.943 3.94727C397.236 3.11393 397.646 2.41081 398.174 1.83789C398.708 1.25846 399.346 0.81901 400.088 0.519531C400.837 0.213542 401.66 0.0605469 402.559 0.0605469C403.132 0.0605469 403.675 0.11263 404.189 0.216797C404.71 0.314453 405.208 0.473958 405.684 0.695312V2.42383ZM416.68 2.42383C416.204 2.16992 415.716 1.97461 415.215 1.83789C414.714 1.69466 414.167 1.62305 413.574 1.62305C412.897 1.62305 412.295 1.74349 411.768 1.98438C411.24 2.22526 410.794 2.56706 410.43 3.00977C410.072 3.44596 409.795 3.97331 409.6 4.5918C409.411 5.21029 409.316 5.89388 409.316 6.64258C409.316 7.42383 409.395 8.1237 409.551 8.74219C409.707 9.36068 409.951 9.88477 410.283 10.3145C410.615 10.7441 411.038 11.0729 411.553 11.3008C412.074 11.5286 412.695 11.6426 413.418 11.6426C413.542 11.6426 413.675 11.6361 413.818 11.623C413.962 11.61 414.105 11.5938 414.248 11.5742C414.391 11.5482 414.528 11.5189 414.658 11.4863C414.795 11.4538 414.915 11.418 415.02 11.3789V7.31641H412.412V5.88086H416.738V12.4043C416.471 12.528 416.188 12.6387 415.889 12.7363C415.596 12.834 415.293 12.9154 414.98 12.9805C414.674 13.0456 414.368 13.0944 414.062 13.127C413.757 13.1595 413.46 13.1758 413.174 13.1758C412.301 13.1758 411.514 13.0391 410.811 12.7656C410.114 12.4922 409.518 12.0885 409.023 11.5547C408.535 11.0143 408.158 10.3438 407.891 9.54297C407.63 8.74219 407.5 7.81445 407.5 6.75977C407.5 5.71159 407.646 4.77409 407.939 3.94727C408.232 3.11393 408.643 2.41081 409.17 1.83789C409.704 1.25846 410.342 0.81901 411.084 0.519531C411.833 0.213542 412.656 0.0605469 413.555 0.0605469C414.128 0.0605469 414.671 0.11263 415.186 0.216797C415.706 0.314453 416.204 0.473958 416.68 0.695312V2.42383ZM450 1.7207H446.221V13H444.463V1.7207H440.684V0.236328H450V1.7207ZM461.738 13H459.844L458.955 10.2168H453.643L452.744 13H450.938L455.176 0.236328H457.559L461.738 13ZM458.457 8.66406L456.299 1.83789L454.141 8.66406H458.457ZM472.734 13H470.84L469.951 10.2168H464.639L463.74 13H461.934L466.172 0.236328H468.555L472.734 13ZM469.453 8.66406L467.295 1.83789L465.137 8.66406H469.453ZM504.98 1.7207H501.201V13H499.443V1.7207H495.664V0.236328H504.98V1.7207ZM515.645 2.42383C515.169 2.16992 514.681 1.97461 514.18 1.83789C513.678 1.69466 513.132 1.62305 512.539 1.62305C511.862 1.62305 511.26 1.74349 510.732 1.98438C510.205 2.22526 509.759 2.56706 509.395 3.00977C509.036 3.44596 508.76 3.97331 508.564 4.5918C508.376 5.21029 508.281 5.89388 508.281 6.64258C508.281 7.42383 508.359 8.1237 508.516 8.74219C508.672 9.36068 508.916 9.88477 509.248 10.3145C509.58 10.7441 510.003 11.0729 510.518 11.3008C511.038 11.5286 511.66 11.6426 512.383 11.6426C512.507 11.6426 512.64 11.6361 512.783 11.623C512.926 11.61 513.07 11.5938 513.213 11.5742C513.356 11.5482 513.493 11.5189 513.623 11.4863C513.76 11.4538 513.88 11.418 513.984 11.3789V7.31641H511.377V5.88086H515.703V12.4043C515.436 12.528 515.153 12.6387 514.854 12.7363C514.561 12.834 514.258 12.9154 513.945 12.9805C513.639 13.0456 513.333 13.0944 513.027 13.127C512.721 13.1595 512.425 13.1758 512.139 13.1758C511.266 13.1758 510.479 13.0391 509.775 12.7656C509.079 12.4922 508.483 12.0885 507.988 11.5547C507.5 11.0143 507.122 10.3438 506.855 9.54297C506.595 8.74219 506.465 7.81445 506.465 6.75977C506.465 5.71159 506.611 4.77409 506.904 3.94727C507.197 3.11393 507.607 2.41081 508.135 1.83789C508.669 1.25846 509.307 0.81901 510.049 0.519531C510.798 0.213542 511.621 0.0605469 512.52 0.0605469C513.092 0.0605469 513.636 0.11263 514.15 0.216797C514.671 0.314453 515.169 0.473958 515.645 0.695312V2.42383ZM526.533 12.5215C525.511 12.9447 524.44 13.1562 523.32 13.1562C521.517 13.1562 520.13 12.6191 519.16 11.5449C518.197 10.4642 517.715 8.86914 517.715 6.75977C517.715 5.73763 517.848 4.81315 518.115 3.98633C518.382 3.15951 518.763 2.45964 519.258 1.88672C519.753 1.30729 520.352 0.861328 521.055 0.548828C521.758 0.236328 522.546 0.0800781 523.418 0.0800781C524.01 0.0800781 524.561 0.132161 525.068 0.236328C525.576 0.333984 526.064 0.486979 526.533 0.695312V2.4043C526.071 2.15039 525.592 1.95833 525.098 1.82812C524.603 1.69141 524.062 1.62305 523.477 1.62305C522.878 1.62305 522.334 1.73698 521.846 1.96484C521.364 2.1862 520.954 2.51172 520.615 2.94141C520.277 3.36458 520.016 3.88542 519.834 4.50391C519.652 5.11589 519.561 5.81576 519.561 6.60352C519.561 8.25716 519.896 9.50391 520.566 10.3438C521.237 11.1836 522.22 11.6035 523.516 11.6035C524.062 11.6035 524.587 11.5417 525.088 11.418C525.589 11.2878 526.071 11.1087 526.533 10.8809V12.5215ZM559.961 1.7207H556.182V13H554.424V1.7207H550.645V0.236328H559.961V1.7207ZM570.625 2.42383C570.15 2.16992 569.661 1.97461 569.16 1.83789C568.659 1.69466 568.112 1.62305 567.52 1.62305C566.842 1.62305 566.24 1.74349 565.713 1.98438C565.186 2.22526 564.74 2.56706 564.375 3.00977C564.017 3.44596 563.74 3.97331 563.545 4.5918C563.356 5.21029 563.262 5.89388 563.262 6.64258C563.262 7.42383 563.34 8.1237 563.496 8.74219C563.652 9.36068 563.896 9.88477 564.229 10.3145C564.561 10.7441 564.984 11.0729 565.498 11.3008C566.019 11.5286 566.641 11.6426 567.363 11.6426C567.487 11.6426 567.62 11.6361 567.764 11.623C567.907 11.61 568.05 11.5938 568.193 11.5742C568.337 11.5482 568.473 11.5189 568.604 11.4863C568.74 11.4538 568.861 11.418 568.965 11.3789V7.31641H566.357V5.88086H570.684V12.4043C570.417 12.528 570.133 12.6387 569.834 12.7363C569.541 12.834 569.238 12.9154 568.926 12.9805C568.62 13.0456 568.314 13.0944 568.008 13.127C567.702 13.1595 567.406 13.1758 567.119 13.1758C566.247 13.1758 565.459 13.0391 564.756 12.7656C564.059 12.4922 563.464 12.0885 562.969 11.5547C562.48 11.0143 562.103 10.3438 561.836 9.54297C561.576 8.74219 561.445 7.81445 561.445 6.75977C561.445 5.71159 561.592 4.77409 561.885 3.94727C562.178 3.11393 562.588 2.41081 563.115 1.83789C563.649 1.25846 564.287 0.81901 565.029 0.519531C565.778 0.213542 566.602 0.0605469 567.5 0.0605469C568.073 0.0605469 568.617 0.11263 569.131 0.216797C569.652 0.314453 570.15 0.473958 570.625 0.695312V2.42383ZM581.621 2.42383C581.146 2.16992 580.658 1.97461 580.156 1.83789C579.655 1.69466 579.108 1.62305 578.516 1.62305C577.839 1.62305 577.236 1.74349 576.709 1.98438C576.182 2.22526 575.736 2.56706 575.371 3.00977C575.013 3.44596 574.736 3.97331 574.541 4.5918C574.352 5.21029 574.258 5.89388 574.258 6.64258C574.258 7.42383 574.336 8.1237 574.492 8.74219C574.648 9.36068 574.893 9.88477 575.225 10.3145C575.557 10.7441 575.98 11.0729 576.494 11.3008C577.015 11.5286 577.637 11.6426 578.359 11.6426C578.483 11.6426 578.617 11.6361 578.76 11.623C578.903 11.61 579.046 11.5938 579.189 11.5742C579.333 11.5482 579.469 11.5189 579.6 11.4863C579.736 11.4538 579.857 11.418 579.961 11.3789V7.31641H577.354V5.88086H581.68V12.4043C581.413 12.528 581.13 12.6387 580.83 12.7363C580.537 12.834 580.234 12.9154 579.922 12.9805C579.616 13.0456 579.31 13.0944 579.004 13.127C578.698 13.1595 578.402 13.1758 578.115 13.1758C577.243 13.1758 576.455 13.0391 575.752 12.7656C575.055 12.4922 574.46 12.0885 573.965 11.5547C573.477 11.0143 573.099 10.3438 572.832 9.54297C572.572 8.74219 572.441 7.81445 572.441 6.75977C572.441 5.71159 572.588 4.77409 572.881 3.94727C573.174 3.11393 573.584 2.41081 574.111 1.83789C574.645 1.25846 575.283 0.81901 576.025 0.519531C576.774 0.213542 577.598 0.0605469 578.496 0.0605469C579.069 0.0605469 579.613 0.11263 580.127 0.216797C580.648 0.314453 581.146 0.473958 581.621 0.695312V2.42383ZM9.7168 35.5215C8.69466 35.9447 7.6237 36.1562 6.50391 36.1562C4.70052 36.1562 3.3138 35.6191 2.34375 34.5449C1.38021 33.4642 0.898438 31.8691 0.898438 29.7598C0.898438 28.7376 1.0319 27.8132 1.29883 26.9863C1.56576 26.1595 1.94661 25.4596 2.44141 24.8867C2.9362 24.3073 3.53516 23.8613 4.23828 23.5488C4.94141 23.2363 5.72917 23.0801 6.60156 23.0801C7.19401 23.0801 7.74414 23.1322 8.25195 23.2363C8.75977 23.334 9.24805 23.487 9.7168 23.6953V25.4043C9.25456 25.1504 8.77604 24.9583 8.28125 24.8281C7.78646 24.6914 7.24609 24.623 6.66016 24.623C6.0612 24.623 5.51758 24.737 5.0293 24.9648C4.54753 25.1862 4.13737 25.5117 3.79883 25.9414C3.46029 26.3646 3.19987 26.8854 3.01758 27.5039C2.83529 28.1159 2.74414 28.8158 2.74414 29.6035C2.74414 31.2572 3.07943 32.5039 3.75 33.3438C4.42057 34.1836 5.40365 34.6035 6.69922 34.6035C7.24609 34.6035 7.77018 34.5417 8.27148 34.418C8.77279 34.2878 9.25456 34.1087 9.7168 33.8809V35.5215ZM20.7129 35.5215C19.6908 35.9447 18.6198 36.1562 17.5 36.1562C15.6966 36.1562 14.3099 35.6191 13.3398 34.5449C12.3763 33.4642 11.8945 31.8691 11.8945 29.7598C11.8945 28.7376 12.028 27.8132 12.2949 26.9863C12.5618 26.1595 12.9427 25.4596 13.4375 24.8867C13.9323 24.3073 14.5312 23.8613 15.2344 23.5488C15.9375 23.2363 16.7253 23.0801 17.5977 23.0801C18.1901 23.0801 18.7402 23.1322 19.248 23.2363C19.7559 23.334 20.2441 23.487 20.7129 23.6953V25.4043C20.2507 25.1504 19.7721 24.9583 19.2773 24.8281C18.7826 24.6914 18.2422 24.623 17.6562 24.623C17.0573 24.623 16.5137 24.737 16.0254 24.9648C15.5436 25.1862 15.1335 25.5117 14.7949 25.9414C14.4564 26.3646 14.196 26.8854 14.0137 27.5039C13.8314 28.1159 13.7402 28.8158 13.7402 29.6035C13.7402 31.2572 14.0755 32.5039 14.7461 33.3438C15.4167 34.1836 16.3997 34.6035 17.6953 34.6035C18.2422 34.6035 18.7663 34.5417 19.2676 34.418C19.7689 34.2878 20.2507 34.1087 20.7129 33.8809V35.5215ZM32.8906 36H30.9961L30.1074 33.2168H24.7949L23.8965 36H22.0898L26.3281 23.2363H28.7109L32.8906 36ZM29.6094 31.6641L27.4512 24.8379L25.293 31.6641H29.6094ZM64.6973 35.5215C63.6751 35.9447 62.6042 36.1562 61.4844 36.1562C59.681 36.1562 58.2943 35.6191 57.3242 34.5449C56.3607 33.4642 55.8789 31.8691 55.8789 29.7598C55.8789 28.7376 56.0124 27.8132 56.2793 26.9863C56.5462 26.1595 56.9271 25.4596 57.4219 24.8867C57.9167 24.3073 58.5156 23.8613 59.2188 23.5488C59.9219 23.2363 60.7096 23.0801 61.582 23.0801C62.1745 23.0801 62.7246 23.1322 63.2324 23.2363C63.7402 23.334 64.2285 23.487 64.6973 23.6953V25.4043C64.235 25.1504 63.7565 24.9583 63.2617 24.8281C62.7669 24.6914 62.2266 24.623 61.6406 24.623C61.0417 24.623 60.498 24.737 60.0098 24.9648C59.528 25.1862 59.1178 25.5117 58.7793 25.9414C58.4408 26.3646 58.1803 26.8854 57.998 27.5039C57.8158 28.1159 57.7246 28.8158 57.7246 29.6035C57.7246 31.2572 58.0599 32.5039 58.7305 33.3438C59.401 34.1836 60.3841 34.6035 61.6797 34.6035C62.2266 34.6035 62.7507 34.5417 63.252 34.418C63.7533 34.2878 64.235 34.1087 64.6973 33.8809V35.5215ZM76.875 36H74.9805L74.0918 33.2168H68.7793L67.8809 36H66.0742L70.3125 23.2363H72.6953L76.875 36ZM73.5938 31.6641L71.4355 24.8379L69.2773 31.6641H73.5938ZM87.1289 24.7207H83.3496V36H81.5918V24.7207H77.8125V23.2363H87.1289V24.7207ZM119.785 25.4238C119.31 25.1699 118.822 24.9746 118.32 24.8379C117.819 24.6947 117.272 24.623 116.68 24.623C116.003 24.623 115.4 24.7435 114.873 24.9844C114.346 25.2253 113.9 25.5671 113.535 26.0098C113.177 26.446 112.9 26.9733 112.705 27.5918C112.516 28.2103 112.422 28.8939 112.422 29.6426C112.422 30.4238 112.5 31.1237 112.656 31.7422C112.812 32.3607 113.057 32.8848 113.389 33.3145C113.721 33.7441 114.144 34.0729 114.658 34.3008C115.179 34.5286 115.801 34.6426 116.523 34.6426C116.647 34.6426 116.781 34.6361 116.924 34.623C117.067 34.61 117.21 34.5938 117.354 34.5742C117.497 34.5482 117.633 34.5189 117.764 34.4863C117.9 34.4538 118.021 34.418 118.125 34.3789V30.3164H115.518V28.8809H119.844V35.4043C119.577 35.528 119.294 35.6387 118.994 35.7363C118.701 35.834 118.398 35.9154 118.086 35.9805C117.78 36.0456 117.474 36.0944 117.168 36.127C116.862 36.1595 116.566 36.1758 116.279 36.1758C115.407 36.1758 114.619 36.0391 113.916 35.7656C113.219 35.4922 112.624 35.0885 112.129 34.5547C111.641 34.0143 111.263 33.3438 110.996 32.543C110.736 31.7422 110.605 30.8145 110.605 29.7598C110.605 28.7116 110.752 27.7741 111.045 26.9473C111.338 26.1139 111.748 25.4108 112.275 24.8379C112.809 24.2585 113.447 23.819 114.189 23.5195C114.938 23.2135 115.762 23.0605 116.66 23.0605C117.233 23.0605 117.777 23.1126 118.291 23.2168C118.812 23.3145 119.31 23.474 119.785 23.6953V25.4238ZM131.855 36H129.961L129.072 33.2168H123.76L122.861 36H121.055L125.293 23.2363H127.676L131.855 36ZM128.574 31.6641L126.416 24.8379L124.258 31.6641H128.574ZM142.109 24.7207H138.33V36H136.572V24.7207H132.793V23.2363H142.109V24.7207ZM174.766 25.4238C174.29 25.1699 173.802 24.9746 173.301 24.8379C172.799 24.6947 172.253 24.623 171.66 24.623C170.983 24.623 170.381 24.7435 169.854 24.9844C169.326 25.2253 168.88 25.5671 168.516 26.0098C168.158 26.446 167.881 26.9733 167.686 27.5918C167.497 28.2103 167.402 28.8939 167.402 29.6426C167.402 30.4238 167.48 31.1237 167.637 31.7422C167.793 32.3607 168.037 32.8848 168.369 33.3145C168.701 33.7441 169.124 34.0729 169.639 34.3008C170.16 34.5286 170.781 34.6426 171.504 34.6426C171.628 34.6426 171.761 34.6361 171.904 34.623C172.048 34.61 172.191 34.5938 172.334 34.5742C172.477 34.5482 172.614 34.5189 172.744 34.4863C172.881 34.4538 173.001 34.418 173.105 34.3789V30.3164H170.498V28.8809H174.824V35.4043C174.557 35.528 174.274 35.6387 173.975 35.7363C173.682 35.834 173.379 35.9154 173.066 35.9805C172.76 36.0456 172.454 36.0944 172.148 36.127C171.842 36.1595 171.546 36.1758 171.26 36.1758C170.387 36.1758 169.6 36.0391 168.896 35.7656C168.2 35.4922 167.604 35.0885 167.109 34.5547C166.621 34.0143 166.243 33.3438 165.977 32.543C165.716 31.7422 165.586 30.8145 165.586 29.7598C165.586 28.7116 165.732 27.7741 166.025 26.9473C166.318 26.1139 166.729 25.4108 167.256 24.8379C167.79 24.2585 168.428 23.819 169.17 23.5195C169.919 23.2135 170.742 23.0605 171.641 23.0605C172.214 23.0605 172.757 23.1126 173.271 23.2168C173.792 23.3145 174.29 23.474 174.766 23.6953V25.4238ZM185.762 25.4238C185.286 25.1699 184.798 24.9746 184.297 24.8379C183.796 24.6947 183.249 24.623 182.656 24.623C181.979 24.623 181.377 24.7435 180.85 24.9844C180.322 25.2253 179.876 25.5671 179.512 26.0098C179.154 26.446 178.877 26.9733 178.682 27.5918C178.493 28.2103 178.398 28.8939 178.398 29.6426C178.398 30.4238 178.477 31.1237 178.633 31.7422C178.789 32.3607 179.033 32.8848 179.365 33.3145C179.697 33.7441 180.12 34.0729 180.635 34.3008C181.156 34.5286 181.777 34.6426 182.5 34.6426C182.624 34.6426 182.757 34.6361 182.9 34.623C183.044 34.61 183.187 34.5938 183.33 34.5742C183.473 34.5482 183.61 34.5189 183.74 34.4863C183.877 34.4538 183.997 34.418 184.102 34.3789V30.3164H181.494V28.8809H185.82V35.4043C185.553 35.528 185.27 35.6387 184.971 35.7363C184.678 35.834 184.375 35.9154 184.062 35.9805C183.757 36.0456 183.451 36.0944 183.145 36.127C182.839 36.1595 182.542 36.1758 182.256 36.1758C181.383 36.1758 180.596 36.0391 179.893 35.7656C179.196 35.4922 178.6 35.0885 178.105 34.5547C177.617 34.0143 177.24 33.3438 176.973 32.543C176.712 31.7422 176.582 30.8145 176.582 29.7598C176.582 28.7116 176.729 27.7741 177.021 26.9473C177.314 26.1139 177.725 25.4108 178.252 24.8379C178.786 24.2585 179.424 23.819 180.166 23.5195C180.915 23.2135 181.738 23.0605 182.637 23.0605C183.21 23.0605 183.753 23.1126 184.268 23.2168C184.788 23.3145 185.286 23.474 185.762 23.6953V25.4238ZM197.832 36H195.938L195.049 33.2168H189.736L188.838 36H187.031L191.27 23.2363H193.652L197.832 36ZM194.551 31.6641L192.393 24.8379L190.234 31.6641H194.551ZM229.746 25.4238C229.271 25.1699 228.783 24.9746 228.281 24.8379C227.78 24.6947 227.233 24.623 226.641 24.623C225.964 24.623 225.361 24.7435 224.834 24.9844C224.307 25.2253 223.861 25.5671 223.496 26.0098C223.138 26.446 222.861 26.9733 222.666 27.5918C222.477 28.2103 222.383 28.8939 222.383 29.6426C222.383 30.4238 222.461 31.1237 222.617 31.7422C222.773 32.3607 223.018 32.8848 223.35 33.3145C223.682 33.7441 224.105 34.0729 224.619 34.3008C225.14 34.5286 225.762 34.6426 226.484 34.6426C226.608 34.6426 226.742 34.6361 226.885 34.623C227.028 34.61 227.171 34.5938 227.314 34.5742C227.458 34.5482 227.594 34.5189 227.725 34.4863C227.861 34.4538 227.982 34.418 228.086 34.3789V30.3164H225.479V28.8809H229.805V35.4043C229.538 35.528 229.255 35.6387 228.955 35.7363C228.662 35.834 228.359 35.9154 228.047 35.9805C227.741 36.0456 227.435 36.0944 227.129 36.127C226.823 36.1595 226.527 36.1758 226.24 36.1758C225.368 36.1758 224.58 36.0391 223.877 35.7656C223.18 35.4922 222.585 35.0885 222.09 34.5547C221.602 34.0143 221.224 33.3438 220.957 32.543C220.697 31.7422 220.566 30.8145 220.566 29.7598C220.566 28.7116 220.713 27.7741 221.006 26.9473C221.299 26.1139 221.709 25.4108 222.236 24.8379C222.77 24.2585 223.408 23.819 224.15 23.5195C224.899 23.2135 225.723 23.0605 226.621 23.0605C227.194 23.0605 227.738 23.1126 228.252 23.2168C228.773 23.3145 229.271 23.474 229.746 23.6953V25.4238ZM240.742 25.4238C240.267 25.1699 239.779 24.9746 239.277 24.8379C238.776 24.6947 238.229 24.623 237.637 24.623C236.96 24.623 236.357 24.7435 235.83 24.9844C235.303 25.2253 234.857 25.5671 234.492 26.0098C234.134 26.446 233.857 26.9733 233.662 27.5918C233.473 28.2103 233.379 28.8939 233.379 29.6426C233.379 30.4238 233.457 31.1237 233.613 31.7422C233.77 32.3607 234.014 32.8848 234.346 33.3145C234.678 33.7441 235.101 34.0729 235.615 34.3008C236.136 34.5286 236.758 34.6426 237.48 34.6426C237.604 34.6426 237.738 34.6361 237.881 34.623C238.024 34.61 238.167 34.5938 238.311 34.5742C238.454 34.5482 238.59 34.5189 238.721 34.4863C238.857 34.4538 238.978 34.418 239.082 34.3789V30.3164H236.475V28.8809H240.801V35.4043C240.534 35.528 240.251 35.6387 239.951 35.7363C239.658 35.834 239.355 35.9154 239.043 35.9805C238.737 36.0456 238.431 36.0944 238.125 36.127C237.819 36.1595 237.523 36.1758 237.236 36.1758C236.364 36.1758 235.576 36.0391 234.873 35.7656C234.176 35.4922 233.581 35.0885 233.086 34.5547C232.598 34.0143 232.22 33.3438 231.953 32.543C231.693 31.7422 231.562 30.8145 231.562 29.7598C231.562 28.7116 231.709 27.7741 232.002 26.9473C232.295 26.1139 232.705 25.4108 233.232 24.8379C233.766 24.2585 234.404 23.819 235.146 23.5195C235.895 23.2135 236.719 23.0605 237.617 23.0605C238.19 23.0605 238.734 23.1126 239.248 23.2168C239.769 23.3145 240.267 23.474 240.742 23.6953V25.4238ZM251.738 25.4238C251.263 25.1699 250.775 24.9746 250.273 24.8379C249.772 24.6947 249.225 24.623 248.633 24.623C247.956 24.623 247.354 24.7435 246.826 24.9844C246.299 25.2253 245.853 25.5671 245.488 26.0098C245.13 26.446 244.854 26.9733 244.658 27.5918C244.469 28.2103 244.375 28.8939 244.375 29.6426C244.375 30.4238 244.453 31.1237 244.609 31.7422C244.766 32.3607 245.01 32.8848 245.342 33.3145C245.674 33.7441 246.097 34.0729 246.611 34.3008C247.132 34.5286 247.754 34.6426 248.477 34.6426C248.6 34.6426 248.734 34.6361 248.877 34.623C249.02 34.61 249.163 34.5938 249.307 34.5742C249.45 34.5482 249.587 34.5189 249.717 34.4863C249.854 34.4538 249.974 34.418 250.078 34.3789V30.3164H247.471V28.8809H251.797V35.4043C251.53 35.528 251.247 35.6387 250.947 35.7363C250.654 35.834 250.352 35.9154 250.039 35.9805C249.733 36.0456 249.427 36.0944 249.121 36.127C248.815 36.1595 248.519 36.1758 248.232 36.1758C247.36 36.1758 246.572 36.0391 245.869 35.7656C245.173 35.4922 244.577 35.0885 244.082 34.5547C243.594 34.0143 243.216 33.3438 242.949 32.543C242.689 31.7422 242.559 30.8145 242.559 29.7598C242.559 28.7116 242.705 27.7741 242.998 26.9473C243.291 26.1139 243.701 25.4108 244.229 24.8379C244.762 24.2585 245.4 23.819 246.143 23.5195C246.891 23.2135 247.715 23.0605 248.613 23.0605C249.186 23.0605 249.73 23.1126 250.244 23.2168C250.765 23.3145 251.263 23.474 251.738 23.6953V25.4238ZM285.059 24.7207H281.279V36H279.521V24.7207H275.742V23.2363H285.059V24.7207ZM295.723 25.4238C295.247 25.1699 294.759 24.9746 294.258 24.8379C293.757 24.6947 293.21 24.623 292.617 24.623C291.94 24.623 291.338 24.7435 290.811 24.9844C290.283 25.2253 289.837 25.5671 289.473 26.0098C289.115 26.446 288.838 26.9733 288.643 27.5918C288.454 28.2103 288.359 28.8939 288.359 29.6426C288.359 30.4238 288.438 31.1237 288.594 31.7422C288.75 32.3607 288.994 32.8848 289.326 33.3145C289.658 33.7441 290.081 34.0729 290.596 34.3008C291.117 34.5286 291.738 34.6426 292.461 34.6426C292.585 34.6426 292.718 34.6361 292.861 34.623C293.005 34.61 293.148 34.5938 293.291 34.5742C293.434 34.5482 293.571 34.5189 293.701 34.4863C293.838 34.4538 293.958 34.418 294.062 34.3789V30.3164H291.455V28.8809H295.781V35.4043C295.514 35.528 295.231 35.6387 294.932 35.7363C294.639 35.834 294.336 35.9154 294.023 35.9805C293.717 36.0456 293.411 36.0944 293.105 36.127C292.799 36.1595 292.503 36.1758 292.217 36.1758C291.344 36.1758 290.557 36.0391 289.854 35.7656C289.157 35.4922 288.561 35.0885 288.066 34.5547C287.578 34.0143 287.201 33.3438 286.934 32.543C286.673 31.7422 286.543 30.8145 286.543 29.7598C286.543 28.7116 286.689 27.7741 286.982 26.9473C287.275 26.1139 287.686 25.4108 288.213 24.8379C288.747 24.2585 289.385 23.819 290.127 23.5195C290.876 23.2135 291.699 23.0605 292.598 23.0605C293.171 23.0605 293.714 23.1126 294.229 23.2168C294.749 23.3145 295.247 23.474 295.723 23.6953V25.4238ZM306.719 25.4238C306.243 25.1699 305.755 24.9746 305.254 24.8379C304.753 24.6947 304.206 24.623 303.613 24.623C302.936 24.623 302.334 24.7435 301.807 24.9844C301.279 25.2253 300.833 25.5671 300.469 26.0098C300.111 26.446 299.834 26.9733 299.639 27.5918C299.45 28.2103 299.355 28.8939 299.355 29.6426C299.355 30.4238 299.434 31.1237 299.59 31.7422C299.746 32.3607 299.99 32.8848 300.322 33.3145C300.654 33.7441 301.077 34.0729 301.592 34.3008C302.113 34.5286 302.734 34.6426 303.457 34.6426C303.581 34.6426 303.714 34.6361 303.857 34.623C304.001 34.61 304.144 34.5938 304.287 34.5742C304.43 34.5482 304.567 34.5189 304.697 34.4863C304.834 34.4538 304.954 34.418 305.059 34.3789V30.3164H302.451V28.8809H306.777V35.4043C306.51 35.528 306.227 35.6387 305.928 35.7363C305.635 35.834 305.332 35.9154 305.02 35.9805C304.714 36.0456 304.408 36.0944 304.102 36.127C303.796 36.1595 303.499 36.1758 303.213 36.1758C302.34 36.1758 301.553 36.0391 300.85 35.7656C300.153 35.4922 299.557 35.0885 299.062 34.5547C298.574 34.0143 298.197 33.3438 297.93 32.543C297.669 31.7422 297.539 30.8145 297.539 29.7598C297.539 28.7116 297.686 27.7741 297.979 26.9473C298.271 26.1139 298.682 25.4108 299.209 24.8379C299.743 24.2585 300.381 23.819 301.123 23.5195C301.872 23.2135 302.695 23.0605 303.594 23.0605C304.167 23.0605 304.71 23.1126 305.225 23.2168C305.745 23.3145 306.243 23.474 306.719 23.6953V25.4238ZM339.707 25.4238C339.232 25.1699 338.743 24.9746 338.242 24.8379C337.741 24.6947 337.194 24.623 336.602 24.623C335.924 24.623 335.322 24.7435 334.795 24.9844C334.268 25.2253 333.822 25.5671 333.457 26.0098C333.099 26.446 332.822 26.9733 332.627 27.5918C332.438 28.2103 332.344 28.8939 332.344 29.6426C332.344 30.4238 332.422 31.1237 332.578 31.7422C332.734 32.3607 332.979 32.8848 333.311 33.3145C333.643 33.7441 334.066 34.0729 334.58 34.3008C335.101 34.5286 335.723 34.6426 336.445 34.6426C336.569 34.6426 336.702 34.6361 336.846 34.623C336.989 34.61 337.132 34.5938 337.275 34.5742C337.419 34.5482 337.555 34.5189 337.686 34.4863C337.822 34.4538 337.943 34.418 338.047 34.3789V30.3164H335.439V28.8809H339.766V35.4043C339.499 35.528 339.215 35.6387 338.916 35.7363C338.623 35.834 338.32 35.9154 338.008 35.9805C337.702 36.0456 337.396 36.0944 337.09 36.127C336.784 36.1595 336.488 36.1758 336.201 36.1758C335.329 36.1758 334.541 36.0391 333.838 35.7656C333.141 35.4922 332.546 35.0885 332.051 34.5547C331.562 34.0143 331.185 33.3438 330.918 32.543C330.658 31.7422 330.527 30.8145 330.527 29.7598C330.527 28.7116 330.674 27.7741 330.967 26.9473C331.26 26.1139 331.67 25.4108 332.197 24.8379C332.731 24.2585 333.369 23.819 334.111 23.5195C334.86 23.2135 335.684 23.0605 336.582 23.0605C337.155 23.0605 337.699 23.1126 338.213 23.2168C338.734 23.3145 339.232 23.474 339.707 23.6953V25.4238ZM351.035 24.7207H347.256V36H345.498V24.7207H341.719V23.2363H351.035V24.7207ZM362.031 24.7207H358.252V36H356.494V24.7207H352.715V23.2363H362.031V24.7207ZM395.02 24.7207H391.24V36H389.482V24.7207H385.703V23.2363H395.02V24.7207ZM405.684 25.4238C405.208 25.1699 404.72 24.9746 404.219 24.8379C403.717 24.6947 403.171 24.623 402.578 24.623C401.901 24.623 401.299 24.7435 400.771 24.9844C400.244 25.2253 399.798 25.5671 399.434 26.0098C399.076 26.446 398.799 26.9733 398.604 27.5918C398.415 28.2103 398.32 28.8939 398.32 29.6426C398.32 30.4238 398.398 31.1237 398.555 31.7422C398.711 32.3607 398.955 32.8848 399.287 33.3145C399.619 33.7441 400.042 34.0729 400.557 34.3008C401.077 34.5286 401.699 34.6426 402.422 34.6426C402.546 34.6426 402.679 34.6361 402.822 34.623C402.965 34.61 403.109 34.5938 403.252 34.5742C403.395 34.5482 403.532 34.5189 403.662 34.4863C403.799 34.4538 403.919 34.418 404.023 34.3789V30.3164H401.416V28.8809H405.742V35.4043C405.475 35.528 405.192 35.6387 404.893 35.7363C404.6 35.834 404.297 35.9154 403.984 35.9805C403.678 36.0456 403.372 36.0944 403.066 36.127C402.76 36.1595 402.464 36.1758 402.178 36.1758C401.305 36.1758 400.518 36.0391 399.814 35.7656C399.118 35.4922 398.522 35.0885 398.027 34.5547C397.539 34.0143 397.161 33.3438 396.895 32.543C396.634 31.7422 396.504 30.8145 396.504 29.7598C396.504 28.7116 396.65 27.7741 396.943 26.9473C397.236 26.1139 397.646 25.4108 398.174 24.8379C398.708 24.2585 399.346 23.819 400.088 23.5195C400.837 23.2135 401.66 23.0605 402.559 23.0605C403.132 23.0605 403.675 23.1126 404.189 23.2168C404.71 23.3145 405.208 23.474 405.684 23.6953V25.4238ZM417.012 24.7207H413.232V36H411.475V24.7207H407.695V23.2363H417.012V24.7207ZM449.668 25.4238C449.193 25.1699 448.704 24.9746 448.203 24.8379C447.702 24.6947 447.155 24.623 446.562 24.623C445.885 24.623 445.283 24.7435 444.756 24.9844C444.229 25.2253 443.783 25.5671 443.418 26.0098C443.06 26.446 442.783 26.9733 442.588 27.5918C442.399 28.2103 442.305 28.8939 442.305 29.6426C442.305 30.4238 442.383 31.1237 442.539 31.7422C442.695 32.3607 442.939 32.8848 443.271 33.3145C443.604 33.7441 444.027 34.0729 444.541 34.3008C445.062 34.5286 445.684 34.6426 446.406 34.6426C446.53 34.6426 446.663 34.6361 446.807 34.623C446.95 34.61 447.093 34.5938 447.236 34.5742C447.38 34.5482 447.516 34.5189 447.646 34.4863C447.783 34.4538 447.904 34.418 448.008 34.3789V30.3164H445.4V28.8809H449.727V35.4043C449.46 35.528 449.176 35.6387 448.877 35.7363C448.584 35.834 448.281 35.9154 447.969 35.9805C447.663 36.0456 447.357 36.0944 447.051 36.127C446.745 36.1595 446.449 36.1758 446.162 36.1758C445.29 36.1758 444.502 36.0391 443.799 35.7656C443.102 35.4922 442.507 35.0885 442.012 34.5547C441.523 34.0143 441.146 33.3438 440.879 32.543C440.618 31.7422 440.488 30.8145 440.488 29.7598C440.488 28.7116 440.635 27.7741 440.928 26.9473C441.221 26.1139 441.631 25.4108 442.158 24.8379C442.692 24.2585 443.33 23.819 444.072 23.5195C444.821 23.2135 445.645 23.0605 446.543 23.0605C447.116 23.0605 447.66 23.1126 448.174 23.2168C448.695 23.3145 449.193 23.474 449.668 23.6953V25.4238ZM460.557 35.5215C459.535 35.9447 458.464 36.1562 457.344 36.1562C455.54 36.1562 454.154 35.6191 453.184 34.5449C452.22 33.4642 451.738 31.8691 451.738 29.7598C451.738 28.7376 451.872 27.8132 452.139 26.9863C452.406 26.1595 452.786 25.4596 453.281 24.8867C453.776 24.3073 454.375 23.8613 455.078 23.5488C455.781 23.2363 456.569 23.0801 457.441 23.0801C458.034 23.0801 458.584 23.1322 459.092 23.2363C459.6 23.334 460.088 23.487 460.557 23.6953V25.4043C460.094 25.1504 459.616 24.9583 459.121 24.8281C458.626 24.6914 458.086 24.623 457.5 24.623C456.901 24.623 456.357 24.737 455.869 24.9648C455.387 25.1862 454.977 25.5117 454.639 25.9414C454.3 26.3646 454.04 26.8854 453.857 27.5039C453.675 28.1159 453.584 28.8158 453.584 29.6035C453.584 31.2572 453.919 32.5039 454.59 33.3438C455.26 34.1836 456.243 34.6035 457.539 34.6035C458.086 34.6035 458.61 34.5417 459.111 34.418C459.613 34.2878 460.094 34.1087 460.557 33.8809V35.5215ZM471.553 35.5215C470.531 35.9447 469.46 36.1562 468.34 36.1562C466.536 36.1562 465.15 35.6191 464.18 34.5449C463.216 33.4642 462.734 31.8691 462.734 29.7598C462.734 28.7376 462.868 27.8132 463.135 26.9863C463.402 26.1595 463.783 25.4596 464.277 24.8867C464.772 24.3073 465.371 23.8613 466.074 23.5488C466.777 23.2363 467.565 23.0801 468.438 23.0801C469.03 23.0801 469.58 23.1322 470.088 23.2363C470.596 23.334 471.084 23.487 471.553 23.6953V25.4043C471.09 25.1504 470.612 24.9583 470.117 24.8281C469.622 24.6914 469.082 24.623 468.496 24.623C467.897 24.623 467.354 24.737 466.865 24.9648C466.383 25.1862 465.973 25.5117 465.635 25.9414C465.296 26.3646 465.036 26.8854 464.854 27.5039C464.671 28.1159 464.58 28.8158 464.58 29.6035C464.58 31.2572 464.915 32.5039 465.586 33.3438C466.257 34.1836 467.24 34.6035 468.535 34.6035C469.082 34.6035 469.606 34.5417 470.107 34.418C470.609 34.2878 471.09 34.1087 471.553 33.8809V35.5215ZM505.723 36H503.828L502.939 33.2168H497.627L496.729 36H494.922L499.16 23.2363H501.543L505.723 36ZM502.441 31.6641L500.283 24.8379L498.125 31.6641H502.441ZM515.977 24.7207H512.197V36H510.439V24.7207H506.66V23.2363H515.977V24.7207ZM526.641 25.4238C526.165 25.1699 525.677 24.9746 525.176 24.8379C524.674 24.6947 524.128 24.623 523.535 24.623C522.858 24.623 522.256 24.7435 521.729 24.9844C521.201 25.2253 520.755 25.5671 520.391 26.0098C520.033 26.446 519.756 26.9733 519.561 27.5918C519.372 28.2103 519.277 28.8939 519.277 29.6426C519.277 30.4238 519.355 31.1237 519.512 31.7422C519.668 32.3607 519.912 32.8848 520.244 33.3145C520.576 33.7441 520.999 34.0729 521.514 34.3008C522.035 34.5286 522.656 34.6426 523.379 34.6426C523.503 34.6426 523.636 34.6361 523.779 34.623C523.923 34.61 524.066 34.5938 524.209 34.5742C524.352 34.5482 524.489 34.5189 524.619 34.4863C524.756 34.4538 524.876 34.418 524.98 34.3789V30.3164H522.373V28.8809H526.699V35.4043C526.432 35.528 526.149 35.6387 525.85 35.7363C525.557 35.834 525.254 35.9154 524.941 35.9805C524.635 36.0456 524.329 36.0944 524.023 36.127C523.717 36.1595 523.421 36.1758 523.135 36.1758C522.262 36.1758 521.475 36.0391 520.771 35.7656C520.075 35.4922 519.479 35.0885 518.984 34.5547C518.496 34.0143 518.118 33.3438 517.852 32.543C517.591 31.7422 517.461 30.8145 517.461 29.7598C517.461 28.7116 517.607 27.7741 517.9 26.9473C518.193 26.1139 518.604 25.4108 519.131 24.8379C519.665 24.2585 520.303 23.819 521.045 23.5195C521.794 23.2135 522.617 23.0605 523.516 23.0605C524.089 23.0605 524.632 23.1126 525.146 23.2168C525.667 23.3145 526.165 23.474 526.641 23.6953V25.4238ZM560.703 36H558.809L557.92 33.2168H552.607L551.709 36H549.902L554.141 23.2363H556.523L560.703 36ZM557.422 31.6641L555.264 24.8379L553.105 31.6641H557.422ZM570.957 24.7207H567.178V36H565.42V24.7207H561.641V23.2363H570.957V24.7207ZM581.621 25.4238C581.146 25.1699 580.658 24.9746 580.156 24.8379C579.655 24.6947 579.108 24.623 578.516 24.623C577.839 24.623 577.236 24.7435 576.709 24.9844C576.182 25.2253 575.736 25.5671 575.371 26.0098C575.013 26.446 574.736 26.9733 574.541 27.5918C574.352 28.2103 574.258 28.8939 574.258 29.6426C574.258 30.4238 574.336 31.1237 574.492 31.7422C574.648 32.3607 574.893 32.8848 575.225 33.3145C575.557 33.7441 575.98 34.0729 576.494 34.3008C577.015 34.5286 577.637 34.6426 578.359 34.6426C578.483 34.6426 578.617 34.6361 578.76 34.623C578.903 34.61 579.046 34.5938 579.189 34.5742C579.333 34.5482 579.469 34.5189 579.6 34.4863C579.736 34.4538 579.857 34.418 579.961 34.3789V30.3164H577.354V28.8809H581.68V35.4043C581.413 35.528 581.13 35.6387 580.83 35.7363C580.537 35.834 580.234 35.9154 579.922 35.9805C579.616 36.0456 579.31 36.0944 579.004 36.127C578.698 36.1595 578.402 36.1758 578.115 36.1758C577.243 36.1758 576.455 36.0391 575.752 35.7656C575.055 35.4922 574.46 35.0885 573.965 34.5547C573.477 34.0143 573.099 33.3438 572.832 32.543C572.572 31.7422 572.441 30.8145 572.441 29.7598C572.441 28.7116 572.588 27.7741 572.881 26.9473C573.174 26.1139 573.584 25.4108 574.111 24.8379C574.645 24.2585 575.283 23.819 576.025 23.5195C576.774 23.2135 577.598 23.0605 578.496 23.0605C579.069 23.0605 579.613 23.1126 580.127 23.2168C580.648 23.3145 581.146 23.474 581.621 23.6953V25.4238Z" fill="#C9D1D9"/>
</svg>
