<svg width="444" height="441" viewBox="0 0 444 441" fill="none" xmlns="http://www.w3.org/2000/svg">
<path d="M7.85938 4.53906C7.47917 4.33594 7.08854 4.17969 6.6875 4.07031C6.28646 3.95573 5.84896 3.89844 5.375 3.89844C4.83333 3.89844 4.35156 3.99479 3.92969 4.1875C3.50781 4.38021 3.15104 4.65365 2.85938 5.00781C2.57292 5.35677 2.35156 5.77865 2.19531 6.27344C2.04427 6.76823 1.96875 7.3151 1.96875 7.91406C1.96875 8.53906 2.03125 9.09896 2.15625 9.59375C2.28125 10.0885 2.47656 10.5078 2.74219 10.8516C3.00781 11.1953 3.34635 11.4583 3.75781 11.6406C4.17448 11.8229 4.67188 11.9141 5.25 11.9141C5.34896 11.9141 5.45573 11.9089 5.57031 11.8984C5.6849 11.888 5.79948 11.875 5.91406 11.8594C6.02865 11.8385 6.13802 11.8151 6.24219 11.7891C6.35156 11.763 6.44792 11.7344 6.53125 11.7031V8.45312H4.44531V7.30469H7.90625V12.5234C7.69271 12.6224 7.46615 12.7109 7.22656 12.7891C6.99219 12.8672 6.75 12.9323 6.5 12.9844C6.25521 13.0365 6.01042 13.0755 5.76562 13.1016C5.52083 13.1276 5.28385 13.1406 5.05469 13.1406C4.35677 13.1406 3.72656 13.0312 3.16406 12.8125C2.60677 12.5938 2.13021 12.2708 1.73438 11.8438C1.34375 11.4115 1.04167 10.875 0.828125 10.2344C0.619792 9.59375 0.515625 8.85156 0.515625 8.00781C0.515625 7.16927 0.632812 6.41927 0.867188 5.75781C1.10156 5.09115 1.42969 4.52865 1.85156 4.07031C2.27865 3.60677 2.78906 3.25521 3.38281 3.01562C3.98177 2.77083 4.64062 2.64844 5.35938 2.64844C5.81771 2.64844 6.2526 2.6901 6.66406 2.77344C7.08073 2.85156 7.47917 2.97917 7.85938 3.15625V4.53906ZM17.0078 13H15.4375L13.9141 9.73438C13.7995 9.48438 13.6823 9.27865 13.5625 9.11719C13.4427 8.95052 13.3125 8.82031 13.1719 8.72656C13.0365 8.6276 12.8854 8.55729 12.7188 8.51562C12.5573 8.47396 12.375 8.45312 12.1719 8.45312H11.5156V13H10.125V2.78906H12.8594C13.4531 2.78906 13.9635 2.85417 14.3906 2.98438C14.8177 3.11458 15.1667 3.29688 15.4375 3.53125C15.7135 3.76562 15.9141 4.04948 16.0391 4.38281C16.1693 4.71094 16.2344 5.07552 16.2344 5.47656C16.2344 5.79427 16.1875 6.09635 16.0938 6.38281C16 6.66406 15.8594 6.92188 15.6719 7.15625C15.4896 7.38542 15.2604 7.58594 14.9844 7.75781C14.7135 7.92448 14.401 8.04948 14.0469 8.13281C14.3333 8.23177 14.5755 8.40625 14.7734 8.65625C14.9766 8.90104 15.1823 9.22917 15.3906 9.64062L17.0078 13ZM14.7812 5.59375C14.7812 5.04688 14.6094 4.63802 14.2656 4.36719C13.9271 4.09635 13.4479 3.96094 12.8281 3.96094H11.5156V7.33594H12.6406C12.9688 7.33594 13.263 7.29948 13.5234 7.22656C13.7891 7.14844 14.013 7.03646 14.1953 6.89062C14.3828 6.73958 14.526 6.55729 14.625 6.34375C14.7292 6.125 14.7812 5.875 14.7812 5.59375ZM26.3125 13H24.7969L24.0859 10.7734H19.8359L19.1172 13H17.6719L21.0625 2.78906H22.9688L26.3125 13ZM23.6875 9.53125L21.9609 4.07031L20.2344 9.53125H23.6875ZM33.75 3.97656H29.4141V7.28906H33.5234V8.45312H29.4141V13H27.9922V2.78906H33.75V3.97656ZM39.5859 5.01562C39.7474 5.01562 39.901 5.04948 40.0469 5.11719C40.1927 5.17969 40.3203 5.26562 40.4297 5.375C40.5391 5.48438 40.625 5.61198 40.6875 5.75781C40.7552 5.90365 40.7891 6.05729 40.7891 6.21875C40.7891 6.38542 40.7552 6.54167 40.6875 6.6875C40.625 6.82812 40.5391 6.95312 40.4297 7.0625C40.3203 7.17188 40.1927 7.25781 40.0469 7.32031C39.901 7.38281 39.7474 7.41406 39.5859 7.41406C39.4193 7.41406 39.263 7.38281 39.1172 7.32031C38.9766 7.25781 38.8516 7.17188 38.7422 7.0625C38.6328 6.95312 38.5469 6.82812 38.4844 6.6875C38.4219 6.54167 38.3906 6.38542 38.3906 6.21875C38.3906 6.05729 38.4219 5.90365 38.4844 5.75781C38.5469 5.61198 38.6328 5.48438 38.7422 5.375C38.8516 5.26562 38.9766 5.17969 39.1172 5.11719C39.263 5.04948 39.4193 5.01562 39.5859 5.01562ZM39.5859 10.7422C39.7474 10.7422 39.901 10.776 40.0469 10.8438C40.1927 10.9062 40.3203 10.9922 40.4297 11.1016C40.5391 11.2109 40.625 11.3385 40.6875 11.4844C40.7552 11.6302 40.7891 11.7839 40.7891 11.9453C40.7891 12.112 40.7552 12.2682 40.6875 12.4141C40.625 12.5547 40.5391 12.6797 40.4297 12.7891C40.3203 12.8984 40.1927 12.9844 40.0469 13.0469C39.901 13.1094 39.7474 13.1406 39.5859 13.1406C39.4193 13.1406 39.263 13.1094 39.1172 13.0469C38.9766 12.9844 38.8516 12.8984 38.7422 12.7891C38.6328 12.6797 38.5469 12.5547 38.4844 12.4141C38.4219 12.2682 38.3906 12.112 38.3906 11.9453C38.3906 11.7839 38.4219 11.6302 38.4844 11.4844C38.5469 11.3385 38.6328 11.2109 38.7422 11.1016C38.8516 10.9922 38.9766 10.9062 39.1172 10.8438C39.263 10.776 39.4193 10.7422 39.5859 10.7422Z" fill="#C9D1D9"/>
<path d="M61.1962 67.9614H59.6805L58.9696 65.7349H54.7196L54.0009 67.9614H52.5555L55.9462 57.7505H57.8524L61.1962 67.9614ZM58.5712 64.4927L56.8446 59.0317L55.118 64.4927H58.5712ZM69.993 67.9614H68.4774L67.7665 65.7349H63.5165L62.7977 67.9614H61.3524L64.743 57.7505H66.6493L69.993 67.9614ZM67.368 64.4927L65.6415 59.0317L63.9149 64.4927H67.368ZM60.2509 86.5786C59.4331 86.9172 58.5764 87.0864 57.6805 87.0864C56.2378 87.0864 55.1285 86.6567 54.3524 85.7974C53.5816 84.9328 53.1962 83.6567 53.1962 81.9692C53.1962 81.1515 53.3029 80.4119 53.5165 79.7505C53.73 79.089 54.0347 78.5291 54.4305 78.0708C54.8264 77.6073 55.3055 77.2505 55.868 77.0005C56.4305 76.7505 57.0608 76.6255 57.7587 76.6255C58.2326 76.6255 58.6727 76.6672 59.079 76.7505C59.4852 76.8286 59.8759 76.951 60.2509 77.1177V78.4849C59.8811 78.2817 59.4983 78.1281 59.1024 78.0239C58.7066 77.9146 58.2743 77.8599 57.8055 77.8599C57.3264 77.8599 56.8915 77.951 56.5009 78.1333C56.1154 78.3104 55.7873 78.5708 55.5165 78.9146C55.2456 79.2531 55.0373 79.6698 54.8915 80.1646C54.7456 80.6541 54.6727 81.214 54.6727 81.8442C54.6727 83.1672 54.941 84.1646 55.4774 84.8364C56.0139 85.5083 56.8003 85.8442 57.8368 85.8442C58.2743 85.8442 58.6936 85.7948 59.0946 85.6958C59.4956 85.5916 59.8811 85.4484 60.2509 85.2661V86.5786ZM69.0477 86.5786C68.23 86.9172 67.3733 87.0864 66.4774 87.0864C65.0347 87.0864 63.9253 86.6567 63.1493 85.7974C62.3785 84.9328 61.993 83.6567 61.993 81.9692C61.993 81.1515 62.0998 80.4119 62.3134 79.7505C62.5269 79.089 62.8316 78.5291 63.2274 78.0708C63.6233 77.6073 64.1024 77.2505 64.6649 77.0005C65.2274 76.7505 65.8576 76.6255 66.5555 76.6255C67.0295 76.6255 67.4696 76.6672 67.8759 76.7505C68.2821 76.8286 68.6727 76.951 69.0477 77.1177V78.4849C68.6779 78.2817 68.2951 78.1281 67.8993 78.0239C67.5035 77.9146 67.0712 77.8599 66.6024 77.8599C66.1233 77.8599 65.6884 77.951 65.2977 78.1333C64.9123 78.3104 64.5842 78.5708 64.3134 78.9146C64.0425 79.2531 63.8342 79.6698 63.6884 80.1646C63.5425 80.6541 63.4696 81.214 63.4696 81.8442C63.4696 83.1672 63.7378 84.1646 64.2743 84.8364C64.8108 85.5083 65.5972 85.8442 66.6337 85.8442C67.0712 85.8442 67.4904 85.7948 67.8915 85.6958C68.2925 85.5916 68.6779 85.4484 69.0477 85.2661V86.5786Z" fill="#C9D1D9"/>
<circle cx="61.8452" cy="72.8452" r="22.8452" stroke="#C4A8A8" stroke-opacity="0.25" stroke-width="2"/>
<path d="M121.196 68.9614H119.681L118.97 66.7349H114.72L114.001 68.9614H112.556L115.946 58.7505H117.852L121.196 68.9614ZM118.571 65.4927L116.845 60.0317L115.118 65.4927H118.571ZM129.399 59.938H126.376V68.9614H124.97V59.938H121.946V58.7505H129.399V59.938ZM120.251 87.5786C119.433 87.9172 118.576 88.0864 117.681 88.0864C116.238 88.0864 115.128 87.6567 114.352 86.7974C113.582 85.9328 113.196 84.6567 113.196 82.9692C113.196 82.1515 113.303 81.4119 113.516 80.7505C113.73 80.089 114.035 79.5291 114.431 79.0708C114.826 78.6073 115.306 78.2505 115.868 78.0005C116.431 77.7505 117.061 77.6255 117.759 77.6255C118.233 77.6255 118.673 77.6672 119.079 77.7505C119.485 77.8286 119.876 77.951 120.251 78.1177V79.4849C119.881 79.2817 119.498 79.1281 119.102 79.0239C118.707 78.9146 118.274 78.8599 117.806 78.8599C117.326 78.8599 116.891 78.951 116.501 79.1333C116.115 79.3104 115.787 79.5708 115.516 79.9146C115.246 80.2531 115.037 80.6698 114.891 81.1646C114.746 81.6541 114.673 82.214 114.673 82.8442C114.673 84.1672 114.941 85.1646 115.477 85.8364C116.014 86.5083 116.8 86.8442 117.837 86.8442C118.274 86.8442 118.694 86.7948 119.095 86.6958C119.496 86.5916 119.881 86.4484 120.251 86.2661V87.5786ZM129.993 87.9614H128.477L127.766 85.7349H123.516L122.798 87.9614H121.352L124.743 77.7505H126.649L129.993 87.9614ZM127.368 84.4927L125.641 79.0317L123.915 84.4927H127.368Z" fill="#C9D1D9"/>
<circle cx="121.845" cy="72.9936" r="22.8452" stroke="#C4A8A8" stroke-opacity="0.25" stroke-width="2"/>
<path d="M179.602 60.7896H176.579V69.813H175.173V60.7896H172.149V59.6021H179.602V60.7896ZM188.134 61.3521C187.753 61.1489 187.363 60.9927 186.962 60.8833C186.561 60.7687 186.123 60.7114 185.649 60.7114C185.108 60.7114 184.626 60.8078 184.204 61.0005C183.782 61.1932 183.425 61.4666 183.134 61.8208C182.847 62.1698 182.626 62.5916 182.47 63.0864C182.319 63.5812 182.243 64.1281 182.243 64.7271C182.243 65.3521 182.306 65.9119 182.431 66.4067C182.556 66.9015 182.751 67.3208 183.016 67.6646C183.282 68.0083 183.621 68.2713 184.032 68.4536C184.449 68.6359 184.946 68.7271 185.524 68.7271C185.623 68.7271 185.73 68.7218 185.845 68.7114C185.959 68.701 186.074 68.688 186.188 68.6724C186.303 68.6515 186.412 68.6281 186.516 68.6021C186.626 68.576 186.722 68.5474 186.806 68.5161V65.2661H184.72V64.1177H188.181V69.3364C187.967 69.4354 187.74 69.5239 187.501 69.6021C187.266 69.6802 187.024 69.7453 186.774 69.7974C186.53 69.8494 186.285 69.8885 186.04 69.9146C185.795 69.9406 185.558 69.9536 185.329 69.9536C184.631 69.9536 184.001 69.8442 183.438 69.6255C182.881 69.4067 182.405 69.0838 182.009 68.6567C181.618 68.2244 181.316 67.688 181.102 67.0474C180.894 66.4067 180.79 65.6646 180.79 64.8208C180.79 63.9823 180.907 63.2323 181.141 62.5708C181.376 61.9041 181.704 61.3416 182.126 60.8833C182.553 60.4198 183.063 60.0682 183.657 59.8286C184.256 59.5838 184.915 59.4614 185.634 59.4614C186.092 59.4614 186.527 59.5031 186.938 59.5864C187.355 59.6646 187.753 59.7922 188.134 59.9692V61.3521ZM180.196 88.813H178.681L177.97 86.5864H173.72L173.001 88.813H171.556L174.946 78.6021H176.852L180.196 88.813ZM177.571 85.3442L175.845 79.8833L174.118 85.3442H177.571ZM188.399 79.7896H185.376V88.813H183.97V79.7896H180.946V78.6021H188.399V79.7896Z" fill="#C9D1D9"/>
<circle cx="180.845" cy="73.8452" r="22.8452" stroke="#C4A8A8" stroke-opacity="0.25" stroke-width="2"/>
<path d="M242.196 67.9614H240.681L239.97 65.7349H235.72L235.001 67.9614H233.556L236.946 57.7505H238.852L242.196 67.9614ZM239.571 64.4927L237.845 59.0317L236.118 64.4927H239.571ZM250.399 58.938H247.376V67.9614H245.97V58.938H242.946V57.7505H250.399V58.938ZM241.337 78.5005C240.957 78.2974 240.566 78.1411 240.165 78.0317C239.764 77.9172 239.326 77.8599 238.852 77.8599C238.311 77.8599 237.829 77.9562 237.407 78.1489C236.985 78.3416 236.628 78.6151 236.337 78.9692C236.05 79.3182 235.829 79.7401 235.673 80.2349C235.522 80.7297 235.446 81.2765 235.446 81.8755C235.446 82.5005 235.509 83.0604 235.634 83.5552C235.759 84.05 235.954 84.4692 236.22 84.813C236.485 85.1567 236.824 85.4198 237.235 85.6021C237.652 85.7843 238.149 85.8755 238.727 85.8755C238.826 85.8755 238.933 85.8703 239.048 85.8599C239.162 85.8494 239.277 85.8364 239.391 85.8208C239.506 85.8 239.615 85.7765 239.72 85.7505C239.829 85.7244 239.925 85.6958 240.009 85.6646V82.4146H237.923V81.2661H241.384V86.4849C241.17 86.5838 240.944 86.6724 240.704 86.7505C240.47 86.8286 240.227 86.8937 239.977 86.9458C239.733 86.9979 239.488 87.0369 239.243 87.063C238.998 87.089 238.761 87.1021 238.532 87.1021C237.834 87.1021 237.204 86.9927 236.641 86.7739C236.084 86.5552 235.608 86.2323 235.212 85.8052C234.821 85.3729 234.519 84.8364 234.306 84.1958C234.097 83.5552 233.993 82.813 233.993 81.9692C233.993 81.1307 234.11 80.3807 234.345 79.7192C234.579 79.0526 234.907 78.4901 235.329 78.0317C235.756 77.5682 236.266 77.2166 236.86 76.9771C237.459 76.7323 238.118 76.6099 238.837 76.6099C239.295 76.6099 239.73 76.6515 240.141 76.7349C240.558 76.813 240.957 76.9406 241.337 77.1177V78.5005ZM250.993 86.9614H249.477L248.766 84.7349H244.516L243.798 86.9614H242.352L245.743 76.7505H247.649L250.993 86.9614ZM248.368 83.4927L246.641 78.0317L244.915 83.4927H248.368Z" fill="#C9D1D9"/>
<circle cx="242.845" cy="72.8452" r="22.8452" stroke="#C4A8A8" stroke-opacity="0.25" stroke-width="2"/>
<path d="M300.251 67.5786C299.433 67.9172 298.576 68.0864 297.681 68.0864C296.238 68.0864 295.128 67.6567 294.352 66.7974C293.582 65.9328 293.196 64.6567 293.196 62.9692C293.196 62.1515 293.303 61.4119 293.516 60.7505C293.73 60.089 294.035 59.5291 294.431 59.0708C294.826 58.6073 295.306 58.2505 295.868 58.0005C296.431 57.7505 297.061 57.6255 297.759 57.6255C298.233 57.6255 298.673 57.6672 299.079 57.7505C299.485 57.8286 299.876 57.951 300.251 58.1177V59.4849C299.881 59.2817 299.498 59.1281 299.102 59.0239C298.707 58.9146 298.274 58.8599 297.806 58.8599C297.326 58.8599 296.891 58.951 296.501 59.1333C296.115 59.3104 295.787 59.5708 295.516 59.9146C295.246 60.2531 295.037 60.6698 294.891 61.1646C294.746 61.6541 294.673 62.214 294.673 62.8442C294.673 64.1672 294.941 65.1646 295.477 65.8364C296.014 66.5083 296.8 66.8442 297.837 66.8442C298.274 66.8442 298.694 66.7948 299.095 66.6958C299.496 66.5916 299.881 66.4484 300.251 66.2661V67.5786ZM309.993 67.9614H308.477L307.766 65.7349H303.516L302.798 67.9614H301.352L304.743 57.7505H306.649L309.993 67.9614ZM307.368 64.4927L305.641 59.0317L303.915 64.4927H307.368ZM300.337 78.5005C299.957 78.2974 299.566 78.1411 299.165 78.0317C298.764 77.9172 298.326 77.8599 297.852 77.8599C297.311 77.8599 296.829 77.9562 296.407 78.1489C295.985 78.3416 295.628 78.6151 295.337 78.9692C295.05 79.3182 294.829 79.7401 294.673 80.2349C294.522 80.7297 294.446 81.2765 294.446 81.8755C294.446 82.5005 294.509 83.0604 294.634 83.5552C294.759 84.05 294.954 84.4692 295.22 84.813C295.485 85.1567 295.824 85.4198 296.235 85.6021C296.652 85.7843 297.149 85.8755 297.727 85.8755C297.826 85.8755 297.933 85.8703 298.048 85.8599C298.162 85.8494 298.277 85.8364 298.391 85.8208C298.506 85.8 298.615 85.7765 298.72 85.7505C298.829 85.7244 298.925 85.6958 299.009 85.6646V82.4146H296.923V81.2661H300.384V86.4849C300.17 86.5838 299.944 86.6724 299.704 86.7505C299.47 86.8286 299.227 86.8937 298.977 86.9458C298.733 86.9979 298.488 87.0369 298.243 87.063C297.998 87.089 297.761 87.1021 297.532 87.1021C296.834 87.1021 296.204 86.9927 295.641 86.7739C295.084 86.5552 294.608 86.2323 294.212 85.8052C293.821 85.3729 293.519 84.8364 293.306 84.1958C293.097 83.5552 292.993 82.813 292.993 81.9692C292.993 81.1307 293.11 80.3807 293.345 79.7192C293.579 79.0526 293.907 78.4901 294.329 78.0317C294.756 77.5682 295.266 77.2166 295.86 76.9771C296.459 76.7323 297.118 76.6099 297.837 76.6099C298.295 76.6099 298.73 76.6515 299.141 76.7349C299.558 76.813 299.957 76.9406 300.337 77.1177V78.5005ZM309.134 78.5005C308.753 78.2974 308.363 78.1411 307.962 78.0317C307.561 77.9172 307.123 77.8599 306.649 77.8599C306.108 77.8599 305.626 77.9562 305.204 78.1489C304.782 78.3416 304.425 78.6151 304.134 78.9692C303.847 79.3182 303.626 79.7401 303.47 80.2349C303.319 80.7297 303.243 81.2765 303.243 81.8755C303.243 82.5005 303.306 83.0604 303.431 83.5552C303.556 84.05 303.751 84.4692 304.016 84.813C304.282 85.1567 304.621 85.4198 305.032 85.6021C305.449 85.7843 305.946 85.8755 306.524 85.8755C306.623 85.8755 306.73 85.8703 306.845 85.8599C306.959 85.8494 307.074 85.8364 307.188 85.8208C307.303 85.8 307.412 85.7765 307.516 85.7505C307.626 85.7244 307.722 85.6958 307.806 85.6646V82.4146H305.72V81.2661H309.181V86.4849C308.967 86.5838 308.74 86.6724 308.501 86.7505C308.266 86.8286 308.024 86.8937 307.774 86.9458C307.53 86.9979 307.285 87.0369 307.04 87.063C306.795 87.089 306.558 87.1021 306.329 87.1021C305.631 87.1021 305.001 86.9927 304.438 86.7739C303.881 86.5552 303.405 86.2323 303.009 85.8052C302.618 85.3729 302.316 84.8364 302.102 84.1958C301.894 83.5552 301.79 82.813 301.79 81.9692C301.79 81.1307 301.907 80.3807 302.141 79.7192C302.376 79.0526 302.704 78.4901 303.126 78.0317C303.553 77.5682 304.063 77.2166 304.657 76.9771C305.256 76.7323 305.915 76.6099 306.634 76.6099C307.092 76.6099 307.527 76.6515 307.938 76.7349C308.355 76.813 308.753 76.9406 309.134 77.1177V78.5005Z" fill="#C9D1D9"/>
<circle cx="301.845" cy="72.8452" r="22.8452" stroke="#C4A8A8" stroke-opacity="0.25" stroke-width="2"/>
<path d="M359.251 67.5786C358.433 67.9172 357.576 68.0864 356.681 68.0864C355.238 68.0864 354.128 67.6567 353.352 66.7974C352.582 65.9328 352.196 64.6567 352.196 62.9692C352.196 62.1515 352.303 61.4119 352.516 60.7505C352.73 60.089 353.035 59.5291 353.431 59.0708C353.826 58.6073 354.306 58.2505 354.868 58.0005C355.431 57.7505 356.061 57.6255 356.759 57.6255C357.233 57.6255 357.673 57.6672 358.079 57.7505C358.485 57.8286 358.876 57.951 359.251 58.1177V59.4849C358.881 59.2817 358.498 59.1281 358.102 59.0239C357.707 58.9146 357.274 58.8599 356.806 58.8599C356.326 58.8599 355.891 58.951 355.501 59.1333C355.115 59.3104 354.787 59.5708 354.516 59.9146C354.246 60.2531 354.037 60.6698 353.891 61.1646C353.746 61.6541 353.673 62.214 353.673 62.8442C353.673 64.1672 353.941 65.1646 354.477 65.8364C355.014 66.5083 355.8 66.8442 356.837 66.8442C357.274 66.8442 357.694 66.7948 358.095 66.6958C358.496 66.5916 358.881 66.4484 359.251 66.2661V67.5786ZM368.048 67.5786C367.23 67.9172 366.373 68.0864 365.477 68.0864C364.035 68.0864 362.925 67.6567 362.149 66.7974C361.378 65.9328 360.993 64.6567 360.993 62.9692C360.993 62.1515 361.1 61.4119 361.313 60.7505C361.527 60.089 361.832 59.5291 362.227 59.0708C362.623 58.6073 363.102 58.2505 363.665 58.0005C364.227 57.7505 364.858 57.6255 365.556 57.6255C366.03 57.6255 366.47 57.6672 366.876 57.7505C367.282 57.8286 367.673 57.951 368.048 58.1177V59.4849C367.678 59.2817 367.295 59.1281 366.899 59.0239C366.503 58.9146 366.071 58.8599 365.602 58.8599C365.123 58.8599 364.688 58.951 364.298 59.1333C363.912 59.3104 363.584 59.5708 363.313 59.9146C363.043 60.2531 362.834 60.6698 362.688 61.1646C362.543 61.6541 362.47 62.214 362.47 62.8442C362.47 64.1672 362.738 65.1646 363.274 65.8364C363.811 66.5083 364.597 66.8442 365.634 66.8442C366.071 66.8442 366.49 66.7948 366.891 66.6958C367.293 66.5916 367.678 66.4484 368.048 66.2661V67.5786ZM359.337 78.5005C358.957 78.2974 358.566 78.1411 358.165 78.0317C357.764 77.9172 357.326 77.8599 356.852 77.8599C356.311 77.8599 355.829 77.9562 355.407 78.1489C354.985 78.3416 354.628 78.6151 354.337 78.9692C354.05 79.3182 353.829 79.7401 353.673 80.2349C353.522 80.7297 353.446 81.2765 353.446 81.8755C353.446 82.5005 353.509 83.0604 353.634 83.5552C353.759 84.05 353.954 84.4692 354.22 84.813C354.485 85.1567 354.824 85.4198 355.235 85.6021C355.652 85.7843 356.149 85.8755 356.727 85.8755C356.826 85.8755 356.933 85.8703 357.048 85.8599C357.162 85.8494 357.277 85.8364 357.391 85.8208C357.506 85.8 357.615 85.7765 357.72 85.7505C357.829 85.7244 357.925 85.6958 358.009 85.6646V82.4146H355.923V81.2661H359.384V86.4849C359.17 86.5838 358.944 86.6724 358.704 86.7505C358.47 86.8286 358.227 86.8937 357.977 86.9458C357.733 86.9979 357.488 87.0369 357.243 87.063C356.998 87.089 356.761 87.1021 356.532 87.1021C355.834 87.1021 355.204 86.9927 354.641 86.7739C354.084 86.5552 353.608 86.2323 353.212 85.8052C352.821 85.3729 352.519 84.8364 352.306 84.1958C352.097 83.5552 351.993 82.813 351.993 81.9692C351.993 81.1307 352.11 80.3807 352.345 79.7192C352.579 79.0526 352.907 78.4901 353.329 78.0317C353.756 77.5682 354.266 77.2166 354.86 76.9771C355.459 76.7323 356.118 76.6099 356.837 76.6099C357.295 76.6099 357.73 76.6515 358.141 76.7349C358.558 76.813 358.957 76.9406 359.337 77.1177V78.5005ZM368.134 78.5005C367.753 78.2974 367.363 78.1411 366.962 78.0317C366.561 77.9172 366.123 77.8599 365.649 77.8599C365.108 77.8599 364.626 77.9562 364.204 78.1489C363.782 78.3416 363.425 78.6151 363.134 78.9692C362.847 79.3182 362.626 79.7401 362.47 80.2349C362.319 80.7297 362.243 81.2765 362.243 81.8755C362.243 82.5005 362.306 83.0604 362.431 83.5552C362.556 84.05 362.751 84.4692 363.016 84.813C363.282 85.1567 363.621 85.4198 364.032 85.6021C364.449 85.7843 364.946 85.8755 365.524 85.8755C365.623 85.8755 365.73 85.8703 365.845 85.8599C365.959 85.8494 366.074 85.8364 366.188 85.8208C366.303 85.8 366.412 85.7765 366.516 85.7505C366.626 85.7244 366.722 85.6958 366.806 85.6646V82.4146H364.72V81.2661H368.181V86.4849C367.967 86.5838 367.74 86.6724 367.501 86.7505C367.266 86.8286 367.024 86.8937 366.774 86.9458C366.53 86.9979 366.285 87.0369 366.04 87.063C365.795 87.089 365.558 87.1021 365.329 87.1021C364.631 87.1021 364.001 86.9927 363.438 86.7739C362.881 86.5552 362.405 86.2323 362.009 85.8052C361.618 85.3729 361.316 84.8364 361.102 84.1958C360.894 83.5552 360.79 82.813 360.79 81.9692C360.79 81.1307 360.907 80.3807 361.141 79.7192C361.376 79.0526 361.704 78.4901 362.126 78.0317C362.553 77.5682 363.063 77.2166 363.657 76.9771C364.256 76.7323 364.915 76.6099 365.634 76.6099C366.092 76.6099 366.527 76.6515 366.938 76.7349C367.355 76.813 367.753 76.9406 368.134 77.1177V78.5005Z" fill="#C9D1D9"/>
<circle cx="360.845" cy="72.8452" r="22.8452" stroke="#C4A8A8" stroke-opacity="0.25" stroke-width="2"/>
<path d="M418.337 57.5005C417.957 57.2974 417.566 57.1411 417.165 57.0317C416.764 56.9172 416.326 56.8599 415.852 56.8599C415.311 56.8599 414.829 56.9562 414.407 57.1489C413.985 57.3416 413.628 57.6151 413.337 57.9692C413.05 58.3182 412.829 58.7401 412.673 59.2349C412.522 59.7297 412.446 60.2765 412.446 60.8755C412.446 61.5005 412.509 62.0604 412.634 62.5552C412.759 63.05 412.954 63.4692 413.22 63.813C413.485 64.1567 413.824 64.4198 414.235 64.6021C414.652 64.7843 415.149 64.8755 415.727 64.8755C415.826 64.8755 415.933 64.8703 416.048 64.8599C416.162 64.8494 416.277 64.8364 416.391 64.8208C416.506 64.8 416.615 64.7765 416.72 64.7505C416.829 64.7244 416.925 64.6958 417.009 64.6646V61.4146H414.923V60.2661H418.384V65.4849C418.17 65.5838 417.944 65.6724 417.704 65.7505C417.47 65.8286 417.227 65.8937 416.977 65.9458C416.733 65.9979 416.488 66.0369 416.243 66.063C415.998 66.089 415.761 66.1021 415.532 66.1021C414.834 66.1021 414.204 65.9927 413.641 65.7739C413.084 65.5552 412.608 65.2323 412.212 64.8052C411.821 64.3729 411.519 63.8364 411.306 63.1958C411.097 62.5552 410.993 61.813 410.993 60.9692C410.993 60.1307 411.11 59.3807 411.345 58.7192C411.579 58.0526 411.907 57.4901 412.329 57.0317C412.756 56.5682 413.266 56.2166 413.86 55.9771C414.459 55.7323 415.118 55.6099 415.837 55.6099C416.295 55.6099 416.73 55.6515 417.141 55.7349C417.558 55.813 417.957 55.9406 418.337 56.1177V57.5005ZM427.048 65.5786C426.23 65.9172 425.373 66.0864 424.477 66.0864C423.035 66.0864 421.925 65.6567 421.149 64.7974C420.378 63.9328 419.993 62.6567 419.993 60.9692C419.993 60.1515 420.1 59.4119 420.313 58.7505C420.527 58.089 420.832 57.5291 421.227 57.0708C421.623 56.6073 422.102 56.2505 422.665 56.0005C423.227 55.7505 423.858 55.6255 424.556 55.6255C425.03 55.6255 425.47 55.6672 425.876 55.7505C426.282 55.8286 426.673 55.951 427.048 56.1177V57.4849C426.678 57.2817 426.295 57.1281 425.899 57.0239C425.503 56.9146 425.071 56.8599 424.602 56.8599C424.123 56.8599 423.688 56.951 423.298 57.1333C422.912 57.3104 422.584 57.5708 422.313 57.9146C422.043 58.2531 421.834 58.6698 421.688 59.1646C421.543 59.6541 421.47 60.214 421.47 60.8442C421.47 62.1672 421.738 63.1646 422.274 63.8364C422.811 64.5083 423.597 64.8442 424.634 64.8442C425.071 64.8442 425.49 64.7948 425.891 64.6958C426.293 64.5916 426.678 64.4484 427.048 64.2661V65.5786ZM418.602 75.938H415.579V84.9614H414.173V75.938H411.149V74.7505H418.602V75.938ZM427.134 76.5005C426.753 76.2974 426.363 76.1411 425.962 76.0317C425.561 75.9172 425.123 75.8599 424.649 75.8599C424.108 75.8599 423.626 75.9562 423.204 76.1489C422.782 76.3416 422.425 76.6151 422.134 76.9692C421.847 77.3182 421.626 77.7401 421.47 78.2349C421.319 78.7297 421.243 79.2765 421.243 79.8755C421.243 80.5005 421.306 81.0604 421.431 81.5552C421.556 82.05 421.751 82.4692 422.016 82.813C422.282 83.1567 422.621 83.4198 423.032 83.6021C423.449 83.7843 423.946 83.8755 424.524 83.8755C424.623 83.8755 424.73 83.8703 424.845 83.8599C424.959 83.8494 425.074 83.8364 425.188 83.8208C425.303 83.8 425.412 83.7765 425.516 83.7505C425.626 83.7244 425.722 83.6958 425.806 83.6646V80.4146H423.72V79.2661H427.181V84.4849C426.967 84.5838 426.74 84.6724 426.501 84.7505C426.266 84.8286 426.024 84.8937 425.774 84.9458C425.53 84.9979 425.285 85.0369 425.04 85.063C424.795 85.089 424.558 85.1021 424.329 85.1021C423.631 85.1021 423.001 84.9927 422.438 84.7739C421.881 84.5552 421.405 84.2323 421.009 83.8052C420.618 83.3729 420.316 82.8364 420.102 82.1958C419.894 81.5552 419.79 80.813 419.79 79.9692C419.79 79.1307 419.907 78.3807 420.141 77.7192C420.376 77.0526 420.704 76.4901 421.126 76.0317C421.553 75.5682 422.063 75.2166 422.657 74.9771C423.256 74.7323 423.915 74.6099 424.634 74.6099C425.092 74.6099 425.527 74.6515 425.938 74.7349C426.355 74.813 426.753 74.9406 427.134 75.1177V76.5005Z" fill="#C9D1D9"/>
<circle cx="419.845" cy="70.8452" r="22.8452" stroke="#C4A8A8" stroke-opacity="0.25" stroke-width="2"/>
<path d="M60.3368 119.5C59.9566 119.297 59.566 119.141 59.1649 119.032C58.7639 118.917 58.3264 118.86 57.8524 118.86C57.3108 118.86 56.829 118.956 56.4071 119.149C55.9852 119.342 55.6285 119.615 55.3368 119.969C55.0503 120.318 54.829 120.74 54.6727 121.235C54.5217 121.73 54.4462 122.277 54.4462 122.875C54.4462 123.5 54.5087 124.06 54.6337 124.555C54.7587 125.05 54.954 125.469 55.2196 125.813C55.4852 126.157 55.8238 126.42 56.2352 126.602C56.6519 126.784 57.1493 126.875 57.7274 126.875C57.8264 126.875 57.9331 126.87 58.0477 126.86C58.1623 126.849 58.2769 126.836 58.3915 126.821C58.5061 126.8 58.6154 126.777 58.7196 126.75C58.829 126.724 58.9253 126.696 59.0087 126.665V123.415H56.9227V122.266H60.3837V127.485C60.1701 127.584 59.9436 127.672 59.704 127.75C59.4696 127.829 59.2274 127.894 58.9774 127.946C58.7326 127.998 58.4878 128.037 58.243 128.063C57.9983 128.089 57.7613 128.102 57.5321 128.102C56.8342 128.102 56.204 127.993 55.6415 127.774C55.0842 127.555 54.6076 127.232 54.2118 126.805C53.8212 126.373 53.5191 125.836 53.3055 125.196C53.0972 124.555 52.993 123.813 52.993 122.969C52.993 122.131 53.1102 121.381 53.3446 120.719C53.579 120.053 53.9071 119.49 54.329 119.032C54.7561 118.568 55.2665 118.217 55.8602 117.977C56.4592 117.732 57.118 117.61 57.8368 117.61C58.2951 117.61 58.73 117.652 59.1415 117.735C59.5581 117.813 59.9566 117.941 60.3368 118.118V119.5ZM69.1337 119.5C68.7535 119.297 68.3628 119.141 67.9618 119.032C67.5608 118.917 67.1233 118.86 66.6493 118.86C66.1076 118.86 65.6259 118.956 65.204 119.149C64.7821 119.342 64.4253 119.615 64.1337 119.969C63.8472 120.318 63.6259 120.74 63.4696 121.235C63.3186 121.73 63.243 122.277 63.243 122.875C63.243 123.5 63.3055 124.06 63.4305 124.555C63.5555 125.05 63.7509 125.469 64.0165 125.813C64.2821 126.157 64.6206 126.42 65.0321 126.602C65.4488 126.784 65.9462 126.875 66.5243 126.875C66.6233 126.875 66.73 126.87 66.8446 126.86C66.9592 126.849 67.0738 126.836 67.1884 126.821C67.3029 126.8 67.4123 126.777 67.5165 126.75C67.6259 126.724 67.7222 126.696 67.8055 126.665V123.415H65.7196V122.266H69.1805V127.485C68.967 127.584 68.7404 127.672 68.5009 127.75C68.2665 127.829 68.0243 127.894 67.7743 127.946C67.5295 127.998 67.2847 128.037 67.0399 128.063C66.7951 128.089 66.5581 128.102 66.329 128.102C65.6311 128.102 65.0009 127.993 64.4384 127.774C63.8811 127.555 63.4045 127.232 63.0087 126.805C62.618 126.373 62.316 125.836 62.1024 125.196C61.8941 124.555 61.7899 123.813 61.7899 122.969C61.7899 122.131 61.9071 121.381 62.1415 120.719C62.3759 120.053 62.704 119.49 63.1259 119.032C63.5529 118.568 64.0634 118.217 64.6571 117.977C65.2561 117.732 65.9149 117.61 66.6337 117.61C67.092 117.61 67.5269 117.652 67.9384 117.735C68.355 117.813 68.7535 117.941 69.1337 118.118V119.5ZM60.3368 138.5C59.9566 138.297 59.566 138.141 59.1649 138.032C58.7639 137.917 58.3264 137.86 57.8524 137.86C57.3108 137.86 56.829 137.956 56.4071 138.149C55.9852 138.342 55.6285 138.615 55.3368 138.969C55.0503 139.318 54.829 139.74 54.6727 140.235C54.5217 140.73 54.4462 141.277 54.4462 141.875C54.4462 142.5 54.5087 143.06 54.6337 143.555C54.7587 144.05 54.954 144.469 55.2196 144.813C55.4852 145.157 55.8238 145.42 56.2352 145.602C56.6519 145.784 57.1493 145.875 57.7274 145.875C57.8264 145.875 57.9331 145.87 58.0477 145.86C58.1623 145.849 58.2769 145.836 58.3915 145.821C58.5061 145.8 58.6154 145.777 58.7196 145.75C58.829 145.724 58.9253 145.696 59.0087 145.665V142.415H56.9227V141.266H60.3837V146.485C60.1701 146.584 59.9436 146.672 59.704 146.75C59.4696 146.829 59.2274 146.894 58.9774 146.946C58.7326 146.998 58.4878 147.037 58.243 147.063C57.9983 147.089 57.7613 147.102 57.5321 147.102C56.8342 147.102 56.204 146.993 55.6415 146.774C55.0842 146.555 54.6076 146.232 54.2118 145.805C53.8212 145.373 53.5191 144.836 53.3055 144.196C53.0972 143.555 52.993 142.813 52.993 141.969C52.993 141.131 53.1102 140.381 53.3446 139.719C53.579 139.053 53.9071 138.49 54.329 138.032C54.7561 137.568 55.2665 137.217 55.8602 136.977C56.4592 136.732 57.118 136.61 57.8368 136.61C58.2951 136.61 58.73 136.652 59.1415 136.735C59.5581 136.813 59.9566 136.941 60.3368 137.118V138.5ZM69.3993 137.938H66.3759V146.961H64.9696V137.938H61.9462V136.75H69.3993V137.938Z" fill="#C9D1D9"/>
<circle cx="61.8452" cy="132.845" r="22.8452" stroke="#C4A8A8" stroke-opacity="0.25" stroke-width="2"/>
<path d="M115.337 120.352C114.957 120.149 114.566 119.993 114.165 119.883C113.764 119.769 113.326 119.711 112.852 119.711C112.311 119.711 111.829 119.808 111.407 120C110.985 120.193 110.628 120.467 110.337 120.821C110.05 121.17 109.829 121.592 109.673 122.086C109.522 122.581 109.446 123.128 109.446 123.727C109.446 124.352 109.509 124.912 109.634 125.407C109.759 125.902 109.954 126.321 110.22 126.665C110.485 127.008 110.824 127.271 111.235 127.454C111.652 127.636 112.149 127.727 112.727 127.727C112.826 127.727 112.933 127.722 113.048 127.711C113.162 127.701 113.277 127.688 113.391 127.672C113.506 127.652 113.615 127.628 113.72 127.602C113.829 127.576 113.925 127.547 114.009 127.516V124.266H111.923V123.118H115.384V128.336C115.17 128.435 114.944 128.524 114.704 128.602C114.47 128.68 114.227 128.745 113.977 128.797C113.733 128.849 113.488 128.889 113.243 128.915C112.998 128.941 112.761 128.954 112.532 128.954C111.834 128.954 111.204 128.844 110.641 128.625C110.084 128.407 109.608 128.084 109.212 127.657C108.821 127.224 108.519 126.688 108.306 126.047C108.097 125.407 107.993 124.665 107.993 123.821C107.993 122.982 108.11 122.232 108.345 121.571C108.579 120.904 108.907 120.342 109.329 119.883C109.756 119.42 110.266 119.068 110.86 118.829C111.459 118.584 112.118 118.461 112.837 118.461C113.295 118.461 113.73 118.503 114.141 118.586C114.558 118.665 114.957 118.792 115.337 118.969V120.352ZM124.993 128.813H123.477L122.766 126.586H118.516L117.798 128.813H116.352L119.743 118.602H121.649L124.993 128.813ZM122.368 125.344L120.641 119.883L118.915 125.344H122.368ZM115.602 138.79H112.579V147.813H111.173V138.79H108.149V137.602H115.602V138.79ZM124.399 138.79H121.376V147.813H119.97V138.79H116.946V137.602H124.399V138.79Z" fill="#C9D1D9"/>
<circle cx="116.845" cy="132.845" r="22.8452" stroke="#C4A8A8" stroke-opacity="0.25" stroke-width="2"/>
<path d="M180.337 119.5C179.957 119.297 179.566 119.141 179.165 119.032C178.764 118.917 178.326 118.86 177.852 118.86C177.311 118.86 176.829 118.956 176.407 119.149C175.985 119.342 175.628 119.615 175.337 119.969C175.05 120.318 174.829 120.74 174.673 121.235C174.522 121.73 174.446 122.277 174.446 122.875C174.446 123.5 174.509 124.06 174.634 124.555C174.759 125.05 174.954 125.469 175.22 125.813C175.485 126.157 175.824 126.42 176.235 126.602C176.652 126.784 177.149 126.875 177.727 126.875C177.826 126.875 177.933 126.87 178.048 126.86C178.162 126.849 178.277 126.836 178.391 126.821C178.506 126.8 178.615 126.777 178.72 126.75C178.829 126.724 178.925 126.696 179.009 126.665V123.415H176.923V122.266H180.384V127.485C180.17 127.584 179.944 127.672 179.704 127.75C179.47 127.829 179.227 127.894 178.977 127.946C178.733 127.998 178.488 128.037 178.243 128.063C177.998 128.089 177.761 128.102 177.532 128.102C176.834 128.102 176.204 127.993 175.641 127.774C175.084 127.555 174.608 127.232 174.212 126.805C173.821 126.373 173.519 125.836 173.306 125.196C173.097 124.555 172.993 123.813 172.993 122.969C172.993 122.131 173.11 121.381 173.345 120.719C173.579 120.053 173.907 119.49 174.329 119.032C174.756 118.568 175.266 118.217 175.86 117.977C176.459 117.732 177.118 117.61 177.837 117.61C178.295 117.61 178.73 117.652 179.141 117.735C179.558 117.813 179.957 117.941 180.337 118.118V119.5ZM189.134 119.5C188.753 119.297 188.363 119.141 187.962 119.032C187.561 118.917 187.123 118.86 186.649 118.86C186.108 118.86 185.626 118.956 185.204 119.149C184.782 119.342 184.425 119.615 184.134 119.969C183.847 120.318 183.626 120.74 183.47 121.235C183.319 121.73 183.243 122.277 183.243 122.875C183.243 123.5 183.306 124.06 183.431 124.555C183.556 125.05 183.751 125.469 184.016 125.813C184.282 126.157 184.621 126.42 185.032 126.602C185.449 126.784 185.946 126.875 186.524 126.875C186.623 126.875 186.73 126.87 186.845 126.86C186.959 126.849 187.074 126.836 187.188 126.821C187.303 126.8 187.412 126.777 187.516 126.75C187.626 126.724 187.722 126.696 187.806 126.665V123.415H185.72V122.266H189.181V127.485C188.967 127.584 188.74 127.672 188.501 127.75C188.266 127.829 188.024 127.894 187.774 127.946C187.53 127.998 187.285 128.037 187.04 128.063C186.795 128.089 186.558 128.102 186.329 128.102C185.631 128.102 185.001 127.993 184.438 127.774C183.881 127.555 183.405 127.232 183.009 126.805C182.618 126.373 182.316 125.836 182.102 125.196C181.894 124.555 181.79 123.813 181.79 122.969C181.79 122.131 181.907 121.381 182.141 120.719C182.376 120.053 182.704 119.49 183.126 119.032C183.553 118.568 184.063 118.217 184.657 117.977C185.256 117.732 185.915 117.61 186.634 117.61C187.092 117.61 187.527 117.652 187.938 117.735C188.355 117.813 188.753 117.941 189.134 118.118V119.5ZM180.602 137.938H177.579V146.961H176.173V137.938H173.149V136.75H180.602V137.938ZM189.134 138.5C188.753 138.297 188.363 138.141 187.962 138.032C187.561 137.917 187.123 137.86 186.649 137.86C186.108 137.86 185.626 137.956 185.204 138.149C184.782 138.342 184.425 138.615 184.134 138.969C183.847 139.318 183.626 139.74 183.47 140.235C183.319 140.73 183.243 141.277 183.243 141.875C183.243 142.5 183.306 143.06 183.431 143.555C183.556 144.05 183.751 144.469 184.016 144.813C184.282 145.157 184.621 145.42 185.032 145.602C185.449 145.784 185.946 145.875 186.524 145.875C186.623 145.875 186.73 145.87 186.845 145.86C186.959 145.849 187.074 145.836 187.188 145.821C187.303 145.8 187.412 145.777 187.516 145.75C187.626 145.724 187.722 145.696 187.806 145.665V142.415H185.72V141.266H189.181V146.485C188.967 146.584 188.74 146.672 188.501 146.75C188.266 146.829 188.024 146.894 187.774 146.946C187.53 146.998 187.285 147.037 187.04 147.063C186.795 147.089 186.558 147.102 186.329 147.102C185.631 147.102 185.001 146.993 184.438 146.774C183.881 146.555 183.405 146.232 183.009 145.805C182.618 145.373 182.316 144.836 182.102 144.196C181.894 143.555 181.79 142.813 181.79 141.969C181.79 141.131 181.907 140.381 182.141 139.719C182.376 139.053 182.704 138.49 183.126 138.032C183.553 137.568 184.063 137.217 184.657 136.977C185.256 136.732 185.915 136.61 186.634 136.61C187.092 136.61 187.527 136.652 187.938 136.735C188.355 136.813 188.753 136.941 189.134 137.118V138.5Z" fill="#C9D1D9"/>
<circle cx="181.845" cy="132.845" r="22.8452" stroke="#C4A8A8" stroke-opacity="0.25" stroke-width="2"/>
<path d="M241.602 118.938H238.579V127.961H237.173V118.938H234.149V117.75H241.602V118.938ZM250.993 127.961H249.477L248.766 125.735H244.516L243.798 127.961H242.352L245.743 117.75H247.649L250.993 127.961ZM248.368 124.493L246.641 119.032L244.915 124.493H248.368ZM241.337 138.5C240.957 138.297 240.566 138.141 240.165 138.032C239.764 137.917 239.326 137.86 238.852 137.86C238.311 137.86 237.829 137.956 237.407 138.149C236.985 138.342 236.628 138.615 236.337 138.969C236.05 139.318 235.829 139.74 235.673 140.235C235.522 140.73 235.446 141.277 235.446 141.875C235.446 142.5 235.509 143.06 235.634 143.555C235.759 144.05 235.954 144.469 236.22 144.813C236.485 145.157 236.824 145.42 237.235 145.602C237.652 145.784 238.149 145.875 238.727 145.875C238.826 145.875 238.933 145.87 239.048 145.86C239.162 145.849 239.277 145.836 239.391 145.821C239.506 145.8 239.615 145.777 239.72 145.75C239.829 145.724 239.925 145.696 240.009 145.665V142.415H237.923V141.266H241.384V146.485C241.17 146.584 240.944 146.672 240.704 146.75C240.47 146.829 240.227 146.894 239.977 146.946C239.733 146.998 239.488 147.037 239.243 147.063C238.998 147.089 238.761 147.102 238.532 147.102C237.834 147.102 237.204 146.993 236.641 146.774C236.084 146.555 235.608 146.232 235.212 145.805C234.821 145.373 234.519 144.836 234.306 144.196C234.097 143.555 233.993 142.813 233.993 141.969C233.993 141.131 234.11 140.381 234.345 139.719C234.579 139.053 234.907 138.49 235.329 138.032C235.756 137.568 236.266 137.217 236.86 136.977C237.459 136.732 238.118 136.61 238.837 136.61C239.295 136.61 239.73 136.652 240.141 136.735C240.558 136.813 240.957 136.941 241.337 137.118V138.5ZM250.048 146.579C249.23 146.917 248.373 147.086 247.477 147.086C246.035 147.086 244.925 146.657 244.149 145.797C243.378 144.933 242.993 143.657 242.993 141.969C242.993 141.152 243.1 140.412 243.313 139.75C243.527 139.089 243.832 138.529 244.227 138.071C244.623 137.607 245.102 137.25 245.665 137C246.227 136.75 246.858 136.625 247.556 136.625C248.03 136.625 248.47 136.667 248.876 136.75C249.282 136.829 249.673 136.951 250.048 137.118V138.485C249.678 138.282 249.295 138.128 248.899 138.024C248.503 137.915 248.071 137.86 247.602 137.86C247.123 137.86 246.688 137.951 246.298 138.133C245.912 138.31 245.584 138.571 245.313 138.915C245.043 139.253 244.834 139.67 244.688 140.165C244.543 140.654 244.47 141.214 244.47 141.844C244.47 143.167 244.738 144.165 245.274 144.836C245.811 145.508 246.597 145.844 247.634 145.844C248.071 145.844 248.49 145.795 248.891 145.696C249.293 145.592 249.678 145.448 250.048 145.266V146.579Z" fill="#C9D1D9"/>
<circle cx="242.845" cy="132.845" r="22.8452" stroke="#C4A8A8" stroke-opacity="0.25" stroke-width="2"/>
<path d="M11.8984 224.148H10.0039L9.11523 221.365H3.80273L2.9043 224.148H1.09766L5.33594 211.385H7.71875L11.8984 224.148ZM8.61719 219.812L6.45898 212.986L4.30078 219.812H8.61719ZM33.8906 247.148H31.9961L31.1074 244.365H25.7949L24.8965 247.148H23.0898L27.3281 234.385H29.7109L33.8906 247.148ZM30.6094 242.812L28.4512 235.986L26.293 242.812H30.6094Z" fill="#C9D1D9"/>
<path d="M22.8945 224.148H21L20.1113 221.365H14.7988L13.9004 224.148H12.0938L16.332 211.385H18.7148L22.8945 224.148ZM19.6133 219.812L17.4551 212.986L15.2969 219.812H19.6133ZM33.1484 212.869H29.3691V224.148H27.6113V212.869H23.832V211.385H33.1484V212.869ZM10.7168 246.67C9.69466 247.093 8.6237 247.305 7.50391 247.305C5.70052 247.305 4.3138 246.768 3.34375 245.693C2.38021 244.613 1.89844 243.018 1.89844 240.908C1.89844 239.886 2.0319 238.962 2.29883 238.135C2.56576 237.308 2.94661 236.608 3.44141 236.035C3.9362 235.456 4.53516 235.01 5.23828 234.697C5.94141 234.385 6.72917 234.229 7.60156 234.229C8.19401 234.229 8.74414 234.281 9.25195 234.385C9.75977 234.482 10.248 234.635 10.7168 234.844V236.553C10.2546 236.299 9.77604 236.107 9.28125 235.977C8.78646 235.84 8.24609 235.771 7.66016 235.771C7.0612 235.771 6.51758 235.885 6.0293 236.113C5.54753 236.335 5.13737 236.66 4.79883 237.09C4.46029 237.513 4.19987 238.034 4.01758 238.652C3.83529 239.264 3.74414 239.964 3.74414 240.752C3.74414 242.406 4.07943 243.652 4.75 244.492C5.42057 245.332 6.40365 245.752 7.69922 245.752C8.24609 245.752 8.77018 245.69 9.27148 245.566C9.77279 245.436 10.2546 245.257 10.7168 245.029V246.67ZM21.7129 246.67C20.6908 247.093 19.6198 247.305 18.5 247.305C16.6966 247.305 15.3099 246.768 14.3398 245.693C13.3763 244.613 12.8945 243.018 12.8945 240.908C12.8945 239.886 13.028 238.962 13.2949 238.135C13.5618 237.308 13.9427 236.608 14.4375 236.035C14.9323 235.456 15.5312 235.01 16.2344 234.697C16.9375 234.385 17.7253 234.229 18.5977 234.229C19.1901 234.229 19.7402 234.281 20.248 234.385C20.7559 234.482 21.2441 234.635 21.7129 234.844V236.553C21.2507 236.299 20.7721 236.107 20.2773 235.977C19.7826 235.84 19.2422 235.771 18.6562 235.771C18.0573 235.771 17.5137 235.885 17.0254 236.113C16.5436 236.335 16.1335 236.66 15.7949 237.09C15.4564 237.513 15.196 238.034 15.0137 238.652C14.8314 239.264 14.7402 239.964 14.7402 240.752C14.7402 242.406 15.0755 243.652 15.7461 244.492C16.4167 245.332 17.3997 245.752 18.6953 245.752C19.2422 245.752 19.7663 245.69 20.2676 245.566C20.7689 245.436 21.2507 245.257 21.7129 245.029V246.67Z" fill="#C4C4C4"/>
<path d="M103.707 229.856C104.098 229.465 104.098 228.832 103.707 228.441L97.3431 222.077C96.9526 221.687 96.3195 221.687 95.9289 222.077C95.5384 222.468 95.5384 223.101 95.9289 223.492L101.586 229.148L95.9289 234.805C95.5384 235.196 95.5384 235.829 95.9289 236.22C96.3195 236.61 96.9526 236.61 97.3431 236.22L103.707 229.856ZM61 230.148H103V228.148H61V230.148Z" fill="#C9D1D9"/>
<path d="M183.719 209H182.203L181.492 206.773H177.242L176.523 209H175.078L178.469 198.789H180.375L183.719 209ZM181.094 205.531L179.367 200.07L177.641 205.531H181.094ZM201.312 228H199.797L199.086 225.773H194.836L194.117 228H192.672L196.062 217.789H197.969L201.312 228ZM198.688 224.531L196.961 219.07L195.234 224.531H198.688Z" fill="#C9D1D9"/>
<path d="M192.516 209H191L190.289 206.773H186.039L185.32 209H183.875L187.266 198.789H189.172L192.516 209ZM189.891 205.531L188.164 200.07L186.438 205.531H189.891ZM200.719 199.977H197.695V209H196.289V199.977H193.266V198.789H200.719V199.977ZM182.773 227.617C181.956 227.956 181.099 228.125 180.203 228.125C178.76 228.125 177.651 227.695 176.875 226.836C176.104 225.971 175.719 224.695 175.719 223.008C175.719 222.19 175.826 221.451 176.039 220.789C176.253 220.128 176.557 219.568 176.953 219.109C177.349 218.646 177.828 218.289 178.391 218.039C178.953 217.789 179.583 217.664 180.281 217.664C180.755 217.664 181.195 217.706 181.602 217.789C182.008 217.867 182.398 217.99 182.773 218.156V219.523C182.404 219.32 182.021 219.167 181.625 219.062C181.229 218.953 180.797 218.898 180.328 218.898C179.849 218.898 179.414 218.99 179.023 219.172C178.638 219.349 178.31 219.609 178.039 219.953C177.768 220.292 177.56 220.708 177.414 221.203C177.268 221.693 177.195 222.253 177.195 222.883C177.195 224.206 177.464 225.203 178 225.875C178.536 226.547 179.323 226.883 180.359 226.883C180.797 226.883 181.216 226.833 181.617 226.734C182.018 226.63 182.404 226.487 182.773 226.305V227.617ZM191.57 227.617C190.753 227.956 189.896 228.125 189 228.125C187.557 228.125 186.448 227.695 185.672 226.836C184.901 225.971 184.516 224.695 184.516 223.008C184.516 222.19 184.622 221.451 184.836 220.789C185.049 220.128 185.354 219.568 185.75 219.109C186.146 218.646 186.625 218.289 187.188 218.039C187.75 217.789 188.38 217.664 189.078 217.664C189.552 217.664 189.992 217.706 190.398 217.789C190.805 217.867 191.195 217.99 191.57 218.156V219.523C191.201 219.32 190.818 219.167 190.422 219.062C190.026 218.953 189.594 218.898 189.125 218.898C188.646 218.898 188.211 218.99 187.82 219.172C187.435 219.349 187.107 219.609 186.836 219.953C186.565 220.292 186.357 220.708 186.211 221.203C186.065 221.693 185.992 222.253 185.992 222.883C185.992 224.206 186.26 225.203 186.797 225.875C187.333 226.547 188.12 226.883 189.156 226.883C189.594 226.883 190.013 226.833 190.414 226.734C190.815 226.63 191.201 226.487 191.57 226.305V227.617Z" fill="#C4C4C4"/>
<path d="M152.196 232.961H150.681L149.97 230.735H145.72L145.001 232.961H143.556L146.946 222.75H148.852L152.196 232.961ZM149.571 229.493L147.845 224.032L146.118 229.493H149.571Z" fill="#C9D1D9"/>
<path d="M160.993 232.961H159.477L158.766 230.735H154.516L153.798 232.961H152.352L155.743 222.75H157.649L160.993 232.961ZM158.368 229.493L156.641 224.032L154.915 229.493H158.368ZM151.251 251.579C150.433 251.917 149.576 252.086 148.681 252.086C147.238 252.086 146.128 251.657 145.352 250.797C144.582 249.933 144.196 248.657 144.196 246.969C144.196 246.152 144.303 245.412 144.516 244.75C144.73 244.089 145.035 243.529 145.431 243.071C145.826 242.607 146.306 242.25 146.868 242C147.431 241.75 148.061 241.625 148.759 241.625C149.233 241.625 149.673 241.667 150.079 241.75C150.485 241.829 150.876 241.951 151.251 242.118V243.485C150.881 243.282 150.498 243.128 150.102 243.024C149.707 242.915 149.274 242.86 148.806 242.86C148.326 242.86 147.891 242.951 147.501 243.133C147.115 243.31 146.787 243.571 146.516 243.915C146.246 244.253 146.037 244.67 145.891 245.165C145.746 245.654 145.673 246.214 145.673 246.844C145.673 248.167 145.941 249.165 146.477 249.836C147.014 250.508 147.8 250.844 148.837 250.844C149.274 250.844 149.694 250.795 150.095 250.696C150.496 250.592 150.881 250.448 151.251 250.266V251.579ZM160.048 251.579C159.23 251.917 158.373 252.086 157.477 252.086C156.035 252.086 154.925 251.657 154.149 250.797C153.378 249.933 152.993 248.657 152.993 246.969C152.993 246.152 153.1 245.412 153.313 244.75C153.527 244.089 153.832 243.529 154.227 243.071C154.623 242.607 155.102 242.25 155.665 242C156.227 241.75 156.858 241.625 157.556 241.625C158.03 241.625 158.47 241.667 158.876 241.75C159.282 241.829 159.673 241.951 160.048 242.118V243.485C159.678 243.282 159.295 243.128 158.899 243.024C158.503 242.915 158.071 242.86 157.602 242.86C157.123 242.86 156.688 242.951 156.298 243.133C155.912 243.31 155.584 243.571 155.313 243.915C155.043 244.253 154.834 244.67 154.688 245.165C154.543 245.654 154.47 246.214 154.47 246.844C154.47 248.167 154.738 249.165 155.274 249.836C155.811 250.508 156.597 250.844 157.634 250.844C158.071 250.844 158.49 250.795 158.891 250.696C159.293 250.592 159.678 250.448 160.048 250.266V251.579Z" fill="#C4C4C4"/>
<circle cx="152.845" cy="237.845" r="22.8452" stroke="#FF7F50" stroke-width="2"/>
<path d="M226.196 233.813H224.681L223.97 231.586H219.72L219.001 233.813H217.556L220.946 223.602H222.852L226.196 233.813ZM223.571 230.344L221.845 224.883L220.118 230.344H223.571ZM234.399 224.79H231.376V233.813H229.97V224.79H226.946V223.602H234.399V224.79ZM225.251 252.43C224.433 252.769 223.576 252.938 222.681 252.938C221.238 252.938 220.128 252.508 219.352 251.649C218.582 250.784 218.196 249.508 218.196 247.821C218.196 247.003 218.303 246.264 218.516 245.602C218.73 244.941 219.035 244.381 219.431 243.922C219.826 243.459 220.306 243.102 220.868 242.852C221.431 242.602 222.061 242.477 222.759 242.477C223.233 242.477 223.673 242.519 224.079 242.602C224.485 242.68 224.876 242.803 225.251 242.969V244.336C224.881 244.133 224.498 243.98 224.102 243.875C223.707 243.766 223.274 243.711 222.806 243.711C222.326 243.711 221.891 243.803 221.501 243.985C221.115 244.162 220.787 244.422 220.516 244.766C220.246 245.105 220.037 245.521 219.891 246.016C219.746 246.506 219.673 247.066 219.673 247.696C219.673 249.019 219.941 250.016 220.477 250.688C221.014 251.36 221.8 251.696 222.837 251.696C223.274 251.696 223.694 251.646 224.095 251.547C224.496 251.443 224.881 251.3 225.251 251.118V252.43Z" fill="#C4C4C4"/>
<path d="M234.993 252.813H233.477L232.766 250.586H228.516L227.798 252.813H226.352L229.743 242.602H231.649L234.993 252.813ZM232.368 249.344L230.641 243.883L228.915 249.344H232.368Z" fill="#C9D1D9"/>
<circle cx="226.845" cy="237.845" r="22.8452" stroke="#FF7F50" stroke-width="2"/>
<path d="M203.707 238.707C204.098 238.317 204.098 237.683 203.707 237.293L197.343 230.929C196.953 230.538 196.319 230.538 195.929 230.929C195.538 231.319 195.538 231.953 195.929 232.343L201.586 238L195.929 243.657C195.538 244.047 195.538 244.681 195.929 245.071C196.319 245.462 196.953 245.462 197.343 245.071L203.707 238.707ZM176 239H203V237H176V239Z" fill="#C4A8A8"/>
<path d="M83.7188 332H82.2031L81.4922 329.773H77.2422L76.5234 332H75.0781L78.4688 321.789H80.375L83.7188 332ZM81.0938 328.531L79.3672 323.07L77.6406 328.531H81.0938ZM92.5156 332H91L90.2891 329.773H86.0391L85.3203 332H83.875L87.2656 321.789H89.1719L92.5156 332ZM89.8906 328.531L88.1641 323.07L86.4375 328.531H89.8906ZM100.719 322.977H97.6953V332H96.2891V322.977H93.2656V321.789H100.719V322.977ZM82.7734 350.617C81.9557 350.956 81.099 351.125 80.2031 351.125C78.7604 351.125 77.651 350.695 76.875 349.836C76.1042 348.971 75.7188 347.695 75.7188 346.008C75.7188 345.19 75.8255 344.451 76.0391 343.789C76.2526 343.128 76.5573 342.568 76.9531 342.109C77.349 341.646 77.8281 341.289 78.3906 341.039C78.9531 340.789 79.5833 340.664 80.2812 340.664C80.7552 340.664 81.1953 340.706 81.6016 340.789C82.0078 340.867 82.3984 340.99 82.7734 341.156V342.523C82.4036 342.32 82.0208 342.167 81.625 342.062C81.2292 341.953 80.7969 341.898 80.3281 341.898C79.849 341.898 79.4141 341.99 79.0234 342.172C78.638 342.349 78.3099 342.609 78.0391 342.953C77.7682 343.292 77.5599 343.708 77.4141 344.203C77.2682 344.693 77.1953 345.253 77.1953 345.883C77.1953 347.206 77.4635 348.203 78 348.875C78.5365 349.547 79.3229 349.883 80.3594 349.883C80.7969 349.883 81.2161 349.833 81.6172 349.734C82.0182 349.63 82.4036 349.487 82.7734 349.305V350.617ZM91.5703 350.617C90.7526 350.956 89.8958 351.125 89 351.125C87.5573 351.125 86.4479 350.695 85.6719 349.836C84.901 348.971 84.5156 347.695 84.5156 346.008C84.5156 345.19 84.6224 344.451 84.8359 343.789C85.0495 343.128 85.3542 342.568 85.75 342.109C86.1458 341.646 86.625 341.289 87.1875 341.039C87.75 340.789 88.3802 340.664 89.0781 340.664C89.5521 340.664 89.9922 340.706 90.3984 340.789C90.8047 340.867 91.1953 340.99 91.5703 341.156V342.523C91.2005 342.32 90.8177 342.167 90.4219 342.062C90.026 341.953 89.5938 341.898 89.125 341.898C88.6458 341.898 88.2109 341.99 87.8203 342.172C87.4349 342.349 87.1068 342.609 86.8359 342.953C86.5651 343.292 86.3568 343.708 86.2109 344.203C86.0651 344.693 85.9922 345.253 85.9922 345.883C85.9922 347.206 86.2604 348.203 86.7969 348.875C87.3333 349.547 88.1198 349.883 89.1562 349.883C89.5938 349.883 90.013 349.833 90.4141 349.734C90.8151 349.63 91.2005 349.487 91.5703 349.305V350.617ZM101.312 351H99.7969L99.0859 348.773H94.8359L94.1172 351H92.6719L96.0625 340.789H97.9688L101.312 351ZM98.6875 347.531L96.9609 342.07L95.2344 347.531H98.6875Z" fill="#C9D1D9"/>
<path d="M52.1962 355.961H50.6805L49.9696 353.735H45.7196L45.0009 355.961H43.5555L46.9462 345.75H48.8524L52.1962 355.961ZM49.5712 352.493L47.8446 347.032L46.118 352.493H49.5712ZM60.993 355.961H59.4774L58.7665 353.735H54.5165L53.7977 355.961H52.3524L55.743 345.75H57.6493L60.993 355.961ZM58.368 352.493L56.6415 347.032L54.9149 352.493H58.368ZM51.2509 374.579C50.4331 374.917 49.5764 375.086 48.6805 375.086C47.2378 375.086 46.1285 374.657 45.3524 373.797C44.5816 372.933 44.1962 371.657 44.1962 369.969C44.1962 369.152 44.3029 368.412 44.5165 367.75C44.73 367.089 45.0347 366.529 45.4305 366.071C45.8264 365.607 46.3055 365.25 46.868 365C47.4305 364.75 48.0608 364.625 48.7587 364.625C49.2326 364.625 49.6727 364.667 50.079 364.75C50.4852 364.829 50.8759 364.951 51.2509 365.118V366.485C50.8811 366.282 50.4983 366.128 50.1024 366.024C49.7066 365.915 49.2743 365.86 48.8055 365.86C48.3264 365.86 47.8915 365.951 47.5009 366.133C47.1154 366.31 46.7873 366.571 46.5165 366.915C46.2456 367.253 46.0373 367.67 45.8915 368.165C45.7456 368.654 45.6727 369.214 45.6727 369.844C45.6727 371.167 45.941 372.165 46.4774 372.836C47.0139 373.508 47.8003 373.844 48.8368 373.844C49.2743 373.844 49.6936 373.795 50.0946 373.696C50.4956 373.592 50.8811 373.448 51.2509 373.266V374.579ZM60.0477 374.579C59.23 374.917 58.3733 375.086 57.4774 375.086C56.0347 375.086 54.9253 374.657 54.1493 373.797C53.3785 372.933 52.993 371.657 52.993 369.969C52.993 369.152 53.0998 368.412 53.3134 367.75C53.5269 367.089 53.8316 366.529 54.2274 366.071C54.6233 365.607 55.1024 365.25 55.6649 365C56.2274 364.75 56.8576 364.625 57.5555 364.625C58.0295 364.625 58.4696 364.667 58.8759 364.75C59.2821 364.829 59.6727 364.951 60.0477 365.118V366.485C59.6779 366.282 59.2951 366.128 58.8993 366.024C58.5035 365.915 58.0712 365.86 57.6024 365.86C57.1233 365.86 56.6884 365.951 56.2977 366.133C55.9123 366.31 55.5842 366.571 55.3134 366.915C55.0425 367.253 54.8342 367.67 54.6884 368.165C54.5425 368.654 54.4696 369.214 54.4696 369.844C54.4696 371.167 54.7378 372.165 55.2743 372.836C55.8108 373.508 56.5972 373.844 57.6337 373.844C58.0712 373.844 58.4904 373.795 58.8915 373.696C59.2925 373.592 59.6779 373.448 60.0477 373.266V374.579Z" fill="#C9D1D9"/>
<circle cx="52.8452" cy="360.845" r="22.8452" stroke="#FF7F50" stroke-width="2"/>
<path d="M126.196 356.813H124.681L123.97 354.586H119.72L119.001 356.813H117.556L120.946 346.602H122.852L126.196 356.813ZM123.571 353.344L121.845 347.883L120.118 353.344H123.571ZM134.399 347.79H131.376V356.813H129.97V347.79H126.946V346.602H134.399V347.79ZM125.251 375.43C124.433 375.769 123.576 375.938 122.681 375.938C121.238 375.938 120.128 375.508 119.352 374.649C118.582 373.784 118.196 372.508 118.196 370.821C118.196 370.003 118.303 369.264 118.516 368.602C118.73 367.941 119.035 367.381 119.431 366.922C119.826 366.459 120.306 366.102 120.868 365.852C121.431 365.602 122.061 365.477 122.759 365.477C123.233 365.477 123.673 365.519 124.079 365.602C124.485 365.68 124.876 365.803 125.251 365.969V367.336C124.881 367.133 124.498 366.98 124.102 366.875C123.707 366.766 123.274 366.711 122.806 366.711C122.326 366.711 121.891 366.803 121.501 366.985C121.115 367.162 120.787 367.422 120.516 367.766C120.246 368.105 120.037 368.521 119.891 369.016C119.746 369.506 119.673 370.066 119.673 370.696C119.673 372.019 119.941 373.016 120.477 373.688C121.014 374.36 121.8 374.696 122.837 374.696C123.274 374.696 123.694 374.646 124.095 374.547C124.496 374.443 124.881 374.3 125.251 374.118V375.43ZM134.993 375.813H133.477L132.766 373.586H128.516L127.798 375.813H126.352L129.743 365.602H131.649L134.993 375.813ZM132.368 372.344L130.641 366.883L128.915 372.344H132.368Z" fill="#C9D1D9"/>
<circle cx="126.845" cy="360.845" r="22.8452" stroke="#FF7F50" stroke-width="2"/>
<path d="M103.707 361.707C104.098 361.317 104.098 360.683 103.707 360.293L97.3431 353.929C96.9526 353.538 96.3195 353.538 95.9289 353.929C95.5384 354.319 95.5384 354.953 95.9289 355.343L101.586 361L95.9289 366.657C95.5384 367.047 95.5384 367.681 95.9289 368.071C96.3195 368.462 96.9526 368.462 97.3431 368.071L103.707 361.707ZM76 362H103V360H76V362Z" fill="#C4A8A8"/>
<path d="M8.85938 294.539C8.47917 294.336 8.08854 294.18 7.6875 294.07C7.28646 293.956 6.84896 293.898 6.375 293.898C5.83333 293.898 5.35156 293.995 4.92969 294.188C4.50781 294.38 4.15104 294.654 3.85938 295.008C3.57292 295.357 3.35156 295.779 3.19531 296.273C3.04427 296.768 2.96875 297.315 2.96875 297.914C2.96875 298.539 3.03125 299.099 3.15625 299.594C3.28125 300.089 3.47656 300.508 3.74219 300.852C4.00781 301.195 4.34635 301.458 4.75781 301.641C5.17448 301.823 5.67188 301.914 6.25 301.914C6.34896 301.914 6.45573 301.909 6.57031 301.898C6.6849 301.888 6.79948 301.875 6.91406 301.859C7.02865 301.839 7.13802 301.815 7.24219 301.789C7.35156 301.763 7.44792 301.734 7.53125 301.703V298.453H5.44531V297.305H8.90625V302.523C8.69271 302.622 8.46615 302.711 8.22656 302.789C7.99219 302.867 7.75 302.932 7.5 302.984C7.25521 303.036 7.01042 303.076 6.76562 303.102C6.52083 303.128 6.28385 303.141 6.05469 303.141C5.35677 303.141 4.72656 303.031 4.16406 302.812C3.60677 302.594 3.13021 302.271 2.73438 301.844C2.34375 301.411 2.04167 300.875 1.82812 300.234C1.61979 299.594 1.51562 298.852 1.51562 298.008C1.51562 297.169 1.63281 296.419 1.86719 295.758C2.10156 295.091 2.42969 294.529 2.85156 294.07C3.27865 293.607 3.78906 293.255 4.38281 293.016C4.98177 292.771 5.64062 292.648 6.35938 292.648C6.81771 292.648 7.2526 292.69 7.66406 292.773C8.08073 292.852 8.47917 292.979 8.85938 293.156V294.539ZM18.0078 303H16.4375L14.9141 299.734C14.7995 299.484 14.6823 299.279 14.5625 299.117C14.4427 298.951 14.3125 298.82 14.1719 298.727C14.0365 298.628 13.8854 298.557 13.7188 298.516C13.5573 298.474 13.375 298.453 13.1719 298.453H12.5156V303H11.125V292.789H13.8594C14.4531 292.789 14.9635 292.854 15.3906 292.984C15.8177 293.115 16.1667 293.297 16.4375 293.531C16.7135 293.766 16.9141 294.049 17.0391 294.383C17.1693 294.711 17.2344 295.076 17.2344 295.477C17.2344 295.794 17.1875 296.096 17.0938 296.383C17 296.664 16.8594 296.922 16.6719 297.156C16.4896 297.385 16.2604 297.586 15.9844 297.758C15.7135 297.924 15.401 298.049 15.0469 298.133C15.3333 298.232 15.5755 298.406 15.7734 298.656C15.9766 298.901 16.1823 299.229 16.3906 299.641L18.0078 303ZM15.7812 295.594C15.7812 295.047 15.6094 294.638 15.2656 294.367C14.9271 294.096 14.4479 293.961 13.8281 293.961H12.5156V297.336H13.6406C13.9688 297.336 14.263 297.299 14.5234 297.227C14.7891 297.148 15.013 297.036 15.1953 296.891C15.3828 296.74 15.526 296.557 15.625 296.344C15.7292 296.125 15.7812 295.875 15.7812 295.594ZM27.3125 303H25.7969L25.0859 300.773H20.8359L20.1172 303H18.6719L22.0625 292.789H23.9688L27.3125 303ZM24.6875 299.531L22.9609 294.07L21.2344 299.531H24.6875ZM34.75 293.977H30.4141V297.289H34.5234V298.453H30.4141V303H28.9922V292.789H34.75V293.977ZM40.5859 295.016C40.7474 295.016 40.901 295.049 41.0469 295.117C41.1927 295.18 41.3203 295.266 41.4297 295.375C41.5391 295.484 41.625 295.612 41.6875 295.758C41.7552 295.904 41.7891 296.057 41.7891 296.219C41.7891 296.385 41.7552 296.542 41.6875 296.688C41.625 296.828 41.5391 296.953 41.4297 297.062C41.3203 297.172 41.1927 297.258 41.0469 297.32C40.901 297.383 40.7474 297.414 40.5859 297.414C40.4193 297.414 40.263 297.383 40.1172 297.32C39.9766 297.258 39.8516 297.172 39.7422 297.062C39.6328 296.953 39.5469 296.828 39.4844 296.688C39.4219 296.542 39.3906 296.385 39.3906 296.219C39.3906 296.057 39.4219 295.904 39.4844 295.758C39.5469 295.612 39.6328 295.484 39.7422 295.375C39.8516 295.266 39.9766 295.18 40.1172 295.117C40.263 295.049 40.4193 295.016 40.5859 295.016ZM40.5859 300.742C40.7474 300.742 40.901 300.776 41.0469 300.844C41.1927 300.906 41.3203 300.992 41.4297 301.102C41.5391 301.211 41.625 301.339 41.6875 301.484C41.7552 301.63 41.7891 301.784 41.7891 301.945C41.7891 302.112 41.7552 302.268 41.6875 302.414C41.625 302.555 41.5391 302.68 41.4297 302.789C41.3203 302.898 41.1927 302.984 41.0469 303.047C40.901 303.109 40.7474 303.141 40.5859 303.141C40.4193 303.141 40.263 303.109 40.1172 303.047C39.9766 302.984 39.8516 302.898 39.7422 302.789C39.6328 302.68 39.5469 302.555 39.4844 302.414C39.4219 302.268 39.3906 302.112 39.3906 301.945C39.3906 301.784 39.4219 301.63 39.4844 301.484C39.5469 301.339 39.6328 301.211 39.7422 301.102C39.8516 300.992 39.9766 300.906 40.1172 300.844C40.263 300.776 40.4193 300.742 40.5859 300.742Z" fill="#C9D1D9"/>
<path d="M180.602 347.79H177.579V356.813H176.173V347.79H173.149V346.602H180.602V347.79ZM189.134 348.352C188.753 348.149 188.363 347.993 187.962 347.883C187.561 347.769 187.123 347.711 186.649 347.711C186.108 347.711 185.626 347.808 185.204 348C184.782 348.193 184.425 348.467 184.134 348.821C183.847 349.17 183.626 349.592 183.47 350.086C183.319 350.581 183.243 351.128 183.243 351.727C183.243 352.352 183.306 352.912 183.431 353.407C183.556 353.902 183.751 354.321 184.016 354.665C184.282 355.008 184.621 355.271 185.032 355.454C185.449 355.636 185.946 355.727 186.524 355.727C186.623 355.727 186.73 355.722 186.845 355.711C186.959 355.701 187.074 355.688 187.188 355.672C187.303 355.652 187.412 355.628 187.516 355.602C187.626 355.576 187.722 355.547 187.806 355.516V352.266H185.72V351.118H189.181V356.336C188.967 356.435 188.74 356.524 188.501 356.602C188.266 356.68 188.024 356.745 187.774 356.797C187.53 356.849 187.285 356.889 187.04 356.915C186.795 356.941 186.558 356.954 186.329 356.954C185.631 356.954 185.001 356.844 184.438 356.625C183.881 356.407 183.405 356.084 183.009 355.657C182.618 355.224 182.316 354.688 182.102 354.047C181.894 353.407 181.79 352.665 181.79 351.821C181.79 350.982 181.907 350.232 182.141 349.571C182.376 348.904 182.704 348.342 183.126 347.883C183.553 347.42 184.063 347.068 184.657 346.829C185.256 346.584 185.915 346.461 186.634 346.461C187.092 346.461 187.527 346.503 187.938 346.586C188.355 346.665 188.753 346.792 189.134 346.969V348.352ZM181.196 375.813H179.681L178.97 373.586H174.72L174.001 375.813H172.556L175.946 365.602H177.852L181.196 375.813ZM178.571 372.344L176.845 366.883L175.118 372.344H178.571ZM189.399 366.79H186.376V375.813H184.97V366.79H181.946V365.602H189.399V366.79Z" fill="#C9D1D9"/>
<circle cx="181.845" cy="360.845" r="22.8452" stroke="#C4A8A8" stroke-opacity="0.25" stroke-width="2"/>
<path d="M236.196 354.961H234.681L233.97 352.735H229.72L229.001 354.961H227.556L230.946 344.75H232.852L236.196 354.961ZM233.571 351.493L231.845 346.032L230.118 351.493H233.571ZM244.399 345.938H241.376V354.961H239.97V345.938H236.946V344.75H244.399V345.938ZM235.337 365.5C234.957 365.297 234.566 365.141 234.165 365.032C233.764 364.917 233.326 364.86 232.852 364.86C232.311 364.86 231.829 364.956 231.407 365.149C230.985 365.342 230.628 365.615 230.337 365.969C230.05 366.318 229.829 366.74 229.673 367.235C229.522 367.73 229.446 368.277 229.446 368.875C229.446 369.5 229.509 370.06 229.634 370.555C229.759 371.05 229.954 371.469 230.22 371.813C230.485 372.157 230.824 372.42 231.235 372.602C231.652 372.784 232.149 372.875 232.727 372.875C232.826 372.875 232.933 372.87 233.048 372.86C233.162 372.849 233.277 372.836 233.391 372.821C233.506 372.8 233.615 372.777 233.72 372.75C233.829 372.724 233.925 372.696 234.009 372.665V369.415H231.923V368.266H235.384V373.485C235.17 373.584 234.944 373.672 234.704 373.75C234.47 373.829 234.227 373.894 233.977 373.946C233.733 373.998 233.488 374.037 233.243 374.063C232.998 374.089 232.761 374.102 232.532 374.102C231.834 374.102 231.204 373.993 230.641 373.774C230.084 373.555 229.608 373.232 229.212 372.805C228.821 372.373 228.519 371.836 228.306 371.196C228.097 370.555 227.993 369.813 227.993 368.969C227.993 368.131 228.11 367.381 228.345 366.719C228.579 366.053 228.907 365.49 229.329 365.032C229.756 364.568 230.266 364.217 230.86 363.977C231.459 363.732 232.118 363.61 232.837 363.61C233.295 363.61 233.73 363.652 234.141 363.735C234.558 363.813 234.957 363.941 235.337 364.118V365.5ZM244.993 373.961H243.477L242.766 371.735H238.516L237.798 373.961H236.352L239.743 363.75H241.649L244.993 373.961ZM242.368 370.493L240.641 365.032L238.915 370.493H242.368Z" fill="#C9D1D9"/>
<circle cx="236.845" cy="359.845" r="22.8452" stroke="#C4A8A8" stroke-opacity="0.25" stroke-width="2"/>
<path d="M290.251 354.579C289.433 354.917 288.576 355.086 287.681 355.086C286.238 355.086 285.128 354.657 284.352 353.797C283.582 352.933 283.196 351.657 283.196 349.969C283.196 349.152 283.303 348.412 283.516 347.75C283.73 347.089 284.035 346.529 284.431 346.071C284.826 345.607 285.306 345.25 285.868 345C286.431 344.75 287.061 344.625 287.759 344.625C288.233 344.625 288.673 344.667 289.079 344.75C289.485 344.829 289.876 344.951 290.251 345.118V346.485C289.881 346.282 289.498 346.128 289.102 346.024C288.707 345.915 288.274 345.86 287.806 345.86C287.326 345.86 286.891 345.951 286.501 346.133C286.115 346.31 285.787 346.571 285.516 346.915C285.246 347.253 285.037 347.67 284.891 348.165C284.746 348.654 284.673 349.214 284.673 349.844C284.673 351.167 284.941 352.165 285.477 352.836C286.014 353.508 286.8 353.844 287.837 353.844C288.274 353.844 288.694 353.795 289.095 353.696C289.496 353.592 289.881 353.448 290.251 353.266V354.579ZM299.993 354.961H298.477L297.766 352.735H293.516L292.798 354.961H291.352L294.743 344.75H296.649L299.993 354.961ZM297.368 351.493L295.641 346.032L293.915 351.493H297.368ZM290.337 365.5C289.957 365.297 289.566 365.141 289.165 365.032C288.764 364.917 288.326 364.86 287.852 364.86C287.311 364.86 286.829 364.956 286.407 365.149C285.985 365.342 285.628 365.615 285.337 365.969C285.05 366.318 284.829 366.74 284.673 367.235C284.522 367.73 284.446 368.277 284.446 368.875C284.446 369.5 284.509 370.06 284.634 370.555C284.759 371.05 284.954 371.469 285.22 371.813C285.485 372.157 285.824 372.42 286.235 372.602C286.652 372.784 287.149 372.875 287.727 372.875C287.826 372.875 287.933 372.87 288.048 372.86C288.162 372.849 288.277 372.836 288.391 372.821C288.506 372.8 288.615 372.777 288.72 372.75C288.829 372.724 288.925 372.696 289.009 372.665V369.415H286.923V368.266H290.384V373.485C290.17 373.584 289.944 373.672 289.704 373.75C289.47 373.829 289.227 373.894 288.977 373.946C288.733 373.998 288.488 374.037 288.243 374.063C287.998 374.089 287.761 374.102 287.532 374.102C286.834 374.102 286.204 373.993 285.641 373.774C285.084 373.555 284.608 373.232 284.212 372.805C283.821 372.373 283.519 371.836 283.306 371.196C283.097 370.555 282.993 369.813 282.993 368.969C282.993 368.131 283.11 367.381 283.345 366.719C283.579 366.053 283.907 365.49 284.329 365.032C284.756 364.568 285.266 364.217 285.86 363.977C286.459 363.732 287.118 363.61 287.837 363.61C288.295 363.61 288.73 363.652 289.141 363.735C289.558 363.813 289.957 363.941 290.337 364.118V365.5ZM299.134 365.5C298.753 365.297 298.363 365.141 297.962 365.032C297.561 364.917 297.123 364.86 296.649 364.86C296.108 364.86 295.626 364.956 295.204 365.149C294.782 365.342 294.425 365.615 294.134 365.969C293.847 366.318 293.626 366.74 293.47 367.235C293.319 367.73 293.243 368.277 293.243 368.875C293.243 369.5 293.306 370.06 293.431 370.555C293.556 371.05 293.751 371.469 294.016 371.813C294.282 372.157 294.621 372.42 295.032 372.602C295.449 372.784 295.946 372.875 296.524 372.875C296.623 372.875 296.73 372.87 296.845 372.86C296.959 372.849 297.074 372.836 297.188 372.821C297.303 372.8 297.412 372.777 297.516 372.75C297.626 372.724 297.722 372.696 297.806 372.665V369.415H295.72V368.266H299.181V373.485C298.967 373.584 298.74 373.672 298.501 373.75C298.266 373.829 298.024 373.894 297.774 373.946C297.53 373.998 297.285 374.037 297.04 374.063C296.795 374.089 296.558 374.102 296.329 374.102C295.631 374.102 295.001 373.993 294.438 373.774C293.881 373.555 293.405 373.232 293.009 372.805C292.618 372.373 292.316 371.836 292.102 371.196C291.894 370.555 291.79 369.813 291.79 368.969C291.79 368.131 291.907 367.381 292.141 366.719C292.376 366.053 292.704 365.49 293.126 365.032C293.553 364.568 294.063 364.217 294.657 363.977C295.256 363.732 295.915 363.61 296.634 363.61C297.092 363.61 297.527 363.652 297.938 363.735C298.355 363.813 298.753 363.941 299.134 364.118V365.5Z" fill="#C9D1D9"/>
<circle cx="291.845" cy="359.845" r="22.8452" stroke="#C4A8A8" stroke-opacity="0.25" stroke-width="2"/>
<path d="M345.251 353.579C344.433 353.917 343.576 354.086 342.681 354.086C341.238 354.086 340.128 353.657 339.352 352.797C338.582 351.933 338.196 350.657 338.196 348.969C338.196 348.152 338.303 347.412 338.516 346.75C338.73 346.089 339.035 345.529 339.431 345.071C339.826 344.607 340.306 344.25 340.868 344C341.431 343.75 342.061 343.625 342.759 343.625C343.233 343.625 343.673 343.667 344.079 343.75C344.485 343.829 344.876 343.951 345.251 344.118V345.485C344.881 345.282 344.498 345.128 344.102 345.024C343.707 344.915 343.274 344.86 342.806 344.86C342.326 344.86 341.891 344.951 341.501 345.133C341.115 345.31 340.787 345.571 340.516 345.915C340.246 346.253 340.037 346.67 339.891 347.165C339.746 347.654 339.673 348.214 339.673 348.844C339.673 350.167 339.941 351.165 340.477 351.836C341.014 352.508 341.8 352.844 342.837 352.844C343.274 352.844 343.694 352.795 344.095 352.696C344.496 352.592 344.881 352.448 345.251 352.266V353.579ZM354.048 353.579C353.23 353.917 352.373 354.086 351.477 354.086C350.035 354.086 348.925 353.657 348.149 352.797C347.378 351.933 346.993 350.657 346.993 348.969C346.993 348.152 347.1 347.412 347.313 346.75C347.527 346.089 347.832 345.529 348.227 345.071C348.623 344.607 349.102 344.25 349.665 344C350.227 343.75 350.858 343.625 351.556 343.625C352.03 343.625 352.47 343.667 352.876 343.75C353.282 343.829 353.673 343.951 354.048 344.118V345.485C353.678 345.282 353.295 345.128 352.899 345.024C352.503 344.915 352.071 344.86 351.602 344.86C351.123 344.86 350.688 344.951 350.298 345.133C349.912 345.31 349.584 345.571 349.313 345.915C349.043 346.253 348.834 346.67 348.688 347.165C348.543 347.654 348.47 348.214 348.47 348.844C348.47 350.167 348.738 351.165 349.274 351.836C349.811 352.508 350.597 352.844 351.634 352.844C352.071 352.844 352.49 352.795 352.891 352.696C353.293 352.592 353.678 352.448 354.048 352.266V353.579ZM345.337 364.5C344.957 364.297 344.566 364.141 344.165 364.032C343.764 363.917 343.326 363.86 342.852 363.86C342.311 363.86 341.829 363.956 341.407 364.149C340.985 364.342 340.628 364.615 340.337 364.969C340.05 365.318 339.829 365.74 339.673 366.235C339.522 366.73 339.446 367.277 339.446 367.875C339.446 368.5 339.509 369.06 339.634 369.555C339.759 370.05 339.954 370.469 340.22 370.813C340.485 371.157 340.824 371.42 341.235 371.602C341.652 371.784 342.149 371.875 342.727 371.875C342.826 371.875 342.933 371.87 343.048 371.86C343.162 371.849 343.277 371.836 343.391 371.821C343.506 371.8 343.615 371.777 343.72 371.75C343.829 371.724 343.925 371.696 344.009 371.665V368.415H341.923V367.266H345.384V372.485C345.17 372.584 344.944 372.672 344.704 372.75C344.47 372.829 344.227 372.894 343.977 372.946C343.733 372.998 343.488 373.037 343.243 373.063C342.998 373.089 342.761 373.102 342.532 373.102C341.834 373.102 341.204 372.993 340.641 372.774C340.084 372.555 339.608 372.232 339.212 371.805C338.821 371.373 338.519 370.836 338.306 370.196C338.097 369.555 337.993 368.813 337.993 367.969C337.993 367.131 338.11 366.381 338.345 365.719C338.579 365.053 338.907 364.49 339.329 364.032C339.756 363.568 340.266 363.217 340.86 362.977C341.459 362.732 342.118 362.61 342.837 362.61C343.295 362.61 343.73 362.652 344.141 362.735C344.558 362.813 344.957 362.941 345.337 363.118V364.5ZM354.134 364.5C353.753 364.297 353.363 364.141 352.962 364.032C352.561 363.917 352.123 363.86 351.649 363.86C351.108 363.86 350.626 363.956 350.204 364.149C349.782 364.342 349.425 364.615 349.134 364.969C348.847 365.318 348.626 365.74 348.47 366.235C348.319 366.73 348.243 367.277 348.243 367.875C348.243 368.5 348.306 369.06 348.431 369.555C348.556 370.05 348.751 370.469 349.016 370.813C349.282 371.157 349.621 371.42 350.032 371.602C350.449 371.784 350.946 371.875 351.524 371.875C351.623 371.875 351.73 371.87 351.845 371.86C351.959 371.849 352.074 371.836 352.188 371.821C352.303 371.8 352.412 371.777 352.516 371.75C352.626 371.724 352.722 371.696 352.806 371.665V368.415H350.72V367.266H354.181V372.485C353.967 372.584 353.74 372.672 353.501 372.75C353.266 372.829 353.024 372.894 352.774 372.946C352.53 372.998 352.285 373.037 352.04 373.063C351.795 373.089 351.558 373.102 351.329 373.102C350.631 373.102 350.001 372.993 349.438 372.774C348.881 372.555 348.405 372.232 348.009 371.805C347.618 371.373 347.316 370.836 347.102 370.196C346.894 369.555 346.79 368.813 346.79 367.969C346.79 367.131 346.907 366.381 347.141 365.719C347.376 365.053 347.704 364.49 348.126 364.032C348.553 363.568 349.063 363.217 349.657 362.977C350.256 362.732 350.915 362.61 351.634 362.61C352.092 362.61 352.527 362.652 352.938 362.735C353.355 362.813 353.753 362.941 354.134 363.118V364.5Z" fill="#C9D1D9"/>
<circle cx="346.845" cy="358.845" r="22.8452" stroke="#C4A8A8" stroke-opacity="0.25" stroke-width="2"/>
<path d="M400.337 344.5C399.957 344.297 399.566 344.141 399.165 344.032C398.764 343.917 398.326 343.86 397.852 343.86C397.311 343.86 396.829 343.956 396.407 344.149C395.985 344.342 395.628 344.615 395.337 344.969C395.05 345.318 394.829 345.74 394.673 346.235C394.522 346.73 394.446 347.277 394.446 347.875C394.446 348.5 394.509 349.06 394.634 349.555C394.759 350.05 394.954 350.469 395.22 350.813C395.485 351.157 395.824 351.42 396.235 351.602C396.652 351.784 397.149 351.875 397.727 351.875C397.826 351.875 397.933 351.87 398.048 351.86C398.162 351.849 398.277 351.836 398.391 351.821C398.506 351.8 398.615 351.777 398.72 351.75C398.829 351.724 398.925 351.696 399.009 351.665V348.415H396.923V347.266H400.384V352.485C400.17 352.584 399.944 352.672 399.704 352.75C399.47 352.829 399.227 352.894 398.977 352.946C398.733 352.998 398.488 353.037 398.243 353.063C397.998 353.089 397.761 353.102 397.532 353.102C396.834 353.102 396.204 352.993 395.641 352.774C395.084 352.555 394.608 352.232 394.212 351.805C393.821 351.373 393.519 350.836 393.306 350.196C393.097 349.555 392.993 348.813 392.993 347.969C392.993 347.131 393.11 346.381 393.345 345.719C393.579 345.053 393.907 344.49 394.329 344.032C394.756 343.568 395.266 343.217 395.86 342.977C396.459 342.732 397.118 342.61 397.837 342.61C398.295 342.61 398.73 342.652 399.141 342.735C399.558 342.813 399.957 342.941 400.337 343.118V344.5ZM409.048 352.579C408.23 352.917 407.373 353.086 406.477 353.086C405.035 353.086 403.925 352.657 403.149 351.797C402.378 350.933 401.993 349.657 401.993 347.969C401.993 347.152 402.1 346.412 402.313 345.75C402.527 345.089 402.832 344.529 403.227 344.071C403.623 343.607 404.102 343.25 404.665 343C405.227 342.75 405.858 342.625 406.556 342.625C407.03 342.625 407.47 342.667 407.876 342.75C408.282 342.829 408.673 342.951 409.048 343.118V344.485C408.678 344.282 408.295 344.128 407.899 344.024C407.503 343.915 407.071 343.86 406.602 343.86C406.123 343.86 405.688 343.951 405.298 344.133C404.912 344.31 404.584 344.571 404.313 344.915C404.043 345.253 403.834 345.67 403.688 346.165C403.543 346.654 403.47 347.214 403.47 347.844C403.47 349.167 403.738 350.165 404.274 350.836C404.811 351.508 405.597 351.844 406.634 351.844C407.071 351.844 407.49 351.795 407.891 351.696C408.293 351.592 408.678 351.448 409.048 351.266V352.579ZM400.602 362.938H397.579V371.961H396.173V362.938H393.149V361.75H400.602V362.938ZM409.134 363.5C408.753 363.297 408.363 363.141 407.962 363.032C407.561 362.917 407.123 362.86 406.649 362.86C406.108 362.86 405.626 362.956 405.204 363.149C404.782 363.342 404.425 363.615 404.134 363.969C403.847 364.318 403.626 364.74 403.47 365.235C403.319 365.73 403.243 366.277 403.243 366.875C403.243 367.5 403.306 368.06 403.431 368.555C403.556 369.05 403.751 369.469 404.016 369.813C404.282 370.157 404.621 370.42 405.032 370.602C405.449 370.784 405.946 370.875 406.524 370.875C406.623 370.875 406.73 370.87 406.845 370.86C406.959 370.849 407.074 370.836 407.188 370.821C407.303 370.8 407.412 370.777 407.516 370.75C407.626 370.724 407.722 370.696 407.806 370.665V367.415H405.72V366.266H409.181V371.485C408.967 371.584 408.74 371.672 408.501 371.75C408.266 371.829 408.024 371.894 407.774 371.946C407.53 371.998 407.285 372.037 407.04 372.063C406.795 372.089 406.558 372.102 406.329 372.102C405.631 372.102 405.001 371.993 404.438 371.774C403.881 371.555 403.405 371.232 403.009 370.805C402.618 370.373 402.316 369.836 402.102 369.196C401.894 368.555 401.79 367.813 401.79 366.969C401.79 366.131 401.907 365.381 402.141 364.719C402.376 364.053 402.704 363.49 403.126 363.032C403.553 362.568 404.063 362.217 404.657 361.977C405.256 361.732 405.915 361.61 406.634 361.61C407.092 361.61 407.527 361.652 407.938 361.735C408.355 361.813 408.753 361.941 409.134 362.118V363.5Z" fill="#C9D1D9"/>
<circle cx="401.845" cy="357.845" r="22.8452" stroke="#C4A8A8" stroke-opacity="0.25" stroke-width="2"/>
<path d="M181.337 403.5C180.957 403.297 180.566 403.141 180.165 403.032C179.764 402.917 179.326 402.86 178.852 402.86C178.311 402.86 177.829 402.956 177.407 403.149C176.985 403.342 176.628 403.615 176.337 403.969C176.05 404.318 175.829 404.74 175.673 405.235C175.522 405.73 175.446 406.277 175.446 406.875C175.446 407.5 175.509 408.06 175.634 408.555C175.759 409.05 175.954 409.469 176.22 409.813C176.485 410.157 176.824 410.42 177.235 410.602C177.652 410.784 178.149 410.875 178.727 410.875C178.826 410.875 178.933 410.87 179.048 410.86C179.162 410.849 179.277 410.836 179.391 410.821C179.506 410.8 179.615 410.777 179.72 410.75C179.829 410.724 179.925 410.696 180.009 410.665V407.415H177.923V406.266H181.384V411.485C181.17 411.584 180.944 411.672 180.704 411.75C180.47 411.829 180.227 411.894 179.977 411.946C179.733 411.998 179.488 412.037 179.243 412.063C178.998 412.089 178.761 412.102 178.532 412.102C177.834 412.102 177.204 411.993 176.641 411.774C176.084 411.555 175.608 411.232 175.212 410.805C174.821 410.373 174.519 409.836 174.306 409.196C174.097 408.555 173.993 407.813 173.993 406.969C173.993 406.131 174.11 405.381 174.345 404.719C174.579 404.053 174.907 403.49 175.329 403.032C175.756 402.568 176.266 402.217 176.86 401.977C177.459 401.732 178.118 401.61 178.837 401.61C179.295 401.61 179.73 401.652 180.141 401.735C180.558 401.813 180.957 401.941 181.337 402.118V403.5ZM190.134 403.5C189.753 403.297 189.363 403.141 188.962 403.032C188.561 402.917 188.123 402.86 187.649 402.86C187.108 402.86 186.626 402.956 186.204 403.149C185.782 403.342 185.425 403.615 185.134 403.969C184.847 404.318 184.626 404.74 184.47 405.235C184.319 405.73 184.243 406.277 184.243 406.875C184.243 407.5 184.306 408.06 184.431 408.555C184.556 409.05 184.751 409.469 185.016 409.813C185.282 410.157 185.621 410.42 186.032 410.602C186.449 410.784 186.946 410.875 187.524 410.875C187.623 410.875 187.73 410.87 187.845 410.86C187.959 410.849 188.074 410.836 188.188 410.821C188.303 410.8 188.412 410.777 188.516 410.75C188.626 410.724 188.722 410.696 188.806 410.665V407.415H186.72V406.266H190.181V411.485C189.967 411.584 189.74 411.672 189.501 411.75C189.266 411.829 189.024 411.894 188.774 411.946C188.53 411.998 188.285 412.037 188.04 412.063C187.795 412.089 187.558 412.102 187.329 412.102C186.631 412.102 186.001 411.993 185.438 411.774C184.881 411.555 184.405 411.232 184.009 410.805C183.618 410.373 183.316 409.836 183.102 409.196C182.894 408.555 182.79 407.813 182.79 406.969C182.79 406.131 182.907 405.381 183.141 404.719C183.376 404.053 183.704 403.49 184.126 403.032C184.553 402.568 185.063 402.217 185.657 401.977C186.256 401.732 186.915 401.61 187.634 401.61C188.092 401.61 188.527 401.652 188.938 401.735C189.355 401.813 189.753 401.941 190.134 402.118V403.5ZM181.337 422.5C180.957 422.297 180.566 422.141 180.165 422.032C179.764 421.917 179.326 421.86 178.852 421.86C178.311 421.86 177.829 421.956 177.407 422.149C176.985 422.342 176.628 422.615 176.337 422.969C176.05 423.318 175.829 423.74 175.673 424.235C175.522 424.73 175.446 425.277 175.446 425.875C175.446 426.5 175.509 427.06 175.634 427.555C175.759 428.05 175.954 428.469 176.22 428.813C176.485 429.157 176.824 429.42 177.235 429.602C177.652 429.784 178.149 429.875 178.727 429.875C178.826 429.875 178.933 429.87 179.048 429.86C179.162 429.849 179.277 429.836 179.391 429.821C179.506 429.8 179.615 429.777 179.72 429.75C179.829 429.724 179.925 429.696 180.009 429.665V426.415H177.923V425.266H181.384V430.485C181.17 430.584 180.944 430.672 180.704 430.75C180.47 430.829 180.227 430.894 179.977 430.946C179.733 430.998 179.488 431.037 179.243 431.063C178.998 431.089 178.761 431.102 178.532 431.102C177.834 431.102 177.204 430.993 176.641 430.774C176.084 430.555 175.608 430.232 175.212 429.805C174.821 429.373 174.519 428.836 174.306 428.196C174.097 427.555 173.993 426.813 173.993 425.969C173.993 425.131 174.11 424.381 174.345 423.719C174.579 423.053 174.907 422.49 175.329 422.032C175.756 421.568 176.266 421.217 176.86 420.977C177.459 420.732 178.118 420.61 178.837 420.61C179.295 420.61 179.73 420.652 180.141 420.735C180.558 420.813 180.957 420.941 181.337 421.118V422.5ZM190.399 421.938H187.376V430.961H185.97V421.938H182.946V420.75H190.399V421.938Z" fill="#C9D1D9"/>
<circle cx="182.845" cy="416.845" r="22.8452" stroke="#C4A8A8" stroke-opacity="0.25" stroke-width="2"/>
<path d="M236.337 404.352C235.957 404.149 235.566 403.993 235.165 403.883C234.764 403.769 234.326 403.711 233.852 403.711C233.311 403.711 232.829 403.808 232.407 404C231.985 404.193 231.628 404.467 231.337 404.821C231.05 405.17 230.829 405.592 230.673 406.086C230.522 406.581 230.446 407.128 230.446 407.727C230.446 408.352 230.509 408.912 230.634 409.407C230.759 409.902 230.954 410.321 231.22 410.665C231.485 411.008 231.824 411.271 232.235 411.454C232.652 411.636 233.149 411.727 233.727 411.727C233.826 411.727 233.933 411.722 234.048 411.711C234.162 411.701 234.277 411.688 234.391 411.672C234.506 411.652 234.615 411.628 234.72 411.602C234.829 411.576 234.925 411.547 235.009 411.516V408.266H232.923V407.118H236.384V412.336C236.17 412.435 235.944 412.524 235.704 412.602C235.47 412.68 235.227 412.745 234.977 412.797C234.733 412.849 234.488 412.889 234.243 412.915C233.998 412.941 233.761 412.954 233.532 412.954C232.834 412.954 232.204 412.844 231.641 412.625C231.084 412.407 230.608 412.084 230.212 411.657C229.821 411.224 229.519 410.688 229.306 410.047C229.097 409.407 228.993 408.665 228.993 407.821C228.993 406.982 229.11 406.232 229.345 405.571C229.579 404.904 229.907 404.342 230.329 403.883C230.756 403.42 231.266 403.068 231.86 402.829C232.459 402.584 233.118 402.461 233.837 402.461C234.295 402.461 234.73 402.503 235.141 402.586C235.558 402.665 235.957 402.792 236.337 402.969V404.352ZM245.993 412.813H244.477L243.766 410.586H239.516L238.798 412.813H237.352L240.743 402.602H242.649L245.993 412.813ZM243.368 409.344L241.641 403.883L239.915 409.344H243.368ZM236.602 422.79H233.579V431.813H232.173V422.79H229.149V421.602H236.602V422.79ZM245.399 422.79H242.376V431.813H240.97V422.79H237.946V421.602H245.399V422.79Z" fill="#C9D1D9"/>
<circle cx="237.845" cy="416.845" r="22.8452" stroke="#C4A8A8" stroke-opacity="0.25" stroke-width="2"/>
<path d="M292.337 403.5C291.957 403.297 291.566 403.141 291.165 403.032C290.764 402.917 290.326 402.86 289.852 402.86C289.311 402.86 288.829 402.956 288.407 403.149C287.985 403.342 287.628 403.615 287.337 403.969C287.05 404.318 286.829 404.74 286.673 405.235C286.522 405.73 286.446 406.277 286.446 406.875C286.446 407.5 286.509 408.06 286.634 408.555C286.759 409.05 286.954 409.469 287.22 409.813C287.485 410.157 287.824 410.42 288.235 410.602C288.652 410.784 289.149 410.875 289.727 410.875C289.826 410.875 289.933 410.87 290.048 410.86C290.162 410.849 290.277 410.836 290.391 410.821C290.506 410.8 290.615 410.777 290.72 410.75C290.829 410.724 290.925 410.696 291.009 410.665V407.415H288.923V406.266H292.384V411.485C292.17 411.584 291.944 411.672 291.704 411.75C291.47 411.829 291.227 411.894 290.977 411.946C290.733 411.998 290.488 412.037 290.243 412.063C289.998 412.089 289.761 412.102 289.532 412.102C288.834 412.102 288.204 411.993 287.641 411.774C287.084 411.555 286.608 411.232 286.212 410.805C285.821 410.373 285.519 409.836 285.306 409.196C285.097 408.555 284.993 407.813 284.993 406.969C284.993 406.131 285.11 405.381 285.345 404.719C285.579 404.053 285.907 403.49 286.329 403.032C286.756 402.568 287.266 402.217 287.86 401.977C288.459 401.732 289.118 401.61 289.837 401.61C290.295 401.61 290.73 401.652 291.141 401.735C291.558 401.813 291.957 401.941 292.337 402.118V403.5ZM301.134 403.5C300.753 403.297 300.363 403.141 299.962 403.032C299.561 402.917 299.123 402.86 298.649 402.86C298.108 402.86 297.626 402.956 297.204 403.149C296.782 403.342 296.425 403.615 296.134 403.969C295.847 404.318 295.626 404.74 295.47 405.235C295.319 405.73 295.243 406.277 295.243 406.875C295.243 407.5 295.306 408.06 295.431 408.555C295.556 409.05 295.751 409.469 296.016 409.813C296.282 410.157 296.621 410.42 297.032 410.602C297.449 410.784 297.946 410.875 298.524 410.875C298.623 410.875 298.73 410.87 298.845 410.86C298.959 410.849 299.074 410.836 299.188 410.821C299.303 410.8 299.412 410.777 299.516 410.75C299.626 410.724 299.722 410.696 299.806 410.665V407.415H297.72V406.266H301.181V411.485C300.967 411.584 300.74 411.672 300.501 411.75C300.266 411.829 300.024 411.894 299.774 411.946C299.53 411.998 299.285 412.037 299.04 412.063C298.795 412.089 298.558 412.102 298.329 412.102C297.631 412.102 297.001 411.993 296.438 411.774C295.881 411.555 295.405 411.232 295.009 410.805C294.618 410.373 294.316 409.836 294.102 409.196C293.894 408.555 293.79 407.813 293.79 406.969C293.79 406.131 293.907 405.381 294.141 404.719C294.376 404.053 294.704 403.49 295.126 403.032C295.553 402.568 296.063 402.217 296.657 401.977C297.256 401.732 297.915 401.61 298.634 401.61C299.092 401.61 299.527 401.652 299.938 401.735C300.355 401.813 300.753 401.941 301.134 402.118V403.5ZM292.602 421.938H289.579V430.961H288.173V421.938H285.149V420.75H292.602V421.938ZM301.134 422.5C300.753 422.297 300.363 422.141 299.962 422.032C299.561 421.917 299.123 421.86 298.649 421.86C298.108 421.86 297.626 421.956 297.204 422.149C296.782 422.342 296.425 422.615 296.134 422.969C295.847 423.318 295.626 423.74 295.47 424.235C295.319 424.73 295.243 425.277 295.243 425.875C295.243 426.5 295.306 427.06 295.431 427.555C295.556 428.05 295.751 428.469 296.016 428.813C296.282 429.157 296.621 429.42 297.032 429.602C297.449 429.784 297.946 429.875 298.524 429.875C298.623 429.875 298.73 429.87 298.845 429.86C298.959 429.849 299.074 429.836 299.188 429.821C299.303 429.8 299.412 429.777 299.516 429.75C299.626 429.724 299.722 429.696 299.806 429.665V426.415H297.72V425.266H301.181V430.485C300.967 430.584 300.74 430.672 300.501 430.75C300.266 430.829 300.024 430.894 299.774 430.946C299.53 430.998 299.285 431.037 299.04 431.063C298.795 431.089 298.558 431.102 298.329 431.102C297.631 431.102 297.001 430.993 296.438 430.774C295.881 430.555 295.405 430.232 295.009 429.805C294.618 429.373 294.316 428.836 294.102 428.196C293.894 427.555 293.79 426.813 293.79 425.969C293.79 425.131 293.907 424.381 294.141 423.719C294.376 423.053 294.704 422.49 295.126 422.032C295.553 421.568 296.063 421.217 296.657 420.977C297.256 420.732 297.915 420.61 298.634 420.61C299.092 420.61 299.527 420.652 299.938 420.735C300.355 420.813 300.753 420.941 301.134 421.118V422.5Z" fill="#C9D1D9"/>
<circle cx="293.845" cy="416.845" r="22.8452" stroke="#C4A8A8" stroke-opacity="0.25" stroke-width="2"/>
<path d="M349.602 402.938H346.579V411.961H345.173V402.938H342.149V401.75H349.602V402.938ZM358.993 411.961H357.477L356.766 409.735H352.516L351.798 411.961H350.352L353.743 401.75H355.649L358.993 411.961ZM356.368 408.493L354.641 403.032L352.915 408.493H356.368ZM349.337 422.5C348.957 422.297 348.566 422.141 348.165 422.032C347.764 421.917 347.326 421.86 346.852 421.86C346.311 421.86 345.829 421.956 345.407 422.149C344.985 422.342 344.628 422.615 344.337 422.969C344.05 423.318 343.829 423.74 343.673 424.235C343.522 424.73 343.446 425.277 343.446 425.875C343.446 426.5 343.509 427.06 343.634 427.555C343.759 428.05 343.954 428.469 344.22 428.813C344.485 429.157 344.824 429.42 345.235 429.602C345.652 429.784 346.149 429.875 346.727 429.875C346.826 429.875 346.933 429.87 347.048 429.86C347.162 429.849 347.277 429.836 347.391 429.821C347.506 429.8 347.615 429.777 347.72 429.75C347.829 429.724 347.925 429.696 348.009 429.665V426.415H345.923V425.266H349.384V430.485C349.17 430.584 348.944 430.672 348.704 430.75C348.47 430.829 348.227 430.894 347.977 430.946C347.733 430.998 347.488 431.037 347.243 431.063C346.998 431.089 346.761 431.102 346.532 431.102C345.834 431.102 345.204 430.993 344.641 430.774C344.084 430.555 343.608 430.232 343.212 429.805C342.821 429.373 342.519 428.836 342.306 428.196C342.097 427.555 341.993 426.813 341.993 425.969C341.993 425.131 342.11 424.381 342.345 423.719C342.579 423.053 342.907 422.49 343.329 422.032C343.756 421.568 344.266 421.217 344.86 420.977C345.459 420.732 346.118 420.61 346.837 420.61C347.295 420.61 347.73 420.652 348.141 420.735C348.558 420.813 348.957 420.941 349.337 421.118V422.5ZM358.048 430.579C357.23 430.917 356.373 431.086 355.477 431.086C354.035 431.086 352.925 430.657 352.149 429.797C351.378 428.933 350.993 427.657 350.993 425.969C350.993 425.152 351.1 424.412 351.313 423.75C351.527 423.089 351.832 422.529 352.227 422.071C352.623 421.607 353.102 421.25 353.665 421C354.227 420.75 354.858 420.625 355.556 420.625C356.03 420.625 356.47 420.667 356.876 420.75C357.282 420.829 357.673 420.951 358.048 421.118V422.485C357.678 422.282 357.295 422.128 356.899 422.024C356.503 421.915 356.071 421.86 355.602 421.86C355.123 421.86 354.688 421.951 354.298 422.133C353.912 422.31 353.584 422.571 353.313 422.915C353.043 423.253 352.834 423.67 352.688 424.165C352.543 424.654 352.47 425.214 352.47 425.844C352.47 427.167 352.738 428.165 353.274 428.836C353.811 429.508 354.597 429.844 355.634 429.844C356.071 429.844 356.49 429.795 356.891 429.696C357.293 429.592 357.678 429.448 358.048 429.266V430.579Z" fill="#C9D1D9"/>
<circle cx="350.845" cy="416.845" r="22.8452" stroke="#C4A8A8" stroke-opacity="0.25" stroke-width="2"/>
</svg>
