<svg width="266" height="27" viewBox="0 0 266 27" fill="none" xmlns="http://www.w3.org/2000/svg">
<path d="M89.1562 8.7207H85.377V20H83.6191V8.7207H79.8398V7.23633H89.1562V8.7207ZM100.895 20H99L98.1113 17.2168H92.7988L91.9004 20H90.0938L94.332 7.23633H96.7148L100.895 20ZM97.6133 15.6641L95.4551 8.83789L93.2969 15.6641H97.6133Z" fill="#C9D1D9"/>
<path d="M111.891 20H109.996L109.107 17.2168H103.795L102.896 20H101.09L105.328 7.23633H107.711L111.891 20ZM108.609 15.6641L106.451 8.83789L104.293 15.6641H108.609ZM122.145 8.7207H118.365V20H116.607V8.7207H112.828V7.23633H122.145V8.7207ZM132.809 9.42383C132.333 9.16992 131.845 8.97461 131.344 8.83789C130.842 8.69466 130.296 8.62305 129.703 8.62305C129.026 8.62305 128.424 8.74349 127.896 8.98438C127.369 9.22526 126.923 9.56706 126.559 10.0098C126.201 10.446 125.924 10.9733 125.729 11.5918C125.54 12.2103 125.445 12.8939 125.445 13.6426C125.445 14.4238 125.523 15.1237 125.68 15.7422C125.836 16.3607 126.08 16.8848 126.412 17.3145C126.744 17.7441 127.167 18.0729 127.682 18.3008C128.202 18.5286 128.824 18.6426 129.547 18.6426C129.671 18.6426 129.804 18.6361 129.947 18.623C130.09 18.61 130.234 18.5938 130.377 18.5742C130.52 18.5482 130.657 18.5189 130.787 18.4863C130.924 18.4538 131.044 18.418 131.148 18.3789V14.3164H128.541V12.8809H132.867V19.4043C132.6 19.528 132.317 19.6387 132.018 19.7363C131.725 19.834 131.422 19.9154 131.109 19.9805C130.803 20.0456 130.497 20.0944 130.191 20.127C129.885 20.1595 129.589 20.1758 129.303 20.1758C128.43 20.1758 127.643 20.0391 126.939 19.7656C126.243 19.4922 125.647 19.0885 125.152 18.5547C124.664 18.0143 124.286 17.3438 124.02 16.543C123.759 15.7422 123.629 14.8145 123.629 13.7598C123.629 12.7116 123.775 11.7741 124.068 10.9473C124.361 10.1139 124.771 9.41081 125.299 8.83789C125.833 8.25846 126.471 7.81901 127.213 7.51953C127.962 7.21354 128.785 7.06055 129.684 7.06055C130.257 7.06055 130.8 7.11263 131.314 7.2168C131.835 7.31445 132.333 7.47396 132.809 7.69531V9.42383ZM166.871 20H164.977L164.088 17.2168H158.775L157.877 20H156.07L160.309 7.23633H162.691L166.871 20ZM163.59 15.6641L161.432 8.83789L159.273 15.6641H163.59ZM177.125 8.7207H173.346V20H171.588V8.7207H167.809V7.23633H177.125V8.7207ZM187.789 9.42383C187.314 9.16992 186.826 8.97461 186.324 8.83789C185.823 8.69466 185.276 8.62305 184.684 8.62305C184.007 8.62305 183.404 8.74349 182.877 8.98438C182.35 9.22526 181.904 9.56706 181.539 10.0098C181.181 10.446 180.904 10.9733 180.709 11.5918C180.52 12.2103 180.426 12.8939 180.426 13.6426C180.426 14.4238 180.504 15.1237 180.66 15.7422C180.816 16.3607 181.061 16.8848 181.393 17.3145C181.725 17.7441 182.148 18.0729 182.662 18.3008C183.183 18.5286 183.805 18.6426 184.527 18.6426C184.651 18.6426 184.785 18.6361 184.928 18.623C185.071 18.61 185.214 18.5938 185.357 18.5742C185.501 18.5482 185.637 18.5189 185.768 18.4863C185.904 18.4538 186.025 18.418 186.129 18.3789V14.3164H183.521V12.8809H187.848V19.4043C187.581 19.528 187.298 19.6387 186.998 19.7363C186.705 19.834 186.402 19.9154 186.09 19.9805C185.784 20.0456 185.478 20.0944 185.172 20.127C184.866 20.1595 184.57 20.1758 184.283 20.1758C183.411 20.1758 182.623 20.0391 181.92 19.7656C181.223 19.4922 180.628 19.0885 180.133 18.5547C179.645 18.0143 179.267 17.3438 179 16.543C178.74 15.7422 178.609 14.8145 178.609 13.7598C178.609 12.7116 178.756 11.7741 179.049 10.9473C179.342 10.1139 179.752 9.41081 180.279 8.83789C180.813 8.25846 181.451 7.81901 182.193 7.51953C182.942 7.21354 183.766 7.06055 184.664 7.06055C185.237 7.06055 185.781 7.11263 186.295 7.2168C186.816 7.31445 187.314 7.47396 187.789 7.69531V9.42383ZM221.852 20H219.957L219.068 17.2168H213.756L212.857 20H211.051L215.289 7.23633H217.672L221.852 20ZM218.57 15.6641L216.412 8.83789L214.254 15.6641H218.57ZM232.105 8.7207H228.326V20H226.568V8.7207H222.789V7.23633H232.105V8.7207ZM242.77 9.42383C242.294 9.16992 241.806 8.97461 241.305 8.83789C240.803 8.69466 240.257 8.62305 239.664 8.62305C238.987 8.62305 238.385 8.74349 237.857 8.98438C237.33 9.22526 236.884 9.56706 236.52 10.0098C236.161 10.446 235.885 10.9733 235.689 11.5918C235.501 12.2103 235.406 12.8939 235.406 13.6426C235.406 14.4238 235.484 15.1237 235.641 15.7422C235.797 16.3607 236.041 16.8848 236.373 17.3145C236.705 17.7441 237.128 18.0729 237.643 18.3008C238.163 18.5286 238.785 18.6426 239.508 18.6426C239.632 18.6426 239.765 18.6361 239.908 18.623C240.051 18.61 240.195 18.5938 240.338 18.5742C240.481 18.5482 240.618 18.5189 240.748 18.4863C240.885 18.4538 241.005 18.418 241.109 18.3789V14.3164H238.502V12.8809H242.828V19.4043C242.561 19.528 242.278 19.6387 241.979 19.7363C241.686 19.834 241.383 19.9154 241.07 19.9805C240.764 20.0456 240.458 20.0944 240.152 20.127C239.846 20.1595 239.55 20.1758 239.264 20.1758C238.391 20.1758 237.604 20.0391 236.9 19.7656C236.204 19.4922 235.608 19.0885 235.113 18.5547C234.625 18.0143 234.247 17.3438 233.98 16.543C233.72 15.7422 233.59 14.8145 233.59 13.7598C233.59 12.7116 233.736 11.7741 234.029 10.9473C234.322 10.1139 234.732 9.41081 235.26 8.83789C235.794 8.25846 236.432 7.81901 237.174 7.51953C237.923 7.21354 238.746 7.06055 239.645 7.06055C240.217 7.06055 240.761 7.11263 241.275 7.2168C241.796 7.31445 242.294 7.47396 242.77 7.69531V9.42383Z" fill="#247F8F"/>
<path d="M143.805 9.42383C143.329 9.16992 142.841 8.97461 142.34 8.83789C141.839 8.69466 141.292 8.62305 140.699 8.62305C140.022 8.62305 139.42 8.74349 138.893 8.98438C138.365 9.22526 137.919 9.56706 137.555 10.0098C137.197 10.446 136.92 10.9733 136.725 11.5918C136.536 12.2103 136.441 12.8939 136.441 13.6426C136.441 14.4238 136.52 15.1237 136.676 15.7422C136.832 16.3607 137.076 16.8848 137.408 17.3145C137.74 17.7441 138.163 18.0729 138.678 18.3008C139.199 18.5286 139.82 18.6426 140.543 18.6426C140.667 18.6426 140.8 18.6361 140.943 18.623C141.087 18.61 141.23 18.5938 141.373 18.5742C141.516 18.5482 141.653 18.5189 141.783 18.4863C141.92 18.4538 142.04 18.418 142.145 18.3789V14.3164H139.537V12.8809H143.863V19.4043C143.596 19.528 143.313 19.6387 143.014 19.7363C142.721 19.834 142.418 19.9154 142.105 19.9805C141.799 20.0456 141.493 20.0944 141.188 20.127C140.882 20.1595 140.585 20.1758 140.299 20.1758C139.426 20.1758 138.639 20.0391 137.936 19.7656C137.239 19.4922 136.643 19.0885 136.148 18.5547C135.66 18.0143 135.283 17.3438 135.016 16.543C134.755 15.7422 134.625 14.8145 134.625 13.7598C134.625 12.7116 134.771 11.7741 135.064 10.9473C135.357 10.1139 135.768 9.41081 136.295 8.83789C136.829 8.25846 137.467 7.81901 138.209 7.51953C138.958 7.21354 139.781 7.06055 140.68 7.06055C141.253 7.06055 141.796 7.11263 142.311 7.2168C142.831 7.31445 143.329 7.47396 143.805 7.69531V9.42383ZM154.801 9.42383C154.326 9.16992 153.837 8.97461 153.336 8.83789C152.835 8.69466 152.288 8.62305 151.695 8.62305C151.018 8.62305 150.416 8.74349 149.889 8.98438C149.361 9.22526 148.915 9.56706 148.551 10.0098C148.193 10.446 147.916 10.9733 147.721 11.5918C147.532 12.2103 147.438 12.8939 147.438 13.6426C147.438 14.4238 147.516 15.1237 147.672 15.7422C147.828 16.3607 148.072 16.8848 148.404 17.3145C148.736 17.7441 149.16 18.0729 149.674 18.3008C150.195 18.5286 150.816 18.6426 151.539 18.6426C151.663 18.6426 151.796 18.6361 151.939 18.623C152.083 18.61 152.226 18.5938 152.369 18.5742C152.512 18.5482 152.649 18.5189 152.779 18.4863C152.916 18.4538 153.036 18.418 153.141 18.3789V14.3164H150.533V12.8809H154.859V19.4043C154.592 19.528 154.309 19.6387 154.01 19.7363C153.717 19.834 153.414 19.9154 153.102 19.9805C152.796 20.0456 152.49 20.0944 152.184 20.127C151.878 20.1595 151.581 20.1758 151.295 20.1758C150.423 20.1758 149.635 20.0391 148.932 19.7656C148.235 19.4922 147.639 19.0885 147.145 18.5547C146.656 18.0143 146.279 17.3438 146.012 16.543C145.751 15.7422 145.621 14.8145 145.621 13.7598C145.621 12.7116 145.768 11.7741 146.061 10.9473C146.354 10.1139 146.764 9.41081 147.291 8.83789C147.825 8.25846 148.463 7.81901 149.205 7.51953C149.954 7.21354 150.777 7.06055 151.676 7.06055C152.249 7.06055 152.792 7.11263 153.307 7.2168C153.827 7.31445 154.326 7.47396 154.801 7.69531V9.42383Z" fill="#31BA3E"/>
<path d="M198.785 9.42383C198.31 9.16992 197.822 8.97461 197.32 8.83789C196.819 8.69466 196.272 8.62305 195.68 8.62305C195.003 8.62305 194.4 8.74349 193.873 8.98438C193.346 9.22526 192.9 9.56706 192.535 10.0098C192.177 10.446 191.9 10.9733 191.705 11.5918C191.516 12.2103 191.422 12.8939 191.422 13.6426C191.422 14.4238 191.5 15.1237 191.656 15.7422C191.812 16.3607 192.057 16.8848 192.389 17.3145C192.721 17.7441 193.144 18.0729 193.658 18.3008C194.179 18.5286 194.801 18.6426 195.523 18.6426C195.647 18.6426 195.781 18.6361 195.924 18.623C196.067 18.61 196.21 18.5938 196.354 18.5742C196.497 18.5482 196.633 18.5189 196.764 18.4863C196.9 18.4538 197.021 18.418 197.125 18.3789V14.3164H194.518V12.8809H198.844V19.4043C198.577 19.528 198.294 19.6387 197.994 19.7363C197.701 19.834 197.398 19.9154 197.086 19.9805C196.78 20.0456 196.474 20.0944 196.168 20.127C195.862 20.1595 195.566 20.1758 195.279 20.1758C194.407 20.1758 193.619 20.0391 192.916 19.7656C192.219 19.4922 191.624 19.0885 191.129 18.5547C190.641 18.0143 190.263 17.3438 189.996 16.543C189.736 15.7422 189.605 14.8145 189.605 13.7598C189.605 12.7116 189.752 11.7741 190.045 10.9473C190.338 10.1139 190.748 9.41081 191.275 8.83789C191.809 8.25846 192.447 7.81901 193.189 7.51953C193.938 7.21354 194.762 7.06055 195.66 7.06055C196.233 7.06055 196.777 7.11263 197.291 7.2168C197.812 7.31445 198.31 7.47396 198.785 7.69531V9.42383ZM209.781 9.42383C209.306 9.16992 208.818 8.97461 208.316 8.83789C207.815 8.69466 207.268 8.62305 206.676 8.62305C205.999 8.62305 205.396 8.74349 204.869 8.98438C204.342 9.22526 203.896 9.56706 203.531 10.0098C203.173 10.446 202.896 10.9733 202.701 11.5918C202.512 12.2103 202.418 12.8939 202.418 13.6426C202.418 14.4238 202.496 15.1237 202.652 15.7422C202.809 16.3607 203.053 16.8848 203.385 17.3145C203.717 17.7441 204.14 18.0729 204.654 18.3008C205.175 18.5286 205.797 18.6426 206.52 18.6426C206.643 18.6426 206.777 18.6361 206.92 18.623C207.063 18.61 207.206 18.5938 207.35 18.5742C207.493 18.5482 207.63 18.5189 207.76 18.4863C207.896 18.4538 208.017 18.418 208.121 18.3789V14.3164H205.514V12.8809H209.84V19.4043C209.573 19.528 209.29 19.6387 208.99 19.7363C208.697 19.834 208.395 19.9154 208.082 19.9805C207.776 20.0456 207.47 20.0944 207.164 20.127C206.858 20.1595 206.562 20.1758 206.275 20.1758C205.403 20.1758 204.615 20.0391 203.912 19.7656C203.215 19.4922 202.62 19.0885 202.125 18.5547C201.637 18.0143 201.259 17.3438 200.992 16.543C200.732 15.7422 200.602 14.8145 200.602 13.7598C200.602 12.7116 200.748 11.7741 201.041 10.9473C201.334 10.1139 201.744 9.41081 202.271 8.83789C202.805 8.25846 203.443 7.81901 204.186 7.51953C204.934 7.21354 205.758 7.06055 206.656 7.06055C207.229 7.06055 207.773 7.11263 208.287 7.2168C208.808 7.31445 209.306 7.47396 209.781 7.69531V9.42383Z" fill="#FF0000"/>
<path d="M254.098 8.7207H250.318V20H248.561V8.7207H244.781V7.23633H254.098V8.7207ZM265.094 8.7207H261.314V20H259.557V8.7207H255.777V7.23633H265.094V8.7207Z" fill="#CD36D0"/>
<path d="M6.15625 19.1719C4.05208 19.1719 2.67448 18.651 2.02344 17.6094C1.64323 17 1.45312 16.1979 1.45312 15.2031V11.6562C1.45312 10.0469 1.92188 8.92448 2.85938 8.28906C3.60417 7.78385 4.65104 7.53125 6 7.53125C7.34896 7.53125 8.33594 7.6849 8.96094 7.99219C9.59115 8.29427 10.0052 8.70052 10.2031 9.21094C10.401 9.71615 10.5 10.3333 10.5 11.0625L9.0625 11.1797C9.0625 10.4453 8.98958 9.95573 8.84375 9.71094C8.70312 9.46094 8.5651 9.28385 8.42969 9.17969C8.29948 9.07552 8.07552 8.98698 7.75781 8.91406C7.44531 8.83594 6.96875 8.79688 6.32812 8.79688C5.69271 8.79688 5.19271 8.83854 4.82812 8.92188C4.46354 9 4.14062 9.13542 3.85938 9.32812C3.30729 9.70833 3.03125 10.388 3.03125 11.3672V15.4453C3.03125 16.4245 3.29427 17.0807 3.82031 17.4141C4.34635 17.7422 5.11979 17.9062 6.14062 17.9062C7.16667 17.9062 7.90625 17.7448 8.35938 17.4219C8.81771 17.0938 9.04688 16.4349 9.04688 15.4453V14.4062H6.36719V13.2578H10.625V19H9.76562L9.57031 17.0781C9.47135 17.7292 9.14323 18.2422 8.58594 18.6172C8.03385 18.987 7.22396 19.1719 6.15625 19.1719ZM13.8594 19V7.70312H20.9141V8.875H15.4297V12.5938H20.2734V13.7656H15.4297V17.8281H21.0078V19H13.8594ZM23.6719 19V7.70312H24.8672L31.3359 16.7344V7.70312H32.7188V19H31.3203L25.0547 10.375V19H23.6719ZM40.5234 17.9062C41.5547 17.9062 42.3047 17.7422 42.7734 17.4141C43.2422 17.0807 43.4766 16.4245 43.4766 15.4453V11.3594C43.4766 10.3802 43.2396 9.70833 42.7656 9.34375C42.2969 8.97917 41.5521 8.79688 40.5312 8.79688C38.9479 8.79688 37.987 9.23438 37.6484 10.1094C37.5182 10.4427 37.4531 10.8594 37.4531 11.3594V15.4453C37.4531 16.4193 37.7083 17.0729 38.2188 17.4062C38.7292 17.7396 39.4974 17.9062 40.5234 17.9062ZM37.6328 18.6562C36.9505 18.3125 36.487 17.8516 36.2422 17.2734C35.9974 16.6953 35.875 16.0052 35.875 15.2031V11.6484C35.875 10.0286 36.3333 8.90625 37.25 8.28125C37.9896 7.78125 39.0833 7.53125 40.5312 7.53125C43.0938 7.53125 44.5599 8.48438 44.9297 10.3906C45.0078 10.7917 45.0469 11.2448 45.0469 11.75V15.0938C45.0469 16.6667 44.5964 17.7708 43.6953 18.4062C42.9714 18.9167 41.9505 19.1719 40.6328 19.1719C39.3151 19.1719 38.3151 19 37.6328 18.6562ZM48.2031 19V7.70312H49.6484L53.4531 14.0156L57.2969 7.70312H58.6875V19H57.2031V10.2422L54.0391 15.4219H52.875L49.7031 10.2734V19H48.2031ZM62.3906 12.6094V10.7188H64.3906V12.6094H62.3906ZM62.3906 18.2266V16.3359H64.3906V18.2266H62.3906Z" fill="#C4A8A8"/>
</svg>
