<svg width="583" height="37" viewBox="0 0 583 37" fill="none" xmlns="http://www.w3.org/2000/svg">
<path d="M10.1562 1.7207H6.37695V13H4.61914V1.7207H0.839844V0.236328H10.1562V1.7207ZM21.8945 13H20L19.1113 10.2168H13.7988L12.9004 13H11.0938L15.332 0.236328H17.7148L21.8945 13ZM18.6133 8.66406L16.4551 1.83789L14.2969 8.66406H18.6133ZM32.8906 13H30.9961L30.1074 10.2168H24.7949L23.8965 13H22.0898L26.3281 0.236328H28.7109L32.8906 13ZM29.6094 8.66406L27.4512 1.83789L25.293 8.66406H29.6094ZM65.8789 13H63.9844L63.0957 10.2168H57.7832L56.8848 13H55.0781L59.3164 0.236328H61.6992L65.8789 13ZM62.5977 8.66406L60.4395 1.83789L58.2812 8.66406H62.5977ZM76.875 13H74.9805L74.0918 10.2168H68.7793L67.8809 13H66.0742L70.3125 0.236328H72.6953L76.875 13ZM73.5938 8.66406L71.4355 1.83789L69.2773 8.66406H73.5938ZM87.1289 1.7207H83.3496V13H81.5918V1.7207H77.8125V0.236328H87.1289V1.7207ZM120.859 13H118.965L118.076 10.2168H112.764L111.865 13H110.059L114.297 0.236328H116.68L120.859 13ZM117.578 8.66406L115.42 1.83789L113.262 8.66406H117.578ZM131.113 1.7207H127.334V13H125.576V1.7207H121.797V0.236328H131.113V1.7207ZM141.777 2.42383C141.302 2.16992 140.814 1.97461 140.312 1.83789C139.811 1.69466 139.264 1.62305 138.672 1.62305C137.995 1.62305 137.393 1.74349 136.865 1.98438C136.338 2.22526 135.892 2.56706 135.527 3.00977C135.169 3.44596 134.893 3.97331 134.697 4.5918C134.508 5.21029 134.414 5.89388 134.414 6.64258C134.414 7.42383 134.492 8.1237 134.648 8.74219C134.805 9.36068 135.049 9.88477 135.381 10.3145C135.713 10.7441 136.136 11.0729 136.65 11.3008C137.171 11.5286 137.793 11.6426 138.516 11.6426C138.639 11.6426 138.773 11.6361 138.916 11.623C139.059 11.61 139.202 11.5938 139.346 11.5742C139.489 11.5482 139.626 11.5189 139.756 11.4863C139.893 11.4538 140.013 11.418 140.117 11.3789V7.31641H137.51V5.88086H141.836V12.4043C141.569 12.528 141.286 12.6387 140.986 12.7363C140.693 12.834 140.391 12.9154 140.078 12.9805C139.772 13.0456 139.466 13.0944 139.16 13.127C138.854 13.1595 138.558 13.1758 138.271 13.1758C137.399 13.1758 136.611 13.0391 135.908 12.7656C135.212 12.4922 134.616 12.0885 134.121 11.5547C133.633 11.0143 133.255 10.3438 132.988 9.54297C132.728 8.74219 132.598 7.81445 132.598 6.75977C132.598 5.71159 132.744 4.77409 133.037 3.94727C133.33 3.11393 133.74 2.41081 134.268 1.83789C134.801 1.25846 135.439 0.81901 136.182 0.519531C136.93 0.213542 137.754 0.0605469 138.652 0.0605469C139.225 0.0605469 139.769 0.11263 140.283 0.216797C140.804 0.314453 141.302 0.473958 141.777 0.695312V2.42383ZM175.098 1.7207H171.318V13H169.561V1.7207H165.781V0.236328H175.098V1.7207ZM185.762 2.42383C185.286 2.16992 184.798 1.97461 184.297 1.83789C183.796 1.69466 183.249 1.62305 182.656 1.62305C181.979 1.62305 181.377 1.74349 180.85 1.98438C180.322 2.22526 179.876 2.56706 179.512 3.00977C179.154 3.44596 178.877 3.97331 178.682 4.5918C178.493 5.21029 178.398 5.89388 178.398 6.64258C178.398 7.42383 178.477 8.1237 178.633 8.74219C178.789 9.36068 179.033 9.88477 179.365 10.3145C179.697 10.7441 180.12 11.0729 180.635 11.3008C181.156 11.5286 181.777 11.6426 182.5 11.6426C182.624 11.6426 182.757 11.6361 182.9 11.623C183.044 11.61 183.187 11.5938 183.33 11.5742C183.473 11.5482 183.61 11.5189 183.74 11.4863C183.877 11.4538 183.997 11.418 184.102 11.3789V7.31641H181.494V5.88086H185.82V12.4043C185.553 12.528 185.27 12.6387 184.971 12.7363C184.678 12.834 184.375 12.9154 184.062 12.9805C183.757 13.0456 183.451 13.0944 183.145 13.127C182.839 13.1595 182.542 13.1758 182.256 13.1758C181.383 13.1758 180.596 13.0391 179.893 12.7656C179.196 12.4922 178.6 12.0885 178.105 11.5547C177.617 11.0143 177.24 10.3438 176.973 9.54297C176.712 8.74219 176.582 7.81445 176.582 6.75977C176.582 5.71159 176.729 4.77409 177.021 3.94727C177.314 3.11393 177.725 2.41081 178.252 1.83789C178.786 1.25846 179.424 0.81901 180.166 0.519531C180.915 0.213542 181.738 0.0605469 182.637 0.0605469C183.21 0.0605469 183.753 0.11263 184.268 0.216797C184.788 0.314453 185.286 0.473958 185.762 0.695312V2.42383ZM196.65 12.5215C195.628 12.9447 194.557 13.1562 193.438 13.1562C191.634 13.1562 190.247 12.6191 189.277 11.5449C188.314 10.4642 187.832 8.86914 187.832 6.75977C187.832 5.73763 187.965 4.81315 188.232 3.98633C188.499 3.15951 188.88 2.45964 189.375 1.88672C189.87 1.30729 190.469 0.861328 191.172 0.548828C191.875 0.236328 192.663 0.0800781 193.535 0.0800781C194.128 0.0800781 194.678 0.132161 195.186 0.236328C195.693 0.333984 196.182 0.486979 196.65 0.695312V2.4043C196.188 2.15039 195.71 1.95833 195.215 1.82812C194.72 1.69141 194.18 1.62305 193.594 1.62305C192.995 1.62305 192.451 1.73698 191.963 1.96484C191.481 2.1862 191.071 2.51172 190.732 2.94141C190.394 3.36458 190.133 3.88542 189.951 4.50391C189.769 5.11589 189.678 5.81576 189.678 6.60352C189.678 8.25716 190.013 9.50391 190.684 10.3438C191.354 11.1836 192.337 11.6035 193.633 11.6035C194.18 11.6035 194.704 11.5417 195.205 11.418C195.706 11.2878 196.188 11.1087 196.65 10.8809V12.5215ZM229.746 2.42383C229.271 2.16992 228.783 1.97461 228.281 1.83789C227.78 1.69466 227.233 1.62305 226.641 1.62305C225.964 1.62305 225.361 1.74349 224.834 1.98438C224.307 2.22526 223.861 2.56706 223.496 3.00977C223.138 3.44596 222.861 3.97331 222.666 4.5918C222.477 5.21029 222.383 5.89388 222.383 6.64258C222.383 7.42383 222.461 8.1237 222.617 8.74219C222.773 9.36068 223.018 9.88477 223.35 10.3145C223.682 10.7441 224.105 11.0729 224.619 11.3008C225.14 11.5286 225.762 11.6426 226.484 11.6426C226.608 11.6426 226.742 11.6361 226.885 11.623C227.028 11.61 227.171 11.5938 227.314 11.5742C227.458 11.5482 227.594 11.5189 227.725 11.4863C227.861 11.4538 227.982 11.418 228.086 11.3789V7.31641H225.479V5.88086H229.805V12.4043C229.538 12.528 229.255 12.6387 228.955 12.7363C228.662 12.834 228.359 12.9154 228.047 12.9805C227.741 13.0456 227.435 13.0944 227.129 13.127C226.823 13.1595 226.527 13.1758 226.24 13.1758C225.368 13.1758 224.58 13.0391 223.877 12.7656C223.18 12.4922 222.585 12.0885 222.09 11.5547C221.602 11.0143 221.224 10.3438 220.957 9.54297C220.697 8.74219 220.566 7.81445 220.566 6.75977C220.566 5.71159 220.713 4.77409 221.006 3.94727C221.299 3.11393 221.709 2.41081 222.236 1.83789C222.77 1.25846 223.408 0.81901 224.15 0.519531C224.899 0.213542 225.723 0.0605469 226.621 0.0605469C227.194 0.0605469 227.738 0.11263 228.252 0.216797C228.773 0.314453 229.271 0.473958 229.746 0.695312V2.42383ZM240.635 12.5215C239.613 12.9447 238.542 13.1562 237.422 13.1562C235.618 13.1562 234.232 12.6191 233.262 11.5449C232.298 10.4642 231.816 8.86914 231.816 6.75977C231.816 5.73763 231.95 4.81315 232.217 3.98633C232.484 3.15951 232.865 2.45964 233.359 1.88672C233.854 1.30729 234.453 0.861328 235.156 0.548828C235.859 0.236328 236.647 0.0800781 237.52 0.0800781C238.112 0.0800781 238.662 0.132161 239.17 0.236328C239.678 0.333984 240.166 0.486979 240.635 0.695312V2.4043C240.173 2.15039 239.694 1.95833 239.199 1.82812C238.704 1.69141 238.164 1.62305 237.578 1.62305C236.979 1.62305 236.436 1.73698 235.947 1.96484C235.465 2.1862 235.055 2.51172 234.717 2.94141C234.378 3.36458 234.118 3.88542 233.936 4.50391C233.753 5.11589 233.662 5.81576 233.662 6.60352C233.662 8.25716 233.997 9.50391 234.668 10.3438C235.339 11.1836 236.322 11.6035 237.617 11.6035C238.164 11.6035 238.688 11.5417 239.189 11.418C239.691 11.2878 240.173 11.1087 240.635 10.8809V12.5215ZM251.631 12.5215C250.609 12.9447 249.538 13.1562 248.418 13.1562C246.615 13.1562 245.228 12.6191 244.258 11.5449C243.294 10.4642 242.812 8.86914 242.812 6.75977C242.812 5.73763 242.946 4.81315 243.213 3.98633C243.48 3.15951 243.861 2.45964 244.355 1.88672C244.85 1.30729 245.449 0.861328 246.152 0.548828C246.855 0.236328 247.643 0.0800781 248.516 0.0800781C249.108 0.0800781 249.658 0.132161 250.166 0.236328C250.674 0.333984 251.162 0.486979 251.631 0.695312V2.4043C251.169 2.15039 250.69 1.95833 250.195 1.82812C249.701 1.69141 249.16 1.62305 248.574 1.62305C247.975 1.62305 247.432 1.73698 246.943 1.96484C246.462 2.1862 246.051 2.51172 245.713 2.94141C245.374 3.36458 245.114 3.88542 244.932 4.50391C244.749 5.11589 244.658 5.81576 244.658 6.60352C244.658 8.25716 244.993 9.50391 245.664 10.3438C246.335 11.1836 247.318 11.6035 248.613 11.6035C249.16 11.6035 249.684 11.5417 250.186 11.418C250.687 11.2878 251.169 11.1087 251.631 10.8809V12.5215ZM284.619 12.5215C283.597 12.9447 282.526 13.1562 281.406 13.1562C279.603 13.1562 278.216 12.6191 277.246 11.5449C276.283 10.4642 275.801 8.86914 275.801 6.75977C275.801 5.73763 275.934 4.81315 276.201 3.98633C276.468 3.15951 276.849 2.45964 277.344 1.88672C277.839 1.30729 278.438 0.861328 279.141 0.548828C279.844 0.236328 280.632 0.0800781 281.504 0.0800781C282.096 0.0800781 282.646 0.132161 283.154 0.236328C283.662 0.333984 284.15 0.486979 284.619 0.695312V2.4043C284.157 2.15039 283.678 1.95833 283.184 1.82812C282.689 1.69141 282.148 1.62305 281.562 1.62305C280.964 1.62305 280.42 1.73698 279.932 1.96484C279.45 2.1862 279.04 2.51172 278.701 2.94141C278.363 3.36458 278.102 3.88542 277.92 4.50391C277.738 5.11589 277.646 5.81576 277.646 6.60352C277.646 8.25716 277.982 9.50391 278.652 10.3438C279.323 11.1836 280.306 11.6035 281.602 11.6035C282.148 11.6035 282.673 11.5417 283.174 11.418C283.675 11.2878 284.157 11.1087 284.619 10.8809V12.5215ZM295.615 12.5215C294.593 12.9447 293.522 13.1562 292.402 13.1562C290.599 13.1562 289.212 12.6191 288.242 11.5449C287.279 10.4642 286.797 8.86914 286.797 6.75977C286.797 5.73763 286.93 4.81315 287.197 3.98633C287.464 3.15951 287.845 2.45964 288.34 1.88672C288.835 1.30729 289.434 0.861328 290.137 0.548828C290.84 0.236328 291.628 0.0800781 292.5 0.0800781C293.092 0.0800781 293.643 0.132161 294.15 0.236328C294.658 0.333984 295.146 0.486979 295.615 0.695312V2.4043C295.153 2.15039 294.674 1.95833 294.18 1.82812C293.685 1.69141 293.145 1.62305 292.559 1.62305C291.96 1.62305 291.416 1.73698 290.928 1.96484C290.446 2.1862 290.036 2.51172 289.697 2.94141C289.359 3.36458 289.098 3.88542 288.916 4.50391C288.734 5.11589 288.643 5.81576 288.643 6.60352C288.643 8.25716 288.978 9.50391 289.648 10.3438C290.319 11.1836 291.302 11.6035 292.598 11.6035C293.145 11.6035 293.669 11.5417 294.17 11.418C294.671 11.2878 295.153 11.1087 295.615 10.8809V12.5215ZM307.793 13H305.898L305.01 10.2168H299.697L298.799 13H296.992L301.23 0.236328H303.613L307.793 13ZM304.512 8.66406L302.354 1.83789L300.195 8.66406H304.512ZM339.6 12.5215C338.577 12.9447 337.507 13.1562 336.387 13.1562C334.583 13.1562 333.197 12.6191 332.227 11.5449C331.263 10.4642 330.781 8.86914 330.781 6.75977C330.781 5.73763 330.915 4.81315 331.182 3.98633C331.449 3.15951 331.829 2.45964 332.324 1.88672C332.819 1.30729 333.418 0.861328 334.121 0.548828C334.824 0.236328 335.612 0.0800781 336.484 0.0800781C337.077 0.0800781 337.627 0.132161 338.135 0.236328C338.643 0.333984 339.131 0.486979 339.6 0.695312V2.4043C339.137 2.15039 338.659 1.95833 338.164 1.82812C337.669 1.69141 337.129 1.62305 336.543 1.62305C335.944 1.62305 335.4 1.73698 334.912 1.96484C334.43 2.1862 334.02 2.51172 333.682 2.94141C333.343 3.36458 333.083 3.88542 332.9 4.50391C332.718 5.11589 332.627 5.81576 332.627 6.60352C332.627 8.25716 332.962 9.50391 333.633 10.3438C334.303 11.1836 335.286 11.6035 336.582 11.6035C337.129 11.6035 337.653 11.5417 338.154 11.418C338.656 11.2878 339.137 11.1087 339.6 10.8809V12.5215ZM351.777 13H349.883L348.994 10.2168H343.682L342.783 13H340.977L345.215 0.236328H347.598L351.777 13ZM348.496 8.66406L346.338 1.83789L344.18 8.66406H348.496ZM362.031 1.7207H358.252V13H356.494V1.7207H352.715V0.236328H362.031V1.7207ZM395.762 13H393.867L392.979 10.2168H387.666L386.768 13H384.961L389.199 0.236328H391.582L395.762 13ZM392.48 8.66406L390.322 1.83789L388.164 8.66406H392.48ZM406.016 1.7207H402.236V13H400.479V1.7207H396.699V0.236328H406.016V1.7207ZM416.68 2.42383C416.204 2.16992 415.716 1.97461 415.215 1.83789C414.714 1.69466 414.167 1.62305 413.574 1.62305C412.897 1.62305 412.295 1.74349 411.768 1.98438C411.24 2.22526 410.794 2.56706 410.43 3.00977C410.072 3.44596 409.795 3.97331 409.6 4.5918C409.411 5.21029 409.316 5.89388 409.316 6.64258C409.316 7.42383 409.395 8.1237 409.551 8.74219C409.707 9.36068 409.951 9.88477 410.283 10.3145C410.615 10.7441 411.038 11.0729 411.553 11.3008C412.074 11.5286 412.695 11.6426 413.418 11.6426C413.542 11.6426 413.675 11.6361 413.818 11.623C413.962 11.61 414.105 11.5938 414.248 11.5742C414.391 11.5482 414.528 11.5189 414.658 11.4863C414.795 11.4538 414.915 11.418 415.02 11.3789V7.31641H412.412V5.88086H416.738V12.4043C416.471 12.528 416.188 12.6387 415.889 12.7363C415.596 12.834 415.293 12.9154 414.98 12.9805C414.674 13.0456 414.368 13.0944 414.062 13.127C413.757 13.1595 413.46 13.1758 413.174 13.1758C412.301 13.1758 411.514 13.0391 410.811 12.7656C410.114 12.4922 409.518 12.0885 409.023 11.5547C408.535 11.0143 408.158 10.3438 407.891 9.54297C407.63 8.74219 407.5 7.81445 407.5 6.75977C407.5 5.71159 407.646 4.77409 407.939 3.94727C408.232 3.11393 408.643 2.41081 409.17 1.83789C409.704 1.25846 410.342 0.81901 411.084 0.519531C411.833 0.213542 412.656 0.0605469 413.555 0.0605469C414.128 0.0605469 414.671 0.11263 415.186 0.216797C415.706 0.314453 416.204 0.473958 416.68 0.695312V2.42383ZM450 1.7207H446.221V13H444.463V1.7207H440.684V0.236328H450V1.7207ZM460.664 2.42383C460.189 2.16992 459.701 1.97461 459.199 1.83789C458.698 1.69466 458.151 1.62305 457.559 1.62305C456.882 1.62305 456.279 1.74349 455.752 1.98438C455.225 2.22526 454.779 2.56706 454.414 3.00977C454.056 3.44596 453.779 3.97331 453.584 4.5918C453.395 5.21029 453.301 5.89388 453.301 6.64258C453.301 7.42383 453.379 8.1237 453.535 8.74219C453.691 9.36068 453.936 9.88477 454.268 10.3145C454.6 10.7441 455.023 11.0729 455.537 11.3008C456.058 11.5286 456.68 11.6426 457.402 11.6426C457.526 11.6426 457.66 11.6361 457.803 11.623C457.946 11.61 458.089 11.5938 458.232 11.5742C458.376 11.5482 458.512 11.5189 458.643 11.4863C458.779 11.4538 458.9 11.418 459.004 11.3789V7.31641H456.396V5.88086H460.723V12.4043C460.456 12.528 460.173 12.6387 459.873 12.7363C459.58 12.834 459.277 12.9154 458.965 12.9805C458.659 13.0456 458.353 13.0944 458.047 13.127C457.741 13.1595 457.445 13.1758 457.158 13.1758C456.286 13.1758 455.498 13.0391 454.795 12.7656C454.098 12.4922 453.503 12.0885 453.008 11.5547C452.52 11.0143 452.142 10.3438 451.875 9.54297C451.615 8.74219 451.484 7.81445 451.484 6.75977C451.484 5.71159 451.631 4.77409 451.924 3.94727C452.217 3.11393 452.627 2.41081 453.154 1.83789C453.688 1.25846 454.326 0.81901 455.068 0.519531C455.817 0.213542 456.641 0.0605469 457.539 0.0605469C458.112 0.0605469 458.656 0.11263 459.17 0.216797C459.691 0.314453 460.189 0.473958 460.664 0.695312V2.42383ZM471.66 2.42383C471.185 2.16992 470.697 1.97461 470.195 1.83789C469.694 1.69466 469.147 1.62305 468.555 1.62305C467.878 1.62305 467.275 1.74349 466.748 1.98438C466.221 2.22526 465.775 2.56706 465.41 3.00977C465.052 3.44596 464.775 3.97331 464.58 4.5918C464.391 5.21029 464.297 5.89388 464.297 6.64258C464.297 7.42383 464.375 8.1237 464.531 8.74219C464.688 9.36068 464.932 9.88477 465.264 10.3145C465.596 10.7441 466.019 11.0729 466.533 11.3008C467.054 11.5286 467.676 11.6426 468.398 11.6426C468.522 11.6426 468.656 11.6361 468.799 11.623C468.942 11.61 469.085 11.5938 469.229 11.5742C469.372 11.5482 469.508 11.5189 469.639 11.4863C469.775 11.4538 469.896 11.418 470 11.3789V7.31641H467.393V5.88086H471.719V12.4043C471.452 12.528 471.169 12.6387 470.869 12.7363C470.576 12.834 470.273 12.9154 469.961 12.9805C469.655 13.0456 469.349 13.0944 469.043 13.127C468.737 13.1595 468.441 13.1758 468.154 13.1758C467.282 13.1758 466.494 13.0391 465.791 12.7656C465.094 12.4922 464.499 12.0885 464.004 11.5547C463.516 11.0143 463.138 10.3438 462.871 9.54297C462.611 8.74219 462.48 7.81445 462.48 6.75977C462.48 5.71159 462.627 4.77409 462.92 3.94727C463.213 3.11393 463.623 2.41081 464.15 1.83789C464.684 1.25846 465.322 0.81901 466.064 0.519531C466.813 0.213542 467.637 0.0605469 468.535 0.0605469C469.108 0.0605469 469.652 0.11263 470.166 0.216797C470.687 0.314453 471.185 0.473958 471.66 0.695312V2.42383ZM504.648 2.42383C504.173 2.16992 503.685 1.97461 503.184 1.83789C502.682 1.69466 502.135 1.62305 501.543 1.62305C500.866 1.62305 500.264 1.74349 499.736 1.98438C499.209 2.22526 498.763 2.56706 498.398 3.00977C498.04 3.44596 497.764 3.97331 497.568 4.5918C497.38 5.21029 497.285 5.89388 497.285 6.64258C497.285 7.42383 497.363 8.1237 497.52 8.74219C497.676 9.36068 497.92 9.88477 498.252 10.3145C498.584 10.7441 499.007 11.0729 499.521 11.3008C500.042 11.5286 500.664 11.6426 501.387 11.6426C501.51 11.6426 501.644 11.6361 501.787 11.623C501.93 11.61 502.074 11.5938 502.217 11.5742C502.36 11.5482 502.497 11.5189 502.627 11.4863C502.764 11.4538 502.884 11.418 502.988 11.3789V7.31641H500.381V5.88086H504.707V12.4043C504.44 12.528 504.157 12.6387 503.857 12.7363C503.564 12.834 503.262 12.9154 502.949 12.9805C502.643 13.0456 502.337 13.0944 502.031 13.127C501.725 13.1595 501.429 13.1758 501.143 13.1758C500.27 13.1758 499.482 13.0391 498.779 12.7656C498.083 12.4922 497.487 12.0885 496.992 11.5547C496.504 11.0143 496.126 10.3438 495.859 9.54297C495.599 8.74219 495.469 7.81445 495.469 6.75977C495.469 5.71159 495.615 4.77409 495.908 3.94727C496.201 3.11393 496.611 2.41081 497.139 1.83789C497.673 1.25846 498.311 0.81901 499.053 0.519531C499.801 0.213542 500.625 0.0605469 501.523 0.0605469C502.096 0.0605469 502.64 0.11263 503.154 0.216797C503.675 0.314453 504.173 0.473958 504.648 0.695312V2.42383ZM515.645 2.42383C515.169 2.16992 514.681 1.97461 514.18 1.83789C513.678 1.69466 513.132 1.62305 512.539 1.62305C511.862 1.62305 511.26 1.74349 510.732 1.98438C510.205 2.22526 509.759 2.56706 509.395 3.00977C509.036 3.44596 508.76 3.97331 508.564 4.5918C508.376 5.21029 508.281 5.89388 508.281 6.64258C508.281 7.42383 508.359 8.1237 508.516 8.74219C508.672 9.36068 508.916 9.88477 509.248 10.3145C509.58 10.7441 510.003 11.0729 510.518 11.3008C511.038 11.5286 511.66 11.6426 512.383 11.6426C512.507 11.6426 512.64 11.6361 512.783 11.623C512.926 11.61 513.07 11.5938 513.213 11.5742C513.356 11.5482 513.493 11.5189 513.623 11.4863C513.76 11.4538 513.88 11.418 513.984 11.3789V7.31641H511.377V5.88086H515.703V12.4043C515.436 12.528 515.153 12.6387 514.854 12.7363C514.561 12.834 514.258 12.9154 513.945 12.9805C513.639 13.0456 513.333 13.0944 513.027 13.127C512.721 13.1595 512.425 13.1758 512.139 13.1758C511.266 13.1758 510.479 13.0391 509.775 12.7656C509.079 12.4922 508.483 12.0885 507.988 11.5547C507.5 11.0143 507.122 10.3438 506.855 9.54297C506.595 8.74219 506.465 7.81445 506.465 6.75977C506.465 5.71159 506.611 4.77409 506.904 3.94727C507.197 3.11393 507.607 2.41081 508.135 1.83789C508.669 1.25846 509.307 0.81901 510.049 0.519531C510.798 0.213542 511.621 0.0605469 512.52 0.0605469C513.092 0.0605469 513.636 0.11263 514.15 0.216797C514.671 0.314453 515.169 0.473958 515.645 0.695312V2.42383ZM526.641 2.42383C526.165 2.16992 525.677 1.97461 525.176 1.83789C524.674 1.69466 524.128 1.62305 523.535 1.62305C522.858 1.62305 522.256 1.74349 521.729 1.98438C521.201 2.22526 520.755 2.56706 520.391 3.00977C520.033 3.44596 519.756 3.97331 519.561 4.5918C519.372 5.21029 519.277 5.89388 519.277 6.64258C519.277 7.42383 519.355 8.1237 519.512 8.74219C519.668 9.36068 519.912 9.88477 520.244 10.3145C520.576 10.7441 520.999 11.0729 521.514 11.3008C522.035 11.5286 522.656 11.6426 523.379 11.6426C523.503 11.6426 523.636 11.6361 523.779 11.623C523.923 11.61 524.066 11.5938 524.209 11.5742C524.352 11.5482 524.489 11.5189 524.619 11.4863C524.756 11.4538 524.876 11.418 524.98 11.3789V7.31641H522.373V5.88086H526.699V12.4043C526.432 12.528 526.149 12.6387 525.85 12.7363C525.557 12.834 525.254 12.9154 524.941 12.9805C524.635 13.0456 524.329 13.0944 524.023 13.127C523.717 13.1595 523.421 13.1758 523.135 13.1758C522.262 13.1758 521.475 13.0391 520.771 12.7656C520.075 12.4922 519.479 12.0885 518.984 11.5547C518.496 11.0143 518.118 10.3438 517.852 9.54297C517.591 8.74219 517.461 7.81445 517.461 6.75977C517.461 5.71159 517.607 4.77409 517.9 3.94727C518.193 3.11393 518.604 2.41081 519.131 1.83789C519.665 1.25846 520.303 0.81901 521.045 0.519531C521.794 0.213542 522.617 0.0605469 523.516 0.0605469C524.089 0.0605469 524.632 0.11263 525.146 0.216797C525.667 0.314453 526.165 0.473958 526.641 0.695312V2.42383ZM559.629 2.42383C559.154 2.16992 558.665 1.97461 558.164 1.83789C557.663 1.69466 557.116 1.62305 556.523 1.62305C555.846 1.62305 555.244 1.74349 554.717 1.98438C554.189 2.22526 553.743 2.56706 553.379 3.00977C553.021 3.44596 552.744 3.97331 552.549 4.5918C552.36 5.21029 552.266 5.89388 552.266 6.64258C552.266 7.42383 552.344 8.1237 552.5 8.74219C552.656 9.36068 552.9 9.88477 553.232 10.3145C553.564 10.7441 553.988 11.0729 554.502 11.3008C555.023 11.5286 555.645 11.6426 556.367 11.6426C556.491 11.6426 556.624 11.6361 556.768 11.623C556.911 11.61 557.054 11.5938 557.197 11.5742C557.34 11.5482 557.477 11.5189 557.607 11.4863C557.744 11.4538 557.865 11.418 557.969 11.3789V7.31641H555.361V5.88086H559.688V12.4043C559.421 12.528 559.137 12.6387 558.838 12.7363C558.545 12.834 558.242 12.9154 557.93 12.9805C557.624 13.0456 557.318 13.0944 557.012 13.127C556.706 13.1595 556.41 13.1758 556.123 13.1758C555.251 13.1758 554.463 13.0391 553.76 12.7656C553.063 12.4922 552.467 12.0885 551.973 11.5547C551.484 11.0143 551.107 10.3438 550.84 9.54297C550.579 8.74219 550.449 7.81445 550.449 6.75977C550.449 5.71159 550.596 4.77409 550.889 3.94727C551.182 3.11393 551.592 2.41081 552.119 1.83789C552.653 1.25846 553.291 0.81901 554.033 0.519531C554.782 0.213542 555.605 0.0605469 556.504 0.0605469C557.077 0.0605469 557.62 0.11263 558.135 0.216797C558.656 0.314453 559.154 0.473958 559.629 0.695312V2.42383ZM570.625 2.42383C570.15 2.16992 569.661 1.97461 569.16 1.83789C568.659 1.69466 568.112 1.62305 567.52 1.62305C566.842 1.62305 566.24 1.74349 565.713 1.98438C565.186 2.22526 564.74 2.56706 564.375 3.00977C564.017 3.44596 563.74 3.97331 563.545 4.5918C563.356 5.21029 563.262 5.89388 563.262 6.64258C563.262 7.42383 563.34 8.1237 563.496 8.74219C563.652 9.36068 563.896 9.88477 564.229 10.3145C564.561 10.7441 564.984 11.0729 565.498 11.3008C566.019 11.5286 566.641 11.6426 567.363 11.6426C567.487 11.6426 567.62 11.6361 567.764 11.623C567.907 11.61 568.05 11.5938 568.193 11.5742C568.337 11.5482 568.473 11.5189 568.604 11.4863C568.74 11.4538 568.861 11.418 568.965 11.3789V7.31641H566.357V5.88086H570.684V12.4043C570.417 12.528 570.133 12.6387 569.834 12.7363C569.541 12.834 569.238 12.9154 568.926 12.9805C568.62 13.0456 568.314 13.0944 568.008 13.127C567.702 13.1595 567.406 13.1758 567.119 13.1758C566.247 13.1758 565.459 13.0391 564.756 12.7656C564.059 12.4922 563.464 12.0885 562.969 11.5547C562.48 11.0143 562.103 10.3438 561.836 9.54297C561.576 8.74219 561.445 7.81445 561.445 6.75977C561.445 5.71159 561.592 4.77409 561.885 3.94727C562.178 3.11393 562.588 2.41081 563.115 1.83789C563.649 1.25846 564.287 0.81901 565.029 0.519531C565.778 0.213542 566.602 0.0605469 567.5 0.0605469C568.073 0.0605469 568.617 0.11263 569.131 0.216797C569.652 0.314453 570.15 0.473958 570.625 0.695312V2.42383ZM582.695 13H580.801L579.912 10.2168H574.6L573.701 13H571.895L576.133 0.236328H578.516L582.695 13ZM579.414 8.66406L577.256 1.83789L575.098 8.66406H579.414ZM9.82422 25.4238C9.34896 25.1699 8.86068 24.9746 8.35938 24.8379C7.85807 24.6947 7.3112 24.623 6.71875 24.623C6.04167 24.623 5.43945 24.7435 4.91211 24.9844C4.38477 25.2253 3.9388 25.5671 3.57422 26.0098C3.21615 26.446 2.93945 26.9733 2.74414 27.5918C2.55534 28.2103 2.46094 28.8939 2.46094 29.6426C2.46094 30.4238 2.53906 31.1237 2.69531 31.7422C2.85156 32.3607 3.0957 32.8848 3.42773 33.3145C3.75977 33.7441 4.18294 34.0729 4.69727 34.3008C5.2181 34.5286 5.83984 34.6426 6.5625 34.6426C6.6862 34.6426 6.81966 34.6361 6.96289 34.623C7.10612 34.61 7.24935 34.5938 7.39258 34.5742C7.53581 34.5482 7.67253 34.5189 7.80273 34.4863C7.93945 34.4538 8.0599 34.418 8.16406 34.3789V30.3164H5.55664V28.8809H9.88281V35.4043C9.61589 35.528 9.33268 35.6387 9.0332 35.7363C8.74023 35.834 8.4375 35.9154 8.125 35.9805C7.81901 36.0456 7.51302 36.0944 7.20703 36.127C6.90104 36.1595 6.60482 36.1758 6.31836 36.1758C5.44596 36.1758 4.6582 36.0391 3.95508 35.7656C3.25846 35.4922 2.66276 35.0885 2.16797 34.5547C1.67969 34.0143 1.30208 33.3438 1.03516 32.543C0.77474 31.7422 0.644531 30.8145 0.644531 29.7598C0.644531 28.7116 0.791016 27.7741 1.08398 26.9473C1.37695 26.1139 1.78711 25.4108 2.31445 24.8379C2.84831 24.2585 3.48633 23.819 4.22852 23.5195C4.97721 23.2135 5.80078 23.0605 6.69922 23.0605C7.27214 23.0605 7.81576 23.1126 8.33008 23.2168C8.85091 23.3145 9.34896 23.474 9.82422 23.6953V25.4238ZM20.7129 35.5215C19.6908 35.9447 18.6198 36.1562 17.5 36.1562C15.6966 36.1562 14.3099 35.6191 13.3398 34.5449C12.3763 33.4642 11.8945 31.8691 11.8945 29.7598C11.8945 28.7376 12.028 27.8132 12.2949 26.9863C12.5618 26.1595 12.9427 25.4596 13.4375 24.8867C13.9323 24.3073 14.5312 23.8613 15.2344 23.5488C15.9375 23.2363 16.7253 23.0801 17.5977 23.0801C18.1901 23.0801 18.7402 23.1322 19.248 23.2363C19.7559 23.334 20.2441 23.487 20.7129 23.6953V25.4043C20.2507 25.1504 19.7721 24.9583 19.2773 24.8281C18.7826 24.6914 18.2422 24.623 17.6562 24.623C17.0573 24.623 16.5137 24.737 16.0254 24.9648C15.5436 25.1862 15.1335 25.5117 14.7949 25.9414C14.4564 26.3646 14.196 26.8854 14.0137 27.5039C13.8314 28.1159 13.7402 28.8158 13.7402 29.6035C13.7402 31.2572 14.0755 32.5039 14.7461 33.3438C15.4167 34.1836 16.3997 34.6035 17.6953 34.6035C18.2422 34.6035 18.7663 34.5417 19.2676 34.418C19.7689 34.2878 20.2507 34.1087 20.7129 33.8809V35.5215ZM31.709 35.5215C30.6868 35.9447 29.6159 36.1562 28.4961 36.1562C26.6927 36.1562 25.306 35.6191 24.3359 34.5449C23.3724 33.4642 22.8906 31.8691 22.8906 29.7598C22.8906 28.7376 23.0241 27.8132 23.291 26.9863C23.5579 26.1595 23.9388 25.4596 24.4336 24.8867C24.9284 24.3073 25.5273 23.8613 26.2305 23.5488C26.9336 23.2363 27.7214 23.0801 28.5938 23.0801C29.1862 23.0801 29.7363 23.1322 30.2441 23.2363C30.752 23.334 31.2402 23.487 31.709 23.6953V25.4043C31.2467 25.1504 30.7682 24.9583 30.2734 24.8281C29.7786 24.6914 29.2383 24.623 28.6523 24.623C28.0534 24.623 27.5098 24.737 27.0215 24.9648C26.5397 25.1862 26.1296 25.5117 25.791 25.9414C25.4525 26.3646 25.1921 26.8854 25.0098 27.5039C24.8275 28.1159 24.7363 28.8158 24.7363 29.6035C24.7363 31.2572 25.0716 32.5039 25.7422 33.3438C26.4128 34.1836 27.3958 34.6035 28.6914 34.6035C29.2383 34.6035 29.7624 34.5417 30.2637 34.418C30.765 34.2878 31.2467 34.1087 31.709 33.8809V35.5215ZM64.6973 35.5215C63.6751 35.9447 62.6042 36.1562 61.4844 36.1562C59.681 36.1562 58.2943 35.6191 57.3242 34.5449C56.3607 33.4642 55.8789 31.8691 55.8789 29.7598C55.8789 28.7376 56.0124 27.8132 56.2793 26.9863C56.5462 26.1595 56.9271 25.4596 57.4219 24.8867C57.9167 24.3073 58.5156 23.8613 59.2188 23.5488C59.9219 23.2363 60.7096 23.0801 61.582 23.0801C62.1745 23.0801 62.7246 23.1322 63.2324 23.2363C63.7402 23.334 64.2285 23.487 64.6973 23.6953V25.4043C64.235 25.1504 63.7565 24.9583 63.2617 24.8281C62.7669 24.6914 62.2266 24.623 61.6406 24.623C61.0417 24.623 60.498 24.737 60.0098 24.9648C59.528 25.1862 59.1178 25.5117 58.7793 25.9414C58.4408 26.3646 58.1803 26.8854 57.998 27.5039C57.8158 28.1159 57.7246 28.8158 57.7246 29.6035C57.7246 31.2572 58.0599 32.5039 58.7305 33.3438C59.401 34.1836 60.3841 34.6035 61.6797 34.6035C62.2266 34.6035 62.7507 34.5417 63.252 34.418C63.7533 34.2878 64.235 34.1087 64.6973 33.8809V35.5215ZM75.6934 35.5215C74.6712 35.9447 73.6003 36.1562 72.4805 36.1562C70.6771 36.1562 69.2904 35.6191 68.3203 34.5449C67.3568 33.4642 66.875 31.8691 66.875 29.7598C66.875 28.7376 67.0085 27.8132 67.2754 26.9863C67.5423 26.1595 67.9232 25.4596 68.418 24.8867C68.9128 24.3073 69.5117 23.8613 70.2148 23.5488C70.918 23.2363 71.7057 23.0801 72.5781 23.0801C73.1706 23.0801 73.7207 23.1322 74.2285 23.2363C74.7363 23.334 75.2246 23.487 75.6934 23.6953V25.4043C75.2311 25.1504 74.7526 24.9583 74.2578 24.8281C73.763 24.6914 73.2227 24.623 72.6367 24.623C72.0378 24.623 71.4941 24.737 71.0059 24.9648C70.5241 25.1862 70.1139 25.5117 69.7754 25.9414C69.4368 26.3646 69.1764 26.8854 68.9941 27.5039C68.8118 28.1159 68.7207 28.8158 68.7207 29.6035C68.7207 31.2572 69.056 32.5039 69.7266 33.3438C70.3971 34.1836 71.3802 34.6035 72.6758 34.6035C73.2227 34.6035 73.7467 34.5417 74.248 34.418C74.7493 34.2878 75.2311 34.1087 75.6934 33.8809V35.5215ZM87.8711 36H85.9766L85.0879 33.2168H79.7754L78.877 36H77.0703L81.3086 23.2363H83.6914L87.8711 36ZM84.5898 31.6641L82.4316 24.8379L80.2734 31.6641H84.5898ZM119.678 35.5215C118.656 35.9447 117.585 36.1562 116.465 36.1562C114.661 36.1562 113.275 35.6191 112.305 34.5449C111.341 33.4642 110.859 31.8691 110.859 29.7598C110.859 28.7376 110.993 27.8132 111.26 26.9863C111.527 26.1595 111.908 25.4596 112.402 24.8867C112.897 24.3073 113.496 23.8613 114.199 23.5488C114.902 23.2363 115.69 23.0801 116.562 23.0801C117.155 23.0801 117.705 23.1322 118.213 23.2363C118.721 23.334 119.209 23.487 119.678 23.6953V25.4043C119.215 25.1504 118.737 24.9583 118.242 24.8281C117.747 24.6914 117.207 24.623 116.621 24.623C116.022 24.623 115.479 24.737 114.99 24.9648C114.508 25.1862 114.098 25.5117 113.76 25.9414C113.421 26.3646 113.161 26.8854 112.979 27.5039C112.796 28.1159 112.705 28.8158 112.705 29.6035C112.705 31.2572 113.04 32.5039 113.711 33.3438C114.382 34.1836 115.365 34.6035 116.66 34.6035C117.207 34.6035 117.731 34.5417 118.232 34.418C118.734 34.2878 119.215 34.1087 119.678 33.8809V35.5215ZM131.855 36H129.961L129.072 33.2168H123.76L122.861 36H121.055L125.293 23.2363H127.676L131.855 36ZM128.574 31.6641L126.416 24.8379L124.258 31.6641H128.574ZM142.109 24.7207H138.33V36H136.572V24.7207H132.793V23.2363H142.109V24.7207ZM175.84 36H173.945L173.057 33.2168H167.744L166.846 36H165.039L169.277 23.2363H171.66L175.84 36ZM172.559 31.6641L170.4 24.8379L168.242 31.6641H172.559ZM186.094 24.7207H182.314V36H180.557V24.7207H176.777V23.2363H186.094V24.7207ZM196.758 25.4238C196.283 25.1699 195.794 24.9746 195.293 24.8379C194.792 24.6947 194.245 24.623 193.652 24.623C192.975 24.623 192.373 24.7435 191.846 24.9844C191.318 25.2253 190.872 25.5671 190.508 26.0098C190.15 26.446 189.873 26.9733 189.678 27.5918C189.489 28.2103 189.395 28.8939 189.395 29.6426C189.395 30.4238 189.473 31.1237 189.629 31.7422C189.785 32.3607 190.029 32.8848 190.361 33.3145C190.693 33.7441 191.117 34.0729 191.631 34.3008C192.152 34.5286 192.773 34.6426 193.496 34.6426C193.62 34.6426 193.753 34.6361 193.896 34.623C194.04 34.61 194.183 34.5938 194.326 34.5742C194.469 34.5482 194.606 34.5189 194.736 34.4863C194.873 34.4538 194.993 34.418 195.098 34.3789V30.3164H192.49V28.8809H196.816V35.4043C196.549 35.528 196.266 35.6387 195.967 35.7363C195.674 35.834 195.371 35.9154 195.059 35.9805C194.753 36.0456 194.447 36.0944 194.141 36.127C193.835 36.1595 193.538 36.1758 193.252 36.1758C192.38 36.1758 191.592 36.0391 190.889 35.7656C190.192 35.4922 189.596 35.0885 189.102 34.5547C188.613 34.0143 188.236 33.3438 187.969 32.543C187.708 31.7422 187.578 30.8145 187.578 29.7598C187.578 28.7116 187.725 27.7741 188.018 26.9473C188.311 26.1139 188.721 25.4108 189.248 24.8379C189.782 24.2585 190.42 23.819 191.162 23.5195C191.911 23.2135 192.734 23.0605 193.633 23.0605C194.206 23.0605 194.749 23.1126 195.264 23.2168C195.785 23.3145 196.283 23.474 196.758 23.6953V25.4238ZM230.078 24.7207H226.299V36H224.541V24.7207H220.762V23.2363H230.078V24.7207ZM240.742 25.4238C240.267 25.1699 239.779 24.9746 239.277 24.8379C238.776 24.6947 238.229 24.623 237.637 24.623C236.96 24.623 236.357 24.7435 235.83 24.9844C235.303 25.2253 234.857 25.5671 234.492 26.0098C234.134 26.446 233.857 26.9733 233.662 27.5918C233.473 28.2103 233.379 28.8939 233.379 29.6426C233.379 30.4238 233.457 31.1237 233.613 31.7422C233.77 32.3607 234.014 32.8848 234.346 33.3145C234.678 33.7441 235.101 34.0729 235.615 34.3008C236.136 34.5286 236.758 34.6426 237.48 34.6426C237.604 34.6426 237.738 34.6361 237.881 34.623C238.024 34.61 238.167 34.5938 238.311 34.5742C238.454 34.5482 238.59 34.5189 238.721 34.4863C238.857 34.4538 238.978 34.418 239.082 34.3789V30.3164H236.475V28.8809H240.801V35.4043C240.534 35.528 240.251 35.6387 239.951 35.7363C239.658 35.834 239.355 35.9154 239.043 35.9805C238.737 36.0456 238.431 36.0944 238.125 36.127C237.819 36.1595 237.523 36.1758 237.236 36.1758C236.364 36.1758 235.576 36.0391 234.873 35.7656C234.176 35.4922 233.581 35.0885 233.086 34.5547C232.598 34.0143 232.22 33.3438 231.953 32.543C231.693 31.7422 231.562 30.8145 231.562 29.7598C231.562 28.7116 231.709 27.7741 232.002 26.9473C232.295 26.1139 232.705 25.4108 233.232 24.8379C233.766 24.2585 234.404 23.819 235.146 23.5195C235.895 23.2135 236.719 23.0605 237.617 23.0605C238.19 23.0605 238.734 23.1126 239.248 23.2168C239.769 23.3145 240.267 23.474 240.742 23.6953V25.4238ZM251.738 25.4238C251.263 25.1699 250.775 24.9746 250.273 24.8379C249.772 24.6947 249.225 24.623 248.633 24.623C247.956 24.623 247.354 24.7435 246.826 24.9844C246.299 25.2253 245.853 25.5671 245.488 26.0098C245.13 26.446 244.854 26.9733 244.658 27.5918C244.469 28.2103 244.375 28.8939 244.375 29.6426C244.375 30.4238 244.453 31.1237 244.609 31.7422C244.766 32.3607 245.01 32.8848 245.342 33.3145C245.674 33.7441 246.097 34.0729 246.611 34.3008C247.132 34.5286 247.754 34.6426 248.477 34.6426C248.6 34.6426 248.734 34.6361 248.877 34.623C249.02 34.61 249.163 34.5938 249.307 34.5742C249.45 34.5482 249.587 34.5189 249.717 34.4863C249.854 34.4538 249.974 34.418 250.078 34.3789V30.3164H247.471V28.8809H251.797V35.4043C251.53 35.528 251.247 35.6387 250.947 35.7363C250.654 35.834 250.352 35.9154 250.039 35.9805C249.733 36.0456 249.427 36.0944 249.121 36.127C248.815 36.1595 248.519 36.1758 248.232 36.1758C247.36 36.1758 246.572 36.0391 245.869 35.7656C245.173 35.4922 244.577 35.0885 244.082 34.5547C243.594 34.0143 243.216 33.3438 242.949 32.543C242.689 31.7422 242.559 30.8145 242.559 29.7598C242.559 28.7116 242.705 27.7741 242.998 26.9473C243.291 26.1139 243.701 25.4108 244.229 24.8379C244.762 24.2585 245.4 23.819 246.143 23.5195C246.891 23.2135 247.715 23.0605 248.613 23.0605C249.186 23.0605 249.73 23.1126 250.244 23.2168C250.765 23.3145 251.263 23.474 251.738 23.6953V25.4238ZM284.727 25.4238C284.251 25.1699 283.763 24.9746 283.262 24.8379C282.76 24.6947 282.214 24.623 281.621 24.623C280.944 24.623 280.342 24.7435 279.814 24.9844C279.287 25.2253 278.841 25.5671 278.477 26.0098C278.118 26.446 277.842 26.9733 277.646 27.5918C277.458 28.2103 277.363 28.8939 277.363 29.6426C277.363 30.4238 277.441 31.1237 277.598 31.7422C277.754 32.3607 277.998 32.8848 278.33 33.3145C278.662 33.7441 279.085 34.0729 279.6 34.3008C280.12 34.5286 280.742 34.6426 281.465 34.6426C281.589 34.6426 281.722 34.6361 281.865 34.623C282.008 34.61 282.152 34.5938 282.295 34.5742C282.438 34.5482 282.575 34.5189 282.705 34.4863C282.842 34.4538 282.962 34.418 283.066 34.3789V30.3164H280.459V28.8809H284.785V35.4043C284.518 35.528 284.235 35.6387 283.936 35.7363C283.643 35.834 283.34 35.9154 283.027 35.9805C282.721 36.0456 282.415 36.0944 282.109 36.127C281.803 36.1595 281.507 36.1758 281.221 36.1758C280.348 36.1758 279.561 36.0391 278.857 35.7656C278.161 35.4922 277.565 35.0885 277.07 34.5547C276.582 34.0143 276.204 33.3438 275.938 32.543C275.677 31.7422 275.547 30.8145 275.547 29.7598C275.547 28.7116 275.693 27.7741 275.986 26.9473C276.279 26.1139 276.689 25.4108 277.217 24.8379C277.751 24.2585 278.389 23.819 279.131 23.5195C279.88 23.2135 280.703 23.0605 281.602 23.0605C282.174 23.0605 282.718 23.1126 283.232 23.2168C283.753 23.3145 284.251 23.474 284.727 23.6953V25.4238ZM295.723 25.4238C295.247 25.1699 294.759 24.9746 294.258 24.8379C293.757 24.6947 293.21 24.623 292.617 24.623C291.94 24.623 291.338 24.7435 290.811 24.9844C290.283 25.2253 289.837 25.5671 289.473 26.0098C289.115 26.446 288.838 26.9733 288.643 27.5918C288.454 28.2103 288.359 28.8939 288.359 29.6426C288.359 30.4238 288.438 31.1237 288.594 31.7422C288.75 32.3607 288.994 32.8848 289.326 33.3145C289.658 33.7441 290.081 34.0729 290.596 34.3008C291.117 34.5286 291.738 34.6426 292.461 34.6426C292.585 34.6426 292.718 34.6361 292.861 34.623C293.005 34.61 293.148 34.5938 293.291 34.5742C293.434 34.5482 293.571 34.5189 293.701 34.4863C293.838 34.4538 293.958 34.418 294.062 34.3789V30.3164H291.455V28.8809H295.781V35.4043C295.514 35.528 295.231 35.6387 294.932 35.7363C294.639 35.834 294.336 35.9154 294.023 35.9805C293.717 36.0456 293.411 36.0944 293.105 36.127C292.799 36.1595 292.503 36.1758 292.217 36.1758C291.344 36.1758 290.557 36.0391 289.854 35.7656C289.157 35.4922 288.561 35.0885 288.066 34.5547C287.578 34.0143 287.201 33.3438 286.934 32.543C286.673 31.7422 286.543 30.8145 286.543 29.7598C286.543 28.7116 286.689 27.7741 286.982 26.9473C287.275 26.1139 287.686 25.4108 288.213 24.8379C288.747 24.2585 289.385 23.819 290.127 23.5195C290.876 23.2135 291.699 23.0605 292.598 23.0605C293.171 23.0605 293.714 23.1126 294.229 23.2168C294.749 23.3145 295.247 23.474 295.723 23.6953V25.4238ZM306.719 25.4238C306.243 25.1699 305.755 24.9746 305.254 24.8379C304.753 24.6947 304.206 24.623 303.613 24.623C302.936 24.623 302.334 24.7435 301.807 24.9844C301.279 25.2253 300.833 25.5671 300.469 26.0098C300.111 26.446 299.834 26.9733 299.639 27.5918C299.45 28.2103 299.355 28.8939 299.355 29.6426C299.355 30.4238 299.434 31.1237 299.59 31.7422C299.746 32.3607 299.99 32.8848 300.322 33.3145C300.654 33.7441 301.077 34.0729 301.592 34.3008C302.113 34.5286 302.734 34.6426 303.457 34.6426C303.581 34.6426 303.714 34.6361 303.857 34.623C304.001 34.61 304.144 34.5938 304.287 34.5742C304.43 34.5482 304.567 34.5189 304.697 34.4863C304.834 34.4538 304.954 34.418 305.059 34.3789V30.3164H302.451V28.8809H306.777V35.4043C306.51 35.528 306.227 35.6387 305.928 35.7363C305.635 35.834 305.332 35.9154 305.02 35.9805C304.714 36.0456 304.408 36.0944 304.102 36.127C303.796 36.1595 303.499 36.1758 303.213 36.1758C302.34 36.1758 301.553 36.0391 300.85 35.7656C300.153 35.4922 299.557 35.0885 299.062 34.5547C298.574 34.0143 298.197 33.3438 297.93 32.543C297.669 31.7422 297.539 30.8145 297.539 29.7598C297.539 28.7116 297.686 27.7741 297.979 26.9473C298.271 26.1139 298.682 25.4108 299.209 24.8379C299.743 24.2585 300.381 23.819 301.123 23.5195C301.872 23.2135 302.695 23.0605 303.594 23.0605C304.167 23.0605 304.71 23.1126 305.225 23.2168C305.745 23.3145 306.243 23.474 306.719 23.6953V25.4238ZM339.707 25.4238C339.232 25.1699 338.743 24.9746 338.242 24.8379C337.741 24.6947 337.194 24.623 336.602 24.623C335.924 24.623 335.322 24.7435 334.795 24.9844C334.268 25.2253 333.822 25.5671 333.457 26.0098C333.099 26.446 332.822 26.9733 332.627 27.5918C332.438 28.2103 332.344 28.8939 332.344 29.6426C332.344 30.4238 332.422 31.1237 332.578 31.7422C332.734 32.3607 332.979 32.8848 333.311 33.3145C333.643 33.7441 334.066 34.0729 334.58 34.3008C335.101 34.5286 335.723 34.6426 336.445 34.6426C336.569 34.6426 336.702 34.6361 336.846 34.623C336.989 34.61 337.132 34.5938 337.275 34.5742C337.419 34.5482 337.555 34.5189 337.686 34.4863C337.822 34.4538 337.943 34.418 338.047 34.3789V30.3164H335.439V28.8809H339.766V35.4043C339.499 35.528 339.215 35.6387 338.916 35.7363C338.623 35.834 338.32 35.9154 338.008 35.9805C337.702 36.0456 337.396 36.0944 337.09 36.127C336.784 36.1595 336.488 36.1758 336.201 36.1758C335.329 36.1758 334.541 36.0391 333.838 35.7656C333.141 35.4922 332.546 35.0885 332.051 34.5547C331.562 34.0143 331.185 33.3438 330.918 32.543C330.658 31.7422 330.527 30.8145 330.527 29.7598C330.527 28.7116 330.674 27.7741 330.967 26.9473C331.26 26.1139 331.67 25.4108 332.197 24.8379C332.731 24.2585 333.369 23.819 334.111 23.5195C334.86 23.2135 335.684 23.0605 336.582 23.0605C337.155 23.0605 337.699 23.1126 338.213 23.2168C338.734 23.3145 339.232 23.474 339.707 23.6953V25.4238ZM350.703 25.4238C350.228 25.1699 349.74 24.9746 349.238 24.8379C348.737 24.6947 348.19 24.623 347.598 24.623C346.921 24.623 346.318 24.7435 345.791 24.9844C345.264 25.2253 344.818 25.5671 344.453 26.0098C344.095 26.446 343.818 26.9733 343.623 27.5918C343.434 28.2103 343.34 28.8939 343.34 29.6426C343.34 30.4238 343.418 31.1237 343.574 31.7422C343.73 32.3607 343.975 32.8848 344.307 33.3145C344.639 33.7441 345.062 34.0729 345.576 34.3008C346.097 34.5286 346.719 34.6426 347.441 34.6426C347.565 34.6426 347.699 34.6361 347.842 34.623C347.985 34.61 348.128 34.5938 348.271 34.5742C348.415 34.5482 348.551 34.5189 348.682 34.4863C348.818 34.4538 348.939 34.418 349.043 34.3789V30.3164H346.436V28.8809H350.762V35.4043C350.495 35.528 350.212 35.6387 349.912 35.7363C349.619 35.834 349.316 35.9154 349.004 35.9805C348.698 36.0456 348.392 36.0944 348.086 36.127C347.78 36.1595 347.484 36.1758 347.197 36.1758C346.325 36.1758 345.537 36.0391 344.834 35.7656C344.137 35.4922 343.542 35.0885 343.047 34.5547C342.559 34.0143 342.181 33.3438 341.914 32.543C341.654 31.7422 341.523 30.8145 341.523 29.7598C341.523 28.7116 341.67 27.7741 341.963 26.9473C342.256 26.1139 342.666 25.4108 343.193 24.8379C343.727 24.2585 344.365 23.819 345.107 23.5195C345.856 23.2135 346.68 23.0605 347.578 23.0605C348.151 23.0605 348.695 23.1126 349.209 23.2168C349.73 23.3145 350.228 23.474 350.703 23.6953V25.4238ZM362.773 36H360.879L359.99 33.2168H354.678L353.779 36H351.973L356.211 23.2363H358.594L362.773 36ZM359.492 31.6641L357.334 24.8379L355.176 31.6641H359.492ZM394.688 25.4238C394.212 25.1699 393.724 24.9746 393.223 24.8379C392.721 24.6947 392.174 24.623 391.582 24.623C390.905 24.623 390.303 24.7435 389.775 24.9844C389.248 25.2253 388.802 25.5671 388.438 26.0098C388.079 26.446 387.803 26.9733 387.607 27.5918C387.419 28.2103 387.324 28.8939 387.324 29.6426C387.324 30.4238 387.402 31.1237 387.559 31.7422C387.715 32.3607 387.959 32.8848 388.291 33.3145C388.623 33.7441 389.046 34.0729 389.561 34.3008C390.081 34.5286 390.703 34.6426 391.426 34.6426C391.549 34.6426 391.683 34.6361 391.826 34.623C391.969 34.61 392.113 34.5938 392.256 34.5742C392.399 34.5482 392.536 34.5189 392.666 34.4863C392.803 34.4538 392.923 34.418 393.027 34.3789V30.3164H390.42V28.8809H394.746V35.4043C394.479 35.528 394.196 35.6387 393.896 35.7363C393.604 35.834 393.301 35.9154 392.988 35.9805C392.682 36.0456 392.376 36.0944 392.07 36.127C391.764 36.1595 391.468 36.1758 391.182 36.1758C390.309 36.1758 389.521 36.0391 388.818 35.7656C388.122 35.4922 387.526 35.0885 387.031 34.5547C386.543 34.0143 386.165 33.3438 385.898 32.543C385.638 31.7422 385.508 30.8145 385.508 29.7598C385.508 28.7116 385.654 27.7741 385.947 26.9473C386.24 26.1139 386.65 25.4108 387.178 24.8379C387.712 24.2585 388.35 23.819 389.092 23.5195C389.84 23.2135 390.664 23.0605 391.562 23.0605C392.135 23.0605 392.679 23.1126 393.193 23.2168C393.714 23.3145 394.212 23.474 394.688 23.6953V25.4238ZM406.758 36H404.863L403.975 33.2168H398.662L397.764 36H395.957L400.195 23.2363H402.578L406.758 36ZM403.477 31.6641L401.318 24.8379L399.16 31.6641H403.477ZM417.012 24.7207H413.232V36H411.475V24.7207H407.695V23.2363H417.012V24.7207ZM450.742 36H448.848L447.959 33.2168H442.646L441.748 36H439.941L444.18 23.2363H446.562L450.742 36ZM447.461 31.6641L445.303 24.8379L443.145 31.6641H447.461ZM460.996 24.7207H457.217V36H455.459V24.7207H451.68V23.2363H460.996V24.7207ZM471.66 25.4238C471.185 25.1699 470.697 24.9746 470.195 24.8379C469.694 24.6947 469.147 24.623 468.555 24.623C467.878 24.623 467.275 24.7435 466.748 24.9844C466.221 25.2253 465.775 25.5671 465.41 26.0098C465.052 26.446 464.775 26.9733 464.58 27.5918C464.391 28.2103 464.297 28.8939 464.297 29.6426C464.297 30.4238 464.375 31.1237 464.531 31.7422C464.688 32.3607 464.932 32.8848 465.264 33.3145C465.596 33.7441 466.019 34.0729 466.533 34.3008C467.054 34.5286 467.676 34.6426 468.398 34.6426C468.522 34.6426 468.656 34.6361 468.799 34.623C468.942 34.61 469.085 34.5938 469.229 34.5742C469.372 34.5482 469.508 34.5189 469.639 34.4863C469.775 34.4538 469.896 34.418 470 34.3789V30.3164H467.393V28.8809H471.719V35.4043C471.452 35.528 471.169 35.6387 470.869 35.7363C470.576 35.834 470.273 35.9154 469.961 35.9805C469.655 36.0456 469.349 36.0944 469.043 36.127C468.737 36.1595 468.441 36.1758 468.154 36.1758C467.282 36.1758 466.494 36.0391 465.791 35.7656C465.094 35.4922 464.499 35.0885 464.004 34.5547C463.516 34.0143 463.138 33.3438 462.871 32.543C462.611 31.7422 462.48 30.8145 462.48 29.7598C462.48 28.7116 462.627 27.7741 462.92 26.9473C463.213 26.1139 463.623 25.4108 464.15 24.8379C464.684 24.2585 465.322 23.819 466.064 23.5195C466.813 23.2135 467.637 23.0605 468.535 23.0605C469.108 23.0605 469.652 23.1126 470.166 23.2168C470.687 23.3145 471.185 23.474 471.66 23.6953V25.4238ZM504.98 24.7207H501.201V36H499.443V24.7207H495.664V23.2363H504.98V24.7207ZM515.645 25.4238C515.169 25.1699 514.681 24.9746 514.18 24.8379C513.678 24.6947 513.132 24.623 512.539 24.623C511.862 24.623 511.26 24.7435 510.732 24.9844C510.205 25.2253 509.759 25.5671 509.395 26.0098C509.036 26.446 508.76 26.9733 508.564 27.5918C508.376 28.2103 508.281 28.8939 508.281 29.6426C508.281 30.4238 508.359 31.1237 508.516 31.7422C508.672 32.3607 508.916 32.8848 509.248 33.3145C509.58 33.7441 510.003 34.0729 510.518 34.3008C511.038 34.5286 511.66 34.6426 512.383 34.6426C512.507 34.6426 512.64 34.6361 512.783 34.623C512.926 34.61 513.07 34.5938 513.213 34.5742C513.356 34.5482 513.493 34.5189 513.623 34.4863C513.76 34.4538 513.88 34.418 513.984 34.3789V30.3164H511.377V28.8809H515.703V35.4043C515.436 35.528 515.153 35.6387 514.854 35.7363C514.561 35.834 514.258 35.9154 513.945 35.9805C513.639 36.0456 513.333 36.0944 513.027 36.127C512.721 36.1595 512.425 36.1758 512.139 36.1758C511.266 36.1758 510.479 36.0391 509.775 35.7656C509.079 35.4922 508.483 35.0885 507.988 34.5547C507.5 34.0143 507.122 33.3438 506.855 32.543C506.595 31.7422 506.465 30.8145 506.465 29.7598C506.465 28.7116 506.611 27.7741 506.904 26.9473C507.197 26.1139 507.607 25.4108 508.135 24.8379C508.669 24.2585 509.307 23.819 510.049 23.5195C510.798 23.2135 511.621 23.0605 512.52 23.0605C513.092 23.0605 513.636 23.1126 514.15 23.2168C514.671 23.3145 515.169 23.474 515.645 23.6953V25.4238ZM526.973 24.7207H523.193V36H521.436V24.7207H517.656V23.2363H526.973V24.7207ZM559.629 25.4238C559.154 25.1699 558.665 24.9746 558.164 24.8379C557.663 24.6947 557.116 24.623 556.523 24.623C555.846 24.623 555.244 24.7435 554.717 24.9844C554.189 25.2253 553.743 25.5671 553.379 26.0098C553.021 26.446 552.744 26.9733 552.549 27.5918C552.36 28.2103 552.266 28.8939 552.266 29.6426C552.266 30.4238 552.344 31.1237 552.5 31.7422C552.656 32.3607 552.9 32.8848 553.232 33.3145C553.564 33.7441 553.988 34.0729 554.502 34.3008C555.023 34.5286 555.645 34.6426 556.367 34.6426C556.491 34.6426 556.624 34.6361 556.768 34.623C556.911 34.61 557.054 34.5938 557.197 34.5742C557.34 34.5482 557.477 34.5189 557.607 34.4863C557.744 34.4538 557.865 34.418 557.969 34.3789V30.3164H555.361V28.8809H559.688V35.4043C559.421 35.528 559.137 35.6387 558.838 35.7363C558.545 35.834 558.242 35.9154 557.93 35.9805C557.624 36.0456 557.318 36.0944 557.012 36.127C556.706 36.1595 556.41 36.1758 556.123 36.1758C555.251 36.1758 554.463 36.0391 553.76 35.7656C553.063 35.4922 552.467 35.0885 551.973 34.5547C551.484 34.0143 551.107 33.3438 550.84 32.543C550.579 31.7422 550.449 30.8145 550.449 29.7598C550.449 28.7116 550.596 27.7741 550.889 26.9473C551.182 26.1139 551.592 25.4108 552.119 24.8379C552.653 24.2585 553.291 23.819 554.033 23.5195C554.782 23.2135 555.605 23.0605 556.504 23.0605C557.077 23.0605 557.62 23.1126 558.135 23.2168C558.656 23.3145 559.154 23.474 559.629 23.6953V25.4238ZM570.957 24.7207H567.178V36H565.42V24.7207H561.641V23.2363H570.957V24.7207ZM581.953 24.7207H578.174V36H576.416V24.7207H572.637V23.2363H581.953V24.7207Z" fill="#C9D1D9"/>
</svg>
