<svg width="360" height="68" viewBox="0 0 360 68" fill="none" xmlns="http://www.w3.org/2000/svg">
<g filter="url(#filter0_d)">
<path d="M14.1562 24.7207H10.377V36H8.61914V24.7207H4.83984V23.2363H14.1562V24.7207ZM20.4941 26.0195C20.696 26.0195 20.888 26.0618 21.0703 26.1465C21.2526 26.2246 21.4121 26.332 21.5488 26.4688C21.6855 26.6055 21.793 26.765 21.8711 26.9473C21.9557 27.1296 21.998 27.3216 21.998 27.5234C21.998 27.7318 21.9557 27.9271 21.8711 28.1094C21.793 28.2852 21.6855 28.4414 21.5488 28.5781C21.4121 28.7148 21.2526 28.8223 21.0703 28.9004C20.888 28.9785 20.696 29.0176 20.4941 29.0176C20.2858 29.0176 20.0905 28.9785 19.9082 28.9004C19.7324 28.8223 19.5762 28.7148 19.4395 28.5781C19.3027 28.4414 19.1953 28.2852 19.1172 28.1094C19.0391 27.9271 19 27.7318 19 27.5234C19 27.3216 19.0391 27.1296 19.1172 26.9473C19.1953 26.765 19.3027 26.6055 19.4395 26.4688C19.5762 26.332 19.7324 26.2246 19.9082 26.1465C20.0905 26.0618 20.2858 26.0195 20.4941 26.0195ZM20.4941 33.1777C20.696 33.1777 20.888 33.2201 21.0703 33.3047C21.2526 33.3828 21.4121 33.4902 21.5488 33.627C21.6855 33.7637 21.793 33.9232 21.8711 34.1055C21.9557 34.2878 21.998 34.4798 21.998 34.6816C21.998 34.89 21.9557 35.0853 21.8711 35.2676C21.793 35.4434 21.6855 35.5996 21.5488 35.7363C21.4121 35.873 21.2526 35.9805 21.0703 36.0586C20.888 36.1367 20.696 36.1758 20.4941 36.1758C20.2858 36.1758 20.0905 36.1367 19.9082 36.0586C19.7324 35.9805 19.5762 35.873 19.4395 35.7363C19.3027 35.5996 19.1953 35.4434 19.1172 35.2676C19.0391 35.0853 19 34.89 19 34.6816C19 34.4798 19.0391 34.2878 19.1172 34.1055C19.1953 33.9232 19.3027 33.7637 19.4395 33.627C19.5762 33.4902 19.7324 33.3828 19.9082 33.3047C20.0905 33.2201 20.2858 33.1777 20.4941 33.1777ZM46.8125 25.4238C46.3372 25.1699 45.849 24.9746 45.3477 24.8379C44.8464 24.6947 44.2995 24.623 43.707 24.623C43.0299 24.623 42.4277 24.7435 41.9004 24.9844C41.373 25.2253 40.9271 25.5671 40.5625 26.0098C40.2044 26.446 39.9277 26.9733 39.7324 27.5918C39.5436 28.2103 39.4492 28.8939 39.4492 29.6426C39.4492 30.4238 39.5273 31.1237 39.6836 31.7422C39.8398 32.3607 40.084 32.8848 40.416 33.3145C40.748 33.7441 41.1712 34.0729 41.6855 34.3008C42.2064 34.5286 42.8281 34.6426 43.5508 34.6426C43.6745 34.6426 43.8079 34.6361 43.9512 34.623C44.0944 34.61 44.2376 34.5938 44.3809 34.5742C44.5241 34.5482 44.6608 34.5189 44.791 34.4863C44.9277 34.4538 45.0482 34.418 45.1523 34.3789V30.3164H42.5449V28.8809H46.8711V35.4043C46.6042 35.528 46.321 35.6387 46.0215 35.7363C45.7285 35.834 45.4258 35.9154 45.1133 35.9805C44.8073 36.0456 44.5013 36.0944 44.1953 36.127C43.8893 36.1595 43.5931 36.1758 43.3066 36.1758C42.4342 36.1758 41.6465 36.0391 40.9434 35.7656C40.2467 35.4922 39.651 35.0885 39.1562 34.5547C38.668 34.0143 38.2904 33.3438 38.0234 32.543C37.763 31.7422 37.6328 30.8145 37.6328 29.7598C37.6328 28.7116 37.7793 27.7741 38.0723 26.9473C38.3652 26.1139 38.7754 25.4108 39.3027 24.8379C39.8366 24.2585 40.4746 23.819 41.2168 23.5195C41.9655 23.2135 42.7891 23.0605 43.6875 23.0605C44.2604 23.0605 44.804 23.1126 45.3184 23.2168C45.8392 23.3145 46.3372 23.474 46.8125 23.6953V25.4238ZM58.1406 24.7207H54.3613V36H52.6035V24.7207H48.8242V23.2363H58.1406V24.7207ZM69.1367 24.7207H65.3574V36H63.5996V24.7207H59.8203V23.2363H69.1367V24.7207ZM80.875 36H78.9805L78.0918 33.2168H72.7793L71.8809 36H70.0742L74.3125 23.2363H76.6953L80.875 36ZM77.5938 31.6641L75.4355 24.8379L73.2773 31.6641H77.5938ZM91.1289 24.7207H87.3496V36H85.5918V24.7207H81.8125V23.2363H91.1289V24.7207ZM102.867 36H100.973L100.084 33.2168H94.7715L93.873 36H92.0664L96.3047 23.2363H98.6875L102.867 36ZM99.5859 31.6641L97.4277 24.8379L95.2695 31.6641H99.5859ZM112.789 25.4238C112.314 25.1699 111.826 24.9746 111.324 24.8379C110.823 24.6947 110.276 24.623 109.684 24.623C109.007 24.623 108.404 24.7435 107.877 24.9844C107.35 25.2253 106.904 25.5671 106.539 26.0098C106.181 26.446 105.904 26.9733 105.709 27.5918C105.52 28.2103 105.426 28.8939 105.426 29.6426C105.426 30.4238 105.504 31.1237 105.66 31.7422C105.816 32.3607 106.061 32.8848 106.393 33.3145C106.725 33.7441 107.148 34.0729 107.662 34.3008C108.183 34.5286 108.805 34.6426 109.527 34.6426C109.651 34.6426 109.785 34.6361 109.928 34.623C110.071 34.61 110.214 34.5938 110.357 34.5742C110.501 34.5482 110.637 34.5189 110.768 34.4863C110.904 34.4538 111.025 34.418 111.129 34.3789V30.3164H108.521V28.8809H112.848V35.4043C112.581 35.528 112.298 35.6387 111.998 35.7363C111.705 35.834 111.402 35.9154 111.09 35.9805C110.784 36.0456 110.478 36.0944 110.172 36.127C109.866 36.1595 109.57 36.1758 109.283 36.1758C108.411 36.1758 107.623 36.0391 106.92 35.7656C106.223 35.4922 105.628 35.0885 105.133 34.5547C104.645 34.0143 104.267 33.3438 104 32.543C103.74 31.7422 103.609 30.8145 103.609 29.7598C103.609 28.7116 103.756 27.7741 104.049 26.9473C104.342 26.1139 104.752 25.4108 105.279 24.8379C105.813 24.2585 106.451 23.819 107.193 23.5195C107.942 23.2135 108.766 23.0605 109.664 23.0605C110.237 23.0605 110.781 23.1126 111.295 23.2168C111.816 23.3145 112.314 23.474 112.789 23.6953V25.4238ZM123.678 35.5215C122.656 35.9447 121.585 36.1562 120.465 36.1562C118.661 36.1562 117.275 35.6191 116.305 34.5449C115.341 33.4642 114.859 31.8691 114.859 29.7598C114.859 28.7376 114.993 27.8132 115.26 26.9863C115.527 26.1595 115.908 25.4596 116.402 24.8867C116.897 24.3073 117.496 23.8613 118.199 23.5488C118.902 23.2363 119.69 23.0801 120.562 23.0801C121.155 23.0801 121.705 23.1322 122.213 23.2363C122.721 23.334 123.209 23.487 123.678 23.6953V25.4043C123.215 25.1504 122.737 24.9583 122.242 24.8281C121.747 24.6914 121.207 24.623 120.621 24.623C120.022 24.623 119.479 24.737 118.99 24.9648C118.508 25.1862 118.098 25.5117 117.76 25.9414C117.421 26.3646 117.161 26.8854 116.979 27.5039C116.796 28.1159 116.705 28.8158 116.705 29.6035C116.705 31.2572 117.04 32.5039 117.711 33.3438C118.382 34.1836 119.365 34.6035 120.66 34.6035C121.207 34.6035 121.731 34.5417 122.232 34.418C122.734 34.2878 123.215 34.1087 123.678 33.8809V35.5215ZM145.777 25.4238C145.302 25.1699 144.814 24.9746 144.312 24.8379C143.811 24.6947 143.264 24.623 142.672 24.623C141.995 24.623 141.393 24.7435 140.865 24.9844C140.338 25.2253 139.892 25.5671 139.527 26.0098C139.169 26.446 138.893 26.9733 138.697 27.5918C138.508 28.2103 138.414 28.8939 138.414 29.6426C138.414 30.4238 138.492 31.1237 138.648 31.7422C138.805 32.3607 139.049 32.8848 139.381 33.3145C139.713 33.7441 140.136 34.0729 140.65 34.3008C141.171 34.5286 141.793 34.6426 142.516 34.6426C142.639 34.6426 142.773 34.6361 142.916 34.623C143.059 34.61 143.202 34.5938 143.346 34.5742C143.489 34.5482 143.626 34.5189 143.756 34.4863C143.893 34.4538 144.013 34.418 144.117 34.3789V30.3164H141.51V28.8809H145.836V35.4043C145.569 35.528 145.286 35.6387 144.986 35.7363C144.693 35.834 144.391 35.9154 144.078 35.9805C143.772 36.0456 143.466 36.0944 143.16 36.127C142.854 36.1595 142.558 36.1758 142.271 36.1758C141.399 36.1758 140.611 36.0391 139.908 35.7656C139.212 35.4922 138.616 35.0885 138.121 34.5547C137.633 34.0143 137.255 33.3438 136.988 32.543C136.728 31.7422 136.598 30.8145 136.598 29.7598C136.598 28.7116 136.744 27.7741 137.037 26.9473C137.33 26.1139 137.74 25.4108 138.268 24.8379C138.801 24.2585 139.439 23.819 140.182 23.5195C140.93 23.2135 141.754 23.0605 142.652 23.0605C143.225 23.0605 143.769 23.1126 144.283 23.2168C144.804 23.3145 145.302 23.474 145.777 23.6953V25.4238ZM157.848 36H155.953L155.064 33.2168H149.752L148.854 36H147.047L151.285 23.2363H153.668L157.848 36ZM154.566 31.6641L152.408 24.8379L150.25 31.6641H154.566ZM168.102 24.7207H164.322V36H162.564V24.7207H158.785V23.2363H168.102V24.7207ZM178.658 35.5215C177.636 35.9447 176.565 36.1562 175.445 36.1562C173.642 36.1562 172.255 35.6191 171.285 34.5449C170.322 33.4642 169.84 31.8691 169.84 29.7598C169.84 28.7376 169.973 27.8132 170.24 26.9863C170.507 26.1595 170.888 25.4596 171.383 24.8867C171.878 24.3073 172.477 23.8613 173.18 23.5488C173.883 23.2363 174.671 23.0801 175.543 23.0801C176.135 23.0801 176.686 23.1322 177.193 23.2363C177.701 23.334 178.189 23.487 178.658 23.6953V25.4043C178.196 25.1504 177.717 24.9583 177.223 24.8281C176.728 24.6914 176.188 24.623 175.602 24.623C175.003 24.623 174.459 24.737 173.971 24.9648C173.489 25.1862 173.079 25.5117 172.74 25.9414C172.402 26.3646 172.141 26.8854 171.959 27.5039C171.777 28.1159 171.686 28.8158 171.686 29.6035C171.686 31.2572 172.021 32.5039 172.691 33.3438C173.362 34.1836 174.345 34.6035 175.641 34.6035C176.188 34.6035 176.712 34.5417 177.213 34.418C177.714 34.2878 178.196 34.1087 178.658 33.8809V35.5215ZM189.762 25.4238C189.286 25.1699 188.798 24.9746 188.297 24.8379C187.796 24.6947 187.249 24.623 186.656 24.623C185.979 24.623 185.377 24.7435 184.85 24.9844C184.322 25.2253 183.876 25.5671 183.512 26.0098C183.154 26.446 182.877 26.9733 182.682 27.5918C182.493 28.2103 182.398 28.8939 182.398 29.6426C182.398 30.4238 182.477 31.1237 182.633 31.7422C182.789 32.3607 183.033 32.8848 183.365 33.3145C183.697 33.7441 184.12 34.0729 184.635 34.3008C185.156 34.5286 185.777 34.6426 186.5 34.6426C186.624 34.6426 186.757 34.6361 186.9 34.623C187.044 34.61 187.187 34.5938 187.33 34.5742C187.473 34.5482 187.61 34.5189 187.74 34.4863C187.877 34.4538 187.997 34.418 188.102 34.3789V30.3164H185.494V28.8809H189.82V35.4043C189.553 35.528 189.27 35.6387 188.971 35.7363C188.678 35.834 188.375 35.9154 188.062 35.9805C187.757 36.0456 187.451 36.0944 187.145 36.127C186.839 36.1595 186.542 36.1758 186.256 36.1758C185.383 36.1758 184.596 36.0391 183.893 35.7656C183.196 35.4922 182.6 35.0885 182.105 34.5547C181.617 34.0143 181.24 33.3438 180.973 32.543C180.712 31.7422 180.582 30.8145 180.582 29.7598C180.582 28.7116 180.729 27.7741 181.021 26.9473C181.314 26.1139 181.725 25.4108 182.252 24.8379C182.786 24.2585 183.424 23.819 184.166 23.5195C184.915 23.2135 185.738 23.0605 186.637 23.0605C187.21 23.0605 187.753 23.1126 188.268 23.2168C188.788 23.3145 189.286 23.474 189.762 23.6953V25.4238ZM200.65 35.5215C199.628 35.9447 198.557 36.1562 197.438 36.1562C195.634 36.1562 194.247 35.6191 193.277 34.5449C192.314 33.4642 191.832 31.8691 191.832 29.7598C191.832 28.7376 191.965 27.8132 192.232 26.9863C192.499 26.1595 192.88 25.4596 193.375 24.8867C193.87 24.3073 194.469 23.8613 195.172 23.5488C195.875 23.2363 196.663 23.0801 197.535 23.0801C198.128 23.0801 198.678 23.1322 199.186 23.2363C199.693 23.334 200.182 23.487 200.65 23.6953V25.4043C200.188 25.1504 199.71 24.9583 199.215 24.8281C198.72 24.6914 198.18 24.623 197.594 24.623C196.995 24.623 196.451 24.737 195.963 24.9648C195.481 25.1862 195.071 25.5117 194.732 25.9414C194.394 26.3646 194.133 26.8854 193.951 27.5039C193.769 28.1159 193.678 28.8158 193.678 29.6035C193.678 31.2572 194.013 32.5039 194.684 33.3438C195.354 34.1836 196.337 34.6035 197.633 34.6035C198.18 34.6035 198.704 34.5417 199.205 34.418C199.706 34.2878 200.188 34.1087 200.65 33.8809V35.5215ZM211.754 25.4238C211.279 25.1699 210.79 24.9746 210.289 24.8379C209.788 24.6947 209.241 24.623 208.648 24.623C207.971 24.623 207.369 24.7435 206.842 24.9844C206.314 25.2253 205.868 25.5671 205.504 26.0098C205.146 26.446 204.869 26.9733 204.674 27.5918C204.485 28.2103 204.391 28.8939 204.391 29.6426C204.391 30.4238 204.469 31.1237 204.625 31.7422C204.781 32.3607 205.025 32.8848 205.357 33.3145C205.689 33.7441 206.113 34.0729 206.627 34.3008C207.148 34.5286 207.77 34.6426 208.492 34.6426C208.616 34.6426 208.749 34.6361 208.893 34.623C209.036 34.61 209.179 34.5938 209.322 34.5742C209.465 34.5482 209.602 34.5189 209.732 34.4863C209.869 34.4538 209.99 34.418 210.094 34.3789V30.3164H207.486V28.8809H211.812V35.4043C211.546 35.528 211.262 35.6387 210.963 35.7363C210.67 35.834 210.367 35.9154 210.055 35.9805C209.749 36.0456 209.443 36.0944 209.137 36.127C208.831 36.1595 208.535 36.1758 208.248 36.1758C207.376 36.1758 206.588 36.0391 205.885 35.7656C205.188 35.4922 204.592 35.0885 204.098 34.5547C203.609 34.0143 203.232 33.3438 202.965 32.543C202.704 31.7422 202.574 30.8145 202.574 29.7598C202.574 28.7116 202.721 27.7741 203.014 26.9473C203.307 26.1139 203.717 25.4108 204.244 24.8379C204.778 24.2585 205.416 23.819 206.158 23.5195C206.907 23.2135 207.73 23.0605 208.629 23.0605C209.202 23.0605 209.745 23.1126 210.26 23.2168C210.781 23.3145 211.279 23.474 211.754 23.6953V25.4238ZM222.75 25.4238C222.275 25.1699 221.786 24.9746 221.285 24.8379C220.784 24.6947 220.237 24.623 219.645 24.623C218.967 24.623 218.365 24.7435 217.838 24.9844C217.311 25.2253 216.865 25.5671 216.5 26.0098C216.142 26.446 215.865 26.9733 215.67 27.5918C215.481 28.2103 215.387 28.8939 215.387 29.6426C215.387 30.4238 215.465 31.1237 215.621 31.7422C215.777 32.3607 216.021 32.8848 216.354 33.3145C216.686 33.7441 217.109 34.0729 217.623 34.3008C218.144 34.5286 218.766 34.6426 219.488 34.6426C219.612 34.6426 219.745 34.6361 219.889 34.623C220.032 34.61 220.175 34.5938 220.318 34.5742C220.462 34.5482 220.598 34.5189 220.729 34.4863C220.865 34.4538 220.986 34.418 221.09 34.3789V30.3164H218.482V28.8809H222.809V35.4043C222.542 35.528 222.258 35.6387 221.959 35.7363C221.666 35.834 221.363 35.9154 221.051 35.9805C220.745 36.0456 220.439 36.0944 220.133 36.127C219.827 36.1595 219.531 36.1758 219.244 36.1758C218.372 36.1758 217.584 36.0391 216.881 35.7656C216.184 35.4922 215.589 35.0885 215.094 34.5547C214.605 34.0143 214.228 33.3438 213.961 32.543C213.701 31.7422 213.57 30.8145 213.57 29.7598C213.57 28.7116 213.717 27.7741 214.01 26.9473C214.303 26.1139 214.713 25.4108 215.24 24.8379C215.774 24.2585 216.412 23.819 217.154 23.5195C217.903 23.2135 218.727 23.0605 219.625 23.0605C220.198 23.0605 220.742 23.1126 221.256 23.2168C221.777 23.3145 222.275 23.474 222.75 23.6953V25.4238ZM233.639 35.5215C232.617 35.9447 231.546 36.1562 230.426 36.1562C228.622 36.1562 227.236 35.6191 226.266 34.5449C225.302 33.4642 224.82 31.8691 224.82 29.7598C224.82 28.7376 224.954 27.8132 225.221 26.9863C225.488 26.1595 225.868 25.4596 226.363 24.8867C226.858 24.3073 227.457 23.8613 228.16 23.5488C228.863 23.2363 229.651 23.0801 230.523 23.0801C231.116 23.0801 231.666 23.1322 232.174 23.2363C232.682 23.334 233.17 23.487 233.639 23.6953V25.4043C233.176 25.1504 232.698 24.9583 232.203 24.8281C231.708 24.6914 231.168 24.623 230.582 24.623C229.983 24.623 229.439 24.737 228.951 24.9648C228.469 25.1862 228.059 25.5117 227.721 25.9414C227.382 26.3646 227.122 26.8854 226.939 27.5039C226.757 28.1159 226.666 28.8158 226.666 29.6035C226.666 31.2572 227.001 32.5039 227.672 33.3438C228.342 34.1836 229.326 34.6035 230.621 34.6035C231.168 34.6035 231.692 34.5417 232.193 34.418C232.695 34.2878 233.176 34.1087 233.639 33.8809V35.5215ZM244.742 25.4238C244.267 25.1699 243.779 24.9746 243.277 24.8379C242.776 24.6947 242.229 24.623 241.637 24.623C240.96 24.623 240.357 24.7435 239.83 24.9844C239.303 25.2253 238.857 25.5671 238.492 26.0098C238.134 26.446 237.857 26.9733 237.662 27.5918C237.473 28.2103 237.379 28.8939 237.379 29.6426C237.379 30.4238 237.457 31.1237 237.613 31.7422C237.77 32.3607 238.014 32.8848 238.346 33.3145C238.678 33.7441 239.101 34.0729 239.615 34.3008C240.136 34.5286 240.758 34.6426 241.48 34.6426C241.604 34.6426 241.738 34.6361 241.881 34.623C242.024 34.61 242.167 34.5938 242.311 34.5742C242.454 34.5482 242.59 34.5189 242.721 34.4863C242.857 34.4538 242.978 34.418 243.082 34.3789V30.3164H240.475V28.8809H244.801V35.4043C244.534 35.528 244.251 35.6387 243.951 35.7363C243.658 35.834 243.355 35.9154 243.043 35.9805C242.737 36.0456 242.431 36.0944 242.125 36.127C241.819 36.1595 241.523 36.1758 241.236 36.1758C240.364 36.1758 239.576 36.0391 238.873 35.7656C238.176 35.4922 237.581 35.0885 237.086 34.5547C236.598 34.0143 236.22 33.3438 235.953 32.543C235.693 31.7422 235.562 30.8145 235.562 29.7598C235.562 28.7116 235.709 27.7741 236.002 26.9473C236.295 26.1139 236.705 25.4108 237.232 24.8379C237.766 24.2585 238.404 23.819 239.146 23.5195C239.895 23.2135 240.719 23.0605 241.617 23.0605C242.19 23.0605 242.734 23.1126 243.248 23.2168C243.769 23.3145 244.267 23.474 244.742 23.6953V25.4238ZM256.07 24.7207H252.291V36H250.533V24.7207H246.754V23.2363H256.07V24.7207ZM267.809 36H265.914L265.025 33.2168H259.713L258.814 36H257.008L261.246 23.2363H263.629L267.809 36ZM264.527 31.6641L262.369 24.8379L260.211 31.6641H264.527ZM277.73 25.4238C277.255 25.1699 276.767 24.9746 276.266 24.8379C275.764 24.6947 275.217 24.623 274.625 24.623C273.948 24.623 273.346 24.7435 272.818 24.9844C272.291 25.2253 271.845 25.5671 271.48 26.0098C271.122 26.446 270.846 26.9733 270.65 27.5918C270.462 28.2103 270.367 28.8939 270.367 29.6426C270.367 30.4238 270.445 31.1237 270.602 31.7422C270.758 32.3607 271.002 32.8848 271.334 33.3145C271.666 33.7441 272.089 34.0729 272.604 34.3008C273.124 34.5286 273.746 34.6426 274.469 34.6426C274.592 34.6426 274.726 34.6361 274.869 34.623C275.012 34.61 275.156 34.5938 275.299 34.5742C275.442 34.5482 275.579 34.5189 275.709 34.4863C275.846 34.4538 275.966 34.418 276.07 34.3789V30.3164H273.463V28.8809H277.789V35.4043C277.522 35.528 277.239 35.6387 276.939 35.7363C276.646 35.834 276.344 35.9154 276.031 35.9805C275.725 36.0456 275.419 36.0944 275.113 36.127C274.807 36.1595 274.511 36.1758 274.225 36.1758C273.352 36.1758 272.564 36.0391 271.861 35.7656C271.165 35.4922 270.569 35.0885 270.074 34.5547C269.586 34.0143 269.208 33.3438 268.941 32.543C268.681 31.7422 268.551 30.8145 268.551 29.7598C268.551 28.7116 268.697 27.7741 268.99 26.9473C269.283 26.1139 269.693 25.4108 270.221 24.8379C270.755 24.2585 271.393 23.819 272.135 23.5195C272.883 23.2135 273.707 23.0605 274.605 23.0605C275.178 23.0605 275.722 23.1126 276.236 23.2168C276.757 23.3145 277.255 23.474 277.73 23.6953V25.4238ZM288.619 35.5215C287.597 35.9447 286.526 36.1562 285.406 36.1562C283.603 36.1562 282.216 35.6191 281.246 34.5449C280.283 33.4642 279.801 31.8691 279.801 29.7598C279.801 28.7376 279.934 27.8132 280.201 26.9863C280.468 26.1595 280.849 25.4596 281.344 24.8867C281.839 24.3073 282.438 23.8613 283.141 23.5488C283.844 23.2363 284.632 23.0801 285.504 23.0801C286.096 23.0801 286.646 23.1322 287.154 23.2363C287.662 23.334 288.15 23.487 288.619 23.6953V25.4043C288.157 25.1504 287.678 24.9583 287.184 24.8281C286.689 24.6914 286.148 24.623 285.562 24.623C284.964 24.623 284.42 24.737 283.932 24.9648C283.45 25.1862 283.04 25.5117 282.701 25.9414C282.363 26.3646 282.102 26.8854 281.92 27.5039C281.738 28.1159 281.646 28.8158 281.646 29.6035C281.646 31.2572 281.982 32.5039 282.652 33.3438C283.323 34.1836 284.306 34.6035 285.602 34.6035C286.148 34.6035 286.673 34.5417 287.174 34.418C287.675 34.2878 288.157 34.1087 288.619 33.8809V35.5215ZM299.723 25.4238C299.247 25.1699 298.759 24.9746 298.258 24.8379C297.757 24.6947 297.21 24.623 296.617 24.623C295.94 24.623 295.338 24.7435 294.811 24.9844C294.283 25.2253 293.837 25.5671 293.473 26.0098C293.115 26.446 292.838 26.9733 292.643 27.5918C292.454 28.2103 292.359 28.8939 292.359 29.6426C292.359 30.4238 292.438 31.1237 292.594 31.7422C292.75 32.3607 292.994 32.8848 293.326 33.3145C293.658 33.7441 294.081 34.0729 294.596 34.3008C295.117 34.5286 295.738 34.6426 296.461 34.6426C296.585 34.6426 296.718 34.6361 296.861 34.623C297.005 34.61 297.148 34.5938 297.291 34.5742C297.434 34.5482 297.571 34.5189 297.701 34.4863C297.838 34.4538 297.958 34.418 298.062 34.3789V30.3164H295.455V28.8809H299.781V35.4043C299.514 35.528 299.231 35.6387 298.932 35.7363C298.639 35.834 298.336 35.9154 298.023 35.9805C297.717 36.0456 297.411 36.0944 297.105 36.127C296.799 36.1595 296.503 36.1758 296.217 36.1758C295.344 36.1758 294.557 36.0391 293.854 35.7656C293.157 35.4922 292.561 35.0885 292.066 34.5547C291.578 34.0143 291.201 33.3438 290.934 32.543C290.673 31.7422 290.543 30.8145 290.543 29.7598C290.543 28.7116 290.689 27.7741 290.982 26.9473C291.275 26.1139 291.686 25.4108 292.213 24.8379C292.747 24.2585 293.385 23.819 294.127 23.5195C294.876 23.2135 295.699 23.0605 296.598 23.0605C297.171 23.0605 297.714 23.1126 298.229 23.2168C298.749 23.3145 299.247 23.474 299.723 23.6953V25.4238ZM310.719 25.4238C310.243 25.1699 309.755 24.9746 309.254 24.8379C308.753 24.6947 308.206 24.623 307.613 24.623C306.936 24.623 306.334 24.7435 305.807 24.9844C305.279 25.2253 304.833 25.5671 304.469 26.0098C304.111 26.446 303.834 26.9733 303.639 27.5918C303.45 28.2103 303.355 28.8939 303.355 29.6426C303.355 30.4238 303.434 31.1237 303.59 31.7422C303.746 32.3607 303.99 32.8848 304.322 33.3145C304.654 33.7441 305.077 34.0729 305.592 34.3008C306.113 34.5286 306.734 34.6426 307.457 34.6426C307.581 34.6426 307.714 34.6361 307.857 34.623C308.001 34.61 308.144 34.5938 308.287 34.5742C308.43 34.5482 308.567 34.5189 308.697 34.4863C308.834 34.4538 308.954 34.418 309.059 34.3789V30.3164H306.451V28.8809H310.777V35.4043C310.51 35.528 310.227 35.6387 309.928 35.7363C309.635 35.834 309.332 35.9154 309.02 35.9805C308.714 36.0456 308.408 36.0944 308.102 36.127C307.796 36.1595 307.499 36.1758 307.213 36.1758C306.34 36.1758 305.553 36.0391 304.85 35.7656C304.153 35.4922 303.557 35.0885 303.062 34.5547C302.574 34.0143 302.197 33.3438 301.93 32.543C301.669 31.7422 301.539 30.8145 301.539 29.7598C301.539 28.7116 301.686 27.7741 301.979 26.9473C302.271 26.1139 302.682 25.4108 303.209 24.8379C303.743 24.2585 304.381 23.819 305.123 23.5195C305.872 23.2135 306.695 23.0605 307.594 23.0605C308.167 23.0605 308.71 23.1126 309.225 23.2168C309.745 23.3145 310.243 23.474 310.719 23.6953V25.4238ZM321.607 35.5215C320.585 35.9447 319.514 36.1562 318.395 36.1562C316.591 36.1562 315.204 35.6191 314.234 34.5449C313.271 33.4642 312.789 31.8691 312.789 29.7598C312.789 28.7376 312.923 27.8132 313.189 26.9863C313.456 26.1595 313.837 25.4596 314.332 24.8867C314.827 24.3073 315.426 23.8613 316.129 23.5488C316.832 23.2363 317.62 23.0801 318.492 23.0801C319.085 23.0801 319.635 23.1322 320.143 23.2363C320.65 23.334 321.139 23.487 321.607 23.6953V25.4043C321.145 25.1504 320.667 24.9583 320.172 24.8281C319.677 24.6914 319.137 24.623 318.551 24.623C317.952 24.623 317.408 24.737 316.92 24.9648C316.438 25.1862 316.028 25.5117 315.689 25.9414C315.351 26.3646 315.09 26.8854 314.908 27.5039C314.726 28.1159 314.635 28.8158 314.635 29.6035C314.635 31.2572 314.97 32.5039 315.641 33.3438C316.311 34.1836 317.294 34.6035 318.59 34.6035C319.137 34.6035 319.661 34.5417 320.162 34.418C320.663 34.2878 321.145 34.1087 321.607 33.8809V35.5215ZM332.711 25.4238C332.236 25.1699 331.747 24.9746 331.246 24.8379C330.745 24.6947 330.198 24.623 329.605 24.623C328.928 24.623 328.326 24.7435 327.799 24.9844C327.271 25.2253 326.826 25.5671 326.461 26.0098C326.103 26.446 325.826 26.9733 325.631 27.5918C325.442 28.2103 325.348 28.8939 325.348 29.6426C325.348 30.4238 325.426 31.1237 325.582 31.7422C325.738 32.3607 325.982 32.8848 326.314 33.3145C326.646 33.7441 327.07 34.0729 327.584 34.3008C328.105 34.5286 328.727 34.6426 329.449 34.6426C329.573 34.6426 329.706 34.6361 329.85 34.623C329.993 34.61 330.136 34.5938 330.279 34.5742C330.423 34.5482 330.559 34.5189 330.689 34.4863C330.826 34.4538 330.947 34.418 331.051 34.3789V30.3164H328.443V28.8809H332.77V35.4043C332.503 35.528 332.219 35.6387 331.92 35.7363C331.627 35.834 331.324 35.9154 331.012 35.9805C330.706 36.0456 330.4 36.0944 330.094 36.127C329.788 36.1595 329.492 36.1758 329.205 36.1758C328.333 36.1758 327.545 36.0391 326.842 35.7656C326.145 35.4922 325.549 35.0885 325.055 34.5547C324.566 34.0143 324.189 33.3438 323.922 32.543C323.661 31.7422 323.531 30.8145 323.531 29.7598C323.531 28.7116 323.678 27.7741 323.971 26.9473C324.264 26.1139 324.674 25.4108 325.201 24.8379C325.735 24.2585 326.373 23.819 327.115 23.5195C327.864 23.2135 328.688 23.0605 329.586 23.0605C330.159 23.0605 330.702 23.1126 331.217 23.2168C331.738 23.3145 332.236 23.474 332.711 23.6953V25.4238ZM344.781 36H342.887L341.998 33.2168H336.686L335.787 36H333.98L338.219 23.2363H340.602L344.781 36ZM341.5 31.6641L339.342 24.8379L337.184 31.6641H341.5ZM355.777 36H353.883L352.994 33.2168H347.682L346.783 36H344.977L349.215 23.2363H351.598L355.777 36ZM352.496 31.6641L350.338 24.8379L348.18 31.6641H352.496ZM13.9219 50.1426C13.9219 50.6634 13.8242 51.181 13.6289 51.6953C13.4336 52.2031 13.1309 52.6589 12.7207 53.0625C12.3105 53.4661 11.7865 53.7949 11.1484 54.0488C10.5104 54.2962 9.7487 54.4199 8.86328 54.4199H7.28125V59H5.54297V46.2363H9.13672C9.76823 46.2363 10.3737 46.3079 10.9531 46.4512C11.5326 46.5879 12.0404 46.8125 12.4766 47.125C12.9193 47.4375 13.2708 47.8411 13.5312 48.3359C13.7917 48.8307 13.9219 49.4329 13.9219 50.1426ZM12.1152 50.2207C12.1152 49.4004 11.8451 48.7721 11.3047 48.3359C10.7708 47.8997 10.0221 47.6816 9.05859 47.6816H7.28125V52.9355H8.90234C9.93099 52.9355 10.722 52.7109 11.2754 52.2617C11.8353 51.8125 12.1152 51.1322 12.1152 50.2207ZM20.4941 49.0195C20.696 49.0195 20.888 49.0618 21.0703 49.1465C21.2526 49.2246 21.4121 49.332 21.5488 49.4688C21.6855 49.6055 21.793 49.765 21.8711 49.9473C21.9557 50.1296 21.998 50.3216 21.998 50.5234C21.998 50.7318 21.9557 50.9271 21.8711 51.1094C21.793 51.2852 21.6855 51.4414 21.5488 51.5781C21.4121 51.7148 21.2526 51.8223 21.0703 51.9004C20.888 51.9785 20.696 52.0176 20.4941 52.0176C20.2858 52.0176 20.0905 51.9785 19.9082 51.9004C19.7324 51.8223 19.5762 51.7148 19.4395 51.5781C19.3027 51.4414 19.1953 51.2852 19.1172 51.1094C19.0391 50.9271 19 50.7318 19 50.5234C19 50.3216 19.0391 50.1296 19.1172 49.9473C19.1953 49.765 19.3027 49.6055 19.4395 49.4688C19.5762 49.332 19.7324 49.2246 19.9082 49.1465C20.0905 49.0618 20.2858 49.0195 20.4941 49.0195ZM20.4941 56.1777C20.696 56.1777 20.888 56.2201 21.0703 56.3047C21.2526 56.3828 21.4121 56.4902 21.5488 56.627C21.6855 56.7637 21.793 56.9232 21.8711 57.1055C21.9557 57.2878 21.998 57.4798 21.998 57.6816C21.998 57.89 21.9557 58.0853 21.8711 58.2676C21.793 58.4434 21.6855 58.5996 21.5488 58.7363C21.4121 58.873 21.2526 58.9805 21.0703 59.0586C20.888 59.1367 20.696 59.1758 20.4941 59.1758C20.2858 59.1758 20.0905 59.1367 19.9082 59.0586C19.7324 58.9805 19.5762 58.873 19.4395 58.7363C19.3027 58.5996 19.1953 58.4434 19.1172 58.2676C19.0391 58.0853 19 57.89 19 57.6816C19 57.4798 19.0391 57.2878 19.1172 57.1055C19.1953 56.9232 19.3027 56.7637 19.4395 56.627C19.5762 56.4902 19.7324 56.3828 19.9082 56.3047C20.0905 56.2201 20.2858 56.1777 20.4941 56.1777ZM46.8125 48.4238C46.3372 48.1699 45.849 47.9746 45.3477 47.8379C44.8464 47.6947 44.2995 47.623 43.707 47.623C43.0299 47.623 42.4277 47.7435 41.9004 47.9844C41.373 48.2253 40.9271 48.5671 40.5625 49.0098C40.2044 49.446 39.9277 49.9733 39.7324 50.5918C39.5436 51.2103 39.4492 51.8939 39.4492 52.6426C39.4492 53.4238 39.5273 54.1237 39.6836 54.7422C39.8398 55.3607 40.084 55.8848 40.416 56.3145C40.748 56.7441 41.1712 57.0729 41.6855 57.3008C42.2064 57.5286 42.8281 57.6426 43.5508 57.6426C43.6745 57.6426 43.8079 57.6361 43.9512 57.623C44.0944 57.61 44.2376 57.5938 44.3809 57.5742C44.5241 57.5482 44.6608 57.5189 44.791 57.4863C44.9277 57.4538 45.0482 57.418 45.1523 57.3789V53.3164H42.5449V51.8809H46.8711V58.4043C46.6042 58.528 46.321 58.6387 46.0215 58.7363C45.7285 58.834 45.4258 58.9154 45.1133 58.9805C44.8073 59.0456 44.5013 59.0944 44.1953 59.127C43.8893 59.1595 43.5931 59.1758 43.3066 59.1758C42.4342 59.1758 41.6465 59.0391 40.9434 58.7656C40.2467 58.4922 39.651 58.0885 39.1562 57.5547C38.668 57.0143 38.2904 56.3438 38.0234 55.543C37.763 54.7422 37.6328 53.8145 37.6328 52.7598C37.6328 51.7116 37.7793 50.7741 38.0723 49.9473C38.3652 49.1139 38.7754 48.4108 39.3027 47.8379C39.8366 47.2585 40.4746 46.819 41.2168 46.5195C41.9655 46.2135 42.7891 46.0605 43.6875 46.0605C44.2604 46.0605 44.804 46.1126 45.3184 46.2168C45.8392 46.3145 46.3372 46.474 46.8125 46.6953V48.4238ZM58.1406 47.7207H54.3613V59H52.6035V47.7207H48.8242V46.2363H58.1406V47.7207ZM69.8789 59H67.9844L67.0957 56.2168H61.7832L60.8848 59H59.0781L63.3164 46.2363H65.6992L69.8789 59ZM66.5977 54.6641L64.4395 47.8379L62.2812 54.6641H66.5977ZM79.8008 48.4238C79.3255 48.1699 78.8372 47.9746 78.3359 47.8379C77.8346 47.6947 77.2878 47.623 76.6953 47.623C76.0182 47.623 75.416 47.7435 74.8887 47.9844C74.3613 48.2253 73.9154 48.5671 73.5508 49.0098C73.1927 49.446 72.916 49.9733 72.7207 50.5918C72.5319 51.2103 72.4375 51.8939 72.4375 52.6426C72.4375 53.4238 72.5156 54.1237 72.6719 54.7422C72.8281 55.3607 73.0723 55.8848 73.4043 56.3145C73.7363 56.7441 74.1595 57.0729 74.6738 57.3008C75.1947 57.5286 75.8164 57.6426 76.5391 57.6426C76.6628 57.6426 76.7962 57.6361 76.9395 57.623C77.0827 57.61 77.2259 57.5938 77.3691 57.5742C77.5124 57.5482 77.6491 57.5189 77.7793 57.4863C77.916 57.4538 78.0365 57.418 78.1406 57.3789V53.3164H75.5332V51.8809H79.8594V58.4043C79.5924 58.528 79.3092 58.6387 79.0098 58.7363C78.7168 58.834 78.4141 58.9154 78.1016 58.9805C77.7956 59.0456 77.4896 59.0944 77.1836 59.127C76.8776 59.1595 76.5814 59.1758 76.2949 59.1758C75.4225 59.1758 74.6348 59.0391 73.9316 58.7656C73.235 58.4922 72.6393 58.0885 72.1445 57.5547C71.6562 57.0143 71.2786 56.3438 71.0117 55.543C70.7513 54.7422 70.6211 53.8145 70.6211 52.7598C70.6211 51.7116 70.7676 50.7741 71.0605 49.9473C71.3535 49.1139 71.7637 48.4108 72.291 47.8379C72.8249 47.2585 73.4629 46.819 74.2051 46.5195C74.9538 46.2135 75.7773 46.0605 76.6758 46.0605C77.2487 46.0605 77.7923 46.1126 78.3066 46.2168C78.8275 46.3145 79.3255 46.474 79.8008 46.6953V48.4238ZM90.6895 58.5215C89.6673 58.9447 88.5964 59.1562 87.4766 59.1562C85.6732 59.1562 84.2865 58.6191 83.3164 57.5449C82.3529 56.4642 81.8711 54.8691 81.8711 52.7598C81.8711 51.7376 82.0046 50.8132 82.2715 49.9863C82.5384 49.1595 82.9193 48.4596 83.4141 47.8867C83.9089 47.3073 84.5078 46.8613 85.2109 46.5488C85.9141 46.2363 86.7018 46.0801 87.5742 46.0801C88.1667 46.0801 88.7168 46.1322 89.2246 46.2363C89.7324 46.334 90.2207 46.487 90.6895 46.6953V48.4043C90.2272 48.1504 89.7487 47.9583 89.2539 47.8281C88.7591 47.6914 88.2188 47.623 87.6328 47.623C87.0339 47.623 86.4902 47.737 86.002 47.9648C85.5202 48.1862 85.11 48.5117 84.7715 48.9414C84.4329 49.3646 84.1725 49.8854 83.9902 50.5039C83.8079 51.1159 83.7168 51.8158 83.7168 52.6035C83.7168 54.2572 84.0521 55.5039 84.7227 56.3438C85.3932 57.1836 86.3763 57.6035 87.6719 57.6035C88.2188 57.6035 88.7428 57.5417 89.2441 57.418C89.7454 57.2878 90.2272 57.1087 90.6895 56.8809V58.5215ZM101.793 48.4238C101.318 48.1699 100.829 47.9746 100.328 47.8379C99.8268 47.6947 99.2799 47.623 98.6875 47.623C98.0104 47.623 97.4082 47.7435 96.8809 47.9844C96.3535 48.2253 95.9076 48.5671 95.543 49.0098C95.1849 49.446 94.9082 49.9733 94.7129 50.5918C94.5241 51.2103 94.4297 51.8939 94.4297 52.6426C94.4297 53.4238 94.5078 54.1237 94.6641 54.7422C94.8203 55.3607 95.0645 55.8848 95.3965 56.3145C95.7285 56.7441 96.1517 57.0729 96.666 57.3008C97.1868 57.5286 97.8086 57.6426 98.5312 57.6426C98.6549 57.6426 98.7884 57.6361 98.9316 57.623C99.0749 57.61 99.2181 57.5938 99.3613 57.5742C99.5046 57.5482 99.6413 57.5189 99.7715 57.4863C99.9082 57.4538 100.029 57.418 100.133 57.3789V53.3164H97.5254V51.8809H101.852V58.4043C101.585 58.528 101.301 58.6387 101.002 58.7363C100.709 58.834 100.406 58.9154 100.094 58.9805C99.7878 59.0456 99.4818 59.0944 99.1758 59.127C98.8698 59.1595 98.5736 59.1758 98.2871 59.1758C97.4147 59.1758 96.627 59.0391 95.9238 58.7656C95.2272 58.4922 94.6315 58.0885 94.1367 57.5547C93.6484 57.0143 93.2708 56.3438 93.0039 55.543C92.7435 54.7422 92.6133 53.8145 92.6133 52.7598C92.6133 51.7116 92.7598 50.7741 93.0527 49.9473C93.3457 49.1139 93.7559 48.4108 94.2832 47.8379C94.8171 47.2585 95.4551 46.819 96.1973 46.5195C96.946 46.2135 97.7695 46.0605 98.668 46.0605C99.2409 46.0605 99.7845 46.1126 100.299 46.2168C100.82 46.3145 101.318 46.474 101.793 46.6953V48.4238ZM112.789 48.4238C112.314 48.1699 111.826 47.9746 111.324 47.8379C110.823 47.6947 110.276 47.623 109.684 47.623C109.007 47.623 108.404 47.7435 107.877 47.9844C107.35 48.2253 106.904 48.5671 106.539 49.0098C106.181 49.446 105.904 49.9733 105.709 50.5918C105.52 51.2103 105.426 51.8939 105.426 52.6426C105.426 53.4238 105.504 54.1237 105.66 54.7422C105.816 55.3607 106.061 55.8848 106.393 56.3145C106.725 56.7441 107.148 57.0729 107.662 57.3008C108.183 57.5286 108.805 57.6426 109.527 57.6426C109.651 57.6426 109.785 57.6361 109.928 57.623C110.071 57.61 110.214 57.5938 110.357 57.5742C110.501 57.5482 110.637 57.5189 110.768 57.4863C110.904 57.4538 111.025 57.418 111.129 57.3789V53.3164H108.521V51.8809H112.848V58.4043C112.581 58.528 112.298 58.6387 111.998 58.7363C111.705 58.834 111.402 58.9154 111.09 58.9805C110.784 59.0456 110.478 59.0944 110.172 59.127C109.866 59.1595 109.57 59.1758 109.283 59.1758C108.411 59.1758 107.623 59.0391 106.92 58.7656C106.223 58.4922 105.628 58.0885 105.133 57.5547C104.645 57.0143 104.267 56.3438 104 55.543C103.74 54.7422 103.609 53.8145 103.609 52.7598C103.609 51.7116 103.756 50.7741 104.049 49.9473C104.342 49.1139 104.752 48.4108 105.279 47.8379C105.813 47.2585 106.451 46.819 107.193 46.5195C107.942 46.2135 108.766 46.0605 109.664 46.0605C110.237 46.0605 110.781 46.1126 111.295 46.2168C111.816 46.3145 112.314 46.474 112.789 46.6953V48.4238ZM123.678 58.5215C122.656 58.9447 121.585 59.1562 120.465 59.1562C118.661 59.1562 117.275 58.6191 116.305 57.5449C115.341 56.4642 114.859 54.8691 114.859 52.7598C114.859 51.7376 114.993 50.8132 115.26 49.9863C115.527 49.1595 115.908 48.4596 116.402 47.8867C116.897 47.3073 117.496 46.8613 118.199 46.5488C118.902 46.2363 119.69 46.0801 120.562 46.0801C121.155 46.0801 121.705 46.1322 122.213 46.2363C122.721 46.334 123.209 46.487 123.678 46.6953V48.4043C123.215 48.1504 122.737 47.9583 122.242 47.8281C121.747 47.6914 121.207 47.623 120.621 47.623C120.022 47.623 119.479 47.737 118.99 47.9648C118.508 48.1862 118.098 48.5117 117.76 48.9414C117.421 49.3646 117.161 49.8854 116.979 50.5039C116.796 51.1159 116.705 51.8158 116.705 52.6035C116.705 54.2572 117.04 55.5039 117.711 56.3438C118.382 57.1836 119.365 57.6035 120.66 57.6035C121.207 57.6035 121.731 57.5417 122.232 57.418C122.734 57.2878 123.215 57.1087 123.678 56.8809V58.5215Z" fill="#C9D1D9"/>
<path d="M135.113 24.7207H131.334V36H129.576V24.7207H125.797V23.2363H135.113V24.7207ZM134.781 48.4238C134.306 48.1699 133.818 47.9746 133.316 47.8379C132.815 47.6947 132.268 47.623 131.676 47.623C130.999 47.623 130.396 47.7435 129.869 47.9844C129.342 48.2253 128.896 48.5671 128.531 49.0098C128.173 49.446 127.896 49.9733 127.701 50.5918C127.512 51.2103 127.418 51.8939 127.418 52.6426C127.418 53.4238 127.496 54.1237 127.652 54.7422C127.809 55.3607 128.053 55.8848 128.385 56.3145C128.717 56.7441 129.14 57.0729 129.654 57.3008C130.175 57.5286 130.797 57.6426 131.52 57.6426C131.643 57.6426 131.777 57.6361 131.92 57.623C132.063 57.61 132.206 57.5938 132.35 57.5742C132.493 57.5482 132.63 57.5189 132.76 57.4863C132.896 57.4538 133.017 57.418 133.121 57.3789V53.3164H130.514V51.8809H134.84V58.4043C134.573 58.528 134.29 58.6387 133.99 58.7363C133.697 58.834 133.395 58.9154 133.082 58.9805C132.776 59.0456 132.47 59.0944 132.164 59.127C131.858 59.1595 131.562 59.1758 131.275 59.1758C130.403 59.1758 129.615 59.0391 128.912 58.7656C128.215 58.4922 127.62 58.0885 127.125 57.5547C126.637 57.0143 126.259 56.3438 125.992 55.543C125.732 54.7422 125.602 53.8145 125.602 52.7598C125.602 51.7116 125.748 50.7741 126.041 49.9473C126.334 49.1139 126.744 48.4108 127.271 47.8379C127.805 47.2585 128.443 46.819 129.186 46.5195C129.934 46.2135 130.758 46.0605 131.656 46.0605C132.229 46.0605 132.773 46.1126 133.287 46.2168C133.808 46.3145 134.306 46.474 134.781 46.6953V48.4238Z" fill="#E30310"/>
</g>
<line x1="42.5" x2="42.5" y2="20" stroke="#79CCDB" stroke-width="9"/>
<line x1="53.5" x2="53.5" y2="20" stroke="#79CCDB" stroke-width="9"/>
<line x1="64.5" x2="64.5" y2="20" stroke="#79CCDB" stroke-width="9"/>
<line x1="75.5" x2="75.5" y2="20" stroke="#79CCDB" stroke-width="9"/>
<line x1="86.5" x2="86.5" y2="20" stroke="#79CCDB" stroke-width="9"/>
<line x1="97.5" x2="97.5" y2="20" stroke="#79CCDB" stroke-width="9"/>
<line x1="108.5" x2="108.5" y2="20" stroke="#79CCDB" stroke-width="9"/>
<line x1="119.5" x2="119.5" y2="20" stroke="#79CCDB" stroke-width="9"/>
<line x1="141.5" x2="141.5" y2="20" stroke="#79CCDB" stroke-width="9"/>
<line x1="152.5" x2="152.5" y2="20" stroke="#79CCDB" stroke-width="9"/>
<line x1="163.5" x2="163.5" y2="20" stroke="#79CCDB" stroke-width="9"/>
<defs>
<filter id="filter0_d" x="0.839844" y="23.0605" width="358.938" height="44.1152" filterUnits="userSpaceOnUse" color-interpolation-filters="sRGB">
<feFlood flood-opacity="0" result="BackgroundImageFix"/>
<feColorMatrix in="SourceAlpha" type="matrix" values="0 0 0 0 0 0 0 0 0 0 0 0 0 0 0 0 0 0 127 0"/>
<feOffset dy="4"/>
<feGaussianBlur stdDeviation="2"/>
<feColorMatrix type="matrix" values="0 0 0 0 0 0 0 0 0 0 0 0 0 0 0 0 0 0 0.25 0"/>
<feBlend mode="normal" in2="BackgroundImageFix" result="effect1_dropShadow"/>
<feBlend mode="normal" in="SourceGraphic" in2="effect1_dropShadow" result="shape"/>
</filter>
</defs>
</svg>
