<svg width="408" height="126" viewBox="0 0 408 126" fill="none" xmlns="http://www.w3.org/2000/svg">
<g filter="url(#filter0_d)">
<path d="M207 93C207 113.36 231.406 119.06 246.472 116.381C253.621 115.11 260.45 113.072 267.14 109.885C273.387 106.909 279.708 103.193 286.128 100.725C288.857 99.6755 291.371 98.0507 294.108 97.041C294.165 97.0201 297.282 96.1963 296.982 95.896C296.42 95.3335 293.837 95.7964 293.091 95.7964C289.643 95.7964 284.068 98.1281 290.306 95.9956C292.097 95.3834 299.664 92.669 297.667 96.6676C296.755 98.4928 295.891 100.339 294.992 102.169C294.441 103.291 293.484 107.864 293.091 105.653" stroke="#C9D1D9" stroke-linecap="round" stroke-linejoin="round"/>
</g>
<path d="M66.1562 51.7207H62.377V63H60.6191V51.7207H56.8398V50.2363H66.1562V51.7207ZM72.4941 53.0195C72.696 53.0195 72.888 53.0618 73.0703 53.1465C73.2526 53.2246 73.4121 53.332 73.5488 53.4688C73.6855 53.6055 73.793 53.765 73.8711 53.9473C73.9557 54.1296 73.998 54.3216 73.998 54.5234C73.998 54.7318 73.9557 54.9271 73.8711 55.1094C73.793 55.2852 73.6855 55.4414 73.5488 55.5781C73.4121 55.7148 73.2526 55.8223 73.0703 55.9004C72.888 55.9785 72.696 56.0176 72.4941 56.0176C72.2858 56.0176 72.0905 55.9785 71.9082 55.9004C71.7324 55.8223 71.5762 55.7148 71.4395 55.5781C71.3027 55.4414 71.1953 55.2852 71.1172 55.1094C71.0391 54.9271 71 54.7318 71 54.5234C71 54.3216 71.0391 54.1296 71.1172 53.9473C71.1953 53.765 71.3027 53.6055 71.4395 53.4688C71.5762 53.332 71.7324 53.2246 71.9082 53.1465C72.0905 53.0618 72.2858 53.0195 72.4941 53.0195ZM72.4941 60.1777C72.696 60.1777 72.888 60.2201 73.0703 60.3047C73.2526 60.3828 73.4121 60.4902 73.5488 60.627C73.6855 60.7637 73.793 60.9232 73.8711 61.1055C73.9557 61.2878 73.998 61.4798 73.998 61.6816C73.998 61.89 73.9557 62.0853 73.8711 62.2676C73.793 62.4434 73.6855 62.5996 73.5488 62.7363C73.4121 62.873 73.2526 62.9805 73.0703 63.0586C72.888 63.1367 72.696 63.1758 72.4941 63.1758C72.2858 63.1758 72.0905 63.1367 71.9082 63.0586C71.7324 62.9805 71.5762 62.873 71.4395 62.7363C71.3027 62.5996 71.1953 62.4434 71.1172 62.2676C71.0391 62.0853 71 61.89 71 61.6816C71 61.4798 71.0391 61.2878 71.1172 61.1055C71.1953 60.9232 71.3027 60.7637 71.4395 60.627C71.5762 60.4902 71.7324 60.3828 71.9082 60.3047C72.0905 60.2201 72.2858 60.1777 72.4941 60.1777ZM98.8125 52.4238C98.3372 52.1699 97.849 51.9746 97.3477 51.8379C96.8464 51.6947 96.2995 51.623 95.707 51.623C95.0299 51.623 94.4277 51.7435 93.9004 51.9844C93.373 52.2253 92.9271 52.5671 92.5625 53.0098C92.2044 53.446 91.9277 53.9733 91.7324 54.5918C91.5436 55.2103 91.4492 55.8939 91.4492 56.6426C91.4492 57.4238 91.5273 58.1237 91.6836 58.7422C91.8398 59.3607 92.084 59.8848 92.416 60.3145C92.748 60.7441 93.1712 61.0729 93.6855 61.3008C94.2064 61.5286 94.8281 61.6426 95.5508 61.6426C95.6745 61.6426 95.8079 61.6361 95.9512 61.623C96.0944 61.61 96.2376 61.5938 96.3809 61.5742C96.5241 61.5482 96.6608 61.5189 96.791 61.4863C96.9277 61.4538 97.0482 61.418 97.1523 61.3789V57.3164H94.5449V55.8809H98.8711V62.4043C98.6042 62.528 98.321 62.6387 98.0215 62.7363C97.7285 62.834 97.4258 62.9154 97.1133 62.9805C96.8073 63.0456 96.5013 63.0944 96.1953 63.127C95.8893 63.1595 95.5931 63.1758 95.3066 63.1758C94.4342 63.1758 93.6465 63.0391 92.9434 62.7656C92.2467 62.4922 91.651 62.0885 91.1562 61.5547C90.668 61.0143 90.2904 60.3438 90.0234 59.543C89.763 58.7422 89.6328 57.8145 89.6328 56.7598C89.6328 55.7116 89.7793 54.7741 90.0723 53.9473C90.3652 53.1139 90.7754 52.4108 91.3027 51.8379C91.8366 51.2585 92.4746 50.819 93.2168 50.5195C93.9655 50.2135 94.7891 50.0605 95.6875 50.0605C96.2604 50.0605 96.804 50.1126 97.3184 50.2168C97.8392 50.3145 98.3372 50.474 98.8125 50.6953V52.4238ZM110.141 51.7207H106.361V63H104.604V51.7207H100.824V50.2363H110.141V51.7207ZM121.137 51.7207H117.357V63H115.6V51.7207H111.82V50.2363H121.137V51.7207ZM132.875 63H130.98L130.092 60.2168H124.779L123.881 63H122.074L126.312 50.2363H128.695L132.875 63ZM129.594 58.6641L127.436 51.8379L125.277 58.6641H129.594ZM143.129 51.7207H139.35V63H137.592V51.7207H133.812V50.2363H143.129V51.7207ZM154.867 63H152.973L152.084 60.2168H146.771L145.873 63H144.066L148.305 50.2363H150.688L154.867 63ZM151.586 58.6641L149.428 51.8379L147.27 58.6641H151.586ZM164.789 52.4238C164.314 52.1699 163.826 51.9746 163.324 51.8379C162.823 51.6947 162.276 51.623 161.684 51.623C161.007 51.623 160.404 51.7435 159.877 51.9844C159.35 52.2253 158.904 52.5671 158.539 53.0098C158.181 53.446 157.904 53.9733 157.709 54.5918C157.52 55.2103 157.426 55.8939 157.426 56.6426C157.426 57.4238 157.504 58.1237 157.66 58.7422C157.816 59.3607 158.061 59.8848 158.393 60.3145C158.725 60.7441 159.148 61.0729 159.662 61.3008C160.183 61.5286 160.805 61.6426 161.527 61.6426C161.651 61.6426 161.785 61.6361 161.928 61.623C162.071 61.61 162.214 61.5938 162.357 61.5742C162.501 61.5482 162.637 61.5189 162.768 61.4863C162.904 61.4538 163.025 61.418 163.129 61.3789V57.3164H160.521V55.8809H164.848V62.4043C164.581 62.528 164.298 62.6387 163.998 62.7363C163.705 62.834 163.402 62.9154 163.09 62.9805C162.784 63.0456 162.478 63.0944 162.172 63.127C161.866 63.1595 161.57 63.1758 161.283 63.1758C160.411 63.1758 159.623 63.0391 158.92 62.7656C158.223 62.4922 157.628 62.0885 157.133 61.5547C156.645 61.0143 156.267 60.3438 156 59.543C155.74 58.7422 155.609 57.8145 155.609 56.7598C155.609 55.7116 155.756 54.7741 156.049 53.9473C156.342 53.1139 156.752 52.4108 157.279 51.8379C157.813 51.2585 158.451 50.819 159.193 50.5195C159.942 50.2135 160.766 50.0605 161.664 50.0605C162.237 50.0605 162.781 50.1126 163.295 50.2168C163.816 50.3145 164.314 50.474 164.789 50.6953V52.4238ZM175.678 62.5215C174.656 62.9447 173.585 63.1562 172.465 63.1562C170.661 63.1562 169.275 62.6191 168.305 61.5449C167.341 60.4642 166.859 58.8691 166.859 56.7598C166.859 55.7376 166.993 54.8132 167.26 53.9863C167.527 53.1595 167.908 52.4596 168.402 51.8867C168.897 51.3073 169.496 50.8613 170.199 50.5488C170.902 50.2363 171.69 50.0801 172.562 50.0801C173.155 50.0801 173.705 50.1322 174.213 50.2363C174.721 50.334 175.209 50.487 175.678 50.6953V52.4043C175.215 52.1504 174.737 51.9583 174.242 51.8281C173.747 51.6914 173.207 51.623 172.621 51.623C172.022 51.623 171.479 51.737 170.99 51.9648C170.508 52.1862 170.098 52.5117 169.76 52.9414C169.421 53.3646 169.161 53.8854 168.979 54.5039C168.796 55.1159 168.705 55.8158 168.705 56.6035C168.705 58.2572 169.04 59.5039 169.711 60.3438C170.382 61.1836 171.365 61.6035 172.66 61.6035C173.207 61.6035 173.731 61.5417 174.232 61.418C174.734 61.2878 175.215 61.1087 175.678 60.8809V62.5215ZM187.113 51.7207H183.334V63H181.576V51.7207H177.797V50.2363H187.113V51.7207ZM197.777 52.4238C197.302 52.1699 196.814 51.9746 196.312 51.8379C195.811 51.6947 195.264 51.623 194.672 51.623C193.995 51.623 193.393 51.7435 192.865 51.9844C192.338 52.2253 191.892 52.5671 191.527 53.0098C191.169 53.446 190.893 53.9733 190.697 54.5918C190.508 55.2103 190.414 55.8939 190.414 56.6426C190.414 57.4238 190.492 58.1237 190.648 58.7422C190.805 59.3607 191.049 59.8848 191.381 60.3145C191.713 60.7441 192.136 61.0729 192.65 61.3008C193.171 61.5286 193.793 61.6426 194.516 61.6426C194.639 61.6426 194.773 61.6361 194.916 61.623C195.059 61.61 195.202 61.5938 195.346 61.5742C195.489 61.5482 195.626 61.5189 195.756 61.4863C195.893 61.4538 196.013 61.418 196.117 61.3789V57.3164H193.51V55.8809H197.836V62.4043C197.569 62.528 197.286 62.6387 196.986 62.7363C196.693 62.834 196.391 62.9154 196.078 62.9805C195.772 63.0456 195.466 63.0944 195.16 63.127C194.854 63.1595 194.558 63.1758 194.271 63.1758C193.399 63.1758 192.611 63.0391 191.908 62.7656C191.212 62.4922 190.616 62.0885 190.121 61.5547C189.633 61.0143 189.255 60.3438 188.988 59.543C188.728 58.7422 188.598 57.8145 188.598 56.7598C188.598 55.7116 188.744 54.7741 189.037 53.9473C189.33 53.1139 189.74 52.4108 190.268 51.8379C190.801 51.2585 191.439 50.819 192.182 50.5195C192.93 50.2135 193.754 50.0605 194.652 50.0605C195.225 50.0605 195.769 50.1126 196.283 50.2168C196.804 50.3145 197.302 50.474 197.777 50.6953V52.4238ZM209.848 63H207.953L207.064 60.2168H201.752L200.854 63H199.047L203.285 50.2363H205.668L209.848 63ZM206.566 58.6641L204.408 51.8379L202.25 58.6641H206.566ZM220.102 51.7207H216.322V63H214.564V51.7207H210.785V50.2363H220.102V51.7207ZM308.07 51.7207H304.291V63H302.533V51.7207H298.754V50.2363H308.07V51.7207ZM319.809 63H317.914L317.025 60.2168H311.713L310.814 63H309.008L313.246 50.2363H315.629L319.809 63ZM316.527 58.6641L314.369 51.8379L312.211 58.6641H316.527ZM329.73 52.4238C329.255 52.1699 328.767 51.9746 328.266 51.8379C327.764 51.6947 327.217 51.623 326.625 51.623C325.948 51.623 325.346 51.7435 324.818 51.9844C324.291 52.2253 323.845 52.5671 323.48 53.0098C323.122 53.446 322.846 53.9733 322.65 54.5918C322.462 55.2103 322.367 55.8939 322.367 56.6426C322.367 57.4238 322.445 58.1237 322.602 58.7422C322.758 59.3607 323.002 59.8848 323.334 60.3145C323.666 60.7441 324.089 61.0729 324.604 61.3008C325.124 61.5286 325.746 61.6426 326.469 61.6426C326.592 61.6426 326.726 61.6361 326.869 61.623C327.012 61.61 327.156 61.5938 327.299 61.5742C327.442 61.5482 327.579 61.5189 327.709 61.4863C327.846 61.4538 327.966 61.418 328.07 61.3789V57.3164H325.463V55.8809H329.789V62.4043C329.522 62.528 329.239 62.6387 328.939 62.7363C328.646 62.834 328.344 62.9154 328.031 62.9805C327.725 63.0456 327.419 63.0944 327.113 63.127C326.807 63.1595 326.511 63.1758 326.225 63.1758C325.352 63.1758 324.564 63.0391 323.861 62.7656C323.165 62.4922 322.569 62.0885 322.074 61.5547C321.586 61.0143 321.208 60.3438 320.941 59.543C320.681 58.7422 320.551 57.8145 320.551 56.7598C320.551 55.7116 320.697 54.7741 320.99 53.9473C321.283 53.1139 321.693 52.4108 322.221 51.8379C322.755 51.2585 323.393 50.819 324.135 50.5195C324.883 50.2135 325.707 50.0605 326.605 50.0605C327.178 50.0605 327.722 50.1126 328.236 50.2168C328.757 50.3145 329.255 50.474 329.73 50.6953V52.4238ZM340.619 62.5215C339.597 62.9447 338.526 63.1562 337.406 63.1562C335.603 63.1562 334.216 62.6191 333.246 61.5449C332.283 60.4642 331.801 58.8691 331.801 56.7598C331.801 55.7376 331.934 54.8132 332.201 53.9863C332.468 53.1595 332.849 52.4596 333.344 51.8867C333.839 51.3073 334.438 50.8613 335.141 50.5488C335.844 50.2363 336.632 50.0801 337.504 50.0801C338.096 50.0801 338.646 50.1322 339.154 50.2363C339.662 50.334 340.15 50.487 340.619 50.6953V52.4043C340.157 52.1504 339.678 51.9583 339.184 51.8281C338.689 51.6914 338.148 51.623 337.562 51.623C336.964 51.623 336.42 51.737 335.932 51.9648C335.45 52.1862 335.04 52.5117 334.701 52.9414C334.363 53.3646 334.102 53.8854 333.92 54.5039C333.738 55.1159 333.646 55.8158 333.646 56.6035C333.646 58.2572 333.982 59.5039 334.652 60.3438C335.323 61.1836 336.306 61.6035 337.602 61.6035C338.148 61.6035 338.673 61.5417 339.174 61.418C339.675 61.2878 340.157 61.1087 340.619 60.8809V62.5215ZM351.723 52.4238C351.247 52.1699 350.759 51.9746 350.258 51.8379C349.757 51.6947 349.21 51.623 348.617 51.623C347.94 51.623 347.338 51.7435 346.811 51.9844C346.283 52.2253 345.837 52.5671 345.473 53.0098C345.115 53.446 344.838 53.9733 344.643 54.5918C344.454 55.2103 344.359 55.8939 344.359 56.6426C344.359 57.4238 344.438 58.1237 344.594 58.7422C344.75 59.3607 344.994 59.8848 345.326 60.3145C345.658 60.7441 346.081 61.0729 346.596 61.3008C347.117 61.5286 347.738 61.6426 348.461 61.6426C348.585 61.6426 348.718 61.6361 348.861 61.623C349.005 61.61 349.148 61.5938 349.291 61.5742C349.434 61.5482 349.571 61.5189 349.701 61.4863C349.838 61.4538 349.958 61.418 350.062 61.3789V57.3164H347.455V55.8809H351.781V62.4043C351.514 62.528 351.231 62.6387 350.932 62.7363C350.639 62.834 350.336 62.9154 350.023 62.9805C349.717 63.0456 349.411 63.0944 349.105 63.127C348.799 63.1595 348.503 63.1758 348.217 63.1758C347.344 63.1758 346.557 63.0391 345.854 62.7656C345.157 62.4922 344.561 62.0885 344.066 61.5547C343.578 61.0143 343.201 60.3438 342.934 59.543C342.673 58.7422 342.543 57.8145 342.543 56.7598C342.543 55.7116 342.689 54.7741 342.982 53.9473C343.275 53.1139 343.686 52.4108 344.213 51.8379C344.747 51.2585 345.385 50.819 346.127 50.5195C346.876 50.2135 347.699 50.0605 348.598 50.0605C349.171 50.0605 349.714 50.1126 350.229 50.2168C350.749 50.3145 351.247 50.474 351.723 50.6953V52.4238ZM362.719 52.4238C362.243 52.1699 361.755 51.9746 361.254 51.8379C360.753 51.6947 360.206 51.623 359.613 51.623C358.936 51.623 358.334 51.7435 357.807 51.9844C357.279 52.2253 356.833 52.5671 356.469 53.0098C356.111 53.446 355.834 53.9733 355.639 54.5918C355.45 55.2103 355.355 55.8939 355.355 56.6426C355.355 57.4238 355.434 58.1237 355.59 58.7422C355.746 59.3607 355.99 59.8848 356.322 60.3145C356.654 60.7441 357.077 61.0729 357.592 61.3008C358.113 61.5286 358.734 61.6426 359.457 61.6426C359.581 61.6426 359.714 61.6361 359.857 61.623C360.001 61.61 360.144 61.5938 360.287 61.5742C360.43 61.5482 360.567 61.5189 360.697 61.4863C360.834 61.4538 360.954 61.418 361.059 61.3789V57.3164H358.451V55.8809H362.777V62.4043C362.51 62.528 362.227 62.6387 361.928 62.7363C361.635 62.834 361.332 62.9154 361.02 62.9805C360.714 63.0456 360.408 63.0944 360.102 63.127C359.796 63.1595 359.499 63.1758 359.213 63.1758C358.34 63.1758 357.553 63.0391 356.85 62.7656C356.153 62.4922 355.557 62.0885 355.062 61.5547C354.574 61.0143 354.197 60.3438 353.93 59.543C353.669 58.7422 353.539 57.8145 353.539 56.7598C353.539 55.7116 353.686 54.7741 353.979 53.9473C354.271 53.1139 354.682 52.4108 355.209 51.8379C355.743 51.2585 356.381 50.819 357.123 50.5195C357.872 50.2135 358.695 50.0605 359.594 50.0605C360.167 50.0605 360.71 50.1126 361.225 50.2168C361.745 50.3145 362.243 50.474 362.719 50.6953V52.4238ZM373.607 62.5215C372.585 62.9447 371.514 63.1562 370.395 63.1562C368.591 63.1562 367.204 62.6191 366.234 61.5449C365.271 60.4642 364.789 58.8691 364.789 56.7598C364.789 55.7376 364.923 54.8132 365.189 53.9863C365.456 53.1595 365.837 52.4596 366.332 51.8867C366.827 51.3073 367.426 50.8613 368.129 50.5488C368.832 50.2363 369.62 50.0801 370.492 50.0801C371.085 50.0801 371.635 50.1322 372.143 50.2363C372.65 50.334 373.139 50.487 373.607 50.6953V52.4043C373.145 52.1504 372.667 51.9583 372.172 51.8281C371.677 51.6914 371.137 51.623 370.551 51.623C369.952 51.623 369.408 51.737 368.92 51.9648C368.438 52.1862 368.028 52.5117 367.689 52.9414C367.351 53.3646 367.09 53.8854 366.908 54.5039C366.726 55.1159 366.635 55.8158 366.635 56.6035C366.635 58.2572 366.97 59.5039 367.641 60.3438C368.311 61.1836 369.294 61.6035 370.59 61.6035C371.137 61.6035 371.661 61.5417 372.162 61.418C372.663 61.2878 373.145 61.1087 373.607 60.8809V62.5215ZM384.711 52.4238C384.236 52.1699 383.747 51.9746 383.246 51.8379C382.745 51.6947 382.198 51.623 381.605 51.623C380.928 51.623 380.326 51.7435 379.799 51.9844C379.271 52.2253 378.826 52.5671 378.461 53.0098C378.103 53.446 377.826 53.9733 377.631 54.5918C377.442 55.2103 377.348 55.8939 377.348 56.6426C377.348 57.4238 377.426 58.1237 377.582 58.7422C377.738 59.3607 377.982 59.8848 378.314 60.3145C378.646 60.7441 379.07 61.0729 379.584 61.3008C380.105 61.5286 380.727 61.6426 381.449 61.6426C381.573 61.6426 381.706 61.6361 381.85 61.623C381.993 61.61 382.136 61.5938 382.279 61.5742C382.423 61.5482 382.559 61.5189 382.689 61.4863C382.826 61.4538 382.947 61.418 383.051 61.3789V57.3164H380.443V55.8809H384.77V62.4043C384.503 62.528 384.219 62.6387 383.92 62.7363C383.627 62.834 383.324 62.9154 383.012 62.9805C382.706 63.0456 382.4 63.0944 382.094 63.127C381.788 63.1595 381.492 63.1758 381.205 63.1758C380.333 63.1758 379.545 63.0391 378.842 62.7656C378.145 62.4922 377.549 62.0885 377.055 61.5547C376.566 61.0143 376.189 60.3438 375.922 59.543C375.661 58.7422 375.531 57.8145 375.531 56.7598C375.531 55.7116 375.678 54.7741 375.971 53.9473C376.264 53.1139 376.674 52.4108 377.201 51.8379C377.735 51.2585 378.373 50.819 379.115 50.5195C379.864 50.2135 380.688 50.0605 381.586 50.0605C382.159 50.0605 382.702 50.1126 383.217 50.2168C383.738 50.3145 384.236 50.474 384.711 50.6953V52.4238ZM396.781 63H394.887L393.998 60.2168H388.686L387.787 63H385.98L390.219 50.2363H392.602L396.781 63ZM393.5 58.6641L391.342 51.8379L389.184 58.6641H393.5ZM407.777 63H405.883L404.994 60.2168H399.682L398.783 63H396.977L401.215 50.2363H403.598L407.777 63ZM404.496 58.6641L402.338 51.8379L400.18 58.6641H404.496ZM65.9219 77.1426C65.9219 77.6634 65.8242 78.181 65.6289 78.6953C65.4336 79.2031 65.1309 79.6589 64.7207 80.0625C64.3105 80.4661 63.7865 80.7949 63.1484 81.0488C62.5104 81.2962 61.7487 81.4199 60.8633 81.4199H59.2812V86H57.543V73.2363H61.1367C61.7682 73.2363 62.3737 73.3079 62.9531 73.4512C63.5326 73.5879 64.0404 73.8125 64.4766 74.125C64.9193 74.4375 65.2708 74.8411 65.5312 75.3359C65.7917 75.8307 65.9219 76.4329 65.9219 77.1426ZM64.1152 77.2207C64.1152 76.4004 63.8451 75.7721 63.3047 75.3359C62.7708 74.8997 62.0221 74.6816 61.0586 74.6816H59.2812V79.9355H60.9023C61.931 79.9355 62.722 79.7109 63.2754 79.2617C63.8353 78.8125 64.1152 78.1322 64.1152 77.2207ZM72.4941 76.0195C72.696 76.0195 72.888 76.0618 73.0703 76.1465C73.2526 76.2246 73.4121 76.332 73.5488 76.4688C73.6855 76.6055 73.793 76.765 73.8711 76.9473C73.9557 77.1296 73.998 77.3216 73.998 77.5234C73.998 77.7318 73.9557 77.9271 73.8711 78.1094C73.793 78.2852 73.6855 78.4414 73.5488 78.5781C73.4121 78.7148 73.2526 78.8223 73.0703 78.9004C72.888 78.9785 72.696 79.0176 72.4941 79.0176C72.2858 79.0176 72.0905 78.9785 71.9082 78.9004C71.7324 78.8223 71.5762 78.7148 71.4395 78.5781C71.3027 78.4414 71.1953 78.2852 71.1172 78.1094C71.0391 77.9271 71 77.7318 71 77.5234C71 77.3216 71.0391 77.1296 71.1172 76.9473C71.1953 76.765 71.3027 76.6055 71.4395 76.4688C71.5762 76.332 71.7324 76.2246 71.9082 76.1465C72.0905 76.0618 72.2858 76.0195 72.4941 76.0195ZM72.4941 83.1777C72.696 83.1777 72.888 83.2201 73.0703 83.3047C73.2526 83.3828 73.4121 83.4902 73.5488 83.627C73.6855 83.7637 73.793 83.9232 73.8711 84.1055C73.9557 84.2878 73.998 84.4798 73.998 84.6816C73.998 84.89 73.9557 85.0853 73.8711 85.2676C73.793 85.4434 73.6855 85.5996 73.5488 85.7363C73.4121 85.873 73.2526 85.9805 73.0703 86.0586C72.888 86.1367 72.696 86.1758 72.4941 86.1758C72.2858 86.1758 72.0905 86.1367 71.9082 86.0586C71.7324 85.9805 71.5762 85.873 71.4395 85.7363C71.3027 85.5996 71.1953 85.4434 71.1172 85.2676C71.0391 85.0853 71 84.89 71 84.6816C71 84.4798 71.0391 84.2878 71.1172 84.1055C71.1953 83.9232 71.3027 83.7637 71.4395 83.627C71.5762 83.4902 71.7324 83.3828 71.9082 83.3047C72.0905 83.2201 72.2858 83.1777 72.4941 83.1777ZM208.773 75.4238C208.298 75.1699 207.81 74.9746 207.309 74.8379C206.807 74.6947 206.26 74.623 205.668 74.623C204.991 74.623 204.389 74.7435 203.861 74.9844C203.334 75.2253 202.888 75.5671 202.523 76.0098C202.165 76.446 201.889 76.9733 201.693 77.5918C201.505 78.2103 201.41 78.8939 201.41 79.6426C201.41 80.4238 201.488 81.1237 201.645 81.7422C201.801 82.3607 202.045 82.8848 202.377 83.3145C202.709 83.7441 203.132 84.0729 203.646 84.3008C204.167 84.5286 204.789 84.6426 205.512 84.6426C205.635 84.6426 205.769 84.6361 205.912 84.623C206.055 84.61 206.199 84.5938 206.342 84.5742C206.485 84.5482 206.622 84.5189 206.752 84.4863C206.889 84.4538 207.009 84.418 207.113 84.3789V80.3164H204.506V78.8809H208.832V85.4043C208.565 85.528 208.282 85.6387 207.982 85.7363C207.689 85.834 207.387 85.9154 207.074 85.9805C206.768 86.0456 206.462 86.0944 206.156 86.127C205.85 86.1595 205.554 86.1758 205.268 86.1758C204.395 86.1758 203.607 86.0391 202.904 85.7656C202.208 85.4922 201.612 85.0885 201.117 84.5547C200.629 84.0143 200.251 83.3438 199.984 82.543C199.724 81.7422 199.594 80.8145 199.594 79.7598C199.594 78.7116 199.74 77.7741 200.033 76.9473C200.326 76.1139 200.736 75.4108 201.264 74.8379C201.798 74.2585 202.436 73.819 203.178 73.5195C203.926 73.2135 204.75 73.0605 205.648 73.0605C206.221 73.0605 206.765 73.1126 207.279 73.2168C207.8 73.3145 208.298 73.474 208.773 73.6953V75.4238ZM220.102 74.7207H216.322V86H214.564V74.7207H210.785V73.2363H220.102V74.7207Z" fill="#C9D1D9"/>
<path d="M230.658 62.5215C229.636 62.9447 228.565 63.1562 227.445 63.1562C225.642 63.1562 224.255 62.6191 223.285 61.5449C222.322 60.4642 221.84 58.8691 221.84 56.7598C221.84 55.7376 221.973 54.8132 222.24 53.9863C222.507 53.1595 222.888 52.4596 223.383 51.8867C223.878 51.3073 224.477 50.8613 225.18 50.5488C225.883 50.2363 226.671 50.0801 227.543 50.0801C228.135 50.0801 228.686 50.1322 229.193 50.2363C229.701 50.334 230.189 50.487 230.658 50.6953V52.4043C230.196 52.1504 229.717 51.9583 229.223 51.8281C228.728 51.6914 228.188 51.623 227.602 51.623C227.003 51.623 226.459 51.737 225.971 51.9648C225.489 52.1862 225.079 52.5117 224.74 52.9414C224.402 53.3646 224.141 53.8854 223.959 54.5039C223.777 55.1159 223.686 55.8158 223.686 56.6035C223.686 58.2572 224.021 59.5039 224.691 60.3438C225.362 61.1836 226.345 61.6035 227.641 61.6035C228.188 61.6035 228.712 61.5417 229.213 61.418C229.714 61.2878 230.196 61.1087 230.658 60.8809V62.5215ZM231.84 86H229.945L229.057 83.2168H223.744L222.846 86H221.039L225.277 73.2363H227.66L231.84 86ZM228.559 81.6641L226.4 74.8379L224.242 81.6641H228.559Z" fill="#F40F0F"/>
<path d="M241.762 52.4238C241.286 52.1699 240.798 51.9746 240.297 51.8379C239.796 51.6947 239.249 51.623 238.656 51.623C237.979 51.623 237.377 51.7435 236.85 51.9844C236.322 52.2253 235.876 52.5671 235.512 53.0098C235.154 53.446 234.877 53.9733 234.682 54.5918C234.493 55.2103 234.398 55.8939 234.398 56.6426C234.398 57.4238 234.477 58.1237 234.633 58.7422C234.789 59.3607 235.033 59.8848 235.365 60.3145C235.697 60.7441 236.12 61.0729 236.635 61.3008C237.156 61.5286 237.777 61.6426 238.5 61.6426C238.624 61.6426 238.757 61.6361 238.9 61.623C239.044 61.61 239.187 61.5938 239.33 61.5742C239.473 61.5482 239.61 61.5189 239.74 61.4863C239.877 61.4538 239.997 61.418 240.102 61.3789V57.3164H237.494V55.8809H241.82V62.4043C241.553 62.528 241.27 62.6387 240.971 62.7363C240.678 62.834 240.375 62.9154 240.062 62.9805C239.757 63.0456 239.451 63.0944 239.145 63.127C238.839 63.1595 238.542 63.1758 238.256 63.1758C237.383 63.1758 236.596 63.0391 235.893 62.7656C235.196 62.4922 234.6 62.0885 234.105 61.5547C233.617 61.0143 233.24 60.3438 232.973 59.543C232.712 58.7422 232.582 57.8145 232.582 56.7598C232.582 55.7116 232.729 54.7741 233.021 53.9473C233.314 53.1139 233.725 52.4108 234.252 51.8379C234.786 51.2585 235.424 50.819 236.166 50.5195C236.915 50.2135 237.738 50.0605 238.637 50.0605C239.21 50.0605 239.753 50.1126 240.268 50.2168C240.788 50.3145 241.286 50.474 241.762 50.6953V52.4238ZM252.65 62.5215C251.628 62.9447 250.557 63.1562 249.438 63.1562C247.634 63.1562 246.247 62.6191 245.277 61.5449C244.314 60.4642 243.832 58.8691 243.832 56.7598C243.832 55.7376 243.965 54.8132 244.232 53.9863C244.499 53.1595 244.88 52.4596 245.375 51.8867C245.87 51.3073 246.469 50.8613 247.172 50.5488C247.875 50.2363 248.663 50.0801 249.535 50.0801C250.128 50.0801 250.678 50.1322 251.186 50.2363C251.693 50.334 252.182 50.487 252.65 50.6953V52.4043C252.188 52.1504 251.71 51.9583 251.215 51.8281C250.72 51.6914 250.18 51.623 249.594 51.623C248.995 51.623 248.451 51.737 247.963 51.9648C247.481 52.1862 247.071 52.5117 246.732 52.9414C246.394 53.3646 246.133 53.8854 245.951 54.5039C245.769 55.1159 245.678 55.8158 245.678 56.6035C245.678 58.2572 246.013 59.5039 246.684 60.3438C247.354 61.1836 248.337 61.6035 249.633 61.6035C250.18 61.6035 250.704 61.5417 251.205 61.418C251.706 61.2878 252.188 61.1087 252.65 60.8809V62.5215ZM263.754 52.4238C263.279 52.1699 262.79 51.9746 262.289 51.8379C261.788 51.6947 261.241 51.623 260.648 51.623C259.971 51.623 259.369 51.7435 258.842 51.9844C258.314 52.2253 257.868 52.5671 257.504 53.0098C257.146 53.446 256.869 53.9733 256.674 54.5918C256.485 55.2103 256.391 55.8939 256.391 56.6426C256.391 57.4238 256.469 58.1237 256.625 58.7422C256.781 59.3607 257.025 59.8848 257.357 60.3145C257.689 60.7441 258.113 61.0729 258.627 61.3008C259.148 61.5286 259.77 61.6426 260.492 61.6426C260.616 61.6426 260.749 61.6361 260.893 61.623C261.036 61.61 261.179 61.5938 261.322 61.5742C261.465 61.5482 261.602 61.5189 261.732 61.4863C261.869 61.4538 261.99 61.418 262.094 61.3789V57.3164H259.486V55.8809H263.812V62.4043C263.546 62.528 263.262 62.6387 262.963 62.7363C262.67 62.834 262.367 62.9154 262.055 62.9805C261.749 63.0456 261.443 63.0944 261.137 63.127C260.831 63.1595 260.535 63.1758 260.248 63.1758C259.376 63.1758 258.588 63.0391 257.885 62.7656C257.188 62.4922 256.592 62.0885 256.098 61.5547C255.609 61.0143 255.232 60.3438 254.965 59.543C254.704 58.7422 254.574 57.8145 254.574 56.7598C254.574 55.7116 254.721 54.7741 255.014 53.9473C255.307 53.1139 255.717 52.4108 256.244 51.8379C256.778 51.2585 257.416 50.819 258.158 50.5195C258.907 50.2135 259.73 50.0605 260.629 50.0605C261.202 50.0605 261.745 50.1126 262.26 50.2168C262.781 50.3145 263.279 50.474 263.754 50.6953V52.4238ZM274.75 52.4238C274.275 52.1699 273.786 51.9746 273.285 51.8379C272.784 51.6947 272.237 51.623 271.645 51.623C270.967 51.623 270.365 51.7435 269.838 51.9844C269.311 52.2253 268.865 52.5671 268.5 53.0098C268.142 53.446 267.865 53.9733 267.67 54.5918C267.481 55.2103 267.387 55.8939 267.387 56.6426C267.387 57.4238 267.465 58.1237 267.621 58.7422C267.777 59.3607 268.021 59.8848 268.354 60.3145C268.686 60.7441 269.109 61.0729 269.623 61.3008C270.144 61.5286 270.766 61.6426 271.488 61.6426C271.612 61.6426 271.745 61.6361 271.889 61.623C272.032 61.61 272.175 61.5938 272.318 61.5742C272.462 61.5482 272.598 61.5189 272.729 61.4863C272.865 61.4538 272.986 61.418 273.09 61.3789V57.3164H270.482V55.8809H274.809V62.4043C274.542 62.528 274.258 62.6387 273.959 62.7363C273.666 62.834 273.363 62.9154 273.051 62.9805C272.745 63.0456 272.439 63.0944 272.133 63.127C271.827 63.1595 271.531 63.1758 271.244 63.1758C270.372 63.1758 269.584 63.0391 268.881 62.7656C268.184 62.4922 267.589 62.0885 267.094 61.5547C266.605 61.0143 266.228 60.3438 265.961 59.543C265.701 58.7422 265.57 57.8145 265.57 56.7598C265.57 55.7116 265.717 54.7741 266.01 53.9473C266.303 53.1139 266.713 52.4108 267.24 51.8379C267.774 51.2585 268.412 50.819 269.154 50.5195C269.903 50.2135 270.727 50.0605 271.625 50.0605C272.198 50.0605 272.742 50.1126 273.256 50.2168C273.777 50.3145 274.275 50.474 274.75 50.6953V52.4238ZM285.639 62.5215C284.617 62.9447 283.546 63.1562 282.426 63.1562C280.622 63.1562 279.236 62.6191 278.266 61.5449C277.302 60.4642 276.82 58.8691 276.82 56.7598C276.82 55.7376 276.954 54.8132 277.221 53.9863C277.488 53.1595 277.868 52.4596 278.363 51.8867C278.858 51.3073 279.457 50.8613 280.16 50.5488C280.863 50.2363 281.651 50.0801 282.523 50.0801C283.116 50.0801 283.666 50.1322 284.174 50.2363C284.682 50.334 285.17 50.487 285.639 50.6953V52.4043C285.176 52.1504 284.698 51.9583 284.203 51.8281C283.708 51.6914 283.168 51.623 282.582 51.623C281.983 51.623 281.439 51.737 280.951 51.9648C280.469 52.1862 280.059 52.5117 279.721 52.9414C279.382 53.3646 279.122 53.8854 278.939 54.5039C278.757 55.1159 278.666 55.8158 278.666 56.6035C278.666 58.2572 279.001 59.5039 279.672 60.3438C280.342 61.1836 281.326 61.6035 282.621 61.6035C283.168 61.6035 283.692 61.5417 284.193 61.418C284.695 61.2878 285.176 61.1087 285.639 60.8809V62.5215ZM296.742 52.4238C296.267 52.1699 295.779 51.9746 295.277 51.8379C294.776 51.6947 294.229 51.623 293.637 51.623C292.96 51.623 292.357 51.7435 291.83 51.9844C291.303 52.2253 290.857 52.5671 290.492 53.0098C290.134 53.446 289.857 53.9733 289.662 54.5918C289.473 55.2103 289.379 55.8939 289.379 56.6426C289.379 57.4238 289.457 58.1237 289.613 58.7422C289.77 59.3607 290.014 59.8848 290.346 60.3145C290.678 60.7441 291.101 61.0729 291.615 61.3008C292.136 61.5286 292.758 61.6426 293.48 61.6426C293.604 61.6426 293.738 61.6361 293.881 61.623C294.024 61.61 294.167 61.5938 294.311 61.5742C294.454 61.5482 294.59 61.5189 294.721 61.4863C294.857 61.4538 294.978 61.418 295.082 61.3789V57.3164H292.475V55.8809H296.801V62.4043C296.534 62.528 296.251 62.6387 295.951 62.7363C295.658 62.834 295.355 62.9154 295.043 62.9805C294.737 63.0456 294.431 63.0944 294.125 63.127C293.819 63.1595 293.523 63.1758 293.236 63.1758C292.364 63.1758 291.576 63.0391 290.873 62.7656C290.176 62.4922 289.581 62.0885 289.086 61.5547C288.598 61.0143 288.22 60.3438 287.953 59.543C287.693 58.7422 287.562 57.8145 287.562 56.7598C287.562 55.7116 287.709 54.7741 288.002 53.9473C288.295 53.1139 288.705 52.4108 289.232 51.8379C289.766 51.2585 290.404 50.819 291.146 50.5195C291.895 50.2135 292.719 50.0605 293.617 50.0605C294.19 50.0605 294.734 50.1126 295.248 50.2168C295.769 50.3145 296.267 50.474 296.742 50.6953V52.4238ZM241.762 75.4238C241.286 75.1699 240.798 74.9746 240.297 74.8379C239.796 74.6947 239.249 74.623 238.656 74.623C237.979 74.623 237.377 74.7435 236.85 74.9844C236.322 75.2253 235.876 75.5671 235.512 76.0098C235.154 76.446 234.877 76.9733 234.682 77.5918C234.493 78.2103 234.398 78.8939 234.398 79.6426C234.398 80.4238 234.477 81.1237 234.633 81.7422C234.789 82.3607 235.033 82.8848 235.365 83.3145C235.697 83.7441 236.12 84.0729 236.635 84.3008C237.156 84.5286 237.777 84.6426 238.5 84.6426C238.624 84.6426 238.757 84.6361 238.9 84.623C239.044 84.61 239.187 84.5938 239.33 84.5742C239.473 84.5482 239.61 84.5189 239.74 84.4863C239.877 84.4538 239.997 84.418 240.102 84.3789V80.3164H237.494V78.8809H241.82V85.4043C241.553 85.528 241.27 85.6387 240.971 85.7363C240.678 85.834 240.375 85.9154 240.062 85.9805C239.757 86.0456 239.451 86.0944 239.145 86.127C238.839 86.1595 238.542 86.1758 238.256 86.1758C237.383 86.1758 236.596 86.0391 235.893 85.7656C235.196 85.4922 234.6 85.0885 234.105 84.5547C233.617 84.0143 233.24 83.3438 232.973 82.543C232.712 81.7422 232.582 80.8145 232.582 79.7598C232.582 78.7116 232.729 77.7741 233.021 76.9473C233.314 76.1139 233.725 75.4108 234.252 74.8379C234.786 74.2585 235.424 73.819 236.166 73.5195C236.915 73.2135 237.738 73.0605 238.637 73.0605C239.21 73.0605 239.753 73.1126 240.268 73.2168C240.788 73.3145 241.286 73.474 241.762 73.6953V75.4238ZM252.65 85.5215C251.628 85.9447 250.557 86.1562 249.438 86.1562C247.634 86.1562 246.247 85.6191 245.277 84.5449C244.314 83.4642 243.832 81.8691 243.832 79.7598C243.832 78.7376 243.965 77.8132 244.232 76.9863C244.499 76.1595 244.88 75.4596 245.375 74.8867C245.87 74.3073 246.469 73.8613 247.172 73.5488C247.875 73.2363 248.663 73.0801 249.535 73.0801C250.128 73.0801 250.678 73.1322 251.186 73.2363C251.693 73.334 252.182 73.487 252.65 73.6953V75.4043C252.188 75.1504 251.71 74.9583 251.215 74.8281C250.72 74.6914 250.18 74.623 249.594 74.623C248.995 74.623 248.451 74.737 247.963 74.9648C247.481 75.1862 247.071 75.5117 246.732 75.9414C246.394 76.3646 246.133 76.8854 245.951 77.5039C245.769 78.1159 245.678 78.8158 245.678 79.6035C245.678 81.2572 246.013 82.5039 246.684 83.3438C247.354 84.1836 248.337 84.6035 249.633 84.6035C250.18 84.6035 250.704 84.5417 251.205 84.418C251.706 84.2878 252.188 84.1087 252.65 83.8809V85.5215ZM263.754 75.4238C263.279 75.1699 262.79 74.9746 262.289 74.8379C261.788 74.6947 261.241 74.623 260.648 74.623C259.971 74.623 259.369 74.7435 258.842 74.9844C258.314 75.2253 257.868 75.5671 257.504 76.0098C257.146 76.446 256.869 76.9733 256.674 77.5918C256.485 78.2103 256.391 78.8939 256.391 79.6426C256.391 80.4238 256.469 81.1237 256.625 81.7422C256.781 82.3607 257.025 82.8848 257.357 83.3145C257.689 83.7441 258.113 84.0729 258.627 84.3008C259.148 84.5286 259.77 84.6426 260.492 84.6426C260.616 84.6426 260.749 84.6361 260.893 84.623C261.036 84.61 261.179 84.5938 261.322 84.5742C261.465 84.5482 261.602 84.5189 261.732 84.4863C261.869 84.4538 261.99 84.418 262.094 84.3789V80.3164H259.486V78.8809H263.812V85.4043C263.546 85.528 263.262 85.6387 262.963 85.7363C262.67 85.834 262.367 85.9154 262.055 85.9805C261.749 86.0456 261.443 86.0944 261.137 86.127C260.831 86.1595 260.535 86.1758 260.248 86.1758C259.376 86.1758 258.588 86.0391 257.885 85.7656C257.188 85.4922 256.592 85.0885 256.098 84.5547C255.609 84.0143 255.232 83.3438 254.965 82.543C254.704 81.7422 254.574 80.8145 254.574 79.7598C254.574 78.7116 254.721 77.7741 255.014 76.9473C255.307 76.1139 255.717 75.4108 256.244 74.8379C256.778 74.2585 257.416 73.819 258.158 73.5195C258.907 73.2135 259.73 73.0605 260.629 73.0605C261.202 73.0605 261.745 73.1126 262.26 73.2168C262.781 73.3145 263.279 73.474 263.754 73.6953V75.4238ZM274.75 75.4238C274.275 75.1699 273.786 74.9746 273.285 74.8379C272.784 74.6947 272.237 74.623 271.645 74.623C270.967 74.623 270.365 74.7435 269.838 74.9844C269.311 75.2253 268.865 75.5671 268.5 76.0098C268.142 76.446 267.865 76.9733 267.67 77.5918C267.481 78.2103 267.387 78.8939 267.387 79.6426C267.387 80.4238 267.465 81.1237 267.621 81.7422C267.777 82.3607 268.021 82.8848 268.354 83.3145C268.686 83.7441 269.109 84.0729 269.623 84.3008C270.144 84.5286 270.766 84.6426 271.488 84.6426C271.612 84.6426 271.745 84.6361 271.889 84.623C272.032 84.61 272.175 84.5938 272.318 84.5742C272.462 84.5482 272.598 84.5189 272.729 84.4863C272.865 84.4538 272.986 84.418 273.09 84.3789V80.3164H270.482V78.8809H274.809V85.4043C274.542 85.528 274.258 85.6387 273.959 85.7363C273.666 85.834 273.363 85.9154 273.051 85.9805C272.745 86.0456 272.439 86.0944 272.133 86.127C271.827 86.1595 271.531 86.1758 271.244 86.1758C270.372 86.1758 269.584 86.0391 268.881 85.7656C268.184 85.4922 267.589 85.0885 267.094 84.5547C266.605 84.0143 266.228 83.3438 265.961 82.543C265.701 81.7422 265.57 80.8145 265.57 79.7598C265.57 78.7116 265.717 77.7741 266.01 76.9473C266.303 76.1139 266.713 75.4108 267.24 74.8379C267.774 74.2585 268.412 73.819 269.154 73.5195C269.903 73.2135 270.727 73.0605 271.625 73.0605C272.198 73.0605 272.742 73.1126 273.256 73.2168C273.777 73.3145 274.275 73.474 274.75 73.6953V75.4238ZM285.639 85.5215C284.617 85.9447 283.546 86.1562 282.426 86.1562C280.622 86.1562 279.236 85.6191 278.266 84.5449C277.302 83.4642 276.82 81.8691 276.82 79.7598C276.82 78.7376 276.954 77.8132 277.221 76.9863C277.488 76.1595 277.868 75.4596 278.363 74.8867C278.858 74.3073 279.457 73.8613 280.16 73.5488C280.863 73.2363 281.651 73.0801 282.523 73.0801C283.116 73.0801 283.666 73.1322 284.174 73.2363C284.682 73.334 285.17 73.487 285.639 73.6953V75.4043C285.176 75.1504 284.698 74.9583 284.203 74.8281C283.708 74.6914 283.168 74.623 282.582 74.623C281.983 74.623 281.439 74.737 280.951 74.9648C280.469 75.1862 280.059 75.5117 279.721 75.9414C279.382 76.3646 279.122 76.8854 278.939 77.5039C278.757 78.1159 278.666 78.8158 278.666 79.6035C278.666 81.2572 279.001 82.5039 279.672 83.3438C280.342 84.1836 281.326 84.6035 282.621 84.6035C283.168 84.6035 283.692 84.5417 284.193 84.418C284.695 84.2878 285.176 84.1087 285.639 83.8809V85.5215ZM296.742 75.4238C296.267 75.1699 295.779 74.9746 295.277 74.8379C294.776 74.6947 294.229 74.623 293.637 74.623C292.96 74.623 292.357 74.7435 291.83 74.9844C291.303 75.2253 290.857 75.5671 290.492 76.0098C290.134 76.446 289.857 76.9733 289.662 77.5918C289.473 78.2103 289.379 78.8939 289.379 79.6426C289.379 80.4238 289.457 81.1237 289.613 81.7422C289.77 82.3607 290.014 82.8848 290.346 83.3145C290.678 83.7441 291.101 84.0729 291.615 84.3008C292.136 84.5286 292.758 84.6426 293.48 84.6426C293.604 84.6426 293.738 84.6361 293.881 84.623C294.024 84.61 294.167 84.5938 294.311 84.5742C294.454 84.5482 294.59 84.5189 294.721 84.4863C294.857 84.4538 294.978 84.418 295.082 84.3789V80.3164H292.475V78.8809H296.801V85.4043C296.534 85.528 296.251 85.6387 295.951 85.7363C295.658 85.834 295.355 85.9154 295.043 85.9805C294.737 86.0456 294.431 86.0944 294.125 86.127C293.819 86.1595 293.523 86.1758 293.236 86.1758C292.364 86.1758 291.576 86.0391 290.873 85.7656C290.176 85.4922 289.581 85.0885 289.086 84.5547C288.598 84.0143 288.22 83.3438 287.953 82.543C287.693 81.7422 287.562 80.8145 287.562 79.7598C287.562 78.7116 287.709 77.7741 288.002 76.9473C288.295 76.1139 288.705 75.4108 289.232 74.8379C289.766 74.2585 290.404 73.819 291.146 73.5195C291.895 73.2135 292.719 73.0605 293.617 73.0605C294.19 73.0605 294.734 73.1126 295.248 73.2168C295.769 73.3145 296.267 73.474 296.742 73.6953V75.4238Z" fill="#989B05"/>
<path d="M232.5 49C232.5 48.1716 233.172 47.5 234 47.5H296C296.828 47.5 297.5 48.1716 297.5 49V64C297.5 64.8284 296.828 65.5 296 65.5H234C233.172 65.5 232.5 64.8284 232.5 64V49Z" stroke="#C9D1D9"/>
<path d="M287 43C287 42.4477 287.448 42 288 42H298C298.552 42 299 42.4477 299 43V69C299 69.5523 298.552 70 298 70H288C287.448 70 287 69.5523 287 69V43Z" stroke="#C9D1D9" stroke-width="2"/>
<path d="M199 67C199 66.4477 199.448 66 200 66H210C210.552 66 211 66.4477 211 67V93C211 93.5523 210.552 94 210 94H200C199.448 94 199 93.5523 199 93V67Z" stroke="#C9D1D9" stroke-width="2"/>
<path d="M1.45312 19V7.23438H2.92188V14.9062L6.88281 10.7188H8.49219L5.125 14.3594L8.82812 19H7.13281L4.16406 15.1562L2.92188 16.3906V19H1.45312ZM11.625 16.6641C11.625 17.5859 12.2786 18.0469 13.5859 18.0469C14.8932 18.0469 15.5469 17.5859 15.5469 16.6641V13.0781C15.5469 12.151 14.8932 11.6875 13.5859 11.6875C12.2786 11.6875 11.625 12.151 11.625 13.0781V16.6641ZM17.0156 16.5391C17.0156 17.3516 16.737 17.9948 16.1797 18.4688C15.6276 18.9375 14.7604 19.1719 13.5781 19.1719C12.3958 19.1719 11.5286 18.9375 10.9766 18.4688C10.4297 18 10.1562 17.3568 10.1562 16.5391V13.2031C10.1562 12.3854 10.4297 11.7422 10.9766 11.2734C11.5286 10.7995 12.3958 10.5625 13.5781 10.5625C14.7604 10.5625 15.6276 10.7995 16.1797 11.2734C16.737 11.7474 17.0156 12.3906 17.0156 13.2031V16.5391ZM19.625 19V10.7188H21.0938V11.8906C21.2812 11.3802 21.7891 11.0104 22.6172 10.7812C23.0495 10.6562 23.5 10.5964 23.9688 10.6016L23.9219 11.8594C23.2135 11.8594 22.5651 12 21.9766 12.2812C21.388 12.5625 21.0938 12.8698 21.0938 13.2031V19H19.625ZM28.0547 19.1719C27.2161 19.1719 26.5651 18.9453 26.1016 18.4922C25.638 18.0339 25.4062 17.4661 25.4062 16.7891C25.4062 16.4036 25.487 16.0833 25.6484 15.8281C25.9766 15.3073 26.9557 14.8099 28.5859 14.3359C29.5286 14.0755 30.0703 13.8516 30.2109 13.6641C30.3568 13.4766 30.4375 13.3307 30.4531 13.2266C30.4688 13.1172 30.4766 12.9453 30.4766 12.7109C30.4766 12.4766 30.3802 12.2474 30.1875 12.0234C30 11.7995 29.5885 11.6875 28.9531 11.6875C28.0573 11.6875 27.5078 11.8594 27.3047 12.2031C27.2005 12.3802 27.1484 12.6198 27.1484 12.9219V13.2891H25.7344V12.9141C25.7344 12.1068 26.0026 11.513 26.5391 11.1328C27.0807 10.7526 27.888 10.5625 28.9609 10.5625C30.0339 10.5625 30.7995 10.8073 31.2578 11.2969C31.7161 11.7812 31.9453 12.474 31.9453 13.375V16.9062C31.9453 17.3385 32 17.6198 32.1094 17.75C32.2188 17.875 32.4531 17.9375 32.8125 17.9375L32.6406 19.0625H32.3438C31.8229 19.0625 31.4349 18.9635 31.1797 18.7656C30.9245 18.5625 30.7292 18.25 30.5938 17.8281C30.1615 18.474 29.6406 18.8802 29.0312 19.0469C28.7396 19.1302 28.4141 19.1719 28.0547 19.1719ZM28.7891 15.3438C28.0495 15.5573 27.5365 15.7708 27.25 15.9844C26.9688 16.1979 26.8281 16.5 26.8281 16.8906C26.8281 17.276 26.9583 17.5677 27.2188 17.7656C27.4844 17.9635 27.8021 18.0625 28.1719 18.0625C28.5469 18.0625 28.8854 18.0156 29.1875 17.9219C29.4896 17.8229 29.7604 17.6797 30 17.4922C30.2448 17.2995 30.4036 17.0807 30.4766 16.8359V14.4453C30.0964 14.8255 29.5339 15.125 28.7891 15.3438ZM34.9844 19V7.23438H36.4531V14.9062L40.4141 10.7188H42.0234L38.6562 14.3594L42.3594 19H40.6641L37.6953 15.1562L36.4531 16.3906V19H34.9844ZM49.6328 10.5C49.6328 9.36458 49.0417 8.79688 47.8594 8.79688C47.2448 8.79688 46.8177 8.85417 46.5781 8.96875C46.3385 9.08333 46.1667 9.22135 46.0625 9.38281C45.8438 9.72656 45.7344 10.263 45.7344 10.9922H44.2344C44.2344 10.0391 44.3958 9.3125 44.7188 8.8125C45.0417 8.30729 45.4609 7.96875 45.9766 7.79688C46.4974 7.61979 47.1068 7.53125 47.8047 7.53125C48.8203 7.53125 49.6224 7.77604 50.2109 8.26562C50.8047 8.75 51.1016 9.48698 51.1016 10.4766C51.1016 11.237 50.9583 11.8229 50.6719 12.2344C50.3906 12.6406 49.9297 12.8958 49.2891 13C49.9714 13.1406 50.4818 13.4297 50.8203 13.8672C51.1589 14.3047 51.3281 15.0182 51.3281 16.0078C51.3281 16.9974 51.026 17.7734 50.4219 18.3359C49.8177 18.8932 48.9557 19.1719 47.8359 19.1719C46.987 19.1719 46.3125 19.0599 45.8125 18.8359C45.3177 18.612 44.9401 18.2474 44.6797 17.7422C44.4193 17.237 44.2448 16.5339 44.1562 15.6328H45.6562C45.7188 16.5599 45.9193 17.1745 46.2578 17.4766C46.4453 17.6432 46.6667 17.7578 46.9219 17.8203C47.1771 17.8776 47.5104 17.9062 47.9219 17.9062C48.5833 17.9062 49.0677 17.737 49.375 17.3984C49.6823 17.0599 49.8359 16.4948 49.8359 15.7031C49.8359 14.9115 49.6901 14.388 49.3984 14.1328C49.112 13.8724 48.7578 13.7188 48.3359 13.6719C47.9193 13.625 47.513 13.6016 47.1172 13.6016V12.4375C47.9505 12.4375 48.513 12.3698 48.8047 12.2344C49.0964 12.099 49.3073 11.9349 49.4375 11.7422C49.5677 11.5443 49.6328 11.1302 49.6328 10.5Z" fill="#C9D1D9"/>
<defs>
<filter id="filter0_d" x="202.5" y="92.5" width="100" height="33" filterUnits="userSpaceOnUse" color-interpolation-filters="sRGB">
<feFlood flood-opacity="0" result="BackgroundImageFix"/>
<feColorMatrix in="SourceAlpha" type="matrix" values="0 0 0 0 0 0 0 0 0 0 0 0 0 0 0 0 0 0 127 0"/>
<feOffset dy="4"/>
<feGaussianBlur stdDeviation="2"/>
<feColorMatrix type="matrix" values="0 0 0 0 0 0 0 0 0 0 0 0 0 0 0 0 0 0 0.25 0"/>
<feBlend mode="normal" in2="BackgroundImageFix" result="effect1_dropShadow"/>
<feBlend mode="normal" in="SourceGraphic" in2="effect1_dropShadow" result="shape"/>
</filter>
</defs>
</svg>
