<svg width="754" height="155" viewBox="0 0 754 155" fill="none" xmlns="http://www.w3.org/2000/svg">
<g filter="url(#filter0_d)">
<path d="M268.094 134.5C268.094 134.917 268.216 135.219 268.461 135.406C268.706 135.594 269.099 135.688 269.641 135.688C270.182 135.688 270.641 135.576 271.016 135.352V130.203C270.609 130.01 270.151 129.914 269.641 129.914C269.13 129.914 268.745 130.005 268.484 130.188C268.224 130.365 268.094 130.659 268.094 131.07V134.5ZM269.305 137.18C268.19 137.18 267.354 136.945 266.797 136.477C266.245 136.003 265.969 135.333 265.969 134.469V131.117C265.969 130.299 266.255 129.648 266.828 129.164C267.406 128.674 268.281 128.43 269.453 128.43C269.953 128.43 270.474 128.529 271.016 128.727V125.156H273.141V137H271.703L271.477 136.508C270.836 136.956 270.112 137.18 269.305 137.18ZM278.477 137.18C277.154 137.18 276.062 136.961 275.203 136.523L275.633 135.078C276.612 135.495 277.534 135.703 278.398 135.703C279.06 135.703 279.435 135.409 279.523 134.82C279.534 134.747 279.539 134.68 279.539 134.617C279.539 134.195 279.302 133.909 278.828 133.758L276.984 133.18C276.354 132.982 275.906 132.685 275.641 132.289C275.38 131.893 275.25 131.411 275.25 130.844C275.25 130.823 275.25 130.802 275.25 130.781C275.26 129.214 276.333 128.43 278.469 128.43C279.521 128.43 280.464 128.667 281.297 129.141L280.797 130.461C280.531 130.32 280.169 130.195 279.711 130.086C279.258 129.971 278.831 129.914 278.43 129.914C278.029 129.914 277.737 129.987 277.555 130.133C277.372 130.273 277.281 130.518 277.281 130.867C277.281 131.211 277.474 131.443 277.859 131.562L279.594 132.109C280.286 132.328 280.773 132.635 281.055 133.031C281.341 133.427 281.484 133.979 281.484 134.688C281.484 135.396 281.224 135.99 280.703 136.469C280.182 136.943 279.44 137.18 278.477 137.18ZM284.008 135.461V133.242H286.336V135.461H284.008ZM284.008 130.328V128.109H286.336V130.328H284.008ZM294.984 137L299.234 127.281H293.969V125.469H301.766V127.078L297.438 137H294.984ZM310.023 140.039L309.188 139.68C309.453 139.378 309.708 138.974 309.953 138.469C310.203 137.969 310.328 137.479 310.328 137H309.039V134.844H311.555V136.586C311.555 137.279 311.383 137.951 311.039 138.602C310.695 139.258 310.357 139.737 310.023 140.039ZM321.445 137.094C320.482 137.094 319.768 136.875 319.305 136.438C318.841 136 318.609 135.268 318.609 134.242V125.164H320.734V134.211C320.734 134.68 320.844 135.016 321.062 135.219C321.281 135.417 321.672 135.516 322.234 135.516H322.5L322.336 137.094H321.445ZM324.125 137V125.156H326.25V132.297L329.57 128.609H331.992L328.836 132.227L332.133 137H329.812L327.188 133.117L326.25 134.078V137H324.125ZM334.117 135.461V133.242H336.445V135.461H334.117ZM334.117 130.328V128.109H336.445V130.328H334.117ZM349.742 128.648C349.742 127.555 349.148 127.008 347.961 127.008C347.216 127.008 346.69 127.174 346.383 127.508C346.081 127.836 345.93 128.417 345.93 129.25H343.547C343.547 127.859 343.88 126.846 344.547 126.211C345.214 125.576 346.318 125.258 347.859 125.258C349.922 125.258 351.221 125.948 351.758 127.328C351.914 127.729 351.992 128.174 351.992 128.664C351.992 129.466 351.805 130.167 351.43 130.766C351.055 131.365 350.443 132.026 349.594 132.75L346.703 135.227H351.797V137H344.195L343.914 135.234L348.188 131.383C348.792 130.841 349.201 130.38 349.414 130C349.633 129.62 349.742 129.169 349.742 128.648ZM358.438 133.141V131.984H363.938V133.141H358.438ZM366.156 136.758V134.969L370.555 132.656L366.156 130.375V128.555L371.969 131.805V133.516L366.156 136.758ZM380.094 134.5C380.094 134.917 380.216 135.219 380.461 135.406C380.706 135.594 381.099 135.688 381.641 135.688C382.182 135.688 382.641 135.576 383.016 135.352V130.203C382.609 130.01 382.151 129.914 381.641 129.914C381.13 129.914 380.745 130.005 380.484 130.188C380.224 130.365 380.094 130.659 380.094 131.07V134.5ZM381.305 137.18C380.19 137.18 379.354 136.945 378.797 136.477C378.245 136.003 377.969 135.333 377.969 134.469V131.117C377.969 130.299 378.255 129.648 378.828 129.164C379.406 128.674 380.281 128.43 381.453 128.43C381.953 128.43 382.474 128.529 383.016 128.727V125.156H385.141V137H383.703L383.477 136.508C382.836 136.956 382.112 137.18 381.305 137.18ZM390.969 137.18C388.542 137.18 387.328 136.273 387.328 134.461V131.156C387.328 130.297 387.646 129.628 388.281 129.148C388.922 128.669 389.815 128.43 390.961 128.43C392.112 128.43 393.008 128.672 393.648 129.156C394.289 129.635 394.609 130.302 394.609 131.156V134.461C394.609 135.81 393.969 136.654 392.688 136.992C392.208 137.117 391.635 137.18 390.969 137.18ZM390.969 135.703C391.979 135.703 392.484 135.32 392.484 134.555V131.062C392.484 130.651 392.357 130.357 392.102 130.18C391.846 130.003 391.469 129.914 390.969 129.914C389.958 129.914 389.453 130.297 389.453 131.062V134.555C389.453 134.966 389.578 135.26 389.828 135.438C390.083 135.615 390.464 135.703 390.969 135.703ZM401.906 131.078C401.906 130.302 401.427 129.914 400.469 129.914C400 129.914 399.495 130.044 398.953 130.305V135.312C399.276 135.562 399.708 135.688 400.25 135.688C401.354 135.688 401.906 135.284 401.906 134.477V131.078ZM404.031 134.43C404.031 135.253 403.727 135.917 403.117 136.422C402.513 136.927 401.763 137.18 400.867 137.18C399.977 137.18 399.188 136.951 398.5 136.492L398.289 137H396.828V125.156H398.953V128.875C399.516 128.578 400.083 128.43 400.656 128.43C402.068 128.43 403.031 128.794 403.547 129.523C403.87 129.982 404.031 130.513 404.031 131.117V134.43ZM407.992 134.703C407.992 135.375 408.357 135.711 409.086 135.711C409.372 135.711 409.674 135.635 409.992 135.484C410.31 135.333 410.56 135.12 410.742 134.844V132.75C410.492 132.953 410.052 133.172 409.422 133.406C408.792 133.635 408.396 133.849 408.234 134.047C408.073 134.24 407.992 134.458 407.992 134.703ZM410.914 136.07C410.669 136.388 410.318 136.654 409.859 136.867C409.406 137.076 408.854 137.18 408.203 137.18C407.552 137.18 407 136.969 406.547 136.547C406.099 136.125 405.875 135.586 405.875 134.93C405.875 134.273 406.078 133.747 406.484 133.352C406.896 132.956 407.68 132.576 408.836 132.211C409.539 131.987 410.031 131.786 410.312 131.609C410.599 131.432 410.742 131.188 410.742 130.875C410.742 130.229 410.302 129.909 409.422 129.914C408.927 129.914 408.586 130.01 408.398 130.203C408.211 130.391 408.117 130.664 408.117 131.023V131.352H406.125V131.102C406.125 130.263 406.404 129.609 406.961 129.141C407.518 128.667 408.375 128.43 409.531 128.43C410.688 128.43 411.526 128.674 412.047 129.164C412.573 129.654 412.836 130.357 412.836 131.273V134.594C412.836 134.969 412.883 135.216 412.977 135.336C413.07 135.456 413.25 135.516 413.516 135.516L413.43 137.062H412.984C412.406 137.062 411.956 136.984 411.633 136.828C411.31 136.667 411.07 136.414 410.914 136.07ZM415.422 137V128.609H417.547V129.609C417.672 129.37 417.932 129.156 418.328 128.969C419.01 128.641 419.669 128.477 420.305 128.477C420.378 128.477 420.445 128.479 420.508 128.484L420.461 130.289C419.529 130.336 418.755 130.51 418.141 130.812C417.797 130.979 417.599 131.167 417.547 131.375V137H415.422ZM428.82 137.18C427.497 137.18 426.406 136.961 425.547 136.523L425.977 135.078C426.956 135.495 427.878 135.703 428.742 135.703C429.404 135.703 429.779 135.409 429.867 134.82C429.878 134.747 429.883 134.68 429.883 134.617C429.883 134.195 429.646 133.909 429.172 133.758L427.328 133.18C426.698 132.982 426.25 132.685 425.984 132.289C425.724 131.893 425.594 131.411 425.594 130.844C425.594 130.823 425.594 130.802 425.594 130.781C425.604 129.214 426.677 128.43 428.812 128.43C429.865 128.43 430.807 128.667 431.641 129.141L431.141 130.461C430.875 130.32 430.513 130.195 430.055 130.086C429.602 129.971 429.174 129.914 428.773 129.914C428.372 129.914 428.081 129.987 427.898 130.133C427.716 130.273 427.625 130.518 427.625 130.867C427.625 131.211 427.818 131.443 428.203 131.562L429.938 132.109C430.63 132.328 431.117 132.635 431.398 133.031C431.685 133.427 431.828 133.979 431.828 134.688C431.828 135.396 431.568 135.99 431.047 136.469C430.526 136.943 429.784 137.18 428.82 137.18ZM438.93 136.078C438.763 136.422 438.44 136.693 437.961 136.891C437.482 137.083 436.951 137.18 436.367 137.18C435.529 137.18 434.867 136.948 434.383 136.484C433.898 136.021 433.656 135.435 433.656 134.727V128.609H435.781V134.383C435.781 134.784 435.922 135.083 436.203 135.281C436.49 135.479 436.839 135.578 437.25 135.578C437.661 135.578 438.034 135.469 438.367 135.25C438.701 135.026 438.867 134.698 438.867 134.266V128.609H440.992V137H438.992L438.93 136.078ZM449.516 127.414V125.531H451.641V127.414H449.516ZM444 137V129.961H442.891V128.609H444V128.211C444 127.195 444.227 126.432 444.68 125.922C445.138 125.411 445.857 125.156 446.836 125.156H447.82L447.922 126.633H447.219C446.792 126.633 446.503 126.719 446.352 126.891C446.206 127.057 446.133 127.302 446.133 127.625V128.609H451.641V137H449.516V129.961H446.133V137H444ZM454.156 137V125.156H456.281V132.297L459.602 128.609H462.023L458.867 132.227L462.164 137H459.844L457.219 133.117L456.281 134.078V137H454.156ZM466.383 137.18C465.06 137.18 463.969 136.961 463.109 136.523L463.539 135.078C464.518 135.495 465.44 135.703 466.305 135.703C466.966 135.703 467.341 135.409 467.43 134.82C467.44 134.747 467.445 134.68 467.445 134.617C467.445 134.195 467.208 133.909 466.734 133.758L464.891 133.18C464.26 132.982 463.812 132.685 463.547 132.289C463.286 131.893 463.156 131.411 463.156 130.844C463.156 130.823 463.156 130.802 463.156 130.781C463.167 129.214 464.24 128.43 466.375 128.43C467.427 128.43 468.37 128.667 469.203 129.141L468.703 130.461C468.438 130.32 468.076 130.195 467.617 130.086C467.164 129.971 466.737 129.914 466.336 129.914C465.935 129.914 465.643 129.987 465.461 130.133C465.279 130.273 465.188 130.518 465.188 130.867C465.188 131.211 465.38 131.443 465.766 131.562L467.5 132.109C468.193 132.328 468.68 132.635 468.961 133.031C469.247 133.427 469.391 133.979 469.391 134.688C469.391 135.396 469.13 135.99 468.609 136.469C468.089 136.943 467.346 137.18 466.383 137.18Z" fill="#C9D1D9"/>
<path d="M275.817 117.935C269.4 121.796 257.426 127.095 260.494 135.545C262.426 140.867 268.856 144.702 274.958 145.751C285.622 147.584 305.82 139.033 305.999 128.324C306.087 123.083 298.185 117.631 292.645 116.534C281.298 114.285 272.637 119.528 264.217 125.064" stroke="#0738E8" stroke-linecap="round" stroke-linejoin="round"/>
</g>
<g filter="url(#filter1_d)">
<circle cx="540" cy="33" r="10.5" stroke="#C9D1D9"/>
</g>
<g filter="url(#filter2_d)">
<circle cx="573" cy="11" r="10.5" stroke="#C9D1D9"/>
</g>
<path d="M412.156 5.7207H408.377V17H406.619V5.7207H402.84V4.23633H412.156V5.7207ZM418.494 7.01953C418.696 7.01953 418.888 7.06185 419.07 7.14648C419.253 7.22461 419.412 7.33203 419.549 7.46875C419.686 7.60547 419.793 7.76497 419.871 7.94727C419.956 8.12956 419.998 8.32161 419.998 8.52344C419.998 8.73177 419.956 8.92708 419.871 9.10938C419.793 9.28516 419.686 9.44141 419.549 9.57812C419.412 9.71484 419.253 9.82227 419.07 9.90039C418.888 9.97852 418.696 10.0176 418.494 10.0176C418.286 10.0176 418.09 9.97852 417.908 9.90039C417.732 9.82227 417.576 9.71484 417.439 9.57812C417.303 9.44141 417.195 9.28516 417.117 9.10938C417.039 8.92708 417 8.73177 417 8.52344C417 8.32161 417.039 8.12956 417.117 7.94727C417.195 7.76497 417.303 7.60547 417.439 7.46875C417.576 7.33203 417.732 7.22461 417.908 7.14648C418.09 7.06185 418.286 7.01953 418.494 7.01953ZM418.494 14.1777C418.696 14.1777 418.888 14.2201 419.07 14.3047C419.253 14.3828 419.412 14.4902 419.549 14.627C419.686 14.7637 419.793 14.9232 419.871 15.1055C419.956 15.2878 419.998 15.4798 419.998 15.6816C419.998 15.89 419.956 16.0853 419.871 16.2676C419.793 16.4434 419.686 16.5996 419.549 16.7363C419.412 16.873 419.253 16.9805 419.07 17.0586C418.888 17.1367 418.696 17.1758 418.494 17.1758C418.286 17.1758 418.09 17.1367 417.908 17.0586C417.732 16.9805 417.576 16.873 417.439 16.7363C417.303 16.5996 417.195 16.4434 417.117 16.2676C417.039 16.0853 417 15.89 417 15.6816C417 15.4798 417.039 15.2878 417.117 15.1055C417.195 14.9232 417.303 14.7637 417.439 14.627C417.576 14.4902 417.732 14.3828 417.908 14.3047C418.09 14.2201 418.286 14.1777 418.494 14.1777ZM444.812 6.42383C444.337 6.16992 443.849 5.97461 443.348 5.83789C442.846 5.69466 442.299 5.62305 441.707 5.62305C441.03 5.62305 440.428 5.74349 439.9 5.98438C439.373 6.22526 438.927 6.56706 438.562 7.00977C438.204 7.44596 437.928 7.97331 437.732 8.5918C437.544 9.21029 437.449 9.89388 437.449 10.6426C437.449 11.4238 437.527 12.1237 437.684 12.7422C437.84 13.3607 438.084 13.8848 438.416 14.3145C438.748 14.7441 439.171 15.0729 439.686 15.3008C440.206 15.5286 440.828 15.6426 441.551 15.6426C441.674 15.6426 441.808 15.6361 441.951 15.623C442.094 15.61 442.238 15.5938 442.381 15.5742C442.524 15.5482 442.661 15.5189 442.791 15.4863C442.928 15.4538 443.048 15.418 443.152 15.3789V11.3164H440.545V9.88086H444.871V16.4043C444.604 16.528 444.321 16.6387 444.021 16.7363C443.729 16.834 443.426 16.9154 443.113 16.9805C442.807 17.0456 442.501 17.0944 442.195 17.127C441.889 17.1595 441.593 17.1758 441.307 17.1758C440.434 17.1758 439.646 17.0391 438.943 16.7656C438.247 16.4922 437.651 16.0885 437.156 15.5547C436.668 15.0143 436.29 14.3438 436.023 13.543C435.763 12.7422 435.633 11.8145 435.633 10.7598C435.633 9.71159 435.779 8.77409 436.072 7.94727C436.365 7.11393 436.775 6.41081 437.303 5.83789C437.837 5.25846 438.475 4.81901 439.217 4.51953C439.965 4.21354 440.789 4.06055 441.688 4.06055C442.26 4.06055 442.804 4.11263 443.318 4.2168C443.839 4.31445 444.337 4.47396 444.812 4.69531V6.42383ZM456.141 5.7207H452.361V17H450.604V5.7207H446.824V4.23633H456.141V5.7207ZM467.137 5.7207H463.357V17H461.6V5.7207H457.82V4.23633H467.137V5.7207ZM478.875 17H476.98L476.092 14.2168H470.779L469.881 17H468.074L472.312 4.23633H474.695L478.875 17ZM475.594 12.6641L473.436 5.83789L471.277 12.6641H475.594ZM489.129 5.7207H485.35V17H483.592V5.7207H479.812V4.23633H489.129V5.7207ZM500.867 17H498.973L498.084 14.2168H492.771L491.873 17H490.066L494.305 4.23633H496.688L500.867 17ZM497.586 12.6641L495.428 5.83789L493.27 12.6641H497.586ZM510.789 6.42383C510.314 6.16992 509.826 5.97461 509.324 5.83789C508.823 5.69466 508.276 5.62305 507.684 5.62305C507.007 5.62305 506.404 5.74349 505.877 5.98438C505.35 6.22526 504.904 6.56706 504.539 7.00977C504.181 7.44596 503.904 7.97331 503.709 8.5918C503.52 9.21029 503.426 9.89388 503.426 10.6426C503.426 11.4238 503.504 12.1237 503.66 12.7422C503.816 13.3607 504.061 13.8848 504.393 14.3145C504.725 14.7441 505.148 15.0729 505.662 15.3008C506.183 15.5286 506.805 15.6426 507.527 15.6426C507.651 15.6426 507.785 15.6361 507.928 15.623C508.071 15.61 508.214 15.5938 508.357 15.5742C508.501 15.5482 508.637 15.5189 508.768 15.4863C508.904 15.4538 509.025 15.418 509.129 15.3789V11.3164H506.521V9.88086H510.848V16.4043C510.581 16.528 510.298 16.6387 509.998 16.7363C509.705 16.834 509.402 16.9154 509.09 16.9805C508.784 17.0456 508.478 17.0944 508.172 17.127C507.866 17.1595 507.57 17.1758 507.283 17.1758C506.411 17.1758 505.623 17.0391 504.92 16.7656C504.223 16.4922 503.628 16.0885 503.133 15.5547C502.645 15.0143 502.267 14.3438 502 13.543C501.74 12.7422 501.609 11.8145 501.609 10.7598C501.609 9.71159 501.756 8.77409 502.049 7.94727C502.342 7.11393 502.752 6.41081 503.279 5.83789C503.813 5.25846 504.451 4.81901 505.193 4.51953C505.942 4.21354 506.766 4.06055 507.664 4.06055C508.237 4.06055 508.781 4.11263 509.295 4.2168C509.816 4.31445 510.314 4.47396 510.789 4.69531V6.42383ZM521.678 16.5215C520.656 16.9447 519.585 17.1562 518.465 17.1562C516.661 17.1562 515.275 16.6191 514.305 15.5449C513.341 14.4642 512.859 12.8691 512.859 10.7598C512.859 9.73763 512.993 8.81315 513.26 7.98633C513.527 7.15951 513.908 6.45964 514.402 5.88672C514.897 5.30729 515.496 4.86133 516.199 4.54883C516.902 4.23633 517.69 4.08008 518.562 4.08008C519.155 4.08008 519.705 4.13216 520.213 4.23633C520.721 4.33398 521.209 4.48698 521.678 4.69531V6.4043C521.215 6.15039 520.737 5.95833 520.242 5.82812C519.747 5.69141 519.207 5.62305 518.621 5.62305C518.022 5.62305 517.479 5.73698 516.99 5.96484C516.508 6.1862 516.098 6.51172 515.76 6.94141C515.421 7.36458 515.161 7.88542 514.979 8.50391C514.796 9.11589 514.705 9.81576 514.705 10.6035C514.705 12.2572 515.04 13.5039 515.711 14.3438C516.382 15.1836 517.365 15.6035 518.66 15.6035C519.207 15.6035 519.731 15.5417 520.232 15.418C520.734 15.2878 521.215 15.1087 521.678 14.8809V16.5215ZM533.113 5.7207H529.334V17H527.576V5.7207H523.797V4.23633H533.113V5.7207ZM543.777 6.42383C543.302 6.16992 542.814 5.97461 542.312 5.83789C541.811 5.69466 541.264 5.62305 540.672 5.62305C539.995 5.62305 539.393 5.74349 538.865 5.98438C538.338 6.22526 537.892 6.56706 537.527 7.00977C537.169 7.44596 536.893 7.97331 536.697 8.5918C536.508 9.21029 536.414 9.89388 536.414 10.6426C536.414 11.4238 536.492 12.1237 536.648 12.7422C536.805 13.3607 537.049 13.8848 537.381 14.3145C537.713 14.7441 538.136 15.0729 538.65 15.3008C539.171 15.5286 539.793 15.6426 540.516 15.6426C540.639 15.6426 540.773 15.6361 540.916 15.623C541.059 15.61 541.202 15.5938 541.346 15.5742C541.489 15.5482 541.626 15.5189 541.756 15.4863C541.893 15.4538 542.013 15.418 542.117 15.3789V11.3164H539.51V9.88086H543.836V16.4043C543.569 16.528 543.286 16.6387 542.986 16.7363C542.693 16.834 542.391 16.9154 542.078 16.9805C541.772 17.0456 541.466 17.0944 541.16 17.127C540.854 17.1595 540.558 17.1758 540.271 17.1758C539.399 17.1758 538.611 17.0391 537.908 16.7656C537.212 16.4922 536.616 16.0885 536.121 15.5547C535.633 15.0143 535.255 14.3438 534.988 13.543C534.728 12.7422 534.598 11.8145 534.598 10.7598C534.598 9.71159 534.744 8.77409 535.037 7.94727C535.33 7.11393 535.74 6.41081 536.268 5.83789C536.801 5.25846 537.439 4.81901 538.182 4.51953C538.93 4.21354 539.754 4.06055 540.652 4.06055C541.225 4.06055 541.769 4.11263 542.283 4.2168C542.804 4.31445 543.302 4.47396 543.777 4.69531V6.42383ZM555.848 17H553.953L553.064 14.2168H547.752L546.854 17H545.047L549.285 4.23633H551.668L555.848 17ZM552.566 12.6641L550.408 5.83789L548.25 12.6641H552.566ZM566.102 5.7207H562.322V17H560.564V5.7207H556.785V4.23633H566.102V5.7207ZM654.07 5.7207H650.291V17H648.533V5.7207H644.754V4.23633H654.07V5.7207ZM665.809 17H663.914L663.025 14.2168H657.713L656.814 17H655.008L659.246 4.23633H661.629L665.809 17ZM662.527 12.6641L660.369 5.83789L658.211 12.6641H662.527ZM675.73 6.42383C675.255 6.16992 674.767 5.97461 674.266 5.83789C673.764 5.69466 673.217 5.62305 672.625 5.62305C671.948 5.62305 671.346 5.74349 670.818 5.98438C670.291 6.22526 669.845 6.56706 669.48 7.00977C669.122 7.44596 668.846 7.97331 668.65 8.5918C668.462 9.21029 668.367 9.89388 668.367 10.6426C668.367 11.4238 668.445 12.1237 668.602 12.7422C668.758 13.3607 669.002 13.8848 669.334 14.3145C669.666 14.7441 670.089 15.0729 670.604 15.3008C671.124 15.5286 671.746 15.6426 672.469 15.6426C672.592 15.6426 672.726 15.6361 672.869 15.623C673.012 15.61 673.156 15.5938 673.299 15.5742C673.442 15.5482 673.579 15.5189 673.709 15.4863C673.846 15.4538 673.966 15.418 674.07 15.3789V11.3164H671.463V9.88086H675.789V16.4043C675.522 16.528 675.239 16.6387 674.939 16.7363C674.646 16.834 674.344 16.9154 674.031 16.9805C673.725 17.0456 673.419 17.0944 673.113 17.127C672.807 17.1595 672.511 17.1758 672.225 17.1758C671.352 17.1758 670.564 17.0391 669.861 16.7656C669.165 16.4922 668.569 16.0885 668.074 15.5547C667.586 15.0143 667.208 14.3438 666.941 13.543C666.681 12.7422 666.551 11.8145 666.551 10.7598C666.551 9.71159 666.697 8.77409 666.99 7.94727C667.283 7.11393 667.693 6.41081 668.221 5.83789C668.755 5.25846 669.393 4.81901 670.135 4.51953C670.883 4.21354 671.707 4.06055 672.605 4.06055C673.178 4.06055 673.722 4.11263 674.236 4.2168C674.757 4.31445 675.255 4.47396 675.73 4.69531V6.42383ZM686.619 16.5215C685.597 16.9447 684.526 17.1562 683.406 17.1562C681.603 17.1562 680.216 16.6191 679.246 15.5449C678.283 14.4642 677.801 12.8691 677.801 10.7598C677.801 9.73763 677.934 8.81315 678.201 7.98633C678.468 7.15951 678.849 6.45964 679.344 5.88672C679.839 5.30729 680.438 4.86133 681.141 4.54883C681.844 4.23633 682.632 4.08008 683.504 4.08008C684.096 4.08008 684.646 4.13216 685.154 4.23633C685.662 4.33398 686.15 4.48698 686.619 4.69531V6.4043C686.157 6.15039 685.678 5.95833 685.184 5.82812C684.689 5.69141 684.148 5.62305 683.562 5.62305C682.964 5.62305 682.42 5.73698 681.932 5.96484C681.45 6.1862 681.04 6.51172 680.701 6.94141C680.363 7.36458 680.102 7.88542 679.92 8.50391C679.738 9.11589 679.646 9.81576 679.646 10.6035C679.646 12.2572 679.982 13.5039 680.652 14.3438C681.323 15.1836 682.306 15.6035 683.602 15.6035C684.148 15.6035 684.673 15.5417 685.174 15.418C685.675 15.2878 686.157 15.1087 686.619 14.8809V16.5215ZM697.723 6.42383C697.247 6.16992 696.759 5.97461 696.258 5.83789C695.757 5.69466 695.21 5.62305 694.617 5.62305C693.94 5.62305 693.338 5.74349 692.811 5.98438C692.283 6.22526 691.837 6.56706 691.473 7.00977C691.115 7.44596 690.838 7.97331 690.643 8.5918C690.454 9.21029 690.359 9.89388 690.359 10.6426C690.359 11.4238 690.438 12.1237 690.594 12.7422C690.75 13.3607 690.994 13.8848 691.326 14.3145C691.658 14.7441 692.081 15.0729 692.596 15.3008C693.117 15.5286 693.738 15.6426 694.461 15.6426C694.585 15.6426 694.718 15.6361 694.861 15.623C695.005 15.61 695.148 15.5938 695.291 15.5742C695.434 15.5482 695.571 15.5189 695.701 15.4863C695.838 15.4538 695.958 15.418 696.062 15.3789V11.3164H693.455V9.88086H697.781V16.4043C697.514 16.528 697.231 16.6387 696.932 16.7363C696.639 16.834 696.336 16.9154 696.023 16.9805C695.717 17.0456 695.411 17.0944 695.105 17.127C694.799 17.1595 694.503 17.1758 694.217 17.1758C693.344 17.1758 692.557 17.0391 691.854 16.7656C691.157 16.4922 690.561 16.0885 690.066 15.5547C689.578 15.0143 689.201 14.3438 688.934 13.543C688.673 12.7422 688.543 11.8145 688.543 10.7598C688.543 9.71159 688.689 8.77409 688.982 7.94727C689.275 7.11393 689.686 6.41081 690.213 5.83789C690.747 5.25846 691.385 4.81901 692.127 4.51953C692.876 4.21354 693.699 4.06055 694.598 4.06055C695.171 4.06055 695.714 4.11263 696.229 4.2168C696.749 4.31445 697.247 4.47396 697.723 4.69531V6.42383ZM708.719 6.42383C708.243 6.16992 707.755 5.97461 707.254 5.83789C706.753 5.69466 706.206 5.62305 705.613 5.62305C704.936 5.62305 704.334 5.74349 703.807 5.98438C703.279 6.22526 702.833 6.56706 702.469 7.00977C702.111 7.44596 701.834 7.97331 701.639 8.5918C701.45 9.21029 701.355 9.89388 701.355 10.6426C701.355 11.4238 701.434 12.1237 701.59 12.7422C701.746 13.3607 701.99 13.8848 702.322 14.3145C702.654 14.7441 703.077 15.0729 703.592 15.3008C704.113 15.5286 704.734 15.6426 705.457 15.6426C705.581 15.6426 705.714 15.6361 705.857 15.623C706.001 15.61 706.144 15.5938 706.287 15.5742C706.43 15.5482 706.567 15.5189 706.697 15.4863C706.834 15.4538 706.954 15.418 707.059 15.3789V11.3164H704.451V9.88086H708.777V16.4043C708.51 16.528 708.227 16.6387 707.928 16.7363C707.635 16.834 707.332 16.9154 707.02 16.9805C706.714 17.0456 706.408 17.0944 706.102 17.127C705.796 17.1595 705.499 17.1758 705.213 17.1758C704.34 17.1758 703.553 17.0391 702.85 16.7656C702.153 16.4922 701.557 16.0885 701.062 15.5547C700.574 15.0143 700.197 14.3438 699.93 13.543C699.669 12.7422 699.539 11.8145 699.539 10.7598C699.539 9.71159 699.686 8.77409 699.979 7.94727C700.271 7.11393 700.682 6.41081 701.209 5.83789C701.743 5.25846 702.381 4.81901 703.123 4.51953C703.872 4.21354 704.695 4.06055 705.594 4.06055C706.167 4.06055 706.71 4.11263 707.225 4.2168C707.745 4.31445 708.243 4.47396 708.719 4.69531V6.42383ZM719.607 16.5215C718.585 16.9447 717.514 17.1562 716.395 17.1562C714.591 17.1562 713.204 16.6191 712.234 15.5449C711.271 14.4642 710.789 12.8691 710.789 10.7598C710.789 9.73763 710.923 8.81315 711.189 7.98633C711.456 7.15951 711.837 6.45964 712.332 5.88672C712.827 5.30729 713.426 4.86133 714.129 4.54883C714.832 4.23633 715.62 4.08008 716.492 4.08008C717.085 4.08008 717.635 4.13216 718.143 4.23633C718.65 4.33398 719.139 4.48698 719.607 4.69531V6.4043C719.145 6.15039 718.667 5.95833 718.172 5.82812C717.677 5.69141 717.137 5.62305 716.551 5.62305C715.952 5.62305 715.408 5.73698 714.92 5.96484C714.438 6.1862 714.028 6.51172 713.689 6.94141C713.351 7.36458 713.09 7.88542 712.908 8.50391C712.726 9.11589 712.635 9.81576 712.635 10.6035C712.635 12.2572 712.97 13.5039 713.641 14.3438C714.311 15.1836 715.294 15.6035 716.59 15.6035C717.137 15.6035 717.661 15.5417 718.162 15.418C718.663 15.2878 719.145 15.1087 719.607 14.8809V16.5215ZM730.711 6.42383C730.236 6.16992 729.747 5.97461 729.246 5.83789C728.745 5.69466 728.198 5.62305 727.605 5.62305C726.928 5.62305 726.326 5.74349 725.799 5.98438C725.271 6.22526 724.826 6.56706 724.461 7.00977C724.103 7.44596 723.826 7.97331 723.631 8.5918C723.442 9.21029 723.348 9.89388 723.348 10.6426C723.348 11.4238 723.426 12.1237 723.582 12.7422C723.738 13.3607 723.982 13.8848 724.314 14.3145C724.646 14.7441 725.07 15.0729 725.584 15.3008C726.105 15.5286 726.727 15.6426 727.449 15.6426C727.573 15.6426 727.706 15.6361 727.85 15.623C727.993 15.61 728.136 15.5938 728.279 15.5742C728.423 15.5482 728.559 15.5189 728.689 15.4863C728.826 15.4538 728.947 15.418 729.051 15.3789V11.3164H726.443V9.88086H730.77V16.4043C730.503 16.528 730.219 16.6387 729.92 16.7363C729.627 16.834 729.324 16.9154 729.012 16.9805C728.706 17.0456 728.4 17.0944 728.094 17.127C727.788 17.1595 727.492 17.1758 727.205 17.1758C726.333 17.1758 725.545 17.0391 724.842 16.7656C724.145 16.4922 723.549 16.0885 723.055 15.5547C722.566 15.0143 722.189 14.3438 721.922 13.543C721.661 12.7422 721.531 11.8145 721.531 10.7598C721.531 9.71159 721.678 8.77409 721.971 7.94727C722.264 7.11393 722.674 6.41081 723.201 5.83789C723.735 5.25846 724.373 4.81901 725.115 4.51953C725.864 4.21354 726.688 4.06055 727.586 4.06055C728.159 4.06055 728.702 4.11263 729.217 4.2168C729.738 4.31445 730.236 4.47396 730.711 4.69531V6.42383ZM742.781 17H740.887L739.998 14.2168H734.686L733.787 17H731.98L736.219 4.23633H738.602L742.781 17ZM739.5 12.6641L737.342 5.83789L735.184 12.6641H739.5ZM753.777 17H751.883L750.994 14.2168H745.682L744.783 17H742.977L747.215 4.23633H749.598L753.777 17ZM750.496 12.6641L748.338 5.83789L746.18 12.6641H750.496ZM411.922 31.1426C411.922 31.6634 411.824 32.181 411.629 32.6953C411.434 33.2031 411.131 33.6589 410.721 34.0625C410.311 34.4661 409.786 34.7949 409.148 35.0488C408.51 35.2962 407.749 35.4199 406.863 35.4199H405.281V40H403.543V27.2363H407.137C407.768 27.2363 408.374 27.3079 408.953 27.4512C409.533 27.5879 410.04 27.8125 410.477 28.125C410.919 28.4375 411.271 28.8411 411.531 29.3359C411.792 29.8307 411.922 30.4329 411.922 31.1426ZM410.115 31.2207C410.115 30.4004 409.845 29.7721 409.305 29.3359C408.771 28.8997 408.022 28.6816 407.059 28.6816H405.281V33.9355H406.902C407.931 33.9355 408.722 33.7109 409.275 33.2617C409.835 32.8125 410.115 32.1322 410.115 31.2207ZM418.494 30.0195C418.696 30.0195 418.888 30.0618 419.07 30.1465C419.253 30.2246 419.412 30.332 419.549 30.4688C419.686 30.6055 419.793 30.765 419.871 30.9473C419.956 31.1296 419.998 31.3216 419.998 31.5234C419.998 31.7318 419.956 31.9271 419.871 32.1094C419.793 32.2852 419.686 32.4414 419.549 32.5781C419.412 32.7148 419.253 32.8223 419.07 32.9004C418.888 32.9785 418.696 33.0176 418.494 33.0176C418.286 33.0176 418.09 32.9785 417.908 32.9004C417.732 32.8223 417.576 32.7148 417.439 32.5781C417.303 32.4414 417.195 32.2852 417.117 32.1094C417.039 31.9271 417 31.7318 417 31.5234C417 31.3216 417.039 31.1296 417.117 30.9473C417.195 30.765 417.303 30.6055 417.439 30.4688C417.576 30.332 417.732 30.2246 417.908 30.1465C418.09 30.0618 418.286 30.0195 418.494 30.0195ZM418.494 37.1777C418.696 37.1777 418.888 37.2201 419.07 37.3047C419.253 37.3828 419.412 37.4902 419.549 37.627C419.686 37.7637 419.793 37.9232 419.871 38.1055C419.956 38.2878 419.998 38.4798 419.998 38.6816C419.998 38.89 419.956 39.0853 419.871 39.2676C419.793 39.4434 419.686 39.5996 419.549 39.7363C419.412 39.873 419.253 39.9805 419.07 40.0586C418.888 40.1367 418.696 40.1758 418.494 40.1758C418.286 40.1758 418.09 40.1367 417.908 40.0586C417.732 39.9805 417.576 39.873 417.439 39.7363C417.303 39.5996 417.195 39.4434 417.117 39.2676C417.039 39.0853 417 38.89 417 38.6816C417 38.4798 417.039 38.2878 417.117 38.1055C417.195 37.9232 417.303 37.7637 417.439 37.627C417.576 37.4902 417.732 37.3828 417.908 37.3047C418.09 37.2201 418.286 37.1777 418.494 37.1777ZM554.773 29.4238C554.298 29.1699 553.81 28.9746 553.309 28.8379C552.807 28.6947 552.26 28.623 551.668 28.623C550.991 28.623 550.389 28.7435 549.861 28.9844C549.334 29.2253 548.888 29.5671 548.523 30.0098C548.165 30.446 547.889 30.9733 547.693 31.5918C547.505 32.2103 547.41 32.8939 547.41 33.6426C547.41 34.4238 547.488 35.1237 547.645 35.7422C547.801 36.3607 548.045 36.8848 548.377 37.3145C548.709 37.7441 549.132 38.0729 549.646 38.3008C550.167 38.5286 550.789 38.6426 551.512 38.6426C551.635 38.6426 551.769 38.6361 551.912 38.623C552.055 38.61 552.199 38.5938 552.342 38.5742C552.485 38.5482 552.622 38.5189 552.752 38.4863C552.889 38.4538 553.009 38.418 553.113 38.3789V34.3164H550.506V32.8809H554.832V39.4043C554.565 39.528 554.282 39.6387 553.982 39.7363C553.689 39.834 553.387 39.9154 553.074 39.9805C552.768 40.0456 552.462 40.0944 552.156 40.127C551.85 40.1595 551.554 40.1758 551.268 40.1758C550.395 40.1758 549.607 40.0391 548.904 39.7656C548.208 39.4922 547.612 39.0885 547.117 38.5547C546.629 38.0143 546.251 37.3438 545.984 36.543C545.724 35.7422 545.594 34.8145 545.594 33.7598C545.594 32.7116 545.74 31.7741 546.033 30.9473C546.326 30.1139 546.736 29.4108 547.264 28.8379C547.798 28.2585 548.436 27.819 549.178 27.5195C549.926 27.2135 550.75 27.0605 551.648 27.0605C552.221 27.0605 552.765 27.1126 553.279 27.2168C553.8 27.3145 554.298 27.474 554.773 27.6953V29.4238ZM566.102 28.7207H562.322V40H560.564V28.7207H556.785V27.2363H566.102V28.7207Z" fill="#C9D1D9"/>
<path d="M576.658 16.5215C575.636 16.9447 574.565 17.1562 573.445 17.1562C571.642 17.1562 570.255 16.6191 569.285 15.5449C568.322 14.4642 567.84 12.8691 567.84 10.7598C567.84 9.73763 567.973 8.81315 568.24 7.98633C568.507 7.15951 568.888 6.45964 569.383 5.88672C569.878 5.30729 570.477 4.86133 571.18 4.54883C571.883 4.23633 572.671 4.08008 573.543 4.08008C574.135 4.08008 574.686 4.13216 575.193 4.23633C575.701 4.33398 576.189 4.48698 576.658 4.69531V6.4043C576.196 6.15039 575.717 5.95833 575.223 5.82812C574.728 5.69141 574.188 5.62305 573.602 5.62305C573.003 5.62305 572.459 5.73698 571.971 5.96484C571.489 6.1862 571.079 6.51172 570.74 6.94141C570.402 7.36458 570.141 7.88542 569.959 8.50391C569.777 9.11589 569.686 9.81576 569.686 10.6035C569.686 12.2572 570.021 13.5039 570.691 14.3438C571.362 15.1836 572.345 15.6035 573.641 15.6035C574.188 15.6035 574.712 15.5417 575.213 15.418C575.714 15.2878 576.196 15.1087 576.658 14.8809V16.5215ZM577.84 40H575.945L575.057 37.2168H569.744L568.846 40H567.039L571.277 27.2363H573.66L577.84 40ZM574.559 35.6641L572.4 28.8379L570.242 35.6641H574.559Z" fill="#F40F0F"/>
<path d="M587.762 6.42383C587.286 6.16992 586.798 5.97461 586.297 5.83789C585.796 5.69466 585.249 5.62305 584.656 5.62305C583.979 5.62305 583.377 5.74349 582.85 5.98438C582.322 6.22526 581.876 6.56706 581.512 7.00977C581.154 7.44596 580.877 7.97331 580.682 8.5918C580.493 9.21029 580.398 9.89388 580.398 10.6426C580.398 11.4238 580.477 12.1237 580.633 12.7422C580.789 13.3607 581.033 13.8848 581.365 14.3145C581.697 14.7441 582.12 15.0729 582.635 15.3008C583.156 15.5286 583.777 15.6426 584.5 15.6426C584.624 15.6426 584.757 15.6361 584.9 15.623C585.044 15.61 585.187 15.5938 585.33 15.5742C585.473 15.5482 585.61 15.5189 585.74 15.4863C585.877 15.4538 585.997 15.418 586.102 15.3789V11.3164H583.494V9.88086H587.82V16.4043C587.553 16.528 587.27 16.6387 586.971 16.7363C586.678 16.834 586.375 16.9154 586.062 16.9805C585.757 17.0456 585.451 17.0944 585.145 17.127C584.839 17.1595 584.542 17.1758 584.256 17.1758C583.383 17.1758 582.596 17.0391 581.893 16.7656C581.196 16.4922 580.6 16.0885 580.105 15.5547C579.617 15.0143 579.24 14.3438 578.973 13.543C578.712 12.7422 578.582 11.8145 578.582 10.7598C578.582 9.71159 578.729 8.77409 579.021 7.94727C579.314 7.11393 579.725 6.41081 580.252 5.83789C580.786 5.25846 581.424 4.81901 582.166 4.51953C582.915 4.21354 583.738 4.06055 584.637 4.06055C585.21 4.06055 585.753 4.11263 586.268 4.2168C586.788 4.31445 587.286 4.47396 587.762 4.69531V6.42383ZM598.65 16.5215C597.628 16.9447 596.557 17.1562 595.438 17.1562C593.634 17.1562 592.247 16.6191 591.277 15.5449C590.314 14.4642 589.832 12.8691 589.832 10.7598C589.832 9.73763 589.965 8.81315 590.232 7.98633C590.499 7.15951 590.88 6.45964 591.375 5.88672C591.87 5.30729 592.469 4.86133 593.172 4.54883C593.875 4.23633 594.663 4.08008 595.535 4.08008C596.128 4.08008 596.678 4.13216 597.186 4.23633C597.693 4.33398 598.182 4.48698 598.65 4.69531V6.4043C598.188 6.15039 597.71 5.95833 597.215 5.82812C596.72 5.69141 596.18 5.62305 595.594 5.62305C594.995 5.62305 594.451 5.73698 593.963 5.96484C593.481 6.1862 593.071 6.51172 592.732 6.94141C592.394 7.36458 592.133 7.88542 591.951 8.50391C591.769 9.11589 591.678 9.81576 591.678 10.6035C591.678 12.2572 592.013 13.5039 592.684 14.3438C593.354 15.1836 594.337 15.6035 595.633 15.6035C596.18 15.6035 596.704 15.5417 597.205 15.418C597.706 15.2878 598.188 15.1087 598.65 14.8809V16.5215ZM609.754 6.42383C609.279 6.16992 608.79 5.97461 608.289 5.83789C607.788 5.69466 607.241 5.62305 606.648 5.62305C605.971 5.62305 605.369 5.74349 604.842 5.98438C604.314 6.22526 603.868 6.56706 603.504 7.00977C603.146 7.44596 602.869 7.97331 602.674 8.5918C602.485 9.21029 602.391 9.89388 602.391 10.6426C602.391 11.4238 602.469 12.1237 602.625 12.7422C602.781 13.3607 603.025 13.8848 603.357 14.3145C603.689 14.7441 604.113 15.0729 604.627 15.3008C605.148 15.5286 605.77 15.6426 606.492 15.6426C606.616 15.6426 606.749 15.6361 606.893 15.623C607.036 15.61 607.179 15.5938 607.322 15.5742C607.465 15.5482 607.602 15.5189 607.732 15.4863C607.869 15.4538 607.99 15.418 608.094 15.3789V11.3164H605.486V9.88086H609.812V16.4043C609.546 16.528 609.262 16.6387 608.963 16.7363C608.67 16.834 608.367 16.9154 608.055 16.9805C607.749 17.0456 607.443 17.0944 607.137 17.127C606.831 17.1595 606.535 17.1758 606.248 17.1758C605.376 17.1758 604.588 17.0391 603.885 16.7656C603.188 16.4922 602.592 16.0885 602.098 15.5547C601.609 15.0143 601.232 14.3438 600.965 13.543C600.704 12.7422 600.574 11.8145 600.574 10.7598C600.574 9.71159 600.721 8.77409 601.014 7.94727C601.307 7.11393 601.717 6.41081 602.244 5.83789C602.778 5.25846 603.416 4.81901 604.158 4.51953C604.907 4.21354 605.73 4.06055 606.629 4.06055C607.202 4.06055 607.745 4.11263 608.26 4.2168C608.781 4.31445 609.279 4.47396 609.754 4.69531V6.42383ZM620.75 6.42383C620.275 6.16992 619.786 5.97461 619.285 5.83789C618.784 5.69466 618.237 5.62305 617.645 5.62305C616.967 5.62305 616.365 5.74349 615.838 5.98438C615.311 6.22526 614.865 6.56706 614.5 7.00977C614.142 7.44596 613.865 7.97331 613.67 8.5918C613.481 9.21029 613.387 9.89388 613.387 10.6426C613.387 11.4238 613.465 12.1237 613.621 12.7422C613.777 13.3607 614.021 13.8848 614.354 14.3145C614.686 14.7441 615.109 15.0729 615.623 15.3008C616.144 15.5286 616.766 15.6426 617.488 15.6426C617.612 15.6426 617.745 15.6361 617.889 15.623C618.032 15.61 618.175 15.5938 618.318 15.5742C618.462 15.5482 618.598 15.5189 618.729 15.4863C618.865 15.4538 618.986 15.418 619.09 15.3789V11.3164H616.482V9.88086H620.809V16.4043C620.542 16.528 620.258 16.6387 619.959 16.7363C619.666 16.834 619.363 16.9154 619.051 16.9805C618.745 17.0456 618.439 17.0944 618.133 17.127C617.827 17.1595 617.531 17.1758 617.244 17.1758C616.372 17.1758 615.584 17.0391 614.881 16.7656C614.184 16.4922 613.589 16.0885 613.094 15.5547C612.605 15.0143 612.228 14.3438 611.961 13.543C611.701 12.7422 611.57 11.8145 611.57 10.7598C611.57 9.71159 611.717 8.77409 612.01 7.94727C612.303 7.11393 612.713 6.41081 613.24 5.83789C613.774 5.25846 614.412 4.81901 615.154 4.51953C615.903 4.21354 616.727 4.06055 617.625 4.06055C618.198 4.06055 618.742 4.11263 619.256 4.2168C619.777 4.31445 620.275 4.47396 620.75 4.69531V6.42383ZM631.639 16.5215C630.617 16.9447 629.546 17.1562 628.426 17.1562C626.622 17.1562 625.236 16.6191 624.266 15.5449C623.302 14.4642 622.82 12.8691 622.82 10.7598C622.82 9.73763 622.954 8.81315 623.221 7.98633C623.488 7.15951 623.868 6.45964 624.363 5.88672C624.858 5.30729 625.457 4.86133 626.16 4.54883C626.863 4.23633 627.651 4.08008 628.523 4.08008C629.116 4.08008 629.666 4.13216 630.174 4.23633C630.682 4.33398 631.17 4.48698 631.639 4.69531V6.4043C631.176 6.15039 630.698 5.95833 630.203 5.82812C629.708 5.69141 629.168 5.62305 628.582 5.62305C627.983 5.62305 627.439 5.73698 626.951 5.96484C626.469 6.1862 626.059 6.51172 625.721 6.94141C625.382 7.36458 625.122 7.88542 624.939 8.50391C624.757 9.11589 624.666 9.81576 624.666 10.6035C624.666 12.2572 625.001 13.5039 625.672 14.3438C626.342 15.1836 627.326 15.6035 628.621 15.6035C629.168 15.6035 629.692 15.5417 630.193 15.418C630.695 15.2878 631.176 15.1087 631.639 14.8809V16.5215ZM642.742 6.42383C642.267 6.16992 641.779 5.97461 641.277 5.83789C640.776 5.69466 640.229 5.62305 639.637 5.62305C638.96 5.62305 638.357 5.74349 637.83 5.98438C637.303 6.22526 636.857 6.56706 636.492 7.00977C636.134 7.44596 635.857 7.97331 635.662 8.5918C635.473 9.21029 635.379 9.89388 635.379 10.6426C635.379 11.4238 635.457 12.1237 635.613 12.7422C635.77 13.3607 636.014 13.8848 636.346 14.3145C636.678 14.7441 637.101 15.0729 637.615 15.3008C638.136 15.5286 638.758 15.6426 639.48 15.6426C639.604 15.6426 639.738 15.6361 639.881 15.623C640.024 15.61 640.167 15.5938 640.311 15.5742C640.454 15.5482 640.59 15.5189 640.721 15.4863C640.857 15.4538 640.978 15.418 641.082 15.3789V11.3164H638.475V9.88086H642.801V16.4043C642.534 16.528 642.251 16.6387 641.951 16.7363C641.658 16.834 641.355 16.9154 641.043 16.9805C640.737 17.0456 640.431 17.0944 640.125 17.127C639.819 17.1595 639.523 17.1758 639.236 17.1758C638.364 17.1758 637.576 17.0391 636.873 16.7656C636.176 16.4922 635.581 16.0885 635.086 15.5547C634.598 15.0143 634.22 14.3438 633.953 13.543C633.693 12.7422 633.562 11.8145 633.562 10.7598C633.562 9.71159 633.709 8.77409 634.002 7.94727C634.295 7.11393 634.705 6.41081 635.232 5.83789C635.766 5.25846 636.404 4.81901 637.146 4.51953C637.895 4.21354 638.719 4.06055 639.617 4.06055C640.19 4.06055 640.734 4.11263 641.248 4.2168C641.769 4.31445 642.267 4.47396 642.742 4.69531V6.42383ZM587.762 29.4238C587.286 29.1699 586.798 28.9746 586.297 28.8379C585.796 28.6947 585.249 28.623 584.656 28.623C583.979 28.623 583.377 28.7435 582.85 28.9844C582.322 29.2253 581.876 29.5671 581.512 30.0098C581.154 30.446 580.877 30.9733 580.682 31.5918C580.493 32.2103 580.398 32.8939 580.398 33.6426C580.398 34.4238 580.477 35.1237 580.633 35.7422C580.789 36.3607 581.033 36.8848 581.365 37.3145C581.697 37.7441 582.12 38.0729 582.635 38.3008C583.156 38.5286 583.777 38.6426 584.5 38.6426C584.624 38.6426 584.757 38.6361 584.9 38.623C585.044 38.61 585.187 38.5938 585.33 38.5742C585.473 38.5482 585.61 38.5189 585.74 38.4863C585.877 38.4538 585.997 38.418 586.102 38.3789V34.3164H583.494V32.8809H587.82V39.4043C587.553 39.528 587.27 39.6387 586.971 39.7363C586.678 39.834 586.375 39.9154 586.062 39.9805C585.757 40.0456 585.451 40.0944 585.145 40.127C584.839 40.1595 584.542 40.1758 584.256 40.1758C583.383 40.1758 582.596 40.0391 581.893 39.7656C581.196 39.4922 580.6 39.0885 580.105 38.5547C579.617 38.0143 579.24 37.3438 578.973 36.543C578.712 35.7422 578.582 34.8145 578.582 33.7598C578.582 32.7116 578.729 31.7741 579.021 30.9473C579.314 30.1139 579.725 29.4108 580.252 28.8379C580.786 28.2585 581.424 27.819 582.166 27.5195C582.915 27.2135 583.738 27.0605 584.637 27.0605C585.21 27.0605 585.753 27.1126 586.268 27.2168C586.788 27.3145 587.286 27.474 587.762 27.6953V29.4238ZM598.65 39.5215C597.628 39.9447 596.557 40.1562 595.438 40.1562C593.634 40.1562 592.247 39.6191 591.277 38.5449C590.314 37.4642 589.832 35.8691 589.832 33.7598C589.832 32.7376 589.965 31.8132 590.232 30.9863C590.499 30.1595 590.88 29.4596 591.375 28.8867C591.87 28.3073 592.469 27.8613 593.172 27.5488C593.875 27.2363 594.663 27.0801 595.535 27.0801C596.128 27.0801 596.678 27.1322 597.186 27.2363C597.693 27.334 598.182 27.487 598.65 27.6953V29.4043C598.188 29.1504 597.71 28.9583 597.215 28.8281C596.72 28.6914 596.18 28.623 595.594 28.623C594.995 28.623 594.451 28.737 593.963 28.9648C593.481 29.1862 593.071 29.5117 592.732 29.9414C592.394 30.3646 592.133 30.8854 591.951 31.5039C591.769 32.1159 591.678 32.8158 591.678 33.6035C591.678 35.2572 592.013 36.5039 592.684 37.3438C593.354 38.1836 594.337 38.6035 595.633 38.6035C596.18 38.6035 596.704 38.5417 597.205 38.418C597.706 38.2878 598.188 38.1087 598.65 37.8809V39.5215ZM609.754 29.4238C609.279 29.1699 608.79 28.9746 608.289 28.8379C607.788 28.6947 607.241 28.623 606.648 28.623C605.971 28.623 605.369 28.7435 604.842 28.9844C604.314 29.2253 603.868 29.5671 603.504 30.0098C603.146 30.446 602.869 30.9733 602.674 31.5918C602.485 32.2103 602.391 32.8939 602.391 33.6426C602.391 34.4238 602.469 35.1237 602.625 35.7422C602.781 36.3607 603.025 36.8848 603.357 37.3145C603.689 37.7441 604.113 38.0729 604.627 38.3008C605.148 38.5286 605.77 38.6426 606.492 38.6426C606.616 38.6426 606.749 38.6361 606.893 38.623C607.036 38.61 607.179 38.5938 607.322 38.5742C607.465 38.5482 607.602 38.5189 607.732 38.4863C607.869 38.4538 607.99 38.418 608.094 38.3789V34.3164H605.486V32.8809H609.812V39.4043C609.546 39.528 609.262 39.6387 608.963 39.7363C608.67 39.834 608.367 39.9154 608.055 39.9805C607.749 40.0456 607.443 40.0944 607.137 40.127C606.831 40.1595 606.535 40.1758 606.248 40.1758C605.376 40.1758 604.588 40.0391 603.885 39.7656C603.188 39.4922 602.592 39.0885 602.098 38.5547C601.609 38.0143 601.232 37.3438 600.965 36.543C600.704 35.7422 600.574 34.8145 600.574 33.7598C600.574 32.7116 600.721 31.7741 601.014 30.9473C601.307 30.1139 601.717 29.4108 602.244 28.8379C602.778 28.2585 603.416 27.819 604.158 27.5195C604.907 27.2135 605.73 27.0605 606.629 27.0605C607.202 27.0605 607.745 27.1126 608.26 27.2168C608.781 27.3145 609.279 27.474 609.754 27.6953V29.4238ZM620.75 29.4238C620.275 29.1699 619.786 28.9746 619.285 28.8379C618.784 28.6947 618.237 28.623 617.645 28.623C616.967 28.623 616.365 28.7435 615.838 28.9844C615.311 29.2253 614.865 29.5671 614.5 30.0098C614.142 30.446 613.865 30.9733 613.67 31.5918C613.481 32.2103 613.387 32.8939 613.387 33.6426C613.387 34.4238 613.465 35.1237 613.621 35.7422C613.777 36.3607 614.021 36.8848 614.354 37.3145C614.686 37.7441 615.109 38.0729 615.623 38.3008C616.144 38.5286 616.766 38.6426 617.488 38.6426C617.612 38.6426 617.745 38.6361 617.889 38.623C618.032 38.61 618.175 38.5938 618.318 38.5742C618.462 38.5482 618.598 38.5189 618.729 38.4863C618.865 38.4538 618.986 38.418 619.09 38.3789V34.3164H616.482V32.8809H620.809V39.4043C620.542 39.528 620.258 39.6387 619.959 39.7363C619.666 39.834 619.363 39.9154 619.051 39.9805C618.745 40.0456 618.439 40.0944 618.133 40.127C617.827 40.1595 617.531 40.1758 617.244 40.1758C616.372 40.1758 615.584 40.0391 614.881 39.7656C614.184 39.4922 613.589 39.0885 613.094 38.5547C612.605 38.0143 612.228 37.3438 611.961 36.543C611.701 35.7422 611.57 34.8145 611.57 33.7598C611.57 32.7116 611.717 31.7741 612.01 30.9473C612.303 30.1139 612.713 29.4108 613.24 28.8379C613.774 28.2585 614.412 27.819 615.154 27.5195C615.903 27.2135 616.727 27.0605 617.625 27.0605C618.198 27.0605 618.742 27.1126 619.256 27.2168C619.777 27.3145 620.275 27.474 620.75 27.6953V29.4238ZM631.639 39.5215C630.617 39.9447 629.546 40.1562 628.426 40.1562C626.622 40.1562 625.236 39.6191 624.266 38.5449C623.302 37.4642 622.82 35.8691 622.82 33.7598C622.82 32.7376 622.954 31.8132 623.221 30.9863C623.488 30.1595 623.868 29.4596 624.363 28.8867C624.858 28.3073 625.457 27.8613 626.16 27.5488C626.863 27.2363 627.651 27.0801 628.523 27.0801C629.116 27.0801 629.666 27.1322 630.174 27.2363C630.682 27.334 631.17 27.487 631.639 27.6953V29.4043C631.176 29.1504 630.698 28.9583 630.203 28.8281C629.708 28.6914 629.168 28.623 628.582 28.623C627.983 28.623 627.439 28.737 626.951 28.9648C626.469 29.1862 626.059 29.5117 625.721 29.9414C625.382 30.3646 625.122 30.8854 624.939 31.5039C624.757 32.1159 624.666 32.8158 624.666 33.6035C624.666 35.2572 625.001 36.5039 625.672 37.3438C626.342 38.1836 627.326 38.6035 628.621 38.6035C629.168 38.6035 629.692 38.5417 630.193 38.418C630.695 38.2878 631.176 38.1087 631.639 37.8809V39.5215ZM642.742 29.4238C642.267 29.1699 641.779 28.9746 641.277 28.8379C640.776 28.6947 640.229 28.623 639.637 28.623C638.96 28.623 638.357 28.7435 637.83 28.9844C637.303 29.2253 636.857 29.5671 636.492 30.0098C636.134 30.446 635.857 30.9733 635.662 31.5918C635.473 32.2103 635.379 32.8939 635.379 33.6426C635.379 34.4238 635.457 35.1237 635.613 35.7422C635.77 36.3607 636.014 36.8848 636.346 37.3145C636.678 37.7441 637.101 38.0729 637.615 38.3008C638.136 38.5286 638.758 38.6426 639.48 38.6426C639.604 38.6426 639.738 38.6361 639.881 38.623C640.024 38.61 640.167 38.5938 640.311 38.5742C640.454 38.5482 640.59 38.5189 640.721 38.4863C640.857 38.4538 640.978 38.418 641.082 38.3789V34.3164H638.475V32.8809H642.801V39.4043C642.534 39.528 642.251 39.6387 641.951 39.7363C641.658 39.834 641.355 39.9154 641.043 39.9805C640.737 40.0456 640.431 40.0944 640.125 40.127C639.819 40.1595 639.523 40.1758 639.236 40.1758C638.364 40.1758 637.576 40.0391 636.873 39.7656C636.176 39.4922 635.581 39.0885 635.086 38.5547C634.598 38.0143 634.22 37.3438 633.953 36.543C633.693 35.7422 633.562 34.8145 633.562 33.7598C633.562 32.7116 633.709 31.7741 634.002 30.9473C634.295 30.1139 634.705 29.4108 635.232 28.8379C635.766 28.2585 636.404 27.819 637.146 27.5195C637.895 27.2135 638.719 27.0605 639.617 27.0605C640.19 27.0605 640.734 27.1126 641.248 27.2168C641.769 27.3145 642.267 27.474 642.742 27.6953V29.4238Z" fill="#989B05"/>
<path d="M552.842 50H548.031V49.0508H550V43.4609L548.166 44.457L547.791 43.5898L550.229 42.3066H551.131V49.0508H552.842V50Z" fill="#C9D1D9"/>
<path d="M563.906 50H558.861V49.0859L560.842 47.1172C561.166 46.7969 561.43 46.5195 561.633 46.2852C561.836 46.0508 561.994 45.8379 562.107 45.6465C562.221 45.4512 562.297 45.2676 562.336 45.0957C562.375 44.9238 562.395 44.7383 562.395 44.5391C562.395 44.3516 562.369 44.1738 562.318 44.0059C562.268 43.834 562.189 43.6836 562.084 43.5547C561.979 43.4258 561.842 43.3242 561.674 43.25C561.506 43.1758 561.305 43.1387 561.07 43.1387C560.746 43.1387 560.451 43.2109 560.186 43.3555C559.92 43.5 559.676 43.6875 559.453 43.918L558.891 43.2441C559.18 42.9395 559.512 42.6953 559.887 42.5117C560.266 42.3281 560.705 42.2363 561.205 42.2363C561.545 42.2363 561.854 42.2871 562.131 42.3887C562.412 42.4902 562.654 42.6367 562.857 42.8281C563.061 43.0195 563.217 43.2539 563.326 43.5312C563.439 43.8086 563.496 44.1211 563.496 44.4688C563.496 44.7617 563.457 45.0332 563.379 45.2832C563.301 45.5332 563.182 45.7832 563.021 46.0332C562.865 46.2793 562.666 46.5352 562.424 46.8008C562.186 47.0664 561.902 47.3574 561.574 47.6738L560.186 49.0273H563.906V50Z" fill="#C9D1D9"/>
<g filter="url(#filter3_d)">
<path d="M151 53C151 73.36 175.406 79.06 190.472 76.3813C197.621 75.1103 204.45 73.072 211.14 69.8848C217.387 66.9089 223.708 63.1934 230.128 60.7249C232.857 59.6755 235.371 58.0507 238.108 57.041C238.165 57.0201 241.282 56.1963 240.982 55.896C240.42 55.3335 237.837 55.7964 237.091 55.7964C233.643 55.7964 228.068 58.1281 234.306 55.9956C236.097 55.3834 243.664 52.669 241.667 56.6676C240.755 58.4928 239.891 60.339 238.992 62.1686C238.441 63.2908 237.484 67.8642 237.091 65.6533" stroke="#C9D1D9" stroke-linecap="round" stroke-linejoin="round"/>
</g>
<path d="M174.906 59H169.861V58.0859L171.842 56.1172C172.166 55.7969 172.43 55.5195 172.633 55.2852C172.836 55.0508 172.994 54.8379 173.107 54.6465C173.221 54.4512 173.297 54.2676 173.336 54.0957C173.375 53.9238 173.395 53.7383 173.395 53.5391C173.395 53.3516 173.369 53.1738 173.318 53.0059C173.268 52.834 173.189 52.6836 173.084 52.5547C172.979 52.4258 172.842 52.3242 172.674 52.25C172.506 52.1758 172.305 52.1387 172.07 52.1387C171.746 52.1387 171.451 52.2109 171.186 52.3555C170.92 52.5 170.676 52.6875 170.453 52.918L169.891 52.2441C170.18 51.9395 170.512 51.6953 170.887 51.5117C171.266 51.3281 171.705 51.2363 172.205 51.2363C172.545 51.2363 172.854 51.2871 173.131 51.3887C173.412 51.4902 173.654 51.6367 173.857 51.8281C174.061 52.0195 174.217 52.2539 174.326 52.5312C174.439 52.8086 174.496 53.1211 174.496 53.4688C174.496 53.7617 174.457 54.0332 174.379 54.2832C174.301 54.5332 174.182 54.7832 174.021 55.0332C173.865 55.2793 173.666 55.5352 173.424 55.8008C173.186 56.0664 172.902 56.3574 172.574 56.6738L171.186 58.0273H174.906V59Z" fill="#C9D1D9"/>
<path d="M184.76 56.6738C184.76 57.0098 184.691 57.3262 184.555 57.623C184.418 57.916 184.213 58.1738 183.939 58.3965C183.666 58.6152 183.322 58.7891 182.908 58.918C182.494 59.043 182.012 59.1055 181.461 59.1055C181.156 59.1055 180.883 59.0957 180.641 59.0762C180.398 59.0566 180.172 59.0312 179.961 59V58.0859C180.203 58.1289 180.459 58.1621 180.729 58.1855C180.998 58.209 181.273 58.2207 181.555 58.2207C181.938 58.2207 182.264 58.1875 182.533 58.1211C182.807 58.0508 183.029 57.9512 183.201 57.8223C183.373 57.6934 183.498 57.5371 183.576 57.3535C183.654 57.1699 183.693 56.9629 183.693 56.7324C183.693 56.5215 183.646 56.3379 183.553 56.1816C183.459 56.0254 183.326 55.8945 183.154 55.7891C182.986 55.6836 182.783 55.6055 182.545 55.5547C182.311 55.5 182.053 55.4727 181.771 55.4727H180.898V54.6348H181.783C182.014 54.6348 182.223 54.6055 182.41 54.5469C182.602 54.4844 182.764 54.3965 182.896 54.2832C183.033 54.1699 183.137 54.0312 183.207 53.8672C183.281 53.6992 183.318 53.5098 183.318 53.2988C183.318 52.8887 183.193 52.5898 182.943 52.4023C182.693 52.2148 182.326 52.1211 181.842 52.1211C181.584 52.1211 181.318 52.1465 181.045 52.1973C180.771 52.248 180.479 52.3242 180.166 52.4258V51.5352C180.299 51.4883 180.439 51.4473 180.588 51.4121C180.74 51.373 180.891 51.3418 181.039 51.3184C181.191 51.291 181.342 51.2715 181.49 51.2598C181.639 51.2441 181.781 51.2363 181.918 51.2363C182.324 51.2363 182.682 51.2812 182.99 51.3711C183.299 51.457 183.557 51.582 183.764 51.7461C183.971 51.9102 184.127 52.1094 184.232 52.3438C184.338 52.5781 184.391 52.8418 184.391 53.1348C184.391 53.5723 184.277 53.9395 184.051 54.2363C183.828 54.5332 183.521 54.7695 183.131 54.9453C183.33 54.9766 183.525 55.0391 183.717 55.1328C183.912 55.2266 184.086 55.3477 184.238 55.4961C184.395 55.6406 184.52 55.8125 184.613 56.0117C184.711 56.2109 184.76 56.4316 184.76 56.6738Z" fill="#C9D1D9"/>
<path d="M195.287 57.3066H193.98V59H192.938V57.3066H189.252V56.4102L192.516 51.3418H193.98V56.4102H195.287V57.3066ZM192.938 52.3262L190.271 56.4102H192.938V52.3262Z" fill="#C9D1D9"/>
<path d="M206.713 56.5508C206.713 56.9297 206.631 57.2754 206.467 57.5879C206.303 57.9004 206.076 58.1699 205.787 58.3965C205.502 58.6191 205.164 58.793 204.773 58.918C204.383 59.043 203.961 59.1055 203.508 59.1055C203.395 59.1055 203.271 59.1016 203.139 59.0938C203.01 59.0898 202.881 59.082 202.752 59.0703C202.623 59.0625 202.496 59.0527 202.371 59.041C202.25 59.0293 202.141 59.0156 202.043 59V58.0742C202.254 58.125 202.494 58.1621 202.764 58.1855C203.037 58.209 203.312 58.2207 203.59 58.2207C203.902 58.2207 204.184 58.1836 204.434 58.1094C204.684 58.0352 204.896 57.9297 205.072 57.793C205.248 57.6523 205.383 57.4844 205.477 57.2891C205.57 57.0898 205.617 56.8672 205.617 56.6211C205.617 56.1445 205.445 55.7988 205.102 55.584C204.762 55.3652 204.271 55.2559 203.631 55.2559H202.178V51.3418H206.303V52.2324H203.139V54.3828H203.807C204.174 54.3828 204.531 54.416 204.879 54.4824C205.227 54.5488 205.535 54.666 205.805 54.834C206.078 54.998 206.297 55.2207 206.461 55.502C206.629 55.7793 206.713 56.1289 206.713 56.5508Z" fill="#C9D1D9"/>
<path d="M217 56.5742C217 56.9258 216.936 57.2559 216.807 57.5645C216.682 57.873 216.502 58.1426 216.268 58.373C216.033 58.5996 215.75 58.7793 215.418 58.9121C215.09 59.041 214.725 59.1055 214.322 59.1055C213.9 59.1055 213.527 59.0391 213.203 58.9062C212.879 58.7695 212.607 58.5625 212.389 58.2852C212.17 58.0039 212.004 57.6504 211.891 57.2246C211.777 56.7988 211.721 56.2949 211.721 55.7129C211.721 55.3223 211.746 54.9434 211.797 54.5762C211.848 54.209 211.932 53.8633 212.049 53.5391C212.166 53.2148 212.322 52.918 212.518 52.6484C212.713 52.3789 212.955 52.1484 213.244 51.957C213.537 51.7617 213.881 51.6113 214.275 51.5059C214.67 51.3965 215.127 51.3418 215.646 51.3418H216.402V52.2324H215.582C215.125 52.2324 214.729 52.2871 214.393 52.3965C214.057 52.5059 213.775 52.6602 213.549 52.8594C213.322 53.0586 213.148 53.2988 213.027 53.5801C212.906 53.8613 212.83 54.1758 212.799 54.5234L212.775 54.7637C213.021 54.6191 213.305 54.5039 213.625 54.418C213.949 54.3281 214.299 54.2832 214.674 54.2832C215.061 54.2832 215.398 54.3398 215.688 54.4531C215.98 54.5664 216.223 54.7246 216.414 54.9277C216.609 55.127 216.756 55.3672 216.854 55.6484C216.951 55.9297 217 56.2383 217 56.5742ZM215.934 56.6387C215.934 56.4043 215.904 56.1934 215.846 56.0059C215.791 55.8145 215.703 55.6543 215.582 55.5254C215.461 55.3926 215.307 55.291 215.119 55.2207C214.936 55.1465 214.715 55.1094 214.457 55.1094C214.309 55.1094 214.158 55.123 214.006 55.1504C213.854 55.1777 213.703 55.2168 213.555 55.2676C213.41 55.3145 213.271 55.3691 213.139 55.4316C213.006 55.4941 212.885 55.5605 212.775 55.6309C212.775 56.1348 212.811 56.5566 212.881 56.8965C212.951 57.2324 213.055 57.502 213.191 57.7051C213.332 57.9082 213.504 58.0527 213.707 58.1387C213.91 58.2246 214.145 58.2676 214.41 58.2676C214.633 58.2676 214.836 58.2324 215.02 58.1621C215.207 58.0879 215.367 57.9805 215.5 57.8398C215.637 57.6992 215.742 57.5293 215.816 57.3301C215.895 57.127 215.934 56.8965 215.934 56.6387Z" fill="#C9D1D9"/>
<path d="M228.865 52.291L225.654 59H224.488L227.822 52.291H223.686V51.3418H228.865V52.291Z" fill="#C9D1D9"/>
<path d="M162.842 59H158.031V58.0508H160V52.4609L158.166 53.457L157.791 52.5898L160.229 51.3066H161.131V58.0508H162.842V59Z" fill="#C9D1D9"/>
<path d="M10.1562 11.7207H6.37695V23H4.61914V11.7207H0.839844V10.2363H10.1562V11.7207ZM16.4941 13.0195C16.696 13.0195 16.888 13.0618 17.0703 13.1465C17.2526 13.2246 17.4121 13.332 17.5488 13.4688C17.6855 13.6055 17.793 13.765 17.8711 13.9473C17.9557 14.1296 17.998 14.3216 17.998 14.5234C17.998 14.7318 17.9557 14.9271 17.8711 15.1094C17.793 15.2852 17.6855 15.4414 17.5488 15.5781C17.4121 15.7148 17.2526 15.8223 17.0703 15.9004C16.888 15.9785 16.696 16.0176 16.4941 16.0176C16.2858 16.0176 16.0905 15.9785 15.9082 15.9004C15.7324 15.8223 15.5762 15.7148 15.4395 15.5781C15.3027 15.4414 15.1953 15.2852 15.1172 15.1094C15.0391 14.9271 15 14.7318 15 14.5234C15 14.3216 15.0391 14.1296 15.1172 13.9473C15.1953 13.765 15.3027 13.6055 15.4395 13.4688C15.5762 13.332 15.7324 13.2246 15.9082 13.1465C16.0905 13.0618 16.2858 13.0195 16.4941 13.0195ZM16.4941 20.1777C16.696 20.1777 16.888 20.2201 17.0703 20.3047C17.2526 20.3828 17.4121 20.4902 17.5488 20.627C17.6855 20.7637 17.793 20.9232 17.8711 21.1055C17.9557 21.2878 17.998 21.4798 17.998 21.6816C17.998 21.89 17.9557 22.0853 17.8711 22.2676C17.793 22.4434 17.6855 22.5996 17.5488 22.7363C17.4121 22.873 17.2526 22.9805 17.0703 23.0586C16.888 23.1367 16.696 23.1758 16.4941 23.1758C16.2858 23.1758 16.0905 23.1367 15.9082 23.0586C15.7324 22.9805 15.5762 22.873 15.4395 22.7363C15.3027 22.5996 15.1953 22.4434 15.1172 22.2676C15.0391 22.0853 15 21.89 15 21.6816C15 21.4798 15.0391 21.2878 15.1172 21.1055C15.1953 20.9232 15.3027 20.7637 15.4395 20.627C15.5762 20.4902 15.7324 20.3828 15.9082 20.3047C16.0905 20.2201 16.2858 20.1777 16.4941 20.1777ZM42.8125 12.4238C42.3372 12.1699 41.849 11.9746 41.3477 11.8379C40.8464 11.6947 40.2995 11.623 39.707 11.623C39.0299 11.623 38.4277 11.7435 37.9004 11.9844C37.373 12.2253 36.9271 12.5671 36.5625 13.0098C36.2044 13.446 35.9277 13.9733 35.7324 14.5918C35.5436 15.2103 35.4492 15.8939 35.4492 16.6426C35.4492 17.4238 35.5273 18.1237 35.6836 18.7422C35.8398 19.3607 36.084 19.8848 36.416 20.3145C36.748 20.7441 37.1712 21.0729 37.6855 21.3008C38.2064 21.5286 38.8281 21.6426 39.5508 21.6426C39.6745 21.6426 39.8079 21.6361 39.9512 21.623C40.0944 21.61 40.2376 21.5938 40.3809 21.5742C40.5241 21.5482 40.6608 21.5189 40.791 21.4863C40.9277 21.4538 41.0482 21.418 41.1523 21.3789V17.3164H38.5449V15.8809H42.8711V22.4043C42.6042 22.528 42.321 22.6387 42.0215 22.7363C41.7285 22.834 41.4258 22.9154 41.1133 22.9805C40.8073 23.0456 40.5013 23.0944 40.1953 23.127C39.8893 23.1595 39.5931 23.1758 39.3066 23.1758C38.4342 23.1758 37.6465 23.0391 36.9434 22.7656C36.2467 22.4922 35.651 22.0885 35.1562 21.5547C34.668 21.0143 34.2904 20.3438 34.0234 19.543C33.763 18.7422 33.6328 17.8145 33.6328 16.7598C33.6328 15.7116 33.7793 14.7741 34.0723 13.9473C34.3652 13.1139 34.7754 12.4108 35.3027 11.8379C35.8366 11.2585 36.4746 10.819 37.2168 10.5195C37.9655 10.2135 38.7891 10.0605 39.6875 10.0605C40.2604 10.0605 40.804 10.1126 41.3184 10.2168C41.8392 10.3145 42.3372 10.474 42.8125 10.6953V12.4238ZM54.1406 11.7207H50.3613V23H48.6035V11.7207H44.8242V10.2363H54.1406V11.7207ZM65.1367 11.7207H61.3574V23H59.5996V11.7207H55.8203V10.2363H65.1367V11.7207ZM76.875 23H74.9805L74.0918 20.2168H68.7793L67.8809 23H66.0742L70.3125 10.2363H72.6953L76.875 23ZM73.5938 18.6641L71.4355 11.8379L69.2773 18.6641H73.5938ZM87.1289 11.7207H83.3496V23H81.5918V11.7207H77.8125V10.2363H87.1289V11.7207ZM98.8672 23H96.9727L96.084 20.2168H90.7715L89.873 23H88.0664L92.3047 10.2363H94.6875L98.8672 23ZM95.5859 18.6641L93.4277 11.8379L91.2695 18.6641H95.5859ZM108.789 12.4238C108.314 12.1699 107.826 11.9746 107.324 11.8379C106.823 11.6947 106.276 11.623 105.684 11.623C105.007 11.623 104.404 11.7435 103.877 11.9844C103.35 12.2253 102.904 12.5671 102.539 13.0098C102.181 13.446 101.904 13.9733 101.709 14.5918C101.52 15.2103 101.426 15.8939 101.426 16.6426C101.426 17.4238 101.504 18.1237 101.66 18.7422C101.816 19.3607 102.061 19.8848 102.393 20.3145C102.725 20.7441 103.148 21.0729 103.662 21.3008C104.183 21.5286 104.805 21.6426 105.527 21.6426C105.651 21.6426 105.785 21.6361 105.928 21.623C106.071 21.61 106.214 21.5938 106.357 21.5742C106.501 21.5482 106.637 21.5189 106.768 21.4863C106.904 21.4538 107.025 21.418 107.129 21.3789V17.3164H104.521V15.8809H108.848V22.4043C108.581 22.528 108.298 22.6387 107.998 22.7363C107.705 22.834 107.402 22.9154 107.09 22.9805C106.784 23.0456 106.478 23.0944 106.172 23.127C105.866 23.1595 105.57 23.1758 105.283 23.1758C104.411 23.1758 103.623 23.0391 102.92 22.7656C102.223 22.4922 101.628 22.0885 101.133 21.5547C100.645 21.0143 100.267 20.3438 100 19.543C99.7396 18.7422 99.6094 17.8145 99.6094 16.7598C99.6094 15.7116 99.7559 14.7741 100.049 13.9473C100.342 13.1139 100.752 12.4108 101.279 11.8379C101.813 11.2585 102.451 10.819 103.193 10.5195C103.942 10.2135 104.766 10.0605 105.664 10.0605C106.237 10.0605 106.781 10.1126 107.295 10.2168C107.816 10.3145 108.314 10.474 108.789 10.6953V12.4238ZM119.678 22.5215C118.656 22.9447 117.585 23.1562 116.465 23.1562C114.661 23.1562 113.275 22.6191 112.305 21.5449C111.341 20.4642 110.859 18.8691 110.859 16.7598C110.859 15.7376 110.993 14.8132 111.26 13.9863C111.527 13.1595 111.908 12.4596 112.402 11.8867C112.897 11.3073 113.496 10.8613 114.199 10.5488C114.902 10.2363 115.69 10.0801 116.562 10.0801C117.155 10.0801 117.705 10.1322 118.213 10.2363C118.721 10.334 119.209 10.487 119.678 10.6953V12.4043C119.215 12.1504 118.737 11.9583 118.242 11.8281C117.747 11.6914 117.207 11.623 116.621 11.623C116.022 11.623 115.479 11.737 114.99 11.9648C114.508 12.1862 114.098 12.5117 113.76 12.9414C113.421 13.3646 113.161 13.8854 112.979 14.5039C112.796 15.1159 112.705 15.8158 112.705 16.6035C112.705 18.2572 113.04 19.5039 113.711 20.3438C114.382 21.1836 115.365 21.6035 116.66 21.6035C117.207 21.6035 117.731 21.5417 118.232 21.418C118.734 21.2878 119.215 21.1087 119.678 20.8809V22.5215ZM131.113 11.7207H127.334V23H125.576V11.7207H121.797V10.2363H131.113V11.7207ZM141.777 12.4238C141.302 12.1699 140.814 11.9746 140.312 11.8379C139.811 11.6947 139.264 11.623 138.672 11.623C137.995 11.623 137.393 11.7435 136.865 11.9844C136.338 12.2253 135.892 12.5671 135.527 13.0098C135.169 13.446 134.893 13.9733 134.697 14.5918C134.508 15.2103 134.414 15.8939 134.414 16.6426C134.414 17.4238 134.492 18.1237 134.648 18.7422C134.805 19.3607 135.049 19.8848 135.381 20.3145C135.713 20.7441 136.136 21.0729 136.65 21.3008C137.171 21.5286 137.793 21.6426 138.516 21.6426C138.639 21.6426 138.773 21.6361 138.916 21.623C139.059 21.61 139.202 21.5938 139.346 21.5742C139.489 21.5482 139.626 21.5189 139.756 21.4863C139.893 21.4538 140.013 21.418 140.117 21.3789V17.3164H137.51V15.8809H141.836V22.4043C141.569 22.528 141.286 22.6387 140.986 22.7363C140.693 22.834 140.391 22.9154 140.078 22.9805C139.772 23.0456 139.466 23.0944 139.16 23.127C138.854 23.1595 138.558 23.1758 138.271 23.1758C137.399 23.1758 136.611 23.0391 135.908 22.7656C135.212 22.4922 134.616 22.0885 134.121 21.5547C133.633 21.0143 133.255 20.3438 132.988 19.543C132.728 18.7422 132.598 17.8145 132.598 16.7598C132.598 15.7116 132.744 14.7741 133.037 13.9473C133.33 13.1139 133.74 12.4108 134.268 11.8379C134.801 11.2585 135.439 10.819 136.182 10.5195C136.93 10.2135 137.754 10.0605 138.652 10.0605C139.225 10.0605 139.769 10.1126 140.283 10.2168C140.804 10.3145 141.302 10.474 141.777 10.6953V12.4238ZM153.848 23H151.953L151.064 20.2168H145.752L144.854 23H143.047L147.285 10.2363H149.668L153.848 23ZM150.566 18.6641L148.408 11.8379L146.25 18.6641H150.566ZM164.102 11.7207H160.322V23H158.564V11.7207H154.785V10.2363H164.102V11.7207ZM252.07 11.7207H248.291V23H246.533V11.7207H242.754V10.2363H252.07V11.7207ZM263.809 23H261.914L261.025 20.2168H255.713L254.814 23H253.008L257.246 10.2363H259.629L263.809 23ZM260.527 18.6641L258.369 11.8379L256.211 18.6641H260.527ZM273.73 12.4238C273.255 12.1699 272.767 11.9746 272.266 11.8379C271.764 11.6947 271.217 11.623 270.625 11.623C269.948 11.623 269.346 11.7435 268.818 11.9844C268.291 12.2253 267.845 12.5671 267.48 13.0098C267.122 13.446 266.846 13.9733 266.65 14.5918C266.462 15.2103 266.367 15.8939 266.367 16.6426C266.367 17.4238 266.445 18.1237 266.602 18.7422C266.758 19.3607 267.002 19.8848 267.334 20.3145C267.666 20.7441 268.089 21.0729 268.604 21.3008C269.124 21.5286 269.746 21.6426 270.469 21.6426C270.592 21.6426 270.726 21.6361 270.869 21.623C271.012 21.61 271.156 21.5938 271.299 21.5742C271.442 21.5482 271.579 21.5189 271.709 21.4863C271.846 21.4538 271.966 21.418 272.07 21.3789V17.3164H269.463V15.8809H273.789V22.4043C273.522 22.528 273.239 22.6387 272.939 22.7363C272.646 22.834 272.344 22.9154 272.031 22.9805C271.725 23.0456 271.419 23.0944 271.113 23.127C270.807 23.1595 270.511 23.1758 270.225 23.1758C269.352 23.1758 268.564 23.0391 267.861 22.7656C267.165 22.4922 266.569 22.0885 266.074 21.5547C265.586 21.0143 265.208 20.3438 264.941 19.543C264.681 18.7422 264.551 17.8145 264.551 16.7598C264.551 15.7116 264.697 14.7741 264.99 13.9473C265.283 13.1139 265.693 12.4108 266.221 11.8379C266.755 11.2585 267.393 10.819 268.135 10.5195C268.883 10.2135 269.707 10.0605 270.605 10.0605C271.178 10.0605 271.722 10.1126 272.236 10.2168C272.757 10.3145 273.255 10.474 273.73 10.6953V12.4238ZM284.619 22.5215C283.597 22.9447 282.526 23.1562 281.406 23.1562C279.603 23.1562 278.216 22.6191 277.246 21.5449C276.283 20.4642 275.801 18.8691 275.801 16.7598C275.801 15.7376 275.934 14.8132 276.201 13.9863C276.468 13.1595 276.849 12.4596 277.344 11.8867C277.839 11.3073 278.438 10.8613 279.141 10.5488C279.844 10.2363 280.632 10.0801 281.504 10.0801C282.096 10.0801 282.646 10.1322 283.154 10.2363C283.662 10.334 284.15 10.487 284.619 10.6953V12.4043C284.157 12.1504 283.678 11.9583 283.184 11.8281C282.689 11.6914 282.148 11.623 281.562 11.623C280.964 11.623 280.42 11.737 279.932 11.9648C279.45 12.1862 279.04 12.5117 278.701 12.9414C278.363 13.3646 278.102 13.8854 277.92 14.5039C277.738 15.1159 277.646 15.8158 277.646 16.6035C277.646 18.2572 277.982 19.5039 278.652 20.3438C279.323 21.1836 280.306 21.6035 281.602 21.6035C282.148 21.6035 282.673 21.5417 283.174 21.418C283.675 21.2878 284.157 21.1087 284.619 20.8809V22.5215ZM295.723 12.4238C295.247 12.1699 294.759 11.9746 294.258 11.8379C293.757 11.6947 293.21 11.623 292.617 11.623C291.94 11.623 291.338 11.7435 290.811 11.9844C290.283 12.2253 289.837 12.5671 289.473 13.0098C289.115 13.446 288.838 13.9733 288.643 14.5918C288.454 15.2103 288.359 15.8939 288.359 16.6426C288.359 17.4238 288.438 18.1237 288.594 18.7422C288.75 19.3607 288.994 19.8848 289.326 20.3145C289.658 20.7441 290.081 21.0729 290.596 21.3008C291.117 21.5286 291.738 21.6426 292.461 21.6426C292.585 21.6426 292.718 21.6361 292.861 21.623C293.005 21.61 293.148 21.5938 293.291 21.5742C293.434 21.5482 293.571 21.5189 293.701 21.4863C293.838 21.4538 293.958 21.418 294.062 21.3789V17.3164H291.455V15.8809H295.781V22.4043C295.514 22.528 295.231 22.6387 294.932 22.7363C294.639 22.834 294.336 22.9154 294.023 22.9805C293.717 23.0456 293.411 23.0944 293.105 23.127C292.799 23.1595 292.503 23.1758 292.217 23.1758C291.344 23.1758 290.557 23.0391 289.854 22.7656C289.157 22.4922 288.561 22.0885 288.066 21.5547C287.578 21.0143 287.201 20.3438 286.934 19.543C286.673 18.7422 286.543 17.8145 286.543 16.7598C286.543 15.7116 286.689 14.7741 286.982 13.9473C287.275 13.1139 287.686 12.4108 288.213 11.8379C288.747 11.2585 289.385 10.819 290.127 10.5195C290.876 10.2135 291.699 10.0605 292.598 10.0605C293.171 10.0605 293.714 10.1126 294.229 10.2168C294.749 10.3145 295.247 10.474 295.723 10.6953V12.4238ZM306.719 12.4238C306.243 12.1699 305.755 11.9746 305.254 11.8379C304.753 11.6947 304.206 11.623 303.613 11.623C302.936 11.623 302.334 11.7435 301.807 11.9844C301.279 12.2253 300.833 12.5671 300.469 13.0098C300.111 13.446 299.834 13.9733 299.639 14.5918C299.45 15.2103 299.355 15.8939 299.355 16.6426C299.355 17.4238 299.434 18.1237 299.59 18.7422C299.746 19.3607 299.99 19.8848 300.322 20.3145C300.654 20.7441 301.077 21.0729 301.592 21.3008C302.113 21.5286 302.734 21.6426 303.457 21.6426C303.581 21.6426 303.714 21.6361 303.857 21.623C304.001 21.61 304.144 21.5938 304.287 21.5742C304.43 21.5482 304.567 21.5189 304.697 21.4863C304.834 21.4538 304.954 21.418 305.059 21.3789V17.3164H302.451V15.8809H306.777V22.4043C306.51 22.528 306.227 22.6387 305.928 22.7363C305.635 22.834 305.332 22.9154 305.02 22.9805C304.714 23.0456 304.408 23.0944 304.102 23.127C303.796 23.1595 303.499 23.1758 303.213 23.1758C302.34 23.1758 301.553 23.0391 300.85 22.7656C300.153 22.4922 299.557 22.0885 299.062 21.5547C298.574 21.0143 298.197 20.3438 297.93 19.543C297.669 18.7422 297.539 17.8145 297.539 16.7598C297.539 15.7116 297.686 14.7741 297.979 13.9473C298.271 13.1139 298.682 12.4108 299.209 11.8379C299.743 11.2585 300.381 10.819 301.123 10.5195C301.872 10.2135 302.695 10.0605 303.594 10.0605C304.167 10.0605 304.71 10.1126 305.225 10.2168C305.745 10.3145 306.243 10.474 306.719 10.6953V12.4238ZM317.607 22.5215C316.585 22.9447 315.514 23.1562 314.395 23.1562C312.591 23.1562 311.204 22.6191 310.234 21.5449C309.271 20.4642 308.789 18.8691 308.789 16.7598C308.789 15.7376 308.923 14.8132 309.189 13.9863C309.456 13.1595 309.837 12.4596 310.332 11.8867C310.827 11.3073 311.426 10.8613 312.129 10.5488C312.832 10.2363 313.62 10.0801 314.492 10.0801C315.085 10.0801 315.635 10.1322 316.143 10.2363C316.65 10.334 317.139 10.487 317.607 10.6953V12.4043C317.145 12.1504 316.667 11.9583 316.172 11.8281C315.677 11.6914 315.137 11.623 314.551 11.623C313.952 11.623 313.408 11.737 312.92 11.9648C312.438 12.1862 312.028 12.5117 311.689 12.9414C311.351 13.3646 311.09 13.8854 310.908 14.5039C310.726 15.1159 310.635 15.8158 310.635 16.6035C310.635 18.2572 310.97 19.5039 311.641 20.3438C312.311 21.1836 313.294 21.6035 314.59 21.6035C315.137 21.6035 315.661 21.5417 316.162 21.418C316.663 21.2878 317.145 21.1087 317.607 20.8809V22.5215ZM328.711 12.4238C328.236 12.1699 327.747 11.9746 327.246 11.8379C326.745 11.6947 326.198 11.623 325.605 11.623C324.928 11.623 324.326 11.7435 323.799 11.9844C323.271 12.2253 322.826 12.5671 322.461 13.0098C322.103 13.446 321.826 13.9733 321.631 14.5918C321.442 15.2103 321.348 15.8939 321.348 16.6426C321.348 17.4238 321.426 18.1237 321.582 18.7422C321.738 19.3607 321.982 19.8848 322.314 20.3145C322.646 20.7441 323.07 21.0729 323.584 21.3008C324.105 21.5286 324.727 21.6426 325.449 21.6426C325.573 21.6426 325.706 21.6361 325.85 21.623C325.993 21.61 326.136 21.5938 326.279 21.5742C326.423 21.5482 326.559 21.5189 326.689 21.4863C326.826 21.4538 326.947 21.418 327.051 21.3789V17.3164H324.443V15.8809H328.77V22.4043C328.503 22.528 328.219 22.6387 327.92 22.7363C327.627 22.834 327.324 22.9154 327.012 22.9805C326.706 23.0456 326.4 23.0944 326.094 23.127C325.788 23.1595 325.492 23.1758 325.205 23.1758C324.333 23.1758 323.545 23.0391 322.842 22.7656C322.145 22.4922 321.549 22.0885 321.055 21.5547C320.566 21.0143 320.189 20.3438 319.922 19.543C319.661 18.7422 319.531 17.8145 319.531 16.7598C319.531 15.7116 319.678 14.7741 319.971 13.9473C320.264 13.1139 320.674 12.4108 321.201 11.8379C321.735 11.2585 322.373 10.819 323.115 10.5195C323.864 10.2135 324.688 10.0605 325.586 10.0605C326.159 10.0605 326.702 10.1126 327.217 10.2168C327.738 10.3145 328.236 10.474 328.711 10.6953V12.4238ZM340.781 23H338.887L337.998 20.2168H332.686L331.787 23H329.98L334.219 10.2363H336.602L340.781 23ZM337.5 18.6641L335.342 11.8379L333.184 18.6641H337.5ZM351.777 23H349.883L348.994 20.2168H343.682L342.783 23H340.977L345.215 10.2363H347.598L351.777 23ZM348.496 18.6641L346.338 11.8379L344.18 18.6641H348.496ZM9.92188 37.1426C9.92188 37.6634 9.82422 38.181 9.62891 38.6953C9.43359 39.2031 9.13086 39.6589 8.7207 40.0625C8.31055 40.4661 7.78646 40.7949 7.14844 41.0488C6.51042 41.2962 5.7487 41.4199 4.86328 41.4199H3.28125V46H1.54297V33.2363H5.13672C5.76823 33.2363 6.3737 33.3079 6.95312 33.4512C7.53255 33.5879 8.04036 33.8125 8.47656 34.125C8.91927 34.4375 9.27083 34.8411 9.53125 35.3359C9.79167 35.8307 9.92188 36.4329 9.92188 37.1426ZM8.11523 37.2207C8.11523 36.4004 7.84505 35.7721 7.30469 35.3359C6.77083 34.8997 6.02214 34.6816 5.05859 34.6816H3.28125V39.9355H4.90234C5.93099 39.9355 6.72201 39.7109 7.27539 39.2617C7.83529 38.8125 8.11523 38.1322 8.11523 37.2207ZM16.4941 36.0195C16.696 36.0195 16.888 36.0618 17.0703 36.1465C17.2526 36.2246 17.4121 36.332 17.5488 36.4688C17.6855 36.6055 17.793 36.765 17.8711 36.9473C17.9557 37.1296 17.998 37.3216 17.998 37.5234C17.998 37.7318 17.9557 37.9271 17.8711 38.1094C17.793 38.2852 17.6855 38.4414 17.5488 38.5781C17.4121 38.7148 17.2526 38.8223 17.0703 38.9004C16.888 38.9785 16.696 39.0176 16.4941 39.0176C16.2858 39.0176 16.0905 38.9785 15.9082 38.9004C15.7324 38.8223 15.5762 38.7148 15.4395 38.5781C15.3027 38.4414 15.1953 38.2852 15.1172 38.1094C15.0391 37.9271 15 37.7318 15 37.5234C15 37.3216 15.0391 37.1296 15.1172 36.9473C15.1953 36.765 15.3027 36.6055 15.4395 36.4688C15.5762 36.332 15.7324 36.2246 15.9082 36.1465C16.0905 36.0618 16.2858 36.0195 16.4941 36.0195ZM16.4941 43.1777C16.696 43.1777 16.888 43.2201 17.0703 43.3047C17.2526 43.3828 17.4121 43.4902 17.5488 43.627C17.6855 43.7637 17.793 43.9232 17.8711 44.1055C17.9557 44.2878 17.998 44.4798 17.998 44.6816C17.998 44.89 17.9557 45.0853 17.8711 45.2676C17.793 45.4434 17.6855 45.5996 17.5488 45.7363C17.4121 45.873 17.2526 45.9805 17.0703 46.0586C16.888 46.1367 16.696 46.1758 16.4941 46.1758C16.2858 46.1758 16.0905 46.1367 15.9082 46.0586C15.7324 45.9805 15.5762 45.873 15.4395 45.7363C15.3027 45.5996 15.1953 45.4434 15.1172 45.2676C15.0391 45.0853 15 44.89 15 44.6816C15 44.4798 15.0391 44.2878 15.1172 44.1055C15.1953 43.9232 15.3027 43.7637 15.4395 43.627C15.5762 43.4902 15.7324 43.3828 15.9082 43.3047C16.0905 43.2201 16.2858 43.1777 16.4941 43.1777ZM152.773 35.4238C152.298 35.1699 151.81 34.9746 151.309 34.8379C150.807 34.6947 150.26 34.623 149.668 34.623C148.991 34.623 148.389 34.7435 147.861 34.9844C147.334 35.2253 146.888 35.5671 146.523 36.0098C146.165 36.446 145.889 36.9733 145.693 37.5918C145.505 38.2103 145.41 38.8939 145.41 39.6426C145.41 40.4238 145.488 41.1237 145.645 41.7422C145.801 42.3607 146.045 42.8848 146.377 43.3145C146.709 43.7441 147.132 44.0729 147.646 44.3008C148.167 44.5286 148.789 44.6426 149.512 44.6426C149.635 44.6426 149.769 44.6361 149.912 44.623C150.055 44.61 150.199 44.5938 150.342 44.5742C150.485 44.5482 150.622 44.5189 150.752 44.4863C150.889 44.4538 151.009 44.418 151.113 44.3789V40.3164H148.506V38.8809H152.832V45.4043C152.565 45.528 152.282 45.6387 151.982 45.7363C151.689 45.834 151.387 45.9154 151.074 45.9805C150.768 46.0456 150.462 46.0944 150.156 46.127C149.85 46.1595 149.554 46.1758 149.268 46.1758C148.395 46.1758 147.607 46.0391 146.904 45.7656C146.208 45.4922 145.612 45.0885 145.117 44.5547C144.629 44.0143 144.251 43.3438 143.984 42.543C143.724 41.7422 143.594 40.8145 143.594 39.7598C143.594 38.7116 143.74 37.7741 144.033 36.9473C144.326 36.1139 144.736 35.4108 145.264 34.8379C145.798 34.2585 146.436 33.819 147.178 33.5195C147.926 33.2135 148.75 33.0605 149.648 33.0605C150.221 33.0605 150.765 33.1126 151.279 33.2168C151.8 33.3145 152.298 33.474 152.773 33.6953V35.4238ZM164.102 34.7207H160.322V46H158.564V34.7207H154.785V33.2363H164.102V34.7207Z" fill="#C9D1D9"/>
<path d="M174.658 22.5215C173.636 22.9447 172.565 23.1562 171.445 23.1562C169.642 23.1562 168.255 22.6191 167.285 21.5449C166.322 20.4642 165.84 18.8691 165.84 16.7598C165.84 15.7376 165.973 14.8132 166.24 13.9863C166.507 13.1595 166.888 12.4596 167.383 11.8867C167.878 11.3073 168.477 10.8613 169.18 10.5488C169.883 10.2363 170.671 10.0801 171.543 10.0801C172.135 10.0801 172.686 10.1322 173.193 10.2363C173.701 10.334 174.189 10.487 174.658 10.6953V12.4043C174.196 12.1504 173.717 11.9583 173.223 11.8281C172.728 11.6914 172.188 11.623 171.602 11.623C171.003 11.623 170.459 11.737 169.971 11.9648C169.489 12.1862 169.079 12.5117 168.74 12.9414C168.402 13.3646 168.141 13.8854 167.959 14.5039C167.777 15.1159 167.686 15.8158 167.686 16.6035C167.686 18.2572 168.021 19.5039 168.691 20.3438C169.362 21.1836 170.345 21.6035 171.641 21.6035C172.188 21.6035 172.712 21.5417 173.213 21.418C173.714 21.2878 174.196 21.1087 174.658 20.8809V22.5215ZM175.84 46H173.945L173.057 43.2168H167.744L166.846 46H165.039L169.277 33.2363H171.66L175.84 46ZM172.559 41.6641L170.4 34.8379L168.242 41.6641H172.559Z" fill="#F40F0F"/>
<path d="M185.762 12.4238C185.286 12.1699 184.798 11.9746 184.297 11.8379C183.796 11.6947 183.249 11.623 182.656 11.623C181.979 11.623 181.377 11.7435 180.85 11.9844C180.322 12.2253 179.876 12.5671 179.512 13.0098C179.154 13.446 178.877 13.9733 178.682 14.5918C178.493 15.2103 178.398 15.8939 178.398 16.6426C178.398 17.4238 178.477 18.1237 178.633 18.7422C178.789 19.3607 179.033 19.8848 179.365 20.3145C179.697 20.7441 180.12 21.0729 180.635 21.3008C181.156 21.5286 181.777 21.6426 182.5 21.6426C182.624 21.6426 182.757 21.6361 182.9 21.623C183.044 21.61 183.187 21.5938 183.33 21.5742C183.473 21.5482 183.61 21.5189 183.74 21.4863C183.877 21.4538 183.997 21.418 184.102 21.3789V17.3164H181.494V15.8809H185.82V22.4043C185.553 22.528 185.27 22.6387 184.971 22.7363C184.678 22.834 184.375 22.9154 184.062 22.9805C183.757 23.0456 183.451 23.0944 183.145 23.127C182.839 23.1595 182.542 23.1758 182.256 23.1758C181.383 23.1758 180.596 23.0391 179.893 22.7656C179.196 22.4922 178.6 22.0885 178.105 21.5547C177.617 21.0143 177.24 20.3438 176.973 19.543C176.712 18.7422 176.582 17.8145 176.582 16.7598C176.582 15.7116 176.729 14.7741 177.021 13.9473C177.314 13.1139 177.725 12.4108 178.252 11.8379C178.786 11.2585 179.424 10.819 180.166 10.5195C180.915 10.2135 181.738 10.0605 182.637 10.0605C183.21 10.0605 183.753 10.1126 184.268 10.2168C184.788 10.3145 185.286 10.474 185.762 10.6953V12.4238ZM196.65 22.5215C195.628 22.9447 194.557 23.1562 193.438 23.1562C191.634 23.1562 190.247 22.6191 189.277 21.5449C188.314 20.4642 187.832 18.8691 187.832 16.7598C187.832 15.7376 187.965 14.8132 188.232 13.9863C188.499 13.1595 188.88 12.4596 189.375 11.8867C189.87 11.3073 190.469 10.8613 191.172 10.5488C191.875 10.2363 192.663 10.0801 193.535 10.0801C194.128 10.0801 194.678 10.1322 195.186 10.2363C195.693 10.334 196.182 10.487 196.65 10.6953V12.4043C196.188 12.1504 195.71 11.9583 195.215 11.8281C194.72 11.6914 194.18 11.623 193.594 11.623C192.995 11.623 192.451 11.737 191.963 11.9648C191.481 12.1862 191.071 12.5117 190.732 12.9414C190.394 13.3646 190.133 13.8854 189.951 14.5039C189.769 15.1159 189.678 15.8158 189.678 16.6035C189.678 18.2572 190.013 19.5039 190.684 20.3438C191.354 21.1836 192.337 21.6035 193.633 21.6035C194.18 21.6035 194.704 21.5417 195.205 21.418C195.706 21.2878 196.188 21.1087 196.65 20.8809V22.5215ZM207.754 12.4238C207.279 12.1699 206.79 11.9746 206.289 11.8379C205.788 11.6947 205.241 11.623 204.648 11.623C203.971 11.623 203.369 11.7435 202.842 11.9844C202.314 12.2253 201.868 12.5671 201.504 13.0098C201.146 13.446 200.869 13.9733 200.674 14.5918C200.485 15.2103 200.391 15.8939 200.391 16.6426C200.391 17.4238 200.469 18.1237 200.625 18.7422C200.781 19.3607 201.025 19.8848 201.357 20.3145C201.689 20.7441 202.113 21.0729 202.627 21.3008C203.148 21.5286 203.77 21.6426 204.492 21.6426C204.616 21.6426 204.749 21.6361 204.893 21.623C205.036 21.61 205.179 21.5938 205.322 21.5742C205.465 21.5482 205.602 21.5189 205.732 21.4863C205.869 21.4538 205.99 21.418 206.094 21.3789V17.3164H203.486V15.8809H207.812V22.4043C207.546 22.528 207.262 22.6387 206.963 22.7363C206.67 22.834 206.367 22.9154 206.055 22.9805C205.749 23.0456 205.443 23.0944 205.137 23.127C204.831 23.1595 204.535 23.1758 204.248 23.1758C203.376 23.1758 202.588 23.0391 201.885 22.7656C201.188 22.4922 200.592 22.0885 200.098 21.5547C199.609 21.0143 199.232 20.3438 198.965 19.543C198.704 18.7422 198.574 17.8145 198.574 16.7598C198.574 15.7116 198.721 14.7741 199.014 13.9473C199.307 13.1139 199.717 12.4108 200.244 11.8379C200.778 11.2585 201.416 10.819 202.158 10.5195C202.907 10.2135 203.73 10.0605 204.629 10.0605C205.202 10.0605 205.745 10.1126 206.26 10.2168C206.781 10.3145 207.279 10.474 207.754 10.6953V12.4238ZM218.75 12.4238C218.275 12.1699 217.786 11.9746 217.285 11.8379C216.784 11.6947 216.237 11.623 215.645 11.623C214.967 11.623 214.365 11.7435 213.838 11.9844C213.311 12.2253 212.865 12.5671 212.5 13.0098C212.142 13.446 211.865 13.9733 211.67 14.5918C211.481 15.2103 211.387 15.8939 211.387 16.6426C211.387 17.4238 211.465 18.1237 211.621 18.7422C211.777 19.3607 212.021 19.8848 212.354 20.3145C212.686 20.7441 213.109 21.0729 213.623 21.3008C214.144 21.5286 214.766 21.6426 215.488 21.6426C215.612 21.6426 215.745 21.6361 215.889 21.623C216.032 21.61 216.175 21.5938 216.318 21.5742C216.462 21.5482 216.598 21.5189 216.729 21.4863C216.865 21.4538 216.986 21.418 217.09 21.3789V17.3164H214.482V15.8809H218.809V22.4043C218.542 22.528 218.258 22.6387 217.959 22.7363C217.666 22.834 217.363 22.9154 217.051 22.9805C216.745 23.0456 216.439 23.0944 216.133 23.127C215.827 23.1595 215.531 23.1758 215.244 23.1758C214.372 23.1758 213.584 23.0391 212.881 22.7656C212.184 22.4922 211.589 22.0885 211.094 21.5547C210.605 21.0143 210.228 20.3438 209.961 19.543C209.701 18.7422 209.57 17.8145 209.57 16.7598C209.57 15.7116 209.717 14.7741 210.01 13.9473C210.303 13.1139 210.713 12.4108 211.24 11.8379C211.774 11.2585 212.412 10.819 213.154 10.5195C213.903 10.2135 214.727 10.0605 215.625 10.0605C216.198 10.0605 216.742 10.1126 217.256 10.2168C217.777 10.3145 218.275 10.474 218.75 10.6953V12.4238ZM229.639 22.5215C228.617 22.9447 227.546 23.1562 226.426 23.1562C224.622 23.1562 223.236 22.6191 222.266 21.5449C221.302 20.4642 220.82 18.8691 220.82 16.7598C220.82 15.7376 220.954 14.8132 221.221 13.9863C221.488 13.1595 221.868 12.4596 222.363 11.8867C222.858 11.3073 223.457 10.8613 224.16 10.5488C224.863 10.2363 225.651 10.0801 226.523 10.0801C227.116 10.0801 227.666 10.1322 228.174 10.2363C228.682 10.334 229.17 10.487 229.639 10.6953V12.4043C229.176 12.1504 228.698 11.9583 228.203 11.8281C227.708 11.6914 227.168 11.623 226.582 11.623C225.983 11.623 225.439 11.737 224.951 11.9648C224.469 12.1862 224.059 12.5117 223.721 12.9414C223.382 13.3646 223.122 13.8854 222.939 14.5039C222.757 15.1159 222.666 15.8158 222.666 16.6035C222.666 18.2572 223.001 19.5039 223.672 20.3438C224.342 21.1836 225.326 21.6035 226.621 21.6035C227.168 21.6035 227.692 21.5417 228.193 21.418C228.695 21.2878 229.176 21.1087 229.639 20.8809V22.5215ZM240.742 12.4238C240.267 12.1699 239.779 11.9746 239.277 11.8379C238.776 11.6947 238.229 11.623 237.637 11.623C236.96 11.623 236.357 11.7435 235.83 11.9844C235.303 12.2253 234.857 12.5671 234.492 13.0098C234.134 13.446 233.857 13.9733 233.662 14.5918C233.473 15.2103 233.379 15.8939 233.379 16.6426C233.379 17.4238 233.457 18.1237 233.613 18.7422C233.77 19.3607 234.014 19.8848 234.346 20.3145C234.678 20.7441 235.101 21.0729 235.615 21.3008C236.136 21.5286 236.758 21.6426 237.48 21.6426C237.604 21.6426 237.738 21.6361 237.881 21.623C238.024 21.61 238.167 21.5938 238.311 21.5742C238.454 21.5482 238.59 21.5189 238.721 21.4863C238.857 21.4538 238.978 21.418 239.082 21.3789V17.3164H236.475V15.8809H240.801V22.4043C240.534 22.528 240.251 22.6387 239.951 22.7363C239.658 22.834 239.355 22.9154 239.043 22.9805C238.737 23.0456 238.431 23.0944 238.125 23.127C237.819 23.1595 237.523 23.1758 237.236 23.1758C236.364 23.1758 235.576 23.0391 234.873 22.7656C234.176 22.4922 233.581 22.0885 233.086 21.5547C232.598 21.0143 232.22 20.3438 231.953 19.543C231.693 18.7422 231.562 17.8145 231.562 16.7598C231.562 15.7116 231.709 14.7741 232.002 13.9473C232.295 13.1139 232.705 12.4108 233.232 11.8379C233.766 11.2585 234.404 10.819 235.146 10.5195C235.895 10.2135 236.719 10.0605 237.617 10.0605C238.19 10.0605 238.734 10.1126 239.248 10.2168C239.769 10.3145 240.267 10.474 240.742 10.6953V12.4238ZM185.762 35.4238C185.286 35.1699 184.798 34.9746 184.297 34.8379C183.796 34.6947 183.249 34.623 182.656 34.623C181.979 34.623 181.377 34.7435 180.85 34.9844C180.322 35.2253 179.876 35.5671 179.512 36.0098C179.154 36.446 178.877 36.9733 178.682 37.5918C178.493 38.2103 178.398 38.8939 178.398 39.6426C178.398 40.4238 178.477 41.1237 178.633 41.7422C178.789 42.3607 179.033 42.8848 179.365 43.3145C179.697 43.7441 180.12 44.0729 180.635 44.3008C181.156 44.5286 181.777 44.6426 182.5 44.6426C182.624 44.6426 182.757 44.6361 182.9 44.623C183.044 44.61 183.187 44.5938 183.33 44.5742C183.473 44.5482 183.61 44.5189 183.74 44.4863C183.877 44.4538 183.997 44.418 184.102 44.3789V40.3164H181.494V38.8809H185.82V45.4043C185.553 45.528 185.27 45.6387 184.971 45.7363C184.678 45.834 184.375 45.9154 184.062 45.9805C183.757 46.0456 183.451 46.0944 183.145 46.127C182.839 46.1595 182.542 46.1758 182.256 46.1758C181.383 46.1758 180.596 46.0391 179.893 45.7656C179.196 45.4922 178.6 45.0885 178.105 44.5547C177.617 44.0143 177.24 43.3438 176.973 42.543C176.712 41.7422 176.582 40.8145 176.582 39.7598C176.582 38.7116 176.729 37.7741 177.021 36.9473C177.314 36.1139 177.725 35.4108 178.252 34.8379C178.786 34.2585 179.424 33.819 180.166 33.5195C180.915 33.2135 181.738 33.0605 182.637 33.0605C183.21 33.0605 183.753 33.1126 184.268 33.2168C184.788 33.3145 185.286 33.474 185.762 33.6953V35.4238ZM196.65 45.5215C195.628 45.9447 194.557 46.1562 193.438 46.1562C191.634 46.1562 190.247 45.6191 189.277 44.5449C188.314 43.4642 187.832 41.8691 187.832 39.7598C187.832 38.7376 187.965 37.8132 188.232 36.9863C188.499 36.1595 188.88 35.4596 189.375 34.8867C189.87 34.3073 190.469 33.8613 191.172 33.5488C191.875 33.2363 192.663 33.0801 193.535 33.0801C194.128 33.0801 194.678 33.1322 195.186 33.2363C195.693 33.334 196.182 33.487 196.65 33.6953V35.4043C196.188 35.1504 195.71 34.9583 195.215 34.8281C194.72 34.6914 194.18 34.623 193.594 34.623C192.995 34.623 192.451 34.737 191.963 34.9648C191.481 35.1862 191.071 35.5117 190.732 35.9414C190.394 36.3646 190.133 36.8854 189.951 37.5039C189.769 38.1159 189.678 38.8158 189.678 39.6035C189.678 41.2572 190.013 42.5039 190.684 43.3438C191.354 44.1836 192.337 44.6035 193.633 44.6035C194.18 44.6035 194.704 44.5417 195.205 44.418C195.706 44.2878 196.188 44.1087 196.65 43.8809V45.5215ZM207.754 35.4238C207.279 35.1699 206.79 34.9746 206.289 34.8379C205.788 34.6947 205.241 34.623 204.648 34.623C203.971 34.623 203.369 34.7435 202.842 34.9844C202.314 35.2253 201.868 35.5671 201.504 36.0098C201.146 36.446 200.869 36.9733 200.674 37.5918C200.485 38.2103 200.391 38.8939 200.391 39.6426C200.391 40.4238 200.469 41.1237 200.625 41.7422C200.781 42.3607 201.025 42.8848 201.357 43.3145C201.689 43.7441 202.113 44.0729 202.627 44.3008C203.148 44.5286 203.77 44.6426 204.492 44.6426C204.616 44.6426 204.749 44.6361 204.893 44.623C205.036 44.61 205.179 44.5938 205.322 44.5742C205.465 44.5482 205.602 44.5189 205.732 44.4863C205.869 44.4538 205.99 44.418 206.094 44.3789V40.3164H203.486V38.8809H207.812V45.4043C207.546 45.528 207.262 45.6387 206.963 45.7363C206.67 45.834 206.367 45.9154 206.055 45.9805C205.749 46.0456 205.443 46.0944 205.137 46.127C204.831 46.1595 204.535 46.1758 204.248 46.1758C203.376 46.1758 202.588 46.0391 201.885 45.7656C201.188 45.4922 200.592 45.0885 200.098 44.5547C199.609 44.0143 199.232 43.3438 198.965 42.543C198.704 41.7422 198.574 40.8145 198.574 39.7598C198.574 38.7116 198.721 37.7741 199.014 36.9473C199.307 36.1139 199.717 35.4108 200.244 34.8379C200.778 34.2585 201.416 33.819 202.158 33.5195C202.907 33.2135 203.73 33.0605 204.629 33.0605C205.202 33.0605 205.745 33.1126 206.26 33.2168C206.781 33.3145 207.279 33.474 207.754 33.6953V35.4238ZM218.75 35.4238C218.275 35.1699 217.786 34.9746 217.285 34.8379C216.784 34.6947 216.237 34.623 215.645 34.623C214.967 34.623 214.365 34.7435 213.838 34.9844C213.311 35.2253 212.865 35.5671 212.5 36.0098C212.142 36.446 211.865 36.9733 211.67 37.5918C211.481 38.2103 211.387 38.8939 211.387 39.6426C211.387 40.4238 211.465 41.1237 211.621 41.7422C211.777 42.3607 212.021 42.8848 212.354 43.3145C212.686 43.7441 213.109 44.0729 213.623 44.3008C214.144 44.5286 214.766 44.6426 215.488 44.6426C215.612 44.6426 215.745 44.6361 215.889 44.623C216.032 44.61 216.175 44.5938 216.318 44.5742C216.462 44.5482 216.598 44.5189 216.729 44.4863C216.865 44.4538 216.986 44.418 217.09 44.3789V40.3164H214.482V38.8809H218.809V45.4043C218.542 45.528 218.258 45.6387 217.959 45.7363C217.666 45.834 217.363 45.9154 217.051 45.9805C216.745 46.0456 216.439 46.0944 216.133 46.127C215.827 46.1595 215.531 46.1758 215.244 46.1758C214.372 46.1758 213.584 46.0391 212.881 45.7656C212.184 45.4922 211.589 45.0885 211.094 44.5547C210.605 44.0143 210.228 43.3438 209.961 42.543C209.701 41.7422 209.57 40.8145 209.57 39.7598C209.57 38.7116 209.717 37.7741 210.01 36.9473C210.303 36.1139 210.713 35.4108 211.24 34.8379C211.774 34.2585 212.412 33.819 213.154 33.5195C213.903 33.2135 214.727 33.0605 215.625 33.0605C216.198 33.0605 216.742 33.1126 217.256 33.2168C217.777 33.3145 218.275 33.474 218.75 33.6953V35.4238ZM229.639 45.5215C228.617 45.9447 227.546 46.1562 226.426 46.1562C224.622 46.1562 223.236 45.6191 222.266 44.5449C221.302 43.4642 220.82 41.8691 220.82 39.7598C220.82 38.7376 220.954 37.8132 221.221 36.9863C221.488 36.1595 221.868 35.4596 222.363 34.8867C222.858 34.3073 223.457 33.8613 224.16 33.5488C224.863 33.2363 225.651 33.0801 226.523 33.0801C227.116 33.0801 227.666 33.1322 228.174 33.2363C228.682 33.334 229.17 33.487 229.639 33.6953V35.4043C229.176 35.1504 228.698 34.9583 228.203 34.8281C227.708 34.6914 227.168 34.623 226.582 34.623C225.983 34.623 225.439 34.737 224.951 34.9648C224.469 35.1862 224.059 35.5117 223.721 35.9414C223.382 36.3646 223.122 36.8854 222.939 37.5039C222.757 38.1159 222.666 38.8158 222.666 39.6035C222.666 41.2572 223.001 42.5039 223.672 43.3438C224.342 44.1836 225.326 44.6035 226.621 44.6035C227.168 44.6035 227.692 44.5417 228.193 44.418C228.695 44.2878 229.176 44.1087 229.639 43.8809V45.5215ZM240.742 35.4238C240.267 35.1699 239.779 34.9746 239.277 34.8379C238.776 34.6947 238.229 34.623 237.637 34.623C236.96 34.623 236.357 34.7435 235.83 34.9844C235.303 35.2253 234.857 35.5671 234.492 36.0098C234.134 36.446 233.857 36.9733 233.662 37.5918C233.473 38.2103 233.379 38.8939 233.379 39.6426C233.379 40.4238 233.457 41.1237 233.613 41.7422C233.77 42.3607 234.014 42.8848 234.346 43.3145C234.678 43.7441 235.101 44.0729 235.615 44.3008C236.136 44.5286 236.758 44.6426 237.48 44.6426C237.604 44.6426 237.738 44.6361 237.881 44.623C238.024 44.61 238.167 44.5938 238.311 44.5742C238.454 44.5482 238.59 44.5189 238.721 44.4863C238.857 44.4538 238.978 44.418 239.082 44.3789V40.3164H236.475V38.8809H240.801V45.4043C240.534 45.528 240.251 45.6387 239.951 45.7363C239.658 45.834 239.355 45.9154 239.043 45.9805C238.737 46.0456 238.431 46.0944 238.125 46.127C237.819 46.1595 237.523 46.1758 237.236 46.1758C236.364 46.1758 235.576 46.0391 234.873 45.7656C234.176 45.4922 233.581 45.0885 233.086 44.5547C232.598 44.0143 232.22 43.3438 231.953 42.543C231.693 41.7422 231.562 40.8145 231.562 39.7598C231.562 38.7116 231.709 37.7741 232.002 36.9473C232.295 36.1139 232.705 35.4108 233.232 34.8379C233.766 34.2585 234.404 33.819 235.146 33.5195C235.895 33.2135 236.719 33.0605 237.617 33.0605C238.19 33.0605 238.734 33.1126 239.248 33.2168C239.769 33.3145 240.267 33.474 240.742 33.6953V35.4238Z" fill="#989B05"/>
<path d="M176.5 9C176.5 8.17157 177.172 7.5 178 7.5H240C240.828 7.5 241.5 8.17157 241.5 9V24C241.5 24.8284 240.828 25.5 240 25.5H178C177.172 25.5 176.5 24.8284 176.5 24V9Z" stroke="#C9D1D9"/>
<path d="M231 3C231 2.44772 231.448 2 232 2H242C242.552 2 243 2.44772 243 3V29C243 29.5523 242.552 30 242 30H232C231.448 30 231 29.5523 231 29V3Z" stroke="#C9D1D9" stroke-width="2"/>
<path d="M143 27C143 26.4477 143.448 26 144 26H154C154.552 26 155 26.4477 155 27V53C155 53.5523 154.552 54 154 54H144C143.448 54 143 53.5523 143 53V27Z" stroke="#C9D1D9" stroke-width="2"/>
<defs>
<filter id="filter0_d" x="255.5" y="115.5" width="217.891" height="38.9999" filterUnits="userSpaceOnUse" color-interpolation-filters="sRGB">
<feFlood flood-opacity="0" result="BackgroundImageFix"/>
<feColorMatrix in="SourceAlpha" type="matrix" values="0 0 0 0 0 0 0 0 0 0 0 0 0 0 0 0 0 0 127 0"/>
<feOffset dy="4"/>
<feGaussianBlur stdDeviation="2"/>
<feColorMatrix type="matrix" values="0 0 0 0 0 0 0 0 0 0 0 0 0 0 0 0 0 0 0.25 0"/>
<feBlend mode="normal" in2="BackgroundImageFix" result="effect1_dropShadow"/>
<feBlend mode="normal" in="SourceGraphic" in2="effect1_dropShadow" result="shape"/>
</filter>
<filter id="filter1_d" x="525" y="22" width="30" height="30" filterUnits="userSpaceOnUse" color-interpolation-filters="sRGB">
<feFlood flood-opacity="0" result="BackgroundImageFix"/>
<feColorMatrix in="SourceAlpha" type="matrix" values="0 0 0 0 0 0 0 0 0 0 0 0 0 0 0 0 0 0 127 0"/>
<feOffset dy="4"/>
<feGaussianBlur stdDeviation="2"/>
<feColorMatrix type="matrix" values="0 0 0 0 0 0 0 0 0 0 0 0 0 0 0 0 0 0 0.25 0"/>
<feBlend mode="normal" in2="BackgroundImageFix" result="effect1_dropShadow"/>
<feBlend mode="normal" in="SourceGraphic" in2="effect1_dropShadow" result="shape"/>
</filter>
<filter id="filter2_d" x="558" y="0" width="30" height="30" filterUnits="userSpaceOnUse" color-interpolation-filters="sRGB">
<feFlood flood-opacity="0" result="BackgroundImageFix"/>
<feColorMatrix in="SourceAlpha" type="matrix" values="0 0 0 0 0 0 0 0 0 0 0 0 0 0 0 0 0 0 127 0"/>
<feOffset dy="4"/>
<feGaussianBlur stdDeviation="2"/>
<feColorMatrix type="matrix" values="0 0 0 0 0 0 0 0 0 0 0 0 0 0 0 0 0 0 0.25 0"/>
<feBlend mode="normal" in2="BackgroundImageFix" result="effect1_dropShadow"/>
<feBlend mode="normal" in="SourceGraphic" in2="effect1_dropShadow" result="shape"/>
</filter>
<filter id="filter3_d" x="146.5" y="52.5" width="100" height="33" filterUnits="userSpaceOnUse" color-interpolation-filters="sRGB">
<feFlood flood-opacity="0" result="BackgroundImageFix"/>
<feColorMatrix in="SourceAlpha" type="matrix" values="0 0 0 0 0 0 0 0 0 0 0 0 0 0 0 0 0 0 127 0"/>
<feOffset dy="4"/>
<feGaussianBlur stdDeviation="2"/>
<feColorMatrix type="matrix" values="0 0 0 0 0 0 0 0 0 0 0 0 0 0 0 0 0 0 0.25 0"/>
<feBlend mode="normal" in2="BackgroundImageFix" result="effect1_dropShadow"/>
<feBlend mode="normal" in="SourceGraphic" in2="effect1_dropShadow" result="shape"/>
</filter>
</defs>
</svg>
