<svg width="360" height="48" viewBox="0 0 360 48" fill="none" xmlns="http://www.w3.org/2000/svg">
<g filter="url(#filter0_d)">
<path d="M14.1562 4.7207H10.377V16H8.61914V4.7207H4.83984V3.23633H14.1562V4.7207ZM20.4941 6.01953C20.696 6.01953 20.888 6.06185 21.0703 6.14648C21.2526 6.22461 21.4121 6.33203 21.5488 6.46875C21.6855 6.60547 21.793 6.76497 21.8711 6.94727C21.9557 7.12956 21.998 7.32161 21.998 7.52344C21.998 7.73177 21.9557 7.92708 21.8711 8.10938C21.793 8.28516 21.6855 8.44141 21.5488 8.57812C21.4121 8.71484 21.2526 8.82227 21.0703 8.90039C20.888 8.97852 20.696 9.01758 20.4941 9.01758C20.2858 9.01758 20.0905 8.97852 19.9082 8.90039C19.7324 8.82227 19.5762 8.71484 19.4395 8.57812C19.3027 8.44141 19.1953 8.28516 19.1172 8.10938C19.0391 7.92708 19 7.73177 19 7.52344C19 7.32161 19.0391 7.12956 19.1172 6.94727C19.1953 6.76497 19.3027 6.60547 19.4395 6.46875C19.5762 6.33203 19.7324 6.22461 19.9082 6.14648C20.0905 6.06185 20.2858 6.01953 20.4941 6.01953ZM20.4941 13.1777C20.696 13.1777 20.888 13.2201 21.0703 13.3047C21.2526 13.3828 21.4121 13.4902 21.5488 13.627C21.6855 13.7637 21.793 13.9232 21.8711 14.1055C21.9557 14.2878 21.998 14.4798 21.998 14.6816C21.998 14.89 21.9557 15.0853 21.8711 15.2676C21.793 15.4434 21.6855 15.5996 21.5488 15.7363C21.4121 15.873 21.2526 15.9805 21.0703 16.0586C20.888 16.1367 20.696 16.1758 20.4941 16.1758C20.2858 16.1758 20.0905 16.1367 19.9082 16.0586C19.7324 15.9805 19.5762 15.873 19.4395 15.7363C19.3027 15.5996 19.1953 15.4434 19.1172 15.2676C19.0391 15.0853 19 14.89 19 14.6816C19 14.4798 19.0391 14.2878 19.1172 14.1055C19.1953 13.9232 19.3027 13.7637 19.4395 13.627C19.5762 13.4902 19.7324 13.3828 19.9082 13.3047C20.0905 13.2201 20.2858 13.1777 20.4941 13.1777ZM46.8125 5.42383C46.3372 5.16992 45.849 4.97461 45.3477 4.83789C44.8464 4.69466 44.2995 4.62305 43.707 4.62305C43.0299 4.62305 42.4277 4.74349 41.9004 4.98438C41.373 5.22526 40.9271 5.56706 40.5625 6.00977C40.2044 6.44596 39.9277 6.97331 39.7324 7.5918C39.5436 8.21029 39.4492 8.89388 39.4492 9.64258C39.4492 10.4238 39.5273 11.1237 39.6836 11.7422C39.8398 12.3607 40.084 12.8848 40.416 13.3145C40.748 13.7441 41.1712 14.0729 41.6855 14.3008C42.2064 14.5286 42.8281 14.6426 43.5508 14.6426C43.6745 14.6426 43.8079 14.6361 43.9512 14.623C44.0944 14.61 44.2376 14.5938 44.3809 14.5742C44.5241 14.5482 44.6608 14.5189 44.791 14.4863C44.9277 14.4538 45.0482 14.418 45.1523 14.3789V10.3164H42.5449V8.88086H46.8711V15.4043C46.6042 15.528 46.321 15.6387 46.0215 15.7363C45.7285 15.834 45.4258 15.9154 45.1133 15.9805C44.8073 16.0456 44.5013 16.0944 44.1953 16.127C43.8893 16.1595 43.5931 16.1758 43.3066 16.1758C42.4342 16.1758 41.6465 16.0391 40.9434 15.7656C40.2467 15.4922 39.651 15.0885 39.1562 14.5547C38.668 14.0143 38.2904 13.3438 38.0234 12.543C37.763 11.7422 37.6328 10.8145 37.6328 9.75977C37.6328 8.71159 37.7793 7.77409 38.0723 6.94727C38.3652 6.11393 38.7754 5.41081 39.3027 4.83789C39.8366 4.25846 40.4746 3.81901 41.2168 3.51953C41.9655 3.21354 42.7891 3.06055 43.6875 3.06055C44.2604 3.06055 44.804 3.11263 45.3184 3.2168C45.8392 3.31445 46.3372 3.47396 46.8125 3.69531V5.42383ZM58.1406 4.7207H54.3613V16H52.6035V4.7207H48.8242V3.23633H58.1406V4.7207ZM69.1367 4.7207H65.3574V16H63.5996V4.7207H59.8203V3.23633H69.1367V4.7207ZM80.875 16H78.9805L78.0918 13.2168H72.7793L71.8809 16H70.0742L74.3125 3.23633H76.6953L80.875 16ZM77.5938 11.6641L75.4355 4.83789L73.2773 11.6641H77.5938ZM91.1289 4.7207H87.3496V16H85.5918V4.7207H81.8125V3.23633H91.1289V4.7207ZM102.867 16H100.973L100.084 13.2168H94.7715L93.873 16H92.0664L96.3047 3.23633H98.6875L102.867 16ZM99.5859 11.6641L97.4277 4.83789L95.2695 11.6641H99.5859ZM112.789 5.42383C112.314 5.16992 111.826 4.97461 111.324 4.83789C110.823 4.69466 110.276 4.62305 109.684 4.62305C109.007 4.62305 108.404 4.74349 107.877 4.98438C107.35 5.22526 106.904 5.56706 106.539 6.00977C106.181 6.44596 105.904 6.97331 105.709 7.5918C105.52 8.21029 105.426 8.89388 105.426 9.64258C105.426 10.4238 105.504 11.1237 105.66 11.7422C105.816 12.3607 106.061 12.8848 106.393 13.3145C106.725 13.7441 107.148 14.0729 107.662 14.3008C108.183 14.5286 108.805 14.6426 109.527 14.6426C109.651 14.6426 109.785 14.6361 109.928 14.623C110.071 14.61 110.214 14.5938 110.357 14.5742C110.501 14.5482 110.637 14.5189 110.768 14.4863C110.904 14.4538 111.025 14.418 111.129 14.3789V10.3164H108.521V8.88086H112.848V15.4043C112.581 15.528 112.298 15.6387 111.998 15.7363C111.705 15.834 111.402 15.9154 111.09 15.9805C110.784 16.0456 110.478 16.0944 110.172 16.127C109.866 16.1595 109.57 16.1758 109.283 16.1758C108.411 16.1758 107.623 16.0391 106.92 15.7656C106.223 15.4922 105.628 15.0885 105.133 14.5547C104.645 14.0143 104.267 13.3438 104 12.543C103.74 11.7422 103.609 10.8145 103.609 9.75977C103.609 8.71159 103.756 7.77409 104.049 6.94727C104.342 6.11393 104.752 5.41081 105.279 4.83789C105.813 4.25846 106.451 3.81901 107.193 3.51953C107.942 3.21354 108.766 3.06055 109.664 3.06055C110.237 3.06055 110.781 3.11263 111.295 3.2168C111.816 3.31445 112.314 3.47396 112.789 3.69531V5.42383ZM123.678 15.5215C122.656 15.9447 121.585 16.1562 120.465 16.1562C118.661 16.1562 117.275 15.6191 116.305 14.5449C115.341 13.4642 114.859 11.8691 114.859 9.75977C114.859 8.73763 114.993 7.81315 115.26 6.98633C115.527 6.15951 115.908 5.45964 116.402 4.88672C116.897 4.30729 117.496 3.86133 118.199 3.54883C118.902 3.23633 119.69 3.08008 120.562 3.08008C121.155 3.08008 121.705 3.13216 122.213 3.23633C122.721 3.33398 123.209 3.48698 123.678 3.69531V5.4043C123.215 5.15039 122.737 4.95833 122.242 4.82812C121.747 4.69141 121.207 4.62305 120.621 4.62305C120.022 4.62305 119.479 4.73698 118.99 4.96484C118.508 5.1862 118.098 5.51172 117.76 5.94141C117.421 6.36458 117.161 6.88542 116.979 7.50391C116.796 8.11589 116.705 8.81576 116.705 9.60352C116.705 11.2572 117.04 12.5039 117.711 13.3438C118.382 14.1836 119.365 14.6035 120.66 14.6035C121.207 14.6035 121.731 14.5417 122.232 14.418C122.734 14.2878 123.215 14.1087 123.678 13.8809V15.5215ZM135.113 4.7207H131.334V16H129.576V4.7207H125.797V3.23633H135.113V4.7207ZM145.777 5.42383C145.302 5.16992 144.814 4.97461 144.312 4.83789C143.811 4.69466 143.264 4.62305 142.672 4.62305C141.995 4.62305 141.393 4.74349 140.865 4.98438C140.338 5.22526 139.892 5.56706 139.527 6.00977C139.169 6.44596 138.893 6.97331 138.697 7.5918C138.508 8.21029 138.414 8.89388 138.414 9.64258C138.414 10.4238 138.492 11.1237 138.648 11.7422C138.805 12.3607 139.049 12.8848 139.381 13.3145C139.713 13.7441 140.136 14.0729 140.65 14.3008C141.171 14.5286 141.793 14.6426 142.516 14.6426C142.639 14.6426 142.773 14.6361 142.916 14.623C143.059 14.61 143.202 14.5938 143.346 14.5742C143.489 14.5482 143.626 14.5189 143.756 14.4863C143.893 14.4538 144.013 14.418 144.117 14.3789V10.3164H141.51V8.88086H145.836V15.4043C145.569 15.528 145.286 15.6387 144.986 15.7363C144.693 15.834 144.391 15.9154 144.078 15.9805C143.772 16.0456 143.466 16.0944 143.16 16.127C142.854 16.1595 142.558 16.1758 142.271 16.1758C141.399 16.1758 140.611 16.0391 139.908 15.7656C139.212 15.4922 138.616 15.0885 138.121 14.5547C137.633 14.0143 137.255 13.3438 136.988 12.543C136.728 11.7422 136.598 10.8145 136.598 9.75977C136.598 8.71159 136.744 7.77409 137.037 6.94727C137.33 6.11393 137.74 5.41081 138.268 4.83789C138.801 4.25846 139.439 3.81901 140.182 3.51953C140.93 3.21354 141.754 3.06055 142.652 3.06055C143.225 3.06055 143.769 3.11263 144.283 3.2168C144.804 3.31445 145.302 3.47396 145.777 3.69531V5.42383ZM157.848 16H155.953L155.064 13.2168H149.752L148.854 16H147.047L151.285 3.23633H153.668L157.848 16ZM154.566 11.6641L152.408 4.83789L150.25 11.6641H154.566ZM168.102 4.7207H164.322V16H162.564V4.7207H158.785V3.23633H168.102V4.7207ZM178.658 15.5215C177.636 15.9447 176.565 16.1562 175.445 16.1562C173.642 16.1562 172.255 15.6191 171.285 14.5449C170.322 13.4642 169.84 11.8691 169.84 9.75977C169.84 8.73763 169.973 7.81315 170.24 6.98633C170.507 6.15951 170.888 5.45964 171.383 4.88672C171.878 4.30729 172.477 3.86133 173.18 3.54883C173.883 3.23633 174.671 3.08008 175.543 3.08008C176.135 3.08008 176.686 3.13216 177.193 3.23633C177.701 3.33398 178.189 3.48698 178.658 3.69531V5.4043C178.196 5.15039 177.717 4.95833 177.223 4.82812C176.728 4.69141 176.188 4.62305 175.602 4.62305C175.003 4.62305 174.459 4.73698 173.971 4.96484C173.489 5.1862 173.079 5.51172 172.74 5.94141C172.402 6.36458 172.141 6.88542 171.959 7.50391C171.777 8.11589 171.686 8.81576 171.686 9.60352C171.686 11.2572 172.021 12.5039 172.691 13.3438C173.362 14.1836 174.345 14.6035 175.641 14.6035C176.188 14.6035 176.712 14.5417 177.213 14.418C177.714 14.2878 178.196 14.1087 178.658 13.8809V15.5215ZM189.762 5.42383C189.286 5.16992 188.798 4.97461 188.297 4.83789C187.796 4.69466 187.249 4.62305 186.656 4.62305C185.979 4.62305 185.377 4.74349 184.85 4.98438C184.322 5.22526 183.876 5.56706 183.512 6.00977C183.154 6.44596 182.877 6.97331 182.682 7.5918C182.493 8.21029 182.398 8.89388 182.398 9.64258C182.398 10.4238 182.477 11.1237 182.633 11.7422C182.789 12.3607 183.033 12.8848 183.365 13.3145C183.697 13.7441 184.12 14.0729 184.635 14.3008C185.156 14.5286 185.777 14.6426 186.5 14.6426C186.624 14.6426 186.757 14.6361 186.9 14.623C187.044 14.61 187.187 14.5938 187.33 14.5742C187.473 14.5482 187.61 14.5189 187.74 14.4863C187.877 14.4538 187.997 14.418 188.102 14.3789V10.3164H185.494V8.88086H189.82V15.4043C189.553 15.528 189.27 15.6387 188.971 15.7363C188.678 15.834 188.375 15.9154 188.062 15.9805C187.757 16.0456 187.451 16.0944 187.145 16.127C186.839 16.1595 186.542 16.1758 186.256 16.1758C185.383 16.1758 184.596 16.0391 183.893 15.7656C183.196 15.4922 182.6 15.0885 182.105 14.5547C181.617 14.0143 181.24 13.3438 180.973 12.543C180.712 11.7422 180.582 10.8145 180.582 9.75977C180.582 8.71159 180.729 7.77409 181.021 6.94727C181.314 6.11393 181.725 5.41081 182.252 4.83789C182.786 4.25846 183.424 3.81901 184.166 3.51953C184.915 3.21354 185.738 3.06055 186.637 3.06055C187.21 3.06055 187.753 3.11263 188.268 3.2168C188.788 3.31445 189.286 3.47396 189.762 3.69531V5.42383ZM200.65 15.5215C199.628 15.9447 198.557 16.1562 197.438 16.1562C195.634 16.1562 194.247 15.6191 193.277 14.5449C192.314 13.4642 191.832 11.8691 191.832 9.75977C191.832 8.73763 191.965 7.81315 192.232 6.98633C192.499 6.15951 192.88 5.45964 193.375 4.88672C193.87 4.30729 194.469 3.86133 195.172 3.54883C195.875 3.23633 196.663 3.08008 197.535 3.08008C198.128 3.08008 198.678 3.13216 199.186 3.23633C199.693 3.33398 200.182 3.48698 200.65 3.69531V5.4043C200.188 5.15039 199.71 4.95833 199.215 4.82812C198.72 4.69141 198.18 4.62305 197.594 4.62305C196.995 4.62305 196.451 4.73698 195.963 4.96484C195.481 5.1862 195.071 5.51172 194.732 5.94141C194.394 6.36458 194.133 6.88542 193.951 7.50391C193.769 8.11589 193.678 8.81576 193.678 9.60352C193.678 11.2572 194.013 12.5039 194.684 13.3438C195.354 14.1836 196.337 14.6035 197.633 14.6035C198.18 14.6035 198.704 14.5417 199.205 14.418C199.706 14.2878 200.188 14.1087 200.65 13.8809V15.5215ZM211.754 5.42383C211.279 5.16992 210.79 4.97461 210.289 4.83789C209.788 4.69466 209.241 4.62305 208.648 4.62305C207.971 4.62305 207.369 4.74349 206.842 4.98438C206.314 5.22526 205.868 5.56706 205.504 6.00977C205.146 6.44596 204.869 6.97331 204.674 7.5918C204.485 8.21029 204.391 8.89388 204.391 9.64258C204.391 10.4238 204.469 11.1237 204.625 11.7422C204.781 12.3607 205.025 12.8848 205.357 13.3145C205.689 13.7441 206.113 14.0729 206.627 14.3008C207.148 14.5286 207.77 14.6426 208.492 14.6426C208.616 14.6426 208.749 14.6361 208.893 14.623C209.036 14.61 209.179 14.5938 209.322 14.5742C209.465 14.5482 209.602 14.5189 209.732 14.4863C209.869 14.4538 209.99 14.418 210.094 14.3789V10.3164H207.486V8.88086H211.812V15.4043C211.546 15.528 211.262 15.6387 210.963 15.7363C210.67 15.834 210.367 15.9154 210.055 15.9805C209.749 16.0456 209.443 16.0944 209.137 16.127C208.831 16.1595 208.535 16.1758 208.248 16.1758C207.376 16.1758 206.588 16.0391 205.885 15.7656C205.188 15.4922 204.592 15.0885 204.098 14.5547C203.609 14.0143 203.232 13.3438 202.965 12.543C202.704 11.7422 202.574 10.8145 202.574 9.75977C202.574 8.71159 202.721 7.77409 203.014 6.94727C203.307 6.11393 203.717 5.41081 204.244 4.83789C204.778 4.25846 205.416 3.81901 206.158 3.51953C206.907 3.21354 207.73 3.06055 208.629 3.06055C209.202 3.06055 209.745 3.11263 210.26 3.2168C210.781 3.31445 211.279 3.47396 211.754 3.69531V5.42383ZM222.75 5.42383C222.275 5.16992 221.786 4.97461 221.285 4.83789C220.784 4.69466 220.237 4.62305 219.645 4.62305C218.967 4.62305 218.365 4.74349 217.838 4.98438C217.311 5.22526 216.865 5.56706 216.5 6.00977C216.142 6.44596 215.865 6.97331 215.67 7.5918C215.481 8.21029 215.387 8.89388 215.387 9.64258C215.387 10.4238 215.465 11.1237 215.621 11.7422C215.777 12.3607 216.021 12.8848 216.354 13.3145C216.686 13.7441 217.109 14.0729 217.623 14.3008C218.144 14.5286 218.766 14.6426 219.488 14.6426C219.612 14.6426 219.745 14.6361 219.889 14.623C220.032 14.61 220.175 14.5938 220.318 14.5742C220.462 14.5482 220.598 14.5189 220.729 14.4863C220.865 14.4538 220.986 14.418 221.09 14.3789V10.3164H218.482V8.88086H222.809V15.4043C222.542 15.528 222.258 15.6387 221.959 15.7363C221.666 15.834 221.363 15.9154 221.051 15.9805C220.745 16.0456 220.439 16.0944 220.133 16.127C219.827 16.1595 219.531 16.1758 219.244 16.1758C218.372 16.1758 217.584 16.0391 216.881 15.7656C216.184 15.4922 215.589 15.0885 215.094 14.5547C214.605 14.0143 214.228 13.3438 213.961 12.543C213.701 11.7422 213.57 10.8145 213.57 9.75977C213.57 8.71159 213.717 7.77409 214.01 6.94727C214.303 6.11393 214.713 5.41081 215.24 4.83789C215.774 4.25846 216.412 3.81901 217.154 3.51953C217.903 3.21354 218.727 3.06055 219.625 3.06055C220.198 3.06055 220.742 3.11263 221.256 3.2168C221.777 3.31445 222.275 3.47396 222.75 3.69531V5.42383ZM233.639 15.5215C232.617 15.9447 231.546 16.1562 230.426 16.1562C228.622 16.1562 227.236 15.6191 226.266 14.5449C225.302 13.4642 224.82 11.8691 224.82 9.75977C224.82 8.73763 224.954 7.81315 225.221 6.98633C225.488 6.15951 225.868 5.45964 226.363 4.88672C226.858 4.30729 227.457 3.86133 228.16 3.54883C228.863 3.23633 229.651 3.08008 230.523 3.08008C231.116 3.08008 231.666 3.13216 232.174 3.23633C232.682 3.33398 233.17 3.48698 233.639 3.69531V5.4043C233.176 5.15039 232.698 4.95833 232.203 4.82812C231.708 4.69141 231.168 4.62305 230.582 4.62305C229.983 4.62305 229.439 4.73698 228.951 4.96484C228.469 5.1862 228.059 5.51172 227.721 5.94141C227.382 6.36458 227.122 6.88542 226.939 7.50391C226.757 8.11589 226.666 8.81576 226.666 9.60352C226.666 11.2572 227.001 12.5039 227.672 13.3438C228.342 14.1836 229.326 14.6035 230.621 14.6035C231.168 14.6035 231.692 14.5417 232.193 14.418C232.695 14.2878 233.176 14.1087 233.639 13.8809V15.5215ZM244.742 5.42383C244.267 5.16992 243.779 4.97461 243.277 4.83789C242.776 4.69466 242.229 4.62305 241.637 4.62305C240.96 4.62305 240.357 4.74349 239.83 4.98438C239.303 5.22526 238.857 5.56706 238.492 6.00977C238.134 6.44596 237.857 6.97331 237.662 7.5918C237.473 8.21029 237.379 8.89388 237.379 9.64258C237.379 10.4238 237.457 11.1237 237.613 11.7422C237.77 12.3607 238.014 12.8848 238.346 13.3145C238.678 13.7441 239.101 14.0729 239.615 14.3008C240.136 14.5286 240.758 14.6426 241.48 14.6426C241.604 14.6426 241.738 14.6361 241.881 14.623C242.024 14.61 242.167 14.5938 242.311 14.5742C242.454 14.5482 242.59 14.5189 242.721 14.4863C242.857 14.4538 242.978 14.418 243.082 14.3789V10.3164H240.475V8.88086H244.801V15.4043C244.534 15.528 244.251 15.6387 243.951 15.7363C243.658 15.834 243.355 15.9154 243.043 15.9805C242.737 16.0456 242.431 16.0944 242.125 16.127C241.819 16.1595 241.523 16.1758 241.236 16.1758C240.364 16.1758 239.576 16.0391 238.873 15.7656C238.176 15.4922 237.581 15.0885 237.086 14.5547C236.598 14.0143 236.22 13.3438 235.953 12.543C235.693 11.7422 235.562 10.8145 235.562 9.75977C235.562 8.71159 235.709 7.77409 236.002 6.94727C236.295 6.11393 236.705 5.41081 237.232 4.83789C237.766 4.25846 238.404 3.81901 239.146 3.51953C239.895 3.21354 240.719 3.06055 241.617 3.06055C242.19 3.06055 242.734 3.11263 243.248 3.2168C243.769 3.31445 244.267 3.47396 244.742 3.69531V5.42383ZM256.07 4.7207H252.291V16H250.533V4.7207H246.754V3.23633H256.07V4.7207ZM267.809 16H265.914L265.025 13.2168H259.713L258.814 16H257.008L261.246 3.23633H263.629L267.809 16ZM264.527 11.6641L262.369 4.83789L260.211 11.6641H264.527ZM277.73 5.42383C277.255 5.16992 276.767 4.97461 276.266 4.83789C275.764 4.69466 275.217 4.62305 274.625 4.62305C273.948 4.62305 273.346 4.74349 272.818 4.98438C272.291 5.22526 271.845 5.56706 271.48 6.00977C271.122 6.44596 270.846 6.97331 270.65 7.5918C270.462 8.21029 270.367 8.89388 270.367 9.64258C270.367 10.4238 270.445 11.1237 270.602 11.7422C270.758 12.3607 271.002 12.8848 271.334 13.3145C271.666 13.7441 272.089 14.0729 272.604 14.3008C273.124 14.5286 273.746 14.6426 274.469 14.6426C274.592 14.6426 274.726 14.6361 274.869 14.623C275.012 14.61 275.156 14.5938 275.299 14.5742C275.442 14.5482 275.579 14.5189 275.709 14.4863C275.846 14.4538 275.966 14.418 276.07 14.3789V10.3164H273.463V8.88086H277.789V15.4043C277.522 15.528 277.239 15.6387 276.939 15.7363C276.646 15.834 276.344 15.9154 276.031 15.9805C275.725 16.0456 275.419 16.0944 275.113 16.127C274.807 16.1595 274.511 16.1758 274.225 16.1758C273.352 16.1758 272.564 16.0391 271.861 15.7656C271.165 15.4922 270.569 15.0885 270.074 14.5547C269.586 14.0143 269.208 13.3438 268.941 12.543C268.681 11.7422 268.551 10.8145 268.551 9.75977C268.551 8.71159 268.697 7.77409 268.99 6.94727C269.283 6.11393 269.693 5.41081 270.221 4.83789C270.755 4.25846 271.393 3.81901 272.135 3.51953C272.883 3.21354 273.707 3.06055 274.605 3.06055C275.178 3.06055 275.722 3.11263 276.236 3.2168C276.757 3.31445 277.255 3.47396 277.73 3.69531V5.42383ZM288.619 15.5215C287.597 15.9447 286.526 16.1562 285.406 16.1562C283.603 16.1562 282.216 15.6191 281.246 14.5449C280.283 13.4642 279.801 11.8691 279.801 9.75977C279.801 8.73763 279.934 7.81315 280.201 6.98633C280.468 6.15951 280.849 5.45964 281.344 4.88672C281.839 4.30729 282.438 3.86133 283.141 3.54883C283.844 3.23633 284.632 3.08008 285.504 3.08008C286.096 3.08008 286.646 3.13216 287.154 3.23633C287.662 3.33398 288.15 3.48698 288.619 3.69531V5.4043C288.157 5.15039 287.678 4.95833 287.184 4.82812C286.689 4.69141 286.148 4.62305 285.562 4.62305C284.964 4.62305 284.42 4.73698 283.932 4.96484C283.45 5.1862 283.04 5.51172 282.701 5.94141C282.363 6.36458 282.102 6.88542 281.92 7.50391C281.738 8.11589 281.646 8.81576 281.646 9.60352C281.646 11.2572 281.982 12.5039 282.652 13.3438C283.323 14.1836 284.306 14.6035 285.602 14.6035C286.148 14.6035 286.673 14.5417 287.174 14.418C287.675 14.2878 288.157 14.1087 288.619 13.8809V15.5215ZM299.723 5.42383C299.247 5.16992 298.759 4.97461 298.258 4.83789C297.757 4.69466 297.21 4.62305 296.617 4.62305C295.94 4.62305 295.338 4.74349 294.811 4.98438C294.283 5.22526 293.837 5.56706 293.473 6.00977C293.115 6.44596 292.838 6.97331 292.643 7.5918C292.454 8.21029 292.359 8.89388 292.359 9.64258C292.359 10.4238 292.438 11.1237 292.594 11.7422C292.75 12.3607 292.994 12.8848 293.326 13.3145C293.658 13.7441 294.081 14.0729 294.596 14.3008C295.117 14.5286 295.738 14.6426 296.461 14.6426C296.585 14.6426 296.718 14.6361 296.861 14.623C297.005 14.61 297.148 14.5938 297.291 14.5742C297.434 14.5482 297.571 14.5189 297.701 14.4863C297.838 14.4538 297.958 14.418 298.062 14.3789V10.3164H295.455V8.88086H299.781V15.4043C299.514 15.528 299.231 15.6387 298.932 15.7363C298.639 15.834 298.336 15.9154 298.023 15.9805C297.717 16.0456 297.411 16.0944 297.105 16.127C296.799 16.1595 296.503 16.1758 296.217 16.1758C295.344 16.1758 294.557 16.0391 293.854 15.7656C293.157 15.4922 292.561 15.0885 292.066 14.5547C291.578 14.0143 291.201 13.3438 290.934 12.543C290.673 11.7422 290.543 10.8145 290.543 9.75977C290.543 8.71159 290.689 7.77409 290.982 6.94727C291.275 6.11393 291.686 5.41081 292.213 4.83789C292.747 4.25846 293.385 3.81901 294.127 3.51953C294.876 3.21354 295.699 3.06055 296.598 3.06055C297.171 3.06055 297.714 3.11263 298.229 3.2168C298.749 3.31445 299.247 3.47396 299.723 3.69531V5.42383ZM310.719 5.42383C310.243 5.16992 309.755 4.97461 309.254 4.83789C308.753 4.69466 308.206 4.62305 307.613 4.62305C306.936 4.62305 306.334 4.74349 305.807 4.98438C305.279 5.22526 304.833 5.56706 304.469 6.00977C304.111 6.44596 303.834 6.97331 303.639 7.5918C303.45 8.21029 303.355 8.89388 303.355 9.64258C303.355 10.4238 303.434 11.1237 303.59 11.7422C303.746 12.3607 303.99 12.8848 304.322 13.3145C304.654 13.7441 305.077 14.0729 305.592 14.3008C306.113 14.5286 306.734 14.6426 307.457 14.6426C307.581 14.6426 307.714 14.6361 307.857 14.623C308.001 14.61 308.144 14.5938 308.287 14.5742C308.43 14.5482 308.567 14.5189 308.697 14.4863C308.834 14.4538 308.954 14.418 309.059 14.3789V10.3164H306.451V8.88086H310.777V15.4043C310.51 15.528 310.227 15.6387 309.928 15.7363C309.635 15.834 309.332 15.9154 309.02 15.9805C308.714 16.0456 308.408 16.0944 308.102 16.127C307.796 16.1595 307.499 16.1758 307.213 16.1758C306.34 16.1758 305.553 16.0391 304.85 15.7656C304.153 15.4922 303.557 15.0885 303.062 14.5547C302.574 14.0143 302.197 13.3438 301.93 12.543C301.669 11.7422 301.539 10.8145 301.539 9.75977C301.539 8.71159 301.686 7.77409 301.979 6.94727C302.271 6.11393 302.682 5.41081 303.209 4.83789C303.743 4.25846 304.381 3.81901 305.123 3.51953C305.872 3.21354 306.695 3.06055 307.594 3.06055C308.167 3.06055 308.71 3.11263 309.225 3.2168C309.745 3.31445 310.243 3.47396 310.719 3.69531V5.42383ZM321.607 15.5215C320.585 15.9447 319.514 16.1562 318.395 16.1562C316.591 16.1562 315.204 15.6191 314.234 14.5449C313.271 13.4642 312.789 11.8691 312.789 9.75977C312.789 8.73763 312.923 7.81315 313.189 6.98633C313.456 6.15951 313.837 5.45964 314.332 4.88672C314.827 4.30729 315.426 3.86133 316.129 3.54883C316.832 3.23633 317.62 3.08008 318.492 3.08008C319.085 3.08008 319.635 3.13216 320.143 3.23633C320.65 3.33398 321.139 3.48698 321.607 3.69531V5.4043C321.145 5.15039 320.667 4.95833 320.172 4.82812C319.677 4.69141 319.137 4.62305 318.551 4.62305C317.952 4.62305 317.408 4.73698 316.92 4.96484C316.438 5.1862 316.028 5.51172 315.689 5.94141C315.351 6.36458 315.09 6.88542 314.908 7.50391C314.726 8.11589 314.635 8.81576 314.635 9.60352C314.635 11.2572 314.97 12.5039 315.641 13.3438C316.311 14.1836 317.294 14.6035 318.59 14.6035C319.137 14.6035 319.661 14.5417 320.162 14.418C320.663 14.2878 321.145 14.1087 321.607 13.8809V15.5215ZM332.711 5.42383C332.236 5.16992 331.747 4.97461 331.246 4.83789C330.745 4.69466 330.198 4.62305 329.605 4.62305C328.928 4.62305 328.326 4.74349 327.799 4.98438C327.271 5.22526 326.826 5.56706 326.461 6.00977C326.103 6.44596 325.826 6.97331 325.631 7.5918C325.442 8.21029 325.348 8.89388 325.348 9.64258C325.348 10.4238 325.426 11.1237 325.582 11.7422C325.738 12.3607 325.982 12.8848 326.314 13.3145C326.646 13.7441 327.07 14.0729 327.584 14.3008C328.105 14.5286 328.727 14.6426 329.449 14.6426C329.573 14.6426 329.706 14.6361 329.85 14.623C329.993 14.61 330.136 14.5938 330.279 14.5742C330.423 14.5482 330.559 14.5189 330.689 14.4863C330.826 14.4538 330.947 14.418 331.051 14.3789V10.3164H328.443V8.88086H332.77V15.4043C332.503 15.528 332.219 15.6387 331.92 15.7363C331.627 15.834 331.324 15.9154 331.012 15.9805C330.706 16.0456 330.4 16.0944 330.094 16.127C329.788 16.1595 329.492 16.1758 329.205 16.1758C328.333 16.1758 327.545 16.0391 326.842 15.7656C326.145 15.4922 325.549 15.0885 325.055 14.5547C324.566 14.0143 324.189 13.3438 323.922 12.543C323.661 11.7422 323.531 10.8145 323.531 9.75977C323.531 8.71159 323.678 7.77409 323.971 6.94727C324.264 6.11393 324.674 5.41081 325.201 4.83789C325.735 4.25846 326.373 3.81901 327.115 3.51953C327.864 3.21354 328.688 3.06055 329.586 3.06055C330.159 3.06055 330.702 3.11263 331.217 3.2168C331.738 3.31445 332.236 3.47396 332.711 3.69531V5.42383ZM344.781 16H342.887L341.998 13.2168H336.686L335.787 16H333.98L338.219 3.23633H340.602L344.781 16ZM341.5 11.6641L339.342 4.83789L337.184 11.6641H341.5ZM355.777 16H353.883L352.994 13.2168H347.682L346.783 16H344.977L349.215 3.23633H351.598L355.777 16ZM352.496 11.6641L350.338 4.83789L348.18 11.6641H352.496ZM13.9219 30.1426C13.9219 30.6634 13.8242 31.181 13.6289 31.6953C13.4336 32.2031 13.1309 32.6589 12.7207 33.0625C12.3105 33.4661 11.7865 33.7949 11.1484 34.0488C10.5104 34.2962 9.7487 34.4199 8.86328 34.4199H7.28125V39H5.54297V26.2363H9.13672C9.76823 26.2363 10.3737 26.3079 10.9531 26.4512C11.5326 26.5879 12.0404 26.8125 12.4766 27.125C12.9193 27.4375 13.2708 27.8411 13.5312 28.3359C13.7917 28.8307 13.9219 29.4329 13.9219 30.1426ZM12.1152 30.2207C12.1152 29.4004 11.8451 28.7721 11.3047 28.3359C10.7708 27.8997 10.0221 27.6816 9.05859 27.6816H7.28125V32.9355H8.90234C9.93099 32.9355 10.722 32.7109 11.2754 32.2617C11.8353 31.8125 12.1152 31.1322 12.1152 30.2207ZM20.4941 29.0195C20.696 29.0195 20.888 29.0618 21.0703 29.1465C21.2526 29.2246 21.4121 29.332 21.5488 29.4688C21.6855 29.6055 21.793 29.765 21.8711 29.9473C21.9557 30.1296 21.998 30.3216 21.998 30.5234C21.998 30.7318 21.9557 30.9271 21.8711 31.1094C21.793 31.2852 21.6855 31.4414 21.5488 31.5781C21.4121 31.7148 21.2526 31.8223 21.0703 31.9004C20.888 31.9785 20.696 32.0176 20.4941 32.0176C20.2858 32.0176 20.0905 31.9785 19.9082 31.9004C19.7324 31.8223 19.5762 31.7148 19.4395 31.5781C19.3027 31.4414 19.1953 31.2852 19.1172 31.1094C19.0391 30.9271 19 30.7318 19 30.5234C19 30.3216 19.0391 30.1296 19.1172 29.9473C19.1953 29.765 19.3027 29.6055 19.4395 29.4688C19.5762 29.332 19.7324 29.2246 19.9082 29.1465C20.0905 29.0618 20.2858 29.0195 20.4941 29.0195ZM20.4941 36.1777C20.696 36.1777 20.888 36.2201 21.0703 36.3047C21.2526 36.3828 21.4121 36.4902 21.5488 36.627C21.6855 36.7637 21.793 36.9232 21.8711 37.1055C21.9557 37.2878 21.998 37.4798 21.998 37.6816C21.998 37.89 21.9557 38.0853 21.8711 38.2676C21.793 38.4434 21.6855 38.5996 21.5488 38.7363C21.4121 38.873 21.2526 38.9805 21.0703 39.0586C20.888 39.1367 20.696 39.1758 20.4941 39.1758C20.2858 39.1758 20.0905 39.1367 19.9082 39.0586C19.7324 38.9805 19.5762 38.873 19.4395 38.7363C19.3027 38.5996 19.1953 38.4434 19.1172 38.2676C19.0391 38.0853 19 37.89 19 37.6816C19 37.4798 19.0391 37.2878 19.1172 37.1055C19.1953 36.9232 19.3027 36.7637 19.4395 36.627C19.5762 36.4902 19.7324 36.3828 19.9082 36.3047C20.0905 36.2201 20.2858 36.1777 20.4941 36.1777ZM46.8125 28.4238C46.3372 28.1699 45.849 27.9746 45.3477 27.8379C44.8464 27.6947 44.2995 27.623 43.707 27.623C43.0299 27.623 42.4277 27.7435 41.9004 27.9844C41.373 28.2253 40.9271 28.5671 40.5625 29.0098C40.2044 29.446 39.9277 29.9733 39.7324 30.5918C39.5436 31.2103 39.4492 31.8939 39.4492 32.6426C39.4492 33.4238 39.5273 34.1237 39.6836 34.7422C39.8398 35.3607 40.084 35.8848 40.416 36.3145C40.748 36.7441 41.1712 37.0729 41.6855 37.3008C42.2064 37.5286 42.8281 37.6426 43.5508 37.6426C43.6745 37.6426 43.8079 37.6361 43.9512 37.623C44.0944 37.61 44.2376 37.5938 44.3809 37.5742C44.5241 37.5482 44.6608 37.5189 44.791 37.4863C44.9277 37.4538 45.0482 37.418 45.1523 37.3789V33.3164H42.5449V31.8809H46.8711V38.4043C46.6042 38.528 46.321 38.6387 46.0215 38.7363C45.7285 38.834 45.4258 38.9154 45.1133 38.9805C44.8073 39.0456 44.5013 39.0944 44.1953 39.127C43.8893 39.1595 43.5931 39.1758 43.3066 39.1758C42.4342 39.1758 41.6465 39.0391 40.9434 38.7656C40.2467 38.4922 39.651 38.0885 39.1562 37.5547C38.668 37.0143 38.2904 36.3438 38.0234 35.543C37.763 34.7422 37.6328 33.8145 37.6328 32.7598C37.6328 31.7116 37.7793 30.7741 38.0723 29.9473C38.3652 29.1139 38.7754 28.4108 39.3027 27.8379C39.8366 27.2585 40.4746 26.819 41.2168 26.5195C41.9655 26.2135 42.7891 26.0605 43.6875 26.0605C44.2604 26.0605 44.804 26.1126 45.3184 26.2168C45.8392 26.3145 46.3372 26.474 46.8125 26.6953V28.4238ZM58.1406 27.7207H54.3613V39H52.6035V27.7207H48.8242V26.2363H58.1406V27.7207ZM69.8789 39H67.9844L67.0957 36.2168H61.7832L60.8848 39H59.0781L63.3164 26.2363H65.6992L69.8789 39ZM66.5977 34.6641L64.4395 27.8379L62.2812 34.6641H66.5977ZM79.8008 28.4238C79.3255 28.1699 78.8372 27.9746 78.3359 27.8379C77.8346 27.6947 77.2878 27.623 76.6953 27.623C76.0182 27.623 75.416 27.7435 74.8887 27.9844C74.3613 28.2253 73.9154 28.5671 73.5508 29.0098C73.1927 29.446 72.916 29.9733 72.7207 30.5918C72.5319 31.2103 72.4375 31.8939 72.4375 32.6426C72.4375 33.4238 72.5156 34.1237 72.6719 34.7422C72.8281 35.3607 73.0723 35.8848 73.4043 36.3145C73.7363 36.7441 74.1595 37.0729 74.6738 37.3008C75.1947 37.5286 75.8164 37.6426 76.5391 37.6426C76.6628 37.6426 76.7962 37.6361 76.9395 37.623C77.0827 37.61 77.2259 37.5938 77.3691 37.5742C77.5124 37.5482 77.6491 37.5189 77.7793 37.4863C77.916 37.4538 78.0365 37.418 78.1406 37.3789V33.3164H75.5332V31.8809H79.8594V38.4043C79.5924 38.528 79.3092 38.6387 79.0098 38.7363C78.7168 38.834 78.4141 38.9154 78.1016 38.9805C77.7956 39.0456 77.4896 39.0944 77.1836 39.127C76.8776 39.1595 76.5814 39.1758 76.2949 39.1758C75.4225 39.1758 74.6348 39.0391 73.9316 38.7656C73.235 38.4922 72.6393 38.0885 72.1445 37.5547C71.6562 37.0143 71.2786 36.3438 71.0117 35.543C70.7513 34.7422 70.6211 33.8145 70.6211 32.7598C70.6211 31.7116 70.7676 30.7741 71.0605 29.9473C71.3535 29.1139 71.7637 28.4108 72.291 27.8379C72.8249 27.2585 73.4629 26.819 74.2051 26.5195C74.9538 26.2135 75.7773 26.0605 76.6758 26.0605C77.2487 26.0605 77.7923 26.1126 78.3066 26.2168C78.8275 26.3145 79.3255 26.474 79.8008 26.6953V28.4238ZM90.6895 38.5215C89.6673 38.9447 88.5964 39.1562 87.4766 39.1562C85.6732 39.1562 84.2865 38.6191 83.3164 37.5449C82.3529 36.4642 81.8711 34.8691 81.8711 32.7598C81.8711 31.7376 82.0046 30.8132 82.2715 29.9863C82.5384 29.1595 82.9193 28.4596 83.4141 27.8867C83.9089 27.3073 84.5078 26.8613 85.2109 26.5488C85.9141 26.2363 86.7018 26.0801 87.5742 26.0801C88.1667 26.0801 88.7168 26.1322 89.2246 26.2363C89.7324 26.334 90.2207 26.487 90.6895 26.6953V28.4043C90.2272 28.1504 89.7487 27.9583 89.2539 27.8281C88.7591 27.6914 88.2188 27.623 87.6328 27.623C87.0339 27.623 86.4902 27.737 86.002 27.9648C85.5202 28.1862 85.11 28.5117 84.7715 28.9414C84.4329 29.3646 84.1725 29.8854 83.9902 30.5039C83.8079 31.1159 83.7168 31.8158 83.7168 32.6035C83.7168 34.2572 84.0521 35.5039 84.7227 36.3438C85.3932 37.1836 86.3763 37.6035 87.6719 37.6035C88.2188 37.6035 88.7428 37.5417 89.2441 37.418C89.7454 37.2878 90.2272 37.1087 90.6895 36.8809V38.5215ZM101.793 28.4238C101.318 28.1699 100.829 27.9746 100.328 27.8379C99.8268 27.6947 99.2799 27.623 98.6875 27.623C98.0104 27.623 97.4082 27.7435 96.8809 27.9844C96.3535 28.2253 95.9076 28.5671 95.543 29.0098C95.1849 29.446 94.9082 29.9733 94.7129 30.5918C94.5241 31.2103 94.4297 31.8939 94.4297 32.6426C94.4297 33.4238 94.5078 34.1237 94.6641 34.7422C94.8203 35.3607 95.0645 35.8848 95.3965 36.3145C95.7285 36.7441 96.1517 37.0729 96.666 37.3008C97.1868 37.5286 97.8086 37.6426 98.5312 37.6426C98.6549 37.6426 98.7884 37.6361 98.9316 37.623C99.0749 37.61 99.2181 37.5938 99.3613 37.5742C99.5046 37.5482 99.6413 37.5189 99.7715 37.4863C99.9082 37.4538 100.029 37.418 100.133 37.3789V33.3164H97.5254V31.8809H101.852V38.4043C101.585 38.528 101.301 38.6387 101.002 38.7363C100.709 38.834 100.406 38.9154 100.094 38.9805C99.7878 39.0456 99.4818 39.0944 99.1758 39.127C98.8698 39.1595 98.5736 39.1758 98.2871 39.1758C97.4147 39.1758 96.627 39.0391 95.9238 38.7656C95.2272 38.4922 94.6315 38.0885 94.1367 37.5547C93.6484 37.0143 93.2708 36.3438 93.0039 35.543C92.7435 34.7422 92.6133 33.8145 92.6133 32.7598C92.6133 31.7116 92.7598 30.7741 93.0527 29.9473C93.3457 29.1139 93.7559 28.4108 94.2832 27.8379C94.8171 27.2585 95.4551 26.819 96.1973 26.5195C96.946 26.2135 97.7695 26.0605 98.668 26.0605C99.2409 26.0605 99.7845 26.1126 100.299 26.2168C100.82 26.3145 101.318 26.474 101.793 26.6953V28.4238ZM112.789 28.4238C112.314 28.1699 111.826 27.9746 111.324 27.8379C110.823 27.6947 110.276 27.623 109.684 27.623C109.007 27.623 108.404 27.7435 107.877 27.9844C107.35 28.2253 106.904 28.5671 106.539 29.0098C106.181 29.446 105.904 29.9733 105.709 30.5918C105.52 31.2103 105.426 31.8939 105.426 32.6426C105.426 33.4238 105.504 34.1237 105.66 34.7422C105.816 35.3607 106.061 35.8848 106.393 36.3145C106.725 36.7441 107.148 37.0729 107.662 37.3008C108.183 37.5286 108.805 37.6426 109.527 37.6426C109.651 37.6426 109.785 37.6361 109.928 37.623C110.071 37.61 110.214 37.5938 110.357 37.5742C110.501 37.5482 110.637 37.5189 110.768 37.4863C110.904 37.4538 111.025 37.418 111.129 37.3789V33.3164H108.521V31.8809H112.848V38.4043C112.581 38.528 112.298 38.6387 111.998 38.7363C111.705 38.834 111.402 38.9154 111.09 38.9805C110.784 39.0456 110.478 39.0944 110.172 39.127C109.866 39.1595 109.57 39.1758 109.283 39.1758C108.411 39.1758 107.623 39.0391 106.92 38.7656C106.223 38.4922 105.628 38.0885 105.133 37.5547C104.645 37.0143 104.267 36.3438 104 35.543C103.74 34.7422 103.609 33.8145 103.609 32.7598C103.609 31.7116 103.756 30.7741 104.049 29.9473C104.342 29.1139 104.752 28.4108 105.279 27.8379C105.813 27.2585 106.451 26.819 107.193 26.5195C107.942 26.2135 108.766 26.0605 109.664 26.0605C110.237 26.0605 110.781 26.1126 111.295 26.2168C111.816 26.3145 112.314 26.474 112.789 26.6953V28.4238ZM123.678 38.5215C122.656 38.9447 121.585 39.1562 120.465 39.1562C118.661 39.1562 117.275 38.6191 116.305 37.5449C115.341 36.4642 114.859 34.8691 114.859 32.7598C114.859 31.7376 114.993 30.8132 115.26 29.9863C115.527 29.1595 115.908 28.4596 116.402 27.8867C116.897 27.3073 117.496 26.8613 118.199 26.5488C118.902 26.2363 119.69 26.0801 120.562 26.0801C121.155 26.0801 121.705 26.1322 122.213 26.2363C122.721 26.334 123.209 26.487 123.678 26.6953V28.4043C123.215 28.1504 122.737 27.9583 122.242 27.8281C121.747 27.6914 121.207 27.623 120.621 27.623C120.022 27.623 119.479 27.737 118.99 27.9648C118.508 28.1862 118.098 28.5117 117.76 28.9414C117.421 29.3646 117.161 29.8854 116.979 30.5039C116.796 31.1159 116.705 31.8158 116.705 32.6035C116.705 34.2572 117.04 35.5039 117.711 36.3438C118.382 37.1836 119.365 37.6035 120.66 37.6035C121.207 37.6035 121.731 37.5417 122.232 37.418C122.734 37.2878 123.215 37.1087 123.678 36.8809V38.5215ZM134.781 28.4238C134.306 28.1699 133.818 27.9746 133.316 27.8379C132.815 27.6947 132.268 27.623 131.676 27.623C130.999 27.623 130.396 27.7435 129.869 27.9844C129.342 28.2253 128.896 28.5671 128.531 29.0098C128.173 29.446 127.896 29.9733 127.701 30.5918C127.512 31.2103 127.418 31.8939 127.418 32.6426C127.418 33.4238 127.496 34.1237 127.652 34.7422C127.809 35.3607 128.053 35.8848 128.385 36.3145C128.717 36.7441 129.14 37.0729 129.654 37.3008C130.175 37.5286 130.797 37.6426 131.52 37.6426C131.643 37.6426 131.777 37.6361 131.92 37.623C132.063 37.61 132.206 37.5938 132.35 37.5742C132.493 37.5482 132.63 37.5189 132.76 37.4863C132.896 37.4538 133.017 37.418 133.121 37.3789V33.3164H130.514V31.8809H134.84V38.4043C134.573 38.528 134.29 38.6387 133.99 38.7363C133.697 38.834 133.395 38.9154 133.082 38.9805C132.776 39.0456 132.47 39.0944 132.164 39.127C131.858 39.1595 131.562 39.1758 131.275 39.1758C130.403 39.1758 129.615 39.0391 128.912 38.7656C128.215 38.4922 127.62 38.0885 127.125 37.5547C126.637 37.0143 126.259 36.3438 125.992 35.543C125.732 34.7422 125.602 33.8145 125.602 32.7598C125.602 31.7116 125.748 30.7741 126.041 29.9473C126.334 29.1139 126.744 28.4108 127.271 27.8379C127.805 27.2585 128.443 26.819 129.186 26.5195C129.934 26.2135 130.758 26.0605 131.656 26.0605C132.229 26.0605 132.773 26.1126 133.287 26.2168C133.808 26.3145 134.306 26.474 134.781 26.6953V28.4238Z" fill="#C9D1D9"/>
</g>
<defs>
<filter id="filter0_d" x="0.839844" y="3.06055" width="358.938" height="44.1152" filterUnits="userSpaceOnUse" color-interpolation-filters="sRGB">
<feFlood flood-opacity="0" result="BackgroundImageFix"/>
<feColorMatrix in="SourceAlpha" type="matrix" values="0 0 0 0 0 0 0 0 0 0 0 0 0 0 0 0 0 0 127 0"/>
<feOffset dy="4"/>
<feGaussianBlur stdDeviation="2"/>
<feColorMatrix type="matrix" values="0 0 0 0 0 0 0 0 0 0 0 0 0 0 0 0 0 0 0.25 0"/>
<feBlend mode="normal" in2="BackgroundImageFix" result="effect1_dropShadow"/>
<feBlend mode="normal" in="SourceGraphic" in2="effect1_dropShadow" result="shape"/>
</filter>
</defs>
</svg>
