<svg width="408" height="163" viewBox="0 0 408 163" fill="none" xmlns="http://www.w3.org/2000/svg">
<g filter="url(#filter0_d)">
<circle cx="182" cy="122" r="10.5" stroke="#C9D1D9"/>
</g>
<g filter="url(#filter1_d)">
<circle cx="182" cy="144" r="10.5" stroke="#C9D1D9"/>
</g>
<g filter="url(#filter2_d)">
<path d="M101.094 21.5C101.094 21.9167 101.216 22.2188 101.461 22.4062C101.706 22.5938 102.099 22.6875 102.641 22.6875C103.182 22.6875 103.641 22.5755 104.016 22.3516V17.2031C103.609 17.0104 103.151 16.9141 102.641 16.9141C102.13 16.9141 101.745 17.0052 101.484 17.1875C101.224 17.3646 101.094 17.6589 101.094 18.0703V21.5ZM102.305 24.1797C101.19 24.1797 100.354 23.9453 99.7969 23.4766C99.2448 23.0026 98.9688 22.3333 98.9688 21.4688V18.1172C98.9688 17.2995 99.2552 16.6484 99.8281 16.1641C100.406 15.6745 101.281 15.4297 102.453 15.4297C102.953 15.4297 103.474 15.5286 104.016 15.7266V12.1562H106.141V24H104.703L104.477 23.5078C103.836 23.9557 103.112 24.1797 102.305 24.1797ZM111.477 24.1797C110.154 24.1797 109.062 23.9609 108.203 23.5234L108.633 22.0781C109.612 22.4948 110.534 22.7031 111.398 22.7031C112.06 22.7031 112.435 22.4089 112.523 21.8203C112.534 21.7474 112.539 21.6797 112.539 21.6172C112.539 21.1953 112.302 20.9089 111.828 20.7578L109.984 20.1797C109.354 19.9818 108.906 19.6849 108.641 19.2891C108.38 18.8932 108.25 18.4115 108.25 17.8438C108.25 17.8229 108.25 17.8021 108.25 17.7812C108.26 16.2135 109.333 15.4297 111.469 15.4297C112.521 15.4297 113.464 15.6667 114.297 16.1406L113.797 17.4609C113.531 17.3203 113.169 17.1953 112.711 17.0859C112.258 16.9714 111.831 16.9141 111.43 16.9141C111.029 16.9141 110.737 16.987 110.555 17.1328C110.372 17.2734 110.281 17.5182 110.281 17.8672C110.281 18.2109 110.474 18.4427 110.859 18.5625L112.594 19.1094C113.286 19.3281 113.773 19.6354 114.055 20.0312C114.341 20.4271 114.484 20.9792 114.484 21.6875C114.484 22.3958 114.224 22.9896 113.703 23.4688C113.182 23.9427 112.44 24.1797 111.477 24.1797ZM117.125 17.6094V15.7188H119.125V17.6094H117.125ZM117.125 23.2266V21.3359H119.125V23.2266H117.125ZM130.047 22.9062C130.635 22.9062 131.068 22.8099 131.344 22.6172C131.495 22.513 131.625 22.4062 131.734 22.2969C132.104 21.9271 132.289 21.0625 132.289 19.7031V17.5C132.289 16.5833 132.253 15.9323 132.18 15.5469C131.966 14.3802 131.299 13.7969 130.18 13.7969C129.211 13.7969 128.557 14.0938 128.219 14.6875C128.01 15.0521 127.878 15.4661 127.82 15.9297C127.763 16.388 127.734 16.9531 127.734 17.625V19.1641C127.734 20.2786 127.812 21.0677 127.969 21.5312C128.281 22.4479 128.974 22.9062 130.047 22.9062ZM132.016 23.7812C131.776 23.8958 131.492 23.9896 131.164 24.0625C130.836 24.1354 130.44 24.1719 129.977 24.1719C129.518 24.1719 129.083 24.1146 128.672 24C127.875 23.776 127.299 23.401 126.945 22.875C126.596 22.3438 126.378 21.7656 126.289 21.1406C126.201 20.5156 126.156 19.8125 126.156 19.0312V17.8281C126.156 16.7344 126.198 15.9974 126.281 15.6172C126.458 14.8255 126.659 14.2682 126.883 13.9453C127.539 13.0026 128.536 12.5312 129.875 12.5312C131.469 12.5312 132.542 12.9922 133.094 13.9141C133.432 14.4714 133.643 15.0703 133.727 15.7109C133.815 16.3516 133.859 17.0911 133.859 17.9297V18.9219C133.859 19.974 133.818 20.6927 133.734 21.0781C133.656 21.4635 133.57 21.7917 133.477 22.0625C133.388 22.3333 133.279 22.5651 133.148 22.7578C133.023 22.9453 132.865 23.1354 132.672 23.3281C132.479 23.5156 132.26 23.6667 132.016 23.7812ZM137.055 26.6406L136.422 26.2969C136.932 25.6823 137.255 25.1562 137.391 24.7188C137.464 24.4792 137.497 24.2396 137.492 24H136.391V22.1797H138.398V23.6094C138.398 24.5104 138.086 25.3698 137.461 26.1875C137.326 26.3646 137.19 26.5156 137.055 26.6406ZM148.023 24.0938C147.06 24.0938 146.346 23.875 145.883 23.4375C145.419 23 145.188 22.2682 145.188 21.2422V12.1641H147.312V21.2109C147.312 21.6797 147.422 22.0156 147.641 22.2188C147.859 22.4167 148.25 22.5156 148.812 22.5156H149.078L148.914 24.0938H148.023ZM150.703 24V12.1562H152.828V19.2969L156.148 15.6094H158.57L155.414 19.2266L158.711 24H156.391L153.766 20.1172L152.828 21.0781V24H150.703ZM160.812 17.6094V15.7188H162.812V17.6094H160.812ZM160.812 23.2266V21.3359H162.812V23.2266H160.812ZM175.32 12.7031L172.531 17.4297C172.969 17.237 173.432 17.1406 173.922 17.1406C175.13 17.1406 176.055 17.4245 176.695 17.9922C177.336 18.5547 177.656 19.4583 177.656 20.7031C177.656 22.4427 176.896 23.5339 175.375 23.9766C174.927 24.1068 174.424 24.1719 173.867 24.1719C172.732 24.1719 171.836 23.888 171.18 23.3203C170.529 22.7526 170.203 21.8854 170.203 20.7188C170.203 19.5521 170.57 18.3099 171.305 16.9922L173.758 12.7031H175.32ZM173.883 18.4141C173.143 18.4141 172.589 18.5859 172.219 18.9297C171.849 19.2682 171.664 19.8568 171.664 20.6953C171.664 21.5286 171.844 22.1068 172.203 22.4297C172.568 22.7474 173.13 22.9062 173.891 22.9062C174.656 22.9062 175.232 22.7474 175.617 22.4297C176.003 22.1068 176.195 21.5078 176.195 20.6328C176.195 19.7526 175.995 19.1641 175.594 18.8672C175.193 18.5651 174.622 18.4141 173.883 18.4141ZM183.844 20.1406V18.9844H189.312V20.1406H183.844ZM192.203 24V22.4141L197.914 19.5391L192.203 16.6953V15.0625L199.125 18.7422V20.3125L192.203 24ZM208.461 24.0938C207.497 24.0938 206.784 23.875 206.32 23.4375C205.857 23 205.625 22.2682 205.625 21.2422V12.1641H207.75V21.2109C207.75 21.6797 207.859 22.0156 208.078 22.2188C208.297 22.4167 208.688 22.5156 209.25 22.5156H209.516L209.352 24.0938H208.461ZM214.484 24.1797C212.057 24.1797 210.844 23.2734 210.844 21.4609V18.1562C210.844 17.2969 211.161 16.6276 211.797 16.1484C212.438 15.6693 213.331 15.4297 214.477 15.4297C215.628 15.4297 216.523 15.6719 217.164 16.1562C217.805 16.6354 218.125 17.3021 218.125 18.1562V21.4609C218.125 22.8099 217.484 23.6536 216.203 23.9922C215.724 24.1172 215.151 24.1797 214.484 24.1797ZM214.484 22.7031C215.495 22.7031 216 22.3203 216 21.5547V18.0625C216 17.651 215.872 17.3568 215.617 17.1797C215.362 17.0026 214.984 16.9141 214.484 16.9141C213.474 16.9141 212.969 17.2969 212.969 18.0625V21.5547C212.969 21.9661 213.094 22.2604 213.344 22.4375C213.599 22.6146 213.979 22.7031 214.484 22.7031ZM222.391 13.9922L220.656 11.6484H222.023L223.023 13.0156L224.086 11.6484H225.492L223.664 13.9922H222.391ZM223.211 24.1797C221.888 24.1797 220.797 23.9609 219.938 23.5234L220.367 22.0781C221.346 22.4948 222.268 22.7031 223.133 22.7031C223.794 22.7031 224.169 22.4089 224.258 21.8203C224.268 21.7474 224.273 21.6797 224.273 21.6172C224.273 21.1953 224.036 20.9089 223.562 20.7578L221.719 20.1797C221.089 19.9818 220.641 19.6849 220.375 19.2891C220.115 18.8932 219.984 18.4115 219.984 17.8438C219.984 17.8229 219.984 17.8021 219.984 17.7812C219.995 16.2135 221.068 15.4297 223.203 15.4297C224.255 15.4297 225.198 15.6667 226.031 16.1406L225.531 17.4609C225.266 17.3203 224.904 17.1953 224.445 17.0859C223.992 16.9714 223.565 16.9141 223.164 16.9141C222.763 16.9141 222.471 16.987 222.289 17.1328C222.107 17.2734 222.016 17.5182 222.016 17.8672C222.016 18.2109 222.208 18.4427 222.594 18.5625L224.328 19.1094C225.021 19.3281 225.508 19.6354 225.789 20.0312C226.076 20.4271 226.219 20.9792 226.219 21.6875C226.219 22.3958 225.958 22.9896 225.438 23.4688C224.917 23.9427 224.174 24.1797 223.211 24.1797ZM232.156 24V12.1562H234.281V19.2969L237.602 15.6094H240.023L236.867 19.2266L240.164 24H237.844L235.219 20.1172L234.281 21.0781V24H232.156ZM243.258 21.7031C243.258 22.375 243.622 22.7109 244.352 22.7109C244.638 22.7109 244.94 22.6354 245.258 22.4844C245.576 22.3333 245.826 22.1198 246.008 21.8438V19.75C245.758 19.9531 245.318 20.1719 244.688 20.4062C244.057 20.6354 243.661 20.849 243.5 21.0469C243.339 21.2396 243.258 21.4583 243.258 21.7031ZM246.18 23.0703C245.935 23.388 245.583 23.6536 245.125 23.8672C244.672 24.0755 244.12 24.1797 243.469 24.1797C242.818 24.1797 242.266 23.9688 241.812 23.5469C241.365 23.125 241.141 22.5859 241.141 21.9297C241.141 21.2734 241.344 20.7474 241.75 20.3516C242.161 19.9557 242.945 19.5755 244.102 19.2109C244.805 18.987 245.297 18.7865 245.578 18.6094C245.865 18.4323 246.008 18.1875 246.008 17.875C246.008 17.2292 245.568 16.9089 244.688 16.9141C244.193 16.9141 243.852 17.0104 243.664 17.2031C243.477 17.3906 243.383 17.6641 243.383 18.0234V18.3516H241.391V18.1016C241.391 17.263 241.669 16.6094 242.227 16.1406C242.784 15.6667 243.641 15.4297 244.797 15.4297C245.953 15.4297 246.792 15.6745 247.312 16.1641C247.839 16.6536 248.102 17.3568 248.102 18.2734V21.5938C248.102 21.9688 248.148 22.2161 248.242 22.3359C248.336 22.4557 248.516 22.5156 248.781 22.5156L248.695 24.0625H248.25C247.672 24.0625 247.221 23.9844 246.898 23.8281C246.576 23.6667 246.336 23.4141 246.18 23.0703ZM250.688 24V15.6094H252.812V16.6094C252.938 16.3698 253.198 16.1562 253.594 15.9688C254.276 15.6406 254.935 15.4766 255.57 15.4766C255.643 15.4766 255.711 15.4792 255.773 15.4844L255.727 17.2891C254.794 17.3359 254.021 17.5104 253.406 17.8125C253.062 17.9792 252.865 18.1667 252.812 18.375V24H250.688ZM258.93 21.7031C258.93 22.375 259.294 22.7109 260.023 22.7109C260.31 22.7109 260.612 22.6354 260.93 22.4844C261.247 22.3333 261.497 22.1198 261.68 21.8438V19.75C261.43 19.9531 260.99 20.1719 260.359 20.4062C259.729 20.6354 259.333 20.849 259.172 21.0469C259.01 21.2396 258.93 21.4583 258.93 21.7031ZM261.852 23.0703C261.607 23.388 261.255 23.6536 260.797 23.8672C260.344 24.0755 259.792 24.1797 259.141 24.1797C258.49 24.1797 257.938 23.9688 257.484 23.5469C257.036 23.125 256.812 22.5859 256.812 21.9297C256.812 21.2734 257.016 20.7474 257.422 20.3516C257.833 19.9557 258.617 19.5755 259.773 19.2109C260.477 18.987 260.969 18.7865 261.25 18.6094C261.536 18.4323 261.68 18.1875 261.68 17.875C261.68 17.2292 261.24 16.9089 260.359 16.9141C259.865 16.9141 259.523 17.0104 259.336 17.2031C259.148 17.3906 259.055 17.6641 259.055 18.0234V18.3516H257.062V18.1016C257.062 17.263 257.341 16.6094 257.898 16.1406C258.456 15.6667 259.312 15.4297 260.469 15.4297C261.625 15.4297 262.464 15.6745 262.984 16.1641C263.51 16.6536 263.773 17.3568 263.773 18.2734V21.5938C263.773 21.9688 263.82 22.2161 263.914 22.3359C264.008 22.4557 264.188 22.5156 264.453 22.5156L264.367 24.0625H263.922C263.344 24.0625 262.893 23.9844 262.57 23.8281C262.247 23.6667 262.008 23.4141 261.852 23.0703ZM266.375 24V12.1562H268.5V19.2969L271.82 15.6094H274.242L271.086 19.2266L274.383 24H272.062L269.438 20.1172L268.5 21.0781V24H266.375ZM279.672 24.0938C278.396 24.0938 277.482 23.901 276.93 23.5156C276.378 23.1302 276.102 22.4036 276.102 21.3359V16.9609H274.984V15.6094H276.164L276.359 12.9141H278.227V15.6094H280.219V16.9609H278.227V21.1875C278.227 21.7083 278.349 22.0599 278.594 22.2422C278.844 22.4245 279.32 22.5156 280.023 22.5156H280.273L280.195 24.0938H279.672ZM283.938 18.9141H286.953V17.9297C286.953 17.4245 286.75 17.1146 286.344 17C286.13 16.9375 285.805 16.9089 285.367 16.9141C284.935 16.9141 284.589 16.987 284.328 17.1328C284.068 17.2786 283.938 17.5573 283.938 17.9688V18.9141ZM283.984 24.0391C283.568 23.9505 283.193 23.8021 282.859 23.5938C282.161 23.1667 281.812 22.4271 281.812 21.375V18.1016C281.812 17.2578 282.133 16.6016 282.773 16.1328C283.414 15.6641 284.286 15.4297 285.391 15.4297C287.771 15.4297 288.961 16.3464 288.961 18.1797V20.2109H283.938V21.5781C283.938 22.0417 284.052 22.3464 284.281 22.4922C284.51 22.6328 284.898 22.7031 285.445 22.7031C285.992 22.7031 286.315 22.6771 286.414 22.625C286.648 22.4948 286.799 22.3385 286.867 22.1562C286.935 21.9688 286.974 21.724 286.984 21.4219H288.953C288.922 22.7135 288.466 23.5312 287.586 23.875C287.07 24.0729 286.445 24.1719 285.711 24.1719C284.977 24.1771 284.401 24.1328 283.984 24.0391ZM291.078 24V15.6094H293.203V16.6094C293.328 16.3698 293.589 16.1562 293.984 15.9688C294.667 15.6406 295.326 15.4766 295.961 15.4766C296.034 15.4766 296.102 15.4792 296.164 15.4844L296.117 17.2891C295.185 17.3359 294.411 17.5104 293.797 17.8125C293.453 17.9792 293.255 18.1667 293.203 18.375V24H291.078Z" fill="#C9D1D9"/>
<path d="M153.817 2.93505C147.4 6.79575 135.426 12.0949 138.494 20.5449C140.426 25.8665 146.856 29.7022 152.958 30.7513C163.622 32.5845 183.82 24.0334 183.999 13.3242C184.087 8.08314 176.185 2.6314 170.645 1.53359C159.298 -0.714912 150.637 4.52777 142.217 10.0643" stroke="#0738E8" stroke-linecap="round" stroke-linejoin="round"/>
</g>
<path d="M66.1562 116.721H62.377V128H60.6191V116.721H56.8398V115.236H66.1562V116.721ZM72.4941 118.02C72.696 118.02 72.888 118.062 73.0703 118.146C73.2526 118.225 73.4121 118.332 73.5488 118.469C73.6855 118.605 73.793 118.765 73.8711 118.947C73.9557 119.13 73.998 119.322 73.998 119.523C73.998 119.732 73.9557 119.927 73.8711 120.109C73.793 120.285 73.6855 120.441 73.5488 120.578C73.4121 120.715 73.2526 120.822 73.0703 120.9C72.888 120.979 72.696 121.018 72.4941 121.018C72.2858 121.018 72.0905 120.979 71.9082 120.9C71.7324 120.822 71.5762 120.715 71.4395 120.578C71.3027 120.441 71.1953 120.285 71.1172 120.109C71.0391 119.927 71 119.732 71 119.523C71 119.322 71.0391 119.13 71.1172 118.947C71.1953 118.765 71.3027 118.605 71.4395 118.469C71.5762 118.332 71.7324 118.225 71.9082 118.146C72.0905 118.062 72.2858 118.02 72.4941 118.02ZM72.4941 125.178C72.696 125.178 72.888 125.22 73.0703 125.305C73.2526 125.383 73.4121 125.49 73.5488 125.627C73.6855 125.764 73.793 125.923 73.8711 126.105C73.9557 126.288 73.998 126.48 73.998 126.682C73.998 126.89 73.9557 127.085 73.8711 127.268C73.793 127.443 73.6855 127.6 73.5488 127.736C73.4121 127.873 73.2526 127.98 73.0703 128.059C72.888 128.137 72.696 128.176 72.4941 128.176C72.2858 128.176 72.0905 128.137 71.9082 128.059C71.7324 127.98 71.5762 127.873 71.4395 127.736C71.3027 127.6 71.1953 127.443 71.1172 127.268C71.0391 127.085 71 126.89 71 126.682C71 126.48 71.0391 126.288 71.1172 126.105C71.1953 125.923 71.3027 125.764 71.4395 125.627C71.5762 125.49 71.7324 125.383 71.9082 125.305C72.0905 125.22 72.2858 125.178 72.4941 125.178ZM98.8125 117.424C98.3372 117.17 97.849 116.975 97.3477 116.838C96.8464 116.695 96.2995 116.623 95.707 116.623C95.0299 116.623 94.4277 116.743 93.9004 116.984C93.373 117.225 92.9271 117.567 92.5625 118.01C92.2044 118.446 91.9277 118.973 91.7324 119.592C91.5436 120.21 91.4492 120.894 91.4492 121.643C91.4492 122.424 91.5273 123.124 91.6836 123.742C91.8398 124.361 92.084 124.885 92.416 125.314C92.748 125.744 93.1712 126.073 93.6855 126.301C94.2064 126.529 94.8281 126.643 95.5508 126.643C95.6745 126.643 95.8079 126.636 95.9512 126.623C96.0944 126.61 96.2376 126.594 96.3809 126.574C96.5241 126.548 96.6608 126.519 96.791 126.486C96.9277 126.454 97.0482 126.418 97.1523 126.379V122.316H94.5449V120.881H98.8711V127.404C98.6042 127.528 98.321 127.639 98.0215 127.736C97.7285 127.834 97.4258 127.915 97.1133 127.98C96.8073 128.046 96.5013 128.094 96.1953 128.127C95.8893 128.16 95.5931 128.176 95.3066 128.176C94.4342 128.176 93.6465 128.039 92.9434 127.766C92.2467 127.492 91.651 127.089 91.1562 126.555C90.668 126.014 90.2904 125.344 90.0234 124.543C89.763 123.742 89.6328 122.814 89.6328 121.76C89.6328 120.712 89.7793 119.774 90.0723 118.947C90.3652 118.114 90.7754 117.411 91.3027 116.838C91.8366 116.258 92.4746 115.819 93.2168 115.52C93.9655 115.214 94.7891 115.061 95.6875 115.061C96.2604 115.061 96.804 115.113 97.3184 115.217C97.8392 115.314 98.3372 115.474 98.8125 115.695V117.424ZM110.141 116.721H106.361V128H104.604V116.721H100.824V115.236H110.141V116.721ZM121.137 116.721H117.357V128H115.6V116.721H111.82V115.236H121.137V116.721ZM132.875 128H130.98L130.092 125.217H124.779L123.881 128H122.074L126.312 115.236H128.695L132.875 128ZM129.594 123.664L127.436 116.838L125.277 123.664H129.594ZM143.129 116.721H139.35V128H137.592V116.721H133.812V115.236H143.129V116.721ZM154.867 128H152.973L152.084 125.217H146.771L145.873 128H144.066L148.305 115.236H150.688L154.867 128ZM151.586 123.664L149.428 116.838L147.27 123.664H151.586ZM164.789 117.424C164.314 117.17 163.826 116.975 163.324 116.838C162.823 116.695 162.276 116.623 161.684 116.623C161.007 116.623 160.404 116.743 159.877 116.984C159.35 117.225 158.904 117.567 158.539 118.01C158.181 118.446 157.904 118.973 157.709 119.592C157.52 120.21 157.426 120.894 157.426 121.643C157.426 122.424 157.504 123.124 157.66 123.742C157.816 124.361 158.061 124.885 158.393 125.314C158.725 125.744 159.148 126.073 159.662 126.301C160.183 126.529 160.805 126.643 161.527 126.643C161.651 126.643 161.785 126.636 161.928 126.623C162.071 126.61 162.214 126.594 162.357 126.574C162.501 126.548 162.637 126.519 162.768 126.486C162.904 126.454 163.025 126.418 163.129 126.379V122.316H160.521V120.881H164.848V127.404C164.581 127.528 164.298 127.639 163.998 127.736C163.705 127.834 163.402 127.915 163.09 127.98C162.784 128.046 162.478 128.094 162.172 128.127C161.866 128.16 161.57 128.176 161.283 128.176C160.411 128.176 159.623 128.039 158.92 127.766C158.223 127.492 157.628 127.089 157.133 126.555C156.645 126.014 156.267 125.344 156 124.543C155.74 123.742 155.609 122.814 155.609 121.76C155.609 120.712 155.756 119.774 156.049 118.947C156.342 118.114 156.752 117.411 157.279 116.838C157.813 116.258 158.451 115.819 159.193 115.52C159.942 115.214 160.766 115.061 161.664 115.061C162.237 115.061 162.781 115.113 163.295 115.217C163.816 115.314 164.314 115.474 164.789 115.695V117.424ZM175.678 127.521C174.656 127.945 173.585 128.156 172.465 128.156C170.661 128.156 169.275 127.619 168.305 126.545C167.341 125.464 166.859 123.869 166.859 121.76C166.859 120.738 166.993 119.813 167.26 118.986C167.527 118.16 167.908 117.46 168.402 116.887C168.897 116.307 169.496 115.861 170.199 115.549C170.902 115.236 171.69 115.08 172.562 115.08C173.155 115.08 173.705 115.132 174.213 115.236C174.721 115.334 175.209 115.487 175.678 115.695V117.404C175.215 117.15 174.737 116.958 174.242 116.828C173.747 116.691 173.207 116.623 172.621 116.623C172.022 116.623 171.479 116.737 170.99 116.965C170.508 117.186 170.098 117.512 169.76 117.941C169.421 118.365 169.161 118.885 168.979 119.504C168.796 120.116 168.705 120.816 168.705 121.604C168.705 123.257 169.04 124.504 169.711 125.344C170.382 126.184 171.365 126.604 172.66 126.604C173.207 126.604 173.731 126.542 174.232 126.418C174.734 126.288 175.215 126.109 175.678 125.881V127.521ZM187.113 116.721H183.334V128H181.576V116.721H177.797V115.236H187.113V116.721ZM197.777 117.424C197.302 117.17 196.814 116.975 196.312 116.838C195.811 116.695 195.264 116.623 194.672 116.623C193.995 116.623 193.393 116.743 192.865 116.984C192.338 117.225 191.892 117.567 191.527 118.01C191.169 118.446 190.893 118.973 190.697 119.592C190.508 120.21 190.414 120.894 190.414 121.643C190.414 122.424 190.492 123.124 190.648 123.742C190.805 124.361 191.049 124.885 191.381 125.314C191.713 125.744 192.136 126.073 192.65 126.301C193.171 126.529 193.793 126.643 194.516 126.643C194.639 126.643 194.773 126.636 194.916 126.623C195.059 126.61 195.202 126.594 195.346 126.574C195.489 126.548 195.626 126.519 195.756 126.486C195.893 126.454 196.013 126.418 196.117 126.379V122.316H193.51V120.881H197.836V127.404C197.569 127.528 197.286 127.639 196.986 127.736C196.693 127.834 196.391 127.915 196.078 127.98C195.772 128.046 195.466 128.094 195.16 128.127C194.854 128.16 194.558 128.176 194.271 128.176C193.399 128.176 192.611 128.039 191.908 127.766C191.212 127.492 190.616 127.089 190.121 126.555C189.633 126.014 189.255 125.344 188.988 124.543C188.728 123.742 188.598 122.814 188.598 121.76C188.598 120.712 188.744 119.774 189.037 118.947C189.33 118.114 189.74 117.411 190.268 116.838C190.801 116.258 191.439 115.819 192.182 115.52C192.93 115.214 193.754 115.061 194.652 115.061C195.225 115.061 195.769 115.113 196.283 115.217C196.804 115.314 197.302 115.474 197.777 115.695V117.424ZM209.848 128H207.953L207.064 125.217H201.752L200.854 128H199.047L203.285 115.236H205.668L209.848 128ZM206.566 123.664L204.408 116.838L202.25 123.664H206.566ZM220.102 116.721H216.322V128H214.564V116.721H210.785V115.236H220.102V116.721ZM230.658 127.521C229.636 127.945 228.565 128.156 227.445 128.156C225.642 128.156 224.255 127.619 223.285 126.545C222.322 125.464 221.84 123.869 221.84 121.76C221.84 120.738 221.973 119.813 222.24 118.986C222.507 118.16 222.888 117.46 223.383 116.887C223.878 116.307 224.477 115.861 225.18 115.549C225.883 115.236 226.671 115.08 227.543 115.08C228.135 115.08 228.686 115.132 229.193 115.236C229.701 115.334 230.189 115.487 230.658 115.695V117.404C230.196 117.15 229.717 116.958 229.223 116.828C228.728 116.691 228.188 116.623 227.602 116.623C227.003 116.623 226.459 116.737 225.971 116.965C225.489 117.186 225.079 117.512 224.74 117.941C224.402 118.365 224.141 118.885 223.959 119.504C223.777 120.116 223.686 120.816 223.686 121.604C223.686 123.257 224.021 124.504 224.691 125.344C225.362 126.184 226.345 126.604 227.641 126.604C228.188 126.604 228.712 126.542 229.213 126.418C229.714 126.288 230.196 126.109 230.658 125.881V127.521ZM241.762 117.424C241.286 117.17 240.798 116.975 240.297 116.838C239.796 116.695 239.249 116.623 238.656 116.623C237.979 116.623 237.377 116.743 236.85 116.984C236.322 117.225 235.876 117.567 235.512 118.01C235.154 118.446 234.877 118.973 234.682 119.592C234.493 120.21 234.398 120.894 234.398 121.643C234.398 122.424 234.477 123.124 234.633 123.742C234.789 124.361 235.033 124.885 235.365 125.314C235.697 125.744 236.12 126.073 236.635 126.301C237.156 126.529 237.777 126.643 238.5 126.643C238.624 126.643 238.757 126.636 238.9 126.623C239.044 126.61 239.187 126.594 239.33 126.574C239.473 126.548 239.61 126.519 239.74 126.486C239.877 126.454 239.997 126.418 240.102 126.379V122.316H237.494V120.881H241.82V127.404C241.553 127.528 241.27 127.639 240.971 127.736C240.678 127.834 240.375 127.915 240.062 127.98C239.757 128.046 239.451 128.094 239.145 128.127C238.839 128.16 238.542 128.176 238.256 128.176C237.383 128.176 236.596 128.039 235.893 127.766C235.196 127.492 234.6 127.089 234.105 126.555C233.617 126.014 233.24 125.344 232.973 124.543C232.712 123.742 232.582 122.814 232.582 121.76C232.582 120.712 232.729 119.774 233.021 118.947C233.314 118.114 233.725 117.411 234.252 116.838C234.786 116.258 235.424 115.819 236.166 115.52C236.915 115.214 237.738 115.061 238.637 115.061C239.21 115.061 239.753 115.113 240.268 115.217C240.788 115.314 241.286 115.474 241.762 115.695V117.424ZM252.65 127.521C251.628 127.945 250.557 128.156 249.438 128.156C247.634 128.156 246.247 127.619 245.277 126.545C244.314 125.464 243.832 123.869 243.832 121.76C243.832 120.738 243.965 119.813 244.232 118.986C244.499 118.16 244.88 117.46 245.375 116.887C245.87 116.307 246.469 115.861 247.172 115.549C247.875 115.236 248.663 115.08 249.535 115.08C250.128 115.08 250.678 115.132 251.186 115.236C251.693 115.334 252.182 115.487 252.65 115.695V117.404C252.188 117.15 251.71 116.958 251.215 116.828C250.72 116.691 250.18 116.623 249.594 116.623C248.995 116.623 248.451 116.737 247.963 116.965C247.481 117.186 247.071 117.512 246.732 117.941C246.394 118.365 246.133 118.885 245.951 119.504C245.769 120.116 245.678 120.816 245.678 121.604C245.678 123.257 246.013 124.504 246.684 125.344C247.354 126.184 248.337 126.604 249.633 126.604C250.18 126.604 250.704 126.542 251.205 126.418C251.706 126.288 252.188 126.109 252.65 125.881V127.521ZM263.754 117.424C263.279 117.17 262.79 116.975 262.289 116.838C261.788 116.695 261.241 116.623 260.648 116.623C259.971 116.623 259.369 116.743 258.842 116.984C258.314 117.225 257.868 117.567 257.504 118.01C257.146 118.446 256.869 118.973 256.674 119.592C256.485 120.21 256.391 120.894 256.391 121.643C256.391 122.424 256.469 123.124 256.625 123.742C256.781 124.361 257.025 124.885 257.357 125.314C257.689 125.744 258.113 126.073 258.627 126.301C259.148 126.529 259.77 126.643 260.492 126.643C260.616 126.643 260.749 126.636 260.893 126.623C261.036 126.61 261.179 126.594 261.322 126.574C261.465 126.548 261.602 126.519 261.732 126.486C261.869 126.454 261.99 126.418 262.094 126.379V122.316H259.486V120.881H263.812V127.404C263.546 127.528 263.262 127.639 262.963 127.736C262.67 127.834 262.367 127.915 262.055 127.98C261.749 128.046 261.443 128.094 261.137 128.127C260.831 128.16 260.535 128.176 260.248 128.176C259.376 128.176 258.588 128.039 257.885 127.766C257.188 127.492 256.592 127.089 256.098 126.555C255.609 126.014 255.232 125.344 254.965 124.543C254.704 123.742 254.574 122.814 254.574 121.76C254.574 120.712 254.721 119.774 255.014 118.947C255.307 118.114 255.717 117.411 256.244 116.838C256.778 116.258 257.416 115.819 258.158 115.52C258.907 115.214 259.73 115.061 260.629 115.061C261.202 115.061 261.745 115.113 262.26 115.217C262.781 115.314 263.279 115.474 263.754 115.695V117.424ZM274.75 117.424C274.275 117.17 273.786 116.975 273.285 116.838C272.784 116.695 272.237 116.623 271.645 116.623C270.967 116.623 270.365 116.743 269.838 116.984C269.311 117.225 268.865 117.567 268.5 118.01C268.142 118.446 267.865 118.973 267.67 119.592C267.481 120.21 267.387 120.894 267.387 121.643C267.387 122.424 267.465 123.124 267.621 123.742C267.777 124.361 268.021 124.885 268.354 125.314C268.686 125.744 269.109 126.073 269.623 126.301C270.144 126.529 270.766 126.643 271.488 126.643C271.612 126.643 271.745 126.636 271.889 126.623C272.032 126.61 272.175 126.594 272.318 126.574C272.462 126.548 272.598 126.519 272.729 126.486C272.865 126.454 272.986 126.418 273.09 126.379V122.316H270.482V120.881H274.809V127.404C274.542 127.528 274.258 127.639 273.959 127.736C273.666 127.834 273.363 127.915 273.051 127.98C272.745 128.046 272.439 128.094 272.133 128.127C271.827 128.16 271.531 128.176 271.244 128.176C270.372 128.176 269.584 128.039 268.881 127.766C268.184 127.492 267.589 127.089 267.094 126.555C266.605 126.014 266.228 125.344 265.961 124.543C265.701 123.742 265.57 122.814 265.57 121.76C265.57 120.712 265.717 119.774 266.01 118.947C266.303 118.114 266.713 117.411 267.24 116.838C267.774 116.258 268.412 115.819 269.154 115.52C269.903 115.214 270.727 115.061 271.625 115.061C272.198 115.061 272.742 115.113 273.256 115.217C273.777 115.314 274.275 115.474 274.75 115.695V117.424ZM285.639 127.521C284.617 127.945 283.546 128.156 282.426 128.156C280.622 128.156 279.236 127.619 278.266 126.545C277.302 125.464 276.82 123.869 276.82 121.76C276.82 120.738 276.954 119.813 277.221 118.986C277.488 118.16 277.868 117.46 278.363 116.887C278.858 116.307 279.457 115.861 280.16 115.549C280.863 115.236 281.651 115.08 282.523 115.08C283.116 115.08 283.666 115.132 284.174 115.236C284.682 115.334 285.17 115.487 285.639 115.695V117.404C285.176 117.15 284.698 116.958 284.203 116.828C283.708 116.691 283.168 116.623 282.582 116.623C281.983 116.623 281.439 116.737 280.951 116.965C280.469 117.186 280.059 117.512 279.721 117.941C279.382 118.365 279.122 118.885 278.939 119.504C278.757 120.116 278.666 120.816 278.666 121.604C278.666 123.257 279.001 124.504 279.672 125.344C280.342 126.184 281.326 126.604 282.621 126.604C283.168 126.604 283.692 126.542 284.193 126.418C284.695 126.288 285.176 126.109 285.639 125.881V127.521ZM296.742 117.424C296.267 117.17 295.779 116.975 295.277 116.838C294.776 116.695 294.229 116.623 293.637 116.623C292.96 116.623 292.357 116.743 291.83 116.984C291.303 117.225 290.857 117.567 290.492 118.01C290.134 118.446 289.857 118.973 289.662 119.592C289.473 120.21 289.379 120.894 289.379 121.643C289.379 122.424 289.457 123.124 289.613 123.742C289.77 124.361 290.014 124.885 290.346 125.314C290.678 125.744 291.101 126.073 291.615 126.301C292.136 126.529 292.758 126.643 293.48 126.643C293.604 126.643 293.738 126.636 293.881 126.623C294.024 126.61 294.167 126.594 294.311 126.574C294.454 126.548 294.59 126.519 294.721 126.486C294.857 126.454 294.978 126.418 295.082 126.379V122.316H292.475V120.881H296.801V127.404C296.534 127.528 296.251 127.639 295.951 127.736C295.658 127.834 295.355 127.915 295.043 127.98C294.737 128.046 294.431 128.094 294.125 128.127C293.819 128.16 293.523 128.176 293.236 128.176C292.364 128.176 291.576 128.039 290.873 127.766C290.176 127.492 289.581 127.089 289.086 126.555C288.598 126.014 288.22 125.344 287.953 124.543C287.693 123.742 287.562 122.814 287.562 121.76C287.562 120.712 287.709 119.774 288.002 118.947C288.295 118.114 288.705 117.411 289.232 116.838C289.766 116.258 290.404 115.819 291.146 115.52C291.895 115.214 292.719 115.061 293.617 115.061C294.19 115.061 294.734 115.113 295.248 115.217C295.769 115.314 296.267 115.474 296.742 115.695V117.424ZM308.07 116.721H304.291V128H302.533V116.721H298.754V115.236H308.07V116.721ZM319.809 128H317.914L317.025 125.217H311.713L310.814 128H309.008L313.246 115.236H315.629L319.809 128ZM316.527 123.664L314.369 116.838L312.211 123.664H316.527ZM329.73 117.424C329.255 117.17 328.767 116.975 328.266 116.838C327.764 116.695 327.217 116.623 326.625 116.623C325.948 116.623 325.346 116.743 324.818 116.984C324.291 117.225 323.845 117.567 323.48 118.01C323.122 118.446 322.846 118.973 322.65 119.592C322.462 120.21 322.367 120.894 322.367 121.643C322.367 122.424 322.445 123.124 322.602 123.742C322.758 124.361 323.002 124.885 323.334 125.314C323.666 125.744 324.089 126.073 324.604 126.301C325.124 126.529 325.746 126.643 326.469 126.643C326.592 126.643 326.726 126.636 326.869 126.623C327.012 126.61 327.156 126.594 327.299 126.574C327.442 126.548 327.579 126.519 327.709 126.486C327.846 126.454 327.966 126.418 328.07 126.379V122.316H325.463V120.881H329.789V127.404C329.522 127.528 329.239 127.639 328.939 127.736C328.646 127.834 328.344 127.915 328.031 127.98C327.725 128.046 327.419 128.094 327.113 128.127C326.807 128.16 326.511 128.176 326.225 128.176C325.352 128.176 324.564 128.039 323.861 127.766C323.165 127.492 322.569 127.089 322.074 126.555C321.586 126.014 321.208 125.344 320.941 124.543C320.681 123.742 320.551 122.814 320.551 121.76C320.551 120.712 320.697 119.774 320.99 118.947C321.283 118.114 321.693 117.411 322.221 116.838C322.755 116.258 323.393 115.819 324.135 115.52C324.883 115.214 325.707 115.061 326.605 115.061C327.178 115.061 327.722 115.113 328.236 115.217C328.757 115.314 329.255 115.474 329.73 115.695V117.424ZM340.619 127.521C339.597 127.945 338.526 128.156 337.406 128.156C335.603 128.156 334.216 127.619 333.246 126.545C332.283 125.464 331.801 123.869 331.801 121.76C331.801 120.738 331.934 119.813 332.201 118.986C332.468 118.16 332.849 117.46 333.344 116.887C333.839 116.307 334.438 115.861 335.141 115.549C335.844 115.236 336.632 115.08 337.504 115.08C338.096 115.08 338.646 115.132 339.154 115.236C339.662 115.334 340.15 115.487 340.619 115.695V117.404C340.157 117.15 339.678 116.958 339.184 116.828C338.689 116.691 338.148 116.623 337.562 116.623C336.964 116.623 336.42 116.737 335.932 116.965C335.45 117.186 335.04 117.512 334.701 117.941C334.363 118.365 334.102 118.885 333.92 119.504C333.738 120.116 333.646 120.816 333.646 121.604C333.646 123.257 333.982 124.504 334.652 125.344C335.323 126.184 336.306 126.604 337.602 126.604C338.148 126.604 338.673 126.542 339.174 126.418C339.675 126.288 340.157 126.109 340.619 125.881V127.521ZM351.723 117.424C351.247 117.17 350.759 116.975 350.258 116.838C349.757 116.695 349.21 116.623 348.617 116.623C347.94 116.623 347.338 116.743 346.811 116.984C346.283 117.225 345.837 117.567 345.473 118.01C345.115 118.446 344.838 118.973 344.643 119.592C344.454 120.21 344.359 120.894 344.359 121.643C344.359 122.424 344.438 123.124 344.594 123.742C344.75 124.361 344.994 124.885 345.326 125.314C345.658 125.744 346.081 126.073 346.596 126.301C347.117 126.529 347.738 126.643 348.461 126.643C348.585 126.643 348.718 126.636 348.861 126.623C349.005 126.61 349.148 126.594 349.291 126.574C349.434 126.548 349.571 126.519 349.701 126.486C349.838 126.454 349.958 126.418 350.062 126.379V122.316H347.455V120.881H351.781V127.404C351.514 127.528 351.231 127.639 350.932 127.736C350.639 127.834 350.336 127.915 350.023 127.98C349.717 128.046 349.411 128.094 349.105 128.127C348.799 128.16 348.503 128.176 348.217 128.176C347.344 128.176 346.557 128.039 345.854 127.766C345.157 127.492 344.561 127.089 344.066 126.555C343.578 126.014 343.201 125.344 342.934 124.543C342.673 123.742 342.543 122.814 342.543 121.76C342.543 120.712 342.689 119.774 342.982 118.947C343.275 118.114 343.686 117.411 344.213 116.838C344.747 116.258 345.385 115.819 346.127 115.52C346.876 115.214 347.699 115.061 348.598 115.061C349.171 115.061 349.714 115.113 350.229 115.217C350.749 115.314 351.247 115.474 351.723 115.695V117.424ZM362.719 117.424C362.243 117.17 361.755 116.975 361.254 116.838C360.753 116.695 360.206 116.623 359.613 116.623C358.936 116.623 358.334 116.743 357.807 116.984C357.279 117.225 356.833 117.567 356.469 118.01C356.111 118.446 355.834 118.973 355.639 119.592C355.45 120.21 355.355 120.894 355.355 121.643C355.355 122.424 355.434 123.124 355.59 123.742C355.746 124.361 355.99 124.885 356.322 125.314C356.654 125.744 357.077 126.073 357.592 126.301C358.113 126.529 358.734 126.643 359.457 126.643C359.581 126.643 359.714 126.636 359.857 126.623C360.001 126.61 360.144 126.594 360.287 126.574C360.43 126.548 360.567 126.519 360.697 126.486C360.834 126.454 360.954 126.418 361.059 126.379V122.316H358.451V120.881H362.777V127.404C362.51 127.528 362.227 127.639 361.928 127.736C361.635 127.834 361.332 127.915 361.02 127.98C360.714 128.046 360.408 128.094 360.102 128.127C359.796 128.16 359.499 128.176 359.213 128.176C358.34 128.176 357.553 128.039 356.85 127.766C356.153 127.492 355.557 127.089 355.062 126.555C354.574 126.014 354.197 125.344 353.93 124.543C353.669 123.742 353.539 122.814 353.539 121.76C353.539 120.712 353.686 119.774 353.979 118.947C354.271 118.114 354.682 117.411 355.209 116.838C355.743 116.258 356.381 115.819 357.123 115.52C357.872 115.214 358.695 115.061 359.594 115.061C360.167 115.061 360.71 115.113 361.225 115.217C361.745 115.314 362.243 115.474 362.719 115.695V117.424ZM373.607 127.521C372.585 127.945 371.514 128.156 370.395 128.156C368.591 128.156 367.204 127.619 366.234 126.545C365.271 125.464 364.789 123.869 364.789 121.76C364.789 120.738 364.923 119.813 365.189 118.986C365.456 118.16 365.837 117.46 366.332 116.887C366.827 116.307 367.426 115.861 368.129 115.549C368.832 115.236 369.62 115.08 370.492 115.08C371.085 115.08 371.635 115.132 372.143 115.236C372.65 115.334 373.139 115.487 373.607 115.695V117.404C373.145 117.15 372.667 116.958 372.172 116.828C371.677 116.691 371.137 116.623 370.551 116.623C369.952 116.623 369.408 116.737 368.92 116.965C368.438 117.186 368.028 117.512 367.689 117.941C367.351 118.365 367.09 118.885 366.908 119.504C366.726 120.116 366.635 120.816 366.635 121.604C366.635 123.257 366.97 124.504 367.641 125.344C368.311 126.184 369.294 126.604 370.59 126.604C371.137 126.604 371.661 126.542 372.162 126.418C372.663 126.288 373.145 126.109 373.607 125.881V127.521ZM384.711 117.424C384.236 117.17 383.747 116.975 383.246 116.838C382.745 116.695 382.198 116.623 381.605 116.623C380.928 116.623 380.326 116.743 379.799 116.984C379.271 117.225 378.826 117.567 378.461 118.01C378.103 118.446 377.826 118.973 377.631 119.592C377.442 120.21 377.348 120.894 377.348 121.643C377.348 122.424 377.426 123.124 377.582 123.742C377.738 124.361 377.982 124.885 378.314 125.314C378.646 125.744 379.07 126.073 379.584 126.301C380.105 126.529 380.727 126.643 381.449 126.643C381.573 126.643 381.706 126.636 381.85 126.623C381.993 126.61 382.136 126.594 382.279 126.574C382.423 126.548 382.559 126.519 382.689 126.486C382.826 126.454 382.947 126.418 383.051 126.379V122.316H380.443V120.881H384.77V127.404C384.503 127.528 384.219 127.639 383.92 127.736C383.627 127.834 383.324 127.915 383.012 127.98C382.706 128.046 382.4 128.094 382.094 128.127C381.788 128.16 381.492 128.176 381.205 128.176C380.333 128.176 379.545 128.039 378.842 127.766C378.145 127.492 377.549 127.089 377.055 126.555C376.566 126.014 376.189 125.344 375.922 124.543C375.661 123.742 375.531 122.814 375.531 121.76C375.531 120.712 375.678 119.774 375.971 118.947C376.264 118.114 376.674 117.411 377.201 116.838C377.735 116.258 378.373 115.819 379.115 115.52C379.864 115.214 380.688 115.061 381.586 115.061C382.159 115.061 382.702 115.113 383.217 115.217C383.738 115.314 384.236 115.474 384.711 115.695V117.424ZM396.781 128H394.887L393.998 125.217H388.686L387.787 128H385.98L390.219 115.236H392.602L396.781 128ZM393.5 123.664L391.342 116.838L389.184 123.664H393.5ZM407.777 128H405.883L404.994 125.217H399.682L398.783 128H396.977L401.215 115.236H403.598L407.777 128ZM404.496 123.664L402.338 116.838L400.18 123.664H404.496ZM65.9219 142.143C65.9219 142.663 65.8242 143.181 65.6289 143.695C65.4336 144.203 65.1309 144.659 64.7207 145.062C64.3105 145.466 63.7865 145.795 63.1484 146.049C62.5104 146.296 61.7487 146.42 60.8633 146.42H59.2812V151H57.543V138.236H61.1367C61.7682 138.236 62.3737 138.308 62.9531 138.451C63.5326 138.588 64.0404 138.812 64.4766 139.125C64.9193 139.438 65.2708 139.841 65.5312 140.336C65.7917 140.831 65.9219 141.433 65.9219 142.143ZM64.1152 142.221C64.1152 141.4 63.8451 140.772 63.3047 140.336C62.7708 139.9 62.0221 139.682 61.0586 139.682H59.2812V144.936H60.9023C61.931 144.936 62.722 144.711 63.2754 144.262C63.8353 143.812 64.1152 143.132 64.1152 142.221ZM72.4941 141.02C72.696 141.02 72.888 141.062 73.0703 141.146C73.2526 141.225 73.4121 141.332 73.5488 141.469C73.6855 141.605 73.793 141.765 73.8711 141.947C73.9557 142.13 73.998 142.322 73.998 142.523C73.998 142.732 73.9557 142.927 73.8711 143.109C73.793 143.285 73.6855 143.441 73.5488 143.578C73.4121 143.715 73.2526 143.822 73.0703 143.9C72.888 143.979 72.696 144.018 72.4941 144.018C72.2858 144.018 72.0905 143.979 71.9082 143.9C71.7324 143.822 71.5762 143.715 71.4395 143.578C71.3027 143.441 71.1953 143.285 71.1172 143.109C71.0391 142.927 71 142.732 71 142.523C71 142.322 71.0391 142.13 71.1172 141.947C71.1953 141.765 71.3027 141.605 71.4395 141.469C71.5762 141.332 71.7324 141.225 71.9082 141.146C72.0905 141.062 72.2858 141.02 72.4941 141.02ZM72.4941 148.178C72.696 148.178 72.888 148.22 73.0703 148.305C73.2526 148.383 73.4121 148.49 73.5488 148.627C73.6855 148.764 73.793 148.923 73.8711 149.105C73.9557 149.288 73.998 149.48 73.998 149.682C73.998 149.89 73.9557 150.085 73.8711 150.268C73.793 150.443 73.6855 150.6 73.5488 150.736C73.4121 150.873 73.2526 150.98 73.0703 151.059C72.888 151.137 72.696 151.176 72.4941 151.176C72.2858 151.176 72.0905 151.137 71.9082 151.059C71.7324 150.98 71.5762 150.873 71.4395 150.736C71.3027 150.6 71.1953 150.443 71.1172 150.268C71.0391 150.085 71 149.89 71 149.682C71 149.48 71.0391 149.288 71.1172 149.105C71.1953 148.923 71.3027 148.764 71.4395 148.627C71.5762 148.49 71.7324 148.383 71.9082 148.305C72.0905 148.22 72.2858 148.178 72.4941 148.178ZM175.785 140.424C175.31 140.17 174.822 139.975 174.32 139.838C173.819 139.695 173.272 139.623 172.68 139.623C172.003 139.623 171.4 139.743 170.873 139.984C170.346 140.225 169.9 140.567 169.535 141.01C169.177 141.446 168.9 141.973 168.705 142.592C168.516 143.21 168.422 143.894 168.422 144.643C168.422 145.424 168.5 146.124 168.656 146.742C168.812 147.361 169.057 147.885 169.389 148.314C169.721 148.744 170.144 149.073 170.658 149.301C171.179 149.529 171.801 149.643 172.523 149.643C172.647 149.643 172.781 149.636 172.924 149.623C173.067 149.61 173.21 149.594 173.354 149.574C173.497 149.548 173.633 149.519 173.764 149.486C173.9 149.454 174.021 149.418 174.125 149.379V145.316H171.518V143.881H175.844V150.404C175.577 150.528 175.294 150.639 174.994 150.736C174.701 150.834 174.398 150.915 174.086 150.98C173.78 151.046 173.474 151.094 173.168 151.127C172.862 151.16 172.566 151.176 172.279 151.176C171.407 151.176 170.619 151.039 169.916 150.766C169.219 150.492 168.624 150.089 168.129 149.555C167.641 149.014 167.263 148.344 166.996 147.543C166.736 146.742 166.605 145.814 166.605 144.76C166.605 143.712 166.752 142.774 167.045 141.947C167.338 141.114 167.748 140.411 168.275 139.838C168.809 139.258 169.447 138.819 170.189 138.52C170.938 138.214 171.762 138.061 172.66 138.061C173.233 138.061 173.777 138.113 174.291 138.217C174.812 138.314 175.31 138.474 175.785 138.695V140.424ZM187.113 139.721H183.334V151H181.576V139.721H177.797V138.236H187.113V139.721ZM198.852 151H196.957L196.068 148.217H190.756L189.857 151H188.051L192.289 138.236H194.672L198.852 151ZM195.57 146.664L193.412 139.838L191.254 146.664H195.57ZM208.773 140.424C208.298 140.17 207.81 139.975 207.309 139.838C206.807 139.695 206.26 139.623 205.668 139.623C204.991 139.623 204.389 139.743 203.861 139.984C203.334 140.225 202.888 140.567 202.523 141.01C202.165 141.446 201.889 141.973 201.693 142.592C201.505 143.21 201.41 143.894 201.41 144.643C201.41 145.424 201.488 146.124 201.645 146.742C201.801 147.361 202.045 147.885 202.377 148.314C202.709 148.744 203.132 149.073 203.646 149.301C204.167 149.529 204.789 149.643 205.512 149.643C205.635 149.643 205.769 149.636 205.912 149.623C206.055 149.61 206.199 149.594 206.342 149.574C206.485 149.548 206.622 149.519 206.752 149.486C206.889 149.454 207.009 149.418 207.113 149.379V145.316H204.506V143.881H208.832V150.404C208.565 150.528 208.282 150.639 207.982 150.736C207.689 150.834 207.387 150.915 207.074 150.98C206.768 151.046 206.462 151.094 206.156 151.127C205.85 151.16 205.554 151.176 205.268 151.176C204.395 151.176 203.607 151.039 202.904 150.766C202.208 150.492 201.612 150.089 201.117 149.555C200.629 149.014 200.251 148.344 199.984 147.543C199.724 146.742 199.594 145.814 199.594 144.76C199.594 143.712 199.74 142.774 200.033 141.947C200.326 141.114 200.736 140.411 201.264 139.838C201.798 139.258 202.436 138.819 203.178 138.52C203.926 138.214 204.75 138.061 205.648 138.061C206.221 138.061 206.765 138.113 207.279 138.217C207.8 138.314 208.298 138.474 208.773 138.695V140.424ZM219.662 150.521C218.64 150.945 217.569 151.156 216.449 151.156C214.646 151.156 213.259 150.619 212.289 149.545C211.326 148.464 210.844 146.869 210.844 144.76C210.844 143.738 210.977 142.813 211.244 141.986C211.511 141.16 211.892 140.46 212.387 139.887C212.882 139.307 213.48 138.861 214.184 138.549C214.887 138.236 215.674 138.08 216.547 138.08C217.139 138.08 217.689 138.132 218.197 138.236C218.705 138.334 219.193 138.487 219.662 138.695V140.404C219.2 140.15 218.721 139.958 218.227 139.828C217.732 139.691 217.191 139.623 216.605 139.623C216.007 139.623 215.463 139.737 214.975 139.965C214.493 140.186 214.083 140.512 213.744 140.941C213.406 141.365 213.145 141.885 212.963 142.504C212.781 143.116 212.689 143.816 212.689 144.604C212.689 146.257 213.025 147.504 213.695 148.344C214.366 149.184 215.349 149.604 216.645 149.604C217.191 149.604 217.715 149.542 218.217 149.418C218.718 149.288 219.2 149.109 219.662 148.881V150.521ZM230.766 140.424C230.29 140.17 229.802 139.975 229.301 139.838C228.799 139.695 228.253 139.623 227.66 139.623C226.983 139.623 226.381 139.743 225.854 139.984C225.326 140.225 224.88 140.567 224.516 141.01C224.158 141.446 223.881 141.973 223.686 142.592C223.497 143.21 223.402 143.894 223.402 144.643C223.402 145.424 223.48 146.124 223.637 146.742C223.793 147.361 224.037 147.885 224.369 148.314C224.701 148.744 225.124 149.073 225.639 149.301C226.16 149.529 226.781 149.643 227.504 149.643C227.628 149.643 227.761 149.636 227.904 149.623C228.048 149.61 228.191 149.594 228.334 149.574C228.477 149.548 228.614 149.519 228.744 149.486C228.881 149.454 229.001 149.418 229.105 149.379V145.316H226.498V143.881H230.824V150.404C230.557 150.528 230.274 150.639 229.975 150.736C229.682 150.834 229.379 150.915 229.066 150.98C228.76 151.046 228.454 151.094 228.148 151.127C227.842 151.16 227.546 151.176 227.26 151.176C226.387 151.176 225.6 151.039 224.896 150.766C224.2 150.492 223.604 150.089 223.109 149.555C222.621 149.014 222.243 148.344 221.977 147.543C221.716 146.742 221.586 145.814 221.586 144.76C221.586 143.712 221.732 142.774 222.025 141.947C222.318 141.114 222.729 140.411 223.256 139.838C223.79 139.258 224.428 138.819 225.17 138.52C225.919 138.214 226.742 138.061 227.641 138.061C228.214 138.061 228.757 138.113 229.271 138.217C229.792 138.314 230.29 138.474 230.766 138.695V140.424ZM241.762 140.424C241.286 140.17 240.798 139.975 240.297 139.838C239.796 139.695 239.249 139.623 238.656 139.623C237.979 139.623 237.377 139.743 236.85 139.984C236.322 140.225 235.876 140.567 235.512 141.01C235.154 141.446 234.877 141.973 234.682 142.592C234.493 143.21 234.398 143.894 234.398 144.643C234.398 145.424 234.477 146.124 234.633 146.742C234.789 147.361 235.033 147.885 235.365 148.314C235.697 148.744 236.12 149.073 236.635 149.301C237.156 149.529 237.777 149.643 238.5 149.643C238.624 149.643 238.757 149.636 238.9 149.623C239.044 149.61 239.187 149.594 239.33 149.574C239.473 149.548 239.61 149.519 239.74 149.486C239.877 149.454 239.997 149.418 240.102 149.379V145.316H237.494V143.881H241.82V150.404C241.553 150.528 241.27 150.639 240.971 150.736C240.678 150.834 240.375 150.915 240.062 150.98C239.757 151.046 239.451 151.094 239.145 151.127C238.839 151.16 238.542 151.176 238.256 151.176C237.383 151.176 236.596 151.039 235.893 150.766C235.196 150.492 234.6 150.089 234.105 149.555C233.617 149.014 233.24 148.344 232.973 147.543C232.712 146.742 232.582 145.814 232.582 144.76C232.582 143.712 232.729 142.774 233.021 141.947C233.314 141.114 233.725 140.411 234.252 139.838C234.786 139.258 235.424 138.819 236.166 138.52C236.915 138.214 237.738 138.061 238.637 138.061C239.21 138.061 239.753 138.113 240.268 138.217C240.788 138.314 241.286 138.474 241.762 138.695V140.424ZM252.65 150.521C251.628 150.945 250.557 151.156 249.438 151.156C247.634 151.156 246.247 150.619 245.277 149.545C244.314 148.464 243.832 146.869 243.832 144.76C243.832 143.738 243.965 142.813 244.232 141.986C244.499 141.16 244.88 140.46 245.375 139.887C245.87 139.307 246.469 138.861 247.172 138.549C247.875 138.236 248.663 138.08 249.535 138.08C250.128 138.08 250.678 138.132 251.186 138.236C251.693 138.334 252.182 138.487 252.65 138.695V140.404C252.188 140.15 251.71 139.958 251.215 139.828C250.72 139.691 250.18 139.623 249.594 139.623C248.995 139.623 248.451 139.737 247.963 139.965C247.481 140.186 247.071 140.512 246.732 140.941C246.394 141.365 246.133 141.885 245.951 142.504C245.769 143.116 245.678 143.816 245.678 144.604C245.678 146.257 246.013 147.504 246.684 148.344C247.354 149.184 248.337 149.604 249.633 149.604C250.18 149.604 250.704 149.542 251.205 149.418C251.706 149.288 252.188 149.109 252.65 148.881V150.521ZM263.754 140.424C263.279 140.17 262.79 139.975 262.289 139.838C261.788 139.695 261.241 139.623 260.648 139.623C259.971 139.623 259.369 139.743 258.842 139.984C258.314 140.225 257.868 140.567 257.504 141.01C257.146 141.446 256.869 141.973 256.674 142.592C256.485 143.21 256.391 143.894 256.391 144.643C256.391 145.424 256.469 146.124 256.625 146.742C256.781 147.361 257.025 147.885 257.357 148.314C257.689 148.744 258.113 149.073 258.627 149.301C259.148 149.529 259.77 149.643 260.492 149.643C260.616 149.643 260.749 149.636 260.893 149.623C261.036 149.61 261.179 149.594 261.322 149.574C261.465 149.548 261.602 149.519 261.732 149.486C261.869 149.454 261.99 149.418 262.094 149.379V145.316H259.486V143.881H263.812V150.404C263.546 150.528 263.262 150.639 262.963 150.736C262.67 150.834 262.367 150.915 262.055 150.98C261.749 151.046 261.443 151.094 261.137 151.127C260.831 151.16 260.535 151.176 260.248 151.176C259.376 151.176 258.588 151.039 257.885 150.766C257.188 150.492 256.592 150.089 256.098 149.555C255.609 149.014 255.232 148.344 254.965 147.543C254.704 146.742 254.574 145.814 254.574 144.76C254.574 143.712 254.721 142.774 255.014 141.947C255.307 141.114 255.717 140.411 256.244 139.838C256.778 139.258 257.416 138.819 258.158 138.52C258.907 138.214 259.73 138.061 260.629 138.061C261.202 138.061 261.745 138.113 262.26 138.217C262.781 138.314 263.279 138.474 263.754 138.695V140.424Z" fill="#C9D1D9"/>
<g filter="url(#filter3_d)">
<path d="M4.45312 83V71.2344H5.92188V78.9062L9.88281 74.7188H11.4922L8.125 78.3594L11.8281 83H10.1328L7.16406 79.1562L5.92188 80.3906V83H4.45312ZM14.625 80.6641C14.625 81.5859 15.2786 82.0469 16.5859 82.0469C17.8932 82.0469 18.5469 81.5859 18.5469 80.6641V77.0781C18.5469 76.151 17.8932 75.6875 16.5859 75.6875C15.2786 75.6875 14.625 76.151 14.625 77.0781V80.6641ZM20.0156 80.5391C20.0156 81.3516 19.737 81.9948 19.1797 82.4688C18.6276 82.9375 17.7604 83.1719 16.5781 83.1719C15.3958 83.1719 14.5286 82.9375 13.9766 82.4688C13.4297 82 13.1562 81.3568 13.1562 80.5391V77.2031C13.1562 76.3854 13.4297 75.7422 13.9766 75.2734C14.5286 74.7995 15.3958 74.5625 16.5781 74.5625C17.7604 74.5625 18.6276 74.7995 19.1797 75.2734C19.737 75.7474 20.0156 76.3906 20.0156 77.2031V80.5391ZM22.625 83V74.7188H24.0938V75.8906C24.2812 75.3802 24.7891 75.0104 25.6172 74.7812C26.0495 74.6562 26.5 74.5964 26.9688 74.6016L26.9219 75.8594C26.2135 75.8594 25.5651 76 24.9766 76.2812C24.388 76.5625 24.0938 76.8698 24.0938 77.2031V83H22.625ZM31.0547 83.1719C30.2161 83.1719 29.5651 82.9453 29.1016 82.4922C28.638 82.0339 28.4062 81.4661 28.4062 80.7891C28.4062 80.4036 28.487 80.0833 28.6484 79.8281C28.9766 79.3073 29.9557 78.8099 31.5859 78.3359C32.5286 78.0755 33.0703 77.8516 33.2109 77.6641C33.3568 77.4766 33.4375 77.3307 33.4531 77.2266C33.4688 77.1172 33.4766 76.9453 33.4766 76.7109C33.4766 76.4766 33.3802 76.2474 33.1875 76.0234C33 75.7995 32.5885 75.6875 31.9531 75.6875C31.0573 75.6875 30.5078 75.8594 30.3047 76.2031C30.2005 76.3802 30.1484 76.6198 30.1484 76.9219V77.2891H28.7344V76.9141C28.7344 76.1068 29.0026 75.513 29.5391 75.1328C30.0807 74.7526 30.888 74.5625 31.9609 74.5625C33.0339 74.5625 33.7995 74.8073 34.2578 75.2969C34.7161 75.7812 34.9453 76.474 34.9453 77.375V80.9062C34.9453 81.3385 35 81.6198 35.1094 81.75C35.2188 81.875 35.4531 81.9375 35.8125 81.9375L35.6406 83.0625H35.3438C34.8229 83.0625 34.4349 82.9635 34.1797 82.7656C33.9245 82.5625 33.7292 82.25 33.5938 81.8281C33.1615 82.474 32.6406 82.8802 32.0312 83.0469C31.7396 83.1302 31.4141 83.1719 31.0547 83.1719ZM31.7891 79.3438C31.0495 79.5573 30.5365 79.7708 30.25 79.9844C29.9688 80.1979 29.8281 80.5 29.8281 80.8906C29.8281 81.276 29.9583 81.5677 30.2188 81.7656C30.4844 81.9635 30.8021 82.0625 31.1719 82.0625C31.5469 82.0625 31.8854 82.0156 32.1875 81.9219C32.4896 81.8229 32.7604 81.6797 33 81.4922C33.2448 81.2995 33.4036 81.0807 33.4766 80.8359V78.4453C33.0964 78.8255 32.5339 79.125 31.7891 79.3438ZM37.9844 83V71.2344H39.4531V78.9062L43.4141 74.7188H45.0234L41.6562 78.3594L45.3594 83H43.6641L40.6953 79.1562L39.4531 80.3906V83H37.9844ZM47.1406 83V81.7891H50.2734V73.0234L47.3516 73.3359L47.2109 72.0938L50.5625 71.7031H51.8438V81.7891H54.6094V83H47.1406Z" fill="#C9D1D9"/>
</g>
<defs>
<filter id="filter0_d" x="167" y="111" width="30" height="30" filterUnits="userSpaceOnUse" color-interpolation-filters="sRGB">
<feFlood flood-opacity="0" result="BackgroundImageFix"/>
<feColorMatrix in="SourceAlpha" type="matrix" values="0 0 0 0 0 0 0 0 0 0 0 0 0 0 0 0 0 0 127 0"/>
<feOffset dy="4"/>
<feGaussianBlur stdDeviation="2"/>
<feColorMatrix type="matrix" values="0 0 0 0 0 0 0 0 0 0 0 0 0 0 0 0 0 0 0.25 0"/>
<feBlend mode="normal" in2="BackgroundImageFix" result="effect1_dropShadow"/>
<feBlend mode="normal" in="SourceGraphic" in2="effect1_dropShadow" result="shape"/>
</filter>
<filter id="filter1_d" x="167" y="133" width="30" height="30" filterUnits="userSpaceOnUse" color-interpolation-filters="sRGB">
<feFlood flood-opacity="0" result="BackgroundImageFix"/>
<feColorMatrix in="SourceAlpha" type="matrix" values="0 0 0 0 0 0 0 0 0 0 0 0 0 0 0 0 0 0 127 0"/>
<feOffset dy="4"/>
<feGaussianBlur stdDeviation="2"/>
<feColorMatrix type="matrix" values="0 0 0 0 0 0 0 0 0 0 0 0 0 0 0 0 0 0 0.25 0"/>
<feBlend mode="normal" in2="BackgroundImageFix" result="effect1_dropShadow"/>
<feBlend mode="normal" in="SourceGraphic" in2="effect1_dropShadow" result="shape"/>
</filter>
<filter id="filter2_d" x="94.9688" y="0.5" width="205.195" height="38.9999" filterUnits="userSpaceOnUse" color-interpolation-filters="sRGB">
<feFlood flood-opacity="0" result="BackgroundImageFix"/>
<feColorMatrix in="SourceAlpha" type="matrix" values="0 0 0 0 0 0 0 0 0 0 0 0 0 0 0 0 0 0 127 0"/>
<feOffset dy="4"/>
<feGaussianBlur stdDeviation="2"/>
<feColorMatrix type="matrix" values="0 0 0 0 0 0 0 0 0 0 0 0 0 0 0 0 0 0 0.25 0"/>
<feBlend mode="normal" in2="BackgroundImageFix" result="effect1_dropShadow"/>
<feBlend mode="normal" in="SourceGraphic" in2="effect1_dropShadow" result="shape"/>
</filter>
<filter id="filter3_d" x="0.453125" y="71.2344" width="58.1562" height="19.9375" filterUnits="userSpaceOnUse" color-interpolation-filters="sRGB">
<feFlood flood-opacity="0" result="BackgroundImageFix"/>
<feColorMatrix in="SourceAlpha" type="matrix" values="0 0 0 0 0 0 0 0 0 0 0 0 0 0 0 0 0 0 127 0"/>
<feOffset dy="4"/>
<feGaussianBlur stdDeviation="2"/>
<feColorMatrix type="matrix" values="0 0 0 0 0 0 0 0 0 0 0 0 0 0 0 0 0 0 0.25 0"/>
<feBlend mode="normal" in2="BackgroundImageFix" result="effect1_dropShadow"/>
<feBlend mode="normal" in="SourceGraphic" in2="effect1_dropShadow" result="shape"/>
</filter>
</defs>
</svg>
