<svg width="408" height="110" viewBox="0 0 408 110" fill="none" xmlns="http://www.w3.org/2000/svg">
<g filter="url(#filter0_d)">
<path d="M265 94H257.676" stroke="#C9D1D9" stroke-width="2"/>
<path d="M242.465 94H235.141" stroke="#C9D1D9" stroke-width="2"/>
<path d="M253.732 94H246.408" stroke="#C9D1D9" stroke-width="2"/>
<path d="M224.293 93.2929C223.902 93.6834 223.902 94.3166 224.293 94.7071L230.657 101.071C231.047 101.462 231.681 101.462 232.071 101.071C232.462 100.681 232.462 100.047 232.071 99.6569L226.414 94L232.071 88.3431C232.462 87.9526 232.462 87.3195 232.071 86.9289C231.681 86.5384 231.047 86.5384 230.657 86.9289L224.293 93.2929ZM231.761 93H225V95H231.761V93Z" fill="#C9D1D9"/>
</g>
<path d="M66.1562 47.7207H62.377V59H60.6191V47.7207H56.8398V46.2363H66.1562V47.7207ZM72.4941 49.0195C72.696 49.0195 72.888 49.0618 73.0703 49.1465C73.2526 49.2246 73.4121 49.332 73.5488 49.4688C73.6855 49.6055 73.793 49.765 73.8711 49.9473C73.9557 50.1296 73.998 50.3216 73.998 50.5234C73.998 50.7318 73.9557 50.9271 73.8711 51.1094C73.793 51.2852 73.6855 51.4414 73.5488 51.5781C73.4121 51.7148 73.2526 51.8223 73.0703 51.9004C72.888 51.9785 72.696 52.0176 72.4941 52.0176C72.2858 52.0176 72.0905 51.9785 71.9082 51.9004C71.7324 51.8223 71.5762 51.7148 71.4395 51.5781C71.3027 51.4414 71.1953 51.2852 71.1172 51.1094C71.0391 50.9271 71 50.7318 71 50.5234C71 50.3216 71.0391 50.1296 71.1172 49.9473C71.1953 49.765 71.3027 49.6055 71.4395 49.4688C71.5762 49.332 71.7324 49.2246 71.9082 49.1465C72.0905 49.0618 72.2858 49.0195 72.4941 49.0195ZM72.4941 56.1777C72.696 56.1777 72.888 56.2201 73.0703 56.3047C73.2526 56.3828 73.4121 56.4902 73.5488 56.627C73.6855 56.7637 73.793 56.9232 73.8711 57.1055C73.9557 57.2878 73.998 57.4798 73.998 57.6816C73.998 57.89 73.9557 58.0853 73.8711 58.2676C73.793 58.4434 73.6855 58.5996 73.5488 58.7363C73.4121 58.873 73.2526 58.9805 73.0703 59.0586C72.888 59.1367 72.696 59.1758 72.4941 59.1758C72.2858 59.1758 72.0905 59.1367 71.9082 59.0586C71.7324 58.9805 71.5762 58.873 71.4395 58.7363C71.3027 58.5996 71.1953 58.4434 71.1172 58.2676C71.0391 58.0853 71 57.89 71 57.6816C71 57.4798 71.0391 57.2878 71.1172 57.1055C71.1953 56.9232 71.3027 56.7637 71.4395 56.627C71.5762 56.4902 71.7324 56.3828 71.9082 56.3047C72.0905 56.2201 72.2858 56.1777 72.4941 56.1777ZM98.8125 48.4238C98.3372 48.1699 97.849 47.9746 97.3477 47.8379C96.8464 47.6947 96.2995 47.623 95.707 47.623C95.0299 47.623 94.4277 47.7435 93.9004 47.9844C93.373 48.2253 92.9271 48.5671 92.5625 49.0098C92.2044 49.446 91.9277 49.9733 91.7324 50.5918C91.5436 51.2103 91.4492 51.8939 91.4492 52.6426C91.4492 53.4238 91.5273 54.1237 91.6836 54.7422C91.8398 55.3607 92.084 55.8848 92.416 56.3145C92.748 56.7441 93.1712 57.0729 93.6855 57.3008C94.2064 57.5286 94.8281 57.6426 95.5508 57.6426C95.6745 57.6426 95.8079 57.6361 95.9512 57.623C96.0944 57.61 96.2376 57.5938 96.3809 57.5742C96.5241 57.5482 96.6608 57.5189 96.791 57.4863C96.9277 57.4538 97.0482 57.418 97.1523 57.3789V53.3164H94.5449V51.8809H98.8711V58.4043C98.6042 58.528 98.321 58.6387 98.0215 58.7363C97.7285 58.834 97.4258 58.9154 97.1133 58.9805C96.8073 59.0456 96.5013 59.0944 96.1953 59.127C95.8893 59.1595 95.5931 59.1758 95.3066 59.1758C94.4342 59.1758 93.6465 59.0391 92.9434 58.7656C92.2467 58.4922 91.651 58.0885 91.1562 57.5547C90.668 57.0143 90.2904 56.3438 90.0234 55.543C89.763 54.7422 89.6328 53.8145 89.6328 52.7598C89.6328 51.7116 89.7793 50.7741 90.0723 49.9473C90.3652 49.1139 90.7754 48.4108 91.3027 47.8379C91.8366 47.2585 92.4746 46.819 93.2168 46.5195C93.9655 46.2135 94.7891 46.0605 95.6875 46.0605C96.2604 46.0605 96.804 46.1126 97.3184 46.2168C97.8392 46.3145 98.3372 46.474 98.8125 46.6953V48.4238ZM110.141 47.7207H106.361V59H104.604V47.7207H100.824V46.2363H110.141V47.7207ZM121.137 47.7207H117.357V59H115.6V47.7207H111.82V46.2363H121.137V47.7207ZM132.875 59H130.98L130.092 56.2168H124.779L123.881 59H122.074L126.312 46.2363H128.695L132.875 59ZM129.594 54.6641L127.436 47.8379L125.277 54.6641H129.594ZM143.129 47.7207H139.35V59H137.592V47.7207H133.812V46.2363H143.129V47.7207ZM154.867 59H152.973L152.084 56.2168H146.771L145.873 59H144.066L148.305 46.2363H150.688L154.867 59ZM151.586 54.6641L149.428 47.8379L147.27 54.6641H151.586ZM164.789 48.4238C164.314 48.1699 163.826 47.9746 163.324 47.8379C162.823 47.6947 162.276 47.623 161.684 47.623C161.007 47.623 160.404 47.7435 159.877 47.9844C159.35 48.2253 158.904 48.5671 158.539 49.0098C158.181 49.446 157.904 49.9733 157.709 50.5918C157.52 51.2103 157.426 51.8939 157.426 52.6426C157.426 53.4238 157.504 54.1237 157.66 54.7422C157.816 55.3607 158.061 55.8848 158.393 56.3145C158.725 56.7441 159.148 57.0729 159.662 57.3008C160.183 57.5286 160.805 57.6426 161.527 57.6426C161.651 57.6426 161.785 57.6361 161.928 57.623C162.071 57.61 162.214 57.5938 162.357 57.5742C162.501 57.5482 162.637 57.5189 162.768 57.4863C162.904 57.4538 163.025 57.418 163.129 57.3789V53.3164H160.521V51.8809H164.848V58.4043C164.581 58.528 164.298 58.6387 163.998 58.7363C163.705 58.834 163.402 58.9154 163.09 58.9805C162.784 59.0456 162.478 59.0944 162.172 59.127C161.866 59.1595 161.57 59.1758 161.283 59.1758C160.411 59.1758 159.623 59.0391 158.92 58.7656C158.223 58.4922 157.628 58.0885 157.133 57.5547C156.645 57.0143 156.267 56.3438 156 55.543C155.74 54.7422 155.609 53.8145 155.609 52.7598C155.609 51.7116 155.756 50.7741 156.049 49.9473C156.342 49.1139 156.752 48.4108 157.279 47.8379C157.813 47.2585 158.451 46.819 159.193 46.5195C159.942 46.2135 160.766 46.0605 161.664 46.0605C162.237 46.0605 162.781 46.1126 163.295 46.2168C163.816 46.3145 164.314 46.474 164.789 46.6953V48.4238ZM175.678 58.5215C174.656 58.9447 173.585 59.1562 172.465 59.1562C170.661 59.1562 169.275 58.6191 168.305 57.5449C167.341 56.4642 166.859 54.8691 166.859 52.7598C166.859 51.7376 166.993 50.8132 167.26 49.9863C167.527 49.1595 167.908 48.4596 168.402 47.8867C168.897 47.3073 169.496 46.8613 170.199 46.5488C170.902 46.2363 171.69 46.0801 172.562 46.0801C173.155 46.0801 173.705 46.1322 174.213 46.2363C174.721 46.334 175.209 46.487 175.678 46.6953V48.4043C175.215 48.1504 174.737 47.9583 174.242 47.8281C173.747 47.6914 173.207 47.623 172.621 47.623C172.022 47.623 171.479 47.737 170.99 47.9648C170.508 48.1862 170.098 48.5117 169.76 48.9414C169.421 49.3646 169.161 49.8854 168.979 50.5039C168.796 51.1159 168.705 51.8158 168.705 52.6035C168.705 54.2572 169.04 55.5039 169.711 56.3438C170.382 57.1836 171.365 57.6035 172.66 57.6035C173.207 57.6035 173.731 57.5417 174.232 57.418C174.734 57.2878 175.215 57.1087 175.678 56.8809V58.5215ZM187.113 47.7207H183.334V59H181.576V47.7207H177.797V46.2363H187.113V47.7207ZM197.777 48.4238C197.302 48.1699 196.814 47.9746 196.312 47.8379C195.811 47.6947 195.264 47.623 194.672 47.623C193.995 47.623 193.393 47.7435 192.865 47.9844C192.338 48.2253 191.892 48.5671 191.527 49.0098C191.169 49.446 190.893 49.9733 190.697 50.5918C190.508 51.2103 190.414 51.8939 190.414 52.6426C190.414 53.4238 190.492 54.1237 190.648 54.7422C190.805 55.3607 191.049 55.8848 191.381 56.3145C191.713 56.7441 192.136 57.0729 192.65 57.3008C193.171 57.5286 193.793 57.6426 194.516 57.6426C194.639 57.6426 194.773 57.6361 194.916 57.623C195.059 57.61 195.202 57.5938 195.346 57.5742C195.489 57.5482 195.626 57.5189 195.756 57.4863C195.893 57.4538 196.013 57.418 196.117 57.3789V53.3164H193.51V51.8809H197.836V58.4043C197.569 58.528 197.286 58.6387 196.986 58.7363C196.693 58.834 196.391 58.9154 196.078 58.9805C195.772 59.0456 195.466 59.0944 195.16 59.127C194.854 59.1595 194.558 59.1758 194.271 59.1758C193.399 59.1758 192.611 59.0391 191.908 58.7656C191.212 58.4922 190.616 58.0885 190.121 57.5547C189.633 57.0143 189.255 56.3438 188.988 55.543C188.728 54.7422 188.598 53.8145 188.598 52.7598C188.598 51.7116 188.744 50.7741 189.037 49.9473C189.33 49.1139 189.74 48.4108 190.268 47.8379C190.801 47.2585 191.439 46.819 192.182 46.5195C192.93 46.2135 193.754 46.0605 194.652 46.0605C195.225 46.0605 195.769 46.1126 196.283 46.2168C196.804 46.3145 197.302 46.474 197.777 46.6953V48.4238ZM209.848 59H207.953L207.064 56.2168H201.752L200.854 59H199.047L203.285 46.2363H205.668L209.848 59ZM206.566 54.6641L204.408 47.8379L202.25 54.6641H206.566ZM220.102 47.7207H216.322V59H214.564V47.7207H210.785V46.2363H220.102V47.7207ZM274.75 48.4238C274.275 48.1699 273.786 47.9746 273.285 47.8379C272.784 47.6947 272.237 47.623 271.645 47.623C270.967 47.623 270.365 47.7435 269.838 47.9844C269.311 48.2253 268.865 48.5671 268.5 49.0098C268.142 49.446 267.865 49.9733 267.67 50.5918C267.481 51.2103 267.387 51.8939 267.387 52.6426C267.387 53.4238 267.465 54.1237 267.621 54.7422C267.777 55.3607 268.021 55.8848 268.354 56.3145C268.686 56.7441 269.109 57.0729 269.623 57.3008C270.144 57.5286 270.766 57.6426 271.488 57.6426C271.612 57.6426 271.745 57.6361 271.889 57.623C272.032 57.61 272.175 57.5938 272.318 57.5742C272.462 57.5482 272.598 57.5189 272.729 57.4863C272.865 57.4538 272.986 57.418 273.09 57.3789V53.3164H270.482V51.8809H274.809V58.4043C274.542 58.528 274.258 58.6387 273.959 58.7363C273.666 58.834 273.363 58.9154 273.051 58.9805C272.745 59.0456 272.439 59.0944 272.133 59.127C271.827 59.1595 271.531 59.1758 271.244 59.1758C270.372 59.1758 269.584 59.0391 268.881 58.7656C268.184 58.4922 267.589 58.0885 267.094 57.5547C266.605 57.0143 266.228 56.3438 265.961 55.543C265.701 54.7422 265.57 53.8145 265.57 52.7598C265.57 51.7116 265.717 50.7741 266.01 49.9473C266.303 49.1139 266.713 48.4108 267.24 47.8379C267.774 47.2585 268.412 46.819 269.154 46.5195C269.903 46.2135 270.727 46.0605 271.625 46.0605C272.198 46.0605 272.742 46.1126 273.256 46.2168C273.777 46.3145 274.275 46.474 274.75 46.6953V48.4238ZM285.639 58.5215C284.617 58.9447 283.546 59.1562 282.426 59.1562C280.622 59.1562 279.236 58.6191 278.266 57.5449C277.302 56.4642 276.82 54.8691 276.82 52.7598C276.82 51.7376 276.954 50.8132 277.221 49.9863C277.488 49.1595 277.868 48.4596 278.363 47.8867C278.858 47.3073 279.457 46.8613 280.16 46.5488C280.863 46.2363 281.651 46.0801 282.523 46.0801C283.116 46.0801 283.666 46.1322 284.174 46.2363C284.682 46.334 285.17 46.487 285.639 46.6953V48.4043C285.176 48.1504 284.698 47.9583 284.203 47.8281C283.708 47.6914 283.168 47.623 282.582 47.623C281.983 47.623 281.439 47.737 280.951 47.9648C280.469 48.1862 280.059 48.5117 279.721 48.9414C279.382 49.3646 279.122 49.8854 278.939 50.5039C278.757 51.1159 278.666 51.8158 278.666 52.6035C278.666 54.2572 279.001 55.5039 279.672 56.3438C280.342 57.1836 281.326 57.6035 282.621 57.6035C283.168 57.6035 283.692 57.5417 284.193 57.418C284.695 57.2878 285.176 57.1087 285.639 56.8809V58.5215ZM296.742 48.4238C296.267 48.1699 295.779 47.9746 295.277 47.8379C294.776 47.6947 294.229 47.623 293.637 47.623C292.96 47.623 292.357 47.7435 291.83 47.9844C291.303 48.2253 290.857 48.5671 290.492 49.0098C290.134 49.446 289.857 49.9733 289.662 50.5918C289.473 51.2103 289.379 51.8939 289.379 52.6426C289.379 53.4238 289.457 54.1237 289.613 54.7422C289.77 55.3607 290.014 55.8848 290.346 56.3145C290.678 56.7441 291.101 57.0729 291.615 57.3008C292.136 57.5286 292.758 57.6426 293.48 57.6426C293.604 57.6426 293.738 57.6361 293.881 57.623C294.024 57.61 294.167 57.5938 294.311 57.5742C294.454 57.5482 294.59 57.5189 294.721 57.4863C294.857 57.4538 294.978 57.418 295.082 57.3789V53.3164H292.475V51.8809H296.801V58.4043C296.534 58.528 296.251 58.6387 295.951 58.7363C295.658 58.834 295.355 58.9154 295.043 58.9805C294.737 59.0456 294.431 59.0944 294.125 59.127C293.819 59.1595 293.523 59.1758 293.236 59.1758C292.364 59.1758 291.576 59.0391 290.873 58.7656C290.176 58.4922 289.581 58.0885 289.086 57.5547C288.598 57.0143 288.22 56.3438 287.953 55.543C287.693 54.7422 287.562 53.8145 287.562 52.7598C287.562 51.7116 287.709 50.7741 288.002 49.9473C288.295 49.1139 288.705 48.4108 289.232 47.8379C289.766 47.2585 290.404 46.819 291.146 46.5195C291.895 46.2135 292.719 46.0605 293.617 46.0605C294.19 46.0605 294.734 46.1126 295.248 46.2168C295.769 46.3145 296.267 46.474 296.742 46.6953V48.4238ZM308.07 47.7207H304.291V59H302.533V47.7207H298.754V46.2363H308.07V47.7207ZM319.809 59H317.914L317.025 56.2168H311.713L310.814 59H309.008L313.246 46.2363H315.629L319.809 59ZM316.527 54.6641L314.369 47.8379L312.211 54.6641H316.527ZM329.73 48.4238C329.255 48.1699 328.767 47.9746 328.266 47.8379C327.764 47.6947 327.217 47.623 326.625 47.623C325.948 47.623 325.346 47.7435 324.818 47.9844C324.291 48.2253 323.845 48.5671 323.48 49.0098C323.122 49.446 322.846 49.9733 322.65 50.5918C322.462 51.2103 322.367 51.8939 322.367 52.6426C322.367 53.4238 322.445 54.1237 322.602 54.7422C322.758 55.3607 323.002 55.8848 323.334 56.3145C323.666 56.7441 324.089 57.0729 324.604 57.3008C325.124 57.5286 325.746 57.6426 326.469 57.6426C326.592 57.6426 326.726 57.6361 326.869 57.623C327.012 57.61 327.156 57.5938 327.299 57.5742C327.442 57.5482 327.579 57.5189 327.709 57.4863C327.846 57.4538 327.966 57.418 328.07 57.3789V53.3164H325.463V51.8809H329.789V58.4043C329.522 58.528 329.239 58.6387 328.939 58.7363C328.646 58.834 328.344 58.9154 328.031 58.9805C327.725 59.0456 327.419 59.0944 327.113 59.127C326.807 59.1595 326.511 59.1758 326.225 59.1758C325.352 59.1758 324.564 59.0391 323.861 58.7656C323.165 58.4922 322.569 58.0885 322.074 57.5547C321.586 57.0143 321.208 56.3438 320.941 55.543C320.681 54.7422 320.551 53.8145 320.551 52.7598C320.551 51.7116 320.697 50.7741 320.99 49.9473C321.283 49.1139 321.693 48.4108 322.221 47.8379C322.755 47.2585 323.393 46.819 324.135 46.5195C324.883 46.2135 325.707 46.0605 326.605 46.0605C327.178 46.0605 327.722 46.1126 328.236 46.2168C328.757 46.3145 329.255 46.474 329.73 46.6953V48.4238ZM340.619 58.5215C339.597 58.9447 338.526 59.1562 337.406 59.1562C335.603 59.1562 334.216 58.6191 333.246 57.5449C332.283 56.4642 331.801 54.8691 331.801 52.7598C331.801 51.7376 331.934 50.8132 332.201 49.9863C332.468 49.1595 332.849 48.4596 333.344 47.8867C333.839 47.3073 334.438 46.8613 335.141 46.5488C335.844 46.2363 336.632 46.0801 337.504 46.0801C338.096 46.0801 338.646 46.1322 339.154 46.2363C339.662 46.334 340.15 46.487 340.619 46.6953V48.4043C340.157 48.1504 339.678 47.9583 339.184 47.8281C338.689 47.6914 338.148 47.623 337.562 47.623C336.964 47.623 336.42 47.737 335.932 47.9648C335.45 48.1862 335.04 48.5117 334.701 48.9414C334.363 49.3646 334.102 49.8854 333.92 50.5039C333.738 51.1159 333.646 51.8158 333.646 52.6035C333.646 54.2572 333.982 55.5039 334.652 56.3438C335.323 57.1836 336.306 57.6035 337.602 57.6035C338.148 57.6035 338.673 57.5417 339.174 57.418C339.675 57.2878 340.157 57.1087 340.619 56.8809V58.5215ZM351.723 48.4238C351.247 48.1699 350.759 47.9746 350.258 47.8379C349.757 47.6947 349.21 47.623 348.617 47.623C347.94 47.623 347.338 47.7435 346.811 47.9844C346.283 48.2253 345.837 48.5671 345.473 49.0098C345.115 49.446 344.838 49.9733 344.643 50.5918C344.454 51.2103 344.359 51.8939 344.359 52.6426C344.359 53.4238 344.438 54.1237 344.594 54.7422C344.75 55.3607 344.994 55.8848 345.326 56.3145C345.658 56.7441 346.081 57.0729 346.596 57.3008C347.117 57.5286 347.738 57.6426 348.461 57.6426C348.585 57.6426 348.718 57.6361 348.861 57.623C349.005 57.61 349.148 57.5938 349.291 57.5742C349.434 57.5482 349.571 57.5189 349.701 57.4863C349.838 57.4538 349.958 57.418 350.062 57.3789V53.3164H347.455V51.8809H351.781V58.4043C351.514 58.528 351.231 58.6387 350.932 58.7363C350.639 58.834 350.336 58.9154 350.023 58.9805C349.717 59.0456 349.411 59.0944 349.105 59.127C348.799 59.1595 348.503 59.1758 348.217 59.1758C347.344 59.1758 346.557 59.0391 345.854 58.7656C345.157 58.4922 344.561 58.0885 344.066 57.5547C343.578 57.0143 343.201 56.3438 342.934 55.543C342.673 54.7422 342.543 53.8145 342.543 52.7598C342.543 51.7116 342.689 50.7741 342.982 49.9473C343.275 49.1139 343.686 48.4108 344.213 47.8379C344.747 47.2585 345.385 46.819 346.127 46.5195C346.876 46.2135 347.699 46.0605 348.598 46.0605C349.171 46.0605 349.714 46.1126 350.229 46.2168C350.749 46.3145 351.247 46.474 351.723 46.6953V48.4238ZM362.719 48.4238C362.243 48.1699 361.755 47.9746 361.254 47.8379C360.753 47.6947 360.206 47.623 359.613 47.623C358.936 47.623 358.334 47.7435 357.807 47.9844C357.279 48.2253 356.833 48.5671 356.469 49.0098C356.111 49.446 355.834 49.9733 355.639 50.5918C355.45 51.2103 355.355 51.8939 355.355 52.6426C355.355 53.4238 355.434 54.1237 355.59 54.7422C355.746 55.3607 355.99 55.8848 356.322 56.3145C356.654 56.7441 357.077 57.0729 357.592 57.3008C358.113 57.5286 358.734 57.6426 359.457 57.6426C359.581 57.6426 359.714 57.6361 359.857 57.623C360.001 57.61 360.144 57.5938 360.287 57.5742C360.43 57.5482 360.567 57.5189 360.697 57.4863C360.834 57.4538 360.954 57.418 361.059 57.3789V53.3164H358.451V51.8809H362.777V58.4043C362.51 58.528 362.227 58.6387 361.928 58.7363C361.635 58.834 361.332 58.9154 361.02 58.9805C360.714 59.0456 360.408 59.0944 360.102 59.127C359.796 59.1595 359.499 59.1758 359.213 59.1758C358.34 59.1758 357.553 59.0391 356.85 58.7656C356.153 58.4922 355.557 58.0885 355.062 57.5547C354.574 57.0143 354.197 56.3438 353.93 55.543C353.669 54.7422 353.539 53.8145 353.539 52.7598C353.539 51.7116 353.686 50.7741 353.979 49.9473C354.271 49.1139 354.682 48.4108 355.209 47.8379C355.743 47.2585 356.381 46.819 357.123 46.5195C357.872 46.2135 358.695 46.0605 359.594 46.0605C360.167 46.0605 360.71 46.1126 361.225 46.2168C361.745 46.3145 362.243 46.474 362.719 46.6953V48.4238ZM373.607 58.5215C372.585 58.9447 371.514 59.1562 370.395 59.1562C368.591 59.1562 367.204 58.6191 366.234 57.5449C365.271 56.4642 364.789 54.8691 364.789 52.7598C364.789 51.7376 364.923 50.8132 365.189 49.9863C365.456 49.1595 365.837 48.4596 366.332 47.8867C366.827 47.3073 367.426 46.8613 368.129 46.5488C368.832 46.2363 369.62 46.0801 370.492 46.0801C371.085 46.0801 371.635 46.1322 372.143 46.2363C372.65 46.334 373.139 46.487 373.607 46.6953V48.4043C373.145 48.1504 372.667 47.9583 372.172 47.8281C371.677 47.6914 371.137 47.623 370.551 47.623C369.952 47.623 369.408 47.737 368.92 47.9648C368.438 48.1862 368.028 48.5117 367.689 48.9414C367.351 49.3646 367.09 49.8854 366.908 50.5039C366.726 51.1159 366.635 51.8158 366.635 52.6035C366.635 54.2572 366.97 55.5039 367.641 56.3438C368.311 57.1836 369.294 57.6035 370.59 57.6035C371.137 57.6035 371.661 57.5417 372.162 57.418C372.663 57.2878 373.145 57.1087 373.607 56.8809V58.5215ZM384.711 48.4238C384.236 48.1699 383.747 47.9746 383.246 47.8379C382.745 47.6947 382.198 47.623 381.605 47.623C380.928 47.623 380.326 47.7435 379.799 47.9844C379.271 48.2253 378.826 48.5671 378.461 49.0098C378.103 49.446 377.826 49.9733 377.631 50.5918C377.442 51.2103 377.348 51.8939 377.348 52.6426C377.348 53.4238 377.426 54.1237 377.582 54.7422C377.738 55.3607 377.982 55.8848 378.314 56.3145C378.646 56.7441 379.07 57.0729 379.584 57.3008C380.105 57.5286 380.727 57.6426 381.449 57.6426C381.573 57.6426 381.706 57.6361 381.85 57.623C381.993 57.61 382.136 57.5938 382.279 57.5742C382.423 57.5482 382.559 57.5189 382.689 57.4863C382.826 57.4538 382.947 57.418 383.051 57.3789V53.3164H380.443V51.8809H384.77V58.4043C384.503 58.528 384.219 58.6387 383.92 58.7363C383.627 58.834 383.324 58.9154 383.012 58.9805C382.706 59.0456 382.4 59.0944 382.094 59.127C381.788 59.1595 381.492 59.1758 381.205 59.1758C380.333 59.1758 379.545 59.0391 378.842 58.7656C378.145 58.4922 377.549 58.0885 377.055 57.5547C376.566 57.0143 376.189 56.3438 375.922 55.543C375.661 54.7422 375.531 53.8145 375.531 52.7598C375.531 51.7116 375.678 50.7741 375.971 49.9473C376.264 49.1139 376.674 48.4108 377.201 47.8379C377.735 47.2585 378.373 46.819 379.115 46.5195C379.864 46.2135 380.688 46.0605 381.586 46.0605C382.159 46.0605 382.702 46.1126 383.217 46.2168C383.738 46.3145 384.236 46.474 384.711 46.6953V48.4238ZM396.781 59H394.887L393.998 56.2168H388.686L387.787 59H385.98L390.219 46.2363H392.602L396.781 59ZM393.5 54.6641L391.342 47.8379L389.184 54.6641H393.5ZM407.777 59H405.883L404.994 56.2168H399.682L398.783 59H396.977L401.215 46.2363H403.598L407.777 59ZM404.496 54.6641L402.338 47.8379L400.18 54.6641H404.496ZM65.9219 73.1426C65.9219 73.6634 65.8242 74.181 65.6289 74.6953C65.4336 75.2031 65.1309 75.6589 64.7207 76.0625C64.3105 76.4661 63.7865 76.7949 63.1484 77.0488C62.5104 77.2962 61.7487 77.4199 60.8633 77.4199H59.2812V82H57.543V69.2363H61.1367C61.7682 69.2363 62.3737 69.3079 62.9531 69.4512C63.5326 69.5879 64.0404 69.8125 64.4766 70.125C64.9193 70.4375 65.2708 70.8411 65.5312 71.3359C65.7917 71.8307 65.9219 72.4329 65.9219 73.1426ZM64.1152 73.2207C64.1152 72.4004 63.8451 71.7721 63.3047 71.3359C62.7708 70.8997 62.0221 70.6816 61.0586 70.6816H59.2812V75.9355H60.9023C61.931 75.9355 62.722 75.7109 63.2754 75.2617C63.8353 74.8125 64.1152 74.1322 64.1152 73.2207ZM72.4941 72.0195C72.696 72.0195 72.888 72.0618 73.0703 72.1465C73.2526 72.2246 73.4121 72.332 73.5488 72.4688C73.6855 72.6055 73.793 72.765 73.8711 72.9473C73.9557 73.1296 73.998 73.3216 73.998 73.5234C73.998 73.7318 73.9557 73.9271 73.8711 74.1094C73.793 74.2852 73.6855 74.4414 73.5488 74.5781C73.4121 74.7148 73.2526 74.8223 73.0703 74.9004C72.888 74.9785 72.696 75.0176 72.4941 75.0176C72.2858 75.0176 72.0905 74.9785 71.9082 74.9004C71.7324 74.8223 71.5762 74.7148 71.4395 74.5781C71.3027 74.4414 71.1953 74.2852 71.1172 74.1094C71.0391 73.9271 71 73.7318 71 73.5234C71 73.3216 71.0391 73.1296 71.1172 72.9473C71.1953 72.765 71.3027 72.6055 71.4395 72.4688C71.5762 72.332 71.7324 72.2246 71.9082 72.1465C72.0905 72.0618 72.2858 72.0195 72.4941 72.0195ZM72.4941 79.1777C72.696 79.1777 72.888 79.2201 73.0703 79.3047C73.2526 79.3828 73.4121 79.4902 73.5488 79.627C73.6855 79.7637 73.793 79.9232 73.8711 80.1055C73.9557 80.2878 73.998 80.4798 73.998 80.6816C73.998 80.89 73.9557 81.0853 73.8711 81.2676C73.793 81.4434 73.6855 81.5996 73.5488 81.7363C73.4121 81.873 73.2526 81.9805 73.0703 82.0586C72.888 82.1367 72.696 82.1758 72.4941 82.1758C72.2858 82.1758 72.0905 82.1367 71.9082 82.0586C71.7324 81.9805 71.5762 81.873 71.4395 81.7363C71.3027 81.5996 71.1953 81.4434 71.1172 81.2676C71.0391 81.0853 71 80.89 71 80.6816C71 80.4798 71.0391 80.2878 71.1172 80.1055C71.1953 79.9232 71.3027 79.7637 71.4395 79.627C71.5762 79.4902 71.7324 79.3828 71.9082 79.3047C72.0905 79.2201 72.2858 79.1777 72.4941 79.1777ZM175.785 71.4238C175.31 71.1699 174.822 70.9746 174.32 70.8379C173.819 70.6947 173.272 70.623 172.68 70.623C172.003 70.623 171.4 70.7435 170.873 70.9844C170.346 71.2253 169.9 71.5671 169.535 72.0098C169.177 72.446 168.9 72.9733 168.705 73.5918C168.516 74.2103 168.422 74.8939 168.422 75.6426C168.422 76.4238 168.5 77.1237 168.656 77.7422C168.812 78.3607 169.057 78.8848 169.389 79.3145C169.721 79.7441 170.144 80.0729 170.658 80.3008C171.179 80.5286 171.801 80.6426 172.523 80.6426C172.647 80.6426 172.781 80.6361 172.924 80.623C173.067 80.61 173.21 80.5938 173.354 80.5742C173.497 80.5482 173.633 80.5189 173.764 80.4863C173.9 80.4538 174.021 80.418 174.125 80.3789V76.3164H171.518V74.8809H175.844V81.4043C175.577 81.528 175.294 81.6387 174.994 81.7363C174.701 81.834 174.398 81.9154 174.086 81.9805C173.78 82.0456 173.474 82.0944 173.168 82.127C172.862 82.1595 172.566 82.1758 172.279 82.1758C171.407 82.1758 170.619 82.0391 169.916 81.7656C169.219 81.4922 168.624 81.0885 168.129 80.5547C167.641 80.0143 167.263 79.3438 166.996 78.543C166.736 77.7422 166.605 76.8145 166.605 75.7598C166.605 74.7116 166.752 73.7741 167.045 72.9473C167.338 72.1139 167.748 71.4108 168.275 70.8379C168.809 70.2585 169.447 69.819 170.189 69.5195C170.938 69.2135 171.762 69.0605 172.66 69.0605C173.233 69.0605 173.777 69.1126 174.291 69.2168C174.812 69.3145 175.31 69.474 175.785 69.6953V71.4238ZM187.113 70.7207H183.334V82H181.576V70.7207H177.797V69.2363H187.113V70.7207ZM198.852 82H196.957L196.068 79.2168H190.756L189.857 82H188.051L192.289 69.2363H194.672L198.852 82ZM195.57 77.6641L193.412 70.8379L191.254 77.6641H195.57ZM208.773 71.4238C208.298 71.1699 207.81 70.9746 207.309 70.8379C206.807 70.6947 206.26 70.623 205.668 70.623C204.991 70.623 204.389 70.7435 203.861 70.9844C203.334 71.2253 202.888 71.5671 202.523 72.0098C202.165 72.446 201.889 72.9733 201.693 73.5918C201.505 74.2103 201.41 74.8939 201.41 75.6426C201.41 76.4238 201.488 77.1237 201.645 77.7422C201.801 78.3607 202.045 78.8848 202.377 79.3145C202.709 79.7441 203.132 80.0729 203.646 80.3008C204.167 80.5286 204.789 80.6426 205.512 80.6426C205.635 80.6426 205.769 80.6361 205.912 80.623C206.055 80.61 206.199 80.5938 206.342 80.5742C206.485 80.5482 206.622 80.5189 206.752 80.4863C206.889 80.4538 207.009 80.418 207.113 80.3789V76.3164H204.506V74.8809H208.832V81.4043C208.565 81.528 208.282 81.6387 207.982 81.7363C207.689 81.834 207.387 81.9154 207.074 81.9805C206.768 82.0456 206.462 82.0944 206.156 82.127C205.85 82.1595 205.554 82.1758 205.268 82.1758C204.395 82.1758 203.607 82.0391 202.904 81.7656C202.208 81.4922 201.612 81.0885 201.117 80.5547C200.629 80.0143 200.251 79.3438 199.984 78.543C199.724 77.7422 199.594 76.8145 199.594 75.7598C199.594 74.7116 199.74 73.7741 200.033 72.9473C200.326 72.1139 200.736 71.4108 201.264 70.8379C201.798 70.2585 202.436 69.819 203.178 69.5195C203.926 69.2135 204.75 69.0605 205.648 69.0605C206.221 69.0605 206.765 69.1126 207.279 69.2168C207.8 69.3145 208.298 69.474 208.773 69.6953V71.4238ZM219.662 81.5215C218.64 81.9447 217.569 82.1562 216.449 82.1562C214.646 82.1562 213.259 81.6191 212.289 80.5449C211.326 79.4642 210.844 77.8691 210.844 75.7598C210.844 74.7376 210.977 73.8132 211.244 72.9863C211.511 72.1595 211.892 71.4596 212.387 70.8867C212.882 70.3073 213.48 69.8613 214.184 69.5488C214.887 69.2363 215.674 69.0801 216.547 69.0801C217.139 69.0801 217.689 69.1322 218.197 69.2363C218.705 69.334 219.193 69.487 219.662 69.6953V71.4043C219.2 71.1504 218.721 70.9583 218.227 70.8281C217.732 70.6914 217.191 70.623 216.605 70.623C216.007 70.623 215.463 70.737 214.975 70.9648C214.493 71.1862 214.083 71.5117 213.744 71.9414C213.406 72.3646 213.145 72.8854 212.963 73.5039C212.781 74.1159 212.689 74.8158 212.689 75.6035C212.689 77.2572 213.025 78.5039 213.695 79.3438C214.366 80.1836 215.349 80.6035 216.645 80.6035C217.191 80.6035 217.715 80.5417 218.217 80.418C218.718 80.2878 219.2 80.1087 219.662 79.8809V81.5215Z" fill="#C9D1D9"/>
<path d="M230.658 58.5215C229.636 58.9447 228.565 59.1562 227.445 59.1562C225.642 59.1562 224.255 58.6191 223.285 57.5449C222.322 56.4642 221.84 54.8691 221.84 52.7598C221.84 51.7376 221.973 50.8132 222.24 49.9863C222.507 49.1595 222.888 48.4596 223.383 47.8867C223.878 47.3073 224.477 46.8613 225.18 46.5488C225.883 46.2363 226.671 46.0801 227.543 46.0801C228.135 46.0801 228.686 46.1322 229.193 46.2363C229.701 46.334 230.189 46.487 230.658 46.6953V48.4043C230.196 48.1504 229.717 47.9583 229.223 47.8281C228.728 47.6914 228.188 47.623 227.602 47.623C227.003 47.623 226.459 47.737 225.971 47.9648C225.489 48.1862 225.079 48.5117 224.74 48.9414C224.402 49.3646 224.141 49.8854 223.959 50.5039C223.777 51.1159 223.686 51.8158 223.686 52.6035C223.686 54.2572 224.021 55.5039 224.691 56.3438C225.362 57.1836 226.345 57.6035 227.641 57.6035C228.188 57.6035 228.712 57.5417 229.213 57.418C229.714 57.2878 230.196 57.1087 230.658 56.8809V58.5215ZM230.766 71.4238C230.29 71.1699 229.802 70.9746 229.301 70.8379C228.799 70.6947 228.253 70.623 227.66 70.623C226.983 70.623 226.381 70.7435 225.854 70.9844C225.326 71.2253 224.88 71.5671 224.516 72.0098C224.158 72.446 223.881 72.9733 223.686 73.5918C223.497 74.2103 223.402 74.8939 223.402 75.6426C223.402 76.4238 223.48 77.1237 223.637 77.7422C223.793 78.3607 224.037 78.8848 224.369 79.3145C224.701 79.7441 225.124 80.0729 225.639 80.3008C226.16 80.5286 226.781 80.6426 227.504 80.6426C227.628 80.6426 227.761 80.6361 227.904 80.623C228.048 80.61 228.191 80.5938 228.334 80.5742C228.477 80.5482 228.614 80.5189 228.744 80.4863C228.881 80.4538 229.001 80.418 229.105 80.3789V76.3164H226.498V74.8809H230.824V81.4043C230.557 81.528 230.274 81.6387 229.975 81.7363C229.682 81.834 229.379 81.9154 229.066 81.9805C228.76 82.0456 228.454 82.0944 228.148 82.127C227.842 82.1595 227.546 82.1758 227.26 82.1758C226.387 82.1758 225.6 82.0391 224.896 81.7656C224.2 81.4922 223.604 81.0885 223.109 80.5547C222.621 80.0143 222.243 79.3438 221.977 78.543C221.716 77.7422 221.586 76.8145 221.586 75.7598C221.586 74.7116 221.732 73.7741 222.025 72.9473C222.318 72.1139 222.729 71.4108 223.256 70.8379C223.79 70.2585 224.428 69.819 225.17 69.5195C225.919 69.2135 226.742 69.0605 227.641 69.0605C228.214 69.0605 228.757 69.1126 229.271 69.2168C229.792 69.3145 230.29 69.474 230.766 69.6953V71.4238Z" fill="#E30310"/>
<path d="M241.762 48.4238C241.286 48.1699 240.798 47.9746 240.297 47.8379C239.796 47.6947 239.249 47.623 238.656 47.623C237.979 47.623 237.377 47.7435 236.85 47.9844C236.322 48.2253 235.876 48.5671 235.512 49.0098C235.154 49.446 234.877 49.9733 234.682 50.5918C234.493 51.2103 234.398 51.8939 234.398 52.6426C234.398 53.4238 234.477 54.1237 234.633 54.7422C234.789 55.3607 235.033 55.8848 235.365 56.3145C235.697 56.7441 236.12 57.0729 236.635 57.3008C237.156 57.5286 237.777 57.6426 238.5 57.6426C238.624 57.6426 238.757 57.6361 238.9 57.623C239.044 57.61 239.187 57.5938 239.33 57.5742C239.473 57.5482 239.61 57.5189 239.74 57.4863C239.877 57.4538 239.997 57.418 240.102 57.3789V53.3164H237.494V51.8809H241.82V58.4043C241.553 58.528 241.27 58.6387 240.971 58.7363C240.678 58.834 240.375 58.9154 240.062 58.9805C239.757 59.0456 239.451 59.0944 239.145 59.127C238.839 59.1595 238.542 59.1758 238.256 59.1758C237.383 59.1758 236.596 59.0391 235.893 58.7656C235.196 58.4922 234.6 58.0885 234.105 57.5547C233.617 57.0143 233.24 56.3438 232.973 55.543C232.712 54.7422 232.582 53.8145 232.582 52.7598C232.582 51.7116 232.729 50.7741 233.021 49.9473C233.314 49.1139 233.725 48.4108 234.252 47.8379C234.786 47.2585 235.424 46.819 236.166 46.5195C236.915 46.2135 237.738 46.0605 238.637 46.0605C239.21 46.0605 239.753 46.1126 240.268 46.2168C240.788 46.3145 241.286 46.474 241.762 46.6953V48.4238ZM252.65 58.5215C251.628 58.9447 250.557 59.1562 249.438 59.1562C247.634 59.1562 246.247 58.6191 245.277 57.5449C244.314 56.4642 243.832 54.8691 243.832 52.7598C243.832 51.7376 243.965 50.8132 244.232 49.9863C244.499 49.1595 244.88 48.4596 245.375 47.8867C245.87 47.3073 246.469 46.8613 247.172 46.5488C247.875 46.2363 248.663 46.0801 249.535 46.0801C250.128 46.0801 250.678 46.1322 251.186 46.2363C251.693 46.334 252.182 46.487 252.65 46.6953V48.4043C252.188 48.1504 251.71 47.9583 251.215 47.8281C250.72 47.6914 250.18 47.623 249.594 47.623C248.995 47.623 248.451 47.737 247.963 47.9648C247.481 48.1862 247.071 48.5117 246.732 48.9414C246.394 49.3646 246.133 49.8854 245.951 50.5039C245.769 51.1159 245.678 51.8158 245.678 52.6035C245.678 54.2572 246.013 55.5039 246.684 56.3438C247.354 57.1836 248.337 57.6035 249.633 57.6035C250.18 57.6035 250.704 57.5417 251.205 57.418C251.706 57.2878 252.188 57.1087 252.65 56.8809V58.5215ZM263.754 48.4238C263.279 48.1699 262.79 47.9746 262.289 47.8379C261.788 47.6947 261.241 47.623 260.648 47.623C259.971 47.623 259.369 47.7435 258.842 47.9844C258.314 48.2253 257.868 48.5671 257.504 49.0098C257.146 49.446 256.869 49.9733 256.674 50.5918C256.485 51.2103 256.391 51.8939 256.391 52.6426C256.391 53.4238 256.469 54.1237 256.625 54.7422C256.781 55.3607 257.025 55.8848 257.357 56.3145C257.689 56.7441 258.113 57.0729 258.627 57.3008C259.148 57.5286 259.77 57.6426 260.492 57.6426C260.616 57.6426 260.749 57.6361 260.893 57.623C261.036 57.61 261.179 57.5938 261.322 57.5742C261.465 57.5482 261.602 57.5189 261.732 57.4863C261.869 57.4538 261.99 57.418 262.094 57.3789V53.3164H259.486V51.8809H263.812V58.4043C263.546 58.528 263.262 58.6387 262.963 58.7363C262.67 58.834 262.367 58.9154 262.055 58.9805C261.749 59.0456 261.443 59.0944 261.137 59.127C260.831 59.1595 260.535 59.1758 260.248 59.1758C259.376 59.1758 258.588 59.0391 257.885 58.7656C257.188 58.4922 256.592 58.0885 256.098 57.5547C255.609 57.0143 255.232 56.3438 254.965 55.543C254.704 54.7422 254.574 53.8145 254.574 52.7598C254.574 51.7116 254.721 50.7741 255.014 49.9473C255.307 49.1139 255.717 48.4108 256.244 47.8379C256.778 47.2585 257.416 46.819 258.158 46.5195C258.907 46.2135 259.73 46.0605 260.629 46.0605C261.202 46.0605 261.745 46.1126 262.26 46.2168C262.781 46.3145 263.279 46.474 263.754 46.6953V48.4238ZM241.762 71.4238C241.286 71.1699 240.798 70.9746 240.297 70.8379C239.796 70.6947 239.249 70.623 238.656 70.623C237.979 70.623 237.377 70.7435 236.85 70.9844C236.322 71.2253 235.876 71.5671 235.512 72.0098C235.154 72.446 234.877 72.9733 234.682 73.5918C234.493 74.2103 234.398 74.8939 234.398 75.6426C234.398 76.4238 234.477 77.1237 234.633 77.7422C234.789 78.3607 235.033 78.8848 235.365 79.3145C235.697 79.7441 236.12 80.0729 236.635 80.3008C237.156 80.5286 237.777 80.6426 238.5 80.6426C238.624 80.6426 238.757 80.6361 238.9 80.623C239.044 80.61 239.187 80.5938 239.33 80.5742C239.473 80.5482 239.61 80.5189 239.74 80.4863C239.877 80.4538 239.997 80.418 240.102 80.3789V76.3164H237.494V74.8809H241.82V81.4043C241.553 81.528 241.27 81.6387 240.971 81.7363C240.678 81.834 240.375 81.9154 240.062 81.9805C239.757 82.0456 239.451 82.0944 239.145 82.127C238.839 82.1595 238.542 82.1758 238.256 82.1758C237.383 82.1758 236.596 82.0391 235.893 81.7656C235.196 81.4922 234.6 81.0885 234.105 80.5547C233.617 80.0143 233.24 79.3438 232.973 78.543C232.712 77.7422 232.582 76.8145 232.582 75.7598C232.582 74.7116 232.729 73.7741 233.021 72.9473C233.314 72.1139 233.725 71.4108 234.252 70.8379C234.786 70.2585 235.424 69.819 236.166 69.5195C236.915 69.2135 237.738 69.0605 238.637 69.0605C239.21 69.0605 239.753 69.1126 240.268 69.2168C240.788 69.3145 241.286 69.474 241.762 69.6953V71.4238ZM252.65 81.5215C251.628 81.9447 250.557 82.1562 249.438 82.1562C247.634 82.1562 246.247 81.6191 245.277 80.5449C244.314 79.4642 243.832 77.8691 243.832 75.7598C243.832 74.7376 243.965 73.8132 244.232 72.9863C244.499 72.1595 244.88 71.4596 245.375 70.8867C245.87 70.3073 246.469 69.8613 247.172 69.5488C247.875 69.2363 248.663 69.0801 249.535 69.0801C250.128 69.0801 250.678 69.1322 251.186 69.2363C251.693 69.334 252.182 69.487 252.65 69.6953V71.4043C252.188 71.1504 251.71 70.9583 251.215 70.8281C250.72 70.6914 250.18 70.623 249.594 70.623C248.995 70.623 248.451 70.737 247.963 70.9648C247.481 71.1862 247.071 71.5117 246.732 71.9414C246.394 72.3646 246.133 72.8854 245.951 73.5039C245.769 74.1159 245.678 74.8158 245.678 75.6035C245.678 77.2572 246.013 78.5039 246.684 79.3438C247.354 80.1836 248.337 80.6035 249.633 80.6035C250.18 80.6035 250.704 80.5417 251.205 80.418C251.706 80.2878 252.188 80.1087 252.65 79.8809V81.5215ZM263.754 71.4238C263.279 71.1699 262.79 70.9746 262.289 70.8379C261.788 70.6947 261.241 70.623 260.648 70.623C259.971 70.623 259.369 70.7435 258.842 70.9844C258.314 71.2253 257.868 71.5671 257.504 72.0098C257.146 72.446 256.869 72.9733 256.674 73.5918C256.485 74.2103 256.391 74.8939 256.391 75.6426C256.391 76.4238 256.469 77.1237 256.625 77.7422C256.781 78.3607 257.025 78.8848 257.357 79.3145C257.689 79.7441 258.113 80.0729 258.627 80.3008C259.148 80.5286 259.77 80.6426 260.492 80.6426C260.616 80.6426 260.749 80.6361 260.893 80.623C261.036 80.61 261.179 80.5938 261.322 80.5742C261.465 80.5482 261.602 80.5189 261.732 80.4863C261.869 80.4538 261.99 80.418 262.094 80.3789V76.3164H259.486V74.8809H263.812V81.4043C263.546 81.528 263.262 81.6387 262.963 81.7363C262.67 81.834 262.367 81.9154 262.055 81.9805C261.749 82.0456 261.443 82.0944 261.137 82.127C260.831 82.1595 260.535 82.1758 260.248 82.1758C259.376 82.1758 258.588 82.0391 257.885 81.7656C257.188 81.4922 256.592 81.0885 256.098 80.5547C255.609 80.0143 255.232 79.3438 254.965 78.543C254.704 77.7422 254.574 76.8145 254.574 75.7598C254.574 74.7116 254.721 73.7741 255.014 72.9473C255.307 72.1139 255.717 71.4108 256.244 70.8379C256.778 70.2585 257.416 69.819 258.158 69.5195C258.907 69.2135 259.73 69.0605 260.629 69.0605C261.202 69.0605 261.745 69.1126 262.26 69.2168C262.781 69.3145 263.279 69.474 263.754 69.6953V71.4238Z" fill="#989B05"/>
<g filter="url(#filter1_d)">
<path d="M4.45312 19V7.23438H5.92188V14.9062L9.88281 10.7188H11.4922L8.125 14.3594L11.8281 19H10.1328L7.16406 15.1562L5.92188 16.3906V19H4.45312ZM14.625 16.6641C14.625 17.5859 15.2786 18.0469 16.5859 18.0469C17.8932 18.0469 18.5469 17.5859 18.5469 16.6641V13.0781C18.5469 12.151 17.8932 11.6875 16.5859 11.6875C15.2786 11.6875 14.625 12.151 14.625 13.0781V16.6641ZM20.0156 16.5391C20.0156 17.3516 19.737 17.9948 19.1797 18.4688C18.6276 18.9375 17.7604 19.1719 16.5781 19.1719C15.3958 19.1719 14.5286 18.9375 13.9766 18.4688C13.4297 18 13.1562 17.3568 13.1562 16.5391V13.2031C13.1562 12.3854 13.4297 11.7422 13.9766 11.2734C14.5286 10.7995 15.3958 10.5625 16.5781 10.5625C17.7604 10.5625 18.6276 10.7995 19.1797 11.2734C19.737 11.7474 20.0156 12.3906 20.0156 13.2031V16.5391ZM22.625 19V10.7188H24.0938V11.8906C24.2812 11.3802 24.7891 11.0104 25.6172 10.7812C26.0495 10.6562 26.5 10.5964 26.9688 10.6016L26.9219 11.8594C26.2135 11.8594 25.5651 12 24.9766 12.2812C24.388 12.5625 24.0938 12.8698 24.0938 13.2031V19H22.625ZM31.0547 19.1719C30.2161 19.1719 29.5651 18.9453 29.1016 18.4922C28.638 18.0339 28.4062 17.4661 28.4062 16.7891C28.4062 16.4036 28.487 16.0833 28.6484 15.8281C28.9766 15.3073 29.9557 14.8099 31.5859 14.3359C32.5286 14.0755 33.0703 13.8516 33.2109 13.6641C33.3568 13.4766 33.4375 13.3307 33.4531 13.2266C33.4688 13.1172 33.4766 12.9453 33.4766 12.7109C33.4766 12.4766 33.3802 12.2474 33.1875 12.0234C33 11.7995 32.5885 11.6875 31.9531 11.6875C31.0573 11.6875 30.5078 11.8594 30.3047 12.2031C30.2005 12.3802 30.1484 12.6198 30.1484 12.9219V13.2891H28.7344V12.9141C28.7344 12.1068 29.0026 11.513 29.5391 11.1328C30.0807 10.7526 30.888 10.5625 31.9609 10.5625C33.0339 10.5625 33.7995 10.8073 34.2578 11.2969C34.7161 11.7812 34.9453 12.474 34.9453 13.375V16.9062C34.9453 17.3385 35 17.6198 35.1094 17.75C35.2188 17.875 35.4531 17.9375 35.8125 17.9375L35.6406 19.0625H35.3438C34.8229 19.0625 34.4349 18.9635 34.1797 18.7656C33.9245 18.5625 33.7292 18.25 33.5938 17.8281C33.1615 18.474 32.6406 18.8802 32.0312 19.0469C31.7396 19.1302 31.4141 19.1719 31.0547 19.1719ZM31.7891 15.3438C31.0495 15.5573 30.5365 15.7708 30.25 15.9844C29.9688 16.1979 29.8281 16.5 29.8281 16.8906C29.8281 17.276 29.9583 17.5677 30.2188 17.7656C30.4844 17.9635 30.8021 18.0625 31.1719 18.0625C31.5469 18.0625 31.8854 18.0156 32.1875 17.9219C32.4896 17.8229 32.7604 17.6797 33 17.4922C33.2448 17.2995 33.4036 17.0807 33.4766 16.8359V14.4453C33.0964 14.8255 32.5339 15.125 31.7891 15.3438ZM37.9844 19V7.23438H39.4531V14.9062L43.4141 10.7188H45.0234L41.6562 14.3594L45.3594 19H43.6641L40.6953 15.1562L39.4531 16.3906V19H37.9844ZM47.3359 19L47.1875 17.7656L51 13.6172C51.6927 12.8672 52.0859 12.4062 52.1797 12.2344C52.2786 12.0573 52.3724 11.8646 52.4609 11.6562C52.5547 11.4479 52.6016 11.1432 52.6016 10.7422C52.6016 10.0286 52.4505 9.52604 52.1484 9.23438C51.8464 8.94271 51.3438 8.79688 50.6406 8.79688C50.2031 8.79688 49.8516 8.82552 49.5859 8.88281C49.3203 8.9401 49.0911 9.04948 48.8984 9.21094C48.5547 9.4974 48.3828 10.0938 48.3828 11H46.8125C46.8125 8.6875 48.0495 7.53125 50.5234 7.53125C51.7109 7.53125 52.6016 7.83333 53.1953 8.4375C53.7891 9.03646 54.0859 9.76562 54.0859 10.625C54.0859 11.4844 53.9297 12.1562 53.6172 12.6406C53.3099 13.125 52.9922 13.5391 52.6641 13.8828C52.3359 14.2214 52.151 14.4141 52.1094 14.4609L48.9766 17.7812H54.0234V19H47.3359Z" fill="#C9D1D9"/>
</g>
<defs>
<filter id="filter0_d" x="220" y="86.636" width="49" height="22.7279" filterUnits="userSpaceOnUse" color-interpolation-filters="sRGB">
<feFlood flood-opacity="0" result="BackgroundImageFix"/>
<feColorMatrix in="SourceAlpha" type="matrix" values="0 0 0 0 0 0 0 0 0 0 0 0 0 0 0 0 0 0 127 0"/>
<feOffset dy="4"/>
<feGaussianBlur stdDeviation="2"/>
<feColorMatrix type="matrix" values="0 0 0 0 0 0 0 0 0 0 0 0 0 0 0 0 0 0 0.25 0"/>
<feBlend mode="normal" in2="BackgroundImageFix" result="effect1_dropShadow"/>
<feBlend mode="normal" in="SourceGraphic" in2="effect1_dropShadow" result="shape"/>
</filter>
<filter id="filter1_d" x="0.453125" y="7.23438" width="57.6328" height="19.9375" filterUnits="userSpaceOnUse" color-interpolation-filters="sRGB">
<feFlood flood-opacity="0" result="BackgroundImageFix"/>
<feColorMatrix in="SourceAlpha" type="matrix" values="0 0 0 0 0 0 0 0 0 0 0 0 0 0 0 0 0 0 127 0"/>
<feOffset dy="4"/>
<feGaussianBlur stdDeviation="2"/>
<feColorMatrix type="matrix" values="0 0 0 0 0 0 0 0 0 0 0 0 0 0 0 0 0 0 0.25 0"/>
<feBlend mode="normal" in2="BackgroundImageFix" result="effect1_dropShadow"/>
<feBlend mode="normal" in="SourceGraphic" in2="effect1_dropShadow" result="shape"/>
</filter>
</defs>
</svg>
