<svg width="545" height="189" viewBox="0 0 545 189" fill="none" xmlns="http://www.w3.org/2000/svg">
<rect x="5.50003" y="0.5" width="76.9104" height="27.5672" fill="#79CCDB" stroke="black"/>
<rect x="462.055" y="0.5" width="76.9104" height="27.5672" fill="#79CCDB" stroke="black"/>
<rect x="81.3329" y="0.5" width="139.239" height="27.5672" fill="#6B6565" stroke="black"/>
<rect x="323.894" y="0.5" width="139.239" height="27.5672" fill="#6B6565" stroke="black"/>
<rect x="219.494" y="0.5" width="105.478" height="27.5672" fill="#C9D1D9" stroke="black"/>
<g filter="url(#filter0_d)">
<path d="M4.2929 44.7406C3.90238 45.1312 3.90238 45.7643 4.2929 46.1549L10.6569 52.5188C11.0474 52.9093 11.6806 52.9093 12.0711 52.5188C12.4616 52.1283 12.4616 51.4951 12.0711 51.1046L6.41422 45.4478L12.0711 39.7909C12.4616 39.4004 12.4616 38.7672 12.0711 38.3767C11.6806 37.9862 11.0474 37.9862 10.6569 38.3767L4.2929 44.7406ZM33.5672 44.4478H5.00001V46.4478H33.5672V44.4478Z" fill="#C9D1D9"/>
</g>
<g filter="url(#filter1_d)">
<path d="M83.6176 46.1549C84.0081 45.7643 84.0081 45.1312 83.6176 44.7406L77.2536 38.3767C76.8631 37.9862 76.2299 37.9862 75.8394 38.3767C75.4489 38.7672 75.4489 39.4004 75.8394 39.7909L81.4962 45.4478L75.8394 51.1046C75.4489 51.4951 75.4489 52.1283 75.8394 52.5188C76.2299 52.9093 76.8631 52.9093 77.2536 52.5188L83.6176 46.1549ZM54.3433 46.4478L82.9105 46.4478V44.4478L54.3433 44.4478V46.4478Z" fill="#C9D1D9"/>
</g>
<g filter="url(#filter2_d)">
<path d="M4.29294 100.577C3.90241 100.967 3.90241 101.6 4.29294 101.991L10.6569 108.355C11.0474 108.745 11.6806 108.745 12.0711 108.355C12.4616 107.964 12.4616 107.331 12.0711 106.941L6.41426 101.284L12.0711 95.6268C12.4616 95.2363 12.4616 94.6031 12.0711 94.2126C11.6806 93.8221 11.0474 93.8221 10.6569 94.2126L4.29294 100.577ZM97.1941 100.284L5.00005 100.284V102.284L97.1941 102.284V100.284Z" fill="#C9D1D9"/>
</g>
<g filter="url(#filter3_d)">
<path d="M4.29292 152.517C3.9024 152.907 3.9024 153.54 4.29292 153.931L10.6569 160.295C11.0474 160.685 11.6806 160.685 12.0711 160.295C12.4616 159.904 12.4616 159.271 12.0711 158.881L6.41425 153.224L12.0711 147.567C12.4616 147.176 12.4616 146.543 12.0711 146.153C11.6806 145.762 11.0474 145.762 10.6569 146.153L4.29292 152.517ZM249.119 152.224L5.00003 152.224V154.224L249.119 154.224V152.224Z" fill="#C9D1D9"/>
</g>
<g filter="url(#filter4_d)">
<path d="M540.692 153.931C541.083 153.54 541.083 152.907 540.692 152.517L534.328 146.153C533.938 145.762 533.305 145.762 532.914 146.153C532.523 146.543 532.523 147.176 532.914 147.567L538.571 153.224L532.914 158.881C532.523 159.271 532.523 159.904 532.914 160.295C533.305 160.685 533.938 160.685 534.328 160.295L540.692 153.931ZM295.866 154.224H539.985V152.224H295.866V154.224Z" fill="#C9D1D9"/>
</g>
<g filter="url(#filter5_d)">
<path d="M222.558 101.991C222.948 101.6 222.948 100.967 222.558 100.577L216.194 94.2126C215.803 93.8221 215.17 93.8221 214.78 94.2126C214.389 94.6031 214.389 95.2363 214.78 95.6268L220.437 101.284L214.78 106.941C214.389 107.331 214.389 107.964 214.78 108.355C215.17 108.745 215.803 108.745 216.194 108.355L222.558 101.991ZM129.657 102.284H221.851V100.284H129.657V102.284Z" fill="#C9D1D9"/>
</g>
<g filter="url(#filter6_d)">
<path d="M321.129 99.278C320.738 99.6685 320.738 100.302 321.129 100.692L327.493 107.056C327.883 107.447 328.516 107.447 328.907 107.056C329.297 106.666 329.297 106.032 328.907 105.642L323.25 99.9851L328.907 94.3283C329.297 93.9377 329.297 93.3046 328.907 92.914C328.516 92.5235 327.883 92.5235 327.493 92.914L321.129 99.278ZM414.03 98.9851L321.836 98.9851V100.985L414.03 100.985V98.9851Z" fill="#C9D1D9"/>
</g>
<g filter="url(#filter7_d)">
<path d="M539.394 100.692C539.784 100.302 539.784 99.6685 539.394 99.278L533.03 92.914C532.639 92.5235 532.006 92.5235 531.616 92.914C531.225 93.3046 531.225 93.9377 531.616 94.3283L537.272 99.9851L531.616 105.642C531.225 106.032 531.225 106.666 531.616 107.056C532.006 107.447 532.639 107.447 533.03 107.056L539.394 100.692ZM446.493 100.985H538.687V98.9851H446.493V100.985Z" fill="#C9D1D9"/>
</g>
<g filter="url(#filter8_d)">
<path d="M463.965 44.7406C463.574 45.1312 463.574 45.7643 463.965 46.1549L470.328 52.5188C470.719 52.9093 471.352 52.9093 471.743 52.5188C472.133 52.1283 472.133 51.4951 471.743 51.1046L466.086 45.4478L471.743 39.7909C472.133 39.4004 472.133 38.7672 471.743 38.3767C471.352 37.9862 470.719 37.9862 470.328 38.3767L463.965 44.7406ZM493.239 44.4478H464.672V46.4478H493.239V44.4478Z" fill="#C9D1D9"/>
</g>
<g filter="url(#filter9_d)">
<path d="M540.692 47.4532C541.083 47.0627 541.083 46.4295 540.692 46.039L534.328 39.675C533.938 39.2845 533.305 39.2845 532.914 39.675C532.524 40.0656 532.524 40.6987 532.914 41.0892L538.571 46.7461L532.914 52.4029C532.524 52.7935 532.524 53.4266 532.914 53.8172C533.305 54.2077 533.938 54.2077 534.328 53.8172L540.692 47.4532ZM511.418 47.7461L539.985 47.7461V45.7461L511.418 45.7461V47.7461Z" fill="#C9D1D9"/>
</g>
<g filter="url(#filter10_d)">
<path d="M42.4532 51V42.7188H43.9219V43.8906C44.1094 43.3802 44.6172 43.0104 45.4453 42.7812C45.8776 42.6562 46.3282 42.5964 46.7969 42.6016L46.75 43.8594C46.0417 43.8594 45.3933 44 44.8047 44.2812C44.2162 44.5625 43.9219 44.8698 43.9219 45.2031V51H42.4532Z" fill="#C9D1D9"/>
</g>
<g filter="url(#filter11_d)">
<path d="M111.93 105.047C113.039 105.047 113.594 104.633 113.594 103.805C113.594 103.445 113.544 103.18 113.445 103.008C113.346 102.831 113.115 102.674 112.75 102.539L110.781 101.812C110.177 101.599 109.755 101.346 109.516 101.055C109.281 100.758 109.164 100.388 109.164 99.9453C109.164 99.5026 109.208 99.1484 109.297 98.8828C109.385 98.612 109.531 98.375 109.734 98.1719C110.141 97.7656 110.87 97.5625 111.922 97.5625C112.974 97.5625 113.88 97.7135 114.641 98.0156L114.305 99.1406C114.039 99.0312 113.69 98.9297 113.258 98.8359C112.826 98.737 112.448 98.6875 112.125 98.6875C111.38 98.6875 110.909 98.8073 110.711 99.0469C110.591 99.1979 110.531 99.4193 110.531 99.7109C110.531 100.003 110.578 100.211 110.672 100.336C110.771 100.456 110.961 100.565 111.242 100.664L113.188 101.43C113.865 101.695 114.31 101.99 114.523 102.312C114.737 102.63 114.844 103.133 114.844 103.82C114.844 104.508 114.622 105.073 114.18 105.516C113.737 105.953 113.052 106.172 112.125 106.172C111.448 106.172 110.846 106.099 110.32 105.953C109.794 105.807 109.391 105.656 109.109 105.5L109.469 104.422C110.214 104.839 111.034 105.047 111.93 105.047Z" fill="#C9D1D9"/>
</g>
<g filter="url(#filter12_d)">
<path d="M267.5 156L270.445 151.836L267.547 147.719H269.023L271.18 150.797L273.359 147.719H274.773L271.891 151.82L274.813 156H273.383L271.172 152.852L268.961 156H267.5Z" fill="#C9D1D9"/>
</g>
<g filter="url(#filter13_d)">
<path d="M429.93 103.047C431.039 103.047 431.594 102.633 431.594 101.805C431.594 101.445 431.544 101.18 431.445 101.008C431.346 100.831 431.115 100.674 430.75 100.539L428.781 99.8125C428.177 99.599 427.755 99.3464 427.516 99.0547C427.281 98.7578 427.164 98.388 427.164 97.9453C427.164 97.5026 427.208 97.1484 427.297 96.8828C427.385 96.612 427.531 96.375 427.734 96.1719C428.141 95.7656 428.87 95.5625 429.922 95.5625C430.974 95.5625 431.88 95.7135 432.641 96.0156L432.305 97.1406C432.039 97.0312 431.69 96.9297 431.258 96.8359C430.826 96.737 430.448 96.6875 430.125 96.6875C429.38 96.6875 428.909 96.8073 428.711 97.0469C428.591 97.1979 428.531 97.4193 428.531 97.7109C428.531 98.0026 428.578 98.2109 428.672 98.3359C428.771 98.4557 428.961 98.5651 429.242 98.6641L431.188 99.4297C431.865 99.6953 432.31 99.9896 432.523 100.312C432.737 100.63 432.844 101.133 432.844 101.82C432.844 102.508 432.622 103.073 432.18 103.516C431.737 103.953 431.052 104.172 430.125 104.172C429.448 104.172 428.846 104.099 428.32 103.953C427.794 103.807 427.391 103.656 427.109 103.5L427.469 102.422C428.214 102.839 429.034 103.047 429.93 103.047Z" fill="#C9D1D9"/>
</g>
<g filter="url(#filter14_d)">
<path d="M501.453 49V40.7188H502.922V41.8906C503.109 41.3802 503.617 41.0104 504.445 40.7812C504.878 40.6562 505.328 40.5964 505.797 40.6016L505.75 41.8594C505.042 41.8594 504.393 42 503.805 42.2812C503.216 42.5625 502.922 42.8698 502.922 43.2031V49H501.453Z" fill="#C9D1D9"/>
</g>
<defs>
<filter id="filter0_d" x="0" y="38.0837" width="37.5672" height="22.7279" filterUnits="userSpaceOnUse" color-interpolation-filters="sRGB">
<feFlood flood-opacity="0" result="BackgroundImageFix"/>
<feColorMatrix in="SourceAlpha" type="matrix" values="0 0 0 0 0 0 0 0 0 0 0 0 0 0 0 0 0 0 127 0"/>
<feOffset dy="4"/>
<feGaussianBlur stdDeviation="2"/>
<feColorMatrix type="matrix" values="0 0 0 0 0 0 0 0 0 0 0 0 0 0 0 0 0 0 0.25 0"/>
<feBlend mode="normal" in2="BackgroundImageFix" result="effect1_dropShadow"/>
<feBlend mode="normal" in="SourceGraphic" in2="effect1_dropShadow" result="shape"/>
</filter>
<filter id="filter1_d" x="50.3433" y="38.0837" width="37.5672" height="22.7279" filterUnits="userSpaceOnUse" color-interpolation-filters="sRGB">
<feFlood flood-opacity="0" result="BackgroundImageFix"/>
<feColorMatrix in="SourceAlpha" type="matrix" values="0 0 0 0 0 0 0 0 0 0 0 0 0 0 0 0 0 0 127 0"/>
<feOffset dy="4"/>
<feGaussianBlur stdDeviation="2"/>
<feColorMatrix type="matrix" values="0 0 0 0 0 0 0 0 0 0 0 0 0 0 0 0 0 0 0.25 0"/>
<feBlend mode="normal" in2="BackgroundImageFix" result="effect1_dropShadow"/>
<feBlend mode="normal" in="SourceGraphic" in2="effect1_dropShadow" result="shape"/>
</filter>
<filter id="filter2_d" x="3.05176e-05" y="93.9197" width="101.194" height="22.7279" filterUnits="userSpaceOnUse" color-interpolation-filters="sRGB">
<feFlood flood-opacity="0" result="BackgroundImageFix"/>
<feColorMatrix in="SourceAlpha" type="matrix" values="0 0 0 0 0 0 0 0 0 0 0 0 0 0 0 0 0 0 127 0"/>
<feOffset dy="4"/>
<feGaussianBlur stdDeviation="2"/>
<feColorMatrix type="matrix" values="0 0 0 0 0 0 0 0 0 0 0 0 0 0 0 0 0 0 0.25 0"/>
<feBlend mode="normal" in2="BackgroundImageFix" result="effect1_dropShadow"/>
<feBlend mode="normal" in="SourceGraphic" in2="effect1_dropShadow" result="shape"/>
</filter>
<filter id="filter3_d" x="3.05176e-05" y="145.86" width="253.119" height="22.7279" filterUnits="userSpaceOnUse" color-interpolation-filters="sRGB">
<feFlood flood-opacity="0" result="BackgroundImageFix"/>
<feColorMatrix in="SourceAlpha" type="matrix" values="0 0 0 0 0 0 0 0 0 0 0 0 0 0 0 0 0 0 127 0"/>
<feOffset dy="4"/>
<feGaussianBlur stdDeviation="2"/>
<feColorMatrix type="matrix" values="0 0 0 0 0 0 0 0 0 0 0 0 0 0 0 0 0 0 0.25 0"/>
<feBlend mode="normal" in2="BackgroundImageFix" result="effect1_dropShadow"/>
<feBlend mode="normal" in="SourceGraphic" in2="effect1_dropShadow" result="shape"/>
</filter>
<filter id="filter4_d" x="291.866" y="145.86" width="253.119" height="22.7279" filterUnits="userSpaceOnUse" color-interpolation-filters="sRGB">
<feFlood flood-opacity="0" result="BackgroundImageFix"/>
<feColorMatrix in="SourceAlpha" type="matrix" values="0 0 0 0 0 0 0 0 0 0 0 0 0 0 0 0 0 0 127 0"/>
<feOffset dy="4"/>
<feGaussianBlur stdDeviation="2"/>
<feColorMatrix type="matrix" values="0 0 0 0 0 0 0 0 0 0 0 0 0 0 0 0 0 0 0.25 0"/>
<feBlend mode="normal" in2="BackgroundImageFix" result="effect1_dropShadow"/>
<feBlend mode="normal" in="SourceGraphic" in2="effect1_dropShadow" result="shape"/>
</filter>
<filter id="filter5_d" x="125.657" y="93.9197" width="101.194" height="22.7279" filterUnits="userSpaceOnUse" color-interpolation-filters="sRGB">
<feFlood flood-opacity="0" result="BackgroundImageFix"/>
<feColorMatrix in="SourceAlpha" type="matrix" values="0 0 0 0 0 0 0 0 0 0 0 0 0 0 0 0 0 0 127 0"/>
<feOffset dy="4"/>
<feGaussianBlur stdDeviation="2"/>
<feColorMatrix type="matrix" values="0 0 0 0 0 0 0 0 0 0 0 0 0 0 0 0 0 0 0.25 0"/>
<feBlend mode="normal" in2="BackgroundImageFix" result="effect1_dropShadow"/>
<feBlend mode="normal" in="SourceGraphic" in2="effect1_dropShadow" result="shape"/>
</filter>
<filter id="filter6_d" x="316.836" y="92.6211" width="101.194" height="22.7279" filterUnits="userSpaceOnUse" color-interpolation-filters="sRGB">
<feFlood flood-opacity="0" result="BackgroundImageFix"/>
<feColorMatrix in="SourceAlpha" type="matrix" values="0 0 0 0 0 0 0 0 0 0 0 0 0 0 0 0 0 0 127 0"/>
<feOffset dy="4"/>
<feGaussianBlur stdDeviation="2"/>
<feColorMatrix type="matrix" values="0 0 0 0 0 0 0 0 0 0 0 0 0 0 0 0 0 0 0.25 0"/>
<feBlend mode="normal" in2="BackgroundImageFix" result="effect1_dropShadow"/>
<feBlend mode="normal" in="SourceGraphic" in2="effect1_dropShadow" result="shape"/>
</filter>
<filter id="filter7_d" x="442.493" y="92.6211" width="101.194" height="22.7279" filterUnits="userSpaceOnUse" color-interpolation-filters="sRGB">
<feFlood flood-opacity="0" result="BackgroundImageFix"/>
<feColorMatrix in="SourceAlpha" type="matrix" values="0 0 0 0 0 0 0 0 0 0 0 0 0 0 0 0 0 0 127 0"/>
<feOffset dy="4"/>
<feGaussianBlur stdDeviation="2"/>
<feColorMatrix type="matrix" values="0 0 0 0 0 0 0 0 0 0 0 0 0 0 0 0 0 0 0.25 0"/>
<feBlend mode="normal" in2="BackgroundImageFix" result="effect1_dropShadow"/>
<feBlend mode="normal" in="SourceGraphic" in2="effect1_dropShadow" result="shape"/>
</filter>
<filter id="filter8_d" x="459.672" y="38.0837" width="37.5672" height="22.7279" filterUnits="userSpaceOnUse" color-interpolation-filters="sRGB">
<feFlood flood-opacity="0" result="BackgroundImageFix"/>
<feColorMatrix in="SourceAlpha" type="matrix" values="0 0 0 0 0 0 0 0 0 0 0 0 0 0 0 0 0 0 127 0"/>
<feOffset dy="4"/>
<feGaussianBlur stdDeviation="2"/>
<feColorMatrix type="matrix" values="0 0 0 0 0 0 0 0 0 0 0 0 0 0 0 0 0 0 0.25 0"/>
<feBlend mode="normal" in2="BackgroundImageFix" result="effect1_dropShadow"/>
<feBlend mode="normal" in="SourceGraphic" in2="effect1_dropShadow" result="shape"/>
</filter>
<filter id="filter9_d" x="507.418" y="39.3821" width="37.5672" height="22.7279" filterUnits="userSpaceOnUse" color-interpolation-filters="sRGB">
<feFlood flood-opacity="0" result="BackgroundImageFix"/>
<feColorMatrix in="SourceAlpha" type="matrix" values="0 0 0 0 0 0 0 0 0 0 0 0 0 0 0 0 0 0 127 0"/>
<feOffset dy="4"/>
<feGaussianBlur stdDeviation="2"/>
<feColorMatrix type="matrix" values="0 0 0 0 0 0 0 0 0 0 0 0 0 0 0 0 0 0 0.25 0"/>
<feBlend mode="normal" in2="BackgroundImageFix" result="effect1_dropShadow"/>
<feBlend mode="normal" in="SourceGraphic" in2="effect1_dropShadow" result="shape"/>
</filter>
<filter id="filter10_d" x="38.4532" y="42.6013" width="12.3438" height="16.3988" filterUnits="userSpaceOnUse" color-interpolation-filters="sRGB">
<feFlood flood-opacity="0" result="BackgroundImageFix"/>
<feColorMatrix in="SourceAlpha" type="matrix" values="0 0 0 0 0 0 0 0 0 0 0 0 0 0 0 0 0 0 127 0"/>
<feOffset dy="4"/>
<feGaussianBlur stdDeviation="2"/>
<feColorMatrix type="matrix" values="0 0 0 0 0 0 0 0 0 0 0 0 0 0 0 0 0 0 0.25 0"/>
<feBlend mode="normal" in2="BackgroundImageFix" result="effect1_dropShadow"/>
<feBlend mode="normal" in="SourceGraphic" in2="effect1_dropShadow" result="shape"/>
</filter>
<filter id="filter11_d" x="105.109" y="97.5625" width="13.7344" height="16.6094" filterUnits="userSpaceOnUse" color-interpolation-filters="sRGB">
<feFlood flood-opacity="0" result="BackgroundImageFix"/>
<feColorMatrix in="SourceAlpha" type="matrix" values="0 0 0 0 0 0 0 0 0 0 0 0 0 0 0 0 0 0 127 0"/>
<feOffset dy="4"/>
<feGaussianBlur stdDeviation="2"/>
<feColorMatrix type="matrix" values="0 0 0 0 0 0 0 0 0 0 0 0 0 0 0 0 0 0 0.25 0"/>
<feBlend mode="normal" in2="BackgroundImageFix" result="effect1_dropShadow"/>
<feBlend mode="normal" in="SourceGraphic" in2="effect1_dropShadow" result="shape"/>
</filter>
<filter id="filter12_d" x="263.5" y="147.719" width="15.3125" height="16.2812" filterUnits="userSpaceOnUse" color-interpolation-filters="sRGB">
<feFlood flood-opacity="0" result="BackgroundImageFix"/>
<feColorMatrix in="SourceAlpha" type="matrix" values="0 0 0 0 0 0 0 0 0 0 0 0 0 0 0 0 0 0 127 0"/>
<feOffset dy="4"/>
<feGaussianBlur stdDeviation="2"/>
<feColorMatrix type="matrix" values="0 0 0 0 0 0 0 0 0 0 0 0 0 0 0 0 0 0 0.25 0"/>
<feBlend mode="normal" in2="BackgroundImageFix" result="effect1_dropShadow"/>
<feBlend mode="normal" in="SourceGraphic" in2="effect1_dropShadow" result="shape"/>
</filter>
<filter id="filter13_d" x="423.109" y="95.5625" width="13.7344" height="16.6094" filterUnits="userSpaceOnUse" color-interpolation-filters="sRGB">
<feFlood flood-opacity="0" result="BackgroundImageFix"/>
<feColorMatrix in="SourceAlpha" type="matrix" values="0 0 0 0 0 0 0 0 0 0 0 0 0 0 0 0 0 0 127 0"/>
<feOffset dy="4"/>
<feGaussianBlur stdDeviation="2"/>
<feColorMatrix type="matrix" values="0 0 0 0 0 0 0 0 0 0 0 0 0 0 0 0 0 0 0.25 0"/>
<feBlend mode="normal" in2="BackgroundImageFix" result="effect1_dropShadow"/>
<feBlend mode="normal" in="SourceGraphic" in2="effect1_dropShadow" result="shape"/>
</filter>
<filter id="filter14_d" x="497.453" y="40.6013" width="12.3438" height="16.3988" filterUnits="userSpaceOnUse" color-interpolation-filters="sRGB">
<feFlood flood-opacity="0" result="BackgroundImageFix"/>
<feColorMatrix in="SourceAlpha" type="matrix" values="0 0 0 0 0 0 0 0 0 0 0 0 0 0 0 0 0 0 127 0"/>
<feOffset dy="4"/>
<feGaussianBlur stdDeviation="2"/>
<feColorMatrix type="matrix" values="0 0 0 0 0 0 0 0 0 0 0 0 0 0 0 0 0 0 0.25 0"/>
<feBlend mode="normal" in2="BackgroundImageFix" result="effect1_dropShadow"/>
<feBlend mode="normal" in="SourceGraphic" in2="effect1_dropShadow" result="shape"/>
</filter>
</defs>
</svg>
