<svg width="371" height="67" viewBox="0 0 371 67" fill="none" xmlns="http://www.w3.org/2000/svg">
<g filter="url(#filter0_d)">
<path d="M14.1562 4.7207H10.377V16H8.61914V4.7207H4.83984V3.23633H14.1562V4.7207ZM20.4941 6.01953C20.696 6.01953 20.888 6.06185 21.0703 6.14648C21.2526 6.22461 21.4121 6.33203 21.5488 6.46875C21.6855 6.60547 21.793 6.76497 21.8711 6.94727C21.9557 7.12956 21.998 7.32161 21.998 7.52344C21.998 7.73177 21.9557 7.92708 21.8711 8.10938C21.793 8.28516 21.6855 8.44141 21.5488 8.57812C21.4121 8.71484 21.2526 8.82227 21.0703 8.90039C20.888 8.97852 20.696 9.01758 20.4941 9.01758C20.2858 9.01758 20.0905 8.97852 19.9082 8.90039C19.7324 8.82227 19.5762 8.71484 19.4395 8.57812C19.3027 8.44141 19.1953 8.28516 19.1172 8.10938C19.0391 7.92708 19 7.73177 19 7.52344C19 7.32161 19.0391 7.12956 19.1172 6.94727C19.1953 6.76497 19.3027 6.60547 19.4395 6.46875C19.5762 6.33203 19.7324 6.22461 19.9082 6.14648C20.0905 6.06185 20.2858 6.01953 20.4941 6.01953ZM20.4941 13.1777C20.696 13.1777 20.888 13.2201 21.0703 13.3047C21.2526 13.3828 21.4121 13.4902 21.5488 13.627C21.6855 13.7637 21.793 13.9232 21.8711 14.1055C21.9557 14.2878 21.998 14.4798 21.998 14.6816C21.998 14.89 21.9557 15.0853 21.8711 15.2676C21.793 15.4434 21.6855 15.5996 21.5488 15.7363C21.4121 15.873 21.2526 15.9805 21.0703 16.0586C20.888 16.1367 20.696 16.1758 20.4941 16.1758C20.2858 16.1758 20.0905 16.1367 19.9082 16.0586C19.7324 15.9805 19.5762 15.873 19.4395 15.7363C19.3027 15.5996 19.1953 15.4434 19.1172 15.2676C19.0391 15.0853 19 14.89 19 14.6816C19 14.4798 19.0391 14.2878 19.1172 14.1055C19.1953 13.9232 19.3027 13.7637 19.4395 13.627C19.5762 13.4902 19.7324 13.3828 19.9082 13.3047C20.0905 13.2201 20.2858 13.1777 20.4941 13.1777ZM46.7051 15.5215C45.6829 15.9447 44.612 16.1562 43.4922 16.1562C41.6888 16.1562 40.3021 15.6191 39.332 14.5449C38.3685 13.4642 37.8867 11.8691 37.8867 9.75977C37.8867 8.73763 38.0202 7.81315 38.2871 6.98633C38.554 6.15951 38.9349 5.45964 39.4297 4.88672C39.9245 4.30729 40.5234 3.86133 41.2266 3.54883C41.9297 3.23633 42.7174 3.08008 43.5898 3.08008C44.1823 3.08008 44.7324 3.13216 45.2402 3.23633C45.748 3.33398 46.2363 3.48698 46.7051 3.69531V5.4043C46.2428 5.15039 45.7643 4.95833 45.2695 4.82812C44.7747 4.69141 44.2344 4.62305 43.6484 4.62305C43.0495 4.62305 42.5059 4.73698 42.0176 4.96484C41.5358 5.1862 41.1257 5.51172 40.7871 5.94141C40.4486 6.36458 40.1882 6.88542 40.0059 7.50391C39.8236 8.11589 39.7324 8.81576 39.7324 9.60352C39.7324 11.2572 40.0677 12.5039 40.7383 13.3438C41.4089 14.1836 42.3919 14.6035 43.6875 14.6035C44.2344 14.6035 44.7585 14.5417 45.2598 14.418C45.7611 14.2878 46.2428 14.1087 46.7051 13.8809V15.5215ZM57.8086 5.42383C57.3333 5.16992 56.8451 4.97461 56.3438 4.83789C55.8424 4.69466 55.2956 4.62305 54.7031 4.62305C54.026 4.62305 53.4238 4.74349 52.8965 4.98438C52.3691 5.22526 51.9232 5.56706 51.5586 6.00977C51.2005 6.44596 50.9238 6.97331 50.7285 7.5918C50.5397 8.21029 50.4453 8.89388 50.4453 9.64258C50.4453 10.4238 50.5234 11.1237 50.6797 11.7422C50.8359 12.3607 51.0801 12.8848 51.4121 13.3145C51.7441 13.7441 52.1673 14.0729 52.6816 14.3008C53.2025 14.5286 53.8242 14.6426 54.5469 14.6426C54.6706 14.6426 54.804 14.6361 54.9473 14.623C55.0905 14.61 55.2337 14.5938 55.377 14.5742C55.5202 14.5482 55.6569 14.5189 55.7871 14.4863C55.9238 14.4538 56.0443 14.418 56.1484 14.3789V10.3164H53.541V8.88086H57.8672V15.4043C57.6003 15.528 57.3171 15.6387 57.0176 15.7363C56.7246 15.834 56.4219 15.9154 56.1094 15.9805C55.8034 16.0456 55.4974 16.0944 55.1914 16.127C54.8854 16.1595 54.5892 16.1758 54.3027 16.1758C53.4303 16.1758 52.6426 16.0391 51.9395 15.7656C51.2428 15.4922 50.6471 15.0885 50.1523 14.5547C49.6641 14.0143 49.2865 13.3438 49.0195 12.543C48.7591 11.7422 48.6289 10.8145 48.6289 9.75977C48.6289 8.71159 48.7754 7.77409 49.0684 6.94727C49.3613 6.11393 49.7715 5.41081 50.2988 4.83789C50.8327 4.25846 51.4707 3.81901 52.2129 3.51953C52.9616 3.21354 53.7852 3.06055 54.6836 3.06055C55.2565 3.06055 55.8001 3.11263 56.3145 3.2168C56.8353 3.31445 57.3333 3.47396 57.8086 3.69531V5.42383ZM69.1367 4.7207H65.3574V16H63.5996V4.7207H59.8203V3.23633H69.1367V4.7207ZM79.8008 5.42383C79.3255 5.16992 78.8372 4.97461 78.3359 4.83789C77.8346 4.69466 77.2878 4.62305 76.6953 4.62305C76.0182 4.62305 75.416 4.74349 74.8887 4.98438C74.3613 5.22526 73.9154 5.56706 73.5508 6.00977C73.1927 6.44596 72.916 6.97331 72.7207 7.5918C72.5319 8.21029 72.4375 8.89388 72.4375 9.64258C72.4375 10.4238 72.5156 11.1237 72.6719 11.7422C72.8281 12.3607 73.0723 12.8848 73.4043 13.3145C73.7363 13.7441 74.1595 14.0729 74.6738 14.3008C75.1947 14.5286 75.8164 14.6426 76.5391 14.6426C76.6628 14.6426 76.7962 14.6361 76.9395 14.623C77.0827 14.61 77.2259 14.5938 77.3691 14.5742C77.5124 14.5482 77.6491 14.5189 77.7793 14.4863C77.916 14.4538 78.0365 14.418 78.1406 14.3789V10.3164H75.5332V8.88086H79.8594V15.4043C79.5924 15.528 79.3092 15.6387 79.0098 15.7363C78.7168 15.834 78.4141 15.9154 78.1016 15.9805C77.7956 16.0456 77.4896 16.0944 77.1836 16.127C76.8776 16.1595 76.5814 16.1758 76.2949 16.1758C75.4225 16.1758 74.6348 16.0391 73.9316 15.7656C73.235 15.4922 72.6393 15.0885 72.1445 14.5547C71.6562 14.0143 71.2786 13.3438 71.0117 12.543C70.7513 11.7422 70.6211 10.8145 70.6211 9.75977C70.6211 8.71159 70.7676 7.77409 71.0605 6.94727C71.3535 6.11393 71.7637 5.41081 72.291 4.83789C72.8249 4.25846 73.4629 3.81901 74.2051 3.51953C74.9538 3.21354 75.7773 3.06055 76.6758 3.06055C77.2487 3.06055 77.7923 3.11263 78.3066 3.2168C78.8275 3.31445 79.3255 3.47396 79.8008 3.69531V5.42383ZM90.6895 15.5215C89.6673 15.9447 88.5964 16.1562 87.4766 16.1562C85.6732 16.1562 84.2865 15.6191 83.3164 14.5449C82.3529 13.4642 81.8711 11.8691 81.8711 9.75977C81.8711 8.73763 82.0046 7.81315 82.2715 6.98633C82.5384 6.15951 82.9193 5.45964 83.4141 4.88672C83.9089 4.30729 84.5078 3.86133 85.2109 3.54883C85.9141 3.23633 86.7018 3.08008 87.5742 3.08008C88.1667 3.08008 88.7168 3.13216 89.2246 3.23633C89.7324 3.33398 90.2207 3.48698 90.6895 3.69531V5.4043C90.2272 5.15039 89.7487 4.95833 89.2539 4.82812C88.7591 4.69141 88.2188 4.62305 87.6328 4.62305C87.0339 4.62305 86.4902 4.73698 86.002 4.96484C85.5202 5.1862 85.11 5.51172 84.7715 5.94141C84.4329 6.36458 84.1725 6.88542 83.9902 7.50391C83.8079 8.11589 83.7168 8.81576 83.7168 9.60352C83.7168 11.2572 84.0521 12.5039 84.7227 13.3438C85.3932 14.1836 86.3763 14.6035 87.6719 14.6035C88.2188 14.6035 88.7428 14.5417 89.2441 14.418C89.7454 14.2878 90.2272 14.1087 90.6895 13.8809V15.5215ZM101.686 15.5215C100.663 15.9447 99.5924 16.1562 98.4727 16.1562C96.6693 16.1562 95.2826 15.6191 94.3125 14.5449C93.349 13.4642 92.8672 11.8691 92.8672 9.75977C92.8672 8.73763 93.0007 7.81315 93.2676 6.98633C93.5345 6.15951 93.9154 5.45964 94.4102 4.88672C94.9049 4.30729 95.5039 3.86133 96.207 3.54883C96.9102 3.23633 97.6979 3.08008 98.5703 3.08008C99.1628 3.08008 99.7129 3.13216 100.221 3.23633C100.729 3.33398 101.217 3.48698 101.686 3.69531V5.4043C101.223 5.15039 100.745 4.95833 100.25 4.82812C99.7552 4.69141 99.2148 4.62305 98.6289 4.62305C98.0299 4.62305 97.4863 4.73698 96.998 4.96484C96.5163 5.1862 96.1061 5.51172 95.7676 5.94141C95.429 6.36458 95.1686 6.88542 94.9863 7.50391C94.804 8.11589 94.7129 8.81576 94.7129 9.60352C94.7129 11.2572 95.0482 12.5039 95.7188 13.3438C96.3893 14.1836 97.3724 14.6035 98.668 14.6035C99.2148 14.6035 99.7389 14.5417 100.24 14.418C100.742 14.2878 101.223 14.1087 101.686 13.8809V15.5215ZM113.121 4.7207H109.342V16H107.584V4.7207H103.805V3.23633H113.121V4.7207ZM124.859 16H122.965L122.076 13.2168H116.764L115.865 16H114.059L118.297 3.23633H120.68L124.859 16ZM121.578 11.6641L119.42 4.83789L117.262 11.6641H121.578ZM134.674 15.5215C133.652 15.9447 132.581 16.1562 131.461 16.1562C129.658 16.1562 128.271 15.6191 127.301 14.5449C126.337 13.4642 125.855 11.8691 125.855 9.75977C125.855 8.73763 125.989 7.81315 126.256 6.98633C126.523 6.15951 126.904 5.45964 127.398 4.88672C127.893 4.30729 128.492 3.86133 129.195 3.54883C129.898 3.23633 130.686 3.08008 131.559 3.08008C132.151 3.08008 132.701 3.13216 133.209 3.23633C133.717 3.33398 134.205 3.48698 134.674 3.69531V5.4043C134.212 5.15039 133.733 4.95833 133.238 4.82812C132.743 4.69141 132.203 4.62305 131.617 4.62305C131.018 4.62305 130.475 4.73698 129.986 4.96484C129.505 5.1862 129.094 5.51172 128.756 5.94141C128.417 6.36458 128.157 6.88542 127.975 7.50391C127.792 8.11589 127.701 8.81576 127.701 9.60352C127.701 11.2572 128.036 12.5039 128.707 13.3438C129.378 14.1836 130.361 14.6035 131.656 14.6035C132.203 14.6035 132.727 14.5417 133.229 14.418C133.73 14.2878 134.212 14.1087 134.674 13.8809V15.5215ZM146.109 4.7207H142.33V16H140.572V4.7207H136.793V3.23633H146.109V4.7207ZM157.105 4.7207H153.326V16H151.568V4.7207H147.789V3.23633H157.105V4.7207ZM168.844 16H166.949L166.061 13.2168H160.748L159.85 16H158.043L162.281 3.23633H164.664L168.844 16ZM165.562 11.6641L163.404 4.83789L161.246 11.6641H165.562ZM178.658 15.5215C177.636 15.9447 176.565 16.1562 175.445 16.1562C173.642 16.1562 172.255 15.6191 171.285 14.5449C170.322 13.4642 169.84 11.8691 169.84 9.75977C169.84 8.73763 169.973 7.81315 170.24 6.98633C170.507 6.15951 170.888 5.45964 171.383 4.88672C171.878 4.30729 172.477 3.86133 173.18 3.54883C173.883 3.23633 174.671 3.08008 175.543 3.08008C176.135 3.08008 176.686 3.13216 177.193 3.23633C177.701 3.33398 178.189 3.48698 178.658 3.69531V5.4043C178.196 5.15039 177.717 4.95833 177.223 4.82812C176.728 4.69141 176.188 4.62305 175.602 4.62305C175.003 4.62305 174.459 4.73698 173.971 4.96484C173.489 5.1862 173.079 5.51172 172.74 5.94141C172.402 6.36458 172.141 6.88542 171.959 7.50391C171.777 8.11589 171.686 8.81576 171.686 9.60352C171.686 11.2572 172.021 12.5039 172.691 13.3438C173.362 14.1836 174.345 14.6035 175.641 14.6035C176.188 14.6035 176.712 14.5417 177.213 14.418C177.714 14.2878 178.196 14.1087 178.658 13.8809V15.5215ZM190.094 4.7207H186.314V16H184.557V4.7207H180.777V3.23633H190.094V4.7207ZM201.09 4.7207H197.311V16H195.553V4.7207H191.773V3.23633H201.09V4.7207ZM212.828 16H210.934L210.045 13.2168H204.732L203.834 16H202.027L206.266 3.23633H208.648L212.828 16ZM209.547 11.6641L207.389 4.83789L205.23 11.6641H209.547ZM222.643 15.5215C221.62 15.9447 220.549 16.1562 219.43 16.1562C217.626 16.1562 216.24 15.6191 215.27 14.5449C214.306 13.4642 213.824 11.8691 213.824 9.75977C213.824 8.73763 213.958 7.81315 214.225 6.98633C214.492 6.15951 214.872 5.45964 215.367 4.88672C215.862 4.30729 216.461 3.86133 217.164 3.54883C217.867 3.23633 218.655 3.08008 219.527 3.08008C220.12 3.08008 220.67 3.13216 221.178 3.23633C221.686 3.33398 222.174 3.48698 222.643 3.69531V5.4043C222.18 5.15039 221.702 4.95833 221.207 4.82812C220.712 4.69141 220.172 4.62305 219.586 4.62305C218.987 4.62305 218.443 4.73698 217.955 4.96484C217.473 5.1862 217.063 5.51172 216.725 5.94141C216.386 6.36458 216.126 6.88542 215.943 7.50391C215.761 8.11589 215.67 8.81576 215.67 9.60352C215.67 11.2572 216.005 12.5039 216.676 13.3438C217.346 14.1836 218.329 14.6035 219.625 14.6035C220.172 14.6035 220.696 14.5417 221.197 14.418C221.699 14.2878 222.18 14.1087 222.643 13.8809V15.5215ZM234.078 4.7207H230.299V16H228.541V4.7207H224.762V3.23633H234.078V4.7207ZM245.074 4.7207H241.295V16H239.537V4.7207H235.758V3.23633H245.074V4.7207ZM256.812 16H254.918L254.029 13.2168H248.717L247.818 16H246.012L250.25 3.23633H252.633L256.812 16ZM253.531 11.6641L251.373 4.83789L249.215 11.6641H253.531ZM266.627 15.5215C265.605 15.9447 264.534 16.1562 263.414 16.1562C261.611 16.1562 260.224 15.6191 259.254 14.5449C258.29 13.4642 257.809 11.8691 257.809 9.75977C257.809 8.73763 257.942 7.81315 258.209 6.98633C258.476 6.15951 258.857 5.45964 259.352 4.88672C259.846 4.30729 260.445 3.86133 261.148 3.54883C261.852 3.23633 262.639 3.08008 263.512 3.08008C264.104 3.08008 264.654 3.13216 265.162 3.23633C265.67 3.33398 266.158 3.48698 266.627 3.69531V5.4043C266.165 5.15039 265.686 4.95833 265.191 4.82812C264.697 4.69141 264.156 4.62305 263.57 4.62305C262.971 4.62305 262.428 4.73698 261.939 4.96484C261.458 5.1862 261.048 5.51172 260.709 5.94141C260.37 6.36458 260.11 6.88542 259.928 7.50391C259.745 8.11589 259.654 8.81576 259.654 9.60352C259.654 11.2572 259.99 12.5039 260.66 13.3438C261.331 14.1836 262.314 14.6035 263.609 14.6035C264.156 14.6035 264.68 14.5417 265.182 14.418C265.683 14.2878 266.165 14.1087 266.627 13.8809V15.5215ZM278.062 4.7207H274.283V16H272.525V4.7207H268.746V3.23633H278.062V4.7207ZM289.059 4.7207H285.279V16H283.521V4.7207H279.742V3.23633H289.059V4.7207ZM300.797 16H298.902L298.014 13.2168H292.701L291.803 16H289.996L294.234 3.23633H296.617L300.797 16ZM297.516 11.6641L295.357 4.83789L293.199 11.6641H297.516ZM310.611 15.5215C309.589 15.9447 308.518 16.1562 307.398 16.1562C305.595 16.1562 304.208 15.6191 303.238 14.5449C302.275 13.4642 301.793 11.8691 301.793 9.75977C301.793 8.73763 301.926 7.81315 302.193 6.98633C302.46 6.15951 302.841 5.45964 303.336 4.88672C303.831 4.30729 304.43 3.86133 305.133 3.54883C305.836 3.23633 306.624 3.08008 307.496 3.08008C308.089 3.08008 308.639 3.13216 309.146 3.23633C309.654 3.33398 310.143 3.48698 310.611 3.69531V5.4043C310.149 5.15039 309.671 4.95833 309.176 4.82812C308.681 4.69141 308.141 4.62305 307.555 4.62305C306.956 4.62305 306.412 4.73698 305.924 4.96484C305.442 5.1862 305.032 5.51172 304.693 5.94141C304.355 6.36458 304.094 6.88542 303.912 7.50391C303.73 8.11589 303.639 8.81576 303.639 9.60352C303.639 11.2572 303.974 12.5039 304.645 13.3438C305.315 14.1836 306.298 14.6035 307.594 14.6035C308.141 14.6035 308.665 14.5417 309.166 14.418C309.667 14.2878 310.149 14.1087 310.611 13.8809V15.5215ZM321.715 5.42383C321.24 5.16992 320.751 4.97461 320.25 4.83789C319.749 4.69466 319.202 4.62305 318.609 4.62305C317.932 4.62305 317.33 4.74349 316.803 4.98438C316.275 5.22526 315.829 5.56706 315.465 6.00977C315.107 6.44596 314.83 6.97331 314.635 7.5918C314.446 8.21029 314.352 8.89388 314.352 9.64258C314.352 10.4238 314.43 11.1237 314.586 11.7422C314.742 12.3607 314.986 12.8848 315.318 13.3145C315.65 13.7441 316.074 14.0729 316.588 14.3008C317.109 14.5286 317.73 14.6426 318.453 14.6426C318.577 14.6426 318.71 14.6361 318.854 14.623C318.997 14.61 319.14 14.5938 319.283 14.5742C319.426 14.5482 319.563 14.5189 319.693 14.4863C319.83 14.4538 319.951 14.418 320.055 14.3789V10.3164H317.447V8.88086H321.773V15.4043C321.507 15.528 321.223 15.6387 320.924 15.7363C320.631 15.834 320.328 15.9154 320.016 15.9805C319.71 16.0456 319.404 16.0944 319.098 16.127C318.792 16.1595 318.495 16.1758 318.209 16.1758C317.337 16.1758 316.549 16.0391 315.846 15.7656C315.149 15.4922 314.553 15.0885 314.059 14.5547C313.57 14.0143 313.193 13.3438 312.926 12.543C312.665 11.7422 312.535 10.8145 312.535 9.75977C312.535 8.71159 312.682 7.77409 312.975 6.94727C313.268 6.11393 313.678 5.41081 314.205 4.83789C314.739 4.25846 315.377 3.81901 316.119 3.51953C316.868 3.21354 317.691 3.06055 318.59 3.06055C319.163 3.06055 319.706 3.11263 320.221 3.2168C320.742 3.31445 321.24 3.47396 321.715 3.69531V5.42383ZM332.604 15.5215C331.581 15.9447 330.51 16.1562 329.391 16.1562C327.587 16.1562 326.201 15.6191 325.23 14.5449C324.267 13.4642 323.785 11.8691 323.785 9.75977C323.785 8.73763 323.919 7.81315 324.186 6.98633C324.452 6.15951 324.833 5.45964 325.328 4.88672C325.823 4.30729 326.422 3.86133 327.125 3.54883C327.828 3.23633 328.616 3.08008 329.488 3.08008C330.081 3.08008 330.631 3.13216 331.139 3.23633C331.646 3.33398 332.135 3.48698 332.604 3.69531V5.4043C332.141 5.15039 331.663 4.95833 331.168 4.82812C330.673 4.69141 330.133 4.62305 329.547 4.62305C328.948 4.62305 328.404 4.73698 327.916 4.96484C327.434 5.1862 327.024 5.51172 326.686 5.94141C326.347 6.36458 326.087 6.88542 325.904 7.50391C325.722 8.11589 325.631 8.81576 325.631 9.60352C325.631 11.2572 325.966 12.5039 326.637 13.3438C327.307 14.1836 328.29 14.6035 329.586 14.6035C330.133 14.6035 330.657 14.5417 331.158 14.418C331.66 14.2878 332.141 14.1087 332.604 13.8809V15.5215ZM343.707 5.42383C343.232 5.16992 342.743 4.97461 342.242 4.83789C341.741 4.69466 341.194 4.62305 340.602 4.62305C339.924 4.62305 339.322 4.74349 338.795 4.98438C338.268 5.22526 337.822 5.56706 337.457 6.00977C337.099 6.44596 336.822 6.97331 336.627 7.5918C336.438 8.21029 336.344 8.89388 336.344 9.64258C336.344 10.4238 336.422 11.1237 336.578 11.7422C336.734 12.3607 336.979 12.8848 337.311 13.3145C337.643 13.7441 338.066 14.0729 338.58 14.3008C339.101 14.5286 339.723 14.6426 340.445 14.6426C340.569 14.6426 340.702 14.6361 340.846 14.623C340.989 14.61 341.132 14.5938 341.275 14.5742C341.419 14.5482 341.555 14.5189 341.686 14.4863C341.822 14.4538 341.943 14.418 342.047 14.3789V10.3164H339.439V8.88086H343.766V15.4043C343.499 15.528 343.215 15.6387 342.916 15.7363C342.623 15.834 342.32 15.9154 342.008 15.9805C341.702 16.0456 341.396 16.0944 341.09 16.127C340.784 16.1595 340.488 16.1758 340.201 16.1758C339.329 16.1758 338.541 16.0391 337.838 15.7656C337.141 15.4922 336.546 15.0885 336.051 14.5547C335.562 14.0143 335.185 13.3438 334.918 12.543C334.658 11.7422 334.527 10.8145 334.527 9.75977C334.527 8.71159 334.674 7.77409 334.967 6.94727C335.26 6.11393 335.67 5.41081 336.197 4.83789C336.731 4.25846 337.369 3.81901 338.111 3.51953C338.86 3.21354 339.684 3.06055 340.582 3.06055C341.155 3.06055 341.699 3.11263 342.213 3.2168C342.734 3.31445 343.232 3.47396 343.707 3.69531V5.42383ZM355.777 16H353.883L352.994 13.2168H347.682L346.783 16H344.977L349.215 3.23633H351.598L355.777 16ZM352.496 11.6641L350.338 4.83789L348.18 11.6641H352.496ZM366.773 16H364.879L363.99 13.2168H358.678L357.779 16H355.973L360.211 3.23633H362.594L366.773 16ZM363.492 11.6641L361.334 4.83789L359.176 11.6641H363.492ZM13.9219 30.1426C13.9219 30.6634 13.8242 31.181 13.6289 31.6953C13.4336 32.2031 13.1309 32.6589 12.7207 33.0625C12.3105 33.4661 11.7865 33.7949 11.1484 34.0488C10.5104 34.2962 9.7487 34.4199 8.86328 34.4199H7.28125V39H5.54297V26.2363H9.13672C9.76823 26.2363 10.3737 26.3079 10.9531 26.4512C11.5326 26.5879 12.0404 26.8125 12.4766 27.125C12.9193 27.4375 13.2708 27.8411 13.5312 28.3359C13.7917 28.8307 13.9219 29.4329 13.9219 30.1426ZM12.1152 30.2207C12.1152 29.4004 11.8451 28.7721 11.3047 28.3359C10.7708 27.8997 10.0221 27.6816 9.05859 27.6816H7.28125V32.9355H8.90234C9.93099 32.9355 10.722 32.7109 11.2754 32.2617C11.8353 31.8125 12.1152 31.1322 12.1152 30.2207ZM20.4941 29.0195C20.696 29.0195 20.888 29.0618 21.0703 29.1465C21.2526 29.2246 21.4121 29.332 21.5488 29.4688C21.6855 29.6055 21.793 29.765 21.8711 29.9473C21.9557 30.1296 21.998 30.3216 21.998 30.5234C21.998 30.7318 21.9557 30.9271 21.8711 31.1094C21.793 31.2852 21.6855 31.4414 21.5488 31.5781C21.4121 31.7148 21.2526 31.8223 21.0703 31.9004C20.888 31.9785 20.696 32.0176 20.4941 32.0176C20.2858 32.0176 20.0905 31.9785 19.9082 31.9004C19.7324 31.8223 19.5762 31.7148 19.4395 31.5781C19.3027 31.4414 19.1953 31.2852 19.1172 31.1094C19.0391 30.9271 19 30.7318 19 30.5234C19 30.3216 19.0391 30.1296 19.1172 29.9473C19.1953 29.765 19.3027 29.6055 19.4395 29.4688C19.5762 29.332 19.7324 29.2246 19.9082 29.1465C20.0905 29.0618 20.2858 29.0195 20.4941 29.0195ZM20.4941 36.1777C20.696 36.1777 20.888 36.2201 21.0703 36.3047C21.2526 36.3828 21.4121 36.4902 21.5488 36.627C21.6855 36.7637 21.793 36.9232 21.8711 37.1055C21.9557 37.2878 21.998 37.4798 21.998 37.6816C21.998 37.89 21.9557 38.0853 21.8711 38.2676C21.793 38.4434 21.6855 38.5996 21.5488 38.7363C21.4121 38.873 21.2526 38.9805 21.0703 39.0586C20.888 39.1367 20.696 39.1758 20.4941 39.1758C20.2858 39.1758 20.0905 39.1367 19.9082 39.0586C19.7324 38.9805 19.5762 38.873 19.4395 38.7363C19.3027 38.5996 19.1953 38.4434 19.1172 38.2676C19.0391 38.0853 19 37.89 19 37.6816C19 37.4798 19.0391 37.2878 19.1172 37.1055C19.1953 36.9232 19.3027 36.7637 19.4395 36.627C19.5762 36.4902 19.7324 36.3828 19.9082 36.3047C20.0905 36.2201 20.2858 36.1777 20.4941 36.1777ZM46.7051 38.5215C45.6829 38.9447 44.612 39.1562 43.4922 39.1562C41.6888 39.1562 40.3021 38.6191 39.332 37.5449C38.3685 36.4642 37.8867 34.8691 37.8867 32.7598C37.8867 31.7376 38.0202 30.8132 38.2871 29.9863C38.554 29.1595 38.9349 28.4596 39.4297 27.8867C39.9245 27.3073 40.5234 26.8613 41.2266 26.5488C41.9297 26.2363 42.7174 26.0801 43.5898 26.0801C44.1823 26.0801 44.7324 26.1322 45.2402 26.2363C45.748 26.334 46.2363 26.487 46.7051 26.6953V28.4043C46.2428 28.1504 45.7643 27.9583 45.2695 27.8281C44.7747 27.6914 44.2344 27.623 43.6484 27.623C43.0495 27.623 42.5059 27.737 42.0176 27.9648C41.5358 28.1862 41.1257 28.5117 40.7871 28.9414C40.4486 29.3646 40.1882 29.8854 40.0059 30.5039C39.8236 31.1159 39.7324 31.8158 39.7324 32.6035C39.7324 34.2572 40.0677 35.5039 40.7383 36.3438C41.4089 37.1836 42.3919 37.6035 43.6875 37.6035C44.2344 37.6035 44.7585 37.5417 45.2598 37.418C45.7611 37.2878 46.2428 37.1087 46.7051 36.8809V38.5215ZM58.1406 27.7207H54.3613V39H52.6035V27.7207H48.8242V26.2363H58.1406V27.7207ZM69.1367 27.7207H65.3574V39H63.5996V27.7207H59.8203V26.2363H69.1367V27.7207ZM80.875 39H78.9805L78.0918 36.2168H72.7793L71.8809 39H70.0742L74.3125 26.2363H76.6953L80.875 39ZM77.5938 34.6641L75.4355 27.8379L73.2773 34.6641H77.5938ZM90.6895 38.5215C89.6673 38.9447 88.5964 39.1562 87.4766 39.1562C85.6732 39.1562 84.2865 38.6191 83.3164 37.5449C82.3529 36.4642 81.8711 34.8691 81.8711 32.7598C81.8711 31.7376 82.0046 30.8132 82.2715 29.9863C82.5384 29.1595 82.9193 28.4596 83.4141 27.8867C83.9089 27.3073 84.5078 26.8613 85.2109 26.5488C85.9141 26.2363 86.7018 26.0801 87.5742 26.0801C88.1667 26.0801 88.7168 26.1322 89.2246 26.2363C89.7324 26.334 90.2207 26.487 90.6895 26.6953V28.4043C90.2272 28.1504 89.7487 27.9583 89.2539 27.8281C88.7591 27.6914 88.2188 27.623 87.6328 27.623C87.0339 27.623 86.4902 27.737 86.002 27.9648C85.5202 28.1862 85.11 28.5117 84.7715 28.9414C84.4329 29.3646 84.1725 29.8854 83.9902 30.5039C83.8079 31.1159 83.7168 31.8158 83.7168 32.6035C83.7168 34.2572 84.0521 35.5039 84.7227 36.3438C85.3932 37.1836 86.3763 37.6035 87.6719 37.6035C88.2188 37.6035 88.7428 37.5417 89.2441 37.418C89.7454 37.2878 90.2272 37.1087 90.6895 36.8809V38.5215ZM102.125 27.7207H98.3457V39H96.5879V27.7207H92.8086V26.2363H102.125V27.7207ZM113.121 27.7207H109.342V39H107.584V27.7207H103.805V26.2363H113.121V27.7207ZM124.859 39H122.965L122.076 36.2168H116.764L115.865 39H114.059L118.297 26.2363H120.68L124.859 39ZM121.578 34.6641L119.42 27.8379L117.262 34.6641H121.578ZM134.674 38.5215C133.652 38.9447 132.581 39.1562 131.461 39.1562C129.658 39.1562 128.271 38.6191 127.301 37.5449C126.337 36.4642 125.855 34.8691 125.855 32.7598C125.855 31.7376 125.989 30.8132 126.256 29.9863C126.523 29.1595 126.904 28.4596 127.398 27.8867C127.893 27.3073 128.492 26.8613 129.195 26.5488C129.898 26.2363 130.686 26.0801 131.559 26.0801C132.151 26.0801 132.701 26.1322 133.209 26.2363C133.717 26.334 134.205 26.487 134.674 26.6953V28.4043C134.212 28.1504 133.733 27.9583 133.238 27.8281C132.743 27.6914 132.203 27.623 131.617 27.623C131.018 27.623 130.475 27.737 129.986 27.9648C129.505 28.1862 129.094 28.5117 128.756 28.9414C128.417 29.3646 128.157 29.8854 127.975 30.5039C127.792 31.1159 127.701 31.8158 127.701 32.6035C127.701 34.2572 128.036 35.5039 128.707 36.3438C129.378 37.1836 130.361 37.6035 131.656 37.6035C132.203 37.6035 132.727 37.5417 133.229 37.418C133.73 37.2878 134.212 37.1087 134.674 36.8809V38.5215Z" fill="#C9D1D9"/>
</g>
<g filter="url(#filter1_d)">
<path d="M123.293 50.2929C122.902 50.6834 122.902 51.3166 123.293 51.7071L129.657 58.0711C130.047 58.4616 130.681 58.4616 131.071 58.0711C131.462 57.6805 131.462 57.0474 131.071 56.6569L125.414 51L131.071 45.3431C131.462 44.9526 131.462 44.3195 131.071 43.9289C130.681 43.5384 130.047 43.5384 129.657 43.9289L123.293 50.2929ZM135.5 50H124V52H135.5V50Z" fill="#C9D1D9"/>
</g>
<defs>
<filter id="filter0_d" x="0.839844" y="3.06055" width="369.934" height="44.1152" filterUnits="userSpaceOnUse" color-interpolation-filters="sRGB">
<feFlood flood-opacity="0" result="BackgroundImageFix"/>
<feColorMatrix in="SourceAlpha" type="matrix" values="0 0 0 0 0 0 0 0 0 0 0 0 0 0 0 0 0 0 127 0"/>
<feOffset dy="4"/>
<feGaussianBlur stdDeviation="2"/>
<feColorMatrix type="matrix" values="0 0 0 0 0 0 0 0 0 0 0 0 0 0 0 0 0 0 0.25 0"/>
<feBlend mode="normal" in2="BackgroundImageFix" result="effect1_dropShadow"/>
<feBlend mode="normal" in="SourceGraphic" in2="effect1_dropShadow" result="shape"/>
</filter>
<filter id="filter1_d" x="119" y="43.6362" width="20.4999" height="22.7279" filterUnits="userSpaceOnUse" color-interpolation-filters="sRGB">
<feFlood flood-opacity="0" result="BackgroundImageFix"/>
<feColorMatrix in="SourceAlpha" type="matrix" values="0 0 0 0 0 0 0 0 0 0 0 0 0 0 0 0 0 0 127 0"/>
<feOffset dy="4"/>
<feGaussianBlur stdDeviation="2"/>
<feColorMatrix type="matrix" values="0 0 0 0 0 0 0 0 0 0 0 0 0 0 0 0 0 0 0.25 0"/>
<feBlend mode="normal" in2="BackgroundImageFix" result="effect1_dropShadow"/>
<feBlend mode="normal" in="SourceGraphic" in2="effect1_dropShadow" result="shape"/>
</filter>
</defs>
</svg>
