<svg width="418" height="109" viewBox="0 0 418 109" fill="none" xmlns="http://www.w3.org/2000/svg">
<g filter="url(#filter0_d)">
<path d="M274 93H256.606" stroke="#C9D1D9" stroke-width="2"/>
<path d="M220.479 93H203.084" stroke="#C9D1D9" stroke-width="2"/>
<path d="M247.239 93H229.845" stroke="#C9D1D9" stroke-width="2"/>
<path d="M178.293 92.2929C177.902 92.6834 177.902 93.3166 178.293 93.7071L184.657 100.071C185.047 100.462 185.681 100.462 186.071 100.071C186.462 99.6805 186.462 99.0474 186.071 98.6569L180.414 93L186.071 87.3431C186.462 86.9526 186.462 86.3195 186.071 85.9289C185.681 85.5384 185.047 85.5384 184.657 85.9289L178.293 92.2929ZM195.056 92H179V94H195.056V92Z" fill="#C9D1D9"/>
</g>
<path d="M97.082 36.1738C97.082 36.7598 97.0234 37.2949 96.9062 37.7793C96.7891 38.2598 96.6113 38.6738 96.373 39.0215C96.1348 39.3652 95.8379 39.6328 95.4824 39.8242C95.1309 40.0117 94.7168 40.1055 94.2402 40.1055C93.8301 40.1055 93.457 40.0293 93.1211 39.877C92.7852 39.7207 92.498 39.4824 92.2598 39.1621C92.0215 38.8418 91.8379 38.4336 91.709 37.9375C91.5801 37.4414 91.5156 36.8535 91.5156 36.1738C91.5156 35.5879 91.5742 35.0527 91.6914 34.5684C91.8125 34.084 91.9902 33.6699 92.2246 33.3262C92.4629 32.9785 92.7598 32.7109 93.1152 32.5234C93.4707 32.332 93.8848 32.2363 94.3574 32.2363C94.7676 32.2363 95.1406 32.3145 95.4766 32.4707C95.8125 32.623 96.0996 32.8613 96.3379 33.1855C96.5762 33.5059 96.7598 33.9141 96.8887 34.4102C97.0176 34.9062 97.082 35.4941 97.082 36.1738ZM96.0508 36.209C96.0508 36.0762 96.0449 35.9453 96.0332 35.8164C96.0254 35.6836 96.0156 35.5547 96.0039 35.4297L92.7637 37.8379C92.8223 38.041 92.8965 38.2285 92.9863 38.4004C93.0762 38.5723 93.1836 38.7207 93.3086 38.8457C93.4375 38.9668 93.582 39.0625 93.7422 39.1328C93.9062 39.1992 94.0918 39.2324 94.2988 39.2324C94.5645 39.2324 94.8047 39.168 95.0195 39.0391C95.2383 38.9102 95.4238 38.7188 95.5762 38.4648C95.7285 38.2109 95.8457 37.8965 95.9277 37.5215C96.0098 37.1426 96.0508 36.7051 96.0508 36.209ZM92.5469 36.1387C92.5469 36.2598 92.5469 36.3809 92.5469 36.502C92.5508 36.623 92.5586 36.7402 92.5703 36.8535L95.8105 34.457C95.752 34.2578 95.6777 34.0762 95.5879 33.9121C95.498 33.748 95.3906 33.6074 95.2656 33.4902C95.1406 33.3691 94.998 33.2754 94.8379 33.209C94.6777 33.1426 94.498 33.1094 94.2988 33.1094C94.0332 33.1094 93.791 33.1738 93.5723 33.3027C93.3574 33.4316 93.1738 33.625 93.0215 33.8828C92.8691 34.1367 92.752 34.4531 92.6699 34.832C92.5879 35.207 92.5469 35.6426 92.5469 36.1387Z" fill="#C9D1D9"/>
<path d="M107.842 40H103.031V39.0508H105V33.4609L103.166 34.457L102.791 33.5898L105.229 32.3066H106.131V39.0508H107.842V40Z" fill="#C9D1D9"/>
<path d="M118.906 40H113.861V39.0859L115.842 37.1172C116.166 36.7969 116.43 36.5195 116.633 36.2852C116.836 36.0508 116.994 35.8379 117.107 35.6465C117.221 35.4512 117.297 35.2676 117.336 35.0957C117.375 34.9238 117.395 34.7383 117.395 34.5391C117.395 34.3516 117.369 34.1738 117.318 34.0059C117.268 33.834 117.189 33.6836 117.084 33.5547C116.979 33.4258 116.842 33.3242 116.674 33.25C116.506 33.1758 116.305 33.1387 116.07 33.1387C115.746 33.1387 115.451 33.2109 115.186 33.3555C114.92 33.5 114.676 33.6875 114.453 33.918L113.891 33.2441C114.18 32.9395 114.512 32.6953 114.887 32.5117C115.266 32.3281 115.705 32.2363 116.205 32.2363C116.545 32.2363 116.854 32.2871 117.131 32.3887C117.412 32.4902 117.654 32.6367 117.857 32.8281C118.061 33.0195 118.217 33.2539 118.326 33.5312C118.439 33.8086 118.496 34.1211 118.496 34.4688C118.496 34.7617 118.457 35.0332 118.379 35.2832C118.301 35.5332 118.182 35.7832 118.021 36.0332C117.865 36.2793 117.666 36.5352 117.424 36.8008C117.186 37.0664 116.902 37.3574 116.574 37.6738L115.186 39.0273H118.906V40Z" fill="#C9D1D9"/>
<path d="M129.76 37.6738C129.76 38.0098 129.691 38.3262 129.555 38.623C129.418 38.916 129.213 39.1738 128.939 39.3965C128.666 39.6152 128.322 39.7891 127.908 39.918C127.494 40.043 127.012 40.1055 126.461 40.1055C126.156 40.1055 125.883 40.0957 125.641 40.0762C125.398 40.0566 125.172 40.0312 124.961 40V39.0859C125.203 39.1289 125.459 39.1621 125.729 39.1855C125.998 39.209 126.273 39.2207 126.555 39.2207C126.938 39.2207 127.264 39.1875 127.533 39.1211C127.807 39.0508 128.029 38.9512 128.201 38.8223C128.373 38.6934 128.498 38.5371 128.576 38.3535C128.654 38.1699 128.693 37.9629 128.693 37.7324C128.693 37.5215 128.646 37.3379 128.553 37.1816C128.459 37.0254 128.326 36.8945 128.154 36.7891C127.986 36.6836 127.783 36.6055 127.545 36.5547C127.311 36.5 127.053 36.4727 126.771 36.4727H125.898V35.6348H126.783C127.014 35.6348 127.223 35.6055 127.41 35.5469C127.602 35.4844 127.764 35.3965 127.896 35.2832C128.033 35.1699 128.137 35.0312 128.207 34.8672C128.281 34.6992 128.318 34.5098 128.318 34.2988C128.318 33.8887 128.193 33.5898 127.943 33.4023C127.693 33.2148 127.326 33.1211 126.842 33.1211C126.584 33.1211 126.318 33.1465 126.045 33.1973C125.771 33.248 125.479 33.3242 125.166 33.4258V32.5352C125.299 32.4883 125.439 32.4473 125.588 32.4121C125.74 32.373 125.891 32.3418 126.039 32.3184C126.191 32.291 126.342 32.2715 126.49 32.2598C126.639 32.2441 126.781 32.2363 126.918 32.2363C127.324 32.2363 127.682 32.2812 127.99 32.3711C128.299 32.457 128.557 32.582 128.764 32.7461C128.971 32.9102 129.127 33.1094 129.232 33.3438C129.338 33.5781 129.391 33.8418 129.391 34.1348C129.391 34.5723 129.277 34.9395 129.051 35.2363C128.828 35.5332 128.521 35.7695 128.131 35.9453C128.33 35.9766 128.525 36.0391 128.717 36.1328C128.912 36.2266 129.086 36.3477 129.238 36.4961C129.395 36.6406 129.52 36.8125 129.613 37.0117C129.711 37.2109 129.76 37.4316 129.76 37.6738Z" fill="#C9D1D9"/>
<path d="M141.287 38.3066H139.98V40H138.938V38.3066H135.252V37.4102L138.516 32.3418H139.98V37.4102H141.287V38.3066ZM138.938 33.3262L136.271 37.4102H138.938V33.3262Z" fill="#C9D1D9"/>
<path d="M151.713 37.5508C151.713 37.9297 151.631 38.2754 151.467 38.5879C151.303 38.9004 151.076 39.1699 150.787 39.3965C150.502 39.6191 150.164 39.793 149.773 39.918C149.383 40.043 148.961 40.1055 148.508 40.1055C148.395 40.1055 148.271 40.1016 148.139 40.0938C148.01 40.0898 147.881 40.082 147.752 40.0703C147.623 40.0625 147.496 40.0527 147.371 40.041C147.25 40.0293 147.141 40.0156 147.043 40V39.0742C147.254 39.125 147.494 39.1621 147.764 39.1855C148.037 39.209 148.312 39.2207 148.59 39.2207C148.902 39.2207 149.184 39.1836 149.434 39.1094C149.684 39.0352 149.896 38.9297 150.072 38.793C150.248 38.6523 150.383 38.4844 150.477 38.2891C150.57 38.0898 150.617 37.8672 150.617 37.6211C150.617 37.1445 150.445 36.7988 150.102 36.584C149.762 36.3652 149.271 36.2559 148.631 36.2559H147.178V32.3418H151.303V33.2324H148.139V35.3828H148.807C149.174 35.3828 149.531 35.416 149.879 35.4824C150.227 35.5488 150.535 35.666 150.805 35.834C151.078 35.998 151.297 36.2207 151.461 36.502C151.629 36.7793 151.713 37.1289 151.713 37.5508Z" fill="#C9D1D9"/>
<path d="M163 37.5742C163 37.9258 162.936 38.2559 162.807 38.5645C162.682 38.873 162.502 39.1426 162.268 39.373C162.033 39.5996 161.75 39.7793 161.418 39.9121C161.09 40.041 160.725 40.1055 160.322 40.1055C159.9 40.1055 159.527 40.0391 159.203 39.9062C158.879 39.7695 158.607 39.5625 158.389 39.2852C158.17 39.0039 158.004 38.6504 157.891 38.2246C157.777 37.7988 157.721 37.2949 157.721 36.7129C157.721 36.3223 157.746 35.9434 157.797 35.5762C157.848 35.209 157.932 34.8633 158.049 34.5391C158.166 34.2148 158.322 33.918 158.518 33.6484C158.713 33.3789 158.955 33.1484 159.244 32.957C159.537 32.7617 159.881 32.6113 160.275 32.5059C160.67 32.3965 161.127 32.3418 161.646 32.3418H162.402V33.2324H161.582C161.125 33.2324 160.729 33.2871 160.393 33.3965C160.057 33.5059 159.775 33.6602 159.549 33.8594C159.322 34.0586 159.148 34.2988 159.027 34.5801C158.906 34.8613 158.83 35.1758 158.799 35.5234L158.775 35.7637C159.021 35.6191 159.305 35.5039 159.625 35.418C159.949 35.3281 160.299 35.2832 160.674 35.2832C161.061 35.2832 161.398 35.3398 161.688 35.4531C161.98 35.5664 162.223 35.7246 162.414 35.9277C162.609 36.127 162.756 36.3672 162.854 36.6484C162.951 36.9297 163 37.2383 163 37.5742ZM161.934 37.6387C161.934 37.4043 161.904 37.1934 161.846 37.0059C161.791 36.8145 161.703 36.6543 161.582 36.5254C161.461 36.3926 161.307 36.291 161.119 36.2207C160.936 36.1465 160.715 36.1094 160.457 36.1094C160.309 36.1094 160.158 36.123 160.006 36.1504C159.854 36.1777 159.703 36.2168 159.555 36.2676C159.41 36.3145 159.271 36.3691 159.139 36.4316C159.006 36.4941 158.885 36.5605 158.775 36.6309C158.775 37.1348 158.811 37.5566 158.881 37.8965C158.951 38.2324 159.055 38.502 159.191 38.7051C159.332 38.9082 159.504 39.0527 159.707 39.1387C159.91 39.2246 160.145 39.2676 160.41 39.2676C160.633 39.2676 160.836 39.2324 161.02 39.1621C161.207 39.0879 161.367 38.9805 161.5 38.8398C161.637 38.6992 161.742 38.5293 161.816 38.3301C161.895 38.127 161.934 37.8965 161.934 37.6387Z" fill="#C9D1D9"/>
<path d="M173.865 33.291L170.654 40H169.488L172.822 33.291H168.686V32.3418H173.865V33.291Z" fill="#C9D1D9"/>
<path d="M184.906 38.0781C184.906 38.4023 184.84 38.6914 184.707 38.9453C184.574 39.1953 184.389 39.4062 184.15 39.5781C183.912 39.75 183.631 39.8809 183.307 39.9707C182.982 40.0605 182.631 40.1055 182.252 40.1055C181.834 40.1055 181.465 40.0586 181.145 39.9648C180.828 39.8711 180.562 39.7402 180.348 39.5723C180.133 39.4043 179.971 39.2051 179.861 38.9746C179.752 38.7441 179.697 38.4902 179.697 38.2129C179.697 37.7441 179.828 37.3398 180.09 37C180.352 36.6602 180.756 36.3516 181.303 36.0742C180.803 35.8203 180.438 35.5391 180.207 35.2305C179.977 34.918 179.861 34.5605 179.861 34.1582C179.861 33.9121 179.912 33.6738 180.014 33.4434C180.115 33.2129 180.268 33.0078 180.471 32.8281C180.678 32.6484 180.936 32.5059 181.244 32.4004C181.553 32.291 181.916 32.2363 182.334 32.2363C182.729 32.2363 183.074 32.2793 183.371 32.3652C183.672 32.4473 183.924 32.5664 184.127 32.7227C184.33 32.8789 184.482 33.0684 184.584 33.291C184.686 33.5137 184.736 33.7617 184.736 34.0352C184.736 34.4805 184.611 34.8594 184.361 35.1719C184.115 35.4844 183.764 35.7578 183.307 35.9922C183.533 36.1055 183.744 36.2305 183.939 36.3672C184.135 36.5039 184.305 36.6562 184.449 36.8242C184.594 36.9922 184.705 37.1797 184.783 37.3867C184.865 37.5938 184.906 37.8242 184.906 38.0781ZM183.693 34.1172C183.693 33.7695 183.57 33.5117 183.324 33.3438C183.082 33.1719 182.74 33.0859 182.299 33.0859C181.861 33.0859 181.52 33.1699 181.273 33.3379C181.031 33.5059 180.91 33.7578 180.91 34.0938C180.91 34.2461 180.939 34.3867 180.998 34.5156C181.057 34.6445 181.146 34.7656 181.268 34.8789C181.393 34.9922 181.547 35.1035 181.73 35.2129C181.914 35.3223 182.133 35.4336 182.387 35.5469C182.828 35.3398 183.156 35.125 183.371 34.9023C183.586 34.6758 183.693 34.4141 183.693 34.1172ZM183.799 38.1543C183.799 38.0098 183.775 37.8691 183.729 37.7324C183.682 37.5957 183.598 37.4609 183.477 37.3281C183.355 37.1953 183.193 37.0625 182.99 36.9297C182.787 36.7969 182.529 36.6602 182.217 36.5195C181.951 36.6484 181.727 36.7773 181.543 36.9062C181.363 37.0312 181.217 37.1602 181.104 37.293C180.994 37.4219 180.916 37.5566 180.869 37.6973C180.822 37.8379 180.799 37.9863 180.799 38.1426C180.799 38.3184 180.836 38.4746 180.91 38.6113C180.988 38.7441 181.094 38.8574 181.227 38.9512C181.359 39.0449 181.518 39.1152 181.701 39.1621C181.885 39.209 182.084 39.2324 182.299 39.2324C182.506 39.2324 182.701 39.2109 182.885 39.168C183.068 39.125 183.227 39.0605 183.359 38.9746C183.496 38.8848 183.604 38.7734 183.682 38.6406C183.76 38.5039 183.799 38.3418 183.799 38.1543Z" fill="#C9D1D9"/>
<path d="M65.1562 46.7207H61.377V58H59.6191V46.7207H55.8398V45.2363H65.1562V46.7207ZM71.4941 48.0195C71.696 48.0195 71.888 48.0618 72.0703 48.1465C72.2526 48.2246 72.4121 48.332 72.5488 48.4688C72.6855 48.6055 72.793 48.765 72.8711 48.9473C72.9557 49.1296 72.998 49.3216 72.998 49.5234C72.998 49.7318 72.9557 49.9271 72.8711 50.1094C72.793 50.2852 72.6855 50.4414 72.5488 50.5781C72.4121 50.7148 72.2526 50.8223 72.0703 50.9004C71.888 50.9785 71.696 51.0176 71.4941 51.0176C71.2858 51.0176 71.0905 50.9785 70.9082 50.9004C70.7324 50.8223 70.5762 50.7148 70.4395 50.5781C70.3027 50.4414 70.1953 50.2852 70.1172 50.1094C70.0391 49.9271 70 49.7318 70 49.5234C70 49.3216 70.0391 49.1296 70.1172 48.9473C70.1953 48.765 70.3027 48.6055 70.4395 48.4688C70.5762 48.332 70.7324 48.2246 70.9082 48.1465C71.0905 48.0618 71.2858 48.0195 71.4941 48.0195ZM71.4941 55.1777C71.696 55.1777 71.888 55.2201 72.0703 55.3047C72.2526 55.3828 72.4121 55.4902 72.5488 55.627C72.6855 55.7637 72.793 55.9232 72.8711 56.1055C72.9557 56.2878 72.998 56.4798 72.998 56.6816C72.998 56.89 72.9557 57.0853 72.8711 57.2676C72.793 57.4434 72.6855 57.5996 72.5488 57.7363C72.4121 57.873 72.2526 57.9805 72.0703 58.0586C71.888 58.1367 71.696 58.1758 71.4941 58.1758C71.2858 58.1758 71.0905 58.1367 70.9082 58.0586C70.7324 57.9805 70.5762 57.873 70.4395 57.7363C70.3027 57.5996 70.1953 57.4434 70.1172 57.2676C70.0391 57.0853 70 56.89 70 56.6816C70 56.4798 70.0391 56.2878 70.1172 56.1055C70.1953 55.9232 70.3027 55.7637 70.4395 55.627C70.5762 55.4902 70.7324 55.3828 70.9082 55.3047C71.0905 55.2201 71.2858 55.1777 71.4941 55.1777ZM97.7051 57.5215C96.6829 57.9447 95.612 58.1562 94.4922 58.1562C92.6888 58.1562 91.3021 57.6191 90.332 56.5449C89.3685 55.4642 88.8867 53.8691 88.8867 51.7598C88.8867 50.7376 89.0202 49.8132 89.2871 48.9863C89.554 48.1595 89.9349 47.4596 90.4297 46.8867C90.9245 46.3073 91.5234 45.8613 92.2266 45.5488C92.9297 45.2363 93.7174 45.0801 94.5898 45.0801C95.1823 45.0801 95.7324 45.1322 96.2402 45.2363C96.748 45.334 97.2363 45.487 97.7051 45.6953V47.4043C97.2428 47.1504 96.7643 46.9583 96.2695 46.8281C95.7747 46.6914 95.2344 46.623 94.6484 46.623C94.0495 46.623 93.5059 46.737 93.0176 46.9648C92.5358 47.1862 92.1257 47.5117 91.7871 47.9414C91.4486 48.3646 91.1882 48.8854 91.0059 49.5039C90.8236 50.1159 90.7324 50.8158 90.7324 51.6035C90.7324 53.2572 91.0677 54.5039 91.7383 55.3438C92.4089 56.1836 93.3919 56.6035 94.6875 56.6035C95.2344 56.6035 95.7585 56.5417 96.2598 56.418C96.7611 56.2878 97.2428 56.1087 97.7051 55.8809V57.5215ZM108.809 47.4238C108.333 47.1699 107.845 46.9746 107.344 46.8379C106.842 46.6947 106.296 46.623 105.703 46.623C105.026 46.623 104.424 46.7435 103.896 46.9844C103.369 47.2253 102.923 47.5671 102.559 48.0098C102.201 48.446 101.924 48.9733 101.729 49.5918C101.54 50.2103 101.445 50.8939 101.445 51.6426C101.445 52.4238 101.523 53.1237 101.68 53.7422C101.836 54.3607 102.08 54.8848 102.412 55.3145C102.744 55.7441 103.167 56.0729 103.682 56.3008C104.202 56.5286 104.824 56.6426 105.547 56.6426C105.671 56.6426 105.804 56.6361 105.947 56.623C106.09 56.61 106.234 56.5938 106.377 56.5742C106.52 56.5482 106.657 56.5189 106.787 56.4863C106.924 56.4538 107.044 56.418 107.148 56.3789V52.3164H104.541V50.8809H108.867V57.4043C108.6 57.528 108.317 57.6387 108.018 57.7363C107.725 57.834 107.422 57.9154 107.109 57.9805C106.803 58.0456 106.497 58.0944 106.191 58.127C105.885 58.1595 105.589 58.1758 105.303 58.1758C104.43 58.1758 103.643 58.0391 102.939 57.7656C102.243 57.4922 101.647 57.0885 101.152 56.5547C100.664 56.0143 100.286 55.3438 100.02 54.543C99.7591 53.7422 99.6289 52.8145 99.6289 51.7598C99.6289 50.7116 99.7754 49.7741 100.068 48.9473C100.361 48.1139 100.771 47.4108 101.299 46.8379C101.833 46.2585 102.471 45.819 103.213 45.5195C103.962 45.2135 104.785 45.0605 105.684 45.0605C106.257 45.0605 106.8 45.1126 107.314 45.2168C107.835 45.3145 108.333 45.474 108.809 45.6953V47.4238ZM120.137 46.7207H116.357V58H114.6V46.7207H110.82V45.2363H120.137V46.7207ZM130.801 47.4238C130.326 47.1699 129.837 46.9746 129.336 46.8379C128.835 46.6947 128.288 46.623 127.695 46.623C127.018 46.623 126.416 46.7435 125.889 46.9844C125.361 47.2253 124.915 47.5671 124.551 48.0098C124.193 48.446 123.916 48.9733 123.721 49.5918C123.532 50.2103 123.438 50.8939 123.438 51.6426C123.438 52.4238 123.516 53.1237 123.672 53.7422C123.828 54.3607 124.072 54.8848 124.404 55.3145C124.736 55.7441 125.16 56.0729 125.674 56.3008C126.195 56.5286 126.816 56.6426 127.539 56.6426C127.663 56.6426 127.796 56.6361 127.939 56.623C128.083 56.61 128.226 56.5938 128.369 56.5742C128.512 56.5482 128.649 56.5189 128.779 56.4863C128.916 56.4538 129.036 56.418 129.141 56.3789V52.3164H126.533V50.8809H130.859V57.4043C130.592 57.528 130.309 57.6387 130.01 57.7363C129.717 57.834 129.414 57.9154 129.102 57.9805C128.796 58.0456 128.49 58.0944 128.184 58.127C127.878 58.1595 127.581 58.1758 127.295 58.1758C126.423 58.1758 125.635 58.0391 124.932 57.7656C124.235 57.4922 123.639 57.0885 123.145 56.5547C122.656 56.0143 122.279 55.3438 122.012 54.543C121.751 53.7422 121.621 52.8145 121.621 51.7598C121.621 50.7116 121.768 49.7741 122.061 48.9473C122.354 48.1139 122.764 47.4108 123.291 46.8379C123.825 46.2585 124.463 45.819 125.205 45.5195C125.954 45.2135 126.777 45.0605 127.676 45.0605C128.249 45.0605 128.792 45.1126 129.307 45.2168C129.827 45.3145 130.326 45.474 130.801 45.6953V47.4238ZM141.689 57.5215C140.667 57.9447 139.596 58.1562 138.477 58.1562C136.673 58.1562 135.286 57.6191 134.316 56.5449C133.353 55.4642 132.871 53.8691 132.871 51.7598C132.871 50.7376 133.005 49.8132 133.271 48.9863C133.538 48.1595 133.919 47.4596 134.414 46.8867C134.909 46.3073 135.508 45.8613 136.211 45.5488C136.914 45.2363 137.702 45.0801 138.574 45.0801C139.167 45.0801 139.717 45.1322 140.225 45.2363C140.732 45.334 141.221 45.487 141.689 45.6953V47.4043C141.227 47.1504 140.749 46.9583 140.254 46.8281C139.759 46.6914 139.219 46.623 138.633 46.623C138.034 46.623 137.49 46.737 137.002 46.9648C136.52 47.1862 136.11 47.5117 135.771 47.9414C135.433 48.3646 135.173 48.8854 134.99 49.5039C134.808 50.1159 134.717 50.8158 134.717 51.6035C134.717 53.2572 135.052 54.5039 135.723 55.3438C136.393 56.1836 137.376 56.6035 138.672 56.6035C139.219 56.6035 139.743 56.5417 140.244 56.418C140.745 56.2878 141.227 56.1087 141.689 55.8809V57.5215ZM152.686 57.5215C151.663 57.9447 150.592 58.1562 149.473 58.1562C147.669 58.1562 146.283 57.6191 145.312 56.5449C144.349 55.4642 143.867 53.8691 143.867 51.7598C143.867 50.7376 144.001 49.8132 144.268 48.9863C144.535 48.1595 144.915 47.4596 145.41 46.8867C145.905 46.3073 146.504 45.8613 147.207 45.5488C147.91 45.2363 148.698 45.0801 149.57 45.0801C150.163 45.0801 150.713 45.1322 151.221 45.2363C151.729 45.334 152.217 45.487 152.686 45.6953V47.4043C152.223 47.1504 151.745 46.9583 151.25 46.8281C150.755 46.6914 150.215 46.623 149.629 46.623C149.03 46.623 148.486 46.737 147.998 46.9648C147.516 47.1862 147.106 47.5117 146.768 47.9414C146.429 48.3646 146.169 48.8854 145.986 49.5039C145.804 50.1159 145.713 50.8158 145.713 51.6035C145.713 53.2572 146.048 54.5039 146.719 55.3438C147.389 56.1836 148.372 56.6035 149.668 56.6035C150.215 56.6035 150.739 56.5417 151.24 56.418C151.742 56.2878 152.223 56.1087 152.686 55.8809V57.5215ZM164.121 46.7207H160.342V58H158.584V46.7207H154.805V45.2363H164.121V46.7207ZM175.859 58H173.965L173.076 55.2168H167.764L166.865 58H165.059L169.297 45.2363H171.68L175.859 58ZM172.578 53.6641L170.42 46.8379L168.262 53.6641H172.578ZM285.078 46.7207H281.299V58H279.541V46.7207H275.762V45.2363H285.078V46.7207ZM296.074 46.7207H292.295V58H290.537V46.7207H286.758V45.2363H296.074V46.7207ZM307.812 58H305.918L305.029 55.2168H299.717L298.818 58H297.012L301.25 45.2363H303.633L307.812 58ZM304.531 53.6641L302.373 46.8379L300.215 53.6641H304.531ZM317.627 57.5215C316.605 57.9447 315.534 58.1562 314.414 58.1562C312.611 58.1562 311.224 57.6191 310.254 56.5449C309.29 55.4642 308.809 53.8691 308.809 51.7598C308.809 50.7376 308.942 49.8132 309.209 48.9863C309.476 48.1595 309.857 47.4596 310.352 46.8867C310.846 46.3073 311.445 45.8613 312.148 45.5488C312.852 45.2363 313.639 45.0801 314.512 45.0801C315.104 45.0801 315.654 45.1322 316.162 45.2363C316.67 45.334 317.158 45.487 317.627 45.6953V47.4043C317.165 47.1504 316.686 46.9583 316.191 46.8281C315.697 46.6914 315.156 46.623 314.57 46.623C313.971 46.623 313.428 46.737 312.939 46.9648C312.458 47.1862 312.048 47.5117 311.709 47.9414C311.37 48.3646 311.11 48.8854 310.928 49.5039C310.745 50.1159 310.654 50.8158 310.654 51.6035C310.654 53.2572 310.99 54.5039 311.66 55.3438C312.331 56.1836 313.314 56.6035 314.609 56.6035C315.156 56.6035 315.68 56.5417 316.182 56.418C316.683 56.2878 317.165 56.1087 317.627 55.8809V57.5215ZM329.062 46.7207H325.283V58H323.525V46.7207H319.746V45.2363H329.062V46.7207ZM340.059 46.7207H336.279V58H334.521V46.7207H330.742V45.2363H340.059V46.7207ZM351.797 58H349.902L349.014 55.2168H343.701L342.803 58H340.996L345.234 45.2363H347.617L351.797 58ZM348.516 53.6641L346.357 46.8379L344.199 53.6641H348.516ZM361.611 57.5215C360.589 57.9447 359.518 58.1562 358.398 58.1562C356.595 58.1562 355.208 57.6191 354.238 56.5449C353.275 55.4642 352.793 53.8691 352.793 51.7598C352.793 50.7376 352.926 49.8132 353.193 48.9863C353.46 48.1595 353.841 47.4596 354.336 46.8867C354.831 46.3073 355.43 45.8613 356.133 45.5488C356.836 45.2363 357.624 45.0801 358.496 45.0801C359.089 45.0801 359.639 45.1322 360.146 45.2363C360.654 45.334 361.143 45.487 361.611 45.6953V47.4043C361.149 47.1504 360.671 46.9583 360.176 46.8281C359.681 46.6914 359.141 46.623 358.555 46.623C357.956 46.623 357.412 46.737 356.924 46.9648C356.442 47.1862 356.032 47.5117 355.693 47.9414C355.355 48.3646 355.094 48.8854 354.912 49.5039C354.73 50.1159 354.639 50.8158 354.639 51.6035C354.639 53.2572 354.974 54.5039 355.645 55.3438C356.315 56.1836 357.298 56.6035 358.594 56.6035C359.141 56.6035 359.665 56.5417 360.166 56.418C360.667 56.2878 361.149 56.1087 361.611 55.8809V57.5215ZM372.715 47.4238C372.24 47.1699 371.751 46.9746 371.25 46.8379C370.749 46.6947 370.202 46.623 369.609 46.623C368.932 46.623 368.33 46.7435 367.803 46.9844C367.275 47.2253 366.829 47.5671 366.465 48.0098C366.107 48.446 365.83 48.9733 365.635 49.5918C365.446 50.2103 365.352 50.8939 365.352 51.6426C365.352 52.4238 365.43 53.1237 365.586 53.7422C365.742 54.3607 365.986 54.8848 366.318 55.3145C366.65 55.7441 367.074 56.0729 367.588 56.3008C368.109 56.5286 368.73 56.6426 369.453 56.6426C369.577 56.6426 369.71 56.6361 369.854 56.623C369.997 56.61 370.14 56.5938 370.283 56.5742C370.426 56.5482 370.563 56.5189 370.693 56.4863C370.83 56.4538 370.951 56.418 371.055 56.3789V52.3164H368.447V50.8809H372.773V57.4043C372.507 57.528 372.223 57.6387 371.924 57.7363C371.631 57.834 371.328 57.9154 371.016 57.9805C370.71 58.0456 370.404 58.0944 370.098 58.127C369.792 58.1595 369.495 58.1758 369.209 58.1758C368.337 58.1758 367.549 58.0391 366.846 57.7656C366.149 57.4922 365.553 57.0885 365.059 56.5547C364.57 56.0143 364.193 55.3438 363.926 54.543C363.665 53.7422 363.535 52.8145 363.535 51.7598C363.535 50.7116 363.682 49.7741 363.975 48.9473C364.268 48.1139 364.678 47.4108 365.205 46.8379C365.739 46.2585 366.377 45.819 367.119 45.5195C367.868 45.2135 368.691 45.0605 369.59 45.0605C370.163 45.0605 370.706 45.1126 371.221 45.2168C371.742 45.3145 372.24 45.474 372.715 45.6953V47.4238ZM383.604 57.5215C382.581 57.9447 381.51 58.1562 380.391 58.1562C378.587 58.1562 377.201 57.6191 376.23 56.5449C375.267 55.4642 374.785 53.8691 374.785 51.7598C374.785 50.7376 374.919 49.8132 375.186 48.9863C375.452 48.1595 375.833 47.4596 376.328 46.8867C376.823 46.3073 377.422 45.8613 378.125 45.5488C378.828 45.2363 379.616 45.0801 380.488 45.0801C381.081 45.0801 381.631 45.1322 382.139 45.2363C382.646 45.334 383.135 45.487 383.604 45.6953V47.4043C383.141 47.1504 382.663 46.9583 382.168 46.8281C381.673 46.6914 381.133 46.623 380.547 46.623C379.948 46.623 379.404 46.737 378.916 46.9648C378.434 47.1862 378.024 47.5117 377.686 47.9414C377.347 48.3646 377.087 48.8854 376.904 49.5039C376.722 50.1159 376.631 50.8158 376.631 51.6035C376.631 53.2572 376.966 54.5039 377.637 55.3438C378.307 56.1836 379.29 56.6035 380.586 56.6035C381.133 56.6035 381.657 56.5417 382.158 56.418C382.66 56.2878 383.141 56.1087 383.604 55.8809V57.5215ZM394.707 47.4238C394.232 47.1699 393.743 46.9746 393.242 46.8379C392.741 46.6947 392.194 46.623 391.602 46.623C390.924 46.623 390.322 46.7435 389.795 46.9844C389.268 47.2253 388.822 47.5671 388.457 48.0098C388.099 48.446 387.822 48.9733 387.627 49.5918C387.438 50.2103 387.344 50.8939 387.344 51.6426C387.344 52.4238 387.422 53.1237 387.578 53.7422C387.734 54.3607 387.979 54.8848 388.311 55.3145C388.643 55.7441 389.066 56.0729 389.58 56.3008C390.101 56.5286 390.723 56.6426 391.445 56.6426C391.569 56.6426 391.702 56.6361 391.846 56.623C391.989 56.61 392.132 56.5938 392.275 56.5742C392.419 56.5482 392.555 56.5189 392.686 56.4863C392.822 56.4538 392.943 56.418 393.047 56.3789V52.3164H390.439V50.8809H394.766V57.4043C394.499 57.528 394.215 57.6387 393.916 57.7363C393.623 57.834 393.32 57.9154 393.008 57.9805C392.702 58.0456 392.396 58.0944 392.09 58.127C391.784 58.1595 391.488 58.1758 391.201 58.1758C390.329 58.1758 389.541 58.0391 388.838 57.7656C388.141 57.4922 387.546 57.0885 387.051 56.5547C386.562 56.0143 386.185 55.3438 385.918 54.543C385.658 53.7422 385.527 52.8145 385.527 51.7598C385.527 50.7116 385.674 49.7741 385.967 48.9473C386.26 48.1139 386.67 47.4108 387.197 46.8379C387.731 46.2585 388.369 45.819 389.111 45.5195C389.86 45.2135 390.684 45.0605 391.582 45.0605C392.155 45.0605 392.699 45.1126 393.213 45.2168C393.734 45.3145 394.232 45.474 394.707 45.6953V47.4238ZM406.777 58H404.883L403.994 55.2168H398.682L397.783 58H395.977L400.215 45.2363H402.598L406.777 58ZM403.496 53.6641L401.338 46.8379L399.18 53.6641H403.496ZM417.773 58H415.879L414.99 55.2168H409.678L408.779 58H406.973L411.211 45.2363H413.594L417.773 58ZM414.492 53.6641L412.334 46.8379L410.176 53.6641H414.492ZM64.9219 72.1426C64.9219 72.6634 64.8242 73.181 64.6289 73.6953C64.4336 74.2031 64.1309 74.6589 63.7207 75.0625C63.3105 75.4661 62.7865 75.7949 62.1484 76.0488C61.5104 76.2962 60.7487 76.4199 59.8633 76.4199H58.2812V81H56.543V68.2363H60.1367C60.7682 68.2363 61.3737 68.3079 61.9531 68.4512C62.5326 68.5879 63.0404 68.8125 63.4766 69.125C63.9193 69.4375 64.2708 69.8411 64.5312 70.3359C64.7917 70.8307 64.9219 71.4329 64.9219 72.1426ZM63.1152 72.2207C63.1152 71.4004 62.8451 70.7721 62.3047 70.3359C61.7708 69.8997 61.0221 69.6816 60.0586 69.6816H58.2812V74.9355H59.9023C60.931 74.9355 61.722 74.7109 62.2754 74.2617C62.8353 73.8125 63.1152 73.1322 63.1152 72.2207ZM71.4941 71.0195C71.696 71.0195 71.888 71.0618 72.0703 71.1465C72.2526 71.2246 72.4121 71.332 72.5488 71.4688C72.6855 71.6055 72.793 71.765 72.8711 71.9473C72.9557 72.1296 72.998 72.3216 72.998 72.5234C72.998 72.7318 72.9557 72.9271 72.8711 73.1094C72.793 73.2852 72.6855 73.4414 72.5488 73.5781C72.4121 73.7148 72.2526 73.8223 72.0703 73.9004C71.888 73.9785 71.696 74.0176 71.4941 74.0176C71.2858 74.0176 71.0905 73.9785 70.9082 73.9004C70.7324 73.8223 70.5762 73.7148 70.4395 73.5781C70.3027 73.4414 70.1953 73.2852 70.1172 73.1094C70.0391 72.9271 70 72.7318 70 72.5234C70 72.3216 70.0391 72.1296 70.1172 71.9473C70.1953 71.765 70.3027 71.6055 70.4395 71.4688C70.5762 71.332 70.7324 71.2246 70.9082 71.1465C71.0905 71.0618 71.2858 71.0195 71.4941 71.0195ZM71.4941 78.1777C71.696 78.1777 71.888 78.2201 72.0703 78.3047C72.2526 78.3828 72.4121 78.4902 72.5488 78.627C72.6855 78.7637 72.793 78.9232 72.8711 79.1055C72.9557 79.2878 72.998 79.4798 72.998 79.6816C72.998 79.89 72.9557 80.0853 72.8711 80.2676C72.793 80.4434 72.6855 80.5996 72.5488 80.7363C72.4121 80.873 72.2526 80.9805 72.0703 81.0586C71.888 81.1367 71.696 81.1758 71.4941 81.1758C71.2858 81.1758 71.0905 81.1367 70.9082 81.0586C70.7324 80.9805 70.5762 80.873 70.4395 80.7363C70.3027 80.5996 70.1953 80.4434 70.1172 80.2676C70.0391 80.0853 70 79.89 70 79.6816C70 79.4798 70.0391 79.2878 70.1172 79.1055C70.1953 78.9232 70.3027 78.7637 70.4395 78.627C70.5762 78.4902 70.7324 78.3828 70.9082 78.3047C71.0905 78.2201 71.2858 78.1777 71.4941 78.1777Z" fill="#C9D1D9"/>
<path d="M185.674 57.5215C184.652 57.9447 183.581 58.1562 182.461 58.1562C180.658 58.1562 179.271 57.6191 178.301 56.5449C177.337 55.4642 176.855 53.8691 176.855 51.7598C176.855 50.7376 176.989 49.8132 177.256 48.9863C177.523 48.1595 177.904 47.4596 178.398 46.8867C178.893 46.3073 179.492 45.8613 180.195 45.5488C180.898 45.2363 181.686 45.0801 182.559 45.0801C183.151 45.0801 183.701 45.1322 184.209 45.2363C184.717 45.334 185.205 45.487 185.674 45.6953V47.4043C185.212 47.1504 184.733 46.9583 184.238 46.8281C183.743 46.6914 183.203 46.623 182.617 46.623C182.018 46.623 181.475 46.737 180.986 46.9648C180.505 47.1862 180.094 47.5117 179.756 47.9414C179.417 48.3646 179.157 48.8854 178.975 49.5039C178.792 50.1159 178.701 50.8158 178.701 51.6035C178.701 53.2572 179.036 54.5039 179.707 55.3438C180.378 56.1836 181.361 56.6035 182.656 56.6035C183.203 56.6035 183.727 56.5417 184.229 56.418C184.73 56.2878 185.212 56.1087 185.674 55.8809V57.5215ZM197.109 46.7207H193.33V58H191.572V46.7207H187.793V45.2363H197.109V46.7207ZM208.105 46.7207H204.326V58H202.568V46.7207H198.789V45.2363H208.105V46.7207ZM219.844 58H217.949L217.061 55.2168H211.748L210.85 58H209.043L213.281 45.2363H215.664L219.844 58ZM216.562 53.6641L214.404 46.8379L212.246 53.6641H216.562ZM229.658 57.5215C228.636 57.9447 227.565 58.1562 226.445 58.1562C224.642 58.1562 223.255 57.6191 222.285 56.5449C221.322 55.4642 220.84 53.8691 220.84 51.7598C220.84 50.7376 220.973 49.8132 221.24 48.9863C221.507 48.1595 221.888 47.4596 222.383 46.8867C222.878 46.3073 223.477 45.8613 224.18 45.5488C224.883 45.2363 225.671 45.0801 226.543 45.0801C227.135 45.0801 227.686 45.1322 228.193 45.2363C228.701 45.334 229.189 45.487 229.658 45.6953V47.4043C229.196 47.1504 228.717 46.9583 228.223 46.8281C227.728 46.6914 227.188 46.623 226.602 46.623C226.003 46.623 225.459 46.737 224.971 46.9648C224.489 47.1862 224.079 47.5117 223.74 47.9414C223.402 48.3646 223.141 48.8854 222.959 49.5039C222.777 50.1159 222.686 50.8158 222.686 51.6035C222.686 53.2572 223.021 54.5039 223.691 55.3438C224.362 56.1836 225.345 56.6035 226.641 56.6035C227.188 56.6035 227.712 56.5417 228.213 56.418C228.714 56.2878 229.196 56.1087 229.658 55.8809V57.5215ZM241.094 46.7207H237.314V58H235.557V46.7207H231.777V45.2363H241.094V46.7207ZM252.09 46.7207H248.311V58H246.553V46.7207H242.773V45.2363H252.09V46.7207ZM263.828 58H261.934L261.045 55.2168H255.732L254.834 58H253.027L257.266 45.2363H259.648L263.828 58ZM260.547 53.6641L258.389 46.8379L256.23 53.6641H260.547ZM273.643 57.5215C272.62 57.9447 271.549 58.1562 270.43 58.1562C268.626 58.1562 267.24 57.6191 266.27 56.5449C265.306 55.4642 264.824 53.8691 264.824 51.7598C264.824 50.7376 264.958 49.8132 265.225 48.9863C265.492 48.1595 265.872 47.4596 266.367 46.8867C266.862 46.3073 267.461 45.8613 268.164 45.5488C268.867 45.2363 269.655 45.0801 270.527 45.0801C271.12 45.0801 271.67 45.1322 272.178 45.2363C272.686 45.334 273.174 45.487 273.643 45.6953V47.4043C273.18 47.1504 272.702 46.9583 272.207 46.8281C271.712 46.6914 271.172 46.623 270.586 46.623C269.987 46.623 269.443 46.737 268.955 46.9648C268.473 47.1862 268.063 47.5117 267.725 47.9414C267.386 48.3646 267.126 48.8854 266.943 49.5039C266.761 50.1159 266.67 50.8158 266.67 51.6035C266.67 53.2572 267.005 54.5039 267.676 55.3438C268.346 56.1836 269.329 56.6035 270.625 56.6035C271.172 56.6035 271.696 56.5417 272.197 56.418C272.699 56.2878 273.18 56.1087 273.643 55.8809V57.5215ZM185.674 80.5215C184.652 80.9447 183.581 81.1562 182.461 81.1562C180.658 81.1562 179.271 80.6191 178.301 79.5449C177.337 78.4642 176.855 76.8691 176.855 74.7598C176.855 73.7376 176.989 72.8132 177.256 71.9863C177.523 71.1595 177.904 70.4596 178.398 69.8867C178.893 69.3073 179.492 68.8613 180.195 68.5488C180.898 68.2363 181.686 68.0801 182.559 68.0801C183.151 68.0801 183.701 68.1322 184.209 68.2363C184.717 68.334 185.205 68.487 185.674 68.6953V70.4043C185.212 70.1504 184.733 69.9583 184.238 69.8281C183.743 69.6914 183.203 69.623 182.617 69.623C182.018 69.623 181.475 69.737 180.986 69.9648C180.505 70.1862 180.094 70.5117 179.756 70.9414C179.417 71.3646 179.157 71.8854 178.975 72.5039C178.792 73.1159 178.701 73.8158 178.701 74.6035C178.701 76.2572 179.036 77.5039 179.707 78.3438C180.378 79.1836 181.361 79.6035 182.656 79.6035C183.203 79.6035 183.727 79.5417 184.229 79.418C184.73 79.2878 185.212 79.1087 185.674 78.8809V80.5215ZM197.109 69.7207H193.33V81H191.572V69.7207H187.793V68.2363H197.109V69.7207ZM208.105 69.7207H204.326V81H202.568V69.7207H198.789V68.2363H208.105V69.7207ZM219.844 81H217.949L217.061 78.2168H211.748L210.85 81H209.043L213.281 68.2363H215.664L219.844 81ZM216.562 76.6641L214.404 69.8379L212.246 76.6641H216.562ZM229.658 80.5215C228.636 80.9447 227.565 81.1562 226.445 81.1562C224.642 81.1562 223.255 80.6191 222.285 79.5449C221.322 78.4642 220.84 76.8691 220.84 74.7598C220.84 73.7376 220.973 72.8132 221.24 71.9863C221.507 71.1595 221.888 70.4596 222.383 69.8867C222.878 69.3073 223.477 68.8613 224.18 68.5488C224.883 68.2363 225.671 68.0801 226.543 68.0801C227.135 68.0801 227.686 68.1322 228.193 68.2363C228.701 68.334 229.189 68.487 229.658 68.6953V70.4043C229.196 70.1504 228.717 69.9583 228.223 69.8281C227.728 69.6914 227.188 69.623 226.602 69.623C226.003 69.623 225.459 69.737 224.971 69.9648C224.489 70.1862 224.079 70.5117 223.74 70.9414C223.402 71.3646 223.141 71.8854 222.959 72.5039C222.777 73.1159 222.686 73.8158 222.686 74.6035C222.686 76.2572 223.021 77.5039 223.691 78.3438C224.362 79.1836 225.345 79.6035 226.641 79.6035C227.188 79.6035 227.712 79.5417 228.213 79.418C228.714 79.2878 229.196 79.1087 229.658 78.8809V80.5215ZM241.094 69.7207H237.314V81H235.557V69.7207H231.777V68.2363H241.094V69.7207ZM252.09 69.7207H248.311V81H246.553V69.7207H242.773V68.2363H252.09V69.7207ZM263.828 81H261.934L261.045 78.2168H255.732L254.834 81H253.027L257.266 68.2363H259.648L263.828 81ZM260.547 76.6641L258.389 69.8379L256.23 76.6641H260.547ZM273.643 80.5215C272.62 80.9447 271.549 81.1562 270.43 81.1562C268.626 81.1562 267.24 80.6191 266.27 79.5449C265.306 78.4642 264.824 76.8691 264.824 74.7598C264.824 73.7376 264.958 72.8132 265.225 71.9863C265.492 71.1595 265.872 70.4596 266.367 69.8867C266.862 69.3073 267.461 68.8613 268.164 68.5488C268.867 68.2363 269.655 68.0801 270.527 68.0801C271.12 68.0801 271.67 68.1322 272.178 68.2363C272.686 68.334 273.174 68.487 273.643 68.6953V70.4043C273.18 70.1504 272.702 69.9583 272.207 69.8281C271.712 69.6914 271.172 69.623 270.586 69.623C269.987 69.623 269.443 69.737 268.955 69.9648C268.473 70.1862 268.063 70.5117 267.725 70.9414C267.386 71.3646 267.126 71.8854 266.943 72.5039C266.761 73.1159 266.67 73.8158 266.67 74.6035C266.67 76.2572 267.005 77.5039 267.676 78.3438C268.346 79.1836 269.329 79.6035 270.625 79.6035C271.172 79.6035 271.696 79.5417 272.197 79.418C272.699 79.2878 273.18 79.1087 273.643 78.8809V80.5215Z" fill="#989B05"/>
<g filter="url(#filter1_d)">
<path d="M4.45312 19V7.23438H5.92188V14.9062L9.88281 10.7188H11.4922L8.125 14.3594L11.8281 19H10.1328L7.16406 15.1562L5.92188 16.3906V19H4.45312ZM14.625 16.6641C14.625 17.5859 15.2786 18.0469 16.5859 18.0469C17.8932 18.0469 18.5469 17.5859 18.5469 16.6641V13.0781C18.5469 12.151 17.8932 11.6875 16.5859 11.6875C15.2786 11.6875 14.625 12.151 14.625 13.0781V16.6641ZM20.0156 16.5391C20.0156 17.3516 19.737 17.9948 19.1797 18.4688C18.6276 18.9375 17.7604 19.1719 16.5781 19.1719C15.3958 19.1719 14.5286 18.9375 13.9766 18.4688C13.4297 18 13.1562 17.3568 13.1562 16.5391V13.2031C13.1562 12.3854 13.4297 11.7422 13.9766 11.2734C14.5286 10.7995 15.3958 10.5625 16.5781 10.5625C17.7604 10.5625 18.6276 10.7995 19.1797 11.2734C19.737 11.7474 20.0156 12.3906 20.0156 13.2031V16.5391ZM22.625 19V10.7188H24.0938V11.8906C24.2812 11.3802 24.7891 11.0104 25.6172 10.7812C26.0495 10.6562 26.5 10.5964 26.9688 10.6016L26.9219 11.8594C26.2135 11.8594 25.5651 12 24.9766 12.2812C24.388 12.5625 24.0938 12.8698 24.0938 13.2031V19H22.625ZM31.0547 19.1719C30.2161 19.1719 29.5651 18.9453 29.1016 18.4922C28.638 18.0339 28.4062 17.4661 28.4062 16.7891C28.4062 16.4036 28.487 16.0833 28.6484 15.8281C28.9766 15.3073 29.9557 14.8099 31.5859 14.3359C32.5286 14.0755 33.0703 13.8516 33.2109 13.6641C33.3568 13.4766 33.4375 13.3307 33.4531 13.2266C33.4688 13.1172 33.4766 12.9453 33.4766 12.7109C33.4766 12.4766 33.3802 12.2474 33.1875 12.0234C33 11.7995 32.5885 11.6875 31.9531 11.6875C31.0573 11.6875 30.5078 11.8594 30.3047 12.2031C30.2005 12.3802 30.1484 12.6198 30.1484 12.9219V13.2891H28.7344V12.9141C28.7344 12.1068 29.0026 11.513 29.5391 11.1328C30.0807 10.7526 30.888 10.5625 31.9609 10.5625C33.0339 10.5625 33.7995 10.8073 34.2578 11.2969C34.7161 11.7812 34.9453 12.474 34.9453 13.375V16.9062C34.9453 17.3385 35 17.6198 35.1094 17.75C35.2188 17.875 35.4531 17.9375 35.8125 17.9375L35.6406 19.0625H35.3438C34.8229 19.0625 34.4349 18.9635 34.1797 18.7656C33.9245 18.5625 33.7292 18.25 33.5938 17.8281C33.1615 18.474 32.6406 18.8802 32.0312 19.0469C31.7396 19.1302 31.4141 19.1719 31.0547 19.1719ZM31.7891 15.3438C31.0495 15.5573 30.5365 15.7708 30.25 15.9844C29.9688 16.1979 29.8281 16.5 29.8281 16.8906C29.8281 17.276 29.9583 17.5677 30.2188 17.7656C30.4844 17.9635 30.8021 18.0625 31.1719 18.0625C31.5469 18.0625 31.8854 18.0156 32.1875 17.9219C32.4896 17.8229 32.7604 17.6797 33 17.4922C33.2448 17.2995 33.4036 17.0807 33.4766 16.8359V14.4453C33.0964 14.8255 32.5339 15.125 31.7891 15.3438ZM37.9844 19V7.23438H39.4531V14.9062L43.4141 10.7188H45.0234L41.6562 14.3594L45.3594 19H43.6641L40.6953 15.1562L39.4531 16.3906V19H37.9844ZM52.6328 10.5C52.6328 9.36458 52.0417 8.79688 50.8594 8.79688C50.2448 8.79688 49.8177 8.85417 49.5781 8.96875C49.3385 9.08333 49.1667 9.22135 49.0625 9.38281C48.8438 9.72656 48.7344 10.263 48.7344 10.9922H47.2344C47.2344 10.0391 47.3958 9.3125 47.7188 8.8125C48.0417 8.30729 48.4609 7.96875 48.9766 7.79688C49.4974 7.61979 50.1068 7.53125 50.8047 7.53125C51.8203 7.53125 52.6224 7.77604 53.2109 8.26562C53.8047 8.75 54.1016 9.48698 54.1016 10.4766C54.1016 11.237 53.9583 11.8229 53.6719 12.2344C53.3906 12.6406 52.9297 12.8958 52.2891 13C52.9714 13.1406 53.4818 13.4297 53.8203 13.8672C54.1589 14.3047 54.3281 15.0182 54.3281 16.0078C54.3281 16.9974 54.026 17.7734 53.4219 18.3359C52.8177 18.8932 51.9557 19.1719 50.8359 19.1719C49.987 19.1719 49.3125 19.0599 48.8125 18.8359C48.3177 18.612 47.9401 18.2474 47.6797 17.7422C47.4193 17.237 47.2448 16.5339 47.1562 15.6328H48.6562C48.7188 16.5599 48.9193 17.1745 49.2578 17.4766C49.4453 17.6432 49.6667 17.7578 49.9219 17.8203C50.1771 17.8776 50.5104 17.9062 50.9219 17.9062C51.5833 17.9062 52.0677 17.737 52.375 17.3984C52.6823 17.0599 52.8359 16.4948 52.8359 15.7031C52.8359 14.9115 52.6901 14.388 52.3984 14.1328C52.112 13.8724 51.7578 13.7188 51.3359 13.6719C50.9193 13.625 50.513 13.6016 50.1172 13.6016V12.4375C50.9505 12.4375 51.513 12.3698 51.8047 12.2344C52.0964 12.099 52.3073 11.9349 52.4375 11.7422C52.5677 11.5443 52.6328 11.1302 52.6328 10.5Z" fill="#C9D1D9"/>
</g>
<defs>
<filter id="filter0_d" x="174" y="85.636" width="104" height="22.7279" filterUnits="userSpaceOnUse" color-interpolation-filters="sRGB">
<feFlood flood-opacity="0" result="BackgroundImageFix"/>
<feColorMatrix in="SourceAlpha" type="matrix" values="0 0 0 0 0 0 0 0 0 0 0 0 0 0 0 0 0 0 127 0"/>
<feOffset dy="4"/>
<feGaussianBlur stdDeviation="2"/>
<feColorMatrix type="matrix" values="0 0 0 0 0 0 0 0 0 0 0 0 0 0 0 0 0 0 0.25 0"/>
<feBlend mode="normal" in2="BackgroundImageFix" result="effect1_dropShadow"/>
<feBlend mode="normal" in="SourceGraphic" in2="effect1_dropShadow" result="shape"/>
</filter>
<filter id="filter1_d" x="0.453125" y="7.23438" width="57.875" height="19.9375" filterUnits="userSpaceOnUse" color-interpolation-filters="sRGB">
<feFlood flood-opacity="0" result="BackgroundImageFix"/>
<feColorMatrix in="SourceAlpha" type="matrix" values="0 0 0 0 0 0 0 0 0 0 0 0 0 0 0 0 0 0 127 0"/>
<feOffset dy="4"/>
<feGaussianBlur stdDeviation="2"/>
<feColorMatrix type="matrix" values="0 0 0 0 0 0 0 0 0 0 0 0 0 0 0 0 0 0 0.25 0"/>
<feBlend mode="normal" in2="BackgroundImageFix" result="effect1_dropShadow"/>
<feBlend mode="normal" in="SourceGraphic" in2="effect1_dropShadow" result="shape"/>
</filter>
</defs>
</svg>
