<svg width="107" height="30" viewBox="0 0 107 30" fill="none" xmlns="http://www.w3.org/2000/svg">
<g filter="url(#filter0_d)">
<path d="M13.7168 16.5215C12.6947 16.9447 11.6237 17.1562 10.5039 17.1562C8.70052 17.1562 7.3138 16.6191 6.34375 15.5449C5.38021 14.4642 4.89844 12.8691 4.89844 10.7598C4.89844 9.73763 5.0319 8.81315 5.29883 7.98633C5.56576 7.15951 5.94661 6.45964 6.44141 5.88672C6.9362 5.30729 7.53516 4.86133 8.23828 4.54883C8.94141 4.23633 9.72917 4.08008 10.6016 4.08008C11.194 4.08008 11.7441 4.13216 12.252 4.23633C12.7598 4.33398 13.248 4.48698 13.7168 4.69531V6.4043C13.2546 6.15039 12.776 5.95833 12.2812 5.82812C11.7865 5.69141 11.2461 5.62305 10.6602 5.62305C10.0612 5.62305 9.51758 5.73698 9.0293 5.96484C8.54753 6.1862 8.13737 6.51172 7.79883 6.94141C7.46029 7.36458 7.19987 7.88542 7.01758 8.50391C6.83529 9.11589 6.74414 9.81576 6.74414 10.6035C6.74414 12.2572 7.07943 13.5039 7.75 14.3438C8.42057 15.1836 9.40365 15.6035 10.6992 15.6035C11.2461 15.6035 11.7702 15.5417 12.2715 15.418C12.7728 15.2878 13.2546 15.1087 13.7168 14.8809V16.5215ZM25.1523 5.7207H21.373V17H19.6152V5.7207H15.8359V4.23633H25.1523V5.7207ZM36.1484 5.7207H32.3691V17H30.6113V5.7207H26.832V4.23633H36.1484V5.7207ZM47.8867 17H45.9922L45.1035 14.2168H39.791L38.8926 17H37.0859L41.3242 4.23633H43.707L47.8867 17ZM44.6055 12.6641L42.4473 5.83789L40.2891 12.6641H44.6055ZM57.7012 16.5215C56.679 16.9447 55.6081 17.1562 54.4883 17.1562C52.6849 17.1562 51.2982 16.6191 50.3281 15.5449C49.3646 14.4642 48.8828 12.8691 48.8828 10.7598C48.8828 9.73763 49.0163 8.81315 49.2832 7.98633C49.5501 7.15951 49.931 6.45964 50.4258 5.88672C50.9206 5.30729 51.5195 4.86133 52.2227 4.54883C52.9258 4.23633 53.7135 4.08008 54.5859 4.08008C55.1784 4.08008 55.7285 4.13216 56.2363 4.23633C56.7441 4.33398 57.2324 4.48698 57.7012 4.69531V6.4043C57.2389 6.15039 56.7604 5.95833 56.2656 5.82812C55.7708 5.69141 55.2305 5.62305 54.6445 5.62305C54.0456 5.62305 53.502 5.73698 53.0137 5.96484C52.5319 6.1862 52.1217 6.51172 51.7832 6.94141C51.4447 7.36458 51.1842 7.88542 51.002 8.50391C50.8197 9.11589 50.7285 9.81576 50.7285 10.6035C50.7285 12.2572 51.0638 13.5039 51.7344 14.3438C52.4049 15.1836 53.388 15.6035 54.6836 15.6035C55.2305 15.6035 55.7546 15.5417 56.2559 15.418C56.7572 15.2878 57.2389 15.1087 57.7012 14.8809V16.5215ZM69.1367 5.7207H65.3574V17H63.5996V5.7207H59.8203V4.23633H69.1367V5.7207ZM80.1328 5.7207H76.3535V17H74.5957V5.7207H70.8164V4.23633H80.1328V5.7207ZM91.8711 17H89.9766L89.0879 14.2168H83.7754L82.877 17H81.0703L85.3086 4.23633H87.6914L91.8711 17ZM88.5898 12.6641L86.4316 5.83789L84.2734 12.6641H88.5898ZM101.686 16.5215C100.663 16.9447 99.5924 17.1562 98.4727 17.1562C96.6693 17.1562 95.2826 16.6191 94.3125 15.5449C93.349 14.4642 92.8672 12.8691 92.8672 10.7598C92.8672 9.73763 93.0007 8.81315 93.2676 7.98633C93.5345 7.15951 93.9154 6.45964 94.4102 5.88672C94.9049 5.30729 95.5039 4.86133 96.207 4.54883C96.9102 4.23633 97.6979 4.08008 98.5703 4.08008C99.1628 4.08008 99.7129 4.13216 100.221 4.23633C100.729 4.33398 101.217 4.48698 101.686 4.69531V6.4043C101.223 6.15039 100.745 5.95833 100.25 5.82812C99.7552 5.69141 99.2148 5.62305 98.6289 5.62305C98.0299 5.62305 97.4863 5.73698 96.998 5.96484C96.5163 6.1862 96.1061 6.51172 95.7676 6.94141C95.429 7.36458 95.1686 7.88542 94.9863 8.50391C94.804 9.11589 94.7129 9.81576 94.7129 10.6035C94.7129 12.2572 95.0482 13.5039 95.7188 14.3438C96.3893 15.1836 97.3724 15.6035 98.668 15.6035C99.2148 15.6035 99.7389 15.5417 100.24 15.418C100.742 15.2878 101.223 15.1087 101.686 14.8809V16.5215Z" fill="#C9D1D9"/>
</g>
<g filter="url(#filter1_d)">
<path d="M4 21H58" stroke="#79CCDB"/>
</g>
<g filter="url(#filter2_d)">
<path d="M49 1H103" stroke="#79CCDB"/>
</g>
<defs>
<filter id="filter0_d" x="0.898438" y="4.08008" width="104.787" height="21.0762" filterUnits="userSpaceOnUse" color-interpolation-filters="sRGB">
<feFlood flood-opacity="0" result="BackgroundImageFix"/>
<feColorMatrix in="SourceAlpha" type="matrix" values="0 0 0 0 0 0 0 0 0 0 0 0 0 0 0 0 0 0 127 0"/>
<feOffset dy="4"/>
<feGaussianBlur stdDeviation="2"/>
<feColorMatrix type="matrix" values="0 0 0 0 0 0 0 0 0 0 0 0 0 0 0 0 0 0 0.25 0"/>
<feBlend mode="normal" in2="BackgroundImageFix" result="effect1_dropShadow"/>
<feBlend mode="normal" in="SourceGraphic" in2="effect1_dropShadow" result="shape"/>
</filter>
<filter id="filter1_d" x="0" y="20.5" width="62" height="9" filterUnits="userSpaceOnUse" color-interpolation-filters="sRGB">
<feFlood flood-opacity="0" result="BackgroundImageFix"/>
<feColorMatrix in="SourceAlpha" type="matrix" values="0 0 0 0 0 0 0 0 0 0 0 0 0 0 0 0 0 0 127 0"/>
<feOffset dy="4"/>
<feGaussianBlur stdDeviation="2"/>
<feColorMatrix type="matrix" values="0 0 0 0 0 0 0 0 0 0 0 0 0 0 0 0 0 0 0.25 0"/>
<feBlend mode="normal" in2="BackgroundImageFix" result="effect1_dropShadow"/>
<feBlend mode="normal" in="SourceGraphic" in2="effect1_dropShadow" result="shape"/>
</filter>
<filter id="filter2_d" x="45" y="0.5" width="62" height="9" filterUnits="userSpaceOnUse" color-interpolation-filters="sRGB">
<feFlood flood-opacity="0" result="BackgroundImageFix"/>
<feColorMatrix in="SourceAlpha" type="matrix" values="0 0 0 0 0 0 0 0 0 0 0 0 0 0 0 0 0 0 127 0"/>
<feOffset dy="4"/>
<feGaussianBlur stdDeviation="2"/>
<feColorMatrix type="matrix" values="0 0 0 0 0 0 0 0 0 0 0 0 0 0 0 0 0 0 0.25 0"/>
<feBlend mode="normal" in2="BackgroundImageFix" result="effect1_dropShadow"/>
<feBlend mode="normal" in="SourceGraphic" in2="effect1_dropShadow" result="shape"/>
</filter>
</defs>
</svg>
