<svg width="552" height="121" viewBox="0 0 552 121" fill="none" xmlns="http://www.w3.org/2000/svg">
<g filter="url(#filter0_d)">
<path d="M30.2929 44.2929C29.9024 44.6834 29.9024 45.3166 30.2929 45.7071L36.6569 52.0711C37.0474 52.4616 37.6806 52.4616 38.0711 52.0711C38.4616 51.6805 38.4616 51.0474 38.0711 50.6569L32.4142 45L38.0711 39.3431C38.4616 38.9526 38.4616 38.3195 38.0711 37.9289C37.6806 37.5384 37.0474 37.5384 36.6569 37.9289L30.2929 44.2929ZM59.5672 44H31V46H59.5672V44Z" fill="#C9D1D9"/>
</g>
<g filter="url(#filter1_d)">
<path d="M103.274 45.7071C103.665 45.3166 103.665 44.6834 103.274 44.2929L96.9103 37.9289C96.5198 37.5384 95.8866 37.5384 95.4961 37.9289C95.1056 38.3195 95.1056 38.9526 95.4961 39.3431L101.153 45L95.4961 50.6569C95.1056 51.0474 95.1056 51.6805 95.4961 52.0711C95.8866 52.4616 96.5198 52.4616 96.9103 52.0711L103.274 45.7071ZM74 46L102.567 46V44L74 44V46Z" fill="#C9D1D9"/>
</g>
<g filter="url(#filter2_d)">
<path d="M30.2929 104.293C29.9024 104.683 29.9024 105.317 30.2929 105.707L36.6569 112.071C37.0474 112.462 37.6806 112.462 38.0711 112.071C38.4616 111.681 38.4616 111.047 38.0711 110.657L32.4142 105L38.0711 99.3431C38.4616 98.9526 38.4616 98.3195 38.0711 97.9289C37.6806 97.5384 37.0474 97.5384 36.6569 97.9289L30.2929 104.293ZM275.119 104L31 104V106L275.119 106V104Z" fill="#C9D1D9"/>
</g>
<g filter="url(#filter3_d)">
<path d="M546.827 105.707C547.217 105.317 547.217 104.683 546.827 104.293L540.463 97.9289C540.072 97.5384 539.439 97.5384 539.048 97.9289C538.658 98.3195 538.658 98.9526 539.048 99.3431L544.705 105L539.048 110.657C538.658 111.047 538.658 111.681 539.048 112.071C539.439 112.462 540.072 112.462 540.463 112.071L546.827 105.707ZM302 106H546.119V104H302V106Z" fill="#C9D1D9"/>
</g>
<g filter="url(#filter4_d)">
<path d="M466.293 44.2929C465.902 44.6834 465.902 45.3166 466.293 45.7071L472.657 52.0711C473.047 52.4616 473.681 52.4616 474.071 52.0711C474.462 51.6805 474.462 51.0474 474.071 50.6569L468.414 45L474.071 39.3431C474.462 38.9526 474.462 38.3195 474.071 37.9289C473.681 37.5384 473.047 37.5384 472.657 37.9289L466.293 44.2929ZM494 44H467V46H494V44Z" fill="#C9D1D9"/>
</g>
<g filter="url(#filter5_d)">
<path d="M540.274 45.7071C540.665 45.3166 540.665 44.6834 540.274 44.2929L533.91 37.9289C533.52 37.5384 532.887 37.5384 532.496 37.9289C532.106 38.3195 532.106 38.9526 532.496 39.3431L538.153 45L532.496 50.6569C532.106 51.0474 532.106 51.6805 532.496 52.0711C532.887 52.4616 533.52 52.4616 533.91 52.0711L540.274 45.7071ZM511 46L539.567 46V44L511 44V46Z" fill="#C9D1D9"/>
</g>
<g filter="url(#filter6_d)">
<path d="M36.1687 25.9824L6.47455 25.9824L6.47455 1.23729L36.1687 1.23729" stroke="black"/>
</g>
<g filter="url(#filter7_d)">
<path d="M90.608 0H466.734V27.2196H90.608V0Z" fill="#C9D1D9"/>
<path d="M91.108 0.5H466.234V26.7196H91.108V0.5Z" stroke="black"/>
</g>
<g filter="url(#filter8_d)">
<path d="M4 0.000488281H505.089V27.2201H4V0.000488281Z" fill="#C9D1D9"/>
<path d="M4.5 0.500488H504.589V26.7201H4.5V0.500488Z" stroke="black"/>
</g>
<g filter="url(#filter9_d)">
<rect x="28.7451" width="74.2354" height="27.2196" fill="#79CCDB"/>
<rect x="29.2451" y="0.5" width="73.2354" height="26.2196" stroke="black"/>
</g>
<g filter="url(#filter10_d)">
<rect x="463.765" width="74.2354" height="27.2196" fill="#79CCDB"/>
<rect x="464.265" y="0.5" width="73.2354" height="26.2196" stroke="black"/>
</g>
<path d="M4.5 0.5H30.7196V26.7196H4.5V0.5Z" fill="#C9D1D9" stroke="black"/>
<path d="M439.519 0.5H465.739V26.7196H439.519V0.5Z" fill="#C9D1D9" stroke="black"/>
<path d="M15.6797 19.1719C14.8411 19.1719 14.1901 18.9453 13.7266 18.4922C13.263 18.0339 13.0312 17.4661 13.0312 16.7891C13.0312 16.4036 13.112 16.0833 13.2734 15.8281C13.6016 15.3073 14.5807 14.8099 16.2109 14.3359C17.1536 14.0755 17.6953 13.8516 17.8359 13.6641C17.9818 13.4766 18.0625 13.3307 18.0781 13.2266C18.0938 13.1172 18.1016 12.9453 18.1016 12.7109C18.1016 12.4766 18.0052 12.2474 17.8125 12.0234C17.625 11.7995 17.2135 11.6875 16.5781 11.6875C15.6823 11.6875 15.1328 11.8594 14.9297 12.2031C14.8255 12.3802 14.7734 12.6198 14.7734 12.9219V13.2891H13.3594V12.9141C13.3594 12.1068 13.6276 11.513 14.1641 11.1328C14.7057 10.7526 15.513 10.5625 16.5859 10.5625C17.6589 10.5625 18.4245 10.8073 18.8828 11.2969C19.3411 11.7812 19.5703 12.474 19.5703 13.375V16.9062C19.5703 17.3385 19.625 17.6198 19.7344 17.75C19.8438 17.875 20.0781 17.9375 20.4375 17.9375L20.2656 19.0625H19.9688C19.4479 19.0625 19.0599 18.9635 18.8047 18.7656C18.5495 18.5625 18.3542 18.25 18.2188 17.8281C17.7865 18.474 17.2656 18.8802 16.6562 19.0469C16.3646 19.1302 16.0391 19.1719 15.6797 19.1719ZM16.4141 15.3438C15.6745 15.5573 15.1615 15.7708 14.875 15.9844C14.5938 16.1979 14.4531 16.5 14.4531 16.8906C14.4531 17.276 14.5833 17.5677 14.8438 17.7656C15.1094 17.9635 15.4271 18.0625 15.7969 18.0625C16.1719 18.0625 16.5104 18.0156 16.8125 17.9219C17.1146 17.8229 17.3854 17.6797 17.625 17.4922C17.8698 17.2995 18.0286 17.0807 18.1016 16.8359V14.4453C17.7214 14.8255 17.1589 15.125 16.4141 15.3438Z" fill="black"/>
<path d="M451.68 19.1719C450.841 19.1719 450.19 18.9453 449.727 18.4922C449.263 18.0339 449.031 17.4661 449.031 16.7891C449.031 16.4036 449.112 16.0833 449.273 15.8281C449.602 15.3073 450.581 14.8099 452.211 14.3359C453.154 14.0755 453.695 13.8516 453.836 13.6641C453.982 13.4766 454.062 13.3307 454.078 13.2266C454.094 13.1172 454.102 12.9453 454.102 12.7109C454.102 12.4766 454.005 12.2474 453.812 12.0234C453.625 11.7995 453.214 11.6875 452.578 11.6875C451.682 11.6875 451.133 11.8594 450.93 12.2031C450.826 12.3802 450.773 12.6198 450.773 12.9219V13.2891H449.359V12.9141C449.359 12.1068 449.628 11.513 450.164 11.1328C450.706 10.7526 451.513 10.5625 452.586 10.5625C453.659 10.5625 454.424 10.8073 454.883 11.2969C455.341 11.7812 455.57 12.474 455.57 13.375V16.9062C455.57 17.3385 455.625 17.6198 455.734 17.75C455.844 17.875 456.078 17.9375 456.438 17.9375L456.266 19.0625H455.969C455.448 19.0625 455.06 18.9635 454.805 18.7656C454.549 18.5625 454.354 18.25 454.219 17.8281C453.786 18.474 453.266 18.8802 452.656 19.0469C452.365 19.1302 452.039 19.1719 451.68 19.1719ZM452.414 15.3438C451.674 15.5573 451.161 15.7708 450.875 15.9844C450.594 16.1979 450.453 16.5 450.453 16.8906C450.453 17.276 450.583 17.5677 450.844 17.7656C451.109 17.9635 451.427 18.0625 451.797 18.0625C452.172 18.0625 452.51 18.0156 452.812 17.9219C453.115 17.8229 453.385 17.6797 453.625 17.4922C453.87 17.2995 454.029 17.0807 454.102 16.8359V14.4453C453.721 14.8255 453.159 15.125 452.414 15.3438Z" fill="black"/>
<path d="M283.5 108L286.445 103.836L283.547 99.7188H285.023L287.18 102.797L289.359 99.7188H290.773L287.891 103.82L290.812 108H289.383L287.172 104.852L284.961 108H283.5Z" fill="#C9D1D9"/>
<path d="M502.453 49V40.7188H503.922V41.8906C504.109 41.3802 504.617 41.0104 505.445 40.7812C505.878 40.6562 506.328 40.5964 506.797 40.6016L506.75 41.8594C506.042 41.8594 505.393 42 504.805 42.2812C504.216 42.5625 503.922 42.8698 503.922 43.2031V49H502.453Z" fill="#C9D1D9"/>
<path d="M64.4531 49V40.7188H65.9219V41.8906C66.1094 41.3802 66.6172 41.0104 67.4453 40.7812C67.8776 40.6562 68.3281 40.5964 68.7969 40.6016L68.75 41.8594C68.0417 41.8594 67.3932 42 66.8047 42.2812C66.2161 42.5625 65.9219 42.8698 65.9219 43.2031V49H64.4531Z" fill="#C9D1D9"/>
<defs>
<filter id="filter0_d" x="26" y="37.636" width="37.5672" height="22.7279" filterUnits="userSpaceOnUse" color-interpolation-filters="sRGB">
<feFlood flood-opacity="0" result="BackgroundImageFix"/>
<feColorMatrix in="SourceAlpha" type="matrix" values="0 0 0 0 0 0 0 0 0 0 0 0 0 0 0 0 0 0 127 0"/>
<feOffset dy="4"/>
<feGaussianBlur stdDeviation="2"/>
<feColorMatrix type="matrix" values="0 0 0 0 0 0 0 0 0 0 0 0 0 0 0 0 0 0 0.25 0"/>
<feBlend mode="normal" in2="BackgroundImageFix" result="effect1_dropShadow"/>
<feBlend mode="normal" in="SourceGraphic" in2="effect1_dropShadow" result="shape"/>
</filter>
<filter id="filter1_d" x="70" y="37.636" width="37.5672" height="22.7279" filterUnits="userSpaceOnUse" color-interpolation-filters="sRGB">
<feFlood flood-opacity="0" result="BackgroundImageFix"/>
<feColorMatrix in="SourceAlpha" type="matrix" values="0 0 0 0 0 0 0 0 0 0 0 0 0 0 0 0 0 0 127 0"/>
<feOffset dy="4"/>
<feGaussianBlur stdDeviation="2"/>
<feColorMatrix type="matrix" values="0 0 0 0 0 0 0 0 0 0 0 0 0 0 0 0 0 0 0.25 0"/>
<feBlend mode="normal" in2="BackgroundImageFix" result="effect1_dropShadow"/>
<feBlend mode="normal" in="SourceGraphic" in2="effect1_dropShadow" result="shape"/>
</filter>
<filter id="filter2_d" x="26" y="97.636" width="253.119" height="22.7279" filterUnits="userSpaceOnUse" color-interpolation-filters="sRGB">
<feFlood flood-opacity="0" result="BackgroundImageFix"/>
<feColorMatrix in="SourceAlpha" type="matrix" values="0 0 0 0 0 0 0 0 0 0 0 0 0 0 0 0 0 0 127 0"/>
<feOffset dy="4"/>
<feGaussianBlur stdDeviation="2"/>
<feColorMatrix type="matrix" values="0 0 0 0 0 0 0 0 0 0 0 0 0 0 0 0 0 0 0.25 0"/>
<feBlend mode="normal" in2="BackgroundImageFix" result="effect1_dropShadow"/>
<feBlend mode="normal" in="SourceGraphic" in2="effect1_dropShadow" result="shape"/>
</filter>
<filter id="filter3_d" x="298" y="97.636" width="253.119" height="22.7279" filterUnits="userSpaceOnUse" color-interpolation-filters="sRGB">
<feFlood flood-opacity="0" result="BackgroundImageFix"/>
<feColorMatrix in="SourceAlpha" type="matrix" values="0 0 0 0 0 0 0 0 0 0 0 0 0 0 0 0 0 0 127 0"/>
<feOffset dy="4"/>
<feGaussianBlur stdDeviation="2"/>
<feColorMatrix type="matrix" values="0 0 0 0 0 0 0 0 0 0 0 0 0 0 0 0 0 0 0.25 0"/>
<feBlend mode="normal" in2="BackgroundImageFix" result="effect1_dropShadow"/>
<feBlend mode="normal" in="SourceGraphic" in2="effect1_dropShadow" result="shape"/>
</filter>
<filter id="filter4_d" x="462" y="37.636" width="36" height="22.7279" filterUnits="userSpaceOnUse" color-interpolation-filters="sRGB">
<feFlood flood-opacity="0" result="BackgroundImageFix"/>
<feColorMatrix in="SourceAlpha" type="matrix" values="0 0 0 0 0 0 0 0 0 0 0 0 0 0 0 0 0 0 127 0"/>
<feOffset dy="4"/>
<feGaussianBlur stdDeviation="2"/>
<feColorMatrix type="matrix" values="0 0 0 0 0 0 0 0 0 0 0 0 0 0 0 0 0 0 0.25 0"/>
<feBlend mode="normal" in2="BackgroundImageFix" result="effect1_dropShadow"/>
<feBlend mode="normal" in="SourceGraphic" in2="effect1_dropShadow" result="shape"/>
</filter>
<filter id="filter5_d" x="507" y="37.636" width="37.5672" height="22.7279" filterUnits="userSpaceOnUse" color-interpolation-filters="sRGB">
<feFlood flood-opacity="0" result="BackgroundImageFix"/>
<feColorMatrix in="SourceAlpha" type="matrix" values="0 0 0 0 0 0 0 0 0 0 0 0 0 0 0 0 0 0 127 0"/>
<feOffset dy="4"/>
<feGaussianBlur stdDeviation="2"/>
<feColorMatrix type="matrix" values="0 0 0 0 0 0 0 0 0 0 0 0 0 0 0 0 0 0 0.25 0"/>
<feBlend mode="normal" in2="BackgroundImageFix" result="effect1_dropShadow"/>
<feBlend mode="normal" in="SourceGraphic" in2="effect1_dropShadow" result="shape"/>
</filter>
<filter id="filter6_d" x="1.97455" y="0.737305" width="38.1942" height="33.7451" filterUnits="userSpaceOnUse" color-interpolation-filters="sRGB">
<feFlood flood-opacity="0" result="BackgroundImageFix"/>
<feColorMatrix in="SourceAlpha" type="matrix" values="0 0 0 0 0 0 0 0 0 0 0 0 0 0 0 0 0 0 127 0"/>
<feOffset dy="4"/>
<feGaussianBlur stdDeviation="2"/>
<feColorMatrix type="matrix" values="0 0 0 0 0 0 0 0 0 0 0 0 0 0 0 0 0 0 0.25 0"/>
<feBlend mode="normal" in2="BackgroundImageFix" result="effect1_dropShadow"/>
<feBlend mode="normal" in="SourceGraphic" in2="effect1_dropShadow" result="shape"/>
</filter>
<filter id="filter7_d" x="86.608" y="0" width="384.126" height="35.2196" filterUnits="userSpaceOnUse" color-interpolation-filters="sRGB">
<feFlood flood-opacity="0" result="BackgroundImageFix"/>
<feColorMatrix in="SourceAlpha" type="matrix" values="0 0 0 0 0 0 0 0 0 0 0 0 0 0 0 0 0 0 127 0"/>
<feOffset dy="4"/>
<feGaussianBlur stdDeviation="2"/>
<feColorMatrix type="matrix" values="0 0 0 0 0 0 0 0 0 0 0 0 0 0 0 0 0 0 0.25 0"/>
<feBlend mode="normal" in2="BackgroundImageFix" result="effect1_dropShadow"/>
<feBlend mode="normal" in="SourceGraphic" in2="effect1_dropShadow" result="shape"/>
</filter>
<filter id="filter8_d" x="0" y="0.000488281" width="509.089" height="35.2196" filterUnits="userSpaceOnUse" color-interpolation-filters="sRGB">
<feFlood flood-opacity="0" result="BackgroundImageFix"/>
<feColorMatrix in="SourceAlpha" type="matrix" values="0 0 0 0 0 0 0 0 0 0 0 0 0 0 0 0 0 0 127 0"/>
<feOffset dy="4"/>
<feGaussianBlur stdDeviation="2"/>
<feColorMatrix type="matrix" values="0 0 0 0 0 0 0 0 0 0 0 0 0 0 0 0 0 0 0.25 0"/>
<feBlend mode="normal" in2="BackgroundImageFix" result="effect1_dropShadow"/>
<feBlend mode="normal" in="SourceGraphic" in2="effect1_dropShadow" result="shape"/>
</filter>
<filter id="filter9_d" x="24.7451" y="0" width="82.2354" height="35.2196" filterUnits="userSpaceOnUse" color-interpolation-filters="sRGB">
<feFlood flood-opacity="0" result="BackgroundImageFix"/>
<feColorMatrix in="SourceAlpha" type="matrix" values="0 0 0 0 0 0 0 0 0 0 0 0 0 0 0 0 0 0 127 0"/>
<feOffset dy="4"/>
<feGaussianBlur stdDeviation="2"/>
<feColorMatrix type="matrix" values="0 0 0 0 0 0 0 0 0 0 0 0 0 0 0 0 0 0 0.25 0"/>
<feBlend mode="normal" in2="BackgroundImageFix" result="effect1_dropShadow"/>
<feBlend mode="normal" in="SourceGraphic" in2="effect1_dropShadow" result="shape"/>
</filter>
<filter id="filter10_d" x="459.765" y="0" width="82.2354" height="35.2196" filterUnits="userSpaceOnUse" color-interpolation-filters="sRGB">
<feFlood flood-opacity="0" result="BackgroundImageFix"/>
<feColorMatrix in="SourceAlpha" type="matrix" values="0 0 0 0 0 0 0 0 0 0 0 0 0 0 0 0 0 0 127 0"/>
<feOffset dy="4"/>
<feGaussianBlur stdDeviation="2"/>
<feColorMatrix type="matrix" values="0 0 0 0 0 0 0 0 0 0 0 0 0 0 0 0 0 0 0.25 0"/>
<feBlend mode="normal" in2="BackgroundImageFix" result="effect1_dropShadow"/>
<feBlend mode="normal" in="SourceGraphic" in2="effect1_dropShadow" result="shape"/>
</filter>
</defs>
</svg>
