<svg width="751" height="120" viewBox="0 0 751 120" fill="none" xmlns="http://www.w3.org/2000/svg">
<rect x="21.0867" y="62.4823" width="305.405" height="17.6833" fill="#C9D1D9" stroke="black"/>
<path d="M255.962 62.4822H412.969V80.1654H255.962V62.4822Z" fill="#989B05" stroke="black"/>
<path d="M3.00391 79.124V65.0029H8.64844C11.2656 65.0029 12.5742 66.484 12.5742 69.4463C12.5742 71.0609 12.2324 72.2165 11.5488 72.9131C10.8717 73.6097 9.89518 73.958 8.61914 73.958H4.97656V79.124H3.00391ZM4.97656 72.4639H8.6582C9.81055 72.4639 10.4453 71.7933 10.5625 70.4521C10.5885 70.2048 10.6016 69.9118 10.6016 69.5732C10.6016 68.4339 10.4453 67.6364 10.1328 67.1807C9.82682 66.7249 9.35156 66.4971 8.70703 66.4971H4.97656V72.4639ZM16.3242 71.1357V68.7725H18.8242V71.1357H16.3242ZM16.3242 78.1572V75.7939H18.8242V78.1572H16.3242Z" fill="#C9D1D9"/>
<g filter="url(#filter0_d)">
<path d="M256.538 103.741C256.148 104.131 256.148 104.765 256.538 105.155L262.902 111.519C263.293 111.91 263.926 111.91 264.317 111.519C264.707 111.129 264.707 110.495 264.317 110.105L258.66 104.448L264.317 98.7911C264.707 98.4006 264.707 97.7675 264.317 97.3769C263.926 96.9864 263.293 96.9864 262.902 97.3769L256.538 103.741ZM317.227 103.448L257.246 103.448L257.246 105.448L317.227 105.448L317.227 103.448Z" fill="#C9D1D9"/>
</g>
<g filter="url(#filter1_d)">
<path d="M414.904 105.155C415.295 104.765 415.295 104.131 414.904 103.741L408.54 97.3769C408.15 96.9864 407.517 96.9864 407.126 97.3769C406.735 97.7675 406.735 98.4006 407.126 98.7911L412.783 104.448L407.126 110.105C406.735 110.495 406.735 111.129 407.126 111.519C407.517 111.91 408.15 111.91 408.54 111.519L414.904 105.155ZM354.216 105.448L414.197 105.448L414.197 103.448L354.216 103.448L354.216 105.448Z" fill="#C9D1D9"/>
</g>
<path d="M339.096 110.702C337.651 110.702 336.606 110.474 335.961 110.018C335.323 109.562 335.004 108.778 335.004 107.665V101.659H333.276V100.272H335.072L335.297 97.0688H336.84V100.272H339.438V101.659H336.84V107.547C336.84 108.198 337.026 108.631 337.397 108.846C337.774 109.055 338.429 109.159 339.36 109.159H339.565L339.369 110.702H339.096Z" fill="#C9D1D9"/>
<g filter="url(#filter2_d)">
<path d="M255.663 44.7922C255.273 45.1827 255.273 45.8159 255.663 46.2064L262.027 52.5703C262.418 52.9609 263.051 52.9609 263.442 52.5703C263.832 52.1798 263.832 51.5466 263.442 51.1561L257.785 45.4993L263.442 39.8424C263.832 39.4519 263.832 38.8187 263.442 38.4282C263.051 38.0377 262.418 38.0377 262.027 38.4282L255.663 44.7922ZM316.551 44.4993L256.371 44.4993L256.371 46.4993L316.551 46.4993L316.551 44.4993Z" fill="#C9D1D9"/>
</g>
<g filter="url(#filter3_d)">
<path d="M414.551 46.2064C414.941 45.8159 414.941 45.1827 414.551 44.7922L408.187 38.4282C407.796 38.0377 407.163 38.0377 406.773 38.4282C406.382 38.8187 406.382 39.4519 406.773 39.8424L412.43 45.4993L406.773 51.1561C406.382 51.5466 406.382 52.1798 406.773 52.5703C407.163 52.9609 407.796 52.9609 408.187 52.5703L414.551 46.2064ZM353.663 46.4993L413.844 46.4993L413.844 44.4993L353.663 44.4993L353.663 46.4993Z" fill="#C9D1D9"/>
</g>
<path d="M341.999 53.4973C340.554 53.4973 339.509 53.2694 338.864 52.8137C338.226 52.358 337.907 51.5735 337.907 50.4602V44.4543H336.179V43.0676H337.976L338.2 39.8645H339.743V43.0676H342.341V44.4543H339.743V50.343C339.743 50.9941 339.929 51.427 340.3 51.6418C340.678 51.8502 341.332 51.9543 342.263 51.9543H342.468L342.273 53.4973H341.999Z" fill="#C9D1D9"/>
<path d="M265.612 97.5299V89.2487H267.081V97.5299H265.612ZM265.612 87.7565V86.233H267.081V87.7565H265.612Z" fill="#C9D1D9"/>
<path d="M32.982 96.4362C33.5705 96.4362 34.0028 96.3398 34.2789 96.1471C34.4299 96.0429 34.5601 95.9362 34.6695 95.8268C35.0393 95.457 35.2242 94.5924 35.2242 93.233V91.0299C35.2242 90.1132 35.1877 89.4622 35.1148 89.0768C34.9013 87.9101 34.2346 87.3268 33.1148 87.3268C32.1461 87.3268 31.4924 87.6237 31.1539 88.2174C30.9455 88.582 30.8127 88.9961 30.7554 89.4596C30.6981 89.9179 30.6695 90.483 30.6695 91.1549V92.694C30.6695 93.8086 30.7476 94.5976 30.9039 95.0612C31.2164 95.9778 31.9091 96.4362 32.982 96.4362ZM34.9507 97.3112C34.7112 97.4257 34.4273 97.5195 34.0992 97.5924C33.7711 97.6653 33.3752 97.7018 32.9117 97.7018C32.4533 97.7018 32.0185 97.6445 31.607 97.5299C30.8101 97.3059 30.2346 96.9309 29.8804 96.4049C29.5315 95.8737 29.3127 95.2955 29.2242 94.6705C29.1356 94.0455 29.0914 93.3424 29.0914 92.5612V91.358C29.0914 90.2643 29.133 89.5273 29.2164 89.1471C29.3935 88.3554 29.594 87.7981 29.8179 87.4752C30.4742 86.5325 31.4716 86.0612 32.8101 86.0612C34.4039 86.0612 35.4768 86.5221 36.0289 87.444C36.3674 88.0013 36.5783 88.6002 36.6617 89.2408C36.7502 89.8815 36.7945 90.6211 36.7945 91.4596V92.4518C36.7945 93.5039 36.7528 94.2226 36.6695 94.608C36.5914 94.9934 36.5054 95.3216 36.4117 95.5924C36.3231 95.8632 36.2138 96.095 36.0836 96.2877C35.9586 96.4752 35.7997 96.6653 35.607 96.858C35.4143 97.0455 35.1955 97.1966 34.9507 97.3112Z" fill="#C9D1D9"/>
<rect x="21.0867" y="7.50049" width="728.715" height="17.6833" fill="#C9D1D9" stroke="black"/>
<path d="M255.962 7.49976H412.969V25.183H255.962V7.49976Z" fill="#989B05" stroke="black"/>
<path d="M237.812 7.49988H255.496V25.1831H237.812V7.49988Z" fill="#E30310" stroke="black"/>
<path d="M4.89258 24V11.4902H0.820312V9.87891H10.9375V11.4902H6.85547V24H4.89258ZM14.2578 16.0117V13.6484H16.7578V16.0117H14.2578ZM14.2578 23.0332V20.6699H16.7578V23.0332H14.2578Z" fill="#C9D1D9"/>
<path d="M237.812 62.4821H255.496V80.1653H237.812V62.4821Z" fill="#E30310" stroke="black"/>
<path d="M21.0867 62.4821H38.77V80.1653H21.0867V62.4821Z" fill="#C9D1D9" stroke="black"/>
<path d="M255.428 62.4821H273.111V80.1653H255.428V62.4821Z" fill="#989B05" stroke="black"/>
<defs>
<filter id="filter0_d" x="252.246" y="97.084" width="68.9814" height="22.7279" filterUnits="userSpaceOnUse" color-interpolation-filters="sRGB">
<feFlood flood-opacity="0" result="BackgroundImageFix"/>
<feColorMatrix in="SourceAlpha" type="matrix" values="0 0 0 0 0 0 0 0 0 0 0 0 0 0 0 0 0 0 127 0"/>
<feOffset dy="4"/>
<feGaussianBlur stdDeviation="2"/>
<feColorMatrix type="matrix" values="0 0 0 0 0 0 0 0 0 0 0 0 0 0 0 0 0 0 0.25 0"/>
<feBlend mode="normal" in2="BackgroundImageFix" result="effect1_dropShadow"/>
<feBlend mode="normal" in="SourceGraphic" in2="effect1_dropShadow" result="shape"/>
</filter>
<filter id="filter1_d" x="350.216" y="97.084" width="68.9814" height="22.7279" filterUnits="userSpaceOnUse" color-interpolation-filters="sRGB">
<feFlood flood-opacity="0" result="BackgroundImageFix"/>
<feColorMatrix in="SourceAlpha" type="matrix" values="0 0 0 0 0 0 0 0 0 0 0 0 0 0 0 0 0 0 127 0"/>
<feOffset dy="4"/>
<feGaussianBlur stdDeviation="2"/>
<feColorMatrix type="matrix" values="0 0 0 0 0 0 0 0 0 0 0 0 0 0 0 0 0 0 0.25 0"/>
<feBlend mode="normal" in2="BackgroundImageFix" result="effect1_dropShadow"/>
<feBlend mode="normal" in="SourceGraphic" in2="effect1_dropShadow" result="shape"/>
</filter>
<filter id="filter2_d" x="251.371" y="38.1353" width="69.1808" height="22.7279" filterUnits="userSpaceOnUse" color-interpolation-filters="sRGB">
<feFlood flood-opacity="0" result="BackgroundImageFix"/>
<feColorMatrix in="SourceAlpha" type="matrix" values="0 0 0 0 0 0 0 0 0 0 0 0 0 0 0 0 0 0 127 0"/>
<feOffset dy="4"/>
<feGaussianBlur stdDeviation="2"/>
<feColorMatrix type="matrix" values="0 0 0 0 0 0 0 0 0 0 0 0 0 0 0 0 0 0 0.25 0"/>
<feBlend mode="normal" in2="BackgroundImageFix" result="effect1_dropShadow"/>
<feBlend mode="normal" in="SourceGraphic" in2="effect1_dropShadow" result="shape"/>
</filter>
<filter id="filter3_d" x="349.663" y="38.1353" width="69.1808" height="22.7279" filterUnits="userSpaceOnUse" color-interpolation-filters="sRGB">
<feFlood flood-opacity="0" result="BackgroundImageFix"/>
<feColorMatrix in="SourceAlpha" type="matrix" values="0 0 0 0 0 0 0 0 0 0 0 0 0 0 0 0 0 0 127 0"/>
<feOffset dy="4"/>
<feGaussianBlur stdDeviation="2"/>
<feColorMatrix type="matrix" values="0 0 0 0 0 0 0 0 0 0 0 0 0 0 0 0 0 0 0.25 0"/>
<feBlend mode="normal" in2="BackgroundImageFix" result="effect1_dropShadow"/>
<feBlend mode="normal" in="SourceGraphic" in2="effect1_dropShadow" result="shape"/>
</filter>
</defs>
</svg>
