<svg width="731" height="152" viewBox="0 0 731 152" fill="none" xmlns="http://www.w3.org/2000/svg">
<rect x="29.7923" y="79.9992" width="337.784" height="24.6551" fill="#C9D1D9" stroke="black"/>
<path d="M368.576 79.9993H487.232V104.654H368.576V79.9993Z" fill="#989B05" stroke="black"/>
<path d="M343.306 79.9992H368.185V104.654H343.306V79.9992Z" fill="#E30310" stroke="black"/>
<path d="M368.446 79.9992H393.325V104.654H368.446V79.9992Z" fill="#989B05" stroke="black"/>
<path d="M29.7923 79.9992H54.672V104.654H29.7923V79.9992Z" fill="#C9D1D9" stroke="black"/>
<path d="M2.12891 98.0001V83.879H7.77344C10.3906 83.879 11.6992 85.3601 11.6992 88.3223C11.6992 89.9369 11.3574 91.0925 10.6738 91.7891C9.99674 92.4857 9.02018 92.834 7.74414 92.834H4.10156V98.0001H2.12891ZM4.10156 91.3399H7.7832C8.93555 91.3399 9.57031 90.6693 9.6875 89.3282C9.71354 89.0808 9.72656 88.7878 9.72656 88.4493C9.72656 87.31 9.57031 86.5124 9.25781 86.0567C8.95182 85.601 8.47656 85.3731 7.83203 85.3731H4.10156V91.3399ZM15.4492 90.0118V87.6485H17.9492V90.0118H15.4492ZM15.4492 97.0333V94.67H17.9492V97.0333H15.4492Z" fill="#C9D1D9"/>
<g filter="url(#filter0_d)">
<path d="M368.293 135.293C367.902 135.684 367.902 136.317 368.293 136.707L374.657 143.071C375.047 143.462 375.681 143.462 376.071 143.071C376.462 142.681 376.462 142.047 376.071 141.657L370.414 136L376.071 130.343C376.462 129.953 376.462 129.32 376.071 128.929C375.681 128.538 375.047 128.538 374.657 128.929L368.293 135.293ZM413.365 135H369V137H413.365V135Z" fill="#C9D1D9"/>
</g>
<g filter="url(#filter1_d)">
<path d="M485.796 136.707C486.186 136.317 486.186 135.684 485.796 135.293L479.432 128.929C479.041 128.538 478.408 128.538 478.018 128.929C477.627 129.32 477.627 129.953 478.018 130.343L483.674 136L478.018 141.657C477.627 142.047 477.627 142.681 478.018 143.071C478.408 143.462 479.041 143.462 479.432 143.071L485.796 136.707ZM440.724 137H485.089V135H440.724V137Z" fill="#C9D1D9"/>
</g>
<path d="M431.602 142.078C430.156 142.078 429.111 141.85 428.467 141.395C427.829 140.939 427.51 140.154 427.51 139.041V133.035H425.781V131.648H427.578L427.803 128.445H429.346V131.648H431.943V133.035H429.346V138.924C429.346 139.575 429.531 140.008 429.902 140.223C430.28 140.431 430.934 140.535 431.865 140.535H432.07L431.875 142.078H431.602Z" fill="#C9D1D9"/>
<path d="M380.026 125.446L379.878 124.227H380.105C380.636 124.227 380.99 124.157 381.167 124.016C381.344 123.881 381.459 123.712 381.511 123.509C381.563 123.311 381.589 123.048 381.589 122.72V114.407H383.058V122.634C383.058 123.993 382.745 124.834 382.12 125.157C381.75 125.35 381.224 125.446 380.542 125.446H380.026ZM381.589 112.915V111.391H383.058V112.915H381.589Z" fill="#C9D1D9"/>
<path d="M45.3055 121.595C45.894 121.595 46.3263 121.498 46.6023 121.305C46.7534 121.201 46.8836 121.095 46.993 120.985C47.3627 120.615 47.5476 119.751 47.5476 118.391V116.188C47.5476 115.272 47.5112 114.621 47.4383 114.235C47.2247 113.069 46.5581 112.485 45.4383 112.485C44.4695 112.485 43.8159 112.782 43.4773 113.376C43.269 113.74 43.1362 114.154 43.0789 114.618C43.0216 115.076 42.993 115.641 42.993 116.313V117.852C42.993 118.967 43.0711 119.756 43.2273 120.22C43.5398 121.136 44.2325 121.595 45.3055 121.595ZM47.2742 122.47C47.0346 122.584 46.7508 122.678 46.4226 122.751C46.0945 122.824 45.6987 122.86 45.2351 122.86C44.7768 122.86 44.3419 122.803 43.9305 122.688C43.1336 122.464 42.5581 122.089 42.2039 121.563C41.8549 121.032 41.6362 120.454 41.5476 119.829C41.4591 119.204 41.4148 118.501 41.4148 117.72V116.516C41.4148 115.423 41.4565 114.686 41.5398 114.305C41.7169 113.514 41.9174 112.957 42.1414 112.634C42.7976 111.691 43.795 111.22 45.1336 111.22C46.7273 111.22 47.8002 111.68 48.3523 112.602C48.6909 113.16 48.9018 113.759 48.9851 114.399C49.0737 115.04 49.118 115.779 49.118 116.618V117.61C49.118 118.662 49.0763 119.381 48.993 119.766C48.9148 120.152 48.8289 120.48 48.7351 120.751C48.6466 121.022 48.5372 121.253 48.407 121.446C48.282 121.634 48.1232 121.824 47.9305 122.016C47.7377 122.204 47.519 122.355 47.2742 122.47Z" fill="#C9D1D9"/>
<rect x="29.7923" y="4.5" width="700.708" height="24.6551" fill="#C9D1D9" stroke="black"/>
<path d="M364.97 4.5H484.771V29.1551H364.97V4.5Z" fill="#989B05" stroke="black"/>
<path d="M343.306 4.5H368.185V29.1551H343.306V4.5Z" fill="#E30310" stroke="black"/>
<path d="M4.89258 24V11.4902H0.820312V9.87891H10.9375V11.4902H6.85547V24H4.89258ZM14.2578 16.0117V13.6484H16.7578V16.0117H14.2578ZM14.2578 23.0332V20.6699H16.7578V23.0332H14.2578Z" fill="#C9D1D9"/>
<g filter="url(#filter2_d)">
<path d="M368.293 55.2929C367.902 55.6834 367.902 56.3166 368.293 56.7071L374.657 63.0711C375.047 63.4616 375.681 63.4616 376.071 63.0711C376.462 62.6805 376.462 62.0474 376.071 61.6569L370.414 56L376.071 50.3431C376.462 49.9526 376.462 49.3195 376.071 48.9289C375.681 48.5384 375.047 48.5384 374.657 48.9289L368.293 55.2929ZM413.365 55L369 55V57L413.365 57V55Z" fill="#C9D1D9"/>
</g>
<g filter="url(#filter3_d)">
<path d="M485.796 56.7071C486.186 56.3166 486.186 55.6834 485.796 55.2929L479.432 48.9289C479.041 48.5384 478.408 48.5384 478.018 48.9289C477.627 49.3195 477.627 49.9526 478.018 50.3431L483.674 56L478.018 61.6569C477.627 62.0474 477.627 62.6805 478.018 63.0711C478.408 63.4616 479.041 63.4616 479.432 63.0711L485.796 56.7071ZM440.724 57H485.089V55H440.724V57Z" fill="#C9D1D9"/>
</g>
<path d="M431.602 62.0781C430.156 62.0781 429.111 61.8503 428.467 61.3945C427.829 60.9388 427.51 60.1543 427.51 59.041V53.0352H425.781V51.6484H427.578L427.803 48.4453H429.346V51.6484H431.943V53.0352H429.346V58.9238C429.346 59.5749 429.531 60.0078 429.902 60.2227C430.28 60.431 430.934 60.5352 431.865 60.5352H432.07L431.875 62.0781H431.602Z" fill="#C9D1D9"/>
<defs>
<filter id="filter0_d" x="364" y="128.636" width="53.3651" height="22.7279" filterUnits="userSpaceOnUse" color-interpolation-filters="sRGB">
<feFlood flood-opacity="0" result="BackgroundImageFix"/>
<feColorMatrix in="SourceAlpha" type="matrix" values="0 0 0 0 0 0 0 0 0 0 0 0 0 0 0 0 0 0 127 0"/>
<feOffset dy="4"/>
<feGaussianBlur stdDeviation="2"/>
<feColorMatrix type="matrix" values="0 0 0 0 0 0 0 0 0 0 0 0 0 0 0 0 0 0 0.25 0"/>
<feBlend mode="normal" in2="BackgroundImageFix" result="effect1_dropShadow"/>
<feBlend mode="normal" in="SourceGraphic" in2="effect1_dropShadow" result="shape"/>
</filter>
<filter id="filter1_d" x="436.724" y="128.636" width="53.3651" height="22.7279" filterUnits="userSpaceOnUse" color-interpolation-filters="sRGB">
<feFlood flood-opacity="0" result="BackgroundImageFix"/>
<feColorMatrix in="SourceAlpha" type="matrix" values="0 0 0 0 0 0 0 0 0 0 0 0 0 0 0 0 0 0 127 0"/>
<feOffset dy="4"/>
<feGaussianBlur stdDeviation="2"/>
<feColorMatrix type="matrix" values="0 0 0 0 0 0 0 0 0 0 0 0 0 0 0 0 0 0 0.25 0"/>
<feBlend mode="normal" in2="BackgroundImageFix" result="effect1_dropShadow"/>
<feBlend mode="normal" in="SourceGraphic" in2="effect1_dropShadow" result="shape"/>
</filter>
<filter id="filter2_d" x="364" y="48.636" width="53.3651" height="22.7279" filterUnits="userSpaceOnUse" color-interpolation-filters="sRGB">
<feFlood flood-opacity="0" result="BackgroundImageFix"/>
<feColorMatrix in="SourceAlpha" type="matrix" values="0 0 0 0 0 0 0 0 0 0 0 0 0 0 0 0 0 0 127 0"/>
<feOffset dy="4"/>
<feGaussianBlur stdDeviation="2"/>
<feColorMatrix type="matrix" values="0 0 0 0 0 0 0 0 0 0 0 0 0 0 0 0 0 0 0.25 0"/>
<feBlend mode="normal" in2="BackgroundImageFix" result="effect1_dropShadow"/>
<feBlend mode="normal" in="SourceGraphic" in2="effect1_dropShadow" result="shape"/>
</filter>
<filter id="filter3_d" x="436.724" y="48.636" width="53.3651" height="22.7279" filterUnits="userSpaceOnUse" color-interpolation-filters="sRGB">
<feFlood flood-opacity="0" result="BackgroundImageFix"/>
<feColorMatrix in="SourceAlpha" type="matrix" values="0 0 0 0 0 0 0 0 0 0 0 0 0 0 0 0 0 0 127 0"/>
<feOffset dy="4"/>
<feGaussianBlur stdDeviation="2"/>
<feColorMatrix type="matrix" values="0 0 0 0 0 0 0 0 0 0 0 0 0 0 0 0 0 0 0.25 0"/>
<feBlend mode="normal" in2="BackgroundImageFix" result="effect1_dropShadow"/>
<feBlend mode="normal" in="SourceGraphic" in2="effect1_dropShadow" result="shape"/>
</filter>
</defs>
</svg>
