<svg width="409" height="372" viewBox="0 0 409 372" fill="none" xmlns="http://www.w3.org/2000/svg">
<path d="M138.679 163.453C139.145 163.75 139.763 163.613 140.06 163.147L144.892 155.554C145.189 155.088 145.051 154.47 144.586 154.174C144.12 153.877 143.502 154.014 143.205 154.48L138.91 161.229L132.161 156.934C131.695 156.637 131.077 156.775 130.78 157.241C130.483 157.706 130.621 158.325 131.087 158.621L138.679 163.453ZM119.326 77.688L138.24 162.827L140.192 162.393L121.278 77.2543L119.326 77.688Z" fill="#C4A8A8"/>
<path d="M263.067 114.329C263.548 114.058 263.718 113.448 263.447 112.967L259.023 105.129C258.752 104.648 258.142 104.478 257.661 104.749C257.18 105.021 257.01 105.631 257.281 106.112L261.213 113.079L254.246 117.011C253.765 117.282 253.596 117.892 253.867 118.373C254.138 118.854 254.748 119.024 255.229 118.752L263.067 114.329ZM130.077 77.5976L262.308 114.421L262.844 112.495L130.613 75.6709L130.077 77.5976Z" fill="#FFD700"/>
<path d="M129.227 55.4874C129.157 56.0352 129.544 56.5363 130.091 56.6067L139.018 57.754C139.566 57.8244 140.067 57.4374 140.137 56.8896C140.208 56.3418 139.821 55.8407 139.273 55.7703L131.338 54.7505L132.358 46.8158C132.428 46.268 132.041 45.7669 131.494 45.6965C130.946 45.6261 130.445 46.013 130.374 46.5608L129.227 55.4874ZM279.497 119.341C272.995 93.4907 265.758 72.4016 257.21 56.343C248.664 40.2872 238.76 29.174 226.884 23.4095C214.982 17.6321 201.252 17.3005 185.222 22.4994C169.214 27.6912 150.858 38.4132 129.608 54.8234L130.83 56.4064C151.998 40.06 170.143 29.4922 185.839 24.4018C201.512 19.3185 214.687 19.7122 226.011 25.2087C237.361 30.7179 247.005 41.4271 255.445 57.2828C263.884 73.1357 271.073 94.0475 277.557 119.829L279.497 119.341Z" fill="#C4A8A8"/>
<path d="M286.171 269.022C286.578 269.396 287.21 269.368 287.584 268.961L293.663 262.325C294.036 261.917 294.009 261.285 293.601 260.912C293.194 260.539 292.562 260.566 292.189 260.974L286.784 266.872L280.886 261.468C280.478 261.095 279.846 261.123 279.473 261.53C279.1 261.937 279.127 262.57 279.535 262.943L286.171 269.022ZM279.989 134.424L285.847 268.329L287.845 268.241L281.987 134.337L279.989 134.424Z" fill="#C3A8A8"/>
<path d="M273.528 294.646C273.758 294.144 273.537 293.55 273.035 293.321L264.849 289.579C264.347 289.349 263.754 289.57 263.524 290.072C263.295 290.575 263.516 291.168 264.018 291.398L271.294 294.724L267.968 302C267.738 302.502 267.959 303.095 268.461 303.325C268.964 303.554 269.557 303.333 269.786 302.831L273.528 294.646ZM144.921 342.869L272.968 295.167L272.27 293.293L144.223 340.995L144.921 342.869Z" fill="#FF7F50"/>
<path d="M115.553 332.907C116.102 332.967 116.596 332.571 116.656 332.022L117.641 323.076C117.701 322.527 117.305 322.033 116.756 321.973C116.207 321.912 115.713 322.308 115.653 322.857L114.778 330.809L106.826 329.934C106.277 329.874 105.783 330.27 105.722 330.819C105.662 331.368 106.058 331.862 106.607 331.922L115.553 332.907ZM30.3467 227.094L114.882 332.538L116.443 331.287L31.9072 225.843L30.3467 227.094Z" fill="#FF7F50"/>
<path d="M108.728 85.6393C108.617 85.0983 108.089 84.7497 107.548 84.8608L98.7313 86.6702C98.1903 86.7812 97.8417 87.3098 97.9528 87.8508C98.0638 88.3918 98.5924 88.7404 99.1334 88.6294L106.97 87.021L108.578 94.8576C108.689 95.3986 109.218 95.7472 109.759 95.6361C110.3 95.5251 110.649 94.9965 110.538 94.4555L108.728 85.6393ZM32.4251 201.884L108.583 86.3908L106.914 85.2898L30.7554 200.783L32.4251 201.884Z" fill="#FF7F50"/>
<path d="M267.692 130.56C267.893 130.045 267.639 129.465 267.124 129.264L258.741 125.989C258.227 125.788 257.647 126.042 257.446 126.557C257.245 127.071 257.499 127.651 258.014 127.852L265.465 130.763L262.554 138.215C262.353 138.729 262.607 139.309 263.121 139.51C263.636 139.711 264.216 139.457 264.417 138.943L267.692 130.56ZM145.786 184.289L267.162 131.112L266.359 129.28L144.984 182.457L145.786 184.289Z" fill="#C3A8A8"/>
<path d="M376.543 224.941C376.639 224.397 376.276 223.878 375.733 223.781L366.871 222.212C366.327 222.115 365.808 222.478 365.711 223.022C365.615 223.566 365.978 224.085 366.522 224.181L374.399 225.576L373.004 233.454C372.907 233.998 373.27 234.516 373.814 234.613C374.358 234.709 374.877 234.346 374.973 233.803L376.543 224.941ZM289.93 285.843L376.131 225.586L374.985 223.947L288.784 284.204L289.93 285.843Z" fill="#FF7F50"/>
<path d="M39.254 208.675C38.8588 209.061 38.8511 209.694 39.2368 210.089L45.5227 216.53C45.9084 216.925 46.5415 216.933 46.9368 216.547C47.332 216.162 47.3398 215.528 46.954 215.133L41.3666 209.408L47.092 203.82C47.4873 203.435 47.495 202.801 47.1093 202.406C46.7235 202.011 46.0904 202.003 45.6952 202.389L39.254 208.675ZM390.406 212.665L39.9647 208.391L39.9403 210.39L390.382 214.665L390.406 212.665Z" fill="#FF7F50"/>
<path d="M37.7208 224.714C37.2491 225.001 37.0996 225.616 37.3868 226.088L42.0679 233.775C42.3551 234.246 42.9704 234.396 43.4421 234.109C43.9138 233.822 44.0633 233.206 43.776 232.735L39.6151 225.902L46.4479 221.741C46.9196 221.454 47.0691 220.838 46.7819 220.367C46.4946 219.895 45.8794 219.745 45.4077 220.033L37.7208 224.714ZM289.914 285.704L38.4771 224.596L38.0047 226.54L289.442 287.647L289.914 285.704Z" fill="#FF7F50"/>
<circle cx="143.849" cy="179.675" r="15.7381" fill="#C3A8A8" stroke="#C4A8A8" stroke-width="2"/>
<circle cx="279.314" cy="119.316" r="15.7381" fill="#C3A8A8" stroke="#C4A8A8" stroke-width="2"/>
<circle cx="391.459" cy="213.05" r="15.7381" fill="#C3A8A8" stroke="#C4A8A8" stroke-width="2"/>
<circle cx="287.683" cy="286.697" r="16.7381" fill="#31BA3E"/>
<circle cx="128.671" cy="345.281" r="16.7381" fill="#C4A8A8"/>
<circle cx="23.2211" cy="214.723" r="15.7381" fill="#C3A8A8" stroke="#C4A8A8" stroke-width="2"/>
<circle cx="116.955" cy="70.7757" r="15.7381" fill="#C4A8A8" stroke="#C4A8A8" stroke-width="2"/>
<path d="M296.001 90.1082C295.255 91.3453 293.821 92.022 292.085 92.1004C290.351 92.1789 288.328 91.6578 286.43 90.5133C284.533 89.3687 283.128 87.822 282.389 86.2511C281.649 84.6794 281.579 83.0953 282.325 81.8582C283.071 80.6212 284.505 79.9445 286.241 79.866C287.975 79.7876 289.998 80.3086 291.896 81.4532C293.793 82.5978 295.198 84.1445 295.937 85.7154C296.677 87.287 296.747 88.8712 296.001 90.1082Z" fill="#7B6C6C" stroke="#C4A8A8" stroke-width="0.2"/>
<path d="M301.54 93.4496C300.503 95.1679 297.842 95.5089 295.574 94.1406C293.306 92.7723 292.366 90.2593 293.403 88.5409C294.439 86.8226 297.1 86.4816 299.369 87.8499C301.637 89.2182 302.576 91.7312 301.54 93.4496Z" fill="#7B6C6C" stroke="#C4C4C4" stroke-width="0.2"/>
<path d="M308.837 95.9633C307.8 97.6816 305.139 98.0226 302.871 96.6543C300.603 95.2859 299.663 92.7729 300.7 91.0546C301.737 89.3363 304.398 88.9953 306.666 90.3636C308.934 91.7319 309.874 94.2449 308.837 95.9633Z" fill="#7B6C6C" stroke="#C4C4C4" stroke-width="0.2"/>
<circle cx="312.253" cy="95.1905" r="4.48192" transform="rotate(31.1007 312.253 95.1905)" fill="#7B6C6C" stroke="#C4C4C4" stroke-width="0.2"/>
<path d="M313.259 99.5751C312.244 98.6482 311.784 98.0555 312.34 97.1323" stroke="black" stroke-width="0.3"/>
<path d="M285.856 86.9C284.076 88.9603 282.436 91.0581 281.29 93.5272C281.021 94.1049 280.688 94.6679 280.489 95.2741C280.369 95.641 280.006 96.7274 280.205 96.3969" stroke="#7B6C6C" stroke-linecap="round" stroke-linejoin="round"/>
<ellipse cx="281.187" cy="96.5955" rx="1.34762" ry="0.808574" transform="rotate(31.1007 281.187 96.5955)" fill="#7B6C6C"/>
<path d="M288.693 89.2407C288.339 90.284 288.038 91.3436 287.665 92.3802C287.435 93.0198 287.046 93.5903 286.761 94.2045C286.457 94.8588 285.91 95.7439 285.856 96.4217" stroke="#7B6C6C" stroke-linecap="round" stroke-linejoin="round"/>
<ellipse cx="286.455" cy="97.2552" rx="1.34762" ry="0.808574" transform="rotate(31.1007 286.455 97.2552)" fill="#7B6C6C"/>
<path d="M295.421 92.8276C295.265 93.5162 295.175 94.2797 294.804 94.8947C294.625 95.1917 294.446 95.4887 294.267 95.7857C293.831 96.5071 293.349 97.1648 292.867 97.8528C292.666 98.139 292.519 98.4603 292.309 98.7406C292.014 99.1341 291.655 99.4828 291.391 99.9004C291.227 100.159 291.101 100.515 291.089 100.82C291.084 100.976 290.962 101.393 291.16 101.195" stroke="#7B6C6C" stroke-linecap="round" stroke-linejoin="round"/>
<ellipse cx="292.177" cy="101.337" rx="1.34762" ry="0.808574" transform="rotate(31.1007 292.177 101.337)" fill="#7B6C6C"/>
<path d="M298.391 94.0685C297.987 95.0826 297.681 96.1997 296.961 97.0619C296.41 97.722 295.85 98.4498 295.245 99.0518C294.796 99.4987 294.514 100.104 294.188 100.644C293.997 100.961 293.857 101.441 294.062 101.766" stroke="#7B6C6C" stroke-linecap="round" stroke-linejoin="round"/>
<ellipse cx="295.042" cy="101.806" rx="1.34762" ry="0.808574" transform="rotate(31.1007 295.042 101.806)" fill="#7B6C6C"/>
<path d="M303.595 96.106C303.54 96.7763 303.512 97.4645 303.398 98.129C303.33 98.5225 303.204 98.9048 303.162 99.3027C303.089 99.9858 302.866 100.641 302.772 101.319C302.648 102.211 302.202 103 302.132 103.88" stroke="#7B6C6C" stroke-linecap="round" stroke-linejoin="round"/>
<ellipse cx="303.079" cy="104.136" rx="1.34762" ry="0.808574" transform="rotate(31.1007 303.079 104.136)" fill="#7B6C6C"/>
<path d="M305.963 96.7471C305.678 98.3721 306.088 100.051 305.649 101.673C305.491 102.258 305.48 102.867 305.324 103.444C305.249 103.719 305.304 104.037 305.182 104.303C305.157 104.357 305.184 104.437 305.181 104.499C305.175 104.667 305.304 104.361 305.332 104.315" stroke="#7B6C6C" stroke-linecap="round" stroke-linejoin="round"/>
<ellipse cx="306.117" cy="104.709" rx="1.34762" ry="0.808574" transform="rotate(31.1007 306.117 104.709)" fill="#7B6C6C"/>
<path d="M314.276 92.3193C315.853 89.9567 316.091 88.6621 314.701 86.4365" stroke="#7B6C6C"/>
<path d="M316.14 93.4434C317.809 90.9294 318.084 89.5671 316.717 87.269" stroke="#7B6C6C"/>
<ellipse cx="317.032" cy="87.2673" rx="0.808574" ry="0.492786" transform="rotate(31.1007 317.032 87.2673)" fill="#C4C4C4"/>
<ellipse cx="314.555" cy="86.1565" rx="0.808574" ry="0.492786" transform="rotate(31.1007 314.555 86.1565)" fill="#C4C4C4"/>
<circle cx="314.564" cy="95.0113" r="1.0281" transform="rotate(31.1007 314.564 95.0113)" fill="#C4C4C4" stroke="black" stroke-width="0.1"/>
<g filter="url(#filter0_f)">
<path d="M294.69 84.35C293.279 82.5731 291.962 81.8858 289.555 80.9245C289.328 80.834 289.069 80.9213 288.943 81.1302L288.599 81.7C288.445 81.9558 288.549 82.2888 288.818 82.4175C290.722 83.3263 291.808 84.1097 293.132 85.6585C293.318 85.8759 293.647 85.9022 293.86 85.7104L294.63 85.0152C294.821 84.8426 294.85 84.5518 294.69 84.35Z" fill="#C9D1D9"/>
</g>
<g filter="url(#filter1_f)">
<path d="M299.737 88.7326C298.686 87.8447 297.843 87.5237 296.351 87.4509C296.117 87.4395 295.91 87.599 295.855 87.8264L295.768 88.1814C295.695 88.4786 295.904 88.7692 296.207 88.8094C297.289 88.9526 298.011 89.2172 298.888 89.8502C299.141 90.033 299.501 89.9642 299.651 89.6907L299.844 89.3391C299.956 89.1363 299.914 88.8819 299.737 88.7326Z" fill="#C9D1D9"/>
</g>
<g filter="url(#filter2_f)">
<path d="M306.48 90.9346C305.276 90.2361 304.378 90.0623 302.873 90.2436C302.64 90.2716 302.463 90.4641 302.447 90.6981L302.421 91.0628C302.4 91.3677 302.655 91.6184 302.96 91.6067C304.074 91.5639 304.843 91.7033 305.835 92.1847C306.115 92.3202 306.456 92.1917 306.558 91.8986L306.69 91.5171C306.767 91.297 306.682 91.0515 306.48 90.9346Z" fill="#C9D1D9"/>
</g>
<circle cx="314.703" cy="95.095" r="0.53905" transform="rotate(31.1007 314.703 95.095)" fill="black"/>
<defs>
<filter id="filter0_f" x="284.527" y="76.8892" width="14.2666" height="12.9503" filterUnits="userSpaceOnUse" color-interpolation-filters="sRGB">
<feFlood flood-opacity="0" result="BackgroundImageFix"/>
<feBlend mode="normal" in="SourceGraphic" in2="BackgroundImageFix" result="shape"/>
<feGaussianBlur stdDeviation="2" result="effect1_foregroundBlur"/>
</filter>
<filter id="filter1_f" x="291.753" y="83.4502" width="12.1529" height="10.5019" filterUnits="userSpaceOnUse" color-interpolation-filters="sRGB">
<feFlood flood-opacity="0" result="BackgroundImageFix"/>
<feBlend mode="normal" in="SourceGraphic" in2="BackgroundImageFix" result="shape"/>
<feGaussianBlur stdDeviation="2" result="effect1_foregroundBlur"/>
</filter>
<filter id="filter2_f" x="298.42" y="86.1768" width="12.2983" height="10.0619" filterUnits="userSpaceOnUse" color-interpolation-filters="sRGB">
<feFlood flood-opacity="0" result="BackgroundImageFix"/>
<feBlend mode="normal" in="SourceGraphic" in2="BackgroundImageFix" result="shape"/>
<feGaussianBlur stdDeviation="2" result="effect1_foregroundBlur"/>
</filter>
</defs>
</svg>
