<svg width="710" height="267" viewBox="0 0 710 267" fill="none" xmlns="http://www.w3.org/2000/svg">
<rect x="1" y="1.30969" width="370.69" height="265.31" fill="#31BA3E"/>
<rect x="1" y="1.30969" width="370.69" height="265.31" fill="url(#paint0_linear)" fill-opacity="0.25"/>
<path d="M121.877 163.099L103.901 200.602C162.288 207.701 195.261 207.666 255.462 184.175L241.825 145.743C209.898 167.935 184.072 172.213 121.877 163.099Z" fill="#6EBCC7" stroke="#247F8F"/>
<path d="M345.655 152.561L372 169.608V221.058C357.346 203.295 347.665 195.001 326.439 184.795L345.655 152.561Z" fill="#6EBCC7" stroke="#247F8F"/>
<path d="M294.825 174.257C282.737 174.543 278.31 179.01 265.07 181.696L250.813 140.474C260.09 128.2 260.26 119.472 256.392 102.351H296.994C306.836 125.674 315.62 135.171 335.117 147.912L318.69 177.667C312.13 174.107 306.912 173.971 294.825 174.257Z" fill="#6EBCC7"/>
<path d="M294.825 174.257C282.737 174.543 278.31 179.01 265.07 181.696L250.813 140.474C260.09 128.2 260.26 119.472 256.392 102.351H296.994C306.836 125.674 315.62 135.171 335.117 147.912L318.69 177.667C312.13 174.107 306.912 173.971 294.825 174.257Z" fill="url(#paint1_linear)" fill-opacity="0.15"/>
<path d="M294.825 174.257C282.737 174.543 278.31 179.01 265.07 181.696L250.813 140.474C260.09 128.2 260.26 119.472 256.392 102.351H296.994C306.836 125.674 315.62 135.171 335.117 147.912L318.69 177.667C312.13 174.107 306.912 173.971 294.825 174.257Z" stroke="#247F8F"/>
<path d="M345.965 57.7193L314.971 20.8363L332.637 1H371.69V42.5322L345.965 57.7193Z" fill="#6EBCC7" stroke="#247F8F"/>
<path d="M205.251 36.3333V73.8363C227.413 74.8657 237.976 78.73 254.532 89.6433L297.614 88.4035C303.096 82.4964 306.525 79.2435 314.661 73.8363C324.319 67.6313 328.959 65.3671 336.047 63.2982L301.333 27.655L239.345 38.5029C223.8 40.4801 216.266 40.0611 205.251 36.3333Z" fill="#6EBCC7"/>
<path d="M205.251 36.3333V73.8363C227.413 74.8657 237.976 78.73 254.532 89.6433L297.614 88.4035C303.096 82.4964 306.525 79.2435 314.661 73.8363C324.319 67.6313 328.959 65.3671 336.047 63.2982L301.333 27.655L239.345 38.5029C223.8 40.4801 216.266 40.0611 205.251 36.3333Z" fill="url(#paint2_linear)" fill-opacity="0.25"/>
<path d="M205.251 36.3333V73.8363C227.413 74.8657 237.976 78.73 254.532 89.6433L297.614 88.4035C303.096 82.4964 306.525 79.2435 314.661 73.8363C324.319 67.6313 328.959 65.3671 336.047 63.2982L301.333 27.655L239.345 38.5029C223.8 40.4801 216.266 40.0611 205.251 36.3333Z" stroke="#247F8F"/>
<path d="M193.784 73.2164V36.9532C185.593 35.1758 179.453 34.5286 167.749 33.5439C155.046 34.2583 148.069 35.0487 135.825 36.9532C125.886 38.9811 120.25 40.6337 110.099 44.3918C100.588 49.3828 96.3892 52.0886 90.2632 56.7895L118.778 85.6141L124.357 83.1345C130.068 80.3365 137.805 79.2186 144.193 78.7953H164.649H179.216C184.958 78.0975 188.155 77.0794 193.784 73.2164Z" fill="#6EBCC7" stroke="#247F8F"/>
<path d="M1 99.8713V167.129L94.2924 194.713L111.029 158.76L92.1228 142.643L72.9064 131.795L111.029 94.2924L76.3158 63.6082C40.6725 75.076 27.6668 80.052 1 99.8713Z" fill="#6EBCC7"/>
<path d="M1 99.8713V167.129L94.2924 194.713L111.029 158.76L92.1228 142.643L72.9064 131.795L111.029 94.2924L76.3158 63.6082C40.6725 75.076 27.6668 80.052 1 99.8713Z" fill="url(#paint3_linear)" fill-opacity="0.25"/>
<path d="M1 99.8713V167.129L94.2924 194.713L111.029 158.76L92.1228 142.643L72.9064 131.795L111.029 94.2924L76.3158 63.6082C40.6725 75.076 27.6668 80.052 1 99.8713Z" stroke="#247F8F"/>
<path d="M103.861 83L103.822 81.6816C103.288 82.209 102.745 82.5898 102.191 82.8242C101.645 83.0586 101.068 83.1758 100.463 83.1758C99.903 83.1758 99.4245 83.1042 99.0273 82.9609C98.6302 82.8177 98.3014 82.6224 98.041 82.375C97.7871 82.1211 97.5983 81.8249 97.4746 81.4863C97.3574 81.1478 97.2988 80.7799 97.2988 80.3828C97.2988 79.3997 97.6634 78.6315 98.3926 78.0781C99.1283 77.5182 100.212 77.2383 101.645 77.2383H103.676V76.3789C103.676 75.7995 103.49 75.3372 103.119 74.9922C102.748 74.6406 102.182 74.4648 101.42 74.4648C100.867 74.4648 100.32 74.5267 99.7793 74.6504C99.2454 74.7741 98.6921 74.9499 98.1191 75.1777V73.6445C98.334 73.5664 98.5716 73.4915 98.832 73.4199C99.099 73.3418 99.3789 73.2734 99.6719 73.2148C99.9648 73.1562 100.271 73.1107 100.59 73.0781C100.909 73.0391 101.231 73.0195 101.557 73.0195C102.149 73.0195 102.683 73.0846 103.158 73.2148C103.633 73.3451 104.034 73.5436 104.359 73.8105C104.691 74.0775 104.945 74.4128 105.121 74.8164C105.297 75.2201 105.385 75.6953 105.385 76.2422V83H103.861ZM103.676 78.5371H101.518C101.094 78.5371 100.73 78.5794 100.424 78.6641C100.118 78.7487 99.8672 78.8691 99.6719 79.0254C99.4766 79.1816 99.3301 79.3704 99.2324 79.5918C99.1413 79.8066 99.0957 80.0508 99.0957 80.3242C99.0957 80.513 99.125 80.6953 99.1836 80.8711C99.2422 81.0404 99.3366 81.1934 99.4668 81.3301C99.597 81.4603 99.7663 81.5645 99.9746 81.6426C100.183 81.7207 100.437 81.7598 100.736 81.7598C101.127 81.7598 101.573 81.6426 102.074 81.4082C102.582 81.1673 103.116 80.7897 103.676 80.2754V78.5371Z" fill="#C9D1D9"/>
<path d="M203.941 59.9219C203.941 60.7357 203.827 61.4648 203.6 62.1094C203.378 62.7474 203.059 63.291 202.643 63.7402C202.232 64.1829 201.731 64.5247 201.139 64.7656C200.546 65 199.879 65.1172 199.137 65.1172C198.557 65.1172 197.965 65.0618 197.359 64.9512C196.754 64.8405 196.155 64.6647 195.562 64.4238V51.2012H197.262V55L197.184 56.8164C197.672 56.1589 198.193 55.6966 198.746 55.4297C199.306 55.1562 199.905 55.0195 200.543 55.0195C201.103 55.0195 201.594 55.1367 202.018 55.3711C202.441 55.6055 202.796 55.9375 203.082 56.3672C203.368 56.7904 203.583 57.3047 203.727 57.9102C203.87 58.5091 203.941 59.1797 203.941 59.9219ZM202.203 60C202.203 59.4857 202.164 59.0137 202.086 58.584C202.014 58.1543 201.897 57.7865 201.734 57.4805C201.572 57.1745 201.363 56.9368 201.109 56.7676C200.855 56.5918 200.553 56.5039 200.201 56.5039C199.986 56.5039 199.768 56.5397 199.547 56.6113C199.326 56.6764 199.094 56.7904 198.854 56.9531C198.619 57.1094 198.368 57.321 198.102 57.5879C197.841 57.8483 197.561 58.1738 197.262 58.5645V63.3203C197.594 63.4505 197.932 63.5547 198.277 63.6328C198.622 63.7044 198.951 63.7402 199.264 63.7402C199.654 63.7402 200.025 63.6784 200.377 63.5547C200.735 63.431 201.048 63.2259 201.314 62.9395C201.588 62.6465 201.803 62.2624 201.959 61.7871C202.122 61.3053 202.203 60.7096 202.203 60Z" fill="#C9D1D9"/>
<path d="M328.18 48.6387C327.737 48.8079 327.281 48.9316 326.812 49.0098C326.35 49.0944 325.872 49.1367 325.377 49.1367C323.827 49.1367 322.633 48.7168 321.793 47.877C320.96 47.0371 320.543 45.8099 320.543 44.1953C320.543 43.4206 320.663 42.7174 320.904 42.0859C321.145 41.4544 321.484 40.9141 321.92 40.4648C322.356 40.0156 322.877 39.6706 323.482 39.4297C324.088 39.1823 324.755 39.0586 325.484 39.0586C325.992 39.0586 326.467 39.0944 326.91 39.166C327.353 39.2376 327.776 39.3548 328.18 39.5176V41.1387C327.757 40.9173 327.324 40.7578 326.881 40.6602C326.445 40.556 325.992 40.5039 325.523 40.5039C325.087 40.5039 324.674 40.5885 324.283 40.7578C323.899 40.9206 323.561 41.1582 323.268 41.4707C322.975 41.7832 322.743 42.1641 322.574 42.6133C322.405 43.0625 322.32 43.5703 322.32 44.1367C322.32 45.3216 322.607 46.2103 323.18 46.8027C323.759 47.3887 324.56 47.6816 325.582 47.6816C326.044 47.6816 326.49 47.6296 326.92 47.5254C327.356 47.4212 327.776 47.265 328.18 47.0566V48.6387Z" fill="#C9D1D9"/>
<path d="M275.064 97.3027C275.064 96.4694 275.178 95.7305 275.406 95.0859C275.634 94.4349 275.956 93.888 276.373 93.4453C276.796 92.9961 277.301 92.6576 277.887 92.4297C278.479 92.1953 279.137 92.0781 279.859 92.0781C280.172 92.0781 280.478 92.0977 280.777 92.1367C281.083 92.1758 281.383 92.2376 281.676 92.3223V88.2012H283.385V102H281.861L281.803 100.145C281.327 100.835 280.813 101.346 280.26 101.678C279.706 102.01 279.107 102.176 278.463 102.176C277.903 102.176 277.408 102.059 276.979 101.824C276.555 101.59 276.201 101.261 275.914 100.838C275.634 100.408 275.423 99.8939 275.279 99.2949C275.136 98.696 275.064 98.0319 275.064 97.3027ZM276.803 97.1953C276.803 98.3802 276.975 99.2656 277.32 99.8516C277.672 100.431 278.167 100.721 278.805 100.721C279.234 100.721 279.687 100.529 280.162 100.145C280.644 99.7604 281.148 99.1908 281.676 98.4355V93.8848C281.396 93.7546 281.087 93.6569 280.748 93.5918C280.41 93.5202 280.074 93.4844 279.742 93.4844C278.818 93.4844 278.095 93.7839 277.574 94.3828C277.06 94.9818 276.803 95.9193 276.803 97.1953Z" fill="#C9D1D9"/>
<path d="M335.844 165.58C335.844 165.821 335.84 166.023 335.834 166.186C335.827 166.348 335.818 166.501 335.805 166.645H328.92C328.92 167.647 329.2 168.419 329.76 168.959C330.32 169.493 331.127 169.76 332.182 169.76C332.468 169.76 332.755 169.75 333.041 169.73C333.327 169.704 333.604 169.672 333.871 169.633C334.138 169.594 334.392 169.551 334.633 169.506C334.88 169.454 335.108 169.398 335.316 169.34V170.736C334.854 170.867 334.33 170.971 333.744 171.049C333.165 171.133 332.562 171.176 331.938 171.176C331.098 171.176 330.375 171.062 329.77 170.834C329.164 170.606 328.666 170.277 328.275 169.848C327.891 169.411 327.605 168.881 327.416 168.256C327.234 167.624 327.143 166.911 327.143 166.117C327.143 165.427 327.24 164.776 327.436 164.164C327.637 163.546 327.927 163.005 328.305 162.543C328.689 162.074 329.158 161.703 329.711 161.43C330.264 161.156 330.893 161.02 331.596 161.02C332.279 161.02 332.885 161.127 333.412 161.342C333.939 161.557 334.382 161.863 334.74 162.26C335.105 162.65 335.378 163.129 335.561 163.695C335.749 164.255 335.844 164.883 335.844 165.58ZM334.076 165.336C334.096 164.9 334.053 164.503 333.949 164.145C333.845 163.78 333.682 163.467 333.461 163.207C333.246 162.947 332.976 162.745 332.65 162.602C332.325 162.452 331.947 162.377 331.518 162.377C331.146 162.377 330.808 162.449 330.502 162.592C330.196 162.735 329.932 162.937 329.711 163.197C329.49 163.458 329.311 163.77 329.174 164.135C329.037 164.499 328.952 164.9 328.92 165.336H334.076Z" fill="#C9D1D9"/>
<path d="M258.264 161.783C257.372 161.594 256.604 161.5 255.959 161.5C254.429 161.5 253.664 162.301 253.664 163.902V165.621H257.961V167.037H253.664V174H251.936V167.037H248.781V165.621H251.936V164C251.936 161.389 253.296 160.084 256.018 160.084C256.695 160.084 257.443 160.162 258.264 160.318V161.783Z" fill="#C9D1D9"/>
<path d="M111.623 178.582C111.805 178.81 111.945 179.077 112.043 179.383C112.147 179.682 112.199 180.008 112.199 180.359C112.199 180.867 112.105 181.333 111.916 181.756C111.734 182.173 111.473 182.531 111.135 182.83C110.796 183.13 110.389 183.364 109.914 183.533C109.445 183.696 108.928 183.777 108.361 183.777C107.951 183.777 107.567 183.735 107.209 183.65C106.851 183.559 106.568 183.449 106.359 183.318C106.236 183.501 106.132 183.673 106.047 183.836C105.962 183.999 105.92 184.181 105.92 184.383C105.92 184.63 106.037 184.835 106.271 184.998C106.512 185.161 106.828 185.249 107.219 185.262L109.797 185.359C110.285 185.372 110.734 185.434 111.145 185.545C111.561 185.656 111.916 185.815 112.209 186.023C112.508 186.232 112.74 186.489 112.902 186.795C113.072 187.101 113.156 187.456 113.156 187.859C113.156 188.296 113.062 188.709 112.873 189.1C112.684 189.49 112.391 189.832 111.994 190.125C111.604 190.424 111.105 190.662 110.5 190.838C109.895 191.014 109.175 191.102 108.342 191.102C107.548 191.102 106.87 191.036 106.311 190.906C105.757 190.783 105.301 190.607 104.943 190.379C104.585 190.158 104.325 189.891 104.162 189.578C103.999 189.272 103.918 188.934 103.918 188.562C103.918 188.087 104.029 187.671 104.25 187.312C104.471 186.954 104.813 186.609 105.275 186.277C105.106 186.199 104.96 186.102 104.836 185.984C104.712 185.867 104.611 185.74 104.533 185.604C104.455 185.46 104.396 185.311 104.357 185.154C104.318 184.998 104.299 184.845 104.299 184.695C104.299 184.272 104.396 183.885 104.592 183.533C104.794 183.182 105.031 182.85 105.305 182.537C105.181 182.387 105.07 182.241 104.973 182.098C104.882 181.954 104.8 181.801 104.729 181.639C104.663 181.469 104.611 181.29 104.572 181.102C104.54 180.906 104.523 180.685 104.523 180.438C104.523 179.93 104.615 179.467 104.797 179.051C104.986 178.628 105.246 178.266 105.578 177.967C105.917 177.667 106.32 177.436 106.789 177.273C107.264 177.104 107.788 177.02 108.361 177.02C108.602 177.02 108.833 177.036 109.055 177.068C109.276 177.101 109.471 177.143 109.641 177.195H113.195V178.582H111.623ZM105.725 188.416C105.725 188.878 105.965 189.214 106.447 189.422C106.929 189.637 107.6 189.744 108.459 189.744C108.999 189.744 109.452 189.695 109.816 189.598C110.188 189.5 110.484 189.37 110.705 189.207C110.933 189.051 111.096 188.868 111.193 188.66C111.291 188.458 111.34 188.25 111.34 188.035C111.34 187.638 111.177 187.345 110.852 187.156C110.526 186.967 110.028 186.857 109.357 186.824L106.799 186.736C106.584 186.88 106.405 187.02 106.262 187.156C106.125 187.293 106.018 187.43 105.939 187.566C105.861 187.71 105.806 187.85 105.773 187.986C105.741 188.13 105.725 188.273 105.725 188.416ZM106.242 180.398C106.242 180.711 106.294 180.997 106.398 181.258C106.503 181.518 106.649 181.74 106.838 181.922C107.027 182.104 107.248 182.247 107.502 182.352C107.762 182.449 108.049 182.498 108.361 182.498C108.7 182.498 108.999 182.443 109.26 182.332C109.527 182.215 109.748 182.059 109.924 181.863C110.106 181.668 110.243 181.443 110.334 181.189C110.432 180.936 110.48 180.672 110.48 180.398C110.48 180.086 110.428 179.799 110.324 179.539C110.22 179.279 110.074 179.057 109.885 178.875C109.696 178.693 109.471 178.553 109.211 178.455C108.957 178.351 108.674 178.299 108.361 178.299C108.023 178.299 107.72 178.357 107.453 178.475C107.193 178.592 106.971 178.748 106.789 178.943C106.613 179.132 106.477 179.354 106.379 179.607C106.288 179.861 106.242 180.125 106.242 180.398Z" fill="#C9D1D9"/>
<path d="M99.9218 30.6374H98.0273L97.1386 27.8542H91.8261L90.9277 30.6374H89.121L93.3593 17.8737H95.7421L99.9218 30.6374ZM96.6406 26.3015L94.4824 19.4753L92.3242 26.3015H96.6406Z" fill="#C9D1D9"/>
<path d="M180.77 121.661C180.77 122.273 180.649 122.817 180.408 123.292C180.174 123.761 179.836 124.158 179.393 124.483C178.957 124.809 178.426 125.056 177.801 125.226C177.183 125.395 176.492 125.479 175.731 125.479H172.391V112.716H176.043C178.888 112.716 180.311 113.751 180.311 115.821C180.311 116.511 180.145 117.104 179.813 117.599C179.487 118.093 178.953 118.461 178.211 118.702C178.556 118.767 178.882 118.878 179.188 119.034C179.5 119.19 179.774 119.392 180.008 119.64C180.242 119.887 180.428 120.18 180.565 120.519C180.701 120.857 180.77 121.238 180.77 121.661ZM178.504 116.056C178.504 115.795 178.465 115.551 178.387 115.323C178.309 115.089 178.172 114.89 177.977 114.728C177.781 114.558 177.518 114.425 177.186 114.327C176.854 114.229 176.434 114.181 175.926 114.181H174.129V118.175H175.867C176.265 118.175 176.623 118.132 176.942 118.048C177.267 117.963 177.544 117.833 177.772 117.657C178.006 117.481 178.185 117.263 178.309 117.003C178.439 116.736 178.504 116.42 178.504 116.056ZM178.924 121.72C178.924 121.394 178.856 121.101 178.719 120.841C178.582 120.58 178.384 120.362 178.123 120.187C177.863 120.004 177.544 119.864 177.166 119.767C176.795 119.669 176.375 119.62 175.906 119.62H174.129V124.015H175.965C176.961 124.015 177.703 123.829 178.192 123.458C178.68 123.087 178.924 122.507 178.924 121.72Z" fill="#C9D1D9"/>
<path d="M350.413 105.165C349.391 105.588 348.32 105.8 347.2 105.8C345.396 105.8 344.01 105.262 343.04 104.188C342.076 103.108 341.594 101.512 341.594 99.4031C341.594 98.3809 341.728 97.4565 341.995 96.6296C342.262 95.8028 342.643 95.1029 343.137 94.53C343.632 93.9506 344.231 93.5046 344.934 93.1921C345.637 92.8796 346.425 92.7234 347.297 92.7234C347.89 92.7234 348.44 92.7755 348.948 92.8796C349.456 92.9773 349.944 93.1303 350.413 93.3386V95.0476C349.95 94.7937 349.472 94.6016 348.977 94.4714C348.482 94.3347 347.942 94.2664 347.356 94.2664C346.757 94.2664 346.213 94.3803 345.725 94.6082C345.243 94.8295 344.833 95.155 344.495 95.5847C344.156 96.0079 343.896 96.5287 343.713 97.1472C343.531 97.7592 343.44 98.4591 343.44 99.2468C343.44 100.9 343.775 102.147 344.446 102.987C345.116 103.827 346.1 104.247 347.395 104.247C347.942 104.247 348.466 104.185 348.967 104.061C349.469 103.931 349.95 103.752 350.413 103.524V105.165Z" fill="#C9D1D9"/>
<path d="M176.172 242.933C176.172 243.545 176.123 244.131 176.026 244.69C175.934 245.25 175.785 245.771 175.576 246.253C175.368 246.735 175.098 247.174 174.766 247.571C174.434 247.962 174.027 248.297 173.545 248.577C173.063 248.857 172.503 249.075 171.865 249.232C171.227 249.381 170.502 249.456 169.688 249.456H166.953V236.692H170.244C172.237 236.692 173.721 237.207 174.698 238.235C175.681 239.258 176.172 240.823 176.172 242.933ZM174.346 243.06C174.346 242.155 174.261 241.39 174.092 240.765C173.923 240.14 173.666 239.635 173.321 239.251C172.976 238.867 172.543 238.59 172.022 238.421C171.501 238.245 170.889 238.157 170.186 238.157H168.692V247.952H169.99C172.894 247.952 174.346 246.321 174.346 243.06Z" fill="#C9D1D9"/>
<circle cx="411.695" cy="132.153" r="18.1946" stroke="#C4A8A8" stroke-width="3"/>
<path d="M414.922 136.182C414.922 136.794 414.801 137.337 414.561 137.812C414.326 138.281 413.988 138.678 413.545 139.004C413.109 139.329 412.578 139.577 411.953 139.746C411.335 139.915 410.645 140 409.883 140H406.543V127.236H410.195C413.04 127.236 414.463 128.271 414.463 130.342C414.463 131.032 414.297 131.624 413.965 132.119C413.639 132.614 413.105 132.982 412.363 133.223C412.708 133.288 413.034 133.398 413.34 133.555C413.652 133.711 413.926 133.913 414.16 134.16C414.395 134.408 414.58 134.701 414.717 135.039C414.854 135.378 414.922 135.758 414.922 136.182ZM412.656 130.576C412.656 130.316 412.617 130.072 412.539 129.844C412.461 129.609 412.324 129.411 412.129 129.248C411.934 129.079 411.67 128.945 411.338 128.848C411.006 128.75 410.586 128.701 410.078 128.701H408.281V132.695H410.02C410.417 132.695 410.775 132.653 411.094 132.568C411.419 132.484 411.696 132.354 411.924 132.178C412.158 132.002 412.337 131.784 412.461 131.523C412.591 131.257 412.656 130.941 412.656 130.576ZM413.076 136.24C413.076 135.915 413.008 135.622 412.871 135.361C412.734 135.101 412.536 134.883 412.275 134.707C412.015 134.525 411.696 134.385 411.318 134.287C410.947 134.189 410.527 134.141 410.059 134.141H408.281V138.535H410.117C411.113 138.535 411.855 138.35 412.344 137.979C412.832 137.607 413.076 137.028 413.076 136.24Z" fill="#C9D1D9"/>
<circle cx="489.16" cy="75.6946" r="18.1946" stroke="#C4A8A8" stroke-width="3"/>
<path d="M492.898 80H491.004L490.115 77.2168H484.803L483.904 80H482.098L486.336 67.2363H488.719L492.898 80ZM489.617 75.6641L487.459 68.8379L485.301 75.6641H489.617Z" fill="#C9D1D9"/>
<circle cx="689.389" cy="133.466" r="18.1946" stroke="#C4A8A8" stroke-width="3"/>
<path d="M695.824 141.109C694.801 141.532 693.73 141.744 692.611 141.744C690.807 141.744 689.421 141.207 688.45 140.133C687.487 139.052 687.005 137.457 687.005 135.348C687.005 134.325 687.139 133.401 687.406 132.574C687.672 131.747 688.053 131.047 688.548 130.474C689.043 129.895 689.642 129.449 690.345 129.137C691.048 128.824 691.836 128.668 692.708 128.668C693.301 128.668 693.851 128.72 694.359 128.824C694.866 128.922 695.355 129.075 695.824 129.283V130.992C695.361 130.738 694.883 130.546 694.388 130.416C693.893 130.279 693.353 130.211 692.767 130.211C692.168 130.211 691.624 130.325 691.136 130.553C690.654 130.774 690.244 131.099 689.906 131.529C689.567 131.952 689.307 132.473 689.124 133.092C688.942 133.704 688.851 134.404 688.851 135.191C688.851 136.845 689.186 138.092 689.857 138.932C690.527 139.771 691.51 140.191 692.806 140.191C693.353 140.191 693.877 140.129 694.378 140.006C694.88 139.876 695.361 139.696 695.824 139.469V141.109Z" fill="#C9D1D9"/>
<circle cx="489.16" cy="190.58" r="18.1946" stroke="#C4A8A8" stroke-width="3"/>
<path d="M496.161 192.179C496.161 192.791 496.112 193.377 496.015 193.937C495.923 194.496 495.774 195.017 495.565 195.499C495.357 195.981 495.087 196.42 494.755 196.817C494.423 197.208 494.016 197.543 493.534 197.823C493.052 198.103 492.492 198.321 491.854 198.478C491.216 198.627 490.49 198.702 489.677 198.702H486.942V185.939H490.233C492.225 185.939 493.71 186.453 494.686 187.482C495.669 188.504 496.161 190.069 496.161 192.179ZM494.335 192.306C494.335 191.401 494.25 190.636 494.081 190.011C493.912 189.386 493.655 188.881 493.309 188.497C492.964 188.113 492.531 187.836 492.011 187.667C491.49 187.491 490.878 187.403 490.175 187.403H488.681V197.198H489.979C492.883 197.198 494.335 195.567 494.335 192.306Z" fill="#C9D1D9"/>
<line x1="424.265" y1="118.851" x2="472.845" y2="86.0264" stroke="#C4A8A8" stroke-width="2"/>
<line x1="425.384" y1="145.767" x2="473.964" y2="178.591" stroke="#C4A8A8" stroke-width="2"/>
<path d="M403.16 115.084C414.614 71.9329 430.001 58.9042 478 61.2516" stroke="#C4A8A8" stroke-width="2"/>
<path d="M475.702 203.382C429.46 203.657 410.261 192.682 400.799 146.26" stroke="#C4A8A8" stroke-width="2"/>
<line x1="431.4" y1="131.153" x2="669.706" y2="133.779" stroke="#C4A8A8" stroke-width="2"/>
<path d="M507.214 185.985L676.091 145.818" stroke="#C4A8A8" stroke-width="2"/>
<path d="M506.973 80.9466L675.851 121.113" stroke="#C4A8A8" stroke-width="2"/>
<path d="M416.274 76.5954L416.234 75.277C415.701 75.8044 415.157 76.1852 414.604 76.4196C414.057 76.654 413.481 76.7712 412.875 76.7712C412.315 76.7712 411.837 76.6996 411.44 76.5563C411.042 76.4131 410.714 76.2178 410.453 75.9704C410.199 75.7165 410.011 75.4203 409.887 75.0817C409.77 74.7432 409.711 74.3753 409.711 73.9782C409.711 72.9951 410.076 72.2269 410.805 71.6735C411.54 71.1136 412.624 70.8337 414.057 70.8337H416.088V69.9743C416.088 69.3949 415.902 68.9326 415.531 68.5876C415.16 68.236 414.594 68.0602 413.832 68.0602C413.279 68.0602 412.732 68.1221 412.191 68.2458C411.658 68.3695 411.104 68.5453 410.531 68.7731V67.2399C410.746 67.1618 410.984 67.0869 411.244 67.0153C411.511 66.9372 411.791 66.8688 412.084 66.8102C412.377 66.7516 412.683 66.7061 413.002 66.6735C413.321 66.6345 413.643 66.6149 413.969 66.6149C414.561 66.6149 415.095 66.68 415.57 66.8102C416.046 66.9405 416.446 67.139 416.772 67.4059C417.104 67.6729 417.358 68.0082 417.533 68.4118C417.709 68.8155 417.797 69.2907 417.797 69.8376V76.5954H416.274ZM416.088 72.1325H413.93C413.507 72.1325 413.142 72.1748 412.836 72.2595C412.53 72.3441 412.279 72.4645 412.084 72.6208C411.889 72.777 411.742 72.9658 411.645 73.1872C411.553 73.402 411.508 73.6462 411.508 73.9196C411.508 74.1084 411.537 74.2907 411.596 74.4665C411.654 74.6358 411.749 74.7888 411.879 74.9255C412.009 75.0557 412.178 75.1599 412.387 75.238C412.595 75.3161 412.849 75.3552 413.149 75.3552C413.539 75.3552 413.985 75.238 414.486 75.0036C414.994 74.7627 415.528 74.3851 416.088 73.8708V72.1325Z" fill="#C9D1D9"/>
<path d="M453.804 95.8074C453.804 96.6212 453.69 97.3503 453.462 97.9949C453.241 98.6329 452.922 99.1765 452.505 99.6257C452.095 100.068 451.594 100.41 451.001 100.651C450.409 100.885 449.741 101.003 448.999 101.003C448.42 101.003 447.827 100.947 447.222 100.837C446.616 100.726 446.018 100.55 445.425 100.309V87.0867H447.124V90.8855L447.046 92.7019C447.534 92.0444 448.055 91.5821 448.609 91.3152C449.169 91.0417 449.768 90.905 450.406 90.905C450.965 90.905 451.457 91.0222 451.88 91.2566C452.303 91.491 452.658 91.823 452.945 92.2527C453.231 92.6759 453.446 93.1902 453.589 93.7957C453.732 94.3946 453.804 95.0652 453.804 95.8074ZM452.066 95.8855C452.066 95.3712 452.027 94.8992 451.949 94.4695C451.877 94.0398 451.76 93.672 451.597 93.366C451.434 93.06 451.226 92.8223 450.972 92.6531C450.718 92.4773 450.415 92.3894 450.064 92.3894C449.849 92.3894 449.631 92.4252 449.409 92.4968C449.188 92.5619 448.957 92.6759 448.716 92.8386C448.482 92.9949 448.231 93.2065 447.964 93.4734C447.704 93.7338 447.424 94.0593 447.124 94.45V99.2058C447.456 99.336 447.795 99.4402 448.14 99.5183C448.485 99.5899 448.814 99.6257 449.126 99.6257C449.517 99.6257 449.888 99.5639 450.24 99.4402C450.598 99.3165 450.91 99.1114 451.177 98.825C451.45 98.532 451.665 98.1479 451.822 97.6726C451.984 97.1908 452.066 96.5951 452.066 95.8855Z" fill="#C9D1D9"/>
<path d="M417.035 198.162C417.218 198.39 417.358 198.657 417.455 198.963C417.559 199.262 417.611 199.588 417.611 199.939C417.611 200.447 417.517 200.913 417.328 201.336C417.146 201.753 416.886 202.111 416.547 202.41C416.208 202.71 415.802 202.944 415.326 203.113C414.858 203.276 414.34 203.357 413.774 203.357C413.363 203.357 412.979 203.315 412.621 203.23C412.263 203.139 411.98 203.029 411.772 202.898C411.648 203.081 411.544 203.253 411.459 203.416C411.374 203.579 411.332 203.761 411.332 203.963C411.332 204.21 411.449 204.415 411.684 204.578C411.925 204.741 412.24 204.829 412.631 204.842L415.209 204.939C415.697 204.952 416.147 205.014 416.557 205.125C416.973 205.236 417.328 205.395 417.621 205.604C417.921 205.812 418.152 206.069 418.315 206.375C418.484 206.681 418.568 207.036 418.568 207.439C418.568 207.876 418.474 208.289 418.285 208.68C418.096 209.07 417.803 209.412 417.406 209.705C417.016 210.005 416.518 210.242 415.912 210.418C415.307 210.594 414.587 210.682 413.754 210.682C412.96 210.682 412.283 210.617 411.723 210.486C411.169 210.363 410.714 210.187 410.356 209.959C409.997 209.738 409.737 209.471 409.574 209.158C409.412 208.852 409.33 208.514 409.33 208.143C409.33 207.667 409.441 207.251 409.662 206.893C409.884 206.535 410.225 206.189 410.688 205.857C410.518 205.779 410.372 205.682 410.248 205.564C410.124 205.447 410.024 205.32 409.945 205.184C409.867 205.04 409.809 204.891 409.77 204.734C409.731 204.578 409.711 204.425 409.711 204.275C409.711 203.852 409.809 203.465 410.004 203.113C410.206 202.762 410.443 202.43 410.717 202.117C410.593 201.967 410.483 201.821 410.385 201.678C410.294 201.535 410.212 201.382 410.141 201.219C410.076 201.049 410.024 200.87 409.984 200.682C409.952 200.486 409.936 200.265 409.936 200.018C409.936 199.51 410.027 199.048 410.209 198.631C410.398 198.208 410.658 197.846 410.99 197.547C411.329 197.247 411.733 197.016 412.201 196.854C412.677 196.684 413.201 196.6 413.774 196.6C414.014 196.6 414.246 196.616 414.467 196.648C414.688 196.681 414.884 196.723 415.053 196.775H418.608V198.162H417.035ZM411.137 207.996C411.137 208.458 411.378 208.794 411.859 209.002C412.341 209.217 413.012 209.324 413.871 209.324C414.412 209.324 414.864 209.275 415.229 209.178C415.6 209.08 415.896 208.95 416.117 208.787C416.345 208.631 416.508 208.449 416.606 208.24C416.703 208.038 416.752 207.83 416.752 207.615C416.752 207.218 416.589 206.925 416.264 206.736C415.938 206.548 415.44 206.437 414.77 206.404L412.211 206.316C411.996 206.46 411.817 206.6 411.674 206.736C411.537 206.873 411.43 207.01 411.352 207.146C411.274 207.29 411.218 207.43 411.186 207.566C411.153 207.71 411.137 207.853 411.137 207.996ZM411.654 199.979C411.654 200.291 411.706 200.577 411.811 200.838C411.915 201.098 412.061 201.32 412.25 201.502C412.439 201.684 412.66 201.827 412.914 201.932C413.175 202.029 413.461 202.078 413.774 202.078C414.112 202.078 414.412 202.023 414.672 201.912C414.939 201.795 415.16 201.639 415.336 201.443C415.518 201.248 415.655 201.023 415.746 200.77C415.844 200.516 415.893 200.252 415.893 199.979C415.893 199.666 415.841 199.38 415.736 199.119C415.632 198.859 415.486 198.637 415.297 198.455C415.108 198.273 414.884 198.133 414.623 198.035C414.369 197.931 414.086 197.879 413.774 197.879C413.435 197.879 413.132 197.938 412.865 198.055C412.605 198.172 412.384 198.328 412.201 198.523C412.025 198.712 411.889 198.934 411.791 199.188C411.7 199.441 411.654 199.705 411.654 199.979Z" fill="#C9D1D9"/>
<path d="M450.187 166.791C449.295 166.602 448.527 166.508 447.883 166.508C446.353 166.508 445.588 167.308 445.588 168.91V170.629H449.885V172.045H445.588V179.008H443.859V172.045H440.705V170.629H443.859V169.008C443.859 166.397 445.22 165.092 447.941 165.092C448.618 165.092 449.367 165.17 450.187 165.326V166.791Z" fill="#C9D1D9"/>
<path d="M536.179 123.104C536.179 122.271 536.293 121.532 536.521 120.887C536.749 120.236 537.071 119.69 537.487 119.247C537.911 118.798 538.415 118.459 539.001 118.231C539.594 117.997 540.251 117.88 540.974 117.88C541.286 117.88 541.592 117.899 541.892 117.938C542.198 117.977 542.497 118.039 542.79 118.124V114.003H544.499V127.802H542.976L542.917 125.946C542.442 126.636 541.928 127.147 541.374 127.479C540.821 127.811 540.222 127.977 539.577 127.977C539.017 127.977 538.523 127.86 538.093 127.626C537.67 127.391 537.315 127.063 537.028 126.639C536.749 126.21 536.537 125.695 536.394 125.096C536.25 124.497 536.179 123.833 536.179 123.104ZM537.917 122.997C537.917 124.182 538.09 125.067 538.435 125.653C538.786 126.233 539.281 126.522 539.919 126.522C540.349 126.522 540.801 126.33 541.277 125.946C541.758 125.562 542.263 124.992 542.79 124.237V119.686C542.51 119.556 542.201 119.458 541.862 119.393C541.524 119.322 541.189 119.286 540.857 119.286C539.932 119.286 539.209 119.585 538.689 120.184C538.174 120.783 537.917 121.721 537.917 122.997Z" fill="#C9D1D9"/>
<path d="M593.531 94.6158C593.088 94.7851 592.632 94.9088 592.164 94.9869C591.701 95.0715 591.223 95.1138 590.728 95.1138C589.179 95.1138 587.984 94.6939 587.144 93.8541C586.311 93.0142 585.894 91.787 585.894 90.1724C585.894 89.3977 586.014 88.6946 586.255 88.063C586.496 87.4315 586.835 86.8912 587.271 86.442C587.707 85.9927 588.228 85.6477 588.833 85.4068C589.439 85.1594 590.106 85.0357 590.835 85.0357C591.343 85.0357 591.818 85.0715 592.261 85.1431C592.704 85.2147 593.127 85.3319 593.531 85.4947V87.1158C593.108 86.8944 592.675 86.7349 592.232 86.6373C591.796 86.5331 591.343 86.481 590.874 86.481C590.438 86.481 590.025 86.5657 589.634 86.7349C589.25 86.8977 588.912 87.1353 588.619 87.4478C588.326 87.7603 588.095 88.1412 587.925 88.5904C587.756 89.0396 587.671 89.5474 587.671 90.1138C587.671 91.2987 587.958 92.1874 588.531 92.7798C589.11 93.3658 589.911 93.6588 590.933 93.6588C591.395 93.6588 591.841 93.6067 592.271 93.5025C592.707 93.3983 593.127 93.2421 593.531 93.0338V94.6158Z" fill="#C9D1D9"/>
<path d="M598.134 180.809C598.134 181.05 598.13 181.252 598.124 181.414C598.117 181.577 598.108 181.73 598.095 181.873H591.21C591.21 182.876 591.49 183.648 592.05 184.188C592.61 184.722 593.417 184.989 594.472 184.989C594.758 184.989 595.045 184.979 595.331 184.959C595.617 184.933 595.894 184.901 596.161 184.862C596.428 184.823 596.682 184.78 596.923 184.735C597.17 184.683 597.398 184.627 597.606 184.569V185.965C597.144 186.095 596.62 186.2 596.034 186.278C595.455 186.362 594.852 186.405 594.227 186.405C593.388 186.405 592.665 186.291 592.059 186.063C591.454 185.835 590.956 185.506 590.565 185.077C590.181 184.64 589.895 184.11 589.706 183.485C589.524 182.853 589.433 182.14 589.433 181.346C589.433 180.656 589.53 180.005 589.726 179.393C589.927 178.775 590.217 178.234 590.595 177.772C590.979 177.303 591.448 176.932 592.001 176.659C592.554 176.385 593.183 176.248 593.886 176.248C594.569 176.248 595.175 176.356 595.702 176.571C596.229 176.786 596.672 177.092 597.03 177.489C597.395 177.879 597.668 178.358 597.851 178.924C598.039 179.484 598.134 180.112 598.134 180.809ZM596.366 180.565C596.386 180.129 596.343 179.732 596.239 179.373C596.135 179.009 595.972 178.696 595.751 178.436C595.536 178.176 595.266 177.974 594.94 177.831C594.615 177.681 594.237 177.606 593.808 177.606C593.436 177.606 593.098 177.678 592.792 177.821C592.486 177.964 592.222 178.166 592.001 178.426C591.78 178.687 591.601 178.999 591.464 179.364C591.327 179.728 591.242 180.129 591.21 180.565H596.366Z" fill="#C9D1D9"/>
<defs>
<linearGradient id="paint0_linear" x1="186.345" y1="1.30969" x2="186.345" y2="266.62" gradientUnits="userSpaceOnUse">
<stop stop-color="white"/>
<stop offset="1" stop-color="white" stop-opacity="0"/>
</linearGradient>
<linearGradient id="paint1_linear" x1="292.965" y1="102.351" x2="292.965" y2="181.696" gradientUnits="userSpaceOnUse">
<stop stop-color="white"/>
<stop offset="1" stop-color="white" stop-opacity="0"/>
</linearGradient>
<linearGradient id="paint2_linear" x1="270.649" y1="27.655" x2="270.649" y2="89.6433" gradientUnits="userSpaceOnUse">
<stop stop-color="#C3A8A8"/>
<stop offset="1" stop-color="white" stop-opacity="0"/>
</linearGradient>
<linearGradient id="paint3_linear" x1="56.0146" y1="65.1579" x2="56.0146" y2="194.713" gradientUnits="userSpaceOnUse">
<stop stop-color="white"/>
<stop offset="1" stop-color="white" stop-opacity="0"/>
</linearGradient>
</defs>
</svg>
