<svg width="409" height="372" viewBox="0 0 409 372" fill="none" xmlns="http://www.w3.org/2000/svg">
<path d="M138.679 163.453C139.145 163.75 139.763 163.613 140.06 163.147L144.892 155.554C145.189 155.088 145.051 154.47 144.586 154.174C144.12 153.877 143.502 154.014 143.205 154.48L138.91 161.229L132.161 156.934C131.695 156.637 131.077 156.775 130.78 157.241C130.483 157.706 130.621 158.325 131.087 158.621L138.679 163.453ZM119.326 77.688L138.24 162.827L140.192 162.393L121.278 77.2543L119.326 77.688Z" fill="#C4A8A8"/>
<path d="M263.067 114.329C263.548 114.058 263.718 113.448 263.447 112.967L259.023 105.129C258.752 104.648 258.142 104.478 257.661 104.749C257.18 105.021 257.01 105.631 257.281 106.112L261.213 113.079L254.246 117.011C253.765 117.282 253.596 117.892 253.867 118.373C254.138 118.854 254.748 119.024 255.229 118.752L263.067 114.329ZM130.077 77.5976L262.308 114.421L262.844 112.495L130.613 75.6709L130.077 77.5976Z" fill="#C4A8A8"/>
<path d="M129.227 55.4874C129.157 56.0352 129.544 56.5363 130.091 56.6067L139.018 57.754C139.566 57.8244 140.067 57.4374 140.137 56.8896C140.208 56.3418 139.821 55.8407 139.273 55.7703L131.338 54.7505L132.358 46.8158C132.428 46.268 132.041 45.7669 131.494 45.6965C130.946 45.6261 130.445 46.013 130.374 46.5608L129.227 55.4874ZM279.497 119.341C272.995 93.4907 265.758 72.4016 257.21 56.343C248.664 40.2872 238.76 29.174 226.884 23.4095C214.982 17.6321 201.252 17.3005 185.222 22.4994C169.214 27.6912 150.858 38.4132 129.608 54.8234L130.83 56.4064C151.998 40.06 170.143 29.4922 185.839 24.4018C201.512 19.3185 214.687 19.7122 226.011 25.2087C237.361 30.7179 247.005 41.4271 255.445 57.2828C263.884 73.1357 271.073 94.0475 277.557 119.829L279.497 119.341Z" fill="#C4A8A8"/>
<path d="M286.171 269.022C286.578 269.396 287.21 269.368 287.584 268.961L293.663 262.325C294.036 261.917 294.009 261.285 293.601 260.912C293.194 260.539 292.562 260.566 292.189 260.974L286.784 266.872L280.886 261.468C280.478 261.095 279.846 261.123 279.473 261.53C279.1 261.937 279.127 262.57 279.535 262.943L286.171 269.022ZM279.989 134.424L285.847 268.329L287.845 268.241L281.987 134.337L279.989 134.424Z" fill="#C3A8A8"/>
<path d="M273.528 294.646C273.758 294.144 273.537 293.55 273.035 293.321L264.849 289.579C264.347 289.349 263.754 289.57 263.524 290.072C263.295 290.575 263.516 291.168 264.018 291.398L271.294 294.724L267.968 302C267.738 302.502 267.959 303.095 268.461 303.325C268.964 303.554 269.557 303.333 269.786 302.831L273.528 294.646ZM144.921 342.869L272.968 295.167L272.27 293.293L144.223 340.995L144.921 342.869Z" fill="#FFD700"/>
<path d="M115.553 332.907C116.102 332.967 116.596 332.571 116.656 332.022L117.641 323.076C117.701 322.527 117.305 322.033 116.756 321.973C116.207 321.912 115.713 322.308 115.653 322.857L114.778 330.809L106.826 329.934C106.277 329.874 105.783 330.27 105.722 330.819C105.662 331.368 106.058 331.862 106.607 331.922L115.553 332.907ZM30.3467 227.094L114.882 332.538L116.443 331.287L31.9072 225.843L30.3467 227.094Z" fill="#FF7F50"/>
<path d="M108.728 85.6393C108.617 85.0983 108.089 84.7497 107.548 84.8608L98.7313 86.6702C98.1903 86.7812 97.8417 87.3098 97.9528 87.8508C98.0638 88.3918 98.5924 88.7404 99.1334 88.6294L106.97 87.021L108.578 94.8576C108.689 95.3986 109.218 95.7472 109.759 95.6361C110.3 95.5251 110.649 94.9965 110.538 94.4555L108.728 85.6393ZM32.4251 201.884L108.583 86.3908L106.914 85.2898L30.7554 200.783L32.4251 201.884Z" fill="#C4A8A8"/>
<path d="M267.692 130.56C267.893 130.045 267.639 129.465 267.124 129.264L258.741 125.989C258.227 125.788 257.647 126.042 257.446 126.557C257.245 127.071 257.499 127.651 258.014 127.852L265.465 130.763L262.554 138.215C262.353 138.729 262.607 139.309 263.121 139.51C263.636 139.711 264.216 139.457 264.417 138.943L267.692 130.56ZM145.786 184.289L267.162 131.112L266.359 129.28L144.984 182.457L145.786 184.289Z" fill="#C3A8A8"/>
<path d="M376.543 224.941C376.639 224.397 376.276 223.878 375.733 223.781L366.871 222.212C366.327 222.115 365.808 222.478 365.711 223.022C365.615 223.566 365.978 224.085 366.522 224.181L374.399 225.576L373.004 233.454C372.907 233.998 373.27 234.516 373.814 234.613C374.358 234.709 374.877 234.346 374.973 233.803L376.543 224.941ZM289.93 285.843L376.131 225.586L374.985 223.947L288.784 284.204L289.93 285.843Z" fill="#FF7F50"/>
<path d="M39.254 208.675C38.8588 209.061 38.8511 209.694 39.2368 210.089L45.5227 216.53C45.9084 216.925 46.5415 216.933 46.9368 216.547C47.332 216.162 47.3398 215.528 46.954 215.133L41.3666 209.408L47.092 203.82C47.4873 203.435 47.495 202.801 47.1093 202.406C46.7235 202.011 46.0904 202.003 45.6952 202.389L39.254 208.675ZM390.406 212.665L39.9647 208.391L39.9403 210.39L390.382 214.665L390.406 212.665Z" fill="#FF7F50"/>
<path d="M37.7208 224.714C37.2491 225.001 37.0996 225.616 37.3868 226.088L42.0679 233.775C42.3551 234.246 42.9704 234.396 43.4421 234.109C43.9138 233.822 44.0633 233.206 43.776 232.735L39.6151 225.902L46.4479 221.741C46.9196 221.454 47.0691 220.838 46.7819 220.367C46.4946 219.895 45.8794 219.745 45.4077 220.033L37.7208 224.714ZM289.914 285.704L38.4771 224.596L38.0047 226.54L289.442 287.647L289.914 285.704Z" fill="#C3A8A8"/>
<circle cx="143.849" cy="179.675" r="15.7381" fill="#C3A8A8" stroke="#C4A8A8" stroke-width="2"/>
<circle cx="279.314" cy="119.316" r="15.7381" fill="#C3A8A8" stroke="#C4A8A8" stroke-width="2"/>
<circle cx="391.459" cy="213.05" r="15.7381" fill="#C3A8A8" stroke="#C4A8A8" stroke-width="2"/>
<circle cx="287.683" cy="286.697" r="15.7381" fill="#31BA3E" stroke="#31BA3E" stroke-width="2"/>
<circle cx="128.671" cy="345.281" r="16.7381" fill="#C4A8A8"/>
<circle cx="23.2211" cy="214.723" r="15.7381" fill="#C3A8A8" stroke="#C4A8A8" stroke-width="2"/>
<circle cx="116.955" cy="70.7757" r="15.7381" fill="#C4A8A8" stroke="#C4A8A8" stroke-width="2"/>
<path d="M300.069 310.702C300.61 312.041 300.291 313.594 299.312 315.03C298.334 316.464 296.703 317.77 294.649 318.601C292.595 319.431 290.515 319.626 288.814 319.275C287.113 318.924 285.804 318.029 285.262 316.69C284.721 315.35 285.04 313.797 286.019 312.362C286.997 310.928 288.628 309.622 290.682 308.791C292.736 307.961 294.816 307.765 296.517 308.117C298.218 308.468 299.527 309.363 300.069 310.702Z" fill="#7B6C6C" stroke="#C4A8A8" stroke-width="0.2"/>
<path d="M306.066 308.277C306.818 310.137 305.494 312.47 303.038 313.464C300.582 314.457 298.008 313.7 297.256 311.84C296.503 309.979 297.828 307.646 300.283 306.653C302.739 305.66 305.313 306.416 306.066 308.277Z" fill="#7B6C6C" stroke="#C4C4C4" stroke-width="0.2"/>
<path d="M312.456 303.948C313.208 305.809 311.884 308.142 309.428 309.135C306.972 310.128 304.398 309.371 303.646 307.511C302.893 305.65 304.218 303.317 306.673 302.324C309.129 301.331 311.703 302.088 312.456 303.948Z" fill="#7B6C6C" stroke="#C4C4C4" stroke-width="0.2"/>
<circle cx="313.888" cy="300.753" r="4.48192" transform="rotate(-22.0187 313.888 300.753)" fill="#7B6C6C" stroke="#C4C4C4" stroke-width="0.2"/>
<path d="M317.999 302.579C316.648 302.834 315.898 302.847 315.493 301.848" stroke="black" stroke-width="0.3"/>
<path d="M291.414 316.891C291.994 319.551 292.688 322.122 293.974 324.521C294.276 325.083 294.526 325.688 294.891 326.21C295.113 326.526 295.764 327.469 295.619 327.111" stroke="#7B6C6C" stroke-linecap="round" stroke-linejoin="round"/>
<ellipse cx="296.367" cy="326.445" rx="1.34762" ry="0.808574" transform="rotate(-22.0187 296.367 326.445)" fill="#7B6C6C"/>
<path d="M294.989 316.027C295.611 316.936 296.278 317.813 296.883 318.733C297.257 319.302 297.48 319.955 297.8 320.551C298.141 321.187 298.521 322.156 299.031 322.606" stroke="#7B6C6C" stroke-linecap="round" stroke-linejoin="round"/>
<ellipse cx="300.057" cy="322.627" rx="1.34762" ry="0.808574" transform="rotate(-22.0187 300.057 322.627)" fill="#7B6C6C"/>
<path d="M301.896 312.797C302.353 313.336 302.91 313.866 303.179 314.532C303.309 314.853 303.439 315.175 303.569 315.496C303.885 316.277 304.122 317.058 304.382 317.857C304.491 318.189 304.66 318.499 304.758 318.836C304.896 319.308 304.959 319.804 305.135 320.266C305.243 320.552 305.452 320.867 305.69 321.059C305.811 321.158 306.071 321.505 306.032 321.228" stroke="#7B6C6C" stroke-linecap="round" stroke-linejoin="round"/>
<ellipse cx="306.755" cy="320.499" rx="1.34762" ry="0.808574" transform="rotate(-22.0187 306.755 320.499)" fill="#7B6C6C"/>
<path d="M304.671 311.167C305.24 312.098 305.949 313.014 306.207 314.107C306.404 314.944 306.65 315.829 306.769 316.674C306.857 317.301 307.172 317.89 307.408 318.475C307.547 318.818 307.847 319.218 308.23 319.249" stroke="#7B6C6C" stroke-linecap="round" stroke-linejoin="round"/>
<ellipse cx="308.85" cy="318.489" rx="1.34762" ry="0.808574" transform="rotate(-22.0187 308.85 318.489)" fill="#7B6C6C"/>
<path d="M309.424 308.227C309.927 308.674 310.461 309.109 310.924 309.599C311.198 309.889 311.428 310.219 311.721 310.492C312.224 310.96 312.614 311.532 313.1 312.014C313.739 312.648 314.102 313.479 314.764 314.063" stroke="#7B6C6C" stroke-linecap="round" stroke-linejoin="round"/>
<ellipse cx="315.537" cy="313.459" rx="1.34762" ry="0.808574" transform="rotate(-22.0187 315.537 313.459)" fill="#7B6C6C"/>
<path d="M311.358 306.718C312.487 307.921 314.076 308.601 315.11 309.925C315.483 310.403 315.963 310.777 316.331 311.248C316.507 311.473 316.794 311.62 316.933 311.877C316.961 311.93 317.041 311.957 317.09 311.996C317.22 312.101 317.053 311.814 317.032 311.764" stroke="#7B6C6C" stroke-linecap="round" stroke-linejoin="round"/>
<ellipse cx="317.819" cy="311.373" rx="1.34762" ry="0.808574" transform="rotate(-22.0187 317.819 311.373)" fill="#7B6C6C"/>
<path d="M312.805 297.41C311.862 294.731 310.969 293.764 308.354 293.541" stroke="#7B6C6C"/>
<path d="M314.823 296.595C313.814 293.751 312.889 292.713 310.23 292.428" stroke="#7B6C6C"/>
<ellipse cx="310.419" cy="292.175" rx="0.808574" ry="0.492786" transform="rotate(-22.0187 310.419 292.175)" fill="#C4C4C4"/>
<ellipse cx="308.043" cy="293.49" rx="0.808574" ry="0.492786" transform="rotate(-22.0187 308.043 293.49)" fill="#C4C4C4"/>
<circle cx="315.131" cy="298.796" r="1.0281" transform="rotate(-22.0187 315.131 298.796)" fill="#C4C4C4" stroke="black" stroke-width="0.1"/>
<g filter="url(#filter0_f)">
<path d="M294.676 308.294C292.408 308.357 291.068 308.997 288.854 310.346C288.646 310.473 288.56 310.733 288.651 310.959L288.901 311.576C289.013 311.853 289.342 311.97 289.606 311.831C291.476 310.854 292.754 310.455 294.788 310.326C295.073 310.308 295.292 310.06 295.266 309.775L295.172 308.742C295.149 308.485 294.934 308.287 294.676 308.294Z" fill="#C9D1D9"/>
</g>
<g filter="url(#filter1_f)">
<path d="M301.211 306.888C299.87 307.195 299.107 307.677 298.153 308.827C298.004 309.007 298.007 309.268 298.156 309.449L298.388 309.732C298.582 309.969 298.94 309.976 299.154 309.757C299.918 308.978 300.563 308.559 301.595 308.238C301.893 308.145 302.054 307.816 301.926 307.531L301.76 307.166C301.665 306.955 301.436 306.836 301.211 306.888Z" fill="#C9D1D9"/>
</g>
<g filter="url(#filter2_f)">
<path d="M307.019 302.815C305.737 303.36 305.06 303.973 304.301 305.286C304.184 305.489 304.231 305.746 304.409 305.9L304.685 306.139C304.916 306.339 305.27 306.286 305.444 306.034C306.078 305.118 306.651 304.586 307.632 304.081C307.908 303.939 308.01 303.59 307.836 303.332L307.611 302.997C307.481 302.803 307.233 302.724 307.019 302.815Z" fill="#C9D1D9"/>
</g>
<circle cx="315.281" cy="298.735" r="0.53905" transform="rotate(-22.0187 315.281 298.735)" fill="black"/>
<defs>
<filter id="filter0_f" x="284.615" y="304.294" width="14.6529" height="11.5955" filterUnits="userSpaceOnUse" color-interpolation-filters="sRGB">
<feFlood flood-opacity="0" result="BackgroundImageFix"/>
<feBlend mode="normal" in="SourceGraphic" in2="BackgroundImageFix" result="shape"/>
<feGaussianBlur stdDeviation="2" result="effect1_foregroundBlur"/>
</filter>
<filter id="filter1_f" x="294.043" y="302.875" width="11.9274" height="11.04" filterUnits="userSpaceOnUse" color-interpolation-filters="sRGB">
<feFlood flood-opacity="0" result="BackgroundImageFix"/>
<feBlend mode="normal" in="SourceGraphic" in2="BackgroundImageFix" result="shape"/>
<feGaussianBlur stdDeviation="2" result="effect1_foregroundBlur"/>
</filter>
<filter id="filter2_f" x="300.237" y="298.778" width="11.6847" height="11.4834" filterUnits="userSpaceOnUse" color-interpolation-filters="sRGB">
<feFlood flood-opacity="0" result="BackgroundImageFix"/>
<feBlend mode="normal" in="SourceGraphic" in2="BackgroundImageFix" result="shape"/>
<feGaussianBlur stdDeviation="2" result="effect1_foregroundBlur"/>
</filter>
</defs>
</svg>
