<svg width="409" height="372" viewBox="0 0 409 372" fill="none" xmlns="http://www.w3.org/2000/svg">
<path d="M138.679 163.453C139.145 163.75 139.763 163.613 140.06 163.147L144.892 155.554C145.189 155.088 145.051 154.47 144.586 154.174C144.12 153.877 143.502 154.014 143.205 154.48L138.91 161.229L132.161 156.934C131.695 156.637 131.077 156.775 130.78 157.241C130.483 157.706 130.621 158.325 131.087 158.621L138.679 163.453ZM119.326 77.688L138.24 162.827L140.192 162.393L121.278 77.2543L119.326 77.688Z" fill="#C4A8A8"/>
<path d="M263.067 114.329C263.548 114.058 263.718 113.448 263.447 112.967L259.023 105.129C258.752 104.648 258.142 104.478 257.661 104.749C257.18 105.021 257.01 105.631 257.281 106.112L261.213 113.079L254.246 117.011C253.765 117.282 253.596 117.892 253.867 118.373C254.138 118.854 254.748 119.024 255.229 118.752L263.067 114.329ZM130.077 77.5976L262.308 114.421L262.844 112.495L130.613 75.6709L130.077 77.5976Z" fill="#FF7F50"/>
<path d="M129.227 55.4874C129.157 56.0352 129.544 56.5363 130.091 56.6067L139.018 57.754C139.566 57.8244 140.067 57.4374 140.137 56.8896C140.208 56.3418 139.821 55.8407 139.273 55.7703L131.338 54.7505L132.358 46.8158C132.428 46.268 132.041 45.7669 131.494 45.6965C130.946 45.6261 130.445 46.013 130.374 46.5608L129.227 55.4874ZM279.497 119.341C272.995 93.4907 265.758 72.4016 257.21 56.343C248.664 40.2872 238.76 29.174 226.884 23.4095C214.982 17.6321 201.252 17.3005 185.222 22.4994C169.214 27.6912 150.858 38.4132 129.608 54.8234L130.83 56.4064C151.998 40.06 170.143 29.4922 185.839 24.4018C201.512 19.3185 214.687 19.7122 226.011 25.2087C237.361 30.7179 247.005 41.4271 255.445 57.2828C263.884 73.1357 271.073 94.0475 277.557 119.829L279.497 119.341Z" fill="#C4A8A8"/>
<path d="M286.171 269.022C286.578 269.396 287.21 269.368 287.584 268.961L293.663 262.325C294.036 261.917 294.009 261.285 293.601 260.912C293.194 260.539 292.562 260.566 292.189 260.974L286.784 266.872L280.886 261.468C280.478 261.095 279.846 261.123 279.473 261.53C279.1 261.937 279.127 262.57 279.535 262.943L286.171 269.022ZM279.989 134.424L285.847 268.329L287.845 268.241L281.987 134.337L279.989 134.424Z" fill="#FFD700"/>
<path d="M273.528 294.646C273.758 294.144 273.537 293.55 273.035 293.321L264.849 289.579C264.347 289.349 263.754 289.57 263.524 290.072C263.295 290.575 263.516 291.168 264.018 291.398L271.294 294.724L267.968 302C267.738 302.502 267.959 303.095 268.461 303.325C268.964 303.554 269.557 303.333 269.786 302.831L273.528 294.646ZM144.921 342.869L272.968 295.167L272.27 293.293L144.223 340.995L144.921 342.869Z" fill="#FF7F50"/>
<path d="M115.553 332.907C116.102 332.967 116.596 332.571 116.656 332.022L117.641 323.076C117.701 322.527 117.305 322.033 116.756 321.973C116.207 321.912 115.713 322.308 115.653 322.857L114.778 330.809L106.826 329.934C106.277 329.874 105.783 330.27 105.722 330.819C105.662 331.368 106.058 331.862 106.607 331.922L115.553 332.907ZM30.3467 227.094L114.882 332.538L116.443 331.287L31.9072 225.843L30.3467 227.094Z" fill="#FF7F50"/>
<path d="M108.728 85.6393C108.617 85.0983 108.089 84.7497 107.548 84.8608L98.7313 86.6702C98.1903 86.7812 97.8417 87.3098 97.9528 87.8508C98.0638 88.3918 98.5924 88.7404 99.1334 88.6294L106.97 87.021L108.578 94.8576C108.689 95.3986 109.218 95.7472 109.759 95.6361C110.3 95.5251 110.649 94.9965 110.538 94.4555L108.728 85.6393ZM32.4251 201.884L108.583 86.3908L106.914 85.2898L30.7554 200.783L32.4251 201.884Z" fill="#FF7F50"/>
<path d="M267.692 130.56C267.893 130.045 267.639 129.465 267.124 129.264L258.741 125.989C258.227 125.788 257.647 126.042 257.446 126.557C257.245 127.071 257.499 127.651 258.014 127.852L265.465 130.763L262.554 138.215C262.353 138.729 262.607 139.309 263.121 139.51C263.636 139.711 264.216 139.457 264.417 138.943L267.692 130.56ZM145.786 184.289L267.162 131.112L266.359 129.28L144.984 182.457L145.786 184.289Z" fill="#C3A8A8"/>
<path d="M376.543 224.941C376.639 224.397 376.276 223.878 375.733 223.781L366.871 222.212C366.327 222.115 365.808 222.478 365.711 223.022C365.615 223.566 365.978 224.085 366.522 224.181L374.399 225.576L373.004 233.454C372.907 233.998 373.27 234.516 373.814 234.613C374.358 234.709 374.877 234.346 374.973 233.803L376.543 224.941ZM289.93 285.843L376.131 225.586L374.985 223.947L288.784 284.204L289.93 285.843Z" fill="#FF7F50"/>
<path d="M39.254 208.675C38.8588 209.061 38.8511 209.694 39.2368 210.089L45.5227 216.53C45.9084 216.925 46.5415 216.933 46.9368 216.547C47.332 216.162 47.3398 215.528 46.954 215.133L41.3666 209.408L47.092 203.82C47.4873 203.435 47.495 202.801 47.1093 202.406C46.7235 202.011 46.0904 202.003 45.6952 202.389L39.254 208.675ZM390.406 212.665L39.9647 208.391L39.9403 210.39L390.382 214.665L390.406 212.665Z" fill="#FF7F50"/>
<path d="M37.7208 224.714C37.2491 225.001 37.0996 225.616 37.3868 226.088L42.0679 233.775C42.3551 234.246 42.9704 234.396 43.4421 234.109C43.9138 233.822 44.0633 233.206 43.776 232.735L39.6151 225.902L46.4479 221.741C46.9196 221.454 47.0691 220.838 46.7819 220.367C46.4946 219.895 45.8794 219.745 45.4077 220.033L37.7208 224.714ZM289.914 285.704L38.4771 224.596L38.0047 226.54L289.442 287.647L289.914 285.704Z" fill="#FF7F50"/>
<circle cx="143.849" cy="179.675" r="15.7381" fill="#C3A8A8" stroke="#C4A8A8" stroke-width="2"/>
<circle cx="279.314" cy="119.316" r="15.7381" fill="#C3A8A8" stroke="#C4A8A8" stroke-width="2"/>
<circle cx="391.459" cy="213.05" r="15.7381" fill="#C3A8A8" stroke="#C4A8A8" stroke-width="2"/>
<circle cx="287.683" cy="286.697" r="16.7381" fill="#31BA3E"/>
<circle cx="128.671" cy="345.281" r="16.7381" fill="#C4A8A8"/>
<circle cx="23.2211" cy="214.723" r="15.7381" fill="#C3A8A8" stroke="#C4A8A8" stroke-width="2"/>
<circle cx="116.955" cy="70.7757" r="15.7381" fill="#C4A8A8" stroke="#C4A8A8" stroke-width="2"/>
<path d="M291.577 320.526C291.651 321.969 290.841 323.332 289.447 324.369C288.053 325.404 286.085 326.105 283.872 326.218C281.659 326.332 279.63 325.836 278.138 324.948C276.645 324.059 275.7 322.786 275.626 321.343C275.552 319.9 276.362 318.537 277.756 317.501C279.15 316.465 281.118 315.764 283.331 315.651C285.544 315.538 287.573 316.034 289.065 316.921C290.558 317.81 291.503 319.083 291.577 320.526Z" fill="#7B6C6C" stroke="#C4A8A8" stroke-width="0.2"/>
<path d="M298.037 320.195C298.14 322.199 296.125 323.971 293.48 324.107C290.834 324.242 288.649 322.685 288.546 320.681C288.444 318.677 290.458 316.905 293.104 316.77C295.749 316.634 297.934 318.191 298.037 320.195Z" fill="#7B6C6C" stroke="#C4C4C4" stroke-width="0.2"/>
<path d="M305.491 318.194C305.594 320.198 303.579 321.97 300.934 322.106C298.288 322.241 296.103 320.684 296.001 318.68C295.898 316.676 297.912 314.904 300.558 314.769C303.203 314.633 305.388 316.19 305.491 318.194Z" fill="#7B6C6C" stroke="#C4C4C4" stroke-width="0.2"/>
<circle cx="307.889" cy="315.642" r="4.48192" transform="rotate(-2.93212 307.889 315.642)" fill="#7B6C6C" stroke="#C4C4C4" stroke-width="0.2"/>
<path d="M311.177 318.712C309.818 318.512 309.104 318.279 309.049 317.202" stroke="black" stroke-width="0.3"/>
<path d="M281.374 323.545C281.052 326.248 280.867 328.905 281.299 331.593C281.4 332.222 281.438 332.875 281.613 333.488C281.719 333.859 282.026 334.963 282.006 334.578" stroke="#7B6C6C" stroke-linecap="round" stroke-linejoin="round"/>
<ellipse cx="282.931" cy="334.193" rx="1.34762" ry="0.808574" transform="rotate(-2.93212 282.931 334.193)" fill="#7B6C6C"/>
<path d="M285.035 323.897C285.325 324.96 285.669 326.007 285.94 327.075C286.107 327.734 286.105 328.424 286.212 329.092C286.327 329.805 286.368 330.844 286.703 331.436" stroke="#7B6C6C" stroke-linecap="round" stroke-linejoin="round"/>
<ellipse cx="287.666" cy="331.792" rx="1.34762" ry="0.808574" transform="rotate(-2.93212 287.666 331.792)" fill="#7B6C6C"/>
<path d="M292.619 323.104C292.874 323.762 293.227 324.445 293.264 325.163C293.282 325.509 293.299 325.855 293.317 326.202C293.36 327.043 293.329 327.858 293.314 328.698C293.308 329.048 293.366 329.396 293.349 329.746C293.324 330.237 293.222 330.727 293.237 331.221C293.246 331.527 293.341 331.893 293.502 332.152C293.584 332.285 293.717 332.698 293.771 332.423" stroke="#7B6C6C" stroke-linecap="round" stroke-linejoin="round"/>
<ellipse cx="294.692" cy="331.971" rx="1.34762" ry="0.808574" transform="rotate(-2.93212 294.692 331.971)" fill="#7B6C6C"/>
<path d="M295.774 322.47C296.007 323.536 296.378 324.634 296.264 325.751C296.177 326.606 296.12 327.523 295.956 328.361C295.834 328.982 295.939 329.642 295.971 330.272C295.99 330.641 296.142 331.118 296.494 331.272" stroke="#7B6C6C" stroke-linecap="round" stroke-linejoin="round"/>
<ellipse cx="297.329" cy="330.757" rx="1.34762" ry="0.808574" transform="rotate(-2.93212 297.329 330.757)" fill="#7B6C6C"/>
<path d="M301.227 321.246C301.556 321.833 301.918 322.419 302.196 323.033C302.36 323.397 302.47 323.784 302.657 324.138C302.979 324.745 303.161 325.413 303.462 326.027C303.859 326.835 303.931 327.739 304.365 328.507" stroke="#7B6C6C" stroke-linecap="round" stroke-linejoin="round"/>
<ellipse cx="305.294" cy="328.19" rx="1.34762" ry="0.808574" transform="rotate(-2.93212 305.294 328.19)" fill="#7B6C6C"/>
<path d="M303.548 320.453C304.221 321.959 305.501 323.12 306.045 324.71C306.241 325.284 306.573 325.794 306.767 326.36C306.859 326.63 307.082 326.862 307.129 327.151C307.139 327.21 307.206 327.262 307.239 327.314C307.328 327.457 307.263 327.131 307.261 327.077" stroke="#7B6C6C" stroke-linecap="round" stroke-linejoin="round"/>
<ellipse cx="308.132" cy="326.965" rx="1.34762" ry="0.808574" transform="rotate(-2.93212 308.132 326.965)" fill="#7B6C6C"/>
<path d="M307.96 312.13C307.944 309.29 307.417 308.084 305.019 307.018" stroke="#7B6C6C"/>
<path d="M310.133 312.019C310.109 309.001 309.574 307.718 307.155 306.579" stroke="#7B6C6C"/>
<ellipse cx="307.416" cy="306.401" rx="0.808574" ry="0.492786" transform="rotate(-2.93212 307.416 306.401)" fill="#C4C4C4"/>
<ellipse cx="304.741" cy="306.867" rx="0.808574" ry="0.492786" transform="rotate(-2.93212 304.741 306.867)" fill="#C4C4C4"/>
<circle cx="309.705" cy="314.2" r="1.0281" transform="rotate(-2.93212 309.705 314.2)" fill="#C4C4C4" stroke="black" stroke-width="0.1"/>
<g filter="url(#filter0_f)">
<path d="M287.268 316.488C285.104 315.805 283.628 315.972 281.095 316.523C280.857 316.575 280.691 316.792 280.703 317.036L280.737 317.701C280.752 317.999 281.025 318.217 281.32 318.173C283.406 317.86 284.745 317.902 286.709 318.444C286.985 318.52 287.272 318.358 287.341 318.08L287.59 317.073C287.652 316.823 287.514 316.565 287.268 316.488Z" fill="#C9D1D9"/>
</g>
<g filter="url(#filter1_f)">
<path d="M293.903 317.295C292.535 317.148 291.657 317.353 290.38 318.128C290.18 318.25 290.098 318.497 290.179 318.717L290.305 319.06C290.411 319.347 290.747 319.471 291.021 319.334C291.998 318.848 292.744 318.663 293.825 318.697C294.137 318.707 294.397 318.448 294.368 318.137L294.332 317.738C294.31 317.507 294.134 317.32 293.903 317.295Z" fill="#C9D1D9"/>
</g>
<g filter="url(#filter2_f)">
<path d="M300.724 315.346C299.335 315.441 298.494 315.8 297.348 316.792C297.17 316.946 297.131 317.205 297.249 317.408L297.432 317.724C297.585 317.989 297.936 318.054 298.183 317.873C299.081 317.215 299.797 316.899 300.889 316.743C301.196 316.699 301.407 316.402 301.327 316.102L301.224 315.711C301.164 315.486 300.956 315.33 300.724 315.346Z" fill="#C9D1D9"/>
</g>
<circle cx="309.866" cy="314.192" r="0.53905" transform="rotate(-2.93212 309.866 314.192)" fill="black"/>
<defs>
<filter id="filter0_f" x="276.702" y="312.04" width="14.9024" height="10.4231" filterUnits="userSpaceOnUse" color-interpolation-filters="sRGB">
<feFlood flood-opacity="0" result="BackgroundImageFix"/>
<feBlend mode="normal" in="SourceGraphic" in2="BackgroundImageFix" result="shape"/>
<feGaussianBlur stdDeviation="2" result="effect1_foregroundBlur"/>
</filter>
<filter id="filter1_f" x="286.148" y="313.25" width="12.2228" height="10.1392" filterUnits="userSpaceOnUse" color-interpolation-filters="sRGB">
<feFlood flood-opacity="0" result="BackgroundImageFix"/>
<feBlend mode="normal" in="SourceGraphic" in2="BackgroundImageFix" result="shape"/>
<feGaussianBlur stdDeviation="2" result="effect1_foregroundBlur"/>
</filter>
<filter id="filter2_f" x="293.181" y="311.345" width="12.1627" height="10.6301" filterUnits="userSpaceOnUse" color-interpolation-filters="sRGB">
<feFlood flood-opacity="0" result="BackgroundImageFix"/>
<feBlend mode="normal" in="SourceGraphic" in2="BackgroundImageFix" result="shape"/>
<feGaussianBlur stdDeviation="2" result="effect1_foregroundBlur"/>
</filter>
</defs>
</svg>
