<svg width="409" height="372" viewBox="0 0 409 372" fill="none" xmlns="http://www.w3.org/2000/svg">
<path d="M138.679 163.453C139.145 163.75 139.763 163.612 140.06 163.146L144.892 155.554C145.189 155.088 145.051 154.47 144.586 154.173C144.12 153.877 143.502 154.014 143.205 154.48L138.91 161.229L132.161 156.933C131.695 156.637 131.077 156.774 130.78 157.24C130.483 157.706 130.621 158.324 131.087 158.621L138.679 163.453ZM119.326 77.6875L138.24 162.826L140.192 162.393L121.278 77.2538L119.326 77.6875Z" fill="#C4A8A8"/>
<path d="M263.067 114.328C263.548 114.057 263.718 113.447 263.447 112.966L259.023 105.128C258.752 104.647 258.142 104.477 257.661 104.749C257.18 105.02 257.01 105.63 257.281 106.111L261.213 113.078L254.246 117.01C253.765 117.282 253.596 117.892 253.867 118.372C254.138 118.853 254.748 119.023 255.229 118.752L263.067 114.328ZM130.077 77.5971L262.308 114.421L262.844 112.494L130.613 75.6704L130.077 77.5971Z" fill="#FFD700"/>
<path d="M129.227 55.4874C129.157 56.0352 129.544 56.5363 130.091 56.6067L139.018 57.754C139.566 57.8244 140.067 57.4374 140.137 56.8896C140.208 56.3418 139.821 55.8407 139.273 55.7703L131.338 54.7505L132.358 46.8158C132.428 46.268 132.041 45.7669 131.494 45.6965C130.946 45.6261 130.445 46.013 130.374 46.5608L129.227 55.4874ZM279.497 119.341C272.995 93.4907 265.758 72.4016 257.21 56.343C248.664 40.2872 238.76 29.174 226.884 23.4095C214.982 17.6321 201.252 17.3005 185.222 22.4994C169.214 27.6912 150.858 38.4132 129.608 54.8234L130.83 56.4064C151.998 40.06 170.143 29.4922 185.839 24.4018C201.512 19.3185 214.687 19.7122 226.011 25.2087C237.361 30.7179 247.005 41.4271 255.445 57.2828C263.884 73.1357 271.073 94.0475 277.557 119.829L279.497 119.341Z" fill="#C4A8A8"/>
<path d="M286.171 269.023C286.578 269.396 287.21 269.368 287.584 268.961L293.663 262.325C294.036 261.918 294.009 261.285 293.601 260.912C293.194 260.539 292.562 260.567 292.189 260.974L286.784 266.873L280.886 261.469C280.478 261.095 279.846 261.123 279.473 261.53C279.1 261.938 279.127 262.57 279.535 262.943L286.171 269.023ZM279.989 134.425L285.847 268.329L287.845 268.242L281.987 134.337L279.989 134.425Z" fill="#FF7F50"/>
<path d="M273.528 294.645C273.758 294.143 273.537 293.55 273.035 293.32L264.849 289.578C264.347 289.349 263.754 289.57 263.524 290.072C263.295 290.574 263.516 291.168 264.018 291.397L271.294 294.723L267.968 301.999C267.738 302.501 267.959 303.095 268.461 303.324C268.964 303.554 269.557 303.333 269.786 302.831L273.528 294.645ZM144.921 342.869L272.968 295.167L272.27 293.293L144.223 340.995L144.921 342.869Z" fill="#FF7F50"/>
<path d="M115.553 332.907C116.102 332.967 116.596 332.571 116.656 332.022L117.641 323.076C117.701 322.527 117.305 322.033 116.756 321.973C116.207 321.913 115.713 322.309 115.653 322.858L114.778 330.81L106.826 329.934C106.277 329.874 105.783 330.27 105.722 330.819C105.662 331.368 106.058 331.862 106.607 331.922L115.553 332.907ZM30.3467 227.095L114.882 332.539L116.443 331.287L31.9072 225.844L30.3467 227.095Z" fill="#FF7F50"/>
<path d="M108.728 85.6388C108.617 85.0978 108.089 84.7492 107.548 84.8603L98.7313 86.6697C98.1903 86.7807 97.8417 87.3093 97.9528 87.8503C98.0638 88.3913 98.5924 88.7399 99.1334 88.6289L106.97 87.0205L108.578 94.8571C108.689 95.3981 109.218 95.7467 109.759 95.6357C110.3 95.5246 110.649 94.996 110.538 94.455L108.728 85.6388ZM32.4251 201.883L108.583 86.3903L106.914 85.2893L30.7554 200.782L32.4251 201.883Z" fill="#FF7F50"/>
<path d="M267.692 130.56C267.893 130.046 267.639 129.466 267.124 129.265L258.741 125.99C258.227 125.789 257.647 126.043 257.446 126.557C257.245 127.072 257.499 127.651 258.014 127.852L265.465 130.764L262.554 138.215C262.353 138.73 262.607 139.31 263.121 139.511C263.636 139.712 264.216 139.458 264.417 138.943L267.692 130.56ZM145.786 184.289L267.162 131.112L266.359 129.28L144.984 182.457L145.786 184.289Z" fill="#C3A8A8"/>
<path d="M376.543 224.941C376.639 224.397 376.276 223.878 375.733 223.782L366.871 222.212C366.327 222.116 365.808 222.479 365.711 223.022C365.615 223.566 365.978 224.085 366.522 224.181L374.399 225.577L373.004 233.454C372.907 233.998 373.27 234.517 373.814 234.613C374.358 234.71 374.877 234.347 374.973 233.803L376.543 224.941ZM289.93 285.843L376.131 225.586L374.985 223.947L288.784 284.204L289.93 285.843Z" fill="#FF7F50"/>
<path d="M39.254 208.674C38.8588 209.06 38.8511 209.693 39.2368 210.088L45.5227 216.53C45.9084 216.925 46.5415 216.933 46.9368 216.547C47.332 216.161 47.3398 215.528 46.954 215.133L41.3666 209.407L47.092 203.82C47.4873 203.434 47.495 202.801 47.1093 202.406C46.7235 202.01 46.0904 202.003 45.6952 202.388L39.254 208.674ZM390.406 212.665L39.9647 208.39L39.9403 210.39L390.382 214.665L390.406 212.665Z" fill="#FF7F50"/>
<path d="M37.7208 224.714C37.2491 225.001 37.0996 225.617 37.3868 226.088L42.0679 233.775C42.3551 234.247 42.9704 234.396 43.4421 234.109C43.9138 233.822 44.0633 233.207 43.776 232.735L39.6151 225.902L46.4479 221.741C46.9196 221.454 47.0691 220.839 46.7819 220.367C46.4946 219.895 45.8794 219.746 45.4077 220.033L37.7208 224.714ZM289.914 285.704L38.4771 224.597L38.0047 226.54L289.442 287.648L289.914 285.704Z" fill="#FF7F50"/>
<circle cx="143.849" cy="179.675" r="15.7381" fill="#C3A8A8" stroke="#C4A8A8" stroke-width="2"/>
<circle cx="279.314" cy="119.316" r="16.7381" fill="#31BA3E"/>
<circle cx="391.459" cy="213.05" r="15.7381" fill="#C3A8A8" stroke="#C4A8A8" stroke-width="2"/>
<circle cx="287.683" cy="286.697" r="16.7381" fill="#C4A8A8"/>
<circle cx="128.671" cy="345.281" r="16.7381" fill="#C4A8A8"/>
<circle cx="23.2211" cy="214.723" r="15.7381" fill="#C3A8A8" stroke="#C4A8A8" stroke-width="2"/>
<circle cx="116.955" cy="70.7762" r="16.7381" fill="#C4C4C4"/>
<path d="M298.377 90.7639C298.238 92.2018 298.985 93.6006 300.33 94.6993C301.675 95.7973 303.61 96.5867 305.815 96.8006C308.021 97.0146 310.071 96.6117 311.601 95.7925C313.133 94.973 314.135 93.7438 314.274 92.3059C314.414 90.8679 313.667 89.4691 312.321 88.3705C310.976 87.2724 309.042 86.483 306.837 86.2691C304.631 86.0552 302.581 86.4581 301.05 87.2772C299.519 88.0967 298.517 89.3259 298.377 90.7639Z" fill="#7B6C6C" stroke="#C4A8A8" stroke-width="0.2"/>
<path d="M291.939 90.1391C291.745 92.1366 293.677 93.9983 296.314 94.2541C298.95 94.5098 301.204 93.054 301.397 91.0566C301.591 89.0592 299.66 87.1974 297.023 86.9417C294.386 86.6859 292.133 88.1417 291.939 90.1391Z" fill="#7B6C6C" stroke="#C4C4C4" stroke-width="0.2"/>
<path d="M284.584 87.8003C284.39 89.7977 286.322 91.6595 288.958 91.9152C291.595 92.171 293.848 90.7152 294.042 88.7177C294.236 86.7203 292.304 84.8586 289.668 84.6028C287.031 84.3471 284.777 85.8029 284.584 87.8003Z" fill="#7B6C6C" stroke="#C4C4C4" stroke-width="0.2"/>
<circle r="4.48192" transform="matrix(-0.995328 -0.0965458 -0.0965458 0.995328 282.304 85.1426)" fill="#7B6C6C" stroke="#C4C4C4" stroke-width="0.2"/>
<path d="M278.88 88.0603C280.247 87.9221 280.971 87.7215 281.075 86.6484" stroke="black" stroke-width="0.3"/>
<path d="M308.432 94.2439C308.631 96.959 308.695 99.6211 308.141 102.287C308.012 102.91 307.944 103.561 307.741 104.166C307.618 104.532 307.261 105.621 307.298 105.236" stroke="#7B6C6C" stroke-linecap="round" stroke-linejoin="round"/>
<ellipse rx="1.34762" ry="0.808574" transform="matrix(-0.995328 -0.0965458 -0.0965458 0.995328 306.392 104.809)" fill="#7B6C6C"/>
<path d="M304.759 94.4287C304.421 95.4773 304.03 96.5071 303.71 97.5614C303.513 98.2121 303.485 98.9017 303.347 99.5646C303.2 100.271 303.111 101.308 302.749 101.884" stroke="#7B6C6C" stroke-linecap="round" stroke-linejoin="round"/>
<ellipse rx="1.34762" ry="0.808574" transform="matrix(-0.995328 -0.0965458 -0.0965458 0.995328 301.771 102.195)" fill="#7B6C6C"/>
<path d="M297.219 93.291C296.934 93.9369 296.55 94.6032 296.481 95.318C296.448 95.6633 296.414 96.0086 296.381 96.3538C296.299 97.1923 296.294 98.0079 296.27 98.8479C296.261 99.1973 296.186 99.5426 296.188 99.893C296.19 100.385 296.269 100.879 296.232 101.372C296.21 101.677 296.098 102.038 295.925 102.29C295.837 102.418 295.686 102.825 295.644 102.548" stroke="#7B6C6C" stroke-linecap="round" stroke-linejoin="round"/>
<ellipse rx="1.34762" ry="0.808574" transform="matrix(-0.995328 -0.0965458 -0.0965458 0.995328 294.745 102.055)" fill="#7B6C6C"/>
<path d="M294.096 92.514C293.815 93.5685 293.394 94.6479 293.457 95.7692C293.505 96.6276 293.521 97.5461 293.647 98.3902C293.74 99.0167 293.605 99.6707 293.544 100.298C293.509 100.667 293.335 101.136 292.976 101.274" stroke="#7B6C6C" stroke-linecap="round" stroke-linejoin="round"/>
<ellipse rx="1.34762" ry="0.808574" transform="matrix(-0.995328 -0.0965458 -0.0965458 0.995328 292.166 100.722)" fill="#7B6C6C"/>
<path d="M288.704 91.0439C288.349 91.615 287.961 92.1839 287.655 92.7851C287.475 93.141 287.348 93.523 287.144 93.8675C286.795 94.4591 286.583 95.1182 286.254 95.7181C285.821 96.5074 285.708 97.4069 285.239 98.1545" stroke="#7B6C6C" stroke-linecap="round" stroke-linejoin="round"/>
<ellipse rx="1.34762" ry="0.808574" transform="matrix(-0.995328 -0.0965458 -0.0965458 0.995328 284.326 97.7948)" fill="#7B6C6C"/>
<path d="M286.422 90.1455C285.681 91.6193 284.349 92.7217 283.734 94.2851C283.512 94.8492 283.157 95.3435 282.938 95.9003C282.833 96.1658 282.6 96.3876 282.539 96.674C282.527 96.7325 282.458 96.7809 282.423 96.8319C282.327 96.9701 282.407 96.6477 282.412 96.5939" stroke="#7B6C6C" stroke-linecap="round" stroke-linejoin="round"/>
<ellipse rx="1.34762" ry="0.808574" transform="matrix(-0.995328 -0.0965458 -0.0965458 0.995328 281.546 96.4423)" fill="#7B6C6C"/>
<path d="M282.394 81.6308C282.538 78.7939 283.12 77.6131 285.564 76.6572" stroke="#7B6C6C"/>
<path d="M280.228 81.4207C280.389 78.4073 280.981 77.1501 283.45 76.1221" stroke="#7B6C6C"/>
<ellipse rx="0.808574" ry="0.492786" transform="matrix(-0.995328 -0.0965458 -0.0965458 0.995328 283.197 75.9329)" fill="#C4C4C4"/>
<ellipse rx="0.808574" ry="0.492786" transform="matrix(-0.995328 -0.0965458 -0.0965458 0.995328 285.848 76.5198)" fill="#C4C4C4"/>
<circle r="1.0281" transform="matrix(-0.995328 -0.0965458 -0.0965458 0.995328 280.556 83.6194)" fill="#C4C4C4" stroke="black" stroke-width="0.1"/>
<g filter="url(#filter0_f)">
<path d="M302.866 86.9252C305.059 86.3418 306.525 86.576 309.031 87.2414C309.266 87.304 309.422 87.5288 309.399 87.7716L309.334 88.434C309.306 88.7313 309.024 88.9365 308.73 88.8788C306.661 88.472 305.322 88.4523 303.335 88.905C303.056 88.9685 302.776 88.793 302.72 88.5124L302.517 87.495C302.467 87.2423 302.617 86.9915 302.866 86.9252Z" fill="#C9D1D9"/>
</g>
<g filter="url(#filter1_f)">
<path d="M296.2 87.4295C297.574 87.3443 298.441 87.5897 299.682 88.4221C299.877 88.5525 299.947 88.8038 299.856 89.0194L299.714 89.3562C299.595 89.6382 299.254 89.7465 298.987 89.5977C298.033 89.0671 297.296 88.8484 296.215 88.8333C295.903 88.829 295.655 88.5588 295.697 88.2497L295.752 87.8522C295.784 87.623 295.969 87.4438 296.2 87.4295Z" fill="#C9D1D9"/>
</g>
<g filter="url(#filter2_f)">
<path d="M289.476 85.1727C290.859 85.331 291.683 85.7271 292.783 86.7709C292.953 86.9324 292.98 87.1927 292.853 87.3902L292.656 87.698C292.491 87.9553 292.137 88.0043 291.899 87.8127C291.031 87.1139 290.33 86.7664 289.247 86.5605C288.942 86.5026 288.745 86.1961 288.838 85.9L288.959 85.5146C289.029 85.2923 289.244 85.1462 289.476 85.1727Z" fill="#C9D1D9"/>
</g>
<circle r="0.53905" transform="matrix(-0.995328 -0.0965458 -0.0965458 0.995328 280.395 83.6036)" fill="black"/>
<defs>
<filter id="filter0_f" x="298.507" y="82.5928" width="14.8937" height="10.3253" filterUnits="userSpaceOnUse" color-interpolation-filters="sRGB">
<feFlood flood-opacity="0" result="BackgroundImageFix"/>
<feBlend mode="normal" in="SourceGraphic" in2="BackgroundImageFix" result="shape"/>
<feGaussianBlur stdDeviation="2" result="effect1_foregroundBlur"/>
</filter>
<filter id="filter1_f" x="291.693" y="83.4131" width="12.2031" height="10.251" filterUnits="userSpaceOnUse" color-interpolation-filters="sRGB">
<feFlood flood-opacity="0" result="BackgroundImageFix"/>
<feBlend mode="normal" in="SourceGraphic" in2="BackgroundImageFix" result="shape"/>
<feGaussianBlur stdDeviation="2" result="effect1_foregroundBlur"/>
</filter>
<filter id="filter2_f" x="284.815" y="81.1699" width="12.1172" height="10.7597" filterUnits="userSpaceOnUse" color-interpolation-filters="sRGB">
<feFlood flood-opacity="0" result="BackgroundImageFix"/>
<feBlend mode="normal" in="SourceGraphic" in2="BackgroundImageFix" result="shape"/>
<feGaussianBlur stdDeviation="2" result="effect1_foregroundBlur"/>
</filter>
</defs>
</svg>
