<svg width="409" height="427" viewBox="0 0 409 427" fill="none" xmlns="http://www.w3.org/2000/svg">
<path d="M10.7031 19V7.70312H12.1484L15.9531 14.0156L19.7969 7.70312H21.1875V19H19.7031V10.2422L16.5391 15.4219H15.375L12.2031 10.2734V19H10.7031ZM24.3438 19V10.7188H25.8125V11.8906C26 11.3802 26.5078 11.0104 27.3359 10.7812C27.7682 10.6562 28.2188 10.5964 28.6875 10.6016L28.6406 11.8594C27.9323 11.8594 27.2839 12 26.6953 12.2812C26.1068 12.5625 25.8125 12.8698 25.8125 13.2031V19H24.3438ZM32.7734 19.1719C31.9349 19.1719 31.2839 18.9453 30.8203 18.4922C30.3568 18.0339 30.125 17.4661 30.125 16.7891C30.125 16.4036 30.2057 16.0833 30.3672 15.8281C30.6953 15.3073 31.6745 14.8099 33.3047 14.3359C34.2474 14.0755 34.7891 13.8516 34.9297 13.6641C35.0755 13.4766 35.1562 13.3307 35.1719 13.2266C35.1875 13.1172 35.1953 12.9453 35.1953 12.7109C35.1953 12.4766 35.099 12.2474 34.9062 12.0234C34.7188 11.7995 34.3073 11.6875 33.6719 11.6875C32.776 11.6875 32.2266 11.8594 32.0234 12.2031C31.9193 12.3802 31.8672 12.6198 31.8672 12.9219V13.2891H30.4531V12.9141C30.4531 12.1068 30.7214 11.513 31.2578 11.1328C31.7995 10.7526 32.6068 10.5625 33.6797 10.5625C34.7526 10.5625 35.5182 10.8073 35.9766 11.2969C36.4349 11.7812 36.6641 12.474 36.6641 13.375V16.9062C36.6641 17.3385 36.7188 17.6198 36.8281 17.75C36.9375 17.875 37.1719 17.9375 37.5312 17.9375L37.3594 19.0625H37.0625C36.5417 19.0625 36.1536 18.9635 35.8984 18.7656C35.6432 18.5625 35.4479 18.25 35.3125 17.8281C34.8802 18.474 34.3594 18.8802 33.75 19.0469C33.4583 19.1302 33.1328 19.1719 32.7734 19.1719ZM33.5078 15.3438C32.7682 15.5573 32.2552 15.7708 31.9688 15.9844C31.6875 16.1979 31.5469 16.5 31.5469 16.8906C31.5469 17.276 31.6771 17.5677 31.9375 17.7656C32.2031 17.9635 32.5208 18.0625 32.8906 18.0625C33.2656 18.0625 33.6042 18.0156 33.9062 17.9219C34.2083 17.8229 34.4792 17.6797 34.7188 17.4922C34.9635 17.2995 35.1224 17.0807 35.1953 16.8359V14.4453C34.8151 14.8255 34.2526 15.125 33.5078 15.3438ZM41.9297 19L38.7188 10.7188H40.1953L42.6875 17.4375L44.9062 10.7188H46.3438L43.4141 19H41.9297ZM55.4609 10.5625C56.1276 10.5625 56.7396 10.6667 57.2969 10.875V7.23438H58.7656V19H57.7656L57.5234 18.4531C57.2682 18.651 56.9323 18.8203 56.5156 18.9609C56.099 19.1016 55.6875 19.1719 55.2812 19.1719C54.151 19.1719 53.3203 18.9219 52.7891 18.4219C52.263 17.9167 52 17.237 52 16.3828V13.2578C52 12.3984 52.2839 11.7344 52.8516 11.2656C53.4193 10.7969 54.2891 10.5625 55.4609 10.5625ZM53.4688 16.4922C53.4688 16.987 53.6432 17.3646 53.9922 17.625C54.3464 17.8854 54.7604 18.0156 55.2344 18.0156C56.0781 18.0156 56.7656 17.8516 57.2969 17.5234V12.0312C56.8229 11.8021 56.2474 11.6875 55.5703 11.6875C54.1693 11.6875 53.4688 12.1562 53.4688 13.0938V16.4922ZM62.8438 16.6641C62.8438 17.5859 63.4974 18.0469 64.8047 18.0469C66.112 18.0469 66.7656 17.5859 66.7656 16.6641V13.0781C66.7656 12.151 66.112 11.6875 64.8047 11.6875C63.4974 11.6875 62.8438 12.151 62.8438 13.0781V16.6641ZM68.2344 16.5391C68.2344 17.3516 67.9557 17.9948 67.3984 18.4688C66.8464 18.9375 65.9792 19.1719 64.7969 19.1719C63.6146 19.1719 62.7474 18.9375 62.1953 18.4688C61.6484 18 61.375 17.3568 61.375 16.5391V13.2031C61.375 12.3854 61.6484 11.7422 62.1953 11.2734C62.7474 10.7995 63.6146 10.5625 64.7969 10.5625C65.9792 10.5625 66.8464 10.7995 67.3984 11.2734C67.9557 11.7474 68.2344 12.3906 68.2344 13.2031V16.5391ZM73.5312 19.0625C73.0469 19.0625 72.651 19.026 72.3438 18.9531C72.0365 18.8802 71.7656 18.7422 71.5312 18.5391C71.0938 18.1589 70.875 17.3802 70.875 16.2031V7.24219H72.3438V16.2188C72.3438 16.8854 72.4427 17.3203 72.6406 17.5234C72.8385 17.7266 73.2474 17.8281 73.8672 17.8281H74.125L73.9531 19.0625H73.5312ZM78.5078 19.1719C77.6693 19.1719 77.0182 18.9453 76.5547 18.4922C76.0911 18.0339 75.8594 17.4661 75.8594 16.7891C75.8594 16.4036 75.9401 16.0833 76.1016 15.8281C76.4297 15.3073 77.4089 14.8099 79.0391 14.3359C79.9818 14.0755 80.5234 13.8516 80.6641 13.6641C80.8099 13.4766 80.8906 13.3307 80.9062 13.2266C80.9219 13.1172 80.9297 12.9453 80.9297 12.7109C80.9297 12.4766 80.8333 12.2474 80.6406 12.0234C80.4531 11.7995 80.0417 11.6875 79.4062 11.6875C78.5104 11.6875 77.9609 11.8594 77.7578 12.2031C77.6536 12.3802 77.6016 12.6198 77.6016 12.9219V13.2891H76.1875V12.9141C76.1875 12.1068 76.4557 11.513 76.9922 11.1328C77.5339 10.7526 78.3411 10.5625 79.4141 10.5625C80.487 10.5625 81.2526 10.8073 81.7109 11.2969C82.1693 11.7812 82.3984 12.474 82.3984 13.375V16.9062C82.3984 17.3385 82.4531 17.6198 82.5625 17.75C82.6719 17.875 82.9062 17.9375 83.2656 17.9375L83.0938 19.0625H82.7969C82.276 19.0625 81.888 18.9635 81.6328 18.7656C81.3776 18.5625 81.1823 18.25 81.0469 17.8281C80.6146 18.474 80.0938 18.8802 79.4844 19.0469C79.1927 19.1302 78.8672 19.1719 78.5078 19.1719ZM79.2422 15.3438C78.5026 15.5573 77.9896 15.7708 77.7031 15.9844C77.4219 16.1979 77.2812 16.5 77.2812 16.8906C77.2812 17.276 77.4115 17.5677 77.6719 17.7656C77.9375 17.9635 78.2552 18.0625 78.625 18.0625C79 18.0625 79.3385 18.0156 79.6406 17.9219C79.9427 17.8229 80.2135 17.6797 80.4531 17.4922C80.6979 17.2995 80.8568 17.0807 80.9297 16.8359V14.4453C80.5495 14.8255 79.987 15.125 79.2422 15.3438ZM85.0781 19V18.0781L89.0391 11.6875H85.2188V10.7188H90.5859V11.6172L86.6016 18.0312H90.6562V19H85.0781ZM93.125 19V10.7188H94.5938V19H93.125ZM93.125 9.22656V7.70312H94.5938V9.22656H93.125ZM104.789 10.5625C105.456 10.5625 106.068 10.6667 106.625 10.875V7.23438H108.094V19H107.094L106.852 18.4531C106.596 18.651 106.26 18.8203 105.844 18.9609C105.427 19.1016 105.016 19.1719 104.609 19.1719C103.479 19.1719 102.648 18.9219 102.117 18.4219C101.591 17.9167 101.328 17.237 101.328 16.3828V13.2578C101.328 12.3984 101.612 11.7344 102.18 11.2656C102.747 10.7969 103.617 10.5625 104.789 10.5625ZM102.797 16.4922C102.797 16.987 102.971 17.3646 103.32 17.625C103.674 17.8854 104.089 18.0156 104.562 18.0156C105.406 18.0156 106.094 17.8516 106.625 17.5234V12.0312C106.151 11.8021 105.576 11.6875 104.898 11.6875C103.497 11.6875 102.797 12.1562 102.797 13.0938V16.4922ZM112.172 16.6641C112.172 17.5859 112.826 18.0469 114.133 18.0469C115.44 18.0469 116.094 17.5859 116.094 16.6641V13.0781C116.094 12.151 115.44 11.6875 114.133 11.6875C112.826 11.6875 112.172 12.151 112.172 13.0781V16.6641ZM117.562 16.5391C117.562 17.3516 117.284 17.9948 116.727 18.4688C116.174 18.9375 115.307 19.1719 114.125 19.1719C112.943 19.1719 112.076 18.9375 111.523 18.4688C110.977 18 110.703 17.3568 110.703 16.5391V13.2031C110.703 12.3854 110.977 11.7422 111.523 11.2734C112.076 10.7995 112.943 10.5625 114.125 10.5625C115.307 10.5625 116.174 10.7995 116.727 11.2734C117.284 11.7474 117.562 12.3906 117.562 13.2031V16.5391ZM126.539 9.28906L124.938 7.21094H126.148L127.117 8.57031L128.148 7.21094H129.406L127.711 9.28906H126.539ZM127.242 19.1719C125.549 19.1719 124.49 18.5833 124.062 17.4062C123.938 17.0729 123.875 16.7083 123.875 16.3125V13.1562C123.875 12.3698 124.174 11.7422 124.773 11.2734C125.372 10.7995 126.182 10.5625 127.203 10.5625C128.505 10.5625 129.401 10.8438 129.891 11.4062C130.276 11.8438 130.469 12.4896 130.469 13.3438L129.07 13.4766C129.07 12.737 128.938 12.2552 128.672 12.0312C128.411 11.8021 127.945 11.6875 127.273 11.6875C126.602 11.6875 126.112 11.8047 125.805 12.0391C125.497 12.2734 125.344 12.6589 125.344 13.1953V16.4375C125.344 17.0104 125.505 17.4219 125.828 17.6719C126.151 17.9219 126.648 18.0469 127.32 18.0469C127.997 18.0469 128.448 17.9583 128.672 17.7812C128.901 17.6042 129.042 17.2031 129.094 16.5781H130.453C130.37 17.5365 130.094 18.2083 129.625 18.5938C129.156 18.9792 128.362 19.1719 127.242 19.1719ZM135.102 19L131.891 10.7188H133.367L135.859 17.4375L138.078 10.7188H139.516L136.586 19H135.102ZM142.641 16.6641C142.641 17.5859 143.294 18.0469 144.602 18.0469C145.909 18.0469 146.562 17.5859 146.562 16.6641V13.0781C146.562 12.151 145.909 11.6875 144.602 11.6875C143.294 11.6875 142.641 12.151 142.641 13.0781V16.6641ZM148.031 16.5391C148.031 17.3516 147.753 17.9948 147.195 18.4688C146.643 18.9375 145.776 19.1719 144.594 19.1719C143.411 19.1719 142.544 18.9375 141.992 18.4688C141.445 18 141.172 17.3568 141.172 16.5391V13.2031C141.172 12.3854 141.445 11.7422 141.992 11.2734C142.544 10.7995 143.411 10.5625 144.594 10.5625C145.776 10.5625 146.643 10.7995 147.195 11.2734C147.753 11.7474 148.031 12.3906 148.031 13.2031V16.5391ZM150.641 19V10.7188H152.109V11.8906C152.297 11.3802 152.805 11.0104 153.633 10.7812C154.065 10.6562 154.516 10.5964 154.984 10.6016L154.938 11.8594C154.229 11.8594 153.581 12 152.992 12.2812C152.404 12.5625 152.109 12.8698 152.109 13.2031V19H150.641ZM159.07 19.1719C158.232 19.1719 157.581 18.9453 157.117 18.4922C156.654 18.0339 156.422 17.4661 156.422 16.7891C156.422 16.4036 156.503 16.0833 156.664 15.8281C156.992 15.3073 157.971 14.8099 159.602 14.3359C160.544 14.0755 161.086 13.8516 161.227 13.6641C161.372 13.4766 161.453 13.3307 161.469 13.2266C161.484 13.1172 161.492 12.9453 161.492 12.7109C161.492 12.4766 161.396 12.2474 161.203 12.0234C161.016 11.7995 160.604 11.6875 159.969 11.6875C159.073 11.6875 158.523 11.8594 158.32 12.2031C158.216 12.3802 158.164 12.6198 158.164 12.9219V13.2891H156.75V12.9141C156.75 12.1068 157.018 11.513 157.555 11.1328C158.096 10.7526 158.904 10.5625 159.977 10.5625C161.049 10.5625 161.815 10.8073 162.273 11.2969C162.732 11.7812 162.961 12.474 162.961 13.375V16.9062C162.961 17.3385 163.016 17.6198 163.125 17.75C163.234 17.875 163.469 17.9375 163.828 17.9375L163.656 19.0625H163.359C162.839 19.0625 162.451 18.9635 162.195 18.7656C161.94 18.5625 161.745 18.25 161.609 17.8281C161.177 18.474 160.656 18.8802 160.047 19.0469C159.755 19.1302 159.43 19.1719 159.07 19.1719ZM159.805 15.3438C159.065 15.5573 158.552 15.7708 158.266 15.9844C157.984 16.1979 157.844 16.5 157.844 16.8906C157.844 17.276 157.974 17.5677 158.234 17.7656C158.5 17.9635 158.818 18.0625 159.188 18.0625C159.562 18.0625 159.901 18.0156 160.203 17.9219C160.505 17.8229 160.776 17.6797 161.016 17.4922C161.26 17.2995 161.419 17.0807 161.492 16.8359V14.4453C161.112 14.8255 160.549 15.125 159.805 15.3438ZM171.172 16.6641C171.172 17.5859 171.826 18.0469 173.133 18.0469C174.44 18.0469 175.094 17.5859 175.094 16.6641V13.0781C175.094 12.151 174.44 11.6875 173.133 11.6875C171.826 11.6875 171.172 12.151 171.172 13.0781V16.6641ZM176.562 16.5391C176.562 17.3516 176.284 17.9948 175.727 18.4688C175.174 18.9375 174.307 19.1719 173.125 19.1719C171.943 19.1719 171.076 18.9375 170.523 18.4688C169.977 18 169.703 17.3568 169.703 16.5391V13.2031C169.703 12.3854 169.977 11.7422 170.523 11.2734C171.076 10.7995 171.943 10.5625 173.125 10.5625C174.307 10.5625 175.174 10.7995 175.727 11.2734C176.284 11.7474 176.562 12.3906 176.562 13.2031V16.5391ZM182.336 10.5625C183.003 10.5625 183.615 10.6667 184.172 10.875V7.23438H185.641V19H184.641L184.398 18.4531C184.143 18.651 183.807 18.8203 183.391 18.9609C182.974 19.1016 182.562 19.1719 182.156 19.1719C181.026 19.1719 180.195 18.9219 179.664 18.4219C179.138 17.9167 178.875 17.237 178.875 16.3828V13.2578C178.875 12.3984 179.159 11.7344 179.727 11.2656C180.294 10.7969 181.164 10.5625 182.336 10.5625ZM180.344 16.4922C180.344 16.987 180.518 17.3646 180.867 17.625C181.221 17.8854 181.635 18.0156 182.109 18.0156C182.953 18.0156 183.641 17.8516 184.172 17.5234V12.0312C183.698 11.8021 183.122 11.6875 182.445 11.6875C181.044 11.6875 180.344 12.1562 180.344 13.0938V16.4922ZM190.773 19.1719C189.935 19.1719 189.284 18.9453 188.82 18.4922C188.357 18.0339 188.125 17.4661 188.125 16.7891C188.125 16.4036 188.206 16.0833 188.367 15.8281C188.695 15.3073 189.674 14.8099 191.305 14.3359C192.247 14.0755 192.789 13.8516 192.93 13.6641C193.076 13.4766 193.156 13.3307 193.172 13.2266C193.188 13.1172 193.195 12.9453 193.195 12.7109C193.195 12.4766 193.099 12.2474 192.906 12.0234C192.719 11.7995 192.307 11.6875 191.672 11.6875C190.776 11.6875 190.227 11.8594 190.023 12.2031C189.919 12.3802 189.867 12.6198 189.867 12.9219V13.2891H188.453V12.9141C188.453 12.1068 188.721 11.513 189.258 11.1328C189.799 10.7526 190.607 10.5625 191.68 10.5625C192.753 10.5625 193.518 10.8073 193.977 11.2969C194.435 11.7812 194.664 12.474 194.664 13.375V16.9062C194.664 17.3385 194.719 17.6198 194.828 17.75C194.938 17.875 195.172 17.9375 195.531 17.9375L195.359 19.0625H195.062C194.542 19.0625 194.154 18.9635 193.898 18.7656C193.643 18.5625 193.448 18.25 193.312 17.8281C192.88 18.474 192.359 18.8802 191.75 19.0469C191.458 19.1302 191.133 19.1719 190.773 19.1719ZM191.508 15.3438C190.768 15.5573 190.255 15.7708 189.969 15.9844C189.688 16.1979 189.547 16.5 189.547 16.8906C189.547 17.276 189.677 17.5677 189.938 17.7656C190.203 17.9635 190.521 18.0625 190.891 18.0625C191.266 18.0625 191.604 18.0156 191.906 17.9219C192.208 17.8229 192.479 17.6797 192.719 17.4922C192.964 17.2995 193.122 17.0807 193.195 16.8359V14.4453C192.815 14.8255 192.253 15.125 191.508 15.3438ZM197.703 19V7.23438H199.172V14.9062L203.133 10.7188H204.742L201.375 14.3594L205.078 19H203.383L200.414 15.1562L199.172 16.3906V19H197.703ZM209.391 19.0625C208.906 19.0625 208.51 19.026 208.203 18.9531C207.896 18.8802 207.625 18.7422 207.391 18.5391C206.953 18.1589 206.734 17.3802 206.734 16.2031V7.24219H208.203V16.2188C208.203 16.8854 208.302 17.3203 208.5 17.5234C208.698 17.7266 209.107 17.8281 209.727 17.8281H209.984L209.812 19.0625H209.391ZM215.289 19.1719C214.076 19.1719 213.198 18.9193 212.656 18.4141C212.115 17.9089 211.844 17.1302 211.844 16.0781V13.1953C211.844 12.3776 212.122 11.7344 212.68 11.2656C213.237 10.7969 214.078 10.5625 215.203 10.5625C216.333 10.5625 217.172 10.7812 217.719 11.2188C218.271 11.651 218.547 12.2708 218.547 13.0781V15.0469H213.312V16.2109C213.312 16.8984 213.451 17.3776 213.727 17.6484C214.003 17.9141 214.5 18.0469 215.219 18.0469C215.938 18.0469 216.344 18.0312 216.438 18C216.531 17.9688 216.628 17.9323 216.727 17.8906C216.826 17.849 216.893 17.7995 216.93 17.7422C216.971 17.6849 217.023 17.599 217.086 17.4844C217.154 17.3646 217.203 17.1354 217.234 16.7969H218.531C218.479 17.2917 218.391 17.6901 218.266 17.9922C218.146 18.2943 217.953 18.5365 217.688 18.7188C217.427 18.8958 217.112 19.0156 216.742 19.0781C216.378 19.1406 215.893 19.1719 215.289 19.1719ZM213.312 14.0547H217.125V12.9219C217.125 12.4531 216.964 12.1302 216.641 11.9531C216.323 11.776 215.854 11.6875 215.234 11.6875C214.615 11.6875 214.138 11.7943 213.805 12.0078C213.477 12.2214 213.312 12.5729 213.312 13.0625V14.0547ZM223.984 21.7578L223.836 20.5391H224.062C224.594 20.5391 224.948 20.4688 225.125 20.3281C225.302 20.1927 225.417 20.0234 225.469 19.8203C225.521 19.6224 225.547 19.3594 225.547 19.0312V10.7188H227.016V18.9453C227.016 20.3047 226.703 21.1458 226.078 21.4688C225.708 21.6615 225.182 21.7578 224.5 21.7578H223.984ZM225.547 9.22656V7.70312H227.016V9.22656H225.547ZM233.039 19.1719C231.826 19.1719 230.948 18.9193 230.406 18.4141C229.865 17.9089 229.594 17.1302 229.594 16.0781V13.1953C229.594 12.3776 229.872 11.7344 230.43 11.2656C230.987 10.7969 231.828 10.5625 232.953 10.5625C234.083 10.5625 234.922 10.7812 235.469 11.2188C236.021 11.651 236.297 12.2708 236.297 13.0781V15.0469H231.062V16.2109C231.062 16.8984 231.201 17.3776 231.477 17.6484C231.753 17.9141 232.25 18.0469 232.969 18.0469C233.688 18.0469 234.094 18.0312 234.188 18C234.281 17.9688 234.378 17.9323 234.477 17.8906C234.576 17.849 234.643 17.7995 234.68 17.7422C234.721 17.6849 234.773 17.599 234.836 17.4844C234.904 17.3646 234.953 17.1354 234.984 16.7969H236.281C236.229 17.2917 236.141 17.6901 236.016 17.9922C235.896 18.2943 235.703 18.5365 235.438 18.7188C235.177 18.8958 234.862 19.0156 234.492 19.0781C234.128 19.1406 233.643 19.1719 233.039 19.1719ZM231.062 14.0547H234.875V12.9219C234.875 12.4531 234.714 12.1302 234.391 11.9531C234.073 11.776 233.604 11.6875 232.984 11.6875C232.365 11.6875 231.888 11.7943 231.555 12.0078C231.227 12.2214 231.062 12.5729 231.062 13.0625V14.0547ZM242.938 22.1875V10.7188H244.094L244.266 11.3438C244.505 11.1302 244.833 10.9479 245.25 10.7969C245.667 10.6406 246.099 10.5625 246.547 10.5625C247.573 10.5625 248.352 10.8125 248.883 11.3125C249.419 11.8125 249.688 12.4766 249.688 13.3047V16.3125C249.688 17.1667 249.396 17.8568 248.812 18.3828C248.229 18.9089 247.411 19.1719 246.359 19.1719C245.63 19.1719 244.979 19.026 244.406 18.7344V22.1875H242.938ZM244.406 17.6016C244.932 17.8984 245.521 18.0469 246.172 18.0469C246.823 18.0469 247.326 17.9089 247.68 17.6328C248.039 17.3568 248.219 16.9688 248.219 16.4688V13.1875C248.219 12.7083 248.042 12.3385 247.688 12.0781C247.339 11.8177 246.909 11.6875 246.398 11.6875C245.893 11.6875 245.461 11.7917 245.102 12C244.747 12.2083 244.516 12.3958 244.406 12.5625V17.6016ZM253.469 16.6641C253.469 17.5859 254.122 18.0469 255.43 18.0469C256.737 18.0469 257.391 17.5859 257.391 16.6641V13.0781C257.391 12.151 256.737 11.6875 255.43 11.6875C254.122 11.6875 253.469 12.151 253.469 13.0781V16.6641ZM258.859 16.5391C258.859 17.3516 258.581 17.9948 258.023 18.4688C257.471 18.9375 256.604 19.1719 255.422 19.1719C254.24 19.1719 253.372 18.9375 252.82 18.4688C252.273 18 252 17.3568 252 16.5391V13.2031C252 12.3854 252.273 11.7422 252.82 11.2734C253.372 10.7995 254.24 10.5625 255.422 10.5625C256.604 10.5625 257.471 10.7995 258.023 11.2734C258.581 11.7474 258.859 12.3906 258.859 13.2031V16.5391ZM263.836 9.28906L262.234 7.21094H263.445L264.414 8.57031L265.445 7.21094H266.703L265.008 9.28906H263.836ZM264.539 19.1719C262.846 19.1719 261.786 18.5833 261.359 17.4062C261.234 17.0729 261.172 16.7083 261.172 16.3125V13.1562C261.172 12.3698 261.471 11.7422 262.07 11.2734C262.669 10.7995 263.479 10.5625 264.5 10.5625C265.802 10.5625 266.698 10.8438 267.188 11.4062C267.573 11.8438 267.766 12.4896 267.766 13.3438L266.367 13.4766C266.367 12.737 266.234 12.2552 265.969 12.0312C265.708 11.8021 265.242 11.6875 264.57 11.6875C263.898 11.6875 263.409 11.8047 263.102 12.0391C262.794 12.2734 262.641 12.6589 262.641 13.1953V16.4375C262.641 17.0104 262.802 17.4219 263.125 17.6719C263.448 17.9219 263.945 18.0469 264.617 18.0469C265.294 18.0469 265.745 17.9583 265.969 17.7812C266.198 17.6042 266.339 17.2031 266.391 16.5781H267.75C267.667 17.5365 267.391 18.2083 266.922 18.5938C266.453 18.9792 265.659 19.1719 264.539 19.1719ZM273.289 19.1719C272.076 19.1719 271.198 18.9193 270.656 18.4141C270.115 17.9089 269.844 17.1302 269.844 16.0781V13.1953C269.844 12.3776 270.122 11.7344 270.68 11.2656C271.237 10.7969 272.078 10.5625 273.203 10.5625C274.333 10.5625 275.172 10.7812 275.719 11.2188C276.271 11.651 276.547 12.2708 276.547 13.0781V15.0469H271.312V16.2109C271.312 16.8984 271.451 17.3776 271.727 17.6484C272.003 17.9141 272.5 18.0469 273.219 18.0469C273.938 18.0469 274.344 18.0312 274.438 18C274.531 17.9688 274.628 17.9323 274.727 17.8906C274.826 17.849 274.893 17.7995 274.93 17.7422C274.971 17.6849 275.023 17.599 275.086 17.4844C275.154 17.3646 275.203 17.1354 275.234 16.7969H276.531C276.479 17.2917 276.391 17.6901 276.266 17.9922C276.146 18.2943 275.953 18.5365 275.688 18.7188C275.427 18.8958 275.112 19.0156 274.742 19.0781C274.378 19.1406 273.893 19.1719 273.289 19.1719ZM271.312 14.0547H275.125V12.9219C275.125 12.4531 274.964 12.1302 274.641 11.9531C274.323 11.776 273.854 11.6875 273.234 11.6875C272.615 11.6875 272.138 11.7943 271.805 12.0078C271.477 12.2214 271.312 12.5729 271.312 13.0625V14.0547ZM280.359 16.6641C280.359 17.5859 281.013 18.0469 282.32 18.0469C283.628 18.0469 284.281 17.5859 284.281 16.6641V13.0781C284.281 12.151 283.628 11.6875 282.32 11.6875C281.013 11.6875 280.359 12.151 280.359 13.0781V16.6641ZM285.75 16.5391C285.75 17.3516 285.471 17.9948 284.914 18.4688C284.362 18.9375 283.495 19.1719 282.312 19.1719C281.13 19.1719 280.263 18.9375 279.711 18.4688C279.164 18 278.891 17.3568 278.891 16.5391V13.2031C278.891 12.3854 279.164 11.7422 279.711 11.2734C280.263 10.7995 281.13 10.5625 282.312 10.5625C283.495 10.5625 284.362 10.7995 284.914 11.2734C285.471 11.7474 285.75 12.3906 285.75 13.2031V16.5391ZM288.359 19V17.1094H290.359V19H288.359ZM297.297 19V17.8281H299.453V8.86719H297.297V7.70312H303.172V8.86719H301.023V17.8281H303.172V19H297.297ZM305.75 19V18.0781L309.711 11.6875H305.891V10.7188H311.258V11.6172L307.273 18.0312H311.328V19H305.75ZM316.328 19.0625C315.844 19.0625 315.448 19.026 315.141 18.9531C314.833 18.8802 314.562 18.7422 314.328 18.5391C313.891 18.1589 313.672 17.3802 313.672 16.2031V7.24219H315.141V16.2188C315.141 16.8854 315.24 17.3203 315.438 17.5234C315.635 17.7266 316.044 17.8281 316.664 17.8281H316.922L316.75 19.0625H316.328ZM321.305 19.1719C320.466 19.1719 319.815 18.9453 319.352 18.4922C318.888 18.0339 318.656 17.4661 318.656 16.7891C318.656 16.4036 318.737 16.0833 318.898 15.8281C319.227 15.3073 320.206 14.8099 321.836 14.3359C322.779 14.0755 323.32 13.8516 323.461 13.6641C323.607 13.4766 323.688 13.3307 323.703 13.2266C323.719 13.1172 323.727 12.9453 323.727 12.7109C323.727 12.4766 323.63 12.2474 323.438 12.0234C323.25 11.7995 322.839 11.6875 322.203 11.6875C321.307 11.6875 320.758 11.8594 320.555 12.2031C320.451 12.3802 320.398 12.6198 320.398 12.9219V13.2891H318.984V12.9141C318.984 12.1068 319.253 11.513 319.789 11.1328C320.331 10.7526 321.138 10.5625 322.211 10.5625C323.284 10.5625 324.049 10.8073 324.508 11.2969C324.966 11.7812 325.195 12.474 325.195 13.375V16.9062C325.195 17.3385 325.25 17.6198 325.359 17.75C325.469 17.875 325.703 17.9375 326.062 17.9375L325.891 19.0625H325.594C325.073 19.0625 324.685 18.9635 324.43 18.7656C324.174 18.5625 323.979 18.25 323.844 17.8281C323.411 18.474 322.891 18.8802 322.281 19.0469C321.99 19.1302 321.664 19.1719 321.305 19.1719ZM322.039 15.3438C321.299 15.5573 320.786 15.7708 320.5 15.9844C320.219 16.1979 320.078 16.5 320.078 16.8906C320.078 17.276 320.208 17.5677 320.469 17.7656C320.734 17.9635 321.052 18.0625 321.422 18.0625C321.797 18.0625 322.135 18.0156 322.438 17.9219C322.74 17.8229 323.01 17.6797 323.25 17.4922C323.495 17.2995 323.654 17.0807 323.727 16.8359V14.4453C323.346 14.8255 322.784 15.125 322.039 15.3438ZM327.875 19V18.0781L331.836 11.6875H328.016V10.7188H333.383V11.6172L329.398 18.0312H333.453V19H327.875ZM335.922 19V10.7188H337.391V19H335.922ZM335.922 9.22656V7.70312H337.391V9.22656H335.922ZM344.578 19V10.7188H346.047V19H344.578ZM344.578 9.22656V7.70312H346.047V9.22656H344.578ZM348.719 19V18.0781L352.68 11.6875H348.859V10.7188H354.227V11.6172L350.242 18.0312H354.297V19H348.719ZM364.438 19.0625C363.281 19.0625 362.445 18.8802 361.93 18.5156C361.419 18.151 361.164 17.5234 361.164 16.6328V11.8281H359.781V10.7188H361.219L361.398 8.15625H362.633V10.7188H364.711V11.8281H362.633V16.5391C362.633 17.0599 362.781 17.4062 363.078 17.5781C363.38 17.7448 363.904 17.8281 364.648 17.8281H364.812L364.656 19.0625H364.438ZM368.344 16.6641C368.344 17.5859 368.997 18.0469 370.305 18.0469C371.612 18.0469 372.266 17.5859 372.266 16.6641V13.0781C372.266 12.151 371.612 11.6875 370.305 11.6875C368.997 11.6875 368.344 12.151 368.344 13.0781V16.6641ZM373.734 16.5391C373.734 17.3516 373.456 17.9948 372.898 18.4688C372.346 18.9375 371.479 19.1719 370.297 19.1719C369.115 19.1719 368.247 18.9375 367.695 18.4688C367.148 18 366.875 17.3568 366.875 16.5391V13.2031C366.875 12.3854 367.148 11.7422 367.695 11.2734C368.247 10.7995 369.115 10.5625 370.297 10.5625C371.479 10.5625 372.346 10.7995 372.898 11.2734C373.456 11.7474 373.734 12.3906 373.734 13.2031V16.5391ZM377.195 20.7734C377.737 20.9714 378.401 21.0703 379.188 21.0703C379.974 21.0703 380.523 20.9219 380.836 20.625C381.154 20.3281 381.312 19.8672 381.312 19.2422V18.0938C381.099 18.2917 380.779 18.4401 380.352 18.5391C379.93 18.638 379.542 18.6875 379.188 18.6875C377.094 18.6875 376.047 17.8047 376.047 16.0391V13.3125C376.047 12.4531 376.307 11.7812 376.828 11.2969C377.354 10.8073 378.141 10.5625 379.188 10.5625C379.604 10.5625 380.031 10.651 380.469 10.8281C380.911 11 381.193 11.1849 381.312 11.3828V10.7188H382.781V18.8047C382.781 19.7995 382.518 20.612 381.992 21.2422C381.471 21.8724 380.628 22.1875 379.461 22.1875C378.294 22.1875 377.43 22.0833 376.867 21.875L377.195 20.7734ZM381.312 12.8281C381.312 12.0677 380.68 11.6875 379.414 11.6875C378.148 11.6875 377.516 12.1771 377.516 13.1562V16.2656C377.516 17.1302 378.148 17.5625 379.414 17.5625C380.159 17.5625 380.792 17.3542 381.312 16.9375V12.8281ZM12.8203 35.2891L11.2188 33.2109H12.4297L13.3984 34.5703L14.4297 33.2109H15.6875L13.9922 35.2891H12.8203ZM13.5234 45.1719C11.8307 45.1719 10.7708 44.5833 10.3438 43.4062C10.2188 43.0729 10.1562 42.7083 10.1562 42.3125V39.1562C10.1562 38.3698 10.4557 37.7422 11.0547 37.2734C11.6536 36.7995 12.4635 36.5625 13.4844 36.5625C14.7865 36.5625 15.6823 36.8438 16.1719 37.4062C16.5573 37.8438 16.75 38.4896 16.75 39.3438L15.3516 39.4766C15.3516 38.737 15.2188 38.2552 14.9531 38.0312C14.6927 37.8021 14.2266 37.6875 13.5547 37.6875C12.8828 37.6875 12.3932 37.8047 12.0859 38.0391C11.7786 38.2734 11.625 38.6589 11.625 39.1953V42.4375C11.625 43.0104 11.7865 43.4219 12.1094 43.6719C12.4323 43.9219 12.9297 44.0469 13.6016 44.0469C14.2786 44.0469 14.7292 43.9583 14.9531 43.7812C15.1823 43.6042 15.3229 43.2031 15.375 42.5781H16.7344C16.651 43.5365 16.375 44.2083 15.9062 44.5938C15.4375 44.9792 14.6432 45.1719 13.5234 45.1719ZM21.3828 45L18.1719 36.7188H19.6484L22.1406 43.4375L24.3594 36.7188H25.7969L22.8672 45H21.3828ZM28.9219 42.6641C28.9219 43.5859 29.5755 44.0469 30.8828 44.0469C32.1901 44.0469 32.8438 43.5859 32.8438 42.6641V39.0781C32.8438 38.151 32.1901 37.6875 30.8828 37.6875C29.5755 37.6875 28.9219 38.151 28.9219 39.0781V42.6641ZM34.3125 42.5391C34.3125 43.3516 34.0339 43.9948 33.4766 44.4688C32.9245 44.9375 32.0573 45.1719 30.875 45.1719C29.6927 45.1719 28.8255 44.9375 28.2734 44.4688C27.7266 44 27.4531 43.3568 27.4531 42.5391V39.2031C27.4531 38.3854 27.7266 37.7422 28.2734 37.2734C28.8255 36.7995 29.6927 36.5625 30.875 36.5625C32.0573 36.5625 32.9245 36.7995 33.4766 37.2734C34.0339 37.7474 34.3125 38.3906 34.3125 39.2031V42.5391ZM36.9219 45V36.7188H38.3906V37.8906C38.5781 37.3802 39.0859 37.0104 39.9141 36.7812C40.3464 36.6562 40.7969 36.5964 41.2656 36.6016L41.2188 37.8594C40.5104 37.8594 39.862 38 39.2734 38.2812C38.6849 38.5625 38.3906 38.8698 38.3906 39.2031V45H36.9219ZM45.3516 45.1719C44.513 45.1719 43.862 44.9453 43.3984 44.4922C42.9349 44.0339 42.7031 43.4661 42.7031 42.7891C42.7031 42.4036 42.7839 42.0833 42.9453 41.8281C43.2734 41.3073 44.2526 40.8099 45.8828 40.3359C46.8255 40.0755 47.3672 39.8516 47.5078 39.6641C47.6536 39.4766 47.7344 39.3307 47.75 39.2266C47.7656 39.1172 47.7734 38.9453 47.7734 38.7109C47.7734 38.4766 47.6771 38.2474 47.4844 38.0234C47.2969 37.7995 46.8854 37.6875 46.25 37.6875C45.3542 37.6875 44.8047 37.8594 44.6016 38.2031C44.4974 38.3802 44.4453 38.6198 44.4453 38.9219V39.2891H43.0312V38.9141C43.0312 38.1068 43.2995 37.513 43.8359 37.1328C44.3776 36.7526 45.1849 36.5625 46.2578 36.5625C47.3307 36.5625 48.0964 36.8073 48.5547 37.2969C49.013 37.7812 49.2422 38.474 49.2422 39.375V42.9062C49.2422 43.3385 49.2969 43.6198 49.4062 43.75C49.5156 43.875 49.75 43.9375 50.1094 43.9375L49.9375 45.0625H49.6406C49.1198 45.0625 48.7318 44.9635 48.4766 44.7656C48.2214 44.5625 48.026 44.25 47.8906 43.8281C47.4583 44.474 46.9375 44.8802 46.3281 45.0469C46.0365 45.1302 45.7109 45.1719 45.3516 45.1719ZM46.0859 41.3438C45.3464 41.5573 44.8333 41.7708 44.5469 41.9844C44.2656 42.1979 44.125 42.5 44.125 42.8906C44.125 43.276 44.2552 43.5677 44.5156 43.7656C44.7812 43.9635 45.099 44.0625 45.4688 44.0625C45.8438 44.0625 46.1823 44.0156 46.4844 43.9219C46.7865 43.8229 47.0573 43.6797 47.2969 43.4922C47.5417 43.2995 47.7005 43.0807 47.7734 42.8359V40.4453C47.3932 40.8255 46.8307 41.125 46.0859 41.3438ZM52.2812 45V43.1094H54.2812V45H52.2812Z" fill="#C9D1D9"/>
<path d="M138.679 218.453C139.145 218.75 139.763 218.612 140.06 218.146L144.892 210.554C145.189 210.088 145.051 209.47 144.586 209.173C144.12 208.877 143.502 209.014 143.205 209.48L138.91 216.229L132.161 211.933C131.695 211.637 131.077 211.774 130.78 212.24C130.483 212.706 130.621 213.324 131.087 213.621L138.679 218.453ZM119.326 132.688L138.24 217.826L140.192 217.393L121.278 132.254L119.326 132.688Z" fill="#C4A8A8"/>
<path d="M263.067 169.328C263.548 169.057 263.718 168.447 263.447 167.966L259.023 160.128C258.752 159.647 258.142 159.477 257.661 159.749C257.18 160.02 257.01 160.63 257.281 161.111L261.213 168.078L254.246 172.01C253.765 172.282 253.596 172.892 253.867 173.372C254.138 173.853 254.748 174.023 255.229 173.752L263.067 169.328ZM130.077 132.597L262.308 169.421L262.844 167.494L130.613 130.67L130.077 132.597Z" fill="#FF7F50"/>
<path d="M129.227 110.487C129.157 111.035 129.544 111.536 130.091 111.607L139.018 112.754C139.566 112.824 140.067 112.437 140.137 111.89C140.208 111.342 139.821 110.841 139.273 110.77L131.338 109.751L132.358 101.816C132.428 101.268 132.041 100.767 131.494 100.696C130.946 100.626 130.445 101.013 130.374 101.561L129.227 110.487ZM279.497 174.341C272.995 148.491 265.758 127.402 257.21 111.343C248.664 95.2872 238.76 84.174 226.884 78.4095C214.982 72.6321 201.252 72.3005 185.222 77.4994C169.214 82.6912 150.858 93.4132 129.608 109.823L130.83 111.406C151.998 95.06 170.143 84.4922 185.839 79.4018C201.512 74.3185 214.687 74.7122 226.011 80.2087C237.361 85.7179 247.005 96.4271 255.445 112.283C263.884 128.136 271.073 149.048 277.557 174.829L279.497 174.341Z" fill="#FFD700"/>
<path d="M286.171 324.023C286.578 324.396 287.21 324.368 287.584 323.961L293.663 317.325C294.036 316.918 294.009 316.285 293.601 315.912C293.194 315.539 292.562 315.567 292.189 315.974L286.784 321.873L280.886 316.469C280.478 316.095 279.846 316.123 279.473 316.53C279.1 316.938 279.127 317.57 279.535 317.943L286.171 324.023ZM279.989 189.425L285.847 323.329L287.845 323.242L281.987 189.337L279.989 189.425Z" fill="#FF7F50"/>
<path d="M273.528 349.645C273.758 349.143 273.537 348.55 273.035 348.32L264.849 344.578C264.347 344.349 263.754 344.57 263.524 345.072C263.295 345.574 263.516 346.168 264.018 346.397L271.294 349.723L267.968 356.999C267.738 357.501 267.959 358.095 268.461 358.324C268.964 358.554 269.557 358.333 269.786 357.831L273.528 349.645ZM144.921 397.869L272.968 350.167L272.27 348.293L144.223 395.995L144.921 397.869Z" fill="#FF7F50"/>
<path d="M115.553 387.907C116.102 387.967 116.596 387.571 116.656 387.022L117.641 378.076C117.701 377.527 117.305 377.033 116.756 376.973C116.207 376.913 115.713 377.309 115.653 377.858L114.778 385.81L106.826 384.934C106.277 384.874 105.783 385.27 105.722 385.819C105.662 386.368 106.058 386.862 106.607 386.922L115.553 387.907ZM30.3467 282.095L114.882 387.539L116.443 386.287L31.9072 280.844L30.3467 282.095Z" fill="#FF7F50"/>
<path d="M108.728 140.639C108.617 140.098 108.089 139.749 107.548 139.86L98.7313 141.67C98.1903 141.781 97.8417 142.309 97.9528 142.85C98.0638 143.391 98.5924 143.74 99.1334 143.629L106.97 142.02L108.578 149.857C108.689 150.398 109.218 150.747 109.759 150.636C110.3 150.525 110.649 149.996 110.538 149.455L108.728 140.639ZM32.4251 256.883L108.583 141.39L106.914 140.289L30.7554 255.782L32.4251 256.883Z" fill="#FF7F50"/>
<path d="M267.692 185.56C267.893 185.046 267.639 184.466 267.124 184.265L258.741 180.99C258.227 180.789 257.647 181.043 257.446 181.557C257.245 182.072 257.499 182.651 258.014 182.852L265.465 185.764L262.554 193.215C262.353 193.73 262.607 194.31 263.121 194.511C263.636 194.712 264.216 194.458 264.417 193.943L267.692 185.56ZM145.786 239.289L267.162 186.112L266.359 184.28L144.984 237.457L145.786 239.289Z" fill="#C3A8A8"/>
<path d="M376.543 279.941C376.639 279.397 376.276 278.878 375.733 278.782L366.871 277.212C366.327 277.116 365.808 277.479 365.711 278.022C365.615 278.566 365.978 279.085 366.522 279.181L374.399 280.577L373.004 288.454C372.907 288.998 373.27 289.517 373.814 289.613C374.358 289.71 374.877 289.347 374.973 288.803L376.543 279.941ZM289.93 340.843L376.131 280.586L374.985 278.947L288.784 339.204L289.93 340.843Z" fill="#FF7F50"/>
<path d="M39.254 263.674C38.8588 264.06 38.8511 264.693 39.2368 265.088L45.5227 271.53C45.9084 271.925 46.5415 271.933 46.9368 271.547C47.332 271.161 47.3398 270.528 46.954 270.133L41.3666 264.407L47.092 258.82C47.4873 258.434 47.495 257.801 47.1093 257.406C46.7235 257.01 46.0904 257.003 45.6952 257.388L39.254 263.674ZM390.406 267.665L39.9647 263.39L39.9403 265.39L390.382 269.665L390.406 267.665Z" fill="#FF7F50"/>
<path d="M37.7208 279.714C37.2491 280.001 37.0996 280.617 37.3868 281.088L42.0679 288.775C42.3551 289.247 42.9704 289.396 43.4421 289.109C43.9138 288.822 44.0633 288.207 43.776 287.735L39.6151 280.902L46.4479 276.741C46.9196 276.454 47.0691 275.839 46.7819 275.367C46.4946 274.895 45.8794 274.746 45.4077 275.033L37.7208 279.714ZM289.914 340.704L38.4771 279.597L38.0047 281.54L289.442 342.648L289.914 340.704Z" fill="#FF7F50"/>
<circle cx="143.849" cy="234.675" r="15.7381" fill="#C3A8A8" stroke="#C4A8A8" stroke-width="2"/>
<circle cx="279.314" cy="174.316" r="16.7381" fill="#31BA3E"/>
<circle cx="391.459" cy="268.05" r="15.7381" fill="#C3A8A8" stroke="#C4A8A8" stroke-width="2"/>
<circle cx="287.683" cy="341.697" r="16.7381" fill="#C4A8A8"/>
<circle cx="128.671" cy="400.281" r="16.7381" fill="#C4A8A8"/>
<circle cx="23.2211" cy="269.723" r="15.7381" fill="#C3A8A8" stroke="#C4A8A8" stroke-width="2"/>
<circle cx="116.955" cy="125.776" r="16.7381" fill="#C4C4C4"/>
<path d="M96.3276 96.7639C96.4671 98.2018 95.7203 99.6006 94.3747 100.699C93.0298 101.797 91.0954 102.587 88.89 102.801C86.6845 103.015 84.6345 102.612 83.1036 101.793C81.572 100.973 80.5702 99.7438 80.4308 98.3059C80.2913 96.8679 81.0381 95.4691 82.3837 94.3705C83.7286 93.2724 85.6629 92.483 87.8684 92.2691C90.0739 92.0552 92.1239 92.4581 93.6548 93.2772C95.1864 94.0967 96.1882 95.3259 96.3276 96.7639Z" fill="#7B6C6C" stroke="#C4A8A8" stroke-width="0.2"/>
<path d="M102.766 96.1391C102.96 98.1366 101.028 99.9983 98.3914 100.254C95.7548 100.51 93.5013 99.054 93.3075 97.0566C93.1138 95.0592 95.0455 93.1974 97.6821 92.9417C100.319 92.6859 102.572 94.1417 102.766 96.1391Z" fill="#7B6C6C" stroke="#C4C4C4" stroke-width="0.2"/>
<path d="M110.121 93.8003C110.315 95.7977 108.383 97.6595 105.747 97.9152C103.11 98.171 100.857 96.7152 100.663 94.7177C100.469 92.7203 102.401 90.8586 105.037 90.6028C107.674 90.3471 109.928 91.8029 110.121 93.8003Z" fill="#7B6C6C" stroke="#C4C4C4" stroke-width="0.2"/>
<circle cx="112.401" cy="91.1426" r="4.48192" transform="rotate(-5.5403 112.401 91.1426)" fill="#7B6C6C" stroke="#C4C4C4" stroke-width="0.2"/>
<path d="M115.825 94.0603C114.458 93.9221 113.734 93.7215 113.63 92.6484" stroke="black" stroke-width="0.3"/>
<path d="M86.2726 100.244C86.0744 102.959 86.0104 105.621 86.5638 108.287C86.6933 108.91 86.7615 109.561 86.9642 110.166C87.0869 110.532 87.4438 111.621 87.4065 111.236" stroke="#7B6C6C" stroke-linecap="round" stroke-linejoin="round"/>
<ellipse cx="88.313" cy="110.809" rx="1.34762" ry="0.808574" transform="rotate(-5.5403 88.313 110.809)" fill="#7B6C6C"/>
<path d="M89.9462 100.429C90.2845 101.477 90.6754 102.507 90.9948 103.561C91.1918 104.212 91.2205 104.902 91.3583 105.565C91.5051 106.271 91.5943 107.308 91.9556 107.884" stroke="#7B6C6C" stroke-linecap="round" stroke-linejoin="round"/>
<ellipse cx="92.9336" cy="108.195" rx="1.34762" ry="0.808574" transform="rotate(-5.5403 92.9336 108.195)" fill="#7B6C6C"/>
<path d="M97.4857 99.291C97.7711 99.9369 98.1545 100.603 98.2239 101.318C98.2573 101.663 98.2908 102.009 98.3243 102.354C98.4057 103.192 98.4112 104.008 98.4346 104.848C98.4443 105.197 98.5186 105.543 98.5172 105.893C98.5152 106.385 98.4355 106.879 98.4726 107.372C98.4955 107.677 98.6067 108.038 98.7797 108.29C98.8681 108.418 99.0192 108.825 99.0606 108.548" stroke="#7B6C6C" stroke-linecap="round" stroke-linejoin="round"/>
<ellipse cx="99.9605" cy="108.055" rx="1.34762" ry="0.808574" transform="rotate(-5.5403 99.9605 108.055)" fill="#7B6C6C"/>
<path d="M100.609 98.514C100.89 99.5685 101.311 100.648 101.248 101.769C101.2 102.628 101.184 103.546 101.058 104.39C100.965 105.017 101.1 105.671 101.161 106.298C101.196 106.667 101.37 107.136 101.729 107.274" stroke="#7B6C6C" stroke-linecap="round" stroke-linejoin="round"/>
<ellipse cx="102.539" cy="106.722" rx="1.34762" ry="0.808574" transform="rotate(-5.5403 102.539 106.722)" fill="#7B6C6C"/>
<path d="M106.001 97.0439C106.356 97.615 106.744 98.1839 107.05 98.7851C107.23 99.141 107.357 99.523 107.561 99.8675C107.91 100.459 108.122 101.118 108.451 101.718C108.884 102.507 108.997 103.407 109.466 104.155" stroke="#7B6C6C" stroke-linecap="round" stroke-linejoin="round"/>
<ellipse cx="110.379" cy="103.795" rx="1.34762" ry="0.808574" transform="rotate(-5.5403 110.379 103.795)" fill="#7B6C6C"/>
<path d="M108.283 96.1455C109.024 97.6193 110.356 98.7217 110.971 100.285C111.193 100.849 111.548 101.344 111.767 101.9C111.872 102.166 112.105 102.388 112.166 102.674C112.178 102.733 112.247 102.781 112.283 102.832C112.378 102.97 112.299 102.648 112.293 102.594" stroke="#7B6C6C" stroke-linecap="round" stroke-linejoin="round"/>
<ellipse cx="113.159" cy="102.442" rx="1.34762" ry="0.808574" transform="rotate(-5.5403 113.159 102.442)" fill="#7B6C6C"/>
<path d="M112.311 87.6308C112.167 84.7939 111.585 83.6131 109.141 82.6572" stroke="#7B6C6C"/>
<path d="M114.477 87.4207C114.316 84.4073 113.724 83.1501 111.255 82.1221" stroke="#7B6C6C"/>
<ellipse cx="111.508" cy="81.9329" rx="0.808574" ry="0.492786" transform="rotate(-5.5403 111.508 81.9329)" fill="#C4C4C4"/>
<ellipse cx="108.857" cy="82.5198" rx="0.808574" ry="0.492786" transform="rotate(-5.5403 108.857 82.5198)" fill="#C4C4C4"/>
<circle cx="114.149" cy="89.6194" r="1.0281" transform="rotate(-5.5403 114.149 89.6194)" fill="#C4C4C4" stroke="black" stroke-width="0.1"/>
<g filter="url(#filter0_f)">
<path d="M91.8394 92.9252C89.6464 92.3418 88.18 92.576 85.6744 93.2414C85.4387 93.304 85.2828 93.5288 85.3063 93.7716L85.3706 94.434C85.3994 94.7313 85.6815 94.9365 85.9746 94.8788C88.0444 94.472 89.3835 94.4523 91.37 94.905C91.649 94.9685 91.929 94.793 91.9849 94.5124L92.1879 93.495C92.2383 93.2423 92.0884 92.9915 91.8394 92.9252Z" fill="#C9D1D9"/>
</g>
<g filter="url(#filter1_f)">
<path d="M98.5049 93.4295C97.1315 93.3443 96.2637 93.5897 95.0226 94.4221C94.8282 94.5525 94.7576 94.8038 94.8486 95.0194L94.9907 95.3562C95.1096 95.6382 95.4509 95.7465 95.7183 95.5977C96.6717 95.0671 97.409 94.8484 98.49 94.8333C98.8021 94.829 99.0502 94.5588 99.0075 94.2497L98.9527 93.8522C98.921 93.623 98.7358 93.4438 98.5049 93.4295Z" fill="#C9D1D9"/>
</g>
<g filter="url(#filter2_f)">
<path d="M105.229 91.1727C103.846 91.331 103.022 91.7271 101.922 92.7709C101.752 92.9324 101.725 93.1927 101.852 93.3902L102.049 93.698C102.214 93.9553 102.568 94.0043 102.806 93.8127C103.674 93.1139 104.375 92.7664 105.458 92.5605C105.763 92.5026 105.96 92.1961 105.867 91.9L105.746 91.5146C105.676 91.2923 105.461 91.1462 105.229 91.1727Z" fill="#C9D1D9"/>
</g>
<circle cx="114.31" cy="89.6036" r="0.53905" transform="rotate(-5.5403 114.31 89.6036)" fill="black"/>
<defs>
<filter id="filter0_f" x="81.2281" y="88.2998" width="15.1116" height="11.2036" filterUnits="userSpaceOnUse" color-interpolation-filters="sRGB">
<feFlood flood-opacity="0" result="BackgroundImageFix"/>
<feBlend mode="normal" in="SourceGraphic" in2="BackgroundImageFix" result="shape"/>
<feGaussianBlur stdDeviation="2" result="effect1_foregroundBlur"/>
</filter>
<filter id="filter1_f" x="90.6031" y="88.7852" width="12.6622" height="11.4173" filterUnits="userSpaceOnUse" color-interpolation-filters="sRGB">
<feFlood flood-opacity="0" result="BackgroundImageFix"/>
<feBlend mode="normal" in="SourceGraphic" in2="BackgroundImageFix" result="shape"/>
<feGaussianBlur stdDeviation="2" result="effect1_foregroundBlur"/>
</filter>
<filter id="filter2_f" x="97.5102" y="86.5332" width="12.6625" height="11.9399" filterUnits="userSpaceOnUse" color-interpolation-filters="sRGB">
<feFlood flood-opacity="0" result="BackgroundImageFix"/>
<feBlend mode="normal" in="SourceGraphic" in2="BackgroundImageFix" result="shape"/>
<feGaussianBlur stdDeviation="2" result="effect1_foregroundBlur"/>
</filter>
</defs>
</svg>
