<svg width="409" height="372" viewBox="0 0 409 372" fill="none" xmlns="http://www.w3.org/2000/svg">
<path d="M138.679 163.453C139.145 163.75 139.763 163.612 140.06 163.146L144.892 155.554C145.189 155.088 145.051 154.47 144.586 154.173C144.12 153.877 143.502 154.014 143.205 154.48L138.91 161.229L132.161 156.933C131.695 156.637 131.077 156.774 130.78 157.24C130.483 157.706 130.621 158.324 131.087 158.621L138.679 163.453ZM119.326 77.6875L138.24 162.826L140.192 162.393L121.278 77.2538L119.326 77.6875Z" fill="#C4A8A8"/>
<path d="M263.067 114.328C263.548 114.057 263.718 113.447 263.447 112.966L259.023 105.128C258.752 104.647 258.142 104.477 257.661 104.749C257.18 105.02 257.01 105.63 257.281 106.111L261.213 113.078L254.246 117.01C253.765 117.282 253.596 117.892 253.867 118.372C254.138 118.853 254.748 119.023 255.229 118.752L263.067 114.328ZM130.077 77.5971L262.308 114.421L262.844 112.494L130.613 75.6704L130.077 77.5971Z" fill="#FF7F50"/>
<path d="M263.067 114.328C263.548 114.057 263.718 113.447 263.447 112.966L259.023 105.128C258.752 104.647 258.142 104.477 257.661 104.749C257.18 105.02 257.01 105.63 257.281 106.111L261.213 113.078L254.246 117.01C253.765 117.282 253.596 117.892 253.867 118.372C254.138 118.853 254.748 119.023 255.229 118.752L263.067 114.328ZM130.077 77.5971L262.308 114.421L262.844 112.494L130.613 75.6704L130.077 77.5971Z" fill="url(#paint0_linear)" fill-opacity="0.85"/>
<path d="M129.227 55.4874C129.157 56.0352 129.544 56.5363 130.091 56.6067L139.018 57.754C139.566 57.8244 140.067 57.4374 140.137 56.8896C140.208 56.3418 139.821 55.8407 139.273 55.7703L131.338 54.7505L132.358 46.8158C132.428 46.268 132.041 45.7669 131.494 45.6965C130.946 45.6261 130.445 46.013 130.374 46.5608L129.227 55.4874ZM279.497 119.341C272.995 93.4907 265.758 72.4016 257.21 56.343C248.664 40.2872 238.76 29.174 226.884 23.4095C214.982 17.6321 201.252 17.3005 185.222 22.4994C169.214 27.6912 150.858 38.4132 129.608 54.8234L130.83 56.4064C151.998 40.06 170.143 29.4922 185.839 24.4018C201.512 19.3185 214.687 19.7122 226.011 25.2087C237.361 30.7179 247.005 41.4271 255.445 57.2828C263.884 73.1357 271.073 94.0475 277.557 119.829L279.497 119.341Z" fill="#C4A8A8"/>
<path d="M286.171 269.023C286.578 269.396 287.21 269.368 287.584 268.961L293.663 262.325C294.036 261.918 294.009 261.285 293.601 260.912C293.194 260.539 292.562 260.567 292.189 260.974L286.784 266.873L280.886 261.469C280.478 261.095 279.846 261.123 279.473 261.53C279.1 261.938 279.127 262.57 279.535 262.943L286.171 269.023ZM279.989 134.425L285.847 268.329L287.845 268.242L281.987 134.337L279.989 134.425Z" fill="#FF7F50"/>
<path d="M273.528 294.645C273.758 294.143 273.537 293.55 273.035 293.32L264.849 289.578C264.347 289.349 263.754 289.57 263.524 290.072C263.295 290.574 263.516 291.168 264.018 291.397L271.294 294.723L267.968 301.999C267.738 302.501 267.959 303.095 268.461 303.324C268.964 303.554 269.557 303.333 269.786 302.831L273.528 294.645ZM144.921 342.869L272.968 295.167L272.27 293.293L144.223 340.995L144.921 342.869Z" fill="#FF7F50"/>
<path d="M115.553 332.907C116.102 332.967 116.596 332.571 116.656 332.022L117.641 323.076C117.701 322.527 117.305 322.033 116.756 321.973C116.207 321.913 115.713 322.309 115.653 322.858L114.778 330.81L106.826 329.934C106.277 329.874 105.783 330.27 105.722 330.819C105.662 331.368 106.058 331.862 106.607 331.922L115.553 332.907ZM30.3467 227.095L114.882 332.539L116.443 331.287L31.9072 225.844L30.3467 227.095Z" fill="#FF7F50"/>
<path d="M108.728 85.6388C108.617 85.0978 108.089 84.7492 107.548 84.8603L98.7313 86.6697C98.1903 86.7807 97.8417 87.3093 97.9528 87.8503C98.0638 88.3913 98.5924 88.7399 99.1334 88.6289L106.97 87.0205L108.578 94.8571C108.689 95.3981 109.218 95.7467 109.759 95.6357C110.3 95.5246 110.649 94.996 110.538 94.455L108.728 85.6388ZM32.4251 201.883L108.583 86.3903L106.914 85.2893L30.7554 200.782L32.4251 201.883Z" fill="#FFD700"/>
<path d="M267.692 130.56C267.893 130.046 267.639 129.466 267.124 129.265L258.741 125.99C258.227 125.789 257.647 126.043 257.446 126.557C257.245 127.072 257.499 127.651 258.014 127.852L265.465 130.764L262.554 138.215C262.353 138.73 262.607 139.31 263.121 139.511C263.636 139.712 264.216 139.458 264.417 138.943L267.692 130.56ZM145.786 184.289L267.162 131.112L266.359 129.28L144.984 182.457L145.786 184.289Z" fill="#C3A8A8"/>
<path d="M376.543 224.941C376.639 224.397 376.276 223.878 375.733 223.782L366.871 222.212C366.327 222.116 365.808 222.479 365.711 223.022C365.615 223.566 365.978 224.085 366.522 224.181L374.399 225.577L373.004 233.454C372.907 233.998 373.27 234.517 373.814 234.613C374.358 234.71 374.877 234.347 374.973 233.803L376.543 224.941ZM289.93 285.843L376.131 225.586L374.985 223.947L288.784 284.204L289.93 285.843Z" fill="#FF7F50"/>
<path d="M39.254 208.674C38.8588 209.06 38.8511 209.693 39.2368 210.088L45.5227 216.53C45.9084 216.925 46.5415 216.933 46.9368 216.547C47.332 216.161 47.3398 215.528 46.954 215.133L41.3666 209.407L47.092 203.82C47.4873 203.434 47.495 202.801 47.1093 202.406C46.7235 202.01 46.0904 202.003 45.6952 202.388L39.254 208.674ZM390.406 212.665L39.9647 208.39L39.9403 210.39L390.382 214.665L390.406 212.665Z" fill="#FF7F50"/>
<path d="M37.7208 224.714C37.2491 225.001 37.0996 225.617 37.3868 226.088L42.0679 233.775C42.3551 234.247 42.9704 234.396 43.4421 234.109C43.9138 233.822 44.0633 233.207 43.776 232.735L39.6151 225.902L46.4479 221.741C46.9196 221.454 47.0691 220.839 46.7819 220.367C46.4946 219.895 45.8794 219.746 45.4077 220.033L37.7208 224.714ZM289.914 285.704L38.4771 224.597L38.0047 226.54L289.442 287.648L289.914 285.704Z" fill="#FF7F50"/>
<circle cx="143.849" cy="179.675" r="15.7381" fill="#C3A8A8" stroke="#C4A8A8" stroke-width="2"/>
<circle cx="279.314" cy="119.316" r="16.7381" fill="#31BA3E"/>
<circle cx="391.459" cy="213.05" r="15.7381" fill="#C3A8A8" stroke="#C4A8A8" stroke-width="2"/>
<circle cx="287.683" cy="286.697" r="16.7381" fill="#C4A8A8"/>
<circle cx="128.671" cy="345.281" r="16.7381" fill="#C4A8A8"/>
<circle cx="23.2211" cy="214.723" r="15.7381" fill="#C3A8A8" stroke="#C4A8A8" stroke-width="2"/>
<circle cx="116.955" cy="70.7762" r="16.7381" fill="#C4C4C4"/>
<path d="M108.4 38.336C108.255 39.7733 107.248 40.9984 105.713 41.8116C104.179 42.6245 102.127 43.0189 99.9227 42.7959C97.7181 42.573 95.787 41.7756 94.4466 40.672C93.1056 39.5679 92.3645 38.166 92.5099 36.7287C92.6553 35.2913 93.6621 34.0662 95.197 33.253C96.7313 32.4402 98.7829 32.0457 100.988 32.2687C103.192 32.4917 105.123 33.289 106.464 34.3926C107.805 35.4967 108.546 36.8986 108.4 38.336Z" fill="#7B6C6C" stroke="#C4A8A8" stroke-width="0.2"/>
<path d="M114.836 38.9872C114.634 40.9838 112.375 42.4303 109.739 42.1637C107.104 41.8971 105.179 40.0275 105.381 38.0309C105.583 36.0342 107.843 34.5877 110.478 34.8543C113.114 35.1209 115.038 36.9906 114.836 38.9872Z" fill="#7B6C6C" stroke="#C4C4C4" stroke-width="0.2"/>
<path d="M122.507 38.1376C122.305 40.1342 120.046 41.5807 117.41 41.3141C114.775 41.0475 112.851 39.1779 113.053 37.1812C113.254 35.1846 115.514 33.7381 118.15 34.0047C120.785 34.2713 122.709 36.141 122.507 38.1376Z" fill="#7B6C6C" stroke="#C4C4C4" stroke-width="0.2"/>
<circle cx="125.264" cy="35.9778" r="4.48192" transform="rotate(5.77572 125.264 35.9778)" fill="#7B6C6C" stroke="#C4C4C4" stroke-width="0.2"/>
<path d="M128.049 39.5104C126.736 39.1066 126.066 38.7679 126.174 37.6953" stroke="black" stroke-width="0.3"/>
<path d="M97.8578 39.7752C97.1307 42.3986 96.5456 44.9964 96.5652 47.7187C96.5698 48.3557 96.509 49.0074 96.5891 49.64C96.6376 50.023 96.774 51.1605 96.8128 50.7764" stroke="#7B6C6C" stroke-linecap="round" stroke-linejoin="round"/>
<ellipse cx="97.7853" cy="50.5358" rx="1.34762" ry="0.808574" transform="rotate(5.77572 97.7853 50.5358)" fill="#7B6C6C"/>
<path d="M101.424 40.6777C101.55 41.7723 101.731 42.8588 101.837 43.9553C101.903 44.632 101.796 45.3138 101.801 45.9909C101.806 46.7122 101.69 47.7464 101.931 48.382" stroke="#7B6C6C" stroke-linecap="round" stroke-linejoin="round"/>
<ellipse cx="102.829" cy="48.8795" rx="1.34762" ry="0.808574" transform="rotate(5.77572 102.829 48.8795)" fill="#7B6C6C"/>
<path d="M109.04 41.042C109.193 41.7313 109.438 42.4599 109.366 43.1745C109.331 43.5196 109.296 43.8647 109.261 44.2098C109.176 45.048 109.022 45.8488 108.88 46.6771C108.821 47.0216 108.826 47.3747 108.756 47.718C108.657 48.2 108.482 48.6685 108.422 49.1592C108.385 49.4628 108.423 49.8387 108.543 50.1196C108.604 50.263 108.673 50.6914 108.768 50.4282" stroke="#7B6C6C" stroke-linecap="round" stroke-linejoin="round"/>
<ellipse cx="109.747" cy="50.1208" rx="1.34762" ry="0.808574" transform="rotate(5.77572 109.747 50.1208)" fill="#7B6C6C"/>
<path d="M112.255 40.8931C112.324 41.9823 112.524 43.1232 112.243 44.2104C112.027 45.0427 111.832 45.9403 111.542 46.7432C111.328 47.3392 111.332 48.007 111.268 48.6344C111.231 49.0025 111.31 49.4967 111.634 49.7023" stroke="#7B6C6C" stroke-linecap="round" stroke-linejoin="round"/>
<ellipse cx="112.537" cy="49.32" rx="1.34762" ry="0.808574" transform="rotate(5.77572 112.537 49.32)" fill="#7B6C6C"/>
<path d="M117.83 40.5088C118.067 41.1385 118.336 41.7725 118.517 42.4219C118.624 42.8064 118.674 43.2059 118.806 43.5836C119.032 44.2323 119.111 44.9202 119.316 45.5729C119.585 46.4318 119.52 47.336 119.833 48.1611" stroke="#7B6C6C" stroke-linecap="round" stroke-linejoin="round"/>
<ellipse cx="120.799" cy="47.9879" rx="1.34762" ry="0.808574" transform="rotate(5.77572 120.799 47.9879)" fill="#7B6C6C"/>
<path d="M120.245 40.0762C120.682 41.6668 121.772 43.009 122.068 44.6628C122.175 45.2595 122.426 45.8138 122.532 46.4028C122.582 46.6836 122.768 46.9469 122.771 47.2396C122.771 47.2994 122.83 47.3604 122.854 47.4174C122.921 47.5716 122.906 47.2399 122.912 47.1862" stroke="#7B6C6C" stroke-linecap="round" stroke-linejoin="round"/>
<ellipse cx="123.79" cy="47.2077" rx="1.34762" ry="0.808574" transform="rotate(5.77572 123.79 47.2077)" fill="#7B6C6C"/>
<path d="M125.865 32.5175C126.28 29.7074 125.941 28.4354 123.732 27.0186" stroke="#7B6C6C"/>
<path d="M128.03 32.737C128.464 29.7506 128.129 28.4016 125.911 26.9092" stroke="#7B6C6C"/>
<ellipse cx="126.195" cy="26.7728" rx="0.808574" ry="0.492786" transform="rotate(5.77572 126.195 26.7728)" fill="#C4C4C4"/>
<ellipse cx="123.481" cy="26.8285" rx="0.808574" ry="0.492786" transform="rotate(5.77572 123.481 26.8285)" fill="#C4C4C4"/>
<circle cx="127.277" cy="34.8276" r="1.0281" transform="rotate(5.77572 127.277 34.8276)" fill="#C4C4C4" stroke="black" stroke-width="0.1"/>
<g filter="url(#filter0_f)">
<path d="M104.752 33.692C102.717 32.6896 101.233 32.6315 98.6453 32.7923C98.4019 32.8075 98.2049 32.9973 98.1803 33.24L98.1133 33.9021C98.0833 34.1994 98.3196 34.4559 98.6184 34.4569C100.728 34.4641 102.045 34.7075 103.904 35.5412C104.165 35.6583 104.474 35.5411 104.584 35.2769L104.982 34.3191C105.081 34.0812 104.984 33.8058 104.752 33.692Z" fill="#C9D1D9"/>
</g>
<g filter="url(#filter1_f)">
<path d="M111.189 35.494C109.859 35.141 108.96 35.2113 107.58 35.784C107.364 35.8737 107.245 36.1063 107.292 36.3356L107.365 36.6937C107.427 36.9936 107.74 37.1667 108.032 37.0733C109.071 36.74 109.836 36.6703 110.899 36.8676C111.206 36.9246 111.503 36.7083 111.521 36.3969L111.546 35.9963C111.559 35.7654 111.413 35.5533 111.189 35.494Z" fill="#C9D1D9"/>
</g>
<g filter="url(#filter2_f)">
<path d="M118.226 34.6003C116.839 34.4841 115.953 34.7108 114.67 35.5186C114.471 35.6435 114.393 35.8934 114.479 36.1119L114.612 36.4523C114.723 36.737 115.061 36.8546 115.332 36.7134C116.32 36.1985 117.075 35.9953 118.178 36.006C118.488 36.009 118.741 35.7471 118.708 35.4385L118.665 35.0368C118.64 34.8051 118.458 34.6197 118.226 34.6003Z" fill="#C9D1D9"/>
</g>
<circle cx="127.438" cy="34.8435" r="0.53905" transform="rotate(5.77572 127.438 34.8435)" fill="black"/>
<defs>
<filter id="filter0_f" x="94.1108" y="28.7236" width="14.9101" height="10.8625" filterUnits="userSpaceOnUse" color-interpolation-filters="sRGB">
<feFlood flood-opacity="0" result="BackgroundImageFix"/>
<feBlend mode="normal" in="SourceGraphic" in2="BackgroundImageFix" result="shape"/>
<feGaussianBlur stdDeviation="2" result="effect1_foregroundBlur"/>
</filter>
<filter id="filter1_f" x="103.282" y="31.2783" width="12.2644" height="9.82002" filterUnits="userSpaceOnUse" color-interpolation-filters="sRGB">
<feFlood flood-opacity="0" result="BackgroundImageFix"/>
<feBlend mode="normal" in="SourceGraphic" in2="BackgroundImageFix" result="shape"/>
<feGaussianBlur stdDeviation="2" result="effect1_foregroundBlur"/>
</filter>
<filter id="filter2_f" x="110.445" y="30.5723" width="12.2667" height="10.2014" filterUnits="userSpaceOnUse" color-interpolation-filters="sRGB">
<feFlood flood-opacity="0" result="BackgroundImageFix"/>
<feBlend mode="normal" in="SourceGraphic" in2="BackgroundImageFix" result="shape"/>
<feGaussianBlur stdDeviation="2" result="effect1_foregroundBlur"/>
</filter>
<linearGradient id="paint0_linear" x1="196.752" y1="93.9272" x2="196.169" y2="96.1642" gradientUnits="userSpaceOnUse">
<stop stop-color="white"/>
<stop offset="1" stop-color="white" stop-opacity="0"/>
</linearGradient>
</defs>
</svg>
