<svg width="500" height="434" viewBox="0 0 500 434" fill="none" xmlns="http://www.w3.org/2000/svg">
<path d="M1.70312 19V7.70312H3.14844L6.95312 14.0156L10.7969 7.70312H12.1875V19H10.7031V10.2422L7.53906 15.4219H6.375L3.20312 10.2734V19H1.70312ZM15.3438 19V10.7188H16.8125V11.8906C17 11.3802 17.5078 11.0104 18.3359 10.7812C18.7682 10.6562 19.2188 10.5964 19.6875 10.6016L19.6406 11.8594C18.9323 11.8594 18.2839 12 17.6953 12.2812C17.1068 12.5625 16.8125 12.8698 16.8125 13.2031V19H15.3438ZM23.7734 19.1719C22.9349 19.1719 22.2839 18.9453 21.8203 18.4922C21.3568 18.0339 21.125 17.4661 21.125 16.7891C21.125 16.4036 21.2057 16.0833 21.3672 15.8281C21.6953 15.3073 22.6745 14.8099 24.3047 14.3359C25.2474 14.0755 25.7891 13.8516 25.9297 13.6641C26.0755 13.4766 26.1562 13.3307 26.1719 13.2266C26.1875 13.1172 26.1953 12.9453 26.1953 12.7109C26.1953 12.4766 26.099 12.2474 25.9062 12.0234C25.7188 11.7995 25.3073 11.6875 24.6719 11.6875C23.776 11.6875 23.2266 11.8594 23.0234 12.2031C22.9193 12.3802 22.8672 12.6198 22.8672 12.9219V13.2891H21.4531V12.9141C21.4531 12.1068 21.7214 11.513 22.2578 11.1328C22.7995 10.7526 23.6068 10.5625 24.6797 10.5625C25.7526 10.5625 26.5182 10.8073 26.9766 11.2969C27.4349 11.7812 27.6641 12.474 27.6641 13.375V16.9062C27.6641 17.3385 27.7188 17.6198 27.8281 17.75C27.9375 17.875 28.1719 17.9375 28.5312 17.9375L28.3594 19.0625H28.0625C27.5417 19.0625 27.1536 18.9635 26.8984 18.7656C26.6432 18.5625 26.4479 18.25 26.3125 17.8281C25.8802 18.474 25.3594 18.8802 24.75 19.0469C24.4583 19.1302 24.1328 19.1719 23.7734 19.1719ZM24.5078 15.3438C23.7682 15.5573 23.2552 15.7708 22.9688 15.9844C22.6875 16.1979 22.5469 16.5 22.5469 16.8906C22.5469 17.276 22.6771 17.5677 22.9375 17.7656C23.2031 17.9635 23.5208 18.0625 23.8906 18.0625C24.2656 18.0625 24.6042 18.0156 24.9062 17.9219C25.2083 17.8229 25.4792 17.6797 25.7188 17.4922C25.9635 17.2995 26.1224 17.0807 26.1953 16.8359V14.4453C25.8151 14.8255 25.2526 15.125 24.5078 15.3438ZM32.9297 19L29.7188 10.7188H31.1953L33.6875 17.4375L35.9062 10.7188H37.3438L34.4141 19H32.9297ZM46.4609 10.5625C47.1276 10.5625 47.7396 10.6667 48.2969 10.875V7.23438H49.7656V19H48.7656L48.5234 18.4531C48.2682 18.651 47.9323 18.8203 47.5156 18.9609C47.099 19.1016 46.6875 19.1719 46.2812 19.1719C45.151 19.1719 44.3203 18.9219 43.7891 18.4219C43.263 17.9167 43 17.237 43 16.3828V13.2578C43 12.3984 43.2839 11.7344 43.8516 11.2656C44.4193 10.7969 45.2891 10.5625 46.4609 10.5625ZM44.4688 16.4922C44.4688 16.987 44.6432 17.3646 44.9922 17.625C45.3464 17.8854 45.7604 18.0156 46.2344 18.0156C47.0781 18.0156 47.7656 17.8516 48.2969 17.5234V12.0312C47.8229 11.8021 47.2474 11.6875 46.5703 11.6875C45.1693 11.6875 44.4688 12.1562 44.4688 13.0938V16.4922ZM53.8438 16.6641C53.8438 17.5859 54.4974 18.0469 55.8047 18.0469C57.112 18.0469 57.7656 17.5859 57.7656 16.6641V13.0781C57.7656 12.151 57.112 11.6875 55.8047 11.6875C54.4974 11.6875 53.8438 12.151 53.8438 13.0781V16.6641ZM59.2344 16.5391C59.2344 17.3516 58.9557 17.9948 58.3984 18.4688C57.8464 18.9375 56.9792 19.1719 55.7969 19.1719C54.6146 19.1719 53.7474 18.9375 53.1953 18.4688C52.6484 18 52.375 17.3568 52.375 16.5391V13.2031C52.375 12.3854 52.6484 11.7422 53.1953 11.2734C53.7474 10.7995 54.6146 10.5625 55.7969 10.5625C56.9792 10.5625 57.8464 10.7995 58.3984 11.2734C58.9557 11.7474 59.2344 12.3906 59.2344 13.2031V16.5391ZM64.5312 19.0625C64.0469 19.0625 63.651 19.026 63.3438 18.9531C63.0365 18.8802 62.7656 18.7422 62.5312 18.5391C62.0938 18.1589 61.875 17.3802 61.875 16.2031V7.24219H63.3438V16.2188C63.3438 16.8854 63.4427 17.3203 63.6406 17.5234C63.8385 17.7266 64.2474 17.8281 64.8672 17.8281H65.125L64.9531 19.0625H64.5312ZM69.5078 19.1719C68.6693 19.1719 68.0182 18.9453 67.5547 18.4922C67.0911 18.0339 66.8594 17.4661 66.8594 16.7891C66.8594 16.4036 66.9401 16.0833 67.1016 15.8281C67.4297 15.3073 68.4089 14.8099 70.0391 14.3359C70.9818 14.0755 71.5234 13.8516 71.6641 13.6641C71.8099 13.4766 71.8906 13.3307 71.9062 13.2266C71.9219 13.1172 71.9297 12.9453 71.9297 12.7109C71.9297 12.4766 71.8333 12.2474 71.6406 12.0234C71.4531 11.7995 71.0417 11.6875 70.4062 11.6875C69.5104 11.6875 68.9609 11.8594 68.7578 12.2031C68.6536 12.3802 68.6016 12.6198 68.6016 12.9219V13.2891H67.1875V12.9141C67.1875 12.1068 67.4557 11.513 67.9922 11.1328C68.5339 10.7526 69.3411 10.5625 70.4141 10.5625C71.487 10.5625 72.2526 10.8073 72.7109 11.2969C73.1693 11.7812 73.3984 12.474 73.3984 13.375V16.9062C73.3984 17.3385 73.4531 17.6198 73.5625 17.75C73.6719 17.875 73.9062 17.9375 74.2656 17.9375L74.0938 19.0625H73.7969C73.276 19.0625 72.888 18.9635 72.6328 18.7656C72.3776 18.5625 72.1823 18.25 72.0469 17.8281C71.6146 18.474 71.0938 18.8802 70.4844 19.0469C70.1927 19.1302 69.8672 19.1719 69.5078 19.1719ZM70.2422 15.3438C69.5026 15.5573 68.9896 15.7708 68.7031 15.9844C68.4219 16.1979 68.2812 16.5 68.2812 16.8906C68.2812 17.276 68.4115 17.5677 68.6719 17.7656C68.9375 17.9635 69.2552 18.0625 69.625 18.0625C70 18.0625 70.3385 18.0156 70.6406 17.9219C70.9427 17.8229 71.2135 17.6797 71.4531 17.4922C71.6979 17.2995 71.8568 17.0807 71.9297 16.8359V14.4453C71.5495 14.8255 70.987 15.125 70.2422 15.3438ZM76.0781 19V18.0781L80.0391 11.6875H76.2188V10.7188H81.5859V11.6172L77.6016 18.0312H81.6562V19H76.0781ZM84.125 19V10.7188H85.5938V19H84.125ZM84.125 9.22656V7.70312H85.5938V9.22656H84.125ZM95.7891 10.5625C96.4557 10.5625 97.0677 10.6667 97.625 10.875V7.23438H99.0938V19H98.0938L97.8516 18.4531C97.5964 18.651 97.2604 18.8203 96.8438 18.9609C96.4271 19.1016 96.0156 19.1719 95.6094 19.1719C94.4792 19.1719 93.6484 18.9219 93.1172 18.4219C92.5911 17.9167 92.3281 17.237 92.3281 16.3828V13.2578C92.3281 12.3984 92.612 11.7344 93.1797 11.2656C93.7474 10.7969 94.6172 10.5625 95.7891 10.5625ZM93.7969 16.4922C93.7969 16.987 93.9714 17.3646 94.3203 17.625C94.6745 17.8854 95.0885 18.0156 95.5625 18.0156C96.4062 18.0156 97.0938 17.8516 97.625 17.5234V12.0312C97.151 11.8021 96.5755 11.6875 95.8984 11.6875C94.4974 11.6875 93.7969 12.1562 93.7969 13.0938V16.4922ZM103.172 16.6641C103.172 17.5859 103.826 18.0469 105.133 18.0469C106.44 18.0469 107.094 17.5859 107.094 16.6641V13.0781C107.094 12.151 106.44 11.6875 105.133 11.6875C103.826 11.6875 103.172 12.151 103.172 13.0781V16.6641ZM108.562 16.5391C108.562 17.3516 108.284 17.9948 107.727 18.4688C107.174 18.9375 106.307 19.1719 105.125 19.1719C103.943 19.1719 103.076 18.9375 102.523 18.4688C101.977 18 101.703 17.3568 101.703 16.5391V13.2031C101.703 12.3854 101.977 11.7422 102.523 11.2734C103.076 10.7995 103.943 10.5625 105.125 10.5625C106.307 10.5625 107.174 10.7995 107.727 11.2734C108.284 11.7474 108.562 12.3906 108.562 13.2031V16.5391ZM117.539 9.28906L115.938 7.21094H117.148L118.117 8.57031L119.148 7.21094H120.406L118.711 9.28906H117.539ZM118.242 19.1719C116.549 19.1719 115.49 18.5833 115.062 17.4062C114.938 17.0729 114.875 16.7083 114.875 16.3125V13.1562C114.875 12.3698 115.174 11.7422 115.773 11.2734C116.372 10.7995 117.182 10.5625 118.203 10.5625C119.505 10.5625 120.401 10.8438 120.891 11.4062C121.276 11.8438 121.469 12.4896 121.469 13.3438L120.07 13.4766C120.07 12.737 119.938 12.2552 119.672 12.0312C119.411 11.8021 118.945 11.6875 118.273 11.6875C117.602 11.6875 117.112 11.8047 116.805 12.0391C116.497 12.2734 116.344 12.6589 116.344 13.1953V16.4375C116.344 17.0104 116.505 17.4219 116.828 17.6719C117.151 17.9219 117.648 18.0469 118.32 18.0469C118.997 18.0469 119.448 17.9583 119.672 17.7812C119.901 17.6042 120.042 17.2031 120.094 16.5781H121.453C121.37 17.5365 121.094 18.2083 120.625 18.5938C120.156 18.9792 119.362 19.1719 118.242 19.1719ZM126.102 19L122.891 10.7188H124.367L126.859 17.4375L129.078 10.7188H130.516L127.586 19H126.102ZM133.641 16.6641C133.641 17.5859 134.294 18.0469 135.602 18.0469C136.909 18.0469 137.562 17.5859 137.562 16.6641V13.0781C137.562 12.151 136.909 11.6875 135.602 11.6875C134.294 11.6875 133.641 12.151 133.641 13.0781V16.6641ZM139.031 16.5391C139.031 17.3516 138.753 17.9948 138.195 18.4688C137.643 18.9375 136.776 19.1719 135.594 19.1719C134.411 19.1719 133.544 18.9375 132.992 18.4688C132.445 18 132.172 17.3568 132.172 16.5391V13.2031C132.172 12.3854 132.445 11.7422 132.992 11.2734C133.544 10.7995 134.411 10.5625 135.594 10.5625C136.776 10.5625 137.643 10.7995 138.195 11.2734C138.753 11.7474 139.031 12.3906 139.031 13.2031V16.5391ZM141.641 19V10.7188H143.109V11.8906C143.297 11.3802 143.805 11.0104 144.633 10.7812C145.065 10.6562 145.516 10.5964 145.984 10.6016L145.938 11.8594C145.229 11.8594 144.581 12 143.992 12.2812C143.404 12.5625 143.109 12.8698 143.109 13.2031V19H141.641ZM150.07 19.1719C149.232 19.1719 148.581 18.9453 148.117 18.4922C147.654 18.0339 147.422 17.4661 147.422 16.7891C147.422 16.4036 147.503 16.0833 147.664 15.8281C147.992 15.3073 148.971 14.8099 150.602 14.3359C151.544 14.0755 152.086 13.8516 152.227 13.6641C152.372 13.4766 152.453 13.3307 152.469 13.2266C152.484 13.1172 152.492 12.9453 152.492 12.7109C152.492 12.4766 152.396 12.2474 152.203 12.0234C152.016 11.7995 151.604 11.6875 150.969 11.6875C150.073 11.6875 149.523 11.8594 149.32 12.2031C149.216 12.3802 149.164 12.6198 149.164 12.9219V13.2891H147.75V12.9141C147.75 12.1068 148.018 11.513 148.555 11.1328C149.096 10.7526 149.904 10.5625 150.977 10.5625C152.049 10.5625 152.815 10.8073 153.273 11.2969C153.732 11.7812 153.961 12.474 153.961 13.375V16.9062C153.961 17.3385 154.016 17.6198 154.125 17.75C154.234 17.875 154.469 17.9375 154.828 17.9375L154.656 19.0625H154.359C153.839 19.0625 153.451 18.9635 153.195 18.7656C152.94 18.5625 152.745 18.25 152.609 17.8281C152.177 18.474 151.656 18.8802 151.047 19.0469C150.755 19.1302 150.43 19.1719 150.07 19.1719ZM150.805 15.3438C150.065 15.5573 149.552 15.7708 149.266 15.9844C148.984 16.1979 148.844 16.5 148.844 16.8906C148.844 17.276 148.974 17.5677 149.234 17.7656C149.5 17.9635 149.818 18.0625 150.188 18.0625C150.562 18.0625 150.901 18.0156 151.203 17.9219C151.505 17.8229 151.776 17.6797 152.016 17.4922C152.26 17.2995 152.419 17.0807 152.492 16.8359V14.4453C152.112 14.8255 151.549 15.125 150.805 15.3438ZM162.172 16.6641C162.172 17.5859 162.826 18.0469 164.133 18.0469C165.44 18.0469 166.094 17.5859 166.094 16.6641V13.0781C166.094 12.151 165.44 11.6875 164.133 11.6875C162.826 11.6875 162.172 12.151 162.172 13.0781V16.6641ZM167.562 16.5391C167.562 17.3516 167.284 17.9948 166.727 18.4688C166.174 18.9375 165.307 19.1719 164.125 19.1719C162.943 19.1719 162.076 18.9375 161.523 18.4688C160.977 18 160.703 17.3568 160.703 16.5391V13.2031C160.703 12.3854 160.977 11.7422 161.523 11.2734C162.076 10.7995 162.943 10.5625 164.125 10.5625C165.307 10.5625 166.174 10.7995 166.727 11.2734C167.284 11.7474 167.562 12.3906 167.562 13.2031V16.5391ZM173.336 10.5625C174.003 10.5625 174.615 10.6667 175.172 10.875V7.23438H176.641V19H175.641L175.398 18.4531C175.143 18.651 174.807 18.8203 174.391 18.9609C173.974 19.1016 173.562 19.1719 173.156 19.1719C172.026 19.1719 171.195 18.9219 170.664 18.4219C170.138 17.9167 169.875 17.237 169.875 16.3828V13.2578C169.875 12.3984 170.159 11.7344 170.727 11.2656C171.294 10.7969 172.164 10.5625 173.336 10.5625ZM171.344 16.4922C171.344 16.987 171.518 17.3646 171.867 17.625C172.221 17.8854 172.635 18.0156 173.109 18.0156C173.953 18.0156 174.641 17.8516 175.172 17.5234V12.0312C174.698 11.8021 174.122 11.6875 173.445 11.6875C172.044 11.6875 171.344 12.1562 171.344 13.0938V16.4922ZM181.773 19.1719C180.935 19.1719 180.284 18.9453 179.82 18.4922C179.357 18.0339 179.125 17.4661 179.125 16.7891C179.125 16.4036 179.206 16.0833 179.367 15.8281C179.695 15.3073 180.674 14.8099 182.305 14.3359C183.247 14.0755 183.789 13.8516 183.93 13.6641C184.076 13.4766 184.156 13.3307 184.172 13.2266C184.188 13.1172 184.195 12.9453 184.195 12.7109C184.195 12.4766 184.099 12.2474 183.906 12.0234C183.719 11.7995 183.307 11.6875 182.672 11.6875C181.776 11.6875 181.227 11.8594 181.023 12.2031C180.919 12.3802 180.867 12.6198 180.867 12.9219V13.2891H179.453V12.9141C179.453 12.1068 179.721 11.513 180.258 11.1328C180.799 10.7526 181.607 10.5625 182.68 10.5625C183.753 10.5625 184.518 10.8073 184.977 11.2969C185.435 11.7812 185.664 12.474 185.664 13.375V16.9062C185.664 17.3385 185.719 17.6198 185.828 17.75C185.938 17.875 186.172 17.9375 186.531 17.9375L186.359 19.0625H186.062C185.542 19.0625 185.154 18.9635 184.898 18.7656C184.643 18.5625 184.448 18.25 184.312 17.8281C183.88 18.474 183.359 18.8802 182.75 19.0469C182.458 19.1302 182.133 19.1719 181.773 19.1719ZM182.508 15.3438C181.768 15.5573 181.255 15.7708 180.969 15.9844C180.688 16.1979 180.547 16.5 180.547 16.8906C180.547 17.276 180.677 17.5677 180.938 17.7656C181.203 17.9635 181.521 18.0625 181.891 18.0625C182.266 18.0625 182.604 18.0156 182.906 17.9219C183.208 17.8229 183.479 17.6797 183.719 17.4922C183.964 17.2995 184.122 17.0807 184.195 16.8359V14.4453C183.815 14.8255 183.253 15.125 182.508 15.3438ZM188.703 19V7.23438H190.172V14.9062L194.133 10.7188H195.742L192.375 14.3594L196.078 19H194.383L191.414 15.1562L190.172 16.3906V19H188.703ZM200.391 19.0625C199.906 19.0625 199.51 19.026 199.203 18.9531C198.896 18.8802 198.625 18.7422 198.391 18.5391C197.953 18.1589 197.734 17.3802 197.734 16.2031V7.24219H199.203V16.2188C199.203 16.8854 199.302 17.3203 199.5 17.5234C199.698 17.7266 200.107 17.8281 200.727 17.8281H200.984L200.812 19.0625H200.391ZM206.289 19.1719C205.076 19.1719 204.198 18.9193 203.656 18.4141C203.115 17.9089 202.844 17.1302 202.844 16.0781V13.1953C202.844 12.3776 203.122 11.7344 203.68 11.2656C204.237 10.7969 205.078 10.5625 206.203 10.5625C207.333 10.5625 208.172 10.7812 208.719 11.2188C209.271 11.651 209.547 12.2708 209.547 13.0781V15.0469H204.312V16.2109C204.312 16.8984 204.451 17.3776 204.727 17.6484C205.003 17.9141 205.5 18.0469 206.219 18.0469C206.938 18.0469 207.344 18.0312 207.438 18C207.531 17.9688 207.628 17.9323 207.727 17.8906C207.826 17.849 207.893 17.7995 207.93 17.7422C207.971 17.6849 208.023 17.599 208.086 17.4844C208.154 17.3646 208.203 17.1354 208.234 16.7969H209.531C209.479 17.2917 209.391 17.6901 209.266 17.9922C209.146 18.2943 208.953 18.5365 208.688 18.7188C208.427 18.8958 208.112 19.0156 207.742 19.0781C207.378 19.1406 206.893 19.1719 206.289 19.1719ZM204.312 14.0547H208.125V12.9219C208.125 12.4531 207.964 12.1302 207.641 11.9531C207.323 11.776 206.854 11.6875 206.234 11.6875C205.615 11.6875 205.138 11.7943 204.805 12.0078C204.477 12.2214 204.312 12.5729 204.312 13.0625V14.0547ZM214.984 21.7578L214.836 20.5391H215.062C215.594 20.5391 215.948 20.4688 216.125 20.3281C216.302 20.1927 216.417 20.0234 216.469 19.8203C216.521 19.6224 216.547 19.3594 216.547 19.0312V10.7188H218.016V18.9453C218.016 20.3047 217.703 21.1458 217.078 21.4688C216.708 21.6615 216.182 21.7578 215.5 21.7578H214.984ZM216.547 9.22656V7.70312H218.016V9.22656H216.547ZM224.039 19.1719C222.826 19.1719 221.948 18.9193 221.406 18.4141C220.865 17.9089 220.594 17.1302 220.594 16.0781V13.1953C220.594 12.3776 220.872 11.7344 221.43 11.2656C221.987 10.7969 222.828 10.5625 223.953 10.5625C225.083 10.5625 225.922 10.7812 226.469 11.2188C227.021 11.651 227.297 12.2708 227.297 13.0781V15.0469H222.062V16.2109C222.062 16.8984 222.201 17.3776 222.477 17.6484C222.753 17.9141 223.25 18.0469 223.969 18.0469C224.688 18.0469 225.094 18.0312 225.188 18C225.281 17.9688 225.378 17.9323 225.477 17.8906C225.576 17.849 225.643 17.7995 225.68 17.7422C225.721 17.6849 225.773 17.599 225.836 17.4844C225.904 17.3646 225.953 17.1354 225.984 16.7969H227.281C227.229 17.2917 227.141 17.6901 227.016 17.9922C226.896 18.2943 226.703 18.5365 226.438 18.7188C226.177 18.8958 225.862 19.0156 225.492 19.0781C225.128 19.1406 224.643 19.1719 224.039 19.1719ZM222.062 14.0547H225.875V12.9219C225.875 12.4531 225.714 12.1302 225.391 11.9531C225.073 11.776 224.604 11.6875 223.984 11.6875C223.365 11.6875 222.888 11.7943 222.555 12.0078C222.227 12.2214 222.062 12.5729 222.062 13.0625V14.0547ZM233.938 22.1875V10.7188H235.094L235.266 11.3438C235.505 11.1302 235.833 10.9479 236.25 10.7969C236.667 10.6406 237.099 10.5625 237.547 10.5625C238.573 10.5625 239.352 10.8125 239.883 11.3125C240.419 11.8125 240.688 12.4766 240.688 13.3047V16.3125C240.688 17.1667 240.396 17.8568 239.812 18.3828C239.229 18.9089 238.411 19.1719 237.359 19.1719C236.63 19.1719 235.979 19.026 235.406 18.7344V22.1875H233.938ZM235.406 17.6016C235.932 17.8984 236.521 18.0469 237.172 18.0469C237.823 18.0469 238.326 17.9089 238.68 17.6328C239.039 17.3568 239.219 16.9688 239.219 16.4688V13.1875C239.219 12.7083 239.042 12.3385 238.688 12.0781C238.339 11.8177 237.909 11.6875 237.398 11.6875C236.893 11.6875 236.461 11.7917 236.102 12C235.747 12.2083 235.516 12.3958 235.406 12.5625V17.6016ZM244.469 16.6641C244.469 17.5859 245.122 18.0469 246.43 18.0469C247.737 18.0469 248.391 17.5859 248.391 16.6641V13.0781C248.391 12.151 247.737 11.6875 246.43 11.6875C245.122 11.6875 244.469 12.151 244.469 13.0781V16.6641ZM249.859 16.5391C249.859 17.3516 249.581 17.9948 249.023 18.4688C248.471 18.9375 247.604 19.1719 246.422 19.1719C245.24 19.1719 244.372 18.9375 243.82 18.4688C243.273 18 243 17.3568 243 16.5391V13.2031C243 12.3854 243.273 11.7422 243.82 11.2734C244.372 10.7995 245.24 10.5625 246.422 10.5625C247.604 10.5625 248.471 10.7995 249.023 11.2734C249.581 11.7474 249.859 12.3906 249.859 13.2031V16.5391ZM254.836 9.28906L253.234 7.21094H254.445L255.414 8.57031L256.445 7.21094H257.703L256.008 9.28906H254.836ZM255.539 19.1719C253.846 19.1719 252.786 18.5833 252.359 17.4062C252.234 17.0729 252.172 16.7083 252.172 16.3125V13.1562C252.172 12.3698 252.471 11.7422 253.07 11.2734C253.669 10.7995 254.479 10.5625 255.5 10.5625C256.802 10.5625 257.698 10.8438 258.188 11.4062C258.573 11.8438 258.766 12.4896 258.766 13.3438L257.367 13.4766C257.367 12.737 257.234 12.2552 256.969 12.0312C256.708 11.8021 256.242 11.6875 255.57 11.6875C254.898 11.6875 254.409 11.8047 254.102 12.0391C253.794 12.2734 253.641 12.6589 253.641 13.1953V16.4375C253.641 17.0104 253.802 17.4219 254.125 17.6719C254.448 17.9219 254.945 18.0469 255.617 18.0469C256.294 18.0469 256.745 17.9583 256.969 17.7812C257.198 17.6042 257.339 17.2031 257.391 16.5781H258.75C258.667 17.5365 258.391 18.2083 257.922 18.5938C257.453 18.9792 256.659 19.1719 255.539 19.1719ZM264.289 19.1719C263.076 19.1719 262.198 18.9193 261.656 18.4141C261.115 17.9089 260.844 17.1302 260.844 16.0781V13.1953C260.844 12.3776 261.122 11.7344 261.68 11.2656C262.237 10.7969 263.078 10.5625 264.203 10.5625C265.333 10.5625 266.172 10.7812 266.719 11.2188C267.271 11.651 267.547 12.2708 267.547 13.0781V15.0469H262.312V16.2109C262.312 16.8984 262.451 17.3776 262.727 17.6484C263.003 17.9141 263.5 18.0469 264.219 18.0469C264.938 18.0469 265.344 18.0312 265.438 18C265.531 17.9688 265.628 17.9323 265.727 17.8906C265.826 17.849 265.893 17.7995 265.93 17.7422C265.971 17.6849 266.023 17.599 266.086 17.4844C266.154 17.3646 266.203 17.1354 266.234 16.7969H267.531C267.479 17.2917 267.391 17.6901 267.266 17.9922C267.146 18.2943 266.953 18.5365 266.688 18.7188C266.427 18.8958 266.112 19.0156 265.742 19.0781C265.378 19.1406 264.893 19.1719 264.289 19.1719ZM262.312 14.0547H266.125V12.9219C266.125 12.4531 265.964 12.1302 265.641 11.9531C265.323 11.776 264.854 11.6875 264.234 11.6875C263.615 11.6875 263.138 11.7943 262.805 12.0078C262.477 12.2214 262.312 12.5729 262.312 13.0625V14.0547ZM271.359 16.6641C271.359 17.5859 272.013 18.0469 273.32 18.0469C274.628 18.0469 275.281 17.5859 275.281 16.6641V13.0781C275.281 12.151 274.628 11.6875 273.32 11.6875C272.013 11.6875 271.359 12.151 271.359 13.0781V16.6641ZM276.75 16.5391C276.75 17.3516 276.471 17.9948 275.914 18.4688C275.362 18.9375 274.495 19.1719 273.312 19.1719C272.13 19.1719 271.263 18.9375 270.711 18.4688C270.164 18 269.891 17.3568 269.891 16.5391V13.2031C269.891 12.3854 270.164 11.7422 270.711 11.2734C271.263 10.7995 272.13 10.5625 273.312 10.5625C274.495 10.5625 275.362 10.7995 275.914 11.2734C276.471 11.7474 276.75 12.3906 276.75 13.2031V16.5391ZM279.359 19V17.1094H281.359V19H279.359ZM288.297 19V17.8281H290.453V8.86719H288.297V7.70312H294.172V8.86719H292.023V17.8281H294.172V19H288.297ZM296.75 19V18.0781L300.711 11.6875H296.891V10.7188H302.258V11.6172L298.273 18.0312H302.328V19H296.75ZM307.328 19.0625C306.844 19.0625 306.448 19.026 306.141 18.9531C305.833 18.8802 305.562 18.7422 305.328 18.5391C304.891 18.1589 304.672 17.3802 304.672 16.2031V7.24219H306.141V16.2188C306.141 16.8854 306.24 17.3203 306.438 17.5234C306.635 17.7266 307.044 17.8281 307.664 17.8281H307.922L307.75 19.0625H307.328ZM312.305 19.1719C311.466 19.1719 310.815 18.9453 310.352 18.4922C309.888 18.0339 309.656 17.4661 309.656 16.7891C309.656 16.4036 309.737 16.0833 309.898 15.8281C310.227 15.3073 311.206 14.8099 312.836 14.3359C313.779 14.0755 314.32 13.8516 314.461 13.6641C314.607 13.4766 314.688 13.3307 314.703 13.2266C314.719 13.1172 314.727 12.9453 314.727 12.7109C314.727 12.4766 314.63 12.2474 314.438 12.0234C314.25 11.7995 313.839 11.6875 313.203 11.6875C312.307 11.6875 311.758 11.8594 311.555 12.2031C311.451 12.3802 311.398 12.6198 311.398 12.9219V13.2891H309.984V12.9141C309.984 12.1068 310.253 11.513 310.789 11.1328C311.331 10.7526 312.138 10.5625 313.211 10.5625C314.284 10.5625 315.049 10.8073 315.508 11.2969C315.966 11.7812 316.195 12.474 316.195 13.375V16.9062C316.195 17.3385 316.25 17.6198 316.359 17.75C316.469 17.875 316.703 17.9375 317.062 17.9375L316.891 19.0625H316.594C316.073 19.0625 315.685 18.9635 315.43 18.7656C315.174 18.5625 314.979 18.25 314.844 17.8281C314.411 18.474 313.891 18.8802 313.281 19.0469C312.99 19.1302 312.664 19.1719 312.305 19.1719ZM313.039 15.3438C312.299 15.5573 311.786 15.7708 311.5 15.9844C311.219 16.1979 311.078 16.5 311.078 16.8906C311.078 17.276 311.208 17.5677 311.469 17.7656C311.734 17.9635 312.052 18.0625 312.422 18.0625C312.797 18.0625 313.135 18.0156 313.438 17.9219C313.74 17.8229 314.01 17.6797 314.25 17.4922C314.495 17.2995 314.654 17.0807 314.727 16.8359V14.4453C314.346 14.8255 313.784 15.125 313.039 15.3438ZM318.875 19V18.0781L322.836 11.6875H319.016V10.7188H324.383V11.6172L320.398 18.0312H324.453V19H318.875ZM326.922 19V10.7188H328.391V19H326.922ZM326.922 9.22656V7.70312H328.391V9.22656H326.922ZM335.578 19V10.7188H337.047V19H335.578ZM335.578 9.22656V7.70312H337.047V9.22656H335.578ZM339.719 19V18.0781L343.68 11.6875H339.859V10.7188H345.227V11.6172L341.242 18.0312H345.297V19H339.719ZM355.438 19.0625C354.281 19.0625 353.445 18.8802 352.93 18.5156C352.419 18.151 352.164 17.5234 352.164 16.6328V11.8281H350.781V10.7188H352.219L352.398 8.15625H353.633V10.7188H355.711V11.8281H353.633V16.5391C353.633 17.0599 353.781 17.4062 354.078 17.5781C354.38 17.7448 354.904 17.8281 355.648 17.8281H355.812L355.656 19.0625H355.438ZM359.344 16.6641C359.344 17.5859 359.997 18.0469 361.305 18.0469C362.612 18.0469 363.266 17.5859 363.266 16.6641V13.0781C363.266 12.151 362.612 11.6875 361.305 11.6875C359.997 11.6875 359.344 12.151 359.344 13.0781V16.6641ZM364.734 16.5391C364.734 17.3516 364.456 17.9948 363.898 18.4688C363.346 18.9375 362.479 19.1719 361.297 19.1719C360.115 19.1719 359.247 18.9375 358.695 18.4688C358.148 18 357.875 17.3568 357.875 16.5391V13.2031C357.875 12.3854 358.148 11.7422 358.695 11.2734C359.247 10.7995 360.115 10.5625 361.297 10.5625C362.479 10.5625 363.346 10.7995 363.898 11.2734C364.456 11.7474 364.734 12.3906 364.734 13.2031V16.5391ZM368.195 20.7734C368.737 20.9714 369.401 21.0703 370.188 21.0703C370.974 21.0703 371.523 20.9219 371.836 20.625C372.154 20.3281 372.312 19.8672 372.312 19.2422V18.0938C372.099 18.2917 371.779 18.4401 371.352 18.5391C370.93 18.638 370.542 18.6875 370.188 18.6875C368.094 18.6875 367.047 17.8047 367.047 16.0391V13.3125C367.047 12.4531 367.307 11.7812 367.828 11.2969C368.354 10.8073 369.141 10.5625 370.188 10.5625C370.604 10.5625 371.031 10.651 371.469 10.8281C371.911 11 372.193 11.1849 372.312 11.3828V10.7188H373.781V18.8047C373.781 19.7995 373.518 20.612 372.992 21.2422C372.471 21.8724 371.628 22.1875 370.461 22.1875C369.294 22.1875 368.43 22.0833 367.867 21.875L368.195 20.7734ZM372.312 12.8281C372.312 12.0677 371.68 11.6875 370.414 11.6875C369.148 11.6875 368.516 12.1771 368.516 13.1562V16.2656C368.516 17.1302 369.148 17.5625 370.414 17.5625C371.159 17.5625 371.792 17.3542 372.312 16.9375V12.8281ZM382.977 9.28906L381.375 7.21094H382.586L383.555 8.57031L384.586 7.21094H385.844L384.148 9.28906H382.977ZM383.68 19.1719C381.987 19.1719 380.927 18.5833 380.5 17.4062C380.375 17.0729 380.312 16.7083 380.312 16.3125V13.1562C380.312 12.3698 380.612 11.7422 381.211 11.2734C381.81 10.7995 382.62 10.5625 383.641 10.5625C384.943 10.5625 385.839 10.8438 386.328 11.4062C386.714 11.8438 386.906 12.4896 386.906 13.3438L385.508 13.4766C385.508 12.737 385.375 12.2552 385.109 12.0312C384.849 11.8021 384.383 11.6875 383.711 11.6875C383.039 11.6875 382.549 11.8047 382.242 12.0391C381.935 12.2734 381.781 12.6589 381.781 13.1953V16.4375C381.781 17.0104 381.943 17.4219 382.266 17.6719C382.589 17.9219 383.086 18.0469 383.758 18.0469C384.435 18.0469 384.885 17.9583 385.109 17.7812C385.339 17.6042 385.479 17.2031 385.531 16.5781H386.891C386.807 17.5365 386.531 18.2083 386.062 18.5938C385.594 18.9792 384.799 19.1719 383.68 19.1719ZM391.539 19L388.328 10.7188H389.805L392.297 17.4375L394.516 10.7188H395.953L393.023 19H391.539ZM399.078 16.6641C399.078 17.5859 399.732 18.0469 401.039 18.0469C402.346 18.0469 403 17.5859 403 16.6641V13.0781C403 12.151 402.346 11.6875 401.039 11.6875C399.732 11.6875 399.078 12.151 399.078 13.0781V16.6641ZM404.469 16.5391C404.469 17.3516 404.19 17.9948 403.633 18.4688C403.081 18.9375 402.214 19.1719 401.031 19.1719C399.849 19.1719 398.982 18.9375 398.43 18.4688C397.883 18 397.609 17.3568 397.609 16.5391V13.2031C397.609 12.3854 397.883 11.7422 398.43 11.2734C398.982 10.7995 399.849 10.5625 401.031 10.5625C402.214 10.5625 403.081 10.7995 403.633 11.2734C404.19 11.7474 404.469 12.3906 404.469 13.2031V16.5391ZM407.078 19V10.7188H408.547V11.8906C408.734 11.3802 409.242 11.0104 410.07 10.7812C410.503 10.6562 410.953 10.5964 411.422 10.6016L411.375 11.8594C410.667 11.8594 410.018 12 409.43 12.2812C408.841 12.5625 408.547 12.8698 408.547 13.2031V19H407.078ZM415.508 19.1719C414.669 19.1719 414.018 18.9453 413.555 18.4922C413.091 18.0339 412.859 17.4661 412.859 16.7891C412.859 16.4036 412.94 16.0833 413.102 15.8281C413.43 15.3073 414.409 14.8099 416.039 14.3359C416.982 14.0755 417.523 13.8516 417.664 13.6641C417.81 13.4766 417.891 13.3307 417.906 13.2266C417.922 13.1172 417.93 12.9453 417.93 12.7109C417.93 12.4766 417.833 12.2474 417.641 12.0234C417.453 11.7995 417.042 11.6875 416.406 11.6875C415.51 11.6875 414.961 11.8594 414.758 12.2031C414.654 12.3802 414.602 12.6198 414.602 12.9219V13.2891H413.188V12.9141C413.188 12.1068 413.456 11.513 413.992 11.1328C414.534 10.7526 415.341 10.5625 416.414 10.5625C417.487 10.5625 418.253 10.8073 418.711 11.2969C419.169 11.7812 419.398 12.474 419.398 13.375V16.9062C419.398 17.3385 419.453 17.6198 419.562 17.75C419.672 17.875 419.906 17.9375 420.266 17.9375L420.094 19.0625H419.797C419.276 19.0625 418.888 18.9635 418.633 18.7656C418.378 18.5625 418.182 18.25 418.047 17.8281C417.615 18.474 417.094 18.8802 416.484 19.0469C416.193 19.1302 415.867 19.1719 415.508 19.1719ZM416.242 15.3438C415.503 15.5573 414.99 15.7708 414.703 15.9844C414.422 16.1979 414.281 16.5 414.281 16.8906C414.281 17.276 414.411 17.5677 414.672 17.7656C414.938 17.9635 415.255 18.0625 415.625 18.0625C416 18.0625 416.339 18.0156 416.641 17.9219C416.943 17.8229 417.214 17.6797 417.453 17.4922C417.698 17.2995 417.857 17.0807 417.93 16.8359V14.4453C417.549 14.8255 416.987 15.125 416.242 15.3438ZM422.438 19V17.1094H424.438V19H422.438Z" fill="#C9D1D9"/>
<path d="M144.679 225.453C145.145 225.75 145.763 225.612 146.06 225.146L150.892 217.554C151.189 217.088 151.051 216.47 150.586 216.173C150.12 215.877 149.502 216.014 149.205 216.48L144.91 223.229L138.161 218.933C137.695 218.637 137.077 218.774 136.78 219.24C136.483 219.706 136.621 220.324 137.087 220.621L144.679 225.453ZM125.326 139.688L144.24 224.826L146.192 224.393L127.278 139.254L125.326 139.688Z" fill="#C4A8A8"/>
<path d="M269.067 176.328C269.548 176.057 269.718 175.447 269.447 174.966L265.023 167.128C264.752 166.647 264.142 166.477 263.661 166.749C263.18 167.02 263.01 167.63 263.281 168.111L267.213 175.078L260.246 179.01C259.765 179.282 259.596 179.892 259.867 180.372C260.138 180.853 260.748 181.023 261.229 180.752L269.067 176.328ZM136.077 139.597L268.308 176.421L268.844 174.494L136.613 137.67L136.077 139.597Z" fill="#FF7F50"/>
<path d="M135.227 117.487C135.157 118.035 135.544 118.536 136.091 118.607L145.018 119.754C145.566 119.824 146.067 119.437 146.137 118.89C146.208 118.342 145.821 117.841 145.273 117.77L137.338 116.751L138.358 108.816C138.428 108.268 138.041 107.767 137.494 107.696C136.946 107.626 136.445 108.013 136.374 108.561L135.227 117.487ZM285.497 181.341C278.995 155.491 271.758 134.402 263.21 118.343C254.664 102.287 244.76 91.174 232.884 85.4095C220.982 79.6321 207.252 79.3005 191.222 84.4994C175.214 89.6912 156.858 100.413 135.608 116.823L136.83 118.406C157.998 102.06 176.143 91.4922 191.839 86.4018C207.512 81.3185 220.687 81.7122 232.011 87.2087C243.361 92.7179 253.005 103.427 261.445 119.283C269.884 135.136 277.073 156.048 283.557 181.829L285.497 181.341Z" fill="#FFD700"/>
<path d="M292.171 331.023C292.578 331.396 293.21 331.368 293.584 330.961L299.663 324.325C300.036 323.918 300.009 323.285 299.601 322.912C299.194 322.539 298.562 322.567 298.189 322.974L292.784 328.873L286.886 323.469C286.478 323.095 285.846 323.123 285.473 323.53C285.1 323.938 285.127 324.57 285.535 324.943L292.171 331.023ZM285.989 196.425L291.847 330.329L293.845 330.242L287.987 196.337L285.989 196.425Z" fill="#FF7F50"/>
<path d="M279.528 356.645C279.758 356.143 279.537 355.55 279.035 355.32L270.849 351.578C270.347 351.349 269.754 351.57 269.524 352.072C269.295 352.574 269.516 353.168 270.018 353.397L277.294 356.723L273.968 363.999C273.738 364.501 273.959 365.095 274.461 365.324C274.964 365.554 275.557 365.333 275.786 364.831L279.528 356.645ZM150.921 404.869L278.968 357.167L278.27 355.293L150.223 402.995L150.921 404.869Z" fill="#FF7F50"/>
<path d="M121.553 394.907C122.102 394.967 122.596 394.571 122.656 394.022L123.641 385.076C123.701 384.527 123.305 384.033 122.756 383.973C122.207 383.913 121.713 384.309 121.653 384.858L120.778 392.81L112.826 391.934C112.277 391.874 111.783 392.27 111.722 392.819C111.662 393.368 112.058 393.862 112.607 393.922L121.553 394.907ZM36.3467 289.095L120.882 394.539L122.443 393.287L37.9072 287.844L36.3467 289.095Z" fill="#FF7F50"/>
<path d="M114.728 147.639C114.617 147.098 114.089 146.749 113.548 146.86L104.731 148.67C104.19 148.781 103.842 149.309 103.953 149.85C104.064 150.391 104.592 150.74 105.133 150.629L112.97 149.02L114.578 156.857C114.689 157.398 115.218 157.747 115.759 157.636C116.3 157.525 116.649 156.996 116.538 156.455L114.728 147.639ZM38.4251 263.883L114.583 148.39L112.914 147.289L36.7554 262.782L38.4251 263.883Z" fill="#FF7F50"/>
<path d="M273.692 192.56C273.893 192.046 273.639 191.466 273.124 191.265L264.741 187.99C264.227 187.789 263.647 188.043 263.446 188.557C263.245 189.072 263.499 189.651 264.014 189.852L271.465 192.764L268.554 200.215C268.353 200.73 268.607 201.31 269.121 201.511C269.636 201.712 270.216 201.458 270.417 200.943L273.692 192.56ZM151.786 246.289L273.162 193.112L272.359 191.28L150.984 244.457L151.786 246.289Z" fill="#C3A8A8"/>
<path d="M382.543 286.941C382.639 286.397 382.276 285.878 381.733 285.782L372.871 284.212C372.327 284.116 371.808 284.479 371.711 285.022C371.615 285.566 371.978 286.085 372.522 286.181L380.399 287.577L379.004 295.454C378.907 295.998 379.27 296.517 379.814 296.613C380.358 296.71 380.877 296.347 380.973 295.803L382.543 286.941ZM295.93 347.843L382.131 287.586L380.985 285.947L294.784 346.204L295.93 347.843Z" fill="#FF7F50"/>
<path d="M45.254 270.674C44.8588 271.06 44.8511 271.693 45.2368 272.088L51.5227 278.53C51.9084 278.925 52.5415 278.933 52.9368 278.547C53.332 278.161 53.3398 277.528 52.954 277.133L47.3666 271.407L53.092 265.82C53.4873 265.434 53.495 264.801 53.1093 264.406C52.7235 264.01 52.0904 264.003 51.6952 264.388L45.254 270.674ZM396.406 274.665L45.9647 270.39L45.9403 272.39L396.382 276.665L396.406 274.665Z" fill="#FF7F50"/>
<path d="M43.7208 286.714C43.2491 287.001 43.0996 287.617 43.3868 288.088L48.0679 295.775C48.3551 296.247 48.9704 296.396 49.4421 296.109C49.9138 295.822 50.0633 295.207 49.776 294.735L45.6151 287.902L52.4479 283.741C52.9196 283.454 53.0691 282.839 52.7819 282.367C52.4946 281.895 51.8794 281.746 51.4077 282.033L43.7208 286.714ZM295.914 347.704L44.4771 286.597L44.0047 288.54L295.442 349.648L295.914 347.704Z" fill="#FF7F50"/>
<circle cx="149.849" cy="241.675" r="15.7381" fill="#C3A8A8" stroke="#C4A8A8" stroke-width="2"/>
<circle cx="285.314" cy="181.316" r="16.7381" fill="#31BA3E"/>
<circle cx="397.459" cy="275.05" r="15.7381" fill="#C3A8A8" stroke="#C4A8A8" stroke-width="2"/>
<circle cx="293.683" cy="348.697" r="16.7381" fill="#C4A8A8"/>
<circle cx="134.671" cy="407.281" r="16.7381" fill="#C4A8A8"/>
<circle cx="29.2211" cy="276.723" r="15.7381" fill="#C3A8A8" stroke="#C4A8A8" stroke-width="2"/>
<circle cx="122.955" cy="132.776" r="16.7381" fill="#C4C4C4"/>
<path d="M102.328 103.764C102.467 105.202 101.72 106.601 100.375 107.699C99.0298 108.797 97.0954 109.587 94.89 109.801C92.6845 110.015 90.6345 109.612 89.1036 108.793C87.572 107.973 86.5702 106.744 86.4308 105.306C86.2913 103.868 87.0381 102.469 88.3837 101.37C89.7286 100.272 91.6629 99.483 93.8684 99.2691C96.0739 99.0552 98.1239 99.4581 99.6548 100.277C101.186 101.097 102.188 102.326 102.328 103.764Z" fill="#7B6C6C" stroke="#C4A8A8" stroke-width="0.2"/>
<path d="M108.766 103.139C108.96 105.137 107.028 106.998 104.391 107.254C101.755 107.51 99.5013 106.054 99.3075 104.057C99.1138 102.059 101.046 100.197 103.682 99.9417C106.319 99.6859 108.572 101.142 108.766 103.139Z" fill="#7B6C6C" stroke="#C4C4C4" stroke-width="0.2"/>
<path d="M116.121 100.8C116.315 102.798 114.383 104.659 111.747 104.915C109.11 105.171 106.857 103.715 106.663 101.718C106.469 99.7203 108.401 97.8586 111.037 97.6028C113.674 97.3471 115.928 98.8029 116.121 100.8Z" fill="#7B6C6C" stroke="#C4C4C4" stroke-width="0.2"/>
<circle cx="118.401" cy="98.1426" r="4.48192" transform="rotate(-5.5403 118.401 98.1426)" fill="#7B6C6C" stroke="#C4C4C4" stroke-width="0.2"/>
<path d="M121.825 101.06C120.458 100.922 119.734 100.722 119.63 99.6484" stroke="black" stroke-width="0.3"/>
<path d="M92.2726 107.244C92.0744 109.959 92.0104 112.621 92.5638 115.287C92.6933 115.91 92.7615 116.561 92.9642 117.166C93.0869 117.532 93.4438 118.621 93.4065 118.236" stroke="#7B6C6C" stroke-linecap="round" stroke-linejoin="round"/>
<ellipse cx="94.313" cy="117.809" rx="1.34762" ry="0.808574" transform="rotate(-5.5403 94.313 117.809)" fill="#7B6C6C"/>
<path d="M95.9462 107.429C96.2845 108.477 96.6754 109.507 96.9948 110.561C97.1918 111.212 97.2205 111.902 97.3583 112.565C97.5051 113.271 97.5943 114.308 97.9556 114.884" stroke="#7B6C6C" stroke-linecap="round" stroke-linejoin="round"/>
<ellipse cx="98.9336" cy="115.195" rx="1.34762" ry="0.808574" transform="rotate(-5.5403 98.9336 115.195)" fill="#7B6C6C"/>
<path d="M103.486 106.291C103.771 106.937 104.155 107.603 104.224 108.318C104.257 108.663 104.291 109.009 104.324 109.354C104.406 110.192 104.411 111.008 104.435 111.848C104.444 112.197 104.519 112.543 104.517 112.893C104.515 113.385 104.436 113.879 104.473 114.372C104.495 114.677 104.607 115.038 104.78 115.29C104.868 115.418 105.019 115.825 105.061 115.548" stroke="#7B6C6C" stroke-linecap="round" stroke-linejoin="round"/>
<ellipse cx="105.96" cy="115.055" rx="1.34762" ry="0.808574" transform="rotate(-5.5403 105.96 115.055)" fill="#7B6C6C"/>
<path d="M106.609 105.514C106.89 106.569 107.311 107.648 107.248 108.769C107.2 109.628 107.184 110.546 107.058 111.39C106.965 112.017 107.1 112.671 107.161 113.298C107.196 113.667 107.37 114.136 107.729 114.274" stroke="#7B6C6C" stroke-linecap="round" stroke-linejoin="round"/>
<ellipse cx="108.539" cy="113.722" rx="1.34762" ry="0.808574" transform="rotate(-5.5403 108.539 113.722)" fill="#7B6C6C"/>
<path d="M112.001 104.044C112.356 104.615 112.744 105.184 113.05 105.785C113.23 106.141 113.357 106.523 113.561 106.868C113.91 107.459 114.122 108.118 114.451 108.718C114.884 109.507 114.997 110.407 115.466 111.155" stroke="#7B6C6C" stroke-linecap="round" stroke-linejoin="round"/>
<ellipse cx="116.379" cy="110.795" rx="1.34762" ry="0.808574" transform="rotate(-5.5403 116.379 110.795)" fill="#7B6C6C"/>
<path d="M114.283 103.146C115.024 104.619 116.356 105.722 116.971 107.285C117.193 107.849 117.548 108.344 117.767 108.9C117.872 109.166 118.105 109.388 118.166 109.674C118.178 109.733 118.247 109.781 118.283 109.832C118.378 109.97 118.299 109.648 118.293 109.594" stroke="#7B6C6C" stroke-linecap="round" stroke-linejoin="round"/>
<ellipse cx="119.159" cy="109.442" rx="1.34762" ry="0.808574" transform="rotate(-5.5403 119.159 109.442)" fill="#7B6C6C"/>
<path d="M118.311 94.6308C118.167 91.7939 117.585 90.6131 115.141 89.6572" stroke="#7B6C6C"/>
<path d="M120.477 94.4207C120.316 91.4073 119.724 90.1501 117.255 89.1221" stroke="#7B6C6C"/>
<ellipse cx="117.508" cy="88.9329" rx="0.808574" ry="0.492786" transform="rotate(-5.5403 117.508 88.9329)" fill="#C4C4C4"/>
<ellipse cx="114.857" cy="89.5198" rx="0.808574" ry="0.492786" transform="rotate(-5.5403 114.857 89.5198)" fill="#C4C4C4"/>
<circle cx="120.149" cy="96.6194" r="1.0281" transform="rotate(-5.5403 120.149 96.6194)" fill="#C4C4C4" stroke="black" stroke-width="0.1"/>
<g filter="url(#filter0_f)">
<path d="M97.8394 99.9252C95.6464 99.3418 94.18 99.576 91.6744 100.241C91.4387 100.304 91.2828 100.529 91.3063 100.772L91.3706 101.434C91.3994 101.731 91.6815 101.936 91.9746 101.879C94.0444 101.472 95.3835 101.452 97.37 101.905C97.649 101.969 97.929 101.793 97.9849 101.512L98.1879 100.495C98.2383 100.242 98.0884 99.9915 97.8394 99.9252Z" fill="#C9D1D9"/>
</g>
<g filter="url(#filter1_f)">
<path d="M104.505 100.429C103.131 100.344 102.264 100.59 101.023 101.422C100.828 101.552 100.758 101.804 100.849 102.019L100.991 102.356C101.11 102.638 101.451 102.747 101.718 102.598C102.672 102.067 103.409 101.848 104.49 101.833C104.802 101.829 105.05 101.559 105.008 101.25L104.953 100.852C104.921 100.623 104.736 100.444 104.505 100.429Z" fill="#C9D1D9"/>
</g>
<g filter="url(#filter2_f)">
<path d="M111.229 98.1727C109.846 98.331 109.022 98.7271 107.922 99.7709C107.752 99.9324 107.725 100.193 107.852 100.39L108.049 100.698C108.214 100.955 108.568 101.004 108.806 100.813C109.674 100.114 110.375 99.7664 111.458 99.5605C111.763 99.5026 111.96 99.1961 111.867 98.9L111.746 98.5146C111.676 98.2923 111.461 98.1462 111.229 98.1727Z" fill="#C9D1D9"/>
</g>
<circle cx="120.31" cy="96.6036" r="0.53905" transform="rotate(-5.5403 120.31 96.6036)" fill="black"/>
<defs>
<filter id="filter0_f" x="87.2281" y="95.2998" width="15.1116" height="11.2036" filterUnits="userSpaceOnUse" color-interpolation-filters="sRGB">
<feFlood flood-opacity="0" result="BackgroundImageFix"/>
<feBlend mode="normal" in="SourceGraphic" in2="BackgroundImageFix" result="shape"/>
<feGaussianBlur stdDeviation="2" result="effect1_foregroundBlur"/>
</filter>
<filter id="filter1_f" x="96.6031" y="95.7852" width="12.6622" height="11.4173" filterUnits="userSpaceOnUse" color-interpolation-filters="sRGB">
<feFlood flood-opacity="0" result="BackgroundImageFix"/>
<feBlend mode="normal" in="SourceGraphic" in2="BackgroundImageFix" result="shape"/>
<feGaussianBlur stdDeviation="2" result="effect1_foregroundBlur"/>
</filter>
<filter id="filter2_f" x="103.51" y="93.5332" width="12.6625" height="11.9399" filterUnits="userSpaceOnUse" color-interpolation-filters="sRGB">
<feFlood flood-opacity="0" result="BackgroundImageFix"/>
<feBlend mode="normal" in="SourceGraphic" in2="BackgroundImageFix" result="shape"/>
<feGaussianBlur stdDeviation="2" result="effect1_foregroundBlur"/>
</filter>
</defs>
</svg>
