<svg width="500" height="406" viewBox="0 0 500 406" fill="none" xmlns="http://www.w3.org/2000/svg">
<path d="M1.70312 19V7.70312H2.89844L9.36719 16.7344V7.70312H10.75V19H9.35156L3.08594 10.375V19H1.70312ZM16.1328 19.1719C15.2943 19.1719 14.6432 18.9453 14.1797 18.4922C13.7161 18.0339 13.4844 17.4661 13.4844 16.7891C13.4844 16.4036 13.5651 16.0833 13.7266 15.8281C14.0547 15.3073 15.0339 14.8099 16.6641 14.3359C17.6068 14.0755 18.1484 13.8516 18.2891 13.6641C18.4349 13.4766 18.5156 13.3307 18.5312 13.2266C18.5469 13.1172 18.5547 12.9453 18.5547 12.7109C18.5547 12.4766 18.4583 12.2474 18.2656 12.0234C18.0781 11.7995 17.6667 11.6875 17.0312 11.6875C16.1354 11.6875 15.5859 11.8594 15.3828 12.2031C15.2786 12.3802 15.2266 12.6198 15.2266 12.9219V13.2891H13.8125V12.9141C13.8125 12.1068 14.0807 11.513 14.6172 11.1328C15.1589 10.7526 15.9661 10.5625 17.0391 10.5625C18.112 10.5625 18.8776 10.8073 19.3359 11.2969C19.7943 11.7812 20.0234 12.474 20.0234 13.375V16.9062C20.0234 17.3385 20.0781 17.6198 20.1875 17.75C20.2969 17.875 20.5312 17.9375 20.8906 17.9375L20.7188 19.0625H20.4219C19.901 19.0625 19.513 18.9635 19.2578 18.7656C19.0026 18.5625 18.8073 18.25 18.6719 17.8281C18.2396 18.474 17.7188 18.8802 17.1094 19.0469C16.8177 19.1302 16.4922 19.1719 16.1328 19.1719ZM16.8672 15.3438C16.1276 15.5573 15.6146 15.7708 15.3281 15.9844C15.0469 16.1979 14.9062 16.5 14.9062 16.8906C14.9062 17.276 15.0365 17.5677 15.2969 17.7656C15.5625 17.9635 15.8802 18.0625 16.25 18.0625C16.625 18.0625 16.9635 18.0156 17.2656 17.9219C17.5677 17.8229 17.8385 17.6797 18.0781 17.4922C18.3229 17.2995 18.4818 17.0807 18.5547 16.8359V14.4453C18.1745 14.8255 17.612 15.125 16.8672 15.3438ZM25.5391 18.0469C26.6484 18.0469 27.2031 17.6328 27.2031 16.8047C27.2031 16.4453 27.1536 16.1797 27.0547 16.0078C26.9557 15.8307 26.724 15.6745 26.3594 15.5391L24.3906 14.8125C23.7865 14.599 23.3646 14.3464 23.125 14.0547C22.8906 13.7578 22.7734 13.388 22.7734 12.9453C22.7734 12.5026 22.8177 12.1484 22.9062 11.8828C22.9948 11.612 23.1406 11.375 23.3438 11.1719C23.75 10.7656 24.4792 10.5625 25.5312 10.5625C26.5833 10.5625 27.4896 10.7135 28.25 11.0156L27.9141 12.1406C27.6484 12.0312 27.2995 11.9297 26.8672 11.8359C26.4349 11.737 26.0573 11.6875 25.7344 11.6875C24.9896 11.6875 24.5182 11.8073 24.3203 12.0469C24.2005 12.1979 24.1406 12.4193 24.1406 12.7109C24.1406 13.0026 24.1875 13.2109 24.2812 13.3359C24.3802 13.4557 24.5703 13.5651 24.8516 13.6641L26.7969 14.4297C27.474 14.6953 27.9193 14.9896 28.1328 15.3125C28.3464 15.6302 28.4531 16.1328 28.4531 16.8203C28.4531 17.5078 28.2318 18.0729 27.7891 18.5156C27.3464 18.9531 26.6615 19.1719 25.7344 19.1719C25.0573 19.1719 24.4557 19.099 23.9297 18.9531C23.4036 18.8073 23 18.6562 22.7188 18.5L23.0781 17.4219C23.8229 17.8385 24.6432 18.0469 25.5391 18.0469ZM34.6406 19.0625C33.4844 19.0625 32.6484 18.8802 32.1328 18.5156C31.6224 18.151 31.3672 17.5234 31.3672 16.6328V11.8281H29.9844V10.7188H31.4219L31.6016 8.15625H32.8359V10.7188H34.9141V11.8281H32.8359V16.5391C32.8359 17.0599 32.9844 17.4062 33.2812 17.5781C33.5833 17.7448 34.1068 17.8281 34.8516 17.8281H35.0156L34.8594 19.0625H34.6406ZM39.6016 19.1719C38.763 19.1719 38.112 18.9453 37.6484 18.4922C37.1849 18.0339 36.9531 17.4661 36.9531 16.7891C36.9531 16.4036 37.0339 16.0833 37.1953 15.8281C37.5234 15.3073 38.5026 14.8099 40.1328 14.3359C41.0755 14.0755 41.6172 13.8516 41.7578 13.6641C41.9036 13.4766 41.9844 13.3307 42 13.2266C42.0156 13.1172 42.0234 12.9453 42.0234 12.7109C42.0234 12.4766 41.9271 12.2474 41.7344 12.0234C41.5469 11.7995 41.1354 11.6875 40.5 11.6875C39.6042 11.6875 39.0547 11.8594 38.8516 12.2031C38.7474 12.3802 38.6953 12.6198 38.6953 12.9219V13.2891H37.2812V12.9141C37.2812 12.1068 37.5495 11.513 38.0859 11.1328C38.6276 10.7526 39.4349 10.5625 40.5078 10.5625C41.5807 10.5625 42.3464 10.8073 42.8047 11.2969C43.263 11.7812 43.4922 12.474 43.4922 13.375V16.9062C43.4922 17.3385 43.5469 17.6198 43.6562 17.75C43.7656 17.875 44 17.9375 44.3594 17.9375L44.1875 19.0625H43.8906C43.3698 19.0625 42.9818 18.9635 42.7266 18.7656C42.4714 18.5625 42.276 18.25 42.1406 17.8281C41.7083 18.474 41.1875 18.8802 40.5781 19.0469C40.2865 19.1302 39.9609 19.1719 39.6016 19.1719ZM40.3359 15.3438C39.5964 15.5573 39.0833 15.7708 38.7969 15.9844C38.5156 16.1979 38.375 16.5 38.375 16.8906C38.375 17.276 38.5052 17.5677 38.7656 17.7656C39.0312 17.9635 39.349 18.0625 39.7188 18.0625C40.0938 18.0625 40.4323 18.0156 40.7344 17.9219C41.0365 17.8229 41.3073 17.6797 41.5469 17.4922C41.7917 17.2995 41.9505 17.0807 42.0234 16.8359V14.4453C41.6432 14.8255 41.0807 15.125 40.3359 15.3438ZM48.7578 19L45.5469 10.7188H47.0234L49.5156 17.4375L51.7344 10.7188H53.1719L50.2422 19H48.7578ZM57.8125 19.0625C57.3281 19.0625 56.9323 19.026 56.625 18.9531C56.3177 18.8802 56.0469 18.7422 55.8125 18.5391C55.375 18.1589 55.1562 17.3802 55.1562 16.2031V7.24219H56.625V16.2188C56.625 16.8854 56.724 17.3203 56.9219 17.5234C57.1198 17.7266 57.5286 17.8281 58.1484 17.8281H58.4062L58.2344 19.0625H57.8125ZM59.3594 21.7578L59.2109 20.5391H59.4375C59.9688 20.5391 60.3229 20.4688 60.5 20.3281C60.6771 20.1927 60.7917 20.0234 60.8438 19.8203C60.8958 19.6224 60.9219 19.3594 60.9219 19.0312V10.7188H62.3906V18.9453C62.3906 20.3047 62.0781 21.1458 61.4531 21.4688C61.0833 21.6615 60.5573 21.7578 59.875 21.7578H59.3594ZM60.9219 9.22656V7.70312H62.3906V9.22656H60.9219ZM67.4922 19.1719C66.6536 19.1719 66.0026 18.9453 65.5391 18.4922C65.0755 18.0339 64.8438 17.4661 64.8438 16.7891C64.8438 16.4036 64.9245 16.0833 65.0859 15.8281C65.4141 15.3073 66.3932 14.8099 68.0234 14.3359C68.9661 14.0755 69.5078 13.8516 69.6484 13.6641C69.7943 13.4766 69.875 13.3307 69.8906 13.2266C69.9062 13.1172 69.9141 12.9453 69.9141 12.7109C69.9141 12.4766 69.8177 12.2474 69.625 12.0234C69.4375 11.7995 69.026 11.6875 68.3906 11.6875C67.4948 11.6875 66.9453 11.8594 66.7422 12.2031C66.638 12.3802 66.5859 12.6198 66.5859 12.9219V13.2891H65.1719V12.9141C65.1719 12.1068 65.4401 11.513 65.9766 11.1328C66.5182 10.7526 67.3255 10.5625 68.3984 10.5625C69.4714 10.5625 70.237 10.8073 70.6953 11.2969C71.1536 11.7812 71.3828 12.474 71.3828 13.375V16.9062C71.3828 17.3385 71.4375 17.6198 71.5469 17.75C71.6562 17.875 71.8906 17.9375 72.25 17.9375L72.0781 19.0625H71.7812C71.2604 19.0625 70.8724 18.9635 70.6172 18.7656C70.362 18.5625 70.1667 18.25 70.0312 17.8281C69.599 18.474 69.0781 18.8802 68.4688 19.0469C68.1771 19.1302 67.8516 19.1719 67.4922 19.1719ZM68.2266 15.3438C67.487 15.5573 66.974 15.7708 66.6875 15.9844C66.4062 16.1979 66.2656 16.5 66.2656 16.8906C66.2656 17.276 66.3958 17.5677 66.6562 17.7656C66.9219 17.9635 67.2396 18.0625 67.6094 18.0625C67.9844 18.0625 68.3229 18.0156 68.625 17.9219C68.9271 17.8229 69.1979 17.6797 69.4375 17.4922C69.6823 17.2995 69.8411 17.0807 69.9141 16.8359V14.4453C69.5339 14.8255 68.9714 15.125 68.2266 15.3438ZM81.5859 10.5625C82.2526 10.5625 82.8646 10.6667 83.4219 10.875V7.23438H84.8906V19H83.8906L83.6484 18.4531C83.3932 18.651 83.0573 18.8203 82.6406 18.9609C82.224 19.1016 81.8125 19.1719 81.4062 19.1719C80.276 19.1719 79.4453 18.9219 78.9141 18.4219C78.388 17.9167 78.125 17.237 78.125 16.3828V13.2578C78.125 12.3984 78.4089 11.7344 78.9766 11.2656C79.5443 10.7969 80.4141 10.5625 81.5859 10.5625ZM79.5938 16.4922C79.5938 16.987 79.7682 17.3646 80.1172 17.625C80.4714 17.8854 80.8854 18.0156 81.3594 18.0156C82.2031 18.0156 82.8906 17.8516 83.4219 17.5234V12.0312C82.9479 11.8021 82.3724 11.6875 81.6953 11.6875C80.2943 11.6875 79.5938 12.1562 79.5938 13.0938V16.4922ZM90.0234 19.1719C89.1849 19.1719 88.5339 18.9453 88.0703 18.4922C87.6068 18.0339 87.375 17.4661 87.375 16.7891C87.375 16.4036 87.4557 16.0833 87.6172 15.8281C87.9453 15.3073 88.9245 14.8099 90.5547 14.3359C91.4974 14.0755 92.0391 13.8516 92.1797 13.6641C92.3255 13.4766 92.4062 13.3307 92.4219 13.2266C92.4375 13.1172 92.4453 12.9453 92.4453 12.7109C92.4453 12.4766 92.349 12.2474 92.1562 12.0234C91.9688 11.7995 91.5573 11.6875 90.9219 11.6875C90.026 11.6875 89.4766 11.8594 89.2734 12.2031C89.1693 12.3802 89.1172 12.6198 89.1172 12.9219V13.2891H87.7031V12.9141C87.7031 12.1068 87.9714 11.513 88.5078 11.1328C89.0495 10.7526 89.8568 10.5625 90.9297 10.5625C92.0026 10.5625 92.7682 10.8073 93.2266 11.2969C93.6849 11.7812 93.9141 12.474 93.9141 13.375V16.9062C93.9141 17.3385 93.9688 17.6198 94.0781 17.75C94.1875 17.875 94.4219 17.9375 94.7812 17.9375L94.6094 19.0625H94.3125C93.7917 19.0625 93.4036 18.9635 93.1484 18.7656C92.8932 18.5625 92.6979 18.25 92.5625 17.8281C92.1302 18.474 91.6094 18.8802 91 19.0469C90.7083 19.1302 90.3828 19.1719 90.0234 19.1719ZM90.7578 15.3438C90.0182 15.5573 89.5052 15.7708 89.2188 15.9844C88.9375 16.1979 88.7969 16.5 88.7969 16.8906C88.7969 17.276 88.9271 17.5677 89.1875 17.7656C89.4531 17.9635 89.7708 18.0625 90.1406 18.0625C90.5156 18.0625 90.8542 18.0156 91.1562 17.9219C91.4583 17.8229 91.7292 17.6797 91.9688 17.4922C92.2135 17.2995 92.3724 17.0807 92.4453 16.8359V14.4453C92.0651 14.8255 91.5026 15.125 90.7578 15.3438ZM102.422 11.1094C103.068 10.7448 103.846 10.5625 104.758 10.5625C105.669 10.5625 106.396 10.8047 106.938 11.2891C107.479 11.7734 107.75 12.4271 107.75 13.25V16.25C107.75 17.1094 107.453 17.8125 106.859 18.3594C106.266 18.901 105.443 19.1719 104.391 19.1719C103.724 19.1719 103.003 18.9297 102.227 18.4453L102.039 19H100.953V7.23438H102.422V11.1094ZM106.281 13.1406C106.281 12.1719 105.669 11.6875 104.445 11.6875C103.846 11.6875 103.172 11.8594 102.422 12.2031V17.5312C102.995 17.8542 103.578 18.0156 104.172 18.0156C104.771 18.0156 105.271 17.8724 105.672 17.5859C106.078 17.2943 106.281 16.901 106.281 16.4062V13.1406ZM110.516 19V10.7188H111.984V19H110.516ZM110.516 9.22656V7.70312H111.984V9.22656H110.516ZM115.016 19V10.7188H116.484V11.8906C116.672 11.3802 117.18 11.0104 118.008 10.7812C118.44 10.6562 118.891 10.5964 119.359 10.6016L119.312 11.8594C118.604 11.8594 117.956 12 117.367 12.2812C116.779 12.5625 116.484 12.8698 116.484 13.2031V19H115.016ZM123.445 19.1719C122.607 19.1719 121.956 18.9453 121.492 18.4922C121.029 18.0339 120.797 17.4661 120.797 16.7891C120.797 16.4036 120.878 16.0833 121.039 15.8281C121.367 15.3073 122.346 14.8099 123.977 14.3359C124.919 14.0755 125.461 13.8516 125.602 13.6641C125.747 13.4766 125.828 13.3307 125.844 13.2266C125.859 13.1172 125.867 12.9453 125.867 12.7109C125.867 12.4766 125.771 12.2474 125.578 12.0234C125.391 11.7995 124.979 11.6875 124.344 11.6875C123.448 11.6875 122.898 11.8594 122.695 12.2031C122.591 12.3802 122.539 12.6198 122.539 12.9219V13.2891H121.125V12.9141C121.125 12.1068 121.393 11.513 121.93 11.1328C122.471 10.7526 123.279 10.5625 124.352 10.5625C125.424 10.5625 126.19 10.8073 126.648 11.2969C127.107 11.7812 127.336 12.474 127.336 13.375V16.9062C127.336 17.3385 127.391 17.6198 127.5 17.75C127.609 17.875 127.844 17.9375 128.203 17.9375L128.031 19.0625H127.734C127.214 19.0625 126.826 18.9635 126.57 18.7656C126.315 18.5625 126.12 18.25 125.984 17.8281C125.552 18.474 125.031 18.8802 124.422 19.0469C124.13 19.1302 123.805 19.1719 123.445 19.1719ZM124.18 15.3438C123.44 15.5573 122.927 15.7708 122.641 15.9844C122.359 16.1979 122.219 16.5 122.219 16.8906C122.219 17.276 122.349 17.5677 122.609 17.7656C122.875 17.9635 123.193 18.0625 123.562 18.0625C123.938 18.0625 124.276 18.0156 124.578 17.9219C124.88 17.8229 125.151 17.6797 125.391 17.4922C125.635 17.2995 125.794 17.0807 125.867 16.8359V14.4453C125.487 14.8255 124.924 15.125 124.18 15.3438ZM135.227 20.7734C135.768 20.9714 136.432 21.0703 137.219 21.0703C138.005 21.0703 138.555 20.9219 138.867 20.625C139.185 20.3281 139.344 19.8672 139.344 19.2422V18.0938C139.13 18.2917 138.81 18.4401 138.383 18.5391C137.961 18.638 137.573 18.6875 137.219 18.6875C135.125 18.6875 134.078 17.8047 134.078 16.0391V13.3125C134.078 12.4531 134.339 11.7812 134.859 11.2969C135.385 10.8073 136.172 10.5625 137.219 10.5625C137.635 10.5625 138.062 10.651 138.5 10.8281C138.943 11 139.224 11.1849 139.344 11.3828V10.7188H140.812V18.8047C140.812 19.7995 140.549 20.612 140.023 21.2422C139.503 21.8724 138.659 22.1875 137.492 22.1875C136.326 22.1875 135.461 22.0833 134.898 21.875L135.227 20.7734ZM139.344 12.8281C139.344 12.0677 138.711 11.6875 137.445 11.6875C136.18 11.6875 135.547 12.1771 135.547 13.1562V16.2656C135.547 17.1302 136.18 17.5625 137.445 17.5625C138.19 17.5625 138.823 17.3542 139.344 16.9375V12.8281ZM143.641 19V10.7188H145.109V11.8906C145.297 11.3802 145.805 11.0104 146.633 10.7812C147.065 10.6562 147.516 10.5964 147.984 10.6016L147.938 11.8594C147.229 11.8594 146.581 12 145.992 12.2812C145.404 12.5625 145.109 12.8698 145.109 13.2031V19H143.641ZM152.07 19.1719C151.232 19.1719 150.581 18.9453 150.117 18.4922C149.654 18.0339 149.422 17.4661 149.422 16.7891C149.422 16.4036 149.503 16.0833 149.664 15.8281C149.992 15.3073 150.971 14.8099 152.602 14.3359C153.544 14.0755 154.086 13.8516 154.227 13.6641C154.372 13.4766 154.453 13.3307 154.469 13.2266C154.484 13.1172 154.492 12.9453 154.492 12.7109C154.492 12.4766 154.396 12.2474 154.203 12.0234C154.016 11.7995 153.604 11.6875 152.969 11.6875C152.073 11.6875 151.523 11.8594 151.32 12.2031C151.216 12.3802 151.164 12.6198 151.164 12.9219V13.2891H149.75V12.9141C149.75 12.1068 150.018 11.513 150.555 11.1328C151.096 10.7526 151.904 10.5625 152.977 10.5625C154.049 10.5625 154.815 10.8073 155.273 11.2969C155.732 11.7812 155.961 12.474 155.961 13.375V16.9062C155.961 17.3385 156.016 17.6198 156.125 17.75C156.234 17.875 156.469 17.9375 156.828 17.9375L156.656 19.0625H156.359C155.839 19.0625 155.451 18.9635 155.195 18.7656C154.94 18.5625 154.745 18.25 154.609 17.8281C154.177 18.474 153.656 18.8802 153.047 19.0469C152.755 19.1302 152.43 19.1719 152.07 19.1719ZM152.805 15.3438C152.065 15.5573 151.552 15.7708 151.266 15.9844C150.984 16.1979 150.844 16.5 150.844 16.8906C150.844 17.276 150.974 17.5677 151.234 17.7656C151.5 17.9635 151.818 18.0625 152.188 18.0625C152.562 18.0625 152.901 18.0156 153.203 17.9219C153.505 17.8229 153.776 17.6797 154.016 17.4922C154.26 17.2995 154.419 17.0807 154.492 16.8359V14.4453C154.112 14.8255 153.549 15.125 152.805 15.3438ZM164.281 12.8984C164.281 12.0911 163.664 11.6875 162.43 11.6875C161.82 11.6875 161.341 11.8177 160.992 12.0781C160.643 12.3385 160.469 12.6797 160.469 13.1016V19H159V10.7188H160.469V11.5234C161.021 10.8828 161.839 10.5625 162.922 10.5625C164.328 10.5625 165.219 11.0573 165.594 12.0469C165.698 12.3281 165.75 12.6406 165.75 12.9844V19H164.281V12.8984ZM171.727 19.1719C170.513 19.1719 169.635 18.9193 169.094 18.4141C168.552 17.9089 168.281 17.1302 168.281 16.0781V13.1953C168.281 12.3776 168.56 11.7344 169.117 11.2656C169.674 10.7969 170.516 10.5625 171.641 10.5625C172.771 10.5625 173.609 10.7812 174.156 11.2188C174.708 11.651 174.984 12.2708 174.984 13.0781V15.0469H169.75V16.2109C169.75 16.8984 169.888 17.3776 170.164 17.6484C170.44 17.9141 170.938 18.0469 171.656 18.0469C172.375 18.0469 172.781 18.0312 172.875 18C172.969 17.9688 173.065 17.9323 173.164 17.8906C173.263 17.849 173.331 17.7995 173.367 17.7422C173.409 17.6849 173.461 17.599 173.523 17.4844C173.591 17.3646 173.641 17.1354 173.672 16.7969H174.969C174.917 17.2917 174.828 17.6901 174.703 17.9922C174.583 18.2943 174.391 18.5365 174.125 18.7188C173.865 18.8958 173.549 19.0156 173.18 19.0781C172.815 19.1406 172.331 19.1719 171.727 19.1719ZM169.75 14.0547H173.562V12.9219C173.562 12.4531 173.401 12.1302 173.078 11.9531C172.76 11.776 172.292 11.6875 171.672 11.6875C171.052 11.6875 170.576 11.7943 170.242 12.0078C169.914 12.2214 169.75 12.5729 169.75 13.0625V14.0547ZM186.906 12.8984C186.906 12.0911 186.289 11.6875 185.055 11.6875C184.445 11.6875 183.966 11.8177 183.617 12.0781C183.268 12.3385 183.094 12.6797 183.094 13.1016V19H181.625V10.7188H183.094V11.5234C183.646 10.8828 184.464 10.5625 185.547 10.5625C186.953 10.5625 187.844 11.0573 188.219 12.0469C188.323 12.3281 188.375 12.6406 188.375 12.9844V19H186.906V12.8984ZM193.43 19.1719C192.591 19.1719 191.94 18.9453 191.477 18.4922C191.013 18.0339 190.781 17.4661 190.781 16.7891C190.781 16.4036 190.862 16.0833 191.023 15.8281C191.352 15.3073 192.331 14.8099 193.961 14.3359C194.904 14.0755 195.445 13.8516 195.586 13.6641C195.732 13.4766 195.812 13.3307 195.828 13.2266C195.844 13.1172 195.852 12.9453 195.852 12.7109C195.852 12.4766 195.755 12.2474 195.562 12.0234C195.375 11.7995 194.964 11.6875 194.328 11.6875C193.432 11.6875 192.883 11.8594 192.68 12.2031C192.576 12.3802 192.523 12.6198 192.523 12.9219V13.2891H191.109V12.9141C191.109 12.1068 191.378 11.513 191.914 11.1328C192.456 10.7526 193.263 10.5625 194.336 10.5625C195.409 10.5625 196.174 10.8073 196.633 11.2969C197.091 11.7812 197.32 12.474 197.32 13.375V16.9062C197.32 17.3385 197.375 17.6198 197.484 17.75C197.594 17.875 197.828 17.9375 198.188 17.9375L198.016 19.0625H197.719C197.198 19.0625 196.81 18.9635 196.555 18.7656C196.299 18.5625 196.104 18.25 195.969 17.8281C195.536 18.474 195.016 18.8802 194.406 19.0469C194.115 19.1302 193.789 19.1719 193.43 19.1719ZM194.164 15.3438C193.424 15.5573 192.911 15.7708 192.625 15.9844C192.344 16.1979 192.203 16.5 192.203 16.8906C192.203 17.276 192.333 17.5677 192.594 17.7656C192.859 17.9635 193.177 18.0625 193.547 18.0625C193.922 18.0625 194.26 18.0156 194.562 17.9219C194.865 17.8229 195.135 17.6797 195.375 17.4922C195.62 17.2995 195.779 17.0807 195.852 16.8359V14.4453C195.471 14.8255 194.909 15.125 194.164 15.3438ZM202.836 18.0469C203.945 18.0469 204.5 17.6328 204.5 16.8047C204.5 16.4453 204.451 16.1797 204.352 16.0078C204.253 15.8307 204.021 15.6745 203.656 15.5391L201.688 14.8125C201.083 14.599 200.661 14.3464 200.422 14.0547C200.188 13.7578 200.07 13.388 200.07 12.9453C200.07 12.5026 200.115 12.1484 200.203 11.8828C200.292 11.612 200.438 11.375 200.641 11.1719C201.047 10.7656 201.776 10.5625 202.828 10.5625C203.88 10.5625 204.786 10.7135 205.547 11.0156L205.211 12.1406C204.945 12.0312 204.596 11.9297 204.164 11.8359C203.732 11.737 203.354 11.6875 203.031 11.6875C202.286 11.6875 201.815 11.8073 201.617 12.0469C201.497 12.1979 201.438 12.4193 201.438 12.7109C201.438 13.0026 201.484 13.2109 201.578 13.3359C201.677 13.4557 201.867 13.5651 202.148 13.6641L204.094 14.4297C204.771 14.6953 205.216 14.9896 205.43 15.3125C205.643 15.6302 205.75 16.1328 205.75 16.8203C205.75 17.5078 205.529 18.0729 205.086 18.5156C204.643 18.9531 203.958 19.1719 203.031 19.1719C202.354 19.1719 201.753 19.099 201.227 18.9531C200.701 18.8073 200.297 18.6562 200.016 18.5L200.375 17.4219C201.12 17.8385 201.94 18.0469 202.836 18.0469ZM210.883 19.1719C209.471 19.1719 208.576 18.6719 208.195 17.6719C208.086 17.3854 208.031 17.0729 208.031 16.7344V10.7188H209.5V16.7422C209.5 17.1484 209.648 17.4688 209.945 17.7031C210.247 17.9323 210.695 18.0469 211.289 18.0469C211.883 18.0469 212.365 17.901 212.734 17.6094C213.109 17.3125 213.297 16.9714 213.297 16.5859V10.7188H214.766V19H213.453L213.297 17.9609C212.839 18.7682 212.034 19.1719 210.883 19.1719ZM222.812 12.8984C222.812 12.0911 222.216 11.6875 221.023 11.6875C220.419 11.6875 219.953 11.8177 219.625 12.0781C219.302 12.3333 219.141 12.6745 219.141 13.1016V19H217.672V10.7188H219.141V11.5234C219.693 10.8828 220.521 10.5625 221.625 10.5625C222.734 10.5625 223.508 10.9245 223.945 11.6484L224.141 11.4609C224.74 10.862 225.578 10.5625 226.656 10.5625C228.047 10.5625 228.906 11.0573 229.234 12.0469C229.328 12.3281 229.375 12.6406 229.375 12.9844V19H227.906V12.8984C227.906 12.0911 227.365 11.6875 226.281 11.6875C225.599 11.6875 225.094 11.8177 224.766 12.0781C224.443 12.3333 224.281 12.6745 224.281 13.1016V19H222.812V12.8984ZM232.359 19V10.7188H233.828V19H232.359ZM232.359 9.22656V7.70312H233.828V9.22656H232.359ZM239.227 9.28906L237.625 7.21094H238.836L239.805 8.57031L240.836 7.21094H242.094L240.398 9.28906H239.227ZM239.93 19.1719C238.237 19.1719 237.177 18.5833 236.75 17.4062C236.625 17.0729 236.562 16.7083 236.562 16.3125V13.1562C236.562 12.3698 236.862 11.7422 237.461 11.2734C238.06 10.7995 238.87 10.5625 239.891 10.5625C241.193 10.5625 242.089 10.8438 242.578 11.4062C242.964 11.8438 243.156 12.4896 243.156 13.3438L241.758 13.4766C241.758 12.737 241.625 12.2552 241.359 12.0312C241.099 11.8021 240.633 11.6875 239.961 11.6875C239.289 11.6875 238.799 11.8047 238.492 12.0391C238.185 12.2734 238.031 12.6589 238.031 13.1953V16.4375C238.031 17.0104 238.193 17.4219 238.516 17.6719C238.839 17.9219 239.336 18.0469 240.008 18.0469C240.685 18.0469 241.135 17.9583 241.359 17.7812C241.589 17.6042 241.729 17.2031 241.781 16.5781H243.141C243.057 17.5365 242.781 18.2083 242.312 18.5938C241.844 18.9792 241.049 19.1719 239.93 19.1719ZM250.812 12.8984C250.812 12.0911 250.195 11.6875 248.961 11.6875C248.352 11.6875 247.872 11.8177 247.523 12.0781C247.174 12.3385 247 12.6797 247 13.1016V19H245.531V10.7188H247V11.5234C247.552 10.8828 248.37 10.5625 249.453 10.5625C250.859 10.5625 251.75 11.0573 252.125 12.0469C252.229 12.3281 252.281 12.6406 252.281 12.9844V19H250.812V12.8984ZM256.281 16.6641C256.281 17.5859 256.935 18.0469 258.242 18.0469C259.549 18.0469 260.203 17.5859 260.203 16.6641V13.0781C260.203 12.151 259.549 11.6875 258.242 11.6875C256.935 11.6875 256.281 12.151 256.281 13.0781V16.6641ZM261.672 16.5391C261.672 17.3516 261.393 17.9948 260.836 18.4688C260.284 18.9375 259.417 19.1719 258.234 19.1719C257.052 19.1719 256.185 18.9375 255.633 18.4688C255.086 18 254.812 17.3568 254.812 16.5391V13.2031C254.812 12.3854 255.086 11.7422 255.633 11.2734C256.185 10.7995 257.052 10.5625 258.234 10.5625C259.417 10.5625 260.284 10.7995 260.836 11.2734C261.393 11.7474 261.672 12.3906 261.672 13.2031V16.5391ZM264.281 19V17.1094H266.281V19H264.281Z" fill="#C9D1D9"/>
<path d="M145.679 197.453C146.145 197.75 146.763 197.612 147.06 197.146L151.892 189.554C152.189 189.088 152.051 188.47 151.586 188.173C151.12 187.877 150.502 188.014 150.205 188.48L145.91 195.229L139.161 190.933C138.695 190.637 138.077 190.774 137.78 191.24C137.483 191.706 137.621 192.324 138.087 192.621L145.679 197.453ZM126.326 111.688L145.24 196.826L147.192 196.393L128.278 111.254L126.326 111.688Z" fill="#FFD700"/>
<path d="M270.067 148.328C270.548 148.057 270.718 147.447 270.447 146.966L266.023 139.128C265.752 138.647 265.142 138.477 264.661 138.749C264.18 139.02 264.01 139.63 264.281 140.111L268.213 147.078L261.246 151.01C260.765 151.282 260.596 151.892 260.867 152.372C261.138 152.853 261.748 153.023 262.229 152.752L270.067 148.328ZM137.077 111.597L269.308 148.421L269.844 146.494L137.613 109.67L137.077 111.597Z" fill="#FF7F50"/>
<path d="M136.227 89.4874C136.157 90.0352 136.544 90.5363 137.091 90.6067L146.018 91.754C146.566 91.8244 147.067 91.4374 147.137 90.8896C147.208 90.3418 146.821 89.8407 146.273 89.7703L138.338 88.7505L139.358 80.8158C139.428 80.268 139.041 79.7669 138.494 79.6965C137.946 79.6261 137.445 80.013 137.374 80.5608L136.227 89.4874ZM286.497 153.341C279.995 127.491 272.758 106.402 264.21 90.343C255.664 74.2872 245.76 63.174 233.884 57.4095C221.982 51.6321 208.252 51.3005 192.222 56.4994C176.214 61.6912 157.858 72.4132 136.608 88.8234L137.83 90.4064C158.998 74.06 177.143 63.4922 192.839 58.4018C208.512 53.3185 221.687 53.7122 233.011 59.2087C244.361 64.7179 254.005 75.4271 262.445 91.2828C270.884 107.136 278.073 128.048 284.557 153.829L286.497 153.341Z" fill="#FF7F50"/>
<path d="M293.171 303.023C293.578 303.396 294.21 303.368 294.584 302.961L300.663 296.325C301.036 295.918 301.009 295.285 300.601 294.912C300.194 294.539 299.562 294.567 299.189 294.974L293.784 300.873L287.886 295.469C287.478 295.095 286.846 295.123 286.473 295.53C286.1 295.938 286.127 296.57 286.535 296.943L293.171 303.023ZM286.989 168.425L292.847 302.329L294.845 302.242L288.987 168.337L286.989 168.425Z" fill="#FF7F50"/>
<path d="M280.528 328.645C280.758 328.143 280.537 327.55 280.035 327.32L271.849 323.578C271.347 323.349 270.754 323.57 270.524 324.072C270.295 324.574 270.516 325.168 271.018 325.397L278.294 328.723L274.968 335.999C274.738 336.501 274.959 337.095 275.461 337.324C275.964 337.554 276.557 337.333 276.786 336.831L280.528 328.645ZM151.921 376.869L279.968 329.167L279.27 327.293L151.223 374.995L151.921 376.869Z" fill="#FF7F50"/>
<path d="M122.553 366.907C123.102 366.967 123.596 366.571 123.656 366.022L124.641 357.076C124.701 356.527 124.305 356.033 123.756 355.973C123.207 355.913 122.713 356.309 122.653 356.858L121.778 364.81L113.826 363.934C113.277 363.874 112.783 364.27 112.722 364.819C112.662 365.368 113.058 365.862 113.607 365.922L122.553 366.907ZM37.3467 261.095L121.882 366.539L123.443 365.287L38.9072 259.844L37.3467 261.095Z" fill="#FF7F50"/>
<path d="M115.728 119.639C115.617 119.098 115.089 118.749 114.548 118.86L105.731 120.67C105.19 120.781 104.842 121.309 104.953 121.85C105.064 122.391 105.592 122.74 106.133 122.629L113.97 121.02L115.578 128.857C115.689 129.398 116.218 129.747 116.759 129.636C117.3 129.525 117.649 128.996 117.538 128.455L115.728 119.639ZM39.4251 235.883L115.583 120.39L113.914 119.289L37.7554 234.782L39.4251 235.883Z" fill="#FF7F50"/>
<path d="M274.692 164.56C274.893 164.046 274.639 163.466 274.124 163.265L265.741 159.99C265.227 159.789 264.647 160.043 264.446 160.557C264.245 161.072 264.499 161.651 265.014 161.852L272.465 164.764L269.554 172.215C269.353 172.73 269.607 173.31 270.121 173.511C270.636 173.712 271.216 173.458 271.417 172.943L274.692 164.56ZM152.786 218.289L274.162 165.112L273.359 163.28L151.984 216.457L152.786 218.289Z" fill="#C3A8A8"/>
<path d="M383.543 258.941C383.639 258.397 383.276 257.878 382.733 257.782L373.871 256.212C373.327 256.116 372.808 256.479 372.711 257.022C372.615 257.566 372.978 258.085 373.522 258.181L381.399 259.577L380.004 267.454C379.907 267.998 380.27 268.517 380.814 268.613C381.358 268.71 381.877 268.347 381.973 267.803L383.543 258.941ZM296.93 319.843L383.131 259.586L381.985 257.947L295.784 318.204L296.93 319.843Z" fill="#FF7F50"/>
<path d="M46.254 242.674C45.8588 243.06 45.8511 243.693 46.2368 244.088L52.5227 250.53C52.9084 250.925 53.5415 250.933 53.9368 250.547C54.332 250.161 54.3398 249.528 53.954 249.133L48.3666 243.407L54.092 237.82C54.4873 237.434 54.495 236.801 54.1093 236.406C53.7235 236.01 53.0904 236.003 52.6952 236.388L46.254 242.674ZM397.406 246.665L46.9647 242.39L46.9403 244.39L397.382 248.665L397.406 246.665Z" fill="#FF7F50"/>
<path d="M44.7208 258.714C44.2491 259.001 44.0996 259.617 44.3868 260.088L49.0679 267.775C49.3551 268.247 49.9704 268.396 50.4421 268.109C50.9138 267.822 51.0633 267.207 50.776 266.735L46.6151 259.902L53.4479 255.741C53.9196 255.454 54.0691 254.839 53.7819 254.367C53.4946 253.895 52.8794 253.746 52.4077 254.033L44.7208 258.714ZM296.914 319.704L45.4771 258.597L45.0047 260.54L296.442 321.648L296.914 319.704Z" fill="#FF7F50"/>
<circle cx="150.849" cy="213.675" r="15.7381" fill="#C3A8A8" stroke="#C4A8A8" stroke-width="2"/>
<circle cx="286.314" cy="153.316" r="16.7381" fill="#31BA3E"/>
<circle cx="398.459" cy="247.05" r="15.7381" fill="#C3A8A8" stroke="#C4A8A8" stroke-width="2"/>
<circle cx="294.683" cy="320.697" r="16.7381" fill="#C4A8A8"/>
<circle cx="135.671" cy="379.281" r="16.7381" fill="#C4A8A8"/>
<circle cx="30.2211" cy="248.723" r="15.7381" fill="#C3A8A8" stroke="#C4A8A8" stroke-width="2"/>
<circle cx="123.955" cy="104.776" r="16.7381" fill="#C4C4C4"/>
<path d="M110.328 202.764C110.467 204.202 109.72 205.601 108.375 206.699C107.03 207.797 105.095 208.587 102.89 208.801C100.684 209.015 98.6345 208.612 97.1036 207.793C95.572 206.973 94.5702 205.744 94.4308 204.306C94.2913 202.868 95.0381 201.469 96.3837 200.37C97.7286 199.272 99.6629 198.483 101.868 198.269C104.074 198.055 106.124 198.458 107.655 199.277C109.186 200.097 110.188 201.326 110.328 202.764Z" fill="#7B6C6C" stroke="#C4A8A8" stroke-width="0.2"/>
<path d="M116.766 202.139C116.96 204.137 115.028 205.998 112.391 206.254C109.755 206.51 107.501 205.054 107.308 203.057C107.114 201.059 109.046 199.197 111.682 198.942C114.319 198.686 116.572 200.142 116.766 202.139Z" fill="#7B6C6C" stroke="#C4C4C4" stroke-width="0.2"/>
<path d="M124.121 199.8C124.315 201.798 122.383 203.659 119.747 203.915C117.11 204.171 114.857 202.715 114.663 200.718C114.469 198.72 116.401 196.859 119.037 196.603C121.674 196.347 123.928 197.803 124.121 199.8Z" fill="#7B6C6C" stroke="#C4C4C4" stroke-width="0.2"/>
<circle cx="126.401" cy="197.143" r="4.48192" transform="rotate(-5.5403 126.401 197.143)" fill="#7B6C6C" stroke="#C4C4C4" stroke-width="0.2"/>
<path d="M129.825 200.06C128.458 199.922 127.734 199.722 127.63 198.648" stroke="black" stroke-width="0.3"/>
<path d="M100.273 206.244C100.074 208.959 100.01 211.621 100.564 214.287C100.693 214.91 100.761 215.561 100.964 216.166C101.087 216.532 101.444 217.621 101.407 217.236" stroke="#7B6C6C" stroke-linecap="round" stroke-linejoin="round"/>
<ellipse cx="102.313" cy="216.809" rx="1.34762" ry="0.808574" transform="rotate(-5.5403 102.313 216.809)" fill="#7B6C6C"/>
<path d="M103.946 206.429C104.285 207.477 104.675 208.507 104.995 209.561C105.192 210.212 105.221 210.902 105.358 211.565C105.505 212.271 105.594 213.308 105.956 213.884" stroke="#7B6C6C" stroke-linecap="round" stroke-linejoin="round"/>
<ellipse cx="106.934" cy="214.195" rx="1.34762" ry="0.808574" transform="rotate(-5.5403 106.934 214.195)" fill="#7B6C6C"/>
<path d="M111.486 205.291C111.771 205.937 112.155 206.603 112.224 207.318C112.257 207.663 112.291 208.009 112.324 208.354C112.406 209.192 112.411 210.008 112.435 210.848C112.444 211.197 112.519 211.543 112.517 211.893C112.515 212.385 112.436 212.879 112.473 213.372C112.495 213.677 112.607 214.038 112.78 214.29C112.868 214.418 113.019 214.825 113.061 214.548" stroke="#7B6C6C" stroke-linecap="round" stroke-linejoin="round"/>
<ellipse cx="113.96" cy="214.055" rx="1.34762" ry="0.808574" transform="rotate(-5.5403 113.96 214.055)" fill="#7B6C6C"/>
<path d="M114.609 204.514C114.89 205.569 115.311 206.648 115.248 207.769C115.2 208.628 115.184 209.546 115.058 210.39C114.965 211.017 115.1 211.671 115.161 212.298C115.196 212.667 115.37 213.136 115.729 213.274" stroke="#7B6C6C" stroke-linecap="round" stroke-linejoin="round"/>
<ellipse cx="116.539" cy="212.722" rx="1.34762" ry="0.808574" transform="rotate(-5.5403 116.539 212.722)" fill="#7B6C6C"/>
<path d="M120.001 203.044C120.356 203.615 120.744 204.184 121.05 204.785C121.23 205.141 121.357 205.523 121.561 205.868C121.91 206.459 122.122 207.118 122.451 207.718C122.884 208.507 122.997 209.407 123.466 210.155" stroke="#7B6C6C" stroke-linecap="round" stroke-linejoin="round"/>
<ellipse cx="124.379" cy="209.795" rx="1.34762" ry="0.808574" transform="rotate(-5.5403 124.379 209.795)" fill="#7B6C6C"/>
<path d="M122.283 202.146C123.024 203.619 124.356 204.722 124.971 206.285C125.193 206.849 125.548 207.344 125.767 207.9C125.872 208.166 126.105 208.388 126.166 208.674C126.178 208.733 126.247 208.781 126.283 208.832C126.378 208.97 126.299 208.648 126.293 208.594" stroke="#7B6C6C" stroke-linecap="round" stroke-linejoin="round"/>
<ellipse cx="127.159" cy="208.442" rx="1.34762" ry="0.808574" transform="rotate(-5.5403 127.159 208.442)" fill="#7B6C6C"/>
<path d="M126.311 193.631C126.167 190.794 125.585 189.613 123.141 188.657" stroke="#7B6C6C"/>
<path d="M128.477 193.421C128.316 190.407 127.724 189.15 125.255 188.122" stroke="#7B6C6C"/>
<ellipse cx="125.508" cy="187.933" rx="0.808574" ry="0.492786" transform="rotate(-5.5403 125.508 187.933)" fill="#C4C4C4"/>
<ellipse cx="122.857" cy="188.52" rx="0.808574" ry="0.492786" transform="rotate(-5.5403 122.857 188.52)" fill="#C4C4C4"/>
<circle cx="128.149" cy="195.619" r="1.0281" transform="rotate(-5.5403 128.149 195.619)" fill="#C4C4C4" stroke="black" stroke-width="0.1"/>
<g filter="url(#filter0_f)">
<path d="M105.839 198.925C103.646 198.342 102.18 198.576 99.6744 199.241C99.4387 199.304 99.2828 199.529 99.3063 199.772L99.3706 200.434C99.3994 200.731 99.6815 200.936 99.9746 200.879C102.044 200.472 103.383 200.452 105.37 200.905C105.649 200.969 105.929 200.793 105.985 200.512L106.188 199.495C106.238 199.242 106.088 198.991 105.839 198.925Z" fill="#C9D1D9"/>
</g>
<g filter="url(#filter1_f)">
<path d="M112.505 199.429C111.131 199.344 110.264 199.59 109.023 200.422C108.828 200.552 108.758 200.804 108.849 201.019L108.991 201.356C109.11 201.638 109.451 201.747 109.718 201.598C110.672 201.067 111.409 200.848 112.49 200.833C112.802 200.829 113.05 200.559 113.008 200.25L112.953 199.852C112.921 199.623 112.736 199.444 112.505 199.429Z" fill="#C9D1D9"/>
</g>
<g filter="url(#filter2_f)">
<path d="M119.229 197.173C117.846 197.331 117.022 197.727 115.922 198.771C115.752 198.932 115.725 199.193 115.852 199.39L116.049 199.698C116.214 199.955 116.568 200.004 116.806 199.813C117.674 199.114 118.375 198.766 119.458 198.561C119.763 198.503 119.96 198.196 119.867 197.9L119.746 197.515C119.676 197.292 119.461 197.146 119.229 197.173Z" fill="#C9D1D9"/>
</g>
<circle cx="128.31" cy="195.604" r="0.53905" transform="rotate(-5.5403 128.31 195.604)" fill="black"/>
<defs>
<filter id="filter0_f" x="95.304" y="194.593" width="14.8937" height="10.3253" filterUnits="userSpaceOnUse" color-interpolation-filters="sRGB">
<feFlood flood-opacity="0" result="BackgroundImageFix"/>
<feBlend mode="normal" in="SourceGraphic" in2="BackgroundImageFix" result="shape"/>
<feGaussianBlur stdDeviation="2" result="effect1_foregroundBlur"/>
</filter>
<filter id="filter1_f" x="104.809" y="195.413" width="12.2031" height="10.251" filterUnits="userSpaceOnUse" color-interpolation-filters="sRGB">
<feFlood flood-opacity="0" result="BackgroundImageFix"/>
<feBlend mode="normal" in="SourceGraphic" in2="BackgroundImageFix" result="shape"/>
<feGaussianBlur stdDeviation="2" result="effect1_foregroundBlur"/>
</filter>
<filter id="filter2_f" x="111.773" y="193.17" width="12.1172" height="10.7597" filterUnits="userSpaceOnUse" color-interpolation-filters="sRGB">
<feFlood flood-opacity="0" result="BackgroundImageFix"/>
<feBlend mode="normal" in="SourceGraphic" in2="BackgroundImageFix" result="shape"/>
<feGaussianBlur stdDeviation="2" result="effect1_foregroundBlur"/>
</filter>
</defs>
</svg>
