<svg width="409" height="389" viewBox="0 0 409 389" fill="none" xmlns="http://www.w3.org/2000/svg">
<path d="M138.679 163.453C139.145 163.75 139.763 163.612 140.06 163.146L144.892 155.554C145.189 155.088 145.051 154.47 144.586 154.173C144.12 153.877 143.502 154.014 143.205 154.48L138.91 161.229L132.161 156.933C131.695 156.637 131.077 156.774 130.78 157.24C130.483 157.706 130.621 158.324 131.087 158.621L138.679 163.453ZM119.326 77.6875L138.24 162.826L140.192 162.393L121.278 77.2538L119.326 77.6875Z" fill="#C4A8A8"/>
<path d="M263.067 114.328C263.548 114.057 263.718 113.447 263.447 112.966L259.023 105.128C258.752 104.647 258.142 104.477 257.661 104.749C257.18 105.02 257.01 105.63 257.281 106.111L261.213 113.078L254.246 117.01C253.765 117.282 253.596 117.892 253.867 118.372C254.138 118.853 254.748 119.023 255.229 118.752L263.067 114.328ZM130.077 77.5971L262.308 114.421L262.844 112.494L130.613 75.6704L130.077 77.5971Z" fill="#FF7F50"/>
<path d="M263.067 114.328C263.548 114.057 263.718 113.447 263.447 112.966L259.023 105.128C258.752 104.647 258.142 104.477 257.661 104.749C257.18 105.02 257.01 105.63 257.281 106.111L261.213 113.078L254.246 117.01C253.765 117.282 253.596 117.892 253.867 118.372C254.138 118.853 254.748 119.023 255.229 118.752L263.067 114.328ZM130.077 77.5971L262.308 114.421L262.844 112.494L130.613 75.6704L130.077 77.5971Z" fill="url(#paint0_linear)" fill-opacity="0.85"/>
<path d="M129.227 55.4874C129.157 56.0352 129.544 56.5363 130.091 56.6067L139.018 57.754C139.566 57.8244 140.067 57.4374 140.137 56.8896C140.208 56.3418 139.821 55.8407 139.273 55.7703L131.338 54.7505L132.358 46.8158C132.428 46.268 132.041 45.7669 131.494 45.6965C130.946 45.6261 130.445 46.013 130.374 46.5608L129.227 55.4874ZM279.497 119.341C272.995 93.4907 265.758 72.4016 257.21 56.343C248.664 40.2872 238.76 29.174 226.884 23.4095C214.982 17.6321 201.252 17.3005 185.222 22.4994C169.214 27.6912 150.858 38.4132 129.608 54.8234L130.83 56.4064C151.998 40.06 170.143 29.4922 185.839 24.4018C201.512 19.3185 214.687 19.7122 226.011 25.2087C237.361 30.7179 247.005 41.4271 255.445 57.2828C263.884 73.1357 271.073 94.0475 277.557 119.829L279.497 119.341Z" fill="#C4A8A8"/>
<path d="M286.171 269.023C286.578 269.396 287.21 269.368 287.584 268.961L293.663 262.325C294.036 261.918 294.009 261.285 293.601 260.912C293.194 260.539 292.562 260.567 292.189 260.974L286.784 266.873L280.886 261.469C280.478 261.095 279.846 261.123 279.473 261.53C279.1 261.938 279.127 262.57 279.535 262.943L286.171 269.023ZM279.989 134.425L285.847 268.329L287.845 268.242L281.987 134.337L279.989 134.425Z" fill="#FF7F50"/>
<path d="M273.528 294.645C273.758 294.143 273.537 293.55 273.035 293.32L264.849 289.578C264.347 289.349 263.754 289.57 263.524 290.072C263.295 290.574 263.516 291.168 264.018 291.397L271.294 294.723L267.968 301.999C267.738 302.501 267.959 303.095 268.461 303.324C268.964 303.554 269.557 303.333 269.786 302.831L273.528 294.645ZM144.921 342.869L272.968 295.167L272.27 293.293L144.223 340.995L144.921 342.869Z" fill="#FF7F50"/>
<path d="M273.528 294.645C273.758 294.143 273.537 293.55 273.035 293.32L264.849 289.578C264.347 289.349 263.754 289.57 263.524 290.072C263.295 290.574 263.516 291.168 264.018 291.397L271.294 294.723L267.968 301.999C267.738 302.501 267.959 303.095 268.461 303.324C268.964 303.554 269.557 303.333 269.786 302.831L273.528 294.645ZM144.921 342.869L272.968 295.167L272.27 293.293L144.223 340.995L144.921 342.869Z" fill="url(#paint1_linear)" fill-opacity="0.85"/>
<path d="M115.553 332.907C116.102 332.967 116.596 332.571 116.656 332.022L117.641 323.076C117.701 322.527 117.305 322.033 116.756 321.973C116.207 321.913 115.713 322.309 115.653 322.858L114.778 330.81L106.826 329.934C106.277 329.874 105.783 330.27 105.722 330.819C105.662 331.368 106.058 331.862 106.607 331.922L115.553 332.907ZM30.3467 227.095L114.882 332.539L116.443 331.287L31.9072 225.844L30.3467 227.095Z" fill="#FFD700"/>
<path d="M108.728 85.6388C108.617 85.0978 108.089 84.7492 107.548 84.8603L98.7313 86.6697C98.1903 86.7807 97.8417 87.3093 97.9528 87.8503C98.0638 88.3913 98.5924 88.7399 99.1334 88.6289L106.97 87.0205L108.578 94.8571C108.689 95.3981 109.218 95.7467 109.759 95.6357C110.3 95.5246 110.649 94.996 110.538 94.455L108.728 85.6388ZM32.4251 201.883L108.583 86.3903L106.914 85.2893L30.7554 200.782L32.4251 201.883Z" fill="#FF7F50"/>
<path d="M108.728 85.6388C108.617 85.0978 108.089 84.7492 107.548 84.8603L98.7313 86.6697C98.1903 86.7807 97.8417 87.3093 97.9528 87.8503C98.0638 88.3913 98.5924 88.7399 99.1334 88.6289L106.97 87.0205L108.578 94.8571C108.689 95.3981 109.218 95.7467 109.759 95.6357C110.3 95.5246 110.649 94.996 110.538 94.455L108.728 85.6388ZM32.4251 201.883L108.583 86.3903L106.914 85.2893L30.7554 200.782L32.4251 201.883Z" fill="url(#paint2_linear)" fill-opacity="0.85"/>
<path d="M267.692 130.56C267.893 130.046 267.639 129.466 267.124 129.265L258.741 125.99C258.227 125.789 257.647 126.043 257.446 126.557C257.245 127.072 257.499 127.651 258.014 127.852L265.465 130.764L262.554 138.215C262.353 138.73 262.607 139.31 263.121 139.511C263.636 139.712 264.216 139.458 264.417 138.943L267.692 130.56ZM145.786 184.289L267.162 131.112L266.359 129.28L144.984 182.457L145.786 184.289Z" fill="#C3A8A8"/>
<path d="M376.543 224.941C376.639 224.397 376.276 223.878 375.733 223.782L366.871 222.212C366.327 222.116 365.808 222.479 365.711 223.022C365.615 223.566 365.978 224.085 366.522 224.181L374.399 225.577L373.004 233.454C372.907 233.998 373.27 234.517 373.814 234.613C374.358 234.71 374.877 234.347 374.973 233.803L376.543 224.941ZM289.93 285.843L376.131 225.586L374.985 223.947L288.784 284.204L289.93 285.843Z" fill="#FF7F50"/>
<path d="M39.254 208.674C38.8588 209.06 38.8511 209.693 39.2368 210.088L45.5227 216.53C45.9084 216.925 46.5415 216.933 46.9368 216.547C47.332 216.161 47.3398 215.528 46.954 215.133L41.3666 209.407L47.092 203.82C47.4873 203.434 47.495 202.801 47.1093 202.406C46.7235 202.01 46.0904 202.003 45.6952 202.388L39.254 208.674ZM390.406 212.665L39.9647 208.39L39.9403 210.39L390.382 214.665L390.406 212.665Z" fill="#FF7F50"/>
<path d="M37.7208 224.714C37.2491 225.001 37.0996 225.617 37.3868 226.088L42.0679 233.775C42.3551 234.247 42.9704 234.396 43.4421 234.109C43.9138 233.822 44.0633 233.207 43.776 232.735L39.6151 225.902L46.4479 221.741C46.9196 221.454 47.0691 220.839 46.7819 220.367C46.4946 219.895 45.8794 219.746 45.4077 220.033L37.7208 224.714ZM289.914 285.704L38.4771 224.597L38.0047 226.54L289.442 287.648L289.914 285.704Z" fill="#FF7F50"/>
<path d="M37.7208 224.714C37.2491 225.001 37.0996 225.617 37.3868 226.088L42.0679 233.775C42.3551 234.247 42.9704 234.396 43.4421 234.109C43.9138 233.822 44.0633 233.207 43.776 232.735L39.6151 225.902L46.4479 221.741C46.9196 221.454 47.0691 220.839 46.7819 220.367C46.4946 219.895 45.8794 219.746 45.4077 220.033L37.7208 224.714ZM289.914 285.704L38.4771 224.597L38.0047 226.54L289.442 287.648L289.914 285.704Z" fill="url(#paint3_linear)" fill-opacity="0.85"/>
<circle cx="143.849" cy="179.675" r="15.7381" fill="#C3A8A8" stroke="#C4A8A8" stroke-width="2"/>
<circle cx="279.314" cy="119.316" r="16.7381" fill="#31BA3E"/>
<circle cx="391.459" cy="213.05" r="15.7381" fill="#C3A8A8" stroke="#C4A8A8" stroke-width="2"/>
<circle cx="287.683" cy="286.697" r="16.7381" fill="#C4A8A8"/>
<circle cx="128.671" cy="345.281" r="16.7381" fill="#C4A8A8"/>
<circle cx="23.2211" cy="214.723" r="15.7381" fill="#C3A8A8" stroke="#C4A8A8" stroke-width="2"/>
<circle cx="116.955" cy="70.7762" r="16.7381" fill="#C4C4C4"/>
<path d="M129.247 374.374C129.211 375.818 128.299 377.116 126.83 378.043C125.362 378.969 123.346 379.517 121.131 379.462C118.915 379.406 116.93 378.756 115.51 377.757C114.089 376.758 113.244 375.416 113.281 373.971C113.317 372.527 114.229 371.23 115.698 370.303C117.166 369.376 119.182 368.828 121.397 368.884C123.612 368.94 125.598 369.589 127.018 370.588C128.439 371.588 129.284 372.93 129.247 374.374Z" fill="#7B6C6C" stroke="#C4A8A8" stroke-width="0.2"/>
<path d="M135.714 374.537C135.663 376.543 133.519 378.156 130.871 378.089C128.223 378.022 126.163 376.303 126.214 374.297C126.264 372.291 128.408 370.678 131.056 370.745C133.705 370.812 135.764 372.531 135.714 374.537Z" fill="#7B6C6C" stroke="#C4C4C4" stroke-width="0.2"/>
<path d="M143.299 373.111C143.248 375.117 141.104 376.73 138.456 376.663C135.808 376.597 133.748 374.878 133.799 372.871C133.849 370.865 135.993 369.252 138.641 369.319C141.29 369.386 143.349 371.105 143.299 373.111Z" fill="#7B6C6C" stroke="#C4C4C4" stroke-width="0.2"/>
<circle cx="145.885" cy="370.75" r="4.48192" transform="rotate(1.44471 145.885 370.75)" fill="#7B6C6C" stroke="#C4C4C4" stroke-width="0.2"/>
<path d="M148.929 374.062C147.588 373.758 146.895 373.471 146.922 372.394" stroke="black" stroke-width="0.3"/>
<path d="M118.844 376.606C118.317 379.277 117.929 381.911 118.155 384.624C118.207 385.259 118.196 385.914 118.323 386.538C118.401 386.917 118.623 388.041 118.632 387.655" stroke="#7B6C6C" stroke-linecap="round" stroke-linejoin="round"/>
<ellipse cx="119.584" cy="387.341" rx="1.34762" ry="0.808574" transform="rotate(1.44471 119.584 387.341)" fill="#7B6C6C"/>
<path d="M122.467 377.236C122.676 378.318 122.938 379.388 123.127 380.473C123.244 381.143 123.188 381.831 123.244 382.506C123.304 383.225 123.267 384.265 123.555 384.88" stroke="#7B6C6C" stroke-linecap="round" stroke-linejoin="round"/>
<ellipse cx="124.488" cy="385.308" rx="1.34762" ry="0.808574" transform="rotate(1.44471 124.488 385.308)" fill="#7B6C6C"/>
<path d="M130.089 377.024C130.294 377.7 130.594 378.408 130.575 379.126C130.567 379.473 130.558 379.82 130.549 380.166C130.528 381.009 130.434 381.819 130.355 382.656C130.323 383.003 130.354 383.355 130.31 383.703C130.248 384.191 130.109 384.671 130.086 385.165C130.072 385.471 130.138 385.843 130.279 386.114C130.351 386.252 130.452 386.674 130.527 386.404" stroke="#7B6C6C" stroke-linecap="round" stroke-linejoin="round"/>
<ellipse cx="131.48" cy="386.024" rx="1.34762" ry="0.808574" transform="rotate(1.44471 131.48 386.024)" fill="#7B6C6C"/>
<path d="M133.284 376.632C133.435 377.713 133.721 378.836 133.522 379.941C133.37 380.787 133.243 381.697 133.015 382.52C132.846 383.13 132.901 383.796 132.885 384.426C132.875 384.796 132.991 385.283 133.33 385.463" stroke="#7B6C6C" stroke-linecap="round" stroke-linejoin="round"/>
<ellipse cx="134.202" cy="385.013" rx="1.34762" ry="0.808574" transform="rotate(1.44471 134.202 385.013)" fill="#7B6C6C"/>
<path d="M138.814 375.828C139.098 376.438 139.414 377.05 139.644 377.684C139.78 378.059 139.859 378.454 140.019 378.82C140.294 379.45 140.425 380.13 140.678 380.766C141.012 381.602 141.014 382.508 141.389 383.307" stroke="#7B6C6C" stroke-linecap="round" stroke-linejoin="round"/>
<ellipse cx="142.339" cy="383.062" rx="1.34762" ry="0.808574" transform="rotate(1.44471 142.339 383.062)" fill="#7B6C6C"/>
<path d="M141.189 375.215C141.745 376.768 142.933 378.024 143.354 379.651C143.506 380.238 143.798 380.771 143.947 381.351C144.019 381.627 144.224 381.875 144.249 382.167C144.254 382.227 144.317 382.283 144.346 382.338C144.423 382.487 144.384 382.157 144.385 382.103" stroke="#7B6C6C" stroke-linecap="round" stroke-linejoin="round"/>
<ellipse cx="145.263" cy="382.058" rx="1.34762" ry="0.808574" transform="rotate(1.44471 145.263 382.058)" fill="#7B6C6C"/>
<path d="M146.223 367.254C146.424 364.42 145.99 363.178 143.681 361.932" stroke="#7B6C6C"/>
<path d="M148.398 367.308C148.605 364.298 148.17 362.978 145.845 361.657" stroke="#7B6C6C"/>
<ellipse cx="146.118" cy="361.5" rx="0.808574" ry="0.492786" transform="rotate(1.44471 146.118 361.5)" fill="#C4C4C4"/>
<ellipse cx="143.415" cy="361.76" rx="0.808574" ry="0.492786" transform="rotate(1.44471 143.415 361.76)" fill="#C4C4C4"/>
<circle cx="147.805" cy="369.45" r="1.0281" transform="rotate(1.44471 147.805 369.45)" fill="#C4C4C4" stroke="black" stroke-width="0.1"/>
<g filter="url(#filter0_f)">
<path d="M125.259 370.019C123.153 369.173 121.669 369.227 119.101 369.583C118.86 369.616 118.678 369.82 118.671 370.064L118.655 370.729C118.647 371.028 118.902 371.266 119.2 371.244C121.304 371.092 122.636 371.236 124.552 371.927C124.822 372.024 125.121 371.883 125.21 371.612L125.536 370.627C125.616 370.382 125.498 370.115 125.259 370.019Z" fill="#C9D1D9"/>
</g>
<g filter="url(#filter1_f)">
<path d="M131.814 371.33C130.461 371.079 129.57 371.217 128.236 371.892C128.028 371.998 127.927 372.239 127.991 372.464L128.091 372.816C128.175 373.11 128.501 373.259 128.784 373.144C129.795 372.733 130.553 372.606 131.628 372.722C131.938 372.756 132.218 372.518 132.213 372.206L132.207 371.804C132.203 371.573 132.041 371.373 131.814 371.33Z" fill="#C9D1D9"/>
</g>
<g filter="url(#filter2_f)">
<path d="M138.763 369.907C137.37 369.896 136.505 370.189 135.286 371.091C135.098 371.231 135.039 371.486 135.14 371.697L135.299 372.027C135.431 372.302 135.777 372.394 136.036 372.233C136.983 371.645 137.72 371.385 138.821 371.312C139.131 371.292 139.363 371.012 139.307 370.706L139.234 370.309C139.191 370.08 138.996 369.909 138.763 369.907Z" fill="#C9D1D9"/>
</g>
<circle cx="147.967" cy="369.454" r="0.53905" transform="rotate(1.44471 147.967 369.454)" fill="black"/>
<defs>
<filter id="filter0_f" x="114.655" y="365.338" width="14.9064" height="10.619" filterUnits="userSpaceOnUse" color-interpolation-filters="sRGB">
<feFlood flood-opacity="0" result="BackgroundImageFix"/>
<feBlend mode="normal" in="SourceGraphic" in2="BackgroundImageFix" result="shape"/>
<feGaussianBlur stdDeviation="2" result="effect1_foregroundBlur"/>
</filter>
<filter id="filter1_f" x="123.972" y="367.213" width="12.2409" height="9.96952" filterUnits="userSpaceOnUse" color-interpolation-filters="sRGB">
<feFlood flood-opacity="0" result="BackgroundImageFix"/>
<feBlend mode="normal" in="SourceGraphic" in2="BackgroundImageFix" result="shape"/>
<feGaussianBlur stdDeviation="2" result="effect1_foregroundBlur"/>
</filter>
<filter id="filter2_f" x="131.091" y="365.906" width="12.2243" height="10.4055" filterUnits="userSpaceOnUse" color-interpolation-filters="sRGB">
<feFlood flood-opacity="0" result="BackgroundImageFix"/>
<feBlend mode="normal" in="SourceGraphic" in2="BackgroundImageFix" result="shape"/>
<feGaussianBlur stdDeviation="2" result="effect1_foregroundBlur"/>
</filter>
<linearGradient id="paint0_linear" x1="196.752" y1="93.9272" x2="196.169" y2="96.1642" gradientUnits="userSpaceOnUse">
<stop stop-color="white"/>
<stop offset="1" stop-color="white" stop-opacity="0"/>
</linearGradient>
<linearGradient id="paint1_linear" x1="198.712" y1="356.031" x2="218.479" y2="280.13" gradientUnits="userSpaceOnUse">
<stop stop-color="white"/>
<stop offset="1" stop-color="white" stop-opacity="0"/>
</linearGradient>
<linearGradient id="paint2_linear" x1="122.544" y1="121.881" x2="16.7951" y2="165.291" gradientUnits="userSpaceOnUse">
<stop stop-color="white"/>
<stop offset="1" stop-color="white" stop-opacity="0"/>
</linearGradient>
<linearGradient id="paint3_linear" x1="43.7442" y1="270.761" x2="284.175" y2="241.483" gradientUnits="userSpaceOnUse">
<stop stop-color="white"/>
<stop offset="1" stop-color="white" stop-opacity="0"/>
</linearGradient>
</defs>
</svg>
