<svg width="761" height="383" viewBox="0 0 761 383" fill="none" xmlns="http://www.w3.org/2000/svg">
<path d="M315.707 206.707C316.098 206.317 316.098 205.683 315.707 205.293L309.343 198.929C308.953 198.538 308.319 198.538 307.929 198.929C307.538 199.319 307.538 199.953 307.929 200.343L313.586 206L307.929 211.657C307.538 212.047 307.538 212.681 307.929 213.071C308.319 213.462 308.953 213.462 309.343 213.071L315.707 206.707ZM234 207H315V205H234V207Z" fill="#C4A8A8"/>
<circle cx="366" cy="207" r="14" stroke="#C4A8A8" stroke-width="2"/>
<circle cx="431" cy="207" r="14" stroke="#C4A8A8" stroke-width="2"/>
<circle cx="497" cy="207" r="14" stroke="#C4A8A8" stroke-width="2"/>
<circle cx="497" cy="71" r="14" stroke="#C4A8A8" stroke-width="2"/>
<circle cx="612" cy="71" r="14" stroke="#C4A8A8" stroke-width="2"/>
<circle cx="558" cy="15" r="14" stroke="#C4A8A8" stroke-width="2"/>
<circle cx="613" cy="208" r="14" stroke="#C4A8A8" stroke-width="2"/>
<circle cx="681" cy="207" r="14" stroke="#C4A8A8" stroke-width="2"/>
<circle cx="746" cy="207" r="14" stroke="#C4A8A8" stroke-width="2"/>
<path d="M386.729 185.238V196H384.268V185.238H380.771V183.236H390.225V185.238H386.729ZM399.297 196L398.594 193.48H394.141L393.418 196H391.035L394.814 183.236H398.174L401.953 196H399.297ZM396.396 185.58L394.717 191.518H398.057L396.396 185.58ZM410.293 196L409.59 193.48H405.137L404.414 196H402.031L405.811 183.236H409.17L412.949 196H410.293ZM407.393 185.58L405.713 191.518H409.053L407.393 185.58Z" fill="#C9D1D9"/>
<path d="M455.301 196L454.598 193.48H450.145L449.422 196H447.039L450.818 183.236H454.178L457.957 196H455.301ZM452.4 185.58L450.721 191.518H454.061L452.4 185.58ZM466.297 196L465.594 193.48H461.141L460.418 196H458.035L461.814 183.236H465.174L468.953 196H466.297ZM463.396 185.58L461.717 191.518H465.057L463.396 185.58ZM475.721 185.238V196H473.26V185.238H469.764V183.236H479.217V185.238H475.721Z" fill="#C9D1D9"/>
<path d="M635.729 185.238V196H633.268V185.238H629.771V183.236H639.225V185.238H635.729ZM645.553 190.6V188.617H650.094V195.424C649.508 195.697 648.896 195.899 648.258 196.029C647.62 196.16 646.926 196.225 646.178 196.225C645.292 196.225 644.495 196.088 643.785 195.814C643.082 195.541 642.483 195.134 641.988 194.594C641.493 194.053 641.113 193.383 640.846 192.582C640.585 191.781 640.455 190.854 640.455 189.799C640.455 188.738 640.592 187.787 640.865 186.947C641.145 186.107 641.549 185.398 642.076 184.818C642.61 184.232 643.261 183.786 644.029 183.48C644.804 183.174 645.686 183.021 646.676 183.021C647.262 183.021 647.831 183.074 648.385 183.178C648.945 183.275 649.501 183.409 650.055 183.578V185.951C649.573 185.723 649.039 185.538 648.453 185.395C647.874 185.245 647.288 185.17 646.695 185.17C646.096 185.17 645.566 185.274 645.104 185.482C644.648 185.691 644.264 185.987 643.951 186.371C643.645 186.755 643.411 187.227 643.248 187.787C643.092 188.347 643.014 188.979 643.014 189.682C643.014 190.359 643.076 190.971 643.199 191.518C643.323 192.058 643.521 192.52 643.795 192.904C644.075 193.282 644.433 193.572 644.869 193.773C645.305 193.975 645.836 194.076 646.461 194.076C646.611 194.076 646.741 194.073 646.852 194.066C646.962 194.053 647.066 194.037 647.164 194.018C647.262 193.998 647.353 193.975 647.438 193.949C647.529 193.923 647.623 193.894 647.721 193.861V190.6H645.553ZM657.721 185.238V196H655.26V185.238H651.764V183.236H661.217V185.238H657.721Z" fill="#C9D1D9"/>
<path d="M701.557 190.6V188.617H706.098V195.424C705.512 195.697 704.9 195.899 704.262 196.029C703.624 196.16 702.93 196.225 702.182 196.225C701.296 196.225 700.499 196.088 699.789 195.814C699.086 195.541 698.487 195.134 697.992 194.594C697.497 194.053 697.117 193.383 696.85 192.582C696.589 191.781 696.459 190.854 696.459 189.799C696.459 188.738 696.596 187.787 696.869 186.947C697.149 186.107 697.553 185.398 698.08 184.818C698.614 184.232 699.265 183.786 700.033 183.48C700.808 183.174 701.69 183.021 702.68 183.021C703.266 183.021 703.835 183.074 704.389 183.178C704.949 183.275 705.505 183.409 706.059 183.578V185.951C705.577 185.723 705.043 185.538 704.457 185.395C703.878 185.245 703.292 185.17 702.699 185.17C702.1 185.17 701.57 185.274 701.107 185.482C700.652 185.691 700.268 185.987 699.955 186.371C699.649 186.755 699.415 187.227 699.252 187.787C699.096 188.347 699.018 188.979 699.018 189.682C699.018 190.359 699.079 190.971 699.203 191.518C699.327 192.058 699.525 192.52 699.799 192.904C700.079 193.282 700.437 193.572 700.873 193.773C701.309 193.975 701.84 194.076 702.465 194.076C702.615 194.076 702.745 194.073 702.855 194.066C702.966 194.053 703.07 194.037 703.168 194.018C703.266 193.998 703.357 193.975 703.441 193.949C703.533 193.923 703.627 193.894 703.725 193.861V190.6H701.557ZM713.725 185.238V196H711.264V185.238H707.768V183.236H717.221V185.238H713.725ZM724.721 185.238V196H722.26V185.238H718.764V183.236H728.217V185.238H724.721Z" fill="#C9D1D9"/>
<path d="M415.707 207.707C416.098 207.317 416.098 206.683 415.707 206.293L409.343 199.929C408.953 199.538 408.319 199.538 407.929 199.929C407.538 200.319 407.538 200.953 407.929 201.343L413.586 207L407.929 212.657C407.538 213.047 407.538 213.681 407.929 214.071C408.319 214.462 408.953 214.462 409.343 214.071L415.707 207.707ZM381 208H415V206H381V208Z" fill="#C4A8A8"/>
<path d="M482.207 207.707C482.598 207.317 482.598 206.683 482.207 206.293L475.843 199.929C475.453 199.538 474.819 199.538 474.429 199.929C474.038 200.319 474.038 200.953 474.429 201.343L480.086 207L474.429 212.657C474.038 213.047 474.038 213.681 474.429 214.071C474.819 214.462 475.453 214.462 475.843 214.071L482.207 207.707ZM446 208H481.5V206H446V208Z" fill="#C4A8A8"/>
<path d="M496.293 192.707C496.683 193.098 497.317 193.098 497.707 192.707L504.071 186.343C504.462 185.953 504.462 185.319 504.071 184.929C503.681 184.538 503.047 184.538 502.657 184.929L497 190.586L491.343 184.929C490.953 184.538 490.319 184.538 489.929 184.929C489.538 185.319 489.538 185.953 489.929 186.343L496.293 192.707ZM496 86V139.736H498V86H496ZM496 139.736V192H498V139.736H496Z" fill="#C4A8A8"/>
<path d="M612.707 85.2929C612.317 84.9024 611.683 84.9024 611.293 85.2929L604.929 91.6569C604.538 92.0474 604.538 92.6805 604.929 93.0711C605.319 93.4616 605.953 93.4616 606.343 93.0711L612 87.4142L617.657 93.0711C618.047 93.4616 618.681 93.4616 619.071 93.0711C619.462 92.6805 619.462 92.0474 619.071 91.6569L612.707 85.2929ZM613 193V103.75H611V193H613ZM613 103.75V86H611V103.75H613Z" fill="#C4A8A8"/>
<path d="M590.75 39.2705L590.074 40.0077L590.076 40.0094L590.75 39.2705ZM572.957 22.0006C572.405 22.0246 571.977 22.4913 572.001 23.0431L572.392 32.0346C572.416 32.5864 572.883 33.0142 573.434 32.9902C573.986 32.9662 574.414 32.4995 574.39 31.9477L574.043 23.9553L582.035 23.6078C582.587 23.5838 583.015 23.1171 582.991 22.5653C582.967 22.0135 582.5 21.5857 581.948 21.6097L572.957 22.0006ZM608.674 54.2607L591.424 38.5316L590.076 40.0094L607.326 55.7386L608.674 54.2607ZM591.426 38.5333L573.676 22.2625L572.324 23.7368L590.074 40.0076L591.426 38.5333Z" fill="#C4A8A8"/>
<path d="M525.929 39.6733L526.598 40.4161L526.6 40.4144L525.929 39.6733ZM507.042 55.7405C507.014 56.292 507.438 56.7624 507.989 56.7911L516.977 57.2585C517.529 57.2872 517.999 56.8634 518.028 56.3118C518.056 55.7603 517.632 55.2899 517.081 55.2612L509.092 54.8457L509.507 46.8565C509.536 46.305 509.112 45.8346 508.561 45.8059C508.009 45.7772 507.539 46.2011 507.51 46.7526L507.042 55.7405ZM542.559 23.2591L525.258 38.9321L526.6 40.4144L543.901 24.7414L542.559 23.2591ZM525.26 38.9304L507.372 55.0495L508.711 56.5353L526.598 40.4161L525.26 38.9304Z" fill="#C4A8A8"/>
<circle r="14" transform="matrix(1 0 0 -1 498 339)" stroke="#C4A8A8" stroke-width="2"/>
<circle r="14" transform="matrix(1 0 0 -1 613 339)" stroke="#C4A8A8" stroke-width="2"/>
<path d="M497.707 221.293C497.317 220.902 496.683 220.902 496.293 221.293L489.929 227.657C489.538 228.047 489.538 228.681 489.929 229.071C490.319 229.462 490.953 229.462 491.343 229.071L497 223.414L502.657 229.071C503.047 229.462 503.681 229.462 504.071 229.071C504.462 228.681 504.462 228.047 504.071 227.657L497.707 221.293ZM498 324V273.812H496V324H498ZM498 273.812V222H496V273.812H498Z" fill="#C4A8A8"/>
<path d="M613.707 324.707C613.317 325.098 612.683 325.098 612.293 324.707L605.929 318.343C605.538 317.953 605.538 317.319 605.929 316.929C606.319 316.538 606.953 316.538 607.343 316.929L613 322.586L618.657 316.929C619.047 316.538 619.681 316.538 620.071 316.929C620.462 317.319 620.462 317.953 620.071 318.343L613.707 324.707ZM614 222V306.25H612V222H614ZM614 306.25V324H612V306.25H614Z" fill="#C4A8A8"/>
<path d="M666.707 207.707C667.098 207.317 667.098 206.683 666.707 206.293L660.343 199.929C659.953 199.538 659.319 199.538 658.929 199.929C658.538 200.319 658.538 200.953 658.929 201.343L664.586 207L658.929 212.657C658.538 213.047 658.538 213.681 658.929 214.071C659.319 214.462 659.953 214.462 660.343 214.071L666.707 207.707ZM628 208H646.25V206H628V208ZM646.25 208H666V206H646.25V208Z" fill="#C4A8A8"/>
<path d="M599.707 207.707C600.098 207.317 600.098 206.683 599.707 206.293L593.343 199.929C592.953 199.538 592.319 199.538 591.929 199.929C591.538 200.319 591.538 200.953 591.929 201.343L597.586 207L591.929 212.657C591.538 213.047 591.538 213.681 591.929 214.071C592.319 214.462 592.953 214.462 593.343 214.071L599.707 207.707ZM512 208H567.23V206H512V208ZM567.23 208H599V206H567.23V208Z" fill="#C4A8A8"/>
<path d="M731.207 207.707C731.598 207.317 731.598 206.683 731.207 206.293L724.843 199.929C724.453 199.538 723.819 199.538 723.429 199.929C723.038 200.319 723.038 200.953 723.429 201.343L729.086 207L723.429 212.657C723.038 213.047 723.038 213.681 723.429 214.071C723.819 214.462 724.453 214.462 724.843 214.071L731.207 207.707ZM696 208H714.25V206H696V208ZM714.25 208H730.5V206H714.25V208Z" fill="#C4A8A8"/>
<path d="M364.156 201.721H360.377V213H358.619V201.721H354.84V200.236H364.156V201.721ZM375.895 213H374L373.111 210.217H367.799L366.9 213H365.094L369.332 200.236H371.715L375.895 213ZM372.613 208.664L370.455 201.838L368.297 208.664H372.613Z" fill="#C9D1D9"/>
<path d="M430.898 213H429.004L428.115 210.217H422.803L421.904 213H420.098L424.336 200.236H426.719L430.898 213ZM427.617 208.664L425.459 201.838L423.301 208.664H427.617ZM441.895 213H440L439.111 210.217H433.799L432.9 213H431.094L435.332 200.236H437.715L441.895 213ZM438.613 208.664L436.455 201.838L434.297 208.664H438.613Z" fill="#C9D1D9"/>
<path d="M496.898 213H495.004L494.115 210.217H488.803L487.904 213H486.098L490.336 200.236H492.719L496.898 213ZM493.617 208.664L491.459 201.838L489.301 208.664H493.617ZM507.152 201.721H503.373V213H501.615V201.721H497.836V200.236H507.152V201.721Z" fill="#C9D1D9"/>
<path d="M496.824 334.424C496.349 334.17 495.861 333.975 495.359 333.838C494.858 333.695 494.311 333.623 493.719 333.623C493.042 333.623 492.439 333.743 491.912 333.984C491.385 334.225 490.939 334.567 490.574 335.01C490.216 335.446 489.939 335.973 489.744 336.592C489.555 337.21 489.461 337.894 489.461 338.643C489.461 339.424 489.539 340.124 489.695 340.742C489.852 341.361 490.096 341.885 490.428 342.314C490.76 342.744 491.183 343.073 491.697 343.301C492.218 343.529 492.84 343.643 493.562 343.643C493.686 343.643 493.82 343.636 493.963 343.623C494.106 343.61 494.249 343.594 494.393 343.574C494.536 343.548 494.673 343.519 494.803 343.486C494.939 343.454 495.06 343.418 495.164 343.379V339.316H492.557V337.881H496.883V344.404C496.616 344.528 496.333 344.639 496.033 344.736C495.74 344.834 495.438 344.915 495.125 344.98C494.819 345.046 494.513 345.094 494.207 345.127C493.901 345.16 493.605 345.176 493.318 345.176C492.446 345.176 491.658 345.039 490.955 344.766C490.258 344.492 489.663 344.089 489.168 343.555C488.68 343.014 488.302 342.344 488.035 341.543C487.775 340.742 487.645 339.814 487.645 338.76C487.645 337.712 487.791 336.774 488.084 335.947C488.377 335.114 488.787 334.411 489.314 333.838C489.848 333.258 490.486 332.819 491.229 332.52C491.977 332.214 492.801 332.061 493.699 332.061C494.272 332.061 494.816 332.113 495.33 332.217C495.851 332.314 496.349 332.474 496.824 332.695V334.424ZM508.895 345H507L506.111 342.217H500.799L499.9 345H498.094L502.332 332.236H504.715L508.895 345ZM505.613 340.664L503.455 333.838L501.297 340.664H505.613Z" fill="#C9D1D9"/>
<path d="M612.156 202.721H608.377V214H606.619V202.721H602.84V201.236H612.156V202.721ZM622.82 203.424C622.345 203.17 621.857 202.975 621.355 202.838C620.854 202.695 620.307 202.623 619.715 202.623C619.038 202.623 618.436 202.743 617.908 202.984C617.381 203.225 616.935 203.567 616.57 204.01C616.212 204.446 615.936 204.973 615.74 205.592C615.551 206.21 615.457 206.894 615.457 207.643C615.457 208.424 615.535 209.124 615.691 209.742C615.848 210.361 616.092 210.885 616.424 211.314C616.756 211.744 617.179 212.073 617.693 212.301C618.214 212.529 618.836 212.643 619.559 212.643C619.682 212.643 619.816 212.636 619.959 212.623C620.102 212.61 620.245 212.594 620.389 212.574C620.532 212.548 620.669 212.519 620.799 212.486C620.936 212.454 621.056 212.418 621.16 212.379V208.316H618.553V206.881H622.879V213.404C622.612 213.528 622.329 213.639 622.029 213.736C621.736 213.834 621.434 213.915 621.121 213.98C620.815 214.046 620.509 214.094 620.203 214.127C619.897 214.16 619.601 214.176 619.314 214.176C618.442 214.176 617.654 214.039 616.951 213.766C616.255 213.492 615.659 213.089 615.164 212.555C614.676 212.014 614.298 211.344 614.031 210.543C613.771 209.742 613.641 208.814 613.641 207.76C613.641 206.712 613.787 205.774 614.08 204.947C614.373 204.114 614.783 203.411 615.311 202.838C615.844 202.258 616.482 201.819 617.225 201.52C617.973 201.214 618.797 201.061 619.695 201.061C620.268 201.061 620.812 201.113 621.326 201.217C621.847 201.314 622.345 201.474 622.82 201.695V203.424Z" fill="#C9D1D9"/>
<path d="M678.824 203.424C678.349 203.17 677.861 202.975 677.359 202.838C676.858 202.695 676.311 202.623 675.719 202.623C675.042 202.623 674.439 202.743 673.912 202.984C673.385 203.225 672.939 203.567 672.574 204.01C672.216 204.446 671.939 204.973 671.744 205.592C671.555 206.21 671.461 206.894 671.461 207.643C671.461 208.424 671.539 209.124 671.695 209.742C671.852 210.361 672.096 210.885 672.428 211.314C672.76 211.744 673.183 212.073 673.697 212.301C674.218 212.529 674.84 212.643 675.562 212.643C675.686 212.643 675.82 212.636 675.963 212.623C676.106 212.61 676.249 212.594 676.393 212.574C676.536 212.548 676.673 212.519 676.803 212.486C676.939 212.454 677.06 212.418 677.164 212.379V208.316H674.557V206.881H678.883V213.404C678.616 213.528 678.333 213.639 678.033 213.736C677.74 213.834 677.438 213.915 677.125 213.98C676.819 214.046 676.513 214.094 676.207 214.127C675.901 214.16 675.605 214.176 675.318 214.176C674.446 214.176 673.658 214.039 672.955 213.766C672.258 213.492 671.663 213.089 671.168 212.555C670.68 212.014 670.302 211.344 670.035 210.543C669.775 209.742 669.645 208.814 669.645 207.76C669.645 206.712 669.791 205.774 670.084 204.947C670.377 204.114 670.787 203.411 671.314 202.838C671.848 202.258 672.486 201.819 673.229 201.52C673.977 201.214 674.801 201.061 675.699 201.061C676.272 201.061 676.816 201.113 677.33 201.217C677.851 201.314 678.349 201.474 678.824 201.695V203.424ZM690.152 202.721H686.373V214H684.615V202.721H680.836V201.236H690.152V202.721Z" fill="#C9D1D9"/>
<path d="M746.156 202.721H742.377V214H740.619V202.721H736.84V201.236H746.156V202.721ZM757.152 202.721H753.373V214H751.615V202.721H747.836V201.236H757.152V202.721Z" fill="#C9D1D9"/>
<path d="M609.824 67.4238C609.349 67.1699 608.861 66.9746 608.359 66.8379C607.858 66.6947 607.311 66.623 606.719 66.623C606.042 66.623 605.439 66.7435 604.912 66.9844C604.385 67.2253 603.939 67.5671 603.574 68.0098C603.216 68.446 602.939 68.9733 602.744 69.5918C602.555 70.2103 602.461 70.8939 602.461 71.6426C602.461 72.4238 602.539 73.1237 602.695 73.7422C602.852 74.3607 603.096 74.8848 603.428 75.3145C603.76 75.7441 604.183 76.0729 604.697 76.3008C605.218 76.5286 605.84 76.6426 606.562 76.6426C606.686 76.6426 606.82 76.6361 606.963 76.623C607.106 76.61 607.249 76.5938 607.393 76.5742C607.536 76.5482 607.673 76.5189 607.803 76.4863C607.939 76.4538 608.06 76.418 608.164 76.3789V72.3164H605.557V70.8809H609.883V77.4043C609.616 77.528 609.333 77.6387 609.033 77.7363C608.74 77.834 608.438 77.9154 608.125 77.9805C607.819 78.0456 607.513 78.0944 607.207 78.127C606.901 78.1595 606.605 78.1758 606.318 78.1758C605.446 78.1758 604.658 78.0391 603.955 77.7656C603.258 77.4922 602.663 77.0885 602.168 76.5547C601.68 76.0143 601.302 75.3438 601.035 74.543C600.775 73.7422 600.645 72.8145 600.645 71.7598C600.645 70.7116 600.791 69.7741 601.084 68.9473C601.377 68.1139 601.787 67.4108 602.314 66.8379C602.848 66.2585 603.486 65.819 604.229 65.5195C604.977 65.2135 605.801 65.0605 606.699 65.0605C607.272 65.0605 607.816 65.1126 608.33 65.2168C608.851 65.3145 609.349 65.474 609.824 65.6953V67.4238ZM620.713 77.5215C619.691 77.9447 618.62 78.1562 617.5 78.1562C615.697 78.1562 614.31 77.6191 613.34 76.5449C612.376 75.4642 611.895 73.8691 611.895 71.7598C611.895 70.7376 612.028 69.8132 612.295 68.9863C612.562 68.1595 612.943 67.4596 613.438 66.8867C613.932 66.3073 614.531 65.8613 615.234 65.5488C615.938 65.2363 616.725 65.0801 617.598 65.0801C618.19 65.0801 618.74 65.1322 619.248 65.2363C619.756 65.334 620.244 65.487 620.713 65.6953V67.4043C620.251 67.1504 619.772 66.9583 619.277 66.8281C618.783 66.6914 618.242 66.623 617.656 66.623C617.057 66.623 616.514 66.737 616.025 66.9648C615.544 67.1862 615.133 67.5117 614.795 67.9414C614.456 68.3646 614.196 68.8854 614.014 69.5039C613.831 70.1159 613.74 70.8158 613.74 71.6035C613.74 73.2572 614.076 74.5039 614.746 75.3438C615.417 76.1836 616.4 76.6035 617.695 76.6035C618.242 76.6035 618.766 76.5417 619.268 76.418C619.769 76.2878 620.251 76.1087 620.713 75.8809V77.5215Z" fill="#C9D1D9"/>
<path d="M556.717 20.5215C555.695 20.9447 554.624 21.1562 553.504 21.1562C551.701 21.1562 550.314 20.6191 549.344 19.5449C548.38 18.4642 547.898 16.8691 547.898 14.7598C547.898 13.7376 548.032 12.8132 548.299 11.9863C548.566 11.1595 548.947 10.4596 549.441 9.88672C549.936 9.30729 550.535 8.86133 551.238 8.54883C551.941 8.23633 552.729 8.08008 553.602 8.08008C554.194 8.08008 554.744 8.13216 555.252 8.23633C555.76 8.33398 556.248 8.48698 556.717 8.69531V10.4043C556.255 10.1504 555.776 9.95833 555.281 9.82812C554.786 9.69141 554.246 9.62305 553.66 9.62305C553.061 9.62305 552.518 9.73698 552.029 9.96484C551.548 10.1862 551.137 10.5117 550.799 10.9414C550.46 11.3646 550.2 11.8854 550.018 12.5039C549.835 13.1159 549.744 13.8158 549.744 14.6035C549.744 16.2572 550.079 17.5039 550.75 18.3438C551.421 19.1836 552.404 19.6035 553.699 19.6035C554.246 19.6035 554.77 19.5417 555.271 19.418C555.773 19.2878 556.255 19.1087 556.717 18.8809V20.5215ZM567.713 20.5215C566.691 20.9447 565.62 21.1562 564.5 21.1562C562.697 21.1562 561.31 20.6191 560.34 19.5449C559.376 18.4642 558.895 16.8691 558.895 14.7598C558.895 13.7376 559.028 12.8132 559.295 11.9863C559.562 11.1595 559.943 10.4596 560.438 9.88672C560.932 9.30729 561.531 8.86133 562.234 8.54883C562.938 8.23633 563.725 8.08008 564.598 8.08008C565.19 8.08008 565.74 8.13216 566.248 8.23633C566.756 8.33398 567.244 8.48698 567.713 8.69531V10.4043C567.251 10.1504 566.772 9.95833 566.277 9.82812C565.783 9.69141 565.242 9.62305 564.656 9.62305C564.057 9.62305 563.514 9.73698 563.025 9.96484C562.544 10.1862 562.133 10.5117 561.795 10.9414C561.456 11.3646 561.196 11.8854 561.014 12.5039C560.831 13.1159 560.74 13.8158 560.74 14.6035C560.74 16.2572 561.076 17.5039 561.746 18.3438C562.417 19.1836 563.4 19.6035 564.695 19.6035C565.242 19.6035 565.766 19.5417 566.268 19.418C566.769 19.2878 567.251 19.1087 567.713 18.8809V20.5215Z" fill="#C9D1D9"/>
<path d="M495.717 77.5215C494.695 77.9447 493.624 78.1562 492.504 78.1562C490.701 78.1562 489.314 77.6191 488.344 76.5449C487.38 75.4642 486.898 73.8691 486.898 71.7598C486.898 70.7376 487.032 69.8132 487.299 68.9863C487.566 68.1595 487.947 67.4596 488.441 66.8867C488.936 66.3073 489.535 65.8613 490.238 65.5488C490.941 65.2363 491.729 65.0801 492.602 65.0801C493.194 65.0801 493.744 65.1322 494.252 65.2363C494.76 65.334 495.248 65.487 495.717 65.6953V67.4043C495.255 67.1504 494.776 66.9583 494.281 66.8281C493.786 66.6914 493.246 66.623 492.66 66.623C492.061 66.623 491.518 66.737 491.029 66.9648C490.548 67.1862 490.137 67.5117 489.799 67.9414C489.46 68.3646 489.2 68.8854 489.018 69.5039C488.835 70.1159 488.744 70.8158 488.744 71.6035C488.744 73.2572 489.079 74.5039 489.75 75.3438C490.421 76.1836 491.404 76.6035 492.699 76.6035C493.246 76.6035 493.77 76.5417 494.271 76.418C494.773 76.2878 495.255 76.1087 495.717 75.8809V77.5215ZM507.895 78H506L505.111 75.2168H499.799L498.9 78H497.094L501.332 65.2363H503.715L507.895 78ZM504.613 73.6641L502.455 66.8379L500.297 73.6641H504.613Z" fill="#C9D1D9"/>
<path d="M611.824 334.424C611.349 334.17 610.861 333.975 610.359 333.838C609.858 333.695 609.311 333.623 608.719 333.623C608.042 333.623 607.439 333.743 606.912 333.984C606.385 334.225 605.939 334.567 605.574 335.01C605.216 335.446 604.939 335.973 604.744 336.592C604.555 337.21 604.461 337.894 604.461 338.643C604.461 339.424 604.539 340.124 604.695 340.742C604.852 341.361 605.096 341.885 605.428 342.314C605.76 342.744 606.183 343.073 606.697 343.301C607.218 343.529 607.84 343.643 608.562 343.643C608.686 343.643 608.82 343.636 608.963 343.623C609.106 343.61 609.249 343.594 609.393 343.574C609.536 343.548 609.673 343.519 609.803 343.486C609.939 343.454 610.06 343.418 610.164 343.379V339.316H607.557V337.881H611.883V344.404C611.616 344.528 611.333 344.639 611.033 344.736C610.74 344.834 610.438 344.915 610.125 344.98C609.819 345.046 609.513 345.094 609.207 345.127C608.901 345.16 608.605 345.176 608.318 345.176C607.446 345.176 606.658 345.039 605.955 344.766C605.258 344.492 604.663 344.089 604.168 343.555C603.68 343.014 603.302 342.344 603.035 341.543C602.775 340.742 602.645 339.814 602.645 338.76C602.645 337.712 602.791 336.774 603.084 335.947C603.377 335.114 603.787 334.411 604.314 333.838C604.848 333.258 605.486 332.819 606.229 332.52C606.977 332.214 607.801 332.061 608.699 332.061C609.272 332.061 609.816 332.113 610.33 332.217C610.851 332.314 611.349 332.474 611.824 332.695V334.424ZM622.82 334.424C622.345 334.17 621.857 333.975 621.355 333.838C620.854 333.695 620.307 333.623 619.715 333.623C619.038 333.623 618.436 333.743 617.908 333.984C617.381 334.225 616.935 334.567 616.57 335.01C616.212 335.446 615.936 335.973 615.74 336.592C615.551 337.21 615.457 337.894 615.457 338.643C615.457 339.424 615.535 340.124 615.691 340.742C615.848 341.361 616.092 341.885 616.424 342.314C616.756 342.744 617.179 343.073 617.693 343.301C618.214 343.529 618.836 343.643 619.559 343.643C619.682 343.643 619.816 343.636 619.959 343.623C620.102 343.61 620.245 343.594 620.389 343.574C620.532 343.548 620.669 343.519 620.799 343.486C620.936 343.454 621.056 343.418 621.16 343.379V339.316H618.553V337.881H622.879V344.404C622.612 344.528 622.329 344.639 622.029 344.736C621.736 344.834 621.434 344.915 621.121 344.98C620.815 345.046 620.509 345.094 620.203 345.127C619.897 345.16 619.601 345.176 619.314 345.176C618.442 345.176 617.654 345.039 616.951 344.766C616.255 344.492 615.659 344.089 615.164 343.555C614.676 343.014 614.298 342.344 614.031 341.543C613.771 340.742 613.641 339.814 613.641 338.76C613.641 337.712 613.787 336.774 614.08 335.947C614.373 335.114 614.783 334.411 615.311 333.838C615.844 333.258 616.482 332.819 617.225 332.52C617.973 332.214 618.797 332.061 619.695 332.061C620.268 332.061 620.812 332.113 621.326 332.217C621.847 332.314 622.345 332.474 622.82 332.695V334.424Z" fill="#C9D1D9"/>
<path d="M543.301 199L542.598 196.48H538.145L537.422 199H535.039L538.818 186.236H542.178L545.957 199H543.301ZM540.4 188.58L538.721 194.518H542.061L540.4 188.58ZM552.725 188.238V199H550.264V188.238H546.768V186.236H556.221V188.238H552.725ZM562.549 193.6V191.617H567.09V198.424C566.504 198.697 565.892 198.899 565.254 199.029C564.616 199.16 563.923 199.225 563.174 199.225C562.288 199.225 561.491 199.088 560.781 198.814C560.078 198.541 559.479 198.134 558.984 197.594C558.49 197.053 558.109 196.383 557.842 195.582C557.581 194.781 557.451 193.854 557.451 192.799C557.451 191.738 557.588 190.787 557.861 189.947C558.141 189.107 558.545 188.398 559.072 187.818C559.606 187.232 560.257 186.786 561.025 186.48C561.8 186.174 562.682 186.021 563.672 186.021C564.258 186.021 564.827 186.074 565.381 186.178C565.941 186.275 566.497 186.409 567.051 186.578V188.951C566.569 188.723 566.035 188.538 565.449 188.395C564.87 188.245 564.284 188.17 563.691 188.17C563.092 188.17 562.562 188.274 562.1 188.482C561.644 188.691 561.26 188.987 560.947 189.371C560.641 189.755 560.407 190.227 560.244 190.787C560.088 191.347 560.01 191.979 560.01 192.682C560.01 193.359 560.072 193.971 560.195 194.518C560.319 195.058 560.518 195.52 560.791 195.904C561.071 196.282 561.429 196.572 561.865 196.773C562.301 196.975 562.832 197.076 563.457 197.076C563.607 197.076 563.737 197.073 563.848 197.066C563.958 197.053 564.062 197.037 564.16 197.018C564.258 196.998 564.349 196.975 564.434 196.949C564.525 196.923 564.619 196.894 564.717 196.861V193.6H562.549Z" fill="#C9D1D9"/>
<path d="M459.557 280.6V278.617H464.098V285.424C463.512 285.697 462.9 285.899 462.262 286.029C461.624 286.16 460.93 286.225 460.182 286.225C459.296 286.225 458.499 286.088 457.789 285.814C457.086 285.541 456.487 285.134 455.992 284.594C455.497 284.053 455.117 283.383 454.85 282.582C454.589 281.781 454.459 280.854 454.459 279.799C454.459 278.738 454.596 277.787 454.869 276.947C455.149 276.107 455.553 275.398 456.08 274.818C456.614 274.232 457.265 273.786 458.033 273.48C458.808 273.174 459.69 273.021 460.68 273.021C461.266 273.021 461.835 273.074 462.389 273.178C462.949 273.275 463.505 273.409 464.059 273.578V275.951C463.577 275.723 463.043 275.538 462.457 275.395C461.878 275.245 461.292 275.17 460.699 275.17C460.1 275.17 459.57 275.274 459.107 275.482C458.652 275.691 458.268 275.987 457.955 276.371C457.649 276.755 457.415 277.227 457.252 277.787C457.096 278.347 457.018 278.979 457.018 279.682C457.018 280.359 457.079 280.971 457.203 281.518C457.327 282.058 457.525 282.52 457.799 282.904C458.079 283.282 458.437 283.572 458.873 283.773C459.309 283.975 459.84 284.076 460.465 284.076C460.615 284.076 460.745 284.073 460.855 284.066C460.966 284.053 461.07 284.037 461.168 284.018C461.266 283.998 461.357 283.975 461.441 283.949C461.533 283.923 461.627 283.894 461.725 283.861V280.6H459.557ZM473.297 286L472.594 283.48H468.141L467.418 286H465.035L468.814 273.236H472.174L475.953 286H473.297ZM470.396 275.58L468.717 281.518H472.057L470.396 275.58ZM482.721 275.238V286H480.26V275.238H476.764V273.236H486.217V275.238H482.721Z" fill="#C9D1D9"/>
<path d="M625.729 278.238V289H623.268V278.238H619.771V276.236H629.225V278.238H625.729ZM635.553 283.6V281.617H640.094V288.424C639.508 288.697 638.896 288.899 638.258 289.029C637.62 289.16 636.926 289.225 636.178 289.225C635.292 289.225 634.495 289.088 633.785 288.814C633.082 288.541 632.483 288.134 631.988 287.594C631.493 287.053 631.113 286.383 630.846 285.582C630.585 284.781 630.455 283.854 630.455 282.799C630.455 281.738 630.592 280.787 630.865 279.947C631.145 279.107 631.549 278.398 632.076 277.818C632.61 277.232 633.261 276.786 634.029 276.48C634.804 276.174 635.686 276.021 636.676 276.021C637.262 276.021 637.831 276.074 638.385 276.178C638.945 276.275 639.501 276.409 640.055 276.578V278.951C639.573 278.723 639.039 278.538 638.453 278.395C637.874 278.245 637.288 278.17 636.695 278.17C636.096 278.17 635.566 278.274 635.104 278.482C634.648 278.691 634.264 278.987 633.951 279.371C633.645 279.755 633.411 280.227 633.248 280.787C633.092 281.347 633.014 281.979 633.014 282.682C633.014 283.359 633.076 283.971 633.199 284.518C633.323 285.058 633.521 285.52 633.795 285.904C634.075 286.282 634.433 286.572 634.869 286.773C635.305 286.975 635.836 287.076 636.461 287.076C636.611 287.076 636.741 287.073 636.852 287.066C636.962 287.053 637.066 287.037 637.164 287.018C637.262 286.998 637.353 286.975 637.438 286.949C637.529 286.923 637.623 286.894 637.721 286.861V283.6H635.553ZM646.549 283.6V281.617H651.09V288.424C650.504 288.697 649.892 288.899 649.254 289.029C648.616 289.16 647.923 289.225 647.174 289.225C646.288 289.225 645.491 289.088 644.781 288.814C644.078 288.541 643.479 288.134 642.984 287.594C642.49 287.053 642.109 286.383 641.842 285.582C641.581 284.781 641.451 283.854 641.451 282.799C641.451 281.738 641.588 280.787 641.861 279.947C642.141 279.107 642.545 278.398 643.072 277.818C643.606 277.232 644.257 276.786 645.025 276.48C645.8 276.174 646.682 276.021 647.672 276.021C648.258 276.021 648.827 276.074 649.381 276.178C649.941 276.275 650.497 276.409 651.051 276.578V278.951C650.569 278.723 650.035 278.538 649.449 278.395C648.87 278.245 648.284 278.17 647.691 278.17C647.092 278.17 646.562 278.274 646.1 278.482C645.644 278.691 645.26 278.987 644.947 279.371C644.641 279.755 644.407 280.227 644.244 280.787C644.088 281.347 644.01 281.979 644.01 282.682C644.01 283.359 644.072 283.971 644.195 284.518C644.319 285.058 644.518 285.52 644.791 285.904C645.071 286.282 645.429 286.572 645.865 286.773C646.301 286.975 646.832 287.076 647.457 287.076C647.607 287.076 647.737 287.073 647.848 287.066C647.958 287.053 648.062 287.037 648.16 287.018C648.258 286.998 648.349 286.975 648.434 286.949C648.525 286.923 648.619 286.894 648.717 286.861V283.6H646.549Z" fill="#C9D1D9"/>
<path d="M625.729 122.238V133H623.268V122.238H619.771V120.236H629.225V122.238H625.729ZM635.553 127.6V125.617H640.094V132.424C639.508 132.697 638.896 132.899 638.258 133.029C637.62 133.16 636.926 133.225 636.178 133.225C635.292 133.225 634.495 133.088 633.785 132.814C633.082 132.541 632.483 132.134 631.988 131.594C631.493 131.053 631.113 130.383 630.846 129.582C630.585 128.781 630.455 127.854 630.455 126.799C630.455 125.738 630.592 124.787 630.865 123.947C631.145 123.107 631.549 122.398 632.076 121.818C632.61 121.232 633.261 120.786 634.029 120.48C634.804 120.174 635.686 120.021 636.676 120.021C637.262 120.021 637.831 120.074 638.385 120.178C638.945 120.275 639.501 120.409 640.055 120.578V122.951C639.573 122.723 639.039 122.538 638.453 122.395C637.874 122.245 637.288 122.17 636.695 122.17C636.096 122.17 635.566 122.274 635.104 122.482C634.648 122.691 634.264 122.987 633.951 123.371C633.645 123.755 633.411 124.227 633.248 124.787C633.092 125.347 633.014 125.979 633.014 126.682C633.014 127.359 633.076 127.971 633.199 128.518C633.323 129.058 633.521 129.52 633.795 129.904C634.075 130.282 634.433 130.572 634.869 130.773C635.305 130.975 635.836 131.076 636.461 131.076C636.611 131.076 636.741 131.073 636.852 131.066C636.962 131.053 637.066 131.037 637.164 131.018C637.262 130.998 637.353 130.975 637.438 130.949C637.529 130.923 637.623 130.894 637.721 130.861V127.6H635.553ZM650.797 132.502C650.23 132.73 649.68 132.899 649.146 133.01C648.619 133.12 648.069 133.176 647.496 133.176C646.578 133.176 645.764 133.042 645.055 132.775C644.352 132.502 643.756 132.098 643.268 131.564C642.786 131.031 642.418 130.37 642.164 129.582C641.917 128.788 641.793 127.867 641.793 126.818C641.793 125.744 641.93 124.79 642.203 123.957C642.477 123.117 642.867 122.411 643.375 121.838C643.883 121.258 644.498 120.819 645.221 120.52C645.95 120.214 646.767 120.061 647.672 120.061C647.965 120.061 648.238 120.067 648.492 120.08C648.753 120.093 649.007 120.119 649.254 120.158C649.501 120.191 649.752 120.236 650.006 120.295C650.26 120.354 650.523 120.428 650.797 120.52V122.902C650.243 122.642 649.716 122.456 649.215 122.346C648.714 122.235 648.258 122.18 647.848 122.18C647.242 122.18 646.725 122.29 646.295 122.512C645.865 122.727 645.51 123.033 645.23 123.43C644.957 123.82 644.755 124.289 644.625 124.836C644.495 125.376 644.43 125.972 644.43 126.623C644.43 127.313 644.495 127.932 644.625 128.479C644.762 129.019 644.97 129.478 645.25 129.855C645.53 130.233 645.888 130.523 646.324 130.725C646.76 130.92 647.278 131.018 647.877 131.018C648.092 131.018 648.323 130.998 648.57 130.959C648.824 130.913 649.078 130.858 649.332 130.793C649.592 130.721 649.846 130.64 650.094 130.549C650.348 130.451 650.582 130.354 650.797 130.256V132.502Z" fill="#C9D1D9"/>
<path d="M466.805 132.502C466.238 132.73 465.688 132.899 465.154 133.01C464.627 133.12 464.077 133.176 463.504 133.176C462.586 133.176 461.772 133.042 461.062 132.775C460.359 132.502 459.764 132.098 459.275 131.564C458.794 131.031 458.426 130.37 458.172 129.582C457.924 128.788 457.801 127.867 457.801 126.818C457.801 125.744 457.938 124.79 458.211 123.957C458.484 123.117 458.875 122.411 459.383 121.838C459.891 121.258 460.506 120.819 461.229 120.52C461.958 120.214 462.775 120.061 463.68 120.061C463.973 120.061 464.246 120.067 464.5 120.08C464.76 120.093 465.014 120.119 465.262 120.158C465.509 120.191 465.76 120.236 466.014 120.295C466.268 120.354 466.531 120.428 466.805 120.52V122.902C466.251 122.642 465.724 122.456 465.223 122.346C464.721 122.235 464.266 122.18 463.855 122.18C463.25 122.18 462.732 122.29 462.303 122.512C461.873 122.727 461.518 123.033 461.238 123.43C460.965 123.82 460.763 124.289 460.633 124.836C460.503 125.376 460.438 125.972 460.438 126.623C460.438 127.313 460.503 127.932 460.633 128.479C460.77 129.019 460.978 129.478 461.258 129.855C461.538 130.233 461.896 130.523 462.332 130.725C462.768 130.92 463.286 131.018 463.885 131.018C464.1 131.018 464.331 130.998 464.578 130.959C464.832 130.913 465.086 130.858 465.34 130.793C465.6 130.721 465.854 130.64 466.102 130.549C466.355 130.451 466.59 130.354 466.805 130.256V132.502ZM476.297 133L475.594 130.48H471.141L470.418 133H468.035L471.814 120.236H475.174L478.953 133H476.297ZM473.396 122.58L471.717 128.518H475.057L473.396 122.58ZM485.721 122.238V133H483.26V122.238H479.764V120.236H489.217V122.238H485.721Z" fill="#C9D1D9"/>
<path d="M499.805 34.502C499.238 34.7298 498.688 34.8991 498.154 35.0098C497.627 35.1204 497.077 35.1758 496.504 35.1758C495.586 35.1758 494.772 35.0423 494.062 34.7754C493.359 34.502 492.764 34.0983 492.275 33.5645C491.794 33.0306 491.426 32.3698 491.172 31.582C490.924 30.7878 490.801 29.8665 490.801 28.8184C490.801 27.7441 490.938 26.7904 491.211 25.957C491.484 25.1172 491.875 24.4108 492.383 23.8379C492.891 23.2585 493.506 22.819 494.229 22.5195C494.958 22.2135 495.775 22.0605 496.68 22.0605C496.973 22.0605 497.246 22.0671 497.5 22.0801C497.76 22.0931 498.014 22.1191 498.262 22.1582C498.509 22.1908 498.76 22.2363 499.014 22.2949C499.268 22.3535 499.531 22.4284 499.805 22.5195V24.9023C499.251 24.6419 498.724 24.4564 498.223 24.3457C497.721 24.235 497.266 24.1797 496.855 24.1797C496.25 24.1797 495.732 24.2904 495.303 24.5117C494.873 24.7266 494.518 25.0326 494.238 25.4297C493.965 25.8203 493.763 26.2891 493.633 26.8359C493.503 27.3763 493.438 27.972 493.438 28.623C493.438 29.3132 493.503 29.9316 493.633 30.4785C493.77 31.0189 493.978 31.4779 494.258 31.8555C494.538 32.2331 494.896 32.5228 495.332 32.7246C495.768 32.9199 496.286 33.0176 496.885 33.0176C497.1 33.0176 497.331 32.998 497.578 32.959C497.832 32.9134 498.086 32.8581 498.34 32.793C498.6 32.7214 498.854 32.64 499.102 32.5488C499.355 32.4512 499.59 32.3535 499.805 32.2559V34.502ZM510.801 34.502C510.234 34.7298 509.684 34.8991 509.15 35.0098C508.623 35.1204 508.073 35.1758 507.5 35.1758C506.582 35.1758 505.768 35.0423 505.059 34.7754C504.355 34.502 503.76 34.0983 503.271 33.5645C502.79 33.0306 502.422 32.3698 502.168 31.582C501.921 30.7878 501.797 29.8665 501.797 28.8184C501.797 27.7441 501.934 26.7904 502.207 25.957C502.48 25.1172 502.871 24.4108 503.379 23.8379C503.887 23.2585 504.502 22.819 505.225 22.5195C505.954 22.2135 506.771 22.0605 507.676 22.0605C507.969 22.0605 508.242 22.0671 508.496 22.0801C508.757 22.0931 509.01 22.1191 509.258 22.1582C509.505 22.1908 509.756 22.2363 510.01 22.2949C510.264 22.3535 510.527 22.4284 510.801 22.5195V24.9023C510.247 24.6419 509.72 24.4564 509.219 24.3457C508.717 24.235 508.262 24.1797 507.852 24.1797C507.246 24.1797 506.729 24.2904 506.299 24.5117C505.869 24.7266 505.514 25.0326 505.234 25.4297C504.961 25.8203 504.759 26.2891 504.629 26.8359C504.499 27.3763 504.434 27.972 504.434 28.623C504.434 29.3132 504.499 29.9316 504.629 30.4785C504.766 31.0189 504.974 31.4779 505.254 31.8555C505.534 32.2331 505.892 32.5228 506.328 32.7246C506.764 32.9199 507.282 33.0176 507.881 33.0176C508.096 33.0176 508.327 32.998 508.574 32.959C508.828 32.9134 509.082 32.8581 509.336 32.793C509.596 32.7214 509.85 32.64 510.098 32.5488C510.352 32.4512 510.586 32.3535 510.801 32.2559V34.502ZM520.293 35L519.59 32.4805H515.137L514.414 35H512.031L515.811 22.2363H519.17L522.949 35H520.293ZM517.393 24.5801L515.713 30.5176H519.053L517.393 24.5801Z" fill="#C9D1D9"/>
<path d="M597.557 32.5996V30.6172H602.098V37.4238C601.512 37.6973 600.9 37.8991 600.262 38.0293C599.624 38.1595 598.93 38.2246 598.182 38.2246C597.296 38.2246 596.499 38.0879 595.789 37.8145C595.086 37.541 594.487 37.1341 593.992 36.5938C593.497 36.0534 593.117 35.3828 592.85 34.582C592.589 33.7812 592.459 32.8535 592.459 31.7988C592.459 30.7376 592.596 29.7871 592.869 28.9473C593.149 28.1074 593.553 27.3978 594.08 26.8184C594.614 26.2324 595.265 25.7865 596.033 25.4805C596.808 25.1745 597.69 25.0215 598.68 25.0215C599.266 25.0215 599.835 25.0736 600.389 25.1777C600.949 25.2754 601.505 25.4089 602.059 25.5781V27.9512C601.577 27.7233 601.043 27.5378 600.457 27.3945C599.878 27.2448 599.292 27.1699 598.699 27.1699C598.1 27.1699 597.57 27.2741 597.107 27.4824C596.652 27.6908 596.268 27.987 595.955 28.3711C595.649 28.7552 595.415 29.2272 595.252 29.7871C595.096 30.347 595.018 30.9785 595.018 31.6816C595.018 32.3587 595.079 32.9707 595.203 33.5176C595.327 34.0579 595.525 34.5202 595.799 34.9043C596.079 35.2819 596.437 35.5716 596.873 35.7734C597.309 35.9753 597.84 36.0762 598.465 36.0762C598.615 36.0762 598.745 36.0729 598.855 36.0664C598.966 36.0534 599.07 36.0371 599.168 36.0176C599.266 35.998 599.357 35.9753 599.441 35.9492C599.533 35.9232 599.627 35.8939 599.725 35.8613V32.5996H597.557ZM612.801 37.502C612.234 37.7298 611.684 37.8991 611.15 38.0098C610.623 38.1204 610.073 38.1758 609.5 38.1758C608.582 38.1758 607.768 38.0423 607.059 37.7754C606.355 37.502 605.76 37.0983 605.271 36.5645C604.79 36.0306 604.422 35.3698 604.168 34.582C603.921 33.7878 603.797 32.8665 603.797 31.8184C603.797 30.7441 603.934 29.7904 604.207 28.957C604.48 28.1172 604.871 27.4108 605.379 26.8379C605.887 26.2585 606.502 25.819 607.225 25.5195C607.954 25.2135 608.771 25.0605 609.676 25.0605C609.969 25.0605 610.242 25.0671 610.496 25.0801C610.757 25.0931 611.01 25.1191 611.258 25.1582C611.505 25.1908 611.756 25.2363 612.01 25.2949C612.264 25.3535 612.527 25.4284 612.801 25.5195V27.9023C612.247 27.6419 611.72 27.4564 611.219 27.3457C610.717 27.235 610.262 27.1797 609.852 27.1797C609.246 27.1797 608.729 27.2904 608.299 27.5117C607.869 27.7266 607.514 28.0326 607.234 28.4297C606.961 28.8203 606.759 29.2891 606.629 29.8359C606.499 30.3763 606.434 30.972 606.434 31.623C606.434 32.3132 606.499 32.9316 606.629 33.4785C606.766 34.0189 606.974 34.4779 607.254 34.8555C607.534 35.2331 607.892 35.5228 608.328 35.7246C608.764 35.9199 609.282 36.0176 609.881 36.0176C610.096 36.0176 610.327 35.998 610.574 35.959C610.828 35.9134 611.082 35.8581 611.336 35.793C611.596 35.7214 611.85 35.64 612.098 35.5488C612.352 35.4512 612.586 35.3535 612.801 35.2559V37.502ZM623.797 37.502C623.23 37.7298 622.68 37.8991 622.146 38.0098C621.619 38.1204 621.069 38.1758 620.496 38.1758C619.578 38.1758 618.764 38.0423 618.055 37.7754C617.352 37.502 616.756 37.0983 616.268 36.5645C615.786 36.0306 615.418 35.3698 615.164 34.582C614.917 33.7878 614.793 32.8665 614.793 31.8184C614.793 30.7441 614.93 29.7904 615.203 28.957C615.477 28.1172 615.867 27.4108 616.375 26.8379C616.883 26.2585 617.498 25.819 618.221 25.5195C618.95 25.2135 619.767 25.0605 620.672 25.0605C620.965 25.0605 621.238 25.0671 621.492 25.0801C621.753 25.0931 622.007 25.1191 622.254 25.1582C622.501 25.1908 622.752 25.2363 623.006 25.2949C623.26 25.3535 623.523 25.4284 623.797 25.5195V27.9023C623.243 27.6419 622.716 27.4564 622.215 27.3457C621.714 27.235 621.258 27.1797 620.848 27.1797C620.242 27.1797 619.725 27.2904 619.295 27.5117C618.865 27.7266 618.51 28.0326 618.23 28.4297C617.957 28.8203 617.755 29.2891 617.625 29.8359C617.495 30.3763 617.43 30.972 617.43 31.623C617.43 32.3132 617.495 32.9316 617.625 33.4785C617.762 34.0189 617.97 34.4779 618.25 34.8555C618.53 35.2331 618.888 35.5228 619.324 35.7246C619.76 35.9199 620.278 36.0176 620.877 36.0176C621.092 36.0176 621.323 35.998 621.57 35.959C621.824 35.9134 622.078 35.8581 622.332 35.793C622.592 35.7214 622.846 35.64 623.094 35.5488C623.348 35.4512 623.582 35.3535 623.797 35.2559V37.502Z" fill="#C9D1D9"/>
<path d="M639.053 344.615L630.628 343.492" stroke="#C4A8A8" stroke-width="2"/>
<path d="M633.238 335.264L630 344.416" stroke="#C4A8A8" stroke-width="2"/>
<path d="M506 195.709C523.6 180.584 543.566 167.787 567.689 173.309C576.276 175.275 585.26 180.886 591.511 186.998C594.388 189.812 598.5 194.5 601 198" stroke="#C4A8A8" stroke-width="2" stroke-linecap="round" stroke-linejoin="round"/>
<path d="M601 189.5V198" stroke="#C4A8A8" stroke-width="2"/>
<path d="M592.5 196.5L602 198.5" stroke="#C4A8A8" stroke-width="2"/>
<path d="M505 218.791C522.6 233.916 542.566 246.713 566.689 241.191C575.276 239.225 584.26 233.614 590.511 227.502C593.388 224.688 597.5 220 600 216.5" stroke="#C4A8A8" stroke-width="2" stroke-linecap="round" stroke-linejoin="round"/>
<path d="M600 225V216.5" stroke="#C4A8A8" stroke-width="2"/>
<path d="M591.5 218L601 216" stroke="#C4A8A8" stroke-width="2"/>
<path d="M543.301 165L542.598 162.48H538.145L537.422 165H535.039L538.818 152.236H542.178L545.957 165H543.301ZM540.4 154.58L538.721 160.518H542.061L540.4 154.58ZM552.725 154.238V165H550.264V154.238H546.768V152.236H556.221V154.238H552.725ZM562.549 159.6V157.617H567.09V164.424C566.504 164.697 565.892 164.899 565.254 165.029C564.616 165.16 563.923 165.225 563.174 165.225C562.288 165.225 561.491 165.088 560.781 164.814C560.078 164.541 559.479 164.134 558.984 163.594C558.49 163.053 558.109 162.383 557.842 161.582C557.581 160.781 557.451 159.854 557.451 158.799C557.451 157.738 557.588 156.787 557.861 155.947C558.141 155.107 558.545 154.398 559.072 153.818C559.606 153.232 560.257 152.786 561.025 152.48C561.8 152.174 562.682 152.021 563.672 152.021C564.258 152.021 564.827 152.074 565.381 152.178C565.941 152.275 566.497 152.409 567.051 152.578V154.951C566.569 154.723 566.035 154.538 565.449 154.395C564.87 154.245 564.284 154.17 563.691 154.17C563.092 154.17 562.562 154.274 562.1 154.482C561.644 154.691 561.26 154.987 560.947 155.371C560.641 155.755 560.407 156.227 560.244 156.787C560.088 157.347 560.01 157.979 560.01 158.682C560.01 159.359 560.072 159.971 560.195 160.518C560.319 161.058 560.518 161.52 560.791 161.904C561.071 162.282 561.429 162.572 561.865 162.773C562.301 162.975 562.832 163.076 563.457 163.076C563.607 163.076 563.737 163.073 563.848 163.066C563.958 163.053 564.062 163.037 564.16 163.018C564.258 162.998 564.349 162.975 564.434 162.949C564.525 162.923 564.619 162.894 564.717 162.861V159.6H562.549Z" fill="#C9D1D9"/>
<path d="M543.301 234L542.598 231.48H538.145L537.422 234H535.039L538.818 221.236H542.178L545.957 234H543.301ZM540.4 223.58L538.721 229.518H542.061L540.4 223.58ZM552.725 223.238V234H550.264V223.238H546.768V221.236H556.221V223.238H552.725ZM562.549 228.6V226.617H567.09V233.424C566.504 233.697 565.892 233.899 565.254 234.029C564.616 234.16 563.923 234.225 563.174 234.225C562.288 234.225 561.491 234.088 560.781 233.814C560.078 233.541 559.479 233.134 558.984 232.594C558.49 232.053 558.109 231.383 557.842 230.582C557.581 229.781 557.451 228.854 557.451 227.799C557.451 226.738 557.588 225.787 557.861 224.947C558.141 224.107 558.545 223.398 559.072 222.818C559.606 222.232 560.257 221.786 561.025 221.48C561.8 221.174 562.682 221.021 563.672 221.021C564.258 221.021 564.827 221.074 565.381 221.178C565.941 221.275 566.497 221.409 567.051 221.578V223.951C566.569 223.723 566.035 223.538 565.449 223.395C564.87 223.245 564.284 223.17 563.691 223.17C563.092 223.17 562.562 223.274 562.1 223.482C561.644 223.691 561.26 223.987 560.947 224.371C560.641 224.755 560.407 225.227 560.244 225.787C560.088 226.347 560.01 226.979 560.01 227.682C560.01 228.359 560.072 228.971 560.195 229.518C560.319 230.058 560.518 230.52 560.791 230.904C561.071 231.282 561.429 231.572 561.865 231.773C562.301 231.975 562.832 232.076 563.457 232.076C563.607 232.076 563.737 232.073 563.848 232.066C563.958 232.053 564.062 232.037 564.16 232.018C564.258 231.998 564.349 231.975 564.434 231.949C564.525 231.923 564.619 231.894 564.717 231.861V228.6H562.549Z" fill="#C9D1D9"/>
<path d="M513.293 338.293C512.902 338.683 512.902 339.317 513.293 339.707L519.657 346.071C520.047 346.462 520.681 346.462 521.071 346.071C521.462 345.681 521.462 345.047 521.071 344.657L515.414 339L521.071 333.343C521.462 332.953 521.462 332.319 521.071 331.929C520.681 331.538 520.047 331.538 519.657 331.929L513.293 338.293ZM598 338H514V340H598V338Z" fill="#C4A8A8"/>
<path d="M544.557 325.6V323.617H549.098V330.424C548.512 330.697 547.9 330.899 547.262 331.029C546.624 331.16 545.93 331.225 545.182 331.225C544.296 331.225 543.499 331.088 542.789 330.814C542.086 330.541 541.487 330.134 540.992 329.594C540.497 329.053 540.117 328.383 539.85 327.582C539.589 326.781 539.459 325.854 539.459 324.799C539.459 323.738 539.596 322.787 539.869 321.947C540.149 321.107 540.553 320.398 541.08 319.818C541.614 319.232 542.265 318.786 543.033 318.48C543.808 318.174 544.69 318.021 545.68 318.021C546.266 318.021 546.835 318.074 547.389 318.178C547.949 318.275 548.505 318.409 549.059 318.578V320.951C548.577 320.723 548.043 320.538 547.457 320.395C546.878 320.245 546.292 320.17 545.699 320.17C545.1 320.17 544.57 320.274 544.107 320.482C543.652 320.691 543.268 320.987 542.955 321.371C542.649 321.755 542.415 322.227 542.252 322.787C542.096 323.347 542.018 323.979 542.018 324.682C542.018 325.359 542.079 325.971 542.203 326.518C542.327 327.058 542.525 327.52 542.799 327.904C543.079 328.282 543.437 328.572 543.873 328.773C544.309 328.975 544.84 329.076 545.465 329.076C545.615 329.076 545.745 329.073 545.855 329.066C545.966 329.053 546.07 329.037 546.168 329.018C546.266 328.998 546.357 328.975 546.441 328.949C546.533 328.923 546.627 328.894 546.725 328.861V325.6H544.557ZM555.553 325.6V323.617H560.094V330.424C559.508 330.697 558.896 330.899 558.258 331.029C557.62 331.16 556.926 331.225 556.178 331.225C555.292 331.225 554.495 331.088 553.785 330.814C553.082 330.541 552.483 330.134 551.988 329.594C551.493 329.053 551.113 328.383 550.846 327.582C550.585 326.781 550.455 325.854 550.455 324.799C550.455 323.738 550.592 322.787 550.865 321.947C551.145 321.107 551.549 320.398 552.076 319.818C552.61 319.232 553.261 318.786 554.029 318.48C554.804 318.174 555.686 318.021 556.676 318.021C557.262 318.021 557.831 318.074 558.385 318.178C558.945 318.275 559.501 318.409 560.055 318.578V320.951C559.573 320.723 559.039 320.538 558.453 320.395C557.874 320.245 557.288 320.17 556.695 320.17C556.096 320.17 555.566 320.274 555.104 320.482C554.648 320.691 554.264 320.987 553.951 321.371C553.645 321.755 553.411 322.227 553.248 322.787C553.092 323.347 553.014 323.979 553.014 324.682C553.014 325.359 553.076 325.971 553.199 326.518C553.323 327.058 553.521 327.52 553.795 327.904C554.075 328.282 554.433 328.572 554.869 328.773C555.305 328.975 555.836 329.076 556.461 329.076C556.611 329.076 556.741 329.073 556.852 329.066C556.962 329.053 557.066 329.037 557.164 329.018C557.262 328.998 557.353 328.975 557.438 328.949C557.529 328.923 557.623 328.894 557.721 328.861V325.6H555.553ZM569.293 331L568.59 328.48H564.137L563.414 331H561.031L564.811 318.236H568.17L571.949 331H569.293ZM566.393 320.58L564.713 326.518H568.053L566.393 320.58Z" fill="#C9D1D9"/>
<path d="M613.9 357.701C615.313 368.832 619.586 376.194 630.433 380.056C637.604 382.609 647.508 382.43 653.744 377.59C659.037 373.482 662.311 368.794 662.656 361.99C662.938 356.404 661.769 350.126 658.122 345.701C653.794 340.448 644.105 337.849 637.5 339.5C636.677 339.706 630.592 342.501 631.9 342.501" stroke="#C4A8A8" stroke-width="2" stroke-linecap="round" stroke-linejoin="round"/>
<path d="M629.557 369.6V367.617H634.098V374.424C633.512 374.697 632.9 374.899 632.262 375.029C631.624 375.16 630.93 375.225 630.182 375.225C629.296 375.225 628.499 375.088 627.789 374.814C627.086 374.541 626.487 374.134 625.992 373.594C625.497 373.053 625.117 372.383 624.85 371.582C624.589 370.781 624.459 369.854 624.459 368.799C624.459 367.738 624.596 366.787 624.869 365.947C625.149 365.107 625.553 364.398 626.08 363.818C626.614 363.232 627.265 362.786 628.033 362.48C628.808 362.174 629.69 362.021 630.68 362.021C631.266 362.021 631.835 362.074 632.389 362.178C632.949 362.275 633.505 362.409 634.059 362.578V364.951C633.577 364.723 633.043 364.538 632.457 364.395C631.878 364.245 631.292 364.17 630.699 364.17C630.1 364.17 629.57 364.274 629.107 364.482C628.652 364.691 628.268 364.987 627.955 365.371C627.649 365.755 627.415 366.227 627.252 366.787C627.096 367.347 627.018 367.979 627.018 368.682C627.018 369.359 627.079 369.971 627.203 370.518C627.327 371.058 627.525 371.52 627.799 371.904C628.079 372.282 628.437 372.572 628.873 372.773C629.309 372.975 629.84 373.076 630.465 373.076C630.615 373.076 630.745 373.073 630.855 373.066C630.966 373.053 631.07 373.037 631.168 373.018C631.266 372.998 631.357 372.975 631.441 372.949C631.533 372.923 631.627 372.894 631.725 372.861V369.6H629.557ZM640.553 369.6V367.617H645.094V374.424C644.508 374.697 643.896 374.899 643.258 375.029C642.62 375.16 641.926 375.225 641.178 375.225C640.292 375.225 639.495 375.088 638.785 374.814C638.082 374.541 637.483 374.134 636.988 373.594C636.493 373.053 636.113 372.383 635.846 371.582C635.585 370.781 635.455 369.854 635.455 368.799C635.455 367.738 635.592 366.787 635.865 365.947C636.145 365.107 636.549 364.398 637.076 363.818C637.61 363.232 638.261 362.786 639.029 362.48C639.804 362.174 640.686 362.021 641.676 362.021C642.262 362.021 642.831 362.074 643.385 362.178C643.945 362.275 644.501 362.409 645.055 362.578V364.951C644.573 364.723 644.039 364.538 643.453 364.395C642.874 364.245 642.288 364.17 641.695 364.17C641.096 364.17 640.566 364.274 640.104 364.482C639.648 364.691 639.264 364.987 638.951 365.371C638.645 365.755 638.411 366.227 638.248 366.787C638.092 367.347 638.014 367.979 638.014 368.682C638.014 369.359 638.076 369.971 638.199 370.518C638.323 371.058 638.521 371.52 638.795 371.904C639.075 372.282 639.433 372.572 639.869 372.773C640.305 372.975 640.836 373.076 641.461 373.076C641.611 373.076 641.741 373.073 641.852 373.066C641.962 373.053 642.066 373.037 642.164 373.018C642.262 372.998 642.353 372.975 642.438 372.949C642.529 372.923 642.623 372.894 642.721 372.861V369.6H640.553ZM651.549 369.6V367.617H656.09V374.424C655.504 374.697 654.892 374.899 654.254 375.029C653.616 375.16 652.923 375.225 652.174 375.225C651.288 375.225 650.491 375.088 649.781 374.814C649.078 374.541 648.479 374.134 647.984 373.594C647.49 373.053 647.109 372.383 646.842 371.582C646.581 370.781 646.451 369.854 646.451 368.799C646.451 367.738 646.588 366.787 646.861 365.947C647.141 365.107 647.545 364.398 648.072 363.818C648.606 363.232 649.257 362.786 650.025 362.48C650.8 362.174 651.682 362.021 652.672 362.021C653.258 362.021 653.827 362.074 654.381 362.178C654.941 362.275 655.497 362.409 656.051 362.578V364.951C655.569 364.723 655.035 364.538 654.449 364.395C653.87 364.245 653.284 364.17 652.691 364.17C652.092 364.17 651.562 364.274 651.1 364.482C650.644 364.691 650.26 364.987 649.947 365.371C649.641 365.755 649.407 366.227 649.244 366.787C649.088 367.347 649.01 367.979 649.01 368.682C649.01 369.359 649.072 369.971 649.195 370.518C649.319 371.058 649.518 371.52 649.791 371.904C650.071 372.282 650.429 372.572 650.865 372.773C651.301 372.975 651.832 373.076 652.457 373.076C652.607 373.076 652.737 373.073 652.848 373.066C652.958 373.053 653.062 373.037 653.16 373.018C653.258 372.998 653.349 372.975 653.434 372.949C653.525 372.923 653.619 372.894 653.717 372.861V369.6H651.549Z" fill="#C9D1D9"/>
<path d="M10.8984 188H9.00391L8.11523 185.217H2.80273L1.9043 188H0.0976562L4.33594 175.236H6.71875L10.8984 188ZM7.61719 183.664L5.45898 176.838L3.30078 183.664H7.61719ZM21.8945 188H20L19.1113 185.217H13.7988L12.9004 188H11.0938L15.332 175.236H17.7148L21.8945 188ZM18.6133 183.664L16.4551 176.838L14.2969 183.664H18.6133ZM32.1484 176.721H28.3691V188H26.6113V176.721H22.832V175.236H32.1484V176.721ZM54.8828 188H52.9883L52.0996 185.217H46.7871L45.8887 188H44.082L48.3203 175.236H50.7031L54.8828 188ZM51.6016 183.664L49.4434 176.838L47.2852 183.664H51.6016ZM65.1367 176.721H61.3574V188H59.5996V176.721H55.8203V175.236H65.1367V176.721ZM75.8008 177.424C75.3255 177.17 74.8372 176.975 74.3359 176.838C73.8346 176.695 73.2878 176.623 72.6953 176.623C72.0182 176.623 71.416 176.743 70.8887 176.984C70.3613 177.225 69.9154 177.567 69.5508 178.01C69.1927 178.446 68.916 178.973 68.7207 179.592C68.5319 180.21 68.4375 180.894 68.4375 181.643C68.4375 182.424 68.5156 183.124 68.6719 183.742C68.8281 184.361 69.0723 184.885 69.4043 185.314C69.7363 185.744 70.1595 186.073 70.6738 186.301C71.1947 186.529 71.8164 186.643 72.5391 186.643C72.6628 186.643 72.7962 186.636 72.9395 186.623C73.0827 186.61 73.2259 186.594 73.3691 186.574C73.5124 186.548 73.6491 186.519 73.7793 186.486C73.916 186.454 74.0365 186.418 74.1406 186.379V182.316H71.5332V180.881H75.8594V187.404C75.5924 187.528 75.3092 187.639 75.0098 187.736C74.7168 187.834 74.4141 187.915 74.1016 187.98C73.7956 188.046 73.4896 188.094 73.1836 188.127C72.8776 188.16 72.5814 188.176 72.2949 188.176C71.4225 188.176 70.6348 188.039 69.9316 187.766C69.235 187.492 68.6393 187.089 68.1445 186.555C67.6562 186.014 67.2786 185.344 67.0117 184.543C66.7513 183.742 66.6211 182.814 66.6211 181.76C66.6211 180.712 66.7676 179.774 67.0605 178.947C67.3535 178.114 67.7637 177.411 68.291 176.838C68.8249 176.258 69.4629 175.819 70.2051 175.52C70.9538 175.214 71.7773 175.061 72.6758 175.061C73.2487 175.061 73.7923 175.113 74.3066 175.217C74.8275 175.314 75.3255 175.474 75.8008 175.695V177.424ZM98.8672 188H96.9727L96.084 185.217H90.7715L89.873 188H88.0664L92.3047 175.236H94.6875L98.8672 188ZM95.5859 183.664L93.4277 176.838L91.2695 183.664H95.5859ZM109.121 176.721H105.342V188H103.584V176.721H99.8047V175.236H109.121V176.721ZM119.785 177.424C119.31 177.17 118.822 176.975 118.32 176.838C117.819 176.695 117.272 176.623 116.68 176.623C116.003 176.623 115.4 176.743 114.873 176.984C114.346 177.225 113.9 177.567 113.535 178.01C113.177 178.446 112.9 178.973 112.705 179.592C112.516 180.21 112.422 180.894 112.422 181.643C112.422 182.424 112.5 183.124 112.656 183.742C112.812 184.361 113.057 184.885 113.389 185.314C113.721 185.744 114.144 186.073 114.658 186.301C115.179 186.529 115.801 186.643 116.523 186.643C116.647 186.643 116.781 186.636 116.924 186.623C117.067 186.61 117.21 186.594 117.354 186.574C117.497 186.548 117.633 186.519 117.764 186.486C117.9 186.454 118.021 186.418 118.125 186.379V182.316H115.518V180.881H119.844V187.404C119.577 187.528 119.294 187.639 118.994 187.736C118.701 187.834 118.398 187.915 118.086 187.98C117.78 188.046 117.474 188.094 117.168 188.127C116.862 188.16 116.566 188.176 116.279 188.176C115.407 188.176 114.619 188.039 113.916 187.766C113.219 187.492 112.624 187.089 112.129 186.555C111.641 186.014 111.263 185.344 110.996 184.543C110.736 183.742 110.605 182.814 110.605 181.76C110.605 180.712 110.752 179.774 111.045 178.947C111.338 178.114 111.748 177.411 112.275 176.838C112.809 176.258 113.447 175.819 114.189 175.52C114.938 175.214 115.762 175.061 116.66 175.061C117.233 175.061 117.777 175.113 118.291 175.217C118.812 175.314 119.31 175.474 119.785 175.695V177.424ZM142.852 188H140.957L140.068 185.217H134.756L133.857 188H132.051L136.289 175.236H138.672L142.852 188ZM139.57 183.664L137.412 176.838L135.254 183.664H139.57ZM153.105 176.721H149.326V188H147.568V176.721H143.789V175.236H153.105V176.721ZM163.77 177.424C163.294 177.17 162.806 176.975 162.305 176.838C161.803 176.695 161.257 176.623 160.664 176.623C159.987 176.623 159.385 176.743 158.857 176.984C158.33 177.225 157.884 177.567 157.52 178.01C157.161 178.446 156.885 178.973 156.689 179.592C156.501 180.21 156.406 180.894 156.406 181.643C156.406 182.424 156.484 183.124 156.641 183.742C156.797 184.361 157.041 184.885 157.373 185.314C157.705 185.744 158.128 186.073 158.643 186.301C159.163 186.529 159.785 186.643 160.508 186.643C160.632 186.643 160.765 186.636 160.908 186.623C161.051 186.61 161.195 186.594 161.338 186.574C161.481 186.548 161.618 186.519 161.748 186.486C161.885 186.454 162.005 186.418 162.109 186.379V182.316H159.502V180.881H163.828V187.404C163.561 187.528 163.278 187.639 162.979 187.736C162.686 187.834 162.383 187.915 162.07 187.98C161.764 188.046 161.458 188.094 161.152 188.127C160.846 188.16 160.55 188.176 160.264 188.176C159.391 188.176 158.604 188.039 157.9 187.766C157.204 187.492 156.608 187.089 156.113 186.555C155.625 186.014 155.247 185.344 154.98 184.543C154.72 183.742 154.59 182.814 154.59 181.76C154.59 180.712 154.736 179.774 155.029 178.947C155.322 178.114 155.732 177.411 156.26 176.838C156.794 176.258 157.432 175.819 158.174 175.52C158.923 175.214 159.746 175.061 160.645 175.061C161.217 175.061 161.761 175.113 162.275 175.217C162.796 175.314 163.294 175.474 163.77 175.695V177.424ZM185.654 187.521C184.632 187.945 183.561 188.156 182.441 188.156C180.638 188.156 179.251 187.619 178.281 186.545C177.318 185.464 176.836 183.869 176.836 181.76C176.836 180.738 176.969 179.813 177.236 178.986C177.503 178.16 177.884 177.46 178.379 176.887C178.874 176.307 179.473 175.861 180.176 175.549C180.879 175.236 181.667 175.08 182.539 175.08C183.132 175.08 183.682 175.132 184.189 175.236C184.697 175.334 185.186 175.487 185.654 175.695V177.404C185.192 177.15 184.714 176.958 184.219 176.828C183.724 176.691 183.184 176.623 182.598 176.623C181.999 176.623 181.455 176.737 180.967 176.965C180.485 177.186 180.075 177.512 179.736 177.941C179.398 178.365 179.137 178.885 178.955 179.504C178.773 180.116 178.682 180.816 178.682 181.604C178.682 183.257 179.017 184.504 179.688 185.344C180.358 186.184 181.341 186.604 182.637 186.604C183.184 186.604 183.708 186.542 184.209 186.418C184.71 186.288 185.192 186.109 185.654 185.881V187.521ZM197.832 188H195.938L195.049 185.217H189.736L188.838 188H187.031L191.27 175.236H193.652L197.832 188ZM194.551 183.664L192.393 176.838L190.234 183.664H194.551ZM208.086 176.721H204.307V188H202.549V176.721H198.77V175.236H208.086V176.721ZM9.7168 210.521C8.69466 210.945 7.6237 211.156 6.50391 211.156C4.70052 211.156 3.3138 210.619 2.34375 209.545C1.38021 208.464 0.898438 206.869 0.898438 204.76C0.898438 203.738 1.0319 202.813 1.29883 201.986C1.56576 201.16 1.94661 200.46 2.44141 199.887C2.9362 199.307 3.53516 198.861 4.23828 198.549C4.94141 198.236 5.72917 198.08 6.60156 198.08C7.19401 198.08 7.74414 198.132 8.25195 198.236C8.75977 198.334 9.24805 198.487 9.7168 198.695V200.404C9.25456 200.15 8.77604 199.958 8.28125 199.828C7.78646 199.691 7.24609 199.623 6.66016 199.623C6.0612 199.623 5.51758 199.737 5.0293 199.965C4.54753 200.186 4.13737 200.512 3.79883 200.941C3.46029 201.365 3.19987 201.885 3.01758 202.504C2.83529 203.116 2.74414 203.816 2.74414 204.604C2.74414 206.257 3.07943 207.504 3.75 208.344C4.42057 209.184 5.40365 209.604 6.69922 209.604C7.24609 209.604 7.77018 209.542 8.27148 209.418C8.77279 209.288 9.25456 209.109 9.7168 208.881V210.521ZM20.7129 210.521C19.6908 210.945 18.6198 211.156 17.5 211.156C15.6966 211.156 14.3099 210.619 13.3398 209.545C12.3763 208.464 11.8945 206.869 11.8945 204.76C11.8945 203.738 12.028 202.813 12.2949 201.986C12.5618 201.16 12.9427 200.46 13.4375 199.887C13.9323 199.307 14.5312 198.861 15.2344 198.549C15.9375 198.236 16.7253 198.08 17.5977 198.08C18.1901 198.08 18.7402 198.132 19.248 198.236C19.7559 198.334 20.2441 198.487 20.7129 198.695V200.404C20.2507 200.15 19.7721 199.958 19.2773 199.828C18.7826 199.691 18.2422 199.623 17.6562 199.623C17.0573 199.623 16.5137 199.737 16.0254 199.965C15.5436 200.186 15.1335 200.512 14.7949 200.941C14.4564 201.365 14.196 201.885 14.0137 202.504C13.8314 203.116 13.7402 203.816 13.7402 204.604C13.7402 206.257 14.0755 207.504 14.7461 208.344C15.4167 209.184 16.3997 209.604 17.6953 209.604C18.2422 209.604 18.7663 209.542 19.2676 209.418C19.7689 209.288 20.2507 209.109 20.7129 208.881V210.521ZM32.8906 211H30.9961L30.1074 208.217H24.7949L23.8965 211H22.0898L26.3281 198.236H28.7109L32.8906 211ZM29.6094 206.664L27.4512 199.838L25.293 206.664H29.6094ZM53.8086 200.424C53.3333 200.17 52.8451 199.975 52.3438 199.838C51.8424 199.695 51.2956 199.623 50.7031 199.623C50.026 199.623 49.4238 199.743 48.8965 199.984C48.3691 200.225 47.9232 200.567 47.5586 201.01C47.2005 201.446 46.9238 201.973 46.7285 202.592C46.5397 203.21 46.4453 203.894 46.4453 204.643C46.4453 205.424 46.5234 206.124 46.6797 206.742C46.8359 207.361 47.0801 207.885 47.4121 208.314C47.7441 208.744 48.1673 209.073 48.6816 209.301C49.2025 209.529 49.8242 209.643 50.5469 209.643C50.6706 209.643 50.804 209.636 50.9473 209.623C51.0905 209.61 51.2337 209.594 51.377 209.574C51.5202 209.548 51.6569 209.519 51.7871 209.486C51.9238 209.454 52.0443 209.418 52.1484 209.379V205.316H49.541V203.881H53.8672V210.404C53.6003 210.528 53.3171 210.639 53.0176 210.736C52.7246 210.834 52.4219 210.915 52.1094 210.98C51.8034 211.046 51.4974 211.094 51.1914 211.127C50.8854 211.16 50.5892 211.176 50.3027 211.176C49.4303 211.176 48.6426 211.039 47.9395 210.766C47.2428 210.492 46.6471 210.089 46.1523 209.555C45.6641 209.014 45.2865 208.344 45.0195 207.543C44.7591 206.742 44.6289 205.814 44.6289 204.76C44.6289 203.712 44.7754 202.774 45.0684 201.947C45.3613 201.114 45.7715 200.411 46.2988 199.838C46.8327 199.258 47.4707 198.819 48.2129 198.52C48.9616 198.214 49.7852 198.061 50.6836 198.061C51.2565 198.061 51.8001 198.113 52.3145 198.217C52.8353 198.314 53.3333 198.474 53.8086 198.695V200.424ZM65.8789 211H63.9844L63.0957 208.217H57.7832L56.8848 211H55.0781L59.3164 198.236H61.6992L65.8789 211ZM62.5977 206.664L60.4395 199.838L58.2812 206.664H62.5977ZM76.1328 199.721H72.3535V211H70.5957V199.721H66.8164V198.236H76.1328V199.721ZM97.793 200.424C97.3177 200.17 96.8294 199.975 96.3281 199.838C95.8268 199.695 95.2799 199.623 94.6875 199.623C94.0104 199.623 93.4082 199.743 92.8809 199.984C92.3535 200.225 91.9076 200.567 91.543 201.01C91.1849 201.446 90.9082 201.973 90.7129 202.592C90.5241 203.21 90.4297 203.894 90.4297 204.643C90.4297 205.424 90.5078 206.124 90.6641 206.742C90.8203 207.361 91.0645 207.885 91.3965 208.314C91.7285 208.744 92.1517 209.073 92.666 209.301C93.1868 209.529 93.8086 209.643 94.5312 209.643C94.6549 209.643 94.7884 209.636 94.9316 209.623C95.0749 209.61 95.2181 209.594 95.3613 209.574C95.5046 209.548 95.6413 209.519 95.7715 209.486C95.9082 209.454 96.0286 209.418 96.1328 209.379V205.316H93.5254V203.881H97.8516V210.404C97.5846 210.528 97.3014 210.639 97.002 210.736C96.709 210.834 96.4062 210.915 96.0938 210.98C95.7878 211.046 95.4818 211.094 95.1758 211.127C94.8698 211.16 94.5736 211.176 94.2871 211.176C93.4147 211.176 92.627 211.039 91.9238 210.766C91.2272 210.492 90.6315 210.089 90.1367 209.555C89.6484 209.014 89.2708 208.344 89.0039 207.543C88.7435 206.742 88.6133 205.814 88.6133 204.76C88.6133 203.712 88.7598 202.774 89.0527 201.947C89.3457 201.114 89.7559 200.411 90.2832 199.838C90.8171 199.258 91.4551 198.819 92.1973 198.52C92.946 198.214 93.7695 198.061 94.668 198.061C95.2409 198.061 95.7845 198.113 96.2988 198.217C96.8197 198.314 97.3177 198.474 97.793 198.695V200.424ZM108.682 210.521C107.66 210.945 106.589 211.156 105.469 211.156C103.665 211.156 102.279 210.619 101.309 209.545C100.345 208.464 99.8633 206.869 99.8633 204.76C99.8633 203.738 99.9967 202.813 100.264 201.986C100.531 201.16 100.911 200.46 101.406 199.887C101.901 199.307 102.5 198.861 103.203 198.549C103.906 198.236 104.694 198.08 105.566 198.08C106.159 198.08 106.709 198.132 107.217 198.236C107.725 198.334 108.213 198.487 108.682 198.695V200.404C108.219 200.15 107.741 199.958 107.246 199.828C106.751 199.691 106.211 199.623 105.625 199.623C105.026 199.623 104.482 199.737 103.994 199.965C103.512 200.186 103.102 200.512 102.764 200.941C102.425 201.365 102.165 201.885 101.982 202.504C101.8 203.116 101.709 203.816 101.709 204.604C101.709 206.257 102.044 207.504 102.715 208.344C103.385 209.184 104.368 209.604 105.664 209.604C106.211 209.604 106.735 209.542 107.236 209.418C107.738 209.288 108.219 209.109 108.682 208.881V210.521ZM119.678 210.521C118.656 210.945 117.585 211.156 116.465 211.156C114.661 211.156 113.275 210.619 112.305 209.545C111.341 208.464 110.859 206.869 110.859 204.76C110.859 203.738 110.993 202.813 111.26 201.986C111.527 201.16 111.908 200.46 112.402 199.887C112.897 199.307 113.496 198.861 114.199 198.549C114.902 198.236 115.69 198.08 116.562 198.08C117.155 198.08 117.705 198.132 118.213 198.236C118.721 198.334 119.209 198.487 119.678 198.695V200.404C119.215 200.15 118.737 199.958 118.242 199.828C117.747 199.691 117.207 199.623 116.621 199.623C116.022 199.623 115.479 199.737 114.99 199.965C114.508 200.186 114.098 200.512 113.76 200.941C113.421 201.365 113.161 201.885 112.979 202.504C112.796 203.116 112.705 203.816 112.705 204.604C112.705 206.257 113.04 207.504 113.711 208.344C114.382 209.184 115.365 209.604 116.66 209.604C117.207 209.604 117.731 209.542 118.232 209.418C118.734 209.288 119.215 209.109 119.678 208.881V210.521ZM141.777 200.424C141.302 200.17 140.814 199.975 140.312 199.838C139.811 199.695 139.264 199.623 138.672 199.623C137.995 199.623 137.393 199.743 136.865 199.984C136.338 200.225 135.892 200.567 135.527 201.01C135.169 201.446 134.893 201.973 134.697 202.592C134.508 203.21 134.414 203.894 134.414 204.643C134.414 205.424 134.492 206.124 134.648 206.742C134.805 207.361 135.049 207.885 135.381 208.314C135.713 208.744 136.136 209.073 136.65 209.301C137.171 209.529 137.793 209.643 138.516 209.643C138.639 209.643 138.773 209.636 138.916 209.623C139.059 209.61 139.202 209.594 139.346 209.574C139.489 209.548 139.626 209.519 139.756 209.486C139.893 209.454 140.013 209.418 140.117 209.379V205.316H137.51V203.881H141.836V210.404C141.569 210.528 141.286 210.639 140.986 210.736C140.693 210.834 140.391 210.915 140.078 210.98C139.772 211.046 139.466 211.094 139.16 211.127C138.854 211.16 138.558 211.176 138.271 211.176C137.399 211.176 136.611 211.039 135.908 210.766C135.212 210.492 134.616 210.089 134.121 209.555C133.633 209.014 133.255 208.344 132.988 207.543C132.728 206.742 132.598 205.814 132.598 204.76C132.598 203.712 132.744 202.774 133.037 201.947C133.33 201.114 133.74 200.411 134.268 199.838C134.801 199.258 135.439 198.819 136.182 198.52C136.93 198.214 137.754 198.061 138.652 198.061C139.225 198.061 139.769 198.113 140.283 198.217C140.804 198.314 141.302 198.474 141.777 198.695V200.424ZM152.773 200.424C152.298 200.17 151.81 199.975 151.309 199.838C150.807 199.695 150.26 199.623 149.668 199.623C148.991 199.623 148.389 199.743 147.861 199.984C147.334 200.225 146.888 200.567 146.523 201.01C146.165 201.446 145.889 201.973 145.693 202.592C145.505 203.21 145.41 203.894 145.41 204.643C145.41 205.424 145.488 206.124 145.645 206.742C145.801 207.361 146.045 207.885 146.377 208.314C146.709 208.744 147.132 209.073 147.646 209.301C148.167 209.529 148.789 209.643 149.512 209.643C149.635 209.643 149.769 209.636 149.912 209.623C150.055 209.61 150.199 209.594 150.342 209.574C150.485 209.548 150.622 209.519 150.752 209.486C150.889 209.454 151.009 209.418 151.113 209.379V205.316H148.506V203.881H152.832V210.404C152.565 210.528 152.282 210.639 151.982 210.736C151.689 210.834 151.387 210.915 151.074 210.98C150.768 211.046 150.462 211.094 150.156 211.127C149.85 211.16 149.554 211.176 149.268 211.176C148.395 211.176 147.607 211.039 146.904 210.766C146.208 210.492 145.612 210.089 145.117 209.555C144.629 209.014 144.251 208.344 143.984 207.543C143.724 206.742 143.594 205.814 143.594 204.76C143.594 203.712 143.74 202.774 144.033 201.947C144.326 201.114 144.736 200.411 145.264 199.838C145.798 199.258 146.436 198.819 147.178 198.52C147.926 198.214 148.75 198.061 149.648 198.061C150.221 198.061 150.765 198.113 151.279 198.217C151.8 198.314 152.298 198.474 152.773 198.695V200.424ZM164.844 211H162.949L162.061 208.217H156.748L155.85 211H154.043L158.281 198.236H160.664L164.844 211ZM161.562 206.664L159.404 199.838L157.246 206.664H161.562ZM185.762 200.424C185.286 200.17 184.798 199.975 184.297 199.838C183.796 199.695 183.249 199.623 182.656 199.623C181.979 199.623 181.377 199.743 180.85 199.984C180.322 200.225 179.876 200.567 179.512 201.01C179.154 201.446 178.877 201.973 178.682 202.592C178.493 203.21 178.398 203.894 178.398 204.643C178.398 205.424 178.477 206.124 178.633 206.742C178.789 207.361 179.033 207.885 179.365 208.314C179.697 208.744 180.12 209.073 180.635 209.301C181.156 209.529 181.777 209.643 182.5 209.643C182.624 209.643 182.757 209.636 182.9 209.623C183.044 209.61 183.187 209.594 183.33 209.574C183.473 209.548 183.61 209.519 183.74 209.486C183.877 209.454 183.997 209.418 184.102 209.379V205.316H181.494V203.881H185.82V210.404C185.553 210.528 185.27 210.639 184.971 210.736C184.678 210.834 184.375 210.915 184.062 210.98C183.757 211.046 183.451 211.094 183.145 211.127C182.839 211.16 182.542 211.176 182.256 211.176C181.383 211.176 180.596 211.039 179.893 210.766C179.196 210.492 178.6 210.089 178.105 209.555C177.617 209.014 177.24 208.344 176.973 207.543C176.712 206.742 176.582 205.814 176.582 204.76C176.582 203.712 176.729 202.774 177.021 201.947C177.314 201.114 177.725 200.411 178.252 199.838C178.786 199.258 179.424 198.819 180.166 198.52C180.915 198.214 181.738 198.061 182.637 198.061C183.21 198.061 183.753 198.113 184.268 198.217C184.788 198.314 185.286 198.474 185.762 198.695V200.424ZM196.758 200.424C196.283 200.17 195.794 199.975 195.293 199.838C194.792 199.695 194.245 199.623 193.652 199.623C192.975 199.623 192.373 199.743 191.846 199.984C191.318 200.225 190.872 200.567 190.508 201.01C190.15 201.446 189.873 201.973 189.678 202.592C189.489 203.21 189.395 203.894 189.395 204.643C189.395 205.424 189.473 206.124 189.629 206.742C189.785 207.361 190.029 207.885 190.361 208.314C190.693 208.744 191.117 209.073 191.631 209.301C192.152 209.529 192.773 209.643 193.496 209.643C193.62 209.643 193.753 209.636 193.896 209.623C194.04 209.61 194.183 209.594 194.326 209.574C194.469 209.548 194.606 209.519 194.736 209.486C194.873 209.454 194.993 209.418 195.098 209.379V205.316H192.49V203.881H196.816V210.404C196.549 210.528 196.266 210.639 195.967 210.736C195.674 210.834 195.371 210.915 195.059 210.98C194.753 211.046 194.447 211.094 194.141 211.127C193.835 211.16 193.538 211.176 193.252 211.176C192.38 211.176 191.592 211.039 190.889 210.766C190.192 210.492 189.596 210.089 189.102 209.555C188.613 209.014 188.236 208.344 187.969 207.543C187.708 206.742 187.578 205.814 187.578 204.76C187.578 203.712 187.725 202.774 188.018 201.947C188.311 201.114 188.721 200.411 189.248 199.838C189.782 199.258 190.42 198.819 191.162 198.52C191.911 198.214 192.734 198.061 193.633 198.061C194.206 198.061 194.749 198.113 195.264 198.217C195.785 198.314 196.283 198.474 196.758 198.695V200.424ZM207.754 200.424C207.279 200.17 206.79 199.975 206.289 199.838C205.788 199.695 205.241 199.623 204.648 199.623C203.971 199.623 203.369 199.743 202.842 199.984C202.314 200.225 201.868 200.567 201.504 201.01C201.146 201.446 200.869 201.973 200.674 202.592C200.485 203.21 200.391 203.894 200.391 204.643C200.391 205.424 200.469 206.124 200.625 206.742C200.781 207.361 201.025 207.885 201.357 208.314C201.689 208.744 202.113 209.073 202.627 209.301C203.148 209.529 203.77 209.643 204.492 209.643C204.616 209.643 204.749 209.636 204.893 209.623C205.036 209.61 205.179 209.594 205.322 209.574C205.465 209.548 205.602 209.519 205.732 209.486C205.869 209.454 205.99 209.418 206.094 209.379V205.316H203.486V203.881H207.812V210.404C207.546 210.528 207.262 210.639 206.963 210.736C206.67 210.834 206.367 210.915 206.055 210.98C205.749 211.046 205.443 211.094 205.137 211.127C204.831 211.16 204.535 211.176 204.248 211.176C203.376 211.176 202.588 211.039 201.885 210.766C201.188 210.492 200.592 210.089 200.098 209.555C199.609 209.014 199.232 208.344 198.965 207.543C198.704 206.742 198.574 205.814 198.574 204.76C198.574 203.712 198.721 202.774 199.014 201.947C199.307 201.114 199.717 200.411 200.244 199.838C200.778 199.258 201.416 198.819 202.158 198.52C202.907 198.214 203.73 198.061 204.629 198.061C205.202 198.061 205.745 198.113 206.26 198.217C206.781 198.314 207.279 198.474 207.754 198.695V200.424ZM9.82422 223.424C9.34896 223.17 8.86068 222.975 8.35938 222.838C7.85807 222.695 7.3112 222.623 6.71875 222.623C6.04167 222.623 5.43945 222.743 4.91211 222.984C4.38477 223.225 3.9388 223.567 3.57422 224.01C3.21615 224.446 2.93945 224.973 2.74414 225.592C2.55534 226.21 2.46094 226.894 2.46094 227.643C2.46094 228.424 2.53906 229.124 2.69531 229.742C2.85156 230.361 3.0957 230.885 3.42773 231.314C3.75977 231.744 4.18294 232.073 4.69727 232.301C5.2181 232.529 5.83984 232.643 6.5625 232.643C6.6862 232.643 6.81966 232.636 6.96289 232.623C7.10612 232.61 7.24935 232.594 7.39258 232.574C7.53581 232.548 7.67253 232.519 7.80273 232.486C7.93945 232.454 8.0599 232.418 8.16406 232.379V228.316H5.55664V226.881H9.88281V233.404C9.61589 233.528 9.33268 233.639 9.0332 233.736C8.74023 233.834 8.4375 233.915 8.125 233.98C7.81901 234.046 7.51302 234.094 7.20703 234.127C6.90104 234.16 6.60482 234.176 6.31836 234.176C5.44596 234.176 4.6582 234.039 3.95508 233.766C3.25846 233.492 2.66276 233.089 2.16797 232.555C1.67969 232.014 1.30208 231.344 1.03516 230.543C0.77474 229.742 0.644531 228.814 0.644531 227.76C0.644531 226.712 0.791016 225.774 1.08398 224.947C1.37695 224.114 1.78711 223.411 2.31445 222.838C2.84831 222.258 3.48633 221.819 4.22852 221.52C4.97721 221.214 5.80078 221.061 6.69922 221.061C7.27214 221.061 7.81576 221.113 8.33008 221.217C8.85091 221.314 9.34896 221.474 9.82422 221.695V223.424ZM21.1523 222.721H17.373V234H15.6152V222.721H11.8359V221.236H21.1523V222.721ZM32.1484 222.721H28.3691V234H26.6113V222.721H22.832V221.236H32.1484V222.721ZM54.1406 222.721H50.3613V234H48.6035V222.721H44.8242V221.236H54.1406V222.721ZM65.8789 234H63.9844L63.0957 231.217H57.7832L56.8848 234H55.0781L59.3164 221.236H61.6992L65.8789 234ZM62.5977 229.664L60.4395 222.838L58.2812 229.664H62.5977ZM76.875 234H74.9805L74.0918 231.217H68.7793L67.8809 234H66.0742L70.3125 221.236H72.6953L76.875 234ZM73.5938 229.664L71.4355 222.838L69.2773 229.664H73.5938ZM98.125 222.721H94.3457V234H92.5879V222.721H88.8086V221.236H98.125V222.721ZM108.789 223.424C108.314 223.17 107.826 222.975 107.324 222.838C106.823 222.695 106.276 222.623 105.684 222.623C105.007 222.623 104.404 222.743 103.877 222.984C103.35 223.225 102.904 223.567 102.539 224.01C102.181 224.446 101.904 224.973 101.709 225.592C101.52 226.21 101.426 226.894 101.426 227.643C101.426 228.424 101.504 229.124 101.66 229.742C101.816 230.361 102.061 230.885 102.393 231.314C102.725 231.744 103.148 232.073 103.662 232.301C104.183 232.529 104.805 232.643 105.527 232.643C105.651 232.643 105.785 232.636 105.928 232.623C106.071 232.61 106.214 232.594 106.357 232.574C106.501 232.548 106.637 232.519 106.768 232.486C106.904 232.454 107.025 232.418 107.129 232.379V228.316H104.521V226.881H108.848V233.404C108.581 233.528 108.298 233.639 107.998 233.736C107.705 233.834 107.402 233.915 107.09 233.98C106.784 234.046 106.478 234.094 106.172 234.127C105.866 234.16 105.57 234.176 105.283 234.176C104.411 234.176 103.623 234.039 102.92 233.766C102.223 233.492 101.628 233.089 101.133 232.555C100.645 232.014 100.267 231.344 100 230.543C99.7396 229.742 99.6094 228.814 99.6094 227.76C99.6094 226.712 99.7559 225.774 100.049 224.947C100.342 224.114 100.752 223.411 101.279 222.838C101.813 222.258 102.451 221.819 103.193 221.52C103.942 221.214 104.766 221.061 105.664 221.061C106.237 221.061 106.781 221.113 107.295 221.217C107.816 221.314 108.314 221.474 108.789 221.695V223.424ZM119.678 233.521C118.656 233.945 117.585 234.156 116.465 234.156C114.661 234.156 113.275 233.619 112.305 232.545C111.341 231.464 110.859 229.869 110.859 227.76C110.859 226.738 110.993 225.813 111.26 224.986C111.527 224.16 111.908 223.46 112.402 222.887C112.897 222.307 113.496 221.861 114.199 221.549C114.902 221.236 115.69 221.08 116.562 221.08C117.155 221.08 117.705 221.132 118.213 221.236C118.721 221.334 119.209 221.487 119.678 221.695V223.404C119.215 223.15 118.737 222.958 118.242 222.828C117.747 222.691 117.207 222.623 116.621 222.623C116.022 222.623 115.479 222.737 114.99 222.965C114.508 223.186 114.098 223.512 113.76 223.941C113.421 224.365 113.161 224.885 112.979 225.504C112.796 226.116 112.705 226.816 112.705 227.604C112.705 229.257 113.04 230.504 113.711 231.344C114.382 232.184 115.365 232.604 116.66 232.604C117.207 232.604 117.731 232.542 118.232 232.418C118.734 232.288 119.215 232.109 119.678 231.881V233.521ZM142.109 222.721H138.33V234H136.572V222.721H132.793V221.236H142.109V222.721ZM152.773 223.424C152.298 223.17 151.81 222.975 151.309 222.838C150.807 222.695 150.26 222.623 149.668 222.623C148.991 222.623 148.389 222.743 147.861 222.984C147.334 223.225 146.888 223.567 146.523 224.01C146.165 224.446 145.889 224.973 145.693 225.592C145.505 226.21 145.41 226.894 145.41 227.643C145.41 228.424 145.488 229.124 145.645 229.742C145.801 230.361 146.045 230.885 146.377 231.314C146.709 231.744 147.132 232.073 147.646 232.301C148.167 232.529 148.789 232.643 149.512 232.643C149.635 232.643 149.769 232.636 149.912 232.623C150.055 232.61 150.199 232.594 150.342 232.574C150.485 232.548 150.622 232.519 150.752 232.486C150.889 232.454 151.009 232.418 151.113 232.379V228.316H148.506V226.881H152.832V233.404C152.565 233.528 152.282 233.639 151.982 233.736C151.689 233.834 151.387 233.915 151.074 233.98C150.768 234.046 150.462 234.094 150.156 234.127C149.85 234.16 149.554 234.176 149.268 234.176C148.395 234.176 147.607 234.039 146.904 233.766C146.208 233.492 145.612 233.089 145.117 232.555C144.629 232.014 144.251 231.344 143.984 230.543C143.724 229.742 143.594 228.814 143.594 227.76C143.594 226.712 143.74 225.774 144.033 224.947C144.326 224.114 144.736 223.411 145.264 222.838C145.798 222.258 146.436 221.819 147.178 221.52C147.926 221.214 148.75 221.061 149.648 221.061C150.221 221.061 150.765 221.113 151.279 221.217C151.8 221.314 152.298 221.474 152.773 221.695V223.424ZM163.77 223.424C163.294 223.17 162.806 222.975 162.305 222.838C161.803 222.695 161.257 222.623 160.664 222.623C159.987 222.623 159.385 222.743 158.857 222.984C158.33 223.225 157.884 223.567 157.52 224.01C157.161 224.446 156.885 224.973 156.689 225.592C156.501 226.21 156.406 226.894 156.406 227.643C156.406 228.424 156.484 229.124 156.641 229.742C156.797 230.361 157.041 230.885 157.373 231.314C157.705 231.744 158.128 232.073 158.643 232.301C159.163 232.529 159.785 232.643 160.508 232.643C160.632 232.643 160.765 232.636 160.908 232.623C161.051 232.61 161.195 232.594 161.338 232.574C161.481 232.548 161.618 232.519 161.748 232.486C161.885 232.454 162.005 232.418 162.109 232.379V228.316H159.502V226.881H163.828V233.404C163.561 233.528 163.278 233.639 162.979 233.736C162.686 233.834 162.383 233.915 162.07 233.98C161.764 234.046 161.458 234.094 161.152 234.127C160.846 234.16 160.55 234.176 160.264 234.176C159.391 234.176 158.604 234.039 157.9 233.766C157.204 233.492 156.608 233.089 156.113 232.555C155.625 232.014 155.247 231.344 154.98 230.543C154.72 229.742 154.59 228.814 154.59 227.76C154.59 226.712 154.736 225.774 155.029 224.947C155.322 224.114 155.732 223.411 156.26 222.838C156.794 222.258 157.432 221.819 158.174 221.52C158.923 221.214 159.746 221.061 160.645 221.061C161.217 221.061 161.761 221.113 162.275 221.217C162.796 221.314 163.294 221.474 163.77 221.695V223.424ZM186.094 222.721H182.314V234H180.557V222.721H176.777V221.236H186.094V222.721ZM196.758 223.424C196.283 223.17 195.794 222.975 195.293 222.838C194.792 222.695 194.245 222.623 193.652 222.623C192.975 222.623 192.373 222.743 191.846 222.984C191.318 223.225 190.872 223.567 190.508 224.01C190.15 224.446 189.873 224.973 189.678 225.592C189.489 226.21 189.395 226.894 189.395 227.643C189.395 228.424 189.473 229.124 189.629 229.742C189.785 230.361 190.029 230.885 190.361 231.314C190.693 231.744 191.117 232.073 191.631 232.301C192.152 232.529 192.773 232.643 193.496 232.643C193.62 232.643 193.753 232.636 193.896 232.623C194.04 232.61 194.183 232.594 194.326 232.574C194.469 232.548 194.606 232.519 194.736 232.486C194.873 232.454 194.993 232.418 195.098 232.379V228.316H192.49V226.881H196.816V233.404C196.549 233.528 196.266 233.639 195.967 233.736C195.674 233.834 195.371 233.915 195.059 233.98C194.753 234.046 194.447 234.094 194.141 234.127C193.835 234.16 193.538 234.176 193.252 234.176C192.38 234.176 191.592 234.039 190.889 233.766C190.192 233.492 189.596 233.089 189.102 232.555C188.613 232.014 188.236 231.344 187.969 230.543C187.708 229.742 187.578 228.814 187.578 227.76C187.578 226.712 187.725 225.774 188.018 224.947C188.311 224.114 188.721 223.411 189.248 222.838C189.782 222.258 190.42 221.819 191.162 221.52C191.911 221.214 192.734 221.061 193.633 221.061C194.206 221.061 194.749 221.113 195.264 221.217C195.785 221.314 196.283 221.474 196.758 221.695V223.424ZM208.086 222.721H204.307V234H202.549V222.721H198.77V221.236H208.086V222.721Z" fill="#C9D1D9"/>
</svg>
