<svg width="527" height="190" viewBox="0 0 527 190" fill="none" xmlns="http://www.w3.org/2000/svg">
<path d="M288.102 23.9062C289.133 23.9062 289.883 23.7422 290.352 23.4141C290.82 23.0807 291.055 22.4245 291.055 21.4453V17.3594C291.055 16.3802 290.818 15.7083 290.344 15.3438C289.875 14.9792 289.13 14.7969 288.109 14.7969C286.526 14.7969 285.565 15.2344 285.227 16.1094C285.096 16.4427 285.031 16.8594 285.031 17.3594V21.4453C285.031 22.4193 285.286 23.0729 285.797 23.4062C286.307 23.7396 287.076 23.9062 288.102 23.9062ZM285.211 24.6562C284.529 24.3125 284.065 23.8516 283.82 23.2734C283.576 22.6953 283.453 22.0052 283.453 21.2031V17.6484C283.453 16.0286 283.911 14.9062 284.828 14.2812C285.568 13.7812 286.661 13.5312 288.109 13.5312C290.672 13.5312 292.138 14.4844 292.508 16.3906C292.586 16.7917 292.625 17.2448 292.625 17.75V21.0938C292.625 22.6667 292.174 23.7708 291.273 24.4062C290.549 24.9167 289.529 25.1719 288.211 25.1719C286.893 25.1719 285.893 25 285.211 24.6562ZM297.789 25L294.578 16.7188H296.055L298.547 23.4375L300.766 16.7188H302.203L299.273 25H297.789ZM306.383 25.1719C305.544 25.1719 304.893 24.9453 304.43 24.4922C303.966 24.0339 303.734 23.4661 303.734 22.7891C303.734 22.4036 303.815 22.0833 303.977 21.8281C304.305 21.3073 305.284 20.8099 306.914 20.3359C307.857 20.0755 308.398 19.8516 308.539 19.6641C308.685 19.4766 308.766 19.3307 308.781 19.2266C308.797 19.1172 308.805 18.9453 308.805 18.7109C308.805 18.4766 308.708 18.2474 308.516 18.0234C308.328 17.7995 307.917 17.6875 307.281 17.6875C306.385 17.6875 305.836 17.8594 305.633 18.2031C305.529 18.3802 305.477 18.6198 305.477 18.9219V19.2891H304.062V18.9141C304.062 18.1068 304.331 17.513 304.867 17.1328C305.409 16.7526 306.216 16.5625 307.289 16.5625C308.362 16.5625 309.128 16.8073 309.586 17.2969C310.044 17.7812 310.273 18.474 310.273 19.375V22.9062C310.273 23.3385 310.328 23.6198 310.438 23.75C310.547 23.875 310.781 23.9375 311.141 23.9375L310.969 25.0625H310.672C310.151 25.0625 309.763 24.9635 309.508 24.7656C309.253 24.5625 309.057 24.25 308.922 23.8281C308.49 24.474 307.969 24.8802 307.359 25.0469C307.068 25.1302 306.742 25.1719 306.383 25.1719ZM307.117 21.3438C306.378 21.5573 305.865 21.7708 305.578 21.9844C305.297 22.1979 305.156 22.5 305.156 22.8906C305.156 23.276 305.286 23.5677 305.547 23.7656C305.812 23.9635 306.13 24.0625 306.5 24.0625C306.875 24.0625 307.214 24.0156 307.516 23.9219C307.818 23.8229 308.089 23.6797 308.328 23.4922C308.573 23.2995 308.732 23.0807 308.805 22.8359V20.4453C308.424 20.8255 307.862 21.125 307.117 21.3438ZM312.109 27.7578L311.961 26.5391H312.188C312.719 26.5391 313.073 26.4688 313.25 26.3281C313.427 26.1927 313.542 26.0234 313.594 25.8203C313.646 25.6224 313.672 25.3594 313.672 25.0312V16.7188H315.141V24.9453C315.141 26.3047 314.828 27.1458 314.203 27.4688C313.833 27.6615 313.307 27.7578 312.625 27.7578H312.109ZM313.672 15.2266V13.7031H315.141V15.2266H313.672ZM322.867 26.7734C323.409 26.9714 324.073 27.0703 324.859 27.0703C325.646 27.0703 326.195 26.9219 326.508 26.625C326.826 26.3281 326.984 25.8672 326.984 25.2422V24.0938C326.771 24.2917 326.451 24.4401 326.023 24.5391C325.602 24.638 325.214 24.6875 324.859 24.6875C322.766 24.6875 321.719 23.8047 321.719 22.0391V19.3125C321.719 18.4531 321.979 17.7812 322.5 17.2969C323.026 16.8073 323.812 16.5625 324.859 16.5625C325.276 16.5625 325.703 16.651 326.141 16.8281C326.583 17 326.865 17.1849 326.984 17.3828V16.7188H328.453V24.8047C328.453 25.7995 328.19 26.612 327.664 27.2422C327.143 27.8724 326.299 28.1875 325.133 28.1875C323.966 28.1875 323.102 28.0833 322.539 27.875L322.867 26.7734ZM326.984 18.8281C326.984 18.0677 326.352 17.6875 325.086 17.6875C323.82 17.6875 323.188 18.1771 323.188 19.1562V22.2656C323.188 23.1302 323.82 23.5625 325.086 23.5625C325.831 23.5625 326.464 23.3542 326.984 22.9375V18.8281ZM331.281 25V16.7188H332.75V17.8906C332.938 17.3802 333.445 17.0104 334.273 16.7812C334.706 16.6562 335.156 16.5964 335.625 16.6016L335.578 17.8594C334.87 17.8594 334.221 18 333.633 18.2812C333.044 18.5625 332.75 18.8698 332.75 19.2031V25H331.281ZM339.711 25.1719C338.872 25.1719 338.221 24.9453 337.758 24.4922C337.294 24.0339 337.062 23.4661 337.062 22.7891C337.062 22.4036 337.143 22.0833 337.305 21.8281C337.633 21.3073 338.612 20.8099 340.242 20.3359C341.185 20.0755 341.727 19.8516 341.867 19.6641C342.013 19.4766 342.094 19.3307 342.109 19.2266C342.125 19.1172 342.133 18.9453 342.133 18.7109C342.133 18.4766 342.036 18.2474 341.844 18.0234C341.656 17.7995 341.245 17.6875 340.609 17.6875C339.714 17.6875 339.164 17.8594 338.961 18.2031C338.857 18.3802 338.805 18.6198 338.805 18.9219V19.2891H337.391V18.9141C337.391 18.1068 337.659 17.513 338.195 17.1328C338.737 16.7526 339.544 16.5625 340.617 16.5625C341.69 16.5625 342.456 16.8073 342.914 17.2969C343.372 17.7812 343.602 18.474 343.602 19.375V22.9062C343.602 23.3385 343.656 23.6198 343.766 23.75C343.875 23.875 344.109 23.9375 344.469 23.9375L344.297 25.0625H344C343.479 25.0625 343.091 24.9635 342.836 24.7656C342.581 24.5625 342.385 24.25 342.25 23.8281C341.818 24.474 341.297 24.8802 340.688 25.0469C340.396 25.1302 340.07 25.1719 339.711 25.1719ZM340.445 21.3438C339.706 21.5573 339.193 21.7708 338.906 21.9844C338.625 22.1979 338.484 22.5 338.484 22.8906C338.484 23.276 338.615 23.5677 338.875 23.7656C339.141 23.9635 339.458 24.0625 339.828 24.0625C340.203 24.0625 340.542 24.0156 340.844 23.9219C341.146 23.8229 341.417 23.6797 341.656 23.4922C341.901 23.2995 342.06 23.0807 342.133 22.8359V20.4453C341.753 20.8255 341.19 21.125 340.445 21.3438ZM347.43 25V17.8281H346.047V16.7188H347.43V15.4609C347.43 14.6953 347.638 14.1354 348.055 13.7812C348.477 13.4219 349.117 13.2422 349.977 13.2422H350.906L351 14.2812H350.094C349.297 14.2812 348.898 14.6276 348.898 15.3203V16.7188H350.906V17.8281H348.898V25H347.43ZM362.094 18.8984C362.094 18.0911 361.477 17.6875 360.242 17.6875C359.633 17.6875 359.154 17.8177 358.805 18.0781C358.456 18.3385 358.281 18.6797 358.281 19.1016V25H356.812V16.7188H358.281V17.5234C358.833 16.8828 359.651 16.5625 360.734 16.5625C362.141 16.5625 363.031 17.0573 363.406 18.0469C363.51 18.3281 363.562 18.6406 363.562 18.9844V25H362.094V18.8984ZM369.539 25.1719C368.326 25.1719 367.448 24.9193 366.906 24.4141C366.365 23.9089 366.094 23.1302 366.094 22.0781V19.1953C366.094 18.3776 366.372 17.7344 366.93 17.2656C367.487 16.7969 368.328 16.5625 369.453 16.5625C370.583 16.5625 371.422 16.7812 371.969 17.2188C372.521 17.651 372.797 18.2708 372.797 19.0781V21.0469H367.562V22.2109C367.562 22.8984 367.701 23.3776 367.977 23.6484C368.253 23.9141 368.75 24.0469 369.469 24.0469C370.188 24.0469 370.594 24.0312 370.688 24C370.781 23.9688 370.878 23.9323 370.977 23.8906C371.076 23.849 371.143 23.7995 371.18 23.7422C371.221 23.6849 371.273 23.599 371.336 23.4844C371.404 23.3646 371.453 23.1354 371.484 22.7969H372.781C372.729 23.2917 372.641 23.6901 372.516 23.9922C372.396 24.2943 372.203 24.5365 371.938 24.7188C371.677 24.8958 371.362 25.0156 370.992 25.0781C370.628 25.1406 370.143 25.1719 369.539 25.1719ZM367.562 20.0547H371.375V18.9219C371.375 18.4531 371.214 18.1302 370.891 17.9531C370.573 17.776 370.104 17.6875 369.484 17.6875C368.865 17.6875 368.388 17.7943 368.055 18.0078C367.727 18.2214 367.562 18.5729 367.562 19.0625V20.0547ZM378.023 15.2891L378.961 12.625H380.719L378.852 15.2891H378.023ZM378.508 25.1719C376.815 25.1719 375.755 24.5833 375.328 23.4062C375.203 23.0729 375.141 22.7083 375.141 22.3125V19.1562C375.141 18.3698 375.44 17.7422 376.039 17.2734C376.638 16.7995 377.448 16.5625 378.469 16.5625C379.771 16.5625 380.667 16.8438 381.156 17.4062C381.542 17.8438 381.734 18.4896 381.734 19.3438L380.336 19.4766C380.336 18.737 380.203 18.2552 379.938 18.0312C379.677 17.8021 379.211 17.6875 378.539 17.6875C377.867 17.6875 377.378 17.8047 377.07 18.0391C376.763 18.2734 376.609 18.6589 376.609 19.1953V22.4375C376.609 23.0104 376.771 23.4219 377.094 23.6719C377.417 23.9219 377.914 24.0469 378.586 24.0469C379.263 24.0469 379.714 23.9583 379.938 23.7812C380.167 23.6042 380.307 23.2031 380.359 22.5781H381.719C381.635 23.5365 381.359 24.2083 380.891 24.5938C380.422 24.9792 379.628 25.1719 378.508 25.1719ZM387.258 25.1719C386.044 25.1719 385.167 24.9193 384.625 24.4141C384.083 23.9089 383.812 23.1302 383.812 22.0781V19.1953C383.812 18.3776 384.091 17.7344 384.648 17.2656C385.206 16.7969 386.047 16.5625 387.172 16.5625C388.302 16.5625 389.141 16.7812 389.688 17.2188C390.24 17.651 390.516 18.2708 390.516 19.0781V21.0469H385.281V22.2109C385.281 22.8984 385.419 23.3776 385.695 23.6484C385.971 23.9141 386.469 24.0469 387.188 24.0469C387.906 24.0469 388.312 24.0312 388.406 24C388.5 23.9688 388.596 23.9323 388.695 23.8906C388.794 23.849 388.862 23.7995 388.898 23.7422C388.94 23.6849 388.992 23.599 389.055 23.4844C389.122 23.3646 389.172 23.1354 389.203 22.7969H390.5C390.448 23.2917 390.359 23.6901 390.234 23.9922C390.115 24.2943 389.922 24.5365 389.656 24.7188C389.396 24.8958 389.081 25.0156 388.711 25.0781C388.346 25.1406 387.862 25.1719 387.258 25.1719ZM385.281 20.0547H389.094V18.9219C389.094 18.4531 388.932 18.1302 388.609 17.9531C388.292 17.776 387.823 17.6875 387.203 17.6875C386.583 17.6875 386.107 17.7943 385.773 18.0078C385.445 18.2214 385.281 18.5729 385.281 19.0625V20.0547ZM398.625 17.1094C399.271 16.7448 400.049 16.5625 400.961 16.5625C401.872 16.5625 402.599 16.8047 403.141 17.2891C403.682 17.7734 403.953 18.4271 403.953 19.25V22.25C403.953 23.1094 403.656 23.8125 403.062 24.3594C402.469 24.901 401.646 25.1719 400.594 25.1719C399.927 25.1719 399.206 24.9297 398.43 24.4453L398.242 25H397.156V13.2344H398.625V17.1094ZM402.484 19.1406C402.484 18.1719 401.872 17.6875 400.648 17.6875C400.049 17.6875 399.375 17.8594 398.625 18.2031V23.5312C399.198 23.8542 399.781 24.0156 400.375 24.0156C400.974 24.0156 401.474 23.8724 401.875 23.5859C402.281 23.2943 402.484 22.901 402.484 22.4062V19.1406ZM406.719 25V16.7188H408.188V25H406.719ZM406.719 15.2266V13.7031H408.188V15.2266H406.719ZM415.047 25.0625C413.891 25.0625 413.055 24.8802 412.539 24.5156C412.029 24.151 411.773 23.5234 411.773 22.6328V17.8281H410.391V16.7188H411.828L412.008 14.1562H413.242V16.7188H415.32V17.8281H413.242V22.5391C413.242 23.0599 413.391 23.4062 413.688 23.5781C413.99 23.7448 414.513 23.8281 415.258 23.8281H415.422L415.266 25.0625H415.047ZM417.938 25V16.7188H419.406V25H417.938ZM417.938 15.2266V13.7031H419.406V15.2266H417.938ZM431.086 23.9062C432.117 23.9062 432.867 23.7422 433.336 23.4141C433.805 23.0807 434.039 22.4245 434.039 21.4453V17.3594C434.039 16.3802 433.802 15.7083 433.328 15.3438C432.859 14.9792 432.115 14.7969 431.094 14.7969C429.51 14.7969 428.549 15.2344 428.211 16.1094C428.081 16.4427 428.016 16.8594 428.016 17.3594V21.4453C428.016 22.4193 428.271 23.0729 428.781 23.4062C429.292 23.7396 430.06 23.9062 431.086 23.9062ZM428.195 24.6562C427.513 24.3125 427.049 23.8516 426.805 23.2734C426.56 22.6953 426.438 22.0052 426.438 21.2031V17.6484C426.438 16.0286 426.896 14.9062 427.812 14.2812C428.552 13.7812 429.646 13.5312 431.094 13.5312C433.656 13.5312 435.122 14.4844 435.492 16.3906C435.57 16.7917 435.609 17.2448 435.609 17.75V21.0938C435.609 22.6667 435.159 23.7708 434.258 24.4062C433.534 24.9167 432.513 25.1719 431.195 25.1719C429.878 25.1719 428.878 25 428.195 24.6562ZM437.312 27.7578L437.164 26.5391H437.391C437.922 26.5391 438.276 26.4688 438.453 26.3281C438.63 26.1927 438.745 26.0234 438.797 25.8203C438.849 25.6224 438.875 25.3594 438.875 25.0312V16.7188H440.344V24.9453C440.344 26.3047 440.031 27.1458 439.406 27.4688C439.036 27.6615 438.51 27.7578 437.828 27.7578H437.312ZM438.875 15.2266V13.7031H440.344V15.2266H438.875ZM445.906 25.0625C445.422 25.0625 445.026 25.026 444.719 24.9531C444.411 24.8802 444.141 24.7422 443.906 24.5391C443.469 24.1589 443.25 23.3802 443.25 22.2031V13.2422H444.719V22.2188C444.719 22.8854 444.818 23.3203 445.016 23.5234C445.214 23.7266 445.622 23.8281 446.242 23.8281H446.5L446.328 25.0625H445.906ZM451.805 25.1719C450.591 25.1719 449.714 24.9193 449.172 24.4141C448.63 23.9089 448.359 23.1302 448.359 22.0781V19.1953C448.359 18.3776 448.638 17.7344 449.195 17.2656C449.753 16.7969 450.594 16.5625 451.719 16.5625C452.849 16.5625 453.688 16.7812 454.234 17.2188C454.786 17.651 455.062 18.2708 455.062 19.0781V21.0469H449.828V22.2109C449.828 22.8984 449.966 23.3776 450.242 23.6484C450.518 23.9141 451.016 24.0469 451.734 24.0469C452.453 24.0469 452.859 24.0312 452.953 24C453.047 23.9688 453.143 23.9323 453.242 23.8906C453.341 23.849 453.409 23.7995 453.445 23.7422C453.487 23.6849 453.539 23.599 453.602 23.4844C453.669 23.3646 453.719 23.1354 453.75 22.7969H455.047C454.995 23.2917 454.906 23.6901 454.781 23.9922C454.661 24.2943 454.469 24.5365 454.203 24.7188C453.943 24.8958 453.628 25.0156 453.258 25.0781C452.893 25.1406 452.409 25.1719 451.805 25.1719ZM449.828 20.0547H453.641V18.9219C453.641 18.4531 453.479 18.1302 453.156 17.9531C452.839 17.776 452.37 17.6875 451.75 17.6875C451.13 17.6875 450.654 17.7943 450.32 18.0078C449.992 18.2214 449.828 18.5729 449.828 19.0625V20.0547ZM457.703 25V16.7188H459.172V17.8906C459.359 17.3802 459.867 17.0104 460.695 16.7812C461.128 16.6562 461.578 16.5964 462.047 16.6016L462 17.8594C461.292 17.8594 460.643 18 460.055 18.2812C459.466 18.5625 459.172 18.8698 459.172 19.2031V25H457.703ZM465.078 22.6641C465.078 23.5859 465.732 24.0469 467.039 24.0469C468.346 24.0469 469 23.5859 469 22.6641V19.0781C469 18.151 468.346 17.6875 467.039 17.6875C465.732 17.6875 465.078 18.151 465.078 19.0781V22.6641ZM470.469 22.5391C470.469 23.3516 470.19 23.9948 469.633 24.4688C469.081 24.9375 468.214 25.1719 467.031 25.1719C465.849 25.1719 464.982 24.9375 464.43 24.4688C463.883 24 463.609 23.3568 463.609 22.5391V19.2031C463.609 18.3854 463.883 17.7422 464.43 17.2734C464.982 16.7995 465.849 16.5625 467.031 16.5625C468.214 16.5625 469.081 16.7995 469.633 17.2734C470.19 17.7474 470.469 18.3906 470.469 19.2031V22.5391ZM475.305 25L472.094 16.7188H473.57L476.062 23.4375L478.281 16.7188H479.719L476.789 25H475.305ZM482.07 27.6406L481.438 27.2969C481.948 26.6823 482.271 26.1562 482.406 25.7188C482.479 25.4792 482.513 25.2396 482.508 25H481.406V23.1797H483.414V24.6094C483.414 25.5104 483.102 26.3698 482.477 27.1875C482.341 27.3646 482.206 27.5156 482.07 27.6406ZM282.25 53.7578L282.102 52.5391H282.328C282.859 52.5391 283.214 52.4688 283.391 52.3281C283.568 52.1927 283.682 52.0234 283.734 51.8203C283.786 51.6224 283.812 51.3594 283.812 51.0312V42.7188H285.281V50.9453C285.281 52.3047 284.969 53.1458 284.344 53.4688C283.974 53.6615 283.448 53.7578 282.766 53.7578H282.25ZM283.812 41.2266V39.7031H285.281V41.2266H283.812ZM291.305 51.1719C290.091 51.1719 289.214 50.9193 288.672 50.4141C288.13 49.9089 287.859 49.1302 287.859 48.0781V45.1953C287.859 44.3776 288.138 43.7344 288.695 43.2656C289.253 42.7969 290.094 42.5625 291.219 42.5625C292.349 42.5625 293.188 42.7812 293.734 43.2188C294.286 43.651 294.562 44.2708 294.562 45.0781V47.0469H289.328V48.2109C289.328 48.8984 289.466 49.3776 289.742 49.6484C290.018 49.9141 290.516 50.0469 291.234 50.0469C291.953 50.0469 292.359 50.0312 292.453 50C292.547 49.9688 292.643 49.9323 292.742 49.8906C292.841 49.849 292.909 49.7995 292.945 49.7422C292.987 49.6849 293.039 49.599 293.102 49.4844C293.169 49.3646 293.219 49.1354 293.25 48.7969H294.547C294.495 49.2917 294.406 49.6901 294.281 49.9922C294.161 50.2943 293.969 50.5365 293.703 50.7188C293.443 50.8958 293.128 51.0156 292.758 51.0781C292.393 51.1406 291.909 51.1719 291.305 51.1719ZM289.328 46.0547H293.141V44.9219C293.141 44.4531 292.979 44.1302 292.656 43.9531C292.339 43.776 291.87 43.6875 291.25 43.6875C290.63 43.6875 290.154 43.7943 289.82 44.0078C289.492 44.2214 289.328 44.5729 289.328 45.0625V46.0547ZM297.203 51V42.7188H298.672V43.8906C298.859 43.3802 299.367 43.0104 300.195 42.7812C300.628 42.6562 301.078 42.5964 301.547 42.6016L301.5 43.8594C300.792 43.8594 300.143 44 299.555 44.2812C298.966 44.5625 298.672 44.8698 298.672 45.2031V51H297.203ZM307.406 54.1875V42.7188H308.562L308.734 43.3438C308.974 43.1302 309.302 42.9479 309.719 42.7969C310.135 42.6406 310.568 42.5625 311.016 42.5625C312.042 42.5625 312.82 42.8125 313.352 43.3125C313.888 43.8125 314.156 44.4766 314.156 45.3047V48.3125C314.156 49.1667 313.865 49.8568 313.281 50.3828C312.698 50.9089 311.88 51.1719 310.828 51.1719C310.099 51.1719 309.448 51.026 308.875 50.7344V54.1875H307.406ZM308.875 49.6016C309.401 49.8984 309.99 50.0469 310.641 50.0469C311.292 50.0469 311.794 49.9089 312.148 49.6328C312.508 49.3568 312.688 48.9688 312.688 48.4688V45.1875C312.688 44.7083 312.51 44.3385 312.156 44.0781C311.807 43.8177 311.378 43.6875 310.867 43.6875C310.362 43.6875 309.93 43.7917 309.57 44C309.216 44.2083 308.984 44.3958 308.875 44.5625V49.6016ZM317.938 48.6641C317.938 49.5859 318.591 50.0469 319.898 50.0469C321.206 50.0469 321.859 49.5859 321.859 48.6641V45.0781C321.859 44.151 321.206 43.6875 319.898 43.6875C318.591 43.6875 317.938 44.151 317.938 45.0781V48.6641ZM323.328 48.5391C323.328 49.3516 323.049 49.9948 322.492 50.4688C321.94 50.9375 321.073 51.1719 319.891 51.1719C318.708 51.1719 317.841 50.9375 317.289 50.4688C316.742 50 316.469 49.3568 316.469 48.5391V45.2031C316.469 44.3854 316.742 43.7422 317.289 43.2734C317.841 42.7995 318.708 42.5625 319.891 42.5625C321.073 42.5625 321.94 42.7995 322.492 43.2734C323.049 43.7474 323.328 44.3906 323.328 45.2031V48.5391ZM328.414 50.0469C329.523 50.0469 330.078 49.6328 330.078 48.8047C330.078 48.4453 330.029 48.1797 329.93 48.0078C329.831 47.8307 329.599 47.6745 329.234 47.5391L327.266 46.8125C326.661 46.599 326.24 46.3464 326 46.0547C325.766 45.7578 325.648 45.388 325.648 44.9453C325.648 44.5026 325.693 44.1484 325.781 43.8828C325.87 43.612 326.016 43.375 326.219 43.1719C326.625 42.7656 327.354 42.5625 328.406 42.5625C329.458 42.5625 330.365 42.7135 331.125 43.0156L330.789 44.1406C330.523 44.0312 330.174 43.9297 329.742 43.8359C329.31 43.737 328.932 43.6875 328.609 43.6875C327.865 43.6875 327.393 43.8073 327.195 44.0469C327.076 44.1979 327.016 44.4193 327.016 44.7109C327.016 45.0026 327.062 45.2109 327.156 45.3359C327.255 45.4557 327.445 45.5651 327.727 45.6641L329.672 46.4297C330.349 46.6953 330.794 46.9896 331.008 47.3125C331.221 47.6302 331.328 48.1328 331.328 48.8203C331.328 49.5078 331.107 50.0729 330.664 50.5156C330.221 50.9531 329.536 51.1719 328.609 51.1719C327.932 51.1719 327.331 51.099 326.805 50.9531C326.279 50.8073 325.875 50.6562 325.594 50.5L325.953 49.4219C326.698 49.8385 327.518 50.0469 328.414 50.0469ZM337.516 51.0625C336.359 51.0625 335.523 50.8802 335.008 50.5156C334.497 50.151 334.242 49.5234 334.242 48.6328V43.8281H332.859V42.7188H334.297L334.477 40.1562H335.711V42.7188H337.789V43.8281H335.711V48.5391C335.711 49.0599 335.859 49.4062 336.156 49.5781C336.458 49.7448 336.982 49.8281 337.727 49.8281H337.891L337.734 51.0625H337.516ZM341.422 48.6641C341.422 49.5859 342.076 50.0469 343.383 50.0469C344.69 50.0469 345.344 49.5859 345.344 48.6641V45.0781C345.344 44.151 344.69 43.6875 343.383 43.6875C342.076 43.6875 341.422 44.151 341.422 45.0781V48.6641ZM346.812 48.5391C346.812 49.3516 346.534 49.9948 345.977 50.4688C345.424 50.9375 344.557 51.1719 343.375 51.1719C342.193 51.1719 341.326 50.9375 340.773 50.4688C340.227 50 339.953 49.3568 339.953 48.5391V45.2031C339.953 44.3854 340.227 43.7422 340.773 43.2734C341.326 42.7995 342.193 42.5625 343.375 42.5625C344.557 42.5625 345.424 42.7995 345.977 43.2734C346.534 43.7474 346.812 44.3906 346.812 45.2031V48.5391ZM348.219 53.7578L348.07 52.5391H348.297C348.828 52.5391 349.182 52.4688 349.359 52.3281C349.536 52.1927 349.651 52.0234 349.703 51.8203C349.755 51.6224 349.781 51.3594 349.781 51.0312V42.7188H351.25V50.9453C351.25 52.3047 350.938 53.1458 350.312 53.4688C349.943 53.6615 349.417 53.7578 348.734 53.7578H348.219ZM349.781 41.2266V39.7031H351.25V41.2266H349.781ZM354.281 51V42.7188H355.75V51H354.281ZM354.281 41.2266V39.7031H355.75V41.2266H354.281ZM365.148 41.2891L363.547 39.2109H364.758L365.727 40.5703L366.758 39.2109H368.016L366.32 41.2891H365.148ZM365.852 51.1719C364.159 51.1719 363.099 50.5833 362.672 49.4062C362.547 49.0729 362.484 48.7083 362.484 48.3125V45.1562C362.484 44.3698 362.784 43.7422 363.383 43.2734C363.982 42.7995 364.792 42.5625 365.812 42.5625C367.115 42.5625 368.01 42.8438 368.5 43.4062C368.885 43.8438 369.078 44.4896 369.078 45.3438L367.68 45.4766C367.68 44.737 367.547 44.2552 367.281 44.0312C367.021 43.8021 366.555 43.6875 365.883 43.6875C365.211 43.6875 364.721 43.8047 364.414 44.0391C364.107 44.2734 363.953 44.6589 363.953 45.1953V48.4375C363.953 49.0104 364.115 49.4219 364.438 49.6719C364.76 49.9219 365.258 50.0469 365.93 50.0469C366.607 50.0469 367.057 49.9583 367.281 49.7812C367.51 49.6042 367.651 49.2031 367.703 48.5781H369.062C368.979 49.5365 368.703 50.2083 368.234 50.5938C367.766 50.9792 366.971 51.1719 365.852 51.1719ZM373.711 51L370.5 42.7188H371.977L374.469 49.4375L376.688 42.7188H378.125L375.195 51H373.711ZM381.25 48.6641C381.25 49.5859 381.904 50.0469 383.211 50.0469C384.518 50.0469 385.172 49.5859 385.172 48.6641V45.0781C385.172 44.151 384.518 43.6875 383.211 43.6875C381.904 43.6875 381.25 44.151 381.25 45.0781V48.6641ZM386.641 48.5391C386.641 49.3516 386.362 49.9948 385.805 50.4688C385.253 50.9375 384.385 51.1719 383.203 51.1719C382.021 51.1719 381.154 50.9375 380.602 50.4688C380.055 50 379.781 49.3568 379.781 48.5391V45.2031C379.781 44.3854 380.055 43.7422 380.602 43.2734C381.154 42.7995 382.021 42.5625 383.203 42.5625C384.385 42.5625 385.253 42.7995 385.805 43.2734C386.362 43.7474 386.641 44.3906 386.641 45.2031V48.5391ZM389.25 51V42.7188H390.719V43.8906C390.906 43.3802 391.414 43.0104 392.242 42.7812C392.674 42.6562 393.125 42.5964 393.594 42.6016L393.547 43.8594C392.839 43.8594 392.19 44 391.602 44.2812C391.013 44.5625 390.719 44.8698 390.719 45.2031V51H389.25ZM399.453 51V39.2344H400.922V46.9062L404.883 42.7188H406.492L403.125 46.3594L406.828 51H405.133L402.164 47.1562L400.922 48.3906V51H399.453ZM409.625 48.6641C409.625 49.5859 410.279 50.0469 411.586 50.0469C412.893 50.0469 413.547 49.5859 413.547 48.6641V45.0781C413.547 44.151 412.893 43.6875 411.586 43.6875C410.279 43.6875 409.625 44.151 409.625 45.0781V48.6641ZM415.016 48.5391C415.016 49.3516 414.737 49.9948 414.18 50.4688C413.628 50.9375 412.76 51.1719 411.578 51.1719C410.396 51.1719 409.529 50.9375 408.977 50.4688C408.43 50 408.156 49.3568 408.156 48.5391V45.2031C408.156 44.3854 408.43 43.7422 408.977 43.2734C409.529 42.7995 410.396 42.5625 411.578 42.5625C412.76 42.5625 413.628 42.7995 414.18 43.2734C414.737 43.7474 415.016 44.3906 415.016 45.2031V48.5391ZM416.422 53.7578L416.273 52.5391H416.5C417.031 52.5391 417.385 52.4688 417.562 52.3281C417.74 52.1927 417.854 52.0234 417.906 51.8203C417.958 51.6224 417.984 51.3594 417.984 51.0312V42.7188H419.453V50.9453C419.453 52.3047 419.141 53.1458 418.516 53.4688C418.146 53.6615 417.62 53.7578 416.938 53.7578H416.422ZM417.984 41.2266V39.7031H419.453V41.2266H417.984ZM422.484 51V42.7188H423.953V51H422.484ZM422.484 41.2266V39.7031H423.953V41.2266H422.484ZM431.141 51V42.7188H432.609V51H431.141ZM431.141 41.2266V39.7031H432.609V41.2266H431.141ZM440.781 44.8984C440.781 44.0911 440.185 43.6875 438.992 43.6875C438.388 43.6875 437.922 43.8177 437.594 44.0781C437.271 44.3333 437.109 44.6745 437.109 45.1016V51H435.641V42.7188H437.109V43.5234C437.661 42.8828 438.49 42.5625 439.594 42.5625C440.703 42.5625 441.477 42.9245 441.914 43.6484L442.109 43.4609C442.708 42.862 443.547 42.5625 444.625 42.5625C446.016 42.5625 446.875 43.0573 447.203 44.0469C447.297 44.3281 447.344 44.6406 447.344 44.9844V51H445.875V44.8984C445.875 44.0911 445.333 43.6875 444.25 43.6875C443.568 43.6875 443.062 43.8177 442.734 44.0781C442.411 44.3333 442.25 44.6745 442.25 45.1016V51H440.781V44.8984ZM452.398 51.1719C451.56 51.1719 450.909 50.9453 450.445 50.4922C449.982 50.0339 449.75 49.4661 449.75 48.7891C449.75 48.4036 449.831 48.0833 449.992 47.8281C450.32 47.3073 451.299 46.8099 452.93 46.3359C453.872 46.0755 454.414 45.8516 454.555 45.6641C454.701 45.4766 454.781 45.3307 454.797 45.2266C454.812 45.1172 454.82 44.9453 454.82 44.7109C454.82 44.4766 454.724 44.2474 454.531 44.0234C454.344 43.7995 453.932 43.6875 453.297 43.6875C452.401 43.6875 451.852 43.8594 451.648 44.2031C451.544 44.3802 451.492 44.6198 451.492 44.9219V45.2891H450.078V44.9141C450.078 44.1068 450.346 43.513 450.883 43.1328C451.424 42.7526 452.232 42.5625 453.305 42.5625C454.378 42.5625 455.143 42.8073 455.602 43.2969C456.06 43.7812 456.289 44.474 456.289 45.375V48.9062C456.289 49.3385 456.344 49.6198 456.453 49.75C456.562 49.875 456.797 49.9375 457.156 49.9375L456.984 51.0625H456.688C456.167 51.0625 455.779 50.9635 455.523 50.7656C455.268 50.5625 455.073 50.25 454.938 49.8281C454.505 50.474 453.984 50.8802 453.375 51.0469C453.083 51.1302 452.758 51.1719 452.398 51.1719ZM453.133 47.3438C452.393 47.5573 451.88 47.7708 451.594 47.9844C451.312 48.1979 451.172 48.5 451.172 48.8906C451.172 49.276 451.302 49.5677 451.562 49.7656C451.828 49.9635 452.146 50.0625 452.516 50.0625C452.891 50.0625 453.229 50.0156 453.531 49.9219C453.833 49.8229 454.104 49.6797 454.344 49.4922C454.589 49.2995 454.747 49.0807 454.82 48.8359V46.4453C454.44 46.8255 453.878 47.125 453.133 47.3438ZM463.484 51V49.7891H466.617V41.0234L463.695 41.3359L463.555 40.0938L466.906 39.7031H468.188V49.7891H470.953V51H463.484ZM479.867 51.1719C478.456 51.1719 477.56 50.6719 477.18 49.6719C477.07 49.3854 477.016 49.0729 477.016 48.7344V42.7188H478.484V48.7422C478.484 49.1484 478.633 49.4688 478.93 49.7031C479.232 49.9323 479.68 50.0469 480.273 50.0469C480.867 50.0469 481.349 49.901 481.719 49.6094C482.094 49.3125 482.281 48.9714 482.281 48.5859V42.7188H483.75V51H482.438L482.281 49.9609C481.823 50.7682 481.018 51.1719 479.867 51.1719ZM489.344 51.0625C488.859 51.0625 488.464 51.026 488.156 50.9531C487.849 50.8802 487.578 50.7422 487.344 50.5391C486.906 50.1589 486.688 49.3802 486.688 48.2031V39.2422H488.156V48.2188C488.156 48.8854 488.255 49.3203 488.453 49.5234C488.651 49.7266 489.06 49.8281 489.68 49.8281H489.938L489.766 51.0625H489.344ZM494.32 51.1719C493.482 51.1719 492.831 50.9453 492.367 50.4922C491.904 50.0339 491.672 49.4661 491.672 48.7891C491.672 48.4036 491.753 48.0833 491.914 47.8281C492.242 47.3073 493.221 46.8099 494.852 46.3359C495.794 46.0755 496.336 45.8516 496.477 45.6641C496.622 45.4766 496.703 45.3307 496.719 45.2266C496.734 45.1172 496.742 44.9453 496.742 44.7109C496.742 44.4766 496.646 44.2474 496.453 44.0234C496.266 43.7995 495.854 43.6875 495.219 43.6875C494.323 43.6875 493.773 43.8594 493.57 44.2031C493.466 44.3802 493.414 44.6198 493.414 44.9219V45.2891H492V44.9141C492 44.1068 492.268 43.513 492.805 43.1328C493.346 42.7526 494.154 42.5625 495.227 42.5625C496.299 42.5625 497.065 42.8073 497.523 43.2969C497.982 43.7812 498.211 44.474 498.211 45.375V48.9062C498.211 49.3385 498.266 49.6198 498.375 49.75C498.484 49.875 498.719 49.9375 499.078 49.9375L498.906 51.0625H498.609C498.089 51.0625 497.701 50.9635 497.445 50.7656C497.19 50.5625 496.995 50.25 496.859 49.8281C496.427 50.474 495.906 50.8802 495.297 51.0469C495.005 51.1302 494.68 51.1719 494.32 51.1719ZM495.055 47.3438C494.315 47.5573 493.802 47.7708 493.516 47.9844C493.234 48.1979 493.094 48.5 493.094 48.8906C493.094 49.276 493.224 49.5677 493.484 49.7656C493.75 49.9635 494.068 50.0625 494.438 50.0625C494.812 50.0625 495.151 50.0156 495.453 49.9219C495.755 49.8229 496.026 49.6797 496.266 49.4922C496.51 49.2995 496.669 49.0807 496.742 48.8359V46.4453C496.362 46.8255 495.799 47.125 495.055 47.3438ZM500.891 51V50.0781L504.852 43.6875H501.031V42.7188H506.398V43.6172L502.414 50.0312H506.469V51H500.891ZM514.062 44.8984C514.062 44.0911 513.445 43.6875 512.211 43.6875C511.602 43.6875 511.122 43.8177 510.773 44.0781C510.424 44.3385 510.25 44.6797 510.25 45.1016V51H508.781V42.7188H510.25V43.5234C510.802 42.8828 511.62 42.5625 512.703 42.5625C514.109 42.5625 515 43.0573 515.375 44.0469C515.479 44.3281 515.531 44.6406 515.531 44.9844V51H514.062V44.8984ZM521.133 51.1719C519.721 51.1719 518.826 50.6719 518.445 49.6719C518.336 49.3854 518.281 49.0729 518.281 48.7344V42.7188H519.75V48.7422C519.75 49.1484 519.898 49.4688 520.195 49.7031C520.497 49.9323 520.945 50.0469 521.539 50.0469C522.133 50.0469 522.615 49.901 522.984 49.6094C523.359 49.3125 523.547 48.9714 523.547 48.5859V42.7188H525.016V51H523.703L523.547 49.9609C523.089 50.7682 522.284 51.1719 521.133 51.1719ZM283.609 77V68.7188H285.078V77H283.609ZM283.609 67.2266V65.7031H285.078V67.2266H283.609ZM292.461 77L292.312 75.7656L296.125 71.6172C296.818 70.8672 297.211 70.4062 297.305 70.2344C297.404 70.0573 297.497 69.8646 297.586 69.6562C297.68 69.4479 297.727 69.1432 297.727 68.7422C297.727 68.0286 297.576 67.526 297.273 67.2344C296.971 66.9427 296.469 66.7969 295.766 66.7969C295.328 66.7969 294.977 66.8255 294.711 66.8828C294.445 66.9401 294.216 67.0495 294.023 67.2109C293.68 67.4974 293.508 68.0938 293.508 69H291.938C291.938 66.6875 293.174 65.5312 295.648 65.5312C296.836 65.5312 297.727 65.8333 298.32 66.4375C298.914 67.0365 299.211 67.7656 299.211 68.625C299.211 69.4844 299.055 70.1562 298.742 70.6406C298.435 71.125 298.117 71.5391 297.789 71.8828C297.461 72.2214 297.276 72.4141 297.234 72.4609L294.102 75.7812H299.148V77H292.461ZM306.031 77V68.7188H307.5V77H306.031ZM306.031 67.2266V65.7031H307.5V67.2266H306.031ZM310.172 77V76.0781L314.133 69.6875H310.312V68.7188H315.68V69.6172L311.695 76.0312H315.75V77H310.172ZM320.75 77.0625C320.266 77.0625 319.87 77.026 319.562 76.9531C319.255 76.8802 318.984 76.7422 318.75 76.5391C318.312 76.1589 318.094 75.3802 318.094 74.2031V65.2422H319.562V74.2188C319.562 74.8854 319.661 75.3203 319.859 75.5234C320.057 75.7266 320.466 75.8281 321.086 75.8281H321.344L321.172 77.0625H320.75ZM325.727 77.1719C324.888 77.1719 324.237 76.9453 323.773 76.4922C323.31 76.0339 323.078 75.4661 323.078 74.7891C323.078 74.4036 323.159 74.0833 323.32 73.8281C323.648 73.3073 324.628 72.8099 326.258 72.3359C327.201 72.0755 327.742 71.8516 327.883 71.6641C328.029 71.4766 328.109 71.3307 328.125 71.2266C328.141 71.1172 328.148 70.9453 328.148 70.7109C328.148 70.4766 328.052 70.2474 327.859 70.0234C327.672 69.7995 327.26 69.6875 326.625 69.6875C325.729 69.6875 325.18 69.8594 324.977 70.2031C324.872 70.3802 324.82 70.6198 324.82 70.9219V71.2891H323.406V70.9141C323.406 70.1068 323.674 69.513 324.211 69.1328C324.753 68.7526 325.56 68.5625 326.633 68.5625C327.706 68.5625 328.471 68.8073 328.93 69.2969C329.388 69.7812 329.617 70.474 329.617 71.375V74.9062C329.617 75.3385 329.672 75.6198 329.781 75.75C329.891 75.875 330.125 75.9375 330.484 75.9375L330.312 77.0625H330.016C329.495 77.0625 329.107 76.9635 328.852 76.7656C328.596 76.5625 328.401 76.25 328.266 75.8281C327.833 76.474 327.312 76.8802 326.703 77.0469C326.411 77.1302 326.086 77.1719 325.727 77.1719ZM326.461 73.3438C325.721 73.5573 325.208 73.7708 324.922 73.9844C324.641 74.1979 324.5 74.5 324.5 74.8906C324.5 75.276 324.63 75.5677 324.891 75.7656C325.156 75.9635 325.474 76.0625 325.844 76.0625C326.219 76.0625 326.557 76.0156 326.859 75.9219C327.161 75.8229 327.432 75.6797 327.672 75.4922C327.917 75.2995 328.076 75.0807 328.148 74.8359V72.4453C327.768 72.8255 327.206 73.125 326.461 73.3438ZM332.297 77V76.0781L336.258 69.6875H332.438V68.7188H337.805V69.6172L333.82 76.0312H337.875V77H332.297ZM345.469 70.8984C345.469 70.0911 344.852 69.6875 343.617 69.6875C343.008 69.6875 342.529 69.8177 342.18 70.0781C341.831 70.3385 341.656 70.6797 341.656 71.1016V77H340.188V68.7188H341.656V69.5234C342.208 68.8828 343.026 68.5625 344.109 68.5625C345.516 68.5625 346.406 69.0573 346.781 70.0469C346.885 70.3281 346.938 70.6406 346.938 70.9844V77H345.469V70.8984ZM352.914 77.1719C351.701 77.1719 350.823 76.9193 350.281 76.4141C349.74 75.9089 349.469 75.1302 349.469 74.0781V71.1953C349.469 70.3776 349.747 69.7344 350.305 69.2656C350.862 68.7969 351.703 68.5625 352.828 68.5625C353.958 68.5625 354.797 68.7812 355.344 69.2188C355.896 69.651 356.172 70.2708 356.172 71.0781V73.0469H350.938V74.2109C350.938 74.8984 351.076 75.3776 351.352 75.6484C351.628 75.9141 352.125 76.0469 352.844 76.0469C353.562 76.0469 353.969 76.0312 354.062 76C354.156 75.9688 354.253 75.9323 354.352 75.8906C354.451 75.849 354.518 75.7995 354.555 75.7422C354.596 75.6849 354.648 75.599 354.711 75.4844C354.779 75.3646 354.828 75.1354 354.859 74.7969H356.156C356.104 75.2917 356.016 75.6901 355.891 75.9922C355.771 76.2943 355.578 76.5365 355.312 76.7188C355.052 76.8958 354.737 77.0156 354.367 77.0781C354.003 77.1406 353.518 77.1719 352.914 77.1719ZM350.938 72.0547H354.75V70.9219C354.75 70.4531 354.589 70.1302 354.266 69.9531C353.948 69.776 353.479 69.6875 352.859 69.6875C352.24 69.6875 351.763 69.7943 351.43 70.0078C351.102 70.2214 350.938 70.5729 350.938 71.0625V72.0547ZM363.664 78.7734C364.206 78.9714 364.87 79.0703 365.656 79.0703C366.443 79.0703 366.992 78.9219 367.305 78.625C367.622 78.3281 367.781 77.8672 367.781 77.2422V76.0938C367.568 76.2917 367.247 76.4401 366.82 76.5391C366.398 76.638 366.01 76.6875 365.656 76.6875C363.562 76.6875 362.516 75.8047 362.516 74.0391V71.3125C362.516 70.4531 362.776 69.7812 363.297 69.2969C363.823 68.8073 364.609 68.5625 365.656 68.5625C366.073 68.5625 366.5 68.651 366.938 68.8281C367.38 69 367.661 69.1849 367.781 69.3828V68.7188H369.25V76.8047C369.25 77.7995 368.987 78.612 368.461 79.2422C367.94 79.8724 367.096 80.1875 365.93 80.1875C364.763 80.1875 363.898 80.0833 363.336 79.875L363.664 78.7734ZM367.781 70.8281C367.781 70.0677 367.148 69.6875 365.883 69.6875C364.617 69.6875 363.984 70.1771 363.984 71.1562V74.2656C363.984 75.1302 364.617 75.5625 365.883 75.5625C366.628 75.5625 367.26 75.3542 367.781 74.9375V70.8281ZM372.078 77V68.7188H373.547V69.8906C373.734 69.3802 374.242 69.0104 375.07 68.7812C375.503 68.6562 375.953 68.5964 376.422 68.6016L376.375 69.8594C375.667 69.8594 375.018 70 374.43 70.2812C373.841 70.5625 373.547 70.8698 373.547 71.2031V77H372.078ZM380.508 77.1719C379.669 77.1719 379.018 76.9453 378.555 76.4922C378.091 76.0339 377.859 75.4661 377.859 74.7891C377.859 74.4036 377.94 74.0833 378.102 73.8281C378.43 73.3073 379.409 72.8099 381.039 72.3359C381.982 72.0755 382.523 71.8516 382.664 71.6641C382.81 71.4766 382.891 71.3307 382.906 71.2266C382.922 71.1172 382.93 70.9453 382.93 70.7109C382.93 70.4766 382.833 70.2474 382.641 70.0234C382.453 69.7995 382.042 69.6875 381.406 69.6875C380.51 69.6875 379.961 69.8594 379.758 70.2031C379.654 70.3802 379.602 70.6198 379.602 70.9219V71.2891H378.188V70.9141C378.188 70.1068 378.456 69.513 378.992 69.1328C379.534 68.7526 380.341 68.5625 381.414 68.5625C382.487 68.5625 383.253 68.8073 383.711 69.2969C384.169 69.7812 384.398 70.474 384.398 71.375V74.9062C384.398 75.3385 384.453 75.6198 384.562 75.75C384.672 75.875 384.906 75.9375 385.266 75.9375L385.094 77.0625H384.797C384.276 77.0625 383.888 76.9635 383.633 76.7656C383.378 76.5625 383.182 76.25 383.047 75.8281C382.615 76.474 382.094 76.8802 381.484 77.0469C381.193 77.1302 380.867 77.1719 380.508 77.1719ZM381.242 73.3438C380.503 73.5573 379.99 73.7708 379.703 73.9844C379.422 74.1979 379.281 74.5 379.281 74.8906C379.281 75.276 379.411 75.5677 379.672 75.7656C379.938 75.9635 380.255 76.0625 380.625 76.0625C381 76.0625 381.339 76.0156 381.641 75.9219C381.943 75.8229 382.214 75.6797 382.453 75.4922C382.698 75.2995 382.857 75.0807 382.93 74.8359V72.4453C382.549 72.8255 381.987 73.125 381.242 73.3438ZM392.719 70.8984C392.719 70.0911 392.102 69.6875 390.867 69.6875C390.258 69.6875 389.779 69.8177 389.43 70.0781C389.081 70.3385 388.906 70.6797 388.906 71.1016V77H387.438V68.7188H388.906V69.5234C389.458 68.8828 390.276 68.5625 391.359 68.5625C392.766 68.5625 393.656 69.0573 394.031 70.0469C394.135 70.3281 394.188 70.6406 394.188 70.9844V77H392.719V70.8984ZM400.164 77.1719C398.951 77.1719 398.073 76.9193 397.531 76.4141C396.99 75.9089 396.719 75.1302 396.719 74.0781V71.1953C396.719 70.3776 396.997 69.7344 397.555 69.2656C398.112 68.7969 398.953 68.5625 400.078 68.5625C401.208 68.5625 402.047 68.7812 402.594 69.2188C403.146 69.651 403.422 70.2708 403.422 71.0781V73.0469H398.188V74.2109C398.188 74.8984 398.326 75.3776 398.602 75.6484C398.878 75.9141 399.375 76.0469 400.094 76.0469C400.812 76.0469 401.219 76.0312 401.312 76C401.406 75.9688 401.503 75.9323 401.602 75.8906C401.701 75.849 401.768 75.7995 401.805 75.7422C401.846 75.6849 401.898 75.599 401.961 75.4844C402.029 75.3646 402.078 75.1354 402.109 74.7969H403.406C403.354 75.2917 403.266 75.6901 403.141 75.9922C403.021 76.2943 402.828 76.5365 402.562 76.7188C402.302 76.8958 401.987 77.0156 401.617 77.0781C401.253 77.1406 400.768 77.1719 400.164 77.1719ZM398.188 72.0547H402V70.9219C402 70.4531 401.839 70.1302 401.516 69.9531C401.198 69.776 400.729 69.6875 400.109 69.6875C399.49 69.6875 399.013 69.7943 398.68 70.0078C398.352 70.2214 398.188 70.5729 398.188 71.0625V72.0547ZM406.062 77V75.1094H408.062V77H406.062Z" fill="#C9D1D9"/>
<path d="M82.6238 78.0136C83.0833 78.32 83.7042 78.1958 84.0105 77.7363L89.0028 70.2478C89.3092 69.7883 89.185 69.1674 88.7255 68.8611C88.2659 68.5547 87.6451 68.6789 87.3387 69.1384L82.9011 75.7948L76.2447 71.3572C75.7852 71.0509 75.1643 71.175 74.858 71.6346C74.5516 72.0941 74.6758 72.715 75.1353 73.0213L82.6238 78.0136ZM69.6979 14.8777L82.1979 77.3777L84.159 76.9855L71.659 14.4855L69.6979 14.8777Z" fill="#FF7F50"/>
<path d="M156.17 37.0525C156.651 36.7811 156.821 36.1711 156.549 35.6902L152.126 27.8522C151.854 27.3712 151.244 27.2014 150.764 27.4728C150.283 27.7442 150.113 28.3542 150.384 28.8352L154.316 35.8022L147.349 39.7342C146.868 40.0056 146.698 40.6156 146.97 41.0965C147.241 41.5775 147.851 41.7474 148.332 41.4759L156.17 37.0525ZM76.4101 15.145L155.41 37.145L155.947 35.2183L76.9467 13.2183L76.4101 15.145Z" fill="#FF7F50"/>
<path d="M169.503 129.419C169.91 129.792 170.543 129.764 170.916 129.357L176.995 122.721C177.369 122.314 177.341 121.681 176.934 121.308C176.526 120.935 175.894 120.963 175.521 121.37L170.117 127.269L164.218 121.865C163.811 121.491 163.178 121.519 162.805 121.926C162.432 122.334 162.46 122.966 162.867 123.339L169.503 129.419ZM165.679 48.7253L169.179 128.725L171.177 128.638L167.677 48.6379L165.679 48.7253Z" fill="#C3A8A8"/>
<path d="M84.2689 172.266C84.0393 172.768 84.2604 173.361 84.7626 173.591L92.9479 177.333C93.4502 177.563 94.0435 177.342 94.2731 176.839C94.5028 176.337 94.2817 175.744 93.7794 175.514L86.5036 172.188L89.8297 164.912C90.0593 164.41 89.8383 163.817 89.336 163.587C88.8337 163.357 88.2404 163.578 88.0108 164.081L84.2689 172.266ZM161.329 143.245L84.8293 171.745L85.5275 173.619L162.027 145.119L161.329 143.245Z" fill="#C3A8A8"/>
<path d="M18.7879 104.188C18.2389 104.127 17.7449 104.523 17.6844 105.072L16.6992 114.018C16.6387 114.567 17.0347 115.061 17.5837 115.122C18.1327 115.182 18.6267 114.786 18.6872 114.237L19.5629 106.285L27.5149 107.161C28.0638 107.221 28.5579 106.825 28.6183 106.276C28.6788 105.727 28.2828 105.233 27.7338 105.173L18.7879 104.188ZM69.9585 167.556L19.4587 104.556L17.8982 105.807L68.398 168.807L69.9585 167.556Z" fill="#C3A8A8"/>
<path d="M64.158 19.4806C64.047 18.9396 63.5184 18.591 62.9774 18.7021L54.1611 20.5115C53.6201 20.6225 53.2716 21.1511 53.3826 21.6921C53.4936 22.2331 54.0222 22.5817 54.5632 22.4707L62.3999 20.8623L64.0083 28.6989C64.1193 29.2399 64.6479 29.5885 65.1889 29.4775C65.7299 29.3664 66.0785 28.8378 65.9674 28.2968L64.158 19.4806ZM18.5132 89.2321L64.0132 20.2321L62.3436 19.1311L16.8436 88.1311L18.5132 89.2321Z" fill="#FFD700"/>
<path d="M159.145 46.4387C159.287 45.905 158.969 45.3572 158.435 45.2152L149.738 42.9016C149.204 42.7597 148.656 43.0773 148.514 43.611C148.372 44.1447 148.69 44.6925 149.224 44.8344L156.955 46.891L154.898 54.6221C154.756 55.1558 155.074 55.7036 155.608 55.8456C156.141 55.9876 156.689 55.67 156.831 55.1363L159.145 46.4387ZM93.18 85.0218L158.68 47.0468L157.677 45.3165L92.1769 83.2915L93.18 85.0218Z" fill="#C3A8A8"/>
<path d="M224.163 102.856C224.259 102.312 223.897 101.793 223.353 101.697L214.491 100.127C213.947 100.031 213.428 100.394 213.332 100.937C213.235 101.481 213.598 102 214.142 102.096L222.019 103.492L220.624 111.369C220.528 111.913 220.89 112.432 221.434 112.528C221.978 112.625 222.497 112.262 222.593 111.718L224.163 102.856ZM172.251 139.501L223.751 103.501L222.605 101.862L171.105 137.862L172.251 139.501Z" fill="#C3A8A8"/>
<path d="M224.365 90.3933C224.915 90.351 225.328 89.8703 225.285 89.3197L224.596 80.3461C224.553 79.7954 224.073 79.3833 223.522 79.4257C222.971 79.468 222.559 79.9487 222.602 80.4993L223.215 88.4758L215.238 89.0887C214.687 89.131 214.275 89.6117 214.318 90.1624C214.36 90.7131 214.841 91.1252 215.391 91.0828L224.365 90.3933ZM165.814 40.5845L223.637 90.1555L224.939 88.6371L167.116 39.0661L165.814 40.5845Z" fill="#C3A8A8"/>
<circle cx="85.6784" cy="87.6816" r="9" fill="#C3A8A8" stroke="#C4A8A8" stroke-width="2"/>
<circle cx="165.678" cy="39.6816" r="9" fill="#C3A8A8" stroke="#C4A8A8" stroke-width="2"/>
<circle cx="232.678" cy="95.6816" r="9" fill="#C3A8A8" stroke="#C4A8A8" stroke-width="2"/>
<circle cx="170.678" cy="139.682" r="9" fill="#C3A8A8" stroke="#C4A8A8" stroke-width="2"/>
<circle cx="75.6784" cy="174.682" r="9" fill="#C3A8A8" stroke="#C4A8A8" stroke-width="2"/>
<circle cx="12.6784" cy="96.6816" r="9" fill="#C3A8A8" stroke="#C4A8A8" stroke-width="2"/>
<circle cx="68.6784" cy="10.6816" r="9" fill="#FF0000" stroke="#FF0000" stroke-width="2"/>
</svg>
