<svg width="409" height="390" viewBox="0 0 409 390" fill="none" xmlns="http://www.w3.org/2000/svg">
<path d="M138.679 163.453C139.145 163.75 139.763 163.612 140.06 163.147L144.892 155.554C145.189 155.088 145.051 154.47 144.586 154.173C144.12 153.877 143.502 154.014 143.205 154.48L138.91 161.229L132.161 156.934C131.695 156.637 131.077 156.774 130.78 157.24C130.483 157.706 130.621 158.324 131.087 158.621L138.679 163.453ZM119.326 77.6878L138.24 162.826L140.192 162.393L121.278 77.2541L119.326 77.6878Z" fill="#C4A8A8"/>
<path d="M263.067 114.329C263.548 114.057 263.718 113.447 263.447 112.966L259.023 105.128C258.752 104.647 258.142 104.478 257.661 104.749C257.18 105.02 257.01 105.63 257.281 106.111L261.213 113.078L254.246 117.01C253.765 117.282 253.596 117.892 253.867 118.373C254.138 118.854 254.748 119.024 255.229 118.752L263.067 114.329ZM130.077 77.5974L262.308 114.421L262.844 112.494L130.613 75.6707L130.077 77.5974Z" fill="#C4A8A8"/>
<path d="M129.227 55.4874C129.157 56.0352 129.544 56.5363 130.091 56.6067L139.018 57.754C139.566 57.8244 140.067 57.4374 140.137 56.8896C140.208 56.3418 139.821 55.8407 139.273 55.7703L131.338 54.7505L132.358 46.8158C132.428 46.268 132.041 45.7669 131.494 45.6965C130.946 45.6261 130.445 46.013 130.374 46.5608L129.227 55.4874ZM279.497 119.341C272.995 93.4907 265.758 72.4016 257.21 56.343C248.664 40.2872 238.76 29.174 226.884 23.4095C214.982 17.6321 201.252 17.3005 185.222 22.4994C169.214 27.6912 150.858 38.4132 129.608 54.8234L130.83 56.4064C151.998 40.06 170.143 29.4922 185.839 24.4018C201.512 19.3185 214.687 19.7122 226.011 25.2087C237.361 30.7179 247.005 41.4271 255.445 57.2828C263.884 73.1357 271.073 94.0475 277.557 119.829L279.497 119.341Z" fill="#C4A8A8"/>
<path d="M286.171 269.023C286.578 269.396 287.21 269.368 287.584 268.961L293.663 262.325C294.036 261.918 294.009 261.285 293.601 260.912C293.194 260.539 292.562 260.567 292.189 260.974L286.784 266.873L280.886 261.468C280.478 261.095 279.846 261.123 279.473 261.53C279.1 261.937 279.127 262.57 279.535 262.943L286.171 269.023ZM279.989 134.424L285.847 268.329L287.845 268.242L281.987 134.337L279.989 134.424Z" fill="#C3A8A8"/>
<path d="M273.528 294.646C273.758 294.144 273.537 293.55 273.035 293.321L264.849 289.579C264.347 289.349 263.754 289.57 263.524 290.072C263.295 290.575 263.516 291.168 264.018 291.398L271.294 294.724L267.968 302C267.738 302.502 267.959 303.095 268.461 303.325C268.964 303.554 269.557 303.333 269.786 302.831L273.528 294.646ZM144.921 342.869L272.968 295.167L272.27 293.293L144.223 340.995L144.921 342.869Z" fill="#C3A8A8"/>
<path d="M115.553 332.907C116.102 332.967 116.596 332.571 116.656 332.022L117.641 323.076C117.701 322.527 117.305 322.033 116.756 321.973C116.207 321.912 115.713 322.308 115.653 322.857L114.778 330.809L106.826 329.934C106.277 329.874 105.783 330.27 105.722 330.819C105.662 331.368 106.058 331.862 106.607 331.922L115.553 332.907ZM30.3467 227.094L114.882 332.538L116.443 331.287L31.9072 225.843L30.3467 227.094Z" fill="#C3A8A8"/>
<path d="M108.728 85.639C108.617 85.098 108.089 84.7495 107.548 84.8605L98.7313 86.67C98.1903 86.781 97.8417 87.3096 97.9528 87.8506C98.0638 88.3916 98.5924 88.7402 99.1334 88.6291L106.97 87.0207L108.578 94.8574C108.689 95.3984 109.218 95.7469 109.759 95.6359C110.3 95.5249 110.649 94.9963 110.538 94.4553L108.728 85.639ZM32.4251 201.883L108.583 86.3906L106.914 85.2896L30.7554 200.782L32.4251 201.883Z" fill="#C4A8A8"/>
<path d="M267.692 130.56C267.893 130.045 267.639 129.465 267.124 129.264L258.741 125.989C258.227 125.788 257.647 126.042 257.446 126.557C257.245 127.071 257.499 127.651 258.014 127.852L265.465 130.763L262.554 138.215C262.353 138.729 262.607 139.309 263.121 139.51C263.636 139.711 264.216 139.457 264.417 138.943L267.692 130.56ZM145.786 184.289L267.162 131.112L266.359 129.28L144.984 182.457L145.786 184.289Z" fill="#C3A8A8"/>
<path d="M376.543 224.941C376.639 224.397 376.276 223.878 375.733 223.782L366.871 222.212C366.327 222.116 365.808 222.478 365.711 223.022C365.615 223.566 365.978 224.085 366.522 224.181L374.399 225.577L373.004 233.454C372.907 233.998 373.27 234.517 373.814 234.613C374.358 234.709 374.877 234.347 374.973 233.803L376.543 224.941ZM289.93 285.843L376.131 225.586L374.985 223.947L288.784 284.204L289.93 285.843Z" fill="#C3A8A8"/>
<path d="M39.254 208.675C38.8588 209.061 38.8511 209.694 39.2368 210.089L45.5227 216.53C45.9084 216.925 46.5415 216.933 46.9368 216.547C47.332 216.162 47.3398 215.528 46.954 215.133L41.3666 209.408L47.092 203.82C47.4873 203.435 47.495 202.801 47.1093 202.406C46.7235 202.011 46.0904 202.003 45.6952 202.389L39.254 208.675ZM390.406 212.665L39.9647 208.391L39.9403 210.39L390.382 214.665L390.406 212.665Z" fill="#C3A8A8"/>
<path d="M37.7208 224.714C37.2491 225.001 37.0996 225.616 37.3868 226.088L42.0679 233.775C42.3551 234.246 42.9704 234.396 43.4421 234.109C43.9138 233.822 44.0633 233.206 43.776 232.735L39.6151 225.902L46.4479 221.741C46.9196 221.454 47.0691 220.838 46.7819 220.367C46.4946 219.895 45.8794 219.745 45.4077 220.033L37.7208 224.714ZM289.914 285.704L38.4771 224.596L38.0047 226.54L289.442 287.647L289.914 285.704Z" fill="#C3A8A8"/>
<circle cx="143.849" cy="179.675" r="15.7381" fill="#C3A8A8" stroke="#C4A8A8" stroke-width="2"/>
<circle cx="279.314" cy="119.316" r="15.7381" fill="#C3A8A8" stroke="#C4A8A8" stroke-width="2"/>
<circle cx="391.459" cy="213.05" r="15.7381" fill="#C3A8A8" stroke="#C4A8A8" stroke-width="2"/>
<circle cx="287.683" cy="286.697" r="15.7381" fill="#C3A8A8" stroke="#C4A8A8" stroke-width="2"/>
<circle cx="128.671" cy="345.281" r="15.7381" fill="#31BA3E" stroke="#31BA3E" stroke-width="2"/>
<circle cx="23.2211" cy="214.723" r="15.7381" fill="#C3A8A8" stroke="#C4A8A8" stroke-width="2"/>
<circle cx="116.955" cy="70.7759" r="15.7381" fill="#C4A8A8" stroke="#C4A8A8" stroke-width="2"/>
<path d="M132.071 375.789C132.071 377.233 131.193 378.554 129.748 379.517C128.303 380.48 126.302 381.079 124.086 381.079C121.87 381.079 119.868 380.48 118.424 379.517C116.978 378.554 116.1 377.233 116.1 375.789C116.1 374.344 116.978 373.024 118.424 372.06C119.868 371.097 121.87 370.498 124.086 370.498C126.302 370.498 128.303 371.097 129.748 372.06C131.193 373.024 132.071 374.344 132.071 375.789Z" fill="#7B6C6C" stroke="#C4A8A8" stroke-width="0.2"/>
<path d="M138.54 375.789C138.54 377.795 136.438 379.462 133.789 379.462C131.14 379.462 129.037 377.795 129.037 375.789C129.037 373.782 131.14 372.115 133.789 372.115C136.438 372.115 138.54 373.782 138.54 375.789Z" fill="#7B6C6C" stroke="#C4C4C4" stroke-width="0.2"/>
<path d="M146.087 374.172C146.087 376.178 143.984 377.845 141.335 377.845C138.686 377.845 136.584 376.178 136.584 374.172C136.584 372.165 138.686 370.498 141.335 370.498C143.984 370.498 146.087 372.165 146.087 374.172Z" fill="#7B6C6C" stroke="#C4C4C4" stroke-width="0.2"/>
<circle cx="148.613" cy="371.746" r="4.48192" fill="#7B6C6C" stroke="#C4C4C4" stroke-width="0.2"/>
<path d="M151.739 374.98C150.391 374.711 149.691 374.441 149.691 373.363" stroke="black" stroke-width="0.3"/>
<path d="M121.727 378.282C121.268 380.965 120.947 383.609 121.241 386.315C121.309 386.948 121.314 387.603 121.458 388.224C121.545 388.6 121.795 389.718 121.795 389.332" stroke="#7B6C6C" stroke-linecap="round" stroke-linejoin="round"/>
<ellipse cx="122.738" cy="388.995" rx="1.34762" ry="0.808574" fill="#7B6C6C"/>
<path d="M125.366 378.821C125.601 379.897 125.891 380.96 126.107 382.04C126.24 382.707 126.202 383.396 126.276 384.069C126.354 384.786 126.342 385.827 126.646 386.435" stroke="#7B6C6C" stroke-linecap="round" stroke-linejoin="round"/>
<ellipse cx="127.59" cy="386.839" rx="1.34762" ry="0.808574" fill="#7B6C6C"/>
<path d="M132.98 378.417C133.202 379.087 133.519 379.787 133.519 380.505C133.519 380.852 133.519 381.199 133.519 381.546C133.519 382.388 133.446 383.201 133.388 384.039C133.364 384.388 133.405 384.739 133.369 385.087C133.32 385.577 133.193 386.06 133.182 386.555C133.176 386.861 133.251 387.231 133.399 387.498C133.475 387.634 133.586 388.054 133.654 387.782" stroke="#7B6C6C" stroke-linecap="round" stroke-linejoin="round"/>
<ellipse cx="134.597" cy="387.378" rx="1.34762" ry="0.808574" fill="#7B6C6C"/>
<path d="M136.163 377.945C136.342 379.022 136.656 380.136 136.485 381.247C136.355 382.096 136.251 383.009 136.044 383.837C135.89 384.452 135.961 385.115 135.961 385.746C135.961 386.116 136.089 386.6 136.433 386.772" stroke="#7B6C6C" stroke-linecap="round" stroke-linejoin="round"/>
<ellipse cx="137.292" cy="386.3" rx="1.34762" ry="0.808574" fill="#7B6C6C"/>
<path d="M141.672 377.001C141.971 377.604 142.303 378.208 142.548 378.836C142.694 379.207 142.783 379.6 142.952 379.962C143.243 380.585 143.391 381.262 143.66 381.89C144.015 382.718 144.04 383.624 144.435 384.413" stroke="#7B6C6C" stroke-linecap="round" stroke-linejoin="round"/>
<ellipse cx="145.378" cy="384.144" rx="1.34762" ry="0.808574" fill="#7B6C6C"/>
<path d="M144.031 376.328C144.626 377.866 145.845 379.092 146.307 380.707C146.473 381.29 146.779 381.817 146.943 382.392C147.021 382.666 147.233 382.91 147.265 383.201C147.271 383.26 147.336 383.315 147.366 383.369C147.447 383.516 147.4 383.187 147.4 383.133" stroke="#7B6C6C" stroke-linecap="round" stroke-linejoin="round"/>
<ellipse cx="148.276" cy="383.066" rx="1.34762" ry="0.808574" fill="#7B6C6C"/>
<path d="M148.862 368.242C148.992 365.404 148.527 364.173 146.187 362.986" stroke="#7B6C6C"/>
<path d="M151.038 368.242C151.169 365.227 150.701 363.919 148.343 362.657" stroke="#7B6C6C"/>
<ellipse cx="148.612" cy="362.493" rx="0.808574" ry="0.492786" fill="#C4C4C4"/>
<ellipse cx="145.917" cy="362.821" rx="0.808574" ry="0.492786" fill="#C4C4C4"/>
<circle cx="150.499" cy="370.398" r="1.0281" fill="#C4C4C4" stroke="black" stroke-width="0.1"/>
<g filter="url(#filter0_f)">
<path d="M127.975 371.535C125.848 370.743 124.366 370.834 121.808 371.254C121.567 371.294 121.391 371.503 121.391 371.747V372.412C121.391 372.711 121.651 372.942 121.949 372.913C124.048 372.708 125.383 372.818 127.316 373.46C127.588 373.55 127.884 373.403 127.966 373.129L128.267 372.136C128.341 371.889 128.216 371.625 127.975 371.535Z" fill="#C9D1D9"/>
</g>
<g filter="url(#filter1_f)">
<path d="M134.56 372.681C133.202 372.464 132.314 372.624 130.999 373.333C130.792 373.444 130.698 373.687 130.768 373.91L130.877 374.259C130.968 374.552 131.297 374.692 131.578 374.57C132.578 374.134 133.333 373.987 134.41 374.077C134.721 374.103 134.994 373.858 134.982 373.546L134.965 373.145C134.956 372.914 134.789 372.717 134.56 372.681Z" fill="#C9D1D9"/>
</g>
<g filter="url(#filter2_f)">
<path d="M141.471 371.083C140.079 371.107 139.221 371.422 138.026 372.355C137.841 372.499 137.788 372.755 137.895 372.964L138.062 373.29C138.201 373.562 138.549 373.645 138.804 373.477C139.736 372.865 140.467 372.587 141.565 372.487C141.874 372.458 142.1 372.172 142.036 371.869L141.952 371.473C141.904 371.245 141.704 371.079 141.471 371.083Z" fill="#C9D1D9"/>
</g>
<circle cx="150.661" cy="370.398" r="0.53905" fill="black"/>
<defs>
<filter id="filter0_f" x="117.391" y="366.937" width="14.8976" height="10.5495" filterUnits="userSpaceOnUse" color-interpolation-filters="sRGB">
<feFlood flood-opacity="0" result="BackgroundImageFix"/>
<feBlend mode="normal" in="SourceGraphic" in2="BackgroundImageFix" result="shape"/>
<feGaussianBlur stdDeviation="2" result="effect1_foregroundBlur"/>
</filter>
<filter id="filter1_f" x="126.745" y="368.591" width="12.237" height="10.0233" filterUnits="userSpaceOnUse" color-interpolation-filters="sRGB">
<feFlood flood-opacity="0" result="BackgroundImageFix"/>
<feBlend mode="normal" in="SourceGraphic" in2="BackgroundImageFix" result="shape"/>
<feGaussianBlur stdDeviation="2" result="effect1_foregroundBlur"/>
</filter>
<filter id="filter2_f" x="133.84" y="367.083" width="12.206" height="10.4804" filterUnits="userSpaceOnUse" color-interpolation-filters="sRGB">
<feFlood flood-opacity="0" result="BackgroundImageFix"/>
<feBlend mode="normal" in="SourceGraphic" in2="BackgroundImageFix" result="shape"/>
<feGaussianBlur stdDeviation="2" result="effect1_foregroundBlur"/>
</filter>
</defs>
</svg>
