<svg width="186" height="14" viewBox="0 0 186 14" fill="none" xmlns="http://www.w3.org/2000/svg">
<path d="M10.1562 1.7207H6.37695V13H4.61914V1.7207H0.839844V0.236328H10.1562V1.7207ZM16.4941 3.01953C16.696 3.01953 16.888 3.06185 17.0703 3.14648C17.2526 3.22461 17.4121 3.33203 17.5488 3.46875C17.6855 3.60547 17.793 3.76497 17.8711 3.94727C17.9557 4.12956 17.998 4.32161 17.998 4.52344C17.998 4.73177 17.9557 4.92708 17.8711 5.10938C17.793 5.28516 17.6855 5.44141 17.5488 5.57812C17.4121 5.71484 17.2526 5.82227 17.0703 5.90039C16.888 5.97852 16.696 6.01758 16.4941 6.01758C16.2858 6.01758 16.0905 5.97852 15.9082 5.90039C15.7324 5.82227 15.5762 5.71484 15.4395 5.57812C15.3027 5.44141 15.1953 5.28516 15.1172 5.10938C15.0391 4.92708 15 4.73177 15 4.52344C15 4.32161 15.0391 4.12956 15.1172 3.94727C15.1953 3.76497 15.3027 3.60547 15.4395 3.46875C15.5762 3.33203 15.7324 3.22461 15.9082 3.14648C16.0905 3.06185 16.2858 3.01953 16.4941 3.01953ZM16.4941 10.1777C16.696 10.1777 16.888 10.2201 17.0703 10.3047C17.2526 10.3828 17.4121 10.4902 17.5488 10.627C17.6855 10.7637 17.793 10.9232 17.8711 11.1055C17.9557 11.2878 17.998 11.4798 17.998 11.6816C17.998 11.89 17.9557 12.0853 17.8711 12.2676C17.793 12.4434 17.6855 12.5996 17.5488 12.7363C17.4121 12.873 17.2526 12.9805 17.0703 13.0586C16.888 13.1367 16.696 13.1758 16.4941 13.1758C16.2858 13.1758 16.0905 13.1367 15.9082 13.0586C15.7324 12.9805 15.5762 12.873 15.4395 12.7363C15.3027 12.5996 15.1953 12.4434 15.1172 12.2676C15.0391 12.0853 15 11.89 15 11.6816C15 11.4798 15.0391 11.2878 15.1172 11.1055C15.1953 10.9232 15.3027 10.7637 15.4395 10.627C15.5762 10.4902 15.7324 10.3828 15.9082 10.3047C16.0905 10.2201 16.2858 10.1777 16.4941 10.1777ZM53.8086 2.42383C53.3333 2.16992 52.8451 1.97461 52.3438 1.83789C51.8424 1.69466 51.2956 1.62305 50.7031 1.62305C50.026 1.62305 49.4238 1.74349 48.8965 1.98438C48.3691 2.22526 47.9232 2.56706 47.5586 3.00977C47.2005 3.44596 46.9238 3.97331 46.7285 4.5918C46.5397 5.21029 46.4453 5.89388 46.4453 6.64258C46.4453 7.42383 46.5234 8.1237 46.6797 8.74219C46.8359 9.36068 47.0801 9.88477 47.4121 10.3145C47.7441 10.7441 48.1673 11.0729 48.6816 11.3008C49.2025 11.5286 49.8242 11.6426 50.5469 11.6426C50.6706 11.6426 50.804 11.6361 50.9473 11.623C51.0905 11.61 51.2337 11.5938 51.377 11.5742C51.5202 11.5482 51.6569 11.5189 51.7871 11.4863C51.9238 11.4538 52.0443 11.418 52.1484 11.3789V7.31641H49.541V5.88086H53.8672V12.4043C53.6003 12.528 53.3171 12.6387 53.0176 12.7363C52.7246 12.834 52.4219 12.9154 52.1094 12.9805C51.8034 13.0456 51.4974 13.0944 51.1914 13.127C50.8854 13.1595 50.5892 13.1758 50.3027 13.1758C49.4303 13.1758 48.6426 13.0391 47.9395 12.7656C47.2428 12.4922 46.6471 12.0885 46.1523 11.5547C45.6641 11.0143 45.2865 10.3438 45.0195 9.54297C44.7591 8.74219 44.6289 7.81445 44.6289 6.75977C44.6289 5.71159 44.7754 4.77409 45.0684 3.94727C45.3613 3.11393 45.7715 2.41081 46.2988 1.83789C46.8327 1.25846 47.4707 0.81901 48.2129 0.519531C48.9616 0.213542 49.7852 0.0605469 50.6836 0.0605469C51.2565 0.0605469 51.8001 0.11263 52.3145 0.216797C52.8353 0.314453 53.3333 0.473958 53.8086 0.695312V2.42383ZM65.1367 1.7207H61.3574V13H59.5996V1.7207H55.8203V0.236328H65.1367V1.7207ZM75.8008 2.42383C75.3255 2.16992 74.8372 1.97461 74.3359 1.83789C73.8346 1.69466 73.2878 1.62305 72.6953 1.62305C72.0182 1.62305 71.416 1.74349 70.8887 1.98438C70.3613 2.22526 69.9154 2.56706 69.5508 3.00977C69.1927 3.44596 68.916 3.97331 68.7207 4.5918C68.5319 5.21029 68.4375 5.89388 68.4375 6.64258C68.4375 7.42383 68.5156 8.1237 68.6719 8.74219C68.8281 9.36068 69.0723 9.88477 69.4043 10.3145C69.7363 10.7441 70.1595 11.0729 70.6738 11.3008C71.1947 11.5286 71.8164 11.6426 72.5391 11.6426C72.6628 11.6426 72.7962 11.6361 72.9395 11.623C73.0827 11.61 73.2259 11.5938 73.3691 11.5742C73.5124 11.5482 73.6491 11.5189 73.7793 11.4863C73.916 11.4538 74.0365 11.418 74.1406 11.3789V7.31641H71.5332V5.88086H75.8594V12.4043C75.5924 12.528 75.3092 12.6387 75.0098 12.7363C74.7168 12.834 74.4141 12.9154 74.1016 12.9805C73.7956 13.0456 73.4896 13.0944 73.1836 13.127C72.8776 13.1595 72.5814 13.1758 72.2949 13.1758C71.4225 13.1758 70.6348 13.0391 69.9316 12.7656C69.235 12.4922 68.6393 12.0885 68.1445 11.5547C67.6562 11.0143 67.2786 10.3438 67.0117 9.54297C66.7513 8.74219 66.6211 7.81445 66.6211 6.75977C66.6211 5.71159 66.7676 4.77409 67.0605 3.94727C67.3535 3.11393 67.7637 2.41081 68.291 1.83789C68.8249 1.25846 69.4629 0.81901 70.2051 0.519531C70.9538 0.213542 71.7773 0.0605469 72.6758 0.0605469C73.2487 0.0605469 73.7923 0.11263 74.3066 0.216797C74.8275 0.314453 75.3255 0.473958 75.8008 0.695312V2.42383ZM86.6895 12.5215C85.6673 12.9447 84.5964 13.1562 83.4766 13.1562C81.6732 13.1562 80.2865 12.6191 79.3164 11.5449C78.3529 10.4642 77.8711 8.86914 77.8711 6.75977C77.8711 5.73763 78.0046 4.81315 78.2715 3.98633C78.5384 3.15951 78.9193 2.45964 79.4141 1.88672C79.9089 1.30729 80.5078 0.861328 81.2109 0.548828C81.9141 0.236328 82.7018 0.0800781 83.5742 0.0800781C84.1667 0.0800781 84.7168 0.132161 85.2246 0.236328C85.7324 0.333984 86.2207 0.486979 86.6895 0.695312V2.4043C86.2272 2.15039 85.7487 1.95833 85.2539 1.82812C84.7591 1.69141 84.2188 1.62305 83.6328 1.62305C83.0339 1.62305 82.4902 1.73698 82.002 1.96484C81.5202 2.1862 81.11 2.51172 80.7715 2.94141C80.4329 3.36458 80.1725 3.88542 79.9902 4.50391C79.8079 5.11589 79.7168 5.81576 79.7168 6.60352C79.7168 8.25716 80.0521 9.50391 80.7227 10.3438C81.3932 11.1836 82.3763 11.6035 83.6719 11.6035C84.2188 11.6035 84.7428 11.5417 85.2441 11.418C85.7454 11.2878 86.2272 11.1087 86.6895 10.8809V12.5215ZM97.793 2.42383C97.3177 2.16992 96.8294 1.97461 96.3281 1.83789C95.8268 1.69466 95.2799 1.62305 94.6875 1.62305C94.0104 1.62305 93.4082 1.74349 92.8809 1.98438C92.3535 2.22526 91.9076 2.56706 91.543 3.00977C91.1849 3.44596 90.9082 3.97331 90.7129 4.5918C90.5241 5.21029 90.4297 5.89388 90.4297 6.64258C90.4297 7.42383 90.5078 8.1237 90.6641 8.74219C90.8203 9.36068 91.0645 9.88477 91.3965 10.3145C91.7285 10.7441 92.1517 11.0729 92.666 11.3008C93.1868 11.5286 93.8086 11.6426 94.5312 11.6426C94.6549 11.6426 94.7884 11.6361 94.9316 11.623C95.0749 11.61 95.2181 11.5938 95.3613 11.5742C95.5046 11.5482 95.6413 11.5189 95.7715 11.4863C95.9082 11.4538 96.0286 11.418 96.1328 11.3789V7.31641H93.5254V5.88086H97.8516V12.4043C97.5846 12.528 97.3014 12.6387 97.002 12.7363C96.709 12.834 96.4062 12.9154 96.0938 12.9805C95.7878 13.0456 95.4818 13.0944 95.1758 13.127C94.8698 13.1595 94.5736 13.1758 94.2871 13.1758C93.4147 13.1758 92.627 13.0391 91.9238 12.7656C91.2272 12.4922 90.6315 12.0885 90.1367 11.5547C89.6484 11.0143 89.2708 10.3438 89.0039 9.54297C88.7435 8.74219 88.6133 7.81445 88.6133 6.75977C88.6133 5.71159 88.7598 4.77409 89.0527 3.94727C89.3457 3.11393 89.7559 2.41081 90.2832 1.83789C90.8171 1.25846 91.4551 0.81901 92.1973 0.519531C92.946 0.213542 93.7695 0.0605469 94.668 0.0605469C95.2409 0.0605469 95.7845 0.11263 96.2988 0.216797C96.8197 0.314453 97.3177 0.473958 97.793 0.695312V2.42383ZM109.121 1.7207H105.342V13H103.584V1.7207H99.8047V0.236328H109.121V1.7207ZM119.785 2.42383C119.31 2.16992 118.822 1.97461 118.32 1.83789C117.819 1.69466 117.272 1.62305 116.68 1.62305C116.003 1.62305 115.4 1.74349 114.873 1.98438C114.346 2.22526 113.9 2.56706 113.535 3.00977C113.177 3.44596 112.9 3.97331 112.705 4.5918C112.516 5.21029 112.422 5.89388 112.422 6.64258C112.422 7.42383 112.5 8.1237 112.656 8.74219C112.812 9.36068 113.057 9.88477 113.389 10.3145C113.721 10.7441 114.144 11.0729 114.658 11.3008C115.179 11.5286 115.801 11.6426 116.523 11.6426C116.647 11.6426 116.781 11.6361 116.924 11.623C117.067 11.61 117.21 11.5938 117.354 11.5742C117.497 11.5482 117.633 11.5189 117.764 11.4863C117.9 11.4538 118.021 11.418 118.125 11.3789V7.31641H115.518V5.88086H119.844V12.4043C119.577 12.528 119.294 12.6387 118.994 12.7363C118.701 12.834 118.398 12.9154 118.086 12.9805C117.78 13.0456 117.474 13.0944 117.168 13.127C116.862 13.1595 116.566 13.1758 116.279 13.1758C115.407 13.1758 114.619 13.0391 113.916 12.7656C113.219 12.4922 112.624 12.0885 112.129 11.5547C111.641 11.0143 111.263 10.3438 110.996 9.54297C110.736 8.74219 110.605 7.81445 110.605 6.75977C110.605 5.71159 110.752 4.77409 111.045 3.94727C111.338 3.11393 111.748 2.41081 112.275 1.83789C112.809 1.25846 113.447 0.81901 114.189 0.519531C114.938 0.213542 115.762 0.0605469 116.66 0.0605469C117.233 0.0605469 117.777 0.11263 118.291 0.216797C118.812 0.314453 119.31 0.473958 119.785 0.695312V2.42383ZM131.113 1.7207H127.334V13H125.576V1.7207H121.797V0.236328H131.113V1.7207ZM141.777 2.42383C141.302 2.16992 140.814 1.97461 140.312 1.83789C139.811 1.69466 139.264 1.62305 138.672 1.62305C137.995 1.62305 137.393 1.74349 136.865 1.98438C136.338 2.22526 135.892 2.56706 135.527 3.00977C135.169 3.44596 134.893 3.97331 134.697 4.5918C134.508 5.21029 134.414 5.89388 134.414 6.64258C134.414 7.42383 134.492 8.1237 134.648 8.74219C134.805 9.36068 135.049 9.88477 135.381 10.3145C135.713 10.7441 136.136 11.0729 136.65 11.3008C137.171 11.5286 137.793 11.6426 138.516 11.6426C138.639 11.6426 138.773 11.6361 138.916 11.623C139.059 11.61 139.202 11.5938 139.346 11.5742C139.489 11.5482 139.626 11.5189 139.756 11.4863C139.893 11.4538 140.013 11.418 140.117 11.3789V7.31641H137.51V5.88086H141.836V12.4043C141.569 12.528 141.286 12.6387 140.986 12.7363C140.693 12.834 140.391 12.9154 140.078 12.9805C139.772 13.0456 139.466 13.0944 139.16 13.127C138.854 13.1595 138.558 13.1758 138.271 13.1758C137.399 13.1758 136.611 13.0391 135.908 12.7656C135.212 12.4922 134.616 12.0885 134.121 11.5547C133.633 11.0143 133.255 10.3438 132.988 9.54297C132.728 8.74219 132.598 7.81445 132.598 6.75977C132.598 5.71159 132.744 4.77409 133.037 3.94727C133.33 3.11393 133.74 2.41081 134.268 1.83789C134.801 1.25846 135.439 0.81901 136.182 0.519531C136.93 0.213542 137.754 0.0605469 138.652 0.0605469C139.225 0.0605469 139.769 0.11263 140.283 0.216797C140.804 0.314453 141.302 0.473958 141.777 0.695312V2.42383ZM152.773 2.42383C152.298 2.16992 151.81 1.97461 151.309 1.83789C150.807 1.69466 150.26 1.62305 149.668 1.62305C148.991 1.62305 148.389 1.74349 147.861 1.98438C147.334 2.22526 146.888 2.56706 146.523 3.00977C146.165 3.44596 145.889 3.97331 145.693 4.5918C145.505 5.21029 145.41 5.89388 145.41 6.64258C145.41 7.42383 145.488 8.1237 145.645 8.74219C145.801 9.36068 146.045 9.88477 146.377 10.3145C146.709 10.7441 147.132 11.0729 147.646 11.3008C148.167 11.5286 148.789 11.6426 149.512 11.6426C149.635 11.6426 149.769 11.6361 149.912 11.623C150.055 11.61 150.199 11.5938 150.342 11.5742C150.485 11.5482 150.622 11.5189 150.752 11.4863C150.889 11.4538 151.009 11.418 151.113 11.3789V7.31641H148.506V5.88086H152.832V12.4043C152.565 12.528 152.282 12.6387 151.982 12.7363C151.689 12.834 151.387 12.9154 151.074 12.9805C150.768 13.0456 150.462 13.0944 150.156 13.127C149.85 13.1595 149.554 13.1758 149.268 13.1758C148.395 13.1758 147.607 13.0391 146.904 12.7656C146.208 12.4922 145.612 12.0885 145.117 11.5547C144.629 11.0143 144.251 10.3438 143.984 9.54297C143.724 8.74219 143.594 7.81445 143.594 6.75977C143.594 5.71159 143.74 4.77409 144.033 3.94727C144.326 3.11393 144.736 2.41081 145.264 1.83789C145.798 1.25846 146.436 0.81901 147.178 0.519531C147.926 0.213542 148.75 0.0605469 149.648 0.0605469C150.221 0.0605469 150.765 0.11263 151.279 0.216797C151.8 0.314453 152.298 0.473958 152.773 0.695312V2.42383ZM163.77 2.42383C163.294 2.16992 162.806 1.97461 162.305 1.83789C161.803 1.69466 161.257 1.62305 160.664 1.62305C159.987 1.62305 159.385 1.74349 158.857 1.98438C158.33 2.22526 157.884 2.56706 157.52 3.00977C157.161 3.44596 156.885 3.97331 156.689 4.5918C156.501 5.21029 156.406 5.89388 156.406 6.64258C156.406 7.42383 156.484 8.1237 156.641 8.74219C156.797 9.36068 157.041 9.88477 157.373 10.3145C157.705 10.7441 158.128 11.0729 158.643 11.3008C159.163 11.5286 159.785 11.6426 160.508 11.6426C160.632 11.6426 160.765 11.6361 160.908 11.623C161.051 11.61 161.195 11.5938 161.338 11.5742C161.481 11.5482 161.618 11.5189 161.748 11.4863C161.885 11.4538 162.005 11.418 162.109 11.3789V7.31641H159.502V5.88086H163.828V12.4043C163.561 12.528 163.278 12.6387 162.979 12.7363C162.686 12.834 162.383 12.9154 162.07 12.9805C161.764 13.0456 161.458 13.0944 161.152 13.127C160.846 13.1595 160.55 13.1758 160.264 13.1758C159.391 13.1758 158.604 13.0391 157.9 12.7656C157.204 12.4922 156.608 12.0885 156.113 11.5547C155.625 11.0143 155.247 10.3438 154.98 9.54297C154.72 8.74219 154.59 7.81445 154.59 6.75977C154.59 5.71159 154.736 4.77409 155.029 3.94727C155.322 3.11393 155.732 2.41081 156.26 1.83789C156.794 1.25846 157.432 0.81901 158.174 0.519531C158.923 0.213542 159.746 0.0605469 160.645 0.0605469C161.217 0.0605469 161.761 0.11263 162.275 0.216797C162.796 0.314453 163.294 0.473958 163.77 0.695312V2.42383ZM174.766 2.42383C174.29 2.16992 173.802 1.97461 173.301 1.83789C172.799 1.69466 172.253 1.62305 171.66 1.62305C170.983 1.62305 170.381 1.74349 169.854 1.98438C169.326 2.22526 168.88 2.56706 168.516 3.00977C168.158 3.44596 167.881 3.97331 167.686 4.5918C167.497 5.21029 167.402 5.89388 167.402 6.64258C167.402 7.42383 167.48 8.1237 167.637 8.74219C167.793 9.36068 168.037 9.88477 168.369 10.3145C168.701 10.7441 169.124 11.0729 169.639 11.3008C170.16 11.5286 170.781 11.6426 171.504 11.6426C171.628 11.6426 171.761 11.6361 171.904 11.623C172.048 11.61 172.191 11.5938 172.334 11.5742C172.477 11.5482 172.614 11.5189 172.744 11.4863C172.881 11.4538 173.001 11.418 173.105 11.3789V7.31641H170.498V5.88086H174.824V12.4043C174.557 12.528 174.274 12.6387 173.975 12.7363C173.682 12.834 173.379 12.9154 173.066 12.9805C172.76 13.0456 172.454 13.0944 172.148 13.127C171.842 13.1595 171.546 13.1758 171.26 13.1758C170.387 13.1758 169.6 13.0391 168.896 12.7656C168.2 12.4922 167.604 12.0885 167.109 11.5547C166.621 11.0143 166.243 10.3438 165.977 9.54297C165.716 8.74219 165.586 7.81445 165.586 6.75977C165.586 5.71159 165.732 4.77409 166.025 3.94727C166.318 3.11393 166.729 2.41081 167.256 1.83789C167.79 1.25846 168.428 0.81901 169.17 0.519531C169.919 0.213542 170.742 0.0605469 171.641 0.0605469C172.214 0.0605469 172.757 0.11263 173.271 0.216797C173.792 0.314453 174.29 0.473958 174.766 0.695312V2.42383ZM185.762 2.42383C185.286 2.16992 184.798 1.97461 184.297 1.83789C183.796 1.69466 183.249 1.62305 182.656 1.62305C181.979 1.62305 181.377 1.74349 180.85 1.98438C180.322 2.22526 179.876 2.56706 179.512 3.00977C179.154 3.44596 178.877 3.97331 178.682 4.5918C178.493 5.21029 178.398 5.89388 178.398 6.64258C178.398 7.42383 178.477 8.1237 178.633 8.74219C178.789 9.36068 179.033 9.88477 179.365 10.3145C179.697 10.7441 180.12 11.0729 180.635 11.3008C181.156 11.5286 181.777 11.6426 182.5 11.6426C182.624 11.6426 182.757 11.6361 182.9 11.623C183.044 11.61 183.187 11.5938 183.33 11.5742C183.473 11.5482 183.61 11.5189 183.74 11.4863C183.877 11.4538 183.997 11.418 184.102 11.3789V7.31641H181.494V5.88086H185.82V12.4043C185.553 12.528 185.27 12.6387 184.971 12.7363C184.678 12.834 184.375 12.9154 184.062 12.9805C183.757 13.0456 183.451 13.0944 183.145 13.127C182.839 13.1595 182.542 13.1758 182.256 13.1758C181.383 13.1758 180.596 13.0391 179.893 12.7656C179.196 12.4922 178.6 12.0885 178.105 11.5547C177.617 11.0143 177.24 10.3438 176.973 9.54297C176.712 8.74219 176.582 7.81445 176.582 6.75977C176.582 5.71159 176.729 4.77409 177.021 3.94727C177.314 3.11393 177.725 2.41081 178.252 1.83789C178.786 1.25846 179.424 0.81901 180.166 0.519531C180.915 0.213542 181.738 0.0605469 182.637 0.0605469C183.21 0.0605469 183.753 0.11263 184.268 0.216797C184.788 0.314453 185.286 0.473958 185.762 0.695312V2.42383Z" fill="#C9D1D9"/>
</svg>
