<svg width="194" height="25" viewBox="0 0 194 25" fill="none" xmlns="http://www.w3.org/2000/svg">
<g filter="url(#filter0_d)">
<path d="M14.1562 4.7207H10.377V16H8.61914V4.7207H4.83984V3.23633H14.1562V4.7207ZM20.4941 6.01953C20.696 6.01953 20.888 6.06185 21.0703 6.14648C21.2526 6.22461 21.4121 6.33203 21.5488 6.46875C21.6855 6.60547 21.793 6.76497 21.8711 6.94727C21.9557 7.12956 21.998 7.32161 21.998 7.52344C21.998 7.73177 21.9557 7.92708 21.8711 8.10938C21.793 8.28516 21.6855 8.44141 21.5488 8.57812C21.4121 8.71484 21.2526 8.82227 21.0703 8.90039C20.888 8.97852 20.696 9.01758 20.4941 9.01758C20.2858 9.01758 20.0905 8.97852 19.9082 8.90039C19.7324 8.82227 19.5762 8.71484 19.4395 8.57812C19.3027 8.44141 19.1953 8.28516 19.1172 8.10938C19.0391 7.92708 19 7.73177 19 7.52344C19 7.32161 19.0391 7.12956 19.1172 6.94727C19.1953 6.76497 19.3027 6.60547 19.4395 6.46875C19.5762 6.33203 19.7324 6.22461 19.9082 6.14648C20.0905 6.06185 20.2858 6.01953 20.4941 6.01953ZM20.4941 13.1777C20.696 13.1777 20.888 13.2201 21.0703 13.3047C21.2526 13.3828 21.4121 13.4902 21.5488 13.627C21.6855 13.7637 21.793 13.9232 21.8711 14.1055C21.9557 14.2878 21.998 14.4798 21.998 14.6816C21.998 14.89 21.9557 15.0853 21.8711 15.2676C21.793 15.4434 21.6855 15.5996 21.5488 15.7363C21.4121 15.873 21.2526 15.9805 21.0703 16.0586C20.888 16.1367 20.696 16.1758 20.4941 16.1758C20.2858 16.1758 20.0905 16.1367 19.9082 16.0586C19.7324 15.9805 19.5762 15.873 19.4395 15.7363C19.3027 15.5996 19.1953 15.4434 19.1172 15.2676C19.0391 15.0853 19 14.89 19 14.6816C19 14.4798 19.0391 14.2878 19.1172 14.1055C19.1953 13.9232 19.3027 13.7637 19.4395 13.627C19.5762 13.4902 19.7324 13.3828 19.9082 13.3047C20.0905 13.2201 20.2858 13.1777 20.4941 13.1777ZM57.8086 5.42383C57.3333 5.16992 56.8451 4.97461 56.3438 4.83789C55.8424 4.69466 55.2956 4.62305 54.7031 4.62305C54.026 4.62305 53.4238 4.74349 52.8965 4.98438C52.3691 5.22526 51.9232 5.56706 51.5586 6.00977C51.2005 6.44596 50.9238 6.97331 50.7285 7.5918C50.5397 8.21029 50.4453 8.89388 50.4453 9.64258C50.4453 10.4238 50.5234 11.1237 50.6797 11.7422C50.8359 12.3607 51.0801 12.8848 51.4121 13.3145C51.7441 13.7441 52.1673 14.0729 52.6816 14.3008C53.2025 14.5286 53.8242 14.6426 54.5469 14.6426C54.6706 14.6426 54.804 14.6361 54.9473 14.623C55.0905 14.61 55.2337 14.5938 55.377 14.5742C55.5202 14.5482 55.6569 14.5189 55.7871 14.4863C55.9238 14.4538 56.0443 14.418 56.1484 14.3789V10.3164H53.541V8.88086H57.8672V15.4043C57.6003 15.528 57.3171 15.6387 57.0176 15.7363C56.7246 15.834 56.4219 15.9154 56.1094 15.9805C55.8034 16.0456 55.4974 16.0944 55.1914 16.127C54.8854 16.1595 54.5892 16.1758 54.3027 16.1758C53.4303 16.1758 52.6426 16.0391 51.9395 15.7656C51.2428 15.4922 50.6471 15.0885 50.1523 14.5547C49.6641 14.0143 49.2865 13.3438 49.0195 12.543C48.7591 11.7422 48.6289 10.8145 48.6289 9.75977C48.6289 8.71159 48.7754 7.77409 49.0684 6.94727C49.3613 6.11393 49.7715 5.41081 50.2988 4.83789C50.8327 4.25846 51.4707 3.81901 52.2129 3.51953C52.9616 3.21354 53.7852 3.06055 54.6836 3.06055C55.2565 3.06055 55.8001 3.11263 56.3145 3.2168C56.8353 3.31445 57.3333 3.47396 57.8086 3.69531V5.42383ZM69.1367 4.7207H65.3574V16H63.5996V4.7207H59.8203V3.23633H69.1367V4.7207ZM79.8008 5.42383C79.3255 5.16992 78.8372 4.97461 78.3359 4.83789C77.8346 4.69466 77.2878 4.62305 76.6953 4.62305C76.0182 4.62305 75.416 4.74349 74.8887 4.98438C74.3613 5.22526 73.9154 5.56706 73.5508 6.00977C73.1927 6.44596 72.916 6.97331 72.7207 7.5918C72.5319 8.21029 72.4375 8.89388 72.4375 9.64258C72.4375 10.4238 72.5156 11.1237 72.6719 11.7422C72.8281 12.3607 73.0723 12.8848 73.4043 13.3145C73.7363 13.7441 74.1595 14.0729 74.6738 14.3008C75.1947 14.5286 75.8164 14.6426 76.5391 14.6426C76.6628 14.6426 76.7962 14.6361 76.9395 14.623C77.0827 14.61 77.2259 14.5938 77.3691 14.5742C77.5124 14.5482 77.6491 14.5189 77.7793 14.4863C77.916 14.4538 78.0365 14.418 78.1406 14.3789V10.3164H75.5332V8.88086H79.8594V15.4043C79.5924 15.528 79.3092 15.6387 79.0098 15.7363C78.7168 15.834 78.4141 15.9154 78.1016 15.9805C77.7956 16.0456 77.4896 16.0944 77.1836 16.127C76.8776 16.1595 76.5814 16.1758 76.2949 16.1758C75.4225 16.1758 74.6348 16.0391 73.9316 15.7656C73.235 15.4922 72.6393 15.0885 72.1445 14.5547C71.6562 14.0143 71.2786 13.3438 71.0117 12.543C70.7513 11.7422 70.6211 10.8145 70.6211 9.75977C70.6211 8.71159 70.7676 7.77409 71.0605 6.94727C71.3535 6.11393 71.7637 5.41081 72.291 4.83789C72.8249 4.25846 73.4629 3.81901 74.2051 3.51953C74.9538 3.21354 75.7773 3.06055 76.6758 3.06055C77.2487 3.06055 77.7923 3.11263 78.3066 3.2168C78.8275 3.31445 79.3255 3.47396 79.8008 3.69531V5.42383ZM90.6895 15.5215C89.6673 15.9447 88.5964 16.1562 87.4766 16.1562C85.6732 16.1562 84.2865 15.6191 83.3164 14.5449C82.3529 13.4642 81.8711 11.8691 81.8711 9.75977C81.8711 8.73763 82.0046 7.81315 82.2715 6.98633C82.5384 6.15951 82.9193 5.45964 83.4141 4.88672C83.9089 4.30729 84.5078 3.86133 85.2109 3.54883C85.9141 3.23633 86.7018 3.08008 87.5742 3.08008C88.1667 3.08008 88.7168 3.13216 89.2246 3.23633C89.7324 3.33398 90.2207 3.48698 90.6895 3.69531V5.4043C90.2272 5.15039 89.7487 4.95833 89.2539 4.82812C88.7591 4.69141 88.2188 4.62305 87.6328 4.62305C87.0339 4.62305 86.4902 4.73698 86.002 4.96484C85.5202 5.1862 85.11 5.51172 84.7715 5.94141C84.4329 6.36458 84.1725 6.88542 83.9902 7.50391C83.8079 8.11589 83.7168 8.81576 83.7168 9.60352C83.7168 11.2572 84.0521 12.5039 84.7227 13.3438C85.3932 14.1836 86.3763 14.6035 87.6719 14.6035C88.2188 14.6035 88.7428 14.5417 89.2441 14.418C89.7454 14.2878 90.2272 14.1087 90.6895 13.8809V15.5215ZM101.793 5.42383C101.318 5.16992 100.829 4.97461 100.328 4.83789C99.8268 4.69466 99.2799 4.62305 98.6875 4.62305C98.0104 4.62305 97.4082 4.74349 96.8809 4.98438C96.3535 5.22526 95.9076 5.56706 95.543 6.00977C95.1849 6.44596 94.9082 6.97331 94.7129 7.5918C94.5241 8.21029 94.4297 8.89388 94.4297 9.64258C94.4297 10.4238 94.5078 11.1237 94.6641 11.7422C94.8203 12.3607 95.0645 12.8848 95.3965 13.3145C95.7285 13.7441 96.1517 14.0729 96.666 14.3008C97.1868 14.5286 97.8086 14.6426 98.5312 14.6426C98.6549 14.6426 98.7884 14.6361 98.9316 14.623C99.0749 14.61 99.2181 14.5938 99.3613 14.5742C99.5046 14.5482 99.6413 14.5189 99.7715 14.4863C99.9082 14.4538 100.029 14.418 100.133 14.3789V10.3164H97.5254V8.88086H101.852V15.4043C101.585 15.528 101.301 15.6387 101.002 15.7363C100.709 15.834 100.406 15.9154 100.094 15.9805C99.7878 16.0456 99.4818 16.0944 99.1758 16.127C98.8698 16.1595 98.5736 16.1758 98.2871 16.1758C97.4147 16.1758 96.627 16.0391 95.9238 15.7656C95.2272 15.4922 94.6315 15.0885 94.1367 14.5547C93.6484 14.0143 93.2708 13.3438 93.0039 12.543C92.7435 11.7422 92.6133 10.8145 92.6133 9.75977C92.6133 8.71159 92.7598 7.77409 93.0527 6.94727C93.3457 6.11393 93.7559 5.41081 94.2832 4.83789C94.8171 4.25846 95.4551 3.81901 96.1973 3.51953C96.946 3.21354 97.7695 3.06055 98.668 3.06055C99.2409 3.06055 99.7845 3.11263 100.299 3.2168C100.82 3.31445 101.318 3.47396 101.793 3.69531V5.42383ZM113.121 4.7207H109.342V16H107.584V4.7207H103.805V3.23633H113.121V4.7207ZM123.785 5.42383C123.31 5.16992 122.822 4.97461 122.32 4.83789C121.819 4.69466 121.272 4.62305 120.68 4.62305C120.003 4.62305 119.4 4.74349 118.873 4.98438C118.346 5.22526 117.9 5.56706 117.535 6.00977C117.177 6.44596 116.9 6.97331 116.705 7.5918C116.516 8.21029 116.422 8.89388 116.422 9.64258C116.422 10.4238 116.5 11.1237 116.656 11.7422C116.812 12.3607 117.057 12.8848 117.389 13.3145C117.721 13.7441 118.144 14.0729 118.658 14.3008C119.179 14.5286 119.801 14.6426 120.523 14.6426C120.647 14.6426 120.781 14.6361 120.924 14.623C121.067 14.61 121.21 14.5938 121.354 14.5742C121.497 14.5482 121.633 14.5189 121.764 14.4863C121.9 14.4538 122.021 14.418 122.125 14.3789V10.3164H119.518V8.88086H123.844V15.4043C123.577 15.528 123.294 15.6387 122.994 15.7363C122.701 15.834 122.398 15.9154 122.086 15.9805C121.78 16.0456 121.474 16.0944 121.168 16.127C120.862 16.1595 120.566 16.1758 120.279 16.1758C119.407 16.1758 118.619 16.0391 117.916 15.7656C117.219 15.4922 116.624 15.0885 116.129 14.5547C115.641 14.0143 115.263 13.3438 114.996 12.543C114.736 11.7422 114.605 10.8145 114.605 9.75977C114.605 8.71159 114.752 7.77409 115.045 6.94727C115.338 6.11393 115.748 5.41081 116.275 4.83789C116.809 4.25846 117.447 3.81901 118.189 3.51953C118.938 3.21354 119.762 3.06055 120.66 3.06055C121.233 3.06055 121.777 3.11263 122.291 3.2168C122.812 3.31445 123.31 3.47396 123.785 3.69531V5.42383ZM135.113 4.7207H131.334V16H129.576V4.7207H125.797V3.23633H135.113V4.7207ZM145.777 5.42383C145.302 5.16992 144.814 4.97461 144.312 4.83789C143.811 4.69466 143.264 4.62305 142.672 4.62305C141.995 4.62305 141.393 4.74349 140.865 4.98438C140.338 5.22526 139.892 5.56706 139.527 6.00977C139.169 6.44596 138.893 6.97331 138.697 7.5918C138.508 8.21029 138.414 8.89388 138.414 9.64258C138.414 10.4238 138.492 11.1237 138.648 11.7422C138.805 12.3607 139.049 12.8848 139.381 13.3145C139.713 13.7441 140.136 14.0729 140.65 14.3008C141.171 14.5286 141.793 14.6426 142.516 14.6426C142.639 14.6426 142.773 14.6361 142.916 14.623C143.059 14.61 143.202 14.5938 143.346 14.5742C143.489 14.5482 143.626 14.5189 143.756 14.4863C143.893 14.4538 144.013 14.418 144.117 14.3789V10.3164H141.51V8.88086H145.836V15.4043C145.569 15.528 145.286 15.6387 144.986 15.7363C144.693 15.834 144.391 15.9154 144.078 15.9805C143.772 16.0456 143.466 16.0944 143.16 16.127C142.854 16.1595 142.558 16.1758 142.271 16.1758C141.399 16.1758 140.611 16.0391 139.908 15.7656C139.212 15.4922 138.616 15.0885 138.121 14.5547C137.633 14.0143 137.255 13.3438 136.988 12.543C136.728 11.7422 136.598 10.8145 136.598 9.75977C136.598 8.71159 136.744 7.77409 137.037 6.94727C137.33 6.11393 137.74 5.41081 138.268 4.83789C138.801 4.25846 139.439 3.81901 140.182 3.51953C140.93 3.21354 141.754 3.06055 142.652 3.06055C143.225 3.06055 143.769 3.11263 144.283 3.2168C144.804 3.31445 145.302 3.47396 145.777 3.69531V5.42383ZM156.773 5.42383C156.298 5.16992 155.81 4.97461 155.309 4.83789C154.807 4.69466 154.26 4.62305 153.668 4.62305C152.991 4.62305 152.389 4.74349 151.861 4.98438C151.334 5.22526 150.888 5.56706 150.523 6.00977C150.165 6.44596 149.889 6.97331 149.693 7.5918C149.505 8.21029 149.41 8.89388 149.41 9.64258C149.41 10.4238 149.488 11.1237 149.645 11.7422C149.801 12.3607 150.045 12.8848 150.377 13.3145C150.709 13.7441 151.132 14.0729 151.646 14.3008C152.167 14.5286 152.789 14.6426 153.512 14.6426C153.635 14.6426 153.769 14.6361 153.912 14.623C154.055 14.61 154.199 14.5938 154.342 14.5742C154.485 14.5482 154.622 14.5189 154.752 14.4863C154.889 14.4538 155.009 14.418 155.113 14.3789V10.3164H152.506V8.88086H156.832V15.4043C156.565 15.528 156.282 15.6387 155.982 15.7363C155.689 15.834 155.387 15.9154 155.074 15.9805C154.768 16.0456 154.462 16.0944 154.156 16.127C153.85 16.1595 153.554 16.1758 153.268 16.1758C152.395 16.1758 151.607 16.0391 150.904 15.7656C150.208 15.4922 149.612 15.0885 149.117 14.5547C148.629 14.0143 148.251 13.3438 147.984 12.543C147.724 11.7422 147.594 10.8145 147.594 9.75977C147.594 8.71159 147.74 7.77409 148.033 6.94727C148.326 6.11393 148.736 5.41081 149.264 4.83789C149.798 4.25846 150.436 3.81901 151.178 3.51953C151.926 3.21354 152.75 3.06055 153.648 3.06055C154.221 3.06055 154.765 3.11263 155.279 3.2168C155.8 3.31445 156.298 3.47396 156.773 3.69531V5.42383ZM167.77 5.42383C167.294 5.16992 166.806 4.97461 166.305 4.83789C165.803 4.69466 165.257 4.62305 164.664 4.62305C163.987 4.62305 163.385 4.74349 162.857 4.98438C162.33 5.22526 161.884 5.56706 161.52 6.00977C161.161 6.44596 160.885 6.97331 160.689 7.5918C160.501 8.21029 160.406 8.89388 160.406 9.64258C160.406 10.4238 160.484 11.1237 160.641 11.7422C160.797 12.3607 161.041 12.8848 161.373 13.3145C161.705 13.7441 162.128 14.0729 162.643 14.3008C163.163 14.5286 163.785 14.6426 164.508 14.6426C164.632 14.6426 164.765 14.6361 164.908 14.623C165.051 14.61 165.195 14.5938 165.338 14.5742C165.481 14.5482 165.618 14.5189 165.748 14.4863C165.885 14.4538 166.005 14.418 166.109 14.3789V10.3164H163.502V8.88086H167.828V15.4043C167.561 15.528 167.278 15.6387 166.979 15.7363C166.686 15.834 166.383 15.9154 166.07 15.9805C165.764 16.0456 165.458 16.0944 165.152 16.127C164.846 16.1595 164.55 16.1758 164.264 16.1758C163.391 16.1758 162.604 16.0391 161.9 15.7656C161.204 15.4922 160.608 15.0885 160.113 14.5547C159.625 14.0143 159.247 13.3438 158.98 12.543C158.72 11.7422 158.59 10.8145 158.59 9.75977C158.59 8.71159 158.736 7.77409 159.029 6.94727C159.322 6.11393 159.732 5.41081 160.26 4.83789C160.794 4.25846 161.432 3.81901 162.174 3.51953C162.923 3.21354 163.746 3.06055 164.645 3.06055C165.217 3.06055 165.761 3.11263 166.275 3.2168C166.796 3.31445 167.294 3.47396 167.77 3.69531V5.42383ZM178.766 5.42383C178.29 5.16992 177.802 4.97461 177.301 4.83789C176.799 4.69466 176.253 4.62305 175.66 4.62305C174.983 4.62305 174.381 4.74349 173.854 4.98438C173.326 5.22526 172.88 5.56706 172.516 6.00977C172.158 6.44596 171.881 6.97331 171.686 7.5918C171.497 8.21029 171.402 8.89388 171.402 9.64258C171.402 10.4238 171.48 11.1237 171.637 11.7422C171.793 12.3607 172.037 12.8848 172.369 13.3145C172.701 13.7441 173.124 14.0729 173.639 14.3008C174.16 14.5286 174.781 14.6426 175.504 14.6426C175.628 14.6426 175.761 14.6361 175.904 14.623C176.048 14.61 176.191 14.5938 176.334 14.5742C176.477 14.5482 176.614 14.5189 176.744 14.4863C176.881 14.4538 177.001 14.418 177.105 14.3789V10.3164H174.498V8.88086H178.824V15.4043C178.557 15.528 178.274 15.6387 177.975 15.7363C177.682 15.834 177.379 15.9154 177.066 15.9805C176.76 16.0456 176.454 16.0944 176.148 16.127C175.842 16.1595 175.546 16.1758 175.26 16.1758C174.387 16.1758 173.6 16.0391 172.896 15.7656C172.2 15.4922 171.604 15.0885 171.109 14.5547C170.621 14.0143 170.243 13.3438 169.977 12.543C169.716 11.7422 169.586 10.8145 169.586 9.75977C169.586 8.71159 169.732 7.77409 170.025 6.94727C170.318 6.11393 170.729 5.41081 171.256 4.83789C171.79 4.25846 172.428 3.81901 173.17 3.51953C173.919 3.21354 174.742 3.06055 175.641 3.06055C176.214 3.06055 176.757 3.11263 177.271 3.2168C177.792 3.31445 178.29 3.47396 178.766 3.69531V5.42383ZM189.762 5.42383C189.286 5.16992 188.798 4.97461 188.297 4.83789C187.796 4.69466 187.249 4.62305 186.656 4.62305C185.979 4.62305 185.377 4.74349 184.85 4.98438C184.322 5.22526 183.876 5.56706 183.512 6.00977C183.154 6.44596 182.877 6.97331 182.682 7.5918C182.493 8.21029 182.398 8.89388 182.398 9.64258C182.398 10.4238 182.477 11.1237 182.633 11.7422C182.789 12.3607 183.033 12.8848 183.365 13.3145C183.697 13.7441 184.12 14.0729 184.635 14.3008C185.156 14.5286 185.777 14.6426 186.5 14.6426C186.624 14.6426 186.757 14.6361 186.9 14.623C187.044 14.61 187.187 14.5938 187.33 14.5742C187.473 14.5482 187.61 14.5189 187.74 14.4863C187.877 14.4538 187.997 14.418 188.102 14.3789V10.3164H185.494V8.88086H189.82V15.4043C189.553 15.528 189.27 15.6387 188.971 15.7363C188.678 15.834 188.375 15.9154 188.062 15.9805C187.757 16.0456 187.451 16.0944 187.145 16.127C186.839 16.1595 186.542 16.1758 186.256 16.1758C185.383 16.1758 184.596 16.0391 183.893 15.7656C183.196 15.4922 182.6 15.0885 182.105 14.5547C181.617 14.0143 181.24 13.3438 180.973 12.543C180.712 11.7422 180.582 10.8145 180.582 9.75977C180.582 8.71159 180.729 7.77409 181.021 6.94727C181.314 6.11393 181.725 5.41081 182.252 4.83789C182.786 4.25846 183.424 3.81901 184.166 3.51953C184.915 3.21354 185.738 3.06055 186.637 3.06055C187.21 3.06055 187.753 3.11263 188.268 3.2168C188.788 3.31445 189.286 3.47396 189.762 3.69531V5.42383Z" fill="#C9D1D9"/>
</g>
<defs>
<filter id="filter0_d" x="0.839844" y="3.06055" width="192.98" height="21.1152" filterUnits="userSpaceOnUse" color-interpolation-filters="sRGB">
<feFlood flood-opacity="0" result="BackgroundImageFix"/>
<feColorMatrix in="SourceAlpha" type="matrix" values="0 0 0 0 0 0 0 0 0 0 0 0 0 0 0 0 0 0 127 0"/>
<feOffset dy="4"/>
<feGaussianBlur stdDeviation="2"/>
<feColorMatrix type="matrix" values="0 0 0 0 0 0 0 0 0 0 0 0 0 0 0 0 0 0 0.25 0"/>
<feBlend mode="normal" in2="BackgroundImageFix" result="effect1_dropShadow"/>
<feBlend mode="normal" in="SourceGraphic" in2="effect1_dropShadow" result="shape"/>
</filter>
</defs>
</svg>
