<svg width="704" height="139" viewBox="0 0 704 139" fill="none" xmlns="http://www.w3.org/2000/svg">
<path d="M146.698 67.7747C146.196 71.5194 145.668 75.4123 143.495 78.6271C142.524 80.0637 140.257 82.3364 138.343 81.0056C136.482 79.7117 136.721 73.6829 139.867 74.4468C142.673 75.128 142.449 80.068 146.035 80.3364C147.562 80.4507 150.803 80.5787 150.803 78.5242" stroke="#C9D1D9" stroke-linecap="round" stroke-linejoin="round"/>
<path d="M164.922 81.2958H162.666L160.019 77.5555L157.402 81.2958H155.205L159.004 76.3739L155.38 71.4911H157.558L160.136 75.2606L162.666 71.4911H164.765L161.084 76.413L164.922 81.2958Z" fill="#C9D1D9"/>
<path d="M181.789 87.6056C183.952 83.0384 187.032 67.2953 193.373 66.5473C195.607 66.2837 194.859 70.3924 194.15 71.4188C193.108 72.9276 189.072 76.6602 190.276 75.2851C194.11 70.906 198.594 75.9782 195.78 80.1565C194.502 82.0539 193.188 83.0253 190.853 82.6052C189.576 82.3754 188.784 80.5399 188.784 81.5742" stroke="#C9D1D9" stroke-linecap="round" stroke-linejoin="round"/>
<path d="M211.903 71.4911L208.563 80.2606C208.218 81.1525 207.86 81.9208 207.489 82.5653C207.124 83.2098 206.724 83.7372 206.288 84.1473C205.851 84.564 205.373 84.87 204.852 85.0653C204.331 85.2606 203.749 85.3583 203.104 85.3583C202.935 85.3583 202.782 85.355 202.645 85.3485C202.508 85.342 202.359 85.3322 202.196 85.3192V83.7762C202.339 83.7958 202.495 83.8121 202.665 83.8251C202.834 83.8446 203.013 83.8544 203.202 83.8544C203.514 83.8544 203.804 83.8088 204.071 83.7177C204.344 83.6265 204.601 83.4768 204.842 83.2684C205.083 83.0666 205.314 82.8029 205.536 82.4774C205.757 82.1519 205.972 81.758 206.18 81.2958L202.264 71.4911H204.198L206.678 77.9755L207.176 79.4989L207.743 77.9364L210.038 71.4911H211.903Z" fill="#C9D1D9"/>
<path d="M4.90234 68.5977H2.00195V67.2012H6.62109V79.584H9.54102V81H1.67969V79.584H4.90234V68.5977ZM20.9375 75.9219C20.9375 76.7943 20.8138 77.556 20.5664 78.207C20.3255 78.8581 19.9902 79.3984 19.5605 79.8281C19.1309 80.2578 18.623 80.5801 18.0371 80.7949C17.4512 81.0098 16.8164 81.1172 16.1328 81.1172C15.8203 81.1172 15.5078 81.1009 15.1953 81.0684C14.8893 81.0358 14.5768 80.9805 14.2578 80.9023V85.0039H12.5586V71.1953H14.0723L14.1797 72.8359C14.668 72.1654 15.1888 71.6966 15.7422 71.4297C16.2956 71.1562 16.8945 71.0195 17.5391 71.0195C18.099 71.0195 18.5905 71.1367 19.0137 71.3711C19.4368 71.6055 19.7917 71.9375 20.0781 72.3672C20.3646 72.7904 20.5794 73.3047 20.7227 73.9102C20.8659 74.5091 20.9375 75.1797 20.9375 75.9219ZM19.1992 76C19.1992 75.4857 19.1602 75.0137 19.082 74.584C19.0104 74.1543 18.8932 73.7865 18.7305 73.4805C18.5677 73.1745 18.3594 72.9368 18.1055 72.7676C17.8516 72.5918 17.5488 72.5039 17.1973 72.5039C16.9824 72.5039 16.7643 72.5397 16.543 72.6113C16.3216 72.6764 16.0905 72.7904 15.8496 72.9531C15.6152 73.1094 15.3646 73.321 15.0977 73.5879C14.8372 73.8483 14.5573 74.1738 14.2578 74.5645V79.3203C14.5703 79.4505 14.8991 79.5547 15.2441 79.6328C15.5892 79.7044 15.9277 79.7402 16.2598 79.7402C17.1777 79.7402 17.8971 79.431 18.418 78.8125C18.9388 78.1875 19.1992 77.25 19.1992 76ZM32.0898 76.0195C32.0898 76.7812 31.9824 77.4811 31.7676 78.1191C31.5527 78.7507 31.2435 79.2943 30.8398 79.75C30.4362 80.1992 29.9447 80.5508 29.3652 80.8047C28.7858 81.0521 28.1283 81.1758 27.3926 81.1758C26.6895 81.1758 26.0579 81.0684 25.498 80.8535C24.9447 80.6322 24.4727 80.3099 24.082 79.8867C23.6979 79.4635 23.4017 78.9395 23.1934 78.3145C22.9915 77.6895 22.8906 76.9701 22.8906 76.1562C22.8906 75.3945 22.998 74.7012 23.2129 74.0762C23.4277 73.4447 23.737 72.9043 24.1406 72.4551C24.5443 71.9993 25.0358 71.6478 25.6152 71.4004C26.1947 71.1465 26.8522 71.0195 27.5879 71.0195C28.291 71.0195 28.9193 71.1302 29.4727 71.3516C30.0326 71.5664 30.5046 71.8854 30.8887 72.3086C31.2793 72.7253 31.5755 73.2461 31.7773 73.8711C31.9857 74.4961 32.0898 75.2122 32.0898 76.0195ZM30.3516 76.0977C30.3516 75.4922 30.2832 74.9648 30.1465 74.5156C30.0163 74.0599 29.8275 73.6823 29.5801 73.3828C29.3327 73.0768 29.0299 72.849 28.6719 72.6992C28.3203 72.543 27.9264 72.4648 27.4902 72.4648C26.9824 72.4648 26.5462 72.5658 26.1816 72.7676C25.8236 72.9629 25.5273 73.2266 25.293 73.5586C25.0651 73.8906 24.8958 74.278 24.7852 74.7207C24.681 75.1569 24.6289 75.6159 24.6289 76.0977C24.6289 76.7031 24.694 77.2337 24.8242 77.6895C24.9609 78.1452 25.153 78.526 25.4004 78.832C25.6478 79.1315 25.9473 79.3594 26.2988 79.5156C26.6504 79.6654 27.0475 79.7402 27.4902 79.7402C27.998 79.7402 28.431 79.6426 28.7891 79.4473C29.1536 79.2454 29.4499 78.9785 29.6777 78.6465C29.9121 78.3145 30.0814 77.9303 30.1855 77.4941C30.2962 77.0514 30.3516 76.5859 30.3516 76.0977ZM34.9512 71.1953H36.5039L36.5527 73.002C37.1322 72.3053 37.7018 71.8008 38.2617 71.4883C38.8281 71.1758 39.3978 71.0195 39.9707 71.0195C40.9863 71.0195 41.7546 71.3483 42.2754 72.0059C42.8027 72.6634 43.0469 73.64 43.0078 74.9355H41.2891C41.3086 74.0762 41.1816 73.4544 40.9082 73.0703C40.6413 72.6797 40.2474 72.4844 39.7266 72.4844C39.4987 72.4844 39.2676 72.5267 39.0332 72.6113C38.8053 72.6895 38.5677 72.8197 38.3203 73.002C38.0794 73.1777 37.8223 73.4056 37.5488 73.6855C37.2754 73.9655 36.9824 74.304 36.6699 74.7012V81H34.9512V71.1953ZM51.8457 81L51.8066 79.6816C51.2728 80.209 50.7292 80.5898 50.1758 80.8242C49.6289 81.0586 49.0527 81.1758 48.4473 81.1758C47.8874 81.1758 47.4089 81.1042 47.0117 80.9609C46.6146 80.8177 46.2858 80.6224 46.0254 80.375C45.7715 80.1211 45.5827 79.8249 45.459 79.4863C45.3418 79.1478 45.2832 78.7799 45.2832 78.3828C45.2832 77.3997 45.6478 76.6315 46.377 76.0781C47.1126 75.5182 48.1966 75.2383 49.6289 75.2383H51.6602V74.3789C51.6602 73.7995 51.4746 73.3372 51.1035 72.9922C50.7324 72.6406 50.166 72.4648 49.4043 72.4648C48.8509 72.4648 48.304 72.5267 47.7637 72.6504C47.2298 72.7741 46.6764 72.9499 46.1035 73.1777V71.6445C46.3184 71.5664 46.556 71.4915 46.8164 71.4199C47.0833 71.3418 47.3633 71.2734 47.6562 71.2148C47.9492 71.1562 48.2552 71.1107 48.5742 71.0781C48.8932 71.0391 49.2155 71.0195 49.541 71.0195C50.1335 71.0195 50.6673 71.0846 51.1426 71.2148C51.6178 71.3451 52.0182 71.5436 52.3438 71.8105C52.6758 72.0775 52.9297 72.4128 53.1055 72.8164C53.2812 73.2201 53.3691 73.6953 53.3691 74.2422V81H51.8457ZM51.6602 76.5371H49.502C49.0788 76.5371 48.7142 76.5794 48.4082 76.6641C48.1022 76.7487 47.8516 76.8691 47.6562 77.0254C47.4609 77.1816 47.3145 77.3704 47.2168 77.5918C47.1257 77.8066 47.0801 78.0508 47.0801 78.3242C47.0801 78.513 47.1094 78.6953 47.168 78.8711C47.2266 79.0404 47.321 79.1934 47.4512 79.3301C47.5814 79.4603 47.7507 79.5645 47.959 79.6426C48.1673 79.7207 48.4212 79.7598 48.7207 79.7598C49.1113 79.7598 49.5573 79.6426 50.0586 79.4082C50.5664 79.1673 51.1003 78.7897 51.6602 78.2754V76.5371ZM55.625 71.1953H57.5586L59.9609 77.6797L60.4785 79.2617L61.0156 77.6406L63.3984 71.1953H65.2637L61.416 81H59.4629L55.625 71.1953ZM67.5391 71.1953H69.0527L69.1211 72.7773C69.4076 72.4388 69.6842 72.1589 69.9512 71.9375C70.2181 71.7096 70.4785 71.5273 70.7324 71.3906C70.9928 71.2539 71.2565 71.1595 71.5234 71.1074C71.7904 71.0488 72.0671 71.0195 72.3535 71.0195C73.3626 71.0195 74.1243 71.319 74.6387 71.918C75.1595 72.5104 75.4199 73.4056 75.4199 74.6035V81H73.7207V74.7402C73.7207 73.972 73.5775 73.4056 73.291 73.041C73.0046 72.6699 72.5781 72.4844 72.0117 72.4844C71.8034 72.4844 71.5983 72.5169 71.3965 72.582C71.2012 72.6406 70.9961 72.748 70.7812 72.9043C70.5664 73.054 70.332 73.2591 70.0781 73.5195C69.8307 73.7799 69.5508 74.1055 69.2383 74.4961V81H67.5391V71.1953ZM84.834 81L84.7949 79.6816C84.2611 80.209 83.7174 80.5898 83.1641 80.8242C82.6172 81.0586 82.041 81.1758 81.4355 81.1758C80.8757 81.1758 80.3971 81.1042 80 80.9609C79.6029 80.8177 79.2741 80.6224 79.0137 80.375C78.7598 80.1211 78.571 79.8249 78.4473 79.4863C78.3301 79.1478 78.2715 78.7799 78.2715 78.3828C78.2715 77.3997 78.6361 76.6315 79.3652 76.0781C80.1009 75.5182 81.1849 75.2383 82.6172 75.2383H84.6484V74.3789C84.6484 73.7995 84.4629 73.3372 84.0918 72.9922C83.7207 72.6406 83.1543 72.4648 82.3926 72.4648C81.8392 72.4648 81.2923 72.5267 80.752 72.6504C80.2181 72.7741 79.6647 72.9499 79.0918 73.1777V71.6445C79.3066 71.5664 79.5443 71.4915 79.8047 71.4199C80.0716 71.3418 80.3516 71.2734 80.6445 71.2148C80.9375 71.1562 81.2435 71.1107 81.5625 71.0781C81.8815 71.0391 82.2038 71.0195 82.5293 71.0195C83.1217 71.0195 83.6556 71.0846 84.1309 71.2148C84.6061 71.3451 85.0065 71.5436 85.332 71.8105C85.6641 72.0775 85.918 72.4128 86.0938 72.8164C86.2695 73.2201 86.3574 73.6953 86.3574 74.2422V81H84.834ZM84.6484 76.5371H82.4902C82.0671 76.5371 81.7025 76.5794 81.3965 76.6641C81.0905 76.7487 80.8398 76.8691 80.6445 77.0254C80.4492 77.1816 80.3027 77.3704 80.2051 77.5918C80.1139 77.8066 80.0684 78.0508 80.0684 78.3242C80.0684 78.513 80.0977 78.6953 80.1562 78.8711C80.2148 79.0404 80.3092 79.1934 80.4395 79.3301C80.5697 79.4603 80.7389 79.5645 80.9473 79.6426C81.1556 79.7207 81.4095 79.7598 81.709 79.7598C82.0996 79.7598 82.5456 79.6426 83.0469 79.4082C83.5547 79.1673 84.0885 78.7897 84.6484 78.2754V76.5371ZM89.5312 71.1953H91.0449L91.1133 72.7773C91.3997 72.4388 91.6764 72.1589 91.9434 71.9375C92.2103 71.7096 92.4707 71.5273 92.7246 71.3906C92.985 71.2539 93.2487 71.1595 93.5156 71.1074C93.7826 71.0488 94.0592 71.0195 94.3457 71.0195C95.3548 71.0195 96.1165 71.319 96.6309 71.918C97.1517 72.5104 97.4121 73.4056 97.4121 74.6035V81H95.7129V74.7402C95.7129 73.972 95.5697 73.4056 95.2832 73.041C94.9967 72.6699 94.5703 72.4844 94.0039 72.4844C93.7956 72.4844 93.5905 72.5169 93.3887 72.582C93.1934 72.6406 92.9883 72.748 92.7734 72.9043C92.5586 73.054 92.3242 73.2591 92.0703 73.5195C91.8229 73.7799 91.543 74.1055 91.2305 74.4961V81H89.5312V71.1953ZM107.168 71.1953V80.8242C107.168 81.5078 107.07 82.1133 106.875 82.6406C106.68 83.1745 106.4 83.6237 106.035 83.9883C105.671 84.3529 105.221 84.6296 104.688 84.8184C104.16 85.0072 103.564 85.1016 102.9 85.1016C102.419 85.1016 101.947 85.056 101.484 84.9648C101.029 84.8802 100.615 84.7598 100.244 84.6035V82.9824C100.446 83.0866 100.661 83.181 100.889 83.2656C101.123 83.3503 101.361 83.4219 101.602 83.4805C101.849 83.5391 102.096 83.5814 102.344 83.6074C102.591 83.64 102.832 83.6562 103.066 83.6562C103.809 83.6562 104.391 83.4219 104.814 82.9531C105.238 82.4844 105.449 81.7943 105.449 80.8828V72.6016H100.645V71.1953H107.168ZM106.143 67.084C106.331 67.084 106.507 67.1198 106.67 67.1914C106.833 67.2565 106.973 67.3509 107.09 67.4746C107.214 67.5983 107.308 67.7415 107.373 67.9043C107.445 68.0671 107.48 68.2396 107.48 68.4219C107.48 68.6107 107.445 68.7865 107.373 68.9492C107.308 69.1055 107.214 69.2454 107.09 69.3691C106.973 69.4928 106.833 69.5905 106.67 69.6621C106.507 69.7272 106.331 69.7598 106.143 69.7598C105.954 69.7598 105.778 69.7272 105.615 69.6621C105.452 69.5905 105.309 69.4928 105.186 69.3691C105.068 69.2454 104.974 69.1055 104.902 68.9492C104.837 68.7865 104.805 68.6107 104.805 68.4219C104.805 68.2396 104.837 68.0671 104.902 67.9043C104.974 67.7415 105.068 67.5983 105.186 67.4746C105.309 67.3509 105.452 67.2565 105.615 67.1914C105.778 67.1198 105.954 67.084 106.143 67.084ZM119.805 75.5801C119.805 75.821 119.801 76.0228 119.795 76.1855C119.788 76.3483 119.779 76.5013 119.766 76.6445H112.881C112.881 77.6471 113.161 78.4186 113.721 78.959C114.281 79.4928 115.088 79.7598 116.143 79.7598C116.429 79.7598 116.715 79.75 117.002 79.7305C117.288 79.7044 117.565 79.6719 117.832 79.6328C118.099 79.5938 118.353 79.5514 118.594 79.5059C118.841 79.4538 119.069 79.3984 119.277 79.3398V80.7363C118.815 80.8665 118.291 80.9707 117.705 81.0488C117.126 81.1335 116.523 81.1758 115.898 81.1758C115.059 81.1758 114.336 81.0618 113.73 80.834C113.125 80.6061 112.627 80.2773 112.236 79.8477C111.852 79.4115 111.566 78.8809 111.377 78.2559C111.195 77.6243 111.104 76.9115 111.104 76.1172C111.104 75.4271 111.201 74.776 111.396 74.1641C111.598 73.5456 111.888 73.0052 112.266 72.543C112.65 72.0742 113.118 71.7031 113.672 71.4297C114.225 71.1562 114.854 71.0195 115.557 71.0195C116.24 71.0195 116.846 71.127 117.373 71.3418C117.9 71.5566 118.343 71.8626 118.701 72.2598C119.066 72.6504 119.339 73.1289 119.521 73.6953C119.71 74.2552 119.805 74.8835 119.805 75.5801ZM118.037 75.3359C118.057 74.8997 118.014 74.5026 117.91 74.1445C117.806 73.7799 117.643 73.4674 117.422 73.207C117.207 72.9466 116.937 72.7448 116.611 72.6016C116.286 72.4518 115.908 72.377 115.479 72.377C115.107 72.377 114.769 72.4486 114.463 72.5918C114.157 72.735 113.893 72.9368 113.672 73.1973C113.451 73.4577 113.271 73.7702 113.135 74.1348C112.998 74.4993 112.913 74.8997 112.881 75.3359H118.037ZM128.389 85.1016C125.387 82.3216 123.887 79.2487 123.887 75.8828C123.887 75.0951 123.965 74.3105 124.121 73.5293C124.284 72.7415 124.541 71.9538 124.893 71.166C125.251 70.3783 125.719 69.5905 126.299 68.8027C126.885 68.015 127.594 67.2337 128.428 66.459L129.414 67.4648C126.888 69.9583 125.625 72.722 125.625 75.7559C125.625 77.2663 125.944 78.7181 126.582 80.1113C127.22 81.5046 128.164 82.8197 129.414 84.0566L128.389 85.1016ZM167.266 83.002C167.598 83.015 167.92 82.9857 168.232 82.9141C168.545 82.8424 168.818 82.735 169.053 82.5918C169.294 82.4551 169.486 82.2826 169.629 82.0742C169.772 81.8659 169.844 81.6283 169.844 81.3613C169.844 81.0879 169.795 80.8665 169.697 80.6973C169.606 80.528 169.502 80.3717 169.385 80.2285C169.268 80.0853 169.16 79.9323 169.062 79.7695C168.971 79.6068 168.926 79.3887 168.926 79.1152C168.926 78.9785 168.952 78.8353 169.004 78.6855C169.056 78.5358 169.134 78.3991 169.238 78.2754C169.349 78.1517 169.486 78.0508 169.648 77.9727C169.818 77.8945 170.016 77.8555 170.244 77.8555C170.472 77.8555 170.69 77.9043 170.898 78.002C171.113 78.0931 171.299 78.2363 171.455 78.4316C171.618 78.627 171.745 78.8711 171.836 79.1641C171.934 79.457 171.982 79.8021 171.982 80.1992C171.982 80.7396 171.882 81.2572 171.68 81.752C171.484 82.2533 171.188 82.696 170.791 83.0801C170.4 83.4642 169.909 83.7702 169.316 83.998C168.73 84.2259 168.047 84.3398 167.266 84.3398V83.002ZM212.49 66.459C215.492 69.2389 216.992 72.3314 216.992 75.7363C216.992 76.4395 216.921 77.1686 216.777 77.9238C216.634 78.679 216.39 79.4538 216.045 80.248C215.7 81.0358 215.234 81.8366 214.648 82.6504C214.069 83.4642 213.337 84.2812 212.451 85.1016L211.465 84.0957C212.734 82.8392 213.682 81.5273 214.307 80.1602C214.932 78.793 215.244 77.3607 215.244 75.8633C215.244 72.7643 213.984 69.9779 211.465 67.5039L212.49 66.459ZM240.615 74.6914H232.217V73.2559H240.615V74.6914ZM240.615 78.0898H232.217V76.6543H240.615V78.0898ZM261.465 81V73.959C261.465 73.653 261.452 73.4023 261.426 73.207C261.406 73.0117 261.37 72.8587 261.318 72.748C261.273 72.6309 261.211 72.5495 261.133 72.5039C261.061 72.4583 260.97 72.4355 260.859 72.4355C260.729 72.4355 260.609 72.4746 260.498 72.5527C260.387 72.6309 260.267 72.7578 260.137 72.9336C260.013 73.1094 259.873 73.3438 259.717 73.6367C259.567 73.9232 259.388 74.278 259.18 74.7012V81H257.627V74.1445C257.627 73.7865 257.614 73.4967 257.588 73.2754C257.568 73.054 257.533 72.8815 257.48 72.7578C257.435 72.6341 257.373 72.5495 257.295 72.5039C257.217 72.4583 257.122 72.4355 257.012 72.4355C256.895 72.4355 256.784 72.4681 256.68 72.5332C256.576 72.5983 256.458 72.7155 256.328 72.8848C256.204 73.054 256.064 73.2852 255.908 73.5781C255.752 73.8711 255.566 74.2454 255.352 74.7012V81H253.789V71.1953H255.088L255.166 73.0605C255.335 72.6895 255.498 72.3737 255.654 72.1133C255.817 71.8529 255.983 71.6445 256.152 71.4883C256.322 71.3255 256.501 71.2083 256.689 71.1367C256.885 71.0586 257.1 71.0195 257.334 71.0195C257.861 71.0195 258.262 71.1921 258.535 71.5371C258.809 71.8822 258.945 72.416 258.945 73.1387C259.102 72.8001 259.255 72.5007 259.404 72.2402C259.554 71.9733 259.714 71.752 259.883 71.5762C260.059 71.3939 260.251 71.2572 260.459 71.166C260.667 71.0684 260.908 71.0195 261.182 71.0195C262.412 71.0195 263.027 71.9668 263.027 73.8613V81H261.465ZM271.768 81L271.729 79.6816C271.195 80.209 270.651 80.5898 270.098 80.8242C269.551 81.0586 268.975 81.1758 268.369 81.1758C267.809 81.1758 267.331 81.1042 266.934 80.9609C266.536 80.8177 266.208 80.6224 265.947 80.375C265.693 80.1211 265.505 79.8249 265.381 79.4863C265.264 79.1478 265.205 78.7799 265.205 78.3828C265.205 77.3997 265.57 76.6315 266.299 76.0781C267.035 75.5182 268.118 75.2383 269.551 75.2383H271.582V74.3789C271.582 73.7995 271.396 73.3372 271.025 72.9922C270.654 72.6406 270.088 72.4648 269.326 72.4648C268.773 72.4648 268.226 72.5267 267.686 72.6504C267.152 72.7741 266.598 72.9499 266.025 73.1777V71.6445C266.24 71.5664 266.478 71.4915 266.738 71.4199C267.005 71.3418 267.285 71.2734 267.578 71.2148C267.871 71.1562 268.177 71.1107 268.496 71.0781C268.815 71.0391 269.137 71.0195 269.463 71.0195C270.055 71.0195 270.589 71.0846 271.064 71.2148C271.54 71.3451 271.94 71.5436 272.266 71.8105C272.598 72.0775 272.852 72.4128 273.027 72.8164C273.203 73.2201 273.291 73.6953 273.291 74.2422V81H271.768ZM271.582 76.5371H269.424C269.001 76.5371 268.636 76.5794 268.33 76.6641C268.024 76.7487 267.773 76.8691 267.578 77.0254C267.383 77.1816 267.236 77.3704 267.139 77.5918C267.048 77.8066 267.002 78.0508 267.002 78.3242C267.002 78.513 267.031 78.6953 267.09 78.8711C267.148 79.0404 267.243 79.1934 267.373 79.3301C267.503 79.4603 267.673 79.5645 267.881 79.6426C268.089 79.7207 268.343 79.7598 268.643 79.7598C269.033 79.7598 269.479 79.6426 269.98 79.4082C270.488 79.1673 271.022 78.7897 271.582 78.2754V76.5371ZM285.303 81H283.047L280.4 77.2598L277.783 81H275.586L279.385 76.0781L275.762 71.1953H277.939L280.518 74.9648L283.047 71.1953H285.146L281.465 76.1172L285.303 81Z" fill="#C9D1D9"/>
<path d="M316.887 12C311.108 13.5188 308.52 14.3258 305.113 20.0563V65.9155L295.817 75.831L305.113 85.1268V130.366C307.207 135.988 309.946 137.592 316.887 138.423" stroke="#C9D1D9"/>
<path d="M505.634 103.07C507.797 98.5033 510.877 82.7602 517.218 82.0121C519.452 81.7486 518.704 85.8573 517.995 86.8836C516.953 88.3924 512.917 92.1251 514.121 90.7499C517.955 86.3709 522.439 91.4431 519.625 95.6214C518.347 97.5188 517.033 98.4902 514.698 98.07C513.421 97.8403 512.629 96.0048 512.629 97.039" stroke="#C9D1D9" stroke-linecap="round" stroke-linejoin="round"/>
<path d="M535.748 88.1953L532.408 96.9648C532.063 97.8568 531.705 98.625 531.334 99.2695C530.969 99.9141 530.569 100.441 530.133 100.852C529.697 101.268 529.218 101.574 528.697 101.77C528.176 101.965 527.594 102.062 526.949 102.062C526.78 102.062 526.627 102.059 526.49 102.053C526.353 102.046 526.204 102.036 526.041 102.023V100.48C526.184 100.5 526.34 100.516 526.51 100.529C526.679 100.549 526.858 100.559 527.047 100.559C527.359 100.559 527.649 100.513 527.916 100.422C528.189 100.331 528.447 100.181 528.687 99.9727C528.928 99.7708 529.159 99.5072 529.381 99.1816C529.602 98.8561 529.817 98.4622 530.025 98L526.109 88.1953H528.043L530.523 94.6797L531.021 96.2031L531.588 94.6406L533.883 88.1953H535.748Z" fill="#C9D1D9"/>
<path d="M482.937 83.2395C482.436 86.9842 481.908 90.8772 479.734 94.092C478.763 95.5286 476.497 97.8013 474.583 96.4705C472.722 95.1766 472.961 89.1478 476.107 89.9116C478.912 90.5929 478.688 95.5328 482.274 95.8012C483.802 95.9155 487.042 96.0436 487.042 93.989" stroke="#C9D1D9" stroke-linecap="round" stroke-linejoin="round"/>
<path d="M340.902 85.5977H338.002V84.2012H342.621V96.584H345.541V98H337.68V96.584H340.902V85.5977ZM356.938 92.9219C356.938 93.7943 356.814 94.556 356.566 95.207C356.326 95.8581 355.99 96.3984 355.561 96.8281C355.131 97.2578 354.623 97.5801 354.037 97.7949C353.451 98.0098 352.816 98.1172 352.133 98.1172C351.82 98.1172 351.508 98.1009 351.195 98.0684C350.889 98.0358 350.577 97.9805 350.258 97.9023V102.004H348.559V88.1953H350.072L350.18 89.8359C350.668 89.1654 351.189 88.6966 351.742 88.4297C352.296 88.1562 352.895 88.0195 353.539 88.0195C354.099 88.0195 354.59 88.1367 355.014 88.3711C355.437 88.6055 355.792 88.9375 356.078 89.3672C356.365 89.7904 356.579 90.3047 356.723 90.9102C356.866 91.5091 356.938 92.1797 356.938 92.9219ZM355.199 93C355.199 92.4857 355.16 92.0137 355.082 91.584C355.01 91.1543 354.893 90.7865 354.73 90.4805C354.568 90.1745 354.359 89.9368 354.105 89.7676C353.852 89.5918 353.549 89.5039 353.197 89.5039C352.982 89.5039 352.764 89.5397 352.543 89.6113C352.322 89.6764 352.09 89.7904 351.85 89.9531C351.615 90.1094 351.365 90.321 351.098 90.5879C350.837 90.8483 350.557 91.1738 350.258 91.5645V96.3203C350.57 96.4505 350.899 96.5547 351.244 96.6328C351.589 96.7044 351.928 96.7402 352.26 96.7402C353.178 96.7402 353.897 96.431 354.418 95.8125C354.939 95.1875 355.199 94.25 355.199 93ZM368.09 93.0195C368.09 93.7812 367.982 94.4811 367.768 95.1191C367.553 95.7507 367.243 96.2943 366.84 96.75C366.436 97.1992 365.945 97.5508 365.365 97.8047C364.786 98.0521 364.128 98.1758 363.393 98.1758C362.689 98.1758 362.058 98.0684 361.498 97.8535C360.945 97.6322 360.473 97.3099 360.082 96.8867C359.698 96.4635 359.402 95.9395 359.193 95.3145C358.992 94.6895 358.891 93.9701 358.891 93.1562C358.891 92.3945 358.998 91.7012 359.213 91.0762C359.428 90.4447 359.737 89.9043 360.141 89.4551C360.544 88.9993 361.036 88.6478 361.615 88.4004C362.195 88.1465 362.852 88.0195 363.588 88.0195C364.291 88.0195 364.919 88.1302 365.473 88.3516C366.033 88.5664 366.505 88.8854 366.889 89.3086C367.279 89.7253 367.576 90.2461 367.777 90.8711C367.986 91.4961 368.09 92.2122 368.09 93.0195ZM366.352 93.0977C366.352 92.4922 366.283 91.9648 366.146 91.5156C366.016 91.0599 365.827 90.6823 365.58 90.3828C365.333 90.0768 365.03 89.849 364.672 89.6992C364.32 89.543 363.926 89.4648 363.49 89.4648C362.982 89.4648 362.546 89.5658 362.182 89.7676C361.824 89.9629 361.527 90.2266 361.293 90.5586C361.065 90.8906 360.896 91.278 360.785 91.7207C360.681 92.1569 360.629 92.6159 360.629 93.0977C360.629 93.7031 360.694 94.2337 360.824 94.6895C360.961 95.1452 361.153 95.526 361.4 95.832C361.648 96.1315 361.947 96.3594 362.299 96.5156C362.65 96.6654 363.048 96.7402 363.49 96.7402C363.998 96.7402 364.431 96.6426 364.789 96.4473C365.154 96.2454 365.45 95.9785 365.678 95.6465C365.912 95.3145 366.081 94.9303 366.186 94.4941C366.296 94.0514 366.352 93.5859 366.352 93.0977ZM370.951 88.1953H372.504L372.553 90.002C373.132 89.3053 373.702 88.8008 374.262 88.4883C374.828 88.1758 375.398 88.0195 375.971 88.0195C376.986 88.0195 377.755 88.3483 378.275 89.0059C378.803 89.6634 379.047 90.64 379.008 91.9355H377.289C377.309 91.0762 377.182 90.4544 376.908 90.0703C376.641 89.6797 376.247 89.4844 375.727 89.4844C375.499 89.4844 375.268 89.5267 375.033 89.6113C374.805 89.6895 374.568 89.8197 374.32 90.002C374.079 90.1777 373.822 90.4056 373.549 90.6855C373.275 90.9655 372.982 91.304 372.67 91.7012V98H370.951V88.1953ZM387.846 98L387.807 96.6816C387.273 97.209 386.729 97.5898 386.176 97.8242C385.629 98.0586 385.053 98.1758 384.447 98.1758C383.887 98.1758 383.409 98.1042 383.012 97.9609C382.615 97.8177 382.286 97.6224 382.025 97.375C381.771 97.1211 381.583 96.8249 381.459 96.4863C381.342 96.1478 381.283 95.7799 381.283 95.3828C381.283 94.3997 381.648 93.6315 382.377 93.0781C383.113 92.5182 384.197 92.2383 385.629 92.2383H387.66V91.3789C387.66 90.7995 387.475 90.3372 387.104 89.9922C386.732 89.6406 386.166 89.4648 385.404 89.4648C384.851 89.4648 384.304 89.5267 383.764 89.6504C383.23 89.7741 382.676 89.9499 382.104 90.1777V88.6445C382.318 88.5664 382.556 88.4915 382.816 88.4199C383.083 88.3418 383.363 88.2734 383.656 88.2148C383.949 88.1562 384.255 88.1107 384.574 88.0781C384.893 88.0391 385.215 88.0195 385.541 88.0195C386.133 88.0195 386.667 88.0846 387.143 88.2148C387.618 88.3451 388.018 88.5436 388.344 88.8105C388.676 89.0775 388.93 89.4128 389.105 89.8164C389.281 90.2201 389.369 90.6953 389.369 91.2422V98H387.846ZM387.66 93.5371H385.502C385.079 93.5371 384.714 93.5794 384.408 93.6641C384.102 93.7487 383.852 93.8691 383.656 94.0254C383.461 94.1816 383.314 94.3704 383.217 94.5918C383.126 94.8066 383.08 95.0508 383.08 95.3242C383.08 95.513 383.109 95.6953 383.168 95.8711C383.227 96.0404 383.321 96.1934 383.451 96.3301C383.581 96.4603 383.751 96.5645 383.959 96.6426C384.167 96.7207 384.421 96.7598 384.721 96.7598C385.111 96.7598 385.557 96.6426 386.059 96.4082C386.566 96.1673 387.1 95.7897 387.66 95.2754V93.5371ZM391.625 88.1953H393.559L395.961 94.6797L396.479 96.2617L397.016 94.6406L399.398 88.1953H401.264L397.416 98H395.463L391.625 88.1953ZM403.539 88.1953H405.053L405.121 89.7773C405.408 89.4388 405.684 89.1589 405.951 88.9375C406.218 88.7096 406.479 88.5273 406.732 88.3906C406.993 88.2539 407.257 88.1595 407.523 88.1074C407.79 88.0488 408.067 88.0195 408.354 88.0195C409.363 88.0195 410.124 88.319 410.639 88.918C411.16 89.5104 411.42 90.4056 411.42 91.6035V98H409.721V91.7402C409.721 90.972 409.577 90.4056 409.291 90.041C409.005 89.6699 408.578 89.4844 408.012 89.4844C407.803 89.4844 407.598 89.5169 407.396 89.582C407.201 89.6406 406.996 89.748 406.781 89.9043C406.566 90.054 406.332 90.2591 406.078 90.5195C405.831 90.7799 405.551 91.1055 405.238 91.4961V98H403.539V88.1953ZM420.834 98L420.795 96.6816C420.261 97.209 419.717 97.5898 419.164 97.8242C418.617 98.0586 418.041 98.1758 417.436 98.1758C416.876 98.1758 416.397 98.1042 416 97.9609C415.603 97.8177 415.274 97.6224 415.014 97.375C414.76 97.1211 414.571 96.8249 414.447 96.4863C414.33 96.1478 414.271 95.7799 414.271 95.3828C414.271 94.3997 414.636 93.6315 415.365 93.0781C416.101 92.5182 417.185 92.2383 418.617 92.2383H420.648V91.3789C420.648 90.7995 420.463 90.3372 420.092 89.9922C419.721 89.6406 419.154 89.4648 418.393 89.4648C417.839 89.4648 417.292 89.5267 416.752 89.6504C416.218 89.7741 415.665 89.9499 415.092 90.1777V88.6445C415.307 88.5664 415.544 88.4915 415.805 88.4199C416.072 88.3418 416.352 88.2734 416.645 88.2148C416.938 88.1562 417.243 88.1107 417.562 88.0781C417.882 88.0391 418.204 88.0195 418.529 88.0195C419.122 88.0195 419.656 88.0846 420.131 88.2148C420.606 88.3451 421.007 88.5436 421.332 88.8105C421.664 89.0775 421.918 89.4128 422.094 89.8164C422.27 90.2201 422.357 90.6953 422.357 91.2422V98H420.834ZM420.648 93.5371H418.49C418.067 93.5371 417.702 93.5794 417.396 93.6641C417.09 93.7487 416.84 93.8691 416.645 94.0254C416.449 94.1816 416.303 94.3704 416.205 94.5918C416.114 94.8066 416.068 95.0508 416.068 95.3242C416.068 95.513 416.098 95.6953 416.156 95.8711C416.215 96.0404 416.309 96.1934 416.439 96.3301C416.57 96.4603 416.739 96.5645 416.947 96.6426C417.156 96.7207 417.41 96.7598 417.709 96.7598C418.1 96.7598 418.546 96.6426 419.047 96.4082C419.555 96.1673 420.089 95.7897 420.648 95.2754V93.5371ZM425.531 88.1953H427.045L427.113 89.7773C427.4 89.4388 427.676 89.1589 427.943 88.9375C428.21 88.7096 428.471 88.5273 428.725 88.3906C428.985 88.2539 429.249 88.1595 429.516 88.1074C429.783 88.0488 430.059 88.0195 430.346 88.0195C431.355 88.0195 432.117 88.319 432.631 88.918C433.152 89.5104 433.412 90.4056 433.412 91.6035V98H431.713V91.7402C431.713 90.972 431.57 90.4056 431.283 90.041C430.997 89.6699 430.57 89.4844 430.004 89.4844C429.796 89.4844 429.59 89.5169 429.389 89.582C429.193 89.6406 428.988 89.748 428.773 89.9043C428.559 90.054 428.324 90.2591 428.07 90.5195C427.823 90.7799 427.543 91.1055 427.23 91.4961V98H425.531V88.1953ZM443.168 88.1953V97.8242C443.168 98.5078 443.07 99.1133 442.875 99.6406C442.68 100.174 442.4 100.624 442.035 100.988C441.671 101.353 441.221 101.63 440.688 101.818C440.16 102.007 439.564 102.102 438.9 102.102C438.419 102.102 437.947 102.056 437.484 101.965C437.029 101.88 436.615 101.76 436.244 101.604V99.9824C436.446 100.087 436.661 100.181 436.889 100.266C437.123 100.35 437.361 100.422 437.602 100.48C437.849 100.539 438.096 100.581 438.344 100.607C438.591 100.64 438.832 100.656 439.066 100.656C439.809 100.656 440.391 100.422 440.814 99.9531C441.238 99.4844 441.449 98.7943 441.449 97.8828V89.6016H436.645V88.1953H443.168ZM442.143 84.084C442.331 84.084 442.507 84.1198 442.67 84.1914C442.833 84.2565 442.973 84.3509 443.09 84.4746C443.214 84.5983 443.308 84.7415 443.373 84.9043C443.445 85.0671 443.48 85.2396 443.48 85.4219C443.48 85.6107 443.445 85.7865 443.373 85.9492C443.308 86.1055 443.214 86.2454 443.09 86.3691C442.973 86.4928 442.833 86.5905 442.67 86.6621C442.507 86.7272 442.331 86.7598 442.143 86.7598C441.954 86.7598 441.778 86.7272 441.615 86.6621C441.452 86.5905 441.309 86.4928 441.186 86.3691C441.068 86.2454 440.974 86.1055 440.902 85.9492C440.837 85.7865 440.805 85.6107 440.805 85.4219C440.805 85.2396 440.837 85.0671 440.902 84.9043C440.974 84.7415 441.068 84.5983 441.186 84.4746C441.309 84.3509 441.452 84.2565 441.615 84.1914C441.778 84.1198 441.954 84.084 442.143 84.084ZM455.805 92.5801C455.805 92.821 455.801 93.0228 455.795 93.1855C455.788 93.3483 455.779 93.5013 455.766 93.6445H448.881C448.881 94.6471 449.161 95.4186 449.721 95.959C450.281 96.4928 451.088 96.7598 452.143 96.7598C452.429 96.7598 452.715 96.75 453.002 96.7305C453.288 96.7044 453.565 96.6719 453.832 96.6328C454.099 96.5938 454.353 96.5514 454.594 96.5059C454.841 96.4538 455.069 96.3984 455.277 96.3398V97.7363C454.815 97.8665 454.291 97.9707 453.705 98.0488C453.126 98.1335 452.523 98.1758 451.898 98.1758C451.059 98.1758 450.336 98.0618 449.73 97.834C449.125 97.6061 448.627 97.2773 448.236 96.8477C447.852 96.4115 447.566 95.8809 447.377 95.2559C447.195 94.6243 447.104 93.9115 447.104 93.1172C447.104 92.4271 447.201 91.776 447.396 91.1641C447.598 90.5456 447.888 90.0052 448.266 89.543C448.65 89.0742 449.118 88.7031 449.672 88.4297C450.225 88.1562 450.854 88.0195 451.557 88.0195C452.24 88.0195 452.846 88.127 453.373 88.3418C453.9 88.5566 454.343 88.8626 454.701 89.2598C455.066 89.6504 455.339 90.1289 455.521 90.6953C455.71 91.2552 455.805 91.8835 455.805 92.5801ZM454.037 92.3359C454.057 91.8997 454.014 91.5026 453.91 91.1445C453.806 90.7799 453.643 90.4674 453.422 90.207C453.207 89.9466 452.937 89.7448 452.611 89.6016C452.286 89.4518 451.908 89.377 451.479 89.377C451.107 89.377 450.769 89.4486 450.463 89.5918C450.157 89.735 449.893 89.9368 449.672 90.1973C449.451 90.4577 449.271 90.7702 449.135 91.1348C448.998 91.4993 448.913 91.8997 448.881 92.3359H454.037ZM464.389 102.102C461.387 99.3216 459.887 96.2487 459.887 92.8828C459.887 92.0951 459.965 91.3105 460.121 90.5293C460.284 89.7415 460.541 88.9538 460.893 88.166C461.251 87.3783 461.719 86.5905 462.299 85.8027C462.885 85.015 463.594 84.2337 464.428 83.459L465.414 84.4648C462.888 86.9583 461.625 89.722 461.625 92.7559C461.625 94.2663 461.944 95.7181 462.582 97.1113C463.22 98.5046 464.164 99.8197 465.414 101.057L464.389 102.102ZM492.27 100.002C492.602 100.015 492.924 99.9857 493.236 99.9141C493.549 99.8424 493.822 99.735 494.057 99.5918C494.298 99.4551 494.49 99.2826 494.633 99.0742C494.776 98.8659 494.848 98.6283 494.848 98.3613C494.848 98.0879 494.799 97.8665 494.701 97.6973C494.61 97.528 494.506 97.3717 494.389 97.2285C494.271 97.0853 494.164 96.9323 494.066 96.7695C493.975 96.6068 493.93 96.3887 493.93 96.1152C493.93 95.9785 493.956 95.8353 494.008 95.6855C494.06 95.5358 494.138 95.3991 494.242 95.2754C494.353 95.1517 494.49 95.0508 494.652 94.9727C494.822 94.8945 495.02 94.8555 495.248 94.8555C495.476 94.8555 495.694 94.9043 495.902 95.002C496.117 95.0931 496.303 95.2363 496.459 95.4316C496.622 95.627 496.749 95.8711 496.84 96.1641C496.938 96.457 496.986 96.8021 496.986 97.1992C496.986 97.7396 496.885 98.2572 496.684 98.752C496.488 99.2533 496.192 99.696 495.795 100.08C495.404 100.464 494.913 100.77 494.32 100.998C493.734 101.226 493.051 101.34 492.27 101.34V100.002ZM537.494 83.459C540.495 86.2389 541.996 89.3314 541.996 92.7363C541.996 93.4395 541.924 94.1686 541.781 94.9238C541.638 95.679 541.394 96.4538 541.049 97.248C540.704 98.0358 540.238 98.8366 539.652 99.6504C539.073 100.464 538.34 101.281 537.455 102.102L536.469 101.096C537.738 99.8392 538.686 98.5273 539.311 97.1602C539.936 95.793 540.248 94.3607 540.248 92.8633C540.248 89.7643 538.988 86.9779 536.469 84.5039L537.494 83.459ZM577.094 93.4199H573.256V97.4043H571.576V93.4199H567.738V91.9355H571.576V87.9805H573.256V91.9355H577.094V93.4199ZM598.236 95.3242C598.236 95.6693 598.178 95.9785 598.061 96.252C597.943 96.5254 597.784 96.7695 597.582 96.9844C597.38 97.1927 597.146 97.3717 596.879 97.5215C596.612 97.6712 596.326 97.7949 596.02 97.8926C595.72 97.9902 595.411 98.0618 595.092 98.1074C594.773 98.153 594.46 98.1758 594.154 98.1758C593.49 98.1758 592.878 98.1465 592.318 98.0879C591.765 98.0293 591.221 97.9349 590.688 97.8047V96.2422C591.26 96.4049 591.83 96.5286 592.396 96.6133C592.963 96.6979 593.526 96.7402 594.086 96.7402C594.9 96.7402 595.502 96.6296 595.893 96.4082C596.283 96.1868 596.479 95.8711 596.479 95.4609C596.479 95.2852 596.446 95.1289 596.381 94.9922C596.322 94.849 596.212 94.7155 596.049 94.5918C595.886 94.4616 595.632 94.3281 595.287 94.1914C594.949 94.0547 594.483 93.8984 593.891 93.7227C593.448 93.5924 593.038 93.446 592.66 93.2832C592.289 93.1139 591.967 92.9154 591.693 92.6875C591.42 92.4596 591.205 92.1927 591.049 91.8867C590.893 91.5807 590.814 91.2194 590.814 90.8027C590.814 90.5293 590.876 90.2298 591 89.9043C591.13 89.5788 591.348 89.276 591.654 88.9961C591.96 88.7161 592.374 88.485 592.895 88.3027C593.415 88.1139 594.066 88.0195 594.848 88.0195C595.232 88.0195 595.658 88.0423 596.127 88.0879C596.596 88.127 597.084 88.1986 597.592 88.3027V89.8164C597.058 89.6862 596.55 89.5918 596.068 89.5332C595.593 89.4681 595.18 89.4355 594.828 89.4355C594.405 89.4355 594.047 89.4681 593.754 89.5332C593.467 89.5983 593.233 89.6895 593.051 89.8066C592.875 89.9173 592.748 90.0508 592.67 90.207C592.592 90.3568 592.553 90.5195 592.553 90.6953C592.553 90.8711 592.585 91.0306 592.65 91.1738C592.722 91.3171 592.849 91.457 593.031 91.5938C593.22 91.724 593.48 91.8574 593.812 91.9941C594.145 92.1243 594.577 92.2676 595.111 92.4238C595.691 92.5931 596.179 92.7721 596.576 92.9609C596.973 93.1432 597.296 93.3483 597.543 93.5762C597.79 93.804 597.966 94.0612 598.07 94.3477C598.181 94.6341 598.236 94.9596 598.236 95.3242ZM607.338 102.102C604.337 99.3216 602.836 96.2487 602.836 92.8828C602.836 92.0951 602.914 91.3105 603.07 90.5293C603.233 89.7415 603.49 88.9538 603.842 88.166C604.2 87.3783 604.669 86.5905 605.248 85.8027C605.834 85.015 606.544 84.2337 607.377 83.459L608.363 84.4648C605.837 86.9583 604.574 89.722 604.574 92.7559C604.574 94.2663 604.893 95.7181 605.531 97.1113C606.169 98.5046 607.113 99.8197 608.363 101.057L607.338 102.102ZM621.303 98H619.047L616.4 94.2598L613.783 98H611.586L615.385 93.0781L611.762 88.1953H613.939L616.518 91.9648L619.047 88.1953H621.146L617.465 93.1172L621.303 98ZM624.223 100.002C624.555 100.015 624.877 99.9857 625.189 99.9141C625.502 99.8424 625.775 99.735 626.01 99.5918C626.251 99.4551 626.443 99.2826 626.586 99.0742C626.729 98.8659 626.801 98.6283 626.801 98.3613C626.801 98.0879 626.752 97.8665 626.654 97.6973C626.563 97.528 626.459 97.3717 626.342 97.2285C626.225 97.0853 626.117 96.9323 626.02 96.7695C625.928 96.6068 625.883 96.3887 625.883 96.1152C625.883 95.9785 625.909 95.8353 625.961 95.6855C626.013 95.5358 626.091 95.3991 626.195 95.2754C626.306 95.1517 626.443 95.0508 626.605 94.9727C626.775 94.8945 626.973 94.8555 627.201 94.8555C627.429 94.8555 627.647 94.9043 627.855 95.002C628.07 95.0931 628.256 95.2363 628.412 95.4316C628.575 95.627 628.702 95.8711 628.793 96.1641C628.891 96.457 628.939 96.8021 628.939 97.1992C628.939 97.7396 628.839 98.2572 628.637 98.752C628.441 99.2533 628.145 99.696 627.748 100.08C627.357 100.464 626.866 100.77 626.273 100.998C625.688 101.226 625.004 101.34 624.223 101.34V100.002ZM652.309 93.4785H646.469V91.877H652.309V93.4785ZM658.451 83.459C661.452 86.2389 662.953 89.3314 662.953 92.7363C662.953 93.4395 662.882 94.1686 662.738 94.9238C662.595 95.679 662.351 96.4538 662.006 97.248C661.661 98.0358 661.195 98.8366 660.609 99.6504C660.03 100.464 659.298 101.281 658.412 102.102L657.426 101.096C658.695 99.8392 659.643 98.5273 660.268 97.1602C660.893 95.793 661.205 94.3607 661.205 92.8633C661.205 89.7643 659.945 86.9779 657.426 84.5039L658.451 83.459Z" fill="#C9D1D9"/>
<path d="M484.219 17.4789C483.718 21.2236 483.19 25.1165 481.016 28.3314C480.045 29.768 477.778 32.0407 475.864 30.7098C474.004 29.4159 474.242 23.3872 477.388 24.151C480.194 24.8322 479.97 29.7722 483.556 30.0406C485.084 30.1549 488.324 30.2829 488.324 28.2284" stroke="#C9D1D9" stroke-linecap="round" stroke-linejoin="round"/>
<path d="M505.676 36.0704C507.84 31.5033 510.919 15.7602 517.26 15.0121C519.494 14.7486 518.746 18.8573 518.037 19.8836C516.996 21.3924 512.959 25.1251 514.163 23.7499C517.997 19.3709 522.481 24.4431 519.667 28.6214C518.389 30.5188 517.075 31.4902 514.74 31.07C513.463 30.8403 512.672 29.0048 512.672 30.039" stroke="#C9D1D9" stroke-linecap="round" stroke-linejoin="round"/>
<path d="M341.898 18.5977H338.998V17.2012H343.617V29.584H346.537V31H338.676V29.584H341.898V18.5977ZM357.934 25.9219C357.934 26.7943 357.81 27.556 357.562 28.207C357.322 28.8581 356.986 29.3984 356.557 29.8281C356.127 30.2578 355.619 30.5801 355.033 30.7949C354.447 31.0098 353.812 31.1172 353.129 31.1172C352.816 31.1172 352.504 31.1009 352.191 31.0684C351.885 31.0358 351.573 30.9805 351.254 30.9023V35.0039H349.555V21.1953H351.068L351.176 22.8359C351.664 22.1654 352.185 21.6966 352.738 21.4297C353.292 21.1562 353.891 21.0195 354.535 21.0195C355.095 21.0195 355.587 21.1367 356.01 21.3711C356.433 21.6055 356.788 21.9375 357.074 22.3672C357.361 22.7904 357.576 23.3047 357.719 23.9102C357.862 24.5091 357.934 25.1797 357.934 25.9219ZM356.195 26C356.195 25.4857 356.156 25.0137 356.078 24.584C356.007 24.1543 355.889 23.7865 355.727 23.4805C355.564 23.1745 355.355 22.9368 355.102 22.7676C354.848 22.5918 354.545 22.5039 354.193 22.5039C353.979 22.5039 353.76 22.5397 353.539 22.6113C353.318 22.6764 353.087 22.7904 352.846 22.9531C352.611 23.1094 352.361 23.321 352.094 23.5879C351.833 23.8483 351.553 24.1738 351.254 24.5645V29.3203C351.566 29.4505 351.895 29.5547 352.24 29.6328C352.585 29.7044 352.924 29.7402 353.256 29.7402C354.174 29.7402 354.893 29.431 355.414 28.8125C355.935 28.1875 356.195 27.25 356.195 26ZM369.086 26.0195C369.086 26.7812 368.979 27.4811 368.764 28.1191C368.549 28.7507 368.24 29.2943 367.836 29.75C367.432 30.1992 366.941 30.5508 366.361 30.8047C365.782 31.0521 365.124 31.1758 364.389 31.1758C363.686 31.1758 363.054 31.0684 362.494 30.8535C361.941 30.6322 361.469 30.3099 361.078 29.8867C360.694 29.4635 360.398 28.9395 360.189 28.3145C359.988 27.6895 359.887 26.9701 359.887 26.1562C359.887 25.3945 359.994 24.7012 360.209 24.0762C360.424 23.4447 360.733 22.9043 361.137 22.4551C361.54 21.9993 362.032 21.6478 362.611 21.4004C363.191 21.1465 363.848 21.0195 364.584 21.0195C365.287 21.0195 365.915 21.1302 366.469 21.3516C367.029 21.5664 367.501 21.8854 367.885 22.3086C368.275 22.7253 368.572 23.2461 368.773 23.8711C368.982 24.4961 369.086 25.2122 369.086 26.0195ZM367.348 26.0977C367.348 25.4922 367.279 24.9648 367.143 24.5156C367.012 24.0599 366.824 23.6823 366.576 23.3828C366.329 23.0768 366.026 22.849 365.668 22.6992C365.316 22.543 364.923 22.4648 364.486 22.4648C363.979 22.4648 363.542 22.5658 363.178 22.7676C362.82 22.9629 362.523 23.2266 362.289 23.5586C362.061 23.8906 361.892 24.278 361.781 24.7207C361.677 25.1569 361.625 25.6159 361.625 26.0977C361.625 26.7031 361.69 27.2337 361.82 27.6895C361.957 28.1452 362.149 28.526 362.396 28.832C362.644 29.1315 362.943 29.3594 363.295 29.5156C363.646 29.6654 364.044 29.7402 364.486 29.7402C364.994 29.7402 365.427 29.6426 365.785 29.4473C366.15 29.2454 366.446 28.9785 366.674 28.6465C366.908 28.3145 367.077 27.9303 367.182 27.4941C367.292 27.0514 367.348 26.5859 367.348 26.0977ZM371.947 21.1953H373.5L373.549 23.002C374.128 22.3053 374.698 21.8008 375.258 21.4883C375.824 21.1758 376.394 21.0195 376.967 21.0195C377.982 21.0195 378.751 21.3483 379.271 22.0059C379.799 22.6634 380.043 23.64 380.004 24.9355H378.285C378.305 24.0762 378.178 23.4544 377.904 23.0703C377.637 22.6797 377.243 22.4844 376.723 22.4844C376.495 22.4844 376.264 22.5267 376.029 22.6113C375.801 22.6895 375.564 22.8197 375.316 23.002C375.076 23.1777 374.818 23.4056 374.545 23.6855C374.271 23.9655 373.979 24.304 373.666 24.7012V31H371.947V21.1953ZM388.842 31L388.803 29.6816C388.269 30.209 387.725 30.5898 387.172 30.8242C386.625 31.0586 386.049 31.1758 385.443 31.1758C384.883 31.1758 384.405 31.1042 384.008 30.9609C383.611 30.8177 383.282 30.6224 383.021 30.375C382.768 30.1211 382.579 29.8249 382.455 29.4863C382.338 29.1478 382.279 28.7799 382.279 28.3828C382.279 27.3997 382.644 26.6315 383.373 26.0781C384.109 25.5182 385.193 25.2383 386.625 25.2383H388.656V24.3789C388.656 23.7995 388.471 23.3372 388.1 22.9922C387.729 22.6406 387.162 22.4648 386.4 22.4648C385.847 22.4648 385.3 22.5267 384.76 22.6504C384.226 22.7741 383.673 22.9499 383.1 23.1777V21.6445C383.314 21.5664 383.552 21.4915 383.812 21.4199C384.079 21.3418 384.359 21.2734 384.652 21.2148C384.945 21.1562 385.251 21.1107 385.57 21.0781C385.889 21.0391 386.212 21.0195 386.537 21.0195C387.13 21.0195 387.663 21.0846 388.139 21.2148C388.614 21.3451 389.014 21.5436 389.34 21.8105C389.672 22.0775 389.926 22.4128 390.102 22.8164C390.277 23.2201 390.365 23.6953 390.365 24.2422V31H388.842ZM388.656 26.5371H386.498C386.075 26.5371 385.71 26.5794 385.404 26.6641C385.098 26.7487 384.848 26.8691 384.652 27.0254C384.457 27.1816 384.311 27.3704 384.213 27.5918C384.122 27.8066 384.076 28.0508 384.076 28.3242C384.076 28.513 384.105 28.6953 384.164 28.8711C384.223 29.0404 384.317 29.1934 384.447 29.3301C384.577 29.4603 384.747 29.5645 384.955 29.6426C385.163 29.7207 385.417 29.7598 385.717 29.7598C386.107 29.7598 386.553 29.6426 387.055 29.4082C387.562 29.1673 388.096 28.7897 388.656 28.2754V26.5371ZM392.621 21.1953H394.555L396.957 27.6797L397.475 29.2617L398.012 27.6406L400.395 21.1953H402.26L398.412 31H396.459L392.621 21.1953ZM404.535 21.1953H406.049L406.117 22.7773C406.404 22.4388 406.68 22.1589 406.947 21.9375C407.214 21.7096 407.475 21.5273 407.729 21.3906C407.989 21.2539 408.253 21.1595 408.52 21.1074C408.786 21.0488 409.063 21.0195 409.35 21.0195C410.359 21.0195 411.12 21.319 411.635 21.918C412.156 22.5104 412.416 23.4056 412.416 24.6035V31H410.717V24.7402C410.717 23.972 410.574 23.4056 410.287 23.041C410.001 22.6699 409.574 22.4844 409.008 22.4844C408.799 22.4844 408.594 22.5169 408.393 22.582C408.197 22.6406 407.992 22.748 407.777 22.9043C407.562 23.054 407.328 23.2591 407.074 23.5195C406.827 23.7799 406.547 24.1055 406.234 24.4961V31H404.535V21.1953ZM421.83 31L421.791 29.6816C421.257 30.209 420.714 30.5898 420.16 30.8242C419.613 31.0586 419.037 31.1758 418.432 31.1758C417.872 31.1758 417.393 31.1042 416.996 30.9609C416.599 30.8177 416.27 30.6224 416.01 30.375C415.756 30.1211 415.567 29.8249 415.443 29.4863C415.326 29.1478 415.268 28.7799 415.268 28.3828C415.268 27.3997 415.632 26.6315 416.361 26.0781C417.097 25.5182 418.181 25.2383 419.613 25.2383H421.645V24.3789C421.645 23.7995 421.459 23.3372 421.088 22.9922C420.717 22.6406 420.15 22.4648 419.389 22.4648C418.835 22.4648 418.288 22.5267 417.748 22.6504C417.214 22.7741 416.661 22.9499 416.088 23.1777V21.6445C416.303 21.5664 416.54 21.4915 416.801 21.4199C417.068 21.3418 417.348 21.2734 417.641 21.2148C417.934 21.1562 418.24 21.1107 418.559 21.0781C418.878 21.0391 419.2 21.0195 419.525 21.0195C420.118 21.0195 420.652 21.0846 421.127 21.2148C421.602 21.3451 422.003 21.5436 422.328 21.8105C422.66 22.0775 422.914 22.4128 423.09 22.8164C423.266 23.2201 423.354 23.6953 423.354 24.2422V31H421.83ZM421.645 26.5371H419.486C419.063 26.5371 418.699 26.5794 418.393 26.6641C418.087 26.7487 417.836 26.8691 417.641 27.0254C417.445 27.1816 417.299 27.3704 417.201 27.5918C417.11 27.8066 417.064 28.0508 417.064 28.3242C417.064 28.513 417.094 28.6953 417.152 28.8711C417.211 29.0404 417.305 29.1934 417.436 29.3301C417.566 29.4603 417.735 29.5645 417.943 29.6426C418.152 29.7207 418.406 29.7598 418.705 29.7598C419.096 29.7598 419.542 29.6426 420.043 29.4082C420.551 29.1673 421.085 28.7897 421.645 28.2754V26.5371ZM426.527 21.1953H428.041L428.109 22.7773C428.396 22.4388 428.673 22.1589 428.939 21.9375C429.206 21.7096 429.467 21.5273 429.721 21.3906C429.981 21.2539 430.245 21.1595 430.512 21.1074C430.779 21.0488 431.055 21.0195 431.342 21.0195C432.351 21.0195 433.113 21.319 433.627 21.918C434.148 22.5104 434.408 23.4056 434.408 24.6035V31H432.709V24.7402C432.709 23.972 432.566 23.4056 432.279 23.041C431.993 22.6699 431.566 22.4844 431 22.4844C430.792 22.4844 430.587 22.5169 430.385 22.582C430.189 22.6406 429.984 22.748 429.77 22.9043C429.555 23.054 429.32 23.2591 429.066 23.5195C428.819 23.7799 428.539 24.1055 428.227 24.4961V31H426.527V21.1953ZM444.164 21.1953V30.8242C444.164 31.5078 444.066 32.1133 443.871 32.6406C443.676 33.1745 443.396 33.6237 443.031 33.9883C442.667 34.3529 442.217 34.6296 441.684 34.8184C441.156 35.0072 440.561 35.1016 439.896 35.1016C439.415 35.1016 438.943 35.056 438.48 34.9648C438.025 34.8802 437.611 34.7598 437.24 34.6035V32.9824C437.442 33.0866 437.657 33.181 437.885 33.2656C438.119 33.3503 438.357 33.4219 438.598 33.4805C438.845 33.5391 439.092 33.5814 439.34 33.6074C439.587 33.64 439.828 33.6562 440.062 33.6562C440.805 33.6562 441.387 33.4219 441.811 32.9531C442.234 32.4844 442.445 31.7943 442.445 30.8828V22.6016H437.641V21.1953H444.164ZM443.139 17.084C443.327 17.084 443.503 17.1198 443.666 17.1914C443.829 17.2565 443.969 17.3509 444.086 17.4746C444.21 17.5983 444.304 17.7415 444.369 17.9043C444.441 18.0671 444.477 18.2396 444.477 18.4219C444.477 18.6107 444.441 18.7865 444.369 18.9492C444.304 19.1055 444.21 19.2454 444.086 19.3691C443.969 19.4928 443.829 19.5905 443.666 19.6621C443.503 19.7272 443.327 19.7598 443.139 19.7598C442.95 19.7598 442.774 19.7272 442.611 19.6621C442.449 19.5905 442.305 19.4928 442.182 19.3691C442.064 19.2454 441.97 19.1055 441.898 18.9492C441.833 18.7865 441.801 18.6107 441.801 18.4219C441.801 18.2396 441.833 18.0671 441.898 17.9043C441.97 17.7415 442.064 17.5983 442.182 17.4746C442.305 17.3509 442.449 17.2565 442.611 17.1914C442.774 17.1198 442.95 17.084 443.139 17.084ZM456.801 25.5801C456.801 25.821 456.798 26.0228 456.791 26.1855C456.785 26.3483 456.775 26.5013 456.762 26.6445H449.877C449.877 27.6471 450.157 28.4186 450.717 28.959C451.277 29.4928 452.084 29.7598 453.139 29.7598C453.425 29.7598 453.712 29.75 453.998 29.7305C454.285 29.7044 454.561 29.6719 454.828 29.6328C455.095 29.5938 455.349 29.5514 455.59 29.5059C455.837 29.4538 456.065 29.3984 456.273 29.3398V30.7363C455.811 30.8665 455.287 30.9707 454.701 31.0488C454.122 31.1335 453.52 31.1758 452.895 31.1758C452.055 31.1758 451.332 31.0618 450.727 30.834C450.121 30.6061 449.623 30.2773 449.232 29.8477C448.848 29.4115 448.562 28.8809 448.373 28.2559C448.191 27.6243 448.1 26.9115 448.1 26.1172C448.1 25.4271 448.197 24.776 448.393 24.1641C448.594 23.5456 448.884 23.0052 449.262 22.543C449.646 22.0742 450.115 21.7031 450.668 21.4297C451.221 21.1562 451.85 21.0195 452.553 21.0195C453.236 21.0195 453.842 21.127 454.369 21.3418C454.896 21.5566 455.339 21.8626 455.697 22.2598C456.062 22.6504 456.335 23.1289 456.518 23.6953C456.706 24.2552 456.801 24.8835 456.801 25.5801ZM455.033 25.3359C455.053 24.8997 455.01 24.5026 454.906 24.1445C454.802 23.7799 454.639 23.4674 454.418 23.207C454.203 22.9466 453.933 22.7448 453.607 22.6016C453.282 22.4518 452.904 22.377 452.475 22.377C452.104 22.377 451.765 22.4486 451.459 22.5918C451.153 22.735 450.889 22.9368 450.668 23.1973C450.447 23.4577 450.268 23.7702 450.131 24.1348C449.994 24.4993 449.91 24.8997 449.877 25.3359H455.033ZM465.385 35.1016C462.383 32.3216 460.883 29.2487 460.883 25.8828C460.883 25.0951 460.961 24.3105 461.117 23.5293C461.28 22.7415 461.537 21.9538 461.889 21.166C462.247 20.3783 462.715 19.5905 463.295 18.8027C463.881 18.015 464.59 17.2337 465.424 16.459L466.41 17.4648C463.884 19.9583 462.621 22.722 462.621 25.7559C462.621 27.2663 462.94 28.7181 463.578 30.1113C464.216 31.5046 465.16 32.8197 466.41 34.0566L465.385 35.1016ZM493.266 33.002C493.598 33.015 493.92 32.9857 494.232 32.9141C494.545 32.8424 494.818 32.735 495.053 32.5918C495.294 32.4551 495.486 32.2826 495.629 32.0742C495.772 31.8659 495.844 31.6283 495.844 31.3613C495.844 31.0879 495.795 30.8665 495.697 30.6973C495.606 30.528 495.502 30.3717 495.385 30.2285C495.268 30.0853 495.16 29.9323 495.062 29.7695C494.971 29.6068 494.926 29.3887 494.926 29.1152C494.926 28.9785 494.952 28.8353 495.004 28.6855C495.056 28.5358 495.134 28.3991 495.238 28.2754C495.349 28.1517 495.486 28.0508 495.648 27.9727C495.818 27.8945 496.016 27.8555 496.244 27.8555C496.472 27.8555 496.69 27.9043 496.898 28.002C497.113 28.0931 497.299 28.2363 497.455 28.4316C497.618 28.627 497.745 28.8711 497.836 29.1641C497.934 29.457 497.982 29.8021 497.982 30.1992C497.982 30.7396 497.882 31.2572 497.68 31.752C497.484 32.2533 497.188 32.696 496.791 33.0801C496.4 33.4642 495.909 33.7702 495.316 33.998C494.73 34.2259 494.047 34.3398 493.266 34.3398V33.002ZM527.494 16.459C530.495 19.2389 531.996 22.3314 531.996 25.7363C531.996 26.4395 531.924 27.1686 531.781 27.9238C531.638 28.679 531.394 29.4538 531.049 30.248C530.704 31.0358 530.238 31.8366 529.652 32.6504C529.073 33.4642 528.34 34.2812 527.455 35.1016L526.469 34.0957C527.738 32.8392 528.686 31.5273 529.311 30.1602C529.936 28.793 530.248 27.3607 530.248 25.8633C530.248 22.7643 528.988 19.9779 526.469 17.5039L527.494 16.459ZM578.09 26.4199H574.252V30.4043H572.572V26.4199H568.734V24.9355H572.572V20.9805H574.252V24.9355H578.09V26.4199ZM599.232 28.3242C599.232 28.6693 599.174 28.9785 599.057 29.252C598.939 29.5254 598.78 29.7695 598.578 29.9844C598.376 30.1927 598.142 30.3717 597.875 30.5215C597.608 30.6712 597.322 30.7949 597.016 30.8926C596.716 30.9902 596.407 31.0618 596.088 31.1074C595.769 31.153 595.456 31.1758 595.15 31.1758C594.486 31.1758 593.874 31.1465 593.314 31.0879C592.761 31.0293 592.217 30.9349 591.684 30.8047V29.2422C592.257 29.4049 592.826 29.5286 593.393 29.6133C593.959 29.6979 594.522 29.7402 595.082 29.7402C595.896 29.7402 596.498 29.6296 596.889 29.4082C597.279 29.1868 597.475 28.8711 597.475 28.4609C597.475 28.2852 597.442 28.1289 597.377 27.9922C597.318 27.849 597.208 27.7155 597.045 27.5918C596.882 27.4616 596.628 27.3281 596.283 27.1914C595.945 27.0547 595.479 26.8984 594.887 26.7227C594.444 26.5924 594.034 26.446 593.656 26.2832C593.285 26.1139 592.963 25.9154 592.689 25.6875C592.416 25.4596 592.201 25.1927 592.045 24.8867C591.889 24.5807 591.811 24.2194 591.811 23.8027C591.811 23.5293 591.872 23.2298 591.996 22.9043C592.126 22.5788 592.344 22.276 592.65 21.9961C592.956 21.7161 593.37 21.485 593.891 21.3027C594.411 21.1139 595.062 21.0195 595.844 21.0195C596.228 21.0195 596.654 21.0423 597.123 21.0879C597.592 21.127 598.08 21.1986 598.588 21.3027V22.8164C598.054 22.6862 597.546 22.5918 597.064 22.5332C596.589 22.4681 596.176 22.4355 595.824 22.4355C595.401 22.4355 595.043 22.4681 594.75 22.5332C594.464 22.5983 594.229 22.6895 594.047 22.8066C593.871 22.9173 593.744 23.0508 593.666 23.207C593.588 23.3568 593.549 23.5195 593.549 23.6953C593.549 23.8711 593.581 24.0306 593.646 24.1738C593.718 24.3171 593.845 24.457 594.027 24.5938C594.216 24.724 594.477 24.8574 594.809 24.9941C595.141 25.1243 595.574 25.2676 596.107 25.4238C596.687 25.5931 597.175 25.7721 597.572 25.9609C597.969 26.1432 598.292 26.3483 598.539 26.5762C598.786 26.804 598.962 27.0612 599.066 27.3477C599.177 27.6341 599.232 27.9596 599.232 28.3242ZM608.334 35.1016C605.333 32.3216 603.832 29.2487 603.832 25.8828C603.832 25.0951 603.91 24.3105 604.066 23.5293C604.229 22.7415 604.486 21.9538 604.838 21.166C605.196 20.3783 605.665 19.5905 606.244 18.8027C606.83 18.015 607.54 17.2337 608.373 16.459L609.359 17.4648C606.833 19.9583 605.57 22.722 605.57 25.7559C605.57 27.2663 605.889 28.7181 606.527 30.1113C607.165 31.5046 608.109 32.8197 609.359 34.0566L608.334 35.1016ZM622.299 31H620.043L617.396 27.2598L614.779 31H612.582L616.381 26.0781L612.758 21.1953H614.936L617.514 24.9648L620.043 21.1953H622.143L618.461 26.1172L622.299 31ZM625.219 33.002C625.551 33.015 625.873 32.9857 626.186 32.9141C626.498 32.8424 626.771 32.735 627.006 32.5918C627.247 32.4551 627.439 32.2826 627.582 32.0742C627.725 31.8659 627.797 31.6283 627.797 31.3613C627.797 31.0879 627.748 30.8665 627.65 30.6973C627.559 30.528 627.455 30.3717 627.338 30.2285C627.221 30.0853 627.113 29.9323 627.016 29.7695C626.924 29.6068 626.879 29.3887 626.879 29.1152C626.879 28.9785 626.905 28.8353 626.957 28.6855C627.009 28.5358 627.087 28.3991 627.191 28.2754C627.302 28.1517 627.439 28.0508 627.602 27.9727C627.771 27.8945 627.969 27.8555 628.197 27.8555C628.425 27.8555 628.643 27.9043 628.852 28.002C629.066 28.0931 629.252 28.2363 629.408 28.4316C629.571 28.627 629.698 28.8711 629.789 29.1641C629.887 29.457 629.936 29.8021 629.936 30.1992C629.936 30.7396 629.835 31.2572 629.633 31.752C629.438 32.2533 629.141 32.696 628.744 33.0801C628.354 33.4642 627.862 33.7702 627.27 33.998C626.684 34.2259 626 34.3398 625.219 34.3398V33.002ZM655.17 21.1953L651.83 29.9648C651.485 30.8568 651.127 31.625 650.756 32.2695C650.391 32.9141 649.991 33.4414 649.555 33.8516C649.118 34.2682 648.64 34.5742 648.119 34.7695C647.598 34.9648 647.016 35.0625 646.371 35.0625C646.202 35.0625 646.049 35.0592 645.912 35.0527C645.775 35.0462 645.626 35.0365 645.463 35.0234V33.4805C645.606 33.5 645.762 33.5163 645.932 33.5293C646.101 33.5488 646.28 33.5586 646.469 33.5586C646.781 33.5586 647.071 33.513 647.338 33.4219C647.611 33.3307 647.868 33.181 648.109 32.9727C648.35 32.7708 648.581 32.5072 648.803 32.1816C649.024 31.8561 649.239 31.4622 649.447 31L645.531 21.1953H647.465L649.945 27.6797L650.443 29.2031L651.01 27.6406L653.305 21.1953H655.17ZM659.447 16.459C662.449 19.2389 663.949 22.3314 663.949 25.7363C663.949 26.4395 663.878 27.1686 663.734 27.9238C663.591 28.679 663.347 29.4538 663.002 30.248C662.657 31.0358 662.191 31.8366 661.605 32.6504C661.026 33.4642 660.294 34.2812 659.408 35.1016L658.422 34.0957C659.691 32.8392 660.639 31.5273 661.264 30.1602C661.889 28.793 662.201 27.3607 662.201 25.8633C662.201 22.7643 660.941 19.9779 658.422 17.5039L659.447 16.459Z" fill="#C9D1D9"/>
<path d="M491.501 50.5353C490.999 54.28 490.471 58.1729 488.298 61.3878C487.327 62.8244 485.06 65.0971 483.146 63.7662C481.285 62.4723 481.524 56.4436 484.67 57.2074C487.476 57.8886 487.252 62.8286 490.837 63.097C492.365 63.2113 495.606 63.3393 495.606 61.2848" stroke="#C9D1D9" stroke-linecap="round" stroke-linejoin="round"/>
<path d="M509.724 64.0564H507.468L504.822 60.3162L502.205 64.0564H500.008L503.806 59.1345L500.183 54.2517H502.361L504.939 58.0212L507.468 54.2517H509.568L505.886 59.1736L509.724 64.0564Z" fill="#C9D1D9"/>
<path d="M529.07 69.1268C531.234 64.5596 534.314 48.8166 540.654 48.0685C542.889 47.8049 542.14 51.9137 541.432 52.94C540.39 54.4488 536.354 58.1815 537.558 56.8063C541.392 52.4273 545.875 57.4994 543.061 61.6778C541.784 63.5752 540.47 64.5466 538.134 64.1264C536.857 63.8967 536.066 62.0612 536.066 63.0954" stroke="#C9D1D9" stroke-linecap="round" stroke-linejoin="round"/>
<path d="M340.902 51.5977H338.002V50.2012H342.621V62.584H345.541V64H337.68V62.584H340.902V51.5977ZM356.938 58.9219C356.938 59.7943 356.814 60.556 356.566 61.207C356.326 61.8581 355.99 62.3984 355.561 62.8281C355.131 63.2578 354.623 63.5801 354.037 63.7949C353.451 64.0098 352.816 64.1172 352.133 64.1172C351.82 64.1172 351.508 64.1009 351.195 64.0684C350.889 64.0358 350.577 63.9805 350.258 63.9023V68.0039H348.559V54.1953H350.072L350.18 55.8359C350.668 55.1654 351.189 54.6966 351.742 54.4297C352.296 54.1562 352.895 54.0195 353.539 54.0195C354.099 54.0195 354.59 54.1367 355.014 54.3711C355.437 54.6055 355.792 54.9375 356.078 55.3672C356.365 55.7904 356.579 56.3047 356.723 56.9102C356.866 57.5091 356.938 58.1797 356.938 58.9219ZM355.199 59C355.199 58.4857 355.16 58.0137 355.082 57.584C355.01 57.1543 354.893 56.7865 354.73 56.4805C354.568 56.1745 354.359 55.9368 354.105 55.7676C353.852 55.5918 353.549 55.5039 353.197 55.5039C352.982 55.5039 352.764 55.5397 352.543 55.6113C352.322 55.6764 352.09 55.7904 351.85 55.9531C351.615 56.1094 351.365 56.321 351.098 56.5879C350.837 56.8483 350.557 57.1738 350.258 57.5645V62.3203C350.57 62.4505 350.899 62.5547 351.244 62.6328C351.589 62.7044 351.928 62.7402 352.26 62.7402C353.178 62.7402 353.897 62.431 354.418 61.8125C354.939 61.1875 355.199 60.25 355.199 59ZM368.09 59.0195C368.09 59.7812 367.982 60.4811 367.768 61.1191C367.553 61.7507 367.243 62.2943 366.84 62.75C366.436 63.1992 365.945 63.5508 365.365 63.8047C364.786 64.0521 364.128 64.1758 363.393 64.1758C362.689 64.1758 362.058 64.0684 361.498 63.8535C360.945 63.6322 360.473 63.3099 360.082 62.8867C359.698 62.4635 359.402 61.9395 359.193 61.3145C358.992 60.6895 358.891 59.9701 358.891 59.1562C358.891 58.3945 358.998 57.7012 359.213 57.0762C359.428 56.4447 359.737 55.9043 360.141 55.4551C360.544 54.9993 361.036 54.6478 361.615 54.4004C362.195 54.1465 362.852 54.0195 363.588 54.0195C364.291 54.0195 364.919 54.1302 365.473 54.3516C366.033 54.5664 366.505 54.8854 366.889 55.3086C367.279 55.7253 367.576 56.2461 367.777 56.8711C367.986 57.4961 368.09 58.2122 368.09 59.0195ZM366.352 59.0977C366.352 58.4922 366.283 57.9648 366.146 57.5156C366.016 57.0599 365.827 56.6823 365.58 56.3828C365.333 56.0768 365.03 55.849 364.672 55.6992C364.32 55.543 363.926 55.4648 363.49 55.4648C362.982 55.4648 362.546 55.5658 362.182 55.7676C361.824 55.9629 361.527 56.2266 361.293 56.5586C361.065 56.8906 360.896 57.278 360.785 57.7207C360.681 58.1569 360.629 58.6159 360.629 59.0977C360.629 59.7031 360.694 60.2337 360.824 60.6895C360.961 61.1452 361.153 61.526 361.4 61.832C361.648 62.1315 361.947 62.3594 362.299 62.5156C362.65 62.6654 363.048 62.7402 363.49 62.7402C363.998 62.7402 364.431 62.6426 364.789 62.4473C365.154 62.2454 365.45 61.9785 365.678 61.6465C365.912 61.3145 366.081 60.9303 366.186 60.4941C366.296 60.0514 366.352 59.5859 366.352 59.0977ZM370.951 54.1953H372.504L372.553 56.002C373.132 55.3053 373.702 54.8008 374.262 54.4883C374.828 54.1758 375.398 54.0195 375.971 54.0195C376.986 54.0195 377.755 54.3483 378.275 55.0059C378.803 55.6634 379.047 56.64 379.008 57.9355H377.289C377.309 57.0762 377.182 56.4544 376.908 56.0703C376.641 55.6797 376.247 55.4844 375.727 55.4844C375.499 55.4844 375.268 55.5267 375.033 55.6113C374.805 55.6895 374.568 55.8197 374.32 56.002C374.079 56.1777 373.822 56.4056 373.549 56.6855C373.275 56.9655 372.982 57.304 372.67 57.7012V64H370.951V54.1953ZM387.846 64L387.807 62.6816C387.273 63.209 386.729 63.5898 386.176 63.8242C385.629 64.0586 385.053 64.1758 384.447 64.1758C383.887 64.1758 383.409 64.1042 383.012 63.9609C382.615 63.8177 382.286 63.6224 382.025 63.375C381.771 63.1211 381.583 62.8249 381.459 62.4863C381.342 62.1478 381.283 61.7799 381.283 61.3828C381.283 60.3997 381.648 59.6315 382.377 59.0781C383.113 58.5182 384.197 58.2383 385.629 58.2383H387.66V57.3789C387.66 56.7995 387.475 56.3372 387.104 55.9922C386.732 55.6406 386.166 55.4648 385.404 55.4648C384.851 55.4648 384.304 55.5267 383.764 55.6504C383.23 55.7741 382.676 55.9499 382.104 56.1777V54.6445C382.318 54.5664 382.556 54.4915 382.816 54.4199C383.083 54.3418 383.363 54.2734 383.656 54.2148C383.949 54.1562 384.255 54.1107 384.574 54.0781C384.893 54.0391 385.215 54.0195 385.541 54.0195C386.133 54.0195 386.667 54.0846 387.143 54.2148C387.618 54.3451 388.018 54.5436 388.344 54.8105C388.676 55.0775 388.93 55.4128 389.105 55.8164C389.281 56.2201 389.369 56.6953 389.369 57.2422V64H387.846ZM387.66 59.5371H385.502C385.079 59.5371 384.714 59.5794 384.408 59.6641C384.102 59.7487 383.852 59.8691 383.656 60.0254C383.461 60.1816 383.314 60.3704 383.217 60.5918C383.126 60.8066 383.08 61.0508 383.08 61.3242C383.08 61.513 383.109 61.6953 383.168 61.8711C383.227 62.0404 383.321 62.1934 383.451 62.3301C383.581 62.4603 383.751 62.5645 383.959 62.6426C384.167 62.7207 384.421 62.7598 384.721 62.7598C385.111 62.7598 385.557 62.6426 386.059 62.4082C386.566 62.1673 387.1 61.7897 387.66 61.2754V59.5371ZM391.625 54.1953H393.559L395.961 60.6797L396.479 62.2617L397.016 60.6406L399.398 54.1953H401.264L397.416 64H395.463L391.625 54.1953ZM409.838 64L409.799 62.6816C409.265 63.209 408.721 63.5898 408.168 63.8242C407.621 64.0586 407.045 64.1758 406.439 64.1758C405.88 64.1758 405.401 64.1042 405.004 63.9609C404.607 63.8177 404.278 63.6224 404.018 63.375C403.764 63.1211 403.575 62.8249 403.451 62.4863C403.334 62.1478 403.275 61.7799 403.275 61.3828C403.275 60.3997 403.64 59.6315 404.369 59.0781C405.105 58.5182 406.189 58.2383 407.621 58.2383H409.652V57.3789C409.652 56.7995 409.467 56.3372 409.096 55.9922C408.725 55.6406 408.158 55.4648 407.396 55.4648C406.843 55.4648 406.296 55.5267 405.756 55.6504C405.222 55.7741 404.669 55.9499 404.096 56.1777V54.6445C404.311 54.5664 404.548 54.4915 404.809 54.4199C405.076 54.3418 405.355 54.2734 405.648 54.2148C405.941 54.1562 406.247 54.1107 406.566 54.0781C406.885 54.0391 407.208 54.0195 407.533 54.0195C408.126 54.0195 408.66 54.0846 409.135 54.2148C409.61 54.3451 410.01 54.5436 410.336 54.8105C410.668 55.0775 410.922 55.4128 411.098 55.8164C411.273 56.2201 411.361 56.6953 411.361 57.2422V64H409.838ZM409.652 59.5371H407.494C407.071 59.5371 406.706 59.5794 406.4 59.6641C406.094 59.7487 405.844 59.8691 405.648 60.0254C405.453 60.1816 405.307 60.3704 405.209 60.5918C405.118 60.8066 405.072 61.0508 405.072 61.3242C405.072 61.513 405.102 61.6953 405.16 61.8711C405.219 62.0404 405.313 62.1934 405.443 62.3301C405.574 62.4603 405.743 62.5645 405.951 62.6426C406.16 62.7207 406.413 62.7598 406.713 62.7598C407.104 62.7598 407.549 62.6426 408.051 62.4082C408.559 62.1673 409.092 61.7897 409.652 61.2754V59.5371ZM414.535 54.1953H416.049L416.117 55.7773C416.404 55.4388 416.68 55.1589 416.947 54.9375C417.214 54.7096 417.475 54.5273 417.729 54.3906C417.989 54.2539 418.253 54.1595 418.52 54.1074C418.786 54.0488 419.063 54.0195 419.35 54.0195C420.359 54.0195 421.12 54.319 421.635 54.918C422.156 55.5104 422.416 56.4056 422.416 57.6035V64H420.717V57.7402C420.717 56.972 420.574 56.4056 420.287 56.041C420.001 55.6699 419.574 55.4844 419.008 55.4844C418.799 55.4844 418.594 55.5169 418.393 55.582C418.197 55.6406 417.992 55.748 417.777 55.9043C417.562 56.054 417.328 56.2591 417.074 56.5195C416.827 56.7799 416.547 57.1055 416.234 57.4961V64H414.535V54.1953ZM432.172 54.1953V63.8242C432.172 64.5078 432.074 65.1133 431.879 65.6406C431.684 66.1745 431.404 66.6237 431.039 66.9883C430.674 67.3529 430.225 67.6296 429.691 67.8184C429.164 68.0072 428.568 68.1016 427.904 68.1016C427.423 68.1016 426.951 68.056 426.488 67.9648C426.033 67.8802 425.619 67.7598 425.248 67.6035V65.9824C425.45 66.0866 425.665 66.181 425.893 66.2656C426.127 66.3503 426.365 66.4219 426.605 66.4805C426.853 66.5391 427.1 66.5814 427.348 66.6074C427.595 66.64 427.836 66.6562 428.07 66.6562C428.812 66.6562 429.395 66.4219 429.818 65.9531C430.242 65.4844 430.453 64.7943 430.453 63.8828V55.6016H425.648V54.1953H432.172ZM431.146 50.084C431.335 50.084 431.511 50.1198 431.674 50.1914C431.837 50.2565 431.977 50.3509 432.094 50.4746C432.217 50.5983 432.312 50.7415 432.377 50.9043C432.449 51.0671 432.484 51.2396 432.484 51.4219C432.484 51.6107 432.449 51.7865 432.377 51.9492C432.312 52.1055 432.217 52.2454 432.094 52.3691C431.977 52.4928 431.837 52.5905 431.674 52.6621C431.511 52.7272 431.335 52.7598 431.146 52.7598C430.958 52.7598 430.782 52.7272 430.619 52.6621C430.456 52.5905 430.313 52.4928 430.189 52.3691C430.072 52.2454 429.978 52.1055 429.906 51.9492C429.841 51.7865 429.809 51.6107 429.809 51.4219C429.809 51.2396 429.841 51.0671 429.906 50.9043C429.978 50.7415 430.072 50.5983 430.189 50.4746C430.313 50.3509 430.456 50.2565 430.619 50.1914C430.782 50.1198 430.958 50.084 431.146 50.084ZM436.527 54.1953H438.041L438.109 55.7773C438.396 55.4388 438.673 55.1589 438.939 54.9375C439.206 54.7096 439.467 54.5273 439.721 54.3906C439.981 54.2539 440.245 54.1595 440.512 54.1074C440.779 54.0488 441.055 54.0195 441.342 54.0195C442.351 54.0195 443.113 54.319 443.627 54.918C444.148 55.5104 444.408 56.4056 444.408 57.6035V64H442.709V57.7402C442.709 56.972 442.566 56.4056 442.279 56.041C441.993 55.6699 441.566 55.4844 441 55.4844C440.792 55.4844 440.587 55.5169 440.385 55.582C440.189 55.6406 439.984 55.748 439.77 55.9043C439.555 56.054 439.32 56.2591 439.066 56.5195C438.819 56.7799 438.539 57.1055 438.227 57.4961V64H436.527V54.1953ZM454.164 54.1953V63.8242C454.164 64.5078 454.066 65.1133 453.871 65.6406C453.676 66.1745 453.396 66.6237 453.031 66.9883C452.667 67.3529 452.217 67.6296 451.684 67.8184C451.156 68.0072 450.561 68.1016 449.896 68.1016C449.415 68.1016 448.943 68.056 448.48 67.9648C448.025 67.8802 447.611 67.7598 447.24 67.6035V65.9824C447.442 66.0866 447.657 66.181 447.885 66.2656C448.119 66.3503 448.357 66.4219 448.598 66.4805C448.845 66.5391 449.092 66.5814 449.34 66.6074C449.587 66.64 449.828 66.6562 450.062 66.6562C450.805 66.6562 451.387 66.4219 451.811 65.9531C452.234 65.4844 452.445 64.7943 452.445 63.8828V55.6016H447.641V54.1953H454.164ZM453.139 50.084C453.327 50.084 453.503 50.1198 453.666 50.1914C453.829 50.2565 453.969 50.3509 454.086 50.4746C454.21 50.5983 454.304 50.7415 454.369 50.9043C454.441 51.0671 454.477 51.2396 454.477 51.4219C454.477 51.6107 454.441 51.7865 454.369 51.9492C454.304 52.1055 454.21 52.2454 454.086 52.3691C453.969 52.4928 453.829 52.5905 453.666 52.6621C453.503 52.7272 453.327 52.7598 453.139 52.7598C452.95 52.7598 452.774 52.7272 452.611 52.6621C452.449 52.5905 452.305 52.4928 452.182 52.3691C452.064 52.2454 451.97 52.1055 451.898 51.9492C451.833 51.7865 451.801 51.6107 451.801 51.4219C451.801 51.2396 451.833 51.0671 451.898 50.9043C451.97 50.7415 452.064 50.5983 452.182 50.4746C452.305 50.3509 452.449 50.2565 452.611 50.1914C452.774 50.1198 452.95 50.084 453.139 50.084ZM466.801 58.5801C466.801 58.821 466.798 59.0228 466.791 59.1855C466.785 59.3483 466.775 59.5013 466.762 59.6445H459.877C459.877 60.6471 460.157 61.4186 460.717 61.959C461.277 62.4928 462.084 62.7598 463.139 62.7598C463.425 62.7598 463.712 62.75 463.998 62.7305C464.285 62.7044 464.561 62.6719 464.828 62.6328C465.095 62.5938 465.349 62.5514 465.59 62.5059C465.837 62.4538 466.065 62.3984 466.273 62.3398V63.7363C465.811 63.8665 465.287 63.9707 464.701 64.0488C464.122 64.1335 463.52 64.1758 462.895 64.1758C462.055 64.1758 461.332 64.0618 460.727 63.834C460.121 63.6061 459.623 63.2773 459.232 62.8477C458.848 62.4115 458.562 61.8809 458.373 61.2559C458.191 60.6243 458.1 59.9115 458.1 59.1172C458.1 58.4271 458.197 57.776 458.393 57.1641C458.594 56.5456 458.884 56.0052 459.262 55.543C459.646 55.0742 460.115 54.7031 460.668 54.4297C461.221 54.1562 461.85 54.0195 462.553 54.0195C463.236 54.0195 463.842 54.127 464.369 54.3418C464.896 54.5566 465.339 54.8626 465.697 55.2598C466.062 55.6504 466.335 56.1289 466.518 56.6953C466.706 57.2552 466.801 57.8835 466.801 58.5801ZM465.033 58.3359C465.053 57.8997 465.01 57.5026 464.906 57.1445C464.802 56.7799 464.639 56.4674 464.418 56.207C464.203 55.9466 463.933 55.7448 463.607 55.6016C463.282 55.4518 462.904 55.377 462.475 55.377C462.104 55.377 461.765 55.4486 461.459 55.5918C461.153 55.735 460.889 55.9368 460.668 56.1973C460.447 56.4577 460.268 56.7702 460.131 57.1348C459.994 57.4993 459.91 57.8997 459.877 58.3359H465.033ZM475.385 68.1016C472.383 65.3216 470.883 62.2487 470.883 58.8828C470.883 58.0951 470.961 57.3105 471.117 56.5293C471.28 55.7415 471.537 54.9538 471.889 54.166C472.247 53.3783 472.715 52.5905 473.295 51.8027C473.881 51.015 474.59 50.2337 475.424 49.459L476.41 50.4648C473.884 52.9583 472.621 55.722 472.621 58.7559C472.621 60.2663 472.94 61.7181 473.578 63.1113C474.216 64.5046 475.16 65.8197 476.41 67.0566L475.385 68.1016ZM514.262 66.002C514.594 66.015 514.916 65.9857 515.229 65.9141C515.541 65.8424 515.814 65.735 516.049 65.5918C516.29 65.4551 516.482 65.2826 516.625 65.0742C516.768 64.8659 516.84 64.6283 516.84 64.3613C516.84 64.0879 516.791 63.8665 516.693 63.6973C516.602 63.528 516.498 63.3717 516.381 63.2285C516.264 63.0853 516.156 62.9323 516.059 62.7695C515.967 62.6068 515.922 62.3887 515.922 62.1152C515.922 61.9785 515.948 61.8353 516 61.6855C516.052 61.5358 516.13 61.3991 516.234 61.2754C516.345 61.1517 516.482 61.0508 516.645 60.9727C516.814 60.8945 517.012 60.8555 517.24 60.8555C517.468 60.8555 517.686 60.9043 517.895 61.002C518.109 61.0931 518.295 61.2363 518.451 61.4316C518.614 61.627 518.741 61.8711 518.832 62.1641C518.93 62.457 518.979 62.8021 518.979 63.1992C518.979 63.7396 518.878 64.2572 518.676 64.752C518.48 65.2533 518.184 65.696 517.787 66.0801C517.396 66.4642 516.905 66.7702 516.312 66.998C515.727 67.2259 515.043 67.3398 514.262 67.3398V66.002ZM548.49 49.459C551.492 52.2389 552.992 55.3314 552.992 58.7363C552.992 59.4395 552.921 60.1686 552.777 60.9238C552.634 61.679 552.39 62.4538 552.045 63.248C551.7 64.0358 551.234 64.8366 550.648 65.6504C550.069 66.4642 549.337 67.2812 548.451 68.1016L547.465 67.0957C548.734 65.8392 549.682 64.5273 550.307 63.1602C550.932 61.793 551.244 60.3607 551.244 58.8633C551.244 55.7643 549.984 52.9779 547.465 50.5039L548.49 49.459ZM577.094 59.4199H573.256V63.4043H571.576V59.4199H567.738V57.9355H571.576V53.9805H573.256V57.9355H577.094V59.4199ZM598.236 61.3242C598.236 61.6693 598.178 61.9785 598.061 62.252C597.943 62.5254 597.784 62.7695 597.582 62.9844C597.38 63.1927 597.146 63.3717 596.879 63.5215C596.612 63.6712 596.326 63.7949 596.02 63.8926C595.72 63.9902 595.411 64.0618 595.092 64.1074C594.773 64.153 594.46 64.1758 594.154 64.1758C593.49 64.1758 592.878 64.1465 592.318 64.0879C591.765 64.0293 591.221 63.9349 590.688 63.8047V62.2422C591.26 62.4049 591.83 62.5286 592.396 62.6133C592.963 62.6979 593.526 62.7402 594.086 62.7402C594.9 62.7402 595.502 62.6296 595.893 62.4082C596.283 62.1868 596.479 61.8711 596.479 61.4609C596.479 61.2852 596.446 61.1289 596.381 60.9922C596.322 60.849 596.212 60.7155 596.049 60.5918C595.886 60.4616 595.632 60.3281 595.287 60.1914C594.949 60.0547 594.483 59.8984 593.891 59.7227C593.448 59.5924 593.038 59.446 592.66 59.2832C592.289 59.1139 591.967 58.9154 591.693 58.6875C591.42 58.4596 591.205 58.1927 591.049 57.8867C590.893 57.5807 590.814 57.2194 590.814 56.8027C590.814 56.5293 590.876 56.2298 591 55.9043C591.13 55.5788 591.348 55.276 591.654 54.9961C591.96 54.7161 592.374 54.485 592.895 54.3027C593.415 54.1139 594.066 54.0195 594.848 54.0195C595.232 54.0195 595.658 54.0423 596.127 54.0879C596.596 54.127 597.084 54.1986 597.592 54.3027V55.8164C597.058 55.6862 596.55 55.5918 596.068 55.5332C595.593 55.4681 595.18 55.4355 594.828 55.4355C594.405 55.4355 594.047 55.4681 593.754 55.5332C593.467 55.5983 593.233 55.6895 593.051 55.8066C592.875 55.9173 592.748 56.0508 592.67 56.207C592.592 56.3568 592.553 56.5195 592.553 56.6953C592.553 56.8711 592.585 57.0306 592.65 57.1738C592.722 57.3171 592.849 57.457 593.031 57.5938C593.22 57.724 593.48 57.8574 593.812 57.9941C594.145 58.1243 594.577 58.2676 595.111 58.4238C595.691 58.5931 596.179 58.7721 596.576 58.9609C596.973 59.1432 597.296 59.3483 597.543 59.5762C597.79 59.804 597.966 60.0612 598.07 60.3477C598.181 60.6341 598.236 60.9596 598.236 61.3242ZM607.338 68.1016C604.337 65.3216 602.836 62.2487 602.836 58.8828C602.836 58.0951 602.914 57.3105 603.07 56.5293C603.233 55.7415 603.49 54.9538 603.842 54.166C604.2 53.3783 604.669 52.5905 605.248 51.8027C605.834 51.015 606.544 50.2337 607.377 49.459L608.363 50.4648C605.837 52.9583 604.574 55.722 604.574 58.7559C604.574 60.2663 604.893 61.7181 605.531 63.1113C606.169 64.5046 607.113 65.8197 608.363 67.0566L607.338 68.1016ZM619.32 59.4785H613.48V57.877H619.32V59.4785ZM624.223 66.002C624.555 66.015 624.877 65.9857 625.189 65.9141C625.502 65.8424 625.775 65.735 626.01 65.5918C626.251 65.4551 626.443 65.2826 626.586 65.0742C626.729 64.8659 626.801 64.6283 626.801 64.3613C626.801 64.0879 626.752 63.8665 626.654 63.6973C626.563 63.528 626.459 63.3717 626.342 63.2285C626.225 63.0853 626.117 62.9323 626.02 62.7695C625.928 62.6068 625.883 62.3887 625.883 62.1152C625.883 61.9785 625.909 61.8353 625.961 61.6855C626.013 61.5358 626.091 61.3991 626.195 61.2754C626.306 61.1517 626.443 61.0508 626.605 60.9727C626.775 60.8945 626.973 60.8555 627.201 60.8555C627.429 60.8555 627.647 60.9043 627.855 61.002C628.07 61.0931 628.256 61.2363 628.412 61.4316C628.575 61.627 628.702 61.8711 628.793 62.1641C628.891 62.457 628.939 62.8021 628.939 63.1992C628.939 63.7396 628.839 64.2572 628.637 64.752C628.441 65.2533 628.145 65.696 627.748 66.0801C627.357 66.4642 626.866 66.7702 626.273 66.998C625.688 67.2259 625.004 67.3398 624.223 67.3398V66.002ZM654.174 54.1953L650.834 62.9648C650.489 63.8568 650.131 64.625 649.76 65.2695C649.395 65.9141 648.995 66.4414 648.559 66.8516C648.122 67.2682 647.644 67.5742 647.123 67.7695C646.602 67.9648 646.02 68.0625 645.375 68.0625C645.206 68.0625 645.053 68.0592 644.916 68.0527C644.779 68.0462 644.63 68.0365 644.467 68.0234V66.4805C644.61 66.5 644.766 66.5163 644.936 66.5293C645.105 66.5488 645.284 66.5586 645.473 66.5586C645.785 66.5586 646.075 66.513 646.342 66.4219C646.615 66.3307 646.872 66.181 647.113 65.9727C647.354 65.7708 647.585 65.5072 647.807 65.1816C648.028 64.8561 648.243 64.4622 648.451 64L644.535 54.1953H646.469L648.949 60.6797L649.447 62.2031L650.014 60.6406L652.309 54.1953H654.174ZM658.451 49.459C661.452 52.2389 662.953 55.3314 662.953 58.7363C662.953 59.4395 662.882 60.1686 662.738 60.9238C662.595 61.679 662.351 62.4538 662.006 63.248C661.661 64.0358 661.195 64.8366 660.609 65.6504C660.03 66.4642 659.298 67.2812 658.412 68.1016L657.426 67.0957C658.695 65.8392 659.643 64.5273 660.268 63.1602C660.893 61.793 661.205 60.3607 661.205 58.8633C661.205 55.7643 659.945 52.9779 657.426 50.5039L658.451 49.459Z" fill="#C9D1D9"/>
<rect x="584.5" y="1.5" width="91" height="111" stroke="#FF7F50" stroke-width="3"/>
<path d="M347.137 124.623C347.137 125.6 347.039 126.492 346.844 127.299C346.648 128.1 346.352 128.79 345.955 129.369C345.558 129.942 345.063 130.388 344.471 130.707C343.885 131.02 343.195 131.176 342.4 131.176C341.717 131.176 341.095 131.049 340.535 130.795C339.975 130.535 339.497 130.137 339.1 129.604C338.702 129.07 338.396 128.389 338.182 127.562C337.967 126.736 337.859 125.756 337.859 124.623C337.859 123.646 337.957 122.755 338.152 121.947C338.354 121.14 338.65 120.45 339.041 119.877C339.438 119.298 339.933 118.852 340.525 118.539C341.118 118.22 341.808 118.061 342.596 118.061C343.279 118.061 343.901 118.191 344.461 118.451C345.021 118.705 345.499 119.102 345.896 119.643C346.294 120.176 346.6 120.857 346.814 121.684C347.029 122.51 347.137 123.49 347.137 124.623ZM345.418 124.682C345.418 124.46 345.408 124.242 345.389 124.027C345.376 123.806 345.359 123.591 345.34 123.383L339.939 127.396C340.037 127.735 340.161 128.048 340.311 128.334C340.46 128.62 340.639 128.868 340.848 129.076C341.062 129.278 341.303 129.438 341.57 129.555C341.844 129.665 342.153 129.721 342.498 129.721C342.941 129.721 343.341 129.613 343.699 129.398C344.064 129.184 344.373 128.865 344.627 128.441C344.881 128.018 345.076 127.494 345.213 126.869C345.35 126.238 345.418 125.508 345.418 124.682ZM339.578 124.564C339.578 124.766 339.578 124.968 339.578 125.17C339.585 125.372 339.598 125.567 339.617 125.756L345.018 121.762C344.92 121.43 344.796 121.127 344.646 120.854C344.497 120.58 344.318 120.346 344.109 120.15C343.901 119.949 343.663 119.792 343.396 119.682C343.13 119.571 342.83 119.516 342.498 119.516C342.055 119.516 341.652 119.623 341.287 119.838C340.929 120.053 340.623 120.375 340.369 120.805C340.115 121.228 339.92 121.755 339.783 122.387C339.646 123.012 339.578 123.738 339.578 124.564Z" fill="#C9D1D9"/>
<rect x="249.5" y="63.5" width="40" height="23" stroke="#FF7F50" stroke-width="3"/>
<rect x="329.5" y="112.5" width="30" height="23" stroke="#FF7F50" stroke-width="3"/>
</svg>
