<svg width="198" height="69" viewBox="0 0 198 69" fill="none" xmlns="http://www.w3.org/2000/svg">
<path d="M10.7617 16H8.56445L5.45898 10.8438L2.34375 16H0.175781L4.42383 9.47656L0.517578 3.23633H2.57812L5.49805 8.04102L8.4375 3.23633H10.4395L6.52344 9.39844L10.7617 16ZM16.4941 6.01953C16.696 6.01953 16.888 6.06185 17.0703 6.14648C17.2526 6.22461 17.4121 6.33203 17.5488 6.46875C17.6855 6.60547 17.793 6.76497 17.8711 6.94727C17.9557 7.12956 17.998 7.32161 17.998 7.52344C17.998 7.73177 17.9557 7.92708 17.8711 8.10938C17.793 8.28516 17.6855 8.44141 17.5488 8.57812C17.4121 8.71484 17.2526 8.82227 17.0703 8.90039C16.888 8.97852 16.696 9.01758 16.4941 9.01758C16.2858 9.01758 16.0905 8.97852 15.9082 8.90039C15.7324 8.82227 15.5762 8.71484 15.4395 8.57812C15.3027 8.44141 15.1953 8.28516 15.1172 8.10938C15.0391 7.92708 15 7.73177 15 7.52344C15 7.32161 15.0391 7.12956 15.1172 6.94727C15.1953 6.76497 15.3027 6.60547 15.4395 6.46875C15.5762 6.33203 15.7324 6.22461 15.9082 6.14648C16.0905 6.06185 16.2858 6.01953 16.4941 6.01953ZM16.4941 13.1777C16.696 13.1777 16.888 13.2201 17.0703 13.3047C17.2526 13.3828 17.4121 13.4902 17.5488 13.627C17.6855 13.7637 17.793 13.9232 17.8711 14.1055C17.9557 14.2878 17.998 14.4798 17.998 14.6816C17.998 14.89 17.9557 15.0853 17.8711 15.2676C17.793 15.4434 17.6855 15.5996 17.5488 15.7363C17.4121 15.873 17.2526 15.9805 17.0703 16.0586C16.888 16.1367 16.696 16.1758 16.4941 16.1758C16.2858 16.1758 16.0905 16.1367 15.9082 16.0586C15.7324 15.9805 15.5762 15.873 15.4395 15.7363C15.3027 15.5996 15.1953 15.4434 15.1172 15.2676C15.0391 15.0853 15 14.89 15 14.6816C15 14.4798 15.0391 14.2878 15.1172 14.1055C15.1953 13.9232 15.3027 13.7637 15.4395 13.627C15.5762 13.4902 15.7324 13.3828 15.9082 13.3047C16.0905 13.2201 16.2858 13.1777 16.4941 13.1777ZM43.1445 4.7207H39.3652V16H37.6074V4.7207H33.8281V3.23633H43.1445V4.7207ZM54.8828 16H52.9883L52.0996 13.2168H46.7871L45.8887 16H44.082L48.3203 3.23633H50.7031L54.8828 16ZM51.6016 11.6641L49.4434 4.83789L47.2852 11.6641H51.6016ZM175.098 4.7207H171.318V16H169.561V4.7207H165.781V3.23633H175.098V4.7207ZM186.094 4.7207H182.314V16H180.557V4.7207H176.777V3.23633H186.094V4.7207ZM197.09 4.7207H193.311V16H191.553V4.7207H187.773V3.23633H197.09V4.7207ZM10.9961 49.2363L6.37695 57.4395V62H4.61914V57.4004L0 49.2363H2.09961L4.63867 53.9043L5.57617 55.7793L6.43555 54.0801L9.00391 49.2363H10.9961ZM16.4941 52.0195C16.696 52.0195 16.888 52.0618 17.0703 52.1465C17.2526 52.2246 17.4121 52.332 17.5488 52.4688C17.6855 52.6055 17.793 52.765 17.8711 52.9473C17.9557 53.1296 17.998 53.3216 17.998 53.5234C17.998 53.7318 17.9557 53.9271 17.8711 54.1094C17.793 54.2852 17.6855 54.4414 17.5488 54.5781C17.4121 54.7148 17.2526 54.8223 17.0703 54.9004C16.888 54.9785 16.696 55.0176 16.4941 55.0176C16.2858 55.0176 16.0905 54.9785 15.9082 54.9004C15.7324 54.8223 15.5762 54.7148 15.4395 54.5781C15.3027 54.4414 15.1953 54.2852 15.1172 54.1094C15.0391 53.9271 15 53.7318 15 53.5234C15 53.3216 15.0391 53.1296 15.1172 52.9473C15.1953 52.765 15.3027 52.6055 15.4395 52.4688C15.5762 52.332 15.7324 52.2246 15.9082 52.1465C16.0905 52.0618 16.2858 52.0195 16.4941 52.0195ZM16.4941 59.1777C16.696 59.1777 16.888 59.2201 17.0703 59.3047C17.2526 59.3828 17.4121 59.4902 17.5488 59.627C17.6855 59.7637 17.793 59.9232 17.8711 60.1055C17.9557 60.2878 17.998 60.4798 17.998 60.6816C17.998 60.89 17.9557 61.0853 17.8711 61.2676C17.793 61.4434 17.6855 61.5996 17.5488 61.7363C17.4121 61.873 17.2526 61.9805 17.0703 62.0586C16.888 62.1367 16.696 62.1758 16.4941 62.1758C16.2858 62.1758 16.0905 62.1367 15.9082 62.0586C15.7324 61.9805 15.5762 61.873 15.4395 61.7363C15.3027 61.5996 15.1953 61.4434 15.1172 61.2676C15.0391 61.0853 15 60.89 15 60.6816C15 60.4798 15.0391 60.2878 15.1172 60.1055C15.1953 59.9232 15.3027 59.7637 15.4395 59.627C15.5762 59.4902 15.7324 59.3828 15.9082 59.3047C16.0905 59.2201 16.2858 59.1777 16.4941 59.1777ZM42.8125 51.4238C42.3372 51.1699 41.849 50.9746 41.3477 50.8379C40.8464 50.6947 40.2995 50.623 39.707 50.623C39.0299 50.623 38.4277 50.7435 37.9004 50.9844C37.373 51.2253 36.9271 51.5671 36.5625 52.0098C36.2044 52.446 35.9277 52.9733 35.7324 53.5918C35.5436 54.2103 35.4492 54.8939 35.4492 55.6426C35.4492 56.4238 35.5273 57.1237 35.6836 57.7422C35.8398 58.3607 36.084 58.8848 36.416 59.3145C36.748 59.7441 37.1712 60.0729 37.6855 60.3008C38.2064 60.5286 38.8281 60.6426 39.5508 60.6426C39.6745 60.6426 39.8079 60.6361 39.9512 60.623C40.0944 60.61 40.2376 60.5938 40.3809 60.5742C40.5241 60.5482 40.6608 60.5189 40.791 60.4863C40.9277 60.4538 41.0482 60.418 41.1523 60.3789V56.3164H38.5449V54.8809H42.8711V61.4043C42.6042 61.528 42.321 61.6387 42.0215 61.7363C41.7285 61.834 41.4258 61.9154 41.1133 61.9805C40.8073 62.0456 40.5013 62.0944 40.1953 62.127C39.8893 62.1595 39.5931 62.1758 39.3066 62.1758C38.4342 62.1758 37.6465 62.0391 36.9434 61.7656C36.2467 61.4922 35.651 61.0885 35.1562 60.5547C34.668 60.0143 34.2904 59.3438 34.0234 58.543C33.763 57.7422 33.6328 56.8145 33.6328 55.7598C33.6328 54.7116 33.7793 53.7741 34.0723 52.9473C34.3652 52.1139 34.7754 51.4108 35.3027 50.8379C35.8366 50.2585 36.4746 49.819 37.2168 49.5195C37.9655 49.2135 38.7891 49.0605 39.6875 49.0605C40.2604 49.0605 40.804 49.1126 41.3184 49.2168C41.8392 49.3145 42.3372 49.474 42.8125 49.6953V51.4238ZM53.8086 51.4238C53.3333 51.1699 52.8451 50.9746 52.3438 50.8379C51.8424 50.6947 51.2956 50.623 50.7031 50.623C50.026 50.623 49.4238 50.7435 48.8965 50.9844C48.3691 51.2253 47.9232 51.5671 47.5586 52.0098C47.2005 52.446 46.9238 52.9733 46.7285 53.5918C46.5397 54.2103 46.4453 54.8939 46.4453 55.6426C46.4453 56.4238 46.5234 57.1237 46.6797 57.7422C46.8359 58.3607 47.0801 58.8848 47.4121 59.3145C47.7441 59.7441 48.1673 60.0729 48.6816 60.3008C49.2025 60.5286 49.8242 60.6426 50.5469 60.6426C50.6706 60.6426 50.804 60.6361 50.9473 60.623C51.0905 60.61 51.2337 60.5938 51.377 60.5742C51.5202 60.5482 51.6569 60.5189 51.7871 60.4863C51.9238 60.4538 52.0443 60.418 52.1484 60.3789V56.3164H49.541V54.8809H53.8672V61.4043C53.6003 61.528 53.3171 61.6387 53.0176 61.7363C52.7246 61.834 52.4219 61.9154 52.1094 61.9805C51.8034 62.0456 51.4974 62.0944 51.1914 62.127C50.8854 62.1595 50.5892 62.1758 50.3027 62.1758C49.4303 62.1758 48.6426 62.0391 47.9395 61.7656C47.2428 61.4922 46.6471 61.0885 46.1523 60.5547C45.6641 60.0143 45.2865 59.3438 45.0195 58.543C44.7591 57.7422 44.6289 56.8145 44.6289 55.7598C44.6289 54.7116 44.7754 53.7741 45.0684 52.9473C45.3613 52.1139 45.7715 51.4108 46.2988 50.8379C46.8327 50.2585 47.4707 49.819 48.2129 49.5195C48.9616 49.2135 49.7852 49.0605 50.6836 49.0605C51.2565 49.0605 51.8001 49.1126 52.3145 49.2168C52.8353 49.3145 53.3333 49.474 53.8086 49.6953V51.4238ZM174.658 61.5215C173.636 61.9447 172.565 62.1562 171.445 62.1562C169.642 62.1562 168.255 61.6191 167.285 60.5449C166.322 59.4642 165.84 57.8691 165.84 55.7598C165.84 54.7376 165.973 53.8132 166.24 52.9863C166.507 52.1595 166.888 51.4596 167.383 50.8867C167.878 50.3073 168.477 49.8613 169.18 49.5488C169.883 49.2363 170.671 49.0801 171.543 49.0801C172.135 49.0801 172.686 49.1322 173.193 49.2363C173.701 49.334 174.189 49.487 174.658 49.6953V51.4043C174.196 51.1504 173.717 50.9583 173.223 50.8281C172.728 50.6914 172.188 50.623 171.602 50.623C171.003 50.623 170.459 50.737 169.971 50.9648C169.489 51.1862 169.079 51.5117 168.74 51.9414C168.402 52.3646 168.141 52.8854 167.959 53.5039C167.777 54.1159 167.686 54.8158 167.686 55.6035C167.686 57.2572 168.021 58.5039 168.691 59.3438C169.362 60.1836 170.345 60.6035 171.641 60.6035C172.188 60.6035 172.712 60.5417 173.213 60.418C173.714 60.2878 174.196 60.1087 174.658 59.8809V61.5215ZM186.094 50.7207H182.314V62H180.557V50.7207H176.777V49.2363H186.094V50.7207ZM197.832 62H195.938L195.049 59.2168H189.736L188.838 62H187.031L191.27 49.2363H193.652L197.832 62ZM194.551 57.6641L192.393 50.8379L190.234 57.6641H194.551Z" fill="#C9D1D9"/>
<path d="M65.1367 4.7207H61.3574V16H59.5996V4.7207H55.8203V3.23633H65.1367V4.7207ZM76.875 16H74.9805L74.0918 13.2168H68.7793L67.8809 16H66.0742L70.3125 3.23633H72.6953L76.875 16ZM73.5938 11.6641L71.4355 4.83789L69.2773 11.6641H73.5938ZM87.1289 4.7207H83.3496V16H81.5918V4.7207H77.8125V3.23633H87.1289V4.7207ZM97.793 5.42383C97.3177 5.16992 96.8294 4.97461 96.3281 4.83789C95.8268 4.69466 95.2799 4.62305 94.6875 4.62305C94.0104 4.62305 93.4082 4.74349 92.8809 4.98438C92.3535 5.22526 91.9076 5.56706 91.543 6.00977C91.1849 6.44596 90.9082 6.97331 90.7129 7.5918C90.5241 8.21029 90.4297 8.89388 90.4297 9.64258C90.4297 10.4238 90.5078 11.1237 90.6641 11.7422C90.8203 12.3607 91.0645 12.8848 91.3965 13.3145C91.7285 13.7441 92.1517 14.0729 92.666 14.3008C93.1868 14.5286 93.8086 14.6426 94.5312 14.6426C94.6549 14.6426 94.7884 14.6361 94.9316 14.623C95.0749 14.61 95.2181 14.5938 95.3613 14.5742C95.5046 14.5482 95.6413 14.5189 95.7715 14.4863C95.9082 14.4538 96.0286 14.418 96.1328 14.3789V10.3164H93.5254V8.88086H97.8516V15.4043C97.5846 15.528 97.3014 15.6387 97.002 15.7363C96.709 15.834 96.4062 15.9154 96.0938 15.9805C95.7878 16.0456 95.4818 16.0944 95.1758 16.127C94.8698 16.1595 94.5736 16.1758 94.2871 16.1758C93.4147 16.1758 92.627 16.0391 91.9238 15.7656C91.2272 15.4922 90.6315 15.0885 90.1367 14.5547C89.6484 14.0143 89.2708 13.3438 89.0039 12.543C88.7435 11.7422 88.6133 10.8145 88.6133 9.75977C88.6133 8.71159 88.7598 7.77409 89.0527 6.94727C89.3457 6.11393 89.7559 5.41081 90.2832 4.83789C90.8171 4.25846 91.4551 3.81901 92.1973 3.51953C92.946 3.21354 93.7695 3.06055 94.668 3.06055C95.2409 3.06055 95.7845 3.11263 96.2988 3.2168C96.8197 3.31445 97.3177 3.47396 97.793 3.69531V5.42383ZM108.682 15.5215C107.66 15.9447 106.589 16.1562 105.469 16.1562C103.665 16.1562 102.279 15.6191 101.309 14.5449C100.345 13.4642 99.8633 11.8691 99.8633 9.75977C99.8633 8.73763 99.9967 7.81315 100.264 6.98633C100.531 6.15951 100.911 5.45964 101.406 4.88672C101.901 4.30729 102.5 3.86133 103.203 3.54883C103.906 3.23633 104.694 3.08008 105.566 3.08008C106.159 3.08008 106.709 3.13216 107.217 3.23633C107.725 3.33398 108.213 3.48698 108.682 3.69531V5.4043C108.219 5.15039 107.741 4.95833 107.246 4.82812C106.751 4.69141 106.211 4.62305 105.625 4.62305C105.026 4.62305 104.482 4.73698 103.994 4.96484C103.512 5.1862 103.102 5.51172 102.764 5.94141C102.425 6.36458 102.165 6.88542 101.982 7.50391C101.8 8.11589 101.709 8.81576 101.709 9.60352C101.709 11.2572 102.044 12.5039 102.715 13.3438C103.385 14.1836 104.368 14.6035 105.664 14.6035C106.211 14.6035 106.735 14.5417 107.236 14.418C107.738 14.2878 108.219 14.1087 108.682 13.8809V15.5215ZM130.781 5.42383C130.306 5.16992 129.818 4.97461 129.316 4.83789C128.815 4.69466 128.268 4.62305 127.676 4.62305C126.999 4.62305 126.396 4.74349 125.869 4.98438C125.342 5.22526 124.896 5.56706 124.531 6.00977C124.173 6.44596 123.896 6.97331 123.701 7.5918C123.512 8.21029 123.418 8.89388 123.418 9.64258C123.418 10.4238 123.496 11.1237 123.652 11.7422C123.809 12.3607 124.053 12.8848 124.385 13.3145C124.717 13.7441 125.14 14.0729 125.654 14.3008C126.175 14.5286 126.797 14.6426 127.52 14.6426C127.643 14.6426 127.777 14.6361 127.92 14.623C128.063 14.61 128.206 14.5938 128.35 14.5742C128.493 14.5482 128.63 14.5189 128.76 14.4863C128.896 14.4538 129.017 14.418 129.121 14.3789V10.3164H126.514V8.88086H130.84V15.4043C130.573 15.528 130.29 15.6387 129.99 15.7363C129.697 15.834 129.395 15.9154 129.082 15.9805C128.776 16.0456 128.47 16.0944 128.164 16.127C127.858 16.1595 127.562 16.1758 127.275 16.1758C126.403 16.1758 125.615 16.0391 124.912 15.7656C124.215 15.4922 123.62 15.0885 123.125 14.5547C122.637 14.0143 122.259 13.3438 121.992 12.543C121.732 11.7422 121.602 10.8145 121.602 9.75977C121.602 8.71159 121.748 7.77409 122.041 6.94727C122.334 6.11393 122.744 5.41081 123.271 4.83789C123.805 4.25846 124.443 3.81901 125.186 3.51953C125.934 3.21354 126.758 3.06055 127.656 3.06055C128.229 3.06055 128.773 3.11263 129.287 3.2168C129.808 3.31445 130.306 3.47396 130.781 3.69531V5.42383ZM141.777 5.42383C141.302 5.16992 140.814 4.97461 140.312 4.83789C139.811 4.69466 139.264 4.62305 138.672 4.62305C137.995 4.62305 137.393 4.74349 136.865 4.98438C136.338 5.22526 135.892 5.56706 135.527 6.00977C135.169 6.44596 134.893 6.97331 134.697 7.5918C134.508 8.21029 134.414 8.89388 134.414 9.64258C134.414 10.4238 134.492 11.1237 134.648 11.7422C134.805 12.3607 135.049 12.8848 135.381 13.3145C135.713 13.7441 136.136 14.0729 136.65 14.3008C137.171 14.5286 137.793 14.6426 138.516 14.6426C138.639 14.6426 138.773 14.6361 138.916 14.623C139.059 14.61 139.202 14.5938 139.346 14.5742C139.489 14.5482 139.626 14.5189 139.756 14.4863C139.893 14.4538 140.013 14.418 140.117 14.3789V10.3164H137.51V8.88086H141.836V15.4043C141.569 15.528 141.286 15.6387 140.986 15.7363C140.693 15.834 140.391 15.9154 140.078 15.9805C139.772 16.0456 139.466 16.0944 139.16 16.127C138.854 16.1595 138.558 16.1758 138.271 16.1758C137.399 16.1758 136.611 16.0391 135.908 15.7656C135.212 15.4922 134.616 15.0885 134.121 14.5547C133.633 14.0143 133.255 13.3438 132.988 12.543C132.728 11.7422 132.598 10.8145 132.598 9.75977C132.598 8.71159 132.744 7.77409 133.037 6.94727C133.33 6.11393 133.74 5.41081 134.268 4.83789C134.801 4.25846 135.439 3.81901 136.182 3.51953C136.93 3.21354 137.754 3.06055 138.652 3.06055C139.225 3.06055 139.769 3.11263 140.283 3.2168C140.804 3.31445 141.302 3.47396 141.777 3.69531V5.42383ZM152.666 15.5215C151.644 15.9447 150.573 16.1562 149.453 16.1562C147.65 16.1562 146.263 15.6191 145.293 14.5449C144.329 13.4642 143.848 11.8691 143.848 9.75977C143.848 8.73763 143.981 7.81315 144.248 6.98633C144.515 6.15951 144.896 5.45964 145.391 4.88672C145.885 4.30729 146.484 3.86133 147.188 3.54883C147.891 3.23633 148.678 3.08008 149.551 3.08008C150.143 3.08008 150.693 3.13216 151.201 3.23633C151.709 3.33398 152.197 3.48698 152.666 3.69531V5.4043C152.204 5.15039 151.725 4.95833 151.23 4.82812C150.736 4.69141 150.195 4.62305 149.609 4.62305C149.01 4.62305 148.467 4.73698 147.979 4.96484C147.497 5.1862 147.087 5.51172 146.748 5.94141C146.41 6.36458 146.149 6.88542 145.967 7.50391C145.785 8.11589 145.693 8.81576 145.693 9.60352C145.693 11.2572 146.029 12.5039 146.699 13.3438C147.37 14.1836 148.353 14.6035 149.648 14.6035C150.195 14.6035 150.719 14.5417 151.221 14.418C151.722 14.2878 152.204 14.1087 152.666 13.8809V15.5215ZM163.77 5.42383C163.294 5.16992 162.806 4.97461 162.305 4.83789C161.803 4.69466 161.257 4.62305 160.664 4.62305C159.987 4.62305 159.385 4.74349 158.857 4.98438C158.33 5.22526 157.884 5.56706 157.52 6.00977C157.161 6.44596 156.885 6.97331 156.689 7.5918C156.501 8.21029 156.406 8.89388 156.406 9.64258C156.406 10.4238 156.484 11.1237 156.641 11.7422C156.797 12.3607 157.041 12.8848 157.373 13.3145C157.705 13.7441 158.128 14.0729 158.643 14.3008C159.163 14.5286 159.785 14.6426 160.508 14.6426C160.632 14.6426 160.765 14.6361 160.908 14.623C161.051 14.61 161.195 14.5938 161.338 14.5742C161.481 14.5482 161.618 14.5189 161.748 14.4863C161.885 14.4538 162.005 14.418 162.109 14.3789V10.3164H159.502V8.88086H163.828V15.4043C163.561 15.528 163.278 15.6387 162.979 15.7363C162.686 15.834 162.383 15.9154 162.07 15.9805C161.764 16.0456 161.458 16.0944 161.152 16.127C160.846 16.1595 160.55 16.1758 160.264 16.1758C159.391 16.1758 158.604 16.0391 157.9 15.7656C157.204 15.4922 156.608 15.0885 156.113 14.5547C155.625 14.0143 155.247 13.3438 154.98 12.543C154.72 11.7422 154.59 10.8145 154.59 9.75977C154.59 8.71159 154.736 7.77409 155.029 6.94727C155.322 6.11393 155.732 5.41081 156.26 4.83789C156.794 4.25846 157.432 3.81901 158.174 3.51953C158.923 3.21354 159.746 3.06055 160.645 3.06055C161.217 3.06055 161.761 3.11263 162.275 3.2168C162.796 3.31445 163.294 3.47396 163.77 3.69531V5.42383ZM65.1367 50.7207H61.3574V62H59.5996V50.7207H55.8203V49.2363H65.1367V50.7207ZM76.875 62H74.9805L74.0918 59.2168H68.7793L67.8809 62H66.0742L70.3125 49.2363H72.6953L76.875 62ZM73.5938 57.6641L71.4355 50.8379L69.2773 57.6641H73.5938ZM87.1289 50.7207H83.3496V62H81.5918V50.7207H77.8125V49.2363H87.1289V50.7207ZM97.793 51.4238C97.3177 51.1699 96.8294 50.9746 96.3281 50.8379C95.8268 50.6947 95.2799 50.623 94.6875 50.623C94.0104 50.623 93.4082 50.7435 92.8809 50.9844C92.3535 51.2253 91.9076 51.5671 91.543 52.0098C91.1849 52.446 90.9082 52.9733 90.7129 53.5918C90.5241 54.2103 90.4297 54.8939 90.4297 55.6426C90.4297 56.4238 90.5078 57.1237 90.6641 57.7422C90.8203 58.3607 91.0645 58.8848 91.3965 59.3145C91.7285 59.7441 92.1517 60.0729 92.666 60.3008C93.1868 60.5286 93.8086 60.6426 94.5312 60.6426C94.6549 60.6426 94.7884 60.6361 94.9316 60.623C95.0749 60.61 95.2181 60.5938 95.3613 60.5742C95.5046 60.5482 95.6413 60.5189 95.7715 60.4863C95.9082 60.4538 96.0286 60.418 96.1328 60.3789V56.3164H93.5254V54.8809H97.8516V61.4043C97.5846 61.528 97.3014 61.6387 97.002 61.7363C96.709 61.834 96.4062 61.9154 96.0938 61.9805C95.7878 62.0456 95.4818 62.0944 95.1758 62.127C94.8698 62.1595 94.5736 62.1758 94.2871 62.1758C93.4147 62.1758 92.627 62.0391 91.9238 61.7656C91.2272 61.4922 90.6315 61.0885 90.1367 60.5547C89.6484 60.0143 89.2708 59.3438 89.0039 58.543C88.7435 57.7422 88.6133 56.8145 88.6133 55.7598C88.6133 54.7116 88.7598 53.7741 89.0527 52.9473C89.3457 52.1139 89.7559 51.4108 90.2832 50.8379C90.8171 50.2585 91.4551 49.819 92.1973 49.5195C92.946 49.2135 93.7695 49.0605 94.668 49.0605C95.2409 49.0605 95.7845 49.1126 96.2988 49.2168C96.8197 49.3145 97.3177 49.474 97.793 49.6953V51.4238ZM108.682 61.5215C107.66 61.9447 106.589 62.1562 105.469 62.1562C103.665 62.1562 102.279 61.6191 101.309 60.5449C100.345 59.4642 99.8633 57.8691 99.8633 55.7598C99.8633 54.7376 99.9967 53.8132 100.264 52.9863C100.531 52.1595 100.911 51.4596 101.406 50.8867C101.901 50.3073 102.5 49.8613 103.203 49.5488C103.906 49.2363 104.694 49.0801 105.566 49.0801C106.159 49.0801 106.709 49.1322 107.217 49.2363C107.725 49.334 108.213 49.487 108.682 49.6953V51.4043C108.219 51.1504 107.741 50.9583 107.246 50.8281C106.751 50.6914 106.211 50.623 105.625 50.623C105.026 50.623 104.482 50.737 103.994 50.9648C103.512 51.1862 103.102 51.5117 102.764 51.9414C102.425 52.3646 102.165 52.8854 101.982 53.5039C101.8 54.1159 101.709 54.8158 101.709 55.6035C101.709 57.2572 102.044 58.5039 102.715 59.3438C103.385 60.1836 104.368 60.6035 105.664 60.6035C106.211 60.6035 106.735 60.5417 107.236 60.418C107.738 60.2878 108.219 60.1087 108.682 59.8809V61.5215ZM130.781 51.4238C130.306 51.1699 129.818 50.9746 129.316 50.8379C128.815 50.6947 128.268 50.623 127.676 50.623C126.999 50.623 126.396 50.7435 125.869 50.9844C125.342 51.2253 124.896 51.5671 124.531 52.0098C124.173 52.446 123.896 52.9733 123.701 53.5918C123.512 54.2103 123.418 54.8939 123.418 55.6426C123.418 56.4238 123.496 57.1237 123.652 57.7422C123.809 58.3607 124.053 58.8848 124.385 59.3145C124.717 59.7441 125.14 60.0729 125.654 60.3008C126.175 60.5286 126.797 60.6426 127.52 60.6426C127.643 60.6426 127.777 60.6361 127.92 60.623C128.063 60.61 128.206 60.5938 128.35 60.5742C128.493 60.5482 128.63 60.5189 128.76 60.4863C128.896 60.4538 129.017 60.418 129.121 60.3789V56.3164H126.514V54.8809H130.84V61.4043C130.573 61.528 130.29 61.6387 129.99 61.7363C129.697 61.834 129.395 61.9154 129.082 61.9805C128.776 62.0456 128.47 62.0944 128.164 62.127C127.858 62.1595 127.562 62.1758 127.275 62.1758C126.403 62.1758 125.615 62.0391 124.912 61.7656C124.215 61.4922 123.62 61.0885 123.125 60.5547C122.637 60.0143 122.259 59.3438 121.992 58.543C121.732 57.7422 121.602 56.8145 121.602 55.7598C121.602 54.7116 121.748 53.7741 122.041 52.9473C122.334 52.1139 122.744 51.4108 123.271 50.8379C123.805 50.2585 124.443 49.819 125.186 49.5195C125.934 49.2135 126.758 49.0605 127.656 49.0605C128.229 49.0605 128.773 49.1126 129.287 49.2168C129.808 49.3145 130.306 49.474 130.781 49.6953V51.4238ZM141.777 51.4238C141.302 51.1699 140.814 50.9746 140.312 50.8379C139.811 50.6947 139.264 50.623 138.672 50.623C137.995 50.623 137.393 50.7435 136.865 50.9844C136.338 51.2253 135.892 51.5671 135.527 52.0098C135.169 52.446 134.893 52.9733 134.697 53.5918C134.508 54.2103 134.414 54.8939 134.414 55.6426C134.414 56.4238 134.492 57.1237 134.648 57.7422C134.805 58.3607 135.049 58.8848 135.381 59.3145C135.713 59.7441 136.136 60.0729 136.65 60.3008C137.171 60.5286 137.793 60.6426 138.516 60.6426C138.639 60.6426 138.773 60.6361 138.916 60.623C139.059 60.61 139.202 60.5938 139.346 60.5742C139.489 60.5482 139.626 60.5189 139.756 60.4863C139.893 60.4538 140.013 60.418 140.117 60.3789V56.3164H137.51V54.8809H141.836V61.4043C141.569 61.528 141.286 61.6387 140.986 61.7363C140.693 61.834 140.391 61.9154 140.078 61.9805C139.772 62.0456 139.466 62.0944 139.16 62.127C138.854 62.1595 138.558 62.1758 138.271 62.1758C137.399 62.1758 136.611 62.0391 135.908 61.7656C135.212 61.4922 134.616 61.0885 134.121 60.5547C133.633 60.0143 133.255 59.3438 132.988 58.543C132.728 57.7422 132.598 56.8145 132.598 55.7598C132.598 54.7116 132.744 53.7741 133.037 52.9473C133.33 52.1139 133.74 51.4108 134.268 50.8379C134.801 50.2585 135.439 49.819 136.182 49.5195C136.93 49.2135 137.754 49.0605 138.652 49.0605C139.225 49.0605 139.769 49.1126 140.283 49.2168C140.804 49.3145 141.302 49.474 141.777 49.6953V51.4238ZM152.666 61.5215C151.644 61.9447 150.573 62.1562 149.453 62.1562C147.65 62.1562 146.263 61.6191 145.293 60.5449C144.329 59.4642 143.848 57.8691 143.848 55.7598C143.848 54.7376 143.981 53.8132 144.248 52.9863C144.515 52.1595 144.896 51.4596 145.391 50.8867C145.885 50.3073 146.484 49.8613 147.188 49.5488C147.891 49.2363 148.678 49.0801 149.551 49.0801C150.143 49.0801 150.693 49.1322 151.201 49.2363C151.709 49.334 152.197 49.487 152.666 49.6953V51.4043C152.204 51.1504 151.725 50.9583 151.23 50.8281C150.736 50.6914 150.195 50.623 149.609 50.623C149.01 50.623 148.467 50.737 147.979 50.9648C147.497 51.1862 147.087 51.5117 146.748 51.9414C146.41 52.3646 146.149 52.8854 145.967 53.5039C145.785 54.1159 145.693 54.8158 145.693 55.6035C145.693 57.2572 146.029 58.5039 146.699 59.3438C147.37 60.1836 148.353 60.6035 149.648 60.6035C150.195 60.6035 150.719 60.5417 151.221 60.418C151.722 60.2878 152.204 60.1087 152.666 59.8809V61.5215ZM163.77 51.4238C163.294 51.1699 162.806 50.9746 162.305 50.8379C161.803 50.6947 161.257 50.623 160.664 50.623C159.987 50.623 159.385 50.7435 158.857 50.9844C158.33 51.2253 157.884 51.5671 157.52 52.0098C157.161 52.446 156.885 52.9733 156.689 53.5918C156.501 54.2103 156.406 54.8939 156.406 55.6426C156.406 56.4238 156.484 57.1237 156.641 57.7422C156.797 58.3607 157.041 58.8848 157.373 59.3145C157.705 59.7441 158.128 60.0729 158.643 60.3008C159.163 60.5286 159.785 60.6426 160.508 60.6426C160.632 60.6426 160.765 60.6361 160.908 60.623C161.051 60.61 161.195 60.5938 161.338 60.5742C161.481 60.5482 161.618 60.5189 161.748 60.4863C161.885 60.4538 162.005 60.418 162.109 60.3789V56.3164H159.502V54.8809H163.828V61.4043C163.561 61.528 163.278 61.6387 162.979 61.7363C162.686 61.834 162.383 61.9154 162.07 61.9805C161.764 62.0456 161.458 62.0944 161.152 62.127C160.846 62.1595 160.55 62.1758 160.264 62.1758C159.391 62.1758 158.604 62.0391 157.9 61.7656C157.204 61.4922 156.608 61.0885 156.113 60.5547C155.625 60.0143 155.247 59.3438 154.98 58.543C154.72 57.7422 154.59 56.8145 154.59 55.7598C154.59 54.7116 154.736 53.7741 155.029 52.9473C155.322 52.1139 155.732 51.4108 156.26 50.8379C156.794 50.2585 157.432 49.819 158.174 49.5195C158.923 49.2135 159.746 49.0605 160.645 49.0605C161.217 49.0605 161.761 49.1126 162.275 49.2168C162.796 49.3145 163.294 49.474 163.77 49.6953V51.4238Z" fill="#989B05"/>
<path d="M120.117 50.7207H116.338V62H114.58V50.7207H110.801V49.2363H120.117V50.7207Z" fill="#E30310"/>
<path d="M118.102 10.7578H114.289V9.57812H118.102V10.7578Z" fill="#E30310"/>
<line x1="60.5" y1="19" x2="60.5" y2="45" stroke="#C9D1D9"/>
<line x1="72.2" y1="19" x2="72.2" y2="45" stroke="#C9D1D9"/>
<line x1="82.6" y1="19" x2="82.6" y2="45" stroke="#C9D1D9"/>
<line x1="94.3" y1="19" x2="94.3" y2="45" stroke="#C9D1D9"/>
<line x1="107.3" y1="19" x2="107.3" y2="45" stroke="#C9D1D9"/>
<line x1="127.5" y1="19" x2="127.5" y2="45" stroke="#C9D1D9"/>
<line x1="138.5" y1="19" x2="138.5" y2="45" stroke="#C9D1D9"/>
<line x1="150.5" y1="19" x2="150.5" y2="45" stroke="#C9D1D9"/>
<line x1="160.5" y1="19" x2="160.5" y2="45" stroke="#C9D1D9"/>
</svg>
