<svg width="828" height="195" viewBox="0 0 828 195" fill="none" xmlns="http://www.w3.org/2000/svg">
<path d="M32.5687 42.9526C31.9072 42.6089 31.4645 42.1505 31.2406 41.5776C31.0166 40.9995 30.9046 40.3042 30.9046 39.4917V35.9448C30.9046 34.299 31.3317 33.1766 32.1859 32.5776C32.9098 32.0724 33.9619 31.8198 35.3421 31.8198C36.7275 31.8198 37.7328 32.0125 38.3578 32.3979C38.9828 32.7781 39.3734 33.3771 39.5296 34.1948C39.6025 34.5594 39.639 34.9943 39.639 35.4995L38.1468 35.6323C38.1468 34.8719 38.0817 34.3589 37.9515 34.0932C37.8213 33.8224 37.6911 33.6297 37.5609 33.5151C37.4359 33.4005 37.2275 33.3016 36.9359 33.2182C36.6442 33.1297 36.1885 33.0854 35.5687 33.0854C34.9489 33.0854 34.4619 33.1271 34.1078 33.2104C33.7536 33.2886 33.4515 33.424 33.2015 33.6167C32.7223 33.9865 32.4828 34.6662 32.4828 35.6557V39.7339C32.4828 40.713 32.7249 41.3693 33.2093 41.7026C33.6937 42.0307 34.4645 42.1948 35.5218 42.1948C36.5843 42.1948 37.2614 42.0698 37.5531 41.8198C37.8447 41.5698 38.0244 41.2052 38.0921 40.7261C38.1286 40.4656 38.1468 40.1531 38.1468 39.7886H39.639C39.639 40.924 39.4749 41.7209 39.1468 42.1792C38.5427 43.0334 37.3942 43.4604 35.7015 43.4604C34.2796 43.4604 33.2354 43.2912 32.5687 42.9526Z" fill="#C9D1D9"/>
<path d="M49.2719 43.2886L53.4828 31.9917H54.8656L59.0844 43.2886H57.4828L56.7172 41.0854H51.6781L50.9047 43.2886H49.2719ZM52.0531 39.9682H56.3578L54.2172 33.7886L52.0531 39.9682Z" fill="#C9D1D9"/>
<path d="M70.2658 43.2886V33.2807H67.008V31.9917H75.1017V33.2807H71.8361V43.2886H70.2658Z" fill="#C9D1D9"/>
<path d="M101.162 43.2886L105.372 31.9917H106.755L110.974 43.2886H109.372L108.607 41.0854H103.568L102.794 43.2886H101.162ZM103.943 39.9682H108.247L106.107 33.7886L103.943 39.9682Z" fill="#C9D1D9"/>
<path d="M86.652 43.2886V33.2807H83.3942V31.9917H91.4879V33.2807H88.2223V43.2886H86.652Z" fill="#C9D1D9"/>
<path d="M266.9 43.2886V33.2807H263.642V31.9917H271.736V33.2807H268.471V43.2886H266.9Z" fill="#C9D1D9"/>
<path d="M285.189 42.9526C284.528 42.6089 284.085 42.1505 283.861 41.5776C283.637 40.9995 283.525 40.3042 283.525 39.4917V35.9448C283.525 34.299 283.952 33.1766 284.807 32.5776C285.531 32.0724 286.583 31.8198 287.963 31.8198C289.348 31.8198 290.353 32.0125 290.978 32.3979C291.603 32.7781 291.994 33.3771 292.15 34.1948C292.223 34.5594 292.26 34.9943 292.26 35.4995L290.768 35.6323C290.768 34.8719 290.702 34.3589 290.572 34.0932C290.442 33.8224 290.312 33.6297 290.182 33.5151C290.057 33.4005 289.848 33.3016 289.557 33.2182C289.265 33.1297 288.809 33.0854 288.189 33.0854C287.57 33.0854 287.083 33.1271 286.728 33.2104C286.374 33.2886 286.072 33.424 285.822 33.6167C285.343 33.9865 285.103 34.6662 285.103 35.6557V39.7339C285.103 40.713 285.346 41.3693 285.83 41.7026C286.314 42.0307 287.085 42.1948 288.143 42.1948C289.205 42.1948 289.882 42.0698 290.174 41.8198C290.465 41.5698 290.645 41.2052 290.713 40.7261C290.749 40.4656 290.768 40.1531 290.768 39.7886H292.26C292.26 40.924 292.096 41.7209 291.768 42.1792C291.163 43.0334 290.015 43.4604 288.322 43.4604C286.9 43.4604 285.856 43.2912 285.189 42.9526Z" fill="#C9D1D9"/>
<path d="M300.527 43.2886L304.738 31.9917H306.121L310.34 43.2886H308.738L307.972 41.0854H302.933L302.16 43.2886H300.527ZM303.308 39.9682H307.613L305.472 33.7886L303.308 39.9682Z" fill="#C9D1D9"/>
<path d="M337.079 42.9526C336.418 42.6089 335.975 42.1505 335.751 41.5776C335.527 40.9995 335.415 40.3042 335.415 39.4917V35.9448C335.415 34.299 335.842 33.1766 336.696 32.5776C337.42 32.0724 338.472 31.8198 339.852 31.8198C341.238 31.8198 342.243 32.0125 342.868 32.3979C343.493 32.7781 343.884 33.3771 344.04 34.1948C344.113 34.5594 344.149 34.9943 344.149 35.4995L342.657 35.6323C342.657 34.8719 342.592 34.3589 342.462 34.0932C342.332 33.8224 342.201 33.6297 342.071 33.5151C341.946 33.4005 341.738 33.3016 341.446 33.2182C341.155 33.1297 340.699 33.0854 340.079 33.0854C339.459 33.0854 338.972 33.1271 338.618 33.2104C338.264 33.2886 337.962 33.424 337.712 33.6167C337.233 33.9865 336.993 34.6662 336.993 35.6557V39.7339C336.993 40.713 337.235 41.3693 337.72 41.7026C338.204 42.0307 338.975 42.1948 340.032 42.1948C341.095 42.1948 341.772 42.0698 342.063 41.8198C342.355 41.5698 342.535 41.2052 342.602 40.7261C342.639 40.4656 342.657 40.1531 342.657 39.7886H344.149C344.149 40.924 343.985 41.7209 343.657 42.1792C343.053 43.0334 341.905 43.4604 340.212 43.4604C338.79 43.4604 337.746 43.2912 337.079 42.9526Z" fill="#C9D1D9"/>
<path d="M322.398 43.4604C320.293 43.4604 318.916 42.9396 318.265 41.8979C317.885 41.2886 317.694 40.4865 317.694 39.4917V35.9448C317.694 34.3354 318.163 33.213 319.101 32.5776C319.846 32.0724 320.892 31.8198 322.241 31.8198C323.59 31.8198 324.577 31.9735 325.202 32.2807C325.833 32.5828 326.247 32.9891 326.444 33.4995C326.642 34.0047 326.741 34.6219 326.741 35.3511L325.304 35.4682C325.304 34.7339 325.231 34.2443 325.085 33.9995C324.944 33.7495 324.806 33.5724 324.671 33.4682C324.541 33.3641 324.317 33.2755 323.999 33.2026C323.687 33.1245 323.21 33.0854 322.569 33.0854C321.934 33.0854 321.434 33.1271 321.069 33.2104C320.705 33.2886 320.382 33.424 320.101 33.6167C319.549 33.9969 319.273 34.6766 319.273 35.6557V39.7339C319.273 40.713 319.536 41.3693 320.062 41.7026C320.588 42.0307 321.361 42.1948 322.382 42.1948C323.408 42.1948 324.148 42.0334 324.601 41.7104C325.059 41.3823 325.288 40.7235 325.288 39.7339V38.6948H322.609V37.5464H326.866V43.2886H326.007L325.812 41.3667C325.713 42.0177 325.385 42.5307 324.827 42.9057C324.275 43.2755 323.465 43.4604 322.398 43.4604Z" fill="#C9D1D9"/>
<path d="M504.355 42.9526C503.693 42.6089 503.251 42.1505 503.027 41.5776C502.803 40.9995 502.691 40.3042 502.691 39.4917V35.9448C502.691 34.299 503.118 33.1766 503.972 32.5776C504.696 32.0724 505.748 31.8198 507.128 31.8198C508.514 31.8198 509.519 32.0125 510.144 32.3979C510.769 32.7781 511.16 33.3771 511.316 34.1948C511.389 34.5594 511.425 34.9943 511.425 35.4995L509.933 35.6323C509.933 34.8719 509.868 34.3589 509.738 34.0932C509.607 33.8224 509.477 33.6297 509.347 33.5151C509.222 33.4005 509.014 33.3016 508.722 33.2182C508.43 33.1297 507.975 33.0854 507.355 33.0854C506.735 33.0854 506.248 33.1271 505.894 33.2104C505.54 33.2886 505.238 33.424 504.988 33.6167C504.509 33.9865 504.269 34.6662 504.269 35.6557V39.7339C504.269 40.713 504.511 41.3693 504.996 41.7026C505.48 42.0307 506.251 42.1948 507.308 42.1948C508.371 42.1948 509.048 42.0698 509.339 41.8198C509.631 41.5698 509.811 41.2052 509.878 40.7261C509.915 40.4656 509.933 40.1531 509.933 39.7886H511.425C511.425 40.924 511.261 41.7209 510.933 42.1792C510.329 43.0334 509.18 43.4604 507.488 43.4604C506.066 43.4604 505.022 43.2912 504.355 42.9526Z" fill="#C9D1D9"/>
<path d="M521.058 43.2886L525.269 31.9917H526.652L530.871 43.2886H529.269L528.503 41.0854H523.464L522.691 43.2886H521.058ZM523.839 39.9682H528.144L526.003 33.7886L523.839 39.9682Z" fill="#C9D1D9"/>
<path d="M542.052 43.2886V33.2807H538.794V31.9917H546.888V33.2807H543.622V43.2886H542.052Z" fill="#C9D1D9"/>
<path d="M570.899 43.2886L575.11 31.9917H576.493L580.712 43.2886H579.11L578.345 41.0854H573.306L572.532 43.2886H570.899ZM573.681 39.9682H577.985L575.845 33.7886L573.681 39.9682Z" fill="#C9D1D9"/>
<path d="M558.438 43.2886V33.2807H555.18V31.9917H563.274V33.2807H560.008V43.2886H558.438Z" fill="#C9D1D9"/>
<g filter="url(#filter0_d)">
<path d="M41.4504 79.9575V49.6848H29.3021L29.3021 68.3506" stroke="#C9D1D9"/>
<path d="M60 93L59.2147 50H47V83.4444" stroke="#C9D1D9"/>
<path d="M77 94.0426L76.2147 50H64V96" stroke="#C9D1D9"/>
<path d="M94.5135 88.733L93.7325 49.6848H81.5842V90.4685" stroke="#C9D1D9"/>
<path d="M110.74 72.246V49.6848H98.5918V90.4685" stroke="#C9D1D9"/>
<g filter="url(#filter1_d)">
<path d="M275 83V51H263V66.4074" stroke="#C9D1D9"/>
<path d="M293.486 90.4685L292.705 51.4203H280.556V81.7911" stroke="#C9D1D9"/>
<path d="M310.58 90.4685L309.799 51.4202H297.651V94.8071" stroke="#C9D1D9"/>
<path d="M514 86V50H502V72.9091" stroke="#C9D1D9"/>
<path d="M530.378 93.6127V49.6848H518.23V88.733" stroke="#C9D1D9"/>
<path d="M548.601 88.733V49.6848H534.717V90.4684" stroke="#C9D1D9"/>
<path d="M565.348 88.733L564.567 49.6848H552.419V90.4684" stroke="#C9D1D9"/>
<path d="M582 69.3617V50H569V85" stroke="#C9D1D9"/>
<path d="M327.935 90.4685L327.154 51.4203H315.006V92.2039" stroke="#C9D1D9"/>
<path d="M344 72.0213V51H332V89" stroke="#C9D1D9"/>
</g>
<g filter="url(#filter2_d)">
<path d="M156.841 28.0679V55.7589H146.144V39.6748" stroke="#C9D1D9"/>
<path d="M175 9.00002V56H163V22.4286" stroke="#C9D1D9"/>
<path d="M194.043 14.1075L193.696 55.7589H181.548V14.9753" stroke="#C9D1D9"/>
<path d="M211.051 14.9753V55.759H198.902V14.9753" stroke="#C9D1D9"/>
<path d="M228.058 33.1978V55.759H215.91V14.9753" stroke="#C9D1D9"/>
</g>
<g filter="url(#filter3_d)">
<path d="M391 23V56H379V40.1111" stroke="#C9D1D9"/>
<path d="M409 9.00002V56H397V22.4286" stroke="#C9D1D9"/>
<path d="M426.597 14.1075L426.25 55.7589H414.101V14.9753" stroke="#C9D1D9"/>
<path d="M443.604 14.9753V55.759H431.456V14.9753" stroke="#C9D1D9"/>
<path d="M460.612 33.1978V55.759H448.464V14.9753" stroke="#C9D1D9"/>
</g>
<g filter="url(#filter4_d)">
<path d="M627 17V56H616V37.2222" stroke="#C9D1D9"/>
<path d="M645 9.00002V56H633V22.4286" stroke="#C9D1D9"/>
<path d="M661.345 12.3643L662.083 56.0609H649.166L648.428 13.2383" stroke="#C9D1D9"/>
<path d="M678.761 14.9753V55.759H666.613V14.9753" stroke="#C9D1D9"/>
<path d="M696.116 33.1978V55.759H683.968V14.9753" stroke="#C9D1D9"/>
</g>
<line x1="454.5" y1="29.966" x2="454.816" y2="53.2116" stroke="#62F2A6" stroke-width="5"/>
<path d="M437.014 13.9862L436.522 52.3191" stroke="#E8A62E" stroke-width="5"/>
<path d="M419.898 10.8548L419.898 53.1792" stroke="#C6344A" stroke-width="5"/>
<path d="M384.424 26.3414L384.424 53.1792" stroke="#EFE123" stroke-width="5"/>
<path d="M402.886 15.4459L402.886 53.1792" stroke="#62F2A6" stroke-width="5"/>
<path d="M338.358 76.0815L338.358 54.9146" stroke="#E8A62F" stroke-width="5"/>
<path d="M321.463 89.1604L321.463 54.9146" stroke="#C6344A" stroke-width="5"/>
<path d="M304.45 93.675L304.45 54.0469" stroke="#EFE123" stroke-width="5"/>
<path d="M268.396 77.7875L268.396 54.9146" stroke="#62F2A6" stroke-width="5"/>
<path d="M287.379 93.9076L287.379 54.9146" stroke="#E8A62E" stroke-width="5"/>
<line x1="221.5" y1="23.9955" x2="221.5" y2="52.5865" stroke="#C6344A" stroke-width="5"/>
<path d="M204.634 14.4127L204.634 52.7681" stroke="#C6344A" stroke-width="5"/>
<path d="M187.969 9.00578L187.969 52.9976" stroke="#62F2A6" stroke-width="5"/>
<path d="M151.401 27.3851L151.401 53.4657" stroke="#C6344A" stroke-width="5"/>
<line x1="168.51" y1="16.9243" x2="169.005" y2="53.2456" stroke="#E8A62E" stroke-width="5"/>
<path d="M689.393 28.7505L689.393 52.6472" stroke="#C6344A" stroke-width="5"/>
<path d="M671.922 16.4609L671.922 52.7645" stroke="#C6344A" stroke-width="5"/>
<path d="M654.851 10.9989L654.851 52.6471" stroke="#62F2A6" stroke-width="5"/>
<path d="M620.709 26.7023L620.709 53.4622" stroke="#C6344A" stroke-width="5"/>
<line x1="638.5" y1="16.966" x2="638.995" y2="53.2872" stroke="#E8A62E" stroke-width="5"/>
<path d="M105 77L104.745 53.1792" stroke="#EFE122" stroke-width="5"/>
<path d="M87.8491 89.5L87.8491 53.1792" stroke="#62F2A6" stroke-width="5"/>
<path d="M70.8365 90.7615L70.8365 53.1792" stroke="#62F2A6" stroke-width="5"/>
<line x1="36.9822" y1="81.0508" x2="36.6061" y2="53.4467" stroke="#E8A62F" stroke-width="5"/>
<path d="M53.2114 91.3597L53.2113 53.1792" stroke="#EFE123" stroke-width="5"/>
<path d="M575.512 73.1651L575.512 52.0318" stroke="#EFE122" stroke-width="5"/>
<path d="M558.616 86.244L558.616 52.3114" stroke="#62F2A6" stroke-width="5"/>
<path d="M541.604 90.7586L541.604 52.3114" stroke="#62F2A6" stroke-width="5"/>
<line x1="508.788" y1="81.048" x2="508.412" y2="53.4438" stroke="#E8A62F" stroke-width="5"/>
<path d="M524.533 90.9912L524.533 53.1791" stroke="#EFE123" stroke-width="5"/>
<g filter="url(#filter5_d)">
<path d="M8 47.0008L14.9284 55.1965L16.0448 56.5005L17.1612 57.8009L18.2777 59.0967L19.3941 60.3866L20.5105 61.6695L21.627 62.9441L22.7434 64.2095L23.8598 65.4644L24.9763 66.7077L26.0927 67.9383L27.2091 69.1551L28.3256 70.357L29.442 71.5428L30.5584 72.7116L31.6748 73.8623L32.7913 74.9939L33.9077 76.1052L35.0241 77.1954L36.1406 78.2635L37.257 79.3084L38.3734 80.3293L39.4899 81.3253L40.6063 82.2953L41.7227 83.2386L42.8392 84.1543L43.9556 85.0417L45.072 85.8998L46.1885 86.7279L47.3049 87.5253L48.4213 88.2912L49.5378 89.0251L50.6542 89.7261L51.7706 90.3937L52.8871 91.0272L54.0035 91.6262L55.1199 92.19L56.2364 92.7182L57.3528 93.2103L58.4692 93.6658L59.5856 94.0843L60.7021 94.4655L61.8185 94.809L62.9349 95.1145L64.0514 95.3817L65.1678 95.6104L66.2842 95.8003L67.4007 95.9514L68.5171 96.0635L69.6335 96.1364L70.75 96.1701L71.8664 96.1646L72.9828 96.1199L74.0993 96.036L75.2157 95.913L76.3321 95.751L77.4486 95.5502L78.565 95.3107L79.6814 95.0327L80.7979 94.7165L81.9143 94.3624L83.0307 93.9708L84.1472 93.5418L85.2636 93.076L86.38 92.5738L87.4964 92.0356L88.6129 91.4619L89.7293 90.8531L90.8457 90.21L91.9622 89.533L93.0786 88.8227L94.195 88.0798L95.3115 87.305L96.4279 86.4989L97.5443 85.6623L98.6608 84.7959L99.7772 83.9006L100.894 82.977L102.01 82.0261L103.126 81.0487L104.243 80.0457L105.359 79.018L106.476 77.9665L107.592 76.8921L108.709 75.7959L109.825 74.6787L110.942 73.5417L112.058 72.3859L113.174 71.2122L114.291 70.0217L115.407 68.8156L116.524 67.5948L117.64 66.3605L118.757 65.1138L119.873 63.8559L120.989 62.5878L122.106 61.3107L123.222 60.0258L124.339 58.7341L125.455 57.4369L126.572 56.1354L127.688 54.8306L128.804 53.5238L129.921 52.2162L131.037 50.9089L132.154 49.6031L133.27 48.3L134.387 47.0008L135.503 45.7065L136.619 44.4185L137.736 43.1378L138.852 41.8656L139.969 40.6031L141.085 39.3513L142.202 38.1115L143.318 36.8846L144.434 35.6719L145.551 34.4744L146.667 33.2932L147.784 32.1294L148.9 30.984L150.017 29.858L151.133 28.7524L152.249 27.6683L153.366 26.6067L154.482 25.5684L155.599 24.5544L156.715 23.5656L157.832 22.603L158.948 21.6673L160.065 20.7594L161.181 19.8802L162.297 19.0305L163.414 18.2109L164.53 17.4222L165.647 16.6652L166.763 15.9405L167.88 15.2488L168.996 14.5907L170.112 13.9668L171.229 13.3776L172.345 12.8237L173.462 12.3056L174.578 11.8238L175.695 11.3786L176.811 10.9705L177.927 10.5998L179.044 10.2669L180.16 9.97215L181.277 9.71571L182.393 9.49784L183.51 9.31875L184.626 9.17859L185.742 9.07749L186.859 9.01556L187.975 8.99281L189.092 9.0093L190.208 9.065L191.325 9.15987L192.441 9.29382L193.557 9.46672L194.674 9.67842L195.79 9.92873L196.907 10.2174L198.023 10.5443L199.14 10.9089L200.256 11.3111L201.372 11.7504L202.489 12.2264L203.605 12.7388L204.722 13.287L205.838 13.8706L206.955 14.489L208.071 15.1417L209.187 15.8281L210.304 16.5476L211.42 17.2995L212.537 18.0832L213.653 18.8979L214.77 19.7429L215.886 20.6175L217.003 21.5208L218.119 22.4521L219.235 23.4105L220.352 24.3952L221.468 25.4052L222.585 26.4397L223.701 27.4977L224.818 28.5783L225.934 29.6805L227.05 30.8033L228.167 31.9457L229.283 33.1067L230.4 34.2852L231.516 35.4801L232.633 36.6905L233.749 37.9152L234.865 39.153L235.982 40.403L237.098 41.6639L238.215 42.9346L239.331 44.214L240.448 45.501L241.564 46.7943L242.68 48.0928L243.797 49.3954L244.913 50.7008L246.03 52.0079L247.146 53.3156L248.263 54.6226L249.379 55.9277L250.495 57.2299L251.612 58.5278L252.728 59.8205L253.845 61.1066L254.961 62.385L256.078 63.6546L257.194 64.9142L258.311 66.1628L259.427 67.3991L260.543 68.6221L261.66 69.8306L262.776 71.0237L263.893 72.2001L265.009 73.3589L266.126 74.499L267.242 75.6193L268.358 76.719L269.475 77.7969L270.591 78.8521L271.708 79.8837L272.824 80.8907L273.941 81.8722L275.057 82.8274L276.173 83.7553L277.29 84.6552L278.406 85.5263L279.523 86.3677L280.639 87.1787L281.756 87.9585L282.872 88.7065L283.988 89.422L285.105 90.1044L286.221 90.753L287.338 91.3672L288.454 91.9466L289.571 92.4905L290.687 92.9985L291.803 93.4701L292.92 93.9049L294.036 94.3026L295.153 94.6627L296.269 94.9849L297.386 95.269L298.502 95.5146L299.618 95.7216L300.735 95.8898L301.851 96.019L302.968 96.1092L304.084 96.1601L305.201 96.1719L306.317 96.1444L307.433 96.0777L308.55 95.9719L309.666 95.827L310.783 95.6432L311.899 95.4207L313.016 95.1596L314.132 94.8602L315.248 94.5227L316.365 94.1475L317.481 93.7349L318.598 93.2853L319.714 92.799L320.831 92.2765L321.947 91.7183L323.064 91.1249L324.18 90.4968L325.296 89.8346L326.413 89.1389L327.529 88.4103L328.646 87.6494L329.762 86.857L330.879 86.0337L331.995 85.1803L333.111 84.2976L334.228 83.3863L335.344 82.4474L336.461 81.4815L337.577 80.4896L338.694 79.4727L339.81 78.4315L340.926 77.3671L342.043 76.2803L343.159 75.1722L344.276 74.0438L345.392 72.8961L346.509 71.7301L347.625 70.5469L348.741 69.3475L349.858 68.1331L350.974 66.9046L352.091 65.6632L353.207 64.4101L354.324 63.1463L355.44 61.873L356.556 60.5914L357.673 59.3025L358.789 58.0076L359.906 56.7079L361.022 55.4044L362.139 54.0984L363.255 52.7909L364.372 51.4834L365.488 50.1768L366.604 48.8724L367.721 47.5713L368.837 46.2747L369.954 44.9838L371.07 43.6997L372.187 42.4236L373.303 41.1567L374.419 39.9001L375.536 38.6548L376.652 37.4221L377.769 36.2031L378.885 34.9988L380.002 33.8103L381.118 32.6387L382.234 31.485L383.351 30.3504L384.467 29.2357L385.584 28.1421L386.7 27.0704L387.817 26.0218L388.933 24.997L390.049 23.997L391.166 23.0228L392.282 22.0752L393.399 21.155L394.515 20.2631L395.632 19.4003L396.748 18.5673L397.864 17.765L398.981 16.994L400.097 16.255L401.214 15.5487L402.33 14.8758L403.447 14.2368L404.563 13.6322L405.679 13.0628L406.796 12.5289L407.912 12.031L409.029 11.5697L410.145 11.1452L411.262 10.7581L412.378 10.4086L413.495 10.097L414.611 9.82368L415.727 9.58883L416.844 9.39268L417.96 9.23539L419.077 9.11711L420.193 9.03794L421.31 8.99797L422.426 8.99723L423.542 9.0357L424.659 9.11336L425.775 9.23014L426.892 9.38594L428.008 9.58061L429.125 9.81397L430.241 10.0858L431.357 10.3959L432.474 10.744L433.59 11.1297L434.707 11.5528L435.823 12.0127L436.94 12.5092L438.056 13.0417L439.172 13.6098L440.289 14.213L441.405 14.8507L442.522 15.5223L443.638 16.2274L444.755 16.9651L445.871 17.7349L446.987 18.536L448.104 19.3678L449.22 20.2295L450.337 21.1203L451.453 22.0394L452.57 22.986L453.686 23.9592L454.802 24.9582L455.919 25.9821L457.035 27.0299L458.152 28.1007L459.268 29.1935L460.385 30.3073L461.501 31.4413L462.617 32.5942L463.734 33.7651L464.85 34.953L465.967 36.1567L467.083 37.3752L468.2 38.6074L469.316 39.8522L470.433 41.1084L471.549 42.375L472.665 43.6507L473.782 44.9345L474.898 46.2251L476.015 47.5215L477.131 48.8225L478.248 50.1268L479.364 51.4333L480.48 52.7409L481.597 54.0483L482.713 55.3544L483.83 56.658L484.946 57.958L486.063 59.2531L487.179 60.5422L488.295 61.8241L489.412 63.0977L490.528 64.3619L491.645 65.6155L492.761 66.8573L493.878 68.0863L494.994 69.3013L496.11 70.5013L497.227 71.6852L498.343 72.8518L499.46 74.0003L500.576 75.1294L501.693 76.2383L502.809 77.3259L503.925 78.3912L505.042 79.4332L506.158 80.4512L507.275 81.444L508.391 82.4109L509.508 83.3509L510.624 84.2632L511.74 85.1471L512.857 86.0016L513.973 86.826L515.09 87.6196L516.206 88.3817L517.323 89.1116L518.439 89.8086L519.556 90.4721L520.672 91.1015L521.788 91.6963L522.905 92.2558L524.021 92.7797L525.138 93.2673L526.254 93.7184L527.371 94.1324L528.487 94.509L529.603 94.848L530.72 95.1488L531.836 95.4114L532.953 95.6354L534.069 95.8207L535.186 95.9671L536.302 96.0744L537.418 96.1426L538.535 96.1716L539.651 96.1613L540.768 96.1118L541.884 96.0232L543.001 95.8955L544.117 95.7288L545.233 95.5232L546.35 95.2791L547.466 94.9965L548.583 94.6757L549.699 94.317L550.816 93.9208L551.932 93.4874L553.048 93.0172L554.165 92.5106L555.281 91.968L556.398 91.3901L557.514 90.7771L558.631 90.1299L559.747 89.4488L560.864 88.7345L561.98 87.9877L563.096 87.2091L564.213 86.3993L565.329 85.559L566.446 84.6891L567.562 83.7903L568.679 82.8634L569.795 81.9093L570.911 80.9287L572.028 79.9227L573.144 78.892L574.261 77.8377L575.377 76.7606L576.493 75.6618L577.61 74.5422L578.726 73.4029L579.843 72.2448L580.959 71.069L582.076 69.8766L583.192 68.6686L584.309 67.4462L585.425 66.2103L586.541 64.9622L587.658 63.703L588.774 62.4338L589.891 61.1556L591.007 59.8698L592.124 58.5774L593.24 57.2797L594.356 55.9777L595.473 54.6726L596.589 53.3657L597.706 52.058L598.822 50.7508L599.939 49.4453L601.055 48.1426L602.171 46.8439L603.288 45.5504L604.404 44.2632L605.521 42.9834L606.637 41.7123L607.754 40.451L608.87 39.2007L609.986 37.9623L611.103 36.7371L612.219 35.5262L613.336 34.3306L614.452 33.1515L615.569 31.9898L616.685 30.8467L617.801 29.7231L618.918 28.6201L620.034 27.5387L621.151 26.4798L622.267 25.4444L623.384 24.4334L624.5 23.4477L625.617 22.4883L626.733 21.556L627.849 20.6515L628.966 19.7758L630.082 18.9297L631.199 18.1138L632.315 17.3289L633.432 16.5758L634.548 15.8551L635.664 15.1674L636.781 14.5134L637.897 13.8936L639.014 13.3087L640.13 12.7591L641.247 12.2454L642.363 11.7679L643.479 11.3272L644.596 10.9236L645.712 10.5575L646.829 10.2292L647.945 9.93908L649.062 9.68729L650.178 9.47411L651.294 9.29972L652.411 9.16428L653.527 9.06791L654.644 9.01071L655.76 8.99273L656.877 9.01396L657.993 9.07441L659.109 9.174L660.226 9.31267L661.342 9.49027L662.459 9.70666L663.575 9.96163L664.692 10.2549L665.808 10.5864L666.924 10.9556L668.041 11.3623L669.157 11.806L670.274 12.2865L671.39 12.8032L672.507 13.3557L673.623 13.9436L674.74 14.5662L675.856 15.223L676.972 15.9134L678.089 16.6369L679.205 17.3926L680.322 18.1801L681.438 18.9985L682.554 19.8472L683.671 20.7253L684.787 21.632L685.904 22.5666L687.02 23.5283L688.137 24.516L689.253 25.5291L690.37 26.5665L691.486 27.6273L692.602 28.7105L693.719 29.8153L694.835 30.9405L695.952 32.0852L697.068 33.2483L698.185 34.4289L699.301 35.6258L700.417 36.8379L701.534 38.0642L702.65 39.3036L703.767 40.5549L704.883 41.8171L706 43.089L707.116 44.3693L708.232 45.6571L709.349 46.9511L710.465 48.2502L711.582 49.5532L712.698 50.8589" stroke="#79CCDB" stroke-width="10"/>
</g>
<g filter="url(#filter6_d)">
<path d="M8 46.5038L14.9284 54.6995L16.0448 56.0035L17.1612 57.3039L18.2777 58.5997L19.3941 59.8896L20.5105 61.1725L21.627 62.4471L22.7434 63.7125L23.8598 64.9674L24.9763 66.2107L26.0927 67.4413L27.2091 68.6581L28.3256 69.86L29.442 71.0458L30.5584 72.2146L31.6748 73.3653L32.7913 74.4969L33.9077 75.6082L35.0241 76.6985L36.1406 77.7665L37.257 78.8115L38.3734 79.8323L39.4899 80.8283L40.6063 81.7983L41.7227 82.7416L42.8392 83.6573L43.9556 84.5447L45.072 85.4028L46.1885 86.2309L47.3049 87.0283L48.4213 87.7942L49.5378 88.5281L50.6542 89.2291L51.7706 89.8967L52.8871 90.5302L54.0035 91.1292L55.1199 91.693L56.2364 92.2212L57.3528 92.7133L58.4692 93.1688L59.5856 93.5873L60.7021 93.9685L61.8185 94.312L62.9349 94.6175L64.0514 94.8847L65.1678 95.1134L66.2842 95.3033L67.4007 95.4544L68.5171 95.5665L69.6335 95.6394L70.75 95.6731L71.8664 95.6676L72.9828 95.6229L74.0993 95.539L75.2157 95.416L76.3321 95.254L77.4486 95.0532L78.565 94.8137L79.6814 94.5357L80.7979 94.2195L81.9143 93.8654L83.0307 93.4738L84.1472 93.0448L85.2636 92.579L86.38 92.0768L87.4964 91.5386L88.6129 90.9649L89.7293 90.3561L90.8457 89.713L91.9622 89.036L93.0786 88.3257L94.195 87.5828L95.3115 86.808L96.4279 86.0019L97.5443 85.1653L98.6608 84.2989L99.7772 83.4036L100.894 82.48L102.01 81.5291L103.126 80.5517L104.243 79.5487L105.359 78.521L106.476 77.4695L107.592 76.3951L108.709 75.2989L109.825 74.1818L110.942 73.0447L112.058 71.8889L113.174 70.7152L114.291 69.5247L115.407 68.3186L116.524 67.0978L117.64 65.8635L118.757 64.6169L119.873 63.3589L120.989 62.0908L122.106 60.8137L123.222 59.5288L124.339 58.2371L125.455 56.9399L126.572 55.6384L127.688 54.3336L128.804 53.0268L129.921 51.7192L131.037 50.4119L132.154 49.1061L133.27 47.803L134.387 46.5038L135.503 45.2096L136.619 43.9215L137.736 42.6408L138.852 41.3686L139.969 40.1061L141.085 38.8543L142.202 37.6145L143.318 36.3876L144.434 35.1749L145.551 33.9774L146.667 32.7962L147.784 31.6324L148.9 30.487L150.017 29.361L151.133 28.2554L152.249 27.1713L153.366 26.1097L154.482 25.0714L155.599 24.0574L156.715 23.0686L157.832 22.106L158.948 21.1703L160.065 20.2624L161.181 19.3832L162.297 18.5335L163.414 17.7139L164.53 16.9252L165.647 16.1682L166.763 15.4435L167.88 14.7518L168.996 14.0937L170.112 13.4698L171.229 12.8806L172.345 12.3267L173.462 11.8086L174.578 11.3268L175.695 10.8816L176.811 10.4735L177.927 10.1028L179.044 9.76994L180.16 9.47516L181.277 9.21871L182.393 9.00084L183.51 8.82175L184.626 8.6816L185.742 8.5805L186.859 8.51856L187.975 8.49581L189.092 8.51231L190.208 8.56801L191.325 8.66288L192.441 8.79682L193.557 8.96973L194.674 9.18143L195.79 9.43174L196.907 9.72044L198.023 10.0473L199.14 10.4119L200.256 10.8141L201.372 11.2534L202.489 11.7294L203.605 12.2418L204.722 12.79L205.838 13.3736L206.955 13.992L208.071 14.6447L209.187 15.3311L210.304 16.0506L211.42 16.8025L212.537 17.5862L213.653 18.4009L214.77 19.2459L215.886 20.1205L217.003 21.0238L218.119 21.9551L219.235 22.9135L220.352 23.8982L221.468 24.9082L222.585 25.9427L223.701 27.0007L224.818 28.0813L225.934 29.1835L227.05 30.3063L228.167 31.4487L229.283 32.6097L230.4 33.7882L231.516 34.9832L232.633 36.1935L233.749 37.4182L234.865 38.656L235.982 39.906L237.098 41.1669L238.215 42.4376L239.331 43.717L240.448 45.004L241.564 46.2973L242.68 47.5958L243.797 48.8984L244.913 50.2038L246.03 51.511L247.146 52.8186L248.263 54.1256L249.379 55.4307L250.495 56.7329L251.612 58.0308L252.728 59.3235L253.845 60.6096L254.961 61.888L256.078 63.1576L257.194 64.4172L258.311 65.6658L259.427 66.9021L260.543 68.1251L261.66 69.3336L262.776 70.5267L263.893 71.7031L265.009 72.8619L266.126 74.002L267.242 75.1223L268.358 76.222L269.475 77.2999L270.591 78.3551L271.708 79.3867L272.824 80.3937L273.941 81.3752L275.057 82.3304L276.173 83.2583L277.29 84.1582L278.406 85.0293L279.523 85.8707L280.639 86.6817L281.756 87.4615L282.872 88.2095L283.988 88.925L285.105 89.6074L286.221 90.256L287.338 90.8702L288.454 91.4496L289.571 91.9935L290.687 92.5015L291.803 92.9731L292.92 93.4079L294.036 93.8056L295.153 94.1657L296.269 94.4879L297.386 94.772L298.502 95.0176L299.618 95.2246L300.735 95.3928L301.851 95.5221L302.968 95.6122L304.084 95.6631L305.201 95.6749L306.317 95.6474L307.433 95.5807L308.55 95.4749L309.666 95.33L310.783 95.1462L311.899 94.9237L313.016 94.6626L314.132 94.3632L315.248 94.0257L316.365 93.6505L317.481 93.2379L318.598 92.7883L319.714 92.302L320.831 91.7795L321.947 91.2213L323.064 90.6279L324.18 89.9999L325.296 89.3377L326.413 88.6419L327.529 87.9133L328.646 87.1524L329.762 86.36L330.879 85.5367L331.995 84.6833L333.111 83.8006L334.228 82.8893L335.344 81.9504L336.461 80.9845L337.577 79.9926L338.694 78.9757L339.81 77.9345L340.926 76.8701L342.043 75.7833L343.159 74.6752L344.276 73.5469L345.392 72.3991L346.509 71.2332L347.625 70.0499L348.741 68.8505L349.858 67.6361L350.974 66.4076L352.091 65.1662L353.207 63.9131L354.324 62.6493L355.44 61.3761L356.556 60.0944L357.673 58.8055L358.789 57.5107L359.906 56.2109L361.022 54.9074L362.139 53.6014L363.255 52.294L364.372 50.9864L365.488 49.6798L366.604 48.3754L367.721 47.0743L368.837 45.7777L369.954 44.4868L371.07 43.2027L372.187 41.9266L373.303 40.6597L374.419 39.4031L375.536 38.1579L376.652 36.9252L377.769 35.7061L378.885 34.5018L380.002 33.3133L381.118 32.1417L382.234 30.9881L383.351 29.8534L384.467 28.7387L385.584 27.6451L386.7 26.5735L387.817 25.5248L388.933 24.5L390.049 23.5L391.166 22.5258L392.282 21.5782L393.399 20.658L394.515 19.7661L395.632 18.9033L396.748 18.0703L397.864 17.268L398.981 16.497L400.097 15.758L401.214 15.0517L402.33 14.3788L403.447 13.7398L404.563 13.1352L405.679 12.5658L406.796 12.0319L407.912 11.534L409.029 11.0727L410.145 10.6482L411.262 10.2611L412.378 9.91157L413.495 9.60001L414.611 9.32669L415.727 9.09183L416.844 8.89569L417.96 8.7384L419.077 8.62011L420.193 8.54095L421.31 8.50098L422.426 8.50023L423.542 8.5387L424.659 8.61636L425.775 8.73314L426.892 8.88894L428.008 9.08361L429.125 9.31698L430.241 9.58884L431.357 9.89895L432.474 10.247L433.59 10.6327L434.707 11.0558L435.823 11.5157L436.94 12.0122L438.056 12.5447L439.172 13.1128L440.289 13.716L441.405 14.3537L442.522 15.0254L443.638 15.7304L444.755 16.4681L445.871 17.2379L446.987 18.039L448.104 18.8708L449.22 19.7325L450.337 20.6233L451.453 21.5424L452.57 22.489L453.686 23.4622L454.802 24.4612L455.919 25.4851L457.035 26.5329L458.152 27.6037L459.268 28.6965L460.385 29.8103L461.501 30.9443L462.617 32.0972L463.734 33.2681L464.85 34.456L465.967 35.6597L467.083 36.8782L468.2 38.1104L469.316 39.3552L470.433 40.6114L471.549 41.878L472.665 43.1537L473.782 44.4375L474.898 45.7282L476.015 47.0245L477.131 48.3255L478.248 49.6298L479.364 50.9363L480.48 52.2439L481.597 53.5513L482.713 54.8574L483.83 56.161L484.946 57.461L486.063 58.7561L487.179 60.0452L488.295 61.3271L489.412 62.6007L490.528 63.8649L491.645 65.1185L492.761 66.3603L493.878 67.5893L494.994 68.8043L496.11 70.0043L497.227 71.1882L498.343 72.3548L499.46 73.5033L500.576 74.6324L501.693 75.7413L502.809 76.8289L503.925 77.8942L505.042 78.9363L506.158 79.9542L507.275 80.947L508.391 81.9139L509.508 82.8539L510.624 83.7662L511.74 84.6501L512.857 85.5046L513.973 86.329L515.09 87.1227L516.206 87.8847L517.323 88.6146L518.439 89.3116L519.556 89.9751L520.672 90.6045L521.788 91.1993L522.905 91.7588L524.021 92.2827L525.138 92.7703L526.254 93.2214L527.371 93.6354L528.487 94.012L529.603 94.351L530.72 94.6518L531.836 94.9144L532.953 95.1384L534.069 95.3237L535.186 95.4701L536.302 95.5774L537.418 95.6456L538.535 95.6746L539.651 95.6643L540.768 95.6149L541.884 95.5262L543.001 95.3985L544.117 95.2318L545.233 95.0263L546.35 94.7821L547.466 94.4995L548.583 94.1787L549.699 93.8201L550.816 93.4238L551.932 92.9904L553.048 92.5202L554.165 92.0136L555.281 91.471L556.398 90.8931L557.514 90.2802L558.631 89.6329L559.747 88.9518L560.864 88.2375L561.98 87.4907L563.096 86.7121L564.213 85.9023L565.329 85.062L566.446 84.1921L567.562 83.2933L568.679 82.3664L569.795 81.4123L570.911 80.4317L572.028 79.4257L573.144 78.395L574.261 77.3407L575.377 76.2636L576.493 75.1648L577.61 74.0452L578.726 72.9059L579.843 71.7478L580.959 70.572L582.076 69.3796L583.192 68.1716L584.309 66.9492L585.425 65.7133L586.541 64.4653L587.658 63.206L588.774 61.9368L589.891 60.6586L591.007 59.3728L592.124 58.0804L593.24 56.7827L594.356 55.4807L595.473 54.1756L596.589 52.8687L597.706 51.561L598.822 50.2538L599.939 48.9483L601.055 47.6456L602.171 46.3469L603.288 45.0534L604.404 43.7662L605.521 42.4864L606.637 41.2153L607.754 39.954L608.87 38.7037L609.986 37.4653L611.103 36.2401L612.219 35.0292L613.336 33.8336L614.452 32.6545L615.569 31.4928L616.685 30.3497L617.801 29.2261L618.918 28.1231L620.034 27.0417L621.151 25.9828L622.267 24.9474L623.384 23.9364L624.5 22.9507L625.617 21.9913L626.733 21.059L627.849 20.1545L628.966 19.2788L630.082 18.4327L631.199 17.6168L632.315 16.8319L633.432 16.0788L634.548 15.3581L635.664 14.6704L636.781 14.0164L637.897 13.3966L639.014 12.8117L640.13 12.2621L641.247 11.7484L642.363 11.2709L643.479 10.8302L644.596 10.4266L645.712 10.0605L646.829 9.73225L647.945 9.44209L649.062 9.1903L650.178 8.97711L651.294 8.80273L652.411 8.66728L653.527 8.57092L654.644 8.51372L655.76 8.49574L656.877 8.51697L657.993 8.57741L659.109 8.67701L660.226 8.81567L661.342 8.99327L662.459 9.20967L663.575 9.46463L664.692 9.75795L665.808 10.0894L666.924 10.4586L668.041 10.8653L669.157 11.309L670.274 11.7895L671.39 12.3062L672.507 12.8588L673.623 13.4466L674.74 14.0692L675.856 14.726L676.972 15.4164L678.089 16.1399L679.205 16.8957L680.322 17.6831L681.438 18.5015L682.554 19.3502L683.671 20.2283L684.787 21.135L685.904 22.0696L687.02 23.0313L688.137 24.0191L689.253 25.0321L690.37 26.0695L691.486 27.1303L692.602 28.2135L693.719 29.3183L694.835 30.4435L695.952 31.5882L697.068 32.7513L698.185 33.9319L699.301 35.1288L700.417 36.3409L701.534 37.5672L702.65 38.8066L703.767 40.058L704.883 41.3201L706 42.592L707.116 43.8723L708.232 45.1601L709.349 46.4541L710.465 47.7532L711.582 49.0562L712.698 50.3619" stroke="white" stroke-width="4"/>
</g>
</g>
<path d="M707.828 44.4541L720.117 58.792" stroke="white" stroke-width="3"/>
<path d="M713 59H720V52" stroke="white" stroke-width="3"/>
<path d="M472.24 42.7429L495.669 69.6428" stroke="#C9D1D9"/>
<path d="M257.908 65.3041L236.215 40.1397" stroke="#C9D1D9"/>
<path d="M152.156 77.1719C150.052 77.1719 148.674 76.6511 148.023 75.6094C147.643 75 147.453 74.1979 147.453 73.2031V69.6563C147.453 68.0469 147.922 66.9245 148.859 66.2891C149.604 65.7839 150.651 65.5313 152 65.5313C153.349 65.5313 154.336 65.6849 154.961 65.9922C155.591 66.2943 156.005 66.7005 156.203 67.211C156.401 67.7162 156.5 68.3333 156.5 69.0625L155.062 69.1797C155.062 68.4453 154.99 67.9557 154.844 67.711C154.703 67.461 154.565 67.2839 154.43 67.1797C154.299 67.0755 154.076 66.987 153.758 66.9141C153.445 66.836 152.969 66.7969 152.328 66.7969C151.693 66.7969 151.193 66.8386 150.828 66.9219C150.464 67 150.141 67.1354 149.859 67.3281C149.307 67.7083 149.031 68.388 149.031 69.3672V73.4453C149.031 74.4245 149.294 75.0807 149.82 75.4141C150.346 75.7422 151.12 75.9063 152.141 75.9063C153.167 75.9063 153.906 75.7448 154.359 75.4219C154.818 75.0938 155.047 74.4349 155.047 73.4453V72.4063H152.367V71.2578H156.625V77H155.766L155.57 75.0781C155.471 75.7292 155.143 76.2422 154.586 76.6172C154.034 76.987 153.224 77.1719 152.156 77.1719Z" fill="#C9D1D9"/>
<path d="M168.203 76.6641C167.542 76.3203 167.099 75.862 166.875 75.2891C166.651 74.711 166.539 74.0156 166.539 73.2031V69.6563C166.539 68.0104 166.966 66.888 167.82 66.2891C168.544 65.7839 169.596 65.5313 170.977 65.5313C172.362 65.5313 173.367 65.724 173.992 66.1094C174.617 66.4896 175.008 67.0886 175.164 67.9063C175.237 68.2708 175.273 68.7057 175.273 69.211L173.781 69.3438C173.781 68.5833 173.716 68.0703 173.586 67.8047C173.456 67.5339 173.326 67.3412 173.195 67.2266C173.07 67.112 172.862 67.013 172.57 66.9297C172.279 66.8412 171.823 66.7969 171.203 66.7969C170.583 66.7969 170.096 66.8386 169.742 66.9219C169.388 67 169.086 67.1354 168.836 67.3281C168.357 67.6979 168.117 68.3776 168.117 69.3672V73.4453C168.117 74.4245 168.359 75.0807 168.844 75.4141C169.328 75.7422 170.099 75.9063 171.156 75.9063C172.219 75.9063 172.896 75.7813 173.188 75.5313C173.479 75.2813 173.659 74.9167 173.727 74.4375C173.763 74.1771 173.781 73.8646 173.781 73.5H175.273C175.273 74.6354 175.109 75.4323 174.781 75.8906C174.177 76.7448 173.029 77.1719 171.336 77.1719C169.914 77.1719 168.87 77.0026 168.203 76.6641Z" fill="#C9D1D9"/>
<path d="M186.783 77V66.9922H183.525V65.7031H191.619V66.9922H188.353V77H186.783Z" fill="#C9D1D9"/>
<path d="M223.163 77.1719C221.059 77.1719 219.681 76.6511 219.03 75.6094C218.65 75 218.46 74.1979 218.46 73.2031V69.6563C218.46 68.0469 218.929 66.9245 219.866 66.2891C220.611 65.7839 221.658 65.5313 223.007 65.5313C224.356 65.5313 225.343 65.6849 225.968 65.9922C226.598 66.2943 227.012 66.7005 227.21 67.211C227.408 67.7162 227.507 68.3333 227.507 69.0625L226.069 69.1797C226.069 68.4453 225.996 67.9557 225.851 67.711C225.71 67.461 225.572 67.2839 225.437 67.1797C225.306 67.0755 225.082 66.987 224.765 66.9141C224.452 66.836 223.976 66.7969 223.335 66.7969C222.7 66.7969 222.2 66.8386 221.835 66.9219C221.47 67 221.148 67.1354 220.866 67.3281C220.314 67.7083 220.038 68.388 220.038 69.3672V73.4453C220.038 74.4245 220.301 75.0807 220.827 75.4141C221.353 75.7422 222.127 75.9063 223.148 75.9063C224.174 75.9063 224.913 75.7448 225.366 75.4219C225.825 75.0938 226.054 74.4349 226.054 73.4453V72.4063H223.374V71.2578H227.632V77H226.773L226.577 75.0781C226.478 75.7292 226.15 76.2422 225.593 76.6172C225.041 76.987 224.231 77.1719 223.163 77.1719Z" fill="#C9D1D9"/>
<path d="M205.411 77.1719C203.307 77.1719 201.93 76.6511 201.279 75.6094C200.898 75 200.708 74.1979 200.708 73.2031V69.6563C200.708 68.0469 201.177 66.9245 202.115 66.2891C202.859 65.7839 203.906 65.5313 205.255 65.5313C206.604 65.5313 207.591 65.6849 208.216 65.9922C208.846 66.2943 209.26 66.7005 209.458 67.211C209.656 67.7162 209.755 68.3333 209.755 69.0625L208.318 69.1797C208.318 68.4453 208.245 67.9557 208.099 67.711C207.958 67.461 207.82 67.2839 207.685 67.1797C207.555 67.0755 207.331 66.987 207.013 66.9141C206.7 66.836 206.224 66.7969 205.583 66.7969C204.948 66.7969 204.448 66.8386 204.083 66.9219C203.719 67 203.396 67.1354 203.115 67.3281C202.562 67.7083 202.286 68.388 202.286 69.3672V73.4453C202.286 74.4245 202.549 75.0807 203.075 75.4141C203.602 75.7422 204.375 75.9063 205.396 75.9063C206.422 75.9063 207.161 75.7448 207.615 75.4219C208.073 75.0938 208.302 74.4349 208.302 73.4453V72.4063H205.622V71.2578H209.88V77H209.021L208.825 75.0781C208.727 75.7292 208.398 76.2422 207.841 76.6172C207.289 76.987 206.479 77.1719 205.411 77.1719Z" fill="#C9D1D9"/>
<path d="M379.672 77L383.883 65.7031H385.266L389.484 77H387.883L387.117 74.7969H382.078L381.305 77H379.672ZM382.453 73.6797H386.758L384.617 67.5L382.453 73.6797Z" fill="#C9D1D9"/>
<path d="M403.26 77V66.9922H400.002V65.7031H408.096V66.9922H404.831V77H403.26Z" fill="#C9D1D9"/>
<path d="M422.025 77.1719C419.921 77.1719 418.543 76.6511 417.892 75.6094C417.512 75 417.322 74.1979 417.322 73.2031V69.6563C417.322 68.0469 417.791 66.9245 418.728 66.2891C419.473 65.7839 420.52 65.5313 421.869 65.5313C423.218 65.5313 424.205 65.6849 424.83 65.9922C425.46 66.2943 425.874 66.7005 426.072 67.211C426.27 67.7162 426.369 68.3333 426.369 69.0625L424.931 69.1797C424.931 68.4453 424.859 67.9557 424.713 67.711C424.572 67.461 424.434 67.2839 424.299 67.1797C424.168 67.0755 423.944 66.987 423.627 66.9141C423.314 66.836 422.838 66.7969 422.197 66.7969C421.562 66.7969 421.062 66.8386 420.697 66.9219C420.332 67 420.01 67.1354 419.728 67.3281C419.176 67.7083 418.9 68.388 418.9 69.3672V73.4453C418.9 74.4245 419.163 75.0807 419.689 75.4141C420.215 75.7422 420.989 75.9063 422.01 75.9063C423.036 75.9063 423.775 75.7448 424.228 75.4219C424.687 75.0938 424.916 74.4349 424.916 73.4453V72.4063H422.236V71.2578H426.494V77H425.635L425.439 75.0781C425.34 75.7292 425.012 76.2422 424.455 76.6172C423.903 76.987 423.093 77.1719 422.025 77.1719Z" fill="#C9D1D9"/>
<path d="M453.921 77V66.9922H450.663V65.7031H458.757V66.9922H455.491V77H453.921Z" fill="#C9D1D9"/>
<path d="M435.341 76.6641C434.68 76.3203 434.237 75.862 434.013 75.2891C433.789 74.711 433.677 74.0156 433.677 73.2031V69.6563C433.677 68.0104 434.104 66.888 434.958 66.2891C435.682 65.7839 436.734 65.5313 438.115 65.5313C439.5 65.5313 440.505 65.724 441.13 66.1094C441.755 66.4896 442.146 67.0886 442.302 67.9063C442.375 68.2708 442.411 68.7057 442.411 69.211L440.919 69.3438C440.919 68.5833 440.854 68.0703 440.724 67.8047C440.594 67.5339 440.463 67.3412 440.333 67.2266C440.208 67.112 440 67.013 439.708 66.9297C439.417 66.8412 438.961 66.7969 438.341 66.7969C437.721 66.7969 437.234 66.8386 436.88 66.9219C436.526 67 436.224 67.1354 435.974 67.3281C435.495 67.6979 435.255 68.3776 435.255 69.3672V73.4453C435.255 74.4245 435.497 75.0807 435.982 75.4141C436.466 75.7422 437.237 75.9063 438.294 75.9063C439.357 75.9063 440.034 75.7813 440.325 75.5313C440.617 75.2813 440.797 74.9167 440.865 74.4375C440.901 74.1771 440.919 73.8646 440.919 73.5H442.411C442.411 74.6354 442.247 75.4323 441.919 75.8906C441.315 76.7448 440.167 77.1719 438.474 77.1719C437.052 77.1719 436.008 77.0026 435.341 76.6641Z" fill="#C9D1D9"/>
<path d="M626.156 77.1719C624.052 77.1719 622.674 76.6511 622.023 75.6094C621.643 75 621.453 74.1979 621.453 73.2031V69.6563C621.453 68.0469 621.922 66.9245 622.859 66.2891C623.604 65.7839 624.651 65.5313 626 65.5313C627.349 65.5313 628.336 65.6849 628.961 65.9922C629.591 66.2943 630.005 66.7005 630.203 67.211C630.401 67.7162 630.5 68.3333 630.5 69.0625L629.062 69.1797C629.062 68.4453 628.99 67.9557 628.844 67.711C628.703 67.461 628.565 67.2839 628.43 67.1797C628.299 67.0755 628.076 66.987 627.758 66.9141C627.445 66.836 626.969 66.7969 626.328 66.7969C625.693 66.7969 625.193 66.8386 624.828 66.9219C624.464 67 624.141 67.1354 623.859 67.3281C623.307 67.7083 623.031 68.388 623.031 69.3672V73.4453C623.031 74.4245 623.294 75.0807 623.82 75.4141C624.346 75.7422 625.12 75.9063 626.141 75.9063C627.167 75.9063 627.906 75.7448 628.359 75.4219C628.818 75.0938 629.047 74.4349 629.047 73.4453V72.4063H626.367V71.2578H630.625V77H629.766L629.57 75.0781C629.471 75.7292 629.143 76.2422 628.586 76.6172C628.034 76.987 627.224 77.1719 626.156 77.1719Z" fill="#C9D1D9"/>
<path d="M640.838 76.6641C640.176 76.3203 639.734 75.862 639.51 75.2891C639.286 74.711 639.174 74.0156 639.174 73.2031V69.6563C639.174 68.0104 639.601 66.888 640.455 66.2891C641.179 65.7839 642.231 65.5313 643.611 65.5313C644.997 65.5313 646.002 65.724 646.627 66.1094C647.252 66.4896 647.642 67.0886 647.799 67.9063C647.872 68.2708 647.908 68.7057 647.908 69.211L646.416 69.3438C646.416 68.5833 646.351 68.0703 646.22 67.8047C646.09 67.5339 645.96 67.3412 645.83 67.2266C645.705 67.112 645.497 67.013 645.205 66.9297C644.913 66.8412 644.457 66.7969 643.838 66.7969C643.218 66.7969 642.731 66.8386 642.377 66.9219C642.023 67 641.72 67.1354 641.47 67.3281C640.991 67.6979 640.752 68.3776 640.752 69.3672V73.4453C640.752 74.4245 640.994 75.0807 641.478 75.4141C641.963 75.7422 642.734 75.9063 643.791 75.9063C644.853 75.9063 645.53 75.7813 645.822 75.5313C646.114 75.2813 646.293 74.9167 646.361 74.4375C646.398 74.1771 646.416 73.8646 646.416 73.5H647.908C647.908 74.6354 647.744 75.4323 647.416 75.8906C646.812 76.7448 645.663 77.1719 643.97 77.1719C642.549 77.1719 641.504 77.0026 640.838 76.6641Z" fill="#C9D1D9"/>
<path d="M659.418 77V66.9922H656.16V65.7031H664.253V66.9922H660.988V77H659.418Z" fill="#C9D1D9"/>
<path d="M694.432 77.1719C692.328 77.1719 690.95 76.6511 690.299 75.6094C689.919 75 689.729 74.1979 689.729 73.2031V69.6563C689.729 68.0469 690.198 66.9245 691.135 66.2891C691.88 65.7839 692.927 65.5313 694.276 65.5313C695.625 65.5313 696.612 65.6849 697.237 65.9922C697.867 66.2943 698.281 66.7005 698.479 67.211C698.677 67.7162 698.776 68.3333 698.776 69.0625L697.338 69.1797C697.338 68.4453 697.265 67.9557 697.12 67.711C696.979 67.461 696.841 67.2839 696.706 67.1797C696.575 67.0755 696.351 66.987 696.034 66.9141C695.721 66.836 695.245 66.7969 694.604 66.7969C693.969 66.7969 693.469 66.8386 693.104 66.9219C692.739 67 692.417 67.1354 692.135 67.3281C691.583 67.7083 691.307 68.388 691.307 69.3672V73.4453C691.307 74.4245 691.57 75.0807 692.096 75.4141C692.622 75.7422 693.396 75.9063 694.417 75.9063C695.443 75.9063 696.182 75.7448 696.635 75.4219C697.094 75.0938 697.323 74.4349 697.323 73.4453V72.4063H694.643V71.2578H698.901V77H698.042L697.846 75.0781C697.747 75.7292 697.419 76.2422 696.862 76.6172C696.31 76.987 695.5 77.1719 694.432 77.1719Z" fill="#C9D1D9"/>
<path d="M676.68 77.1719C674.576 77.1719 673.199 76.6511 672.548 75.6094C672.167 75 671.977 74.1979 671.977 73.2031V69.6563C671.977 68.0469 672.446 66.9245 673.384 66.2891C674.128 65.7839 675.175 65.5313 676.524 65.5313C677.873 65.5313 678.86 65.6849 679.485 65.9922C680.115 66.2943 680.529 66.7005 680.727 67.211C680.925 67.7162 681.024 68.3333 681.024 69.0625L679.587 69.1797C679.587 68.4453 679.514 67.9557 679.368 67.711C679.227 67.461 679.089 67.2839 678.954 67.1797C678.824 67.0755 678.6 66.987 678.282 66.9141C677.969 66.836 677.493 66.7969 676.852 66.7969C676.217 66.7969 675.717 66.8386 675.352 66.9219C674.988 67 674.665 67.1354 674.384 67.3281C673.831 67.7083 673.555 68.388 673.555 69.3672V73.4453C673.555 74.4245 673.818 75.0807 674.344 75.4141C674.87 75.7422 675.644 75.9063 676.665 75.9063C677.691 75.9063 678.43 75.7448 678.884 75.4219C679.342 75.0938 679.571 74.4349 679.571 73.4453V72.4063H676.891V71.2578H681.149V77H680.29L680.094 75.0781C679.995 75.7292 679.667 76.2422 679.11 76.6172C678.558 76.987 677.748 77.1719 676.68 77.1719Z" fill="#C9D1D9"/>
<g filter="url(#filter7_d)">
<path d="M734.094 72.8281C734.094 75.0573 732.862 76.1719 730.398 76.1719C728.763 76.1719 727.339 75.8203 726.125 75.1172L726.68 73.9141C727.148 74.1901 727.716 74.4245 728.383 74.6172C729.055 74.8099 729.706 74.9063 730.336 74.9063C730.971 74.9063 731.451 74.8255 731.773 74.6641C732.352 74.3724 732.641 73.7787 732.641 72.8828C732.641 72.513 732.622 72.2656 732.586 72.1406C732.466 71.724 732.026 71.3958 731.266 71.1563L728.539 70.25C727.659 69.9636 727.07 69.6016 726.773 69.1641C726.482 68.7214 726.336 68.1563 726.336 67.4688C726.341 66.4792 726.703 65.724 727.422 65.2031C728.042 64.7604 728.943 64.5365 730.125 64.5313C731.807 64.5313 733.07 64.7943 733.914 65.3203L733.531 66.5469C732.604 66.0469 731.56 65.7969 730.398 65.7969C729.591 65.7969 728.977 65.9011 728.555 66.1094C728.133 66.3177 727.906 66.6537 727.875 67.1172C727.865 67.263 727.859 67.3932 727.859 67.5078C727.859 67.8828 727.938 68.1719 728.094 68.375C728.255 68.5781 728.565 68.7578 729.023 68.9141L731.867 69.875C732.648 70.1406 733.214 70.4896 733.562 70.9219C733.917 71.349 734.094 71.9844 734.094 72.8281Z" fill="#C9D1D9"/>
</g>
<path d="M17.0938 182.828C17.0938 185.057 15.862 186.172 13.3984 186.172C11.763 186.172 10.3385 185.82 9.125 185.117L9.67969 183.914C10.1484 184.19 10.7161 184.424 11.3828 184.617C12.0547 184.81 12.7057 184.906 13.3359 184.906C13.9714 184.906 14.4505 184.826 14.7734 184.664C15.3516 184.372 15.6406 183.779 15.6406 182.883C15.6406 182.513 15.6224 182.266 15.5859 182.141C15.4661 181.724 15.026 181.396 14.2656 181.156L11.5391 180.25C10.6589 179.964 10.0703 179.602 9.77344 179.164C9.48177 178.721 9.33594 178.156 9.33594 177.469C9.34115 176.479 9.70312 175.724 10.4219 175.203C11.0417 174.76 11.9427 174.536 13.125 174.531C14.8073 174.531 16.0703 174.794 16.9141 175.32L16.5312 176.547C15.6042 176.047 14.5599 175.797 13.3984 175.797C12.5911 175.797 11.9766 175.901 11.5547 176.109C11.1328 176.318 10.9062 176.654 10.875 177.117C10.8646 177.263 10.8594 177.393 10.8594 177.508C10.8594 177.883 10.9375 178.172 11.0938 178.375C11.2552 178.578 11.5651 178.758 12.0234 178.914L14.8672 179.875C15.6484 180.141 16.2135 180.49 16.5625 180.922C16.9167 181.349 17.0938 181.984 17.0938 182.828ZM23.9375 182.352V181.195H30.2031V182.352H23.9375ZM23.9375 179.711V178.555H30.2031V179.711H23.9375ZM39.0391 185.664C38.3776 185.32 37.9349 184.862 37.7109 184.289C37.487 183.711 37.375 183.016 37.375 182.203V178.656C37.375 177.01 37.8021 175.888 38.6562 175.289C39.3802 174.784 40.4323 174.531 41.8125 174.531C43.1979 174.531 44.2031 174.724 44.8281 175.109C45.4531 175.49 45.8438 176.089 46 176.906C46.0729 177.271 46.1094 177.706 46.1094 178.211L44.6172 178.344C44.6172 177.583 44.5521 177.07 44.4219 176.805C44.2917 176.534 44.1615 176.341 44.0312 176.227C43.9062 176.112 43.6979 176.013 43.4062 175.93C43.1146 175.841 42.6589 175.797 42.0391 175.797C41.4193 175.797 40.9323 175.839 40.5781 175.922C40.224 176 39.9219 176.135 39.6719 176.328C39.1927 176.698 38.9531 177.378 38.9531 178.367V182.445C38.9531 183.424 39.1953 184.081 39.6797 184.414C40.1641 184.742 40.9349 184.906 41.9922 184.906C43.0547 184.906 43.7318 184.781 44.0234 184.531C44.3151 184.281 44.4948 183.917 44.5625 183.438C44.599 183.177 44.6172 182.865 44.6172 182.5H46.1094C46.1094 183.635 45.9453 184.432 45.6172 184.891C45.013 185.745 43.8646 186.172 42.1719 186.172C40.75 186.172 39.7057 186.003 39.0391 185.664ZM47.9844 186L52.1953 174.703H53.5781L57.7969 186H56.1953L55.4297 183.797H50.3906L49.6172 186H47.9844ZM50.7656 182.68H55.0703L52.9297 176.5L50.7656 182.68ZM61.8672 186V175.992H58.6094V174.703H66.7031V175.992H63.4375V186H61.8672ZM71.2734 186V175.992H68.0156V174.703H76.1094V175.992H72.8438V186H71.2734ZM77.25 186L81.4609 174.703H82.8438L87.0625 186H85.4609L84.6953 183.797H79.6562L78.8828 186H77.25ZM80.0312 182.68H84.3359L82.1953 176.5L80.0312 182.68ZM93.7656 186.172C91.6615 186.172 90.2839 185.651 89.6328 184.609C89.2526 184 89.0625 183.198 89.0625 182.203V178.656C89.0625 177.047 89.5312 175.924 90.4688 175.289C91.2135 174.784 92.2604 174.531 93.6094 174.531C94.9583 174.531 95.9453 174.685 96.5703 174.992C97.2005 175.294 97.6146 175.701 97.8125 176.211C98.0104 176.716 98.1094 177.333 98.1094 178.063L96.6719 178.18C96.6719 177.445 96.599 176.956 96.4531 176.711C96.3125 176.461 96.1745 176.284 96.0391 176.18C95.9089 176.076 95.6849 175.987 95.3672 175.914C95.0547 175.836 94.5781 175.797 93.9375 175.797C93.3021 175.797 92.8021 175.839 92.4375 175.922C92.0729 176 91.75 176.135 91.4688 176.328C90.9167 176.708 90.6406 177.388 90.6406 178.367V182.445C90.6406 183.424 90.9036 184.081 91.4297 184.414C91.9557 184.742 92.7292 184.906 93.75 184.906C94.776 184.906 95.5156 184.745 95.9688 184.422C96.4271 184.094 96.6562 183.435 96.6562 182.445V181.406H93.9766V180.258H98.2344V186H97.375L97.1797 184.078C97.0807 184.729 96.7526 185.242 96.1953 185.617C95.6432 185.987 94.8333 186.172 93.7656 186.172ZM102.852 185.664C102.19 185.32 101.747 184.862 101.523 184.289C101.299 183.711 101.188 183.016 101.188 182.203V178.656C101.188 177.01 101.615 175.888 102.469 175.289C103.193 174.784 104.245 174.531 105.625 174.531C107.01 174.531 108.016 174.724 108.641 175.109C109.266 175.49 109.656 176.089 109.812 176.906C109.885 177.271 109.922 177.706 109.922 178.211L108.43 178.344C108.43 177.583 108.365 177.07 108.234 176.805C108.104 176.534 107.974 176.341 107.844 176.227C107.719 176.112 107.51 176.013 107.219 175.93C106.927 175.841 106.471 175.797 105.852 175.797C105.232 175.797 104.745 175.839 104.391 175.922C104.036 176 103.734 176.135 103.484 176.328C103.005 176.698 102.766 177.378 102.766 178.367V182.445C102.766 183.424 103.008 184.081 103.492 184.414C103.977 184.742 104.747 184.906 105.805 184.906C106.867 184.906 107.544 184.781 107.836 184.531C108.128 184.281 108.307 183.917 108.375 183.438C108.411 183.177 108.43 182.865 108.43 182.5H109.922C109.922 183.635 109.758 184.432 109.43 184.891C108.826 185.745 107.677 186.172 105.984 186.172C104.562 186.172 103.518 186.003 102.852 185.664ZM115.055 186V175.992H111.797V174.703H119.891V175.992H116.625V186H115.055ZM126.703 186.172C124.599 186.172 123.221 185.651 122.57 184.609C122.19 184 122 183.198 122 182.203V178.656C122 177.047 122.469 175.924 123.406 175.289C124.151 174.784 125.198 174.531 126.547 174.531C127.896 174.531 128.883 174.685 129.508 174.992C130.138 175.294 130.552 175.701 130.75 176.211C130.948 176.716 131.047 177.333 131.047 178.063L129.609 178.18C129.609 177.445 129.536 176.956 129.391 176.711C129.25 176.461 129.112 176.284 128.977 176.18C128.846 176.076 128.622 175.987 128.305 175.914C127.992 175.836 127.516 175.797 126.875 175.797C126.24 175.797 125.74 175.839 125.375 175.922C125.01 176 124.688 176.135 124.406 176.328C123.854 176.708 123.578 177.388 123.578 178.367V182.445C123.578 183.424 123.841 184.081 124.367 184.414C124.893 184.742 125.667 184.906 126.688 184.906C127.714 184.906 128.453 184.745 128.906 184.422C129.365 184.094 129.594 183.435 129.594 182.445V181.406H126.914V180.258H131.172V186H130.312L130.117 184.078C130.018 184.729 129.69 185.242 129.133 185.617C128.581 185.987 127.771 186.172 126.703 186.172ZM138.859 186.172C136.755 186.172 135.378 185.651 134.727 184.609C134.346 184 134.156 183.198 134.156 182.203V178.656C134.156 177.047 134.625 175.924 135.562 175.289C136.307 174.784 137.354 174.531 138.703 174.531C140.052 174.531 141.039 174.685 141.664 174.992C142.294 175.294 142.708 175.701 142.906 176.211C143.104 176.716 143.203 177.333 143.203 178.063L141.766 178.18C141.766 177.445 141.693 176.956 141.547 176.711C141.406 176.461 141.268 176.284 141.133 176.18C141.003 176.076 140.779 175.987 140.461 175.914C140.148 175.836 139.672 175.797 139.031 175.797C138.396 175.797 137.896 175.839 137.531 175.922C137.167 176 136.844 176.135 136.562 176.328C136.01 176.708 135.734 177.388 135.734 178.367V182.445C135.734 183.424 135.997 184.081 136.523 184.414C137.049 184.742 137.823 184.906 138.844 184.906C139.87 184.906 140.609 184.745 141.062 184.422C141.521 184.094 141.75 183.435 141.75 182.445V181.406H139.07V180.258H143.328V186H142.469L142.273 184.078C142.174 184.729 141.846 185.242 141.289 185.617C140.737 185.987 139.927 186.172 138.859 186.172ZM148.773 186V175.992H145.516V174.703H153.609V175.992H150.344V186H148.773ZM157.352 185.664C156.69 185.32 156.247 184.862 156.023 184.289C155.799 183.711 155.688 183.016 155.688 182.203V178.656C155.688 177.01 156.115 175.888 156.969 175.289C157.693 174.784 158.745 174.531 160.125 174.531C161.51 174.531 162.516 174.724 163.141 175.109C163.766 175.49 164.156 176.089 164.312 176.906C164.385 177.271 164.422 177.706 164.422 178.211L162.93 178.344C162.93 177.583 162.865 177.07 162.734 176.805C162.604 176.534 162.474 176.341 162.344 176.227C162.219 176.112 162.01 176.013 161.719 175.93C161.427 175.841 160.971 175.797 160.352 175.797C159.732 175.797 159.245 175.839 158.891 175.922C158.536 176 158.234 176.135 157.984 176.328C157.505 176.698 157.266 177.378 157.266 178.367V182.445C157.266 183.424 157.508 184.081 157.992 184.414C158.477 184.742 159.247 184.906 160.305 184.906C161.367 184.906 162.044 184.781 162.336 184.531C162.628 184.281 162.807 183.917 162.875 183.438C162.911 183.177 162.93 182.865 162.93 182.5H164.422C164.422 183.635 164.258 184.432 163.93 184.891C163.326 185.745 162.177 186.172 160.484 186.172C159.062 186.172 158.018 186.003 157.352 185.664ZM166.297 186L170.508 174.703H171.891L176.109 186H174.508L173.742 183.797H168.703L167.93 186H166.297ZM169.078 182.68H173.383L171.242 176.5L169.078 182.68ZM182.812 186.172C180.708 186.172 179.331 185.651 178.68 184.609C178.299 184 178.109 183.198 178.109 182.203V178.656C178.109 177.047 178.578 175.924 179.516 175.289C180.26 174.784 181.307 174.531 182.656 174.531C184.005 174.531 184.992 174.685 185.617 174.992C186.247 175.294 186.661 175.701 186.859 176.211C187.057 176.716 187.156 177.333 187.156 178.063L185.719 178.18C185.719 177.445 185.646 176.956 185.5 176.711C185.359 176.461 185.221 176.284 185.086 176.18C184.956 176.076 184.732 175.987 184.414 175.914C184.102 175.836 183.625 175.797 182.984 175.797C182.349 175.797 181.849 175.839 181.484 175.922C181.12 176 180.797 176.135 180.516 176.328C179.964 176.708 179.688 177.388 179.688 178.367V182.445C179.688 183.424 179.951 184.081 180.477 184.414C181.003 184.742 181.776 184.906 182.797 184.906C183.823 184.906 184.562 184.745 185.016 184.422C185.474 184.094 185.703 183.435 185.703 182.445V181.406H183.023V180.258H187.281V186H186.422L186.227 184.078C186.128 184.729 185.799 185.242 185.242 185.617C184.69 185.987 183.88 186.172 182.812 186.172ZM191.898 185.664C191.237 185.32 190.794 184.862 190.57 184.289C190.346 183.711 190.234 183.016 190.234 182.203V178.656C190.234 177.01 190.661 175.888 191.516 175.289C192.24 174.784 193.292 174.531 194.672 174.531C196.057 174.531 197.062 174.724 197.688 175.109C198.312 175.49 198.703 176.089 198.859 176.906C198.932 177.271 198.969 177.706 198.969 178.211L197.477 178.344C197.477 177.583 197.411 177.07 197.281 176.805C197.151 176.534 197.021 176.341 196.891 176.227C196.766 176.112 196.557 176.013 196.266 175.93C195.974 175.841 195.518 175.797 194.898 175.797C194.279 175.797 193.792 175.839 193.438 175.922C193.083 176 192.781 176.135 192.531 176.328C192.052 176.698 191.812 177.378 191.812 178.367V182.445C191.812 183.424 192.055 184.081 192.539 184.414C193.023 184.742 193.794 184.906 194.852 184.906C195.914 184.906 196.591 184.781 196.883 184.531C197.174 184.281 197.354 183.917 197.422 183.438C197.458 183.177 197.477 182.865 197.477 182.5H198.969C198.969 183.635 198.805 184.432 198.477 184.891C197.872 185.745 196.724 186.172 195.031 186.172C193.609 186.172 192.565 186.003 191.898 185.664ZM200.844 186L205.055 174.703H206.438L210.656 186H209.055L208.289 183.797H203.25L202.477 186H200.844ZM203.625 182.68H207.93L205.789 176.5L203.625 182.68ZM214.727 186V175.992H211.469V174.703H219.562V175.992H216.297V186H214.727ZM226.375 186.172C224.271 186.172 222.893 185.651 222.242 184.609C221.862 184 221.672 183.198 221.672 182.203V178.656C221.672 177.047 222.141 175.924 223.078 175.289C223.823 174.784 224.87 174.531 226.219 174.531C227.568 174.531 228.555 174.685 229.18 174.992C229.81 175.294 230.224 175.701 230.422 176.211C230.62 176.716 230.719 177.333 230.719 178.063L229.281 178.18C229.281 177.445 229.208 176.956 229.062 176.711C228.922 176.461 228.784 176.284 228.648 176.18C228.518 176.076 228.294 175.987 227.977 175.914C227.664 175.836 227.188 175.797 226.547 175.797C225.911 175.797 225.411 175.839 225.047 175.922C224.682 176 224.359 176.135 224.078 176.328C223.526 176.708 223.25 177.388 223.25 178.367V182.445C223.25 183.424 223.513 184.081 224.039 184.414C224.565 184.742 225.339 184.906 226.359 184.906C227.385 184.906 228.125 184.745 228.578 184.422C229.036 184.094 229.266 183.435 229.266 182.445V181.406H226.586V180.258H230.844V186H229.984L229.789 184.078C229.69 184.729 229.362 185.242 228.805 185.617C228.253 185.987 227.443 186.172 226.375 186.172ZM235.461 185.664C234.799 185.32 234.357 184.862 234.133 184.289C233.909 183.711 233.797 183.016 233.797 182.203V178.656C233.797 177.01 234.224 175.888 235.078 175.289C235.802 174.784 236.854 174.531 238.234 174.531C239.62 174.531 240.625 174.724 241.25 175.109C241.875 175.49 242.266 176.089 242.422 176.906C242.495 177.271 242.531 177.706 242.531 178.211L241.039 178.344C241.039 177.583 240.974 177.07 240.844 176.805C240.714 176.534 240.583 176.341 240.453 176.227C240.328 176.112 240.12 176.013 239.828 175.93C239.536 175.841 239.081 175.797 238.461 175.797C237.841 175.797 237.354 175.839 237 175.922C236.646 176 236.344 176.135 236.094 176.328C235.615 176.698 235.375 177.378 235.375 178.367V182.445C235.375 183.424 235.617 184.081 236.102 184.414C236.586 184.742 237.357 184.906 238.414 184.906C239.477 184.906 240.154 184.781 240.445 184.531C240.737 184.281 240.917 183.917 240.984 183.438C241.021 183.177 241.039 182.865 241.039 182.5H242.531C242.531 183.635 242.367 184.432 242.039 184.891C241.435 185.745 240.286 186.172 238.594 186.172C237.172 186.172 236.128 186.003 235.461 185.664ZM247.664 186V175.992H244.406V174.703H252.5V175.992H249.234V186H247.664ZM256.242 185.664C255.581 185.32 255.138 184.862 254.914 184.289C254.69 183.711 254.578 183.016 254.578 182.203V178.656C254.578 177.01 255.005 175.888 255.859 175.289C256.583 174.784 257.635 174.531 259.016 174.531C260.401 174.531 261.406 174.724 262.031 175.109C262.656 175.49 263.047 176.089 263.203 176.906C263.276 177.271 263.312 177.706 263.312 178.211L261.82 178.344C261.82 177.583 261.755 177.07 261.625 176.805C261.495 176.534 261.365 176.341 261.234 176.227C261.109 176.112 260.901 176.013 260.609 175.93C260.318 175.841 259.862 175.797 259.242 175.797C258.622 175.797 258.135 175.839 257.781 175.922C257.427 176 257.125 176.135 256.875 176.328C256.396 176.698 256.156 177.378 256.156 178.367V182.445C256.156 183.424 256.398 184.081 256.883 184.414C257.367 184.742 258.138 184.906 259.195 184.906C260.258 184.906 260.935 184.781 261.227 184.531C261.518 184.281 261.698 183.917 261.766 183.438C261.802 183.177 261.82 182.865 261.82 182.5H263.312C263.312 183.635 263.148 184.432 262.82 184.891C262.216 185.745 261.068 186.172 259.375 186.172C257.953 186.172 256.909 186.003 256.242 185.664ZM265.188 186L269.398 174.703H270.781L275 186H273.398L272.633 183.797H267.594L266.82 186H265.188ZM267.969 182.68H272.273L270.133 176.5L267.969 182.68ZM279.07 186V175.992H275.812V174.703H283.906V175.992H280.641V186H279.07ZM288.477 186V175.992H285.219V174.703H293.312V175.992H290.047V186H288.477ZM294.453 186L298.664 174.703H300.047L304.266 186H302.664L301.898 183.797H296.859L296.086 186H294.453ZM297.234 182.68H301.539L299.398 176.5L297.234 182.68ZM310.969 186.172C308.865 186.172 307.487 185.651 306.836 184.609C306.456 184 306.266 183.198 306.266 182.203V178.656C306.266 177.047 306.734 175.924 307.672 175.289C308.417 174.784 309.464 174.531 310.812 174.531C312.161 174.531 313.148 174.685 313.773 174.992C314.404 175.294 314.818 175.701 315.016 176.211C315.214 176.716 315.312 177.333 315.312 178.063L313.875 178.18C313.875 177.445 313.802 176.956 313.656 176.711C313.516 176.461 313.378 176.284 313.242 176.18C313.112 176.076 312.888 175.987 312.57 175.914C312.258 175.836 311.781 175.797 311.141 175.797C310.505 175.797 310.005 175.839 309.641 175.922C309.276 176 308.953 176.135 308.672 176.328C308.12 176.708 307.844 177.388 307.844 178.367V182.445C307.844 183.424 308.107 184.081 308.633 184.414C309.159 184.742 309.932 184.906 310.953 184.906C311.979 184.906 312.719 184.745 313.172 184.422C313.63 184.094 313.859 183.435 313.859 182.445V181.406H311.18V180.258H315.438V186H314.578L314.383 184.078C314.284 184.729 313.956 185.242 313.398 185.617C312.846 185.987 312.036 186.172 310.969 186.172ZM320.055 185.664C319.393 185.32 318.951 184.862 318.727 184.289C318.503 183.711 318.391 183.016 318.391 182.203V178.656C318.391 177.01 318.818 175.888 319.672 175.289C320.396 174.784 321.448 174.531 322.828 174.531C324.214 174.531 325.219 174.724 325.844 175.109C326.469 175.49 326.859 176.089 327.016 176.906C327.089 177.271 327.125 177.706 327.125 178.211L325.633 178.344C325.633 177.583 325.568 177.07 325.438 176.805C325.307 176.534 325.177 176.341 325.047 176.227C324.922 176.112 324.714 176.013 324.422 175.93C324.13 175.841 323.674 175.797 323.055 175.797C322.435 175.797 321.948 175.839 321.594 175.922C321.24 176 320.938 176.135 320.688 176.328C320.208 176.698 319.969 177.378 319.969 178.367V182.445C319.969 183.424 320.211 184.081 320.695 184.414C321.18 184.742 321.951 184.906 323.008 184.906C324.07 184.906 324.747 184.781 325.039 184.531C325.331 184.281 325.51 183.917 325.578 183.438C325.615 183.177 325.633 182.865 325.633 182.5H327.125C327.125 183.635 326.961 184.432 326.633 184.891C326.029 185.745 324.88 186.172 323.188 186.172C321.766 186.172 320.721 186.003 320.055 185.664ZM332.258 186V175.992H329V174.703H337.094V175.992H333.828V186H332.258ZM343.906 186.172C341.802 186.172 340.424 185.651 339.773 184.609C339.393 184 339.203 183.198 339.203 182.203V178.656C339.203 177.047 339.672 175.924 340.609 175.289C341.354 174.784 342.401 174.531 343.75 174.531C345.099 174.531 346.086 174.685 346.711 174.992C347.341 175.294 347.755 175.701 347.953 176.211C348.151 176.716 348.25 177.333 348.25 178.063L346.812 178.18C346.812 177.445 346.74 176.956 346.594 176.711C346.453 176.461 346.315 176.284 346.18 176.18C346.049 176.076 345.826 175.987 345.508 175.914C345.195 175.836 344.719 175.797 344.078 175.797C343.443 175.797 342.943 175.839 342.578 175.922C342.214 176 341.891 176.135 341.609 176.328C341.057 176.708 340.781 177.388 340.781 178.367V182.445C340.781 183.424 341.044 184.081 341.57 184.414C342.096 184.742 342.87 184.906 343.891 184.906C344.917 184.906 345.656 184.745 346.109 184.422C346.568 184.094 346.797 183.435 346.797 182.445V181.406H344.117V180.258H348.375V186H347.516L347.32 184.078C347.221 184.729 346.893 185.242 346.336 185.617C345.784 185.987 344.974 186.172 343.906 186.172ZM356.062 186.172C353.958 186.172 352.581 185.651 351.93 184.609C351.549 184 351.359 183.198 351.359 182.203V178.656C351.359 177.047 351.828 175.924 352.766 175.289C353.51 174.784 354.557 174.531 355.906 174.531C357.255 174.531 358.242 174.685 358.867 174.992C359.497 175.294 359.911 175.701 360.109 176.211C360.307 176.716 360.406 177.333 360.406 178.063L358.969 178.18C358.969 177.445 358.896 176.956 358.75 176.711C358.609 176.461 358.471 176.284 358.336 176.18C358.206 176.076 357.982 175.987 357.664 175.914C357.352 175.836 356.875 175.797 356.234 175.797C355.599 175.797 355.099 175.839 354.734 175.922C354.37 176 354.047 176.135 353.766 176.328C353.214 176.708 352.938 177.388 352.938 178.367V182.445C352.938 183.424 353.201 184.081 353.727 184.414C354.253 184.742 355.026 184.906 356.047 184.906C357.073 184.906 357.812 184.745 358.266 184.422C358.724 184.094 358.953 183.435 358.953 182.445V181.406H356.273V180.258H360.531V186H359.672L359.477 184.078C359.378 184.729 359.049 185.242 358.492 185.617C357.94 185.987 357.13 186.172 356.062 186.172Z" fill="#C9D1D9"/>
<defs>
<filter id="filter0_d" x="0.18158" y="3.99197" width="720.317" height="105.181" filterUnits="userSpaceOnUse" color-interpolation-filters="sRGB">
<feFlood flood-opacity="0" result="BackgroundImageFix"/>
<feColorMatrix in="SourceAlpha" type="matrix" values="0 0 0 0 0 0 0 0 0 0 0 0 0 0 0 0 0 0 127 0"/>
<feOffset dy="4"/>
<feGaussianBlur stdDeviation="2"/>
<feColorMatrix type="matrix" values="0 0 0 0 0 0 0 0 0 0 0 0 0 0 0 0 0 0 0.25 0"/>
<feBlend mode="normal" in2="BackgroundImageFix" result="effect1_dropShadow"/>
<feBlend mode="normal" in="SourceGraphic" in2="effect1_dropShadow" result="shape"/>
</filter>
<filter id="filter1_d" x="258.5" y="49.1848" width="328" height="53.6224" filterUnits="userSpaceOnUse" color-interpolation-filters="sRGB">
<feFlood flood-opacity="0" result="BackgroundImageFix"/>
<feColorMatrix in="SourceAlpha" type="matrix" values="0 0 0 0 0 0 0 0 0 0 0 0 0 0 0 0 0 0 127 0"/>
<feOffset dy="4"/>
<feGaussianBlur stdDeviation="2"/>
<feColorMatrix type="matrix" values="0 0 0 0 0 0 0 0 0 0 0 0 0 0 0 0 0 0 0.25 0"/>
<feBlend mode="normal" in2="BackgroundImageFix" result="effect1_dropShadow"/>
<feBlend mode="normal" in="SourceGraphic" in2="effect1_dropShadow" result="shape"/>
</filter>
<filter id="filter2_d" x="141.644" y="9.00002" width="90.9144" height="55.5" filterUnits="userSpaceOnUse" color-interpolation-filters="sRGB">
<feFlood flood-opacity="0" result="BackgroundImageFix"/>
<feColorMatrix in="SourceAlpha" type="matrix" values="0 0 0 0 0 0 0 0 0 0 0 0 0 0 0 0 0 0 127 0"/>
<feOffset dy="4"/>
<feGaussianBlur stdDeviation="2"/>
<feColorMatrix type="matrix" values="0 0 0 0 0 0 0 0 0 0 0 0 0 0 0 0 0 0 0.25 0"/>
<feBlend mode="normal" in2="BackgroundImageFix" result="effect1_dropShadow"/>
<feBlend mode="normal" in="SourceGraphic" in2="effect1_dropShadow" result="shape"/>
</filter>
<filter id="filter3_d" x="374.5" y="9.00002" width="90.612" height="55.5" filterUnits="userSpaceOnUse" color-interpolation-filters="sRGB">
<feFlood flood-opacity="0" result="BackgroundImageFix"/>
<feColorMatrix in="SourceAlpha" type="matrix" values="0 0 0 0 0 0 0 0 0 0 0 0 0 0 0 0 0 0 127 0"/>
<feOffset dy="4"/>
<feGaussianBlur stdDeviation="2"/>
<feColorMatrix type="matrix" values="0 0 0 0 0 0 0 0 0 0 0 0 0 0 0 0 0 0 0.25 0"/>
<feBlend mode="normal" in2="BackgroundImageFix" result="effect1_dropShadow"/>
<feBlend mode="normal" in="SourceGraphic" in2="effect1_dropShadow" result="shape"/>
</filter>
<filter id="filter4_d" x="611.5" y="9.00002" width="89.116" height="55.5609" filterUnits="userSpaceOnUse" color-interpolation-filters="sRGB">
<feFlood flood-opacity="0" result="BackgroundImageFix"/>
<feColorMatrix in="SourceAlpha" type="matrix" values="0 0 0 0 0 0 0 0 0 0 0 0 0 0 0 0 0 0 127 0"/>
<feOffset dy="4"/>
<feGaussianBlur stdDeviation="2"/>
<feColorMatrix type="matrix" values="0 0 0 0 0 0 0 0 0 0 0 0 0 0 0 0 0 0 0.25 0"/>
<feBlend mode="normal" in2="BackgroundImageFix" result="effect1_dropShadow"/>
<feBlend mode="normal" in="SourceGraphic" in2="effect1_dropShadow" result="shape"/>
</filter>
<filter id="filter5_d" x="0.18158" y="3.99197" width="720.317" height="105.181" filterUnits="userSpaceOnUse" color-interpolation-filters="sRGB">
<feFlood flood-opacity="0" result="BackgroundImageFix"/>
<feColorMatrix in="SourceAlpha" type="matrix" values="0 0 0 0 0 0 0 0 0 0 0 0 0 0 0 0 0 0 127 0"/>
<feOffset dy="4"/>
<feGaussianBlur stdDeviation="2"/>
<feColorMatrix type="matrix" values="0 0 0 0 0 0 0 0 0 0 0 0 0 0 0 0 0 0 0.25 0"/>
<feBlend mode="normal" in2="BackgroundImageFix" result="effect1_dropShadow"/>
<feBlend mode="normal" in="SourceGraphic" in2="effect1_dropShadow" result="shape"/>
</filter>
<filter id="filter6_d" x="2.47263" y="6.49543" width="715.746" height="99.1797" filterUnits="userSpaceOnUse" color-interpolation-filters="sRGB">
<feFlood flood-opacity="0" result="BackgroundImageFix"/>
<feColorMatrix in="SourceAlpha" type="matrix" values="0 0 0 0 0 0 0 0 0 0 0 0 0 0 0 0 0 0 127 0"/>
<feOffset dy="4"/>
<feGaussianBlur stdDeviation="2"/>
<feColorMatrix type="matrix" values="0 0 0 0 0 0 0 0 0 0 0 0 0 0 0 0 0 0 0.25 0"/>
<feBlend mode="normal" in2="BackgroundImageFix" result="effect1_dropShadow"/>
<feBlend mode="normal" in="SourceGraphic" in2="effect1_dropShadow" result="shape"/>
</filter>
<filter id="filter7_d" x="722.125" y="64.5313" width="15.9688" height="19.6406" filterUnits="userSpaceOnUse" color-interpolation-filters="sRGB">
<feFlood flood-opacity="0" result="BackgroundImageFix"/>
<feColorMatrix in="SourceAlpha" type="matrix" values="0 0 0 0 0 0 0 0 0 0 0 0 0 0 0 0 0 0 127 0"/>
<feOffset dy="4"/>
<feGaussianBlur stdDeviation="2"/>
<feColorMatrix type="matrix" values="0 0 0 0 0 0 0 0 0 0 0 0 0 0 0 0 0 0 0.25 0"/>
<feBlend mode="normal" in2="BackgroundImageFix" result="effect1_dropShadow"/>
<feBlend mode="normal" in="SourceGraphic" in2="effect1_dropShadow" result="shape"/>
</filter>
</defs>
</svg>
