<svg width="599" height="283" viewBox="0 0 599 283" fill="none" xmlns="http://www.w3.org/2000/svg">
<path d="M27.1133 226V217.352H30.8633C32.2461 217.352 33.1758 217.762 33.6523 218.582C33.918 219.043 34.0508 219.639 34.0508 220.369V223.023C34.0508 224.484 33.4961 225.404 32.3867 225.783C31.9648 225.928 31.459 226 30.8691 226H27.1133ZM28.8535 224.646H30.7168C31.3105 224.646 31.7246 224.537 31.959 224.318C32.1934 224.1 32.3105 223.742 32.3105 223.246V220.141C32.3105 219.652 32.1895 219.291 31.9473 219.057C31.709 218.822 31.2988 218.705 30.7168 218.705H28.8535V224.646ZM37.8418 221.342H39.9805C40.3906 221.342 40.6719 221.227 40.8242 220.996C40.9805 220.762 41.0586 220.408 41.0586 219.936C41.0586 219.037 40.7227 218.588 40.0508 218.588H37.8418V221.342ZM36.1016 226V217.352H39.834C40.9512 217.352 41.7109 217.578 42.1133 218.031C42.5195 218.484 42.7227 219.1 42.7227 219.877C42.7227 220.65 42.6094 221.215 42.3828 221.57C42.1602 221.922 41.8496 222.176 41.4512 222.332L43.1211 226H41.3164L39.7988 222.584H37.8418V226H36.1016ZM46.9883 226L43.918 217.352H45.7812L48.0664 224.342L50.2812 217.352H52.1445L49.0977 226H46.9883ZM57.125 226.152C55.4297 226.152 54.3125 225.73 53.7734 224.887C53.4688 224.418 53.3164 223.811 53.3164 223.064V220.357C53.3164 219.143 53.6934 218.293 54.4473 217.809C55.0684 217.41 55.9688 217.209 57.1484 217.205C58.793 217.205 59.8789 217.654 60.4062 218.553C60.7031 219.057 60.8516 219.688 60.8516 220.445V222.971C60.8516 224.15 60.4805 225.002 59.7383 225.525C59.1445 225.943 58.2734 226.152 57.125 226.152ZM55.0625 223.258C55.0625 223.824 55.2363 224.221 55.584 224.447C55.9316 224.674 56.4492 224.787 57.1367 224.787C57.8281 224.787 58.3281 224.676 58.6367 224.453C58.9492 224.227 59.1055 223.828 59.1055 223.258V220.123C59.1055 219.561 58.9473 219.162 58.6309 218.928C58.3145 218.689 57.8164 218.57 57.1367 218.57C56.4609 218.57 55.9453 218.688 55.5898 218.922C55.2383 219.156 55.0625 219.557 55.0625 220.123V223.258ZM68.7617 226.152C68.2266 226.152 67.6602 226.082 67.0625 225.941C66.4648 225.801 65.9492 225.609 65.5156 225.367L66.1133 224.096C66.9805 224.557 67.877 224.787 68.8027 224.787C69.2676 224.787 69.5957 224.691 69.7871 224.5C69.9785 224.309 70.0742 224.021 70.0742 223.639C70.0742 223.564 70.0664 223.453 70.0508 223.305C70.0156 222.953 69.625 222.666 68.8789 222.443L67.4023 222.01C66.9492 221.877 66.5859 221.688 66.3125 221.441C66.0391 221.191 65.8535 220.92 65.7559 220.627C65.6582 220.33 65.6094 219.984 65.6094 219.59C65.6094 218.797 65.8906 218.201 66.4531 217.803C67.0195 217.404 67.7402 217.205 68.6152 217.205C69.7715 217.205 70.7363 217.43 71.5098 217.879L71.0176 219.104C70.2637 218.748 69.5137 218.57 68.7676 218.57C67.8301 218.57 67.3477 218.857 67.3203 219.432C67.3203 219.463 67.3203 219.492 67.3203 219.52C67.3203 219.812 67.3926 220.041 67.5371 220.205C67.6855 220.369 67.9863 220.52 68.4395 220.656L69.9102 221.096C70.5039 221.275 70.9434 221.559 71.2285 221.945C71.5176 222.332 71.6621 222.883 71.6621 223.598C71.6621 224.309 71.4336 224.912 70.9766 225.408C70.5234 225.904 69.7852 226.152 68.7617 226.152ZM76.9766 226.152C75.3516 226.152 74.2871 225.766 73.7832 224.992C73.498 224.555 73.3555 223.977 73.3555 223.258V217.346H75.0957V223.334C75.0957 223.877 75.25 224.256 75.5586 224.471C75.8711 224.682 76.3457 224.787 76.9824 224.787C77.6191 224.787 78.0762 224.682 78.3535 224.471C78.6348 224.26 78.7754 223.881 78.7754 223.334V217.346H80.5156V223.188C80.5156 224.336 80.1758 225.137 79.4961 225.59C78.9258 225.965 78.0859 226.152 76.9766 226.152ZM82.6602 226V217.352H87.8926V218.682H84.4004V221.037H87.6523V222.285H84.4004V226H82.6602ZM89.3516 226V224.699H90.9277V218.646H89.3516V217.352H94.2266V218.646H92.6621V224.699H94.2266V226H89.3516ZM96.2656 226V217.352H98.0059V221.547L101.369 217.352H103.291L100.262 221.289L103.508 226H101.545L98.8203 222.021L98.0059 222.83V226H96.2656ZM107.586 226.152C107.051 226.152 106.484 226.082 105.887 225.941C105.289 225.801 104.773 225.609 104.34 225.367L104.938 224.096C105.805 224.557 106.701 224.787 107.627 224.787C108.092 224.787 108.42 224.691 108.611 224.5C108.803 224.309 108.898 224.021 108.898 223.639C108.898 223.564 108.891 223.453 108.875 223.305C108.84 222.953 108.449 222.666 107.703 222.443L106.227 222.01C105.773 221.877 105.41 221.688 105.137 221.441C104.863 221.191 104.678 220.92 104.58 220.627C104.482 220.33 104.434 219.984 104.434 219.59C104.434 218.797 104.715 218.201 105.277 217.803C105.844 217.404 106.564 217.205 107.439 217.205C108.596 217.205 109.561 217.43 110.334 217.879L109.842 219.104C109.088 218.748 108.338 218.57 107.592 218.57C106.654 218.57 106.172 218.857 106.145 219.432C106.145 219.463 106.145 219.492 106.145 219.52C106.145 219.812 106.217 220.041 106.361 220.205C106.51 220.369 106.811 220.52 107.264 220.656L108.734 221.096C109.328 221.275 109.768 221.559 110.053 221.945C110.342 222.332 110.486 222.883 110.486 223.598C110.486 224.309 110.258 224.912 109.801 225.408C109.348 225.904 108.609 226.152 107.586 226.152ZM114.225 223.193H116.932L115.602 218.646L114.225 223.193ZM111.559 226L114.406 217.352H116.715L119.598 226H117.752L117.266 224.354H113.879L113.375 226H111.559Z" fill="#C9D1D9"/>
<path d="M276.113 224V215.352H277.42L281.914 221.281V215.352H283.461V224H282.154L277.678 218.164V224H276.113ZM285.5 224V222.699H287.076V216.646H285.5V215.352H290.375V216.646H288.811V222.699H290.375V224H285.5ZM292.039 224V222.963L295.672 216.629H292.203V215.352H297.688V216.4L294.066 222.77H297.758V224H292.039ZM308.234 224.152C307.699 224.152 307.133 224.082 306.535 223.941C305.938 223.801 305.422 223.609 304.988 223.367L305.586 222.096C306.453 222.557 307.35 222.787 308.275 222.787C308.74 222.787 309.068 222.691 309.26 222.5C309.451 222.309 309.547 222.021 309.547 221.639C309.547 221.564 309.539 221.453 309.523 221.305C309.488 220.953 309.098 220.666 308.352 220.443L306.875 220.01C306.422 219.877 306.059 219.688 305.785 219.441C305.512 219.191 305.326 218.92 305.229 218.627C305.131 218.33 305.082 217.984 305.082 217.59C305.082 216.797 305.363 216.201 305.926 215.803C306.492 215.404 307.213 215.205 308.088 215.205C309.244 215.205 310.209 215.43 310.982 215.879L310.49 217.104C309.736 216.748 308.986 216.57 308.24 216.57C307.303 216.57 306.82 216.857 306.793 217.432C306.793 217.463 306.793 217.492 306.793 217.52C306.793 217.812 306.865 218.041 307.01 218.205C307.158 218.369 307.459 218.52 307.912 218.656L309.383 219.096C309.977 219.275 310.416 219.559 310.701 219.945C310.99 220.332 311.135 220.883 311.135 221.598C311.135 222.309 310.906 222.912 310.449 223.408C309.996 223.904 309.258 224.152 308.234 224.152ZM316.449 224.152C314.824 224.152 313.76 223.766 313.256 222.992C312.971 222.555 312.828 221.977 312.828 221.258V215.346H314.568V221.334C314.568 221.877 314.723 222.256 315.031 222.471C315.344 222.682 315.818 222.787 316.455 222.787C317.092 222.787 317.549 222.682 317.826 222.471C318.107 222.26 318.248 221.881 318.248 221.334V215.346H319.988V221.188C319.988 222.336 319.648 223.137 318.969 223.59C318.398 223.965 317.559 224.152 316.449 224.152ZM322.133 224V215.352H327.365V216.682H323.873V219.037H327.125V220.285H323.873V224H322.133ZM328.824 224V222.699H330.4V216.646H328.824V215.352H333.699V216.646H332.135V222.699H333.699V224H328.824ZM335.738 224V215.352H337.479V219.547L340.842 215.352H342.764L339.734 219.289L342.98 224H341.018L338.293 220.021L337.479 220.83V224H335.738ZM347.059 224.152C346.523 224.152 345.957 224.082 345.359 223.941C344.762 223.801 344.246 223.609 343.812 223.367L344.41 222.096C345.277 222.557 346.174 222.787 347.1 222.787C347.564 222.787 347.893 222.691 348.084 222.5C348.275 222.309 348.371 222.021 348.371 221.639C348.371 221.564 348.363 221.453 348.348 221.305C348.312 220.953 347.922 220.666 347.176 220.443L345.699 220.01C345.246 219.877 344.883 219.688 344.609 219.441C344.336 219.191 344.15 218.92 344.053 218.627C343.955 218.33 343.906 217.984 343.906 217.59C343.906 216.797 344.188 216.201 344.75 215.803C345.316 215.404 346.037 215.205 346.912 215.205C348.068 215.205 349.033 215.43 349.807 215.879L349.314 217.104C348.561 216.748 347.811 216.57 347.064 216.57C346.127 216.57 345.645 216.857 345.617 217.432C345.617 217.463 345.617 217.492 345.617 217.52C345.617 217.812 345.689 218.041 345.834 218.205C345.982 218.369 346.283 218.52 346.736 218.656L348.207 219.096C348.801 219.275 349.24 219.559 349.525 219.945C349.814 220.332 349.959 220.883 349.959 221.598C349.959 222.309 349.73 222.912 349.273 223.408C348.82 223.904 348.082 224.152 347.059 224.152ZM353.697 221.193H356.404L355.074 216.646L353.697 221.193ZM351.031 224L353.879 215.352H356.188L359.07 224H357.225L356.738 222.354H353.352L352.848 224H351.031Z" fill="#C9D1D9"/>
<path d="M518.113 224V215.352H523.346V216.682H519.854V219.037H523.105V220.285H519.854V224H518.113ZM524.992 224V215.352H526.908L529.369 219.541L531.795 215.352H533.746V224H532.117V217.607L529.955 221.486H528.789L526.621 217.631V224H524.992ZM538.809 224V222.699H540.385V216.646H538.809V215.352H543.684V216.646H542.119V222.699H543.684V224H538.809ZM545.723 224V215.352H547.029L551.523 221.281V215.352H553.07V224H551.764L547.287 218.164V224H545.723ZM555.297 224V215.352H559.047C560.43 215.352 561.359 215.762 561.836 216.582C562.102 217.043 562.234 217.639 562.234 218.369V221.023C562.234 222.484 561.68 223.404 560.57 223.783C560.148 223.928 559.643 224 559.053 224H555.297ZM557.037 222.646H558.9C559.494 222.646 559.908 222.537 560.143 222.318C560.377 222.1 560.494 221.742 560.494 221.246V218.141C560.494 217.652 560.373 217.291 560.131 217.057C559.893 216.822 559.482 216.705 558.9 216.705H557.037V222.646ZM564.285 224V215.352H569.951V216.664H566.02V218.961H569.506V220.215H566.02V222.688H570.016V224H564.285ZM571.867 224V215.352H573.607V219.547L576.971 215.352H578.893L575.863 219.289L579.109 224H577.146L574.422 220.021L573.607 220.83V224H571.867ZM583.188 224.152C582.652 224.152 582.086 224.082 581.488 223.941C580.891 223.801 580.375 223.609 579.941 223.367L580.539 222.096C581.406 222.557 582.303 222.787 583.229 222.787C583.693 222.787 584.021 222.691 584.213 222.5C584.404 222.309 584.5 222.021 584.5 221.639C584.5 221.564 584.492 221.453 584.477 221.305C584.441 220.953 584.051 220.666 583.305 220.443L581.828 220.01C581.375 219.877 581.012 219.688 580.738 219.441C580.465 219.191 580.279 218.92 580.182 218.627C580.084 218.33 580.035 217.984 580.035 217.59C580.035 216.797 580.316 216.201 580.879 215.803C581.445 215.404 582.166 215.205 583.041 215.205C584.197 215.205 585.162 215.43 585.936 215.879L585.443 217.104C584.689 216.748 583.939 216.57 583.193 216.57C582.256 216.57 581.773 216.857 581.746 217.432C581.746 217.463 581.746 217.492 581.746 217.52C581.746 217.812 581.818 218.041 581.963 218.205C582.111 218.369 582.412 218.52 582.865 218.656L584.336 219.096C584.93 219.275 585.369 219.559 585.654 219.945C585.943 220.332 586.088 220.883 586.088 221.598C586.088 222.309 585.859 222.912 585.402 223.408C584.949 223.904 584.211 224.152 583.188 224.152Z" fill="#247F8F"/>
<circle cx="82.5" cy="15.5" r="15" stroke="#C9D1D9"/>
<circle cx="30.5" cy="69.5" r="15" stroke="#C9D1D9"/>
<circle cx="53.5" cy="123.5" r="15" stroke="#C9D1D9"/>
<path d="M38.5005 57.2225C38.4886 57.4984 38.7027 57.7316 38.9786 57.7434L43.4744 57.9363C43.7503 57.9482 43.9836 57.7341 43.9954 57.4582C44.0072 57.1823 43.7932 56.9491 43.5173 56.9372L39.521 56.7658L39.6924 52.7695C39.7042 52.4936 39.4902 52.2603 39.2143 52.2485C38.9384 52.2367 38.7052 52.4507 38.6933 52.7266L38.5005 57.2225ZM72.1619 26.1316L38.6619 56.8755L39.3381 57.6123L72.8381 26.8684L72.1619 26.1316Z" fill="#C9D1D9"/>
<path d="M12.506 108.577C12.5487 108.85 12.8045 109.037 13.0774 108.994L17.5232 108.298C17.796 108.255 17.9825 107.999 17.9398 107.726C17.8971 107.454 17.6413 107.267 17.3684 107.31L13.4166 107.929L12.7977 103.977C12.755 103.704 12.4992 103.517 12.2263 103.56C11.9535 103.603 11.767 103.859 11.8097 104.132L12.506 108.577ZM30.096 84.2058L12.596 108.205L13.404 108.795L30.904 84.795L30.096 84.2058Z" fill="#C9D1D9"/>
<path d="M48.994 108.6C48.9513 108.873 48.6955 109.06 48.4227 109.017L43.9769 108.321C43.704 108.278 43.5175 108.022 43.5602 107.749C43.603 107.476 43.8588 107.29 44.1316 107.333L48.0834 107.952L48.7023 104C48.7451 103.727 49.0009 103.54 49.2737 103.583C49.5465 103.626 49.733 103.882 49.6903 104.155L48.994 108.6ZM31.404 84.2287L48.904 108.228L48.096 108.818L30.596 84.8179L31.404 84.2287Z" fill="#C9D1D9"/>
<circle r="15" transform="matrix(-1 0 0 1 134.476 69.5)" stroke="#C9D1D9"/>
<path d="M125.975 56.9648C125.994 57.2403 125.787 57.4793 125.511 57.4988L121.023 57.8153C120.747 57.8347 120.508 57.6272 120.489 57.3517C120.469 57.0763 120.677 56.8372 120.952 56.8178L124.942 56.5364L124.661 52.5463C124.641 52.2709 124.849 52.0318 125.124 52.0124C125.4 51.993 125.639 52.2005 125.658 52.476L125.975 56.9648ZM91.8278 27.1225L125.804 56.6225L125.148 57.3775L91.1722 27.8775L91.8278 27.1225Z" fill="#C9D1D9"/>
<path d="M81.6464 51.3536C81.8417 51.5488 82.1583 51.5488 82.3536 51.3536L85.5355 48.1716C85.7308 47.9763 85.7308 47.6597 85.5355 47.4645C85.3403 47.2692 85.0237 47.2692 84.8284 47.4645L82 50.2929L79.1716 47.4645C78.9763 47.2692 78.6597 47.2692 78.4645 47.4645C78.2692 47.6597 78.2692 47.9763 78.4645 48.1716L81.6464 51.3536ZM81.5 31V51H82.5V31H81.5Z" fill="#C9D1D9"/>
<rect x="69.5" y="51.5" width="25" height="25" stroke="#C9D1D9"/>
<rect x="0.5" y="109.5" width="25" height="25" stroke="#C9D1D9"/>
<path d="M116.506 108.6C116.549 108.873 116.805 109.06 117.077 109.017L121.523 108.321C121.796 108.278 121.983 108.022 121.94 107.749C121.897 107.476 121.641 107.29 121.368 107.333L117.417 107.952L116.798 104C116.755 103.727 116.499 103.54 116.226 103.583C115.954 103.626 115.767 103.882 115.81 104.155L116.506 108.6ZM134.096 84.2287L116.596 108.228L117.404 108.818L134.904 84.8179L134.096 84.2287Z" fill="#C9D1D9"/>
<path d="M152.994 108.623C152.951 108.896 152.695 109.083 152.423 109.04L147.977 108.344C147.704 108.301 147.518 108.045 147.56 107.772C147.603 107.499 147.859 107.313 148.132 107.356L152.083 107.975L152.702 104.023C152.745 103.75 153.001 103.563 153.274 103.606C153.547 103.649 153.733 103.905 153.69 104.177L152.994 108.623ZM135.404 84.2517L152.904 108.251L152.096 108.84L134.596 84.8409L135.404 84.2517Z" fill="#C9D1D9"/>
<rect x="104.5" y="109.523" width="25" height="25" stroke="#C9D1D9"/>
<rect x="140.5" y="109.5" width="25" height="25" stroke="#C9D1D9"/>
<path d="M34.506 162.6C34.5487 162.873 34.8045 163.06 35.0774 163.017L39.5232 162.321C39.796 162.278 39.9825 162.022 39.9398 161.749C39.8971 161.476 39.6413 161.29 39.3684 161.333L35.4166 161.952L34.7977 158C34.755 157.727 34.4992 157.54 34.2263 157.583C33.9535 157.626 33.767 157.882 33.8097 158.155L34.506 162.6ZM52.096 138.229L34.596 162.228L35.404 162.818L52.904 138.818L52.096 138.229Z" fill="#C9D1D9"/>
<path d="M70.994 162.623C70.9513 162.896 70.6955 163.083 70.4227 163.04L65.9769 162.344C65.704 162.301 65.5175 162.045 65.5602 161.772C65.603 161.499 65.8588 161.313 66.1316 161.356L70.0834 161.975L70.7023 158.023C70.7451 157.75 71.0009 157.563 71.2737 157.606C71.5465 157.649 71.733 157.905 71.6903 158.177L70.994 162.623ZM53.404 138.252L70.904 162.251L70.096 162.84L52.596 138.841L53.404 138.252Z" fill="#C9D1D9"/>
<rect x="22.5" y="163.523" width="25" height="25" stroke="#C9D1D9"/>
<rect x="58.5" y="163.5" width="25" height="25" stroke="#C9D1D9"/>
<path d="M27.5 54.5C26.26 51.3695 25.9252 47.9028 26 44" stroke="#484040"/>
<path d="M26.5 41C26.8429 37.219 26.8332 36.7543 28.5 33" stroke="#484040"/>
<path d="M30 30C31.3467 26.8244 32.2593 25.139 34.5 22.5" stroke="#484040"/>
<path d="M37 20C39.4528 17.2768 40.9916 15.9566 44 14" stroke="#484040"/>
<path d="M47.5 11.5C50.2646 9.57789 52.5623 9.2495 56 8" stroke="#484040"/>
<path d="M60 6.99995C63.8634 6.1908 66.557 6.01304 70.5 6" stroke="#484040"/>
<path d="M66.5 2.5L70.5 6L66.5 9" stroke="#484040"/>
<path d="M121.5 77C118.221 83.141 115.242 82.8047 108.5 80.5" stroke="#484040"/>
<path d="M104.436 79.7927C98.7188 78.6714 95.8515 79.2456 91.2634 82.0476" stroke="#484040"/>
<path d="M88.5 83.5C84.5335 85.0498 80.9202 86.9709 75 85" stroke="#484040"/>
<path d="M57.5 79C51.9347 79.8191 49.1688 79.0456 45 75" stroke="#484040"/>
<path d="M72.5 84.0001C68.5763 79.5301 66.0785 78.3462 61 79.0001" stroke="#484040"/>
<path d="M45.5 79L45 75L49 75.5" stroke="#484040"/>
<path d="M68 122.5L73.5127 118.5" stroke="#484040"/>
<path d="M75.9875 116.753L85.4459 110.212" stroke="#484040"/>
<path d="M88.0127 108.5L98.5127 101" stroke="#484040"/>
<path d="M101.013 99.4999L112.587 91.4415" stroke="#484040"/>
<path d="M115.013 89.9999L126.158 82.0562" stroke="#484040"/>
<path d="M121.035 82.5597L125.747 82.3406L124.5 86.5" stroke="#484040"/>
<path d="M45.3359 38L47.4414 32.3516H48.1328L50.2422 38H49.4414L49.0586 36.8984H46.5391L46.1523 38H45.3359ZM46.7266 36.3398H48.8789L47.8086 33.25L46.7266 36.3398Z" fill="#C9D1D9"/>
<path d="M111.852 38V32.3516H112.449L115.684 36.8672V32.3516H116.375V38H115.676L112.543 33.6875V38H111.852ZM117.562 38L119.668 32.3516H120.359L122.469 38H121.668L121.285 36.8984H118.766L118.379 38H117.562ZM118.953 36.3398H121.105L120.035 33.25L118.953 36.3398Z" fill="#C9D1D9"/>
<path d="M44.8516 96V90.3516H45.4492L48.6836 94.8672V90.3516H49.375V96H48.6758L45.543 91.6875V96H44.8516ZM50.5625 96L52.668 90.3516H53.3594L55.4688 96H54.668L54.2852 94.8984H51.7656L51.3789 96H50.5625ZM51.9531 94.3398H54.1055L53.0352 91.25L51.9531 94.3398Z" fill="#C9D1D9"/>
<path d="M120.547 95.4141C120.547 96.4818 119.982 97.0378 118.852 97.082V97.9453H118.422V97.0781C117.719 97.0417 117.099 96.8685 116.562 96.5586L116.84 95.957C117.074 96.0951 117.336 96.2057 117.625 96.2891C117.917 96.3724 118.182 96.4232 118.422 96.4414V94.3438L117.77 94.125C117.501 94.0365 117.289 93.9362 117.133 93.8242C116.977 93.7096 116.859 93.5664 116.781 93.3945C116.706 93.2201 116.668 93.0156 116.668 92.7812C116.668 92.5443 116.699 92.3424 116.762 92.1758C116.978 91.6003 117.531 91.2982 118.422 91.2695V90.6016H118.852V91.2695C119.549 91.2982 120.085 91.4284 120.457 91.6602L120.266 92.2734C119.844 92.0443 119.372 91.9206 118.852 91.9023V93.7422L119.434 93.9375C119.702 94.0312 119.914 94.1354 120.07 94.25C120.388 94.4844 120.547 94.8724 120.547 95.4141ZM118.422 93.5938V91.9062C118.151 91.9245 117.936 91.974 117.777 92.0547C117.566 92.1589 117.453 92.3268 117.438 92.5586C117.432 92.6341 117.43 92.6992 117.43 92.7539C117.43 92.9414 117.469 93.0859 117.547 93.1875C117.628 93.2891 117.783 93.3789 118.012 93.457L118.422 93.5938ZM118.852 94.4844V96.4492C119.008 96.4414 119.141 96.4219 119.25 96.3906C119.531 96.3099 119.706 96.1198 119.773 95.8203C119.805 95.6823 119.82 95.526 119.82 95.3516C119.82 95.1771 119.794 95.0456 119.742 94.957C119.656 94.8086 119.453 94.6823 119.133 94.5781L118.852 94.4844Z" fill="#C9D1D9"/>
<path d="M13.5469 93.4141C13.5469 94.4818 12.9818 95.0378 11.8516 95.082V95.9453H11.4219V95.0781C10.7188 95.0417 10.099 94.8685 9.5625 94.5586L9.83984 93.957C10.0742 94.0951 10.3359 94.2057 10.625 94.2891C10.9167 94.3724 11.1823 94.4232 11.4219 94.4414V92.3438L10.7695 92.125C10.5013 92.0365 10.2891 91.9362 10.1328 91.8242C9.97656 91.7096 9.85938 91.5664 9.78125 91.3945C9.70573 91.2201 9.66797 91.0156 9.66797 90.7812C9.66797 90.5443 9.69922 90.3424 9.76172 90.1758C9.97786 89.6003 10.5312 89.2982 11.4219 89.2695V88.6016H11.8516V89.2695C12.5495 89.2982 13.0846 89.4284 13.457 89.6602L13.2656 90.2734C12.8438 90.0443 12.3724 89.9206 11.8516 89.9023V91.7422L12.4336 91.9375C12.7018 92.0312 12.9141 92.1354 13.0703 92.25C13.388 92.4844 13.5469 92.8724 13.5469 93.4141ZM11.4219 91.5938V89.9062C11.151 89.9245 10.9362 89.974 10.7773 90.0547C10.5664 90.1589 10.4531 90.3268 10.4375 90.5586C10.4323 90.6341 10.4297 90.6992 10.4297 90.7539C10.4297 90.9414 10.4688 91.0859 10.5469 91.1875C10.6276 91.2891 10.7826 91.3789 11.0117 91.457L11.4219 91.5938ZM11.8516 92.4844V94.4492C12.0078 94.4414 12.1406 94.4219 12.25 94.3906C12.5312 94.3099 12.7057 94.1198 12.7734 93.8203C12.8047 93.6823 12.8203 93.526 12.8203 93.3516C12.8203 93.1771 12.7943 93.0456 12.7422 92.957C12.6562 92.8086 12.4531 92.6823 12.1328 92.5781L11.8516 92.4844Z" fill="#C9D1D9"/>
<path d="M36.5469 146.414C36.5469 147.482 35.9818 148.038 34.8516 148.082V148.945H34.4219V148.078C33.7188 148.042 33.099 147.868 32.5625 147.559L32.8398 146.957C33.0742 147.095 33.3359 147.206 33.625 147.289C33.9167 147.372 34.1823 147.423 34.4219 147.441V145.344L33.7695 145.125C33.5013 145.036 33.2891 144.936 33.1328 144.824C32.9766 144.71 32.8594 144.566 32.7812 144.395C32.7057 144.22 32.668 144.016 32.668 143.781C32.668 143.544 32.6992 143.342 32.7617 143.176C32.9779 142.6 33.5312 142.298 34.4219 142.27V141.602H34.8516V142.27C35.5495 142.298 36.0846 142.428 36.457 142.66L36.2656 143.273C35.8438 143.044 35.3724 142.921 34.8516 142.902V144.742L35.4336 144.938C35.7018 145.031 35.9141 145.135 36.0703 145.25C36.388 145.484 36.5469 145.872 36.5469 146.414ZM34.4219 144.594V142.906C34.151 142.924 33.9362 142.974 33.7773 143.055C33.5664 143.159 33.4531 143.327 33.4375 143.559C33.4323 143.634 33.4297 143.699 33.4297 143.754C33.4297 143.941 33.4688 144.086 33.5469 144.188C33.6276 144.289 33.7826 144.379 34.0117 144.457L34.4219 144.594ZM34.8516 145.484V147.449C35.0078 147.441 35.1406 147.422 35.25 147.391C35.5312 147.31 35.7057 147.12 35.7734 146.82C35.8047 146.682 35.8203 146.526 35.8203 146.352C35.8203 146.177 35.7943 146.046 35.7422 145.957C35.6562 145.809 35.4531 145.682 35.1328 145.578L34.8516 145.484Z" fill="#C9D1D9"/>
<path d="M150.852 97V91.3516H151.449L154.684 95.8672V91.3516H155.375V97H154.676L151.543 92.6875V97H150.852ZM156.562 97L158.668 91.3516H159.359L161.469 97H160.668L160.285 95.8984H157.766L157.379 97H156.562ZM157.953 95.3398H160.105L159.035 92.25L157.953 95.3398ZM166.352 95.4141C166.352 96.4818 165.786 97.0378 164.656 97.082V97.9453H164.227V97.0781C163.523 97.0417 162.904 96.8685 162.367 96.5586L162.645 95.957C162.879 96.0951 163.141 96.2057 163.43 96.2891C163.721 96.3724 163.987 96.4232 164.227 96.4414V94.3438L163.574 94.125C163.306 94.0365 163.094 93.9362 162.938 93.8242C162.781 93.7096 162.664 93.5664 162.586 93.3945C162.51 93.2201 162.473 93.0156 162.473 92.7812C162.473 92.5443 162.504 92.3424 162.566 92.1758C162.783 91.6003 163.336 91.2982 164.227 91.2695V90.6016H164.656V91.2695C165.354 91.2982 165.889 91.4284 166.262 91.6602L166.07 92.2734C165.648 92.0443 165.177 91.9206 164.656 91.9023V93.7422L165.238 93.9375C165.507 94.0312 165.719 94.1354 165.875 94.25C166.193 94.4844 166.352 94.8724 166.352 95.4141ZM164.227 93.5938V91.9062C163.956 91.9245 163.741 91.974 163.582 92.0547C163.371 92.1589 163.258 92.3268 163.242 92.5586C163.237 92.6341 163.234 92.6992 163.234 92.7539C163.234 92.9414 163.273 93.0859 163.352 93.1875C163.432 93.2891 163.587 93.3789 163.816 93.457L164.227 93.5938ZM164.656 94.4844V96.4492C164.812 96.4414 164.945 96.4219 165.055 96.3906C165.336 96.3099 165.51 96.1198 165.578 95.8203C165.609 95.6823 165.625 95.526 165.625 95.3516C165.625 95.1771 165.599 95.0456 165.547 94.957C165.461 94.8086 165.258 94.6823 164.938 94.5781L164.656 94.4844Z" fill="#C9D1D9"/>
<path d="M65.8516 149V143.352H66.4492L69.6836 147.867V143.352H70.375V149H69.6758L66.543 144.688V149H65.8516ZM71.5625 149L73.668 143.352H74.3594L76.4688 149H75.668L75.2852 147.898H72.7656L72.3789 149H71.5625ZM72.9531 147.34H75.1055L74.0352 144.25L72.9531 147.34ZM81.3516 147.414C81.3516 148.482 80.7865 149.038 79.6562 149.082V149.945H79.2266V149.078C78.5234 149.042 77.9036 148.868 77.3672 148.559L77.6445 147.957C77.8789 148.095 78.1406 148.206 78.4297 148.289C78.7214 148.372 78.987 148.423 79.2266 148.441V146.344L78.5742 146.125C78.306 146.036 78.0938 145.936 77.9375 145.824C77.7812 145.71 77.6641 145.566 77.5859 145.395C77.5104 145.22 77.4727 145.016 77.4727 144.781C77.4727 144.544 77.5039 144.342 77.5664 144.176C77.7826 143.6 78.3359 143.298 79.2266 143.27V142.602H79.6562V143.27C80.3542 143.298 80.8893 143.428 81.2617 143.66L81.0703 144.273C80.6484 144.044 80.1771 143.921 79.6562 143.902V145.742L80.2383 145.938C80.5065 146.031 80.7188 146.135 80.875 146.25C81.1927 146.484 81.3516 146.872 81.3516 147.414ZM79.2266 145.594V143.906C78.9557 143.924 78.7409 143.974 78.582 144.055C78.3711 144.159 78.2578 144.327 78.2422 144.559C78.237 144.634 78.2344 144.699 78.2344 144.754C78.2344 144.941 78.2734 145.086 78.3516 145.188C78.4323 145.289 78.5872 145.379 78.8164 145.457L79.2266 145.594ZM79.6562 146.484V148.449C79.8125 148.441 79.9453 148.422 80.0547 148.391C80.3359 148.31 80.5104 148.12 80.5781 147.82C80.6094 147.682 80.625 147.526 80.625 147.352C80.625 147.177 80.599 147.046 80.5469 146.957C80.4609 146.809 80.2578 146.682 79.9375 146.578L79.6562 146.484Z" fill="#C9D1D9"/>
<path d="M65.3516 43V37.3516H67.3984C68.2734 37.3516 68.8281 37.5456 69.0625 37.9336C69.2031 38.1654 69.2734 38.4883 69.2734 38.9023C69.2604 39.4622 69.0234 39.8216 68.5625 39.9805C68.8854 40.0534 69.1302 40.2148 69.2969 40.4648C69.4635 40.7148 69.5469 41.0247 69.5469 41.3945C69.5469 41.9544 69.3893 42.362 69.0742 42.6172C68.7591 42.8724 68.2578 43 67.5703 43H65.3516ZM66.1406 42.418H67.5117C67.9544 42.418 68.2747 42.3464 68.4727 42.2031C68.6732 42.0599 68.7734 41.7617 68.7734 41.3086C68.7734 40.6237 68.4167 40.2812 67.7031 40.2812H66.1406V42.418ZM66.1406 39.7461H67.5898C67.9258 39.7461 68.1589 39.6758 68.2891 39.5352C68.4219 39.3945 68.4883 39.2031 68.4883 38.9609C68.4883 38.7188 68.4701 38.5365 68.4336 38.4141C68.3997 38.2917 68.3333 38.194 68.2344 38.1211C68.138 38.0482 68.0169 38 67.8711 37.9766C67.7279 37.9531 67.5299 37.9414 67.2773 37.9414H66.1406V39.7461ZM70.3828 43L72.4883 37.3516H73.1797L75.2891 43H74.4883L74.1055 41.8984H71.5859L71.1992 43H70.3828ZM71.7734 41.3398H73.9258L72.8555 38.25L71.7734 41.3398ZM76.4766 43V37.3516H77.0742L80.3086 41.8672V37.3516H81V43H80.3008L77.168 38.6875V43H76.4766ZM82.1875 43L84.293 37.3516H84.9844L87.0938 43H86.293L85.9102 41.8984H83.3906L83.0039 43H82.1875ZM83.5781 41.3398H85.7305L84.6602 38.25L83.5781 41.3398ZM88.2812 43V37.3516H88.8789L92.1133 41.8672V37.3516H92.8047V43H92.1055L88.9727 38.6875V43H88.2812ZM93.9922 43L96.0977 37.3516H96.7891L98.8984 43H98.0977L97.7148 41.8984H95.1953L94.8086 43H93.9922ZM95.3828 41.3398H97.5352L96.4648 38.25L95.3828 41.3398ZM103.781 41.4141C103.781 42.4818 103.216 43.0378 102.086 43.082V43.9453H101.656V43.0781C100.953 43.0417 100.333 42.8685 99.7969 42.5586L100.074 41.957C100.309 42.0951 100.57 42.2057 100.859 42.2891C101.151 42.3724 101.417 42.4232 101.656 42.4414V40.3438L101.004 40.125C100.736 40.0365 100.523 39.9362 100.367 39.8242C100.211 39.7096 100.094 39.5664 100.016 39.3945C99.9401 39.2201 99.9023 39.0156 99.9023 38.7812C99.9023 38.5443 99.9336 38.3424 99.9961 38.1758C100.212 37.6003 100.766 37.2982 101.656 37.2695V36.6016H102.086V37.2695C102.784 37.2982 103.319 37.4284 103.691 37.6602L103.5 38.2734C103.078 38.0443 102.607 37.9206 102.086 37.9023V39.7422L102.668 39.9375C102.936 40.0312 103.148 40.1354 103.305 40.25C103.622 40.4844 103.781 40.8724 103.781 41.4141ZM101.656 39.5938V37.9062C101.385 37.9245 101.171 37.974 101.012 38.0547C100.801 38.1589 100.688 38.3268 100.672 38.5586C100.667 38.6341 100.664 38.6992 100.664 38.7539C100.664 38.9414 100.703 39.0859 100.781 39.1875C100.862 39.2891 101.017 39.3789 101.246 39.457L101.656 39.5938ZM102.086 40.4844V42.4492C102.242 42.4414 102.375 42.4219 102.484 42.3906C102.766 42.3099 102.94 42.1198 103.008 41.8203C103.039 41.6823 103.055 41.526 103.055 41.3516C103.055 41.1771 103.029 41.0456 102.977 40.957C102.891 40.8086 102.688 40.6823 102.367 40.5781L102.086 40.4844Z" fill="#C9D1D9"/>
<path d="M81.6914 67.1797C82.1328 67.1797 82.457 67.1074 82.6641 66.9629C82.7773 66.8848 82.875 66.8047 82.957 66.7227C83.2344 66.4453 83.373 65.7969 83.373 64.7773V63.125C83.373 62.4375 83.3457 61.9492 83.291 61.6602C83.1309 60.7852 82.6309 60.3477 81.791 60.3477C81.0645 60.3477 80.5742 60.5703 80.3203 61.0156C80.1641 61.2891 80.0645 61.5996 80.0215 61.9473C79.9785 62.291 79.957 62.7148 79.957 63.2188V64.373C79.957 65.209 80.0156 65.8008 80.1328 66.1484C80.3672 66.8359 80.8867 67.1797 81.6914 67.1797ZM83.168 67.8359C82.9883 67.9219 82.7754 67.9922 82.5293 68.0469C82.2832 68.1016 81.9863 68.1289 81.6387 68.1289C81.2949 68.1289 80.9688 68.0859 80.6602 68C80.0625 67.832 79.6309 67.5508 79.3652 67.1562C79.1035 66.7578 78.9395 66.3242 78.873 65.8555C78.8066 65.3867 78.7734 64.8594 78.7734 64.2734V63.3711C78.7734 62.5508 78.8047 61.998 78.8672 61.7129C79 61.1191 79.1504 60.7012 79.3184 60.459C79.8105 59.752 80.5586 59.3984 81.5625 59.3984C82.7578 59.3984 83.5625 59.7441 83.9766 60.4355C84.2305 60.8535 84.3887 61.3027 84.4512 61.7832C84.5176 62.2637 84.5508 62.8184 84.5508 63.4473V64.1914C84.5508 64.9805 84.5195 65.5195 84.457 65.8086C84.3984 66.0977 84.334 66.3438 84.2637 66.5469C84.1973 66.75 84.1152 66.9238 84.0176 67.0684C83.9238 67.209 83.8047 67.3516 83.6602 67.4961C83.5156 67.6367 83.3516 67.75 83.168 67.8359Z" fill="#C9D1D9"/>
<path d="M11.3789 121.201C11.7734 120.842 12.2871 120.662 12.9199 120.662C13.7793 120.662 14.4316 120.9 14.877 121.377C15.3223 121.854 15.5449 122.512 15.5449 123.352C15.5449 124.188 15.2832 124.859 14.7598 125.367C14.2402 125.875 13.5547 126.129 12.7031 126.129C12.2969 126.129 11.9121 126.086 11.5488 126C11.1855 125.918 10.9023 125.83 10.6992 125.736C10.4961 125.643 10.2676 125.521 10.0137 125.373L10.3242 124.477C10.5664 124.637 10.7734 124.76 10.9453 124.846C11.3906 125.068 11.9609 125.18 12.6562 125.18C13.5117 125.18 14.0645 124.844 14.3145 124.172C14.3965 123.953 14.4375 123.705 14.4375 123.428C14.4375 122.834 14.3027 122.371 14.0332 122.039C13.7637 121.703 13.3457 121.535 12.7793 121.535C12.5059 121.535 12.2617 121.584 12.0469 121.682C11.8359 121.775 11.5664 121.941 11.2383 122.18L10.3828 121.828L10.6816 117.527H15V118.494H11.625L11.3789 121.201Z" fill="#C9D1D9"/>
<path d="M36.3262 174.625C36.3262 173.773 35.8828 173.348 34.9961 173.348C34.5352 173.348 34.2148 173.391 34.0352 173.477C33.8555 173.562 33.7266 173.666 33.6484 173.787C33.4844 174.045 33.4023 174.447 33.4023 174.994H32.2773C32.2773 174.279 32.3984 173.734 32.6406 173.359C32.8828 172.98 33.1973 172.727 33.584 172.598C33.9746 172.465 34.4316 172.398 34.9551 172.398C35.7168 172.398 36.3184 172.582 36.7598 172.949C37.2051 173.312 37.4277 173.865 37.4277 174.607C37.4277 175.178 37.3203 175.617 37.1055 175.926C36.8945 176.23 36.5488 176.422 36.0684 176.5C36.5801 176.605 36.9629 176.822 37.2168 177.15C37.4707 177.479 37.5977 178.014 37.5977 178.756C37.5977 179.498 37.3711 180.08 36.918 180.502C36.4648 180.92 35.8184 181.129 34.9785 181.129C34.3418 181.129 33.8359 181.045 33.4609 180.877C33.0898 180.709 32.8066 180.436 32.6113 180.057C32.416 179.678 32.2852 179.15 32.2188 178.475H33.3438C33.3906 179.17 33.541 179.631 33.7949 179.857C33.9355 179.982 34.1016 180.068 34.293 180.115C34.4844 180.158 34.7344 180.18 35.043 180.18C35.5391 180.18 35.9023 180.053 36.1328 179.799C36.3633 179.545 36.4785 179.121 36.4785 178.527C36.4785 177.934 36.3691 177.541 36.1504 177.35C35.9355 177.154 35.6699 177.039 35.3535 177.004C35.041 176.969 34.7363 176.951 34.4395 176.951V176.078C35.0645 176.078 35.4863 176.027 35.7051 175.926C35.9238 175.824 36.082 175.701 36.1797 175.557C36.2773 175.408 36.3262 175.098 36.3262 174.625Z" fill="#C9D1D9"/>
<path d="M67.207 181V180.092H69.5566V173.518L67.3652 173.752L67.2598 172.82L69.7734 172.527H70.7344V180.092H72.8086V181H67.207Z" fill="#C9D1D9"/>
<path d="M117.588 126V123.943H113.838V123.023L116.938 117.527H118.162L115.15 123.035H117.588V121.096H118.566V123.035H119.809V123.943H118.566V126H117.588Z" fill="#C9D1D9"/>
<path d="M150.354 126L150.242 125.074L153.102 121.963C153.621 121.4 153.916 121.055 153.986 120.926C154.061 120.793 154.131 120.648 154.197 120.492C154.268 120.336 154.303 120.107 154.303 119.807C154.303 119.271 154.189 118.895 153.963 118.676C153.736 118.457 153.359 118.348 152.832 118.348C152.504 118.348 152.24 118.369 152.041 118.412C151.842 118.455 151.67 118.537 151.525 118.658C151.268 118.873 151.139 119.32 151.139 120H149.961C149.961 118.266 150.889 117.398 152.744 117.398C153.635 117.398 154.303 117.625 154.748 118.078C155.193 118.527 155.416 119.074 155.416 119.719C155.416 120.363 155.299 120.867 155.064 121.23C154.834 121.594 154.596 121.904 154.35 122.162C154.104 122.416 153.965 122.561 153.934 122.596L151.584 125.086H155.369V126H150.354Z" fill="#C9D1D9"/>
<rect x="277.5" y="30.1666" width="27" height="27" stroke="#C9D1D9"/>
<rect x="277.5" y="3.5" width="27" height="27" stroke="#C9D1D9"/>
<rect x="277.5" y="136.833" width="27" height="27" stroke="#C9D1D9"/>
<rect x="277.5" y="163.5" width="27" height="27" stroke="#C9D1D9"/>
<rect x="277.5" y="110.167" width="27" height="27" stroke="#C9D1D9"/>
<rect x="277.5" y="83.4998" width="27" height="27" stroke="#C9D1D9"/>
<rect x="277.5" y="56.8335" width="27" height="27" stroke="#C9D1D9"/>
<path d="M321.094 22.8281C321.094 24.9635 319.964 26.0755 317.703 26.1641V27.8906H316.844V26.1562C315.438 26.0833 314.198 25.737 313.125 25.1172L313.68 23.9141C314.148 24.1901 314.672 24.4115 315.25 24.5781C315.833 24.7448 316.365 24.8464 316.844 24.8828V20.6875L315.539 20.25C315.003 20.0729 314.578 19.8724 314.266 19.6484C313.953 19.4193 313.719 19.1328 313.562 18.7891C313.411 18.4401 313.336 18.0312 313.336 17.5625C313.336 17.0885 313.398 16.6849 313.523 16.3516C313.956 15.2005 315.062 14.5964 316.844 14.5391V13.2031H317.703V14.5391C319.099 14.5964 320.169 14.8568 320.914 15.3203L320.531 16.5469C319.688 16.0885 318.745 15.8411 317.703 15.8047V19.4844L318.867 19.875C319.404 20.0625 319.828 20.2708 320.141 20.5C320.776 20.9688 321.094 21.7448 321.094 22.8281ZM316.844 19.1875V15.8125C316.302 15.849 315.872 15.9479 315.555 16.1094C315.133 16.3177 314.906 16.6536 314.875 17.1172C314.865 17.2682 314.859 17.3984 314.859 17.5078C314.859 17.8828 314.938 18.1719 315.094 18.375C315.255 18.5781 315.565 18.7578 316.023 18.9141L316.844 19.1875ZM317.703 20.9688V24.8984C318.016 24.8828 318.281 24.8438 318.5 24.7812C319.062 24.6198 319.411 24.2396 319.547 23.6406C319.609 23.3646 319.641 23.0521 319.641 22.7031C319.641 22.3542 319.589 22.0911 319.484 21.9141C319.312 21.6172 318.906 21.3646 318.266 21.1562L317.703 20.9688ZM312.672 52L316.883 40.7031H318.266L322.484 52H320.883L320.117 49.7969H315.078L314.305 52H312.672ZM315.453 48.6797H319.758L317.617 42.5L315.453 48.6797ZM332.25 48.8281C332.25 50.9635 331.12 52.0755 328.859 52.1641V53.8906H328V52.1562C326.594 52.0833 325.354 51.737 324.281 51.1172L324.836 49.9141C325.305 50.1901 325.828 50.4115 326.406 50.5781C326.99 50.7448 327.521 50.8464 328 50.8828V46.6875L326.695 46.25C326.159 46.0729 325.734 45.8724 325.422 45.6484C325.109 45.4193 324.875 45.1328 324.719 44.7891C324.568 44.4401 324.492 44.0312 324.492 43.5625C324.492 43.0885 324.555 42.6849 324.68 42.3516C325.112 41.2005 326.219 40.5964 328 40.5391V39.2031H328.859V40.5391C330.255 40.5964 331.326 40.8568 332.07 41.3203L331.688 42.5469C330.844 42.0885 329.901 41.8411 328.859 41.8047V45.4844L330.023 45.875C330.56 46.0625 330.984 46.2708 331.297 46.5C331.932 46.9688 332.25 47.7448 332.25 48.8281ZM328 45.1875V41.8125C327.458 41.849 327.029 41.9479 326.711 42.1094C326.289 42.3177 326.062 42.6536 326.031 43.1172C326.021 43.2682 326.016 43.3984 326.016 43.5078C326.016 43.8828 326.094 44.1719 326.25 44.375C326.411 44.5781 326.721 44.7578 327.18 44.9141L328 45.1875ZM328.859 46.9688V50.8984C329.172 50.8828 329.438 50.8438 329.656 50.7812C330.219 50.6198 330.568 50.2396 330.703 49.6406C330.766 49.3646 330.797 49.0521 330.797 48.7031C330.797 48.3542 330.745 48.0911 330.641 47.9141C330.469 47.6172 330.062 47.3646 329.422 47.1562L328.859 46.9688ZM312.672 78L316.883 66.7031H318.266L322.484 78H320.883L320.117 75.7969H315.078L314.305 78H312.672ZM315.453 74.6797H319.758L317.617 68.5L315.453 74.6797ZM324.859 78V66.7031H326.055L332.523 75.7344V66.7031H333.906V78H332.508L326.242 69.375V78H324.859ZM336.281 78L340.492 66.7031H341.875L346.094 78H344.492L343.727 75.7969H338.688L337.914 78H336.281ZM339.062 74.6797H343.367L341.227 68.5L339.062 74.6797ZM355.859 74.8281C355.859 76.9635 354.729 78.0755 352.469 78.1641V79.8906H351.609V78.1562C350.203 78.0833 348.964 77.737 347.891 77.1172L348.445 75.9141C348.914 76.1901 349.438 76.4115 350.016 76.5781C350.599 76.7448 351.13 76.8464 351.609 76.8828V72.6875L350.305 72.25C349.768 72.0729 349.344 71.8724 349.031 71.6484C348.719 71.4193 348.484 71.1328 348.328 70.7891C348.177 70.4401 348.102 70.0312 348.102 69.5625C348.102 69.0885 348.164 68.6849 348.289 68.3516C348.721 67.2005 349.828 66.5964 351.609 66.5391V65.2031H352.469V66.5391C353.865 66.5964 354.935 66.8568 355.68 67.3203L355.297 68.5469C354.453 68.0885 353.51 67.8411 352.469 67.8047V71.4844L353.633 71.875C354.169 72.0625 354.594 72.2708 354.906 72.5C355.542 72.9688 355.859 73.7448 355.859 74.8281ZM351.609 71.1875V67.8125C351.068 67.849 350.638 67.9479 350.32 68.1094C349.898 68.3177 349.672 68.6536 349.641 69.1172C349.63 69.2682 349.625 69.3984 349.625 69.5078C349.625 69.8828 349.703 70.1719 349.859 70.375C350.021 70.5781 350.331 70.7578 350.789 70.9141L351.609 71.1875ZM352.469 72.9688V76.8984C352.781 76.8828 353.047 76.8438 353.266 76.7812C353.828 76.6198 354.177 76.2396 354.312 75.6406C354.375 75.3646 354.406 75.0521 354.406 74.7031C354.406 74.3542 354.354 74.0911 354.25 73.9141C354.078 73.6172 353.672 73.3646 353.031 73.1562L352.469 72.9688ZM312.672 104L316.883 92.7031H318.266L322.484 104H320.883L320.117 101.797H315.078L314.305 104H312.672ZM315.453 100.68H319.758L317.617 94.5L315.453 100.68ZM324.859 104V92.7031H326.055L332.523 101.734V92.7031H333.906V104H332.508L326.242 95.375V104H324.859ZM336.281 104L340.492 92.7031H341.875L346.094 104H344.492L343.727 101.797H338.688L337.914 104H336.281ZM339.062 100.68H343.367L341.227 94.5L339.062 100.68ZM348.469 104V92.7031H349.664L356.133 101.734V92.7031H357.516V104H356.117L349.852 95.375V104H348.469ZM359.891 104L364.102 92.7031H365.484L369.703 104H368.102L367.336 101.797H362.297L361.523 104H359.891ZM362.672 100.68H366.977L364.836 94.5L362.672 100.68ZM379.469 100.828C379.469 102.964 378.339 104.076 376.078 104.164V105.891H375.219V104.156C373.812 104.083 372.573 103.737 371.5 103.117L372.055 101.914C372.523 102.19 373.047 102.411 373.625 102.578C374.208 102.745 374.74 102.846 375.219 102.883V98.6875L373.914 98.25C373.378 98.0729 372.953 97.8724 372.641 97.6484C372.328 97.4193 372.094 97.1328 371.938 96.7891C371.786 96.4401 371.711 96.0312 371.711 95.5625C371.711 95.0885 371.773 94.6849 371.898 94.3516C372.331 93.2005 373.438 92.5964 375.219 92.5391V91.2031H376.078V92.5391C377.474 92.5964 378.544 92.8568 379.289 93.3203L378.906 94.5469C378.062 94.0885 377.12 93.8411 376.078 93.8047V97.4844L377.242 97.875C377.779 98.0625 378.203 98.2708 378.516 98.5C379.151 98.9688 379.469 99.7448 379.469 100.828ZM375.219 97.1875V93.8125C374.677 93.849 374.247 93.9479 373.93 94.1094C373.508 94.3177 373.281 94.6536 373.25 95.1172C373.24 95.2682 373.234 95.3984 373.234 95.5078C373.234 95.8828 373.312 96.1719 373.469 96.375C373.63 96.5781 373.94 96.7578 374.398 96.9141L375.219 97.1875ZM376.078 98.9688V102.898C376.391 102.883 376.656 102.844 376.875 102.781C377.438 102.62 377.786 102.24 377.922 101.641C377.984 101.365 378.016 101.052 378.016 100.703C378.016 100.354 377.964 100.091 377.859 99.9141C377.688 99.6172 377.281 99.3646 376.641 99.1562L376.078 98.9688ZM313.703 130V118.703H317.797C319.547 118.703 320.656 119.091 321.125 119.867C321.406 120.331 321.547 120.977 321.547 121.805C321.521 122.924 321.047 123.643 320.125 123.961C320.771 124.107 321.26 124.43 321.594 124.93C321.927 125.43 322.094 126.049 322.094 126.789C322.094 127.909 321.779 128.724 321.148 129.234C320.518 129.745 319.516 130 318.141 130H313.703ZM315.281 128.836H318.023C318.909 128.836 319.549 128.693 319.945 128.406C320.346 128.12 320.547 127.523 320.547 126.617C320.547 125.247 319.833 124.562 318.406 124.562H315.281V128.836ZM315.281 123.492H318.18C318.852 123.492 319.318 123.352 319.578 123.07C319.844 122.789 319.977 122.406 319.977 121.922C319.977 121.438 319.94 121.073 319.867 120.828C319.799 120.583 319.667 120.388 319.469 120.242C319.276 120.096 319.034 120 318.742 119.953C318.456 119.906 318.06 119.883 317.555 119.883H315.281V123.492ZM323.766 130L327.977 118.703H329.359L333.578 130H331.977L331.211 127.797H326.172L325.398 130H323.766ZM326.547 126.68H330.852L328.711 120.5L326.547 126.68ZM335.953 130V118.703H337.148L343.617 127.734V118.703H345V130H343.602L337.336 121.375V130H335.953ZM347.375 130L351.586 118.703H352.969L357.188 130H355.586L354.82 127.797H349.781L349.008 130H347.375ZM350.156 126.68H354.461L352.32 120.5L350.156 126.68ZM359.562 130V118.703H360.758L367.227 127.734V118.703H368.609V130H367.211L360.945 121.375V130H359.562ZM370.984 130L375.195 118.703H376.578L380.797 130H379.195L378.43 127.797H373.391L372.617 130H370.984ZM373.766 126.68H378.07L375.93 120.5L373.766 126.68ZM390.562 126.828C390.562 128.964 389.432 130.076 387.172 130.164V131.891H386.312V130.156C384.906 130.083 383.667 129.737 382.594 129.117L383.148 127.914C383.617 128.19 384.141 128.411 384.719 128.578C385.302 128.745 385.833 128.846 386.312 128.883V124.688L385.008 124.25C384.471 124.073 384.047 123.872 383.734 123.648C383.422 123.419 383.188 123.133 383.031 122.789C382.88 122.44 382.805 122.031 382.805 121.562C382.805 121.089 382.867 120.685 382.992 120.352C383.424 119.201 384.531 118.596 386.312 118.539V117.203H387.172V118.539C388.568 118.596 389.638 118.857 390.383 119.32L390 120.547C389.156 120.089 388.214 119.841 387.172 119.805V123.484L388.336 123.875C388.872 124.062 389.297 124.271 389.609 124.5C390.245 124.969 390.562 125.745 390.562 126.828ZM386.312 123.188V119.812C385.771 119.849 385.341 119.948 385.023 120.109C384.602 120.318 384.375 120.654 384.344 121.117C384.333 121.268 384.328 121.398 384.328 121.508C384.328 121.883 384.406 122.172 384.562 122.375C384.724 122.578 385.034 122.758 385.492 122.914L386.312 123.188ZM387.172 124.969V128.898C387.484 128.883 387.75 128.844 387.969 128.781C388.531 128.62 388.88 128.24 389.016 127.641C389.078 127.365 389.109 127.052 389.109 126.703C389.109 126.354 389.057 126.091 388.953 125.914C388.781 125.617 388.375 125.365 387.734 125.156L387.172 124.969ZM313.703 156V144.703H314.898L321.367 153.734V144.703H322.75V156H321.352L315.086 147.375V156H313.703ZM325.125 156L329.336 144.703H330.719L334.938 156H333.336L332.57 153.797H327.531L326.758 156H325.125ZM327.906 152.68H332.211L330.07 146.5L327.906 152.68ZM344.703 152.828C344.703 154.964 343.573 156.076 341.312 156.164V157.891H340.453V156.156C339.047 156.083 337.807 155.737 336.734 155.117L337.289 153.914C337.758 154.19 338.281 154.411 338.859 154.578C339.443 154.745 339.974 154.846 340.453 154.883V150.688L339.148 150.25C338.612 150.073 338.188 149.872 337.875 149.648C337.562 149.419 337.328 149.133 337.172 148.789C337.021 148.44 336.945 148.031 336.945 147.562C336.945 147.089 337.008 146.685 337.133 146.352C337.565 145.201 338.672 144.596 340.453 144.539V143.203H341.312V144.539C342.708 144.596 343.779 144.857 344.523 145.32L344.141 146.547C343.297 146.089 342.354 145.841 341.312 145.805V149.484L342.477 149.875C343.013 150.062 343.438 150.271 343.75 150.5C344.385 150.969 344.703 151.745 344.703 152.828ZM340.453 149.188V145.812C339.911 145.849 339.482 145.948 339.164 146.109C338.742 146.318 338.516 146.654 338.484 147.117C338.474 147.268 338.469 147.398 338.469 147.508C338.469 147.883 338.547 148.172 338.703 148.375C338.865 148.578 339.174 148.758 339.633 148.914L340.453 149.188ZM341.312 150.969V154.898C341.625 154.883 341.891 154.844 342.109 154.781C342.672 154.62 343.021 154.24 343.156 153.641C343.219 153.365 343.25 153.052 343.25 152.703C343.25 152.354 343.198 152.091 343.094 151.914C342.922 151.617 342.516 151.365 341.875 151.156L341.312 150.969ZM313.703 182V170.703H314.898L321.367 179.734V170.703H322.75V182H321.352L315.086 173.375V182H313.703ZM325.125 182L329.336 170.703H330.719L334.938 182H333.336L332.57 179.797H327.531L326.758 182H325.125ZM327.906 178.68H332.211L330.07 172.5L327.906 178.68ZM337.312 182V170.703H338.508L344.977 179.734V170.703H346.359V182H344.961L338.695 173.375V182H337.312ZM348.734 182L352.945 170.703H354.328L358.547 182H356.945L356.18 179.797H351.141L350.367 182H348.734ZM351.516 178.68H355.82L353.68 172.5L351.516 178.68ZM368.312 178.828C368.312 180.964 367.182 182.076 364.922 182.164V183.891H364.062V182.156C362.656 182.083 361.417 181.737 360.344 181.117L360.898 179.914C361.367 180.19 361.891 180.411 362.469 180.578C363.052 180.745 363.583 180.846 364.062 180.883V176.688L362.758 176.25C362.221 176.073 361.797 175.872 361.484 175.648C361.172 175.419 360.938 175.133 360.781 174.789C360.63 174.44 360.555 174.031 360.555 173.562C360.555 173.089 360.617 172.685 360.742 172.352C361.174 171.201 362.281 170.596 364.062 170.539V169.203H364.922V170.539C366.318 170.596 367.388 170.857 368.133 171.32L367.75 172.547C366.906 172.089 365.964 171.841 364.922 171.805V175.484L366.086 175.875C366.622 176.062 367.047 176.271 367.359 176.5C367.995 176.969 368.312 177.745 368.312 178.828ZM364.062 175.188V171.812C363.521 171.849 363.091 171.948 362.773 172.109C362.352 172.318 362.125 172.654 362.094 173.117C362.083 173.268 362.078 173.398 362.078 173.508C362.078 173.883 362.156 174.172 362.312 174.375C362.474 174.578 362.784 174.758 363.242 174.914L364.062 175.188ZM364.922 176.969V180.898C365.234 180.883 365.5 180.844 365.719 180.781C366.281 180.62 366.63 180.24 366.766 179.641C366.828 179.365 366.859 179.052 366.859 178.703C366.859 178.354 366.807 178.091 366.703 177.914C366.531 177.617 366.125 177.365 365.484 177.156L364.922 176.969Z" fill="#6B6565"/>
<path d="M292.963 11.4629V12.3828H292.764C291.92 12.3984 291.248 12.6484 290.748 13.1328C290.248 13.6172 289.959 14.2988 289.881 15.1777C290.33 14.6621 290.943 14.4043 291.721 14.4043C292.463 14.4043 293.055 14.666 293.496 15.1895C293.941 15.7129 294.164 16.3887 294.164 17.2168C294.164 18.0957 293.924 18.7988 293.443 19.3262C292.967 19.8535 292.326 20.1172 291.521 20.1172C290.705 20.1172 290.043 19.8047 289.535 19.1797C289.027 18.5508 288.773 17.7422 288.773 16.7539V16.3379C288.773 14.7676 289.107 13.5684 289.775 12.7402C290.447 11.9082 291.445 11.4824 292.77 11.4629H292.963ZM291.539 15.3066C291.168 15.3066 290.826 15.418 290.514 15.6406C290.201 15.8633 289.984 16.1426 289.863 16.4785V16.877C289.863 17.5801 290.021 18.1465 290.338 18.5762C290.654 19.0059 291.049 19.2207 291.521 19.2207C292.01 19.2207 292.393 19.041 292.67 18.6816C292.951 18.3223 293.092 17.8516 293.092 17.2695C293.092 16.6836 292.949 16.2109 292.664 15.8516C292.383 15.4883 292.008 15.3066 291.539 15.3066ZM289.207 43.7227L289.641 39.4688H294.012V40.4707H290.561L290.303 42.7969C290.721 42.5508 291.195 42.4277 291.727 42.4277C292.504 42.4277 293.121 42.6855 293.578 43.2012C294.035 43.7129 294.264 44.4062 294.264 45.2812C294.264 46.1602 294.025 46.8535 293.549 47.3613C293.076 47.8652 292.414 48.1172 291.562 48.1172C290.809 48.1172 290.193 47.9082 289.717 47.4902C289.24 47.0723 288.969 46.4941 288.902 45.7559H289.928C289.994 46.2441 290.168 46.6133 290.449 46.8633C290.73 47.1094 291.102 47.2324 291.562 47.2324C292.066 47.2324 292.461 47.0605 292.746 46.7168C293.035 46.373 293.18 45.8984 293.18 45.293C293.18 44.7227 293.023 44.2656 292.711 43.9219C292.402 43.5742 291.99 43.4004 291.475 43.4004C291.002 43.4004 290.631 43.5039 290.361 43.7109L290.074 43.9453L289.207 43.7227ZM290.285 71.207H291.1C291.611 71.1992 292.014 71.0645 292.307 70.8027C292.6 70.541 292.746 70.1875 292.746 69.7422C292.746 68.7422 292.248 68.2422 291.252 68.2422C290.783 68.2422 290.408 68.377 290.127 68.6465C289.85 68.9121 289.711 69.2656 289.711 69.707H288.627C288.627 69.0312 288.873 68.4707 289.365 68.0254C289.861 67.5762 290.49 67.3516 291.252 67.3516C292.057 67.3516 292.688 67.5645 293.145 67.9902C293.602 68.416 293.83 69.0078 293.83 69.7656C293.83 70.1367 293.709 70.4961 293.467 70.8438C293.229 71.1914 292.902 71.4512 292.488 71.623C292.957 71.7715 293.318 72.0176 293.572 72.3613C293.83 72.7051 293.959 73.125 293.959 73.6211C293.959 74.3867 293.709 74.9941 293.209 75.4434C292.709 75.8926 292.059 76.1172 291.258 76.1172C290.457 76.1172 289.805 75.9004 289.301 75.4668C288.801 75.0332 288.551 74.4609 288.551 73.75H289.641C289.641 74.1992 289.787 74.5586 290.08 74.8281C290.373 75.0977 290.766 75.2324 291.258 75.2324C291.781 75.2324 292.182 75.0957 292.459 74.8223C292.736 74.5488 292.875 74.1562 292.875 73.6445C292.875 73.1484 292.723 72.7676 292.418 72.502C292.113 72.2363 291.674 72.0996 291.1 72.0918H290.285V71.207ZM292.271 104H291.182V96.7754L288.996 97.5781V96.5938L292.102 95.4277H292.271V104Z" fill="#C9D1D9"/>
<path d="M294.059 124.361C294.059 125.631 293.842 126.574 293.408 127.191C292.975 127.809 292.297 128.117 291.375 128.117C290.465 128.117 289.791 127.816 289.354 127.215C288.916 126.609 288.689 125.707 288.674 124.508V123.061C288.674 121.807 288.891 120.875 289.324 120.266C289.758 119.656 290.438 119.352 291.363 119.352C292.281 119.352 292.957 119.646 293.391 120.236C293.824 120.822 294.047 121.729 294.059 122.955V124.361ZM292.975 122.879C292.975 121.961 292.846 121.293 292.588 120.875C292.33 120.453 291.922 120.242 291.363 120.242C290.809 120.242 290.404 120.451 290.15 120.869C289.896 121.287 289.766 121.93 289.758 122.797V124.531C289.758 125.453 289.891 126.135 290.156 126.576C290.426 127.014 290.832 127.232 291.375 127.232C291.91 127.232 292.307 127.025 292.564 126.611C292.826 126.197 292.963 125.545 292.975 124.654V122.879ZM293.285 153.135H294.469V154.02H293.285V156H292.195V154.02H288.311V153.381L292.131 147.469H293.285V153.135ZM289.541 153.135H292.195V148.951L292.066 149.186L289.541 153.135ZM294.299 184H288.709V183.221L291.662 179.939C292.1 179.443 292.4 179.041 292.564 178.732C292.732 178.42 292.816 178.098 292.816 177.766C292.816 177.32 292.682 176.955 292.412 176.67C292.143 176.385 291.783 176.242 291.334 176.242C290.795 176.242 290.375 176.396 290.074 176.705C289.777 177.01 289.629 177.436 289.629 177.982H288.545C288.545 177.197 288.797 176.562 289.301 176.078C289.809 175.594 290.486 175.352 291.334 175.352C292.127 175.352 292.754 175.561 293.215 175.979C293.676 176.393 293.906 176.945 293.906 177.637C293.906 178.477 293.371 179.477 292.301 180.637L290.016 183.115H294.299V184Z" fill="#C9D1D9"/>
<path d="M528.094 24.8281C528.094 26.9635 526.964 28.0755 524.703 28.1641V29.8906H523.844V28.1562C522.438 28.0833 521.198 27.737 520.125 27.1172L520.68 25.9141C521.148 26.1901 521.672 26.4115 522.25 26.5781C522.833 26.7448 523.365 26.8464 523.844 26.8828V22.6875L522.539 22.25C522.003 22.0729 521.578 21.8724 521.266 21.6484C520.953 21.4193 520.719 21.1328 520.562 20.7891C520.411 20.4401 520.336 20.0312 520.336 19.5625C520.336 19.0885 520.398 18.6849 520.523 18.3516C520.956 17.2005 522.062 16.5964 523.844 16.5391V15.2031H524.703V16.5391C526.099 16.5964 527.169 16.8568 527.914 17.3203L527.531 18.5469C526.688 18.0885 525.745 17.8411 524.703 17.8047V21.4844L525.867 21.875C526.404 22.0625 526.828 22.2708 527.141 22.5C527.776 22.9688 528.094 23.7448 528.094 24.8281ZM523.844 21.1875V17.8125C523.302 17.849 522.872 17.9479 522.555 18.1094C522.133 18.3177 521.906 18.6536 521.875 19.1172C521.865 19.2682 521.859 19.3984 521.859 19.5078C521.859 19.8828 521.938 20.1719 522.094 20.375C522.255 20.5781 522.565 20.7578 523.023 20.9141L523.844 21.1875ZM524.703 22.9688V26.8984C525.016 26.8828 525.281 26.8438 525.5 26.7812C526.062 26.6198 526.411 26.2396 526.547 25.6406C526.609 25.3646 526.641 25.0521 526.641 24.7031C526.641 24.3542 526.589 24.0911 526.484 23.9141C526.312 23.6172 525.906 23.3646 525.266 23.1562L524.703 22.9688ZM588.172 28L592.383 16.7031H593.766L597.984 28H596.383L595.617 25.7969H590.578L589.805 28H588.172ZM590.953 24.6797H595.258L593.117 18.5L590.953 24.6797ZM519.672 54L523.883 42.7031H525.266L529.484 54H527.883L527.117 51.7969H522.078L521.305 54H519.672ZM522.453 50.6797H526.758L524.617 44.5L522.453 50.6797ZM587.906 54V42.7031H589.102L595.57 51.7344V42.7031H596.953V54H595.555L589.289 45.375V54H587.906ZM519.672 80L523.883 68.7031H525.266L529.484 80H527.883L527.117 77.7969H522.078L521.305 80H519.672ZM522.453 76.6797H526.758L524.617 70.5L522.453 76.6797ZM587.906 80V68.7031H589.102L595.57 77.7344V68.7031H596.953V80H595.555L589.289 71.375V80H587.906ZM519.672 106L523.883 94.7031H525.266L529.484 106H527.883L527.117 103.797H522.078L521.305 106H519.672ZM522.453 102.68H526.758L524.617 96.5L522.453 102.68ZM589.266 106V94.7031H593.359C595.109 94.7031 596.219 95.0911 596.688 95.8672C596.969 96.3307 597.109 96.9766 597.109 97.8047C597.083 98.9245 596.609 99.6432 595.688 99.9609C596.333 100.107 596.823 100.43 597.156 100.93C597.49 101.43 597.656 102.049 597.656 102.789C597.656 103.909 597.341 104.724 596.711 105.234C596.081 105.745 595.078 106 593.703 106H589.266ZM590.844 104.836H593.586C594.471 104.836 595.112 104.693 595.508 104.406C595.909 104.12 596.109 103.523 596.109 102.617C596.109 101.247 595.396 100.562 593.969 100.562H590.844V104.836ZM590.844 99.4922H593.742C594.414 99.4922 594.88 99.3516 595.141 99.0703C595.406 98.7891 595.539 98.4062 595.539 97.9219C595.539 97.4375 595.503 97.0729 595.43 96.8281C595.362 96.5833 595.229 96.388 595.031 96.2422C594.839 96.0964 594.596 96 594.305 95.9531C594.018 95.9062 593.622 95.8828 593.117 95.8828H590.844V99.4922ZM520.703 132V120.703H524.797C526.547 120.703 527.656 121.091 528.125 121.867C528.406 122.331 528.547 122.977 528.547 123.805C528.521 124.924 528.047 125.643 527.125 125.961C527.771 126.107 528.26 126.43 528.594 126.93C528.927 127.43 529.094 128.049 529.094 128.789C529.094 129.909 528.779 130.724 528.148 131.234C527.518 131.745 526.516 132 525.141 132H520.703ZM522.281 130.836H525.023C525.909 130.836 526.549 130.693 526.945 130.406C527.346 130.12 527.547 129.523 527.547 128.617C527.547 127.247 526.833 126.562 525.406 126.562H522.281V130.836ZM522.281 125.492H525.18C525.852 125.492 526.318 125.352 526.578 125.07C526.844 124.789 526.977 124.406 526.977 123.922C526.977 123.438 526.94 123.073 526.867 122.828C526.799 122.583 526.667 122.388 526.469 122.242C526.276 122.096 526.034 122 525.742 121.953C525.456 121.906 525.06 121.883 524.555 121.883H522.281V125.492ZM597.562 128.828C597.562 130.964 596.432 132.076 594.172 132.164V133.891H593.312V132.156C591.906 132.083 590.667 131.737 589.594 131.117L590.148 129.914C590.617 130.19 591.141 130.411 591.719 130.578C592.302 130.745 592.833 130.846 593.312 130.883V126.688L592.008 126.25C591.471 126.073 591.047 125.872 590.734 125.648C590.422 125.419 590.188 125.133 590.031 124.789C589.88 124.44 589.805 124.031 589.805 123.562C589.805 123.089 589.867 122.685 589.992 122.352C590.424 121.201 591.531 120.596 593.312 120.539V119.203H594.172V120.539C595.568 120.596 596.638 120.857 597.383 121.32L597 122.547C596.156 122.089 595.214 121.841 594.172 121.805V125.484L595.336 125.875C595.872 126.062 596.297 126.271 596.609 126.5C597.245 126.969 597.562 127.745 597.562 128.828ZM593.312 125.188V121.812C592.771 121.849 592.341 121.948 592.023 122.109C591.602 122.318 591.375 122.654 591.344 123.117C591.333 123.268 591.328 123.398 591.328 123.508C591.328 123.883 591.406 124.172 591.562 124.375C591.724 124.578 592.034 124.758 592.492 124.914L593.312 125.188ZM594.172 126.969V130.898C594.484 130.883 594.75 130.844 594.969 130.781C595.531 130.62 595.88 130.24 596.016 129.641C596.078 129.365 596.109 129.052 596.109 128.703C596.109 128.354 596.057 128.091 595.953 127.914C595.781 127.617 595.375 127.365 594.734 127.156L594.172 126.969ZM520.703 158V146.703H521.898L528.367 155.734V146.703H529.75V158H528.352L522.086 149.375V158H520.703ZM588.172 158L592.383 146.703H593.766L597.984 158H596.383L595.617 155.797H590.578L589.805 158H588.172ZM590.953 154.68H595.258L593.117 148.5L590.953 154.68ZM520.703 184V172.703H521.898L528.367 181.734V172.703H529.75V184H528.352L522.086 175.375V184H520.703ZM588.172 184L592.383 172.703H593.766L597.984 184H596.383L595.617 181.797H590.578L589.805 184H588.172ZM590.953 180.68H595.258L593.117 174.5L590.953 180.68Z" fill="#C9D1D9"/>
<path d="M530.891 28V16.7031H534.984C536.734 16.7031 537.844 17.0911 538.312 17.8672C538.594 18.3307 538.734 18.9766 538.734 19.8047C538.708 20.9245 538.234 21.6432 537.312 21.9609C537.958 22.1068 538.448 22.4297 538.781 22.9297C539.115 23.4297 539.281 24.0495 539.281 24.7891C539.281 25.9089 538.966 26.724 538.336 27.2344C537.706 27.7448 536.703 28 535.328 28H530.891ZM532.469 26.8359H535.211C536.096 26.8359 536.737 26.6927 537.133 26.4062C537.534 26.1198 537.734 25.5234 537.734 24.6172C537.734 23.2474 537.021 22.5625 535.594 22.5625H532.469V26.8359ZM532.469 21.4922H535.367C536.039 21.4922 536.505 21.3516 536.766 21.0703C537.031 20.7891 537.164 20.4062 537.164 19.9219C537.164 19.4375 537.128 19.0729 537.055 18.8281C536.987 18.5833 536.854 18.388 536.656 18.2422C536.464 18.0964 536.221 18 535.93 17.9531C535.643 17.9062 535.247 17.8828 534.742 17.8828H532.469V21.4922ZM540.953 28L545.164 16.7031H546.547L550.766 28H549.164L548.398 25.7969H543.359L542.586 28H540.953ZM543.734 24.6797H548.039L545.898 18.5L543.734 24.6797ZM553.141 28V16.7031H554.336L560.805 25.7344V16.7031H562.188V28H560.789L554.523 19.375V28H553.141ZM564.562 28L568.773 16.7031H570.156L574.375 28H572.773L572.008 25.7969H566.969L566.195 28H564.562ZM567.344 24.6797H571.648L569.508 18.5L567.344 24.6797ZM576.75 28V16.7031H577.945L584.414 25.7344V16.7031H585.797V28H584.398L578.133 19.375V28H576.75Z" fill="#6B6565"/>
<path d="M539.25 50.8281C539.25 52.9635 538.12 54.0755 535.859 54.1641V55.8906H535V54.1562C533.594 54.0833 532.354 53.737 531.281 53.1172L531.836 51.9141C532.305 52.1901 532.828 52.4115 533.406 52.5781C533.99 52.7448 534.521 52.8464 535 52.8828V48.6875L533.695 48.25C533.159 48.0729 532.734 47.8724 532.422 47.6484C532.109 47.4193 531.875 47.1328 531.719 46.7891C531.568 46.4401 531.492 46.0312 531.492 45.5625C531.492 45.0885 531.555 44.6849 531.68 44.3516C532.112 43.2005 533.219 42.5964 535 42.5391V41.2031H535.859V42.5391C537.255 42.5964 538.326 42.8568 539.07 43.3203L538.688 44.5469C537.844 44.0885 536.901 43.8411 535.859 43.8047V47.4844L537.023 47.875C537.56 48.0625 537.984 48.2708 538.297 48.5C538.932 48.9688 539.25 49.7448 539.25 50.8281ZM535 47.1875V43.8125C534.458 43.849 534.029 43.9479 533.711 44.1094C533.289 44.3177 533.062 44.6536 533.031 45.1172C533.021 45.2682 533.016 45.3984 533.016 45.5078C533.016 45.8828 533.094 46.1719 533.25 46.375C533.411 46.5781 533.721 46.7578 534.18 46.9141L535 47.1875ZM535.859 48.9688V52.8984C536.172 52.8828 536.438 52.8438 536.656 52.7812C537.219 52.6198 537.568 52.2396 537.703 51.6406C537.766 51.3646 537.797 51.0521 537.797 50.7031C537.797 50.3542 537.745 50.0911 537.641 49.9141C537.469 49.6172 537.062 49.3646 536.422 49.1562L535.859 48.9688ZM542.047 54V42.7031H546.141C547.891 42.7031 549 43.0911 549.469 43.8672C549.75 44.3307 549.891 44.9766 549.891 45.8047C549.865 46.9245 549.391 47.6432 548.469 47.9609C549.115 48.1068 549.604 48.4297 549.938 48.9297C550.271 49.4297 550.438 50.0495 550.438 50.7891C550.438 51.9089 550.122 52.724 549.492 53.2344C548.862 53.7448 547.859 54 546.484 54H542.047ZM543.625 52.8359H546.367C547.253 52.8359 547.893 52.6927 548.289 52.4062C548.69 52.1198 548.891 51.5234 548.891 50.6172C548.891 49.2474 548.177 48.5625 546.75 48.5625H543.625V52.8359ZM543.625 47.4922H546.523C547.195 47.4922 547.661 47.3516 547.922 47.0703C548.188 46.7891 548.32 46.4062 548.32 45.9219C548.32 45.4375 548.284 45.0729 548.211 44.8281C548.143 44.5833 548.01 44.388 547.812 44.2422C547.62 44.0964 547.378 44 547.086 43.9531C546.799 43.9062 546.404 43.8828 545.898 43.8828H543.625V47.4922ZM552.109 54L556.32 42.7031H557.703L561.922 54H560.32L559.555 51.7969H554.516L553.742 54H552.109ZM554.891 50.6797H559.195L557.055 44.5L554.891 50.6797ZM564.297 54V42.7031H565.492L571.961 51.7344V42.7031H573.344V54H571.945L565.68 45.375V54H564.297ZM575.719 54L579.93 42.7031H581.312L585.531 54H583.93L583.164 51.7969H578.125L577.352 54H575.719ZM578.5 50.6797H582.805L580.664 44.5L578.5 50.6797ZM531.859 80V68.7031H533.055L539.523 77.7344V68.7031H540.906V80H539.508L533.242 71.375V80H531.859ZM543.281 80L547.492 68.7031H548.875L553.094 80H551.492L550.727 77.7969H545.688L544.914 80H543.281ZM546.062 76.6797H550.367L548.227 70.5L546.062 76.6797ZM562.859 76.8281C562.859 78.9635 561.729 80.0755 559.469 80.1641V81.8906H558.609V80.1562C557.203 80.0833 555.964 79.737 554.891 79.1172L555.445 77.9141C555.914 78.1901 556.438 78.4115 557.016 78.5781C557.599 78.7448 558.13 78.8464 558.609 78.8828V74.6875L557.305 74.25C556.768 74.0729 556.344 73.8724 556.031 73.6484C555.719 73.4193 555.484 73.1328 555.328 72.7891C555.177 72.4401 555.102 72.0312 555.102 71.5625C555.102 71.0885 555.164 70.6849 555.289 70.3516C555.721 69.2005 556.828 68.5964 558.609 68.5391V67.2031H559.469V68.5391C560.865 68.5964 561.935 68.8568 562.68 69.3203L562.297 70.5469C561.453 70.0885 560.51 69.8411 559.469 69.8047V73.4844L560.633 73.875C561.169 74.0625 561.594 74.2708 561.906 74.5C562.542 74.9688 562.859 75.7448 562.859 76.8281ZM558.609 73.1875V69.8125C558.068 69.849 557.638 69.9479 557.32 70.1094C556.898 70.3177 556.672 70.6536 556.641 71.1172C556.63 71.2682 556.625 71.3984 556.625 71.5078C556.625 71.8828 556.703 72.1719 556.859 72.375C557.021 72.5781 557.331 72.7578 557.789 72.9141L558.609 73.1875ZM559.469 74.9688V78.8984C559.781 78.8828 560.047 78.8438 560.266 78.7812C560.828 78.6198 561.177 78.2396 561.312 77.6406C561.375 77.3646 561.406 77.0521 561.406 76.7031C561.406 76.3542 561.354 76.0911 561.25 75.9141C561.078 75.6172 560.672 75.3646 560.031 75.1562L559.469 74.9688ZM565.656 80V68.7031H569.75C571.5 68.7031 572.609 69.0911 573.078 69.8672C573.359 70.3307 573.5 70.9766 573.5 71.8047C573.474 72.9245 573 73.6432 572.078 73.9609C572.724 74.1068 573.214 74.4297 573.547 74.9297C573.88 75.4297 574.047 76.0495 574.047 76.7891C574.047 77.9089 573.732 78.724 573.102 79.2344C572.471 79.7448 571.469 80 570.094 80H565.656ZM567.234 78.8359H569.977C570.862 78.8359 571.503 78.6927 571.898 78.4062C572.299 78.1198 572.5 77.5234 572.5 76.6172C572.5 75.2474 571.786 74.5625 570.359 74.5625H567.234V78.8359ZM567.234 73.4922H570.133C570.805 73.4922 571.271 73.3516 571.531 73.0703C571.797 72.7891 571.93 72.4062 571.93 71.9219C571.93 71.4375 571.893 71.0729 571.82 70.8281C571.753 70.5833 571.62 70.388 571.422 70.2422C571.229 70.0964 570.987 70 570.695 69.9531C570.409 69.9062 570.013 69.8828 569.508 69.8828H567.234V73.4922ZM575.719 80L579.93 68.7031H581.312L585.531 80H583.93L583.164 77.7969H578.125L577.352 80H575.719ZM578.5 76.6797H582.805L580.664 70.5L578.5 76.6797ZM531.859 106V94.7031H533.055L539.523 103.734V94.7031H540.906V106H539.508L533.242 97.375V106H531.859ZM543.281 106L547.492 94.7031H548.875L553.094 106H551.492L550.727 103.797H545.688L544.914 106H543.281ZM546.062 102.68H550.367L548.227 96.5L546.062 102.68ZM555.469 106V94.7031H556.664L563.133 103.734V94.7031H564.516V106H563.117L556.852 97.375V106H555.469ZM566.891 106L571.102 94.7031H572.484L576.703 106H575.102L574.336 103.797H569.297L568.523 106H566.891ZM569.672 102.68H573.977L571.836 96.5L569.672 102.68ZM586.469 102.828C586.469 104.964 585.339 106.076 583.078 106.164V107.891H582.219V106.156C580.812 106.083 579.573 105.737 578.5 105.117L579.055 103.914C579.523 104.19 580.047 104.411 580.625 104.578C581.208 104.745 581.74 104.846 582.219 104.883V100.688L580.914 100.25C580.378 100.073 579.953 99.8724 579.641 99.6484C579.328 99.4193 579.094 99.1328 578.938 98.7891C578.786 98.4401 578.711 98.0312 578.711 97.5625C578.711 97.0885 578.773 96.6849 578.898 96.3516C579.331 95.2005 580.438 94.5964 582.219 94.5391V93.2031H583.078V94.5391C584.474 94.5964 585.544 94.8568 586.289 95.3203L585.906 96.5469C585.062 96.0885 584.12 95.8411 583.078 95.8047V99.4844L584.242 99.875C584.779 100.062 585.203 100.271 585.516 100.5C586.151 100.969 586.469 101.745 586.469 102.828ZM582.219 99.1875V95.8125C581.677 95.849 581.247 95.9479 580.93 96.1094C580.508 96.3177 580.281 96.6536 580.25 97.1172C580.24 97.2682 580.234 97.3984 580.234 97.5078C580.234 97.8828 580.312 98.1719 580.469 98.375C580.63 98.5781 580.94 98.7578 581.398 98.9141L582.219 99.1875ZM583.078 100.969V104.898C583.391 104.883 583.656 104.844 583.875 104.781C584.438 104.62 584.786 104.24 584.922 103.641C584.984 103.365 585.016 103.052 585.016 102.703C585.016 102.354 584.964 102.091 584.859 101.914C584.688 101.617 584.281 101.365 583.641 101.156L583.078 100.969ZM530.766 132L534.977 120.703H536.359L540.578 132H538.977L538.211 129.797H533.172L532.398 132H530.766ZM533.547 128.68H537.852L535.711 122.5L533.547 128.68ZM542.953 132V120.703H544.148L550.617 129.734V120.703H552V132H550.602L544.336 123.375V132H542.953ZM554.375 132L558.586 120.703H559.969L564.188 132H562.586L561.82 129.797H556.781L556.008 132H554.375ZM557.156 128.68H561.461L559.32 122.5L557.156 128.68ZM566.562 132V120.703H567.758L574.227 129.734V120.703H575.609V132H574.211L567.945 123.375V132H566.562ZM577.984 132L582.195 120.703H583.578L587.797 132H586.195L585.43 129.797H580.391L579.617 132H577.984ZM580.766 128.68H585.07L582.93 122.5L580.766 128.68ZM532.125 158L536.336 146.703H537.719L541.938 158H540.336L539.57 155.797H534.531L533.758 158H532.125ZM534.906 154.68H539.211L537.07 148.5L534.906 154.68ZM551.703 154.828C551.703 156.964 550.573 158.076 548.312 158.164V159.891H547.453V158.156C546.047 158.083 544.807 157.737 543.734 157.117L544.289 155.914C544.758 156.19 545.281 156.411 545.859 156.578C546.443 156.745 546.974 156.846 547.453 156.883V152.688L546.148 152.25C545.612 152.073 545.188 151.872 544.875 151.648C544.562 151.419 544.328 151.133 544.172 150.789C544.021 150.44 543.945 150.031 543.945 149.562C543.945 149.089 544.008 148.685 544.133 148.352C544.565 147.201 545.672 146.596 547.453 146.539V145.203H548.312V146.539C549.708 146.596 550.779 146.857 551.523 147.32L551.141 148.547C550.297 148.089 549.354 147.841 548.312 147.805V151.484L549.477 151.875C550.013 152.062 550.438 152.271 550.75 152.5C551.385 152.969 551.703 153.745 551.703 154.828ZM547.453 151.188V147.812C546.911 147.849 546.482 147.948 546.164 148.109C545.742 148.318 545.516 148.654 545.484 149.117C545.474 149.268 545.469 149.398 545.469 149.508C545.469 149.883 545.547 150.172 545.703 150.375C545.865 150.578 546.174 150.758 546.633 150.914L547.453 151.188ZM548.312 152.969V156.898C548.625 156.883 548.891 156.844 549.109 156.781C549.672 156.62 550.021 156.24 550.156 155.641C550.219 155.365 550.25 155.052 550.25 154.703C550.25 154.354 550.198 154.091 550.094 153.914C549.922 153.617 549.516 153.365 548.875 153.156L548.312 152.969ZM554.5 158V146.703H558.594C560.344 146.703 561.453 147.091 561.922 147.867C562.203 148.331 562.344 148.977 562.344 149.805C562.318 150.924 561.844 151.643 560.922 151.961C561.568 152.107 562.057 152.43 562.391 152.93C562.724 153.43 562.891 154.049 562.891 154.789C562.891 155.909 562.576 156.724 561.945 157.234C561.315 157.745 560.312 158 558.938 158H554.5ZM556.078 156.836H558.82C559.706 156.836 560.346 156.693 560.742 156.406C561.143 156.12 561.344 155.523 561.344 154.617C561.344 153.247 560.63 152.562 559.203 152.562H556.078V156.836ZM556.078 151.492H558.977C559.648 151.492 560.115 151.352 560.375 151.07C560.641 150.789 560.773 150.406 560.773 149.922C560.773 149.438 560.737 149.073 560.664 148.828C560.596 148.583 560.464 148.388 560.266 148.242C560.073 148.096 559.831 148 559.539 147.953C559.253 147.906 558.857 147.883 558.352 147.883H556.078V151.492ZM564.562 158L568.773 146.703H570.156L574.375 158H572.773L572.008 155.797H566.969L566.195 158H564.562ZM567.344 154.68H571.648L569.508 148.5L567.344 154.68ZM576.75 158V146.703H577.945L584.414 155.734V146.703H585.797V158H584.398L578.133 149.375V158H576.75ZM532.125 184L536.336 172.703H537.719L541.938 184H540.336L539.57 181.797H534.531L533.758 184H532.125ZM534.906 180.68H539.211L537.07 174.5L534.906 180.68ZM544.312 184V172.703H545.508L551.977 181.734V172.703H553.359V184H551.961L545.695 175.375V184H544.312ZM555.734 184L559.945 172.703H561.328L565.547 184H563.945L563.18 181.797H558.141L557.367 184H555.734ZM558.516 180.68H562.82L560.68 174.5L558.516 180.68ZM575.312 180.828C575.312 182.964 574.182 184.076 571.922 184.164V185.891H571.062V184.156C569.656 184.083 568.417 183.737 567.344 183.117L567.898 181.914C568.367 182.19 568.891 182.411 569.469 182.578C570.052 182.745 570.583 182.846 571.062 182.883V178.688L569.758 178.25C569.221 178.073 568.797 177.872 568.484 177.648C568.172 177.419 567.938 177.133 567.781 176.789C567.63 176.44 567.555 176.031 567.555 175.562C567.555 175.089 567.617 174.685 567.742 174.352C568.174 173.201 569.281 172.596 571.062 172.539V171.203H571.922V172.539C573.318 172.596 574.388 172.857 575.133 173.32L574.75 174.547C573.906 174.089 572.964 173.841 571.922 173.805V177.484L573.086 177.875C573.622 178.062 574.047 178.271 574.359 178.5C574.995 178.969 575.312 179.745 575.312 180.828ZM571.062 177.188V173.812C570.521 173.849 570.091 173.948 569.773 174.109C569.352 174.318 569.125 174.654 569.094 175.117C569.083 175.268 569.078 175.398 569.078 175.508C569.078 175.883 569.156 176.172 569.312 176.375C569.474 176.578 569.784 176.758 570.242 176.914L571.062 177.188ZM571.922 178.969V182.898C572.234 182.883 572.5 182.844 572.719 182.781C573.281 182.62 573.63 182.24 573.766 181.641C573.828 181.365 573.859 181.052 573.859 180.703C573.859 180.354 573.807 180.091 573.703 179.914C573.531 179.617 573.125 179.365 572.484 179.156L571.922 178.969ZM578.109 184V172.703H582.203C583.953 172.703 585.062 173.091 585.531 173.867C585.812 174.331 585.953 174.977 585.953 175.805C585.927 176.924 585.453 177.643 584.531 177.961C585.177 178.107 585.667 178.43 586 178.93C586.333 179.43 586.5 180.049 586.5 180.789C586.5 181.909 586.185 182.724 585.555 183.234C584.924 183.745 583.922 184 582.547 184H578.109ZM579.688 182.836H582.43C583.315 182.836 583.956 182.693 584.352 182.406C584.753 182.12 584.953 181.523 584.953 180.617C584.953 179.247 584.24 178.562 582.812 178.562H579.688V182.836ZM579.688 177.492H582.586C583.258 177.492 583.724 177.352 583.984 177.07C584.25 176.789 584.383 176.406 584.383 175.922C584.383 175.438 584.346 175.073 584.273 174.828C584.206 174.583 584.073 174.388 583.875 174.242C583.682 174.096 583.44 174 583.148 173.953C582.862 173.906 582.466 173.883 581.961 173.883H579.688V177.492Z" fill="#6B6565"/>
<path d="M26.0312 265V263.018L33.1699 259.424L26.0312 255.869V253.828L34.6836 258.428V260.391L26.0312 265ZM48.8535 265V261.572H42.6035V260.039L47.7695 250.879H49.8105L44.791 260.059H48.8535V256.826H50.4844V260.059H52.5547V261.572H50.4844V265H48.8535ZM57.3789 257.002C58.0365 256.403 58.8926 256.104 59.9473 256.104C61.3796 256.104 62.4668 256.501 63.209 257.295C63.9512 258.089 64.3223 259.186 64.3223 260.586C64.3223 261.979 63.8861 263.099 63.0137 263.945C62.1478 264.792 61.0052 265.215 59.5859 265.215C58.9089 265.215 58.2676 265.143 57.6621 265C57.0566 264.863 56.5846 264.717 56.2461 264.561C55.9076 264.404 55.5267 264.202 55.1035 263.955L55.6211 262.461C56.0247 262.728 56.3698 262.933 56.6562 263.076C57.3984 263.447 58.349 263.633 59.5078 263.633C60.9336 263.633 61.8548 263.073 62.2715 261.953C62.4082 261.589 62.4766 261.175 62.4766 260.713C62.4766 259.723 62.252 258.952 61.8027 258.398C61.3535 257.839 60.6569 257.559 59.7129 257.559C59.2572 257.559 58.8503 257.64 58.4922 257.803C58.1406 257.959 57.6914 258.236 57.1445 258.633L55.7188 258.047L56.2168 250.879H63.4141V252.49H57.7891L57.3789 257.002ZM73.3164 265.215C70.6862 265.215 68.9642 264.564 68.1504 263.262C67.6751 262.5 67.4375 261.497 67.4375 260.254V255.82C67.4375 253.809 68.0234 252.406 69.1953 251.611C70.1263 250.98 71.4349 250.664 73.1211 250.664C74.8073 250.664 76.041 250.856 76.8223 251.24C77.61 251.618 78.1276 252.126 78.375 252.764C78.6224 253.395 78.7461 254.167 78.7461 255.078L76.9492 255.225C76.9492 254.307 76.8581 253.695 76.6758 253.389C76.5 253.076 76.3275 252.855 76.1582 252.725C75.9954 252.594 75.7155 252.484 75.3184 252.393C74.9277 252.295 74.332 252.246 73.5312 252.246C72.737 252.246 72.112 252.298 71.6562 252.402C71.2005 252.5 70.7969 252.669 70.4453 252.91C69.7552 253.385 69.4102 254.235 69.4102 255.459V260.557C69.4102 261.781 69.7389 262.601 70.3965 263.018C71.054 263.428 72.0208 263.633 73.2969 263.633C74.5794 263.633 75.5039 263.431 76.0703 263.027C76.6432 262.617 76.9297 261.794 76.9297 260.557V259.258H73.5801V257.822H78.9023V265H77.8281L77.584 262.598C77.4603 263.411 77.0501 264.053 76.3535 264.521C75.6634 264.984 74.651 265.215 73.3164 265.215ZM82.9453 265V250.879H88.0625C90.25 250.879 91.6367 251.364 92.2227 252.334C92.5742 252.913 92.75 253.721 92.75 254.756C92.7174 256.156 92.125 257.054 90.9727 257.451C91.7799 257.633 92.3919 258.037 92.8086 258.662C93.2253 259.287 93.4336 260.062 93.4336 260.986C93.4336 262.386 93.0397 263.405 92.252 264.043C91.4642 264.681 90.2109 265 88.4922 265H82.9453ZM84.918 263.545H88.3457C89.4525 263.545 90.2533 263.366 90.748 263.008C91.2493 262.65 91.5 261.904 91.5 260.771C91.5 259.059 90.6081 258.203 88.8242 258.203H84.918V263.545ZM84.918 256.865H88.541C89.3809 256.865 89.9635 256.689 90.2891 256.338C90.6211 255.986 90.7871 255.508 90.7871 254.902C90.7871 254.297 90.7415 253.841 90.6504 253.535C90.5658 253.229 90.3997 252.985 90.1523 252.803C89.9115 252.62 89.6087 252.5 89.2441 252.441C88.8861 252.383 88.3913 252.354 87.7598 252.354H84.918V256.865Z" fill="#C9D1D9"/>
<path d="M28 267L36 263" stroke="#C9D1D9" stroke-width="1.5"/>
<path d="M279.031 265V263.018L286.17 259.424L279.031 255.869V253.828L287.684 258.428V260.391L279.031 265ZM296.219 265V263.486H300.135V252.529L296.482 252.92L296.307 251.367L300.496 250.879H302.098V263.486H305.555V265H296.219ZM308.67 265L308.484 263.457L313.25 258.271C314.116 257.334 314.607 256.758 314.725 256.543C314.848 256.322 314.965 256.081 315.076 255.82C315.193 255.56 315.252 255.179 315.252 254.678C315.252 253.786 315.063 253.158 314.686 252.793C314.308 252.428 313.68 252.246 312.801 252.246C312.254 252.246 311.814 252.282 311.482 252.354C311.15 252.425 310.864 252.562 310.623 252.764C310.193 253.122 309.979 253.867 309.979 255H308.016C308.016 252.109 309.562 250.664 312.654 250.664C314.139 250.664 315.252 251.042 315.994 251.797C316.736 252.546 317.107 253.457 317.107 254.531C317.107 255.605 316.912 256.445 316.521 257.051C316.137 257.656 315.74 258.174 315.33 258.604C314.92 259.027 314.689 259.268 314.637 259.326L310.721 263.477H317.029V265H308.67ZM326.316 265.215C323.686 265.215 321.964 264.564 321.15 263.262C320.675 262.5 320.438 261.497 320.438 260.254V255.82C320.438 253.809 321.023 252.406 322.195 251.611C323.126 250.98 324.435 250.664 326.121 250.664C327.807 250.664 329.041 250.856 329.822 251.24C330.61 251.618 331.128 252.126 331.375 252.764C331.622 253.395 331.746 254.167 331.746 255.078L329.949 255.225C329.949 254.307 329.858 253.695 329.676 253.389C329.5 253.076 329.327 252.855 329.158 252.725C328.995 252.594 328.715 252.484 328.318 252.393C327.928 252.295 327.332 252.246 326.531 252.246C325.737 252.246 325.112 252.298 324.656 252.402C324.201 252.5 323.797 252.669 323.445 252.91C322.755 253.385 322.41 254.235 322.41 255.459V260.557C322.41 261.781 322.739 262.601 323.396 263.018C324.054 263.428 325.021 263.633 326.297 263.633C327.579 263.633 328.504 263.431 329.07 263.027C329.643 262.617 329.93 261.794 329.93 260.557V259.258H326.58V257.822H331.902V265H330.828L330.584 262.598C330.46 263.411 330.05 264.053 329.354 264.521C328.663 264.984 327.651 265.215 326.316 265.215ZM335.945 265V250.879H341.062C343.25 250.879 344.637 251.364 345.223 252.334C345.574 252.913 345.75 253.721 345.75 254.756C345.717 256.156 345.125 257.054 343.973 257.451C344.78 257.633 345.392 258.037 345.809 258.662C346.225 259.287 346.434 260.062 346.434 260.986C346.434 262.386 346.04 263.405 345.252 264.043C344.464 264.681 343.211 265 341.492 265H335.945ZM337.918 263.545H341.346C342.452 263.545 343.253 263.366 343.748 263.008C344.249 262.65 344.5 261.904 344.5 260.771C344.5 259.059 343.608 258.203 341.824 258.203H337.918V263.545ZM337.918 256.865H341.541C342.381 256.865 342.964 256.689 343.289 256.338C343.621 255.986 343.787 255.508 343.787 254.902C343.787 254.297 343.742 253.841 343.65 253.535C343.566 253.229 343.4 252.985 343.152 252.803C342.911 252.62 342.609 252.5 342.244 252.441C341.886 252.383 341.391 252.354 340.76 252.354H337.918V256.865Z" fill="#C9D1D9"/>
<path d="M281 267L289 263" stroke="#C9D1D9" stroke-width="1.5"/>
<path d="M514.725 262.545C514.139 262.545 513.641 262.291 513.23 261.783C512.827 261.269 512.625 260.615 512.625 259.82H513.572C513.572 260.172 513.66 260.478 513.836 260.738C514.012 260.992 514.253 261.119 514.559 261.119C514.865 261.113 515.245 260.947 515.701 260.621C516.567 259.996 517.293 259.684 517.879 259.684C518.465 259.684 518.96 259.941 519.363 260.455C519.773 260.963 519.979 261.614 519.979 262.408H519.031C519.031 262.057 518.943 261.754 518.768 261.5C518.592 261.24 518.351 261.109 518.045 261.109C517.739 261.109 517.358 261.272 516.902 261.598C516.036 262.223 515.311 262.538 514.725 262.545Z" fill="#247F8F"/>
<path d="M526.012 267V265.486H529.928V254.529L526.275 254.92L526.1 253.367L530.289 252.879H531.891V265.486H535.348V267H526.012ZM543.902 267.215C541.272 267.215 539.55 266.564 538.736 265.262C538.261 264.5 538.023 263.497 538.023 262.254V257.82C538.023 255.809 538.609 254.406 539.781 253.611C540.712 252.98 542.021 252.664 543.707 252.664C545.393 252.664 546.627 252.856 547.408 253.24C548.196 253.618 548.714 254.126 548.961 254.764C549.208 255.395 549.332 256.167 549.332 257.078L547.535 257.225C547.535 256.307 547.444 255.695 547.262 255.389C547.086 255.076 546.913 254.855 546.744 254.725C546.581 254.594 546.301 254.484 545.904 254.393C545.514 254.295 544.918 254.246 544.117 254.246C543.323 254.246 542.698 254.298 542.242 254.402C541.786 254.5 541.383 254.669 541.031 254.91C540.341 255.385 539.996 256.235 539.996 257.459V262.557C539.996 263.781 540.325 264.601 540.982 265.018C541.64 265.428 542.607 265.633 543.883 265.633C545.165 265.633 546.09 265.431 546.656 265.027C547.229 264.617 547.516 263.794 547.516 262.557V261.258H544.166V259.822H549.488V267H548.414L548.17 264.598C548.046 265.411 547.636 266.053 546.939 266.521C546.249 266.984 545.237 267.215 543.902 267.215ZM553.531 267V252.879H558.648C560.836 252.879 562.223 253.364 562.809 254.334C563.16 254.913 563.336 255.721 563.336 256.756C563.303 258.156 562.711 259.054 561.559 259.451C562.366 259.633 562.978 260.037 563.395 260.662C563.811 261.287 564.02 262.062 564.02 262.986C564.02 264.386 563.626 265.405 562.838 266.043C562.05 266.681 560.797 267 559.078 267H553.531ZM555.504 265.545H558.932C560.038 265.545 560.839 265.366 561.334 265.008C561.835 264.65 562.086 263.904 562.086 262.771C562.086 261.059 561.194 260.203 559.41 260.203H555.504V265.545ZM555.504 258.865H559.127C559.967 258.865 560.549 258.689 560.875 258.338C561.207 257.986 561.373 257.508 561.373 256.902C561.373 256.297 561.327 255.841 561.236 255.535C561.152 255.229 560.986 254.985 560.738 254.803C560.497 254.62 560.195 254.5 559.83 254.441C559.472 254.383 558.977 254.354 558.346 254.354H555.504V258.865Z" fill="#247F8F"/>
</svg>
