<svg width="710" height="338" viewBox="0 0 710 338" fill="none" xmlns="http://www.w3.org/2000/svg">
<path d="M3.91406 19V8.99219H0.65625V7.70312H8.75V8.99219H5.48438V19H3.91406ZM10.8594 19V10.7188H12.3281V11.8906C12.5156 11.3802 13.0234 11.0104 13.8516 10.7812C14.2839 10.6562 14.7344 10.5964 15.2031 10.6016L15.1562 11.8594C14.4479 11.8594 13.7995 12 13.2109 12.2812C12.6224 12.5625 12.3281 12.8698 12.3281 13.2031V19H10.8594ZM19.2891 19.1719C18.4505 19.1719 17.7995 18.9453 17.3359 18.4922C16.8724 18.0339 16.6406 17.4661 16.6406 16.7891C16.6406 16.4036 16.7214 16.0833 16.8828 15.8281C17.2109 15.3073 18.1901 14.8099 19.8203 14.3359C20.763 14.0755 21.3047 13.8516 21.4453 13.6641C21.5911 13.4766 21.6719 13.3307 21.6875 13.2266C21.7031 13.1172 21.7109 12.9453 21.7109 12.7109C21.7109 12.4766 21.6146 12.2474 21.4219 12.0234C21.2344 11.7995 20.8229 11.6875 20.1875 11.6875C19.2917 11.6875 18.7422 11.8594 18.5391 12.2031C18.4349 12.3802 18.3828 12.6198 18.3828 12.9219V13.2891H16.9688V12.9141C16.9688 12.1068 17.237 11.513 17.7734 11.1328C18.3151 10.7526 19.1224 10.5625 20.1953 10.5625C21.2682 10.5625 22.0339 10.8073 22.4922 11.2969C22.9505 11.7812 23.1797 12.474 23.1797 13.375V16.9062C23.1797 17.3385 23.2344 17.6198 23.3438 17.75C23.4531 17.875 23.6875 17.9375 24.0469 17.9375L23.875 19.0625H23.5781C23.0573 19.0625 22.6693 18.9635 22.4141 18.7656C22.1589 18.5625 21.9635 18.25 21.8281 17.8281C21.3958 18.474 20.875 18.8802 20.2656 19.0469C19.974 19.1302 19.6484 19.1719 19.2891 19.1719ZM20.0234 15.3438C19.2839 15.5573 18.7708 15.7708 18.4844 15.9844C18.2031 16.1979 18.0625 16.5 18.0625 16.8906C18.0625 17.276 18.1927 17.5677 18.4531 17.7656C18.7188 17.9635 19.0365 18.0625 19.4062 18.0625C19.7812 18.0625 20.1198 18.0156 20.4219 17.9219C20.724 17.8229 20.9948 17.6797 21.2344 17.4922C21.4792 17.2995 21.638 17.0807 21.7109 16.8359V14.4453C21.3307 14.8255 20.7682 15.125 20.0234 15.3438ZM28.25 9.28906L26.6484 7.21094H27.8594L28.8281 8.57031L29.8594 7.21094H31.1172L29.4219 9.28906H28.25ZM25.8594 19V18.0781L29.8203 11.6875H26V10.7188H31.3672V11.6172L27.3828 18.0312H31.4375V19H25.8594ZM33.9062 19V10.7188H35.375V19H33.9062ZM33.9062 9.22656V7.70312H35.375V9.22656H33.9062ZM43.5469 12.8984C43.5469 12.0911 42.9505 11.6875 41.7578 11.6875C41.1536 11.6875 40.6875 11.8177 40.3594 12.0781C40.0365 12.3333 39.875 12.6745 39.875 13.1016V19H38.4062V10.7188H39.875V11.5234C40.4271 10.8828 41.2552 10.5625 42.3594 10.5625C43.4688 10.5625 44.2422 10.9245 44.6797 11.6484L44.875 11.4609C45.474 10.862 46.3125 10.5625 47.3906 10.5625C48.7812 10.5625 49.6406 11.0573 49.9688 12.0469C50.0625 12.3281 50.1094 12.6406 50.1094 12.9844V19H48.6406V12.8984C48.6406 12.0911 48.099 11.6875 47.0156 11.6875C46.3333 11.6875 45.8281 11.8177 45.5 12.0781C45.1771 12.3333 45.0156 12.6745 45.0156 13.1016V19H43.5469V12.8984ZM54.1094 16.6641C54.1094 17.5859 54.763 18.0469 56.0703 18.0469C57.3776 18.0469 58.0312 17.5859 58.0312 16.6641V13.0781C58.0312 12.151 57.3776 11.6875 56.0703 11.6875C54.763 11.6875 54.1094 12.151 54.1094 13.0781V16.6641ZM59.5 16.5391C59.5 17.3516 59.2214 17.9948 58.6641 18.4688C58.112 18.9375 57.2448 19.1719 56.0625 19.1719C54.8802 19.1719 54.013 18.9375 53.4609 18.4688C52.9141 18 52.6406 17.3568 52.6406 16.5391V13.2031C52.6406 12.3854 52.9141 11.7422 53.4609 11.2734C54.013 10.7995 54.8802 10.5625 56.0625 10.5625C57.2448 10.5625 58.112 10.7995 58.6641 11.2734C59.2214 11.7474 59.5 12.3906 59.5 13.2031V16.5391ZM71.7578 10.5C71.7578 9.36458 71.1667 8.79688 69.9844 8.79688C69.3698 8.79688 68.9427 8.85417 68.7031 8.96875C68.4635 9.08333 68.2917 9.22135 68.1875 9.38281C67.9688 9.72656 67.8594 10.263 67.8594 10.9922H66.3594C66.3594 10.0391 66.5208 9.3125 66.8438 8.8125C67.1667 8.30729 67.5859 7.96875 68.1016 7.79688C68.6224 7.61979 69.2318 7.53125 69.9297 7.53125C70.9453 7.53125 71.7474 7.77604 72.3359 8.26562C72.9297 8.75 73.2266 9.48698 73.2266 10.4766C73.2266 11.237 73.0833 11.8229 72.7969 12.2344C72.5156 12.6406 72.0547 12.8958 71.4141 13C72.0964 13.1406 72.6068 13.4297 72.9453 13.8672C73.2839 14.3047 73.4531 15.0182 73.4531 16.0078C73.4531 16.9974 73.151 17.7734 72.5469 18.3359C71.9427 18.8932 71.0807 19.1719 69.9609 19.1719C69.112 19.1719 68.4375 19.0599 67.9375 18.8359C67.4427 18.612 67.0651 18.2474 66.8047 17.7422C66.5443 17.237 66.3698 16.5339 66.2812 15.6328H67.7812C67.8438 16.5599 68.0443 17.1745 68.3828 17.4766C68.5703 17.6432 68.7917 17.7578 69.0469 17.8203C69.3021 17.8776 69.6354 17.9062 70.0469 17.9062C70.7083 17.9062 71.1927 17.737 71.5 17.3984C71.8073 17.0599 71.9609 16.4948 71.9609 15.7031C71.9609 14.9115 71.8151 14.388 71.5234 14.1328C71.237 13.8724 70.8828 13.7188 70.4609 13.6719C70.0443 13.625 69.638 13.6016 69.2422 13.6016V12.4375C70.0755 12.4375 70.638 12.3698 70.9297 12.2344C71.2214 12.099 71.4323 11.9349 71.5625 11.7422C71.6927 11.5443 71.7578 11.1302 71.7578 10.5ZM75.6875 15.1406V13.9844H81.1562V15.1406H75.6875ZM84.7266 20.7734C85.2682 20.9714 85.9323 21.0703 86.7188 21.0703C87.5052 21.0703 88.0547 20.9219 88.3672 20.625C88.6849 20.3281 88.8438 19.8672 88.8438 19.2422V18.0938C88.6302 18.2917 88.3099 18.4401 87.8828 18.5391C87.4609 18.638 87.0729 18.6875 86.7188 18.6875C84.625 18.6875 83.5781 17.8047 83.5781 16.0391V13.3125C83.5781 12.4531 83.8385 11.7812 84.3594 11.2969C84.8854 10.8073 85.6719 10.5625 86.7188 10.5625C87.1354 10.5625 87.5625 10.651 88 10.8281C88.4427 11 88.724 11.1849 88.8438 11.3828V10.7188H90.3125V18.8047C90.3125 19.7995 90.0495 20.612 89.5234 21.2422C89.0026 21.8724 88.1589 22.1875 86.9922 22.1875C85.8255 22.1875 84.9609 22.0833 84.3984 21.875L84.7266 20.7734ZM88.8438 12.8281C88.8438 12.0677 88.2109 11.6875 86.9453 11.6875C85.6797 11.6875 85.0469 12.1771 85.0469 13.1562V16.2656C85.0469 17.1302 85.6797 17.5625 86.9453 17.5625C87.6901 17.5625 88.3229 17.3542 88.8438 16.9375V12.8281ZM93.1406 19V10.7188H94.6094V11.8906C94.7969 11.3802 95.3047 11.0104 96.1328 10.7812C96.5651 10.6562 97.0156 10.5964 97.4844 10.6016L97.4375 11.8594C96.7292 11.8594 96.0807 12 95.4922 12.2812C94.9036 12.5625 94.6094 12.8698 94.6094 13.2031V19H93.1406ZM101.57 19.1719C100.732 19.1719 100.081 18.9453 99.6172 18.4922C99.1536 18.0339 98.9219 17.4661 98.9219 16.7891C98.9219 16.4036 99.0026 16.0833 99.1641 15.8281C99.4922 15.3073 100.471 14.8099 102.102 14.3359C103.044 14.0755 103.586 13.8516 103.727 13.6641C103.872 13.4766 103.953 13.3307 103.969 13.2266C103.984 13.1172 103.992 12.9453 103.992 12.7109C103.992 12.4766 103.896 12.2474 103.703 12.0234C103.516 11.7995 103.104 11.6875 102.469 11.6875C101.573 11.6875 101.023 11.8594 100.82 12.2031C100.716 12.3802 100.664 12.6198 100.664 12.9219V13.2891H99.25V12.9141C99.25 12.1068 99.5182 11.513 100.055 11.1328C100.596 10.7526 101.404 10.5625 102.477 10.5625C103.549 10.5625 104.315 10.8073 104.773 11.2969C105.232 11.7812 105.461 12.474 105.461 13.375V16.9062C105.461 17.3385 105.516 17.6198 105.625 17.75C105.734 17.875 105.969 17.9375 106.328 17.9375L106.156 19.0625H105.859C105.339 19.0625 104.951 18.9635 104.695 18.7656C104.44 18.5625 104.245 18.25 104.109 17.8281C103.677 18.474 103.156 18.8802 102.547 19.0469C102.255 19.1302 101.93 19.1719 101.57 19.1719ZM102.305 15.3438C101.565 15.5573 101.052 15.7708 100.766 15.9844C100.484 16.1979 100.344 16.5 100.344 16.8906C100.344 17.276 100.474 17.5677 100.734 17.7656C101 17.9635 101.318 18.0625 101.688 18.0625C102.062 18.0625 102.401 18.0156 102.703 17.9219C103.005 17.8229 103.276 17.6797 103.516 17.4922C103.76 17.2995 103.919 17.0807 103.992 16.8359V14.4453C103.612 14.8255 103.049 15.125 102.305 15.3438ZM113.641 12.8984C113.641 12.0911 113.044 11.6875 111.852 11.6875C111.247 11.6875 110.781 11.8177 110.453 12.0781C110.13 12.3333 109.969 12.6745 109.969 13.1016V19H108.5V10.7188H109.969V11.5234C110.521 10.8828 111.349 10.5625 112.453 10.5625C113.562 10.5625 114.336 10.9245 114.773 11.6484L114.969 11.4609C115.568 10.862 116.406 10.5625 117.484 10.5625C118.875 10.5625 119.734 11.0573 120.062 12.0469C120.156 12.3281 120.203 12.6406 120.203 12.9844V19H118.734V12.8984C118.734 12.0911 118.193 11.6875 117.109 11.6875C116.427 11.6875 115.922 11.8177 115.594 12.0781C115.271 12.3333 115.109 12.6745 115.109 13.1016V19H113.641V12.8984ZM127.031 19V7.23438H128.5V14.9062L132.461 10.7188H134.07L130.703 14.3594L134.406 19H132.711L129.742 15.1562L128.5 16.3906V19H127.031ZM137.203 16.6641C137.203 17.5859 137.857 18.0469 139.164 18.0469C140.471 18.0469 141.125 17.5859 141.125 16.6641V13.0781C141.125 12.151 140.471 11.6875 139.164 11.6875C137.857 11.6875 137.203 12.151 137.203 13.0781V16.6641ZM142.594 16.5391C142.594 17.3516 142.315 17.9948 141.758 18.4688C141.206 18.9375 140.339 19.1719 139.156 19.1719C137.974 19.1719 137.107 18.9375 136.555 18.4688C136.008 18 135.734 17.3568 135.734 16.5391V13.2031C135.734 12.3854 136.008 11.7422 136.555 11.2734C137.107 10.7995 137.974 10.5625 139.156 10.5625C140.339 10.5625 141.206 10.7995 141.758 11.2734C142.315 11.7474 142.594 12.3906 142.594 13.2031V16.5391ZM144 21.7578L143.852 20.5391H144.078C144.609 20.5391 144.964 20.4688 145.141 20.3281C145.318 20.1927 145.432 20.0234 145.484 19.8203C145.536 19.6224 145.562 19.3594 145.562 19.0312V10.7188H147.031V18.9453C147.031 20.3047 146.719 21.1458 146.094 21.4688C145.724 21.6615 145.198 21.7578 144.516 21.7578H144ZM145.562 9.22656V7.70312H147.031V9.22656H145.562ZM150.062 19V10.7188H151.531V19H150.062ZM150.062 9.22656V7.70312H151.531V9.22656H150.062ZM158.562 22.1875V10.7188H159.719L159.891 11.3438C160.13 11.1302 160.458 10.9479 160.875 10.7969C161.292 10.6406 161.724 10.5625 162.172 10.5625C163.198 10.5625 163.977 10.8125 164.508 11.3125C165.044 11.8125 165.312 12.4766 165.312 13.3047V16.3125C165.312 17.1667 165.021 17.8568 164.438 18.3828C163.854 18.9089 163.036 19.1719 161.984 19.1719C161.255 19.1719 160.604 19.026 160.031 18.7344V22.1875H158.562ZM160.031 17.6016C160.557 17.8984 161.146 18.0469 161.797 18.0469C162.448 18.0469 162.951 17.9089 163.305 17.6328C163.664 17.3568 163.844 16.9688 163.844 16.4688V13.1875C163.844 12.7083 163.667 12.3385 163.312 12.0781C162.964 11.8177 162.534 11.6875 162.023 11.6875C161.518 11.6875 161.086 11.7917 160.727 12C160.372 12.2083 160.141 12.3958 160.031 12.5625V17.6016ZM169.094 16.6641C169.094 17.5859 169.747 18.0469 171.055 18.0469C172.362 18.0469 173.016 17.5859 173.016 16.6641V13.0781C173.016 12.151 172.362 11.6875 171.055 11.6875C169.747 11.6875 169.094 12.151 169.094 13.0781V16.6641ZM174.484 16.5391C174.484 17.3516 174.206 17.9948 173.648 18.4688C173.096 18.9375 172.229 19.1719 171.047 19.1719C169.865 19.1719 168.997 18.9375 168.445 18.4688C167.898 18 167.625 17.3568 167.625 16.5391V13.2031C167.625 12.3854 167.898 11.7422 168.445 11.2734C168.997 10.7995 169.865 10.5625 171.047 10.5625C172.229 10.5625 173.096 10.7995 173.648 11.2734C174.206 11.7474 174.484 12.3906 174.484 13.2031V16.5391ZM179.461 9.28906L177.859 7.21094H179.07L180.039 8.57031L181.07 7.21094H182.328L180.633 9.28906H179.461ZM180.164 19.1719C178.471 19.1719 177.411 18.5833 176.984 17.4062C176.859 17.0729 176.797 16.7083 176.797 16.3125V13.1562C176.797 12.3698 177.096 11.7422 177.695 11.2734C178.294 10.7995 179.104 10.5625 180.125 10.5625C181.427 10.5625 182.323 10.8438 182.812 11.4062C183.198 11.8438 183.391 12.4896 183.391 13.3438L181.992 13.4766C181.992 12.737 181.859 12.2552 181.594 12.0312C181.333 11.8021 180.867 11.6875 180.195 11.6875C179.523 11.6875 179.034 11.8047 178.727 12.0391C178.419 12.2734 178.266 12.6589 178.266 13.1953V16.4375C178.266 17.0104 178.427 17.4219 178.75 17.6719C179.073 17.9219 179.57 18.0469 180.242 18.0469C180.919 18.0469 181.37 17.9583 181.594 17.7812C181.823 17.6042 181.964 17.2031 182.016 16.5781H183.375C183.292 17.5365 183.016 18.2083 182.547 18.5938C182.078 18.9792 181.284 19.1719 180.164 19.1719ZM185.922 19V10.7188H187.391V19H185.922ZM185.922 9.22656V7.70312H187.391V9.22656H185.922ZM195.703 12.8984C195.703 12.0911 195.086 11.6875 193.852 11.6875C193.242 11.6875 192.763 11.8177 192.414 12.0781C192.065 12.3385 191.891 12.6797 191.891 13.1016V19H190.422V10.7188H191.891V11.5234C192.443 10.8828 193.26 10.5625 194.344 10.5625C195.75 10.5625 196.641 11.0573 197.016 12.0469C197.12 12.3281 197.172 12.6406 197.172 12.9844V19H195.703V12.8984ZM198.797 21.7578L198.648 20.5391H198.875C199.406 20.5391 199.76 20.4688 199.938 20.3281C200.115 20.1927 200.229 20.0234 200.281 19.8203C200.333 19.6224 200.359 19.3594 200.359 19.0312V10.7188H201.828V18.9453C201.828 20.3047 201.516 21.1458 200.891 21.4688C200.521 21.6615 199.995 21.7578 199.312 21.7578H198.797ZM200.359 9.22656V7.70312H201.828V9.22656H200.359ZM207.852 19.1719C206.638 19.1719 205.76 18.9193 205.219 18.4141C204.677 17.9089 204.406 17.1302 204.406 16.0781V13.1953C204.406 12.3776 204.685 11.7344 205.242 11.2656C205.799 10.7969 206.641 10.5625 207.766 10.5625C208.896 10.5625 209.734 10.7812 210.281 11.2188C210.833 11.651 211.109 12.2708 211.109 13.0781V15.0469H205.875V16.2109C205.875 16.8984 206.013 17.3776 206.289 17.6484C206.565 17.9141 207.062 18.0469 207.781 18.0469C208.5 18.0469 208.906 18.0312 209 18C209.094 17.9688 209.19 17.9323 209.289 17.8906C209.388 17.849 209.456 17.7995 209.492 17.7422C209.534 17.6849 209.586 17.599 209.648 17.4844C209.716 17.3646 209.766 17.1354 209.797 16.7969H211.094C211.042 17.2917 210.953 17.6901 210.828 17.9922C210.708 18.2943 210.516 18.5365 210.25 18.7188C209.99 18.8958 209.674 19.0156 209.305 19.0781C208.94 19.1406 208.456 19.1719 207.852 19.1719ZM205.875 14.0547H209.688V12.9219C209.688 12.4531 209.526 12.1302 209.203 11.9531C208.885 11.776 208.417 11.6875 207.797 11.6875C207.177 11.6875 206.701 11.7943 206.367 12.0078C206.039 12.2214 205.875 12.5729 205.875 13.0625V14.0547ZM223.031 12.8984C223.031 12.0911 222.414 11.6875 221.18 11.6875C220.57 11.6875 220.091 11.8177 219.742 12.0781C219.393 12.3385 219.219 12.6797 219.219 13.1016V19H217.75V10.7188H219.219V11.5234C219.771 10.8828 220.589 10.5625 221.672 10.5625C223.078 10.5625 223.969 11.0573 224.344 12.0469C224.448 12.3281 224.5 12.6406 224.5 12.9844V19H223.031V12.8984ZM229.555 19.1719C228.716 19.1719 228.065 18.9453 227.602 18.4922C227.138 18.0339 226.906 17.4661 226.906 16.7891C226.906 16.4036 226.987 16.0833 227.148 15.8281C227.477 15.3073 228.456 14.8099 230.086 14.3359C231.029 14.0755 231.57 13.8516 231.711 13.6641C231.857 13.4766 231.938 13.3307 231.953 13.2266C231.969 13.1172 231.977 12.9453 231.977 12.7109C231.977 12.4766 231.88 12.2474 231.688 12.0234C231.5 11.7995 231.089 11.6875 230.453 11.6875C229.557 11.6875 229.008 11.8594 228.805 12.2031C228.701 12.3802 228.648 12.6198 228.648 12.9219V13.2891H227.234V12.9141C227.234 12.1068 227.503 11.513 228.039 11.1328C228.581 10.7526 229.388 10.5625 230.461 10.5625C231.534 10.5625 232.299 10.8073 232.758 11.2969C233.216 11.7812 233.445 12.474 233.445 13.375V16.9062C233.445 17.3385 233.5 17.6198 233.609 17.75C233.719 17.875 233.953 17.9375 234.312 17.9375L234.141 19.0625H233.844C233.323 19.0625 232.935 18.9635 232.68 18.7656C232.424 18.5625 232.229 18.25 232.094 17.8281C231.661 18.474 231.141 18.8802 230.531 19.0469C230.24 19.1302 229.914 19.1719 229.555 19.1719ZM230.289 15.3438C229.549 15.5573 229.036 15.7708 228.75 15.9844C228.469 16.1979 228.328 16.5 228.328 16.8906C228.328 17.276 228.458 17.5677 228.719 17.7656C228.984 17.9635 229.302 18.0625 229.672 18.0625C230.047 18.0625 230.385 18.0156 230.688 17.9219C230.99 17.8229 231.26 17.6797 231.5 17.4922C231.745 17.2995 231.904 17.0807 231.977 16.8359V14.4453C231.596 14.8255 231.034 15.125 230.289 15.3438ZM245.188 19.1719C243.083 19.1719 241.706 18.651 241.055 17.6094C240.674 17 240.484 16.1979 240.484 15.2031V11.6562C240.484 10.0469 240.953 8.92448 241.891 8.28906C242.635 7.78385 243.682 7.53125 245.031 7.53125C246.38 7.53125 247.367 7.6849 247.992 7.99219C248.622 8.29427 249.036 8.70052 249.234 9.21094C249.432 9.71615 249.531 10.3333 249.531 11.0625L248.094 11.1797C248.094 10.4453 248.021 9.95573 247.875 9.71094C247.734 9.46094 247.596 9.28385 247.461 9.17969C247.331 9.07552 247.107 8.98698 246.789 8.91406C246.477 8.83594 246 8.79688 245.359 8.79688C244.724 8.79688 244.224 8.83854 243.859 8.92188C243.495 9 243.172 9.13542 242.891 9.32812C242.339 9.70833 242.062 10.388 242.062 11.3672V15.4453C242.062 16.4245 242.326 17.0807 242.852 17.4141C243.378 17.7422 244.151 17.9062 245.172 17.9062C246.198 17.9062 246.938 17.7448 247.391 17.4219C247.849 17.0938 248.078 16.4349 248.078 15.4453V14.4062H245.398V13.2578H249.656V19H248.797L248.602 17.0781C248.503 17.7292 248.174 18.2422 247.617 18.6172C247.065 18.987 246.255 19.1719 245.188 19.1719ZM255.102 19V8.99219H251.844V7.70312H259.938V8.99219H256.672V19H255.102ZM264.844 21.7578L264.695 20.5391H264.922C265.453 20.5391 265.807 20.4688 265.984 20.3281C266.161 20.1927 266.276 20.0234 266.328 19.8203C266.38 19.6224 266.406 19.3594 266.406 19.0312V10.7188H267.875V18.9453C267.875 20.3047 267.562 21.1458 266.938 21.4688C266.568 21.6615 266.042 21.7578 265.359 21.7578H264.844ZM266.406 9.22656V7.70312H267.875V9.22656H266.406ZM273.898 19.1719C272.685 19.1719 271.807 18.9193 271.266 18.4141C270.724 17.9089 270.453 17.1302 270.453 16.0781V13.1953C270.453 12.3776 270.732 11.7344 271.289 11.2656C271.846 10.7969 272.688 10.5625 273.812 10.5625C274.943 10.5625 275.781 10.7812 276.328 11.2188C276.88 11.651 277.156 12.2708 277.156 13.0781V15.0469H271.922V16.2109C271.922 16.8984 272.06 17.3776 272.336 17.6484C272.612 17.9141 273.109 18.0469 273.828 18.0469C274.547 18.0469 274.953 18.0312 275.047 18C275.141 17.9688 275.237 17.9323 275.336 17.8906C275.435 17.849 275.503 17.7995 275.539 17.7422C275.581 17.6849 275.633 17.599 275.695 17.4844C275.763 17.3646 275.812 17.1354 275.844 16.7969H277.141C277.089 17.2917 277 17.6901 276.875 17.9922C276.755 18.2943 276.562 18.5365 276.297 18.7188C276.036 18.8958 275.721 19.0156 275.352 19.0781C274.987 19.1406 274.503 19.1719 273.898 19.1719ZM271.922 14.0547H275.734V12.9219C275.734 12.4531 275.573 12.1302 275.25 11.9531C274.932 11.776 274.464 11.6875 273.844 11.6875C273.224 11.6875 272.747 11.7943 272.414 12.0078C272.086 12.2214 271.922 12.5729 271.922 13.0625V14.0547ZM279.797 19V10.7188H281.266V11.8906C281.453 11.3802 281.961 11.0104 282.789 10.7812C283.221 10.6562 283.672 10.5964 284.141 10.6016L284.094 11.8594C283.385 11.8594 282.737 12 282.148 12.2812C281.56 12.5625 281.266 12.8698 281.266 13.2031V19H279.797ZM292.477 18.0469C293.586 18.0469 294.141 17.6328 294.141 16.8047C294.141 16.4453 294.091 16.1797 293.992 16.0078C293.893 15.8307 293.661 15.6745 293.297 15.5391L291.328 14.8125C290.724 14.599 290.302 14.3464 290.062 14.0547C289.828 13.7578 289.711 13.388 289.711 12.9453C289.711 12.5026 289.755 12.1484 289.844 11.8828C289.932 11.612 290.078 11.375 290.281 11.1719C290.688 10.7656 291.417 10.5625 292.469 10.5625C293.521 10.5625 294.427 10.7135 295.188 11.0156L294.852 12.1406C294.586 12.0312 294.237 11.9297 293.805 11.8359C293.372 11.737 292.995 11.6875 292.672 11.6875C291.927 11.6875 291.456 11.8073 291.258 12.0469C291.138 12.1979 291.078 12.4193 291.078 12.7109C291.078 13.0026 291.125 13.2109 291.219 13.3359C291.318 13.4557 291.508 13.5651 291.789 13.6641L293.734 14.4297C294.411 14.6953 294.857 14.9896 295.07 15.3125C295.284 15.6302 295.391 16.1328 295.391 16.8203C295.391 17.5078 295.169 18.0729 294.727 18.5156C294.284 18.9531 293.599 19.1719 292.672 19.1719C291.995 19.1719 291.393 19.099 290.867 18.9531C290.341 18.8073 289.938 18.6562 289.656 18.5L290.016 17.4219C290.76 17.8385 291.581 18.0469 292.477 18.0469ZM300.898 19.1719C299.685 19.1719 298.807 18.9193 298.266 18.4141C297.724 17.9089 297.453 17.1302 297.453 16.0781V13.1953C297.453 12.3776 297.732 11.7344 298.289 11.2656C298.846 10.7969 299.688 10.5625 300.812 10.5625C301.943 10.5625 302.781 10.7812 303.328 11.2188C303.88 11.651 304.156 12.2708 304.156 13.0781V15.0469H298.922V16.2109C298.922 16.8984 299.06 17.3776 299.336 17.6484C299.612 17.9141 300.109 18.0469 300.828 18.0469C301.547 18.0469 301.953 18.0312 302.047 18C302.141 17.9688 302.237 17.9323 302.336 17.8906C302.435 17.849 302.503 17.7995 302.539 17.7422C302.581 17.6849 302.633 17.599 302.695 17.4844C302.763 17.3646 302.812 17.1354 302.844 16.7969H304.141C304.089 17.2917 304 17.6901 303.875 17.9922C303.755 18.2943 303.562 18.5365 303.297 18.7188C303.036 18.8958 302.721 19.0156 302.352 19.0781C301.987 19.1406 301.503 19.1719 300.898 19.1719ZM298.922 14.0547H302.734V12.9219C302.734 12.4531 302.573 12.1302 302.25 11.9531C301.932 11.776 301.464 11.6875 300.844 11.6875C300.224 11.6875 299.747 11.7943 299.414 12.0078C299.086 12.2214 298.922 12.5729 298.922 13.0625V14.0547ZM313.258 19V8.99219H310V7.70312H318.094V8.99219H314.828V19H313.258ZM324.906 19.1719C322.802 19.1719 321.424 18.651 320.773 17.6094C320.393 17 320.203 16.1979 320.203 15.2031V11.6562C320.203 10.0469 320.672 8.92448 321.609 8.28906C322.354 7.78385 323.401 7.53125 324.75 7.53125C326.099 7.53125 327.086 7.6849 327.711 7.99219C328.341 8.29427 328.755 8.70052 328.953 9.21094C329.151 9.71615 329.25 10.3333 329.25 11.0625L327.812 11.1797C327.812 10.4453 327.74 9.95573 327.594 9.71094C327.453 9.46094 327.315 9.28385 327.18 9.17969C327.049 9.07552 326.826 8.98698 326.508 8.91406C326.195 8.83594 325.719 8.79688 325.078 8.79688C324.443 8.79688 323.943 8.83854 323.578 8.92188C323.214 9 322.891 9.13542 322.609 9.32812C322.057 9.70833 321.781 10.388 321.781 11.3672V15.4453C321.781 16.4245 322.044 17.0807 322.57 17.4141C323.096 17.7422 323.87 17.9062 324.891 17.9062C325.917 17.9062 326.656 17.7448 327.109 17.4219C327.568 17.0938 327.797 16.4349 327.797 15.4453V14.4062H325.117V13.2578H329.375V19H328.516L328.32 17.0781C328.221 17.7292 327.893 18.2422 327.336 18.6172C326.784 18.987 325.974 19.1719 324.906 19.1719ZM334.82 19V8.99219H331.562V7.70312H339.656V8.99219H336.391V19H334.82ZM345.406 19V18.0781L349.367 11.6875H345.547V10.7188H350.914V11.6172L346.93 18.0312H350.984V19H345.406ZM355.523 19.1719C354.685 19.1719 354.034 18.9453 353.57 18.4922C353.107 18.0339 352.875 17.4661 352.875 16.7891C352.875 16.4036 352.956 16.0833 353.117 15.8281C353.445 15.3073 354.424 14.8099 356.055 14.3359C356.997 14.0755 357.539 13.8516 357.68 13.6641C357.826 13.4766 357.906 13.3307 357.922 13.2266C357.938 13.1172 357.945 12.9453 357.945 12.7109C357.945 12.4766 357.849 12.2474 357.656 12.0234C357.469 11.7995 357.057 11.6875 356.422 11.6875C355.526 11.6875 354.977 11.8594 354.773 12.2031C354.669 12.3802 354.617 12.6198 354.617 12.9219V13.2891H353.203V12.9141C353.203 12.1068 353.471 11.513 354.008 11.1328C354.549 10.7526 355.357 10.5625 356.43 10.5625C357.503 10.5625 358.268 10.8073 358.727 11.2969C359.185 11.7812 359.414 12.474 359.414 13.375V16.9062C359.414 17.3385 359.469 17.6198 359.578 17.75C359.688 17.875 359.922 17.9375 360.281 17.9375L360.109 19.0625H359.812C359.292 19.0625 358.904 18.9635 358.648 18.7656C358.393 18.5625 358.198 18.25 358.062 17.8281C357.63 18.474 357.109 18.8802 356.5 19.0469C356.208 19.1302 355.883 19.1719 355.523 19.1719ZM356.258 15.3438C355.518 15.5573 355.005 15.7708 354.719 15.9844C354.438 16.1979 354.297 16.5 354.297 16.8906C354.297 17.276 354.427 17.5677 354.688 17.7656C354.953 17.9635 355.271 18.0625 355.641 18.0625C356.016 18.0625 356.354 18.0156 356.656 17.9219C356.958 17.8229 357.229 17.6797 357.469 17.4922C357.714 17.2995 357.872 17.0807 357.945 16.8359V14.4453C357.565 14.8255 357.003 15.125 356.258 15.3438ZM364.68 19L361.469 10.7188H362.945L365.438 17.4375L367.656 10.7188H369.094L366.164 19H364.68ZM371.047 19V10.7188H372.516V11.8906C372.703 11.3802 373.211 11.0104 374.039 10.7812C374.471 10.6562 374.922 10.5964 375.391 10.6016L375.344 11.8594C374.635 11.8594 373.987 12 373.398 12.2812C372.81 12.5625 372.516 12.8698 372.516 13.2031V19H371.047ZM379.141 9.28906L377.539 7.21094H378.75L379.719 8.57031L380.75 7.21094H382.008L380.312 9.28906H379.141ZM379.727 18.0469C380.836 18.0469 381.391 17.6328 381.391 16.8047C381.391 16.4453 381.341 16.1797 381.242 16.0078C381.143 15.8307 380.911 15.6745 380.547 15.5391L378.578 14.8125C377.974 14.599 377.552 14.3464 377.312 14.0547C377.078 13.7578 376.961 13.388 376.961 12.9453C376.961 12.5026 377.005 12.1484 377.094 11.8828C377.182 11.612 377.328 11.375 377.531 11.1719C377.938 10.7656 378.667 10.5625 379.719 10.5625C380.771 10.5625 381.677 10.7135 382.438 11.0156L382.102 12.1406C381.836 12.0312 381.487 11.9297 381.055 11.8359C380.622 11.737 380.245 11.6875 379.922 11.6875C379.177 11.6875 378.706 11.8073 378.508 12.0469C378.388 12.1979 378.328 12.4193 378.328 12.7109C378.328 13.0026 378.375 13.2109 378.469 13.3359C378.568 13.4557 378.758 13.5651 379.039 13.6641L380.984 14.4297C381.661 14.6953 382.107 14.9896 382.32 15.3125C382.534 15.6302 382.641 16.1328 382.641 16.8203C382.641 17.5078 382.419 18.0729 381.977 18.5156C381.534 18.9531 380.849 19.1719 379.922 19.1719C379.245 19.1719 378.643 19.099 378.117 18.9531C377.591 18.8073 377.188 18.6562 376.906 18.5L377.266 17.4219C378.01 17.8385 378.831 18.0469 379.727 18.0469ZM387.227 19.1719C386.388 19.1719 385.737 18.9453 385.273 18.4922C384.81 18.0339 384.578 17.4661 384.578 16.7891C384.578 16.4036 384.659 16.0833 384.82 15.8281C385.148 15.3073 386.128 14.8099 387.758 14.3359C388.701 14.0755 389.242 13.8516 389.383 13.6641C389.529 13.4766 389.609 13.3307 389.625 13.2266C389.641 13.1172 389.648 12.9453 389.648 12.7109C389.648 12.4766 389.552 12.2474 389.359 12.0234C389.172 11.7995 388.76 11.6875 388.125 11.6875C387.229 11.6875 386.68 11.8594 386.477 12.2031C386.372 12.3802 386.32 12.6198 386.32 12.9219V13.2891H384.906V12.9141C384.906 12.1068 385.174 11.513 385.711 11.1328C386.253 10.7526 387.06 10.5625 388.133 10.5625C389.206 10.5625 389.971 10.8073 390.43 11.2969C390.888 11.7812 391.117 12.474 391.117 13.375V16.9062C391.117 17.3385 391.172 17.6198 391.281 17.75C391.391 17.875 391.625 17.9375 391.984 17.9375L391.812 19.0625H391.516C390.995 19.0625 390.607 18.9635 390.352 18.7656C390.096 18.5625 389.901 18.25 389.766 17.8281C389.333 18.474 388.812 18.8802 388.203 19.0469C387.911 19.1302 387.586 19.1719 387.227 19.1719ZM387.961 15.3438C387.221 15.5573 386.708 15.7708 386.422 15.9844C386.141 16.1979 386 16.5 386 16.8906C386 17.276 386.13 17.5677 386.391 17.7656C386.656 17.9635 386.974 18.0625 387.344 18.0625C387.719 18.0625 388.057 18.0156 388.359 17.9219C388.661 17.8229 388.932 17.6797 389.172 17.4922C389.417 17.2995 389.576 17.0807 389.648 16.8359V14.4453C389.268 14.8255 388.706 15.125 387.961 15.3438ZM396.383 19L393.172 10.7188H394.648L397.141 17.4375L399.359 10.7188H400.797L397.867 19H396.383ZM404.977 19.1719C404.138 19.1719 403.487 18.9453 403.023 18.4922C402.56 18.0339 402.328 17.4661 402.328 16.7891C402.328 16.4036 402.409 16.0833 402.57 15.8281C402.898 15.3073 403.878 14.8099 405.508 14.3359C406.451 14.0755 406.992 13.8516 407.133 13.6641C407.279 13.4766 407.359 13.3307 407.375 13.2266C407.391 13.1172 407.398 12.9453 407.398 12.7109C407.398 12.4766 407.302 12.2474 407.109 12.0234C406.922 11.7995 406.51 11.6875 405.875 11.6875C404.979 11.6875 404.43 11.8594 404.227 12.2031C404.122 12.3802 404.07 12.6198 404.07 12.9219V13.2891H402.656V12.9141C402.656 12.1068 402.924 11.513 403.461 11.1328C404.003 10.7526 404.81 10.5625 405.883 10.5625C406.956 10.5625 407.721 10.8073 408.18 11.2969C408.638 11.7812 408.867 12.474 408.867 13.375V16.9062C408.867 17.3385 408.922 17.6198 409.031 17.75C409.141 17.875 409.375 17.9375 409.734 17.9375L409.562 19.0625H409.266C408.745 19.0625 408.357 18.9635 408.102 18.7656C407.846 18.5625 407.651 18.25 407.516 17.8281C407.083 18.474 406.562 18.8802 405.953 19.0469C405.661 19.1302 405.336 19.1719 404.977 19.1719ZM405.711 15.3438C404.971 15.5573 404.458 15.7708 404.172 15.9844C403.891 16.1979 403.75 16.5 403.75 16.8906C403.75 17.276 403.88 17.5677 404.141 17.7656C404.406 17.9635 404.724 18.0625 405.094 18.0625C405.469 18.0625 405.807 18.0156 406.109 17.9219C406.411 17.8229 406.682 17.6797 406.922 17.4922C407.167 17.2995 407.326 17.0807 407.398 16.8359V14.4453C407.018 14.8255 406.456 15.125 405.711 15.3438ZM421.188 12.8984C421.188 12.0911 420.57 11.6875 419.336 11.6875C418.727 11.6875 418.247 11.8177 417.898 12.0781C417.549 12.3385 417.375 12.6797 417.375 13.1016V19H415.906V10.7188H417.375V11.5234C417.927 10.8828 418.745 10.5625 419.828 10.5625C421.234 10.5625 422.125 11.0573 422.5 12.0469C422.604 12.3281 422.656 12.6406 422.656 12.9844V19H421.188V12.8984ZM427.711 19.1719C426.872 19.1719 426.221 18.9453 425.758 18.4922C425.294 18.0339 425.062 17.4661 425.062 16.7891C425.062 16.4036 425.143 16.0833 425.305 15.8281C425.633 15.3073 426.612 14.8099 428.242 14.3359C429.185 14.0755 429.727 13.8516 429.867 13.6641C430.013 13.4766 430.094 13.3307 430.109 13.2266C430.125 13.1172 430.133 12.9453 430.133 12.7109C430.133 12.4766 430.036 12.2474 429.844 12.0234C429.656 11.7995 429.245 11.6875 428.609 11.6875C427.714 11.6875 427.164 11.8594 426.961 12.2031C426.857 12.3802 426.805 12.6198 426.805 12.9219V13.2891H425.391V12.9141C425.391 12.1068 425.659 11.513 426.195 11.1328C426.737 10.7526 427.544 10.5625 428.617 10.5625C429.69 10.5625 430.456 10.8073 430.914 11.2969C431.372 11.7812 431.602 12.474 431.602 13.375V16.9062C431.602 17.3385 431.656 17.6198 431.766 17.75C431.875 17.875 432.109 17.9375 432.469 17.9375L432.297 19.0625H432C431.479 19.0625 431.091 18.9635 430.836 18.7656C430.581 18.5625 430.385 18.25 430.25 17.8281C429.818 18.474 429.297 18.8802 428.688 19.0469C428.396 19.1302 428.07 19.1719 427.711 19.1719ZM428.445 15.3438C427.706 15.5573 427.193 15.7708 426.906 15.9844C426.625 16.1979 426.484 16.5 426.484 16.8906C426.484 17.276 426.615 17.5677 426.875 17.7656C427.141 17.9635 427.458 18.0625 427.828 18.0625C428.203 18.0625 428.542 18.0156 428.844 17.9219C429.146 17.8229 429.417 17.6797 429.656 17.4922C429.901 17.2995 430.06 17.0807 430.133 16.8359V14.4453C429.753 14.8255 429.19 15.125 428.445 15.3438ZM443.344 19.1719C441.24 19.1719 439.862 18.651 439.211 17.6094C438.831 17 438.641 16.1979 438.641 15.2031V11.6562C438.641 10.0469 439.109 8.92448 440.047 8.28906C440.792 7.78385 441.839 7.53125 443.188 7.53125C444.536 7.53125 445.523 7.6849 446.148 7.99219C446.779 8.29427 447.193 8.70052 447.391 9.21094C447.589 9.71615 447.688 10.3333 447.688 11.0625L446.25 11.1797C446.25 10.4453 446.177 9.95573 446.031 9.71094C445.891 9.46094 445.753 9.28385 445.617 9.17969C445.487 9.07552 445.263 8.98698 444.945 8.91406C444.633 8.83594 444.156 8.79688 443.516 8.79688C442.88 8.79688 442.38 8.83854 442.016 8.92188C441.651 9 441.328 9.13542 441.047 9.32812C440.495 9.70833 440.219 10.388 440.219 11.3672V15.4453C440.219 16.4245 440.482 17.0807 441.008 17.4141C441.534 17.7422 442.307 17.9062 443.328 17.9062C444.354 17.9062 445.094 17.7448 445.547 17.4219C446.005 17.0938 446.234 16.4349 446.234 15.4453V14.4062H443.555V13.2578H447.812V19H446.953L446.758 17.0781C446.659 17.7292 446.331 18.2422 445.773 18.6172C445.221 18.987 444.411 19.1719 443.344 19.1719ZM453.258 19V8.99219H450V7.70312H458.094V8.99219H454.828V19H453.258ZM460.75 12.6094V10.7188H462.75V12.6094H460.75ZM460.75 18.2266V16.3359H462.75V18.2266H460.75Z" fill="#C9D1D9"/>
<path d="M1.70312 169V157.703H2.89844L9.36719 166.734V157.703H10.75V169H9.35156L3.08594 160.375V169H1.70312ZM16.1328 169.172C15.2943 169.172 14.6432 168.945 14.1797 168.492C13.7161 168.034 13.4844 167.466 13.4844 166.789C13.4844 166.404 13.5651 166.083 13.7266 165.828C14.0547 165.307 15.0339 164.81 16.6641 164.336C17.6068 164.076 18.1484 163.852 18.2891 163.664C18.4349 163.477 18.5156 163.331 18.5312 163.227C18.5469 163.117 18.5547 162.945 18.5547 162.711C18.5547 162.477 18.4583 162.247 18.2656 162.023C18.0781 161.799 17.6667 161.688 17.0312 161.688C16.1354 161.688 15.5859 161.859 15.3828 162.203C15.2786 162.38 15.2266 162.62 15.2266 162.922V163.289H13.8125V162.914C13.8125 162.107 14.0807 161.513 14.6172 161.133C15.1589 160.753 15.9661 160.562 17.0391 160.562C18.112 160.562 18.8776 160.807 19.3359 161.297C19.7943 161.781 20.0234 162.474 20.0234 163.375V166.906C20.0234 167.339 20.0781 167.62 20.1875 167.75C20.2969 167.875 20.5312 167.938 20.8906 167.938L20.7188 169.062H20.4219C19.901 169.062 19.513 168.964 19.2578 168.766C19.0026 168.562 18.8073 168.25 18.6719 167.828C18.2396 168.474 17.7188 168.88 17.1094 169.047C16.8177 169.13 16.4922 169.172 16.1328 169.172ZM16.8672 165.344C16.1276 165.557 15.6146 165.771 15.3281 165.984C15.0469 166.198 14.9062 166.5 14.9062 166.891C14.9062 167.276 15.0365 167.568 15.2969 167.766C15.5625 167.964 15.8802 168.062 16.25 168.062C16.625 168.062 16.9635 168.016 17.2656 167.922C17.5677 167.823 17.8385 167.68 18.0781 167.492C18.3229 167.299 18.4818 167.081 18.5547 166.836V164.445C18.1745 164.826 17.612 165.125 16.8672 165.344ZM25.75 169.062C25.2656 169.062 24.8698 169.026 24.5625 168.953C24.2552 168.88 23.9844 168.742 23.75 168.539C23.3125 168.159 23.0938 167.38 23.0938 166.203V157.242H24.5625V166.219C24.5625 166.885 24.6615 167.32 24.8594 167.523C25.0573 167.727 25.4661 167.828 26.0859 167.828H26.3438L26.1719 169.062H25.75ZM30.7266 169.172C29.888 169.172 29.237 168.945 28.7734 168.492C28.3099 168.034 28.0781 167.466 28.0781 166.789C28.0781 166.404 28.1589 166.083 28.3203 165.828C28.6484 165.307 29.6276 164.81 31.2578 164.336C32.2005 164.076 32.7422 163.852 32.8828 163.664C33.0286 163.477 33.1094 163.331 33.125 163.227C33.1406 163.117 33.1484 162.945 33.1484 162.711C33.1484 162.477 33.0521 162.247 32.8594 162.023C32.6719 161.799 32.2604 161.688 31.625 161.688C30.7292 161.688 30.1797 161.859 29.9766 162.203C29.8724 162.38 29.8203 162.62 29.8203 162.922V163.289H28.4062V162.914C28.4062 162.107 28.6745 161.513 29.2109 161.133C29.7526 160.753 30.5599 160.562 31.6328 160.562C32.7057 160.562 33.4714 160.807 33.9297 161.297C34.388 161.781 34.6172 162.474 34.6172 163.375V166.906C34.6172 167.339 34.6719 167.62 34.7812 167.75C34.8906 167.875 35.125 167.938 35.4844 167.938L35.3125 169.062H35.0156C34.4948 169.062 34.1068 168.964 33.8516 168.766C33.5964 168.562 33.401 168.25 33.2656 167.828C32.8333 168.474 32.3125 168.88 31.7031 169.047C31.4115 169.13 31.0859 169.172 30.7266 169.172ZM31.4609 165.344C30.7214 165.557 30.2083 165.771 29.9219 165.984C29.6406 166.198 29.5 166.5 29.5 166.891C29.5 167.276 29.6302 167.568 29.8906 167.766C30.1562 167.964 30.474 168.062 30.8438 168.062C31.2188 168.062 31.5573 168.016 31.8594 167.922C32.1615 167.823 32.4323 167.68 32.6719 167.492C32.9167 167.299 33.0755 167.081 33.1484 166.836V164.445C32.7682 164.826 32.2057 165.125 31.4609 165.344ZM37.2969 169V168.078L41.2578 161.688H37.4375V160.719H42.8047V161.617L38.8203 168.031H42.875V169H37.2969ZM45.3438 169V160.719H46.8125V169H45.3438ZM45.3438 159.227V157.703H46.8125V159.227H45.3438ZM54.9844 162.898C54.9844 162.091 54.388 161.688 53.1953 161.688C52.5911 161.688 52.125 161.818 51.7969 162.078C51.474 162.333 51.3125 162.674 51.3125 163.102V169H49.8438V160.719H51.3125V161.523C51.8646 160.883 52.6927 160.562 53.7969 160.562C54.9062 160.562 55.6797 160.924 56.1172 161.648L56.3125 161.461C56.9115 160.862 57.75 160.562 58.8281 160.562C60.2188 160.562 61.0781 161.057 61.4062 162.047C61.5 162.328 61.5469 162.641 61.5469 162.984V169H60.0781V162.898C60.0781 162.091 59.5365 161.688 58.4531 161.688C57.7708 161.688 57.2656 161.818 56.9375 162.078C56.6146 162.333 56.4531 162.674 56.4531 163.102V169H54.9844V162.898ZM65.5469 166.664C65.5469 167.586 66.2005 168.047 67.5078 168.047C68.8151 168.047 69.4688 167.586 69.4688 166.664V163.078C69.4688 162.151 68.8151 161.688 67.5078 161.688C66.2005 161.688 65.5469 162.151 65.5469 163.078V166.664ZM70.9375 166.539C70.9375 167.352 70.6589 167.995 70.1016 168.469C69.5495 168.938 68.6823 169.172 67.5 169.172C66.3177 169.172 65.4505 168.938 64.8984 168.469C64.3516 168 64.0781 167.357 64.0781 166.539V163.203C64.0781 162.385 64.3516 161.742 64.8984 161.273C65.4505 160.799 66.3177 160.562 67.5 160.562C68.6823 160.562 69.5495 160.799 70.1016 161.273C70.6589 161.747 70.9375 162.391 70.9375 163.203V166.539ZM76.3438 171.758L76.1953 170.539H76.4219C76.9531 170.539 77.3073 170.469 77.4844 170.328C77.6615 170.193 77.776 170.023 77.8281 169.82C77.8802 169.622 77.9062 169.359 77.9062 169.031V160.719H79.375V168.945C79.375 170.305 79.0625 171.146 78.4375 171.469C78.0677 171.661 77.5417 171.758 76.8594 171.758H76.3438ZM77.9062 159.227V157.703H79.375V159.227H77.9062ZM85.3984 169.172C84.1849 169.172 83.3073 168.919 82.7656 168.414C82.224 167.909 81.9531 167.13 81.9531 166.078V163.195C81.9531 162.378 82.2318 161.734 82.7891 161.266C83.3464 160.797 84.1875 160.562 85.3125 160.562C86.4427 160.562 87.2812 160.781 87.8281 161.219C88.3802 161.651 88.6562 162.271 88.6562 163.078V165.047H83.4219V166.211C83.4219 166.898 83.5599 167.378 83.8359 167.648C84.112 167.914 84.6094 168.047 85.3281 168.047C86.0469 168.047 86.4531 168.031 86.5469 168C86.6406 167.969 86.737 167.932 86.8359 167.891C86.9349 167.849 87.0026 167.799 87.0391 167.742C87.0807 167.685 87.1328 167.599 87.1953 167.484C87.263 167.365 87.3125 167.135 87.3438 166.797H88.6406C88.5885 167.292 88.5 167.69 88.375 167.992C88.2552 168.294 88.0625 168.536 87.7969 168.719C87.5365 168.896 87.2214 169.016 86.8516 169.078C86.487 169.141 86.0026 169.172 85.3984 169.172ZM83.4219 164.055H87.2344V162.922C87.2344 162.453 87.0729 162.13 86.75 161.953C86.4323 161.776 85.9635 161.688 85.3438 161.688C84.724 161.688 84.2474 161.794 83.9141 162.008C83.5859 162.221 83.4219 162.573 83.4219 163.062V164.055ZM94.4609 160.562C95.1276 160.562 95.7396 160.667 96.2969 160.875V157.234H97.7656V169H96.7656L96.5234 168.453C96.2682 168.651 95.9323 168.82 95.5156 168.961C95.099 169.102 94.6875 169.172 94.2812 169.172C93.151 169.172 92.3203 168.922 91.7891 168.422C91.263 167.917 91 167.237 91 166.383V163.258C91 162.398 91.2839 161.734 91.8516 161.266C92.4193 160.797 93.2891 160.562 94.4609 160.562ZM92.4688 166.492C92.4688 166.987 92.6432 167.365 92.9922 167.625C93.3464 167.885 93.7604 168.016 94.2344 168.016C95.0781 168.016 95.7656 167.852 96.2969 167.523V162.031C95.8229 161.802 95.2474 161.688 94.5703 161.688C93.1693 161.688 92.4688 162.156 92.4688 163.094V166.492ZM102.898 169.172C102.06 169.172 101.409 168.945 100.945 168.492C100.482 168.034 100.25 167.466 100.25 166.789C100.25 166.404 100.331 166.083 100.492 165.828C100.82 165.307 101.799 164.81 103.43 164.336C104.372 164.076 104.914 163.852 105.055 163.664C105.201 163.477 105.281 163.331 105.297 163.227C105.312 163.117 105.32 162.945 105.32 162.711C105.32 162.477 105.224 162.247 105.031 162.023C104.844 161.799 104.432 161.688 103.797 161.688C102.901 161.688 102.352 161.859 102.148 162.203C102.044 162.38 101.992 162.62 101.992 162.922V163.289H100.578V162.914C100.578 162.107 100.846 161.513 101.383 161.133C101.924 160.753 102.732 160.562 103.805 160.562C104.878 160.562 105.643 160.807 106.102 161.297C106.56 161.781 106.789 162.474 106.789 163.375V166.906C106.789 167.339 106.844 167.62 106.953 167.75C107.062 167.875 107.297 167.938 107.656 167.938L107.484 169.062H107.188C106.667 169.062 106.279 168.964 106.023 168.766C105.768 168.562 105.573 168.25 105.438 167.828C105.005 168.474 104.484 168.88 103.875 169.047C103.583 169.13 103.258 169.172 102.898 169.172ZM103.633 165.344C102.893 165.557 102.38 165.771 102.094 165.984C101.812 166.198 101.672 166.5 101.672 166.891C101.672 167.276 101.802 167.568 102.062 167.766C102.328 167.964 102.646 168.062 103.016 168.062C103.391 168.062 103.729 168.016 104.031 167.922C104.333 167.823 104.604 167.68 104.844 167.492C105.089 167.299 105.247 167.081 105.32 166.836V164.445C104.94 164.826 104.378 165.125 103.633 165.344ZM115.109 162.898C115.109 162.091 114.492 161.688 113.258 161.688C112.648 161.688 112.169 161.818 111.82 162.078C111.471 162.339 111.297 162.68 111.297 163.102V169H109.828V160.719H111.297V161.523C111.849 160.883 112.667 160.562 113.75 160.562C115.156 160.562 116.047 161.057 116.422 162.047C116.526 162.328 116.578 162.641 116.578 162.984V169H115.109V162.898ZM127.234 169.062C126.078 169.062 125.242 168.88 124.727 168.516C124.216 168.151 123.961 167.523 123.961 166.633V161.828H122.578V160.719H124.016L124.195 158.156H125.43V160.719H127.508V161.828H125.43V166.539C125.43 167.06 125.578 167.406 125.875 167.578C126.177 167.745 126.701 167.828 127.445 167.828H127.609L127.453 169.062H127.234ZM132.195 169.172C131.357 169.172 130.706 168.945 130.242 168.492C129.779 168.034 129.547 167.466 129.547 166.789C129.547 166.404 129.628 166.083 129.789 165.828C130.117 165.307 131.096 164.81 132.727 164.336C133.669 164.076 134.211 163.852 134.352 163.664C134.497 163.477 134.578 163.331 134.594 163.227C134.609 163.117 134.617 162.945 134.617 162.711C134.617 162.477 134.521 162.247 134.328 162.023C134.141 161.799 133.729 161.688 133.094 161.688C132.198 161.688 131.648 161.859 131.445 162.203C131.341 162.38 131.289 162.62 131.289 162.922V163.289H129.875V162.914C129.875 162.107 130.143 161.513 130.68 161.133C131.221 160.753 132.029 160.562 133.102 160.562C134.174 160.562 134.94 160.807 135.398 161.297C135.857 161.781 136.086 162.474 136.086 163.375V166.906C136.086 167.339 136.141 167.62 136.25 167.75C136.359 167.875 136.594 167.938 136.953 167.938L136.781 169.062H136.484C135.964 169.062 135.576 168.964 135.32 168.766C135.065 168.562 134.87 168.25 134.734 167.828C134.302 168.474 133.781 168.88 133.172 169.047C132.88 169.13 132.555 169.172 132.195 169.172ZM132.93 165.344C132.19 165.557 131.677 165.771 131.391 165.984C131.109 166.198 130.969 166.5 130.969 166.891C130.969 167.276 131.099 167.568 131.359 167.766C131.625 167.964 131.943 168.062 132.312 168.062C132.688 168.062 133.026 168.016 133.328 167.922C133.63 167.823 133.901 167.68 134.141 167.492C134.385 167.299 134.544 167.081 134.617 166.836V164.445C134.237 164.826 133.674 165.125 132.93 165.344ZM139.125 169V157.234H140.594V164.906L144.555 160.719H146.164L142.797 164.359L146.5 169H144.805L141.836 165.156L140.594 166.391V169H139.125ZM150.352 169.172C149.513 169.172 148.862 168.945 148.398 168.492C147.935 168.034 147.703 167.466 147.703 166.789C147.703 166.404 147.784 166.083 147.945 165.828C148.273 165.307 149.253 164.81 150.883 164.336C151.826 164.076 152.367 163.852 152.508 163.664C152.654 163.477 152.734 163.331 152.75 163.227C152.766 163.117 152.773 162.945 152.773 162.711C152.773 162.477 152.677 162.247 152.484 162.023C152.297 161.799 151.885 161.688 151.25 161.688C150.354 161.688 149.805 161.859 149.602 162.203C149.497 162.38 149.445 162.62 149.445 162.922V163.289H148.031V162.914C148.031 162.107 148.299 161.513 148.836 161.133C149.378 160.753 150.185 160.562 151.258 160.562C152.331 160.562 153.096 160.807 153.555 161.297C154.013 161.781 154.242 162.474 154.242 163.375V166.906C154.242 167.339 154.297 167.62 154.406 167.75C154.516 167.875 154.75 167.938 155.109 167.938L154.938 169.062H154.641C154.12 169.062 153.732 168.964 153.477 168.766C153.221 168.562 153.026 168.25 152.891 167.828C152.458 168.474 151.938 168.88 151.328 169.047C151.036 169.13 150.711 169.172 150.352 169.172ZM151.086 165.344C150.346 165.557 149.833 165.771 149.547 165.984C149.266 166.198 149.125 166.5 149.125 166.891C149.125 167.276 149.255 167.568 149.516 167.766C149.781 167.964 150.099 168.062 150.469 168.062C150.844 168.062 151.182 168.016 151.484 167.922C151.786 167.823 152.057 167.68 152.297 167.492C152.542 167.299 152.701 167.081 152.773 166.836V164.445C152.393 164.826 151.831 165.125 151.086 165.344ZM159.508 169L156.297 160.719H157.773L160.266 167.438L162.484 160.719H163.922L160.992 169H159.508ZM175.523 160.5C175.523 159.365 174.932 158.797 173.75 158.797C173.135 158.797 172.708 158.854 172.469 158.969C172.229 159.083 172.057 159.221 171.953 159.383C171.734 159.727 171.625 160.263 171.625 160.992H170.125C170.125 160.039 170.286 159.312 170.609 158.812C170.932 158.307 171.352 157.969 171.867 157.797C172.388 157.62 172.997 157.531 173.695 157.531C174.711 157.531 175.513 157.776 176.102 158.266C176.695 158.75 176.992 159.487 176.992 160.477C176.992 161.237 176.849 161.823 176.562 162.234C176.281 162.641 175.82 162.896 175.18 163C175.862 163.141 176.372 163.43 176.711 163.867C177.049 164.305 177.219 165.018 177.219 166.008C177.219 166.997 176.917 167.773 176.312 168.336C175.708 168.893 174.846 169.172 173.727 169.172C172.878 169.172 172.203 169.06 171.703 168.836C171.208 168.612 170.831 168.247 170.57 167.742C170.31 167.237 170.135 166.534 170.047 165.633H171.547C171.609 166.56 171.81 167.174 172.148 167.477C172.336 167.643 172.557 167.758 172.812 167.82C173.068 167.878 173.401 167.906 173.812 167.906C174.474 167.906 174.958 167.737 175.266 167.398C175.573 167.06 175.727 166.495 175.727 165.703C175.727 164.911 175.581 164.388 175.289 164.133C175.003 163.872 174.648 163.719 174.227 163.672C173.81 163.625 173.404 163.602 173.008 163.602V162.438C173.841 162.438 174.404 162.37 174.695 162.234C174.987 162.099 175.198 161.935 175.328 161.742C175.458 161.544 175.523 161.13 175.523 160.5ZM179.453 165.141V163.984H184.922V165.141H179.453ZM188.492 170.773C189.034 170.971 189.698 171.07 190.484 171.07C191.271 171.07 191.82 170.922 192.133 170.625C192.451 170.328 192.609 169.867 192.609 169.242V168.094C192.396 168.292 192.076 168.44 191.648 168.539C191.227 168.638 190.839 168.688 190.484 168.688C188.391 168.688 187.344 167.805 187.344 166.039V163.312C187.344 162.453 187.604 161.781 188.125 161.297C188.651 160.807 189.438 160.562 190.484 160.562C190.901 160.562 191.328 160.651 191.766 160.828C192.208 161 192.49 161.185 192.609 161.383V160.719H194.078V168.805C194.078 169.799 193.815 170.612 193.289 171.242C192.768 171.872 191.924 172.188 190.758 172.188C189.591 172.188 188.727 172.083 188.164 171.875L188.492 170.773ZM192.609 162.828C192.609 162.068 191.977 161.688 190.711 161.688C189.445 161.688 188.812 162.177 188.812 163.156V166.266C188.812 167.13 189.445 167.562 190.711 167.562C191.456 167.562 192.089 167.354 192.609 166.938V162.828ZM196.906 169V160.719H198.375V161.891C198.562 161.38 199.07 161.01 199.898 160.781C200.331 160.656 200.781 160.596 201.25 160.602L201.203 161.859C200.495 161.859 199.846 162 199.258 162.281C198.669 162.562 198.375 162.87 198.375 163.203V169H196.906ZM205.336 169.172C204.497 169.172 203.846 168.945 203.383 168.492C202.919 168.034 202.688 167.466 202.688 166.789C202.688 166.404 202.768 166.083 202.93 165.828C203.258 165.307 204.237 164.81 205.867 164.336C206.81 164.076 207.352 163.852 207.492 163.664C207.638 163.477 207.719 163.331 207.734 163.227C207.75 163.117 207.758 162.945 207.758 162.711C207.758 162.477 207.661 162.247 207.469 162.023C207.281 161.799 206.87 161.688 206.234 161.688C205.339 161.688 204.789 161.859 204.586 162.203C204.482 162.38 204.43 162.62 204.43 162.922V163.289H203.016V162.914C203.016 162.107 203.284 161.513 203.82 161.133C204.362 160.753 205.169 160.562 206.242 160.562C207.315 160.562 208.081 160.807 208.539 161.297C208.997 161.781 209.227 162.474 209.227 163.375V166.906C209.227 167.339 209.281 167.62 209.391 167.75C209.5 167.875 209.734 167.938 210.094 167.938L209.922 169.062H209.625C209.104 169.062 208.716 168.964 208.461 168.766C208.206 168.562 208.01 168.25 207.875 167.828C207.443 168.474 206.922 168.88 206.312 169.047C206.021 169.13 205.695 169.172 205.336 169.172ZM206.07 165.344C205.331 165.557 204.818 165.771 204.531 165.984C204.25 166.198 204.109 166.5 204.109 166.891C204.109 167.276 204.24 167.568 204.5 167.766C204.766 167.964 205.083 168.062 205.453 168.062C205.828 168.062 206.167 168.016 206.469 167.922C206.771 167.823 207.042 167.68 207.281 167.492C207.526 167.299 207.685 167.081 207.758 166.836V164.445C207.378 164.826 206.815 165.125 206.07 165.344ZM217.406 162.898C217.406 162.091 216.81 161.688 215.617 161.688C215.013 161.688 214.547 161.818 214.219 162.078C213.896 162.333 213.734 162.674 213.734 163.102V169H212.266V160.719H213.734V161.523C214.286 160.883 215.115 160.562 216.219 160.562C217.328 160.562 218.102 160.924 218.539 161.648L218.734 161.461C219.333 160.862 220.172 160.562 221.25 160.562C222.641 160.562 223.5 161.057 223.828 162.047C223.922 162.328 223.969 162.641 223.969 162.984V169H222.5V162.898C222.5 162.091 221.958 161.688 220.875 161.688C220.193 161.688 219.688 161.818 219.359 162.078C219.036 162.333 218.875 162.674 218.875 163.102V169H217.406V162.898ZM230.953 169V160.719H232.422V169H230.953ZM230.953 159.227V157.703H232.422V159.227H230.953ZM242.617 160.562C243.284 160.562 243.896 160.667 244.453 160.875V157.234H245.922V169H244.922L244.68 168.453C244.424 168.651 244.089 168.82 243.672 168.961C243.255 169.102 242.844 169.172 242.438 169.172C241.307 169.172 240.477 168.922 239.945 168.422C239.419 167.917 239.156 167.237 239.156 166.383V163.258C239.156 162.398 239.44 161.734 240.008 161.266C240.576 160.797 241.445 160.562 242.617 160.562ZM240.625 166.492C240.625 166.987 240.799 167.365 241.148 167.625C241.503 167.885 241.917 168.016 242.391 168.016C243.234 168.016 243.922 167.852 244.453 167.523V162.031C243.979 161.802 243.404 161.688 242.727 161.688C241.326 161.688 240.625 162.156 240.625 163.094V166.492ZM250 166.664C250 167.586 250.654 168.047 251.961 168.047C253.268 168.047 253.922 167.586 253.922 166.664V163.078C253.922 162.151 253.268 161.688 251.961 161.688C250.654 161.688 250 162.151 250 163.078V166.664ZM255.391 166.539C255.391 167.352 255.112 167.995 254.555 168.469C254.003 168.938 253.135 169.172 251.953 169.172C250.771 169.172 249.904 168.938 249.352 168.469C248.805 168 248.531 167.357 248.531 166.539V163.203C248.531 162.385 248.805 161.742 249.352 161.273C249.904 160.799 250.771 160.562 251.953 160.562C253.135 160.562 254.003 160.799 254.555 161.273C255.112 161.747 255.391 162.391 255.391 163.203V166.539ZM261.164 160.562C261.831 160.562 262.443 160.667 263 160.875V157.234H264.469V169H263.469L263.227 168.453C262.971 168.651 262.635 168.82 262.219 168.961C261.802 169.102 261.391 169.172 260.984 169.172C259.854 169.172 259.023 168.922 258.492 168.422C257.966 167.917 257.703 167.237 257.703 166.383V163.258C257.703 162.398 257.987 161.734 258.555 161.266C259.122 160.797 259.992 160.562 261.164 160.562ZM259.172 166.492C259.172 166.987 259.346 167.365 259.695 167.625C260.049 167.885 260.464 168.016 260.938 168.016C261.781 168.016 262.469 167.852 263 167.523V162.031C262.526 161.802 261.951 161.688 261.273 161.688C259.872 161.688 259.172 162.156 259.172 163.094V166.492ZM269.602 169.172C268.763 169.172 268.112 168.945 267.648 168.492C267.185 168.034 266.953 167.466 266.953 166.789C266.953 166.404 267.034 166.083 267.195 165.828C267.523 165.307 268.503 164.81 270.133 164.336C271.076 164.076 271.617 163.852 271.758 163.664C271.904 163.477 271.984 163.331 272 163.227C272.016 163.117 272.023 162.945 272.023 162.711C272.023 162.477 271.927 162.247 271.734 162.023C271.547 161.799 271.135 161.688 270.5 161.688C269.604 161.688 269.055 161.859 268.852 162.203C268.747 162.38 268.695 162.62 268.695 162.922V163.289H267.281V162.914C267.281 162.107 267.549 161.513 268.086 161.133C268.628 160.753 269.435 160.562 270.508 160.562C271.581 160.562 272.346 160.807 272.805 161.297C273.263 161.781 273.492 162.474 273.492 163.375V166.906C273.492 167.339 273.547 167.62 273.656 167.75C273.766 167.875 274 167.938 274.359 167.938L274.188 169.062H273.891C273.37 169.062 272.982 168.964 272.727 168.766C272.471 168.562 272.276 168.25 272.141 167.828C271.708 168.474 271.188 168.88 270.578 169.047C270.286 169.13 269.961 169.172 269.602 169.172ZM270.336 165.344C269.596 165.557 269.083 165.771 268.797 165.984C268.516 166.198 268.375 166.5 268.375 166.891C268.375 167.276 268.505 167.568 268.766 167.766C269.031 167.964 269.349 168.062 269.719 168.062C270.094 168.062 270.432 168.016 270.734 167.922C271.036 167.823 271.307 167.68 271.547 167.492C271.792 167.299 271.951 167.081 272.023 166.836V164.445C271.643 164.826 271.081 165.125 270.336 165.344ZM275.328 171.758L275.18 170.539H275.406C275.938 170.539 276.292 170.469 276.469 170.328C276.646 170.193 276.76 170.023 276.812 169.82C276.865 169.622 276.891 169.359 276.891 169.031V160.719H278.359V168.945C278.359 170.305 278.047 171.146 277.422 171.469C277.052 171.661 276.526 171.758 275.844 171.758H275.328ZM276.891 159.227V157.703H278.359V159.227H276.891ZM284.383 169.172C283.169 169.172 282.292 168.919 281.75 168.414C281.208 167.909 280.938 167.13 280.938 166.078V163.195C280.938 162.378 281.216 161.734 281.773 161.266C282.331 160.797 283.172 160.562 284.297 160.562C285.427 160.562 286.266 160.781 286.812 161.219C287.365 161.651 287.641 162.271 287.641 163.078V165.047H282.406V166.211C282.406 166.898 282.544 167.378 282.82 167.648C283.096 167.914 283.594 168.047 284.312 168.047C285.031 168.047 285.438 168.031 285.531 168C285.625 167.969 285.721 167.932 285.82 167.891C285.919 167.849 285.987 167.799 286.023 167.742C286.065 167.685 286.117 167.599 286.18 167.484C286.247 167.365 286.297 167.135 286.328 166.797H287.625C287.573 167.292 287.484 167.69 287.359 167.992C287.24 168.294 287.047 168.536 286.781 168.719C286.521 168.896 286.206 169.016 285.836 169.078C285.471 169.141 284.987 169.172 284.383 169.172ZM282.406 164.055H286.219V162.922C286.219 162.453 286.057 162.13 285.734 161.953C285.417 161.776 284.948 161.688 284.328 161.688C283.708 161.688 283.232 161.794 282.898 162.008C282.57 162.221 282.406 162.573 282.406 163.062V164.055ZM295.422 162.898C295.422 162.091 294.826 161.688 293.633 161.688C293.029 161.688 292.562 161.818 292.234 162.078C291.911 162.333 291.75 162.674 291.75 163.102V169H290.281V160.719H291.75V161.523C292.302 160.883 293.13 160.562 294.234 160.562C295.344 160.562 296.117 160.924 296.555 161.648L296.75 161.461C297.349 160.862 298.188 160.562 299.266 160.562C300.656 160.562 301.516 161.057 301.844 162.047C301.938 162.328 301.984 162.641 301.984 162.984V169H300.516V162.898C300.516 162.091 299.974 161.688 298.891 161.688C298.208 161.688 297.703 161.818 297.375 162.078C297.052 162.333 296.891 162.674 296.891 163.102V169H295.422V162.898ZM305.984 166.664C305.984 167.586 306.638 168.047 307.945 168.047C309.253 168.047 309.906 167.586 309.906 166.664V163.078C309.906 162.151 309.253 161.688 307.945 161.688C306.638 161.688 305.984 162.151 305.984 163.078V166.664ZM311.375 166.539C311.375 167.352 311.096 167.995 310.539 168.469C309.987 168.938 309.12 169.172 307.938 169.172C306.755 169.172 305.888 168.938 305.336 168.469C304.789 168 304.516 167.357 304.516 166.539V163.203C304.516 162.385 304.789 161.742 305.336 161.273C305.888 160.799 306.755 160.562 307.938 160.562C309.12 160.562 309.987 160.799 310.539 161.273C311.096 161.747 311.375 162.391 311.375 163.203V166.539ZM318.836 170.773C319.378 170.971 320.042 171.07 320.828 171.07C321.615 171.07 322.164 170.922 322.477 170.625C322.794 170.328 322.953 169.867 322.953 169.242V168.094C322.74 168.292 322.419 168.44 321.992 168.539C321.57 168.638 321.182 168.688 320.828 168.688C318.734 168.688 317.688 167.805 317.688 166.039V163.312C317.688 162.453 317.948 161.781 318.469 161.297C318.995 160.807 319.781 160.562 320.828 160.562C321.245 160.562 321.672 160.651 322.109 160.828C322.552 161 322.833 161.185 322.953 161.383V160.719H324.422V168.805C324.422 169.799 324.159 170.612 323.633 171.242C323.112 171.872 322.268 172.188 321.102 172.188C319.935 172.188 319.07 172.083 318.508 171.875L318.836 170.773ZM322.953 162.828C322.953 162.068 322.32 161.688 321.055 161.688C319.789 161.688 319.156 162.177 319.156 163.156V166.266C319.156 167.13 319.789 167.562 321.055 167.562C321.799 167.562 322.432 167.354 322.953 166.938V162.828ZM329.477 169.172C328.638 169.172 327.987 168.945 327.523 168.492C327.06 168.034 326.828 167.466 326.828 166.789C326.828 166.404 326.909 166.083 327.07 165.828C327.398 165.307 328.378 164.81 330.008 164.336C330.951 164.076 331.492 163.852 331.633 163.664C331.779 163.477 331.859 163.331 331.875 163.227C331.891 163.117 331.898 162.945 331.898 162.711C331.898 162.477 331.802 162.247 331.609 162.023C331.422 161.799 331.01 161.688 330.375 161.688C329.479 161.688 328.93 161.859 328.727 162.203C328.622 162.38 328.57 162.62 328.57 162.922V163.289H327.156V162.914C327.156 162.107 327.424 161.513 327.961 161.133C328.503 160.753 329.31 160.562 330.383 160.562C331.456 160.562 332.221 160.807 332.68 161.297C333.138 161.781 333.367 162.474 333.367 163.375V166.906C333.367 167.339 333.422 167.62 333.531 167.75C333.641 167.875 333.875 167.938 334.234 167.938L334.062 169.062H333.766C333.245 169.062 332.857 168.964 332.602 168.766C332.346 168.562 332.151 168.25 332.016 167.828C331.583 168.474 331.062 168.88 330.453 169.047C330.161 169.13 329.836 169.172 329.477 169.172ZM330.211 165.344C329.471 165.557 328.958 165.771 328.672 165.984C328.391 166.198 328.25 166.5 328.25 166.891C328.25 167.276 328.38 167.568 328.641 167.766C328.906 167.964 329.224 168.062 329.594 168.062C329.969 168.062 330.307 168.016 330.609 167.922C330.911 167.823 331.182 167.68 331.422 167.492C331.667 167.299 331.826 167.081 331.898 166.836V164.445C331.518 164.826 330.956 165.125 330.211 165.344ZM345.688 162.898C345.688 162.091 345.07 161.688 343.836 161.688C343.227 161.688 342.747 161.818 342.398 162.078C342.049 162.339 341.875 162.68 341.875 163.102V169H340.406V160.719H341.875V161.523C342.427 160.883 343.245 160.562 344.328 160.562C345.734 160.562 346.625 161.057 347 162.047C347.104 162.328 347.156 162.641 347.156 162.984V169H345.688V162.898ZM352.211 169.172C351.372 169.172 350.721 168.945 350.258 168.492C349.794 168.034 349.562 167.466 349.562 166.789C349.562 166.404 349.643 166.083 349.805 165.828C350.133 165.307 351.112 164.81 352.742 164.336C353.685 164.076 354.227 163.852 354.367 163.664C354.513 163.477 354.594 163.331 354.609 163.227C354.625 163.117 354.633 162.945 354.633 162.711C354.633 162.477 354.536 162.247 354.344 162.023C354.156 161.799 353.745 161.688 353.109 161.688C352.214 161.688 351.664 161.859 351.461 162.203C351.357 162.38 351.305 162.62 351.305 162.922V163.289H349.891V162.914C349.891 162.107 350.159 161.513 350.695 161.133C351.237 160.753 352.044 160.562 353.117 160.562C354.19 160.562 354.956 160.807 355.414 161.297C355.872 161.781 356.102 162.474 356.102 163.375V166.906C356.102 167.339 356.156 167.62 356.266 167.75C356.375 167.875 356.609 167.938 356.969 167.938L356.797 169.062H356.5C355.979 169.062 355.591 168.964 355.336 168.766C355.081 168.562 354.885 168.25 354.75 167.828C354.318 168.474 353.797 168.88 353.188 169.047C352.896 169.13 352.57 169.172 352.211 169.172ZM352.945 165.344C352.206 165.557 351.693 165.771 351.406 165.984C351.125 166.198 350.984 166.5 350.984 166.891C350.984 167.276 351.115 167.568 351.375 167.766C351.641 167.964 351.958 168.062 352.328 168.062C352.703 168.062 353.042 168.016 353.344 167.922C353.646 167.823 353.917 167.68 354.156 167.492C354.401 167.299 354.56 167.081 354.633 166.836V164.445C354.253 164.826 353.69 165.125 352.945 165.344ZM363.141 169V157.234H364.609V164.906L368.57 160.719H370.18L366.812 164.359L370.516 169H368.82L365.852 165.156L364.609 166.391V169H363.141ZM372.141 169V160.719H373.609V161.891C373.797 161.38 374.305 161.01 375.133 160.781C375.565 160.656 376.016 160.596 376.484 160.602L376.438 161.859C375.729 161.859 375.081 162 374.492 162.281C373.904 162.562 373.609 162.87 373.609 163.203V169H372.141ZM380.57 169.172C379.732 169.172 379.081 168.945 378.617 168.492C378.154 168.034 377.922 167.466 377.922 166.789C377.922 166.404 378.003 166.083 378.164 165.828C378.492 165.307 379.471 164.81 381.102 164.336C382.044 164.076 382.586 163.852 382.727 163.664C382.872 163.477 382.953 163.331 382.969 163.227C382.984 163.117 382.992 162.945 382.992 162.711C382.992 162.477 382.896 162.247 382.703 162.023C382.516 161.799 382.104 161.688 381.469 161.688C380.573 161.688 380.023 161.859 379.82 162.203C379.716 162.38 379.664 162.62 379.664 162.922V163.289H378.25V162.914C378.25 162.107 378.518 161.513 379.055 161.133C379.596 160.753 380.404 160.562 381.477 160.562C382.549 160.562 383.315 160.807 383.773 161.297C384.232 161.781 384.461 162.474 384.461 163.375V166.906C384.461 167.339 384.516 167.62 384.625 167.75C384.734 167.875 384.969 167.938 385.328 167.938L385.156 169.062H384.859C384.339 169.062 383.951 168.964 383.695 168.766C383.44 168.562 383.245 168.25 383.109 167.828C382.677 168.474 382.156 168.88 381.547 169.047C381.255 169.13 380.93 169.172 380.57 169.172ZM381.305 165.344C380.565 165.557 380.052 165.771 379.766 165.984C379.484 166.198 379.344 166.5 379.344 166.891C379.344 167.276 379.474 167.568 379.734 167.766C380 167.964 380.318 168.062 380.688 168.062C381.062 168.062 381.401 168.016 381.703 167.922C382.005 167.823 382.276 167.68 382.516 167.492C382.76 167.299 382.919 167.081 382.992 166.836V164.445C382.612 164.826 382.049 165.125 381.305 165.344ZM386.297 171.758L386.148 170.539H386.375C386.906 170.539 387.26 170.469 387.438 170.328C387.615 170.193 387.729 170.023 387.781 169.82C387.833 169.622 387.859 169.359 387.859 169.031V160.719H389.328V168.945C389.328 170.305 389.016 171.146 388.391 171.469C388.021 171.661 387.495 171.758 386.812 171.758H386.297ZM387.859 159.227V157.703H389.328V159.227H387.859ZM392.75 162.609V160.719H394.75V162.609H392.75ZM392.75 168.227V166.336H394.75V168.227H392.75Z" fill="#C9D1D9"/>
<g filter="url(#filter0_d)">
<ellipse cx="456" cy="49.5" rx="25" ry="15.5" fill="#FF7F50"/>
<ellipse cx="456" cy="49.5" rx="25" ry="15.5" fill="url(#paint0_linear)" fill-opacity="0.75"/>
</g>
<path d="M98.8672 56H96.9727L96.084 53.2168H90.7715L89.873 56H88.0664L92.3047 43.2363H94.6875L98.8672 56ZM95.5859 51.6641L93.4277 44.8379L91.2695 51.6641H95.5859ZM109.121 44.7207H105.342V56H103.584V44.7207H99.8047V43.2363H109.121V44.7207ZM119.785 45.4238C119.31 45.1699 118.822 44.9746 118.32 44.8379C117.819 44.6947 117.272 44.623 116.68 44.623C116.003 44.623 115.4 44.7435 114.873 44.9844C114.346 45.2253 113.9 45.5671 113.535 46.0098C113.177 46.446 112.9 46.9733 112.705 47.5918C112.516 48.2103 112.422 48.8939 112.422 49.6426C112.422 50.4238 112.5 51.1237 112.656 51.7422C112.812 52.3607 113.057 52.8848 113.389 53.3145C113.721 53.7441 114.144 54.0729 114.658 54.3008C115.179 54.5286 115.801 54.6426 116.523 54.6426C116.647 54.6426 116.781 54.6361 116.924 54.623C117.067 54.61 117.21 54.5938 117.354 54.5742C117.497 54.5482 117.633 54.5189 117.764 54.4863C117.9 54.4538 118.021 54.418 118.125 54.3789V50.3164H115.518V48.8809H119.844V55.4043C119.577 55.528 119.294 55.6387 118.994 55.7363C118.701 55.834 118.398 55.9154 118.086 55.9805C117.78 56.0456 117.474 56.0944 117.168 56.127C116.862 56.1595 116.566 56.1758 116.279 56.1758C115.407 56.1758 114.619 56.0391 113.916 55.7656C113.219 55.4922 112.624 55.0885 112.129 54.5547C111.641 54.0143 111.263 53.3438 110.996 52.543C110.736 51.7422 110.605 50.8145 110.605 49.7598C110.605 48.7116 110.752 47.7741 111.045 46.9473C111.338 46.1139 111.748 45.4108 112.275 44.8379C112.809 44.2585 113.447 43.819 114.189 43.5195C114.938 43.2135 115.762 43.0605 116.66 43.0605C117.233 43.0605 117.777 43.1126 118.291 43.2168C118.812 43.3145 119.31 43.474 119.785 43.6953V45.4238ZM142.852 56H140.957L140.068 53.2168H134.756L133.857 56H132.051L136.289 43.2363H138.672L142.852 56ZM139.57 51.6641L137.412 44.8379L135.254 51.6641H139.57ZM153.105 44.7207H149.326V56H147.568V44.7207H143.789V43.2363H153.105V44.7207ZM163.77 45.4238C163.294 45.1699 162.806 44.9746 162.305 44.8379C161.803 44.6947 161.257 44.623 160.664 44.623C159.987 44.623 159.385 44.7435 158.857 44.9844C158.33 45.2253 157.884 45.5671 157.52 46.0098C157.161 46.446 156.885 46.9733 156.689 47.5918C156.501 48.2103 156.406 48.8939 156.406 49.6426C156.406 50.4238 156.484 51.1237 156.641 51.7422C156.797 52.3607 157.041 52.8848 157.373 53.3145C157.705 53.7441 158.128 54.0729 158.643 54.3008C159.163 54.5286 159.785 54.6426 160.508 54.6426C160.632 54.6426 160.765 54.6361 160.908 54.623C161.051 54.61 161.195 54.5938 161.338 54.5742C161.481 54.5482 161.618 54.5189 161.748 54.4863C161.885 54.4538 162.005 54.418 162.109 54.3789V50.3164H159.502V48.8809H163.828V55.4043C163.561 55.528 163.278 55.6387 162.979 55.7363C162.686 55.834 162.383 55.9154 162.07 55.9805C161.764 56.0456 161.458 56.0944 161.152 56.127C160.846 56.1595 160.55 56.1758 160.264 56.1758C159.391 56.1758 158.604 56.0391 157.9 55.7656C157.204 55.4922 156.608 55.0885 156.113 54.5547C155.625 54.0143 155.247 53.3438 154.98 52.543C154.72 51.7422 154.59 50.8145 154.59 49.7598C154.59 48.7116 154.736 47.7741 155.029 46.9473C155.322 46.1139 155.732 45.4108 156.26 44.8379C156.794 44.2585 157.432 43.819 158.174 43.5195C158.923 43.2135 159.746 43.0605 160.645 43.0605C161.217 43.0605 161.761 43.1126 162.275 43.2168C162.796 43.3145 163.294 43.474 163.77 43.6953V45.4238ZM185.654 55.5215C184.632 55.9447 183.561 56.1562 182.441 56.1562C180.638 56.1562 179.251 55.6191 178.281 54.5449C177.318 53.4642 176.836 51.8691 176.836 49.7598C176.836 48.7376 176.969 47.8132 177.236 46.9863C177.503 46.1595 177.884 45.4596 178.379 44.8867C178.874 44.3073 179.473 43.8613 180.176 43.5488C180.879 43.2363 181.667 43.0801 182.539 43.0801C183.132 43.0801 183.682 43.1322 184.189 43.2363C184.697 43.334 185.186 43.487 185.654 43.6953V45.4043C185.192 45.1504 184.714 44.9583 184.219 44.8281C183.724 44.6914 183.184 44.623 182.598 44.623C181.999 44.623 181.455 44.737 180.967 44.9648C180.485 45.1862 180.075 45.5117 179.736 45.9414C179.398 46.3646 179.137 46.8854 178.955 47.5039C178.773 48.1159 178.682 48.8158 178.682 49.6035C178.682 51.2572 179.017 52.5039 179.688 53.3438C180.358 54.1836 181.341 54.6035 182.637 54.6035C183.184 54.6035 183.708 54.5417 184.209 54.418C184.71 54.2878 185.192 54.1087 185.654 53.8809V55.5215ZM197.832 56H195.938L195.049 53.2168H189.736L188.838 56H187.031L191.27 43.2363H193.652L197.832 56ZM194.551 51.6641L192.393 44.8379L190.234 51.6641H194.551ZM208.086 44.7207H204.307V56H202.549V44.7207H198.77V43.2363H208.086V44.7207ZM229.639 55.5215C228.617 55.9447 227.546 56.1562 226.426 56.1562C224.622 56.1562 223.236 55.6191 222.266 54.5449C221.302 53.4642 220.82 51.8691 220.82 49.7598C220.82 48.7376 220.954 47.8132 221.221 46.9863C221.488 46.1595 221.868 45.4596 222.363 44.8867C222.858 44.3073 223.457 43.8613 224.16 43.5488C224.863 43.2363 225.651 43.0801 226.523 43.0801C227.116 43.0801 227.666 43.1322 228.174 43.2363C228.682 43.334 229.17 43.487 229.639 43.6953V45.4043C229.176 45.1504 228.698 44.9583 228.203 44.8281C227.708 44.6914 227.168 44.623 226.582 44.623C225.983 44.623 225.439 44.737 224.951 44.9648C224.469 45.1862 224.059 45.5117 223.721 45.9414C223.382 46.3646 223.122 46.8854 222.939 47.5039C222.757 48.1159 222.666 48.8158 222.666 49.6035C222.666 51.2572 223.001 52.5039 223.672 53.3438C224.342 54.1836 225.326 54.6035 226.621 54.6035C227.168 54.6035 227.692 54.5417 228.193 54.418C228.695 54.2878 229.176 54.1087 229.639 53.8809V55.5215ZM240.635 55.5215C239.613 55.9447 238.542 56.1562 237.422 56.1562C235.618 56.1562 234.232 55.6191 233.262 54.5449C232.298 53.4642 231.816 51.8691 231.816 49.7598C231.816 48.7376 231.95 47.8132 232.217 46.9863C232.484 46.1595 232.865 45.4596 233.359 44.8867C233.854 44.3073 234.453 43.8613 235.156 43.5488C235.859 43.2363 236.647 43.0801 237.52 43.0801C238.112 43.0801 238.662 43.1322 239.17 43.2363C239.678 43.334 240.166 43.487 240.635 43.6953V45.4043C240.173 45.1504 239.694 44.9583 239.199 44.8281C238.704 44.6914 238.164 44.623 237.578 44.623C236.979 44.623 236.436 44.737 235.947 44.9648C235.465 45.1862 235.055 45.5117 234.717 45.9414C234.378 46.3646 234.118 46.8854 233.936 47.5039C233.753 48.1159 233.662 48.8158 233.662 49.6035C233.662 51.2572 233.997 52.5039 234.668 53.3438C235.339 54.1836 236.322 54.6035 237.617 54.6035C238.164 54.6035 238.688 54.5417 239.189 54.418C239.691 54.2878 240.173 54.1087 240.635 53.8809V55.5215ZM252.812 56H250.918L250.029 53.2168H244.717L243.818 56H242.012L246.25 43.2363H248.633L252.812 56ZM249.531 51.6641L247.373 44.8379L245.215 51.6641H249.531ZM273.73 45.4238C273.255 45.1699 272.767 44.9746 272.266 44.8379C271.764 44.6947 271.217 44.623 270.625 44.623C269.948 44.623 269.346 44.7435 268.818 44.9844C268.291 45.2253 267.845 45.5671 267.48 46.0098C267.122 46.446 266.846 46.9733 266.65 47.5918C266.462 48.2103 266.367 48.8939 266.367 49.6426C266.367 50.4238 266.445 51.1237 266.602 51.7422C266.758 52.3607 267.002 52.8848 267.334 53.3145C267.666 53.7441 268.089 54.0729 268.604 54.3008C269.124 54.5286 269.746 54.6426 270.469 54.6426C270.592 54.6426 270.726 54.6361 270.869 54.623C271.012 54.61 271.156 54.5938 271.299 54.5742C271.442 54.5482 271.579 54.5189 271.709 54.4863C271.846 54.4538 271.966 54.418 272.07 54.3789V50.3164H269.463V48.8809H273.789V55.4043C273.522 55.528 273.239 55.6387 272.939 55.7363C272.646 55.834 272.344 55.9154 272.031 55.9805C271.725 56.0456 271.419 56.0944 271.113 56.127C270.807 56.1595 270.511 56.1758 270.225 56.1758C269.352 56.1758 268.564 56.0391 267.861 55.7656C267.165 55.4922 266.569 55.0885 266.074 54.5547C265.586 54.0143 265.208 53.3438 264.941 52.543C264.681 51.7422 264.551 50.8145 264.551 49.7598C264.551 48.7116 264.697 47.7741 264.99 46.9473C265.283 46.1139 265.693 45.4108 266.221 44.8379C266.755 44.2585 267.393 43.819 268.135 43.5195C268.883 43.2135 269.707 43.0605 270.605 43.0605C271.178 43.0605 271.722 43.1126 272.236 43.2168C272.757 43.3145 273.255 43.474 273.73 43.6953V45.4238ZM285.801 56H283.906L283.018 53.2168H277.705L276.807 56H275L279.238 43.2363H281.621L285.801 56ZM282.52 51.6641L280.361 44.8379L278.203 51.6641H282.52ZM296.055 44.7207H292.275V56H290.518V44.7207H286.738V43.2363H296.055V44.7207ZM317.715 45.4238C317.24 45.1699 316.751 44.9746 316.25 44.8379C315.749 44.6947 315.202 44.623 314.609 44.623C313.932 44.623 313.33 44.7435 312.803 44.9844C312.275 45.2253 311.829 45.5671 311.465 46.0098C311.107 46.446 310.83 46.9733 310.635 47.5918C310.446 48.2103 310.352 48.8939 310.352 49.6426C310.352 50.4238 310.43 51.1237 310.586 51.7422C310.742 52.3607 310.986 52.8848 311.318 53.3145C311.65 53.7441 312.074 54.0729 312.588 54.3008C313.109 54.5286 313.73 54.6426 314.453 54.6426C314.577 54.6426 314.71 54.6361 314.854 54.623C314.997 54.61 315.14 54.5938 315.283 54.5742C315.426 54.5482 315.563 54.5189 315.693 54.4863C315.83 54.4538 315.951 54.418 316.055 54.3789V50.3164H313.447V48.8809H317.773V55.4043C317.507 55.528 317.223 55.6387 316.924 55.7363C316.631 55.834 316.328 55.9154 316.016 55.9805C315.71 56.0456 315.404 56.0944 315.098 56.127C314.792 56.1595 314.495 56.1758 314.209 56.1758C313.337 56.1758 312.549 56.0391 311.846 55.7656C311.149 55.4922 310.553 55.0885 310.059 54.5547C309.57 54.0143 309.193 53.3438 308.926 52.543C308.665 51.7422 308.535 50.8145 308.535 49.7598C308.535 48.7116 308.682 47.7741 308.975 46.9473C309.268 46.1139 309.678 45.4108 310.205 44.8379C310.739 44.2585 311.377 43.819 312.119 43.5195C312.868 43.2135 313.691 43.0605 314.59 43.0605C315.163 43.0605 315.706 43.1126 316.221 43.2168C316.742 43.3145 317.24 43.474 317.715 43.6953V45.4238ZM328.604 55.5215C327.581 55.9447 326.51 56.1562 325.391 56.1562C323.587 56.1562 322.201 55.6191 321.23 54.5449C320.267 53.4642 319.785 51.8691 319.785 49.7598C319.785 48.7376 319.919 47.8132 320.186 46.9863C320.452 46.1595 320.833 45.4596 321.328 44.8867C321.823 44.3073 322.422 43.8613 323.125 43.5488C323.828 43.2363 324.616 43.0801 325.488 43.0801C326.081 43.0801 326.631 43.1322 327.139 43.2363C327.646 43.334 328.135 43.487 328.604 43.6953V45.4043C328.141 45.1504 327.663 44.9583 327.168 44.8281C326.673 44.6914 326.133 44.623 325.547 44.623C324.948 44.623 324.404 44.737 323.916 44.9648C323.434 45.1862 323.024 45.5117 322.686 45.9414C322.347 46.3646 322.087 46.8854 321.904 47.5039C321.722 48.1159 321.631 48.8158 321.631 49.6035C321.631 51.2572 321.966 52.5039 322.637 53.3438C323.307 54.1836 324.29 54.6035 325.586 54.6035C326.133 54.6035 326.657 54.5417 327.158 54.418C327.66 54.2878 328.141 54.1087 328.604 53.8809V55.5215ZM339.6 55.5215C338.577 55.9447 337.507 56.1562 336.387 56.1562C334.583 56.1562 333.197 55.6191 332.227 54.5449C331.263 53.4642 330.781 51.8691 330.781 49.7598C330.781 48.7376 330.915 47.8132 331.182 46.9863C331.449 46.1595 331.829 45.4596 332.324 44.8867C332.819 44.3073 333.418 43.8613 334.121 43.5488C334.824 43.2363 335.612 43.0801 336.484 43.0801C337.077 43.0801 337.627 43.1322 338.135 43.2363C338.643 43.334 339.131 43.487 339.6 43.6953V45.4043C339.137 45.1504 338.659 44.9583 338.164 44.8281C337.669 44.6914 337.129 44.623 336.543 44.623C335.944 44.623 335.4 44.737 334.912 44.9648C334.43 45.1862 334.02 45.5117 333.682 45.9414C333.343 46.3646 333.083 46.8854 332.9 47.5039C332.718 48.1159 332.627 48.8158 332.627 49.6035C332.627 51.2572 332.962 52.5039 333.633 53.3438C334.303 54.1836 335.286 54.6035 336.582 54.6035C337.129 54.6035 337.653 54.5417 338.154 54.418C338.656 54.2878 339.137 54.1087 339.6 53.8809V55.5215ZM361.699 45.4238C361.224 45.1699 360.736 44.9746 360.234 44.8379C359.733 44.6947 359.186 44.623 358.594 44.623C357.917 44.623 357.314 44.7435 356.787 44.9844C356.26 45.2253 355.814 45.5671 355.449 46.0098C355.091 46.446 354.814 46.9733 354.619 47.5918C354.43 48.2103 354.336 48.8939 354.336 49.6426C354.336 50.4238 354.414 51.1237 354.57 51.7422C354.727 52.3607 354.971 52.8848 355.303 53.3145C355.635 53.7441 356.058 54.0729 356.572 54.3008C357.093 54.5286 357.715 54.6426 358.438 54.6426C358.561 54.6426 358.695 54.6361 358.838 54.623C358.981 54.61 359.124 54.5938 359.268 54.5742C359.411 54.5482 359.548 54.5189 359.678 54.4863C359.814 54.4538 359.935 54.418 360.039 54.3789V50.3164H357.432V48.8809H361.758V55.4043C361.491 55.528 361.208 55.6387 360.908 55.7363C360.615 55.834 360.312 55.9154 360 55.9805C359.694 56.0456 359.388 56.0944 359.082 56.127C358.776 56.1595 358.48 56.1758 358.193 56.1758C357.321 56.1758 356.533 56.0391 355.83 55.7656C355.133 55.4922 354.538 55.0885 354.043 54.5547C353.555 54.0143 353.177 53.3438 352.91 52.543C352.65 51.7422 352.52 50.8145 352.52 49.7598C352.52 48.7116 352.666 47.7741 352.959 46.9473C353.252 46.1139 353.662 45.4108 354.189 44.8379C354.723 44.2585 355.361 43.819 356.104 43.5195C356.852 43.2135 357.676 43.0605 358.574 43.0605C359.147 43.0605 359.691 43.1126 360.205 43.2168C360.726 43.3145 361.224 43.474 361.699 43.6953V45.4238ZM372.695 45.4238C372.22 45.1699 371.732 44.9746 371.23 44.8379C370.729 44.6947 370.182 44.623 369.59 44.623C368.913 44.623 368.311 44.7435 367.783 44.9844C367.256 45.2253 366.81 45.5671 366.445 46.0098C366.087 46.446 365.811 46.9733 365.615 47.5918C365.426 48.2103 365.332 48.8939 365.332 49.6426C365.332 50.4238 365.41 51.1237 365.566 51.7422C365.723 52.3607 365.967 52.8848 366.299 53.3145C366.631 53.7441 367.054 54.0729 367.568 54.3008C368.089 54.5286 368.711 54.6426 369.434 54.6426C369.557 54.6426 369.691 54.6361 369.834 54.623C369.977 54.61 370.12 54.5938 370.264 54.5742C370.407 54.5482 370.544 54.5189 370.674 54.4863C370.811 54.4538 370.931 54.418 371.035 54.3789V50.3164H368.428V48.8809H372.754V55.4043C372.487 55.528 372.204 55.6387 371.904 55.7363C371.611 55.834 371.309 55.9154 370.996 55.9805C370.69 56.0456 370.384 56.0944 370.078 56.127C369.772 56.1595 369.476 56.1758 369.189 56.1758C368.317 56.1758 367.529 56.0391 366.826 55.7656C366.13 55.4922 365.534 55.0885 365.039 54.5547C364.551 54.0143 364.173 53.3438 363.906 52.543C363.646 51.7422 363.516 50.8145 363.516 49.7598C363.516 48.7116 363.662 47.7741 363.955 46.9473C364.248 46.1139 364.658 45.4108 365.186 44.8379C365.719 44.2585 366.357 43.819 367.1 43.5195C367.848 43.2135 368.672 43.0605 369.57 43.0605C370.143 43.0605 370.687 43.1126 371.201 43.2168C371.722 43.3145 372.22 43.474 372.695 43.6953V45.4238ZM384.766 56H382.871L381.982 53.2168H376.67L375.771 56H373.965L378.203 43.2363H380.586L384.766 56ZM381.484 51.6641L379.326 44.8379L377.168 51.6641H381.484ZM405.684 45.4238C405.208 45.1699 404.72 44.9746 404.219 44.8379C403.717 44.6947 403.171 44.623 402.578 44.623C401.901 44.623 401.299 44.7435 400.771 44.9844C400.244 45.2253 399.798 45.5671 399.434 46.0098C399.076 46.446 398.799 46.9733 398.604 47.5918C398.415 48.2103 398.32 48.8939 398.32 49.6426C398.32 50.4238 398.398 51.1237 398.555 51.7422C398.711 52.3607 398.955 52.8848 399.287 53.3145C399.619 53.7441 400.042 54.0729 400.557 54.3008C401.077 54.5286 401.699 54.6426 402.422 54.6426C402.546 54.6426 402.679 54.6361 402.822 54.623C402.965 54.61 403.109 54.5938 403.252 54.5742C403.395 54.5482 403.532 54.5189 403.662 54.4863C403.799 54.4538 403.919 54.418 404.023 54.3789V50.3164H401.416V48.8809H405.742V55.4043C405.475 55.528 405.192 55.6387 404.893 55.7363C404.6 55.834 404.297 55.9154 403.984 55.9805C403.678 56.0456 403.372 56.0944 403.066 56.127C402.76 56.1595 402.464 56.1758 402.178 56.1758C401.305 56.1758 400.518 56.0391 399.814 55.7656C399.118 55.4922 398.522 55.0885 398.027 54.5547C397.539 54.0143 397.161 53.3438 396.895 52.543C396.634 51.7422 396.504 50.8145 396.504 49.7598C396.504 48.7116 396.65 47.7741 396.943 46.9473C397.236 46.1139 397.646 45.4108 398.174 44.8379C398.708 44.2585 399.346 43.819 400.088 43.5195C400.837 43.2135 401.66 43.0605 402.559 43.0605C403.132 43.0605 403.675 43.1126 404.189 43.2168C404.71 43.3145 405.208 43.474 405.684 43.6953V45.4238ZM416.68 45.4238C416.204 45.1699 415.716 44.9746 415.215 44.8379C414.714 44.6947 414.167 44.623 413.574 44.623C412.897 44.623 412.295 44.7435 411.768 44.9844C411.24 45.2253 410.794 45.5671 410.43 46.0098C410.072 46.446 409.795 46.9733 409.6 47.5918C409.411 48.2103 409.316 48.8939 409.316 49.6426C409.316 50.4238 409.395 51.1237 409.551 51.7422C409.707 52.3607 409.951 52.8848 410.283 53.3145C410.615 53.7441 411.038 54.0729 411.553 54.3008C412.074 54.5286 412.695 54.6426 413.418 54.6426C413.542 54.6426 413.675 54.6361 413.818 54.623C413.962 54.61 414.105 54.5938 414.248 54.5742C414.391 54.5482 414.528 54.5189 414.658 54.4863C414.795 54.4538 414.915 54.418 415.02 54.3789V50.3164H412.412V48.8809H416.738V55.4043C416.471 55.528 416.188 55.6387 415.889 55.7363C415.596 55.834 415.293 55.9154 414.98 55.9805C414.674 56.0456 414.368 56.0944 414.062 56.127C413.757 56.1595 413.46 56.1758 413.174 56.1758C412.301 56.1758 411.514 56.0391 410.811 55.7656C410.114 55.4922 409.518 55.0885 409.023 54.5547C408.535 54.0143 408.158 53.3438 407.891 52.543C407.63 51.7422 407.5 50.8145 407.5 49.7598C407.5 48.7116 407.646 47.7741 407.939 46.9473C408.232 46.1139 408.643 45.4108 409.17 44.8379C409.704 44.2585 410.342 43.819 411.084 43.5195C411.833 43.2135 412.656 43.0605 413.555 43.0605C414.128 43.0605 414.671 43.1126 415.186 43.2168C415.706 43.3145 416.204 43.474 416.68 43.6953V45.4238ZM427.676 45.4238C427.201 45.1699 426.712 44.9746 426.211 44.8379C425.71 44.6947 425.163 44.623 424.57 44.623C423.893 44.623 423.291 44.7435 422.764 44.9844C422.236 45.2253 421.79 45.5671 421.426 46.0098C421.068 46.446 420.791 46.9733 420.596 47.5918C420.407 48.2103 420.312 48.8939 420.312 49.6426C420.312 50.4238 420.391 51.1237 420.547 51.7422C420.703 52.3607 420.947 52.8848 421.279 53.3145C421.611 53.7441 422.035 54.0729 422.549 54.3008C423.07 54.5286 423.691 54.6426 424.414 54.6426C424.538 54.6426 424.671 54.6361 424.814 54.623C424.958 54.61 425.101 54.5938 425.244 54.5742C425.387 54.5482 425.524 54.5189 425.654 54.4863C425.791 54.4538 425.911 54.418 426.016 54.3789V50.3164H423.408V48.8809H427.734V55.4043C427.467 55.528 427.184 55.6387 426.885 55.7363C426.592 55.834 426.289 55.9154 425.977 55.9805C425.671 56.0456 425.365 56.0944 425.059 56.127C424.753 56.1595 424.456 56.1758 424.17 56.1758C423.298 56.1758 422.51 56.0391 421.807 55.7656C421.11 55.4922 420.514 55.0885 420.02 54.5547C419.531 54.0143 419.154 53.3438 418.887 52.543C418.626 51.7422 418.496 50.8145 418.496 49.7598C418.496 48.7116 418.643 47.7741 418.936 46.9473C419.229 46.1139 419.639 45.4108 420.166 44.8379C420.7 44.2585 421.338 43.819 422.08 43.5195C422.829 43.2135 423.652 43.0605 424.551 43.0605C425.124 43.0605 425.667 43.1126 426.182 43.2168C426.702 43.3145 427.201 43.474 427.676 43.6953V45.4238ZM471.992 44.7207H468.213V56H466.455V44.7207H462.676V43.2363H471.992V44.7207ZM537.969 44.7207H534.189V56H532.432V44.7207H528.652V43.2363H537.969V44.7207ZM548.633 45.4238C548.158 45.1699 547.669 44.9746 547.168 44.8379C546.667 44.6947 546.12 44.623 545.527 44.623C544.85 44.623 544.248 44.7435 543.721 44.9844C543.193 45.2253 542.747 45.5671 542.383 46.0098C542.025 46.446 541.748 46.9733 541.553 47.5918C541.364 48.2103 541.27 48.8939 541.27 49.6426C541.27 50.4238 541.348 51.1237 541.504 51.7422C541.66 52.3607 541.904 52.8848 542.236 53.3145C542.568 53.7441 542.992 54.0729 543.506 54.3008C544.027 54.5286 544.648 54.6426 545.371 54.6426C545.495 54.6426 545.628 54.6361 545.771 54.623C545.915 54.61 546.058 54.5938 546.201 54.5742C546.344 54.5482 546.481 54.5189 546.611 54.4863C546.748 54.4538 546.868 54.418 546.973 54.3789V50.3164H544.365V48.8809H548.691V55.4043C548.424 55.528 548.141 55.6387 547.842 55.7363C547.549 55.834 547.246 55.9154 546.934 55.9805C546.628 56.0456 546.322 56.0944 546.016 56.127C545.71 56.1595 545.413 56.1758 545.127 56.1758C544.255 56.1758 543.467 56.0391 542.764 55.7656C542.067 55.4922 541.471 55.0885 540.977 54.5547C540.488 54.0143 540.111 53.3438 539.844 52.543C539.583 51.7422 539.453 50.8145 539.453 49.7598C539.453 48.7116 539.6 47.7741 539.893 46.9473C540.186 46.1139 540.596 45.4108 541.123 44.8379C541.657 44.2585 542.295 43.819 543.037 43.5195C543.786 43.2135 544.609 43.0605 545.508 43.0605C546.081 43.0605 546.624 43.1126 547.139 43.2168C547.66 43.3145 548.158 43.474 548.633 43.6953V45.4238ZM559.521 55.5215C558.499 55.9447 557.428 56.1562 556.309 56.1562C554.505 56.1562 553.118 55.6191 552.148 54.5449C551.185 53.4642 550.703 51.8691 550.703 49.7598C550.703 48.7376 550.837 47.8132 551.104 46.9863C551.37 46.1595 551.751 45.4596 552.246 44.8867C552.741 44.3073 553.34 43.8613 554.043 43.5488C554.746 43.2363 555.534 43.0801 556.406 43.0801C556.999 43.0801 557.549 43.1322 558.057 43.2363C558.564 43.334 559.053 43.487 559.521 43.6953V45.4043C559.059 45.1504 558.581 44.9583 558.086 44.8281C557.591 44.6914 557.051 44.623 556.465 44.623C555.866 44.623 555.322 44.737 554.834 44.9648C554.352 45.1862 553.942 45.5117 553.604 45.9414C553.265 46.3646 553.005 46.8854 552.822 47.5039C552.64 48.1159 552.549 48.8158 552.549 49.6035C552.549 51.2572 552.884 52.5039 553.555 53.3438C554.225 54.1836 555.208 54.6035 556.504 54.6035C557.051 54.6035 557.575 54.5417 558.076 54.418C558.577 54.2878 559.059 54.1087 559.521 53.8809V55.5215ZM581.953 44.7207H578.174V56H576.416V44.7207H572.637V43.2363H581.953V44.7207ZM592.617 45.4238C592.142 45.1699 591.654 44.9746 591.152 44.8379C590.651 44.6947 590.104 44.623 589.512 44.623C588.835 44.623 588.232 44.7435 587.705 44.9844C587.178 45.2253 586.732 45.5671 586.367 46.0098C586.009 46.446 585.732 46.9733 585.537 47.5918C585.348 48.2103 585.254 48.8939 585.254 49.6426C585.254 50.4238 585.332 51.1237 585.488 51.7422C585.645 52.3607 585.889 52.8848 586.221 53.3145C586.553 53.7441 586.976 54.0729 587.49 54.3008C588.011 54.5286 588.633 54.6426 589.355 54.6426C589.479 54.6426 589.613 54.6361 589.756 54.623C589.899 54.61 590.042 54.5938 590.186 54.5742C590.329 54.5482 590.465 54.5189 590.596 54.4863C590.732 54.4538 590.853 54.418 590.957 54.3789V50.3164H588.35V48.8809H592.676V55.4043C592.409 55.528 592.126 55.6387 591.826 55.7363C591.533 55.834 591.23 55.9154 590.918 55.9805C590.612 56.0456 590.306 56.0944 590 56.127C589.694 56.1595 589.398 56.1758 589.111 56.1758C588.239 56.1758 587.451 56.0391 586.748 55.7656C586.051 55.4922 585.456 55.0885 584.961 54.5547C584.473 54.0143 584.095 53.3438 583.828 52.543C583.568 51.7422 583.438 50.8145 583.438 49.7598C583.438 48.7116 583.584 47.7741 583.877 46.9473C584.17 46.1139 584.58 45.4108 585.107 44.8379C585.641 44.2585 586.279 43.819 587.021 43.5195C587.77 43.2135 588.594 43.0605 589.492 43.0605C590.065 43.0605 590.609 43.1126 591.123 43.2168C591.644 43.3145 592.142 43.474 592.617 43.6953V45.4238ZM603.613 45.4238C603.138 45.1699 602.65 44.9746 602.148 44.8379C601.647 44.6947 601.1 44.623 600.508 44.623C599.831 44.623 599.229 44.7435 598.701 44.9844C598.174 45.2253 597.728 45.5671 597.363 46.0098C597.005 46.446 596.729 46.9733 596.533 47.5918C596.344 48.2103 596.25 48.8939 596.25 49.6426C596.25 50.4238 596.328 51.1237 596.484 51.7422C596.641 52.3607 596.885 52.8848 597.217 53.3145C597.549 53.7441 597.972 54.0729 598.486 54.3008C599.007 54.5286 599.629 54.6426 600.352 54.6426C600.475 54.6426 600.609 54.6361 600.752 54.623C600.895 54.61 601.038 54.5938 601.182 54.5742C601.325 54.5482 601.462 54.5189 601.592 54.4863C601.729 54.4538 601.849 54.418 601.953 54.3789V50.3164H599.346V48.8809H603.672V55.4043C603.405 55.528 603.122 55.6387 602.822 55.7363C602.529 55.834 602.227 55.9154 601.914 55.9805C601.608 56.0456 601.302 56.0944 600.996 56.127C600.69 56.1595 600.394 56.1758 600.107 56.1758C599.235 56.1758 598.447 56.0391 597.744 55.7656C597.048 55.4922 596.452 55.0885 595.957 54.5547C595.469 54.0143 595.091 53.3438 594.824 52.543C594.564 51.7422 594.434 50.8145 594.434 49.7598C594.434 48.7116 594.58 47.7741 594.873 46.9473C595.166 46.1139 595.576 45.4108 596.104 44.8379C596.637 44.2585 597.275 43.819 598.018 43.5195C598.766 43.2135 599.59 43.0605 600.488 43.0605C601.061 43.0605 601.605 43.1126 602.119 43.2168C602.64 43.3145 603.138 43.474 603.613 43.6953V45.4238Z" fill="#C9D1D9"/>
<path d="M449.668 45.4238C449.193 45.1699 448.704 44.9746 448.203 44.8379C447.702 44.6947 447.155 44.623 446.562 44.623C445.885 44.623 445.283 44.7435 444.756 44.9844C444.229 45.2253 443.783 45.5671 443.418 46.0098C443.06 46.446 442.783 46.9733 442.588 47.5918C442.399 48.2103 442.305 48.8939 442.305 49.6426C442.305 50.4238 442.383 51.1237 442.539 51.7422C442.695 52.3607 442.939 52.8848 443.271 53.3145C443.604 53.7441 444.027 54.0729 444.541 54.3008C445.062 54.5286 445.684 54.6426 446.406 54.6426C446.53 54.6426 446.663 54.6361 446.807 54.623C446.95 54.61 447.093 54.5938 447.236 54.5742C447.38 54.5482 447.516 54.5189 447.646 54.4863C447.783 54.4538 447.904 54.418 448.008 54.3789V50.3164H445.4V48.8809H449.727V55.4043C449.46 55.528 449.176 55.6387 448.877 55.7363C448.584 55.834 448.281 55.9154 447.969 55.9805C447.663 56.0456 447.357 56.0944 447.051 56.127C446.745 56.1595 446.449 56.1758 446.162 56.1758C445.29 56.1758 444.502 56.0391 443.799 55.7656C443.102 55.4922 442.507 55.0885 442.012 54.5547C441.523 54.0143 441.146 53.3438 440.879 52.543C440.618 51.7422 440.488 50.8145 440.488 49.7598C440.488 48.7116 440.635 47.7741 440.928 46.9473C441.221 46.1139 441.631 45.4108 442.158 44.8379C442.692 44.2585 443.33 43.819 444.072 43.5195C444.821 43.2135 445.645 43.0605 446.543 43.0605C447.116 43.0605 447.66 43.1126 448.174 43.2168C448.695 43.3145 449.193 43.474 449.668 43.6953V45.4238ZM460.996 44.7207H457.217V56H455.459V44.7207H451.68V43.2363H460.996V44.7207Z" fill="black"/>
<path d="M454.452 76C460.257 94.0348 462.782 116.249 448 131.032" stroke="#FF7F50" stroke-linecap="round" stroke-linejoin="round"/>
<path d="M449.518 120.025C449.288 123.548 449.279 127.212 448.401 130.652C447.852 132.801 448.824 131.665 450.551 131.222C454.209 130.282 458.006 130.381 461.747 130.568C462.643 130.613 465.723 130.669 463.181 131.032" stroke="#FF7F50" stroke-linecap="round" stroke-linejoin="round"/>
<path d="M10.1562 227.721H6.37695V239H4.61914V227.721H0.839844V226.236H10.1562V227.721ZM21.8945 239H20L19.1113 236.217H13.7988L12.9004 239H11.0938L15.332 226.236H17.7148L21.8945 239ZM18.6133 234.664L16.4551 227.838L14.2969 234.664H18.6133ZM32.8906 239H30.9961L30.1074 236.217H24.7949L23.8965 239H22.0898L26.3281 226.236H28.7109L32.8906 239ZM29.6094 234.664L27.4512 227.838L25.293 234.664H29.6094ZM21.8945 262H20L19.1113 259.217H13.7988L12.9004 262H11.0938L15.332 249.236H17.7148L21.8945 262ZM18.6133 257.664L16.4551 250.838L14.2969 257.664H18.6133ZM32.8906 262H30.9961L30.1074 259.217H24.7949L23.8965 262H22.0898L26.3281 249.236H28.7109L32.8906 262ZM29.6094 257.664L27.4512 250.838L25.293 257.664H29.6094ZM43.1445 250.721H39.3652V262H37.6074V250.721H33.8281V249.236H43.1445V250.721ZM32.8906 285H30.9961L30.1074 282.217H24.7949L23.8965 285H22.0898L26.3281 272.236H28.7109L32.8906 285ZM29.6094 280.664L27.4512 273.838L25.293 280.664H29.6094ZM43.1445 273.721H39.3652V285H37.6074V273.721H33.8281V272.236H43.1445V273.721ZM53.8086 274.424C53.3333 274.17 52.8451 273.975 52.3438 273.838C51.8424 273.695 51.2956 273.623 50.7031 273.623C50.026 273.623 49.4238 273.743 48.8965 273.984C48.3691 274.225 47.9232 274.567 47.5586 275.01C47.2005 275.446 46.9238 275.973 46.7285 276.592C46.5397 277.21 46.4453 277.894 46.4453 278.643C46.4453 279.424 46.5234 280.124 46.6797 280.742C46.8359 281.361 47.0801 281.885 47.4121 282.314C47.7441 282.744 48.1673 283.073 48.6816 283.301C49.2025 283.529 49.8242 283.643 50.5469 283.643C50.6706 283.643 50.804 283.636 50.9473 283.623C51.0905 283.61 51.2337 283.594 51.377 283.574C51.5202 283.548 51.6569 283.519 51.7871 283.486C51.9238 283.454 52.0443 283.418 52.1484 283.379V279.316H49.541V277.881H53.8672V284.404C53.6003 284.528 53.3171 284.639 53.0176 284.736C52.7246 284.834 52.4219 284.915 52.1094 284.98C51.8034 285.046 51.4974 285.094 51.1914 285.127C50.8854 285.16 50.5892 285.176 50.3027 285.176C49.4303 285.176 48.6426 285.039 47.9395 284.766C47.2428 284.492 46.6471 284.089 46.1523 283.555C45.6641 283.014 45.2865 282.344 45.0195 281.543C44.7591 280.742 44.6289 279.814 44.6289 278.76C44.6289 277.712 44.7754 276.774 45.0684 275.947C45.3613 275.114 45.7715 274.411 46.2988 273.838C46.8327 273.258 47.4707 272.819 48.2129 272.52C48.9616 272.214 49.7852 272.061 50.6836 272.061C51.2565 272.061 51.8001 272.113 52.3145 272.217C52.8353 272.314 53.3333 272.474 53.8086 272.695V274.424ZM43.1445 296.721H39.3652V308H37.6074V296.721H33.8281V295.236H43.1445V296.721ZM53.8086 297.424C53.3333 297.17 52.8451 296.975 52.3438 296.838C51.8424 296.695 51.2956 296.623 50.7031 296.623C50.026 296.623 49.4238 296.743 48.8965 296.984C48.3691 297.225 47.9232 297.567 47.5586 298.01C47.2005 298.446 46.9238 298.973 46.7285 299.592C46.5397 300.21 46.4453 300.894 46.4453 301.643C46.4453 302.424 46.5234 303.124 46.6797 303.742C46.8359 304.361 47.0801 304.885 47.4121 305.314C47.7441 305.744 48.1673 306.073 48.6816 306.301C49.2025 306.529 49.8242 306.643 50.5469 306.643C50.6706 306.643 50.804 306.636 50.9473 306.623C51.0905 306.61 51.2337 306.594 51.377 306.574C51.5202 306.548 51.6569 306.519 51.7871 306.486C51.9238 306.454 52.0443 306.418 52.1484 306.379V302.316H49.541V300.881H53.8672V307.404C53.6003 307.528 53.3171 307.639 53.0176 307.736C52.7246 307.834 52.4219 307.915 52.1094 307.98C51.8034 308.046 51.4974 308.094 51.1914 308.127C50.8854 308.16 50.5892 308.176 50.3027 308.176C49.4303 308.176 48.6426 308.039 47.9395 307.766C47.2428 307.492 46.6471 307.089 46.1523 306.555C45.6641 306.014 45.2865 305.344 45.0195 304.543C44.7591 303.742 44.6289 302.814 44.6289 301.76C44.6289 300.712 44.7754 299.774 45.0684 298.947C45.3613 298.114 45.7715 297.411 46.2988 296.838C46.8327 296.258 47.4707 295.819 48.2129 295.52C48.9616 295.214 49.7852 295.061 50.6836 295.061C51.2565 295.061 51.8001 295.113 52.3145 295.217C52.8353 295.314 53.3333 295.474 53.8086 295.695V297.424ZM65.1367 296.721H61.3574V308H59.5996V296.721H55.8203V295.236H65.1367V296.721ZM53.8086 320.424C53.3333 320.17 52.8451 319.975 52.3438 319.838C51.8424 319.695 51.2956 319.623 50.7031 319.623C50.026 319.623 49.4238 319.743 48.8965 319.984C48.3691 320.225 47.9232 320.567 47.5586 321.01C47.2005 321.446 46.9238 321.973 46.7285 322.592C46.5397 323.21 46.4453 323.894 46.4453 324.643C46.4453 325.424 46.5234 326.124 46.6797 326.742C46.8359 327.361 47.0801 327.885 47.4121 328.314C47.7441 328.744 48.1673 329.073 48.6816 329.301C49.2025 329.529 49.8242 329.643 50.5469 329.643C50.6706 329.643 50.804 329.636 50.9473 329.623C51.0905 329.61 51.2337 329.594 51.377 329.574C51.5202 329.548 51.6569 329.519 51.7871 329.486C51.9238 329.454 52.0443 329.418 52.1484 329.379V325.316H49.541V323.881H53.8672V330.404C53.6003 330.528 53.3171 330.639 53.0176 330.736C52.7246 330.834 52.4219 330.915 52.1094 330.98C51.8034 331.046 51.4974 331.094 51.1914 331.127C50.8854 331.16 50.5892 331.176 50.3027 331.176C49.4303 331.176 48.6426 331.039 47.9395 330.766C47.2428 330.492 46.6471 330.089 46.1523 329.555C45.6641 329.014 45.2865 328.344 45.0195 327.543C44.7591 326.742 44.6289 325.814 44.6289 324.76C44.6289 323.712 44.7754 322.774 45.0684 321.947C45.3613 321.114 45.7715 320.411 46.2988 319.838C46.8327 319.258 47.4707 318.819 48.2129 318.52C48.9616 318.214 49.7852 318.061 50.6836 318.061C51.2565 318.061 51.8001 318.113 52.3145 318.217C52.8353 318.314 53.3333 318.474 53.8086 318.695V320.424ZM65.1367 319.721H61.3574V331H59.5996V319.721H55.8203V318.236H65.1367V319.721ZM76.1328 319.721H72.3535V331H70.5957V319.721H66.8164V318.236H76.1328V319.721Z" fill="#C9D1D9"/>
<defs>
<filter id="filter0_d" x="427" y="34" width="58" height="39" filterUnits="userSpaceOnUse" color-interpolation-filters="sRGB">
<feFlood flood-opacity="0" result="BackgroundImageFix"/>
<feColorMatrix in="SourceAlpha" type="matrix" values="0 0 0 0 0 0 0 0 0 0 0 0 0 0 0 0 0 0 127 0"/>
<feOffset dy="4"/>
<feGaussianBlur stdDeviation="2"/>
<feColorMatrix type="matrix" values="0 0 0 0 0 0 0 0 0 0 0 0 0 0 0 0 0 0 0.25 0"/>
<feBlend mode="normal" in2="BackgroundImageFix" result="effect1_dropShadow"/>
<feBlend mode="normal" in="SourceGraphic" in2="effect1_dropShadow" result="shape"/>
</filter>
<linearGradient id="paint0_linear" x1="456" y1="34" x2="456" y2="65" gradientUnits="userSpaceOnUse">
<stop/>
<stop offset="1" stop-color="white" stop-opacity="0"/>
</linearGradient>
</defs>
</svg>
