<svg width="710" height="338" viewBox="0 0 710 338" fill="none" xmlns="http://www.w3.org/2000/svg">
<path d="M3.91406 19V8.99219H0.65625V7.70312H8.75V8.99219H5.48438V19H3.91406ZM10.8594 19V10.7188H12.3281V11.8906C12.5156 11.3802 13.0234 11.0104 13.8516 10.7812C14.2839 10.6562 14.7344 10.5964 15.2031 10.6016L15.1562 11.8594C14.4479 11.8594 13.7995 12 13.2109 12.2812C12.6224 12.5625 12.3281 12.8698 12.3281 13.2031V19H10.8594ZM19.2891 19.1719C18.4505 19.1719 17.7995 18.9453 17.3359 18.4922C16.8724 18.0339 16.6406 17.4661 16.6406 16.7891C16.6406 16.4036 16.7214 16.0833 16.8828 15.8281C17.2109 15.3073 18.1901 14.8099 19.8203 14.3359C20.763 14.0755 21.3047 13.8516 21.4453 13.6641C21.5911 13.4766 21.6719 13.3307 21.6875 13.2266C21.7031 13.1172 21.7109 12.9453 21.7109 12.7109C21.7109 12.4766 21.6146 12.2474 21.4219 12.0234C21.2344 11.7995 20.8229 11.6875 20.1875 11.6875C19.2917 11.6875 18.7422 11.8594 18.5391 12.2031C18.4349 12.3802 18.3828 12.6198 18.3828 12.9219V13.2891H16.9688V12.9141C16.9688 12.1068 17.237 11.513 17.7734 11.1328C18.3151 10.7526 19.1224 10.5625 20.1953 10.5625C21.2682 10.5625 22.0339 10.8073 22.4922 11.2969C22.9505 11.7812 23.1797 12.474 23.1797 13.375V16.9062C23.1797 17.3385 23.2344 17.6198 23.3438 17.75C23.4531 17.875 23.6875 17.9375 24.0469 17.9375L23.875 19.0625H23.5781C23.0573 19.0625 22.6693 18.9635 22.4141 18.7656C22.1589 18.5625 21.9635 18.25 21.8281 17.8281C21.3958 18.474 20.875 18.8802 20.2656 19.0469C19.974 19.1302 19.6484 19.1719 19.2891 19.1719ZM20.0234 15.3438C19.2839 15.5573 18.7708 15.7708 18.4844 15.9844C18.2031 16.1979 18.0625 16.5 18.0625 16.8906C18.0625 17.276 18.1927 17.5677 18.4531 17.7656C18.7188 17.9635 19.0365 18.0625 19.4062 18.0625C19.7812 18.0625 20.1198 18.0156 20.4219 17.9219C20.724 17.8229 20.9948 17.6797 21.2344 17.4922C21.4792 17.2995 21.638 17.0807 21.7109 16.8359V14.4453C21.3307 14.8255 20.7682 15.125 20.0234 15.3438ZM28.25 9.28906L26.6484 7.21094H27.8594L28.8281 8.57031L29.8594 7.21094H31.1172L29.4219 9.28906H28.25ZM25.8594 19V18.0781L29.8203 11.6875H26V10.7188H31.3672V11.6172L27.3828 18.0312H31.4375V19H25.8594ZM33.9062 19V10.7188H35.375V19H33.9062ZM33.9062 9.22656V7.70312H35.375V9.22656H33.9062ZM43.5469 12.8984C43.5469 12.0911 42.9505 11.6875 41.7578 11.6875C41.1536 11.6875 40.6875 11.8177 40.3594 12.0781C40.0365 12.3333 39.875 12.6745 39.875 13.1016V19H38.4062V10.7188H39.875V11.5234C40.4271 10.8828 41.2552 10.5625 42.3594 10.5625C43.4688 10.5625 44.2422 10.9245 44.6797 11.6484L44.875 11.4609C45.474 10.862 46.3125 10.5625 47.3906 10.5625C48.7812 10.5625 49.6406 11.0573 49.9688 12.0469C50.0625 12.3281 50.1094 12.6406 50.1094 12.9844V19H48.6406V12.8984C48.6406 12.0911 48.099 11.6875 47.0156 11.6875C46.3333 11.6875 45.8281 11.8177 45.5 12.0781C45.1771 12.3333 45.0156 12.6745 45.0156 13.1016V19H43.5469V12.8984ZM54.1094 16.6641C54.1094 17.5859 54.763 18.0469 56.0703 18.0469C57.3776 18.0469 58.0312 17.5859 58.0312 16.6641V13.0781C58.0312 12.151 57.3776 11.6875 56.0703 11.6875C54.763 11.6875 54.1094 12.151 54.1094 13.0781V16.6641ZM59.5 16.5391C59.5 17.3516 59.2214 17.9948 58.6641 18.4688C58.112 18.9375 57.2448 19.1719 56.0625 19.1719C54.8802 19.1719 54.013 18.9375 53.4609 18.4688C52.9141 18 52.6406 17.3568 52.6406 16.5391V13.2031C52.6406 12.3854 52.9141 11.7422 53.4609 11.2734C54.013 10.7995 54.8802 10.5625 56.0625 10.5625C57.2448 10.5625 58.112 10.7995 58.6641 11.2734C59.2214 11.7474 59.5 12.3906 59.5 13.2031V16.5391ZM71.7578 10.5C71.7578 9.36458 71.1667 8.79688 69.9844 8.79688C69.3698 8.79688 68.9427 8.85417 68.7031 8.96875C68.4635 9.08333 68.2917 9.22135 68.1875 9.38281C67.9688 9.72656 67.8594 10.263 67.8594 10.9922H66.3594C66.3594 10.0391 66.5208 9.3125 66.8438 8.8125C67.1667 8.30729 67.5859 7.96875 68.1016 7.79688C68.6224 7.61979 69.2318 7.53125 69.9297 7.53125C70.9453 7.53125 71.7474 7.77604 72.3359 8.26562C72.9297 8.75 73.2266 9.48698 73.2266 10.4766C73.2266 11.237 73.0833 11.8229 72.7969 12.2344C72.5156 12.6406 72.0547 12.8958 71.4141 13C72.0964 13.1406 72.6068 13.4297 72.9453 13.8672C73.2839 14.3047 73.4531 15.0182 73.4531 16.0078C73.4531 16.9974 73.151 17.7734 72.5469 18.3359C71.9427 18.8932 71.0807 19.1719 69.9609 19.1719C69.112 19.1719 68.4375 19.0599 67.9375 18.8359C67.4427 18.612 67.0651 18.2474 66.8047 17.7422C66.5443 17.237 66.3698 16.5339 66.2812 15.6328H67.7812C67.8438 16.5599 68.0443 17.1745 68.3828 17.4766C68.5703 17.6432 68.7917 17.7578 69.0469 17.8203C69.3021 17.8776 69.6354 17.9062 70.0469 17.9062C70.7083 17.9062 71.1927 17.737 71.5 17.3984C71.8073 17.0599 71.9609 16.4948 71.9609 15.7031C71.9609 14.9115 71.8151 14.388 71.5234 14.1328C71.237 13.8724 70.8828 13.7188 70.4609 13.6719C70.0443 13.625 69.638 13.6016 69.2422 13.6016V12.4375C70.0755 12.4375 70.638 12.3698 70.9297 12.2344C71.2214 12.099 71.4323 11.9349 71.5625 11.7422C71.6927 11.5443 71.7578 11.1302 71.7578 10.5ZM75.6875 15.1406V13.9844H81.1562V15.1406H75.6875ZM84.7266 20.7734C85.2682 20.9714 85.9323 21.0703 86.7188 21.0703C87.5052 21.0703 88.0547 20.9219 88.3672 20.625C88.6849 20.3281 88.8438 19.8672 88.8438 19.2422V18.0938C88.6302 18.2917 88.3099 18.4401 87.8828 18.5391C87.4609 18.638 87.0729 18.6875 86.7188 18.6875C84.625 18.6875 83.5781 17.8047 83.5781 16.0391V13.3125C83.5781 12.4531 83.8385 11.7812 84.3594 11.2969C84.8854 10.8073 85.6719 10.5625 86.7188 10.5625C87.1354 10.5625 87.5625 10.651 88 10.8281C88.4427 11 88.724 11.1849 88.8438 11.3828V10.7188H90.3125V18.8047C90.3125 19.7995 90.0495 20.612 89.5234 21.2422C89.0026 21.8724 88.1589 22.1875 86.9922 22.1875C85.8255 22.1875 84.9609 22.0833 84.3984 21.875L84.7266 20.7734ZM88.8438 12.8281C88.8438 12.0677 88.2109 11.6875 86.9453 11.6875C85.6797 11.6875 85.0469 12.1771 85.0469 13.1562V16.2656C85.0469 17.1302 85.6797 17.5625 86.9453 17.5625C87.6901 17.5625 88.3229 17.3542 88.8438 16.9375V12.8281ZM93.1406 19V10.7188H94.6094V11.8906C94.7969 11.3802 95.3047 11.0104 96.1328 10.7812C96.5651 10.6562 97.0156 10.5964 97.4844 10.6016L97.4375 11.8594C96.7292 11.8594 96.0807 12 95.4922 12.2812C94.9036 12.5625 94.6094 12.8698 94.6094 13.2031V19H93.1406ZM101.57 19.1719C100.732 19.1719 100.081 18.9453 99.6172 18.4922C99.1536 18.0339 98.9219 17.4661 98.9219 16.7891C98.9219 16.4036 99.0026 16.0833 99.1641 15.8281C99.4922 15.3073 100.471 14.8099 102.102 14.3359C103.044 14.0755 103.586 13.8516 103.727 13.6641C103.872 13.4766 103.953 13.3307 103.969 13.2266C103.984 13.1172 103.992 12.9453 103.992 12.7109C103.992 12.4766 103.896 12.2474 103.703 12.0234C103.516 11.7995 103.104 11.6875 102.469 11.6875C101.573 11.6875 101.023 11.8594 100.82 12.2031C100.716 12.3802 100.664 12.6198 100.664 12.9219V13.2891H99.25V12.9141C99.25 12.1068 99.5182 11.513 100.055 11.1328C100.596 10.7526 101.404 10.5625 102.477 10.5625C103.549 10.5625 104.315 10.8073 104.773 11.2969C105.232 11.7812 105.461 12.474 105.461 13.375V16.9062C105.461 17.3385 105.516 17.6198 105.625 17.75C105.734 17.875 105.969 17.9375 106.328 17.9375L106.156 19.0625H105.859C105.339 19.0625 104.951 18.9635 104.695 18.7656C104.44 18.5625 104.245 18.25 104.109 17.8281C103.677 18.474 103.156 18.8802 102.547 19.0469C102.255 19.1302 101.93 19.1719 101.57 19.1719ZM102.305 15.3438C101.565 15.5573 101.052 15.7708 100.766 15.9844C100.484 16.1979 100.344 16.5 100.344 16.8906C100.344 17.276 100.474 17.5677 100.734 17.7656C101 17.9635 101.318 18.0625 101.688 18.0625C102.062 18.0625 102.401 18.0156 102.703 17.9219C103.005 17.8229 103.276 17.6797 103.516 17.4922C103.76 17.2995 103.919 17.0807 103.992 16.8359V14.4453C103.612 14.8255 103.049 15.125 102.305 15.3438ZM113.641 12.8984C113.641 12.0911 113.044 11.6875 111.852 11.6875C111.247 11.6875 110.781 11.8177 110.453 12.0781C110.13 12.3333 109.969 12.6745 109.969 13.1016V19H108.5V10.7188H109.969V11.5234C110.521 10.8828 111.349 10.5625 112.453 10.5625C113.562 10.5625 114.336 10.9245 114.773 11.6484L114.969 11.4609C115.568 10.862 116.406 10.5625 117.484 10.5625C118.875 10.5625 119.734 11.0573 120.062 12.0469C120.156 12.3281 120.203 12.6406 120.203 12.9844V19H118.734V12.8984C118.734 12.0911 118.193 11.6875 117.109 11.6875C116.427 11.6875 115.922 11.8177 115.594 12.0781C115.271 12.3333 115.109 12.6745 115.109 13.1016V19H113.641V12.8984ZM127.031 19V7.23438H128.5V14.9062L132.461 10.7188H134.07L130.703 14.3594L134.406 19H132.711L129.742 15.1562L128.5 16.3906V19H127.031ZM137.203 16.6641C137.203 17.5859 137.857 18.0469 139.164 18.0469C140.471 18.0469 141.125 17.5859 141.125 16.6641V13.0781C141.125 12.151 140.471 11.6875 139.164 11.6875C137.857 11.6875 137.203 12.151 137.203 13.0781V16.6641ZM142.594 16.5391C142.594 17.3516 142.315 17.9948 141.758 18.4688C141.206 18.9375 140.339 19.1719 139.156 19.1719C137.974 19.1719 137.107 18.9375 136.555 18.4688C136.008 18 135.734 17.3568 135.734 16.5391V13.2031C135.734 12.3854 136.008 11.7422 136.555 11.2734C137.107 10.7995 137.974 10.5625 139.156 10.5625C140.339 10.5625 141.206 10.7995 141.758 11.2734C142.315 11.7474 142.594 12.3906 142.594 13.2031V16.5391ZM144 21.7578L143.852 20.5391H144.078C144.609 20.5391 144.964 20.4688 145.141 20.3281C145.318 20.1927 145.432 20.0234 145.484 19.8203C145.536 19.6224 145.562 19.3594 145.562 19.0312V10.7188H147.031V18.9453C147.031 20.3047 146.719 21.1458 146.094 21.4688C145.724 21.6615 145.198 21.7578 144.516 21.7578H144ZM145.562 9.22656V7.70312H147.031V9.22656H145.562ZM150.062 19V10.7188H151.531V19H150.062ZM150.062 9.22656V7.70312H151.531V9.22656H150.062ZM158.562 22.1875V10.7188H159.719L159.891 11.3438C160.13 11.1302 160.458 10.9479 160.875 10.7969C161.292 10.6406 161.724 10.5625 162.172 10.5625C163.198 10.5625 163.977 10.8125 164.508 11.3125C165.044 11.8125 165.312 12.4766 165.312 13.3047V16.3125C165.312 17.1667 165.021 17.8568 164.438 18.3828C163.854 18.9089 163.036 19.1719 161.984 19.1719C161.255 19.1719 160.604 19.026 160.031 18.7344V22.1875H158.562ZM160.031 17.6016C160.557 17.8984 161.146 18.0469 161.797 18.0469C162.448 18.0469 162.951 17.9089 163.305 17.6328C163.664 17.3568 163.844 16.9688 163.844 16.4688V13.1875C163.844 12.7083 163.667 12.3385 163.312 12.0781C162.964 11.8177 162.534 11.6875 162.023 11.6875C161.518 11.6875 161.086 11.7917 160.727 12C160.372 12.2083 160.141 12.3958 160.031 12.5625V17.6016ZM169.094 16.6641C169.094 17.5859 169.747 18.0469 171.055 18.0469C172.362 18.0469 173.016 17.5859 173.016 16.6641V13.0781C173.016 12.151 172.362 11.6875 171.055 11.6875C169.747 11.6875 169.094 12.151 169.094 13.0781V16.6641ZM174.484 16.5391C174.484 17.3516 174.206 17.9948 173.648 18.4688C173.096 18.9375 172.229 19.1719 171.047 19.1719C169.865 19.1719 168.997 18.9375 168.445 18.4688C167.898 18 167.625 17.3568 167.625 16.5391V13.2031C167.625 12.3854 167.898 11.7422 168.445 11.2734C168.997 10.7995 169.865 10.5625 171.047 10.5625C172.229 10.5625 173.096 10.7995 173.648 11.2734C174.206 11.7474 174.484 12.3906 174.484 13.2031V16.5391ZM179.461 9.28906L177.859 7.21094H179.07L180.039 8.57031L181.07 7.21094H182.328L180.633 9.28906H179.461ZM180.164 19.1719C178.471 19.1719 177.411 18.5833 176.984 17.4062C176.859 17.0729 176.797 16.7083 176.797 16.3125V13.1562C176.797 12.3698 177.096 11.7422 177.695 11.2734C178.294 10.7995 179.104 10.5625 180.125 10.5625C181.427 10.5625 182.323 10.8438 182.812 11.4062C183.198 11.8438 183.391 12.4896 183.391 13.3438L181.992 13.4766C181.992 12.737 181.859 12.2552 181.594 12.0312C181.333 11.8021 180.867 11.6875 180.195 11.6875C179.523 11.6875 179.034 11.8047 178.727 12.0391C178.419 12.2734 178.266 12.6589 178.266 13.1953V16.4375C178.266 17.0104 178.427 17.4219 178.75 17.6719C179.073 17.9219 179.57 18.0469 180.242 18.0469C180.919 18.0469 181.37 17.9583 181.594 17.7812C181.823 17.6042 181.964 17.2031 182.016 16.5781H183.375C183.292 17.5365 183.016 18.2083 182.547 18.5938C182.078 18.9792 181.284 19.1719 180.164 19.1719ZM185.922 19V10.7188H187.391V19H185.922ZM185.922 9.22656V7.70312H187.391V9.22656H185.922ZM195.703 12.8984C195.703 12.0911 195.086 11.6875 193.852 11.6875C193.242 11.6875 192.763 11.8177 192.414 12.0781C192.065 12.3385 191.891 12.6797 191.891 13.1016V19H190.422V10.7188H191.891V11.5234C192.443 10.8828 193.26 10.5625 194.344 10.5625C195.75 10.5625 196.641 11.0573 197.016 12.0469C197.12 12.3281 197.172 12.6406 197.172 12.9844V19H195.703V12.8984ZM198.797 21.7578L198.648 20.5391H198.875C199.406 20.5391 199.76 20.4688 199.938 20.3281C200.115 20.1927 200.229 20.0234 200.281 19.8203C200.333 19.6224 200.359 19.3594 200.359 19.0312V10.7188H201.828V18.9453C201.828 20.3047 201.516 21.1458 200.891 21.4688C200.521 21.6615 199.995 21.7578 199.312 21.7578H198.797ZM200.359 9.22656V7.70312H201.828V9.22656H200.359ZM207.852 19.1719C206.638 19.1719 205.76 18.9193 205.219 18.4141C204.677 17.9089 204.406 17.1302 204.406 16.0781V13.1953C204.406 12.3776 204.685 11.7344 205.242 11.2656C205.799 10.7969 206.641 10.5625 207.766 10.5625C208.896 10.5625 209.734 10.7812 210.281 11.2188C210.833 11.651 211.109 12.2708 211.109 13.0781V15.0469H205.875V16.2109C205.875 16.8984 206.013 17.3776 206.289 17.6484C206.565 17.9141 207.062 18.0469 207.781 18.0469C208.5 18.0469 208.906 18.0312 209 18C209.094 17.9688 209.19 17.9323 209.289 17.8906C209.388 17.849 209.456 17.7995 209.492 17.7422C209.534 17.6849 209.586 17.599 209.648 17.4844C209.716 17.3646 209.766 17.1354 209.797 16.7969H211.094C211.042 17.2917 210.953 17.6901 210.828 17.9922C210.708 18.2943 210.516 18.5365 210.25 18.7188C209.99 18.8958 209.674 19.0156 209.305 19.0781C208.94 19.1406 208.456 19.1719 207.852 19.1719ZM205.875 14.0547H209.688V12.9219C209.688 12.4531 209.526 12.1302 209.203 11.9531C208.885 11.776 208.417 11.6875 207.797 11.6875C207.177 11.6875 206.701 11.7943 206.367 12.0078C206.039 12.2214 205.875 12.5729 205.875 13.0625V14.0547ZM223.031 12.8984C223.031 12.0911 222.414 11.6875 221.18 11.6875C220.57 11.6875 220.091 11.8177 219.742 12.0781C219.393 12.3385 219.219 12.6797 219.219 13.1016V19H217.75V10.7188H219.219V11.5234C219.771 10.8828 220.589 10.5625 221.672 10.5625C223.078 10.5625 223.969 11.0573 224.344 12.0469C224.448 12.3281 224.5 12.6406 224.5 12.9844V19H223.031V12.8984ZM229.555 19.1719C228.716 19.1719 228.065 18.9453 227.602 18.4922C227.138 18.0339 226.906 17.4661 226.906 16.7891C226.906 16.4036 226.987 16.0833 227.148 15.8281C227.477 15.3073 228.456 14.8099 230.086 14.3359C231.029 14.0755 231.57 13.8516 231.711 13.6641C231.857 13.4766 231.938 13.3307 231.953 13.2266C231.969 13.1172 231.977 12.9453 231.977 12.7109C231.977 12.4766 231.88 12.2474 231.688 12.0234C231.5 11.7995 231.089 11.6875 230.453 11.6875C229.557 11.6875 229.008 11.8594 228.805 12.2031C228.701 12.3802 228.648 12.6198 228.648 12.9219V13.2891H227.234V12.9141C227.234 12.1068 227.503 11.513 228.039 11.1328C228.581 10.7526 229.388 10.5625 230.461 10.5625C231.534 10.5625 232.299 10.8073 232.758 11.2969C233.216 11.7812 233.445 12.474 233.445 13.375V16.9062C233.445 17.3385 233.5 17.6198 233.609 17.75C233.719 17.875 233.953 17.9375 234.312 17.9375L234.141 19.0625H233.844C233.323 19.0625 232.935 18.9635 232.68 18.7656C232.424 18.5625 232.229 18.25 232.094 17.8281C231.661 18.474 231.141 18.8802 230.531 19.0469C230.24 19.1302 229.914 19.1719 229.555 19.1719ZM230.289 15.3438C229.549 15.5573 229.036 15.7708 228.75 15.9844C228.469 16.1979 228.328 16.5 228.328 16.8906C228.328 17.276 228.458 17.5677 228.719 17.7656C228.984 17.9635 229.302 18.0625 229.672 18.0625C230.047 18.0625 230.385 18.0156 230.688 17.9219C230.99 17.8229 231.26 17.6797 231.5 17.4922C231.745 17.2995 231.904 17.0807 231.977 16.8359V14.4453C231.596 14.8255 231.034 15.125 230.289 15.3438ZM242.945 19V8.99219H239.688V7.70312H247.781V8.99219H244.516V19H242.945ZM252.352 19V8.99219H249.094V7.70312H257.188V8.99219H253.922V19H252.352ZM262.094 21.7578L261.945 20.5391H262.172C262.703 20.5391 263.057 20.4688 263.234 20.3281C263.411 20.1927 263.526 20.0234 263.578 19.8203C263.63 19.6224 263.656 19.3594 263.656 19.0312V10.7188H265.125V18.9453C265.125 20.3047 264.812 21.1458 264.188 21.4688C263.818 21.6615 263.292 21.7578 262.609 21.7578H262.094ZM263.656 9.22656V7.70312H265.125V9.22656H263.656ZM271.148 19.1719C269.935 19.1719 269.057 18.9193 268.516 18.4141C267.974 17.9089 267.703 17.1302 267.703 16.0781V13.1953C267.703 12.3776 267.982 11.7344 268.539 11.2656C269.096 10.7969 269.938 10.5625 271.062 10.5625C272.193 10.5625 273.031 10.7812 273.578 11.2188C274.13 11.651 274.406 12.2708 274.406 13.0781V15.0469H269.172V16.2109C269.172 16.8984 269.31 17.3776 269.586 17.6484C269.862 17.9141 270.359 18.0469 271.078 18.0469C271.797 18.0469 272.203 18.0312 272.297 18C272.391 17.9688 272.487 17.9323 272.586 17.8906C272.685 17.849 272.753 17.7995 272.789 17.7422C272.831 17.6849 272.883 17.599 272.945 17.4844C273.013 17.3646 273.062 17.1354 273.094 16.7969H274.391C274.339 17.2917 274.25 17.6901 274.125 17.9922C274.005 18.2943 273.812 18.5365 273.547 18.7188C273.286 18.8958 272.971 19.0156 272.602 19.0781C272.237 19.1406 271.753 19.1719 271.148 19.1719ZM269.172 14.0547H272.984V12.9219C272.984 12.4531 272.823 12.1302 272.5 11.9531C272.182 11.776 271.714 11.6875 271.094 11.6875C270.474 11.6875 269.997 11.7943 269.664 12.0078C269.336 12.2214 269.172 12.5729 269.172 13.0625V14.0547ZM277.047 19V10.7188H278.516V11.8906C278.703 11.3802 279.211 11.0104 280.039 10.7812C280.471 10.6562 280.922 10.5964 281.391 10.6016L281.344 11.8594C280.635 11.8594 279.987 12 279.398 12.2812C278.81 12.5625 278.516 12.8698 278.516 13.2031V19H277.047ZM289.727 18.0469C290.836 18.0469 291.391 17.6328 291.391 16.8047C291.391 16.4453 291.341 16.1797 291.242 16.0078C291.143 15.8307 290.911 15.6745 290.547 15.5391L288.578 14.8125C287.974 14.599 287.552 14.3464 287.312 14.0547C287.078 13.7578 286.961 13.388 286.961 12.9453C286.961 12.5026 287.005 12.1484 287.094 11.8828C287.182 11.612 287.328 11.375 287.531 11.1719C287.938 10.7656 288.667 10.5625 289.719 10.5625C290.771 10.5625 291.677 10.7135 292.438 11.0156L292.102 12.1406C291.836 12.0312 291.487 11.9297 291.055 11.8359C290.622 11.737 290.245 11.6875 289.922 11.6875C289.177 11.6875 288.706 11.8073 288.508 12.0469C288.388 12.1979 288.328 12.4193 288.328 12.7109C288.328 13.0026 288.375 13.2109 288.469 13.3359C288.568 13.4557 288.758 13.5651 289.039 13.6641L290.984 14.4297C291.661 14.6953 292.107 14.9896 292.32 15.3125C292.534 15.6302 292.641 16.1328 292.641 16.8203C292.641 17.5078 292.419 18.0729 291.977 18.5156C291.534 18.9531 290.849 19.1719 289.922 19.1719C289.245 19.1719 288.643 19.099 288.117 18.9531C287.591 18.8073 287.188 18.6562 286.906 18.5L287.266 17.4219C288.01 17.8385 288.831 18.0469 289.727 18.0469ZM298.148 19.1719C296.935 19.1719 296.057 18.9193 295.516 18.4141C294.974 17.9089 294.703 17.1302 294.703 16.0781V13.1953C294.703 12.3776 294.982 11.7344 295.539 11.2656C296.096 10.7969 296.938 10.5625 298.062 10.5625C299.193 10.5625 300.031 10.7812 300.578 11.2188C301.13 11.651 301.406 12.2708 301.406 13.0781V15.0469H296.172V16.2109C296.172 16.8984 296.31 17.3776 296.586 17.6484C296.862 17.9141 297.359 18.0469 298.078 18.0469C298.797 18.0469 299.203 18.0312 299.297 18C299.391 17.9688 299.487 17.9323 299.586 17.8906C299.685 17.849 299.753 17.7995 299.789 17.7422C299.831 17.6849 299.883 17.599 299.945 17.4844C300.013 17.3646 300.062 17.1354 300.094 16.7969H301.391C301.339 17.2917 301.25 17.6901 301.125 17.9922C301.005 18.2943 300.812 18.5365 300.547 18.7188C300.286 18.8958 299.971 19.0156 299.602 19.0781C299.237 19.1406 298.753 19.1719 298.148 19.1719ZM296.172 14.0547H299.984V12.9219C299.984 12.4531 299.823 12.1302 299.5 11.9531C299.182 11.776 298.714 11.6875 298.094 11.6875C297.474 11.6875 296.997 11.7943 296.664 12.0078C296.336 12.2214 296.172 12.5729 296.172 13.0625V14.0547ZM312.75 19.1719C310.646 19.1719 309.268 18.651 308.617 17.6094C308.237 17 308.047 16.1979 308.047 15.2031V11.6562C308.047 10.0469 308.516 8.92448 309.453 8.28906C310.198 7.78385 311.245 7.53125 312.594 7.53125C313.943 7.53125 314.93 7.6849 315.555 7.99219C316.185 8.29427 316.599 8.70052 316.797 9.21094C316.995 9.71615 317.094 10.3333 317.094 11.0625L315.656 11.1797C315.656 10.4453 315.583 9.95573 315.438 9.71094C315.297 9.46094 315.159 9.28385 315.023 9.17969C314.893 9.07552 314.669 8.98698 314.352 8.91406C314.039 8.83594 313.562 8.79688 312.922 8.79688C312.286 8.79688 311.786 8.83854 311.422 8.92188C311.057 9 310.734 9.13542 310.453 9.32812C309.901 9.70833 309.625 10.388 309.625 11.3672V15.4453C309.625 16.4245 309.888 17.0807 310.414 17.4141C310.94 17.7422 311.714 17.9062 312.734 17.9062C313.76 17.9062 314.5 17.7448 314.953 17.4219C315.411 17.0938 315.641 16.4349 315.641 15.4453V14.4062H312.961V13.2578H317.219V19H316.359L316.164 17.0781C316.065 17.7292 315.737 18.2422 315.18 18.6172C314.628 18.987 313.818 19.1719 312.75 19.1719ZM322.664 19V8.99219H319.406V7.70312H327.5V8.99219H324.234V19H322.664ZM332.07 19V8.99219H328.812V7.70312H336.906V8.99219H333.641V19H332.07ZM342.656 19V18.0781L346.617 11.6875H342.797V10.7188H348.164V11.6172L344.18 18.0312H348.234V19H342.656ZM352.773 19.1719C351.935 19.1719 351.284 18.9453 350.82 18.4922C350.357 18.0339 350.125 17.4661 350.125 16.7891C350.125 16.4036 350.206 16.0833 350.367 15.8281C350.695 15.3073 351.674 14.8099 353.305 14.3359C354.247 14.0755 354.789 13.8516 354.93 13.6641C355.076 13.4766 355.156 13.3307 355.172 13.2266C355.188 13.1172 355.195 12.9453 355.195 12.7109C355.195 12.4766 355.099 12.2474 354.906 12.0234C354.719 11.7995 354.307 11.6875 353.672 11.6875C352.776 11.6875 352.227 11.8594 352.023 12.2031C351.919 12.3802 351.867 12.6198 351.867 12.9219V13.2891H350.453V12.9141C350.453 12.1068 350.721 11.513 351.258 11.1328C351.799 10.7526 352.607 10.5625 353.68 10.5625C354.753 10.5625 355.518 10.8073 355.977 11.2969C356.435 11.7812 356.664 12.474 356.664 13.375V16.9062C356.664 17.3385 356.719 17.6198 356.828 17.75C356.938 17.875 357.172 17.9375 357.531 17.9375L357.359 19.0625H357.062C356.542 19.0625 356.154 18.9635 355.898 18.7656C355.643 18.5625 355.448 18.25 355.312 17.8281C354.88 18.474 354.359 18.8802 353.75 19.0469C353.458 19.1302 353.133 19.1719 352.773 19.1719ZM353.508 15.3438C352.768 15.5573 352.255 15.7708 351.969 15.9844C351.688 16.1979 351.547 16.5 351.547 16.8906C351.547 17.276 351.677 17.5677 351.938 17.7656C352.203 17.9635 352.521 18.0625 352.891 18.0625C353.266 18.0625 353.604 18.0156 353.906 17.9219C354.208 17.8229 354.479 17.6797 354.719 17.4922C354.964 17.2995 355.122 17.0807 355.195 16.8359V14.4453C354.815 14.8255 354.253 15.125 353.508 15.3438ZM361.93 19L358.719 10.7188H360.195L362.688 17.4375L364.906 10.7188H366.344L363.414 19H361.93ZM368.297 19V10.7188H369.766V11.8906C369.953 11.3802 370.461 11.0104 371.289 10.7812C371.721 10.6562 372.172 10.5964 372.641 10.6016L372.594 11.8594C371.885 11.8594 371.237 12 370.648 12.2812C370.06 12.5625 369.766 12.8698 369.766 13.2031V19H368.297ZM376.391 9.28906L374.789 7.21094H376L376.969 8.57031L378 7.21094H379.258L377.562 9.28906H376.391ZM376.977 18.0469C378.086 18.0469 378.641 17.6328 378.641 16.8047C378.641 16.4453 378.591 16.1797 378.492 16.0078C378.393 15.8307 378.161 15.6745 377.797 15.5391L375.828 14.8125C375.224 14.599 374.802 14.3464 374.562 14.0547C374.328 13.7578 374.211 13.388 374.211 12.9453C374.211 12.5026 374.255 12.1484 374.344 11.8828C374.432 11.612 374.578 11.375 374.781 11.1719C375.188 10.7656 375.917 10.5625 376.969 10.5625C378.021 10.5625 378.927 10.7135 379.688 11.0156L379.352 12.1406C379.086 12.0312 378.737 11.9297 378.305 11.8359C377.872 11.737 377.495 11.6875 377.172 11.6875C376.427 11.6875 375.956 11.8073 375.758 12.0469C375.638 12.1979 375.578 12.4193 375.578 12.7109C375.578 13.0026 375.625 13.2109 375.719 13.3359C375.818 13.4557 376.008 13.5651 376.289 13.6641L378.234 14.4297C378.911 14.6953 379.357 14.9896 379.57 15.3125C379.784 15.6302 379.891 16.1328 379.891 16.8203C379.891 17.5078 379.669 18.0729 379.227 18.5156C378.784 18.9531 378.099 19.1719 377.172 19.1719C376.495 19.1719 375.893 19.099 375.367 18.9531C374.841 18.8073 374.438 18.6562 374.156 18.5L374.516 17.4219C375.26 17.8385 376.081 18.0469 376.977 18.0469ZM384.477 19.1719C383.638 19.1719 382.987 18.9453 382.523 18.4922C382.06 18.0339 381.828 17.4661 381.828 16.7891C381.828 16.4036 381.909 16.0833 382.07 15.8281C382.398 15.3073 383.378 14.8099 385.008 14.3359C385.951 14.0755 386.492 13.8516 386.633 13.6641C386.779 13.4766 386.859 13.3307 386.875 13.2266C386.891 13.1172 386.898 12.9453 386.898 12.7109C386.898 12.4766 386.802 12.2474 386.609 12.0234C386.422 11.7995 386.01 11.6875 385.375 11.6875C384.479 11.6875 383.93 11.8594 383.727 12.2031C383.622 12.3802 383.57 12.6198 383.57 12.9219V13.2891H382.156V12.9141C382.156 12.1068 382.424 11.513 382.961 11.1328C383.503 10.7526 384.31 10.5625 385.383 10.5625C386.456 10.5625 387.221 10.8073 387.68 11.2969C388.138 11.7812 388.367 12.474 388.367 13.375V16.9062C388.367 17.3385 388.422 17.6198 388.531 17.75C388.641 17.875 388.875 17.9375 389.234 17.9375L389.062 19.0625H388.766C388.245 19.0625 387.857 18.9635 387.602 18.7656C387.346 18.5625 387.151 18.25 387.016 17.8281C386.583 18.474 386.062 18.8802 385.453 19.0469C385.161 19.1302 384.836 19.1719 384.477 19.1719ZM385.211 15.3438C384.471 15.5573 383.958 15.7708 383.672 15.9844C383.391 16.1979 383.25 16.5 383.25 16.8906C383.25 17.276 383.38 17.5677 383.641 17.7656C383.906 17.9635 384.224 18.0625 384.594 18.0625C384.969 18.0625 385.307 18.0156 385.609 17.9219C385.911 17.8229 386.182 17.6797 386.422 17.4922C386.667 17.2995 386.826 17.0807 386.898 16.8359V14.4453C386.518 14.8255 385.956 15.125 385.211 15.3438ZM393.633 19L390.422 10.7188H391.898L394.391 17.4375L396.609 10.7188H398.047L395.117 19H393.633ZM402.227 19.1719C401.388 19.1719 400.737 18.9453 400.273 18.4922C399.81 18.0339 399.578 17.4661 399.578 16.7891C399.578 16.4036 399.659 16.0833 399.82 15.8281C400.148 15.3073 401.128 14.8099 402.758 14.3359C403.701 14.0755 404.242 13.8516 404.383 13.6641C404.529 13.4766 404.609 13.3307 404.625 13.2266C404.641 13.1172 404.648 12.9453 404.648 12.7109C404.648 12.4766 404.552 12.2474 404.359 12.0234C404.172 11.7995 403.76 11.6875 403.125 11.6875C402.229 11.6875 401.68 11.8594 401.477 12.2031C401.372 12.3802 401.32 12.6198 401.32 12.9219V13.2891H399.906V12.9141C399.906 12.1068 400.174 11.513 400.711 11.1328C401.253 10.7526 402.06 10.5625 403.133 10.5625C404.206 10.5625 404.971 10.8073 405.43 11.2969C405.888 11.7812 406.117 12.474 406.117 13.375V16.9062C406.117 17.3385 406.172 17.6198 406.281 17.75C406.391 17.875 406.625 17.9375 406.984 17.9375L406.812 19.0625H406.516C405.995 19.0625 405.607 18.9635 405.352 18.7656C405.096 18.5625 404.901 18.25 404.766 17.8281C404.333 18.474 403.812 18.8802 403.203 19.0469C402.911 19.1302 402.586 19.1719 402.227 19.1719ZM402.961 15.3438C402.221 15.5573 401.708 15.7708 401.422 15.9844C401.141 16.1979 401 16.5 401 16.8906C401 17.276 401.13 17.5677 401.391 17.7656C401.656 17.9635 401.974 18.0625 402.344 18.0625C402.719 18.0625 403.057 18.0156 403.359 17.9219C403.661 17.8229 403.932 17.6797 404.172 17.4922C404.417 17.2995 404.576 17.0807 404.648 16.8359V14.4453C404.268 14.8255 403.706 15.125 402.961 15.3438ZM418.438 12.8984C418.438 12.0911 417.82 11.6875 416.586 11.6875C415.977 11.6875 415.497 11.8177 415.148 12.0781C414.799 12.3385 414.625 12.6797 414.625 13.1016V19H413.156V10.7188H414.625V11.5234C415.177 10.8828 415.995 10.5625 417.078 10.5625C418.484 10.5625 419.375 11.0573 419.75 12.0469C419.854 12.3281 419.906 12.6406 419.906 12.9844V19H418.438V12.8984ZM424.961 19.1719C424.122 19.1719 423.471 18.9453 423.008 18.4922C422.544 18.0339 422.312 17.4661 422.312 16.7891C422.312 16.4036 422.393 16.0833 422.555 15.8281C422.883 15.3073 423.862 14.8099 425.492 14.3359C426.435 14.0755 426.977 13.8516 427.117 13.6641C427.263 13.4766 427.344 13.3307 427.359 13.2266C427.375 13.1172 427.383 12.9453 427.383 12.7109C427.383 12.4766 427.286 12.2474 427.094 12.0234C426.906 11.7995 426.495 11.6875 425.859 11.6875C424.964 11.6875 424.414 11.8594 424.211 12.2031C424.107 12.3802 424.055 12.6198 424.055 12.9219V13.2891H422.641V12.9141C422.641 12.1068 422.909 11.513 423.445 11.1328C423.987 10.7526 424.794 10.5625 425.867 10.5625C426.94 10.5625 427.706 10.8073 428.164 11.2969C428.622 11.7812 428.852 12.474 428.852 13.375V16.9062C428.852 17.3385 428.906 17.6198 429.016 17.75C429.125 17.875 429.359 17.9375 429.719 17.9375L429.547 19.0625H429.25C428.729 19.0625 428.341 18.9635 428.086 18.7656C427.831 18.5625 427.635 18.25 427.5 17.8281C427.068 18.474 426.547 18.8802 425.938 19.0469C425.646 19.1302 425.32 19.1719 424.961 19.1719ZM425.695 15.3438C424.956 15.5573 424.443 15.7708 424.156 15.9844C423.875 16.1979 423.734 16.5 423.734 16.8906C423.734 17.276 423.865 17.5677 424.125 17.7656C424.391 17.9635 424.708 18.0625 425.078 18.0625C425.453 18.0625 425.792 18.0156 426.094 17.9219C426.396 17.8229 426.667 17.6797 426.906 17.4922C427.151 17.2995 427.31 17.0807 427.383 16.8359V14.4453C427.003 14.8255 426.44 15.125 425.695 15.3438ZM438.352 19V8.99219H435.094V7.70312H443.188V8.99219H439.922V19H438.352ZM447.758 19V8.99219H444.5V7.70312H452.594V8.99219H449.328V19H447.758ZM455.25 12.6094V10.7188H457.25V12.6094H455.25ZM455.25 18.2266V16.3359H457.25V18.2266H455.25Z" fill="#C9D1D9"/>
<path d="M1.70312 169V157.703H2.89844L9.36719 166.734V157.703H10.75V169H9.35156L3.08594 160.375V169H1.70312ZM17.0547 169.172C15.8411 169.172 14.9635 168.919 14.4219 168.414C13.8802 167.909 13.6094 167.13 13.6094 166.078V163.195C13.6094 162.378 13.888 161.734 14.4453 161.266C15.0026 160.797 15.8438 160.562 16.9688 160.562C18.099 160.562 18.9375 160.781 19.4844 161.219C20.0365 161.651 20.3125 162.271 20.3125 163.078V165.047H15.0781V166.211C15.0781 166.898 15.2161 167.378 15.4922 167.648C15.7682 167.914 16.2656 168.047 16.9844 168.047C17.7031 168.047 18.1094 168.031 18.2031 168C18.2969 167.969 18.3932 167.932 18.4922 167.891C18.5911 167.849 18.6589 167.799 18.6953 167.742C18.737 167.685 18.7891 167.599 18.8516 167.484C18.9193 167.365 18.9688 167.135 19 166.797H20.2969C20.2448 167.292 20.1562 167.69 20.0312 167.992C19.9115 168.294 19.7188 168.536 19.4531 168.719C19.1927 168.896 18.8776 169.016 18.5078 169.078C18.1432 169.141 17.6589 169.172 17.0547 169.172ZM15.0781 164.055H18.8906V162.922C18.8906 162.453 18.7292 162.13 18.4062 161.953C18.0885 161.776 17.6198 161.688 17 161.688C16.3802 161.688 15.9036 161.794 15.5703 162.008C15.2422 162.221 15.0781 162.573 15.0781 163.062V164.055ZM26.9531 172.188V160.719H28.1094L28.2812 161.344C28.5208 161.13 28.849 160.948 29.2656 160.797C29.6823 160.641 30.1146 160.562 30.5625 160.562C31.5885 160.562 32.3672 160.812 32.8984 161.312C33.4349 161.812 33.7031 162.477 33.7031 163.305V166.312C33.7031 167.167 33.4115 167.857 32.8281 168.383C32.2448 168.909 31.4271 169.172 30.375 169.172C29.6458 169.172 28.9948 169.026 28.4219 168.734V172.188H26.9531ZM28.4219 167.602C28.9479 167.898 29.5365 168.047 30.1875 168.047C30.8385 168.047 31.3411 167.909 31.6953 167.633C32.0547 167.357 32.2344 166.969 32.2344 166.469V163.188C32.2344 162.708 32.0573 162.339 31.7031 162.078C31.3542 161.818 30.9245 161.688 30.4141 161.688C29.9089 161.688 29.4766 161.792 29.1172 162C28.763 162.208 28.5312 162.396 28.4219 162.562V167.602ZM37.4844 166.664C37.4844 167.586 38.138 168.047 39.4453 168.047C40.7526 168.047 41.4062 167.586 41.4062 166.664V163.078C41.4062 162.151 40.7526 161.688 39.4453 161.688C38.138 161.688 37.4844 162.151 37.4844 163.078V166.664ZM42.875 166.539C42.875 167.352 42.5964 167.995 42.0391 168.469C41.487 168.938 40.6198 169.172 39.4375 169.172C38.2552 169.172 37.388 168.938 36.8359 168.469C36.2891 168 36.0156 167.357 36.0156 166.539V163.203C36.0156 162.385 36.2891 161.742 36.8359 161.273C37.388 160.799 38.2552 160.562 39.4375 160.562C40.6198 160.562 41.487 160.799 42.0391 161.273C42.5964 161.747 42.875 162.391 42.875 163.203V166.539ZM47.9609 168.047C49.0703 168.047 49.625 167.633 49.625 166.805C49.625 166.445 49.5755 166.18 49.4766 166.008C49.3776 165.831 49.1458 165.674 48.7812 165.539L46.8125 164.812C46.2083 164.599 45.7865 164.346 45.5469 164.055C45.3125 163.758 45.1953 163.388 45.1953 162.945C45.1953 162.503 45.2396 162.148 45.3281 161.883C45.4167 161.612 45.5625 161.375 45.7656 161.172C46.1719 160.766 46.901 160.562 47.9531 160.562C49.0052 160.562 49.9115 160.714 50.6719 161.016L50.3359 162.141C50.0703 162.031 49.7214 161.93 49.2891 161.836C48.8568 161.737 48.4792 161.688 48.1562 161.688C47.4115 161.688 46.9401 161.807 46.7422 162.047C46.6224 162.198 46.5625 162.419 46.5625 162.711C46.5625 163.003 46.6094 163.211 46.7031 163.336C46.8021 163.456 46.9922 163.565 47.2734 163.664L49.2188 164.43C49.8958 164.695 50.3411 164.99 50.5547 165.312C50.7682 165.63 50.875 166.133 50.875 166.82C50.875 167.508 50.6536 168.073 50.2109 168.516C49.7682 168.953 49.0833 169.172 48.1562 169.172C47.4792 169.172 46.8776 169.099 46.3516 168.953C45.8255 168.807 45.4219 168.656 45.1406 168.5L45.5 167.422C46.2448 167.839 47.0651 168.047 47.9609 168.047ZM57.0625 169.062C55.9062 169.062 55.0703 168.88 54.5547 168.516C54.0443 168.151 53.7891 167.523 53.7891 166.633V161.828H52.4062V160.719H53.8438L54.0234 158.156H55.2578V160.719H57.3359V161.828H55.2578V166.539C55.2578 167.06 55.4062 167.406 55.7031 167.578C56.0052 167.745 56.5286 167.828 57.2734 167.828H57.4375L57.2812 169.062H57.0625ZM60.9688 166.664C60.9688 167.586 61.6224 168.047 62.9297 168.047C64.237 168.047 64.8906 167.586 64.8906 166.664V163.078C64.8906 162.151 64.237 161.688 62.9297 161.688C61.6224 161.688 60.9688 162.151 60.9688 163.078V166.664ZM66.3594 166.539C66.3594 167.352 66.0807 167.995 65.5234 168.469C64.9714 168.938 64.1042 169.172 62.9219 169.172C61.7396 169.172 60.8724 168.938 60.3203 168.469C59.7734 168 59.5 167.357 59.5 166.539V163.203C59.5 162.385 59.7734 161.742 60.3203 161.273C60.8724 160.799 61.7396 160.562 62.9219 160.562C64.1042 160.562 64.9714 160.799 65.5234 161.273C66.0807 161.747 66.3594 162.391 66.3594 163.203V166.539ZM67.7656 171.758L67.6172 170.539H67.8438C68.375 170.539 68.7292 170.469 68.9062 170.328C69.0833 170.193 69.1979 170.023 69.25 169.82C69.3021 169.622 69.3281 169.359 69.3281 169.031V160.719H70.7969V168.945C70.7969 170.305 70.4844 171.146 69.8594 171.469C69.4896 171.661 68.9635 171.758 68.2812 171.758H67.7656ZM69.3281 159.227V157.703H70.7969V159.227H69.3281ZM73.8281 169V160.719H75.2969V169H73.8281ZM73.8281 159.227V157.703H75.2969V159.227H73.8281ZM86.1562 169.062C85 169.062 84.1641 168.88 83.6484 168.516C83.138 168.151 82.8828 167.523 82.8828 166.633V161.828H81.5V160.719H82.9375L83.1172 158.156H84.3516V160.719H86.4297V161.828H84.3516V166.539C84.3516 167.06 84.5 167.406 84.7969 167.578C85.099 167.745 85.6224 167.828 86.3672 167.828H86.5312L86.375 169.062H86.1562ZM91.1172 169.172C90.2786 169.172 89.6276 168.945 89.1641 168.492C88.7005 168.034 88.4688 167.466 88.4688 166.789C88.4688 166.404 88.5495 166.083 88.7109 165.828C89.0391 165.307 90.0182 164.81 91.6484 164.336C92.5911 164.076 93.1328 163.852 93.2734 163.664C93.4193 163.477 93.5 163.331 93.5156 163.227C93.5312 163.117 93.5391 162.945 93.5391 162.711C93.5391 162.477 93.4427 162.247 93.25 162.023C93.0625 161.799 92.651 161.688 92.0156 161.688C91.1198 161.688 90.5703 161.859 90.3672 162.203C90.263 162.38 90.2109 162.62 90.2109 162.922V163.289H88.7969V162.914C88.7969 162.107 89.0651 161.513 89.6016 161.133C90.1432 160.753 90.9505 160.562 92.0234 160.562C93.0964 160.562 93.862 160.807 94.3203 161.297C94.7786 161.781 95.0078 162.474 95.0078 163.375V166.906C95.0078 167.339 95.0625 167.62 95.1719 167.75C95.2812 167.875 95.5156 167.938 95.875 167.938L95.7031 169.062H95.4062C94.8854 169.062 94.4974 168.964 94.2422 168.766C93.987 168.562 93.7917 168.25 93.6562 167.828C93.224 168.474 92.7031 168.88 92.0938 169.047C91.8021 169.13 91.4766 169.172 91.1172 169.172ZM91.8516 165.344C91.112 165.557 90.599 165.771 90.3125 165.984C90.0312 166.198 89.8906 166.5 89.8906 166.891C89.8906 167.276 90.0208 167.568 90.2812 167.766C90.5469 167.964 90.8646 168.062 91.2344 168.062C91.6094 168.062 91.9479 168.016 92.25 167.922C92.5521 167.823 92.8229 167.68 93.0625 167.492C93.3073 167.299 93.4661 167.081 93.5391 166.836V164.445C93.1589 164.826 92.5964 165.125 91.8516 165.344ZM98.0469 169V157.234H99.5156V164.906L103.477 160.719H105.086L101.719 164.359L105.422 169H103.727L100.758 165.156L99.5156 166.391V169H98.0469ZM109.273 169.172C108.435 169.172 107.784 168.945 107.32 168.492C106.857 168.034 106.625 167.466 106.625 166.789C106.625 166.404 106.706 166.083 106.867 165.828C107.195 165.307 108.174 164.81 109.805 164.336C110.747 164.076 111.289 163.852 111.43 163.664C111.576 163.477 111.656 163.331 111.672 163.227C111.688 163.117 111.695 162.945 111.695 162.711C111.695 162.477 111.599 162.247 111.406 162.023C111.219 161.799 110.807 161.688 110.172 161.688C109.276 161.688 108.727 161.859 108.523 162.203C108.419 162.38 108.367 162.62 108.367 162.922V163.289H106.953V162.914C106.953 162.107 107.221 161.513 107.758 161.133C108.299 160.753 109.107 160.562 110.18 160.562C111.253 160.562 112.018 160.807 112.477 161.297C112.935 161.781 113.164 162.474 113.164 163.375V166.906C113.164 167.339 113.219 167.62 113.328 167.75C113.438 167.875 113.672 167.938 114.031 167.938L113.859 169.062H113.562C113.042 169.062 112.654 168.964 112.398 168.766C112.143 168.562 111.948 168.25 111.812 167.828C111.38 168.474 110.859 168.88 110.25 169.047C109.958 169.13 109.633 169.172 109.273 169.172ZM110.008 165.344C109.268 165.557 108.755 165.771 108.469 165.984C108.188 166.198 108.047 166.5 108.047 166.891C108.047 167.276 108.177 167.568 108.438 167.766C108.703 167.964 109.021 168.062 109.391 168.062C109.766 168.062 110.104 168.016 110.406 167.922C110.708 167.823 110.979 167.68 111.219 167.492C111.464 167.299 111.622 167.081 111.695 166.836V164.445C111.315 164.826 110.753 165.125 110.008 165.344ZM118.43 169L115.219 160.719H116.695L119.188 167.438L121.406 160.719H122.844L119.914 169H118.43ZM134.445 160.5C134.445 159.365 133.854 158.797 132.672 158.797C132.057 158.797 131.63 158.854 131.391 158.969C131.151 159.083 130.979 159.221 130.875 159.383C130.656 159.727 130.547 160.263 130.547 160.992H129.047C129.047 160.039 129.208 159.312 129.531 158.812C129.854 158.307 130.273 157.969 130.789 157.797C131.31 157.62 131.919 157.531 132.617 157.531C133.633 157.531 134.435 157.776 135.023 158.266C135.617 158.75 135.914 159.487 135.914 160.477C135.914 161.237 135.771 161.823 135.484 162.234C135.203 162.641 134.742 162.896 134.102 163C134.784 163.141 135.294 163.43 135.633 163.867C135.971 164.305 136.141 165.018 136.141 166.008C136.141 166.997 135.839 167.773 135.234 168.336C134.63 168.893 133.768 169.172 132.648 169.172C131.799 169.172 131.125 169.06 130.625 168.836C130.13 168.612 129.753 168.247 129.492 167.742C129.232 167.237 129.057 166.534 128.969 165.633H130.469C130.531 166.56 130.732 167.174 131.07 167.477C131.258 167.643 131.479 167.758 131.734 167.82C131.99 167.878 132.323 167.906 132.734 167.906C133.396 167.906 133.88 167.737 134.188 167.398C134.495 167.06 134.648 166.495 134.648 165.703C134.648 164.911 134.503 164.388 134.211 164.133C133.924 163.872 133.57 163.719 133.148 163.672C132.732 163.625 132.326 163.602 131.93 163.602V162.438C132.763 162.438 133.326 162.37 133.617 162.234C133.909 162.099 134.12 161.935 134.25 161.742C134.38 161.544 134.445 161.13 134.445 160.5ZM138.375 165.141V163.984H143.844V165.141H138.375ZM147.414 170.773C147.956 170.971 148.62 171.07 149.406 171.07C150.193 171.07 150.742 170.922 151.055 170.625C151.372 170.328 151.531 169.867 151.531 169.242V168.094C151.318 168.292 150.997 168.44 150.57 168.539C150.148 168.638 149.76 168.688 149.406 168.688C147.312 168.688 146.266 167.805 146.266 166.039V163.312C146.266 162.453 146.526 161.781 147.047 161.297C147.573 160.807 148.359 160.562 149.406 160.562C149.823 160.562 150.25 160.651 150.688 160.828C151.13 161 151.411 161.185 151.531 161.383V160.719H153V168.805C153 169.799 152.737 170.612 152.211 171.242C151.69 171.872 150.846 172.188 149.68 172.188C148.513 172.188 147.648 172.083 147.086 171.875L147.414 170.773ZM151.531 162.828C151.531 162.068 150.898 161.688 149.633 161.688C148.367 161.688 147.734 162.177 147.734 163.156V166.266C147.734 167.13 148.367 167.562 149.633 167.562C150.378 167.562 151.01 167.354 151.531 166.938V162.828ZM155.828 169V160.719H157.297V161.891C157.484 161.38 157.992 161.01 158.82 160.781C159.253 160.656 159.703 160.596 160.172 160.602L160.125 161.859C159.417 161.859 158.768 162 158.18 162.281C157.591 162.562 157.297 162.87 157.297 163.203V169H155.828ZM164.258 169.172C163.419 169.172 162.768 168.945 162.305 168.492C161.841 168.034 161.609 167.466 161.609 166.789C161.609 166.404 161.69 166.083 161.852 165.828C162.18 165.307 163.159 164.81 164.789 164.336C165.732 164.076 166.273 163.852 166.414 163.664C166.56 163.477 166.641 163.331 166.656 163.227C166.672 163.117 166.68 162.945 166.68 162.711C166.68 162.477 166.583 162.247 166.391 162.023C166.203 161.799 165.792 161.688 165.156 161.688C164.26 161.688 163.711 161.859 163.508 162.203C163.404 162.38 163.352 162.62 163.352 162.922V163.289H161.938V162.914C161.938 162.107 162.206 161.513 162.742 161.133C163.284 160.753 164.091 160.562 165.164 160.562C166.237 160.562 167.003 160.807 167.461 161.297C167.919 161.781 168.148 162.474 168.148 163.375V166.906C168.148 167.339 168.203 167.62 168.312 167.75C168.422 167.875 168.656 167.938 169.016 167.938L168.844 169.062H168.547C168.026 169.062 167.638 168.964 167.383 168.766C167.128 168.562 166.932 168.25 166.797 167.828C166.365 168.474 165.844 168.88 165.234 169.047C164.943 169.13 164.617 169.172 164.258 169.172ZM164.992 165.344C164.253 165.557 163.74 165.771 163.453 165.984C163.172 166.198 163.031 166.5 163.031 166.891C163.031 167.276 163.161 167.568 163.422 167.766C163.688 167.964 164.005 168.062 164.375 168.062C164.75 168.062 165.089 168.016 165.391 167.922C165.693 167.823 165.964 167.68 166.203 167.492C166.448 167.299 166.607 167.081 166.68 166.836V164.445C166.299 164.826 165.737 165.125 164.992 165.344ZM176.328 162.898C176.328 162.091 175.732 161.688 174.539 161.688C173.935 161.688 173.469 161.818 173.141 162.078C172.818 162.333 172.656 162.674 172.656 163.102V169H171.188V160.719H172.656V161.523C173.208 160.883 174.036 160.562 175.141 160.562C176.25 160.562 177.023 160.924 177.461 161.648L177.656 161.461C178.255 160.862 179.094 160.562 180.172 160.562C181.562 160.562 182.422 161.057 182.75 162.047C182.844 162.328 182.891 162.641 182.891 162.984V169H181.422V162.898C181.422 162.091 180.88 161.688 179.797 161.688C179.115 161.688 178.609 161.818 178.281 162.078C177.958 162.333 177.797 162.674 177.797 163.102V169H176.328V162.898ZM192.492 169.172C191.081 169.172 190.185 168.672 189.805 167.672C189.695 167.385 189.641 167.073 189.641 166.734V160.719H191.109V166.742C191.109 167.148 191.258 167.469 191.555 167.703C191.857 167.932 192.305 168.047 192.898 168.047C193.492 168.047 193.974 167.901 194.344 167.609C194.719 167.312 194.906 166.971 194.906 166.586V160.719H196.375V169H195.062L194.906 167.961C194.448 168.768 193.643 169.172 192.492 169.172ZM206.445 160.562C207.112 160.562 207.724 160.667 208.281 160.875V157.234H209.75V169H208.75L208.508 168.453C208.253 168.651 207.917 168.82 207.5 168.961C207.083 169.102 206.672 169.172 206.266 169.172C205.135 169.172 204.305 168.922 203.773 168.422C203.247 167.917 202.984 167.237 202.984 166.383V163.258C202.984 162.398 203.268 161.734 203.836 161.266C204.404 160.797 205.273 160.562 206.445 160.562ZM204.453 166.492C204.453 166.987 204.628 167.365 204.977 167.625C205.331 167.885 205.745 168.016 206.219 168.016C207.062 168.016 207.75 167.852 208.281 167.523V162.031C207.807 161.802 207.232 161.688 206.555 161.688C205.154 161.688 204.453 162.156 204.453 163.094V166.492ZM214.883 169.172C214.044 169.172 213.393 168.945 212.93 168.492C212.466 168.034 212.234 167.466 212.234 166.789C212.234 166.404 212.315 166.083 212.477 165.828C212.805 165.307 213.784 164.81 215.414 164.336C216.357 164.076 216.898 163.852 217.039 163.664C217.185 163.477 217.266 163.331 217.281 163.227C217.297 163.117 217.305 162.945 217.305 162.711C217.305 162.477 217.208 162.247 217.016 162.023C216.828 161.799 216.417 161.688 215.781 161.688C214.885 161.688 214.336 161.859 214.133 162.203C214.029 162.38 213.977 162.62 213.977 162.922V163.289H212.562V162.914C212.562 162.107 212.831 161.513 213.367 161.133C213.909 160.753 214.716 160.562 215.789 160.562C216.862 160.562 217.628 160.807 218.086 161.297C218.544 161.781 218.773 162.474 218.773 163.375V166.906C218.773 167.339 218.828 167.62 218.938 167.75C219.047 167.875 219.281 167.938 219.641 167.938L219.469 169.062H219.172C218.651 169.062 218.263 168.964 218.008 168.766C217.753 168.562 217.557 168.25 217.422 167.828C216.99 168.474 216.469 168.88 215.859 169.047C215.568 169.13 215.242 169.172 214.883 169.172ZM215.617 165.344C214.878 165.557 214.365 165.771 214.078 165.984C213.797 166.198 213.656 166.5 213.656 166.891C213.656 167.276 213.786 167.568 214.047 167.766C214.312 167.964 214.63 168.062 215 168.062C215.375 168.062 215.714 168.016 216.016 167.922C216.318 167.823 216.589 167.68 216.828 167.492C217.073 167.299 217.232 167.081 217.305 166.836V164.445C216.924 164.826 216.362 165.125 215.617 165.344ZM225.641 169.062C224.484 169.062 223.648 168.88 223.133 168.516C222.622 168.151 222.367 167.523 222.367 166.633V161.828H220.984V160.719H222.422L222.602 158.156H223.836V160.719H225.914V161.828H223.836V166.539C223.836 167.06 223.984 167.406 224.281 167.578C224.583 167.745 225.107 167.828 225.852 167.828H226.016L225.859 169.062H225.641ZM229.547 166.664C229.547 167.586 230.201 168.047 231.508 168.047C232.815 168.047 233.469 167.586 233.469 166.664V163.078C233.469 162.151 232.815 161.688 231.508 161.688C230.201 161.688 229.547 162.151 229.547 163.078V166.664ZM234.938 166.539C234.938 167.352 234.659 167.995 234.102 168.469C233.549 168.938 232.682 169.172 231.5 169.172C230.318 169.172 229.451 168.938 228.898 168.469C228.352 168 228.078 167.357 228.078 166.539V163.203C228.078 162.385 228.352 161.742 228.898 161.273C229.451 160.799 230.318 160.562 231.5 160.562C232.682 160.562 233.549 160.799 234.102 161.273C234.659 161.747 234.938 162.391 234.938 163.203V166.539ZM236.344 171.758L236.195 170.539H236.422C236.953 170.539 237.307 170.469 237.484 170.328C237.661 170.193 237.776 170.023 237.828 169.82C237.88 169.622 237.906 169.359 237.906 169.031V160.719H239.375V168.945C239.375 170.305 239.062 171.146 238.438 171.469C238.068 171.661 237.542 171.758 236.859 171.758H236.344ZM237.906 159.227V157.703H239.375V159.227H237.906ZM246.25 169V157.234H247.719V164.906L251.68 160.719H253.289L249.922 164.359L253.625 169H251.93L248.961 165.156L247.719 166.391V169H246.25ZM256.422 166.664C256.422 167.586 257.076 168.047 258.383 168.047C259.69 168.047 260.344 167.586 260.344 166.664V163.078C260.344 162.151 259.69 161.688 258.383 161.688C257.076 161.688 256.422 162.151 256.422 163.078V166.664ZM261.812 166.539C261.812 167.352 261.534 167.995 260.977 168.469C260.424 168.938 259.557 169.172 258.375 169.172C257.193 169.172 256.326 168.938 255.773 168.469C255.227 168 254.953 167.357 254.953 166.539V163.203C254.953 162.385 255.227 161.742 255.773 161.273C256.326 160.799 257.193 160.562 258.375 160.562C259.557 160.562 260.424 160.799 260.977 161.273C261.534 161.747 261.812 162.391 261.812 163.203V166.539ZM267.109 169.062C266.625 169.062 266.229 169.026 265.922 168.953C265.615 168.88 265.344 168.742 265.109 168.539C264.672 168.159 264.453 167.38 264.453 166.203V157.242H265.922V166.219C265.922 166.885 266.021 167.32 266.219 167.523C266.417 167.727 266.826 167.828 267.445 167.828H267.703L267.531 169.062H267.109ZM273.008 169.172C271.794 169.172 270.917 168.919 270.375 168.414C269.833 167.909 269.562 167.13 269.562 166.078V163.195C269.562 162.378 269.841 161.734 270.398 161.266C270.956 160.797 271.797 160.562 272.922 160.562C274.052 160.562 274.891 160.781 275.438 161.219C275.99 161.651 276.266 162.271 276.266 163.078V165.047H271.031V166.211C271.031 166.898 271.169 167.378 271.445 167.648C271.721 167.914 272.219 168.047 272.938 168.047C273.656 168.047 274.062 168.031 274.156 168C274.25 167.969 274.346 167.932 274.445 167.891C274.544 167.849 274.612 167.799 274.648 167.742C274.69 167.685 274.742 167.599 274.805 167.484C274.872 167.365 274.922 167.135 274.953 166.797H276.25C276.198 167.292 276.109 167.69 275.984 167.992C275.865 168.294 275.672 168.536 275.406 168.719C275.146 168.896 274.831 169.016 274.461 169.078C274.096 169.141 273.612 169.172 273.008 169.172ZM271.031 164.055H274.844V162.922C274.844 162.453 274.682 162.13 274.359 161.953C274.042 161.776 273.573 161.688 272.953 161.688C272.333 161.688 271.857 161.794 271.523 162.008C271.195 162.221 271.031 162.573 271.031 163.062V164.055ZM278.906 169V157.234H280.375V164.906L284.336 160.719H285.945L282.578 164.359L286.281 169H284.586L281.617 165.156L280.375 166.391V169H278.906ZM290.977 169.172C289.284 169.172 288.224 168.583 287.797 167.406C287.672 167.073 287.609 166.708 287.609 166.312V163.156C287.609 162.37 287.909 161.742 288.508 161.273C289.107 160.799 289.917 160.562 290.938 160.562C292.24 160.562 293.135 160.844 293.625 161.406C294.01 161.844 294.203 162.49 294.203 163.344L292.805 163.477C292.805 162.737 292.672 162.255 292.406 162.031C292.146 161.802 291.68 161.688 291.008 161.688C290.336 161.688 289.846 161.805 289.539 162.039C289.232 162.273 289.078 162.659 289.078 163.195V166.438C289.078 167.01 289.24 167.422 289.562 167.672C289.885 167.922 290.383 168.047 291.055 168.047C291.732 168.047 292.182 167.958 292.406 167.781C292.635 167.604 292.776 167.203 292.828 166.578H294.188C294.104 167.536 293.828 168.208 293.359 168.594C292.891 168.979 292.096 169.172 290.977 169.172ZM296.734 169V160.719H298.203V169H296.734ZM296.734 159.227V157.703H298.203V159.227H296.734ZM300.031 171.758L299.883 170.539H300.109C300.641 170.539 300.995 170.469 301.172 170.328C301.349 170.193 301.464 170.023 301.516 169.82C301.568 169.622 301.594 169.359 301.594 169.031V160.719H303.062V168.945C303.062 170.305 302.75 171.146 302.125 171.469C301.755 171.661 301.229 171.758 300.547 171.758H300.031ZM301.594 159.227V157.703H303.062V159.227H301.594ZM306.094 169V160.719H307.562V169H306.094ZM306.094 159.227V157.703H307.562V159.227H306.094ZM310.594 169V167.109H312.594V169H310.594Z" fill="#C9D1D9"/>
<path d="M98.8672 56H96.9727L96.084 53.2168H90.7715L89.873 56H88.0664L92.3047 43.2363H94.6875L98.8672 56ZM95.5859 51.6641L93.4277 44.8379L91.2695 51.6641H95.5859ZM109.121 44.7207H105.342V56H103.584V44.7207H99.8047V43.2363H109.121V44.7207ZM119.785 45.4238C119.31 45.1699 118.822 44.9746 118.32 44.8379C117.819 44.6947 117.272 44.623 116.68 44.623C116.003 44.623 115.4 44.7435 114.873 44.9844C114.346 45.2253 113.9 45.5671 113.535 46.0098C113.177 46.446 112.9 46.9733 112.705 47.5918C112.516 48.2103 112.422 48.8939 112.422 49.6426C112.422 50.4238 112.5 51.1237 112.656 51.7422C112.812 52.3607 113.057 52.8848 113.389 53.3145C113.721 53.7441 114.144 54.0729 114.658 54.3008C115.179 54.5286 115.801 54.6426 116.523 54.6426C116.647 54.6426 116.781 54.6361 116.924 54.623C117.067 54.61 117.21 54.5938 117.354 54.5742C117.497 54.5482 117.633 54.5189 117.764 54.4863C117.9 54.4538 118.021 54.418 118.125 54.3789V50.3164H115.518V48.8809H119.844V55.4043C119.577 55.528 119.294 55.6387 118.994 55.7363C118.701 55.834 118.398 55.9154 118.086 55.9805C117.78 56.0456 117.474 56.0944 117.168 56.127C116.862 56.1595 116.566 56.1758 116.279 56.1758C115.407 56.1758 114.619 56.0391 113.916 55.7656C113.219 55.4922 112.624 55.0885 112.129 54.5547C111.641 54.0143 111.263 53.3438 110.996 52.543C110.736 51.7422 110.605 50.8145 110.605 49.7598C110.605 48.7116 110.752 47.7741 111.045 46.9473C111.338 46.1139 111.748 45.4108 112.275 44.8379C112.809 44.2585 113.447 43.819 114.189 43.5195C114.938 43.2135 115.762 43.0605 116.66 43.0605C117.233 43.0605 117.777 43.1126 118.291 43.2168C118.812 43.3145 119.31 43.474 119.785 43.6953V45.4238ZM142.852 56H140.957L140.068 53.2168H134.756L133.857 56H132.051L136.289 43.2363H138.672L142.852 56ZM139.57 51.6641L137.412 44.8379L135.254 51.6641H139.57ZM153.105 44.7207H149.326V56H147.568V44.7207H143.789V43.2363H153.105V44.7207ZM163.77 45.4238C163.294 45.1699 162.806 44.9746 162.305 44.8379C161.803 44.6947 161.257 44.623 160.664 44.623C159.987 44.623 159.385 44.7435 158.857 44.9844C158.33 45.2253 157.884 45.5671 157.52 46.0098C157.161 46.446 156.885 46.9733 156.689 47.5918C156.501 48.2103 156.406 48.8939 156.406 49.6426C156.406 50.4238 156.484 51.1237 156.641 51.7422C156.797 52.3607 157.041 52.8848 157.373 53.3145C157.705 53.7441 158.128 54.0729 158.643 54.3008C159.163 54.5286 159.785 54.6426 160.508 54.6426C160.632 54.6426 160.765 54.6361 160.908 54.623C161.051 54.61 161.195 54.5938 161.338 54.5742C161.481 54.5482 161.618 54.5189 161.748 54.4863C161.885 54.4538 162.005 54.418 162.109 54.3789V50.3164H159.502V48.8809H163.828V55.4043C163.561 55.528 163.278 55.6387 162.979 55.7363C162.686 55.834 162.383 55.9154 162.07 55.9805C161.764 56.0456 161.458 56.0944 161.152 56.127C160.846 56.1595 160.55 56.1758 160.264 56.1758C159.391 56.1758 158.604 56.0391 157.9 55.7656C157.204 55.4922 156.608 55.0885 156.113 54.5547C155.625 54.0143 155.247 53.3438 154.98 52.543C154.72 51.7422 154.59 50.8145 154.59 49.7598C154.59 48.7116 154.736 47.7741 155.029 46.9473C155.322 46.1139 155.732 45.4108 156.26 44.8379C156.794 44.2585 157.432 43.819 158.174 43.5195C158.923 43.2135 159.746 43.0605 160.645 43.0605C161.217 43.0605 161.761 43.1126 162.275 43.2168C162.796 43.3145 163.294 43.474 163.77 43.6953V45.4238ZM185.654 55.5215C184.632 55.9447 183.561 56.1562 182.441 56.1562C180.638 56.1562 179.251 55.6191 178.281 54.5449C177.318 53.4642 176.836 51.8691 176.836 49.7598C176.836 48.7376 176.969 47.8132 177.236 46.9863C177.503 46.1595 177.884 45.4596 178.379 44.8867C178.874 44.3073 179.473 43.8613 180.176 43.5488C180.879 43.2363 181.667 43.0801 182.539 43.0801C183.132 43.0801 183.682 43.1322 184.189 43.2363C184.697 43.334 185.186 43.487 185.654 43.6953V45.4043C185.192 45.1504 184.714 44.9583 184.219 44.8281C183.724 44.6914 183.184 44.623 182.598 44.623C181.999 44.623 181.455 44.737 180.967 44.9648C180.485 45.1862 180.075 45.5117 179.736 45.9414C179.398 46.3646 179.137 46.8854 178.955 47.5039C178.773 48.1159 178.682 48.8158 178.682 49.6035C178.682 51.2572 179.017 52.5039 179.688 53.3438C180.358 54.1836 181.341 54.6035 182.637 54.6035C183.184 54.6035 183.708 54.5417 184.209 54.418C184.71 54.2878 185.192 54.1087 185.654 53.8809V55.5215ZM197.832 56H195.938L195.049 53.2168H189.736L188.838 56H187.031L191.27 43.2363H193.652L197.832 56ZM194.551 51.6641L192.393 44.8379L190.234 51.6641H194.551ZM208.086 44.7207H204.307V56H202.549V44.7207H198.77V43.2363H208.086V44.7207ZM229.639 55.5215C228.617 55.9447 227.546 56.1562 226.426 56.1562C224.622 56.1562 223.236 55.6191 222.266 54.5449C221.302 53.4642 220.82 51.8691 220.82 49.7598C220.82 48.7376 220.954 47.8132 221.221 46.9863C221.488 46.1595 221.868 45.4596 222.363 44.8867C222.858 44.3073 223.457 43.8613 224.16 43.5488C224.863 43.2363 225.651 43.0801 226.523 43.0801C227.116 43.0801 227.666 43.1322 228.174 43.2363C228.682 43.334 229.17 43.487 229.639 43.6953V45.4043C229.176 45.1504 228.698 44.9583 228.203 44.8281C227.708 44.6914 227.168 44.623 226.582 44.623C225.983 44.623 225.439 44.737 224.951 44.9648C224.469 45.1862 224.059 45.5117 223.721 45.9414C223.382 46.3646 223.122 46.8854 222.939 47.5039C222.757 48.1159 222.666 48.8158 222.666 49.6035C222.666 51.2572 223.001 52.5039 223.672 53.3438C224.342 54.1836 225.326 54.6035 226.621 54.6035C227.168 54.6035 227.692 54.5417 228.193 54.418C228.695 54.2878 229.176 54.1087 229.639 53.8809V55.5215ZM240.635 55.5215C239.613 55.9447 238.542 56.1562 237.422 56.1562C235.618 56.1562 234.232 55.6191 233.262 54.5449C232.298 53.4642 231.816 51.8691 231.816 49.7598C231.816 48.7376 231.95 47.8132 232.217 46.9863C232.484 46.1595 232.865 45.4596 233.359 44.8867C233.854 44.3073 234.453 43.8613 235.156 43.5488C235.859 43.2363 236.647 43.0801 237.52 43.0801C238.112 43.0801 238.662 43.1322 239.17 43.2363C239.678 43.334 240.166 43.487 240.635 43.6953V45.4043C240.173 45.1504 239.694 44.9583 239.199 44.8281C238.704 44.6914 238.164 44.623 237.578 44.623C236.979 44.623 236.436 44.737 235.947 44.9648C235.465 45.1862 235.055 45.5117 234.717 45.9414C234.378 46.3646 234.118 46.8854 233.936 47.5039C233.753 48.1159 233.662 48.8158 233.662 49.6035C233.662 51.2572 233.997 52.5039 234.668 53.3438C235.339 54.1836 236.322 54.6035 237.617 54.6035C238.164 54.6035 238.688 54.5417 239.189 54.418C239.691 54.2878 240.173 54.1087 240.635 53.8809V55.5215ZM252.812 56H250.918L250.029 53.2168H244.717L243.818 56H242.012L246.25 43.2363H248.633L252.812 56ZM249.531 51.6641L247.373 44.8379L245.215 51.6641H249.531ZM273.73 45.4238C273.255 45.1699 272.767 44.9746 272.266 44.8379C271.764 44.6947 271.217 44.623 270.625 44.623C269.948 44.623 269.346 44.7435 268.818 44.9844C268.291 45.2253 267.845 45.5671 267.48 46.0098C267.122 46.446 266.846 46.9733 266.65 47.5918C266.462 48.2103 266.367 48.8939 266.367 49.6426C266.367 50.4238 266.445 51.1237 266.602 51.7422C266.758 52.3607 267.002 52.8848 267.334 53.3145C267.666 53.7441 268.089 54.0729 268.604 54.3008C269.124 54.5286 269.746 54.6426 270.469 54.6426C270.592 54.6426 270.726 54.6361 270.869 54.623C271.012 54.61 271.156 54.5938 271.299 54.5742C271.442 54.5482 271.579 54.5189 271.709 54.4863C271.846 54.4538 271.966 54.418 272.07 54.3789V50.3164H269.463V48.8809H273.789V55.4043C273.522 55.528 273.239 55.6387 272.939 55.7363C272.646 55.834 272.344 55.9154 272.031 55.9805C271.725 56.0456 271.419 56.0944 271.113 56.127C270.807 56.1595 270.511 56.1758 270.225 56.1758C269.352 56.1758 268.564 56.0391 267.861 55.7656C267.165 55.4922 266.569 55.0885 266.074 54.5547C265.586 54.0143 265.208 53.3438 264.941 52.543C264.681 51.7422 264.551 50.8145 264.551 49.7598C264.551 48.7116 264.697 47.7741 264.99 46.9473C265.283 46.1139 265.693 45.4108 266.221 44.8379C266.755 44.2585 267.393 43.819 268.135 43.5195C268.883 43.2135 269.707 43.0605 270.605 43.0605C271.178 43.0605 271.722 43.1126 272.236 43.2168C272.757 43.3145 273.255 43.474 273.73 43.6953V45.4238ZM285.801 56H283.906L283.018 53.2168H277.705L276.807 56H275L279.238 43.2363H281.621L285.801 56ZM282.52 51.6641L280.361 44.8379L278.203 51.6641H282.52ZM296.055 44.7207H292.275V56H290.518V44.7207H286.738V43.2363H296.055V44.7207ZM317.715 45.4238C317.24 45.1699 316.751 44.9746 316.25 44.8379C315.749 44.6947 315.202 44.623 314.609 44.623C313.932 44.623 313.33 44.7435 312.803 44.9844C312.275 45.2253 311.829 45.5671 311.465 46.0098C311.107 46.446 310.83 46.9733 310.635 47.5918C310.446 48.2103 310.352 48.8939 310.352 49.6426C310.352 50.4238 310.43 51.1237 310.586 51.7422C310.742 52.3607 310.986 52.8848 311.318 53.3145C311.65 53.7441 312.074 54.0729 312.588 54.3008C313.109 54.5286 313.73 54.6426 314.453 54.6426C314.577 54.6426 314.71 54.6361 314.854 54.623C314.997 54.61 315.14 54.5938 315.283 54.5742C315.426 54.5482 315.563 54.5189 315.693 54.4863C315.83 54.4538 315.951 54.418 316.055 54.3789V50.3164H313.447V48.8809H317.773V55.4043C317.507 55.528 317.223 55.6387 316.924 55.7363C316.631 55.834 316.328 55.9154 316.016 55.9805C315.71 56.0456 315.404 56.0944 315.098 56.127C314.792 56.1595 314.495 56.1758 314.209 56.1758C313.337 56.1758 312.549 56.0391 311.846 55.7656C311.149 55.4922 310.553 55.0885 310.059 54.5547C309.57 54.0143 309.193 53.3438 308.926 52.543C308.665 51.7422 308.535 50.8145 308.535 49.7598C308.535 48.7116 308.682 47.7741 308.975 46.9473C309.268 46.1139 309.678 45.4108 310.205 44.8379C310.739 44.2585 311.377 43.819 312.119 43.5195C312.868 43.2135 313.691 43.0605 314.59 43.0605C315.163 43.0605 315.706 43.1126 316.221 43.2168C316.742 43.3145 317.24 43.474 317.715 43.6953V45.4238ZM328.604 55.5215C327.581 55.9447 326.51 56.1562 325.391 56.1562C323.587 56.1562 322.201 55.6191 321.23 54.5449C320.267 53.4642 319.785 51.8691 319.785 49.7598C319.785 48.7376 319.919 47.8132 320.186 46.9863C320.452 46.1595 320.833 45.4596 321.328 44.8867C321.823 44.3073 322.422 43.8613 323.125 43.5488C323.828 43.2363 324.616 43.0801 325.488 43.0801C326.081 43.0801 326.631 43.1322 327.139 43.2363C327.646 43.334 328.135 43.487 328.604 43.6953V45.4043C328.141 45.1504 327.663 44.9583 327.168 44.8281C326.673 44.6914 326.133 44.623 325.547 44.623C324.948 44.623 324.404 44.737 323.916 44.9648C323.434 45.1862 323.024 45.5117 322.686 45.9414C322.347 46.3646 322.087 46.8854 321.904 47.5039C321.722 48.1159 321.631 48.8158 321.631 49.6035C321.631 51.2572 321.966 52.5039 322.637 53.3438C323.307 54.1836 324.29 54.6035 325.586 54.6035C326.133 54.6035 326.657 54.5417 327.158 54.418C327.66 54.2878 328.141 54.1087 328.604 53.8809V55.5215ZM339.6 55.5215C338.577 55.9447 337.507 56.1562 336.387 56.1562C334.583 56.1562 333.197 55.6191 332.227 54.5449C331.263 53.4642 330.781 51.8691 330.781 49.7598C330.781 48.7376 330.915 47.8132 331.182 46.9863C331.449 46.1595 331.829 45.4596 332.324 44.8867C332.819 44.3073 333.418 43.8613 334.121 43.5488C334.824 43.2363 335.612 43.0801 336.484 43.0801C337.077 43.0801 337.627 43.1322 338.135 43.2363C338.643 43.334 339.131 43.487 339.6 43.6953V45.4043C339.137 45.1504 338.659 44.9583 338.164 44.8281C337.669 44.6914 337.129 44.623 336.543 44.623C335.944 44.623 335.4 44.737 334.912 44.9648C334.43 45.1862 334.02 45.5117 333.682 45.9414C333.343 46.3646 333.083 46.8854 332.9 47.5039C332.718 48.1159 332.627 48.8158 332.627 49.6035C332.627 51.2572 332.962 52.5039 333.633 53.3438C334.303 54.1836 335.286 54.6035 336.582 54.6035C337.129 54.6035 337.653 54.5417 338.154 54.418C338.656 54.2878 339.137 54.1087 339.6 53.8809V55.5215ZM361.699 45.4238C361.224 45.1699 360.736 44.9746 360.234 44.8379C359.733 44.6947 359.186 44.623 358.594 44.623C357.917 44.623 357.314 44.7435 356.787 44.9844C356.26 45.2253 355.814 45.5671 355.449 46.0098C355.091 46.446 354.814 46.9733 354.619 47.5918C354.43 48.2103 354.336 48.8939 354.336 49.6426C354.336 50.4238 354.414 51.1237 354.57 51.7422C354.727 52.3607 354.971 52.8848 355.303 53.3145C355.635 53.7441 356.058 54.0729 356.572 54.3008C357.093 54.5286 357.715 54.6426 358.438 54.6426C358.561 54.6426 358.695 54.6361 358.838 54.623C358.981 54.61 359.124 54.5938 359.268 54.5742C359.411 54.5482 359.548 54.5189 359.678 54.4863C359.814 54.4538 359.935 54.418 360.039 54.3789V50.3164H357.432V48.8809H361.758V55.4043C361.491 55.528 361.208 55.6387 360.908 55.7363C360.615 55.834 360.312 55.9154 360 55.9805C359.694 56.0456 359.388 56.0944 359.082 56.127C358.776 56.1595 358.48 56.1758 358.193 56.1758C357.321 56.1758 356.533 56.0391 355.83 55.7656C355.133 55.4922 354.538 55.0885 354.043 54.5547C353.555 54.0143 353.177 53.3438 352.91 52.543C352.65 51.7422 352.52 50.8145 352.52 49.7598C352.52 48.7116 352.666 47.7741 352.959 46.9473C353.252 46.1139 353.662 45.4108 354.189 44.8379C354.723 44.2585 355.361 43.819 356.104 43.5195C356.852 43.2135 357.676 43.0605 358.574 43.0605C359.147 43.0605 359.691 43.1126 360.205 43.2168C360.726 43.3145 361.224 43.474 361.699 43.6953V45.4238ZM372.695 45.4238C372.22 45.1699 371.732 44.9746 371.23 44.8379C370.729 44.6947 370.182 44.623 369.59 44.623C368.913 44.623 368.311 44.7435 367.783 44.9844C367.256 45.2253 366.81 45.5671 366.445 46.0098C366.087 46.446 365.811 46.9733 365.615 47.5918C365.426 48.2103 365.332 48.8939 365.332 49.6426C365.332 50.4238 365.41 51.1237 365.566 51.7422C365.723 52.3607 365.967 52.8848 366.299 53.3145C366.631 53.7441 367.054 54.0729 367.568 54.3008C368.089 54.5286 368.711 54.6426 369.434 54.6426C369.557 54.6426 369.691 54.6361 369.834 54.623C369.977 54.61 370.12 54.5938 370.264 54.5742C370.407 54.5482 370.544 54.5189 370.674 54.4863C370.811 54.4538 370.931 54.418 371.035 54.3789V50.3164H368.428V48.8809H372.754V55.4043C372.487 55.528 372.204 55.6387 371.904 55.7363C371.611 55.834 371.309 55.9154 370.996 55.9805C370.69 56.0456 370.384 56.0944 370.078 56.127C369.772 56.1595 369.476 56.1758 369.189 56.1758C368.317 56.1758 367.529 56.0391 366.826 55.7656C366.13 55.4922 365.534 55.0885 365.039 54.5547C364.551 54.0143 364.173 53.3438 363.906 52.543C363.646 51.7422 363.516 50.8145 363.516 49.7598C363.516 48.7116 363.662 47.7741 363.955 46.9473C364.248 46.1139 364.658 45.4108 365.186 44.8379C365.719 44.2585 366.357 43.819 367.1 43.5195C367.848 43.2135 368.672 43.0605 369.57 43.0605C370.143 43.0605 370.687 43.1126 371.201 43.2168C371.722 43.3145 372.22 43.474 372.695 43.6953V45.4238ZM384.766 56H382.871L381.982 53.2168H376.67L375.771 56H373.965L378.203 43.2363H380.586L384.766 56ZM381.484 51.6641L379.326 44.8379L377.168 51.6641H381.484ZM405.684 45.4238C405.208 45.1699 404.72 44.9746 404.219 44.8379C403.717 44.6947 403.171 44.623 402.578 44.623C401.901 44.623 401.299 44.7435 400.771 44.9844C400.244 45.2253 399.798 45.5671 399.434 46.0098C399.076 46.446 398.799 46.9733 398.604 47.5918C398.415 48.2103 398.32 48.8939 398.32 49.6426C398.32 50.4238 398.398 51.1237 398.555 51.7422C398.711 52.3607 398.955 52.8848 399.287 53.3145C399.619 53.7441 400.042 54.0729 400.557 54.3008C401.077 54.5286 401.699 54.6426 402.422 54.6426C402.546 54.6426 402.679 54.6361 402.822 54.623C402.965 54.61 403.109 54.5938 403.252 54.5742C403.395 54.5482 403.532 54.5189 403.662 54.4863C403.799 54.4538 403.919 54.418 404.023 54.3789V50.3164H401.416V48.8809H405.742V55.4043C405.475 55.528 405.192 55.6387 404.893 55.7363C404.6 55.834 404.297 55.9154 403.984 55.9805C403.678 56.0456 403.372 56.0944 403.066 56.127C402.76 56.1595 402.464 56.1758 402.178 56.1758C401.305 56.1758 400.518 56.0391 399.814 55.7656C399.118 55.4922 398.522 55.0885 398.027 54.5547C397.539 54.0143 397.161 53.3438 396.895 52.543C396.634 51.7422 396.504 50.8145 396.504 49.7598C396.504 48.7116 396.65 47.7741 396.943 46.9473C397.236 46.1139 397.646 45.4108 398.174 44.8379C398.708 44.2585 399.346 43.819 400.088 43.5195C400.837 43.2135 401.66 43.0605 402.559 43.0605C403.132 43.0605 403.675 43.1126 404.189 43.2168C404.71 43.3145 405.208 43.474 405.684 43.6953V45.4238ZM416.68 45.4238C416.204 45.1699 415.716 44.9746 415.215 44.8379C414.714 44.6947 414.167 44.623 413.574 44.623C412.897 44.623 412.295 44.7435 411.768 44.9844C411.24 45.2253 410.794 45.5671 410.43 46.0098C410.072 46.446 409.795 46.9733 409.6 47.5918C409.411 48.2103 409.316 48.8939 409.316 49.6426C409.316 50.4238 409.395 51.1237 409.551 51.7422C409.707 52.3607 409.951 52.8848 410.283 53.3145C410.615 53.7441 411.038 54.0729 411.553 54.3008C412.074 54.5286 412.695 54.6426 413.418 54.6426C413.542 54.6426 413.675 54.6361 413.818 54.623C413.962 54.61 414.105 54.5938 414.248 54.5742C414.391 54.5482 414.528 54.5189 414.658 54.4863C414.795 54.4538 414.915 54.418 415.02 54.3789V50.3164H412.412V48.8809H416.738V55.4043C416.471 55.528 416.188 55.6387 415.889 55.7363C415.596 55.834 415.293 55.9154 414.98 55.9805C414.674 56.0456 414.368 56.0944 414.062 56.127C413.757 56.1595 413.46 56.1758 413.174 56.1758C412.301 56.1758 411.514 56.0391 410.811 55.7656C410.114 55.4922 409.518 55.0885 409.023 54.5547C408.535 54.0143 408.158 53.3438 407.891 52.543C407.63 51.7422 407.5 50.8145 407.5 49.7598C407.5 48.7116 407.646 47.7741 407.939 46.9473C408.232 46.1139 408.643 45.4108 409.17 44.8379C409.704 44.2585 410.342 43.819 411.084 43.5195C411.833 43.2135 412.656 43.0605 413.555 43.0605C414.128 43.0605 414.671 43.1126 415.186 43.2168C415.706 43.3145 416.204 43.474 416.68 43.6953V45.4238ZM427.676 45.4238C427.201 45.1699 426.712 44.9746 426.211 44.8379C425.71 44.6947 425.163 44.623 424.57 44.623C423.893 44.623 423.291 44.7435 422.764 44.9844C422.236 45.2253 421.79 45.5671 421.426 46.0098C421.068 46.446 420.791 46.9733 420.596 47.5918C420.407 48.2103 420.312 48.8939 420.312 49.6426C420.312 50.4238 420.391 51.1237 420.547 51.7422C420.703 52.3607 420.947 52.8848 421.279 53.3145C421.611 53.7441 422.035 54.0729 422.549 54.3008C423.07 54.5286 423.691 54.6426 424.414 54.6426C424.538 54.6426 424.671 54.6361 424.814 54.623C424.958 54.61 425.101 54.5938 425.244 54.5742C425.387 54.5482 425.524 54.5189 425.654 54.4863C425.791 54.4538 425.911 54.418 426.016 54.3789V50.3164H423.408V48.8809H427.734V55.4043C427.467 55.528 427.184 55.6387 426.885 55.7363C426.592 55.834 426.289 55.9154 425.977 55.9805C425.671 56.0456 425.365 56.0944 425.059 56.127C424.753 56.1595 424.456 56.1758 424.17 56.1758C423.298 56.1758 422.51 56.0391 421.807 55.7656C421.11 55.4922 420.514 55.0885 420.02 54.5547C419.531 54.0143 419.154 53.3438 418.887 52.543C418.626 51.7422 418.496 50.8145 418.496 49.7598C418.496 48.7116 418.643 47.7741 418.936 46.9473C419.229 46.1139 419.639 45.4108 420.166 44.8379C420.7 44.2585 421.338 43.819 422.08 43.5195C422.829 43.2135 423.652 43.0605 424.551 43.0605C425.124 43.0605 425.667 43.1126 426.182 43.2168C426.702 43.3145 427.201 43.474 427.676 43.6953V45.4238ZM537.969 44.7207H534.189V56H532.432V44.7207H528.652V43.2363H537.969V44.7207ZM548.633 45.4238C548.158 45.1699 547.669 44.9746 547.168 44.8379C546.667 44.6947 546.12 44.623 545.527 44.623C544.85 44.623 544.248 44.7435 543.721 44.9844C543.193 45.2253 542.747 45.5671 542.383 46.0098C542.025 46.446 541.748 46.9733 541.553 47.5918C541.364 48.2103 541.27 48.8939 541.27 49.6426C541.27 50.4238 541.348 51.1237 541.504 51.7422C541.66 52.3607 541.904 52.8848 542.236 53.3145C542.568 53.7441 542.992 54.0729 543.506 54.3008C544.027 54.5286 544.648 54.6426 545.371 54.6426C545.495 54.6426 545.628 54.6361 545.771 54.623C545.915 54.61 546.058 54.5938 546.201 54.5742C546.344 54.5482 546.481 54.5189 546.611 54.4863C546.748 54.4538 546.868 54.418 546.973 54.3789V50.3164H544.365V48.8809H548.691V55.4043C548.424 55.528 548.141 55.6387 547.842 55.7363C547.549 55.834 547.246 55.9154 546.934 55.9805C546.628 56.0456 546.322 56.0944 546.016 56.127C545.71 56.1595 545.413 56.1758 545.127 56.1758C544.255 56.1758 543.467 56.0391 542.764 55.7656C542.067 55.4922 541.471 55.0885 540.977 54.5547C540.488 54.0143 540.111 53.3438 539.844 52.543C539.583 51.7422 539.453 50.8145 539.453 49.7598C539.453 48.7116 539.6 47.7741 539.893 46.9473C540.186 46.1139 540.596 45.4108 541.123 44.8379C541.657 44.2585 542.295 43.819 543.037 43.5195C543.786 43.2135 544.609 43.0605 545.508 43.0605C546.081 43.0605 546.624 43.1126 547.139 43.2168C547.66 43.3145 548.158 43.474 548.633 43.6953V45.4238ZM559.521 55.5215C558.499 55.9447 557.428 56.1562 556.309 56.1562C554.505 56.1562 553.118 55.6191 552.148 54.5449C551.185 53.4642 550.703 51.8691 550.703 49.7598C550.703 48.7376 550.837 47.8132 551.104 46.9863C551.37 46.1595 551.751 45.4596 552.246 44.8867C552.741 44.3073 553.34 43.8613 554.043 43.5488C554.746 43.2363 555.534 43.0801 556.406 43.0801C556.999 43.0801 557.549 43.1322 558.057 43.2363C558.564 43.334 559.053 43.487 559.521 43.6953V45.4043C559.059 45.1504 558.581 44.9583 558.086 44.8281C557.591 44.6914 557.051 44.623 556.465 44.623C555.866 44.623 555.322 44.737 554.834 44.9648C554.352 45.1862 553.942 45.5117 553.604 45.9414C553.265 46.3646 553.005 46.8854 552.822 47.5039C552.64 48.1159 552.549 48.8158 552.549 49.6035C552.549 51.2572 552.884 52.5039 553.555 53.3438C554.225 54.1836 555.208 54.6035 556.504 54.6035C557.051 54.6035 557.575 54.5417 558.076 54.418C558.577 54.2878 559.059 54.1087 559.521 53.8809V55.5215ZM581.953 44.7207H578.174V56H576.416V44.7207H572.637V43.2363H581.953V44.7207ZM592.617 45.4238C592.142 45.1699 591.654 44.9746 591.152 44.8379C590.651 44.6947 590.104 44.623 589.512 44.623C588.835 44.623 588.232 44.7435 587.705 44.9844C587.178 45.2253 586.732 45.5671 586.367 46.0098C586.009 46.446 585.732 46.9733 585.537 47.5918C585.348 48.2103 585.254 48.8939 585.254 49.6426C585.254 50.4238 585.332 51.1237 585.488 51.7422C585.645 52.3607 585.889 52.8848 586.221 53.3145C586.553 53.7441 586.976 54.0729 587.49 54.3008C588.011 54.5286 588.633 54.6426 589.355 54.6426C589.479 54.6426 589.613 54.6361 589.756 54.623C589.899 54.61 590.042 54.5938 590.186 54.5742C590.329 54.5482 590.465 54.5189 590.596 54.4863C590.732 54.4538 590.853 54.418 590.957 54.3789V50.3164H588.35V48.8809H592.676V55.4043C592.409 55.528 592.126 55.6387 591.826 55.7363C591.533 55.834 591.23 55.9154 590.918 55.9805C590.612 56.0456 590.306 56.0944 590 56.127C589.694 56.1595 589.398 56.1758 589.111 56.1758C588.239 56.1758 587.451 56.0391 586.748 55.7656C586.051 55.4922 585.456 55.0885 584.961 54.5547C584.473 54.0143 584.095 53.3438 583.828 52.543C583.568 51.7422 583.438 50.8145 583.438 49.7598C583.438 48.7116 583.584 47.7741 583.877 46.9473C584.17 46.1139 584.58 45.4108 585.107 44.8379C585.641 44.2585 586.279 43.819 587.021 43.5195C587.77 43.2135 588.594 43.0605 589.492 43.0605C590.065 43.0605 590.609 43.1126 591.123 43.2168C591.644 43.3145 592.142 43.474 592.617 43.6953V45.4238ZM603.613 45.4238C603.138 45.1699 602.65 44.9746 602.148 44.8379C601.647 44.6947 601.1 44.623 600.508 44.623C599.831 44.623 599.229 44.7435 598.701 44.9844C598.174 45.2253 597.728 45.5671 597.363 46.0098C597.005 46.446 596.729 46.9733 596.533 47.5918C596.344 48.2103 596.25 48.8939 596.25 49.6426C596.25 50.4238 596.328 51.1237 596.484 51.7422C596.641 52.3607 596.885 52.8848 597.217 53.3145C597.549 53.7441 597.972 54.0729 598.486 54.3008C599.007 54.5286 599.629 54.6426 600.352 54.6426C600.475 54.6426 600.609 54.6361 600.752 54.623C600.895 54.61 601.038 54.5938 601.182 54.5742C601.325 54.5482 601.462 54.5189 601.592 54.4863C601.729 54.4538 601.849 54.418 601.953 54.3789V50.3164H599.346V48.8809H603.672V55.4043C603.405 55.528 603.122 55.6387 602.822 55.7363C602.529 55.834 602.227 55.9154 601.914 55.9805C601.608 56.0456 601.302 56.0944 600.996 56.127C600.69 56.1595 600.394 56.1758 600.107 56.1758C599.235 56.1758 598.447 56.0391 597.744 55.7656C597.048 55.4922 596.452 55.0885 595.957 54.5547C595.469 54.0143 595.091 53.3438 594.824 52.543C594.564 51.7422 594.434 50.8145 594.434 49.7598C594.434 48.7116 594.58 47.7741 594.873 46.9473C595.166 46.1139 595.576 45.4108 596.104 44.8379C596.637 44.2585 597.275 43.819 598.018 43.5195C598.766 43.2135 599.59 43.0605 600.488 43.0605C601.061 43.0605 601.605 43.1126 602.119 43.2168C602.64 43.3145 603.138 43.474 603.613 43.6953V45.4238Z" fill="#C9D1D9"/>
<path d="M10.1562 227.721H6.37695V239H4.61914V227.721H0.839844V226.236H10.1562V227.721ZM21.8945 239H20L19.1113 236.217H13.7988L12.9004 239H11.0938L15.332 226.236H17.7148L21.8945 239ZM18.6133 234.664L16.4551 227.838L14.2969 234.664H18.6133ZM32.8906 239H30.9961L30.1074 236.217H24.7949L23.8965 239H22.0898L26.3281 226.236H28.7109L32.8906 239ZM29.6094 234.664L27.4512 227.838L25.293 234.664H29.6094ZM21.8945 262H20L19.1113 259.217H13.7988L12.9004 262H11.0938L15.332 249.236H17.7148L21.8945 262ZM18.6133 257.664L16.4551 250.838L14.2969 257.664H18.6133ZM32.8906 262H30.9961L30.1074 259.217H24.7949L23.8965 262H22.0898L26.3281 249.236H28.7109L32.8906 262ZM29.6094 257.664L27.4512 250.838L25.293 257.664H29.6094ZM43.1445 250.721H39.3652V262H37.6074V250.721H33.8281V249.236H43.1445V250.721ZM32.8906 285H30.9961L30.1074 282.217H24.7949L23.8965 285H22.0898L26.3281 272.236H28.7109L32.8906 285ZM29.6094 280.664L27.4512 273.838L25.293 280.664H29.6094ZM43.1445 273.721H39.3652V285H37.6074V273.721H33.8281V272.236H43.1445V273.721ZM53.8086 274.424C53.3333 274.17 52.8451 273.975 52.3438 273.838C51.8424 273.695 51.2956 273.623 50.7031 273.623C50.026 273.623 49.4238 273.743 48.8965 273.984C48.3691 274.225 47.9232 274.567 47.5586 275.01C47.2005 275.446 46.9238 275.973 46.7285 276.592C46.5397 277.21 46.4453 277.894 46.4453 278.643C46.4453 279.424 46.5234 280.124 46.6797 280.742C46.8359 281.361 47.0801 281.885 47.4121 282.314C47.7441 282.744 48.1673 283.073 48.6816 283.301C49.2025 283.529 49.8242 283.643 50.5469 283.643C50.6706 283.643 50.804 283.636 50.9473 283.623C51.0905 283.61 51.2337 283.594 51.377 283.574C51.5202 283.548 51.6569 283.519 51.7871 283.486C51.9238 283.454 52.0443 283.418 52.1484 283.379V279.316H49.541V277.881H53.8672V284.404C53.6003 284.528 53.3171 284.639 53.0176 284.736C52.7246 284.834 52.4219 284.915 52.1094 284.98C51.8034 285.046 51.4974 285.094 51.1914 285.127C50.8854 285.16 50.5892 285.176 50.3027 285.176C49.4303 285.176 48.6426 285.039 47.9395 284.766C47.2428 284.492 46.6471 284.089 46.1523 283.555C45.6641 283.014 45.2865 282.344 45.0195 281.543C44.7591 280.742 44.6289 279.814 44.6289 278.76C44.6289 277.712 44.7754 276.774 45.0684 275.947C45.3613 275.114 45.7715 274.411 46.2988 273.838C46.8327 273.258 47.4707 272.819 48.2129 272.52C48.9616 272.214 49.7852 272.061 50.6836 272.061C51.2565 272.061 51.8001 272.113 52.3145 272.217C52.8353 272.314 53.3333 272.474 53.8086 272.695V274.424ZM43.1445 296.721H39.3652V308H37.6074V296.721H33.8281V295.236H43.1445V296.721ZM53.8086 297.424C53.3333 297.17 52.8451 296.975 52.3438 296.838C51.8424 296.695 51.2956 296.623 50.7031 296.623C50.026 296.623 49.4238 296.743 48.8965 296.984C48.3691 297.225 47.9232 297.567 47.5586 298.01C47.2005 298.446 46.9238 298.973 46.7285 299.592C46.5397 300.21 46.4453 300.894 46.4453 301.643C46.4453 302.424 46.5234 303.124 46.6797 303.742C46.8359 304.361 47.0801 304.885 47.4121 305.314C47.7441 305.744 48.1673 306.073 48.6816 306.301C49.2025 306.529 49.8242 306.643 50.5469 306.643C50.6706 306.643 50.804 306.636 50.9473 306.623C51.0905 306.61 51.2337 306.594 51.377 306.574C51.5202 306.548 51.6569 306.519 51.7871 306.486C51.9238 306.454 52.0443 306.418 52.1484 306.379V302.316H49.541V300.881H53.8672V307.404C53.6003 307.528 53.3171 307.639 53.0176 307.736C52.7246 307.834 52.4219 307.915 52.1094 307.98C51.8034 308.046 51.4974 308.094 51.1914 308.127C50.8854 308.16 50.5892 308.176 50.3027 308.176C49.4303 308.176 48.6426 308.039 47.9395 307.766C47.2428 307.492 46.6471 307.089 46.1523 306.555C45.6641 306.014 45.2865 305.344 45.0195 304.543C44.7591 303.742 44.6289 302.814 44.6289 301.76C44.6289 300.712 44.7754 299.774 45.0684 298.947C45.3613 298.114 45.7715 297.411 46.2988 296.838C46.8327 296.258 47.4707 295.819 48.2129 295.52C48.9616 295.214 49.7852 295.061 50.6836 295.061C51.2565 295.061 51.8001 295.113 52.3145 295.217C52.8353 295.314 53.3333 295.474 53.8086 295.695V297.424ZM65.1367 296.721H61.3574V308H59.5996V296.721H55.8203V295.236H65.1367V296.721ZM53.8086 320.424C53.3333 320.17 52.8451 319.975 52.3438 319.838C51.8424 319.695 51.2956 319.623 50.7031 319.623C50.026 319.623 49.4238 319.743 48.8965 319.984C48.3691 320.225 47.9232 320.567 47.5586 321.01C47.2005 321.446 46.9238 321.973 46.7285 322.592C46.5397 323.21 46.4453 323.894 46.4453 324.643C46.4453 325.424 46.5234 326.124 46.6797 326.742C46.8359 327.361 47.0801 327.885 47.4121 328.314C47.7441 328.744 48.1673 329.073 48.6816 329.301C49.2025 329.529 49.8242 329.643 50.5469 329.643C50.6706 329.643 50.804 329.636 50.9473 329.623C51.0905 329.61 51.2337 329.594 51.377 329.574C51.5202 329.548 51.6569 329.519 51.7871 329.486C51.9238 329.454 52.0443 329.418 52.1484 329.379V325.316H49.541V323.881H53.8672V330.404C53.6003 330.528 53.3171 330.639 53.0176 330.736C52.7246 330.834 52.4219 330.915 52.1094 330.98C51.8034 331.046 51.4974 331.094 51.1914 331.127C50.8854 331.16 50.5892 331.176 50.3027 331.176C49.4303 331.176 48.6426 331.039 47.9395 330.766C47.2428 330.492 46.6471 330.089 46.1523 329.555C45.6641 329.014 45.2865 328.344 45.0195 327.543C44.7591 326.742 44.6289 325.814 44.6289 324.76C44.6289 323.712 44.7754 322.774 45.0684 321.947C45.3613 321.114 45.7715 320.411 46.2988 319.838C46.8327 319.258 47.4707 318.819 48.2129 318.52C48.9616 318.214 49.7852 318.061 50.6836 318.061C51.2565 318.061 51.8001 318.113 52.3145 318.217C52.8353 318.314 53.3333 318.474 53.8086 318.695V320.424ZM65.1367 319.721H61.3574V331H59.5996V319.721H55.8203V318.236H65.1367V319.721ZM76.1328 319.721H72.3535V331H70.5957V319.721H66.8164V318.236H76.1328V319.721Z" fill="#C9D1D9"/>
<rect x="434" y="242" width="14" height="89" rx="2" fill="#C4C4C4"/>
<path d="M436 246V330H446V246" stroke="black"/>
<rect x="370" y="185.71" width="100" height="100" rx="10" transform="rotate(-45 370 185.71)" fill="#EEF305"/>
<rect x="370" y="185.71" width="100" height="100" rx="10" transform="rotate(-45 370 185.71)" fill="url(#paint0_linear)" fill-opacity="0.5"/>
<rect x="375.832" y="185.886" width="92" height="92" rx="8.5" transform="rotate(-45 375.832 185.886)" stroke="black" stroke-width="3"/>
<path d="M424.754 194.254C422.046 194.254 420.271 193.609 419.432 192.32C418.956 191.591 418.719 190.628 418.719 189.43V179.576H421.619V189.557C421.619 190.462 421.876 191.093 422.391 191.451C422.911 191.803 423.702 191.979 424.764 191.979C425.825 191.979 426.587 191.803 427.049 191.451C427.518 191.1 427.752 190.468 427.752 189.557V179.576H430.652V189.312C430.652 191.227 430.086 192.561 428.953 193.316C428.003 193.941 426.603 194.254 424.754 194.254ZM437.127 186.91H440.057C440.76 186.91 441.235 186.712 441.482 186.314C441.736 185.911 441.863 185.25 441.863 184.332C441.863 183.017 441.574 182.19 440.994 181.852C440.766 181.721 440.486 181.653 440.154 181.646H437.127V186.91ZM434.227 194V179.586H439.881C441.489 179.586 442.674 179.951 443.436 180.68C444.197 181.409 444.578 182.597 444.578 184.244C444.578 185.891 444.21 187.102 443.475 187.877C442.745 188.645 441.453 189.029 439.598 189.029H437.127V194H434.227ZM452 194.254C451.108 194.254 450.164 194.137 449.168 193.902C448.172 193.668 447.312 193.349 446.59 192.945L447.586 190.826C449.031 191.594 450.525 191.979 452.068 191.979C452.843 191.979 453.39 191.819 453.709 191.5C454.028 191.181 454.188 190.702 454.188 190.064C454.188 189.941 454.174 189.755 454.148 189.508C454.09 188.922 453.439 188.443 452.195 188.072L449.734 187.35C448.979 187.128 448.374 186.812 447.918 186.402C447.462 185.986 447.153 185.533 446.99 185.045C446.827 184.55 446.746 183.974 446.746 183.316C446.746 181.995 447.215 181.002 448.152 180.338C449.096 179.674 450.298 179.342 451.756 179.342C453.683 179.342 455.291 179.716 456.58 180.465L455.76 182.506C454.503 181.913 453.253 181.617 452.01 181.617C450.447 181.617 449.643 182.096 449.598 183.053C449.598 183.105 449.598 183.154 449.598 183.199C449.598 183.688 449.718 184.068 449.959 184.342C450.206 184.615 450.708 184.866 451.463 185.094L453.914 185.826C454.904 186.126 455.636 186.598 456.111 187.242C456.593 187.887 456.834 188.805 456.834 189.996C456.834 191.181 456.453 192.187 455.691 193.014C454.936 193.84 453.706 194.254 452 194.254ZM460.672 189.996C460.132 183.818 459.861 180.344 459.861 179.576H462.391C462.391 180.273 462.065 183.746 461.414 189.996H460.672ZM459.812 194V191.607H462.254V194H459.812Z" fill="black"/>
<circle cx="436.211" cy="236.21" r="2.5" fill="black"/>
<circle cx="445.211" cy="236.21" r="2.5" fill="black"/>
<circle cx="445.211" cy="134.21" r="2.5" fill="black"/>
<circle cx="436.211" cy="134.21" r="2.5" fill="black"/>
<path d="M428.5 146.5C438.654 135.494 444.346 137.217 454.5 146.5" stroke="black" stroke-width="2"/>
<defs>
<linearGradient id="paint0_linear" x1="420" y1="185.71" x2="420" y2="285.71" gradientUnits="userSpaceOnUse">
<stop stop-color="white"/>
<stop offset="1" stop-color="white" stop-opacity="0"/>
</linearGradient>
</defs>
</svg>
