<svg width="649" height="460" viewBox="0 0 649 460" fill="none" xmlns="http://www.w3.org/2000/svg">
<path d="M10.1562 4.7207H6.37695V16H4.61914V4.7207H0.839844V3.23633H10.1562V4.7207ZM21.8945 16H20L19.1113 13.2168H13.7988L12.9004 16H11.0938L15.332 3.23633H17.7148L21.8945 16ZM18.6133 11.6641L16.4551 4.83789L14.2969 11.6641H18.6133ZM32.8906 16H30.9961L30.1074 13.2168H24.7949L23.8965 16H22.0898L26.3281 3.23633H28.7109L32.8906 16ZM29.6094 11.6641L27.4512 4.83789L25.293 11.6641H29.6094ZM43.1445 4.7207H39.3652V16H37.6074V4.7207H33.8281V3.23633H43.1445V4.7207ZM53.8086 5.42383C53.3333 5.16992 52.8451 4.97461 52.3438 4.83789C51.8424 4.69466 51.2956 4.62305 50.7031 4.62305C50.026 4.62305 49.4238 4.74349 48.8965 4.98438C48.3691 5.22526 47.9232 5.56706 47.5586 6.00977C47.2005 6.44596 46.9238 6.97331 46.7285 7.5918C46.5397 8.21029 46.4453 8.89388 46.4453 9.64258C46.4453 10.4238 46.5234 11.1237 46.6797 11.7422C46.8359 12.3607 47.0801 12.8848 47.4121 13.3145C47.7441 13.7441 48.1673 14.0729 48.6816 14.3008C49.2025 14.5286 49.8242 14.6426 50.5469 14.6426C50.6706 14.6426 50.804 14.6361 50.9473 14.623C51.0905 14.61 51.2337 14.5938 51.377 14.5742C51.5202 14.5482 51.6569 14.5189 51.7871 14.4863C51.9238 14.4538 52.0443 14.418 52.1484 14.3789V10.3164H49.541V8.88086H53.8672V15.4043C53.6003 15.528 53.3171 15.6387 53.0176 15.7363C52.7246 15.834 52.4219 15.9154 52.1094 15.9805C51.8034 16.0456 51.4974 16.0944 51.1914 16.127C50.8854 16.1595 50.5892 16.1758 50.3027 16.1758C49.4303 16.1758 48.6426 16.0391 47.9395 15.7656C47.2428 15.4922 46.6471 15.0885 46.1523 14.5547C45.6641 14.0143 45.2865 13.3438 45.0195 12.543C44.7591 11.7422 44.6289 10.8145 44.6289 9.75977C44.6289 8.71159 44.7754 7.77409 45.0684 6.94727C45.3613 6.11393 45.7715 5.41081 46.2988 4.83789C46.8327 4.25846 47.4707 3.81901 48.2129 3.51953C48.9616 3.21354 49.7852 3.06055 50.6836 3.06055C51.2565 3.06055 51.8001 3.11263 52.3145 3.2168C52.8353 3.31445 53.3333 3.47396 53.8086 3.69531V5.42383ZM64.6973 15.5215C63.6751 15.9447 62.6042 16.1562 61.4844 16.1562C59.681 16.1562 58.2943 15.6191 57.3242 14.5449C56.3607 13.4642 55.8789 11.8691 55.8789 9.75977C55.8789 8.73763 56.0124 7.81315 56.2793 6.98633C56.5462 6.15951 56.9271 5.45964 57.4219 4.88672C57.9167 4.30729 58.5156 3.86133 59.2188 3.54883C59.9219 3.23633 60.7096 3.08008 61.582 3.08008C62.1745 3.08008 62.7246 3.13216 63.2324 3.23633C63.7402 3.33398 64.2285 3.48698 64.6973 3.69531V5.4043C64.235 5.15039 63.7565 4.95833 63.2617 4.82812C62.7669 4.69141 62.2266 4.62305 61.6406 4.62305C61.0417 4.62305 60.498 4.73698 60.0098 4.96484C59.528 5.1862 59.1178 5.51172 58.7793 5.94141C58.4408 6.36458 58.1803 6.88542 57.998 7.50391C57.8158 8.11589 57.7246 8.81576 57.7246 9.60352C57.7246 11.2572 58.0599 12.5039 58.7305 13.3438C59.401 14.1836 60.3841 14.6035 61.6797 14.6035C62.2266 14.6035 62.7507 14.5417 63.252 14.418C63.7533 14.2878 64.235 14.1087 64.6973 13.8809V15.5215ZM75.6934 15.5215C74.6712 15.9447 73.6003 16.1562 72.4805 16.1562C70.6771 16.1562 69.2904 15.6191 68.3203 14.5449C67.3568 13.4642 66.875 11.8691 66.875 9.75977C66.875 8.73763 67.0085 7.81315 67.2754 6.98633C67.5423 6.15951 67.9232 5.45964 68.418 4.88672C68.9128 4.30729 69.5117 3.86133 70.2148 3.54883C70.918 3.23633 71.7057 3.08008 72.5781 3.08008C73.1706 3.08008 73.7207 3.13216 74.2285 3.23633C74.7363 3.33398 75.2246 3.48698 75.6934 3.69531V5.4043C75.2311 5.15039 74.7526 4.95833 74.2578 4.82812C73.763 4.69141 73.2227 4.62305 72.6367 4.62305C72.0378 4.62305 71.4941 4.73698 71.0059 4.96484C70.5241 5.1862 70.1139 5.51172 69.7754 5.94141C69.4368 6.36458 69.1764 6.88542 68.9941 7.50391C68.8118 8.11589 68.7207 8.81576 68.7207 9.60352C68.7207 11.2572 69.056 12.5039 69.7266 13.3438C70.3971 14.1836 71.3802 14.6035 72.6758 14.6035C73.2227 14.6035 73.7467 14.5417 74.248 14.418C74.7493 14.2878 75.2311 14.1087 75.6934 13.8809V15.5215ZM87.8711 16H85.9766L85.0879 13.2168H79.7754L78.877 16H77.0703L81.3086 3.23633H83.6914L87.8711 16ZM84.5898 11.6641L82.4316 4.83789L80.2734 11.6641H84.5898ZM98.125 4.7207H94.3457V16H92.5879V4.7207H88.8086V3.23633H98.125V4.7207ZM108.789 5.42383C108.314 5.16992 107.826 4.97461 107.324 4.83789C106.823 4.69466 106.276 4.62305 105.684 4.62305C105.007 4.62305 104.404 4.74349 103.877 4.98438C103.35 5.22526 102.904 5.56706 102.539 6.00977C102.181 6.44596 101.904 6.97331 101.709 7.5918C101.52 8.21029 101.426 8.89388 101.426 9.64258C101.426 10.4238 101.504 11.1237 101.66 11.7422C101.816 12.3607 102.061 12.8848 102.393 13.3145C102.725 13.7441 103.148 14.0729 103.662 14.3008C104.183 14.5286 104.805 14.6426 105.527 14.6426C105.651 14.6426 105.785 14.6361 105.928 14.623C106.071 14.61 106.214 14.5938 106.357 14.5742C106.501 14.5482 106.637 14.5189 106.768 14.4863C106.904 14.4538 107.025 14.418 107.129 14.3789V10.3164H104.521V8.88086H108.848V15.4043C108.581 15.528 108.298 15.6387 107.998 15.7363C107.705 15.834 107.402 15.9154 107.09 15.9805C106.784 16.0456 106.478 16.0944 106.172 16.127C105.866 16.1595 105.57 16.1758 105.283 16.1758C104.411 16.1758 103.623 16.0391 102.92 15.7656C102.223 15.4922 101.628 15.0885 101.133 14.5547C100.645 14.0143 100.267 13.3438 100 12.543C99.7396 11.7422 99.6094 10.8145 99.6094 9.75977C99.6094 8.71159 99.7559 7.77409 100.049 6.94727C100.342 6.11393 100.752 5.41081 101.279 4.83789C101.813 4.25846 102.451 3.81901 103.193 3.51953C103.942 3.21354 104.766 3.06055 105.664 3.06055C106.237 3.06055 106.781 3.11263 107.295 3.2168C107.816 3.31445 108.314 3.47396 108.789 3.69531V5.42383ZM119.785 5.42383C119.31 5.16992 118.822 4.97461 118.32 4.83789C117.819 4.69466 117.272 4.62305 116.68 4.62305C116.003 4.62305 115.4 4.74349 114.873 4.98438C114.346 5.22526 113.9 5.56706 113.535 6.00977C113.177 6.44596 112.9 6.97331 112.705 7.5918C112.516 8.21029 112.422 8.89388 112.422 9.64258C112.422 10.4238 112.5 11.1237 112.656 11.7422C112.812 12.3607 113.057 12.8848 113.389 13.3145C113.721 13.7441 114.144 14.0729 114.658 14.3008C115.179 14.5286 115.801 14.6426 116.523 14.6426C116.647 14.6426 116.781 14.6361 116.924 14.623C117.067 14.61 117.21 14.5938 117.354 14.5742C117.497 14.5482 117.633 14.5189 117.764 14.4863C117.9 14.4538 118.021 14.418 118.125 14.3789V10.3164H115.518V8.88086H119.844V15.4043C119.577 15.528 119.294 15.6387 118.994 15.7363C118.701 15.834 118.398 15.9154 118.086 15.9805C117.78 16.0456 117.474 16.0944 117.168 16.127C116.862 16.1595 116.566 16.1758 116.279 16.1758C115.407 16.1758 114.619 16.0391 113.916 15.7656C113.219 15.4922 112.624 15.0885 112.129 14.5547C111.641 14.0143 111.263 13.3438 110.996 12.543C110.736 11.7422 110.605 10.8145 110.605 9.75977C110.605 8.71159 110.752 7.77409 111.045 6.94727C111.338 6.11393 111.748 5.41081 112.275 4.83789C112.809 4.25846 113.447 3.81901 114.189 3.51953C114.938 3.21354 115.762 3.06055 116.66 3.06055C117.233 3.06055 117.777 3.11263 118.291 3.2168C118.812 3.31445 119.31 3.47396 119.785 3.69531V5.42383ZM130.781 5.42383C130.306 5.16992 129.818 4.97461 129.316 4.83789C128.815 4.69466 128.268 4.62305 127.676 4.62305C126.999 4.62305 126.396 4.74349 125.869 4.98438C125.342 5.22526 124.896 5.56706 124.531 6.00977C124.173 6.44596 123.896 6.97331 123.701 7.5918C123.512 8.21029 123.418 8.89388 123.418 9.64258C123.418 10.4238 123.496 11.1237 123.652 11.7422C123.809 12.3607 124.053 12.8848 124.385 13.3145C124.717 13.7441 125.14 14.0729 125.654 14.3008C126.175 14.5286 126.797 14.6426 127.52 14.6426C127.643 14.6426 127.777 14.6361 127.92 14.623C128.063 14.61 128.206 14.5938 128.35 14.5742C128.493 14.5482 128.63 14.5189 128.76 14.4863C128.896 14.4538 129.017 14.418 129.121 14.3789V10.3164H126.514V8.88086H130.84V15.4043C130.573 15.528 130.29 15.6387 129.99 15.7363C129.697 15.834 129.395 15.9154 129.082 15.9805C128.776 16.0456 128.47 16.0944 128.164 16.127C127.858 16.1595 127.562 16.1758 127.275 16.1758C126.403 16.1758 125.615 16.0391 124.912 15.7656C124.215 15.4922 123.62 15.0885 123.125 14.5547C122.637 14.0143 122.259 13.3438 121.992 12.543C121.732 11.7422 121.602 10.8145 121.602 9.75977C121.602 8.71159 121.748 7.77409 122.041 6.94727C122.334 6.11393 122.744 5.41081 123.271 4.83789C123.805 4.25846 124.443 3.81901 125.186 3.51953C125.934 3.21354 126.758 3.06055 127.656 3.06055C128.229 3.06055 128.773 3.11263 129.287 3.2168C129.808 3.31445 130.306 3.47396 130.781 3.69531V5.42383ZM142.852 16H140.957L140.068 13.2168H134.756L133.857 16H132.051L136.289 3.23633H138.672L142.852 16ZM139.57 11.6641L137.412 4.83789L135.254 11.6641H139.57ZM153.105 4.7207H149.326V16H147.568V4.7207H143.789V3.23633H153.105V4.7207ZM163.77 5.42383C163.294 5.16992 162.806 4.97461 162.305 4.83789C161.803 4.69466 161.257 4.62305 160.664 4.62305C159.987 4.62305 159.385 4.74349 158.857 4.98438C158.33 5.22526 157.884 5.56706 157.52 6.00977C157.161 6.44596 156.885 6.97331 156.689 7.5918C156.501 8.21029 156.406 8.89388 156.406 9.64258C156.406 10.4238 156.484 11.1237 156.641 11.7422C156.797 12.3607 157.041 12.8848 157.373 13.3145C157.705 13.7441 158.128 14.0729 158.643 14.3008C159.163 14.5286 159.785 14.6426 160.508 14.6426C160.632 14.6426 160.765 14.6361 160.908 14.623C161.051 14.61 161.195 14.5938 161.338 14.5742C161.481 14.5482 161.618 14.5189 161.748 14.4863C161.885 14.4538 162.005 14.418 162.109 14.3789V10.3164H159.502V8.88086H163.828V15.4043C163.561 15.528 163.278 15.6387 162.979 15.7363C162.686 15.834 162.383 15.9154 162.07 15.9805C161.764 16.0456 161.458 16.0944 161.152 16.127C160.846 16.1595 160.55 16.1758 160.264 16.1758C159.391 16.1758 158.604 16.0391 157.9 15.7656C157.204 15.4922 156.608 15.0885 156.113 14.5547C155.625 14.0143 155.247 13.3438 154.98 12.543C154.72 11.7422 154.59 10.8145 154.59 9.75977C154.59 8.71159 154.736 7.77409 155.029 6.94727C155.322 6.11393 155.732 5.41081 156.26 4.83789C156.794 4.25846 157.432 3.81901 158.174 3.51953C158.923 3.21354 159.746 3.06055 160.645 3.06055C161.217 3.06055 161.761 3.11263 162.275 3.2168C162.796 3.31445 163.294 3.47396 163.77 3.69531V5.42383ZM175.098 4.7207H171.318V16H169.561V4.7207H165.781V3.23633H175.098V4.7207ZM186.094 4.7207H182.314V16H180.557V4.7207H176.777V3.23633H186.094V4.7207ZM10.1562 27.7207H6.37695V39H4.61914V27.7207H0.839844V26.2363H10.1562V27.7207ZM21.8945 39H20L19.1113 36.2168H13.7988L12.9004 39H11.0938L15.332 26.2363H17.7148L21.8945 39ZM18.6133 34.6641L16.4551 27.8379L14.2969 34.6641H18.6133ZM32.8906 39H30.9961L30.1074 36.2168H24.7949L23.8965 39H22.0898L26.3281 26.2363H28.7109L32.8906 39ZM29.6094 34.6641L27.4512 27.8379L25.293 34.6641H29.6094ZM21.8945 62H20L19.1113 59.2168H13.7988L12.9004 62H11.0938L15.332 49.2363H17.7148L21.8945 62ZM18.6133 57.6641L16.4551 50.8379L14.2969 57.6641H18.6133ZM32.8906 62H30.9961L30.1074 59.2168H24.7949L23.8965 62H22.0898L26.3281 49.2363H28.7109L32.8906 62ZM29.6094 57.6641L27.4512 50.8379L25.293 57.6641H29.6094ZM43.1445 50.7207H39.3652V62H37.6074V50.7207H33.8281V49.2363H43.1445V50.7207ZM32.8906 85H30.9961L30.1074 82.2168H24.7949L23.8965 85H22.0898L26.3281 72.2363H28.7109L32.8906 85ZM29.6094 80.6641L27.4512 73.8379L25.293 80.6641H29.6094ZM43.1445 73.7207H39.3652V85H37.6074V73.7207H33.8281V72.2363H43.1445V73.7207ZM53.8086 74.4238C53.3333 74.1699 52.8451 73.9746 52.3438 73.8379C51.8424 73.6947 51.2956 73.623 50.7031 73.623C50.026 73.623 49.4238 73.7435 48.8965 73.9844C48.3691 74.2253 47.9232 74.5671 47.5586 75.0098C47.2005 75.446 46.9238 75.9733 46.7285 76.5918C46.5397 77.2103 46.4453 77.8939 46.4453 78.6426C46.4453 79.4238 46.5234 80.1237 46.6797 80.7422C46.8359 81.3607 47.0801 81.8848 47.4121 82.3145C47.7441 82.7441 48.1673 83.0729 48.6816 83.3008C49.2025 83.5286 49.8242 83.6426 50.5469 83.6426C50.6706 83.6426 50.804 83.6361 50.9473 83.623C51.0905 83.61 51.2337 83.5938 51.377 83.5742C51.5202 83.5482 51.6569 83.5189 51.7871 83.4863C51.9238 83.4538 52.0443 83.418 52.1484 83.3789V79.3164H49.541V77.8809H53.8672V84.4043C53.6003 84.528 53.3171 84.6387 53.0176 84.7363C52.7246 84.834 52.4219 84.9154 52.1094 84.9805C51.8034 85.0456 51.4974 85.0944 51.1914 85.127C50.8854 85.1595 50.5892 85.1758 50.3027 85.1758C49.4303 85.1758 48.6426 85.0391 47.9395 84.7656C47.2428 84.4922 46.6471 84.0885 46.1523 83.5547C45.6641 83.0143 45.2865 82.3438 45.0195 81.543C44.7591 80.7422 44.6289 79.8145 44.6289 78.7598C44.6289 77.7116 44.7754 76.7741 45.0684 75.9473C45.3613 75.1139 45.7715 74.4108 46.2988 73.8379C46.8327 73.2585 47.4707 72.819 48.2129 72.5195C48.9616 72.2135 49.7852 72.0605 50.6836 72.0605C51.2565 72.0605 51.8001 72.1126 52.3145 72.2168C52.8353 72.3145 53.3333 72.474 53.8086 72.6953V74.4238ZM43.1445 96.7207H39.3652V108H37.6074V96.7207H33.8281V95.2363H43.1445V96.7207ZM53.8086 97.4238C53.3333 97.1699 52.8451 96.9746 52.3438 96.8379C51.8424 96.6947 51.2956 96.623 50.7031 96.623C50.026 96.623 49.4238 96.7435 48.8965 96.9844C48.3691 97.2253 47.9232 97.5671 47.5586 98.0098C47.2005 98.446 46.9238 98.9733 46.7285 99.5918C46.5397 100.21 46.4453 100.894 46.4453 101.643C46.4453 102.424 46.5234 103.124 46.6797 103.742C46.8359 104.361 47.0801 104.885 47.4121 105.314C47.7441 105.744 48.1673 106.073 48.6816 106.301C49.2025 106.529 49.8242 106.643 50.5469 106.643C50.6706 106.643 50.804 106.636 50.9473 106.623C51.0905 106.61 51.2337 106.594 51.377 106.574C51.5202 106.548 51.6569 106.519 51.7871 106.486C51.9238 106.454 52.0443 106.418 52.1484 106.379V102.316H49.541V100.881H53.8672V107.404C53.6003 107.528 53.3171 107.639 53.0176 107.736C52.7246 107.834 52.4219 107.915 52.1094 107.98C51.8034 108.046 51.4974 108.094 51.1914 108.127C50.8854 108.16 50.5892 108.176 50.3027 108.176C49.4303 108.176 48.6426 108.039 47.9395 107.766C47.2428 107.492 46.6471 107.089 46.1523 106.555C45.6641 106.014 45.2865 105.344 45.0195 104.543C44.7591 103.742 44.6289 102.814 44.6289 101.76C44.6289 100.712 44.7754 99.7741 45.0684 98.9473C45.3613 98.1139 45.7715 97.4108 46.2988 96.8379C46.8327 96.2585 47.4707 95.819 48.2129 95.5195C48.9616 95.2135 49.7852 95.0605 50.6836 95.0605C51.2565 95.0605 51.8001 95.1126 52.3145 95.2168C52.8353 95.3145 53.3333 95.474 53.8086 95.6953V97.4238ZM64.6973 107.521C63.6751 107.945 62.6042 108.156 61.4844 108.156C59.681 108.156 58.2943 107.619 57.3242 106.545C56.3607 105.464 55.8789 103.869 55.8789 101.76C55.8789 100.738 56.0124 99.8132 56.2793 98.9863C56.5462 98.1595 56.9271 97.4596 57.4219 96.8867C57.9167 96.3073 58.5156 95.8613 59.2188 95.5488C59.9219 95.2363 60.7096 95.0801 61.582 95.0801C62.1745 95.0801 62.7246 95.1322 63.2324 95.2363C63.7402 95.334 64.2285 95.487 64.6973 95.6953V97.4043C64.235 97.1504 63.7565 96.9583 63.2617 96.8281C62.7669 96.6914 62.2266 96.623 61.6406 96.623C61.0417 96.623 60.498 96.737 60.0098 96.9648C59.528 97.1862 59.1178 97.5117 58.7793 97.9414C58.4408 98.3646 58.1803 98.8854 57.998 99.5039C57.8158 100.116 57.7246 100.816 57.7246 101.604C57.7246 103.257 58.0599 104.504 58.7305 105.344C59.401 106.184 60.3841 106.604 61.6797 106.604C62.2266 106.604 62.7507 106.542 63.252 106.418C63.7533 106.288 64.235 106.109 64.6973 105.881V107.521ZM53.8086 120.424C53.3333 120.17 52.8451 119.975 52.3438 119.838C51.8424 119.695 51.2956 119.623 50.7031 119.623C50.026 119.623 49.4238 119.743 48.8965 119.984C48.3691 120.225 47.9232 120.567 47.5586 121.01C47.2005 121.446 46.9238 121.973 46.7285 122.592C46.5397 123.21 46.4453 123.894 46.4453 124.643C46.4453 125.424 46.5234 126.124 46.6797 126.742C46.8359 127.361 47.0801 127.885 47.4121 128.314C47.7441 128.744 48.1673 129.073 48.6816 129.301C49.2025 129.529 49.8242 129.643 50.5469 129.643C50.6706 129.643 50.804 129.636 50.9473 129.623C51.0905 129.61 51.2337 129.594 51.377 129.574C51.5202 129.548 51.6569 129.519 51.7871 129.486C51.9238 129.454 52.0443 129.418 52.1484 129.379V125.316H49.541V123.881H53.8672V130.404C53.6003 130.528 53.3171 130.639 53.0176 130.736C52.7246 130.834 52.4219 130.915 52.1094 130.98C51.8034 131.046 51.4974 131.094 51.1914 131.127C50.8854 131.16 50.5892 131.176 50.3027 131.176C49.4303 131.176 48.6426 131.039 47.9395 130.766C47.2428 130.492 46.6471 130.089 46.1523 129.555C45.6641 129.014 45.2865 128.344 45.0195 127.543C44.7591 126.742 44.6289 125.814 44.6289 124.76C44.6289 123.712 44.7754 122.774 45.0684 121.947C45.3613 121.114 45.7715 120.411 46.2988 119.838C46.8327 119.258 47.4707 118.819 48.2129 118.52C48.9616 118.214 49.7852 118.061 50.6836 118.061C51.2565 118.061 51.8001 118.113 52.3145 118.217C52.8353 118.314 53.3333 118.474 53.8086 118.695V120.424ZM64.6973 130.521C63.6751 130.945 62.6042 131.156 61.4844 131.156C59.681 131.156 58.2943 130.619 57.3242 129.545C56.3607 128.464 55.8789 126.869 55.8789 124.76C55.8789 123.738 56.0124 122.813 56.2793 121.986C56.5462 121.16 56.9271 120.46 57.4219 119.887C57.9167 119.307 58.5156 118.861 59.2188 118.549C59.9219 118.236 60.7096 118.08 61.582 118.08C62.1745 118.08 62.7246 118.132 63.2324 118.236C63.7402 118.334 64.2285 118.487 64.6973 118.695V120.404C64.235 120.15 63.7565 119.958 63.2617 119.828C62.7669 119.691 62.2266 119.623 61.6406 119.623C61.0417 119.623 60.498 119.737 60.0098 119.965C59.528 120.186 59.1178 120.512 58.7793 120.941C58.4408 121.365 58.1803 121.885 57.998 122.504C57.8158 123.116 57.7246 123.816 57.7246 124.604C57.7246 126.257 58.0599 127.504 58.7305 128.344C59.401 129.184 60.3841 129.604 61.6797 129.604C62.2266 129.604 62.7507 129.542 63.252 129.418C63.7533 129.288 64.235 129.109 64.6973 128.881V130.521ZM75.6934 130.521C74.6712 130.945 73.6003 131.156 72.4805 131.156C70.6771 131.156 69.2904 130.619 68.3203 129.545C67.3568 128.464 66.875 126.869 66.875 124.76C66.875 123.738 67.0085 122.813 67.2754 121.986C67.5423 121.16 67.9232 120.46 68.418 119.887C68.9128 119.307 69.5117 118.861 70.2148 118.549C70.918 118.236 71.7057 118.08 72.5781 118.08C73.1706 118.08 73.7207 118.132 74.2285 118.236C74.7363 118.334 75.2246 118.487 75.6934 118.695V120.404C75.2311 120.15 74.7526 119.958 74.2578 119.828C73.763 119.691 73.2227 119.623 72.6367 119.623C72.0378 119.623 71.4941 119.737 71.0059 119.965C70.5241 120.186 70.1139 120.512 69.7754 120.941C69.4368 121.365 69.1764 121.885 68.9941 122.504C68.8118 123.116 68.7207 123.816 68.7207 124.604C68.7207 126.257 69.056 127.504 69.7266 128.344C70.3971 129.184 71.3802 129.604 72.6758 129.604C73.2227 129.604 73.7467 129.542 74.248 129.418C74.7493 129.288 75.2311 129.109 75.6934 128.881V130.521ZM64.6973 153.521C63.6751 153.945 62.6042 154.156 61.4844 154.156C59.681 154.156 58.2943 153.619 57.3242 152.545C56.3607 151.464 55.8789 149.869 55.8789 147.76C55.8789 146.738 56.0124 145.813 56.2793 144.986C56.5462 144.16 56.9271 143.46 57.4219 142.887C57.9167 142.307 58.5156 141.861 59.2188 141.549C59.9219 141.236 60.7096 141.08 61.582 141.08C62.1745 141.08 62.7246 141.132 63.2324 141.236C63.7402 141.334 64.2285 141.487 64.6973 141.695V143.404C64.235 143.15 63.7565 142.958 63.2617 142.828C62.7669 142.691 62.2266 142.623 61.6406 142.623C61.0417 142.623 60.498 142.737 60.0098 142.965C59.528 143.186 59.1178 143.512 58.7793 143.941C58.4408 144.365 58.1803 144.885 57.998 145.504C57.8158 146.116 57.7246 146.816 57.7246 147.604C57.7246 149.257 58.0599 150.504 58.7305 151.344C59.401 152.184 60.3841 152.604 61.6797 152.604C62.2266 152.604 62.7507 152.542 63.252 152.418C63.7533 152.288 64.235 152.109 64.6973 151.881V153.521ZM75.6934 153.521C74.6712 153.945 73.6003 154.156 72.4805 154.156C70.6771 154.156 69.2904 153.619 68.3203 152.545C67.3568 151.464 66.875 149.869 66.875 147.76C66.875 146.738 67.0085 145.813 67.2754 144.986C67.5423 144.16 67.9232 143.46 68.418 142.887C68.9128 142.307 69.5117 141.861 70.2148 141.549C70.918 141.236 71.7057 141.08 72.5781 141.08C73.1706 141.08 73.7207 141.132 74.2285 141.236C74.7363 141.334 75.2246 141.487 75.6934 141.695V143.404C75.2311 143.15 74.7526 142.958 74.2578 142.828C73.763 142.691 73.2227 142.623 72.6367 142.623C72.0378 142.623 71.4941 142.737 71.0059 142.965C70.5241 143.186 70.1139 143.512 69.7754 143.941C69.4368 144.365 69.1764 144.885 68.9941 145.504C68.8118 146.116 68.7207 146.816 68.7207 147.604C68.7207 149.257 69.056 150.504 69.7266 151.344C70.3971 152.184 71.3802 152.604 72.6758 152.604C73.2227 152.604 73.7467 152.542 74.248 152.418C74.7493 152.288 75.2311 152.109 75.6934 151.881V153.521ZM87.8711 154H85.9766L85.0879 151.217H79.7754L78.877 154H77.0703L81.3086 141.236H83.6914L87.8711 154ZM84.5898 149.664L82.4316 142.838L80.2734 149.664H84.5898ZM75.6934 176.521C74.6712 176.945 73.6003 177.156 72.4805 177.156C70.6771 177.156 69.2904 176.619 68.3203 175.545C67.3568 174.464 66.875 172.869 66.875 170.76C66.875 169.738 67.0085 168.813 67.2754 167.986C67.5423 167.16 67.9232 166.46 68.418 165.887C68.9128 165.307 69.5117 164.861 70.2148 164.549C70.918 164.236 71.7057 164.08 72.5781 164.08C73.1706 164.08 73.7207 164.132 74.2285 164.236C74.7363 164.334 75.2246 164.487 75.6934 164.695V166.404C75.2311 166.15 74.7526 165.958 74.2578 165.828C73.763 165.691 73.2227 165.623 72.6367 165.623C72.0378 165.623 71.4941 165.737 71.0059 165.965C70.5241 166.186 70.1139 166.512 69.7754 166.941C69.4368 167.365 69.1764 167.885 68.9941 168.504C68.8118 169.116 68.7207 169.816 68.7207 170.604C68.7207 172.257 69.056 173.504 69.7266 174.344C70.3971 175.184 71.3802 175.604 72.6758 175.604C73.2227 175.604 73.7467 175.542 74.248 175.418C74.7493 175.288 75.2311 175.109 75.6934 174.881V176.521ZM87.8711 177H85.9766L85.0879 174.217H79.7754L78.877 177H77.0703L81.3086 164.236H83.6914L87.8711 177ZM84.5898 172.664L82.4316 165.838L80.2734 172.664H84.5898ZM98.125 165.721H94.3457V177H92.5879V165.721H88.8086V164.236H98.125V165.721ZM87.8711 200H85.9766L85.0879 197.217H79.7754L78.877 200H77.0703L81.3086 187.236H83.6914L87.8711 200ZM84.5898 195.664L82.4316 188.838L80.2734 195.664H84.5898ZM98.125 188.721H94.3457V200H92.5879V188.721H88.8086V187.236H98.125V188.721ZM108.789 189.424C108.314 189.17 107.826 188.975 107.324 188.838C106.823 188.695 106.276 188.623 105.684 188.623C105.007 188.623 104.404 188.743 103.877 188.984C103.35 189.225 102.904 189.567 102.539 190.01C102.181 190.446 101.904 190.973 101.709 191.592C101.52 192.21 101.426 192.894 101.426 193.643C101.426 194.424 101.504 195.124 101.66 195.742C101.816 196.361 102.061 196.885 102.393 197.314C102.725 197.744 103.148 198.073 103.662 198.301C104.183 198.529 104.805 198.643 105.527 198.643C105.651 198.643 105.785 198.636 105.928 198.623C106.071 198.61 106.214 198.594 106.357 198.574C106.501 198.548 106.637 198.519 106.768 198.486C106.904 198.454 107.025 198.418 107.129 198.379V194.316H104.521V192.881H108.848V199.404C108.581 199.528 108.298 199.639 107.998 199.736C107.705 199.834 107.402 199.915 107.09 199.98C106.784 200.046 106.478 200.094 106.172 200.127C105.866 200.16 105.57 200.176 105.283 200.176C104.411 200.176 103.623 200.039 102.92 199.766C102.223 199.492 101.628 199.089 101.133 198.555C100.645 198.014 100.267 197.344 100 196.543C99.7396 195.742 99.6094 194.814 99.6094 193.76C99.6094 192.712 99.7559 191.774 100.049 190.947C100.342 190.114 100.752 189.411 101.279 188.838C101.813 188.258 102.451 187.819 103.193 187.52C103.942 187.214 104.766 187.061 105.664 187.061C106.237 187.061 106.781 187.113 107.295 187.217C107.816 187.314 108.314 187.474 108.789 187.695V189.424ZM98.125 211.721H94.3457V223H92.5879V211.721H88.8086V210.236H98.125V211.721ZM108.789 212.424C108.314 212.17 107.826 211.975 107.324 211.838C106.823 211.695 106.276 211.623 105.684 211.623C105.007 211.623 104.404 211.743 103.877 211.984C103.35 212.225 102.904 212.567 102.539 213.01C102.181 213.446 101.904 213.973 101.709 214.592C101.52 215.21 101.426 215.894 101.426 216.643C101.426 217.424 101.504 218.124 101.66 218.742C101.816 219.361 102.061 219.885 102.393 220.314C102.725 220.744 103.148 221.073 103.662 221.301C104.183 221.529 104.805 221.643 105.527 221.643C105.651 221.643 105.785 221.636 105.928 221.623C106.071 221.61 106.214 221.594 106.357 221.574C106.501 221.548 106.637 221.519 106.768 221.486C106.904 221.454 107.025 221.418 107.129 221.379V217.316H104.521V215.881H108.848V222.404C108.581 222.528 108.298 222.639 107.998 222.736C107.705 222.834 107.402 222.915 107.09 222.98C106.784 223.046 106.478 223.094 106.172 223.127C105.866 223.16 105.57 223.176 105.283 223.176C104.411 223.176 103.623 223.039 102.92 222.766C102.223 222.492 101.628 222.089 101.133 221.555C100.645 221.014 100.267 220.344 100 219.543C99.7396 218.742 99.6094 217.814 99.6094 216.76C99.6094 215.712 99.7559 214.774 100.049 213.947C100.342 213.114 100.752 212.411 101.279 211.838C101.813 211.258 102.451 210.819 103.193 210.52C103.942 210.214 104.766 210.061 105.664 210.061C106.237 210.061 106.781 210.113 107.295 210.217C107.816 210.314 108.314 210.474 108.789 210.695V212.424ZM119.785 212.424C119.31 212.17 118.822 211.975 118.32 211.838C117.819 211.695 117.272 211.623 116.68 211.623C116.003 211.623 115.4 211.743 114.873 211.984C114.346 212.225 113.9 212.567 113.535 213.01C113.177 213.446 112.9 213.973 112.705 214.592C112.516 215.21 112.422 215.894 112.422 216.643C112.422 217.424 112.5 218.124 112.656 218.742C112.812 219.361 113.057 219.885 113.389 220.314C113.721 220.744 114.144 221.073 114.658 221.301C115.179 221.529 115.801 221.643 116.523 221.643C116.647 221.643 116.781 221.636 116.924 221.623C117.067 221.61 117.21 221.594 117.354 221.574C117.497 221.548 117.633 221.519 117.764 221.486C117.9 221.454 118.021 221.418 118.125 221.379V217.316H115.518V215.881H119.844V222.404C119.577 222.528 119.294 222.639 118.994 222.736C118.701 222.834 118.398 222.915 118.086 222.98C117.78 223.046 117.474 223.094 117.168 223.127C116.862 223.16 116.566 223.176 116.279 223.176C115.407 223.176 114.619 223.039 113.916 222.766C113.219 222.492 112.624 222.089 112.129 221.555C111.641 221.014 111.263 220.344 110.996 219.543C110.736 218.742 110.605 217.814 110.605 216.76C110.605 215.712 110.752 214.774 111.045 213.947C111.338 213.114 111.748 212.411 112.275 211.838C112.809 211.258 113.447 210.819 114.189 210.52C114.938 210.214 115.762 210.061 116.66 210.061C117.233 210.061 117.777 210.113 118.291 210.217C118.812 210.314 119.31 210.474 119.785 210.695V212.424ZM108.789 235.424C108.314 235.17 107.826 234.975 107.324 234.838C106.823 234.695 106.276 234.623 105.684 234.623C105.007 234.623 104.404 234.743 103.877 234.984C103.35 235.225 102.904 235.567 102.539 236.01C102.181 236.446 101.904 236.973 101.709 237.592C101.52 238.21 101.426 238.894 101.426 239.643C101.426 240.424 101.504 241.124 101.66 241.742C101.816 242.361 102.061 242.885 102.393 243.314C102.725 243.744 103.148 244.073 103.662 244.301C104.183 244.529 104.805 244.643 105.527 244.643C105.651 244.643 105.785 244.636 105.928 244.623C106.071 244.61 106.214 244.594 106.357 244.574C106.501 244.548 106.637 244.519 106.768 244.486C106.904 244.454 107.025 244.418 107.129 244.379V240.316H104.521V238.881H108.848V245.404C108.581 245.528 108.298 245.639 107.998 245.736C107.705 245.834 107.402 245.915 107.09 245.98C106.784 246.046 106.478 246.094 106.172 246.127C105.866 246.16 105.57 246.176 105.283 246.176C104.411 246.176 103.623 246.039 102.92 245.766C102.223 245.492 101.628 245.089 101.133 244.555C100.645 244.014 100.267 243.344 100 242.543C99.7396 241.742 99.6094 240.814 99.6094 239.76C99.6094 238.712 99.7559 237.774 100.049 236.947C100.342 236.114 100.752 235.411 101.279 234.838C101.813 234.258 102.451 233.819 103.193 233.52C103.942 233.214 104.766 233.061 105.664 233.061C106.237 233.061 106.781 233.113 107.295 233.217C107.816 233.314 108.314 233.474 108.789 233.695V235.424ZM119.785 235.424C119.31 235.17 118.822 234.975 118.32 234.838C117.819 234.695 117.272 234.623 116.68 234.623C116.003 234.623 115.4 234.743 114.873 234.984C114.346 235.225 113.9 235.567 113.535 236.01C113.177 236.446 112.9 236.973 112.705 237.592C112.516 238.21 112.422 238.894 112.422 239.643C112.422 240.424 112.5 241.124 112.656 241.742C112.812 242.361 113.057 242.885 113.389 243.314C113.721 243.744 114.144 244.073 114.658 244.301C115.179 244.529 115.801 244.643 116.523 244.643C116.647 244.643 116.781 244.636 116.924 244.623C117.067 244.61 117.21 244.594 117.354 244.574C117.497 244.548 117.633 244.519 117.764 244.486C117.9 244.454 118.021 244.418 118.125 244.379V240.316H115.518V238.881H119.844V245.404C119.577 245.528 119.294 245.639 118.994 245.736C118.701 245.834 118.398 245.915 118.086 245.98C117.78 246.046 117.474 246.094 117.168 246.127C116.862 246.16 116.566 246.176 116.279 246.176C115.407 246.176 114.619 246.039 113.916 245.766C113.219 245.492 112.624 245.089 112.129 244.555C111.641 244.014 111.263 243.344 110.996 242.543C110.736 241.742 110.605 240.814 110.605 239.76C110.605 238.712 110.752 237.774 111.045 236.947C111.338 236.114 111.748 235.411 112.275 234.838C112.809 234.258 113.447 233.819 114.189 233.52C114.938 233.214 115.762 233.061 116.66 233.061C117.233 233.061 117.777 233.113 118.291 233.217C118.812 233.314 119.31 233.474 119.785 233.695V235.424ZM130.781 235.424C130.306 235.17 129.818 234.975 129.316 234.838C128.815 234.695 128.268 234.623 127.676 234.623C126.999 234.623 126.396 234.743 125.869 234.984C125.342 235.225 124.896 235.567 124.531 236.01C124.173 236.446 123.896 236.973 123.701 237.592C123.512 238.21 123.418 238.894 123.418 239.643C123.418 240.424 123.496 241.124 123.652 241.742C123.809 242.361 124.053 242.885 124.385 243.314C124.717 243.744 125.14 244.073 125.654 244.301C126.175 244.529 126.797 244.643 127.52 244.643C127.643 244.643 127.777 244.636 127.92 244.623C128.063 244.61 128.206 244.594 128.35 244.574C128.493 244.548 128.63 244.519 128.76 244.486C128.896 244.454 129.017 244.418 129.121 244.379V240.316H126.514V238.881H130.84V245.404C130.573 245.528 130.29 245.639 129.99 245.736C129.697 245.834 129.395 245.915 129.082 245.98C128.776 246.046 128.47 246.094 128.164 246.127C127.858 246.16 127.562 246.176 127.275 246.176C126.403 246.176 125.615 246.039 124.912 245.766C124.215 245.492 123.62 245.089 123.125 244.555C122.637 244.014 122.259 243.344 121.992 242.543C121.732 241.742 121.602 240.814 121.602 239.76C121.602 238.712 121.748 237.774 122.041 236.947C122.334 236.114 122.744 235.411 123.271 234.838C123.805 234.258 124.443 233.819 125.186 233.52C125.934 233.214 126.758 233.061 127.656 233.061C128.229 233.061 128.773 233.113 129.287 233.217C129.808 233.314 130.306 233.474 130.781 233.695V235.424ZM119.785 258.424C119.31 258.17 118.822 257.975 118.32 257.838C117.819 257.695 117.272 257.623 116.68 257.623C116.003 257.623 115.4 257.743 114.873 257.984C114.346 258.225 113.9 258.567 113.535 259.01C113.177 259.446 112.9 259.973 112.705 260.592C112.516 261.21 112.422 261.894 112.422 262.643C112.422 263.424 112.5 264.124 112.656 264.742C112.812 265.361 113.057 265.885 113.389 266.314C113.721 266.744 114.144 267.073 114.658 267.301C115.179 267.529 115.801 267.643 116.523 267.643C116.647 267.643 116.781 267.636 116.924 267.623C117.067 267.61 117.21 267.594 117.354 267.574C117.497 267.548 117.633 267.519 117.764 267.486C117.9 267.454 118.021 267.418 118.125 267.379V263.316H115.518V261.881H119.844V268.404C119.577 268.528 119.294 268.639 118.994 268.736C118.701 268.834 118.398 268.915 118.086 268.98C117.78 269.046 117.474 269.094 117.168 269.127C116.862 269.16 116.566 269.176 116.279 269.176C115.407 269.176 114.619 269.039 113.916 268.766C113.219 268.492 112.624 268.089 112.129 267.555C111.641 267.014 111.263 266.344 110.996 265.543C110.736 264.742 110.605 263.814 110.605 262.76C110.605 261.712 110.752 260.774 111.045 259.947C111.338 259.114 111.748 258.411 112.275 257.838C112.809 257.258 113.447 256.819 114.189 256.52C114.938 256.214 115.762 256.061 116.66 256.061C117.233 256.061 117.777 256.113 118.291 256.217C118.812 256.314 119.31 256.474 119.785 256.695V258.424ZM130.781 258.424C130.306 258.17 129.818 257.975 129.316 257.838C128.815 257.695 128.268 257.623 127.676 257.623C126.999 257.623 126.396 257.743 125.869 257.984C125.342 258.225 124.896 258.567 124.531 259.01C124.173 259.446 123.896 259.973 123.701 260.592C123.512 261.21 123.418 261.894 123.418 262.643C123.418 263.424 123.496 264.124 123.652 264.742C123.809 265.361 124.053 265.885 124.385 266.314C124.717 266.744 125.14 267.073 125.654 267.301C126.175 267.529 126.797 267.643 127.52 267.643C127.643 267.643 127.777 267.636 127.92 267.623C128.063 267.61 128.206 267.594 128.35 267.574C128.493 267.548 128.63 267.519 128.76 267.486C128.896 267.454 129.017 267.418 129.121 267.379V263.316H126.514V261.881H130.84V268.404C130.573 268.528 130.29 268.639 129.99 268.736C129.697 268.834 129.395 268.915 129.082 268.98C128.776 269.046 128.47 269.094 128.164 269.127C127.858 269.16 127.562 269.176 127.275 269.176C126.403 269.176 125.615 269.039 124.912 268.766C124.215 268.492 123.62 268.089 123.125 267.555C122.637 267.014 122.259 266.344 121.992 265.543C121.732 264.742 121.602 263.814 121.602 262.76C121.602 261.712 121.748 260.774 122.041 259.947C122.334 259.114 122.744 258.411 123.271 257.838C123.805 257.258 124.443 256.819 125.186 256.52C125.934 256.214 126.758 256.061 127.656 256.061C128.229 256.061 128.773 256.113 129.287 256.217C129.808 256.314 130.306 256.474 130.781 256.695V258.424ZM142.852 269H140.957L140.068 266.217H134.756L133.857 269H132.051L136.289 256.236H138.672L142.852 269ZM139.57 264.664L137.412 257.838L135.254 264.664H139.57ZM130.781 281.424C130.306 281.17 129.818 280.975 129.316 280.838C128.815 280.695 128.268 280.623 127.676 280.623C126.999 280.623 126.396 280.743 125.869 280.984C125.342 281.225 124.896 281.567 124.531 282.01C124.173 282.446 123.896 282.973 123.701 283.592C123.512 284.21 123.418 284.894 123.418 285.643C123.418 286.424 123.496 287.124 123.652 287.742C123.809 288.361 124.053 288.885 124.385 289.314C124.717 289.744 125.14 290.073 125.654 290.301C126.175 290.529 126.797 290.643 127.52 290.643C127.643 290.643 127.777 290.636 127.92 290.623C128.063 290.61 128.206 290.594 128.35 290.574C128.493 290.548 128.63 290.519 128.76 290.486C128.896 290.454 129.017 290.418 129.121 290.379V286.316H126.514V284.881H130.84V291.404C130.573 291.528 130.29 291.639 129.99 291.736C129.697 291.834 129.395 291.915 129.082 291.98C128.776 292.046 128.47 292.094 128.164 292.127C127.858 292.16 127.562 292.176 127.275 292.176C126.403 292.176 125.615 292.039 124.912 291.766C124.215 291.492 123.62 291.089 123.125 290.555C122.637 290.014 122.259 289.344 121.992 288.543C121.732 287.742 121.602 286.814 121.602 285.76C121.602 284.712 121.748 283.774 122.041 282.947C122.334 282.114 122.744 281.411 123.271 280.838C123.805 280.258 124.443 279.819 125.186 279.52C125.934 279.214 126.758 279.061 127.656 279.061C128.229 279.061 128.773 279.113 129.287 279.217C129.808 279.314 130.306 279.474 130.781 279.695V281.424ZM142.852 292H140.957L140.068 289.217H134.756L133.857 292H132.051L136.289 279.236H138.672L142.852 292ZM139.57 287.664L137.412 280.838L135.254 287.664H139.57ZM153.105 280.721H149.326V292H147.568V280.721H143.789V279.236H153.105V280.721ZM142.852 315H140.957L140.068 312.217H134.756L133.857 315H132.051L136.289 302.236H138.672L142.852 315ZM139.57 310.664L137.412 303.838L135.254 310.664H139.57ZM153.105 303.721H149.326V315H147.568V303.721H143.789V302.236H153.105V303.721ZM163.77 304.424C163.294 304.17 162.806 303.975 162.305 303.838C161.803 303.695 161.257 303.623 160.664 303.623C159.987 303.623 159.385 303.743 158.857 303.984C158.33 304.225 157.884 304.567 157.52 305.01C157.161 305.446 156.885 305.973 156.689 306.592C156.501 307.21 156.406 307.894 156.406 308.643C156.406 309.424 156.484 310.124 156.641 310.742C156.797 311.361 157.041 311.885 157.373 312.314C157.705 312.744 158.128 313.073 158.643 313.301C159.163 313.529 159.785 313.643 160.508 313.643C160.632 313.643 160.765 313.636 160.908 313.623C161.051 313.61 161.195 313.594 161.338 313.574C161.481 313.548 161.618 313.519 161.748 313.486C161.885 313.454 162.005 313.418 162.109 313.379V309.316H159.502V307.881H163.828V314.404C163.561 314.528 163.278 314.639 162.979 314.736C162.686 314.834 162.383 314.915 162.07 314.98C161.764 315.046 161.458 315.094 161.152 315.127C160.846 315.16 160.55 315.176 160.264 315.176C159.391 315.176 158.604 315.039 157.9 314.766C157.204 314.492 156.608 314.089 156.113 313.555C155.625 313.014 155.247 312.344 154.98 311.543C154.72 310.742 154.59 309.814 154.59 308.76C154.59 307.712 154.736 306.774 155.029 305.947C155.322 305.114 155.732 304.411 156.26 303.838C156.794 303.258 157.432 302.819 158.174 302.52C158.923 302.214 159.746 302.061 160.645 302.061C161.217 302.061 161.761 302.113 162.275 302.217C162.796 302.314 163.294 302.474 163.77 302.695V304.424ZM153.105 326.721H149.326V338H147.568V326.721H143.789V325.236H153.105V326.721ZM163.77 327.424C163.294 327.17 162.806 326.975 162.305 326.838C161.803 326.695 161.257 326.623 160.664 326.623C159.987 326.623 159.385 326.743 158.857 326.984C158.33 327.225 157.884 327.567 157.52 328.01C157.161 328.446 156.885 328.973 156.689 329.592C156.501 330.21 156.406 330.894 156.406 331.643C156.406 332.424 156.484 333.124 156.641 333.742C156.797 334.361 157.041 334.885 157.373 335.314C157.705 335.744 158.128 336.073 158.643 336.301C159.163 336.529 159.785 336.643 160.508 336.643C160.632 336.643 160.765 336.636 160.908 336.623C161.051 336.61 161.195 336.594 161.338 336.574C161.481 336.548 161.618 336.519 161.748 336.486C161.885 336.454 162.005 336.418 162.109 336.379V332.316H159.502V330.881H163.828V337.404C163.561 337.528 163.278 337.639 162.979 337.736C162.686 337.834 162.383 337.915 162.07 337.98C161.764 338.046 161.458 338.094 161.152 338.127C160.846 338.16 160.55 338.176 160.264 338.176C159.391 338.176 158.604 338.039 157.9 337.766C157.204 337.492 156.608 337.089 156.113 336.555C155.625 336.014 155.247 335.344 154.98 334.543C154.72 333.742 154.59 332.814 154.59 331.76C154.59 330.712 154.736 329.774 155.029 328.947C155.322 328.114 155.732 327.411 156.26 326.838C156.794 326.258 157.432 325.819 158.174 325.52C158.923 325.214 159.746 325.061 160.645 325.061C161.217 325.061 161.761 325.113 162.275 325.217C162.796 325.314 163.294 325.474 163.77 325.695V327.424ZM175.098 326.721H171.318V338H169.561V326.721H165.781V325.236H175.098V326.721ZM163.77 350.424C163.294 350.17 162.806 349.975 162.305 349.838C161.803 349.695 161.257 349.623 160.664 349.623C159.987 349.623 159.385 349.743 158.857 349.984C158.33 350.225 157.884 350.567 157.52 351.01C157.161 351.446 156.885 351.973 156.689 352.592C156.501 353.21 156.406 353.894 156.406 354.643C156.406 355.424 156.484 356.124 156.641 356.742C156.797 357.361 157.041 357.885 157.373 358.314C157.705 358.744 158.128 359.073 158.643 359.301C159.163 359.529 159.785 359.643 160.508 359.643C160.632 359.643 160.765 359.636 160.908 359.623C161.051 359.61 161.195 359.594 161.338 359.574C161.481 359.548 161.618 359.519 161.748 359.486C161.885 359.454 162.005 359.418 162.109 359.379V355.316H159.502V353.881H163.828V360.404C163.561 360.528 163.278 360.639 162.979 360.736C162.686 360.834 162.383 360.915 162.07 360.98C161.764 361.046 161.458 361.094 161.152 361.127C160.846 361.16 160.55 361.176 160.264 361.176C159.391 361.176 158.604 361.039 157.9 360.766C157.204 360.492 156.608 360.089 156.113 359.555C155.625 359.014 155.247 358.344 154.98 357.543C154.72 356.742 154.59 355.814 154.59 354.76C154.59 353.712 154.736 352.774 155.029 351.947C155.322 351.114 155.732 350.411 156.26 349.838C156.794 349.258 157.432 348.819 158.174 348.52C158.923 348.214 159.746 348.061 160.645 348.061C161.217 348.061 161.761 348.113 162.275 348.217C162.796 348.314 163.294 348.474 163.77 348.695V350.424ZM175.098 349.721H171.318V361H169.561V349.721H165.781V348.236H175.098V349.721ZM186.094 349.721H182.314V361H180.557V349.721H176.777V348.236H186.094V349.721Z" fill="#C9D1D9"/>
<path d="M10.2246 407H8.03711L3.26172 400.74V407H1.52344V394.236H3.26172V400.164L7.93945 394.236H10L4.96094 400.301L10.2246 407ZM21.0938 402.02C21.0938 402.781 20.9863 403.481 20.7715 404.119C20.5566 404.751 20.2474 405.294 19.8438 405.75C19.4401 406.199 18.9486 406.551 18.3691 406.805C17.7897 407.052 17.1322 407.176 16.3965 407.176C15.6934 407.176 15.0618 407.068 14.502 406.854C13.9486 406.632 13.4766 406.31 13.0859 405.887C12.7018 405.464 12.4056 404.939 12.1973 404.314C11.9954 403.689 11.8945 402.97 11.8945 402.156C11.8945 401.395 12.002 400.701 12.2168 400.076C12.4316 399.445 12.7409 398.904 13.1445 398.455C13.5482 397.999 14.0397 397.648 14.6191 397.4C15.1986 397.146 15.8561 397.02 16.5918 397.02C17.2949 397.02 17.9232 397.13 18.4766 397.352C19.0365 397.566 19.5085 397.885 19.8926 398.309C20.2832 398.725 20.5794 399.246 20.7812 399.871C20.9896 400.496 21.0938 401.212 21.0938 402.02ZM19.3555 402.098C19.3555 401.492 19.2871 400.965 19.1504 400.516C19.0202 400.06 18.8314 399.682 18.584 399.383C18.3366 399.077 18.0339 398.849 17.6758 398.699C17.3242 398.543 16.9303 398.465 16.4941 398.465C15.9863 398.465 15.5501 398.566 15.1855 398.768C14.8275 398.963 14.5312 399.227 14.2969 399.559C14.069 399.891 13.8997 400.278 13.7891 400.721C13.6849 401.157 13.6328 401.616 13.6328 402.098C13.6328 402.703 13.6979 403.234 13.8281 403.689C13.9648 404.145 14.1569 404.526 14.4043 404.832C14.6517 405.132 14.9512 405.359 15.3027 405.516C15.6543 405.665 16.0514 405.74 16.4941 405.74C17.002 405.74 17.4349 405.643 17.793 405.447C18.1576 405.245 18.4538 404.979 18.6816 404.646C18.916 404.314 19.0853 403.93 19.1895 403.494C19.3001 403.051 19.3555 402.586 19.3555 402.098ZM30.5469 407V399.959C30.5469 399.653 30.5339 399.402 30.5078 399.207C30.4883 399.012 30.4525 398.859 30.4004 398.748C30.3548 398.631 30.293 398.549 30.2148 398.504C30.1432 398.458 30.0521 398.436 29.9414 398.436C29.8112 398.436 29.6908 398.475 29.5801 398.553C29.4694 398.631 29.349 398.758 29.2188 398.934C29.0951 399.109 28.9551 399.344 28.7988 399.637C28.6491 399.923 28.4701 400.278 28.2617 400.701V407H26.709V400.145C26.709 399.786 26.696 399.497 26.6699 399.275C26.6504 399.054 26.6146 398.882 26.5625 398.758C26.5169 398.634 26.4551 398.549 26.377 398.504C26.2988 398.458 26.2044 398.436 26.0938 398.436C25.9766 398.436 25.8659 398.468 25.7617 398.533C25.6576 398.598 25.5404 398.715 25.4102 398.885C25.2865 399.054 25.1465 399.285 24.9902 399.578C24.834 399.871 24.6484 400.245 24.4336 400.701V407H22.8711V397.195H24.1699L24.248 399.061C24.4173 398.689 24.5801 398.374 24.7363 398.113C24.8991 397.853 25.0651 397.645 25.2344 397.488C25.4036 397.326 25.5827 397.208 25.7715 397.137C25.9668 397.059 26.1816 397.02 26.416 397.02C26.9434 397.02 27.3438 397.192 27.6172 397.537C27.8906 397.882 28.0273 398.416 28.0273 399.139C28.1836 398.8 28.3366 398.501 28.4863 398.24C28.6361 397.973 28.7956 397.752 28.9648 397.576C29.1406 397.394 29.3327 397.257 29.541 397.166C29.7493 397.068 29.9902 397.02 30.2637 397.02C31.4941 397.02 32.1094 397.967 32.1094 399.861V407H30.5469ZM42.9297 401.922C42.9297 402.794 42.806 403.556 42.5586 404.207C42.3177 404.858 41.9824 405.398 41.5527 405.828C41.123 406.258 40.6152 406.58 40.0293 406.795C39.4434 407.01 38.8086 407.117 38.125 407.117C37.8125 407.117 37.5 407.101 37.1875 407.068C36.8815 407.036 36.569 406.98 36.25 406.902V411.004H34.5508V397.195H36.0645L36.1719 398.836C36.6602 398.165 37.181 397.697 37.7344 397.43C38.2878 397.156 38.8867 397.02 39.5312 397.02C40.0911 397.02 40.5827 397.137 41.0059 397.371C41.429 397.605 41.7839 397.938 42.0703 398.367C42.3568 398.79 42.5716 399.305 42.7148 399.91C42.8581 400.509 42.9297 401.18 42.9297 401.922ZM41.1914 402C41.1914 401.486 41.1523 401.014 41.0742 400.584C41.0026 400.154 40.8854 399.786 40.7227 399.48C40.5599 399.174 40.3516 398.937 40.0977 398.768C39.8438 398.592 39.541 398.504 39.1895 398.504C38.9746 398.504 38.7565 398.54 38.5352 398.611C38.3138 398.676 38.0827 398.79 37.8418 398.953C37.6074 399.109 37.3568 399.321 37.0898 399.588C36.8294 399.848 36.5495 400.174 36.25 400.564V405.32C36.5625 405.451 36.8913 405.555 37.2363 405.633C37.5814 405.704 37.9199 405.74 38.252 405.74C39.1699 405.74 39.8893 405.431 40.4102 404.812C40.931 404.188 41.1914 403.25 41.1914 402ZM54.082 402.02C54.082 402.781 53.9746 403.481 53.7598 404.119C53.5449 404.751 53.2357 405.294 52.832 405.75C52.4284 406.199 51.9368 406.551 51.3574 406.805C50.778 407.052 50.1204 407.176 49.3848 407.176C48.6816 407.176 48.0501 407.068 47.4902 406.854C46.9368 406.632 46.4648 406.31 46.0742 405.887C45.6901 405.464 45.3939 404.939 45.1855 404.314C44.9837 403.689 44.8828 402.97 44.8828 402.156C44.8828 401.395 44.9902 400.701 45.2051 400.076C45.4199 399.445 45.7292 398.904 46.1328 398.455C46.5365 397.999 47.028 397.648 47.6074 397.4C48.1868 397.146 48.8444 397.02 49.5801 397.02C50.2832 397.02 50.9115 397.13 51.4648 397.352C52.0247 397.566 52.4967 397.885 52.8809 398.309C53.2715 398.725 53.5677 399.246 53.7695 399.871C53.9779 400.496 54.082 401.212 54.082 402.02ZM52.3438 402.098C52.3438 401.492 52.2754 400.965 52.1387 400.516C52.0085 400.06 51.8197 399.682 51.5723 399.383C51.3249 399.077 51.0221 398.849 50.6641 398.699C50.3125 398.543 49.9186 398.465 49.4824 398.465C48.9746 398.465 48.5384 398.566 48.1738 398.768C47.8158 398.963 47.5195 399.227 47.2852 399.559C47.0573 399.891 46.888 400.278 46.7773 400.721C46.6732 401.157 46.6211 401.616 46.6211 402.098C46.6211 402.703 46.6862 403.234 46.8164 403.689C46.9531 404.145 47.1452 404.526 47.3926 404.832C47.64 405.132 47.9395 405.359 48.291 405.516C48.6426 405.665 49.0397 405.74 49.4824 405.74C49.9902 405.74 50.4232 405.643 50.7812 405.447C51.1458 405.245 51.4421 404.979 51.6699 404.646C51.9043 404.314 52.0736 403.93 52.1777 403.494C52.2884 403.051 52.3438 402.586 52.3438 402.098ZM64.4824 407H56.582V405.779L62.1191 398.621H56.7188V397.195H64.1602V398.523L58.7207 405.564H64.4824V407ZM70.8789 398.602H67.9785V397.195H72.5977V405.584H75.5176V407H67.6562V405.584H70.8789V398.602ZM71.4746 393.084C71.6634 393.084 71.8392 393.12 72.002 393.191C72.1647 393.257 72.3047 393.351 72.4219 393.475C72.5456 393.598 72.64 393.742 72.7051 393.904C72.7767 394.061 72.8125 394.233 72.8125 394.422C72.8125 394.604 72.7767 394.777 72.7051 394.939C72.64 395.102 72.5456 395.245 72.4219 395.369C72.3047 395.493 72.1647 395.59 72.002 395.662C71.8392 395.727 71.6634 395.76 71.4746 395.76C71.2858 395.76 71.11 395.727 70.9473 395.662C70.7845 395.59 70.6413 395.493 70.5176 395.369C70.4004 395.245 70.306 395.102 70.2344 394.939C70.1693 394.777 70.1367 394.604 70.1367 394.422C70.1367 394.233 70.1693 394.061 70.2344 393.904C70.306 393.742 70.4004 393.598 70.5176 393.475C70.6413 393.351 70.7845 393.257 70.9473 393.191C71.11 393.12 71.2858 393.084 71.4746 393.084ZM86.1523 406.639C85.7096 406.808 85.2539 406.932 84.7852 407.01C84.3229 407.094 83.8444 407.137 83.3496 407.137C81.8001 407.137 80.6055 406.717 79.7656 405.877C78.9323 405.037 78.5156 403.81 78.5156 402.195C78.5156 401.421 78.6361 400.717 78.877 400.086C79.1178 399.454 79.4564 398.914 79.8926 398.465C80.3288 398.016 80.8496 397.671 81.4551 397.43C82.0605 397.182 82.7279 397.059 83.457 397.059C83.9648 397.059 84.4401 397.094 84.8828 397.166C85.3255 397.238 85.7487 397.355 86.1523 397.518V399.139C85.7292 398.917 85.2962 398.758 84.8535 398.66C84.4173 398.556 83.9648 398.504 83.4961 398.504C83.0599 398.504 82.6465 398.589 82.2559 398.758C81.8717 398.921 81.5332 399.158 81.2402 399.471C80.9473 399.783 80.7161 400.164 80.5469 400.613C80.3776 401.062 80.293 401.57 80.293 402.137C80.293 403.322 80.5794 404.21 81.1523 404.803C81.7318 405.389 82.5326 405.682 83.5547 405.682C84.0169 405.682 84.4629 405.63 84.8926 405.525C85.3288 405.421 85.7487 405.265 86.1523 405.057V406.639ZM92.8711 398.602H89.9707V397.195H94.5898V405.584H97.5098V407H89.6484V405.584H92.8711V398.602ZM93.4668 393.084C93.6556 393.084 93.8314 393.12 93.9941 393.191C94.1569 393.257 94.2969 393.351 94.4141 393.475C94.5378 393.598 94.6322 393.742 94.6973 393.904C94.7689 394.061 94.8047 394.233 94.8047 394.422C94.8047 394.604 94.7689 394.777 94.6973 394.939C94.6322 395.102 94.5378 395.245 94.4141 395.369C94.2969 395.493 94.1569 395.59 93.9941 395.662C93.8314 395.727 93.6556 395.76 93.4668 395.76C93.278 395.76 93.1022 395.727 92.9395 395.662C92.7767 395.59 92.6335 395.493 92.5098 395.369C92.3926 395.245 92.2982 395.102 92.2266 394.939C92.1615 394.777 92.1289 394.604 92.1289 394.422C92.1289 394.233 92.1615 394.061 92.2266 393.904C92.2982 393.742 92.3926 393.598 92.5098 393.475C92.6335 393.351 92.7767 393.257 92.9395 393.191C93.1022 393.12 93.278 393.084 93.4668 393.084ZM107.168 397.195V406.824C107.168 407.508 107.07 408.113 106.875 408.641C106.68 409.174 106.4 409.624 106.035 409.988C105.671 410.353 105.221 410.63 104.688 410.818C104.16 411.007 103.564 411.102 102.9 411.102C102.419 411.102 101.947 411.056 101.484 410.965C101.029 410.88 100.615 410.76 100.244 410.604V408.982C100.446 409.087 100.661 409.181 100.889 409.266C101.123 409.35 101.361 409.422 101.602 409.48C101.849 409.539 102.096 409.581 102.344 409.607C102.591 409.64 102.832 409.656 103.066 409.656C103.809 409.656 104.391 409.422 104.814 408.953C105.238 408.484 105.449 407.794 105.449 406.883V398.602H100.645V397.195H107.168ZM106.143 393.084C106.331 393.084 106.507 393.12 106.67 393.191C106.833 393.257 106.973 393.351 107.09 393.475C107.214 393.598 107.308 393.742 107.373 393.904C107.445 394.067 107.48 394.24 107.48 394.422C107.48 394.611 107.445 394.786 107.373 394.949C107.308 395.105 107.214 395.245 107.09 395.369C106.973 395.493 106.833 395.59 106.67 395.662C106.507 395.727 106.331 395.76 106.143 395.76C105.954 395.76 105.778 395.727 105.615 395.662C105.452 395.59 105.309 395.493 105.186 395.369C105.068 395.245 104.974 395.105 104.902 394.949C104.837 394.786 104.805 394.611 104.805 394.422C104.805 394.24 104.837 394.067 104.902 393.904C104.974 393.742 105.068 393.598 105.186 393.475C105.309 393.351 105.452 393.257 105.615 393.191C105.778 393.12 105.954 393.084 106.143 393.084ZM117.822 407L117.783 405.682C117.249 406.209 116.706 406.59 116.152 406.824C115.605 407.059 115.029 407.176 114.424 407.176C113.864 407.176 113.385 407.104 112.988 406.961C112.591 406.818 112.262 406.622 112.002 406.375C111.748 406.121 111.559 405.825 111.436 405.486C111.318 405.148 111.26 404.78 111.26 404.383C111.26 403.4 111.624 402.632 112.354 402.078C113.089 401.518 114.173 401.238 115.605 401.238H117.637V400.379C117.637 399.799 117.451 399.337 117.08 398.992C116.709 398.641 116.143 398.465 115.381 398.465C114.827 398.465 114.281 398.527 113.74 398.65C113.206 398.774 112.653 398.95 112.08 399.178V397.645C112.295 397.566 112.533 397.492 112.793 397.42C113.06 397.342 113.34 397.273 113.633 397.215C113.926 397.156 114.232 397.111 114.551 397.078C114.87 397.039 115.192 397.02 115.518 397.02C116.11 397.02 116.644 397.085 117.119 397.215C117.594 397.345 117.995 397.544 118.32 397.811C118.652 398.077 118.906 398.413 119.082 398.816C119.258 399.22 119.346 399.695 119.346 400.242V407H117.822ZM117.637 402.537H115.479C115.055 402.537 114.691 402.579 114.385 402.664C114.079 402.749 113.828 402.869 113.633 403.025C113.438 403.182 113.291 403.37 113.193 403.592C113.102 403.807 113.057 404.051 113.057 404.324C113.057 404.513 113.086 404.695 113.145 404.871C113.203 405.04 113.298 405.193 113.428 405.33C113.558 405.46 113.727 405.564 113.936 405.643C114.144 405.721 114.398 405.76 114.697 405.76C115.088 405.76 115.534 405.643 116.035 405.408C116.543 405.167 117.077 404.79 117.637 404.275V402.537ZM139.385 411.102C136.383 408.322 134.883 405.249 134.883 401.883C134.883 401.095 134.961 400.311 135.117 399.529C135.28 398.742 135.537 397.954 135.889 397.166C136.247 396.378 136.715 395.59 137.295 394.803C137.881 394.015 138.59 393.234 139.424 392.459L140.41 393.465C137.884 395.958 136.621 398.722 136.621 401.756C136.621 403.266 136.94 404.718 137.578 406.111C138.216 407.505 139.16 408.82 140.41 410.057L139.385 411.102ZM153.105 395.721H149.326V407H147.568V395.721H143.789V394.236H153.105V395.721ZM164.844 407H162.949L162.061 404.217H156.748L155.85 407H154.043L158.281 394.236H160.664L164.844 407ZM161.562 402.664L159.404 395.838L157.246 402.664H161.562ZM175.84 407H173.945L173.057 404.217H167.744L166.846 407H165.039L169.277 394.236H171.66L175.84 407ZM172.559 402.664L170.4 395.838L168.242 402.664H172.559ZM186.094 395.721H182.314V407H180.557V395.721H176.777V394.236H186.094V395.721ZM196.758 396.424C196.283 396.17 195.794 395.975 195.293 395.838C194.792 395.695 194.245 395.623 193.652 395.623C192.975 395.623 192.373 395.743 191.846 395.984C191.318 396.225 190.872 396.567 190.508 397.01C190.15 397.446 189.873 397.973 189.678 398.592C189.489 399.21 189.395 399.894 189.395 400.643C189.395 401.424 189.473 402.124 189.629 402.742C189.785 403.361 190.029 403.885 190.361 404.314C190.693 404.744 191.117 405.073 191.631 405.301C192.152 405.529 192.773 405.643 193.496 405.643C193.62 405.643 193.753 405.636 193.896 405.623C194.04 405.61 194.183 405.594 194.326 405.574C194.469 405.548 194.606 405.519 194.736 405.486C194.873 405.454 194.993 405.418 195.098 405.379V401.316H192.49V399.881H196.816V406.404C196.549 406.528 196.266 406.639 195.967 406.736C195.674 406.834 195.371 406.915 195.059 406.98C194.753 407.046 194.447 407.094 194.141 407.127C193.835 407.16 193.538 407.176 193.252 407.176C192.38 407.176 191.592 407.039 190.889 406.766C190.192 406.492 189.596 406.089 189.102 405.555C188.613 405.014 188.236 404.344 187.969 403.543C187.708 402.742 187.578 401.814 187.578 400.76C187.578 399.712 187.725 398.774 188.018 397.947C188.311 397.114 188.721 396.411 189.248 395.838C189.782 395.258 190.42 394.819 191.162 394.52C191.911 394.214 192.734 394.061 193.633 394.061C194.206 394.061 194.749 394.113 195.264 394.217C195.785 394.314 196.283 394.474 196.758 394.695V396.424ZM207.646 406.521C206.624 406.945 205.553 407.156 204.434 407.156C202.63 407.156 201.243 406.619 200.273 405.545C199.31 404.464 198.828 402.869 198.828 400.76C198.828 399.738 198.962 398.813 199.229 397.986C199.495 397.16 199.876 396.46 200.371 395.887C200.866 395.307 201.465 394.861 202.168 394.549C202.871 394.236 203.659 394.08 204.531 394.08C205.124 394.08 205.674 394.132 206.182 394.236C206.689 394.334 207.178 394.487 207.646 394.695V396.404C207.184 396.15 206.706 395.958 206.211 395.828C205.716 395.691 205.176 395.623 204.59 395.623C203.991 395.623 203.447 395.737 202.959 395.965C202.477 396.186 202.067 396.512 201.729 396.941C201.39 397.365 201.13 397.885 200.947 398.504C200.765 399.116 200.674 399.816 200.674 400.604C200.674 402.257 201.009 403.504 201.68 404.344C202.35 405.184 203.333 405.604 204.629 405.604C205.176 405.604 205.7 405.542 206.201 405.418C206.702 405.288 207.184 405.109 207.646 404.881V406.521ZM218.643 406.521C217.62 406.945 216.549 407.156 215.43 407.156C213.626 407.156 212.24 406.619 211.27 405.545C210.306 404.464 209.824 402.869 209.824 400.76C209.824 399.738 209.958 398.813 210.225 397.986C210.492 397.16 210.872 396.46 211.367 395.887C211.862 395.307 212.461 394.861 213.164 394.549C213.867 394.236 214.655 394.08 215.527 394.08C216.12 394.08 216.67 394.132 217.178 394.236C217.686 394.334 218.174 394.487 218.643 394.695V396.404C218.18 396.15 217.702 395.958 217.207 395.828C216.712 395.691 216.172 395.623 215.586 395.623C214.987 395.623 214.443 395.737 213.955 395.965C213.473 396.186 213.063 396.512 212.725 396.941C212.386 397.365 212.126 397.885 211.943 398.504C211.761 399.116 211.67 399.816 211.67 400.604C211.67 402.257 212.005 403.504 212.676 404.344C213.346 405.184 214.329 405.604 215.625 405.604C216.172 405.604 216.696 405.542 217.197 405.418C217.699 405.288 218.18 405.109 218.643 404.881V406.521ZM230.82 407H228.926L228.037 404.217H222.725L221.826 407H220.02L224.258 394.236H226.641L230.82 407ZM227.539 402.664L225.381 395.838L223.223 402.664H227.539ZM241.074 395.721H237.295V407H235.537V395.721H231.758V394.236H241.074V395.721ZM251.738 396.424C251.263 396.17 250.775 395.975 250.273 395.838C249.772 395.695 249.225 395.623 248.633 395.623C247.956 395.623 247.354 395.743 246.826 395.984C246.299 396.225 245.853 396.567 245.488 397.01C245.13 397.446 244.854 397.973 244.658 398.592C244.469 399.21 244.375 399.894 244.375 400.643C244.375 401.424 244.453 402.124 244.609 402.742C244.766 403.361 245.01 403.885 245.342 404.314C245.674 404.744 246.097 405.073 246.611 405.301C247.132 405.529 247.754 405.643 248.477 405.643C248.6 405.643 248.734 405.636 248.877 405.623C249.02 405.61 249.163 405.594 249.307 405.574C249.45 405.548 249.587 405.519 249.717 405.486C249.854 405.454 249.974 405.418 250.078 405.379V401.316H247.471V399.881H251.797V406.404C251.53 406.528 251.247 406.639 250.947 406.736C250.654 406.834 250.352 406.915 250.039 406.98C249.733 407.046 249.427 407.094 249.121 407.127C248.815 407.16 248.519 407.176 248.232 407.176C247.36 407.176 246.572 407.039 245.869 406.766C245.173 406.492 244.577 406.089 244.082 405.555C243.594 405.014 243.216 404.344 242.949 403.543C242.689 402.742 242.559 401.814 242.559 400.76C242.559 399.712 242.705 398.774 242.998 397.947C243.291 397.114 243.701 396.411 244.229 395.838C244.762 395.258 245.4 394.819 246.143 394.52C246.891 394.214 247.715 394.061 248.613 394.061C249.186 394.061 249.73 394.113 250.244 394.217C250.765 394.314 251.263 394.474 251.738 394.695V396.424ZM262.734 396.424C262.259 396.17 261.771 395.975 261.27 395.838C260.768 395.695 260.221 395.623 259.629 395.623C258.952 395.623 258.35 395.743 257.822 395.984C257.295 396.225 256.849 396.567 256.484 397.01C256.126 397.446 255.85 397.973 255.654 398.592C255.465 399.21 255.371 399.894 255.371 400.643C255.371 401.424 255.449 402.124 255.605 402.742C255.762 403.361 256.006 403.885 256.338 404.314C256.67 404.744 257.093 405.073 257.607 405.301C258.128 405.529 258.75 405.643 259.473 405.643C259.596 405.643 259.73 405.636 259.873 405.623C260.016 405.61 260.16 405.594 260.303 405.574C260.446 405.548 260.583 405.519 260.713 405.486C260.85 405.454 260.97 405.418 261.074 405.379V401.316H258.467V399.881H262.793V406.404C262.526 406.528 262.243 406.639 261.943 406.736C261.65 406.834 261.348 406.915 261.035 406.98C260.729 407.046 260.423 407.094 260.117 407.127C259.811 407.16 259.515 407.176 259.229 407.176C258.356 407.176 257.568 407.039 256.865 406.766C256.169 406.492 255.573 406.089 255.078 405.555C254.59 405.014 254.212 404.344 253.945 403.543C253.685 402.742 253.555 401.814 253.555 400.76C253.555 399.712 253.701 398.774 253.994 397.947C254.287 397.114 254.697 396.411 255.225 395.838C255.758 395.258 256.396 394.819 257.139 394.52C257.887 394.214 258.711 394.061 259.609 394.061C260.182 394.061 260.726 394.113 261.24 394.217C261.761 394.314 262.259 394.474 262.734 394.695V396.424ZM273.73 396.424C273.255 396.17 272.767 395.975 272.266 395.838C271.764 395.695 271.217 395.623 270.625 395.623C269.948 395.623 269.346 395.743 268.818 395.984C268.291 396.225 267.845 396.567 267.48 397.01C267.122 397.446 266.846 397.973 266.65 398.592C266.462 399.21 266.367 399.894 266.367 400.643C266.367 401.424 266.445 402.124 266.602 402.742C266.758 403.361 267.002 403.885 267.334 404.314C267.666 404.744 268.089 405.073 268.604 405.301C269.124 405.529 269.746 405.643 270.469 405.643C270.592 405.643 270.726 405.636 270.869 405.623C271.012 405.61 271.156 405.594 271.299 405.574C271.442 405.548 271.579 405.519 271.709 405.486C271.846 405.454 271.966 405.418 272.07 405.379V401.316H269.463V399.881H273.789V406.404C273.522 406.528 273.239 406.639 272.939 406.736C272.646 406.834 272.344 406.915 272.031 406.98C271.725 407.046 271.419 407.094 271.113 407.127C270.807 407.16 270.511 407.176 270.225 407.176C269.352 407.176 268.564 407.039 267.861 406.766C267.165 406.492 266.569 406.089 266.074 405.555C265.586 405.014 265.208 404.344 264.941 403.543C264.681 402.742 264.551 401.814 264.551 400.76C264.551 399.712 264.697 398.774 264.99 397.947C265.283 397.114 265.693 396.411 266.221 395.838C266.755 395.258 267.393 394.819 268.135 394.52C268.883 394.214 269.707 394.061 270.605 394.061C271.178 394.061 271.722 394.113 272.236 394.217C272.757 394.314 273.255 394.474 273.73 394.695V396.424ZM285.801 407H283.906L283.018 404.217H277.705L276.807 407H275L279.238 394.236H281.621L285.801 407ZM282.52 402.664L280.361 395.838L278.203 402.664H282.52ZM296.055 395.721H292.275V407H290.518V395.721H286.738V394.236H296.055V395.721ZM306.719 396.424C306.243 396.17 305.755 395.975 305.254 395.838C304.753 395.695 304.206 395.623 303.613 395.623C302.936 395.623 302.334 395.743 301.807 395.984C301.279 396.225 300.833 396.567 300.469 397.01C300.111 397.446 299.834 397.973 299.639 398.592C299.45 399.21 299.355 399.894 299.355 400.643C299.355 401.424 299.434 402.124 299.59 402.742C299.746 403.361 299.99 403.885 300.322 404.314C300.654 404.744 301.077 405.073 301.592 405.301C302.113 405.529 302.734 405.643 303.457 405.643C303.581 405.643 303.714 405.636 303.857 405.623C304.001 405.61 304.144 405.594 304.287 405.574C304.43 405.548 304.567 405.519 304.697 405.486C304.834 405.454 304.954 405.418 305.059 405.379V401.316H302.451V399.881H306.777V406.404C306.51 406.528 306.227 406.639 305.928 406.736C305.635 406.834 305.332 406.915 305.02 406.98C304.714 407.046 304.408 407.094 304.102 407.127C303.796 407.16 303.499 407.176 303.213 407.176C302.34 407.176 301.553 407.039 300.85 406.766C300.153 406.492 299.557 406.089 299.062 405.555C298.574 405.014 298.197 404.344 297.93 403.543C297.669 402.742 297.539 401.814 297.539 400.76C297.539 399.712 297.686 398.774 297.979 397.947C298.271 397.114 298.682 396.411 299.209 395.838C299.743 395.258 300.381 394.819 301.123 394.52C301.872 394.214 302.695 394.061 303.594 394.061C304.167 394.061 304.71 394.113 305.225 394.217C305.745 394.314 306.243 394.474 306.719 394.695V396.424ZM318.047 395.721H314.268V407H312.51V395.721H308.73V394.236H318.047V395.721ZM329.043 395.721H325.264V407H323.506V395.721H319.727V394.236H329.043V395.721ZM333.447 392.459C336.449 395.239 337.949 398.331 337.949 401.736C337.949 402.439 337.878 403.169 337.734 403.924C337.591 404.679 337.347 405.454 337.002 406.248C336.657 407.036 336.191 407.837 335.605 408.65C335.026 409.464 334.294 410.281 333.408 411.102L332.422 410.096C333.691 408.839 334.639 407.527 335.264 406.16C335.889 404.793 336.201 403.361 336.201 401.863C336.201 398.764 334.941 395.978 332.422 393.504L333.447 392.459ZM361.572 400.691H353.174V399.256H361.572V400.691ZM361.572 404.09H353.174V402.654H361.572V404.09ZM10.1562 441.721H6.37695V453H4.61914V441.721H0.839844V440.236H10.1562V441.721ZM21.8945 453H20L19.1113 450.217H13.7988L12.9004 453H11.0938L15.332 440.236H17.7148L21.8945 453ZM18.6133 448.664L16.4551 441.838L14.2969 448.664H18.6133ZM32.8906 453H30.9961L30.1074 450.217H24.7949L23.8965 453H22.0898L26.3281 440.236H28.7109L32.8906 453ZM29.6094 448.664L27.4512 441.838L25.293 448.664H29.6094ZM54.8828 453H52.9883L52.0996 450.217H46.7871L45.8887 453H44.082L48.3203 440.236H50.7031L54.8828 453ZM51.6016 448.664L49.4434 441.838L47.2852 448.664H51.6016ZM65.8789 453H63.9844L63.0957 450.217H57.7832L56.8848 453H55.0781L59.3164 440.236H61.6992L65.8789 453ZM62.5977 448.664L60.4395 441.838L58.2812 448.664H62.5977ZM76.1328 441.721H72.3535V453H70.5957V441.721H66.8164V440.236H76.1328V441.721ZM98.8672 453H96.9727L96.084 450.217H90.7715L89.873 453H88.0664L92.3047 440.236H94.6875L98.8672 453ZM95.5859 448.664L93.4277 441.838L91.2695 448.664H95.5859ZM109.121 441.721H105.342V453H103.584V441.721H99.8047V440.236H109.121V441.721ZM119.785 442.424C119.31 442.17 118.822 441.975 118.32 441.838C117.819 441.695 117.272 441.623 116.68 441.623C116.003 441.623 115.4 441.743 114.873 441.984C114.346 442.225 113.9 442.567 113.535 443.01C113.177 443.446 112.9 443.973 112.705 444.592C112.516 445.21 112.422 445.894 112.422 446.643C112.422 447.424 112.5 448.124 112.656 448.742C112.812 449.361 113.057 449.885 113.389 450.314C113.721 450.744 114.144 451.073 114.658 451.301C115.179 451.529 115.801 451.643 116.523 451.643C116.647 451.643 116.781 451.636 116.924 451.623C117.067 451.61 117.21 451.594 117.354 451.574C117.497 451.548 117.633 451.519 117.764 451.486C117.9 451.454 118.021 451.418 118.125 451.379V447.316H115.518V445.881H119.844V452.404C119.577 452.528 119.294 452.639 118.994 452.736C118.701 452.834 118.398 452.915 118.086 452.98C117.78 453.046 117.474 453.094 117.168 453.127C116.862 453.16 116.566 453.176 116.279 453.176C115.407 453.176 114.619 453.039 113.916 452.766C113.219 452.492 112.624 452.089 112.129 451.555C111.641 451.014 111.263 450.344 110.996 449.543C110.736 448.742 110.605 447.814 110.605 446.76C110.605 445.712 110.752 444.774 111.045 443.947C111.338 443.114 111.748 442.411 112.275 441.838C112.809 441.258 113.447 440.819 114.189 440.52C114.938 440.214 115.762 440.061 116.66 440.061C117.233 440.061 117.777 440.113 118.291 440.217C118.812 440.314 119.31 440.474 119.785 440.695V442.424ZM142.109 441.721H138.33V453H136.572V441.721H132.793V440.236H142.109V441.721ZM152.773 442.424C152.298 442.17 151.81 441.975 151.309 441.838C150.807 441.695 150.26 441.623 149.668 441.623C148.991 441.623 148.389 441.743 147.861 441.984C147.334 442.225 146.888 442.567 146.523 443.01C146.165 443.446 145.889 443.973 145.693 444.592C145.505 445.21 145.41 445.894 145.41 446.643C145.41 447.424 145.488 448.124 145.645 448.742C145.801 449.361 146.045 449.885 146.377 450.314C146.709 450.744 147.132 451.073 147.646 451.301C148.167 451.529 148.789 451.643 149.512 451.643C149.635 451.643 149.769 451.636 149.912 451.623C150.055 451.61 150.199 451.594 150.342 451.574C150.485 451.548 150.622 451.519 150.752 451.486C150.889 451.454 151.009 451.418 151.113 451.379V447.316H148.506V445.881H152.832V452.404C152.565 452.528 152.282 452.639 151.982 452.736C151.689 452.834 151.387 452.915 151.074 452.98C150.768 453.046 150.462 453.094 150.156 453.127C149.85 453.16 149.554 453.176 149.268 453.176C148.395 453.176 147.607 453.039 146.904 452.766C146.208 452.492 145.612 452.089 145.117 451.555C144.629 451.014 144.251 450.344 143.984 449.543C143.724 448.742 143.594 447.814 143.594 446.76C143.594 445.712 143.74 444.774 144.033 443.947C144.326 443.114 144.736 442.411 145.264 441.838C145.798 441.258 146.436 440.819 147.178 440.52C147.926 440.214 148.75 440.061 149.648 440.061C150.221 440.061 150.765 440.113 151.279 440.217C151.8 440.314 152.298 440.474 152.773 440.695V442.424ZM163.662 452.521C162.64 452.945 161.569 453.156 160.449 453.156C158.646 453.156 157.259 452.619 156.289 451.545C155.326 450.464 154.844 448.869 154.844 446.76C154.844 445.738 154.977 444.813 155.244 443.986C155.511 443.16 155.892 442.46 156.387 441.887C156.882 441.307 157.48 440.861 158.184 440.549C158.887 440.236 159.674 440.08 160.547 440.08C161.139 440.08 161.689 440.132 162.197 440.236C162.705 440.334 163.193 440.487 163.662 440.695V442.404C163.2 442.15 162.721 441.958 162.227 441.828C161.732 441.691 161.191 441.623 160.605 441.623C160.007 441.623 159.463 441.737 158.975 441.965C158.493 442.186 158.083 442.512 157.744 442.941C157.406 443.365 157.145 443.885 156.963 444.504C156.781 445.116 156.689 445.816 156.689 446.604C156.689 448.257 157.025 449.504 157.695 450.344C158.366 451.184 159.349 451.604 160.645 451.604C161.191 451.604 161.715 451.542 162.217 451.418C162.718 451.288 163.2 451.109 163.662 450.881V452.521ZM185.762 442.424C185.286 442.17 184.798 441.975 184.297 441.838C183.796 441.695 183.249 441.623 182.656 441.623C181.979 441.623 181.377 441.743 180.85 441.984C180.322 442.225 179.876 442.567 179.512 443.01C179.154 443.446 178.877 443.973 178.682 444.592C178.493 445.21 178.398 445.894 178.398 446.643C178.398 447.424 178.477 448.124 178.633 448.742C178.789 449.361 179.033 449.885 179.365 450.314C179.697 450.744 180.12 451.073 180.635 451.301C181.156 451.529 181.777 451.643 182.5 451.643C182.624 451.643 182.757 451.636 182.9 451.623C183.044 451.61 183.187 451.594 183.33 451.574C183.473 451.548 183.61 451.519 183.74 451.486C183.877 451.454 183.997 451.418 184.102 451.379V447.316H181.494V445.881H185.82V452.404C185.553 452.528 185.27 452.639 184.971 452.736C184.678 452.834 184.375 452.915 184.062 452.98C183.757 453.046 183.451 453.094 183.145 453.127C182.839 453.16 182.542 453.176 182.256 453.176C181.383 453.176 180.596 453.039 179.893 452.766C179.196 452.492 178.6 452.089 178.105 451.555C177.617 451.014 177.24 450.344 176.973 449.543C176.712 448.742 176.582 447.814 176.582 446.76C176.582 445.712 176.729 444.774 177.021 443.947C177.314 443.114 177.725 442.411 178.252 441.838C178.786 441.258 179.424 440.819 180.166 440.52C180.915 440.214 181.738 440.061 182.637 440.061C183.21 440.061 183.753 440.113 184.268 440.217C184.788 440.314 185.286 440.474 185.762 440.695V442.424ZM196.65 452.521C195.628 452.945 194.557 453.156 193.438 453.156C191.634 453.156 190.247 452.619 189.277 451.545C188.314 450.464 187.832 448.869 187.832 446.76C187.832 445.738 187.965 444.813 188.232 443.986C188.499 443.16 188.88 442.46 189.375 441.887C189.87 441.307 190.469 440.861 191.172 440.549C191.875 440.236 192.663 440.08 193.535 440.08C194.128 440.08 194.678 440.132 195.186 440.236C195.693 440.334 196.182 440.487 196.65 440.695V442.404C196.188 442.15 195.71 441.958 195.215 441.828C194.72 441.691 194.18 441.623 193.594 441.623C192.995 441.623 192.451 441.737 191.963 441.965C191.481 442.186 191.071 442.512 190.732 442.941C190.394 443.365 190.133 443.885 189.951 444.504C189.769 445.116 189.678 445.816 189.678 446.604C189.678 448.257 190.013 449.504 190.684 450.344C191.354 451.184 192.337 451.604 193.633 451.604C194.18 451.604 194.704 451.542 195.205 451.418C195.706 451.288 196.188 451.109 196.65 450.881V452.521ZM207.646 452.521C206.624 452.945 205.553 453.156 204.434 453.156C202.63 453.156 201.243 452.619 200.273 451.545C199.31 450.464 198.828 448.869 198.828 446.76C198.828 445.738 198.962 444.813 199.229 443.986C199.495 443.16 199.876 442.46 200.371 441.887C200.866 441.307 201.465 440.861 202.168 440.549C202.871 440.236 203.659 440.08 204.531 440.08C205.124 440.08 205.674 440.132 206.182 440.236C206.689 440.334 207.178 440.487 207.646 440.695V442.404C207.184 442.15 206.706 441.958 206.211 441.828C205.716 441.691 205.176 441.623 204.59 441.623C203.991 441.623 203.447 441.737 202.959 441.965C202.477 442.186 202.067 442.512 201.729 442.941C201.39 443.365 201.13 443.885 200.947 444.504C200.765 445.116 200.674 445.816 200.674 446.604C200.674 448.257 201.009 449.504 201.68 450.344C202.35 451.184 203.333 451.604 204.629 451.604C205.176 451.604 205.7 451.542 206.201 451.418C206.702 451.288 207.184 451.109 207.646 450.881V452.521ZM229.639 452.521C228.617 452.945 227.546 453.156 226.426 453.156C224.622 453.156 223.236 452.619 222.266 451.545C221.302 450.464 220.82 448.869 220.82 446.76C220.82 445.738 220.954 444.813 221.221 443.986C221.488 443.16 221.868 442.46 222.363 441.887C222.858 441.307 223.457 440.861 224.16 440.549C224.863 440.236 225.651 440.08 226.523 440.08C227.116 440.08 227.666 440.132 228.174 440.236C228.682 440.334 229.17 440.487 229.639 440.695V442.404C229.176 442.15 228.698 441.958 228.203 441.828C227.708 441.691 227.168 441.623 226.582 441.623C225.983 441.623 225.439 441.737 224.951 441.965C224.469 442.186 224.059 442.512 223.721 442.941C223.382 443.365 223.122 443.885 222.939 444.504C222.757 445.116 222.666 445.816 222.666 446.604C222.666 448.257 223.001 449.504 223.672 450.344C224.342 451.184 225.326 451.604 226.621 451.604C227.168 451.604 227.692 451.542 228.193 451.418C228.695 451.288 229.176 451.109 229.639 450.881V452.521ZM240.635 452.521C239.613 452.945 238.542 453.156 237.422 453.156C235.618 453.156 234.232 452.619 233.262 451.545C232.298 450.464 231.816 448.869 231.816 446.76C231.816 445.738 231.95 444.813 232.217 443.986C232.484 443.16 232.865 442.46 233.359 441.887C233.854 441.307 234.453 440.861 235.156 440.549C235.859 440.236 236.647 440.08 237.52 440.08C238.112 440.08 238.662 440.132 239.17 440.236C239.678 440.334 240.166 440.487 240.635 440.695V442.404C240.173 442.15 239.694 441.958 239.199 441.828C238.704 441.691 238.164 441.623 237.578 441.623C236.979 441.623 236.436 441.737 235.947 441.965C235.465 442.186 235.055 442.512 234.717 442.941C234.378 443.365 234.118 443.885 233.936 444.504C233.753 445.116 233.662 445.816 233.662 446.604C233.662 448.257 233.997 449.504 234.668 450.344C235.339 451.184 236.322 451.604 237.617 451.604C238.164 451.604 238.688 451.542 239.189 451.418C239.691 451.288 240.173 451.109 240.635 450.881V452.521ZM252.812 453H250.918L250.029 450.217H244.717L243.818 453H242.012L246.25 440.236H248.633L252.812 453ZM249.531 448.664L247.373 441.838L245.215 448.664H249.531ZM273.623 452.521C272.601 452.945 271.53 453.156 270.41 453.156C268.607 453.156 267.22 452.619 266.25 451.545C265.286 450.464 264.805 448.869 264.805 446.76C264.805 445.738 264.938 444.813 265.205 443.986C265.472 443.16 265.853 442.46 266.348 441.887C266.842 441.307 267.441 440.861 268.145 440.549C268.848 440.236 269.635 440.08 270.508 440.08C271.1 440.08 271.65 440.132 272.158 440.236C272.666 440.334 273.154 440.487 273.623 440.695V442.404C273.161 442.15 272.682 441.958 272.188 441.828C271.693 441.691 271.152 441.623 270.566 441.623C269.967 441.623 269.424 441.737 268.936 441.965C268.454 442.186 268.044 442.512 267.705 442.941C267.367 443.365 267.106 443.885 266.924 444.504C266.742 445.116 266.65 445.816 266.65 446.604C266.65 448.257 266.986 449.504 267.656 450.344C268.327 451.184 269.31 451.604 270.605 451.604C271.152 451.604 271.676 451.542 272.178 451.418C272.679 451.288 273.161 451.109 273.623 450.881V452.521ZM285.801 453H283.906L283.018 450.217H277.705L276.807 453H275L279.238 440.236H281.621L285.801 453ZM282.52 448.664L280.361 441.838L278.203 448.664H282.52ZM296.055 441.721H292.275V453H290.518V441.721H286.738V440.236H296.055V441.721ZM318.789 453H316.895L316.006 450.217H310.693L309.795 453H307.988L312.227 440.236H314.609L318.789 453ZM315.508 448.664L313.35 441.838L311.191 448.664H315.508ZM329.043 441.721H325.264V453H323.506V441.721H319.727V440.236H329.043V441.721ZM339.707 442.424C339.232 442.17 338.743 441.975 338.242 441.838C337.741 441.695 337.194 441.623 336.602 441.623C335.924 441.623 335.322 441.743 334.795 441.984C334.268 442.225 333.822 442.567 333.457 443.01C333.099 443.446 332.822 443.973 332.627 444.592C332.438 445.21 332.344 445.894 332.344 446.643C332.344 447.424 332.422 448.124 332.578 448.742C332.734 449.361 332.979 449.885 333.311 450.314C333.643 450.744 334.066 451.073 334.58 451.301C335.101 451.529 335.723 451.643 336.445 451.643C336.569 451.643 336.702 451.636 336.846 451.623C336.989 451.61 337.132 451.594 337.275 451.574C337.419 451.548 337.555 451.519 337.686 451.486C337.822 451.454 337.943 451.418 338.047 451.379V447.316H335.439V445.881H339.766V452.404C339.499 452.528 339.215 452.639 338.916 452.736C338.623 452.834 338.32 452.915 338.008 452.98C337.702 453.046 337.396 453.094 337.09 453.127C336.784 453.16 336.488 453.176 336.201 453.176C335.329 453.176 334.541 453.039 333.838 452.766C333.141 452.492 332.546 452.089 332.051 451.555C331.562 451.014 331.185 450.344 330.918 449.543C330.658 448.742 330.527 447.814 330.527 446.76C330.527 445.712 330.674 444.774 330.967 443.947C331.26 443.114 331.67 442.411 332.197 441.838C332.731 441.258 333.369 440.819 334.111 440.52C334.86 440.214 335.684 440.061 336.582 440.061C337.155 440.061 337.699 440.113 338.213 440.217C338.734 440.314 339.232 440.474 339.707 440.695V442.424ZM362.031 441.721H358.252V453H356.494V441.721H352.715V440.236H362.031V441.721ZM372.695 442.424C372.22 442.17 371.732 441.975 371.23 441.838C370.729 441.695 370.182 441.623 369.59 441.623C368.913 441.623 368.311 441.743 367.783 441.984C367.256 442.225 366.81 442.567 366.445 443.01C366.087 443.446 365.811 443.973 365.615 444.592C365.426 445.21 365.332 445.894 365.332 446.643C365.332 447.424 365.41 448.124 365.566 448.742C365.723 449.361 365.967 449.885 366.299 450.314C366.631 450.744 367.054 451.073 367.568 451.301C368.089 451.529 368.711 451.643 369.434 451.643C369.557 451.643 369.691 451.636 369.834 451.623C369.977 451.61 370.12 451.594 370.264 451.574C370.407 451.548 370.544 451.519 370.674 451.486C370.811 451.454 370.931 451.418 371.035 451.379V447.316H368.428V445.881H372.754V452.404C372.487 452.528 372.204 452.639 371.904 452.736C371.611 452.834 371.309 452.915 370.996 452.98C370.69 453.046 370.384 453.094 370.078 453.127C369.772 453.16 369.476 453.176 369.189 453.176C368.317 453.176 367.529 453.039 366.826 452.766C366.13 452.492 365.534 452.089 365.039 451.555C364.551 451.014 364.173 450.344 363.906 449.543C363.646 448.742 363.516 447.814 363.516 446.76C363.516 445.712 363.662 444.774 363.955 443.947C364.248 443.114 364.658 442.411 365.186 441.838C365.719 441.258 366.357 440.819 367.1 440.52C367.848 440.214 368.672 440.061 369.57 440.061C370.143 440.061 370.687 440.113 371.201 440.217C371.722 440.314 372.22 440.474 372.695 440.695V442.424ZM383.691 442.424C383.216 442.17 382.728 441.975 382.227 441.838C381.725 441.695 381.178 441.623 380.586 441.623C379.909 441.623 379.307 441.743 378.779 441.984C378.252 442.225 377.806 442.567 377.441 443.01C377.083 443.446 376.807 443.973 376.611 444.592C376.423 445.21 376.328 445.894 376.328 446.643C376.328 447.424 376.406 448.124 376.562 448.742C376.719 449.361 376.963 449.885 377.295 450.314C377.627 450.744 378.05 451.073 378.564 451.301C379.085 451.529 379.707 451.643 380.43 451.643C380.553 451.643 380.687 451.636 380.83 451.623C380.973 451.61 381.117 451.594 381.26 451.574C381.403 451.548 381.54 451.519 381.67 451.486C381.807 451.454 381.927 451.418 382.031 451.379V447.316H379.424V445.881H383.75V452.404C383.483 452.528 383.2 452.639 382.9 452.736C382.607 452.834 382.305 452.915 381.992 452.98C381.686 453.046 381.38 453.094 381.074 453.127C380.768 453.16 380.472 453.176 380.186 453.176C379.313 453.176 378.525 453.039 377.822 452.766C377.126 452.492 376.53 452.089 376.035 451.555C375.547 451.014 375.169 450.344 374.902 449.543C374.642 448.742 374.512 447.814 374.512 446.76C374.512 445.712 374.658 444.774 374.951 443.947C375.244 443.114 375.654 442.411 376.182 441.838C376.715 441.258 377.354 440.819 378.096 440.52C378.844 440.214 379.668 440.061 380.566 440.061C381.139 440.061 381.683 440.113 382.197 440.217C382.718 440.314 383.216 440.474 383.691 440.695V442.424ZM405.684 442.424C405.208 442.17 404.72 441.975 404.219 441.838C403.717 441.695 403.171 441.623 402.578 441.623C401.901 441.623 401.299 441.743 400.771 441.984C400.244 442.225 399.798 442.567 399.434 443.01C399.076 443.446 398.799 443.973 398.604 444.592C398.415 445.21 398.32 445.894 398.32 446.643C398.32 447.424 398.398 448.124 398.555 448.742C398.711 449.361 398.955 449.885 399.287 450.314C399.619 450.744 400.042 451.073 400.557 451.301C401.077 451.529 401.699 451.643 402.422 451.643C402.546 451.643 402.679 451.636 402.822 451.623C402.965 451.61 403.109 451.594 403.252 451.574C403.395 451.548 403.532 451.519 403.662 451.486C403.799 451.454 403.919 451.418 404.023 451.379V447.316H401.416V445.881H405.742V452.404C405.475 452.528 405.192 452.639 404.893 452.736C404.6 452.834 404.297 452.915 403.984 452.98C403.678 453.046 403.372 453.094 403.066 453.127C402.76 453.16 402.464 453.176 402.178 453.176C401.305 453.176 400.518 453.039 399.814 452.766C399.118 452.492 398.522 452.089 398.027 451.555C397.539 451.014 397.161 450.344 396.895 449.543C396.634 448.742 396.504 447.814 396.504 446.76C396.504 445.712 396.65 444.774 396.943 443.947C397.236 443.114 397.646 442.411 398.174 441.838C398.708 441.258 399.346 440.819 400.088 440.52C400.837 440.214 401.66 440.061 402.559 440.061C403.132 440.061 403.675 440.113 404.189 440.217C404.71 440.314 405.208 440.474 405.684 440.695V442.424ZM416.68 442.424C416.204 442.17 415.716 441.975 415.215 441.838C414.714 441.695 414.167 441.623 413.574 441.623C412.897 441.623 412.295 441.743 411.768 441.984C411.24 442.225 410.794 442.567 410.43 443.01C410.072 443.446 409.795 443.973 409.6 444.592C409.411 445.21 409.316 445.894 409.316 446.643C409.316 447.424 409.395 448.124 409.551 448.742C409.707 449.361 409.951 449.885 410.283 450.314C410.615 450.744 411.038 451.073 411.553 451.301C412.074 451.529 412.695 451.643 413.418 451.643C413.542 451.643 413.675 451.636 413.818 451.623C413.962 451.61 414.105 451.594 414.248 451.574C414.391 451.548 414.528 451.519 414.658 451.486C414.795 451.454 414.915 451.418 415.02 451.379V447.316H412.412V445.881H416.738V452.404C416.471 452.528 416.188 452.639 415.889 452.736C415.596 452.834 415.293 452.915 414.98 452.98C414.674 453.046 414.368 453.094 414.062 453.127C413.757 453.16 413.46 453.176 413.174 453.176C412.301 453.176 411.514 453.039 410.811 452.766C410.114 452.492 409.518 452.089 409.023 451.555C408.535 451.014 408.158 450.344 407.891 449.543C407.63 448.742 407.5 447.814 407.5 446.76C407.5 445.712 407.646 444.774 407.939 443.947C408.232 443.114 408.643 442.411 409.17 441.838C409.704 441.258 410.342 440.819 411.084 440.52C411.833 440.214 412.656 440.061 413.555 440.061C414.128 440.061 414.671 440.113 415.186 440.217C415.706 440.314 416.204 440.474 416.68 440.695V442.424ZM427.676 442.424C427.201 442.17 426.712 441.975 426.211 441.838C425.71 441.695 425.163 441.623 424.57 441.623C423.893 441.623 423.291 441.743 422.764 441.984C422.236 442.225 421.79 442.567 421.426 443.01C421.068 443.446 420.791 443.973 420.596 444.592C420.407 445.21 420.312 445.894 420.312 446.643C420.312 447.424 420.391 448.124 420.547 448.742C420.703 449.361 420.947 449.885 421.279 450.314C421.611 450.744 422.035 451.073 422.549 451.301C423.07 451.529 423.691 451.643 424.414 451.643C424.538 451.643 424.671 451.636 424.814 451.623C424.958 451.61 425.101 451.594 425.244 451.574C425.387 451.548 425.524 451.519 425.654 451.486C425.791 451.454 425.911 451.418 426.016 451.379V447.316H423.408V445.881H427.734V452.404C427.467 452.528 427.184 452.639 426.885 452.736C426.592 452.834 426.289 452.915 425.977 452.98C425.671 453.046 425.365 453.094 425.059 453.127C424.753 453.16 424.456 453.176 424.17 453.176C423.298 453.176 422.51 453.039 421.807 452.766C421.11 452.492 420.514 452.089 420.02 451.555C419.531 451.014 419.154 450.344 418.887 449.543C418.626 448.742 418.496 447.814 418.496 446.76C418.496 445.712 418.643 444.774 418.936 443.947C419.229 443.114 419.639 442.411 420.166 441.838C420.7 441.258 421.338 440.819 422.08 440.52C422.829 440.214 423.652 440.061 424.551 440.061C425.124 440.061 425.667 440.113 426.182 440.217C426.702 440.314 427.201 440.474 427.676 440.695V442.424ZM449.668 442.424C449.193 442.17 448.704 441.975 448.203 441.838C447.702 441.695 447.155 441.623 446.562 441.623C445.885 441.623 445.283 441.743 444.756 441.984C444.229 442.225 443.783 442.567 443.418 443.01C443.06 443.446 442.783 443.973 442.588 444.592C442.399 445.21 442.305 445.894 442.305 446.643C442.305 447.424 442.383 448.124 442.539 448.742C442.695 449.361 442.939 449.885 443.271 450.314C443.604 450.744 444.027 451.073 444.541 451.301C445.062 451.529 445.684 451.643 446.406 451.643C446.53 451.643 446.663 451.636 446.807 451.623C446.95 451.61 447.093 451.594 447.236 451.574C447.38 451.548 447.516 451.519 447.646 451.486C447.783 451.454 447.904 451.418 448.008 451.379V447.316H445.4V445.881H449.727V452.404C449.46 452.528 449.176 452.639 448.877 452.736C448.584 452.834 448.281 452.915 447.969 452.98C447.663 453.046 447.357 453.094 447.051 453.127C446.745 453.16 446.449 453.176 446.162 453.176C445.29 453.176 444.502 453.039 443.799 452.766C443.102 452.492 442.507 452.089 442.012 451.555C441.523 451.014 441.146 450.344 440.879 449.543C440.618 448.742 440.488 447.814 440.488 446.76C440.488 445.712 440.635 444.774 440.928 443.947C441.221 443.114 441.631 442.411 442.158 441.838C442.692 441.258 443.33 440.819 444.072 440.52C444.821 440.214 445.645 440.061 446.543 440.061C447.116 440.061 447.66 440.113 448.174 440.217C448.695 440.314 449.193 440.474 449.668 440.695V442.424ZM460.664 442.424C460.189 442.17 459.701 441.975 459.199 441.838C458.698 441.695 458.151 441.623 457.559 441.623C456.882 441.623 456.279 441.743 455.752 441.984C455.225 442.225 454.779 442.567 454.414 443.01C454.056 443.446 453.779 443.973 453.584 444.592C453.395 445.21 453.301 445.894 453.301 446.643C453.301 447.424 453.379 448.124 453.535 448.742C453.691 449.361 453.936 449.885 454.268 450.314C454.6 450.744 455.023 451.073 455.537 451.301C456.058 451.529 456.68 451.643 457.402 451.643C457.526 451.643 457.66 451.636 457.803 451.623C457.946 451.61 458.089 451.594 458.232 451.574C458.376 451.548 458.512 451.519 458.643 451.486C458.779 451.454 458.9 451.418 459.004 451.379V447.316H456.396V445.881H460.723V452.404C460.456 452.528 460.173 452.639 459.873 452.736C459.58 452.834 459.277 452.915 458.965 452.98C458.659 453.046 458.353 453.094 458.047 453.127C457.741 453.16 457.445 453.176 457.158 453.176C456.286 453.176 455.498 453.039 454.795 452.766C454.098 452.492 453.503 452.089 453.008 451.555C452.52 451.014 452.142 450.344 451.875 449.543C451.615 448.742 451.484 447.814 451.484 446.76C451.484 445.712 451.631 444.774 451.924 443.947C452.217 443.114 452.627 442.411 453.154 441.838C453.688 441.258 454.326 440.819 455.068 440.52C455.817 440.214 456.641 440.061 457.539 440.061C458.112 440.061 458.656 440.113 459.17 440.217C459.691 440.314 460.189 440.474 460.664 440.695V442.424ZM472.734 453H470.84L469.951 450.217H464.639L463.74 453H461.934L466.172 440.236H468.555L472.734 453ZM469.453 448.664L467.295 441.838L465.137 448.664H469.453ZM493.652 442.424C493.177 442.17 492.689 441.975 492.188 441.838C491.686 441.695 491.139 441.623 490.547 441.623C489.87 441.623 489.268 441.743 488.74 441.984C488.213 442.225 487.767 442.567 487.402 443.01C487.044 443.446 486.768 443.973 486.572 444.592C486.383 445.21 486.289 445.894 486.289 446.643C486.289 447.424 486.367 448.124 486.523 448.742C486.68 449.361 486.924 449.885 487.256 450.314C487.588 450.744 488.011 451.073 488.525 451.301C489.046 451.529 489.668 451.643 490.391 451.643C490.514 451.643 490.648 451.636 490.791 451.623C490.934 451.61 491.077 451.594 491.221 451.574C491.364 451.548 491.501 451.519 491.631 451.486C491.768 451.454 491.888 451.418 491.992 451.379V447.316H489.385V445.881H493.711V452.404C493.444 452.528 493.161 452.639 492.861 452.736C492.568 452.834 492.266 452.915 491.953 452.98C491.647 453.046 491.341 453.094 491.035 453.127C490.729 453.16 490.433 453.176 490.146 453.176C489.274 453.176 488.486 453.039 487.783 452.766C487.087 452.492 486.491 452.089 485.996 451.555C485.508 451.014 485.13 450.344 484.863 449.543C484.603 448.742 484.473 447.814 484.473 446.76C484.473 445.712 484.619 444.774 484.912 443.947C485.205 443.114 485.615 442.411 486.143 441.838C486.676 441.258 487.314 440.819 488.057 440.52C488.805 440.214 489.629 440.061 490.527 440.061C491.1 440.061 491.644 440.113 492.158 440.217C492.679 440.314 493.177 440.474 493.652 440.695V442.424ZM505.723 453H503.828L502.939 450.217H497.627L496.729 453H494.922L499.16 440.236H501.543L505.723 453ZM502.441 448.664L500.283 441.838L498.125 448.664H502.441ZM515.977 441.721H512.197V453H510.439V441.721H506.66V440.236H515.977V441.721ZM538.711 453H536.816L535.928 450.217H530.615L529.717 453H527.91L532.148 440.236H534.531L538.711 453ZM535.43 448.664L533.271 441.838L531.113 448.664H535.43ZM548.965 441.721H545.186V453H543.428V441.721H539.648V440.236H548.965V441.721ZM559.629 442.424C559.154 442.17 558.665 441.975 558.164 441.838C557.663 441.695 557.116 441.623 556.523 441.623C555.846 441.623 555.244 441.743 554.717 441.984C554.189 442.225 553.743 442.567 553.379 443.01C553.021 443.446 552.744 443.973 552.549 444.592C552.36 445.21 552.266 445.894 552.266 446.643C552.266 447.424 552.344 448.124 552.5 448.742C552.656 449.361 552.9 449.885 553.232 450.314C553.564 450.744 553.988 451.073 554.502 451.301C555.023 451.529 555.645 451.643 556.367 451.643C556.491 451.643 556.624 451.636 556.768 451.623C556.911 451.61 557.054 451.594 557.197 451.574C557.34 451.548 557.477 451.519 557.607 451.486C557.744 451.454 557.865 451.418 557.969 451.379V447.316H555.361V445.881H559.688V452.404C559.421 452.528 559.137 452.639 558.838 452.736C558.545 452.834 558.242 452.915 557.93 452.98C557.624 453.046 557.318 453.094 557.012 453.127C556.706 453.16 556.41 453.176 556.123 453.176C555.251 453.176 554.463 453.039 553.76 452.766C553.063 452.492 552.467 452.089 551.973 451.555C551.484 451.014 551.107 450.344 550.84 449.543C550.579 448.742 550.449 447.814 550.449 446.76C550.449 445.712 550.596 444.774 550.889 443.947C551.182 443.114 551.592 442.411 552.119 441.838C552.653 441.258 553.291 440.819 554.033 440.52C554.782 440.214 555.605 440.061 556.504 440.061C557.077 440.061 557.62 440.113 558.135 440.217C558.656 440.314 559.154 440.474 559.629 440.695V442.424ZM581.953 441.721H578.174V453H576.416V441.721H572.637V440.236H581.953V441.721ZM592.617 442.424C592.142 442.17 591.654 441.975 591.152 441.838C590.651 441.695 590.104 441.623 589.512 441.623C588.835 441.623 588.232 441.743 587.705 441.984C587.178 442.225 586.732 442.567 586.367 443.01C586.009 443.446 585.732 443.973 585.537 444.592C585.348 445.21 585.254 445.894 585.254 446.643C585.254 447.424 585.332 448.124 585.488 448.742C585.645 449.361 585.889 449.885 586.221 450.314C586.553 450.744 586.976 451.073 587.49 451.301C588.011 451.529 588.633 451.643 589.355 451.643C589.479 451.643 589.613 451.636 589.756 451.623C589.899 451.61 590.042 451.594 590.186 451.574C590.329 451.548 590.465 451.519 590.596 451.486C590.732 451.454 590.853 451.418 590.957 451.379V447.316H588.35V445.881H592.676V452.404C592.409 452.528 592.126 452.639 591.826 452.736C591.533 452.834 591.23 452.915 590.918 452.98C590.612 453.046 590.306 453.094 590 453.127C589.694 453.16 589.398 453.176 589.111 453.176C588.239 453.176 587.451 453.039 586.748 452.766C586.051 452.492 585.456 452.089 584.961 451.555C584.473 451.014 584.095 450.344 583.828 449.543C583.568 448.742 583.438 447.814 583.438 446.76C583.438 445.712 583.584 444.774 583.877 443.947C584.17 443.114 584.58 442.411 585.107 441.838C585.641 441.258 586.279 440.819 587.021 440.52C587.77 440.214 588.594 440.061 589.492 440.061C590.065 440.061 590.609 440.113 591.123 440.217C591.644 440.314 592.142 440.474 592.617 440.695V442.424ZM603.945 441.721H600.166V453H598.408V441.721H594.629V440.236H603.945V441.721ZM625.605 442.424C625.13 442.17 624.642 441.975 624.141 441.838C623.639 441.695 623.092 441.623 622.5 441.623C621.823 441.623 621.221 441.743 620.693 441.984C620.166 442.225 619.72 442.567 619.355 443.01C618.997 443.446 618.721 443.973 618.525 444.592C618.337 445.21 618.242 445.894 618.242 446.643C618.242 447.424 618.32 448.124 618.477 448.742C618.633 449.361 618.877 449.885 619.209 450.314C619.541 450.744 619.964 451.073 620.479 451.301C620.999 451.529 621.621 451.643 622.344 451.643C622.467 451.643 622.601 451.636 622.744 451.623C622.887 451.61 623.031 451.594 623.174 451.574C623.317 451.548 623.454 451.519 623.584 451.486C623.721 451.454 623.841 451.418 623.945 451.379V447.316H621.338V445.881H625.664V452.404C625.397 452.528 625.114 452.639 624.814 452.736C624.521 452.834 624.219 452.915 623.906 452.98C623.6 453.046 623.294 453.094 622.988 453.127C622.682 453.16 622.386 453.176 622.1 453.176C621.227 453.176 620.439 453.039 619.736 452.766C619.04 452.492 618.444 452.089 617.949 451.555C617.461 451.014 617.083 450.344 616.816 449.543C616.556 448.742 616.426 447.814 616.426 446.76C616.426 445.712 616.572 444.774 616.865 443.947C617.158 443.114 617.568 442.411 618.096 441.838C618.63 441.258 619.268 440.819 620.01 440.52C620.758 440.214 621.582 440.061 622.48 440.061C623.053 440.061 623.597 440.113 624.111 440.217C624.632 440.314 625.13 440.474 625.605 440.695V442.424ZM636.934 441.721H633.154V453H631.396V441.721H627.617V440.236H636.934V441.721ZM647.93 441.721H644.15V453H642.393V441.721H638.613V440.236H647.93V441.721Z" fill="#C9D1D9"/>
<path d="M130.214 406.562C130.214 405.569 129.697 405.072 128.662 405.072C128.124 405.072 127.751 405.122 127.541 405.223C127.331 405.323 127.181 405.444 127.09 405.585C126.898 405.886 126.803 406.355 126.803 406.993H125.49C125.49 406.159 125.632 405.523 125.914 405.086C126.197 404.644 126.563 404.348 127.015 404.197C127.47 404.042 128.004 403.965 128.614 403.965C129.503 403.965 130.205 404.179 130.72 404.607C131.239 405.031 131.499 405.676 131.499 406.542C131.499 407.207 131.374 407.72 131.123 408.08C130.877 408.436 130.474 408.659 129.913 408.75C130.51 408.873 130.957 409.126 131.253 409.509C131.549 409.892 131.697 410.516 131.697 411.382C131.697 412.248 131.433 412.927 130.904 413.419C130.376 413.907 129.621 414.15 128.642 414.15C127.899 414.15 127.309 414.052 126.871 413.856C126.438 413.66 126.108 413.341 125.88 412.899C125.652 412.457 125.499 411.842 125.422 411.054H126.734C126.789 411.865 126.965 412.403 127.261 412.667C127.425 412.813 127.618 412.913 127.842 412.968C128.065 413.018 128.357 413.043 128.717 413.043C129.296 413.043 129.719 412.895 129.988 412.599C130.257 412.302 130.392 411.808 130.392 411.115C130.392 410.423 130.264 409.965 130.009 409.741C129.758 409.513 129.448 409.379 129.079 409.338C128.715 409.297 128.359 409.276 128.013 409.276V408.258C128.742 408.258 129.234 408.199 129.489 408.08C129.744 407.962 129.929 407.818 130.043 407.649C130.157 407.476 130.214 407.114 130.214 406.562Z" fill="#C9D1D9"/>
</svg>
