<svg width="760" height="328" viewBox="0 0 760 328" fill="none" xmlns="http://www.w3.org/2000/svg">
<g filter="url(#filter0_i)">
<rect y="207.986" width="760" height="37.9346" fill="#C4C4C4"/>
<rect y="207.986" width="760" height="37.9346" fill="url(#paint0_linear)"/>
</g>
<rect x="1" y="208.986" width="758" height="35.9346" stroke="#C9D1D9" stroke-width="2"/>
<path d="M380.18 222.859H376.523V233H375.031V222.859H371.383V221.625H380.18V222.859Z" fill="black"/>
<path d="M179.519 188.434C179.557 188.985 180.035 189.401 180.586 189.362L189.564 188.736C190.115 188.698 190.531 188.22 190.492 187.669C190.454 187.118 189.976 186.703 189.425 186.741L181.444 187.298L180.888 179.317C180.849 178.766 180.371 178.351 179.82 178.389C179.269 178.428 178.854 178.905 178.892 179.456L179.519 188.434ZM284.409 67.3645L179.762 187.709L181.271 189.021L285.918 68.6768L284.409 67.3645Z" fill="#C9D1D9"/>
<path d="M321.009 188.99C321.354 189.421 321.983 189.491 322.415 189.146L329.442 183.523C329.874 183.178 329.944 182.549 329.599 182.118C329.254 181.687 328.624 181.617 328.193 181.962L321.946 186.959L316.949 180.712C316.604 180.281 315.974 180.211 315.543 180.556C315.112 180.901 315.042 181.53 315.387 181.962L321.009 188.99ZM333.877 70.5264L320.796 188.254L322.784 188.475L335.865 70.7472L333.877 70.5264Z" fill="#C9D1D9"/>
<path d="M423.356 189.25C423.845 189.507 424.449 189.319 424.706 188.83L428.892 180.863C429.149 180.374 428.961 179.769 428.472 179.512C427.983 179.256 427.379 179.444 427.122 179.933L423.401 187.015L416.319 183.293C415.83 183.037 415.225 183.225 414.969 183.714C414.712 184.203 414.9 184.807 415.389 185.064L423.356 189.25ZM386.24 70.9339L422.866 188.662L424.776 188.068L388.149 70.3398L386.24 70.9339Z" fill="#C9D1D9"/>
<path d="M617.594 189.349C618.138 189.252 618.5 188.733 618.403 188.189L616.82 179.329C616.723 178.786 616.204 178.424 615.66 178.521C615.117 178.618 614.755 179.137 614.852 179.681L616.258 187.556L608.383 188.963C607.839 189.06 607.477 189.579 607.574 190.123C607.671 190.666 608.19 191.028 608.734 190.931L617.594 189.349ZM444.179 68.8411L616.846 189.185L617.99 187.544L445.322 67.2003L444.179 68.8411Z" fill="#C9D1D9"/>
<rect x="148.814" y="208.986" width="64.7126" height="35.9346" fill="#FF7F50"/>
<rect x="148.814" y="208.986" width="64.7126" height="35.9346" fill="url(#paint1_linear)" fill-opacity="0.5"/>
<rect x="148.814" y="208.986" width="64.7126" height="35.9346" stroke="#C9D1D9" stroke-width="2"/>
<rect x="290.088" y="208.986" width="64.7126" height="35.9346" fill="#FF7F50"/>
<rect x="290.088" y="208.986" width="64.7126" height="35.9346" fill="url(#paint2_linear)" fill-opacity="0.5"/>
<rect x="290.088" y="208.986" width="64.7126" height="35.9346" stroke="#C9D1D9" stroke-width="2"/>
<rect x="396.043" y="208.986" width="64.7126" height="35.9346" fill="#FF7F50"/>
<rect x="396.043" y="208.986" width="64.7126" height="35.9346" fill="url(#paint3_linear)" fill-opacity="0.5"/>
<rect x="396.043" y="208.986" width="64.7126" height="35.9346" stroke="#C9D1D9" stroke-width="2"/>
<rect x="584.408" y="208.986" width="64.7126" height="35.9346" fill="#FF7F50"/>
<rect x="584.408" y="208.986" width="64.7126" height="35.9346" fill="url(#paint4_linear)" fill-opacity="0.5"/>
<rect x="584.408" y="208.986" width="64.7126" height="35.9346" stroke="#C9D1D9" stroke-width="2"/>
<g filter="url(#filter1_i)">
<g filter="url(#filter2_d)">
<rect x="265.542" width="196.213" height="79.7935" rx="10" fill="#FF7F50"/>
<rect x="265.542" width="196.213" height="79.7935" rx="10" fill="url(#paint5_linear)" fill-opacity="0.5"/>
</g>
<path d="M318.93 43H317.43V31.625H318.93V43ZM330.422 43H328.914L323.188 34.2344V43H321.68V31.625H323.188L328.93 40.4297V31.625H330.422V43ZM333.086 43V31.625H336.297C337.286 31.625 338.161 31.8438 338.922 32.2812C339.682 32.7188 340.268 33.3411 340.68 34.1484C341.096 34.9557 341.307 35.8828 341.312 36.9297V37.6562C341.312 38.7292 341.104 39.6693 340.688 40.4766C340.276 41.2839 339.685 41.9036 338.914 42.3359C338.148 42.7682 337.255 42.9896 336.234 43H333.086ZM334.586 32.8594V41.7734H336.164C337.32 41.7734 338.219 41.4141 338.859 40.6953C339.505 39.9766 339.828 38.9531 339.828 37.625V36.9609C339.828 35.6693 339.523 34.6667 338.914 33.9531C338.31 33.2344 337.451 32.8698 336.336 32.8594H334.586ZM350.016 37.7422H345.086V41.7734H350.812V43H343.586V31.625H350.734V32.8594H345.086V36.5156H350.016V37.7422ZM355.57 37.7109L354.18 39.1562V43H352.68V31.625H354.18V37.25L359.234 31.625H361.047L356.57 36.6484L361.398 43H359.602L355.57 37.7109ZM366.062 37.9297C364.776 37.5599 363.839 37.1068 363.25 36.5703C362.667 36.0286 362.375 35.362 362.375 34.5703C362.375 33.6745 362.732 32.9349 363.445 32.3516C364.164 31.763 365.096 31.4688 366.242 31.4688C367.023 31.4688 367.719 31.6198 368.328 31.9219C368.943 32.224 369.417 32.6406 369.75 33.1719C370.089 33.7031 370.258 34.2839 370.258 34.9141H368.75C368.75 34.2266 368.531 33.6875 368.094 33.2969C367.656 32.901 367.039 32.7031 366.242 32.7031C365.503 32.7031 364.924 32.8672 364.508 33.1953C364.096 33.5182 363.891 33.9688 363.891 34.5469C363.891 35.0104 364.086 35.4036 364.477 35.7266C364.872 36.0443 365.542 36.3359 366.484 36.6016C367.432 36.8672 368.172 37.1615 368.703 37.4844C369.24 37.8021 369.635 38.1745 369.891 38.6016C370.151 39.0286 370.281 39.5312 370.281 40.1094C370.281 41.0312 369.922 41.7708 369.203 42.3281C368.484 42.8802 367.523 43.1562 366.32 43.1562C365.539 43.1562 364.81 43.0078 364.133 42.7109C363.456 42.4089 362.932 41.9974 362.562 41.4766C362.198 40.9557 362.016 40.3646 362.016 39.7031H363.523C363.523 40.3906 363.776 40.9349 364.281 41.3359C364.792 41.7318 365.471 41.9297 366.32 41.9297C367.112 41.9297 367.719 41.7682 368.141 41.4453C368.562 41.1224 368.773 40.6823 368.773 40.125C368.773 39.5677 368.578 39.138 368.188 38.8359C367.797 38.5286 367.089 38.2266 366.062 37.9297ZM384.93 37.6797C384.93 38.7943 384.742 39.7682 384.367 40.6016C383.992 41.4297 383.461 42.0625 382.773 42.5C382.086 42.9375 381.284 43.1562 380.367 43.1562C379.471 43.1562 378.677 42.9375 377.984 42.5C377.292 42.0573 376.753 41.4297 376.367 40.6172C375.987 39.7995 375.792 38.8542 375.781 37.7812V36.9609C375.781 35.8672 375.971 34.901 376.352 34.0625C376.732 33.224 377.268 32.5833 377.961 32.1406C378.659 31.6927 379.456 31.4688 380.352 31.4688C381.263 31.4688 382.065 31.6901 382.758 32.1328C383.456 32.5703 383.992 33.2083 384.367 34.0469C384.742 34.8802 384.93 35.8516 384.93 36.9609V37.6797ZM383.438 36.9453C383.438 35.5964 383.167 34.5625 382.625 33.8438C382.083 33.1198 381.326 32.7578 380.352 32.7578C379.404 32.7578 378.656 33.1198 378.109 33.8438C377.568 34.5625 377.289 35.5625 377.273 36.8438V37.6797C377.273 38.987 377.547 40.0156 378.094 40.7656C378.646 41.5104 379.404 41.8828 380.367 41.8828C381.336 41.8828 382.086 41.5312 382.617 40.8281C383.148 40.1198 383.422 39.1068 383.438 37.7891V36.9453ZM387.18 43V31.625H390.391C391.38 31.625 392.255 31.8438 393.016 32.2812C393.776 32.7188 394.362 33.3411 394.773 34.1484C395.19 34.9557 395.401 35.8828 395.406 36.9297V37.6562C395.406 38.7292 395.198 39.6693 394.781 40.4766C394.37 41.2839 393.779 41.9036 393.008 42.3359C392.242 42.7682 391.349 42.9896 390.328 43H387.18ZM388.68 32.8594V41.7734H390.258C391.414 41.7734 392.312 41.4141 392.953 40.6953C393.599 39.9766 393.922 38.9531 393.922 37.625V36.9609C393.922 35.6693 393.617 34.6667 393.008 33.9531C392.404 33.2344 391.544 32.8698 390.43 32.8594H388.68ZM409.195 32.8594H405.539V43H404.047V32.8594H400.398V31.625H409.195V32.8594Z" fill="black"/>
</g>
<rect x="137.849" y="267.35" width="12.0809" height="12.0809" stroke="#C9D1D9"/>
<rect x="149.622" y="267.35" width="12.0809" height="12.0809" stroke="#C9D1D9"/>
<rect x="161.395" y="267.35" width="12.0809" height="12.0809" stroke="#C9D1D9"/>
<rect x="173.168" y="267.35" width="12.0809" height="12.0809" stroke="#C9D1D9"/>
<rect x="184.941" y="267.35" width="12.0809" height="12.0809" stroke="#C9D1D9"/>
<rect x="196.713" y="267.35" width="12.0809" height="12.0809" stroke="#C9D1D9"/>
<rect x="208.486" y="267.35" width="12.0809" height="12.0809" stroke="#C9D1D9"/>
<rect x="220.259" y="267.35" width="12.0809" height="12.0809" stroke="#C9D1D9"/>
<rect x="232.032" y="267.35" width="12.0809" height="12.0809" stroke="#C9D1D9"/>
<rect x="208.486" y="279.123" width="12.0809" height="12.0809" stroke="#C9D1D9"/>
<rect x="220.259" y="279.123" width="12.0809" height="12.0809" stroke="#C9D1D9"/>
<rect x="232.032" y="279.123" width="12.0809" height="12.0809" stroke="#C9D1D9"/>
<rect x="137.849" y="279.123" width="12.0809" height="12.0809" stroke="#C9D1D9"/>
<rect x="149.622" y="279.123" width="12.0809" height="12.0809" stroke="#C9D1D9"/>
<rect x="161.395" y="279.123" width="12.0809" height="12.0809" stroke="#C9D1D9"/>
<rect x="173.168" y="279.123" width="12.0809" height="12.0809" stroke="#C9D1D9"/>
<rect x="184.941" y="279.123" width="12.0809" height="12.0809" stroke="#C9D1D9"/>
<rect x="196.713" y="279.123" width="12.0809" height="12.0809" stroke="#C9D1D9"/>
<rect x="137.849" y="290.896" width="12.0809" height="12.0809" stroke="#C9D1D9"/>
<rect x="149.622" y="290.896" width="12.0809" height="12.0809" stroke="#C9D1D9"/>
<rect x="161.395" y="290.896" width="12.0809" height="12.0809" stroke="#C9D1D9"/>
<rect x="173.168" y="290.896" width="12.0809" height="12.0809" stroke="#C9D1D9"/>
<rect x="184.941" y="290.896" width="12.0809" height="12.0809" stroke="#C9D1D9"/>
<rect x="196.713" y="290.896" width="12.0809" height="12.0809" stroke="#C9D1D9"/>
<rect x="208.486" y="290.896" width="12.0809" height="12.0809" stroke="#C9D1D9"/>
<rect x="220.259" y="290.896" width="12.0809" height="12.0809" stroke="#C9D1D9"/>
<rect x="232.032" y="290.896" width="12.0809" height="12.0809" stroke="#C9D1D9"/>
<rect x="208.486" y="302.669" width="12.0809" height="12.0809" stroke="#C9D1D9"/>
<rect x="220.259" y="302.669" width="12.0809" height="12.0809" stroke="#C9D1D9"/>
<rect x="232.032" y="302.669" width="12.0809" height="12.0809" stroke="#C9D1D9"/>
<rect x="137.849" y="302.669" width="12.0809" height="12.0809" stroke="#C9D1D9"/>
<rect x="149.622" y="302.669" width="12.0809" height="12.0809" stroke="#C9D1D9"/>
<rect x="161.395" y="302.669" width="12.0809" height="12.0809" stroke="#C9D1D9"/>
<rect x="173.168" y="302.669" width="12.0809" height="12.0809" stroke="#C9D1D9"/>
<rect x="184.941" y="302.669" width="12.0809" height="12.0809" stroke="#C9D1D9"/>
<rect x="196.713" y="302.669" width="12.0809" height="12.0809" stroke="#C9D1D9"/>
<rect x="137.849" y="314.441" width="12.0809" height="12.0809" stroke="#C9D1D9"/>
<rect x="149.622" y="314.441" width="12.0809" height="12.0809" stroke="#C9D1D9"/>
<rect x="161.395" y="314.441" width="12.0809" height="12.0809" stroke="#C9D1D9"/>
<rect x="173.168" y="314.441" width="12.0809" height="12.0809" stroke="#C9D1D9"/>
<rect x="184.941" y="314.441" width="12.0809" height="12.0809" stroke="#C9D1D9"/>
<rect x="196.713" y="314.441" width="12.0809" height="12.0809" stroke="#C9D1D9"/>
<rect x="208.486" y="314.441" width="12.0809" height="12.0809" stroke="#C9D1D9"/>
<rect x="220.259" y="314.441" width="12.0809" height="12.0809" stroke="#C9D1D9"/>
<rect x="232.032" y="314.441" width="12.0809" height="12.0809" stroke="#C9D1D9"/>
<rect x="272.583" y="267.35" width="12.0809" height="12.0809" stroke="#C9D1D9"/>
<rect x="284.355" y="267.35" width="12.0809" height="12.0809" stroke="#C9D1D9"/>
<rect x="296.128" y="267.35" width="12.0809" height="12.0809" stroke="#C9D1D9"/>
<rect x="307.901" y="267.35" width="12.0809" height="12.0809" stroke="#C9D1D9"/>
<rect x="319.674" y="267.35" width="12.0809" height="12.0809" stroke="#C9D1D9"/>
<rect x="331.447" y="267.35" width="12.0809" height="12.0809" stroke="#C9D1D9"/>
<rect x="343.219" y="267.35" width="12.0809" height="12.0809" stroke="#C9D1D9"/>
<rect x="354.992" y="267.35" width="12.0809" height="12.0809" stroke="#C9D1D9"/>
<rect x="366.765" y="267.35" width="12.0809" height="12.0809" stroke="#C9D1D9"/>
<rect x="343.219" y="279.123" width="12.0809" height="12.0809" stroke="#C9D1D9"/>
<rect x="354.992" y="279.123" width="12.0809" height="12.0809" stroke="#C9D1D9"/>
<rect x="366.765" y="279.123" width="12.0809" height="12.0809" stroke="#C9D1D9"/>
<rect x="272.583" y="279.123" width="12.0809" height="12.0809" stroke="#C9D1D9"/>
<rect x="284.355" y="279.123" width="12.0809" height="12.0809" stroke="#C9D1D9"/>
<rect x="296.128" y="279.123" width="12.0809" height="12.0809" stroke="#C9D1D9"/>
<rect x="307.901" y="279.123" width="12.0809" height="12.0809" stroke="#C9D1D9"/>
<rect x="319.674" y="279.123" width="12.0809" height="12.0809" stroke="#C9D1D9"/>
<rect x="331.447" y="279.123" width="12.0809" height="12.0809" stroke="#C9D1D9"/>
<rect x="272.583" y="290.896" width="12.0809" height="12.0809" stroke="#C9D1D9"/>
<rect x="284.355" y="290.896" width="12.0809" height="12.0809" stroke="#C9D1D9"/>
<rect x="296.128" y="290.896" width="12.0809" height="12.0809" stroke="#C9D1D9"/>
<rect x="307.901" y="290.896" width="12.0809" height="12.0809" stroke="#C9D1D9"/>
<rect x="319.674" y="290.896" width="12.0809" height="12.0809" stroke="#C9D1D9"/>
<rect x="331.447" y="290.896" width="12.0809" height="12.0809" stroke="#C9D1D9"/>
<rect x="343.219" y="290.896" width="12.0809" height="12.0809" stroke="#C9D1D9"/>
<rect x="354.992" y="290.896" width="12.0809" height="12.0809" stroke="#C9D1D9"/>
<rect x="366.765" y="290.896" width="12.0809" height="12.0809" stroke="#C9D1D9"/>
<rect x="343.219" y="302.669" width="12.0809" height="12.0809" stroke="#C9D1D9"/>
<rect x="354.992" y="302.669" width="12.0809" height="12.0809" stroke="#C9D1D9"/>
<rect x="366.765" y="302.669" width="12.0809" height="12.0809" stroke="#C9D1D9"/>
<rect x="272.583" y="302.669" width="12.0809" height="12.0809" stroke="#C9D1D9"/>
<rect x="284.355" y="302.669" width="12.0809" height="12.0809" stroke="#C9D1D9"/>
<rect x="296.128" y="302.669" width="12.0809" height="12.0809" stroke="#C9D1D9"/>
<rect x="307.901" y="302.669" width="12.0809" height="12.0809" stroke="#C9D1D9"/>
<rect x="319.674" y="302.669" width="12.0809" height="12.0809" stroke="#C9D1D9"/>
<rect x="331.447" y="302.669" width="12.0809" height="12.0809" stroke="#C9D1D9"/>
<rect x="272.583" y="314.441" width="12.0809" height="12.0809" stroke="#C9D1D9"/>
<rect x="284.355" y="314.441" width="12.0809" height="12.0809" stroke="#C9D1D9"/>
<rect x="296.128" y="314.441" width="12.0809" height="12.0809" stroke="#C9D1D9"/>
<rect x="307.901" y="314.441" width="12.0809" height="12.0809" stroke="#C9D1D9"/>
<rect x="319.674" y="314.441" width="12.0809" height="12.0809" stroke="#C9D1D9"/>
<rect x="331.447" y="314.441" width="12.0809" height="12.0809" stroke="#C9D1D9"/>
<rect x="343.219" y="314.441" width="12.0809" height="12.0809" stroke="#C9D1D9"/>
<rect x="354.992" y="314.441" width="12.0809" height="12.0809" stroke="#C9D1D9"/>
<rect x="366.765" y="314.441" width="12.0809" height="12.0809" stroke="#C9D1D9"/>
<rect x="387.694" y="267.35" width="12.0809" height="12.0809" stroke="#C9D1D9"/>
<rect x="399.467" y="267.35" width="12.0809" height="12.0809" stroke="#C9D1D9"/>
<rect x="411.24" y="267.35" width="12.0809" height="12.0809" stroke="#C9D1D9"/>
<rect x="423.013" y="267.35" width="12.0809" height="12.0809" stroke="#C9D1D9"/>
<rect x="434.786" y="267.35" width="12.0809" height="12.0809" stroke="#C9D1D9"/>
<rect x="446.559" y="267.35" width="12.0809" height="12.0809" stroke="#C9D1D9"/>
<rect x="458.331" y="267.35" width="12.0809" height="12.0809" stroke="#C9D1D9"/>
<rect x="470.104" y="267.35" width="12.0809" height="12.0809" stroke="#C9D1D9"/>
<rect x="481.877" y="267.35" width="12.0809" height="12.0809" stroke="#C9D1D9"/>
<rect x="458.331" y="279.123" width="12.0809" height="12.0809" stroke="#C9D1D9"/>
<rect x="470.104" y="279.123" width="12.0809" height="12.0809" stroke="#C9D1D9"/>
<rect x="481.877" y="279.123" width="12.0809" height="12.0809" stroke="#C9D1D9"/>
<rect x="387.694" y="279.123" width="12.0809" height="12.0809" stroke="#C9D1D9"/>
<rect x="399.467" y="279.123" width="12.0809" height="12.0809" stroke="#C9D1D9"/>
<rect x="411.24" y="279.123" width="12.0809" height="12.0809" stroke="#C9D1D9"/>
<rect x="423.013" y="279.123" width="12.0809" height="12.0809" stroke="#C9D1D9"/>
<rect x="434.786" y="279.123" width="12.0809" height="12.0809" stroke="#C9D1D9"/>
<rect x="446.559" y="279.123" width="12.0809" height="12.0809" stroke="#C9D1D9"/>
<rect x="387.694" y="290.896" width="12.0809" height="12.0809" stroke="#C9D1D9"/>
<rect x="399.467" y="290.896" width="12.0809" height="12.0809" stroke="#C9D1D9"/>
<rect x="411.24" y="290.896" width="12.0809" height="12.0809" stroke="#C9D1D9"/>
<rect x="423.013" y="290.896" width="12.0809" height="12.0809" stroke="#C9D1D9"/>
<rect x="434.786" y="290.896" width="12.0809" height="12.0809" stroke="#C9D1D9"/>
<rect x="446.559" y="290.896" width="12.0809" height="12.0809" stroke="#C9D1D9"/>
<rect x="458.331" y="290.896" width="12.0809" height="12.0809" stroke="#C9D1D9"/>
<rect x="470.104" y="290.896" width="12.0809" height="12.0809" stroke="#C9D1D9"/>
<rect x="481.877" y="290.896" width="12.0809" height="12.0809" stroke="#C9D1D9"/>
<rect x="458.331" y="302.669" width="12.0809" height="12.0809" stroke="#C9D1D9"/>
<rect x="470.104" y="302.669" width="12.0809" height="12.0809" stroke="#C9D1D9"/>
<rect x="481.877" y="302.669" width="12.0809" height="12.0809" stroke="#C9D1D9"/>
<rect x="387.694" y="302.669" width="12.0809" height="12.0809" stroke="#C9D1D9"/>
<rect x="399.467" y="302.669" width="12.0809" height="12.0809" stroke="#C9D1D9"/>
<rect x="411.24" y="302.669" width="12.0809" height="12.0809" stroke="#C9D1D9"/>
<rect x="423.013" y="302.669" width="12.0809" height="12.0809" stroke="#C9D1D9"/>
<rect x="434.786" y="302.669" width="12.0809" height="12.0809" stroke="#C9D1D9"/>
<rect x="446.559" y="302.669" width="12.0809" height="12.0809" stroke="#C9D1D9"/>
<rect x="387.694" y="314.441" width="12.0809" height="12.0809" stroke="#C9D1D9"/>
<rect x="399.467" y="314.441" width="12.0809" height="12.0809" stroke="#C9D1D9"/>
<rect x="411.24" y="314.441" width="12.0809" height="12.0809" stroke="#C9D1D9"/>
<rect x="423.013" y="314.441" width="12.0809" height="12.0809" stroke="#C9D1D9"/>
<rect x="434.786" y="314.441" width="12.0809" height="12.0809" stroke="#C9D1D9"/>
<rect x="446.559" y="314.441" width="12.0809" height="12.0809" stroke="#C9D1D9"/>
<rect x="458.331" y="314.441" width="12.0809" height="12.0809" stroke="#C9D1D9"/>
<rect x="470.104" y="314.441" width="12.0809" height="12.0809" stroke="#C9D1D9"/>
<rect x="481.877" y="314.441" width="12.0809" height="12.0809" stroke="#C9D1D9"/>
<rect x="568.211" y="267.35" width="12.0809" height="12.0809" stroke="#C9D1D9"/>
<rect x="579.984" y="267.35" width="12.0809" height="12.0809" stroke="#C9D1D9"/>
<rect x="591.756" y="267.35" width="12.0809" height="12.0809" stroke="#C9D1D9"/>
<rect x="603.529" y="267.35" width="12.0809" height="12.0809" stroke="#C9D1D9"/>
<rect x="615.302" y="267.35" width="12.0809" height="12.0809" stroke="#C9D1D9"/>
<rect x="627.075" y="267.35" width="12.0809" height="12.0809" stroke="#C9D1D9"/>
<rect x="638.848" y="267.35" width="12.0809" height="12.0809" stroke="#C9D1D9"/>
<rect x="650.62" y="267.35" width="12.0809" height="12.0809" stroke="#C9D1D9"/>
<rect x="662.393" y="267.35" width="12.0809" height="12.0809" stroke="#C9D1D9"/>
<rect x="638.848" y="279.123" width="12.0809" height="12.0809" stroke="#C9D1D9"/>
<rect x="650.62" y="279.123" width="12.0809" height="12.0809" stroke="#C9D1D9"/>
<rect x="662.393" y="279.123" width="12.0809" height="12.0809" stroke="#C9D1D9"/>
<rect x="568.211" y="279.123" width="12.0809" height="12.0809" stroke="#C9D1D9"/>
<rect x="579.984" y="279.123" width="12.0809" height="12.0809" stroke="#C9D1D9"/>
<rect x="591.756" y="279.123" width="12.0809" height="12.0809" stroke="#C9D1D9"/>
<rect x="603.529" y="279.123" width="12.0809" height="12.0809" stroke="#C9D1D9"/>
<rect x="615.302" y="279.123" width="12.0809" height="12.0809" stroke="#C9D1D9"/>
<rect x="627.075" y="279.123" width="12.0809" height="12.0809" stroke="#C9D1D9"/>
<rect x="568.211" y="290.896" width="12.0809" height="12.0809" stroke="#C9D1D9"/>
<rect x="579.984" y="290.896" width="12.0809" height="12.0809" stroke="#C9D1D9"/>
<rect x="591.756" y="290.896" width="12.0809" height="12.0809" stroke="#C9D1D9"/>
<rect x="603.529" y="290.896" width="12.0809" height="12.0809" stroke="#C9D1D9"/>
<rect x="615.302" y="290.896" width="12.0809" height="12.0809" stroke="#C9D1D9"/>
<rect x="627.075" y="290.896" width="12.0809" height="12.0809" stroke="#C9D1D9"/>
<rect x="638.848" y="290.896" width="12.0809" height="12.0809" stroke="#C9D1D9"/>
<rect x="650.62" y="290.896" width="12.0809" height="12.0809" stroke="#C9D1D9"/>
<rect x="662.393" y="290.896" width="12.0809" height="12.0809" stroke="#C9D1D9"/>
<rect x="638.848" y="302.669" width="12.0809" height="12.0809" stroke="#C9D1D9"/>
<rect x="650.62" y="302.669" width="12.0809" height="12.0809" stroke="#C9D1D9"/>
<rect x="662.393" y="302.669" width="12.0809" height="12.0809" stroke="#C9D1D9"/>
<rect x="568.211" y="302.669" width="12.0809" height="12.0809" stroke="#C9D1D9"/>
<rect x="579.984" y="302.669" width="12.0809" height="12.0809" stroke="#C9D1D9"/>
<rect x="591.756" y="302.669" width="12.0809" height="12.0809" stroke="#C9D1D9"/>
<rect x="603.529" y="302.669" width="12.0809" height="12.0809" stroke="#C9D1D9"/>
<rect x="615.302" y="302.669" width="12.0809" height="12.0809" stroke="#C9D1D9"/>
<rect x="627.075" y="302.669" width="12.0809" height="12.0809" stroke="#C9D1D9"/>
<rect x="568.211" y="314.441" width="12.0809" height="12.0809" stroke="#C9D1D9"/>
<rect x="579.984" y="314.441" width="12.0809" height="12.0809" stroke="#C9D1D9"/>
<rect x="591.756" y="314.441" width="12.0809" height="12.0809" stroke="#C9D1D9"/>
<rect x="603.529" y="314.441" width="12.0809" height="12.0809" stroke="#C9D1D9"/>
<rect x="615.302" y="314.441" width="12.0809" height="12.0809" stroke="#C9D1D9"/>
<rect x="627.075" y="314.441" width="12.0809" height="12.0809" stroke="#C9D1D9"/>
<rect x="638.848" y="314.441" width="12.0809" height="12.0809" stroke="#C9D1D9"/>
<rect x="650.62" y="314.441" width="12.0809" height="12.0809" stroke="#C9D1D9"/>
<rect x="662.393" y="314.441" width="12.0809" height="12.0809" stroke="#C9D1D9"/>
<defs>
<filter id="filter0_i" x="0" y="207.986" width="760" height="41.9346" filterUnits="userSpaceOnUse" color-interpolation-filters="sRGB">
<feFlood flood-opacity="0" result="BackgroundImageFix"/>
<feBlend mode="normal" in="SourceGraphic" in2="BackgroundImageFix" result="shape"/>
<feColorMatrix in="SourceAlpha" type="matrix" values="0 0 0 0 0 0 0 0 0 0 0 0 0 0 0 0 0 0 127 0" result="hardAlpha"/>
<feOffset dy="4"/>
<feGaussianBlur stdDeviation="2"/>
<feComposite in2="hardAlpha" operator="arithmetic" k2="-1" k3="1"/>
<feColorMatrix type="matrix" values="0 0 0 0 0 0 0 0 0 0 0 0 0 0 0 0 0 0 0.25 0"/>
<feBlend mode="normal" in2="shape" result="effect1_innerShadow"/>
</filter>
<filter id="filter1_i" x="265.542" y="0" width="196.213" height="83.7935" filterUnits="userSpaceOnUse" color-interpolation-filters="sRGB">
<feFlood flood-opacity="0" result="BackgroundImageFix"/>
<feBlend mode="normal" in="SourceGraphic" in2="BackgroundImageFix" result="shape"/>
<feColorMatrix in="SourceAlpha" type="matrix" values="0 0 0 0 0 0 0 0 0 0 0 0 0 0 0 0 0 0 127 0" result="hardAlpha"/>
<feOffset dy="4"/>
<feGaussianBlur stdDeviation="2"/>
<feComposite in2="hardAlpha" operator="arithmetic" k2="-1" k3="1"/>
<feColorMatrix type="matrix" values="0 0 0 0 0 0 0 0 0 0 0 0 0 0 0 0 0 0 0.25 0"/>
<feBlend mode="normal" in2="shape" result="effect1_innerShadow"/>
</filter>
<filter id="filter2_d" x="261.542" y="0" width="204.213" height="87.7935" filterUnits="userSpaceOnUse" color-interpolation-filters="sRGB">
<feFlood flood-opacity="0" result="BackgroundImageFix"/>
<feColorMatrix in="SourceAlpha" type="matrix" values="0 0 0 0 0 0 0 0 0 0 0 0 0 0 0 0 0 0 127 0"/>
<feOffset dy="4"/>
<feGaussianBlur stdDeviation="2"/>
<feColorMatrix type="matrix" values="0 0 0 0 0 0 0 0 0 0 0 0 0 0 0 0 0 0 0.25 0"/>
<feBlend mode="normal" in2="BackgroundImageFix" result="effect1_dropShadow"/>
<feBlend mode="normal" in="SourceGraphic" in2="effect1_dropShadow" result="shape"/>
</filter>
<linearGradient id="paint0_linear" x1="380" y1="207.986" x2="380" y2="245.921" gradientUnits="userSpaceOnUse">
<stop stop-color="white"/>
<stop offset="1" stop-color="white" stop-opacity="0"/>
</linearGradient>
<linearGradient id="paint1_linear" x1="181.17" y1="207.986" x2="181.17" y2="245.921" gradientUnits="userSpaceOnUse">
<stop/>
<stop offset="1" stop-color="white" stop-opacity="0"/>
</linearGradient>
<linearGradient id="paint2_linear" x1="322.444" y1="207.986" x2="322.444" y2="245.921" gradientUnits="userSpaceOnUse">
<stop/>
<stop offset="1" stop-color="white" stop-opacity="0"/>
</linearGradient>
<linearGradient id="paint3_linear" x1="428.399" y1="207.986" x2="428.399" y2="245.921" gradientUnits="userSpaceOnUse">
<stop/>
<stop offset="1" stop-color="white" stop-opacity="0"/>
</linearGradient>
<linearGradient id="paint4_linear" x1="616.764" y1="207.986" x2="616.764" y2="245.921" gradientUnits="userSpaceOnUse">
<stop/>
<stop offset="1" stop-color="white" stop-opacity="0"/>
</linearGradient>
<linearGradient id="paint5_linear" x1="363.649" y1="0" x2="363.649" y2="79.7935" gradientUnits="userSpaceOnUse">
<stop/>
<stop offset="1" stop-color="white" stop-opacity="0"/>
</linearGradient>
</defs>
</svg>
