<svg width="371" height="48" viewBox="0 0 371 48" fill="none" xmlns="http://www.w3.org/2000/svg">
<g filter="url(#filter0_d)">
<path d="M14.1562 4.7207H10.377V16H8.61914V4.7207H4.83984V3.23633H14.1562V4.7207ZM20.4941 6.01953C20.696 6.01953 20.888 6.06185 21.0703 6.14648C21.2526 6.22461 21.4121 6.33203 21.5488 6.46875C21.6855 6.60547 21.793 6.76497 21.8711 6.94727C21.9557 7.12956 21.998 7.32161 21.998 7.52344C21.998 7.73177 21.9557 7.92708 21.8711 8.10938C21.793 8.28516 21.6855 8.44141 21.5488 8.57812C21.4121 8.71484 21.2526 8.82227 21.0703 8.90039C20.888 8.97852 20.696 9.01758 20.4941 9.01758C20.2858 9.01758 20.0905 8.97852 19.9082 8.90039C19.7324 8.82227 19.5762 8.71484 19.4395 8.57812C19.3027 8.44141 19.1953 8.28516 19.1172 8.10938C19.0391 7.92708 19 7.73177 19 7.52344C19 7.32161 19.0391 7.12956 19.1172 6.94727C19.1953 6.76497 19.3027 6.60547 19.4395 6.46875C19.5762 6.33203 19.7324 6.22461 19.9082 6.14648C20.0905 6.06185 20.2858 6.01953 20.4941 6.01953ZM20.4941 13.1777C20.696 13.1777 20.888 13.2201 21.0703 13.3047C21.2526 13.3828 21.4121 13.4902 21.5488 13.627C21.6855 13.7637 21.793 13.9232 21.8711 14.1055C21.9557 14.2878 21.998 14.4798 21.998 14.6816C21.998 14.89 21.9557 15.0853 21.8711 15.2676C21.793 15.4434 21.6855 15.5996 21.5488 15.7363C21.4121 15.873 21.2526 15.9805 21.0703 16.0586C20.888 16.1367 20.696 16.1758 20.4941 16.1758C20.2858 16.1758 20.0905 16.1367 19.9082 16.0586C19.7324 15.9805 19.5762 15.873 19.4395 15.7363C19.3027 15.5996 19.1953 15.4434 19.1172 15.2676C19.0391 15.0853 19 14.89 19 14.6816C19 14.4798 19.0391 14.2878 19.1172 14.1055C19.1953 13.9232 19.3027 13.7637 19.4395 13.627C19.5762 13.4902 19.7324 13.3828 19.9082 13.3047C20.0905 13.2201 20.2858 13.1777 20.4941 13.1777ZM46.8125 5.42383C46.3372 5.16992 45.849 4.97461 45.3477 4.83789C44.8464 4.69466 44.2995 4.62305 43.707 4.62305C43.0299 4.62305 42.4277 4.74349 41.9004 4.98438C41.373 5.22526 40.9271 5.56706 40.5625 6.00977C40.2044 6.44596 39.9277 6.97331 39.7324 7.5918C39.5436 8.21029 39.4492 8.89388 39.4492 9.64258C39.4492 10.4238 39.5273 11.1237 39.6836 11.7422C39.8398 12.3607 40.084 12.8848 40.416 13.3145C40.748 13.7441 41.1712 14.0729 41.6855 14.3008C42.2064 14.5286 42.8281 14.6426 43.5508 14.6426C43.6745 14.6426 43.8079 14.6361 43.9512 14.623C44.0944 14.61 44.2376 14.5938 44.3809 14.5742C44.5241 14.5482 44.6608 14.5189 44.791 14.4863C44.9277 14.4538 45.0482 14.418 45.1523 14.3789V10.3164H42.5449V8.88086H46.8711V15.4043C46.6042 15.528 46.321 15.6387 46.0215 15.7363C45.7285 15.834 45.4258 15.9154 45.1133 15.9805C44.8073 16.0456 44.5013 16.0944 44.1953 16.127C43.8893 16.1595 43.5931 16.1758 43.3066 16.1758C42.4342 16.1758 41.6465 16.0391 40.9434 15.7656C40.2467 15.4922 39.651 15.0885 39.1562 14.5547C38.668 14.0143 38.2904 13.3438 38.0234 12.543C37.763 11.7422 37.6328 10.8145 37.6328 9.75977C37.6328 8.71159 37.7793 7.77409 38.0723 6.94727C38.3652 6.11393 38.7754 5.41081 39.3027 4.83789C39.8366 4.25846 40.4746 3.81901 41.2168 3.51953C41.9655 3.21354 42.7891 3.06055 43.6875 3.06055C44.2604 3.06055 44.804 3.11263 45.3184 3.2168C45.8392 3.31445 46.3372 3.47396 46.8125 3.69531V5.42383ZM57.7012 15.5215C56.679 15.9447 55.6081 16.1562 54.4883 16.1562C52.6849 16.1562 51.2982 15.6191 50.3281 14.5449C49.3646 13.4642 48.8828 11.8691 48.8828 9.75977C48.8828 8.73763 49.0163 7.81315 49.2832 6.98633C49.5501 6.15951 49.931 5.45964 50.4258 4.88672C50.9206 4.30729 51.5195 3.86133 52.2227 3.54883C52.9258 3.23633 53.7135 3.08008 54.5859 3.08008C55.1784 3.08008 55.7285 3.13216 56.2363 3.23633C56.7441 3.33398 57.2324 3.48698 57.7012 3.69531V5.4043C57.2389 5.15039 56.7604 4.95833 56.2656 4.82812C55.7708 4.69141 55.2305 4.62305 54.6445 4.62305C54.0456 4.62305 53.502 4.73698 53.0137 4.96484C52.5319 5.1862 52.1217 5.51172 51.7832 5.94141C51.4447 6.36458 51.1842 6.88542 51.002 7.50391C50.8197 8.11589 50.7285 8.81576 50.7285 9.60352C50.7285 11.2572 51.0638 12.5039 51.7344 13.3438C52.4049 14.1836 53.388 14.6035 54.6836 14.6035C55.2305 14.6035 55.7546 14.5417 56.2559 14.418C56.7572 14.2878 57.2389 14.1087 57.7012 13.8809V15.5215ZM69.1367 4.7207H65.3574V16H63.5996V4.7207H59.8203V3.23633H69.1367V4.7207ZM80.1328 4.7207H76.3535V16H74.5957V4.7207H70.8164V3.23633H80.1328V4.7207ZM90.6895 15.5215C89.6673 15.9447 88.5964 16.1562 87.4766 16.1562C85.6732 16.1562 84.2865 15.6191 83.3164 14.5449C82.3529 13.4642 81.8711 11.8691 81.8711 9.75977C81.8711 8.73763 82.0046 7.81315 82.2715 6.98633C82.5384 6.15951 82.9193 5.45964 83.4141 4.88672C83.9089 4.30729 84.5078 3.86133 85.2109 3.54883C85.9141 3.23633 86.7018 3.08008 87.5742 3.08008C88.1667 3.08008 88.7168 3.13216 89.2246 3.23633C89.7324 3.33398 90.2207 3.48698 90.6895 3.69531V5.4043C90.2272 5.15039 89.7487 4.95833 89.2539 4.82812C88.7591 4.69141 88.2188 4.62305 87.6328 4.62305C87.0339 4.62305 86.4902 4.73698 86.002 4.96484C85.5202 5.1862 85.11 5.51172 84.7715 5.94141C84.4329 6.36458 84.1725 6.88542 83.9902 7.50391C83.8079 8.11589 83.7168 8.81576 83.7168 9.60352C83.7168 11.2572 84.0521 12.5039 84.7227 13.3438C85.3932 14.1836 86.3763 14.6035 87.6719 14.6035C88.2188 14.6035 88.7428 14.5417 89.2441 14.418C89.7454 14.2878 90.2272 14.1087 90.6895 13.8809V15.5215ZM102.125 4.7207H98.3457V16H96.5879V4.7207H92.8086V3.23633H102.125V4.7207ZM112.789 5.42383C112.314 5.16992 111.826 4.97461 111.324 4.83789C110.823 4.69466 110.276 4.62305 109.684 4.62305C109.007 4.62305 108.404 4.74349 107.877 4.98438C107.35 5.22526 106.904 5.56706 106.539 6.00977C106.181 6.44596 105.904 6.97331 105.709 7.5918C105.52 8.21029 105.426 8.89388 105.426 9.64258C105.426 10.4238 105.504 11.1237 105.66 11.7422C105.816 12.3607 106.061 12.8848 106.393 13.3145C106.725 13.7441 107.148 14.0729 107.662 14.3008C108.183 14.5286 108.805 14.6426 109.527 14.6426C109.651 14.6426 109.785 14.6361 109.928 14.623C110.071 14.61 110.214 14.5938 110.357 14.5742C110.501 14.5482 110.637 14.5189 110.768 14.4863C110.904 14.4538 111.025 14.418 111.129 14.3789V10.3164H108.521V8.88086H112.848V15.4043C112.581 15.528 112.298 15.6387 111.998 15.7363C111.705 15.834 111.402 15.9154 111.09 15.9805C110.784 16.0456 110.478 16.0944 110.172 16.127C109.866 16.1595 109.57 16.1758 109.283 16.1758C108.411 16.1758 107.623 16.0391 106.92 15.7656C106.223 15.4922 105.628 15.0885 105.133 14.5547C104.645 14.0143 104.267 13.3438 104 12.543C103.74 11.7422 103.609 10.8145 103.609 9.75977C103.609 8.71159 103.756 7.77409 104.049 6.94727C104.342 6.11393 104.752 5.41081 105.279 4.83789C105.813 4.25846 106.451 3.81901 107.193 3.51953C107.942 3.21354 108.766 3.06055 109.664 3.06055C110.237 3.06055 110.781 3.11263 111.295 3.2168C111.816 3.31445 112.314 3.47396 112.789 3.69531V5.42383ZM123.678 15.5215C122.656 15.9447 121.585 16.1562 120.465 16.1562C118.661 16.1562 117.275 15.6191 116.305 14.5449C115.341 13.4642 114.859 11.8691 114.859 9.75977C114.859 8.73763 114.993 7.81315 115.26 6.98633C115.527 6.15951 115.908 5.45964 116.402 4.88672C116.897 4.30729 117.496 3.86133 118.199 3.54883C118.902 3.23633 119.69 3.08008 120.562 3.08008C121.155 3.08008 121.705 3.13216 122.213 3.23633C122.721 3.33398 123.209 3.48698 123.678 3.69531V5.4043C123.215 5.15039 122.737 4.95833 122.242 4.82812C121.747 4.69141 121.207 4.62305 120.621 4.62305C120.022 4.62305 119.479 4.73698 118.99 4.96484C118.508 5.1862 118.098 5.51172 117.76 5.94141C117.421 6.36458 117.161 6.88542 116.979 7.50391C116.796 8.11589 116.705 8.81576 116.705 9.60352C116.705 11.2572 117.04 12.5039 117.711 13.3438C118.382 14.1836 119.365 14.6035 120.66 14.6035C121.207 14.6035 121.731 14.5417 122.232 14.418C122.734 14.2878 123.215 14.1087 123.678 13.8809V15.5215ZM135.113 4.7207H131.334V16H129.576V4.7207H125.797V3.23633H135.113V4.7207ZM146.852 16H144.957L144.068 13.2168H138.756L137.857 16H136.051L140.289 3.23633H142.672L146.852 16ZM143.57 11.6641L141.412 4.83789L139.254 11.6641H143.57ZM156.666 15.5215C155.644 15.9447 154.573 16.1562 153.453 16.1562C151.65 16.1562 150.263 15.6191 149.293 14.5449C148.329 13.4642 147.848 11.8691 147.848 9.75977C147.848 8.73763 147.981 7.81315 148.248 6.98633C148.515 6.15951 148.896 5.45964 149.391 4.88672C149.885 4.30729 150.484 3.86133 151.188 3.54883C151.891 3.23633 152.678 3.08008 153.551 3.08008C154.143 3.08008 154.693 3.13216 155.201 3.23633C155.709 3.33398 156.197 3.48698 156.666 3.69531V5.4043C156.204 5.15039 155.725 4.95833 155.23 4.82812C154.736 4.69141 154.195 4.62305 153.609 4.62305C153.01 4.62305 152.467 4.73698 151.979 4.96484C151.497 5.1862 151.087 5.51172 150.748 5.94141C150.41 6.36458 150.149 6.88542 149.967 7.50391C149.785 8.11589 149.693 8.81576 149.693 9.60352C149.693 11.2572 150.029 12.5039 150.699 13.3438C151.37 14.1836 152.353 14.6035 153.648 14.6035C154.195 14.6035 154.719 14.5417 155.221 14.418C155.722 14.2878 156.204 14.1087 156.666 13.8809V15.5215ZM167.662 15.5215C166.64 15.9447 165.569 16.1562 164.449 16.1562C162.646 16.1562 161.259 15.6191 160.289 14.5449C159.326 13.4642 158.844 11.8691 158.844 9.75977C158.844 8.73763 158.977 7.81315 159.244 6.98633C159.511 6.15951 159.892 5.45964 160.387 4.88672C160.882 4.30729 161.48 3.86133 162.184 3.54883C162.887 3.23633 163.674 3.08008 164.547 3.08008C165.139 3.08008 165.689 3.13216 166.197 3.23633C166.705 3.33398 167.193 3.48698 167.662 3.69531V5.4043C167.2 5.15039 166.721 4.95833 166.227 4.82812C165.732 4.69141 165.191 4.62305 164.605 4.62305C164.007 4.62305 163.463 4.73698 162.975 4.96484C162.493 5.1862 162.083 5.51172 161.744 5.94141C161.406 6.36458 161.145 6.88542 160.963 7.50391C160.781 8.11589 160.689 8.81576 160.689 9.60352C160.689 11.2572 161.025 12.5039 161.695 13.3438C162.366 14.1836 163.349 14.6035 164.645 14.6035C165.191 14.6035 165.715 14.5417 166.217 14.418C166.718 14.2878 167.2 14.1087 167.662 13.8809V15.5215ZM179.098 4.7207H175.318V16H173.561V4.7207H169.781V3.23633H179.098V4.7207ZM190.094 4.7207H186.314V16H184.557V4.7207H180.777V3.23633H190.094V4.7207ZM201.09 4.7207H197.311V16H195.553V4.7207H191.773V3.23633H201.09V4.7207ZM212.086 4.7207H208.307V16H206.549V4.7207H202.77V3.23633H212.086V4.7207ZM222.75 5.42383C222.275 5.16992 221.786 4.97461 221.285 4.83789C220.784 4.69466 220.237 4.62305 219.645 4.62305C218.967 4.62305 218.365 4.74349 217.838 4.98438C217.311 5.22526 216.865 5.56706 216.5 6.00977C216.142 6.44596 215.865 6.97331 215.67 7.5918C215.481 8.21029 215.387 8.89388 215.387 9.64258C215.387 10.4238 215.465 11.1237 215.621 11.7422C215.777 12.3607 216.021 12.8848 216.354 13.3145C216.686 13.7441 217.109 14.0729 217.623 14.3008C218.144 14.5286 218.766 14.6426 219.488 14.6426C219.612 14.6426 219.745 14.6361 219.889 14.623C220.032 14.61 220.175 14.5938 220.318 14.5742C220.462 14.5482 220.598 14.5189 220.729 14.4863C220.865 14.4538 220.986 14.418 221.09 14.3789V10.3164H218.482V8.88086H222.809V15.4043C222.542 15.528 222.258 15.6387 221.959 15.7363C221.666 15.834 221.363 15.9154 221.051 15.9805C220.745 16.0456 220.439 16.0944 220.133 16.127C219.827 16.1595 219.531 16.1758 219.244 16.1758C218.372 16.1758 217.584 16.0391 216.881 15.7656C216.184 15.4922 215.589 15.0885 215.094 14.5547C214.605 14.0143 214.228 13.3438 213.961 12.543C213.701 11.7422 213.57 10.8145 213.57 9.75977C213.57 8.71159 213.717 7.77409 214.01 6.94727C214.303 6.11393 214.713 5.41081 215.24 4.83789C215.774 4.25846 216.412 3.81901 217.154 3.51953C217.903 3.21354 218.727 3.06055 219.625 3.06055C220.198 3.06055 220.742 3.11263 221.256 3.2168C221.777 3.31445 222.275 3.47396 222.75 3.69531V5.42383ZM233.639 15.5215C232.617 15.9447 231.546 16.1562 230.426 16.1562C228.622 16.1562 227.236 15.6191 226.266 14.5449C225.302 13.4642 224.82 11.8691 224.82 9.75977C224.82 8.73763 224.954 7.81315 225.221 6.98633C225.488 6.15951 225.868 5.45964 226.363 4.88672C226.858 4.30729 227.457 3.86133 228.16 3.54883C228.863 3.23633 229.651 3.08008 230.523 3.08008C231.116 3.08008 231.666 3.13216 232.174 3.23633C232.682 3.33398 233.17 3.48698 233.639 3.69531V5.4043C233.176 5.15039 232.698 4.95833 232.203 4.82812C231.708 4.69141 231.168 4.62305 230.582 4.62305C229.983 4.62305 229.439 4.73698 228.951 4.96484C228.469 5.1862 228.059 5.51172 227.721 5.94141C227.382 6.36458 227.122 6.88542 226.939 7.50391C226.757 8.11589 226.666 8.81576 226.666 9.60352C226.666 11.2572 227.001 12.5039 227.672 13.3438C228.342 14.1836 229.326 14.6035 230.621 14.6035C231.168 14.6035 231.692 14.5417 232.193 14.418C232.695 14.2878 233.176 14.1087 233.639 13.8809V15.5215ZM244.742 5.42383C244.267 5.16992 243.779 4.97461 243.277 4.83789C242.776 4.69466 242.229 4.62305 241.637 4.62305C240.96 4.62305 240.357 4.74349 239.83 4.98438C239.303 5.22526 238.857 5.56706 238.492 6.00977C238.134 6.44596 237.857 6.97331 237.662 7.5918C237.473 8.21029 237.379 8.89388 237.379 9.64258C237.379 10.4238 237.457 11.1237 237.613 11.7422C237.77 12.3607 238.014 12.8848 238.346 13.3145C238.678 13.7441 239.101 14.0729 239.615 14.3008C240.136 14.5286 240.758 14.6426 241.48 14.6426C241.604 14.6426 241.738 14.6361 241.881 14.623C242.024 14.61 242.167 14.5938 242.311 14.5742C242.454 14.5482 242.59 14.5189 242.721 14.4863C242.857 14.4538 242.978 14.418 243.082 14.3789V10.3164H240.475V8.88086H244.801V15.4043C244.534 15.528 244.251 15.6387 243.951 15.7363C243.658 15.834 243.355 15.9154 243.043 15.9805C242.737 16.0456 242.431 16.0944 242.125 16.127C241.819 16.1595 241.523 16.1758 241.236 16.1758C240.364 16.1758 239.576 16.0391 238.873 15.7656C238.176 15.4922 237.581 15.0885 237.086 14.5547C236.598 14.0143 236.22 13.3438 235.953 12.543C235.693 11.7422 235.562 10.8145 235.562 9.75977C235.562 8.71159 235.709 7.77409 236.002 6.94727C236.295 6.11393 236.705 5.41081 237.232 4.83789C237.766 4.25846 238.404 3.81901 239.146 3.51953C239.895 3.21354 240.719 3.06055 241.617 3.06055C242.19 3.06055 242.734 3.11263 243.248 3.2168C243.769 3.31445 244.267 3.47396 244.742 3.69531V5.42383ZM255.631 15.5215C254.609 15.9447 253.538 16.1562 252.418 16.1562C250.615 16.1562 249.228 15.6191 248.258 14.5449C247.294 13.4642 246.812 11.8691 246.812 9.75977C246.812 8.73763 246.946 7.81315 247.213 6.98633C247.48 6.15951 247.861 5.45964 248.355 4.88672C248.85 4.30729 249.449 3.86133 250.152 3.54883C250.855 3.23633 251.643 3.08008 252.516 3.08008C253.108 3.08008 253.658 3.13216 254.166 3.23633C254.674 3.33398 255.162 3.48698 255.631 3.69531V5.4043C255.169 5.15039 254.69 4.95833 254.195 4.82812C253.701 4.69141 253.16 4.62305 252.574 4.62305C251.975 4.62305 251.432 4.73698 250.943 4.96484C250.462 5.1862 250.051 5.51172 249.713 5.94141C249.374 6.36458 249.114 6.88542 248.932 7.50391C248.749 8.11589 248.658 8.81576 248.658 9.60352C248.658 11.2572 248.993 12.5039 249.664 13.3438C250.335 14.1836 251.318 14.6035 252.613 14.6035C253.16 14.6035 253.684 14.5417 254.186 14.418C254.687 14.2878 255.169 14.1087 255.631 13.8809V15.5215ZM266.734 5.42383C266.259 5.16992 265.771 4.97461 265.27 4.83789C264.768 4.69466 264.221 4.62305 263.629 4.62305C262.952 4.62305 262.35 4.74349 261.822 4.98438C261.295 5.22526 260.849 5.56706 260.484 6.00977C260.126 6.44596 259.85 6.97331 259.654 7.5918C259.465 8.21029 259.371 8.89388 259.371 9.64258C259.371 10.4238 259.449 11.1237 259.605 11.7422C259.762 12.3607 260.006 12.8848 260.338 13.3145C260.67 13.7441 261.093 14.0729 261.607 14.3008C262.128 14.5286 262.75 14.6426 263.473 14.6426C263.596 14.6426 263.73 14.6361 263.873 14.623C264.016 14.61 264.16 14.5938 264.303 14.5742C264.446 14.5482 264.583 14.5189 264.713 14.4863C264.85 14.4538 264.97 14.418 265.074 14.3789V10.3164H262.467V8.88086H266.793V15.4043C266.526 15.528 266.243 15.6387 265.943 15.7363C265.65 15.834 265.348 15.9154 265.035 15.9805C264.729 16.0456 264.423 16.0944 264.117 16.127C263.811 16.1595 263.515 16.1758 263.229 16.1758C262.356 16.1758 261.568 16.0391 260.865 15.7656C260.169 15.4922 259.573 15.0885 259.078 14.5547C258.59 14.0143 258.212 13.3438 257.945 12.543C257.685 11.7422 257.555 10.8145 257.555 9.75977C257.555 8.71159 257.701 7.77409 257.994 6.94727C258.287 6.11393 258.697 5.41081 259.225 4.83789C259.758 4.25846 260.396 3.81901 261.139 3.51953C261.887 3.21354 262.711 3.06055 263.609 3.06055C264.182 3.06055 264.726 3.11263 265.24 3.2168C265.761 3.31445 266.259 3.47396 266.734 3.69531V5.42383ZM277.623 15.5215C276.601 15.9447 275.53 16.1562 274.41 16.1562C272.607 16.1562 271.22 15.6191 270.25 14.5449C269.286 13.4642 268.805 11.8691 268.805 9.75977C268.805 8.73763 268.938 7.81315 269.205 6.98633C269.472 6.15951 269.853 5.45964 270.348 4.88672C270.842 4.30729 271.441 3.86133 272.145 3.54883C272.848 3.23633 273.635 3.08008 274.508 3.08008C275.1 3.08008 275.65 3.13216 276.158 3.23633C276.666 3.33398 277.154 3.48698 277.623 3.69531V5.4043C277.161 5.15039 276.682 4.95833 276.188 4.82812C275.693 4.69141 275.152 4.62305 274.566 4.62305C273.967 4.62305 273.424 4.73698 272.936 4.96484C272.454 5.1862 272.044 5.51172 271.705 5.94141C271.367 6.36458 271.106 6.88542 270.924 7.50391C270.742 8.11589 270.65 8.81576 270.65 9.60352C270.65 11.2572 270.986 12.5039 271.656 13.3438C272.327 14.1836 273.31 14.6035 274.605 14.6035C275.152 14.6035 275.676 14.5417 276.178 14.418C276.679 14.2878 277.161 14.1087 277.623 13.8809V15.5215ZM288.727 5.42383C288.251 5.16992 287.763 4.97461 287.262 4.83789C286.76 4.69466 286.214 4.62305 285.621 4.62305C284.944 4.62305 284.342 4.74349 283.814 4.98438C283.287 5.22526 282.841 5.56706 282.477 6.00977C282.118 6.44596 281.842 6.97331 281.646 7.5918C281.458 8.21029 281.363 8.89388 281.363 9.64258C281.363 10.4238 281.441 11.1237 281.598 11.7422C281.754 12.3607 281.998 12.8848 282.33 13.3145C282.662 13.7441 283.085 14.0729 283.6 14.3008C284.12 14.5286 284.742 14.6426 285.465 14.6426C285.589 14.6426 285.722 14.6361 285.865 14.623C286.008 14.61 286.152 14.5938 286.295 14.5742C286.438 14.5482 286.575 14.5189 286.705 14.4863C286.842 14.4538 286.962 14.418 287.066 14.3789V10.3164H284.459V8.88086H288.785V15.4043C288.518 15.528 288.235 15.6387 287.936 15.7363C287.643 15.834 287.34 15.9154 287.027 15.9805C286.721 16.0456 286.415 16.0944 286.109 16.127C285.803 16.1595 285.507 16.1758 285.221 16.1758C284.348 16.1758 283.561 16.0391 282.857 15.7656C282.161 15.4922 281.565 15.0885 281.07 14.5547C280.582 14.0143 280.204 13.3438 279.938 12.543C279.677 11.7422 279.547 10.8145 279.547 9.75977C279.547 8.71159 279.693 7.77409 279.986 6.94727C280.279 6.11393 280.689 5.41081 281.217 4.83789C281.751 4.25846 282.389 3.81901 283.131 3.51953C283.88 3.21354 284.703 3.06055 285.602 3.06055C286.174 3.06055 286.718 3.11263 287.232 3.2168C287.753 3.31445 288.251 3.47396 288.727 3.69531V5.42383ZM299.615 15.5215C298.593 15.9447 297.522 16.1562 296.402 16.1562C294.599 16.1562 293.212 15.6191 292.242 14.5449C291.279 13.4642 290.797 11.8691 290.797 9.75977C290.797 8.73763 290.93 7.81315 291.197 6.98633C291.464 6.15951 291.845 5.45964 292.34 4.88672C292.835 4.30729 293.434 3.86133 294.137 3.54883C294.84 3.23633 295.628 3.08008 296.5 3.08008C297.092 3.08008 297.643 3.13216 298.15 3.23633C298.658 3.33398 299.146 3.48698 299.615 3.69531V5.4043C299.153 5.15039 298.674 4.95833 298.18 4.82812C297.685 4.69141 297.145 4.62305 296.559 4.62305C295.96 4.62305 295.416 4.73698 294.928 4.96484C294.446 5.1862 294.036 5.51172 293.697 5.94141C293.359 6.36458 293.098 6.88542 292.916 7.50391C292.734 8.11589 292.643 8.81576 292.643 9.60352C292.643 11.2572 292.978 12.5039 293.648 13.3438C294.319 14.1836 295.302 14.6035 296.598 14.6035C297.145 14.6035 297.669 14.5417 298.17 14.418C298.671 14.2878 299.153 14.1087 299.615 13.8809V15.5215ZM310.719 5.42383C310.243 5.16992 309.755 4.97461 309.254 4.83789C308.753 4.69466 308.206 4.62305 307.613 4.62305C306.936 4.62305 306.334 4.74349 305.807 4.98438C305.279 5.22526 304.833 5.56706 304.469 6.00977C304.111 6.44596 303.834 6.97331 303.639 7.5918C303.45 8.21029 303.355 8.89388 303.355 9.64258C303.355 10.4238 303.434 11.1237 303.59 11.7422C303.746 12.3607 303.99 12.8848 304.322 13.3145C304.654 13.7441 305.077 14.0729 305.592 14.3008C306.113 14.5286 306.734 14.6426 307.457 14.6426C307.581 14.6426 307.714 14.6361 307.857 14.623C308.001 14.61 308.144 14.5938 308.287 14.5742C308.43 14.5482 308.567 14.5189 308.697 14.4863C308.834 14.4538 308.954 14.418 309.059 14.3789V10.3164H306.451V8.88086H310.777V15.4043C310.51 15.528 310.227 15.6387 309.928 15.7363C309.635 15.834 309.332 15.9154 309.02 15.9805C308.714 16.0456 308.408 16.0944 308.102 16.127C307.796 16.1595 307.499 16.1758 307.213 16.1758C306.34 16.1758 305.553 16.0391 304.85 15.7656C304.153 15.4922 303.557 15.0885 303.062 14.5547C302.574 14.0143 302.197 13.3438 301.93 12.543C301.669 11.7422 301.539 10.8145 301.539 9.75977C301.539 8.71159 301.686 7.77409 301.979 6.94727C302.271 6.11393 302.682 5.41081 303.209 4.83789C303.743 4.25846 304.381 3.81901 305.123 3.51953C305.872 3.21354 306.695 3.06055 307.594 3.06055C308.167 3.06055 308.71 3.11263 309.225 3.2168C309.745 3.31445 310.243 3.47396 310.719 3.69531V5.42383ZM321.607 15.5215C320.585 15.9447 319.514 16.1562 318.395 16.1562C316.591 16.1562 315.204 15.6191 314.234 14.5449C313.271 13.4642 312.789 11.8691 312.789 9.75977C312.789 8.73763 312.923 7.81315 313.189 6.98633C313.456 6.15951 313.837 5.45964 314.332 4.88672C314.827 4.30729 315.426 3.86133 316.129 3.54883C316.832 3.23633 317.62 3.08008 318.492 3.08008C319.085 3.08008 319.635 3.13216 320.143 3.23633C320.65 3.33398 321.139 3.48698 321.607 3.69531V5.4043C321.145 5.15039 320.667 4.95833 320.172 4.82812C319.677 4.69141 319.137 4.62305 318.551 4.62305C317.952 4.62305 317.408 4.73698 316.92 4.96484C316.438 5.1862 316.028 5.51172 315.689 5.94141C315.351 6.36458 315.09 6.88542 314.908 7.50391C314.726 8.11589 314.635 8.81576 314.635 9.60352C314.635 11.2572 314.97 12.5039 315.641 13.3438C316.311 14.1836 317.294 14.6035 318.59 14.6035C319.137 14.6035 319.661 14.5417 320.162 14.418C320.663 14.2878 321.145 14.1087 321.607 13.8809V15.5215ZM332.711 5.42383C332.236 5.16992 331.747 4.97461 331.246 4.83789C330.745 4.69466 330.198 4.62305 329.605 4.62305C328.928 4.62305 328.326 4.74349 327.799 4.98438C327.271 5.22526 326.826 5.56706 326.461 6.00977C326.103 6.44596 325.826 6.97331 325.631 7.5918C325.442 8.21029 325.348 8.89388 325.348 9.64258C325.348 10.4238 325.426 11.1237 325.582 11.7422C325.738 12.3607 325.982 12.8848 326.314 13.3145C326.646 13.7441 327.07 14.0729 327.584 14.3008C328.105 14.5286 328.727 14.6426 329.449 14.6426C329.573 14.6426 329.706 14.6361 329.85 14.623C329.993 14.61 330.136 14.5938 330.279 14.5742C330.423 14.5482 330.559 14.5189 330.689 14.4863C330.826 14.4538 330.947 14.418 331.051 14.3789V10.3164H328.443V8.88086H332.77V15.4043C332.503 15.528 332.219 15.6387 331.92 15.7363C331.627 15.834 331.324 15.9154 331.012 15.9805C330.706 16.0456 330.4 16.0944 330.094 16.127C329.788 16.1595 329.492 16.1758 329.205 16.1758C328.333 16.1758 327.545 16.0391 326.842 15.7656C326.145 15.4922 325.549 15.0885 325.055 14.5547C324.566 14.0143 324.189 13.3438 323.922 12.543C323.661 11.7422 323.531 10.8145 323.531 9.75977C323.531 8.71159 323.678 7.77409 323.971 6.94727C324.264 6.11393 324.674 5.41081 325.201 4.83789C325.735 4.25846 326.373 3.81901 327.115 3.51953C327.864 3.21354 328.688 3.06055 329.586 3.06055C330.159 3.06055 330.702 3.11263 331.217 3.2168C331.738 3.31445 332.236 3.47396 332.711 3.69531V5.42383ZM343.707 5.42383C343.232 5.16992 342.743 4.97461 342.242 4.83789C341.741 4.69466 341.194 4.62305 340.602 4.62305C339.924 4.62305 339.322 4.74349 338.795 4.98438C338.268 5.22526 337.822 5.56706 337.457 6.00977C337.099 6.44596 336.822 6.97331 336.627 7.5918C336.438 8.21029 336.344 8.89388 336.344 9.64258C336.344 10.4238 336.422 11.1237 336.578 11.7422C336.734 12.3607 336.979 12.8848 337.311 13.3145C337.643 13.7441 338.066 14.0729 338.58 14.3008C339.101 14.5286 339.723 14.6426 340.445 14.6426C340.569 14.6426 340.702 14.6361 340.846 14.623C340.989 14.61 341.132 14.5938 341.275 14.5742C341.419 14.5482 341.555 14.5189 341.686 14.4863C341.822 14.4538 341.943 14.418 342.047 14.3789V10.3164H339.439V8.88086H343.766V15.4043C343.499 15.528 343.215 15.6387 342.916 15.7363C342.623 15.834 342.32 15.9154 342.008 15.9805C341.702 16.0456 341.396 16.0944 341.09 16.127C340.784 16.1595 340.488 16.1758 340.201 16.1758C339.329 16.1758 338.541 16.0391 337.838 15.7656C337.141 15.4922 336.546 15.0885 336.051 14.5547C335.562 14.0143 335.185 13.3438 334.918 12.543C334.658 11.7422 334.527 10.8145 334.527 9.75977C334.527 8.71159 334.674 7.77409 334.967 6.94727C335.26 6.11393 335.67 5.41081 336.197 4.83789C336.731 4.25846 337.369 3.81901 338.111 3.51953C338.86 3.21354 339.684 3.06055 340.582 3.06055C341.155 3.06055 341.699 3.11263 342.213 3.2168C342.734 3.31445 343.232 3.47396 343.707 3.69531V5.42383ZM355.777 16H353.883L352.994 13.2168H347.682L346.783 16H344.977L349.215 3.23633H351.598L355.777 16ZM352.496 11.6641L350.338 4.83789L348.18 11.6641H352.496ZM366.773 16H364.879L363.99 13.2168H358.678L357.779 16H355.973L360.211 3.23633H362.594L366.773 16ZM363.492 11.6641L361.334 4.83789L359.176 11.6641H363.492ZM13.9219 30.1426C13.9219 30.6634 13.8242 31.181 13.6289 31.6953C13.4336 32.2031 13.1309 32.6589 12.7207 33.0625C12.3105 33.4661 11.7865 33.7949 11.1484 34.0488C10.5104 34.2962 9.7487 34.4199 8.86328 34.4199H7.28125V39H5.54297V26.2363H9.13672C9.76823 26.2363 10.3737 26.3079 10.9531 26.4512C11.5326 26.5879 12.0404 26.8125 12.4766 27.125C12.9193 27.4375 13.2708 27.8411 13.5312 28.3359C13.7917 28.8307 13.9219 29.4329 13.9219 30.1426ZM12.1152 30.2207C12.1152 29.4004 11.8451 28.7721 11.3047 28.3359C10.7708 27.8997 10.0221 27.6816 9.05859 27.6816H7.28125V32.9355H8.90234C9.93099 32.9355 10.722 32.7109 11.2754 32.2617C11.8353 31.8125 12.1152 31.1322 12.1152 30.2207ZM20.4941 29.0195C20.696 29.0195 20.888 29.0618 21.0703 29.1465C21.2526 29.2246 21.4121 29.332 21.5488 29.4688C21.6855 29.6055 21.793 29.765 21.8711 29.9473C21.9557 30.1296 21.998 30.3216 21.998 30.5234C21.998 30.7318 21.9557 30.9271 21.8711 31.1094C21.793 31.2852 21.6855 31.4414 21.5488 31.5781C21.4121 31.7148 21.2526 31.8223 21.0703 31.9004C20.888 31.9785 20.696 32.0176 20.4941 32.0176C20.2858 32.0176 20.0905 31.9785 19.9082 31.9004C19.7324 31.8223 19.5762 31.7148 19.4395 31.5781C19.3027 31.4414 19.1953 31.2852 19.1172 31.1094C19.0391 30.9271 19 30.7318 19 30.5234C19 30.3216 19.0391 30.1296 19.1172 29.9473C19.1953 29.765 19.3027 29.6055 19.4395 29.4688C19.5762 29.332 19.7324 29.2246 19.9082 29.1465C20.0905 29.0618 20.2858 29.0195 20.4941 29.0195ZM20.4941 36.1777C20.696 36.1777 20.888 36.2201 21.0703 36.3047C21.2526 36.3828 21.4121 36.4902 21.5488 36.627C21.6855 36.7637 21.793 36.9232 21.8711 37.1055C21.9557 37.2878 21.998 37.4798 21.998 37.6816C21.998 37.89 21.9557 38.0853 21.8711 38.2676C21.793 38.4434 21.6855 38.5996 21.5488 38.7363C21.4121 38.873 21.2526 38.9805 21.0703 39.0586C20.888 39.1367 20.696 39.1758 20.4941 39.1758C20.2858 39.1758 20.0905 39.1367 19.9082 39.0586C19.7324 38.9805 19.5762 38.873 19.4395 38.7363C19.3027 38.5996 19.1953 38.4434 19.1172 38.2676C19.0391 38.0853 19 37.89 19 37.6816C19 37.4798 19.0391 37.2878 19.1172 37.1055C19.1953 36.9232 19.3027 36.7637 19.4395 36.627C19.5762 36.4902 19.7324 36.3828 19.9082 36.3047C20.0905 36.2201 20.2858 36.1777 20.4941 36.1777ZM46.7051 38.5215C45.6829 38.9447 44.612 39.1562 43.4922 39.1562C41.6888 39.1562 40.3021 38.6191 39.332 37.5449C38.3685 36.4642 37.8867 34.8691 37.8867 32.7598C37.8867 31.7376 38.0202 30.8132 38.2871 29.9863C38.554 29.1595 38.9349 28.4596 39.4297 27.8867C39.9245 27.3073 40.5234 26.8613 41.2266 26.5488C41.9297 26.2363 42.7174 26.0801 43.5898 26.0801C44.1823 26.0801 44.7324 26.1322 45.2402 26.2363C45.748 26.334 46.2363 26.487 46.7051 26.6953V28.4043C46.2428 28.1504 45.7643 27.9583 45.2695 27.8281C44.7747 27.6914 44.2344 27.623 43.6484 27.623C43.0495 27.623 42.5059 27.737 42.0176 27.9648C41.5358 28.1862 41.1257 28.5117 40.7871 28.9414C40.4486 29.3646 40.1882 29.8854 40.0059 30.5039C39.8236 31.1159 39.7324 31.8158 39.7324 32.6035C39.7324 34.2572 40.0677 35.5039 40.7383 36.3438C41.4089 37.1836 42.3919 37.6035 43.6875 37.6035C44.2344 37.6035 44.7585 37.5417 45.2598 37.418C45.7611 37.2878 46.2428 37.1087 46.7051 36.8809V38.5215ZM57.7012 38.5215C56.679 38.9447 55.6081 39.1562 54.4883 39.1562C52.6849 39.1562 51.2982 38.6191 50.3281 37.5449C49.3646 36.4642 48.8828 34.8691 48.8828 32.7598C48.8828 31.7376 49.0163 30.8132 49.2832 29.9863C49.5501 29.1595 49.931 28.4596 50.4258 27.8867C50.9206 27.3073 51.5195 26.8613 52.2227 26.5488C52.9258 26.2363 53.7135 26.0801 54.5859 26.0801C55.1784 26.0801 55.7285 26.1322 56.2363 26.2363C56.7441 26.334 57.2324 26.487 57.7012 26.6953V28.4043C57.2389 28.1504 56.7604 27.9583 56.2656 27.8281C55.7708 27.6914 55.2305 27.623 54.6445 27.623C54.0456 27.623 53.502 27.737 53.0137 27.9648C52.5319 28.1862 52.1217 28.5117 51.7832 28.9414C51.4447 29.3646 51.1842 29.8854 51.002 30.5039C50.8197 31.1159 50.7285 31.8158 50.7285 32.6035C50.7285 34.2572 51.0638 35.5039 51.7344 36.3438C52.4049 37.1836 53.388 37.6035 54.6836 37.6035C55.2305 37.6035 55.7546 37.5417 56.2559 37.418C56.7572 37.2878 57.2389 37.1087 57.7012 36.8809V38.5215ZM69.1367 27.7207H65.3574V39H63.5996V27.7207H59.8203V26.2363H69.1367V27.7207ZM80.1328 27.7207H76.3535V39H74.5957V27.7207H70.8164V26.2363H80.1328V27.7207ZM91.1289 27.7207H87.3496V39H85.5918V27.7207H81.8125V26.2363H91.1289V27.7207ZM102.125 27.7207H98.3457V39H96.5879V27.7207H92.8086V26.2363H102.125V27.7207ZM112.789 28.4238C112.314 28.1699 111.826 27.9746 111.324 27.8379C110.823 27.6947 110.276 27.623 109.684 27.623C109.007 27.623 108.404 27.7435 107.877 27.9844C107.35 28.2253 106.904 28.5671 106.539 29.0098C106.181 29.446 105.904 29.9733 105.709 30.5918C105.52 31.2103 105.426 31.8939 105.426 32.6426C105.426 33.4238 105.504 34.1237 105.66 34.7422C105.816 35.3607 106.061 35.8848 106.393 36.3145C106.725 36.7441 107.148 37.0729 107.662 37.3008C108.183 37.5286 108.805 37.6426 109.527 37.6426C109.651 37.6426 109.785 37.6361 109.928 37.623C110.071 37.61 110.214 37.5938 110.357 37.5742C110.501 37.5482 110.637 37.5189 110.768 37.4863C110.904 37.4538 111.025 37.418 111.129 37.3789V33.3164H108.521V31.8809H112.848V38.4043C112.581 38.528 112.298 38.6387 111.998 38.7363C111.705 38.834 111.402 38.9154 111.09 38.9805C110.784 39.0456 110.478 39.0944 110.172 39.127C109.866 39.1595 109.57 39.1758 109.283 39.1758C108.411 39.1758 107.623 39.0391 106.92 38.7656C106.223 38.4922 105.628 38.0885 105.133 37.5547C104.645 37.0143 104.267 36.3438 104 35.543C103.74 34.7422 103.609 33.8145 103.609 32.7598C103.609 31.7116 103.756 30.7741 104.049 29.9473C104.342 29.1139 104.752 28.4108 105.279 27.8379C105.813 27.2585 106.451 26.819 107.193 26.5195C107.942 26.2135 108.766 26.0605 109.664 26.0605C110.237 26.0605 110.781 26.1126 111.295 26.2168C111.816 26.3145 112.314 26.474 112.789 26.6953V28.4238ZM123.678 38.5215C122.656 38.9447 121.585 39.1562 120.465 39.1562C118.661 39.1562 117.275 38.6191 116.305 37.5449C115.341 36.4642 114.859 34.8691 114.859 32.7598C114.859 31.7376 114.993 30.8132 115.26 29.9863C115.527 29.1595 115.908 28.4596 116.402 27.8867C116.897 27.3073 117.496 26.8613 118.199 26.5488C118.902 26.2363 119.69 26.0801 120.562 26.0801C121.155 26.0801 121.705 26.1322 122.213 26.2363C122.721 26.334 123.209 26.487 123.678 26.6953V28.4043C123.215 28.1504 122.737 27.9583 122.242 27.8281C121.747 27.6914 121.207 27.623 120.621 27.623C120.022 27.623 119.479 27.737 118.99 27.9648C118.508 28.1862 118.098 28.5117 117.76 28.9414C117.421 29.3646 117.161 29.8854 116.979 30.5039C116.796 31.1159 116.705 31.8158 116.705 32.6035C116.705 34.2572 117.04 35.5039 117.711 36.3438C118.382 37.1836 119.365 37.6035 120.66 37.6035C121.207 37.6035 121.731 37.5417 122.232 37.418C122.734 37.2878 123.215 37.1087 123.678 36.8809V38.5215Z" fill="#C9D1D9"/>
</g>
<defs>
<filter id="filter0_d" x="0.839844" y="3.06055" width="369.934" height="44.1152" filterUnits="userSpaceOnUse" color-interpolation-filters="sRGB">
<feFlood flood-opacity="0" result="BackgroundImageFix"/>
<feColorMatrix in="SourceAlpha" type="matrix" values="0 0 0 0 0 0 0 0 0 0 0 0 0 0 0 0 0 0 127 0"/>
<feOffset dy="4"/>
<feGaussianBlur stdDeviation="2"/>
<feColorMatrix type="matrix" values="0 0 0 0 0 0 0 0 0 0 0 0 0 0 0 0 0 0 0.25 0"/>
<feBlend mode="normal" in2="BackgroundImageFix" result="effect1_dropShadow"/>
<feBlend mode="normal" in="SourceGraphic" in2="effect1_dropShadow" result="shape"/>
</filter>
</defs>
</svg>
