<svg width="418" height="109" viewBox="0 0 418 109" fill="none" xmlns="http://www.w3.org/2000/svg">
<g filter="url(#filter0_d)">
<path d="M285 93H269.803" stroke="#C9D1D9" stroke-width="2"/>
<path d="M238.239 93H223.042" stroke="#C9D1D9" stroke-width="2"/>
<path d="M261.62 93H246.422" stroke="#C9D1D9" stroke-width="2"/>
<path d="M201.293 92.2929C200.902 92.6834 200.902 93.3166 201.293 93.7071L207.657 100.071C208.047 100.462 208.681 100.462 209.071 100.071C209.462 99.6805 209.462 99.0474 209.071 98.6569L203.414 93L209.071 87.3431C209.462 86.9526 209.462 86.3195 209.071 85.9289C208.681 85.5384 208.047 85.5384 207.657 85.9289L201.293 92.2929ZM216.028 92H202V94H216.028V92Z" fill="#C9D1D9"/>
</g>
<path d="M65.1562 46.7207H61.377V58H59.6191V46.7207H55.8398V45.2363H65.1562V46.7207ZM71.4941 48.0195C71.696 48.0195 71.888 48.0618 72.0703 48.1465C72.2526 48.2246 72.4121 48.332 72.5488 48.4688C72.6855 48.6055 72.793 48.765 72.8711 48.9473C72.9557 49.1296 72.998 49.3216 72.998 49.5234C72.998 49.7318 72.9557 49.9271 72.8711 50.1094C72.793 50.2852 72.6855 50.4414 72.5488 50.5781C72.4121 50.7148 72.2526 50.8223 72.0703 50.9004C71.888 50.9785 71.696 51.0176 71.4941 51.0176C71.2858 51.0176 71.0905 50.9785 70.9082 50.9004C70.7324 50.8223 70.5762 50.7148 70.4395 50.5781C70.3027 50.4414 70.1953 50.2852 70.1172 50.1094C70.0391 49.9271 70 49.7318 70 49.5234C70 49.3216 70.0391 49.1296 70.1172 48.9473C70.1953 48.765 70.3027 48.6055 70.4395 48.4688C70.5762 48.332 70.7324 48.2246 70.9082 48.1465C71.0905 48.0618 71.2858 48.0195 71.4941 48.0195ZM71.4941 55.1777C71.696 55.1777 71.888 55.2201 72.0703 55.3047C72.2526 55.3828 72.4121 55.4902 72.5488 55.627C72.6855 55.7637 72.793 55.9232 72.8711 56.1055C72.9557 56.2878 72.998 56.4798 72.998 56.6816C72.998 56.89 72.9557 57.0853 72.8711 57.2676C72.793 57.4434 72.6855 57.5996 72.5488 57.7363C72.4121 57.873 72.2526 57.9805 72.0703 58.0586C71.888 58.1367 71.696 58.1758 71.4941 58.1758C71.2858 58.1758 71.0905 58.1367 70.9082 58.0586C70.7324 57.9805 70.5762 57.873 70.4395 57.7363C70.3027 57.5996 70.1953 57.4434 70.1172 57.2676C70.0391 57.0853 70 56.89 70 56.6816C70 56.4798 70.0391 56.2878 70.1172 56.1055C70.1953 55.9232 70.3027 55.7637 70.4395 55.627C70.5762 55.4902 70.7324 55.3828 70.9082 55.3047C71.0905 55.2201 71.2858 55.1777 71.4941 55.1777ZM97.8125 47.4238C97.3372 47.1699 96.849 46.9746 96.3477 46.8379C95.8464 46.6947 95.2995 46.623 94.707 46.623C94.0299 46.623 93.4277 46.7435 92.9004 46.9844C92.373 47.2253 91.9271 47.5671 91.5625 48.0098C91.2044 48.446 90.9277 48.9733 90.7324 49.5918C90.5436 50.2103 90.4492 50.8939 90.4492 51.6426C90.4492 52.4238 90.5273 53.1237 90.6836 53.7422C90.8398 54.3607 91.084 54.8848 91.416 55.3145C91.748 55.7441 92.1712 56.0729 92.6855 56.3008C93.2064 56.5286 93.8281 56.6426 94.5508 56.6426C94.6745 56.6426 94.8079 56.6361 94.9512 56.623C95.0944 56.61 95.2376 56.5938 95.3809 56.5742C95.5241 56.5482 95.6608 56.5189 95.791 56.4863C95.9277 56.4538 96.0482 56.418 96.1523 56.3789V52.3164H93.5449V50.8809H97.8711V57.4043C97.6042 57.528 97.321 57.6387 97.0215 57.7363C96.7285 57.834 96.4258 57.9154 96.1133 57.9805C95.8073 58.0456 95.5013 58.0944 95.1953 58.127C94.8893 58.1595 94.5931 58.1758 94.3066 58.1758C93.4342 58.1758 92.6465 58.0391 91.9434 57.7656C91.2467 57.4922 90.651 57.0885 90.1562 56.5547C89.668 56.0143 89.2904 55.3438 89.0234 54.543C88.763 53.7422 88.6328 52.8145 88.6328 51.7598C88.6328 50.7116 88.7793 49.7741 89.0723 48.9473C89.3652 48.1139 89.7754 47.4108 90.3027 46.8379C90.8366 46.2585 91.4746 45.819 92.2168 45.5195C92.9655 45.2135 93.7891 45.0605 94.6875 45.0605C95.2604 45.0605 95.804 45.1126 96.3184 45.2168C96.8392 45.3145 97.3372 45.474 97.8125 45.6953V47.4238ZM108.701 57.5215C107.679 57.9447 106.608 58.1562 105.488 58.1562C103.685 58.1562 102.298 57.6191 101.328 56.5449C100.365 55.4642 99.8828 53.8691 99.8828 51.7598C99.8828 50.7376 100.016 49.8132 100.283 48.9863C100.55 48.1595 100.931 47.4596 101.426 46.8867C101.921 46.3073 102.52 45.8613 103.223 45.5488C103.926 45.2363 104.714 45.0801 105.586 45.0801C106.178 45.0801 106.729 45.1322 107.236 45.2363C107.744 45.334 108.232 45.487 108.701 45.6953V47.4043C108.239 47.1504 107.76 46.9583 107.266 46.8281C106.771 46.6914 106.23 46.623 105.645 46.623C105.046 46.623 104.502 46.737 104.014 46.9648C103.532 47.1862 103.122 47.5117 102.783 47.9414C102.445 48.3646 102.184 48.8854 102.002 49.5039C101.82 50.1159 101.729 50.8158 101.729 51.6035C101.729 53.2572 102.064 54.5039 102.734 55.3438C103.405 56.1836 104.388 56.6035 105.684 56.6035C106.23 56.6035 106.755 56.5417 107.256 56.418C107.757 56.2878 108.239 56.1087 108.701 55.8809V57.5215ZM120.137 46.7207H116.357V58H114.6V46.7207H110.82V45.2363H120.137V46.7207ZM131.133 46.7207H127.354V58H125.596V46.7207H121.816V45.2363H131.133V46.7207ZM141.689 57.5215C140.667 57.9447 139.596 58.1562 138.477 58.1562C136.673 58.1562 135.286 57.6191 134.316 56.5449C133.353 55.4642 132.871 53.8691 132.871 51.7598C132.871 50.7376 133.005 49.8132 133.271 48.9863C133.538 48.1595 133.919 47.4596 134.414 46.8867C134.909 46.3073 135.508 45.8613 136.211 45.5488C136.914 45.2363 137.702 45.0801 138.574 45.0801C139.167 45.0801 139.717 45.1322 140.225 45.2363C140.732 45.334 141.221 45.487 141.689 45.6953V47.4043C141.227 47.1504 140.749 46.9583 140.254 46.8281C139.759 46.6914 139.219 46.623 138.633 46.623C138.034 46.623 137.49 46.737 137.002 46.9648C136.52 47.1862 136.11 47.5117 135.771 47.9414C135.433 48.3646 135.173 48.8854 134.99 49.5039C134.808 50.1159 134.717 50.8158 134.717 51.6035C134.717 53.2572 135.052 54.5039 135.723 55.3438C136.393 56.1836 137.376 56.6035 138.672 56.6035C139.219 56.6035 139.743 56.5417 140.244 56.418C140.745 56.2878 141.227 56.1087 141.689 55.8809V57.5215ZM153.125 46.7207H149.346V58H147.588V46.7207H143.809V45.2363H153.125V46.7207ZM163.789 47.4238C163.314 47.1699 162.826 46.9746 162.324 46.8379C161.823 46.6947 161.276 46.623 160.684 46.623C160.007 46.623 159.404 46.7435 158.877 46.9844C158.35 47.2253 157.904 47.5671 157.539 48.0098C157.181 48.446 156.904 48.9733 156.709 49.5918C156.52 50.2103 156.426 50.8939 156.426 51.6426C156.426 52.4238 156.504 53.1237 156.66 53.7422C156.816 54.3607 157.061 54.8848 157.393 55.3145C157.725 55.7441 158.148 56.0729 158.662 56.3008C159.183 56.5286 159.805 56.6426 160.527 56.6426C160.651 56.6426 160.785 56.6361 160.928 56.623C161.071 56.61 161.214 56.5938 161.357 56.5742C161.501 56.5482 161.637 56.5189 161.768 56.4863C161.904 56.4538 162.025 56.418 162.129 56.3789V52.3164H159.521V50.8809H163.848V57.4043C163.581 57.528 163.298 57.6387 162.998 57.7363C162.705 57.834 162.402 57.9154 162.09 57.9805C161.784 58.0456 161.478 58.0944 161.172 58.127C160.866 58.1595 160.57 58.1758 160.283 58.1758C159.411 58.1758 158.623 58.0391 157.92 57.7656C157.223 57.4922 156.628 57.0885 156.133 56.5547C155.645 56.0143 155.267 55.3438 155 54.543C154.74 53.7422 154.609 52.8145 154.609 51.7598C154.609 50.7116 154.756 49.7741 155.049 48.9473C155.342 48.1139 155.752 47.4108 156.279 46.8379C156.813 46.2585 157.451 45.819 158.193 45.5195C158.942 45.2135 159.766 45.0605 160.664 45.0605C161.237 45.0605 161.781 45.1126 162.295 45.2168C162.816 45.3145 163.314 45.474 163.789 45.6953V47.4238ZM174.678 57.5215C173.656 57.9447 172.585 58.1562 171.465 58.1562C169.661 58.1562 168.275 57.6191 167.305 56.5449C166.341 55.4642 165.859 53.8691 165.859 51.7598C165.859 50.7376 165.993 49.8132 166.26 48.9863C166.527 48.1595 166.908 47.4596 167.402 46.8867C167.897 46.3073 168.496 45.8613 169.199 45.5488C169.902 45.2363 170.69 45.0801 171.562 45.0801C172.155 45.0801 172.705 45.1322 173.213 45.2363C173.721 45.334 174.209 45.487 174.678 45.6953V47.4043C174.215 47.1504 173.737 46.9583 173.242 46.8281C172.747 46.6914 172.207 46.623 171.621 46.623C171.022 46.623 170.479 46.737 169.99 46.9648C169.508 47.1862 169.098 47.5117 168.76 47.9414C168.421 48.3646 168.161 48.8854 167.979 49.5039C167.796 50.1159 167.705 50.8158 167.705 51.6035C167.705 53.2572 168.04 54.5039 168.711 55.3438C169.382 56.1836 170.365 56.6035 171.66 56.6035C172.207 56.6035 172.731 56.5417 173.232 56.418C173.734 56.2878 174.215 56.1087 174.678 55.8809V57.5215ZM186.113 46.7207H182.334V58H180.576V46.7207H176.797V45.2363H186.113V46.7207ZM197.852 58H195.957L195.068 55.2168H189.756L188.857 58H187.051L191.289 45.2363H193.672L197.852 58ZM194.57 53.6641L192.412 46.8379L190.254 53.6641H194.57ZM295.742 47.4238C295.267 47.1699 294.779 46.9746 294.277 46.8379C293.776 46.6947 293.229 46.623 292.637 46.623C291.96 46.623 291.357 46.7435 290.83 46.9844C290.303 47.2253 289.857 47.5671 289.492 48.0098C289.134 48.446 288.857 48.9733 288.662 49.5918C288.473 50.2103 288.379 50.8939 288.379 51.6426C288.379 52.4238 288.457 53.1237 288.613 53.7422C288.77 54.3607 289.014 54.8848 289.346 55.3145C289.678 55.7441 290.101 56.0729 290.615 56.3008C291.136 56.5286 291.758 56.6426 292.48 56.6426C292.604 56.6426 292.738 56.6361 292.881 56.623C293.024 56.61 293.167 56.5938 293.311 56.5742C293.454 56.5482 293.59 56.5189 293.721 56.4863C293.857 56.4538 293.978 56.418 294.082 56.3789V52.3164H291.475V50.8809H295.801V57.4043C295.534 57.528 295.251 57.6387 294.951 57.7363C294.658 57.834 294.355 57.9154 294.043 57.9805C293.737 58.0456 293.431 58.0944 293.125 58.127C292.819 58.1595 292.523 58.1758 292.236 58.1758C291.364 58.1758 290.576 58.0391 289.873 57.7656C289.176 57.4922 288.581 57.0885 288.086 56.5547C287.598 56.0143 287.22 55.3438 286.953 54.543C286.693 53.7422 286.562 52.8145 286.562 51.7598C286.562 50.7116 286.709 49.7741 287.002 48.9473C287.295 48.1139 287.705 47.4108 288.232 46.8379C288.766 46.2585 289.404 45.819 290.146 45.5195C290.895 45.2135 291.719 45.0605 292.617 45.0605C293.19 45.0605 293.734 45.1126 294.248 45.2168C294.769 45.3145 295.267 45.474 295.742 45.6953V47.4238ZM306.631 57.5215C305.609 57.9447 304.538 58.1562 303.418 58.1562C301.615 58.1562 300.228 57.6191 299.258 56.5449C298.294 55.4642 297.812 53.8691 297.812 51.7598C297.812 50.7376 297.946 49.8132 298.213 48.9863C298.48 48.1595 298.861 47.4596 299.355 46.8867C299.85 46.3073 300.449 45.8613 301.152 45.5488C301.855 45.2363 302.643 45.0801 303.516 45.0801C304.108 45.0801 304.658 45.1322 305.166 45.2363C305.674 45.334 306.162 45.487 306.631 45.6953V47.4043C306.169 47.1504 305.69 46.9583 305.195 46.8281C304.701 46.6914 304.16 46.623 303.574 46.623C302.975 46.623 302.432 46.737 301.943 46.9648C301.462 47.1862 301.051 47.5117 300.713 47.9414C300.374 48.3646 300.114 48.8854 299.932 49.5039C299.749 50.1159 299.658 50.8158 299.658 51.6035C299.658 53.2572 299.993 54.5039 300.664 55.3438C301.335 56.1836 302.318 56.6035 303.613 56.6035C304.16 56.6035 304.684 56.5417 305.186 56.418C305.687 56.2878 306.169 56.1087 306.631 55.8809V57.5215ZM317.734 47.4238C317.259 47.1699 316.771 46.9746 316.27 46.8379C315.768 46.6947 315.221 46.623 314.629 46.623C313.952 46.623 313.35 46.7435 312.822 46.9844C312.295 47.2253 311.849 47.5671 311.484 48.0098C311.126 48.446 310.85 48.9733 310.654 49.5918C310.465 50.2103 310.371 50.8939 310.371 51.6426C310.371 52.4238 310.449 53.1237 310.605 53.7422C310.762 54.3607 311.006 54.8848 311.338 55.3145C311.67 55.7441 312.093 56.0729 312.607 56.3008C313.128 56.5286 313.75 56.6426 314.473 56.6426C314.596 56.6426 314.73 56.6361 314.873 56.623C315.016 56.61 315.16 56.5938 315.303 56.5742C315.446 56.5482 315.583 56.5189 315.713 56.4863C315.85 56.4538 315.97 56.418 316.074 56.3789V52.3164H313.467V50.8809H317.793V57.4043C317.526 57.528 317.243 57.6387 316.943 57.7363C316.65 57.834 316.348 57.9154 316.035 57.9805C315.729 58.0456 315.423 58.0944 315.117 58.127C314.811 58.1595 314.515 58.1758 314.229 58.1758C313.356 58.1758 312.568 58.0391 311.865 57.7656C311.169 57.4922 310.573 57.0885 310.078 56.5547C309.59 56.0143 309.212 55.3438 308.945 54.543C308.685 53.7422 308.555 52.8145 308.555 51.7598C308.555 50.7116 308.701 49.7741 308.994 48.9473C309.287 48.1139 309.697 47.4108 310.225 46.8379C310.758 46.2585 311.396 45.819 312.139 45.5195C312.887 45.2135 313.711 45.0605 314.609 45.0605C315.182 45.0605 315.726 45.1126 316.24 45.2168C316.761 45.3145 317.259 45.474 317.734 45.6953V47.4238ZM328.623 57.5215C327.601 57.9447 326.53 58.1562 325.41 58.1562C323.607 58.1562 322.22 57.6191 321.25 56.5449C320.286 55.4642 319.805 53.8691 319.805 51.7598C319.805 50.7376 319.938 49.8132 320.205 48.9863C320.472 48.1595 320.853 47.4596 321.348 46.8867C321.842 46.3073 322.441 45.8613 323.145 45.5488C323.848 45.2363 324.635 45.0801 325.508 45.0801C326.1 45.0801 326.65 45.1322 327.158 45.2363C327.666 45.334 328.154 45.487 328.623 45.6953V47.4043C328.161 47.1504 327.682 46.9583 327.188 46.8281C326.693 46.6914 326.152 46.623 325.566 46.623C324.967 46.623 324.424 46.737 323.936 46.9648C323.454 47.1862 323.044 47.5117 322.705 47.9414C322.367 48.3646 322.106 48.8854 321.924 49.5039C321.742 50.1159 321.65 50.8158 321.65 51.6035C321.65 53.2572 321.986 54.5039 322.656 55.3438C323.327 56.1836 324.31 56.6035 325.605 56.6035C326.152 56.6035 326.676 56.5417 327.178 56.418C327.679 56.2878 328.161 56.1087 328.623 55.8809V57.5215ZM339.727 47.4238C339.251 47.1699 338.763 46.9746 338.262 46.8379C337.76 46.6947 337.214 46.623 336.621 46.623C335.944 46.623 335.342 46.7435 334.814 46.9844C334.287 47.2253 333.841 47.5671 333.477 48.0098C333.118 48.446 332.842 48.9733 332.646 49.5918C332.458 50.2103 332.363 50.8939 332.363 51.6426C332.363 52.4238 332.441 53.1237 332.598 53.7422C332.754 54.3607 332.998 54.8848 333.33 55.3145C333.662 55.7441 334.085 56.0729 334.6 56.3008C335.12 56.5286 335.742 56.6426 336.465 56.6426C336.589 56.6426 336.722 56.6361 336.865 56.623C337.008 56.61 337.152 56.5938 337.295 56.5742C337.438 56.5482 337.575 56.5189 337.705 56.4863C337.842 56.4538 337.962 56.418 338.066 56.3789V52.3164H335.459V50.8809H339.785V57.4043C339.518 57.528 339.235 57.6387 338.936 57.7363C338.643 57.834 338.34 57.9154 338.027 57.9805C337.721 58.0456 337.415 58.0944 337.109 58.127C336.803 58.1595 336.507 58.1758 336.221 58.1758C335.348 58.1758 334.561 58.0391 333.857 57.7656C333.161 57.4922 332.565 57.0885 332.07 56.5547C331.582 56.0143 331.204 55.3438 330.938 54.543C330.677 53.7422 330.547 52.8145 330.547 51.7598C330.547 50.7116 330.693 49.7741 330.986 48.9473C331.279 48.1139 331.689 47.4108 332.217 46.8379C332.751 46.2585 333.389 45.819 334.131 45.5195C334.88 45.2135 335.703 45.0605 336.602 45.0605C337.174 45.0605 337.718 45.1126 338.232 45.2168C338.753 45.3145 339.251 45.474 339.727 45.6953V47.4238ZM350.615 57.5215C349.593 57.9447 348.522 58.1562 347.402 58.1562C345.599 58.1562 344.212 57.6191 343.242 56.5449C342.279 55.4642 341.797 53.8691 341.797 51.7598C341.797 50.7376 341.93 49.8132 342.197 48.9863C342.464 48.1595 342.845 47.4596 343.34 46.8867C343.835 46.3073 344.434 45.8613 345.137 45.5488C345.84 45.2363 346.628 45.0801 347.5 45.0801C348.092 45.0801 348.643 45.1322 349.15 45.2363C349.658 45.334 350.146 45.487 350.615 45.6953V47.4043C350.153 47.1504 349.674 46.9583 349.18 46.8281C348.685 46.6914 348.145 46.623 347.559 46.623C346.96 46.623 346.416 46.737 345.928 46.9648C345.446 47.1862 345.036 47.5117 344.697 47.9414C344.359 48.3646 344.098 48.8854 343.916 49.5039C343.734 50.1159 343.643 50.8158 343.643 51.6035C343.643 53.2572 343.978 54.5039 344.648 55.3438C345.319 56.1836 346.302 56.6035 347.598 56.6035C348.145 56.6035 348.669 56.5417 349.17 56.418C349.671 56.2878 350.153 56.1087 350.615 55.8809V57.5215ZM361.719 47.4238C361.243 47.1699 360.755 46.9746 360.254 46.8379C359.753 46.6947 359.206 46.623 358.613 46.623C357.936 46.623 357.334 46.7435 356.807 46.9844C356.279 47.2253 355.833 47.5671 355.469 48.0098C355.111 48.446 354.834 48.9733 354.639 49.5918C354.45 50.2103 354.355 50.8939 354.355 51.6426C354.355 52.4238 354.434 53.1237 354.59 53.7422C354.746 54.3607 354.99 54.8848 355.322 55.3145C355.654 55.7441 356.077 56.0729 356.592 56.3008C357.113 56.5286 357.734 56.6426 358.457 56.6426C358.581 56.6426 358.714 56.6361 358.857 56.623C359.001 56.61 359.144 56.5938 359.287 56.5742C359.43 56.5482 359.567 56.5189 359.697 56.4863C359.834 56.4538 359.954 56.418 360.059 56.3789V52.3164H357.451V50.8809H361.777V57.4043C361.51 57.528 361.227 57.6387 360.928 57.7363C360.635 57.834 360.332 57.9154 360.02 57.9805C359.714 58.0456 359.408 58.0944 359.102 58.127C358.796 58.1595 358.499 58.1758 358.213 58.1758C357.34 58.1758 356.553 58.0391 355.85 57.7656C355.153 57.4922 354.557 57.0885 354.062 56.5547C353.574 56.0143 353.197 55.3438 352.93 54.543C352.669 53.7422 352.539 52.8145 352.539 51.7598C352.539 50.7116 352.686 49.7741 352.979 48.9473C353.271 48.1139 353.682 47.4108 354.209 46.8379C354.743 46.2585 355.381 45.819 356.123 45.5195C356.872 45.2135 357.695 45.0605 358.594 45.0605C359.167 45.0605 359.71 45.1126 360.225 45.2168C360.745 45.3145 361.243 45.474 361.719 45.6953V47.4238ZM372.607 57.5215C371.585 57.9447 370.514 58.1562 369.395 58.1562C367.591 58.1562 366.204 57.6191 365.234 56.5449C364.271 55.4642 363.789 53.8691 363.789 51.7598C363.789 50.7376 363.923 49.8132 364.189 48.9863C364.456 48.1595 364.837 47.4596 365.332 46.8867C365.827 46.3073 366.426 45.8613 367.129 45.5488C367.832 45.2363 368.62 45.0801 369.492 45.0801C370.085 45.0801 370.635 45.1322 371.143 45.2363C371.65 45.334 372.139 45.487 372.607 45.6953V47.4043C372.145 47.1504 371.667 46.9583 371.172 46.8281C370.677 46.6914 370.137 46.623 369.551 46.623C368.952 46.623 368.408 46.737 367.92 46.9648C367.438 47.1862 367.028 47.5117 366.689 47.9414C366.351 48.3646 366.09 48.8854 365.908 49.5039C365.726 50.1159 365.635 50.8158 365.635 51.6035C365.635 53.2572 365.97 54.5039 366.641 55.3438C367.311 56.1836 368.294 56.6035 369.59 56.6035C370.137 56.6035 370.661 56.5417 371.162 56.418C371.663 56.2878 372.145 56.1087 372.607 55.8809V57.5215ZM383.711 47.4238C383.236 47.1699 382.747 46.9746 382.246 46.8379C381.745 46.6947 381.198 46.623 380.605 46.623C379.928 46.623 379.326 46.7435 378.799 46.9844C378.271 47.2253 377.826 47.5671 377.461 48.0098C377.103 48.446 376.826 48.9733 376.631 49.5918C376.442 50.2103 376.348 50.8939 376.348 51.6426C376.348 52.4238 376.426 53.1237 376.582 53.7422C376.738 54.3607 376.982 54.8848 377.314 55.3145C377.646 55.7441 378.07 56.0729 378.584 56.3008C379.105 56.5286 379.727 56.6426 380.449 56.6426C380.573 56.6426 380.706 56.6361 380.85 56.623C380.993 56.61 381.136 56.5938 381.279 56.5742C381.423 56.5482 381.559 56.5189 381.689 56.4863C381.826 56.4538 381.947 56.418 382.051 56.3789V52.3164H379.443V50.8809H383.77V57.4043C383.503 57.528 383.219 57.6387 382.92 57.7363C382.627 57.834 382.324 57.9154 382.012 57.9805C381.706 58.0456 381.4 58.0944 381.094 58.127C380.788 58.1595 380.492 58.1758 380.205 58.1758C379.333 58.1758 378.545 58.0391 377.842 57.7656C377.145 57.4922 376.549 57.0885 376.055 56.5547C375.566 56.0143 375.189 55.3438 374.922 54.543C374.661 53.7422 374.531 52.8145 374.531 51.7598C374.531 50.7116 374.678 49.7741 374.971 48.9473C375.264 48.1139 375.674 47.4108 376.201 46.8379C376.735 46.2585 377.373 45.819 378.115 45.5195C378.864 45.2135 379.688 45.0605 380.586 45.0605C381.159 45.0605 381.702 45.1126 382.217 45.2168C382.738 45.3145 383.236 45.474 383.711 45.6953V47.4238ZM394.707 47.4238C394.232 47.1699 393.743 46.9746 393.242 46.8379C392.741 46.6947 392.194 46.623 391.602 46.623C390.924 46.623 390.322 46.7435 389.795 46.9844C389.268 47.2253 388.822 47.5671 388.457 48.0098C388.099 48.446 387.822 48.9733 387.627 49.5918C387.438 50.2103 387.344 50.8939 387.344 51.6426C387.344 52.4238 387.422 53.1237 387.578 53.7422C387.734 54.3607 387.979 54.8848 388.311 55.3145C388.643 55.7441 389.066 56.0729 389.58 56.3008C390.101 56.5286 390.723 56.6426 391.445 56.6426C391.569 56.6426 391.702 56.6361 391.846 56.623C391.989 56.61 392.132 56.5938 392.275 56.5742C392.419 56.5482 392.555 56.5189 392.686 56.4863C392.822 56.4538 392.943 56.418 393.047 56.3789V52.3164H390.439V50.8809H394.766V57.4043C394.499 57.528 394.215 57.6387 393.916 57.7363C393.623 57.834 393.32 57.9154 393.008 57.9805C392.702 58.0456 392.396 58.0944 392.09 58.127C391.784 58.1595 391.488 58.1758 391.201 58.1758C390.329 58.1758 389.541 58.0391 388.838 57.7656C388.141 57.4922 387.546 57.0885 387.051 56.5547C386.562 56.0143 386.185 55.3438 385.918 54.543C385.658 53.7422 385.527 52.8145 385.527 51.7598C385.527 50.7116 385.674 49.7741 385.967 48.9473C386.26 48.1139 386.67 47.4108 387.197 46.8379C387.731 46.2585 388.369 45.819 389.111 45.5195C389.86 45.2135 390.684 45.0605 391.582 45.0605C392.155 45.0605 392.699 45.1126 393.213 45.2168C393.734 45.3145 394.232 45.474 394.707 45.6953V47.4238ZM406.777 58H404.883L403.994 55.2168H398.682L397.783 58H395.977L400.215 45.2363H402.598L406.777 58ZM403.496 53.6641L401.338 46.8379L399.18 53.6641H403.496ZM417.773 58H415.879L414.99 55.2168H409.678L408.779 58H406.973L411.211 45.2363H413.594L417.773 58ZM414.492 53.6641L412.334 46.8379L410.176 53.6641H414.492ZM64.9219 72.1426C64.9219 72.6634 64.8242 73.181 64.6289 73.6953C64.4336 74.2031 64.1309 74.6589 63.7207 75.0625C63.3105 75.4661 62.7865 75.7949 62.1484 76.0488C61.5104 76.2962 60.7487 76.4199 59.8633 76.4199H58.2812V81H56.543V68.2363H60.1367C60.7682 68.2363 61.3737 68.3079 61.9531 68.4512C62.5326 68.5879 63.0404 68.8125 63.4766 69.125C63.9193 69.4375 64.2708 69.8411 64.5312 70.3359C64.7917 70.8307 64.9219 71.4329 64.9219 72.1426ZM63.1152 72.2207C63.1152 71.4004 62.8451 70.7721 62.3047 70.3359C61.7708 69.8997 61.0221 69.6816 60.0586 69.6816H58.2812V74.9355H59.9023C60.931 74.9355 61.722 74.7109 62.2754 74.2617C62.8353 73.8125 63.1152 73.1322 63.1152 72.2207ZM71.4941 71.0195C71.696 71.0195 71.888 71.0618 72.0703 71.1465C72.2526 71.2246 72.4121 71.332 72.5488 71.4688C72.6855 71.6055 72.793 71.765 72.8711 71.9473C72.9557 72.1296 72.998 72.3216 72.998 72.5234C72.998 72.7318 72.9557 72.9271 72.8711 73.1094C72.793 73.2852 72.6855 73.4414 72.5488 73.5781C72.4121 73.7148 72.2526 73.8223 72.0703 73.9004C71.888 73.9785 71.696 74.0176 71.4941 74.0176C71.2858 74.0176 71.0905 73.9785 70.9082 73.9004C70.7324 73.8223 70.5762 73.7148 70.4395 73.5781C70.3027 73.4414 70.1953 73.2852 70.1172 73.1094C70.0391 72.9271 70 72.7318 70 72.5234C70 72.3216 70.0391 72.1296 70.1172 71.9473C70.1953 71.765 70.3027 71.6055 70.4395 71.4688C70.5762 71.332 70.7324 71.2246 70.9082 71.1465C71.0905 71.0618 71.2858 71.0195 71.4941 71.0195ZM71.4941 78.1777C71.696 78.1777 71.888 78.2201 72.0703 78.3047C72.2526 78.3828 72.4121 78.4902 72.5488 78.627C72.6855 78.7637 72.793 78.9232 72.8711 79.1055C72.9557 79.2878 72.998 79.4798 72.998 79.6816C72.998 79.89 72.9557 80.0853 72.8711 80.2676C72.793 80.4434 72.6855 80.5996 72.5488 80.7363C72.4121 80.873 72.2526 80.9805 72.0703 81.0586C71.888 81.1367 71.696 81.1758 71.4941 81.1758C71.2858 81.1758 71.0905 81.1367 70.9082 81.0586C70.7324 80.9805 70.5762 80.873 70.4395 80.7363C70.3027 80.5996 70.1953 80.4434 70.1172 80.2676C70.0391 80.0853 70 79.89 70 79.6816C70 79.4798 70.0391 79.2878 70.1172 79.1055C70.1953 78.9232 70.3027 78.7637 70.4395 78.627C70.5762 78.4902 70.7324 78.3828 70.9082 78.3047C71.0905 78.2201 71.2858 78.1777 71.4941 78.1777Z" fill="#C9D1D9"/>
<path d="M207.666 57.5215C206.644 57.9447 205.573 58.1562 204.453 58.1562C202.65 58.1562 201.263 57.6191 200.293 56.5449C199.329 55.4642 198.848 53.8691 198.848 51.7598C198.848 50.7376 198.981 49.8132 199.248 48.9863C199.515 48.1595 199.896 47.4596 200.391 46.8867C200.885 46.3073 201.484 45.8613 202.188 45.5488C202.891 45.2363 203.678 45.0801 204.551 45.0801C205.143 45.0801 205.693 45.1322 206.201 45.2363C206.709 45.334 207.197 45.487 207.666 45.6953V47.4043C207.204 47.1504 206.725 46.9583 206.23 46.8281C205.736 46.6914 205.195 46.623 204.609 46.623C204.01 46.623 203.467 46.737 202.979 46.9648C202.497 47.1862 202.087 47.5117 201.748 47.9414C201.41 48.3646 201.149 48.8854 200.967 49.5039C200.785 50.1159 200.693 50.8158 200.693 51.6035C200.693 53.2572 201.029 54.5039 201.699 55.3438C202.37 56.1836 203.353 56.6035 204.648 56.6035C205.195 56.6035 205.719 56.5417 206.221 56.418C206.722 56.2878 207.204 56.1087 207.666 55.8809V57.5215ZM218.662 57.5215C217.64 57.9447 216.569 58.1562 215.449 58.1562C213.646 58.1562 212.259 57.6191 211.289 56.5449C210.326 55.4642 209.844 53.8691 209.844 51.7598C209.844 50.7376 209.977 49.8132 210.244 48.9863C210.511 48.1595 210.892 47.4596 211.387 46.8867C211.882 46.3073 212.48 45.8613 213.184 45.5488C213.887 45.2363 214.674 45.0801 215.547 45.0801C216.139 45.0801 216.689 45.1322 217.197 45.2363C217.705 45.334 218.193 45.487 218.662 45.6953V47.4043C218.2 47.1504 217.721 46.9583 217.227 46.8281C216.732 46.6914 216.191 46.623 215.605 46.623C215.007 46.623 214.463 46.737 213.975 46.9648C213.493 47.1862 213.083 47.5117 212.744 47.9414C212.406 48.3646 212.145 48.8854 211.963 49.5039C211.781 50.1159 211.689 50.8158 211.689 51.6035C211.689 53.2572 212.025 54.5039 212.695 55.3438C213.366 56.1836 214.349 56.6035 215.645 56.6035C216.191 56.6035 216.715 56.5417 217.217 56.418C217.718 56.2878 218.2 56.1087 218.662 55.8809V57.5215ZM230.098 46.7207H226.318V58H224.561V46.7207H220.781V45.2363H230.098V46.7207ZM241.094 46.7207H237.314V58H235.557V46.7207H231.777V45.2363H241.094V46.7207ZM252.09 46.7207H248.311V58H246.553V46.7207H242.773V45.2363H252.09V46.7207ZM263.086 46.7207H259.307V58H257.549V46.7207H253.77V45.2363H263.086V46.7207ZM273.75 47.4238C273.275 47.1699 272.786 46.9746 272.285 46.8379C271.784 46.6947 271.237 46.623 270.645 46.623C269.967 46.623 269.365 46.7435 268.838 46.9844C268.311 47.2253 267.865 47.5671 267.5 48.0098C267.142 48.446 266.865 48.9733 266.67 49.5918C266.481 50.2103 266.387 50.8939 266.387 51.6426C266.387 52.4238 266.465 53.1237 266.621 53.7422C266.777 54.3607 267.021 54.8848 267.354 55.3145C267.686 55.7441 268.109 56.0729 268.623 56.3008C269.144 56.5286 269.766 56.6426 270.488 56.6426C270.612 56.6426 270.745 56.6361 270.889 56.623C271.032 56.61 271.175 56.5938 271.318 56.5742C271.462 56.5482 271.598 56.5189 271.729 56.4863C271.865 56.4538 271.986 56.418 272.09 56.3789V52.3164H269.482V50.8809H273.809V57.4043C273.542 57.528 273.258 57.6387 272.959 57.7363C272.666 57.834 272.363 57.9154 272.051 57.9805C271.745 58.0456 271.439 58.0944 271.133 58.127C270.827 58.1595 270.531 58.1758 270.244 58.1758C269.372 58.1758 268.584 58.0391 267.881 57.7656C267.184 57.4922 266.589 57.0885 266.094 56.5547C265.605 56.0143 265.228 55.3438 264.961 54.543C264.701 53.7422 264.57 52.8145 264.57 51.7598C264.57 50.7116 264.717 49.7741 265.01 48.9473C265.303 48.1139 265.713 47.4108 266.24 46.8379C266.774 46.2585 267.412 45.819 268.154 45.5195C268.903 45.2135 269.727 45.0605 270.625 45.0605C271.198 45.0605 271.742 45.1126 272.256 45.2168C272.777 45.3145 273.275 45.474 273.75 45.6953V47.4238ZM284.639 57.5215C283.617 57.9447 282.546 58.1562 281.426 58.1562C279.622 58.1562 278.236 57.6191 277.266 56.5449C276.302 55.4642 275.82 53.8691 275.82 51.7598C275.82 50.7376 275.954 49.8132 276.221 48.9863C276.488 48.1595 276.868 47.4596 277.363 46.8867C277.858 46.3073 278.457 45.8613 279.16 45.5488C279.863 45.2363 280.651 45.0801 281.523 45.0801C282.116 45.0801 282.666 45.1322 283.174 45.2363C283.682 45.334 284.17 45.487 284.639 45.6953V47.4043C284.176 47.1504 283.698 46.9583 283.203 46.8281C282.708 46.6914 282.168 46.623 281.582 46.623C280.983 46.623 280.439 46.737 279.951 46.9648C279.469 47.1862 279.059 47.5117 278.721 47.9414C278.382 48.3646 278.122 48.8854 277.939 49.5039C277.757 50.1159 277.666 50.8158 277.666 51.6035C277.666 53.2572 278.001 54.5039 278.672 55.3438C279.342 56.1836 280.326 56.6035 281.621 56.6035C282.168 56.6035 282.692 56.5417 283.193 56.418C283.695 56.2878 284.176 56.1087 284.639 55.8809V57.5215ZM207.666 80.5215C206.644 80.9447 205.573 81.1562 204.453 81.1562C202.65 81.1562 201.263 80.6191 200.293 79.5449C199.329 78.4642 198.848 76.8691 198.848 74.7598C198.848 73.7376 198.981 72.8132 199.248 71.9863C199.515 71.1595 199.896 70.4596 200.391 69.8867C200.885 69.3073 201.484 68.8613 202.188 68.5488C202.891 68.2363 203.678 68.0801 204.551 68.0801C205.143 68.0801 205.693 68.1322 206.201 68.2363C206.709 68.334 207.197 68.487 207.666 68.6953V70.4043C207.204 70.1504 206.725 69.9583 206.23 69.8281C205.736 69.6914 205.195 69.623 204.609 69.623C204.01 69.623 203.467 69.737 202.979 69.9648C202.497 70.1862 202.087 70.5117 201.748 70.9414C201.41 71.3646 201.149 71.8854 200.967 72.5039C200.785 73.1159 200.693 73.8158 200.693 74.6035C200.693 76.2572 201.029 77.5039 201.699 78.3438C202.37 79.1836 203.353 79.6035 204.648 79.6035C205.195 79.6035 205.719 79.5417 206.221 79.418C206.722 79.2878 207.204 79.1087 207.666 78.8809V80.5215ZM218.662 80.5215C217.64 80.9447 216.569 81.1562 215.449 81.1562C213.646 81.1562 212.259 80.6191 211.289 79.5449C210.326 78.4642 209.844 76.8691 209.844 74.7598C209.844 73.7376 209.977 72.8132 210.244 71.9863C210.511 71.1595 210.892 70.4596 211.387 69.8867C211.882 69.3073 212.48 68.8613 213.184 68.5488C213.887 68.2363 214.674 68.0801 215.547 68.0801C216.139 68.0801 216.689 68.1322 217.197 68.2363C217.705 68.334 218.193 68.487 218.662 68.6953V70.4043C218.2 70.1504 217.721 69.9583 217.227 69.8281C216.732 69.6914 216.191 69.623 215.605 69.623C215.007 69.623 214.463 69.737 213.975 69.9648C213.493 70.1862 213.083 70.5117 212.744 70.9414C212.406 71.3646 212.145 71.8854 211.963 72.5039C211.781 73.1159 211.689 73.8158 211.689 74.6035C211.689 76.2572 212.025 77.5039 212.695 78.3438C213.366 79.1836 214.349 79.6035 215.645 79.6035C216.191 79.6035 216.715 79.5417 217.217 79.418C217.718 79.2878 218.2 79.1087 218.662 78.8809V80.5215ZM230.098 69.7207H226.318V81H224.561V69.7207H220.781V68.2363H230.098V69.7207ZM241.094 69.7207H237.314V81H235.557V69.7207H231.777V68.2363H241.094V69.7207ZM252.09 69.7207H248.311V81H246.553V69.7207H242.773V68.2363H252.09V69.7207ZM263.086 69.7207H259.307V81H257.549V69.7207H253.77V68.2363H263.086V69.7207ZM273.75 70.4238C273.275 70.1699 272.786 69.9746 272.285 69.8379C271.784 69.6947 271.237 69.623 270.645 69.623C269.967 69.623 269.365 69.7435 268.838 69.9844C268.311 70.2253 267.865 70.5671 267.5 71.0098C267.142 71.446 266.865 71.9733 266.67 72.5918C266.481 73.2103 266.387 73.8939 266.387 74.6426C266.387 75.4238 266.465 76.1237 266.621 76.7422C266.777 77.3607 267.021 77.8848 267.354 78.3145C267.686 78.7441 268.109 79.0729 268.623 79.3008C269.144 79.5286 269.766 79.6426 270.488 79.6426C270.612 79.6426 270.745 79.6361 270.889 79.623C271.032 79.61 271.175 79.5938 271.318 79.5742C271.462 79.5482 271.598 79.5189 271.729 79.4863C271.865 79.4538 271.986 79.418 272.09 79.3789V75.3164H269.482V73.8809H273.809V80.4043C273.542 80.528 273.258 80.6387 272.959 80.7363C272.666 80.834 272.363 80.9154 272.051 80.9805C271.745 81.0456 271.439 81.0944 271.133 81.127C270.827 81.1595 270.531 81.1758 270.244 81.1758C269.372 81.1758 268.584 81.0391 267.881 80.7656C267.184 80.4922 266.589 80.0885 266.094 79.5547C265.605 79.0143 265.228 78.3438 264.961 77.543C264.701 76.7422 264.57 75.8145 264.57 74.7598C264.57 73.7116 264.717 72.7741 265.01 71.9473C265.303 71.1139 265.713 70.4108 266.24 69.8379C266.774 69.2585 267.412 68.819 268.154 68.5195C268.903 68.2135 269.727 68.0605 270.625 68.0605C271.198 68.0605 271.742 68.1126 272.256 68.2168C272.777 68.3145 273.275 68.474 273.75 68.6953V70.4238ZM284.639 80.5215C283.617 80.9447 282.546 81.1562 281.426 81.1562C279.622 81.1562 278.236 80.6191 277.266 79.5449C276.302 78.4642 275.82 76.8691 275.82 74.7598C275.82 73.7376 275.954 72.8132 276.221 71.9863C276.488 71.1595 276.868 70.4596 277.363 69.8867C277.858 69.3073 278.457 68.8613 279.16 68.5488C279.863 68.2363 280.651 68.0801 281.523 68.0801C282.116 68.0801 282.666 68.1322 283.174 68.2363C283.682 68.334 284.17 68.487 284.639 68.6953V70.4043C284.176 70.1504 283.698 69.9583 283.203 69.8281C282.708 69.6914 282.168 69.623 281.582 69.623C280.983 69.623 280.439 69.737 279.951 69.9648C279.469 70.1862 279.059 70.5117 278.721 70.9414C278.382 71.3646 278.122 71.8854 277.939 72.5039C277.757 73.1159 277.666 73.8158 277.666 74.6035C277.666 76.2572 278.001 77.5039 278.672 78.3438C279.342 79.1836 280.326 79.6035 281.621 79.6035C282.168 79.6035 282.692 79.5417 283.193 79.418C283.695 79.2878 284.176 79.1087 284.639 78.8809V80.5215Z" fill="#989B05"/>
<path d="M97.082 38.1738C97.082 38.7598 97.0234 39.2949 96.9062 39.7793C96.7891 40.2598 96.6113 40.6738 96.373 41.0215C96.1348 41.3652 95.8379 41.6328 95.4824 41.8242C95.1309 42.0117 94.7168 42.1055 94.2402 42.1055C93.8301 42.1055 93.457 42.0293 93.1211 41.877C92.7852 41.7207 92.498 41.4824 92.2598 41.1621C92.0215 40.8418 91.8379 40.4336 91.709 39.9375C91.5801 39.4414 91.5156 38.8535 91.5156 38.1738C91.5156 37.5879 91.5742 37.0527 91.6914 36.5684C91.8125 36.084 91.9902 35.6699 92.2246 35.3262C92.4629 34.9785 92.7598 34.7109 93.1152 34.5234C93.4707 34.332 93.8848 34.2363 94.3574 34.2363C94.7676 34.2363 95.1406 34.3145 95.4766 34.4707C95.8125 34.623 96.0996 34.8613 96.3379 35.1855C96.5762 35.5059 96.7598 35.9141 96.8887 36.4102C97.0176 36.9062 97.082 37.4941 97.082 38.1738ZM96.0508 38.209C96.0508 38.0762 96.0449 37.9453 96.0332 37.8164C96.0254 37.6836 96.0156 37.5547 96.0039 37.4297L92.7637 39.8379C92.8223 40.041 92.8965 40.2285 92.9863 40.4004C93.0762 40.5723 93.1836 40.7207 93.3086 40.8457C93.4375 40.9668 93.582 41.0625 93.7422 41.1328C93.9062 41.1992 94.0918 41.2324 94.2988 41.2324C94.5645 41.2324 94.8047 41.168 95.0195 41.0391C95.2383 40.9102 95.4238 40.7188 95.5762 40.4648C95.7285 40.2109 95.8457 39.8965 95.9277 39.5215C96.0098 39.1426 96.0508 38.7051 96.0508 38.209ZM92.5469 38.1387C92.5469 38.2598 92.5469 38.3809 92.5469 38.502C92.5508 38.623 92.5586 38.7402 92.5703 38.8535L95.8105 36.457C95.752 36.2578 95.6777 36.0762 95.5879 35.9121C95.498 35.748 95.3906 35.6074 95.2656 35.4902C95.1406 35.3691 94.998 35.2754 94.8379 35.209C94.6777 35.1426 94.498 35.1094 94.2988 35.1094C94.0332 35.1094 93.791 35.1738 93.5723 35.3027C93.3574 35.4316 93.1738 35.625 93.0215 35.8828C92.8691 36.1367 92.752 36.4531 92.6699 36.832C92.5879 37.207 92.5469 37.6426 92.5469 38.1387Z" fill="#C9D1D9"/>
<path d="M107.842 42H103.031V41.0508H105V35.4609L103.166 36.457L102.791 35.5898L105.229 34.3066H106.131V41.0508H107.842V42Z" fill="#C9D1D9"/>
<path d="M118.906 42H113.861V41.0859L115.842 39.1172C116.166 38.7969 116.43 38.5195 116.633 38.2852C116.836 38.0508 116.994 37.8379 117.107 37.6465C117.221 37.4512 117.297 37.2676 117.336 37.0957C117.375 36.9238 117.395 36.7383 117.395 36.5391C117.395 36.3516 117.369 36.1738 117.318 36.0059C117.268 35.834 117.189 35.6836 117.084 35.5547C116.979 35.4258 116.842 35.3242 116.674 35.25C116.506 35.1758 116.305 35.1387 116.07 35.1387C115.746 35.1387 115.451 35.2109 115.186 35.3555C114.92 35.5 114.676 35.6875 114.453 35.918L113.891 35.2441C114.18 34.9395 114.512 34.6953 114.887 34.5117C115.266 34.3281 115.705 34.2363 116.205 34.2363C116.545 34.2363 116.854 34.2871 117.131 34.3887C117.412 34.4902 117.654 34.6367 117.857 34.8281C118.061 35.0195 118.217 35.2539 118.326 35.5312C118.439 35.8086 118.496 36.1211 118.496 36.4688C118.496 36.7617 118.457 37.0332 118.379 37.2832C118.301 37.5332 118.182 37.7832 118.021 38.0332C117.865 38.2793 117.666 38.5352 117.424 38.8008C117.186 39.0664 116.902 39.3574 116.574 39.6738L115.186 41.0273H118.906V42Z" fill="#C9D1D9"/>
<path d="M129.76 39.6738C129.76 40.0098 129.691 40.3262 129.555 40.623C129.418 40.916 129.213 41.1738 128.939 41.3965C128.666 41.6152 128.322 41.7891 127.908 41.918C127.494 42.043 127.012 42.1055 126.461 42.1055C126.156 42.1055 125.883 42.0957 125.641 42.0762C125.398 42.0566 125.172 42.0312 124.961 42V41.0859C125.203 41.1289 125.459 41.1621 125.729 41.1855C125.998 41.209 126.273 41.2207 126.555 41.2207C126.938 41.2207 127.264 41.1875 127.533 41.1211C127.807 41.0508 128.029 40.9512 128.201 40.8223C128.373 40.6934 128.498 40.5371 128.576 40.3535C128.654 40.1699 128.693 39.9629 128.693 39.7324C128.693 39.5215 128.646 39.3379 128.553 39.1816C128.459 39.0254 128.326 38.8945 128.154 38.7891C127.986 38.6836 127.783 38.6055 127.545 38.5547C127.311 38.5 127.053 38.4727 126.771 38.4727H125.898V37.6348H126.783C127.014 37.6348 127.223 37.6055 127.41 37.5469C127.602 37.4844 127.764 37.3965 127.896 37.2832C128.033 37.1699 128.137 37.0312 128.207 36.8672C128.281 36.6992 128.318 36.5098 128.318 36.2988C128.318 35.8887 128.193 35.5898 127.943 35.4023C127.693 35.2148 127.326 35.1211 126.842 35.1211C126.584 35.1211 126.318 35.1465 126.045 35.1973C125.771 35.248 125.479 35.3242 125.166 35.4258V34.5352C125.299 34.4883 125.439 34.4473 125.588 34.4121C125.74 34.373 125.891 34.3418 126.039 34.3184C126.191 34.291 126.342 34.2715 126.49 34.2598C126.639 34.2441 126.781 34.2363 126.918 34.2363C127.324 34.2363 127.682 34.2812 127.99 34.3711C128.299 34.457 128.557 34.582 128.764 34.7461C128.971 34.9102 129.127 35.1094 129.232 35.3438C129.338 35.5781 129.391 35.8418 129.391 36.1348C129.391 36.5723 129.277 36.9395 129.051 37.2363C128.828 37.5332 128.521 37.7695 128.131 37.9453C128.33 37.9766 128.525 38.0391 128.717 38.1328C128.912 38.2266 129.086 38.3477 129.238 38.4961C129.395 38.6406 129.52 38.8125 129.613 39.0117C129.711 39.2109 129.76 39.4316 129.76 39.6738Z" fill="#C9D1D9"/>
<path d="M141.287 40.3066H139.98V42H138.938V40.3066H135.252V39.4102L138.516 34.3418H139.98V39.4102H141.287V40.3066ZM138.938 35.3262L136.271 39.4102H138.938V35.3262Z" fill="#C9D1D9"/>
<path d="M151.713 39.5508C151.713 39.9297 151.631 40.2754 151.467 40.5879C151.303 40.9004 151.076 41.1699 150.787 41.3965C150.502 41.6191 150.164 41.793 149.773 41.918C149.383 42.043 148.961 42.1055 148.508 42.1055C148.395 42.1055 148.271 42.1016 148.139 42.0938C148.01 42.0898 147.881 42.082 147.752 42.0703C147.623 42.0625 147.496 42.0527 147.371 42.041C147.25 42.0293 147.141 42.0156 147.043 42V41.0742C147.254 41.125 147.494 41.1621 147.764 41.1855C148.037 41.209 148.312 41.2207 148.59 41.2207C148.902 41.2207 149.184 41.1836 149.434 41.1094C149.684 41.0352 149.896 40.9297 150.072 40.793C150.248 40.6523 150.383 40.4844 150.477 40.2891C150.57 40.0898 150.617 39.8672 150.617 39.6211C150.617 39.1445 150.445 38.7988 150.102 38.584C149.762 38.3652 149.271 38.2559 148.631 38.2559H147.178V34.3418H151.303V35.2324H148.139V37.3828H148.807C149.174 37.3828 149.531 37.416 149.879 37.4824C150.227 37.5488 150.535 37.666 150.805 37.834C151.078 37.998 151.297 38.2207 151.461 38.502C151.629 38.7793 151.713 39.1289 151.713 39.5508Z" fill="#C9D1D9"/>
<path d="M163 39.5742C163 39.9258 162.936 40.2559 162.807 40.5645C162.682 40.873 162.502 41.1426 162.268 41.373C162.033 41.5996 161.75 41.7793 161.418 41.9121C161.09 42.041 160.725 42.1055 160.322 42.1055C159.9 42.1055 159.527 42.0391 159.203 41.9062C158.879 41.7695 158.607 41.5625 158.389 41.2852C158.17 41.0039 158.004 40.6504 157.891 40.2246C157.777 39.7988 157.721 39.2949 157.721 38.7129C157.721 38.3223 157.746 37.9434 157.797 37.5762C157.848 37.209 157.932 36.8633 158.049 36.5391C158.166 36.2148 158.322 35.918 158.518 35.6484C158.713 35.3789 158.955 35.1484 159.244 34.957C159.537 34.7617 159.881 34.6113 160.275 34.5059C160.67 34.3965 161.127 34.3418 161.646 34.3418H162.402V35.2324H161.582C161.125 35.2324 160.729 35.2871 160.393 35.3965C160.057 35.5059 159.775 35.6602 159.549 35.8594C159.322 36.0586 159.148 36.2988 159.027 36.5801C158.906 36.8613 158.83 37.1758 158.799 37.5234L158.775 37.7637C159.021 37.6191 159.305 37.5039 159.625 37.418C159.949 37.3281 160.299 37.2832 160.674 37.2832C161.061 37.2832 161.398 37.3398 161.688 37.4531C161.98 37.5664 162.223 37.7246 162.414 37.9277C162.609 38.127 162.756 38.3672 162.854 38.6484C162.951 38.9297 163 39.2383 163 39.5742ZM161.934 39.6387C161.934 39.4043 161.904 39.1934 161.846 39.0059C161.791 38.8145 161.703 38.6543 161.582 38.5254C161.461 38.3926 161.307 38.291 161.119 38.2207C160.936 38.1465 160.715 38.1094 160.457 38.1094C160.309 38.1094 160.158 38.123 160.006 38.1504C159.854 38.1777 159.703 38.2168 159.555 38.2676C159.41 38.3145 159.271 38.3691 159.139 38.4316C159.006 38.4941 158.885 38.5605 158.775 38.6309C158.775 39.1348 158.811 39.5566 158.881 39.8965C158.951 40.2324 159.055 40.502 159.191 40.7051C159.332 40.9082 159.504 41.0527 159.707 41.1387C159.91 41.2246 160.145 41.2676 160.41 41.2676C160.633 41.2676 160.836 41.2324 161.02 41.1621C161.207 41.0879 161.367 40.9805 161.5 40.8398C161.637 40.6992 161.742 40.5293 161.816 40.3301C161.895 40.127 161.934 39.8965 161.934 39.6387Z" fill="#C9D1D9"/>
<path d="M173.865 35.291L170.654 42H169.488L172.822 35.291H168.686V34.3418H173.865V35.291Z" fill="#C9D1D9"/>
<path d="M184.906 40.0781C184.906 40.4023 184.84 40.6914 184.707 40.9453C184.574 41.1953 184.389 41.4062 184.15 41.5781C183.912 41.75 183.631 41.8809 183.307 41.9707C182.982 42.0605 182.631 42.1055 182.252 42.1055C181.834 42.1055 181.465 42.0586 181.145 41.9648C180.828 41.8711 180.562 41.7402 180.348 41.5723C180.133 41.4043 179.971 41.2051 179.861 40.9746C179.752 40.7441 179.697 40.4902 179.697 40.2129C179.697 39.7441 179.828 39.3398 180.09 39C180.352 38.6602 180.756 38.3516 181.303 38.0742C180.803 37.8203 180.438 37.5391 180.207 37.2305C179.977 36.918 179.861 36.5605 179.861 36.1582C179.861 35.9121 179.912 35.6738 180.014 35.4434C180.115 35.2129 180.268 35.0078 180.471 34.8281C180.678 34.6484 180.936 34.5059 181.244 34.4004C181.553 34.291 181.916 34.2363 182.334 34.2363C182.729 34.2363 183.074 34.2793 183.371 34.3652C183.672 34.4473 183.924 34.5664 184.127 34.7227C184.33 34.8789 184.482 35.0684 184.584 35.291C184.686 35.5137 184.736 35.7617 184.736 36.0352C184.736 36.4805 184.611 36.8594 184.361 37.1719C184.115 37.4844 183.764 37.7578 183.307 37.9922C183.533 38.1055 183.744 38.2305 183.939 38.3672C184.135 38.5039 184.305 38.6562 184.449 38.8242C184.594 38.9922 184.705 39.1797 184.783 39.3867C184.865 39.5938 184.906 39.8242 184.906 40.0781ZM183.693 36.1172C183.693 35.7695 183.57 35.5117 183.324 35.3438C183.082 35.1719 182.74 35.0859 182.299 35.0859C181.861 35.0859 181.52 35.1699 181.273 35.3379C181.031 35.5059 180.91 35.7578 180.91 36.0938C180.91 36.2461 180.939 36.3867 180.998 36.5156C181.057 36.6445 181.146 36.7656 181.268 36.8789C181.393 36.9922 181.547 37.1035 181.73 37.2129C181.914 37.3223 182.133 37.4336 182.387 37.5469C182.828 37.3398 183.156 37.125 183.371 36.9023C183.586 36.6758 183.693 36.4141 183.693 36.1172ZM183.799 40.1543C183.799 40.0098 183.775 39.8691 183.729 39.7324C183.682 39.5957 183.598 39.4609 183.477 39.3281C183.355 39.1953 183.193 39.0625 182.99 38.9297C182.787 38.7969 182.529 38.6602 182.217 38.5195C181.951 38.6484 181.727 38.7773 181.543 38.9062C181.363 39.0312 181.217 39.1602 181.104 39.293C180.994 39.4219 180.916 39.5566 180.869 39.6973C180.822 39.8379 180.799 39.9863 180.799 40.1426C180.799 40.3184 180.836 40.4746 180.91 40.6113C180.988 40.7441 181.094 40.8574 181.227 40.9512C181.359 41.0449 181.518 41.1152 181.701 41.1621C181.885 41.209 182.084 41.2324 182.299 41.2324C182.506 41.2324 182.701 41.2109 182.885 41.168C183.068 41.125 183.227 41.0605 183.359 40.9746C183.496 40.8848 183.604 40.7734 183.682 40.6406C183.76 40.5039 183.799 40.3418 183.799 40.1543Z" fill="#C9D1D9"/>
<path d="M193.865 37.7402C193.865 38.4863 193.775 39.1289 193.596 39.668C193.416 40.2031 193.15 40.6445 192.799 40.9922C192.447 41.3359 192.012 41.5898 191.492 41.7539C190.973 41.918 190.373 42 189.693 42H189.055V41.1094H189.764C190.268 41.1094 190.703 41.0586 191.07 40.957C191.438 40.8555 191.742 40.707 191.984 40.5117C192.23 40.3125 192.418 40.0723 192.547 39.791C192.676 39.5059 192.756 39.1816 192.787 38.8184L192.811 38.5781C192.564 38.7227 192.281 38.8398 191.961 38.9297C191.641 39.0156 191.293 39.0586 190.918 39.0586C190.531 39.0586 190.191 39.002 189.898 38.8887C189.605 38.7754 189.361 38.6172 189.166 38.4141C188.975 38.2109 188.83 37.9707 188.732 37.6934C188.635 37.4121 188.586 37.1074 188.586 36.7793C188.586 36.4238 188.65 36.0918 188.779 35.7832C188.908 35.4746 189.088 35.207 189.318 34.9805C189.553 34.75 189.832 34.5684 190.156 34.4355C190.48 34.3027 190.838 34.2363 191.229 34.2363C191.607 34.2363 191.957 34.2988 192.277 34.4238C192.602 34.5488 192.881 34.752 193.115 35.0332C193.35 35.3105 193.533 35.6719 193.666 36.1172C193.799 36.5625 193.865 37.1035 193.865 37.7402ZM191.182 35.0742C190.963 35.0742 190.76 35.1113 190.572 35.1855C190.389 35.2559 190.229 35.3613 190.092 35.502C189.959 35.6387 189.854 35.8086 189.775 36.0117C189.697 36.2148 189.658 36.4473 189.658 36.709C189.658 36.9473 189.686 37.1602 189.74 37.3477C189.799 37.5352 189.887 37.6953 190.004 37.8281C190.125 37.957 190.279 38.0566 190.467 38.127C190.654 38.1973 190.877 38.2324 191.135 38.2324C191.279 38.2324 191.428 38.2188 191.58 38.1914C191.736 38.1641 191.887 38.127 192.031 38.0801C192.18 38.0332 192.32 37.9785 192.453 37.916C192.586 37.8535 192.705 37.7871 192.811 37.7168C192.811 37.2129 192.773 36.793 192.699 36.457C192.625 36.1172 192.518 35.8457 192.377 35.6426C192.236 35.4355 192.064 35.2891 191.861 35.2031C191.662 35.1172 191.436 35.0742 191.182 35.0742Z" fill="#C9D1D9"/>
<path d="M202.842 42H198.031V41.0508H200V35.4609L198.166 36.457L197.791 35.5898L200.229 34.3066H201.131V41.0508H202.842V42ZM209.68 38.1738C209.68 38.7598 209.621 39.2949 209.504 39.7793C209.387 40.2598 209.209 40.6738 208.971 41.0215C208.732 41.3652 208.436 41.6328 208.08 41.8242C207.729 42.0117 207.314 42.1055 206.838 42.1055C206.428 42.1055 206.055 42.0293 205.719 41.877C205.383 41.7207 205.096 41.4824 204.857 41.1621C204.619 40.8418 204.436 40.4336 204.307 39.9375C204.178 39.4414 204.113 38.8535 204.113 38.1738C204.113 37.5879 204.172 37.0527 204.289 36.5684C204.41 36.084 204.588 35.6699 204.822 35.3262C205.061 34.9785 205.357 34.7109 205.713 34.5234C206.068 34.332 206.482 34.2363 206.955 34.2363C207.365 34.2363 207.738 34.3145 208.074 34.4707C208.41 34.623 208.697 34.8613 208.936 35.1855C209.174 35.5059 209.357 35.9141 209.486 36.4102C209.615 36.9062 209.68 37.4941 209.68 38.1738ZM208.648 38.209C208.648 38.0762 208.643 37.9453 208.631 37.8164C208.623 37.6836 208.613 37.5547 208.602 37.4297L205.361 39.8379C205.42 40.041 205.494 40.2285 205.584 40.4004C205.674 40.5723 205.781 40.7207 205.906 40.8457C206.035 40.9668 206.18 41.0625 206.34 41.1328C206.504 41.1992 206.689 41.2324 206.896 41.2324C207.162 41.2324 207.402 41.168 207.617 41.0391C207.836 40.9102 208.021 40.7188 208.174 40.4648C208.326 40.2109 208.443 39.8965 208.525 39.5215C208.607 39.1426 208.648 38.7051 208.648 38.209ZM205.145 38.1387C205.145 38.2598 205.145 38.3809 205.145 38.502C205.148 38.623 205.156 38.7402 205.168 38.8535L208.408 36.457C208.35 36.2578 208.275 36.0762 208.186 35.9121C208.096 35.748 207.988 35.6074 207.863 35.4902C207.738 35.3691 207.596 35.2754 207.436 35.209C207.275 35.1426 207.096 35.1094 206.896 35.1094C206.631 35.1094 206.389 35.1738 206.17 35.3027C205.955 35.4316 205.771 35.625 205.619 35.8828C205.467 36.1367 205.35 36.4531 205.268 36.832C205.186 37.207 205.145 37.6426 205.145 38.1387Z" fill="#C9D1D9"/>
<g filter="url(#filter1_d)">
<path d="M4.45312 19V7.23438H5.92188V14.9062L9.88281 10.7188H11.4922L8.125 14.3594L11.8281 19H10.1328L7.16406 15.1562L5.92188 16.3906V19H4.45312ZM14.625 16.6641C14.625 17.5859 15.2786 18.0469 16.5859 18.0469C17.8932 18.0469 18.5469 17.5859 18.5469 16.6641V13.0781C18.5469 12.151 17.8932 11.6875 16.5859 11.6875C15.2786 11.6875 14.625 12.151 14.625 13.0781V16.6641ZM20.0156 16.5391C20.0156 17.3516 19.737 17.9948 19.1797 18.4688C18.6276 18.9375 17.7604 19.1719 16.5781 19.1719C15.3958 19.1719 14.5286 18.9375 13.9766 18.4688C13.4297 18 13.1562 17.3568 13.1562 16.5391V13.2031C13.1562 12.3854 13.4297 11.7422 13.9766 11.2734C14.5286 10.7995 15.3958 10.5625 16.5781 10.5625C17.7604 10.5625 18.6276 10.7995 19.1797 11.2734C19.737 11.7474 20.0156 12.3906 20.0156 13.2031V16.5391ZM22.625 19V10.7188H24.0938V11.8906C24.2812 11.3802 24.7891 11.0104 25.6172 10.7812C26.0495 10.6562 26.5 10.5964 26.9688 10.6016L26.9219 11.8594C26.2135 11.8594 25.5651 12 24.9766 12.2812C24.388 12.5625 24.0938 12.8698 24.0938 13.2031V19H22.625ZM31.0547 19.1719C30.2161 19.1719 29.5651 18.9453 29.1016 18.4922C28.638 18.0339 28.4062 17.4661 28.4062 16.7891C28.4062 16.4036 28.487 16.0833 28.6484 15.8281C28.9766 15.3073 29.9557 14.8099 31.5859 14.3359C32.5286 14.0755 33.0703 13.8516 33.2109 13.6641C33.3568 13.4766 33.4375 13.3307 33.4531 13.2266C33.4688 13.1172 33.4766 12.9453 33.4766 12.7109C33.4766 12.4766 33.3802 12.2474 33.1875 12.0234C33 11.7995 32.5885 11.6875 31.9531 11.6875C31.0573 11.6875 30.5078 11.8594 30.3047 12.2031C30.2005 12.3802 30.1484 12.6198 30.1484 12.9219V13.2891H28.7344V12.9141C28.7344 12.1068 29.0026 11.513 29.5391 11.1328C30.0807 10.7526 30.888 10.5625 31.9609 10.5625C33.0339 10.5625 33.7995 10.8073 34.2578 11.2969C34.7161 11.7812 34.9453 12.474 34.9453 13.375V16.9062C34.9453 17.3385 35 17.6198 35.1094 17.75C35.2188 17.875 35.4531 17.9375 35.8125 17.9375L35.6406 19.0625H35.3438C34.8229 19.0625 34.4349 18.9635 34.1797 18.7656C33.9245 18.5625 33.7292 18.25 33.5938 17.8281C33.1615 18.474 32.6406 18.8802 32.0312 19.0469C31.7396 19.1302 31.4141 19.1719 31.0547 19.1719ZM31.7891 15.3438C31.0495 15.5573 30.5365 15.7708 30.25 15.9844C29.9688 16.1979 29.8281 16.5 29.8281 16.8906C29.8281 17.276 29.9583 17.5677 30.2188 17.7656C30.4844 17.9635 30.8021 18.0625 31.1719 18.0625C31.5469 18.0625 31.8854 18.0156 32.1875 17.9219C32.4896 17.8229 32.7604 17.6797 33 17.4922C33.2448 17.2995 33.4036 17.0807 33.4766 16.8359V14.4453C33.0964 14.8255 32.5339 15.125 31.7891 15.3438ZM37.9844 19V7.23438H39.4531V14.9062L43.4141 10.7188H45.0234L41.6562 14.3594L45.3594 19H43.6641L40.6953 15.1562L39.4531 16.3906V19H37.9844ZM52.6328 10.5C52.6328 9.36458 52.0417 8.79688 50.8594 8.79688C50.2448 8.79688 49.8177 8.85417 49.5781 8.96875C49.3385 9.08333 49.1667 9.22135 49.0625 9.38281C48.8438 9.72656 48.7344 10.263 48.7344 10.9922H47.2344C47.2344 10.0391 47.3958 9.3125 47.7188 8.8125C48.0417 8.30729 48.4609 7.96875 48.9766 7.79688C49.4974 7.61979 50.1068 7.53125 50.8047 7.53125C51.8203 7.53125 52.6224 7.77604 53.2109 8.26562C53.8047 8.75 54.1016 9.48698 54.1016 10.4766C54.1016 11.237 53.9583 11.8229 53.6719 12.2344C53.3906 12.6406 52.9297 12.8958 52.2891 13C52.9714 13.1406 53.4818 13.4297 53.8203 13.8672C54.1589 14.3047 54.3281 15.0182 54.3281 16.0078C54.3281 16.9974 54.026 17.7734 53.4219 18.3359C52.8177 18.8932 51.9557 19.1719 50.8359 19.1719C49.987 19.1719 49.3125 19.0599 48.8125 18.8359C48.3177 18.612 47.9401 18.2474 47.6797 17.7422C47.4193 17.237 47.2448 16.5339 47.1562 15.6328H48.6562C48.7188 16.5599 48.9193 17.1745 49.2578 17.4766C49.4453 17.6432 49.6667 17.7578 49.9219 17.8203C50.1771 17.8776 50.5104 17.9062 50.9219 17.9062C51.5833 17.9062 52.0677 17.737 52.375 17.3984C52.6823 17.0599 52.8359 16.4948 52.8359 15.7031C52.8359 14.9115 52.6901 14.388 52.3984 14.1328C52.112 13.8724 51.7578 13.7188 51.3359 13.6719C50.9193 13.625 50.513 13.6016 50.1172 13.6016V12.4375C50.9505 12.4375 51.513 12.3698 51.8047 12.2344C52.0964 12.099 52.3073 11.9349 52.4375 11.7422C52.5677 11.5443 52.6328 11.1302 52.6328 10.5Z" fill="#C9D1D9"/>
</g>
<defs>
<filter id="filter0_d" x="197" y="85.636" width="91.9998" height="22.7279" filterUnits="userSpaceOnUse" color-interpolation-filters="sRGB">
<feFlood flood-opacity="0" result="BackgroundImageFix"/>
<feColorMatrix in="SourceAlpha" type="matrix" values="0 0 0 0 0 0 0 0 0 0 0 0 0 0 0 0 0 0 127 0"/>
<feOffset dy="4"/>
<feGaussianBlur stdDeviation="2"/>
<feColorMatrix type="matrix" values="0 0 0 0 0 0 0 0 0 0 0 0 0 0 0 0 0 0 0.25 0"/>
<feBlend mode="normal" in2="BackgroundImageFix" result="effect1_dropShadow"/>
<feBlend mode="normal" in="SourceGraphic" in2="effect1_dropShadow" result="shape"/>
</filter>
<filter id="filter1_d" x="0.453125" y="7.23438" width="57.875" height="19.9375" filterUnits="userSpaceOnUse" color-interpolation-filters="sRGB">
<feFlood flood-opacity="0" result="BackgroundImageFix"/>
<feColorMatrix in="SourceAlpha" type="matrix" values="0 0 0 0 0 0 0 0 0 0 0 0 0 0 0 0 0 0 127 0"/>
<feOffset dy="4"/>
<feGaussianBlur stdDeviation="2"/>
<feColorMatrix type="matrix" values="0 0 0 0 0 0 0 0 0 0 0 0 0 0 0 0 0 0 0.25 0"/>
<feBlend mode="normal" in2="BackgroundImageFix" result="effect1_dropShadow"/>
<feBlend mode="normal" in="SourceGraphic" in2="effect1_dropShadow" result="shape"/>
</filter>
</defs>
</svg>
