<svg width="418" height="108" viewBox="0 0 418 108" fill="none" xmlns="http://www.w3.org/2000/svg">
<path d="M65.1562 46.7207H61.377V58H59.6191V46.7207H55.8398V45.2363H65.1562V46.7207ZM71.4941 48.0195C71.696 48.0195 71.888 48.0618 72.0703 48.1465C72.2526 48.2246 72.4121 48.332 72.5488 48.4688C72.6855 48.6055 72.793 48.765 72.8711 48.9473C72.9557 49.1296 72.998 49.3216 72.998 49.5234C72.998 49.7318 72.9557 49.9271 72.8711 50.1094C72.793 50.2852 72.6855 50.4414 72.5488 50.5781C72.4121 50.7148 72.2526 50.8223 72.0703 50.9004C71.888 50.9785 71.696 51.0176 71.4941 51.0176C71.2858 51.0176 71.0905 50.9785 70.9082 50.9004C70.7324 50.8223 70.5762 50.7148 70.4395 50.5781C70.3027 50.4414 70.1953 50.2852 70.1172 50.1094C70.0391 49.9271 70 49.7318 70 49.5234C70 49.3216 70.0391 49.1296 70.1172 48.9473C70.1953 48.765 70.3027 48.6055 70.4395 48.4688C70.5762 48.332 70.7324 48.2246 70.9082 48.1465C71.0905 48.0618 71.2858 48.0195 71.4941 48.0195ZM71.4941 55.1777C71.696 55.1777 71.888 55.2201 72.0703 55.3047C72.2526 55.3828 72.4121 55.4902 72.5488 55.627C72.6855 55.7637 72.793 55.9232 72.8711 56.1055C72.9557 56.2878 72.998 56.4798 72.998 56.6816C72.998 56.89 72.9557 57.0853 72.8711 57.2676C72.793 57.4434 72.6855 57.5996 72.5488 57.7363C72.4121 57.873 72.2526 57.9805 72.0703 58.0586C71.888 58.1367 71.696 58.1758 71.4941 58.1758C71.2858 58.1758 71.0905 58.1367 70.9082 58.0586C70.7324 57.9805 70.5762 57.873 70.4395 57.7363C70.3027 57.5996 70.1953 57.4434 70.1172 57.2676C70.0391 57.0853 70 56.89 70 56.6816C70 56.4798 70.0391 56.2878 70.1172 56.1055C70.1953 55.9232 70.3027 55.7637 70.4395 55.627C70.5762 55.4902 70.7324 55.3828 70.9082 55.3047C71.0905 55.2201 71.2858 55.1777 71.4941 55.1777ZM97.8125 47.4238C97.3372 47.1699 96.849 46.9746 96.3477 46.8379C95.8464 46.6947 95.2995 46.623 94.707 46.623C94.0299 46.623 93.4277 46.7435 92.9004 46.9844C92.373 47.2253 91.9271 47.5671 91.5625 48.0098C91.2044 48.446 90.9277 48.9733 90.7324 49.5918C90.5436 50.2103 90.4492 50.8939 90.4492 51.6426C90.4492 52.4238 90.5273 53.1237 90.6836 53.7422C90.8398 54.3607 91.084 54.8848 91.416 55.3145C91.748 55.7441 92.1712 56.0729 92.6855 56.3008C93.2064 56.5286 93.8281 56.6426 94.5508 56.6426C94.6745 56.6426 94.8079 56.6361 94.9512 56.623C95.0944 56.61 95.2376 56.5938 95.3809 56.5742C95.5241 56.5482 95.6608 56.5189 95.791 56.4863C95.9277 56.4538 96.0482 56.418 96.1523 56.3789V52.3164H93.5449V50.8809H97.8711V57.4043C97.6042 57.528 97.321 57.6387 97.0215 57.7363C96.7285 57.834 96.4258 57.9154 96.1133 57.9805C95.8073 58.0456 95.5013 58.0944 95.1953 58.127C94.8893 58.1595 94.5931 58.1758 94.3066 58.1758C93.4342 58.1758 92.6465 58.0391 91.9434 57.7656C91.2467 57.4922 90.651 57.0885 90.1562 56.5547C89.668 56.0143 89.2904 55.3438 89.0234 54.543C88.763 53.7422 88.6328 52.8145 88.6328 51.7598C88.6328 50.7116 88.7793 49.7741 89.0723 48.9473C89.3652 48.1139 89.7754 47.4108 90.3027 46.8379C90.8366 46.2585 91.4746 45.819 92.2168 45.5195C92.9655 45.2135 93.7891 45.0605 94.6875 45.0605C95.2604 45.0605 95.804 45.1126 96.3184 45.2168C96.8392 45.3145 97.3372 45.474 97.8125 45.6953V47.4238ZM108.701 57.5215C107.679 57.9447 106.608 58.1562 105.488 58.1562C103.685 58.1562 102.298 57.6191 101.328 56.5449C100.365 55.4642 99.8828 53.8691 99.8828 51.7598C99.8828 50.7376 100.016 49.8132 100.283 48.9863C100.55 48.1595 100.931 47.4596 101.426 46.8867C101.921 46.3073 102.52 45.8613 103.223 45.5488C103.926 45.2363 104.714 45.0801 105.586 45.0801C106.178 45.0801 106.729 45.1322 107.236 45.2363C107.744 45.334 108.232 45.487 108.701 45.6953V47.4043C108.239 47.1504 107.76 46.9583 107.266 46.8281C106.771 46.6914 106.23 46.623 105.645 46.623C105.046 46.623 104.502 46.737 104.014 46.9648C103.532 47.1862 103.122 47.5117 102.783 47.9414C102.445 48.3646 102.184 48.8854 102.002 49.5039C101.82 50.1159 101.729 50.8158 101.729 51.6035C101.729 53.2572 102.064 54.5039 102.734 55.3438C103.405 56.1836 104.388 56.6035 105.684 56.6035C106.23 56.6035 106.755 56.5417 107.256 56.418C107.757 56.2878 108.239 56.1087 108.701 55.8809V57.5215ZM120.137 46.7207H116.357V58H114.6V46.7207H110.82V45.2363H120.137V46.7207ZM131.133 46.7207H127.354V58H125.596V46.7207H121.816V45.2363H131.133V46.7207ZM141.689 57.5215C140.667 57.9447 139.596 58.1562 138.477 58.1562C136.673 58.1562 135.286 57.6191 134.316 56.5449C133.353 55.4642 132.871 53.8691 132.871 51.7598C132.871 50.7376 133.005 49.8132 133.271 48.9863C133.538 48.1595 133.919 47.4596 134.414 46.8867C134.909 46.3073 135.508 45.8613 136.211 45.5488C136.914 45.2363 137.702 45.0801 138.574 45.0801C139.167 45.0801 139.717 45.1322 140.225 45.2363C140.732 45.334 141.221 45.487 141.689 45.6953V47.4043C141.227 47.1504 140.749 46.9583 140.254 46.8281C139.759 46.6914 139.219 46.623 138.633 46.623C138.034 46.623 137.49 46.737 137.002 46.9648C136.52 47.1862 136.11 47.5117 135.771 47.9414C135.433 48.3646 135.173 48.8854 134.99 49.5039C134.808 50.1159 134.717 50.8158 134.717 51.6035C134.717 53.2572 135.052 54.5039 135.723 55.3438C136.393 56.1836 137.376 56.6035 138.672 56.6035C139.219 56.6035 139.743 56.5417 140.244 56.418C140.745 56.2878 141.227 56.1087 141.689 55.8809V57.5215ZM153.125 46.7207H149.346V58H147.588V46.7207H143.809V45.2363H153.125V46.7207ZM163.789 47.4238C163.314 47.1699 162.826 46.9746 162.324 46.8379C161.823 46.6947 161.276 46.623 160.684 46.623C160.007 46.623 159.404 46.7435 158.877 46.9844C158.35 47.2253 157.904 47.5671 157.539 48.0098C157.181 48.446 156.904 48.9733 156.709 49.5918C156.52 50.2103 156.426 50.8939 156.426 51.6426C156.426 52.4238 156.504 53.1237 156.66 53.7422C156.816 54.3607 157.061 54.8848 157.393 55.3145C157.725 55.7441 158.148 56.0729 158.662 56.3008C159.183 56.5286 159.805 56.6426 160.527 56.6426C160.651 56.6426 160.785 56.6361 160.928 56.623C161.071 56.61 161.214 56.5938 161.357 56.5742C161.501 56.5482 161.637 56.5189 161.768 56.4863C161.904 56.4538 162.025 56.418 162.129 56.3789V52.3164H159.521V50.8809H163.848V57.4043C163.581 57.528 163.298 57.6387 162.998 57.7363C162.705 57.834 162.402 57.9154 162.09 57.9805C161.784 58.0456 161.478 58.0944 161.172 58.127C160.866 58.1595 160.57 58.1758 160.283 58.1758C159.411 58.1758 158.623 58.0391 157.92 57.7656C157.223 57.4922 156.628 57.0885 156.133 56.5547C155.645 56.0143 155.267 55.3438 155 54.543C154.74 53.7422 154.609 52.8145 154.609 51.7598C154.609 50.7116 154.756 49.7741 155.049 48.9473C155.342 48.1139 155.752 47.4108 156.279 46.8379C156.813 46.2585 157.451 45.819 158.193 45.5195C158.942 45.2135 159.766 45.0605 160.664 45.0605C161.237 45.0605 161.781 45.1126 162.295 45.2168C162.816 45.3145 163.314 45.474 163.789 45.6953V47.4238ZM174.678 57.5215C173.656 57.9447 172.585 58.1562 171.465 58.1562C169.661 58.1562 168.275 57.6191 167.305 56.5449C166.341 55.4642 165.859 53.8691 165.859 51.7598C165.859 50.7376 165.993 49.8132 166.26 48.9863C166.527 48.1595 166.908 47.4596 167.402 46.8867C167.897 46.3073 168.496 45.8613 169.199 45.5488C169.902 45.2363 170.69 45.0801 171.562 45.0801C172.155 45.0801 172.705 45.1322 173.213 45.2363C173.721 45.334 174.209 45.487 174.678 45.6953V47.4043C174.215 47.1504 173.737 46.9583 173.242 46.8281C172.747 46.6914 172.207 46.623 171.621 46.623C171.022 46.623 170.479 46.737 169.99 46.9648C169.508 47.1862 169.098 47.5117 168.76 47.9414C168.421 48.3646 168.161 48.8854 167.979 49.5039C167.796 50.1159 167.705 50.8158 167.705 51.6035C167.705 53.2572 168.04 54.5039 168.711 55.3438C169.382 56.1836 170.365 56.6035 171.66 56.6035C172.207 56.6035 172.731 56.5417 173.232 56.418C173.734 56.2878 174.215 56.1087 174.678 55.8809V57.5215ZM186.113 46.7207H182.334V58H180.576V46.7207H176.797V45.2363H186.113V46.7207ZM218.662 57.5215C217.64 57.9447 216.569 58.1562 215.449 58.1562C213.646 58.1562 212.259 57.6191 211.289 56.5449C210.326 55.4642 209.844 53.8691 209.844 51.7598C209.844 50.7376 209.977 49.8132 210.244 48.9863C210.511 48.1595 210.892 47.4596 211.387 46.8867C211.882 46.3073 212.48 45.8613 213.184 45.5488C213.887 45.2363 214.674 45.0801 215.547 45.0801C216.139 45.0801 216.689 45.1322 217.197 45.2363C217.705 45.334 218.193 45.487 218.662 45.6953V47.4043C218.2 47.1504 217.721 46.9583 217.227 46.8281C216.732 46.6914 216.191 46.623 215.605 46.623C215.007 46.623 214.463 46.737 213.975 46.9648C213.493 47.1862 213.083 47.5117 212.744 47.9414C212.406 48.3646 212.145 48.8854 211.963 49.5039C211.781 50.1159 211.689 50.8158 211.689 51.6035C211.689 53.2572 212.025 54.5039 212.695 55.3438C213.366 56.1836 214.349 56.6035 215.645 56.6035C216.191 56.6035 216.715 56.5417 217.217 56.418C217.718 56.2878 218.2 56.1087 218.662 55.8809V57.5215ZM230.098 46.7207H226.318V58H224.561V46.7207H220.781V45.2363H230.098V46.7207ZM241.094 46.7207H237.314V58H235.557V46.7207H231.777V45.2363H241.094V46.7207ZM252.09 46.7207H248.311V58H246.553V46.7207H242.773V45.2363H252.09V46.7207ZM263.086 46.7207H259.307V58H257.549V46.7207H253.77V45.2363H263.086V46.7207ZM273.75 47.4238C273.275 47.1699 272.786 46.9746 272.285 46.8379C271.784 46.6947 271.237 46.623 270.645 46.623C269.967 46.623 269.365 46.7435 268.838 46.9844C268.311 47.2253 267.865 47.5671 267.5 48.0098C267.142 48.446 266.865 48.9733 266.67 49.5918C266.481 50.2103 266.387 50.8939 266.387 51.6426C266.387 52.4238 266.465 53.1237 266.621 53.7422C266.777 54.3607 267.021 54.8848 267.354 55.3145C267.686 55.7441 268.109 56.0729 268.623 56.3008C269.144 56.5286 269.766 56.6426 270.488 56.6426C270.612 56.6426 270.745 56.6361 270.889 56.623C271.032 56.61 271.175 56.5938 271.318 56.5742C271.462 56.5482 271.598 56.5189 271.729 56.4863C271.865 56.4538 271.986 56.418 272.09 56.3789V52.3164H269.482V50.8809H273.809V57.4043C273.542 57.528 273.258 57.6387 272.959 57.7363C272.666 57.834 272.363 57.9154 272.051 57.9805C271.745 58.0456 271.439 58.0944 271.133 58.127C270.827 58.1595 270.531 58.1758 270.244 58.1758C269.372 58.1758 268.584 58.0391 267.881 57.7656C267.184 57.4922 266.589 57.0885 266.094 56.5547C265.605 56.0143 265.228 55.3438 264.961 54.543C264.701 53.7422 264.57 52.8145 264.57 51.7598C264.57 50.7116 264.717 49.7741 265.01 48.9473C265.303 48.1139 265.713 47.4108 266.24 46.8379C266.774 46.2585 267.412 45.819 268.154 45.5195C268.903 45.2135 269.727 45.0605 270.625 45.0605C271.198 45.0605 271.742 45.1126 272.256 45.2168C272.777 45.3145 273.275 45.474 273.75 45.6953V47.4238ZM284.639 57.5215C283.617 57.9447 282.546 58.1562 281.426 58.1562C279.622 58.1562 278.236 57.6191 277.266 56.5449C276.302 55.4642 275.82 53.8691 275.82 51.7598C275.82 50.7376 275.954 49.8132 276.221 48.9863C276.488 48.1595 276.868 47.4596 277.363 46.8867C277.858 46.3073 278.457 45.8613 279.16 45.5488C279.863 45.2363 280.651 45.0801 281.523 45.0801C282.116 45.0801 282.666 45.1322 283.174 45.2363C283.682 45.334 284.17 45.487 284.639 45.6953V47.4043C284.176 47.1504 283.698 46.9583 283.203 46.8281C282.708 46.6914 282.168 46.623 281.582 46.623C280.983 46.623 280.439 46.737 279.951 46.9648C279.469 47.1862 279.059 47.5117 278.721 47.9414C278.382 48.3646 278.122 48.8854 277.939 49.5039C277.757 50.1159 277.666 50.8158 277.666 51.6035C277.666 53.2572 278.001 54.5039 278.672 55.3438C279.342 56.1836 280.326 56.6035 281.621 56.6035C282.168 56.6035 282.692 56.5417 283.193 56.418C283.695 56.2878 284.176 56.1087 284.639 55.8809V57.5215ZM295.742 47.4238C295.267 47.1699 294.779 46.9746 294.277 46.8379C293.776 46.6947 293.229 46.623 292.637 46.623C291.96 46.623 291.357 46.7435 290.83 46.9844C290.303 47.2253 289.857 47.5671 289.492 48.0098C289.134 48.446 288.857 48.9733 288.662 49.5918C288.473 50.2103 288.379 50.8939 288.379 51.6426C288.379 52.4238 288.457 53.1237 288.613 53.7422C288.77 54.3607 289.014 54.8848 289.346 55.3145C289.678 55.7441 290.101 56.0729 290.615 56.3008C291.136 56.5286 291.758 56.6426 292.48 56.6426C292.604 56.6426 292.738 56.6361 292.881 56.623C293.024 56.61 293.167 56.5938 293.311 56.5742C293.454 56.5482 293.59 56.5189 293.721 56.4863C293.857 56.4538 293.978 56.418 294.082 56.3789V52.3164H291.475V50.8809H295.801V57.4043C295.534 57.528 295.251 57.6387 294.951 57.7363C294.658 57.834 294.355 57.9154 294.043 57.9805C293.737 58.0456 293.431 58.0944 293.125 58.127C292.819 58.1595 292.523 58.1758 292.236 58.1758C291.364 58.1758 290.576 58.0391 289.873 57.7656C289.176 57.4922 288.581 57.0885 288.086 56.5547C287.598 56.0143 287.22 55.3438 286.953 54.543C286.693 53.7422 286.562 52.8145 286.562 51.7598C286.562 50.7116 286.709 49.7741 287.002 48.9473C287.295 48.1139 287.705 47.4108 288.232 46.8379C288.766 46.2585 289.404 45.819 290.146 45.5195C290.895 45.2135 291.719 45.0605 292.617 45.0605C293.19 45.0605 293.734 45.1126 294.248 45.2168C294.769 45.3145 295.267 45.474 295.742 45.6953V47.4238ZM306.631 57.5215C305.609 57.9447 304.538 58.1562 303.418 58.1562C301.615 58.1562 300.228 57.6191 299.258 56.5449C298.294 55.4642 297.812 53.8691 297.812 51.7598C297.812 50.7376 297.946 49.8132 298.213 48.9863C298.48 48.1595 298.861 47.4596 299.355 46.8867C299.85 46.3073 300.449 45.8613 301.152 45.5488C301.855 45.2363 302.643 45.0801 303.516 45.0801C304.108 45.0801 304.658 45.1322 305.166 45.2363C305.674 45.334 306.162 45.487 306.631 45.6953V47.4043C306.169 47.1504 305.69 46.9583 305.195 46.8281C304.701 46.6914 304.16 46.623 303.574 46.623C302.975 46.623 302.432 46.737 301.943 46.9648C301.462 47.1862 301.051 47.5117 300.713 47.9414C300.374 48.3646 300.114 48.8854 299.932 49.5039C299.749 50.1159 299.658 50.8158 299.658 51.6035C299.658 53.2572 299.993 54.5039 300.664 55.3438C301.335 56.1836 302.318 56.6035 303.613 56.6035C304.16 56.6035 304.684 56.5417 305.186 56.418C305.687 56.2878 306.169 56.1087 306.631 55.8809V57.5215ZM317.734 47.4238C317.259 47.1699 316.771 46.9746 316.27 46.8379C315.768 46.6947 315.221 46.623 314.629 46.623C313.952 46.623 313.35 46.7435 312.822 46.9844C312.295 47.2253 311.849 47.5671 311.484 48.0098C311.126 48.446 310.85 48.9733 310.654 49.5918C310.465 50.2103 310.371 50.8939 310.371 51.6426C310.371 52.4238 310.449 53.1237 310.605 53.7422C310.762 54.3607 311.006 54.8848 311.338 55.3145C311.67 55.7441 312.093 56.0729 312.607 56.3008C313.128 56.5286 313.75 56.6426 314.473 56.6426C314.596 56.6426 314.73 56.6361 314.873 56.623C315.016 56.61 315.16 56.5938 315.303 56.5742C315.446 56.5482 315.583 56.5189 315.713 56.4863C315.85 56.4538 315.97 56.418 316.074 56.3789V52.3164H313.467V50.8809H317.793V57.4043C317.526 57.528 317.243 57.6387 316.943 57.7363C316.65 57.834 316.348 57.9154 316.035 57.9805C315.729 58.0456 315.423 58.0944 315.117 58.127C314.811 58.1595 314.515 58.1758 314.229 58.1758C313.356 58.1758 312.568 58.0391 311.865 57.7656C311.169 57.4922 310.573 57.0885 310.078 56.5547C309.59 56.0143 309.212 55.3438 308.945 54.543C308.685 53.7422 308.555 52.8145 308.555 51.7598C308.555 50.7116 308.701 49.7741 308.994 48.9473C309.287 48.1139 309.697 47.4108 310.225 46.8379C310.758 46.2585 311.396 45.819 312.139 45.5195C312.887 45.2135 313.711 45.0605 314.609 45.0605C315.182 45.0605 315.726 45.1126 316.24 45.2168C316.761 45.3145 317.259 45.474 317.734 45.6953V47.4238ZM328.623 57.5215C327.601 57.9447 326.53 58.1562 325.41 58.1562C323.607 58.1562 322.22 57.6191 321.25 56.5449C320.286 55.4642 319.805 53.8691 319.805 51.7598C319.805 50.7376 319.938 49.8132 320.205 48.9863C320.472 48.1595 320.853 47.4596 321.348 46.8867C321.842 46.3073 322.441 45.8613 323.145 45.5488C323.848 45.2363 324.635 45.0801 325.508 45.0801C326.1 45.0801 326.65 45.1322 327.158 45.2363C327.666 45.334 328.154 45.487 328.623 45.6953V47.4043C328.161 47.1504 327.682 46.9583 327.188 46.8281C326.693 46.6914 326.152 46.623 325.566 46.623C324.967 46.623 324.424 46.737 323.936 46.9648C323.454 47.1862 323.044 47.5117 322.705 47.9414C322.367 48.3646 322.106 48.8854 321.924 49.5039C321.742 50.1159 321.65 50.8158 321.65 51.6035C321.65 53.2572 321.986 54.5039 322.656 55.3438C323.327 56.1836 324.31 56.6035 325.605 56.6035C326.152 56.6035 326.676 56.5417 327.178 56.418C327.679 56.2878 328.161 56.1087 328.623 55.8809V57.5215ZM339.727 47.4238C339.251 47.1699 338.763 46.9746 338.262 46.8379C337.76 46.6947 337.214 46.623 336.621 46.623C335.944 46.623 335.342 46.7435 334.814 46.9844C334.287 47.2253 333.841 47.5671 333.477 48.0098C333.118 48.446 332.842 48.9733 332.646 49.5918C332.458 50.2103 332.363 50.8939 332.363 51.6426C332.363 52.4238 332.441 53.1237 332.598 53.7422C332.754 54.3607 332.998 54.8848 333.33 55.3145C333.662 55.7441 334.085 56.0729 334.6 56.3008C335.12 56.5286 335.742 56.6426 336.465 56.6426C336.589 56.6426 336.722 56.6361 336.865 56.623C337.008 56.61 337.152 56.5938 337.295 56.5742C337.438 56.5482 337.575 56.5189 337.705 56.4863C337.842 56.4538 337.962 56.418 338.066 56.3789V52.3164H335.459V50.8809H339.785V57.4043C339.518 57.528 339.235 57.6387 338.936 57.7363C338.643 57.834 338.34 57.9154 338.027 57.9805C337.721 58.0456 337.415 58.0944 337.109 58.127C336.803 58.1595 336.507 58.1758 336.221 58.1758C335.348 58.1758 334.561 58.0391 333.857 57.7656C333.161 57.4922 332.565 57.0885 332.07 56.5547C331.582 56.0143 331.204 55.3438 330.938 54.543C330.677 53.7422 330.547 52.8145 330.547 51.7598C330.547 50.7116 330.693 49.7741 330.986 48.9473C331.279 48.1139 331.689 47.4108 332.217 46.8379C332.751 46.2585 333.389 45.819 334.131 45.5195C334.88 45.2135 335.703 45.0605 336.602 45.0605C337.174 45.0605 337.718 45.1126 338.232 45.2168C338.753 45.3145 339.251 45.474 339.727 45.6953V47.4238ZM350.615 57.5215C349.593 57.9447 348.522 58.1562 347.402 58.1562C345.599 58.1562 344.212 57.6191 343.242 56.5449C342.279 55.4642 341.797 53.8691 341.797 51.7598C341.797 50.7376 341.93 49.8132 342.197 48.9863C342.464 48.1595 342.845 47.4596 343.34 46.8867C343.835 46.3073 344.434 45.8613 345.137 45.5488C345.84 45.2363 346.628 45.0801 347.5 45.0801C348.092 45.0801 348.643 45.1322 349.15 45.2363C349.658 45.334 350.146 45.487 350.615 45.6953V47.4043C350.153 47.1504 349.674 46.9583 349.18 46.8281C348.685 46.6914 348.145 46.623 347.559 46.623C346.96 46.623 346.416 46.737 345.928 46.9648C345.446 47.1862 345.036 47.5117 344.697 47.9414C344.359 48.3646 344.098 48.8854 343.916 49.5039C343.734 50.1159 343.643 50.8158 343.643 51.6035C343.643 53.2572 343.978 54.5039 344.648 55.3438C345.319 56.1836 346.302 56.6035 347.598 56.6035C348.145 56.6035 348.669 56.5417 349.17 56.418C349.671 56.2878 350.153 56.1087 350.615 55.8809V57.5215ZM361.719 47.4238C361.243 47.1699 360.755 46.9746 360.254 46.8379C359.753 46.6947 359.206 46.623 358.613 46.623C357.936 46.623 357.334 46.7435 356.807 46.9844C356.279 47.2253 355.833 47.5671 355.469 48.0098C355.111 48.446 354.834 48.9733 354.639 49.5918C354.45 50.2103 354.355 50.8939 354.355 51.6426C354.355 52.4238 354.434 53.1237 354.59 53.7422C354.746 54.3607 354.99 54.8848 355.322 55.3145C355.654 55.7441 356.077 56.0729 356.592 56.3008C357.113 56.5286 357.734 56.6426 358.457 56.6426C358.581 56.6426 358.714 56.6361 358.857 56.623C359.001 56.61 359.144 56.5938 359.287 56.5742C359.43 56.5482 359.567 56.5189 359.697 56.4863C359.834 56.4538 359.954 56.418 360.059 56.3789V52.3164H357.451V50.8809H361.777V57.4043C361.51 57.528 361.227 57.6387 360.928 57.7363C360.635 57.834 360.332 57.9154 360.02 57.9805C359.714 58.0456 359.408 58.0944 359.102 58.127C358.796 58.1595 358.499 58.1758 358.213 58.1758C357.34 58.1758 356.553 58.0391 355.85 57.7656C355.153 57.4922 354.557 57.0885 354.062 56.5547C353.574 56.0143 353.197 55.3438 352.93 54.543C352.669 53.7422 352.539 52.8145 352.539 51.7598C352.539 50.7116 352.686 49.7741 352.979 48.9473C353.271 48.1139 353.682 47.4108 354.209 46.8379C354.743 46.2585 355.381 45.819 356.123 45.5195C356.872 45.2135 357.695 45.0605 358.594 45.0605C359.167 45.0605 359.71 45.1126 360.225 45.2168C360.745 45.3145 361.243 45.474 361.719 45.6953V47.4238ZM372.607 57.5215C371.585 57.9447 370.514 58.1562 369.395 58.1562C367.591 58.1562 366.204 57.6191 365.234 56.5449C364.271 55.4642 363.789 53.8691 363.789 51.7598C363.789 50.7376 363.923 49.8132 364.189 48.9863C364.456 48.1595 364.837 47.4596 365.332 46.8867C365.827 46.3073 366.426 45.8613 367.129 45.5488C367.832 45.2363 368.62 45.0801 369.492 45.0801C370.085 45.0801 370.635 45.1322 371.143 45.2363C371.65 45.334 372.139 45.487 372.607 45.6953V47.4043C372.145 47.1504 371.667 46.9583 371.172 46.8281C370.677 46.6914 370.137 46.623 369.551 46.623C368.952 46.623 368.408 46.737 367.92 46.9648C367.438 47.1862 367.028 47.5117 366.689 47.9414C366.351 48.3646 366.09 48.8854 365.908 49.5039C365.726 50.1159 365.635 50.8158 365.635 51.6035C365.635 53.2572 365.97 54.5039 366.641 55.3438C367.311 56.1836 368.294 56.6035 369.59 56.6035C370.137 56.6035 370.661 56.5417 371.162 56.418C371.663 56.2878 372.145 56.1087 372.607 55.8809V57.5215ZM383.711 47.4238C383.236 47.1699 382.747 46.9746 382.246 46.8379C381.745 46.6947 381.198 46.623 380.605 46.623C379.928 46.623 379.326 46.7435 378.799 46.9844C378.271 47.2253 377.826 47.5671 377.461 48.0098C377.103 48.446 376.826 48.9733 376.631 49.5918C376.442 50.2103 376.348 50.8939 376.348 51.6426C376.348 52.4238 376.426 53.1237 376.582 53.7422C376.738 54.3607 376.982 54.8848 377.314 55.3145C377.646 55.7441 378.07 56.0729 378.584 56.3008C379.105 56.5286 379.727 56.6426 380.449 56.6426C380.573 56.6426 380.706 56.6361 380.85 56.623C380.993 56.61 381.136 56.5938 381.279 56.5742C381.423 56.5482 381.559 56.5189 381.689 56.4863C381.826 56.4538 381.947 56.418 382.051 56.3789V52.3164H379.443V50.8809H383.77V57.4043C383.503 57.528 383.219 57.6387 382.92 57.7363C382.627 57.834 382.324 57.9154 382.012 57.9805C381.706 58.0456 381.4 58.0944 381.094 58.127C380.788 58.1595 380.492 58.1758 380.205 58.1758C379.333 58.1758 378.545 58.0391 377.842 57.7656C377.145 57.4922 376.549 57.0885 376.055 56.5547C375.566 56.0143 375.189 55.3438 374.922 54.543C374.661 53.7422 374.531 52.8145 374.531 51.7598C374.531 50.7116 374.678 49.7741 374.971 48.9473C375.264 48.1139 375.674 47.4108 376.201 46.8379C376.735 46.2585 377.373 45.819 378.115 45.5195C378.864 45.2135 379.688 45.0605 380.586 45.0605C381.159 45.0605 381.702 45.1126 382.217 45.2168C382.738 45.3145 383.236 45.474 383.711 45.6953V47.4238ZM394.707 47.4238C394.232 47.1699 393.743 46.9746 393.242 46.8379C392.741 46.6947 392.194 46.623 391.602 46.623C390.924 46.623 390.322 46.7435 389.795 46.9844C389.268 47.2253 388.822 47.5671 388.457 48.0098C388.099 48.446 387.822 48.9733 387.627 49.5918C387.438 50.2103 387.344 50.8939 387.344 51.6426C387.344 52.4238 387.422 53.1237 387.578 53.7422C387.734 54.3607 387.979 54.8848 388.311 55.3145C388.643 55.7441 389.066 56.0729 389.58 56.3008C390.101 56.5286 390.723 56.6426 391.445 56.6426C391.569 56.6426 391.702 56.6361 391.846 56.623C391.989 56.61 392.132 56.5938 392.275 56.5742C392.419 56.5482 392.555 56.5189 392.686 56.4863C392.822 56.4538 392.943 56.418 393.047 56.3789V52.3164H390.439V50.8809H394.766V57.4043C394.499 57.528 394.215 57.6387 393.916 57.7363C393.623 57.834 393.32 57.9154 393.008 57.9805C392.702 58.0456 392.396 58.0944 392.09 58.127C391.784 58.1595 391.488 58.1758 391.201 58.1758C390.329 58.1758 389.541 58.0391 388.838 57.7656C388.141 57.4922 387.546 57.0885 387.051 56.5547C386.562 56.0143 386.185 55.3438 385.918 54.543C385.658 53.7422 385.527 52.8145 385.527 51.7598C385.527 50.7116 385.674 49.7741 385.967 48.9473C386.26 48.1139 386.67 47.4108 387.197 46.8379C387.731 46.2585 388.369 45.819 389.111 45.5195C389.86 45.2135 390.684 45.0605 391.582 45.0605C392.155 45.0605 392.699 45.1126 393.213 45.2168C393.734 45.3145 394.232 45.474 394.707 45.6953V47.4238ZM406.777 58H404.883L403.994 55.2168H398.682L397.783 58H395.977L400.215 45.2363H402.598L406.777 58ZM403.496 53.6641L401.338 46.8379L399.18 53.6641H403.496ZM417.773 58H415.879L414.99 55.2168H409.678L408.779 58H406.973L411.211 45.2363H413.594L417.773 58ZM414.492 53.6641L412.334 46.8379L410.176 53.6641H414.492ZM64.9219 72.1426C64.9219 72.6634 64.8242 73.181 64.6289 73.6953C64.4336 74.2031 64.1309 74.6589 63.7207 75.0625C63.3105 75.4661 62.7865 75.7949 62.1484 76.0488C61.5104 76.2962 60.7487 76.4199 59.8633 76.4199H58.2812V81H56.543V68.2363H60.1367C60.7682 68.2363 61.3737 68.3079 61.9531 68.4512C62.5326 68.5879 63.0404 68.8125 63.4766 69.125C63.9193 69.4375 64.2708 69.8411 64.5312 70.3359C64.7917 70.8307 64.9219 71.4329 64.9219 72.1426ZM63.1152 72.2207C63.1152 71.4004 62.8451 70.7721 62.3047 70.3359C61.7708 69.8997 61.0221 69.6816 60.0586 69.6816H58.2812V74.9355H59.9023C60.931 74.9355 61.722 74.7109 62.2754 74.2617C62.8353 73.8125 63.1152 73.1322 63.1152 72.2207ZM71.4941 71.0195C71.696 71.0195 71.888 71.0618 72.0703 71.1465C72.2526 71.2246 72.4121 71.332 72.5488 71.4688C72.6855 71.6055 72.793 71.765 72.8711 71.9473C72.9557 72.1296 72.998 72.3216 72.998 72.5234C72.998 72.7318 72.9557 72.9271 72.8711 73.1094C72.793 73.2852 72.6855 73.4414 72.5488 73.5781C72.4121 73.7148 72.2526 73.8223 72.0703 73.9004C71.888 73.9785 71.696 74.0176 71.4941 74.0176C71.2858 74.0176 71.0905 73.9785 70.9082 73.9004C70.7324 73.8223 70.5762 73.7148 70.4395 73.5781C70.3027 73.4414 70.1953 73.2852 70.1172 73.1094C70.0391 72.9271 70 72.7318 70 72.5234C70 72.3216 70.0391 72.1296 70.1172 71.9473C70.1953 71.765 70.3027 71.6055 70.4395 71.4688C70.5762 71.332 70.7324 71.2246 70.9082 71.1465C71.0905 71.0618 71.2858 71.0195 71.4941 71.0195ZM71.4941 78.1777C71.696 78.1777 71.888 78.2201 72.0703 78.3047C72.2526 78.3828 72.4121 78.4902 72.5488 78.627C72.6855 78.7637 72.793 78.9232 72.8711 79.1055C72.9557 79.2878 72.998 79.4798 72.998 79.6816C72.998 79.89 72.9557 80.0853 72.8711 80.2676C72.793 80.4434 72.6855 80.5996 72.5488 80.7363C72.4121 80.873 72.2526 80.9805 72.0703 81.0586C71.888 81.1367 71.696 81.1758 71.4941 81.1758C71.2858 81.1758 71.0905 81.1367 70.9082 81.0586C70.7324 80.9805 70.5762 80.873 70.4395 80.7363C70.3027 80.5996 70.1953 80.4434 70.1172 80.2676C70.0391 80.0853 70 79.89 70 79.6816C70 79.4798 70.0391 79.2878 70.1172 79.1055C70.1953 78.9232 70.3027 78.7637 70.4395 78.627C70.5762 78.4902 70.7324 78.3828 70.9082 78.3047C71.0905 78.2201 71.2858 78.1777 71.4941 78.1777ZM130.693 80.5215C129.671 80.9447 128.6 81.1562 127.48 81.1562C125.677 81.1562 124.29 80.6191 123.32 79.5449C122.357 78.4642 121.875 76.8691 121.875 74.7598C121.875 73.7376 122.008 72.8132 122.275 71.9863C122.542 71.1595 122.923 70.4596 123.418 69.8867C123.913 69.3073 124.512 68.8613 125.215 68.5488C125.918 68.2363 126.706 68.0801 127.578 68.0801C128.171 68.0801 128.721 68.1322 129.229 68.2363C129.736 68.334 130.225 68.487 130.693 68.6953V70.4043C130.231 70.1504 129.753 69.9583 129.258 69.8281C128.763 69.6914 128.223 69.623 127.637 69.623C127.038 69.623 126.494 69.737 126.006 69.9648C125.524 70.1862 125.114 70.5117 124.775 70.9414C124.437 71.3646 124.176 71.8854 123.994 72.5039C123.812 73.1159 123.721 73.8158 123.721 74.6035C123.721 76.2572 124.056 77.5039 124.727 78.3438C125.397 79.1836 126.38 79.6035 127.676 79.6035C128.223 79.6035 128.747 79.5417 129.248 79.418C129.749 79.2878 130.231 79.1087 130.693 78.8809V80.5215ZM141.689 80.5215C140.667 80.9447 139.596 81.1562 138.477 81.1562C136.673 81.1562 135.286 80.6191 134.316 79.5449C133.353 78.4642 132.871 76.8691 132.871 74.7598C132.871 73.7376 133.005 72.8132 133.271 71.9863C133.538 71.1595 133.919 70.4596 134.414 69.8867C134.909 69.3073 135.508 68.8613 136.211 68.5488C136.914 68.2363 137.702 68.0801 138.574 68.0801C139.167 68.0801 139.717 68.1322 140.225 68.2363C140.732 68.334 141.221 68.487 141.689 68.6953V70.4043C141.227 70.1504 140.749 69.9583 140.254 69.8281C139.759 69.6914 139.219 69.623 138.633 69.623C138.034 69.623 137.49 69.737 137.002 69.9648C136.52 70.1862 136.11 70.5117 135.771 70.9414C135.433 71.3646 135.173 71.8854 134.99 72.5039C134.808 73.1159 134.717 73.8158 134.717 74.6035C134.717 76.2572 135.052 77.5039 135.723 78.3438C136.393 79.1836 137.376 79.6035 138.672 79.6035C139.219 79.6035 139.743 79.5417 140.244 79.418C140.745 79.2878 141.227 79.1087 141.689 78.8809V80.5215ZM153.125 69.7207H149.346V81H147.588V69.7207H143.809V68.2363H153.125V69.7207ZM164.121 69.7207H160.342V81H158.584V69.7207H154.805V68.2363H164.121V69.7207ZM175.117 69.7207H171.338V81H169.58V69.7207H165.801V68.2363H175.117V69.7207ZM186.113 69.7207H182.334V81H180.576V69.7207H176.797V68.2363H186.113V69.7207Z" fill="#C9D1D9"/>
<path d="M197.852 58H195.957L195.068 55.2168H189.756L188.857 58H187.051L191.289 45.2363H193.672L197.852 58ZM194.57 53.6641L192.412 46.8379L190.254 53.6641H194.57ZM196.777 70.4238C196.302 70.1699 195.814 69.9746 195.312 69.8379C194.811 69.6947 194.264 69.623 193.672 69.623C192.995 69.623 192.393 69.7435 191.865 69.9844C191.338 70.2253 190.892 70.5671 190.527 71.0098C190.169 71.446 189.893 71.9733 189.697 72.5918C189.508 73.2103 189.414 73.8939 189.414 74.6426C189.414 75.4238 189.492 76.1237 189.648 76.7422C189.805 77.3607 190.049 77.8848 190.381 78.3145C190.713 78.7441 191.136 79.0729 191.65 79.3008C192.171 79.5286 192.793 79.6426 193.516 79.6426C193.639 79.6426 193.773 79.6361 193.916 79.623C194.059 79.61 194.202 79.5938 194.346 79.5742C194.489 79.5482 194.626 79.5189 194.756 79.4863C194.893 79.4538 195.013 79.418 195.117 79.3789V75.3164H192.51V73.8809H196.836V80.4043C196.569 80.528 196.286 80.6387 195.986 80.7363C195.693 80.834 195.391 80.9154 195.078 80.9805C194.772 81.0456 194.466 81.0944 194.16 81.127C193.854 81.1595 193.558 81.1758 193.271 81.1758C192.399 81.1758 191.611 81.0391 190.908 80.7656C190.212 80.4922 189.616 80.0885 189.121 79.5547C188.633 79.0143 188.255 78.3438 187.988 77.543C187.728 76.7422 187.598 75.8145 187.598 74.7598C187.598 73.7116 187.744 72.7741 188.037 71.9473C188.33 71.1139 188.74 70.4108 189.268 69.8379C189.801 69.2585 190.439 68.819 191.182 68.5195C191.93 68.2135 192.754 68.0605 193.652 68.0605C194.225 68.0605 194.769 68.1126 195.283 68.2168C195.804 68.3145 196.302 68.474 196.777 68.6953V70.4238Z" fill="#E30310"/>
<path d="M207.666 57.5215C206.644 57.9447 205.573 58.1562 204.453 58.1562C202.65 58.1562 201.263 57.6191 200.293 56.5449C199.329 55.4642 198.848 53.8691 198.848 51.7598C198.848 50.7376 198.981 49.8132 199.248 48.9863C199.515 48.1595 199.896 47.4596 200.391 46.8867C200.885 46.3073 201.484 45.8613 202.188 45.5488C202.891 45.2363 203.678 45.0801 204.551 45.0801C205.143 45.0801 205.693 45.1322 206.201 45.2363C206.709 45.334 207.197 45.487 207.666 45.6953V47.4043C207.204 47.1504 206.725 46.9583 206.23 46.8281C205.736 46.6914 205.195 46.623 204.609 46.623C204.01 46.623 203.467 46.737 202.979 46.9648C202.497 47.1862 202.087 47.5117 201.748 47.9414C201.41 48.3646 201.149 48.8854 200.967 49.5039C200.785 50.1159 200.693 50.8158 200.693 51.6035C200.693 53.2572 201.029 54.5039 201.699 55.3438C202.37 56.1836 203.353 56.6035 204.648 56.6035C205.195 56.6035 205.719 56.5417 206.221 56.418C206.722 56.2878 207.204 56.1087 207.666 55.8809V57.5215ZM207.666 80.5215C206.644 80.9447 205.573 81.1562 204.453 81.1562C202.65 81.1562 201.263 80.6191 200.293 79.5449C199.329 78.4642 198.848 76.8691 198.848 74.7598C198.848 73.7376 198.981 72.8132 199.248 71.9863C199.515 71.1595 199.896 70.4596 200.391 69.8867C200.885 69.3073 201.484 68.8613 202.188 68.5488C202.891 68.2363 203.678 68.0801 204.551 68.0801C205.143 68.0801 205.693 68.1322 206.201 68.2363C206.709 68.334 207.197 68.487 207.666 68.6953V70.4043C207.204 70.1504 206.725 69.9583 206.23 69.8281C205.736 69.6914 205.195 69.623 204.609 69.623C204.01 69.623 203.467 69.737 202.979 69.9648C202.497 70.1862 202.087 70.5117 201.748 70.9414C201.41 71.3646 201.149 71.8854 200.967 72.5039C200.785 73.1159 200.693 73.8158 200.693 74.6035C200.693 76.2572 201.029 77.5039 201.699 78.3438C202.37 79.1836 203.353 79.6035 204.648 79.6035C205.195 79.6035 205.719 79.5417 206.221 79.418C206.722 79.2878 207.204 79.1087 207.666 78.8809V80.5215Z" fill="#989B05"/>
<g filter="url(#filter0_d)">
<path d="M208.465 92H201.141" stroke="#C9D1D9" stroke-width="2"/>
<path d="M190.293 91.2929C189.902 91.6834 189.902 92.3166 190.293 92.7071L196.657 99.0711C197.047 99.4616 197.681 99.4616 198.071 99.0711C198.462 98.6805 198.462 98.0474 198.071 97.6569L192.414 92L198.071 86.3431C198.462 85.9526 198.462 85.3195 198.071 84.9289C197.681 84.5384 197.047 84.5384 196.657 84.9289L190.293 91.2929ZM197.761 91H191V93H197.761V91Z" fill="#C9D1D9"/>
</g>
<g filter="url(#filter1_d)">
<path d="M4.45312 19V7.23438H5.92188V14.9062L9.88281 10.7188H11.4922L8.125 14.3594L11.8281 19H10.1328L7.16406 15.1562L5.92188 16.3906V19H4.45312ZM14.625 16.6641C14.625 17.5859 15.2786 18.0469 16.5859 18.0469C17.8932 18.0469 18.5469 17.5859 18.5469 16.6641V13.0781C18.5469 12.151 17.8932 11.6875 16.5859 11.6875C15.2786 11.6875 14.625 12.151 14.625 13.0781V16.6641ZM20.0156 16.5391C20.0156 17.3516 19.737 17.9948 19.1797 18.4688C18.6276 18.9375 17.7604 19.1719 16.5781 19.1719C15.3958 19.1719 14.5286 18.9375 13.9766 18.4688C13.4297 18 13.1562 17.3568 13.1562 16.5391V13.2031C13.1562 12.3854 13.4297 11.7422 13.9766 11.2734C14.5286 10.7995 15.3958 10.5625 16.5781 10.5625C17.7604 10.5625 18.6276 10.7995 19.1797 11.2734C19.737 11.7474 20.0156 12.3906 20.0156 13.2031V16.5391ZM22.625 19V10.7188H24.0938V11.8906C24.2812 11.3802 24.7891 11.0104 25.6172 10.7812C26.0495 10.6562 26.5 10.5964 26.9688 10.6016L26.9219 11.8594C26.2135 11.8594 25.5651 12 24.9766 12.2812C24.388 12.5625 24.0938 12.8698 24.0938 13.2031V19H22.625ZM31.0547 19.1719C30.2161 19.1719 29.5651 18.9453 29.1016 18.4922C28.638 18.0339 28.4062 17.4661 28.4062 16.7891C28.4062 16.4036 28.487 16.0833 28.6484 15.8281C28.9766 15.3073 29.9557 14.8099 31.5859 14.3359C32.5286 14.0755 33.0703 13.8516 33.2109 13.6641C33.3568 13.4766 33.4375 13.3307 33.4531 13.2266C33.4688 13.1172 33.4766 12.9453 33.4766 12.7109C33.4766 12.4766 33.3802 12.2474 33.1875 12.0234C33 11.7995 32.5885 11.6875 31.9531 11.6875C31.0573 11.6875 30.5078 11.8594 30.3047 12.2031C30.2005 12.3802 30.1484 12.6198 30.1484 12.9219V13.2891H28.7344V12.9141C28.7344 12.1068 29.0026 11.513 29.5391 11.1328C30.0807 10.7526 30.888 10.5625 31.9609 10.5625C33.0339 10.5625 33.7995 10.8073 34.2578 11.2969C34.7161 11.7812 34.9453 12.474 34.9453 13.375V16.9062C34.9453 17.3385 35 17.6198 35.1094 17.75C35.2188 17.875 35.4531 17.9375 35.8125 17.9375L35.6406 19.0625H35.3438C34.8229 19.0625 34.4349 18.9635 34.1797 18.7656C33.9245 18.5625 33.7292 18.25 33.5938 17.8281C33.1615 18.474 32.6406 18.8802 32.0312 19.0469C31.7396 19.1302 31.4141 19.1719 31.0547 19.1719ZM31.7891 15.3438C31.0495 15.5573 30.5365 15.7708 30.25 15.9844C29.9688 16.1979 29.8281 16.5 29.8281 16.8906C29.8281 17.276 29.9583 17.5677 30.2188 17.7656C30.4844 17.9635 30.8021 18.0625 31.1719 18.0625C31.5469 18.0625 31.8854 18.0156 32.1875 17.9219C32.4896 17.8229 32.7604 17.6797 33 17.4922C33.2448 17.2995 33.4036 17.0807 33.4766 16.8359V14.4453C33.0964 14.8255 32.5339 15.125 31.7891 15.3438ZM37.9844 19V7.23438H39.4531V14.9062L43.4141 10.7188H45.0234L41.6562 14.3594L45.3594 19H43.6641L40.6953 15.1562L39.4531 16.3906V19H37.9844ZM47.3359 19L47.1875 17.7656L51 13.6172C51.6927 12.8672 52.0859 12.4062 52.1797 12.2344C52.2786 12.0573 52.3724 11.8646 52.4609 11.6562C52.5547 11.4479 52.6016 11.1432 52.6016 10.7422C52.6016 10.0286 52.4505 9.52604 52.1484 9.23438C51.8464 8.94271 51.3438 8.79688 50.6406 8.79688C50.2031 8.79688 49.8516 8.82552 49.5859 8.88281C49.3203 8.9401 49.0911 9.04948 48.8984 9.21094C48.5547 9.4974 48.3828 10.0938 48.3828 11H46.8125C46.8125 8.6875 48.0495 7.53125 50.5234 7.53125C51.7109 7.53125 52.6016 7.83333 53.1953 8.4375C53.7891 9.03646 54.0859 9.76562 54.0859 10.625C54.0859 11.4844 53.9297 12.1562 53.6172 12.6406C53.3099 13.125 52.9922 13.5391 52.6641 13.8828C52.3359 14.2214 52.151 14.4141 52.1094 14.4609L48.9766 17.7812H54.0234V19H47.3359Z" fill="#C9D1D9"/>
</g>
<g filter="url(#filter2_d)">
<circle cx="192" cy="53" r="10.5" stroke="#C9D1D9"/>
</g>
<g filter="url(#filter3_d)">
<circle cx="115" cy="75" r="10.5" stroke="#C9D1D9"/>
</g>
<defs>
<filter id="filter0_d" x="186" y="84.636" width="26.4648" height="22.7279" filterUnits="userSpaceOnUse" color-interpolation-filters="sRGB">
<feFlood flood-opacity="0" result="BackgroundImageFix"/>
<feColorMatrix in="SourceAlpha" type="matrix" values="0 0 0 0 0 0 0 0 0 0 0 0 0 0 0 0 0 0 127 0"/>
<feOffset dy="4"/>
<feGaussianBlur stdDeviation="2"/>
<feColorMatrix type="matrix" values="0 0 0 0 0 0 0 0 0 0 0 0 0 0 0 0 0 0 0.25 0"/>
<feBlend mode="normal" in2="BackgroundImageFix" result="effect1_dropShadow"/>
<feBlend mode="normal" in="SourceGraphic" in2="effect1_dropShadow" result="shape"/>
</filter>
<filter id="filter1_d" x="0.453125" y="7.23438" width="57.6328" height="19.9375" filterUnits="userSpaceOnUse" color-interpolation-filters="sRGB">
<feFlood flood-opacity="0" result="BackgroundImageFix"/>
<feColorMatrix in="SourceAlpha" type="matrix" values="0 0 0 0 0 0 0 0 0 0 0 0 0 0 0 0 0 0 127 0"/>
<feOffset dy="4"/>
<feGaussianBlur stdDeviation="2"/>
<feColorMatrix type="matrix" values="0 0 0 0 0 0 0 0 0 0 0 0 0 0 0 0 0 0 0.25 0"/>
<feBlend mode="normal" in2="BackgroundImageFix" result="effect1_dropShadow"/>
<feBlend mode="normal" in="SourceGraphic" in2="effect1_dropShadow" result="shape"/>
</filter>
<filter id="filter2_d" x="177" y="42" width="30" height="30" filterUnits="userSpaceOnUse" color-interpolation-filters="sRGB">
<feFlood flood-opacity="0" result="BackgroundImageFix"/>
<feColorMatrix in="SourceAlpha" type="matrix" values="0 0 0 0 0 0 0 0 0 0 0 0 0 0 0 0 0 0 127 0"/>
<feOffset dy="4"/>
<feGaussianBlur stdDeviation="2"/>
<feColorMatrix type="matrix" values="0 0 0 0 0 0 0 0 0 0 0 0 0 0 0 0 0 0 0.25 0"/>
<feBlend mode="normal" in2="BackgroundImageFix" result="effect1_dropShadow"/>
<feBlend mode="normal" in="SourceGraphic" in2="effect1_dropShadow" result="shape"/>
</filter>
<filter id="filter3_d" x="100" y="64" width="30" height="30" filterUnits="userSpaceOnUse" color-interpolation-filters="sRGB">
<feFlood flood-opacity="0" result="BackgroundImageFix"/>
<feColorMatrix in="SourceAlpha" type="matrix" values="0 0 0 0 0 0 0 0 0 0 0 0 0 0 0 0 0 0 127 0"/>
<feOffset dy="4"/>
<feGaussianBlur stdDeviation="2"/>
<feColorMatrix type="matrix" values="0 0 0 0 0 0 0 0 0 0 0 0 0 0 0 0 0 0 0.25 0"/>
<feBlend mode="normal" in2="BackgroundImageFix" result="effect1_dropShadow"/>
<feBlend mode="normal" in="SourceGraphic" in2="effect1_dropShadow" result="shape"/>
</filter>
</defs>
</svg>
